<svg width="24" height="24" version="1.1" xmlns="http://www.w3.org/2000/svg">
  <defs>
    <style id="current-color-scheme" type="text/css">.ColorScheme-Text { color:#282828; } .ColorScheme-Highlight { color:#458588; } .ColorScheme-NeutralText { color:#fe8019; } .ColorScheme-PositiveText { color:#689d6a; } .ColorScheme-NegativeText { color:#fb4934; }</style>
  </defs>
  <path class="ColorScheme-Text" d="m17 6a2 2 0 0 0-2 2 2 2 0 0 0 2 2 2 2 0 0 0 2-2 2 2 0 0 0-2-2zm-4.947 3.002c-0.296-0.02773-0.6476 0.169-2.363 1.318-1.53 1.025-1.837 1.2-2.072 1.193-0.1792-0.0053-0.5185-0.09974-1.68-0.4688-1.713-0.5442-2.183-0.6716-2.629-0.7168-0.2886-0.02927-0.3587 0.03116-0.2773 0.2422 0.1807 0.4681 0.9733 1.462 1.988 2.492 0.9037 0.9172 1.662 1.545 2.176 1.803 0.3049 0.153 0.4166 0.166 0.7344 0.08594 0.4122-0.1039 1.18-0.4828 2.154-1.062 0.331-0.197 0.8345-0.4964 1.119-0.666s0.5796-0.334 0.6543-0.3652c0.1244-0.05203 0.1422-0.05492 0.2285-0.02344 0.1598 0.05823 0.366 0.1739 1.121 0.6289 1.812 1.092 2.498 1.436 3.037 1.525 0.2521 0.04162 0.5364-0.06723 0.9766-0.373 1.217-0.8452 3.3-3.07 3.707-3.959 0.1415-0.309 0.08907-0.3657-0.2891-0.3203-0.4436 0.05324-0.8941 0.1764-2.467 0.6777-1.193 0.3802-1.613 0.4981-1.793 0.502-0.2315 5e-3 -0.5374-0.1717-2.045-1.184-1.516-1.017-2.007-1.304-2.281-1.33z" fill="currentColor"/>
</svg>
