<svg width="24" height="24" version="1.1" xmlns="http://www.w3.org/2000/svg">
  <defs>
    <style id="current-color-scheme" type="text/css">.ColorScheme-Text { color:#282828; } .ColorScheme-Highlight { color:#458588; } .ColorScheme-NeutralText { color:#fe8019; } .ColorScheme-PositiveText { color:#689d6a; } .ColorScheme-NegativeText { color:#fb4934; }</style>
  </defs>
  <path class="ColorScheme-Text" d="m4 5s-1 0-1 1l1e-7 11c0 1 1 1 1 1h3l1 1h7l1-1h3s1 0.13 1-1v-11c0-1-1-1-1-1zm8 3c1.1 0 2 0.895 2 2 0 1.105-0.9 2-2 2v1h-1v-2h1c0.55 0 1-0.448 1-1s-0.45-1-1-1-1 0.448-1 1h-1c0-1.105 0.9-2 2-2zm-1 6h1v1h-1z" fill="currentColor"/>
</svg>
