<svg width="24" height="24" version="1.1" xmlns="http://www.w3.org/2000/svg">
  <defs>
    <style id="current-color-scheme" type="text/css">.ColorScheme-Text { color:#282828; } .ColorScheme-Highlight { color:#458588; } .ColorScheme-NeutralText { color:#fe8019; } .ColorScheme-PositiveText { color:#689d6a; } .ColorScheme-NegativeText { color:#fb4934; }</style>
  </defs>
  <path class="ColorScheme-Text" d="m14 16v1h2v1h-1.5a0.50005 0.50005 0 0 0-0.5 0.5v2a0.50005 0.50005 0 0 0 0.5 0.5h2.5v-1h-2v-1h1.5a0.50005 0.50005 0 0 0 0.5-0.5v-2a0.50005 0.50005 0 0 0-0.5-0.5h-2.5zm5.5 0c-0.25 0-0.4437-0.001499-0.63281 0.019531-0.18911 0.02101-0.41535 0.0716-0.5957 0.25195-0.18035 0.18035-0.23094 0.4066-0.25195 0.5957-0.021012 0.18911-0.019531 0.38281-0.019531 0.63281v2c0 0.25-0.001499 0.44371 0.019531 0.63281 0.02101 0.18911 0.0716 0.41535 0.25195 0.5957 0.18035 0.18035 0.4066 0.23094 0.5957 0.25195 0.18911 0.021012 0.38281 0.019531 0.63281 0.019531s0.44371 0.001499 0.63281-0.019531c0.18911-0.02101 0.41535-0.0716 0.5957-0.25195 0.18035-0.18035 0.23094-0.4066 0.25195-0.5957 0.021012-0.18911 0.019531-0.38281 0.019531-0.63281v-1.5h-1v1.5c0 0.23322-0.003099 0.39131-0.011719 0.48828-0.096974 0.008584-0.25506 0.011719-0.48828 0.011719s-0.39131-0.003135-0.48828-0.011719c-0.008584-0.096975-0.011719-0.25506-0.011719-0.48828v-2c0-0.23322 0.003099-0.39131 0.011719-0.48828 0.096974-0.008584 0.25506-0.011719 0.48828-0.011719h1.5v-1h-1.5z" fill="currentColor"/>
</svg>
