<svg width="24" height="24" version="1.1" xmlns="http://www.w3.org/2000/svg">
  <defs>
    <style id="current-color-scheme" type="text/css">.ColorScheme-Text { color:#282828; } .ColorScheme-Highlight { color:#458588; } .ColorScheme-NeutralText { color:#fe8019; } .ColorScheme-PositiveText { color:#689d6a; } .ColorScheme-NegativeText { color:#fb4934; }</style>
  </defs>
  <path class="ColorScheme-Text" d="m12 4c-4.418 0-8 3.582-8 8 0 3.357 2.069 6.229 5 7.416v-2.811c-0.2744 0.03924-0.5516 0.03872-0.8223-0.0039-1.373-1.135-2.171-2.821-2.178-4.602 0.0061-2.343 1.375-4.468 3.506-5.441-0.8731 0.7325-1.429 1.84-1.412 3.059 0.0077 0.6105 0.1622 1.182 0.4238 1.693 1.428-0.04085 2.383 0.9724 2.684 1.979 0.1507 0.576 0.1043 1.178-0.1172 1.711h1.588c-0.3885-1.104 0.05923-2.189 0.6133-2.773 0.5403-0.54 1.265-0.8084 1.986-0.7832 0.433 0.01509 0.8647 0.1351 1.254 0.3652 0.6588 0.389 1.091 1.03 1.256 1.73-0.1385 0.5218-0.345 1.01-0.6055 1.461h2.24c0.3754-0.9268 0.584-1.939 0.584-3 0-4.418-3.582-8-8-8zm0 2c3.314 2e-7 6 2.686 6 6-0.0056 0.2064-0.02194 0.4124-0.04883 0.6172-0.3967-1.687-1.848-2.924-3.576-3.012-0.4634 0.8591-1.378 1.45-2.465 1.404-1.6-0.06754-2.571-1.353-2.559-2.664 0.0085-0.8565 0.4298-1.623 1.066-2.117 0.5148-0.1464 1.047-0.2232 1.582-0.2285z" fill="currentColor"/>
  <path class="ColorScheme-Highlight" d="m10 16v5h1v-1.293l1.293 1.293h0.707v-0.707l-1.293-1.293h1.293v-3zm4 0v5h3v-1h-2v-1h2v-1h-2v-1h2v-1zm4 0v5h3v-1h-2v-3h2v-1zm-7 1h1v1h-1z" fill="currentColor"/>
</svg>
