<svg width="24" height="24" version="1.1" xmlns="http://www.w3.org/2000/svg">
  <defs>
    <style id="current-color-scheme" type="text/css">.ColorScheme-Text { color:#282828; } .ColorScheme-Highlight { color:#458588; } .ColorScheme-NeutralText { color:#fe8019; } .ColorScheme-PositiveText { color:#689d6a; } .ColorScheme-NegativeText { color:#fb4934; }</style>
  </defs>
  <path class="ColorScheme-Text" d="m12.5 4c-3.037 0-5.5 2.328-5.5 5.199 0.00172 0.1337 0.00888 0.2672 0.02148 0.4004h-0.02148v0.4004h-1.166c-0.4617 0-0.834 0.3465-0.834 0.7773v5.445c0 0.4309 0.3723 0.7773 0.834 0.7773h1.166v2.199c0 0.4432 0.3769 0.8008 0.8457 0.8008h2.963l1.268-2h0.8477l1.268 2h2.963c0.4688 0 0.8457-0.3576 0.8457-0.8008v-2.199h1.166c0.4617 0 0.834-0.3465 0.834-0.7773v-5.445c0-0.4309-0.3723-0.7773-0.834-0.7773h-1.166v-0.4004h-0.01758c0.0113-0.1332 0.01716-0.2668 0.01758-0.4004-4.56e-4 -2.872-2.463-5.199-5.5-5.199zm0 2c1.933-1e-7 3.5 0.999 3.5 3.977-5.58e-4 0.01498-0.0012 0.03191-2e-3 0.04687l-6.998-0.001949c-9.31e-5 -0.01497-9.31e-5 -0.02995 0-0.04492 0-2.978 1.567-3.977 3.5-3.977zm-2.5 2v1h1v-1h-1zm4 0v1h1v-1h-1zm-5.5 4a1.5 1.5 0 0 1 1.5 1.5 1.5 1.5 0 0 1-1.5 1.5 1.5 1.5 0 0 1-1.5-1.5 1.5 1.5 0 0 1 1.5-1.5zm4 0a1.5 1.5 0 0 1 1.5 1.5 1.5 1.5 0 0 1-1.5 1.5 1.5 1.5 0 0 1-1.5-1.5 1.5 1.5 0 0 1 1.5-1.5zm4 0a1.5 1.5 0 0 1 1.5 1.5 1.5 1.5 0 0 1-1.5 1.5 1.5 1.5 0 0 1-1.5-1.5 1.5 1.5 0 0 1 1.5-1.5z" fill="currentColor" opacity=".3"/>
  <path class="ColorScheme-Text" d="m8 13v1h1v-1h-1zm4 0v1h1v-1h-1zm4 0v1h1v-1h-1z" fill="currentColor"/>
</svg>
