<svg width="24" height="24" version="1.1" xmlns="http://www.w3.org/2000/svg">
  <defs>
    <style id="current-color-scheme" type="text/css">.ColorScheme-Text { color:#282828; } .ColorScheme-Highlight { color:#458588; } .ColorScheme-NeutralText { color:#fe8019; } .ColorScheme-PositiveText { color:#689d6a; } .ColorScheme-NegativeText { color:#fb4934; }</style>
  </defs>
  <path class="ColorScheme-Text" d="m14.51 4.997c0.8932 1.186 2.619 3.064 4.49 5.047l-2e-3 -4.355c0.0085-0.3252-0.2247-0.6893-0.6523-0.6914zm-10.51 2 3.943 11.21c0.07496 0.221 0.3443 0.7829 0.6836 0.793l3.605-0.0039c-1.439-4.02-2.584-7.413-4.023-11.43-0.1045-0.2305-0.4351-0.5684-0.8184-0.5684zm8.232 12c0.1776-0.2662 0.3876-0.5671 0.6172-0.8887-0.5487-0.7612-0.8458-1.675-0.8496-2.613 0-2.485 2.015-4.5 4.5-4.5 0.5284 1.44e-4 1.053 0.09337 1.549 0.2754 0.3177-0.411 0.6364-0.8215 0.9492-1.229l-2.369-2.252-5.551 7.209zm4.268-7.002c-1.933 0-3.5 1.567-3.5 3.5 0 1.933 1.567 3.5 3.5 3.5s3.5-1.567 3.5-3.5c0-1.933-1.567-3.5-3.5-3.5zm0 1c0.3571 1.429 1.785 2.5 1.785 3.393s-0.7959 1.607-1.785 1.607-1.785-0.7146-1.785-1.607 1.428-1.964 1.785-3.393z" fill="currentColor"/>
</svg>
