<svg width="24" height="24" version="1.1" xmlns="http://www.w3.org/2000/svg">
  <defs>
    <style id="current-color-scheme" type="text/css">.ColorScheme-Text { color:#282828; } .ColorScheme-Highlight { color:#458588; } .ColorScheme-NeutralText { color:#fe8019; } .ColorScheme-PositiveText { color:#689d6a; } .ColorScheme-NegativeText { color:#fb4934; }</style>
  </defs>
  <path class="ColorScheme-Text" fill="currentColor"  d="m6 5c-0.554 0-1 0.446-1 1s0.446 1 1 1h6c0.554 0 1-0.446 1-1s-0.446-1-1-1h-6zm3 4c-0.554 0-1 0.446-1 1 0 0.554 0.446 1 1 1h10c0.554 0 1-0.446 1-1 0-0.554-0.446-1-1-1h-10zm-4 4c-0.554 0-1 0.446-1 1s0.446 1 1 1h11c0.554 0 1-0.446 1-1s-0.446-1-1-1h-11zm2 4c-0.554 0-1 0.446-1 1s0.446 1 1 1h12c0.554 0 1-0.446 1-1s-0.446-1-1-1h-12z" opacity=".3"/>
</svg>
