<svg width="24" height="24" version="1.1" xmlns="http://www.w3.org/2000/svg">
  <defs>
    <style id="current-color-scheme" type="text/css">.ColorScheme-Text { color:#282828; } .ColorScheme-Highlight { color:#458588; } .ColorScheme-NeutralText { color:#fe8019; } .ColorScheme-PositiveText { color:#689d6a; } .ColorScheme-NegativeText { color:#fb4934; }</style>
  </defs>
  <path class="ColorScheme-Text" d="m12 4c-4.432 0-8 3.568-8 8 0 0.837 0.1289 1.643 0.3652 2.4l0.0098-0.052c0.1449-0.565 0.4243-1.151 0.9238-1.614 0.5874-0.544 1.271-0.691 1.978-0.703 0.1171-0.247 0.2111-0.511 0.4453-0.683 0.098-0.073 0.2055-0.043 0.3106-0.09l0.0215-0.055c0.2834-0.537 0.6536-0.943 1.172-1.527 0.707-0.797 1.804-1.536 2.822-2.197 1.018-0.6616 4.049-2.346 4.049-2.346-1.199-0.7143-2.596-1.133-4.098-1.133zm7.365 4.865s-2.126 2.714-2.941 3.604c-0.814 0.888-1.722 1.846-2.627 2.414-0.596 0.374-1.047 0.493-1.526 0.676-0.075 0.423-0.263 0.823-0.634 1.097-0.23 0.17-0.509 0.154-0.776 0.196-0.125 0.453-0.343 0.907-0.736 1.308l-0.039 0.039c-0.5424 0.497-1.205 0.72-1.822 0.791l-0.1523 6e-3c1.15 0.638 2.475 1.004 3.889 1.004 4.432 0 8-3.568 8-8 0-1.114-0.227-2.173-0.635-3.135z" fill="currentColor" opacity=".3"/>
  <path class="ColorScheme-Text" d="m19.18 5.008c-0.309-0.0345-0.603 0.0827-0.885 0.1817 0 0-0.968 0.4308-1.484 0.6972-0.517 0.2664-1.023 0.5437-1.418 0.7656-0.396 0.2219-1.8 1.019-2.793 1.664-0.993 0.6454-2.075 1.41-2.619 2.024-0.2694 0.303-0.48 0.543-0.6524 0.762 0.3379 0.11 0.6465 0.317 0.8688 0.619l1.819 2.467c0.1 0.136 0.171 0.286 0.226 0.439 0.29-0.146 0.604-0.325 1.03-0.592 0.699-0.439 1.627-1.375 2.421-2.242 0.795-0.867 1.795-2.109 2.067-2.457 0.272-0.348 0.615-0.7953 0.951-1.254 0.336-0.4587 0.663-0.929 0.904-1.33 0.121-0.2006 0.221-0.3832 0.289-0.543 0.069-0.1597 0.117-0.2901 0.098-0.4336-0.032-0.2386-0.152-0.3788-0.223-0.4512l-9e-3 -0.0117c-0.084-0.1012-0.178-0.165-0.276-0.2129-0.106-0.0513-0.211-0.0803-0.314-0.0918zm-10.29 7.002c-0.1936-0.03-0.3975 0.016-0.5683 0.142-0.3416 0.252-0.4139 0.729-0.1621 1.071l1.816 2.466c0.2513 0.342 0.7303 0.414 1.072 0.163 0.342-0.252 0.414-0.729 0.162-1.071l-1.818-2.467c-0.1259-0.17-0.3084-0.275-0.502-0.304zm-1.848 1.023c-0.416 0.062-0.823 0.217-1.059 0.436-0.3233 0.299-0.5264 0.704-0.6348 1.127-0.178 0.693-0.1899 1.69-0.3262 2.427-0.0676 0.366-0.3768 0.936-0.9531 1.674-0.1472 0.248 0 0.28 0 0.28 0.0826 0.058 0.2332-1e-3 0.3086-0.034 1.334-1.096 2.214-0.94 3.775-0.947 0.4592-0.053 0.9133-0.216 1.262-0.535 0.2264-0.231 0.3514-0.434 0.4414-0.635-0.2641-0.119-0.5043-0.297-0.6855-0.543l-1.818-2.467c-0.1742-0.236-0.2707-0.507-0.3105-0.783z" fill="currentColor"/>
</svg>
