<svg width="22" height="22" version="1.1" xmlns="http://www.w3.org/2000/svg">
  <defs>
    <style type="text/css">.ColorScheme-Text { color:#ebdbb2; } .ColorScheme-Highlight { color:#458588; }</style>
  </defs>
  <path class="ColorScheme-Text" d="m5.5 6v10h7.5s-1 0-1-1v-3h4.5v-6z" fill="currentColor" opacity=".3"/>
  <path class="ColorScheme-Text" d="m14.5 4v8h2v-7.25c0-0.4155-0.3345-0.75-0.75-0.75z" fill="currentColor" opacity=".3"/>
  <path class="ColorScheme-Text" d="m6.25 4c-0.4155 0-0.75 0.3345-0.75 0.75v1.25h11v-1.25c0-0.4155-0.3345-0.75-0.75-0.75zm-0.75 4v2h11v-2zm0 4v2h6.5c0-1 1-1 1-1h0.5c0-1 1-1 1-1zm9 1v1h-1.5v1h5v-1h-1.5v-1zm-0.5 3v3h3v-3zm-8.5 0v1.25c0 0.4155 0.3345 0.75 0.75 0.75h6.75v-2z" fill="currentColor"/>
</svg>
