<svg id="svg34" width="22" height="22" style="isolation:isolate" version="1.1" viewBox="0 0 22 22" xmlns="http://www.w3.org/2000/svg">
 <path id="path19" d="m9.0501 3.9827c-1.3026 0-2.0036 1.3781-2.0036 2.6749 0 1.0274 0.76015 2.9916 1.9513 2.9916 0.77106 0 1.6887-0.58156 1.6887-3.3459 0-1.2151-0.7812-2.3207-1.6364-2.3207zm4.3664 0c-1.4177 0-2.17 1.5144-2.17 2.6096 0 0.87021 0.32142 3.3552 1.75 3.3552 1.4086 0 2.1699-1.759 2.1699-3.4113 0-1.6678-1.0172-2.5536-1.7499-2.5536zm-7.5687 4.7718c-0.93404 0-1.8813 1.4552-1.8813 2.8798 0 1.0161 0.71767 2.4885 1.8377 2.4885 1.1298 0 1.8023-1.5658 1.8023-3.0758 0-1.1587-0.87273-2.2926-1.7587-2.2926zm10.745 0c-0.72964 0.016409-1.4768 0.70834-2.1263 2.004-0.45283 0.90157-0.54349 1.7625-0.26272 2.4231 0.19716 0.46236 0.56338 0.78735 1.0326 0.90406 0.10621 0.0268 0.2156 0.03728 0.32374 0.03728 0.8764 0 1.7368-0.8807 2.24-2.3021 0.25924-0.73605 0.21106-1.6705-0.11374-2.3207-0.19262-0.38563-0.46055-0.62778-0.77868-0.70834-0.10318-0.026194-0.20895-0.038714-0.31495-0.037278zm-5.845 2.6843c-0.896 0-1.4613 0.70948-2.0564 1.4631-0.196 0.2493-0.3948 0.50587-0.62131 0.75516-0.27218 0.30153-0.5544 0.53234-0.79626 0.73606-0.574 0.48344-1.0674 0.9051-1.0674 1.864 0 0.86699 0.61687 1.7429 1.7936 1.7429 0.6496 0 1.12-0.15149 1.5751-0.2982 0.40368-0.13062 0.78419-0.25179 1.2689-0.25179 0.52814 0 1.0052 0.0922 1.47 0.18648 0.4536 0.09211 0.92622 0.19593 1.4261 0.19593 1.3179 0 1.9863-0.58281 1.9863-1.7148 0-0.86585-0.69662-1.192-1.3126-1.4824-0.40677-0.19208-0.82571-0.39124-1.0847-0.72682-0.20876-0.27501-0.40446-0.5612-0.58636-0.85744-0.51742-0.82785-0.99873-1.6122-1.995-1.6122z" fill="#ebdbb2" stroke-width=".10013"/>
</svg>
