<svg width="22" height="22" version="1.1" viewBox="0 0 22 22" xmlns="http://www.w3.org/2000/svg">
  <defs>
    <style type="text/css">.ColorScheme-Text { color:#ebdbb2; } .ColorScheme-Highlight { color:#458588; }</style>
  </defs>
  <path class="ColorScheme-Text" d="m6 4c-0.554 0-0.8248 0.4744-1 1l-1 3-0.00977 9c-6.012e-4 0.554 0.446 1 1 1h12.02c0.554 0 1.001-0.446 1-1l-0.0098-9-1-3c-0.2478-0.4955-0.446-1-1-1zm2 2h6c0.554 0 0.8248 0.4744 1 1l0.334 1h-8.668l0.334-1c0.1752-0.5256 0.446-1 1-1zm3 4 3 3-2-0.0078v3.008h-2v-3.008l-2 0.0078z" fill="currentColor"/>
</svg>
