<svg width="22" height="22" version="1.1" xmlns="http://www.w3.org/2000/svg">
  <defs>
    <style id="current-color-scheme" type="text/css">.ColorScheme-Text { color:#ebdbb2; } .ColorScheme-Highlight { color:#458588; }</style>
  </defs>
  <path class="ColorScheme-Text" d="m14 3v1.555c-0.363 0.021-0.723 0.0411-1.115 0.0781-1.279 0.1228-2.662 0.329-3.885 0.7305v-0.3633h-4v4h0.127c-0.5694 1.354-0.92 2.932-1.162 4.391-0.03542 0.213-0.05555 0.401-0.08589 0.609h-0.8789v4.012h4v-1.555c0.3633-0.021 0.7235-0.041 1.115-0.078 1.279-0.123 2.662-0.329 3.885-0.731v0.364h4v-4h-0.127c0.569-1.354 0.92-2.932 1.162-4.391 0.035-0.2136 0.056-0.4019 0.086-0.6094h0.879v-4.012h-4zm0 2.555v1.457h2.111c-0.023 0.1535-0.036 0.2905-0.062 0.4473-0.261 1.569-0.698 3.257-1.305 4.553h-2.744v2.55c-1.163 0.424-2.628 0.693-3.98 0.823-0.3579 0.034-0.6855 0.052-1.02 0.072v-1.457h-2.111c0.0231-0.154 0.0365-0.29 0.0625-0.447 0.2605-1.569 0.698-3.257 1.305-4.553h2.744v-2.551c1.163-0.4239 2.628-0.6925 3.98-0.8222 0.3575-0.034 0.6855-0.0523 1.02-0.0723z" fill="currentColor"/>
</svg>
