<svg width="22" height="22" version="1.1" viewBox="0 0 22 22" xmlns="http://www.w3.org/2000/svg">
  <defs>
    <style type="text/css">.ColorScheme-Text { color:#ebdbb2; } .ColorScheme-Highlight { color:#458588; }</style>
  </defs>
  <path class="ColorScheme-Text" d="m9.487 3.995c-3.029 0-5.5 2.475-5.5 5.5 0 3.025 2.471 5.5 5.5 5.5 1.152 0 2.238-0.3578 3.125-0.9688l3.688 3.688a1.006 1.006 0 1 0 1.406-1.438l-3.688-3.688c0.6108-0.886 1-1.944 1-3.094 0-3.025-2.502-5.5-5.531-5.5zm0 2c1.947 0 3.5 1.555 3.5 3.5 0 1.945-1.553 3.5-3.5 3.5s-3.5-1.555-3.5-3.5c0-1.945 1.553-3.5 3.5-3.5z" fill="currentColor"/>
</svg>
