<svg width="22" height="22" version="1.1" xmlns="http://www.w3.org/2000/svg">
  <defs>
    <style type="text/css">.ColorScheme-Text { color:#ebdbb2; } .ColorScheme-Highlight { color:#458588; }</style>
  </defs>
  <path class="ColorScheme-Text" d="m17.29 9.998-2.285 0.00195v4.285c0 0.7143-0.7148 0.7148-0.7148 0.7148h-6.285v2.285s5.59e-4 0.7148 0.7148 0.7148h8.57s0.7148-5.58e-4 0.7148-0.7148v-6.574c0-0.7143-0.7148-0.7129-0.7148-0.7129z" fill="currentColor" opacity=".3"/>
  <path class="ColorScheme-Text" d="m4.712 4.571s-0.7143 0-0.7143 0.7143v8s0 0.7143 0.7143 0.7143h8.571s0.7143 0 0.7143-0.7143v-6.574c0-0.7143-0.7143-0.7143-0.7143-0.7143l-3.571 0.00279-1.429-1.429z" fill="currentColor"/>
</svg>
