<svg width="22" height="22" version="1.1" xmlns="http://www.w3.org/2000/svg">
  <defs>
    <style type="text/css">.ColorScheme-Text { color:#ebdbb2; } .ColorScheme-Highlight { color:#458588; }</style>
  </defs>
  <path class="ColorScheme-Text" d="m6.953 3.997v2h6s1 1e-6 1 1v1h-5c-3 0-3 3-3 3s3e-6 3 3 3h7v-7c0-3-3-3-3-3zm2 6h5v2h-5c-1 0-1-1-1-1s1e-6 -1 1-1zm-2.328 5.004c-0.2872 0.01332-0.5737 0.06581-0.8516 0.1562-0.7408 0.2412-1.369 0.7391-1.771 1.406l1.613 0.9727c0.1618-0.2683 0.4423-0.4909 0.7402-0.5879 0.2979-0.09698 0.6566-0.08252 0.9453 0.03906 0.1943 0.08181 0.4488 0.2579 0.791 0.4707 0.3466 0.2155 0.7946 0.4704 1.387 0.5293 0.4231 0.0421 0.8083-0.03167 1.139-0.1406 0.3276-0.108 0.6006-0.2476 0.8359-0.3711 0.4658-0.2443 0.8103-0.4047 1.027-0.416 0.2154-0.01127 0.5563 0.1023 0.9805 0.3105 0.433 0.2125 0.9828 0.5311 1.723 0.6152 0.5524 0.06281 1.108-0.03146 1.607-0.2754 0.4996-0.2439 0.9169-0.6234 1.207-1.098l-1.605-0.9844c-0.09938 0.1624-0.2566 0.3051-0.4277 0.3887-0.1711 0.08356-0.3792 0.1192-0.5684 0.09766-0.265-0.03014-0.6306-0.2024-1.105-0.4355-0.4837-0.2375-1.114-0.5416-1.908-0.5-0.7961 0.04163-1.372 0.402-1.805 0.6289-0.2139 0.1122-0.3966 0.1991-0.5508 0.25-0.1514 0.04994-0.2797 0.06476-0.3613 0.05664-0.117-0.01164-0.3215-0.09508-0.5801-0.2559-0.2629-0.1635-0.5903-0.4107-1.053-0.6055-0.4488-0.189-0.9296-0.2741-1.408-0.252z" fill="currentColor"/>
</svg>
