<svg width="22" height="22" version="1.1" xmlns="http://www.w3.org/2000/svg">
  <defs>
    <style id="current-color-scheme" type="text/css">.ColorScheme-Text { color:#ebdbb2; } .ColorScheme-Highlight { color:#458588; }</style>
  </defs>
  <path class="ColorScheme-Text" d="m5 4c-0.831 0-1.5 0.669-1.5 1.5v11c0 0.831 0.669 1.5 1.5 1.5h7c0.0063 0 0.01059-0.0047 0.01562-0.0078l2.156 0.0078v-1.682c-0.398 0.316-0.9691 0.2828-1.328-0.07617l-0.707-0.707c-0.3903-0.391-0.3903-1.024 0-1.414l2.828-2.828c0.184-0.1842 0.4334-0.2894 0.6934-0.293 0.27-0.0036 0.5297 0.1021 0.7207 0.293l2.121 2.121v-5.914c0-0.831-0.669-1.5-1.5-1.5h-6l-2-2h-4zm10.67 8-2.828 2.828 0.707 0.707 1.621-1.621v4.086h1v-4.086l1.621 1.621 0.707-0.707z" fill="currentColor"/>
</svg>
