<svg width="22" height="22" version="1.1" viewBox="0 0 22 22" xmlns="http://www.w3.org/2000/svg">
  <defs>
    <style id="current-color-scheme" type="text/css">.ColorScheme-Text { color:#ebdbb2; } .ColorScheme-Highlight { color:#458588; }</style>
  </defs>
  <path class="ColorScheme-Text" d="m10 4c-2 0-3 1-3 3v2.49h-1c-1 0-1 1-1 1s1e-6 1 1 1h1v5.51c0 1 1 1 1 1s1-1e-6 1-1v-5.51h1c1 0 1-1 1-1s-1e-6 -1-1-1h-1v-2.49s1e-6 -1 1-1 1-1 1-1-1e-6 -1-1-1zm1 8v1.414l1.586 1.586-1.586 1.586v1.414h1.414l1.586-1.586 1.586 1.586h1.414v-1.414l-1.586-1.586 1.586-1.586v-1.414h-1.414l-1.586 1.586-1.586-1.586z" fill="currentColor"/>
</svg>
