<svg width="22" height="22" version="1.1" viewBox="0 0 22 22" xmlns="http://www.w3.org/2000/svg">
  <defs>
    <style id="current-color-scheme" type="text/css">.ColorScheme-Text { color:#ebdbb2; } .ColorScheme-Highlight { color:#458588; }</style>
  </defs>
  <path class="ColorScheme-Text" d="m7.094 7c-2.402 0-4.094 1.799-4.094 4.611 0 2.627 1.658 4.389 3.963 4.389 2.377 0 4.037-1.841 4.037-4.564 0-2.688-1.631-4.436-3.906-4.436zm10.91 0c-0.5523 0-1 0.4477-1 1s0.4477 1 1 1 1-0.4477 1-1-0.4477-1-1-1zm-10.96 1.687c1.291 0 2.021 1.109 2.021 2.857 0 1.768-0.8264 2.762-2.066 2.762-1.239 0-2.062-1.071-2.062-2.797 0-1.727 0.8356-2.822 2.107-2.822zm4.957 1.312v6h2v-2.826c0-0.8312 0.5588-1.619 1.146-1.619 0.2967 0 0.6377 0.09734 0.8535 0.2168v-1.66c-0.1118-0.04624-0.401-0.1113-0.5898-0.1113-0.8826 0-1.176 0.5834-1.41 1v-1zm5 0v6h2v-6z" fill="currentColor"/>
</svg>
