<svg width="22" height="22" version="1.1" viewBox="0 0 22 22" xmlns="http://www.w3.org/2000/svg">
  <defs>
    <style type="text/css">.ColorScheme-Text { color:#ebdbb2; } .ColorScheme-Highlight { color:#458588; }</style>
  </defs>
  <path class="ColorScheme-Text" d="m5 4c-1 0-1 1-1 1v12c0 1 1 1 1 1h7v-2h-6v-7h10v3h2v-7c0-1-1-1-1-1zm10 8-0.5742 1.613-1.547-0.7344 0.7344 1.547-1.609 0.5742 1.613 0.5742-0.7344 1.547 1.547-0.7344 0.5703 1.613 0.5684-1.613 1.551 0.7344-0.7305-1.547 1.611-0.5742-1.611-0.5742 0.7305-1.547-1.551 0.7344z" fill="currentColor"/>
</svg>
