<svg width="22" height="22" version="1.1" viewBox="0 0 22 22" xmlns="http://www.w3.org/2000/svg">
  <defs>
    <style id="current-color-scheme" type="text/css">.ColorScheme-Text { color:#ebdbb2; } .ColorScheme-Highlight { color:#458588; }</style>
  </defs>
  <path class="ColorScheme-Text" d="m5 4c-0.554 0-1 0.446-1 1s0.446 1 1 1h1v10h-1c-0.554 0-1 0.446-1 1s0.446 1 1 1h4c0.554 0 1-0.446 1-1s-0.446-1-1-1h-1v-10h1c0.554 0 1-0.446 1-1s-0.446-1-1-1zm6 8c-0.554 0-1 0.446-1 1v2c0 0.554 0.446 1 1 1h6c0.554 0 1-0.446 1-1v-2c0-0.554-0.446-1-1-1s-1 0.446-1 1v1h-4v-1c0-0.554-0.446-1-1-1z" fill="currentColor"/>
</svg>
