<svg width="22" height="22" version="1.1" xmlns="http://www.w3.org/2000/svg">
  <defs>
    <style id="current-color-scheme" type="text/css">.ColorScheme-Text { color:#ebdbb2; } .ColorScheme-Highlight { color:#458588; }</style>
  </defs>
  <path class="ColorScheme-Text" d="m12.54 4c-4.09 1.75-6.543 5.851-6.543 8.75 0 2.865 2.147 5.19 4.814 5.244-1.333-0.028-2.408-1.187-2.408-2.619 0-1.45 1.228-3.5 3.273-4.375 0 3.062 2.197 3.505 1.637 5.25-0.3174 0.9893-1.092 1.74-2.434 1.748 8e-3 4e-5 0.01679 2e-3 0.02539 2e-3 2.711 0 4.27-1.511 4.908-3.5 1.12-3.49-3.273-4.375-3.273-10.5z" fill="currentColor"/>
</svg>
