<svg width="22" height="22" version="1.1" xmlns="http://www.w3.org/2000/svg">
  <defs>
    <style id="current-color-scheme" type="text/css">.ColorScheme-Text { color:#ebdbb2; } .ColorScheme-Highlight { color:#458588; }</style>
  </defs>
  <path class="ColorScheme-Text" d="m8.996 6.221c0 2.249 1.432 3.779 3.58 3.779h1.42v2l4-3.508-4-3.492v2h-1.063c-0.9771 0-1.842-0.6087-2.104-1.42-0.3133-0.9702 1.03-2.58 1.03-2.58s-2.862 0.8807-2.862 3.221zm-1.996 2.779-4 3.508 4 3.492v-2h1.062c0.9771 0 1.842 0.6087 2.104 1.42 0.3133 0.9702-1.029 2.58-1.029 2.58s2.863-0.8804 2.863-3.22c0-2.249-1.432-3.779-3.58-3.779h-1.42zm8.496 3c-1.381 0-2.5 1.119-2.5 2.5s1.119 2.5 2.5 2.5c0.4892-0.0012 0.9672-0.1458 1.375-0.416l1.275 1.273c0.1959 0.1959 0.5112 0.1959 0.707 0 0.1959-0.1959 0.1959-0.5112 0-0.707l-1.273-1.275c0.2702-0.4078 0.4148-0.8858 0.416-1.375 0-1.381-1.119-2.5-2.5-2.5zm0 1c0.8284 0 1.5 0.6716 1.5 1.5s-0.6716 1.5-1.5 1.5-1.5-0.6716-1.5-1.5 0.6716-1.5 1.5-1.5z" fill="currentColor"/>
</svg>
