<svg width="22" height="22" version="1.1" viewBox="0 0 22 22" xmlns="http://www.w3.org/2000/svg">
  <defs>
    <style id="current-color-scheme" type="text/css">.ColorScheme-Text { color:#ebdbb2; } .ColorScheme-Highlight { color:#458588; } .ColorScheme-NegativeText { color:#fb4934; }</style>
  </defs>
  <path class="ColorScheme-Text" d="m3 3.999v14c3-1e-3 6-4.7e-5 9 2e-3v-6h6v2e-3h1v-7.996c-5.333 0.00195-10.67-0.00595-16-0.00395zm9 2h6v1h-6zm-4.5 1.003c0.831 0 1.5 0.6673 1.5 1.498v1.5h1v3h-5v-3h1v-1.5c0-0.8307 0.669-1.498 1.5-1.498zm0 0.998c-0.277 0-0.5 0.2231-0.5 0.5v1.5h1v-1.5c0-0.2769-0.223-0.5-0.5-0.5zm4.5 0.997h6v1h-6z" fill="currentColor"/>
  <path class="ColorScheme-NegativeText" d="m16 13v1h-3v3h3v1l3-2.5z" fill="currentColor"/>
</svg>
