<svg width="22" height="22" version="1.1" xmlns="http://www.w3.org/2000/svg">
  <defs>
    <style id="current-color-scheme" type="text/css">.ColorScheme-Text { color:#ebdbb2; } .ColorScheme-Highlight { color:#458588; }</style>
  </defs>
  <path class="ColorScheme-Text" d="m7.5 3c-1.368 0-2.5 1.132-2.5 2.5v2.551c-1.133 0.2354-2 1.252-2 2.449v6c0 1.368 1.132 2.5 2.5 2.5h6c0.338 0 0.6613-0.07055 0.957-0.1953a4.5 4.5 0 0 1-1.189-1.805h-5.768c-0.2945 0-0.5-0.2055-0.5-0.5v-6c0-0.2945 0.2055-0.5 0.5-0.5h6c0.2945 0 0.5 0.2055 0.5 0.5v2.186a4.5 4.5 0 0 1 2-1.418v-0.7676c0-1.368-1.132-2.5-2.5-2.5h5c0.2945 0 0.5 0.2055 0.5 0.5v2.758a4.5 4.5 0 0 1 2 1.414v-4.172c0-1.368-1.132-2.5-2.5-2.5h-0.5v-0.5c0-1.368-1.132-2.5-2.5-2.5h-6zm0 2h6c0.2945 0 0.5 0.2055 0.5 0.5v0.5h-3.5c-1.197 0-2.214 0.8669-2.449 2h-1.051v-2.5c0-0.2945 0.2055-0.5 0.5-0.5zm8 7a3.5 3.5 0 0 0-3.5 3.5 3.5 3.5 0 0 0 3.5 3.5 3.5 3.5 0 0 0 3.5-3.5 3.5 3.5 0 0 0-3.5-3.5zm-0.5 1h1v2h2v1h-3v-1z" fill="currentColor"/>
</svg>
