<svg width="256" height="256" version="1.1" xmlns="http://www.w3.org/2000/svg">
  <path d="m53.047 21c-36.322 0-40.047 2.4809-40.047 37.772v96.653h230v-77.055c0-35.291-3.6782-41.37-40-41.37h-90l-16-16z" fill="#98971a"/>
  <path d="m53 71c-36.338 0-39.996 6.1437-39.996 41.397v83.653c0 35.313 3.6859 38.951 40.002 38.951h149.99c36.316 0 40-3.639 40-38.951v-99.621c0-33.574-2.6872-40.428-36-40.428h-87l-17 15z" fill="#79740e"/>
  <path d="m243 193.99c0 35.291-3.6527 37.006-39.974 37.006h-150.02c-36.319 0-40.005-1.7148-40.005-37v2c0 35.641 4.0005 39 40.005 39h150.02c36.399 0 39.974-3.7272 39.974-38.998z" fill="#282828" opacity=".3"/>
  <path d="m120 56-17 15h-50c-36.156 0-39.996 5.9171-39.996 41.433v4.1406c0-35.295 3.6836-41.574 39.996-41.574h51l17-15 86.001-0.01105c33.136-0.0043 35.999 7.0504 35.999 40.591v-4.1407c0-33.541-2.6494-40.44-36-40.44z" fill="#b8bb26" opacity=".3"/>
  <path d="m97 21-43.953 1e-6c-36.322 0-40.052 2.4512-40.052 37.744v3.9101c0-35.291 3.6815-37.655 40.005-37.655h43l16 16h91c36.322 0 40 5.9893 40 41.281v-3.9072c0-35.291-3.6777-41.373-40-41.373h-90z" fill="#ebdbb2" opacity=".3"/>
  <path d="m128.71 98c-6.5214 0-11.786 5.2643-11.786 11.786v11.786h-23.571c-4.3214 0-7.8571 3.5357-7.8571 7.8572v23.571h11.786c6.5214 0 11.786 5.2643 11.786 11.786s-5.2643 11.786-11.786 11.786h-11.786v23.571c0 4.3214 3.5357 7.8571 7.8571 7.8571h23.571v-11.786c0-6.5214 5.2643-11.786 11.786-11.786s11.786 5.2643 11.786 11.786v11.786h23.571c4.3214 0 7.8572-3.5357 7.8572-7.8571v-23.571h11.786c6.5214 0 11.786-5.2643 11.786-11.786s-5.2643-11.786-11.786-11.786h-11.786v-23.571c0-4.3214-3.5357-7.8572-7.8572-7.8572h-23.571v-11.786c0-6.5214-5.2643-11.786-11.786-11.786z" fill="#282828" opacity=".1"/>
  <path d="m128.71 95c-6.5214 0-11.786 5.2643-11.786 11.786v11.786h-23.571c-4.3214 0-7.8571 3.5357-7.8571 7.8572v23.571h11.786c6.5214 0 11.786 5.2643 11.786 11.786s-5.2643 11.786-11.786 11.786h-11.786v23.571c0 4.3214 3.5357 7.8571 7.8571 7.8571h23.571v-11.786c0-6.5214 5.2643-11.786 11.786-11.786s11.786 5.2643 11.786 11.786v11.786h23.571c4.3214 0 7.8572-3.5357 7.8572-7.8571v-23.571h11.786c6.5214 0 11.786-5.2643 11.786-11.786s-5.2643-11.786-11.786-11.786h-11.786v-23.571c0-4.3214-3.5357-7.8572-7.8572-7.8572h-23.571v-11.786c0-6.5214-5.2643-11.786-11.786-11.786z" fill="#98971a"/>
  <path d="m128.71 95c-6.5214 0-11.787 5.2635-11.787 11.785v3c0-6.5217 5.2657-11.785 11.787-11.785 6.5217 0 11.785 5.2638 11.785 11.785v-3c0-6.5214-5.2635-11.785-11.785-11.785zm-35.357 23.572c-4.3214 0-7.8574 3.5359-7.8574 7.8574v3c0-4.3215 3.536-7.8574 7.8574-7.8574h23.57v-3zm47.143 0v3h23.57c4.3215 0 7.8574 3.536 7.8574 7.8574v-3c0-4.3214-3.5359-7.8574-7.8574-7.8574zm31.428 31.428v3h11.787c6.0122 0 10.944 4.4767 11.68 10.285 0.0622-0.49166 0.10547-0.98918 0.10547-1.498 0-6.5217-5.2635-11.787-11.785-11.787zm-62.961 13.285c-0.73489 5.8094-5.6688 10.287-11.682 10.287h-11.785v3h11.785c6.5217 0 11.787-5.2654 11.787-11.787 0-0.50951-0.0431-1.0078-0.10547-1.5z" fill="#ebdbb2" opacity=".1"/>
</svg>
