<svg width="16" height="16" version="1.1" xmlns="http://www.w3.org/2000/svg">
  <defs>
    <style id="current-color-scheme" type="text/css">.ColorScheme-Text { color:#282828; } .ColorScheme-Highlight { color:#458588; } .ColorScheme-NeutralText { color:#fe8019; } .ColorScheme-PositiveText { color:#689d6a; } .ColorScheme-NegativeText { color:#fb4934; }</style>
  </defs>
  <path class="ColorScheme-Text" d="m8 1a7 7 0 0 0-6.213 3.787 7 7 0 0 1 3.213-0.7871 7 7 0 0 1 1.26 0.1172 7 7 0 0 1 1.848-3.111 7 7 0 0 0-0.1074-0.005859zm1.473 0.1602a6 6 0 0 0-2.242 3.215 7 7 0 0 1 3.832 3.148c0.3715-0.2933 0.8157-0.4911 1.305-0.5195h0.001953 0.001953c0.08299-0.00451 0.1651-0.00451 0.248 0 0.8458 0.04454 1.591 0.5558 1.982 1.293l0.3301 0.623a7 7 0 0 0 0.06836-0.9199 7 7 0 0 0-5.527-6.84zm-4.473 3.84a6 6 0 0 0-3.797 1.359 7 7 0 0 0-0.2031 1.641 7 7 0 0 0 7 7 7 7 0 0 0 0.5039-0.02734c-0.5377-0.7655-0.6836-1.824-0.1992-2.736l0.3906-0.7363a7 7 0 0 1-2.695-5.5 7 7 0 0 1 0.06641-0.9004 6 6 0 0 0-1.066-0.09961zm2.035 0.3633a6 6 0 0 0-0.03516 0.6367 6 6 0 0 0 2.17 4.605l0.1797-0.3398 1.02-1.918a6 6 0 0 0-3.334-2.984zm5.391 2.639a1.408 1.53 0 0 0-1.145 0.7637l-1.047 1.969-1.045 1.971a1.408 1.53 0 0 0 1.217 2.295h2.094 2.092a1.408 1.53 0 0 0 1.219-2.295l-1.047-1.971-1.045-1.969a1.408 1.53 0 0 0-1.152-0.7637 1.408 1.53 0 0 0-0.1406 0zm-0.4258 0.998h1v3h-1v-3zm0 4h1v1h-1v-1z" fill="currentColor"/>
</svg>
