<svg width="16" height="16" version="1.1" xmlns="http://www.w3.org/2000/svg">
  <defs>
    <style id="current-color-scheme" type="text/css">.ColorScheme-Text { color:#282828; } .ColorScheme-Highlight { color:#458588; } .ColorScheme-NeutralText { color:#fe8019; } .ColorScheme-PositiveText { color:#689d6a; } .ColorScheme-NegativeText { color:#fb4934; }</style>
  </defs>
  <path class="ColorScheme-Text" d="m4.447 1 0.0019 0.0039-4.441 2.504 3.992 2.478-4 3.018 4.449 2.496 3.551-2.49-4-3.01 4-2.492 4 2.506-1.736 1.301c0.555-0.207 1.143-0.3134 1.736-0.3145 0.613 0.0017 1.221 0.1162 1.793 0.3379l-1.793-1.342 3.99-2.49-4.439-2.506-3.551 2.492zm2.766 9.564-2.764 1.939-0.8887-0.498v0.371l4.44 2.625 0.0059-2e-3c-0.6508-0.864-1.004-1.916-1.006-2.998 6e-4 -0.487 0.0723-0.971 0.2129-1.437zm4.787-2.564c-2.209 0-4 1.791-4 4s1.791 4 4 4 4-1.791 4-4-1.791-4-4-4zm2.306 1.801c0.2269 0.1736 0.2691 0.4957 0.0957 0.7227l-2.889 3.781-1.664-1.666c-0.202-0.2021-0.202-0.5266 0-0.7285 0.2021-0.202 0.5266-0.202 0.7285 0l0.834 0.834 2.172-2.846c0.1686-0.2204 0.4928-0.2732 0.7227-0.09766z" fill="currentColor"/>
</svg>
