<svg width="16" height="16" version="1.1" xmlns="http://www.w3.org/2000/svg">
  <defs>
    <style id="current-color-scheme" type="text/css">.ColorScheme-Text { color:#282828; } .ColorScheme-Highlight { color:#458588; } .ColorScheme-NeutralText { color:#fe8019; } .ColorScheme-PositiveText { color:#689d6a; } .ColorScheme-NegativeText { color:#fb4934; }</style>
  </defs>
  <path class="ColorScheme-Text" d="m7.9994 1c-3.8652 0-6.9994 3.2135-6.9994 7.1776 0 3.1705 2.0055 5.8607 4.7874 6.8098 0.35 0.06579 0.47775-0.1555 0.47775-0.34569 0-0.17046-0.00583-0.62201-0.00933-1.2207-1.9472 0.43361-2.3578-0.96232-2.3578-0.96232-0.3185-0.82895-0.777-1.0496-0.777-1.0496-0.63583-0.44557 0.047833-0.436 0.047833-0.436 0.70233 0.05084 1.0722 0.73983 1.0722 0.73983 0.62417 1.0969 1.6386 0.7799 2.037 0.59629 0.063582-0.46352 0.24442-0.77991 0.4445-0.95933-1.5546-0.18122-3.1885-0.79665-3.1885-3.5473 0-0.78349 0.273-1.424 0.72042-1.9258-0.07175-0.18182-0.31208-0.91148 0.068832-1.8995 0 0 0.588-0.19318 1.925 0.73565 0.57118-0.15935 1.1604-0.24059 1.7523-0.24163 0.59442 0.0029907 1.1935 0.082536 1.7523 0.24163 1.3364-0.92883 1.9233-0.73565 1.9233-0.73565 0.38208 0.98804 0.14175 1.7177 0.06941 1.8995 0.44858 0.50179 0.71925 1.1423 0.71925 1.9258 0 2.7572-1.6368 3.3636-3.1961 3.5413 0.25142 0.22129 0.47542 0.65969 0.47542 1.329 0 0.95933-0.00875 1.7333-0.00875 1.9689 0 0.19198 0.126 0.41507 0.48125 0.3451 2.7796-0.95156 4.7833-3.6394 4.7833-6.8092 0-3.9641-3.1342-7.1776-7.0006-7.1776z" fill="currentColor"/>
</svg>
