<svg width="16" height="16" version="1.1" xmlns="http://www.w3.org/2000/svg">
  <defs>
    <style id="current-color-scheme" type="text/css">.ColorScheme-Text { color:#282828; } .ColorScheme-Highlight { color:#458588; } .ColorScheme-NeutralText { color:#fe8019; } .ColorScheme-PositiveText { color:#689d6a; } .ColorScheme-NegativeText { color:#fb4934; }</style>
  </defs>
  <path class="ColorScheme-Text" d="m2.713 1c-0.1805 0.0039-0.3373 0.07-0.4551 0.1895-0.1673 0.1671-0.2578 0.4389-0.2578 0.789v12.04c0 0.35 0.0982 0.62 0.2578 0.787 0.2432 0.246 0.6234 0.271 1.057 8e-3l10.14-6.032c0.73-0.4296 0.73-1.129 0-1.566l-0.596-0.3554c-0.517-2.21-2.49-3.859-4.857-3.859-0.4603 0-0.897 0.0828-1.32 0.1992-1.546-0.9266-3.365-2.018-3.365-2.018-0.2166-0.1273-0.4211-0.1856-0.6016-0.1816zm5.287 3c1.596 0 2.956 0.943 3.598 2.283 0.035 0.0737 0.402 0.8257 0.402 1.717 0 0.1691-0.027 0.3306-0.047 0.4941l-5.406 3.223c-0.6463-0.173-2.547-1.42-2.547-3.717 0-0.2761 0.0287-0.5463 0.082-0.8066 0.373-1.823 1.995-3.193 3.918-3.193zm0 2c-1.105 0-2 0.8954-2 2s0.8954 2 2 2 2-0.8952 2-2-0.8954-2-2-2z" fill="currentColor"/>
</svg>
