<svg width="16" height="16" version="1.1" xmlns="http://www.w3.org/2000/svg">
  <defs>
    <style id="current-color-scheme" type="text/css">.ColorScheme-Text { color:#282828; } .ColorScheme-Highlight { color:#458588; } .ColorScheme-NeutralText { color:#fe8019; } .ColorScheme-PositiveText { color:#689d6a; } .ColorScheme-NegativeText { color:#fb4934; }</style>
  </defs>
  <path class="ColorScheme-Text" d="m3.497 0.2527a0.2499 0.2499 0 0 0-0.2461 0.2539v1.517c-0.6285 0.1052-1.119 0.5957-1.225 1.225h-1.517a0.2499 0.2499 0 1 0 0 0.4999h1.492v2.499h-1.492a0.2499 0.2499 0 1 0 0 0.4999h1.492v2.499h-1.492a0.2502 0.2502 0 1 0 0 0.5005h1.492v2.499h-1.492a0.2499 0.2499 0 1 0 0 0.4995h1.517c0.1053 0.6282 0.5958 1.119 1.225 1.225v1.517a0.2499 0.2499 0 1 0 0.4999 0v-1.492h2.499v1.492a0.2499 0.2499 0 1 0 0.4999 0v-1.492h2.499v1.492a0.2499 0.2499 0 1 0 0.4995 0v-1.492h2.499v1.492a0.2502 0.2502 0 1 0 0.5005 0v-1.517c0.6282-0.1055 1.119-0.5963 1.224-1.225h1.518a0.2499 0.2499 0 0 0 0.2536-0.2536 0.2499 0.2499 0 0 0-0.2536-0.2459h-1.492v-2.499h1.492a0.2499 0.2499 0 0 0 0.2536-0.2546 0.2499 0.2499 0 0 0-0.2536-0.2459h-1.492v-2.499h1.492a0.2499 0.2499 0 0 0 0.2546-0.2536 0.2499 0.2499 0 0 0-0.2536-0.2461h-1.492v-2.499h1.492a0.2499 0.2499 0 0 0 0.2536-0.2538 0.2499 0.2499 0 0 0-0.2536-0.2461h-1.518c-0.1055-0.6285-0.5963-1.119-1.225-1.225v-1.517a0.2499 0.2499 0 0 0-0.2546-0.2538 0.2499 0.2499 0 0 0-0.2459 0.2539v1.492h-2.499v-1.492a0.2499 0.2499 0 0 0-0.2536-0.2539 0.2499 0.2499 0 0 0-0.2459 0.2539v1.492h-2.499v-1.492a0.2499 0.2499 0 0 0-0.254-0.2539 0.2499 0.2499 0 0 0-0.2461 0.2539v1.492h-2.499v-1.492a0.2499 0.2499 0 0 0-0.2538-0.2539z" fill="currentColor"/>
</svg>
