<svg width="16" height="16" version="1.1" xmlns="http://www.w3.org/2000/svg">
  <defs>
    <style id="current-color-scheme" type="text/css">.ColorScheme-Text { color:#282828; } .ColorScheme-Highlight { color:#458588; } .ColorScheme-NeutralText { color:#fe8019; } .ColorScheme-PositiveText { color:#689d6a; } .ColorScheme-NegativeText { color:#fb4934; }</style>
  </defs>
  <path class="ColorScheme-Text" d="m7.5 1c-0.831 0-1.5 0.6897-1.5 1.546v5.908c0 0.8562 0.669 1.546 1.5 1.546h5c0.831 0 1.5-0.6897 1.5-1.546v-5.908c0-0.8562-0.669-1.546-1.5-1.546zm-0.5 2h6v1h-6zm0 2h6v1h-6zm0 2h4v1h-4z" fill="currentColor" opacity=".3"/>
  <path class="ColorScheme-Text" d="m3.5 6c-0.831 0-1.5 0.6897-1.5 1.546v5.908c0 0.8562 0.669 1.546 1.5 1.546h5c0.831 0 1.5-0.6897 1.5-1.546v-5.908c0-0.8562-0.669-1.546-1.5-1.546zm-0.5 2h6v1h-6zm0 2h6v1h-6zm0 2h4v1h-4z" fill="currentColor"/>
</svg>
