<svg width="16" height="16" version="1.1" xmlns="http://www.w3.org/2000/svg">
  <defs>
    <style id="current-color-scheme" type="text/css">.ColorScheme-Text { color:#282828; } .ColorScheme-Highlight { color:#458588; } .ColorScheme-NeutralText { color:#fe8019; } .ColorScheme-PositiveText { color:#689d6a; } .ColorScheme-NegativeText { color:#fb4934; }</style>
  </defs>
  <path class="ColorScheme-Text" d="m6 5c-0.5523 0-1 0.4477-1 1s0.4477 1 1 1 1-0.4477 1-1-0.4477-1-1-1zm-1.5 3c-0.8284 0-1.5 0.6716-1.5 1.5s0.6716 1.5 1.5 1.5 1.5-0.6716 1.5-1.5-0.6716-1.5-1.5-1.5zm3.5 2c-0.5523 0-1 0.4477-1 1s0.4477 1 1 1 1-0.4477 1-1-0.4477-1-1-1zm3.5 0c-0.2761 0-0.5 0.2239-0.5 0.5s0.2239 0.5 0.5 0.5 0.5-0.2239 0.5-0.5-0.2239-0.5-0.5-0.5zm1.5-3c0 1.105-0.8954 2-2 2-1.105 0-2-0.8954-2-2 0-1.105 0.8954-2 2-2 1.105 0 2 0.8954 2 2zm-12-5c-0.554 0-1 0.446-1 1v11c0 0.554 0.446 1 1 1h14c0.554 0 1-0.446 1-1v-11c0-0.554-0.446-1-1-1zm1 2h12v9h-12z" fill="currentColor"/>
</svg>
