<svg width="16" height="16" version="1.1" xmlns="http://www.w3.org/2000/svg">
  <defs>
    <style id="current-color-scheme" type="text/css">.ColorScheme-Text { color:#282828; } .ColorScheme-Highlight { color:#458588; } .ColorScheme-NeutralText { color:#fe8019; } .ColorScheme-PositiveText { color:#689d6a; } .ColorScheme-NegativeText { color:#fb4934; }</style>
  </defs>
  <path class="ColorScheme-Text" d="m8 1c-1.657 0-3 1.343-3 3v1c-0.554 0-1 0.446-1 1v4c0 0.554 0.446 1 1 1h6c0.554 0 1-0.446 1-1v-4c0-0.554-0.446-1-1-1v-1c0-1.657-1.343-3-3-3zm0 1c1.1 0 2 0.895 2 2s-0.9 2-2 2v1h-1v-2h1c0.55 0 1-0.448 1-1s-0.45-1-1-1c-0.55 0-1 0.448-1 1h-1c0-1.105 0.9-2 2-2zm-1 6h1v1h-1zm0 4v1h-2v2h6v-2h-2v-1zm-6 1c-0.554 0-1 0.446-1 1s0.446 1 1 1h3v-2zm11 0v2h3c0.554 0 1-0.446 1-1s-0.446-1-1-1z" fill="currentColor"/>
</svg>
