<svg width="16" height="16" version="1.1" xmlns="http://www.w3.org/2000/svg">
  <defs>
    <style id="current-color-scheme" type="text/css">.ColorScheme-Text { color:#282828; } .ColorScheme-Highlight { color:#458588; } .ColorScheme-NeutralText { color:#fe8019; } .ColorScheme-PositiveText { color:#689d6a; } .ColorScheme-NegativeText { color:#fb4934; }</style>
  </defs>
  <path class="ColorScheme-Text" d="m6.868 3.842c-0.09125 0.1158-0.09022 0.1158-0.2305 0.08008-0.9185-0.2302-4.003 0.2319-4.153 2.965l-0.01758 0.3477c-0.8951 0.2559-2.468 1.025-2.46 3.268 0 2.198 1.692 3.282 2.956 3.467 0.1018 0.01488 2.241 0.02673 4.754 0.0293 4.895 4e-3 4.823 6e-3 5.396-0.1523 1.17-0.3228 2.377-1.415 2.736-2.774 0.6768-2.553-1.086-4.03-1.883-4.551 0.1479-3.346-2.298-4.501-3.843-4.508s-2.412 0.7731-3.256 1.828zm3.164 0.159c1.94 0.02214 1.956 2.008 1.938 2.434-0.0308 0.7057 0.3129 1.375 0.9043 1.762 2.113 1.406 0.8159 3.741-0.8946 3.789-0.1681 0.0047-5.606 0.03456-8.556-0.0039-1.704-0.02154-1.98-2.377-0.4006-2.825 0.8163-0.2361 1.394-0.9621 1.441-1.811l0.01953-0.3496c0.05061-0.9292 0.8997-1.134 1.744-1.104 1.01 0.01087 1.669-0.2176 2.211-1.012 0.3746-0.5506 0.9783-0.8801 1.594-0.8801zm-1.039 2.199v0.8008h-3v1h3v0.8008l2-1.301zm-1 3-2 1.301 2 1.301v-0.8008h3v-1h-3z" fill="currentColor"/>
</svg>
