<svg width="16" height="16" version="1.1" xmlns="http://www.w3.org/2000/svg">
  <defs>
    <style id="current-color-scheme" type="text/css">.ColorScheme-Text { color:#282828; } .ColorScheme-Highlight { color:#458588; } .ColorScheme-NeutralText { color:#fe8019; } .ColorScheme-PositiveText { color:#689d6a; } .ColorScheme-NegativeText { color:#fb4934; }</style>
  </defs>
  <path class="ColorScheme-Text" d="m8 1a7 7 0 0 0-7 7 7 7 0 0 0 7 7 7 7 0 0 0 7-7 7 7 0 0 0-7-7zm-2.5 3h5c0.831 0 1.5 0.669 1.5 1.5v5c0 0.831-0.669 1.5-1.5 1.5h-5c-0.831 0-1.5-0.669-1.5-1.5v-5c0-0.831 0.669-1.5 1.5-1.5zm1.1 2c-0.3324 0-0.5996 0.2672-0.5996 0.5996v2.801c0 0.333 0.2672 0.5996 0.5996 0.5996h2.801c0.333 0 0.5996-0.2666 0.5996-0.5996v-2.801c0-0.3324-0.2666-0.5996-0.5996-0.5996z" fill="currentColor"/>
</svg>
