<svg width="16" height="16" version="1.1" xmlns="http://www.w3.org/2000/svg">
  <defs>
    <style id="current-color-scheme" type="text/css">.ColorScheme-Text { color:#282828; } .ColorScheme-Highlight { color:#458588; } .ColorScheme-NeutralText { color:#fe8019; } .ColorScheme-PositiveText { color:#689d6a; } .ColorScheme-NegativeText { color:#fb4934; }</style>
  </defs>
  <path class="ColorScheme-Text" d="m8 1a7 7 0 0 0-7 7 7 7 0 0 0 7 7 7 7 0 0 0 3-0.6855v-2.793c-0.0121-0.8169 0.6621-1.509 1.477-1.521 0.3977-0.006198 0.7563 0.1674 1.031 0.4238 0.2625-0.2408 0.5926-0.4179 0.9688-0.4238 0.07463-0.001163 0.1466 0.009623 0.2188 0.01953a7 7 0 0 0 0.3047-2.02 7 7 0 0 0-7-7zm2.5 2.998h0.5v5.5c0 0.8284-0.6716 1.5-1.5 1.5s-1.5-0.6716-1.5-1.5c0-0.8284 0.6716-1.5 1.5-1.5 0.18 0 0.34 0.0357 0.5 0.0957v-2.094h-3v3.5c0 0.8284-0.6716 1.5-1.5 1.5s-1.5-0.6716-1.5-1.5 0.6716-1.5 1.5-1.5c0.18 0 0.34 0.0357 0.5 0.0957v-4.094l4.5-0.003906zm1.992 7.002a0.5 0.4986 0 0 0-0.4922 0.5059v3.988a0.5 0.4986 0 1 0 1 0v-3.988a0.5 0.4986 0 0 0-0.5078-0.5059zm2 0a0.5 0.4986 0 0 0-0.4922 0.5059v3.988a0.5 0.4986 0 1 0 1 0v-3.988a0.5 0.4986 0 0 0-0.5078-0.5059z" fill="currentColor"/>
</svg>
