<svg width="16" height="16" version="1.1" xmlns="http://www.w3.org/2000/svg">
  <defs>
    <style id="current-color-scheme" type="text/css">.ColorScheme-Text { color:#282828; } .ColorScheme-Highlight { color:#458588; } .ColorScheme-NeutralText { color:#fe8019; } .ColorScheme-PositiveText { color:#689d6a; } .ColorScheme-NegativeText { color:#fb4934; }</style>
  </defs>
  <path class="ColorScheme-Text" d="m6.748 5a0.7309 0.7903 0 0 0-0.748 0.793v4.416a0.7309 0.7903 0 0 0 1.096 0.6855l3.539-2.209a0.7309 0.7903 0 0 0 0-1.369l-3.539-2.211a0.7309 0.7903 0 0 0-0.3477-0.1055z" fill="currentColor"/>
  <path class="ColorScheme-Text" d="m8 1c-3.866 0-7 3.134-7 7s3.134 7 7 7 7-3.134 7-7-3.134-7-7-7zm0 2c2.761 0 5 2.239 5 5s-2.239 5-5 5-5-2.239-5-5 2.239-5 5-5z" fill="currentColor" opacity=".3"/>
  <path class="ColorScheme-Text" d="m8 3c2.367-8.97e-5 4.398 1.646 4.891 3.961 0.4922 2.315-0.6935 4.645-2.855 5.607-2.162 0.9629-4.689 0.2858-6.08-1.629-1.391-1.915-1.253-4.524 0.3301-6.283l-1.486-1.338c-2.207 2.452-2.4 6.128-0.4609 8.797 1.939 2.669 5.496 3.622 8.51 2.279 3.014-1.342 4.686-4.623 4-7.85-0.6862-3.227-3.549-5.545-6.848-5.545z" fill="currentColor"/>
</svg>
