<svg width="16" height="16" version="1.1" xmlns="http://www.w3.org/2000/svg">
  <defs>
    <style id="current-color-scheme" type="text/css">.ColorScheme-Text { color:#282828; } .ColorScheme-Highlight { color:#458588; } .ColorScheme-NeutralText { color:#fe8019; } .ColorScheme-PositiveText { color:#689d6a; } .ColorScheme-NegativeText { color:#fb4934; }</style>
  </defs>
  <path class="ColorScheme-Text" d="m7.96 1h-0.02c-0.68 0-1.15 0.19-1.22 0.46-0.03 0.05-0.08 0.1-0.09 0.17l-0.65 1.87c0.97 0.7 3.07 0.7 4.03 0l-0.64-1.87c-0.01-0.02-0.02-0.03-0.02-0.04 0-0.09-0.06-0.17-0.14-0.24-0.08-0.08-0.18-0.15-0.29-0.19-0.29-0.1-0.6-0.16-0.92-0.16zm-2.81 5.4-0.65 2.6h-1.05c-0.29 0-0.54 0.17-0.65 0.43l-1.75 4.6c-0.19 0.46 0.15 0.97 0.65 0.97h12.6c0.5 0 0.83-0.51 0.64-0.97l-1.75-4.6c-0.11-0.26-0.36-0.43-0.64-0.43h-1.06l-0.65-2.6c-1.93 0.77-3.54 0.96-5.69 0zm6.44 2.74 0.58 1.94c0.09 0.31-0.04 0.63-0.31 0.8-1.1 0.67-2.5 1.1-3.89 1.12-1.39 0.01-2.79-0.39-3.87-1.14-0.25-0.18-0.36-0.49-0.27-0.78l0.55-1.86c0.4534 0.272 1.879 0.7652 3.609 0.78 1.132 0.01 2.395-0.1322 3.601-0.86z" fill="currentColor"/>
</svg>
