<svg width="16" height="16" version="1.1" xmlns="http://www.w3.org/2000/svg">
  <defs>
    <style id="current-color-scheme" type="text/css">.ColorScheme-Text { color:#282828; } .ColorScheme-Highlight { color:#458588; } .ColorScheme-NeutralText { color:#fe8019; } .ColorScheme-PositiveText { color:#689d6a; } .ColorScheme-NegativeText { color:#fb4934; }</style>
  </defs>
  <path class="ColorScheme-Text" d="m7.991 2c-2.715-8.6e-4 -5.429 0.1098-6.254 0.3242 0-0.0033-1.097 0.2792-1.412 1.424-0.4302 1.656-0.4278 6.884 0 8.504 0.1878 0.6819 0.7304 1.226 1.412 1.414 1.004 0.2666 4.655 0.3714 7.801 0.3223-0.3502-0.6043-0.536-1.29-0.5391-1.988 0-2.209 1.791-4 4-4 1.134 6.66e-4 2.215 0.4829 2.973 1.326 0.07397-2.085-0.02351-4.544-0.3086-5.578-0.1779-0.6819-0.721-1.226-1.402-1.404-0.8364-0.2305-3.554-0.3428-6.27-0.3438zm-1.992 2.998 5.197 3-5.197 3zm6.998 4.002c-1.65 0-3 1.343-3 3-1e-6 1.656 1.35 3 3 3 1.65-1e-6 3-1.343 3-3 1e-6 -0.828-0.3394-1.578-0.8828-2.121-0.5438-0.5431-1.292-0.8793-2.117-0.8789zm0 1 2e-3 1.002c-0.5522 7.1e-5 -1 0.4482-1 1l-1.002-2e-3c1.41e-4 -1.104 0.8956-2 2-2zm1 2h1c-1.41e-4 1.104-0.8956 2-2 2v-1c0.5522-7.2e-5 1-0.4482 1-1z" fill="currentColor"/>
</svg>
