<svg width="256" height="256" version="1.1" xmlns="http://www.w3.org/2000/svg">
  <path d="m53.047 21c-36.322 0-40.047 2.4809-40.047 37.772v96.653h230v-77.055c0-35.291-3.6782-41.37-40-41.37h-90l-16-16z" fill="#076678"/>
  <path d="m53 71c-36.338 0-39.996 6.1437-39.996 41.397v83.653c0 35.313 3.6859 38.951 40.002 38.951h149.99c36.316 0 40-3.639 40-38.951v-99.621c0-33.574-2.6872-40.428-36-40.428h-87l-17 15z" fill="#458588"/>
  <path d="m243 193.99c0 35.291-3.6527 37.006-39.974 37.006h-150.02c-36.319 0-40.005-1.7148-40.005-37v2c0 35.641 4.0005 39 40.005 39h150.02c36.399 0 39.974-3.7272 39.974-38.998z" fill="#076678"/>
  <path d="m120 56-17 15h-50c-36.156 0-39.996 5.9171-39.996 41.433v4.1406c0-35.295 3.6836-41.574 39.996-41.574h51l17-15 86.001-0.01105c33.136-0.0043 35.999 7.0504 35.999 40.591v-4.1407c0-33.541-2.6494-40.44-36-40.44z" fill="#ebdbb2" opacity=".3"/>
  <path d="m97 21-43.953 1e-6c-36.322 0-40.052 2.4512-40.052 37.744v3.9101c0-35.291 3.6815-37.655 40.005-37.655h43l16 16h91c36.322 0 40 5.9893 40 41.281v-3.9072c0-35.291-3.6777-41.373-40-41.373h-90z" fill="#ebdbb2" opacity=".4"/>
  <path d="m91.034 156.02c19.836-8.5103 41.819 17.402 34.388 34.382-7.5294 17.195-37.106 21.293-59.929 22.596 7.8365-10.009 9.9702-22.06 10.871-34.631 0-9.4623 6.0293-18.653 14.669-22.347zm87.018-68.022c8.3031-0.16786 12.686 6.4294 12.445 12.68-0.71521 17.444-32.328 49.4-56.431 71.241-4.4816-12.261-13.856-22.187-25.82-25.653 19.447-22.575 52.354-57.543 69.806-58.269z" fill="#ebdbb2" opacity=".1"/>
  <path d="m91.034 153.02c19.836-8.5103 41.819 17.402 34.388 34.382-7.5294 17.195-37.106 21.293-59.929 22.596 7.8365-10.009 9.9702-22.06 10.871-34.631 0-9.4623 6.0293-18.653 14.669-22.347zm87.018-68.022c8.3031-0.16786 12.686 6.4294 12.445 12.68-0.71521 17.444-32.328 49.4-56.431 71.241-4.4816-12.261-13.856-22.187-25.82-25.653 19.447-22.575 52.354-57.543 69.806-58.269z" fill="#076678"/>
  <path d="m178.05 84.996c-17.452 0.726-50.36 35.695-69.807 58.27 0.69241 0.2006 1.3742 0.42881 2.0488 0.67188 19.632-22.573 50.874-55.235 67.758-55.938v2e-3c7.4114-0.14984 11.687 5.0896 12.352 10.662 0.0337-0.33012 0.0786-0.66586 0.0918-0.98633 0.241-6.2506-4.1403-12.848-12.443-12.68zm-79.541 66.361c-2.485 0.0728-4.999 0.59832-7.4785 1.6621-8.6397 3.694-14.67 12.885-14.67 22.348-0.9008 12.571-3.0346 24.622-10.871 34.631 0.72269-0.0413 1.4991-0.11492 2.2344-0.16211 6.0162-9.3401 7.8288-20.192 8.6367-31.467 0-9.4623 6.0302-18.652 14.67-22.346 16.58-7.1136 34.648 9.8224 35.797 25.49 1.0151-14.088-13.116-30.601-28.318-30.156z" fill="#282828" opacity=".1"/>
</svg>
