<svg width="48" height="48" version="1.1" xmlns="http://www.w3.org/2000/svg">
  <circle cx="24" cy="24" r="20" fill="#504945"/>
  <path d="m24 11.001c-7.1797 0-13 5.8202-13 13 0 7.1796 5.8202 13 13 13h8.125s1.5235 0 1.625-1.625c0-1.625-1.625-1.625-1.625-1.625h-8.125c-5.3847 0-9.75-4.3652-9.75-9.75s4.3652-9.75 9.75-9.75c5.3847 0 9.75 4.3652 9.75 9.75v1.625c0 0.89744-0.72754 1.625-1.625 1.625-0.89744 0-1.625-0.72754-1.625-1.625v-1.625c0-3.5897-2.9101-6.5-6.5-6.5-3.5897 0-6.5 2.9103-6.5 6.5s2.9103 6.5 6.5 6.5c1.7001 0 3.2342-0.66771 4.3925-1.7361 0.92625 1.1001 2.2929 1.7355 3.7326 1.7355 2.6923 0 4.875-2.1827 4.875-4.875v-1.625c0-7.1792-5.8207-13-13-13zm0 9.75c1.795 0 3.25 1.4551 3.25 3.25 0 1.7949-1.4551 3.25-3.25 3.25s-3.25-1.4551-3.25-3.25c0-1.7949 1.4551-3.25 3.25-3.25z" fill="#ebdbb2"/>
</svg>
