<svg xmlns="http://www.w3.org/2000/svg" width="22" height="22" version="1.1">
   <defs>
      <style id="current-color-scheme" type="text/css">
         .ColorScheme-Text {
            color: #ebdbb2;
         }

         .ColorScheme-Highlight {
            color: #458588;
         }
      </style>
   </defs>
   <path style="fill:currentColor;stroke-width:1.40787" class="ColorScheme-Text"
      d="m 8.9258093,1 c -1.38462,0 -1.38462,1.4315215 -1.38462,1.4315215 H 3.3873292 c 0,0 -1.3873892,0.00501 -1.3873892,1.4371043 v 0.00286 1.4315214 L 20,5.3001472 V 3.8686258 C 20,2.4371043 18.618149,2.4315215 18.618149,2.4315215 H 14.46429 c 0,0 0,-1.4315215 -1.38462,-1.4315215 z M 3.3845601,6.7345315 c 0,0 -1.4383433,4.7296025 -1.3818508,7.1631905 0.041538,1.975498 1.3846199,5.726085 1.3846199,5.726085 0,0.750118 0.659633,1.431521 1.38462,1.431521 H 15.84891 17.233529 c 0.725542,0 1.38462,-0.681403 1.38462,-1.431521 0,0 1.338928,-3.754881 1.384621,-5.720361 0.05539,-2.433586 -1.384621,-7.1577485 -1.384621,-7.1577485 z"
      id="path5" />
</svg>