<svg width="22" height="22" version="1.1" xmlns="http://www.w3.org/2000/svg">
  <defs>
    <style id="current-color-scheme" type="text/css">.ColorScheme-Text { color:#ebdbb2; } .ColorScheme-Highlight { color:#458588; } .ColorScheme-NeutralText { color:#fe8019; } .ColorScheme-PositiveText { color:#689d6a; } .ColorScheme-NegativeText { color:#fb4934; }</style>
  </defs>
  <path class="ColorScheme-Text" d="m16.66 5.343c-3.124-3.124-8.191-3.124-11.31 1e-7 -3.124 3.124-3.124 8.191-1e-7 11.31 3.124 3.124 8.191 3.124 11.31-1e-6 3.124-3.124 3.124-8.191-1e-6 -11.31zm-1.616 1.616c1.954 1.954 2.198 4.974 0.7277 7.194l0.8887 0.8887-4.042 0.8082 0.8082-4.042 0.6598 0.6598c0.6059-1.273 0.3944-2.838-0.6598-3.893-0.5777-0.5756-1.342-0.9266-2.155-0.9897l-0.6125-2.283c1.631-0.1 3.227 0.5027 4.383 1.656zm-5.658-0.8082-0.8082 4.042-0.6598-0.6598c-0.6059 1.273-0.3944 2.838 0.6598 3.893 0.5777 0.5756 1.342 0.9265 2.155 0.9897l0.6125 2.283c-1.631 0.1-3.227-0.5027-4.383-1.656-1.954-1.954-2.198-4.974-0.7277-7.194l-0.8887-0.8887 4.042-0.8082z" fill="currentColor"/>
</svg>
