<svg width="22" height="22" version="1.1" xmlns="http://www.w3.org/2000/svg">
  <defs>
    <style id="current-color-scheme" type="text/css">.ColorScheme-Text { color:#ebdbb2; } .ColorScheme-Highlight { color:#458588; } .ColorScheme-NeutralText { color:#fe8019; } .ColorScheme-PositiveText { color:#689d6a; } .ColorScheme-NegativeText { color:#fb4934; }</style>
  </defs>
  <path class="ColorScheme-Text" d="m8.93 3.274c-4.267 1.144-6.799 5.529-5.656 9.796 1.144 4.267 5.529 6.799 9.796 5.656 4.267-1.144 6.799-5.529 5.656-9.796s-5.529-6.799-9.796-5.656zm0.5914 2.208c2.67-0.7154 5.406 0.5835 6.592 2.965l1.213-0.3252-1.32 3.902-3.094-2.719 0.9011-0.2414c-0.7998-1.161-2.26-1.761-3.7-1.375-0.7871 0.2124-1.473 0.6984-1.933 1.371l-2.282-0.6106c0.7285-1.461 2.048-2.542 3.624-2.967zm-3.527 4.494 3.094 2.719-0.9011 0.2414c0.7998 1.161 2.26 1.761 3.7 1.375 0.7871-0.2124 1.473-0.6984 1.933-1.371l2.282 0.6106c-0.7285 1.461-2.048 2.542-3.624 2.967-2.67 0.7154-5.406-0.5835-6.592-2.965l-1.213 0.3252 1.32-3.902z" fill="currentColor"/>
</svg>
