<svg width="22" height="22" version="1.1" xmlns="http://www.w3.org/2000/svg">
  <defs>
    <style id="current-color-scheme" type="text/css">.ColorScheme-Text { color:#ebdbb2; } .ColorScheme-Highlight { color:#458588; } .ColorScheme-NeutralText { color:#fe8019; } .ColorScheme-PositiveText { color:#689d6a; } .ColorScheme-NegativeText { color:#fb4934; }</style>
  </defs>
  <path class="ColorScheme-Text" d="m11 3c-1.105 0-2 0.8954-2 2h-3c-0.554 0-1 0.446-1 1v11c0 0.554 0.446 1 1 1h10c0.554 0 1-0.446 1-1v-11c0-0.554-0.446-1-1-1h-3c0-1.105-0.8954-2-2-2zm0 1c0.5523 0 1 0.4477 1 1 0 0.5523-0.4477 1-1 1s-1-0.4477-1-1 0.4477-1 1-1zm-4 3h1v1h6v-1h1v9h-8z" fill="currentColor"/>
</svg>
