<svg width="22" height="22" version="1.1" xmlns="http://www.w3.org/2000/svg">
  <defs>
    <style id="current-color-scheme" type="text/css">.ColorScheme-Text { color:#ebdbb2; } .ColorScheme-Highlight { color:#458588; } .ColorScheme-NeutralText { color:#fe8019; } .ColorScheme-PositiveText { color:#689d6a; } .ColorScheme-NegativeText { color:#fb4934; }</style>
  </defs>
  <path class="ColorScheme-Text" d="m7.707 5c-1.143 0.1937-2.235 0.5331-3.256 0.9941-0.0088 0.00378-0.01646 0.00946-0.02148 0.01758-2.074 3.049-2.642 7.025-2.363 9.962 0.0013 0.01437 0.0082 0.02642 0.01953 0.03516 1.369 0.9889 2.695 1.59 3.996 1.988 0.02082 0.0062 0.04339-7.19e-4 0.05664-0.01758 0.3078-0.4136 0.5812-0.4711 0.8164-0.9297 0.01388-0.02685 0.00103-0.05774-0.02734-0.06836-0.4351-0.1624-0.8495-0.361-1.248-0.5859-0.03153-0.01812-0.03486-0.06274-0.00586-0.08398 0.08388-0.06185 0.1699-0.1264 0.25-0.1914 0.01449-0.01187 0.03374-0.01339 0.05078-0.0059 2.618 1.176 6.454 1.176 9.041 0 0.01703-0.0081 0.03566-0.0059 0.05078 0.0059 0.08011 0.06497 0.1655 0.1296 0.25 0.1914 0.029 0.02124 0.02567 0.06586-0.0059 0.08398-0.3986 0.2293-0.8123 0.4241-1.248 0.5859-0.02837 0.01062-0.04123 0.04151-0.02734 0.06836 0.2403 0.4579 0.5143 0.5142 0.8164 0.9277 0.01262 0.01749 0.03582 0.02579 0.05664 0.01953 1.307-0.3979 2.633-0.9993 4.002-1.988 0.01199-0.0088 0.02021-0.02079 0.02149-0.03516 0.3336-3.396-0.5604-7.345-2.367-9.96-0.0044-0.00874-0.01069-0.01579-0.01953-0.01953-1.02-0.4604-2.112-0.7998-3.256-0.9941-0.02082-0.00378-0.04201 0.00474-0.05273 0.02344-0.1407 0.2461-0.2972 0.4488-0.4063 0.7012-1.23-0.1812-3.454-0.1812-4.659 0-0.1091-0.258-0.2708-0.455-0.4121-0.7012-0.01073-0.01811-0.03191-0.02656-0.05273-0.02344zm-0.209 6c0.8419 0 1.515 0.6791 1.502 1.5 0 0.8268-0.6667 1.5-1.502 1.5-0.8222 0-1.498-0.6732-1.498-1.5s0.6627-1.5 1.498-1.5zm6.002 0c0.8419 0 1.513 0.6791 1.5 1.5 1e-6 0.8268-0.6581 1.5-1.5 1.5-0.8222 0-1.5-0.6732-1.5-1.5s0.6647-1.5 1.5-1.5z" fill="currentColor"/>
</svg>
