<svg width="22" height="22" version="1.1" xmlns="http://www.w3.org/2000/svg">
  <defs>
    <style id="current-color-scheme" type="text/css">.ColorScheme-Text { color:#ebdbb2; } .ColorScheme-Highlight { color:#458588; } .ColorScheme-NeutralText { color:#fe8019; } .ColorScheme-PositiveText { color:#689d6a; } .ColorScheme-NegativeText { color:#fb4934; }</style>
  </defs>
  <path class="ColorScheme-Text" d="m13.5 5.999a1.5 1.5 0 0 0-1.5 1.5 1.5 1.5 0 0 0 1.5 1.5 1.5 1.5 0 0 0 1.5-1.5 1.5 1.5 0 0 0-1.5-1.5zm-4.275 6.037c-0.68-0.0174-1.412 0.1208-2.256 0.4648-0.9109 0.3712-1.963 1.026-3.164 1.98 1.334 2.761 4.129 4.516 7.195 4.52 2.326-1e-3 4.536-1.014 6.055-2.775-2.404-1.346-4.151-2.974-5.887-3.725-0.6348-0.2743-1.263-0.4474-1.943-0.4648z" fill="currentColor"/>
  <path class="ColorScheme-Text" d="m11 2.999c-4.418 0-8 3.582-8 8 3e-3 0.8492 0.1417 1.692 0.4102 2.498 1.166-0.9052 2.212-1.53 3.18-1.924 0.9521-0.3879 1.834-0.542 2.658-0.5215 0.8243 0.0205 1.592 0.2164 2.316 0.5293 2.016 0.8712 3.773 2.518 6.107 3.824 0.8647-1.307 1.326-2.839 1.328-4.406 0-4.418-3.582-8-8-8zm2.5 1.998a2.5 2.5 0 0 1 2.5 2.5 2.5 2.5 0 0 1-2.5 2.5 2.5 2.5 0 0 1-2.5-2.5 2.5 2.5 0 0 1 2.5-2.5z" fill="currentColor" opacity=".3"/>
</svg>
