<svg width="22" height="22" version="1.1" xmlns="http://www.w3.org/2000/svg">
  <defs>
    <style id="current-color-scheme" type="text/css">.ColorScheme-Text { color:#ebdbb2; } .ColorScheme-Highlight { color:#458588; } .ColorScheme-NeutralText { color:#fe8019; } .ColorScheme-PositiveText { color:#689d6a; } .ColorScheme-NegativeText { color:#fb4934; }</style>
  </defs>
  <path class="ColorScheme-Text" fill="currentColor" d="m6.509 4c-0.3597-2.815e-4 -0.6923 0.1894-0.8729 0.4977l-3.499 5.999c-0.1817 0.3103-0.1817 0.6934 0 1.004l3.499 5.999c0.1805 0.3085 0.5132 0.5003 0.8729 0.5001h6.987c0.3591-4.18e-4 0.6909-0.1921 0.8711-0.5001l3.497-5.999c0.1817-0.3103 0.1817-0.6934 0-1.004l-3.497-5.999c-0.1803-0.3078-0.5121-0.4974-0.8711-0.4977zm6.114 2c0.2575-1.037e-4 0.4974 0.1235 0.6366 0.3281v0.00195l-3.257 3.255-3.257-3.257c0.1327-0.1954 0.3577-0.3178 0.6033-0.3281zm-6.952 2.082 2.917 2.917-2.917 2.918-1.566-2.558c-0.1369-0.2221-0.1369-0.4965 0-0.7186l1.566-2.558zm8.663 0 1.566 2.558c0.1369 0.2221 0.1369 0.4965 0 0.7186l-1.566 2.559-2.917-2.918 2.917-2.917zm-4.331 4.331 3.255 3.255c-0.1384 0.2047-0.3774 0.3291-0.6346 0.33h-5.241c-0.2575 1.07e-4 -0.4974-0.1235-0.6366-0.3281l3.257-3.257z"/>
  <path class="ColorScheme-Highlight" fill="currentColor" d="m16.54 4c-0.4304-4.988e-4 -0.6779 0.4647-0.4596 0.8026l0.9518 1.465 0.9471 1.465c0.2324 0.357 0.8112 0.357 1.044 0l0.9515-1.464 0.9469-1.464c0.2278-0.3572-0.06042-0.8013-0.5216-0.8032z"/>
</svg>
