<svg width="22" height="22" version="1.1" xmlns="http://www.w3.org/2000/svg">
  <defs>
    <style id="current-color-scheme" type="text/css">.ColorScheme-Text { color:#ebdbb2; } .ColorScheme-Highlight { color:#458588; } .ColorScheme-NeutralText { color:#fe8019; } .ColorScheme-PositiveText { color:#689d6a; } .ColorScheme-NegativeText { color:#fb4934; }</style>
  </defs>
  <path class="ColorScheme-Text" d="m16.44 3a1 0.9997 0 0 0-0.1602 0.01952l-10.3 2.169a1 0.9997 0 0 0-0.0293 0.00977c-1.437 0.3465-2.449 1.432-3.131 2.679-0.6819 1.247-1.092 2.71-1.361 4.137-0.2691 1.427-0.3891 2.818-0.4336 3.905-0.02227 0.5436-0.02567 1.01-0.01758 1.373 5e-3 0.223 0.03379 0.3773 0.04883 0.535 1.63e-4 0-1.7e-4 -2.34e-4 0 0.0098a1 0.9997 0 0 0-0.0039 0.07419h0.0098c0.01128 0.07997-0.0069 0.1378 0.02344 0.2538a1 0.9997 0 0 0 0.957 0.7458l9.039 0.08981a1 0.9997 0 0 0 0.2207-0.02147l9.893-2.128a1 0.9997 0 0 0 0.7891-0.9313s0.1476-2.973-0.3691-6.041c-0.2584-1.534-0.6728-3.105-1.434-4.405-0.7608-1.3-1.996-2.375-3.641-2.466a1 0.9997 0 0 0-0.1016 0zm0.05078 2.019c0.8425 0.06997 1.423 0.5308 1.965 1.456 0.5566 0.9511 0.9521 2.329 1.188 3.727 0.4079 2.422 0.3151 4.257 0.2969 4.865l-8.66 1.863c-0.0067-2.503-0.3076-8.519-3.213-10.14zm-10.51 2.977c2.947 0 3.027 8.997 3.027 8.997h-6s0.0253-8.997 2.973-8.997zm11.73 1.999-4.617 1.181-0.08203 0.1132 0.06641 1.388 0.1406 0.03905 3.395-0.9001 0.07617 1.162 0.09766 0.01562 1.15-0.3963 0.07422-0.06443-0.2109-2.458zm-11.7 0.9996a1 0.9996 0 0 0-1 0.9996 1 0.9996 0 0 0 0.3164 0.7282l-0.8164 2.271 3-0.01562-0.7988-2.271a1 0.9996 0 0 0 0.2988-0.7126 1 0.9996 0 0 0-1-0.9996z" fill="currentColor"/>
</svg>
