<svg width="22" height="22" version="1.1" xmlns="http://www.w3.org/2000/svg">
  <defs>
    <style id="current-color-scheme" type="text/css">.ColorScheme-Text { color:#ebdbb2; } .ColorScheme-Highlight { color:#458588; } .ColorScheme-NeutralText { color:#fe8019; } .ColorScheme-PositiveText { color:#689d6a; } .ColorScheme-NegativeText { color:#fb4934; }</style>
  </defs>
  <path class="ColorScheme-Text" d="m3 5v12h2v-12h-2zm4 0v12l4.252-0.0332c2.931-0.03263 3.208-0.07195 4.447-0.6758 2.702-1.316 3.98-4.505 2.941-7.344-0.686-1.875-2.248-3.263-4.237-3.768-0.625-0.1586-1.021-0.1797-3.449-0.1797h-3.955zm6 2c1.483 0 2.413 0.5583 3 1.25v-1.25h1v3h-3v-1h1.312c-0.435-0.557-1.142-1-2.312-1-3 0-3 3-3 3h-1s0-4 4-4zm3 4h1s0 4-4 4c-1.483-1e-5 -2.413-0.5583-3-1.25v1.25h-1v-3h3v1h-1.312c0.4354 0.5567 1.142 1 2.312 1 3 1e-5 3-3 3-3z" fill="currentColor"/>
</svg>
