<svg width="22" height="22" version="1.1" xmlns="http://www.w3.org/2000/svg">
  <defs>
    <style id="current-color-scheme" type="text/css">.ColorScheme-Text { color:#ebdbb2; } .ColorScheme-Highlight { color:#458588; } .ColorScheme-NeutralText { color:#fe8019; } .ColorScheme-PositiveText { color:#689d6a; } .ColorScheme-NegativeText { color:#fb4934; }</style>
  </defs>
  <path class="ColorScheme-Text" d="m5 3c-1.108 0-2 0.892-2 2v12c0 1.108 0.892 2 2 2h12c1.108 0 2-0.892 2-2v-12c0-1.108-0.892-2-2-2zm0 1h6v14h-6c-0.554 0-1-0.446-1-1v-12c0-0.554 0.446-1 1-1zm7.5 5h5v1.5l-5 0.0082zm0 2.5h5v1.5h-5zm-5.211-5.998c-0.3033 1.71e-4 -1.108 0.3391-1.211 0.3828l0.127 0.5098c0.4821-0.1332 0.5382-0.1465 0.6309-0.1465 0.04099 0 0.0551 3e-3 0.05273 2e-3 0.1647 0.4825 0.255 0.9905 0.3672 1.488-0.2164 0.369-0.8598 1.274-0.9492 1.32-0.1086-0.0353-0.2516-0.1621-0.4805-0.1621-0.2793 0-0.4961 0.2459-0.4961 0.5176 0 0.165 0.06572 0.3259 0.1855 0.4316 0.1199 0.1057 0.2786 0.1543 0.4492 0.1543 0.1545 0 0.3229-0.04026 0.4668-0.1523 0.2556-0.1992 0.5827-0.6572 1.016-1.264 0.02806 0.4368 0.1607 0.8718 0.3867 1.215 0.1148 0.1393 0.2972 0.2012 0.4688 0.2012 0.2089 0 0.4186-0.08892 0.6035-0.2695 0.2329-0.2275 0.4544-0.5828 0.7285-1.035l-0.4434-0.2676c-0.2885 0.3941-0.4534 0.6095-0.5371 0.6543-0.07989-0.1255-0.3908-1.547-0.4082-1.725 0.1482-0.2654 0.4767-0.8289 0.6445-0.9316 0.1576 0.05018 0.2417 0.1465 0.4395 0.1465 0.2797 0 0.498-0.2528 0.498-0.5293 0-0.2995-0.2643-0.541-0.5605-0.541-0.2483 0-0.4842 0.1192-0.709 0.3438-0.1412 0.141-0.3166 0.4181-0.4805 0.6562-0.06457-0.323-0.1085-0.5455-0.209-0.7266-0.09124-0.1645-0.2767-0.2736-0.5801-0.2734zm0.4648 6.498c-2.166 5.04e-4 -2.744 2.134-1.767 3.166h-0.487v1.334h2.031l-0.08084-1.243c-1.216-0.4307-1.024-2.631 0.306-2.631 1.367 0 1.527 2.261 0.3214 2.623l-0.1155 1.251h2.036v-1.334h-0.4812c0.02519-0.0241 0.04892-0.04975 0.07121-0.07699 0.8652-1.055 0.3319-3.09-1.834-3.089zm-1.74 3.185h0.0019c0.1824 0.1866 0.4055 0.2568 0.6198 0.3561h-0.3099c-0.1494 0-0.236-0.02898-0.2579-0.04427-0.06785-0.08468-0.1563-0.3175-0.05389-0.3118zm3.47 0.0097-0.0077 0.1675c-0.0038 0.1001-0.01954 0.179-0.2849 0.179h-0.3195c0.2254-0.07279 0.4149-0.235 0.6121-0.3464z" color="#ebdbb2" fill="currentColor"/>
</svg>
