<svg width="22" height="22" version="1.1" xmlns="http://www.w3.org/2000/svg">
  <defs>
    <style id="current-color-scheme" type="text/css">.ColorScheme-Text { color:#ebdbb2; } .ColorScheme-Highlight { color:#458588; } .ColorScheme-NeutralText { color:#fe8019; } .ColorScheme-PositiveText { color:#689d6a; } .ColorScheme-NegativeText { color:#fb4934; }</style>
  </defs>
  <path class="ColorScheme-Text" d="m14.5 6.015c-2.221 0-4.107 1.625-4.441 3.818-0.5561-0.5263-1.293-0.8202-2.059-0.8214-1.657 0-3 1.342-3 2.996 0.00109 0.3432 0.06121 0.6837 0.1777 1.007-0.0591-0.01-0.1184-0.01-0.1777-0.01-1.105 0-2 0.8944-2 1.998s0.8954 1.998 2 1.998h1.045c0.3712-0.1025 0.649-0.2033 0.9668-0.478 0.3398-0.2938 3.498-5.5 6.377-5.5 1.527 5.99e-4 3.007 0.7481 3.525 2.798 0.04577 0.1921 0.1078 0.5648 0.08594 0.6828 0 0.8274-0.6716 1.498-1.5 1.498s-1.5-0.6708-1.5-1.498c-8.4e-5 -0.8192 0.6585-1.487 1.478-1.498-0.4684-0.2974-1.04-0.4724-1.475-0.476-1.181-0.01-1.917 1.022-2.022 1.945-0.1034 0.9132 0.1956 1.974 2.01 2.526h4.508c1.381 0 2.5-1.118 2.5-2.497-4.6e-4 -1.289-0.9828-2.366-2.268-2.485 0.176-0.485 0.266-0.996 0.268-1.511 0-2.482-2.015-4.494-4.5-4.494z" fill="currentColor" opacity=".3"/>
  <path class="ColorScheme-Text" d="m8 4.017a3 2.996 0 0 0-3 2.996v0.2712a2 1.998 0 0 0-1-0.2712 2 1.998 0 0 0-2 1.998h-0.5a0.5 0.4994 0 0 0-0.5 0.4994 0.5 0.4994 0 0 0 0.5 0.4994h3.061c0.6963-1.186 1.973-1.997 3.44-1.997h0.00195c0.5331 7.99e-4 1.05 0.1178 1.533 0.3199 0.3287-0.745 0.8083-1.404 1.398-1.935a3 2.996 0 0 0-2.934-2.397z" fill="currentColor"/>
</svg>
