<svg width="22" height="22" version="1.1" xmlns="http://www.w3.org/2000/svg">
  <defs>
    <style id="current-color-scheme" type="text/css">.ColorScheme-Text { color:#ebdbb2; } .ColorScheme-Highlight { color:#458588; } .ColorScheme-NeutralText { color:#fe8019; } .ColorScheme-PositiveText { color:#689d6a; } .ColorScheme-NegativeText { color:#fb4934; }</style>
  </defs>
  <path class="ColorScheme-Text" d="m5.023 3c-0.5667 0-1.023 0.4567-1.023 1.023v12.95c0 0.5667 0.4567 1.023 1.023 1.023h6.738a4.5 4.5 0 0 1-0.7617-2.5 4.5 4.5 0 0 1 0.03125-0.5h-1.031v-6h-3v-3h9v3h-3v2.762a4.5 4.5 0 0 1 2.5-0.7617 4.5 4.5 0 0 1 3.5 1.674v-8.65c0-0.5667-0.4567-1.023-1.023-1.023zm10.48 9a3.5 3.5 0 0 0-3.5 3.5 3.5 3.5 0 0 0 3.5 3.5 3.5 3.5 0 0 0 3.5-3.5 3.5 3.5 0 0 0-3.5-3.5zm-2.5 3h5v1h-5z" fill="currentColor"/>
</svg>
