<svg width="22" height="22" version="1.1" xmlns="http://www.w3.org/2000/svg">
  <defs>
    <style id="current-color-scheme" type="text/css">.ColorScheme-Text { color:#ebdbb2; } .ColorScheme-Highlight { color:#458588; } .ColorScheme-NeutralText { color:#fe8019; } .ColorScheme-PositiveText { color:#689d6a; } .ColorScheme-NegativeText { color:#fb4934; }</style>
  </defs>
  <path class="ColorScheme-Text" d="m10 3a7 6.5 0 0 0-7 6.5 7 6.5 0 0 0 2 4.547v2.953l1.32-1.98a7 6.5 0 0 0 2.262 0.834c-0.3689-0.7105-0.582-1.505-0.582-2.354 0-2.44 1.723-4.455 4.049-5.193a1 1 0 0 1-0.04883-0.3066 1 1 0 0 1 1-1 1 1 0 0 1 1 1c1.061 0 2.067 0.262 2.943 0.7168a7 6.5 0 0 0-6.943-5.717zm-3 4a1 1 0 0 1 1 1 1 1 0 0 1-1 1 1 1 0 0 1-1-1 1 1 0 0 1 1-1zm7 2a5 4.5 0 0 0-5 4.5 5 4.5 0 0 0 5 4.5 5 4.5 0 0 0 1.01-0.0957c0.05241-1.601 1.378-2.904 2.99-2.904 0.2313 0 0.455 0.0314 0.6719 0.08203a5 4.5 0 0 0 0.3281-1.582 5 4.5 0 0 0-5-4.5zm-2 2a1 1 0 0 1 1 1 1 1 0 0 1-1 1 1 1 0 0 1-1-1 1 1 0 0 1 1-1zm4 0a1 1 0 0 1 1 1 1 1 0 0 1-1 1 1 1 0 0 1-1-1 1 1 0 0 1 1-1zm2 6c-0.4259 0-0.7785 0.2488-0.9258 0.6133l0.9258 1.387v-2z" fill="currentColor"/>
  <circle class="ColorScheme-Highlight" cx="18" cy="18" r="2" fill="currentColor"/>
</svg>
