<svg width="256" height="256" version="1.1" xmlns="http://www.w3.org/2000/svg">
  <defs>
    <linearGradient id="b-3" x1=".5002" x2=".5002" y2="1" gradientTransform="matrix(244,0,0,228,5.981,12)" gradientUnits="userSpaceOnUse">
      <stop stop-color="#458588" offset="0"/>
      <stop stop-color="#076678" offset="1"/>
    </linearGradient>
    <linearGradient id="linearGradient31-7" x1=".5002" x2=".5002" y2="1" gradientTransform="matrix(244,0,0,228,5.986,12)" gradientUnits="userSpaceOnUse">
      <stop stop-color="#ebdbb2" stop-opacity=".2" offset="0"/>
      <stop stop-color="#ebdbb2" stop-opacity=".05" offset=".1"/>
      <stop stop-opacity="0" offset=".7036"/>
      <stop stop-opacity=".1" offset=".8975"/>
      <stop stop-opacity=".2" offset="1"/>
    </linearGradient>
  </defs>
  <path d="m165 12c72 0 85 15 85 87v56c0 70-13 85-85 85h-74c-72 0-85-15-85-85v-56c0-72 13-87 85-87z" fill="url(#b-3)" style="isolation:isolate"/>
  <g transform="translate(0 .01)" fill="#ebdbb2">
    <path d="m6 124v30.99c0 70.01 13 85.01 85 85.01h74c72 0 85-15 85-85.01v-30.99z" opacity=".2"/>
    <path d="m128 11.99v228h37c72 0 85-15 85-85v-56c0-72-13-87-85-87z" opacity=".2" style="isolation:isolate"/>
  </g>
  <path d="m128 50.068c-44.747 0-80.953 36.179-80.953 80.844 0 44.666 36.206 81.087 80.953 81.087 44.747 0 80.953-36.395 80.953-81.087 0-44.666-36.206-80.844-80.953-80.844zm44.139 33.548c19.421 5.8748 24.508 33.676 9.4575 44.51l12.203 46.143-16.918 4.1614-12.069-45.798c-21.48-5.2961-26.404-24.036-13.559-43.216l13.782 25.588 8.0144-2.3742m-45.063 3.4541c8.2978 0 14.861 6.6106 14.861 14.835 0 8.2228-6.5904 15.043-14.861 15.043-8.2514 0-14.808-6.8261-14.808-15.043a14.776 14.776 0 0 1 14.808-14.835z" fill="#282828" opacity=".3" stroke-width="1.1907" style="isolation:isolate"/>
  <path d="m128 45.034c-44.747 0-80.953 36.179-80.953 80.844 0 44.666 36.206 81.087 80.953 81.087 44.747 0 80.953-36.395 80.953-81.087 0-44.666-36.206-80.844-80.953-80.844zm44.139 33.548c19.421 5.8748 24.508 33.676 9.4575 44.51l12.203 46.143-16.918 4.1614-12.069-45.798c-21.48-5.2961-26.404-24.036-13.559-43.216l13.782 25.588 8.0144-2.3742m-45.063 3.4541c8.2978 0 14.861 6.6106 14.861 14.835 0 8.2228-6.5904 15.043-14.861 15.043-8.2514 0-14.808-6.8261-14.808-15.043a14.776 14.776 0 0 1 14.808-14.835z" fill="#ebdbb2" stroke-width="1.1907" style="isolation:isolate"/>
  <path d="m91 12c-72 0-85 15-85 87v56c0 70 13 85 85 85h74c72 0 85-15 85-85v-56c0-72-13-87-85-87zm0 4h74c68 0 80 15 80 83v56c0 66-12 81-80 81h-74c-68 0-80-15-80-81v-56c0-68 12-83 80-83z" fill="url(#linearGradient31-7)" style="isolation:isolate"/>
</svg>
