<svg width="256" height="256" version="1.1" xmlns="http://www.w3.org/2000/svg" xmlns:xlink="http://www.w3.org/1999/xlink">
  <defs>
    <linearGradient id="linearGradient31" x1=".5002" x2=".5002" y2="1" gradientTransform="matrix(244,0,0,228,5.986,12)" gradientUnits="userSpaceOnUse">
      <stop stop-color="#ebdbb2" stop-opacity=".2" offset="0"/>
      <stop stop-color="#ebdbb2" stop-opacity=".1" offset=".1"/>
      <stop stop-opacity="0" offset=".7036"/>
      <stop stop-opacity=".1" offset=".8975"/>
      <stop stop-opacity=".2" offset="1"/>
    </linearGradient>
    <linearGradient id="linearGradient6" x1="140" x2="140" y1="12" y2="240" gradientUnits="userSpaceOnUse">
      <stop stop-color="#665c54" offset="0"/>
      <stop stop-color="#504945" offset="1"/>
    </linearGradient>
  </defs>
  <path d="m165 12c72 0 85 15 85 87v56c0 70-13 85-85 85h-74c-72 0-85-15-85-85v-56c0-72 13-87 85-87z" fill="url(#linearGradient6)" style="isolation:isolate"/>
  <path d="m74.519 58.307c-0.06405 0-0.12149 0.0193-0.17969 0.0371-1.8261 0.1844-3.2598 1.7302-3.2598 3.6348v137.51c0 1.9689 1.5322 3.5642 3.4492 3.6543 0.03065 4e-3 0.05798 0.0175 0.08984 0.0176h108.11c0.368 0 0.66797-0.27905 0.66797-0.62305v-14.969h0.89648c0.345 0 0.625-0.27809 0.625-0.62109v-128.02c0-0.342-0.28-0.61914-0.625-0.61914h-109.6z" fill="#282828" opacity=".5" style="isolation:isolate"/>
  <path d="m74.519 52.844c-0.06405 0-0.12149 0.01931-0.17969 0.03711-1.8261 0.18439-3.2598 1.7302-3.2598 3.6348v137.51c0 1.9689 1.5322 3.5642 3.4492 3.6543 0.03065 4e-3 0.05798 0.0175 0.08984 0.0176h108.11c0.368 0 0.66797-0.27905 0.66797-0.62305v-14.969h0.89648c0.345 0 0.625-0.27809 0.625-0.62109v-128.02c0-0.342-0.28-0.61914-0.625-0.61914h-109.6z" fill="#d79921" style="isolation:isolate"/>
  <path d="m81.054 52.84h103.24c0.345 0 0.625 0.28 0.625 0.623v128.02c0 0.345-0.28 0.624-0.625 0.624h-103.24c-0.345 0-0.624-0.279-0.624-0.624v-128.02c0-0.343 0.28-0.623 0.624-0.623z" fill="#fabd2f" style="isolation:isolate"/>
  <path d="m76.247 182.11c-1.5073 0-2.7324 3.0271-2.7324 6.7578 0 3.7287 1.2251 6.7578 2.7324 6.7578h104.27v-13.515s-69.513-4e-4 -104.27-4.2e-4z" fill="#ebdbb2" stroke-width=".32654" style="isolation:isolate"/>
  <path d="m78.887 183.86h99.978c0.252 0 0.457 0.28123 0.457 0.62206 0 0.34542-0.205 0.62664-0.457 0.62664h-99.978c-0.252 0-0.457-0.28122-0.457-0.62664 0-0.34083 0.205-0.62206 0.457-0.62206zm0 3.3793h99.978c0.252 0 0.457 0.27664 0.457 0.62206 0 0.34236-0.205 0.62206-0.457 0.62206h-99.978c-0.252 0-0.457-0.2797-0.457-0.62206 0-0.34542 0.205-0.62206 0.457-0.62206zm0 4.2566h99.978c0.252 0 0.457 0.28123 0.457 0.62359 0 0.34389-0.205 0.62206-0.457 0.62206h-99.978c-0.252 0-0.457-0.27817-0.457-0.62206 0-0.34236 0.205-0.62359 0.457-0.62359zm0 1.7638h99.978c0.252 0 0.457 0.27817 0.457 0.62206s-0.205 0.62206-0.457 0.62206h-99.978c-0.252 0-0.457-0.27817-0.457-0.62206s0.205-0.62206 0.457-0.62206z" fill="#d5c4a1" stroke-width="1.2363" style="isolation:isolate"/>
  <path d="m139.48 101.01-0.615-0.152h-5.398v-0.478l0.803-0.631v-4.765l-0.948-0.282 0.281-0.552h5.177l0.614-0.154v2.173l-0.469 0.188-1.05-1.56h-2.059v2.301h1.017l0.622-0.954h0.479v2.48l-0.555 0.282-0.556-1.151h-1.007v2.446h1.99l1.205-1.738 0.469 0.195zm4.689-0.826-0.863 0.682c-0.19333 0.0453-0.424 0.068-0.692 0.068-0.546 0-0.946-0.12367-1.2-0.371-0.25267-0.24733-0.379-0.62933-0.379-1.146v-2.343h-0.923v-0.453l1.837-1.994h0.538v1.884h1.537v0.563h-1.537v2.284c0 0.392 0.222 0.588 0.666 0.588 0.114 0 0.22633-0.0187 0.337-0.056 0.11067-0.0367 0.25167-0.101 0.423-0.193zm3.297-2.804c-0.20533 0-0.41033 0.0907-0.615 0.272v2.302l1.298 0.341-0.273 0.553h-3.238v-0.477l0.761-0.639v-1.935l-0.761-0.477v-0.477l1.777-0.75 0.325 0.946 0.777-0.802c0.12-0.04533 0.25967-0.068 0.419-0.068 0.29533 0 0.55 0.06833 0.764 0.205 0.214 0.13667 0.36367 0.324 0.449 0.562l-0.82 1.023h-0.539c-5e-3 -0.20467-0.0337-0.35067-0.085-0.438-0.0513-0.0887-0.131-0.133-0.239-0.133zm7.661 2.915-0.273 0.553h-1.948v-0.732l-0.922 0.759c-0.154 0.0453-0.32767 0.068-0.521 0.068-0.438 0-0.78533-0.11833-1.042-0.355-0.25667-0.23533-0.385-0.555-0.385-0.959v-1.832l-0.759-0.434v-0.478l1.673-0.741h0.539v2.847c0 0.27267 0.04 0.46267 0.12 0.57 0.0793 0.10867 0.22133 0.163 0.426 0.163 0.29667 0 0.587-0.0967 0.871-0.29v-1.637l-0.76-0.434v-0.478l1.674-0.741h0.538v3.894zm2.981-0.528c0-0.10867-0.074-0.21833-0.222-0.329s-0.37567-0.251-0.683-0.421c-0.302-0.17133-0.54433-0.318-0.727-0.44-0.18133-0.122-0.339-0.261-0.473-0.417s-0.201-0.32533-0.201-0.508c0-0.20467 0.0983-0.42333 0.295-0.656 0.196-0.23333 0.43633-0.42933 0.721-0.588 0.28533-0.15933 0.54733-0.239 0.786-0.239 0.29 0 0.63033 0.03267 1.021 0.098 0.39 0.06533 0.673 0.13767 0.849 0.217v1.424h-0.538c-0.15333-0.284-0.337-0.50567-0.551-0.665-0.21333-0.15867-0.43367-0.238-0.661-0.238-0.114 0-0.20533 0.03233-0.274 0.097-0.0687 0.06533-0.103 0.14367-0.103 0.235 0 0.11933 0.0757 0.23567 0.227 0.349 0.15067 0.114 0.39133 0.26467 0.722 0.452 0.438 0.23933 0.77533 0.45533 1.012 0.648 0.23667 0.19333 0.355 0.415 0.355 0.665 0 0.21067-0.10133 0.43067-0.304 0.66-0.202 0.23067-0.44967 0.42533-0.743 0.584-0.29333 0.15933-0.56233 0.239-0.807 0.239-0.31333 0-0.685-0.0327-1.115-0.098-0.42933-0.0653-0.73533-0.138-0.918-0.218v-1.474h0.538c0.17133 0.30133 0.382 0.53567 0.632 0.703 0.25067 0.16733 0.49833 0.251 0.743 0.251 0.126 0 0.22733-0.0327 0.304-0.098 0.0767-0.0647 0.115-0.14233 0.115-0.233zm5.039-3.598c0.26733 0 0.57767 0.03267 0.931 0.098s0.60967 0.13767 0.769 0.217v1.585h-0.539c-0.216-0.28933-0.46067-0.51367-0.734-0.673-0.27267-0.15933-0.55733-0.239-0.854-0.239-0.21067 0-0.37167 0.09833-0.483 0.295-0.11067 0.196-0.166 0.476-0.166 0.84 0 0.46 0.0983 0.84067 0.295 1.142 0.196 0.30133 0.47633 0.452 0.841 0.452 0.37 0 0.90233-0.17933 1.597-0.538l0.257 0.487-1.231 0.971c-0.324 0.0853-0.69667 0.128-1.118 0.128-0.416 0-0.79067-0.098-1.124-0.294s-0.592-0.46433-0.776-0.805c-0.18533-0.34133-0.278-0.71967-0.278-1.135 0-0.44867 0.135-0.86733 0.405-1.256 0.27067-0.38933 0.611-0.699 1.021-0.929 0.41-0.23067 0.80567-0.346 1.187-0.346zm7.909 4.126-0.273 0.553h-1.948v-0.741l-0.965 0.759c-0.114 0.0453-0.25633 0.068-0.427 0.068-0.546 0-0.94033-0.13367-1.183-0.401-0.242-0.26733-0.363-0.58833-0.363-0.963 0-0.222 0.0687-0.439 0.206-0.651 0.136-0.214 0.33233-0.41167 0.589-0.593h2.143v-0.145c0-0.31267-0.0853-0.54267-0.256-0.69-0.17067-0.148-0.39833-0.222-0.683-0.222-0.39867 0-0.91967 0.156-1.563 0.468l-0.257-0.485 1.188-0.955c0.29-0.08533 0.629-0.128 1.017-0.128 0.63733 0 1.131 0.14533 1.481 0.436 0.35 0.28933 0.525 0.70967 0.525 1.261v2.13zm-3.177-0.503c0.29 0 0.60867-0.11933 0.956-0.358v-0.546h-1.375c-0.0453 0.0687-0.0777 0.13267-0.097 0.192-0.0207 0.0593-0.031 0.126-0.031 0.2 0 0.14267 0.05 0.262 0.15 0.358 0.0993 0.0967 0.23167 0.145 0.397 0.145zm6.568-3.623c0.59733 0 1.06 0.22733 1.388 0.682 0.32667 0.45533 0.48467 1.086 0.474 1.892h-3.075c0.0567 0.34667 0.179 0.62367 0.367 0.831 0.188 0.208 0.433 0.312 0.735 0.312 0.398 0 0.97033-0.199 1.717-0.597l0.256 0.486-1.298 1.031c-0.336 0.0853-0.72633 0.128-1.171 0.128-0.41533 0-0.78933-0.098-1.122-0.294-0.33333-0.196-0.59267-0.46433-0.778-0.805-0.18533-0.34133-0.278-0.71967-0.278-1.135 0-0.44867 0.14533-0.86733 0.436-1.256 0.29067-0.38933 0.65367-0.699 1.089-0.929 0.43533-0.23067 0.85533-0.346 1.26-0.346zm-0.47 0.988c-0.25067 0-0.43833 0.08433-0.563 0.253-0.12533 0.16733-0.194 0.42433-0.206 0.771h1.632c-0.046-0.35267-0.13-0.61133-0.252-0.776-0.12267-0.16533-0.32933-0.248-0.62-0.248zm-76.399 3.844-0.615-0.153h-5.45v-0.477l0.803-0.631v-4.789l-0.947-0.249 0.282-0.552h3.023v0.477l-0.812 0.63v4.944h1.923l1.323-1.909 0.47 0.196zm3.681-0.706-0.282 0.553h-2.699v-0.477l0.76-0.639v-1.977l-0.76-0.503v-0.477l1.674-0.682h0.539v3.945zm-1.503-6.768c0.24467 0 0.44533 0.078 0.602 0.234 0.15667 0.15667 0.235 0.35133 0.235 0.584 0 0.16467-0.057 0.318-0.171 0.46-0.114 0.14267-0.25633 0.25667-0.427 0.342-0.17067 0.08467-0.336 0.127-0.496 0.127-0.23867 0-0.43633-0.078-0.593-0.234-0.15667-0.15667-0.235-0.35133-0.235-0.584 0-0.16467 0.057-0.318 0.171-0.46 0.114-0.14267 0.255-0.25633 0.423-0.341 0.168-0.08533 0.33167-0.128 0.491-0.128zm7.892 6.768-0.282 0.553h-1.939v-2.727c0-0.26733-0.0413-0.456-0.124-0.566-0.0827-0.11133-0.22633-0.167-0.431-0.167-0.302 0-0.601 0.0963-0.897 0.289v2.361l0.769 0.257-0.282 0.553h-2.699v-0.477l0.76-0.639v-1.935l-0.76-0.477v-0.477l1.777-0.75 0.332 0.989 1.06-0.845c0.154-0.04533 0.32767-0.068 0.521-0.068 0.43267 0 0.77867 0.118 1.038 0.354 0.25867 0.236 0.388 0.55567 0.388 0.959v2.556zm5.534-3.213h-0.879c0.0967 0.18133 0.145 0.37433 0.145 0.579 0 0.34667-0.14667 0.68033-0.44 1.001-0.29333 0.32133-0.65633 0.56433-1.089 0.729-0.148 0.17067-0.222 0.34133-0.222 0.512 0 0.0787 0.0623 0.15667 0.187 0.234 0.126 0.0767 0.323 0.17467 0.591 0.294 0.39267 0.17067 0.694 0.32833 0.904 0.473 0.21133 0.14467 0.317 0.31367 0.317 0.507 0 0.182-0.114 0.40767-0.342 0.677-0.228 0.27-0.51133 0.506-0.85 0.708s-0.66733 0.303-0.986 0.303c-0.34733 0-0.76033-0.054-1.239-0.162-0.478-0.108-0.87633-0.216-1.195-0.324v-1.526h0.537c0.27933 0.37467 0.563 0.66033 0.851 0.857 0.28667 0.196 0.61233 0.294 0.977 0.294 0.188 0 0.346-0.041 0.474-0.123 0.128-0.0833 0.192-0.17 0.192-0.26 0-0.13067-0.0753-0.246-0.226-0.346-0.15067-0.0993-0.38267-0.22-0.696-0.362-0.33533-0.14733-0.58867-0.27933-0.76-0.396-0.17067-0.11667-0.256-0.25167-0.256-0.405 0-0.13667 0.10367-0.276 0.311-0.418 0.20867-0.142 0.458-0.267 0.748-0.375-0.114 0.0113-0.19933 0.017-0.256 0.017-0.34733 0-0.665-0.068-0.953-0.204-0.28733-0.13667-0.51367-0.32-0.679-0.55-0.16467-0.23-0.247-0.476-0.247-0.738 0-0.324 0.11933-0.63367 0.358-0.929 0.23933-0.29533 0.54967-0.53233 0.931-0.711 0.38133-0.17933 0.77167-0.269 1.171-0.269 0.45533 0 0.85667 0.114 1.204 0.342h1.409zm-2.699 1.516c0.18267 0 0.32367-0.0437 0.423-0.131 0.0993-0.088 0.149-0.22067 0.149-0.398 0-0.278-0.0893-0.49767-0.268-0.659-0.17933-0.16267-0.41733-0.244-0.714-0.244-0.376 0-0.564 0.16767-0.564 0.503 0 0.27267 0.09 0.496 0.27 0.67 0.17933 0.17267 0.414 0.259 0.704 0.259zm8.729 1.697-0.273 0.553h-1.947v-0.732l-0.922 0.759c-0.154 0.0453-0.328 0.068-0.522 0.068-0.438 0-0.78533-0.11833-1.042-0.355-0.256-0.23533-0.384-0.555-0.384-0.959v-1.832l-0.761-0.434v-0.478l1.675-0.741h0.538v2.847c0 0.27267 0.0397 0.46267 0.119 0.57 0.08 0.10867 0.22233 0.163 0.427 0.163 0.296 0 0.58667-0.0967 0.872-0.29v-1.637l-0.761-0.434v-0.478l1.674-0.741h0.539v3.894zm5.705 0-0.272 0.553h-1.948v-0.741l-0.965 0.759c-0.114 0.0453-0.25633 0.068-0.427 0.068-0.54667 0-0.941-0.13367-1.183-0.401s-0.363-0.58833-0.363-0.963c0-0.222 0.0683-0.439 0.205-0.651 0.13667-0.214 0.33333-0.41167 0.59-0.593h2.143v-0.145c0-0.31267-0.0857-0.54267-0.257-0.69-0.17-0.148-0.39767-0.222-0.683-0.222-0.398 0-0.919 0.156-1.563 0.468l-0.256-0.485 1.187-0.955c0.29067-0.08533 0.62967-0.128 1.017-0.128 0.638 0 1.132 0.14533 1.482 0.436 0.35 0.28933 0.525 0.70967 0.525 1.261v2.13zm-3.177-0.503c0.29067 0 0.60967-0.11933 0.957-0.358v-0.546h-1.375c-0.0453 0.0687-0.078 0.13267-0.098 0.192-0.02 0.0593-0.03 0.126-0.03 0.2 0 0.14267 0.0497 0.262 0.149 0.358 0.1 0.0967 0.23233 0.145 0.397 0.145zm6.568-3.623c0.598 0 1.061 0.22733 1.389 0.682 0.32667 0.45533 0.48467 1.086 0.474 1.892h-3.076c0.0573 0.34667 0.18 0.62367 0.368 0.831 0.188 0.208 0.43267 0.312 0.734 0.312 0.39867 0 0.971-0.199 1.717-0.597l0.257 0.486-1.299 1.031c-0.336 0.0853-0.726 0.128-1.17 0.128-0.41533 0-0.78967-0.098-1.123-0.294-0.33267-0.196-0.59167-0.46433-0.777-0.805-0.18533-0.34133-0.278-0.71967-0.278-1.135 0-0.44867 0.14533-0.86733 0.436-1.256 0.29-0.38933 0.65267-0.699 1.088-0.929 0.436-0.23067 0.856-0.346 1.26-0.346zm-0.47 0.988c-0.25 0-0.43767 0.08433-0.563 0.253-0.12533 0.16733-0.19367 0.42433-0.205 0.771h1.631c-0.0453-0.35267-0.129-0.61133-0.251-0.776-0.12267-0.16533-0.32933-0.248-0.62-0.248zm-22.535-20.289v3.348l-0.67 0.269-1.721-2.472h-1.135v7.5l1.367 0.353-0.403 0.792h-4.319v-0.683l1.147-0.9v-7.062h-1.086l-1.72 2.472-0.672-0.269v-3.348l0.878 0.219h7.456zm9.237 8.998-0.403 0.792h-2.769v-3.897c0-0.38133-0.059-0.651-0.177-0.809-0.118-0.15867-0.32367-0.238-0.617-0.238-0.43067 0-0.85733 0.138-1.28 0.414v3.373l1.098 0.365-0.403 0.792h-3.856v-0.683l1.086-0.913v-6.66l-1.086-0.717v-0.683l2.391-0.974h0.77v5.137l1.365-1.095c0.22-0.064 0.46833-0.096 0.745-0.096 0.61867 0 1.1127 0.16833 1.482 0.505 0.37067 0.33667 0.556 0.793 0.556 1.369v3.653zm4.832-5.892c0.85333 0 1.514 0.32467 1.982 0.974s0.69367 1.55 0.677 2.702h-4.392c0.0813 0.496 0.25633 0.89167 0.525 1.187 0.268 0.29667 0.61767 0.445 1.049 0.445 0.56933 0 1.387-0.284 2.453-0.852l0.365 0.693-1.854 1.474c-0.48 0.12133-1.0373 0.182-1.672 0.182-0.594 0-1.1287-0.13967-1.604-0.419-0.476-0.28-0.846-0.66367-1.11-1.151-0.26467-0.48667-0.397-1.0267-0.397-1.62 0-0.64133 0.20767-1.24 0.623-1.796 0.414-0.55533 0.93233-0.99767 1.555-1.327 0.622-0.328 1.222-0.492 1.8-0.492zm-0.672 1.411c-0.35733 0-0.62567 0.12-0.805 0.36-0.17867 0.23933-0.27633 0.60667-0.293 1.102h2.331c-0.0653-0.50333-0.18567-0.873-0.361-1.109-0.174-0.23533-0.46867-0.353-0.884-0.353zm8.114 3.726c0-0.154-0.10567-0.31033-0.317-0.469-0.21133-0.15733-0.53667-0.358-0.976-0.602-0.43067-0.244-0.77633-0.453-1.037-0.627-0.26067-0.17467-0.48633-0.37367-0.677-0.597-0.19133-0.22333-0.287-0.46467-0.287-0.724 0-0.29267 0.14033-0.60567 0.421-0.939 0.28067-0.332 0.62433-0.61167 1.031-0.839 0.40667-0.22667 0.781-0.34 1.123-0.34 0.41467 0 0.90033 0.04633 1.457 0.139 0.558 0.09333 0.96267 0.197 1.214 0.311v2.033h-0.768c-0.22-0.406-0.48233-0.72267-0.787-0.95-0.30533-0.228-0.62067-0.342-0.946-0.342-0.162 0-0.292 0.047-0.39 0.141-0.0973 0.09333-0.146 0.205-0.146 0.335 0 0.17067 0.10767 0.337 0.323 0.499 0.21533 0.16267 0.559 0.378 1.031 0.646 0.626 0.34133 1.1077 0.64967 1.445 0.925 0.338 0.276 0.507 0.59233 0.507 0.949 0 0.30067-0.14433 0.61567-0.433 0.945-0.28867 0.328-0.64267 0.60567-1.062 0.833-0.41867 0.22733-0.803 0.341-1.153 0.341-0.44733 0-0.978-0.04633-1.592-0.139-0.614-0.094-1.0513-0.19767-1.312-0.311v-2.106h0.769c0.244 0.43 0.545 0.76467 0.903 1.004 0.358 0.24 0.712 0.36 1.062 0.36 0.17867 0 0.323-0.04667 0.433-0.14 0.10933-0.09333 0.164-0.20533 0.164-0.336zm10.714 0.755-0.391 0.792h-2.782v-1.059l-1.378 1.084c-0.16333 0.064-0.367 0.096-0.611 0.096-0.78067 0-1.3437-0.19067-1.689-0.572-0.346-0.382-0.519-0.84067-0.519-1.376 0-0.316 0.0977-0.62633 0.293-0.931 0.19533-0.30467 0.47567-0.587 0.841-0.847h3.063v-0.206c0-0.44667-0.122-0.77533-0.366-0.986-0.244-0.21133-0.56933-0.317-0.976-0.317-0.57 0-1.3147 0.22333-2.234 0.67l-0.365-0.694 1.696-1.365c0.41467-0.12067 0.89867-0.181 1.452-0.181 0.91133 0 1.617 0.207 2.117 0.621 0.5 0.41267 0.75 1.013 0.75 1.801v3.045zm-4.539-0.718c0.41467 0 0.87-0.17067 1.366-0.512v-0.779h-1.965c-0.0647 0.098-0.11133 0.18933-0.14 0.274-0.0287 0.08533-0.043 0.181-0.043 0.287 0 0.202 0.0713 0.37233 0.214 0.511 0.14267 0.138 0.332 0.207 0.568 0.207zm13.262 0.718-0.39 0.792h-2.782v-1.047l-1.318 1.084c-0.21933 0.06467-0.46767 0.097-0.745 0.097-0.626 0-1.1217-0.16833-1.487-0.505-0.36667-0.33733-0.55-0.794-0.55-1.37v-2.619l-1.086-0.621v-0.68l2.392-1.06h0.768v4.067c0 0.38867 0.057 0.66033 0.171 0.815 0.114 0.154 0.31767 0.231 0.611 0.231 0.42267 0 0.83733-0.138 1.244-0.414v-2.338l-1.086-0.621v-0.68l2.391-1.06h0.769v5.564zm4.759-4.164c-0.29267 0-0.58567 0.13-0.879 0.39v3.288l1.855 0.486-0.391 0.792h-4.624v-0.683l1.086-0.913v-2.764l-1.086-0.682v-0.681l2.538-1.071 0.464 1.35 1.11-1.144c0.17067-0.064 0.37-0.096 0.598-0.096 0.42267 0 0.78667 0.097 1.092 0.291 0.30533 0.19533 0.51867 0.46367 0.64 0.805l-1.17 1.46h-0.77c-8e-3 -0.292-0.0487-0.501-0.122-0.627s-0.187-0.189-0.341-0.189zm10.945 4.164-0.391 0.792h-2.782v-1.047l-1.318 1.084c-0.21933 0.06467-0.467 0.097-0.743 0.097-0.62733 0-1.1237-0.16833-1.489-0.505-0.36667-0.33733-0.55-0.794-0.55-1.37v-2.619l-1.086-0.621v-0.68l2.392-1.06h0.769v4.067c0 0.38867 0.0567 0.66033 0.17 0.815 0.114 0.154 0.31767 0.231 0.611 0.231 0.42267 0 0.83733-0.138 1.244-0.414v-2.338l-1.086-0.621v-0.68l2.392-1.06h0.768v5.564zm4.258-0.755c0-0.154-0.106-0.31033-0.318-0.469-0.21067-0.15733-0.536-0.358-0.976-0.602-0.43067-0.244-0.77633-0.453-1.037-0.627-0.26-0.17467-0.48567-0.37367-0.677-0.597s-0.287-0.46467-0.287-0.724c0-0.29267 0.14067-0.60567 0.422-0.939 0.28-0.332 0.62367-0.61167 1.031-0.839 0.406-0.22667 0.78-0.34 1.122-0.34 0.41467 0 0.90033 0.04633 1.457 0.139 0.558 0.09333 0.963 0.197 1.215 0.311v2.033h-0.769c-0.22-0.406-0.482-0.72267-0.786-0.95-0.30533-0.228-0.62067-0.342-0.946-0.342-0.16267 0-0.293 0.047-0.391 0.141-0.0973 0.09333-0.146 0.205-0.146 0.335 0 0.17067 0.10767 0.337 0.323 0.499 0.216 0.16267 0.55967 0.378 1.031 0.646 0.62667 0.34133 1.1087 0.64967 1.446 0.925 0.33733 0.276 0.506 0.59233 0.506 0.949 0 0.30067-0.144 0.61567-0.432 0.945-0.28933 0.328-0.64333 0.60567-1.062 0.833-0.41933 0.22733-0.80367 0.341-1.153 0.341-0.448 0-0.979-0.04633-1.593-0.139-0.614-0.094-1.051-0.19767-1.311-0.311v-2.106h0.768c0.244 0.43 0.54533 0.76467 0.904 1.004 0.35733 0.24 0.711 0.36 1.061 0.36 0.17867 0 0.323-0.04667 0.433-0.14s0.165-0.20533 0.165-0.336z" fill="#3c3836" fill-rule="evenodd" style="isolation:isolate"/>
  <path d="m91 12c-72 0-85 15-85 87v56c0 70 13 85 85 85h74c72 0 85-15 85-85v-56c0-72-13-87-85-87zm0 4h74c68 0 80 15 80 83v56c0 66-12 81-80 81h-74c-68 0-80-15-80-81v-56c0-68 12-83 80-83z" fill="url(#linearGradient31)" style="isolation:isolate"/>
</svg>
