<svg width="256" height="256" version="1.1" xmlns="http://www.w3.org/2000/svg">
  <defs>
    <linearGradient id="linearGradient31" x1=".5002" x2=".5002" y2="1" gradientTransform="matrix(244,0,0,228,5.986,12)" gradientUnits="userSpaceOnUse">
      <stop stop-color="#ebdbb2" stop-opacity=".2" offset="0"/>
      <stop stop-color="#ebdbb2" stop-opacity=".05" offset=".1"/>
      <stop stop-opacity="0" offset=".7036"/>
      <stop stop-opacity=".1" offset=".8975"/>
      <stop stop-opacity=".2" offset="1"/>
    </linearGradient>
    <linearGradient id="linearGradient6" x1="140" x2="140" y1="12" y2="240" gradientUnits="userSpaceOnUse">
      <stop stop-color="#83a598" offset="0"/>
      <stop stop-color="#458588" offset="1"/>
    </linearGradient>
  </defs>
  <path d="m165 12c72 0 85 15 85 87v56c0 70-13 85-85 85h-74c-72 0-85-15-85-85v-56c0-72 13-87 85-87z" fill="url(#linearGradient6)" style="isolation:isolate"/>
  <path d="m218.8 18.465v50.535h30.045c-2.6945-28.328-10.708-43.112-30.045-50.535z" fill="#fb4934" style="isolation:isolate"/>
  <path d="m218.8 69v57h31.197v-27c0-11.429-0.31355-21.275-1.1527-30z" fill="#b8bb26" style="isolation:isolate"/>
  <path d="m218.8 126v57h30.157c0.75485-8.2127 1.0398-17.407 1.0398-28v-29z" fill="#fabd2f" style="isolation:isolate"/>
  <path d="m218.8 183v50.608c19.617-7.4172 27.547-22.262 30.157-50.576z" fill="#d3869b" style="isolation:isolate"/>
  <path d="m114.98 55.454c-16.847-4.29e-4 -30.504 14.478-30.504 32.337 0.0079 7.8982 2.742 15.519 7.6871 21.427-1.2611 0.52946-22.088 9.714-22.088 38.762v11.94c11.804 11.074 28.562 13.631 44.141 14.039 24.47 0.21708 38.657-7.5899 45.655-13.167l0.0283-12.942c-3e-3 -12.24-4.1721-23.286-12.715-32.032-3.3336 4.2516-7.3921 7.8002-11.963 10.462 5.9489 5.0777 8.5579 12.707 8.8501 21.813v3.762c-0.16989 2e-3 -10.305 6.2507-29.855 6.3327-19.55-0.082-28.321-6.3327-28.321-6.3327v-3.8737c0-24.465 18.321-27.842 28.321-27.864l0.7641 9e-3c16.846-4.1e-4 30.502-14.477 30.502-32.335 4e-4 -17.859-13.655-32.337-30.502-32.337zm-2e-3 15.725c8.6377-4.26e-4 15.64 7.4232 15.64 16.58 0 9.1566-7.0025 16.578-15.64 16.578-8.6371-4.2e-4 -15.638-7.422-15.638-16.578s7.0013-16.579 15.638-16.58zm-44.903 118.63v15.775h89.824v-15.775z" color="#000000" fill="#282828" opacity=".3" stroke-width=".74532" style="-inkscape-stroke:none;isolation:isolate"/>
  <path d="m114.98 50.419c-16.847-4.28e-4 -30.504 14.478-30.504 32.337 0.0079 7.8982 2.742 15.519 7.6871 21.427-1.2611 0.52947-22.088 9.714-22.088 38.762v11.94c11.804 11.074 28.562 13.631 44.141 14.039 24.47 0.21709 38.657-7.5899 45.655-13.167l0.0283-12.942c-3e-3 -12.24-4.1721-23.286-12.715-32.032-3.3336 4.2516-7.3921 7.8002-11.963 10.462 5.9489 5.0777 8.5579 12.707 8.8501 21.813v3.762c-0.16989 2e-3 -10.305 6.2507-29.855 6.3326-19.55-0.082-28.321-6.3326-28.321-6.3326v-3.8737c0-24.465 18.321-27.842 28.321-27.864l0.76411 9e-3c16.846-4.2e-4 30.502-14.477 30.502-32.335 3.9e-4 -17.859-13.655-32.337-30.502-32.337zm-2e-3 15.725c8.6376-4.23e-4 15.64 7.4232 15.64 16.58 0 9.1566-7.0025 16.578-15.64 16.578-8.6371-4.2e-4 -15.638-7.422-15.638-16.578s7.0013-16.579 15.638-16.58zm-44.903 118.63v15.775h89.824v-15.775z" color="#000000" fill="#ebdbb2" stroke-width=".74532" style="-inkscape-stroke:none;isolation:isolate"/>
  <path d="m91 12c-72 0-85 15-85 87v56c0 70 13 85 85 85h74c72 0 85-15 85-85v-56c0-72-13-87-85-87zm0 4h74c68 0 80 15 80 83v56c0 66-12 81-80 81h-74c-68 0-80-15-80-81v-56c0-68 12-83 80-83z" fill="url(#linearGradient31)" style="isolation:isolate"/>
  <path d="m114.98 50.42c-16.847-4.28e-4 -30.504 14.477-30.504 32.336 8.77e-4 0.87599 0.04799 1.7461 0.11524 2.6133 1.1722-16.724 14.313-29.916 30.389-29.916v2e-3c16.04 0 29.161 13.131 30.383 29.803 0.06-0.8282 0.11914-1.6575 0.11914-2.502 3.9e-4 -17.859-13.655-32.336-30.502-32.336zm-15.441 34.822c-0.11855 0.82292-0.19921 1.6595-0.19921 2.5176 0 9.156 7.0016 16.578 15.639 16.578 8.6375 0 15.639-7.4215 15.639-16.578 0-0.85807-0.0787-1.6946-0.19727-2.5176-1.1471 7.9581-7.6136 14.061-15.441 14.061-7.8274-3.8e-4 -14.293-6.1029-15.439-14.061zm-10 20.297c-5.8919 3.4531-19.465 13.949-19.465 37.406v5.0352c0-29.048 20.829-38.232 22.09-38.762-0.96986-1.1587-1.8291-2.4-2.625-3.6797zm57.645 5.2441c-3.3336 4.2516-7.392 7.7991-11.963 10.461 1.1115 0.94869 2.1072 1.9876 2.9922 3.1074 3.3593-2.3662 6.3847-5.235 8.9707-8.5332 8.4368 8.6374 12.6 19.52 12.705 31.578l0.01-4.582c-3e-3 -12.24-4.172-23.285-12.715-32.031zm-61.262 36.055c-0.0093 0.38057-0.02734 0.75129-0.02734 1.1426v3.875s8.7723 6.25 28.322 6.332c19.55-0.0819 29.686-6.33 29.855-6.332v-3.7617c-0.0135-0.41955-0.0586-0.81925-0.082-1.2324-0.37215 0.12859-10.426 6.21-29.773 6.291-19.389-0.0813-28.152-6.2134-28.295-6.3144zm-15.848 37.936v5.0352h89.824v-5.0352z" fill="#fbf1c7" opacity=".5" style="-inkscape-stroke:none;isolation:isolate"/>
</svg>
