<svg width="256" height="256" version="1.1" xmlns="http://www.w3.org/2000/svg">
  <defs>
    <linearGradient id="linearGradient31" x1=".5002" x2=".5002" y2="1" gradientTransform="matrix(244,0,0,228,5.986,12)" gradientUnits="userSpaceOnUse">
      <stop stop-color="#ebdbb2" stop-opacity=".2" offset="0"/>
      <stop stop-color="#ebdbb2" stop-opacity=".05" offset=".1"/>
      <stop stop-opacity="0" offset=".7036"/>
      <stop stop-opacity=".1" offset=".8975"/>
      <stop stop-opacity=".2" offset="1"/>
    </linearGradient>
    <linearGradient id="linearGradient6" x1="140" x2="140" y1="12" y2="240" gradientUnits="userSpaceOnUse">
      <stop stop-color="#fb4934" offset="0"/>
      <stop stop-color="#9d0006" offset="1"/>
    </linearGradient>
    <linearGradient id="g" x1="-73.494" x2="-50.244" y1="72.699" y2="159.48" gradientTransform="matrix(1.5773 -.42261 -.42261 -1.5773 275.62 286.83)" gradientUnits="userSpaceOnUse">
      <stop stop-color="#ebdbb2" offset="0"/>
      <stop stop-color="#ebdbb2" offset="1"/>
    </linearGradient>
  </defs>
  <path d="m165 12c72 0 85 15 85 87v56c0 70-13 85-85 85h-74c-72 0-85-15-85-85v-56c0-72 13-87 85-87z" fill="url(#linearGradient6)" style="isolation:isolate"/>
  <path d="m201.32 161.84a24.392 24.392 0 0 0-2.0378-2.3739c-8.6633-8.8927-15.137-19.391-18.623-31.02-0.16004-0.53878-0.32007-1.0802-0.46411-1.6217-0.14936-0.54679-0.28006-1.1042-0.41342-1.6564-2.79-11.808-2.4512-24.139 0.62147-36.168 0 0 0.46944-1.9844 0.58947-2.8033 2.5819-15.198-6.7749-30.135-21.952-34.205-15.475-4.1476-31.34 4.5317-36.398 19.498-0.21072 0.56013-0.63748 1.9711-0.64015 1.9924-3.3288 11.789-9.106 22.493-17.271 31.258-9.2768 9.7355-21.069 16.657-34.29 20.199-16.102 4.3156-25.672 20.898-21.354 37.008 4.321 16.11 20.879 25.678 36.995 21.357 12.024-3.07 24.36-3.4194 36.168-0.62947 0.55212 0.13603 1.1069 0.27206 1.6537 0.42142 0.55213 0.1467 1.0962 0.30674 1.643 0.46144 11.624 3.4888 22.133 9.9569 31.012 18.626 1.0909 1.0936 2.0325 1.8618 2.9127 2.4832 11.936 9.0954 28.919 8.4019 39.801-2.4806 11.045-11.042 11.685-28.484 2.0485-40.345zm-73.182 5.4599c-15.764-4.225-25.126-20.439-20.901-36.206 4.2276-15.766 20.437-25.126 36.203-20.903 15.774 4.2276 25.131 20.437 20.903 36.203-4.225 15.769-20.431 25.131-36.206 20.906z" fill="#282828" opacity=".3" stroke-width="2.6673"/>
  <path d="m201.25 156.88a24.392 24.392 0 0 0-2.0378-2.3739c-8.6633-8.8927-15.137-19.391-18.623-31.02-0.16004-0.53878-0.32007-1.0802-0.46411-1.6217-0.14936-0.54679-0.28006-1.1042-0.41342-1.6564-2.79-11.808-2.4512-24.139 0.62147-36.168 0 0 0.46944-1.9844 0.58947-2.8033 2.5819-15.198-6.7749-30.135-21.952-34.205-15.475-4.1476-31.34 4.5317-36.398 19.498-0.21072 0.56013-0.63748 1.9711-0.64015 1.9924-3.3288 11.789-9.106 22.493-17.271 31.258-9.2768 9.7355-21.069 16.657-34.29 20.199-16.102 4.3156-25.672 20.898-21.354 37.008 4.321 16.11 20.879 25.678 36.995 21.357 12.024-3.07 24.36-3.4194 36.168-0.62947 0.55212 0.13603 1.1069 0.27206 1.6537 0.42142 0.55213 0.1467 1.0962 0.30674 1.643 0.46144 11.624 3.4888 22.133 9.9569 31.012 18.626 1.0909 1.0936 2.0325 1.8618 2.9127 2.4832 11.936 9.0954 28.919 8.4019 39.801-2.4806 11.045-11.042 11.685-28.484 2.0485-40.345zm-73.182 5.4599c-15.764-4.225-25.126-20.439-20.901-36.206 4.2276-15.766 20.437-25.126 36.203-20.903 15.774 4.2276 25.131 20.437 20.903 36.203-4.225 15.769-20.431 25.131-36.206 20.906z" fill="url(#g)" stroke-width="2.6673"/>
  <path d="m91 12c-72 0-85 15-85 87v56c0 70 13 85 85 85h74c72 0 85-15 85-85v-56c0-72-13-87-85-87zm0 4h74c68 0 80 15 80 83v56c0 66-12 81-80 81h-74c-68 0-80-15-80-81v-56c0-68 12-83 80-83z" fill="url(#linearGradient31)" style="isolation:isolate"/>
</svg>
