<svg width="256" height="256" version="1.1" xmlns="http://www.w3.org/2000/svg">
  <defs>
    <linearGradient id="b-3" x1=".5002" x2=".5002" y2="1" gradientTransform="matrix(244,0,0,228,5.981,12)" gradientUnits="userSpaceOnUse">
      <stop stop-color="#8f3f71" offset="0"/>
      <stop stop-color="#8f3f71" offset="1"/>
    </linearGradient>
    <linearGradient id="linearGradient31-7" x1=".5002" x2=".5002" y2="1" gradientTransform="matrix(244,0,0,228,5.986,12)" gradientUnits="userSpaceOnUse">
      <stop stop-color="#ebdbb2" stop-opacity=".2" offset="0"/>
      <stop stop-color="#ebdbb2" stop-opacity=".05" offset=".1"/>
      <stop stop-opacity="0" offset=".7036"/>
      <stop stop-opacity=".1" offset=".8975"/>
      <stop stop-opacity=".2" offset="1"/>
    </linearGradient>
  </defs>
  <path d="m165 12c72 0 85 15 85 87v56c0 70-13 85-85 85h-74c-72 0-85-15-85-85v-56c0-72 13-87 85-87z" fill="url(#b-3)" style="isolation:isolate"/>
  <path d="m139.42 181.25h-24.151l-7.5644-19.786h-38.264l-7.5644 19.786h-24.151l40.154-101.84h21.241zm-62.706-40.154h23.57l-8.7299-21.969q-2.0371-4.9458-3.0544-8.583-0.58274 2.4729-3.0557 8.583zm108.1 41.9q-16.441 0-25.897-10.329-9.4571-10.33-9.4571-28.661 0-17.894 9.5293-28.37t25.825-10.476q14.839 0 24.15 9.0213 9.3114 9.02 9.3114 26.187 0 7.1286-0.58149 10.911h-47.574q0.29013 6.9829 4.3643 10.402 4.073 3.4192 10.33 3.4192 10.183 0 16.73-7.8558l12.221 12.22q-11.203 13.53-28.952 13.53zm-14.55-47.574h27.789q-1.6-12.366-14.113-12.366-5.673 0-9.3102 3.2736-3.6372 3.2736-4.3656 9.0923z" fill="#282828" fill-rule="evenodd" opacity=".3" stroke-width="1.2452" style="isolation:isolate"/>
  <g fill="#ebdbb2">
    <path d="m6 124v30.99c0 70.01 13 85.01 85 85.01h74c72 0 85-15 85-85.01v-30.99z" opacity=".1"/>
    <path d="m91 12-3 9e-3v228c1.028 7e-3 1.947 9e-3 3 9e-3h74c1.053 0 1.972-3e-3 3-9e-3v-228c-1.028-0.006499-1.947-0.008999-3-0.008999z" opacity=".1"/>
  </g>
  <path d="m139.42 176.05h-24.151l-7.5644-19.786h-38.264l-7.5644 19.786h-24.151l40.154-101.84h21.241zm-62.706-40.154h23.57l-8.7299-21.969q-2.0371-4.9458-3.0544-8.583-0.58274 2.4729-3.0557 8.583zm108.1 41.9q-16.441 0-25.897-10.329-9.4571-10.33-9.4571-28.661 0-17.894 9.5293-28.37t25.825-10.476q14.839 0 24.15 9.0213 9.3114 9.02 9.3114 26.187 0 7.1286-0.58149 10.911h-47.574q0.29013 6.9829 4.3643 10.402 4.073 3.4192 10.33 3.4192 10.183 0 16.73-7.8558l12.221 12.22q-11.203 13.53-28.952 13.53zm-14.55-47.574h27.789q-1.6-12.366-14.113-12.366-5.673 0-9.3102 3.2736t-4.3656 9.0923z" fill="#ebdbb2" fill-rule="evenodd" stroke-width="1.2452" style="isolation:isolate"/>
  <path d="m91 12c-72 0-85 15-85 87v56c0 70 13 85 85 85h74c72 0 85-15 85-85v-56c0-72-13-87-85-87zm0 4h74c68 0 80 15 80 83v56c0 66-12 81-80 81h-74c-68 0-80-15-80-81v-56c0-68 12-83 80-83z" fill="url(#linearGradient31-7)" style="isolation:isolate"/>
</svg>
