<svg width="256" height="256" version="1.1" xmlns="http://www.w3.org/2000/svg" xmlns:xlink="http://www.w3.org/1999/xlink">
  <defs>
    <linearGradient id="linearGradient31" x1=".5002" x2=".5002" y2="1" gradientTransform="matrix(244,0,0,228,5.986,12)" gradientUnits="userSpaceOnUse">
      <stop stop-color="#ebdbb2" stop-opacity=".2" offset="0"/>
      <stop stop-color="#ebdbb2" stop-opacity=".1" offset=".1"/>
      <stop stop-opacity="0" offset=".7036"/>
      <stop stop-opacity=".1" offset=".8975"/>
      <stop stop-opacity=".2" offset="1"/>
    </linearGradient>
    <linearGradient id="linearGradient43" x1="128" x2="128" y1="12" y2="240" gradientUnits="userSpaceOnUse">
      <stop stop-color="#504945" offset="0"/>
      <stop stop-color="#3c3836" offset="1"/>
    </linearGradient>
  </defs>
  <path d="m165 12c72 0 85 15 85 87v56c0 70-13 85-85 85h-74c-72 0-85-15-85-85v-56c0-72 13-87 85-87z" fill="url(#linearGradient43)" style="isolation:isolate"/>
  <path d="m127.95 52.051c-13.724 22.975-21.646 49.776-21.646 78.5 0 1.6612 0.0314 3.315 0.084 4.9629-10.356-14.806-23.637-26.614-38.539-35.291-2.1157 18.565 0.22674 38.453 8.6035 56.697-8.9287-3.7363-18.252-6.0345-27.646-7.0039 5.0684 15.775 14.686 30.937 29.117 41.756 18.376 13.955 33.257 15.606 49.998 17.328 0.01 0.0168 0.0193 0.034 0.0293 0.0508 8e-3 -0.0128 0.0139-0.0263 0.0215-0.0391 5e-3 3e-3 0.0103 7e-3 0.0156 0.01 2.3e-4 -7e-3 -2.3e-4 -0.0143 0-0.0215 16.74-1.7219 31.619-3.3756 49.994-17.328 14.432-10.819 24.047-25.981 29.117-41.756-9.371 0.96706-18.671 3.2585-27.58 6.9785 8.4068-18.266 10.761-38.184 8.6406-56.775l0.0273-0.0195c-14.856 8.6444-28.1 20.404-38.443 35.139 0.0481-1.5572 0.082-3.1181 0.082-4.6875 0-28.724-8.1497-55.525-21.875-78.5zm79.148 97.865c9e-3 -9.4e-4 0.0182-3e-3 0.0274-4e-3l-0.0274 2e-3zm-158.29 0v-2e-3l-0.02734-2e-3c0.0091 9.4e-4 0.0182 3e-3 0.02734 4e-3z" fill="#282828" stroke-width="1.1056" style="isolation:isolate"/>
  <path d="m48.853 145.36c5.0682 15.775 14.686 30.938 29.118 41.758 18.381 13.959 33.264 15.607 50.011 17.33-6.4425-15.565-16.876-29.768-31.336-40.57-14.483-10.825-31.04-16.793-47.82-18.52" fill="#458588" stroke-width="1.1056" style="isolation:isolate"/>
  <path d="m48.826 145.36c0.0091 9.4e-4 0.0182 3e-3 0.02734 4e-3v-2e-3zm0.02734 4e-3c0.51218 1.5941 1.0841 3.1801 1.6895 4.7578 16.182 1.9516 32.097 7.8623 46.078 18.312 12.961 9.6828 22.677 22.104 29.193 35.783 0.72496 0.076 1.4364 0.15717 2.168 0.23242-6.4425-15.565-16.876-29.768-31.336-40.57-14.475-10.819-31.022-16.785-47.793-18.516z" fill="#ebdbb2" opacity=".3" stroke-width="1.1056" style="isolation:isolate"/>
  <path d="m67.896 95.671c-2.3616 20.723 0.80711 43.102 11.753 62.993 13.85 25.541 30.067 35.148 48.386 45.806 0.67886-21.195-3.9261-42.895-14.913-62.783-11.003-19.926-26.901-35.355-45.254-46.034" fill="#b8bb26" stroke-width="1.1056" style="isolation:isolate"/>
  <path d="m67.896 95.671c-0.57442 5.0404-0.81539 10.179-0.70312 15.355 0.0687-3.6262 0.29858-7.2276 0.70312-10.777 18.34 10.679 34.227 26.103 45.225 46.018 9.8929 17.908 14.598 37.285 14.943 56.439 0.37456-20.633-4.2611-41.682-14.943-61.02-10.997-19.915-26.885-35.337-45.225-46.016z" fill="#ebdbb2" opacity=".4" stroke-width="1.1056" style="isolation:isolate"/>
  <path d="m207.15 145.36c-5.0704 15.775-14.685 30.938-29.118 41.758-18.381 13.958-33.264 15.607-50.011 17.33 6.4414-15.565 16.875-29.768 31.335-40.57 14.485-10.825 31.041-16.793 47.821-18.52" fill="#fb4934" stroke-width="1.1056" style="isolation:isolate"/>
  <path d="m207.2 145.36-0.0274 2e-3v2e-3c9e-3 -9.4e-4 0.0182-3e-3 0.0274-4e-3zm-0.0274 4e-3c-16.771 1.7307-33.318 7.6963-47.795 18.516-14.459 10.802-24.893 25.005-31.334 40.57 0.70331-0.0723 1.3868-0.15161 2.084-0.22461 6.516-13.685 16.234-26.109 29.199-35.795 14.007-10.468 29.94-16.383 46.15-18.324 0.60339-1.573 1.1845-3.1534 1.6953-4.7426z" fill="#ebdbb2" opacity=".3" stroke-width="1.1056" style="isolation:isolate"/>
  <path d="m128 47.5c-13.724 22.975-21.647 49.776-21.647 78.5 0 28.724 7.923 55.5 21.647 78.5 13.725-23 21.875-49.749 21.875-78.5 0-28.724-8.1496-55.525-21.875-78.5z" fill="#fabd2f" stroke-width="1.1056" style="isolation:isolate"/>
  <path d="m128 47.5c-13.724 22.975-21.646 49.776-21.646 78.5 0 0.24582 0.0106 0.48885 0.0117 0.73438 0.66938-27.28 8.4682-52.73 21.582-74.684 13.603 22.77 21.717 49.3 21.861 77.734 0.0315-1.2593 0.0664-2.5179 0.0664-3.7852 0-28.724-8.1497-55.525-21.875-78.5z" fill="#ebdbb2" opacity=".5" stroke-width="1.1056" style="isolation:isolate"/>
  <path d="m188.21 95.567c2.3638 20.723-0.806 43.102-11.753 62.995-13.849 25.54-30.067 35.148-48.385 45.806-0.67886-21.196 3.9261-42.896 14.914-62.785 11.001-19.926 26.899-35.355 45.252-46.034" fill="#fe8019" stroke-width="1.1056" style="isolation:isolate"/>
  <path d="m188.23 95.548c-18.354 10.679-34.251 26.109-45.252 46.035-10.687 19.343-15.319 40.4-14.941 61.041 0.34909-19.148 5.0513-38.517 14.941-56.418 10.995-19.916 26.883-35.339 45.225-46.018 0.40507 3.5511 0.63433 7.1538 0.70313 10.781 0.11459-5.1926-0.12643-10.347-0.70313-15.402z" fill="#ebdbb2" opacity=".3" stroke-width="1.1056" style="isolation:isolate"/>
  <path d="m91 12c-72 0-85 15-85 87v56c0 70 13 85 85 85h74c72 0 85-15 85-85v-56c0-72-13-87-85-87zm0 4h74c68 0 80 15 80 83v56c0 66-12 81-80 81h-74c-68 0-80-15-80-81v-56c0-68 12-83 80-83z" fill="url(#linearGradient31)" style="isolation:isolate"/>
</svg>
