<svg width="256" height="256" version="1.1" xmlns="http://www.w3.org/2000/svg">
  <linearGradient id="b" x1=".5002" x2=".5002" y2="1" gradientTransform="matrix(244,0,0,228,5.981,12)" gradientUnits="userSpaceOnUse">
    <stop stop-color="#ebdbb2" offset="0"/>
    <stop stop-color="#ebdbb2" offset="1"/>
  </linearGradient>
  <defs>
    <linearGradient id="linearGradient31" x1=".5002" x2=".5002" y2="1" gradientTransform="matrix(244,0,0,228,5.988,12)" gradientUnits="userSpaceOnUse">
      <stop stop-color="#282828" stop-opacity=".1" offset="0"/>
      <stop stop-color="#bdae93" stop-opacity=".1" offset=".1"/>
      <stop stop-color="#d5c4a1" stop-opacity="0" offset=".7022"/>
      <stop stop-color="#bdae93" stop-opacity=".302" offset=".9"/>
      <stop stop-color="#282828" stop-opacity=".15" offset="1"/>
    </linearGradient>
    <linearGradient id="linearGradient7" x1="4.753" x2="70.61" y1="8.636" y2="59.75" gradientTransform="matrix(3.2927 0 0 3.2927 48.952 46.485)" gradientUnits="userSpaceOnUse">
      <stop stop-color="#8f3f71" offset="0"/>
      <stop stop-color="#d3869b" offset="1"/>
    </linearGradient>
  </defs>
  <path d="m165 12c72 0 85 15 85 87v56c0 70-13 85-85 85h-74c-72 0-85-15-85-85v-56c0-72 13-87 85-87z" fill="url(#b)" style="isolation:isolate"/>
  <path d="m61.225 78.321c14.225-8.1003 33.787-12.051 50.579-12.051 49.2 0 80.409 22.913 80.409 53.942 0 24.695-21.534 39.907-50.187 39.907-23.115 0-40.31-8.496-40.31-19.752 0-10.672 10.863-15.806 26.276-9.8782l3.9515-12.051c-23.91-7.7057-43.663 3.1612-43.663 21.927s23.316 32.206 54.525 32.206c37.149 0 64.21-20.548 64.21-52.361 0-39.716-37.542-68.761-95.228-68.761-18.575 0-39.515 4.7418-56.7 14.024zm133.55 104.32c-13.95 7.9422-33.023 11.892-49.592 12.051-0.33108 3e-3 -0.6612 4e-3 -0.99016 4e-3 -49.2 0-80.409-22.913-80.409-53.942 0-24.695 21.534-39.907 50.187-39.907 23.115 0 40.31 8.496 40.31 19.752 0 10.672-10.863 15.806-26.276 9.8782l-3.9515 12.051c23.91 7.7057 43.663-3.1612 43.663-21.927s-23.316-32.206-54.525-32.206c-37.139 0-64.21 20.548-64.21 52.361 0 39.716 37.542 68.761 95.228 68.761 18.575 0 39.515-4.7418 56.7-14.024z" fill="#fbf1c7" opacity=".4" stroke-width="3.2927"/>
  <path d="m61.225 73.355c14.225-8.1003 33.787-12.051 50.579-12.051 49.2 0 80.409 22.913 80.409 53.942 0 24.695-21.534 39.907-50.187 39.907-23.115 0-40.31-8.496-40.31-19.752 0-10.672 10.863-15.806 26.276-9.8782l3.9515-12.051c-23.91-7.7057-43.663 3.1612-43.663 21.927s23.316 32.206 54.525 32.206c37.149 0 64.21-20.548 64.21-52.361 0-39.716-37.542-68.761-95.228-68.761-18.575 0-39.515 4.7418-56.7 14.024zm133.55 104.32c-13.95 7.9422-33.023 11.892-49.592 12.051-0.33108 3e-3 -0.6612 4e-3 -0.99016 4e-3 -49.2 0-80.409-22.913-80.409-53.942 0-24.695 21.534-39.907 50.187-39.907 23.115 0 40.31 8.496 40.31 19.752 0 10.672-10.863 15.806-26.276 9.8782l-3.9515 12.051c23.91 7.7057 43.663-3.1612 43.663-21.927 0-18.766-23.316-32.206-54.525-32.206-37.139 0-64.21 20.548-64.21 52.361 0 39.716 37.542 68.761 95.228 68.761 18.575 0 39.515-4.7418 56.7-14.024z" fill="url(#linearGradient7)" stroke-width="3.2927"/>
  <path d="m111.79 46.484c-18.575 0-39.514 4.7414-56.699 14.023l1.9023 3.9824c16.815-8.6249 36.899-13.041 54.797-13.041 56.542 0 93.705 27.912 95.158 66.418 0.0414-0.86662 0.0703-1.7388 0.0703-2.623-1e-5 -39.716-37.542-68.76-95.229-68.76zm1.4082 36.945c-37.139 0-64.211 20.548-64.211 52.361 0 0.78803 0.04089 1.5643 0.07031 2.3438 1.4492-30.315 28.033-49.74 64.141-49.74 29.868 0 52.491 12.315 54.381 29.822 0.0853-0.84448 0.14453-1.7017 0.14453-2.582 0-18.766-23.317-32.205-54.525-32.205zm1.8379 27.58c-15.643 0.68511-26.754 10.316-26.754 24.391 0 0.8067 0.05958 1.5984 0.14453 2.3848 1.6953-16.777 19.91-26.217 42.025-19.76l1.4942-4.5527c-5.9776-1.9264-11.696-2.6913-16.91-2.4629zm77.102 6.7207c-1.3979 23.227-22.431 37.424-50.109 37.424-21.49 0-37.841-7.3482-40.037-17.426-0.16039 0.84123-0.27344 1.7119-0.27344 2.6406 0 11.256 17.196 19.752 40.311 19.752 28.652 0 50.188-15.213 50.188-39.908 0-0.83439-0.0332-1.66-0.0781-2.4824zm-38.121 0.54102c-1.6224 8.5174-11.236 12.347-24.555 7.7422l-1.4687 4.4766c-0.49259-0.18944-0.96614-0.33493-1.4492-0.50196l-2.4844 7.5742c0.50322 0.16218 0.9928 0.26824 1.4922 0.41406l2.4609-7.5c15.413 5.9278 26.275 0.79472 26.275-9.877 0-0.7912-0.10549-1.5662-0.2715-2.3281zm-90.148 19.998c-0.04926 0.81779-0.07813 1.6444-0.07813 2.4844 0 31.028 31.21 53.941 80.41 53.941 0.32896 0 0.65915-9e-4 0.99023-4e-3 16.57-0.15912 35.642-4.1086 49.592-12.051l4.2324 8.8691c0.63504-0.32575 1.275-0.64464 1.9004-0.98242l-6.1328-12.851c-13.95 7.9422-33.022 11.892-49.592 12.051-0.33108 3e-3 -0.66127 4e-3 -0.99023 4e-3 -47.877 0-78.708-21.702-80.332-51.461z" fill="#282828" opacity=".3"/>
  <path d="m91 12c-72 0-85 15-85 87v56c0 70 13 85 85 85h74c72 0 85-15 85-85v-56c0-72-13-87-85-87zm0 4h74c68 0 80 15 80 83v56c0 66-12 81-80 81h-74c-68 0-80-15-80-81v-56c0-68 12-83 80-83z" fill="url(#linearGradient31)" style="isolation:isolate"/>
</svg>
