<svg width="256" height="256" version="1.1" xmlns="http://www.w3.org/2000/svg">
  <defs>
    <linearGradient id="linearGradient31" x1=".5002" x2=".5002" y2="1" gradientTransform="matrix(244,0,0,228,5.986,12)" gradientUnits="userSpaceOnUse">
      <stop stop-color="#ebdbb2" stop-opacity=".2" offset="0"/>
      <stop stop-color="#ebdbb2" stop-opacity=".05" offset=".1"/>
      <stop stop-opacity="0" offset=".7036"/>
      <stop stop-opacity=".1" offset=".8975"/>
      <stop stop-opacity=".2" offset="1"/>
    </linearGradient>
    <linearGradient id="linearGradient6" x1="140" x2="140" y1="12" y2="240" gradientUnits="userSpaceOnUse">
      <stop stop-color="#504945" offset="0"/>
      <stop stop-color="#3c3836" offset="1"/>
    </linearGradient>
  </defs>
  <path d="m165 12c72 0 85 15 85 87v56c0 70-13 85-85 85h-74c-72 0-85-15-85-85v-56c0-72 13-87 85-87z" fill="url(#linearGradient6)" style="isolation:isolate"/>
  <path d="m185.19 106.25c0 57.479-32.678 106.75-57.186 106.75s-57.186-49.269-57.186-106.75c0-31.746 25.603-57.48 57.186-57.48s57.186 25.735 57.186 57.48z" fill="#282828" opacity=".3" stroke-width="1.1528" style="isolation:isolate"/>
  <path d="m185.19 101.37c0 57.479-32.678 106.75-57.186 106.75s-57.186-49.269-57.186-106.75c0-31.746 25.603-57.48 57.186-57.48 31.583 0 57.186 25.735 57.186 57.48z" fill="#458588" stroke-width="1.1528" style="isolation:isolate"/>
  <path d="m84.06 133.01c-1.6421 0.0564-1.6314 0.95566-1.396 3.6972 0.74011 8.6151 3.3588 14.755 9.1033 21.343 6.1815 7.0888 15.936 11.994 25.761 12.954 2.4071 0.23402 2.8723 0.17337 3.0982-0.40305 0.61792-1.5874-4.8698-15.406-8.1554-20.53-6.1365-9.5708-14.52-15.173-25.013-16.709-1.5642-0.22912-2.6513-0.37687-3.3977-0.35124zm87.892 0c-0.7464-0.0256-1.8357 0.12212-3.4 0.35124-10.493 1.5367-18.877 7.1385-25.013 16.709-3.2856 5.1243-8.7733 18.943-8.1554 20.53 0.22596 0.57642 0.69338 0.63707 3.1005 0.40305 9.8244-0.95916 19.577-5.8649 25.759-12.954 5.7446-6.5884 8.3632-12.728 9.1033-21.343 0.2354-2.7415 0.24831-3.6408-1.3938-3.6972z" fill="#282828" opacity=".3" stroke-width="1.1528" style="isolation:isolate"/>
  <path d="m84.06 128.01c-1.6421 0.0564-1.6314 0.95566-1.396 3.6972 0.74012 8.6151 3.3588 14.755 9.1033 21.343 6.1815 7.0888 15.936 11.994 25.761 12.954 2.4071 0.23402 2.8723 0.17337 3.0982-0.40305 0.61792-1.5874-4.8698-15.406-8.1554-20.53-6.1365-9.5708-14.52-15.173-25.013-16.709-1.5642-0.22912-2.6513-0.37687-3.3977-0.35124zm87.892 0c-0.7464-0.0256-1.8357 0.12212-3.4 0.35124-10.493 1.5367-18.877 7.1385-25.013 16.709-3.2856 5.1243-8.7733 18.943-8.1554 20.53 0.22596 0.57642 0.69338 0.63707 3.1005 0.40305 9.8244-0.95916 19.577-5.8649 25.759-12.954 5.7446-6.5884 8.3632-12.728 9.1033-21.343 0.2354-2.7415 0.24831-3.6408-1.3938-3.6972z" fill="#ebdbb2" stroke-width="1.1528" style="isolation:isolate"/>
  <path d="m128 43.887c-31.583 0-57.186 25.735-57.186 57.48 0 0.96418 0.03258 1.9195 0.05078 2.8789 1.0538-30.814 26.221-55.475 57.135-55.475s56.081 24.66 57.135 55.475c0.0182-0.95936 0.0508-1.9147 0.0508-2.8789 0-31.746-25.603-57.48-57.186-57.48z" fill="#ebdbb2" opacity=".2" stroke-width="1.1528" style="isolation:isolate"/>
  <path d="m91 12c-72 0-85 15-85 87v56c0 70 13 85 85 85h74c72 0 85-15 85-85v-56c0-72-13-87-85-87zm0 4h74c68 0 80 15 80 83v56c0 66-12 81-80 81h-74c-68 0-80-15-80-81v-56c0-68 12-83 80-83z" fill="url(#linearGradient31)" style="isolation:isolate"/>
</svg>
