<svg width="256" height="256" version="1.1" xmlns="http://www.w3.org/2000/svg">
  <linearGradient id="b" x1=".5002" x2=".5002" y2="1" gradientTransform="matrix(244,0,0,228,5.981,12)" gradientUnits="userSpaceOnUse">
    <stop stop-color="#83a598" offset="0"/>
    <stop stop-color="#458588" offset="1"/>
  </linearGradient>
  <path d="m165 12c72 0 85 15 85 87v56c0 70-13 85-85 85h-74c-72 0-85-15-85-85v-56c0-72 13-87 85-87z" fill="url(#b)" style="isolation:isolate"/>
  <g fill="none">
    <path d="m6 126v29.01c0 69.99 13 84.99 85 84.99h74c72 0 85-15 85-84.99v-29.01z" fill="#ebdbb2" opacity=".25" stroke-width=".9999"/>
  </g>
  <g transform="matrix(.9015 0 0 .9015 4.55 35.51)">
    <path d="m220.6 105h-167.6s-9.437 0-9.011-8.946c4.522-47.13 44.41-84 92.95-84 48.39 0 88.18 36.63 92.91 83.55 0.4709 9.392-9.237 9.392-9.237 9.392z" fill="#282828" opacity=".2" stroke-width="4.647"/>
    <path d="m85.82 30.67-18.59-27.88" fill="none" stroke="#427b58" stroke-linecap="round" stroke-width="18.59"/>
    <path d="m188.1 30.67 18.59-27.88" fill="none" stroke="#427b58" stroke-linecap="round" stroke-width="18.59"/>
    <path d="m67.14-6.618a9.295 9.295 0 0 0-8.968 11.62 9.295 9.295 0 0 1 8.968-6.971 9.295 9.295 0 0 1 7.833 4.248l18.59 27.88a9.295 9.295 0 0 1 1.343 2.95 9.295 9.295 0 0 0-1.343-7.597l-18.59-27.88a9.295 9.295 0 0 0-7.833-4.248zm139.3 0a9.295 9.295 0 0 0-7.552 4.248l-18.59 27.88a9.295 9.295 0 0 0-1.334 7.588 9.295 9.295 0 0 1 1.334-2.941l18.59-27.88a9.295 9.295 0 0 1 7.552-4.248 9.295 9.295 0 0 1 9.24 6.971 9.295 9.295 0 0 0-9.24-11.62z" fill="#ebdbb2" opacity=".1" stroke-width="4.647"/>
    <path d="m220.6 100.4h-167.6s-9.437 0-9.011-8.946c4.522-47.13 44.41-84 92.95-84 48.39 0 88.18 36.63 92.91 83.55 0.4709 9.392-9.237 9.392-9.237 9.392z" fill="#8ec07c" stroke-width="4.647"/>
    <path d="m90.47 58.55a9.294 9.294 0 0 0-9.294 9.294 9.294 9.294 0 0 0 9.294 9.294 9.294 9.294 0 0 0 9.294-9.294 9.294 9.294 0 0 0-9.294-9.294zm92.94 0a9.294 9.294 0 0 0-9.294 9.294 9.294 9.294 0 0 0 9.294 9.294 9.294 9.294 0 0 0 9.294-9.294 9.294 9.294 0 0 0-9.294-9.294z" fill="#282828" opacity=".2" stroke-width="4.647"/>
    <circle cx="90.47" cy="63.2" r="9.294" fill="#ebdbb2" stroke-width="4.647"/>
    <circle transform="scale(-1,1)" cx="-183.4" cy="63.2" r="9.294" fill="#ebdbb2" stroke-width="4.647"/>
    <path d="m137 7.433c-48.54 0-88.42 36.86-92.94 83.99-0.05172 1.084 0.05056 2.031 0.2542 2.868 5.352-46.27 44.77-82.22 92.69-82.22 47.81 0 87.17 35.78 92.66 81.9 0.2034-0.8744 0.3017-1.865 0.245-2.995-4.73-46.92-44.52-83.55-92.91-83.55z" fill="#ebdbb2" opacity=".2" stroke-width="4.647"/>
  </g>
  <g transform="matrix(1.138 0 0 1.138 -12.83 -17.65)" style="isolation:isolate">
    <path d="m129.4 99.6-14.86 8.581 47.2 81.75 16.01 10.57-1.15-19.16z" opacity=".1"/>
    <path d="m129.4 96.64-14.86 8.581 47.2 81.75 16.01 10.57-1.15-19.16z" fill="#ebdbb2"/>
    <path d="m114.4 99.6-47.2 81.75-1.156 19.15 16.02-10.58 8.577-14.85c9.606 4.981 20.28 7.656 31.19 7.676 37.59 0 68.06-30.47 68.06-68.06a66.49 66.49 0 0 0-0.15-2.96h-17.71c0.064 0.986 0.099 1.972 0.104 2.96 0 27.78-22.52 50.31-50.31 50.31-7.844 0-15.43-1.94-22.29-5.352l29.72-51.46z" opacity=".2"/>
    <path d="m114.4 96.64 14.86 8.581-47.2 81.75-16.01 10.57 1.15-19.16z" fill="#ebdbb2"/>
    <path d="m113 58.46v17.76h-8.877c-8.878 0-8.878 8.533-8.878 8.533v35.32l17.76 17.44c5.898 4.682 12.28 5.448 17.76 0l17.76-17.44v-35.32c0-8.722-8.878-8.533-8.878-8.533h-8.877v-17.76z" opacity=".1"/>
    <path d="m113 55.5v17.76h-8.877c-8.878 0-8.878 8.533-8.878 8.533v35.32l17.76 17.44c5.898 4.682 12.28 5.448 17.76 0l17.76-17.44v-35.32c0-8.722-8.878-8.533-8.878-8.533h-8.877v-17.76z" fill="#282828"/>
    <circle cx="121.9" cy="102.8" r="8.878" opacity=".2" vector-effect="non-scaling-stroke"/>
    <circle cx="121.9" cy="99.89" r="8.878" fill="#ebdbb2" vector-effect="non-scaling-stroke"/>
    <path d="m172.1 108.8c0.064 0.985 0.099 1.972 0.104 2.959 0 27.78-22.52 50.31-50.31 50.31a50.18 50.18 0 0 1-26.68-7.704c-4.394-2.759-2.461-0.071-5.869-4.133l-5.918 17.59a68.06 68.06 0 0 0 38.47 12c37.59 0 68.06-30.47 68.06-68.06a66.44 66.44 0 0 0-0.15-2.959z" fill="#ebdbb2"/>
  </g>
  <defs>
    <linearGradient id="linearGradient31-3" x1=".5002" x2=".5002" y2="1" gradientTransform="matrix(244 0 0 228 5.988 12)" gradientUnits="userSpaceOnUse">
      <stop stop-color="#282828" stop-opacity=".1" offset="0"/>
      <stop stop-color="#bdae93" stop-opacity=".1" offset=".1"/>
      <stop stop-color="#d5c4a1" stop-opacity="0" offset=".7022"/>
      <stop stop-color="#bdae93" stop-opacity=".302" offset=".9"/>
      <stop stop-color="#282828" stop-opacity=".3" offset="1"/>
    </linearGradient>
  </defs>
  <path d="m91 12c-72 0-85 15-85 87v56c0 70 13 85 85 85h74c72 0 85-15 85-85v-56c0-72-13-87-85-87zm0 4h74c68 0 80 15 80 83v56c0 66-12 81-80 81h-74c-68 0-80-15-80-81v-56c0-68 12-83 80-83z" fill="url(#linearGradient31-3)" style="isolation:isolate"/>
</svg>
