<svg width="256" height="256" version="1.1" xmlns="http://www.w3.org/2000/svg">
  <defs>
    <linearGradient id="linearGradient31" x1=".5002" x2=".5002" y2="1" gradientTransform="matrix(244 0 0 228 5.913 11.952)" gradientUnits="userSpaceOnUse">
      <stop stop-color="#282828" stop-opacity=".1" offset="0"/>
      <stop stop-color="#bdae92" stop-opacity=".1" offset=".1"/>
      <stop stop-opacity="0" offset=".7036"/>
      <stop stop-opacity=".1" offset=".8975"/>
      <stop stop-opacity=".2" offset="1"/>
    </linearGradient>
    <linearGradient id="linear-gradient-2" x1="-73.27" x2="81.91" y1="32.23" y2="7.67" gradientTransform="matrix(2.023 -.4214 .4214 2.023 -.17991 19.952)" gradientUnits="userSpaceOnUse">
      <stop stop-color="#ebdbb2" offset=".19"/>
      <stop stop-color="#458588" offset=".9"/>
    </linearGradient>
    <linearGradient id="linear-gradient-3" x1="83.87" x2="20.45" y1="-780.9" y2="-692.4" gradientTransform="matrix(2.023 -.4214 -.4214 -2.023 -312.14 -1301)" gradientUnits="userSpaceOnUse">
      <stop stop-color="#8ec07c" offset=".09"/>
      <stop stop-color="#83a598" offset=".48"/>
      <stop stop-color="#458588" offset=".9"/>
    </linearGradient>
    <linearGradient id="linearGradient7" x1="37.7" x2="128" y1="-754.5" y2="-754.5" gradientTransform="matrix(1 0 0 -1 0 -648.9)" gradientUnits="userSpaceOnUse">
      <stop stop-color="#83a598" offset=".19"/>
      <stop stop-color="#458588" offset=".9"/>
    </linearGradient>
  </defs>
  <path d="m142.8 12-4.885 37.44 112.1 104.8v-55.21c0-72-13-87-85-87h-22.21z" fill="#458588" stroke-width="2.066"/>
  <path transform="matrix(2.023 -.4214 .4214 2.023 -26.25 21.37)" d="m119 84.47-65.16-1.266-27.39 30.23c2.358 0.5958 4.84 1.158 7.564 1.725l35.06 7.303c34.11 7.106 41.75 1.283 48.66-31.88z" fill="url(#linearGradient7)"/>
  <path d="m90.927 11.952c-68.83 0-83.88 13.8-84.92 77.91l53.86 82.46 104.1-124.3-16.97-36.07z" fill="url(#linear-gradient-2)" stroke-width="2.066"/>
  <path d="m137.66 12.041-131.6 77.91c-0.1434 4.499-0.07786 4.047-0.07786 9.091v56c0 70 13 85 85 85h22.43l135.1-52.49c1.101-9.245 1.511-19.96 1.511-32.51v-12.37l-66.56-130.2c-5.714-0.2934-11.74-0.4785-18.44-0.4785z" fill="url(#linear-gradient-3)" stroke-width="2.066"/>
  <path d="m204.2 54.25h-152.5v152.5h152.5z" fill="#ebdbb2" opacity=".2" stroke-width="3.812"/>
  <rect x="52" y="49.017" width="152" height="152" fill="#32302f" stroke-linecap="square" stroke-linejoin="round" stroke-miterlimit="0" stroke-width="9.9342" style="paint-order:markers fill stroke"/>
  <path d="m162.44 67.959c-17.786-0.42373-32.319 14.102-31.904 31.889v0.0157c-0.22606 17.447 14.088 31.589 31.531 31.152 11.735 0 18.703-4.3988 24.936-10.998l-8.4336-8.7988c-4.7685 4.3999-9.1655 7.334-16.133 7.334-10.264 0-17.596-8.43-17.596-19.062 0-10.629 7.3298-19.064 17.596-19.064 6.2385 0 11.005 2.5669 15.771 6.9668l8.4355-9.8984c-5.8733-5.8665-12.842-9.5332-24.205-9.5332zm-66.41 1.1055-26.027 60.502h13.561l5.5-13.561h25.297l5.5 13.561h13.934l-25.67-60.502zm5.8672 16.133 8.0664 19.434h-16.131zm-31.895 89.363v11.439h61v-11.439z" fill="#1d2021"/>
  <path d="m162.44 64.959c-17.786-0.42373-32.319 14.102-31.904 31.889v0.0157c-0.22606 17.447 14.088 31.589 31.531 31.152 11.735 0 18.703-4.3988 24.936-10.998l-8.4336-8.7988c-4.7685 4.3999-9.1655 7.334-16.133 7.334-10.264 0-17.596-8.43-17.596-19.063 0-10.629 7.3298-19.064 17.596-19.064 6.2385 0 11.005 2.5669 15.771 6.9668l8.4355-9.8984c-5.8733-5.8665-12.842-9.5332-24.205-9.5332zm-66.41 1.1055-26.027 60.502h13.561l5.5-13.561h25.297l5.5 13.561h13.934l-25.67-60.502zm5.8672 16.133 8.0664 19.434h-16.131zm-31.895 89.363v11.439h61v-11.439z" fill="#ebdbb2"/>
  <path d="m162.44 64.959c-17.786-0.42373-32.319 14.102-31.904 31.889v0.0157c-5e-3 0.37813 7e-3 0.75204 0.0156 1.127 0.59711-16.929 14.726-30.44 31.889-30.031l-2e-3 2e-3c10.465 0 17.19 3.1346 22.777 8.209l1.4277-1.6758c-5.8733-5.8665-12.842-9.5332-24.205-9.5332zm-66.41 1.1055-26.027 60.502h1.291l24.736-57.502h12.094l24.396 57.502h1.2734l-25.67-60.502zm48.875 31.926c-0.0329 0.4965-0.0645 0.99283-0.0645 1.5 0 10.633 7.3316 19.062 17.596 19.062 6.9673 0 11.364-2.9341 16.133-7.334l6.9609 7.2637c0.49288-0.4832 0.99044-0.95428 1.4727-1.4648l-8.4336-8.7988c-4.7685 4.3999-9.1655 7.334-16.133 7.334-9.7749 0-16.875-7.6502-17.531-17.562zm-49.828 3.6406-1.2441 3h16.131l-1.2461-3zm-25.074 69.93v3h61v-3z" fill="#fbf1c7" opacity=".4"/>
  <path d="m51.5 49.017v4.9827h152.5v-4.9827z" fill="#1d2021" stroke-width="1.0242"/>
  <path d="m90.927 11.952c-72 0-85 15-85 87v56c0 70 13 85 85 85h74c72 0 85-15 85-85v-56c0-72-13-87-85-87zm0 4h74c68 0 80 15 80 83v56c0 66-12 81-80 81h-74c-68 0-80-15-80-81v-56c0-68 12-83 80-83z" fill="url(#linearGradient31)" style="isolation:isolate"/>
</svg>
