<svg width="256" height="256" version="1.1" xmlns="http://www.w3.org/2000/svg">
  <defs>
    <linearGradient id="linearGradient31" x1=".5002" x2=".5002" y2="1" gradientTransform="matrix(244,0,0,228,5.986,12)" gradientUnits="userSpaceOnUse">
      <stop stop-color="#ebdbb2" stop-opacity=".2" offset="0"/>
      <stop stop-color="#ebdbb2" stop-opacity=".05" offset=".1"/>
      <stop stop-opacity="0" offset=".7036"/>
      <stop stop-opacity=".1" offset=".8975"/>
      <stop stop-opacity=".2" offset="1"/>
    </linearGradient>
    <linearGradient id="linearGradient6" x1="140" x2="140" y1="12" y2="240" gradientUnits="userSpaceOnUse">
      <stop stop-color="#076678" offset="0"/>
      <stop stop-color="#076678" offset="1"/>
    </linearGradient>
  </defs>
  <path d="m165 12c72 0 85 15 85 87v56c0 70-13 85-85 85h-74c-72 0-85-15-85-85v-56c0-72 13-87 85-87z" fill="url(#linearGradient6)" style="isolation:isolate"/>
  <path d="m106.77 88.999 13.964-35.749h14.53l39.029 99.912c-7.4328 4.805-16.374 7.8852-25.726 9.6352l-20.568-51.422-22.354 55.885c6.9894 1.4509 14.514 2.2403 22.354 2.2403 36.758 0 66.601-17.364 66.601-38.75 0-11.771-9.0387-22.322-23.295-29.43-1.3337 1.723-3.4208 2.8332-5.7674 2.8332-4.021 0-7.2868-3.2658-7.2868-7.2868 0-4.0228 3.2658-7.2886 7.2868-7.2886 3.7524 0 6.847 2.8423 7.2435 6.4902 19.793 8.7791 32.718 23.216 32.718 39.525 0 13.869-9.3451 26.384-24.312 35.217-7.7428 4.6896-16.407 7.9428-25.409 10.012-8.6259 2.0727-17.993 3.2081-27.779 3.2081s-19.153-1.1355-27.779-3.2081l-10.971 27.428h-29.062l14.624-37.44c-14.967-8.8332-24.312-21.349-24.312-35.217 0-22.133 23.803-40.817 56.27-46.594zm89.042 119.25h-29.062l-9.1306-22.825c8.9035-2.1826 17.483-5.4664 25.355-10.041zm-91.174-113.8c-25.249 5.5097-43.24 19.69-43.24 36.295 0 10.414 7.0741 19.872 18.578 26.838z" fill="#282828" opacity=".3" stroke-width="1.8023"/>
  <path id="appimagehub-logo" d="m106.77 83.499 13.964-35.749h14.53l39.029 99.912c-7.4328 4.805-16.374 7.8852-25.726 9.6352l-20.568-51.422-22.354 55.885c6.9894 1.4509 14.514 2.2403 22.354 2.2403 36.758 0 66.601-17.364 66.601-38.75 0-11.771-9.0387-22.322-23.295-29.43-1.3337 1.723-3.4208 2.8333-5.7674 2.8333-4.021 0-7.2868-3.2658-7.2868-7.2868 0-4.0228 3.2658-7.2886 7.2868-7.2886 3.7524 0 6.847 2.8423 7.2435 6.4902 19.793 8.7791 32.718 23.216 32.718 39.525 0 13.869-9.3451 26.384-24.312 35.217-7.7428 4.6896-16.407 7.9428-25.409 10.012-8.6259 2.0727-17.993 3.2081-27.779 3.2081s-19.153-1.1355-27.779-3.2081l-10.971 27.428h-29.062l14.624-37.44c-14.967-8.8332-24.312-21.349-24.312-35.217 0-22.133 23.803-40.817 56.27-46.594zm89.042 119.25h-29.062l-9.1306-22.825c8.9035-2.1826 17.483-5.4664 25.355-10.041zm-91.174-113.8c-25.249 5.5097-43.24 19.69-43.24 36.295 0 10.414 7.0741 19.872 18.578 26.838z" fill="#ebdbb2" stroke-width="1.8023"/>
  <path d="m120.73 47.75-13.965 35.748v0.001953c-32.467 5.777-56.27 24.461-56.27 46.594 0 0.93647 0.04873 1.8656 0.13281 2.7891 1.516-17.125 17.299-31.868 40.031-39.707 4.3267-1.7094 9.0032-3.1417 13.975-4.2266l-0.20898 0.5332c0.7831-0.15651 1.5462-0.3412 2.3398-0.48242v-2e-3l13.965-35.748h14.529l37.291 95.461c0.58261-0.34585 1.1727-0.68318 1.7383-1.0488l-39.029-99.912zm44.803 36.328c-4.021 0-7.2871 3.2663-7.2871 7.2891 0 0.97425 0.19915 1.9001 0.54688 2.75 1.087-2.6595 3.6928-4.5391 6.7402-4.5391 3.7524 0 6.8476 2.8423 7.2441 6.4902 18.686 8.288 31.237 21.621 32.584 36.809 0.0837-0.92156 0.13477-1.8486 0.13477-2.7832 0-16.309-12.926-30.746-32.719-39.525-0.3965-3.6479-3.4917-6.4902-7.2441-6.4902zm-60.898 10.371c-0.80653 0.176-1.5836 0.38464-2.375 0.57812l-22.287 57.055c-10.482-6.3473-17.267-14.767-18.393-24.09-0.11006 0.90993-0.18555 1.8258-0.18555 2.752 0 10.414 7.0742 19.872 18.578 26.838zm89.775 33.553c-1.1881 9.8251-8.6931 18.628-20.152 25.078l0.0312 0.082c-7.4328 4.805-16.375 7.8848-25.727 9.6348l-0.25977-0.64844c-6.4064 1.1945-13.224 1.8516-20.309 1.8516-7.0866 0-13.892-0.67561-20.301-1.8711l-2.0527 5.1309c6.9894 1.4509 14.514 2.2402 22.354 2.2402 36.758 0 66.602-17.364 66.602-38.75 0-0.92527-0.0757-1.8389-0.18556-2.748zm-121.33 41.736-12.895 33.012h2.1484l12.475-31.939c-0.59043-0.34846-1.1558-0.71249-1.7285-1.0723zm109.89 0.14453c-1.1719 0.68104-2.3644 1.3248-3.5664 1.9492-6.6968 3.803-14.023 6.5842-21.629 8.4941l1.832 4.5762c8.1893-2.1727 16.081-5.2878 23.363-9.5195l10.689 27.365h2.1484z" fill="#fbf1c7" opacity=".6"/>
  <path d="m91 12c-72 0-85 15-85 87v56c0 70 13 85 85 85h74c72 0 85-15 85-85v-56c0-72-13-87-85-87zm0 4h74c68 0 80 15 80 83v56c0 66-12 81-80 81h-74c-68 0-80-15-80-81v-56c0-68 12-83 80-83z" fill="url(#linearGradient31)" style="isolation:isolate"/>
</svg>
