<svg width="256" height="256" version="1.1" xmlns="http://www.w3.org/2000/svg">
  <defs>
    <linearGradient id="linearGradient31" x1=".5002" x2=".5002" y2="1" gradientTransform="matrix(244,0,0,228,5.986,12)" gradientUnits="userSpaceOnUse">
      <stop stop-color="#ebdbb2" stop-opacity=".4" offset="0"/>
      <stop stop-color="#ebdbb2" stop-opacity=".2" offset=".1"/>
      <stop stop-opacity="0" offset=".7036"/>
      <stop stop-opacity=".1" offset=".8975"/>
      <stop stop-opacity=".2" offset="1"/>
    </linearGradient>
    <linearGradient id="linearGradient8" x1="140" x2="140" y1="12" y2="240" gradientTransform="matrix(.92073 0 0 .92073 10.146 9.9876)" gradientUnits="userSpaceOnUse">
      <stop stop-color="#504945" offset="0"/>
      <stop stop-color="#3c3836" offset="1"/>
    </linearGradient>
    <linearGradient id="linearGradient9" x1="140" x2="140" y1="12" y2="240" gradientUnits="userSpaceOnUse">
      <stop stop-color="#fabd2f" offset="0"/>
      <stop stop-color="#d79921" offset="1"/>
    </linearGradient>
  </defs>
  <path d="m165 12c72 0 85 15 85 87v56c0 70-13 85-85 85h-74c-72 0-85-15-85-85v-56c0-72 13-87 85-87z" fill="url(#linearGradient9)" style="isolation:isolate"/>
  <path d="m162.07 21.036c66.293 0 78.262 13.811 78.262 80.104v51.561c0 64.451-11.97 78.262-78.262 78.262h-68.134c-66.293 0-78.262-13.811-78.262-78.262v-51.561c0-66.293 11.97-80.104 78.262-80.104z" fill="url(#linearGradient8)" stroke-width=".92073" style="isolation:isolate"/>
  <path d="m118 225.96h20v5h-20z" fill="#458588" style="isolation:isolate"/>
  <path d="m142.34 225.96h20v5h-20z" fill="#ebdbb2" style="isolation:isolate"/>
  <path d="m171.5 132.75v58h-29v7.25h65.25v-7.25h-29v-36.25h29v-7.25h-29v-14.5zm-108.75 0v36.25h21.75v7.25h-36.25v7.25h36.25v14.5h7.25v-14.5h36.25v-7.25h-36.25v-7.25h21.75v-36.25zm7.25 7.25h36.25v7.25h-36.25zm0 14.5h36.25v7.25h-36.25zm87-65.235v21.73h15.738c4.7488 0 8.2605-0.97603 10.532-2.9281 2.3019-1.982 3.4528-4.9971 3.4528-9.0471 0-4.079-1.1509-4.9037-3.4528-6.8268-2.272-1.9521-5.7837-2.9281-10.532-2.9281h-15.738m0-29.01v21.842h16.094c4.3119 0 7.762-0.80113 9.86-2.4034 2.127-1.6322 3.19-6.2848 3.1909-9.6062 0-3.2924-1.0639-5.7538-3.1909-7.3859-2.098-1.6322-5.5481-2.4469-9.86-2.4469zm-7.25-7.2554h22.551c6.7298 0 11.916 1.3983 15.558 4.1959 3.6422 2.7967 5.4629 6.7742 5.4629 11.931 0 3.992-0.93254 9.3443-2.7976 11.704-1.8642 2.3599-4.6028 3.8316-8.2161 4.4134 9.0408 2.2448 13.519 8.4925 13.723 14.737 0 5.8272-1.9811 10.329-5.9441 13.505-3.9621 3.1755-9.5999 4.7632-16.913 4.7632h-23.425zm-50.961 36.77c-6.2241-17.993-10.015-27.289-10.664-29.52 0 0-3.2308 9.2963-10.399 29.52zm10.134 28.48-7.6551-22.096h-26.108l-7.9206 22.096h-7.7883l25.134-65.25h7.8327l24.382 65.25z" fill="#282828" opacity=".4" style="isolation:isolate"/>
  <path d="m171.5 129.75v58h-29v7.25h65.25v-7.25h-29v-36.25h29v-7.25h-29v-14.5zm-108.75 0v36.25h21.75v7.25h-36.25v7.25h36.25v14.5h7.25v-14.5h36.25v-7.25h-36.25v-7.25h21.75v-36.25zm7.25 7.25h36.25v7.25h-36.25zm0 14.5h36.25v7.25h-36.25zm87-65.235v21.73h15.738c4.7488 0 8.2605-0.97603 10.532-2.9281 2.3019-1.982 3.4528-4.9971 3.4528-9.0471 0-4.079-1.1509-4.9037-3.4528-6.8268-2.272-1.9521-5.7837-2.9281-10.532-2.9281h-15.738m0-29.01v21.842h16.094c4.3119 0 7.762-0.80113 9.86-2.4034 2.127-1.6322 3.19-6.2848 3.1909-9.6062 0-3.2924-1.0639-5.7538-3.1909-7.3859-2.098-1.6322-5.5481-2.4469-9.86-2.4469zm-7.25-7.2554h22.551c6.7298 0 11.916 1.3983 15.558 4.1959 3.6422 2.7967 5.4629 6.7742 5.4629 11.931 0 3.992-0.93254 9.3443-2.7976 11.704-1.8642 2.3599-4.6028 3.8316-8.2161 4.4134 9.0408 2.2448 13.519 8.4925 13.723 14.737 0 5.8272-1.9811 10.329-5.9441 13.505-3.9621 3.1755-9.5999 4.7632-16.913 4.7632h-23.425zm-50.961 36.77c-6.2241-17.993-10.015-27.289-10.664-29.52 0 0-3.2308 9.2963-10.399 29.52zm10.134 28.48-7.6551-22.096h-26.108l-7.9206 22.096h-7.7883l25.134-65.25h7.8327l24.382 65.25z" fill="#ebdbb2" style="isolation:isolate"/>
  <path d="m84.586 50-25.135 65.25h1.1562l23.979-62.25h7.832l23.26 62.25h1.1211l-24.381-65.25zm65.164 0v3h22.551c6.7298 0 11.917 1.3977 15.559 4.1953 3.2447 2.4915 5.0346 5.9264 5.3887 10.291 0.0213-0.45212 0.0742-0.93299 0.0742-1.3594 0-5.1568-1.8207-9.1349-5.4629-11.932-3.642-2.7976-8.8288-4.1953-15.559-4.1953zm36.275 18.695c-0.27223 3.0784-1.2652 6.6113-3.0723 7.998-2.098 1.6023-5.5475 2.4043-9.8594 2.4043h-16.094v3h16.094c4.3119 0 7.7614-0.80203 9.8594-2.4043 2.127-1.6322 3.1905-6.2841 3.1914-9.6055 0-0.49523-0.071-0.93495-0.11914-1.3926zm0.75586 15.148c-1.3037 0.6572-2.7892 1.1293-4.4727 1.4004 8.636 2.1443 13.062 7.9429 13.623 13.9 0.0645-0.70021 0.0996-1.4207 0.0996-2.1641-0.16693-5.1099-3.201-10.218-9.25-13.137zm-108 2.9258c-0.64789 1.8313-0.32816 0.94474-1.0566 3h21.062c-0.39266-1.1351-0.68742-1.9337-1.0605-3zm107.87 10.801c-0.26423 3.2766-1.3913 5.7783-3.3887 7.498-2.2715 1.9521-5.7824 2.9277-10.531 2.9277h-15.738v2.998h15.738c4.7488 0 8.2598-0.97566 10.531-2.9277 2.3019-1.982 3.4531-4.9969 3.4531-9.0469 0-0.53893-0.0243-1.0139-0.0645-1.4492zm-123.91 32.18v3h50.75v-3zm108.75 0v3h7.25v-3zm-101.5 14.5v3h36.25v-3zm108.75 0v3h29v-3zm-108.75 14.5v3h36.25v-3zm-21.75 14.5v3h36.25v-3zm43.5 0v3h36.25v-3zm50.75 14.5v3h29v-3zm36.25 0v3h29v-3z" fill="#fbf1c7" opacity=".4" style="isolation:isolate"/>
  <path d="m91 12c-72 0-85 15-85 87v56c0 70 13 85 85 85h74c72 0 85-15 85-85v-56c0-72-13-87-85-87zm0 4h74c68 0 80 15 80 83v56c0 66-12 81-80 81h-74c-68 0-80-15-80-81v-56c0-68 12-83 80-83z" fill="url(#linearGradient31)" style="isolation:isolate"/>
</svg>
