<svg width="256" height="256" version="1.1" xmlns="http://www.w3.org/2000/svg" xmlns:xlink="http://www.w3.org/1999/xlink">
  <defs>
    <linearGradient id="linearGradient31" x1=".5002" x2=".5002" y2="1" gradientTransform="matrix(244,0,0,228,5.986,12)" gradientUnits="userSpaceOnUse">
      <stop stop-color="#ebdbb2" stop-opacity=".2" offset="0"/>
      <stop stop-color="#ebdbb2" stop-opacity=".05" offset=".1"/>
      <stop stop-opacity="0" offset=".7036"/>
      <stop stop-opacity=".1" offset=".8975"/>
      <stop stop-opacity=".2" offset="1"/>
    </linearGradient>
    <linearGradient id="linearGradient6" x1="140" x2="140" y1="12" y2="240" gradientUnits="userSpaceOnUse">
      <stop stop-color="#504945" offset="0"/>
      <stop stop-color="#3c3836" offset="1"/>
    </linearGradient>
    <radialGradient id="radialGradient11" cx="124.81" cy="156.48" r="56.689" gradientTransform="matrix(1 0 0 2.7739 0 -273.99)" gradientUnits="userSpaceOnUse">
      <stop stop-color="#d5c4a1" offset="0"/>
      <stop stop-color="#ebdbb2" offset="1"/>
    </radialGradient>
    <radialGradient id="radialGradient13" cx="133.24" cy="214.46" r="82.113" gradientTransform="matrix(1 0 0 .1 0 187.48)" gradientUnits="userSpaceOnUse">
      <stop stop-color="#d5c4a1" offset="0"/>
      <stop stop-color="#d5c4a1" stop-opacity="0" offset="1"/>
    </radialGradient>
  </defs>
  <path d="m165 12c72 0 85 15 85 87v56c0 70-13 85-85 85h-74c-72 0-85-15-85-85v-56c0-72 13-87 85-87z" fill="url(#linearGradient6)" style="isolation:isolate"/>
  <ellipse cx="133.24" cy="208.92" rx="82.113" ry="8.2113" fill="url(#radialGradient13)" opacity=".3" style="paint-order:markers fill stroke"/>
  <path d="m104.66 36.683c-0.0673 0.0035-0.14247 0.02669-0.23047 0.03906-0.477 0.067-0.60311 0.25574-0.53711 0.80274 0.26737 2.225 3.3741 18.565 3.166 18.77-0.26763 0.06637-0.90735 0.20843-1.1094 0.26562-1.044 0.295-0.87755 0.62352-1.5606-4.2715-0.24-1.718-0.46977-3.1458-0.50977-3.1738-0.4176 0.07821-0.85296 0.13269-1.2598 0.28711 0.36894 2.5667 0.83094 5.1444 0.93554 7.7344-13.279 4.6409-23.841 20.035-20.396 34.285 2.5642 7.3651 25.341 5.805 34.77 3.416 6.6466-1.6254 11.488-3.9035 13.887-5.1504 5.0002-2.5596 9.0553-5.5528 11.705-8.6641-6.5406-23.547-23.177-26.372-35.057-25.039l-1.2188-7.0117c-1.9898-11.431-2.1127-12.313-2.584-12.289zm34.127 53.535c-1.0122 0.05213-1.7971 0.50189-3.3281 1.4004-12.353 6.6713-26.226 9.5643-40.203 7.6836-1.2771 0.96256-7.2118 5.513-11.408 10.631-8.792 10.719-13.247 24.593-12.375 38.541 0.47832 7.6702 3.3808 25.149 19.211 38.666 22.131 18.894 46.933 13.193 50.846 12.252 32.254-7.7619 46.26-38.617 42.664-62.271-4.0008-26.331-23.536-41.039-40.711-45.914-2.443-0.694-3.6831-1.0404-4.6953-0.98828z" fill="url(#radialGradient11)" style="isolation:isolate"/>
  <path d="m121.16 56.621c-0.40708 0.42343-0.85351 0.89258-0.85351 0.89258-6.4954 6.0693-17.951 6.2979-26.312 6.2949 0 0-0.60404-0.01115-1.1934-0.03125-1.8463 1.7201-3.5028 3.6534-4.9297 5.7441 0.30773 0.09713 0.62305 0.19141 0.62305 0.19141 1.7262 0.36567 21.974 4.2933 41.365-8.3105 0 0 0.40435-0.22675 0.85938-0.51172-3.0381-2.1532-6.2919-3.4956-9.5586-4.2695zm12.549 6.7656c-0.26574 0.18057-0.66015 0.45508-0.66015 0.45508-7.5723 5.4956-24.503 12.521-46.662 9.1289 0 0-0.24667-0.04016-0.54883-0.09375-0.2513 0.48251-0.46969 0.97735-0.69531 1.4707 0.17841 0.03844 0.40091 0.08544 0.45703 0.09961 6.5792 1.4061 13.393 1.1048 20.07 0.72266 4.4084-0.3425 8.9079-1.6703 8.9141-1.6758 6.9556-1.7538 13.803-4.2731 19.623-8.5586 0 0 0.32499-0.26766 0.59961-0.49414-0.35666-0.37923-0.73088-0.70519-1.0977-1.0547z" fill="#fbf1c7" opacity=".4" style="isolation:isolate"/>
  <path d="m120.3 56.392c-6.4954 6.0693-17.95 6.2982-26.312 6.2952-2.054 1.736-3.9014 3.7202-5.5002 5.9052 1.7262 0.36567 21.975 4.2927 41.366-8.3112-3.0633-1.9874-6.3047-3.2218-9.5539-3.8892zm12.743 6.3276c-7.5723 5.4956-24.504 12.523-46.663 9.1307-0.27423 0.49338-0.51501 0.94397-0.78705 1.4748 6.5792 1.4061 13.393 1.1052 20.071 0.72304 4.4084-0.3425 8.9079-1.6703 8.9141-1.6758 6.9556-1.7538 13.804-4.2734 19.623-8.5588-0.38011-0.37918-0.76758-0.74664-1.1582-1.0938z" fill="#fb4934" style="isolation:isolate"/>
  <path d="m120.3 56.392c-6.4954 6.0693-17.951 6.2979-26.313 6.2949-0.60916 0.51485-1.2358 1.0974-1.2358 1.0974 0.58932 0.0201 1.2358 0.02371 1.2358 0.02371 8.3619 3e-3 19.817-0.22567 26.312-6.2949 0 0 0.43998-0.51128 0.84706-0.93472 0 0-0.84706-0.18637-0.84705-0.18638zm12.742 6.3281c-7.5723 5.4956-24.503 12.523-46.662 9.1309-0.19066 0.34302-0.37746 0.68365-0.55664 1.0254 0.30073 0.05331 0.55664 0.09376 0.55664 0.09376 22.159 3.3926 39.09-3.6333 46.662-9.1289 0 0 0.42175-0.32138 0.68749-0.50195-3.3e-4 0.0084-0.32882-0.29006-0.68753-0.61914z" fill="#282828" opacity=".2" style="isolation:isolate"/>
  <path d="m129.05 86.406c2.298 0 4.164-1.84 4.164-4.106s-1.866-4.106-4.164-4.106c-2.297 0-4.163 1.84-4.163 4.106s1.866 4.106 4.163 4.106z" fill="#fbf1c7" opacity=".4" style="isolation:isolate"/>
  <path d="m129.05 85.709c2.298 0 4.164-1.84 4.164-4.106s-1.866-4.106-4.164-4.106c-2.297 0-4.163 1.84-4.163 4.106s1.866 4.106 4.163 4.106z" fill="#504945" style="isolation:isolate"/>
  <path d="m129.05 77.497c-2.297 0-4.1621 1.8395-4.1621 4.1055 0 0.1178 6e-3 0.23431 0.0156 0.34961 0.17994-2.1029 1.9687-3.7578 4.1465-3.7578 2.1788 0 3.9685 1.6549 4.1484 3.7578 0.01-0.11528 0.0156-0.23182 0.0156-0.34961 0-2.266-1.8661-4.1055-4.1641-4.1055z" opacity=".3" style="isolation:isolate"/>
  <path d="m149.95 196.47c9.817-4.046 18.316-10.979 23.891-19.489 5.5671-8.4978 8.0278-18.596 9.004-23.944-3.3508-0.93259-6.8089-1.2012-10.267-1.395-0.25515-5.2675-0.50684-10.535-0.757-15.803 3.3036-0.41004 7.0716-2.2045 9.053-4.285-3.7312-10.966-9.7353-19.593-18.036-26.118-8.7498-6.878-17.982-9.652-24.419-11.525-1.652 1.8278-5.3571 6.9885-3.481 14.947l-20.309 12.819c-9.6258-9.7872-18.642-7.6678-27.989-2.321-6.713 4.395-11.482 12.182-13.022 21.263-2.3383 13.811 4.0242 31.098 18.408 35.923 19.61 6.5792 29.587-14.145 29.587-14.145 6.9508 3.9188 14.083 8.0818 20.981 12.094-1.7777 7.8996-0.24153 15.809 3.793 22.739 0.416 0.509 0.552 0.48 3.563-0.76zm0.803-4.709c2.1961-1.2612 4.6611-2.075 7.026-2.992l-8e-3 -1.529c-0.014-2.374-0.143-2.531-2.087-2.533-2.1598-0.0187-4.3128-0.20448-6.465-0.369-0.21529-5.4338 1.5696-10.606 4.446-15.164 1.991-2.95 7.003-7.846 7.564-7.388 1.8655 2.5134 3.4714 5.2167 5.158 7.854 0.154 0.227 3.402-0.928 3.977-1.414 0.16676-0.14133-1.6392-9.7209-1.308-10.047 0.286-0.282 9.632-0.31 9.916-0.028 0.2782 0.27516-1.5541 9.6717-7.2517 18.319-5.8664 8.9039-13.374 13.923-19.317 17.45-0.70086-0.64698-1.2398-1.3302-1.65-2.159zm-28.41-31.17c-0.19376-0.12398 4.0919-8.2141 2.1437-20.185-0.79055-6.642-4.2606-12.128-8.288-17.236-0.70904-0.94469 18.96-12.524 19.107-12.435 0.38817 0.43628 1.794 7.3439 11.385 15.981 6.6328 5.9463 14.771 9.3386 23.636 9.3386 0.26484 5.213 0.49677 10.427 0.728 15.642-5.576 0.54679-10.842 2.4559-15.597 5.401-9.0875 5.9296-11.9 14.167-12.523 15.851-6.9318-4.0592-14.176-8.2531-20.592-12.358zm-32.231 8.2159c-2.475-1.175-2.387-0.847-1.672-6.228l0.447-3.36c-0.95632-0.81843-1.9191-1.6448-2.999-2.262-0.32627-0.0189-2.8351 5.4736-3.253 5.336-0.36984-0.12175-6.0834-8.6234-4.866-19.157 0.35-3.027 1.07-6.178 1.511-6.614 0.35819-0.35567 3.2367 1.536 3.72 1.536 0.168 0 0.827-0.726 1.466-1.614 1.293-1.798 1.318-1.449-0.35-5.025l-1.028-2.204c10.291-12.265 21.445-5.9542 21.445-5.395-1.1196 2.3264-2.6117 4.4758-4 6.654 0.91487 0.95824 1.8419 1.9104 2.883 2.719 2.5194-1.4126 4.9259-3.0334 7.356-4.597 3.4534 3.9594 5.01 9.7231 5.129 10.178 1.4752 5.6356 0.37792 15.455-0.596 16.508-0.2574 0.27285-8.7005-3.4535-9.235-3.473-0.329-0.012-2.407 3.176-2.407 3.694 0 0.36302 7.4781 6.8452 7.517 7.452 0.0221 0.34629-8.7198 11.703-21.068 5.852zm66.65-41.052c-5.1509-2.5657-10.154-8.1839-10.154-8.968 0-0.102 1.436-0.896 3.191-1.764 1.756-0.869 3.192-1.709 3.192-1.869 0-0.419-1.277-2.337-1.952-2.933-0.546-0.481-0.783-0.484-4.459-0.06-4.458 0.513-4.141 0.642-5.251-2.133-0.48274-1.2059-2.3581-6.8028 1.946-12.075 7.654 2.3959 14.516 6.4795 20.399 11.908 5.1868 5.1813 9.7106 11.441 12.241 18.372 0 0.201-0.36 0.55-0.801 0.774-1.673 0.854-1.735 0.81-3.347-2.396l-1.511-3.006-3.421-0.174 0.41 6.9c-1.8122-0.0641-6.2067-0.44851-10.483-2.576z" fill="#fbf1c7" opacity=".4" style="isolation:isolate"/>
  <path d="m149.95 194.39c9.817-4.046 18.316-10.979 23.891-19.489 5.5671-8.4978 8.0278-18.596 9.004-23.944-3.3508-0.93259-6.8089-1.2012-10.267-1.395-0.25515-5.2675-0.50684-10.535-0.757-15.803 3.3036-0.41004 7.0716-2.2045 9.053-4.285-3.7312-10.966-9.7353-19.593-18.036-26.118-8.7498-6.878-17.982-9.652-24.419-11.525-1.652 1.8278-5.3571 6.9885-3.481 14.947l-20.309 12.819c-9.6258-9.7872-18.642-7.6678-27.989-2.321-6.713 4.395-11.482 12.182-13.022 21.263-2.3383 13.811 4.0242 31.098 18.408 35.923 19.61 6.5792 29.587-14.145 29.587-14.145 6.9508 3.9188 14.083 8.0818 20.981 12.094-1.7777 7.8996-0.24153 15.809 3.793 22.739 0.416 0.509 0.552 0.48 3.563-0.76zm0.803-4.709c2.1961-1.2612 4.6611-2.075 7.026-2.992l-8e-3 -1.529c-0.014-2.374-0.143-2.531-2.087-2.533-2.1598-0.0187-4.3128-0.20448-6.465-0.369-0.21529-5.4338 1.5696-10.606 4.446-15.164 1.991-2.95 7.003-7.846 7.564-7.388 1.8655 2.5134 3.4714 5.2167 5.158 7.854 0.154 0.227 3.402-0.928 3.977-1.414 0.16676-0.14133-1.6392-9.7209-1.308-10.047 0.286-0.282 9.632-0.31 9.916-0.028 0.2782 0.27516-1.5541 9.6717-7.2517 18.319-5.8664 8.9039-13.374 13.923-19.317 17.45-0.70086-0.64698-1.2398-1.3302-1.65-2.159zm-28.41-31.17c-0.19376-0.12398 4.0919-8.2141 2.1437-20.185-0.79055-6.642-4.2606-12.128-8.288-17.236-0.70904-0.94469 18.96-12.524 19.107-12.435 0.38817 0.43628 1.794 7.3439 11.385 15.981 6.6328 5.9463 14.771 9.3386 23.636 9.3386 0.26484 5.213 0.49677 10.427 0.728 15.642-5.576 0.54679-10.842 2.4559-15.597 5.401-9.0875 5.9296-11.9 14.167-12.523 15.851-6.9318-4.0592-14.176-8.2531-20.592-12.358zm-32.231 8.2159c-2.475-1.175-2.387-0.847-1.672-6.228l0.447-3.36c-0.95632-0.81843-1.9191-1.6448-2.999-2.262-0.32627-0.0189-2.8351 5.4736-3.253 5.336-0.36984-0.12175-6.0834-8.6234-4.866-19.157 0.35-3.027 1.07-6.178 1.511-6.614 0.35819-0.35567 3.2367 1.536 3.72 1.536 0.168 0 0.827-0.726 1.466-1.614 1.293-1.798 1.318-1.449-0.35-5.025l-1.028-2.204c10.291-12.265 21.445-5.9542 21.445-5.395-1.1196 2.3264-2.6117 4.4758-4 6.654 0.91487 0.95824 1.8419 1.9104 2.883 2.719 2.5194-1.4126 4.9259-3.0334 7.356-4.597 3.4534 3.9594 5.01 9.7231 5.129 10.178 1.4752 5.6356 0.37792 15.455-0.596 16.508-0.2574 0.27285-8.7005-3.4535-9.235-3.473-0.329-0.012-2.407 3.176-2.407 3.694 0 0.36302 7.4781 6.8452 7.517 7.452 0.0221 0.34629-8.7198 11.703-21.068 5.852zm66.65-41.052c-5.1509-2.5657-10.154-8.1839-10.154-8.968 0-0.102 1.436-0.896 3.191-1.764 1.756-0.869 3.192-1.709 3.192-1.869 0-0.419-1.277-2.337-1.952-2.933-0.546-0.481-0.783-0.484-4.459-0.06-4.458 0.513-4.141 0.642-5.251-2.133-0.48274-1.2059-2.3581-6.8028 1.946-12.075 7.654 2.3959 14.516 6.4795 20.399 11.908 5.1868 5.1813 9.7106 11.441 12.241 18.372 0 0.201-0.36 0.55-0.801 0.774-1.673 0.854-1.735 0.81-3.347-2.396l-1.511-3.006-3.421-0.174 0.41 6.9c-1.8122-0.0641-6.2067-0.44851-10.483-2.576z" fill="#fb4934" style="isolation:isolate"/>
  <path d="m138.42 91.828c-1.4062 1.5558-4.2881 5.5342-3.9609 11.59 0.32904-4.8924 2.7222-8.1373 3.9609-9.5078 6.4371 1.8731 15.67 4.6474 24.42 11.525 7.9008 6.2107 13.695 14.352 17.455 24.576 0.20115-0.17839 0.40522-0.35741 0.58008-0.54101-3.7312-10.966-9.7348-19.592-18.035-26.117-8.7498-6.878-17.983-9.6523-24.42-11.525zm2.1562 12.787c-0.20214 2.6311 0.48139 4.7313 0.75391 5.4121 1.11 2.775 0.792 2.6458 5.25 2.1328 3.676-0.424 3.913-0.42045 4.459 0.0605 0.31803 0.28081 0.76746 0.85893 1.1562 1.4316 0.47764-0.28692 0.79687-0.51022 0.79687-0.58204 0-0.419-1.2781-2.3356-1.9531-2.9316-0.546-0.481-0.78299-0.48454-4.459-0.0605-4.458 0.513-4.14 0.64218-5.25-2.1328-0.19537-0.48805-0.60428-1.7162-0.75391-3.3301zm-5.9746 2.373-19.973 12.605c-9.6258-9.7872-18.641-7.6671-27.988-2.3203-6.713 4.395-11.481 12.181-13.021 21.262-0.36652 2.1649-0.49395 4.4191-0.43555 6.6934 0.04948-1.5625 0.18144-3.1085 0.43555-4.6094 1.54-9.081 6.3085-16.869 13.021-21.264 9.3472-5.3468 18.363-7.4669 27.988 2.3203l2.123-1.3398c3.0136-2.674 17.04-10.94 18.164-11.463l0.0234-0.0156c-0.15179-0.64387-0.25513-1.2622-0.33789-1.8691zm12.963 11.193c-0.58646 0.32381-0.95508 0.55407-0.95508 0.60547 0 0.78414 5.0015 6.4011 10.152 8.9668 4.2763 2.1275 8.6722 2.5121 10.484 2.5762l-0.125-2.0918c-1.8681-0.0743-6.1574-0.47585-10.359-2.5664-3.8023-1.894-7.509-5.4419-9.1973-7.4902zm19.271 3.166 0.125 2.0879 3.2949 0.16992 1.5117 3.0059c1.612 3.206 1.6747 3.2485 3.3477 2.3945 0.441-0.224 0.80078-0.57244 0.80078-0.77344-0.17953-0.49173-0.39073-0.9722-0.58985-1.457-0.075 0.0488-0.12848 0.10656-0.21093 0.14844-1.673 0.854-1.7357 0.80952-3.3477-2.3965l-1.5117-3.0059zm-49.795 0.83984c-0.58205 0.48256-0.94038 0.85108-0.8418 0.98242 4.0274 5.1074 7.4985 10.594 8.2891 17.236 0.30006 1.8438 0.43898 3.5818 0.48243 5.2266 0.0627-2.2223-0.0519-4.6652-0.48243-7.3105-0.73433-6.1697-3.7898-11.337-7.4473-16.135zm-13.301 1.0566c-0.98333 1.7621-2.1239 3.447-3.207 5.1465 0.26575 0.27835 0.54025 0.54831 0.81054 0.82226 1.1386-1.7554 2.2858-3.5148 3.1895-5.3926 0-0.0846-0.32419-0.31258-0.79297-0.57617zm-20.006 5.2734c-0.21536 0.23995-0.43177 0.44136-0.64648 0.69727l1.0293 2.2031c0.42838 0.9184 0.74088 1.5727 0.95312 2.0762 0.59102-0.92407 0.36752-1.3269-0.95312-4.1582zm88.187 7.3027c-0.0329 4e-3 -0.0668 0.0135-0.0996 0.0176 0.25016 5.2678 0.50071 10.537 0.75586 15.805 3.3232 0.18622 6.645 0.45539 9.873 1.3027 0.14943-0.71163 0.28487-1.3914 0.39454-1.9922-3.3508-0.93259-6.8095-1.2008-10.268-1.3945-0.22182-4.5794-0.4384-9.1587-0.65625-13.738zm-55.33 8.9844c-0.10508 4.074-0.70945 7.7723-1.2852 8.3945-0.2574 0.27285-8.7018-3.4532-9.2363-3.4727-0.329-0.012-2.4062 3.1754-2.4062 3.6934 0 0.0636 0.2815 0.35982 0.66015 0.73438 0.64009-1.0747 1.5356-2.3534 1.7461-2.3457 0.5345 0.0195 8.9789 3.7455 9.2363 3.4726 0.67349-0.7279 1.3852-5.6466 1.2852-10.477zm-38.969 0.23437c-0.39205 9.6361 4.6644 17.14 5.0117 17.254 0.4179 0.13757 2.9276-5.3548 3.2539-5.3359 0.98754 0.56447 1.8737 1.3065 2.75 2.0547l0.24805-1.875c-0.95632-0.81843-1.9182-1.6464-2.998-2.2637-0.32627-0.0189-2.836 5.4735-3.2539 5.3359-0.32178-0.10593-4.6841-6.5578-5.0117-15.17zm93.338 4.5859c-5.5403 0.55923-10.775 2.4625-15.502 5.3906-9.0875 5.9296-11.901 14.166-12.523 15.85-6.7251-3.9382-13.731-8.0009-20.002-11.988-0.37513 1.0647-0.64092 1.6802-0.58985 1.7129 0.8739 0.55914 1.7955 1.1217 2.6973 1.6836 5.858 3.3378 11.78 6.7766 17.553 10.135-0.0229 0.10162-0.0388 0.20305-0.0605 0.30468 0.13315 0.0779 0.26941 0.15849 0.40234 0.23633 0.62265-1.6839 3.4359-9.922 12.523-15.852 4.7547-2.9451 10.022-4.8536 15.598-5.4004-0.0306-0.69079-0.065-1.3815-0.0957-2.0723zm7.7324 8.4727c-0.71621 3.2604-2.801 9.9574-6.9726 16.289-4.2004 6.3753-9.2369 10.74-13.943 14.01l2e-3 0.37304c-0.41077 0.15928-0.82731 0.31868-1.2422 0.47461-1.4285 0.9486-2.8222 1.814-4.1328 2.5918-0.21744-0.20073-0.39282-0.41598-0.58008-0.62695-0.35953 0.17935-0.72278 0.3512-1.0703 0.55078 0.31723 0.6409 0.74003 1.1838 1.2266 1.7012 2.6799-1.2376 5.2504-2.6795 7.6738-4.3223 4.1431-3.1066 8.4216-7.1359 12.066-12.668 5.6976-8.6477 7.5302-18.045 7.252-18.32-0.02-0.0199-0.17575-0.0359-0.2793-0.0527zm-9.4941 0.0527c-0.0328 9e-3 -0.1323 0.0172-0.14258 0.0274-0.23933 0.23562 0.62655 5.2492 1.0684 8.0957 0.066-0.0406 0.1993-0.0963 0.24024-0.13086 0.12057-0.10219-0.77749-5.087-1.166-7.9922zm-58.852 3.8066c-2.3596 2.737-10.02 9.6075-20.234 4.7676-1.2027-0.57099-1.7934-0.79563-2.0078-1.4844-0.27697 2.5469 0.06793 2.6454 2.0078 3.5664 12.348 5.8508 21.09-5.5053 21.068-5.8516-8e-3 -0.12001-0.35966-0.51115-0.83398-0.99805zm31.895 12.328c-0.29593 1.8577-0.38529 3.7077-0.33203 5.5449 0.0729-1.7731 0.28226-3.5564 0.68359-5.3398-0.11593-0.0674-0.23549-0.13756-0.35156-0.20508zm6.9941 7.9707c-0.0365 0.68913-0.0453 1.3835-0.0176 2.082 2.1522 0.16452 4.307 0.35044 6.4668 0.36914 1.7553 2e-3 2.0152 0.21778 2.0625 1.9902 0.0103-4e-3 0.0209-8e-3 0.0312-0.0117l-8e-3 -1.5293c-0.014-2.374-0.14194-2.5312-2.0859-2.5332-2.1539-0.0187-4.3029-0.203-6.4492-0.36719z" fill="#282828" opacity=".2" style="isolation:isolate"/>
  <path d="m129.05 84.682c1.724 0 3.123-1.379 3.123-3.079s-1.399-3.08-3.123-3.08c-1.723 0-3.122 1.38-3.122 3.08s1.399 3.079 3.122 3.079z" fill="#7c6f64" style="isolation:isolate"/>
  <path d="m129.05 83.656c1.149 0 2.082-0.92 2.082-2.053s-0.933-2.053-2.082-2.053c-1.148 0-2.081 0.92-2.081 2.053s0.933 2.053 2.081 2.053z" fill="#504945" style="isolation:isolate"/>
  <path d="m129.2 82.619c0.569-0.078 0.966-0.598 0.886-1.159a1.039 1.039 0 0 0-1.175-0.874 1.03 1.03 0 0 0-0.886 1.16c0.08 0.561 0.607 0.952 1.175 0.873z" fill="#282828" style="isolation:isolate"/>
  <path d="m129.16 81.235a0.312 0.312 0 1 1 0.559 0.144 0.308 0.308 0 0 1-0.206 0.118 0.312 0.312 0 0 1-0.353-0.262zm-0.626 0.793a0.103 0.103 0 0 1 0.089-0.116 0.104 0.104 0 0 1 0.117 0.087 0.10402 0.10402 0 0 1-0.206 0.029z" fill="#ebdbb2" opacity=".3" style="isolation:isolate"/>
  <ellipse cx="130.4" cy="80.268" rx="1.249" ry="1.232" fill="#ebdbb2" opacity=".2" vector-effect="non-scaling-stroke" style="isolation:isolate"/>
  <path d="m111.67 89.232c4.595 0 8.326-3.679 8.326-8.212s-3.731-8.212-8.326-8.212-8.326 3.679-8.326 8.212 3.731 8.212 8.326 8.212z" fill="#fbf1c7" opacity=".4" style="isolation:isolate"/>
  <path d="m111.64 88.26c4.595 0 8.326-3.679 8.326-8.212s-3.731-8.212-8.326-8.212-8.326 3.679-8.326 8.212 3.731 8.212 8.326 8.212z" fill="#504945" style="isolation:isolate"/>
  <path d="m111.64 71.835c-4.595 0-8.3262 3.6799-8.3262 8.2129 0 0.26347 0.0144 0.52411 0.0391 0.78125 0.10324-4.4447 3.7901-8.0215 8.3203-8.0215 4.328 0 7.8879 3.2645 8.2871 7.4316 1e-3 -0.06392 6e-3 -0.12713 6e-3 -0.19141 0-4.533-3.7312-8.2129-8.3262-8.2129z" opacity=".3" style="isolation:isolate"/>
  <path d="m111.64 86.618c3.676 0 6.661-2.944 6.661-6.57s-2.985-6.57-6.661-6.57-6.661 2.944-6.661 6.57 2.985 6.57 6.661 6.57z" fill="#665c54" style="isolation:isolate"/>
  <path d="m111.64 86.207c3.447 0 6.245-2.76 6.245-6.159s-2.798-6.159-6.245-6.159-6.245 2.76-6.245 6.159 2.798 6.159 6.245 6.159z" fill="#b16286" style="isolation:isolate"/>
  <path d="m111.64 84.154c2.298 0 4.163-1.84 4.163-4.106s-1.865-4.106-4.163-4.106-4.163 1.84-4.163 4.106 1.865 4.106 4.163 4.106z" fill="#8f3f71" style="isolation:isolate"/>
  <path d="m111.94 82.081c1.138-0.158 1.932-1.197 1.772-2.319s-1.214-1.905-2.351-1.747c-1.138 0.158-1.932 1.197-1.772 2.319s1.213 1.905 2.351 1.747z" fill="#8f3f71" style="isolation:isolate"/>
  <path d="m111.85 79.312a0.617 0.617 0 0 1 0.532-0.695c0.34-0.05 0.655 0.185 0.705 0.524a0.618 0.618 0 0 1-0.531 0.696 0.624 0.624 0 0 1-0.706-0.525zm-1.253 1.586a0.207 0.207 0 0 1 0.177-0.232 0.207 0.207 0 0 1 0.235 0.175 0.206 0.206 0 0 1-0.177 0.232 0.209 0.209 0 0 1-0.235-0.175z" fill="#ebdbb2" opacity=".3" style="isolation:isolate"/>
  <ellipse cx="114.35" cy="77.379" rx="2.498" ry="2.464" fill="#ebdbb2" opacity=".2" vector-effect="non-scaling-stroke" style="isolation:isolate"/>
  <path d="m91 12c-72 0-85 15-85 87v56c0 70 13 85 85 85h74c72 0 85-15 85-85v-56c0-72-13-87-85-87zm0 4h74c68 0 80 15 80 83v56c0 66-12 81-80 81h-74c-68 0-80-15-80-81v-56c0-68 12-83 80-83z" fill="url(#linearGradient31)" style="isolation:isolate"/>
</svg>
