<svg width="256" height="256" version="1.1" xmlns="http://www.w3.org/2000/svg">
  <defs>
    <linearGradient id="linearGradient31" x1=".5002" x2=".5002" y2="1" gradientTransform="matrix(244,0,0,228,5.986,12)" gradientUnits="userSpaceOnUse">
      <stop stop-color="#ebdbb2" stop-opacity=".2" offset="0"/>
      <stop stop-color="#ebdbb2" stop-opacity=".05" offset=".1"/>
      <stop stop-opacity="0" offset=".7036"/>
      <stop stop-opacity=".1" offset=".8975"/>
      <stop stop-opacity=".2" offset="1"/>
    </linearGradient>
    <linearGradient id="linearGradient6" x1="140" x2="140" y1="12" y2="240" gradientUnits="userSpaceOnUse">
      <stop stop-color="#cc241d" offset="0"/>
      <stop stop-color="#cc241d" offset="1"/>
    </linearGradient>
  </defs>
  <path d="m165 12c72 0 85 15 85 87v56c0 70-13 85-85 85h-74c-72 0-85-15-85-85v-56c0-72 13-87 85-87z" fill="url(#linearGradient6)" style="isolation:isolate"/>
  <path class="st1" d="m177.3 50.015c-24.81 4.547-49.5 9.808-74.23 14.8l-0.0255 6e-3c-5.907 1.249-6.695 5.127-6.695 8.645v85.31c0 1.994-0.1593 3.93-1.51 5.58-2.387 2.59-6.15 2.779-9.428 3.44-7.089 1.413-14.74 2.649-20.05 7.976-3.752 3.93-5.275 9.262-4.752 14.26 0.4459 4.262 2.363 8.339 5.657 11.35 6.527 5.985 14.29 4.891 20.58 3.618 6.333-1.275 11.06-4.189 14.24-8.74 3.376-4.832 4.096-10.39 4.096-16.31v-73.99c0-3.962 1.121-5.007 4.319-5.784 0 0 56.66-11.43 59.3-11.94 3.688-0.7071 5.428 0.344 5.428 4.211v50.51c0 2-0.0191 4.026-1.382 5.682-2.387 2.59-6.15 2.779-9.428 3.44-7.089 1.413-14.74 2.649-20.05 7.976-3.752 3.93-5.408 9.262-4.886 14.26 0.4459 4.262 2.497 8.339 5.791 11.35 6.64 6.088 14.82 4.738 20.58 3.58 2.978-0.5997 9.692-2.188 14.24-8.702 3.446-4.785 3.966-10.61 3.975-16.31v-108.2c0.0127-3.924-2.058-6.345-5.746-6.026z" clip-rule="evenodd" fill="#ebdbb2" fill-rule="evenodd" opacity=".2" stroke-width=".637"/>
  <path class="st1" d="m177.3 45.56c-24.81 4.547-49.5 9.808-74.23 14.8l-0.0255 0.0064c-5.907 1.249-6.695 5.127-6.695 8.645v85.31c0 1.994-0.1593 3.93-1.51 5.58-2.387 2.59-6.15 2.779-9.428 3.44-7.089 1.413-14.74 2.649-20.05 7.976-3.752 3.93-5.275 9.262-4.752 14.26 0.4459 4.262 2.363 8.339 5.657 11.35 6.527 5.985 14.29 4.891 20.58 3.618 6.333-1.275 11.06-4.189 14.24-8.74 3.376-4.832 4.096-10.39 4.096-16.31v-73.99c0-3.962 1.121-5.007 4.319-5.784 0 0 56.66-11.43 59.3-11.94 3.688-0.7071 5.428 0.344 5.428 4.211v50.51c0 2-0.0191 4.026-1.382 5.682-2.387 2.59-6.15 2.779-9.428 3.44-7.089 1.413-14.74 2.649-20.05 7.976-3.752 3.93-5.408 9.262-4.886 14.26 0.4459 4.262 2.497 8.339 5.791 11.35 6.64 6.088 14.82 4.738 20.58 3.58 2.978-0.5997 9.692-2.188 14.24-8.702 3.446-4.785 3.966-10.61 3.975-16.31v-108.2c0.0127-3.924-2.058-6.345-5.746-6.026z" clip-rule="evenodd" fill="#ebdbb2" fill-rule="evenodd" stroke-width=".637"/>
  <path class="st1" d="m177.32 45.553-0.0234 0.0078c-24.81 4.547-49.5 9.8068-74.23 14.799l-0.0254 0.0078c-5.907 1.249-6.6953 5.1265-6.6953 8.6445v4.4551c0-3.518 0.78832-7.3975 6.6953-8.6465l0.0254-0.0059c24.73-4.992 49.42-10.254 74.23-14.801l0.0234-0.0059c3.688-0.319 5.7588 2.1014 5.7461 6.0254v-4.4551c0.0127-3.924-2.0581-6.3444-5.7461-6.0254zm-3.0938 92.949c0 2-0.0199 4.0256-1.3828 5.6816-2.387 2.59-6.1497 2.7804-9.4277 3.4414-7.089 1.413-14.741 2.6476-20.051 7.9746-3.752 3.93-5.4068 9.2637-4.8848 14.262 0.014 0.13369 0.0434 0.26513 0.0605 0.39844 0.46806-3.6985 2.0776-7.3282 4.8242-10.205 5.31-5.327 12.962-6.5636 20.051-7.9766 3.278-0.661 7.0407-0.84945 9.4277-3.4394 1.3629-1.656 1.3828-3.6816 1.3828-5.6816zm-77.881 15.82c0 1.994-0.15906 3.9301-1.5098 5.5801-2.387 2.59-6.1497 2.7785-9.4277 3.4395-7.089 1.413-14.741 2.6496-20.051 7.9766-3.752 3.93-5.275 9.2618-4.752 14.26 0.01131 0.10807 0.03368 0.21445 0.04687 0.32227 0.44184-3.6721 1.9774-7.2718 4.7051-10.129 5.31-5.327 12.962-6.5616 20.051-7.9746 3.278-0.661 7.0407-0.85141 9.4277-3.4414 1.3507-1.65 1.5098-3.5861 1.5098-5.5801z" fill="#282828" opacity=".1"/>
  <path d="m91 12c-72 0-85 15-85 87v56c0 70 13 85 85 85h74c72 0 85-15 85-85v-56c0-72-13-87-85-87zm0 4h74c68 0 80 15 80 83v56c0 66-12 81-80 81h-74c-68 0-80-15-80-81v-56c0-68 12-83 80-83z" fill="url(#linearGradient31)" style="isolation:isolate"/>
</svg>
