<svg width="256" height="256" version="1.1" xmlns="http://www.w3.org/2000/svg">
  <defs>
    <linearGradient id="linearGradient31" x1=".5002" x2=".5002" y2="1" gradientTransform="matrix(244,0,0,228,5.986,12)" gradientUnits="userSpaceOnUse">
      <stop stop-color="#ebdbb2" stop-opacity=".2" offset="0"/>
      <stop stop-color="#ebdbb2" stop-opacity=".05" offset=".1"/>
      <stop stop-opacity="0" offset=".7036"/>
      <stop stop-opacity=".1" offset=".8975"/>
      <stop stop-opacity=".2" offset="1"/>
    </linearGradient>
    <linearGradient id="linearGradient6" x1="140" x2="140" y1="12" y2="240" gradientUnits="userSpaceOnUse">
      <stop stop-color="#928374" offset="0"/>
      <stop stop-color="#7c6f64" offset="1"/>
    </linearGradient>
  </defs>
  <path d="m165 12c72 0 85 15 85 87v56c0 70-13 85-85 85h-74c-72 0-85-15-85-85v-56c0-72 13-87 85-87z" fill="url(#linearGradient6)" style="isolation:isolate"/>
  <path d="m108.15 185.35h39.705v4.963h-39.705z" fill="#bdae93" style="isolation:isolate"/>
  <path d="m102.36 15.655-3.151 39.345h57.581l-3.151-39.345z" fill="#282828" opacity=".2" style="isolation:isolate"/>
  <path d="m102.36 12-3.151 39.345h57.581l-3.151-39.345z" fill="#3c3836" style="isolation:isolate"/>
  <path d="m60.95 152.01c0.03 1.613-1.459 3.956-1.459 3.956l3.99 2.501c7.47-10.055 8.18-24.244 7.842-37.401l-3.276-2.135 3.872-2.069c-0.154-32.93 3.335-41.248 13.236-42.167 5.584-0.516 9.768 5.594 10.229 7.286 0.506 1.861 0.407 3.43 0.089 5.038-0.387 1.98-2.506 4.074-5.027 4.114-5.097 0.085-6.239-5.97-4.239-8.432 0.04 0-4.114-2.01-4.114-2.01-4.005 4.099-3.598 18.785-2.854 39.441l3.385 2.08-3.112 2.114c-0.02 24.354-7.181 39.511-18.353 39.675-8.239 0.124-12.383-4.635-12.557-9.757-0.149-4.358 1.514-8.492 6.11-8.572 2.58-0.044 6.169 2.313 6.238 6.343zm134.1 0c-0.03 1.613 1.459 3.956 1.459 3.956l-3.991 2.501c-7.469-10.055-8.179-24.244-7.841-37.401l3.275-2.135-3.871-2.069c0.154-32.93-3.335-41.248-13.236-42.167-5.584-0.516-9.768 5.594-10.229 7.286-0.506 1.861-0.407 3.43-0.09 5.038 0.388 1.98 2.507 4.074 5.028 4.114 5.097 0.085 6.239-5.97 4.239-8.432-0.04 0 4.114-2.01 4.114-2.01 4.005 4.099 3.598 18.785 2.854 39.441l-3.385 2.08 3.112 2.114c0.02 24.354 7.181 39.511 18.353 39.675 8.239 0.124 12.383-4.635 12.557-9.757 0.149-4.358-1.514-8.492-6.11-8.572-2.581-0.044-6.169 2.313-6.238 6.343z" fill="#ebdbb2" fill-rule="evenodd" opacity=".1" style="isolation:isolate"/>
  <path d="m60.95 149.01c0.03 1.613-1.459 3.956-1.459 3.956l3.99 2.501c7.47-10.055 8.18-24.244 7.842-37.401l-3.276-2.135 3.872-2.069c-0.154-32.93 3.335-41.248 13.236-42.167 5.584-0.516 9.768 5.594 10.229 7.286 0.506 1.861 0.407 3.43 0.089 5.038-0.387 1.98-2.506 4.074-5.027 4.114-5.097 0.085-6.239-5.97-4.239-8.432 0.04 0-4.114-2.01-4.114-2.01-4.005 4.099-3.598 18.785-2.854 39.441l3.385 2.08-3.112 2.114c-0.02 24.354-7.181 39.511-18.353 39.675-8.239 0.124-12.383-4.635-12.557-9.757-0.149-4.358 1.514-8.492 6.11-8.572 2.58-0.044 6.169 2.313 6.238 6.343zm134.1 0c-0.03 1.613 1.459 3.956 1.459 3.956l-3.991 2.501c-7.469-10.055-8.179-24.244-7.841-37.401l3.275-2.135-3.871-2.069c0.154-32.93-3.335-41.248-13.236-42.167-5.584-0.516-9.768 5.594-10.229 7.286-0.506 1.861-0.407 3.43-0.09 5.038 0.388 1.98 2.507 4.074 5.028 4.114 5.097 0.085 6.239-5.97 4.239-8.432-0.04 0 4.114-2.01 4.114-2.01 4.005 4.099 3.598 18.785 2.854 39.441l-3.385 2.08 3.112 2.114c0.02 24.354 7.181 39.511 18.353 39.675 8.239 0.124 12.383-4.635 12.557-9.757 0.149-4.358-1.514-8.492-6.11-8.572-2.581-0.044-6.169 2.313-6.238 6.343z" fill="#3c3836" fill-rule="evenodd" style="isolation:isolate"/>
  <path d="m86.186 71.667c-0.3375-0.01682-0.68225-0.01077-1.0312 0.02148-9.901 0.919-13.388 9.238-13.234 42.168l-3.873 2.0684 2.5332 1.6523 1.3398-0.7168c-0.154-32.93 3.3334-41.247 13.234-42.166 5.584-0.516 9.7695 5.5932 10.23 7.2852 0.10708 0.39382 0.17392 0.76982 0.23047 1.1406 0.18202-1.3072 0.18167-2.6287-0.23047-4.1445-0.43219-1.5862-4.1368-7.0563-9.1992-7.3086zm83.627 0c-5.0624 0.25229-8.767 5.7223-9.1992 7.3086-0.41235 1.5166-0.41224 2.8386-0.23047 4.1465 0.0566-0.37138 0.12322-0.74811 0.23047-1.1426 0.461-1.692 4.6465-7.8012 10.23-7.2852 9.901 0.919 13.388 9.236 13.234 42.166l1.3379 0.7168 2.5332-1.6523-3.8711-2.0684c0.154-32.93-3.3334-41.249-13.234-42.168-0.349-0.03225-0.69375-0.0383-1.0312-0.02148zm-84.502 10.596c-0.04497 0.63965 0.03394 1.297 0.19531 1.9453 0.15495-0.56639 0.3671-1.0966 0.70117-1.5078 0.0087 0-0.59331-0.28822-0.89648-0.4375zm85.377 0c-0.30318 0.14928-0.9052 0.4375-0.89648 0.4375 0.33407 0.41125 0.54621 0.94142 0.70117 1.5078 0.16137-0.64827 0.24028-1.3057 0.19531-1.9453zm-91.91 16.621c-0.05853 5.9906 0.16878 13.137 0.46094 21.248l1.0605 0.65234 2.3242-1.5781-3.3848-2.0801c-0.24535-6.8118-0.43503-12.894-0.46094-18.242zm98.443 0c-0.0259 5.3478-0.21558 11.43-0.46093 18.242l-3.3867 2.0801 2.3242 1.5781 1.0625-0.65234c0.29215-8.1113 0.51946-15.257 0.46093-21.248zm-105.86 25.371c-0.1065 11.276-1.5765 22.716-7.8848 31.207l-2.8809-1.8066c-0.4309 1.2057-1.1094 2.3105-1.1094 2.3105l3.9902 2.5c6.8711-9.2488 8.0073-21.987 7.8848-34.211zm113.27 0c-0.12256 12.224 1.0126 24.962 7.8828 34.211l3.9922-2.5s-0.67847-1.1048-1.1094-2.3105l-2.8828 1.8066c-6.3074-8.4913-7.7763-19.931-7.8828-31.207zm-129.92 18.412c-4.596 0.08-6.2603 4.2123-6.1113 8.5703 0.01128 0.33204 0.04125 0.66247 0.08594 0.99023 0.37776-3.5341 2.1517-6.4892 6.0254-6.5566 2.2093-0.0377 5.141 1.6964 5.9863 4.7227 0.15165-0.4763 0.25739-0.95373 0.25-1.3848v-4e-3c-0.07134-4.0275-3.6572-6.3819-6.2363-6.3379zm146.57 0c-2.5801-0.044-6.165 2.3104-6.2363 6.3379v4e-3c-7e-3 0.43104 0.0983 0.90847 0.25 1.3848 0.84508-3.0263 3.7762-4.7603 5.9863-4.7227 3.8737 0.0674 5.6476 3.0226 6.0254 6.5566 0.0447-0.32776 0.0746-0.65819 0.0859-0.99023 0.149-4.358-1.5153-8.4903-6.1113-8.5703z" fill="#282828" style="isolation:isolate"/>
  <path d="m100.7 117.52h54.594v4.963h-54.594z" fill="#282828" opacity=".2" style="isolation:isolate"/>
  <path d="m100.7 115.87h54.594v4.963h-54.594z" fill="#ebdbb2" style="isolation:isolate"/>
  <path d="m113.09 12-4.9727 2e-3 -3.3277 103.86v4.9629c2.9766 21.51 4.3317 43.018 7.3277 64.525h4.9629c-3.0074-21.499-4.3466-43.003-7.3277-64.506v-4.9629zm11.758 0-4.9629 2e-3 1.1719 173.36h4.9629zm11.277 0-4.9746 2e-3 -1.6582 173.33h4.9629zm11.727 0-4.9727 2e-3 3.1219 103.87v4.9629c-2.9849 21.506-4.11 43.012-7.0828 64.52h4.9629c2.9812-21.509 4.106-43.019 7.0828-64.529v-4.9629z" fill="#282828" opacity=".2" style="isolation:isolate"/>
  <path d="m113.09 12-4.9727 0.001953-4.9629 103.86v4.9629l5.6934 41.055 4.8828-0.54688-5.6133-40.488v-4.9629l4.9727-103.88zm11.758 0-4.9629 0.001953-1.8125 103.87v4.9629l1.8574 40.115 4.9531-0.22266-1.8477-39.922v-4.9629l1.8125-103.85zm11.277 0-4.9746 0.001953 1.8125 103.87v4.9629l-2.1445 39.848 4.9434 0.23438 2.1641-40.102v-4.9629l-1.8008-103.85zm11.727 0-4.9727 0.001953 4.9727 103.87v4.9629l-5.6133 40.498 4.8945 0.54688 5.6816-41.055v-4.9629l-4.9629-103.86z" fill="#bdae93" style="isolation:isolate"/>
  <path d="m113.73 161.33-4.884 0.546 3.271 23.47h4.963zm11.152-0.597-4.954 0.223 1.127 24.41h4.963zm5.935-0.054-1.325 24.658h4.963l1.306-24.424zm11.42 0.651-3.32 24.021h4.963l3.251-23.475z" fill="#cc241d" style="isolation:isolate"/>
  <path d="m105.17 183.55c0 16.35 8.7231 40.985 11.811 56.445h22.023c2.9594-15.47 11.33-40.09 11.33-56.445h-45.164zm9.4336 4.9629c1.3719-3e-3 2.4852 1.1105 2.4824 2.4824v3.4297c2.5483 2.2784 0.93732 6.498-2.4805 6.498s-5.0307-4.2196-2.4824-6.498v-3.4297c-3e-3 -1.3718 1.1087-2.4852 2.4805-2.4824zm8.9297 0c1.3718-3e-3 2.4838 1.1107 2.4805 2.4824v3.4199c0.79001 0.71 1.2412 1.7212 1.2422 2.7832-0.08 4.8826-7.3653 4.8826-7.4453 0 0-1.057 0.45123-2.0587 1.2402-2.7637v-3.4394c-3e-3 -1.3719 1.1105-2.4852 2.4824-2.4824zm8.4414 0c1.3718-3e-3 2.4838 1.1107 2.4805 2.4824v3.4297c2.5483 2.2784 0.93732 6.498-2.4805 6.498s-5.0307-4.2196-2.4824-6.498v-3.4297c-3e-3 -1.3719 1.1105-2.4852 2.4824-2.4824zm9.4004 0c1.3718-3e-3 2.4838 1.1107 2.4805 2.4824v3.4199c0.79381 0.70706 1.247 1.7202 1.2422 2.7832-0.11241 4.849-7.3329 4.849-7.4453 0 5e-3 -1.0553 0.4554-2.0582 1.2402-2.7637v-3.4394c-3e-3 -1.3719 1.1105-2.4852 2.4824-2.4824z" fill="#282828" opacity=".2" style="isolation:isolate"/>
  <path d="m105.17 180.4c0 17.51 10.011 44.528 12.383 59.596h20.905c2.273-15.083 11.876-42.081 11.876-59.596zm9.435 4.963c1.3719-3e-3 2.4848 1.1101 2.482 2.482v3.429c2.5483 2.2784 0.93629 6.4982-2.4815 6.4982s-5.0298-4.2197-2.4815-6.4982v-3.429c-3e-3 -1.3718 1.1092-2.4848 2.481-2.482zm8.929 0c1.3718-3e-3 2.4843 1.1102 2.481 2.482v3.42c0.79 0.71 1.24 1.722 1.241 2.784-0.08 4.8826-7.365 4.8826-7.445 0 0-1.057 0.452-2.06 1.241-2.765v-3.439c-3e-3 -1.3719 1.1101-2.4848 2.482-2.482zm8.442 0c1.3718-3e-3 2.4843 1.1102 2.481 2.482v3.429c2.5483 2.2784 0.93629 6.4982-2.4815 6.4982s-5.0298-4.2197-2.4815-6.4982v-3.429c-3e-3 -1.3719 1.1101-2.4848 2.482-2.482zm9.4 0c1.3718-3e-3 2.4843 1.1102 2.481 2.482v3.42c0.79381 0.70706 1.2458 1.721 1.241 2.784-0.11241 4.849-7.3316 4.849-7.444 0 5e-3 -1.0553 0.45517-2.0595 1.24-2.765v-3.439c-3e-3 -1.3719 1.1101-2.4848 2.482-2.482z" fill="#3c3836" style="isolation:isolate"/>
  <path d="m105.17 180.4c0 0.47286 9e-3 0.9551 0.0234 1.4414h45.115c0.0137-0.4864 0.0254-0.96841 0.0254-1.4414zm23.148 14.328c-0.43596 2.1382 1.1076 4.4844 3.6562 4.4844 2.5456 0 4.085-2.3404 3.6543-4.4766-0.31602 1.6278-1.6808 3.0352-3.6543 3.0352-1.9767 0-3.3431-1.4119-3.6562-3.043zm-17.369 2e-3c-0.43466 2.1377 1.1064 4.4824 3.6543 4.4824s4.0909-2.3448 3.6562-4.4824c-0.31384 1.6303-1.6784 3.041-3.6543 3.041s-3.3424-1.4108-3.6562-3.041zm34.072 0.0156c-0.71536 3.9093-6.5621 3.9146-7.291 0.0156-0.0486 0.23831-0.0769 0.48143-0.0781 0.72852 0.11241 4.849 7.331 4.849 7.4434 0 1e-3 -0.25178-0.0256-0.5013-0.0742-0.74414zm-17.84 0.0195c-0.70594 3.9229-6.5912 3.9236-7.2988 2e-3 -0.0471 0.23604-0.0723 0.4778-0.0723 0.72266 0.08 4.8826 7.3634 4.8826 7.4434 0-2.3e-4 -0.24537-0.0254-0.48768-0.0723-0.72461z" fill="#ebdbb2" opacity=".1" style="isolation:isolate"/>
  <path d="m91 12c-72 0-85 15-85 87v56c0 70 13 85 85 85h74c72 0 85-15 85-85v-56c0-72-13-87-85-87zm0 4h74c68 0 80 15 80 83v56c0 66-12 81-80 81h-74c-68 0-80-15-80-81v-56c0-68 12-83 80-83z" fill="url(#linearGradient31)" style="isolation:isolate"/>
</svg>
