<svg width="256" height="256" version="1.1" xmlns="http://www.w3.org/2000/svg">
  <defs>
    <linearGradient id="linearGradient31" x1=".5002" x2=".5002" y2="1" gradientTransform="matrix(244,0,0,228,5.986,12)" gradientUnits="userSpaceOnUse">
      <stop stop-color="#ebdbb2" stop-opacity=".2" offset="0"/>
      <stop stop-color="#ebdbb2" stop-opacity=".05" offset=".1"/>
      <stop stop-opacity="0" offset=".7036"/>
      <stop stop-opacity=".1" offset=".8975"/>
      <stop stop-opacity=".2" offset="1"/>
    </linearGradient>
    <linearGradient id="linearGradient6" x1="140" x2="140" y1="12" y2="240" gradientUnits="userSpaceOnUse">
      <stop stop-color="#504945" offset="0"/>
      <stop stop-color="#3c3836" offset="1"/>
    </linearGradient>
  </defs>
  <path d="m165 12c72 0 85 15 85 87v56c0 70-13 85-85 85h-74c-72 0-85-15-85-85v-56c0-72 13-87 85-87z" fill="url(#linearGradient6)" style="isolation:isolate"/>
  <path d="m68.527 205c8.1271-26.935 8.1831-43.988 17.473-82.806 10.518-42.799 23.349-65.224 40.806-65.225 18.765 6.4e-4 32.744 27.247 43.085 71.194 4.4306 25.905 12.301 51.156 17.581 76.837 0 0-18.164-1.2e-4 -18.124 0-0.99499-29.832-22.112-64.858-44.93-61.318-5.5292 0.77162-16.886 4.3772-21.488 16.171-3.4484 9.1954 0.39693 22.401 12.372 18.124 4.7925-1.7116 11.196-7.4018 8.7907-16.062 2.883-0.26228 10.67 3.1409 13.349 2.6045 3.5349 16.203-11.987 24.744-23.984 24.744-19.489 1.3e-4 -22.359-15.449-19.643-26.806 3.287-14.045 14.624-27.111 28.977-27.674 18.706-0.81387 32.766 11.317 36.465 14.868-0.94068-3.4004-1.9898-7.7777-3.1473-13.132-11.941-55.222-20.562-68.696-29.302-68.915-17.453-0.34127-27.432 38.999-31.798 59.69-5.1737 24.519-9.741 62.784-8.248 77.705h-18.233" fill="#282828" opacity=".5"/>
  <path d="m68.527 200c8.1271-26.935 8.1831-43.988 17.473-82.806 10.518-42.799 23.349-65.224 40.806-65.225 18.765 6.4e-4 32.744 27.247 43.085 71.194 4.4306 25.905 12.301 51.156 17.581 76.837 0 0-18.164-1.2e-4 -18.124 0-0.99499-29.832-22.112-64.858-44.93-61.318-5.5292 0.77162-16.886 4.3772-21.488 16.171-3.4484 9.1954 0.39693 22.401 12.372 18.124 4.7925-1.7116 11.196-7.4018 8.7907-16.062 2.883-0.26228 10.67 3.1409 13.349 2.6045 3.5349 16.203-11.987 24.744-23.984 24.744-19.489 1.3e-4 -22.359-15.449-19.643-26.806 3.287-14.045 14.624-27.111 28.977-27.674 18.706-0.81387 32.766 11.317 36.465 14.868-0.94068-3.4004-1.9898-7.7777-3.1473-13.132-11.941-55.222-20.562-68.696-29.302-68.915-17.453-0.34127-27.432 38.999-31.798 59.69-5.1737 24.519-9.741 62.784-8.248 77.705h-18.233" fill="#458588"/>
  <path d="m126.81 51.969c-17.457 5.1e-4 -30.288 22.425-40.807 65.225-9.2897 38.818-9.3455 55.872-17.473 82.807h1.4492c6.7211-24.178 7.3215-41.445 16.023-77.807 10.518-42.799 23.35-65.224 40.807-65.225 18.765 6.4e-4 32.743 27.247 43.084 71.193 4.1425 24.22 11.266 47.875 16.494 71.838h1.0879c-5.2804-25.681-13.151-50.933-17.582-76.838-10.341-43.946-24.319-71.193-43.084-71.193zm-0.56445 77.809c-1.1314-0.045-2.282-0.045-3.4512 6e-3 -14.353 0.56314-25.69 13.629-28.977 27.674-0.72733 3.0415-1.0339 6.3738-0.74805 9.627 0.13933-1.5829 0.39256-3.1404 0.74805-4.627 3.287-14.045 14.624-27.111 28.977-27.674 18.706-0.81387 32.766 11.316 36.465 14.867-0.51289-1.854-1.0652-4.0574-1.6426-6.4922-4.893-4.2864-16.396-12.785-31.371-13.381zm-2.1484 27.137c0.50219 1.8081 0.60256 3.4796 0.43164 5.0195 3.1385 0.0295 10.349 3.0999 12.916 2.5859 0.15342 0.70328 0.25832 1.3862 0.34179 2.0606 0.29691-2.1625 0.2131-4.517-0.34179-7.0606-2.6794 0.53639-10.465-2.8678-13.348-2.6055zm0.25586 6.1621c-1.0997 5.1976-5.5076 8.6364-9.0469 9.9004-8.1484 2.9102-12.525-2.2777-13.408-8.7852-1.0551 8.4275 3.2295 17.42 13.408 13.785 4.5735-1.6334 10.595-6.8968 9.0469-14.9zm-37.838 32.168c-0.03505 1.7003-0.03287 3.2759-0.0039 4.7559h0.25195c-0.13777-1.3769-0.2092-3.0106-0.24805-4.7559z" fill="#ebdbb2" opacity=".2"/>
  <path d="m91 12c-72 0-85 15-85 87v56c0 70 13 85 85 85h74c72 0 85-15 85-85v-56c0-72-13-87-85-87zm0 4h74c68 0 80 15 80 83v56c0 66-12 81-80 81h-74c-68 0-80-15-80-81v-56c0-68 12-83 80-83z" fill="url(#linearGradient31)" style="isolation:isolate"/>
</svg>
