<svg width="256" height="256" version="1.1" xmlns="http://www.w3.org/2000/svg">
  <defs>
    <linearGradient id="linearGradient31" x1=".5002" x2=".5002" y2="1" gradientTransform="matrix(244,0,0,228,5.986,12)" gradientUnits="userSpaceOnUse">
      <stop stop-color="#ebdbb2" stop-opacity=".2" offset="0"/>
      <stop stop-color="#ebdbb2" stop-opacity=".05" offset=".1"/>
      <stop stop-opacity="0" offset=".7036"/>
      <stop stop-opacity=".1" offset=".8975"/>
      <stop stop-opacity=".2" offset="1"/>
    </linearGradient>
    <linearGradient id="linearGradient6" x1="140" x2="140" y1="12" y2="240" gradientUnits="userSpaceOnUse">
      <stop stop-color="#504945" offset="0"/>
      <stop stop-color="#3c3836" offset="1"/>
    </linearGradient>
  </defs>
  <path d="m165 12c72 0 85 15 85 87v56c0 70-13 85-85 85h-74c-72 0-85-15-85-85v-56c0-72 13-87 85-87z" fill="url(#linearGradient6)" style="isolation:isolate"/>
  <path d="m91 12c-60.671 0-79.39 10.798-83.797 57.23h241.67c-4.407-46.432-23.198-57.23-83.869-57.23z" fill="#282828" style="isolation:isolate"/>
  <path d="m91 12c-10.843 0-20.248 0.34312-28.572 1.167l27.422 27.452 38.16-2e-3 -28.617-28.617zm-1.1504 28.619-28.621 28.621h38.17l28.621-28.621zm38.15-28.619 28.619 28.619-28.619 28.621h38.17l28.619-28.621-28.602-28.618c-0.41288-1e-3 -0.77068-0.0014-1.1875-0.0014zm68.3 1.4448 27.159 27.174h-0.0605l-28.619 28.621h38.17l13.948-13.943c-5.4216-27.037-19.246-38.301-50.598-41.852zm-164.42 7.3989c-15.604 8.0882-22.366 22.802-24.746 48.406h23.394l21.17-28.621z" fill="#bdae93" style="isolation:isolate"/>
  <path d="m91 12c-45.518 0-67.482 6.0168-77.462 28.619h228.91c-9.9797-22.602-31.927-28.619-77.445-28.619z" fill="#282828" opacity=".3" style="isolation:isolate"/>
  <path class="ColorScheme-Text" d="m69.047 115.35c-4.9029 0-8.85 3.9471-8.85 8.85v61.95c0 4.9029 3.9471 8.85 8.85 8.85h79.65c4.9029 0 8.85-3.9471 8.85-8.85v-61.95c0-4.9029-3.9471-8.85-8.85-8.85zm132.75 0-35.4 17.7v44.25l35.4 17.7z" color="#ebdbb2" fill="#282828" opacity=".5" stroke-width="8.85"/>
  <path class="ColorScheme-Text" d="m69.047 110.26c-4.9029 0-8.85 3.9471-8.85 8.85v61.95c0 4.9029 3.9471 8.85 8.85 8.85h79.65c4.9029 0 8.85-3.9471 8.85-8.85v-61.95c0-4.9029-3.9471-8.85-8.85-8.85zm132.75 0-35.4 17.7v44.25l35.4 17.7z" color="#ebdbb2" fill="#bdae93" stroke-width="8.85"/>
  <path d="m91 12c-72 0-85 15-85 87v56c0 70 13 85 85 85h74c72 0 85-15 85-85v-56c0-72-13-87-85-87zm0 4h74c68 0 80 15 80 83v56c0 66-12 81-80 81h-74c-68 0-80-15-80-81v-56c0-68 12-83 80-83z" fill="url(#linearGradient31)" style="isolation:isolate"/>
  <path class="ColorScheme-Text" d="m69.047 110.26c-4.9029 0-8.8496 3.9467-8.8496 8.8496v5.0898c0-4.9029 3.9467-8.8496 8.8496-8.8496h79.65c4.9029 0 8.8496 3.9467 8.8496 8.8496v-5.0898c0-4.9029-3.9467-8.8496-8.8496-8.8496zm132.75 0-35.4 17.701v5.0898l35.4-17.701z" fill="#ebdbb2" opacity=".2"/>
</svg>
