<svg width="256" height="256" version="1.1" xmlns="http://www.w3.org/2000/svg">
  <defs>
    <linearGradient id="linearGradient31" x1=".5002" x2=".5002" y2="1" gradientTransform="matrix(244,0,0,228,5.986,12)" gradientUnits="userSpaceOnUse">
      <stop stop-color="#ebdbb2" stop-opacity=".2" offset="0"/>
      <stop stop-color="#ebdbb2" stop-opacity=".05" offset=".1"/>
      <stop stop-opacity="0" offset=".7036"/>
      <stop stop-opacity=".1" offset=".8975"/>
      <stop stop-opacity=".2" offset="1"/>
    </linearGradient>
    <linearGradient id="linearGradient6" x1="140" x2="140" y1="12" y2="240" gradientUnits="userSpaceOnUse">
      <stop stop-color="#83a598" offset="0"/>
      <stop stop-color="#076678" offset="1"/>
    </linearGradient>
  </defs>
  <path d="m165 12c72 0 85 15 85 87v56c0 70-13 85-85 85h-74c-72 0-85-15-85-85v-56c0-72 13-87 85-87z" fill="url(#linearGradient6)" style="isolation:isolate"/>
  <path d="m221.86 127.06c0-9.0453-16.705-16.846-42.43-21.323a177.75 177.75 0 0 0 8.0308-12.416c3.9051-6.6793 9.1983-17.118 9.4132-24.955a7.722 7.722 0 1 0-11.243-10.145c-8.6061 0.6882-21.586 7.0838-36.311 17.437-4.4692-25.743-12.276-42.458-21.323-42.458s-16.846 16.724-21.323 42.458a186.86 186.86 0 0 0-9.751-6.4381 7.722 7.722 0 0 0-13.496-7.2011c-5.7108-2.5077-10.671-3.8666-14.566-3.8666-3.1215 0-5.555 0.85132-7.2368 2.5358-6.3921 6.3921-0.09929 23.716 14.913 45.048-25.706 4.4767-42.402 12.276-42.402 21.313 0 9.0453 16.705 16.846 42.43 21.313a177.66 177.66 0 0 0-8.027 12.416c-5.449 9.3156-13.599 25.94-6.9102 32.632 1.6818 1.678 4.1144 2.5293 7.2368 2.5293 8.5629 0 22.205-6.5273 37.803-17.503 4.4729 25.743 12.276 42.458 21.323 42.458 6.3208 0 12.032-8.1659 16.424-21.858a7.722 7.722 0 0 0 3.8244-14.922c0.37597-1.8413 0.73429-3.7352 1.0708-5.6826 15.598 10.98 29.244 17.503 37.803 17.503 3.1215 0 5.555-0.85132 7.2368-2.5358 6.6868-6.6868-1.4575-23.312-6.9064-32.632a177.66 177.66 0 0 0-8.0308-12.416c25.715-4.4729 42.43-12.276 42.43-21.323zm-37.118-66.653a7.722 7.722 0 0 0 10.014 9.0885c-0.5037 5.5512-3.586 13.383-9.0885 22.787a178.22 178.22 0 0 1-8.5132 13.083 273.57 273.57 0 0 0-24.654-2.8024 273.39 273.39 0 0 0-2.8024-24.673c14.134-10.061 26.607-16.414 35.044-17.475zm-34.668 44.091c0.15251 0.0142 0.30858 0.0213 0.46118 0.0319l0.0922 1.4509zm-21.689-2.7808h-0.96853l0.48239-1.4472zm-31.365 26.325-0.88679-1.0042c0.71655-0.81227 1.4406-1.6246 2.167-2.4373zm17.409 12.773 12.294-37.033h2.3519l12.435 37.033h-27.085zm-9.0096-35.344 0.0638-0.94695 0.29798-0.0177zm-2.4401 6.5658-2.731 7.3354a334.2 334.2 0 0 0-5.4809 6.0834 278.92 278.92 0 0 1-14.462-18.16 279.02 279.02 0 0 1 23.059-2.625c-0.15607 2.4195-0.2838 4.8774-0.39023 7.3672zm-6.7891 18.235-4.2073 11.309c-3.5475 0.0887-6.4916 2.5687-7.2969 5.8882-1.5044-0.21285-2.9797-0.43631-4.4344-0.66333a274.42 274.42 0 0 1 14.49-18.16zm31.862 28.624-0.0355 0.0355-0.0426-0.0355zm29.469-34.528c0.80167 0.89392 1.6002 1.7878 2.3838 2.6813l-0.97229 1.0887zm2.2346 5.9661c0.50726-0.56761 1.0183-1.1356 1.5185-1.7024a274.42 274.42 0 0 1 14.5 18.169c-3.0154 0.47892-6.1472 0.91523-9.3719 1.3017zm-4.1932-11.206-2.4974-6.6652a335.51 335.51 0 0 0-0.4044-7.7971c8.1978 0.60308 15.964 1.4932 23.115 2.625a274.23 274.23 0 0 1-14.5 18.169 336.74 336.74 0 0 0-5.7108-6.3358zm-5.1683-16.734-1.1206-0.0709-7.0697-18.883c1.8798-1.4472 3.7315-2.838 5.5625-4.1716 1.1356 7.1514 2.0253 14.922 2.625 23.125zm-22.383-67.131c7.981 0 15.176 16.818 19.38 41.773-1.9549 1.4087-3.937 2.8765-5.9417 4.4166l-3.2106-8.577h-20.685l-3.1468 8.4531c-1.9512-1.4894-3.877-2.9225-5.7821-4.2918 4.2111-24.955 11.403-41.773 19.38-41.773zm-19.746 44.006c1.7775 1.298 3.5832 2.6466 5.402 4.0506l-7.0772 19.014-0.95821 0.0603c0.60308-8.2016 1.4969-15.973 2.6325-23.125zm-45.151-17.128c1.2773-1.2773 3.2172-1.9258 5.768-1.9258 3.6433 0 8.272 1.2557 13.608 3.5757a7.722 7.722 0 0 0 13.496 7.2011 186.11 186.11 0 0 1 10.324 6.8745 273.39 273.39 0 0 0-2.8024 24.673 273.57 273.57 0 0 0-24.608 2.7949c-14.641-20.6-21.426-37.559-15.795-43.19zm-26.879 64.898c0-7.9745 16.79-15.157 41.707-19.371a273.48 273.48 0 0 0 15.429 19.38 274.61 274.61 0 0 0-15.391 19.361c-24.936-4.2111-41.745-11.403-41.745-19.371zm32.651 66.821c-2.5509 0-4.4907-0.64917-5.768-1.9258-4.1641-4.1641-1.5288-15.147 7.233-30.117a178.22 178.22 0 0 1 8.5132-13.083c1.8301 0.29798 3.7033 0.58178 5.6188 0.84428 0.08512 2.1388 1.0324 4.0478 2.5114 5.3917l-9.7698 26.231h21.736c-12.416 8.0167-23.059 12.651-30.079 12.651zm32.641-14.34 3.6677-10.999c0.34406 2.6353 0.71655 5.204 1.1243 7.6901-1.6208 1.1525-3.2172 2.2524-4.7892 3.3064zm5.2425-15.729 1.6386-4.9093h16.452l1.5823 1.3974a278.27 278.27 0 0 1-18.179 14.519 258.18 258.18 0 0 1-1.4969-11.009zm39.389 19.953c-0.0923 0-0.18451-0.0142-0.2838-0.0142a7.722 7.722 0 0 0-3.4086 14.641c-4.0018 12.726-9.0453 20.45-14.444 20.45-7.9782 0-15.176-16.818-19.38-41.773a277.05 277.05 0 0 0 19.38-15.391 277.23 277.23 0 0 0 19.38 15.391c-0.39023 2.3059-0.80167 4.5405-1.2416 6.6972zm1.6105-8.9392a278.36 278.36 0 0 1-18.179-14.519c0.52857-0.46118 1.0568-0.9294 1.5861-1.3974h16.377l1.6959 5.037a257.81 257.81 0 0 1-1.4791 10.887zm1.9474 1.4087a241.01 241.01 0 0 0 1.1102-7.6019l3.6714 10.905a202.62 202.62 0 0 1-4.7817-3.3026zm35.973-14.397c8.7619 14.979 11.393 25.959 7.233 30.117-1.2773 1.2801-3.2209 1.9296-5.7718 1.9296-7.0163 0-17.672-4.6362-30.079-12.651h21.736l-11.628-31.064c3.4518-0.41857 6.7891-0.88679 9.9951-1.4115a178.5 178.5 0 0 1 8.5132 13.083zm-7.6263-15.401a274.51 274.51 0 0 0-15.41-19.371 274.61 274.61 0 0 0 15.41-19.38c24.936 4.2111 41.745 11.403 41.745 19.38 0 7.9745-16.809 15.166-41.745 19.371z" opacity=".4" stroke-width="3.5475"/>
  <path d="m157.48 122.29c-1.3834-1.5429-2.7986-3.0858-4.2355-4.6324 0.17335 8.8322 0.0546 18.958-0.62785 29.694 4.5912-0.33543 9.1748-0.77784 13.749-1.327-2.9638-7.9088-5.921-15.823-8.882-23.735zm-6.47-10.014c-0.10296-2.7967-0.24129-5.5925-0.41501-8.3855-2.8099-7.508-5.6207-15.016-8.4315-22.524-4.3012 3.3326-8.5085 6.7835-12.613 10.352 6.3471 5.5719 13.796 12.548 21.464 20.553zm-9.5915-32.904-3.2069-8.5742h-20.685l-3.1468 8.4531c4.6437 3.5635 9.1795 7.2659 13.599 11.102 4.3716-3.7934 8.8548-7.4555 13.449-10.98zm14.106 37.681-2.4974-6.669c0.0568 1.3768 0.10286 2.7667 0.1419 4.1576 0.79107 0.83715 1.5786 1.6743 2.3556 2.5114zm11.609 31.027c-4.6822 0.56761-9.5821 1.0286-14.659 1.3909-0.3952 5.7061-0.95915 11.403-1.6921 17.071l3.6714 10.905c0.86201 0.57821 1.7203 1.1422 2.5687 1.6921h21.736zm-40.731-56.367c-4.1585-3.6076-8.4184-7.097-12.773-10.464l-13.421 36.039c8.9167-9.6384 17.691-18.094 26.194-25.574zm24.711 23.66c-8.8097-9.2912-16.884-16.809-23.134-22.289-9.798 8.6051-20.159 18.761-29.704 29.431-2.1126 5.6573-4.2158 11.318-6.3208 16.978l0.19868-8e-3c4.2214 0 7.6441 3.3842 7.7154 7.584 15.176 1.2951 32.951 1.603 50.642 0.4257 0.74912-11.253 0.88689-22.027 0.60656-32.116zm-36.714 23.359c4.5001-13.514 8.9646-27.038 13.468-40.553l13.618 40.553zm-14.791 10.446c-0.89327 3.3861-3.9539 5.7465-7.4564 5.7502-1.923-3.1e-4 -3.7765-0.7218-5.1937-2.0215l-9.7698 26.231h21.736c0.84784-0.5463 1.7024-1.1102 2.5649-1.6884 2.2918-6.8783 4.5827-13.758 6.8783-20.638h39.145l1.6959 5.037c0.45405-3.9483 0.84071-8.0383 1.1497-12.238-17.287 1.0999-33.983 0.9249-50.754-0.43631z" fill="#282828" stroke-width="3.5475"/>
  <path d="m129.04 101.78-0.69525-2.075h-0.96853l-0.68821 2.075 1.2801-4e-3z" fill="#ebdbb2" stroke-width="3.5475"/>
  <path d="m221.86 124.96c0-9.0453-16.705-16.846-42.43-21.313a177.75 177.75 0 0 0 8.0308-12.416c3.9051-6.6831 9.1983-17.118 9.4132-24.955a7.722 7.722 0 1 0-11.243-10.145c-8.6061 0.6882-21.586 7.0838-36.311 17.437-4.4692-25.743-12.276-42.458-21.323-42.458s-16.846 16.724-21.323 42.458a186.86 186.86 0 0 0-9.751-6.4419 7.722 7.722 0 0 0-13.496-7.2011c-5.7108-2.5039-10.671-3.8629-14.566-3.8629-3.1215 0-5.555 0.85132-7.2368 2.533-6.3921 6.3959-0.09929 23.716 14.913 45.058-25.706 4.4767-42.402 12.276-42.402 21.313 0 9.0453 16.705 16.846 42.43 21.323a177.66 177.66 0 0 0-8.027 12.416c-5.449 9.3156-13.599 25.94-6.9102 32.632 1.6818 1.678 4.1144 2.5293 7.2368 2.5293 8.5629 0 22.205-6.5273 37.803-17.503 4.4729 25.743 12.276 42.458 21.323 42.458 6.3208 0 12.032-8.1659 16.424-21.858a7.722 7.722 0 0 0 3.8244-14.922c0.37597-1.8376 0.73429-3.7315 1.0708-5.6761 15.598 10.971 29.244 17.503 37.803 17.503 3.1215 0 5.555-0.85132 7.2368-2.5358 6.6868-6.6868-1.4547-23.312-6.9064-32.632a177.66 177.66 0 0 0-8.0308-12.416c25.715-4.4729 42.43-12.276 42.43-21.323zm-37.118-66.653a7.722 7.722 0 0 0 10.014 9.0885c-0.5037 5.555-3.586 13.383-9.0885 22.787a178.22 178.22 0 0 1-8.5132 13.083 273.57 273.57 0 0 0-24.654-2.8024 273.39 273.39 0 0 0-2.8024-24.673c14.134-10.07 26.607-16.414 35.044-17.475zm-84.85 88.764a7.7192 7.7192 0 0 0-7.7154-7.584c-0.06739 0-0.1312 8e-3 -0.19868 0.0106-3.5475 0.0887-6.4916 2.5649-7.2969 5.8882-1.5044-0.21285-2.9797-0.43631-4.4344-0.6669a274.42 274.42 0 0 1 14.49-18.16l1.4434 1.632 0.83001-2.2308-0.88679-1.0042a337.49 337.49 0 0 1 8.7365-9.5727 358.41 358.41 0 0 1 15.833-15.682 336.08 336.08 0 0 1 7.3109-6.6118 335.98 335.98 0 0 1 9.5821 8.7478 356.73 356.73 0 0 1 13.552 13.543 345.37 345.37 0 0 1-0.60655 32.116 331.2 331.2 0 0 1-12.951 0.60656 346.59 346.59 0 0 1-22.28-0.0993 331.2 331.2 0 0 1-15.42-0.93296zm5.5268-43.678c0.0177-0.31572 0.0355-0.63143 0.0603-0.94695l0.29798-0.0177 0.80523-2.1642-0.95821 0.0638c0.60308-8.2016 1.4969-15.973 2.6325-23.125 1.7775 1.298 3.5832 2.6466 5.402 4.0506a292.16 292.16 0 0 1 12.773 10.474 337.2 337.2 0 0 0-11.121 10.22 355.97 355.97 0 0 0-15.063 15.354 334.2 334.2 0 0 0-5.4837 6.0834 278.92 278.92 0 0 1-14.462-18.169 279.02 279.02 0 0 1 23.059-2.6175c-0.15251 2.4157-0.2838 4.8736-0.3831 7.3644zm44.654-0.97511 0.46118 0.0283 0.0923 1.4509c0.17024 2.7526 0.30858 5.5512 0.415 8.3855a349.97 349.97 0 0 0-21.464-20.553 293 293 0 0 1 12.613-10.352c1.8798-1.4472 3.7315-2.838 5.5588-4.1716 1.1356 7.1514 2.029 14.922 2.6325 23.125l-1.1206-0.0709zm3.1252 32.979a366.2 366.2 0 0 0 0.078-17.738 340.77 340.77 0 0 1 6.6193 7.3109c-0.31928 0.36536-0.64916 0.73072-0.97229 1.0924l0.82298 2.1989 1.5185-1.71a274.32 274.32 0 0 1 14.5 18.169c-3.0154 0.47891-6.1472 0.91522-9.3719 1.3017-4.4128 0.53213-9.0068 0.97886-13.74 1.327 0.24832-3.8882 0.42927-7.875 0.5463-11.957zm2.3556-18.338c-0.77689-0.83715-1.5645-1.6743-2.3556-2.5114a335.51 335.51 0 0 0-0.54987-11.957c8.2016 0.60308 15.973 1.4969 23.115 2.6325a274.23 274.23 0 0 1-14.5 18.169 336.64 336.64 0 0 0-5.7108-6.3358zm-27.545-83.865c7.981 0 15.176 16.818 19.38 41.773-1.9549 1.4087-3.937 2.8765-5.9417 4.4128a292.16 292.16 0 0 0-13.439 10.98 291.59 291.59 0 0 0-13.599-11.102c-1.9512-1.4894-3.877-2.9225-5.7821-4.2918 4.2111-24.955 11.403-41.773 19.38-41.773zm-64.898 26.879c1.2773-1.2773 3.2172-1.9258 5.768-1.9258 3.6433 0 8.272 1.2557 13.608 3.5757a7.722 7.722 0 0 0 13.496 7.2011 186.11 186.11 0 0 1 10.324 6.8745 273.39 273.39 0 0 0-2.8024 24.673 273.57 273.57 0 0 0-24.608 2.7949c-14.641-20.6-21.426-37.559-15.795-43.19zm-26.879 64.898c0-7.9707 16.79-15.157 41.707-19.371a273.48 273.48 0 0 0 15.429 19.38 274.61 274.61 0 0 0-15.391 19.361c-24.936-4.2111-41.745-11.403-41.745-19.38zm65.292 52.481c-0.85845 0.57822-1.7137 1.1422-2.5612 1.6884-12.416 8.0167-23.059 12.651-30.079 12.651-2.5509 0-4.4907-0.64916-5.768-1.9258-4.1641-4.1641-1.5288-15.147 7.233-30.117a178.22 178.22 0 0 1 8.5132-13.083 237.07 237.07 0 0 0 5.6188 0.84427c0.08512 2.1388 1.0324 4.0478 2.5114 5.3917 1.373 1.2557 3.1928 2.0215 5.1937 2.0215 3.5832 0 6.5874-2.4439 7.4602-5.7502a312.05 312.05 0 0 0 5.9876 0.43631 340.58 340.58 0 0 0 15.072 0.62429 369.21 369.21 0 0 0 17.738-0.0745 340.58 340.58 0 0 0 11.957-0.54987 298.35 298.35 0 0 1-1.1497 12.247 257.24 257.24 0 0 1-1.4791 10.877 278.36 278.36 0 0 1-18.179-14.519c0.52856-0.46118 1.0568-0.9294 1.5861-1.4012h-3.1177l-0.0355 0.0355-0.0426-0.0355h-3.1149l1.5823 1.4012a278.27 278.27 0 0 1-18.179 14.519 258.09 258.09 0 0 1-1.4969-11.009l-1.5748 4.7254c0.34405 2.6391 0.71654 5.204 1.1206 7.6901-1.618 1.1562-3.2134 2.2562-4.7892 3.3092zm44.626 4.2214c-0.0923 0-0.18451-0.0106-0.28381-0.0106a7.722 7.722 0 0 0-3.4086 14.641c-4.0018 12.726-9.0453 20.45-14.444 20.45-7.9782 0-15.176-16.818-19.38-41.773a277.14 277.14 0 0 0 19.38-15.391 277.23 277.23 0 0 0 19.38 15.391c-0.39023 2.3059-0.80167 4.5405-1.2416 6.6972zm39.53-21.923c8.7619 14.969 11.393 25.95 7.233 30.117-1.2773 1.2773-3.221 1.9258-5.7718 1.9258-7.0162 0-17.672-4.6362-30.079-12.651a205.06 205.06 0 0 1-7.3504-4.9947c0.40083-2.458 0.76976-4.9947 1.1102-7.6019 0.70594-5.4058 1.2773-11.121 1.6959-17.071 5.0764-0.35832 9.9763-0.82297 14.659-1.3909 3.4518-0.41858 6.7891-0.88679 9.9951-1.4115a178.69 178.69 0 0 1 8.5132 13.083zm-7.6263-15.41a274.51 274.51 0 0 0-15.41-19.38 274.61 274.61 0 0 0 15.41-19.371c24.936 4.2111 41.745 11.403 41.745 19.371 0 7.9745-16.809 15.166-41.745 19.38z" fill="#ebdbb2" stroke-width="3.5475"/>
  <path d="m91 12c-72 0-85 15-85 87v56c0 70 13 85 85 85h74c72 0 85-15 85-85v-56c0-72-13-87-85-87zm0 4h74c68 0 80 15 80 83v56c0 66-12 81-80 81h-74c-68 0-80-15-80-81v-56c0-68 12-83 80-83z" fill="url(#linearGradient31)" style="isolation:isolate"/>
</svg>
