<svg width="256" height="256" version="1.1" xmlns="http://www.w3.org/2000/svg">
  <defs>
    <linearGradient id="linearGradient31" x1=".5002" x2=".5002" y2="1" gradientTransform="matrix(244,0,0,228,5.986,12)" gradientUnits="userSpaceOnUse">
      <stop stop-color="#ebdbb2" stop-opacity=".2" offset="0"/>
      <stop stop-color="#ebdbb2" stop-opacity=".05" offset=".1"/>
      <stop stop-opacity="0" offset=".7036"/>
      <stop stop-opacity=".1" offset=".8975"/>
      <stop stop-opacity=".2" offset="1"/>
    </linearGradient>
    <linearGradient id="linearGradient6" x1="140" x2="140" y1="12" y2="240" gradientUnits="userSpaceOnUse">
      <stop stop-color="#076678" offset="0"/>
      <stop stop-color="#458588" offset="1"/>
    </linearGradient>
  </defs>
  <path d="m165 12c72 0 85 15 85 87v56c0 70-13 85-85 85h-74c-72 0-85-15-85-85v-56c0-72 13-87 85-87z" fill="url(#linearGradient6)" style="isolation:isolate"/>
  <path d="m114.7 47.75c-9.0446 1.3683-13.622 13.505-14.103 30.948-2.9157-4.3389-6.4759-7.4575-10.721-6.9007-7.618 1.4037-10.872 12.439-10.383 26.506-13.082 0.84799-25.676 3.2218-36.953 7.6227 11.391-2.0726 24.153-2.6183 37.272-2.0382 0.98947 9.7724 3.6209 20.49 7.8695 30.436-9.7276 12.938-23.058 37.054-14.432 49.593 5.8918 7.5309 19.646 5.0029 35.993-4.1221-3.1912 5.5814-4.9338 11.346-1.7914 15.328 4.9835 5.6945 15.704 3.1194 27.191-4.0674 7.0777 10.615 15.177 20.104 24.331 27.539-7.2328-8.6553-13.865-19.163-19.743-30.518 8.1891-5.928 16.428-14.009 23.032-23.106 15.992 1.7908 44.094 0.99398 50.481-13.007 3.2851-8.5292-4.9768-18.513-19.87-27.558 5.6611-0.16394 10.603-1.6341 12.385-5.8587 2.6406-7.2338-5.0791-15.566-17.283-22.255 5.8036-11.453 10.105-23.256 12.083-34.97-4.0038 10.626-9.9241 21.65-16.964 32.419-9.4894-4.4137-20.916-7.7691-32.383-9.0212-6.476-14.855-20.892-38.318-36.011-36.971zm85.358 13.573c7e-3 -0.01964 0.0197-0.03473 0.0276-0.05483h-0.0182c-4e-3 0.01964-5e-3 0.03473-7e-3 0.05483zm-75.414 5.9045c6.2442 0.06936 12.57 9.3776 19.13 16.964-11.442-0.36189-22.411 1.6739-30.966 7.047 0.45123-12.493 3.572-21.385 9.9626-23.736 0.62409-0.19138 1.2485-0.28119 1.8737-0.27421zm-29.522 15.282c1.8502 0.19329 3.6932 1.7571 5.5206 3.7931 0.13575 3.8045 0.43683 7.801 0.90485 11.937-4.3188-0.24986-8.616-0.31015-12.896-0.26508 0.26099-7.8884 1.831-13.777 4.5975-15.164 0.62587-0.27513 1.2503-0.36675 1.8737-0.30159zm46.02 8.1802c3.7954 0.19138 7.594 0.77522 11.352 1.5172 0.45226 0.25799 0.89742 0.52612 1.3527 0.72205-0.0347-0.12637-0.12616-0.33417-0.16456-0.46614 8.978 1.9004 17.45 5.0723 24.358 8.683-2.3543 3.3168-4.8778 6.5255-7.4033 9.7433-3.4858-5.4419-8.7924-10.463-16.415-14.743v0.01815c6.314 5.174 10.553 10.622 13.152 16.178-14.924-5.597-32.183-10.077-49.968-12.403 0 0-0.78056 8.3468-0.50272 7.8695 20.416 4.0418 39.773 10.514 53.689 17.923 0.8196 22.001-18.887 43.42-35.363 54.236-1.6584-3.5317-3.1318-7.1513-4.634-10.776 6.2264-0.34267 12.962-2.3057 20.217-6.4803-7.7514 2.8002-14.66 3.6166-20.802 2.9614 12.616-10.013 25.49-22.699 36.752-36.981 0 0-6.7489-4.9406-6.4711-4.4421-14.14 15.662-29.85 29.102-43.47 37.218-11.64-6.5135-19.183-19.384-23.545-32.904-0.01192-0.32375 0.0068-0.66576-0.02747-0.97798-0.0621 0.062-0.14668 0.18212-0.21024 0.2468-2.5251-8.0545-3.9098-16.183-4.3049-23.389 3.7887 0.31242 7.5629 0.83128 11.352 1.3162-2.4282 5.2886-3.8864 11.617-3.9576 19.295 1.3313-7.1511 3.6678-12.908 6.7088-17.594 2.5502 15.59 7.1737 32.597 13.865 49.008 0 0 7.6299-3.4732 7.0744-3.4732v-0.0275c-6.6102-19.813-10.565-39.905-10.995-55.691 8.1036-5.3651 18.133-7.1059 28.361-6.59zm42.464 13.665c6.5218 4.1835 10.679 8.4682 10.465 11.526-0.34831 2.9492-3.7511 4.0739-7.8147 4.7894-3.0954-1.6213-6.4187-3.1718-9.8986-4.6889 2.5786-3.8023 4.9773-7.6924 7.248-11.627zm-7.6868 24.44c10.64 6.5766 16.827 13.704 15.711 20.447-1.619 7.1459-14.652 7.8877-25.61 10.155 6.0906-9.8038 10.028-20.423 9.8986-30.601zm-85.277 11.809c5.2159 10.064 12.158 18.751 20.757 23.855-10.812 5.4988-19.847 7.0455-24.953 2.7237-5.2062-4.9466 0.49237-16.172 4.1953-26.579zm32.401 30.345c2.0818 4.2124 4.339 8.3022 6.6996 12.303-6.5522 3.4952-12.067 4.9692-14.579 3.3635-2.656-1.8911-1.5946-5.979 0-10.346 2.5887-1.634 5.2141-3.4023 7.8787-5.3195z" fill="#282828" opacity=".2" stroke-width="1.0615" style="isolation:isolate;paint-order:stroke fill markers"/>
  <path d="m114.7 42.858c-9.0446 1.3683-13.622 13.505-14.103 30.948-2.9157-4.3389-6.4759-7.4575-10.721-6.9007-7.618 1.4037-10.872 12.44-10.383 26.506-13.082 0.84799-25.676 3.2218-36.953 7.6227 11.391-2.0726 24.153-2.6183 37.272-2.0382 0.98947 9.7724 3.6209 20.49 7.8695 30.436-9.7276 12.938-23.058 37.054-14.432 49.593 5.8918 7.5309 19.646 5.0028 35.993-4.1221-3.1912 5.5814-4.9338 11.346-1.7914 15.328 4.9835 5.6945 15.704 3.1194 27.191-4.0674 7.0777 10.615 15.177 20.104 24.331 27.539-7.2328-8.6553-13.865-19.163-19.743-30.518 8.1891-5.9281 16.428-14.009 23.032-23.106 15.992 1.7908 44.094 0.99398 50.481-13.007 3.2851-8.5292-4.9768-18.513-19.87-27.558 5.6611-0.16394 10.603-1.6341 12.385-5.8587 2.6406-7.2338-5.0791-15.566-17.283-22.255 5.8036-11.453 10.105-23.256 12.083-34.97-4.0038 10.626-9.9241 21.65-16.964 32.419-9.4894-4.4137-20.916-7.7691-32.383-9.0212-6.476-14.855-20.892-38.318-36.011-36.971zm85.358 13.573c7e-3 -0.01968 0.0197-0.03469 0.0276-0.05484h-0.0182c-4e-3 0.01968-5e-3 0.03469-7e-3 0.05484zm-75.414 5.9045c6.2442 0.06935 12.57 9.3776 19.13 16.964-11.442-0.36189-22.411 1.6739-30.966 7.047 0.45123-12.493 3.572-21.385 9.9626-23.736 0.62409-0.19138 1.2485-0.28119 1.8737-0.2742zm-29.522 15.282c1.8502 0.1933 3.6932 1.7571 5.5205 3.7931 0.13575 3.8045 0.43683 7.801 0.90485 11.937-4.3188-0.24986-8.616-0.31015-12.896-0.26508 0.26099-7.8884 1.831-13.777 4.5975-15.164 0.62587-0.27513 1.2503-0.36675 1.8737-0.30159zm46.02 8.1804c3.7954 0.19138 7.594 0.77522 11.352 1.5172 0.45226 0.25799 0.89742 0.52611 1.3527 0.72206-0.0347-0.12638-0.12616-0.33418-0.16456-0.46615 8.978 1.9004 17.45 5.0723 24.358 8.683-2.3543 3.3168-4.8778 6.5255-7.4033 9.7433-3.4858-5.4419-8.7924-10.463-16.415-14.743v0.01813c6.314 5.174 10.553 10.622 13.152 16.178-14.924-5.597-32.183-10.077-49.968-12.403 0 0-0.78056 8.3468-0.50272 7.8695 20.416 4.0418 39.773 10.514 53.689 17.923 0.8196 22.001-18.887 43.42-35.363 54.236-1.6584-3.5317-3.1318-7.1513-4.634-10.776 6.2264-0.34268 12.962-2.3057 20.217-6.4803-7.7514 2.8002-14.66 3.6166-20.802 2.9614 12.616-10.013 25.49-22.699 36.752-36.981 0 0-6.7489-4.9406-6.4711-4.4421-14.14 15.662-29.85 29.102-43.47 37.218-11.64-6.5135-19.183-19.384-23.545-32.904-0.01192-0.32377 0.0068-0.66577-0.02747-0.97799-0.0621 0.062-0.14668 0.18213-0.21024 0.2468-2.5251-8.0545-3.9098-16.183-4.3049-23.389 3.7887 0.31243 7.5629 0.8313 11.352 1.3162-2.4282 5.2886-3.8864 11.617-3.9576 19.295 1.3313-7.1511 3.6678-12.908 6.7088-17.594 2.5502 15.59 7.1737 32.597 13.865 49.008 0 0 7.6299-3.4732 7.0744-3.4732v-0.0275c-6.6102-19.813-10.565-39.905-10.995-55.691 8.1036-5.3651 18.133-7.1059 28.361-6.59zm42.464 13.665c6.5218 4.1835 10.679 8.4682 10.465 11.526-0.34831 2.9491-3.7511 4.0739-7.8147 4.7894-3.0954-1.6212-6.4187-3.1718-9.8986-4.6889 2.5786-3.8023 4.9773-7.6924 7.248-11.627zm-7.6868 24.44c10.64 6.5766 16.827 13.704 15.711 20.447-1.619 7.1459-14.652 7.8877-25.61 10.155 6.0906-9.8038 10.028-20.423 9.8986-30.601zm-85.277 11.809c5.2159 10.064 12.158 18.751 20.757 23.855-10.812 5.4988-19.847 7.0455-24.953 2.7237-5.2062-4.9466 0.49237-16.172 4.1953-26.579zm32.401 30.345c2.0818 4.2124 4.339 8.3022 6.6996 12.303-6.5522 3.4952-12.067 4.9692-14.579 3.3635-2.656-1.8911-1.5946-5.979 0-10.346 2.5887-1.634 5.2141-3.4023 7.8787-5.3195z" fill="#ebdbb2" stroke-width="1.0615" style="isolation:isolate;paint-order:stroke fill markers"/>
  <path d="m116.12 42.805c-0.47022-0.0053-0.9442 0.01272-1.416 0.05469-9.0434 1.3697-13.621 13.508-14.102 30.949-2.9157-4.3389-6.4754-7.4591-10.721-6.9023-7.5771 1.3962-10.837 12.323-10.391 26.281 0.3992-11.556 3.7226-20.16 10.389-21.389 4.2453-0.55676 7.805 2.5615 10.721 6.9004 0.48086-17.443 5.0589-29.579 14.104-30.947v-2e-3c15.119-1.347 29.536 22.116 36.012 36.971 11.467 1.252 22.893 4.6078 32.383 9.0215 5.6698-8.6732 10.613-17.511 14.414-26.174 1.0654-3.711 1.9249-7.4279 2.5508-11.135-4.0038 10.625-9.9254 21.65-16.965 32.418-9.4894-4.4137-20.915-7.7694-32.383-9.0215-6.2736-14.39-19.999-36.86-34.596-37.025zm83.943 13.629h2e-3c2.6e-4 -0.0027 2e-3 -0.0053 2e-3 -0.0078-9.1e-4 2e-3 -3e-3 0.0057-4e-3 0.0078zm4e-3 -0.0078c7e-3 -0.01605 0.0166-0.02947 0.0234-0.04687h-0.0176c-3e-3 0.01705-4e-3 0.03045-6e-3 0.04687zm-60.4 22.852c-9.7817 0.19883-19.033 2.2782-26.496 6.8496-0.17445 1.6254-0.29313 3.3331-0.35743 5.1133 8.5546-5.3731 19.523-7.4088 30.965-7.0469-1.3806-1.5965-2.75-3.2691-4.1113-4.916zm50.189 13.187c-0.60654 1.2803-1.2322 2.5558-1.877 3.8281 9.2418 5.0658 15.912 11.075 17.459 16.834 1.9748-6.7272-4.7613-14.334-15.582-20.662zm-33.545 0.5957c4.4537 3.9884 7.733 8.1249 10.027 12.336 1.6669 1.7722 3.0942 3.6074 4.3027 5.4941 2.5255-3.2178 5.048-6.4254 7.4023-9.7422-0.85161-0.4451-1.7259-0.88424-2.623-1.3145-1.5632 2.0716-3.1713 4.1172-4.7793 6.166-2.9102-4.5433-7.0895-8.794-12.826-12.564-0.49909-0.12903-1.0007-0.25347-1.5039-0.375zm-67.295 0.0215c-0.18332 1.5168-0.30384 3.1569-0.36133 4.8945 4.2802-0.0451 8.5777 0.0158 12.896 0.26562-0.18823-1.6633-0.35005-3.3051-0.48438-4.9199-4.0343-0.22034-8.0501-0.27676-12.051-0.24024zm-9.5332 0.33202c-13.077 0.84883-25.666 3.2218-36.939 7.6211 9.5518-1.738 20.069-2.4014 30.951-2.2285 1.9871-0.20459 3.9887-0.37145 6.002-0.50195-0.05828-1.677-0.06285-3.311-0.01367-4.8906zm37.928 1.6367s-0.7073 7.5852-0.5332 7.8828c7.4e-4 9.7e-4 3e-3 5e-3 4e-3 6e-3 8.1e-4 4.7e-4 5e-3 -2.3e-4 6e-3 0h2e-3c8.9e-4 -2.9e-4 5e-3 -3e-3 6e-3 -4e-3 4e-3 -3e-3 7e-3 -8e-3 0.0117-0.0156 0.0784 0.0155 0.15798 0.0313 0.23633 0.0469 0.13565-1.6222 0.26563-3.0254 0.26563-3.0254 17.785 2.326 35.045 6.8073 49.969 12.404-0.97907-2.0932-2.1902-4.1728-3.6582-6.2266-14.054-4.9729-29.959-8.9302-46.309-11.068zm-4.3984 2.082c-0.0757 0.0493-0.15116 0.0985-0.22656 0.14843 0.40013 14.7 3.8566 33.132 9.668 51.598 0.77745-0.38592 1.3247-0.67917 1.3555-0.75391v-0.01h-2e-3v-2e-3l-2e-3 -2e-3h-4e-3l-2e-3 -2e-3c-5e-3 -1e-3 -0.01-2e-3 -0.0176-2e-3v-0.0274c-5.9648-17.878-9.7681-35.984-10.77-50.947zm-24.275 7.3145c0.39509 7.2065 1.7796 15.334 4.3047 23.389 0.06356-0.0647 0.14884-0.18409 0.21094-0.24609 0.03427 0.31222 0.01542 0.65474 0.02734 0.97851 4.3617 13.52 11.905 26.391 23.545 32.904 13.619-8.1162 29.33-21.556 43.471-37.219-4e-3 -7e-3 -7e-3 -0.0127-8e-3 -0.0176v-2e-3l-2e-3 -2e-3v-2e-3l2e-3 -2e-3v-6e-3h2e-3l4e-3 -4e-3h4e-3c0.18264-0.0117 2.2395 1.4296 3.9844 2.6797 0.83641-1.0225 1.6643-2.0539 2.4844-3.0938 0 0-0.0236-0.0186-0.0703-0.0527-2.3367-1.1364-4.798-2.2466-7.3672-3.3242-11.601 12.703-24.193 23.877-35.783 31.836 0.078 0.23603 0.15565 0.47106 0.23437 0.70703v0.0293c8e-3 0 0.0149 5.2e-4 0.0195 2e-3h2e-3l2e-3 2e-3h2e-3l4e-3 4e-3v8e-3c-0.089 0.20234-3.849 1.959-5.8613 2.8867-0.3757 0.22998-0.74845 0.45565-1.1211 0.67773-11.64-6.5135-19.183-19.384-23.545-32.904-0.01192-0.32377 0.0069-0.6663-0.02734-0.97852-0.0621 0.062-0.14738 0.18338-0.21094 0.24805-1.9644-6.2659-3.2395-12.576-3.8945-18.463-0.13734-0.0119-0.27473-0.0238-0.41211-0.0352zm9.5605 1.0859c-1.3401 4.2525-2.1126 9.0904-2.1641 14.633 0.17374-0.9332 0.36301-1.8421 0.57031-2.7285 0.64542-4.3841 1.8114-8.247 3.3848-11.674-0.59736-0.0765-1.1943-0.15328-1.791-0.23047zm80.557 6.6641c-0.81261 1.2706-1.6424 2.532-2.4922 3.7852 3.4799 1.5171 6.803 3.0682 9.8984 4.6894 4.0635-0.71545 7.4661-1.84 7.8144-4.7891 0.0616-0.88269-0.24075-1.8686-0.85937-2.9238-1.3173 1.542-3.9548 2.2944-6.9531 2.8223-2.3482-1.2298-4.8289-2.4192-7.4082-3.584zm20.131 11.35c-1.8338 0.53854-3.9168 0.79789-6.1074 0.86133 11.334 6.8832 18.828 14.309 20.314 21.225 1.6047-6.9265-3.9626-14.693-14.207-22.086zm-28.529 2.1133c-1.2995 13.806-10.091 27.089-20.393 37.322 0.25015-0.0868 0.50004-0.17658 0.75196-0.26758-0.37462 0.21554-0.7473 0.42507-1.1191 0.6289-4.711 4.631-9.7208 8.623-14.463 11.736-0.93548-1.9922-1.8118-4.0135-2.668-6.0469-0.66108 0.0717-1.3168 0.12633-1.9668 0.16211 1.5021 3.625 2.9764 7.2437 4.6348 10.775 16.476-10.817 36.183-32.236 35.363-54.236-0.0465-0.0248-0.094-0.0495-0.14063-0.0742zm-84.053 5.5156c-7.782 10.797-17.076 27.779-15.811 40.191 1.1209-12.45 10.051-27.675 17.094-37.041-0.44502-1.0418-0.8737-2.0936-1.2832-3.1504zm105.03 13.893c-2.0829 5.8507-12.48 7.0455-22.266 8.832-0.96448 1.8549-2.0158 3.6907-3.1387 5.498 10.958-2.2668 23.992-3.0084 25.611-10.154 0.22804-1.3782 0.15077-2.7734-0.20703-4.1758zm-40.611 12.756c-5.4317 1.9622-10.45 2.9485-15.08 3.1387-1.3016 1.1106-2.6042 2.1956-3.9043 3.252 5.8799-0.52149 12.206-2.4904 18.984-6.3906zm-66.234 1.0469c-0.54012 3.4541-0.1795 6.3698 1.8672 8.3144 5.1058 4.3218 14.141 2.7742 24.953-2.7246-1.4609-0.86717-2.8733-1.8371-4.2383-2.9004-8.9201 3.8171-16.29 4.4759-20.713 0.73242-0.98214-0.93316-1.5765-2.0895-1.8691-3.4219zm46.299 6.1133c-0.28925 0.23217-0.57818 0.46203-0.86718 0.69141 0.39632 0.0423 0.79453 0.0795 1.1973 0.10937-0.11037-0.26681-0.21963-0.53383-0.33008-0.80078zm-3.3184 14.486c-5.579 2.681-10.166 3.6797-12.393 2.2559-0.5768-0.41068-0.97952-0.92518-1.2383-1.5234-0.65908 2.7635-0.59461 5.1104 1.2363 6.4141 2.5115 1.6057 8.0259 0.13193 14.578-3.3633-0.73869-1.2519-1.4674-2.5128-2.1836-3.7832zm-18.316 0.32617c-0.95871 0.53515-1.9078 1.048-2.8477 1.5371-0.62883 2.1858-0.80874 4.2772-0.31445 6.1484 0.51422-2.4709 1.6824-5.0975 3.1621-7.6856zm31.846 6.9004c-0.61886 0.47221-1.2384 0.93275-1.8574 1.3809 2.7028 5.2217 5.5651 10.264 8.5723 15.029 3.5326 3.8597 7.2562 7.4171 11.172 10.598-6.4812-7.756-12.481-17-17.887-27.008z" fill="#fbf1c7" opacity=".6" stroke-width="1.0615" style="isolation:isolate;paint-order:stroke fill markers"/>
  <path d="m91 12c-72 0-85 15-85 87v56c0 70 13 85 85 85h74c72 0 85-15 85-85v-56c0-72-13-87-85-87zm0 4h74c68 0 80 15 80 83v56c0 66-12 81-80 81h-74c-68 0-80-15-80-81v-56c0-68 12-83 80-83z" fill="url(#linearGradient31)" style="isolation:isolate"/>
</svg>
