<svg width="256" height="256" version="1.1" xmlns="http://www.w3.org/2000/svg">
  <defs>
    <linearGradient id="linearGradient10" x1="128" x2="128" y1="12" y2="240" gradientUnits="userSpaceOnUse">
      <stop stop-color="#ebdbb2" stop-opacity=".2" offset="0"/>
      <stop stop-color="#ebdbb2" stop-opacity="0" offset=".24921"/>
      <stop stop-color="#1d2021" stop-opacity=".05" offset=".50485"/>
      <stop stop-color="#1d2021" stop-opacity=".15" offset=".75285"/>
      <stop stop-color="#1d2021" stop-opacity=".25" offset="1"/>
    </linearGradient>
    <linearGradient id="linearGradient15" x1="128" x2="128" y1="12" y2="240" gradientUnits="userSpaceOnUse">
      <stop stop-color="#458588" offset="0"/>
      <stop stop-color="#076678" offset="1"/>
    </linearGradient>
  </defs>
  <path d="m165 12c72 0 85 15 85 87v56c0 70-13 85-85 85h-74c-72 0-85-15-85-85v-56c0-72 13-87 85-87z" fill="url(#linearGradient15)" style="isolation:isolate"/>
  <path d="m65.489 96.235c0-24.208 19.535-44.125 44.224-44.125h36.574c24.424 0 44.224 19.701 44.224 44.125-0.0294 13.154-5.774 24.485-13.77 32.021l-8.3789 8.3505c12.202 7.1189 22.048 18.288 22.048 33.434 0 22.679-18.386 38.959-41.065 38.959h-61.793v-74.538c-13.061-7.6224-22.063-21.878-22.063-38.227zm44.224-31.868c-17.871 0-31.967 14.364-31.967 31.868 0 17.505 14.096 31.868 31.967 31.868h15.226l-8.4691 42.823 51.661-51.393c5.9182-5.5157 10.122-13.859 10.122-23.298 0-17.773-14.555-32.06-31.967-31.868z" clip-rule="evenodd" fill="#282828" fill-rule="evenodd" opacity=".3" stroke-width="4.9028"/>
  <path d="m65.489 91.235c0-24.208 19.535-44.125 44.224-44.125h36.574c24.424 0 44.224 19.701 44.224 44.125-0.0294 13.154-5.774 24.485-13.77 32.021l-8.3789 8.3505c12.202 7.1189 22.048 18.288 22.048 33.434 0 22.679-18.386 38.959-41.065 38.959h-61.793v-74.538c-13.061-7.6224-22.063-21.878-22.063-38.227zm44.224-31.868c-17.871 0-31.967 14.364-31.967 31.868 0 17.505 14.096 31.868 31.967 31.868h15.226l-8.4691 42.823 51.661-51.393c5.9182-5.5157 10.122-13.859 10.122-23.298 0-17.773-14.555-32.06-31.967-31.868z" clip-rule="evenodd" fill="#ebdbb2" fill-rule="evenodd" stroke-width="4.9028"/>
  <path d="m109.71 47.11c-24.689 0-44.225 19.919-44.225 44.127 0 0.83691 0.0238 1.6669 0.07031 2.4922 1.2932-23.061 20.322-41.619 44.154-41.619h36.574c23.569 0 42.833 18.348 44.152 41.58 0.046-0.81023 0.0704-1.6281 0.0723-2.4531 0-24.424-19.801-44.127-44.225-44.127zm68.443 46.613c-0.6623 8.4112-4.6307 15.785-10.023 20.811l-50.432 50.168-1.2305 6.2246 51.662-51.393c5.9182-5.5156 10.121-13.858 10.121-23.297 0-0.84595-0.033-1.6847-0.0977-2.5137zm-100.31 0.0117c-0.06393 0.82526-0.0957 1.661-0.0957 2.502 0 17.505 14.095 31.867 31.967 31.867h14.238l0.98828-5h-15.227c-17.013 0-30.604-13.018-31.871-29.369zm93.605 39.797-3.0859 3.0762c11.553 6.74 20.995 17.11 21.967 31.049 0.0547-0.8618 0.082-1.7335 0.082-2.6152 0-13.845-8.2272-24.367-18.961-31.51-4.6e-4 -3e-4 -1e-3 3.1e-4 -2e-3 0z" fill="#fbf1c7" opacity=".6" stroke-width="4.9028"/>
  <path d="m91 12c-72 0-85 15-85 87v56c0 70 13 85 85 85h74c72 0 85-15 85-85v-56c0-72-13-87-85-87zm0 5h74c35.653 0 55.307 3.9448 65.895 14.965 10.588 11.02 14.105 31.336 14.105 67.035v56c0 34.69-3.4936 54.457-14.07 65.25-10.577 10.793-30.277 14.75-65.93 14.75h-74c-35.653 0-55.353-3.9574-65.93-14.75-10.577-10.793-14.07-30.56-14.07-65.25v-56c0-35.699 3.5176-56.015 14.105-67.035 10.588-11.02 30.242-14.965 65.895-14.965z" fill="url(#linearGradient10)" style="isolation:isolate"/>
</svg>
