<svg width="256" height="256" version="1.1" xmlns="http://www.w3.org/2000/svg">
  <defs>
    <linearGradient id="linearGradient31" x1=".5002" x2=".5002" y2="1" gradientTransform="matrix(244,0,0,228,5.986,12)" gradientUnits="userSpaceOnUse">
      <stop stop-color="#ebdbb2" stop-opacity=".2" offset="0"/>
      <stop stop-color="#ebdbb2" stop-opacity=".1" offset=".1"/>
      <stop stop-opacity=".051282" offset=".7036"/>
      <stop stop-opacity=".1" offset=".8975"/>
      <stop stop-opacity=".2" offset="1"/>
    </linearGradient>
    <linearGradient id="linearGradient9" x1="119.49" x2="119.49" y1="12" y2="240" gradientUnits="userSpaceOnUse">
      <stop stop-color="#458588" offset="0"/>
      <stop stop-color="#076678" offset="1"/>
    </linearGradient>
    <linearGradient id="b-9-6" x1=".6312" x2=".6312" y1=".4998" y2=".9998" gradientTransform="matrix(244,0,0,228,5.995,12)" gradientUnits="userSpaceOnUse">
      <stop stop-color="#fe8019" offset="0"/>
      <stop stop-color="#d65d0e" offset="1"/>
    </linearGradient>
  </defs>
  <path d="m165 12c72 0 85 15 85 87v56c0 70-13 85-85 85h-74c-72 0-85-15-85-85v-56c0-72 13-87 85-87z" fill="url(#linearGradient9)" style="isolation:isolate"/>
  <path d="m122.84 42.437v44.457h-44.457v38.106h44.457v95.265h38.106v-95.265h44.457v-38.106h-44.457v-44.457z" fill="#282828" opacity=".2" stroke-width="6.351"/>
  <path d="m122.84 37.086v44.457h-44.457v38.106h44.457v95.265h38.106v-95.265h44.457v-38.106h-44.457v-44.457z" fill="#fabd2f" stroke-width="6.351"/>
  <path d="m122.84 37.086v5.3516h38.105v-5.3516zm-44.457 44.457v5.3516h44.457v-5.3516zm82.562 0v5.3516h44.457v-5.3516z" fill="#ebdbb2" opacity=".4" stroke-width="6.351"/>
  <path d="m55.594 13.975c-40.998 5.9179-49.547 26.818-49.594 84.558v56.904c0.0468 56.139 8.5959 76.744 49.594 82.602z" fill="#32302f" opacity=".4" style="isolation:isolate"/>
  <g transform="translate(.0059 .0497)" style="isolation:isolate">
    <path d="m250 124.82-29.932 0.32363c-81.008 0.87549-94.966 4.4497-96.093 80.376-0.34358 11.488-0.0783 22.956 0.4422 34.434 2.1e-4 4e-3 37.418 4e-3 37.687 4e-3 74.443 0 87.884-15.156 87.884-85.882z" fill="#282828" opacity=".3" stroke-width="1.0221" style="isolation:isolate"/>
    <path d="m250 126-28.95 0.3203c-78.35 0.8665-91.85 4.404-92.94 79.55-0.3323 11.37-0.0757 22.72 0.4277 34.08 1.9e-4 4e-3 36.19 4e-3 36.45 4e-3 72 0 85-15 85-85z" fill="url(#b-9-6)" style="isolation:isolate"/>
    <path d="m191.71 149.62c-19.698 0-35.666 15.968-35.666 35.666 0 19.698 15.968 35.666 35.666 35.666s35.666-15.968 35.666-35.666c0-19.698-15.968-35.666-35.666-35.666zm0 10.19c14.068 0 25.476 11.408 25.476 25.476 0 14.068-11.408 25.476-25.476 25.476s-25.476-11.408-25.476-25.476c0-14.068 11.408-25.476 25.476-25.476zm-5.0951 5.0951v25.476h25.476v-10.19h-15.285v-15.285z" fill="#282828" opacity=".3" stroke-width="5.0951" style="isolation:isolate"/>
    <path d="m191.71 145.81c-19.698 0-35.666 15.968-35.666 35.666 0 19.698 15.968 35.666 35.666 35.666s35.666-15.968 35.666-35.666c0-19.698-15.968-35.666-35.666-35.666zm0 10.19c14.068 0 25.476 11.408 25.476 25.476 0 14.068-11.408 25.476-25.476 25.476s-25.476-11.408-25.476-25.476c0-14.068 11.408-25.476 25.476-25.476zm-5.0951 5.0951v25.476h25.476v-10.19h-15.285v-15.285z" fill="#ebdbb2" stroke-width="5.0951"/>
    <path d="m191.71 145.81c-19.698 0-35.666 15.968-35.666 35.666 0 0.63877 0.0176 1.2738 0.0508 1.9043 0.98961-18.812 16.556-33.762 35.615-33.762s34.626 14.949 35.615 33.762c0.0332-0.63051 0.0508-1.2655 0.0508-1.9043 0-19.698-15.968-35.666-35.666-35.666zm-5.0957 15.285v3.8086h10.191v-3.8086zm10.191 15.287v3.8066h15.285v-3.8066zm-30.502 6.998c-0.0465 0.62864-0.0703 1.2638-0.0703 1.9043 0 14.068 11.409 25.477 25.477 25.477s25.477-11.409 25.477-25.477c0-0.64049-0.0238-1.2756-0.0703-1.9043-0.9742 13.179-11.979 23.572-25.406 23.572-13.427 0-24.432-10.394-25.406-23.572z" fill="#fbf1c7" opacity=".6" stroke-width="5.0951" style="isolation:isolate"/>
  </g>
  <path d="m91 12c-72 0-85 15-85 87v56c0 70 13 85 85 85h74c72 0 85-15 85-85v-56c0-72-13-87-85-87zm0 4h74c68 0 80 15 80 83v56c0 66-12 81-80 81h-74c-68 0-80-15-80-81v-56c0-68 12-83 80-83z" fill="url(#linearGradient31)" style="isolation:isolate"/>
</svg>
