<svg xmlns="http://www.w3.org/2000/svg" xmlns:xlink="http://www.w3.org/1999/xlink" width="256" height="256" version="1.0" enable-background="new">
    <defs>
        <filter id="b" width="1.046" height="1.05" x="-.02" y="-.03" color-interpolation-filters="sRGB">
            <feGaussianBlur stdDeviation="2.32"/>
        </filter>
        <filter id="c" width="1.023" height="1.025" x="-.01" y="-.01" color-interpolation-filters="sRGB">
            <feGaussianBlur stdDeviation="1.16"/>
        </filter>
        <linearGradient id="e" x1="296" x2="296" y1="-212" y2="236" gradientUnits="userSpaceOnUse" xlink:href="#a"/>
        <linearGradient id="a">
            <stop offset="0" stop-color="#ebdbb2"/>
            <stop offset=".125" stop-color="#ebdbb2" stop-opacity=".098"/>
            <stop offset=".925" stop-opacity=".098"/>
            <stop offset="1" stop-opacity=".498"/>
        </linearGradient>
        <clipPath id="d" clipPathUnits="userSpaceOnUse">
            <path d="M361.938-212C507.235-212 528-191.287 528-46.125v116.25C528 215.286 507.235 236 361.937 236H214.063C68.766 236 48 215.286 48 70.125v-116.25C48-191.287 68.765-212 214.063-212z" fill="#b16286"/>
        </clipPath>
    </defs>
    <path d="M162.537 62.432c72.648 0 83.031 10.357 83.031 82.937v58.125c0 72.581-10.383 82.938-83.031 82.938H88.599c-72.648 0-83.031-10.357-83.031-82.938V145.37c0-72.58 10.383-82.937 83.031-82.937z" opacity=".2" filter="url(#b)" transform="translate(0 -44)"/>
    <path d="M162.537 61.432c72.648 0 83.031 10.357 83.031 82.937v58.125c0 72.581-10.383 82.938-83.031 82.938H88.599c-72.648 0-83.031-10.357-83.031-82.938V144.37c0-72.58 10.383-82.937 83.031-82.937z" opacity=".1" filter="url(#c)" transform="translate(0 -44)"/>
    <path d="M162.537 16.432c72.648 0 83.031 10.357 83.031 82.937v58.125c0 72.581-10.383 82.938-83.031 82.938H88.599c-72.648 0-83.031-10.357-83.031-82.938V99.37c0-72.58 10.383-82.937 83.031-82.937z" fill="#b16286"/>
    <g stroke="#ebdbb2" fill="#ebdbb2">
        <path d="M241.764 205.46c.355-1.448.75-2.818 1.047-4.386.345-1.832.594-3.883.865-5.885H132.594a66.739 66.739 0 0 1-57.815-33.378 66.738 66.738 0 0 1 0-66.758 66.739 66.739 0 0 1 57.815-33.38V51.405a77.049 77.049 0 0 0-66.71 38.514 77.047 77.047 0 0 0 0 77.027 77.05 77.05 0 0 0 66.71 38.516h109.17z"/>
        <path d="M244.729 184.92c.075-1.033.188-1.952.251-3.024.127-2.147.092-4.944.174-7.248h-112.56a46.187 46.187 0 0 1-42.688-28.502 46.186 46.186 0 0 1 9.963-50.351 46.188 46.188 0 0 1 50.326-10.098l3.912-9.494a56.388 56.388 0 0 0-24.486-4.176c-13.685.727-26.952 6.416-37.023 16.514-16.114 16.157-20.922 40.467-12.176 61.543s29.353 34.836 52.172 34.836h112.135z"/>
    </g>
    <g>
        <path d="M361.938-212C507.235-212 528-191.287 528-46.125v116.25C528 215.286 507.235 236 361.937 236H214.063C68.766 236 48 215.286 48 70.125v-116.25C48-191.287 68.765-212 214.063-212z" clip-path="url(#d)" transform="matrix(.5 0 0 .5 -18.432 122.432)" opacity=".4" fill="none" stroke="url(#e)" stroke-width="8" stroke-linecap="round" stroke-linejoin="round"/>
        <path d="M183.688 223.25l-6.453-35.256 1.193 7.503-153.534 1.565 158.022 26.663z" fill-opacity="0"/>
        <g clip-rule="evenodd" fill-rule="evenodd" fill="#ebdbb2">
            <path d="M95.337 125.948l.016-.232a35.647 35.647 0 0 1 .158-1.692v-.009c.926-7.927 4.421-15.315 10.064-21.122 5.28-5.434 12.004-9.026 19.332-10.408l.013-.003c.275-.052.55-.1.827-.146l.104-.017c.247-.04.495-.077.743-.112l.183-.026c.226-.03.454-.058.68-.085.08-.01.16-.02.24-.028.214-.024.43-.044.646-.064l.269-.026c.22-.018.44-.033.66-.048.085-.006.169-.013.254-.018a36.342 36.342 0 0 1 1.825-.063h.202c.235-.002.47-.001.704.002l.25.006c.218.004.436.01.653.019l.264.012c.214.01.427.021.64.035l.257.017a35.71 35.71 0 0 1 1.572.147l.181.02c.256.031.511.065.766.1l.094.014a36.342 36.342 0 0 1 18.41 8.32c6.262 5.333 10.5 12.55 12.105 20.527.027.13.05.263.076.394l-.08-.398-12.168-8.757-1.98 2.76 14.777 10.63 1.764 1.269h.002l1.537-2.501a40.218 40.218 0 0 0-.155-1.388v-.002a39.672 39.672 0 0 0-9.12-20.557l-.02-.022a40.488 40.488 0 0 0-.561-.646l-.14-.154a40.49 40.49 0 0 0-.47-.516c-.097-.104-.196-.207-.295-.31-.114-.12-.227-.242-.343-.36a41.743 41.743 0 0 0-.632-.634l-.033-.033a39.84 39.84 0 0 0-.706-.675l-.18-.164a40.51 40.51 0 0 0-.518-.471c-.136-.121-.273-.24-.41-.359l-.288-.248a40.615 40.615 0 0 0-.58-.483l-.121-.1a39.731 39.731 0 0 0-24.608-8.887h-.157a40.904 40.904 0 0 0-1.718.022l-.17.008c-.275.01-.55.023-.824.039-.114.007-.227.016-.34.024-.22.015-.44.03-.66.048l-.332.032c-.223.02-.446.042-.668.066-.096.01-.191.023-.287.034-.24.028-.48.057-.719.09l-.218.03c-.265.038-.53.077-.793.12l-.131.022c-.297.05-.594.1-.888.156l-.027.005c-17.013 3.228-30.091 17.254-32.122 34.451l-.004.04c-.035.294-.065.59-.093.887l-.016.17c-.023.255-.043.511-.06.768l-.02.267c-.01.167-.018.334-.026.502l3.394.009.02-.298zM168.114 130.354l-.007.123c-.013.214-.028.428-.044.642-.006.073-.01.145-.017.218-.02.237-.042.474-.065.71l-.015.142c-.027.26-.058.52-.09.778l-.009.066a36.088 36.088 0 0 1-7.296 17.545c-.133.172-.266.345-.403.515l-.103.125c-.154.19-.31.38-.469.569l-.118.137c-.154.18-.31.361-.467.54l-.171.188c-.142.157-.283.314-.427.47l-.035.038c-.071.076-.145.15-.217.227-.1.106-.2.214-.303.32l-.053.052c-.114.118-.23.233-.347.35l-.271.27c-.145.142-.293.282-.44.421-.062.06-.124.12-.187.178-.175.163-.352.324-.53.484l-.106.096c-.205.182-.412.362-.62.54-.009.006-.016.013-.024.02a36.095 36.095 0 0 1-18.775 8.323l-.031.003c-.277.036-.554.07-.832.1-.063.006-.125.01-.187.017a36.85 36.85 0 0 1-.687.065c-.128.011-.257.019-.386.028-.165.012-.33.025-.497.035a37.45 37.45 0 0 1-1.779.062c-.15.002-.3 0-.45 0l-.428-.001c-.176-.002-.351-.007-.527-.012l-.346-.01a36.603 36.603 0 0 1-.56-.026c-.103-.006-.206-.01-.308-.017a35.497 35.497 0 0 1-.58-.04l-.285-.023a36.242 36.242 0 0 1-1.444-.15l-.292-.039c-.186-.025-.372-.05-.558-.078l-.326-.05a34.305 34.305 0 0 1-.515-.085c-.135-.023-.27-.049-.404-.074-.143-.026-.286-.052-.429-.08-.202-.04-.403-.082-.605-.126l-.22-.046a36.344 36.344 0 0 1-15.742-7.836c-6.261-5.333-10.5-12.55-12.105-20.526-.027-.133-.051-.266-.076-.4.026.135.054.27.082.404l12.166 8.756 1.981-2.759-14.777-10.63-1.765-1.27h-.001l-1.536 2.5c.045.466.096.929.157 1.389l.013.114.022.153c.038.273.078.545.12.816l.023.135c.046.279.093.556.145.833l.02.104c.054.29.111.58.172.868l.01.051c.048.223.099.445.15.666 3.582 15.544 16.241 27.525 31.91 30.283.082.015.163.027.245.041.217.037.434.072.652.106l.372.054a40.819 40.819 0 0 0 1.447.18 40.605 40.605 0 0 0 1.866.15c.152.01.304.019.455.026.171.008.343.013.515.02.14.004.281.01.422.013.23.006.463.008.695.009.078 0 .157.003.236.003a39.648 39.648 0 0 0 2.383-.071c.184-.01.368-.026.55-.04.14-.01.278-.018.416-.029.259-.021.516-.047.774-.073l.18-.018c.309-.033.618-.07.926-.11l.017-.002a39.574 39.574 0 0 0 20.525-9.098l.024-.02c.229-.195.456-.393.68-.593l.115-.103c.194-.175.388-.351.58-.53.07-.065.138-.131.207-.197.16-.151.32-.303.478-.458l.3-.298c.125-.126.251-.25.376-.378.132-.136.263-.275.394-.413l.27-.284c.16-.172.316-.346.472-.52.06-.067.122-.133.181-.2.173-.196.343-.393.512-.59l.129-.15c.175-.207.345-.416.515-.625l.11-.133c.15-.187.296-.375.442-.564a39.55 39.55 0 0 0 7.975-19.183l.007-.06c.037-.287.07-.573.1-.86l.016-.15c.026-.26.05-.519.072-.78l.018-.243c.018-.23.034-.462.048-.693l.016-.319z"/>
        </g>
    </g>
</svg>
