<svg width="256" height="256" version="1.0" xmlns="http://www.w3.org/2000/svg" enable-background="new">
    <defs>
        <filter id="a" x="-.02" y="-.03" width="1.046" height="1.05" color-interpolation-filters="sRGB">
            <feGaussianBlur stdDeviation="2.32"/>
        </filter>
        <filter id="b" x="-.01" y="-.01" width="1.023" height="1.025" color-interpolation-filters="sRGB">
            <feGaussianBlur stdDeviation="1.16"/>
        </filter>
        <linearGradient id="d" x1="296" x2="296" y1="-212" y2="236" gradientUnits="userSpaceOnUse">
            <stop offset="0" stop-color="#ebdbb2"/>
            <stop offset=".125" stop-color="#ebdbb2" stop-opacity=".098"/>
            <stop offset=".925" stop-opacity=".098"/>
            <stop offset="1" stop-opacity=".498"/>
        </linearGradient>
        <clipPath id="c">
            <path d="M361.938-212C507.235-212 528-191.287 528-46.125v116.25C528 215.286 507.235 236 361.937 236H214.063C68.766 236 48 215.286 48 70.125v-116.25C48-191.287 68.765-212 214.063-212z" fill="#b16286"/>
        </clipPath>
        <filter id="e" x="-.05" y="-.05" width="1.096" height="1.096" color-interpolation-filters="sRGB">
            <feGaussianBlur stdDeviation=".926"/>
        </filter>
        <linearGradient id="f" x1="12.274" x2="35.391" y1="32.416" y2="14.203" gradientTransform="matrix(0 5.00004 -5.00004 0 241.07 8.315)" gradientUnits="userSpaceOnUse">
            <stop offset="0" stop-color="#ebdbb2"/>
            <stop offset=".5" stop-color="#ebdbb2"/>
            <stop offset="1" stop-color="#ebdbb2"/>
        </linearGradient>
        <linearGradient id="g" x1="40.764" x2="78.082" y1="45.234" y2="107.677" gradientTransform="matrix(.98938 0 0 .98938 -4.567 -5.345)" gradientUnits="userSpaceOnUse">
            <stop offset="0"/>
            <stop offset="1" stop-opacity="0"/>
        </linearGradient>
        <radialGradient id="h" cx="5.963" cy="10.958" r="1.502" gradientTransform="rotate(-4.957 -107.25 -149.222) scale(4.7695)" gradientUnits="userSpaceOnUse">
            <stop offset="0" stop-color="#fabd2f"/>
            <stop offset=".3" stop-color="#fe8019" stop-opacity=".831"/>
            <stop offset=".438" stop-color="#fabd2f" stop-opacity=".475"/>
            <stop offset="1" stop-color="#fe8019" stop-opacity="0"/>
        </radialGradient>
        <linearGradient id="i" x1="40.764" x2="77.243" y1="45.234" y2="106" gradientTransform="matrix(.71307 0 0 .71307 15.412 19.812)" gradientUnits="userSpaceOnUse">
            <stop offset="0" stop-color="#ebdbb2"/>
            <stop offset=".287" stop-color="#ebdbb2"/>
            <stop offset=".75" stop-color="#fabd2f"/>
            <stop offset="1" stop-color="#fabd2f" stop-opacity="0"/>
        </linearGradient>
        <filter id="j" x="-.15" y="-.15" width="1.305" height="1.305" color-interpolation-filters="sRGB">
            <feGaussianBlur stdDeviation=".318"/>
        </filter>
    </defs>
    <path d="M162.537 62.432c72.648 0 83.031 10.357 83.031 82.937v58.125c0 72.581-10.383 82.938-83.031 82.938H88.599c-72.648 0-83.031-10.357-83.031-82.938V145.37c0-72.58 10.383-82.937 83.031-82.937z" filter="url(#a)" opacity=".2" transform="translate(0 -44)"/>
    <path d="M162.537 61.432c72.648 0 83.031 10.357 83.031 82.937v58.125c0 72.581-10.383 82.938-83.031 82.938H88.599c-72.648 0-83.031-10.357-83.031-82.938V144.37c0-72.58 10.383-82.937 83.031-82.937z" filter="url(#b)" opacity=".1" transform="translate(0 -44)"/>
    <path d="M162.537 16.432c72.648 0 83.031 10.357 83.031 82.937v58.125c0 72.581-10.383 82.938-83.031 82.938H88.599c-72.648 0-83.031-10.357-83.031-82.938V99.37c0-72.58 10.383-82.937 83.031-82.937z" fill="#282828"/>
    <path transform="matrix(.5 0 0 .5 -18.432 122.432)" d="M361.938-212C507.235-212 528-191.287 528-46.125v116.25C528 215.286 507.235 236 361.937 236H214.063C68.766 236 48 215.286 48 70.125v-116.25C48-191.287 68.765-212 214.063-212z" clip-path="url(#c)" fill="none" opacity=".4" stroke-linecap="round" stroke-linejoin="round" stroke-width="8" stroke="url(#d)"/>
    <path d="M5.568 127.718v34.777c0 34.053 2.593 53.504 14.273 64.45 11.681 10.946 32.432 13.371 68.758 13.371h73.938c36.326 0 57.077-2.425 68.758-13.371 11.68-10.946 14.273-30.397 14.273-64.45v-34.777z" fill="#ebdbb2" opacity=".05"/>
    <path transform="matrix(3.77953 0 0 3.77953 -4.724 -862.22)" d="M57.624 262.08a23.092 23.092 0 0 0-23.15-23.152 23.092 23.092 0 0 0-23.152 23.151 23.092 23.092 0 0 0 23.151 23.151 23.092 23.092 0 0 0 23.151-23.15zm-14.681 0c0 4.661-3.715 8.47-8.47 8.47-4.848 0-8.47-3.903-8.47-8.47 0-4.662 3.435-8.47 8.47-8.47s8.47 3.9 8.47 8.47z" filter="url(#e)" opacity=".3"/>
    <path d="M213.068 128.316c0-48.5-39-87.5-87.5-87.5s-87.5 39-87.5 87.5 39 87.5 87.5 87.5 87.5-39 87.5-87.5zm-55.488 0c0 17.62-14.04 32.012-32.012 32.012-18.325 0-32.012-14.748-32.012-32.012 0-17.617 12.982-32.012 32.012-32.012s32.012 14.744 32.012 32.012z" fill="url(#f)"/>
    <g transform="translate(-8.687 -14.604) scale(2.1875)">
        <path d="M61.375 50.57c-8.078 0-14.634 6.556-14.634 14.634s6.556 14.634 14.634 14.634S76.01 73.282 76.01 65.204 69.453 50.57 61.375 50.57zm0 7.317a7.32 7.32 0 0 1 7.318 7.317c0 4.039-3.279 7.317-7.318 7.317s-7.317-3.278-7.317-7.317a7.32 7.32 0 0 1 7.317-7.317z" fill="none"/>
        <path transform="translate(18.703 23.664) scale(.72072)" d="M37.623 21.407c-19.728 11.737-27.26 40.85-13.058 60.014 12.607 20.009 42.063 23.656 60.194 9.942" fill="none" filter="url(#filter1019)" opacity=".5" stroke-width="2.5" stroke="url(#g)"/>
        <path d="M52.479 39.165a7.163 7.163 0 1 1-14.272 1.238 7.163 7.163 0 1 1 14.272-1.238z" fill="url(#h)"/>
        <path d="M45.819 39.093C31.6 47.552 26.17 68.533 36.408 82.346c9.086 14.42 30.315 17.05 43.383 7.165" fill="none" stroke-width="1.802" stroke="url(#i)"/>
        <circle transform="translate(18.703 23.664) scale(.72072)" cx="36.796" cy="22.259" r="2.5" fill="#ebdbb2" filter="url(#j)"/>
    </g>
</svg>
