<svg xmlns="http://www.w3.org/2000/svg" width="256" height="256" viewBox="0 0 67.73 67.73">
    <defs>
        <linearGradient id="d" x1="296" x2="296" y1="-212" y2="236" gradientUnits="userSpaceOnUse">
            <stop offset="0" stop-color="#ebdbb2"/>
            <stop offset=".125" stop-color="#ebdbb2" stop-opacity=".098"/>
            <stop offset=".925" stop-opacity=".098"/>
            <stop offset="1" stop-opacity=".498"/>
        </linearGradient>
        <clipPath id="c">
            <path d="M361.938-212C507.235-212 528-191.287 528-46.125v116.25C528 215.286 507.235 236 361.937 236H214.063C68.766 236 48 215.286 48 70.125v-116.25C48-191.287 68.765-212 214.063-212z" fill="#b16286"/>
        </clipPath>
        <filter id="b" width="1.046" height="1.05" x="-.02" y="-.03" color-interpolation-filters="sRGB">
            <feGaussianBlur stdDeviation="2.32"/>
        </filter>
        <filter id="a" width="1.023" height="1.025" x="-.01" y="-.01" color-interpolation-filters="sRGB">
            <feGaussianBlur stdDeviation="1.16"/>
        </filter>
        <filter id="e" width="1.093" height="1.099" x="-.05" y="-.05" color-interpolation-filters="sRGB">
            <feGaussianBlur stdDeviation=".818"/>
        </filter>
    </defs>
    <path d="M188.969 44C261.617 44 272 54.357 272 126.938v58.124C272 257.644 261.617 268 188.969 268H115.03C42.383 268 32 257.643 32 185.062v-58.125C32 54.358 42.383 44 115.031 44z" transform="matrix(.2697 0 0 .2697 -7.129 -8.706)" filter="url(#a)" opacity=".1"/>
    <path d="M188.969 46C261.617 46 272 56.357 272 128.938v58.125c0 72.58-10.383 82.937-83.031 82.937H115.03C42.383 270 32 259.643 32 187.062v-58.125C32 56.358 42.383 46 115.031 46z" transform="matrix(.2697 0 0 .2697 -7.129 -8.706)" filter="url(#b)" opacity=".2"/>
    <path d="M43.485 2.981c19.594 0 22.394 2.793 22.394 22.369v15.677c0 19.575-2.8 22.369-22.394 22.369H23.544c-19.594 0-22.394-2.794-22.394-22.37V25.35C1.15 5.774 3.95 2.98 23.544 2.98z" fill="#fb4934"/>
    <path d="M361.938-212C507.235-212 528-191.287 528-46.125v116.25C528 215.286 507.235 236 361.937 236H214.063C68.766 236 48 215.286 48 70.125v-116.25C48-191.287 68.765-212 214.063-212z" clip-path="url(#c)" transform="matrix(.13485 0 0 .13485 -4.971 31.75)" fill="none" opacity=".6" stroke-linecap="round" stroke-linejoin="round" stroke-width="8" stroke="url(#d)"/>
    <path d="M33.515 63.396V2.98h-9.971C3.95 2.981 1.15 5.774 1.15 25.35v15.677c0 19.575 2.8 22.369 22.394 22.369z" opacity=".1" fill="#ebdbb2"/>
    <path d="M32.823 281.699c-.486-.38-2.06-1.629-3.496-2.775a356.25 356.25 0 0 0-3.452-2.729c-1.073-.823-1.016-.878 2.848-2.797 3.97-1.97 4.836-2.225 6.214-1.824 1.483.43 7.72 3.48 7.72 3.774 0 .132-.932.942-2.072 1.8a91.85 91.85 0 0 0-3.577 2.847c-1.901 1.624-2.907 2.394-3.127 2.394-.095 0-.571-.31-1.058-.69zm-10.922-9.415c-1.231-1.13-2.076-2.643-2.085-3.736-.003-.363.277-1.41.622-2.328.346-.917.628-1.872.628-2.122 0-.26-1.668-2.042-3.9-4.167-2.146-2.041-4.061-4.022-4.257-4.401-.516-.998-.112-2.185 1.621-4.757 1.846-2.74 4.98-6.793 5.363-6.936.162-.06 1.775.155 3.584.479l3.29.588 3.551-1.011 3.552-1.012 3.539 1.008 3.539 1.008 3.384-.6c2.766-.49 3.455-.54 3.77-.28.546.454 5.13 6.607 6.085 8.169.522.855.811 1.67.839 2.366.042 1.062.039 1.067-4.158 5.098-2.31 2.22-4.2 4.179-4.197 4.354 0 .175.285 1.127.63 2.115.754 2.157.781 2.935.147 4.178-.669 1.311-2.615 3.054-3.41 3.054-.35 0-1.79-.578-3.2-1.285-1.889-.949-3.007-1.717-4.262-2.929-.936-.903-1.702-1.83-1.702-2.06 0-.231 1.243-1.577 2.762-2.992 1.699-1.583 2.761-2.762 2.761-3.065 0-.27-.395-1.515-.879-2.767-1.03-2.667-1.093-3.54-.313-4.314.31-.308 2.457-1.291 4.77-2.185 2.312-.894 4.204-1.703 4.204-1.798 0-.267-2.137-.526-4.377-.528-1.702-.002-2.38.133-4.254.851-1.263.484-2.366 1.072-2.544 1.356-.262.419-.165 1.182.582 4.6 1.015 4.64 1.086 4.354-1.206 4.847-1.71.367-3.236.365-5.025-.01-2.286-.478-2.216-.197-1.202-4.837.746-3.412.844-4.183.583-4.6-.184-.297-1.33-.887-2.795-1.44-2.242-.845-2.65-.923-4.239-.807-2.957.217-4.149.401-4.014.619.07.114 2.048.96 4.394 1.88 4.39 1.72 5.015 2.142 5.02 3.38.002.35-.408 1.726-.911 3.06-.58 1.536-.86 2.639-.764 3.012.083.324 1.34 1.64 2.795 2.925 1.558 1.377 2.644 2.526 2.644 2.8 0 .254-.85 1.255-1.887 2.224-1.996 1.865-5.919 4.062-7.25 4.062-.434 0-1.071-.372-1.828-1.067z" fill="#282828" filter="url(#e)" opacity=".3" transform="translate(0 -229.267)"/>
    <path d="M32.823 52.432c-.486-.38-2.06-1.628-3.496-2.775a356.25 356.25 0 0 0-3.452-2.729c-1.073-.822-1.016-.878 2.848-2.797 3.97-1.97 4.836-2.225 6.214-1.824 1.483.431 7.72 3.48 7.72 3.774 0 .132-.932.943-2.072 1.8a91.85 91.85 0 0 0-3.577 2.848c-1.901 1.624-2.907 2.393-3.127 2.393-.095 0-.571-.31-1.058-.69zm-10.922-9.414c-1.231-1.131-2.076-2.644-2.085-3.736-.003-.364.277-1.411.622-2.328.346-.917.628-1.872.628-2.123 0-.26-1.668-2.042-3.9-4.166-2.146-2.042-4.061-4.022-4.257-4.402-.516-.997-.112-2.184 1.621-4.757 1.846-2.74 4.98-6.792 5.363-6.936.162-.06 1.775.155 3.584.48l3.29.588 3.551-1.012 3.552-1.012 3.539 1.008 3.539 1.009 3.384-.6c2.766-.49 3.455-.541 3.77-.28.546.453 5.13 6.606 6.085 8.168.522.855.811 1.67.839 2.367.042 1.061.039 1.066-4.158 5.098-2.31 2.22-4.2 4.178-4.197 4.354 0 .175.285 1.126.63 2.114.754 2.158.781 2.935.147 4.178-.669 1.311-2.615 3.055-3.41 3.055-.35 0-1.79-.579-3.2-1.286-1.889-.948-3.007-1.716-4.262-2.928-.936-.904-1.702-1.831-1.702-2.062 0-.23 1.243-1.576 2.762-2.99 1.699-1.584 2.761-2.763 2.761-3.065 0-.27-.395-1.516-.879-2.767-1.03-2.667-1.093-3.541-.313-4.315.31-.308 2.457-1.291 4.77-2.185 2.312-.894 4.204-1.703 4.204-1.798 0-.267-2.137-.525-4.377-.528-1.702-.002-2.38.133-4.254.851-1.263.484-2.366 1.072-2.544 1.356-.262.42-.165 1.182.582 4.601 1.015 4.64 1.086 4.354-1.206 4.846-1.71.368-3.236.365-5.025-.01-2.286-.477-2.216-.196-1.202-4.837.746-3.412.844-4.182.583-4.6-.184-.297-1.33-.886-2.795-1.439-2.242-.846-2.65-.924-4.239-.807-2.957.217-4.149.4-4.014.618.07.114 2.048.96 4.394 1.88 4.39 1.72 5.015 2.142 5.02 3.381.002.349-.408 1.725-.911 3.059-.58 1.537-.86 2.639-.764 3.012.083.324 1.34 1.64 2.795 2.925 1.558 1.377 2.644 2.527 2.644 2.8 0 .254-.85 1.256-1.887 2.224-1.996 1.865-5.919 4.063-7.25 4.063-.434 0-1.071-.372-1.828-1.067z" fill="#ebdbb2"/>
</svg>
