<svg width="256" height="256" version="1.1" xmlns="http://www.w3.org/2000/svg">
  <defs>
    <linearGradient id="linearGradient31" x1=".5002" x2=".5002" y2="1" gradientTransform="matrix(244,0,0,228,5.986,12)" gradientUnits="userSpaceOnUse">
      <stop stop-color="#ebdbb2" stop-opacity=".2" offset="0"/>
      <stop stop-color="#ebdbb2" stop-opacity=".05" offset=".1"/>
      <stop stop-opacity="0" offset=".7036"/>
      <stop stop-opacity=".1" offset=".8975"/>
      <stop stop-opacity=".2" offset="1"/>
    </linearGradient>
    <linearGradient id="linearGradient6" x1="140" x2="140" y1="12" y2="240" gradientUnits="userSpaceOnUse">
      <stop stop-color="#504945" offset="0"/>
      <stop stop-color="#3c3836" offset="1"/>
    </linearGradient>
    <linearGradient id="_lgradient_72" x1="148.7" x2="148.7" y1="89.79" y2="29.07" gradientTransform="scale(.469 2.132)" gradientUnits="userSpaceOnUse">
      <stop stop-color="#928374" offset="0"/>
      <stop stop-color="#bdae93" offset="1"/>
    </linearGradient>
  </defs>
  <path d="m165 12c72 0 85 15 85 87v56c0 70-13 85-85 85h-74c-72 0-85-15-85-85v-56c0-72 13-87 85-87z" fill="url(#linearGradient6)" style="isolation:isolate"/>
  <g transform="matrix(1.085 0 0 1.085 -10.91 -10.91)" style="isolation:isolate">
    <g fill="#282828" filter="url(#KA9xjKkYyOfraTjIJimperrMJNMM4zc1)">
      <path d="m62.62 64.56h14.24c3.93 0 7.121 3.191 7.121 7.121v115.2c0 3.93-3.191 7.121-7.121 7.121h-14.24c-3.93 0-7.121-3.191-7.121-7.121v-115.2c0-3.93 3.191-7.121 7.121-7.121z" fill="#282828"/>
    </g>
    <path d="m69.74 74.92c-3.586 0-6.473 2.566-6.473 5.754v92.06c0 3.188 2.887 5.754 6.473 5.754h106.8c3.586 0 6.473-2.566 6.473-5.754v-92.06c0-3.188-2.887-5.754-6.473-5.754zm103.6 0c-3.586 0-6.473 2.566-6.473 5.754v92.06c0 3.188 2.887 5.754 6.473 5.754h12.95c3.586 0 6.473-2.566 6.473-5.754v-92.06c0-3.188-2.887-5.754-6.473-5.754z" fill="#83a598"/>
    <path d="m62.62 61.97h14.24c3.93 0 7.121 3.191 7.121 7.121v115.2c0 3.93-3.191 7.121-7.121 7.121h-14.24c-3.93 0-7.121-3.191-7.121-7.121v-115.2c0-3.93 3.191-7.121 7.121-7.121z" fill="url(#_lgradient_72)"/>
    <path d="m83.98 123.9c-4.12 0-8.072 1.637-10.99 4.55-2.914 2.914-4.55 6.865-4.55 10.99s1.637 8.072 4.55 10.99c2.914 2.914 6.865 4.55 10.99 4.55 4.12 0 8.072-1.637 10.99-4.55 2.914-2.914 4.55-6.865 4.55-10.99s-1.637-8.072-4.55-10.99c-2.914-2.914-6.865-4.55-10.99-4.55zm0 38.71c-4.12 0-8.072 1.637-10.99 4.55s-4.55 6.865-4.55 10.99 1.637 8.072 4.55 10.99 6.865 4.55 10.99 4.55 8.072-1.637 10.99-4.55 4.55-6.865 4.55-10.99-1.637-8.072-4.55-10.99-6.865-4.55-10.99-4.55zm88.04-38.71c-4.12 0-8.072 1.637-10.99 4.55s-4.55 6.865-4.55 10.99 1.637 8.072 4.55 10.99 6.865 4.55 10.99 4.55c4.12 0 8.072-1.637 10.99-4.55 2.914-2.914 4.55-6.865 4.55-10.99s-1.637-8.072-4.55-10.99c-2.914-2.914-6.865-4.55-10.99-4.55z" fill="#282828" opacity=".4" style="isolation:isolate"/>
    <rect x="87.76" y="134.4" width="85.47" height="5" ry="0" fill="#3c3836" stroke-linecap="round" stroke-linejoin="round" stroke-width="36.05" style="paint-order:markers fill stroke"/>
    <rect transform="rotate(-24.2)" x=".6261" y="193.9" width="113.7" height="5" ry="0" fill="#3c3836" stroke-linecap="round" stroke-linejoin="round" stroke-width="41.59" style="isolation:isolate;paint-order:markers fill stroke"/>
    <path d="m83.98 121.3c-4.12 0-8.072 1.637-10.99 4.55-2.914 2.914-4.55 6.865-4.55 10.99 0 4.12 1.637 8.072 4.55 10.99 2.914 2.914 6.865 4.55 10.99 4.55 4.12 0 8.072-1.637 10.99-4.55 2.914-2.914 4.55-6.865 4.55-10.99 0-4.12-1.637-8.072-4.55-10.99-2.914-2.914-6.865-4.55-10.99-4.55zm0 39.05c-4.12 0-8.072 1.637-10.99 4.55-2.914 2.914-4.55 6.865-4.55 10.99 0 4.12 1.637 8.072 4.55 10.99s6.865 4.55 10.99 4.55 8.072-1.637 10.99-4.55 4.55-6.865 4.55-10.99c0-4.12-1.637-8.072-4.55-10.99-2.914-2.914-6.865-4.55-10.99-4.55zm88.04-39.05c-4.12 0-8.072 1.637-10.99 4.55-2.914 2.914-4.55 6.865-4.55 10.99 0 4.12 1.637 8.072 4.55 10.99s6.865 4.55 10.99 4.55c4.12 0 8.072-1.637 10.99-4.55 2.914-2.914 4.55-6.865 4.55-10.99 0-4.12-1.637-8.072-4.55-10.99-2.914-2.914-6.865-4.55-10.99-4.55z" fill="#ebdbb2"/>
    <path d="m105.9 130.6h44.58v-22.29l-7.43-14.86h-14.86v14.86h-22.29z" fill="#282828" opacity=".3" stroke-width="3.715"/>
    <path d="m105.9 126.9h44.58v-22.29l-7.43-14.86h-14.86v14.86h-22.29z" fill="#076678" stroke-width="3.715"/>
    <circle cx="146.8" cy="126.9" r="11.15" fill="#282828" opacity=".2" stroke-width="3.715"/>
    <circle cx="146.8" cy="123.2" r="11.15" fill="#504945" stroke-width="3.715"/>
    <circle cx="109.6" cy="126.9" r="11.15" fill="#282828" opacity=".2" stroke-width="3.715"/>
    <circle cx="109.6" cy="123.2" r="11.15" fill="#504945" stroke-width="3.715"/>
    <path d="m135.6 89.77v14.86h14.86l-7.43-14.86z" fill="#3c3836" stroke-width="3.715"/>
    <path d="m128.2 89.77v3.715h14.86l7.43 14.86v-3.715l-7.43-14.86zm-22.29 14.86v3.715h22.29v-3.715z" fill="#ebdbb2" opacity=".3" stroke-width="3.715"/>
  </g>
  <path d="m91 12c-72 0-85 15-85 87v56c0 70 13 85 85 85h74c72 0 85-15 85-85v-56c0-72-13-87-85-87zm0 4h74c68 0 80 15 80 83v56c0 66-12 81-80 81h-74c-68 0-80-15-80-81v-56c0-68 12-83 80-83z" fill="url(#linearGradient31)" style="isolation:isolate"/>
</svg>
