<svg width="256" height="256" version="1.1" xmlns="http://www.w3.org/2000/svg" xmlns:xlink="http://www.w3.org/1999/xlink">
  <defs>
    <linearGradient id="linearGradient6" x1="140" x2="140" y1="12" y2="240" gradientUnits="userSpaceOnUse">
      <stop stop-color="#504945" offset="0"/>
      <stop stop-color="#3c3836" offset="1"/>
    </linearGradient>
    <linearGradient id="linearGradient10" x1="128" x2="128" y1="12" y2="240" gradientUnits="userSpaceOnUse">
      <stop stop-color="#ebdbb2" stop-opacity=".2" offset="0"/>
      <stop stop-color="#ebdbb2" stop-opacity="0" offset=".24728"/>
      <stop stop-color="#1d2021" stop-opacity=".05" offset=".50485"/>
      <stop stop-color="#1d2021" stop-opacity=".3961" offset=".75316"/>
      <stop stop-color="#1d2021" stop-opacity=".6039" offset="1"/>
    </linearGradient>
    <linearGradient id="linearGradient30289" x1="101.77" x2="199.3" y1="58.614" y2="102.65" gradientTransform="matrix(2.0394 .76523 -.76523 2.0394 -116.87 -154.73)" gradientUnits="userSpaceOnUse">
      <stop stop-color="#fe8019" offset="0"/>
      <stop stop-color="#fb4934" offset="1"/>
    </linearGradient>
    <linearGradient id="linearGradient1426" x1="135.03" x2="626.78" y1="925.37" y2="925.37" gradientTransform="matrix(.29738 0 0 .29738 9.9795 -149.59)" gradientUnits="userSpaceOnUse">
      <stop stop-color="#fe8019" offset="0"/>
      <stop stop-color="#fb4934" offset="1"/>
    </linearGradient>
  </defs>
  <path d="m165 12c72 0 85 15 85 87v56c0 70-13 85-85 85h-74c-72 0-85-15-85-85v-56c0-72 13-87 85-87z" fill="url(#linearGradient6)" style="isolation:isolate"/>
  <path d="m150.6 47.717-12.459 13.96a69.774 69.774 0 0 0-21.076 0.11582l-12.677-13.88a86.05 86.05 0 0 0-19.04 8.102l1.063 18.704a69.774 69.774 0 0 0-14.803 14.971l-18.745-0.84813a86.05 86.05 0 0 0-4.5507 9.3219 86.05 86.05 0 0 0-3.23 9.8749l13.959 12.459a69.774 69.774 0 0 0 0.11582 21.076l-13.878 12.675a86.05 86.05 0 0 0 8.102 19.042l18.704-1.063a69.774 69.774 0 0 0 14.971 14.803l-0.84813 18.745a86.05 86.05 0 0 0 9.3219 4.5489 86.05 86.05 0 0 0 9.873 3.2319l12.459-13.959a69.774 69.774 0 0 0 21.076-0.11769l12.675 13.88a86.05 86.05 0 0 0 19.044-8.102l-1.063-18.704a69.774 69.774 0 0 0 14.801-14.973l18.745 0.85187a86.05 86.05 0 0 0 4.5508-9.3238 86.05 86.05 0 0 0 3.23-9.8749l-13.959-12.457a69.774 69.774 0 0 0-0.11583-21.078l13.878-12.675a86.05 86.05 0 0 0-8.1021-19.042l-18.704 1.063a69.774 69.774 0 0 0-14.971-14.801l0.85-18.747a86.05 86.05 0 0 0-9.3238-4.5489 86.05 86.05 0 0 0-9.873-3.2319zm-22.937 24.132a58.788 58.788 0 0 1 22.522 4.3453 58.788 58.788 0 0 1 32.259 76.627 58.788 58.788 0 0 1-76.627 32.257 58.788 58.788 0 0 1-32.257-76.627 58.788 58.788 0 0 1 54.103-36.602zm17.299 9.0585c-2.7222 0-4.9524 2.2302-4.9524 4.9524v11.255c0 1.2911 0.51011 2.4688 1.3282 3.3533-0.82089 0.88506-1.3282 2.0616-1.3282 3.3552v11.244c0 0.7053 0.14919 1.3795 0.41846 1.9896h-16.925c-0.0124-1.4e-4 -0.0228 0-0.0355 0h-8.6046c-2.7222 0-4.9561 2.2396-4.9561 4.9617v11.246c0 1.2935 0.50928 2.4754 1.3301 3.3626-0.82083 0.88729-1.3301 2.0616-1.3301 3.3552v11.244c0 2.7222 2.234 4.9617 4.9561 4.9617h8.6046c0.0128 0 0.0228 6e-5 0.0355 0h16.83c-0.20862 0.54588-0.32318 1.1303-0.32318 1.7467v11.255c0 2.7222 2.2302 4.9524 4.9524 4.9524h8.6046c2.7222 0 4.9617-2.2302 4.9617-4.9524v-11.255c0-1.2901-0.509-2.4597-1.3282-3.3439 0.82203-0.88707 1.3282-2.0718 1.3282-3.3645v-11.244c0-2.7222-2.2396-4.9617-4.9617-4.9617h-8.6046c-2.7222 0-4.9524 2.2396-4.9524 4.9617v11.244c0 0.70535 0.14918 1.3795 0.41846 1.9895h-12.427c0.26927-0.61002 0.41846-1.2842 0.41846-1.9895v-11.244c0-1.2935-0.50741-2.4679-1.3282-3.3552 0.82082-0.88726 1.3282-2.0691 1.3282-3.3626v-11.246c0-0.70713-0.15717-1.3764-0.4278-1.9877h25.575c2.7222 0 4.9617-2.2414 4.9617-4.9636v-11.244c0-1.2927-0.50621-2.4703-1.3282-3.3552 0.81924-0.88434 1.3282-2.0631 1.3282-3.3533v-11.255c0-2.7222-2.2396-4.9524-4.9617-4.9524zm0 2.9741h8.6046c1.1261 0 1.9895 0.8522 1.9895 1.9783v11.255c0 0.84458-0.48163 1.5361-1.1993 1.8289h-10.178c-0.71506-0.29278-1.1975-0.98431-1.1975-1.8289v-11.255c0-1.1261 0.85405-1.9783 1.9802-1.9783zm-0.79022 18.121h10.192c0.7131 0.29467 1.1919 0.9801 1.1919 1.8214v11.244c0 1.1262-0.86341 1.9896-1.9895 1.9896h-8.6046c-1.1262 0-1.9802-0.86336-1.9802-1.9896v-11.244c0-0.84148 0.47929-1.5268 1.19-1.8214zm-29.309 18.029h8.6046c1.1261 0 1.9783 0.86159 1.9783 1.9877v11.246c0 0.83707-0.47606 1.5291-1.1806 1.8289h-10.204c-0.7046-0.2998-1.1788-0.99182-1.1788-1.8289v-11.246c0-1.1261 0.85405-1.9877 1.9802-1.9877zm30.099 17.962h8.6046c1.1261 0 1.9895 0.86341 1.9895 1.9896v11.244c0 0.83684-0.4739 1.5307-1.1806 1.8308h-10.213c-0.7046-0.29976-1.1806-0.9936-1.1806-1.8308v-11.244c0-1.1261 0.85405-1.9896 1.9802-1.9896zm-30.891 0.16813h10.185c0.70885 0.29798 1.19 0.98128 1.19 1.8214v11.244c0 1.1262-0.85221 1.9895-1.9783 1.9895h-8.6046c-1.1262 0-1.9802-0.86338-1.9802-1.9895v-11.244c0-0.84014 0.47928-1.5234 1.1881-1.8214zm40.294 17.964c0.71108 0.29552 1.1919 0.97036 1.1919 1.8102v11.255c0 1.1262-0.86341 1.9802-1.9895 1.9802h-8.6046c-1.1262 0-1.9802-0.85404-1.9802-1.9802v-11.255c0-0.7742 0.40383-1.419 1.0219-1.7467 1.4216 0 7.0138-0.0635 10.361-0.0635z" fill="#282828" opacity=".6"/>
  <path d="m160.47 45.675a86.05 86.05 0 0 0-9.8747-3.231l-12.457 13.959a69.774 69.774 0 0 0-21.077 0.11658l-12.676-13.879a86.05 86.05 0 0 0-19.041 8.102l1.0636 18.703a69.774 69.774 0 0 0-14.803 14.971l-18.745-0.84913a86.05 86.05 0 0 0-4.5499 9.3228 86.05 86.05 0 0 0-3.2309 9.8748l13.959 12.457a69.774 69.774 0 0 0 0.11558 21.077l-13.878 12.675a86.05 86.05 0 0 0 8.1005 19.042l18.705-1.0631a69.774 69.774 0 0 0 14.971 14.803l-0.84911 18.745a86.05 86.05 0 0 0 9.3218 4.5495 86.05 86.05 0 0 0 9.8747 3.231l12.458-13.959a69.774 69.774 0 0 0 21.076-0.11602l12.676 13.879a86.05 86.05 0 0 0 19.042-8.1015l-1.0631-18.705a69.774 69.774 0 0 0 14.802-14.972l18.744 0.85011a86.05 86.05 0 0 0 4.551-9.3224 86.05 86.05 0 0 0 3.2303-9.8762l-13.958-12.457a69.774 69.774 0 0 0-0.11702-21.076l13.88-12.677a86.05 86.05 0 0 0-8.102-19.041l-18.705 1.0631a69.774 69.774 0 0 0-14.971-14.801l0.84954-18.746a86.05 86.05 0 0 0-9.3228-4.5499zm-10.288 25.246a58.788 58.788 0 0 1 32.257 76.627 58.788 58.788 0 0 1-76.627 32.256 58.788 58.788 0 0 1-32.257-76.626 58.788 58.788 0 0 1 76.626-32.258z" fill="url(#linearGradient30289)"/>
  <path d="m150.6 42.445-12.459 13.959a69.774 69.774 0 0 0-21.076 0.11769l-12.677-13.88a86.05 86.05 0 0 0-19.04 8.102l0.28956 5.1056a86.05 86.05 0 0 1 18.75-7.9358l12.677 13.88a69.774 69.774 0 0 1 21.076-0.11582l12.459-13.96a86.05 86.05 0 0 1 9.873 3.2319 86.05 86.05 0 0 1 9.0903 4.4181l0.23352-5.1411a86.05 86.05 0 0 0-9.3238-4.5507 86.05 86.05 0 0 0-9.873-3.23zm18.578 26.695-0.23165 5.1037a69.774 69.774 0 0 1 14.971 14.801l18.704-1.063a86.05 86.05 0 0 1 6.8074 14.951l1.2946-1.1825a86.05 86.05 0 0 0-8.1021-19.042l-18.704 1.063a69.774 69.774 0 0 0-14.739-14.631zm-83.055 0.52121a69.774 69.774 0 0 0-14.515 14.756l-18.745-0.85a86.05 86.05 0 0 0-4.5507 9.3238 86.05 86.05 0 0 0-3.23 9.8749l1.2105 1.0798a86.05 86.05 0 0 1 2.0194-5.6828 86.05 86.05 0 0 1 4.5507-9.3219l18.745 0.84813a69.774 69.774 0 0 1 14.803-14.971zm58.838 9.3126c-2.7222 0-4.9524 2.2302-4.9524 4.9524v1.9335c0-2.7222 2.2302-4.9524 4.9524-4.9524h8.6046c2.7222 0 4.9617 2.2302 4.9617 4.9524v-1.9335c0-2.7222-2.2396-4.9524-4.9617-4.9524zm-1.9802 16.208v1.9335c0 0.84458 0.4824 1.5361 1.1975 1.8289h10.178c0.7177-0.29277 1.1993-0.98431 1.1993-1.8289v-1.9335c0 0.84458-0.48163 1.5361-1.1993 1.8289h-10.178c-0.71506-0.29278-1.1975-0.98431-1.1975-1.8289zm-2.3482 4.3191c-0.39702 0.70902-0.62395 1.523-0.62395 2.3893v1.9335c0-1.2935 0.50734-2.4701 1.3282-3.3552-0.27074-0.29271-0.50829-0.61726-0.70428-0.96768zm17.271 0c-0.19598 0.35049-0.43319 0.67506-0.70428 0.96768 0.82203 0.88481 1.3282 2.0625 1.3282 3.3552v-1.9335c0-0.86581-0.22689-1.6801-0.62396-2.3893zm-14.923 13.634v1.9335c0 1.1262 0.85405 1.9896 1.9802 1.9896h8.6046c1.1261 0 1.9895-0.86339 1.9895-1.9896v-1.9335c0 1.1262-0.86341 1.9896-1.9895 1.9896h-8.6046c-1.1262 0-1.9802-0.86336-1.9802-1.9896zm-28.119 1.9896c-2.7222 0-4.9561 2.2396-4.9561 4.9617v1.9335c0-2.7222 2.234-4.9617 4.9561-4.9617h8.6046c0.0127 0 0.023-1.4e-4 0.0355 0h16.925c-0.26226-0.59416-0.41093-1.2482-0.41846-1.9335h-16.507c-0.0124-1.4e-4 -0.0228 0-0.0355 0zm82.567 4.0408-0.58472 0.53428a69.774 69.774 0 0 1 0.79582 8.0497 69.774 69.774 0 0 0-0.2111-8.584zm-138.92 0.85373a69.774 69.774 0 0 0-0.14385 8.2422 69.774 69.774 0 0 1 0.68-7.7639zm69.487 0.0131c0.27063 0.61133 0.4278 1.2806 0.4278 1.9877v-1.9335c0-0.0184 2.1e-4 -0.0359 0-0.0542zm58.625 7.8611a58.788 58.788 0 0 1-4.1734 19.656 58.788 58.788 0 0 1-76.627 32.255 58.788 58.788 0 0 1-36.43-51.702 58.788 58.788 0 0 0 36.43 56.976 58.788 58.788 0 0 0 76.627-32.257 58.788 58.788 0 0 0 4.1734-24.928zm-73.735 3.4373v1.9354c0 0.83707 0.47419 1.5291 1.1788 1.8289h10.204c0.70459-0.2998 1.1807-0.99182 1.1806-1.8289v-1.9354c0 0.83708-0.47606 1.531-1.1806 1.8308h-10.204c-0.7046-0.29981-1.1788-0.99368-1.1788-1.8308zm32.079 1.756c-2.7222 0-4.9524 2.2414-4.9524 4.9636v1.9335c0-2.7222 2.2302-4.9617 4.9524-4.9617h8.6046c2.7222 0 4.9617 2.2396 4.9617 4.9617v-1.9335c0-2.7222-2.2396-4.9636-4.9617-4.9636zm-34.43 2.5743c-0.39734 0.70927-0.62582 1.5226-0.62582 2.3893v1.9335c0-1.2935 0.50928-2.4679 1.3301-3.3552-0.27083-0.29274-0.50862-0.61733-0.70429-0.96769zm17.261 0c-0.19566 0.35036-0.4316 0.67495-0.70241 0.96769 0.82082 0.88729 1.3282 2.0616 1.3282 3.3552v-1.9335c0-0.86675-0.22847-1.68-0.62582-2.3893zm69.705 0.32319a69.774 69.774 0 0 1-0.53802 4.7936l12.748 11.375a86.05 86.05 0 0 0 1.2106-4.1921zm-138.93 0.85184-13.294 12.139a86.05 86.05 0 0 0 1.2965 4.0893l12.582-11.491a69.774 69.774 0 0 1-0.58472-4.7376zm54.31 12.459v1.9335c0 1.1262 0.85405 1.9895 1.9802 1.9895h8.6046c1.1261 0 1.9783-0.86338 1.9783-1.9895v-1.9335c0 1.1262-0.85221 1.9896-1.9783 1.9896h-8.6046c-1.1262 0-1.9802-0.86339-1.9802-1.9896zm30.099 0v1.9335c0 0.83715 0.47605 1.531 1.1806 1.8308h10.213c0.70675-0.30001 1.1806-0.99391 1.1806-1.8308v-1.9335c0 0.83685-0.4739 1.5307-1.1806 1.8308h-10.213c-0.7046-0.29976-1.1806-0.9936-1.1806-1.8308zm-14.562 1.9896c-8e-3 0.68536-0.1562 1.3394-0.41846 1.9335h12.427c-0.26227-0.59414-0.41094-1.2481-0.41846-1.9335zm29.485 2.3408c-0.19569 0.35085-0.43297 0.6749-0.70428 0.96768 0.81924 0.88424 1.3282 2.0538 1.3282 3.3439v-1.9335c0-0.86341-0.2275-1.6721-0.62396-2.3781zm-17.895 2.5649v1.7467c0-0.61643 0.11456-1.2008 0.32318-1.7467zm2.9722 11.069v1.9335c0 1.1262 0.85405 1.9802 1.9802 1.9802h8.6046c1.1261 0 1.9895-0.85404 1.9895-1.9802v-1.9335c0 1.1262-0.86341 1.9784-1.9895 1.9784h-8.6046c-1.1262 0-1.9802-0.85217-1.9802-1.9784zm26.899 19.081a69.774 69.774 0 0 1-0.28768 0.21484l0.77339 13.598a86.05 86.05 0 0 0 0.28956-0.16627zm-83.057 0.52308-0.61648 13.639a86.05 86.05 0 0 0 0.23165 0.13264h0.0019l0.61458-13.604a69.774 69.774 0 0 1-0.23165-0.16813z" fill="#ebdbb2" opacity=".2"/>
  <path d="m144.96 78.974c-2.7222 0-4.9526 2.2304-4.9526 4.9526v11.254c0 1.2911 0.51037 2.469 1.3285 3.3534-0.82089 0.88506-1.3285 2.0618-1.3285 3.3553v11.245c0 0.70531 0.14896 1.379 0.41823 1.989h-16.924c-0.0124-1.3e-4 -0.0232 0-0.036 0h-8.605c-2.7222 0-4.9544 2.2398-4.9544 4.962v11.245c0 1.2935 0.50768 2.4756 1.3285 3.3629-0.82083 0.88728-1.3285 2.0618-1.3285 3.3553v11.245c0 2.7222 2.2323 4.962 4.9544 4.962h8.605c0.0128 0 0.0232 6e-5 0.036 0h16.83c-0.20862 0.54589-0.3236 1.1303-0.3236 1.7467v11.254c0 2.7222 2.2304 4.9525 4.9526 4.9526h8.605c2.7222 0 4.962-2.2304 4.962-4.9526v-11.254c0-1.2901-0.50926-2.4597-1.3285-3.344 0.82203-0.88707 1.3285-2.0721 1.3285-3.3648v-11.245c0-2.7222-2.2398-4.962-4.962-4.962h-8.605c-2.7222 0-4.9526 2.2398-4.9526 4.962v11.245c0 0.70536 0.14896 1.379 0.41824 1.989h-12.426c0.26927-0.61002 0.41824-1.2836 0.41824-1.989v-11.245c0-1.2935-0.50768-2.468-1.3285-3.3553 0.82082-0.88726 1.3285-2.0694 1.3285-3.3629v-11.245c0-0.70713-0.15706-1.3776-0.4277-1.989h25.575c2.7222 0 4.962-2.2398 4.962-4.962v-11.245c0-1.2927-0.50647-2.4705-1.3285-3.3553 0.81924-0.88434 1.3285-2.0632 1.3285-3.3534v-11.254c0-2.7222-2.2398-4.9526-4.962-4.9526zm0 2.973h8.605c1.1261 0 1.989 0.85336 1.989 1.9795v11.254c0 0.84458-0.48024 1.5372-1.1979 1.83h-10.178c-0.71506-0.29279-1.1979-0.98543-1.1979-1.83v-11.254c0-1.1261 0.85335-1.9795 1.9795-1.9795zm-0.78915 18.122h10.193c0.71311 0.29467 1.1904 0.97922 1.1904 1.8205v11.245c0 1.1262-0.86285 1.989-1.989 1.989h-8.605c-1.1262 0-1.9795-0.86279-1.9795-1.989v-11.245c0-0.84148 0.47965-1.526 1.1904-1.8205zm-29.31 18.028h8.605c1.1261 0 1.9795 0.86288 1.9795 1.989v11.245c0 0.83707-0.4763 1.5302-1.1809 1.83h-10.204c-0.7046-0.2998-1.179-0.99294-1.179-1.83v-11.245c0-1.1261 0.85335-1.989 1.9795-1.989zm30.1 17.963h8.605c1.1261 0 1.989 0.86284 1.989 1.989v11.245c0 0.83685-0.47415 1.53-1.1809 1.83h-10.212c-0.7046-0.29976-1.1809-0.99286-1.1809-1.83v-11.245c0-1.1261 0.85335-1.989 1.9795-1.989zm-30.891 0.16843h10.185c0.70885 0.29798 1.1904 0.98041 1.1904 1.8206v11.245c0 1.1262-0.85339 1.989-1.9795 1.989h-8.605c-1.1262 0-1.9795-0.86281-1.9795-1.989v-11.245c0-0.84014 0.47961-1.5226 1.1885-1.8206zm40.294 17.963c0.71108 0.29552 1.1904 0.97121 1.1904 1.8111v11.254c0 1.1262-0.86285 1.9795-1.989 1.9795h-8.605c-1.1262 0-1.9795-0.85333-1.9795-1.9795v-11.254c0-0.77421 0.40388-1.419 1.0219-1.7467 1.4216 0 7.0144-0.0643 10.361-0.0643z" color="#000000" fill="url(#linearGradient1426)" style="text-decoration-line:none;text-indent:0;text-transform:none"/>
  <path d="m91 12c-72 0-85 15-85 87v56c0 70 13 85 85 85h74c72 0 85-15 85-85v-56c0-72-13-87-85-87zm0 5h74c35.653 0 55.307 3.9448 65.895 14.965 10.588 11.02 14.105 31.336 14.105 67.035v56c0 34.69-3.4936 54.457-14.07 65.25-10.577 10.793-30.277 14.75-65.93 14.75h-74c-35.653 0-55.353-3.9574-65.93-14.75-10.577-10.793-14.07-30.56-14.07-65.25v-56c0-35.699 3.5176-56.015 14.105-67.035 10.588-11.02 30.242-14.965 65.895-14.965z" fill="url(#linearGradient10)" style="isolation:isolate"/>
</svg>
