<svg width="256" height="256" style="isolation:isolate" version="1.1" xmlns="http://www.w3.org/2000/svg">
  <g filter="url(#a)">
    <linearGradient id="b" x1=".5" x2=".5" y1="-.0005124" y2="1" gradientTransform="matrix(244.6 0 0 228.3 5.676 11.95)" gradientUnits="userSpaceOnUse">
      <stop stop-color="#b57614" offset="0"/>
      <stop stop-color="#d79921" offset="1"/>
    </linearGradient>
    <path d="m165.7 11.95c72.71 0 84.64 12.05 84.64 84.54v59.25c0 72.56-11.93 84.54-84.64 84.54h-75.37c-72.29 0-84.64-11.98-84.64-84.54v-59.25c0-72.49 12.33-84.54 84.64-84.54z" fill="url(#b)"/>
  </g>
  <g opacity=".4">
    <linearGradient id="c" x1=".517" x2=".517" y2="1" gradientTransform="matrix(244.6 0 0 228.3 5.68 11.95)" gradientUnits="userSpaceOnUse">
      <stop stop-color="#d5c4a1" offset="0"/>
      <stop stop-color="#ebdbb2" stop-opacity=".098" offset=".125"/>
      <stop stop-color="#282828" stop-opacity=".09804" offset=".925"/>
      <stop stop-color="#282828" stop-opacity=".498" offset="1"/>
    </linearGradient>
    <path d="m165.1 11.95c4.328-0.01 8.656 0.04 12.98 0.138 3.875 0.078 7.744 0.2585 11.62 0.4845 3.453 0.196 6.888 0.5327 10.33 0.9057 3.06 0.335 6.089 0.8341 9.119 1.394 2.713 0.5003 5.352 1.181 8 1.957 2.398 0.6968 4.754 1.61 7.032 2.634 2.112 0.9412 4.043 2.044 5.963 3.332 1.84 1.24 3.6 2.701 5.174 4.265 1.565 1.569 2.886 3.163 4.128 4.999 1.286 1.917 2.409 3.871 3.36 5.974 1.021 2.275 1.919 4.577 2.628 6.968 0.777 2.644 1.478 5.327 1.979 8.037 0.562 3.025 1.063 6.06 1.399 9.118 0.374 3.439 0.7087 6.849 0.9057 10.3 0.226 3.861 0.4217 7.739 0.5107 11.6 0.088 4.323 0.138 8.646 0.128 12.96v58.21c0.01 4.324-0.04 8.637-0.128 12.96-0.085 3.867-0.2882 7.733-0.5111 11.6-0.1966 3.449-0.5382 6.947-0.9122 10.38-0.3363 3.061-0.8294 6.032-1.391 9.06-0.502 2.707-1.187 5.346-1.963 7.987-0.7071 2.391-1.566 4.626-2.589 6.9-0.95 2.105-2.162 4.229-3.451 6.145-1.239 1.838-2.538 3.39-4.105 4.957-1.575 1.564-3.412 3.071-5.252 4.311-1.92 1.288-3.861 2.37-5.973 3.311-2.35 1.074-4.574 1.872-6.932 2.584-2.678 0.8166-5.293 1.417-7.976 1.948-3.031 0.566-6.051 1.061-9.116 1.392-3.504 0.4087-6.82 0.6843-10.34 0.9038-3.875 0.226-7.789 0.4001-11.66 0.4881-4.328 0.088-8.631 0.1508-12.96 0.1408h-74.13c-4.328 0.01-8.657-0.0545-12.98-0.1425-3.905-0.0955-7.745-0.2467-11.63-0.4908-3.494-0.2192-7.044-0.5149-10.45-0.928-3.187-0.3766-5.934-0.7937-8.995-1.39-2.833-0.5614-5.342-1.164-7.946-1.957-2.43-0.7318-4.81-1.627-7.052-2.655-2.139-0.9789-4.062-2.064-5.998-3.373-1.84-1.24-3.514-2.65-5.089-4.213-1.568-1.567-2.906-3.179-4.145-5.016-1.288-1.916-2.402-3.833-3.352-5.938-1.022-2.274-1.924-4.524-2.631-6.914-0.7758-2.641-1.498-5.305-2-8.012-0.562-3.028-1.094-6.109-1.43-9.17-0.374-3.434-0.7262-6.846-0.9227-10.3-0.2229-3.861-0.4218-7.743-0.5068-11.61-0.09185-4.319-0.1345-8.64-0.128-12.96v-58.21c-0.01-4.314 0.04-8.637 0.128-12.96 0.089-3.86 0.2802-7.735 0.5062-11.6 0.197-3.448 0.5488-6.857 0.9228-10.3 0.335-3.055 0.8734-6.164 1.434-9.19 0.5008-2.71 1.181-5.226 1.958-7.87 0.7087-2.39 1.755-4.987 2.776-7.261 0.9521-2.104 1.963-3.8 3.25-5.717 1.242-1.836 2.594-3.46 4.159-5.03 1.574-1.564 3.327-3.021 5.168-4.261 1.92-1.288 3.824-2.385 5.936-3.326 2.278-1.024 4.543-1.924 6.941-2.62 2.647-0.7762 5.274-1.476 7.987-1.976 3.032-0.5612 6.138-1.085 9.203-1.421 3.443-0.373 6.84-0.7129 10.29-0.9089 3.875-0.226 7.733-0.4151 11.61-0.4931 4.328-0.098 8.662-0.1461 12.99-0.1361zm0.01 4.009c4.298-0.01 8.597 0.039 12.9 0.127 3.827 0.089 7.647 0.2685 11.47 0.4845 3.383 0.197 6.772 0.4395 10.14 0.8125 2.971 0.315 5.939 0.7487 8.87 1.299 2.581 0.4734 5.106 1.072 7.624 1.81 2.219 0.6492 4.414 1.456 6.523 2.403 1.905 0.8527 3.718 1.854 5.453 3.015 1.624 1.093 3.157 2.35 4.541 3.735 1.386 1.385 2.637 2.898 3.738 4.519 1.16 1.727 2.174 3.547 3.03 5.443 0.9449 2.108 1.747 4.278 2.4 6.494 0.7415 2.511 1.352 5.059 1.829 7.634 0.54 2.928 0.974 5.875 1.298 8.842 0.374 3.36 0.65 6.73 0.846 10.11 0.217 3.822 0.374 7.634 0.453 11.46 0.088 4.293 0.137 8.577 0.137 12.87v58.21c0 4.293-0.049 8.577-0.137 12.87-0.082 3.821-0.0546 7.643-0.2746 11.46-0.196 3.38-0.6504 6.747-1.024 10.12-0.3245 2.959-0.7575 5.905-1.298 8.832-0.4773 2.575-1.088 5.123-1.83 7.634-0.6517 2.217-1.454 4.386-2.4 6.494-0.8542 1.897-1.868 3.718-3.03 5.443-1.098 1.626-2.349 3.143-3.737 4.53-1.388 1.378-2.903 2.621-4.525 3.713-1.734 1.161-3.564 2.173-5.469 3.026-2.108 0.9512-4.28 1.752-6.501 2.397-2.518 0.7378-5.072 1.345-7.653 1.818-2.931 0.55-5.883 0.9816-8.854 1.306-3.364 0.364-6.756 0.6494-10.14 0.8364-3.827 0.216-7.678 0.3602-11.5 0.4392-4.298 0.098-8.572 0.1498-12.87 0.1498h-74.15c-4.298 0-8.598-0.0545-12.9-0.1515-3.829-0.082-7.658-0.2615-11.48-0.4808-3.383-0.19-6.759-0.4254-10.13-0.7927-2.97-0.3217-5.926-0.7574-8.863-1.306-2.581-0.4734-5.135-1.08-7.653-1.818-2.221-0.6448-4.367-1.432-6.475-2.383-1.905-0.8527-3.755-1.872-5.49-3.033-1.622-1.092-3.143-2.342-4.53-3.72-1.388-1.386-2.64-2.903-3.738-4.529-1.162-1.725-2.176-3.546-3.03-5.443-0.9464-2.108-1.748-4.277-2.4-6.494-0.7415-2.511-1.352-5.059-1.829-7.634-0.5405-2.927-0.9735-5.873-1.298-8.832-0.374-3.37-0.65-6.74-0.846-10.12-0.2199-3.816-0.371-7.635-0.453-11.46-0.08992-4.289-0.1356-8.58-0.137-12.87v-58.21c0-4.293 0.049-8.577 0.137-12.87 0.079-3.822 0.236-7.634 0.453-11.46 0.197-3.38 0.472-6.75 0.846-10.11 0.324-2.967 0.757-5.914 1.298-8.842 0.4773-2.575 1.092-5.138 1.833-7.649 0.6533-2.216 1.452-4.371 2.397-6.479 0.8563-1.896 1.87-3.716 3.03-5.443 1.1-1.621 2.352-3.135 3.737-4.52 1.385-1.384 2.9-2.631 4.525-3.723 1.734-1.161 3.564-2.173 5.469-3.026 2.11-0.9469 4.282-1.748 6.501-2.397 2.518-0.7378 5.072-1.345 7.653-1.818 2.931-0.55 5.892-0.982 8.863-1.297 3.364-0.373 6.743-0.6464 10.13-0.8434 3.824-0.2144 7.655-0.3667 11.48-0.4536 4.298-0.088 8.597-0.137 12.9-0.127z" fill="url(#c)" fill-rule="evenodd"/>
  </g>
  <path d="m133.5 48c-10.25 17.18-13.47 25.51-9.768 36.45 3.353 9.911 12.2 15.22 7.844 38.14 7.154-11.17 12.54-25.7 6.919-37.14-5.713-11.64-8.59-18.48-4.999-37.45zm20.06 7.459c-7.09 10.49-8.776 16.49-5.61 23.83 3.222 7.479 6.848 8.483 2.615 19.38 7.812-8.812 8.213-14.55 4.999-21.37-3.285-6.967-6.681-9.53-2.004-21.84zm-40.36 12.92c-6.435 11.05-8.439 16.41-5.999 23.37 2.21 6.316 7.856 9.617 5.229 24.3 8.058-10.17 7.796-17.4 4.229-23.83-3.48-6.273-5.626-11.69-3.46-23.83zm-34.37 60.89v19.68c0 21.81 8.78 39.37 19.68 39.37h59.05c9.201 0 16.89-12.52 19.07-29.52h15.38c4.087 0 7.38-3.293 7.38-7.38v-14.76c0-4.087-3.293-7.38-7.38-7.38h-14.76zm9.764 4.84h4.999v14.84c0.127 10.98-1.337 28.31 9.84 34.53h-3.69c-11.34-5.348-10.22-24.09-11.15-34.52zm88.65 2.539h10.15a4.602 4.602 0 0 1 4.614 4.614v6.15a4.602 4.602 0 0 1-4.614 4.614h-10.22c0.0397-1.032 0.0754-2.027 0.0754-3.075zm-127.9 56.59c0 8.173 17.56 14.76 39.37 14.76h78.73c21.81 0 39.36-6.586 39.36-14.76z" fill="#ebdbb2" stroke-width="3.968"/>
</svg>
