<svg width="256" height="256" version="1.1" xmlns="http://www.w3.org/2000/svg" xmlns:xlink="http://www.w3.org/1999/xlink">
  <defs>
    <linearGradient id="linearGradient9" x1="128" x2="128" y1="60.307" y2="186" gradientTransform="matrix(1.0499 0 0 1.0499 -6.3868 -3.2987)" gradientUnits="userSpaceOnUse">
      <stop stop-color="#83a598" offset="0"/>
      <stop stop-color="#458588" offset="1"/>
    </linearGradient>
    <linearGradient id="linearGradient15" x1="140" x2="140" y1="12" y2="240" gradientUnits="userSpaceOnUse">
      <stop stop-color="#504945" offset="0"/>
      <stop stop-color="#3c3836" offset="1"/>
    </linearGradient>
    <linearGradient id="linearGradient10" x1="128" x2="128" y1="12" y2="240" gradientUnits="userSpaceOnUse">
      <stop stop-color="#ebdbb2" stop-opacity=".2" offset="0"/>
      <stop stop-color="#ebdbb2" stop-opacity="0" offset=".24728"/>
      <stop stop-color="#1d2021" stop-opacity=".05" offset=".50485"/>
      <stop stop-color="#1d2021" stop-opacity=".3961" offset=".75316"/>
      <stop stop-color="#1d2021" stop-opacity=".6039" offset="1"/>
    </linearGradient>
  </defs>
  <path d="m165 12c72 0 85 15 85 87v56c0 70-13 85-85 85h-74c-72 0-85-15-85-85v-56c0-72 13-87 85-87z" fill="url(#linearGradient15)" style="isolation:isolate"/>
  <path d="m158.52 36.911c59.397 0 70.121 12.374 70.121 71.771v46.197c0 57.747-10.724 70.121-70.121 70.121h-61.046c-59.397 0-70.121-12.374-70.121-70.121v-46.197c0-59.397 10.724-71.771 70.121-71.771z" fill="#282828" stroke-width=".82495" style="isolation:isolate"/>
  <path d="m158.52 31.955c59.397 0 70.121 12.374 70.121 71.771v46.197c0 57.747-10.724 70.121-70.121 70.121h-61.046c-59.397 0-70.121-12.374-70.121-70.121v-46.197c0-59.397 10.724-71.771 70.121-71.771z" fill="#ebdbb2" stroke-width=".82495" style="isolation:isolate"/>
  <path d="m97.474 31.955c-59.397 0-70.121 12.374-70.121 71.771v4.9551c0-59.397 10.724-71.771 70.121-71.771h61.045c59.397 0 70.121 12.374 70.121 71.771v-4.9551c1e-5 -59.397-10.724-71.771-70.121-71.771z" fill="#fbf1c7" opacity=".6" style="isolation:isolate"/>
  <path d="m120.67 71.18v70.221c-5.6376-1.9946-9.837-3.0399-16.128-3.0498-22.674 0-42.52 13.129-42.52 29.324s21.313 29.324 43.987 29.324 43.987-13.129 43.987-29.324v-73.316s33.251 16.989 19.423 29.668c-3.7976 2.1784-5.0429 5.5452-4.3758 8.4765 1.0131 4.4516 6.4282 7.9098 13.952 4.708 11.305-5.8941 14.983-16.461 14.983-25.258 0-26.392-43.983-46.919-67.442-46.919-5.8649 0-5.8649 6.1442-5.8649 6.1442z" fill="#fbf1c7" opacity=".5" stroke-width="14.662"/>
  <path d="m120.67 66.162v70.221c-5.6376-1.9946-9.837-3.0399-16.128-3.0498-22.674 0-42.52 13.129-42.52 29.324s21.313 29.324 43.987 29.324 43.987-13.129 43.987-29.324v-73.316s33.251 16.989 19.423 29.668c-3.7976 2.1784-5.0429 5.5452-4.3758 8.4765 1.0131 4.4516 6.4282 7.9098 13.952 4.708 11.305-5.8941 14.983-16.461 14.983-25.258 0-26.392-43.983-46.919-67.442-46.919-5.8649 0-5.8649 6.1442-5.8649 6.1442z" fill="url(#linearGradient9)" stroke-width="14.662"/>
  <path d="m126.54 60.018c-5.8649 0-5.8633 6.1445-5.8633 6.1445v5.0176c0-1e-6 -2e-3 -6.1445 5.8633-6.1445 22.71 0 64.653 19.238 67.309 44.41 0.0669-0.84397 0.13477-1.6893 0.13477-2.5078 0-26.392-43.984-46.92-67.443-46.92zm45.844 54.598c-0.48033 1.4986-1.4119 2.9741-2.9609 4.3945-3.7976 2.1784-5.0421 5.5453-4.375 8.4766 0.0783 0.34419 0.19041 0.68007 0.32031 1.0098 0.64229-1.6698 1.9399-3.2557 4.0547-4.4688 3.2618-2.991 3.8841-6.2211 2.9609-9.4121zm-67.836 18.719c-22.674 0-42.521 13.129-42.521 29.324 0 0.82718 0.07115 1.6433 0.17969 2.4531 1.9604-14.993 20.879-26.76 42.342-26.76 6.2914 0.01 10.491 1.0542 16.129 3.0488v-5.0176c-5.6376-1.9946-9.8375-3.039-16.129-3.0488z" fill="#282828" opacity=".15" stroke-width="14.662"/>
  <path d="m91 12c-72 0-85 15-85 87v56c0 70 13 85 85 85h74c72 0 85-15 85-85v-56c0-72-13-87-85-87zm0 5h74c35.653 0 55.307 3.9448 65.895 14.965 10.588 11.02 14.105 31.336 14.105 67.035v56c0 34.69-3.4936 54.457-14.07 65.25-10.577 10.793-30.277 14.75-65.93 14.75h-74c-35.653 0-55.353-3.9574-65.93-14.75-10.577-10.793-14.07-30.56-14.07-65.25v-56c0-35.699 3.5176-56.015 14.105-67.035 10.588-11.02 30.242-14.965 65.895-14.965z" fill="url(#linearGradient10)" style="isolation:isolate"/>
</svg>
