<svg width="256" height="256" fill="none" version="1.1" viewBox="0 0 256 256" xmlns="http://www.w3.org/2000/svg">
  <path d="m165.7 11.95c74.06 0 84.64 10.56 84.64 84.54v59.25c0 73.99-10.58 84.54-84.64 84.54h-75.37c-74.06 0-84.64-10.56-84.64-84.54v-59.25c0-73.99 10.58-84.54 84.64-84.54h75.37z" fill="url(#paint0_linear)"/>
  <path d="m128.2 204.4c43.2 0 78.22-35.02 78.22-78.22 0-43.2-35.02-78.22-78.22-78.22-43.2 0-78.22 35.02-78.22 78.22 0 43.2 35.02 78.22 78.22 78.22z" fill="url(#paint1_linear)"/>
  <g filter="url(#filter1_f)" opacity=".2">
    <path d="m99.36 68.72c-15.83 7.462-28.22 20.85-34.38 37.37 8.211 7.164 28.08 24.5 29.85 26.06 0.795 0.7 2.36 2.067 3.472 3.041l2.027 1.778 1.417-0.083c0.783-0.043 3.379-0.215 5.764-0.389s5.382-0.382 6.667-0.458c1.284-0.077 2.583-0.167 2.888-0.209 0.306-0.042 1.605-0.147 2.889-0.222s3.597-0.233 5.125-0.347c1.529-0.114 4.427-0.312 6.445-0.445 5.15-0.338 4.592 0.015 4.403-2.819-0.398-5.957-0.847-12.52-1.625-23.62-0.176-2.507-0.377-5.669-0.459-7.014l-0.152-2.444-1.042-1.014c-0.566-0.5544-1.714-1.616-2.57-2.361-0.856-0.7449-3.266-2.834-5.347-4.653-2.08-1.819-4.179-3.653-4.666-4.07-0.488-0.4165-1.589-1.368-2.445-2.125s-4.467-3.918-8.014-7.014c-3.175-2.771-7.376-6.441-10.25-8.958z"/>
  </g>
  <path d="m99.36 65.17c-15.83 7.462-28.22 20.85-34.38 37.38 8.211 7.163 28.08 24.5 29.85 26.06 0.795 0.7 2.36 2.067 3.472 3.042l2.027 1.778 1.417-0.084c0.783-0.043 3.379-0.215 5.764-0.389 2.385-0.173 5.382-0.381 6.667-0.458 1.284-0.077 2.583-0.166 2.888-0.208 0.306-0.042 1.605-0.148 2.889-0.222 1.284-0.075 3.597-0.233 5.125-0.348 1.529-0.114 4.427-0.311 6.445-0.444 5.15-0.339 4.592 0.015 4.403-2.82-0.398-5.957-0.847-12.52-1.625-23.62-0.176-2.507-0.377-5.668-0.459-7.014l-0.152-2.444-1.042-1.014c-0.566-0.5544-1.714-1.616-2.57-2.361s-3.267-2.834-5.347-4.653c-2.08-1.819-4.179-3.653-4.667-4.069-0.487-0.4165-1.588-1.368-2.444-2.125s-4.467-3.918-8.014-7.014c-3.175-2.771-7.376-6.44-10.25-8.958z" fill="url(#paint2_linear)"/>
  <g filter="url(#filter2_f)" opacity=".2">
    <path d="m143.7 150.7c-1.738-0.575-3.625-2.474-4.346-4.374-1.305-3.439 0.376-7.335 3.844-8.914 1.173-0.534 1.65-0.614 3.162-0.531 2.858 0.157 4.87 1.478 6.129 4.024 0.886 1.79 0.857 4.432-0.066 6.191-1.706 3.245-5.309 4.734-8.722 3.604h-1e-3z"/>
  </g>
  <path d="m143.7 147.2c-1.738-0.576-3.625-2.475-4.346-4.375-1.305-3.438 0.376-7.335 3.844-8.914 1.173-0.534 1.65-0.614 3.162-0.531 2.858 0.158 4.87 1.478 6.129 4.024 0.886 1.79 0.857 4.433-0.066 6.192-1.706 3.245-5.309 4.734-8.722 3.604h-1e-3z" fill="url(#paint3_linear)"/>
  <path d="m128.2 48c-20.75 0-40.64 8.241-55.31 22.91-14.67 14.67-22.91 34.57-22.91 55.31 0.0144 0.581 0.0352 1.163 0.0625 1.743 0.4733-20.42 8.914-39.84 23.52-54.12 14.6-14.28 34.22-22.28 54.64-22.29 20.42 0.018 40.02 8.02 54.62 22.3s23.04 33.7 23.51 54.11c0.037-0.58 0.067-1.161 0.09-1.743 0-20.75-8.241-40.64-22.91-55.31-14.67-14.67-34.57-22.91-55.31-22.91z" opacity=".2"/>
  <path d="m206.3 129.2c-0.761 20.2-9.317 39.33-23.87 53.36-14.56 14.04-33.98 21.89-54.2 21.91-20.02-0.01-39.27-7.695-53.79-21.47-14.52-13.78-23.21-32.6-24.28-52.58-0.0694 0.98-0.1204 1.962-0.1528 2.944 0.0231 0.605 0.0532 1.209 0.0903 1.813 0.0177-0.401 0.0386-0.801 0.0625-1.202 1.066 19.99 9.755 38.81 24.28 52.58 14.52 13.78 33.77 21.46 53.79 21.47 20.22-0.025 39.64-7.879 54.2-21.91 14.56-14.04 23.11-33.16 23.87-53.36 0.042 0.808 0.072 1.616 0.09 2.424 0.028-0.604 0.049-1.208 0.062-1.813-0.013-1.39-0.064-2.779-0.152-4.166z" fill="#ebdbb2" opacity=".2"/>
  <path d="m99.36 65.17c-15.83 7.462-28.22 20.85-34.38 37.38 0.306 0.267 0.7232 0.632 1.111 0.972 6.451-15.32 18.28-27.73 33.26-34.79 2.874 2.518 7.075 6.187 10.25 8.958 3.547 3.096 7.158 6.257 8.014 7.014 0.856 0.7572 1.957 1.709 2.444 2.125 0.488 0.4165 2.587 2.25 4.667 4.07s4.491 3.908 5.347 4.653c0.856 0.7449 2.004 1.807 2.57 2.361l1.041 1.014 0.153 2.444c0.082 1.345 0.283 4.507 0.459 7.014 0.733 10.45 1.147 16.55 1.527 22.24 0.273-0.346 0.178-0.953 0.098-2.167-0.398-5.957-0.847-12.52-1.625-23.62-0.176-2.507-0.377-5.668-0.459-7.013l-0.153-2.444-1.041-1.014c-0.566-0.5544-1.714-1.616-2.57-2.361s-3.267-2.834-5.347-4.653c-2.08-1.819-4.179-3.653-4.667-4.069-0.487-0.4165-1.588-1.368-2.444-2.125s-4.467-3.918-8.014-7.014c-3.175-2.771-7.376-6.44-10.25-8.958z" fill="#ebdbb2" opacity=".2"/>
  <path d="m146.3 133.4c-1.511-0.083-1.979-6e-3 -3.152 0.528-3.253 1.48-4.899 4.996-4.021 8.264 0.545-1.999 1.955-3.768 4.021-4.709 1.173-0.533 1.641-0.61 3.152-0.527 2.858 0.157 4.879 1.482 6.139 4.027 0.191 0.387 0.318 0.823 0.424 1.271 0.386-1.591 0.254-3.456-0.424-4.826-1.26-2.546-3.281-3.871-6.139-4.028z" fill="#ebdbb2" opacity=".2"/>
  <path d="m165.1 11.95c4.328-0.0098 8.656 0.0393 12.98 0.1376 3.875 0.0786 7.751 0.226 11.63 0.4519 3.453 0.1965 6.905 0.4814 10.35 0.8548 3.059 0.334 6.118 0.786 9.148 1.346 2.715 0.501 5.4 1.14 8.046 1.916 2.4 0.6976 4.751 1.562 7.023 2.584 2.115 0.9432 4.141 2.063 6.059 3.35 1.839 1.238 3.561 2.653 5.135 4.215 1.564 1.572 2.98 3.282 4.219 5.119 1.289 1.916 2.41 3.94 3.364 6.042 1.023 2.279 1.889 4.618 2.597 7.005 0.777 2.643 1.417 5.325 1.918 8.037 0.561 3.026 1.013 6.072 1.348 9.127 0.374 3.439 0.659 6.877 0.856 10.33 0.226 3.861 0.373 7.732 0.462 11.59 0.088 4.323 0.138 8.646 0.128 12.96v58.21c0.01 4.323-0.04 8.636-0.128 12.96-0.089 3.871-0.236 7.732-0.462 11.59-0.197 3.449-0.482 6.897-0.856 10.33-0.335 3.055-0.787 6.111-1.348 9.137-0.501 2.702-1.141 5.384-1.918 8.027-0.708 2.387-1.574 4.735-2.597 7.005-0.954 2.112-2.075 4.126-3.364 6.042-1.239 1.837-2.655 3.557-4.219 5.119-1.574 1.562-3.296 2.977-5.135 4.215-1.918 1.287-3.944 2.407-6.059 3.35-2.272 1.022-4.623 1.886-7.023 2.594-2.646 0.776-5.331 1.414-8.046 1.906-3.03 0.569-6.089 1.011-9.148 1.346-3.443 0.373-6.895 0.658-10.35 0.854-3.875 0.226-7.751 0.374-11.63 0.462-4.328 0.088-8.656 0.138-12.98 0.128h-74.13c-4.328 0.01-8.656-0.04-12.98-0.128-3.876-0.088-7.751-0.236-11.63-0.462-3.452-0.196-6.905-0.481-10.35-0.854-3.059-0.335-6.118-0.777-9.148-1.346-2.715-0.492-5.4-1.13-8.046-1.906-2.4-0.708-4.751-1.572-7.023-2.594-2.115-0.943-4.141-2.063-6.059-3.35-1.839-1.238-3.561-2.653-5.135-4.215-1.564-1.562-2.98-3.282-4.22-5.119-1.289-1.916-2.41-3.93-3.364-6.042-1.023-2.27-1.889-4.618-2.597-7.005-0.7771-2.643-1.416-5.325-1.918-8.027-0.5607-3.026-1.013-6.082-1.348-9.137-0.3738-3.429-0.659-6.877-0.8558-10.33-0.2262-3.861-0.3738-7.722-0.4623-11.59-0.08852-4.323-0.1377-8.636-0.1279-12.96v-58.21c-0.00983-4.313 0.03935-8.636 0.1279-12.96 0.08853-3.861 0.2361-7.732 0.4623-11.59 0.1967-3.448 0.482-6.887 0.8558-10.33 0.3344-3.056 0.7869-6.101 1.348-9.127 0.5016-2.712 1.141-5.394 1.918-8.037 0.7082-2.387 1.574-4.726 2.597-7.005 0.9541-2.102 2.075-4.126 3.364-6.042 1.239-1.837 2.656-3.547 4.22-5.119 1.574-1.562 3.295-2.977 5.135-4.215 1.918-1.287 3.944-2.407 6.059-3.35 2.272-1.022 4.623-1.886 7.023-2.584 2.646-0.7761 5.331-1.415 8.046-1.916 3.03-0.56 6.089-1.012 9.148-1.346 3.443-0.3734 6.895-0.6583 10.35-0.8548 3.876-0.2259 7.751-0.3733 11.63-0.4519 4.328-0.0983 8.656-0.1474 12.98-0.1376h74.13zm0.01 4.009c4.298-0.0099 8.597 0.0393 12.9 0.1277 3.827 0.0884 7.653 0.2358 11.48 0.4519 3.384 0.1965 6.767 0.4716 10.13 0.8449 2.971 0.3144 5.932 0.7467 8.863 1.297 2.577 0.4716 5.134 1.081 7.653 1.818 2.223 0.6484 4.396 1.454 6.501 2.397 1.909 0.8548 3.738 1.867 5.469 3.026 1.623 1.09 3.138 2.338 4.525 3.724s2.636 2.898 3.738 4.519c1.16 1.729 2.174 3.547 3.029 5.443 0.945 2.112 1.751 4.284 2.4 6.494 0.748 2.515 1.348 5.06 1.83 7.634 0.541 2.928 0.974 5.875 1.298 8.842 0.374 3.36 0.65 6.73 0.846 10.11 0.217 3.822 0.374 7.634 0.453 11.46 0.088 4.293 0.137 8.577 0.137 12.87v58.21c0 4.293-0.049 8.577-0.137 12.87-0.079 3.822-0.236 7.644-0.453 11.46-0.196 3.38-0.472 6.75-0.846 10.12-0.324 2.957-0.757 5.904-1.298 8.832-0.482 2.574-1.082 5.119-1.83 7.634-0.649 2.22-1.455 4.382-2.4 6.494-0.855 1.896-1.869 3.724-3.029 5.443-1.102 1.631-2.351 3.144-3.738 4.529-1.387 1.376-2.902 2.623-4.525 3.714-1.731 1.159-3.56 2.171-5.469 3.026-2.105 0.953-4.278 1.749-6.501 2.397-2.519 0.737-5.076 1.346-7.653 1.818-2.931 0.55-5.892 0.982-8.863 1.306-3.364 0.364-6.747 0.649-10.13 0.836-3.826 0.216-7.652 0.373-11.48 0.452-4.298 0.098-8.597 0.137-12.9 0.137h-74.15c-4.298 0-8.597-0.039-12.9-0.137-3.826-0.079-7.653-0.236-11.48-0.452-3.384-0.187-6.767-0.472-10.13-0.836-2.97-0.324-5.931-0.756-8.862-1.306-2.577-0.472-5.134-1.081-7.653-1.818-2.223-0.648-4.397-1.444-6.502-2.397-1.908-0.855-3.738-1.867-5.469-3.026-1.623-1.091-3.138-2.338-4.525-3.714-1.387-1.385-2.636-2.898-3.738-4.529-1.161-1.719-2.174-3.547-3.03-5.443-0.9443-2.112-1.751-4.274-2.4-6.494-0.7475-2.515-1.348-5.06-1.83-7.634-0.541-2.928-0.9738-5.875-1.298-8.832-0.3738-3.37-0.6492-6.74-0.8459-10.12-0.2164-3.812-0.3738-7.634-0.4525-11.46-0.08853-4.293-0.1377-8.577-0.1377-12.87v-58.21c0-4.293 0.04918-8.577 0.1377-12.87 0.07869-3.822 0.2361-7.634 0.4525-11.46 0.1967-3.38 0.4721-6.75 0.8459-10.11 0.3246-2.967 0.7574-5.914 1.298-8.842 0.4819-2.574 1.082-5.119 1.83-7.634 0.6492-2.21 1.456-4.382 2.4-6.494 0.8557-1.896 1.869-3.714 3.03-5.443 1.102-1.621 2.351-3.134 3.738-4.519s2.902-2.633 4.525-3.724c1.731-1.159 3.561-2.171 5.469-3.026 2.105-0.9431 4.279-1.749 6.502-2.397 2.518-0.7369 5.076-1.346 7.653-1.818 2.931-0.5502 5.892-0.9825 8.862-1.297 3.364-0.3733 6.748-0.6484 10.13-0.8449 3.826-0.2161 7.653-0.3635 11.48-0.4519 4.298-0.0884 8.597-0.1376 12.9-0.1277h74.15z" clip-rule="evenodd" fill="url(#paint4_linear)" fill-rule="evenodd" opacity=".4"/>
  <defs>
    <linearGradient id="paint0_linear" x1="5.676" x2="5.676" y1="11.95" y2="240.3" gradientUnits="userSpaceOnUse">
      <stop stop-color="#ebdbb2" offset="1e-7"/>
      <stop stop-color="#d5c4a1" offset="1"/>
    </linearGradient>
    <linearGradient id="paint1_linear" x1="50" x2="50" y1="48" y2="204.4" gradientUnits="userSpaceOnUse">
      <stop stop-color="#b16286" offset="1e-7"/>
      <stop stop-color="#8f3f71" offset="1"/>
    </linearGradient>
    <linearGradient id="paint2_linear" x1="64.99" x2="64.99" y1="65.17" y2="133.4" gradientUnits="userSpaceOnUse">
      <stop stop-color="#ebdbb2" offset="1e-7"/>
      <stop stop-color="#d5c4a1" offset="1"/>
    </linearGradient>
    <linearGradient id="paint3_linear" x1="138.9" x2="138.9" y1="133.3" y2="147.6" gradientUnits="userSpaceOnUse">
      <stop stop-color="#ebdbb2" offset="1e-7"/>
      <stop stop-color="#d5c4a1" offset="1"/>
    </linearGradient>
    <linearGradient id="paint4_linear" x1="132.1" x2="132.1" y1="11.95" y2="240.3" gradientUnits="userSpaceOnUse">
      <stop stop-color="#ebdbb2" offset="0"/>
      <stop stop-color="#ebdbb2" stop-opacity=".09804" offset=".125"/>
      <stop stop-opacity=".09804" offset=".925"/>
      <stop stop-opacity=".498" offset="1"/>
    </linearGradient>
  </defs>
</svg>
