<svg width="256" height="256" version="1.1" xmlns="http://www.w3.org/2000/svg">
  <defs>
    <linearGradient id="linearGradient31" x1=".5002" x2=".5002" y2="1" gradientTransform="matrix(244,0,0,228,5.986,12)" gradientUnits="userSpaceOnUse">
      <stop stop-color="#ebdbb2" stop-opacity=".2" offset="0"/>
      <stop stop-color="#ebdbb2" stop-opacity=".05" offset=".1"/>
      <stop stop-opacity="0" offset=".7036"/>
      <stop stop-opacity=".1" offset=".8975"/>
      <stop stop-opacity=".2" offset="1"/>
    </linearGradient>
    <linearGradient id="linearGradient6" x1="140" x2="140" y1="12" y2="240" gradientUnits="userSpaceOnUse">
      <stop stop-color="#cc241d" offset="0"/>
      <stop stop-color="#cc241d" offset="1"/>
    </linearGradient>
  </defs>
  <path d="m165 12c72 0 85 15 85 87v56c0 70-13 85-85 85h-74c-72 0-85-15-85-85v-56c0-72 13-87 85-87z" fill="url(#linearGradient6)" style="isolation:isolate"/>
  <path d="m128 62.005a13.353 13.353 0 0 0-13.354 13.354 13.353 13.353 0 0 0 5.2311 10.556c-6.8511 11.595-13.702 23.177-20.553 34.194-3.5357 5.3835-8.8377 8.7991-14.14 8.7991-18.555-0.13093-18.181-10.135-25.992-21.189a8.9029 8.9029 0 0 0 2.0391-5.6526 8.9029 8.9029 0 0 0-8.9016-8.9016 8.9029 8.9029 0 0 0-8.9039 8.9016 8.9029 8.9029 0 0 0 8.2659 8.8583l0.50124 1.408c3.5346 13.759 6.4811 28.714 10.016 44.269 0.5891 2.3937 2.3576 4.1876 4.7139 4.1876 20.029 2.3937 40.647 3.5907 61.265 3.5907 20.619 0 41.239-1.197 61.27-3.5907 1.7673 0 3.5347-1.7939 4.1238-4.1876 3.5346-15.554 6.48-30.51 10.016-44.269l0.47617-1.3921a8.9029 8.9029 0 0 0 8.5006-8.8742 8.9029 8.9029 0 0 0-8.9039-8.9016 8.9029 8.9029 0 0 0-8.9016 8.9016 8.9029 8.9029 0 0 0 2.6816 6.3384c-8.8662 9.8617-12.532 19.858-27.434 20.503-5.891 0-10.605-3.4156-14.14-8.7991-6.7691-10.885-13.538-22.323-20.307-33.779a13.353 13.353 0 0 0 5.7825-10.97 13.353 13.353 0 0 0-13.354-13.354zm58.791 111.28c-0.31754 2e-3 -0.65299 0.0351-1.007 0.10018-18.891 2.5967-38.202 5.2286-57.515 5.2402-19.494 0.0128-38.989-2.6202-58.055-5.2402-2.2654-0.52144-4.5317 1.5642-4.5317 3.6499v10.957c0 2.6095 1.6994 5.2178 4.5317 5.7392 37.956 8.3476 77.614 8.3476 115.57 0 2.2654-0.52143 4.5317-3.1297 4.5317-5.7392v-10.957c0-2.2823-1.3019-3.7644-3.5246-3.7502z" fill="#282828" opacity=".2" stroke-width="1.1665" style="isolation:isolate"/>
  <path d="m128 57.005a13.353 13.353 0 0 0-13.354 13.354 13.353 13.353 0 0 0 5.2311 10.556c-6.8511 11.595-13.702 23.177-20.553 34.194-3.5357 5.3835-8.8377 8.7991-14.14 8.7991-18.555-0.13093-18.181-10.135-25.992-21.189a8.9029 8.9029 0 0 0 2.0391-5.6526 8.9029 8.9029 0 0 0-8.9016-8.9016 8.9029 8.9029 0 0 0-8.9039 8.9016 8.9029 8.9029 0 0 0 8.2659 8.8583l0.50124 1.408c3.5346 13.759 6.4811 28.714 10.016 44.269 0.5891 2.3937 2.3576 4.1876 4.7139 4.1876 20.029 2.3937 40.647 3.5907 61.265 3.5907 20.619 0 41.239-1.197 61.27-3.5907 1.7673 0 3.5347-1.7939 4.1238-4.1876 3.5346-15.554 6.48-30.51 10.016-44.269l0.47617-1.3921a8.9029 8.9029 0 0 0 8.5006-8.8743 8.9029 8.9029 0 0 0-8.9039-8.9016 8.9029 8.9029 0 0 0-8.9016 8.9016 8.9029 8.9029 0 0 0 2.6816 6.3384c-8.8662 9.8617-12.532 19.858-27.434 20.503-5.891 0-10.605-3.4156-14.14-8.7991-6.7691-10.885-13.538-22.323-20.307-33.779a13.353 13.353 0 0 0 5.7825-10.97 13.353 13.353 0 0 0-13.354-13.354zm58.791 111.28c-0.31754 2e-3 -0.65299 0.0351-1.007 0.10018-18.891 2.5967-38.202 5.2286-57.515 5.2402-19.494 0.0128-38.989-2.6202-58.055-5.2402-2.2654-0.52144-4.5317 1.5642-4.5317 3.6499v10.957c0 2.6095 1.6994 5.2178 4.5317 5.7392 37.956 8.3476 77.614 8.3476 115.57 0 2.2654-0.52143 4.5317-3.1297 4.5317-5.7392v-10.957c0-2.2823-1.3019-3.7644-3.5246-3.7502z" fill="#fabd2f" stroke-width="1.1665" style="isolation:isolate"/>
  <path d="m128 57.007a13.353 13.353 0 0 0-13.354 13.354 13.353 13.353 0 0 0 0.39453 2.5098 13.353 13.353 0 0 1 12.959-10.865 13.353 13.353 0 0 1 13.02 10.383 13.353 13.353 0 0 0 0.33398-2.0273 13.353 13.353 0 0 0-13.354-13.354zm-9.9551 26.996c-6.24 10.555-12.479 21.073-18.719 31.107-3.5357 5.3835-8.8388 8.7988-14.141 8.7988-17.259-0.12178-18.147-8.7875-24.471-18.893a8.9029 8.9029 0 0 1-1.5215 2.7031c7.8109 11.054 7.4368 21.057 25.992 21.188 5.3018 0 10.605-3.4153 14.141-8.7988 6.8511-11.017 13.702-22.598 20.553-34.193a13.353 13.353 0 0 1-1.834-1.9121zm19.42 0.51562a13.353 13.353 0 0 1-1.8926 1.8105c6.7692 11.456 13.538 22.894 20.307 33.779 3.5346 5.3835 8.2477 8.7988 14.139 8.7988 14.901-0.64542 18.569-10.64 27.436-20.502a8.9029 8.9029 0 0 1-1.8867-2.7656c-7.5534 9.0829-11.776 17.673-25.549 18.27-5.891 0-10.604-3.4153-14.139-8.7988-6.1383-9.8708-12.276-20.211-18.414-30.592zm-85.133 3.6465a8.9029 8.9029 0 0 0-8.9043 8.9023 8.9029 8.9029 0 0 0 0.48828 2.543 8.9029 8.9029 0 0 1 8.416-6.4453 8.9029 8.9029 0 0 1 8.4336 6.5566 8.9029 8.9029 0 0 0 0.4668-2.6543 8.9029 8.9029 0 0 0-8.9004-8.9023zm151.34 0a8.9029 8.9029 0 0 0-8.9004 8.9023 8.9029 8.9029 0 0 0 0.50391 2.4648 8.9029 8.9029 0 0 1 8.3965-6.3672 8.9029 8.9029 0 0 1 8.4121 6.4277 8.9029 8.9029 0 0 0 0.49219-2.5254 8.9029 8.9029 0 0 0-8.9043-8.9023zm-16.881 80.123c-0.31754 2e-3 -0.65181 0.0365-1.0059 0.10156-18.891 2.5967-38.203 5.2286-57.516 5.2402-19.494 0.0128-38.989-2.6202-58.055-5.2402-2.2654-0.52144-4.5312 1.5627-4.5312 3.6484v5c0-2.0857 2.2659-4.1718 4.5312-3.6504 19.066 2.62 38.561 5.253 58.055 5.2402 19.313-0.0117 38.625-2.6436 57.516-5.2402 0.35405-0.0651 0.68832-0.0976 1.0059-0.0996 2.2228-0.0142 3.5254 1.4677 3.5254 3.75v-5c0-2.2823-1.3026-3.7642-3.5254-3.75z" fill="#ebdbb2" opacity=".4" stroke-width="1.1665" style="isolation:isolate"/>
  <path d="m91 12c-72 0-85 15-85 87v56c0 70 13 85 85 85h74c72 0 85-15 85-85v-56c0-72-13-87-85-87zm0 4h74c68 0 80 15 80 83v56c0 66-12 81-80 81h-74c-68 0-80-15-80-81v-56c0-68 12-83 80-83z" fill="url(#linearGradient31)" style="isolation:isolate"/>
</svg>
