<svg width="256" height="256" style="isolation:isolate" version="1.1" viewBox="0 0 256 256" xmlns="http://www.w3.org/2000/svg">
  <g filter="url(#Dgd5zEP4nfG4Ep6iB7GQTNemRPBmwHxV)">
    <linearGradient id="_lgradient_166" x2="0" y2="1" gradientTransform="matrix(244.65 0 0 228.34 5.68 11.95)" gradientUnits="userSpaceOnUse">
      <stop stop-color="#fabd2f" offset="0"/>
      <stop stop-color="#b57614" offset="1"/>
    </linearGradient>
    <path d="m165.69 11.95c74.056 0 84.639 10.557 84.639 84.544v59.251c0 73.986-10.584 84.544-84.639 84.544h-75.37c-74.056 0-84.639-10.557-84.639-84.544v-59.251c0-73.987 10.584-84.544 84.639-84.544h75.37z" fill="url(#_lgradient_166)"/>
  </g>
  <g opacity=".4">
    <linearGradient id="_lgradient_167" x1=".517" x2=".517" y2="1" gradientTransform="matrix(244.65,0,0,228.34,5.68,11.95)" gradientUnits="userSpaceOnUse">
      <stop stop-color="#ebdbb2" offset="0"/>
      <stop stop-color="#ebdbb2" stop-opacity=".098" offset=".125"/>
      <stop stop-color="#282828" stop-opacity=".098" offset=".925"/>
      <stop stop-color="#282828" stop-opacity=".498" offset="1"/>
    </linearGradient>
    <path d="m165.07 11.951c4.328-0.009825 8.6559 0.039299 12.984 0.13755 3.8755 0.078598 7.751 0.22597 11.626 0.45194 3.4525 0.1965 6.9051 0.48141 10.348 0.85476 3.0591 0.33404 6.1182 0.78598 9.1477 1.346 2.7148 0.50106 5.4001 1.1397 8.0461 1.9158 2.4 0.69756 4.7509 1.5621 7.0231 2.5839 2.1148 0.94318 4.1411 2.0632 6.0591 3.3502 1.8394 1.2379 3.5607 2.6527 5.1345 4.2148 1.564 1.572 2.9804 3.2815 4.2198 5.1187 1.2886 1.9158 2.4099 3.9397 3.364 6.0422 1.023 2.2793 1.8886 4.6176 2.5968 7.0051 0.77706 2.6429 1.4164 5.325 1.9181 8.0367 0.56066 3.026 1.0131 6.0717 1.3476 9.1272 0.37378 3.4387 0.65903 6.8773 0.85575 10.326 0.22624 3.8611 0.37378 7.7321 0.46231 11.593 0.088537 4.3229 0.13771 8.6458 0.12788 12.959v58.212c0.009831 4.3229-0.039339 8.636-0.12788 12.959-0.088523 3.871-0.23606 7.7321-0.46231 11.593-0.19672 3.4485-0.48197 6.897-0.85575 10.326-0.33443 3.0555-0.7869 6.111-1.3476 9.137-0.50166 2.7018-1.141 5.384-1.9181 8.0269-0.70821 2.3874-1.5738 4.7355-2.5968 7.0051-0.9541 2.1123-2.0754 4.1264-3.364 6.0422-1.2394 1.8372-2.6558 3.5566-4.2198 5.1187-1.5738 1.5621-3.2952 2.9769-5.1345 4.2148-1.9181 1.287-3.9443 2.4071-6.0591 3.3502-2.2722 1.0218-4.623 1.8864-7.0231 2.5937-2.646 0.77616-5.3313 1.4148-8.0461 1.906-3.0296 0.56984-6.0886 1.012-9.1477 1.346-3.4427 0.37333-6.8952 0.65826-10.348 0.85475-3.8755 0.22597-7.751 0.37335-11.626 0.46177-4.328 0.088419-8.6559 0.13755-12.984 0.12773h-74.126c-4.328 0.009819-8.6559-0.039308-12.984-0.12773-3.8755-0.08842-7.751-0.2358-11.626-0.46177-3.4525-0.19649-6.9051-0.48142-10.348-0.85475-3.0591-0.33405-6.1182-0.77616-9.1477-1.346-2.7148-0.49124-5.4001-1.1298-8.0461-1.906-2.4-0.70737-4.7509-1.572-7.0231-2.5937-2.1148-0.94317-4.1411-2.0632-6.0591-3.3502-1.8394-1.2379-3.5607-2.6527-5.1345-4.2148-1.564-1.5621-2.9804-3.2815-4.2198-5.1187-1.2886-1.9158-2.4099-3.9299-3.364-6.0422-1.023-2.2695-1.8886-4.6176-2.5968-7.0051-0.77706-2.6429-1.4164-5.325-1.9181-8.0269-0.56067-3.026-1.0131-6.0815-1.3476-9.137-0.37378-3.4289-0.65903-6.8773-0.85576-10.326-0.22623-3.8611-0.37378-7.7223-0.4623-11.593-0.088526-4.3229-0.13771-8.636-0.12787-12.959v-58.212c-0.009836-4.3131 0.039345-8.636 0.12787-12.959 0.088527-3.8611 0.23607-7.7321 0.4623-11.593 0.19672-3.4485 0.48198-6.8872 0.85576-10.326 0.33443-3.0555 0.7869-6.1012 1.3476-9.1272 0.50165-2.7116 1.141-5.3938 1.9181-8.0367 0.70821-2.3874 1.5738-4.7257 2.5968-7.0051 0.95412-2.1025 2.0755-4.1264 3.364-6.0422 1.2394-1.8372 2.6558-3.5467 4.2198-5.1187 1.5738-1.5621 3.2951-2.9769 5.1345-4.2148 1.9181-1.287 3.9443-2.4071 6.0591-3.3502 2.2722-1.0218 4.623-1.8864 7.0231-2.5839 2.646-0.77616 5.3313-1.4148 8.0461-1.9158 3.0296-0.56001 6.0886-1.012 9.1477-1.346 3.4427-0.37334 6.8952-0.65826 10.348-0.85476 3.8755-0.22597 7.751-0.37334 11.626-0.45194 4.3279-0.098248 8.6559-0.14737 12.984-0.13755h74.126zm0.009846 4.0085c4.2984-0.009825 8.5969 0.039299 12.895 0.12772 3.8263 0.088423 7.6526 0.23579 11.479 0.45194 3.3837 0.1965 6.7674 0.47159 10.131 0.84493 2.9705 0.31439 5.9313 0.74668 8.8625 1.2969 2.5771 0.47159 5.1345 1.0807 7.6526 1.8176 2.223 0.64844 4.3968 1.4541 6.5018 2.3972 1.9082 0.85476 3.7378 1.8667 5.469 3.026 1.623 1.0906 3.1378 2.3383 4.5247 3.7236s2.6361 2.8983 3.7378 4.5194c1.1607 1.7292 2.1738 3.5467 3.0296 5.4429 0.94427 2.1123 1.7509 4.2836 2.4 6.4942 0.74756 2.5151 1.3476 5.0598 1.8295 7.6338 0.541 2.9278 0.9738 5.8752 1.2984 8.8423 0.37378 3.3601 0.6492 6.73 0.84592 10.11 0.2164 3.8218 0.37378 7.6338 0.45246 11.456 0.088538 4.2934 0.13771 8.577 0.13771 12.87v58.212c0 4.2934-0.049169 8.577-0.13771 12.87-0.078677 3.8218-0.23606 7.6437-0.45246 11.456-0.19672 3.3797-0.47214 6.7496-0.84592 10.12-0.3246 2.9573-0.7574 5.9047-1.2984 8.8325-0.48197 2.5741-1.082 5.1187-1.8295 7.6339-0.64918 2.2204-1.4558 4.3819-2.4 6.4942-0.85576 1.8962-1.8689 3.7236-3.0296 5.4429-1.1017 1.6309-2.3509 3.1439-3.7378 4.5292-1.3869 1.3755-2.9017 2.6232-4.5247 3.7138-1.7312 1.1593-3.5607 2.1713-5.469 3.026-2.105 0.953-4.2788 1.7488-6.5018 2.3972-2.5181 0.73686-5.0755 1.346-7.6526 1.8176-2.9312 0.55018-5.8919 0.98248-8.8625 1.3067-3.364 0.36351-6.7477 0.64844-10.131 0.8351-3.8263 0.21615-7.6526 0.37335-11.479 0.45195-4.2985 0.098254-8.5969 0.13755-12.895 0.13755h-0.009846-74.126-0.009838c-4.2984 0-8.5969-0.039292-12.895-0.13755-3.8263-0.0786-7.6526-0.2358-11.479-0.45195-3.3837-0.18666-6.7673-0.47158-10.131-0.8351-2.9706-0.32422-5.9313-0.75651-8.8625-1.3067-2.5771-0.47158-5.1345-1.0807-7.6526-1.8176-2.223-0.64842-4.3968-1.4442-6.5018-2.3972-1.9082-0.85475-3.7378-1.8667-5.469-3.026-1.623-1.0906-3.1378-2.3383-4.5247-3.7138-1.3869-1.3853-2.6361-2.8983-3.7378-4.5292-1.1607-1.7193-2.1738-3.5467-3.0296-5.4429-0.94428-2.1123-1.7509-4.2738-2.4-6.4942-0.74756-2.5151-1.3476-5.0598-1.8295-7.6339-0.541-2.9278-0.97379-5.8752-1.2984-8.8325-0.37378-3.3699-0.64919-6.7398-0.84592-10.12-0.2164-3.812-0.37378-7.6339-0.45247-11.456-0.088526-4.2934-0.13771-8.577-0.13771-12.87v-58.212c0-4.2934 0.049181-8.577 0.13771-12.87 0.07869-3.8218 0.23607-7.6338 0.45247-11.456 0.19672-3.3797 0.47214-6.7496 0.84592-10.11 0.3246-2.9671 0.75739-5.9145 1.2984-8.8423 0.48198-2.5741 1.082-5.1187 1.8295-7.6338 0.64919-2.2106 1.4558-4.3818 2.4-6.4942 0.85575-1.8962 1.8689-3.7138 3.0296-5.4429 1.1017-1.6211 2.3509-3.1341 3.7378-4.5194s2.9017-2.633 4.5247-3.7236c1.7312-1.1593 3.5607-2.1713 5.469-3.026 2.105-0.94318 4.2788-1.7488 6.5018-2.3972 2.5181-0.73686 5.0755-1.346 7.6526-1.8176 2.9312-0.55019 5.8919-0.98248 8.8625-1.2969 3.364-0.37334 6.7477-0.64843 10.131-0.84493 3.8263-0.21614 7.6526-0.36352 11.479-0.45194 4.2984-0.088423 8.5969-0.13755 12.895-0.12772h0.009838 74.126 0.009846z" fill="url(#_lgradient_167)" fill-rule="evenodd"/>
  </g>
  <g filter="url(#U9VSP3moUnB4EEY5O3jU2vD7LnN3YlgA)" opacity=".4">
    <path d="m186.68 196.19c0 2.3794-25.928 4.3079-57.912 4.3079-31.984 0-57.912-1.9285-57.912-4.3079s25.928-4.3079 57.912-4.3079c31.984 0 57.912 1.9285 57.912 4.3079z"/>
  </g>
  <g>
    <path d="m102.19 176.94-10.631 15.98c-1.0008 1.5011-2.9612 2.0196-4.5715 1.2145-0.013624-0.009083-0.031789-0.013624-0.045665-0.022706-1.619-0.83711-2.3468-2.7613-1.6873-4.4578l6.9186-17.904c0.40039-0.77782 1.1691-1.2463 1.9924-1.3102 0.43218-0.031788 0.87798 0.050207 1.2917 0.2639l5.6907 2.9478c1.1918 0.61862 1.6603 2.0968 1.0417 3.2886z" fill="#1d2021"/>
    <path d="m100.67 176.56-10.631 15.98c-0.70036 1.046-1.8649 1.6147-3.0568 1.592-0.013624-0.009083-0.031789-0.013624-0.045665-0.022707-1.6192-0.8371-2.3468-2.7613-1.6873-4.4578l6.9186-17.904c0.40039-0.77782 1.1691-1.2463 1.9924-1.3102l5.4631 2.834c1.1918 0.61408 1.6649 2.0971 1.0463 3.2889z" fill="#282828"/>
  </g>
  <g>
    <path d="m152.94 176.94 10.631 15.98c1.0006 1.5009 2.9612 2.0196 4.5715 1.2143 0.013623-0.009083 0.031788-0.013372 0.045412-0.022454 1.6192-0.83711 2.3471-2.7613 1.6876-4.4578l-6.9189-17.904c-0.40014-0.77782-1.1691-1.2466-1.9921-1.3102-0.43218-0.031788-0.87823 0.050207-1.292 0.2639l-5.6905 2.9475c-1.1918 0.61862-1.6603 2.0971-1.0417 3.2889z" fill="#1d2021"/>
    <path d="m154.46 176.56 10.631 15.98c0.70036 1.0463 1.8647 1.6147 3.0568 1.592 0.013624-0.009082 0.031789-0.013371 0.045413-0.022454 1.6195-0.8371 2.3471-2.7613 1.6876-4.4578l-6.9189-17.904c-0.40014-0.77782-1.1691-1.2466-1.9921-1.3102l-5.4634 2.834c-1.1916 0.61383-1.6646 2.0968-1.046 3.2886z" fill="#282828"/>
  </g>
  <path d="m175.86 130.38c0 26.673-21.623 48.296-48.296 48.296-26.673 0-48.296-21.623-48.296-48.296 0-26.673 21.623-48.296 48.296-48.296 26.673 0 48.296 21.623 48.296 48.296z" fill="#ebdbb2"/>
  <g>
    <path d="m128.19 98.693h-1.8195v-12.282h1.8195v12.282z" fill="#9d0006"/>
    <path d="m108.95 98.666-1.5067 1.0203-4.3361-6.4027 1.5067-1.0203 4.3361 6.4027z" fill="#7c6f64"/>
    <path d="m96.627 111.68-0.85275 1.6074-6.8313-3.6239 0.85275-1.6074 6.8313 3.6239z" fill="#7c6f64"/>
    <path d="m95.026 131.22h-12.282v-1.8195h12.282v1.8195z" fill="#9d0006"/>
    <path d="m98.869 148.82-0.85275-1.6074-6.8311 3.6239 0.85275 1.6074 6.8311-3.6239z" fill="#7c6f64"/>
    <path d="m111.19 161.83-1.5064-1.0203-4.3361 6.4027 1.5064 1.0203 4.3361-6.4027z" fill="#7c6f64"/>
    <path d="m128.04 176.63h-1.8195v-12.282h1.8195v12.282z" fill="#9d0006"/>
    <path d="m143.94 159.82 1.5067-1.0203 4.3361 6.4027-1.5067 1.0205-4.3361-6.4029z" fill="#7c6f64"/>
    <path d="m156.26 146.81 0.8525-1.6074 6.8313 3.6239-0.85275 1.6074-6.8311-3.6239z" fill="#7c6f64"/>
    <path d="m173.49 131.22h-12.282v-1.8195h12.282v1.8195z" fill="#9d0006"/>
    <path d="m157.63 112.59 0.85275 1.6074 6.8311-3.6239-0.8525-1.6074-6.8313 3.6239z" fill="#7c6f64"/>
    <path d="m145.31 99.576 1.5067 1.0203 4.3361-6.4027-1.5067-1.0203-4.3361 6.4027z" fill="#7c6f64"/>
    <path d="m131.76 129.71c0 2.473-2.0045 4.4774-4.4772 4.4774-2.473 0-4.4774-2.0045-4.4774-4.4774 0-2.4727 2.0045-4.4774 4.4774-4.4774 2.4727 0 4.4772 2.0047 4.4772 4.4774z" fill="#3d3836"/>
    <path d="m129.53 140.12h-4.1989l0.64612-38.339h2.9067l0.64612 38.339z" fill="#3c3836"/>
    <path d="m133.11 124.07 2.0453 3.2823-22.681 13.435-1.4161-2.2724 22.051-14.445z" fill="#3c3836"/>
  </g>
  <path d="m156.95 138.73-36.18-10.257 0.33328-1.1237 35.921 11.129-0.074426 0.25154z" fill="#cc241d"/>
  <path d="m128.76 129.76c0 0.76167-0.61736 1.379-1.379 1.379-0.76117 0-1.3788-0.61736-1.3788-1.379s0.61761-1.3788 1.3788-1.3788c0.76167 0 1.379 0.61711 1.379 1.3788z" fill="#fb4934"/>
  <path d="m133.02 64.182v3.6141c0 0.5336-0.43646 0.97032-0.97031 0.97032h-2.9712v4.8316h-2.8814v-4.8316h-3.1244c-0.53359 0-0.97006-0.43672-0.97006-0.97032v-3.6141c0-0.5336 0.43647-0.97032 0.97006-0.97032h8.9771c0.53385 0 0.97031 0.43672 0.97031 0.97032z" fill="#282828"/>
  <radialGradient id="_rgradient_2" cx=".5" cy=".5" r=".5" gradientTransform="matrix(117.81 0 0 117.81 68.658 72.234)" gradientUnits="userSpaceOnUse">
    <stop stop-color="#af3a03" offset="0"/>
    <stop stop-color="#d56d0e" offset=".9"/>
    <stop stop-color="#af3a03" offset="1"/>
  </radialGradient>
  <path d="m68.658 131.14c0 32.533 26.374 58.906 58.907 58.906 32.533 0 58.907-26.373 58.907-58.906 0-32.533-26.374-58.907-58.907-58.907-32.533 0-58.907 26.374-58.907 58.907zm38.319 42.84c-0.004793 0-0.009082-0.004794-0.013876-0.004794-8.3287-4.0213-15.311-10.403-20.078-18.263-4.3485-7.1732-6.8548-15.588-6.8548-24.572 0-26.21 21.324-47.535 47.534-47.535 10.776 0 20.729 3.607 28.712 9.6799 0.013624 0.013624 0.031789 0.027248 0.045412 0.03633 4.8536 3.689 8.9748 8.2969 12.109 13.56 4.2352 7.1051 6.6688 15.402 6.6688 24.259 0 26.21-21.325 47.535-47.535 47.535-7.3735 0-14.356-1.6876-20.588-4.6942z" fill="url(#_rgradient_2)"/>
  <path d="m168.43 106.88c4.235 7.1053 6.6688 15.402 6.6688 24.259 0 26.21-21.325 47.535-47.535 47.535-7.3735 0-14.356-1.6876-20.588-4.6942 6.6729 3.657 14.329 5.7359 22.475 5.7359 25.874 0 46.843-20.97 46.843-46.843 0-9.6116-2.8976-18.554-7.865-25.992z" fill="#fe8019"/>
  <path d="m126.3 82.546c-26.065 0-47.198 21.134-47.198 47.198 0 9.5932 2.8615 18.518 7.783 25.969-4.3485-7.1732-6.8548-15.589-6.8548-24.572 0-26.21 21.324-47.535 47.535-47.535 10.776 0 20.729 3.6073 28.712 9.6797-8.1513-6.7092-18.595-10.74-29.976-10.74z" fill="#af3a03"/>
  <g fill="#282828">
    <path d="m159.96 84.393-5.1235-2.9579 5.5297-9.5778 5.1233 2.9581-5.5295 9.5775z"/>
    <path d="m95.621 84.393 5.1233-2.9579-5.5297-9.5778-5.1233 2.9581 5.5297 9.5775z"/>
    <path d="m175.99 61.499-7.4396-4.0493c-0.19578-0.10647-0.26794-0.35144-0.16147-0.54722l0.64864-1.1918c0.10647-0.19578 0.35171-0.26819 0.54722-0.16147l7.4398 4.049c0.19553 0.10672 0.26794 0.3517 0.16121 0.54747l-0.64864 1.1918c-0.10647 0.19578-0.35169 0.26793-0.54722 0.16147z"/>
    <path d="m79.144 61.499 7.4396-4.0493c0.19578-0.10647 0.26793-0.35144 0.16146-0.54722l-0.64889-1.1918c-0.10647-0.19578-0.35119-0.26819-0.54722-0.16147l-7.4393 4.049c-0.19578 0.10672-0.26818 0.3517-0.16146 0.54747l0.64864 1.1918c0.10647 0.19578 0.3517 0.26793 0.54722 0.16147z"/>
  </g>
  <linearGradient id="_lgradient_168" x2="0" y2="1" gradientTransform="matrix(43.164 0 0 33.531 71.031 55.637)" gradientUnits="userSpaceOnUse">
    <stop stop-color="#fabd2f" offset="0"/>
    <stop stop-color="#fabd2f" offset=".5"/>
    <stop stop-color="#d79921" offset="1"/>
  </linearGradient>
  <path d="m83.557 59.006c-12.051 6.9447-15.449 17.898-10.009 30.162l40.647-21.855c-6.0596-11.098-18.111-15.183-30.638-8.3064z" fill="url(#_lgradient_168)"/>
  <linearGradient id="_lgradient_169" x2="0" y2="1" gradientTransform="matrix(-43.164 0 0 33.531 183.91 55.637)" gradientUnits="userSpaceOnUse">
    <stop stop-color="#fabd2f" offset="0"/>
    <stop stop-color="#fabd2f" offset=".5"/>
    <stop stop-color="#d79921" offset="1"/>
  </linearGradient>
  <path d="m171.39 59.006c12.051 6.9447 15.449 17.898 10.009 30.162l-40.647-21.855c6.0596-11.098 18.111-15.183 30.638-8.3064z" fill="url(#_lgradient_169)"/>
</svg>
