<svg width="256" height="256" version="1.1" xmlns="http://www.w3.org/2000/svg" xmlns:xlink="http://www.w3.org/1999/xlink">
  <defs>
    <linearGradient id="linearGradient6" x1="140" x2="140" y1="12" y2="240" gradientUnits="userSpaceOnUse">
      <stop stop-color="#83a598" offset=".6027"/>
      <stop stop-color="#689d6a" offset="1"/>
    </linearGradient>
    <linearGradient id="linearGradient11" x1="129.34" x2="129.34" y1="119.96" y2="210.79" gradientTransform="translate(2.55e-5)" gradientUnits="userSpaceOnUse">
      <stop stop-color="#ebdbb2" offset="0"/>
      <stop stop-color="#83a598" offset="1"/>
    </linearGradient>
    <linearGradient id="linearGradient31-2" x1=".5002" x2=".5002" y2="1" gradientTransform="matrix(244,0,0,228,5.986,12)" gradientUnits="userSpaceOnUse">
      <stop stop-color="#ebdbb2" stop-opacity=".2" offset="0"/>
      <stop stop-color="#ebdbb2" stop-opacity=".05" offset=".1"/>
      <stop stop-opacity="0" offset=".7036"/>
      <stop stop-opacity=".1" offset=".8975"/>
      <stop stop-opacity=".2" offset="1"/>
    </linearGradient>
  </defs>
  <path d="m165 12c72 0 85 15 85 87v56c0 70-13 85-85 85h-74c-72 0-85-15-85-85v-56c0-72 13-87 85-87z" fill="url(#linearGradient6)" style="isolation:isolate"/>
  <path d="m58.768 124.9c-7.4951 0-13.592 5.9592-13.822 13.398h-0.0098v16.076h32.154v-16.076h-0.0098c-0.22976-7.4393-6.3271-13.398-13.822-13.398zm37.514 26.795c-5.3462 0-9.9728 3.0367-12.275 7.4746-2.1298-1.3388-4.6495-2.1152-7.3516-2.1152h-4.4902c-7.6408 0-13.83 6.1913-13.83 13.832v23.246c0 6.5682 4.5792 12.053 10.717 13.467v8.4043h10.719v-8.4258c2.5807-0.59665 4.8788-1.9018 6.6816-3.7188 1.8075 1.8266 4.1231 3.1429 6.7148 3.7402v8.4043h10.719v-8.4043c6.1376-1.4139 10.717-6.8986 10.717-13.467v-28.605c0-7.6408-6.1893-13.832-13.83-13.832zm83.064 0c-5.3462 0-9.9728 3.0367-12.275 7.4746-2.1298-1.3388-4.6495-2.1152-7.3516-2.1152h-4.4902c-7.6408 0-13.83 6.1913-13.83 13.832v23.246c0 6.5682 4.5792 12.053 10.717 13.467v8.4043h10.719v-8.4258c2.5807-0.59665 4.8788-1.9018 6.6816-3.7188 1.8075 1.8266 4.1231 3.1429 6.7148 3.7402v8.4043h10.719v-8.4043c6.1376-1.4139 10.717-6.8986 10.717-13.467v-28.605c0-7.6408-6.1893-13.832-13.83-13.832z" fill="#282828" opacity=".15" stroke-width="1.3398"/>
  <path transform="matrix(1.3397 0 0 1.3397 42.256 44.936)" d="m20 101v23h8.0006v-23h-8.0006zm18 0v23h8.0006v-23h-8.0006zm44 0v23h8.0006v-23h-8.0006zm18 0v23h8.0006v-23h-8.0006z" fill="#665c54"/>
  <path d="m96.281 152.12c-7.6408 0-13.832 6.1913-13.832 13.832v23.246c0 7.6408 6.1913 13.832 13.832 13.832h4.4902c7.6408 0 13.83-6.1912 13.83-13.832v-23.246c0-7.6408-6.1893-13.832-13.83-13.832zm83.064 0c-7.6408 0-13.832 6.1913-13.832 13.832v23.246c0 7.6408 6.1913 13.832 13.832 13.832h4.4902c7.6408 0 13.83-6.1912 13.83-13.832v-23.246c0-7.6408-6.1893-13.832-13.83-13.832z" fill="#076678" stroke-width="1.3398"/>
  <path d="m58.768 119.96c-7.4951 0-13.592 5.9592-13.822 13.398h-0.0098v16.076h32.154v-16.076h-0.0098c-0.22979-7.4393-6.3271-13.398-13.822-13.398zm37.514 26.795c-5.3462 0-9.9728 3.0367-12.275 7.4746-2.1298-1.3388-4.6495-2.1152-7.3516-2.1152h-4.4902c-7.6408 0-13.83 6.1913-13.83 13.832v23.246c0 7.6408 6.1893 13.832 13.83 13.832h4.4902c5.35 0 9.9862-3.0376 12.287-7.4805 2.1288 1.3367 4.6398 2.1211 7.3398 2.1211h4.4902c7.6408 0 13.83-6.1893 13.83-13.83v-23.248c0-7.6408-6.1893-13.832-13.83-13.832zm83.064 0c-5.3462 0-9.9728 3.0367-12.275 7.4746-2.1298-1.3388-4.6495-2.1152-7.3516-2.1152h-4.4902c-7.6408 0-13.83 6.1913-13.83 13.832v23.246c0 7.6408 6.1893 13.832 13.83 13.832h4.4902c5.35 0 9.9862-3.0376 12.287-7.4805 2.1288 1.3367 4.6398 2.1211 7.3398 2.1211h4.4902c7.6408 0 13.83-6.1893 13.83-13.83v-23.248c0-7.6408-6.1893-13.832-13.83-13.832z" fill="#458588" stroke-width="1.3398"/>
  <path d="m79.769 122.64h96.462c11.838 0 21.436 9.598 21.436 21.436v24.115c0 11.838-9.598 21.436-21.436 21.436h-96.462c-11.838 0-21.436-9.598-21.436-21.436v-24.115c0-11.838 9.598-21.436 21.436-21.436z" fill="#282828" opacity=".2" stroke-width="1.3398"/>
  <path d="m176.23 44.936c-3.8308 0-7.3678 2.0414-9.2832 5.3594-0.9551 1.659-1.4336 3.5094-1.4336 5.3594v39.758c0 7.6617-6.1703 13.832-13.832 13.832h-71.912c-11.875 0-21.436 9.561-21.436 21.436v53.156c0 7.6408 6.1893 13.83 13.83 13.83h4.4902c7.4951 0 13.592-5.9572 13.822-13.396h50.932c0.2298 7.4392 6.3252 13.396 13.82 13.396h4.4902c7.4952 0 13.592-5.9572 13.822-13.396h2.6894c11.875 0 21.436-9.561 21.436-21.436v-89.145c1.601-0.92627 2.6797-2.6538 2.6797-4.6387v-8.0391c0-2.9621-2.3953-5.3574-5.3574-5.3574h-18.758z" fill="url(#linearGradient11)" stroke-width="1.3398"/>
  <path d="m190.97 66.372c-3.8308 0-7.3686-2.041-9.284-5.359-1.9102-3.318-1.9102-7.4 0-10.718 1.9154-3.318 5.4532-5.359 9.284-5.359" fill="#458588" stroke-width="1.3398"/>
  <path d="m180.25 55.654h10.718v18.755h-10.718z" fill="#458588" stroke-width="1.3398"/>
  <path d="m170.87 55.653h24.114c2.962 0 5.3588 2.3968 5.3588 5.3588v8.0382c0 2.962-2.3968 5.3588-5.3588 5.3588h-24.114c-2.9567 0-5.3588-2.3968-5.3588-5.3588v-8.0382c0-2.962 2.402-5.3588 5.3588-5.3588z" fill="#ebdbb2" stroke-width="1.3397"/>
  <path d="m181.59 66.244h29.474v8.0385c-15.187 0.92108-14.842 11.356-22.776 10.718h-6.6988z" fill="#282828" fill-opacity=".15" stroke-width="1.3398"/>
  <path d="m181.59 63.692h29.474v8.0385c-15.187 0.92108-14.842 11.356-22.776 10.718h-6.6988z" fill="#7c6f64" stroke-width="1.3398"/>
  <path d="m180.25 57.611v8.0391c0 1.8473 1.5023 3.3496 3.3496 3.3496 1.8525 0 3.3496-1.5023 3.3496-3.3496 0 1.8473 1.4971 3.3496 3.3496 3.3496 1.8473 0 3.3476-1.5023 3.3476-3.3496 0 1.8473 1.5023 3.3496 3.3496 3.3496 1.8525 0 3.3496-1.5023 3.3496-3.3496v-2.6797c0-2.962-2.3974-5.3594-5.3594-5.3594z" fill="#282828" opacity=".2" stroke-width="1.3397"/>
  <path d="m180.25 55.652v8.0391c0 1.8473 1.5023 3.3496 3.3496 3.3496 1.8525 0 3.3496-1.5023 3.3496-3.3496 0 1.8473 1.4971 3.3496 3.3496 3.3496 1.8473 0 3.3476-1.5023 3.3476-3.3496 0 1.8473 1.5023 3.3496 3.3496 3.3496 1.8525 0 3.3496-1.5023 3.3496-3.3496v-2.6797c0-2.962-2.3974-5.3594-5.3594-5.3594h-14.736z" fill="#ebdbb2" stroke-width="1.3397"/>
  <path d="m91 12c-72 0-85 15-85 87v56c0 70 13 85 85 85h74c72 0 85-15 85-85v-56c0-72-13-87-85-87zm0 4h74c68 0 80 15 80 83v56c0 66-12 81-80 81h-74c-68 0-80-15-80-81v-56c0-68 12-83 80-83z" fill="url(#linearGradient31-2)" style="isolation:isolate"/>
</svg>
