<svg width="256" height="256" version="1.1" xmlns="http://www.w3.org/2000/svg" xmlns:xlink="http://www.w3.org/1999/xlink">
  <linearGradient id="b" x1=".5002" x2=".5002" y2="1" gradientTransform="matrix(244,0,0,228,5.981,12)" gradientUnits="userSpaceOnUse">
    <stop stop-color="#ebdbb2" offset="0"/>
    <stop stop-color="#d5c4a1" offset="1"/>
  </linearGradient>
  <defs>
    <linearGradient id="linearGradient10" x1="128" x2="128" y1="12" y2="240" gradientUnits="userSpaceOnUse">
      <stop stop-color="#282828" stop-opacity=".1" offset="0"/>
      <stop stop-color="#282828" stop-opacity=".05" offset=".1966"/>
      <stop stop-color="#282828" stop-opacity="0" offset=".50485"/>
      <stop stop-color="#282828" stop-opacity=".1" offset=".74636"/>
      <stop stop-color="#282828" stop-opacity=".2" offset="1"/>
    </linearGradient>
    <linearGradient id="linearGradient9" x1="114.29" x2="114.29" y1="45.646" y2="216" gradientUnits="userSpaceOnUse">
      <stop stop-color="#fbf1c7" stop-opacity=".6" offset="0"/>
      <stop stop-color="#ebdbb2" offset="1"/>
    </linearGradient>
  </defs>
  <path d="m165 12c72 0 85 15 85 87v56c0 70-13 85-85 85h-74c-72 0-85-15-85-85v-56c0-72 13-87 85-87z" fill="url(#b)" style="isolation:isolate"/>
  <path d="m128 45.646c-47.013 0-85.176 38.162-85.176 85.176 0 46.251 37.494 85.178 85.176 85.178 47.013 0 85.178-38.164 85.178-85.178 0-45.893-37.205-85.176-85.178-85.176zm0 17.9c38.158 0 67.277 31.255 67.277 67.275 0 37.165-30.112 67.277-67.277 67.277-38.259 0-67.275-31.354-67.275-67.277 0-37.165 30.11-67.275 67.275-67.275z" fill="url(#linearGradient9)" opacity=".5" stroke-width=".33272"/>
  <path d="m60.724 126c0-37.165 30.111-67.276 67.276-67.276 23.357 0 43.919 11.878 55.964 29.945l13.209 2.5952 1.6636-12.544c-15.272-22.825-41.291-37.897-70.836-37.897-47.013 0-85.177 38.163-85.177 85.177 0 17.501 5.257 33.705 14.307 47.28l12.81 1.6636 2.0961-11.645c-7.1202-10.68-11.313-23.49-11.313-37.298" fill="#458588" stroke-width=".33272"/>
  <path d="m199.04 79.053c-0.0998-0.09982-0.16636-0.16636-0.26618-0.33272l-14.873 9.9483c0.0998 0.0998 0.16637 0.16637 0.26619 0.33273 7.0204 10.614 11.113 23.357 11.113 36.999 0 37.165-30.111 67.276-67.276 67.276-23.191 0-43.686-11.712-55.731-29.612-0.09982-0.0998-0.16636-0.26618-0.16636-0.33272l-14.906 9.9483c0.09982 0.0998 0.16636 0.26619 0.16636 0.33272 15.338 22.658 41.257 37.564 70.637 37.564 47.013 0 85.177-38.163 85.177-85.177 0-17.335-5.1904-33.472-14.141-46.947" fill="#83a598" stroke-width=".33272"/>
  <path d="m128 40.822c-47.013 0-85.176 38.162-85.176 85.176 0 0.79867 0.010982 1.5965 0.033203 2.3906 1.2901-45.89 38.943-82.742 85.143-82.742 47.14 0 83.881 37.931 85.143 82.791 0.02281-0.81005 0.03515-1.6239 0.03515-2.4394 0-45.893-37.205-85.176-85.178-85.176zm-67.232 87.561c-0.028844 0.80976-0.042969 1.6226-0.042969 2.4395 0 35.923 29.017 67.277 67.275 67.277 37.165 1e-5 67.277-30.112 67.277-67.277 0-0.79729-0.01465-1.5924-0.04296-2.3848-1.2831 36.035-30.886 64.838-67.234 64.838-37.41 0-65.983-29.977-67.232-64.893z" fill="#282828" opacity=".2" stroke-width=".33272"/>
  <path d="m128 129.05-40.492-27.017v53.967c0.43254-0.26618 0.76526-0.4991 0 0l25.42-7.8522z" fill="#ebdbb2" opacity=".7" stroke-width=".33272"/>
  <path d="m128 126-40.492-27.017v53.967c0.43254-0.26618 0.76526-0.4991 0 0l25.42-7.8522z" fill="#fabd2f" stroke-width=".33272"/>
  <path d="m87.508 98.982v3.0508l38.916 25.965 1.5762-1.998z" fill="#282828" opacity=".1" stroke-width=".33272"/>
  <path d="m87.491 156.03h78.156c1.5971 0 2.8614-1.2644 2.8614-2.8614v-51.106z" fill="#ebdbb2" opacity=".7" stroke-width=".33272"/>
  <path d="m87.508 152.95h78.156c1.5971 0 2.8614-1.2644 2.8614-2.8614v-51.106z" fill="#3c3836" stroke-width=".33272"/>
  <path d="m168.51 99.016-81.018 53.969h4.6113l76.389-50.885v48.338c0.011-0.10342 0.0176-0.2078 0.0176-0.31446z" fill="#282828" stroke-width=".33272"/>
  <path d="m91 12c-72 0-85 15-85 87v56c0 70 13 85 85 85h74c72 0 85-15 85-85v-56c0-72-13-87-85-87zm0 5h74c35.653 0 55.307 3.9448 65.895 14.965 10.588 11.02 14.105 31.336 14.105 67.035v56c0 34.69-3.4936 54.457-14.07 65.25-10.577 10.793-30.277 14.75-65.93 14.75h-74c-35.653 0-55.353-3.9574-65.93-14.75-10.577-10.793-14.07-30.56-14.07-65.25v-56c0-35.699 3.5176-56.015 14.105-67.035 10.588-11.02 30.242-14.965 65.895-14.965z" fill="url(#linearGradient10)" style="isolation:isolate"/>
</svg>
