<svg width="256" height="256" viewBox="0 0 67.73 67.73" xmlns="http://www.w3.org/2000/svg">
    <defs>
        <clipPath id="c">
            <path d="M361.938-212C507.235-212 528-191.287 528-46.125v116.25C528 215.286 507.235 236 361.937 236H214.063C68.766 236 48 215.286 48 70.125v-116.25C48-191.287 68.765-212 214.063-212z" fill="#b16286"/>
        </clipPath>
        <filter id="b" x="-.01" y="-.01" width="1.023" height="1.025" color-interpolation-filters="sRGB">
            <feGaussianBlur stdDeviation="1.16"/>
        </filter>
        <filter id="a" x="-.02" y="-.03" width="1.046" height="1.05" color-interpolation-filters="sRGB">
            <feGaussianBlur stdDeviation="2.32"/>
        </filter>
        <linearGradient id="d" x1="296" x2="296" y1="-212" y2="236" gradientUnits="userSpaceOnUse">
            <stop offset="0" stop-color="#ebdbb2"/>
            <stop offset=".125" stop-color="#ebdbb2" stop-opacity=".098"/>
            <stop offset=".925" stop-opacity=".098"/>
            <stop offset="1" stop-opacity=".498"/>
        </linearGradient>
        <linearGradient id="f" x1="24" x2="20.568" y1="42.957" y2="7.43" gradientTransform="matrix(1.06656 0 0 1.06656 7.707 237.138)" gradientUnits="userSpaceOnUse">
            <stop offset="0" stop-color="#458588"/>
            <stop offset=".648" stop-color="#458588"/>
            <stop offset="1" stop-color="#458588" stop-opacity=".755"/>
        </linearGradient>
        <filter id="e" x="-.05" y="-.05" width="1.1" height="1.092" color-interpolation-filters="sRGB">
            <feGaussianBlur stdDeviation=".829"/>
        </filter>
    </defs>
    <path transform="matrix(.2697 0 0 .2697 -7.129 -8.706)" d="M188.969 46C261.617 46 272 56.357 272 128.938v58.125c0 72.58-10.383 82.937-83.031 82.937H115.03C42.383 270 32 259.643 32 187.062v-58.125C32 56.358 42.383 46 115.031 46z" filter="url(#a)" opacity=".2"/>
    <path transform="matrix(.2697 0 0 .2697 -7.129 -8.706)" d="M188.969 44C261.617 44 272 54.357 272 126.938v58.124C272 257.644 261.617 268 188.969 268H115.03C42.383 268 32 257.643 32 185.062v-58.125C32 54.358 42.383 44 115.031 44z" filter="url(#b)" opacity=".1"/>
    <path d="M23.896 3.161c-9.797 0-15.394.697-18.545 3.843-3.15 3.147-3.85 8.738-3.85 18.526v15.677c0 9.788.7 15.379 3.85 18.525 3.15 3.147 8.748 3.844 18.545 3.844h19.941c9.798 0 15.395-.697 18.545-3.844 3.15-3.146 3.85-8.737 3.85-18.525V25.53c0-9.788-.7-15.38-3.85-18.526-3.15-3.146-8.747-3.843-18.545-3.843z" fill="#282828"/>
    <path d="M1.502 40.667v.54c0 9.788.699 15.379 3.85 18.525 3.15 3.147 8.747 3.844 18.544 3.844h19.941c9.798 0 15.395-.697 18.545-3.844 3.15-3.146 3.85-8.737 3.85-18.525v-.54c0 9.788-.7 15.38-3.85 18.526-3.15 3.146-8.747 3.843-18.545 3.843H23.896c-9.797 0-15.394-.697-18.545-3.843-3.15-3.147-3.85-8.738-3.85-18.526z" fill="#282828" opacity=".2"/>
    <path d="M23.813 63.451C4.22 63.451 1.42 60.658 1.42 41.082v-7.838h64.73v7.838c0 19.576-2.8 22.369-22.394 22.369z" clip-rule="evenodd" fill-rule="evenodd" fill="#ebdbb2" image-rendering="optimizeQuality" opacity=".1" shape-rendering="geometricPrecision"/>
    <path d="M33.784 3.036v60.415h9.97c19.595 0 22.395-2.793 22.395-22.369V25.405c0-19.575-2.8-22.369-22.394-22.369z" clip-rule="evenodd" fill-rule="evenodd" fill="#ebdbb2" image-rendering="optimizeQuality" opacity=".1" shape-rendering="geometricPrecision"/>
    <path transform="matrix(.13485 0 0 .13485 -4.971 31.75)" d="M361.938-212C507.235-212 528-191.287 528-46.125v116.25C528 215.286 507.235 236 361.937 236H214.063C68.766 236 48 215.286 48 70.125v-116.25C48-191.287 68.765-212 214.063-212z" clip-path="url(#c)" fill="none" opacity=".4" stroke-linecap="round" stroke-linejoin="round" stroke-width="8" stroke="url(#d)"/>
    <g fill-rule="evenodd">
        <path transform="matrix(1.03034 0 0 1.03034 -1.028 -237.236)" d="M34.442 263.796c-.327-1.422 1.386-2.246 2.552-2.094 2.279.297 3.36 2.848 2.834 4.892-.798 3.107-4.333 4.506-7.231 3.575-3.939-1.265-5.665-5.826-4.316-9.572 1.719-4.772 7.322-6.83 11.912-5.056 5.607 2.166 7.998 8.818 5.797 14.252-2.61 6.443-10.317 9.168-16.593 6.537-7.28-3.052-10.34-11.816-7.277-18.933 3.492-8.116 13.315-11.512 21.273-8.017 8.954 3.931 12.685 14.814 8.758 23.613-4.37 9.791-16.315 13.859-25.953 9.498-10.63-4.809-15.033-17.815-10.24-28.293 3.76-8.217 12.353-13.387 21.346-13.154" filter="url(#e)" opacity=".3"/>
        <path d="M33.898 263.932c-.337-1.466 1.427-2.315 2.629-2.158 2.348.307 3.461 2.934 2.92 5.04-.822 3.202-4.464 4.643-7.45 3.684-4.059-1.304-5.837-6.003-4.447-9.863 1.77-4.916 7.543-7.036 12.273-5.21 5.777 2.233 8.24 9.087 5.973 14.686-2.69 6.638-10.63 9.446-17.096 6.735-7.5-3.145-10.653-12.174-7.498-19.507 3.598-8.363 13.719-11.862 21.918-8.261 9.226 4.05 13.07 15.264 9.024 24.33-4.503 10.088-16.81 14.279-26.74 9.786-10.953-4.955-15.49-18.355-10.55-29.152 3.873-8.466 12.727-13.793 21.993-13.553" fill="url(#f)" transform="translate(.562 -229.367)"/>
    </g>
</svg>
