<svg width="256" height="256" version="1.1" xmlns="http://www.w3.org/2000/svg" xmlns:xlink="http://www.w3.org/1999/xlink">
  <linearGradient id="b" x1=".5002" x2=".5002" y2="1" gradientTransform="matrix(244 0 0 228 5.981 11.75)" gradientUnits="userSpaceOnUse">
    <stop stop-color="#ebdbb2" offset="0"/>
    <stop stop-color="#d5c4a1" offset="1"/>
  </linearGradient>
  <defs>
    <linearGradient id="linearGradient31" x1=".5002" x2=".5002" y2="1" gradientTransform="matrix(244,0,0,228,5.988,12)" gradientUnits="userSpaceOnUse">
      <stop stop-color="#282828" stop-opacity=".1" offset="0"/>
      <stop stop-color="#bdae93" stop-opacity=".1" offset=".1"/>
      <stop stop-color="#d5c4a1" stop-opacity="0" offset=".7022"/>
      <stop stop-color="#bdae93" stop-opacity=".302" offset=".9"/>
      <stop stop-color="#282828" stop-opacity=".15" offset="1"/>
    </linearGradient>
    <linearGradient id="linearGradient9" x1="61.986" x2="61.986" y1="59.816" y2="203" gradientTransform="translate(0 -4.959)" gradientUnits="userSpaceOnUse">
      <stop stop-color="#fbf1c7" stop-opacity=".6" offset="0"/>
      <stop stop-color="#ebdbb2" offset="1"/>
    </linearGradient>
    <linearGradient id="linearGradient20" x1=".6312" x2=".6312" y1=".4998" y2=".9998" gradientTransform="matrix(244,0,0,228,6.167,11.98)" gradientUnits="userSpaceOnUse">
      <stop stop-color="#689d6a" offset="0"/>
      <stop stop-color="#427b58" offset="1"/>
    </linearGradient>
  </defs>
  <path d="m165 11.75c72 0 85 15 85 87v56c0 70-13 85-85 85h-74c-72 0-85-15-85-85v-56c0-72 13-87 85-87z" fill="url(#b)" style="isolation:isolate"/>
  <path d="m50.973 54.857c-3.051 0-5.5078 2.4549-5.5078 5.5059v22.029c0 3.051 2.4569 5.5059 5.5078 5.5059h22.027c3.051 0 5.5078-2.4549 5.5078-5.5059v-22.029c0-3.051-2.4569-5.5059-5.5078-5.5059zm55.07 11.014c-3.0509 0-5.5058 2.4549-5.5058 5.5059s2.4549 5.5078 5.5058 5.5078h99.129c3.051 0 5.5078-2.4569 5.5078-5.5078s-2.4569-5.5059-5.5078-5.5059zm-55.07 44.057c-3.051 0-5.5078 2.4569-5.5078 5.5078v22.027c0 3.051 2.4569 5.5078 5.5078 5.5078h22.027c3.051 0 5.5078-2.4569 5.5078-5.5078v-22.027c0-3.051-2.4569-5.5078-5.5078-5.5078zm55.07 11.014c-3.0509 0-5.5058 2.4569-5.5058 5.5078s2.4549 5.5078 5.5058 5.5078h99.129c3.051 0 5.5078-2.4569 5.5078-5.5078s-2.4569-5.5078-5.5078-5.5078zm-55.07 44.059c-3.051 0-5.5078 2.4549-5.5078 5.5059v22.029c0 3.051 2.4569 5.5059 5.5078 5.5059h22.027c3.051 0 5.5078-2.4549 5.5078-5.5059v-22.029c0-3.051-2.4569-5.5059-5.5078-5.5059zm55.07 11.014c-3.0509 0-5.5058 2.4568-5.5058 5.5078 0 3.051 2.4549 5.5059 5.5058 5.5059h99.129c3.051 1e-5 5.5078-2.4549 5.5078-5.5059 0-3.051-2.4569-5.5078-5.5078-5.5078z" fill="url(#linearGradient9)" opacity=".6" stroke-width="5.5071"/>
  <path d="m105.97 60.885c-3.051 0-5.5059 2.4549-5.5059 5.5059s2.4549 5.5078 5.5059 5.5078h99.129c3.051 0 5.5078-2.4569 5.5078-5.5078s-2.4569-5.5059-5.5078-5.5059zm0 55.07c-3.051 0-5.5059 2.4569-5.5059 5.5078s2.4549 5.5078 5.5059 5.5078h99.129c3.051 0 5.5078-2.4569 5.5078-5.5078s-2.4569-5.5078-5.5078-5.5078zm0 55.072c-3.051 0-5.5059 2.4569-5.5059 5.5078 0 3.051 2.4549 5.5058 5.5059 5.5058h99.129c3.051 1e-5 5.5078-2.4549 5.5078-5.5058 0-3.051-2.4569-5.5078-5.5078-5.5078z" fill="#928374" stroke-width="5.5071"/>
  <path d="m105.97 60.871c-3.0509 0-5.5059 2.4549-5.5059 5.5059 0 0.92989 0.2274 1.8055 0.63086 2.5723 0.89418-1.826 2.7692-3.0781 4.9473-3.0781h99.129c2.1211 0 3.9541 1.1871 4.875 2.9355 0.35857-0.73199 0.56054-1.5568 0.56054-2.4297 0-3.051-2.4569-5.5059-5.5078-5.5059zm0 55.07c-3.0509 0-5.5059 2.4569-5.5059 5.5078 0 0.92981 0.22746 1.8036 0.63086 2.5703 0.89414-1.8267 2.7691-3.0781 4.9473-3.0781h99.129c2.1212 0 3.9561 1.1884 4.877 2.9375 0.35851-0.73194 0.55859-1.5569 0.55859-2.4297 0-3.051-2.4569-5.5078-5.5078-5.5078zm0 55.072c-3.0509 0-5.5059 2.4568-5.5059 5.5078 0 0.92989 0.22739 1.8038 0.63086 2.5703 0.89418-1.8266 2.7692-3.0781 4.9473-3.0781h99.129c2.1211 0 3.9541 1.1865 4.875 2.9355 0.35856-0.73176 0.56054-1.5549 0.56054-2.4277 0-3.051-2.4569-5.5078-5.5078-5.5078z" fill="#282828" opacity=".2" stroke-width="5.5071"/>
  <path d="m50.9 49.857c-3.051 0-5.5078 2.4549-5.5078 5.5059v22.029c0 3.051 2.4569 5.5059 5.5078 5.5059h22.027c3.051 0 5.5078-2.4549 5.5078-5.5059v-22.029c0-3.051-2.4569-5.5059-5.5078-5.5059zm0 55.07c-3.051 0-5.5078 2.4569-5.5078 5.5078v22.027c0 3.051 2.4569 5.5078 5.5078 5.5078h22.027c3.051 0 5.5078-2.4569 5.5078-5.5078v-22.027c0-3.051-2.4569-5.5078-5.5078-5.5078zm0 55.072c-3.051 0-5.5078 2.4549-5.5078 5.5059v22.029c0 3.051 2.4569 5.5059 5.5078 5.5059h22.027c3.051 0 5.5078-2.4549 5.5078-5.5059v-22.029c0-3.051-2.4569-5.5059-5.5078-5.5059z" fill="#665c54" stroke-width="5.5071"/>
  <path d="m50.9 49.857c-3.051 0-5.5078 2.4549-5.5078 5.5059v22.029c0 0.306 0.02472 0.60631 0.07227 0.89844v-17.928c0-3.051 2.4569-5.5059 5.5078-5.5059h22.027c2.745 0 5.009 1.9869 5.4355 4.6074v-4.1016c0-3.051-2.4569-5.5059-5.5078-5.5059zm0 55.07c-3.051 0-5.5078 2.4569-5.5078 5.5078v22.027c0 0.30599 0.02472 0.60627 0.07227 0.89843v-17.926c0-3.051 2.4569-5.5078 5.5078-5.5078h22.027c2.745 0 5.009 1.9885 5.4355 4.6094v-4.1016c0-3.051-2.4569-5.5078-5.5078-5.5078zm0 55.072c-3.051 0-5.5078 2.4549-5.5078 5.5059v22.029c0 0.306 0.02472 0.60631 0.07227 0.89844v-17.928c0-3.051 2.4569-5.5059 5.5078-5.5059h22.027c2.745 0 5.009 1.9869 5.4355 4.6074v-4.1016c0-3.051-2.4569-5.5059-5.5078-5.5059z" fill="#282828" opacity=".3" stroke-width="5.5071"/>
  <g transform="translate(-.1877 .0457)" style="isolation:isolate">
    <path d="m128.74 239.95-2.542 1e-5 -0.335-29.11c0-74.81 10.64-85.1 85.52-85.1l38.82-0.27231-1e-3 0.532" fill="#32302f" opacity=".3" stroke-width="1.011" style="isolation:isolate"/>
    <path d="m250.2 126-28.95 0.3203c-78.35 0.8665-91.85 4.404-92.94 79.55-0.3323 11.37-0.0757 22.72 0.4277 34.08 1.9e-4 4e-3 36.19 4e-3 36.45 4e-3 72 0 85-15 85-85z" fill="url(#linearGradient20)" style="isolation:isolate"/>
    <path d="m160 204.4v15.59h15.59l39.38-39.38-15.59-15.59zm68.76-37.53c1.649-1.649 1.649-4.248 0-5.897l-9.745-9.745c-1.649-1.649-4.248-1.649-5.897 0l-8.146 8.199 15.59 15.59z" fill="#282828" opacity=".3" style="isolation:isolate"/>
    <path d="m160 200.4v15.59h15.59l39.38-39.38-15.59-15.59zm68.76-37.53c1.649-1.649 1.649-4.248 0-5.897l-9.745-9.745c-1.649-1.649-4.248-1.649-5.897 0l-8.146 8.199 15.59 15.59z" fill="#ebdbb2" style="isolation:isolate"/>
    <path d="m216.07 145.99c-1.062 0-2.1247 0.41183-2.9492 1.2363l-8.1445 8.1992 1.9941 1.9941 6.1504-6.1934c1.649-1.649 4.2494-1.649 5.8984 0l9.7441 9.7441c0.28818 0.28819 0.50786 0.61315 0.69531 0.94922 0.88518-1.587 0.66551-3.5884-0.69531-4.9492l-9.7441-9.7441c-0.8245-0.8245-1.8872-1.2363-2.9492-1.2363zm-16.686 15.027-39.381 39.381v4l39.381-39.381 13.59 13.59 2-2z" fill="#fbf1c7" opacity=".6" style="isolation:isolate"/>
  </g>
  <path d="m91 12c-72 0-85 15-85 87v56c0 70 13 85 85 85h74c72 0 85-15 85-85v-56c0-72-13-87-85-87zm0 4h74c68 0 80 15 80 83v56c0 66-12 81-80 81h-74c-68 0-80-15-80-81v-56c0-68 12-83 80-83z" fill="url(#linearGradient31)" style="isolation:isolate"/>
</svg>
