<svg width="256" height="256" version="1.1" xmlns="http://www.w3.org/2000/svg">
  <linearGradient id="b" x1=".5002" x2=".5002" y2="1" gradientTransform="matrix(244,0,0,228,5.981,12)" gradientUnits="userSpaceOnUse">
    <stop stop-color="#ebdbb2" offset="0"/>
    <stop stop-color="#ebdbb2" offset="1"/>
  </linearGradient>
  <defs>
    <linearGradient id="linearGradient31" x1=".5002" x2=".5002" y2="1" gradientTransform="matrix(244,0,0,228,5.988,12)" gradientUnits="userSpaceOnUse">
      <stop stop-color="#282828" stop-opacity=".1" offset="0"/>
      <stop stop-color="#bdae93" stop-opacity=".1" offset=".1"/>
      <stop stop-color="#d5c4a1" stop-opacity="0" offset=".7022"/>
      <stop stop-color="#bdae93" stop-opacity=".302" offset=".9"/>
      <stop stop-color="#282828" stop-opacity=".15" offset="1"/>
    </linearGradient>
  </defs>
  <path d="m165 12c72 0 85 15 85 87v56c0 70-13 85-85 85h-74c-72 0-85-15-85-85v-56c0-72 13-87 85-87z" fill="url(#b)" style="isolation:isolate"/>
  <path d="m41.375 73.482c-4.0773 0-6.9527 3.3084-7.3582 7.3729l-1.8396 18.429c-0.40552 4.0656 3.2821 7.3747 7.3582 7.3747h14.722c4.0773 0 7.7637-3.3091 7.3582-7.3747l-1.8396-18.429c-0.40551-4.0645-3.281-7.3729-7.3582-7.3729h-11.037zm40.551 0c-4.0761 0-6.9515 3.3084-7.3582 7.3729l-1.8396 18.429c-0.40552 4.0656 3.2821 7.3747 7.3582 7.3747h14.722c4.0773 0 7.7656-3.3091 7.3601-7.3747l-1.8396-18.429c-0.40552-4.0645-3.284-7.3729-7.3601-7.3729h-11.037zm40.553 0c-4.0761 0-6.9527 3.3084-7.3582 7.3729l-1.8396 18.429c-0.40552 4.0656 3.2821 7.3747 7.3582 7.3747h14.722c4.0761 0 7.7638-3.3091 7.3582-7.3747l-1.8396-18.429c-0.40551-4.0645-3.2821-7.3729-7.3582-7.3729h-11.039zm40.551 0c-4.0761 0-6.9527 3.3084-7.3582 7.3729l-1.8396 18.429c-0.40551 4.0656 3.281 7.3747 7.3582 7.3747h14.722c4.0761 0 7.7637-3.3091 7.3582-7.3747l-1.8377-18.429c-0.40668-4.0645-3.284-7.3729-7.3601-7.3729h-11.037zm40.553 0c-4.0773 0-6.9545 3.3084-7.3601 7.3729l-1.8377 18.429c-0.40551 4.0656 3.281 7.3747 7.3582 7.3747h14.722c4.0761 0 7.7638-3.3091 7.3582-7.3747l-1.8414-18.429c-0.40552-4.0645-3.281-7.3729-7.3582-7.3729h-11.037zm-22.122 44.236c-4.0761 0-6.9527 3.3084-7.3582 7.3729l-1.8396 18.429c-0.40552 4.0656 3.2821 7.3748 7.3582 7.3748h14.722c4.0773 0 7.7637-3.3091 7.3582-7.3748l-1.8396-18.429c-0.40551-4.0645-3.2821-7.3729-7.3582-7.3729h-11.039zm-121.73 0.011c-4.0773 0-6.9527 3.3103-7.3582 7.3748l-1.8396 18.427c-0.40552 4.0656 3.281 7.3748 7.3582 7.3748h14.722c4.0761 0 7.7637-3.3091 7.3582-7.3748l-1.8414-18.427c-0.40552-4.0645-3.281-7.3748-7.3582-7.3748h-11.037zm40.551 0c-4.0773 0-6.9527 3.3103-7.3582 7.3748l-1.8396 18.427c-0.40669 4.0656 3.281 7.3748 7.3582 7.3748h14.722c4.0761 0 7.7649-3.3091 7.3582-7.3748l-1.8396-18.427c-0.40553-4.0645-3.281-7.3748-7.3582-7.3748h-11.037zm40.553 0c-4.0773 0-6.9546 3.3103-7.3601 7.3748l-1.8396 18.427c-0.40552 4.0656 3.2821 7.3748 7.3582 7.3748h14.722c4.0773 0 7.7637-3.3091 7.3582-7.3748l-1.8396-18.427c-0.40551-4.0645-3.281-7.3748-7.3582-7.3748h-11.037zm-51.12 40.54c-4.2508 2e-3 -7.2493 3.3103-7.6722 7.3748l-1.9203 18.429c-0.42294 4.0645 3.4243 7.3729 7.6758 7.3729h76.758c4.2527 0 8.1-3.3084 7.6758-7.3729l-1.9185-18.429c-0.42295-4.0657-3.4231-7.3748-7.6758-7.3748h-72.92zm-37.281 0.0129c-4.0773 0-6.9527 3.3072-7.3582 7.3729l-1.8396 18.429c-0.40668 4.0645 3.281 7.3729 7.3582 7.3729h14.722c4.0761 0 7.7649-3.3084 7.3582-7.3729l-1.8396-18.429c-0.40552-4.0657-3.281-7.3729-7.3582-7.3729h-11.037zm136.33 0c-4.0773 0-6.9527 3.3072-7.3582 7.3729l-1.8414 18.429c-0.40552 4.0645 3.284 7.3729 7.3601 7.3729h14.722c4.0773 0 7.7638-3.3084 7.3582-7.3729l-1.8396-18.429c-0.40552-4.0657-3.281-7.3729-7.3582-7.3729h-11.037z" fill="#282828" opacity=".15" stroke-width="1.162" style="isolation:isolate"/>
  <path d="m41.38 68.54h11.037c4.0773 0 6.9531 3.3092 7.3586 7.3737l1.8394 18.428c0.40552 4.0657-3.2813 7.3737-7.3586 7.3737h-14.722c-4.0761 0-7.7641-3.3081-7.3586-7.3737l1.8405-18.428c0.40552-4.0645 3.2813-7.3737 7.3586-7.3737zm11.061 84.799h11.037c4.0773 0 6.9531 3.308 7.3586 7.3737l1.8394 18.428c0.40668 4.0645-3.2813 7.3737-7.3574 7.3737h-14.722c-4.0773 0-7.7653-3.3092-7.3586-7.3737l1.8394-18.428c0.40552-4.0657 3.2813-7.3737 7.3586-7.3737zm29.49-84.799h11.038c4.0761 0 6.9531 3.3092 7.3586 7.3737l1.8394 18.428c0.40551 4.0657-3.2813 7.3737-7.3586 7.3737h-14.722c-4.0761 0-7.7641-3.3081-7.3586-7.3737l1.8394-18.428c0.40668-4.0645 3.2825-7.3737 7.3586-7.3737zm40.552 0h11.038c4.0761 0 6.9531 3.3092 7.3586 7.3737l1.8394 18.428c0.40552 4.0657-3.2825 7.3737-7.3586 7.3737h-14.722c-4.0761 0-7.7641-3.3081-7.3586-7.3737l1.8394-18.428c0.40551-4.0645 3.2825-7.3737 7.3586-7.3737zm40.552 0h11.038c4.0761 0 6.9519 3.3092 7.3586 7.3737l1.8394 18.428c0.40553 4.0657-3.2825 7.3737-7.3586 7.3737h-14.722c-4.0773 0-7.7641-3.3081-7.3586-7.3737l1.8394-18.428c0.40551-4.0645 3.2825-7.3737 7.3586-7.3737zm40.552 0h11.037c4.0773 0 6.9531 3.3092 7.3586 7.3737l1.8405 18.428c0.40551 4.0657-3.2825 7.3737-7.3586 7.3737h-14.722c-4.0773 0-7.7641-3.3081-7.3586-7.3737l1.8394-18.428c0.40553-4.0645 3.2814-7.3737 7.3586-7.3737zm-143.85 44.247h11.037c4.0773 0 6.9531 3.3092 7.3586 7.3737l1.8405 18.428c0.40552 4.0656-3.2825 7.3737-7.3586 7.3737h-14.722c-4.0773 0-7.7641-3.308-7.3586-7.3737l1.8394-18.428c0.40552-4.0645 3.2813-7.3737 7.3586-7.3737zm40.552 0h11.037c4.0773 0 6.9531 3.3092 7.3586 7.3737l1.8394 18.428c0.40668 4.0656-3.2813 7.3737-7.3574 7.3737h-14.722c-4.0773 0-7.7653-3.308-7.3586-7.3737l1.8394-18.428c0.40552-4.0645 3.2813-7.3737 7.3586-7.3737zm40.552 0h11.037c4.0773 0 6.9531 3.3092 7.3586 7.3737l1.8394 18.428c0.40551 4.0656-3.2813 7.3737-7.3586 7.3737h-14.722c-4.0761 0-7.7641-3.308-7.3586-7.3737l1.8405-18.428c0.40551-4.0645 3.2813-7.3737 7.3586-7.3737zm47.93 40.552h11.037c4.0773 0 6.9531 3.308 7.3586 7.3737l1.8394 18.428c0.40553 4.0645-3.2813 7.3737-7.3586 7.3737h-14.722c-4.0761 0-7.7641-3.3092-7.3586-7.3737l1.8405-18.428c0.40551-4.0657 3.2813-7.3737 7.3586-7.3737z" fill="#3c3836" fill-rule="evenodd" stroke-width="1.162" style="isolation:isolate"/>
  <path d="m59.809 74.686v6.1455c0 3.4033-3.2883 6.1444-7.3737 6.1444h-11.061c-4.0854 0-7.3737-2.741-7.3737-6.1444v-6.1455c0-3.4045 3.2883-6.1444 7.3737-6.1444h11.061c4.0854 0 7.3737 2.7399 7.3737 6.1444zm40.552 0v6.1455c0 3.4033-3.2883 6.1444-7.3737 6.1444h-11.061c-4.0854 0-7.3749-2.741-7.3749-6.1444v-6.1455c0-3.4045 3.2895-6.1444 7.3749-6.1444h11.061c4.0854 0 7.3737 2.7399 7.3737 6.1444zm40.552 0v6.1455c0 3.4033-3.2895 6.1444-7.3737 6.1444h-11.062c-4.0842 0-7.3737-2.741-7.3737-6.1444v-6.1455c0-3.4045 3.2895-6.1444 7.3737-6.1444h11.062c4.0842 0 7.3737 2.7399 7.3737 6.1444zm40.552 0v6.1455c0 3.4033-3.2895 6.1444-7.3749 6.1444h-11.061c-4.0854 0-7.3737-2.741-7.3737-6.1444v-6.1455c0-3.4045 3.2883-6.1444 7.3737-6.1444h11.061c4.0854 0 7.3749 2.7399 7.3749 6.1444zm40.552 0v6.1455c0 3.4033-3.2883 6.1444-7.3737 6.1444h-11.061c-4.0854 0-7.3737-2.741-7.3737-6.1444v-6.1455c0-3.4045 3.2883-6.1444 7.3737-6.1444h11.061c4.0854 0 7.3737 2.7399 7.3737 6.1444zm-143.85 44.247v6.1455c0 3.4033-3.2883 6.1444-7.3737 6.1444h-11.061c-4.0854 0-7.3737-2.741-7.3737-6.1444v-6.1455c0-3.4045 3.2883-6.1444 7.3737-6.1444h11.061c4.0854 0 7.3737 2.7399 7.3737 6.1444zm40.552 0v6.1455c0 3.4033-3.2883 6.1444-7.3737 6.1444h-11.061c-4.0854 0-7.3737-2.741-7.3737-6.1444v-6.1455c0-3.4045 3.2883-6.1444 7.3737-6.1444h11.061c4.0854 0 7.3737 2.7399 7.3737 6.1444zm40.552 0v6.1455c0 3.4033-3.2883 6.1444-7.3737 6.1444h-11.061c-4.0854 0-7.3737-2.741-7.3737-6.1444v-6.1455c0-3.4045 3.2883-6.1444 7.3737-6.1444h11.061c4.0854 0 7.3737 2.7399 7.3737 6.1444zm-88.482 40.552v6.1444c0 3.4045-3.2883 6.1455-7.3737 6.1455h-11.061c-4.0854 0-7.3737-2.741-7.3737-6.1455v-6.1444c0-3.4045 3.2883-6.1444 7.3737-6.1444h11.061c4.0854 0 7.3737 2.7399 7.3737 6.1444zm136.41 0v6.1444c0 3.4045-3.2883 6.1455-7.3737 6.1455h-11.061c-4.0854 0-7.3737-2.741-7.3737-6.1455v-6.1444c0-3.4045 3.2883-6.1444 7.3737-6.1444h11.061c4.0854 0 7.3737 2.7399 7.3737 6.1444z" fill="#665c54" fill-rule="evenodd" stroke-width="1.162" style="isolation:isolate"/>
  <path d="m89.717 153.33h72.924c4.2527 0 7.2529 3.3081 7.6758 7.3737l1.9184 18.428c0.4241 4.0645-3.4231 7.3737-7.6758 7.3737h-76.758c-4.2516 0-8.0988-3.3092-7.6758-7.3737l1.9195-18.428c0.42295-4.0656 3.4231-7.3737 7.6758-7.3737z" fill="#7c6f64" stroke-width="1.162" style="isolation:isolate"/>
  <path d="m170.43 159.49v6.1444c0 3.4045-3.4312 6.1455-7.6944 6.1455h-73.098c-4.2632 0-7.6944-2.741-7.6944-6.1455v-6.1444c0-3.4045 3.4312-6.1444 7.6944-6.1444h73.098c4.2632 0 7.6944 2.7399 7.6944 6.1444z" fill="#bdae93" stroke-width="1.162" style="isolation:isolate"/>
  <path d="m181.46 112.78h11.038c4.0761 0 6.9531 3.3092 7.3586 7.3737l1.8394 18.428c0.40552 4.0656-3.2813 7.3737-7.3586 7.3737h-14.722c-4.0761 0-7.7641-3.308-7.3586-7.3737l1.8405-18.428c0.40552-4.0645 3.2813-7.3737 7.3574-7.3737z" fill="#d65d0e" stroke-width="1.162" style="isolation:isolate"/>
  <path d="m199.94 118.93v6.1455c0 3.4033-3.2883 6.1444-7.3737 6.1444h-11.061c-4.0854 0-7.3749-2.741-7.3749-6.1444v-6.1455c0-3.4045 3.2895-6.1444 7.3749-6.1444h11.061c4.0854 0 7.3737 2.7399 7.3737 6.1444z" fill="#fe8019" stroke-width="1.162" style="isolation:isolate"/>
  <path d="m91 12c-72 0-85 15-85 87v56c0 70 13 85 85 85h74c72 0 85-15 85-85v-56c0-72-13-87-85-87zm0 4h74c68 0 80 15 80 83v56c0 66-12 81-80 81h-74c-68 0-80-15-80-81v-56c0-68 12-83 80-83z" fill="url(#linearGradient31)" style="isolation:isolate"/>
  <path d="m41.374 68.542c-4.0854 0-7.3729 2.7402-7.3729 6.1447v4.2648c0-3.4045 3.2875-6.1447 7.3729-6.1447h11.061c4.0854 0 7.3747 2.7402 7.3747 6.1447v-4.2648c0-3.4045-3.2894-6.1447-7.3747-6.1447zm40.553 0c-4.0854 0-7.3747 2.7402-7.3747 6.1447v4.2648c0-3.4045 3.2894-6.1447 7.3747-6.1447h11.061c4.0854 0 7.3729 2.7402 7.3729 6.1447v-4.2648c0-3.4045-3.2875-6.1447-7.3729-6.1447zm40.551 0c-4.0842 0-7.3747 2.7402-7.3747 6.1447v4.2648c0-3.4045 3.2905-6.1447 7.3747-6.1447h11.061c4.0842 0 7.3729 2.7402 7.3729 6.1447v-4.2648c0-3.4045-3.2887-6.1447-7.3729-6.1447zm40.551 0c-4.0854 0-7.3729 2.7402-7.3729 6.1447v4.2648c0-3.4045 3.2875-6.1447 7.3729-6.1447h11.061c4.0854 0 7.3748 2.7402 7.3748 6.1447v-4.2648c0-3.4045-3.2894-6.1447-7.3748-6.1447zm40.553 0c-4.0854 0-7.3729 2.7402-7.3729 6.1447v4.2648c0-3.4045 3.2875-6.1447 7.3729-6.1447h11.061c4.0854 0 7.3729 2.7402 7.3729 6.1447v-4.2648c0-3.4045-3.2875-6.1447-7.3729-6.1447zm-143.85 44.247c-4.0854 0-7.3729 2.7402-7.3729 6.1447v4.2648c0-3.4045 3.2875-6.1447 7.3729-6.1447h11.061c4.0854 0 7.3729 2.7402 7.3729 6.1447v-4.2648c0-3.4045-3.2875-6.1447-7.3729-6.1447zm40.553 0c-4.0854 0-7.3747 2.7402-7.3747 6.1447v4.2648c0-3.4045 3.2894-6.1447 7.3747-6.1447h11.061c4.0854 0 7.3729 2.7402 7.3729 6.1447v-4.2648c0-3.4045-3.2875-6.1447-7.3729-6.1447zm40.551 0c-4.0854 0-7.3729 2.7402-7.3729 6.1447v4.2648c0-3.4045 3.2875-6.1447 7.3729-6.1447h11.061c4.0854 0 7.3729 2.7402 7.3729 6.1447v-4.2648c0-3.4045-3.2875-6.1447-7.3729-6.1447zm40.669 0c-4.0854 0-7.3748 2.7402-7.3748 6.1447v4.2648c0-3.4045 3.2893-6.1447 7.3748-6.1447h11.061c4.0854 0 7.3729 2.7402 7.3729 6.1447v-4.2648c0-3.4045-3.2875-6.1447-7.3729-6.1447zm-129.15 40.553c-4.0854 0-7.3729 2.7384-7.3729 6.1429v4.2648c-2e-6 -3.4045 3.2875-6.1429 7.3729-6.1429h11.061c4.0854 0 7.3729 2.7384 7.3729 6.1429v-4.2648c0-3.4045-3.2875-6.1429-7.3729-6.1429zm37.279 0c-4.2632 0-7.6942 2.7384-7.6942 6.1429v4.2648c0-3.4045 3.431-6.1429 7.6942-6.1429h73.098c4.2632 0 7.6942 2.7384 7.6942 6.1429v-4.2648c0-3.4045-3.431-6.1429-7.6942-6.1429zm99.134 0c-4.0854 0-7.3748 2.7384-7.3748 6.1429v4.2648c0-3.4045 3.2894-6.1429 7.3748-6.1429h11.059c4.0854 0 7.3748 2.7384 7.3748 6.1429v-4.2648c0-3.4045-3.2894-6.1429-7.3748-6.1429z" fill="#ebdbb2" opacity=".15" stroke-width="1.162" style="isolation:isolate"/>
</svg>
