<svg width="256" height="256" version="1.1" xmlns="http://www.w3.org/2000/svg">
  <defs>
    <linearGradient id="linearGradient10" x1="128" x2="128" y1="12" y2="240" gradientUnits="userSpaceOnUse">
      <stop stop-color="#ebdbb2" stop-opacity=".2" offset="0"/>
      <stop stop-color="#ebdbb2" stop-opacity="0" offset=".24921"/>
      <stop stop-color="#1d2021" stop-opacity=".05" offset=".50485"/>
      <stop stop-color="#1d2021" stop-opacity=".15" offset=".75285"/>
      <stop stop-color="#1d2021" stop-opacity=".25" offset="1"/>
    </linearGradient>
    <linearGradient id="linearGradient15" x1="128" x2="128" y1="12" y2="240" gradientUnits="userSpaceOnUse">
      <stop stop-color="#076678" offset="0"/>
      <stop stop-color="#076678" offset="1"/>
    </linearGradient>
  </defs>
  <path d="m165 12c72 0 85 15 85 87v56c0 70-13 85-85 85h-74c-72 0-85-15-85-85v-56c0-72 13-87 85-87z" fill="url(#linearGradient15)" style="isolation:isolate"/>
  <path d="m16.009 75.725c-1.1305 0.6185 9.0366 7.2476 28.037 15.07 19.002 7.8227 45.248 27.644 43.189 30.844-6.1717 8.693-9.8057 19.092-7.293 36.9 0.45268 3.1349-9.2913 8.5718-8.582 13.301 0.59309 3.5997 10.888-3.5614 12.014-2.1465 0.68992 2.5394-5.5094 15.388-3.0039 16.307 1.8313 0.54346 17.943-15.283 18.879-15.02 26.562 8.0297 61.12 1.9722 61.789 1.7168-0.0641-0.1392 24.865 11.716 27.031 10.299 5.4661-5.92-10.361-14.258-7.7226-17.592 1.1571-1.7442 19.275 6.5537 20.168 4.2891 1.2987-3.9204-8.4114-12.148-9.8711-14.586-1.2709-2.2489-1.5416-5.8824 1.7168-8.1543 3.2596-2.2707 36.582-15.022 35.184-24.887-2.4159-17.923-42.264-19.088-42.908-20.596-0.30138-0.70928 1.7597-25.628-9.8672-21.025-7.1582 2.664-1.321 18.543-0.85742 20.596 0.42605 1.8906-3.183 1.6885-3.8633 0.85939-1.519-1.8543-6.5294-18.404-12.443-15.447-8.2947 4.5728-0.48994 18.847-2.1445 19.311-3.0732 1.7163-2.8962 5.9081-5.3594 9.3262-4.062 5.8207-34.463-2.728-44.289-3.3223-7.1921-0.42484-14.064 5.4711-14.713 4.7207-8.7583-8.7704-26.879-24.04-46.73-29.111-11.133-3.0211-27.695-11.764-28.359-11.652zm202.76 16.039c-0.63572 0.06868-3.3596 14.07-2.0547 14.705 1.1474 0.85816 3.1446-13.922 2.0977-14.686-0.0127-0.01478-0.0277-0.02118-0.043-0.01953zm9.832 1.8867c-1.5044-0.02681-9.5413 12.788-7.6934 14.156 1.1462 0.85816 8.3098-13.628 7.8184-14.113-0.0344-0.02841-0.0765-0.0421-0.125-0.04297zm-38.891 15.605c1.9003 0 3.4394 1.7538 3.4394 3.918 0 2.1629-1.5392 3.918-3.4394 3.918-1.9015 0-3.4414-1.755-3.4414-3.918 0-2.1642 1.5399-3.918 3.4414-3.918zm-7.7246 2.3809c1.4621 6.3097 3.7466 8.3154 10.594 8.1133-8.7159 7.9921-14.014-5.6962-10.594-8.1133zm18.846 16.494c0.35658 0.0136 0.63366 0.0977 0.81249 0.26953 3.4338 1.2443-14.752 7.79-14.873 6.8652-0.18868-0.66035 10.614-7.2657 14.061-7.1348zm1.9844 4.1894c0.13232 5e-3 0.25142 0.0323 0.35548 0.0859 3.2402 3.2196-10.259 10.358-10.107 10.107-1.1064-0.66796 7.0616-10.284 9.7519-10.193z" fill="#282828" opacity=".3" stroke-width="1.2104" style="isolation:isolate"/>
  <path d="m16.009 70.855c-1.1305 0.6185 9.0366 7.2476 28.037 15.07 19.002 7.8227 45.248 27.644 43.189 30.844-6.1717 8.693-9.8057 19.092-7.293 36.9 0.45268 3.1349-9.2913 8.5718-8.582 13.301 0.59309 3.5997 10.888-3.5614 12.014-2.1465 0.68992 2.5394-5.5094 15.388-3.0039 16.307 1.8313 0.54346 17.943-15.283 18.879-15.02 26.562 8.0297 61.12 1.9722 61.789 1.7168-0.0642-0.13919 24.865 11.716 27.031 10.299 5.4661-5.92-10.361-14.258-7.7226-17.592 1.1571-1.7442 19.275 6.5537 20.168 4.2891 1.2987-3.9204-8.4114-12.148-9.8711-14.586-1.2709-2.2489-1.5416-5.8824 1.7168-8.1543 3.2596-2.2707 36.582-15.022 35.184-24.887-2.4159-17.923-42.264-19.088-42.908-20.596-0.30138-0.70928 1.7597-25.628-9.8672-21.025-7.1582 2.664-1.321 18.543-0.85742 20.596 0.42606 1.8906-3.183 1.6885-3.8633 0.85938-1.519-1.8543-6.5294-18.404-12.443-15.447-8.2947 4.5728-0.48994 18.847-2.1445 19.311-3.0732 1.7163-2.8963 5.9081-5.3594 9.3262-4.062 5.8207-34.463-2.728-44.289-3.3223-7.1921-0.42484-14.064 5.4711-14.713 4.7207-8.7583-8.7704-26.879-24.04-46.73-29.111-11.133-3.0211-27.695-11.764-28.359-11.652zm202.76 16.039c-0.63571 0.06868-3.3596 14.07-2.0547 14.705 1.1474 0.85816 3.1446-13.922 2.0977-14.686-0.0128-0.01478-0.0277-0.02118-0.043-0.01953zm9.832 1.8867c-1.5045-0.02681-9.5413 12.788-7.6934 14.156 1.1462 0.85816 8.3098-13.628 7.8184-14.113-0.0344-0.02841-0.0765-0.0421-0.12499-0.04297zm-38.891 15.605c1.9003 0 3.4394 1.7538 3.4394 3.918 0 2.163-1.5392 3.918-3.4394 3.918-1.9015 0-3.4414-1.755-3.4414-3.918 0-2.1642 1.5399-3.918 3.4414-3.918zm-7.7246 2.3808c1.4621 6.3097 3.7466 8.3154 10.594 8.1133-8.716 7.9921-14.014-5.6962-10.594-8.1133zm18.846 16.494c0.35658 0.0136 0.63366 0.0977 0.81249 0.26953 3.4338 1.2443-14.752 7.79-14.873 6.8652-0.18867-0.66035 10.614-7.2657 14.061-7.1348zm1.9844 4.1895c0.13232 4e-3 0.25142 0.0323 0.35548 0.0859 3.2402 3.2196-10.259 10.358-10.107 10.107-1.1064-0.66796 7.0616-10.284 9.752-10.193z" fill="#ebdbb2" stroke-width="1.2104" style="isolation:isolate"/>
  <path d="m16.009 70.855c-1.1305 0.6185 9.0366 7.2476 28.037 15.07 2.9833 1.2282 6.1448 2.752 9.3477 4.4609 16.188 6.6132 30.296 18.683 37.705 26.102 0.64876 0.75043 7.5208-5.1456 14.713-4.7207 9.8259 0.59428 40.227 9.143 44.289 3.3223 2.4631-3.4181 2.2862-7.6098 5.3594-9.3262 0.5718-0.16021 0.0136-1.9704-0.61914-4.459-2.4425 1.9088-2.4555 5.7455-4.7402 8.916-4.062 5.8207-34.463-2.728-44.289-3.3223-7.1921-0.42485-14.064 5.4711-14.713 4.7207-8.7583-8.7704-26.879-24.04-46.73-29.111-11.133-3.0211-27.695-11.764-28.359-11.652zm161.24 4.1562c-0.74893 0.02486-1.5741 0.20484-2.4824 0.56445-3.3788 1.2575-3.863 5.4594-3.3828 9.7617 0.35147-2.2896 1.3366-4.131 3.3828-4.8926 11.627-4.6031 9.5658 20.316 9.8672 21.025 0.61842 1.4484 37.396 2.5796 42.449 18.543 0.41848-0.95659 0.589-1.899 0.45899-2.8164-0.52857-3.9214-2.8486-7.041-6.1582-9.5371-0.20594 0.17049-0.36957 0.22805-0.47852 0.14648-0.17769-0.13158-0.26394-0.36973-0.27343-0.6914-0.97316-0.67796-2.0201-1.3076-3.123-1.8926-0.27899 0.91912-0.55664 1.4258-0.79688 1.2461-0.26633-0.12955-0.36496-0.81509-0.34765-1.8262-12.599-6.1422-31.291-7.012-31.73-8.041-0.27783-0.65386 1.4524-21.883-7.3848-21.59zm-18.277 6.2207c-0.44975 0.0092-0.90711 0.12055-1.3691 0.35156-3.8396 2.1167-4.2298 6.3118-3.7051 10.254 0.39214-2.1954 1.4579-4.1459 3.7051-5.3848 5.9139-2.957 10.924 13.593 12.443 15.447 0.68023 0.82911 4.2893 1.0312 3.8633-0.85938-0.11148-0.49359-0.53425-1.7875-1.0117-3.5039-1.0113 0.25687-2.4476-0.01344-2.8516-0.50585-1.4004-1.7094-5.767-15.907-11.074-15.799zm59.795 5.6621c-0.62032 0.06702-3.2289 13.401-2.1426 14.637 0.53689-4.2595 1.746-9.7247 2.1426-9.7676 0.0153-0.0017 0.0303 0.0047 0.043 0.01954 0.0437 0.03186 0.0818 0.08754 0.11523 0.16602 0.24307-2.5889 0.26888-4.755-0.11523-5.0352-0.0127-0.01478-0.0277-0.02118-0.043-0.01954zm9.832 1.8867c-1.5044-0.02681-9.5413 12.788-7.6934 14.156 1.1462 0.85816 8.3098-13.628 7.8184-14.113-0.0344-0.02841-0.0765-0.0421-0.125-0.04297zm-41.588 21.957c-0.46626 0.66856-0.74414 1.5153-0.74414 2.4355 0 0.26219 0.0232 0.51783 0.0665 0.76563 1.5157 0.75181 3.518 1.0219 6.2441 0.94141-1.2087 1.1083-2.351 1.7998-3.4141 2.1621 0.17767 0.0322 0.35925 0.0488 0.54493 0.0488 1.9003 0 3.4394-1.755 3.4394-3.918 0-0.92022-0.27813-1.767-0.74414-2.4355-0.62994 0.90382-1.603 1.4844-2.6953 1.4844-1.093 0-2.067-0.58055-2.6973-1.4844zm-5.5762 1.4902c-2.1808 3.4839 2.9828 15.004 11.143 7.5215-5.3298 0.15733-7.8942-1.0226-9.459-4.5293-0.74223-0.87021-1.3122-1.9227-1.6836-2.9922zm-95.477 6.4219c-4.431 6.8566-7.2269 14.949-6.7734 26.828 0.42035-10.306 3.5644-17.524 8.0488-23.84 0.3548-0.55151-0.13092-1.5961-1.2754-2.9883zm114.87 9.4805c-3.447-0.13095-14.249 6.4744-14.061 7.1348 0.0655 0.50037 5.4206-1.1864 9.7773-3.0371 1.4738-1.6253 3.1486-3.2043 4.502-4.0781-0.069-0.01-0.14225-0.0166-0.21875-0.0195zm1.9844 4.1894c-2.2684-0.0761-8.4304 6.7482-9.6445 9.291 1.2571-0.66671 3.5348-1.7102 6.3437-3.0273 2.8474-2.119 5.2323-4.6117 3.6563-6.1777-0.10409-0.0536-0.22316-0.081-0.35548-0.0859zm-12.562 17.1c-0.88028 1.9569-0.47978 4.1473 0.39063 5.6875 1.0161 1.6969 6.0294 6.1993 8.5449 10.102 0.72419 0.0455 1.1993-0.0631 1.3262-0.38476 1.2987-3.9204-8.4114-12.148-9.8711-14.586-0.14465-0.25597-0.27561-0.53056-0.39063-0.81836zm-110.72 5.793c-1.809 3.1948-8.7775 7.7328-8.1738 11.758 0.11231 0.68169 0.57194 0.97834 1.252 1.0195 2.4843-3.597 7.6629-7.1466 7.3301-9.4512-0.16064-1.1385-0.29686-2.2467-0.4082-3.3262zm101.52 9.9492c-0.3584 8e-3 -0.6021 0.084-0.70703 0.24218-1.8953 2.3943 5.7373 7.3719 8.1621 12.18 2.6669-3.8351-2.7142-8.5491-6.0625-12.26-0.56089-0.11075-1.0342-0.17047-1.3926-0.1621zm-98.273 4.3438c-0.09222 4e-3 -0.19115 0.0156-0.29883 0.0332-1.4387 4.6833-3.8348 10.96-2.1113 11.592 0.0075 2e-3 0.0155 4e-3 0.02343 6e-3 1.1412-4.215 3.4127-9.8524 2.9805-11.443-0.11246-0.14136-0.3171-0.19804-0.59375-0.1875z" fill="#fbf1c7" opacity=".6" stroke-width="1.2104" style="isolation:isolate"/>
  <path d="m91 12c-72 0-85 15-85 87v56c0 70 13 85 85 85h74c72 0 85-15 85-85v-56c0-72-13-87-85-87zm0 5h74c35.653 0 55.307 3.9448 65.895 14.965 10.588 11.02 14.105 31.336 14.105 67.035v56c0 34.69-3.4936 54.457-14.07 65.25-10.577 10.793-30.277 14.75-65.93 14.75h-74c-35.653 0-55.353-3.9574-65.93-14.75-10.577-10.793-14.07-30.56-14.07-65.25v-56c0-35.699 3.5176-56.015 14.105-67.035 10.588-11.02 30.242-14.965 65.895-14.965z" fill="url(#linearGradient10)" style="isolation:isolate"/>
</svg>
