<svg width="256" height="256" version="1.1" xml:space="preserve" xmlns="http://www.w3.org/2000/svg"><defs><linearGradient id="linearGradient6" x1="140" x2="140" y1="12" y2="240" gradientTransform="translate(0 .66269)" gradientUnits="userSpaceOnUse"><stop stop-color="#504945" offset="0"/><stop stop-color="#3c3836" offset="1"/></linearGradient><linearGradient id="linearGradient10" x1="128" x2="128" y1="12" y2="240" gradientUnits="userSpaceOnUse"><stop stop-color="#ebdbb2" stop-opacity=".2" offset="0"/><stop stop-color="#ebdbb2" stop-opacity="0" offset=".24728"/><stop stop-color="#1d2021" stop-opacity=".05" offset=".50485"/><stop stop-color="#1d2021" stop-opacity=".3961" offset=".75316"/><stop stop-color="#1d2021" stop-opacity=".6039" offset="1"/></linearGradient></defs><path d="m165 12.663c72 0 85 15 85 87v56c0 70-13 85-85 85h-74c-72 0-85-15-85-85v-56c0-72 13-87 85-87z" fill="url(#linearGradient6)" style="isolation:isolate"/><path d="m91 12c-72 0-85 15-85 87v56c0 70 13 85 85 85h74c72 0 85-15 85-85v-56c0-72-13-87-85-87zm0 5h74c35.653 0 55.307 3.9448 65.895 14.965 10.588 11.02 14.105 31.336 14.105 67.035v56c0 34.69-3.4936 54.457-14.07 65.25-10.577 10.793-30.277 14.75-65.93 14.75h-74c-35.653 0-55.353-3.9574-65.93-14.75-10.577-10.793-14.07-30.56-14.07-65.25v-56c0-35.699 3.5176-56.015 14.105-67.035 10.588-11.02 30.242-14.965 65.895-14.965z" fill="url(#linearGradient10)" style="isolation:isolate"/><path d="m66.796 196.42c-25.249 0-27.425-28.056-27.425-37.727 0-10.139 2.3432-37.994 28.094-37.994 8.8016-0.27794 15.292 3.9901 20.469 10.703h0.66891c-1.7465-12.567-1.0702-25.343-1.0702-37.994h20.335v101.67h-15.519l-4.0135-9.4985h-0.80269c-4.7481 7.6086-12.077 10.491-20.736 10.836zm7.0905-16.188c8.2682 0 14.762-3.1187 14.984-19.265v-2.1405c0-19.8-8.1076-21.806-15.117-21.806-12.125 0-13.913 13.799-13.913 21.94 0 10.952 2.9457 21.271 14.047 21.271z" fill="#282828" opacity=".6" stroke-width="3.3446" style="font-variant-ligatures:none" aria-label="dx"/><path d="m66.796 190.97c-25.249 0-27.425-28.056-27.425-37.727 0-10.139 2.3432-37.994 28.094-37.994 8.8016-0.27794 15.292 3.9901 20.469 10.703h0.66891c-1.7465-12.567-1.0703-25.343-1.0703-37.994h20.335v101.67h-15.519l-4.0135-9.4985h-0.80269c-4.7481 7.6086-12.077 10.491-20.736 10.836zm7.0905-16.188c8.2682 0 14.762-3.1187 14.984-19.265v-2.1405c0-19.8-8.1076-21.806-15.117-21.806-12.125 0-13.913 13.799-13.913 21.94 0 10.952 2.9457 21.271 14.047 21.271z" fill="#ebdbb2" stroke-width="3.3446" style="font-variant-ligatures:none" aria-label="dx"/><path d="m87.531 87.956c0 6.3764-0.17041 12.784-0.11719 19.182 0.03048-4.5831 0.11719-9.1643 0.11719-13.73h20.336v-5.4512zm-20.066 27.293c-25.751 0-28.094 27.855-28.094 37.994 0 0.79097 0.01413 1.7033 0.05469 2.7148 0.46595-11.661 4.3369-35.26 28.039-35.26 8.8016-0.27794 15.292 3.9906 20.469 10.703h0.66797c-0.25192-1.8127-0.45288-3.6308-0.61328-5.4512h-0.05469c-5.177-6.7125-11.667-10.979-20.469-10.701zm-7.5586 41.027c-0.04762 0.94058-0.06641 1.8424-0.06641 2.6836 0 10.952 2.9455 21.271 14.047 21.271 8.2682 0 14.761-3.1197 14.982-19.266v-2.1406c0-0.70761-9e-3 -1.3918-0.0293-2.0547-0.53541 15.055-6.9037 18.01-14.953 18.01-10.16 0-13.489-8.6423-13.98-18.504z" fill="#fbf1c7" opacity=".6" stroke-width="3.3446" style="font-variant-ligatures:none"/><path d="m117.1 157.09-23.546-35.72h22.609l14.181 23.278 14.315-23.278h22.609l-23.813 35.72 24.883 37.325h-22.609l-15.385-25.017-15.385 25.017h-22.609z" fill="#282828" opacity=".6" stroke-width="3.3446" style="font-variant-ligatures:none"/><path d="m117.1 152.31-23.546-35.72h22.609l14.181 23.278 14.315-23.278h22.609l-23.813 35.72 24.883 37.325h-22.609l-15.385-25.017-15.385 25.017h-22.609z" fill="#689d6a" stroke-width="3.3446" style="font-variant-ligatures:none"/><path d="m93.553 116.59 3.1562 4.7871h19.453l14.18 23.277 14.314-23.277h19.418l3.1914-4.7871h-22.609l-14.314 23.277-14.18-23.277zm21.963 38.105-23.168 34.939h3.1738l21.576-32.539zm29.533 8e-3 -1.5957 2.3926 21.691 32.539h3.1914z" fill="#ebdbb2" opacity=".2" stroke-width="3.3446" style="font-variant-ligatures:none"/><path d="m175.56 196.26c-25.249 0-27.425-28.056-27.425-37.727 0-10.139 2.3432-37.994 28.094-37.994 8.8016-0.27794 15.292 3.9901 20.469 10.703h0.66891c-1.7465-12.567-1.0702-25.343-1.0702-37.994h20.335v101.67h-15.519l-4.0134-9.4985h-0.80269c-4.7481 7.6086-12.077 10.491-20.736 10.836zm7.0905-16.188c8.2682 0 14.762-3.1187 14.984-19.265v-2.1405c0-19.8-8.1076-21.806-15.117-21.806-12.125 0-13.913 13.799-13.913 21.94 0 10.952 2.9457 21.271 14.047 21.271z" fill="#282828" opacity=".6" stroke-width="3.3446" style="font-variant-ligatures:none" aria-label="dx"/><path d="m175.56 190.97c-25.249 0-27.425-28.056-27.425-37.727 0-10.139 2.3432-37.994 28.094-37.994 8.8016-0.27794 15.292 3.9901 20.469 10.703h0.66891c-1.7465-12.567-1.0702-25.343-1.0702-37.994h20.335v101.67h-15.519l-4.0134-9.4985h-0.80269c-4.7481 7.6086-12.077 10.491-20.736 10.836zm7.0905-16.188c8.2682 0 14.762-3.1187 14.984-19.265v-2.1405c0-19.8-8.1076-21.806-15.117-21.806-12.125 0-13.913 13.799-13.913 21.94 0 10.952 2.9457 21.271 14.047 21.271z" fill="#ebdbb2" stroke-width="3.3446" style="font-variant-ligatures:none" aria-label="dx"/><path d="m196.29 87.956c0 6.5088-0.17927 13.05-0.11523 19.58 0.0333-4.4137 0.11523-8.8252 0.11523-13.223h20.334v-6.3574zm-20.066 27.293c-25.751 0-28.096 27.855-28.096 37.994 0 0.90731 0.0206 1.9753 0.0762 3.168 0.54877-11.808 4.621-34.807 28.02-34.807 8.8016-0.27794 15.29 3.9906 20.467 10.703h0.66992c-0.29515-2.1238-0.52163-4.2545-0.69335-6.3887-5.1731-6.6946-11.655-10.947-20.443-10.67zm-7.5352 41.484c-0.0659 1.1034-0.0918 2.1582-0.0918 3.1328 0 10.952 2.9455 21.271 14.047 21.271 8.2682 0 14.763-3.1178 14.984-19.264v-2.1406c0-0.88112-0.0156-1.727-0.0469-2.5391-0.63903 14.687-6.964 17.586-14.938 17.586-10.003 0-13.384-8.3765-13.955-18.047z" fill="#fbf1c7" opacity=".6" stroke-width="3.3446" style="font-variant-ligatures:none"/></svg>
