<svg width="256" height="256" version="1.1" xmlns="http://www.w3.org/2000/svg">
  <defs>
    <linearGradient id="linearGradient31" x1=".5002" x2=".5002" y2="1" gradientTransform="matrix(244,0,0,228,5.986,12)" gradientUnits="userSpaceOnUse">
      <stop stop-color="#ebdbb2" stop-opacity=".2" offset="0"/>
      <stop stop-color="#ebdbb2" stop-opacity=".05" offset=".1"/>
      <stop stop-opacity="0" offset=".7036"/>
      <stop stop-opacity=".1" offset=".8975"/>
      <stop stop-opacity=".2" offset="1"/>
    </linearGradient>
    <linearGradient id="linearGradient6" x1="140" x2="140" y1="12" y2="240" gradientUnits="userSpaceOnUse">
      <stop stop-color="#83a598" offset="0"/>
      <stop stop-color="#076678" offset="1"/>
    </linearGradient>
  </defs>
  <path d="m165 12c72 0 85 15 85 87v56c0 70-13 85-85 85h-74c-72 0-85-15-85-85v-56c0-72 13-87 85-87z" fill="url(#linearGradient6)" style="isolation:isolate"/>
  <path d="m103.1 64.62c-12.39 2.154-24.25 5.924-35.32 11.05-0.09541 0.03999-0.1668 0.1053-0.2215 0.1955-22.49 33.91-28.66 66.99-25.63 99.66 0.01327 0.1601 0.09809 0.3069 0.2215 0.4043 14.84 11 29.21 17.68 43.32 22.1 0.2255 0.0694 0.4691-7e-3 0.6125-0.1955 3.337-4.599 6.311-7.45 8.862-12.55 0.1508-0.2989 0.0066-0.6506-0.2996-0.7689-4.718-1.806-9.206-4.002-13.53-6.503-0.3416-0.2015-0.3797-0.7021-0.06672-0.9383 0.9095-0.6878 1.829-1.402 2.698-2.124 0.1575-0.1321 0.3757-0.1615 0.5605-0.0781 28.39 13.08 59.13 13.08 87.18 0 0.1848-0.09 0.3964-0.0673 0.5605 0.0668 0.8686 0.7225 1.781 1.45 2.698 2.137 0.3143 0.2362 0.2896 0.7368-0.0535 0.9383-4.322 2.55-8.815 4.704-13.54 6.503-0.3076 0.1181-0.437 0.4704-0.2869 0.769 2.605 5.092 5.573 7.938 8.849 12.54 0.1368 0.1948 0.387 0.2782 0.6125 0.2082 14.18-4.425 28.55-11.11 43.38-22.1 0.1302-0.0975 0.2209-0.2442 0.2349-0.4044 3.617-37.77-6.069-70.56-25.66-99.64-0.0468-0.09734-0.1254-0.1668-0.2215-0.2082-11.06-5.12-22.91-8.891-35.3-11.05-0.2255-0.03999-0.4571 0.05343-0.5732 0.2609-1.525 2.737-3.209 4.973-4.392 7.78-13.33-2.015-26.61-2.015-39.67 0-1.183-2.869-2.925-5.043-4.457-7.78-0.1161-0.2015-0.3476-0.2956-0.5732-0.2609zm-5.187 60.04c9.363 0 16.84 7.552 16.69 16.68 0 9.195-7.404 16.68-16.69 16.68-9.144 0-16.67-7.486-16.67-16.68 0-9.195 7.378-16.68 16.67-16.68zm60.07 0c9.363 0 16.83 7.552 16.68 16.68 0 9.195-7.318 16.68-16.68 16.68-9.144 0-16.68-7.486-16.68-16.68 0-9.195 7.391-16.68 16.68-16.68z" fill="#282828" opacity=".3" stroke-width="6.672" style="isolation:isolate"/>
  <path d="m103.1 57.95c-12.39 2.154-24.25 5.924-35.32 11.05-0.09542 0.03999-0.1668 0.1053-0.2215 0.1955-22.49 33.91-28.66 66.99-25.63 99.66 0.01327 0.1594 0.09809 0.3069 0.2215 0.4044 14.84 11 29.21 17.68 43.32 22.1 0.2255 0.0694 0.4691-7e-3 0.6125-0.1955 3.337-4.599 6.311-7.45 8.862-12.55 0.1508-0.2989 0.0066-0.6506-0.2996-0.7689-4.718-1.806-9.206-4.002-13.53-6.503-0.3416-0.2015-0.3797-0.7021-0.06672-0.9384 0.9095-0.6877 1.829-1.402 2.698-2.124 0.1575-0.132 0.3757-0.1615 0.5605-0.0781 28.39 13.08 59.13 13.08 87.18 0 0.1848-0.09 0.3964-0.0674 0.5605 0.0667 0.8686 0.7225 1.781 1.45 2.698 2.137 0.3143 0.2362 0.2896 0.7369-0.0535 0.9384-4.322 2.549-8.815 4.704-13.54 6.503-0.3076 0.1181-0.437 0.4704-0.2869 0.7689 2.605 5.092 5.573 7.938 8.849 12.54 0.1368 0.1948 0.387 0.2782 0.6125 0.2082 14.18-4.425 28.55-11.11 43.38-22.1 0.1302-0.0973 0.2209-0.2442 0.2349-0.4037 3.617-37.77-6.069-70.56-25.66-99.64-0.0468-0.09734-0.1254-0.1668-0.2215-0.2082-11.06-5.12-22.91-8.891-35.3-11.05-0.2255-0.03999-0.4571 0.05343-0.5732 0.2609-1.525 2.737-3.209 4.973-4.392 7.78-13.33-2.015-26.61-2.015-39.67 0-1.183-2.869-2.925-5.043-4.457-7.78-0.1161-0.2015-0.3476-0.2956-0.5732-0.2609zm-5.187 60.04c9.363 0 16.84 7.552 16.69 16.68 0 9.195-7.404 16.68-16.69 16.68-9.144 0-16.67-7.486-16.67-16.68 0-9.195 7.378-16.68 16.67-16.68zm60.07 0c9.363 0 16.83 7.552 16.68 16.68 0 9.195-7.318 16.68-16.68 16.68-9.144 0-16.68-7.486-16.68-16.68 0-9.195 7.391-16.68 16.68-16.68z" fill="#ebdbb2" stroke-width="6.672" style="isolation:isolate"/>
  <path d="m91 12c-72 0-85 15-85 87v56c0 70 13 85 85 85h74c72 0 85-15 85-85v-56c0-72-13-87-85-87zm0 4h74c68 0 80 15 80 83v56c0 66-12 81-80 81h-74c-68 0-80-15-80-81v-56c0-68 12-83 80-83z" fill="url(#linearGradient31)" style="isolation:isolate"/>
</svg>
