<svg width="256" height="256" version="1.1" xmlns="http://www.w3.org/2000/svg">
  <defs>
    <linearGradient id="linearGradient31" x1=".5002" x2=".5002" y2="1" gradientTransform="matrix(244,0,0,228,5.986,12)" gradientUnits="userSpaceOnUse">
      <stop stop-color="#ebdbb2" stop-opacity=".2" offset="0"/>
      <stop stop-color="#ebdbb2" stop-opacity=".05" offset=".1"/>
      <stop stop-opacity="0" offset=".7036"/>
      <stop stop-opacity=".1" offset=".8975"/>
      <stop stop-opacity=".2" offset="1"/>
    </linearGradient>
    <linearGradient id="linearGradient6" x1="140" x2="140" y1="12" y2="240" gradientUnits="userSpaceOnUse">
      <stop stop-color="#504945" offset="0"/>
      <stop stop-color="#3c3836" offset="1"/>
    </linearGradient>
    <linearGradient id="_lgradient_26" x1=".5" x2=".5" y2="1" gradientTransform="matrix(168,0,0,168,45,42.33)" gradientUnits="userSpaceOnUse">
      <stop stop-color="#bdae93" offset="0"/>
      <stop stop-color="#665c54" offset="1"/>
    </linearGradient>
    <linearGradient id="_lgradient_27" x1=".565" x2=".56" y1="1" y2=".018" gradientTransform="matrix(143.2,0,0,143.2,57.41,54.74)" gradientUnits="userSpaceOnUse">
      <stop stop-color="#a89984" offset="0"/>
      <stop stop-color="#ebdbb2" offset="1"/>
    </linearGradient>
    <linearGradient id="b-9-6-3" x1=".6312" x2=".6312" y1=".4998" y2=".9998" gradientTransform="matrix(244,0,0,228,5.995,12)" gradientUnits="userSpaceOnUse">
      <stop stop-color="#fe8019" offset="0"/>
      <stop stop-color="#d65d0e" offset="1"/>
    </linearGradient>
  </defs>
  <path d="m165 12c72 0 85 15 85 87v56c0 70-13 85-85 85h-74c-72 0-85-15-85-85v-56c0-72 13-87 85-87z" fill="url(#linearGradient6)" style="isolation:isolate"/>
  <g transform="translate(-1.009 -1.83)" style="isolation:isolate">
    <path d="m129 46.79c-46.4 0-84.02 37.62-84.02 84.02s37.62 84.02 84.02 84.02 84.02-37.62 84.02-84.02-37.62-84.02-84.02-84.02z" fill="#282828" style="isolation:isolate"/>
    <path d="m45 126.4c0 46.37 37.65 84.02 84.02 84.02s84.02-37.65 84.02-84.02-37.65-84.02-84.02-84.02-84.02 37.65-84.02 84.02z" fill="url(#_lgradient_26)"/>
    <path d="m129.02 42.38c-46.37 0-84.021 37.65-84.021 84.02 0 0.61055 0.03389 1.2128 0.04687 1.8203 1.3742-45.171 38.452-81.43 83.953-81.43 45.759 0 83.001 36.671 83.975 82.199 0.0262-0.86235 0.0664-1.7212 0.0664-2.5898 0-46.37-37.65-84.02-84.02-84.02z" fill="#ebdbb2" opacity=".3" style="isolation:isolate"/>
    <path d="m129 199.9c-39.55 0-71.61-32.06-71.61-71.61s32.06-71.61 71.61-71.61 71.61 32.06 71.61 71.61-32.06 71.61-71.61 71.61z" fill="#282828" opacity=".4" style="isolation:isolate"/>
    <path d="m129 198c-39.55 0-71.61-32.06-71.61-71.61s32.06-71.61 71.61-71.61 71.61 32.06 71.61 71.61-32.06 71.61-71.61 71.61z" fill="url(#_lgradient_27)"/>
    <path d="m115 106.91c-0.527-0.913-0.214-2.082 0.699-2.609s2.082-0.214 2.609 0.699 0.214 2.082-0.699 2.609-2.082 0.214-2.609-0.699zm24.82 43c-0.527-0.913-0.214-2.082 0.699-2.609s2.082-0.214 2.609 0.699 0.214 2.082-0.699 2.609-2.082 0.214-2.609-0.699zm-33.21-33.21c-0.913-0.527-1.226-1.696-0.699-2.609s1.696-1.226 2.609-0.699 1.226 1.696 0.699 2.609-1.696 1.226-2.609 0.699zm43 24.82c-0.913-0.527-1.226-1.696-0.699-2.609s1.696-1.226 2.609-0.699 1.226 1.696 0.699 2.609-1.696 1.226-2.609 0.699zm-45.37-12.16c-1.054 0-1.91-0.856-1.91-1.91s0.856-1.91 1.91-1.91 1.91 0.856 1.91 1.91-0.856 1.91-1.91 1.91zm49.65 0c-1.054 0-1.91-0.856-1.91-1.91s0.856-1.91 1.91-1.91 1.91 0.856 1.91 1.91-0.856 1.91-1.91 1.91zm-45.37 12.16c-0.913 0.527-2.082 0.214-2.609-0.699s-0.214-2.082 0.699-2.609 2.082-0.214 2.609 0.699 0.214 2.082-0.699 2.609zm43-24.82c-0.913 0.527-2.082 0.214-2.609-0.699s-0.214-2.082 0.699-2.609 2.082-0.214 2.609 0.699 0.214 2.082-0.699 2.609zm-33.21 33.21c-0.527 0.913-1.696 1.226-2.609 0.699s-1.226-1.696-0.699-2.609 1.696-1.226 2.609-0.699 1.226 1.696 0.699 2.609zm24.82-43c-0.527 0.913-1.696 1.226-2.609 0.699s-1.226-1.696-0.699-2.609 1.696-1.226 2.609-0.699 1.226 1.696 0.699 2.609zm-12.16 45.37c0 1.054-0.856 1.91-1.91 1.91s-1.91-0.856-1.91-1.91 0.856-1.91 1.91-1.91 1.91 0.856 1.91 1.91zm0-49.65c0 1.054-0.856 1.91-1.91 1.91s-1.91-0.856-1.91-1.91 0.856-1.91 1.91-1.91 1.91 0.856 1.91 1.91z" fill="#ebdbb2" fill-rule="evenodd" opacity=".2" style="isolation:isolate"/>
    <path d="m115 105.8c-0.527-0.913-0.214-2.082 0.699-2.609s2.082-0.214 2.609 0.699 0.214 2.082-0.699 2.609-2.082 0.214-2.609-0.699zm24.82 43c-0.527-0.913-0.214-2.082 0.699-2.609s2.082-0.214 2.609 0.699 0.214 2.082-0.699 2.609-2.082 0.214-2.609-0.699zm-33.21-33.21c-0.913-0.527-1.226-1.696-0.699-2.609s1.696-1.226 2.609-0.699 1.226 1.696 0.699 2.609-1.696 1.226-2.609 0.699zm43 24.82c-0.913-0.527-1.226-1.696-0.699-2.609s1.696-1.226 2.609-0.699 1.226 1.696 0.699 2.609-1.696 1.226-2.609 0.699zm-45.37-12.16c-1.054 0-1.91-0.856-1.91-1.91s0.856-1.91 1.91-1.91 1.91 0.856 1.91 1.91-0.856 1.91-1.91 1.91zm49.65 0c-1.054 0-1.91-0.856-1.91-1.91s0.856-1.91 1.91-1.91 1.91 0.856 1.91 1.91-0.856 1.91-1.91 1.91zm-45.37 12.16c-0.913 0.527-2.082 0.214-2.609-0.699s-0.214-2.082 0.699-2.609 2.082-0.214 2.609 0.699 0.214 2.082-0.699 2.609zm43-24.82c-0.913 0.527-2.082 0.214-2.609-0.699s-0.214-2.082 0.699-2.609 2.082-0.214 2.609 0.699 0.214 2.082-0.699 2.609zm-33.21 33.21c-0.527 0.913-1.696 1.226-2.609 0.699s-1.226-1.696-0.699-2.609 1.696-1.226 2.609-0.699 1.226 1.696 0.699 2.609zm24.82-43c-0.527 0.913-1.696 1.226-2.609 0.699s-1.226-1.696-0.699-2.609 1.696-1.226 2.609-0.699 1.226 1.696 0.699 2.609zm-12.16 45.37c0 1.054-0.856 1.91-1.91 1.91s-1.91-0.856-1.91-1.91 0.856-1.91 1.91-1.91 1.91 0.856 1.91 1.91zm0-49.65c0 1.054-0.856 1.91-1.91 1.91s-1.91-0.856-1.91-1.91 0.856-1.91 1.91-1.91 1.91 0.856 1.91 1.91z" fill="#928374" fill-rule="evenodd" style="isolation:isolate"/>
    <path d="m129.06 99.611c-1.054 0-1.9102 0.85616-1.9102 1.9102 0 0.19405 0.0379 0.37621 0.0918 0.55273 0.23841-0.78318 0.95777-1.3574 1.8184-1.3574 0.8606 0 1.58 0.57424 1.8184 1.3574 0.0539-0.17652 0.0918-0.35868 0.0918-0.55273 0-1.054-0.85616-1.9102-1.9102-1.9102zm-12.273 3.3281c-0.36702-0.026-0.74552 0.0543-1.0879 0.25195-0.78428 0.4527-1.1205 1.378-0.86719 2.209 0.13548-0.44872 0.42955-0.8509 0.86719-1.1035 0.913-0.527 2.0824-0.21378 2.6094 0.69922 0.0747 0.12941 0.12829 0.2652 0.16992 0.40234 0.14777-0.48783 0.10478-1.0319-0.16992-1.5078-0.32937-0.57063-0.90978-0.90789-1.5215-0.95117zm24.557 0c-0.6117 0.0433-1.1921 0.38054-1.5215 0.95117-0.27439 0.47536-0.31513 1.0184-0.16797 1.5059 0.0416-0.13638 0.0937-0.27167 0.16797-0.40039 0.527-0.913 1.6964-1.2262 2.6094-0.69922 0.43763 0.25261 0.7317 0.65479 0.86719 1.1035 0.25336-0.83096-0.0829-1.7563-0.86719-2.209-0.34238-0.19763-0.72087-0.27792-1.0879-0.25195zm-33.91 9.0918c-0.6117 0.0433-1.1921 0.38055-1.5215 0.95118-0.27476 0.47599-0.3178 1.0199-0.16993 1.5078 0.0417-0.1377 0.0949-0.27243 0.16993-0.40235 0.527-0.913 1.6964-1.2262 2.6094-0.69921 0.43767 0.25263 0.73172 0.65474 0.86719 1.1035 0.25347-0.83101-0.0828-1.7562-0.86719-2.209-0.34237-0.19763-0.72087-0.27793-1.0879-0.25196zm43.266 0c-0.36702-0.026-0.74552 0.0543-1.0879 0.25196-0.78367 0.45234-1.1213 1.3766-0.86915 2.207 0.13573-0.44806 0.43204-0.84926 0.86915-1.1016 0.913-0.527 2.0824-0.21379 2.6094 0.69921 0.0743 0.12865 0.1264 0.26214 0.16797 0.39844 0.14659-0.48701 0.10612-1.029-0.16797-1.5039-0.32937-0.57063-0.90979-0.9079-1.5215-0.95118zm-46.459 12.398c-1.054 0-1.9102 0.85616-1.9102 1.9102 0 0.19405 0.0379 0.37816 0.0918 0.55468 0.23841-0.78317 0.95776-1.3574 1.8184-1.3574s1.58 0.57425 1.8184 1.3574c0.0539-0.17652 0.0918-0.36063 0.0918-0.55468 0-1.054-0.85616-1.9102-1.9102-1.9102zm49.65 0c-1.054 0-1.9102 0.85616-1.9102 1.9102 0 0.19405 0.0379 0.37816 0.0918 0.55468 0.23841-0.78317 0.95776-1.3574 1.8184-1.3574s1.58 0.57425 1.8184 1.3574c0.0539-0.17652 0.0918-0.36063 0.0918-0.55468 0-1.054-0.85616-1.9102-1.9102-1.9102zm-46.191 12.422c-0.36702-0.026-0.74552 0.0543-1.0879 0.25195-0.78367 0.45234-1.1213 1.3766-0.86915 2.207 0.13573-0.44806 0.43204-0.84926 0.86915-1.1016 0.913-0.527 2.0824-0.21378 2.6094 0.69922 0.0743 0.12864 0.1264 0.26213 0.16797 0.39843 0.14713-0.48738 0.1064-1.0305-0.16797-1.5059-0.32937-0.57062-0.90979-0.90593-1.5215-0.94921zm42.734 0c-0.6117 0.0433-1.1921 0.37859-1.5215 0.94921-0.2747 0.4759-0.31769 1.02-0.16993 1.5078 0.0416-0.13706 0.0953-0.27106 0.16993-0.40039 0.527-0.913 1.6964-1.2262 2.6094-0.69922 0.43767 0.25263 0.73172 0.65474 0.86719 1.1035 0.25347-0.83101-0.0828-1.7562-0.86719-2.209-0.34237-0.19763-0.72087-0.27792-1.0879-0.25195zm-33.91 9.0879c-0.61169 0.0433-1.1921 0.38054-1.5215 0.95117-0.27439 0.47536-0.31514 1.0184-0.16797 1.5059 0.0416-0.13638 0.0937-0.27167 0.16797-0.40039 0.527-0.913 1.6964-1.2262 2.6094-0.69922 0.4371 0.2523 0.73341 0.6535 0.86914 1.1016 0.25205-0.83039-0.0856-1.7547-0.86914-2.207-0.34238-0.19763-0.72088-0.27792-1.0879-0.25195zm25.084 0c-0.36702-0.026-0.74552 0.0543-1.0879 0.25195-0.78428 0.4527-1.1205 1.378-0.86719 2.209 0.13549-0.44872 0.42955-0.8509 0.86719-1.1035 0.913-0.527 2.0824-0.21378 2.6094 0.69922 0.0743 0.1287 0.12639 0.26403 0.16797 0.40039 0.14717-0.48742 0.10642-1.0305-0.16797-1.5059-0.32937-0.57063-0.90978-0.90789-1.5215-0.95117zm-12.547 3.3203c-1.054 0-1.9102 0.85616-1.9102 1.9102 0 0.1934 0.0382 0.37673 0.0918 0.55273 0.23897-0.78226 0.95842-1.3555 1.8184-1.3555 0.85995 0 1.5794 0.57321 1.8184 1.3555 0.0536-0.176 0.0918-0.35933 0.0918-0.55273 0-1.054-0.85616-1.9102-1.9102-1.9102z" fill="#282828" opacity=".2" style="isolation:isolate"/>
    <circle cx="129" cy="128.5" r="19.1" fill="#282828" opacity=".1" vector-effect="non-scaling-stroke" style="isolation:isolate"/>
    <circle cx="129" cy="126.4" r="19.1" fill="#ebdbb2" vector-effect="non-scaling-stroke" style="isolation:isolate"/>
    <path d="m129 107.3a19.1 19.1 0 0 0-19.1 19.1 19.1 19.1 0 0 0 0.0762 1.0527 19.1 19.1 0 0 1 19.023-18.047 19.1 19.1 0 0 1 19.047 17.75 19.1 19.1 0 0 0 0.0547-0.75586 19.1 19.1 0 0 0-19.102-19.1z" fill="#fbf1c7" opacity=".4" style="isolation:isolate"/>
    <circle cx="129" cy="127.77" r="3.819" fill="#fbf1c7" opacity=".4" vector-effect="non-scaling-stroke" style="isolation:isolate"/>
    <circle cx="129" cy="126.4" r="3.819" fill="#504945" vector-effect="non-scaling-stroke" style="isolation:isolate"/>
    <path d="m129 122.58a3.819 3.819 0 0 0-3.8184 3.8184 3.819 3.819 0 0 0 0.0703 0.68555 3.819 3.819 0 0 1 3.748-3.1309 3.819 3.819 0 0 1 3.7539 3.1152 3.819 3.819 0 0 0 0.0664-0.66993 3.819 3.819 0 0 0-3.8203-3.8184z" fill="#282828" opacity=".5" style="isolation:isolate"/>
    <path d="m178.2 169.2s-112.7 42.05-118.8 43.68c-6.112 1.638-12.39-1.989-14.03-8.101-1.637-6.112 1.99-12.39 8.102-14.03s124.7-21.55 124.7-21.55zm-125.6 32.62c0-2.108 1.711-3.819 3.819-3.819s3.819 1.711 3.819 3.819-1.711 3.819-3.819 3.819-3.819-1.711-3.819-3.819z" fill="#32302f" fill-rule="evenodd" style="isolation:isolate"/>
    <path d="m178.2 166.3s-112.7 42.05-118.8 43.68c-6.112 1.638-12.39-1.989-14.03-8.101-1.637-6.112 1.99-12.39 8.102-14.03s124.7-21.55 124.7-21.55zm-125.6 32.62c0-2.108 1.711-3.819 3.819-3.819s3.819 1.711 3.819 3.819-1.711 3.819-3.819 3.819-3.819-1.711-3.819-3.819z" fill="#ebdbb2" fill-rule="evenodd" style="isolation:isolate"/>
    <path d="m178.17 166.3s-118.59 19.911-124.7 21.551c-5.5911 1.5002-9.0897 6.8817-8.3945 12.467 0.58938-4.4536 3.7838-8.3292 8.3945-9.5664 5.3865-1.4453 88.499-15.447 110.44-19.139 3.0971-1.1543 14.287-5.3106 14.287-5.3106z" fill="#fbf1c7" opacity=".4" style="isolation:isolate"/>
    <path d="m129 54.74c-39.55 0-71.61 32.06-71.61 71.61 0 0.32 0.02 0.635 0.024 0.955 0.514-39.11 32.36-70.65 71.58-70.65s71.07 31.55 71.58 70.65c4e-3 -0.32 0.025-0.635 0.025-0.955 0-39.55-32.06-71.61-71.61-71.61z" fill="#fbf1c7" opacity=".5" style="isolation:isolate"/>
    <path d="m56.46 52.192c-2.1011 0-3.819 1.7127-3.819 3.819 0 2.11 1.71 3.819 3.819 3.819s3.819-1.709 3.819-3.819c0-2.108-1.7183-3.819-3.819-3.819zm145.1 0c-2.1011 0-3.819 1.7127-3.819 3.819 0 2.106 1.7149 3.819 3.819 3.819 2.109 0 3.819-1.709 3.819-3.819 0-2.108-1.7183-3.819-3.819-3.819z" fill="#282828" opacity=".5" style="isolation:isolate"/>
    <path d="m56.46 50.192c-2.1011 0-3.819 1.7127-3.819 3.819 0 2.11 1.71 3.819 3.819 3.819s3.819-1.709 3.819-3.819c0-2.108-1.7183-3.819-3.819-3.819zm145.1 0c-2.1011 0-3.819 1.7127-3.819 3.819 0 2.106 1.7149 3.819 3.819 3.819 2.109 0 3.819-1.709 3.819-3.819 0-2.108-1.7183-3.819-3.819-3.819z" fill="#928374" style="isolation:isolate"/>
    <path d="m56.46 50.192c-2.1011 0-3.8184 1.714-3.8184 3.8203 0 0.34928 0.06067 0.68058 0.14844 1.002 0.4428-1.6207 1.9153-2.8223 3.6699-2.8223 1.7551 0 3.2278 1.2018 3.6699 2.8242 0.08809-0.32191 0.14844-0.65397 0.14844-1.0039 0-2.108-1.7177-3.8203-3.8184-3.8203zm145.1 0c-2.1011 0-3.8184 1.714-3.8184 3.8203 0 0.34797 0.0627 0.67749 0.15039 0.99805 0.44409-1.6187 1.9147-2.8184 3.668-2.8184 1.7543 0 3.227 1.201 3.6699 2.8223 0.0878-0.32137 0.14844-0.65268 0.14844-1.002 0-2.108-1.7177-3.8203-3.8184-3.8203z" fill="#ebdbb2" opacity=".2" style="isolation:isolate"/>
  </g>
  <g transform="translate(-.003 .0457)" style="isolation:isolate">
    <path d="m128.54 239.95-2.542 1e-5 -0.335-29.11c0-74.81 10.64-85.1 85.52-85.1l38.82-0.2723-1e-3 0.532" fill="#32302f" opacity=".3" stroke-width="1.011" style="isolation:isolate"/>
    <path d="m250 126-28.95 0.3203c-78.35 0.8665-91.85 4.404-92.94 79.55-0.3323 11.37-0.0757 22.72 0.4277 34.08 1.9e-4 4e-3 36.19 4e-3 36.45 4e-3 72 0 85-15 85-85z" fill="url(#b-9-6-3)" style="isolation:isolate"/>
    <path d="m200.8 149.97c-21.47 8.75-34.36 29.26-34.36 43.75 0 14.33 11.27 25.95 25.28 26.22-6.997-0.1399-12.63-5.939-12.63-13.1 0-7.249 6.443-17.5 17.18-21.88 0 15.31 11.53 17.53 8.59 26.25-1.666 4.947-5.731 8.701-12.78 8.741 0.042 2.2e-4 0.0888 5e-3 0.1338 5e-3 14.23 0 22.42-7.553 25.77-17.5 5.877-17.45-17.18-21.88-17.18-52.5z" fill="#282828" opacity=".2" style="isolation:isolate"/>
    <path d="m200.8 146c-21.47 8.75-34.36 29.26-34.36 43.75 0 14.33 11.27 25.95 25.28 26.22-6.997-0.1399-12.63-5.939-12.63-13.1 0-7.249 6.443-17.5 17.18-21.88 0 15.31 11.53 17.53 8.59 26.25-1.666 4.947-5.731 8.701-12.78 8.741 0.042 2.2e-4 0.0888 5e-3 0.1338 5e-3 14.23 0 22.42-7.553 25.77-17.5 5.877-17.45-17.18-21.88-17.18-52.5z" fill="#ebdbb2" style="isolation:isolate"/>
    <path d="m200.8 145.99-4e-3 0.0137c-21.47 8.75-34.359 29.26-34.359 43.75 0 0.68134 0.032 1.3553 0.082 2.0234 1.0742-14.326 13.75-33.439 34.277-41.805l4e-3 -0.0137c0 25.764 16.319 32.988 17.996 45.025 1.9092-14.693-17.996-20.534-17.996-48.994zm-21.549 58.881c-0.0973 0.67448-0.16602 1.3382-0.16602 1.9727 0 2.3298 0.60494 4.5089 1.6504 6.4023 1.6e-4 2.9e-4 2e-3 -2.9e-4 2e-3 0 3.3167 1.6788 7.0388 2.6526 10.979 2.7285-6.332-0.1266-11.531-4.8925-12.465-11.104zm25.812 1.6582c-0.0601 0.23403-0.12485 0.47108-0.20703 0.71485-1.666 4.947-5.7322 8.7022-12.781 8.7422 0.042 2.2e-4 0.0898 4e-3 0.13476 4e-3 4.3263 0 8.0905-0.70181 11.334-1.9531 0.53615-0.88018 0.97641-1.8262 1.3125-2.8242 0.599-1.7766 0.58947-3.2809 0.20703-4.6836z" fill="#fbf1c7" opacity=".4" style="isolation:isolate"/>
  </g>
  <path d="m91 12c-72 0-85 15-85 87v56c0 70 13 85 85 85h74c72 0 85-15 85-85v-56c0-72-13-87-85-87zm0 4h74c68 0 80 15 80 83v56c0 66-12 81-80 81h-74c-68 0-80-15-80-81v-56c0-68 12-83 80-83z" fill="url(#linearGradient31)" style="isolation:isolate"/>
</svg>
