<svg width="256" height="256" version="1.1" xmlns="http://www.w3.org/2000/svg">
  <defs>
    <linearGradient id="linearGradient31" x1=".5002" x2=".5002" y2="1" gradientTransform="matrix(244,0,0,228,5.986,12)" gradientUnits="userSpaceOnUse">
      <stop stop-color="#ebdbb2" stop-opacity=".2" offset="0"/>
      <stop stop-color="#ebdbb2" stop-opacity=".05" offset=".1"/>
      <stop stop-opacity="0" offset=".7036"/>
      <stop stop-opacity=".1" offset=".8975"/>
      <stop stop-opacity=".2" offset="1"/>
    </linearGradient>
    <linearGradient id="linearGradient6" x1="140" x2="140" y1="12" y2="240" gradientUnits="userSpaceOnUse">
      <stop stop-color="#98971a" offset="0"/>
      <stop stop-color="#79740e" offset="1"/>
    </linearGradient>
  </defs>
  <path d="m165 12c72 0 85 15 85 87v56c0 70-13 85-85 85h-74c-72 0-85-15-85-85v-56c0-72 13-87 85-87z" fill="url(#linearGradient6)" style="isolation:isolate"/>
  <path d="m153.47 44.679 45.922 27.143-45.974 27.143 0.0591-54.285zm-19.754 13.956c3.368 0 6.6616 0.26894 9.9031 0.71817v10.057c-3.2214-0.52016-6.5256-0.82161-9.9007-0.82161-26.259 0-48.716 16.093-57.929 38.995l-8.5176-5.0284c11.059-25.777 36.677-43.918 66.444-43.918zm0 24.577c3.3724 0 6.6686 0.40194 9.8516 1.0773v10.21c-3.1446-0.83343-6.4428-1.2767-9.8534-1.2767-17.245 0-31.643 11.459-36.173 27.194l-8.8249-5.237c6.5315-18.572 24.264-31.966 44.999-31.966zm57.98 4.5664c8.9922 12.055 14.316 27.004 14.316 43.152 0 16.399-5.5268 31.566-14.777 43.716l-8.5708-5.0834c8.3875-10.61 13.394-24.01 13.394-38.633 0-14.349-4.8274-27.554-12.93-38.072zm-21.396 12.673c6.9275 8.2864 11.134 18.903 11.134 30.478 0 11.837-4.3866 22.726-11.596 31.094l-8.7717-5.1838c6.4133-6.7384 10.362-15.812 10.362-25.913 0-9.8138-3.7119-18.703-9.8002-25.398zm-120.27 3.3337 45.922 27.143-45.974 27.143 0.05915-54.285zm47.513 37.661c4.5304 15.722 18.928 27.143 36.173 27.143 3.4104 0 6.7094-0.4581 9.8516-1.2827v10.262c-3.18 0.67383-6.4724 1.0758-9.8475 1.0758-20.752 0-38.484-13.419-44.998-32.017zm-21.756 12.827c9.2121 22.902 31.669 38.995 57.929 38.995 3.345 0 6.6048-0.26599 9.8002-0.76989v10.005c-3.1978 0.44331-6.4665 0.7152-9.7943 0.7152-29.769 0-55.386-18.138-66.444-43.921zm77.633 9.4922 45.922 27.091-45.974 27.143 0.0591-54.235z" fill="#282828" opacity=".3" stroke-width="5.9109"/>
  <path d="m153.47 39.339 45.922 27.143-45.974 27.143 0.0591-54.285zm-19.754 13.956c3.368 0 6.6616 0.26894 9.9031 0.71817v10.057c-3.2214-0.52016-6.5256-0.82161-9.9007-0.82161-26.259 0-48.716 16.093-57.929 38.995l-8.5176-5.0284c11.059-25.777 36.677-43.918 66.444-43.918zm0 24.577c3.3724 0 6.6686 0.40194 9.8516 1.0773v10.21c-3.1446-0.83343-6.4428-1.2767-9.8534-1.2767-17.245 0-31.643 11.459-36.173 27.194l-8.8249-5.237c6.5315-18.572 24.264-31.966 44.999-31.966zm57.98 4.5664c8.9922 12.055 14.316 27.004 14.316 43.152 0 16.399-5.5268 31.566-14.777 43.716l-8.5708-5.0834c8.3875-10.61 13.394-24.01 13.394-38.633 0-14.349-4.8274-27.554-12.93-38.072zm-21.396 12.673c6.9275 8.2864 11.134 18.903 11.134 30.478 0 11.837-4.3866 22.726-11.596 31.094l-8.7717-5.1838c6.4133-6.7384 10.362-15.812 10.362-25.913 0-9.8138-3.7119-18.703-9.8002-25.398zm-120.27 3.3337 45.922 27.143-45.974 27.143 0.05915-54.285zm47.513 37.661c4.5304 15.722 18.928 27.143 36.173 27.143 3.4104 0 6.7094-0.4581 9.8516-1.2827v10.262c-3.18 0.67383-6.4724 1.0758-9.8475 1.0758-20.752 0-38.484-13.419-44.998-32.017zm-21.756 12.827c9.2121 22.902 31.669 38.995 57.929 38.995 3.345 0 6.6048-0.26599 9.8002-0.76989v10.005c-3.1978 0.44331-6.4665 0.7152-9.7943 0.7152-29.769 0-55.386-18.138-66.444-43.921zm77.633 9.4922 45.922 27.091-45.974 27.143 0.0591-54.235z" fill="#ebdbb2" stroke-width="5.9109"/>
  <path d="m153.47 39.338 6e-3 0.0039v-0.0039zm6e-3 0.0039-6e-3 5.3359h6e-3v0.0039l41.396 24.467 4.5195-2.668zm0 5.3398-6e-3 -0.0039-0.0527 48.945 6e-3 -0.0039zm-19.76 8.6113-2e-3 2e-3c-29.767 0-55.384 18.141-66.443 43.918l1.9746 1.166c11.935-23.534 36.34-39.744 64.469-39.744l2e-3 -2e-3c3.368 0 6.6608 0.26952 9.9023 0.71875v-5.3398c-3.2415-0.44923-6.5343-0.71875-9.9023-0.71875zm0 24.576-2e-3 2e-3c-20.735 0-38.467 13.395-44.998 31.967l1.7754 1.0547c7.5978-16.305 24.125-27.682 43.223-27.682h2e-3c3.3724 0 6.6686 0.40081 9.8516 1.0762v-5.3398c-3.183-0.67536-6.4792-1.0781-9.8516-1.0781zm57.979 4.5664-8.5664 5.0801c0.93652 1.2157 1.8174 2.4766 2.6641 3.7617l5.9023-3.5c8.4903 11.382 13.704 25.346 14.26 40.461 0.0321-0.88008 0.0566-1.7628 0.0566-2.6504 0-16.148-5.3242-31.097-14.316-43.152zm-21.395 12.674-8.6719 5.0781c1.0436 1.1476 1.9875 2.3802 2.8848 3.6504l5.7871-3.3887c6.3819 7.6337 10.41 17.257 11.012 27.773 0.0487-0.87656 0.12109-1.7469 0.12109-2.6348 0-11.575-4.2053-22.192-11.133-30.479zm-120.27 3.334 0.0078 0.0039v-0.0039zm0.0078 0.0039-0.0059 5.3359h0.0059v4e-3l41.395 24.467 4.5195-2.668zm0 5.3398-0.0059-2e-3 -0.05273 48.943 0.0059-4e-3zm121.26 24.416c-0.62068 9.043-4.3827 17.147-10.234 23.295l2.9688 1.7559c4.6238-6.2331 7.3926-13.914 7.3926-22.33 0-0.91872-0.063-1.8192-0.12695-2.7207zm24.668 0.5957c-0.67559 13.37-5.5356 25.594-13.305 35.422l2.7129 1.6094c6.7352-9.9487 10.682-21.94 10.682-34.902 0-0.71719-0.0659-1.4176-0.0898-2.1289zm-98.426 7.3047-8.8203 5.1816c0.51517 1.4709 1.1239 2.8949 1.7754 4.2969l7.0449-4.1387c4.5304 15.722 18.929 27.145 36.174 27.145 3.4104 0 6.7094-0.4586 9.8516-1.2832v-5.3398c-3.1422 0.8246-6.4412 1.2832-9.8516 1.2832-17.245 0-31.643-11.423-36.174-27.145zm-21.756 12.828-8.5098 5.0234c0.60836 1.4185 1.2799 2.8034 1.9746 4.1738l6.5352-3.8574c9.2121 22.902 31.67 38.994 57.93 38.994 3.345 0 6.6034-0.26563 9.7988-0.76953v-5.3398c-3.1954 0.5039-6.4538 0.76953-9.7988 0.76953-26.26 0-48.718-16.092-57.93-38.994zm77.641 9.4902-8e-3 2e-3 8e-3 4e-3zm0 6e-3 -6e-3 5.3359 6e-3 -2e-3v6e-3l41.391 24.418 4.5234-2.6719zm0 5.3398-6e-3 -4e-3 -0.0547 48.895 6e-3 -4e-3z" fill="#fbf1c7" opacity=".6"/>
  <path d="m91 12c-72 0-85 15-85 87v56c0 70 13 85 85 85h74c72 0 85-15 85-85v-56c0-72-13-87-85-87zm0 4h74c68 0 80 15 80 83v56c0 66-12 81-80 81h-74c-68 0-80-15-80-81v-56c0-68 12-83 80-83z" fill="url(#linearGradient31)" style="isolation:isolate"/>
</svg>
