<svg xmlns="http://www.w3.org/2000/svg" xmlns:xlink="http://www.w3.org/1999/xlink" width="256" height="256" viewBox="0 0 67.73 67.73">
    <defs>
        <linearGradient id="b" x1="57.714" x2="284" y1="-34" y2="544" gradientTransform="matrix(.84848 0 0 .94118 95.03 0)" gradientUnits="userSpaceOnUse">
            <stop offset="0" stop-color="#fb4934"/>
            <stop offset="1" stop-color="#fb4934"/>
        </linearGradient>
        <linearGradient id="h" x1="296" x2="296" y1="-212" y2="236" gradientUnits="userSpaceOnUse">
            <stop offset="0" stop-color="#ebdbb2"/>
            <stop offset=".125" stop-color="#ebdbb2" stop-opacity=".098"/>
            <stop offset=".925" stop-opacity=".098"/>
            <stop offset="1" stop-opacity=".498"/>
        </linearGradient>
        <clipPath id="g">
            <path d="M361.938-212C507.235-212 528-191.287 528-46.125v116.25C528 215.286 507.235 236 361.937 236H214.063C68.766 236 48 215.286 48 70.125v-116.25C48-191.287 68.765-212 214.063-212z" fill="#b16286"/>
        </clipPath>
        <linearGradient id="a" x1="448" x2="448" y1="256" y2="496" gradientUnits="userSpaceOnUse" spreadMethod="reflect">
            <stop offset="0"/>
            <stop offset="1" stop-opacity="0"/>
        </linearGradient>
        <filter id="d" width="1.023" height="1.025" x="-.01" y="-.01" color-interpolation-filters="sRGB">
            <feGaussianBlur stdDeviation="1.16"/>
        </filter>
        <filter id="c" width="1.046" height="1.05" x="-.02" y="-.03" color-interpolation-filters="sRGB">
            <feGaussianBlur stdDeviation="2.32"/>
        </filter>
        <linearGradient id="f" x1="58.569" x2="59.047" y1="263.304" y2="263.305" gradientUnits="userSpaceOnUse" spreadMethod="pad" xlink:href="#a"/>
        <linearGradient id="i" x1="58.569" x2="59.047" y1="263.304" y2="263.305" gradientTransform="matrix(1 0 0 1.04255 -46.5 -11.264)" gradientUnits="userSpaceOnUse" spreadMethod="pad" xlink:href="#a"/>
        <linearGradient id="e" x1="58.569" x2="9.841" y1="290.914" y2="233.124" gradientUnits="userSpaceOnUse" xlink:href="#b"/>
    </defs>
    <path d="M162.537 5.568c72.648 0 83.031 10.357 83.031 82.938v58.125c0 72.58-10.383 82.937-83.031 82.937H88.599c-72.648 0-83.031-10.357-83.031-82.937V88.506c0-72.581 10.383-82.938 83.031-82.938z" transform="matrix(.26458 0 0 .26458 0 3.404)" opacity=".2" filter="url(#c)"/>
    <path d="M162.537 3.568c72.648 0 83.031 10.357 83.031 82.938v58.125c0 72.58-10.383 82.937-83.031 82.937H88.599c-72.648 0-83.031-10.357-83.031-82.937V86.506c0-72.581 10.383-82.938 83.031-82.938z" transform="matrix(.26458 0 0 .26458 0 3.404)" opacity=".1" filter="url(#d)"/>
    <path d="M17.311 292.697c-4.367-.244-7.3-.827-9.47-1.88-3.16-1.534-4.77-3.992-5.617-8.576-.634-3.44-.782-7.94-.71-21.612.055-10.162.108-11.887.447-14.62.792-6.375 2.843-9.43 7.327-10.917 2.225-.738 4.278-1.064 8.08-1.284 2.801-.163 31.82-.084 33.545.09 2.905.294 5.208.761 6.81 1.38l.868.335v55.285l-.92.333c-1.88.68-3.634 1.035-6.6 1.338-1.46.149-3.705.174-16.933.194-8.387.012-15.96-.017-16.827-.066z" fill="url(#e)" paint-order="markers fill stroke" transform="translate(0 -229.267)"/>
    <path d="M58.565 13.325c0-3.789.035-6.908.034-6.952-.001-.034.172.034.98.57 2.924 1.904 4.302 4.749 4.94 10.035.085.71.188 1.728.227 2.263l.072.973h-6.253z" fill="#282828" paint-order="markers fill stroke"/>
    <path d="M58.573 27.05v-6.836h3.095l3.14.009s.04.466.042.7c.005.515.05 3.467.05 6.837v6.126h-6.327V27.05z" fill="#ebdbb2" paint-order="markers fill stroke"/>
    <path d="M58.56 40.778v-6.971h6.34v6.408c0 3.524-.031 6.66-.069 6.97l-.067.564H58.56v-6.971z" fill="#282828" paint-order="markers fill stroke"/>
    <path d="M58.579 54.659v-6.89h6.248l-.071 1.078c-.399 6.043-1.812 9.82-4.498 11.785-.434.318-.59.422-1.186.772a4.78 4.78 0 0 1-.493.224z" fill="#ebdbb2" paint-order="markers fill stroke"/>
    <path d="M58.585 235.625l-.016 55.29.539-.25-.061-54.815z" opacity=".4" fill="url(#f)" transform="translate(0 -229.267)"/>
    <path d="M12.086 5.119c-.382.072-.773.138-1.132.225a21.26 21.26 0 0 0-1.666.481c-.56.186-1.083.396-1.57.634a9.605 9.605 0 0 0-1.355.802 8.382 8.382 0 0 0-2.123 2.19c-.293.436-.557.91-.795 1.427a13.724 13.724 0 0 0-.635 1.678 19.88 19.88 0 0 0-.49 1.948c-.141.697-.26 1.442-.359 2.24-.17 1.366-.268 2.48-.33 4.522-.063 2.043-.089 5.015-.116 10.096-.036 6.836-.018 11.38.09 14.644a70.72 70.72 0 0 0 .23 4.063c.102 1.12.23 2.046.39 2.906.211 1.145.47 2.159.79 3.058.159.45.333.87.525 1.265.19.394.399.763.624 1.108a8.26 8.26 0 0 0 1.585 1.802c.305.259.63.499.978.722.349.223.72.429 1.115.62.542.264 1.132.498 1.78.704.648.207 1.355.386 2.13.54.102.02.23.031.334.05V5.12z" fill="#282828"/>
    <path d="M361.938-212C507.235-212 528-191.287 528-46.125v116.25C528 215.286 507.235 236 361.937 236H214.063C68.766 236 48 215.286 48 70.125v-116.25C48-191.287 68.765-212 214.063-212z" clip-path="url(#g)" transform="matrix(.1323 0 0 .1323 -4.877 32.393)" opacity=".5" fill="none" stroke="url(#h)" stroke-width="8" stroke-linecap="round" stroke-linejoin="round"/>
    <path d="M12.086 234.385l-.017 57.642.54-.26-.061-57.147z" opacity=".4" fill="url(#i)" transform="translate(0 -229.267)"/>
    <text style="line-height:1.25" x="14.89" y="-24507.71" font-size="1.411" letter-spacing="0" word-spacing="0" transform="translate(0 -229.267)">
        <tspan x="14.89" y="-24507.71" font-size="31.748" font-family="serif">Aa</tspan>
    </text>
    <g style="line-height:1.25" font-size="1.411" letter-spacing="0" word-spacing="0" fill="#ebdbb2">
        <g style="line-height:1.25" opacity=".6">
            <path d="M21.25 34.09h8.494l-4.247-11.007zm-6.543 8.386v-1.643h2.03l8.248-21.502h2.604l8.263 21.502h2.279v1.643h-8.418v-1.643h2.574l-1.938-5.085h-9.736l-1.937 5.085h2.542v1.643zM50.47 37.298V33.81h-3.673q-2.124 0-3.163.915-1.038.915-1.038 2.806 0 1.72 1.054 2.728 1.054 1.008 2.852 1.008 1.783 0 2.868-1.1 1.1-1.101 1.1-2.869zm2.853-5.115v8.65h2.542v1.643h-5.394v-1.783q-.946 1.148-2.186 1.69-1.24.543-2.9.543-2.743 0-4.355-1.457-1.612-1.458-1.612-3.938 0-2.558 1.844-3.969 1.845-1.41 5.21-1.41h3.999V31.02q0-1.876-1.148-2.899-1.131-1.038-3.193-1.038-1.705 0-2.713.775-1.007.775-1.256 2.294H40.69v-3.333q1.488-.636 2.883-.946 1.41-.325 2.744-.325 3.426 0 5.209 1.705 1.798 1.69 1.798 4.93z"/>
        </g>
        <g style="line-height:1.25" opacity=".5">
            <path d="M21.25 33.56h8.494l-4.247-11.006zm-6.543 8.387v-1.643h2.03l8.248-21.502h2.604l8.263 21.502h2.279v1.643h-8.418v-1.643h2.574l-1.938-5.085h-9.736l-1.937 5.085h2.542v1.643zM50.47 36.77V33.28h-3.673q-2.124 0-3.163.915-1.038.915-1.038 2.806 0 1.72 1.054 2.728 1.054 1.008 2.852 1.008 1.783 0 2.868-1.1 1.1-1.101 1.1-2.869zm2.853-5.116v8.65h2.542v1.643h-5.394v-1.783q-.946 1.147-2.186 1.69-1.24.543-2.9.543-2.743 0-4.355-1.458-1.612-1.457-1.612-3.937 0-2.558 1.844-3.969 1.845-1.41 5.21-1.41h3.999V30.49q0-1.876-1.148-2.899-1.131-1.039-3.193-1.039-1.705 0-2.713.775-1.007.776-1.256 2.295H40.69V26.29q1.488-.636 2.883-.946 1.41-.325 2.744-.325 3.426 0 5.209 1.705 1.798 1.69 1.798 4.93z"/>
        </g>
        <path d="M21.25 33.825h8.494l-4.247-11.007zm-6.543 8.387v-1.644h2.03l8.248-21.501h2.604l8.263 21.501h2.279v1.644h-8.418v-1.644h2.574l-1.938-5.084h-9.736l-1.937 5.084h2.542v1.644zM50.47 37.034v-3.488h-3.673q-2.124 0-3.163.915-1.038.914-1.038 2.805 0 1.721 1.054 2.729 1.054 1.007 2.852 1.007 1.783 0 2.868-1.1 1.1-1.1 1.1-2.868zm2.853-5.116v8.65h2.542v1.644h-5.394v-1.783q-.946 1.147-2.186 1.69-1.24.542-2.9.542-2.743 0-4.355-1.457-1.612-1.457-1.612-3.938 0-2.557 1.844-3.968 1.845-1.41 5.21-1.41h3.999v-1.132q0-1.876-1.148-2.9-1.131-1.038-3.193-1.038-1.705 0-2.713.775-1.007.775-1.256 2.294H40.69v-3.333q1.488-.635 2.883-.945 1.41-.326 2.744-.326 3.426 0 5.209 1.705 1.798 1.69 1.798 4.93z"/>
    </g>
</svg>
