<svg xmlns="http://www.w3.org/2000/svg" width="256" height="256" viewBox="0 0 67.73 67.73">
    <defs>
        <linearGradient id="d" x1="296" x2="296" y1="-212" y2="236" gradientUnits="userSpaceOnUse">
            <stop offset="0" stop-color="#ebdbb2"/>
            <stop offset=".125" stop-color="#ebdbb2" stop-opacity=".098"/>
            <stop offset=".925" stop-opacity=".098"/>
            <stop offset="1" stop-opacity=".498"/>
        </linearGradient>
        <clipPath id="c">
            <path d="M361.938-212C507.235-212 528-191.287 528-46.125v116.25C528 215.286 507.235 236 361.937 236H214.063C68.766 236 48 215.286 48 70.125v-116.25C48-191.287 68.765-212 214.063-212z" fill="#b16286"/>
        </clipPath>
        <filter id="b" width="1.023" height="1.025" x="-.01" y="-.01" color-interpolation-filters="sRGB">
            <feGaussianBlur stdDeviation="1.16"/>
        </filter>
        <filter id="a" width="1.046" height="1.05" x="-.02" y="-.03" color-interpolation-filters="sRGB">
            <feGaussianBlur stdDeviation="2.32"/>
        </filter>
        <filter id="e" width="1.102" height="1.091" x="-.05" y="-.04" color-interpolation-filters="sRGB">
            <feGaussianBlur stdDeviation=".72"/>
        </filter>
    </defs>
    <path d="M162.537 5.568c72.648 0 83.031 10.357 83.031 82.938v58.125c0 72.58-10.383 82.937-83.031 82.937H88.599c-72.648 0-83.031-10.357-83.031-82.937V88.506c0-72.581 10.383-82.938 83.031-82.938z" transform="matrix(.2646 0 0 .2646 -.203 3.683)" opacity=".2" filter="url(#a)"/>
    <path d="M162.537 3.568c72.648 0 83.031 10.357 83.031 82.938v58.125c0 72.58-10.383 82.937-83.031 82.937H88.599c-72.648 0-83.031-10.357-83.031-82.937V86.506c0-72.581 10.383-82.938 83.031-82.938z" transform="matrix(.2646 0 0 .2646 -.203 3.683)" opacity=".1" filter="url(#b)"/>
    <path d="M42.805 4.627c19.223 0 21.97 2.74 21.97 21.946v15.38c0 19.205-2.747 21.946-21.97 21.946H23.24c-19.224 0-21.97-2.74-21.97-21.946v-15.38c0-19.205 2.746-21.946 21.97-21.946z" fill="#458588"/>
    <path d="M361.938-212C507.235-212 528-191.287 528-46.125v116.25C528 215.286 507.235 236 361.937 236H214.063C68.766 236 48 215.286 48 70.125v-116.25C48-191.287 68.765-212 214.063-212z" clip-path="url(#c)" transform="translate(-5.08 32.676) scale(.1323)" opacity=".4" fill="none" stroke="url(#d)" stroke-width="8" stroke-linecap="round" stroke-linejoin="round"/>
    <path d="M11.33 5.435c-.594.12-1.176.245-1.703.4-.642.189-1.236.404-1.786.65s-1.055.522-1.52.832c-.18.12-.325.269-.492.399l26.507 26.212zM64.164 15.701c-.042-.259-.071-.547-.119-.795-.14-.73-.303-1.409-.494-2.041a13.633 13.633 0 0 0-.66-1.76c-.143-.312-.32-.578-.484-.862L34.818 33.668zM64.52 49.015c.032-.397.075-.764.1-1.183.112-1.887.155-4.002.155-6.371v-4.612l-30.221-2.246zM42.96 63.112c2.333-.002 4.44-.041 6.308-.15a52.472 52.472 0 0 0 2.702-.22 32.638 32.638 0 0 0 2.377-.345 20.92 20.92 0 0 0 2.071-.487c.405-.119.76-.268 1.127-.41L33.973 35.122zM4.174 58.35c.27.37.551.728.872 1.045.387.38.81.724 1.275 1.033.465.31.97.587 1.52.833s1.144.46 1.786.649c.382.112.816.196 1.233.29L32.81 35.33c-.593-.208-16.677 13.068-28.637 23.02z" opacity=".071" fill="#ebdbb2" fill-rule="evenodd"/>
    <path d="M1.27 30.862V41.46c0 .75.04 1.317.05 2.017l30.013-8.304z" opacity=".021" fill-rule="evenodd"/>
    <path d="M52.339 5.058c-.129-.016-.238-.04-.369-.054a52.492 52.492 0 0 0-2.702-.22c-1.915-.112-4.06-.154-6.463-.154H29.627l4.505 28.622zM27.747 63.115h9.705l-3.954-27.629z" opacity=".071" fill="#ebdbb2" fill-rule="evenodd"/>
    <path d="M24.114 4.63h-.874c-2.402 0-4.548.042-6.463.153-.957.056-1.857.128-2.703.221-.845.093-1.636.207-2.376.344-.074.014-.134.035-.206.049l21.478 28.22z" opacity=".021" fill-rule="evenodd"/>
    <path d="M61.699 9.19c-.226-.289-.443-.585-.7-.84a8.625 8.625 0 0 0-1.275-1.033c-.106-.071-.237-.123-.348-.19L43.478 25.252z" opacity=".021" fill="#ebdbb2" fill-rule="evenodd"/>
    <path d="M64.775 30.77v-4.486c0-1.96-.055-3.645-.129-5.273L34.66 34.291z" opacity=".021" fill-rule="evenodd"/>
    <path d="M63.3 55.55c.081-.227.179-.429.251-.67.191-.632.355-1.311.494-2.04.073-.38.122-.81.182-1.217L34.659 35.331z" opacity=".021" fill="#ebdbb2" fill-rule="evenodd"/>
    <path d="M15.93 62.893c.288.021.547.052.847.07 1.915.11 4.06.152 6.463.152h3.316l6.572-27.629c-.22-.233-11.525 17.556-17.199 27.407z" opacity=".021" fill-rule="evenodd"/>
    <path d="M1.37 45.544c.024.738.015 1.61.056 2.288.056.944.13 1.83.224 2.664.095.833.21 1.614.35 2.343.14.73.303 1.41.494 2.042.05.164.118.3.171.458l29.09-19.905zM1.337 23.56c-.018.922-.067 1.711-.067 2.724v1.765l31.172 6.814z" opacity=".021" fill="#ebdbb2" fill-rule="evenodd"/>
    <path d="M21.076 4.681c-.812.012-1.602.03-2.35.056l13.821 28.256z" opacity=".071" fill="#ebdbb2" fill-rule="evenodd"/>
    <path d="M64.775 27.323v-1.039c0-.666-.036-1.165-.044-1.792L35.716 34.24z" opacity=".111" fill="#ebdbb2" fill-rule="evenodd"/>
    <path d="M1.27 36.928v3.808l31.277-5.977z" opacity=".128" fill="#ebdbb2" fill-rule="evenodd"/>
    <path d="M8.37 61.453l16.574-18.227L6.063 60.219M6.063 60.219l-4.089 3.68h4.172l2.223-2.446" opacity=".07" fill="none"/>
    <path d="M61.39 58.926c.225-.256.46-.5.658-.788.314-.458.594-.956.844-1.497.157-.342.281-.732.415-1.109L42.897 41.98z" opacity=".093" fill="#ebdbb2" fill-rule="evenodd"/>
    <path d="M64.598 48.09c.006-.09.016-.166.022-.258.078-1.32.088-2.904.108-4.455L38.461 36.37z" opacity=".071" fill="#ebdbb2" fill-rule="evenodd"/>
    <path d="M2.755 12.167c-.084.237-.185.447-.261.698-.142.47-.254.994-.367 1.517l21.919 14.092z" opacity=".067" fill="#ebdbb2" fill-rule="evenodd"/>
    <path d="M52.473 5.077c-.174-.022-.324-.053-.503-.073a52.492 52.492 0 0 0-2.702-.22c-.195-.012-.457-.007-.657-.017L34.976 31.695z" opacity=".073" fill="#ebdbb2" fill-rule="evenodd"/>
    <path d="M33.498 35.486L34.712 63.9h2.852z" opacity=".101" fill="#ebdbb2" fill-rule="evenodd"/>
    <g>
        <path d="M30.413 15.277c-2.35 0-4.25 1.888-4.25 4.218 0 1.812 1.635 3.307 3.25 3.907.002.291-.002.583 0 .875h-7.531a.466.466 0 0 0-.469.468v1.063c0 .261.208.469.469.469h7.531c.035 6.812.043 13.625 0 20.437.011.168-.55.338-.687.438-.388.287-.836.393-1.313.406-.757-.005-1.244-.207-1.968-.406-1.637-.476-3.188-1.142-4.688-1.938-.631-.348-1.25-.674-1.812-1.125-.243-.205-.526-.504-.5-.844.032-.256.152-.515.437-.562.257-.04.492.071.719.156.195.084.344-.12.312-.281-.031-.425-.184-.82-.406-1.188-.462-.754-1.169-1.33-1.906-1.812-.787-.5-1.627-1.045-2.125-1.844-.1-.147-.215-.39-.438-.312-.309.1-.473.397-.625.656-.426.805-.652 1.68-.843 2.562-.158.703-.18 1.44-.125 2.157.057.716.114 1.424.406 2.093.184.44.521.813.844 1.157.205-.216.383-.445.593-.657.273-.272.632-.459 1.032-.406.543.07 1.041.406 1.468.719.602.465 1.169.955 1.782 1.406.97.736 2.026 1.259 3.125 1.781.915.423 1.862.845 2.812 1.188.17.074.358.063.531.125 1.71.706 3.16 1.527 4.344 3 .002.02-.002.074 0 .094.014-.018.018-.014.031-.032.014.018.018.014.031.032.01-.041-.009-.084 0-.125 1.18-1.457 2.645-2.267 4.344-2.97.173-.06.361-.05.531-.124.95-.343 1.898-.765 2.813-1.188 1.099-.522 2.155-1.045 3.125-1.78.613-.452 1.18-.942 1.781-1.407.427-.313.926-.65 1.469-.719.4-.053.758.134 1.031.406.21.212.388.44.594.657.322-.344.66-.717.844-1.157.292-.669.349-1.377.406-2.093.055-.716.033-1.454-.125-2.157-.192-.883-.418-1.757-.844-2.562-.151-.26-.316-.557-.625-.656-.222-.079-.338.165-.437.312-.499.799-1.338 1.345-2.125 1.844-.738.482-1.445 1.058-1.907 1.812-.221.369-.374.763-.406 1.188-.031.161.117.365.313.281.227-.085.462-.196.718-.156.285.047.405.306.438.562.026.34-.258.639-.5.844-.562.451-1.181.777-1.813 1.125-1.5.796-3.05 1.462-4.687 1.938-.725.199-1.211.401-1.969.406-.476-.013-.925-.119-1.312-.406-.137-.1-.699-.27-.688-.438V26.277h7.531a.466.466 0 0 0 .47-.47v-1.062a.466.466 0 0 0-.47-.468h-7.53v-.875c1.615-.6 3.25-2.095 3.25-3.907 0-2.33-1.9-4.218-4.25-4.218zm-.093 2.062c1.14 0 2.094.9 2.093 2.031 0 1.132-.952 2.063-2.093 2.063a2.066 2.066 0 0 1-2.063-2.063c0-1.13.922-2.03 2.063-2.03z" opacity=".3" fill="#282828" filter="url(#e)" transform="matrix(1.05842 0 0 1.05842 .833 -1.486)"/>
        <path d="M33.023 14.684c-2.488 0-4.5 1.998-4.499 4.465 0 1.917 1.73 3.5 3.44 4.134.002.309-.002.618 0 .926h-7.971a.493.493 0 0 0-.496.496v1.125c0 .276.22.496.496.496h7.971c.037 7.21.045 14.422 0 21.632.012.177-.583.358-.727.463-.41.304-.886.415-1.39.43-.801-.005-1.316-.22-2.083-.43-1.732-.504-3.374-1.21-4.962-2.051-.668-.368-1.323-.713-1.918-1.19-.256-.218-.557-.535-.53-.894.035-.272.163-.546.464-.595.271-.043.52.075.76.165.208.089.364-.127.331-.298-.033-.45-.195-.867-.43-1.256-.488-.799-1.237-1.408-2.017-1.919-.833-.528-1.722-1.106-2.25-1.951-.104-.156-.227-.414-.463-.331-.327.105-.5.42-.661.695-.45.852-.69 1.777-.893 2.712-.167.743-.19 1.524-.132 2.282.06.758.12 1.508.43 2.216.194.465.551.86.893 1.224.217-.229.405-.47.628-.695.289-.288.67-.486 1.092-.43.575.074 1.102.43 1.554.761.637.492 1.237 1.011 1.885 1.488 1.027.78 2.145 1.332 3.308 1.886.969.447 1.971.893 2.977 1.257.18.078.379.067.562.132 1.81.747 3.345 1.616 4.598 3.175.002.022-.003.079 0 .1.014-.02.018-.015.033-.034.014.019.018.015.033.033.01-.043-.01-.089 0-.132 1.248-1.541 2.799-2.399 4.597-3.142.183-.065.382-.054.562-.132 1.006-.364 2.008-.81 2.977-1.257 1.163-.554 2.282-1.106 3.308-1.886.648-.477 1.249-.996 1.885-1.488.452-.33.98-.687 1.555-.76.422-.057.802.141 1.091.43.223.223.41.465.629.694.34-.364.698-.759.893-1.224.309-.708.37-1.458.43-2.216.058-.758.034-1.539-.133-2.282-.203-.935-.442-1.86-.893-2.712-.16-.275-.334-.59-.661-.695-.236-.083-.358.175-.463.33-.528.846-1.416 1.424-2.25 1.952-.78.51-1.529 1.12-2.017 1.919-.235.39-.397.806-.43 1.256-.033.171.124.387.33.298.24-.09.49-.208.761-.165.302.05.429.323.463.595.028.36-.272.676-.529.893-.594.478-1.25.823-1.918 1.19-1.587.843-3.23 1.548-4.961 2.052-.767.21-1.283.425-2.084.43-.504-.015-.98-.126-1.39-.43-.144-.105-.738-.286-.727-.463V26.326h7.971c.276 0 .496-.22.496-.496v-1.125a.493.493 0 0 0-.496-.496h-7.971v-.926c1.71-.634 3.44-2.217 3.44-4.134 0-2.467-2.01-4.465-4.498-4.465zm-.1 2.183c1.208 0 2.217.952 2.217 2.15 0 1.197-1.009 2.182-2.217 2.182a2.187 2.187 0 0 1-2.183-2.183c0-1.197.976-2.15 2.183-2.15z" fill="#ebdbb2"/>
    </g>
</svg>
