<svg width="256" height="256" version="1.1" xmlns="http://www.w3.org/2000/svg">
  <defs>
    <linearGradient id="linearGradient31" x1=".5002" x2=".5002" y2="1" gradientTransform="matrix(244,0,0,228,5.986,12)" gradientUnits="userSpaceOnUse">
      <stop stop-color="#ebdbb2" stop-opacity=".2" offset="0"/>
      <stop stop-color="#ebdbb2" stop-opacity=".05" offset=".1"/>
      <stop stop-opacity="0" offset=".7036"/>
      <stop stop-opacity=".1" offset=".8975"/>
      <stop stop-opacity=".2" offset="1"/>
    </linearGradient>
    <linearGradient id="linearGradient26" x1="20.33" x2="64.87" y1="58.92" y2="47.83" gradientTransform="matrix(0 4.545 -4.864 0 298.7 -22.93)" gradientUnits="userSpaceOnUse">
      <stop stop-color="#458588" offset=".13"/>
      <stop stop-color="#fb4934" offset=".3364"/>
    </linearGradient>
    <linearGradient id="linearGradient24" x1="20" x2="240" y1="30" y2="220" gradientTransform="matrix(0 -.9344 1.07 0 -6.8 245.6)" gradientUnits="userSpaceOnUse">
      <stop stop-color="#fb4934" offset=".2706"/>
      <stop stop-color="#b16286" offset=".799"/>
    </linearGradient>
  </defs>
  <path d="m90.93 11.95c-69.44 0-83.97 14.11-84.92 79.65l137.8 148.4h21.17c72.01 0 85.02-15 85.02-85v-1.059l-145-141.9z" fill="#458588"/>
  <path d="m73.53 12.37c-56.53 2.459-67.53 20.88-67.53 86.63v56c0 70 13 85 85 85h37.74c-10.06-74.67-21.4-155.2-55.21-227.6z" fill="url(#linearGradient26)"/>
  <path d="m143.8 240 106.2-86v-57c0-69.66-13.33-85-85-85h-60l-95.94 185.3c6.778 34.48 28.39 42.66 81.94 42.66z" fill="url(#linearGradient24)" stroke-width=".9998"/>
  <path d="m204.25 54.5h-152.5v152.5h152.5z" fill="#ebdbb2" opacity=".2" stroke-width="3.812"/>
  <path d="m204.25 49.51h-152.5v152.5h152.5z" fill="#32302f" stroke-width="3.812"/>
  <path d="m51.75 49.51v4.9902h152.5v-4.9902z" fill="#1d2021"/>
  <path d="m91.307 67.998v0.001953h-23.307v61.223h23.307c17.487 0 30.262-12.676 30.262-30.615 0-17.699-12.578-30.609-30.262-30.609zm33.695 0.001953-2e-3 10.721h18.566v50.279h11.896v-50.279h18.475l-0.00977-10.721zm-45.062 10.318h11.236c10.803 0 18.145 7.4475 18.145 20.285 0 13.169-7.6282 20.297-18.145 20.297l-11.236 2e-3zm-11.939 92.682v12h62v-12z" fill="#1d2021"/>
  <path d="m91.307 64.998v0.001953h-23.307v61.223h23.307c17.487 0 30.262-12.676 30.262-30.615 0-17.699-12.578-30.609-30.262-30.609zm33.695 0.001953-0.00195 10.721h18.566v50.279h11.896v-50.279h18.475l-0.00977-10.721zm-45.062 10.318h11.236c10.803 0 18.145 7.4475 18.145 20.285 0 13.169-7.6282 20.297-18.145 20.297l-11.236 2e-3zm-11.939 92.682v12h62v-12z" fill="#ebdbb2"/>
  <path d="m91.307 64.998v2e-3h-23.307v3h23.307v-2e-3c17.175 0 29.497 12.193 30.193 29.109 0.0204-0.50086 0.0684-0.99048 0.0684-1.5 0-17.699-12.578-30.609-30.262-30.609zm33.695 2e-3v3h48.926l8e-3 7.7207h2e-3l-0.01-10.721zm-15.736 32.104c-0.56607 12.199-7.9846 18.797-18.09 18.797l-11.236 2e-3v3l11.236-2e-3c10.516 0 18.145-7.1279 18.145-20.297 0-0.5135-0.0314-1.0039-0.0547-1.5zm-41.266 70.896v3h62v-3z" fill="#fbf1c7" opacity=".4"/>
  <path d="m91 12c-72 0-85 15-85 87v56c0 70 13 85 85 85h74c72 0 85-15 85-85v-56c0-72-13-87-85-87zm0 4h74c68 0 80 15 80 83v56c0 66-12 81-80 81h-74c-68 0-80-15-80-81v-56c0-68 12-83 80-83z" fill="url(#linearGradient31)" style="isolation:isolate"/>
</svg>
