<svg width="256" height="256" version="1.1" xmlns="http://www.w3.org/2000/svg">
  <defs>
    <linearGradient id="linearGradient31" x1=".5002" x2=".5002" y2="1" gradientTransform="matrix(244,0,0,228,5.986,12)" gradientUnits="userSpaceOnUse">
      <stop stop-color="#ebdbb2" stop-opacity=".2" offset="0"/>
      <stop stop-color="#ebdbb2" stop-opacity=".05" offset=".1"/>
      <stop stop-opacity="0" offset=".7036"/>
      <stop stop-opacity=".1" offset=".8975"/>
      <stop stop-opacity=".2" offset="1"/>
    </linearGradient>
    <linearGradient id="linearGradient6" x1="140" x2="140" y1="12" y2="240" gradientUnits="userSpaceOnUse">
      <stop stop-color="#d3869b" offset="0"/>
      <stop stop-color="#b16286" offset="1"/>
    </linearGradient>
    <linearGradient id="linearGradient19" x1="136.74" x2="136.74" y1="77.06" y2="178.94" gradientTransform="translate(-8.8621 3.8987)" gradientUnits="userSpaceOnUse">
      <stop stop-color="#076678" stop-opacity="0" offset="0"/>
      <stop stop-color="#282828" offset="1"/>
    </linearGradient>
    <linearGradient id="linearGradient19-2" x1="136.74" x2="136.74" y1="77.06" y2="178.94" gradientTransform="translate(-8.8643 7.8987)" gradientUnits="userSpaceOnUse">
      <stop stop-color="#076678" stop-opacity="0" offset="0"/>
      <stop stop-color="#282828" offset="1"/>
    </linearGradient>
  </defs>
  <path d="m165 12c72 0 85 15 85 87v56c0 70-13 85-85 85h-74c-72 0-85-15-85-85v-56c0-72 13-87 85-87z" fill="url(#linearGradient6)" style="isolation:isolate"/>
  <path d="m114.04 53.632c-43.354 0-78.504 35.035-78.504 78.25 0 43.216 35.148 78.25 78.504 78.25 0.97078 0 1.9329-0.0355 2.8945-0.0723-38.64-5.7787-68.338-38.635-68.338-78.178 0-39.542 29.698-72.397 68.332-78.176-0.95853-0.03522-1.921-0.07422-2.8887-0.07422zm13.842 3.293a74.955 74.955 0 0 0-74.955 74.955 74.955 74.955 0 0 0 74.955 74.955 74.955 74.955 0 0 0 74.955-74.955 74.955 74.955 0 0 0-74.955-74.955z" fill="#282828" opacity=".3" stroke-width="1.5312"/>
  <path d="m48.596 127.84c0-39.542 29.698-72.397 68.331-78.175-0.95852-0.03522-1.9216-0.07503-2.8894-0.07503-43.354 0-78.503 35.035-78.503 78.25 0 43.217 35.147 78.249 78.503 78.249 0.97078 0 1.9339-0.0352 2.8955-0.072-38.64-5.7787-68.337-38.634-68.337-78.177z" fill="#fabd2f" stroke-width="1.5312"/>
  <circle cx="127.88" cy="127.84" r="74.955" fill="#076678" style="paint-order:markers fill stroke"/>
  <circle cx="127.88" cy="135.9" r="50.938" fill="url(#linearGradient19-2)" opacity=".3" style="paint-order:markers fill stroke"/>
  <circle cx="127.88" cy="131.9" r="50.938" fill="url(#linearGradient19)" opacity=".3" style="paint-order:markers fill stroke"/>
  <path d="m55.074 110.02c-0.83297 2.7301-1.0378 5.536-1.5538 8.3917l148.72-5e-3c-0.5781-3.7812-0.94085-5.667-1.5532-8.3867zm-2.147 17.418c0.0049 1.4422 0.10254 4.3624 0.10254 4.3624s0.1938 2.7225 0.32094 4.0165l149.06-9e-3c0.15326-1.306 0.32064-4.0198 0.32064-4.0198s0.0992-2.9016 0.1031-4.3248zm1.9516 17.404c0.65897 3.0973 1.8681 6.6906 2.4763 8.3848h141.05c0.98891-2.708 1.7563-5.5456 2.4763-8.3848z" fill="#282828" opacity=".3" stroke-width="1.5312"/>
  <path d="m56.105 106.24c-0.83297 2.7301-1.4909 5.536-2.007 8.3917l147.56-5e-3c-0.51755-2.8526-1.1746-5.6535-2.0061-8.3867zm-3.0583 17.41c-0.08268 1.4424-0.12173 2.893-0.12173 4.3553 0 1.3536 0.04704 2.7002 0.11747 4.0338l149.69-3e-3c0.0704-1.3337 0.10299-2.6777 0.10299-4.0312 0-1.4623-0.0344-2.91-0.1171-4.3555zm1.0532 17.412c0.50223 2.8526 1.187 5.6516 2.0062 8.3848h143.55c0.81766-2.7301 1.5024-5.5291 2.0062-8.3848z" fill="#ebdbb2" stroke-width="1.5312"/>
  <path d="m114.04 49.585c-43.354 0-78.504 35.035-78.504 78.25 0 0.37727 0.02396 0.749 0.0293 1.125 0.56415-39.709 30.789-72.253 69.592-76.611 3.8133-1.1696 7.7399-2.0845 11.771-2.6875-0.95853-0.03522-1.921-0.07617-2.8887-0.07617zm-65.416 79.375c-0.0054 0.37594-0.02734 0.7478-0.02734 1.125 0 35.41 23.822 65.443 56.547 75.486 2.9214 0.32861 5.887 0.51367 8.8965 0.51367 0.97079 0 1.9329-0.0355 2.8945-0.0723-38.271-5.7236-67.752-38.015-68.311-77.053z" fill="#ebdbb2" opacity=".3" stroke-width="1.5312"/>
  <path d="m127.88 52.88a74.955 74.955 0 0 0-74.955 74.955 74.955 74.955 0 0 0 0.14062 1.9766 74.955 74.955 0 0 1 74.814-72.977 74.955 74.955 0 0 1 74.883 72.006 74.955 74.955 0 0 0 0.0723-1.0059 74.955 74.955 0 0 0-74.955-74.955z" fill="#ebdbb2" opacity=".1" style="paint-order:markers fill stroke"/>
  <path d="m91 12c-72 0-85 15-85 87v56c0 70 13 85 85 85h74c72 0 85-15 85-85v-56c0-72-13-87-85-87zm0 4h74c68 0 80 15 80 83v56c0 66-12 81-80 81h-74c-68 0-80-15-80-81v-56c0-68 12-83 80-83z" fill="url(#linearGradient31)" style="isolation:isolate"/>
</svg>
