<svg width="256" height="256" version="1.1" xmlns="http://www.w3.org/2000/svg">
  <defs>
    <linearGradient id="linearGradient31" x1=".5002" x2=".5002" y2="1" gradientTransform="matrix(244,0,0,228,5.986,12)" gradientUnits="userSpaceOnUse">
      <stop stop-color="#ebdbb2" stop-opacity=".2" offset="0"/>
      <stop stop-color="#ebdbb2" stop-opacity=".05" offset=".1"/>
      <stop stop-opacity="0" offset=".7036"/>
      <stop stop-opacity=".1" offset=".8975"/>
      <stop stop-opacity=".2" offset="1"/>
    </linearGradient>
    <linearGradient id="linearGradient6" x1="140" x2="140" y1="12" y2="240" gradientUnits="userSpaceOnUse">
      <stop stop-color="#689d6a" offset="0"/>
      <stop stop-color="#689d6a" offset="1"/>
    </linearGradient>
  </defs>
  <path d="m165 12c72 0 85 15 85 87v56c0 70-13 85-85 85h-74c-72 0-85-15-85-85v-56c0-72 13-87 85-87z" fill="url(#linearGradient6)" style="isolation:isolate"/>
  <path d="m128 64.72a15.19 15.19 0 0 0-15.19 15.19 15.19 15.19 0 0 0 15.19 15.19 15.19 15.19 0 0 0 15.19-15.19 15.19 15.19 0 0 0-15.19-15.19zm0 50.62a15.19 15.19 0 0 0-15.19 15.19 15.19 15.19 0 0 0 15.19 15.19 15.19 15.19 0 0 0 15.19-15.19 15.19 15.19 0 0 0-15.19-15.19zm75.93 0a15.19 15.19 0 0 0-15.19 15.19 15.19 15.19 0 0 0 15.19 15.19 15.19 15.19 0 0 0 15.19-15.19 15.19 15.19 0 0 0-15.19-15.19zm-151.9 50.62a15.19 15.19 0 0 0-15.19 15.19 15.19 15.19 0 0 0 15.19 15.19 15.19 15.19 0 0 0 15.19-15.19 15.19 15.19 0 0 0-15.19-15.19zm75.93 0a15.19 15.19 0 0 0-15.19 15.19 15.19 15.19 0 0 0 15.19 15.19 15.19 15.19 0 0 0 15.19-15.19 15.19 15.19 0 0 0-15.19-15.19z" fill="#282828" opacity=".3" stroke-width="5.062"/>
  <path d="m122.9 77.7v96.18h-70.87v10.12h80.99v-50.62h70.87v-10.12h-70.87v-45.56z" fill="#ebdbb2" opacity=".2" stroke-width="5.062"/>
  <path d="m122.9 74.85v96.18h-70.87v10.12h80.99v-50.62h70.87v-10.12h-70.87v-45.56z" fill="#504945" stroke-width="5.062"/>
  <path d="m122.9 74.849v2.8496h10.119v-2.8496zm10.119 45.561v2.8496h70.871v-2.8496zm-80.99 50.619v2.8516h70.871v-2.8516z" fill="#282828" opacity=".5"/>
  <path d="m128 59.66a15.19 15.19 0 0 0-15.19 15.19 15.19 15.19 0 0 0 15.19 15.19 15.19 15.19 0 0 0 15.19-15.19 15.19 15.19 0 0 0-15.19-15.19zm0 50.62a15.19 15.19 0 0 0-15.19 15.19 15.19 15.19 0 0 0 15.19 15.19 15.19 15.19 0 0 0 15.19-15.19 15.19 15.19 0 0 0-15.19-15.19zm75.93 0a15.19 15.19 0 0 0-15.19 15.19 15.19 15.19 0 0 0 15.19 15.19 15.19 15.19 0 0 0 15.19-15.19 15.19 15.19 0 0 0-15.19-15.19zm-151.9 50.62a15.19 15.19 0 0 0-15.19 15.19 15.19 15.19 0 0 0 15.19 15.19 15.19 15.19 0 0 0 15.19-15.19 15.19 15.19 0 0 0-15.19-15.19zm75.93 0a15.19 15.19 0 0 0-15.19 15.19 15.19 15.19 0 0 0 15.19 15.19 15.19 15.19 0 0 0 15.19-15.19 15.19 15.19 0 0 0-15.19-15.19z" fill="#fabd2f" stroke-width="5.062"/>
  <path d="m128 59.66a15.19 15.19 0 0 0-15.189 15.189 15.19 15.19 0 0 0 0.40039 2.5312 15.19 15.19 0 0 1 14.789-12.66 15.19 15.19 0 0 1 14.869 12.16 15.19 15.19 0 0 0 0.32031-2.0312 15.19 15.19 0 0 0-15.189-15.189zm0 50.619a15.19 15.19 0 0 0-15.189 15.191 15.19 15.19 0 0 0 0.40039 2.5293 15.19 15.19 0 0 1 14.789-12.66 15.19 15.19 0 0 1 14.869 12.162 15.19 15.19 0 0 0 0.32031-2.0312 15.19 15.19 0 0 0-15.189-15.191zm75.93 0a15.19 15.19 0 0 0-15.189 15.191 15.19 15.19 0 0 0 0.40039 2.5293 15.19 15.19 0 0 1 14.789-12.66 15.19 15.19 0 0 1 14.869 12.16 15.19 15.19 0 0 0 0.32031-2.0293 15.19 15.19 0 0 0-15.189-15.191zm-151.9 50.621a15.19 15.19 0 0 0-15.189 15.189 15.19 15.19 0 0 0 0.40039 2.5293 15.19 15.19 0 0 1 14.789-12.658 15.19 15.19 0 0 1 14.869 12.158 15.19 15.19 0 0 0 0.32226-2.0293 15.19 15.19 0 0 0-15.191-15.189zm75.932 0a15.19 15.19 0 0 0-15.191 15.189 15.19 15.19 0 0 0 0.40039 2.5293 15.19 15.19 0 0 1 14.791-12.658 15.19 15.19 0 0 1 14.867 12.158 15.19 15.19 0 0 0 0.32227-2.0293 15.19 15.19 0 0 0-15.189-15.189z" fill="#ebdbb2" opacity=".4"/>
  <path d="m91 12c-72 0-85 15-85 87v56c0 70 13 85 85 85h74c72 0 85-15 85-85v-56c0-72-13-87-85-87zm0 4h74c68 0 80 15 80 83v56c0 66-12 81-80 81h-74c-68 0-80-15-80-81v-56c0-68 12-83 80-83z" fill="url(#linearGradient31)" style="isolation:isolate"/>
</svg>
