<svg width="256" height="256" version="1.1" xmlns="http://www.w3.org/2000/svg">
  <defs>
    <linearGradient id="linearGradient31" x1=".5002" x2=".5002" y2="1" gradientTransform="matrix(244,0,0,228,5.986,12)" gradientUnits="userSpaceOnUse">
      <stop stop-color="#ebdbb2" stop-opacity=".2" offset="0"/>
      <stop stop-color="#ebdbb2" stop-opacity=".05" offset=".1"/>
      <stop stop-opacity="0" offset=".7036"/>
      <stop stop-opacity=".1" offset=".8975"/>
      <stop stop-opacity=".2" offset="1"/>
    </linearGradient>
    <linearGradient id="linearGradient6" x1="6" x2="116.01" y1="12" y2="212.14" gradientUnits="userSpaceOnUse">
      <stop stop-color="#b16286" offset="0"/>
      <stop stop-color="#8f3f71" offset="1"/>
    </linearGradient>
  </defs>
  <path d="m165 12c72 0 85 15 85 87v56c0 70-13 85-85 85h-74c-72 0-85-15-85-85v-56c0-72 13-87 85-87z" fill="url(#linearGradient6)" style="isolation:isolate"/>
  <path class="ColorScheme-Text" d="m127.76 46-67.963 27.438v43.355c0 74.405 67.963 99.207 67.963 99.207s68.447-24.802 68.447-99.207v-43.355zm0.24181 33.59c13.74 0 24.802 11.3 24.802 25.189v12.013h6.2005c3.435 0 6.2004 2.7654 6.2004 6.2004v37.203c0 3.435-2.7654 6.2004-6.2004 6.2004h-62.005c-3.435 0-6.2004-2.7654-6.2004-6.2004v-37.203c0-3.435 2.7654-6.2004 6.2004-6.2004h6.2004v-12.013c0-13.889 11.062-25.189 24.802-25.189zm0 12.401c-6.8701 0-12.401 5.5308-12.401 12.401v12.401h24.802v-12.401c0-6.8701-5.5308-12.401-12.401-12.401z" color="#ebdbb2" fill="#282828" opacity=".3" stroke-width="12.401"/>
  <path class="ColorScheme-Text" d="m127.76 41-67.963 27.438v43.355c0 74.405 67.963 99.207 67.963 99.207s68.447-24.802 68.447-99.207v-43.355zm0.24181 33.59c13.74 0 24.802 11.3 24.802 25.189v12.013h6.2005c3.435 0 6.2004 2.7654 6.2004 6.2004v37.203c0 3.435-2.7654 6.2004-6.2004 6.2004h-62.005c-3.435 0-6.2004-2.7654-6.2004-6.2004v-37.203c0-3.435 2.7654-6.2004 6.2004-6.2004h6.2005v-12.013c0-13.889 11.062-25.189 24.802-25.189zm0 12.401c-6.8701 0-12.401 5.5308-12.401 12.401v12.401h24.802v-12.401c0-6.8701-5.5308-12.401-12.401-12.401z" color="#ebdbb2" fill="currentColor" stroke-width="12.401"/>
  <path class="ColorScheme-Text" d="m127.76 41-67.963 27.438v43.355c0 0.23328 6.21e-4 0.46691 2e-3 0.69922v-39.055l67.963-27.438 68.445 27.438v-5zm0.24219 45.99c-6.8701 0-12.4 5.5321-12.4 12.402v12.4h2e-3v-7.4004c0-6.8702 5.5303-12.402 12.4-12.402 6.7947 0 12.279 5.4108 12.398 12.176v-4.7734c0-6.8701-5.5302-12.402-12.4-12.402zm24.803 17.465v7.3379h2e-3v-7.0137c0-0.10793-6.2e-4 -0.21661-2e-3 -0.32422zm12.4 18.377v32.363c0 3.435-2.7662 6.2012-6.2012 6.2012h-62.004c-3.3816 0-6.115-2.6805-6.1992-6.041v4.8398c0 3.435 2.7662 6.2012 6.2012 6.2012h62.004c3.435 0 6.2012-2.7662 6.2012-6.2012v-37.203c0-0.0534-6.2e-4 -0.10705-2e-3 -0.16016z" fill="#fbf1c7" opacity=".6"/>
  <path d="m91 12c-72 0-85 15-85 87v56c0 70 13 85 85 85h74c72 0 85-15 85-85v-56c0-72-13-87-85-87zm0 4h74c68 0 80 15 80 83v56c0 66-12 81-80 81h-74c-68 0-80-15-80-81v-56c0-68 12-83 80-83z" fill="url(#linearGradient31)" style="isolation:isolate"/>
</svg>
