<svg width="256" height="256" style="isolation:isolate" version="1.1" viewBox="0 0 256 256" xmlns="http://www.w3.org/2000/svg">
  <g filter="url(#Qms56Ta12u92gjiRMNGooKVkX6TEhpga)">
    <linearGradient id="_lgradient_20" x1=".567" x2=".567" y1="1.071" y2="-.742" gradientTransform="matrix(244.65 0 0 228.34 5.6817 11.95)" gradientUnits="userSpaceOnUse">
      <stop stop-color="#fabd2f" offset="0"/>
      <stop stop-color="#ebdbb2" offset="1"/>
    </linearGradient>
    <path d="m165.69 11.95c74.056 0 84.639 10.557 84.639 84.544v59.251c0 73.986-10.584 84.544-84.639 84.544h-75.37c-74.056 0-84.639-10.557-84.639-84.544v-59.251c0-73.987 10.584-84.544 84.639-84.544h75.37z" fill="url(#_lgradient_20)"/>
  </g>
  <g opacity=".4">
    <linearGradient id="_lgradient_21" x1=".517" x2=".517" y2="1" gradientTransform="matrix(244.65,0,0,228.34,5.68,11.95)" gradientUnits="userSpaceOnUse">
      <stop stop-color="#282828" offset="0"/>
      <stop stop-color="#ebdbb2" stop-opacity=".098" offset=".125"/>
      <stop stop-color="#282828" stop-opacity=".098" offset=".925"/>
      <stop stop-color="#282828" stop-opacity=".498" offset="1"/>
    </linearGradient>
    <path d="m165.07 11.951c4.328-0.009825 8.6559 0.039299 12.984 0.13755 3.8755 0.078598 7.751 0.22597 11.626 0.45194 3.4525 0.1965 6.9051 0.48141 10.348 0.85476 3.0591 0.33404 6.1182 0.78598 9.1477 1.346 2.7148 0.50106 5.4001 1.1397 8.0461 1.9158 2.4 0.69756 4.7509 1.5621 7.0231 2.5839 2.1148 0.94318 4.1411 2.0632 6.0591 3.3502 1.8394 1.2379 3.5607 2.6527 5.1345 4.2148 1.564 1.572 2.9804 3.2815 4.2198 5.1187 1.2886 1.9158 2.4099 3.9397 3.364 6.0422 1.023 2.2793 1.8886 4.6176 2.5968 7.0051 0.77706 2.6429 1.4164 5.325 1.9181 8.0367 0.56066 3.026 1.0131 6.0717 1.3476 9.1272 0.37378 3.4387 0.65903 6.8773 0.85575 10.326 0.22624 3.8611 0.37378 7.7321 0.46231 11.593 0.088537 4.3229 0.13771 8.6458 0.12788 12.959v58.212c0.009831 4.3229-0.039339 8.636-0.12788 12.959-0.088523 3.871-0.23606 7.7321-0.46231 11.593-0.19672 3.4485-0.48197 6.897-0.85575 10.326-0.33443 3.0555-0.7869 6.111-1.3476 9.137-0.50166 2.7018-1.141 5.384-1.9181 8.0269-0.70821 2.3874-1.5738 4.7355-2.5968 7.0051-0.9541 2.1123-2.0754 4.1264-3.364 6.0422-1.2394 1.8372-2.6558 3.5566-4.2198 5.1187-1.5738 1.5621-3.2952 2.9769-5.1345 4.2148-1.9181 1.287-3.9443 2.4071-6.0591 3.3502-2.2722 1.0218-4.623 1.8864-7.0231 2.5937-2.646 0.77616-5.3313 1.4148-8.0461 1.906-3.0296 0.56984-6.0886 1.012-9.1477 1.346-3.4427 0.37333-6.8952 0.65826-10.348 0.85475-3.8755 0.22597-7.751 0.37335-11.626 0.46177-4.328 0.088419-8.6559 0.13755-12.984 0.12773h-74.126c-4.328 0.009819-8.6559-0.039308-12.984-0.12773-3.8755-0.08842-7.751-0.2358-11.626-0.46177-3.4525-0.19649-6.9051-0.48142-10.348-0.85475-3.0591-0.33405-6.1182-0.77616-9.1477-1.346-2.7148-0.49124-5.4001-1.1298-8.0461-1.906-2.4-0.70737-4.7509-1.572-7.0231-2.5937-2.1148-0.94317-4.1411-2.0632-6.0591-3.3502-1.8394-1.2379-3.5607-2.6527-5.1345-4.2148-1.564-1.5621-2.9804-3.2815-4.2198-5.1187-1.2886-1.9158-2.4099-3.9299-3.364-6.0422-1.023-2.2695-1.8886-4.6176-2.5968-7.0051-0.77706-2.6429-1.4164-5.325-1.9181-8.0269-0.56067-3.026-1.0131-6.0815-1.3476-9.137-0.37378-3.4289-0.65903-6.8773-0.85576-10.326-0.22623-3.8611-0.37378-7.7223-0.4623-11.593-0.088526-4.3229-0.13771-8.636-0.12787-12.959v-58.212c-0.009836-4.3131 0.039345-8.636 0.12787-12.959 0.088527-3.8611 0.23607-7.7321 0.4623-11.593 0.19672-3.4485 0.48198-6.8872 0.85576-10.326 0.33443-3.0555 0.7869-6.1012 1.3476-9.1272 0.50165-2.7116 1.141-5.3938 1.9181-8.0367 0.70821-2.3874 1.5738-4.7257 2.5968-7.0051 0.95412-2.1025 2.0755-4.1264 3.364-6.0422 1.2394-1.8372 2.6558-3.5467 4.2198-5.1187 1.5738-1.5621 3.2951-2.9769 5.1345-4.2148 1.9181-1.287 3.9443-2.4071 6.0591-3.3502 2.2722-1.0218 4.623-1.8864 7.0231-2.5839 2.646-0.77616 5.3313-1.4148 8.0461-1.9158 3.0296-0.56001 6.0886-1.012 9.1477-1.346 3.4427-0.37334 6.8952-0.65826 10.348-0.85476 3.8755-0.22597 7.751-0.37334 11.626-0.45194 4.3279-0.098248 8.6559-0.14737 12.984-0.13755h74.126zm0.009846 4.0085c4.2984-0.009825 8.5969 0.039299 12.895 0.12772 3.8263 0.088423 7.6526 0.23579 11.479 0.45194 3.3837 0.1965 6.7674 0.47159 10.131 0.84493 2.9705 0.31439 5.9313 0.74668 8.8625 1.2969 2.5771 0.47159 5.1345 1.0807 7.6526 1.8176 2.223 0.64844 4.3968 1.4541 6.5018 2.3972 1.9082 0.85476 3.7378 1.8667 5.469 3.026 1.623 1.0906 3.1378 2.3383 4.5247 3.7236s2.6361 2.8983 3.7378 4.5194c1.1607 1.7292 2.1738 3.5467 3.0296 5.4429 0.94427 2.1123 1.7509 4.2836 2.4 6.4942 0.74756 2.5151 1.3476 5.0598 1.8295 7.6338 0.541 2.9278 0.9738 5.8752 1.2984 8.8423 0.37378 3.3601 0.6492 6.73 0.84592 10.11 0.2164 3.8218 0.37378 7.6338 0.45246 11.456 0.088538 4.2934 0.13771 8.577 0.13771 12.87v58.212c0 4.2934-0.049169 8.577-0.13771 12.87-0.078677 3.8218-0.23606 7.6437-0.45246 11.456-0.19672 3.3797-0.47214 6.7496-0.84592 10.12-0.3246 2.9573-0.7574 5.9047-1.2984 8.8325-0.48197 2.5741-1.082 5.1187-1.8295 7.6339-0.64918 2.2204-1.4558 4.3819-2.4 6.4942-0.85576 1.8962-1.8689 3.7236-3.0296 5.4429-1.1017 1.6309-2.3509 3.1439-3.7378 4.5292-1.3869 1.3755-2.9017 2.6232-4.5247 3.7138-1.7312 1.1593-3.5607 2.1713-5.469 3.026-2.105 0.953-4.2788 1.7488-6.5018 2.3972-2.5181 0.73686-5.0755 1.346-7.6526 1.8176-2.9312 0.55018-5.8919 0.98248-8.8625 1.3067-3.364 0.36351-6.7477 0.64844-10.131 0.8351-3.8263 0.21615-7.6526 0.37335-11.479 0.45195-4.2985 0.098254-8.5969 0.13755-12.895 0.13755h-74.146c-4.2984 0-8.5969-0.039292-12.895-0.13755-3.8263-0.0786-7.6526-0.2358-11.479-0.45195-3.3837-0.18666-6.7673-0.47158-10.131-0.8351-2.9706-0.32422-5.9313-0.75651-8.8625-1.3067-2.5771-0.47158-5.1345-1.0807-7.6526-1.8176-2.223-0.64842-4.3968-1.4442-6.5018-2.3972-1.9082-0.85475-3.7378-1.8667-5.469-3.026-1.623-1.0906-3.1378-2.3383-4.5247-3.7138-1.3869-1.3853-2.6361-2.8983-3.7378-4.5292-1.1607-1.7193-2.1738-3.5467-3.0296-5.4429-0.94428-2.1123-1.7509-4.2738-2.4-6.4942-0.74756-2.5151-1.3476-5.0598-1.8295-7.6339-0.541-2.9278-0.97379-5.8752-1.2984-8.8325-0.37378-3.3699-0.64919-6.7398-0.84592-10.12-0.2164-3.812-0.37378-7.6339-0.45247-11.456-0.088526-4.2934-0.13771-8.577-0.13771-12.87v-58.212c0-4.2934 0.049181-8.577 0.13771-12.87 0.07869-3.8218 0.23607-7.6338 0.45247-11.456 0.19672-3.3797 0.47214-6.7496 0.84592-10.11 0.3246-2.9671 0.75739-5.9145 1.2984-8.8423 0.48198-2.5741 1.082-5.1187 1.8295-7.6338 0.64919-2.2106 1.4558-4.3818 2.4-6.4942 0.85575-1.8962 1.8689-3.7138 3.0296-5.4429 1.1017-1.6211 2.3509-3.1341 3.7378-4.5194s2.9017-2.633 4.5247-3.7236c1.7312-1.1593 3.5607-2.1713 5.469-3.026 2.105-0.94318 4.2788-1.7488 6.5018-2.3972 2.5181-0.73686 5.0755-1.346 7.6526-1.8176 2.9312-0.55019 5.8919-0.98248 8.8625-1.2969 3.364-0.37334 6.7477-0.64843 10.131-0.84493 3.8263-0.21614 7.6526-0.36352 11.479-0.45194 4.2984-0.088423 8.5969-0.13755 12.895-0.12772h74.146z" fill="url(#_lgradient_21)" fill-rule="evenodd" opacity=".2"/>
  </g>
  <g filter="url(#pNEvGLF8QK3dhqbOnAkRJDcnKL8tSqed)" opacity=".4">
    <path d="m208.83 162.95c-1.3824 1.0716-3.0439 1.8075-4.935 1.8071l-147.07 0.017345c-4.5274-0.001798-8.1734-3.6414-8.1743-8.1666l-0.005657-65.365c-8.49e-4 -0.30602 0.059038-0.59881 0.092858-0.89937-1.927 1.492-3.2444 3.7214-3.2425 6.3558l0.005657 65.365c8.7e-4 4.5253 3.6469 8.1648 8.1732 8.166l147.07-0.017345c4.2113 0.001199 7.6362-3.1722 8.0847-7.2635l0.001092 6.3e-4z"/>
  </g>
  <defs>
    <linearGradient id="_lgradient_22" x1=".993" x2=".002" y1=".988" y2=".193">
      <stop stop-color="#3c3836" offset="0"/>
      <stop stop-color="#665c54" offset="1"/>
    </linearGradient>
  </defs>
  <path d="m55.247 85.81 147.08-0.012631c4.51-3.87e-4 8.1719 3.6608 8.1722 8.1708l0.005614 65.366c3.87e-4 4.51-3.6608 8.1719-8.1708 8.1722l-147.08 0.01263c-4.51 3.88e-4 -8.1719-3.6608-8.1722-8.1708l-0.005613-65.366c-3.88e-4 -4.51 3.6608-8.1719 8.1708-8.1722z" fill="url(#_lgradient_22)"/>
  <g opacity=".2">
    <path d="m75.544 110.47c-2.4432 2.25e-4 -4.41 1.9673-4.4098 4.4106l8.7e-4 8.8202-8.8202 8.68e-4c-2.447 0.006037-4.4125 1.9705-4.4127 4.4146l8.68e-4 8.8202c2.25e-4 2.4432 1.9673 4.41 4.4106 4.4098l8.8202-8.68e-4 8.7e-4 8.8202c1.91e-4 2.4433 1.9673 4.41 4.4106 4.4098l8.8202-8.71e-4c2.4432-2.25e-4 4.41-1.9673 4.4098-4.4106l-8.7e-4 -8.8202 8.8202-8.69e-4c2.4432-2.23e-4 4.41-1.9673 4.4098-4.4106l-8.69e-4 -8.8202c-2.25e-4 -2.4432-1.9673-4.41-4.4106-4.4098l-8.8202 8.7e-4 -8.7e-4 -8.8202c-2.26e-4 -2.4432-1.9673-4.41-4.4106-4.4098l-8.8202 8.71e-4 0.002893-0.004004z"/>
  </g>
  <path d="m77.119 107.74c-2.4432 2.23e-4 -4.41 1.9673-4.4098 4.4106l8.68e-4 8.8202-8.8202 8.69e-4c-2.4432 2.23e-4 -4.41 1.9673-4.4098 4.4106l8.71e-4 8.8202c2.23e-4 2.4432 1.9673 4.41 4.4106 4.4098l8.8202-8.69e-4 8.68e-4 8.8202c1.92e-4 2.4433 1.9673 4.41 4.4106 4.4098l8.8202-8.7e-4c2.4432-2.23e-4 4.41-1.9673 4.4098-4.4106l-8.7e-4 -8.8202 8.8202-8.68e-4c2.4432-2.26e-4 4.41-1.9673 4.4098-4.4106l-8.71e-4 -8.8202c-2.23e-4 -2.4432-1.9673-4.41-4.4106-4.4098l-8.8212 0.007585-0.001034-8.8174c2.78e-4 -2.4441-1.9642-4.4146-4.408-4.414l-8.8202 8.71e-4 -0.00143-0.005336z" fill="#bdae93"/>
  <linearGradient id="_lgradient_23" x1=".5" x2=".507" y1="1" y2=".001" gradientTransform="matrix(18.901 -.00158 .00158 18.901 179.18 107.73)" gradientUnits="userSpaceOnUse">
    <stop stop-color="#cc241d" offset="0"/>
    <stop stop-color="#fb4934" offset="1"/>
  </linearGradient>
  <path d="m179.18 117.18c-4.36e-4 -5.2159 4.2338-9.4508 9.4497-9.4513s9.4508 4.2338 9.4513 9.4497-4.2338 9.4508-9.4497 9.4513-9.4508-4.2338-9.4513-9.4497z" fill="url(#_lgradient_23)"/>
  <linearGradient id="_lgradient_24" x1=".5" x2=".507" y1="1" y2=".001" gradientTransform="matrix(18.901 -.00158 .00158 18.901 153.98 107.73)" gradientUnits="userSpaceOnUse">
    <stop stop-color="#cc241d" offset="0"/>
    <stop stop-color="#fb4934" offset="1"/>
  </linearGradient>
  <path d="m153.98 117.18c-4.36e-4 -5.2159 4.2338-9.4508 9.4497-9.4513s9.4508 4.2338 9.4513 9.4497-4.2338 9.4508-9.4497 9.4513-9.4508-4.2338-9.4513-9.4497z" fill="url(#_lgradient_24)"/>
  <linearGradient id="_lgradient_25" x1=".5" x2=".5" y1="1" gradientTransform="matrix(18.901 -.00158 .00158 18.901 179.19 132.93)" gradientUnits="userSpaceOnUse">
    <stop stop-color="#fe8019" offset="0"/>
    <stop stop-color="#fabd2f" offset="1"/>
  </linearGradient>
  <path d="m179.19 142.38c-4.36e-4 -5.2159 4.2338-9.4508 9.4497-9.4513 5.2159-4.35e-4 9.4508 4.2338 9.4513 9.4497s-4.2338 9.4508-9.4497 9.4513-9.4508-4.2338-9.4513-9.4497z" fill="url(#_lgradient_25)"/>
  <linearGradient id="_lgradient_26" x1=".5" x2=".5" y1="1" gradientTransform="matrix(18.901 -.00158 .00158 18.901 153.98 132.94)" gradientUnits="userSpaceOnUse">
    <stop stop-color="#fe8019" offset="0"/>
    <stop stop-color="#fabd2f" offset="1"/>
  </linearGradient>
  <path d="m153.98 142.39c-4.36e-4 -5.2159 4.2338-9.4508 9.4497-9.4513 5.2159-4.36e-4 9.4508 4.2338 9.4513 9.4497 4.36e-4 5.2159-4.2338 9.4508-9.4497 9.4513s-9.4508-4.2338-9.4513-9.4497z" fill="url(#_lgradient_26)"/>
  <g opacity=".1">
    <path d="m206.56 86.962c-0.33695-0.20412-0.69207-0.38555-1.0592-0.54036-0.97738-0.41141-2.0577-0.64752-3.1917-0.64888l-147.07 0.017156c-3.5935 0.002019-6.5821 2.3195-7.6694 5.5329 1.482-1.7046 3.6413-2.8033 6.0946-2.8047l147.07-0.017156c1.1341 0.001359 2.2144 0.23747 3.1917 0.64888 2.937 1.2385 4.9816 4.1266 4.9849 7.5236l0.002296 65.359c7.7e-5 0.89282-0.19403 1.7199-0.46732 2.508 1.2476-1.4027 2.0423-3.1961 2.0422-5.2362l-0.002297-65.359c-0.002882-2.9723-1.567-5.5544-3.9257-6.9832z" fill="#ebdbb2"/>
  </g>
</svg>
