<svg width="256" height="256" style="isolation:isolate" version="1.1" xmlns="http://www.w3.org/2000/svg" xmlns:xlink="http://www.w3.org/1999/xlink">
  <g transform="translate(.007136 -.1198)" filter="url(#a)">
    <linearGradient id="b" x1=".5002" x2=".5002" y2="1" gradientTransform="matrix(244,0,0,228,5.981,12.12)" gradientUnits="userSpaceOnUse">
      <stop stop-color="#ebdbb2" offset="0"/>
      <stop stop-color="#ebdbb2" offset="1"/>
    </linearGradient>
    <path d="m165 12.12c72 0 85 15 85 87v56c0 70-13 85-85 85h-74c-72 0-85-15-85-85v-56c0-72 13-87 85-87z" fill="url(#b)"/>
  </g>
  <g transform="matrix(1.467 0 0 1.467 34.08 33.42)" enable-background="new" stroke-width=".576">
    <g transform="translate(0 -170.8)" stroke-width=".576">
      <g stroke-width=".576">
        <g stroke-width=".576">
          <rect x="15.73" y="174.8" width="96.54" height="118.5" rx="5.053" ry="4.618" fill="#ebdbb2" style="paint-order:normal"/>
          <rect x="20.12" y="181.3" width="87.77" height="107.5" rx="2.304" ry="2.305" enable-background="new" fill="#076678" style="paint-order:normal"/>
          <rect x="20.12" y="179.1" width="87.77" height="107.5" rx="2.304" ry="2.305" enable-background="new" fill="#458588" style="paint-order:normal"/>
          <rect x="20.12" y="214.3" width="87.77" height="2.194" rx="0" ry="0" enable-background="new" fill="#076678" style="paint-order:normal"/>
          <rect x="20.12" y="249.4" width="87.77" height="2.194" rx="0" ry="0" enable-background="new" fill="#076678" style="paint-order:normal"/>
          <g id="g1088" transform="matrix(1.097 0 0 1.097 -6.212 -22.71)" stroke-width=".525">
            <path d="m55 196h18c1.662 0 3 1 3 3v5h-3.969l-0.03125-4h-16l0.03125 4h-4.031v-5c0-1.662 1.338-3 3-3z" fill="url(#linearGradient1038)" style="paint-order:normal"/>
            <rect x="52" y="202" width="24" height="4" rx=".7876" ry=".7876" fill="#282828" opacity=".1"/>
            <path d="m55 200c-1.662 0-3 1.338-3 3v1h4v-2h16v2h4v-1c0-1.662-1.338-3-3-3z" fill="url(#linearGradient1040)"/>
            <rect x="56" y="202" width="16" height="2" fill="#282828" opacity=".1"/>
          </g>
          <use transform="translate(0 35.11)" width="100%" height="100%" stroke-width=".525" xlink:href="#g1088"/>
          <use transform="translate(0 70.21)" width="100%" height="100%" stroke-width=".525" xlink:href="#g1088"/>
        </g>
      </g>
    </g>
  </g>
  <defs>
    <linearGradient id="linearGradient31" x1=".5002" x2=".5002" y2="1" gradientTransform="matrix(244,0,0,228,5.988,12.12)" gradientUnits="userSpaceOnUse">
      <stop stop-color="#d5c4a1" offset="0"/>
      <stop stop-color="#d5c4a1" stop-opacity=".09804" offset=".1"/>
      <stop stop-color="#282828" stop-opacity=".1" offset=".9"/>
      <stop stop-color="#282828" stop-opacity=".4" offset="1"/>
    </linearGradient>
    <linearGradient id="linearGradient1038" x1="50" x2="74" y1="238" y2="238" gradientTransform="translate(2,-22)" gradientUnits="userSpaceOnUse">
      <stop stop-color="#ebdbb2" offset="0"/>
      <stop stop-color="#ebdbb2" offset=".04545"/>
      <stop stop-color="#ebdbb2" offset=".09091"/>
      <stop stop-color="#ebdbb2" offset=".9091"/>
      <stop stop-color="#ebdbb2" offset=".9545"/>
      <stop stop-color="#bdae93" offset="1"/>
    </linearGradient>
    <linearGradient id="linearGradient1040" x1="65" x2="65" y1="204" y2="200" gradientUnits="userSpaceOnUse">
      <stop stop-color="#a89984" offset="0"/>
      <stop stop-color="#bdae93" offset="1"/>
    </linearGradient>
  </defs>
  <g transform="translate(.007189 -.1198)" opacity=".5">
    <path d="m91 12.12c-72 0-85 15-85 87v56c0 70 13 85 85 85h74c72 0 85-15 85-85v-56c0-72-13-87-85-87zm0 4h74c68 0 80 15 80 83v56c0 66-12 81-80 81h-74c-68 0-80-15-80-81v-56c0-68 12-83 80-83z" fill="url(#linearGradient31)" opacity="1"/>
  </g>
</svg>
