<svg width="256" height="256" version="1.1" xmlns="http://www.w3.org/2000/svg">
  <defs>
    <linearGradient id="linearGradient31" x1=".5002" x2=".5002" y2="1" gradientTransform="matrix(244,0,0,228,5.986,12)" gradientUnits="userSpaceOnUse">
      <stop stop-color="#ebdbb2" stop-opacity=".2" offset="0"/>
      <stop stop-color="#ebdbb2" stop-opacity=".05" offset=".1"/>
      <stop stop-opacity="0" offset=".7036"/>
      <stop stop-opacity=".1" offset=".8975"/>
      <stop stop-opacity=".2" offset="1"/>
    </linearGradient>
    <linearGradient id="linearGradient6" x1="140" x2="140" y1="12" y2="240" gradientUnits="userSpaceOnUse">
      <stop stop-color="#504945" offset="0"/>
      <stop stop-color="#3c3836" offset="1"/>
    </linearGradient>
  </defs>
  <path d="m165 12c72 0 85 15 85 87v56c0 70-13 85-85 85h-74c-72 0-85-15-85-85v-56c0-72 13-87 85-87z" fill="url(#linearGradient6)" style="isolation:isolate"/>
  <path d="m128 45.915a84.299 84.299 0 0 0-84.299 84.299h25.29a59.009 59.009 0 0 1 59.009-59.009zm59.009 84.299a59.009 59.009 0 0 1-54.794 58.853v25.232a84.299 84.299 0 0 0 80.084-84.085z" fill="#282828" opacity=".3" stroke-width="4.2149"/>
  <path d="m128 41.701a84.299 84.299 0 0 0-84.299 84.299h25.29a59.009 59.009 0 0 1 59.009-59.009zm59.009 84.299a59.009 59.009 0 0 1-54.794 58.853v25.232a84.299 84.299 0 0 0 80.084-84.085z" fill="#8f3f71" stroke-width="4.2149"/>
  <path d="m128 62.775c-37.246 0-67.439 30.193-67.439 67.439 0 37.246 30.193 67.439 67.439 67.439 37.246 0 67.439-30.193 67.439-67.439h-67.439v-42.149z" fill="#282828" opacity=".3" stroke-width="4.2149"/>
  <path d="m128 58.561c-37.246 0-67.439 30.193-67.439 67.439 0 37.246 30.193 67.439 67.439 67.439 37.246 0 67.439-30.193 67.439-67.439h-67.439v-42.149z" fill="#458588" stroke-width="4.2149"/>
  <path d="m128 79.635a50.579 50.579 0 0 0-50.579 50.579 50.579 50.579 0 0 0 50.579 50.579 50.579 50.579 0 0 0 50.579-50.579 50.579 50.579 0 0 0-50.579-50.579z" fill="#282828" opacity=".3" stroke-width="4.2149"/>
  <path d="m128 75.421a50.579 50.579 0 0 0-50.579 50.579 50.579 50.579 0 0 0 50.579 50.579 50.579 50.579 0 0 0 50.579-50.579 50.579 50.579 0 0 0-50.579-50.579z" fill="#8ec07c" stroke-width="4.2149"/>
  <path d="m128 96.494a33.72 33.72 0 0 1 33.72 33.72 33.72 33.72 0 0 1-33.72 33.72 33.72 33.72 0 0 1-33.72-33.72 33.72 33.72 0 0 1 33.72-33.72z" fill="#282828" opacity=".3" stroke-width="4.2149"/>
  <path d="m128 92.28a33.72 33.72 0 0 1 33.72 33.72 33.72 33.72 0 0 1-33.72 33.72 33.72 33.72 0 0 1-33.72-33.72 33.72 33.72 0 0 1 33.72-33.72z" fill="#ebdbb2" stroke-width="4.2149"/>
  <path d="m128 41.701c-46.557 0-84.299 37.742-84.299 84.299h0.14837c2.2449-44.846 39.248-80.061 84.15-80.084z" fill="#ebdbb2" opacity=".2" stroke-width="4.2149"/>
  <path d="m128 58.561c-37.246 0-67.439 30.193-67.439 67.439 0 0.71116 0.08514 1.4016 0.10706 2.1075 1.1227-36.262 30.798-65.332 67.332-65.332z" fill="#ebdbb2" opacity=".2" stroke-width="4.2149"/>
  <path d="m128 75.421a50.579 50.579 0 0 0-50.579 50.579 50.579 50.579 0 0 0 0.082193 1.7123 50.579 50.579 0 0 1 50.497-48.077 50.579 50.579 0 0 1 50.497 48.867 50.579 50.579 0 0 0 0.0823-2.5026 50.579 50.579 0 0 0-50.579-50.579z" fill="#ebdbb2" opacity=".2" stroke-width="4.2149"/>
  <path d="m91 12c-72 0-85 15-85 87v56c0 70 13 85 85 85h74c72 0 85-15 85-85v-56c0-72-13-87-85-87zm0 4h74c68 0 80 15 80 83v56c0 66-12 81-80 81h-74c-68 0-80-15-80-81v-56c0-68 12-83 80-83z" fill="url(#linearGradient31)" style="isolation:isolate"/>
</svg>
