<svg width="256" height="256" version="1.1" xmlns="http://www.w3.org/2000/svg" xmlns:xlink="http://www.w3.org/1999/xlink">
  <linearGradient id="b" x1=".5002" x2=".5002" y2="1" gradientTransform="matrix(244,0,0,228,5.981,12)" gradientUnits="userSpaceOnUse">
    <stop stop-color="#ebdbb2" offset="0"/>
    <stop stop-color="#d5c4a1" offset="1"/>
  </linearGradient>
  <defs>
    <linearGradient id="linearGradient10" x1="128" x2="128" y1="12" y2="240" gradientUnits="userSpaceOnUse">
      <stop stop-color="#282828" stop-opacity=".1" offset="0"/>
      <stop stop-color="#282828" stop-opacity=".05" offset=".1966"/>
      <stop stop-color="#282828" stop-opacity="0" offset=".50485"/>
      <stop stop-color="#282828" stop-opacity=".1" offset=".74636"/>
      <stop stop-color="#282828" stop-opacity=".2" offset="1"/>
    </linearGradient>
    <linearGradient id="linearGradient23" x1="50" x2="74" y1="238" y2="238" gradientTransform="matrix(1.6093,0,0,1.6093,28.535,-179.07)" gradientUnits="userSpaceOnUse" xlink:href="#linearGradient1038-9"/>
    <linearGradient id="linearGradient1038-9" x1="50" x2="74" y1="238" y2="238" gradientTransform="matrix(1.6093,0,0,1.6093,28.535,-230.83)" gradientUnits="userSpaceOnUse">
      <stop stop-color="#ebdbb2" offset="0"/>
      <stop stop-color="#ebdbb2" offset=".04545"/>
      <stop stop-color="#ebdbb2" offset=".09091"/>
      <stop stop-color="#ebdbb2" offset=".9091"/>
      <stop stop-color="#ebdbb2" offset=".9545"/>
      <stop stop-color="#bdae93" offset="1"/>
    </linearGradient>
    <linearGradient id="linearGradient24" x1="65" x2="65" y1="204" y2="200" gradientTransform="matrix(1.6093,0,0,1.6093,25.316,-143.67)" gradientUnits="userSpaceOnUse" xlink:href="#linearGradient1040-6"/>
    <linearGradient id="linearGradient1040-6" x1="65" x2="65" y1="204" y2="200" gradientTransform="matrix(1.6093,0,0,1.6093,25.316,-195.42)" gradientUnits="userSpaceOnUse">
      <stop stop-color="#a89984" offset="0"/>
      <stop stop-color="#bdae93" offset="1"/>
    </linearGradient>
    <linearGradient id="linearGradient28" x1="65" x2="65" y1="204" y2="200" gradientTransform="matrix(1.6093,0,0,1.6093,25.316,-195.42)" gradientUnits="userSpaceOnUse" xlink:href="#linearGradient1040-6"/>
    <linearGradient id="linearGradient21" x1="50" x2="74" y1="238" y2="238" gradientTransform="matrix(1.6093,0,0,1.6093,28.535,-284.8)" gradientUnits="userSpaceOnUse" xlink:href="#linearGradient1038-9"/>
    <linearGradient id="linearGradient16" x1="50" x2="74" y1="238" y2="238" gradientTransform="matrix(1.6093,0,0,1.6093,28.535,-230.83)" gradientUnits="userSpaceOnUse" xlink:href="#linearGradient1038-9"/>
  </defs>
  <path d="m165 12c72 0 85 15 85 87v56c0 70-13 85-85 85h-74c-72 0-85-15-85-85v-56c0-72 13-87 85-87z" fill="url(#b)" style="isolation:isolate"/>
  <rect x="63.628" y="55.298" width="128.76" height="157.7" rx="3.38" ry="3.3814" enable-background="new" fill="#282828" opacity=".15" stroke-width="1.467" style="isolation:isolate;paint-order:normal"/>
  <rect x="63.628" y="47.39" width="128.76" height="157.7" rx="3.38" ry="3.3814" enable-background="new" fill="#458588" stroke-width="1.467" style="isolation:isolate;paint-order:normal"/>
  <path d="m67.008 47.391c-1.8725 0-3.3789 1.5075-3.3789 3.3809v4.9082c0-1.8733 1.5064-3.3828 3.3789-3.3828h122c1.8725 0 3.3809 1.5095 3.3809 3.3828v-4.9082c0-1.8733-1.5084-3.3809-3.3809-3.3809z" fill="#ebdbb2" opacity=".2" stroke-width="1.467" style="isolation:isolate;paint-order:normal"/>
  <path d="m63.629 99.027v3.2187h128.76v-3.2187h-128.76zm0 51.492v3.2188h128.76v-3.2188h-128.76zm0 51.189v3.2266c0 1.8733 1.5064 3.3809 3.3789 3.3809h122c1.8725 0 3.3809-1.5076 3.3809-3.3809v-3.2266c0 1.8733-1.5083 3.3809-3.3809 3.3809h-122c-1.8725 0-3.3789-1.5076-3.3789-3.3809z" fill="#076678" style="isolation:isolate;paint-order:normal"/>
  <path d="m113.83 171.75h28.967c2.6746 0 4.8279 1.6093 4.8279 4.8279v8.0465h-6.3873l-0.0503-6.4372h-25.749l0.0503 6.4372h-6.4871v-8.0465c0-2.6746 2.1532-4.8279 4.8279-4.8279z" fill="url(#linearGradient23)" stroke-width="1.6093" style="isolation:isolate;paint-order:normal"/>
  <rect x="109" y="181.41" width="38.623" height="6.4372" rx="1.2675" ry="1.2675" fill="#282828" opacity=".1" stroke-width="1.6093" style="isolation:isolate"/>
  <path d="m113.83 178.19c-2.6747 0-4.8279 2.1532-4.8279 4.8279v1.6093h6.4372v-3.2186h25.749v3.2186h6.4372v-1.6093c0-2.6747-2.1532-4.8279-4.8279-4.8279z" fill="url(#linearGradient24)" stroke-width="1.6093" style="isolation:isolate"/>
  <rect x="115.44" y="181.41" width="25.749" height="3.2186" fill="#282828" opacity=".1" stroke-width="1.6093" style="isolation:isolate"/>
  <path d="m113.83 120h28.967c2.6746 0 4.8279 1.6093 4.8279 4.8279v8.0465h-6.3873l-0.0503-6.4372h-25.749l0.0503 6.4372h-6.4871v-8.0465c0-2.6746 2.1532-4.8279 4.8279-4.8279z" fill="url(#linearGradient16)" stroke-width="1.6093" style="isolation:isolate;paint-order:normal"/>
  <rect x="109" y="129.66" width="38.623" height="6.4372" rx="1.2675" ry="1.2675" fill="#282828" opacity=".1" stroke-width="1.6093" style="isolation:isolate"/>
  <path d="m113.83 126.44c-2.6747 0-4.8279 2.1532-4.8279 4.8279v1.6093h6.4372v-3.2186h25.749v3.2186h6.4372v-1.6093c0-2.6747-2.1532-4.8279-4.8279-4.8279z" fill="url(#linearGradient28)" stroke-width="1.6093" style="isolation:isolate"/>
  <rect x="115.44" y="129.66" width="25.749" height="3.2186" fill="#282828" opacity=".1" stroke-width="1.6093" style="isolation:isolate"/>
  <path d="m113.83 66.024h28.967c2.6746 0 4.8279 1.6093 4.8279 4.8279v8.0465h-6.3873l-0.0503-6.4372h-25.749l0.0503 6.4372h-6.4871v-8.0465c0-2.6746 2.1532-4.8279 4.8279-4.8279z" fill="url(#linearGradient21)" stroke-width="1.6093" style="isolation:isolate;paint-order:normal"/>
  <rect x="109" y="75.679" width="38.623" height="6.4372" rx="1.2675" ry="1.2675" fill="#282828" opacity=".1" stroke-width="1.6093" style="isolation:isolate"/>
  <path d="m113.83 72.461c-2.6747 0-4.8279 2.1532-4.8279 4.8279v1.6093h6.4372v-3.2186h25.749v3.2186h6.4372v-1.6093c0-2.6747-2.1532-4.8279-4.8279-4.8279z" fill="#a89984" stroke-width="1.6093" style="isolation:isolate"/>
  <rect x="115.44" y="75.679" width="25.749" height="3.2186" fill="#282828" opacity=".1" stroke-width="1.6093" style="isolation:isolate"/>
  <path d="m91 12c-72 0-85 15-85 87v56c0 70 13 85 85 85h74c72 0 85-15 85-85v-56c0-72-13-87-85-87zm0 5h74c35.653 0 55.307 3.9448 65.895 14.965 10.588 11.02 14.105 31.336 14.105 67.035v56c0 34.69-3.4936 54.457-14.07 65.25-10.577 10.793-30.277 14.75-65.93 14.75h-74c-35.653 0-55.353-3.9574-65.93-14.75-10.577-10.793-14.07-30.56-14.07-65.25v-56c0-35.699 3.5176-56.015 14.105-67.035 10.588-11.02 30.242-14.965 65.895-14.965z" fill="url(#linearGradient10)" style="isolation:isolate"/>
</svg>
