<svg width="256" height="256" version="1.1" xmlns="http://www.w3.org/2000/svg">
  <linearGradient id="b" x1=".5002" x2=".5002" y2="1" gradientTransform="matrix(244,0,0,228,5.981,12)" gradientUnits="userSpaceOnUse">
    <stop stop-color="#ebdbb2" offset="0"/>
    <stop stop-color="#ebdbb2" offset="1"/>
  </linearGradient>
  <defs>
    <linearGradient id="linearGradient31" x1=".5002" x2=".5002" y2="1" gradientTransform="matrix(244,0,0,228,5.988,12)" gradientUnits="userSpaceOnUse">
      <stop stop-color="#282828" stop-opacity=".1" offset="0"/>
      <stop stop-color="#bdae93" stop-opacity=".1" offset=".1"/>
      <stop stop-color="#d5c4a1" stop-opacity="0" offset=".7022"/>
      <stop stop-color="#bdae93" stop-opacity=".302" offset=".9"/>
      <stop stop-color="#282828" stop-opacity=".15" offset="1"/>
    </linearGradient>
  </defs>
  <path d="m165 12c72 0 85 15 85 87v56c0 70-13 85-85 85h-74c-72 0-85-15-85-85v-56c0-72 13-87 85-87z" fill="url(#b)" style="isolation:isolate"/>
  <path transform="translate(-.864 -.098)" d="m128.86 56.055v0.14258l-51.939 41.951 33.436 27.004 18.57-15 18.438 15 33.496-27.055zm-59 42.043v62l59 46 59-46v-62l-59 48v-1.168z" fill="#282828" opacity=".15" style="isolation:isolate"/>
  <path transform="translate(-.864 -.098)" d="m110.36 120.15 18.571-15-6e-3 -54.004-52 42z" fill="#928374" style="isolation:isolate"/>
  <path transform="translate(-.864 -.098)" d="m147.37 120.15-18.504-15.054v-54.043l52 42.043z" fill="#a89984" style="isolation:isolate"/>
  <path transform="translate(-.864 -.098)" d="m69.864 93.098v62l59 46v-61.169z" fill="#a89984" style="isolation:isolate"/>
  <path transform="translate(-.864 -.098)" d="m187.86 93.098v62l-59 46v-60z" fill="#928374" style="isolation:isolate"/>
  <path transform="translate(-.864 -.098)" d="m69.864 93.098 59-48 59 48-59 48zm7 0 52 42 52-42-52-42.043z" fill="#bdae93" fill-rule="evenodd" style="isolation:isolate"/>
  <path d="m91 12c-72 0-85 15-85 87v56c0 70 13 85 85 85h74c72 0 85-15 85-85v-56c0-72-13-87-85-87zm0 4h74c68 0 80 15 80 83v56c0 66-12 81-80 81h-74c-68 0-80-15-80-81v-56c0-68 12-83 80-83z" fill="url(#linearGradient31)" style="isolation:isolate"/>
</svg>
