<svg width="256" height="256" version="1.1" xmlns="http://www.w3.org/2000/svg">
  <defs>
    <linearGradient id="linearGradient6" x1="140" x2="140" y1="12" y2="240" gradientUnits="userSpaceOnUse">
      <stop stop-color="#504945" offset="0"/>
      <stop stop-color="#3c3836" offset="1"/>
    </linearGradient>
    <linearGradient id="linearGradient31-6" x1=".5002" x2=".5002" y2="1" gradientTransform="matrix(244,0,0,228,5.986,12)" gradientUnits="userSpaceOnUse">
      <stop stop-color="#ebdbb2" stop-opacity=".2" offset="0"/>
      <stop stop-color="#ebdbb2" stop-opacity=".05" offset=".1"/>
      <stop stop-opacity="0" offset=".7036"/>
      <stop stop-opacity=".15" offset=".8975"/>
      <stop stop-opacity=".25" offset="1"/>
    </linearGradient>
  </defs>
  <path d="m165 12c72 0 85 15 85 87v56c0 70-13 85-85 85h-74c-72 0-85-15-85-85v-56c0-72 13-87 85-87z" fill="url(#linearGradient6)" style="isolation:isolate"/>
  <path d="m91 12.002c-2.9959 0-5.7403 0.06808-8.5352 0.12305l-76.33 76.33c-0.074728 3.4011-0.13477 6.8511-0.13477 10.547v56c0 63.819 10.808 81.933 67.388 84.611l37.612-37.613h-38l3.98e-4 -152 114 0.0024v38l52.691-52.703c-11.046-18.259-32.957-23.295-74.691-23.295z" fill="#fb4934" style="isolation:isolate"/>
  <path d="m91 12c-2.9959 0-5.7403 0.06808-8.5352 0.12305l-76.33 76.33c-0.074728 3.4011-0.13477 6.8511-0.13477 10.547v56c0 31.114 2.5636 51.364 11.74 64.258l55.26-55.26v-114h76l37.396-37.416c-6.502-0.41021-13.553-0.58243-21.396-0.58243z" fill="#cc241d" style="isolation:isolate"/>
  <path d="m225 55.262-37.998 38.002h-76v28.498h37.998v38.002h-37.998v47.498l-32.557 32.557c3.9753 0.12155 8.1479 0.18165 12.555 0.18165h27.018l6.6621-20.5c0.65788-2.0245 2.247-3.6078 4.2715-4.2656l5.2871-1.7188c2.0244-0.65787 4.2405-0.3078 5.9629 0.94335l18.004 13.082c2.3304 1.6934 5.4895 1.6934 7.8203 0l16.137-11.729c2.3308-1.6934 3.3042-4.6914 2.4141-7.4316l-6.877-21.168c-0.65788-2.0244-0.30436-4.243 0.94726-5.9648l3.2695-4.498c1.2512-1.7219 3.2465-2.7441 5.375-2.7441l22.26 6e-3c2.8814 0 5.4321-1.8593 6.3223-4.5996l6.166-18.971c0.89015-2.7403-0.0852-5.7441-2.416-7.4375l-18.006-13.082c-1.7219-1.2512-2.7402-3.248-2.7402-5.377v-5.5605c4.7e-4 -2.129 1.0179-4.1297 2.7402-5.3809l20.643-14.998c1.7219-1.2514 2.7402-3.2519 2.7402-5.3809z" fill="#282828" style="isolation:isolate"/>
  <path d="m225 49.999-37.998 38.002h-76v28.498h37.998v38.002h-37.998v47.498l-37.57 37.57c5.469 0.26142 11.211 0.43164 17.568 0.43164h20.479c2.8809 0 5.4321-1.8554 6.3223-4.5957l6.8789-21.168c0.65788-2.0244 2.247-3.6078 4.2715-4.2656l5.2871-1.7188c2.0244-0.65787 4.2405-0.30779 5.9629 0.94336l18.004 13.082c2.3304 1.6934 5.4895 1.6934 7.8203 0l16.137-11.729c2.3308-1.6934 3.3042-4.6914 2.4141-7.4316l-6.877-21.168c-0.65788-2.0244-0.30436-4.243 0.94726-5.9648l3.2695-4.498c1.2512-1.7219 3.2465-2.7441 5.375-2.7441l22.26 6e-3c2.8814 0 5.4321-1.8593 6.3223-4.5996l6.166-18.971c0.89015-2.7403-0.0852-5.7441-2.416-7.4375l-18.006-13.082c-1.7219-1.2512-2.7402-3.248-2.7402-5.377v-5.5606c4.7e-4 -2.129 1.0179-4.1297 2.7402-5.3809l20.643-14.998c1.7219-1.2514 2.7402-3.2519 2.7402-5.3809z" fill="#458588" style="isolation:isolate"/>
  <path d="m73 55h114v38h-76v28.5h38v38h-38v47.5h-38z" clip-rule="evenodd" fill="#282828" fill-rule="evenodd" opacity=".2" stroke-width=".475"/>
  <path d="m73 49.998h114v38h-76v28.5h38v38h-38v47.5h-38z" clip-rule="evenodd" fill="#ebdbb2" fill-rule="evenodd" stroke-width=".475"/>
  <path d="m73 49.999v5.002h114v-5.002zm38 66.5v5.002h38v-5.002z" fill="#fbf1c7" opacity=".6" stroke-width=".475"/>
  <path d="m91 12c-72 0-85 15-85 87v56c0 70 13 85 85 85h74c72 0 85-15 85-85v-56c0-72-13-87-85-87zm0 4h74c68 0 80 15 80 83v56c0 66-12 81-80 81h-74c-68 0-80-15-80-81v-56c0-68 12-83 80-83z" fill="url(#linearGradient31-6)" style="isolation:isolate"/>
</svg>
