<svg width="256" height="256" xmlns="http://www.w3.org/2000/svg">
    <defs>
        <linearGradient id="d" x1="296" x2="296" y1="-212" y2="236" gradientUnits="userSpaceOnUse">
            <stop offset="0" stop-color="#ebdbb2"/>
            <stop offset=".125" stop-color="#ebdbb2" stop-opacity=".098"/>
            <stop offset=".925" stop-opacity=".098"/>
            <stop offset="1" stop-opacity=".498"/>
        </linearGradient>
        <clipPath id="c">
            <path d="M361.938-212C507.235-212 528-191.287 528-46.125v116.25C528 215.286 507.235 236 361.937 236H214.063C68.766 236 48 215.286 48 70.125v-116.25C48-191.287 68.765-212 214.063-212z" fill="#b16286"/>
        </clipPath>
        <filter id="b" x="-.01" y="-.01" width="1.023" height="1.025" color-interpolation-filters="sRGB">
            <feGaussianBlur stdDeviation="1.16"/>
        </filter>
        <filter id="a" x="-.02" y="-.03" width="1.046" height="1.05" color-interpolation-filters="sRGB">
            <feGaussianBlur stdDeviation="2.32"/>
        </filter>
        <filter id="e" x="-.05" y="-.04" width="1.102" height="1.091" color-interpolation-filters="sRGB">
            <feGaussianBlur stdDeviation="3.017"/>
        </filter>
    </defs>
    <path transform="matrix(1.01937 0 0 1.01937 0 8.31)" d="M162.537 5.568c72.648 0 83.031 10.357 83.031 82.938v58.125c0 72.58-10.383 82.937-83.031 82.937H88.599c-72.648 0-83.031-10.357-83.031-82.937V88.506c0-72.581 10.383-82.938 83.031-82.938z" filter="url(#a)" opacity=".2"/>
    <path d="M165.685 11.947c74.055 0 84.64 10.557 84.64 84.544v59.25c0 73.987-10.585 84.544-84.64 84.544h-75.37c-74.055 0-84.64-10.557-84.64-84.543V96.49c0-73.987 10.585-84.544 84.64-84.544z" fill="none" opacity=".1" stroke-linecap="round" stroke-linejoin="round" stroke-width="4.077" stroke="#282828"/>
    <path transform="matrix(1.01937 0 0 1.01937 0 8.31)" d="M162.537 3.568c72.648 0 83.031 10.357 83.031 82.938v58.125c0 72.58-10.383 82.937-83.031 82.937H88.599c-72.648 0-83.031-10.357-83.031-82.937V86.506c0-72.581 10.383-82.938 83.031-82.938z" filter="url(#b)" opacity=".1"/>
    <path d="M165.685 11.947c74.055 0 84.64 10.557 84.64 84.544v59.25c0 73.987-10.585 84.544-84.64 84.544h-75.37c-74.055 0-84.64-10.557-84.64-84.543V96.49c0-73.987 10.585-84.544 84.64-84.544z" fill="#ebdbb2"/>
    <path transform="matrix(.50968 0 0 .50968 -18.789 120)" d="M361.938-212C507.235-212 528-191.287 528-46.125v116.25C528 215.286 507.235 236 361.937 236H214.063C68.766 236 48 215.286 48 70.125v-116.25C48-191.287 68.765-212 214.063-212z" clip-path="url(#c)" fill="none" opacity=".4" stroke-linecap="round" stroke-linejoin="round" stroke-width="8" stroke="url(#d)"/>
    <path transform="matrix(1.08893 0 0 1.08893 -22.018 -13.423)" d="M84.068 46.115l-8.935 8.936 1.129 1.129a80.188 80.188 0 0 0-19.121 51.799c0 42.554 33.144 77.36 75.025 80.027v2.66c-24.035.645-46.566 5.792-46.566 15.45h103.482c0-9.658-22.531-14.805-46.566-15.45v-2.682a80.18 80.18 0 0 0 46.654-18.896l.754.754 8.935-8.936-17.552-17.552a56.755 56.755 0 0 0 12.443-35.375 56.755 56.755 0 0 0-56.754-56.756 56.755 56.755 0 0 0-35.41 12.41zm1.547 19.418l7.069 7.069a56.755 56.755 0 0 0-12.444 35.377 56.755 56.755 0 0 0 56.756 56.755 56.755 56.755 0 0 0 35.408-12.412l7.342 7.342a66.932 66.932 0 0 1-42.406 15.254c-36.97 0-66.94-29.97-66.94-66.94a66.915 66.915 0 0 1 15.215-42.445z" filter="url(#e)" opacity=".3"/>
    <path d="M69.526 36.794l-9.73 9.73 1.23 1.23a87.32 87.32 0 0 0-20.822 56.405c0 46.338 36.092 84.24 81.698 87.144v2.897c-26.173.702-50.708 6.307-50.708 16.823h112.685c0-10.516-24.535-16.12-50.707-16.823v-2.92a87.312 87.312 0 0 0 50.803-20.577l.821.82 9.73-9.73-19.113-19.113a61.803 61.803 0 0 0 13.55-38.521 61.803 61.803 0 0 0-61.802-61.804 61.803 61.803 0 0 0-38.56 13.514zm1.685 21.144l7.697 7.697a61.803 61.803 0 0 0-13.55 38.524 61.803 61.803 0 0 0 61.803 61.803 61.803 61.803 0 0 0 38.557-13.516l7.995 7.995a72.884 72.884 0 0 1-46.177 16.61c-40.259 0-72.893-32.634-72.893-72.892a72.866 72.866 0 0 1 16.568-46.22z" fill="#fe8019"/>
    <path d="M151.34 77.627s-9.456-9.17-25.64-9.19c-16.186-.02-32.394 19.5-32.413 35.986-.02 16.486 9.425 35.425 34.465 35.454 25.041.027 36.661-13.083 32.422-43.617l-30.855 9.733 5.795 6.112 3.666-.911s6.098 7.639-3.064 8.85c-9.163 1.21-17.405-1.242-18.613-12.845-1.208-11.602 7.963-19.834 18.646-15.242z" fill-rule="evenodd" fill="#ebdbb2"/>
    <path d="M127.692 11.947v228.338h37.78c74.242 0 84.852-10.557 84.852-84.543V96.49c0-73.987-10.61-84.544-84.853-84.544z" fill="#ebdbb2" opacity=".1"/>
    <path d="M90.315 240.285c-74.055 0-84.64-10.557-84.64-84.543v-29.626h244.65v29.626c0 73.986-10.585 84.543-84.64 84.543z" fill="#ebdbb2" opacity=".1"/>
</svg>
