<svg width="256" height="256" version="1.1" xmlns="http://www.w3.org/2000/svg">
  <linearGradient id="b" x1=".5002" x2=".5002" y2="1" gradientTransform="matrix(244,0,0,228,5.981,12)" gradientUnits="userSpaceOnUse">
    <stop stop-color="#ebdbb2" offset="0"/>
    <stop stop-color="#ebdbb2" offset="1"/>
  </linearGradient>
  <defs>
    <linearGradient id="linearGradient31" x1=".5002" x2=".5002" y2="1" gradientTransform="matrix(244,0,0,228,5.988,12)" gradientUnits="userSpaceOnUse">
      <stop stop-color="#282828" stop-opacity=".1" offset="0"/>
      <stop stop-color="#bdae93" stop-opacity=".1" offset=".1"/>
      <stop stop-color="#d5c4a1" stop-opacity="0" offset=".7022"/>
      <stop stop-color="#bdae93" stop-opacity=".302" offset=".9"/>
      <stop stop-color="#282828" stop-opacity=".3" offset="1"/>
    </linearGradient>
  </defs>
  <path d="m165 12c72 0 85 15 85 87v56c0 70-13 85-85 85h-74c-72 0-85-15-85-85v-56c0-72 13-87 85-87z" fill="url(#b)" style="isolation:isolate"/>
  <path d="m71.934 51.909v0.0098c-14.135-0.063034-17.667-0.08196-17.73 14.055l-0.41602 91.881 18.225 18.391 0.21485 7.2051c0.16317 5.4186 3.1852 7.4025 7.7148 7.2676l6.6113-0.19726 17.541 17.51 91.883-0.0742c14.137-0.0114 14.132-3.5416 14.121-17.678l-0.0391-49.484c-0.0122-14.136-0.0133-17.667-14.15-17.656-1.8e-4 -5.1e-4 -1.2919 2e-3 -1.3301 2e-3l0.82421-0.875c9.693-10.291 7.1237-12.711-3.166-22.404l-36.02-33.928c-5.7885-5.4518-9.1352-8.6054-12.68-8.4883-1.5872 0.05242-3.2227 0.78576-5.127 2.2363 0.0558-0.04245 0.11462-0.09551 0.16992-0.13672-1.3057-7.321-5.8135-7.3562-17.162-7.4082zm65.639 8.4375c-0.12353 0.10344-0.25097 0.21493-0.37696 0.32422 0.12549-0.10854 0.25389-0.22141 0.37696-0.32422zm-1.1094 0.97461c-0.87092 0.80147-1.7923 1.7147-2.8008 2.7852 1.0076-1.0696 1.9313-1.9875 2.8008-2.7852zm-53.611 12.568 6.5625 0.03125-0.16797 37.338-4.168 4.4258-2.416-0.0117zm20.891 0.0957 6.5644 0.0293-0.0684 14.959-6.5957 7.002zm45.459 15.455 4.7793 4.502-27.553 29.252c-0.85923 9.7e-4 -1.5344 1e-3 -2.3301 2e-3l-3.5449-3.3418zm15.207 14.326 4.7793 4.502-14.037 14.902c-4.4559 4e-3 -4.5456 3e-3 -9.0273 8e-3zm23.738 48.062 4e-3 6.5645-41.783 0.0332-4e-3 -6.5645zm-91.684 5.5898c4.5326-3e-3 8.2095 3.6686 8.2129 8.2012 3e-3 4.5318-3.6674 8.2084-8.1992 8.2129-4.5287 5e-3 -8.2116-3.6802-8.2148-8.1992-4e-3 -4.5333 3.6679-8.2114 8.2012-8.2148zm91.699 15.301 4e-3 6.5664-62.674 0.0488-6e-3 -6.5644z" fill="#282828" opacity=".3" stroke-width=".87498" style="isolation:isolate"/>
  <path d="m143.54 53.505c-2.7568 0.09105-5.6339 2.1603-9.875 6.6621l-63.002 66.885 0.74219 24.889 32.615-32.668 20.08-0.0156-3.5449-3.3418 28.648-30.414 4.7793 4.502-27.553 29.252 19.695-0.0156 18.285-19.412 4.7793 4.5019-14.037 14.902 39.428-0.0312 0.82421-0.875c9.693-10.291 7.1237-12.711-3.166-22.404l-36.02-33.928c-5.7885-5.4518-9.1352-8.6054-12.68-8.4883zm-71.533 118.55 0.22266 7.4531c0.16318 5.4186 3.1852 7.4025 7.7148 7.2676l6.6113-0.19727z" fill="#fb4934" stroke-width=".87498" style="isolation:isolate"/>
  <path d="m71.934 47.97v0.0098c-14.135-0.063-17.667-0.08194-17.73 14.055l-0.41602 91.881 18.225 18.391-1.3516-45.254 14.418-15.307-2.416-0.0117 0.18945-41.783 6.5625 0.03125-0.16797 37.338 14.396-15.283 0.0996-21.99 6.5644 0.0293-0.0684 14.959 23.424-24.867c1.87-1.985 3.4716-3.4846 4.918-4.5625-1.3057-7.321-5.8135-7.3563-17.162-7.4083z" fill="#fabd2f" stroke-width=".87498" style="isolation:isolate"/>
  <path d="m104.02 119.27-37.08 37.141c-4.0891 4.0952-2.9024 7.6898 0.0078 10.596l37.148 37.082 91.883-0.0742c14.137-0.0114 14.132-3.5416 14.121-17.678l-0.0391-49.484c-0.0122-14.136-0.0133-17.667-14.15-17.656-0.0129-0.0351-91.891 0.0742-91.891 0.0742zm84.129 28.617 4e-3 6.5644-41.783 0.0332-4e-3 -6.5644zm-91.684 5.5898c4.5326-3e-3 8.2095 3.6686 8.2129 8.2012 3e-3 4.5318-3.6674 8.2084-8.1992 8.2129-4.5287 5e-3 -8.2116-3.6801-8.2148-8.1992-0.0042-4.5333 3.6679-8.2114 8.2012-8.2148zm91.699 15.301 4e-3 6.5664-62.674 0.0488-6e-3 -6.5644z" fill="#458588" stroke-width=".87498" style="isolation:isolate"/>
  <path d="m91 12c-72 0-85 15-85 87v56c0 70 13 85 85 85h74c72 0 85-15 85-85v-56c0-72-13-87-85-87zm0 4h74c68 0 80 15 80 83v56c0 66-12 81-80 81h-74c-68 0-80-15-80-81v-56c0-68 12-83 80-83z" fill="url(#linearGradient31)" style="isolation:isolate"/>
</svg>
