<svg width="256" height="256" version="1.1" xmlns="http://www.w3.org/2000/svg">
  <linearGradient id="b" x1=".5002" x2=".5002" y2="1" gradientTransform="matrix(244,0,0,228,5.981,12)" gradientUnits="userSpaceOnUse">
    <stop stop-color="#ebdbb2" offset="0"/>
    <stop stop-color="#d5c4a1" offset="1"/>
  </linearGradient>
  <defs>
    <linearGradient id="linearGradient10" x1="128" x2="128" y1="12" y2="240" gradientUnits="userSpaceOnUse">
      <stop stop-color="#282828" stop-opacity=".1" offset="0"/>
      <stop stop-color="#282828" stop-opacity=".05" offset=".1966"/>
      <stop stop-color="#282828" stop-opacity="0" offset=".50485"/>
      <stop stop-color="#282828" stop-opacity=".1" offset=".74636"/>
      <stop stop-color="#282828" stop-opacity=".2" offset="1"/>
    </linearGradient>
  </defs>
  <path d="m165 12c72 0 85 15 85 87v56c0 70-13 85-85 85h-74c-72 0-85-15-85-85v-56c0-72 13-87 85-87z" fill="url(#b)" style="isolation:isolate"/>
  <path d="m57.309 50.768a4.2522 4.2522 0 0 0-2.5879 7.7852c16.576 11.046 26.508 29.615 26.508 49.514 0 10.228-2.633 20.262-7.7402 29.074a4.2522 4.2522 0 0 0 1.3926 5.7188c17.155 10.933 27.531 29.853 27.531 50.195 0 1.3771-0.0472 2.7436-0.1582 4.3457a4.2522 4.2522 0 0 0 1.332 3.3926c6.665 6.2542 14.475 10.895 22.92 13.881a4.2522 4.2522 0 0 0 2.8359 0c8.4455-2.9858 16.255-7.6267 22.92-13.881a4.2522 4.2522 0 0 0 1.332-3.3926c-0.111-1.6021-0.1582-2.9686-0.1582-4.3457 0-20.343 10.374-39.256 27.602-50.191a4.2522 4.2522 0 0 0 1.4121-5.6992c-5.0432-8.8221-7.6797-18.869-7.6797-29.098 0-19.899 9.9304-38.467 26.506-49.514a4.2522 4.2522 0 0 0-2.5879-7.7852c-25.763 1.4008-48.363 17.368-58.545 41.02-3.8889 0.87511-7.9338 1.3965-12.145 1.3965-4.2105 0-8.2538-0.52134-12.143-1.3965-10.182-23.652-32.784-39.619-58.547-41.02z" fill="#fbf1c7" fill-opacity=".5" opacity=".7" stop-color="#000000" stroke-linecap="round" stroke-linejoin="round"/>
  <path d="m170.52 102.9v0c0-21.315 10.648-41.22 28.402-53.052-24.932 1.3557-46.796 17.165-55.866 40.533-4.8001 1.2677-9.8542 1.8899-15.054 1.8899-5.1993 0-10.253-0.62225-15.054-1.8899-9.0702-23.368-30.934-39.177-55.866-40.533 17.754 11.832 28.402 31.738 28.402 53.052v0c0 10.959-2.8236 21.732-8.3151 31.207 18.375 11.711 29.499 31.993 29.499 53.782v0c0 1.4752-0.051 2.9497-0.16792 4.6372 6.2227 5.8392 13.51 10.175 21.428 12.974 7.9182-2.7994 15.205-7.1352 21.428-12.974-0.11693-1.6876-0.16796-3.1621-0.16796-4.6372v0c0-21.79 11.124-42.071 29.574-53.782-5.4164-9.4749-8.24-20.249-8.24-31.207z" fill="#83a598" fill-opacity=".5" stroke="#076678" stroke-linecap="round" stroke-linejoin="round" stroke-width="8.5036"/>
  <path d="m57.312 45.602a4.2522 4.2522 0 0 0-3.6035 6.8184 4.2522 4.2522 0 0 1 3.5996-1.6523c25.763 1.4006 48.365 17.368 58.547 41.02 3.8888 0.87515 7.9321 1.3965 12.143 1.3965 4.2107-1e-5 8.2556-0.52138 12.145-1.3965 10.182-23.652 32.782-39.619 58.545-41.02a4.2522 4.2522 0 0 1 3.6035 1.6582 4.2522 4.2522 0 0 0-3.5996-6.8242c-25.763 1.4008-48.363 17.368-58.545 41.02-3.8889 0.87511-7.9338 1.3965-12.145 1.3965-4.2105 0-8.2538-0.52133-12.143-1.3965-10.182-23.652-32.784-39.619-58.547-41.02zm117.52 59.834c-0.0386 0.87418-0.0586 1.7509-0.0586 2.6309 0 10.033 2.5375 19.892 7.3945 28.592a4.2522 4.2522 0 0 0 0.28906-4.6602c-4.6259-8.0922-7.2262-17.215-7.625-26.562zm-93.654 0.0918c-0.41173 9.314-3.0123 18.391-7.6816 26.447a4.2522 4.2522 0 0 0 0.27344 4.6816c4.9248-8.6944 7.4629-18.549 7.4629-28.59 0-0.84922-0.01876-1.6952-0.05469-2.5391zm72.32 84.883c-0.0389 0.87852-0.0586 1.7601-0.0586 2.6445 0 0.21903 1e-3 0.43872 4e-3 0.6582a4.2522 4.2522 0 0 0 0.15821-1.4785c-0.0444-0.64059-0.0785-1.2432-0.10352-1.8242zm-51.137 0.0898c-0.0246 0.55308-0.0575 1.127-0.0996 1.7344a4.2522 4.2522 0 0 0 0.15039 1.4512c2e-3 -0.21058 4e-3 -0.42066 4e-3 -0.63086 0-0.85409-0.0184-1.7061-0.0547-2.5547z" fill="#fbf1c7" fill-opacity=".5" opacity=".3" stop-color="#000000" stroke-linecap="round" stroke-linejoin="round"/>
  <path d="m111.06 115.47a4.2522 4.2522 0 0 0-2.2559 0.55859 4.2522 4.2522 0 0 0-2.1426 3.6328v17.008a4.2522 4.2522 0 0 0 8.5039 0v-17.008a4.2522 4.2522 0 0 0-4.1055-4.1914zm34.172 0a4.2522 4.2522 0 0 0-2.2559 0.55859 4.2522 4.2522 0 0 0-2.1426 3.6328v17.008a4.2522 4.2522 0 0 0 6.3613 3.6328 4.2522 4.2522 0 0 0 2.1426-3.6328v-17.008a4.2522 4.2522 0 0 0-4.1055-4.1914zm-25.811 62.83a4.2518 4.2518 0 0 0-4.252 4.252 4.2518 4.2518 0 0 0 4.252 4.252 4.2518 4.2518 0 0 0 4.252-4.252 4.2518 4.2518 0 0 0-4.252-4.252zm17.006 0a4.2518 4.2518 0 0 0-4.25 4.252 4.2518 4.2518 0 0 0 4.25 4.252 4.2518 4.2518 0 0 0 4.252-4.252 4.2518 4.2518 0 0 0-4.252-4.252z" fill="#282828" opacity=".2" stop-color="#000000" stroke-linecap="round" stroke-linejoin="round"/>
  <path d="m108.8 113.47a4.2522 4.2522 0 0 0-2.1426 3.6328v17.008a4.2522 4.2522 0 0 0 8.5039 0v-17.008a4.2522 4.2522 0 0 0-6.3613-3.6328zm34.172 0a4.2522 4.2522 0 0 0-2.1426 3.6328v17.008a4.2522 4.2522 0 0 0 6.3613 3.6328 4.2522 4.2522 0 0 0 2.1426-3.6328v-17.008a4.2522 4.2522 0 0 0-6.3613-3.6328z" fill="#f01d0a" stop-color="#000000" stroke-linecap="round" stroke-linejoin="round"/>
  <path d="m111.06 112.91c-0.78923-0.0269-1.5704 0.16653-2.2559 0.55859-1.3067 0.74648-2.1216 2.128-2.1426 3.6328v2.5664c0.021-1.5048 0.83586-2.8863 2.1426-3.6328 0.6855-0.39206 1.4666-0.58548 2.2559-0.5586 2.2676 0.0781 4.0744 1.9227 4.1055 4.1914v-2.5664c-0.0311-2.2687-1.8379-4.1133-4.1055-4.1914zm34.172 0c-0.78923-0.0269-1.5704 0.16653-2.2559 0.55859-1.3067 0.74648-2.1216 2.128-2.1426 3.6328v2.5664c0.021-1.5048 0.83586-2.8863 2.1426-3.6328 0.6855-0.39206 1.4666-0.58548 2.2559-0.5586 2.2676 0.0781 4.0744 1.9227 4.1055 4.1914v-2.5664c-0.0311-2.2687-1.8379-4.1133-4.1055-4.1914z" fill="#ebdbb2" opacity=".3" stop-color="#000000" stroke-linecap="round" stroke-linejoin="round"/>
  <path d="m119.42 175.74a4.2518 4.2518 0 0 0-4.252 4.252 4.2518 4.2518 0 0 0 4.252 4.252 4.2518 4.2518 0 0 0 4.252-4.252 4.2518 4.2518 0 0 0-4.252-4.252zm17.006 0a4.2518 4.2518 0 0 0-4.25 4.252 4.2518 4.2518 0 0 0 4.25 4.252 4.2518 4.2518 0 0 0 4.252-4.252 4.2518 4.2518 0 0 0-4.252-4.252z" fill="#076678"/>
  <path d="m119.42 175.74c-2.3483-9e-5 -4.252 1.9036-4.252 4.252 3e-3 0.43582 0.0727 0.86861 0.20703 1.2832 0.55849-1.7645 2.1942-2.965 4.0449-2.9688 1.8507 4e-3 3.4864 1.2043 4.0449 2.9688 0.13437-0.41459 0.20419-0.84738 0.20703-1.2832 9e-5 -2.3483-1.9036-4.252-4.252-4.252zm17.006 0c-2.3476 1e-3 -4.2501 1.9044-4.25 4.252 3e-3 0.43582 0.0727 0.86861 0.20704 1.2832 0.55827-1.7638 2.193-2.9641 4.043-2.9688 1.8507 4e-3 3.4864 1.2043 4.0449 2.9688 0.13437-0.41459 0.20419-0.84738 0.20703-1.2832 9e-5 -2.3483-1.9036-4.252-4.252-4.252z" fill="#ebdbb2" opacity=".15" stop-color="#000000" stroke-linecap="round" stroke-linejoin="round"/>
  <path d="m91 12c-72 0-85 15-85 87v56c0 70 13 85 85 85h74c72 0 85-15 85-85v-56c0-72-13-87-85-87zm0 5h74c35.653 0 55.307 3.9448 65.895 14.965 10.588 11.02 14.105 31.336 14.105 67.035v56c0 34.69-3.4936 54.457-14.07 65.25-10.577 10.793-30.277 14.75-65.93 14.75h-74c-35.653 0-55.353-3.9574-65.93-14.75-10.577-10.793-14.07-30.56-14.07-65.25v-56c0-35.699 3.5176-56.015 14.105-67.035 10.588-11.02 30.242-14.965 65.895-14.965z" fill="url(#linearGradient10)" style="isolation:isolate"/>
</svg>
