<svg xmlns="http://www.w3.org/2000/svg" width="256" height="256" version="1.0" enable-background="new">
    <defs>
        <filter id="a" width="1.046" height="1.05" x="-.02" y="-.03" color-interpolation-filters="sRGB">
            <feGaussianBlur stdDeviation="2.32"/>
        </filter>
        <filter id="b" width="1.023" height="1.025" x="-.01" y="-.01" color-interpolation-filters="sRGB">
            <feGaussianBlur stdDeviation="1.16"/>
        </filter>
        <linearGradient id="d" x1="296" x2="296" y1="-212" y2="236" gradientUnits="userSpaceOnUse">
            <stop offset="0" stop-color="#ebdbb2"/>
            <stop offset=".125" stop-color="#ebdbb2" stop-opacity=".098"/>
            <stop offset=".925" stop-opacity=".098"/>
            <stop offset="1" stop-opacity=".498"/>
        </linearGradient>
        <clipPath id="c">
            <path d="M361.938-212C507.235-212 528-191.287 528-46.125v116.25C528 215.286 507.235 236 361.937 236H214.063C68.766 236 48 215.286 48 70.125v-116.25C48-191.287 68.765-212 214.063-212z" fill="#b16286"/>
        </clipPath>
        <filter id="e" width="1.079" height="1.034" x="-.04" y="-.02" color-interpolation-filters="sRGB">
            <feGaussianBlur stdDeviation=".513"/>
        </filter>
    </defs>
    <path d="M162.537 62.432c72.648 0 83.031 10.357 83.031 82.937v58.125c0 72.581-10.383 82.938-83.031 82.938H88.599c-72.648 0-83.031-10.357-83.031-82.938V145.37c0-72.58 10.383-82.937 83.031-82.937z" filter="url(#a)" opacity=".2" transform="translate(0 -44)"/>
    <path d="M162.537 61.432c72.648 0 83.031 10.357 83.031 82.937v58.125c0 72.581-10.383 82.938-83.031 82.938H88.599c-72.648 0-83.031-10.357-83.031-82.938V144.37c0-72.58 10.383-82.937 83.031-82.937z" filter="url(#b)" opacity=".1" transform="translate(0 -44)"/>
    <path d="M162.537 16.432c72.648 0 83.031 10.357 83.031 82.937v58.125c0 72.581-10.383 82.938-83.031 82.938H88.599c-72.648 0-83.031-10.357-83.031-82.938V99.37c0-72.58 10.383-82.937 83.031-82.937z" fill="#458588"/>
    <path d="M361.938-212C507.235-212 528-191.287 528-46.125v116.25C528 215.286 507.235 236 361.937 236H214.063C68.766 236 48 215.286 48 70.125v-116.25C48-191.287 68.765-212 214.063-212z" clip-path="url(#c)" transform="matrix(.5 0 0 .5 -18.432 122.432)" fill="none" opacity=".4" stroke-linecap="round" stroke-linejoin="round" stroke-width="8" stroke="url(#d)"/>
    <g fill="#282828" opacity=".2">
        <path d="M183.145 28.694l19.623 20.35M59.837 226.8V27.006H182.07l21.132 19.624V226.8z"/>
        <path d="M203 47.8h-21.132V28.176z" opacity=".2"/>
        <path d="M203.132 46.8H182V27.176z"/>
    </g>
    <g fill="#ebdbb2">
        <path d="M183.145 25.394l19.623 20.35M59.837 223.5V23.706H182.07l21.132 19.624V223.5z"/>
        <path d="M203 44.5h-21.132V24.876z" opacity=".2"/>
        <path d="M203.132 43.5H182V23.876z" fill="#ebdbb2"/>
    </g>
    <path opacity=".2" d="M49.21 45.82h120.365v117.112H49.21z"/>
    <path fill="#fabd2f" d="M49.21 42.57h120.365v117.112H49.21z"/>
    <path d="M74.214 68.156v146.505h89.631l15.496-14.39V68.156z" fill="#282828" opacity=".2"/>
    <path d="M74.214 65.339v146.505h89.631l15.496-14.39V65.339z" fill-opacity=".952" fill="#ebdbb2"/>
    <path d="M195.598 217.272l17.893-18.555-3.253 60.182-43.917-3.253 3.253-11.386 9.41-9.759M164.952 211.844l14.388-14.922" fill="none"/>
    <path d="M179.34 197.605h-15.495v14.39z" opacity=".2"/>
    <path d="M180.045 197.605H164.55v14.39z" fill="#ebdbb2"/>
    <path d="M89.635 20.898a2.283 2.283 0 0 0-2.285 2.295l.242 48.957a48.394 48.394 0 0 0-.082 5.287c.114 2.948.338 6.371 2.076 9.04 1.946 2.988 5.237 5.916 10.047 5.916 4.686 0 9.057-2.218 11.623-5.844 1.884-2.664 2.08-6.118 2.176-9.088a46.109 46.109 0 0 0-.133-5.32l-.18-16.254a2.283 2.283 0 1 0-4.566.052l.185 16.305a2.283 2.283 0 0 0 .01.192s.209 2.23.123 4.875c-.085 2.644-.703 5.696-1.343 6.601-1.636 2.312-4.68 3.918-7.895 3.918-3.091 0-4.716-1.534-6.22-3.844-.648-.994-1.238-4.08-1.34-6.722-.103-2.643.076-4.862.076-4.862a2.283 2.283 0 0 0 .006-.193l-.225-46.744h21.926v.336h4.566v-2.617a2.283 2.283 0 0 0-2.285-2.286z" filter="url(#e)" opacity=".2"/>
    <path d="M89.635 18.898a2.283 2.283 0 0 0-2.285 2.295l.242 48.957a48.393 48.393 0 0 0-.082 5.287c.114 2.948.338 6.371 2.076 9.04 1.946 2.988 5.237 5.916 10.047 5.916 4.686 0 9.057-2.218 11.623-5.844 1.884-2.664 2.08-6.118 2.176-9.088a46.117 46.117 0 0 0-.133-5.32l-.18-16.254a2.283 2.283 0 1 0-4.566.052l.185 16.305a2.283 2.283 0 0 0 .01.192s.209 2.23.123 4.875c-.086 2.644-.703 5.696-1.344 6.601-1.636 2.312-4.68 3.918-7.894 3.918-3.092 0-4.716-1.534-6.22-3.844-.649-.994-1.238-4.08-1.34-6.722-.103-2.643.075-4.862.075-4.862a2.283 2.283 0 0 0 .006-.193l-.224-46.744h21.925v.336h4.567v-2.617a2.283 2.283 0 0 0-2.285-2.286H89.635z" fill="#458588"/>
    <g>
        <path d="M96.357 103.591v68.038h62.804" fill="none" stroke-width="3.925" stroke="#ebdbb2"/>
        <path fill="#b8bb26" d="M100.286 127.8h10.467v35.327h-10.467z"/>
        <path fill="#b16286" d="M115.986 142.84h10.467v20.935h-10.467z"/>
        <path fill="#fe8019" d="M131.686 114.06h10.467v49.72h-10.467z"/>
        <path fill="#fb4934" d="M147.386 121.91h10.467v41.87h-10.467z"/>
    </g>
</svg>
