<svg width="256" height="256" version="1.1" xmlns="http://www.w3.org/2000/svg">
  <linearGradient id="b" x1=".5002" x2=".5002" y2="1" gradientTransform="matrix(244,0,0,228,5.981,12)" gradientUnits="userSpaceOnUse">
    <stop stop-color="#ebdbb2" offset="0"/>
    <stop stop-color="#ebdbb2" offset="1"/>
  </linearGradient>
  <defs>
    <linearGradient id="linearGradient31" x1=".5002" x2=".5002" y2="1" gradientTransform="matrix(244,0,0,228,5.988,12)" gradientUnits="userSpaceOnUse">
      <stop stop-color="#282828" stop-opacity=".1" offset="0"/>
      <stop stop-color="#bdae93" stop-opacity=".1" offset=".1"/>
      <stop stop-color="#d5c4a1" stop-opacity="0" offset=".7022"/>
      <stop stop-color="#bdae93" stop-opacity=".302" offset=".9"/>
      <stop stop-color="#282828" stop-opacity=".15" offset="1"/>
    </linearGradient>
  </defs>
  <path d="m165 12c72 0 85 15 85 87v56c0 70-13 85-85 85h-74c-72 0-85-15-85-85v-56c0-59.557 8.895-80.113 52.72-85.439 9.1561-1.1127 19.837-1.5607 32.28-1.5607z" fill="url(#b)" style="isolation:isolate"/>
  <path d="m95 12v18h-25v-17.442c-1.6951 0.10396-3.3904 0.22543-5 0.3615v17.081h-25v-12.531c-1.7223 0.56927-3.4401 1.2154-5 1.8916v10.639h-14.864c-1.3292 1.5425-2.539 3.2072-3.6453 5h18.509v25h-26.733c-0.2513 1.6012-0.48171 3.2965-0.68635 5h27.419v25h-28.924c-0.02933 1.6195 0.01252 3.3157 0 5h28.924v25h-29v5h29v25h-29v5h29v25h-28.21c0.13202 1.7379 0.27327 3.3563 0.44333 5h27.767v25h-22.251c0.7137 1.7613 1.4927 3.4263 2.348 5h19.903v17.726c1.5851 0.67686 3.247 1.2941 5 1.8631v-19.589h25v24.085c1.6083 0.13536 3.3063 0.25538 5 0.35901v-24.444h25v25h5v-25h25v25h5v-25h25v25h5v-25h25v24.503c1.6704-0.0955 3.4115-0.211 5-0.33637v-24.167h25v19.905c1.7393-0.53566 3.4216-1.1274 5-1.7642v-18.14h20.903c0.85532-1.5737 1.6343-3.2387 2.348-5h-23.251v-25h28.767c0.17006-1.6437 0.3113-3.2621 0.44333-5h-29.21v-25h30v-5h-30v-25h30v-5h-30v-25h29.986c-0.0127-1.6985-0.0323-3.3675-0.0621-5h-29.924v-25h28.419c-0.20469-1.7094-0.43478-3.3935-0.68635-5h-27.733v-25h19.509c-1.107-1.7927-2.3155-3.4578-3.6453-5h-15.864v-11.06c-1.5785-0.64678-3.2607-1.2473-5-1.7906v12.851h-25v-17.162c-1.5885-0.12629-3.3296-0.24258-5-0.33861v17.501h-25v-18h-5v18h-25v-18h-5v18h-25v-18zm-55 23h25v25h-25zm30 0h25v25h-25zm30 0h25v25h-25zm30 0h25v25h-25zm30 0h25v25h-25zm30 0h25v25h-25zm-150 30h25v25h-25zm30 0h25v25h-25zm30 0h25v25h-25zm30 0h25v25h-25zm30 0h25v25h-25zm30 0h25v25h-25zm-150 30h25v25h-25zm30 0h25v25h-25zm30 0h25v25h-25zm30 0h25v25h-25zm30 0h25v25h-25zm30 0h25v25h-25zm-150 30h25v25h-25zm30 0h25v25h-25zm30 0h25v25h-25zm30 0h25v25h-25zm30 0h25v25h-25zm30 0h25v25h-25zm-150 30h25v25h-25zm30 0h25v25h-25zm30 0h25v25h-25zm30 0h25v25h-25zm30 0h25v25h-25zm30 0h25v25h-25zm-150 30h25v25h-25zm30 0h25v25h-25zm30 0h25v25h-25zm30 0h25v25h-25zm30 0h25v25h-25zm30 0h25v25h-25z" fill="#d5c4a1" style="isolation:isolate"/>
  <path d="m216.63 29.779c-0.83631 0.05074-1.6182 0.43164-2.1736 1.0589l-46.526 52.596-31.642-23.204-46.783 55.29-26.913-10.352-25.426 19.064c-0.85249 0.63909-1.29 1.6263-1.2631 2.616 0.01714 0.63122-0.0013 84.93-0.0013 84.93h184.07s0.0434-178.22 0-179.02c-0.0442-0.81461-0.40201-1.6118-1.0614-2.195-0.62721-0.55517-1.4492-0.83851-2.2853-0.7877z" fill="#282828" opacity=".1" stroke-linecap="round" stroke-width="1.021"/>
  <path d="m39.065 130.08 24.029-18.016 27.377 10.53 46.33-54.754 31.589 23.165 48.436-54.754" fill="none" opacity=".2" stroke="#282828" stroke-linecap="round" stroke-width="6.3178"/>
  <path d="m216.63 29.998a3.1589 3.1589 0 0 0-2.1719 1.0605l-46.527 52.594-31.641-23.203-46.783 55.291-26.912-10.352-25.428 19.064a3.1589 3.1589 0 0 0-0.63281 4.4219 3.1589 3.1589 0 0 0 4.4219 0.63281l22.633-16.969 27.84 10.709 45.877-54.219 31.537 23.127 50.346-56.912a3.1589 3.1589 0 0 0-0.27149-4.459 3.1589 3.1589 0 0 0-2.2871-0.78711z" fill="#458588" stroke-linecap="round"/>
  <path d="m216.63 29.998a3.1589 3.1589 0 0 0-2.1719 1.0605l-46.527 52.594-31.641-23.203-46.783 55.291-26.912-10.352-25.428 19.064a3.1589 3.1589 0 0 0-0.77148 4.0762 3.1589 3.1589 0 0 1 0.77148-0.98242l25.428-19.064 26.912 10.352 46.783-55.289 31.641 23.203 46.527-52.596a3.1589 3.1589 0 0 1 2.1719-1.0586 3.1589 3.1589 0 0 1 2.2871 0.78711 3.1589 3.1589 0 0 1 0.64453 0.83203 3.1589 3.1589 0 0 0-0.64453-3.9277 3.1589 3.1589 0 0 0-2.2871-0.78711z" fill="#ebdbb2" opacity=".2" stroke-linecap="round"/>
  <path d="m40 17.469c-1.7223 0.56927-3.4401 1.2237-5 1.8998v190.63h-22.251c0.7137 1.7613 1.4927 3.4263 2.348 5h19.903v17.726c1.5851 0.67686 3.247 1.2941 5 1.8631v-19.589h200.9c0.85532-1.5737 1.6343-3.2387 2.348-5h-203.25z" fill="#928374" style="isolation:isolate"/>
  <g transform="matrix(.85394 0 0 .85394 -63.269 31.402)" stroke-width="1.9717">
    <path d="m116.7 134.1h110.42c4.3594 0 7.8869 3.5275 7.8869 7.8869v70.982c0 4.3594-3.5276 7.887-7.8869 7.887h-110.42c-4.3594 0-7.8869-3.5276-7.8869-7.887v-70.982c0-4.3594 3.5276-7.8869 7.8869-7.8869z" fill="#282828" opacity=".2"/>
    <path d="m116.7 128.24h110.42c4.3594 0 7.8869 3.5275 7.8869 7.8869v70.982c0 4.3594-3.5276 7.8869-7.8869 7.8869h-110.42c-4.3594 0-7.8869-3.5276-7.8869-7.8869v-70.982c0-4.3594 3.5276-7.8869 7.8869-7.8869z" fill="#689d6a"/>
    <path d="m108.81 183.45v3.9435c0 4.3671 3.5198 7.8869 7.8869 7.8869h110.42c4.3671 0 7.8869-3.5199 7.8869-7.8869v-3.9435c0 4.3671-3.5199 7.887-7.8869 7.887h-110.42c-4.3671 0-7.8869-3.5199-7.8869-7.887z" fill="#ebdbb2" opacity=".3"/>
    <path d="m108.81 191.34v3.9435c0 4.3671 3.5198 7.8869 7.8869 7.8869h110.42c4.3671 0 7.8869-3.5199 7.8869-7.8869v-3.9435c0 4.3671-3.5199 7.8869-7.8869 7.8869h-110.42c-4.3671 0-7.8869-3.5199-7.8869-7.8869z" fill="#ebdbb2" opacity=".3"/>
    <path d="m108.81 199.23v3.9435c0 4.3671 3.5198 7.8869 7.8869 7.8869h110.42c4.3671 0 7.8869-3.5199 7.8869-7.8869v-3.9435c0 4.3671-3.5199 7.8869-7.8869 7.8869h-110.42c-4.3671 0-7.8869-3.5199-7.8869-7.8869z" fill="#ebdbb2" opacity=".3"/>
    <path d="m116.7 120.36h110.42c4.3594 0 7.8869 3.5276 7.8869 7.887v55.209c0 4.3594-3.5276 7.887-7.8869 7.887h-110.42c-4.3594 0-7.8869-3.5276-7.8869-7.887v-55.209c0-4.3594 3.5276-7.887 7.8869-7.887z" fill="#8ec07c"/>
    <path d="m116.7 120.36c-4.3593 0-7.8867 3.5273-7.8867 7.8867v3.9375c0-4.3594 3.5274-7.8867 7.8867-7.8867h110.42c4.3594 0 7.8887 3.5273 7.8887 7.8867v-3.9375c0-4.3594-3.5293-7.8867-7.8887-7.8867z" fill="#ebdbb2" opacity=".2"/>
    <path d="m124.58 128.24c0 4.3594-3.5276 7.8869-7.887 7.8869v39.435c4.3594 0 7.887 3.5276 7.887 7.8869h94.643c0-4.3594 3.5276-7.8869 7.8869-7.8869v-39.435c-4.3594 0-7.8869-3.5276-7.8869-7.8869z" fill="#427b58"/>
    <path d="m171.9 136.13c-6.4525 0-12.181 3.0966-15.778 7.8869h-11.827c-2.1797 0-3.9435 1.7638-3.9435 3.9435v15.774c0 2.1797 1.7638 3.9435 3.9435 3.9435h11.827c3.5969 4.7904 9.3252 7.887 15.778 7.887 6.4525 0 12.181-3.0966 15.778-7.887h11.827c2.1797 0 3.9435-1.7638 3.9435-3.9435v-15.774c0-2.1797-1.7638-3.9435-3.9435-3.9435h-11.827c-3.5969-4.7904-9.3252-7.8869-15.778-7.8869z" fill="#8ec07c"/>
    <path d="m164.02 120.36h15.774v70.982h-15.774z" fill="#a89984"/>
    <path d="m164.02 191.34h15.774v23.661h-15.774z" fill="#7c6f64"/>
  </g>
  <g transform="translate(-119.5 121.5)" stroke-linecap="square" stroke-linejoin="round" stroke-miterlimit="0">
    <path d="m317.5 57.5a32.5 17.5 0 0 0-32.5 17.5v6c3.3e-4 9.665 14.551 17.5 32.5 17.5s32.5-7.835 32.5-17.5v-6a32.5 17.5 0 0 0-32.5-17.5z" fill="#282828" opacity=".15" stroke-width="2" style="paint-order:markers fill stroke"/>
    <path d="m317.5 52.5a32.5 17.5 0 0 0-32.5 17.5v6c3.3e-4 9.665 14.551 17.5 32.5 17.5 17.949-1e-6 32.5-7.835 32.5-17.5v-6a32.5 17.5 0 0 0-32.5-17.5z" fill="#d79921" stroke-width="2" style="paint-order:markers fill stroke"/>
    <ellipse cx="317.5" cy="72" rx="27" ry="14" fill="#282828" opacity=".2" stroke-width="1.6305" style="paint-order:markers fill stroke"/>
    <ellipse cx="317.5" cy="70" rx="27" ry="14" fill="#fabd2f" stroke-width="1.6305" style="paint-order:markers fill stroke"/>
    <path d="m317.5 56a27 14 0 0 0-27 14 27 14 0 0 0 0.12695 1 27 14 0 0 1 26.873-13 27 14 0 0 1 26.898 12.801 27 14 0 0 0 0.10156-0.80078 27 14 0 0 0-27-14z" fill="#ebdbb2" opacity=".3" stroke-width="1.6305" style="paint-order:markers fill stroke"/>
    <path d="m317.5 40.759a32.5 17.5 0 0 0-32.5 17.5v6c3.3e-4 9.665 14.551 17.5 32.5 17.5 17.949-1e-6 32.5-7.835 32.5-17.5v-6a32.5 17.5 0 0 0-32.5-17.5z" fill="#d79921" stroke-width="2" style="paint-order:markers fill stroke"/>
    <ellipse cx="317.5" cy="60.259" rx="27" ry="14" fill="#282828" opacity=".2" stroke-width="1.6305" style="paint-order:markers fill stroke"/>
    <ellipse cx="317.5" cy="58.259" rx="27" ry="14" fill="#fabd2f" stroke-width="1.6305" style="paint-order:markers fill stroke"/>
    <path d="m317.5 44.259a27 14 0 0 0-27 14 27 14 0 0 0 0.12695 1 27 14 0 0 1 26.873-13 27 14 0 0 1 26.898 12.801 27 14 0 0 0 0.10156-0.80078 27 14 0 0 0-27-14z" fill="#ebdbb2" opacity=".3" stroke-width="1.6305" style="paint-order:markers fill stroke"/>
    <path d="m317.5 29.018a32.5 17.5 0 0 0-32.5 17.5v6c3.3e-4 9.665 14.551 17.5 32.5 17.5 17.949-1e-6 32.5-7.835 32.5-17.5v-6a32.5 17.5 0 0 0-32.5-17.5z" fill="#d79921" stroke-width="2" style="paint-order:markers fill stroke"/>
    <ellipse cx="317.5" cy="48.518" rx="27" ry="14" fill="#282828" opacity=".2" stroke-width="1.6305" style="paint-order:markers fill stroke"/>
    <ellipse cx="317.5" cy="46.518" rx="27" ry="14" fill="#fabd2f" stroke-width="1.6305" style="paint-order:markers fill stroke"/>
    <path d="m317.5 32.518a27 14 0 0 0-27 14 27 14 0 0 0 0.12695 1 27 14 0 0 1 26.873-13 27 14 0 0 1 26.898 12.801 27 14 0 0 0 0.10156-0.80078 27 14 0 0 0-27-14z" fill="#ebdbb2" opacity=".3" stroke-width="1.6305" style="paint-order:markers fill stroke"/>
    <path d="m317.5 17a32.5 17.5 0 0 0-32.5 17.5v6c3.3e-4 9.665 14.551 17.5 32.5 17.5 17.949-1e-6 32.5-7.835 32.5-17.5v-6a32.5 17.5 0 0 0-32.5-17.5z" fill="#d79921" stroke-width="2" style="paint-order:markers fill stroke"/>
    <ellipse cx="317.5" cy="36.5" rx="27" ry="14" fill="#282828" opacity=".2" stroke-width="1.6305" style="paint-order:markers fill stroke"/>
    <ellipse cx="317.5" cy="34.5" rx="27" ry="14" fill="#fabd2f" stroke-width="1.6305" style="paint-order:markers fill stroke"/>
    <path d="m317.5 20.5a27 14 0 0 0-27 14 27 14 0 0 0 0.12695 1 27 14 0 0 1 26.873-13 27 14 0 0 1 26.898 12.801 27 14 0 0 0 0.10156-0.80078 27 14 0 0 0-27-14z" fill="#ebdbb2" opacity=".3" stroke-width="1.6305" style="paint-order:markers fill stroke"/>
    <path d="m317.5 5.2592a32.5 17.5 0 0 0-32.5 17.5v6c3.3e-4 9.665 14.551 17.5 32.5 17.5 17.949-1e-6 32.5-7.835 32.5-17.5v-6a32.5 17.5 0 0 0-32.5-17.5z" fill="#d79921" stroke-width="2" style="paint-order:markers fill stroke"/>
    <ellipse cx="317.5" cy="24.759" rx="27" ry="14" fill="#282828" opacity=".2" stroke-width="1.6305" style="paint-order:markers fill stroke"/>
    <ellipse cx="317.5" cy="22.759" rx="27" ry="14" fill="#fabd2f" stroke-width="1.6305" style="paint-order:markers fill stroke"/>
    <path d="m317.5 8.7592a27 14 0 0 0-27 14 27 14 0 0 0 0.12695 1 27 14 0 0 1 26.873-13 27 14 0 0 1 26.898 12.801 27 14 0 0 0 0.10156-0.80078 27 14 0 0 0-27-14z" fill="#ebdbb2" opacity=".3" stroke-width="1.6305" style="paint-order:markers fill stroke"/>
    <path d="m317.5-7.7408a32.5 17.5 0 0 0-32.5 17.5v6c3.3e-4 9.665 14.551 17.5 32.5 17.5 17.949-1e-6 32.5-7.835 32.5-17.5v-6a32.5 17.5 0 0 0-32.5-17.5z" fill="#d79921" stroke-width="2" style="paint-order:markers fill stroke"/>
    <ellipse cx="317.5" cy="11.759" rx="27" ry="14" fill="#282828" opacity=".2" stroke-width="1.6305" style="paint-order:markers fill stroke"/>
    <ellipse cx="317.5" cy="9.7592" rx="27" ry="14" fill="#fabd2f" stroke-width="1.6305" style="paint-order:markers fill stroke"/>
    <path d="m317.5-4.2408a27 14 0 0 0-27 14 27 14 0 0 0 0.12695 1 27 14 0 0 1 26.873-13 27 14 0 0 1 26.898 12.801 27 14 0 0 0 0.10156-0.80078 27 14 0 0 0-27-14z" fill="#ebdbb2" opacity=".3" stroke-width="1.6305" style="paint-order:markers fill stroke"/>
  </g>
  <path d="m91 12c-72 0-85 15-85 87v56c0 70 13 85 85 85h74c72 0 85-15 85-85v-56c0-72-13-87-85-87zm0 4h74c68 0 80 15 80 83v56c0 66-12 81-80 81h-74c-68 0-80-15-80-81v-56c0-68 12-83 80-83z" fill="url(#linearGradient31)" style="isolation:isolate"/>
</svg>
