<svg width="256" height="256" version="1.1" xmlns="http://www.w3.org/2000/svg">
  <defs>
    <linearGradient id="linearGradient31" x1=".5002" x2=".5002" y2="1" gradientTransform="matrix(244,0,0,228,5.986,12)" gradientUnits="userSpaceOnUse">
      <stop stop-color="#ebdbb2" stop-opacity=".2" offset="0"/>
      <stop stop-color="#ebdbb2" stop-opacity=".05" offset=".1"/>
      <stop stop-opacity="0" offset=".7036"/>
      <stop stop-opacity=".1" offset=".8975"/>
      <stop stop-opacity=".2" offset="1"/>
    </linearGradient>
    <linearGradient id="linearGradient6" x1="140" x2="140" y1="12" y2="240" gradientTransform="translate(0,2)" gradientUnits="userSpaceOnUse">
      <stop stop-color="#458588" offset="0"/>
      <stop stop-color="#076678" offset="1"/>
    </linearGradient>
  </defs>
  <path d="m165 14c72 0 85 15 85 87v56c0 70-13 85-85 85h-74c-72 0-85-15-85-85v-56c0-72 13-87 85-87z" fill="url(#linearGradient6)" style="isolation:isolate"/>
  <path class="cls-1" d="m90.629 39.156c-0.8284 0.06441-1.6477 0.15668-2.4648 0.30078-0.99732-0.0018-1.3271 1.0378-1.1426 1.6836 0.21671 0.84267 0.49764 1.6677 0.8418 2.4668 1.8041 4.7508 3.7283 9.38 5.4121 14.131-3.5502-5.09e-4 -7.0969 0.12518-10.645 0.24024-0.84192 0-1.8032 0.18079-2.1641 1.2031-0.42096 0.96219 0.058809 1.8033 0.66016 2.4648 3.867 4.6491 18.503 22.136 26.582 29.588l2.7051 2.5254c0.36634 0.36634 1.4415 1.4027 2.6445 0.60156 1.0223-0.72165 0.78313-1.6835 0.48243-2.5254-2.8199-7.4914-5.5239-15.024-7.6816-22.736l7.3203-0.35547c3.0068-0.12027 5.7737 6.89e-4 4.0898-3.9082-3.5318-7.6822-6.9402-15.421-10.223-23.213-0.78178-2.1048-1.0831-2.3477-3.248-2.3477l-13.17-0.11914zm74.932 0-13.17 0.11914c-2.1649-1e-6 -2.4663 0.24286-3.248 2.3477-3.2825 7.792-6.6908 15.531-10.223 23.213-1.6838 3.9089 1.085 3.7879 4.0918 3.9082l7.3184 0.35547c-2.1577 7.7126-4.8598 15.245-7.6797 22.736-0.3007 0.84192-0.54186 1.8037 0.48047 2.5254 1.203 0.80116 2.2801-0.23522 2.6465-0.60156l2.7051-2.5254c8.0786-7.4517 22.713-24.939 26.58-29.588 0.60139-0.6615 1.0831-1.5027 0.66211-2.4648-0.36083-1.0223-1.3241-1.2031-2.166-1.2031-3.5476-0.11505-7.0944-0.24074-10.645-0.24024 2.6728-7.5412 5.6108-14.089 6.2559-16.598 0.18452-0.64579-0.14525-1.6854-1.1426-1.6836-0.81717-0.1441-1.6384-0.23637-2.4668-0.30078z" fill="#fabd2f" stroke-width=".60137"/>
  <path d="m95.457 27.73c-63.328 0-74.762 13.194-74.762 76.521v49.256c0 61.569 11.434 74.762 74.762 74.762h65.086c63.328 0 74.762-13.193 74.762-74.762v-49.256c0-63.328-11.434-76.521-74.762-76.521h-65.086zm3.9199 12.082h57.246c55.697 0 65.754 11.604 65.754 67.301v43.32c0 54.15-10.057 65.754-65.754 65.754h-21.553v-20.037c16.501-1.838 28.983-15.786 28.986-32.389v-32.535h-12.568v-28.086c0-4.331-3.4893-7.8164-7.8203-7.8164-4.3311 0-7.8164 3.4854-7.8164 7.8164v28.086h-15.875v-28.086c0-4.3311-3.4873-7.8164-7.8184-7.8164s-7.8184 3.4853-7.8184 7.8164v28.086h-13.289v32.594c0.05956 16.56 12.526 30.444 28.984 32.277v20.09h-20.658c-55.697 0-65.754-11.604-65.754-65.754v-43.32c0-55.697 10.057-67.301 65.754-67.301z" fill="#ebdbb2" stroke-width=".87955" style="isolation:isolate"/>
  <path d="m91 12c-72 0-85 15-85 87v56c0 70 13 85 85 85h74c72 0 85-15 85-85v-56c0-72-13-87-85-87zm0 4h74c68 0 80 15 80 83v56c0 66-12 81-80 81h-74c-68 0-80-15-80-81v-56c0-68 12-83 80-83z" fill="url(#linearGradient31)" style="isolation:isolate"/>
</svg>
