<svg width="256" height="256" version="1.1" xmlns="http://www.w3.org/2000/svg">
  <defs>
    <linearGradient id="linearGradient31" x1=".5002" x2=".5002" y2="1" gradientTransform="matrix(244,0,0,228,5.986,12)" gradientUnits="userSpaceOnUse">
      <stop stop-color="#ebdbb2" stop-opacity=".2" offset="0"/>
      <stop stop-color="#ebdbb2" stop-opacity=".05" offset=".1"/>
      <stop stop-opacity="0" offset=".7036"/>
      <stop stop-opacity=".1" offset=".8975"/>
      <stop stop-opacity=".2" offset="1"/>
    </linearGradient>
    <linearGradient id="linearGradient6" x1="140" x2="140" y1="12" y2="240" gradientUnits="userSpaceOnUse">
      <stop stop-color="#8ec07c" offset="0"/>
      <stop stop-color="#427b58" offset="1"/>
    </linearGradient>
    <linearGradient id="linearGradient9" x1="153.2" x2="153.2" y1="68.869" y2="240" gradientUnits="userSpaceOnUse">
      <stop stop-color="#fabd2f" offset="0"/>
      <stop stop-color="#d79921" offset="1"/>
    </linearGradient>
    <linearGradient id="linearGradient11" x1="82.792" x2="82.792" y1="12.072" y2="140.65" gradientUnits="userSpaceOnUse">
      <stop stop-color="#fb4934" offset="0"/>
      <stop stop-color="#cc241d" offset="1"/>
    </linearGradient>
    <linearGradient id="_lgradient_77" x2="0" y1="1" gradientTransform="matrix(123.33 0 0 65 126.63 95.5)" gradientUnits="userSpaceOnUse">
      <stop stop-color="#3c3836" offset="0"/>
      <stop stop-color="#645a53" offset="1"/>
    </linearGradient>
  </defs>
  <path d="m165 12c72 0 85 15 85 87v56c0 70-13 85-85 85h-74c-72 0-85-15-85-85v-56c0-72 13-87 85-87z" fill="url(#linearGradient6)" style="isolation:isolate"/>
  <path d="m130.88 68.869c30.965 1.5623 54.783 27.811 54.793 57.604-0.0667 23.746-14.967 45.213-36.992 53.686l-34.92 59.842h51.234c72 0 85-15 85-85v-56c0-11.486-0.38986-21.376-1.2383-30.131z" fill="url(#linearGradient9)" style="isolation:isolate"/>
  <path d="m91 12c-42.446 0-64.376 5.2267-75.236 24.258 16.9 31.849 46.123 85.468 56.447 104.4-1.2152-4.6312-1.849-9.3957-1.8867-14.184 0.07556-29.971 23.094-54.89 52.965-57.338 1.6533-0.26562 5.1627-0.36824 7.5684-0.26562h117.9c-4.4699-46.127-23.248-56.869-83.762-56.869zm79.188 153.64-0.0312 0.0332-0.64063 1.0996z" fill="url(#linearGradient11)" style="isolation:isolate"/>
  <path d="m185.68 131.32a57.676 57.676 0 0 1-57.676 57.676 57.676 57.676 0 0 1-57.676-57.676 57.676 57.676 0 0 1 57.676-57.676 57.676 57.676 0 0 1 57.676 57.676z" fill="#282828" opacity=".3" stroke-width="17.302"/>
  <path d="m185.68 126.47a57.676 57.676 0 0 1-57.676 57.676 57.676 57.676 0 0 1-57.676-57.676 57.676 57.676 0 0 1 57.676-57.676 57.676 57.676 0 0 1 57.676 57.676z" fill="#ebdbb2" stroke-width="17.302"/>
  <path d="m128 68.797a57.676 57.676 0 0 0-57.678 57.676 57.676 57.676 0 0 0 0.17383 2.4258 57.676 57.676 0 0 1 57.504-55.25 57.676 57.676 0 0 1 57.568 54.332 57.676 57.676 0 0 0 0.10742-1.5078 57.676 57.676 0 0 0-57.676-57.676z" fill="#fbf1c7" opacity=".5"/>
  <path d="m170.6 125.97a42.603 42.603 0 0 1-42.603 42.603 42.603 42.603 0 0 1-42.603-42.603 42.603 42.603 0 0 1 42.603-42.603 42.603 42.603 0 0 1 42.603 42.603z" fill="#458588" stroke-linecap="round" stroke-width="1.3806" style="paint-order:markers fill stroke"/>
  <path d="m91 12c-72 0-85 15-85 87v56c0 70 13 85 85 85h74c72 0 85-15 85-85v-56c0-72-13-87-85-87zm0 4h74c68 0 80 15 80 83v56c0 66-12 81-80 81h-74c-68 0-80-15-80-81v-56c0-68 12-83 80-83z" fill="url(#linearGradient31)" style="isolation:isolate"/>
  <path d="m133.96 100c-18.741 0-33.955 14.563-33.955 32.5-1e-5 17.937 15.214 32.5 33.955 32.5h115.93c0.0709-3.2323 0.1124-6.4973 0.1124-10v-55z" fill="#282828" opacity=".3" style="isolation:isolate"/>
  <path d="m133.93 95.5h116.04v65h-116.04c-18.741 0-33.956-14.563-33.956-32.5s15.215-32.5 33.956-32.5z" fill="url(#_lgradient_77)" style="isolation:isolate"/>
  <path d="m137.09 114.73c5.0999 0 13.776 0.57675 13.776 8.544 0 5.8974-4.6101 7.3374-5.376 7.536v0.24c4.7285 1.1414 6.048 4.5126 6.048 7.92 0 6.1873-4.9153 10.032-13.056 10.032h-13.344v-34.272zm0.096 13.152c1.4744 0 4.176-0.39187 4.176-3.264 0-1.92-1.456-2.88-4.368-2.88h-2.592v6.144zm-2.784 6.768v7.2h3.264c2.5721 0.079 4.0792-1.1318 4.32-3.648 0-3.0642-2.7565-3.552-4.512-3.552zm43.44 14.352h-20.352v-34.272h20.352v7.44h-11.088v5.376h10.272v7.44h-10.272v6.48h11.088zm21.12 0h-9.264v-26.688h-8.352v-7.584h25.968v7.584h-8.352zm30.912 0-1.68-6.432h-11.136l-1.728 6.432h-10.176l11.184-34.416h12.336l11.328 34.416zm-7.296-28.752-3.6 14.736h7.296z" fill="#282828" opacity=".3" aria-label="BETA"/>
  <path d="m137.09 110.94c5.0999 0 13.776 0.57675 13.776 8.544 0 5.8974-4.6101 7.3374-5.376 7.536v0.24c4.7285 1.1414 6.048 4.5126 6.048 7.92 0 6.1873-4.9153 10.032-13.056 10.032h-13.344v-34.272zm0.096 13.152c1.4744 0 4.176-0.39187 4.176-3.264 0-1.92-1.456-2.88-4.368-2.88h-2.592v6.144zm-2.784 6.768v7.2h3.264c2.5721 0.079 4.0792-1.1318 4.32-3.648 0-3.0642-2.7565-3.552-4.512-3.552zm43.44 14.352h-20.352v-34.272h20.352v7.44h-11.088v5.376h10.272v7.44h-10.272v6.48h11.088zm21.12 0h-9.264v-26.688h-8.352v-7.584h25.968v7.584h-8.352zm30.912 0-1.68-6.432h-11.136l-1.728 6.432h-10.176l11.184-34.416h12.336l11.328 34.416zm-7.296-28.752-3.6 14.736h7.296z" fill="#ebdbb2" aria-label="BETA"/>
</svg>
