<svg width="256" height="256" version="1.1" xmlns="http://www.w3.org/2000/svg" xmlns:xlink="http://www.w3.org/1999/xlink">
  <defs>
    <linearGradient id="linearGradient10" x1="128" x2="128" y1="12" y2="240" gradientUnits="userSpaceOnUse">
      <stop stop-color="#ebdbb2" stop-opacity=".2" offset="0"/>
      <stop stop-color="#ebdbb2" stop-opacity="0" offset=".24921"/>
      <stop stop-color="#1d2021" stop-opacity=".05" offset=".50485"/>
      <stop stop-color="#1d2021" stop-opacity=".15" offset=".75285"/>
      <stop stop-color="#1d2021" stop-opacity=".25" offset="1"/>
    </linearGradient>
    <linearGradient id="linearGradient15" x1="128" x2="128" y1="12" y2="240" gradientUnits="userSpaceOnUse">
      <stop stop-color="#8ec07c" offset="0"/>
      <stop stop-color="#689d6a" offset="1"/>
    </linearGradient>
    <radialGradient id="d" cx="94.601" cy="83.23" r="26.017" gradientTransform="matrix(1.4062 0 0 1.4062 38.002 39.518)" gradientUnits="userSpaceOnUse">
      <stop stop-color="#8ec07c" offset="0"/>
      <stop stop-color="#689d6a" offset="1"/>
    </radialGradient>
    <linearGradient id="b" x1="81.477" x2="119.8" y1="49.029" y2="112.6" gradientTransform="matrix(1.4556 0 0 1.3585 38.002 39.518)" gradientUnits="userSpaceOnUse">
      <stop stop-color="#689d6a" offset="0"/>
      <stop stop-color="#427b58" offset="1"/>
    </linearGradient>
    <linearGradient id="a" x1="3.8644" x2="119.8" y1="124.21" y2="124.21" gradientTransform="matrix(1.4556 0 0 1.3585 38.002 39.518)" gradientUnits="userSpaceOnUse">
      <stop stop-color="#689d6a" offset="0"/>
      <stop stop-color="#8ec07c" offset=".08846"/>
      <stop stop-color="#427b58" offset=".27807"/>
      <stop stop-color="#427b58" offset=".70167"/>
      <stop stop-color="#8ec07c" offset=".90536"/>
      <stop stop-color="#689d6a" offset="1"/>
    </linearGradient>
    <radialGradient id="radialGradient16" cx="89" cy="13.922" r="9" gradientTransform="matrix(1.4062 0 0 1.4062 38.002 39.518)" gradientUnits="userSpaceOnUse">
      <stop stop-color="#ebdbb2" offset="0"/>
      <stop stop-color="#8ec07c" offset="1"/>
    </radialGradient>
    <radialGradient id="radialGradient17" cx="30" cy="13.922" r="9" gradientTransform="matrix(1.4062 0 0 1.4062 38.002 39.518)" gradientUnits="userSpaceOnUse">
      <stop stop-color="#ebdbb2" offset="0"/>
      <stop stop-color="#8ec07c" offset="1"/>
    </radialGradient>
  </defs>
  <path d="m165 12c72 0 85 15 85 87v56c0 70-13 85-85 85h-74c-72 0-85-15-85-85v-56c0-72 13-87 85-87z" fill="url(#linearGradient15)" style="isolation:isolate"/>
  <path d="m122.38 50.768h11.25c43.491 0 78.748 35.257 78.748 78.748v51.708c0 9.4025-0.979 12.812-2.8173 16.249-1.8384 3.4374-4.5361 6.1351-7.9735 7.9735-3.4374 1.8383-6.847 2.8173-16.249 2.8173h-114.66c-9.4025 0-12.812-0.97899-16.249-2.8173-3.4374-1.8384-6.1351-4.536-7.9735-7.9735-1.8383-3.4374-2.8173-6.847-2.8173-16.249v-51.708c0-43.491 35.257-78.748 78.748-78.748z" fill="url(#a)" stroke-width="1.4062"/>
  <path d="m122.38 45.143h11.25c43.491 0 78.748 35.257 78.748 78.748v51.708c0 9.4025-0.979 12.812-2.8173 16.249-1.8384 3.4374-4.5361 6.1351-7.9735 7.9734-3.4374 1.8384-6.847 2.8174-16.249 2.8174h-114.66c-9.4025 0-12.812-0.979-16.249-2.8174-3.4374-1.8384-6.1351-4.536-7.9735-7.9734-1.8383-3.4374-2.8173-6.847-2.8173-16.249v-51.708c0-43.491 35.257-78.748 78.748-78.748z" fill="url(#b)" stroke-width="1.4062"/>
  <path d="m81.596 43.736a22.499 22.499 0 0 0-22.5 22.5 22.499 22.499 0 0 0 22.5 22.5 22.499 22.499 0 0 0 22.498-22.5 22.499 22.499 0 0 0-22.498-22.5zm80.154 0a22.499 22.499 0 0 0-22.5 22.5 22.499 22.499 0 0 0 22.5 22.5 22.499 22.499 0 0 0 22.498-22.5 22.499 22.499 0 0 0-22.498-22.5z" fill="#689d6a" stroke-width="1.4062"/>
  <path d="m81.596 43.736a22.499 22.499 0 0 0-22.5 22.5 22.499 22.499 0 0 0 0.18359 2.834 22.499 22.499 0 0 1 22.316-19.709 22.499 22.499 0 0 1 14.994 5.7246c8.0789-2.7985 16.754-4.3184 25.785-4.3184h11.25c5.7019 0 11.261 0.60669 16.619 1.7578a22.499 22.499 0 0 1 11.506-3.1641 22.499 22.499 0 0 1 22.32 19.684c17.245 14.402 28.237 36.043 28.303 60.252v-5.4063c0-24.298-11.006-46.025-28.303-60.471a22.499 22.499 0 0 0-22.32-19.684 22.499 22.499 0 0 0-11.506 3.1641c-5.3579-1.1511-10.917-1.7578-16.619-1.7578h-11.25c-9.031 0-17.706 1.5199-25.785 4.3184a22.499 22.499 0 0 0-14.994-5.7246zm-22.039 32.658c-9.9986 13.203-15.93 29.657-15.93 47.496v5.625c0-18.561 6.4212-35.623 17.164-49.084a22.499 22.499 0 0 1-1.2344-4.0371z" fill="#ebdbb2" opacity=".15" stroke-width="1.4062"/>
  <path d="m117.45 80.298c31.454 0 56.952 25.498 56.952 56.952v65.389h-52.733c-12.313 0-23.213-2.6925-32.276-7.6506-9.0623-4.9581-16.286-12.182-21.244-21.244-4.9581-9.0623-7.6506-19.963-7.6506-32.276v-4.2186c0-31.453 25.498-56.952 56.952-56.952z" fill="#427b58" stroke-width="1.4062"/>
  <path d="m117.45 88.736c-30.812 0-55.908 24.468-56.92 55.033 0.31508 11.373 2.9721 21.481 7.6191 29.975 4.9581 9.0622 12.182 16.286 21.244 21.244 9.0623 4.9581 19.963 7.6504 32.275 7.6504h52.732v-56.951c0-31.454-25.498-56.951-56.951-56.951z" fill="#8ec07c" stroke-width="1.4062"/>
  <path d="m117.45 88.736c-30.812 0-55.908 24.468-56.92 55.033 0.31508 11.373 2.9721 21.481 7.6191 29.975 4.9581 9.0622 12.182 16.286 21.244 21.244 9.0623 4.9581 19.963 7.6504 32.275 7.6504h52.732v-56.951c0-31.454-25.498-56.951-56.951-56.951z" fill="#ebdbb2" opacity=".6" stroke-width="1.4062"/>
  <path d="m212.37 129.52v46.083c0 9.4025-0.979 12.812-2.8173 16.249-1.8384 3.4374-4.5361 6.1351-7.9735 7.9734-3.4374 1.8384-6.847 2.8174-16.249 2.8174h-46.083c0-40.385 32.738-73.123 73.123-73.123z" fill="url(#d)" stroke-width="1.4062"/>
  <path d="m212.37 129.52c-40.385 0-73.123 32.738-73.123 73.123h0.21289c2.8722-37.757 34.418-67.498 72.91-67.498v-5.625z" fill="#ebdbb2" opacity=".15" stroke-width="1.4062"/>
  <path d="m80.189 52.688a12.656 12.656 0 0 0-12.656 12.656 12.656 12.656 0 0 0 12.656 12.656 12.656 12.656 0 0 0 12.656-12.656 12.656 12.656 0 0 0-12.656-12.656zm82.967 0a12.656 12.656 0 0 0-12.656 12.656 12.656 12.656 0 0 0 12.656 12.656 12.656 12.656 0 0 0 12.656-12.656 12.656 12.656 0 0 0-12.656-12.656z" fill="#282828" opacity=".2" stroke-width="1.4062"/>
  <circle cx="163.16" cy="63.424" r="12.656" fill="url(#radialGradient16)" stroke-width="1.4062"/>
  <circle cx="80.189" cy="63.424" r="12.656" fill="url(#radialGradient17)" stroke-width="1.4062"/>
  <path d="m80.189 50.768a12.656 12.656 0 0 0-12.656 12.656 12.656 12.656 0 0 0 0.0625 0.95898 12.656 12.656 0 0 1 12.594-11.695 12.656 12.656 0 0 1 12.59 11.695 12.656 12.656 0 0 0 0.064453-0.95898 12.656 12.656 0 0 0-12.654-12.656zm82.967 0a12.656 12.656 0 0 0-12.656 12.656 12.656 12.656 0 0 0 0.0625 0.95898 12.656 12.656 0 0 1 12.594-11.695 12.656 12.656 0 0 1 12.59 11.695 12.656 12.656 0 0 0 0.06446-0.95898 12.656 12.656 0 0 0-12.654-12.656z" fill="#ebdbb2" opacity=".3" stroke-width="1.4062"/>
  <path d="m75.97 60.969c-1.9416 0-3.5156 1.5741-3.5156 3.5156 0 1.9416 1.5741 3.5156 3.5156 3.5156h7.0313c1.9416 0 3.5156-1.5741 3.5156-3.5156 0-1.9416-1.574-3.5156-3.5156-3.5156zm82.967 0c-1.9416 0-3.5156 1.5741-3.5156 3.5156 0 1.9416 1.574 3.5156 3.5156 3.5156h7.0312c1.9416 0 3.5156-1.5741 3.5156-3.5156 0-1.9416-1.5741-3.5156-3.5156-3.5156z" fill="#ebdbb2" opacity=".3" stroke-width="1.4062"/>
  <path d="m155.42 63.424c0-1.9416 1.574-3.5155 3.5155-3.5155h7.0311c1.9416 0 3.5155 1.574 3.5155 3.5155 0 1.9416-1.574 3.5155-3.5155 3.5155h-7.0311c-1.9416 0-3.5155-1.574-3.5155-3.5155z" fill="#3c3836" stroke-width="1.4062"/>
  <path d="m72.455 63.424c0-1.9416 1.574-3.5155 3.5155-3.5155h7.0311c1.9416 0 3.5155 1.574 3.5155 3.5155 0 1.9416-1.574 3.5155-3.5155 3.5155h-7.0311c-1.9416 0-3.5155-1.574-3.5155-3.5155z" fill="#3c3836" stroke-width="1.4062"/>
  <path d="m75.971 59.908c-1.9416 0-3.5156 1.5741-3.5156 3.5156 0 0.1802 0.012909 0.35639 0.039063 0.5293 0.2559-1.6897 1.7154-2.9844 3.4766-2.9844h7.0312c1.7614 0 3.219 1.2963 3.4746 2.9863 0.026217-0.17311 0.041016-0.35083 0.041016-0.53125 0-1.9416-1.5741-3.5156-3.5156-3.5156h-7.0312zm82.967 0c-1.9416 0-3.5156 1.5741-3.5156 3.5156 0 0.18021 0.0129 0.35638 0.03906 0.5293 0.25589-1.6898 1.7154-2.9844 3.4766-2.9844h7.0293c1.7614 0 3.219 1.2963 3.4746 2.9863 0.02621-0.1731 0.04101-0.35083 0.04101-0.53125 0-1.9416-1.574-3.5156-3.5156-3.5156h-7.0293z" fill="#282828" stroke-width="1.4062"/>
  <circle cx="164.56" cy="62.977" r="1.4062" fill="#282828" stroke-width="1.4062"/>
  <circle cx="81.595" cy="62.977" r="1.4062" fill="#282828" stroke-width="1.4062"/>
  <circle cx="164.56" cy="62.375" r="1.4062" fill="#ebdbb2" stroke-width="1.4062"/>
  <circle cx="81.595" cy="62.375" r="1.4062" fill="#ebdbb2" stroke-width="1.4062"/>
  <path d="m81.596 60.969a1.4062 1.4062 0 0 0-1.4062 1.4062 1.4062 1.4062 0 0 0 0.035156 0.30078 1.4062 1.4062 0 0 1 1.3711-1.1055 1.4062 1.4062 0 0 1 1.3691 1.1055 1.4062 1.4062 0 0 0 0.037109-0.30078 1.4062 1.4062 0 0 0-1.4062-1.4062zm82.967 0a1.4062 1.4062 0 0 0-1.4062 1.4062 1.4062 1.4062 0 0 0 0.03516 0.30078 1.4062 1.4062 0 0 1 1.3711-1.1055 1.4062 1.4062 0 0 1 1.3672 1.1055 1.4062 1.4062 0 0 0 0.03711-0.30078 1.4062 1.4062 0 0 0-1.4043-1.4062z" fill="#fbf1c7" opacity=".6" stroke-width="1.4062"/>
  <path d="m91 12c-72 0-85 15-85 87v56c0 70 13 85 85 85h74c72 0 85-15 85-85v-56c0-72-13-87-85-87zm0 5h74c35.653 0 55.307 3.9448 65.895 14.965 10.588 11.02 14.105 31.336 14.105 67.035v56c0 34.69-3.4936 54.457-14.07 65.25-10.577 10.793-30.277 14.75-65.93 14.75h-74c-35.653 0-55.353-3.9574-65.93-14.75-10.577-10.793-14.07-30.56-14.07-65.25v-56c0-35.699 3.5176-56.015 14.105-67.035 10.588-11.02 30.242-14.965 65.895-14.965z" fill="url(#linearGradient10)" style="isolation:isolate"/>
</svg>
