<svg width="256" height="256" viewBox="0 0 67.73 67.73" xmlns="http://www.w3.org/2000/svg">
    <defs>
        <linearGradient id="d" x1="296" x2="296" y1="-212" y2="236" gradientUnits="userSpaceOnUse">
            <stop offset="0" stop-color="#ebdbb2"/>
            <stop offset=".125" stop-color="#ebdbb2" stop-opacity=".098"/>
            <stop offset=".925" stop-opacity=".098"/>
            <stop offset="1" stop-opacity=".498"/>
        </linearGradient>
        <clipPath id="c">
            <path d="M361.938-212C507.235-212 528-191.287 528-46.125v116.25C528 215.286 507.235 236 361.937 236H214.063C68.766 236 48 215.286 48 70.125v-116.25C48-191.287 68.765-212 214.063-212z" fill="#b16286"/>
        </clipPath>
        <filter id="b" x="-.02" y="-.03" width="1.046" height="1.05" color-interpolation-filters="sRGB">
            <feGaussianBlur stdDeviation="2.32"/>
        </filter>
        <filter id="a" x="-.01" y="-.01" width="1.023" height="1.025" color-interpolation-filters="sRGB">
            <feGaussianBlur stdDeviation="1.16"/>
        </filter>
        <filter id="e" x="-.05" y="-.05" width="1.096" height="1.096" color-interpolation-filters="sRGB">
            <feGaussianBlur stdDeviation="1.058"/>
        </filter>
    </defs>
    <path transform="matrix(.2697 0 0 .2697 -7.129 -8.706)" d="M188.969 44C261.617 44 272 54.357 272 126.938v58.124C272 257.644 261.617 268 188.969 268H115.03C42.383 268 32 257.643 32 185.062v-58.125C32 54.358 42.383 44 115.031 44z" filter="url(#a)" opacity=".1"/>
    <path transform="matrix(.2697 0 0 .2697 -7.129 -8.706)" d="M188.969 46C261.617 46 272 56.357 272 128.938v58.125c0 72.58-10.383 82.937-83.031 82.937H115.03C42.383 270 32 259.643 32 187.062v-58.125C32 56.358 42.383 46 115.031 46z" filter="url(#b)" opacity=".2"/>
    <path d="M43.837 3.161c19.594 0 22.395 2.793 22.395 22.369v15.677c0 19.575-2.8 22.369-22.395 22.369H23.896c-19.594 0-22.394-2.794-22.394-22.37V25.53c0-19.576 2.8-22.369 22.394-22.369z" fill="#282828"/>
    <path transform="matrix(.13485 0 0 .13485 -4.971 31.75)" d="M361.938-212C507.235-212 528-191.287 528-46.125v116.25C528 215.286 507.235 236 361.937 236H214.063C68.766 236 48 215.286 48 70.125v-116.25C48-191.287 68.765-212 214.063-212z" clip-path="url(#c)" fill="none" opacity=".2" stroke-linecap="round" stroke-linejoin="round" stroke-width="8" stroke="url(#d)"/>
    <path d="M33.785 3.088v60.415h9.97c19.595 0 22.395-2.794 22.395-22.37V25.458c0-19.576-2.8-22.369-22.394-22.369z" fill-opacity=".996" fill="#ebdbb2" opacity=".1"/>
    <path d="M23.814 63.503c-19.594 0-22.394-2.794-22.394-22.37v-7.838h64.73v7.839c0 19.575-2.8 22.369-22.394 22.369z" fill-opacity=".996" fill="#ebdbb2" opacity=".1"/>
    <path d="M31.122 288.956c-3.92-.408-8.56-2.055-11.709-4.156-2.492-1.664-4.93-3.933-6.641-6.18-2.923-3.84-4.753-8.51-5.27-13.446-.184-1.764-.088-5.055.199-6.788a26.687 26.687 0 0 1 7.442-14.508c3.967-3.967 8.939-6.51 14.587-7.46 1.93-.324 6.61-.322 8.366.004 7.722 1.431 13.852 5.428 17.989 11.727.812 1.236 1.161 1.881 1.066 1.97-.029.026-3.91 1.095-8.626 2.374l-17.467 4.743c-10.68 2.903-13.104 3.55-13.155 3.512-.102-.078.307-1.935.691-3.137.458-1.433 1.535-3.676 1.848-3.85.209-.116 23.371-6.429 25.43-6.93.302-.074.528-.196.504-.272-.081-.253-1.932-1.461-3.226-2.105a23.667 23.667 0 0 0-5.227-1.835c-1.115-.243-1.688-.283-4.05-.283-3.104 0-4.21.17-6.673 1.027-3.047 1.06-5.437 2.562-7.723 4.853-2.376 2.382-3.863 4.785-4.921 7.948-.823 2.463-1.072 4.24-.99 7.084.072 2.54.313 3.93 1.053 6.085 2.174 6.33 7.504 11.27 13.998 12.974 2.096.55 3.524.693 6.067.61 3.184-.104 5.559-.698 8.338-2.087 3.05-1.523 5.956-4.092 7.822-6.91.958-1.45 2.09-3.682 1.941-3.83-.07-.072-3.419.813-13.282 3.507-3.343.914-7.621 2.071-9.507 2.572l-3.43.91-.691-.395c-.938-.536-2.16-1.447-2.993-2.23-.755-.71-1.975-2.121-1.899-2.197.027-.027 2.607-.736 5.733-1.576 3.127-.84 8.104-2.19 11.06-2.999 2.956-.81 7.419-2.02 9.917-2.69 2.498-.67 6.24-1.682 8.316-2.25 2.075-.567 3.86-1.046 3.966-1.062.522-.083.448 3.39-.134 6.239-.359 1.759-1.275 4.455-2.086 6.142-2.556 5.316-6.932 9.73-12.173 12.283-4.538 2.21-9.579 3.12-14.46 2.612zM19.058 268.91c-.609-1.43-.924-2.705-1.233-4.986-.03-.22.05-.313.36-.41.397-.126 7.18-1.96 17.032-4.604 2.885-.774 7.578-2.039 10.429-2.809 7.49-2.025 12.576-3.374 12.79-3.393.33-.03 1.45 3.396 1.732 5.3l.087.583-4.97 1.317c-2.733.724-7.502 2.005-10.6 2.847-3.096.841-7.155 1.934-9.02 2.428a2334.72 2334.72 0 0 0-9.732 2.617c-3.487.945-6.402 1.718-6.478 1.718-.076 0-.255-.273-.397-.608z" filter="url(#e)" opacity=".3" transform="translate(0 -229.267)"/>
    <path d="M31.122 59.69c-3.92-.408-8.56-2.055-11.709-4.157-2.492-1.664-4.93-3.932-6.641-6.18-2.923-3.84-4.753-8.51-5.27-13.446-.184-1.764-.088-5.055.199-6.788a26.687 26.687 0 0 1 7.442-14.508c3.967-3.967 8.939-6.51 14.587-7.459 1.93-.324 6.61-.323 8.366.003 7.722 1.432 13.852 5.428 17.989 11.727.812 1.237 1.161 1.882 1.066 1.97-.029.026-3.91 1.095-8.626 2.374-4.716 1.28-12.576 3.414-17.467 4.744-10.68 2.903-13.104 3.55-13.155 3.512-.102-.078.307-1.936.691-3.138.458-1.432 1.535-3.676 1.848-3.85.209-.116 23.371-6.428 25.43-6.93.302-.074.528-.196.504-.272-.081-.253-1.932-1.461-3.226-2.105a23.667 23.667 0 0 0-5.227-1.835c-1.115-.243-1.688-.283-4.05-.283-3.104 0-4.21.17-6.673 1.027-3.047 1.06-5.437 2.562-7.723 4.853-2.376 2.382-3.863 4.785-4.921 7.948-.823 2.463-1.072 4.24-.99 7.085.072 2.539.313 3.929 1.053 6.084 2.174 6.33 7.504 11.27 13.998 12.974 2.096.55 3.524.694 6.067.61 3.184-.103 5.559-.698 8.338-2.086 3.05-1.524 5.956-4.092 7.822-6.912.958-1.448 2.09-3.68 1.941-3.829-.07-.071-3.419.813-13.282 3.508-3.343.913-7.621 2.07-9.507 2.571l-3.43.911-.691-.395c-.938-.537-2.16-1.447-2.993-2.23-.755-.71-1.975-2.122-1.899-2.198.027-.026 2.607-.735 5.733-1.575 3.127-.84 8.104-2.19 11.06-3 2.956-.809 7.419-2.02 9.917-2.69 2.498-.67 6.24-1.682 8.316-2.25 2.075-.567 3.86-1.045 3.966-1.062.522-.083.448 3.39-.134 6.24-.359 1.758-1.275 4.455-2.086 6.142-2.556 5.316-6.932 9.73-12.173 12.282-4.538 2.21-9.579 3.12-14.46 2.613zM19.058 39.643c-.609-1.432-.924-2.706-1.233-4.987-.03-.22.05-.312.36-.41.397-.126 7.18-1.96 17.032-4.604 2.885-.774 7.578-2.038 10.429-2.809 7.49-2.025 12.576-3.374 12.79-3.393.33-.03 1.45 3.396 1.732 5.3l.087.583-4.97 1.317c-2.733.725-7.502 2.006-10.6 2.847-3.096.842-7.155 1.934-9.02 2.428a2334.72 2334.72 0 0 0-9.732 2.617c-3.487.945-6.402 1.719-6.478 1.719-.076 0-.255-.274-.397-.608z" fill="#ebdbb2"/>
</svg>
