<svg width="256" height="256" viewBox="0 0 67.73 67.73" xmlns="http://www.w3.org/2000/svg" xmlns:xlink="http://www.w3.org/1999/xlink">
    <defs>
        <linearGradient id="b">
            <stop offset="0" stop-color="#ebdbb2"/>
            <stop offset="1" stop-color="#a89984"/>
        </linearGradient>
        <linearGradient id="a">
            <stop offset="0" stop-color="#282828"/>
            <stop offset="1" stop-color="#a89984"/>
        </linearGradient>
        <clipPath id="e">
            <path d="M361.938-212C507.235-212 528-191.287 528-46.125v116.25C528 215.286 507.235 236 361.937 236H214.063C68.766 236 48 215.286 48 70.125v-116.25C48-191.287 68.765-212 214.063-212z" fill="#b16286"/>
        </clipPath>
        <filter id="d" x="-.01" y="-.01" width="1.023" height="1.025" color-interpolation-filters="sRGB">
            <feGaussianBlur stdDeviation="1.16"/>
        </filter>
        <filter id="c" x="-.02" y="-.03" width="1.046" height="1.05" color-interpolation-filters="sRGB">
            <feGaussianBlur stdDeviation="2.32"/>
        </filter>
        <linearGradient id="f" x1="296" x2="296" y1="-212" y2="236" gradientUnits="userSpaceOnUse">
            <stop offset="0" stop-color="#ebdbb2"/>
            <stop offset=".125" stop-color="#ebdbb2" stop-opacity=".098"/>
            <stop offset=".925" stop-opacity=".098"/>
            <stop offset="1" stop-opacity=".498"/>
        </linearGradient>
        <filter id="g" x="-.13" y="-.14" width="1.265" height="1.275" color-interpolation-filters="sRGB">
            <feGaussianBlur stdDeviation=".584"/>
        </filter>
        <linearGradient id="j" x1="23.869" x2="26.22" y1="17.664" y2="21.333" gradientUnits="userSpaceOnUse" xlink:href="#a"/>
        <linearGradient id="i" x1="23.544" x2="27.572" y1="14.335" y2="27.696" gradientTransform="matrix(1.65349 0 0 1.65349 -59.7 232.845)" gradientUnits="userSpaceOnUse" xlink:href="#b"/>
        <filter id="h" x="-.07" y="-.07" width="1.15" height="1.15" color-interpolation-filters="sRGB">
            <feGaussianBlur stdDeviation=".931"/>
        </filter>
        <filter id="k" x="-.07" y="-.07" width="1.15" height="1.15" color-interpolation-filters="sRGB">
            <feGaussianBlur stdDeviation=".931"/>
        </filter>
        <linearGradient id="m" x1="39.998" x2="263.998" y1="91.998" y2="91.998" gradientUnits="userSpaceOnUse">
            <stop offset="0" stop-opacity=".259"/>
            <stop offset=".491"/>
            <stop offset="1" stop-opacity="0"/>
        </linearGradient>
        <clipPath id="l">
            <path d="M39.998 108v113.082c0 35.297 3.624 38.92 38.992 38.92h146.014c35.368 0 38.994-3.623 38.994-38.92V108z"/>
        </clipPath>
    </defs>
    <path transform="matrix(.2697 0 0 .2697 -7.129 -8.706)" d="M188.969 46C261.617 46 272 56.357 272 128.938v58.125c0 72.58-10.383 82.937-83.031 82.937H115.03C42.383 270 32 259.643 32 187.062v-58.125C32 56.358 42.383 46 115.031 46z" filter="url(#c)" opacity=".2"/>
    <path transform="matrix(.2697 0 0 .2697 -7.129 -8.706)" d="M188.969 44C261.617 44 272 54.357 272 126.938v58.124C272 257.644 261.617 268 188.969 268H115.03C42.383 268 32 257.643 32 185.062v-58.125C32 54.358 42.383 44 115.031 44z" filter="url(#d)" opacity=".1"/>
    <path d="M23.896 3.161c-9.797 0-15.394.697-18.545 3.843-3.15 3.147-3.85 8.738-3.85 18.526v15.677c0 9.788.7 15.379 3.85 18.525 3.15 3.147 8.748 3.844 18.545 3.844h19.941c9.798 0 15.395-.697 18.545-3.844 3.15-3.146 3.85-8.737 3.85-18.525V25.53c0-9.788-.7-15.38-3.85-18.526-3.15-3.146-8.747-3.843-18.545-3.843z" fill="#282828"/>
    <path d="M1.502 40.667v.54c0 9.788.699 15.379 3.85 18.525 3.15 3.147 8.747 3.844 18.544 3.844h19.941c9.798 0 15.395-.697 18.545-3.844 3.15-3.146 3.85-8.737 3.85-18.525v-.54c0 9.788-.7 15.38-3.85 18.526-3.15 3.146-8.747 3.843-18.545 3.843H23.896c-9.797 0-15.394-.697-18.545-3.843-3.15-3.147-3.85-8.738-3.85-18.526z" fill="#282828" opacity=".2"/>
    <path d="M66.157 22.442c-.025-1.172-.023-2.459-.084-3.494a52.603 52.603 0 0 0-.229-2.752 32.72 32.72 0 0 0-.356-2.42 21.027 21.027 0 0 0-.503-2.108 14.193 14.193 0 0 0-.673-1.818c-.254-.56-.54-1.075-.86-1.548a8.818 8.818 0 0 0-1.07-1.298 8.815 8.815 0 0 0-1.3-1.068c-.473-.32-.989-.606-1.55-.86s-1.165-.476-1.819-.67c-.654-.195-1.356-.362-2.11-.503s-1.562-.26-2.423-.355-1.779-.172-2.755-.229c-1.951-.114-4.138-.158-6.587-.158H23.896c-2.45 0-4.636.044-6.588.158-.976.057-1.893.132-2.754.229s-1.669.213-2.423.355c-.754.141-1.457.308-2.11.502a14.23 14.23 0 0 0-1.82.671c-.56.254-1.077.54-1.55.86s-.906.675-1.3 1.068c-.393.394-.749.825-1.07 1.298-.32.473-.606.988-.86 1.548s-.478 1.164-.672 1.818a21.027 21.027 0 0 0-.504 2.108 32.72 32.72 0 0 0-.356 2.42c-.096.861-.171 1.777-.229 2.752-.06 1.035-.059 2.322-.084 3.494h64.581z" fill="#b8bb26"/>
    <path transform="matrix(.13485 0 0 .13485 -4.971 31.75)" d="M361.938-212C507.235-212 528-191.287 528-46.125v116.25C528 215.286 507.235 236 361.937 236H214.063C68.766 236 48 215.286 48 70.125v-116.25C48-191.287 68.765-212 214.063-212z" clip-path="url(#e)" fill="none" opacity=".4" stroke-linecap="round" stroke-linejoin="round" stroke-width="8" stroke="url(#f)"/>
    <g filter="url(#g)" opacity=".3" transform="translate(1.846 -229.767)">
        <circle cx="50.811" cy="243.702" r="3.969"/>
        <path d="M50.81 237.466a5.306 5.306 0 0 0-5.29 4.982h.454a4.881 4.881 0 0 1 4.837-4.264 4.881 4.881 0 0 1 4.836 4.264h.456a5.306 5.306 0 0 0-5.294-4.982z"/>
        <path d="M50.8 240.38l-.53 1.057h1.06z"/>
    </g>
    <g transform="translate(1.846 -229.767)">
        <circle cx="50.811" cy="243.702" r="3.969" fill="#fb4934"/>
        <path d="M50.81 237.466a5.306 5.306 0 0 0-5.29 4.982h.454a4.881 4.881 0 0 1 4.837-4.264 4.881 4.881 0 0 1 4.836 4.264h.456a5.306 5.306 0 0 0-5.294-4.982z" fill="#282828"/>
        <path d="M50.8 240.38l-.53 1.057h1.06z" fill="#ebdbb2"/>
    </g>
    <g transform="translate(35.5 -190.756) scale(.87866)" filter="url(#h)" opacity=".3">
        <circle cx="-18.529" cy="265.361" r="14.949" fill-rule="evenodd"/>
        <path d="M-18.529 260.752c-2.668 0-4.584 1.916-4.584 4.584s1.957 4.634 4.584 4.634 4.585-1.966 4.585-4.634-1.917-4.584-4.585-4.584z" fill-rule="evenodd"/>
        <ellipse cx="-15.457" cy="273.995" rx="5.952" ry="5.664" opacity=".4"/>
    </g>
    <g transform="translate(35.5 -190.756) scale(.87866)" fill-rule="evenodd">
        <circle cx="-18.529" cy="265.361" r="14.949" fill="url(#i)"/>
        <path transform="matrix(1.5848 0 0 1.5848 -58 234.185)" d="M24.906 16.764c-1.683 0-2.892 1.209-2.892 2.892s1.234 2.924 2.892 2.924 2.893-1.24 2.893-2.924-1.21-2.892-2.893-2.892z" fill="url(#j)"/>
    </g>
    <g transform="translate(64.793 -190.756) scale(.87866)" filter="url(#k)" opacity=".3">
        <circle cx="-18.529" cy="265.361" r="14.949" fill-rule="evenodd"/>
        <path d="M-18.529 260.752c-2.668 0-4.584 1.916-4.584 4.584s1.957 4.634 4.584 4.634 4.585-1.966 4.585-4.634-1.917-4.584-4.585-4.584z" fill-rule="evenodd"/>
        <ellipse cx="-15.457" cy="273.995" rx="5.952" ry="5.664" opacity=".4"/>
    </g>
    <g transform="translate(64.605 -190.756) scale(.87866)" fill-rule="evenodd">
        <circle cx="-18.529" cy="265.361" r="14.949" fill="url(#i)"/>
        <path transform="matrix(1.5848 0 0 1.5848 -58 234.185)" d="M24.906 16.764c-1.683 0-2.892 1.209-2.892 2.892s1.234 2.924 2.892 2.924 2.893-1.24 2.893-2.924-1.21-2.892-2.893-2.892z" fill="url(#j)"/>
    </g>
    <g transform="translate(.661 -229.93)" fill="#282828">
        <circle cx="12.496" cy="242.731" r="3.575"/>
        <circle cx="22.03" cy="242.731" r="3.575"/>
        <circle cx="31.563" cy="242.731" r="3.575"/>
    </g>
</svg>
