<svg width="256" height="256" version="1.1" xmlns="http://www.w3.org/2000/svg">
  <defs>
    <linearGradient id="linearGradient10" x1="128" x2="128" y1="12" y2="240" gradientUnits="userSpaceOnUse">
      <stop stop-color="#ebdbb2" stop-opacity=".2" offset="0"/>
      <stop stop-color="#ebdbb2" stop-opacity="0" offset=".24921"/>
      <stop stop-color="#1d2021" stop-opacity=".05" offset=".50485"/>
      <stop stop-color="#1d2021" stop-opacity=".15" offset=".75285"/>
      <stop stop-color="#1d2021" stop-opacity=".25" offset="1"/>
    </linearGradient>
    <linearGradient id="linearGradient15" x1="128" x2="128" y1="12" y2="240" gradientUnits="userSpaceOnUse">
      <stop stop-color="#458588" offset="0"/>
      <stop stop-color="#076678" offset="1"/>
    </linearGradient>
  </defs>
  <path d="m165 12c72 0 85 15 85 87v56c0 70-13 85-85 85h-74c-72 0-85-15-85-85v-56c0-72 13-87 85-87z" fill="url(#linearGradient15)" style="isolation:isolate"/>
  <path d="m144 202.26-16.001 11.745-16.001-11.745 7.271-56.04-45.181 34.278-18.23-7.9079 2.2259-19.649 52.45-21.765-52.45-21.765-2.2259-19.649 18.23-7.9075 45.181 34.278-7.271-56.04 16.001-11.745 16.001 11.745-7.2711 56.04 45.181-34.278 18.23 7.9075-2.2257 19.649-52.451 21.765 52.451 21.765 2.2257 19.649-18.23 7.9079-45.181-34.278z" fill="#282828" opacity=".3" stroke-width=".89062"/>
  <path d="m144 197.26-16.001 11.745-16.001-11.745 7.2711-56.04-45.181 34.278-18.23-7.9079 2.2259-19.649 52.45-21.765-52.45-21.765-2.2259-19.649 18.23-7.9075 45.181 34.278-7.2711-56.04 16.001-11.745 16.001 11.745-7.2711 56.04 45.181-34.278 18.23 7.9075-2.2257 19.649-52.451 21.765 52.451 21.765 2.2257 19.649-18.23 7.9079-45.181-34.278z" fill="#ebdbb2" stroke-width=".89062"/>
  <path d="m128 43.343-16 11.744 0.5918 4.5645 15.408-11.309 15.408 11.309 0.5918-4.5645zm-53.91 33.506-18.23 7.9082 0.54102 4.7656 17.689-7.6738 45.18 34.279-0.71875-5.5449zm107.82 0-44.461 33.734-0.71875 5.5449 45.18-34.279 17.689 7.6738 0.54101-4.7656zm-77.398 51.822-46.426 19.266-2.2266 19.648 0.54102 0.23437 1.6855-14.883 52.449-21.766zm46.977 0-6.0234 2.5 52.449 21.766 1.6856 14.883 0.54101-0.23437-2.2266-19.648zm-32.219 17.543-0.71875 0.54493-6.5508 50.496 0.5918 0.43555zm17.461 0 6.6777 51.477 0.5918-0.43555-6.5508-50.496z" fill="#fbf1c7" opacity=".6" stroke-width=".89062"/>
  <path d="m91 12c-72 0-85 15-85 87v56c0 70 13 85 85 85h74c72 0 85-15 85-85v-56c0-72-13-87-85-87zm0 5h74c35.653 0 55.307 3.9448 65.895 14.965 10.588 11.02 14.105 31.336 14.105 67.035v56c0 34.69-3.4936 54.457-14.07 65.25-10.577 10.793-30.277 14.75-65.93 14.75h-74c-35.653 0-55.353-3.9574-65.93-14.75-10.577-10.793-14.07-30.56-14.07-65.25v-56c0-35.699 3.5176-56.015 14.105-67.035 10.588-11.02 30.242-14.965 65.895-14.965z" fill="url(#linearGradient10)" style="isolation:isolate"/>
</svg>
