<svg width="256" height="256" version="1.1" xmlns="http://www.w3.org/2000/svg">
  <defs>
    <linearGradient id="linearGradient10" x1="128" x2="128" y1="12" y2="240" gradientUnits="userSpaceOnUse">
      <stop stop-color="#ebdbb2" stop-opacity=".15" offset="0"/>
      <stop stop-color="#ebdbb2" stop-opacity="0" offset=".24921"/>
      <stop stop-color="#1d2021" stop-opacity=".05" offset=".50485"/>
      <stop stop-color="#1d2021" stop-opacity=".15" offset=".75285"/>
      <stop stop-color="#1d2021" stop-opacity=".3" offset="1"/>
    </linearGradient>
    <linearGradient id="linearGradient15" x1="128" x2="128" y1="12" y2="240" gradientUnits="userSpaceOnUse">
      <stop stop-color="#b16286" offset="0"/>
      <stop stop-color="#8f3f71" offset="1"/>
    </linearGradient>
  </defs>
  <path d="m165 12c72 0 85 15 85 87v56c0 70-13 85-85 85h-74c-72 0-85-15-85-85v-56c0-72 13-87 85-87z" fill="url(#linearGradient15)" style="isolation:isolate"/>
  <path d="m165 12c72 0 85 15 85 87v56c0 70-13 85-85 85h-74c-72 0-85-15-85-85v-56c0-72 13-87 85-87z" fill="#282828" opacity=".4" style="isolation:isolate"/>
  <path d="m80.764 50.246c-0.83131 0.05841-1.8627 0.43246-3.3389 1.1513-8.2825 4.0324-17.496 15.734-21.499 27.296-3.5691 10.311-3.9147 21.614-0.95248 30.803 3.4001 10.23 11.037 18.892 19.164 26.103 2.3555 5.1428-0.95028 9.1293 0.56519 22.848 1.0506 9.51 1.5559 12.765 2.6586 17.165 2.9425 23.906 18.485 35.384 50.638 35.387 32.154-3e-3 47.692-11.481 50.635-35.387 1.1026-4.3999 1.608-7.655 2.6586-17.165 1.5155-13.719-1.7903-17.705 0.5652-22.848 8.1273-7.2112 15.768-15.873 19.168-26.103 2.9622-9.1885 2.6166-20.492-0.95247-30.803-4.0023-11.563-13.216-23.264-21.499-27.296-1.4761-0.71867-2.5075-1.0927-3.3389-1.1513-0.83132-0.05895-1.4543 0.20738-2.1247 0.77451 0 0 5.6782 5.8287 6.3114 11.555-1.1885 4.1785-9.2002 3.5062-9.2002 3.5062s12.35 11.378 14.528 20.232c1.7538 7.4381 0.80402 21.181-7.4418 24.627 0 0-20.523-7.1172-49.309-7.1172-28.786 0-49.309 7.1172-49.309 7.1172-8.2458-3.446-9.1957-17.189-7.4418-24.627 2.1776-8.8534 14.528-20.232 14.528-20.232s-8.0117 0.67232-9.2002-3.5062c0.6332-5.7262 6.3114-11.555 6.3114-11.555-0.67039-0.56723-1.2934-0.83319-2.1248-0.77451z" fill="#282828" opacity=".3" stroke-width="5.3588"/>
  <path d="m80.764 45.627c-0.83131 0.05841-1.8627 0.43246-3.3389 1.1513-8.2825 4.0324-17.496 15.734-21.499 27.296-3.5691 10.311-3.9147 21.614-0.95248 30.803 3.4001 10.23 11.037 18.892 19.164 26.103 2.3555 5.1428-0.95028 9.1293 0.56519 22.848 1.0506 9.51 1.5559 12.765 2.6586 17.165 2.9425 23.906 18.485 35.384 50.638 35.387 32.154-3e-3 47.692-11.481 50.635-35.387 1.1026-4.3999 1.608-7.655 2.6586-17.165 1.5155-13.719-1.7903-17.705 0.5652-22.848 8.1273-7.2112 15.768-15.873 19.168-26.103 2.9622-9.1885 2.6166-20.492-0.95247-30.803-4.0023-11.563-13.216-23.264-21.499-27.296-1.4761-0.71867-2.5075-1.0927-3.3389-1.1513-0.83132-0.05895-1.4543 0.20738-2.1247 0.77451 0 0 5.6782 5.8287 6.3114 11.555-1.1885 4.1785-9.2002 3.5062-9.2002 3.5062s12.35 11.378 14.528 20.232c1.7538 7.4381 0.80402 21.181-7.4418 24.627 0 0-20.523-7.1172-49.309-7.1172-28.786 0-49.309 7.1172-49.309 7.1172-8.2458-3.446-9.1957-17.189-7.4418-24.627 2.1776-8.8534 14.528-20.232 14.528-20.232s-8.0117 0.67232-9.2002-3.5062c0.6332-5.7262 6.3114-11.555 6.3114-11.555-0.67039-0.56723-1.2934-0.83319-2.1248-0.77451z" fill="#ebdbb2" stroke-width="5.3588"/>
  <path d="m81.066 45.621c-0.09791-0.0028-0.19881-0.0015-0.30273 0.0059-0.83131 0.05841-1.8618 0.43351-3.3379 1.1523-8.2825 4.0324-17.498 15.732-21.5 27.295-2.2244 6.4263-3.1967 13.239-2.8965 19.684 0.22902-5.0227 1.1976-10.156 2.8965-15.064 4.0023-11.563 13.217-23.263 21.5-27.295 0.89728-0.43695 1.6303-0.74684 2.2539-0.93555 1.6006-2.4088 3.209-4.0605 3.209-4.0605-0.58659-0.49633-1.1369-0.7619-1.8223-0.78125zm93.867 0c-0.68533 0.01924-1.2357 0.28502-1.8223 0.78125 0 0 1.6103 1.6516 3.2109 4.0605 0.62356 0.18872 1.3547 0.49872 2.252 0.93555 8.2825 4.0324 17.498 15.732 21.5 27.295 1.6989 4.9082 2.6675 10.042 2.8965 15.064 0.30024-6.445-0.67206-13.257-2.8965-19.684-4.0023-11.563-13.217-23.263-21.5-27.295-1.4761-0.71867-2.5065-1.0937-3.3379-1.1523-0.10392-0.0074-0.20483-0.0086-0.30274-0.0059zm-97.543 13.771c-0.40083 1.0387-0.6961 2.1133-0.81445 3.1836 0.57796 2.0319 2.7701 2.9162 4.8691 3.2891 2.4366-2.6565 4.332-4.4023 4.332-4.4023s-6.0017 0.5033-8.3867-2.0703zm101.22 0c-2.385 2.5736-8.3867 2.0703-8.3867 2.0703s1.8955 1.7459 4.332 4.4023c2.099-0.3729 4.2912-1.2571 4.8691-3.2891-0.11834-1.0703-0.41363-2.1449-0.81445-3.1836zm-108.02 31.539c-0.49809 7.5077 1.3696 17.195 8.1055 20.01 0 0 20.523-7.1172 49.309-7.1172 28.786 0 49.309 7.1172 49.309 7.1172 6.736-2.815 8.6036-12.502 8.1055-20.01-0.42599 6.4367-2.6958 13.13-8.1055 15.391 0 0-20.523-7.1172-49.309-7.1172-28.786 0-49.309 7.1172-49.309 7.1172-5.4096-2.2608-7.6795-8.9539-8.1055-15.391zm4.2754 46.998c-0.25532 2.6996-0.72035 6.0784-0.52734 11.037 0.20575-5.1611 1.0153-8.182 0.52734-11.037zm106.27 0c-0.48795 2.8551 0.32159 5.876 0.52735 11.037 0.193-4.9587-0.27204-8.3375-0.52735-11.037z" fill="#fbf1c7" opacity=".6" stroke-width="5.3588"/>
  <path d="m98.613 155.96a19.264 15.466 67.51 0 0-5.875 1.4746 19.264 15.466 67.51 0 0-5.207 24.572 19.264 15.466 67.51 0 0 22.135 9.9922 19.264 15.466 67.51 0 0 5.207-24.57 19.264 15.466 67.51 0 0-16.26-11.469zm58.764 0a15.466 19.264 22.49 0 0-16.258 11.467 15.466 19.264 22.49 0 0 5.2051 24.572 15.466 19.264 22.49 0 0 22.135-9.9922 15.466 19.264 22.49 0 0-5.207-24.572 15.466 19.264 22.49 0 0-5.875-1.4746z" fill="#fbf1c7" opacity=".6" stroke-width="5.3572"/>
  <path transform="matrix(.88239 .47052 -.43981 .89809 0 0)" d="m155.86 88.476a18.946 15.736 39.572 0 0-4.6305 4.0679 18.946 15.736 39.572 0 0 6.1344 24.147 18.946 15.736 39.572 0 0 24.288-1.5988 18.946 15.736 39.572 0 0-6.1336-24.145 18.946 15.736 39.572 0 0-19.659-2.4708zm52.806-27.666a15.492 19.243 5.0889e-14 0 0-9.5634 17.778 15.492 19.243 5.0889e-14 0 0 15.491 19.245 15.492 19.243 5.0889e-14 0 0 15.494-19.243 15.492 19.243 5.0889e-14 0 0-15.493-19.244 15.492 19.243 5.0889e-14 0 0-5.9284 1.464z" fill="#3c3836" stroke-width="5.3588"/>
  <path d="m98.613 152.79a19.264 15.466 67.51 0 0-5.875 1.4746 19.264 15.466 67.51 0 0-7.5371 15.803 19.264 15.466 67.51 0 1 7.5371-12.635 19.264 15.466 67.51 0 1 5.875-1.4746 19.264 15.466 67.51 0 1 16.26 11.469 19.264 15.466 67.51 0 1 2.3301 8.7598 19.264 15.466 67.51 0 0-2.3301-11.928 19.264 15.466 67.51 0 0-16.26-11.469zm58.764 0a15.466 19.264 22.49 0 0-16.258 11.467 15.466 19.264 22.49 0 0-2.3301 11.938 15.466 19.264 22.49 0 1 2.3301-8.7695 15.466 19.264 22.49 0 1 16.258-11.467 15.466 19.264 22.49 0 1 5.875 1.4746 15.466 19.264 22.49 0 1 7.5371 12.635 15.466 19.264 22.49 0 0-7.5371-15.803 15.466 19.264 22.49 0 0-5.875-1.4746z" fill="#282828" opacity=".5" stroke-width="5.3572"/>
  <path d="m91 12c-72 0-85 15-85 87v56c0 70 13 85 85 85h74c72 0 85-15 85-85v-56c0-72-13-87-85-87zm0 5h74c35.653 0 55.307 3.9448 65.895 14.965 10.588 11.02 14.105 31.336 14.105 67.035v56c0 34.69-3.4936 54.457-14.07 65.25-10.577 10.793-30.277 14.75-65.93 14.75h-74c-35.653 0-55.353-3.9574-65.93-14.75-10.577-10.793-14.07-30.56-14.07-65.25v-56c0-35.699 3.5176-56.015 14.105-67.035 10.588-11.02 30.242-14.965 65.895-14.965z" fill="url(#linearGradient10)" style="isolation:isolate"/>
</svg>
