<svg width="256" height="256" version="1.1" xmlns="http://www.w3.org/2000/svg">
  <defs>
    <linearGradient id="linearGradient31" x1=".5002" x2=".5002" y2="1" gradientTransform="matrix(244,0,0,228,5.986,12)" gradientUnits="userSpaceOnUse">
      <stop stop-color="#ebdbb2" stop-opacity=".2" offset="0"/>
      <stop stop-color="#ebdbb2" stop-opacity=".05" offset=".1"/>
      <stop stop-opacity="0" offset=".7036"/>
      <stop stop-opacity=".1" offset=".8975"/>
      <stop stop-opacity=".2" offset="1"/>
    </linearGradient>
    <linearGradient id="linearGradient6" x1="140" x2="140" y1="12" y2="240" gradientUnits="userSpaceOnUse">
      <stop stop-color="#504945" offset="0"/>
      <stop stop-color="#3c3836" offset="1"/>
    </linearGradient>
  </defs>
  <path d="m165 12c72 0 85 15 85 87v56c0 70-13 85-85 85h-74c-72 0-85-15-85-85v-56c0-72 13-87 85-87z" fill="url(#linearGradient6)" style="isolation:isolate"/>
  <path d="m44.712 57.619v41.644h15.616v-5.2047h-5.2047v-31.234h5.2047v-5.2047zm26.027 0v41.644h10.411v-41.644zm20.821 0v41.644h10.411v-41.644zm62.466 0v41.644h10.411v-41.644zm20.823 0v41.644h10.41v-41.644zm20.821 0v5.2047h5.2066v31.234h-5.2066v5.2047h15.616v-41.644zm-150.96 52.055v41.644h15.616v-5.2048h-5.2047v-31.234h5.2047v-5.2047zm26.027 0v41.644h10.411v-41.644zm20.821 0v41.644h10.411v-41.644zm20.823 0v41.644h10.411v-41.644zm20.823 0v41.644h10.41v-41.644zm20.821 0v41.644h10.411v-41.644zm20.823 0v41.644h10.41v-41.644zm20.821 0v5.2047h5.2066v31.234h-5.2066v5.2048h15.616v-41.644zm-150.96 52.055v41.644h15.616v-5.2066h-5.2047v-31.232h5.2047v-5.2048zm26.027 0v41.644h10.411v-41.644zm20.821 0v41.644h10.411v-41.644zm62.466 0v41.644h10.411v-41.644zm20.823 0v41.644h10.41v-41.644zm20.821 0v5.2048h5.2066v31.232h-5.2066v5.2066h15.616v-41.644z" fill="#282828" opacity=".5" stroke-width="5.2055"/>
  <path d="m70.74 52.627v41.644h10.411v-41.644zm20.822 0v41.644h10.411v-41.644zm-20.822 52.055v41.644h10.411v-41.644zm20.822 0v41.644h10.411v-41.644zm-20.822 52.055v41.644h10.411v-41.644zm20.822 0v41.644h10.411v-41.644z" fill="#8ec07c" stroke-width="5.2055"/>
  <path d="m112.38 104.68v41.644h10.411v-41.644zm20.822 0v41.644h10.411v-41.644z" fill="#fe8019" stroke-width="5.2055"/>
  <path d="m154.03 52.627v41.644h10.411v-41.644zm20.822 0v41.644h10.411v-41.644zm-20.822 52.055v41.644h10.411v-41.644zm20.822 0v41.644h10.411v-41.644zm-20.822 52.055v41.644h10.411v-41.644zm20.822 0v41.644h10.411v-41.644z" fill="#fb4934" stroke-width="5.2055"/>
  <path d="m211.29 52.627v41.644h-15.616v-5.2055h5.2055v-31.233h-5.2055v-5.2055zm0 52.055v41.644h-15.616v-5.2055h5.2055v-31.233h-5.2055v-5.2055zm0 52.055v41.644h-15.616v-5.2055h5.2055v-31.233h-5.2055v-5.2055zm-166.58-104.11v41.644h15.616v-5.2055h-5.2055v-31.233h5.2055v-5.2055zm0 52.055v41.644h15.616v-5.2055h-5.2055v-31.233h5.2055v-5.2055zm0 52.055v41.644h15.616v-5.2055h-5.2055v-31.233h5.2055v-5.2055z" fill="#ebdbb2" stroke-width="5.2055"/>
  <path d="m91 12c-72 0-85 15-85 87v56c0 70 13 85 85 85h74c72 0 85-15 85-85v-56c0-72-13-87-85-87zm0 4h74c68 0 80 15 80 83v56c0 66-12 81-80 81h-74c-68 0-80-15-80-81v-56c0-68 12-83 80-83z" fill="url(#linearGradient31)" style="isolation:isolate"/>
</svg>
