<svg width="256" height="256" version="1.1" xmlns="http://www.w3.org/2000/svg">
  <defs>
    <linearGradient id="linearGradient31" x1=".5002" x2=".5002" y2="1" gradientTransform="matrix(244,0,0,228,5.986,12)" gradientUnits="userSpaceOnUse">
      <stop stop-color="#ebdbb2" stop-opacity=".2" offset="0"/>
      <stop stop-color="#ebdbb2" stop-opacity=".05" offset=".1"/>
      <stop stop-opacity="0" offset=".7036"/>
      <stop stop-opacity=".1" offset=".8975"/>
      <stop stop-opacity=".2" offset="1"/>
    </linearGradient>
    <linearGradient id="linearGradient6" x1="140" x2="140" y1="12" y2="240" gradientUnits="userSpaceOnUse">
      <stop stop-color="#689d6a" offset="0"/>
      <stop stop-color="#427b58" offset="1"/>
    </linearGradient>
  </defs>
  <path d="m165 12c72 0 85 15 85 87v56c0 70-13 85-85 85h-74c-72 0-85-15-85-85v-56c0-72 13-87 85-87z" fill="url(#linearGradient6)" style="isolation:isolate"/>
  <path d="m30.78 98.686v64.314h15.442v-26.08c0.03935-1.0606 0.49662-2.0625 1.272-2.7871 0.81146-0.793 1.8957-1.2453 3.0302-1.2639h8.8636c1.0776 0 1.9607 0.53473 2.7871 1.2639 0.8264 0.72918 1.1748 1.7095 1.2639 2.7871v26.08h15.451v-28.106c0-3.8647-0.76159-6.9272-2.2848-9.3659-1.5592-2.2792-3.7621-4.0421-6.3277-5.0638-2.7853-1.245-5.8137-1.8512-8.8636-1.7743h-10.128l-3.7998 0.51043c-0.88312 0.24306-1.2639 0.50232-1.2639 0.50232v-21.017zm119 0v64.314h15.442v-64.322zm-59.769 20.004v27.344c0 3.6054 0.56714 6.5869 2.0255 9.1148 1.4584 2.5359 3.7107 4.5614 6.3358 5.8253 2.6899 1.2639 5.5094 2.0255 9.1148 2.0255h15.191v-0.25116c3.2246 0 6.1089-0.67247 8.3532-2.0255 2.2443-1.4584 4.051-3.5487 5.3149-6.0765 1.1748-2.5359 1.6771-5.3878 1.7743-8.6124v-27.344h-15.442v25.829c-0.0803 1.1207-0.524 2.1846-1.2639 3.0302-0.7499 0.73948-1.7371 1.19-2.7871 1.272h-9.1066c-1.0539-0.0602-2.0475-0.51077-2.7871-1.2639-0.78062-0.8261-1.2304-1.9103-1.2639-3.0464v-25.821zm87.097 0v27.344c0.0972 3.6054 0.76159 6.5869 2.2848 9.1148 1.5151 2.5359 3.4839 4.5614 6.0765 5.8253 2.6899 1.2639 5.5985 2.0255 9.1148 2.0255h15.191v-0.25116c3.2246 0 6.0117-0.67247 8.3532-2.0255 2.2443-1.4584 4.1482-3.5487 5.3149-6.0765 1.2396-2.5116 1.7743-5.3878 1.7743-8.6124v-27.344h-15.442v25.829c-0.0396 1.1315-0.4921 2.2094-1.272 3.0302-0.73675 0.75365-1.727 1.2069-2.779 1.272h-9.1148c-1.0585-0.0406-2.059-0.4944-2.7871-1.2639-0.7806-0.8261-1.2304-1.9103-1.2639-3.0464v-25.821z" fill="#282828" opacity=".3" stroke-width="1.1784" style="isolation:isolate"/>
  <path d="m30.78 93.847v64.314h15.442v-26.08c0.03935-1.0606 0.49662-2.0625 1.272-2.7871 0.81146-0.793 1.8957-1.2453 3.0302-1.2639h8.8636c1.0776 0 1.9607 0.53473 2.7871 1.2639 0.8264 0.72918 1.1748 1.7095 1.2639 2.7871v26.08h15.451v-28.106c0-3.8647-0.76159-6.9272-2.2848-9.3659-1.5592-2.2792-3.7621-4.0421-6.3277-5.0638-2.7853-1.245-5.8137-1.8512-8.8636-1.7743h-10.128l-3.7998 0.51043c-0.88312 0.24306-1.2639 0.50232-1.2639 0.50232v-21.017zm119 0v64.314h15.442v-64.322zm-59.769 20.004v27.344c0 3.6054 0.56714 6.5869 2.0255 9.1148 1.4584 2.5359 3.7107 4.5614 6.3358 5.8253 2.6899 1.2639 5.5094 2.0255 9.1148 2.0255h15.191v-0.25116c3.2246 0 6.1089-0.67247 8.3532-2.0255 2.2443-1.4584 4.051-3.5487 5.3149-6.0765 1.1748-2.5359 1.6771-5.3878 1.7743-8.6124v-27.344h-15.442v25.829c-0.0803 1.1207-0.524 2.1846-1.2639 3.0302-0.7499 0.73948-1.7371 1.19-2.7871 1.272h-9.1066c-1.0539-0.0602-2.0475-0.51077-2.7871-1.2639-0.78062-0.8261-1.2304-1.9103-1.2639-3.0464v-25.821zm87.097 0v27.344c0.0972 3.6054 0.76159 6.5869 2.2848 9.1148 1.5151 2.5359 3.4839 4.5614 6.0765 5.8253 2.6899 1.2639 5.5985 2.0255 9.1148 2.0255h15.191v-0.25116c3.2246 0 6.0117-0.67247 8.3532-2.0255 2.2443-1.4584 4.1482-3.5487 5.3149-6.0765 1.2396-2.5116 1.7743-5.3878 1.7743-8.6124v-27.344h-15.442v25.829c-0.0396 1.1315-0.4921 2.2094-1.272 3.0302-0.73675 0.75365-1.727 1.2069-2.779 1.272h-9.1148c-1.0585-0.0406-2.059-0.4944-2.7871-1.2639-0.7806-0.8261-1.2304-1.9103-1.2639-3.0464v-25.821z" fill="#ebdbb2" stroke-width="1.1784" style="isolation:isolate"/>
  <path d="m91 12c-72 0-85 15-85 87v56c0 70 13 85 85 85h74c72 0 85-15 85-85v-56c0-72-13-87-85-87zm0 4h74c68 0 80 15 80 83v56c0 66-12 81-80 81h-74c-68 0-80-15-80-81v-56c0-68 12-83 80-83z" fill="url(#linearGradient31)" style="isolation:isolate"/>
</svg>
