<svg width="256" height="256" version="1.1" xmlns="http://www.w3.org/2000/svg">
  <defs>
    <linearGradient id="linearGradient31" x1=".5002" x2=".5002" y2="1" gradientTransform="matrix(244,0,0,228,5.986,12)" gradientUnits="userSpaceOnUse">
      <stop stop-color="#ebdbb2" stop-opacity=".2" offset="0"/>
      <stop stop-color="#ebdbb2" stop-opacity=".05" offset=".1"/>
      <stop stop-opacity="0" offset=".7036"/>
      <stop stop-opacity=".1" offset=".8975"/>
      <stop stop-opacity=".2" offset="1"/>
    </linearGradient>
    <linearGradient id="linearGradient6" x1="140" x2="140" y1="12" y2="240" gradientUnits="userSpaceOnUse">
      <stop stop-color="#83a598" offset="0"/>
      <stop stop-color="#83a598" offset="1"/>
    </linearGradient>
  </defs>
  <path d="m165 12c72 0 85 15 85 87v56c0 70-13 85-85 85h-74c-72 0-85-15-85-85v-56c0-72 13-87 85-87z" fill="url(#linearGradient6)" style="isolation:isolate"/>
  <path d="m91 12c-72 0-85 15-85 87v56c0 70 13 85 85 85h74c72 0 85-15 85-85v-56c0-72-13-87-85-87zm0 4h74c68 0 80 15 80 83v56c0 66-12 81-80 81h-74c-68 0-80-15-80-81v-56c0-68 12-83 80-83z" fill="url(#linearGradient31)" style="isolation:isolate"/>
  <rect x="51.33" y="56.44" width="35.78" height="112.4" rx="5.111" ry="5.111" fill="#076678" stroke-width="5.111"/>
  <rect x="107.6" y="56.44" width="97.11" height="112.4" rx="5.111" ry="5.111" fill="#076678" stroke-width="5.111"/>
  <path d="m128 76.89c-2.832 0-5.111 2.28-5.111 5.111v10.22c0 2.832 2.28 5.111 5.111 5.111h40.89v10.22h-40.89c-2.832 0-5.111 1.755-5.111 3.933v43.24c0 2.178 2.28 3.933 5.111 3.933h56.22c2.832 0 5.111-2.28 5.111-5.111v-10.22c0-2.832-2.28-5.111-5.111-5.111h-40.89v-10.22h40.89c4.378 0 5.111-3.06 5.111-5.111v-42.07c0-2.178-2.28-3.933-5.111-3.933h-10.22z" fill="#282828" opacity=".3" stroke-width="5.111"/>
  <rect transform="rotate(90)" x="97.33" y="-143.1" width="35.78" height="91.75" rx="5.111" ry="5.111" fill="#076678" stroke-width="5.111"/>
  <rect x="51.33" y="184.2" width="20.44" height="20.44" rx="5.111" ry="5.111" fill="#076678" opacity=".3" stroke-width="5.111"/>
  <rect x="76.89" y="184.2" width="20.44" height="20.44" rx="5.111" ry="5.111" fill="#076678" opacity=".56" stroke-width="5.111"/>
  <rect x="102.4" y="184.2" width="20.44" height="20.44" rx="5.111" ry="5.111" fill="#076678" opacity=".82" stroke-width="5.111"/>
  <rect x="128" y="184.2" width="20.44" height="20.44" rx="5.111" ry="5.111" fill="#076678" opacity=".82" stroke-width="5.111"/>
  <rect x="153.6" y="184.2" width="20.44" height="20.44" rx="5.111" ry="5.111" fill="#076678" opacity=".56" stroke-width="5.111"/>
  <rect x="179.1" y="184.2" width="20.44" height="20.44" rx="5.111" ry="5.111" fill="#076678" opacity=".3" stroke-width="5.111"/>
  <path d="m128 71.78c-2.832 0-5.111 2.28-5.111 5.111v10.22c0 2.832 2.28 5.111 5.111 5.111h40.89v10.22h-30.67-10.22c-2.832 0-5.111 1.752-5.111 3.93v31.85 10.22 1.18c0 2.177 2.28 3.93 5.111 3.93h56.22c2.832 0 5.111-2.278 5.111-5.109v-10.22c0-2.832-2.28-5.111-5.111-5.111h-40.89v-10.22h30.67 10.22 0.3926c0.6064 0 1.183-0.1277 1.715-0.3516 1.773-0.6157 3.004-1.98 3.004-3.578v-1.182-10.22-20.44-10.22-1.18c0-2.177-2.28-3.932-5.111-3.932h-10.22-46z" fill="#ebdbb2" stroke-width="5.111"/>
  <path d="m87.11 128v5.111h20.44v-5.111zm-35.78 30.67v5.111c0 2.832 2.28 5.111 5.111 5.111h25.56c2.832 0 5.111-2.28 5.111-5.111v-5.111c0 2.832-2.28 5.111-5.111 5.111h-25.56c-2.832 0-5.111-2.28-5.111-5.111zm56.22 0v5.111c0 2.832 2.28 5.111 5.111 5.111h86.89c2.832 0 5.111-2.28 5.111-5.111v-5.111c0 2.832-2.28 5.111-5.111 5.111h-86.89c-2.832 0-5.111-2.28-5.111-5.111z" fill="#282828" opacity=".2" stroke-width="5.111"/>
  <path d="m56.44 56.44c-2.832 0-5.111 2.28-5.111 5.111v5.111c0-2.832 2.28-5.111 5.111-5.111h25.56c2.832 0 5.111 2.28 5.111 5.111v-5.111c0-2.832-2.28-5.111-5.111-5.111zm56.22 0c-2.832 0-5.111 2.28-5.111 5.111v5.111c0-2.832 2.28-5.111 5.111-5.111h86.89c2.832 0 5.111 2.28 5.111 5.111v-5.111c0-2.832-2.28-5.111-5.111-5.111zm-25.56 40.89v5.111h20.44v-5.111z" fill="#ebdbb2" opacity=".2" stroke-width="5.111"/>
</svg>
