<svg width="256" height="256" version="1.1" xmlns="http://www.w3.org/2000/svg" xmlns:xlink="http://www.w3.org/1999/xlink">
  <defs>
    <linearGradient id="linearGradient31" x1=".5002" x2=".5002" y2="1" gradientTransform="matrix(244,0,0,228,5.986,12)" gradientUnits="userSpaceOnUse">
      <stop stop-color="#ebdbb2" stop-opacity=".2" offset="0"/>
      <stop stop-color="#ebdbb2" stop-opacity=".05" offset=".1"/>
      <stop stop-opacity="0" offset=".7036"/>
      <stop stop-opacity=".1" offset=".8975"/>
      <stop stop-opacity=".2" offset="1"/>
    </linearGradient>
    <linearGradient id="linearGradient6" x1="140" x2="140" y1="12" y2="240" gradientUnits="userSpaceOnUse">
      <stop stop-color="#458588" offset="0"/>
      <stop stop-color="#076678" offset="1"/>
    </linearGradient>
    <radialGradient id="k" cx="167.7" cy="141.7" r="21.77" gradientTransform="matrix(1.063 0 .1928 1.164 -40 -175.2)" gradientUnits="userSpaceOnUse" xlink:href="#a"/>
    <linearGradient id="a">
      <stop stop-color="#458588" offset="0"/>
      <stop stop-color="#ebdbb2" offset="1"/>
    </linearGradient>
    <radialGradient id="l" cx="167.7" cy="141.7" r="21.77" gradientTransform="matrix(-.9206 -.5315 -.7489 .9116 530.6 -22.33)" gradientUnits="userSpaceOnUse" xlink:href="#a"/>
    <linearGradient id="m" x1="185.2" x2="185.2" y1="178.9" y2="162.2" gradientUnits="userSpaceOnUse" xlink:href="#b"/>
    <linearGradient id="b">
      <stop stop-color="#ebdbb2" offset="0"/>
      <stop stop-color="#ebdbb2" stop-opacity="0" offset="1"/>
    </linearGradient>
    <radialGradient id="n" cx="185.2" cy="162.2" r="8.312" gradientTransform="matrix(1.766 0 0 3.005 -141.8 -325.3)" gradientUnits="userSpaceOnUse" xlink:href="#b"/>
    <radialGradient id="o" cx="221.8" cy="186.6" r="66.98" gradientTransform="matrix(-.1842 .6876 -.8428 -.2258 399.6 -54.99)" gradientUnits="userSpaceOnUse" xlink:href="#a"/>
    <radialGradient id="p" cx="221.5" cy="231.3" r="13.71" gradientTransform="matrix(.9196 .2464 -.1618 .6038 26.52 -107.6)" gradientUnits="userSpaceOnUse" xlink:href="#b"/>
    <radialGradient id="q" cx="231.5" cy="138" r="22.61" gradientTransform="matrix(.576 .758 -1.383 1.051 283.7 -319.9)" gradientUnits="userSpaceOnUse" xlink:href="#a"/>
    <radialGradient id="r" cx="211.7" cy="126.4" r="14.33" gradientTransform="matrix(1.38 -.03551 .0439 1.706 -88.81 -220.5)" gradientUnits="userSpaceOnUse" xlink:href="#a"/>
  </defs>
  <path d="m165 12c72 0 85 15 85 87v56c0 70-13 85-85 85h-74c-72 0-85-15-85-85v-56c0-72 13-87 85-87z" fill="url(#linearGradient6)" style="isolation:isolate"/>
  <path d="m88.01 12c-2.152 2.566-6.582 7.588-6.582 7.588l12.22 12.3v13.03l13.9 15.45h8.482v-7.793l12.06-12.05v-8.686l8.035-8.002v-11.83c-16.04 0.03233-32.08-0.03668-48.12 0zm-21.35 0.7874c-10.47 0.7963-19.17 2.248-26.43 4.612 2.006 2.044 6.035 6.116 6.035 6.116h20.42s-0.0056-7.152-0.01824-10.73zm-26.39 19.37v12.09h-10.06s-7.861-8.012-11.95-11.85c-8.094 11.1-11.26 27.81-12.04 52.36-0.03224 1.327-0.06979 2.587-0.09766 4.01-0.07005 3.306-0.1001 6.645-0.1001 10.23v19.39l7.531 7.615h12.59l20.16 20.13 0.3086-23.87 12.3-12.38h8.074l12.59-12.67h11.46l-2.775-2.826c-1.876-1.908-2.623-3.069-2.311-3.596 0.6909-1.155 10.18-11.96 10.84-13.07-2.507-4.834-7.533-8.829-11.43-12.75h-18.1v16.12h-8.869l-7.779-7.742v-8.643l12.32-12.4h10.06v-7.754l-12.32-12.4zm199.2 2.844c-1.131 0.5637-3.295 1.186-6.906 1.186h-6.051l-12.67 12.67-7.98-8.066h-24.73l-11.74 11.82v10.06h11.48v-6.334h8.609v4.492l-1.898 6.34-1.898 1.846-8.291 0.3652-8.289 0.3594-5.959 5.598h-8.105v7.812l-6.312 6.254v11.84h12.37l7.977-8.059h8.352v5.014l7.805 7.73 4.018-0.1953 4e-3 -3.676-7.816-8.873h8.363l7.979 8.059h9.168l-5.652-5.76 3.113-3.166c3.026-3.077 3.211-3.162 6.279-3.162 3.037 0 3.274 0.1161 6.191 3 1.667 1.653 3.029 3.209 3.029 3.457 0 0.2477-5.75 0.06445-5.75 0.06445-1.751 1.964 0.7898-0.9742-5.84 6.156l2.855 3.029c2.906 2.95 2.992 3.136 2.992 6.33v3.291l-7.082-8e-3 23.44 23.88 3.732-0.0879 12.05-11.96-8.289-8.373h11.96v-18.94c0-30.51-2.334-50.76-10.5-64zm-113.1 21.91v5.756h11.72l-2.824-2.881c-2.686-2.733-2.98-2.875-5.867-2.875zm36.16 2.633-2.867 2.832c-2.651 2.621-2.871 3.05-2.871 5.594v2.756h5.742v-5.592zm-63.14 21.85c-2.01 2.005-4.01 4.018-6.012 6.031h3.221c2.161 0 3.459 0.2826 3.937 0.8633 0.934 1.123 3.103 1.103 4.053-0.03906 0.5368-2.408-3.53-5.184-5.199-6.855zm53.68 28.48-14.65 14.67v20.19l10.06 10.05h14.29l3.32 3.291c3.141 3.124 3.318 3.444 3.318 6.123 0 2.423 0.2866 3.148 2.008 5.057l2.006 2.229v24.54l15.22 15.72 25.72-25.19-0.6856-23.41 20.27-20.45h-8.008l-20.36-20.45v-8.342h-24.46l-3.893-4.025h-12.08zm-85.14 14.39c-2.536 0-2.96 0.2254-5.572 2.881l-2.826 2.879h11.15v-5.76zm-9.047 18.43-8.293 8.377v20.16l16.58 14.36 0.06836 18.46-6.312 6.256v26.46l2.133 2.141s2.236 0.196 3.453 0.2889c0.1619-0.6642 0.1836-6.396 0.1836-6.396l26.33-24.18 0.0449-8.078 12.63-12.63v-3.197c0-3.112 0.0804-3.28 3.156-6.322l3.158-3.127v-16.08l-8.41-8.434h-16.6l-7.973-8.061zm169.1 29.29-7.461 6.693v12.96h7.461z" fill="#ebdbb2" opacity=".3" stroke-width="3.865"/>
  <path d="m91 12c-72 0-85 15-85 87v56c0 70 13 85 85 85h74c72 0 85-15 85-85v-56c0-72-13-87-85-87zm0 4h74c68 0 80 15 80 83v56c0 66-12 81-80 81h-74c-68 0-80-15-80-81v-56c0-68 12-83 80-83z" fill="url(#linearGradient31)" style="isolation:isolate"/>
  <g transform="translate(-74.82 93.74)">
    <path d="m215.7-43.04c-3.111 0.1051-7.089 1.804-9.024 9.028-1.134-5.549-13.29-4.209-13.29-4.209s3.993 2.761 3.894 4.897c0 0.0099-6e-3 0.01642-8e-3 0.02626-2.085 0.2364-4.149 0.5615-6.179 0.9949-0.8799-1.959 0.2676-5.866-0.2873-8.579-1.72 2.607-2.486 6.321-2.837 9.312a56.98 56.98 0 0 0-5.798 1.904c-7.104-11.96-18.63-17.3-32.55-8.673-18.3 11.34-13.46 38.91-5.388 55.36 0.2922 0.5746 0.5795 1.184 0.8684 1.778-0.9161 4.273-1.026 9.771 6e-3 19.15 2.525 22.96 10.38 26.68 20.75 44.86 12.6 22.52 30.67 26.32 52.59 14.09 18.07-10.57 26.73-9.857 40.41-28.48 2.766-3.768 4.794-6.833 6.327-9.492 3.305-2.444 6.6-4.863 9.729-6.895 15.22-10.22 33.2-31.67 23.02-50.65-8.24-15.35-22.02-15.63-34.82-7.352a54.19 54.19 0 0 0-3.802-4.777c0.9637-2.014 2.341-5.426 2.211-8.25-1.959 2.292-2.52 7.773-5.693 4.575-3.173-3.198 3.269-3.809 3.269-3.809s-6.7-5.089-9.312-2.032c2.466-9.202-4.981-9.804-4.981-9.804s3.164 3.203 2.042 5.72c-0.376 0.8405-1.31 1.377-2.341 1.501-1.138-0.6829-2.298-1.358-3.477-1.98-0.2643-0.7503-0.3103-1.717 0.0214-2.952-1.963-0.6994-3.469-0.1839-4.574 0.747a77.34 77.34 0 0 0-2.602-1.097l1.566-8.023-4.411 6.92c-0.6649-0.2364-1.34-0.44-2.011-0.66-0.2069-2.819-1.441-6.107-5.871-6.935-0.7519 2.802-2.239 4.081-3.835 4.424a78.62 78.62 0 0 0-3.449-0.5844c-1.556-0.8537-2.684-2.366-2.54-3.853 0.371-3.832 6.688-5.418 6.688-5.418s-0.6041-0.2857-1.586-0.5171a10.38 10.38 0 0 0-2.714-0.2824z" fill-rule="evenodd" filter="url(#j)" opacity=".3" stroke-width="1.642"/>
    <path d="m149.7-38.35c-18.3 11.34-13.46 38.91-5.389 55.37 8.463 16.63 15.79 43.36 26.82 34.62 35.93-35.93 15.89-113.1-21.43-89.98z" fill="url(#k)" fill-rule="evenodd" stroke-width=".744"/>
    <path d="m298 1.39c10.18 18.97-7.794 40.43-23.02 50.64-15.65 10.17-35.36 29.66-40.53 16.57-13.15-49.09 42.79-105.9 63.55-67.21z" fill="url(#l)" fill-rule="evenodd" stroke-width=".744"/>
    <path d="m218.5-42.76c-2.948-0.6996-9.153-0.8889-11.73 8.74-1.136-5.546-13.29-4.204-13.29-4.204s3.997 2.753 3.9 4.892l-0.0121 0.02868a64.06 64.06 0 0 0-6.182 0.9921c-0.8774-1.956 0.2695-5.867-0.2867-8.579-1.72 2.609-2.483 6.325-2.833 9.313-15.29 4.129-28.4 14.25-34.68 31.74-6.48 14.97-10.71 14.82-8.184 37.79 2.523 22.96 10.38 26.67 20.75 44.86 12.61 22.52 30.67 26.32 52.59 14.09 18.08-10.56 26.74-9.852 40.41-28.47 13.68-18.62 9.95-20.61 11.84-36.81 3.636-16.8-1.503-31.29-11.38-42.35 0.9634-2.019 2.34-5.425 2.208-8.247-1.956 2.294-2.518 7.771-5.689 4.571-3.177-3.2 3.269-3.808 3.269-3.808s-6.704-5.087-9.313-2.03c2.466-9.204-4.984-9.806-4.984-9.806s3.166 3.206 2.042 5.723c-0.3728 0.8373-1.308 1.376-2.34 1.491-1.136-0.6767-2.294-1.348-3.475-1.973-0.2638-0.7455-0.3097-1.72 0.0229-2.953-1.967-0.6996-3.47-0.1835-4.576 0.7455-0.8602-0.3785-1.726-0.7455-2.604-1.095l1.566-8.023-4.41 6.922c-0.6652-0.2351-1.336-0.4416-2.007-0.6595-0.2064-2.822-1.445-6.108-5.878-6.939-0.7455 2.81-2.237 4.083-3.831 4.427-1.147-0.2179-2.294-0.4186-3.447-0.5849-1.554-0.8545-2.684-2.368-2.54-3.854 0.3728-3.831 6.687-5.414 6.687-5.414s-0.6022-0.2867-1.589-0.5161z" fill="#ebdbb2" fill-rule="evenodd" stroke-width="5.735"/>
    <path d="m264.8 50.99 17.43-12.59-4.869 0.4875 9.153-7.157-8.43 2.042 13.51-8.465-11.99 3.601 13.29-9.864-10.31 2.122 11.33-7.816-11.18 3.854 8.419-9.388-10.09 3.527 3.779-7.495-5.735 2.214 2.684-7.168-4.645 1.887 1.738-3.464-14.52 6.824s4.083 7.943 5.23 18.98c1.147 11.03-4.789 27.87-4.789 27.87zm-111.2-29.8-8.797-19.61 3.968 2.856-4.341-10.78 6.268 5.981-7.461-14.08 8.568 9.118-6.566-15.2 7.868 6.996-5.907-12.43 7.759 8.929-2.604-12.34 6.979 8.103 0.4817-8.379 3.86 4.783 1.262-7.553 3.08 3.957 0.2179-3.865 9.17 13.16s-7.513 4.84-14.02 13.82c-6.509 8.986-9.789 26.53-9.789 26.53z" fill="#ebdbb2" fill-rule="evenodd" stroke-width="5.735"/>
    <path d="m166.8 6.686s27.84 3.062 20.51 30.45c-25.98-6.962 5.953-23.36-20.51-30.45z" fill="#7c6f64" fill-rule="evenodd" stroke-width="5.735"/>
    <g transform="matrix(.8794 .2356 -.2356 .8794 51.1 -171.4)">
      <circle transform="matrix(1.396 0 0 1.396 -71.56 -66.83)" cx="185.2" cy="170.6" r="8.312"/>
      <circle transform="matrix(.5504 0 0 .2563 85.04 134.2)" cx="185.2" cy="170.6" r="8.312" fill="url(#m)"/>
      <circle transform="matrix(.869 0 0 .4891 26.03 83.33)" cx="185.2" cy="170.6" r="8.312" fill="url(#n)"/>
    </g>
    <path d="m254 30.07s-25.65-11.27-32.98 16.12c25.97 6.962 6.52-23.21 32.98-16.12z" fill="#7c6f64" fill-rule="evenodd" stroke-width="5.735"/>
    <g transform="matrix(-.8794 -.2356 -.2356 .8794 443.3 -66.31)">
      <circle transform="matrix(1.396 0 0 1.396 -71.56 -66.83)" cx="185.2" cy="170.6" r="8.312"/>
      <circle transform="matrix(.5504 0 0 .2563 85.04 134.2)" cx="185.2" cy="170.6" r="8.312" fill="url(#m)"/>
      <circle transform="matrix(.869 0 0 .4891 26.03 83.33)" cx="185.2" cy="170.6" r="8.312" fill="url(#n)"/>
    </g>
    <path d="m148.9 18.17c-1.282-0.1882-2.741 0.6347-3.535 2.258-0.6347 4.03-0.6123 9.252 0.2924 17.48 2.503 22.76 10.29 26.44 20.56 44.46 1.94 3.466 4.012 6.5 6.206 9.081-0.3571-1.789 0.3073-4.376-0.5506-5.917-3.676-0.1726-1.53-2.658 0.6064-3.745 3.984-3.329-1.588 0.4762-3.071 0.1845 1.021-4.841 5.236-8.239 8.359-11.83 4.254-3.481-1.119-7.303-4.827-7.277-1.923-1.484-8.901 1.413-6.968-2.478 1.489-3.12 2.552-5.806 5.299-8.043-1.791-0.1815-8.605 4.958-6.165-0.0038 2.26-4.184-3.811-0.7976-5.189 0.2277-4.418 2.47-0.962-2.574 0.6064-3.745 2.991-2.296 0.2664-4.379-2.391-2.809-5.411 1.33 1.394-2.558 3.025-3.432-1.298-0.8036-4.42 1.682-6.548 1.542-0.0357-2.147 3.773-3.407 5.242-5.097 4.161-3.132-1.903-2.379-3.854-1.339-4.126 1.071 0.2188-1.994 1.729-2.466 3.777-2.427-2.2-1.194-3.545-0.5528-6.132 2.07-2.589-4.516-0.0491-6.424 2.481-4.615-2.558 1.997-4.092-0.3333-2.607-2.892 2.652-4.785 1.263-6.652-0.2604-1.937-1.269-2.92-2.408-3.088zm116.3 31.17c-0.9784-0.1682-2.12 0.2731-3.145 1.599-2.136 0.9226 1.472 5.191-2.232 6.392-2.494 1.251-3.552-6.995-3.711-1.757 1.246 2.922 1.022 10.4-3.254 5.539-0.8445-1.228-5.405-5.284-3.347-1.294 1.071 1.165 3.274 5.983 0.2358 2.994-1.17-1.877-6.016-5.554-3.978-0.7611 0.4271 2.199 3.067 5.187 1.963 7.028-1.912-0.9434-3.346-4.649-4.872-4.602 0.9762 1.573 4.897 8.333 0.8757 4.478-1.516-2.69-4.888-2.24-3.446 1.244 0.773 1.797 1.243 7.895-1.347 3.546-0.6815-1.577-4.246-7.544-4.381-2.792-0.3676 5.517-3.728-2.35-5.37-3.088 1.262 3.311 0.8392 6.168 0.5677 9.616-0.2708 4.335-4.838-1.655-7.244-1.331-3.198-1.876-9.762-1.252-7.819 3.888 0.9077 4.675 2.832 9.717 1.295 14.42-1.431-0.4896-4.325-6.562-2.539-1.687 1.308 2.009 1.922 5.234-1.347 3.546-1.32 0.7887-2.037 2.841-3.004 4.263 2.981-1.081 6.053-2.497 9.198-4.251 17.91-10.47 26.49-9.768 40.04-28.22 5.196-7.076 7.857-11.73 9.268-15.68-0.1437-1.656-1.146-2.87-2.408-3.088zm-90.04 44.07a3.992 3.992 0 0 1-1.071-0.1034 39.05 39.05 0 0 0 1.738 1.717c-0.1652-0.6324-0.3594-1.214-0.6667-1.613zm30.1 8.067a3.274 3.274 0 0 0-0.8742 0.5283c0.4256-0.1042 0.849-0.2083 1.279-0.3281-0.134-0.0669-0.2619-0.1123-0.4048-0.2009zm-24.1-2.551c-0.0722-0.01927-0.1652 0.0046-0.2433-0.0046 0.3527 0.2173 0.6979 0.4181 1.055 0.6183-0.2165-0.2902-0.4732-0.5238-0.8117-0.6138z" fill="url(#o)" fill-rule="evenodd" stroke-width=".744"/>
    <path d="m185.9 76.45c-5.964 0.3441-7.358 1.147-6.325 6.062 1.032 4.92 3.871 11.85 10.45 13.61s12.5-2.81 15.86-6.555c3.349-3.745 4.244-3.888-2.449-8.419s-11.57-5.041-17.54-4.703z" fill-rule="evenodd" stroke-width="5.735"/>
    <path d="m186.8 77.75c-5.208 0.2976-6.422 1.001-5.523 5.295 0.8995 4.293 13.58-4.766 9.121 11.88 4.446-16.59 10.92-2.455 13.85-5.724 2.928-3.267 3.705-3.393-2.135-7.346-5.841-3.954-10.1-4.4-15.31-4.103z" fill="url(#p)" fill-rule="evenodd" stroke-width=".744"/>
    <path d="m210.7 12.26s7.01 3.189 4.836 13.75c8.9-8.757 4.588-17.12 4.588-17.12s9.904 4.62 6.835 13.63c8.125-8.309 3.812-16.67 3.812-16.67s9.664 0.6228 10.64 6.782c-0.1518-9.216-7.118-15.02-7.118-15.02s16.67 3.812 13.77 12.21c6.379-14.02-5.851-17.3-5.851-17.3s8.32-1.703 13.41 6.214c-1.943-12.32-10.25-14.6-10.25-14.6 8.65 3.728 12.02 10.19 11.34 22.76-0.523-5.383-7.532-9.302-7.532-9.302s6.536 4.403-1.676 17.93c0.7425-7.665-7.182-11.05-7.182-11.05s5.966 8.033-1.039 16.11c1.19-6.89-4.312-8.365-4.312-8.365s0.5558 12.6-11.97 17.77c2.25-5.951-0.5997-9.992-0.5997-9.992s0.971 6.159-11.23 10.1c4.248-6.071-0.468-17.82-0.468-17.82z" fill="url(#q)" fill-rule="evenodd" stroke-width=".744"/>
    <path d="m208.2-28.19c-2.513-1.112-10.18-2.705-15.85-0.7537 7.451-3.085 16.11 6.01 16.11 6.01s-12.31-2.747-17.03 3.065c13.43-4.055 17.62 7.283 17.62 7.283s-9.016-5.315-15.12 0.404c5.984-2.475 14.77 5.199 14.77 5.199s-5.575 0.2009-9.096 7.162c4.453-2.195 10.78-1.065 10.78-1.065-5.156 0.6607-7.716 1.525-13.97 5.38 4.129-8.069 8.276-10.33 8.276-10.33s-10.91-6.76-16.05-2.24c8.452-9.533 15.31-6.531 15.31-6.531s-11.26-6.146-16.57-1.015c5.257-8.887 15.36-8.177 15.36-8.177s-4.326-4.806-13.47-3.769c11.63-6.715 21.44 0.4881 18.93-0.625z" fill="url(#r)" fill-rule="evenodd" stroke-width=".744"/>
  </g>
</svg>
