<svg width="256" height="256" version="1.1" xml:space="preserve" xmlns="http://www.w3.org/2000/svg"><defs><linearGradient id="linearGradient10" x1="128" x2="128" y1="12" y2="240" gradientUnits="userSpaceOnUse"><stop stop-color="#ebdbb2" stop-opacity=".2" offset="0"/><stop stop-color="#ebdbb2" stop-opacity="0" offset=".24921"/><stop stop-color="#1d2021" stop-opacity=".05" offset=".50485"/><stop stop-color="#1d2021" stop-opacity=".15" offset=".75285"/><stop stop-color="#1d2021" stop-opacity=".25" offset="1"/></linearGradient><linearGradient id="linearGradient15" x1="128" x2="128" y1="12" y2="240" gradientUnits="userSpaceOnUse"><stop stop-color="#458588" offset="0"/><stop stop-color="#076678" offset="1"/></linearGradient></defs><path d="m165 12c72 0 85 15 85 87v56c0 70-13 85-85 85h-74c-72 0-85-15-85-85v-56c0-72 13-87 85-87z" fill="url(#linearGradient15)" style="isolation:isolate"/><path class="ColorScheme-Text" d="m103.88 53.671v155.33h59.592c18.757 0 33.857-15.1 33.857-33.857v-87.614c0-18.757-15.1-33.857-33.857-33.857zm-38.543 25.579v17.171h31.648v-17.171zm79.293 1.1581h3.2578c4.909 0 8.8611 3.893 8.8611 8.7288v83.702c0 4.8358-3.952 8.7288-8.8611 8.7288h-3.2578zm-79.293 22.192v106.4h31.648v-106.4z" color="#ebdbb2" fill="#282828" opacity=".2" stroke-width="11.286"/><path class="ColorScheme-Text" d="m103.88 48.336v155.33h59.592c18.757 0 33.857-15.1 33.857-33.857v-87.614c0-18.757-15.1-33.857-33.857-33.857zm-38.543 25.579v17.171h31.648v-17.171zm79.293 1.1581h3.2578c4.909 0 8.8611 3.893 8.8611 8.7288v83.702c0 4.8358-3.952 8.7288-8.8611 8.7288h-3.2578zm-79.293 22.192v106.4h31.648v-106.4z" color="#ebdbb2" fill="currentColor" stroke-width="11.286"/><path class="ColorScheme-Text" d="m103.88 48.337v5.3359h59.592c18.757 0 33.857 15.101 33.857 33.857v-5.3359c0-18.757-15.101-33.857-33.857-33.857zm-38.543 25.58v5.334h31.648v-5.334zm0 23.35v5.3359h31.648v-5.3359zm91.412 70.238c0 4.8358-3.9523 8.7285-8.8613 8.7285h-3.2578v5.3359h3.2578c4.909 0 8.8613-3.8927 8.8613-8.7285z" color="#ebdbb2" fill="#fbf1c7" opacity=".6" stroke-width="11.286"/><path d="m91 12c-72 0-85 15-85 87v56c0 70 13 85 85 85h74c72 0 85-15 85-85v-56c0-72-13-87-85-87zm0 5h74c35.653 0 55.307 3.9448 65.895 14.965 10.588 11.02 14.105 31.336 14.105 67.035v56c0 34.69-3.4936 54.457-14.07 65.25-10.577 10.793-30.277 14.75-65.93 14.75h-74c-35.653 0-55.353-3.9574-65.93-14.75-10.577-10.793-14.07-30.56-14.07-65.25v-56c0-35.699 3.5176-56.015 14.105-67.035 10.588-11.02 30.242-14.965 65.895-14.965z" fill="url(#linearGradient10)" style="isolation:isolate"/></svg>
