<svg width="256" height="256" version="1.1" xmlns="http://www.w3.org/2000/svg" xmlns:xlink="http://www.w3.org/1999/xlink">
  <linearGradient id="b" x1=".5002" x2=".5002" y2="1" gradientTransform="matrix(244,0,0,228,5.981,12)" gradientUnits="userSpaceOnUse">
    <stop stop-color="#ebdbb2" offset="0"/>
    <stop stop-color="#ebdbb2" offset="1"/>
  </linearGradient>
  <defs>
    <linearGradient id="linearGradient31" x1=".5002" x2=".5002" y2="1" gradientTransform="matrix(244,0,0,228,5.988,12)" gradientUnits="userSpaceOnUse">
      <stop stop-color="#282828" stop-opacity=".1" offset="0"/>
      <stop stop-color="#bdae93" stop-opacity=".1" offset=".1"/>
      <stop stop-color="#d5c4a1" stop-opacity="0" offset=".7022"/>
      <stop stop-color="#bdae93" stop-opacity=".302" offset=".9"/>
      <stop stop-color="#282828" stop-opacity=".3" offset="1"/>
    </linearGradient>
    <linearGradient id="linearGradient10" x1="48" x2="208" y1="47.246" y2="204.75" gradientUnits="userSpaceOnUse">
      <stop stop-color="#282828" offset="0"/>
      <stop stop-color="#504945" offset=".75"/>
    </linearGradient>
  </defs>
  <path d="m165 12c72 0 85 15 85 87v56c0 70-13 85-85 85h-74c-72 0-85-15-85-85v-56c0-72 13-87 85-87z" fill="url(#b)" style="isolation:isolate"/>
  <path d="m127.14 52.492c-4.9274 0-9.784 1.7849-13.283 5.3555l-58.842 60.271c-22.28 22.28 14.425 20.425 27.707 28.852 6.1414 3.999-19.71 9.1394-14.426 14.424 5.1416 5.2844 30.993 10.142 36.135 15.283 5.1416 5.2844-10.427 10.854-5.2852 16.139 4.9988 5.2844 16.996 0.28609 19.139 12.283 1.571 8.855 21.996 4.427 31.137-3.1426 5.7129-4.856-9.8565-4.8562-4.7148-10.141 12.854-12.997 24.281-5.8564 28.994-17.854 2.5708-6.427-19.424-10.997-13.568-15.139 13.997-9.8548 65.414-14.854 41.705-38.562l-60.986-62.414c-3.7848-3.5706-8.7836-5.3555-13.711-5.3555zm0.5 5.7305c3.5349 0.01785 7.0698 1.3393 9.6406 3.9102l23.279 23.709c2.1424 2.1423 2.1428 6.5701 0.85743 7.8555l-11.568-9.4258-2.2852 13.854-9.5703-5.1426-15.566 9.8555-5.1426-20.709-8.2832 17.994-20.709-0.14258c-3.999 0-3.429-4.1413 0.71289-8.2832 8.1409-8.9978 23.995-24.28 28.994-29.564 2.5708-2.6422 6.1058-3.928 9.6406-3.9102zm-27.922 92.031c1.2854 0 43.989 5.7131 27.564 10.141-6.2842 1.7139-35.134-10.141-27.564-10.141zm92.959 16.496c-4.9452 0.17853-9.9783 2.6426-11.264 7.2129 0 2.9993 23.28 4.7144 21.994-0.71289-0.92834-4.5703-5.7852-6.6785-10.73-6.5zm-102.3 12.979c-6.7261 0.39813-13.926 5.2765-8.2305 10.088 5.2844 4.5703 13.283-0.99876 15.854-7.4258-1.6068-2.0977-4.5657-2.8431-7.623-2.6621zm88.176 0.51953c-6.5698 5.9986 1.1433 12.282 7.5703 8.1406 1.7139-1.1426-0.14352-6.7124-7.5703-8.1406z" fill="#282828" opacity=".3" stroke-width="1.4282"/>
  <path d="m127.14 47.246c-4.9274 0-9.784 1.7849-13.283 5.3555l-58.842 60.271c-22.28 22.28 14.425 20.425 27.707 28.852 6.1414 3.999-19.71 9.1394-14.426 14.424 5.1416 5.2844 30.993 10.142 36.135 15.283 5.1416 5.2844-10.427 10.854-5.2852 16.139 4.9988 5.2844 16.996 0.28609 19.139 12.283 1.571 8.855 21.996 4.427 31.137-3.1426 5.7129-4.856-9.8565-4.8562-4.7148-10.141 12.854-12.997 24.281-5.8564 28.994-17.854 2.5708-6.427-19.424-10.997-13.568-15.139 13.997-9.8548 65.414-14.854 41.705-38.562l-60.986-62.414c-3.7848-3.5706-8.7836-5.3555-13.711-5.3555zm0.5 5.7305c3.5349 0.01785 7.0698 1.3393 9.6406 3.9102l23.279 23.709c2.1424 2.1423 2.1428 6.5701 0.85743 7.8555l-11.568-9.4258-2.2852 13.854-9.5703-5.1426-15.566 9.8555-5.1426-20.709-8.2832 17.994-20.709-0.14258c-3.999 0-3.429-4.1413 0.71289-8.2832 8.1409-8.9978 23.995-24.28 28.994-29.564 2.5708-2.6422 6.1058-3.928 9.6406-3.9102zm-27.922 92.031c1.2854 0 43.989 5.7131 27.564 10.141-6.2842 1.7139-35.134-10.141-27.564-10.141zm92.959 16.496c-4.9452 0.17853-9.9783 2.6426-11.264 7.2129 0 2.9993 23.28 4.7144 21.994-0.71289-0.92834-4.5703-5.7852-6.6785-10.73-6.5zm-102.3 12.979c-6.7261 0.39813-13.926 5.2765-8.2305 10.088 5.2844 4.5703 13.283-0.99876 15.854-7.4258-1.6068-2.0977-4.5657-2.8431-7.623-2.6621zm88.176 0.51953c-6.5698 5.9986 1.1433 12.282 7.5703 8.1406 1.7139-1.1426-0.14352-6.7124-7.5703-8.1406z" fill="url(#linearGradient10)" stroke-width="1.4282"/>
  <path d="m91 12c-72 0-85 15-85 87v56c0 70 13 85 85 85h74c72 0 85-15 85-85v-56c0-72-13-87-85-87zm0 4h74c68 0 80 15 80 83v56c0 66-12 81-80 81h-74c-68 0-80-15-80-81v-56c0-68 12-83 80-83z" fill="url(#linearGradient31)" style="isolation:isolate"/>
</svg>
