<svg width="256" height="256" version="1.1" xmlns="http://www.w3.org/2000/svg">
  <linearGradient id="b" x1=".5002" x2=".5002" y2="1" gradientTransform="matrix(244,0,0,228,5.981,12)" gradientUnits="userSpaceOnUse">
    <stop stop-color="#458588" offset="0"/>
    <stop stop-color="#458588" offset="1"/>
  </linearGradient>
  <defs>
    <linearGradient id="linearGradient31" x1=".5002" x2=".5002" y2="1" gradientTransform="matrix(244,0,0,228,5.988,12)" gradientUnits="userSpaceOnUse">
      <stop stop-color="#282828" stop-opacity=".1" offset="0"/>
      <stop stop-color="#bdae93" stop-opacity=".1" offset=".1"/>
      <stop stop-color="#d5c4a1" stop-opacity="0" offset=".7022"/>
      <stop stop-color="#bdae93" stop-opacity=".302" offset=".9"/>
      <stop stop-color="#282828" stop-opacity=".3" offset="1"/>
    </linearGradient>
  </defs>
  <path d="m165 12c72 0 85 15 85 87v56c0 70-13 85-85 85h-74c-72 0-85-15-85-85v-56c0-72 13-87 85-87z" fill="url(#b)" style="isolation:isolate"/>
  <path d="m156.78 58.415c-28.38 0.3928-59.95 8.783-85.78 24.62v4.355c59.62-31.01 142.6-30.36 150.3 15.03 2.406 14.12-4.597 28.71-17.37 38.02v12.56c16.63-7.904 32.51-28.6 27.55-53.84-5.505-28.02-37.27-41.27-74.65-40.75zm-100.6 32.61v10.44h10.44v-10.44zm126.6 6.525v33.48h0.0195l-0.0195 11.16c0 7.034 2.638 13.13 10.44 14.09v-58.73zm-140.2 5.855c-14.77 15.18-22.45 33.85-17.46 55.65 6.9 30.34 43.81 47.52 100.1 41.82 21.4-2.164 49.05-9.18 69.19-20v-16.39c-18.59 10.77-47.4 19.55-71.67 21.89-41.25 3.966-84.25-2.282-90.28-35.89-2.54-14.27 2.506-29.26 10.09-40.13v-6.936zm72.37 0.6699v13.05h0.0195l-0.0195 28.77c0 5.181 2.476 9.67 9.789 10.38h9.787v-10.44h-9.135v-18.27h9.135v-10.44h-9.135v-13.05h-10.44zm-39.15 13.05v39.15h10.44v-30.5h7.945c2.951 0 4.182 1.433 4.182 3.764v26.74h10.06v-27.45c0-5.559-3.005-11.69-11.85-11.69l-20.78-0.0117zm-19.56 2e-3 -0.01367 28.78c0 5.181 2.64 9.664 10.44 10.37l2e-3 -39.15h-10.43zm101.9 0c-9.698 0-17.1 7.055-17.1 19.54 0 14.6 8.464 19.61 17.31 19.61 6.761 0 10.6-2.274 14.26-6.029l-5.711-5.652c-2.369 2.434-4.391 3.617-8.488 3.617-5.229 0-8.176-3.617-8.176-8.518h23.43v-3.461c0-10.85-5.663-19.11-15.53-19.11zm-0.4082 7.936c4.75 0 6.547 3.967 6.725 8.092h-14.22c0.0587-1.684 0.2835-2.757 0.8809-4.125 1.033-2.276 3.459-3.967 6.619-3.967z" fill="#282828" opacity=".3" stroke-width="6.525"/>
  <path d="m156.78 54.06c-28.38 0.3928-59.95 8.783-85.78 24.62v4.355c59.62-31.01 142.6-30.36 150.3 15.03 2.406 14.12-4.597 28.71-17.37 38.02v12.56c16.63-7.904 32.51-28.6 27.55-53.84-5.505-28.02-37.27-41.27-74.65-40.75zm-100.6 32.61v10.44h10.44v-10.44zm126.6 6.525v33.48h0.0195l-0.0195 11.16c0 7.034 2.638 13.13 10.44 14.09v-58.73zm-140.2 5.855c-14.77 15.18-22.45 33.85-17.46 55.65 6.9 30.34 43.81 47.52 100.1 41.82 21.4-2.164 49.05-9.18 69.19-20v-16.39c-18.59 10.77-47.4 19.55-71.67 21.89-41.25 3.966-84.25-2.282-90.28-35.89-2.54-14.27 2.506-29.26 10.09-40.13v-6.936zm72.37 0.6699v13.05h0.0195l-0.0195 28.77c0 5.181 2.476 9.67 9.789 10.38h9.787v-10.44h-9.135v-18.27h9.135v-10.44h-9.135v-13.05h-10.44zm-39.15 13.05v39.15h10.44v-30.5h7.945c2.951 0 4.182 1.433 4.182 3.764v26.74h10.06v-27.45c0-5.559-3.005-11.69-11.85-11.69l-20.78-0.0117zm-19.56 2e-3 -0.01367 28.78c0 5.181 2.64 9.664 10.44 10.37l2e-3 -39.15h-10.43zm101.9 0c-9.698 0-17.1 7.055-17.1 19.54 0 14.6 8.464 19.61 17.31 19.61 6.761 0 10.6-2.274 14.26-6.029l-5.711-5.652c-2.369 2.434-4.391 3.617-8.488 3.617-5.229 0-8.176-3.617-8.176-8.518h23.43v-3.461c0-10.85-5.663-19.11-15.53-19.11zm-0.4082 7.936c4.75 0 6.547 3.967 6.725 8.092h-14.22c0.0587-1.684 0.2835-2.757 0.8809-4.125 1.033-2.276 3.459-3.967 6.619-3.967z" fill="#ebdbb2" stroke-width="6.525"/>
  <path d="m156.83 54.056-0.0508 0.0039c-28.38 0.3928-59.949 8.7841-85.779 24.621v4.3535c25.83-15.837 57.399-24.226 85.779-24.619l0.0508-0.0059c37.38-0.52 69.143 12.73 74.648 40.75 0.4812 2.4487 0.71306 4.8397 0.82031 7.1953 0.17536-3.7213-0.0383-7.5693-0.82031-11.549-5.505-28.02-37.268-41.27-74.648-40.75zm-100.65 32.613v4.3555h10.439v-4.3555zm126.6 6.5254v4.3555h10.439v-4.3555zm-140.2 5.8555-0.03125 0.01367v0.01953c0.01067-0.01098 0.02057-0.02223 0.03125-0.0332zm-0.03125 0.0332c-12.191 12.542-19.521 27.472-18.889 44.572 0.65272-15.291 7.7434-28.75 18.889-40.217v-0.0195zm72.4 0.63672v4.3555h10.441v-4.3555h-10.439zm106.73 6.2695c-0.79886 11.462-7.367 22.525-17.754 30.096v4.3555c11.699-8.5269 18.531-21.484 17.754-34.451zm-63.549 6.7793 4e-3 4e-3c-9.698 0-17.1 7.0541-17.1 19.539 0 0.7619 0.0371 1.483 0.082 2.1934 0.80941-11.133 7.895-17.379 17.018-17.379l-4e-3 -2e-3c9.5914 0 15.194 7.8128 15.5 18.215h0.0293v-3.4609c0-10.85-5.6623-19.109-15.529-19.109zm-32.744 2e-3v4.3535h9.1348v-4.3535zm-69.152 2e-3 -0.01367 28.779c0 0.0106 0.0019 0.0206 2e-3 0.0312l0.01172-24.457h10.43v-4.3535zm19.561 0v4.3556l20.777 0.01c8.845 0 11.85 6.1324 11.85 11.691v-4.3555c0-5.559-3.0046-11.689-11.85-11.689zm39.166 4.3516-0.0156 24.416c0 0.0159 2e-3 0.031 2e-3 0.0469l0.0176-24.463zm36.279 11.676c-0.0395 0.0782-0.0908 0.1508-0.12695 0.23046-0.5974 1.368-0.82216 2.441-0.88086 4.125h14.219c-0.0665-1.5403-0.35986-3.0575-0.94727-4.3555zm31.547 2.2305-0.0117 6.8047c0 0.0505 8e-3 0.0981 8e-3 0.14844l0.0117-6.9531zm-32.557 8.6641c0 4.901 2.9468 8.5176 8.1758 8.5176 4.097 0 6.1193-1.1832 8.4883-3.6172l3.4199 3.3848c0.78388-0.63546 1.5452-1.3208 2.291-2.0859l-5.7109-5.6524c-2.369 2.434-4.3913 3.6172-8.4883 3.6172-3.4907 0-5.9344-1.6344-7.1934-4.1641zm-118.38 1.127c-0.1373 3.2213 0.03135 6.4606 0.60156 9.6641 6.03 33.608 49.029 39.855 90.279 35.889 24.27-2.34 53.082-11.119 71.672-21.889v-4.3555c-18.59 10.77-47.402 19.551-71.672 21.891-41.25 3.966-84.249-2.2826-90.279-35.891-0.31358-1.7617-0.50973-3.534-0.60156-5.3086zm93.533 0.6582v4.3555h9.1348v-4.3555z" fill="#fbf1c7" opacity=".6"/>
  <path d="m91 12c-72 0-85 15-85 87v56c0 70 13 85 85 85h74c72 0 85-15 85-85v-56c0-72-13-87-85-87zm0 4h74c68 0 80 15 80 83v56c0 66-12 81-80 81h-74c-68 0-80-15-80-81v-56c0-68 12-83 80-83z" fill="url(#linearGradient31)" style="isolation:isolate"/>
</svg>
