<svg width="256" height="256" version="1.1" xmlns="http://www.w3.org/2000/svg">
  <linearGradient id="b" x1=".5002" x2=".5002" y2="1" gradientTransform="matrix(244,0,0,228,5.981,12)" gradientUnits="userSpaceOnUse">
    <stop stop-color="#ebdbb2" offset="0"/>
    <stop stop-color="#ebdbb2" offset="1"/>
  </linearGradient>
  <defs>
    <linearGradient id="linearGradient31" x1=".5002" x2=".5002" y2="1" gradientTransform="matrix(244,0,0,228,5.988,12)" gradientUnits="userSpaceOnUse">
      <stop stop-color="#282828" stop-opacity=".1" offset="0"/>
      <stop stop-color="#bdae93" stop-opacity=".1" offset=".1"/>
      <stop stop-color="#d5c4a1" stop-opacity="0" offset=".7022"/>
      <stop stop-color="#bdae93" stop-opacity=".302" offset=".9"/>
      <stop stop-color="#282828" stop-opacity=".3" offset="1"/>
    </linearGradient>
  </defs>
  <path d="m165 12c72 0 85 15 85 87v56c0 70-13 85-85 85h-74c-72 0-85-15-85-85v-56c0-72 13-87 85-87z" fill="url(#b)" style="isolation:isolate"/>
  <path d="m213.14 49.244-17.028 17.028v76.626c0 4.7168-3.7972 8.514-8.514 8.514h-85.14c-4.7167 0-8.514-3.7972-8.514-8.514v-85.14c0-4.7167 3.7972-8.514 8.514-8.514z" fill="#076678" stroke-width="4.257"/>
  <path d="m102.46 49.244c-4.7168 0-8.5137 3.797-8.5137 8.5137v4.1816c0.0411-4.6809 3.8187-8.4375 8.5098-8.4375h106.43l4.2578-4.2578zm93.654 21.281-4e-3 0.0039v72.449c2.4e-4 -0.027 4e-3 -0.053 4e-3 -0.0801z" fill="#ebdbb2" opacity=".2"/>
  <path d="m208.88 53.501-12.771 12.771v4.257l17.028-17.028zm-114.94 89.397v4.257c0 4.7168 3.7972 8.514 8.514 8.514h85.14c4.7167 0 8.514-3.7972 8.514-8.514v-4.257c0 4.7168-3.7972 8.514-8.514 8.514h-85.14c-4.7167 0-8.514-3.7972-8.514-8.514z" fill="#282828" opacity=".3" stroke-width="4.257"/>
  <path d="m42.859 100.33 17.028 17.028v76.626c0 4.7168 3.7972 8.514 8.514 8.514h85.14c4.7168 0 8.514-3.7972 8.514-8.514v-85.14c0-4.7168-3.7972-8.514-8.514-8.514z" fill="#458588" stroke-width="4.257"/>
  <path d="m86.468 133.26c-2.935 0-5.2988 2.3619-5.2988 5.2969 0 2.935 2.3638 5.2988 5.2988 5.2988h53.258c2.935 0 5.2969-2.3638 5.2969-5.2988 0-2.935-2.3619-5.2969-5.2969-5.2969zm0 21.191c-2.935 0-5.2988 2.3618-5.2988 5.2969s2.3638 5.2988 5.2988 5.2988h53.258c2.935 0 5.2969-2.3638 5.2969-5.2988s-2.3619-5.2969-5.2969-5.2969zm0 21.191c-2.935 0-5.2988 2.3619-5.2988 5.2969s2.3638 5.2988 5.2988 5.2988h32.555c2.935 0 5.2988-2.3638 5.2988-5.2988s-2.3638-5.2969-5.2988-5.2969z" fill="#282828" opacity=".3" stroke-linecap="square" stroke-miterlimit="0" stroke-width="2" style="paint-order:markers fill stroke"/>
  <path d="m86.468 129.18c-2.935 0-5.2988 2.3619-5.2988 5.2969 0 2.935 2.3638 5.2988 5.2988 5.2988h53.258c2.935 0 5.2969-2.3638 5.2969-5.2988 0-2.935-2.3619-5.2969-5.2969-5.2969zm0 21.191c-2.935 0-5.2988 2.3618-5.2988 5.2969s2.3638 5.2988 5.2988 5.2988h53.258c2.935 0 5.2969-2.3638 5.2969-5.2988s-2.3619-5.2969-5.2969-5.2969zm0 21.191c-2.935 0-5.2988 2.3619-5.2988 5.2969s2.3638 5.2988 5.2988 5.2988h32.555c2.935 0 5.2988-2.3638 5.2988-5.2988s-2.3638-5.2969-5.2988-5.2969z" fill="#ebdbb2" stroke-linecap="square" stroke-miterlimit="0" stroke-width="2" style="paint-order:markers fill stroke"/>
  <path d="m42.858 100.33 4.2598 4.2598h106.42c4.7168 0 8.5137 3.7969 8.5137 8.5137v-4.2598c0-4.7168-3.7969-8.5137-8.5137-8.5137z" fill="#ebdbb2" opacity=".2"/>
  <path d="m42.859 104.59 17.028 17.028v-4.257l-12.771-12.771zm17.028 89.397v4.257c0 4.7168 3.7972 8.514 8.514 8.514h85.14c4.7168 0 8.514-3.7972 8.514-8.514v-4.257c0 4.7168-3.7972 8.514-8.514 8.514h-85.14c-4.7167 0-8.514-3.7972-8.514-8.514z" fill="#282828" opacity=".3" stroke-width="4.257"/>
  <path d="m91 12c-72 0-85 15-85 87v56c0 70 13 85 85 85h74c72 0 85-15 85-85v-56c0-72-13-87-85-87zm0 4h74c68 0 80 15 80 83v56c0 66-12 81-80 81h-74c-68 0-80-15-80-81v-56c0-68 12-83 80-83z" fill="url(#linearGradient31)" style="isolation:isolate"/>
</svg>
