<svg width="256" height="256" version="1.1" xmlns="http://www.w3.org/2000/svg" xmlns:xlink="http://www.w3.org/1999/xlink">
  <linearGradient id="b" x1=".5002" x2=".5002" y2="1" gradientTransform="matrix(244,0,0,228,5.981,12)" gradientUnits="userSpaceOnUse">
    <stop stop-color="#ebdbb2" offset="0"/>
    <stop stop-color="#ebdbb2" offset="1"/>
  </linearGradient>
  <defs>
    <linearGradient id="linearGradient31" x1=".5002" x2=".5002" y2="1" gradientTransform="matrix(244,0,0,228,5.988,12)" gradientUnits="userSpaceOnUse">
      <stop stop-color="#282828" stop-opacity=".1" offset="0"/>
      <stop stop-color="#bdae93" stop-opacity=".1" offset=".1"/>
      <stop stop-color="#d5c4a1" stop-opacity="0" offset=".7022"/>
      <stop stop-color="#bdae93" stop-opacity=".302" offset=".9"/>
      <stop stop-color="#282828" stop-opacity=".15" offset="1"/>
    </linearGradient>
    <radialGradient id="g" cx="-97.261" cy="196.54" r="29.886" gradientTransform="matrix(-2.6431 -4.5765 3.4848 -2.0126 -797.62 31.115)" gradientUnits="userSpaceOnUse">
      <stop stop-color="#83a598" offset="0"/>
      <stop stop-color="#fb4934" offset=".55172"/>
      <stop stop-color="#fe8019" offset=".74368"/>
      <stop stop-color="#fabd2f" offset="1"/>
    </radialGradient>
    <linearGradient id="k" x1="54" x2="87.392" y1="82" y2="45.261" gradientTransform="matrix(1.829 0 0 1.829 10.945 16.261)" gradientUnits="userSpaceOnUse">
      <stop stop-color="#d79921" offset="0"/>
      <stop stop-color="#cc241d" offset=".32663"/>
      <stop stop-color="#8f3f71" offset=".7077"/>
      <stop stop-color="#458588" offset="1"/>
    </linearGradient>
  </defs>
  <path d="m165 12c72 0 85 15 85 87v56c0 70-13 85-85 85h-74c-72 0-85-15-85-85v-56c0-72 13-87 85-87z" fill="url(#b)" style="isolation:isolate"/>
  <path d="m43.867 38.209c-6.0585 0-10.975 4.9141-10.975 10.973s4.9161 10.975 10.975 10.975c6.0585 0 10.973-4.9161 10.973-10.975s-4.9141-10.973-10.973-10.973zm168.27 0c-6.0585 0-10.973 4.9141-10.973 10.973s4.9141 10.975 10.973 10.975 10.975-4.9161 10.975-10.975-4.9161-10.973-10.975-10.973zm-149.98 7.3164c-2.0219 0-3.6582 1.6344-3.6582 3.6562s1.6363 3.6582 3.6582 3.6582 3.6582-1.6363 3.6582-3.6582-1.6363-3.6562-3.6582-3.6562zm14.633 0c-2.0219 0-3.6582 1.6344-3.6582 3.6562s1.6363 3.6582 3.6582 3.6582 3.6582-1.6363 3.6582-3.6582-1.6363-3.6562-3.6582-3.6562zm14.631 0c-2.0219 0-3.6582 1.6344-3.6582 3.6562s1.6363 3.6582 3.6582 3.6582 3.6582-1.6363 3.6582-3.6582-1.6363-3.6562-3.6582-3.6562zm14.633 0c-2.0219 0-3.6582 1.6344-3.6582 3.6562s1.6363 3.6582 3.6582 3.6582c2.0219 0 3.6582-1.6363 3.6582-3.6582s-1.6363-3.6562-3.6582-3.6562zm14.631 0c-2.0219 0-3.6582 1.6344-3.6582 3.6562s1.6363 3.6582 3.6582 3.6582 3.6582-1.6363 3.6582-3.6582-1.6363-3.6562-3.6582-3.6562zm14.633 0c-2.0219 0-3.6582 1.6344-3.6582 3.6562s1.6363 3.6582 3.6582 3.6582 3.6582-1.6363 3.6582-3.6582-1.6363-3.6562-3.6582-3.6562zm14.631 0c-2.0219 0-3.6582 1.6344-3.6582 3.6562s1.6363 3.6582 3.6582 3.6582c2.0219 0 3.6582-1.6363 3.6582-3.6582s-1.6363-3.6562-3.6582-3.6562zm14.633 0c-2.0219 0-3.6582 1.6344-3.6582 3.6562s1.6363 3.6582 3.6582 3.6582 3.6582-1.6363 3.6582-3.6582-1.6363-3.6562-3.6582-3.6562zm14.631 0c-2.0219 0-3.6582 1.6344-3.6582 3.6562s1.6363 3.6582 3.6582 3.6582 3.6582-1.6363 3.6582-3.6582-1.6363-3.6562-3.6582-3.6562zm14.633 0c-2.0219 0-3.6582 1.6344-3.6582 3.6562s1.6363 3.6582 3.6582 3.6582c2.0219 0 3.6582-1.6363 3.6582-3.6582s-1.6363-3.6562-3.6582-3.6562zm-149.98 18.289c-2.0219 0-3.6582 1.6363-3.6582 3.6582 0 2.0219 1.6363 3.6582 3.6582 3.6582s3.6582-1.6363 3.6582-3.6582c0-2.0219-1.6363-3.6582-3.6582-3.6582zm168.27 0c-2.0219 0-3.6582 1.6363-3.6582 3.6582 0 2.0219 1.6363 3.6582 3.6582 3.6582s3.6582-1.6363 3.6582-3.6582c0-2.0219-1.6363-3.6582-3.6582-3.6582zm-168.27 14.633c-2.0219 0-3.6582 1.6344-3.6582 3.6562s1.6363 3.6582 3.6582 3.6582 3.6582-1.6363 3.6582-3.6582-1.6363-3.6562-3.6582-3.6562zm168.27 0c-2.0219 0-3.6582 1.6344-3.6582 3.6562s1.6363 3.6582 3.6582 3.6582 3.6582-1.6363 3.6582-3.6582-1.6363-3.6562-3.6582-3.6562zm-168.27 14.631c-2.0219 0-3.6582 1.6363-3.6582 3.6582s1.6363 3.6582 3.6582 3.6582 3.6582-1.6363 3.6582-3.6582-1.6363-3.6582-3.6582-3.6582zm168.27 0c-2.0219 0-3.6582 1.6363-3.6582 3.6582s1.6363 3.6582 3.6582 3.6582 3.6582-1.6363 3.6582-3.6582-1.6363-3.6582-3.6582-3.6582zm-168.27 14.633c-2.0219 0-3.6582 1.6344-3.6582 3.6562s1.6363 3.6582 3.6582 3.6582 3.6582-1.6363 3.6582-3.6582-1.6363-3.6562-3.6582-3.6562zm168.27 0c-2.0219 0-3.6582 1.6344-3.6582 3.6562s1.6363 3.6582 3.6582 3.6582 3.6582-1.6363 3.6582-3.6582-1.6363-3.6562-3.6582-3.6562zm-168.27 14.631c-2.0219 0-3.6582 1.6363-3.6582 3.6582s1.6363 3.6582 3.6582 3.6582 3.6582-1.6363 3.6582-3.6582-1.6363-3.6582-3.6582-3.6582zm168.27 0c-2.0219 0-3.6582 1.6363-3.6582 3.6582s1.6363 3.6582 3.6582 3.6582 3.6582-1.6363 3.6582-3.6582-1.6363-3.6582-3.6582-3.6582zm-168.27 14.633c-2.0219 0-3.6582 1.6363-3.6582 3.6582s1.6363 3.6562 3.6582 3.6562 3.6582-1.6344 3.6582-3.6562-1.6363-3.6582-3.6582-3.6582zm168.27 0c-2.0219 0-3.6582 1.6363-3.6582 3.6582s1.6363 3.6562 3.6582 3.6562 3.6582-1.6344 3.6582-3.6562-1.6363-3.6582-3.6582-3.6582zm-168.27 14.631c-2.0219 0-3.6582 1.6363-3.6582 3.6582s1.6363 3.6582 3.6582 3.6582 3.6582-1.6363 3.6582-3.6582-1.6363-3.6582-3.6582-3.6582zm168.27 0c-2.0219 0-3.6582 1.6363-3.6582 3.6582s1.6363 3.6582 3.6582 3.6582 3.6582-1.6363 3.6582-3.6582-1.6363-3.6582-3.6582-3.6582zm-168.27 14.633c-2.0219 0-3.6582 1.6363-3.6582 3.6582 0 2.0219 1.6363 3.6562 3.6582 3.6562s3.6582-1.6344 3.6582-3.6562c0-2.0219-1.6363-3.6582-3.6582-3.6582zm168.27 0c-2.0219 0-3.6582 1.6363-3.6582 3.6582 0 2.0219 1.6363 3.6562 3.6582 3.6562s3.6582-1.6344 3.6582-3.6562c0-2.0219-1.6363-3.6582-3.6582-3.6582zm-168.27 14.631c-2.0219 0-3.6582 1.6363-3.6582 3.6582s1.6363 3.6582 3.6582 3.6582 3.6582-1.6363 3.6582-3.6582-1.6363-3.6582-3.6582-3.6582zm168.27 0c-2.0219 0-3.6582 1.6363-3.6582 3.6582s1.6363 3.6582 3.6582 3.6582 3.6582-1.6363 3.6582-3.6582-1.6363-3.6582-3.6582-3.6582zm-168.27 10.975c-6.0585 0-10.975 4.9161-10.975 10.975 0 6.0585 4.9161 10.973 10.975 10.973 6.0585 0 10.973-4.9141 10.973-10.973 0-6.0585-4.9141-10.975-10.973-10.975zm168.27 0c-6.0585 0-10.973 4.9161-10.973 10.975 0 6.0585 4.9141 10.973 10.973 10.973s10.975-4.9141 10.975-10.973c0-6.0585-4.9161-10.975-10.975-10.975zm-149.98 7.3164c-2.0219 0-3.6582 1.6363-3.6582 3.6582s1.6363 3.6562 3.6582 3.6562 3.6582-1.6343 3.6582-3.6562-1.6363-3.6582-3.6582-3.6582zm14.633 0c-2.0219 0-3.6582 1.6363-3.6582 3.6582s1.6363 3.6562 3.6582 3.6562 3.6582-1.6343 3.6582-3.6562-1.6363-3.6582-3.6582-3.6582zm14.631 0c-2.0219 0-3.6582 1.6363-3.6582 3.6582s1.6363 3.6562 3.6582 3.6562 3.6582-1.6343 3.6582-3.6562-1.6363-3.6582-3.6582-3.6582zm14.633 0c-2.0219 0-3.6582 1.6363-3.6582 3.6582s1.6363 3.6562 3.6582 3.6562c2.0219 0 3.6582-1.6343 3.6582-3.6562s-1.6363-3.6582-3.6582-3.6582zm14.631 0c-2.0219 0-3.6582 1.6363-3.6582 3.6582s1.6363 3.6562 3.6582 3.6562 3.6582-1.6343 3.6582-3.6562-1.6363-3.6582-3.6582-3.6582zm14.633 0c-2.0219 0-3.6582 1.6363-3.6582 3.6582s1.6363 3.6562 3.6582 3.6562 3.6582-1.6343 3.6582-3.6562-1.6363-3.6582-3.6582-3.6582zm14.631 0c-2.0219 0-3.6582 1.6363-3.6582 3.6582s1.6363 3.6562 3.6582 3.6562c2.0219 0 3.6582-1.6343 3.6582-3.6562s-1.6363-3.6582-3.6582-3.6582zm14.633 0c-2.0219 0-3.6582 1.6363-3.6582 3.6582s1.6363 3.6562 3.6582 3.6562 3.6582-1.6343 3.6582-3.6562-1.6363-3.6582-3.6582-3.6582zm14.631 0c-2.0219 0-3.6582 1.6363-3.6582 3.6582s1.6363 3.6562 3.6582 3.6562 3.6582-1.6343 3.6582-3.6562-1.6363-3.6582-3.6582-3.6582zm14.633 0c-2.0219 0-3.6582 1.6363-3.6582 3.6582s1.6363 3.6562 3.6582 3.6562c2.0219 0 3.6582-1.6343 3.6582-3.6562s-1.6363-3.6582-3.6582-3.6582z" fill="#458588" stroke-width="1.829"/>
  <path d="m43.867 43.695c-3.0293 0-5.4883 2.4571-5.4883 5.4863 0 3.0293 2.459 5.4883 5.4883 5.4883 3.0293 0 5.4863-2.459 5.4863-5.4883 0-3.0293-2.4571-5.4863-5.4863-5.4863zm168.27 0c-3.0293 0-5.4863 2.4571-5.4863 5.4863 0 3.0293 2.4571 5.4883 5.4863 5.4883s5.4883-2.459 5.4883-5.4883c0-3.0293-2.459-5.4863-5.4883-5.4863zm-168.27 153.63c-3.0293 0-5.4883 2.459-5.4883 5.4883 0 3.0292 2.459 5.4863 5.4883 5.4863 3.0293 0 5.4863-2.4571 5.4863-5.4863 0-3.0293-2.4571-5.4883-5.4863-5.4883zm168.27 0c-3.0293 0-5.4863 2.459-5.4863 5.4883 0 3.0292 2.4571 5.4863 5.4863 5.4863s5.4883-2.4571 5.4883-5.4863c0-3.0293-2.459-5.4883-5.4883-5.4883z" fill="#83a598" stroke-width="1.829"/>
  <path d="m120.95 50.114c-13.675-0.11533-30.549 7.5453-44.559 21.555-21.348 21.348-27.956 49.348-14.76 62.537 0.71313 0.71351 1.4771 1.3566 2.2734 1.9551l-0.1582 0.1582 53.412 53.412 4.4726 4.5371c14.732 7.6803 39.573-0.84982 58.062-19.297 18.447-18.49 26.756-43.295 19.076-58.027-19.019-19.519-38.452-38.652-57.721-57.928l-0.16016 0.16015c-0.59811-0.79658-1.242-1.562-1.9551-2.2754-4.5361-4.5336-10.821-6.7267-17.984-6.7871z" fill="#282828" opacity=".1" stroke-width="1.829"/>
  <path d="m138.93 51.862c13.189 13.196 6.5801 41.195-14.768 62.543-21.348 21.348-49.347 27.956-62.536 14.76-13.196-13.189-6.5872-41.188 14.76-62.536 21.348-21.348 49.347-27.956 62.543-14.768z" fill="url(#g)" stroke-width="1.829"/>
  <path d="m63.743 131.28 53.412 53.412 4.4724 4.5368c14.732 7.6803 39.573-0.8502 58.063-19.297 18.447-18.49 26.756-43.296 19.076-58.027-19.019-19.519-38.452-38.652-57.72-57.927l-0.22861 0.22862c10.538 14.075 3.315 40.181-16.654 60.199-20.012 19.969-46.118 27.192-60.199 16.654z" fill="url(#k)" stroke-width="1.829"/>
  <path d="m91 12c-72 0-85 15-85 87v56c0 70 13 85 85 85h74c72 0 85-15 85-85v-56c0-72-13-87-85-87zm0 4h74c68 0 80 15 80 83v56c0 66-12 81-80 81h-74c-68 0-80-15-80-81v-56c0-68 12-83 80-83z" fill="url(#linearGradient31)" style="isolation:isolate"/>
</svg>
