<svg width="256" height="256" version="1.1" xmlns="http://www.w3.org/2000/svg">
  <defs>
    <linearGradient id="linearGradient31" x1=".5002" x2=".5002" y2="1" gradientTransform="matrix(244,0,0,228,5.986,12)" gradientUnits="userSpaceOnUse">
      <stop stop-color="#ebdbb2" stop-opacity=".2" offset="0"/>
      <stop stop-color="#ebdbb2" stop-opacity=".05" offset=".1"/>
      <stop stop-opacity="0" offset=".7036"/>
      <stop stop-opacity=".1" offset=".8975"/>
      <stop stop-opacity=".2" offset="1"/>
    </linearGradient>
    <radialGradient id="radialGradient10" cx="128" cy="126" r="122" gradientTransform="matrix(1 0 0 .93443 0 8.2623)" gradientUnits="userSpaceOnUse">
      <stop stop-color="#b8bb26" offset="0"/>
      <stop stop-color="#98971a" offset="1"/>
    </radialGradient>
  </defs>
  <path d="m165 12c72 0 85 15 85 87v56c0 70-13 85-85 85h-74c-72 0-85-15-85-85v-56c0-72 13-87 85-87z" fill="url(#radialGradient10)" style="isolation:isolate"/>
  <path d="m176.64 49.493c-1.9861-0.0232-4.6255 0.28856-8.1379 0.81601l-56.299 8.9359c-14.109 3.004-14.06 3.9384-14.108 15.858v96.717c-0.58876-0.41224-1.169-0.82658-1.7768-1.2346v4e-3c-4.4828-3.004-9.2604-5.1413-15.677-5.1413-8.0375 0-12.832 3.078-15.732 7.1316-2.9025 4.0536-3.8644 9.1642-3.8644 13.113 0 4.7629 1.6257 9.846 5.154 13.72 3.5283 3.8739 8.9528 6.5872 16.75 6.5872 8.807 0 15.001-2.4596 18.503-7.2616 2.7577-3.7809 4.2819-8.8334 4.8263-15.064v-0.019c0.0761-0.75682 0.13107-1.5327 0.17969-2.3328 0.074-1.2314 0.0581-3.5357 0.0581-3.5357v-74.056c0-10.579-1e-3 -11.211 14.111-13.623l39.42-6.5186c14.138-1.8498 14.141-0.55281 14.141 7.3811v67.962c-0.57184-0.40166-1.1373-0.80544-1.7293-1.2018v4e-3c-4.4817-3.004-9.2583-5.1413-15.675-5.1413-8.0375 0-12.832 3.078-15.735 7.1316-2.9015 4.0536-3.8644 9.1642-3.8644 13.113 0 4.7629 1.6278 9.846 5.1571 13.72 3.5272 3.8739 8.9518 6.5894 16.75 6.5894 8.8059 0 15.001-2.4618 18.503-7.2637 2.7567-3.782 4.2798-8.8313 4.8231-15.062v-0.019c0.0772-0.75682 0.13212-1.5306 0.17969-2.3307 0.074-1.2314 0.0602-3.5378 0.0602-3.5378v-103.03c0-9.2784-0.0613-12.352-6.0175-12.418z" fill="#ebdbb2" opacity=".3" stroke-width="1.057"/>
  <path d="m176.64 45.552c-1.9861-0.02325-4.6255 0.28856-8.1379 0.81601l-56.299 8.9359c-14.109 3.004-14.06 3.9384-14.108 15.858v96.717c-0.58876-0.41224-1.169-0.82658-1.7768-1.2346v4e-3c-4.4828-3.004-9.2604-5.1413-15.677-5.1413-8.0375 0-12.832 3.078-15.732 7.1316-2.9025 4.0536-3.8644 9.1642-3.8644 13.113 0 4.7629 1.6257 9.846 5.154 13.72 3.5283 3.8739 8.9528 6.5872 16.75 6.5872 8.807 0 15.001-2.4596 18.503-7.2616 2.7577-3.7809 4.2819-8.8334 4.8263-15.064v-0.019c0.0761-0.75682 0.13107-1.5327 0.17969-2.3328 0.074-1.2314 0.0581-3.5357 0.0581-3.5357v-74.056c0-10.579-1e-3 -11.211 14.111-13.623l39.42-6.5185c14.138-1.8498 14.141-0.55281 14.141 7.3811v67.962c-0.57184-0.40166-1.1373-0.80544-1.7293-1.2018v4e-3c-4.4817-3.004-9.2583-5.1413-15.675-5.1413-8.0375 0-12.832 3.078-15.735 7.1316-2.9015 4.0536-3.8644 9.1642-3.8644 13.113 0 4.7629 1.6278 9.846 5.1571 13.72 3.5272 3.8739 8.9518 6.5894 16.75 6.5894 8.8059 0 15.001-2.4618 18.503-7.2637 2.7567-3.782 4.2798-8.8313 4.8231-15.062v-0.019c0.0772-0.75682 0.13212-1.5306 0.17969-2.3307 0.074-1.2314 0.0602-3.5378 0.0602-3.5378v-103.03c0-9.2784-0.0613-12.352-6.0175-12.418z" fill="#282828" stroke-width="1.057"/>
  <path d="m176.64 45.546v0.0078c-1.9861-0.02325-4.6263 0.287-8.1387 0.81445l-56.299 8.9375c-14.109 3.004-14.059 3.9378-14.107 15.857v3.9414c0.048-11.92-2e-3 -12.855 14.107-15.859l56.299-8.9355c3.5124-0.52745 6.1526-0.83966 8.1387-0.81641v-0.0059c5.9562 0.066 6.0176 3.1396 6.0176 12.418v-3.9414c0-9.2784-0.0614-12.352-6.0176-12.418zm-19.857 103.11c-8.0375 0-12.831 3.0773-15.734 7.1309-2.9015 4.0536-3.8652 9.1645-3.8652 13.113 0 0.63329 0.0356 1.273 0.0937 1.9141 0.28512-3.5715 1.3442-7.6949 3.7715-11.086 2.903-4.0536 7.6969-7.1309 15.734-7.1309 6.4167 0 11.194 2.1366 15.676 5.1406v-4e-3c0.592 0.39636 1.1567 0.79951 1.7285 1.2012v-3.9394c-0.57184-0.40166-1.1365-0.80677-1.7285-1.2031v4e-3c-4.4817-3.004-9.2591-5.1406-15.676-5.1406zm-76.143 12.855c-8.0375 0-12.83 3.0773-15.73 7.1309-2.9025 4.0536-3.8652 9.1645-3.8652 13.113 0 0.63582 0.0332 1.2763 0.0918 1.9199 0.28413-3.573 1.3439-7.6987 3.7734-11.092 2.9-4.0536 7.693-7.1328 15.73-7.1328 6.4166 0 11.195 2.1386 15.678 5.1426v-4e-3c0.6078 0.40802 1.1886 0.82213 1.7773 1.2344v-3.9414c-0.58876-0.41224-1.1695-0.82636-1.7773-1.2344v4e-3c-4.4828-3.004-9.2611-5.1406-15.678-5.1406z" fill="#1d2021"/>
  <path d="m91 12c-72 0-85 15-85 87v56c0 70 13 85 85 85h74c72 0 85-15 85-85v-56c0-72-13-87-85-87zm0 4h74c68 0 80 15 80 83v56c0 66-12 81-80 81h-74c-68 0-80-15-80-81v-56c0-68 12-83 80-83z" fill="url(#linearGradient31)" style="isolation:isolate"/>
</svg>
