<svg width="256" height="256" version="1.1" xmlns="http://www.w3.org/2000/svg">
  <linearGradient id="b" x1=".5002" x2=".5002" y2="1" gradientTransform="matrix(244,0,0,228,5.981,12)" gradientUnits="userSpaceOnUse">
    <stop stop-color="#ebdbb2" offset="0"/>
    <stop stop-color="#d5c4a1" offset="1"/>
  </linearGradient>
  <defs>
    <linearGradient id="linearGradient31" x1=".5002" x2=".5002" y2="1" gradientTransform="matrix(244,0,0,228,5.988,12)" gradientUnits="userSpaceOnUse">
      <stop stop-color="#282828" stop-opacity=".1" offset="0"/>
      <stop stop-color="#bdae93" stop-opacity=".1" offset=".1"/>
      <stop stop-color="#d5c4a1" stop-opacity="0" offset=".7022"/>
      <stop stop-color="#bdae93" stop-opacity=".302" offset=".9"/>
      <stop stop-color="#282828" stop-opacity=".15" offset="1"/>
    </linearGradient>
  </defs>
  <path d="m165 12c72 0 85 15 85 87v56c0 70-13 85-85 85h-74c-72 0-85-15-85-85v-56c0-72 13-87 85-87z" fill="url(#b)" style="isolation:isolate"/>
  <path d="m144.46 46.305a1.3853 1.3853 0 0 0-1.7168 1.6113c0.0209 0.09179 1.88 9.2092-3.3066 18.598-2.1364 3.8806-6.8326 7.1854-12.27 11.012-7.8029 5.4829-16.643 11.705-21.379 21.99-8.2285 17.947 16.832 37.524 17.904 38.346a1.3811 1.3811 0 0 0 2.0742-1.7305c-0.0918-0.17526-9.0877-17.651-8.7539-30.186 0.11683-4.3688 6.2297-9.3216 12.697-14.562 5.9252-4.8027 12.644-10.248 16.57-16.615 8.629-14.02-0.96041-27.802-1.0606-27.939a1.3853 1.3853 0 0 0-0.75976-0.52344zm14.889 34.92a1.3853 1.3853 0 0 0-0.64648 0.08008c-1.3227 0.50489-32.445 12.502-32.445 26.998 0 9.9935 4.2678 15.271 7.3848 19.127 1.2226 1.5105 2.2784 2.8175 2.6289 3.9316 0.9764 3.2129-1.3439 9.0168-2.3203 10.986a1.3853 1.3853 0 0 0 2.0293 1.752c0.53827-0.37554 13.081-9.2416 10.832-19.928-0.83871-4.06-2.8388-7.0261-4.5996-9.6465-2.7247-4.0558-4.6986-6.9865-1.7109-12.398 3.505-6.3132 19.365-18.301 19.527-18.422a1.3853 1.3853 0 0 0-0.67969-2.4805zm17.719 53.951c-6.0462 0-11.778 3.0291-12.02 3.1543-1.2634 0.68125-0.78499 2.597 0.65039 2.6035 0.12935 0 12.895 0.1046 14.051 7.3984 1.0223 6.2924-12.076 16.486-17.213 19.883-1.2954 0.83706-0.4521 2.8438 1.0527 2.5059 1.2184-0.2587 29.808-6.5584 26.787-23.203-1.8485-10.202-8.2597-12.342-13.309-12.342zm-70.023 2.2617c-4.2853 0-25.786 0.34559-28.031 7.1387-0.53411 1.5981-0.28322 3.1839 0.72656 4.5859 5.7977 8.0408 33.967 7.3802 41.445 7.1133 29.305-1.0432 40.172-10.178 40.623-10.566 1.1008-0.9677 0.14002-2.7574-1.2754-2.377-10.319 2.8165-29.588 3.8184-42.953 3.8184-14.959 0-22.572-1.0761-24.438-1.873 0.95971-1.3144 6.8553-3.66 14.17-5.0996 1.6736-0.2994 1.4324-2.77-0.26758-2.7402zm-5.9102 19.574c-0.17564-0.0318-0.36853-0.0291-0.57618 0.0156-6.8724 1.6607-10.236 3.9818-9.9941 6.8984 0.55058 6.5646 18.92 8.6777 27.221 8.6777 16.841 0 38.431-5.2814 38.648-5.3398 1.1455-0.28023 1.4257-1.7931 0.45899-2.4707l-6.8535-4.8027c-0.33498-0.23433-0.75514-0.3095-1.1504-0.20508-11.445 2.692-21.274 3.7676-31.027 3.7676-10.402 0-17.206-1.222-18.195-2.1191-0.13352-0.25035-0.09326-0.3671-0.06836-0.42969 0.17942-0.50072 1.1419-1.0961 1.7637-1.334 1.3815-0.54993 1.0029-2.4357-0.22656-2.6582zm3.8535 17.721c-0.92215 0.0292-9.0165 0.39145-9.584 5.5488-0.17108 1.5397 0.2696 2.9465 1.3086 4.1816 5.3488 6.3311 27.723 6.4004 28.715 6.4004 16.816 0 28.147-5.2649 28.623-5.4902 0.99458-0.47321 1.0658-1.8629 0.125-2.4356l-8.6621-5.2832c-0.29995-0.18327-0.6574-0.24735-1.002-0.17773-10.039 1.9797-15.615 2.5996-19.703 2.5996-8.2911 0-17.516-1.3515-19.281-2.2402-0.0293-0.1669 4e-3 -0.37694 0.25-0.56055h4e-3c1.1858-0.75722 0.61301-2.594-0.79297-2.543zm-13.895 11.877c-0.1836 0.0251-0.81276 0.0654-1.543 0.11133-10.878 0.66344-23.451 2.1422-24.102 7.7461-0.20029 1.7066 0.30217 3.2555 1.5039 4.6074 2.9375 3.2964 11.381 7.6875 50.633 7.6875v4e-3c38.526-0.0333 59.205-6.8866 63.189-11.201 3.1159-3.3648 0.59087-6.6565-1.209-7.8047-1.327-0.85626-2.8373 0.85201-1.8145 2.043 0.24618 0.31295 0.38318 0.83531-0.32617 1.5488-2.5331 2.3606-28.254 7.6484-55.816 7.6484-23.943 0-41.47-3.2842-43.77-5.1953 0.8846-1.2726 7.0869-3.3093 13.68-4.4609 1.7154-0.35951 1.3178-2.9122-0.42578-2.7344zm96.846 10.061c-0.4121-0.0604-0.8552 0.0611-1.1934 0.42774-0.0542 0.0584-5.847 6.1148-23.264 9.6699-24.005 3.0881-48.452 2.2324-72.598 1.2988-1.6618-0.0525-1.9894 2.3327-0.375 2.7305 25.259 5.2313 51.493 5.598 76.926 1.4102 20.233-3.5468 21.647-13.584 21.697-14.006 0.0963-0.82439-0.50652-1.4306-1.1934-1.5313z" fill="#ebdbb2" opacity=".6" stroke-width="4.1726"/>
  <path d="m144.46 41.65a1.3853 1.3853 0 0 0-1.7185 1.6128c0.0209 0.09179 1.8812 9.2085-3.3054 18.597-2.1364 3.8806-6.8338 7.1852-12.271 11.012-7.8029 5.4829-16.642 11.705-21.378 21.991-8.2285 17.947 16.832 37.523 17.905 38.345a1.3811 1.3811 0 0 0 2.0742-1.7314c-0.0918-0.17526-9.0879-17.65-8.754-30.184 0.11683-4.3688 6.2301-9.3219 12.698-14.563 5.9252-4.8027 12.644-10.248 16.57-16.615 8.629-14.02-0.9607-27.802-1.0608-27.94a1.3853 1.3853 0 0 0-0.75897-0.52395zm14.888 34.921a1.3853 1.3853 0 0 0-0.64685 0.07978c-1.3227 0.50489-32.446 12.502-32.446 26.997 0 9.9935 4.2679 15.272 7.3849 19.127 1.2226 1.5105 2.2779 2.8166 2.6284 3.9307 0.9764 3.2129-1.3436 9.0184-2.32 10.988a1.3853 1.3853 0 0 0 2.029 1.7508c0.53827-0.37554 13.082-9.2412 10.833-19.927-0.83871-4.06-2.8383-7.0263-4.5991-9.6467-2.7247-4.0558-4.6996-6.9861-1.712-12.398 3.505-6.3132 19.366-18.301 19.528-18.422a1.3853 1.3853 0 0 0-0.6792-2.4796z" fill="#cc241d" stroke-width="4.1726"/>
  <path d="m177.06 130.52c-6.0462 0-11.776 3.0293-12.018 3.1545-1.2634 0.68125-0.78422 2.5981 0.65116 2.6047 0.12935 0 12.894 0.104 14.05 7.3978 1.0223 6.2924-12.076 16.486-17.213 19.882-1.2954 0.83706-0.45262 2.8456 1.0522 2.5076 1.2184-0.2587 29.809-6.56 26.788-23.205-1.8485-10.202-8.2611-12.342-13.31-12.342zm-70.022 2.2618c-4.2853 0-25.787 0.34601-28.032 7.1391-0.53411 1.5981-0.28316 3.1842 0.72663 4.5862 5.7977 8.0408 33.968 7.3801 41.446 7.1132 29.305-1.0432 40.172-10.177 40.622-10.565 1.1008-0.9677 0.14112-2.7587-1.2743-2.3783-10.319 2.8165-29.588 3.8186-42.953 3.8186-14.959 0-22.573-1.0767-24.438-1.8737 0.95971-1.3144 6.8557-3.6598 14.17-5.0993 1.6736-0.2994 1.4326-2.7702-0.26738-2.7405zm-6.4879 19.591c-6.8724 1.6607-10.236 3.9809-9.9938 6.8976 0.55058 6.5646 18.921 8.6786 27.222 8.6786 16.841 0 38.43-5.2824 38.647-5.3408 1.1455-0.28022 1.426-1.7934 0.45927-2.471l-6.8523-4.8018c-0.33498-0.23433-0.75615-0.30926-1.1514-0.20484-11.445 2.692-21.274 3.7668-31.027 3.7668-10.402 0-17.207-1.2224-18.196-2.1195-0.13352-0.25035-0.09185-0.36648-0.0669-0.42907 0.17942-0.50072 1.142-1.0968 1.7637-1.3347 1.5788-0.6285 0.85694-2.9994-0.80425-2.6413zm4.4309 17.704c-0.92215 0.0292-9.0167 0.39261-9.5842 5.55-0.17108 1.5397 0.26981 2.9457 1.3088 4.1808 5.3488 6.3311 27.722 6.3995 28.714 6.3995 16.816 0 28.147-5.2643 28.623-5.4896 0.99458-0.47321 1.0659-1.8617 0.12505-2.4343l-8.6613-5.2848c-0.29995-0.18327-0.65808-0.24642-1.0026-0.1768-10.039 1.9797-15.615 2.6003-19.703 2.6003-8.2911 0-17.515-1.3515-19.28-2.2403-0.0293-0.1669 4e-3 -0.377 0.25011-0.56061h4e-3c1.1858-0.75722 0.61251-2.5953-0.79347-2.5443zm-13.894 11.878c-0.1836 0.0251-0.81361 0.064-1.5438 0.10996-10.878 0.66344-23.451 2.1432-24.102 7.7471-0.20029 1.7066 0.30327 3.2558 1.505 4.6077 2.9375 3.2964 11.379 7.6868 50.631 7.6868v4e-3c38.526-0.0333 59.206-6.8868 63.191-11.201 3.1159-3.3648 0.59024-6.6571-1.2096-7.8053-1.327-0.85626-2.8383 0.8531-1.8154 2.0441 0.24618 0.31295 0.38376 0.83461-0.32559 1.5481-2.5331 2.3606-28.254 7.6479-55.817 7.6479-23.943 0-41.469-3.2831-43.768-5.1942 0.8846-1.2726 7.086-3.3095 13.679-4.4611 1.7154-0.35951 1.3188-2.9119-0.42476-2.734zm95.652 10.488c-0.0542 0.0584-5.8484 6.1153-23.265 9.6704-24.005 3.0881-48.45 2.2315-72.596 1.298-1.6618-0.0525-1.9895 2.3319-0.37516 2.7297 25.259 5.2313 51.493 5.598 76.926 1.4101 20.233-3.5468 21.647-13.583 21.698-14.004 0.15403-1.319-1.4851-2.0818-2.3869-1.104z" fill="#076678" stroke-width="4.1726"/>
  <path d="m144.46 41.65a1.3853 1.3853 0 0 0-1.7188 1.6113c8e-3 0.03533 0.28204 1.4262 0.32813 3.6367a1.3853 1.3853 0 0 1 1.3926-0.58984 1.3853 1.3853 0 0 1 0.75781 0.52344c0.0627 0.08626 3.8459 5.5282 4.5449 13.027 0.94228-9.8009-4.4718-17.582-4.5469-17.686a1.3853 1.3853 0 0 0-0.75782-0.52344zm-1.4844 8.0957c-0.24729 3.3839-1.1034 7.7008-3.541 12.113-2.1364 3.8806-6.8326 7.1854-12.27 11.012-7.8029 5.4829-16.643 11.705-21.379 21.99-1.5213 3.318-1.8983 6.6915-1.5059 9.9922 0.21913-1.7808 0.6969-3.5654 1.5078-5.334 4.736-10.286 13.576-16.507 21.379-21.99 5.437-3.8263 10.133-7.1312 12.27-11.012 3.8185-6.9119 3.8133-13.647 3.5391-16.771zm16.371 26.824a1.3853 1.3853 0 0 0-0.64648 0.08008c-1.3227 0.50489-32.445 12.502-32.445 26.998 0 1.0455 0.071 2.011 0.1582 2.957 1.8657-11.292 21.46-20.697 29.125-23.98 2.4537-1.9849 4.4347-3.5344 4.4883-3.5742a1.3853 1.3853 0 0 0-0.67969-2.4805zm-19.939 28.191c-1.1273 3.8291 0.56047 6.427 2.8047 9.7676 1.7609 2.6204 3.7609 5.5865 4.5996 9.6465 0.0172 0.0817 0.0158 0.16072 0.0312 0.24219 0.27855-1.5731 0.32262-3.2097-0.0332-4.9004-0.83871-4.06-2.8388-7.0261-4.5996-9.6465-1.2219-1.8189-2.2626-3.4178-2.8027-5.1094zm-22.242 0.12305c-0.0836 0.35782-0.14297 0.71399-0.15234 1.0644-0.26048 9.7808 5.0368 22.295 7.4746 27.525a1.3811 1.3811 0 0 0 1.2773-1.998c-0.0833-0.15906-7.4785-14.559-8.5996-26.592zm59.9 25.637c-6.0462 0-11.778 3.0291-12.02 3.1543-1.2634 0.68125-0.78303 2.597 0.65235 2.6035 0.0433 0 1.5505 0.0357 3.5137 0.32422 2.1788-0.73418 4.9726-1.4238 7.8555-1.4238 5.0489 0 11.46 2.1397 13.309 12.342 2e-3 9e-3 2e-3 0.0167 4e-3 0.0254 0.27123-1.462 0.29628-3.0189-6e-3 -4.6836-1.8485-10.202-8.2597-12.342-13.309-12.342zm-40.871 0.67188c-0.53685 2.6205-1.6448 5.2872-2.2461 6.5a1.3853 1.3853 0 0 0 1.1328 1.9004c0.94622-2.5774 1.8666-6.0001 1.1894-8.2285-0.0173-0.0549-0.0555-0.11599-0.0762-0.17187zm-29.15 1.5898c-4.2853 0-25.788 0.34559-28.033 7.1387-0.45159 1.3512-0.30733 2.686 0.34766 3.916 2.3674-4.0888 12.157-5.547 19.609-6.0781 2.3548-0.80903 5.1643-1.6106 8.3438-2.2363 1.6736-0.2994 1.4324-2.77-0.26758-2.7402zm53.994 5.8477c-0.15953-0.0144-0.32893-6.9e-4 -0.50586 0.0469-5.4532 1.4884-13.412 2.4579-21.672 3.0527-1.5219 1.3745-2.7248 2.2641-2.8809 2.373a1.3853 1.3853 0 0 1-2.0293-1.752c0.036-0.0726 0.0954-0.22594 0.13476-0.30859-5.8076 0.3153-11.562 0.45312-16.506 0.45312-7.3628 0-12.908-0.26521-16.902-0.625-3.9663 1.2158-6.8973 2.5366-7.5352 3.4102 1.8652 0.79698 9.4805 1.873 24.439 1.873 11.817 0 28.223-0.78784 39.004-2.916 3.4362-1.6893 5.0537-3.0398 5.2207-3.1836 0.96317-0.84674 0.3491-2.3229-0.76758-2.4238zm18.236 8.1758c-2.355 6.129-12.389 13.877-16.74 16.754-1.2954 0.83706-0.45209 2.8438 1.0527 2.5059 0.2123-0.0451 1.4415-0.35047 3.0039-0.78516 5.937-4.5614 13.969-11.955 13.158-16.945-0.0879-0.5547-0.26311-1.0546-0.47461-1.5293zm-85.828 8.2168c-2.0242 1.2314-3.0176 2.647-2.8848 4.248 0.0635 0.75683 0.38838 1.4478 0.88281 2.0898 1.3529-1.6992 4.2885-3.1256 8.8242-4.252-0.27697-0.11291-0.48824-0.22374-0.60547-0.33008-0.13353-0.25035-0.0913-0.3671-0.0664-0.42969 0.0583-0.16281 0.21511-0.33272 0.40039-0.5-2.2258-0.20287-4.438-0.46944-6.5508-0.82617zm56.039 0.082c-0.19681-0.035-0.40199-0.0268-0.59961 0.0254-11.445 2.692-21.274 3.7676-31.027 3.7676-7.3945 0-12.919-0.61949-15.881-1.2988 0.44082 0.66566 0.34822 1.6907-0.61523 2.0742-0.62174 0.23785-1.5843 0.83326-1.7637 1.334-0.0249 0.0626-0.0671 0.17934 0.0664 0.42969 0.9889 0.89712 7.7929 2.1191 18.195 2.1191 9.7538 0 19.583-1.0756 31.027-3.7676 0.39525-0.10442 0.81736-0.0293 1.1523 0.20508l4.3848 3.0742c0.7268-0.16856 1.9769-0.4512 2.0059-0.45898 1.1455-0.28023 1.4257-1.7931 0.45898-2.4707l-6.8516-4.8027c-0.16749-0.11717-0.35593-0.19544-0.55273-0.23047zm-48.457 15.562c-2.5052 0.64468-5.3013 1.9995-5.627 4.959-0.11724 1.0552 0.0762 2.0411 0.5293 2.959 1.9304-3.542 8.2484-3.824 9.0566-3.8496 1.406-0.0511 1.9807 1.7858 0.79492 2.543h-6e-3c-0.246 0.18361-0.2793 0.39364-0.25 0.56054 1.765 0.88877 10.99 2.2402 19.281 2.2402 4.0881 0 9.664-0.61992 19.703-2.5996 0.34455-0.0696 0.702-6e-3 1.002 0.17773l6.4375 3.9258c1.1651-0.45039 1.9896-0.81405 2.0977-0.86523 0.99458-0.47321 1.0658-1.8629 0.125-2.4356l-8.662-5.2832c-0.29995-0.18327-0.65741-0.24735-1.002-0.17773-10.039 1.9797-15.615 2.5996-19.703 2.5996-8.2911 0-17.516-1.3515-19.281-2.2402-0.0293-0.1669 4e-3 -0.37694 0.25-0.56055h6e-3c0.36988-0.2362 0.55194-0.57931 0.60742-0.93554-1.8193-0.27337-3.6306-0.59918-5.3594-1.0176zm-9.9355 11.287c-0.1836 0.0251-0.81472 0.0654-1.5449 0.11133-10.878 0.66344-23.451 2.1422-24.102 7.7461-0.13177 1.1228 0.07267 2.1695 0.54883 3.1445 1.8113-3.0749 7.8971-4.6096 14.781-5.457 2.6112-1.0138 6.5955-2.0865 10.74-2.8106 1.7154-0.35951 1.3198-2.9122-0.42383-2.7344zm87.484 0.9414c-0.93666 0.17505-1.5953 1.3587-0.82812 2.252 0.24618 0.31295 0.38316 0.83531-0.32617 1.5488-2.5331 2.3606-28.254 7.6484-55.816 7.6484-16.718 0-30.165-1.6018-37.627-3.2188-3.1792 0.93877-5.6202 1.9358-6.1387 2.6816 2.2991 1.9111 19.825 5.1953 43.768 5.1953 27.563 0 53.283-5.2878 55.816-7.6484 0.70934-0.71352 0.57235-1.2359 0.32617-1.5488-1.0229-1.191 0.4874-2.8992 1.8144-2.043 0.67286 0.42925 1.445 1.1599 1.9883 2.0801 1.7766-2.9722-0.38174-5.7122-1.9902-6.7383-0.33176-0.21407-0.67411-0.26733-0.98633-0.20899zm9.3594 9.1191c-0.41211-0.0604-0.85521 0.0611-1.1934 0.42774-0.0366 0.0394-2.8026 2.8174-9.8906 5.7109-8.3025 4.0233-27.843 8.5881-59.268 8.6152v-4e-3c-11.846 0-20.846-0.40564-27.775-1.0547 0.17109 0.19157 0.38732 0.35527 0.69727 0.43164 4.6632 0.96577 9.3597 1.7623 14.078 2.3984 19.661 0.62191 39.421 0.73589 58.896-1.7695 17.417-3.5551 23.209-9.6115 23.264-9.6699 0.32123-0.3483 0.73674-0.46181 1.1309-0.42187 0.99612-1.7112 1.237-2.9907 1.2539-3.1328 0.0963-0.82439-0.50652-1.4306-1.1934-1.5313z" fill="#282828" opacity=".2" stroke-width="4.1726"/>
  <path d="m91 12c-72 0-85 15-85 87v56c0 70 13 85 85 85h74c72 0 85-15 85-85v-56c0-72-13-87-85-87zm0 4h74c68 0 80 15 80 83v56c0 66-12 81-80 81h-74c-68 0-80-15-80-81v-56c0-68 12-83 80-83z" fill="url(#linearGradient31)" style="isolation:isolate"/>
</svg>
