<svg width="256" height="256" version="1.1" xmlns="http://www.w3.org/2000/svg">
  <defs>
    <linearGradient id="linearGradient31" x1=".5002" x2=".5002" y2="1" gradientTransform="matrix(244,0,0,228,5.986,12)" gradientUnits="userSpaceOnUse">
      <stop stop-color="#ebdbb2" stop-opacity=".2" offset="0"/>
      <stop stop-color="#ebdbb2" stop-opacity=".05" offset=".1"/>
      <stop stop-opacity="0" offset=".7036"/>
      <stop stop-opacity=".1" offset=".8975"/>
      <stop stop-opacity=".2" offset="1"/>
    </linearGradient>
    <linearGradient id="linearGradient6" x1="140" x2="140" y1="12" y2="240" gradientUnits="userSpaceOnUse">
      <stop stop-color="#7c6f64" offset="0"/>
      <stop stop-color="#665c54" offset="1"/>
    </linearGradient>
  </defs>
  <path d="m165 12c72 0 85 15 85 87v56c0 70-13 85-85 85h-74c-72 0-85-15-85-85v-56c0-72 13-87 85-87z" fill="url(#linearGradient6)" style="isolation:isolate"/>
  <path d="m128 44.141c-46.813 0-84.5 37.687-84.5 84.5s37.687 84.5 84.5 84.5v-21.125a63.375 63.375 0 0 1-63.375-63.375 63.375 63.375 0 0 1 63.375-63.375z" fill="#282828" opacity=".3" stroke-width="5.2812"/>
  <path d="m128 38.859c-46.813 0-84.5 37.687-84.5 84.5s37.687 84.5 84.5 84.5v-21.125a63.375 63.375 0 0 1-63.375-63.375 63.375 63.375 0 0 1 63.375-63.375z" fill="#ebdbb2" stroke-width="5.2812"/>
  <path d="m128 38.859v21.125a63.375 63.375 0 0 1 63.375 63.375 63.375 63.375 0 0 1-63.375 63.375v21.125c46.813 0 84.5-37.687 84.5-84.5s-37.687-84.5-84.5-84.5z" fill="#bdae93" opacity=".5" stroke-width="5.2812"/>
  <path d="m170.25 128.64c0 23.334-18.916 42.25-42.25 42.25s-42.25-18.916-42.25-42.25z" fill="#282828" opacity=".3" stroke-width="5.2812"/>
  <path d="m170.25 123.36c0 23.334-18.916 42.25-42.25 42.25s-42.25-18.916-42.25-42.25z" fill="#ebdbb2" stroke-width="5.2812"/>
  <path d="m170.25 123.36c0-23.334-18.916-42.25-42.25-42.25s-42.25 18.916-42.25 42.25z" fill="#ebdbb2" opacity=".5" stroke-width="5.2812"/>
  <path d="m91 12c-72 0-85 15-85 87v56c0 70 13 85 85 85h74c72 0 85-15 85-85v-56c0-72-13-87-85-87zm0 4h74c68 0 80 15 80 83v56c0 66-12 81-80 81h-74c-68 0-80-15-80-81v-56c0-68 12-83 80-83z" fill="url(#linearGradient31)" style="isolation:isolate"/>
</svg>
