<svg width="256" height="256" version="1.1" xmlns="http://www.w3.org/2000/svg">
  <linearGradient id="b" x1=".5002" x2=".5002" y2="1" gradientTransform="matrix(244,0,0,228,5.981,12)" gradientUnits="userSpaceOnUse">
    <stop stop-color="#ebdbb2" offset="0"/>
    <stop stop-color="#ebdbb2" offset="1"/>
  </linearGradient>
  <defs>
    <linearGradient id="linearGradient31" x1=".5002" x2=".5002" y2="1" gradientTransform="matrix(244,0,0,228,5.988,12)" gradientUnits="userSpaceOnUse">
      <stop stop-color="#282828" stop-opacity=".1" offset="0"/>
      <stop stop-color="#bdae93" stop-opacity=".1" offset=".1"/>
      <stop stop-color="#bdae93" stop-opacity="0" offset=".7022"/>
      <stop stop-opacity=".1" offset=".9"/>
      <stop stop-opacity=".2" offset="1"/>
    </linearGradient>
  </defs>
  <path d="m165 12c72 0 85 15 85 87v56c0 70-13 85-85 85h-74c-72 0-85-15-85-85v-56c0-72 13-87 85-87z" fill="url(#b)" style="isolation:isolate"/>
  <path d="m6 126v29c0 70 13 85 85 85h74c72 0 85-15 85-85v-29z" fill="#504945" style="isolation:isolate"/>
  <path d="m91 12c-72 0-85 15-85 87v56c0 70 13 85 85 85h74c72 0 85-15 85-85v-56c0-72-13-87-85-87zm0 4h74c68 0 80 15 80 83v56c0 66-12 81-80 81h-74c-68 0-80-15-80-81v-56c0-68 12-83 80-83z" fill="url(#linearGradient31)" style="isolation:isolate"/>
  <path d="m72.084 51.713c-0.84071 0-1.4648 0.59776-1.4648 1.3965 0 0.77664 0.58972 1.4062 1.4746 1.4062 0.84071 0 1.4648-0.59776 1.4648-1.3965 0-0.81184-0.62151-1.4062-1.4746-1.4062zm22.232 0c-0.84071 0-1.4648 0.59776-1.4648 1.3965 0 0.77664 0.58972 1.4062 1.4746 1.4062 0.84071 0 1.4648-0.59776 1.4648-1.3965 0-0.81184-0.62151-1.4062-1.4746-1.4062zm-50.65 0.09766v14.551h2.5781v-4.25l1.9922-2.2598 4.4238 6.5098h3.0078l-5.7012-8.2559 5.6035-6.2949h-3.1836l-6.1426 7.0176v-7.0176zm13.369 0v14.551h4.9121c4.7164 0 7.1191-3.0559 7.1191-7.2949 0-4.4369-2.6214-7.2559-7.0117-7.2559h-2.4414zm22.539 0c-2.269 0-3.1348 1.177-3.1348 2.7344v1.5039h-1.8555v1.9824h1.8555v8.3301h2.4707v-8.3301h3.6094v8.3301h2.4707v-8.3301h2.0996v-1.9824h-2.0996v-1.0938c0-0.82949 0.31399-1.1621 1.1523-1.1621h0.94727v-1.9824h-1.4355c-2.269 0-3.1348 1.177-3.1348 2.7344v1.5039h-3.6094v-1.0938c0-0.82949 0.31399-1.1621 1.1523-1.1621h0.94727v-1.9824zm102.41 0c-2.269 0-3.1348 1.177-3.1348 2.7344v1.5039h-1.8555v1.9824h1.8555v8.3301h2.4707v-8.3301h2.0996v-1.9824h-2.0996v-1.0938c0-0.82968 0.31418-1.1621 1.1523-1.1621h0.94727v-1.9824zm7.5586 0v14.551h2.5781v-4.25l1.9922-2.2598 4.4238 6.5098h3.0078l-5.7012-8.2559 5.6035-6.2949h-3.1836l-6.1426 7.0176v-7.0176zm13.369 0v14.551h4.9121c4.7178 0 7.1191-3.0573 7.1191-7.2949 0-4.4362-2.6207-7.2559-7.0117-7.2559h-2.4414zm13.945 0v14.551h10.107v-2.2363h-7.5293v-4.0527h6.9629v-2.1973h-6.9629v-3.8281h7.5293v-2.2363zm-157.24 2.207h2.2754c3.834 0 4.5703 2.8554 4.5703 5.0488 0 2.5256-0.919 5.0879-4.6484 5.0879h-2.1973zm145.87 0h2.2754c3.834 0 4.5703 2.8554 4.5703 5.0488 0 2.5256-0.91899 5.0879-4.6484 5.0879h-2.1973zm-34.355 1.7969c-3.0132 0-5.0879 2.1589-5.0879 5.4004 0 3.2202 2.0447 5.3809 5.0879 5.3809 3.1805 0 5.0879-2.3215 5.0879-5.3809 0-3.0846-1.9406-5.4004-5.0879-5.4004zm-69.492 0.01172c-2.5107 0-4.1504 1.2631-4.1504 3.1738 0 1.8661 1.4836 2.6576 3.0078 2.9785l1.7578 0.36133c0.77407 0.16166 1.4062 0.49952 1.4062 1.1719 0 0.63308-0.59097 1.25-1.9141 1.25-1.35 0-1.9659-0.67182-2.0605-1.582h-2.4316c0.16453 2.3241 2.1583 3.4277 4.5313 3.4277 2.5349 0 4.375-1.2456 4.375-3.2812-0.16793-2.5674-2.8048-2.8042-4.8438-3.2227-1.3166-0.29906-1.3672-0.92496-1.3672-1.1816 0-0.59679 0.52174-1.25 1.748-1.25 1.1822 0 1.8813 0.71821 1.8945 1.5918h2.3144c-0.059-2.1476-1.8106-3.4375-4.2676-3.4375zm15.088 0.01758c-2.6328 0-4.3513 1.2968-4.4922 3.4082h2.373c0.0782-0.88018 0.8793-1.4941 2.0703-1.4941 1.7464 0 1.8848 1.2014 1.8848 1.582 0 0.43438-0.2384 0.63504-1.0547 0.76172-1.0192 0.11913-2.0334 0.23601-3.0371 0.44922-2.4661 0.59187-2.5293 2.2428-2.5293 2.8809 0 2.3197 1.828 3.0957 3.5644 3.0957 0.64482 0 2.2046-0.05599 3.0371-1.6211h0.0391v1.4551h2.4219v-7.0312c0-2.0733-1.5102-3.4863-4.2774-3.4863zm15.342 0c-2.6328 0-4.3514 1.2968-4.4922 3.4082h2.373c0.0782-0.88018 0.8793-1.4941 2.0703-1.4941 1.7464 0 1.8848 1.2014 1.8848 1.582 0 0.43438-0.2384 0.63503-1.0547 0.76172-1.0192 0.11913-2.0334 0.23601-3.0371 0.44922-2.4661 0.59187-2.5293 2.2428-2.5293 2.8809 0 2.3197 1.828 3.0957 3.5645 3.0957 0.64484 0 2.2046-0.05599 3.0371-1.6211h0.0391v1.4551h2.4219v-7.0312c0-2.0733-1.5102-3.4863-4.2773-3.4863zm12.031 0c-1.1679 0-2.4184 0.44168-3.125 1.6406h-0.0293v-1.4355h-2.4219v14.395h2.4609v-5.6348h0.0293c0.80752 1.4682 2.146 1.7578 3.0762 1.7578 2.7722 0 4.4629-2.2436 4.4629-5.3711 0-3.1364-1.7376-5.3516-4.4531-5.3516zm11.738 0c-1.1679 0-2.4184 0.44168-3.125 1.6406h-0.0293v-1.4355h-2.4219v14.395h2.4609v-5.6348h0.0293c0.80752 1.4682 2.146 1.7578 3.0762 1.7578 2.7722 0 4.4629-2.2436 4.4629-5.3711 0-3.1364-1.7376-5.3516-4.4531-5.3516zm-84.977 0.20703v10.312h2.4609v-10.312zm22.232 0v10.312h2.4609v-10.312zm78.037 1.8242c1.6364 0 2.5879 1.3806 2.5879 3.3398 0 2.0227-0.98155 3.3203-2.5879 3.3203-1.4119 0-2.5977-1.0268-2.5977-3.3203 0-2.3118 1.2087-3.3398 2.5977-3.3398zm-27.617 0.0098c1.3352 0 2.5488 0.9822 2.5488 3.3105 0 2.2475-1.1222 3.3105-2.5488 3.3105-1.7095 0-2.666-1.3968-2.666-3.3105 6e-5 -1.992 1.0392-3.3105 2.666-3.3105zm11.738 0c1.3352 0 2.5488 0.98221 2.5488 3.3105 0 2.2478-1.1224 3.3105-2.5488 3.3105-1.7095 0-2.666-1.3968-2.666-3.3105 0-1.9919 1.0392-3.3105 2.666-3.3105zm-36.68 3.5449v1.1133c0 0.93934-0.6027 2.1582-2.4609 2.1582-1.2436 0-1.7676-0.59154-1.7676-1.2891 0-1.0177 1.0851-1.362 1.9531-1.4746 0.51176-0.0788 1.0437-0.16606 1.3965-0.23438 0.40908-0.0893 0.72124-0.18134 0.87891-0.27344zm15.342 0v1.1133c0 0.93934-0.60269 2.1582-2.4609 2.1582-1.2436 0-1.7676-0.59154-1.7676-1.2891 0-1.0177 1.0851-1.362 1.9531-1.4746 0.51176-0.0788 1.0437-0.16606 1.3965-0.23438 0.40908-0.0893 0.72123-0.18134 0.8789-0.27344zm-83.277 15.381v5.7031h-0.01953c-0.43719-0.74579-1.3359-1.6699-3.1055-1.6699-2.6507 0-4.4434 2.1558-4.4434 5.3516 0 3.3244 1.8421 5.3711 4.4629 5.3711 0.85974 0 2.2996-0.25155 3.125-1.7773h0.01953v1.5723h2.4219v-14.551zm25.811 0v14.551h2.4609v-3.4434l0.94336-0.97266 3.373 4.416h2.9395l-4.4434-5.8574 4.1895-4.4551h-2.959l-4.0137 4.1797h-0.0293v-8.418zm11.592 1.4258v2.8125h-1.7969v1.9824h1.7969v5.7324c0 1.9767 1.2537 2.5977 3.0859 2.5977h1.4844v-1.9824h-1.0547c-0.76947 0-1.0449-0.2387-1.0449-0.97656v-5.3711h2.0996v-1.9824h-2.0996v-2.8125zm-28.301 2.5781c-2.8641 0-4.9316 2.1962-4.9316 5.4004 0 3.1557 1.934 5.3809 5.0293 5.3809 2.5921 0 4.3529-1.544 4.7168-3.418h-2.3047c-0.24078 0.77432-1.0031 1.4746-2.3535 1.4746-1.4642 0-2.587-0.87443-2.6602-2.8027h7.4453v-0.67383c0-3.1096-1.9346-5.3613-4.9414-5.3613zm38.873 0c-3.0132 0-5.0879 2.1589-5.0879 5.4004 0 3.2201 2.0447 5.3809 5.0879 5.3809 3.1805 0 5.0879-2.3215 5.0879-5.3809 0-3.0846-1.9406-5.4004-5.0879-5.4004zm-28.365 0.0098c-2.5108 0-4.1504 1.2631-4.1504 3.1738 0 1.8661 1.4836 2.6576 3.0078 2.9785l1.7578 0.36133c0.77407 0.16166 1.4062 0.49952 1.4062 1.1719 0 0.63308-0.59096 1.25-1.9141 1.25-1.35 0-1.9659-0.67182-2.0605-1.582h-2.4316c0.16453 2.3241 2.1583 3.4277 4.5312 3.4277 2.5349 0 4.375-1.2456 4.375-3.2812-0.16793-2.5674-2.8048-2.8042-4.8438-3.2227-1.3166-0.29906-1.3672-0.92496-1.3672-1.1816 0-0.59679 0.52174-1.25 1.748-1.25 1.1822 0 1.8813 0.71821 1.8945 1.5918h2.3145c-0.059-2.1476-1.8106-3.4375-4.2676-3.4375zm40.729 0.01953c-1.1688 0-2.4189 0.44234-3.125 1.6406h-0.0293v-1.4355h-2.4219v14.395h2.4609v-5.6348h0.0293c0.80755 1.4683 2.146 1.7578 3.0762 1.7578 2.6237 0 4.4629-2.0874 4.4629-5.3711 0-3.1364-1.7376-5.3516-4.4531-5.3516zm-51.197 1.9238c2.048 0 2.4462 1.6919 2.5234 2.3828h-5.0391c0.0772-0.71197 0.47562-2.3828 2.5156-2.3828zm38.834 0.10742c1.5458 0 2.5879 1.2483 2.5879 3.3398 0 2.023-0.98182 3.3203-2.5879 3.3203-1.4119 0-2.5977-1.0268-2.5977-3.3203 0-2.3122 1.209-3.3398 2.5977-3.3398zm-50.504 0.0098c1.6271 0 2.666 1.319 2.666 3.3105 0 1.7133-0.80628 3.3105-2.666 3.3105-1.3869 0-2.5488-1.0184-2.5488-3.3105 0-2.37 1.2525-3.3105 2.5488-3.3105zm62.281 0c1.3348 0 2.5488 0.9817 2.5488 3.3105 0 2.2482-1.1227 3.3105-2.5488 3.3105-1.7095 0-2.666-1.3968-2.666-3.3105 0-1.8756 0.95913-3.3105 2.666-3.3105zm8.0176 5.625c-0.82167 0-1.5137 0.63384-1.5137 1.5137 0 0.84878 0.66492 1.5137 1.5137 1.5137 0.87976-2e-6 1.5137-0.69193 1.5137-1.5137 0-0.85312-0.66054-1.5137-1.5137-1.5137z" color="#000000" color-rendering="auto" dominant-baseline="auto" fill="#3c3836" image-rendering="auto" shape-rendering="auto" solid-color="#000000" stop-color="#000000" style="-inkscape-stroke:none;font-feature-settings:normal;font-variant-alternates:normal;font-variant-caps:normal;font-variant-east-asian:normal;font-variant-ligatures:normal;font-variant-numeric:normal;font-variant-position:normal;font-variation-settings:'opsz' 32, 'wght' 600;inline-size:0;isolation:auto;mix-blend-mode:normal;shape-margin:0;shape-padding:0;text-decoration-color:#000000;text-decoration-line:none;text-decoration-style:solid;text-indent:0;text-orientation:mixed;text-transform:none;white-space:normal"/>
  <path d="m72.084 144.61c-0.84071 0-1.4648 0.59777-1.4648 1.3965 0 0.77664 0.58972 1.4062 1.4746 1.4062 0.84071 0 1.4648-0.59777 1.4648-1.3965 0-0.81184-0.62151-1.4062-1.4746-1.4062zm22.232 0c-0.84071 0-1.4648 0.59777-1.4648 1.3965 0 0.77664 0.58972 1.4062 1.4746 1.4062 0.84071 0 1.4648-0.59777 1.4648-1.3965 0-0.81184-0.62151-1.4062-1.4746-1.4062zm-50.65 0.0977v14.551h2.5781v-4.25l1.9922-2.2598 4.4238 6.5098h3.0078l-5.7012-8.2559 5.6035-6.2949h-3.1836l-6.1426 7.0176v-7.0176zm13.369 0v14.551h4.9121c4.7164 0 7.1191-3.0559 7.1191-7.2949 0-4.4369-2.6214-7.2559-7.0117-7.2559h-2.4414zm22.539 0c-2.269 0-3.1348 1.177-3.1348 2.7344v1.5039h-1.8555v1.9824h1.8555v8.3301h2.4707v-8.3301h3.6094v8.3301h2.4707v-8.3301h2.0996v-1.9824h-2.0996v-1.0938c0-0.82949 0.31399-1.1621 1.1523-1.1621h0.94726v-1.9824h-1.4355c-2.269 0-3.1348 1.177-3.1348 2.7344v1.5039h-3.6094v-1.0938c0-0.82949 0.31399-1.1621 1.1523-1.1621h0.94726v-1.9824zm113.86 0c-2.269 0-3.1348 1.177-3.1348 2.7344v1.5039h-1.8555v1.9824h1.8555v8.3301h2.4707v-8.3301h2.0996v-1.9824h-2.0996v-1.0938c0-0.82968 0.31418-1.1621 1.1523-1.1621h0.94726v-1.9824zm-133.82 2.207h2.2754c3.834 0 4.5703 2.8554 4.5703 5.0488 0 2.5256-0.919 5.0879-4.6484 5.0879h-2.1973zm122.97 1.7969c-3.0132 0-5.0879 2.1589-5.0879 5.4004 0 3.2202 2.0447 5.3809 5.0879 5.3809 3.1805 0 5.0879-2.3216 5.0879-5.3809 0-3.0846-1.9406-5.4004-5.0879-5.4004zm-80.947 0.01c-2.5107 0-4.1504 1.2631-4.1504 3.1738 0 1.8661 1.4836 2.6576 3.0078 2.9785l1.7578 0.36132c0.77407 0.16166 1.4062 0.49952 1.4062 1.1719 0 0.63308-0.59097 1.25-1.9141 1.25-1.35 0-1.9659-0.67182-2.0605-1.582h-2.4316c0.16453 2.3241 2.1583 3.4277 4.5312 3.4277 2.5349 0 4.375-1.2456 4.375-3.2812-0.16793-2.5674-2.8048-2.8042-4.8438-3.2226-1.3166-0.29906-1.3672-0.92497-1.3672-1.1816 0-0.59679 0.52174-1.25 1.748-1.25 1.1822 0 1.8813 0.71821 1.8945 1.5918h2.3144c-0.059-2.1476-1.8106-3.4375-4.2676-3.4375zm41.885 0.0195c-2.6328 0-4.3514 1.2968-4.4922 3.4082h2.373c0.0782-0.88018 0.8793-1.4942 2.0703-1.4942 1.7464 0 1.8848 1.2014 1.8848 1.582 0 0.43438-0.2384 0.63503-1.0547 0.76172-1.0192 0.11913-2.0334 0.236-3.0371 0.44921-2.4661 0.59187-2.5293 2.2428-2.5293 2.8809 0 2.3197 1.828 3.0957 3.5644 3.0957 0.64484 0 2.2046-0.056 3.0371-1.6211h0.0391v1.4551h2.4219v-7.0312c0-2.0733-1.5102-3.4863-4.2773-3.4863zm12.031 0c-1.1679 0-2.4184 0.44169-3.125 1.6406h-0.0293v-1.4356h-2.4219v14.395h2.4609v-5.6348h0.0293c0.80752 1.4682 2.146 1.7578 3.0762 1.7578 2.7722 0 4.4629-2.2436 4.4629-5.3711 0-3.1364-1.7376-5.3516-4.4531-5.3516zm11.738 0c-1.1679 0-2.4184 0.44169-3.125 1.6406h-0.0293v-1.4356h-2.4219v14.395h2.4609v-5.6348h0.0293c0.80752 1.4682 2.146 1.7578 3.0762 1.7578 2.7722 0 4.4629-2.2436 4.4629-5.3711 0-3.1364-1.7376-5.3516-4.4531-5.3516zm-96.432 0.20508v10.312h2.4609v-10.312zm22.232 0v10.312h2.4609v-10.312zm89.492 1.8262c1.6364 0 2.5879 1.3806 2.5879 3.3398 0 2.0227-0.98155 3.3203-2.5879 3.3203-1.4119 0-2.5977-1.0268-2.5977-3.3203 0-2.3118 1.2087-3.3398 2.5977-3.3398zm-27.617 0.01c1.3352 0 2.5488 0.98219 2.5488 3.3105 0 2.2475-1.1222 3.3106-2.5488 3.3106-1.7095 0-2.666-1.3968-2.666-3.3106 6e-5 -1.992 1.0392-3.3105 2.666-3.3105zm11.738 0c1.3352 0 2.5488 0.9822 2.5488 3.3105 0 2.2478-1.1224 3.3106-2.5488 3.3106-1.7095 0-2.666-1.3968-2.666-3.3106 0-1.9919 1.0392-3.3105 2.666-3.3105zm-21.338 3.5449v1.1133c0 0.93934-0.6027 2.1582-2.4609 2.1582-1.2436 0-1.7676-0.59154-1.7676-1.2891 0-1.0177 1.0851-1.362 1.9531-1.4746 0.51176-0.0788 1.0437-0.16606 1.3965-0.23437 0.40908-0.0893 0.72124-0.18134 0.87891-0.27344zm-101.71 15.38v14.551h2.5781v-4.25l1.9922-2.2598 4.4238 6.5098h3.0078l-5.7012-8.2559 5.6035-6.2949h-3.1836l-6.1426 7.0176v-7.0176zm13.369 0v14.551h4.9121c4.7178 0 7.1191-3.0573 7.1191-7.2949 0-4.4362-2.6207-7.2559-7.0117-7.2559h-2.4414zm13.945 0v14.551h10.107v-2.2363h-7.5293v-4.0527h6.9629v-2.1973h-6.9629v-3.8281h7.5293v-2.2363zm23.467 0v5.7031h-0.01953c-0.43719-0.74579-1.3359-1.6699-3.1055-1.6699-2.6507 0-4.4434 2.1558-4.4434 5.3516 0 3.3244 1.8421 5.3711 4.4629 5.3711 0.85974 0 2.2996-0.25155 3.125-1.7773h0.01953v1.5723h2.4219v-14.551zm25.811 0v14.551h2.4609v-3.4434l0.94336-0.97266 3.373 4.416h2.9395l-4.4434-5.8574 4.1894-4.4551h-2.959l-4.0137 4.1797h-0.0293v-8.418zm11.592 1.4258v2.8125h-1.7969v1.9824h1.7969v5.7324c0 1.9767 1.2537 2.5977 3.0859 2.5977h1.4844v-1.9824h-1.0547c-0.76947 0-1.0449-0.2387-1.0449-0.97656v-5.3711h2.0996v-1.9824h-2.0996v-2.8125zm-72.236 0.78125h2.2754c3.834 0 4.5703 2.8554 4.5703 5.0488 0 2.5256-0.919 5.0879-4.6484 5.0879h-2.1973zm43.936 1.7969c-2.8641 0-4.9316 2.1962-4.9316 5.4004 0 3.1557 1.934 5.3809 5.0293 5.3809 2.5921 0 4.3529-1.544 4.7168-3.418h-2.3047c-0.24078 0.77432-1.0031 1.4746-2.3535 1.4746-1.4642 0-2.587-0.87444-2.6602-2.8027h7.4453v-0.67383c0-3.1096-1.9346-5.3613-4.9414-5.3613zm38.873 0c-3.0132 0-5.0879 2.1589-5.0879 5.4004 0 3.2201 2.0447 5.3809 5.0879 5.3809 3.1806 0 5.0879-2.3216 5.0879-5.3809 0-3.0846-1.9406-5.4004-5.0879-5.4004zm-28.365 0.01c-2.5108 0-4.1504 1.2631-4.1504 3.1738 0 1.8661 1.4836 2.6576 3.0078 2.9785l1.7578 0.36132c0.77407 0.16166 1.4062 0.49952 1.4062 1.1719 0 0.63308-0.59096 1.25-1.9141 1.25-1.35 0-1.966-0.67182-2.0606-1.582h-2.4316c0.16453 2.3241 2.1583 3.4277 4.5312 3.4277 2.5349 0 4.375-1.2456 4.375-3.2812-0.16793-2.5674-2.8048-2.8042-4.8438-3.2226-1.3166-0.29906-1.3672-0.92497-1.3672-1.1816 0-0.59679 0.52174-1.25 1.748-1.25 1.1822 0 1.8813 0.71821 1.8945 1.5918h2.3145c-0.059-2.1476-1.8106-3.4375-4.2676-3.4375zm40.729 0.0195c-1.1688 0-2.4189 0.44235-3.125 1.6406h-0.0293v-1.4356h-2.4219v14.395h2.4609v-5.6348h0.0293c0.80755 1.4683 2.146 1.7578 3.0762 1.7578 2.6237 0 4.4629-2.0874 4.4629-5.3711 0-3.1364-1.7376-5.3516-4.4531-5.3516zm-51.197 1.9238c2.048 0 2.4462 1.6919 2.5234 2.3828h-5.0391c0.0772-0.71197 0.47562-2.3828 2.5156-2.3828zm38.834 0.10742c1.5458 0 2.5879 1.2483 2.5879 3.3398 0 2.023-0.98182 3.3203-2.5879 3.3203-1.4119 0-2.5976-1.0268-2.5976-3.3203 0-2.3122 1.209-3.3398 2.5976-3.3398zm-50.504 0.01c1.6271 0 2.666 1.319 2.666 3.3105 0 1.7133-0.80628 3.3106-2.666 3.3106-1.3869 0-2.5488-1.0184-2.5488-3.3106 0-2.37 1.2525-3.3105 2.5488-3.3105zm62.281 0c1.3348 0 2.5488 0.98169 2.5488 3.3105 0 2.2482-1.1227 3.3106-2.5488 3.3106-1.7095 0-2.666-1.3968-2.666-3.3106 0-1.8756 0.95914-3.3105 2.666-3.3105zm64.248 30.625c-0.82172 0-1.5137 0.6339-1.5137 1.5137 0 0.84877 0.66492 1.5137 1.5137 1.5137 0.87979 0 1.5136-0.69193 1.5137-1.5137-6e-5 -0.85323-0.66061-1.5137-1.5137-1.5137z" color="#000000" color-rendering="auto" dominant-baseline="auto" fill="#ebdbb2" image-rendering="auto" shape-rendering="auto" solid-color="#000000" stop-color="#000000" style="-inkscape-stroke:none;font-feature-settings:normal;font-variant-alternates:normal;font-variant-caps:normal;font-variant-east-asian:normal;font-variant-ligatures:normal;font-variant-numeric:normal;font-variant-position:normal;font-variation-settings:'opsz' 32, 'wght' 600;inline-size:0;isolation:auto;mix-blend-mode:normal;shape-margin:0;shape-padding:0;text-decoration-color:#000000;text-decoration-line:none;text-decoration-style:solid;text-indent:0;text-orientation:mixed;text-transform:none;white-space:normal"/>
  <path d="m116.73 148.74c-2.6328 0-4.3513 1.2968-4.4922 3.4082h2.373c0.0782-0.88018 0.8793-1.4942 2.0703-1.4942 1.7464 0 1.8848 1.2014 1.8848 1.582 0 0.43438-0.2384 0.63504-1.0547 0.76172-1.0192 0.11913-2.0334 0.236-3.0371 0.44921-2.4661 0.59187-2.5293 2.2428-2.5293 2.8809 0 2.3197 1.828 3.0957 3.5644 3.0957 0.64482 0 2.2046-0.056 3.0371-1.6211h0.0391v1.4551h2.4219v-7.0312c0-2.0733-1.5102-3.4863-4.2774-3.4863zm12.041 0c-1.2907 0-2.3846 0.49699-3.1641 1.8066v-1.6016h-2.4219v10.312h2.4609v-5.8301c0-2.2721 1.5527-2.5293 2.2559-2.5293 1.2024 0 2.0801 0.6695 2.0801 2.3047v6.0547h2.4707v-6.4453c0-2.984-1.8425-4.0723-3.6816-4.0723zm-10.195 5.5859v1.1133c0 0.93934-0.6027 2.1582-2.4609 2.1582-1.2436 0-1.7676-0.59154-1.7676-1.2891 0-1.0177 1.0851-1.362 1.9531-1.4746 0.51176-0.0788 1.0437-0.16606 1.3965-0.23437 0.40908-0.0893 0.72124-0.18134 0.87891-0.27344zm50.957 15.381c-2.269 0-3.1348 1.177-3.1348 2.7344v1.5039h-1.8555v1.9824h1.8555v8.3301h2.4707v-8.3301h2.0996v-1.9824h-2.0996v-1.0938c8e-5 -0.82924 0.31368-1.1621 1.1524-1.1621h0.94726v-1.9824zm7.334 4.0039c-3.0132 0-5.0879 2.1589-5.0879 5.4004 0 3.2201 2.0447 5.3809 5.0879 5.3809 3.1805 0 5.0879-2.3216 5.0879-5.3809 0-3.0846-1.9406-5.4004-5.0879-5.4004zm11.689 0.13671c-0.87528 0-2.0035 0.24896-2.5 1.8066h-0.0293v-1.709h-2.373v10.312l2.4609 2e-3v-5.8398c0-2.2993 1.7145-2.4219 2.0801-2.4219 0.38966-0.0121 0.77556 0.0424 1.1621 0.0781v-2.1875c-0.21562-0.0285-0.54405-0.041-0.80079-0.041zm-11.689 1.9238c1.5459 0 2.5879 1.2483 2.5879 3.3398 0 2.023-0.98182 3.3203-2.5879 3.3203-1.4119 0-2.5976-1.0268-2.5976-3.3203 0-2.3122 1.209-3.3398 2.5976-3.3398zm-62.557 18.838c-0.84059 0-1.4648 0.59766-1.4648 1.3965 0 0.77674 0.58983 1.4062 1.4746 1.4062 0.84059 0 1.4648-0.59766 1.4648-1.3965 0-0.81194-0.62162-1.4062-1.4746-1.4062zm73.379 0c-0.84059 0-1.4648 0.59767-1.4648 1.3965 0 0.77672 0.58983 1.4062 1.4746 1.4062 0.84071 0 1.4648-0.59777 1.4648-1.3965 0-0.81192-0.62162-1.4062-1.4746-1.4062zm-35.244 0.0977v14.551h2.4609v-5.8301c0-0.81737 0.24055-2.5293 2.2559-2.5293 1.2015 0 2.0801 0.66857 2.0801 2.3047v6.0547h2.4707v-6.4453c0-2.9832-1.8416-4.0723-3.6816-4.0723-1.927 0-2.7226 1.1165-3.125 1.7754v-5.8086zm31.104 0c-2.269 0-3.1348 1.1769-3.1348 2.7344v1.5039h-1.8555v1.9824h1.8555v8.3301h2.4707v-8.3301h2.0996v-1.9824h-2.0996v-1.0938c0-0.82967 0.31416-1.1621 1.1523-1.1621h0.94727v-1.9824zm7.5684 0v11.914c0 1.8792 0.90062 2.6367 3.0957 2.6367h0.71289v-1.9434h-0.41016c-0.69846 0-0.9375-0.22301-0.9375-0.9375v-11.67zm-44.795 1.4258v2.8125h-1.7969v1.9824h1.7969v5.7324c0 1.9767 1.2537 2.5977 3.0859 2.5977h1.4844v-1.9824h-1.0547c-0.76947 0-1.0449-0.23868-1.0449-0.97656v-5.3711h2.0996v-1.9824h-2.0996v-2.8125zm-98.211 2.5781c-2.9382 0-5.0391 2.1226-5.0391 5.4004 0 3.2592 2.0739 5.3809 5.0391 5.3809 2.5906 0 4.493-1.6397 4.6777-3.9356h-2.4316c-0.30513 1.4577-1.2335 1.8848-2.2168 1.8848-1.5466 0-2.5781-1.1925-2.5781-3.3301 0-2.1695 1.0439-3.3496 2.5781-3.3496 1.1832 0 2.0423 0.6831 2.2363 1.875h2.4121c-0.19686-2.1648-1.9616-3.9258-4.6777-3.9258zm10.938 0c-3.0132 0-5.0879 2.1589-5.0879 5.4004 0 3.2201 2.0447 5.3809 5.0879 5.3809 3.1805 0 5.0879-2.3216 5.0879-5.3809 0-3.0846-1.9406-5.4004-5.0879-5.4004zm109.3 0c-2.8638 0-4.9316 2.1959-4.9316 5.4004 0 3.1557 1.934 5.3809 5.0293 5.3809 2.5926 0 4.353-1.5444 4.7168-3.418h-2.3047c-0.24062 0.7738-1.0026 1.4746-2.3535 1.4746-1.4643 0-2.587-0.87447-2.6602-2.8027h7.4453v-0.67383c0-3.1092-1.9343-5.3613-4.9414-5.3613zm32.117 0c-2.8641 0-4.9316 2.1962-4.9316 5.4004 0 3.1557 1.934 5.3809 5.0293 5.3809 2.5921 0 4.3529-1.544 4.7168-3.418h-2.3047c-0.24078 0.77434-1.0031 1.4746-2.3535 1.4746-1.4643 0-2.587-0.87447-2.6602-2.8027h7.4453v-0.67383c0-3.1096-1.9346-5.3613-4.9414-5.3613zm10.508 0.01c-2.5108 0-4.1504 1.2631-4.1504 3.1738 0 1.8661 1.4836 2.6576 3.0078 2.9785l1.7578 0.36132c0.77407 0.16166 1.4062 0.49952 1.4062 1.1719 0 0.63308-0.59096 1.25-1.9141 1.25-1.35 0-1.966-0.67182-2.0605-1.582h-2.4316c0.16453 2.3241 2.1583 3.4277 4.5312 3.4277 2.5349 0 4.375-1.2456 4.375-3.2812-0.16793-2.5674-2.8048-2.8042-4.8438-3.2226-1.3166-0.29906-1.3672-0.92497-1.3672-1.1816 0-0.59679 0.52173-1.25 1.748-1.25 1.1822 0 1.8813 0.71821 1.8945 1.5918h2.3145c-0.059-2.1476-1.8106-3.4375-4.2676-3.4375zm-139.65 0.0195c-1.82 0-2.6974 1.1403-3.1055 2.0332v-1.8281h-2.3828v10.312h2.4609v-6.1523c0-0.49479 0.0944-0.91146 0.2832-1.25 0.67909-1.2177 2.3036-1.3086 3.125-0.51758 0.35156 0.33854 0.52734 0.78776 0.52734 1.3477v6.5723h2.3926v-6.3281c0-1.3593 0.90403-2.0996 2.0215-2.0996 0.39756 0 1.9141 0.12134 1.9141 1.9726v6.4551h2.4707v-6.8066c0-2.63-1.7068-3.7109-3.457-3.7109-0.61434 0-2.4465 0.15803-3.2734 1.9688-0.36274-1.034-1.4056-1.9688-2.9766-1.9688zm17.461 0c-1.1688 0-2.4189 0.44236-3.125 1.6406h-0.0293v-1.4356h-2.4219v14.395h2.4609v-5.6348h0.0293c0.80763 1.4684 2.1461 1.7578 3.0762 1.7578 2.7722 0 4.4629-2.2436 4.4629-5.3711 0-3.1364-1.7376-5.3516-4.4531-5.3516zm10.66 0c-2.6328 0-4.3514 1.2968-4.4922 3.4082h2.373c0.0782-0.88018 0.8793-1.4942 2.0703-1.4942 1.7464 0 1.8848 1.2014 1.8848 1.582 0 0.43438-0.23839 0.63503-1.0547 0.76172-1.0192 0.11913-2.0334 0.236-3.0371 0.44921-2.4661 0.59187-2.5293 2.2428-2.5293 2.8809 0 2.3197 1.828 3.0957 3.5645 3.0957 0.64482 0 2.2046-0.056 3.0371-1.6211h0.0391v1.4551h2.4219v-7.0312c0-2.0733-1.5102-3.4863-4.2773-3.4863zm23.879 0c-2.0031 0-2.7812 1.2034-3.1641 1.8555v-1.6504h-2.4219v10.312h2.4609v-5.8301c0-0.81748 0.24061-2.5293 2.2559-2.5293 1.2015 0 2.0801 0.66857 2.0801 2.3047v6.0547h2.4707v-6.4453c0-2.9836-1.8421-4.0723-3.6816-4.0723zm9.834 0c-2.6243 0-4.4434 2.1275-4.4434 5.3125 0 3.1619 1.8035 5.2734 4.4629 5.2734 1.1628 0 2.3703-0.39947 3.1152-1.7578h0.01v1.5723c0 1.6682-0.99623 2.4316-2.4316 2.4316-1.1289 0-1.9993-0.46864-2.2363-1.3574h-2.4121c0.40458 2.9781 3.4882 3.2617 4.6484 3.2617 1.7209 0 4.8732-0.53828 4.873-4.4824v-10.049h-2.4316v1.5332h-0.01c-0.83783-1.5032-2.3073-1.7383-3.1445-1.7383zm-22.355 0.10742c-0.87459 0-2.0034 0.2485-2.5 1.8066h-0.0293v-1.709h-2.373v10.312h2.4609v-5.8398c0-2.2994 1.7146-2.4219 2.0801-2.4219 0.38966-0.0121 0.77556 0.0424 1.1621 0.0781v-2.1875c-0.21623-0.0285-0.50511-0.0393-0.80078-0.0393zm2.2871 0.0977v10.312h2.4609v-10.312zm73.379 0v10.312h2.4609v-10.312zm-18.076 1.7188c2.048 0 2.4462 1.6919 2.5234 2.3828h-5.0391c0.0772-0.71198 0.47562-2.3828 2.5156-2.3828zm32.117 0c2.048 0 2.4462 1.6919 2.5234 2.3828h-5.0391c0.0772-0.71194 0.47562-2.3828 2.5156-2.3828zm-66.756 0.0879c1.6713 0 2.666 1.364 2.666 3.2715 0 0.65755-0.11068 1.2337-0.33203 1.7285-0.30112 0.66413-0.9593 1.543-2.334 1.543-1.3875 0-2.5488-1.0254-2.5488-3.2715 0-2.2883 1.1965-3.2715 2.5488-3.2715zm-74.705 0.0195c1.5464 0 2.5879 1.249 2.5879 3.3398 0 2.0227-0.98156 3.3203-2.5879 3.3203-1.4113 0-2.5977-1.0262-2.5977-3.3203 0-2.3122 1.209-3.3398 2.5977-3.3398zm29.15 0.01c1.3352 0 2.5488 0.9822 2.5488 3.3105 0 2.2481-1.1227 3.3106-2.5488 3.3106-1.7094 0-2.666-1.3968-2.666-3.3106 0-1.9919 1.0392-3.3105 2.666-3.3105zm13.092 3.5444v1.1133c0 0.93934-0.6027 2.1582-2.4609 2.1582-1.2436 0-1.7676-0.59154-1.7676-1.2891 0-1.0177 1.0851-1.362 1.9531-1.4746 0.51176-0.0788 1.0437-0.16606 1.3965-0.23437 0.40908-0.0893 0.72124-0.18134 0.87891-0.27344z" color="#000000" color-rendering="auto" dominant-baseline="auto" fill="#fabd2f" image-rendering="auto" shape-rendering="auto" solid-color="#000000" stop-color="#000000" style="-inkscape-stroke:none;font-feature-settings:normal;font-variant-alternates:normal;font-variant-caps:normal;font-variant-east-asian:normal;font-variant-ligatures:normal;font-variant-numeric:normal;font-variant-position:normal;font-variation-settings:'opsz' 32, 'wght' 600;inline-size:0;isolation:auto;mix-blend-mode:normal;shape-margin:0;shape-padding:0;text-decoration-color:#000000;text-decoration-line:none;text-decoration-style:solid;text-indent:0;text-orientation:mixed;text-transform:none;white-space:normal"/>
</svg>
