<svg xmlns="http://www.w3.org/2000/svg" xmlns:xlink="http://www.w3.org/1999/xlink" width="256" height="256" version="1.0" enable-background="new">
    <defs>
        <filter id="b" width="1.046" height="1.05" x="-.02" y="-.03" color-interpolation-filters="sRGB">
            <feGaussianBlur stdDeviation="2.32"/>
        </filter>
        <filter id="c" width="1.023" height="1.025" x="-.01" y="-.01" color-interpolation-filters="sRGB">
            <feGaussianBlur stdDeviation="1.16"/>
        </filter>
        <linearGradient id="e" x1="296" x2="296" y1="-212" y2="236" gradientUnits="userSpaceOnUse" xlink:href="#a"/>
        <linearGradient id="a">
            <stop offset="0" stop-color="#ebdbb2"/>
            <stop offset=".125" stop-color="#ebdbb2" stop-opacity=".098"/>
            <stop offset=".925" stop-opacity=".098"/>
            <stop offset="1" stop-opacity=".498"/>
        </linearGradient>
        <clipPath id="d" clipPathUnits="userSpaceOnUse">
            <path d="M361.938-212C507.235-212 528-191.287 528-46.125v116.25C528 215.286 507.235 236 361.937 236H214.063C68.766 236 48 215.286 48 70.125v-116.25C48-191.287 68.765-212 214.063-212z" fill="#b16286"/>
        </clipPath>
    </defs>
    <path d="M162.537 62.432c72.648 0 83.031 10.357 83.031 82.937v58.125c0 72.581-10.383 82.938-83.031 82.938H88.599c-72.648 0-83.031-10.357-83.031-82.938V145.37c0-72.58 10.383-82.937 83.031-82.937z" opacity=".2" filter="url(#b)" transform="translate(0 -44)"/>
    <path d="M162.537 61.432c72.648 0 83.031 10.357 83.031 82.937v58.125c0 72.581-10.383 82.938-83.031 82.938H88.599c-72.648 0-83.031-10.357-83.031-82.938V144.37c0-72.58 10.383-82.937 83.031-82.937z" opacity=".1" filter="url(#c)" transform="translate(0 -44)"/>
    <path d="M162.537 16.432c72.648 0 83.031 10.357 83.031 82.937v58.125c0 72.581-10.383 82.938-83.031 82.938H88.599c-72.648 0-83.031-10.357-83.031-82.938V99.37c0-72.58 10.383-82.937 83.031-82.937z" fill="#689d6a"/>
    <g>
        <path d="M361.938-212C507.235-212 528-191.287 528-46.125v116.25C528 215.286 507.235 236 361.937 236H214.063C68.766 236 48 215.286 48 70.125v-116.25C48-191.287 68.765-212 214.063-212z" clip-path="url(#d)" transform="matrix(.5 0 0 .5 -18.432 122.432)" opacity=".4" fill="none" stroke="url(#e)" stroke-width="8" stroke-linecap="round" stroke-linejoin="round"/>
    </g>
    <g transform="matrix(.853 0 0 .853 -233.65 118.35)">
        <circle cx="421.123" cy="11.819" r="88.463" opacity=".871" fill="#ebdbb2" fill-rule="evenodd" stroke="#282828" stroke-width="10.647" stroke-linecap="round" stroke-linejoin="round" stroke-opacity=".784"/>
        <circle cx="421.123" cy="11.819" r="81.51" fill="none"/>
        <path d="M421.123-72.302a84.13 84.13 0 0 0-84.13 84.13 84.13 84.13 0 0 0 84.13 84.129 84.13 84.13 0 0 0 84.13-84.13 84.13 84.13 0 0 0-84.13-84.13zm0 12.925c4.36.016 8.712.434 12.997 1.246.206.931.324 1.895.324 2.889 0 7.363-5.965 13.324-13.325 13.32-7.36.004-13.32-5.953-13.32-13.317 0-.997.12-1.964.327-2.9a71.21 71.21 0 0 1 12.997-1.238zM384.548-49.17a37.344 37.344 0 0 0-.715 7.25c0 14.87 8.72 27.677 21.302 33.667v67.585l15.984 15.984 15.988-15.988-.918-14.156 7.539-7.535-7.539-7.535 11.308-11.3-11.308-11.307.918-15.752c12.593-5.992 21.321-18.796 21.321-33.667 0-2.479-.257-4.894-.718-7.238a71.202 71.202 0 0 1 34.61 60.979c0 39.31-31.875 71.186-71.186 71.186-39.31-.001-71.186-31.876-71.186-71.186a71.208 71.208 0 0 1 34.61-60.998zM410.472.714h5.331v53.293h-5.327L410.472.733V.73z" fill="#ebdbb2" fill-rule="evenodd"/>
        <path d="M434.124-58.134c.206.931.324 1.896.324 2.89 0 7.364-5.965 13.325-13.324 13.321-7.36.004-13.32-5.953-13.32-13.317 0-.997.12-1.966.328-2.902a71.192 71.192 0 0 1 12.997-1.236c4.36.016 8.711.432 12.997 1.244zm-50.29 16.211c0 14.87 8.722 27.677 21.303 33.667V59.33l15.984 15.984 15.988-15.988-.916-14.156 7.537-7.537-7.537-7.536 11.306-11.302-11.306-11.306.916-15.753c12.592-5.992 21.321-18.795 21.321-33.667 0-2.48-.256-4.896-.717-7.24a71.202 71.202 0 0 1 34.61 60.978c0 39.31-31.875 71.186-71.186 71.186-39.31 0-71.186-31.876-71.186-71.186a71.203 71.203 0 0 1 34.61-60.998 37.363 37.363 0 0 0-.713 7.252zM410.473.7h5.331v53.294h-5.327L410.472.72V.716z" fill="#427b58"/>
    </g>
</svg>
