<svg width="256" height="256" style="isolation:isolate" version="1.1" xmlns="http://www.w3.org/2000/svg">
  <g filter="url(#a)">
    <linearGradient id="b" x1=".50002" x2=".50002" y1="-.00051239" y2="1" gradientTransform="matrix(244.65,0,0,228.34,5.676,11.947)" gradientUnits="userSpaceOnUse">
      <stop stop-color="#3c3836" offset="0"/>
      <stop stop-color="#282828" offset="1"/>
    </linearGradient>
    <path d="m165.68 11.947c72.707 0 84.639 12.053 84.639 84.544v59.251c0 72.561-11.932 84.543-84.639 84.543h-75.37c-72.294 0-84.639-11.982-84.639-84.543v-59.251c0-72.491 12.329-84.544 84.639-84.544z" fill="url(#b)"/>
  </g>
  <defs>
    <linearGradient id="_lgradient_58" x2="1" gradientTransform="matrix(12.496,40.874,-40.874,12.496,195.8,148.25)" gradientUnits="userSpaceOnUse">
      <stop stop-color="#ebdbb2" offset="0"/>
      <stop stop-color="#ebdbb2" offset="1"/>
    </linearGradient>
    <linearGradient id="_lgradient_59" x2="1" gradientTransform="matrix(-1e-6,30.677,-30.677,-1e-6,202.05,153.35)" gradientUnits="userSpaceOnUse">
      <stop stop-color="#ebdbb2" offset="0"/>
      <stop stop-color="#ebdbb2" offset="1"/>
    </linearGradient>
    <linearGradient id="_lgradient_60" x2="1" gradientTransform="matrix(-1e-6,32.576,-16.084,-1e-6,128,152.4)" gradientUnits="userSpaceOnUse">
      <stop stop-color="#ebdbb2" offset="0"/>
      <stop stop-color="#d5c4a1" offset="1"/>
    </linearGradient>
    <linearGradient id="_lgradient_61" x2="1" gradientTransform="matrix(-1e-6,30.677,-14.997,-1e-6,128,153.35)" gradientUnits="userSpaceOnUse">
      <stop stop-color="#ebdbb2" offset="0"/>
      <stop stop-color="#ebdbb2" offset="1"/>
    </linearGradient>
    <linearGradient id="_lgradient_62" x2="1" gradientTransform="matrix(12.496,40.874,-40.874,12.496,47.704,148.25)" gradientUnits="userSpaceOnUse">
      <stop stop-color="#ebdbb2" offset="0"/>
      <stop stop-color="#ebdbb2" offset="1"/>
    </linearGradient>
    <linearGradient id="_lgradient_63" x2="1" gradientTransform="matrix(-1e-6,30.677,-30.677,-1e-6,53.954,153.35)" gradientUnits="userSpaceOnUse">
      <stop stop-color="#ebdbb2" offset="0"/>
      <stop stop-color="#ebdbb2" offset="1"/>
    </linearGradient>
    <linearGradient id="_lgradient_64" x2="1" gradientTransform="matrix(9.5603,31.27,-31.27,9.5602,170.78,119.66)" gradientUnits="userSpaceOnUse">
      <stop stop-color="#ebdbb2" offset="0"/>
      <stop stop-color="#d5c4a1" offset="1"/>
    </linearGradient>
    <linearGradient id="_lgradient_65" x2="1" gradientTransform="matrix(-1e-6,25.193,-25.193,-1e-6,175.56,122.7)" gradientUnits="userSpaceOnUse">
      <stop stop-color="#ebdbb2" offset="0"/>
      <stop stop-color="#ebdbb2" offset="1"/>
    </linearGradient>
    <linearGradient id="_lgradient_66" x2="1" gradientTransform="matrix(9.5605,31.271,-31.271,9.5605,139.26,119.66)" gradientUnits="userSpaceOnUse">
      <stop stop-color="#ebdbb2" offset="0"/>
      <stop stop-color="#d5c4a1" offset="1"/>
    </linearGradient>
    <linearGradient id="_lgradient_67" x2="1" gradientTransform="matrix(-1e-6,25.195,-25.195,-1e-6,144.04,122.7)" gradientUnits="userSpaceOnUse">
      <stop stop-color="#ebdbb2" offset="0"/>
      <stop stop-color="#ebdbb2" offset="1"/>
    </linearGradient>
    <linearGradient id="_lgradient_68" x2="1" gradientTransform="matrix(9.561,31.273,-31.273,9.561,107.46,119.66)" gradientUnits="userSpaceOnUse">
      <stop stop-color="#ebdbb2" offset="0"/>
      <stop stop-color="#d5c4a1" offset="1"/>
    </linearGradient>
    <linearGradient id="_lgradient_69" x2="1" gradientTransform="matrix(-1e-6,25.195,-25.195,-1e-6,112.24,122.7)" gradientUnits="userSpaceOnUse">
      <stop stop-color="#ebdbb2" offset="0"/>
      <stop stop-color="#ebdbb2" offset="1"/>
    </linearGradient>
    <linearGradient id="_lgradient_70" x2="1" gradientTransform="matrix(9.561,31.273,-31.273,9.561,75.666,119.66)" gradientUnits="userSpaceOnUse">
      <stop stop-color="#ebdbb2" offset="0"/>
      <stop stop-color="#d5c4a1" offset="1"/>
    </linearGradient>
    <linearGradient id="_lgradient_71" x2="1" gradientTransform="matrix(-1e-6,25.195,-25.195,-1e-6,80.445,122.7)" gradientUnits="userSpaceOnUse">
      <stop stop-color="#ebdbb2" offset="0"/>
      <stop stop-color="#ebdbb2" offset="1"/>
    </linearGradient>
    <linearGradient id="_lgradient_72" x2="1" gradientTransform="matrix(9.5598,31.269,-31.269,9.5598,200.55,89.008)" gradientUnits="userSpaceOnUse">
      <stop stop-color="#ebdbb2" offset="0"/>
      <stop stop-color="#ebdbb2" offset="1"/>
    </linearGradient>
    <linearGradient id="_lgradient_73" x2="1" gradientTransform="matrix(-1e-6,25.193,-25.193,-1e-6,205.32,92.044)" gradientUnits="userSpaceOnUse">
      <stop stop-color="#ebdbb2" offset="0"/>
      <stop stop-color="#ebdbb2" offset="1"/>
    </linearGradient>
    <linearGradient id="_lgradient_74" x2="1" gradientTransform="matrix(9.5605,31.271,-31.271,9.5605,168.23,89.009)" gradientUnits="userSpaceOnUse">
      <stop stop-color="#ebdbb2" offset="0"/>
      <stop stop-color="#d5c4a1" offset="1"/>
    </linearGradient>
    <linearGradient id="_lgradient_75" x2="1" gradientTransform="matrix(-1e-6,25.195,-25.195,-1e-6,173.01,92.046)" gradientUnits="userSpaceOnUse">
      <stop stop-color="#ebdbb2" offset="0"/>
      <stop stop-color="#ebdbb2" offset="1"/>
    </linearGradient>
    <linearGradient id="_lgradient_76" x2="1" gradientTransform="matrix(9.5605,31.271,-31.271,9.5605,135.85,89.009)" gradientUnits="userSpaceOnUse">
      <stop stop-color="#ebdbb2" offset="0"/>
      <stop stop-color="#d5c4a1" offset="1"/>
    </linearGradient>
    <linearGradient id="_lgradient_77" x2="1" gradientTransform="matrix(-1e-6,25.195,-25.195,-1e-6,140.63,92.046)" gradientUnits="userSpaceOnUse">
      <stop stop-color="#ebdbb2" offset="0"/>
      <stop stop-color="#ebdbb2" offset="1"/>
    </linearGradient>
    <linearGradient id="_lgradient_78" x2="1" gradientTransform="matrix(9.5605,31.271,-31.271,9.5605,103.46,89.009)" gradientUnits="userSpaceOnUse">
      <stop stop-color="#ebdbb2" offset="0"/>
      <stop stop-color="#d5c4a1" offset="1"/>
    </linearGradient>
    <linearGradient id="_lgradient_79" x2="1" gradientTransform="matrix(-1e-6,25.195,-25.195,-1e-6,108.24,92.046)" gradientUnits="userSpaceOnUse">
      <stop stop-color="#ebdbb2" offset="0"/>
      <stop stop-color="#ebdbb2" offset="1"/>
    </linearGradient>
    <linearGradient id="_lgradient_80" x2="1" gradientTransform="matrix(11.713,38.313,-38.313,11.713,57.411,85.487)" gradientUnits="userSpaceOnUse">
      <stop stop-color="#ebdbb2" offset="0"/>
      <stop stop-color="#d5c4a1" offset="1"/>
    </linearGradient>
    <linearGradient id="_lgradient_81" x2="1" gradientTransform="matrix(-1e-6,25.195,-25.195,-1e-6,63.269,92.046)" gradientUnits="userSpaceOnUse">
      <stop stop-color="#ebdbb2" offset="0"/>
      <stop stop-color="#ebdbb2" offset="1"/>
    </linearGradient>
    <linearGradient id="_lgradient_82" x2="0" y2="1" gradientTransform="matrix(2.2623,0,0,2.261,40.781,95.533)" gradientUnits="userSpaceOnUse">
      <stop stop-color="#8ec07c" offset="0"/>
      <stop stop-color="#8ec07c" offset="1"/>
    </linearGradient>
    <linearGradient id="_lgradient_83" x2="1" gradientTransform="matrix(7.1739,23.465,-23.465,7.1739,209.92,66.549)" gradientUnits="userSpaceOnUse">
      <stop stop-color="#ebdbb2" offset="0"/>
      <stop stop-color="#d5c4a1" offset="1"/>
    </linearGradient>
    <linearGradient id="_lgradient_84" x2="1" gradientTransform="matrix(-1e-6,16.611,-16.611,-1e-6,213.5,69.973)" gradientUnits="userSpaceOnUse">
      <stop stop-color="#ebdbb2" offset="0"/>
      <stop stop-color="#ebdbb2" offset="1"/>
    </linearGradient>
    <linearGradient id="_lgradient_85" x2="1" gradientTransform="matrix(7.1734,23.463,-23.463,7.1734,175.72,66.547)" gradientUnits="userSpaceOnUse">
      <stop stop-color="#ebdbb2" offset="0"/>
      <stop stop-color="#d5c4a1" offset="1"/>
    </linearGradient>
    <linearGradient id="_lgradient_86" x2="1" gradientTransform="matrix(-1e-6,16.611,-16.611,-1e-6,179.3,69.973)" gradientUnits="userSpaceOnUse">
      <stop stop-color="#ebdbb2" offset="0"/>
      <stop stop-color="#ebdbb2" offset="1"/>
    </linearGradient>
    <linearGradient id="_lgradient_87" x2="1" gradientTransform="matrix(7.1734,23.463,-23.463,7.1734,141.52,66.549)" gradientUnits="userSpaceOnUse">
      <stop stop-color="#ebdbb2" offset="0"/>
      <stop stop-color="#d5c4a1" offset="1"/>
    </linearGradient>
    <linearGradient id="_lgradient_88" x2="1" gradientTransform="matrix(-1e-6,16.611,-16.611,-1e-6,145.1,69.973)" gradientUnits="userSpaceOnUse">
      <stop stop-color="#ebdbb2" offset="0"/>
      <stop stop-color="#ebdbb2" offset="1"/>
    </linearGradient>
    <linearGradient id="_lgradient_89" x2="1" gradientTransform="matrix(7.1739,23.465,-23.465,7.1739,107.31,66.546)" gradientUnits="userSpaceOnUse">
      <stop stop-color="#ebdbb2" offset="0"/>
      <stop stop-color="#d5c4a1" offset="1"/>
    </linearGradient>
    <linearGradient id="_lgradient_90" x2="1" gradientTransform="matrix(-1e-6,16.611,-16.611,-1e-6,110.9,69.973)" gradientUnits="userSpaceOnUse">
      <stop stop-color="#ebdbb2" offset="0"/>
      <stop stop-color="#ebdbb2" offset="1"/>
    </linearGradient>
    <linearGradient id="_lgradient_91" x2="1" gradientTransform="matrix(7.1739,23.465,-23.465,7.1739,73.112,66.547)" gradientUnits="userSpaceOnUse">
      <stop stop-color="#ebdbb2" offset="0"/>
      <stop stop-color="#d5c4a1" offset="1"/>
    </linearGradient>
    <linearGradient id="_lgradient_92" x2="1" gradientTransform="matrix(-1e-6,16.611,-16.611,-1e-6,76.697,69.973)" gradientUnits="userSpaceOnUse">
      <stop stop-color="#ebdbb2" offset="0"/>
      <stop stop-color="#ebdbb2" offset="1"/>
    </linearGradient>
    <linearGradient id="_lgradient_93" x2="1" gradientTransform="matrix(7.1734,23.463,-23.463,7.1734,38.91,66.547)" gradientUnits="userSpaceOnUse">
      <stop stop-color="#ebdbb2" offset="0"/>
      <stop stop-color="#d5c4a1" offset="1"/>
    </linearGradient>
    <linearGradient id="_lgradient_94" x2="1" gradientTransform="matrix(-1e-6,16.611,-16.611,-1e-6,42.494,69.973)" gradientUnits="userSpaceOnUse">
      <stop stop-color="#ebdbb2" offset="0"/>
      <stop stop-color="#ebdbb2" offset="1"/>
    </linearGradient>
  </defs>
  <g opacity=".4">
    <linearGradient id="c" x1=".517" x2=".517" y2="1" gradientTransform="matrix(244.65,0,0,228.34,5.68,11.95)" gradientUnits="userSpaceOnUse">
      <stop stop-color="#928374" offset="0"/>
      <stop stop-color="#928374" stop-opacity=".098039" offset=".125"/>
      <stop stop-opacity=".098039" offset=".925"/>
      <stop stop-opacity=".49804" offset="1"/>
    </linearGradient>
    <path d="m165.07 11.951c4.328-0.01 8.656 0.04 12.984 0.138 3.875 0.078 7.7436 0.25854 11.62 0.48454 3.453 0.196 6.8876 0.5327 10.33 0.9057 3.06 0.335 6.0892 0.83409 9.1192 1.3941 2.7131 0.50032 5.3525 1.181 7.9999 1.9571 2.3983 0.69679 4.7544 1.61 7.0323 2.6338 2.1121 0.94124 4.0427 2.0439 5.9631 3.3319 1.8405 1.2399 3.5996 2.7014 5.1741 4.2652 1.5652 1.5692 2.886 3.1628 4.1277 4.9987 1.2864 1.9174 2.4086 3.8707 3.3603 5.9744 1.0207 2.2746 1.9193 4.5772 2.628 6.9675 0.77696 2.6443 1.4779 5.3272 1.9787 8.0374 0.56201 3.0246 1.0626 6.0601 1.3989 9.1181 0.374 3.439 0.70873 6.8493 0.90573 10.297 0.226 3.861 0.42171 7.7394 0.51071 11.6 0.088 4.323 0.138 8.646 0.128 12.96v58.21c0.01 4.324-0.04 8.637-0.128 12.96-0.085 3.8668-0.28821 7.7331-0.51114 11.595-0.19655 3.4488-0.53822 6.9467-0.91224 10.38-0.33634 3.0613-0.82936 6.0316-1.3914 9.0596-0.50199 2.7066-1.1867 5.3458-1.9626 7.987-0.7071 2.3908-1.5665 4.6263-2.5888 6.9002-0.94995 2.1048-2.1624 4.2292-3.4512 6.1454-1.2392 1.8377-2.5377 3.3902-4.1052 4.9572-1.5746 1.5638-3.412 3.0712-5.2525 4.3111-1.9201 1.2879-3.8611 2.3701-5.9729 3.3114-2.3498 1.0736-4.5744 1.8717-6.9323 2.584-2.6776 0.81656-5.2934 1.4166-7.976 1.948-3.0309 0.56603-6.051 1.0612-9.1165 1.3921-3.5041 0.40869-6.8203 0.68433-10.336 0.90377-3.875 0.226-7.789 0.40013-11.665 0.48813-4.328 0.088-8.6314 0.15082-12.959 0.14082h-74.126c-4.328 0.01-8.6566-0.0545-12.985-0.14247-3.9049-0.0955-7.7449-0.24667-11.628-0.49085-3.4941-0.21923-7.0445-0.5149-10.452-0.92805-3.1873-0.37665-5.9337-0.7937-8.9951-1.3902-2.833-0.56139-5.3421-1.1637-7.9464-1.9566-2.4295-0.73175-4.8105-1.6266-7.0523-2.6548-2.139-0.97893-4.0617-2.0635-5.9983-3.3731-1.8405-1.2399-3.5141-2.6495-5.0886-4.2133-1.5676-1.5671-2.9061-3.1787-4.1454-5.0164-1.2884-1.9162-2.4021-3.8332-3.3518-5.9379-1.0223-2.2739-1.9238-4.5236-2.6309-6.9144-0.77585-2.6412-1.4977-5.3053-1.9996-8.0119-0.56202-3.028-1.0938-6.1087-1.4301-9.17-0.37402-3.4341-0.72617-6.8459-0.92272-10.295-0.22292-3.8613-0.42179-7.7427-0.50684-11.61-0.09185-4.3194-0.13452-8.6396-0.128-12.96v-58.21c-0.01-4.314 0.04-8.637 0.128-12.96 0.089-3.86 0.28015-7.7353 0.50615-11.596 0.197-3.448 0.54883-6.857 0.92283-10.296 0.335-3.055 0.87336-6.1638 1.4344-9.1898 0.50085-2.7102 1.1807-5.2262 1.9577-7.8705 0.70872-2.3902 1.7549-4.9868 2.7756-7.2614 0.95209-2.1037 1.9632-3.7998 3.2499-5.7172 1.2418-1.8358 2.594-3.4604 4.1593-5.0296 1.5745-1.5638 3.3273-3.0214 5.1678-4.2614 1.9201-1.2879 3.8238-2.3848 5.9356-3.3261 2.278-1.0238 4.5428-1.9236 6.9411-2.6204 2.6474-0.77617 5.2743-1.4761 7.9874-1.9764 3.0317-0.56124 6.1381-1.085 9.203-1.4208 3.443-0.373 6.8398-0.71288 10.293-0.90888 3.875-0.226 7.7331-0.41514 11.609-0.49314 4.328-0.098 8.6625-0.14613 12.991-0.13613zm0.01 4.009c4.298-0.01 8.597 0.039 12.895 0.127 3.827 0.089 7.6466 0.26854 11.474 0.48454 3.383 0.197 6.7724 0.43946 10.136 0.81246 2.971 0.315 5.9391 0.74869 8.8701 1.2987 2.5807 0.47339 5.1059 1.0723 7.6238 1.8101 2.2193 0.6492 4.4135 1.4563 6.5231 2.4032 1.9054 0.85272 3.7179 1.8543 5.4527 3.0153 1.6245 1.0927 3.1568 2.3505 4.5413 3.7347 1.3858 1.385 2.6374 2.8981 3.738 4.519 1.1601 1.7266 2.1737 3.5473 3.03 5.443 0.94487 2.1083 1.7467 4.2779 2.4 6.494 0.74152 2.5113 1.352 5.0594 1.829 7.634 0.54 2.928 0.974 5.875 1.298 8.842 0.374 3.36 0.65 6.73 0.846 10.11 0.217 3.822 0.374 7.634 0.453 11.456 0.088 4.293 0.137 8.577 0.137 12.87v58.212c0 4.293-0.049 8.577-0.137 12.87-0.082 3.8211-0.0546 7.643-0.27458 11.459-0.196 3.38-0.65042 6.7474-1.0244 10.117-0.3245 2.9589-0.75746 5.9049-1.298 8.832-0.47731 2.5747-1.0881 5.1228-1.83 7.634-0.65169 2.2166-1.4536 4.3863-2.4 6.494-0.8542 1.8968-1.8678 3.7176-3.03 5.443-1.0976 1.6263-2.349 3.1432-3.737 4.53-1.3876 1.3779-2.9027 2.6211-4.525 3.713-1.7345 1.161-3.564 2.1732-5.469 3.026-2.1078 0.95119-4.2802 1.7522-6.501 2.397-2.5179 0.7378-5.0723 1.3446-7.653 1.818-2.931 0.55-5.8828 0.98162-8.8538 1.3056-3.364 0.364-6.7562 0.64938-10.139 0.83638-3.827 0.216-7.6776 0.36018-11.505 0.43918-4.298 0.098-8.5724 0.14982-12.87 0.14982h-74.146c-4.298 0-8.5976-0.0545-12.896-0.15147-3.8291-0.082-7.6582-0.26152-11.482-0.48085-3.3834-0.19001-6.7587-0.42545-10.127-0.79268-2.97-0.32174-5.9265-0.7574-8.863-1.306-2.5807-0.47339-5.1351-1.0802-7.653-1.818-2.2208-0.64482-4.3673-1.4321-6.4751-2.3833-1.9053-0.85272-3.7547-1.8723-5.4895-3.0333-1.622-1.0922-3.1431-2.3423-4.5303-3.7205-1.3882-1.3864-2.64-2.903-3.738-4.529-1.1622-1.7254-2.1758-3.5462-3.03-5.443-0.94645-2.1077-1.7483-4.2774-2.4-6.494-0.74152-2.5113-1.352-5.0594-1.829-7.634-0.54054-2.9271-0.9735-5.8731-1.298-8.832-0.374-3.37-0.65-6.74-0.846-10.12-0.21993-3.8156-0.37096-7.6349-0.453-11.456-0.08992-4.2894-0.13559-8.5796-0.137-12.87v-58.212c0-4.293 0.049-8.577 0.137-12.87 0.079-3.822 0.236-7.634 0.453-11.456 0.197-3.38 0.472-6.75 0.846-10.11 0.324-2.967 0.757-5.914 1.298-8.842 0.47732-2.5747 1.0915-5.1375 1.8334-7.6487 0.65331-2.2161 1.4517-4.371 2.3966-6.4793 0.85634-1.8957 1.8699-3.7164 3.03-5.443 1.1003-1.6212 2.3515-3.1346 3.737-4.52 1.3849-1.3839 2.9002-2.6307 4.525-3.723 1.7345-1.161 3.564-2.1732 5.469-3.026 2.1096-0.94691 4.2817-1.7478 6.501-2.397 2.5179-0.7378 5.0723-1.3446 7.653-1.818 2.931-0.55 5.892-0.982 8.863-1.297 3.364-0.373 6.7432-0.64645 10.126-0.84345 3.8239-0.21443 7.6549-0.36667 11.484-0.45355 4.298-0.088 8.597-0.137 12.895-0.127z" fill="url(#c)" fill-rule="evenodd"/>
  </g>
  <g transform="translate(0 .998)" style="isolation:isolate">
    <path d="m224.68 181.67c0 1.832-1.4812 3.31-3.3067 3.31h-38.64c-1.8287 0-3.31-1.478-3.31-3.31v-25.958c0-1.8255 1.4813-3.3083 3.31-3.3083h38.64c1.8255 0 3.3067 1.4829 3.3067 3.3083z" fill="url(#_lgradient_58)"/>
    <path d="m224.68 181.67c0 1.832-1.4812 3.31-3.3067 3.31h-38.64c-1.8287 0-3.31-1.478-3.31-3.31v-25.958c0-1.8255 1.4813-3.3083 3.31-3.3083h38.64c1.8255 0 3.3067 1.4829 3.3067 3.3083z" fill="none" stroke="#7c6f64" stroke-linejoin="bevel" stroke-width=".25" vector-effect="non-scaling-stroke"/>
    <path d="m223.76 181.55c0 1.3654-1.1142 2.4796-2.4845 2.4796h-38.454c-1.3671 0-2.4796-1.1142-2.4796-2.4796v-25.715c0-1.372 1.1126-2.4829 2.4796-2.4829h38.454c1.3703 0 2.4845 1.1109 2.4845 2.4829z" fill="url(#_lgradient_59)"/>
    <path d="m223.76 181.55c0 1.3654-1.1142 2.4796-2.4845 2.4796h-38.454c-1.3671 0-2.4796-1.1142-2.4796-2.4796v-25.715c0-1.372 1.1126-2.4829 2.4796-2.4829h38.454c1.3703 0 2.4845 1.1109 2.4845 2.4829z" fill="none" stroke="#ebdbb2" stroke-linejoin="bevel" stroke-width=".25" vector-effect="non-scaling-stroke"/>
    <g fill="#504945">
      <path d="m195.71 176.38c0.58564 0 0.92985 0.20229 0.92985 0.4372 0 0.11583-0.0946 0.24144-0.23165 0.24144-0.22348 0-0.30831-0.18434-0.6982-0.18434-0.71126 0-0.99185 0.69168-0.99185 1.279s0.28059 1.279 0.99185 1.279c0.40293 0 0.50736-0.19577 0.69006-0.19577 0.13049 0 0.22187 0.0848 0.22187 0.23981 0 0.21534-0.31977 0.45025-0.91193 0.45025-1.0571 0-1.5661-0.85319-1.5661-1.7733s0.50899-1.7733 1.5661-1.7733z"/>
      <path d="m198.57 179.43c0.70639 0 0.9527-0.69169 0.9527-1.279s-0.24631-1.279-0.9527-1.279c-0.70472 0-0.95105 0.69168-0.95105 1.279s0.24633 1.279 0.95105 1.279zm0-3.0522c0.98045 0 1.5269 0.85319 1.5269 1.7733s-0.54648 1.7733-1.5269 1.7733c-0.97878 0-1.5253-0.85319-1.5253-1.7733s0.54651-1.7733 1.5253-1.7733z"/>
      <path d="m202.76 177.68c0-0.49592-0.27406-0.80261-0.74226-0.80261-0.46329 0-0.73735 0.30669-0.73735 0.80261v1.9429c0 0.19086-0.1093 0.30669-0.28711 0.30669-0.17619 0-0.28549-0.11583-0.28549-0.30669v-2.9331c0-0.19086 0.1093-0.30669 0.28549-0.30669 0.17781 0 0.28711 0.11583 0.28711 0.30669v0.10278l0.0147 0.013c0.13703-0.17618 0.35073-0.42252 0.87277-0.42252 0.33931 0 0.69168 0.14193 0.9527 0.58565 0.25447-0.36378 0.56119-0.58565 1.0636-0.58565 0.53344 0 1.2056 0.33932 1.2056 1.3165v1.9233c0 0.19086-0.11256 0.30669-0.28711 0.30669-0.17459 0-0.28715-0.11583-0.28715-0.30669v-1.9429c0-0.49592-0.27406-0.80261-0.74224-0.80261-0.46493 0-0.73899 0.30669-0.73899 0.80261v1.9429c0 0.19086-0.1093 0.30669-0.28711 0.30669-0.17457 0-0.28713-0.11583-0.28713-0.30669z"/>
      <path d="m208.2 177.68c0-0.49592-0.27406-0.80261-0.74228-0.80261-0.46329 0-0.73736 0.30669-0.73736 0.80261v1.9429c0 0.19086-0.10927 0.30669-0.2871 0.30669-0.17619 0-0.28547-0.11583-0.28547-0.30669v-2.9331c0-0.19086 0.10928-0.30669 0.28547-0.30669 0.17783 0 0.2871 0.11583 0.2871 0.30669v0.10278l0.0147 0.013c0.13706-0.17618 0.35073-0.42252 0.87277-0.42252 0.33933 0 0.6917 0.14193 0.95267 0.58565 0.2545-0.36378 0.56122-0.58565 1.062-0.58565 0.53508 0 1.2072 0.33932 1.2072 1.3165v1.9233c0 0.19086-0.11257 0.30669-0.28711 0.30669-0.17459 0-0.28716-0.11583-0.28716-0.30669v-1.9429c0-0.49592-0.27406-0.80261-0.74223-0.80261-0.46493 0-0.739 0.30669-0.739 0.80261v1.9429c0 0.19086-0.10927 0.30669-0.2871 0.30669-0.17455 0-0.28711-0.11583-0.28711-0.30669z"/>
      <path d="m212.96 179.43c0.70639 0 0.95272-0.69169 0.95272-1.279s-0.24633-1.279-0.95272-1.279c-0.7031 0-0.95103 0.69168-0.95103 1.279s0.24793 1.279 0.95103 1.279zm1.4943 0.2137c0 0.20228-0.15497 0.28059-0.26754 0.28059-0.11744 0-0.26754-0.0783-0.26754-0.28059v-0.23981h-0.013c-0.24798 0.35074-0.57262 0.5204-0.9462 0.5204-0.97717 0-1.5236-0.85319-1.5236-1.7733s0.54648-1.7733 1.5236-1.7733c0.39807 0 0.67866 0.16966 0.9462 0.46167h0.013v-0.18271c0-0.20228 0.1501-0.27896 0.26754-0.27896 0.11257 0 0.26754 0.0767 0.26754 0.27896z"/>
      <path d="m215.21 176.69c0-0.19086 0.11256-0.30669 0.2871-0.30669 0.17619 0 0.28711 0.11583 0.28711 0.30669v0.13703l0.0147 0.0114c0.25285-0.32463 0.61174-0.45514 0.95595-0.45514 0.53673 0 1.2088 0.33932 1.2088 1.3165v1.9233c0 0.19086-0.11256 0.30669-0.2871 0.30669-0.17619 0-0.28711-0.11583-0.28711-0.30669v-1.8907c0-0.60685-0.42416-0.85481-0.80262-0.85481s-0.80262 0.24796-0.80262 0.85481v1.8907c0 0.19086-0.11092 0.30669-0.28711 0.30669-0.17454 0-0.2871-0.11583-0.2871-0.30669z"/>
      <path d="m220.1 176.87c-0.70311 0-0.95272 0.69168-0.95272 1.279s0.24961 1.279 0.95272 1.279c0.70474 0 0.95267-0.69169 0.95267-1.279s-0.24793-1.279-0.95267-1.279zm0.89233 2.5759h-0.013c-0.1615 0.31322-0.46822 0.47635-0.92499 0.47635-0.93799 0-1.4796-0.85319-1.4796-1.7733s0.5416-1.7733 1.4796-1.7733c0.45677 0 0.77653 0.25286 0.92499 0.46983h0.013v-1.6901c0-0.18923 0.11092-0.30669 0.28711-0.30669 0.17618 0 0.28875 0.11746 0.28875 0.30669v4.4601c0 0.19086-0.11257 0.30669-0.28875 0.30669-0.17619 0-0.28711-0.11583-0.28711-0.30669z"/>
      <path d="m188.52 178.51c0-0.0897-0.0196-0.17456-0.0538-0.25612-0.0359-0.0816-0.0832-0.15171-0.14191-0.21208-0.0587-0.0604-0.12889-0.10603-0.20882-0.14192-0.0799-0.0359-0.16638-0.0538-0.25447-0.0538h-0.67376v0.66396c0 0.093 0.0163 0.18108 0.0522 0.2659 0.0343 0.0832 0.0832 0.15661 0.14358 0.22024 0.0587 0.062 0.13048 0.11092 0.2137 0.14681 0.0832 0.0359 0.17128 0.0538 0.26428 0.0538 0.0881 0 0.17454-0.0196 0.25447-0.0571 0.0799-0.0375 0.1501-0.0865 0.20882-0.15008 0.0587-0.062 0.10604-0.1354 0.14191-0.21697 0.0343-0.0832 0.0538-0.16966 0.0538-0.26264zm0-3.9364c0-0.093-0.0196-0.17944-0.0538-0.26264-0.0359-0.0816-0.0832-0.15335-0.14191-0.21697-0.0587-0.062-0.12889-0.11256-0.20882-0.15008-0.0799-0.0375-0.16638-0.0555-0.25447-0.0555-0.093 0-0.18109 0.0163-0.26428 0.0522-0.0832 0.0359-0.15498 0.0848-0.2137 0.14845-0.0604 0.062-0.1093 0.1354-0.14358 0.21697-0.0359 0.0816-0.0522 0.17129-0.0522 0.26753v0.65743h0.67376c0.0881 0 0.17454-0.0163 0.25447-0.0522 0.0799-0.0359 0.1501-0.0832 0.20882-0.14193 0.0587-0.0604 0.10604-0.12887 0.14191-0.20881 0.0343-0.0816 0.0538-0.16476 0.0538-0.25449zm-1.9853 1.31h-1.3116v1.3165h1.3116zm-1.9527 1.9625h-0.68516c-0.093 0-0.17945 0.0179-0.26102 0.0538-0.0832 0.0359-0.15498 0.0816-0.21532 0.14192-0.062 0.0604-0.1093 0.13051-0.14519 0.21208-0.0343 0.0816-0.0538 0.16639-0.0538 0.25612 0 0.093 0.0196 0.18108 0.0538 0.2659 0.0359 0.0832 0.0832 0.15661 0.14193 0.22024 0.0587 0.062 0.13049 0.11092 0.21532 0.14681 0.0832 0.0359 0.17131 0.0538 0.26428 0.0538 0.0963 0 0.18435-0.0179 0.26754-0.0538 0.0832-0.0359 0.15498-0.0848 0.21696-0.14681 0.0636-0.0636 0.11256-0.13704 0.14846-0.22024 0.0359-0.0848 0.0522-0.17292 0.0522-0.2659zm0-3.2724c0-0.0962-0.0163-0.18597-0.0522-0.26753-0.0359-0.0816-0.0848-0.15498-0.14846-0.21697-0.062-0.0636-0.13377-0.11257-0.21696-0.14845-0.0832-0.0359-0.17128-0.0522-0.26754-0.0522-0.093 0-0.18107 0.0163-0.26428 0.0522-0.0848 0.0359-0.1566 0.0848-0.21532 0.14845-0.0587 0.062-0.10604 0.1354-0.14193 0.21697-0.0343 0.0816-0.0538 0.17129-0.0538 0.26753 0 0.0897 0.0196 0.17292 0.0538 0.25449 0.0359 0.0799 0.0832 0.14845 0.14519 0.20881 0.0603 0.0587 0.13213 0.10604 0.21532 0.14193 0.0816 0.0359 0.16805 0.0522 0.26102 0.0522h0.68516zm4.5889 3.9364c0 0.18271-0.0326 0.354-0.10277 0.5155-0.0685 0.16313-0.16151 0.30342-0.27895 0.42088-0.11582 0.11909-0.25449 0.2137-0.41599 0.28548-0.15989 0.0702-0.32953 0.10604-0.51223 0.10604-0.18271 0-0.35402-0.0359-0.51552-0.10604-0.1615-0.0718-0.30179-0.16639-0.42252-0.28548-0.11744-0.11746-0.21206-0.25775-0.2822-0.42088-0.0701-0.1615-0.10604-0.33279-0.10604-0.5155v-0.66396h-1.3116v0.66396c0 0.18271-0.0342 0.354-0.10604 0.5155-0.0702 0.16313-0.16641 0.30342-0.28385 0.42088-0.11746 0.11909-0.25937 0.2137-0.4209 0.28548-0.1615 0.0702-0.3344 0.10604-0.51549 0.10604-0.18107 0-0.35399-0.0359-0.51549-0.10604-0.1615-0.0718-0.30344-0.16639-0.4209-0.28548-0.11909-0.11746-0.2137-0.25775-0.28385-0.42088-0.0718-0.1615-0.10766-0.33279-0.10766-0.5155 0-0.18272 0.0359-0.35237 0.10766-0.51224 0.0701-0.15987 0.16476-0.29854 0.28385-0.41599 0.11746-0.11746 0.2594-0.21044 0.4209-0.27896 0.1615-0.0685 0.33442-0.10277 0.51549-0.10277h0.68516v-1.3165h-0.68516c-0.18107 0-0.35399-0.0343-0.51549-0.10277-0.1615-0.0685-0.30344-0.16151-0.4209-0.27896-0.11909-0.11582-0.2137-0.25448-0.28385-0.41436-0.0718-0.1615-0.10766-0.33116-0.10766-0.51387 0-0.1827 0.0359-0.35399 0.10766-0.51549 0.0701-0.16151 0.16476-0.30343 0.28385-0.42741 0.11746-0.12236 0.2594-0.2186 0.4209-0.28875 0.1615-0.0718 0.33442-0.10604 0.51549-0.10604 0.18109 0 0.35399 0.0343 0.51549 0.10604 0.16153 0.0701 0.30344 0.16639 0.4209 0.28875 0.11744 0.12398 0.2137 0.2659 0.28385 0.42741 0.0718 0.1615 0.10604 0.33279 0.10604 0.51549v0.65743h1.3116v-0.65743c0-0.1827 0.0359-0.35399 0.10604-0.51549 0.0701-0.16151 0.16476-0.30343 0.2822-0.42741 0.12073-0.12236 0.26102-0.2186 0.42252-0.28875 0.1615-0.0718 0.33281-0.10604 0.51552-0.10604 0.1827 0 0.35234 0.0343 0.51223 0.10604 0.1615 0.0701 0.30017 0.16639 0.41599 0.28875 0.11744 0.12398 0.21044 0.2659 0.27895 0.42741 0.0701 0.1615 0.10277 0.33279 0.10277 0.51549 0 0.17782-0.0326 0.34748-0.10277 0.50735-0.0685 0.15987-0.16312 0.30016-0.28059 0.41762-0.11908 0.11908-0.25776 0.21371-0.41926 0.28222-0.15985 0.0685-0.32952 0.10277-0.50732 0.10277h-0.67376v1.3165h0.67376c0.1778 0 0.34747 0.0343 0.50732 0.10277 0.1615 0.0685 0.30018 0.16313 0.41926 0.28222 0.11747 0.11909 0.21208 0.25775 0.28059 0.41762 0.0701 0.15987 0.10277 0.32953 0.10277 0.50735z"/>
    </g>
    <path d="m175.73 181.67c0 1.832-1.4813 3.31-3.3067 3.31h-88.841c-1.8287 0-3.31-1.478-3.31-3.31v-25.958c0-1.8255 1.4813-3.3083 3.31-3.3083h88.841c1.8255 0 3.3067 1.4829 3.3067 3.3083z" fill="url(#_lgradient_60)"/>
    <path d="m175.73 181.67c0 1.832-1.4813 3.31-3.3067 3.31h-88.841c-1.8287 0-3.31-1.478-3.31-3.31v-25.958c0-1.8255 1.4813-3.3083 3.31-3.3083h88.841c1.8255 0 3.3067 1.4829 3.3067 3.3083z" fill="none" stroke="#7c6f64" stroke-linejoin="bevel" stroke-width=".25" vector-effect="non-scaling-stroke"/>
    <path d="m174.81 181.55c0 1.3654-1.1158 2.4796-2.4861 2.4796h-88.655c-1.3671 0-2.4796-1.1142-2.4796-2.4796v-25.715c0-1.372 1.1126-2.4829 2.4796-2.4829h88.655c1.3703 0 2.4861 1.1109 2.4861 2.4829z" fill="url(#_lgradient_61)"/>
    <path d="m174.81 181.55c0 1.3654-1.1158 2.4796-2.4861 2.4796h-88.655c-1.3671 0-2.4796-1.1142-2.4796-2.4796v-25.715c0-1.372 1.1126-2.4829 2.4796-2.4829h88.655c1.3703 0 2.4861 1.1109 2.4861 2.4829z" fill="none" stroke="#ebdbb2" stroke-linejoin="bevel" stroke-width=".25" vector-effect="non-scaling-stroke"/>
    <path d="m76.58 181.67c0 1.832-1.4813 3.31-3.3083 3.31h-38.638c-1.8289 0-3.3105-1.478-3.3105-3.31v-25.958c0-1.8255 1.4816-3.3083 3.3105-3.3083h38.638c1.8271 0 3.3083 1.4829 3.3083 3.3083z" fill="url(#_lgradient_62)"/>
    <path d="m76.58 181.67c0 1.832-1.4813 3.31-3.3083 3.31h-38.638c-1.8289 0-3.3105-1.478-3.3105-3.31v-25.958c0-1.8255 1.4816-3.3083 3.3105-3.3083h38.638c1.8271 0 3.3083 1.4829 3.3083 3.3083z" fill="none" stroke="#7c6f64" stroke-linejoin="bevel" stroke-width=".25" vector-effect="non-scaling-stroke"/>
    <path d="m75.662 181.55c0 1.3654-1.1142 2.4796-2.4845 2.4796h-38.454c-1.3669 0-2.4788-1.1142-2.4788-2.4796v-25.715c0-1.372 1.1119-2.4829 2.4788-2.4829h38.454c1.3703 0 2.4845 1.1109 2.4845 2.4829z" fill="url(#_lgradient_63)"/>
    <path d="m75.662 181.55c0 1.3654-1.1142 2.4796-2.4845 2.4796h-38.454c-1.3669 0-2.4788-1.1142-2.4788-2.4796v-25.715c0-1.372 1.1119-2.4829 2.4788-2.4829h38.454c1.3703 0 2.4845 1.1109 2.4845 2.4829z" fill="none" stroke="#ebdbb2" stroke-linejoin="bevel" stroke-width=".25" vector-effect="non-scaling-stroke"/>
    <g fill="#504945">
      <path d="m72.304 178.65c0-0.0897-0.01958-0.17456-0.05384-0.25612-0.03588-0.0816-0.08319-0.15171-0.14192-0.21208-0.06035-0.0603-0.12888-0.10603-0.20881-0.14192-0.07994-0.0359-0.16639-0.0538-0.25612-0.0538h-0.67374v0.66396c0 0.093 0.01795 0.18108 0.05383 0.2659 0.03426 0.0832 0.08157 0.15661 0.14194 0.22023 0.06035 0.062 0.13213 0.11093 0.2137 0.14682 0.08483 0.0359 0.17293 0.0538 0.26428 0.0538 0.08972 0 0.17617-0.0196 0.25612-0.0571 0.07993-0.0375 0.14846-0.0865 0.20881-0.15008 0.05873-0.062 0.10604-0.1354 0.14192-0.21697 0.03426-0.0832 0.05384-0.16966 0.05384-0.26264zm0-3.9364c0-0.093-0.01958-0.17944-0.05384-0.26264-0.03588-0.0816-0.08319-0.15335-0.14192-0.21696-0.06035-0.062-0.12888-0.11257-0.20881-0.15009-0.07994-0.0375-0.16639-0.0555-0.25612-0.0555-0.09135 0-0.17945 0.0163-0.26428 0.0522-0.08157 0.0359-0.15335 0.0848-0.2137 0.14845-0.06036 0.062-0.10767 0.1354-0.14194 0.21696-0.03588 0.0816-0.05383 0.1713-0.05383 0.26754v0.65743h0.67374c0.08972 0 0.17617-0.0163 0.25612-0.0522 0.07993-0.0359 0.14846-0.0832 0.20881-0.14193 0.05873-0.0603 0.10604-0.12887 0.14192-0.2088 0.03426-0.0799 0.05384-0.16477 0.05384-0.2545zm-1.9853 1.31h-1.3116v1.3165h1.3116zm-1.9527 1.9625h-0.68516c-0.09298 0-0.18108 0.0179-0.26102 0.0538-0.08319 0.0359-0.15498 0.0816-0.21533 0.14192-0.06199 0.0604-0.11093 0.13051-0.1452 0.21208-0.03588 0.0816-0.05383 0.16639-0.05383 0.25612 0 0.093 0.01795 0.18108 0.05383 0.2659 0.03426 0.0832 0.0832 0.15661 0.14194 0.22023 0.05872 0.062 0.1305 0.11093 0.21533 0.14682 0.08157 0.0359 0.1713 0.0538 0.26428 0.0538 0.09461 0 0.18434-0.0179 0.26754-0.0538 0.08319-0.0359 0.15497-0.0848 0.21696-0.14682 0.06362-0.0636 0.11256-0.13703 0.14683-0.22023 0.03751-0.0848 0.05383-0.17292 0.05383-0.2659zm0-3.2724c0-0.0962-0.01632-0.18596-0.05383-0.26754-0.03426-0.0816-0.0832-0.15497-0.14683-0.21696-0.06199-0.0636-0.13377-0.11256-0.21696-0.14845-0.0832-0.0359-0.17293-0.0522-0.26754-0.0522-0.09298 0-0.18271 0.0163-0.26428 0.0522-0.08483 0.0359-0.15661 0.0848-0.21533 0.14845-0.05873 0.062-0.10767 0.1354-0.14194 0.21696-0.03588 0.0816-0.05383 0.1713-0.05383 0.26754 0 0.0897 0.01795 0.17455 0.05383 0.2545 0.03426 0.0799 0.0832 0.14845 0.1452 0.2088 0.06035 0.0587 0.13214 0.10604 0.21533 0.14193 0.07994 0.0359 0.16804 0.0522 0.26102 0.0522h0.68516zm4.5889 3.9364c0 0.18271-0.03263 0.354-0.10278 0.5155-0.06852 0.16313-0.1615 0.30342-0.27895 0.42088-0.11745 0.11909-0.2545 0.2137-0.416 0.28548-0.15987 0.0701-0.32952 0.10604-0.51386 0.10604-0.18108 0-0.35237-0.0359-0.51387-0.10604-0.16313-0.0718-0.30342-0.16639-0.42252-0.28548-0.11745-0.11746-0.2137-0.25775-0.28384-0.42088-0.07015-0.1615-0.10441-0.33279-0.10441-0.5155v-0.66396h-1.3116v0.66396c0 0.18271-0.03425 0.354-0.10603 0.5155-0.07015 0.16313-0.1664 0.30342-0.28386 0.42088-0.11745 0.11909-0.25938 0.2137-0.42088 0.28548-0.16151 0.0701-0.33443 0.10604-0.5155 0.10604-0.18271 0-0.354-0.0359-0.51713-0.10604-0.15987-0.0718-0.30179-0.16639-0.41926-0.28548-0.11908-0.11746-0.2137-0.25775-0.28384-0.42088-0.07178-0.1615-0.10767-0.33279-0.10767-0.5155 0-0.18272 0.0359-0.35237 0.10767-0.51224 0.07015-0.15987 0.16476-0.29854 0.28384-0.41599 0.11747-0.11746 0.25939-0.21044 0.41926-0.27896 0.16313-0.0685 0.33443-0.10277 0.51713-0.10277h0.68516v-1.3165h-0.68516c-0.18271 0-0.354-0.0343-0.51713-0.10278-0.15987-0.0685-0.30179-0.1615-0.41926-0.27896-0.11908-0.11582-0.2137-0.25448-0.28384-0.41436-0.07178-0.1615-0.10767-0.33116-0.10767-0.51387 0-0.1827 0.0359-0.35399 0.10767-0.51549 0.07015-0.16151 0.16476-0.30343 0.28384-0.42741 0.11747-0.12235 0.25939-0.2186 0.41926-0.28875 0.16313-0.0718 0.33443-0.10604 0.51713-0.10604 0.18108 0 0.35399 0.0343 0.5155 0.10604 0.1615 0.0702 0.30342 0.1664 0.42088 0.28875 0.11745 0.12398 0.21371 0.2659 0.28386 0.42741 0.07178 0.1615 0.10603 0.33279 0.10603 0.51549v0.65743h1.3116v-0.65743c0-0.1827 0.03426-0.35399 0.10441-0.51549 0.07015-0.16151 0.16639-0.30343 0.28384-0.42741 0.1191-0.12235 0.25939-0.2186 0.42252-0.28875 0.1615-0.0718 0.3328-0.10604 0.51387-0.10604 0.18434 0 0.35399 0.0343 0.51386 0.10604 0.1615 0.0702 0.29854 0.1664 0.416 0.28875 0.11745 0.12398 0.21044 0.2659 0.27895 0.42741 0.07015 0.1615 0.10278 0.33279 0.10278 0.51549 0 0.17782-0.03263 0.34748-0.10278 0.50735-0.06852 0.15987-0.16313 0.30016-0.28058 0.41762-0.1191 0.11908-0.25776 0.21371-0.41926 0.28222-0.1615 0.0685-0.32952 0.10278-0.50897 0.10278h-0.67374v1.3165h0.67374c0.17945 0 0.34747 0.0343 0.50897 0.10277 0.1615 0.0685 0.30016 0.16313 0.41926 0.28222 0.11745 0.11909 0.21207 0.25775 0.28058 0.41762 0.07015 0.15987 0.10278 0.32953 0.10278 0.50735z"/>
      <path d="m35.832 176.43c0.58631 0 0.93362 0.20229 0.93362 0.4372 0 0.11745-0.09886 0.24143-0.23589 0.24143-0.22138 0-0.30588-0.18434-0.69773-0.18434-0.71043 0-0.99087 0.69169-0.99087 1.279s0.28043 1.279 0.99087 1.279c0.40473 0 0.50979-0.19576 0.69137-0.19576 0.13067 0 0.22316 0.0848 0.22316 0.24144 0 0.2137-0.32022 0.45024-0.91452 0.45024-1.0561 0-1.5644-0.85481-1.5644-1.7749 0-0.91844 0.50832-1.7733 1.5644-1.7733z"/>
      <path d="m38.69 179.49c0.70407 0 0.9527-0.69168 0.9527-1.279s-0.24862-1.279-0.9527-1.279c-0.70425 0-0.95271 0.69169-0.95271 1.279s0.24846 1.279 0.95271 1.279zm0-3.0522c0.97814 0 1.5261 0.85482 1.5261 1.7733 0 0.92007-0.54796 1.7749-1.5261 1.7749-0.97815 0-1.5263-0.85481-1.5263-1.7749 0-0.91844 0.54812-1.7733 1.5263-1.7733z"/>
      <path d="m42.879 177.73c0-0.49593-0.2739-0.80262-0.74389-0.80262-0.46363 0-0.73769 0.30669-0.73769 0.80262v1.9445c0 0.18924-0.11142 0.30669-0.28678 0.30669-0.1752 0-0.28663-0.11745-0.28663-0.30669v-2.9348c0-0.18923 0.11143-0.30669 0.28663-0.30669 0.17536 0 0.28678 0.11746 0.28678 0.30669v0.1044l0.01272 0.0114c0.13704-0.17455 0.35368-0.42251 0.87472-0.42251 0.33932 0 0.69137 0.14356 0.95107 0.58728 0.25482-0.36542 0.5607-0.58728 1.0641-0.58728 0.53523 0 1.2077 0.33932 1.2077 1.3165v1.925c0 0.18924-0.11158 0.30669-0.28841 0.30669-0.17685 0-0.2868-0.11745-0.2868-0.30669v-1.9445c0-0.49593-0.27406-0.80262-0.74389-0.80262-0.46198 0-0.73605 0.30669-0.73605 0.80262v1.9445c0 0.18924-0.11159 0.30669-0.28679 0.30669-0.17683 0-0.28678-0.11745-0.28678-0.30669z"/>
      <path d="m48.322 177.73c0-0.49593-0.27406-0.80262-0.74388-0.80262-0.46494 0-0.739 0.30669-0.739 0.80262v1.9445c0 0.18924-0.11093 0.30669-0.28549 0.30669-0.17585 0-0.28744-0.11745-0.28744-0.30669v-2.9348c0-0.18923 0.11159-0.30669 0.28744-0.30669 0.17456 0 0.28549 0.11746 0.28549 0.30669v0.1044l0.01304 0.0114c0.13704-0.17455 0.354-0.42251 0.8744-0.42251 0.33932 0 0.69169 0.14356 0.95107 0.58728 0.25612-0.36542 0.56118-0.58728 1.0653-0.58728 0.53508 0 1.2072 0.33932 1.2072 1.3165v1.925c0 0.18924-0.11093 0.30669-0.28874 0.30669-0.17619 0-0.28712-0.11745-0.28712-0.30669v-1.9445c0-0.49593-0.27406-0.80262-0.74389-0.80262-0.46166 0-0.73572 0.30669-0.73572 0.80262v1.9445c0 0.18924-0.11093 0.30669-0.28712 0.30669s-0.28549-0.11745-0.28549-0.30669z"/>
      <path d="m53.084 179.49c0.70473 0 0.9527-0.69168 0.9527-1.279s-0.24796-1.279-0.9527-1.279c-0.70312 0-0.95107 0.69169-0.95107 1.279s0.24795 1.279 0.95107 1.279zm1.4943 0.21534c0 0.20228-0.1566 0.28058-0.26753 0.28058-0.11747 0-0.26754-0.0783-0.26754-0.28058v-0.24144h-0.01143c-0.24959 0.35236-0.57586 0.52202-0.94779 0.52202-0.97718 0-1.5253-0.85481-1.5253-1.7749 0-0.91844 0.54812-1.7733 1.5253-1.7733 0.39967 0 0.68026 0.16966 0.94779 0.46167h0.01143v-0.18108c0-0.20229 0.15008-0.28059 0.26754-0.28059 0.11093 0 0.26753 0.0783 0.26753 0.28059z"/>
      <path d="m55.337 176.74c0-0.18923 0.11093-0.30669 0.28712-0.30669 0.17618 0 0.28711 0.11746 0.28711 0.30669v0.13703l0.01306 0.013c0.25448-0.32626 0.61175-0.45677 0.95922-0.45677 0.53508 0 1.2056 0.33932 1.2056 1.3165v1.925c0 0.18924-0.11092 0.30669-0.2871 0.30669-0.17619 0-0.28875-0.11745-0.28875-0.30669v-1.8923c0-0.60685-0.42252-0.85482-0.80098-0.85482-0.37684 0-0.80099 0.24797-0.80099 0.85482v1.8923c0 0.18924-0.11093 0.30669-0.28711 0.30669-0.17619 0-0.28712-0.11745-0.28712-0.30669z"/>
      <path d="m60.221 176.93c-0.70312 0-0.95107 0.69169-0.95107 1.279s0.24795 1.279 0.95107 1.279c0.70636 0 0.9527-0.69168 0.9527-1.279s-0.24633-1.279-0.9527-1.279zm0.89559 2.5775h-0.01141c-0.16477 0.31159-0.47309 0.47635-0.92823 0.47635-0.93965 0-1.4796-0.85481-1.4796-1.7749 0-0.91844 0.53997-1.7733 1.4796-1.7733 0.45514 0 0.77651 0.25285 0.92823 0.46983h0.01141v-1.6901c0-0.18923 0.11093-0.30669 0.28712-0.30669 0.17617 0 0.28711 0.11746 0.28711 0.30669v4.4617c0 0.18924-0.11093 0.30669-0.28711 0.30669-0.17619 0-0.28712-0.11745-0.28712-0.30669z"/>
    </g>
    <path d="m189.98 145.53c0 1.8318-1.4828 3.3081-3.3114 3.3081h-22.228c-1.8253 0-3.3064-1.4762-3.3064-3.3081v-20.475c0-1.8253 1.4812-3.3081 3.3064-3.3081h22.228c1.8286 0 3.3114 1.4828 3.3114 3.3081z" fill="url(#_lgradient_64)"/>
    <path d="m189.98 145.53c0 1.8318-1.4828 3.3081-3.3114 3.3081h-22.228c-1.8253 0-3.3064-1.4762-3.3064-3.3081v-20.475c0-1.8253 1.4812-3.3081 3.3064-3.3081h22.228c1.8286 0 3.3114 1.4828 3.3114 3.3081z" fill="none" stroke="#7c6f64" stroke-linejoin="bevel" stroke-width=".25" vector-effect="non-scaling-stroke"/>
    <path d="m189.06 145.41c0 1.3637-1.1108 2.4762-2.4811 2.4762h-22.044c-1.367 0-2.4778-1.1125-2.4778-2.4762v-20.233c0-1.3702 1.1108-2.4827 2.4778-2.4827h22.044c1.3702 0 2.4811 1.1125 2.4811 2.4827z" fill="url(#_lgradient_65)"/>
    <path d="m189.06 145.41c0 1.3637-1.1108 2.4762-2.4811 2.4762h-22.044c-1.367 0-2.4778-1.1125-2.4778-2.4762v-20.233c0-1.3702 1.1108-2.4827 2.4778-2.4827h22.044c1.3702 0 2.4811 1.1125 2.4811 2.4827z" fill="none" stroke="#ebdbb2" stroke-linejoin="bevel" stroke-width=".25" vector-effect="non-scaling-stroke"/>
    <path d="m174.69 135.19-2.0276-3.2983c-0.10439-0.16964-0.1468-0.27567-0.1468-0.39149 0-0.23326 0.19086-0.3817 0.42413-0.3817 0.16963 0 0.32785 0.0636 0.46487 0.29688l1.7503 2.8514 1.7503-2.8514c0.13864-0.23326 0.29686-0.29688 0.46652-0.29688 0.23327 0 0.4241 0.14844 0.4241 0.3817 0 0.11582-0.0424 0.22185-0.14844 0.39149l-2.0243 3.2983v3.1058c0 0.30831-0.18105 0.49915-0.46816 0.49915-0.28544 0-0.46487-0.19084-0.46487-0.49915z" fill="#504945"/>
    <path d="m158.46 145.53c0 1.832-1.4829 3.3083-3.3116 3.3083h-22.227c-1.8287 0-3.31-1.4764-3.31-3.3083v-20.476c0-1.8254 1.4812-3.3083 3.31-3.3083h22.227c1.8287 0 3.3116 1.4829 3.3116 3.3083z" fill="url(#_lgradient_66)"/>
    <path d="m158.46 145.53c0 1.832-1.4829 3.3083-3.3116 3.3083h-22.227c-1.8287 0-3.31-1.4764-3.31-3.3083v-20.476c0-1.8254 1.4812-3.3083 3.31-3.3083h22.227c1.8287 0 3.3116 1.4829 3.3116 3.3083z" fill="none" stroke="#7c6f64" stroke-linejoin="bevel" stroke-width=".25" vector-effect="non-scaling-stroke"/>
    <path d="m157.54 145.42c0 1.3638-1.1109 2.4764-2.4813 2.4764h-22.046c-1.3671 0-2.478-1.1126-2.478-2.4764v-20.235c0-1.3703 1.1109-2.4829 2.478-2.4829h22.046c1.3703 0 2.4813 1.1126 2.4813 2.4829z" fill="url(#_lgradient_67)"/>
    <path d="m157.54 145.42c0 1.3638-1.1109 2.4764-2.4813 2.4764h-22.046c-1.3671 0-2.478-1.1126-2.478-2.4764v-20.235c0-1.3703 1.1109-2.4829 2.478-2.4829h22.046c1.3703 0 2.4813 1.1126 2.4813 2.4829z" fill="none" stroke="#ebdbb2" stroke-linejoin="bevel" stroke-width=".25" vector-effect="non-scaling-stroke"/>
    <path d="m144.13 138.48c1.137 0 1.6346-0.67864 2.0278-0.67864 0.22184 0 0.37029 0.16966 0.37029 0.43393 0 0.47798-1.0718 1.0506-2.3981 1.0506-2.1811 0-3.3067-1.876-3.3067-3.8385s1.1256-3.8385 3.3622-3.8385c1.3344 0 2.1843 0.72105 2.1843 1.1028 0 0.24307-0.14845 0.44535-0.38172 0.44535-0.42578 0-0.63622-0.74226-1.8026-0.74226-1.677 0-2.3654 1.5906-2.3654 3.0326s0.71126 3.0326 2.31 3.0326z" fill="#504945"/>
    <path d="m126.66 145.53c0 1.832-1.4812 3.3083-3.3067 3.3083h-22.23c-1.8287 0-3.3083-1.4764-3.3083-3.3083v-20.476c0-1.8254 1.4796-3.3083 3.3083-3.3083h22.23c1.8254 0 3.3067 1.4829 3.3067 3.3083z" fill="url(#_lgradient_68)"/>
    <path d="m126.66 145.53c0 1.832-1.4812 3.3083-3.3067 3.3083h-22.23c-1.8287 0-3.3083-1.4764-3.3083-3.3083v-20.476c0-1.8254 1.4796-3.3083 3.3083-3.3083h22.23c1.8254 0 3.3067 1.4829 3.3067 3.3083z" fill="none" stroke="#7c6f64" stroke-linejoin="bevel" stroke-width=".25" vector-effect="non-scaling-stroke"/>
    <path d="m125.75 145.42c0 1.3638-1.1158 2.4764-2.4861 2.4764h-22.043c-1.3687 0-2.4813-1.1126-2.4813-2.4764v-20.235c0-1.3703 1.1126-2.4829 2.4813-2.4829h22.043c1.3703 0 2.4861 1.1126 2.4861 2.4829z" fill="url(#_lgradient_69)"/>
    <path d="m125.75 145.42c0 1.3638-1.1158 2.4764-2.4861 2.4764h-22.043c-1.3687 0-2.4813-1.1126-2.4813-2.4764v-20.235c0-1.3703 1.1126-2.4829 2.4813-2.4829h22.043c1.3703 0 2.4861 1.1126 2.4861 2.4829z" fill="none" stroke="#ebdbb2" stroke-linejoin="bevel" stroke-width=".25" vector-effect="non-scaling-stroke"/>
    <path d="m109.68 138.99c-0.19086 0.26428-0.31811 0.2969-0.46818 0.2969-0.21045 0-0.42415-0.16966-0.42415-0.39315 0-0.14845 0.0865-0.28548 0.15008-0.38173l2.3638-3.3393-1.9723-2.7896c-0.10441-0.14845-0.15008-0.27569-0.15008-0.38173 0-0.23328 0.19087-0.39152 0.41435-0.39152 0.15987 0 0.29691 0.0424 0.47799 0.29527l1.7716 2.5889 1.77-2.5889c0.17944-0.25285 0.31648-0.29527 0.47635-0.29527 0.22349 0 0.41435 0.15824 0.41435 0.39152 0 0.10604-0.0408 0.23328-0.14844 0.38173l-1.9723 2.7896 2.3638 3.3393c0.0636 0.0962 0.14845 0.23328 0.14845 0.38173 0 0.22349-0.21044 0.39315-0.42414 0.39315-0.14683 0-0.27569-0.0326-0.46494-0.2969l-2.1631-3.0865z" fill="#504945"/>
    <path d="m94.869 145.53c0 1.832-1.4816 3.3083-3.3105 3.3083h-22.23c-1.8289 0-3.3074-1.4764-3.3074-3.3083v-20.476c0-1.8254 1.4785-3.3083 3.3074-3.3083h22.23c1.8289 0 3.3105 1.4829 3.3105 3.3083z" fill="url(#_lgradient_70)"/>
    <path d="m94.869 145.53c0 1.832-1.4816 3.3083-3.3105 3.3083h-22.23c-1.8289 0-3.3074-1.4764-3.3074-3.3083v-20.476c0-1.8254 1.4785-3.3083 3.3074-3.3083h22.23c1.8289 0 3.3105 1.4829 3.3105 3.3083z" fill="none" stroke="#7c6f64" stroke-linejoin="bevel" stroke-width=".25" vector-effect="non-scaling-stroke"/>
    <path d="m93.948 145.42c0 1.3638-1.1121 2.4764-2.4821 2.4764h-22.045c-1.37 0-2.4788-1.1126-2.4788-2.4764v-20.235c0-1.3703 1.1088-2.4829 2.4788-2.4829h22.045c1.37 0 2.4821 1.1126 2.4821 2.4829z" fill="url(#_lgradient_71)"/>
    <path d="m93.948 145.42c0 1.3638-1.1121 2.4764-2.4821 2.4764h-22.045c-1.37 0-2.4788-1.1126-2.4788-2.4764v-20.235c0-1.3703 1.1088-2.4829 2.4788-2.4829h22.045c1.37 0 2.4821 1.1126 2.4821 2.4829z" fill="none" stroke="#ebdbb2" stroke-linejoin="bevel" stroke-width=".25" vector-effect="non-scaling-stroke"/>
    <path d="m81.413 132.48h-3.4251c-0.26443 0-0.45562-0.13866-0.45562-0.40457 0-0.26427 0.1912-0.40131 0.45562-0.40131h4.1261c0.3075 0 0.48744 0.15824 0.48744 0.3279 0 0.20229-0.04143 0.31811-0.23263 0.5938l-3.8919 5.8222h3.8059c0.26607 0 0.45562 0.13703 0.45562 0.40294 0 0.26428-0.18955 0.40294-0.45562 0.40294h-4.3778c-0.39348 0-0.55122-0.15987-0.55122-0.42414 0-0.15987 0.03034-0.2757 0.17846-0.49919z" fill="#504945"/>
    <path d="m219.75 114.88c0 1.8318-1.4811 3.3081-3.3097 3.3081h-22.225c-1.8286 0-3.3113-1.4762-3.3113-3.3081v-20.475c0-1.8253 1.4828-3.3081 3.3113-3.3081h22.225c1.8286 0 3.3097 1.4828 3.3097 3.3081z" fill="url(#_lgradient_72)"/>
    <path d="m219.75 114.88c0 1.8318-1.4811 3.3081-3.3097 3.3081h-22.225c-1.8286 0-3.3113-1.4762-3.3113-3.3081v-20.475c0-1.8253 1.4828-3.3081 3.3113-3.3081h22.225c1.8286 0 3.3097 1.4828 3.3097 3.3081z" fill="none" stroke="#7c6f64" stroke-linejoin="bevel" stroke-width=".25" vector-effect="non-scaling-stroke"/>
    <path d="m218.83 114.76c0 1.3637-1.1125 2.4762-2.4827 2.4762h-22.044c-1.3653 0-2.4778-1.1125-2.4778-2.4762v-20.233c0-1.3702 1.1125-2.4827 2.4778-2.4827h22.044c1.3702 0 2.4827 1.1125 2.4827 2.4827z" fill="url(#_lgradient_73)"/>
    <path d="m218.83 114.76c0 1.3637-1.1125 2.4762-2.4827 2.4762h-22.044c-1.3653 0-2.4778-1.1125-2.4778-2.4762v-20.233c0-1.3702 1.1125-2.4827 2.4778-2.4827h22.044c1.3702 0 2.4827 1.1125 2.4827 2.4827z" fill="none" stroke="#ebdbb2" stroke-linejoin="bevel" stroke-width=".25" vector-effect="non-scaling-stroke"/>
    <path d="m204.46 101.4h-1.4094c-0.26588 0-0.45673-0.13865-0.45673-0.43552 0-0.29525 0.19085-0.4339 0.45673-0.4339h3.7534c0.2659 0 0.45673 0.13865 0.45673 0.4339 0 0.29687-0.19083 0.43552-0.45673 0.43552h-1.411v6.2443c0 0.3083-0.17943 0.49915-0.46654 0.49915-0.28544 0-0.46652-0.19085-0.46652-0.49915z" fill="#504945"/>
    <path d="m187.44 114.88c0 1.832-1.4812 3.3083-3.31 3.3083h-22.23c-1.8303 0-3.3083-1.4764-3.3083-3.3083v-20.476c0-1.8255 1.478-3.3083 3.3083-3.3083h22.23c1.8287 0 3.31 1.4829 3.31 3.3083z" fill="url(#_lgradient_74)"/>
    <path d="m187.44 114.88c0 1.832-1.4812 3.3083-3.31 3.3083h-22.23c-1.8303 0-3.3083-1.4764-3.3083-3.3083v-20.476c0-1.8255 1.478-3.3083 3.3083-3.3083h22.23c1.8287 0 3.31 1.4829 3.31 3.3083z" fill="none" stroke="#7c6f64" stroke-linejoin="bevel" stroke-width=".25" vector-effect="non-scaling-stroke"/>
    <path d="m186.51 114.76c0 1.3638-1.1109 2.4764-2.4813 2.4764h-22.046c-1.3703 0-2.478-1.1126-2.478-2.4764v-20.235c0-1.3703 1.1077-2.4829 2.478-2.4829h22.046c1.3703 0 2.4813 1.1126 2.4813 2.4829z" fill="url(#_lgradient_75)"/>
    <path d="m186.51 114.76c0 1.3638-1.1109 2.4764-2.4813 2.4764h-22.046c-1.3703 0-2.478-1.1126-2.478-2.4764v-20.235c0-1.3703 1.1077-2.4829 2.478-2.4829h22.046c1.3703 0 2.4813 1.1126 2.4813 2.4829z" fill="none" stroke="#ebdbb2" stroke-linejoin="bevel" stroke-width=".25" vector-effect="non-scaling-stroke"/>
    <path d="m170.87 107.39h1.3377c1.7602 0 2.416-1.4731 2.416-3.0114 0-1.5481-0.69821-2.9266-2.4796-2.9266h-1.2741zm-0.93313-6.235c0-0.28547 0.15009-0.50897 0.49919-0.50897h1.8336c2.2496 0 3.3524 1.739 3.3524 3.7325 0 2.2594-1.199 3.8173-3.2251 3.8173h-1.9609c-0.3491 0-0.49919-0.22186-0.49919-0.50897z" fill="#504945"/>
    <path d="m155.05 114.88c0 1.832-1.4812 3.3083-3.31 3.3083h-22.23c-1.8258 0-3.3074-1.4764-3.3074-3.3083v-20.476c0-1.8255 1.4816-3.3083 3.3074-3.3083h22.23c1.8287 0 3.31 1.4829 3.31 3.3083z" fill="url(#_lgradient_76)"/>
    <path d="m155.05 114.88c0 1.832-1.4812 3.3083-3.31 3.3083h-22.23c-1.8258 0-3.3074-1.4764-3.3074-3.3083v-20.476c0-1.8255 1.4816-3.3083 3.3074-3.3083h22.23c1.8287 0 3.31 1.4829 3.31 3.3083z" fill="none" stroke="#7c6f64" stroke-linejoin="bevel" stroke-width=".25" vector-effect="non-scaling-stroke"/>
    <path d="m154.13 114.76c0 1.3638-1.1126 2.4764-2.4829 2.4764h-22.045c-1.3669 0-2.4788-1.1126-2.4788-2.4764v-20.235c0-1.3703 1.1119-2.4829 2.4788-2.4829h22.045c1.3703 0 2.4829 1.1126 2.4829 2.4829z" fill="url(#_lgradient_77)"/>
    <path d="m154.13 114.76c0 1.3638-1.1126 2.4764-2.4829 2.4764h-22.045c-1.3669 0-2.4788-1.1126-2.4788-2.4764v-20.235c0-1.3703 1.1119-2.4829 2.4788-2.4829h22.045c1.3703 0 2.4829 1.1126 2.4829 2.4829z" fill="none" stroke="#ebdbb2" stroke-linejoin="bevel" stroke-width=".25" vector-effect="non-scaling-stroke"/>
    <path d="m142.06 101.47c0 0.22186-0.16804 0.41272-0.40131 0.41272-0.41371 0-0.55074-0.48776-1.4844-0.48776-0.68973 0-1.1979 0.43556-1.1979 1.0718 0 1.664 3.5844 0.8695 3.5844 3.4144 0 1.2512-0.91355 2.385-2.557 2.385-0.99561 0-2.0981-0.3801-2.0981-0.91191 0-0.25285 0.12594-0.47635 0.39202-0.47635 0.31859 0 0.76296 0.58238 1.7173 0.58238 0.96542 0 1.549-0.6982 1.549-1.5367 0-1.7928-3.585-0.92334-3.585-3.3932 0-0.88093 0.82691-1.9413 2.2273-1.9413 0.93344 0 1.8537 0.39316 1.8537 0.88092z" fill="#504945"/>
    <path d="m122.67 114.88c0 1.832-1.4816 3.3083-3.3105 3.3083h-22.227c-1.8287 0-3.3105-1.4764-3.3105-3.3083v-20.476c0-1.8255 1.4817-3.3083 3.3105-3.3083h22.227c1.8289 0 3.3105 1.4829 3.3105 3.3083z" fill="url(#_lgradient_78)"/>
    <path d="m122.67 114.88c0 1.832-1.4816 3.3083-3.3105 3.3083h-22.227c-1.8287 0-3.3105-1.4764-3.3105-3.3083v-20.476c0-1.8255 1.4817-3.3083 3.3105-3.3083h22.227c1.8289 0 3.3105 1.4829 3.3105 3.3083z" fill="none" stroke="#7c6f64" stroke-linejoin="bevel" stroke-width=".25" vector-effect="non-scaling-stroke"/>
    <path d="m121.75 114.76c0 1.3638-1.1121 2.4764-2.4821 2.4764h-22.045c-1.3669 0-2.4788-1.1126-2.4788-2.4764v-20.235c0-1.3703 1.1119-2.4829 2.4788-2.4829h22.045c1.37 0 2.4821 1.1126 2.4821 2.4829z" fill="url(#_lgradient_79)"/>
    <path d="m121.75 114.76c0 1.3638-1.1121 2.4764-2.4821 2.4764h-22.045c-1.3669 0-2.4788-1.1126-2.4788-2.4764v-20.235c0-1.3703 1.1119-2.4829 2.4788-2.4829h22.045c1.37 0 2.4821 1.1126 2.4821 2.4829z" fill="none" stroke="#ebdbb2" stroke-linejoin="bevel" stroke-width=".25" vector-effect="non-scaling-stroke"/>
    <path d="m107.86 101.67h-0.0224l-1.4528 4.0832h2.9281zm-2.2478 6.2464c-0.0749 0.20229-0.20229 0.3491-0.45727 0.3491-0.24209 0-0.44437-0.14681-0.44437-0.39151 0-0.12725 0.0954-0.37195 0.12741-0.46657l2.3434-6.2464c0.11631-0.32789 0.30751-0.57259 0.66918-0.57259 0.36003 0 0.55106 0.2447 0.6659 0.57259l2.345 6.2464c0.0318 0.0946 0.12741 0.33932 0.12741 0.46657 0 0.2447-0.20229 0.39151-0.44617 0.39151-0.25482 0-0.38222-0.14681-0.45546-0.3491l-0.48761-1.3573h-3.5z" fill="#504945"/>
    <path d="m90.284 114.88c0 1.832-1.4816 3.3083-3.3072 3.3083h-47.417c-1.8289 0-3.3072-1.4764-3.3072-3.3083v-20.476c0-1.8255 1.4783-3.3083 3.3072-3.3083h47.417c1.8256 0 3.3072 1.4829 3.3072 3.3083z" fill="url(#_lgradient_80)"/>
    <path d="m90.284 114.88c0 1.832-1.4816 3.3083-3.3072 3.3083h-47.417c-1.8289 0-3.3072-1.4764-3.3072-3.3083v-20.476c0-1.8255 1.4783-3.3083 3.3072-3.3083h47.417c1.8256 0 3.3072 1.4829 3.3072 3.3083z" fill="none" stroke="#7c6f64" stroke-linejoin="bevel" stroke-width=".25" vector-effect="non-scaling-stroke"/>
    <path d="m89.367 114.76c0 1.3638-1.115 2.4764-2.4852 2.4764h-47.229c-1.37 0-2.4819-1.1126-2.4819-2.4764v-20.235c0-1.3703 1.1119-2.4829 2.4819-2.4829h47.229c1.3702 0 2.4852 1.1126 2.4852 2.4829z" fill="url(#_lgradient_81)"/>
    <path d="m89.367 114.76c0 1.3638-1.115 2.4764-2.4852 2.4764h-47.229c-1.37 0-2.4819-1.1126-2.4819-2.4764v-20.235c0-1.3703 1.1119-2.4829 2.4819-2.4829h47.229c1.3702 0 2.4852 1.1126 2.4852 2.4829z" fill="none" stroke="#ebdbb2" stroke-linejoin="bevel" stroke-width=".25" vector-effect="non-scaling-stroke"/>
    <path d="m43.043 96.663c0 0.6248-0.50669 1.1305-1.1312 1.1305s-1.1312-0.50571-1.1312-1.1305 0.50669-1.1305 1.1312-1.1305 1.1312 0.50571 1.1312 1.1305z" fill="url(#_lgradient_82)"/>
    <g fill="#504945">
      <path d="m41.649 109.45c0.58614 0 0.93198 0.20228 0.93198 0.43883 0 0.11582-0.09723 0.2398-0.23426 0.2398-0.22137 0-0.3075-0.18271-0.69772-0.18271-0.71224 0-0.9925 0.69169-0.9925 1.279s0.28027 1.279 0.9925 1.279c0.40294 0 0.50816-0.19739 0.68972-0.19739 0.13067 0 0.223 0.0865 0.223 0.24144 0 0.21534-0.31859 0.45024-0.91273 0.45024-1.0563 0-1.5661-0.85319-1.5661-1.7732 0-0.92007 0.50979-1.7749 1.5661-1.7749z"/>
      <path d="m44.505 112.5c0.70587 0 0.9527-0.69168 0.9527-1.279s-0.24682-1.279-0.9527-1.279c-0.70409 0-0.95107 0.69169-0.95107 1.279s0.24698 1.279 0.95107 1.279zm1.4945 0.21371c0 0.20227-0.15612 0.28058-0.2677 0.28058-0.11794 0-0.2677-0.0783-0.2677-0.28058v-0.24144h-0.01273c-0.24682 0.35236-0.57341 0.52202-0.94633 0.52202-0.97815 0-1.5245-0.85319-1.5245-1.7732 0-0.92007 0.54633-1.7749 1.5245-1.7749 0.39837 0 0.6788 0.16966 0.94633 0.4633h0.01273v-0.18271c0-0.20228 0.14976-0.28059 0.2677-0.28059 0.11158 0 0.2677 0.0783 0.2677 0.28059z"/>
      <path d="m48.252 112.5c0.70425 0 0.9527-0.69168 0.9527-1.279s-0.24845-1.279-0.9527-1.279c-0.70408 0-0.9527 0.69169-0.9527 1.279s0.24862 1.279 0.9527 1.279zm-1.4672-2.7472c0-0.18924 0.10995-0.30669 0.28679-0.30669 0.17683 0 0.28679 0.11745 0.28679 0.30669v0.16965h0.01273c0.16411-0.31157 0.46998-0.47634 0.92561-0.47634 0.93981 0 1.4816 0.85482 1.4816 1.7749 0 0.92006-0.54176 1.7732-1.4816 1.7732-0.45563 0-0.77423-0.25285-0.92561-0.46819h-0.01273v1.5318c0 0.18923-0.10996 0.30669-0.28679 0.30669-0.17684 0-0.28679-0.11746-0.28679-0.30669z"/>
      <path d="m51.489 109.45c0.47472 0 1.1534 0.25449 1.1534 0.61337 0 0.12399-0.08434 0.23492-0.26118 0.23492-0.24698 0-0.34421-0.35237-0.89217-0.35237-0.32659 0-0.60702 0.1452-0.60702 0.43719 0 0.60686 1.8529 0.54161 1.8529 1.5465 0 0.72268-0.61974 1.0685-1.2649 1.0685-0.73132 0-1.3047-0.36378-1.3047-0.65905 0-0.15498 0.10995-0.25939 0.2341-0.25939 0.25498 0 0.46362 0.42415 1.0897 0.42415 0.41745 0 0.67227-0.23491 0.67227-0.47146 0-0.677-1.8527-0.63785-1.8527-1.6036 0-0.63948 0.6005-0.97879 1.1804-0.97879z"/>
      <path d="m55.488 112.69c0 0.18924-0.10995 0.30669-0.28679 0.30669-0.1752 0-0.28679-0.11745-0.28679-0.30669v-4.46c0-0.18924 0.11158-0.30669 0.28679-0.30669 0.17684 0 0.28679 0.11745 0.28679 0.30669z"/>
      <path d="m57.623 112.5c0.70408 0 0.95254-0.69168 0.95254-1.279s-0.24846-1.279-0.95254-1.279c-0.70425 0-0.9527 0.69169-0.9527 1.279s0.24845 1.279 0.9527 1.279zm0-3.0538c0.97814 0 1.5261 0.85482 1.5261 1.7749 0 0.92006-0.54797 1.7732-1.5261 1.7732-0.97815 0-1.5263-0.85319-1.5263-1.7732 0-0.92007 0.54812-1.7749 1.5263-1.7749z"/>
      <path d="m61.172 109.45c0.5863 0 0.93197 0.20228 0.93197 0.43883 0 0.11582-0.09706 0.2398-0.23409 0.2398-0.223 0-0.30587-0.18271-0.69788-0.18271-0.71045 0-0.99088 0.69169-0.99088 1.279s0.28043 1.279 0.99088 1.279c0.40473 0 0.50832-0.19739 0.69152-0.19739 0.13067 0 0.22137 0.0865 0.22137 0.24144 0 0.21534-0.32023 0.45024-0.91289 0.45024-1.0578 0-1.5643-0.85319-1.5643-1.7732 0-0.92007 0.50652-1.7749 1.5643-1.7749z"/>
      <path d="m62.654 108.23c0-0.18924 0.11158-0.30669 0.28679-0.30669 0.17536 0 0.28679 0.11745 0.28679 0.30669v2.4454l1.2522-1.0506c0.11794-0.10441 0.22937-0.17618 0.3266-0.17618 0.14975 0 0.24046 0.11093 0.24046 0.25449 0 0.0848-0.03181 0.16313-0.14324 0.2496l-1.3033 1.0294 1.5136 1.4927c0.10979 0.11093 0.1354 0.18271 0.1354 0.29527 0 0.12888-0.11631 0.22675-0.24063 0.22675-0.13703 0-0.19592-0.0391-0.33295-0.17618l-1.4481-1.5122v1.3817c0 0.18924-0.11142 0.30669-0.28679 0.30669-0.17521 0-0.28679-0.11745-0.28679-0.30669z"/>
    </g>
    <path d="m228 84.228c0 1.8238-1.4845 3.3083-3.3067 3.3083h-22.374c-1.8287 0-3.3067-1.4845-3.3067-3.3083v-11.894c0-1.832 1.478-3.31 3.3067-3.31h22.374c1.8222 0 3.3067 1.478 3.3067 3.31z" fill="url(#_lgradient_83)"/>
    <path d="m228 84.228c0 1.8238-1.4845 3.3083-3.3067 3.3083h-22.374c-1.8287 0-3.3067-1.4845-3.3067-3.3083v-11.894c0-1.832 1.478-3.31 3.3067-3.31h22.374c1.8222 0 3.3067 1.478 3.3067 3.31z" fill="none" stroke="#7c6f64" stroke-linejoin="bevel" stroke-width=".25" vector-effect="non-scaling-stroke"/>
    <path d="m227.08 84.104c0 1.3671-1.1093 2.4796-2.4796 2.4796h-22.184c-1.3703 0-2.4829-1.1126-2.4829-2.4796v-11.648c0-1.3703 1.1126-2.4829 2.4829-2.4829h22.184c1.3703 0 2.4796 1.1126 2.4796 2.4829z" fill="url(#_lgradient_84)"/>
    <path d="m227.08 84.104c0 1.3671-1.1093 2.4796-2.4796 2.4796h-22.184c-1.3703 0-2.4829-1.1126-2.4829-2.4796v-11.648c0-1.3703 1.1126-2.4829 2.4829-2.4829h22.184c1.3703 0 2.4796 1.1126 2.4796 2.4829z" fill="none" stroke="#ebdbb2" stroke-linejoin="bevel" stroke-width=".25" vector-effect="non-scaling-stroke"/>
    <path d="m216.01 81.308v-0.63784c0-0.0408-0.0294-0.07831-0.0669-0.07831h-4.8695c-0.0342 0-0.0669 0.03751-0.0669 0.07831v0.63784c0 0.0408 0.0327 0.06688 0.0669 0.06688h4.8695c0.0375 0 0.0669-0.02609 0.0669-0.06688zm-0.0669-1.832c0-0.02609-0.0196-0.0473-0.0196-0.0473l-2.354-2.3768s-0.0229-0.02285-0.0489-0.02285c-0.031 0-0.0506 0.02285-0.0506 0.02285l-2.3768 2.3768s-0.0196 0.02121-0.0196 0.0473c0 0.03754 0.0294 0.06688 0.0701 0.06688h4.7357c0.031 0 0.0636-0.02935 0.0636-0.06688z" fill="#504945" fill-rule="evenodd"/>
    <path d="m193.8 84.228c0 1.8238-1.4845 3.3083-3.31 3.3083h-22.37c-1.8287 0-3.31-1.4845-3.31-3.3083v-11.894c0-1.832 1.4812-3.31 3.31-3.31h22.37c1.8255 0 3.31 1.478 3.31 3.31z" fill="url(#_lgradient_85)"/>
    <path d="m193.8 84.228c0 1.8238-1.4845 3.3083-3.31 3.3083h-22.37c-1.8287 0-3.31-1.4845-3.31-3.3083v-11.894c0-1.832 1.4812-3.31 3.31-3.31h22.37c1.8255 0 3.31 1.478 3.31 3.31z" fill="none" stroke="#7c6f64" stroke-linejoin="bevel" stroke-width=".25" vector-effect="non-scaling-stroke"/>
    <path d="m192.88 84.104c0 1.3671-1.1093 2.4796-2.4796 2.4796h-22.188c-1.367 0-2.4796-1.1126-2.4796-2.4796v-11.648c0-1.3703 1.1126-2.4829 2.4796-2.4829h22.188c1.3703 0 2.4796 1.1126 2.4796 2.4829z" fill="url(#_lgradient_86)"/>
    <path d="m192.88 84.104c0 1.3671-1.1093 2.4796-2.4796 2.4796h-22.188c-1.367 0-2.4796-1.1126-2.4796-2.4796v-11.648c0-1.3703 1.1126-2.4829 2.4796-2.4829h22.188c1.3703 0 2.4796 1.1126 2.4796 2.4829z" fill="none" stroke="#ebdbb2" stroke-linejoin="bevel" stroke-width=".25" vector-effect="non-scaling-stroke"/>
    <g fill="#504945">
      <path d="m177.13 76.717c0-0.02937-0.0147-0.05872-0.031-0.08319l-0.36705-0.61665c-0.0375-0.04732-0.0816-0.07505-0.13703-0.07505-0.031 0-0.0669 0.01795-0.0979 0.02773-0.0424 0.03263-0.0604 0.08647-0.0604 0.13541 0 0.02447 0 0.07015 0.0179 0.09461l0.3703 0.5987c0.0294 0.0522 0.0865 0.07993 0.14356 0.07993 0.031 0 0.0538 0 0.0865-0.0163 0.044-0.03263 0.0751-0.08974 0.0751-0.1452zm0.81076-0.75694v-0.04077l-0.20718-0.69658c-0.01-0.06853-0.0701-0.11908-0.14029-0.11908h-0.0424c-0.0799 0.01957-0.12072 0.09462-0.12072 0.1615v0.03263l0.19086 0.70472c0.0131 0.07831 0.0897 0.1142 0.16313 0.1142h0.0277c0.0832-0.01795 0.12887-0.09952 0.12887-0.15662zm1.6052 3.9805c0-0.30344-0.21044-0.54812-0.47145-0.61827v-2.2675c0-0.09952-0.0897-0.18923-0.18759-0.18923-0.10604 0-0.19578 0.08971-0.19578 0.18923v2.2675c-0.27079 0.07015-0.46818 0.31484-0.46818 0.61827 0 0.35725 0.30668 0.66559 0.66396 0.66559 0.35235 0 0.65904-0.30834 0.65904-0.66559zm1.0897-3.2235c0-0.02937 7e-3 -0.05872 0.0277-0.08319l0.37358-0.61665c0.0294-0.04732 0.0799-0.07505 0.12725-0.07505 0.0326 0 0.0734 0.01795 0.0995 0.02773 0.0408 0.03263 0.0636 0.08647 0.0636 0.13541 0 0.02447 0 0.07015-0.0228 0.09461l-0.3638 0.5987c-0.0343 0.0522-0.0914 0.07993-0.13703 0.07993-0.031 0-0.0636 0-0.0946-0.0163-0.0457-0.03263-0.0734-0.08974-0.0734-0.1452zm-0.80914-0.75694c0-0.01795 7e-3 -0.02773 7e-3 -0.04077l0.18761-0.69658c0.0229-0.06853 0.0832-0.11908 0.15662-0.11908h0.0375c0.0799 0.01957 0.12073 0.09462 0.12073 0.1615v0.03263l-0.18435 0.70472c-0.0294 0.07831-0.0995 0.1142-0.16802 0.1142h-0.0359c-0.0799-0.01795-0.12072-0.09952-0.12072-0.15662zm-0.78468-0.28711v-0.71289c0-0.093-0.0669-0.16966-0.15495-0.16966-0.0897 0-0.16314 0.07667-0.16314 0.16966v0.71289c0 0.07993 0.0734 0.15008 0.16314 0.15008 0.0881 0 0.15495-0.07015 0.15495-0.15008zm3.3557 2.1321c0 1.956-1.5677 3.5286-3.5106 3.5286-1.9543 0-3.5155-1.5726-3.5155-3.5286 0-1.9462 1.5612-3.5008 3.5155-3.5008 1.9429 0 3.5106 1.5547 3.5106 3.5008zm0.39479 0c0-2.1566-1.7423-3.9054-3.9054-3.9054-2.1664 0-3.9168 1.7488-3.9168 3.9054 0 2.1778 1.7504 3.9299 3.9168 3.9299 2.1631 0 3.9054-1.7521 3.9054-3.9299z" fill-rule="evenodd"/>
      <path d="m187.15 81.702h0.88907c0.093 0 0.15662-0.04242 0.15662-0.15336 0-0.10766-0.0636-0.14191-0.15662-0.14191h-1.0424c-0.11421 0-0.16805 0.0685-0.16805 0.17128v2.4046c0 0.10604 0.0636 0.1664 0.15498 0.1664 0.0995 0 0.1664-0.06036 0.1664-0.1664v-1.0701h0.80262c0.0864 0 0.15334-0.05384 0.15334-0.14358 0-0.10114-0.0669-0.15334-0.15334-0.15334h-0.80262z"/>
      <path d="m189.64 83.092h-0.79933l0.79933-1.3866zm0.31322 0.28058h0.17783c0.0767 0 0.14029-0.05546 0.14029-0.1452 0-0.07015-0.0636-0.13539-0.14029-0.13539h-0.17783v-1.3997c0-0.21698-0.0701-0.31812-0.23653-0.31812-0.11746 0-0.18109 0.04732-0.25449 0.15988l-0.9364 1.5351c-0.0538 0.07667-0.0865 0.13703-0.0865 0.18761 0 0.06688 0.0228 0.11582 0.14356 0.11582h1.0571v0.61011c0 0.10604 0.0636 0.1664 0.15988 0.1664 0.0897 0 0.15334-0.06036 0.15334-0.1664z" fill-rule="evenodd"/>
    </g>
    <path d="m159.6 84.228c0 1.8238-1.4812 3.3083-3.3067 3.3083h-22.374c-1.8289 0-3.3072-1.4845-3.3072-3.3083v-11.894c0-1.832 1.4783-3.31 3.3072-3.31h22.374c1.8255 0 3.3067 1.478 3.3067 3.31z" fill="url(#_lgradient_87)"/>
    <path d="m159.6 84.228c0 1.8238-1.4812 3.3083-3.3067 3.3083h-22.374c-1.8289 0-3.3072-1.4845-3.3072-3.3083v-11.894c0-1.832 1.4783-3.31 3.3072-3.31h22.374c1.8255 0 3.3067 1.478 3.3067 3.31z" fill="none" stroke="#7c6f64" stroke-linejoin="bevel" stroke-width=".25" vector-effect="non-scaling-stroke"/>
    <path d="m158.67 84.104c0 1.3671-1.1093 2.4796-2.4796 2.4796h-22.184c-1.3706 0-2.4795-1.1126-2.4795-2.4796v-11.648c0-1.3703 1.1088-2.4829 2.4795-2.4829h22.184c1.3703 0 2.4796 1.1126 2.4796 2.4829z" fill="url(#_lgradient_88)"/>
    <path d="m158.67 84.104c0 1.3671-1.1093 2.4796-2.4796 2.4796h-22.184c-1.3706 0-2.4795-1.1126-2.4795-2.4796v-11.648c0-1.3703 1.1088-2.4829 2.4795-2.4829h22.184c1.3703 0 2.4796 1.1126 2.4796 2.4829z" fill="none" stroke="#ebdbb2" stroke-linejoin="bevel" stroke-width=".25" vector-effect="non-scaling-stroke"/>
    <g fill="#504945">
      <path d="m149.52 81.388h-10.088v-6.8124h10.088zm0.37195 0.14358v-7.1061c0-0.13703-0.093-0.23329-0.22675-0.23329h-10.383c-0.12399 0-0.23166 0.09626-0.23166 0.23329v7.1061c0 0.1256 0.10767 0.23491 0.23166 0.23491h10.383c0.13377 0 0.22675-0.1093 0.22675-0.23491zm-5.0539-1.3165c0 0.09788-0.0751 0.1664-0.17456 0.1664h-2.7814c-0.10276 0-0.17617-0.06853-0.17617-0.1664v-1.5938c0-0.1044 0.0734-0.18106 0.17617-0.18106h2.7814c0.0995 0 0.17456 0.07667 0.17456 0.18106zm-0.9739-3.186c0 0.09626-0.0832 0.18109-0.17945 0.18109h-3.0832c-0.0995 0-0.17944-0.08483-0.17944-0.18109v-1.2839c0-0.10602 0.0799-0.18106 0.17944-0.18106h3.0832c0.0962 0 0.17945 0.07505 0.17945 0.18106zm4.6542 1.9429c0 0.09623-0.0767 0.16802-0.17129 0.16802h-2.093c-0.10277 0-0.17617-0.07179-0.17617-0.16802v-2.7814c0-0.09462 0.0734-0.17292 0.17617-0.17292h2.093c0.0946 0 0.17129 0.07831 0.17129 0.17292zm-3.3638 1.2431v-1.5938c0-0.27242-0.21697-0.49754-0.49104-0.49754h-2.7814c-0.28058 0-0.49428 0.22512-0.49428 0.49754v1.5938c0 0.2708 0.2137 0.50245 0.49428 0.50245h2.7814c0.27407 0 0.49104-0.23165 0.49104-0.50245zm-0.97554-3.186v-1.2839c0-0.28384-0.22675-0.5008-0.49429-0.5008h-3.0832c-0.27732 0-0.49429 0.21696-0.49429 0.5008v1.2839c0 0.28058 0.21697 0.49757 0.49429 0.49757h3.0832c0.26754 0 0.49429-0.21698 0.49429-0.49757zm4.6672 1.9429v-2.7814c0-0.27732-0.22512-0.4845-0.49919-0.4845h-2.093c-0.28058 0-0.4943 0.20718-0.4943 0.4845v2.7814c0 0.26426 0.21372 0.50407 0.4943 0.50407h2.093c0.27407 0 0.49919-0.23981 0.49919-0.50407z" fill-rule="evenodd"/>
      <path d="m152.84 81.702h0.88907c0.0979 0 0.16151-0.04242 0.16151-0.15336 0-0.10766-0.0636-0.14191-0.16151-0.14191h-1.0392c-0.11746 0-0.1664 0.0685-0.1664 0.17128v2.4046c0 0.10604 0.0636 0.1664 0.15661 0.1664 0.10115 0 0.15987-0.06036 0.15987-0.1664v-1.0701h0.80262c0.0864 0 0.15824-0.05384 0.15824-0.14358 0-0.10114-0.0718-0.15334-0.15824-0.15334h-0.80262z"/>
      <path d="m155.4 82.665c0.23002-0.17945 0.31811-0.37358 0.31811-0.58238 0-0.37032-0.26428-0.70801-0.68841-0.70801-0.43558 0-0.69006 0.33769-0.69006 0.68516 0 0.08809 0.0604 0.16476 0.14519 0.16476 0.0587 0 0.13703 0 0.15008-0.1615 0.0228-0.20227 0.12399-0.39641 0.38336-0.39641 0.23165 0 0.38173 0.18271 0.38173 0.45351 0 0.29201-0.15986 0.3752-0.30016 0.41926-0.0571 0.02121-0.0946 0.03263-0.14519 0.04568-0.0522 0.0163-0.093 0.0571-0.093 0.12725 0 0.09297 0.0571 0.12722 0.19088 0.12722 0.24796 0 0.47471 0.10604 0.47471 0.51061 0 0.29365-0.21697 0.51878-0.5155 0.51878-0.24959 0-0.38989-0.15988-0.45025-0.35402-0.031-0.1044-0.0979-0.17454-0.18108-0.17454-0.0538 0-0.13377 0.07993-0.13377 0.18109 0 0.19737 0.21698 0.62805 0.77162 0.62805 0.4682 0 0.83361-0.3067 0.83361-0.82219 0-0.28387-0.1305-0.52204-0.45188-0.66233z"/>
    </g>
    <path d="m125.4 84.228c0 1.8238-1.4848 3.3083-3.3105 3.3083h-22.37c-1.8289 0-3.3105-1.4845-3.3105-3.3083v-11.894c0-1.832 1.4816-3.31 3.3105-3.31h22.37c1.8256 0 3.3105 1.478 3.3105 3.31z" fill="url(#_lgradient_89)"/>
    <path d="m125.4 84.228c0 1.8238-1.4848 3.3083-3.3105 3.3083h-22.37c-1.8289 0-3.3105-1.4845-3.3105-3.3083v-11.894c0-1.832 1.4816-3.31 3.3105-3.31h22.37c1.8256 0 3.3105 1.478 3.3105 3.31z" fill="none" stroke="#7c6f64" stroke-linejoin="bevel" stroke-width=".25" vector-effect="non-scaling-stroke"/>
    <path d="m124.47 84.104c0 1.3671-1.1088 2.4796-2.4788 2.4796h-22.189c-1.3669 0-2.4788-1.1126-2.4788-2.4796v-11.648c0-1.3703 1.1119-2.4829 2.4788-2.4829h22.189c1.37 0 2.4788 1.1126 2.4788 2.4829z" fill="url(#_lgradient_90)"/>
    <path d="m124.47 84.104c0 1.3671-1.1088 2.4796-2.4788 2.4796h-22.189c-1.3669 0-2.4788-1.1126-2.4788-2.4796v-11.648c0-1.3703 1.1119-2.4829 2.4788-2.4829h22.189c1.37 0 2.4788 1.1126 2.4788 2.4829z" fill="none" stroke="#ebdbb2" stroke-linejoin="bevel" stroke-width=".25" vector-effect="non-scaling-stroke"/>
    <g fill="#504945">
      <path d="m111.55 78.025c0 0.61827-0.50979 1.1272-1.1248 1.1272-0.61175 0-1.1183-0.50897-1.1183-1.1272 0-0.61501 0.50653-1.1191 1.1183-1.1191 0.61501 0 1.1248 0.50409 1.1248 1.1191zm-2.5204 1.6754c0-0.06036-0.0349-0.13213-0.0827-0.18759-0.0478-0.04732-0.12121-0.07669-0.18484-0.07669-0.0765 0-0.14029 0.02937-0.19118 0.07669l-0.5545 0.55139c-0.0509 0.05056-0.0732 0.11582-0.0732 0.18597 0 0.06198 0.0224 0.13865 0.0732 0.18759 0.0478 0.05058 0.12758 0.07505 0.19446 0.07505 0.0733 0 0.14013-0.02447 0.1912-0.07505l0.54486-0.55465c0.0478-0.0473 0.0827-0.11582 0.0827-0.18271zm1.6664 1.4666v-0.77815c0-0.13865-0.12414-0.25773-0.2708-0.25773-0.14975 0-0.2708 0.11908-0.2708 0.25773v0.77815c0 0.16476 0.12105 0.2708 0.2708 0.2708 0.14666 0 0.2708-0.10604 0.2708-0.2708zm-2.3609-3.1419c0-0.14684-0.12431-0.26102-0.27096-0.26102h-0.77423c-0.14977 0-0.26445 0.11418-0.26445 0.26102 0 0.15008 0.11468 0.27732 0.26445 0.27732h0.77423c0.14665 0 0.27096-0.12725 0.27096-0.27732zm4.5721 2.2251c0-0.07015-0.0191-0.13541-0.0701-0.18597l-0.55758-0.55139c-0.0446-0.04732-0.11469-0.07669-0.18484-0.07669-0.07 0-0.14013 0.02937-0.18792 0.07669-0.0542 0.05546-0.0829 0.12722-0.0829 0.18759 0 0.06688 0.0287 0.13541 0.0829 0.18271l0.54796 0.55465c0.0447 0.05058 0.11484 0.07505 0.18482 0.07505 0.0701 0 0.14977-0.02447 0.19756-0.07505 0.0511-0.04894 0.0701-0.12561 0.0701-0.18759zm-0.90489-2.2251c0-0.87277-0.70409-1.5743-1.5772-1.5743-0.87292 0-1.5803 0.70148-1.5803 1.5743 0 0.88255 0.70735 1.5873 1.5803 1.5873 0.87309 0 1.5772-0.70472 1.5772-1.5873zm-2.9728-1.664c0-0.06036-0.0349-0.14194-0.0827-0.18761l-0.54486-0.55465c-0.0511-0.0571-0.11795-0.07505-0.1912-0.07505-0.0669 0-0.14665 0.01795-0.19446 0.07505-0.0509 0.04894-0.0732 0.13051-0.0732 0.19413 0 0.07667 0.0224 0.14355 0.0732 0.18923l0.5545 0.54812c0.0509 0.04406 0.11468 0.07993 0.19118 0.07993 0.0636 0 0.13704-0.03587 0.18484-0.07993 0.0478-0.05056 0.0827-0.11908 0.0827-0.18923zm4.8016 1.664c0-0.14684-0.12104-0.26102-0.2677-0.26102h-0.77422c-0.14977 0-0.26754 0.11418-0.26754 0.26102 0 0.15008 0.11777 0.27732 0.26754 0.27732h0.77422c0.14666 0 0.2677-0.12725 0.2677-0.27732zm-3.1352-2.3573v-0.78467c0-0.14517-0.12414-0.25121-0.2708-0.25121-0.14975 0-0.2708 0.10604-0.2708 0.25121v0.78467c0 0.1452 0.12105 0.26428 0.2708 0.26428 0.14666 0 0.2708-0.11908 0.2708-0.26428zm2.2113 0.1452c0-0.06362-0.0191-0.1452-0.0701-0.19413-0.0478-0.0571-0.12741-0.07505-0.19756-0.07505-0.07 0-0.14013 0.01795-0.18482 0.07505l-0.54796 0.55465c-0.0542 0.04568-0.0829 0.12725-0.0829 0.18761 0 0.07015 0.0287 0.13867 0.0829 0.18923 0.0478 0.04406 0.11794 0.07993 0.18792 0.07993 0.0701 0 0.14029-0.03587 0.18484-0.07993l0.55758-0.54812c0.0511-0.04568 0.0701-0.11256 0.0701-0.18923z" fill-rule="evenodd"/>
      <path d="m118.87 81.702h0.89527c0.0892 0 0.15302-0.04242 0.15302-0.15336 0-0.10766-0.0638-0.14191-0.15302-0.14191h-1.045c-0.11794 0-0.16574 0.0685-0.16574 0.17128v2.4046c0 0.10604 0.0605 0.1664 0.15302 0.1664 0.10196 0 0.16249-0.06036 0.16249-0.1664v-1.0701h0.80293c0.0923 0 0.15286-0.05384 0.15286-0.14358 0-0.10114-0.0605-0.15334-0.15286-0.15334h-0.80293z"/>
      <path d="m120.78 83.848 0.90163-1.2382c0.16574-0.23165 0.17521-0.38662 0.17521-0.56281 0-0.33443-0.26754-0.67211-0.70734-0.67211-0.54487 0-0.83476 0.40783-0.83476 0.86299 0 0.13377 0.0574 0.19739 0.14976 0.19739 0.0669 0 0.13376-0.0408 0.13376-0.14846 0-0.34585 0.17538-0.61991 0.49397-0.61991 0.24845 0 0.43965 0.17619 0.43965 0.43394 0 0.15986-0.0923 0.33443-0.19756 0.48124l-0.92072 1.2643c-0.0574 0.07831-0.0765 0.11582-0.0765 0.1452 0 0.05872 0.0445 0.13377 0.18157 0.13377h1.2777c0.0765 0 0.13703-0.06201 0.13703-0.14029 0-0.06527-0.0605-0.13703-0.13703-0.13703z"/>
    </g>
    <path d="m91.192 84.228c0 1.8238-1.4816 3.3083-3.3072 3.3083h-22.374c-1.8289 0-3.3072-1.4845-3.3072-3.3083v-11.894c0-1.832 1.4783-3.31 3.3072-3.31h22.374c1.8256 0 3.3072 1.478 3.3072 3.31z" fill="url(#_lgradient_91)"/>
    <path d="m91.192 84.228c0 1.8238-1.4816 3.3083-3.3072 3.3083h-22.374c-1.8289 0-3.3072-1.4845-3.3072-3.3083v-11.894c0-1.832 1.4783-3.31 3.3072-3.31h22.374c1.8256 0 3.3072 1.478 3.3072 3.31z" fill="none" stroke="#7c6f64" stroke-linejoin="bevel" stroke-width=".25" vector-effect="non-scaling-stroke"/>
    <path d="m90.268 84.104c0 1.3671-1.1088 2.4796-2.4788 2.4796h-22.185c-1.3702 0-2.479-1.1126-2.479-2.4796v-11.648c0-1.3703 1.1088-2.4829 2.479-2.4829h22.185c1.37 0 2.4788 1.1126 2.4788 2.4829z" fill="url(#_lgradient_92)"/>
    <path d="m90.268 84.104c0 1.3671-1.1088 2.4796-2.4788 2.4796h-22.185c-1.3702 0-2.479-1.1126-2.479-2.4796v-11.648c0-1.3703 1.1088-2.4829 2.479-2.4829h22.185c1.37 0 2.4788 1.1126 2.4788 2.4829z" fill="none" stroke="#ebdbb2" stroke-linejoin="bevel" stroke-width=".25" vector-effect="non-scaling-stroke"/>
    <g fill="#504945">
      <path d="m76.692 77.968c0 0.50571-0.40457 0.92823-0.91126 0.92823-0.50653 0-0.91126-0.42252-0.91126-0.92823 0-0.50083 0.40473-0.90866 0.91126-0.90866 0.50669 0 0.91126 0.40783 0.91126 0.90866zm-2.3323 1.6982c0-0.07015-0.02544-0.13051-0.07961-0.17945-0.04779-0.0522-0.11778-0.08809-0.18484-0.08809-0.07325 0-0.14013 0.03589-0.19118 0.08809l-0.1974 0.17945c-0.05105 0.04403-0.07977 0.12725-0.07977 0.18761 0 0.07667 0.02871 0.15334 0.07977 0.20392 0.04781 0.04729 0.11779 0.07667 0.18466 0.07667 0.07016 0 0.15302-0.02937 0.20392-0.07667l0.18484-0.21208c0.05417-0.04894 0.07961-0.1093 0.07961-0.17945zm1.6855 0.98369v-0.29527c0-0.14029-0.11469-0.25286-0.26444-0.25286-0.14649 0-0.26754 0.11256-0.26754 0.25286v0.29527c0 0.13867 0.12105 0.25938 0.26754 0.25938 0.14975 0 0.26444-0.1207 0.26444-0.25938zm-2.38-2.6819c0-0.14355-0.12121-0.26102-0.2677-0.26102h-0.27716c-0.14976 0-0.2677 0.11747-0.2677 0.26102 0 0.15498 0.11794 0.28058 0.2677 0.28058h0.27716c0.1465 0 0.2677-0.12561 0.2677-0.28058zm4.2726 1.8858c0-0.06036-0.03507-0.14358-0.08288-0.18761l-0.19756-0.17945c-0.05089-0.0522-0.12104-0.08809-0.19118-0.08809-0.06688 0-0.13687 0.03589-0.18468 0.08809-0.05105 0.04894-0.08287 0.1093-0.08287 0.17945s0.03181 0.13051 0.08287 0.17945l0.18468 0.21208c0.05105 0.04729 0.13067 0.07667 0.20082 0.07667s0.14013-0.02937 0.18792-0.07667c0.04781-0.05058 0.08288-0.12725 0.08288-0.20392zm-0.79023-1.8858c0-0.74878-0.61485-1.3638-1.3669-1.3638-0.75514 0-1.37 0.61501-1.37 1.3638 0 0.76508 0.61485 1.3736 1.37 1.3736 0.75204 0 1.3669-0.60849 1.3669-1.3736zm-2.7879-1.6803c0-0.06688-0.02544-0.14194-0.07961-0.19249l-0.18484-0.19578c-0.05089-0.04729-0.13376-0.07502-0.20392-0.07502-0.06687 0-0.13686 0.02773-0.18466 0.07502-0.05105 0.04732-0.07977 0.11747-0.07977 0.18435 0 0.07015 0.02871 0.15986 0.07977 0.20392l0.1974 0.18597c0.05105 0.04732 0.11794 0.07993 0.19118 0.07993 0.06706 0 0.13704-0.03261 0.18484-0.07993 0.05417-0.04568 0.07961-0.1142 0.07961-0.18597zm4.346 1.6803c0-0.14355-0.11158-0.26102-0.26444-0.26102h-0.28042c-0.14649 0-0.26754 0.11747-0.26754 0.26102 0 0.15498 0.12105 0.28058 0.26754 0.28058h0.28042c0.15286 0 0.26444-0.12561 0.26444-0.28058zm-2.6605-2.3703v-0.2871c0-0.14681-0.11469-0.26754-0.26444-0.26754-0.14649 0-0.26754 0.12073-0.26754 0.26754v0.2871c0 0.14681 0.12105 0.26102 0.26754 0.26102 0.14975 0 0.26444-0.1142 0.26444-0.26102zm1.8927 0.48614c0-0.06688-0.03507-0.13703-0.08288-0.18435-0.04779-0.04729-0.11778-0.07502-0.18792-0.07502-0.07015 0-0.14976 0.02773-0.20082 0.07502l-0.18468 0.19578c-0.05105 0.05056-0.08287 0.12561-0.08287 0.19249 0 0.07176 0.03181 0.14029 0.08287 0.18597 0.04781 0.04732 0.11779 0.07993 0.18468 0.07993 0.07015 0 0.14029-0.03261 0.19118-0.07993l0.19756-0.18597c0.04781-0.04406 0.08288-0.13377 0.08288-0.20392z" fill-rule="evenodd"/>
      <path d="m85.234 81.702h0.89528c0.08923 0 0.15611-0.04242 0.15611-0.15662 0-0.1044-0.06688-0.13865-0.15611-0.13865h-1.0419c-0.11778 0-0.16884 0.06688-0.16884 0.16802v2.4078c0 0.10604 0.06052 0.1664 0.15612 0.1664 0.09233 0 0.15937-0.06036 0.15937-0.1664v-1.0734h0.80278c0.0925 0 0.15301-0.05384 0.15301-0.14194 0-0.09952-0.06051-0.15172-0.15301-0.15172h-0.80278z"/>
      <path d="m87.174 81.681v2.3018c0 0.10604 0.06052 0.1664 0.15612 0.1664s0.15612-0.06036 0.15612-0.1664v-2.5008c0-0.06689-0.03508-0.07505-0.0987-0.07505h-0.5576c-0.07651 0-0.13703 0.05546-0.13703 0.13539 0 0.08321 0.06053 0.13867 0.13703 0.13867z"/>
    </g>
    <path d="m56.991 84.228c0 1.8238-1.4848 3.3083-3.3105 3.3083h-22.37c-1.8289 0-3.3105-1.4845-3.3105-3.3083v-11.894c0-1.832 1.4816-3.31 3.3105-3.31h22.37c1.8256 0 3.3105 1.478 3.3105 3.31z" fill="url(#_lgradient_93)"/>
    <path d="m56.991 84.228c0 1.8238-1.4848 3.3083-3.3105 3.3083h-22.37c-1.8289 0-3.3105-1.4845-3.3105-3.3083v-11.894c0-1.832 1.4816-3.31 3.3105-3.31h22.37c1.8256 0 3.3105 1.478 3.3105 3.31z" fill="none" stroke="#7c6f64" stroke-linejoin="bevel" stroke-width=".25" vector-effect="non-scaling-stroke"/>
    <path d="m56.067 84.104c0 1.3671-1.1088 2.4796-2.479 2.4796h-22.189c-1.3669 0-2.479-1.1126-2.479-2.4796v-11.648c0-1.3703 1.1121-2.4829 2.479-2.4829h22.189c1.3702 0 2.479 1.1126 2.479 2.4829z" fill="url(#_lgradient_94)"/>
    <path d="m56.067 84.104c0 1.3671-1.1088 2.4796-2.479 2.4796h-22.189c-1.3669 0-2.479-1.1126-2.479-2.4796v-11.648c0-1.3703 1.1121-2.4829 2.479-2.4829h22.189c1.3702 0 2.479 1.1126 2.479 2.4829z" fill="none" stroke="#ebdbb2" stroke-linejoin="bevel" stroke-width=".25" vector-effect="non-scaling-stroke"/>
    <g fill="#504945">
      <path d="m39.585 77.859h-1.7684c0.03507-0.56281 0.27716-1.0538 0.908-1.0538 0.56396 0 0.83802 0.5204 0.86037 1.0538zm-1.7716 0.3801h1.9883c0.21974 0 0.28026-0.09788 0.28026-0.28058 0-0.79284-0.50016-1.5889-1.3509-1.5889-0.88255 0-1.4147 0.77977-1.4147 1.6656 0 0.87929 0.43981 1.6786 1.4434 1.6786 0.62138 0 1.2586-0.40783 1.2586-0.65578 0-0.14681-0.08924-0.22348-0.20392-0.22348-0.10196 0-0.24226 0.17128-0.32823 0.22348-0.15612 0.10766-0.37602 0.2186-0.72643 0.2186-0.57357 0-0.92398-0.42578-0.94633-1.0375z" fill-rule="evenodd"/>
      <path d="m42.857 78.711c0-0.29201-0.16248-0.49102-0.39185-0.64926-0.23263-0.14684-0.49707-0.23003-0.75205-0.33933-0.20066-0.08483-0.54796-0.22512-0.54796-0.47798 0-0.30179 0.2677-0.43882 0.56721-0.43882 0.25808 0 0.41094 0.09462 0.52888 0.18433 0.08597 0.05384 0.18156 0.15336 0.28352 0.15336 0.15612 0 0.23263-0.08809 0.23263-0.20718 0-0.32138-0.61175-0.56607-1.045-0.56607-0.52904 0-1.0674 0.31484-1.0674 0.91028 0 0.28711 0.16884 0.4845 0.39494 0.63458 0.28369 0.18435 0.61827 0.28223 0.91452 0.44211 0.16884 0.08971 0.38548 0.22022 0.38548 0.45839 0 0.22677-0.24209 0.46167-0.62758 0.46167-0.29315 0-0.4876-0.11094-0.64372-0.21534-0.10196-0.05546-0.24209-0.18597-0.36003-0.18597-0.10196 0-0.19429 0.08645-0.19429 0.22674 0 0.2708 0.51289 0.61175 1.1788 0.61175 0.59266 0 1.1439-0.32788 1.1439-1.0033z"/>
      <path d="m45.629 76.769c0-0.20392-0.29951-0.39967-0.84112-0.39967-0.94944 0-1.4147 0.80586-1.4147 1.6656 0 0.87929 0.46525 1.6786 1.4147 1.6786 0.54486 0 0.82529-0.21696 0.82529-0.42088 0-0.13213-0.07977-0.19901-0.19119-0.19901-0.05416 0-0.10832 0.01795-0.22937 0.08483-0.09249 0.04242-0.21354 0.09788-0.39837 0.09788-0.66265 0-0.92073-0.67863-0.92073-1.2414 0-0.56117 0.25808-1.23 0.91436-1.23 0.18157 0 0.28989 0.05056 0.37602 0.09462 0.13377 0.05546 0.18793 0.08157 0.26444 0.08157 0.11778 0 0.20066-0.10278 0.20066-0.21208z"/>
    </g>
  </g>
</svg>
