<svg width="256" height="256" version="1.1" xmlns="http://www.w3.org/2000/svg">
  <defs>
    <linearGradient id="linearGradient31" x1=".5002" x2=".5002" y2="1" gradientTransform="matrix(244,0,0,228,5.986,12)" gradientUnits="userSpaceOnUse">
      <stop stop-color="#ebdbb2" stop-opacity=".2" offset="0"/>
      <stop stop-color="#ebdbb2" stop-opacity=".05" offset=".1"/>
      <stop stop-opacity="0" offset=".7036"/>
      <stop stop-opacity=".1" offset=".8975"/>
      <stop stop-opacity=".2" offset="1"/>
    </linearGradient>
    <linearGradient id="linearGradient6" x1="140" x2="140" y1="12" y2="240" gradientUnits="userSpaceOnUse">
      <stop stop-color="#504945" offset="0"/>
      <stop stop-color="#3c3836" offset="1"/>
    </linearGradient>
    <linearGradient id="b-9-6" x1=".6312" x2=".6312" y1=".4998" y2=".9998" gradientTransform="matrix(244,0,0,228,5.995,12)" gradientUnits="userSpaceOnUse">
      <stop stop-color="#fe8019" offset="0"/>
      <stop stop-color="#d65d0e" offset="1"/>
    </linearGradient>
  </defs>
  <path d="m165 12c72 0 85 15 85 87v56c0 70-13 85-85 85h-74c-72 0-85-15-85-85v-56c0-72 13-87 85-87z" fill="url(#linearGradient6)" style="isolation:isolate"/>
  <path d="m37.129 74.996c-2.84 0-5.125 2.285-5.125 5.125v21.74c0 2.84 2.285 5.127 5.125 5.127h21.75c2.84 0 5.125-2.287 5.125-5.127v-21.74c0-2.84-2.285-5.125-5.125-5.125zm40 2e-3c-2.84 0-5.125 2.285-5.125 5.125v21.75c0 2.84 2.285 5.125 5.125 5.125h21.75c2.84 0 5.125-2.285 5.125-5.125v-21.75c0-2.84-2.285-5.125-5.125-5.125zm40 0c-2.84 0-5.125 2.285-5.125 5.125v21.75c0 2.84 2.285 5.125 5.125 5.125h21.75c2.84 0 5.125-2.285 5.125-5.125v-21.75c0-2.84-2.285-5.125-5.125-5.125zm40 2e-3c-2.84 0-5.127 2.285-5.127 5.125v21.75c0 2.84 2.287 5.125 5.127 5.125h21.74c2.84 0 5.127-2.285 5.127-5.125v-21.75c0-2.84-2.287-5.125-5.127-5.125zm40 0c-2.84 0-5.125 2.285-5.125 5.125v21.75c0 2.84 2.285 5.125 5.125 5.125h21.75c2.84 0 5.125-2.285 5.125-5.125v-21.75c0-2.84-2.285-5.125-5.125-5.125zm-140 40c-2.84 0-5.125 2.285-5.125 5.125v21.75c0 2.84 2.285 5.125 5.125 5.125h21.75c2.84 0 5.125-2.285 5.125-5.125v-21.75c0-2.84-2.285-5.125-5.125-5.125zm40 0c-2.84 0-5.125 2.285-5.125 5.125v21.75c0 2.84 2.285 5.125 5.125 5.125h21.75c2.84 0 5.125-2.285 5.125-5.125v-21.75c0-2.84-2.285-5.125-5.125-5.125zm40 0c-2.84 0-5.125 2.285-5.125 5.125v21.75c0 2.84 2.285 5.125 5.125 5.125h21.75c2.84 0 5.125-2.285 5.125-5.125v-21.75c0-2.84-2.285-5.125-5.125-5.125zm40 0c-2.84 0-5.125 2.285-5.125 5.125v21.75c0 2.84 2.285 5.125 5.125 5.125h21.75c2.84 0 5.125-2.285 5.125-5.125v-21.75c0-2.84-2.285-5.125-5.125-5.125zm-99.996 40c-2.84 0-5.125 2.285-5.125 5.125v21.75c0 2.84 2.285 5.125 5.125 5.125h101.8c2.84 0 5.125-2.285 5.125-5.125v-21.75c0-2.84-2.285-5.125-5.125-5.125zm120 0c-2.84 0-5.125 2.287-5.125 5.127v21.74c0 2.84 2.285 5.127 5.125 5.127h21.75c2.84 0 5.125-2.287 5.125-5.127v-21.74c0-2.84-2.285-5.127-5.125-5.127zm-160 2e-3c-2.84 0-5.127 2.285-5.127 5.125v21.75c0 2.84 2.287 5.125 5.127 5.125h21.74c2.84 0 5.127-2.285 5.127-5.125v-21.75c0-2.84-2.287-5.125-5.127-5.125z" fill="#282828" opacity=".5" style="paint-order:markers fill stroke"/>
  <path transform="translate(2.429,-1.52)" d="m34.7 71.52c-2.84 0-5.125 2.285-5.125 5.125v21.74c0 2.84 2.285 5.127 5.125 5.127h21.75c2.84 0 5.125-2.287 5.125-5.127v-21.74c0-2.84-2.285-5.125-5.125-5.125zm40 2e-3c-2.84 0-5.125 2.285-5.125 5.125v21.75c0 2.84 2.285 5.125 5.125 5.125h21.75c2.84 0 5.125-2.285 5.125-5.125v-21.75c0-2.84-2.285-5.125-5.125-5.125zm40 0c-2.84 0-5.125 2.285-5.125 5.125v21.75c0 2.84 2.285 5.125 5.125 5.125h21.75c2.84 0 5.125-2.285 5.125-5.125v-21.75c0-2.84-2.285-5.125-5.125-5.125zm40 2e-3c-2.84 0-5.127 2.285-5.127 5.125v21.75c0 2.84 2.287 5.125 5.127 5.125h21.74c2.84 0 5.127-2.285 5.127-5.125v-21.75c0-2.84-2.287-5.125-5.127-5.125zm40 0c-2.84 0-5.125 2.285-5.125 5.125v21.75c0 2.84 2.285 5.125 5.125 5.125h21.75c2.84 0 5.125-2.285 5.125-5.125v-21.75c0-2.84-2.285-5.125-5.125-5.125zm-140 40c-2.84 0-5.125 2.285-5.125 5.125v21.75c0 2.84 2.285 5.125 5.125 5.125h21.75c2.84 0 5.125-2.285 5.125-5.125v-21.75c0-2.84-2.285-5.125-5.125-5.125zm40 0c-2.84 0-5.125 2.285-5.125 5.125v21.75c0 2.84 2.285 5.125 5.125 5.125h21.75c2.84 0 5.125-2.285 5.125-5.125v-21.75c0-2.84-2.285-5.125-5.125-5.125zm40 0c-2.84 0-5.125 2.285-5.125 5.125v21.75c0 2.84 2.285 5.125 5.125 5.125h21.75c2.84 0 5.125-2.285 5.125-5.125v-21.75c0-2.84-2.285-5.125-5.125-5.125zm40 0c-2.84 0-5.125 2.285-5.125 5.125v21.75c0 2.84 2.285 5.125 5.125 5.125h21.75c2.84 0 5.125-2.285 5.125-5.125v-21.75c0-2.84-2.285-5.125-5.125-5.125zm-99.996 40c-2.84 0-5.125 2.285-5.125 5.125v21.75c0 2.84 2.285 5.125 5.125 5.125h101.8c2.84 0 5.125-2.285 5.125-5.125v-21.75c0-2.84-2.285-5.125-5.125-5.125zm120 0c-2.84 0-5.125 2.287-5.125 5.127v21.74c0 2.84 2.285 5.127 5.125 5.127h21.75c2.84 0 5.125-2.287 5.125-5.127v-21.74c0-2.84-2.285-5.127-5.125-5.127zm-160 2e-3c-2.84 0-5.127 2.285-5.127 5.125v21.75c0 2.84 2.287 5.125 5.127 5.125h21.74c2.84 0 5.127-2.285 5.127-5.125v-21.75c0-2.84-2.287-5.125-5.127-5.125z" fill="#ebdbb2" style="paint-order:markers fill stroke"/>
  <path d="m37.129 70c-2.84 0-5.125 2.285-5.125 5.125v4.9961c0-2.84 2.285-5.125 5.125-5.125h21.75c2.84 0 5.125 2.285 5.125 5.125v-4.9961c0-2.84-2.285-5.125-5.125-5.125zm40 2e-3c-2.84 0-5.125 2.285-5.125 5.125v4.9961c0-2.84 2.285-5.125 5.125-5.125h21.75c2.84 0 5.125 2.285 5.125 5.125v-4.9961c0-2.84-2.285-5.125-5.125-5.125zm40 0c-2.84 0-5.125 2.285-5.125 5.125v4.9961c0-2.84 2.285-5.125 5.125-5.125h21.75c2.84 0 5.125 2.285 5.125 5.125v-4.9961c0-2.84-2.285-5.125-5.125-5.125zm40 2e-3c-2.84 0-5.127 2.285-5.127 5.125v4.996c0-2.84 2.287-5.125 5.127-5.125h21.74c2.84 0 5.127 2.285 5.127 5.125v-4.9961c0-2.84-2.287-5.125-5.127-5.125zm40 0c-2.84 0-5.125 2.285-5.125 5.125v4.996c0-2.84 2.285-5.125 5.125-5.125h21.75c2.84 0 5.125 2.285 5.125 5.125v-4.9961c0-2.84-2.285-5.125-5.125-5.125zm-140 40c-2.84 0-5.125 2.285-5.125 5.125v4.9961c0-2.84 2.285-5.125 5.125-5.125h21.75c2.84 0 5.125 2.285 5.125 5.125v-4.9961c0-2.84-2.285-5.125-5.125-5.125zm40 0c-2.84 0-5.125 2.285-5.125 5.125v4.9961c0-2.84 2.285-5.125 5.125-5.125h21.75c2.84 0 5.125 2.285 5.125 5.125v-4.9961c0-2.84-2.285-5.125-5.125-5.125zm40 0c-2.84 0-5.125 2.285-5.125 5.125v4.9961c0-2.84 2.285-5.125 5.125-5.125h21.75c2.84 0 5.125 2.285 5.125 5.125v-4.9961c0-2.84-2.285-5.125-5.125-5.125zm40 0c-2.84 0-5.125 2.285-5.125 5.125v4.9961c0-2.84 2.285-5.125 5.125-5.125h21.75c2.84 0 5.125 2.285 5.125 5.125v-4.9961c0-2.84-2.285-5.125-5.125-5.125zm-99.996 40c-2.84 0-5.125 2.285-5.125 5.125v4.9961c0-2.84 2.285-5.125 5.125-5.125h101.8c2.84 0 5.125 2.285 5.125 5.125v-4.9961c0-2.84-2.285-5.125-5.125-5.125zm120 0c-2.84 0-5.125 2.287-5.125 5.127v4.9961c0-2.84 2.285-5.127 5.125-5.127h21.75c2.84 0 5.125 2.287 5.125 5.127v-4.9961c0-2.84-2.285-5.127-5.125-5.127zm-160 2e-3c-2.84 0-5.127 2.285-5.127 5.125v4.9961c0-2.84 2.287-5.125 5.127-5.125h21.74c2.84 0 5.127 2.285 5.127 5.125v-4.9961c0-2.84-2.287-5.125-5.127-5.125z" fill="#fbf1c7" opacity=".6" style="paint-order:markers fill stroke"/>
  <g transform="translate(0 .0497)" style="isolation:isolate">
    <path d="m250 124.82-29.932 0.32363c-81.008 0.87549-94.966 4.4497-96.093 80.376-0.34358 11.488-0.0783 22.956 0.4422 34.434 2.1e-4 4e-3 37.418 4e-3 37.687 4e-3 74.443 0 87.884-15.156 87.884-85.882z" fill="#282828" opacity=".3" stroke-width="1.0221" style="isolation:isolate"/>
    <path d="m250 126-28.95 0.3203c-78.35 0.8665-91.85 4.404-92.94 79.55-0.3323 11.37-0.0757 22.72 0.4277 34.08 1.9e-4 4e-3 36.19 4e-3 36.45 4e-3 72 0 85-15 85-85z" fill="url(#b-9-6)" style="isolation:isolate"/>
    <path d="m192.01 161.95c-16 0-32 8-40 24 8 16 24 24 40 24s32-8 40-24c-8-16-24-24-40-24zm0 8c8.749 0 15.98 7.256 16 15.98v0.016c-2e-3 8.74-7.258 16-16 16-8.736 0-15.99-7.251-16-15.98v-0.016c-6e-3 -8.745 7.271-16 16-16zm0 8c-4.423 0-8.007 3.576-8 8 1e-3 4.419 3.583 8 8 8 4.418 0 7.999-3.581 8-8-9e-3 -4.412-3.588-8-8-8z" fill="#282828" opacity=".3" style="isolation:isolate"/>
    <path d="m192.01 158.95c-16 0-32 8-40 24 8 16 24 24 40 24s32-8 40-24c-8-16-24-24-40-24zm0 8c8.749 0 15.98 7.256 16 15.98v0.016c-2e-3 8.74-7.258 16-16 16-8.736 0-15.99-7.251-16-15.98v-0.016c-6e-3 -8.745 7.271-16 16-16zm0 8c-4.423 0-8.007 3.576-8 8 1e-3 4.419 3.583 8 8 8 4.418 0 7.999-3.581 8-8-9e-3 -4.412-3.588-8-8-8z" fill="#ebdbb2" style="isolation:isolate"/>
    <path d="m192.01 158.97c-16 0-32 8-40 24 0.2528 0.50559 0.51469 1.0026 0.78321 1.4922 8.2291-15.005 23.722-22.508 39.217-22.508s30.988 7.503 39.217 22.508c0.26852-0.48961 0.53041-0.9866 0.7832-1.4922-8-16-24-24-40-24zm0 16c-4.423 0-8.007 3.576-8 8 1.2e-4 0.50826 0.0519 1.0044 0.14258 1.4863 0.69659-3.7056 3.9466-6.502 7.8574-6.502 3.9065 1e-5 7.153 2.8143 7.8535 6.5215 0.093-0.48798 0.14637-0.99077 0.14648-1.5059-9e-3 -4.412-3.588-8-8-8zm-15.924 9.4648c-0.0485 0.50093-0.0765 1.0072-0.0762 1.5195v0.0156c0.01 8.729 7.264 15.98 16 15.98 8.742 0 15.998-7.26 16-16v-0.0156c-1e-3 -0.49454-0.0317-0.98273-0.0781-1.4668-0.77599 8.0533-7.6867 14.498-15.922 14.498-8.2473 0-15.166-6.4637-15.924-14.531z" fill="#fbf1c7" opacity=".6" style="isolation:isolate"/>
  </g>
  <path d="m91 12c-72 0-85 15-85 87v56c0 70 13 85 85 85h74c72 0 85-15 85-85v-56c0-72-13-87-85-87zm0 4h74c68 0 80 15 80 83v56c0 66-12 81-80 81h-74c-68 0-80-15-80-81v-56c0-68 12-83 80-83z" fill="url(#linearGradient31)" style="isolation:isolate"/>
</svg>
