<svg width="256" height="256" version="1.1" xmlns="http://www.w3.org/2000/svg" xmlns:xlink="http://www.w3.org/1999/xlink">
  <linearGradient id="b" x1=".5002" x2=".5002" y2="1" gradientTransform="matrix(244,0,0,228,5.981,12)" gradientUnits="userSpaceOnUse">
    <stop stop-color="#ebdbb2" offset="0"/>
    <stop stop-color="#d5c4a1" offset="1"/>
  </linearGradient>
  <defs>
    <linearGradient id="linearGradient31" x1=".5002" x2=".5002" y2="1" gradientTransform="matrix(244,0,0,228,5.988,12)" gradientUnits="userSpaceOnUse">
      <stop stop-color="#282828" stop-opacity=".1" offset="0"/>
      <stop stop-color="#bdae93" stop-opacity=".1" offset=".1"/>
      <stop stop-color="#d5c4a1" stop-opacity="0" offset=".7022"/>
      <stop stop-color="#bdae93" stop-opacity=".302" offset=".9"/>
      <stop stop-color="#282828" stop-opacity=".15" offset="1"/>
    </linearGradient>
  </defs>
  <path d="m165 12c72 0 85 15 85 87v56c0 70-13 85-85 85h-74c-72 0-85-15-85-85v-56c0-72 13-87 85-87z" fill="url(#b)" style="isolation:isolate"/>
  <path d="m46.548 162.96c-2.6182 0-4.7411 2.129-4.7411 4.7558v28.53c0 2.6268 2.1228 4.7558 4.7411 4.7558h66.368c2.6181 0 4.741-2.129 4.741-4.7558v-28.53c0-2.6267-2.1229-4.7558-4.741-4.7558zm96.536 0c-2.6181 0-4.741 2.129-4.741 4.7558v28.53c0 2.6268 2.1229 4.7558 4.741 4.7558h66.368c2.6181 0 4.7411-2.129 4.7411-4.7558v-28.53c0-2.6267-2.1229-4.7558-4.7411-4.7558z" fill="#ebdbb2" opacity=".6" stroke-width="1.0774" style="isolation:isolate"/>
  <path d="m46.548 157.99c-2.6182 0-4.7411 2.129-4.7411 4.7558v28.53c0 2.6268 2.1228 4.7558 4.7411 4.7558h66.368c2.6181 0 4.741-2.129 4.741-4.7558v-28.53c0-2.6267-2.1229-4.7558-4.741-4.7558zm96.536 0c-2.6181 0-4.741 2.129-4.741 4.7558v28.53c0 2.6268 2.1229 4.7558 4.741 4.7558h66.368c2.6181 0 4.7411-2.129 4.7411-4.7558v-28.53c0-2.6267-2.1229-4.7558-4.7411-4.7558z" fill="#504945" stroke-width="1.0774" style="isolation:isolate"/>
  <path d="m46.547 157.99c-2.6182 0-4.7402 2.1291-4.7402 4.7559v4.9668c0-2.6267 2.122-4.7559 4.7402-4.7559h66.369c2.6181 0 4.7402 2.1291 4.7402 4.7559v-4.9668c0-2.6267-2.1221-4.7559-4.7402-4.7559zm96.537 0c-2.6181 0-4.7402 2.1291-4.7402 4.7559v4.9668c0-2.6267 2.1221-4.7559 4.7402-4.7559h66.369c2.6181 0 4.7402 2.1291 4.7402 4.7559v-4.9668c0-2.6267-2.1221-4.7559-4.7402-4.7559z" fill="#282828" opacity=".3" stroke-width="1.0774" style="isolation:isolate"/>
  <path d="m108.11 86.05-30.824 68.197-5.1198-2.5252c-3.214-1.5849-6.986 0.84449-6.8475 4.4086l0.7807 20.077h-0.0021c0.13812 3.5533 4.0661 5.6365 7.1463 3.792l18.032-10.804c3.1971-1.9156 3.0273-6.5586-0.29882-8.1985l-5.3008-2.6136 30.946-68.464zm35.944 0-8.512 3.8699 30.946 68.466-5.2945 2.6115c-3.326 1.6398-3.4934 6.2828-0.2967 8.1985l18.03 10.804c3.0803 1.8445 7.0084-0.23868 7.1463-3.792l0.78071-20.077c0.1379-3.5641-3.6357-5.9934-6.8496-4.4086l-5.124 2.5273z" fill="#282828" opacity=".2" stroke-width="1.0774" style="isolation:isolate"/>
  <path d="m108.11 82.301-30.824 68.197-5.1198-2.5252c-3.214-1.5849-6.986 0.84449-6.8475 4.4086l0.7807 20.077h-0.0021c0.13812 3.5533 4.0661 5.6365 7.1463 3.792l18.032-10.804c3.1971-1.9156 3.0273-6.5586-0.29882-8.1985l-5.3008-2.6136 30.946-68.464zm35.944 1e-6 -8.512 3.8699 30.946 68.466-5.2945 2.6115c-3.326 1.6398-3.4934 6.2828-0.29671 8.1985l18.03 10.804c3.0803 1.8445 7.0084-0.23868 7.1463-3.792l0.78071-20.077c0.1379-3.5641-3.6357-5.9934-6.8496-4.4086l-5.124 2.5273z" fill="#458588" stroke-width="1.0774" style="isolation:isolate"/>
  <path d="m108.11 82.3-30.824 68.197-5.1191-2.5254c-3.214-1.5849-6.9862 0.84412-6.8476 4.4082l0.10156 2.6035c0.60439-2.9078 3.8916-4.6693 6.7461-3.2617l5.1191 2.5254 30.824-68.197 7.1055 3.2305 1.4062-3.1094zm35.945 0-8.5137 3.8711 1.4062 3.1094 7.1074-3.2305 30.826 68.199 5.123-2.5273c2.8537-1.4072 6.1419 0.35307 6.748 3.2598l0.10157-2.6016c0.1379-3.5641-3.6357-5.9931-6.8496-4.4082l-5.123 2.5273zm-56.992 73.018-1.3867 3.0664 5.3008 2.6133c1.0551 0.5202 1.79 1.3435 2.2031 2.2852 0.93168-2.1498 0.17817-4.8611-2.2031-6.0352zm78.039 2e-3 -3.9082 1.9277c-2.3812 1.174-3.1334 3.8854-2.2012 6.0352 0.41282-0.94167 1.1461-1.765 2.2012-2.2852l5.2949-2.6113z" fill="#ebdbb2" opacity=".2" stroke-width="1.0774" style="isolation:isolate"/>
  <path d="m161.18 60.957h-66.369c-2.6181 0-4.7406 2.129-4.7406 4.7553v28.532c0 2.6262 2.1225 4.7552 4.7406 4.7552h66.369c2.6181 0 4.7406-2.129 4.7406-4.7552v-28.532c0-2.6263-2.1225-4.7553-4.7406-4.7553z" fill="#282828" opacity=".15" stroke-width="1.0774" style="isolation:isolate"/>
  <path d="m161.18 55.968h-66.369c-2.6181 0-4.7406 2.129-4.7406 4.7553v28.532c0 2.6262 2.1225 4.7552 4.7406 4.7552h66.369c2.6181 0 4.7406-2.129 4.7406-4.7552v-28.532c0-2.6263-2.1225-4.7553-4.7406-4.7553z" fill="#504945" stroke-width="1.0774" style="isolation:isolate"/>
  <path d="m94.816 55.968c-2.6181 0-4.7422 2.1276-4.7422 4.7539v4.9902c0-2.6263 2.1241-4.7559 4.7422-4.7559h66.367c2.6181 0 4.7422 2.1295 4.7422 4.7559v-4.9902c0-2.6263-2.1241-4.7539-4.7422-4.7539z" fill="#ebdbb2" opacity=".1" stroke-width="1.0774" style="isolation:isolate"/>
  <path d="m91 12c-72 0-85 15-85 87v56c0 70 13 85 85 85h74c72 0 85-15 85-85v-56c0-72-13-87-85-87zm0 4h74c68 0 80 15 80 83v56c0 66-12 81-80 81h-74c-68 0-80-15-80-81v-56c0-68 12-83 80-83z" fill="url(#linearGradient31)" style="isolation:isolate"/>
</svg>
