<svg width="256" height="256" style="isolation:isolate" version="1.1" xmlns="http://www.w3.org/2000/svg" xmlns:xlink="http://www.w3.org/1999/xlink">
  <g filter="url(#a)">
    <linearGradient id="b" x1=".567" x2=".567" y1="1.071" y2="-.071" gradientTransform="matrix(244.6 0 0 228.3 5.676 11.95)" gradientUnits="userSpaceOnUse">
      <stop stop-color="#3c3836" offset="0"/>
      <stop stop-color="#282828" offset="1"/>
    </linearGradient>
    <path d="m165.7 11.95c74.06 0 84.64 10.56 84.64 84.54v59.25c0 73.99-10.58 84.54-84.64 84.54h-75.37c-74.06 0-84.64-10.56-84.64-84.54v-59.25c0-73.99 10.58-84.54 84.64-84.54z" fill="url(#b)"/>
  </g>
  <defs>
    <linearGradient id="linearGradient15827">
      <stop stop-color="#fb4934" stop-opacity=".5012" offset="0"/>
      <stop stop-color="#fb4934" offset="1"/>
    </linearGradient>
    <linearGradient id="linearGradient12359">
      <stop stop-color="#282828" stop-opacity=".203" offset="0"/>
      <stop stop-color="#282828" stop-opacity="0" offset="1"/>
    </linearGradient>
    <linearGradient id="linearGradient9917">
      <stop stop-color="#282828" stop-opacity=".1975" offset="0"/>
      <stop stop-color="#282828" stop-opacity=".151" offset=".2372"/>
      <stop stop-color="#282828" stop-opacity=".09749" offset=".7956"/>
      <stop stop-color="#282828" stop-opacity="0" offset=".873"/>
      <stop stop-color="#282828" stop-opacity="0" offset="1"/>
    </linearGradient>
    <radialGradient id="radialGradient6298" cx="33.6" cy="16.56" r="27.3" gradientTransform="matrix(1.561 0 6.339e-5 1.538 -18.58 -6.067)" gradientUnits="userSpaceOnUse">
      <stop stop-color="#ebdbb2" offset=".4076"/>
      <stop stop-color="#d5c4a1" offset="1"/>
    </radialGradient>
    <linearGradient id="linearGradient3390" x1="14.3" x2="18.87" y1="1.159" y2="16.12" gradientTransform="matrix(2.837 0 0 2.837 31.91 37.22)" gradientUnits="userSpaceOnUse" xlink:href="#linearGradient9917"/>
    <linearGradient id="linearGradient2778" x1="16.09" x2="16.7" y1="3.178" y2="12.9" gradientTransform="matrix(2.837 0 0 2.837 31.91 37.22)" gradientUnits="userSpaceOnUse" xlink:href="#linearGradient12359"/>
    <linearGradient id="linearGradient14056" x1="14.3" x2="18.87" y1="1.159" y2="16.12" gradientTransform="matrix(-2.837 0 0 2.837 224 37.22)" gradientUnits="userSpaceOnUse" xlink:href="#linearGradient9917"/>
    <linearGradient id="linearGradient14536" x1="16.09" x2="16.7" y1="3.178" y2="12.9" gradientTransform="matrix(-2.837 0 0 2.837 224 37.22)" gradientUnits="userSpaceOnUse" xlink:href="#linearGradient12359"/>
    <radialGradient id="radialGradient14897" cx="33.86" cy="28.86" r="1.348" gradientTransform="matrix(1.652 0 0 2.329 -22.06 -38.36)" gradientUnits="userSpaceOnUse">
      <stop stop-color="#cc241d" stop-opacity=".394" offset="0"/>
      <stop stop-color="#cc241d" offset="1"/>
    </radialGradient>
    <linearGradient id="linearGradient15829" x1="16.2" x2="21.04" y1="9.725" y2="14.63" gradientUnits="userSpaceOnUse" xlink:href="#linearGradient15827"/>
    <radialGradient id="radialGradient4940" cx="128" cy="211.8" r="77.44" gradientTransform="matrix(1.076 0 0 .08982 -9.766 192.8)" gradientUnits="userSpaceOnUse">
      <stop stop-color="#1d2021" offset="0"/>
      <stop stop-color="#1d2021" stop-opacity=".05" offset="1"/>
    </radialGradient>
  </defs>
  <path d="m87.22 11.83h81.55v228.3h-81.55z" fill="#504945" opacity=".1"/>
  <path d="m5.676 126.1v29.63c0 73.99 10.58 84.54 84.64 84.54h75.37c74.06 0 84.64-10.56 84.64-84.54v-29.63h-244.6z" fill="#504945" opacity=".1"/>
  <g opacity=".4">
    <linearGradient id="c" x1=".517" x2=".517" y2="1" gradientTransform="matrix(244.6 0 0 228.3 5.68 11.95)" gradientUnits="userSpaceOnUse">
      <stop stop-color="#ebdbb2" offset="0"/>
      <stop stop-color="#ebdbb2" stop-opacity=".098" offset=".125"/>
      <stop stop-opacity=".098" offset=".925"/>
      <stop stop-opacity=".498" offset="1"/>
    </linearGradient>
    <path d="m165.1 11.95c4.328-0.01 8.656 0.04 12.98 0.138 3.875 0.078 7.75 0.226 11.63 0.452 3.453 0.196 6.905 0.481 10.35 0.854 3.06 0.335 6.118 0.786 9.148 1.346a80.47 80.47 0 0 1 8.046 1.916 53.64 53.64 0 0 1 7.023 2.584 40.41 40.41 0 0 1 6.06 3.35 35.18 35.18 0 0 1 5.134 4.215 35.07 35.07 0 0 1 4.22 5.119 41.69 41.69 0 0 1 3.363 6.042 55.98 55.98 0 0 1 2.597 7.005 80.22 80.22 0 0 1 1.918 8.037 124.4 124.4 0 0 1 1.348 9.127c0.374 3.439 0.659 6.878 0.856 10.33 0.226 3.861 0.373 7.732 0.462 11.59 0.088 4.323 0.138 8.646 0.128 12.96v58.21c0.01 4.324-0.04 8.637-0.128 12.96a325.2 325.2 0 0 1-0.462 11.59 201 201 0 0 1-0.856 10.33 124.7 124.7 0 0 1-1.348 9.137 80.69 80.69 0 0 1-1.918 8.027 55.41 55.41 0 0 1-2.597 7.005 41.18 41.18 0 0 1-3.364 6.042 34.56 34.56 0 0 1-4.22 5.119 35.18 35.18 0 0 1-5.134 4.215 40.41 40.41 0 0 1-6.059 3.35 55.14 55.14 0 0 1-7.023 2.594 77.81 77.81 0 0 1-8.046 1.906 120 120 0 0 1-9.148 1.346c-3.443 0.373-6.895 0.658-10.35 0.854-3.875 0.226-7.75 0.374-11.63 0.462-4.328 0.088-8.656 0.138-12.98 0.128h-74.13c-4.328 0.01-8.656-0.04-12.98-0.128a328.4 328.4 0 0 1-11.63-0.462 203 203 0 0 1-10.35-0.854 120 120 0 0 1-9.148-1.346 77.81 77.81 0 0 1-8.046-1.906 55.14 55.14 0 0 1-7.023-2.594 40.41 40.41 0 0 1-6.06-3.35 35.18 35.18 0 0 1-5.134-4.215 34.56 34.56 0 0 1-4.22-5.119 41.18 41.18 0 0 1-3.363-6.042 55.42 55.42 0 0 1-2.597-7.005 80.68 80.68 0 0 1-1.918-8.027 124.7 124.7 0 0 1-1.348-9.137 201 201 0 0 1-0.856-10.33 325.2 325.2 0 0 1-0.462-11.59 569.2 569.2 0 0 1-0.128-12.96v-58.21c-0.01-4.314 0.04-8.637 0.128-12.96 0.089-3.86 0.236-7.732 0.462-11.59 0.197-3.448 0.482-6.887 0.856-10.33 0.335-3.055 0.787-6.101 1.348-9.127a80.22 80.22 0 0 1 1.918-8.037 55.98 55.98 0 0 1 2.597-7.005 41.7 41.7 0 0 1 3.364-6.042 35.07 35.07 0 0 1 4.22-5.119 35.18 35.18 0 0 1 5.134-4.215 40.41 40.41 0 0 1 6.059-3.35 53.64 53.64 0 0 1 7.023-2.584 80.47 80.47 0 0 1 8.046-1.916 125.1 125.1 0 0 1 9.148-1.346c3.443-0.373 6.895-0.658 10.35-0.854 3.875-0.226 7.75-0.374 11.63-0.452 4.328-0.098 8.656-0.148 12.98-0.138zm0.01 4.009c4.298-0.01 8.597 0.039 12.9 0.127 3.827 0.089 7.653 0.236 11.48 0.452 3.383 0.197 6.766 0.472 10.13 0.845 2.971 0.315 5.932 0.747 8.863 1.297a75.94 75.94 0 0 1 7.653 1.818 50.49 50.49 0 0 1 6.501 2.397 37.04 37.04 0 0 1 5.47 3.026 30.38 30.38 0 0 1 4.524 3.724 31.05 31.05 0 0 1 3.738 4.519 37.27 37.27 0 0 1 3.03 5.443 51.46 51.46 0 0 1 2.4 6.494 75.56 75.56 0 0 1 1.829 7.634c0.54 2.928 0.974 5.875 1.298 8.842 0.374 3.36 0.65 6.73 0.846 10.11 0.217 3.822 0.374 7.634 0.453 11.46 0.088 4.293 0.137 8.577 0.137 12.87v58.21c0 4.293-0.049 8.577-0.137 12.87a317.5 317.5 0 0 1-0.453 11.46c-0.196 3.38-0.472 6.75-0.846 10.12a121.7 121.7 0 0 1-1.298 8.832 75.56 75.56 0 0 1-1.83 7.634 50.9 50.9 0 0 1-2.4 6.494 36.77 36.77 0 0 1-3.03 5.443 30.62 30.62 0 0 1-3.737 4.53 30.94 30.94 0 0 1-4.525 3.713 37.04 37.04 0 0 1-5.469 3.026 49.07 49.07 0 0 1-6.501 2.397 75.94 75.94 0 0 1-7.653 1.818c-2.931 0.55-5.892 0.982-8.863 1.306-3.364 0.364-6.747 0.649-10.13 0.836-3.827 0.216-7.653 0.373-11.48 0.452-4.298 0.098-8.597 0.137-12.9 0.137h-74.15c-4.298 0-8.597-0.04-12.9-0.137a320.1 320.1 0 0 1-11.48-0.452 193.7 193.7 0 0 1-10.13-0.836 116.7 116.7 0 0 1-8.863-1.306 75.94 75.94 0 0 1-7.653-1.818 49.07 49.07 0 0 1-6.501-2.397 37.04 37.04 0 0 1-5.47-3.026 30.94 30.94 0 0 1-4.524-3.714 30.62 30.62 0 0 1-3.738-4.529 36.77 36.77 0 0 1-3.03-5.443 50.9 50.9 0 0 1-2.4-6.494 75.57 75.57 0 0 1-1.829-7.634 121.7 121.7 0 0 1-1.298-8.832c-0.374-3.37-0.65-6.74-0.846-10.12a317.5 317.5 0 0 1-0.453-11.46 623.8 623.8 0 0 1-0.137-12.87v-58.21c0-4.293 0.049-8.577 0.137-12.87 0.079-3.822 0.236-7.634 0.453-11.46 0.197-3.38 0.472-6.75 0.846-10.11 0.324-2.967 0.757-5.914 1.298-8.842a75.57 75.57 0 0 1 1.83-7.634 51.46 51.46 0 0 1 2.4-6.494 37.27 37.27 0 0 1 3.03-5.443 31.05 31.05 0 0 1 3.737-4.52 30.38 30.38 0 0 1 4.525-3.723 37.04 37.04 0 0 1 5.469-3.026 50.49 50.49 0 0 1 6.501-2.397 75.94 75.94 0 0 1 7.653-1.818c2.931-0.55 5.892-0.982 8.863-1.297 3.364-0.373 6.747-0.648 10.13-0.845a344.7 344.7 0 0 1 11.48-0.452c4.298-0.088 8.597-0.137 12.9-0.127z" fill="url(#c)" fill-rule="evenodd"/>
  </g>
  <g transform="matrix(.9024 0 0 .9024 12.52 10.95)">
    <path d="m211.3 211.8a83.36 6.956 0 0 1-83.36 6.956 83.36 6.956 0 0 1-83.36-6.956 83.36 6.956 0 0 1 83.36-6.956 83.36 6.956 0 0 1 83.36 6.956z" fill="url(#radialGradient4940)" stroke-dashoffset="64" stroke-linecap="square" stroke-width=".514" style="isolation:isolate"/>
    <path transform="matrix(2.837 0 0 2.837 31.91 37.22)" d="m16.17 1.223c-5.738 0.4987-9.511 30.56-9.608 47.9 0.219 7.438 6.346 12.15 13.32 12.14 9.661-0.05471 18.28 0.0035 27.95 0 6.978 0.01265 13.1-4.7 13.32-12.14-0.09674-17.34-3.87-47.4-9.608-47.9-3.101 0.6544-6.227 7.524-6.874 11.03-7.393-0.7908-14.79-0.6995-21.64 0-0.6472-3.506-3.774-10.38-6.874-11.03z" fill="url(#radialGradient6298)" style="isolation:isolate"/>
    <g fill="#928374">
      <path class="UnoptimicedTransforms" transform="matrix(2.837 0 0 2.837 31.91 37.22)" d="m8.61 30.86c-0.716 0.2969-2.364 0.8934-3.853 0.5717-0.3826-0.0982-0.3666-0.7698 0.1395-0.7575 1.2 0.1409 2.229 0.06187 3.521-0.4694 0.3257-0.1153 0.6323 0.4212 0.1926 0.6552zm50.53 0c0.716 0.2969 2.364 0.8934 3.853 0.5717 0.3826-0.0982 0.3666-0.7698-0.1395-0.7575-1.2 0.1409-2.229 0.06187-3.521-0.4694-0.3257-0.1153-0.6323 0.4212-0.1926 0.6552z" style="isolation:isolate"/>
      <path class="UnoptimicedTransforms" transform="matrix(2.837 0 0 2.837 31.91 37.22)" d="m8.534 29.16c-1.903 0.143-3.31 0.137-4.536-0.4394-0.3532-0.1768-0.2371-0.7527 0.255-0.6337 1.24 0.378 2.14 0.5595 4.218 0.357 0.3427-0.04385 0.5428 0.5804 0.06351 0.7162zm50.66 0c1.903 0.143 3.31 0.137 4.536-0.4394 0.3532-0.1768 0.2371-0.7527-0.255-0.6337-1.24 0.378-2.14 0.5595-4.218 0.357-0.3427-0.04385-0.5428 0.5804-0.06351 0.7162z" style="isolation:isolate"/>
      <path class="UnoptimicedTransforms" transform="matrix(2.837 0 0 2.837 31.91 37.22)" d="m3.844 25.72c1.789 0.09963 2.867 0.4872 4.988 1.027 0.4337 0.19 0.219 0.8054-0.2347 0.7038-2.117-0.6175-3.028-0.9448-4.801-1.014-0.3454-0.0096-0.4466-0.6572 0.04786-0.7174zm60.04 0c-1.789 0.09963-2.867 0.4872-4.988 1.027-0.4337 0.19-0.219 0.8054 0.2347 0.7038 2.117-0.6175 3.028-0.9448 4.801-1.014 0.3454-0.0096 0.4466-0.6572-0.04786-0.7174z" style="isolation:isolate"/>
    </g>
    <g stroke-dashoffset="64" stroke-linecap="square">
      <path class="UnoptimicedTransforms" transform="matrix(2.837 0 0 2.837 31.91 37.22)" d="m30.41 25.66c-0.2168 3.533-3.369 6.587-6.912 6.63-3.422 0.04191-5.841-3.163-5.32-6.664 0.4299-2.887 2.894-5.968 6.435-6.194 4.115-0.263 5.996 2.977 5.796 6.227zm6.914 0c0.2168 3.533 3.369 6.587 6.912 6.63 3.422 0.04191 5.841-3.163 5.32-6.664-0.4299-2.887-2.894-5.968-6.435-6.194-4.115-0.263-5.996 2.977-5.796 6.227z" fill="#98971a" stroke-width=".1502" style="isolation:isolate"/>
      <path class="UnoptimicedTransforms" transform="matrix(2.837 0 0 2.837 31.91 37.22)" d="m30.51 25.26c-0.1855 3.914-3.304 7-6.948 7.017-3.697-0.8173-4.975-3.838-4.565-6.708 0.5199-2.71 2.212-5.107 5.67-6.149 3.413-0.3384 5.997 2.588 5.843 5.841zm6.707 0c0.1855 3.914 3.304 7 6.948 7.017 3.697-0.8173 4.975-3.838 4.565-6.708-0.5199-2.71-2.212-5.107-5.67-6.149-3.413-0.3384-5.997 2.588-5.843 5.841z" fill="#b8bb26" stroke-width=".1494" style="isolation:isolate"/>
      <path class="UnoptimicedTransforms" transform="matrix(2.837 0 0 2.837 31.91 37.22)" d="m29.35 25.45c0 2.2-1.792 3.982-4.002 3.982-2.21 0-4.002-1.783-4.002-3.982s1.792-3.982 4.002-3.982c2.21 0 4.002 1.783 4.002 3.982zm9.025 0c0 2.2 1.792 3.982 4.002 3.982 2.21 0 4.002-1.783 4.002-3.982s-1.792-3.982-4.002-3.982c-2.21 0-4.002 1.783-4.002 3.982z" fill="#282828" stroke-width=".1663" style="isolation:isolate"/>
    </g>
    <path class="UnoptimicedTransforms" transform="matrix(2.837 0 0 2.837 31.91 37.22)" d="m26.39 23.04c0 0.5581-0.4187 1.011-0.9351 1.011s-0.9351-0.4525-0.9351-1.011 0.4187-1.011 0.9351-1.011 0.9351 0.4525 0.9351 1.011zm14.95 0c0 0.5581 0.4187 1.011 0.9351 1.011s0.9351-0.4525 0.9351-1.011-0.4187-1.011-0.9351-1.011-0.9351 0.4525-0.9351 1.011z" fill="#ebdbb2" stroke-dashoffset="64" stroke-linecap="square" stroke-width=".1459" style="isolation:isolate"/>
    <path d="m128 70.28c-9.956 0.05533-20.34 0.6249-30.69 1.702-1.836-9.945-10.71-29.43-19.5-31.29-9.6 1.431-15.87 26.58-19.63 49.98 10.7-7.242 31.21-20.5 69.82-20.39z" fill="url(#linearGradient3390)" style="isolation:isolate"/>
    <path d="m128 70.28c9.956 0.05533 20.34 0.6249 30.69 1.702 1.836-9.945 10.71-29.43 19.5-31.29 9.6 1.431 15.87 26.58 19.63 49.98-10.7-7.242-31.21-20.5-69.82-20.39z" fill="url(#linearGradient14056)" style="isolation:isolate"/>
    <path class="UnoptimicedTransforms" transform="matrix(2.837 0 0 2.837 31.91 37.22)" d="m14.34 14.21c1.545-0.713 4.852-1.465 4.852-1.465s-1.285-5.525-2.456-5.474c-1.657 0.06716-2.248 5.626-2.397 6.94z" fill="url(#linearGradient15829)" style="isolation:isolate"/>
    <path class="UnoptimicedTransforms" transform="matrix(-2.837 0 0 2.837 224.1 37.22)" d="m14.34 14.21c1.545-0.713 4.852-1.465 4.852-1.465s-1.285-5.525-2.456-5.474c-1.657 0.06716-2.248 5.626-2.397 6.94z" fill="url(#linearGradient15829)" style="isolation:isolate"/>
    <path d="m92.42 72.34c-8.472 1.703-16.28 2.926-25.25 7.945 0.9916-13.33 4.681-27.57 10.37-34.05 8.429 7.194 11.73 15.75 14.87 26.11z" fill="url(#linearGradient2778)" style="isolation:isolate"/>
    <path d="m163.5 72.34c8.472 1.703 16.28 2.926 25.25 7.945-0.9916-13.33-4.681-27.57-10.37-34.05-8.429 7.194-11.73 15.75-14.87 26.11z" fill="url(#linearGradient14536)" style="isolation:isolate"/>
    <rect x="128.6" y="179.7" width="27.38" height="5.058" rx="1.786" fill="#504945" stroke-dashoffset="64" stroke-linecap="square" stroke-width=".4284" style="isolation:isolate"/>
    <path d="m104.3 143.3c-0.6781 0.0161-1.45 0.4185-2.03 1.127-0.8853 1.08-0.9818 2.452-0.217 3.076l15.42 12.58-15.67 12.83c-0.7636 0.6255-0.6684 2.001 0.214 3.083 0.8825 1.082 2.208 1.451 2.972 0.8254 6.03-4.976 12.28-9.755 18.27-14.75 0.952-0.7834 1.009-3.028 4e-3 -3.879-5.996-4.846-12.02-9.731-18.02-14.59-0.2629-0.2145-0.5933-0.3119-0.9485-0.3035z" fill="#504945" stroke-dashoffset="64" stroke-linecap="square" stroke-width=".4272" style="isolation:isolate"/>
    <path d="m127 121.3s0.0483 0.8988-0.3457 2.707c-0.6469 1.722-1.666 4.421-5.711 4.486-4.438-0.1347-4.043-3.034-4.027-4.516-0.0649-0.27-0.1891-0.5411-0.7383-0.5606-0.4388-0.0156-0.6873 0.1785-0.7852 0.5762-0.3632 2.689 0.7803 5.916 5.602 5.926 5.029 0.01 6.314-3.207 6.977-4.68 0.6631 1.473 1.944 4.69 6.973 4.68 4.821-9e-3 5.965-3.237 5.602-5.926-0.0978-0.3977-0.3464-0.5918-0.7852-0.5762-0.5492 0.0194-0.6734 0.2905-0.7383 0.5606 0.0154 1.482 0.4102 4.381-4.027 4.516-4.045-0.0649-5.064-2.765-5.711-4.486-0.3941-1.808-0.3476-2.723-0.3476-2.723-0.5427 0.1825-0.9668 0.1953-0.9668 0.1953s-0.4077 2e-3 -0.9688-0.1797z" opacity=".3751" style="isolation:isolate"/>
    <path transform="matrix(2.837 0 0 2.837 31.91 37.22)" d="m33.86 29.69c-0.7657-0.0548-1.309-0.7448-1.342-0.9238-0.0761-0.38 0.7078-0.7393 1.342-0.7315zm0 0c0.7657-0.0548 1.309-0.7448 1.342-0.9238 0.0761-0.38-0.7078-0.7393-1.342-0.7315z" fill="url(#radialGradient14897)" stroke-dashoffset="64" stroke-linecap="square" stroke-width=".02646" style="isolation:isolate"/>
  </g>
</svg>
