<svg width="256" height="256" viewBox="0 0 67.73 67.73" xmlns="http://www.w3.org/2000/svg">
    <defs>
        <linearGradient id="e" x1="296" x2="296" y1="-212" y2="236" gradientUnits="userSpaceOnUse">
            <stop offset="0" stop-color="#ebdbb2"/>
            <stop offset=".125" stop-color="#ebdbb2" stop-opacity=".098"/>
            <stop offset=".925" stop-opacity=".098"/>
            <stop offset="1" stop-opacity=".498"/>
        </linearGradient>
        <clipPath id="d">
            <path d="M361.938-212C507.235-212 528-191.287 528-46.125v116.25C528 215.286 507.235 236 361.937 236H214.063C68.766 236 48 215.286 48 70.125v-116.25C48-191.287 68.765-212 214.063-212z" fill="#b16286"/>
        </clipPath>
        <linearGradient id="c" x1="24" x2="280" y1="28" y2="284" gradientTransform="matrix(.26458 0 0 .26458 -6.993 221.973)" gradientUnits="userSpaceOnUse">
            <stop offset="0" stop-color="#b16286"/>
            <stop offset="1" stop-color="#8f3f71"/>
        </linearGradient>
        <filter id="b" x="-.01" y="-.01" width="1.023" height="1.025" color-interpolation-filters="sRGB">
            <feGaussianBlur stdDeviation="1.16"/>
        </filter>
        <filter id="a" x="-.02" y="-.03" width="1.046" height="1.05" color-interpolation-filters="sRGB">
            <feGaussianBlur stdDeviation="2.32"/>
        </filter>
        <linearGradient id="l" x1="28.116" x2="37.933" y1="271.614" y2="271.557" gradientUnits="userSpaceOnUse">
            <stop offset="0" stop-opacity=".057"/>
            <stop offset=".491" stop-opacity=".943"/>
            <stop offset="1" stop-opacity="0"/>
        </linearGradient>
        <filter id="f" x="-.09" width="1.18" height="1.191" color-interpolation-filters="sRGB">
            <feGaussianBlur stdDeviation=".756"/>
        </filter>
        <filter id="g" x="-.09" width="1.18" height="1.191" color-interpolation-filters="sRGB">
            <feGaussianBlur stdDeviation=".756"/>
        </filter>
        <filter id="h" x="-.08" y="-.09" width="1.164" height="1.179" color-interpolation-filters="sRGB">
            <feGaussianBlur stdDeviation=".756"/>
        </filter>
        <filter id="i" x="-.05" y="-.07" width="1.101" height="1.143" color-interpolation-filters="sRGB">
            <feGaussianBlur stdDeviation=".756"/>
        </filter>
        <filter id="k" x="-.18" y="-.18" width="1.364" height="1.356" color-interpolation-filters="sRGB">
            <feGaussianBlur stdDeviation=".136"/>
        </filter>
        <filter id="j" x="-.18" y="-.18" width="1.364" height="1.356" color-interpolation-filters="sRGB">
            <feGaussianBlur stdDeviation=".136"/>
        </filter>
    </defs>
    <path transform="scale(.26458)" d="M5.568 101.37v56.124c0 9.073.162 17.173.588 24.402.213 3.615.493 7.012.85 10.204.357 3.191.793 6.18 1.32 8.974.527 2.795 1.145 5.396 1.867 7.819.723 2.422 1.548 4.664 2.49 6.74s2.004 3.982 3.192 5.736a32.67 32.67 0 0 0 3.965 4.813 32.686 32.686 0 0 0 4.818 3.959 38.848 38.848 0 0 0 5.744 3.187c2.078.941 4.323 1.765 6.748 2.486 2.425.722 5.03 1.34 7.827 1.866 2.797.526 5.787.961 8.982 1.318 3.195.357 6.597.635 10.215.848 7.236.425 15.345.586 24.426.586h73.937c9.081 0 17.19-.161 24.426-.586a195.72 195.72 0 0 0 10.213-.848c3.195-.357 6.185-.792 8.982-1.318 2.798-.527 5.403-1.144 7.828-1.866 2.425-.72 4.67-1.545 6.748-2.486 2.078-.941 3.988-2 5.745-3.187a32.67 32.67 0 0 0 4.816-3.96 32.682 32.682 0 0 0 3.967-4.812c1.188-1.754 2.246-3.66 3.19-5.736s1.77-4.318 2.491-6.74c.723-2.423 1.34-5.024 1.868-7.819a121.39 121.39 0 0 0 1.32-8.974c.357-3.192.637-6.589.85-10.204.425-7.229.587-15.33.587-24.402V101.37c0-72.58-10.382-82.937-83.03-82.937H88.6c-72.649 0-83.032 10.356-83.032 82.937z" filter="url(#a)" opacity=".2"/>
    <path transform="matrix(.26458 0 0 .26458 0 3.404)" d="M162.537 3.568c72.648 0 83.031 10.357 83.031 82.938v58.125c0 72.58-10.383 82.937-83.031 82.937H88.599c-72.648 0-83.031-10.357-83.031-82.937V86.506c0-72.581 10.383-82.938 83.031-82.938z" filter="url(#b)" opacity=".1"/>
    <path d="M43.005 233.614c19.221 0 21.968 2.74 21.968 21.944v15.38c0 19.203-2.747 21.943-21.968 21.943H23.442c-19.222 0-21.969-2.74-21.969-21.944v-15.379c0-19.204 2.747-21.944 21.969-21.944z" fill="url(#c)" transform="translate(0 -229.267)"/>
    <path transform="matrix(.1323 0 0 .1323 -4.877 32.393)" d="M361.938-212C507.235-212 528-191.287 528-46.125v116.25C528 215.286 507.235 236 361.937 236H214.063C68.766 236 48 215.286 48 70.125v-116.25C48-191.287 68.765-212 214.063-212z" clip-path="url(#d)" fill="none" opacity=".4" stroke-linecap="round" stroke-linejoin="round" stroke-width="8" stroke="url(#e)"/>
    <g transform="translate(.257 -227.885)">
        <ellipse transform="translate(-.015 .205)" cx="18.282" cy="258.231" rx="10.078" ry="9.507" fill="#282828" filter="url(#f)"/>
        <ellipse transform="translate(-.015 .205)" cx="20.216" cy="259.469" rx="10.078" ry="9.507" fill="#282828" filter="url(#g)"/>
        <ellipse transform="translate(-.015 .205)" cx="18.282" cy="258.231" rx="10.078" ry="9.507" fill="#282828"/>
        <g transform="matrix(-1 0 0 1 65.947 .127)" fill="#282828" filter="url(#h)">
            <ellipse cx="18.282" cy="258.231" rx="10.078" ry="9.507"/>
            <ellipse cx="20.216" cy="259.469" rx="10.078" ry="9.507"/>
        </g>
        <ellipse transform="translate(-.015 .205)" cx="20.216" cy="259.469" rx="10.078" ry="9.507" fill="#ebdbb2"/>
        <path transform="translate(-.015 .205)" d="M50.884 261.577c0 2.6-.775 7.675-2.796 9.819-3.215 3.41-8.96 3.279-15.035 3.279-4.995 0-10.676.092-13.945-2.38-3.206-2.425-4.05-7.382-4.05-10.718 0-6.738 8.02-12.2 17.913-12.2s17.913 5.462 17.913 12.2z" fill="#282828" filter="url(#i)"/>
        <g transform="matrix(-1 0 0 1 65.947 .127)">
            <ellipse cx="18.282" cy="258.231" rx="10.078" ry="9.507" fill="#282828"/>
            <ellipse cx="20.216" cy="259.469" rx="10.078" ry="9.507" fill="#ebdbb2"/>
        </g>
        <path d="M50.869 261.782c0 2.6-.775 7.674-2.796 9.818-3.215 3.411-8.96 3.28-15.035 3.28-4.995 0-10.676.092-13.945-2.38-3.206-2.425-4.05-7.382-4.05-10.718 0-6.738 8.02-12.2 17.913-12.2s17.913 5.462 17.913 12.2z" fill="#ebdbb2"/>
        <g transform="translate(.1 -.01)">
            <ellipse cx="23.707" cy="263.697" rx="4.448" ry="4.822" fill="#282828" opacity=".637"/>
            <ellipse cx="23.299" cy="263.616" rx="4.448" ry="4.822" fill="#ebdbb2"/>
            <ellipse cx="23.135" cy="263.031" rx="2.53" ry="2.469" opacity=".637"/>
            <ellipse cx="24.564" cy="261.318" rx=".898" ry=".918" fill="#ebdbb2" filter="url(#j)" opacity=".5"/>
            <g transform="translate(19.178 .245)">
                <ellipse transform="scale(-1)" cx="-22.913" cy="-263.697" rx="4.448" ry="4.822" fill="#282828" opacity=".637"/>
                <ellipse cx="23.299" cy="263.616" rx="4.448" ry="4.822" fill="#ebdbb2"/>
                <ellipse cx="23.135" cy="263.031" rx="2.53" ry="2.469" opacity=".637"/>
                <ellipse cx="24.564" cy="261.318" rx=".898" ry=".918" fill="#ebdbb2" filter="url(#k)" opacity=".5"/>
            </g>
        </g>
        <path d="M34.107 249.66c-.388-.016-.757-.078-1.15-.078-.562 0-1.091.077-1.64.112-1.653 2.005-2.688 7.3-2.688 11.91 0 5.802.604 8.929 3.998 8.956 3.64.03 4.448-3.194 4.448-8.997 0-4.634-1.227-9.932-2.968-11.902z" fill="#282828" opacity=".637"/>
        <path d="M34.69 270.057c.051-.03.118-.041.168-.074.294-.194.55-.437.776-.727.11-.141.19-.329.285-.493a.898 1.591 0 0 0 .006-.178.898 1.591 0 0 0-.897-1.592.898 1.591 0 0 0-.898 1.592.898 1.591 0 0 0 .56 1.472zM30.118 269.499c.144.164.28.34.453.466.142.103.322.158.485.234a.898 1.591 0 0 0 .715-1.557.898 1.591 0 0 0-.898-1.591.898 1.591 0 0 0-.898 1.591.898 1.591 0 0 0 .143.857z" fill="#282828"/>
        <path d="M28.823 271.39s.459.567.746.716.774.201.889.172c.114-.028.264-.007.544-.172.28-.164.748-.789 1.004-.946s.258-.115.402-.144c.143-.028.912-.07 1.176 0s.23.093.401.23.38.46.574.63.315.402.573.402.54.082.86-.028c.32-.11.947-.689.947-.689" fill="none" stroke-linecap="round" stroke-width=".265" stroke="url(#l)"/>
    </g>
</svg>
