<svg width="256" height="256" version="1.1" xmlns="http://www.w3.org/2000/svg">
  <defs>
    <linearGradient id="linearGradient31" x1=".5002" x2=".5002" y2="1" gradientTransform="matrix(244,0,0,228,5.986,12)" gradientUnits="userSpaceOnUse">
      <stop stop-color="#ebdbb2" stop-opacity=".2" offset="0"/>
      <stop stop-color="#ebdbb2" stop-opacity=".05" offset=".1"/>
      <stop stop-opacity="0" offset=".7036"/>
      <stop stop-opacity=".1" offset=".8975"/>
      <stop stop-opacity=".2" offset="1"/>
    </linearGradient>
    <linearGradient id="linearGradient6" x1="140" x2="140" y1="12" y2="240" gradientUnits="userSpaceOnUse">
      <stop stop-color="#3c3836" offset="0"/>
      <stop stop-color="#3c3836" offset="1"/>
    </linearGradient>
  </defs>
  <path d="m165 12c72 0 85 15 85 87v56c0 70-13 85-85 85h-74c-72 0-85-15-85-85v-56c0-72 13-87 85-87z" fill="url(#linearGradient6)" style="isolation:isolate"/>
  <circle transform="scale(-1,1)" cx="-128.35" cy="129.6" r="80.395" fill="#282828" stroke-width="4.2307" style="isolation:isolate"/>
  <circle transform="matrix(2.971,0,0,2.971,-237.02,-94.388)" cx="122.8" cy="73.56" r="26.98" fill="#fe8019" stroke-width="1.038" style="isolation:isolate"/>
  <path transform="matrix(2.971,0,0,2.971,-237.02,-94.388)" d="m120.25 46.701c-3.233 0.2845-6.6481 1.2542-9.7581 2.8522 0.1357 0.4317-0.0222 0.91962-0.51874 1.3497-0.3359 0.2911-0.6113 0.7445-0.6113 1.009 0 0.809 0.7316 2.052 1.315 2.232 0.7763 0.2402 0.5151 1.068-0.4821 1.525-0.461 0.2121-1.028 0.8208-1.261 1.354-0.2324 0.5334-0.5764 1.061-0.7615 1.17-0.1851 0.1095-0.3372 0.5268-0.3372 0.9275 0 0.5596 0.2555 0.8309 1.096 1.167 0.602 0.2409 1.322 0.4163 1.602 0.39 1.606-0.1512 1.718 0.7844 0.3135 2.614-0.7459 0.9712-1.104 1.215-1.613 1.094-0.474-0.1139-0.7332 0.02013-0.9486 0.4901-0.2277 0.4968-0.5996 0.6659-1.599 0.7351-0.9826 0.06801-1.423 0.2676-1.792 0.8063-0.2687 0.3927-0.6573 0.7114-0.8642 0.7114s-0.693 0.2633-1.08 0.585c-0.7885 0.6548-1.096 0.7207-1.373 0.2924-0.3653-0.5666-1.154-0.2802-2.327 0.8426-1.037 0.9941-1.163 1.26-1.007 2.121 0.2784 1.534 1.11 2.895 2.061 3.37 0.829 0.4143 0.8451 0.459 0.3426 0.9907-0.2891 0.3059-0.7851 0.6337-1.101 0.7298-0.9133 0.2775-0.3992 0.6256 1.231 0.8326 1.668 0.2118 2.186 0.8171 1.407 1.642-0.4346 0.4598-0.4101 0.5453 0.2872 0.9828 1.363 0.8572 2.446 0.3321 1.167-0.5624-0.8221-0.5749-0.2474-0.8094 0.9591-0.3923 0.9614 0.3328 1.152 0.3139 1.721-0.1792 1.166-1.011 2.434 0.4841 1.368 1.613-0.6788 0.7182-0.4731 1.585 0.4057 1.705 0.3883 0.05292 1.195 0.4143 1.794 0.8036 0.5992 0.3894 1.253 0.7088 1.449 0.7088s0.753 0.395 1.236 0.8774c0.9795 0.9789 1.523 1.103 1.799 0.4136 0.3323-0.829 0.1986-1.257-0.6956-2.232-0.7119-0.7767-1.868-2.841-1.868-3.335 0-0.3057 1.176-0.04649 1.834 0.4032 0.4119 0.2814 1.078 0.6443 1.481 0.8089 0.4297 0.1757 0.8746 0.7206 1.077 1.318 0.3183 0.9353 0.4437 1.017 1.565 1.017h1.22l0.1844 2.192c0.222 2.637 0.4334 3.171 1.339 3.388 0.6667 0.1602 1.378 1.192 1.378 2 0 0.2146-0.4797 0.7402-1.065 1.167-0.726 0.5302-1.039 0.981-0.9907 1.423 0.0603 0.5518-0.0646 0.6377-0.8457 0.5797-0.5039-0.03746-1.377 0.1392-1.94 0.3926-0.6644 0.2995-1.385 0.3954-2.061 0.2741-0.7772-0.1397-1.041-0.0854-1.041 0.2186 0 0.2236-0.2715 0.6425-0.6033 0.9301-0.821 0.7114-0.4817 1.088 0.7772 0.8616 0.7826-0.1405 1.088-0.07803 1.222 0.2582 0.2872 0.7169-0.4409 1.742-1.118 1.573-0.4281-0.1071-0.6339 0.03881-0.7668 0.5454-0.0471 0.1794-0.13852 0.35935-0.23922 0.48905 1.39 0.528 2.8084 0.93844 4.2754 1.2343-0.1347-0.25869-0.2878-0.49209-0.4374-0.59779-0.6953-0.4917-0.2302-1.767 0.7272-1.998 0.9746-0.2342 0.821-0.8669-0.2398-0.988-0.9285-0.1061-1.919-1.046-1.607-1.529 0.2085-0.323 1.098-0.2759 2.895 0.1502 0.8119 0.1925 1.368-0.1936 3.249-2.253 1.09-1.192 1.926-1.689 2.845-1.689 0.3501 0 1.6-0.3221 2.78-0.7167 2.227-0.7449 3.097-0.7179 3.015 0.09485-0.1706 1.691 0.919 1.635 2.693-0.137 0.7393-0.7388 1.414-1.272 1.502-1.188 0.3393 0.3249-0.2709 1.907-0.9828 2.548-0.9021 0.8115-0.9469 1.324-0.1529 1.731 0.435 0.2229 0.6196 0.6759 0.6877 1.691l0.0923 1.386h1.128c0.3956 0 0.72519 0.08555 0.99019 0.1868 7.931-4.731 12.839-13.229 13.099-22.299-0.4128-0.882-0.39535-1.4144-0.0122-2.0144-0.0263-0.5052-0.0549-1.0205-0.1093-1.5225-0.246-0.01121-0.52625-0.01498-0.81485-3e-3 -1.359 0.05655-2.524-0.4793-2.524-1.162 0-0.1438-0.4821-0.7381-1.072-1.32-0.6685-0.6591-1.012-1.241-0.9116-1.544 0.0911-0.275-0.1058-0.7185-0.4532-1.02-0.3383-0.2932-0.6165-0.7655-0.6165-1.049 0-0.452-0.2877-0.5088-2.366-0.4585l-2.366 0.05797 0.0396 2.332c0.0702 4.084 0.6785 5.145 2.556 4.461 0.8592-0.3133 2.97-0.07606 3.57 0.4005 0.2171 0.1726 0.5315 0.7983 0.6983 1.392 0.1668 0.5929 0.7852 1.619 1.375 2.279 1.197 1.338 1.289 1.86 0.6033 3.431-0.598 1.371-1.242 1.212-1.115-0.2741l0.0949-1.106-1.012 0.1897c-0.5599 0.1054-1.262 0.5196-1.575 0.9275-0.4478 0.5814-0.6577 0.6673-0.9933 0.4005-0.2339-0.1859-0.4242-0.5784-0.4242-0.8695s-0.289-0.6152-0.6403-0.7219c-0.3513-0.1068-0.8328-0.6373-1.07-1.181-0.3792-0.8688-0.3698-1.134 0.0711-2.19 0.4473-1.07 0.4517-1.247 0.0396-1.642-0.378-0.3619-0.5728-0.3736-1.07-0.07638-0.4996 0.2988-0.7346 0.2767-1.328-0.1212-0.3966-0.266-1.088-0.4848-1.536-0.4848-0.9106 0-1.186-0.443-1.186-1.907 0-1.353-0.807-1.844-2.727-1.668-1.333 0.1227-1.627 0.03485-2.703-0.7931-0.664-0.511-1.713-1.742-2.335-2.738-0.621-0.9957-1.289-2.036-1.484-2.311-0.2811-0.3974-0.2127-0.7789 0.3373-1.863l0.693-1.363-1.465 0.1976c-2.607 0.3525-3.134 0.6904-2.013 1.291 0.4366 0.2339 0.4557 0.3542 0.1186 0.743-0.2208 0.2548-0.3247 0.6575-0.2292 0.8959 0.0956 0.2383-0.0252 0.7991-0.2688 1.246-0.2437 0.4473-0.4477 1.075-0.4559 1.397-0.0255 1.006-1.748 1.806-3.665 1.7-2.906-0.1603-3.141-0.1146-4.174 0.8432-1.29 1.198-1.457 1.755-0.8563 2.866 0.5825 1.078 1.615 1.509 3.404 1.421 1.6-0.07939 1.781 0.06185 1.414 1.12-0.311 0.898-1.356 1.244-2.063 0.6824-0.5451-0.4331-2.424-0.09838-3.001 0.5348-0.2417 0.2655-0.6003 0.9608-0.7957 1.544-0.3373 1.007-0.4355 1.068-1.947 1.214-1.508 0.1464-1.653 0.09816-2.738-0.9012-1.211-1.116-1.415-1.966-0.8326-3.436 0.2582-0.6502 0.4509-0.756 1.14-0.6297 1.368 0.2504 1.907-0.2252 1.907-1.686 0-0.7086-0.1377-1.371-0.3056-1.47-0.1679-0.09941-0.3056-0.4749-0.3056-0.8353s-0.1721-0.8237-0.3821-1.028c-0.306-0.297-0.2618-0.456 0.2266-0.801 0.3351-0.2367 0.8858-0.3961 1.222-0.3557 0.3367 0.04045 1.265-0.105 2.066-0.3215 1.156-0.3128 1.495-0.5489 1.652-1.157 0.2968-1.155 1.021-2.082 1.628-2.082 0.9595 0 0.9791-2.256 0.0475-5.536-0.1391-0.4848-0.5168-0.7934-1.187-0.9595-0.5417-0.1345-1.131-0.5041-1.31-0.8221-0.1764-0.318-0.5022-0.577-0.7222-0.577s-0.6498-0.2633-0.9538-0.585c-0.306-0.3238-0.9391-0.585-1.421-0.585-1.139 0-1.159-0.7849-0.0289-1.199 1.194-0.4375 3.052 0.1359 3.501 1.08 0.6092 1.281 1.285 0.746 1.502-1.188 0.2689-2.393 1.094-3.08 3.696-3.08h1.871l-0.8194-0.8194c-0.26389-0.25502-0.43961-0.57352-0.61077-0.89257zm9.5497 1.0082c-0.6255 0.6388-0.9189 0.7298-1.887 0.5823-1.689-0.2576-1.472 0.4225 0.3979 1.243 1.011 0.444 1.66 0.9502 1.881 1.462 1.066 2.471 1.799 3.801 2.169 3.936 0.7453 0.2739 1.189-0.2761 1.354-1.681 0.1898-1.612 0.7356-1.954 1.715-1.072 0.3802 0.3419 0.911 0.6218 1.181 0.6218 0.8368 0 1.457 0.3362 1.457 0.7904 0 0.2394 0.2824 0.8161 0.6297 1.284 0.5107 0.6867 0.8579 0.851 1.813 0.851 1.172 0 1.892 0.2193 3.359 1.03 0.0228 0.01255 0.0445 0.01716 0.0673 0.02918-3.559-4.478-8.4652-7.7301-13.984-9.2421 2e-3 4.15e-4 -0.10654 0.11817-0.15269 0.16538zm-33.974 25.733c-0.0018 0.03875 0.0011 0.07907-4.78e-4 0.1178-0.0047 1.647 0.16906 3.4787 0.50286 5.1847 0.9774 0.3983 1.268 0.23666 1.37-0.67304 0.0524-0.4701 0.2982-1.004 0.548-1.188 0.3858-0.2843 0.3163-0.4296-0.4742-0.9692-0.5118-0.3487-1.016-0.9589-1.12-1.355-0.1005-0.3819-0.4412-0.8014-0.8262-1.1173zm8.494 8.919c-0.2516-0.02646-0.556 0.1093-0.8932 0.4321-0.7135 0.6831-0.6058 2.056 0.2029 2.598 0.9262 0.6212 1.285 0.4402 1.402-0.7062 0.1444-1.414-0.1577-2.265-0.7114-2.323zm4.58 4.078c-0.2755 0.0093-0.579 0.2068-0.8827 0.6218-0.3222 0.4404-0.4106 1.008-0.2872 1.871 0.1518 1.06 0.0855 1.286-0.4691 1.57-0.7125 0.3651-0.8649 1.45-0.2819 2.008 0.5807 0.556 1.133 0.4107 1.333-0.3504 0.2842-1.084 1.871-1.212 2.956-0.2371 0.4619 0.4149 0.8406 0.6258 0.8406 0.4664 0-0.1593-0.4819-0.7376-1.07-1.284-0.9004-0.8356-1.067-1.192-1.067-2.268 0-1.52-0.4661-2.417-1.072-2.398zm1.574 7.626c-0.1373 0.04711-0.195 0.2182-0.195 0.5191 0 0.3045-0.1947 0.6242-0.4321 0.7114-0.3153 0.1157-0.3883 0.4816-0.2661 1.354 0.0229 0.1635 0.0289 0.3134 0.0369 0.4485 0.3817 0.2147 0.82406 0.44548 1.1201 0.59248-0.0185-0.4667 0.0697-1.05 0.31384-1.739 0.414-1.167 0.4289-1.461 0.0923-1.666-0.3167-0.1923-0.532-0.2685-0.6692-0.2213z" opacity=".4" stroke-width="1.038" style="isolation:isolate"/>
  <path transform="matrix(2.971,0,0,2.971,-237.02,-94.388)" d="m122.8 46.58c-14.901-1.16e-4 -26.98 12.079-26.98 26.98 0.0165 0.29901-0.01136 0.59773 0.01509 0.89603 0.48286-14.525 12.433-26.057 26.965-26.084 14.384 3.24e-4 26.268 11.285 26.976 25.652 0.0125-0.15461-6e-3 -0.30932 4e-3 -0.46412-2.5e-4 -14.901-12.08-26.98-26.98-26.98z" fill="#ebdbb2" opacity=".2" style="isolation:isolate"/>
  <path d="m91 12c-72 0-85 15-85 87v56c0 70 13 85 85 85h74c72 0 85-15 85-85v-56c0-72-13-87-85-87zm0 4h74c68 0 80 15 80 83v56c0 66-12 81-80 81h-74c-68 0-80-15-80-81v-56c0-68 12-83 80-83z" fill="url(#linearGradient31)" style="isolation:isolate"/>
</svg>
