<svg width="256" height="256" version="1.1" xmlns="http://www.w3.org/2000/svg">
  <defs>
    <linearGradient id="linearGradient31" x1=".5002" x2=".5002" y2="1" gradientTransform="matrix(244,0,0,228,5.986,12)" gradientUnits="userSpaceOnUse">
      <stop stop-color="#ebdbb2" stop-opacity=".2" offset="0"/>
      <stop stop-color="#ebdbb2" stop-opacity=".05" offset=".1"/>
      <stop stop-opacity="0" offset=".7036"/>
      <stop stop-opacity=".1" offset=".8975"/>
      <stop stop-opacity=".2" offset="1"/>
    </linearGradient>
    <linearGradient id="linearGradient6" x1="140" x2="140" y1="12" y2="240" gradientUnits="userSpaceOnUse">
      <stop stop-color="#8f3f71" offset="0"/>
      <stop stop-color="#d3869b" offset="1"/>
    </linearGradient>
  </defs>
  <path d="m165 12c72 0 85 15 85 87v56c0 70-13 85-85 85h-74c-72 0-85-15-85-85v-56c0-72 13-87 85-87z" fill="url(#linearGradient6)" style="isolation:isolate"/>
  <path d="m151.23 44.703c-9.9763-0.07863-19.951 2.9225-28.084 8.9395-5.1487 3.8093-9.4826 8.7415-12.498 14.473-3.0185 5.7368-4.6646 12.197-4.6035 18.75 0.0612 6.5608 1.8426 13.095 5.293 18.758 3.455 5.6709 8.5131 10.332 14.58 13.199 8.4455 3.9917 18.365 4.2184 26.984 0.61719 8.6193-3.6012 15.43-10.817 18.525-19.631 0.91549-2.6056-0.45484-5.4599-3.0606-6.375-2.6056-0.91549-5.4599 0.45484-6.375 3.0605-2.1203 6.037-7.0414 11.25-12.945 13.717-5.9039 2.4667-13.071 2.3045-18.855-0.42969-4.2017-1.9859-7.8581-5.3328-10.312-9.3613-2.459-4.0361-3.7893-8.85-3.834-13.646-0.0448-4.8041 1.183-9.6874 3.4531-14.002 2.2731-4.3202 5.6158-8.1439 9.5977-11.09 8.865-6.5588 21.192-8.5961 31.947-5.5957 10.797 3.0119 20.294 10.989 25.58 21.035 4.1112 7.8135 5.8413 16.949 4.8711 25.725s-4.6543 17.314-10.373 24.041c-5.7187 6.7268-13.552 11.736-22.057 14.105-8.5051 2.3699-17.8 2.134-26.174-0.66602-0.32062-0.0737-0.64772-0.11556-0.97656-0.125-0.25089-0.18874-0.49129-0.38542-0.7461-0.56445-15.807-11.113-37.82-8.5863-50.635 6.3887l-15.08 17.621 9.6113 8.2246-11.004 12.861c-2.9929 3.4974-2.5813 8.8154 0.91602 11.809l0.0918 0.0762c3.4974 2.993 8.8134 2.5794 11.807-0.91797l11.006-12.861 12.816 10.969-11.006 12.859c-2.9928 3.4974-2.5794 8.8154 0.91797 11.809l0.0898 0.0781c3.4974 2.9929 8.8154 2.5794 11.809-0.91797l11.006-12.861 9.6113 8.2266 15.08-17.623c10.548-12.326 11.792-29.502 4.418-42.945 6.4101 0.51917 12.906-0.0738 19.125-1.8066 10.468-2.917 19.954-8.9823 26.992-17.262 7.0387-8.2794 11.499-18.617 12.693-29.418 1.1941-10.801-0.9008-21.863-5.9609-31.48-6.5487-12.446-18.06-22.193-31.744-26.01-3.4313-0.95717-6.9596-1.5212-10.504-1.6953-0.66455-0.03264-1.329-0.0514-1.9941-0.05664z" fill="#282828" opacity=".3" stroke-linecap="round"/>
  <path transform="translate(-12.852 3.3047)" d="m144.15 137.14c9.3397 3.1232 19.615 3.385 29.102 0.7416s18.146-8.1814 24.525-15.685 10.451-16.941 11.533-26.729c1.0821-9.7884-0.83006-19.888-5.4158-28.603-5.9172-11.246-16.422-20.107-28.662-23.522s-26.049-1.166-36.265 6.3921c-4.5653 3.3776-8.4032 7.7551-11.047 12.781-2.6443 5.0257-4.0815 10.697-4.0285 16.376 0.0529 5.6787 1.6088 11.352 4.5636 16.202 2.9547 4.8497 7.3121 8.853 12.446 11.28 7.1152 3.3629 15.659 3.5584 22.92 0.52449 7.2616-3.0339 13.126-9.2492 15.734-16.675" fill="none" stroke="#282828" stroke-linecap="round" stroke-width="10"/>
  <path d="m68.424 158.78 9.6117 8.2254-12.377 14.463c-2.2573 2.6377-1.951 6.5778 0.68674 8.8351l0.0901 0.077c2.6378 2.2573 6.5778 1.951 8.8351-0.68673l12.377-14.463 16.02 13.709-12.377 14.463c-2.2573 2.6378-1.951 6.5778 0.68673 8.8351l0.0901 0.077c2.6378 2.2573 6.5778 1.951 8.8351-0.68674l12.377-14.463 9.6117 8.2254 13.709-16.02c12.871-15.041 11.112-37.668-3.9281-50.539-15.041-12.871-37.668-11.112-50.539 3.9281z" color="#000000" fill="#b16286" stroke-linecap="square" stroke-width=".8434" style="-inkscape-stroke:none;paint-order:markers fill stroke"/>
  <path d="m78.036 167.01-12.377 14.463c-2.2573 2.6377-1.951 6.5778 0.68674 8.8351l0.0901 0.077c2.6378 2.2573 6.5778 1.951 8.8351-0.68673l12.377-14.463 16.02 13.709-12.377 14.463c-2.2573 2.6378-1.951 6.5778 0.68673 8.8351l0.0901 0.077c2.6378 2.2573 6.5778 1.951 8.8351-0.68674l12.377-14.463" color="#000000" fill="#d5c4a1" stroke-linecap="square" stroke-width=".8434" style="-inkscape-stroke:none;paint-order:markers fill stroke"/>
  <path d="m131.17 135.01c-15.807-11.113-37.82-8.5878-50.635 6.3872l-15.08 17.622 9.612 8.2242-11.006 12.861c-2.9929 3.4974-2.5809 8.816 0.91635 11.809l0.09134 0.077c3.4974 2.993 8.8148 2.5789 11.808-0.91843l11.006-12.861 12.816 10.967-11.006 12.861c-2.9928 3.4974-2.5789 8.8148 0.91843 11.808l0.0893 0.0781c3.4974 2.993 8.8164 2.5794 11.81-0.91797l11.006-12.861 9.6116 8.2258 15.08-17.622c13.062-15.263 11.863-37.967-2.3089-51.805 0 0-2.3392-2.2563-4.7283-3.935zm-59.769 23.545 12.337-14.417c12.13-14.175 33.392-15.828 47.567-3.6976s15.827 33.392 3.696 47.567l-12.337 14.417c-17.089-14.621-34.176-29.246-51.263-43.869zm-4.9569 25.744c0.16751-0.51406 0.43965-1.0089 0.82005-1.4535l11.005-12.859 6.4088 5.483-11.006 12.861c-1.5217 1.7781-4.0842 1.9762-5.8624 0.45466l-0.08975-0.0765c-1.3336-1.1412-1.7789-2.8672-1.2762-4.4093zm25.631 21.934c0.16751-0.51406 0.44123-1.0085 0.82163-1.453l11.006-12.861 6.4067 5.4842-11.006 12.861c-1.5217 1.7781-4.0826 1.9767-5.8607 0.45511l-0.0913-0.077c-1.3336-1.1412-1.7789-2.8672-1.2762-4.4093z" color="#000000" fill="#282828" stroke-linecap="square" stroke-width=".8434" style="-inkscape-stroke:none;paint-order:markers fill stroke"/>
  <path d="m91 12c-72 0-85 15-85 87v56c0 70 13 85 85 85h74c72 0 85-15 85-85v-56c0-72-13-87-85-87zm0 4h74c68 0 80 15 80 83v56c0 66-12 81-80 81h-74c-68 0-80-15-80-81v-56c0-68 12-83 80-83z" fill="url(#linearGradient31)" style="isolation:isolate"/>
</svg>
