<svg width="256" height="256" version="1.1" xmlns="http://www.w3.org/2000/svg" xmlns:xlink="http://www.w3.org/1999/xlink">
  <defs>
    <linearGradient id="linearGradient31" x1=".5002" x2=".5002" y2="1" gradientTransform="matrix(244,0,0,228,5.986,12)" gradientUnits="userSpaceOnUse">
      <stop stop-color="#ebdbb2" stop-opacity=".2" offset="0"/>
      <stop stop-color="#ebdbb2" stop-opacity=".05" offset=".1"/>
      <stop stop-opacity="0" offset=".7036"/>
      <stop stop-opacity=".1" offset=".8975"/>
      <stop stop-opacity=".2" offset="1"/>
    </linearGradient>
    <linearGradient id="linearGradient6" x1="140" x2="140" y1="12" y2="240" gradientUnits="userSpaceOnUse">
      <stop stop-color="#83a598" offset="0"/>
      <stop stop-color="#458588" offset="1"/>
    </linearGradient>
    <linearGradient id="l" x1="298" x2="298" y1="-1587.6" y2="-1507.6" gradientUnits="userSpaceOnUse">
      <stop stop-color="#458588" offset="0"/>
      <stop stop-color="#458588" offset="1"/>
    </linearGradient>
    <linearGradient id="o" x1="230" x2="230" y1="-581.64" y2="-577.57" gradientTransform="matrix(9.818 0 0 8 -1867.9 3054.5)" gradientUnits="userSpaceOnUse">
      <stop stop-color="#458588" offset="0"/>
      <stop stop-color="#ebdbb2" offset="1"/>
    </linearGradient>
    <linearGradient id="q" x1="346.7" x2="361.37" y1="-1313.5" y2="-1303.8" gradientTransform="translate(0,-263)" gradientUnits="userSpaceOnUse">
      <stop stop-color="#ebdbb2" offset="0"/>
      <stop stop-color="#ebdbb2" stop-opacity="0" offset="1"/>
    </linearGradient>
    <linearGradient id="u" x1="337.38" x2="337.38" y1="-1311.4" y2="-1304.4" gradientTransform="translate(0,-263)" gradientUnits="userSpaceOnUse">
      <stop stop-color="#3c3836" offset="0"/>
      <stop stop-color="#282828" offset="1"/>
    </linearGradient>
    <radialGradient id="v" cx="-1535.3" cy="-842.91" r="10" gradientTransform="matrix(-3.3157 0 0 -7.5844 -3491.7 -6782.3)" gradientUnits="userSpaceOnUse">
      <stop stop-color="#ebdbb2" offset="0"/>
      <stop stop-color="#458588" stop-opacity="0" offset="1"/>
    </radialGradient>
    <linearGradient id="w" x1="337.38" x2="337.38" y1="-1311.4" y2="-1299.6" gradientTransform="translate(0,-263)" gradientUnits="userSpaceOnUse">
      <stop stop-color="#282828" offset="0"/>
      <stop stop-color="#282828" stop-opacity=".5" offset="1"/>
    </linearGradient>
    <linearGradient id="x" x1="349.55" x2="349.55" y1="-1308.9" y2="-1302.7" gradientTransform="translate(0,-263)" gradientUnits="userSpaceOnUse" xlink:href="#e"/>
    <linearGradient id="e">
      <stop stop-color="#665c54" offset="0"/>
      <stop stop-color="#282828" offset="1"/>
    </linearGradient>
    <linearGradient id="y" x1="349.55" x2="349.55" y1="-1307.7" y2="-1301.2" gradientTransform="translate(0,-263)" gradientUnits="userSpaceOnUse" xlink:href="#e"/>
    <linearGradient id="B" x1="-17" x2="144" y1="-1194.6" y2="-1194.6" gradientTransform="matrix(.52407 0 0 1 318.41 -356)" gradientUnits="userSpaceOnUse" xlink:href="#f"/>
    <linearGradient id="f">
      <stop stop-opacity="0" offset="0"/>
      <stop offset=".493"/>
      <stop stop-opacity="0" offset="1"/>
    </linearGradient>
    <linearGradient id="C" x1="-17" x2="144" y1="-1194.6" y2="-1194.6" gradientTransform="matrix(.52407 0 0 1 318.41 -405)" gradientUnits="userSpaceOnUse" xlink:href="#f"/>
    <linearGradient id="F" x1="-17" x2="144" y1="-1194.6" y2="-1194.6" gradientTransform="matrix(.29814 0 0 1 -1593.6 881.64)" gradientUnits="userSpaceOnUse" xlink:href="#f"/>
    <linearGradient id="G" x1="-17" x2="144" y1="-1194.6" y2="-1194.6" gradientTransform="matrix(.29814 0 0 1 -1593.6 804.64)" gradientUnits="userSpaceOnUse" xlink:href="#f"/>
    <linearGradient id="linearGradient10" x1="298" x2="298" y1="-1571.2" y2="-1497.6" gradientUnits="userSpaceOnUse">
      <stop stop-color="#458588" offset="0"/>
      <stop stop-color="#458588" offset="1"/>
    </linearGradient>
  </defs>
  <path d="m165 12c72 0 85 15 85 87v56c0 70-13 85-85 85h-74c-72 0-85-15-85-85v-56c0-72 13-87 85-87z" fill="url(#linearGradient6)" style="isolation:isolate"/>
  <path d="m100.7 42.01c-53.05 0-62.62 11.05-62.62 64.1v41.26c0 51.57 9.577 62.63 62.62 62.63h54.52c53.05 0 62.62-11.05 62.62-62.63v-41.26c0-5.514-0.1378-10.47-0.3828-15.12l-48.63-48.63c-4.217-0.2171-8.665-0.3555-13.61-0.3555h-54.52z" fill="#ebdbb2" stroke-width=".7368" style="isolation:isolate"/>
  <g transform="matrix(.90566 0 0 .90566 -170.36 1531.4)">
    <path d="m309-1601.6h84v56h-84zm-35 0v5h31v-5zm-9 10v5h40v-5zm0 10v5h40v-5zm0 10v5h40v-5zm0 10v5h40v-5zm0 10v5h40v-5zm0 10v5h128v-5zm0 10v5h128v-5zm0 10v5h128v-5zm0 10v5h128v-5zm0 10v5h84v-5z" fill="#282828" opacity=".3"/>
    <path d="m309-1602.6h84v56h-84z" fill="url(#l)"/>
    <path transform="translate(0 -1)" d="m274-1601.6h31v5h-31zm-9 60h128v5h-128zm0 40h84v5h-84zm0-90h40v5h-40zm0 10h40v5h-40zm0 10h40v5h-40zm0 10h40v5h-40zm0 10h40v5h-40zm0 20h128v5h-128zm0 10h128v5h-128zm0 10h128v5h-128z" fill="url(#linearGradient10)"/>
    <path d="m313-1598.6h75.998v48h-75.998z" fill="url(#o)"/>
    <path d="m368.34-1584.5c-15.065 6.008-29.78 14.22-39.781 27.25 20.479 0 39.955-0.988 60.434-0.988l3e-3 -9.043c-5.068-4.395-14.402-15.033-20.656-17.219z" fill="#ebdbb2" opacity=".5"/>
    <path d="m368.73-1583.6c5.066 2.533 13.871 11.355 20.263 17.733v7.6h-58.264c10.135-12.667 25.334-20.267 38-25.333z" fill="#282828"/>
    <path d="m350.13-1568.8 0.443-3.577 6.653-2.846 3.741-3.496 6.58-2.668-1.718 4.322-2.565 4.493-1.526 4.883-1.056 2.813z" fill="#3c3836"/>
    <path d="m332.44-1591.7c-6.45 9.717-11.86 18.514-19.437 27.213l0.068 7.035c16.781 0 44.494 0.221 61.275 0.221-14.057-10.205-29.375-19.58-38.094-35.031-1.201 1.07-3.041-0.52-3.812 0.562z" fill="url(#q)" opacity=".5"/>
    <path d="m352.27-1572.2c-7.583-6.292-11.4-11.4-16.466-19-1.482 0.447-1.425 0.277-2.533 0 0 0-6.778 10.07-10.133 15.2-3.356 5.13-10.135 12.666-10.135 12.666v5.066h58.264s-13.92-10.054-18.997-13.933z" fill="#282828"/>
    <path d="m389-1563.3h-3.266l-14.467 2.533s-14.296-3.8-16.447-3.8c-2.113 0-8.886 1.267-10.153 1.267-0.888 0-6.333-2.533-7.62-2.533-2.124 0-4.572 2.691-10.905 3.8 0 0-1.82-4.038-3.007-3.8-7.6 2.929-10.135 2.533-10.135 2.533v12.666h75.997l2e-3 -12.666z" fill="#98971a"/>
    <path d="m313-1560.8v10.132h65.866l2.534-2.533-2.534-2.533-5.066-2.534-12.667-2.533-12.666-1.267-11.4 1.267h-24.066z" fill="#458588"/>
    <path d="m318.07-1565.8 3.61-5.794 4.277-5.063 3.267-5.95 4.046-5.993-2.746 7.568-2.011 6.234-0.972 3.933-1.815 4.19c-0.73-0.533-1.654-0.553-2.487-0.823l-2.378 0.932z" fill="#282828"/>
    <path d="m327.36-1565.7 2.724-6.879 1.329-7.1 1.92-4.384 1.2-4.549 1.665 4.68 0.473 4.47 2.014 3.982 1.997 4.575 0.373 3.231-3.353 0.942-3.186-1.243-3.522 2.285h-3.634z" fill="url(#u)"/>
    <path d="m360.01-1564.6-4.438-3.198-2.834-2.261 2.753 4.289z" fill="#665c54"/>
    <path transform="matrix(0,-1,-1,0,0,0)" d="m1566.6-389h32v76h-32z" fill="url(#v)"/>
    <path d="m389-1583.7a15 15 0 0 1-15-15h15z" fill="#fabd2f" opacity=".5"/>
    <path d="m363.73-1567.6 1.566-5.042 1.922-4.384 1.199-4.548 1.665 4.68 2.136 3.995 1.539 3.982-0.22 4.258 2.115 2.123-4.354-0.236-8.787-1.818 1.22-3.01z" fill="url(#w)"/>
    <path d="m353.53-1565.8-3.689-5.59-6.54-7.133-5.412-7.115-2.092-2.962 2.267 7.689 2.486 4.61 2.206 7.045 0.64 3.456 2.278 0.763 3.48-0.807c1.462-0.144 2.923 0.026 4.376 0.044z" fill="url(#x)"/>
    <path d="m387.97-1564.8-2.975-1.79-4.166-5.708-6.125-5.295-4.783-3.99 0.921 3.334 4.228 6.67 0.464 6.015 2.541 1.951 5.7-1.108 4.196-0.078z" fill="url(#y)"/>
    <path d="m313.03-1558.2-0.026 7.533h63.332v-2.533l-2.533-2.533-12.666-2.534-12.667-1.266-12.666 1.266-13.71 0.378z" fill="#83a598"/>
    <path d="m348.5-1560.7-12.72 1.442-13.57 1.038-8.275 0.029 8.157 0.34 13.984-0.022 12.39-1.281 12.688 1.209 5.644 1.101 6.95 1.618 2.281 2.187 0.313 2.407h1.156l0.205-2.788-3.411-3.261-13.2-2.482z" fill="#076678"/>
    <path d="m340.87-1553.2 2.533-2.533h10.133l7.6 2.533 1.5102 1.533h-11.644z" fill="#ebdbb2" opacity=".5"/>
    <path d="m335.81-1588.6 1.562 5.906c1.284 2.378 3.804 3.385 5.884 5.411 3.003 2.926 6.339 6.382 7.616 7.496l-1.031-1.594-6.531-7.156-5.407-7.094z" fill="#ebdbb2" opacity=".4"/>
    <path d="m333.28-1588.6-3.27 7.613-3.261 9.137-3.574 4.373c0.514 0.115 2.106 0.496 2.543 0.815l1.812-4.188 0.969-3.937 2.031-6.25z" fill="#1d2021"/>
    <path d="m337.03-1565.8c-2.069 0-4.433 2.53-10.406 3.687l-0.219 0.125c0.108 0.037 0.487 0.105 1.813-0.094 1.768-0.265 8.06-2.932 9.562-2.844 1.503 0.089 5.991 2.651 6.875 2.563 0.884-0.089 9.378-1.322 10.969-0.969 1.591 0.354 16.188 3.625 16.188 3.625l13.937-2.562 3.25 0.094v-1.094h-3.281l-14.438 2.531s-14.318-3.812-16.469-3.812c-2.113 0-8.888 1.28-10.156 1.28-0.888 0-6.337-2.53-7.625-2.53z" fill="#fabd2f" opacity=".35"/>
    <path transform="matrix(0 1.714 -2.7733 0 3438.8 -2354.8)" d="m448.77 1099.7a7.585 4.688 0 0 1-7.585 4.687v-4.688z" fill="#fabd2f" opacity=".74"/>
    <path d="m373-1598.6c0 8.843 7.157 16 16 16v-0.988c-8.297 0-15.012-6.714-15.012-15.012z" fill="#ebdbb2" opacity=".5"/>
    <path d="m369.91-1581.6 0.938 3.344 4.219 6.688 0.468 6 2.531 1.968 0.438-0.094-2.25-2.25-0.438-5.75-2.412-3.709 6.475 3.46 5.125 5.343-4.156-5.687-6.125-5.313zm15.094 15 0.25 0.282-0.063-0.157z" fill="#ebdbb2" opacity=".4"/>
    <path d="m309.5-1550.6h84.375v1h-84.375z" fill="url(#B)" opacity=".25"/>
    <path d="m309.5-1599.6h84.375v1h-84.375z" fill="url(#C)" opacity=".15"/>
    <path d="m313-1598.6v48h76v-48zm1 1h74v46h-74z" fill="#ebdbb2" opacity=".35"/>
    <path transform="rotate(90)" d="m-1598.6-313h48v1h-48z" fill="url(#F)" opacity=".25"/>
    <path transform="rotate(90)" d="m-1598.6-390h48v1h-48z" fill="url(#G)" opacity=".25"/>
  </g>
  <path d="m91 12c-72 0-85 15-85 87v56c0 70 13 85 85 85h74c72 0 85-15 85-85v-56c0-72-13-87-85-87zm0 4h74c68 0 80 15 80 83v56c0 66-12 81-80 81h-74c-68 0-80-15-80-81v-56c0-68 12-83 80-83z" fill="url(#linearGradient31)" style="isolation:isolate"/>
</svg>
