<svg width="256" height="256" version="1.1" xmlns="http://www.w3.org/2000/svg" xmlns:xlink="http://www.w3.org/1999/xlink">
  <linearGradient id="b" x1=".5002" x2=".5002" y2="1" gradientTransform="matrix(244,0,0,228,5.981,12)" gradientUnits="userSpaceOnUse">
    <stop stop-color="#ebdbb2" offset="0"/>
    <stop stop-color="#d5c4a1" offset="1"/>
  </linearGradient>
  <defs>
    <linearGradient id="linearGradient31" x1=".5002" x2=".5002" y2="1" gradientTransform="matrix(244,0,0,228,5.988,12)" gradientUnits="userSpaceOnUse">
      <stop stop-color="#282828" stop-opacity=".1" offset="0"/>
      <stop stop-color="#bdae93" stop-opacity=".1" offset=".1"/>
      <stop stop-color="#d5c4a1" stop-opacity="0" offset=".7022"/>
      <stop stop-color="#bdae93" stop-opacity=".302" offset=".9"/>
      <stop stop-color="#282828" stop-opacity=".15" offset="1"/>
    </linearGradient>
    <linearGradient id="linearGradient9" x1="115.1" x2="115.1" y1="27.316" y2="225.49" gradientUnits="userSpaceOnUse">
      <stop stop-color="#458588" offset="0"/>
      <stop stop-color="#076678" offset="1"/>
    </linearGradient>
    <linearGradient id="linearGradient13" x1="108.41" x2="108.41" y1="32.144" y2="229.51" gradientUnits="userSpaceOnUse">
      <stop stop-color="#fbf1c7" stop-opacity=".70279" offset="0"/>
      <stop stop-color="#ebdbb2" offset="1"/>
    </linearGradient>
  </defs>
  <path d="m165 12c72 0 85 15 85 87v56c0 70-13 85-85 85h-74c-72 0-85-15-85-85v-56c0-72 13-87 85-87z" fill="url(#b)" style="isolation:isolate"/>
  <path d="m95.971 32.144c-62.326 0-73.578 12.985-73.578 75.311v48.477c0 21.691 1.4611 37.256 6.1719 48.334 2.1481-2.6324 4.9564-5.5069 6.7832-7.5547 3.06-3.65 11.269-12.483 21.939-15.561 6.632-3.798 8.3655-5.6358 11.98-12.719 4.226-8.29 8.7461-15.524 12.83-20.551 4.715-5.798 5.3616-6.8315 7.7266-12.311 1.19-2.757 3.3251-6.8051 4.7441-8.9961l2.5801-3.9863-3.3379-3.2793c-4.434-4.362-8.1244-9.3073-8.8184-11.82-0.709-2.567 0.12894-3.9979 3.4609-5.9219 3.37-1.946 5.7772-2.5043 14.781-3.4297 4.383-0.451 9.1397-1.2781 10.639-1.8477 1.491-0.567 5.9493-2.9926 9.9043-5.3906 11.417-6.9235 12.383-7.2811 19.23-7.1328 5.783 0.126 5.7937 0.12278 9.2227-1.9492 7.18-4.35 17.5-12.179 31.08-23.609 2.604-2.191 5.1123-3.9114 5.5742-3.8223l0.0137-0.01953c1.92 0.37 5.4485 9.0305 5.9844 14.689 0.325 3.435-0.339 6.8296-2.375 12.141-0.5554 1.449-0.81076 2.8325-0.56836 3.0742 0.582 0.58 2.5801-1.9156 2.5801-3.2226 0-1.6662 1.1025-1.8562 2.6035-0.44922 1.091 1.0229 2.0326 1.3144 4.2266 1.3144 2.396 0 2.9887 0.22075 3.9238 1.4688 1.5869 2.112 1.9581 7.885 0.74414 11.541-1.181 3.557-4.7512 7.6586-7.9922 9.1816-2.902 1.367-8.7725 7.1-11.52 11.25-1.052 1.588-3.0248 4.9004-4.3828 7.3594s-3.6365 6.1758-5.0625 8.2578c-2.806 4.1-5.2093 9.8172-7.5293 17.91-1.3626 4.76-1.4769 5.9996-1.5332 16.6-0.068 12.812-0.73036 15.956-4.1934 19.9-3.937 4.49-7.8649 14.331-8.1953 20.539-0.209 3.92-0.81203 7.7413-1.6699 10.57l-4.1973 13.021h10.287c62.326 0 73.578-12.985 73.578-73.58v-48.477c0-62.326-11.252-75.311-73.578-75.311zm52.613 57.51-8.3066 1.1641-5.1641 6.6113 8.3086-1.166z" fill="url(#linearGradient13)" opacity=".6" stroke-width=".86564" style="isolation:isolate"/>
  <path d="m95.971 27.316c-62.326 0-73.578 12.985-73.578 75.311v48.477c0 21.691 1.4611 37.256 6.1719 48.334 2.1481-2.6324 4.9564-5.5069 6.7832-7.5547 3.06-3.65 11.269-12.483 21.939-15.561 6.632-3.798 8.3655-5.6358 11.98-12.719 4.226-8.29 8.7461-15.524 12.83-20.551 4.715-5.798 5.3616-6.8315 7.7266-12.311 1.19-2.757 3.3251-6.8051 4.7441-8.9961l2.5801-3.9863-3.3379-3.2793c-4.434-4.362-8.1244-9.3073-8.8184-11.82-0.709-2.567 0.12894-3.9979 3.4609-5.9219 3.37-1.946 5.7772-2.5043 14.781-3.4297 4.383-0.451 9.1397-1.2781 10.639-1.8477 1.491-0.567 5.9493-2.9926 9.9043-5.3906 11.417-6.9235 12.383-7.2811 19.23-7.1328 5.783 0.126 5.7937 0.12278 9.2227-1.9492 7.18-4.35 17.5-12.179 31.08-23.609 2.604-2.191 5.1123-3.9114 5.5742-3.8223l0.01367-0.019532c1.92 0.37 5.4485 9.0305 5.9844 14.689 0.325 3.435-0.339 6.8296-2.375 12.141-0.5554 1.449-0.81076 2.8325-0.56836 3.0742 0.582 0.58 2.5801-1.9157 2.5801-3.2227 0-1.6662 1.1025-1.8562 2.6035-0.44922 1.091 1.0229 2.0326 1.3145 4.2266 1.3145 2.396 0 2.9887 0.22075 3.9238 1.4688 1.5869 2.112 1.9581 7.885 0.74414 11.541-1.181 3.557-4.7512 7.6586-7.9922 9.1816-2.902 1.367-8.7725 7.1-11.52 11.25-1.052 1.588-3.0248 4.9004-4.3828 7.3594s-3.6365 6.1758-5.0625 8.2578c-2.806 4.1-5.2093 9.8172-7.5293 17.91-1.3626 4.76-1.4769 5.9996-1.5332 16.6-0.068 12.812-0.73036 15.956-4.1934 19.9-3.937 4.49-7.8649 14.331-8.1953 20.539-0.209 3.92-0.81203 7.7413-1.6699 10.57l-4.1973 13.021h10.287c62.326 0 73.578-12.985 73.578-73.58v-48.477c0-62.326-11.252-75.311-73.578-75.311h-64.059zm52.613 57.51-8.3066 1.1641-5.1641 6.6113 8.3086-1.166 5.1621-6.6094z" fill="url(#linearGradient9)" stroke-width=".86564" style="isolation:isolate"/>
  <path d="m95.969 27.314 2e-3 2e-3c-62.326 0-73.578 12.985-73.578 75.311v4.8281c0-62.326 11.252-75.311 73.578-75.311l-2e-3 -2e-3h64.059c62.267 0 73.557 12.96 73.578 75.135v-4.6523c0-62.326-11.252-75.311-73.578-75.311zm98.826 40.98c-0.30397 2.27-1.0382 4.8092-2.2891 8.0723-0.5554 1.449-0.81076 2.8325-0.56836 3.0742 0.29585 0.29484 0.95788-0.20489 1.5371-0.93945 1.2746-3.8413 1.6727-6.6307 1.4062-9.4473-0.0235-0.24786-0.0514-0.50134-0.0859-0.75977zm-46.211 16.531-8.3066 1.1641-5.1641 6.6113 4.2363-0.59375 0.92773-1.1895 4.0723-0.57031zm58.006 2.627c-0.11774 0.94092-0.30891 1.8416-0.57422 2.6406-1.181 3.557-4.7512 7.6586-7.9922 9.1816-2.902 1.367-8.772 7.1-11.52 11.25-1.052 1.588-3.0248 4.9004-4.3828 7.3594s-3.6365 6.1758-5.0625 8.2578c-2.806 4.1-5.2093 9.8174-7.5293 17.91-1.3626 4.76-1.4769 5.9992-1.5332 16.6-0.068 12.812-0.73032 15.956-4.1934 19.9-3.937 4.49-7.8649 14.331-8.1953 20.539-0.209 3.92-0.81205 7.7416-1.6699 10.57l-4.1973 13.02h1.5566l2.6406-8.1914c0.85787-2.8287 1.4609-6.6503 1.6699-10.57 0.3304-6.208 4.2583-16.049 8.1953-20.539 3.463-3.944 4.1254-7.0884 4.1934-19.9 0.0563-10.6 0.17061-11.84 1.5332-16.6 2.32-8.0928 4.7233-13.81 7.5293-17.91 1.426-2.082 3.7045-5.7988 5.0625-8.2578s3.3308-5.7714 4.3828-7.3594c2.7475-4.15 8.6175-9.883 11.52-11.25 3.241-1.523 6.8112-5.6246 7.9922-9.1816 0.71361-2.1491 0.88107-5.0302 0.57422-7.4688zm-121.12 16.438c-0.78577 1.0306-0.88636 2.1281-0.48047 3.5977 0.694 2.5127 4.3844 7.4583 8.8184 11.82l1.4277 1.4024 1.9102-2.9512-3.3379-3.2793c-3.794-3.7324-7.0441-7.8927-8.3379-10.59z" fill="#32302f" opacity=".2" style="isolation:isolate"/>
  <path d="m91 12c-72 0-85 15-85 87v56c0 70 13 85 85 85h74c72 0 85-15 85-85v-56c0-72-13-87-85-87zm0 4h74c68 0 80 15 80 83v56c0 66-12 81-80 81h-74c-68 0-80-15-80-81v-56c0-68 12-83 80-83z" fill="url(#linearGradient31)" style="isolation:isolate"/>
</svg>
