<svg width="256" height="256" version="1.1" xmlns="http://www.w3.org/2000/svg">
  <defs>
    <linearGradient id="linearGradient9" x1="128" x2="128" y1="12" y2="240" gradientUnits="userSpaceOnUse">
      <stop stop-color="#689d6a" offset="0"/>
      <stop stop-color="#427b58" offset="1"/>
    </linearGradient>
    <linearGradient id="linearGradient31-7" x1=".5002" x2=".5002" y2="1" gradientTransform="matrix(244,0,0,228,5.986,12)" gradientUnits="userSpaceOnUse">
      <stop stop-color="#ebdbb2" stop-opacity=".2" offset="0"/>
      <stop stop-color="#ebdbb2" stop-opacity=".05" offset=".1"/>
      <stop stop-opacity="0" offset=".7036"/>
      <stop stop-opacity=".1" offset=".8975"/>
      <stop stop-opacity=".2" offset="1"/>
    </linearGradient>
  </defs>
  <path d="m91 12c-72 0-85 15-85 87v56c0 58.848 9.3382 78.763 55.045 83.635v-39.947h45.631v41.312h58.324c72 0 85-15 85-85v-56c0-72-13-87-85-87h-74z" fill="url(#linearGradient9)" style="isolation:isolate"/>
  <path d="m145.19 198.69v41.31h16.18v-41.31zm24.27 0v41.29c6.59-0.0695 11.74-0.26035 16.18-0.51355v-40.784h-16.18zm24.27 0v40.148c6.007-0.5766 11.28-1.4125 16.18-2.5595v-37.59h-16.18zm-72.82 4e-3v41.3h16.18v-41.3z" fill="#fabd2f" style="isolation:isolate"/>
  <path d="m142.14 118h-54.75c-1.3807 0-2.5-1.1193-2.5-2.5v-11.25c0-0.5925 0.21-1.165 0.5925-1.6175l31.508-37.132h-27.1c-1.3979 2e-3 -2.5294-1.1524-2.5-2.55l0.25-12.5c0.02723-1.3611 1.1386-2.4503 2.5-2.45h52.25c1.3807 0 2.5 1.1193 2.5 2.5v12.5c0 0.605-0.22 1.19-0.6175 1.6475l-31.372 35.852h29.49c1.3979-2e-3 2.5294 1.1524 2.5 2.55l-0.25 12.5c-0.0272 1.3612-1.1386 2.4503-2.5 2.45zm50.25 17.5h-40c-1.3807 0-2.5-1.1193-2.5-2.5v-10c0-0.665 0.26249-1.3 0.73249-1.7675l20.733-20.732h-16.465c-1.3807 0-2.5-1.1193-2.5-2.5v-10c0-1.3807 1.1193-2.5 2.5-2.5h37.5c1.3807 0 2.5 1.1193 2.5 2.5v10c0 0.6625-0.2625 1.3-0.7325 1.7675l-20.733 20.732h18.965c1.3807 0 2.5 1.1193 2.5 2.5v10c0 1.3807-1.1193 2.5-2.5 2.5zm-50 37.5h-35c-1.3807 0-2.5-1.1193-2.5-2.5v-7.5c0-0.575 0.2-1.135 0.565-1.5825l19.16-23.418h-17.225c-1.3807 0-2.5-1.1193-2.5-2.5v-7.5c0-1.3807 1.1193-2.5 2.5-2.5h35c1.3807 0 2.5 1.1193 2.5 2.5v7.5c0 0.575-0.2 1.135-0.565 1.5825l-19.16 23.418h17.225c1.3807 0 2.5 1.1193 2.5 2.5v7.5c0 1.3807-1.1193 2.5-2.5 2.5z" fill="#282828" opacity=".3" style="isolation:isolate"/>
  <path d="m142.14 112.84h-54.75c-1.3807 0-2.5-1.1193-2.5-2.5v-11.25c0-0.5925 0.21-1.165 0.5925-1.6175l31.507-37.132h-27.1c-1.3979 0.0017-2.5294-1.1524-2.5-2.55l0.25-12.5c0.02723-1.3611 1.1386-2.4503 2.5-2.45h52.25c1.3807 0 2.5 1.1193 2.5 2.5v12.5c0 0.605-0.22 1.19-0.6175 1.6475l-31.372 35.852h29.49c1.3979-0.0017 2.5294 1.1524 2.5 2.55l-0.25 12.5c-0.0272 1.3612-1.1386 2.4503-2.5 2.45zm50.25 17.5h-40c-1.3807 0-2.5-1.1193-2.5-2.5v-10c0-0.665 0.2625-1.3 0.7325-1.7675l20.732-20.732h-16.465c-1.3807 0-2.5-1.1193-2.5-2.5v-10c0-1.3807 1.1193-2.5 2.5-2.5h37.5c1.3807 0 2.5 1.1193 2.5 2.5v10c0 0.6625-0.2625 1.3-0.7325 1.7675l-20.732 20.732h18.965c1.3807 0 2.5 1.1193 2.5 2.5v10c0 1.3807-1.1193 2.5-2.5 2.5zm-50 37.5h-35c-1.3807 0-2.5-1.1193-2.5-2.5v-7.5c0-0.575 0.2-1.135 0.565-1.5825l19.16-23.418h-17.225c-1.3807 0-2.5-1.1193-2.5-2.5v-7.5c0-1.3807 1.1193-2.5 2.5-2.5h35c1.3807 0 2.5 1.1193 2.5 2.5v7.5c0 0.575-0.2 1.135-0.565 1.5825l-19.16 23.418h17.225c1.3807 0 2.5 1.1193 2.5 2.5v7.5c0 1.3807-1.1193 2.5-2.5 2.5z" fill="#ebdbb2" style="isolation:isolate"/>
  <path d="m29.79 230.01v-208.02c-19.13 11.27-23.79 33.858-23.79 76.898v56c0 41.85 4.662 64.04 23.79 75.12z" fill="#ebdbb2" style="isolation:isolate"/>
  <path d="m91 12c-72 0-85 15-85 87v56c0 58.848 9.3382 78.763 55.045 83.635v-4.166c-41.666-5.1022-50.045-24.702-50.045-79.469v-56c0-68 12-83 80-83h74c68 0 80 15 80 83v56c0 66-12 81-80 81h-58.324v4h58.324c72 0 85-15 85-85v-56c0-72-13-87-85-87z" fill="url(#linearGradient31-7)" style="isolation:isolate"/>
</svg>
