<svg width="256" height="256" version="1.1" xmlns="http://www.w3.org/2000/svg">
  <linearGradient id="b" x1=".5002" x2=".5002" y2="1" gradientTransform="matrix(244,0,0,228,5.981,12)" gradientUnits="userSpaceOnUse">
    <stop stop-color="#ebdbb2" offset="0"/>
    <stop stop-color="#ebdbb2" offset="1"/>
  </linearGradient>
  <defs>
    <linearGradient id="linearGradient31" x1=".5002" x2=".5002" y2="1" gradientTransform="matrix(244,0,0,228,5.988,12)" gradientUnits="userSpaceOnUse">
      <stop stop-color="#282828" stop-opacity=".1" offset="0"/>
      <stop stop-color="#bdae93" stop-opacity=".1" offset=".1"/>
      <stop stop-color="#d5c4a1" stop-opacity="0" offset=".7022"/>
      <stop stop-color="#bdae93" stop-opacity=".302" offset=".9"/>
      <stop stop-color="#282828" stop-opacity=".15" offset="1"/>
    </linearGradient>
  </defs>
  <path d="m165 12c72 0 85 15 85 87v56c0 70-13 85-85 85h-74c-72 0-85-15-85-85v-56c0-72 13-87 85-87z" fill="url(#b)" style="isolation:isolate"/>
  <path d="m78.729 63.636-0.0039 0.0016 3.1578 30.037 0.61125-0.10735 45.882 115.08-8.79-16.17 8.788 22.042 17.674-32.144 31.586 16.439-0.1269-5.9505-31.451-16.369-17.674 32.144-45.886-115.08-3.1168-29.66-0.65031-0.2656zm101.55 1.0956-0.0196 0.0033-0.50383 0.19333-2.4743 28.268 0.49798 0.0937 2.4997-28.559zm-126.25 39.684-5.0072 0.8749 21.38 21.411 3.0641-2.82-19.437-19.467zm151.92 0.041-18.896 21.622 2.5544 2.9469 20.75-23.741-4.4077-0.82801zm-155.6 46.576-5.4662 5.0306v7e-3l37.066 5.7044 0.92763-5.7376-32.527-5.0053zm156.14 3.3512-29.598 3.4781 0.12689 5.8645 34.088-4.0054 0.0138 6e-3 -4.6304-5.3432zm-95.786 21.747-32.818 16.65-1.0351 6.4016 33.848-17.172 17.676 32.516-8.8133-22.104-8.8563-16.291z" fill="#282828" opacity=".15" stroke-width="1.1465" style="isolation:isolate"/>
  <path d="m130.26 42.423-18.429 28.865 16.545 23.38 18.429-23.017zm47.017 50.786-17.679 23.017 27.458 9.8623 23.31-26.67zm-48.519 32.517-18.429 24.841 18.429 26.308 19.181-27.038z" fill="#fb4934" opacity=".5" stroke-width="1.1465" style="isolation:isolate"/>
  <path d="m180.27 58.863-33.472 12.787-18.429 23.017 31.592-12.787zm-51.901 35.805-30.458-12.057 1.1337 31.421 29.709 11.694-0.3761-31.056zm-45.881-1.0877-33.472 5.8443 24.443 24.476 25.577-9.865zm65.435 56.254-1.8778 26.673 31.592 16.443-0.75761-35.077z" fill="#fb4934" stroke-width="1.1465" style="isolation:isolate"/>
  <path d="m180.28 58.863-20.306 23.017-0.38148 34.346 17.682-23.017zm-20.688 57.366 19.936 25.212 31.595 12.419-24.07-27.769z" fill="#fb4934" opacity=".7" stroke-width="1.1465" style="isolation:isolate"/>
  <path d="m78.73 57.767 3.7609 35.807 16.551 20.458-1.1283-31.421h0.0031zm-0.75489 82.21-33.094 10.228 37.988 5.8444 27.449-5.4791zm32.344 10.593 0.37609 25.577 17.679 32.517 0.37338-31.789zm69.201-9.1372-31.592 8.4039 28.957 8.0387 34.23-4.0207z" fill="#9d0006" stroke-width="1.1465" style="isolation:isolate"/>
  <path d="m78.733 57.767 19.181 24.841 30.461 12.059-16.551-23.383-2e-3 0.0028zm20.309 56.268-21.067 25.942 32.347 10.593 18.429-24.844zm29.709 11.691 19.178 24.108 8e-3 -2e-3 31.584-8.4039-19.936-25.206-30.837 9.4998zm19.186 24.105-19.181 27.038-0.3761 31.787 17.676-32.152z" fill="#fb4934" opacity=".8" stroke-width="1.1465" style="isolation:isolate"/>
  <path d="m159.97 81.881-31.595 12.79 0.3761 31.056 30.837-9.4998zm-60.935 32.147-25.577 9.865-28.58 26.308 33.094-10.23z" fill="#cc241d" stroke-width="1.1465" style="isolation:isolate"/>
  <path d="m110.32 150.57-27.455 5.4844-6.0161 37.266 33.847-17.173-0.37534-25.578" fill="#9d0006" opacity=".8" stroke-width="1.1465" style="isolation:isolate"/>
  <path d="m130.26 42.422-18.432 28.86-33.094-13.518-0.0038 0.0038 0.6464 6.1477 32.439 13.25 18.432-28.858 16.545 29.226 32.953-12.593 0.53311-6.0813-0.0196 0.0038-33.457 12.783zm47.512 50.877-0.50775 5.7923 28.679 5.3802 4.4194-5.058zm-95.895 0.38471-32.853 5.7356 5.0033 5.0111 28.456-4.9681 37.053 92.934 0.0292 0.0548-37.08-92.995zm-11.485 33.031-25.507 23.477v0.0105l5.4603 0.83951 23.102-21.265zm119.22 2.322-2.5661 2.9351 19.436 22.425 4.6303-0.54484 0.0138 6e-3zm-107.67 32.756-5.0912 31.521 1.0233-0.51947 4.9857-30.861zm95.069 1.949-0.13672 0.0164 0.62492 29.116 0.13866 0.0724z" fill="#ebdbb2" opacity=".2" stroke-width="1.1465" style="isolation:isolate"/>
  <path d="m91 12c-72 0-85 15-85 87v56c0 70 13 85 85 85h74c72 0 85-15 85-85v-56c0-72-13-87-85-87zm0 4h74c68 0 80 15 80 83v56c0 66-12 81-80 81h-74c-68 0-80-15-80-81v-56c0-68 12-83 80-83z" fill="url(#linearGradient31)" style="isolation:isolate"/>
</svg>
