<svg width="256" height="256" version="1.1" xmlns="http://www.w3.org/2000/svg" xmlns:xlink="http://www.w3.org/1999/xlink">
  <defs>
    <linearGradient id="b-3" x1=".5002" x2=".5002" y2="1" gradientTransform="matrix(244,0,0,228,5.981,12)" gradientUnits="userSpaceOnUse">
      <stop stop-color="#fabd2f" offset="0"/>
      <stop stop-color="#fabd2f" offset="1"/>
    </linearGradient>
    <linearGradient id="linearGradient31" x1=".5002" x2=".5002" y2="1" gradientTransform="matrix(244,0,0,228,5.988,12)" gradientUnits="userSpaceOnUse">
      <stop stop-color="#282828" stop-opacity=".1" offset="0"/>
      <stop stop-color="#bdae93" stop-opacity=".1" offset=".1"/>
      <stop stop-color="#d5c4a1" stop-opacity="0" offset=".7022"/>
      <stop stop-color="#bdae93" stop-opacity=".302" offset=".9"/>
      <stop stop-color="#282828" stop-opacity=".3" offset="1"/>
    </linearGradient>
    <linearGradient id="linearGradient13" x1="145" x2="145" y1="10" y2="240" gradientUnits="userSpaceOnUse">
      <stop stop-color="#ebdbb2" stop-opacity=".2" offset="0"/>
      <stop stop-color="#ebdbb2" stop-opacity=".05098" offset=".5"/>
      <stop stop-opacity="0" offset=".75"/>
      <stop stop-opacity=".1216" offset=".875"/>
      <stop stop-opacity=".2" offset="1"/>
    </linearGradient>
  </defs>
  <path d="m165 12c72 0 85 15 85 87v56c0 70-13 85-85 85h-74c-72 0-85-15-85-85v-56c0-72 13-87 85-87z" fill="url(#b-3)" style="isolation:isolate"/>
  <path transform="translate(0 .01)" d="m165 11.99-74 228h74c72 0 85-15 85-85v-56c0-72-13-87-85-87z" fill="#8f3f71" style="isolation:isolate"/>
  <path d="m193 89.32c-23.73 0-42.98 19.25-42.98 42.98 0 23.73 19.25 42.98 42.98 42.98 23.73 0 42.98-19.25 42.98-42.98 0-2.542-0.2279-5.077-0.6716-7.572-2.938 13.38-14.78 22.92-28.49 22.92-16.1 0-29.16-13.06-29.16-29.16 0-13.71 9.533-25.55 22.92-28.49-2.494-0.4437-5.029-0.6716-7.572-0.6716z" fill="#282828" opacity=".3" stroke-width="8.596"/>
  <path d="m193 80.73c-23.73 0-42.98 19.25-42.98 42.98 0 23.73 19.25 42.98 42.98 42.98 23.73 0 42.98-19.25 42.98-42.98 0-2.542-0.2279-5.077-0.6716-7.572-2.938 13.38-14.78 22.92-28.49 22.92-16.1 0-29.16-13.06-29.16-29.16 0-13.71 9.533-25.55 22.92-28.49-2.494-0.4437-5.029-0.6716-7.572-0.6716z" fill="#ebdbb2" stroke-width="8.596"/>
  <path d="m57.67 85.88c-0.1942 0.01456-0.3807 0.04977-0.5695 0.1006l-5.695 1.524c-0.7551 0.2023-1.401 0.6954-1.792 1.373-0.3916 0.6782-0.487 1.473-0.2847 2.228l3.048 11.39c0.2024 0.755 0.6953 1.401 1.373 1.792 0.6782 0.3916 1.489 0.5038 2.244 0.3015l5.695-1.524c0.755-0.2023 1.384-0.6954 1.775-1.373 0.3916-0.6782 0.5039-1.489 0.3015-2.244l-3.048-11.39c-0.2023-0.755-0.6953-1.401-1.373-1.792-0.3391-0.1958-0.7087-0.3186-1.089-0.3685-0.19-0.02483-0.392-0.03171-0.5862-0.01715zm28.07 3.702c-0.9165 0.08678-1.78 0.611-2.278 1.474l-5.896 10.2c-0.3916 0.6781-0.487 1.489-0.2847 2.244 0.2024 0.755 0.6954 1.401 1.373 1.792l5.092 2.948c1.416 0.8176 3.219 0.3274 4.037-1.089l5.896-10.2c0.8176-1.416 0.3274-3.219-1.089-4.037l-5.092-2.948c-0.354-0.2044-0.7422-0.3207-1.122-0.3685-0.2138-0.02663-0.425-0.0369-0.6365-0.01715zm-56.38 15.11c-0.9165 0.0868-1.78 0.611-2.278 1.474l-2.948 5.092c-0.3916 0.6782-0.487 1.489-0.2847 2.244 0.2024 0.755 0.6953 1.401 1.373 1.792l10.2 5.896c1.416 0.8176 3.219 0.3274 4.037-1.089l2.948-5.092c0.8176-1.416 0.3273-3.219-1.089-4.037l-10.2-5.896c-0.354-0.2044-0.7422-0.3207-1.122-0.3685-0.2138-0.0265-0.425-0.0369-0.6365-0.0172zm37.1 1.876c-14.12 0-25.73 11.61-25.73 25.73 0 14.12 11.61 25.73 25.73 25.73 14.12 0 25.73-11.61 25.73-25.73 0-14.12-11.61-25.73-25.73-25.73zm41.76 8.492c-0.19 0.0147-0.3807 0.0496-0.5695 0.1007l-11.39 3.048c-0.755 0.2024-1.401 0.6954-1.792 1.373-0.3916 0.6782-0.5039 1.489-0.3015 2.244l1.541 5.695h-0.01715c0.2024 0.755 0.6954 1.384 1.373 1.776 0.6782 0.3916 1.489 0.5038 2.244 0.3015l11.39-3.048c0.755-0.2024 1.401-0.6953 1.792-1.373 0.3916-0.6781 0.5039-1.473 0.3015-2.228l-1.541-5.712c-0.2024-0.755-0.6954-1.401-1.373-1.792-0.3391-0.1958-0.7087-0.3186-1.089-0.3685-0.19-0.0248-0.3795-0.0317-0.5695-0.0173zm-74.03 19.85c-0.1942 0.0102-0.3807 0.0335-0.5695 0.0841l-11.39 3.048c-0.7551 0.2023-1.401 0.6953-1.792 1.373-0.3915 0.6781-0.487 1.489-0.2847 2.244l1.524 5.695c0.2024 0.755 0.6954 1.401 1.373 1.792 0.6782 0.3916 1.473 0.487 2.228 0.2847l11.39-3.048c0.755-0.2024 1.401-0.6953 1.792-1.373 0.3916-0.6782 0.5039-1.489 0.3015-2.244l-1.524-5.695c-0.2024-0.755-0.6954-1.384-1.373-1.775-0.3391-0.1958-0.7087-0.3186-1.089-0.3685-0.19-0.0249-0.392-0.0274-0.5862-0.0171zm61.56 8.107c-0.9165 0.0868-1.78 0.611-2.278 1.474l-2.948 5.092c-0.3916 0.6782-0.487 1.489-0.2847 2.244 0.2024 0.755 0.6954 1.401 1.373 1.792l10.2 5.896c1.416 0.8176 3.219 0.3273 4.037-1.089l2.948-5.092c0.8176-1.416 0.3274-3.219-1.089-4.037l-10.2-5.896c-0.354-0.2044-0.7423-0.3208-1.122-0.3685-0.2138-0.0265-0.425-0.0369-0.6365-0.0172zm-48.32 12.95c-0.9165 0.0868-1.78 0.611-2.278 1.474l-5.896 10.2c-0.3916 0.6782-0.4871 1.489-0.2847 2.244 0.2024 0.755 0.6954 1.401 1.373 1.792l5.092 2.948c1.416 0.8176 3.219 0.3274 4.037-1.089l5.896-10.2c0.8176-1.416 0.3274-3.219-1.089-4.037l-5.092-2.948c-0.354-0.2044-0.7422-0.3207-1.122-0.3685-0.2138-0.0265-0.425-0.0369-0.6365-0.0172zm30.08 3.953c-0.1943 0.0102-0.3807 0.0334-0.5695 0.0841l-5.695 1.541v-0.0172c-0.755 0.2024-1.384 0.6954-1.775 1.373-0.3916 0.6781-0.5038 1.489-0.3015 2.244l3.048 11.39c0.2024 0.755 0.6953 1.401 1.373 1.792 0.6781 0.3916 1.489 0.487 2.244 0.2847l5.695-1.507c0.755-0.2024 1.401-0.6954 1.792-1.373 0.3916-0.6782 0.5039-1.489 0.3015-2.244l-3.065-11.39c-0.2023-0.755-0.6953-1.401-1.373-1.792-0.3391-0.1958-0.7087-0.3186-1.089-0.3685-0.19-0.0249-0.392-0.0274-0.5863-0.0173z" fill="#282828" opacity=".3" stroke-width="8.576"/>
  <path d="m57.67 77.3c-0.1921 0.01285-0.3807 0.04973-0.5695 0.1005l-5.695 1.524c-0.7551 0.2023-1.401 0.6954-1.792 1.373-0.3916 0.6782-0.487 1.473-0.2847 2.228l3.048 11.39c0.2024 0.755 0.6953 1.401 1.373 1.792 0.6782 0.3916 1.489 0.5038 2.244 0.3015l5.695-1.524c0.755-0.2023 1.384-0.6954 1.775-1.373 0.3916-0.6782 0.5039-1.489 0.3015-2.244l-3.048-11.39c-0.2023-0.755-0.6953-1.401-1.373-1.792-0.5086-0.2936-1.099-0.4227-1.675-0.3852zm28.14 3.702c-0.943 0.06603-1.834 0.5889-2.345 1.474l-5.896 10.2c-0.3916 0.6781-0.487 1.489-0.2847 2.244 0.2024 0.755 0.6954 1.401 1.373 1.792l5.092 2.948c1.416 0.8176 3.219 0.3273 4.037-1.089l5.896-10.2c0.8176-1.416 0.3274-3.219-1.089-4.037l-5.092-2.948c-0.531-0.3066-1.126-0.4246-1.692-0.3852zm-56.38 15.11c-0.943 0.06613-1.834 0.5889-2.345 1.474l-2.948 5.092c-0.3916 0.6782-0.487 1.489-0.2847 2.244 0.2024 0.755 0.6953 1.401 1.373 1.792l10.2 5.896c1.416 0.8176 3.219 0.3274 4.037-1.089l2.948-5.092c0.8176-1.416 0.3273-3.219-1.089-4.037l-10.2-5.896c-0.531-0.3066-1.126-0.4246-1.692-0.3852zm37.03 1.876c-14.12 0-25.73 11.61-25.73 25.73 0 14.12 11.61 25.73 25.73 25.73 14.12 0 25.73-11.61 25.73-25.73 0-14.12-11.61-25.73-25.73-25.73zm41.76 8.492c-0.1921 0.0122-0.3807 0.0497-0.5695 0.1004l-11.39 3.048c-0.755 0.2024-1.401 0.6953-1.792 1.373-0.3916 0.6782-0.5039 1.489-0.3015 2.244l1.541 5.695h-0.01714c0.2024 0.755 0.6954 1.384 1.373 1.776 0.6782 0.3916 1.489 0.5038 2.244 0.3015l11.39-3.048c0.755-0.2024 1.401-0.6953 1.792-1.373 0.3916-0.6781 0.5039-1.473 0.3015-2.228l-1.541-5.712c-0.2024-0.755-0.6954-1.401-1.373-1.792-0.5086-0.2937-1.082-0.4227-1.658-0.3852zm-74.03 19.83c-0.1921 0.0135-0.3807 0.0496-0.5695 0.1004l-11.39 3.048c-0.7551 0.2024-1.401 0.6954-1.792 1.374-0.3915 0.6781-0.487 1.489-0.2847 2.244l1.524 5.695c0.2024 0.755 0.6954 1.401 1.373 1.792 0.6782 0.3916 1.473 0.487 2.228 0.2847l11.39-3.048c0.755-0.2024 1.401-0.6954 1.792-1.374 0.3916-0.6782 0.5039-1.489 0.3015-2.244l-1.524-5.695c-0.2024-0.755-0.6954-1.384-1.373-1.775-0.5086-0.2937-1.099-0.4394-1.675-0.402zm61.62 8.124c-0.943 0.0661-1.834 0.5889-2.345 1.474l-2.948 5.092c-0.3916 0.6782-0.487 1.489-0.2847 2.244 0.2024 0.755 0.6954 1.401 1.373 1.792l10.2 5.896c1.416 0.8176 3.219 0.3273 4.037-1.089l2.948-5.092c0.8176-1.416 0.3274-3.219-1.089-4.037l-10.2-5.896c-0.5311-0.3066-1.126-0.4246-1.692-0.3852zm-48.32 12.95c-0.943 0.0661-1.834 0.5889-2.345 1.474l-5.896 10.2c-0.3916 0.6782-0.4871 1.489-0.2847 2.244 0.2024 0.755 0.6954 1.401 1.373 1.792l5.092 2.948c1.416 0.8176 3.219 0.3274 4.037-1.089l5.896-10.2c0.8176-1.416 0.3274-3.219-1.089-4.037l-5.092-2.948c-0.531-0.3066-1.126-0.4246-1.692-0.3852zm30.03 3.953c-0.1921 0.0136-0.3975 0.0335-0.5863 0.0841l-5.695 1.541v-0.0171c-0.755 0.2024-1.384 0.6954-1.775 1.373-0.3916 0.6781-0.5038 1.489-0.3015 2.244l3.048 11.39c0.2024 0.755 0.6953 1.401 1.373 1.792 0.6781 0.3916 1.489 0.487 2.244 0.2847l5.695-1.507c0.755-0.2024 1.401-0.6954 1.792-1.373 0.3916-0.6782 0.5039-1.489 0.3015-2.244l-3.065-11.39c-0.2023-0.755-0.6953-1.401-1.373-1.792-0.5086-0.2936-1.082-0.4227-1.658-0.3852z" fill="#ebdbb2" stroke-width="8.576"/>
  <path d="m165 12-1.299 4h1.299c68 0 80 15 80 83v56c0 66-12 81-80 81h-72.7l-1.299 4h74c72 0 85-15 85-85v-56c0-72-13-87-85-87z" fill="url(#linearGradient13)" style="isolation:isolate"/>
  <path d="m91 12c-72 0-85 15-85 87v56c0 70 13 85 85 85l1.299-4h-1.299c-68 0-80-15-80-81v-56c0-68 12-83 80-83h72.7l1.299-4h-74z" fill="url(#linearGradient31)" style="isolation:isolate"/>
</svg>
