<svg width="256" height="256" version="1.1" xmlns="http://www.w3.org/2000/svg" xmlns:xlink="http://www.w3.org/1999/xlink">
  <linearGradient id="b" x1=".5002" x2=".5002" y2="1" gradientTransform="matrix(244,0,0,228,5.981,12)" gradientUnits="userSpaceOnUse">
    <stop stop-color="#ebdbb2" offset="0"/>
    <stop stop-color="#d5c4a1" offset="1"/>
  </linearGradient>
  <defs>
    <linearGradient id="linearGradient10" x1="128" x2="128" y1="12" y2="240" gradientUnits="userSpaceOnUse">
      <stop stop-color="#282828" stop-opacity=".1" offset="0"/>
      <stop stop-color="#282828" stop-opacity=".05" offset=".1966"/>
      <stop stop-color="#282828" stop-opacity="0" offset=".50485"/>
      <stop stop-color="#282828" stop-opacity=".1" offset=".74636"/>
      <stop stop-color="#282828" stop-opacity=".2" offset="1"/>
    </linearGradient>
    <linearGradient id="sponge_shading" x1="30.11" x2="89.888" y1="120.19" y2="120.19" gradientTransform="matrix(1.7077 .26272 -.26272 1.7077 37.693 -.33103)" gradientUnits="userSpaceOnUse">
      <stop stop-color="#b57614" offset="0"/>
      <stop stop-color="#d79921" offset=".097354"/>
      <stop stop-color="#d79921" offset=".28912"/>
      <stop stop-color="#b57614" offset=".45415"/>
      <stop stop-color="#d79921" offset=".66135"/>
      <stop stop-color="#d79921" offset="1"/>
    </linearGradient>
    <radialGradient id="radialGradient10" cx="120.13" cy="211.19" r="56.226" gradientTransform="matrix(1.2199 0 0 1.0466 -33.499 -44.889)" gradientUnits="userSpaceOnUse">
      <stop stop-color="#282828" offset="0"/>
      <stop stop-color="#282828" stop-opacity="0" offset="1"/>
    </radialGradient>
  </defs>
  <path d="m165 12c72 0 85 15 85 87v56c0 70-13 85-85 85h-74c-72 0-85-15-85-85v-56c0-72 13-87 85-87z" fill="url(#b)" style="isolation:isolate"/>
  <ellipse cx="113.06" cy="176.15" rx="68.592" ry="58.848" fill="url(#radialGradient10)" opacity=".4" stroke-linecap="round" stroke-linejoin="round" stroke-width="2.6862"/>
  <path d="m123.31 39.386c-9.8045-0.66698-21.08 1.5977-34.018 7.6784-24.749 11.632-33.277 33.189-32.15 54.642 1.1269 21.453 11.003 43.177 22.113 58.595a4.3679 4.3679 0 0 0 6.0944 0.99048 4.3679 4.3679 0 0 0 0.99049-6.0961c-10.243-14.217-19.475-34.913-20.475-53.946-0.99995-19.034 5.3245-36.025 27.147-46.281 15.927-7.4858 27.758-8.2702 37.226-5.5704 9.468 2.7 16.95 9.0874 23.504 17.237 6.5526 8.1493 12.023 17.952 17.402 26.813 5.3796 8.8617 10.513 16.923 17.804 21.392a4.3679 4.3679 0 0 0 6.0073-1.4413 4.3679 4.3679 0 0 0-1.4431-6.0056c-4.6162-2.8296-9.6527-9.8315-14.903-18.48s-10.865-18.802-18.06-27.751c-7.1955-8.9488-16.123-16.799-27.918-20.163-2.949-0.84096-6.0519-1.3896-9.32-1.6119zm-3.9028 18.847c-7.2102-0.13362-15.429 1.9947-24.773 6.8098-15.989 8.2388-22.326 25.706-18.633 45.219 3.6929 19.514 16.683 41.692 38.887 62.771a4.3679 4.3679 0 0 0 6.1762-0.15667 4.3679 4.3679 0 0 0-0.16189-6.1779c-21.205-20.133-33.102-41.08-36.317-58.063-3.2148-16.983 1.5273-29.378 14.05-35.83 12.892-6.6434 21.428-7.0026 28.146-4.4111 6.7177 2.5915 12.252 8.694 17.582 16.772 10.658 16.156 19.627 39.739 40.314 49.486a4.3679 4.3679 0 0 0 5.8141-2.0906 4.3679 4.3679 0 0 0-2.0906-5.8141c-16.454-7.7537-25.303-29.04-36.747-46.387-5.7218-8.6734-12.305-16.481-21.728-20.116-2.3558-0.90884-4.8494-1.5235-7.487-1.8173h-2e-3c-0.98915-0.1102-1.9989-0.17588-3.0289-0.19496zm-3.438 18.87c-1.8298 0.03341-3.7431 0.28464-5.7288 0.77986-9.4171 2.3484-15.346 8.8919-16.675 16.765-1.3289 7.8732 1.0222 16.616 5.2466 25.692 8.4491 18.15 24.922 37.85 41.813 51.269a4.3679 4.3679 0 0 0 6.1379-0.70327 4.3679 4.3679 0 0 0-0.70327-6.1379c-15.762-12.52-31.715-31.759-39.329-48.111-3.806-8.1759-5.3922-15.575-4.5521-20.553 0.84018-4.9781 3.1873-7.9993 10.173-9.7412 5.969-1.4887 8.4606-0.53912 11.393 2.1829 2.9326 2.7221 5.8676 8.0114 9.4314 14.742 7.1274 13.462 17.33 32.345 41.832 46.624a4.3679 4.3679 0 0 0 5.9725-1.5754 4.3679 4.3679 0 0 0-1.5736-5.9708c-22.556-13.145-31.404-29.743-38.511-43.165-3.5533-6.7116-6.5295-12.716-11.21-17.061-3.5107-3.2585-8.2277-5.1345-13.717-5.0342zm0.55357 19.89a4.3679 4.3679 0 0 0-1.6798 0.28549 4.3679 4.3679 0 0 0-2.5224 5.64c15.41 40.379 48.339 60.072 48.339 60.072a4.3679 4.3679 0 0 0 5.9934-1.497 4.3679 4.3679 0 0 0-1.4988-5.9934s-30.401-18.298-44.673-55.695a4.3679 4.3679 0 0 0-3.9585-2.8113z" fill="#fbf1c7" opacity=".6" stroke-width="2.184"/>
  <path d="m123.31 35.719c-9.8045-0.66698-21.08 1.5977-34.018 7.6784-24.749 11.632-33.277 33.189-32.15 54.642 1.1269 21.453 11.003 43.177 22.113 58.595a4.3679 4.3679 0 0 0 6.0944 0.99048 4.3679 4.3679 0 0 0 0.99049-6.0961c-10.243-14.217-19.475-34.913-20.475-53.946-0.99995-19.034 5.3245-36.025 27.147-46.281 15.927-7.4858 27.758-8.2702 37.226-5.5704 9.468 2.7 16.95 9.0874 23.504 17.237 6.5526 8.1493 12.023 17.952 17.402 26.813 5.3796 8.8617 10.513 16.923 17.804 21.392a4.3679 4.3679 0 0 0 6.0073-1.4413 4.3679 4.3679 0 0 0-1.4431-6.0056c-4.6162-2.8296-9.6527-9.8315-14.903-18.48s-10.865-18.802-18.06-27.751c-7.1955-8.9488-16.123-16.799-27.918-20.163-2.949-0.84096-6.0519-1.3896-9.32-1.6119zm-3.9028 18.847c-7.2102-0.13362-15.429 1.9947-24.773 6.8098-15.989 8.2388-22.326 25.706-18.633 45.219 3.6929 19.514 16.683 41.692 38.887 62.771a4.3679 4.3679 0 0 0 6.1762-0.15667 4.3679 4.3679 0 0 0-0.16189-6.1779c-21.205-20.133-33.102-41.08-36.317-58.063-3.2148-16.983 1.5273-29.378 14.05-35.83 12.892-6.6434 21.428-7.0026 28.146-4.4111 6.7177 2.5915 12.252 8.694 17.582 16.772 10.658 16.156 19.627 39.739 40.314 49.486a4.3679 4.3679 0 0 0 5.8141-2.0906 4.3679 4.3679 0 0 0-2.0906-5.8141c-16.454-7.7537-25.303-29.04-36.747-46.387-5.7218-8.6734-12.305-16.481-21.728-20.116-2.3558-0.90884-4.8494-1.5235-7.487-1.8173h-2e-3c-0.98915-0.1102-1.9989-0.17588-3.0289-0.19496zm-3.438 18.87c-1.8298 0.03341-3.7431 0.28464-5.7288 0.77986-9.4171 2.3484-15.346 8.8919-16.675 16.765-1.3289 7.8732 1.0222 16.616 5.2466 25.692 8.4491 18.15 24.922 37.85 41.813 51.269a4.3679 4.3679 0 0 0 6.1379-0.70327 4.3679 4.3679 0 0 0-0.70327-6.1379c-15.762-12.52-31.715-31.759-39.329-48.111-3.806-8.1759-5.3922-15.575-4.5521-20.553 0.84018-4.9781 3.1873-7.9993 10.173-9.7412 5.969-1.4887 8.4606-0.53912 11.393 2.1829 2.9326 2.7221 5.8676 8.0114 9.4314 14.742 7.1274 13.462 17.33 32.345 41.832 46.624a4.3679 4.3679 0 0 0 5.9725-1.5754 4.3679 4.3679 0 0 0-1.5736-5.9708c-22.556-13.145-31.404-29.743-38.511-43.165-3.5533-6.7116-6.5295-12.716-11.21-17.061-3.5107-3.2585-8.2277-5.1345-13.717-5.0342zm0.55357 19.89a4.3679 4.3679 0 0 0-1.6798 0.28549 4.3679 4.3679 0 0 0-2.5224 5.64c15.41 40.379 48.339 60.072 48.339 60.072a4.3679 4.3679 0 0 0 5.9934-1.497 4.3679 4.3679 0 0 0-1.4988-5.9934s-30.401-18.298-44.673-55.695a4.3679 4.3679 0 0 0-3.9585-2.8113z" fill="#8f3f71" stroke-width="2.184"/>
  <path d="m123.31 35.719c-9.8045-0.66698-21.08 1.597-34.018 7.6777-24.04 11.299-32.775 31.964-32.223 52.801 0.5264-19.564 9.5944-38.498 32.223-49.133 12.937-6.0807 24.213-8.3447 34.018-7.6777l2e-3 2e-3c3.2681 0.22233 6.3713 0.77037 9.3203 1.6113 11.796 3.3638 20.722 11.215 27.918 20.164 7.1955 8.9488 12.811 19.102 18.061 27.75 5.2498 8.6483 10.286 15.651 14.902 18.48a4.3679 4.3679 0 0 1 1.6758 1.8965 4.3679 4.3679 0 0 0-1.6758-5.5645c-4.6162-2.8296-9.6525-9.8322-14.902-18.48-5.2498-8.6483-10.865-18.801-18.061-27.75-7.1955-8.9488-16.122-16.8-27.918-20.164-2.949-0.84096-6.0522-1.389-9.3203-1.6113zm-3.9023 18.848c-7.2102-0.13362-15.428 1.9935-24.771 6.8086-13.563 6.9889-20.181 20.62-19.623 36.506 0.51432-14.301 7.1161-26.393 19.623-32.838 9.3435-4.8151 17.561-6.9422 24.771-6.8086 1.03 0.01909 2.0402 0.08316 3.0293 0.19336h2e-3c2.6376 0.29388 5.1305 0.90952 7.4863 1.8184 9.4234 3.6352 16.007 11.442 21.729 20.115 11.444 17.347 20.294 38.635 36.748 46.389a4.3679 4.3679 0 0 1 2.0977 2.125 4.3679 4.3679 0 0 0-2.0977-5.793c-16.454-7.7537-25.304-29.039-36.748-46.387-5.7218-8.6734-12.305-16.482-21.729-20.117-2.3558-0.90884-4.8488-1.5225-7.4863-1.8164h-2e-3c-0.98915-0.1102-1.9993-0.17622-3.0293-0.19531zm-3.4375 18.869c-1.8298 0.03341-3.7429 0.28408-5.7285 0.7793-9.4171 2.3484-15.347 8.8924-16.676 16.766-0.35158 2.0829-0.44456 4.2272-0.31445 6.4219 0.0582-0.92901 0.1614-1.8471 0.31445-2.7539 1.329-7.8732 7.2587-14.417 16.676-16.766 1.9857-0.49522 3.8987-0.74589 5.7285-0.7793v2e-3c5.4894-0.10024 10.206 1.7747 13.717 5.0332 4.6809 4.3448 7.6576 10.351 11.211 17.062 7.1066 13.423 15.954 30.019 38.51 43.164a4.3679 4.3679 0 0 1 1.7559 1.9414 4.3679 4.3679 0 0 0-1.7559-5.6074c-22.556-13.145-31.403-29.743-38.51-43.166-3.5533-6.7116-6.53-12.716-11.211-17.061-3.5107-3.2585-8.2274-5.1354-13.717-5.0352zm0.55273 19.891a4.3679 4.3679 0 0 0-1.6797 0.28516 4.3679 4.3679 0 0 0-2.5215 5.6406c0.0365 0.09575 0.0726 0.18964 0.10938 0.28516a4.3679 4.3679 0 0 1 2.4121-2.2578 4.3679 4.3679 0 0 1 1.6797-0.28711 4.3679 4.3679 0 0 1 3.959 2.8125c14.272 37.397 44.674 55.695 44.674 55.695a4.3679 4.3679 0 0 1 1.709 1.916 4.3679 4.3679 0 0 0-1.709-5.584s-30.402-18.298-44.674-55.695a4.3679 4.3679 0 0 0-3.959-2.8105zm-50.732 2.377c-0.05095 1.8265-0.02209 3.6765 0.07617 5.5469 1 19.033 10.232 39.73 20.475 53.947a4.3679 4.3679 0 0 1 0.41407 0.72656 4.3679 4.3679 0 0 0-0.41407-4.3945c-10.243-14.217-19.475-34.912-20.475-53.945-0.03305-0.62904-0.05942-1.2564-0.07617-1.8809zm17.859 1.3848c-0.15613 3.566 0.15423 7.4214 0.93555 11.549 3.2148 16.983 15.113 37.929 36.318 58.062a4.3679 4.3679 0 0 1 0.95118 1.3301 4.3679 4.3679 0 0 0-0.95118-4.9981c-21.205-20.133-33.104-41.08-36.318-58.062-0.52052-2.7497-0.83147-5.3774-0.93555-7.8809zm18.391 0.07422c-0.47334 4.9388 1.1465 11.879 4.6914 19.494 7.6133 16.351 23.566 35.591 39.328 48.111a4.3679 4.3679 0 0 1 1.2402 1.5898 4.3679 4.3679 0 0 0-1.2402-5.2578c-15.762-12.52-31.715-31.76-39.328-48.111-2.7382-5.882-4.328-11.361-4.6914-15.826z" fill="#282828" opacity=".3" stroke-width="2.184"/>
  <path d="m65.658 160.03 101.82 17.431s-0.67384 4.2659-1.7542 11.403c-0.50852 3.3621-1.8102 6.6624-4.0177 9.5743l-16.7 22.03c-6.9388 9.1537-19.894 10.936-29.048 3.9972-7.3166-5.5449-10.539-16.66-17.855-22.207-7.3707-5.5864-18.835-5.6056-26.206-11.192-6.2988-4.7747-9.1074-12.399-7.9861-19.671 0.50841-3.2967 1.7484-11.365 1.7484-11.365z" fill="url(#sponge_shading)" stroke-width="1.7278"/>
  <path d="m244.16 45.002c-106.98 8.8269-147.32 90.312-147.32 90.312l59.23 46.518s48.271-60.49 93.928-56.533v-26.299c0-23.656-1.4036-41.159-5.8418-53.998z" fill="#ebdbb2" opacity=".8" style="isolation:isolate"/>
  <path d="m69.649 150.64 16.7-22.03c6.9388-9.1536 19.894-10.937 29.048-3.9977 7.4415 5.641 10.414 16.567 17.855 22.207 7.2455 5.4925 18.961 5.7002 26.206 11.193 9.1537 6.939 10.937 19.894 3.9977 29.048l-16.7 22.03c-6.9388 9.1538-19.894 10.937-29.048 3.9989-7.3163-5.5466-10.539-16.662-17.854-22.209-7.3707-5.5864-18.836-5.6039-26.206-11.192-9.1537-6.9388-10.937-19.894-3.9977-29.048z" fill="#fabd2f" stroke-width="1.7278"/>
  <path d="m91 12c-72 0-85 15-85 87v56c0 70 13 85 85 85h74c72 0 85-15 85-85v-56c0-72-13-87-85-87zm0 5h74c35.653 0 55.307 3.9448 65.895 14.965 10.588 11.02 14.105 31.336 14.105 67.035v56c0 34.69-3.4936 54.457-14.07 65.25-10.577 10.793-30.277 14.75-65.93 14.75h-74c-35.653 0-55.353-3.9574-65.93-14.75-10.577-10.793-14.07-30.56-14.07-65.25v-56c0-35.699 3.5176-56.015 14.105-67.035 10.588-11.02 30.242-14.965 65.895-14.965z" fill="url(#linearGradient10)" style="isolation:isolate"/>
</svg>
