<svg width="256" height="256" version="1.1" xmlns="http://www.w3.org/2000/svg" xmlns:xlink="http://www.w3.org/1999/xlink">
  <defs>
    <linearGradient id="linearGradient6" x1="140" x2="140" y1="12" y2="240" gradientUnits="userSpaceOnUse">
      <stop stop-color="#076678" offset="0"/>
      <stop stop-color="#8ec07c" offset="1"/>
    </linearGradient>
    <linearGradient id="linearGradient9" x1="83.757" x2="183.29" y1="76.376" y2="93.24" gradientUnits="userSpaceOnUse">
      <stop stop-color="#83a598" offset="0"/>
      <stop stop-color="#8ec07c" offset="1"/>
    </linearGradient>
    <linearGradient id="linearGradient10-7" x1="128" x2="128" y1="12" y2="240" gradientUnits="userSpaceOnUse">
      <stop stop-color="#ebdbb2" stop-opacity=".2" offset="0"/>
      <stop stop-color="#ebdbb2" stop-opacity="0" offset=".24921"/>
      <stop stop-color="#1d2021" stop-opacity=".05" offset=".50485"/>
      <stop stop-color="#1d2021" stop-opacity=".15" offset=".75285"/>
      <stop stop-color="#1d2021" stop-opacity=".25" offset="1"/>
    </linearGradient>
  </defs>
  <path d="m165 12c72 0 85 15 85 87v56c0 70-13 85-85 85h-74c-72 0-85-15-85-85v-56c0-72 13-87 85-87z" fill="url(#linearGradient6)" style="isolation:isolate"/>
  <path class="cls-1" d="m192.1 169.59c-7.6204 7.4982-19.441 9.2781-28.849 9.3243-29.396 0-55.003-22.605-55.003-48.552 0.0768-7.0865 3.9815-13.577 10.207-16.965-26.588 1.1181-33.422 28.823-33.422 45.055 0 45.893 42.299 50.546 51.412 50.546 4.9138 0 12.325-1.4288 16.773-2.8326l0.81377-0.27315c17.116-5.9169 31.708-17.484 41.373-32.799 1.3804-2.1748-1.0531-4.7547-3.3049-3.5035z" fill="#282828" opacity=".2" stroke-width="3.9761"/>
  <path class="cls-1" d="m192.1 164.86c-7.6204 7.4982-19.441 9.2781-28.849 9.3243-29.396 0-55.003-22.605-55.003-48.552 0.0768-7.0865 3.9815-13.577 10.207-16.965-26.588 1.1181-33.422 28.823-33.422 45.055 0 45.893 42.299 50.546 51.412 50.546 4.9138 0 12.325-1.4288 16.773-2.8326l0.81377-0.27315c17.116-5.9169 31.708-17.484 41.373-32.799 1.3804-2.1748-1.0531-4.7547-3.3049-3.5035z" fill="#076678" stroke-width="3.9761"/>
  <path class="cls-3" d="m111.78 201.17c-5.5409-3.4389-10.343-7.9449-14.127-13.256-18.36-25.153-7.2066-60.782 20.73-74.543 1.9382-0.91314 5.2493-2.5655 9.6538-2.4848 6.2905 0.0458 12.197 3.0343 15.959 8.0754 2.5086 3.3493 3.8918 7.4072 3.951 11.591 0-0.13044 15.195-49.447-49.698-49.447-27.272 0-49.698 25.879-49.698 48.583-0.10775 12.01 2.4623 23.894 7.523 34.787 17.119 36.525 58.877 54.444 97.146 41.688-13.101 4.1304-29.739 2.3143-41.385-4.9695z" fill="#282828" opacity=".2" stroke-width="3.9761"/>
  <path class="cls-3" d="m111.78 196.44c-5.5409-3.4389-10.343-7.9449-14.127-13.256-18.36-25.153-7.2066-60.782 20.73-74.543 1.9382-0.91314 5.2493-2.5655 9.6538-2.4848 6.2905 0.0458 12.197 3.0343 15.959 8.0754 2.5086 3.3493 3.8918 7.4072 3.951 11.591 0-0.13044 15.195-49.447-49.698-49.447-27.272 0-49.698 25.879-49.698 48.583-0.10775 12.01 2.4623 23.894 7.523 34.787 17.119 36.525 58.877 54.444 97.146 41.688-13.101 4.1304-29.739 2.3143-41.385-4.9695z" fill="#458588" stroke-width="3.9761"/>
  <path class="cls-5" d="m143.18 141.6c-0.50322 0.65227-2.0501 1.553-2.0501 3.5159 0 1.6213 1.0561 3.1805 2.9322 4.4912 8.9331 6.2119 25.774 5.3919 25.818 5.3919 6.6192-0.0159 13.113-1.8071 18.804-5.1869 11.682-6.821 18.876-16.937 18.904-30.464 0.16142-13.921-4.9698-23.177-7.0446-27.276-13.164-25.748-41.578-40.557-72.478-40.557-43.483-0.0043-78.905 34.918-79.516 78.394 0.2982-22.698 22.861-42.62 49.698-42.62 2.1743 0 14.574 0.21121 26.091 6.2554 10.151 5.3298 15.468 13.356 19.165 19.735 5.3724 10.137 5.6036 20.582-0.32286 28.321z" fill="#282828" opacity=".2" stroke-width="3.9761"/>
  <path class="cls-5" d="m143.3 136.6c-0.50322 0.65227-2.0501 1.553-2.0501 3.5159 0 1.6213 1.0561 3.1805 2.9322 4.4912 8.9331 6.2119 25.774 5.3919 25.818 5.3919 6.6192-0.0159 13.113-1.8071 18.804-5.1869 11.682-6.821 18.876-16.937 18.904-30.464 0.16142-13.921-4.9698-23.177-7.0446-27.276-13.164-25.748-41.578-40.557-72.478-40.557-43.483-0.0043-78.905 34.918-79.516 78.394 0.2982-22.698 22.861-42.62 49.698-42.62 2.1743 0 14.574 0.21121 26.091 6.2554 10.151 5.3298 15.468 13.356 19.165 19.735 5.3724 10.137 5.6036 20.582-0.32286 28.321z" fill="url(#linearGradient9)" stroke-width="3.9761"/>
  <path class="cls-5" d="m128.19 46.515c-43.445-0.0043-78.843 34.857-79.514 78.281 0.05041-3.079 0.5096-6.1062 1.334-9.0391 7.131-36.66 39.41-64.246 78.057-64.242 30.899 0 59.315 14.808 72.479 40.557 1.9778 3.908 6.7324 12.501 7.0332 25.354 0.0866-1.0052 0.13262-2.0302 0.13476-3.0762 0.16142-13.921-4.97-23.178-7.0449-27.277-13.164-25.748-41.579-40.557-72.479-40.557zm19.318 79.836c-0.48233 3.7149-1.8626 7.1939-4.2031 10.25-0.50322 0.65227-2.0508 1.5526-2.0508 3.5156 0 0.8767 0.30839 1.734 0.88867 2.5449 0.40143-0.4462 0.81969-0.7762 1.0391-1.0606 3.3653-4.3942 4.7458-9.6621 4.3262-15.25z" fill="#ebdbb2" opacity=".2" stroke-width="3.9761"/>
  <path d="m91 12c-72 0-85 15-85 87v56c0 70 13 85 85 85h74c72 0 85-15 85-85v-56c0-72-13-87-85-87zm0 5h74c35.653 0 55.307 3.9448 65.895 14.965 10.588 11.02 14.105 31.336 14.105 67.035v56c0 34.69-3.4936 54.457-14.07 65.25-10.577 10.793-30.277 14.75-65.93 14.75h-74c-35.653 0-55.353-3.9574-65.93-14.75-10.577-10.793-14.07-30.56-14.07-65.25v-56c0-35.699 3.5176-56.015 14.105-67.035 10.588-11.02 30.242-14.965 65.895-14.965z" fill="url(#linearGradient10-7)" style="isolation:isolate"/>
</svg>
