<svg xmlns="http://www.w3.org/2000/svg" width="256" height="256" viewBox="0 0 67.73 67.73">
    <defs>
        <linearGradient id="d" x1="296" x2="296" y1="-212" y2="236" gradientUnits="userSpaceOnUse">
            <stop offset="0" stop-color="#ebdbb2"/>
            <stop offset=".125" stop-color="#ebdbb2" stop-opacity=".098"/>
            <stop offset=".925" stop-opacity=".098"/>
            <stop offset="1" stop-opacity=".498"/>
        </linearGradient>
        <clipPath id="c">
            <path d="M361.938-212C507.235-212 528-191.287 528-46.125v116.25C528 215.286 507.235 236 361.937 236H214.063C68.766 236 48 215.286 48 70.125v-116.25C48-191.287 68.765-212 214.063-212z" fill="#b16286"/>
        </clipPath>
        <filter id="b" width="1.023" height="1.025" x="-.01" y="-.01" color-interpolation-filters="sRGB">
            <feGaussianBlur stdDeviation="1.16"/>
        </filter>
        <filter id="a" width="1.046" height="1.05" x="-.02" y="-.03" color-interpolation-filters="sRGB">
            <feGaussianBlur stdDeviation="2.32"/>
        </filter>
        <filter id="e" width="1.24" height="1.96" x="-.12" y="-.48" color-interpolation-filters="sRGB">
            <feGaussianBlur stdDeviation=".444"/>
        </filter>
        <filter id="f" width="1.24" height="1.96" x="-.12" y="-.48" color-interpolation-filters="sRGB">
            <feGaussianBlur stdDeviation=".444"/>
        </filter>
        <filter id="g" width="1.24" height="1.96" x="-.12" y="-.48" color-interpolation-filters="sRGB">
            <feGaussianBlur stdDeviation=".444"/>
        </filter>
        <filter id="h" width="1.24" height="1.24" x="-.12" y="-.12" color-interpolation-filters="sRGB">
            <feGaussianBlur stdDeviation=".444"/>
        </filter>
        <filter id="i" width="1.24" height="1.24" x="-.12" y="-.12" color-interpolation-filters="sRGB">
            <feGaussianBlur stdDeviation=".444"/>
        </filter>
        <filter id="j" width="1.091" height="1.101" x="-.05" y="-.05" color-interpolation-filters="sRGB">
            <feGaussianBlur stdDeviation=".845"/>
        </filter>
    </defs>
    <path d="M162.537 5.568c72.648 0 83.031 10.357 83.031 82.938v58.125c0 72.58-10.383 82.937-83.031 82.937H88.599c-72.648 0-83.031-10.357-83.031-82.937V88.506c0-72.581 10.383-82.938 83.031-82.938z" transform="matrix(.2646 0 0 .2646 -.203 3.683)" opacity=".2" filter="url(#a)"/>
    <path d="M162.537 3.568c72.648 0 83.031 10.357 83.031 82.938v58.125c0 72.58-10.383 82.937-83.031 82.937H88.599c-72.648 0-83.031-10.357-83.031-82.937V86.506c0-72.581 10.383-82.938 83.031-82.938z" transform="matrix(.2646 0 0 .2646 -.203 3.683)" opacity=".1" filter="url(#b)"/>
    <path d="M42.805 4.627c19.223 0 21.97 2.74 21.97 21.946v15.38c0 19.205-2.747 21.946-21.97 21.946H23.24c-19.224 0-21.97-2.74-21.97-21.946v-15.38c0-19.205 2.746-21.946 21.97-21.946z" fill="#fb4934"/>
    <path d="M361.938-212C507.235-212 528-191.287 528-46.125v116.25C528 215.286 507.235 236 361.937 236H214.063C68.766 236 48 215.286 48 70.125v-116.25C48-191.287 68.765-212 214.063-212z" clip-path="url(#c)" transform="translate(-5.08 32.676) scale(.1323)" opacity=".4" fill="none" stroke="url(#d)" stroke-width="8" stroke-linecap="round" stroke-linejoin="round"/>
    <path d="M23.24 63.899c-19.223 0-21.97-2.74-21.97-21.946v-7.69h63.505v7.69c0 19.205-2.747 21.946-21.97 21.946z" opacity=".1" fill="#ebdbb2"/>
    <g transform="matrix(.98108 0 0 .98108 -.463 -223.372)">
        <path d="M50.8 262.605c0-18.464-7.407-20.003-22.225-20.003-14.817 0-22.225 1.539-22.225 20.003s7.408 20.002 22.225 20.002c14.818 0 22.225-1.538 22.225-20.002z" fill="#282828"/>
        <path d="M53.023 271.495v2.222h8.89v-2.222z" opacity=".3" filter="url(#e)"/>
        <path d="M53.023 271.495v2.222h8.89v-2.222z" fill="#282828"/>
        <path d="M53.023 275.94v2.222h8.89v-2.222z" opacity=".3" filter="url(#f)"/>
        <path d="M53.023 275.94v2.222h8.89v-2.222z" fill="#282828"/>
        <path d="M53.023 280.385v2.222h8.89v-2.222z" opacity=".3" filter="url(#g)"/>
        <path d="M53.023 280.385v2.222h8.89v-2.222z" fill="#282828"/>
        <circle cx="57.468" cy="251.492" r="4.445" opacity=".3" filter="url(#h)"/>
        <circle cx="57.468" cy="251.492" r="4.445" fill="#ebdbb2"/>
        <circle cx="57.468" cy="262.605" r="4.445" opacity=".3" filter="url(#i)"/>
        <circle cx="57.468" cy="262.605" r="4.445" fill="#ebdbb2"/>
        <path d="M50.8 262.605c0-18.464-7.407-20.003-22.225-20.003-14.817 0-22.225 1.539-22.225 20.003s7.408 20.002 22.225 20.002c14.818 0 22.225-1.538 22.225-20.002z" opacity=".3" fill="#282828" filter="url(#j)"/>
        <path d="M39.688 262.604l-8.89 5.556-8.89 5.557v-22.225l8.89 5.556z" fill="#ebdbb2"/>
    </g>
</svg>
