<svg width="256" height="256" version="1.1" xmlns="http://www.w3.org/2000/svg">
  <linearGradient id="b" x1=".5002" x2=".5002" y2="1" gradientTransform="matrix(244,0,0,228,5.981,12)" gradientUnits="userSpaceOnUse">
    <stop stop-color="#ebdbb2" offset="0"/>
    <stop stop-color="#d5c4a1" offset="1"/>
  </linearGradient>
  <defs>
    <linearGradient id="linearGradient31" x1=".5002" x2=".5002" y2="1" gradientTransform="matrix(244,0,0,228,5.988,12)" gradientUnits="userSpaceOnUse">
      <stop stop-color="#282828" stop-opacity=".1" offset="0"/>
      <stop stop-color="#bdae93" stop-opacity=".1" offset=".1"/>
      <stop stop-color="#d5c4a1" stop-opacity="0" offset=".7022"/>
      <stop stop-color="#bdae93" stop-opacity=".302" offset=".9"/>
      <stop stop-color="#282828" stop-opacity=".15" offset="1"/>
    </linearGradient>
  </defs>
  <path d="m165 12c72 0 85 15 85 87v56c0 70-13 85-85 85h-74c-72 0-85-15-85-85v-56c0-72 13-87 85-87z" fill="url(#b)" style="isolation:isolate"/>
  <path d="m127.8 52.442c-9.9391-0.26716-19.519 1.9422-27.979 6.8984-30.161 17.673-35.257 63.829-10.805 103.21 0.25851 0.41632 0.53203 0.81529 0.79492 1.2266-10.285 2.2234-19.707 3.5486-27.525 3.7422-10.12 0.25051-24.206-1.8773-28.236-10.949-3.6077-8.1327 9.9648-24.738 9.9648-24.738l-0.05078-8e-3s-18.473 17.223-17.025 27.982c1.9897 14.836 21.067 17.199 36.123 17.037 7.472-0.0841 18.897-1.9214 32.285-5.1797 25.067 32.569 64.329 45.524 91.848 29.404 24.546-14.378 32.514-47.685 21.346-80.885 12.686-10.936 20.719-22.905 20.604-35.392-0.14002-16.156-29.893-17.592-29.893-16.631 0 0 22.063 5.4083 21.588 15.82-0.4099 8.8622-6.4369 17.969-16.002 26.768-1.8527-4.1243-3.9916-8.2207-6.4551-12.248-17.431-28.514-45.182-45.37-70.582-46.053zm-2.3086 6.5625c23.682-0.33852 50.43 15.68 67.055 42.859 2.7043 4.4204 5.0115 8.9331 6.9336 13.479-25.108 20.232-67.742 38.205-102.69 46.811-0.66395-0.99121-1.3194-1.9942-1.9551-3.0176-22.341-35.979-18.487-78.332 8.4902-94.148 6.7234-3.94 14.276-5.8696 22.17-5.9824zm77.391 65.736c8.9425 29.315 2.034 58.239-19.195 70.668-23.97 14.045-58.339 2.5226-81.209-25.572 32.521-8.6999 73.945-24.895 100.4-45.096z" fill="#ebdbb2" opacity=".6" stroke-width="1.1582" style="isolation:isolate"/>
  <path d="m127.8 48.24c-9.9391-0.26716-19.519 1.9422-27.979 6.8984-30.161 17.673-35.257 63.829-10.805 103.21 0.25851 0.41632 0.53203 0.81529 0.79492 1.2266-10.285 2.2234-19.707 3.5486-27.525 3.7422-10.12 0.25051-24.206-1.8773-28.236-10.949-3.6077-8.1327 9.9648-24.738 9.9648-24.738l-0.050781-0.00781s-18.473 17.223-17.025 27.982c1.9897 14.836 21.067 17.199 36.123 17.037 7.472-0.08408 18.897-1.9214 32.285-5.1797 25.067 32.569 64.329 45.524 91.848 29.404 24.546-14.378 32.514-47.685 21.346-80.885 12.686-10.936 20.719-22.905 20.604-35.393-0.14002-16.156-29.893-17.592-29.893-16.631 0 0 22.063 5.4083 21.588 15.82-0.4099 8.8622-6.4369 17.969-16.002 26.768-1.8527-4.1243-3.9916-8.2207-6.4551-12.248-17.431-28.514-45.182-45.37-70.582-46.053zm-2.3086 6.5625c23.682-0.33852 50.43 15.68 67.055 42.859 2.7043 4.4204 5.0115 8.9331 6.9336 13.479-25.108 20.232-67.742 38.205-102.69 46.811-0.66395-0.99121-1.3194-1.9942-1.9551-3.0176-22.341-35.979-18.487-78.332 8.4902-94.148 6.7234-3.94 14.276-5.8696 22.17-5.9824zm77.391 65.736c8.9425 29.315 2.034 58.239-19.195 70.668-23.97 14.045-58.339 2.5226-81.209-25.572 32.521-8.6999 73.945-24.895 100.4-45.096z" fill="#3c3836" stroke-width="1.1582" style="isolation:isolate"/>
  <path d="m127.8 48.24c-9.9391-0.26716-19.519 1.9422-27.979 6.8984-17.86 10.465-26.928 30.918-26.279 54.035 0.50283-21.374 9.5107-40.007 26.279-49.832 8.4597-4.9562 18.039-7.1656 27.979-6.8984 25.4 0.68274 53.151 17.539 70.582 46.053 2.4635 4.0274 4.6023 8.1237 6.4551 12.248 9.565-8.7981 15.592-17.905 16.002-26.768 0.0324-0.70946-0.0579-1.3918-0.2207-2.0547-1.1972 8.1806-6.9874 16.53-15.781 24.619-1.8527-4.1243-3.9916-8.2207-6.4551-12.248-17.431-28.514-45.182-45.37-70.582-46.053zm72.73 15.488c-0.81382 0.02119-1.2793 0.10445-1.2793 0.22461 0 0 8.291 2.0424 14.6 6.0176 7.0659 2.0872 14.231 6.0729 15.184 13.281 0.0736-0.88659 0.11765-1.7759 0.10938-2.668-0.12252-14.137-22.917-17.004-28.613-16.855zm-120.19 45.166c-0.45383 15.981 4.2679 33.777 14.492 50.242 0.63563 1.0234 1.2911 2.0264 1.9551 3.0176 34.952-8.6052 77.586-26.579 102.69-46.811-0.44251-1.0464-0.91107-2.0906-1.3945-3.1328-25.266 19.792-66.968 37.288-101.3 45.74-0.66395-0.99121-1.3194-1.9942-1.9551-3.0176-9.3362-15.035-14.081-31.179-14.492-46.039zm129.19 10.377c-0.3394 0.30015-0.64384 0.60764-0.99024 0.90625 3.125 9.2897 4.6984 18.573 4.8828 27.463 0.28276-9.1024-1.0094-18.708-3.8926-28.369zm-165.57 8.3457s-18.473 17.223-17.025 27.982c0.03736 0.27859 0.12065 0.5231 0.16992 0.79297 0.92288-5.0677 4.7499-10.822 8.5605-15.527 3.1017-6.8134 8.3457-13.24 8.3457-13.24zm162.68 20.131c-0.64261 18.762-8.4523 34.965-22.961 43.459-22.977 13.463-55.482 3.3907-78.281-22.209-0.96154 0.26597-1.9807 0.58649-2.9277 0.83984 22.87 28.095 57.239 39.618 81.209 25.572 15.58-9.1211 23.412-27.138 22.961-47.662zm-172.98 3.3398c-0.36221 2.0199-0.31524 3.9093 0.38086 5.4785 4.0304 9.072 18.116 11.2 28.236 10.949 7.8183-0.19357 17.241-1.5188 27.525-3.7422-0.26289-0.41127-0.53641-0.81024-0.79492-1.2266-0.51918-0.83607-1.0055-1.6796-1.498-2.5215-9.3779 1.9269-18.008 3.1082-25.232 3.2871-10.12 0.25051-24.206-1.8773-28.236-10.949-0.17784-0.4009-0.28283-0.83632-0.38086-1.2754z" fill="#282828" stroke-width="1.1582" style="isolation:isolate"/>
  <path d="m151.39 83.651c-25.792 0-46.674 20.882-46.674 46.674 0 25.792 20.882 46.674 46.674 46.674 25.792 0 46.674-20.882 46.674-46.674 0-25.792-20.882-46.674-46.674-46.674zm-8.3493 24.669c17.535 0 31.873 14.153 31.873 31.688s-14.338 31.873-31.873 31.873c-17.535 0-31.688-14.338-31.688-31.873s14.153-31.688 31.688-31.688z" fill="#282828" opacity=".15" stroke-width="1.1582" style="isolation:isolate"/>
  <path d="m151.39 79.322c-25.792 0-46.674 20.882-46.674 46.674 0 25.792 20.882 46.674 46.674 46.674 25.792 0 46.674-20.882 46.674-46.674 0-25.792-20.882-46.674-46.674-46.674zm-8.3493 24.669c17.535 0 31.873 14.153 31.873 31.688s-14.338 31.873-31.873 31.873c-17.535 0-31.688-14.338-31.688-31.873s14.153-31.688 31.688-31.688z" fill="#458588" stroke-width="1.1582" style="isolation:isolate"/>
  <path d="m151.6 79.328c-25.792 0-46.674 20.881-46.674 46.674 0 0.72548 0.022 1.4467 0.0547 2.1641 1.1304-24.785 21.553-44.51 46.619-44.51s45.489 19.724 46.619 44.51c0.0327-0.71736 0.0547-1.4386 0.0547-2.1641 0-25.792-20.881-46.674-46.674-46.674zm-39.955 58.521c-0.0481 0.71597-0.082 1.4356-0.082 2.1641 0 5.8321 1.5736 11.307 4.3086 16.021 6.8153 8.1008 16.336 13.84 27.176 15.846 0.0681 4.3e-4 0.13495 6e-3 0.20312 6e-3 17.535 0 31.873-14.338 31.873-31.873 0-0.7284-0.0333-1.4481-0.082-2.1641-1.1233 16.533-14.985 29.707-31.791 29.707-16.806 0-30.496-13.174-31.605-29.707z" fill="#ebdbb2" opacity=".2" stroke-width="1.1582" style="isolation:isolate"/>
  <path d="m172.99 52.782a23.337 23.337 0 0 0-21.592 23.283 23.337 23.337 0 0 0 46.674 0 23.337 23.337 0 0 0-25.082-23.283zm-53.951 93.262a15.56 15.56 0 0 0-14.396 15.518 15.56 15.56 0 0 0 31.119 0 15.56 15.56 0 0 0-16.723-15.518z" fill="#282828" opacity=".15" stroke-width="1.1582" style="isolation:isolate"/>
  <path d="m198.07 71.655a23.337 23.337 0 0 1-46.674 0 23.337 23.337 0 1 1 46.674 0z" fill="#fb4934" stroke-width="1.1582" style="isolation:isolate"/>
  <path d="m135.76 157.15a15.56 15.56 0 0 1-31.12 0 15.56 15.56 0 1 1 31.12 0z" fill="#665c54" stroke-width="1.1582" style="isolation:isolate"/>
  <path d="m119.04 141.64c-8.1191 0.60883-14.396 7.3738-14.396 15.516 0.0489 0.70301 0.14546 1.4019 0.28907 2.0918 1.0709-7.1398 6.9123-12.605 14.107-13.199 8.1068-0.53121 15.258 5.2638 16.418 13.305 0.15371-0.72424 0.25553-1.4585 0.30469-2.1973-5.4e-4 -9.0513-7.6967-16.192-16.723-15.516z" fill="#ebdbb2" opacity=".1" stroke-width="1.1582" style="isolation:isolate"/>
  <path d="m174.81 48.309c-0.60933-0.0024-1.2185 0.01913-1.8262 0.06445-12.181 0.91357-21.597 11.066-21.592 23.281 0.0501 0.70518 0.13222 1.4077 0.2461 2.1055 1.1043-11.235 10.093-20.069 21.346-20.979 12.436-0.92214 23.399 8.0949 24.895 20.475 0.0809-0.53153 0.14347-1.0657 0.1875-1.6016 5e-3 -12.86-10.396-23.301-23.256-23.346z" fill="#ebdbb2" opacity=".2" stroke-width="1.1582" style="isolation:isolate"/>
  <path d="m91 12c-72 0-85 15-85 87v56c0 70 13 85 85 85h74c72 0 85-15 85-85v-56c0-72-13-87-85-87zm0 4h74c68 0 80 15 80 83v56c0 66-12 81-80 81h-74c-68 0-80-15-80-81v-56c0-68 12-83 80-83z" fill="url(#linearGradient31)" style="isolation:isolate"/>
</svg>
