<svg width="256" height="256" version="1.1" xml:space="preserve" xmlns="http://www.w3.org/2000/svg" xmlns:xlink="http://www.w3.org/1999/xlink"><defs><linearGradient id="linearGradient6" x1="140" x2="140" y1="12" y2="240" gradientUnits="userSpaceOnUse"><stop stop-color="#665c54" offset="0"/><stop stop-color="#504945" offset="1"/></linearGradient><linearGradient id="linearGradient10" x1="128" x2="128" y1="12" y2="240" gradientUnits="userSpaceOnUse"><stop stop-color="#ebdbb2" stop-opacity=".2" offset="0"/><stop stop-color="#ebdbb2" stop-opacity="0" offset=".24728"/><stop stop-color="#1d2021" stop-opacity=".05" offset=".50485"/><stop stop-color="#1d2021" stop-opacity=".2" offset=".75316"/><stop stop-color="#1d2021" stop-opacity=".4" offset="1"/></linearGradient><linearGradient id="linearGradient19" x1="109.8" x2="109.8" y1="50.5" y2="213.21" gradientUnits="userSpaceOnUse"><stop stop-color="#3c3836" offset="0"/><stop stop-color="#282828" offset="1"/></linearGradient><linearGradient id="linearGradient21" x1="101.7" x2="101.7" y1="57.157" y2="198.84" gradientUnits="userSpaceOnUse"><stop stop-color="#7c6f64" offset="0"/><stop stop-color="#3c3836" offset="1"/></linearGradient></defs><path d="m165 12c72 0 85 15 85 87v56c0 70-13 85-85 85h-74c-72 0-85-15-85-85v-56c0-72 13-87 85-87z" fill="url(#linearGradient6)" style="isolation:isolate"/><g transform="matrix(1.0469 0 0 1.0469 -6.0076 -5.6659)" fill-opacity=".99216"><path d="m119.7 44.785c-0.554 0-0.83668 0.47062-1 1l-3.252 10.543a72.763 72.763 0 0 0-17.486 5.3984l-8.6289-6.875c-0.3123-0.45758-0.93109-0.57402-1.3887-0.26172l-13.707 9.3555c-0.45758 0.3123-0.57402 0.93109-0.26172 1.3887l3.2559 10.541a72.763 72.763 0 0 0-11.387 14.297l-11.002-0.81836c-0.51582-0.20209-1.0948 0.05058-1.2969 0.56641l-3.0254 7.7246-3.0273 7.7246c-0.20209 0.51583 0.05058 1.0948 0.56641 1.2969l8.6289 6.873a72.763 72.763 0 0 0-1.4512 14.461 72.763 72.763 0 0 0 1.457 14.484l-8.6387 6.8808c-0.43332 0.34518-0.7685 0.7791-0.56641 1.2949l3.0254 7.7246 3.0273 7.7266c0.20209 0.51582 0.7444 0.6074 1.2969 0.5664l11.023-0.81835a72.763 72.763 0 0 0 11.393 14.287l-3.2461 10.506c-0.3123 0.45758-0.19587 1.0764 0.26172 1.3887l6.8535 4.6777 6.8516 4.6777c0.45759 0.3123 1.0783 0.19588 1.3906-0.26171l8.6074-6.8555a72.763 72.763 0 0 0 17.475 5.3926l3.252 10.543c0 0.554 0.446 1 1 1h16.594c0.554 0 1-0.446 1-1l3.252-10.541a72.763 72.763 0 0 0 17.492-5.4004l8.6309 6.875c0.43332 0.34518 0.93109 0.57402 1.3887 0.26172l13.707-9.3555c0.45758-0.3123 0.42525-0.85936 0.26172-1.3887l-3.2559-10.541a72.763 72.763 0 0 0 11.387-14.297l11.002 0.81836c0.55248 0.041 1.0948-0.0506 1.2969-0.5664l3.0254-7.7246 3.0273-7.7246c0.20209-0.51583-0.13308-0.9517-0.5664-1.2969l-8.6289-6.875a72.763 72.763 0 0 0 1.4512-14.459 72.763 72.763 0 0 0-1.4473-14.436 72.763 72.763 0 0 0 0-2e-3l8.6191-6.8652c0.51581-0.20209 0.76849-0.78105 0.5664-1.2969l-3.0254-7.7246-3.0273-7.7266c-0.20208-0.51582-0.77909-0.76654-1.2949-0.56445l-10.98 0.81445a72.763 72.763 0 0 0-11.385-14.305l3.2676-10.574c0.16353-0.52931 0.19586-1.0764-0.26172-1.3887l-6.8535-4.6777-6.8516-4.6777c-0.45758-0.3123-0.9573-0.08346-1.3906 0.26172l-8.6523 6.8926a72.763 72.763 0 0 0-17.502-5.4043l-3.252-10.541c-0.16332-0.52938-0.446-1-1-1h-8.2969z" fill="url(#linearGradient19)" stroke="#1d2021" stroke-linecap="round" stroke-linejoin="round" stroke-width="4"/><circle cx="128" cy="128" r="70.843" fill="url(#linearGradient21)" opacity=".3812" stroke-linecap="round" stroke-linejoin="round" stroke-width="10.095"/><circle cx="128" cy="128" r="62.784" fill="#7c6f64" opacity=".2" stroke-linecap="round" stroke-linejoin="round" stroke-width="8.9467"/><circle cx="128" cy="128" r="60.271" fill="#282828" stroke-linecap="round" stroke-linejoin="round" stroke-width="8.5886"/><circle cx="128" cy="128" r="56.682" fill="#bdae93" stroke-linecap="round" stroke-linejoin="round" stroke-width="8.0771"/><path d="m130.1 29.961s22.818 22.318 36.332 43.996l-5.7733 30.409s6.6692-4.9272 8.9088-5.0765c0 0 7.5152 8.6102 13.289 28.817-1.6922 10.501-14.184 33.744-17.121 37.029-4.6784 5.0765-14.135 15.23-37.477 15.727-17.066 0.63424-30.011-8.7097-32.301-10.85-8.8093-8.4111-17.754-28.924-21.401-41.309-1.1074-3.7603 11.696-28.717 12.741-29.265 4.4295 0.52258 11.746 5.9973 11.746 5.9973l-4.8774-31.678c8.3054-14.992 35.934-43.797 35.934-43.797z" fill="#1d2021"/><path d="m130.21 36.741c1e-3 0.0018 17.493 40.99 17.493 43.329 0 0-10.433 72.389-17.152 96.568l5.8945-0.38869 9.9629-57.658 7.3672-6.1699s8.3571-35.592 7.7637-37.029c-1.6992-4.1154-25.697-34.567-31.329-38.652z" fill="#8f3f71"/><path d="m130.21 36.741-2.4036 46.474 0.99934 93.459-1.5837-0.0153c-6.2212-10.203-16.157-88.536-17.424-97.405 4.9272-13.786 15.341-37.442 20.412-42.513z" fill="#b16286"/><path d="m130.21 36.742c-12.564 11.438-31.144 38.186-31.144 38.186l6.416 39.672 5.9024 5.0469 9.4394 56.492 6.3691 0.4668c-6.2232-10.416-16.128-88.498-17.393-97.352 4.9268-13.785 15.339-37.438 20.41-42.512z" fill="#d3869b"/><path d="m130.21 36.741-2.4036 46.474 0.99934 93.459 1.7454-0.0349c6.7189-24.138 17.163-96.609 17.163-96.609 0-2.3392-17.504-43.289-17.504-43.289z" fill="#b16286"/><path d="m130.21 36.741-2.4036 46.474 0.99934 93.459 1.7454-0.0349c6.7189-24.138 17.163-96.609 17.163-96.609 0-2.3392-17.504-43.289-17.504-43.289z" fill="#8f3f71" opacity=".5"/><path d="m130.21 36.739-2e-3 2e-3c-12.543 11.42-31.085 38.099-31.144 38.186l10.734 4.3262 18.008 3.9609 19.908-3.1855 13.824-4.6367c-1.6992-4.1154-25.695-34.568-31.328-38.652z" fill="#ebdbb2" opacity=".2"/></g><g transform="matrix(1.0469 0 0 1.0469 -6.0076 -5.6659)" fill-opacity=".99216"><path d="m168.79 105.09 5.9277 23.656-19.477 40.297c17.157-12.972 23.707-40.852 23.707-40.852s-8.3679-21.644-10.158-23.102z" fill="#b16286"/><path d="m168.79 105.09 5.9277 23.656-19.477 40.297c17.157-12.972 23.707-40.852 23.707-40.852s-8.3679-21.644-10.158-23.102z" fill="#8f3f71" opacity=".6"/><path d="m168.79 105.09-5.6309 23.65c-3.3724 14.073-16.234 44.939-16.234 44.939 3.0131-1.1281 5.78-2.7208 8.3164-4.6387 7.3e-4 -5.5e-4 1e-3 -1e-3 2e-3 -2e-3l19.475-40.293z" fill="#8f3f71"/><path d="m168.79 105.09c-2.6646 0.37472-19.152 15.816-19.152 15.816l-9.3418 54.404c0.80613-0.10024 1.598-0.2317 2.375-0.39453l12.217-50.031z" fill="#d3869b"/><path d="m168.79 105.09-13.902 19.795-12.217 50.031c1.7436-0.40271 2.7592-0.68481 4.2539-1.2363 0 0 12.862-30.867 16.234-44.939z" fill="#b16286"/><path d="m168.79 105.09c-2.6646 0.37472-19.152 15.816-19.152 15.816l5.25 3.9785 8.2715 3.8555 7.3301 0.56054 8.459-1.1094s-8.3679-21.644-10.158-23.102z" fill="#ebdbb2" opacity=".2"/><path d="m88.395 105.3-5.9197 23.624 19.45 40.243c-17.133-12.954-23.675-40.796-23.675-40.796s8.3566-21.615 10.145-23.07z" fill="#b16286"/><path d="m88.395 105.3-5.9197 23.624 19.45 40.243c-17.133-12.954-23.675-40.796-23.675-40.796s8.3566-21.615 10.145-23.07z" fill="#8f3f71" opacity=".5"/><path d="m88.396 105.3 5.6233 23.619c3.3679 14.054 16.212 44.879 16.212 44.879-3.009-1.1266-5.7722-2.7171-8.3052-4.6324-7.2e-4 -5.4e-4 -1e-3 -1e-3 -2e-3 -2e-3l-19.448-40.239z" fill="#8f3f71"/><path d="m88.396 105.3c2.661 0.37421 19.127 15.795 19.127 15.795l9.3292 54.331c-0.80504-0.10016-1.5958-0.23139-2.3718-0.394l-12.2-49.964z" fill="#d3869b"/><path d="m88.396 105.3 13.884 19.768 12.2 49.964c-1.7412-0.40216-2.7555-0.68388-4.2482-1.2347 0 0-12.845-30.825-16.212-44.879z" fill="#b16286"/><path d="m88.396 105.3c2.661 0.37421 19.127 15.795 19.127 15.795l-5.2429 3.9732-8.2603 3.8503-7.3202 0.55978-8.4476-1.1079s8.3566-21.615 10.145-23.07z" fill="#ebdbb2" opacity=".2"/></g><path d="m128.56 62.885s0.99103 9.968 1.9974 10.292c1.1104 0.37015 7.1283-4.1411 7.1283-4.1411s-5.4313 5.1328-5.2347 6.1507c0.24291 0.9832 11.909 2.0284 11.582 2.0284-0.32718 0-11.396 1.8496-11.974 2.8791-0.48581 0.8097 4.384 5.0384 4.384 5.0384s-5.0905-3.5955-6.0853-3.2717c-1.2146 0.30075-1.813 13.964-1.813 13.964s-1.2647-13.744-2.1785-14.357c-1.122-0.75186-6.8051 3.468-6.8051 3.468s4.761-4.644 4.5149-5.431c-0.30258-0.96757-9.5533-2.1593-9.5533-2.1593s9.1945-0.91734 9.4878-2.1593c0.25473-1.0784-4.1877-6.347-4.1877-6.347s5.1831 4.4534 6.0853 4.384c0.86754-0.0347 2.6524-10.338 2.6524-10.338z" fill="#ebdbb2" fill-opacity=".99216" opacity=".20366"/><path d="m128.56 60.072s0.99103 9.968 1.9974 10.292c1.1104 0.37015 7.1283-4.1411 7.1283-4.1411s-5.4313 5.1328-5.2347 6.1507c0.24291 0.9832 11.909 2.0284 11.582 2.0284-0.32718 0-11.396 1.8496-11.974 2.8791-0.48581 0.8097 4.384 5.0384 4.384 5.0384s-5.0905-3.5955-6.0853-3.2717c-1.2146 0.30074-1.813 13.964-1.813 13.964s-1.2647-13.744-2.1785-14.357c-1.122-0.75186-6.8051 3.468-6.8051 3.468s4.761-4.644 4.5149-5.431c-0.30258-0.96757-9.5533-2.1593-9.5533-2.1593s9.1945-0.91733 9.4878-2.1593c0.25473-1.0784-4.1877-6.347-4.1877-6.347s5.1831 4.4534 6.0853 4.384c0.86754-0.0347 2.6524-10.338 2.6524-10.338z" fill="#ebdbb2" fill-opacity=".99216"/><path d="m91 12c-72 0-85 15-85 87v56c0 70 13 85 85 85h74c72 0 85-15 85-85v-56c0-72-13-87-85-87zm0 5h74c35.653 0 55.307 3.9448 65.895 14.965 10.588 11.02 14.105 31.336 14.105 67.035v56c0 34.69-3.4936 54.457-14.07 65.25-10.577 10.793-30.277 14.75-65.93 14.75h-74c-35.653 0-55.353-3.9574-65.93-14.75-10.577-10.793-14.07-30.56-14.07-65.25v-56c0-35.699 3.5176-56.015 14.105-67.035 10.588-11.02 30.242-14.965 65.895-14.965z" fill="url(#linearGradient10)" style="isolation:isolate"/></svg>
