<svg xmlns="http://www.w3.org/2000/svg" style="isolation:isolate" width="256" height="256">
    <defs>
        <filter id="a" width="400%" height="400%" x="-200%" y="-200%" color-interpolation-filters="sRGB" filterUnits="objectBoundingBox">
            <feGaussianBlur xmlns="http://www.w3.org/2000/svg" in="SourceGraphic" stdDeviation="4.294"/>
            <feOffset xmlns="http://www.w3.org/2000/svg" dy="4" result="pf_100_offsetBlur"/>
            <feFlood xmlns="http://www.w3.org/2000/svg" flood-opacity=".4"/>
            <feComposite xmlns="http://www.w3.org/2000/svg" in2="pf_100_offsetBlur" operator="in" result="pf_100_dropShadow"/>
            <feBlend xmlns="http://www.w3.org/2000/svg" in="SourceGraphic" in2="pf_100_dropShadow"/>
        </filter>
    </defs>
    <g filter="url(#a)">
        <linearGradient id="b" x1="0" x2="1" y1=".5" y2=".5" gradientTransform="matrix(244.648 0 0 228.338 6.254 11.831)" gradientUnits="userSpaceOnUse">
            <stop offset="0%" stop-color="#ebdbb2"/>
            <stop offset="100%" stop-opacity=".746" stop-color="#ebdbb2"/>
        </linearGradient>
        <path fill="url(#b)" d="M166.263 11.831c74.055 0 84.639 10.557 84.639 84.544v59.25c0 73.987-10.584 84.544-84.639 84.544h-75.37c-74.056 0-84.639-10.557-84.639-84.544v-59.25c0-73.987 10.583-84.544 84.639-84.544h75.37z"/>
    </g>
    <path fill="#fabd2f" fill-rule="evenodd" d="M166.263 11.831c74.055 0 84.639 10.557 84.639 84.544v59.25c0 73.987-10.584 84.544-84.639 84.544h-75.37c-74.056 0-84.639-10.557-84.639-84.544v-59.25c0-73.987 10.583-84.544 84.639-84.544h75.37zM47.09 199.33c-.24-.57-.45-1.15-.62-1.75-.42-1.4-.76-2.83-1.02-4.27-.4-2.13-.72-4.28-.95-6.43-.31-2.82-.55-5.65-.71-8.49-.2-3.47-.33-6.95-.41-10.43-.09-4.09-.13-8.19-.13-12.29v-59.3-.04c0-4.1.04-8.2.13-12.29.08-3.48.21-6.96.41-10.43.16-2.84.4-5.67.71-8.49.23-2.15.55-4.3.95-6.43.26-1.44.6-2.87 1.02-4.27.17-.6.38-1.18.62-1.75.57-.24 1.17-.45 1.77-.63 1.41-.41 2.84-.75 4.29-1.02 2.13-.4 4.28-.71 6.45-.95 2.82-.31 5.66-.54 8.49-.7 3.48-.2 6.97-.34 10.45-.41 4.1-.09 8.21-.13 12.31-.13H166.3c4.11 0 8.21.04 12.32.13 3.48.07 6.96.21 10.44.41 2.84.16 5.67.39 8.5.7 2.16.24 4.31.55 6.45.95 1.45.27 2.88.61 4.29 1.02.6.18 1.19.39 1.77.63.24.57.45 1.15.62 1.75.41 1.4.75 2.83 1.02 4.27.4 2.13.71 4.28.95 6.43.31 2.82.54 5.65.7 8.49.2 3.47.34 6.95.41 10.43.09 4.09.14 8.19.13 12.29V155.67c.01 4.1-.04 8.2-.13 12.29-.07 3.48-.21 6.96-.41 10.43-.16 2.84-.39 5.67-.7 8.49-.24 2.15-.55 4.3-.95 6.43-.27 1.44-.61 2.87-1.02 4.27-.17.6-.38 1.18-.62 1.75-.58.24-1.17.45-1.77.63-1.41.41-2.84.75-4.29 1.02-2.14.4-4.29.71-6.45.95-2.83.31-5.66.54-8.5.7-3.48.2-6.96.34-10.44.41-4.11.09-8.21.13-12.32.13H90.85c-4.1 0-8.21-.04-12.31-.13-3.48-.07-6.97-.21-10.45-.41-2.83-.16-5.67-.39-8.49-.7a86.36 86.36 0 0 1-6.45-.95c-1.45-.27-2.88-.61-4.29-1.02-.6-.18-1.2-.39-1.77-.63z"/>
    <g opacity=".4">
        <linearGradient id="c" x1=".517" x2=".517" y1="0" y2="1" gradientTransform="matrix(244.65 0 0 228.34 5.68 11.95)" gradientUnits="userSpaceOnUse">
            <stop offset="0%" stop-color="#ebdbb2"/>
            <stop offset="12.5%" stop-opacity=".098" stop-color="#ebdbb2"/>
            <stop offset="92.5%" stop-opacity=".098"/>
            <stop offset="100%" stop-opacity=".498"/>
        </linearGradient>
        <path fill="url(#c)" fill-rule="evenodd" d="M165.068 11.951c4.328-.01 8.656.04 12.984.138 3.875.078 7.751.226 11.626.452 3.453.196 6.905.481 10.348.854 3.059.335 6.118.786 9.148 1.346 2.715.502 5.4 1.14 8.046 1.916 2.4.698 4.751 1.562 7.023 2.584a40.385 40.385 0 0 1 6.059 3.35 35.172 35.172 0 0 1 5.135 4.215 35.058 35.058 0 0 1 4.219 5.119 41.674 41.674 0 0 1 3.364 6.042 56.008 56.008 0 0 1 2.597 7.005 80.05 80.05 0 0 1 1.918 8.037 124.589 124.589 0 0 1 1.348 9.127c.374 3.439.659 6.878.856 10.326.226 3.861.373 7.732.462 11.593.088 4.323.138 8.646.128 12.959v58.212c.01 4.323-.04 8.636-.128 12.959a326.856 326.856 0 0 1-.462 11.593 201.12 201.12 0 0 1-.856 10.326 124.856 124.856 0 0 1-1.348 9.137 80.519 80.519 0 0 1-1.918 8.027 55.43 55.43 0 0 1-2.597 7.005 41.153 41.153 0 0 1-3.364 6.042 34.536 34.536 0 0 1-4.219 5.119 35.172 35.172 0 0 1-5.135 4.215 40.385 40.385 0 0 1-6.059 3.35 55.194 55.194 0 0 1-7.023 2.594 78.035 78.035 0 0 1-8.046 1.906c-3.03.569-6.089 1.011-9.148 1.346a202.81 202.81 0 0 1-10.348.854c-3.875.226-7.751.374-11.626.462-4.328.088-8.656.138-12.984.128H90.942c-4.328.01-8.656-.04-12.984-.128a327.282 327.282 0 0 1-11.626-.462 202.81 202.81 0 0 1-10.348-.854 120.942 120.942 0 0 1-9.148-1.346 78.035 78.035 0 0 1-8.046-1.906 55.194 55.194 0 0 1-7.023-2.594 40.385 40.385 0 0 1-6.059-3.35 35.172 35.172 0 0 1-5.135-4.215 34.536 34.536 0 0 1-4.219-5.119 41.153 41.153 0 0 1-3.364-6.042 55.43 55.43 0 0 1-2.597-7.005 80.519 80.519 0 0 1-1.918-8.027 124.856 124.856 0 0 1-1.348-9.137 201.12 201.12 0 0 1-.856-10.326 326.856 326.856 0 0 1-.462-11.593 571.312 571.312 0 0 1-.128-12.959V97.014c-.01-4.313.04-8.636.128-12.959.089-3.861.236-7.732.462-11.593.197-3.448.482-6.887.856-10.326.335-3.055.787-6.101 1.348-9.127a80.05 80.05 0 0 1 1.918-8.037 56.008 56.008 0 0 1 2.597-7.005 41.674 41.674 0 0 1 3.364-6.042 35.058 35.058 0 0 1 4.219-5.119 35.172 35.172 0 0 1 5.135-4.215 40.385 40.385 0 0 1 6.059-3.35 53.663 53.663 0 0 1 7.023-2.584 80.763 80.763 0 0 1 8.046-1.916c3.03-.56 6.089-1.011 9.148-1.346a202.81 202.81 0 0 1 10.348-.854c3.875-.226 7.751-.374 11.626-.452a520.43 520.43 0 0 1 12.984-.138h74.126zm.01 4.009c4.298-.01 8.597.039 12.895.127 3.827.089 7.653.236 11.479.452 3.384.197 6.767.472 10.131.845 2.971.315 5.932.747 8.863 1.297a76.091 76.091 0 0 1 7.653 1.818 50.445 50.445 0 0 1 6.501 2.397 37.043 37.043 0 0 1 5.469 3.026 30.377 30.377 0 0 1 4.525 3.724 31.053 31.053 0 0 1 3.738 4.519 37.261 37.261 0 0 1 3.029 5.443 51.33 51.33 0 0 1 2.4 6.494 75.456 75.456 0 0 1 1.83 7.634 120.85 120.85 0 0 1 1.298 8.842c.374 3.36.65 6.73.846 10.11.217 3.822.374 7.634.453 11.456.088 4.293.137 8.577.137 12.87v58.212c0 4.293-.049 8.577-.137 12.87a316.867 316.867 0 0 1-.453 11.456c-.196 3.38-.472 6.75-.846 10.12a121.383 121.383 0 0 1-1.298 8.832 75.456 75.456 0 0 1-1.83 7.634 50.767 50.767 0 0 1-2.4 6.494 36.749 36.749 0 0 1-3.029 5.443 30.61 30.61 0 0 1-3.738 4.529 30.94 30.94 0 0 1-4.525 3.714 37.043 37.043 0 0 1-5.469 3.026 49.001 49.001 0 0 1-6.501 2.397 76.091 76.091 0 0 1-7.653 1.818c-2.931.55-5.892.982-8.863 1.306-3.364.364-6.747.649-10.131.836-3.826.216-7.652.373-11.479.452-4.298.098-8.597.137-12.895.137H90.932c-4.298 0-8.597-.039-12.895-.137a321.281 321.281 0 0 1-11.479-.452 193.497 193.497 0 0 1-10.131-.836 116.655 116.655 0 0 1-8.863-1.306 76.091 76.091 0 0 1-7.653-1.818 49.001 49.001 0 0 1-6.501-2.397 37.043 37.043 0 0 1-5.469-3.026 30.94 30.94 0 0 1-4.525-3.714 30.61 30.61 0 0 1-3.738-4.529 36.749 36.749 0 0 1-3.029-5.443 50.767 50.767 0 0 1-2.4-6.494 75.456 75.456 0 0 1-1.83-7.634 121.383 121.383 0 0 1-1.298-8.832c-.374-3.37-.649-6.74-.846-10.12a316.867 316.867 0 0 1-.453-11.456 627.536 627.536 0 0 1-.137-12.87V97.014c0-4.293.049-8.577.137-12.87.079-3.822.236-7.634.453-11.456.197-3.38.472-6.75.846-10.11a120.85 120.85 0 0 1 1.298-8.842 75.456 75.456 0 0 1 1.83-7.634 51.33 51.33 0 0 1 2.4-6.494 37.261 37.261 0 0 1 3.029-5.443 31.053 31.053 0 0 1 3.738-4.519 30.377 30.377 0 0 1 4.525-3.724 37.043 37.043 0 0 1 5.469-3.026 50.445 50.445 0 0 1 6.501-2.397 76.091 76.091 0 0 1 7.653-1.818 112.27 112.27 0 0 1 8.863-1.297 194.61 194.61 0 0 1 10.131-.845c3.826-.216 7.652-.363 11.479-.452 4.298-.088 8.597-.137 12.895-.127H165.078z"/>
    </g>
    <path fill-opacity=".5" fill-rule="evenodd" d="M139.174 130.89c1.593.043 3.103-.732 4.661-1.065.665-.143.754.519 1.415.363.493-.117 1.306-.12 1.813-.125.732-.008 1.687-.778 2.367-.505.332.134.622.713.932.533.346-.201.017-.8 0-1.199-.022-.534-.458-1.174-.133-1.598.302-.394.999-.094 1.465-.267.578-.213 1.372-.358 1.598-.932.17-.431.4-1.332-.399-1.332-.8 0-1.939.108-2.797-.266-.491-.214-1.044-.554-1.199-1.066-.306-1.01 1.664-.905 1.416-1.931-.375-2-2.442-2.619-2.881-3.663-.259-.615.053-1.357-.134-1.998-.155-.534-.515-.986-.799-1.465-.377-.635-1.166-1.126-1.198-1.865-.047-1.051.932-2.663 1.465-2.797.532-.133 1.306-.541 1.198-1.065-.169-.825-1.555-.781-2.397-.799-.323-.007-.65.423-.932.266-.283-.157-.341-.618-.267-.932.166-.704 1.581-.885 1.465-1.599-.073-.451-.742-.637-1.198-.666-.478-.03-.944.254-1.332.533-.614.442-1.001 1.135-1.465 1.732-.235.301-.681.55-.666.932.013.347.681.453.666.799-.026.565-.856.75-1.199 1.199-.217.284-1.573.426-1.451.763.128.357 1.673.351 1.984.569.335.235.72.531.799.932.081.414-.904.396-.971.812-.036.219.071.748.188.937.156.253 1.082.235 1.182.516.148.411-.86.909-.532 1.198.581.515 1.249-.991 1.997-1.198.214-.06.493-.139.666 0 .32.256.222.791.267 1.198.043.397 0 .666 0 1.199s-.068 1.247 0 1.865c.045.407.35.798.266 1.198-.123.592-.568 1.123-1.065 1.466-.417.287-.984.244-1.465.399-.361.117-.915.052-1.066.4-.229.529.778 1.032.666 1.598-.11.554-.677.983-1.199 1.199-.533.221-1.394-.468-1.731 0-.164.228.034.64.266.799.734.502 1.78-.227 2.664-.133.685.072.351.312.771.859.216.281 1.284.388 1.227.739-.045.277-.051.619-.267.799-.928.779-2.504.007-3.596.533-.82.395-2.211.979-1.998 1.865.076.314.61.257.933.266zm53.964-66.885c-.318.023-.658.121-.938.192-.619.158-1.158.521-1.684.903l.122.024-1.654 1.456-1.638 1.073-.862.402c-.643.496-1.283.993-1.941 1.468-.813.588-1.732 1.044-2.465 1.731-1.786 1.675-3.234 3.695-4.597 5.728-.664.99-1.433 1.975-1.731 3.129-.15.581.277 1.268 0 1.801-.25.48-1.203.406-1.329.932-.087.366.531.664.531.997 0 .333.268 1.132.268 1.398 0 .267-.832.103-1.067.402-.11.14-.077.353-.064.53.025.322.457.675.262.933-.334.441-1.175-.266-1.66 0-.903.493-.973 1.839-1.667 2.599-.853.934-2.013 1.533-2.995 2.331-1.468 1.191-3.657 1.898-4.33 3.665-.167.44.447.999.198 1.398-.147.238-.614.051-.798.263-.414.476-.276 1.235-.332 1.864-.047.532-.378 1.225 0 1.603.391.391 1.313-.431 1.661 0 .128.159-.074.403-.128.6-.094.338-.153.699-.338.996-.083.133-.215.23-.333.333-.167.145-.487.184-.53.402-.049.253.189.511.396.664.222.164.654-.033.805.198.283.434-.289 1.014-.268 1.533.021.527-.063 1.271.396 1.532.624.356 1.469-.204 2.068-.6.264-.174.399-.49.601-.734.22-.267.415-.558.664-.799.545-.527 1.305-.819 1.795-1.398.423-.501.277-1.761.932-1.731.457.022.379.835.536 1.265.128.349.134.751.332 1.066.242.385.742.555.997.933.691 1.025.898 2.304 1.334 3.461.226.598.427 1.206.664 1.8.314.786.87 1.865 1.003 2.331.133.467.703.78.862 1.265.202.613.07 1.668.07 1.934 0 .267.074.474.262.531.297.089.615-.221.804-.466.408-.528.225-1.337.531-1.929.145-.281.374-.514.6-.734.363-.354.911-.517 1.2-.933.252-.363.33-.828.397-1.264.157-1.031.038-2.087 0-3.13-.023-.601-.377-1.249-.134-1.8.159-.362.631-.477.932-.734.322-.275.613-.585.932-.863.239-.207.518-.37.734-.6.339-.359.717-.731.869-1.2.102-.316.216-.745 0-.997-.103-.119-.374.057-.466-.07-.079-.108.045-.263.064-.396.025-.178.077-.357.064-.536-.012-.161-.007-.36-.128-.466-.354-.311-1.005.06-1.399-.198-.392-.258-.568-.762-.734-1.201a3.137 3.137 0 0 1-.198-1.13c.004-.454.208-.885.262-1.335.061-.505-.054-1.032.07-1.526.125-.501.486-.915.664-1.399.119-.325.139-.681.268-1.002.171-.424.416-.817.664-1.201.301-.464.692-.866.997-1.328.197-.3.404-.599.536-.933.143-.36.107-.778.268-1.13.126-.275.343-.498.53-.734.275-.347.732-.582.869-1.003.082-.254.06-.565-.07-.798-.055-.097-.209-.104-.268-.198a1.518 1.518 0 0 1-.198-.996c.039-.297.243-.55.402-.805.31-.497.804-.874 1.066-1.398.144-.289.131-.637.262-.932.085-.191.242-.343.332-.531.235-.488.113-1.195.536-1.532.315-.251.807-.052 1.201-.134.219-.046.428-.266.641-.198.669.211.906 1.077 1.288 1.666.41.634.914 1.259 1.066 1.999.108.523-.014 1.076-.134 1.597-.277 1.205-.836 2.329-1.334 3.461-.361.818-.687 1.665-1.195 2.401-.482.697-1.377 1.093-1.731 1.864-.502 1.097-.6 2.406-.402 3.596.291 1.744.868 3.714 2.267 4.796.751.58 1.886.794 2.797.53.874-.254 1.241-1.352 1.993-1.865.935-.638 1.961-1.213 3.065-1.463.563-.127 1.159-.076 1.731 0 1.003.135 2.161.141 2.931.799.332.283.445.768.536 1.194.093.435.222.95 0 1.335-.667 1.155-2.209 1.556-3.467 1.999-.551.193-1.15.213-1.731.268-1.327.123-3.195-.937-3.997.128-.221.292.102.739.268 1.066.315.62 1.098.949 1.334 1.603.212.584-.133 1.198 0 1.864.133.666.752.485 1.066.799.628.626 1.993 1.334 1.597 2.127-.179.357-.811.091-1.2 0-.482-.114-.855-.523-1.329-.665-.729-.218-1.506-.283-2.267-.268-.853.017-1.958-.232-2.529.402-.565.628-.205 1.688-.134 2.529.085.998.195 2.046.665 2.931.456.861 1.742 1.193 1.998 2.133.108.396-.09.831-.268 1.201-.368.767-.964 1.422-1.596 1.992-.549.495-1.137 1.072-1.865 1.201-.987.174-1.944-.493-2.931-.665-1.454-.252-2.921-.627-4.394-.536-1.827.114-4.793 1.335-5.326 1.335-.533 0-2.264.664-2.797.664-.533 0-1.19.636-1.736.402-1.043-.447-1.331-1.869-1.731-2.931-.335-.888-.611-1.851-.53-2.797.064-.756.582-1.405.798-2.133.232-.784.643-1.585.53-2.395-.09-.649-.347-1.434-.932-1.73-.56-.284-1.363-.115-1.865.262-.779.586-1.096 1.699-1.194 2.669-.083.813.374 1.592.53 2.395.206 1.061.201 2.171.536 3.199.399 1.226 2.062 2.215 1.731 3.461-.124.465-.873.447-1.201.799-.489.523-.46 1.483-1.066 1.864-.528.332-1.242.112-1.865.134-.4.015-.811.092-1.2 0-.772-.182-1.611-1.668-2.127-1.066-.497.58 1.451 1.111 1.328 1.865-.096.595-.974.711-1.462 1.066-.977.711-1.869 1.557-2.931 2.133-.619.335-1.513.672-2.518 1.002q.282 1.259-1.66 1.836-3.687.658-3.671.18a.314.314 0 0 1-.07.035q-2.618-1.388-4.004-.979.367 1.058 1.265 2.051c-.899.486-1.592 1.324-2.529 1.731-.376.163-.796.334-1.201.268-.765-.124-1.245-.993-1.992-1.2-.472-.131-.984-.069-1.469 0-.32.045-.684.061-.932.268-.458.38-2.366.538-2.33 1.132.02.318-.275 1.261-.062 1.5.504.566 2.723 1.459 3.312 1.937.786.638.526.797 1.188 1.563.233.27.229 1.298.375 1.625.4.897 1.128 2.087 1.25 3.062.071.574.75.155.75.688 0 .532-.892.322-1.125 1-.338.978.274 2.757-.375 3.562-.612.758-.848 1.638-1.783 1.913-.477.141-.993-.122-1.468-.268-.741-.226-1.413-.633-2.127-.932-.882-.37-1.758-.757-2.663-1.066-.612-.209-1.241-.361-1.865-.531-1.197-.325-2.367-.81-3.601-.932-.796-.079-1.602.034-2.395.134-.45.057-1.135-.145-1.335.262-.306.624.912 1.17.933 1.865.02.676-.381 1.333-.799 1.865-.411.523-1.262.624-1.596 1.2-.18.31-.058.716-.134 1.066-.158.728-.251 1.514-.665 2.133-.192.288-.526.45-.798.664-.524.414-1.233.645-1.602 1.201-.607.914-.587 2.117-.799 3.193-.06.308-.086.622-.134.933-.123.801-.293 1.596-.396 2.4-.062.486-.345 1.021-.134 1.463.621 1.299 3.329 1.862 3.595 2.395.267.533 1.23 1.376 1.999 1.865.405.257.869.422 1.335.536.91.221 1.861.223 2.797.268 1.197.057 2.397-.016 3.595 0 1.599.021 3.259.571 4.796.128.767-.221 1.291-.948 1.993-1.329.594-.322 1.289-.443 1.864-.798.645-.398 1.071-1.335 1.737-1.468.666-.134.123-1.063.128-1.597.007-.712-.289-1.439-.128-2.133.162-.696.664-1.269 1.06-1.864.404-.607.71-1.357 1.335-1.731.463-.278.931-.002 1.597-.268.665-.267 1.39-.941 2.132-1.329.6-.313 1.237-.549 1.865-.798.483-.192 1.18-.101 1.463-.536.339-.523-.172-1.243-.129-1.865.045-.634-.078-1.442.397-1.865.699-.622 1.86-.246 2.797-.262.712-.012 1.426.217 2.132.128 1.201 1.628 2.567 1.34 3.73-1.194.522-.356 1.082-.078 1.521-.533.697-.725 1.46-.763 2.437-1 .712-.174.862-.954 1.313-.375.463.594.036.541.323 1.238.144.349.532.536.798.804l.799.798c.399.399.833.766 1.2 1.195.393.459.699.987 1.066 1.468.345.451.625.971 1.067 1.329.463.375 1.137.424 1.596.804.561.464.746 1.296 1.329 1.731.497.37 1.162.43 1.736.664.314.127.653.212.933.402.259.176.432.454.664.664.467.424.941.846 1.463 1.201.757.513 1.657.795 2.401 1.328.536.385 1.196.731 1.462 1.335.161.364.048.799 0 1.194-.066.546-.28 1.065-.396 1.603-.104.484-.585 1.082-.268 1.462.17.205.532 0 .798 0 .666 0 .673-.384.933-.664.527-.571 1.055-1.235 1.2-1.999.1-.53-.021-1.117-.268-1.596-.172-.335-.639-.458-.798-.799-.209-.445-.403-1.056-.134-1.468.153-.235.52-.306.798-.268.318.043.497.427.798.536.799.29 1.866.792 2.535.268.247-.193.269-.652.128-.932-.5-.993-1.917-1.134-2.925-1.603-.778-.362-1.728-.399-2.401-.932-.675-.534-.754-1.639-1.462-2.127-.942-.648-2.337-.245-3.334-.804-.874-.491-1.653-1.243-2.127-2.127-.427-.798-.081-1.88-.536-2.663-.028-.049-.054-.095-.087-.14q-.893.134-1.865-1.503a1.918 1.918 0 0 1-.18-.222c-.432-.624-.852-1.375-.799-2.133.039-.555.559-.965.799-1.468.35-.736.862-.541 1.566-.951.619-.361.76-.672 1.438-.438.49.169.924-.022 1.395.194.638.293 1.454.222 1.999.665.172.139.321.299.454.472l.373-.974.904.537-.647 1.544c.25.547.474 1.117.781 1.62.301.493.508 1.069.932 1.462.48.446 1.172.59 1.731.933 1.196.733 2.336 1.556 3.461 2.395.912.679 2.299 1.055 2.663 2.132.176.52-.422 1.049-.396 1.597.038.8.521 1.515.798 2.267.213.58.415 1.165.664 1.731.281.635.543 1.289.933 1.864.6.887 1.999 1.868 2.132 2.401.134.533-.349.619-.268.932.158.608 1.094.749 1.335 1.329.204.491-.203 1.105 0 1.597.288.697.886 1.35 1.596 1.602.799.283 1.786.139 2.529-.268.5-.274.849-.808 1.067-1.334.153-.371.111-.795.134-1.195.03-.533.149-1.09 0-1.602-.162-.555-.684-.941-.932-1.463-.302-.634-.406-1.346-.665-1.999-.235-.591-.738-1.098-.804-1.73-.061-.59-.143-1.5.402-1.731.477-.203.819.847 1.335.798.531-.05.752-.766 1.194-1.066.658-.446 1.529-.55 2.133-1.067.29-.248.299-.821.664-.932.364-.111.722.243 1.067.402.415.192.754.563 1.2.664.779.179 1.684.232 2.395-.134.505-.259.615-.983 1.066-1.328.616-.472 1.651-.324 2.133-.933.309-.39.434-.999.268-1.468-.429-1.217-2.394-1.356-2.931-2.529-.444-.97 3.276-2.071 3.342-3.135.059-.955.312-5.594.25-6.625-.649-1.732 1.76-2.498 1.875-4.875 2.125-.375 4.375 0 5.625-1.875-.196-3.325 2.241-34.444-2.375-66.125q-.462-3.668-1.5-10.75-5.051-3.489-7.25-4c-2.199-.511-6.133-.925-8.75-.25s-7.379 6.933-8.069 7.261c-.179-.226-.475-.279-.793-.256zm-63.554 58.76c-.499-.756-.125-2.041.533-2.664.684-.647 1.898-.118 2.797-.399.379-.119 1.002-.141 1.065-.533.05-.31-.385-.525-.666-.666-.561-.281-1.507.25-1.864-.266-.466-.674-.106-1.885.532-2.398.416-.333 1.116-.226 1.599 0 .314.147.329.714.666.799.463.118 1.063-.136 1.332-.532.348-.515-.44-1.426 0-1.865.408-.408 1.167-.124 1.731 0 .621.136 1.389.264 1.732.799.358.561.292 1.4 0 1.998-.223.455-.977.478-1.199.932-.332.678.025 1.51 0 2.265-.022.667.298 1.488-.133 1.998-.502.591-1.504.382-2.265.532-1.102.218-2.206.561-3.329.533-.862-.021-2.057.187-2.531-.533zm21.37 43.155c-.297.011-.58.197-.799.399-.19.176-.402.407-.4.666.004.419.356.784.666 1.066.515.467 1.206 1.152 1.865.932.471-.157.476-.873.666-1.332.108-.259.383-.544.266-.799-.339-.742-1.448-.962-2.264-.932zm16.25-4.662c.471-.426.308-1.236.399-1.865.083-.573.334-1.188.133-1.731a.731.731 0 0 0-.399-.4c-.492-.204-1.155-.295-1.598 0-.481.32-.572 1.029-.666 1.599-.109.658-.202 1.42.133 1.997.16.278.488.458.799.533.391.095.9.137 1.199-.133zm.807 3.33c.03.283-.439.398-.533.666-.161.461.06.98 0 1.465-.044.363-.266.533-.266 1.065 0 .533.084 1.045-.267 1.332-.343.282-.887 0-1.331 0-.311 0-.933.666-.933 0s-.02-1.154 0-1.731c.022-.623-.014-1.259.133-1.865.16-.657.292-1.418.8-1.865.242-.213.615-.331.932-.266.618.128 1.399.571 1.465 1.199zm15.852 8.258c.581.613-.028 1.692-.133 2.53-.057.45.061 1.019-.266 1.332-.423.404-1.148.273-1.732.267-.766-.009-1.525-.198-2.264-.4-.732-.2-1.577-.281-2.131-.799-.392-.366-.524-.948-.666-1.465-.107-.388-.303-.834-.134-1.199.136-.29.4-.533.8-.533.399 0-.666-.266 1.598 0 2.264.267 1.684.222 2.531.267.798.042 1.847-.58 2.397 0zm33.366-5.178c-.019.91-1.029 1.634-1.865 1.998-.692.3-1.509 0-2.264 0-.71 0-1.598.665-2.131 0-.533-.666-1.369-.76-1.199-1.332.196-.661 1.328-.373 1.998-.533.839-.2 1.865-.267 2.531-.533.666-.266 1.433-.755 2.131-.533.39.125.808.523.799.933zm-34.479 13.457l-3.5-1.375-.375 2.125 3 1.375.875-2.125zm.82-70.663c-.42.68-.213 1.628 0 2.398.069.249.142.643.4.666.47.042.728-.64.932-1.066.331-.691.426-1.498.399-2.264-.006-.183.034-.456-.133-.533-.541-.249-1.285.293-1.598.799zm-10.312 6.224c-.181.195 0 .533 0 .799 0 .311-.171.673 0 .933.186.282.603.476.933.399.398-.093.638-.556.799-.932.175-.41.444-1.012.133-1.332-.434-.447-1.44-.323-1.865.133zm-2.367 1.385c-.244.531-.138 1.309.266 1.731.156.164.449.199.666.133.3-.091.546-.375.666-.665.153-.37.132-.822 0-1.199-.094-.268-.253-.618-.533-.666-.413-.071-.891.285-1.065.666z"/>
    <path fill="#282828" fill-rule="evenodd" d="M144.923 149.68c-.245 1.12-.42 1.995-.945 2.52-.49.525-1.785.35-1.785.98 0 .21.28.455.7.455.455 0 .98-.105 1.505-.105 1.89 0 3.5.07 4.83.07 1.015 0 2.03-.035 3.01-.035.875 0 1.855.035 2.905.035 1.54 0 2.87-.07 3.955-.07h.525c.35 0 .42-.105.525-.665.455-2.415.7-3.71.7-3.99 0-.315-.21-.595-.455-.595-.77 0-.84 1.4-1.75 2.38-1.05 1.12-3.36 1.715-6.895 1.715-2.03 0-2.975-.14-2.975-.945 0-.315.14-1.05.385-2.135l1.365-5.74c.21-.84 0-1.12 1.19-1.12.21 0 1.19.105 2.94.28.56.07 1.05.07 1.505.175.735.175 1.19.805 1.19 1.645 0 .28-.07.63-.07 1.085 0 .315.28.595.56.595.56 0 .595-.665.77-1.89.385-2.835 1.225-4.62 1.225-5.53 0-.28-.14-.42-.49-.42-.875 0-.7 1.155-1.54 2.17-.525.595-1.995.945-4.48.945-.875 0-1.365.07-1.505.07-.49 0-.735-.21-.735-.49 0-.21.21-.56.315-1.015l1.33-5.565c.28-1.12.175-1.155 1.855-1.155 2.87 0 4.445.07 5.11 1.225.63 1.12 0 2.345.945 2.345.455 0 .595-.245.7-.805l.525-2.765c.035-.245.07-.455.07-.595 0-.525-.385-.525-1.89-.525h-13.055c-.91 0-1.33.035-1.33.455 0 .42.665.49 1.82.595.7.07.98.175.98.7 0 .455-.14.84-.21 1.225l-3.325 14.49zm27.825-12.145c.665-2.555.735-3.71 2.1-4.2.945-.35 1.68 0 1.68-.84 0-.385-.315-.455-1.085-.455-1.155 0-2.73.21-4.655.21-.735 0-1.715-.035-2.975-.035-.91 0-1.365.175-1.365.525 0 .455.525.49 1.54.595.98.105 1.435.14 1.435.91 0 .665-.7 3.01-1.925 7.14-1.05 3.57-1.785 6.055-1.785 7.595 0 2.975 3.185 5.425 7.91 5.425 4.305 0 7.105-1.645 8.785-5.11 1.155-2.415 1.715-6.23 2.975-10.815.77-2.835.875-4.305 1.995-5.04.595-.385 1.26-.175 1.26-.875 0-.315-.21-.455-.595-.455-.21 0-1.54.14-3.955.14-.315 0-.7-.035-1.19-.035s-.805.175-.805.455c0 .595.595.56 1.505.735.875.175 1.155.455 1.155 1.19 0 1.225-.42 2.38-.735 3.64-.595 2.45-1.05 5.11-1.925 7.98-.7 2.275-1.33 4.025-2.73 5.145-1.12.91-2.975 1.54-4.83 1.54-2.73 0-4.585-1.47-4.585-3.64 0-1.085.315-2.17.63-3.36l2.17-8.365zm18.2 11.83c-.385 1.68-.455 2.8-1.085 3.08-.77.315-1.715.14-1.715.805 0 .35.28.49.91.49 1.015 0 1.925-.07 2.8-.07h.91c.805 0 1.715-.035 2.73-.035.385 0 .735.07 1.12.07.665 0 .98-.21.98-.49 0-.735-.98-.455-1.995-.77-.525-.175-.84-.525-.84-.875 0-.385.14-.7.21-1.015l1.19-5.74c.595-.07 1.225-.14 1.82-.21l3.815 7.665c.455.91.7 1.505 1.12 1.575.735.14 1.75.035 2.975.245.91.14 1.925.525 3.115.525.77 0 1.12-.14 1.12-.49 0-.595-1.015-.315-2.17-.98-1.05-.595-1.575-1.47-2.24-2.73l-3.605-6.93c4.795-2.38 7.21-4.34 7.21-7.28 0-2.765-1.995-4.2-5.95-4.2-1.925 0-4.69.28-8.155.28-1.715 0-2.765-.14-3.115-.14-.455 0-.7.14-.7.385 0 .49.49.525 1.4.595 1.12.105 1.645.28 1.645.875 0 .455-.21.84-.28 1.225l-3.22 14.14zm5.81-7.07l1.47-7.21c.315-1.54.385-1.96 2.1-1.96 2.94 0 4.445 1.26 4.445 3.5 0 1.995-1.435 4.2-4.025 5.635-1.645.91-3.815 1.295-4.06 1.295-.175 0-.245-.035-.245-.14 0-.28.21-.665.315-1.12zm15.925 2.695c0 5.53 3.29 9.415 7.875 9.415 3.115 0 5.88-1.47 8.4-4.445 2.065-2.45 3.325-5.88 3.325-9.24 0-2.765-1.085-5.32-3.08-7.21-1.225-1.155-2.835-1.785-4.76-1.785-3.64 0-7.14 2.1-9.45 5.6a14.055 14.055 0 0 0-2.31 7.665zm12.005-12.25c2.1 0 3.64 1.82 3.64 4.76 0 4.655-1.54 9.835-3.675 13.09-1.12 1.75-2.73 2.66-4.27 2.66-2.205 0-3.78-1.995-3.78-5.355 0-.945.175-2.03.455-3.325.525-2.485 1.05-4.795 2.065-6.965 1.54-3.255 3.29-4.865 5.565-4.865z" opacity=".9"/>
    <path fill-opacity=".7" d="M31.408 175.609l.371-1.776c.225-1.081 1.304-1.996 2.407-2.043q18.502-.79 22.252-15.227c9.25-33 8.812-37.938 17.812-68.688.149-2.893-2.424-4.8-5.375-5.375l-12.939-.812a.846.846 0 0 1-.798-1.043l.162-.79c.11-.541.647-1.015 1.197-1.058 7.261-.57 22.23-5.602 40.212-13.447 2.023-.883 3.216.135 2.661 2.272L76.438 156c-1.928 9.886 4.936 15.563 18.57 16.817 1.1.101 1.709 1.033 1.36 2.08l-.258.772c-.349 1.047-1.528 1.898-2.632 1.898H33c-1.104 0-1.817-.878-1.592-1.958z"/>
</svg>
