<svg width="256" height="256" xmlns="http://www.w3.org/2000/svg" xmlns:xlink="http://www.w3.org/1999/xlink">
    <defs>
        <linearGradient id="e" x1="296" x2="296" y1="-212" y2="236" gradientUnits="userSpaceOnUse">
            <stop offset="0" stop-color="#ebdbb2"/>
            <stop offset=".125" stop-color="#ebdbb2" stop-opacity=".098"/>
            <stop offset=".925" stop-opacity=".098"/>
            <stop offset="1" stop-opacity=".498"/>
        </linearGradient>
        <clipPath id="d">
            <path d="M361.938-212C507.235-212 528-191.287 528-46.125v116.25C528 215.286 507.235 236 361.937 236H214.063C68.766 236 48 215.286 48 70.125v-116.25C48-191.287 68.765-212 214.063-212z" fill="#b16286"/>
        </clipPath>
        <filter id="b" x="-.01" y="-.01" width="1.023" height="1.025" color-interpolation-filters="sRGB">
            <feGaussianBlur stdDeviation="1.16"/>
        </filter>
        <filter id="a" x="-.02" y="-.03" width="1.046" height="1.05" color-interpolation-filters="sRGB">
            <feGaussianBlur stdDeviation="2.32"/>
        </filter>
        <linearGradient id="c" x1="249.125" x2="6.483" y1="240.034" y2="12.777" gradientUnits="userSpaceOnUse">
            <stop offset="0" stop-color="#458588"/>
            <stop offset="1" stop-color="#458588"/>
        </linearGradient>
        <filter id="f">
            <feGaussianBlur stdDeviation=".738"/>
        </filter>
        <filter id="g">
            <feGaussianBlur stdDeviation=".295"/>
        </filter>
    </defs>
    <path transform="matrix(1.01937 0 0 1.01937 0 8.31)" d="M162.537 5.568c72.648 0 83.031 10.357 83.031 82.938v58.125c0 72.58-10.383 82.937-83.031 82.937H88.599c-72.648 0-83.031-10.357-83.031-82.937V88.506c0-72.581 10.383-82.938 83.031-82.938z" filter="url(#a)" opacity=".2"/>
    <path d="M165.685 11.947c74.055 0 84.64 10.557 84.64 84.544v59.25c0 73.987-10.585 84.544-84.64 84.544h-75.37c-74.055 0-84.64-10.557-84.64-84.543V96.49c0-73.987 10.585-84.544 84.64-84.544z" fill="none" opacity=".1" stroke-linecap="round" stroke-linejoin="round" stroke-width="4.077" stroke="#282828"/>
    <path transform="matrix(1.01937 0 0 1.01937 0 8.31)" d="M162.537 3.568c72.648 0 83.031 10.357 83.031 82.938v58.125c0 72.58-10.383 82.937-83.031 82.937H88.599c-72.648 0-83.031-10.357-83.031-82.937V86.506c0-72.581 10.383-82.938 83.031-82.938z" filter="url(#b)" opacity=".1"/>
    <path d="M165.685 11.947c74.055 0 84.64 10.557 84.64 84.544v59.25c0 73.987-10.585 84.544-84.64 84.544h-75.37c-74.055 0-84.64-10.557-84.64-84.543V96.49c0-73.987 10.585-84.544 84.64-84.544z" fill="url(#c)"/>
    <path transform="matrix(.50968 0 0 .50968 -18.789 120)" d="M361.938-212C507.235-212 528-191.287 528-46.125v116.25C528 215.286 507.235 236 361.937 236H214.063C68.766 236 48 215.286 48 70.125v-116.25C48-191.287 68.765-212 214.063-212z" clip-path="url(#d)" fill="none" opacity=".4" stroke-linecap="round" stroke-linejoin="round" stroke-width="8" stroke="url(#e)"/>
    <path d="M90.315 240.285c-74.055 0-84.64-10.557-84.64-84.543v-29.626h244.65v29.626c0 73.986-10.585 84.543-84.64 84.543z" fill="#ebdbb2" opacity=".25"/>
    <path d="M129.542 11.947v228.338h37.21c73.122 0 83.572-10.557 83.572-84.543V96.49c0-73.987-10.45-84.544-83.572-84.544z" fill="#ebdbb2" opacity=".25"/>
    <g fill-rule="evenodd">
        <path transform="matrix(3.98396 0 0 3.98396 3588.517 795.18)" d="M-875.375-181.594c-4.912 0-11.117 4.693-11.063 11.938.053 7.012 2.383 10.8 4.157 15.094l5.25-2.188c-1.206-2.47-2.755-4.934-3.313-6.156-1.56-3.423-2.13-4.954-2-7.563.126-2.522.967-4.075 2.5-5.562 1.534-1.487 3.655-2.226 6.188-1.875 5.364.743 7.09 4.803 7.218 6.781.106 1.627-1.066 5.633-5.187 5.438-2.857-.136-4.463-1.72-4.656-4.407-.143-1.98 1.773-3.978 4.875-2.969.499.163.533-.732-.031-1.187-1.453-1.17-7.207-.723-7.188 3.875.018 4.261 3.427 7.106 6.719 7.125 6.895.04 8.249-5.402 8-9.156-.276-4.16-5.522-9.188-11.469-9.188z" xlink:href="#path3497" filter="url(#f)" opacity=".268"/>
        <path d="M73.593 175.416c-7.066-17.106-16.434-32.18-16.643-60.118-.215-28.863 24.544-47.55 44.113-47.552 23.692-.003 44.537 20.005 45.636 36.577.992 14.955-4.33 36.706-31.8 36.544-13.115-.076-26.744-11.486-26.816-28.462-.078-18.319 22.87-20.106 28.658-15.442 2.247 1.811 2.179 5.396.19 4.749-12.356-4.023-19.99 3.906-19.422 11.794.77 10.703 7.119 17.07 18.502 17.612 16.42.78 21.016-15.189 20.596-21.67-.51-7.88-7.38-24.087-28.752-27.048-10.092-1.396-18.455 1.626-24.564 7.55-6.109 5.923-9.543 12.048-10.045 22.095-.52 10.393 1.75 16.49 7.965 30.126 2.22 4.87 8.422 14.694 13.225 24.532z" fill="#ebdbb2"/>
        <path transform="matrix(3.98396 0 0 3.98396 3588.517 791.195)" d="M-854.966-180.31c1.774 4.294 4.125 8.077 4.177 15.09.054 7.245-6.16 11.935-11.072 11.935-5.947.001-11.18-5.02-11.455-9.18-.25-3.754 1.087-9.214 7.982-9.173 3.292.019 6.713 2.883 6.73 7.144.02 4.598-5.74 5.047-7.192 3.876-.565-.455-.547-1.354-.048-1.192 3.101 1.01 5.017-.98 4.875-2.96-.193-2.687-1.787-4.285-4.644-4.42-4.122-.197-5.275 3.812-5.17 5.438.128 1.978 1.853 6.046 7.217 6.79 2.533.35 4.632-.409 6.166-1.896 1.533-1.486 2.395-3.024 2.521-5.546.13-2.608-.44-4.139-2-7.561-.557-1.223-2.113-3.688-3.319-6.158z" fill="#458588" filter="url(#g)" opacity=".774"/>
        <path d="M181.75 67.746c7.067 17.107 16.436 32.181 16.644 60.119.215 28.863-24.544 47.55-44.113 47.55-23.692.005-44.537-20.003-45.636-36.573-.992-14.958 4.33-36.709 31.8-36.546 13.115.076 26.744 11.486 26.816 28.462.078 18.318-22.87 20.106-28.657 15.442-2.248-1.812-2.18-5.396-.19-4.75 12.355 4.024 19.988-3.906 19.421-11.793-.769-10.703-7.119-17.07-18.502-17.612-16.419-.78-21.016 15.19-20.596 21.67.51 7.88 7.38 24.088 28.753 27.046 10.09 1.398 18.454-1.625 24.563-7.548 6.11-5.924 9.544-12.049 10.045-22.095.52-10.393-1.75-16.49-7.965-30.125-2.22-4.871-8.422-14.694-13.225-24.533z" fill="#ebdbb2"/>
        <path d="M101.03 67.685c-19.57.002-44.288 18.695-44.073 47.559.208 27.936 9.616 43.027 16.683 60.132l20.79-8.714c-1.855-3.803-3.887-7.443-5.85-10.956h-4.607v-8.342c-1.132-2.038-2.116-3.862-2.739-5.229-6.216-13.635-8.487-19.736-7.968-30.128.502-10.048 3.976-16.113 10.085-22.037 6.109-5.922 14.434-8.99 24.526-7.594 10.106 1.4 16.932 5.788 21.414 10.831h4.232v6.225c1.927 3.72 2.941 7.305 3.113 9.96.186 2.88-.722 7.628-3.113 11.952v14.815c11.356-7.188 13.902-21.243 13.197-31.871-1.099-16.572-21.999-36.606-45.69-36.603z" fill="#ebdbb2"/>
    </g>
</svg>
