<svg width="256" height="256" version="1.1" xmlns="http://www.w3.org/2000/svg">
  <defs>
    <linearGradient id="linearGradient31" x1=".5002" x2=".5002" y2="1" gradientTransform="matrix(244,0,0,228,5.986,12)" gradientUnits="userSpaceOnUse">
      <stop stop-color="#ebdbb2" stop-opacity=".2" offset="0"/>
      <stop stop-color="#ebdbb2" stop-opacity=".05" offset=".1"/>
      <stop stop-opacity="0" offset=".7036"/>
      <stop stop-opacity=".1" offset=".8975"/>
      <stop stop-opacity=".2" offset="1"/>
    </linearGradient>
    <linearGradient id="linearGradient6" x1="140" x2="140" y1="12" y2="240" gradientUnits="userSpaceOnUse">
      <stop stop-color="#504945" offset="0"/>
      <stop stop-color="#3c3836" offset="1"/>
    </linearGradient>
  </defs>
  <path d="m165 12c72 0 85 15 85 87v56c0 70-13 85-85 85h-74c-72 0-85-15-85-85v-56c0-72 13-87 85-87z" fill="url(#linearGradient6)" style="isolation:isolate"/>
  <path d="m128 49c-45.502 0-82.5 36.998-82.5 82.5 0 45.502 36.998 82.5 82.5 82.5 45.502 0 82.5-36.998 82.5-82.5 0-45.502-36.998-82.5-82.5-82.5zm0 12.375c38.788 0 70.125 31.337 70.125 70.125s-31.337 70.125-70.125 70.125-70.125-31.337-70.125-70.125 31.337-70.125 70.125-70.125zm-37.119 37.125v28.875h12.375v-28.875zm61.869 0v28.875h12.375v-28.875zm-52.1 47.975-8.7441 8.7441 4.373 4.373c8.415 8.415 19.841 13.158 31.721 13.158s23.306-4.7432 31.721-13.158l4.373-4.373-8.7441-8.7441-4.373 4.3711c-6.105 6.105-14.355 9.5293-22.977 9.5293s-16.872-3.4243-22.977-9.5293z" fill="#282828" opacity=".5" style="isolation:isolate"/>
  <path d="m128 44c-45.502 0-82.5 36.998-82.5 82.5 0 45.502 36.998 82.5 82.5 82.5 45.502 0 82.5-36.998 82.5-82.5 0-45.502-36.998-82.5-82.5-82.5zm0 12.375c38.788 0 70.125 31.337 70.125 70.125 0 38.788-31.337 70.125-70.125 70.125-38.788 0-70.125-31.337-70.125-70.125 0-38.788 31.337-70.125 70.125-70.125zm-37.119 37.125v28.875h12.375v-28.875zm61.869 0v28.875h12.375v-28.875zm-52.1 47.975-8.7441 8.7441 4.373 4.373c8.415 8.415 19.841 13.158 31.721 13.158s23.306-4.7432 31.721-13.158l4.373-4.373-8.7441-8.7441-4.373 4.3711c-6.105 6.105-14.355 9.5293-22.977 9.5293s-16.872-3.4243-22.977-9.5293z" fill="#ebdbb2" style="isolation:isolate"/>
  <path d="m128 44c-45.502 0-82.5 36.998-82.5 82.5 0 0.83836 0.03756 1.6676 0.0625 2.5 1.3287-44.347 37.773-80 82.438-80 44.664 0 81.109 35.653 82.438 80 0.0249-0.83241 0.0625-1.6616 0.0625-2.5 0-45.502-36.998-82.5-82.5-82.5zm-37.119 49.5v5h12.375v-5zm61.869 0v5h12.375v-5zm-94.811 35.5c-0.02906 0.83147-0.06445 1.6613-0.06445 2.5 0 38.788 31.337 70.125 70.125 70.125s70.125-31.337 70.125-70.125c0-0.83867-0.0354-1.6685-0.0644-2.5-1.3149 37.623-32.111 67.625-70.061 67.625-37.95 0-68.746-30.002-70.061-67.625zm42.711 12.475-8.7441 8.7441 2.5 2.5 6.2441-6.2441 4.373 4.3711c6.105 6.105 14.355 9.5293 22.977 9.5293s16.872-3.4243 22.977-9.5293l4.373-4.3711 6.2441 6.2441 2.5-2.5-8.7441-8.7441-4.373 4.3711c-6.105 6.105-14.355 9.5293-22.977 9.5293s-16.872-3.4243-22.977-9.5293z" fill="#fbf1c7" opacity=".6" style="isolation:isolate"/>
  <path d="m91 12c-72 0-85 15-85 87v56c0 70 13 85 85 85h74c72 0 85-15 85-85v-56c0-72-13-87-85-87zm0 4h74c68 0 80 15 80 83v56c0 66-12 81-80 81h-74c-68 0-80-15-80-81v-56c0-68 12-83 80-83z" fill="url(#linearGradient31)" style="isolation:isolate"/>
</svg>
