<svg width="256" height="256" version="1.1" xmlns="http://www.w3.org/2000/svg">
  <defs>
    <linearGradient id="linearGradient31" x1=".5002" x2=".5002" y2="1" gradientTransform="matrix(244,0,0,228,5.986,12)" gradientUnits="userSpaceOnUse">
      <stop stop-color="#ebdbb2" stop-opacity=".2" offset="0"/>
      <stop stop-color="#ebdbb2" stop-opacity=".05" offset=".1"/>
      <stop stop-opacity="0" offset=".7036"/>
      <stop stop-opacity=".1" offset=".8975"/>
      <stop stop-opacity=".2" offset="1"/>
    </linearGradient>
    <linearGradient id="linearGradient6" x1="140" x2="140" y1="12" y2="240" gradientUnits="userSpaceOnUse">
      <stop stop-color="#3c3836" offset="0"/>
      <stop stop-color="#282828" offset="1"/>
    </linearGradient>
    <linearGradient id="linearGradient14" x1="36.34" x2="-9.336" y1="63.8" y2="5.296" gradientTransform="matrix(5.083 0 0 4.75 6 12)" gradientUnits="userSpaceOnUse">
      <stop stop-color="#458588" offset=".06"/>
      <stop stop-color="#8ec07c" offset=".87"/>
    </linearGradient>
    <linearGradient id="linearGradient15" x1="27.28" x2="43.9" y1="37.02" y2="-7.688" gradientTransform="matrix(5.083 0 0 4.75 5.998 12)" gradientUnits="userSpaceOnUse">
      <stop stop-color="#8ec07c" offset=".12"/>
      <stop stop-color="#8ec07c" offset=".36"/>
      <stop stop-color="#b8bb26" offset=".58"/>
      <stop stop-color="#fabd2f" offset=".77"/>
      <stop stop-color="#fabd2f" offset=".92"/>
      <stop stop-color="#fabd2f" offset="1"/>
    </linearGradient>
    <linearGradient id="linearGradient16" x1="61.24" x2="15.56" y1="44.36" y2="-14.14" gradientTransform="matrix(5.083,0,0,4.75,5.948,12)" gradientUnits="userSpaceOnUse">
      <stop stop-color="#458588" offset=".05"/>
      <stop stop-color="#458588" offset=".18"/>
      <stop stop-color="#83a598" offset=".39"/>
      <stop stop-color="#689d6a" offset=".67"/>
      <stop stop-color="#8ec07c" offset=".87"/>
    </linearGradient>
  </defs>
  <path d="m165 12c72 0 85 15 85 87v56c0 70-13 85-85 85h-74c-72 0-85-15-85-85v-56c0-72 13-87 85-87z" fill="url(#linearGradient6)" style="isolation:isolate"/>
  <path d="m233.4 27.37-105.9 98.33 106.1 98.98c13.02-12.37 16.45-33.8 16.45-69.68v-56c0-37.05-3.426-59-16.63-71.63z" fill="url(#linearGradient16)" stroke-width="4.914"/>
  <path d="m22.54 27.46c-13.1 12.6-16.54 34.55-16.54 71.54v56c0 70 13 85 85 85h74c35.01 0 56.05-3.527 68.45-15.22 0.0335-0.0316 0.067-0.0632 0.1004-0.095l-106.1-98.98z" fill="url(#linearGradient14)" stroke-width="4.914"/>
  <path d="m233.4 27.37-105.9 98.33 61.14 57.04 52.32-145.4c-2.209-4.002-4.756-7.407-7.541-9.987z" fill="url(#linearGradient15)" stroke-width="4.914"/>
  <path d="m91 12c-72 0-85 15-85 87v56c0 70 13 85 85 85h74c72 0 85-15 85-85v-56c0-72-13-87-85-87zm0 4h74c68 0 80 15 80 83v56c0 66-12 81-80 81h-74c-68 0-80-15-80-81v-56c0-68 12-83 80-83z" fill="url(#linearGradient31)" style="isolation:isolate"/>
</svg>
