<svg width="256" height="256" version="1.1" xmlns="http://www.w3.org/2000/svg">
  <linearGradient id="b" x1=".5002" x2=".5002" y2="1" gradientTransform="matrix(244,0,0,228,5.981,12)" gradientUnits="userSpaceOnUse">
    <stop stop-color="#ebdbb2" offset="0"/>
    <stop stop-color="#ebdbb2" offset="1"/>
  </linearGradient>
  <defs>
    <linearGradient id="linearGradient31" x1=".5002" x2=".5002" y2="1" gradientTransform="matrix(244,0,0,228,5.988,12)" gradientUnits="userSpaceOnUse">
      <stop stop-color="#282828" stop-opacity=".1" offset="0"/>
      <stop stop-color="#bdae93" stop-opacity=".1" offset=".1"/>
      <stop stop-color="#d5c4a1" stop-opacity="0" offset=".7022"/>
      <stop stop-color="#bdae93" stop-opacity=".302" offset=".9"/>
      <stop stop-color="#282828" stop-opacity=".3" offset="1"/>
    </linearGradient>
  </defs>
  <path d="m165 12c72 0 85 15 85 87v56c0 70-13 85-85 85h-74c-72 0-85-15-85-85v-56c0-72 13-87 85-87z" fill="url(#b)" style="isolation:isolate"/>
  <path class="cls-3" d="m84.06 97.488a43.634 43.634 0 0 0-35.439 68.615l0.11346-0.0481a43.581 43.581 0 0 0 35.764 18.652h95.33a35.439 35.439 0 0 0 31.222-18.652l-0.0498-0.0292a35.439 35.439 0 0 0-28.916-52.101l0.1771 0.0447h-2.3934a35.923 35.923 0 0 0-14.084 2.8793l-21.672 9.1457-0.0327-0.0189-0.22182 0.0945-36.451-22.068a44.294 44.294 0 0 0-22.816-6.5102zm94.89 49.47 1.0334 0.62919 1.1487 0.68941-1.014-0.60174z" fill="#282828" opacity=".3" stroke-width="5.032"/>
  <path class="cls-2" d="m107.47 98.879 36.671 22.147 22.147-9.1721a36.011 36.011 0 0 1 14.128-2.9233h2.3916a54.654 54.654 0 0 0-98.587-16.434h0.57585a43.581 43.581 0 0 1 22.631 6.3782z" fill="#076678" stroke-width="4.4294"/>
  <path class="cls-3" d="m107.47 98.879a44.294 44.294 0 0 0-22.807-6.5111h-0.57585a43.634 43.634 0 0 0-35.439 68.615l32.331-13.6 14.577-5.8914 32.023-13.292 16.698-7.0428z" fill="#458588" stroke-width="4.4294"/>
  <path d="m182.3 108.83h-2.3916a35.923 35.923 0 0 0-14.084 2.8793l-21.839 9.2161 6.3342 3.8097 20.774 12.315 8.8552 5.4038 31.002 18.6a35.439 35.439 0 0 0-28.837-52.269z" fill="#649590" stroke-width="4.4294"/>
  <path class="cls-5" d="m180.09 142.55-8.8552-5.4478-20.774-12.447-6.3342-3.8097-16.698 7.0428-32.023 13.292-14.392 6.0244-32.331 13.644a43.581 43.581 0 0 0 35.835 18.74h95.33a35.439 35.439 0 0 0 31.231-18.644z" fill="#83a598" stroke-width="4.4294"/>
  <path d="m91 12c-72 0-85 15-85 87v56c0 70 13 85 85 85h74c72 0 85-15 85-85v-56c0-72-13-87-85-87zm0 4h74c68 0 80 15 80 83v56c0 66-12 81-80 81h-74c-68 0-80-15-80-81v-56c0-68 12-83 80-83z" fill="url(#linearGradient31)" style="isolation:isolate"/>
</svg>
