<svg width="256" height="256" version="1.1" xmlns="http://www.w3.org/2000/svg">
  <defs>
    <linearGradient id="linearGradient6" x1="140" x2="140" y1="12" y2="240" gradientUnits="userSpaceOnUse">
      <stop stop-color="#fabd2f" offset="0"/>
      <stop stop-color="#d79921" offset="1"/>
    </linearGradient>
    <linearGradient id="linearGradient31-3" x1=".5002" x2=".5002" y2="1" gradientTransform="matrix(244,0,0,228,5.988,12)" gradientUnits="userSpaceOnUse">
      <stop stop-color="#282828" stop-opacity=".1" offset="0"/>
      <stop stop-color="#bdae93" stop-opacity=".1" offset=".1"/>
      <stop stop-color="#d5c4a1" stop-opacity="0" offset=".7022"/>
      <stop stop-color="#bdae93" stop-opacity=".302" offset=".9"/>
      <stop stop-color="#282828" stop-opacity=".3" offset="1"/>
    </linearGradient>
  </defs>
  <path d="m165 12c72 0 85 15 85 87v56c0 70-13 85-85 85h-74c-72 0-85-15-85-85v-56c0-72 13-87 85-87z" fill="url(#linearGradient6)" style="isolation:isolate"/>
  <path d="m63.11 207v-140.6l64.89 97.34 64.89-97.34v140.6" fill="none" opacity=".3" stroke="#282828" stroke-linejoin="round" stroke-width="21.63"/>
  <path d="m63.11 201.7v-140.6l64.89 97.34 64.89-97.34v140.6" fill="none" stroke="#ebdbb2" stroke-linejoin="round" stroke-width="21.63"/>
  <path d="m117.2 88.13v43.26h-23.82l25.63 38.44c4.282 6.42 13.72 6.42 18 0l25.63-38.44h-23.82v-43.26z" opacity=".1" stroke-width="5.408"/>
  <path d="m93.37 126 25.63 38.44c4.282 6.42 13.72 6.42 18 0l25.63-38.44h-26l-8.629 12.95-8.629-12.95z" fill="#3c3836" stroke-width="5.408"/>
  <rect x="117.2" y="82.72" width="21.63" height="59.48" fill="#3c3836" stroke-width="5.408"/>
  <path d="m91 12c-72 0-85 15-85 87v56c0 70 13 85 85 85h74c72 0 85-15 85-85v-56c0-72-13-87-85-87zm0 4h74c68 0 80 15 80 83v56c0 66-12 81-80 81h-74c-68 0-80-15-80-81v-56c0-68 12-83 80-83z" fill="url(#linearGradient31-3)" style="isolation:isolate"/>
</svg>
