<svg width="256" height="256" version="1.1" xmlns="http://www.w3.org/2000/svg">
  <defs>
    <linearGradient id="linearGradient31" x1=".5002" x2=".5002" y2="1" gradientTransform="matrix(244,0,0,228,5.986,12)" gradientUnits="userSpaceOnUse">
      <stop stop-color="#ebdbb2" stop-opacity=".2" offset="0"/>
      <stop stop-color="#ebdbb2" stop-opacity=".05" offset=".1"/>
      <stop stop-opacity="0" offset=".7036"/>
      <stop stop-opacity=".1" offset=".8975"/>
      <stop stop-opacity=".2" offset="1"/>
    </linearGradient>
    <linearGradient id="linearGradient6" x1="140" x2="140" y1="12" y2="240" gradientUnits="userSpaceOnUse">
      <stop stop-color="#458588" offset="0"/>
      <stop stop-color="#076678" offset="1"/>
    </linearGradient>
  </defs>
  <path d="m165 12c72 0 85 15 85 87v56c0 70-13 85-85 85h-74c-72 0-85-15-85-85v-56c0-72 13-87 85-87z" fill="url(#linearGradient6)" style="isolation:isolate"/>
  <path d="m185.29 55.609c-20.108 0-35.808 15.714-35.808 36.339 2e-3 8.8394 14.323 8.8394 14.323 0 0-11.785 6.333-22.016 21.484-22.016 15.152 0 21.484 10.23 21.484 22.016 0 8.8394 14.323 8.8394 14.323 0 0-20.625-15.698-36.339-35.808-36.339zm0 28.646c-3.9568 0-7.1614 3.2043-7.1614 7.1614 0 3.9568 3.2046 7.1614 7.1614 7.1614 3.9568 0 7.1614-3.2046 7.1614-7.1614 0-3.9572-3.2046-7.1614-7.1614-7.1614zm-57.292 21.484c-10.747 0-23.411 6.6218-29.261 14.883-5.8507-8.2607-17.283-13.833-28.03-13.833-17.757 0-35.808 11.132-35.808 41.697v50.354s0 7.1614 7.1614 7.1614c7.1614 0 7.1614-7.1614 7.1614-7.1614v-50.354c-0.0062-23.228 10.51-28.422 21.484-28.422 10.975 0 21.484 8.6041 21.484 24.324v54.452s0 7.1614 7.1614 7.1614c7.1614 0 7.1614-7.1614 7.1614-7.1614v-54.452c0-15.72 10.51-24.324 21.484-24.324 6.9675 0 21.54 2.4493 21.54 24.324l0.41968 18.589c0 34.349 20.962 43.025 35.332 43.025 14.371 0 35.369-10.13 35.808-40.521v-46.493c0-8.3656-14.323-8.3656-14.323 0v45.766c0 23.056-14.299 26.926-21.484 26.926-7.1852 0-21.583-2.4017-21.583-29.415l-0.41965-16.869c0-26.054-17.031-39.654-35.29-39.654z" fill="#282828" opacity=".3" stroke-width="7.1614"/>
  <path d="m185.29 50.804c-20.108 0-35.808 15.714-35.808 36.339 2e-3 8.8394 14.323 8.8394 14.323 0 0-11.785 6.333-22.016 21.484-22.016 15.152 0 21.484 10.23 21.484 22.016 0 8.8394 14.323 8.8394 14.323 0 0-20.625-15.698-36.339-35.808-36.339zm0 28.646c-3.9568 0-7.1614 3.2043-7.1614 7.1614 0 3.9568 3.2046 7.1614 7.1614 7.1614 3.9568 0 7.1614-3.2046 7.1614-7.1614 0-3.9572-3.2046-7.1614-7.1614-7.1614zm-57.292 21.484c-10.747 0-23.411 6.6218-29.261 14.883-5.8507-8.2607-17.283-13.833-28.03-13.833-17.757 0-35.808 11.132-35.808 41.697v50.354s0 7.1614 7.1614 7.1614c7.1614 0 7.1614-7.1614 7.1614-7.1614v-50.354c-0.0062-23.228 10.51-28.422 21.484-28.422 10.975 0 21.484 8.6041 21.484 24.324v54.452s0 7.1614 7.1614 7.1614c7.1614 0 7.1614-7.1614 7.1614-7.1614v-54.452c0-15.72 10.51-24.324 21.484-24.324 6.9675 0 21.54 2.4493 21.54 24.324l0.41968 18.589c0 34.349 20.962 43.025 35.332 43.025 14.371 0 35.369-10.13 35.808-40.521v-46.493c0-8.3656-14.323-8.3656-14.323 0v45.766c0 23.056-14.299 26.926-21.484 26.926-7.1852 0-21.583-2.4017-21.583-29.415l-0.41965-16.869c0-26.054-17.031-39.654-35.29-39.654z" fill="#ebdbb2" stroke-width="7.1614"/>
  <path d="m185.29 50.804c-20.107 1e-3 -35.807 15.714-35.807 36.338 1.2e-4 0.53584 0.0592 1.0369 0.1582 1.5078 1.5763-18.975 16.629-33.04 35.648-33.041h2e-3c19.021 9.74e-4 34.073 14.067 35.648 33.043 0.0991-0.47139 0.15625-0.97324 0.15625-1.5098 0-20.624-15.696-36.337-35.805-36.338zm2e-3 28.646c-3.9568 0-7.1621 3.203-7.1621 7.1602 0 0.84711 0.17366 1.6482 0.44336 2.4023 0.99039-2.7677 3.6095-4.7578 6.7188-4.7578 3.1092 0 5.7284 1.9901 6.7188 4.7578 0.2697-0.75409 0.44336-1.5552 0.44336-2.4023 0-3.9572-3.2053-7.1602-7.1621-7.1602zm-57.291 21.482c-10.747 0-23.411 6.6219-29.262 14.883-5.8507-8.2607-17.284-13.832-28.031-13.832-17.757 0-35.807 11.13-35.807 41.695v4.8047c0-30.565 18.05-41.695 35.807-41.695 10.747 0 22.181 5.5714 28.031 13.832 5.8507-8.2609 18.515-14.883 29.262-14.883l-2e-3 2e-3c18.259 0 35.289 13.6 35.289 39.654l0.41992 16.869c0 27.013 14.397 29.414 21.582 29.414 7.1848 0 21.484-3.8702 21.484-26.926v-4.8047c0 23.056-14.3 26.926-21.484 26.926-7.1852 0-21.582-2.4009-21.582-29.414l-0.41992-16.869c0-26.054-17.03-39.654-35.289-39.654zm85.936 6.9746c-3.5807 0-7.1621 2.0906-7.1621 6.2734v4.8047c0-8.3656 14.322-8.3656 14.322 0v-4.8047c0-4.1828-3.5795-6.2734-7.1602-6.2734z" fill="#fbf1c7" opacity=".6"/>
  <path d="m91 12c-72 0-85 15-85 87v56c0 70 13 85 85 85h74c72 0 85-15 85-85v-56c0-72-13-87-85-87zm0 4h74c68 0 80 15 80 83v56c0 66-12 81-80 81h-74c-68 0-80-15-80-81v-56c0-68 12-83 80-83z" fill="url(#linearGradient31)" style="isolation:isolate"/>
</svg>
