<svg id="svg48" width="256" height="256" style="isolation:isolate" version="1.1" viewBox="0 0 256 256" xmlns="http://www.w3.org/2000/svg">
 <g id="g9" filter="url(#hxYJghqWEsg1wGUPIdascspcwwv1z4St)">
  <linearGradient id="_lgradient_3" x1=".46015" x2=".46015" y1=".79778" y2=".020789" gradientTransform="matrix(244.65 0 0 228.34 5.676 11.947)" gradientUnits="userSpaceOnUse">
   <stop id="stop2" stop-color="#ebdbb2" offset="0"/>
   <stop id="stop4" stop-color="#ebdbb2" offset="1"/>
  </linearGradient>
  <path id="path7" d="m165.68 11.947c74.055 0 84.639 10.557 84.639 84.544v59.251c0 73.986-10.584 84.543-84.639 84.543h-75.37c-74.055 0-84.639-10.557-84.639-84.543v-59.251c0-73.987 10.584-84.544 84.639-84.544h75.37z" fill="url(#_lgradient_3)"/>
 </g>
 <linearGradient id="_lgradient_4" x1=".57652" x2=".57652" y1="-.0081094" y2="1.0144" gradientTransform="matrix(205.78 0 0 228.34 44.542 11.83)" gradientUnits="userSpaceOnUse">
  <stop id="stop24" stop-color="#83a598" offset="0"/>
  <stop id="stop26" stop-color="#076678" offset="1"/>
 </linearGradient>
 <path id="path29" d="m128.5 240.17h37.186c9.256 0 17.521-0.167 24.898-0.6 3.688-0.216 7.155-0.499 10.412-0.863s6.305-0.807 9.156-1.344c2.852-0.536 5.507-1.165 7.979-1.9s4.761-1.576 6.879-2.535c2.118-0.96 4.065-2.038 5.855-3.248s3.423-2.551 4.91-4.037c1.488-1.486 2.832-3.117 4.043-4.905 1.212-1.788 2.291-3.734 3.252-5.849 0.961-2.116 1.803-4.4 2.539-6.869 0.737-2.47 1.367-5.123 1.905-7.971 0.537-2.849 0.981-5.893 1.345-9.147 0.365-3.253 0.649-6.717 0.866-10.402 0.434-7.369 0.599-15.625 0.599-24.873v-59.252c0-9.248-0.165-17.506-0.599-24.875-0.217-3.685-0.501-7.147-0.866-10.4-0.364-3.254-0.808-6.3-1.345-9.149-0.538-2.848-1.168-5.499-1.905-7.969-0.736-2.469-1.578-4.755-2.539-6.871-0.961-2.115-2.04-4.061-3.252-5.849-1.211-1.788-2.555-3.419-4.043-4.905-1.487-1.486-3.12-2.827-4.91-4.037s-3.737-2.288-5.855-3.248c-2.118-0.959-4.407-1.8-6.879-2.535s-5.127-1.364-7.979-1.9c-2.851-0.537-5.899-0.98-9.156-1.344s-6.724-0.647-10.412-0.863c-7.377-0.433-15.642-0.6-24.898-0.6h-70.721c-5.211 4.331-16.056 16.893-22.088 25.899-17.325 25.865-26.673 54.166-28.199 85.378-0.435 8.898 0.086 11.456 2.908 14.278 3.052 3.052 3.993 3.166 26.141 3.166 18.678 0 19.969 0.059 19.955 0.916-9e-3 0.504-0.364 3.274-0.787 6.154-2.741 18.642-0.85 42.653 4.791 60.867 2.411 7.785 4.673 9.699 12.537 10.6 14.135 1.619 29.718-0.346 43.441-5.481 11.755-4.398 21.363-10.347 31.162-19.293 2.161-1.972 4.572-3.92 5.36-4.33 6.44-3.351 14.349 1.111 14.957 8.438 0.341 4.119-1.117 6.723-6.53 11.66-19.022 17.349-43.183 27.913-68.517 29.959-0.672 0.054-0.926 0.075-1.596 0.129z" fill="url(#_lgradient_4)"/>
 <path id="path31" d="m147.09 75h0.826c3.912 0 7.087 3.175 7.087 7.087v16.826c0 3.912-3.175 7.087-7.087 7.087h-0.826c-3.912 0-7.087-3.175-7.087-7.087v-16.826c0-3.912 3.175-7.087 7.087-7.087z" fill="#ebdbb2"/>
 <g id="g46" opacity=".4">
  <g id="g44" opacity=".4">
   <linearGradient id="_lgradient_5" x1=".517" x2=".517" y1="1.1257e-6" y2="1" gradientTransform="matrix(244.65 0 0 228.34 5.68 11.95)" gradientUnits="userSpaceOnUse">
    <stop id="stop33" stop-color="#ebdbb2" offset="0"/>
    <stop id="stop35" stop-color="#ebdbb2" stop-opacity=".098" offset=".125"/>
    <stop id="stop37" stop-color="#282828" offset=".925"/>
    <stop id="stop39" stop-color="#282828" offset="1"/>
   </linearGradient>
   <path id="path42" d="m165.07 11.951c4.328-0.01 8.656 0.04 12.984 0.138 3.875 0.078 7.75 0.226 11.626 0.452 3.453 0.196 6.905 0.481 10.348 0.854 3.06 0.335 6.118 0.786 9.148 1.346 2.713 0.5 5.399 1.14 8.046 1.916 2.398 0.697 4.745 1.56 7.023 2.584 2.112 0.941 4.14 2.062 6.06 3.35 1.84 1.24 3.559 2.651 5.134 4.215 1.565 1.569 2.978 3.283 4.22 5.119 1.286 1.917 2.411 3.938 3.363 6.042 1.021 2.275 1.888 4.615 2.597 7.005 0.777 2.644 1.417 5.327 1.918 8.037 0.562 3.025 1.012 6.069 1.348 9.127 0.374 3.439 0.659 6.878 0.856 10.326 0.226 3.861 0.373 7.732 0.462 11.593 0.088 4.323 0.138 8.646 0.128 12.96v58.21c0.01 4.324-0.04 8.637-0.128 12.96-0.085 3.867-0.239 7.732-0.462 11.593-0.197 3.449-0.482 6.892-0.856 10.326-0.336 3.061-0.786 6.109-1.348 9.137-0.502 2.707-1.142 5.386-1.918 8.027-0.707 2.391-1.575 4.731-2.597 7.005-0.95 2.105-2.075 4.126-3.364 6.042-1.239 1.838-2.652 3.552-4.22 5.119-1.575 1.564-3.294 2.975-5.134 4.215-1.92 1.288-3.947 2.409-6.059 3.35-2.28 1.023-4.626 1.889-7.023 2.594-2.646 0.777-5.332 1.414-8.046 1.906-3.031 0.566-6.083 1.015-9.148 1.346-3.443 0.373-6.895 0.658-10.348 0.854-3.875 0.226-7.75 0.374-11.626 0.462-4.328 0.088-8.656 0.138-12.984 0.128h-74.126c-4.328 0.01-8.656-0.04-12.984-0.128-3.878-0.085-7.754-0.239-11.626-0.462-3.456-0.196-6.907-0.481-10.348-0.854-3.065-0.331-6.117-0.78-9.148-1.346-2.714-0.492-5.4-1.129-8.046-1.906-2.397-0.705-4.743-1.571-7.023-2.594-2.112-0.941-4.14-2.062-6.06-3.35-1.84-1.24-3.559-2.651-5.134-4.215-1.568-1.567-2.981-3.281-4.22-5.119-1.288-1.916-2.413-3.937-3.363-6.042-1.022-2.274-1.89-4.614-2.597-7.005-0.776-2.641-1.416-5.32-1.918-8.027-0.562-3.028-1.012-6.076-1.348-9.137-0.374-3.434-0.659-6.877-0.856-10.326-0.223-3.861-0.377-7.726-0.462-11.593-0.092-4.319-0.135-8.64-0.128-12.96v-58.21c-0.01-4.314 0.04-8.637 0.128-12.96 0.089-3.86 0.236-7.732 0.462-11.593 0.197-3.448 0.482-6.887 0.856-10.326 0.335-3.055 0.787-6.101 1.348-9.127 0.501-2.71 1.141-5.393 1.918-8.037 0.709-2.39 1.576-4.73 2.597-7.005 0.952-2.104 2.077-4.125 3.364-6.042 1.242-1.836 2.655-3.55 4.22-5.119 1.575-1.564 3.294-2.975 5.134-4.215 1.92-1.288 3.947-2.409 6.059-3.35 2.278-1.024 4.625-1.887 7.023-2.584 2.647-0.776 5.333-1.416 8.046-1.916 3.032-0.561 6.083-1.01 9.148-1.346 3.443-0.373 6.895-0.658 10.348-0.854 3.875-0.226 7.75-0.374 11.626-0.452 4.328-0.098 8.656-0.148 12.984-0.138h74.126zm0.01 4.009c4.298-0.01 8.597 0.039 12.895 0.127 3.827 0.089 7.653 0.236 11.48 0.452 3.383 0.197 6.766 0.472 10.13 0.845 2.971 0.315 5.932 0.747 8.863 1.297 2.581 0.473 5.135 1.08 7.653 1.818 2.219 0.649 4.391 1.45 6.501 2.397 1.905 0.853 3.735 1.865 5.47 3.026 1.624 1.093 3.14 2.34 4.524 3.724 1.386 1.385 2.637 2.898 3.738 4.519 1.16 1.727 2.174 3.547 3.03 5.443 0.945 2.108 1.747 4.278 2.4 6.494 0.742 2.511 1.352 5.059 1.829 7.634 0.54 2.928 0.974 5.875 1.298 8.842 0.374 3.36 0.65 6.73 0.846 10.11 0.217 3.822 0.374 7.634 0.453 11.456 0.088 4.293 0.137 8.577 0.137 12.87v58.212c0 4.293-0.049 8.577-0.137 12.87-0.082 3.821-0.233 7.64-0.453 11.456-0.196 3.38-0.472 6.75-0.846 10.12-0.325 2.959-0.757 5.905-1.298 8.832-0.477 2.575-1.088 5.123-1.83 7.634-0.652 2.217-1.454 4.386-2.4 6.494-0.854 1.897-1.868 3.718-3.03 5.443-1.098 1.626-2.349 3.143-3.737 4.53-1.388 1.378-2.903 2.621-4.525 3.713-1.734 1.161-3.564 2.173-5.469 3.026-2.108 0.951-4.28 1.752-6.501 2.397-2.518 0.738-5.072 1.345-7.653 1.818-2.931 0.55-5.892 0.982-8.863 1.306-3.364 0.364-6.747 0.649-10.13 0.836-3.827 0.216-7.653 0.373-11.48 0.452-4.298 0.098-8.597 0.137-12.895 0.137h-74.146c-4.298 0-8.597-0.04-12.895-0.137-3.829-0.082-7.656-0.233-11.48-0.452-3.383-0.19-6.761-0.469-10.13-0.836-2.97-0.322-5.926-0.757-8.863-1.306-2.581-0.473-5.135-1.08-7.653-1.818-2.221-0.645-4.393-1.446-6.501-2.397-1.905-0.853-3.735-1.865-5.47-3.026-1.622-1.092-3.137-2.336-4.524-3.714-1.388-1.386-2.64-2.903-3.738-4.529-1.162-1.725-2.176-3.546-3.03-5.443-0.946-2.108-1.748-4.277-2.4-6.494-0.742-2.511-1.352-5.059-1.829-7.634-0.541-2.927-0.973-5.873-1.298-8.832-0.374-3.37-0.65-6.74-0.846-10.12-0.22-3.816-0.371-7.635-0.453-11.456-0.09-4.289-0.136-8.58-0.137-12.87v-58.212c0-4.293 0.049-8.577 0.137-12.87 0.079-3.822 0.236-7.634 0.453-11.456 0.197-3.38 0.472-6.75 0.846-10.11 0.324-2.967 0.757-5.914 1.298-8.842 0.477-2.575 1.088-5.123 1.83-7.634 0.653-2.216 1.455-4.386 2.4-6.494 0.856-1.896 1.87-3.716 3.03-5.443 1.1-1.621 2.352-3.135 3.737-4.52 1.385-1.384 2.9-2.631 4.525-3.723 1.734-1.161 3.564-2.173 5.469-3.026 2.11-0.947 4.282-1.748 6.501-2.397 2.518-0.738 5.072-1.345 7.653-1.818 2.931-0.55 5.892-0.982 8.863-1.297 3.364-0.373 6.747-0.648 10.13-0.845 3.824-0.214 7.651-0.365 11.48-0.452 4.298-0.088 8.597-0.137 12.895-0.127h74.146z" fill="url(#_lgradient_5)" fill-rule="evenodd"/>
  </g>
 </g>
</svg>
