<svg width="256" height="256" version="1.1" xmlns="http://www.w3.org/2000/svg" xmlns:xlink="http://www.w3.org/1999/xlink">
  <linearGradient id="b" x1=".5002" x2=".5002" y2="1" gradientTransform="matrix(244,0,0,228,5.981,12)" gradientUnits="userSpaceOnUse">
    <stop stop-color="#ebdbb2" offset="0"/>
    <stop stop-color="#ebdbb2" offset="1"/>
  </linearGradient>
  <defs>
    <linearGradient id="linearGradient31" x1=".5002" x2=".5002" y2="1" gradientTransform="matrix(244,0,0,228,5.988,12)" gradientUnits="userSpaceOnUse">
      <stop stop-color="#282828" stop-opacity=".1" offset="0"/>
      <stop stop-color="#bdae93" stop-opacity=".1" offset=".1"/>
      <stop stop-color="#d5c4a1" stop-opacity="0" offset=".7022"/>
      <stop stop-color="#bdae93" stop-opacity=".302" offset=".9"/>
      <stop stop-color="#282828" stop-opacity=".15" offset="1"/>
    </linearGradient>
    <linearGradient id="linearGradient11" x1="128" x2="128" y1="27.337" y2="224.66" gradientUnits="userSpaceOnUse">
      <stop stop-color="#504945" offset="0"/>
      <stop stop-color="#3c3836" offset="1"/>
    </linearGradient>
  </defs>
  <path d="m165 12c72 0 85 15 85 87v56c0 70-13 85-85 85h-74c-72 0-85-15-85-85v-56c0-72 13-87 85-87z" fill="url(#b)" style="isolation:isolate"/>
  <path d="m160.02 31.674c62.313 0 73.564 12.982 73.564 75.295v48.466c0 60.582-11.251 73.564-73.564 73.564h-64.044c-62.313 0-73.564-12.982-73.564-73.564v-48.466c0-62.313 11.251-75.295 73.564-75.295z" fill="#282828" opacity=".2" stroke-width=".86546" style="isolation:isolate"/>
  <path d="m160.02 27.337c62.313 0 73.564 12.982 73.564 75.295v48.466c0 60.582-11.251 73.564-73.564 73.564h-64.044c-62.313 0-73.564-12.982-73.564-73.564v-48.466c0-62.313 11.251-75.295 73.564-75.295z" fill="url(#linearGradient11)" stroke-width=".86546" style="isolation:isolate"/>
  <path d="m45.716 150c-3.1545 0-5.7155 2.5591-5.7155 5.7136v5.3347c0 3.1545 2.5609 5.7136 5.7155 5.7136h63.998c3.1545 0 5.7136-2.5591 5.7136-5.7136v-5.3347c0-3.1545-2.5591-5.7136-5.7136-5.7136zm87.998 0c-3.1545 0-5.7136 2.5591-5.7136 5.7136v5.3347c0 3.1545 2.5591 5.7136 5.7136 5.7136h9.5233c3.1545 0 5.7136-2.5591 5.7136-5.7136v-5.3347c0-3.1545-2.5591-5.7136-5.7136-5.7136zm33.524 0c-3.162 0-5.7136 2.5591-5.7136 5.7136v5.3347c0 3.1545 2.5517 5.7136 5.7136 5.7136h43.047c3.1545 0 5.7155-2.5591 5.7155-5.7136v-5.3347c0-3.1545-2.5609-5.7136-5.7155-5.7136zm-121.52 29.33c-3.1545 0-5.7155 2.5591-5.7155 5.7136v5.3347c0 3.1545 2.5609 5.7136 5.7155 5.7136h32.571c3.1545 0 5.7136-2.5591 5.7136-5.7136v-5.3347c0-3.1545-2.5591-5.7136-5.7136-5.7136zm54.474 0c-3.1545 0-5.7136 2.5591-5.7136 5.7136v5.3347c0 3.1545 2.5591 5.7136 5.7136 5.7136h97.521c3.1545 0 5.7155-2.5591 5.7155-5.7136v-5.3347c0-3.1545-2.5609-5.7136-5.7155-5.7136z" fill="#282828" opacity=".5" stroke-width="1.9046"/>
  <path d="m45.715 145.01c-3.1545 0-5.7155 2.5591-5.7155 5.7136v5.3347c0 3.1545 2.5609 5.7136 5.7155 5.7136h63.998c3.1545 0 5.7136-2.5591 5.7136-5.7136v-5.3347c0-3.1545-2.5591-5.7136-5.7136-5.7136zm121.52 0c-3.162 0-5.7136 2.5591-5.7136 5.7136v5.3347c0 3.1545 2.5517 5.7136 5.7136 5.7136h43.047c3.1545 0 5.7155-2.5591 5.7155-5.7136v-5.3347c0-3.1545-2.5609-5.7136-5.7155-5.7136zm-121.52 29.33c-3.1545 0-5.7155 2.5591-5.7155 5.7136v5.3347c0 3.1545 2.5609 5.7136 5.7155 5.7136h32.571c3.1545 0 5.7136-2.5591 5.7136-5.7136v-5.3347c0-3.1545-2.5591-5.7136-5.7136-5.7136z" fill="#ebdbb2" stroke-width="1.9046"/>
  <path d="m133.71 145.01h9.5231c3.1545 0 5.7138 2.5593 5.7138 5.7138v5.3344c0 3.1545-2.5593 5.7139-5.7138 5.7139h-9.5231c-3.1545 0-5.7139-2.5593-5.7139-5.7139v-5.3344c0-3.1545 2.5593-5.7138 5.7139-5.7138z" fill="#d5c4a1" stroke-width="1.9046"/>
  <path d="m100.19 174.34h97.522c3.1545 0 5.7139 2.5593 5.7139 5.7139v5.3344c0 3.1545-2.5593 5.7138-5.7139 5.7138h-97.522c-3.1545 0-5.7139-2.5593-5.7139-5.7138v-5.3344c0-3.1545 2.5593-5.7139 5.7139-5.7139z" fill="#bdae93" fill-opacity=".67843" stroke-width="1.9046"/>
  <path d="m91 12c-72 0-85 15-85 87v56c0 70 13 85 85 85h74c72 0 85-15 85-85v-56c0-72-13-87-85-87zm0 4h74c68 0 80 15 80 83v56c0 66-12 81-80 81h-74c-68 0-80-15-80-81v-56c0-68 12-83 80-83z" fill="url(#linearGradient31)" style="isolation:isolate"/>
</svg>
