<svg width="256" height="256" xmlns="http://www.w3.org/2000/svg">
    <defs>
        <linearGradient id="e" x1="296" x2="296" y1="-212" y2="236" gradientUnits="userSpaceOnUse">
            <stop offset="0" stop-color="#ebdbb2"/>
            <stop offset=".125" stop-color="#ebdbb2" stop-opacity=".098"/>
            <stop offset=".925" stop-opacity=".098"/>
            <stop offset="1" stop-opacity=".498"/>
        </linearGradient>
        <clipPath id="d">
            <path d="M361.938-212C507.235-212 528-191.287 528-46.125v116.25C528 215.286 507.235 236 361.937 236H214.063C68.766 236 48 215.286 48 70.125v-116.25C48-191.287 68.765-212 214.063-212z" fill="#b16286"/>
        </clipPath>
        <linearGradient id="c" x1="3.279" x2="305.017" y1="10.451" y2="299.734" gradientTransform="matrix(1.01937 0 0 1.01937 -26.944 -32.905)" gradientUnits="userSpaceOnUse">
            <stop offset="0" stop-color="#fb4934"/>
            <stop offset="1" stop-color="#fb4934"/>
        </linearGradient>
        <filter id="b" x="-.01" y="-.01" width="1.023" height="1.025" color-interpolation-filters="sRGB">
            <feGaussianBlur stdDeviation="1.16"/>
        </filter>
        <filter id="a" x="-.02" y="-.03" width="1.046" height="1.05" color-interpolation-filters="sRGB">
            <feGaussianBlur stdDeviation="2.32"/>
        </filter>
        <filter id="f" x="-.04" y="-.14" width="1.076" height="1.284" color-interpolation-filters="sRGB">
            <feGaussianBlur stdDeviation="68.492"/>
        </filter>
    </defs>
    <path transform="matrix(1.01937 0 0 1.01937 0 8.31)" d="M162.537 5.568c72.648 0 83.031 10.357 83.031 82.938v58.125c0 72.58-10.383 82.937-83.031 82.937H88.599c-72.648 0-83.031-10.357-83.031-82.937V88.506c0-72.581 10.383-82.938 83.031-82.938z" filter="url(#a)" opacity=".2"/>
    <path d="M165.685 11.947c74.055 0 84.64 10.557 84.64 84.544v59.25c0 73.987-10.585 84.544-84.64 84.544h-75.37c-74.055 0-84.64-10.557-84.64-84.543V96.49c0-73.987 10.585-84.544 84.64-84.544z" fill="none" opacity=".1" stroke-linecap="round" stroke-linejoin="round" stroke-width="4.077" stroke="#282828"/>
    <path transform="matrix(1.01937 0 0 1.01937 0 8.31)" d="M162.537 3.568c72.648 0 83.031 10.357 83.031 82.938v58.125c0 72.58-10.383 82.937-83.031 82.937H88.599c-72.648 0-83.031-10.357-83.031-82.937V86.506c0-72.581 10.383-82.938 83.031-82.938z" filter="url(#b)" opacity=".1"/>
    <path d="M165.685 11.947c74.055 0 84.64 10.557 84.64 84.544v59.25c0 73.987-10.585 84.544-84.64 84.544h-75.37c-74.055 0-84.64-10.557-84.64-84.543V96.49c0-73.987 10.585-84.544 84.64-84.544z" fill="url(#c)"/>
    <path transform="matrix(.50968 0 0 .50968 -18.789 120)" d="M361.938-212C507.235-212 528-191.287 528-46.125v116.25C528 215.286 507.235 236 361.937 236H214.063C68.766 236 48 215.286 48 70.125v-116.25C48-191.287 68.765-212 214.063-212z" clip-path="url(#d)" fill="none" opacity=".4" stroke-linecap="round" stroke-linejoin="round" stroke-width="8" stroke="url(#e)"/>
    <path fill="#ebdbb2" opacity=".1" d="M87.08 11.827h81.55v228.338H87.08z"/>
    <path d="M5.53 125.996v29.625c0 73.987 10.584 84.544 84.64 84.544h75.37c74.055 0 84.639-10.557 84.639-84.544v-29.625z" fill="#ebdbb2" opacity=".1"/>
    <g>
        <g filter="url(#f)" opacity=".5" transform="matrix(.0463 0 0 -.0463 28 152.952)">
            <path d="M592.336 1159.32H410.469c-.352-247.297-.703-407.472-1.051-654.765-78.145 241.328-156.371 401.093-234.789 654.765H0V0c58.945 8.39 122.07 16.43 181.086 24.129.164 242.309.336 391.266.5 633.582C262.797 419.203 312.727 278.52 393.695 51.859c63.477 7.25 133.215 16.172 196.754 22.622.629 361.609 1.254 723.23 1.887 1084.839M1271.63 1159.32H767.82c-.675-356.523-1.355-713.047-2.035-1069.57a15317.566 15317.566 0 0 0 506.085 37.59c.09 52.125.19 127.058.28 179.176-109.79-6.746-214.82-13.778-324.224-21.133.187 95.851.379 175.121.566 270.976 79.958 1.379 164.408.168 246.088 1.567.09 52.39.19 127.594.29 179.988-80.94-1.437-166.42-1.601-246.061-3.113.191 95.855.375 148.433.566 244.293 50.102.605 99.205.683 148.215.683 8.61 0 17.21 0 25.82-.007h25.69c40.88 0 81.93.046 123.67.41.1 52.13-1.23 127.02-1.14 179.14M1950.71 1158.52c-184.92 0-376.07-.01-560.99-.02-.09-51.79-.17-126.39-.26-178.176 8.05.059 16.1.078 24.14.078 24.37 0 48.74-.23 73.12-.476 24.35-.235 48.7-.481 73.06-.481 6.25 0 12.49.02 18.74.051-.38-287.422-.76-549.949-1.13-837.375 59.36 2.207 122.87 4.07 182.24 5.578.27 285.852.54 546.809.8 832.645 62.71.246 127.5.429 190.21.558l.07 177.618M2574.62 1159.32h-505.88l-.15-1006.742c19.55.082 39.33.113 59.19.113 40.45 0 81.21-.152 121.05-.461-.05 142.411-.09 272.383-.13 414.805 9.93-.039 19.96-.058 30.06-.058 23.52 0 47.42.097 71.42.195s48.1.195 71.99.195c24.62 0 49.01-.097 72.86-.429-.04 51.054-.09 127-.14 178.054-22.52.227-45.53.305-68.77.305-24.9 0-50.05-.086-75.1-.176-25.02-.09-49.95-.176-74.44-.176-9.37 0-18.69.008-27.93.039-.03 91.551-.05 143.223-.08 234.786 19.78-.032 39.51-.04 59.17-.04 19.96 0 39.86.008 59.75.02 20.06.008 40.11.02 60.17.02 48.87 0 97.78-.051 147.12-.274-.05 51.174-.11 128.654-.16 179.824M2692.7 1158.51c.44-338.819-1.19-677.639-.75-1016.471 161.74-6.019 331.7-12.551 493.24-23.719-.1 52.121-.2 127.075-.3 179.192-102.24 6.015-208.68 13.222-311 17.48-.46 290.168 1.14 553.352.68 843.508-59.25.01-122.63.01-181.87.01M3334.44 1158.48c.7-350.39 1.38-700.781 2.07-1051.179 59.26-4.582 120.57-9.492 179.78-14.762.21 355.07.7 710.617.02 1065.931-59.24.01-122.63.01-181.87.01M3672.22 1158.46c72.73-177.167 139.26-354.843 213.12-542.987-76.76-180.723-154.89-360.254-231.57-533.614 63.52-6.27 129.23-15.437 192.69-22.507 45.53 111.648 86.95 197.593 132.52 312.261 45.5-122.148 86.86-216.511 132.24-342.593C4174.58 20.8 4256.72 9.012 4320 0c-76.71 205.063-160.61 418.578-237.74 612.379 76.81 182 155.19 355.738 234.98 546.021-65.51 0-133.09.01-198.6.02-49.24-117.61-83.11-193.182-130.31-305.135-43.97 116.485-73.47 191.865-117.51 305.155-65.51.01-133.1.01-198.6.02"/>
        </g>
        <g fill="#ebdbb2">
            <path d="M55.423 99.28h-8.42c-.016 11.449-.032 18.865-.048 30.313-3.618-11.172-7.24-18.569-10.87-30.313H28v53.672c2.729-.388 5.651-.76 8.384-1.117.007-11.218.015-18.114.023-29.332 3.76 11.042 6.071 17.555 9.82 28.048 2.938-.335 6.167-.748 9.109-1.047l.087-50.224M86.872 99.28H63.547l-.094 49.517c7.802-.71 15.613-1.29 23.43-1.74l.013-8.295c-5.083.312-9.946.638-15.01.978.008-4.437.017-8.107.026-12.545 3.701-.064 7.611-.008 11.393-.073.004-2.425.008-5.907.013-8.332-3.747.066-7.705.074-11.392.144.01-4.438.018-6.872.027-11.31 2.32-.028 4.592-.032 6.861-.032H81.2c1.892 0 3.792-.002 5.725-.018.004-2.414-.057-5.881-.053-8.294M118.31 99.317l-25.971.001-.012 8.249c.373-.003.745-.004 1.117-.004 1.129 0 2.257.011 3.386.022 1.127.011 2.254.023 3.382.023.29 0 .578-.001.868-.003-.018 13.307-.036 25.46-.053 38.768 2.748-.103 5.689-.189 8.437-.259l.037-38.548c2.904-.011 5.903-.02 8.806-.026l.004-8.223M147.195 99.28h-23.42l-.007 46.609a726.354 726.354 0 0 1 8.344.016l-.006-19.204 1.392.002c1.089 0 2.196-.004 3.307-.009s2.226-.009 3.332-.009c1.14 0 2.27.005 3.374.02l-.007-8.243c-1.042-.01-2.108-.014-3.184-.014-1.152 0-2.317.004-3.476.008a963.554 963.554 0 0 1-4.74.006l-.004-10.87a1692.7 1692.7 0 0 0 5.506.002l2.786-.001c2.262 0 4.527.002 6.81.012-.002-2.369-.004-5.956-.007-8.325M152.662 99.318c.02 15.686-.055 31.372-.035 47.058 7.488.28 15.357.581 22.836 1.099l-.014-8.296c-4.734-.279-9.661-.613-14.399-.81-.02-13.433.053-25.618.032-39.051h-8.42M182.372 99.319l.096 48.666c2.744.212 5.582.44 8.323.683.01-16.438.033-32.899.001-49.349h-8.42M198.01 99.32c3.367 8.202 6.447 16.428 9.867 25.138a1826.974 1826.974 0 0 1-10.721 24.705c2.94.29 5.983.714 8.92 1.042 2.109-5.17 4.026-9.148 6.136-14.457 2.107 5.655 4.021 10.024 6.122 15.86 2.934.381 6.736.927 9.666 1.344-3.551-9.493-7.436-19.378-11.006-28.35 3.556-8.427 7.184-16.47 10.878-25.28h-9.194c-2.28 5.445-3.848 8.943-6.033 14.126-2.036-5.392-3.401-8.882-5.44-14.127l-9.195-.001"/>
        </g>
    </g>
</svg>
