<svg width="256" height="256" version="1.1" xml:space="preserve" xmlns="http://www.w3.org/2000/svg"><linearGradient id="b" x1=".5002" x2=".5002" y2="1" gradientTransform="matrix(244,0,0,228,5.981,12)" gradientUnits="userSpaceOnUse"><stop stop-color="#ebdbb2" offset="0"/><stop stop-color="#ebdbb2" offset="1"/></linearGradient><defs><linearGradient id="linearGradient31" x1=".5002" x2=".5002" y2="1" gradientTransform="matrix(244,0,0,228,5.988,12)" gradientUnits="userSpaceOnUse"><stop stop-color="#ebdbb2" stop-opacity=".49796" offset="0"/><stop stop-color="#ebdbb2" stop-opacity=".05098" offset=".1"/><stop stop-color="#d5c4a1" stop-opacity="0" offset=".7022"/><stop stop-color="#bdae93" stop-opacity=".302" offset=".9"/><stop stop-color="#282828" stop-opacity=".3" offset="1"/></linearGradient></defs><path d="m165 12c72 0 85 15 85 87v56c0 70-13 85-85 85h-74c-72 0-85-15-85-85v-56c0-72 13-87 85-87z" fill="url(#b)" style="isolation:isolate"/><path d="m91 12c-65.584 0-82.164 12.598-84.607 69.232h49.635c-8.0996 12.994-12.793 28.329-12.793 44.768 1.84e-4 46.815 37.951 84.765 84.766 84.766 46.815-1.7e-4 84.765-37.951 84.766-84.766-6e-5 -16.439-4.6934-31.774-12.793-44.768h49.635c-2.4432-56.634-19.024-69.232-84.607-69.232h-74zm37 39.133c41.348 5.7e-5 74.867 33.519 74.867 74.867-6e-5 41.348-33.519 74.867-74.867 74.867-41.348-6e-5 -74.867-33.519-74.867-74.867 5.9e-5 -41.348 33.519-74.867 74.867-74.867zm0 3.9727c-39.154-3.54e-4 -70.895 31.74-70.895 70.895-3.53e-4 39.154 31.74 70.895 70.895 70.895 39.154 3.5e-4 70.895-31.74 70.895-70.895 3.5e-4 -39.154-31.74-70.895-70.895-70.895zm43.012 26.648c0.38733-4.17e-4 0.7749 0.1486 1.0723 0.44531 0.59501 0.59342 0.59725 1.5498 0.00391 2.1445l-6.9902 7.0059c0.54272 4.9166 1.1834 19.019-6.6445 33.775l-29.264-29.201c14.741-7.8582 28.843-7.2477 33.76-6.7168l6.9902-7.0059c0.29672-0.29734 0.68493-0.44685 1.0723-0.44727zm-46.816 17.164 31.275 31.207c-2.0971 3.1513-4.6159 6.2891-7.6523 9.3301-12.994 13.022-39.816 26.281-39.816 26.281l-19.316-19.273s13.217-26.869 26.195-39.875c3.0354-3.042 6.1672-5.5665 9.3144-7.6699zm-24.174 2.877c3.0346 0.0339 6.2837 0.49324 9.5684 1.2227-10.13 10.377-19.26 26.364-23.822 35-4.773 0.23597-9.2895 2.2315-12.678 5.6016-0.10566 0.1198-0.20984 0.2409-0.3125 0.36328l-0.37109-0.37109s-2.2017-19.704 15.066-37.707c3.0317-3.0382 7.4912-4.1659 12.549-4.1094zm29.467 13.518c-2.7499-0.10148-5.4414 0.94132-7.4102 2.9141-3.882 3.8898-3.8759 10.19 0.01368 14.072 3.8906 3.8828 10.192 3.8757 14.074-0.01563 3.8814-3.8903 3.8744-10.191-0.01563-14.072-1.4876-1.4839-3.4067-2.4589-5.4824-2.7852-0.39332-0.06187-0.78685-0.09878-1.1797-0.11328zm21.215 28.729c1.9641 8.7548 2.0128 17.264-2.8379 22.125-17.966 17.307-37.676 15.146-37.676 15.146l-0.37109-0.36914c0.12239-0.10331 0.24349-0.20813 0.36328-0.31445 3.3626-3.3954 5.3485-7.916 5.5742-12.689 8.6258-4.5812 24.592-13.746 34.947-23.898zm-61.641 9.3594 6.0352 5.9512 5.9668 6.0234-1.6582 1.6875s-1.4357 1.3804-4.3438 1.2148c-0.18825-2.924 1.8849-3.6673 1.2188-4.332-0.71551-0.71395-7.3013 3.8564-8.4609 2.6992-1.1596-1.1571 3.3991-7.7509 2.6836-8.4648-0.66616-0.66472-1.4076 1.4085-4.332 1.2266-0.1719-2.9077 1.207-4.3438 1.207-4.3438l1.6836-1.6621z" fill="#b8bb26" stroke-linecap="square" stroke-miterlimit="0" stroke-width="20" style="paint-order:markers fill stroke"/><path d="m43.434 120.41c-0.12095 1.8501-0.19921 3.7129-0.19922 5.5938 1.84e-4 46.815 37.951 84.765 84.766 84.766 46.815-1.6e-4 84.765-37.951 84.766-84.766 0-1.8375-0.0779-3.6567-0.19336-5.4648a226.45 247.27 0 0 1-9.7383 4.1738c7e-3 0.43115 0.0332 0.85813 0.0332 1.291-5e-5 41.348-33.519 74.867-74.867 74.867-41.348-6e-5 -74.867-33.519-74.867-74.867 1e-6 -0.55602 0.03091-1.1051 0.04297-1.6582a226.45 247.27 0 0 1-9.7422-3.9356zm13.674 5.5234c-3e-5 0.0236-2e-3 0.0467-2e-3 0.0703-3.6e-4 39.154 31.74 70.895 70.895 70.895 39.051 3.5e-4 70.72-31.575 70.887-70.586a226.45 247.27 0 0 1-49.156 11.133c-0.61672 0.67484-1.2467 1.3472-1.9121 2.0137-12.994 13.022-39.816 26.281-39.816 26.281l-19.316-19.273s2.3016-4.6257 5.8301-10.871a226.45 247.27 0 0 1-6.7832-1.1367c-0.64903 1.1836-1.4339 2.5575-1.9648 3.5625-4.773 0.23597-9.2895 2.2315-12.678 5.6016-0.10567 0.1198-0.20984 0.2409-0.3125 0.36328l-0.37109-0.37109s-0.55925-5.1576 1.1816-12.59a226.45 247.27 0 0 1-16.48-5.0918zm93.596 18.111c1.9641 8.7548 2.0128 17.264-2.8379 22.125-17.966 17.307-37.676 15.146-37.676 15.146l-0.37109-0.36914c0.12239-0.10331 0.24349-0.20813 0.36328-0.31445 3.3626-3.3954 5.3485-7.916 5.5742-12.689 8.6258-4.5812 24.592-13.746 34.947-23.898zm-61.641 9.3594 6.0352 5.9512 5.9668 6.0234-1.6582 1.6875s-1.4357 1.3804-4.3438 1.2148c-0.18825-2.924 1.8849-3.6673 1.2188-4.332-0.71551-0.71395-7.3013 3.8564-8.4609 2.6992s3.3991-7.7509 2.6836-8.4648c-0.66616-0.66472-1.4076 1.4085-4.332 1.2266-0.1719-2.9077 1.207-4.3438 1.207-4.3438z" fill="#98971a" stroke-linecap="square" stroke-miterlimit="0" stroke-width="20" style="paint-order:markers fill stroke"/><path d="m91 12c-72 0-85 15-85 87v56c0 70 13 85 85 85h74c72 0 85-15 85-85v-56c0-72-13-87-85-87zm0 4h74c68 0 80 15 80 83v56c0 66-12 81-80 81h-74c-68 0-80-15-80-81v-56c0-68 12-83 80-83z" fill="url(#linearGradient31)" style="isolation:isolate"/></svg>
