<svg width="256" height="256" version="1.1" xmlns="http://www.w3.org/2000/svg">
  <linearGradient id="b" x1=".5002" x2=".5002" y2="1" gradientTransform="matrix(244,0,0,228,5.981,12)" gradientUnits="userSpaceOnUse">
    <stop stop-color="#ebdbb2" offset="0"/>
    <stop stop-color="#d5c4a1" offset="1"/>
  </linearGradient>
  <defs>
    <linearGradient id="linearGradient31" x1=".5002" x2=".5002" y2="1" gradientTransform="matrix(244,0,0,228,5.988,12)" gradientUnits="userSpaceOnUse">
      <stop stop-color="#282828" stop-opacity=".1" offset="0"/>
      <stop stop-color="#bdae93" stop-opacity=".1" offset=".1"/>
      <stop stop-color="#d5c4a1" stop-opacity="0" offset=".7022"/>
      <stop stop-color="#bdae93" stop-opacity=".302" offset=".9"/>
      <stop stop-color="#282828" stop-opacity=".15" offset="1"/>
    </linearGradient>
  </defs>
  <path d="m165 12c72 0 85 15 85 87v56c0 70-13 85-85 85h-74c-72 0-85-15-85-85v-56c0-72 13-87 85-87z" fill="url(#b)" style="isolation:isolate"/>
  <path d="m98.096 206.13 29.904-62.536 29.884 62.536h13.05c15.694 0 15.694-50.811 19.602-62.536h-125.07c3.9085 11.726 3.7315 62.515 19.525 62.536z" fill="#282828" fill-rule="evenodd" opacity=".15" stroke-width="3.9085"/>
  <polygon transform="matrix(7.9941 0 0 8.1014 63.421 143.59)" points="8.08 0 11.5 6.75 4.66 6.75" fill="#282828" fill-rule="evenodd" opacity=".15"/>
  <path d="m127.86 45.876c-0.22551 0.4655-0.49266 0.96966-0.76336 1.4352-0.19308 0.37365-0.45722 0.81144-0.65652 1.1909-1.3806 2.3238-5.5763 9.1338-13.97 14.428-10.005 5.8698-24.07 9.9619-35.306 9.8095 0 0-18.45 51.378-19.184 53.024-0.11062 0.0734-0.22591 0.16416-0.33574 0.23686h0.25171c-0.0078 0.0156-0.25054 0.69684-0.25171 0.69466l0.04573 0.16806h0.04573c0.39656-0.26343 0.81215-0.58538 1.2137-0.86261h138.77c0.20793 0.13445 0.42704 0.29666 0.63361 0.42751v-0.0762l-0.12976-0.35098h0.12976c-0.0548-0.0352-0.11296-0.0793-0.16807-0.11451l-19.306-53.154c-10.671 0.20715-22.915-3.0973-30.841-7.3514-9.1571-5.02-15.187-11.87-17.634-15.848-0.0571-0.11256-0.13446-0.24702-0.19074-0.3588-0.49642-1.0158-0.99222-2.0265-1.4886-3.0001-0.31582-0.08599-0.59187-0.21575-0.86265-0.29783z" fill="#076678" fill-rule="evenodd" stroke-width="3.9085"/>
  <path d="m127.86 45.876c-0.22551 0.4655-0.49266 0.96966-0.76336 1.4352-0.19308 0.37365-0.45722 0.81144-0.65652 1.1909-1.3806 2.3238-5.5763 9.1338-13.97 14.428-10.005 5.8698-24.07 9.9619-35.306 9.8095 0 0-18.45 51.378-19.184 53.024-0.11062 0.0734-0.22591 0.16416-0.33574 0.23686h0.25171c-0.0078 0.0156-0.25054 0.69684-0.25171 0.69466l0.04573 0.16806h0.04573c0.39656-0.26343 0.81215-0.58538 1.2137-0.86261h0.3588c2.8055-7.492 17.855-49.353 17.855-49.353 11.236 0.15243 25.301-3.9397 35.306-9.8095 8.3936-5.2941 12.589-12.104 13.97-14.428 0.19934-0.37952 0.46352-0.81567 0.65652-1.1909 0.27085-0.4655 0.53777-0.96966 0.76336-1.4352 0.27087 0.08208 0.54677 0.21184 0.86265 0.29783 0.49639 0.97361 0.99218 1.9843 1.4886 3.0001 0.0566 0.11335 0.13366 0.24545 0.19073 0.3588 2.4466 3.9781 8.4769 10.828 17.634 15.848 7.9258 4.254 20.169 7.5585 30.841 7.3514l17.924 49.36h0.91604c0.20794 0.13446 0.42705 0.29665 0.63362 0.42751v-0.0762l-0.12977-0.35098h0.12988c-0.0548-0.0352-0.11296-0.0793-0.16807-0.11452l-19.306-53.154c-10.671 0.20715-22.915-3.0973-30.841-7.3514-9.1571-5.02-15.187-11.87-17.634-15.848-0.0571-0.11256-0.13446-0.24702-0.19074-0.3588-0.49642-1.0158-0.99222-2.0265-1.4886-3.0001-0.31582-0.08599-0.59187-0.21575-0.86265-0.29783z" fill="#ebdbb2" fill-rule="evenodd" opacity=".1" stroke-width="3.9085"/>
  <polygon transform="matrix(7.9941 0 0 8.1014 63.421 139.68)" points="4.66 6.75 8.08 0 11.5 6.75" fill="#504945" fill-rule="evenodd"/>
  <path d="m98.096 202.22 29.904-62.536 29.884 62.536h13.05c15.694 0 15.694-50.811 19.602-62.536h-125.07c3.9085 11.726 3.7315 62.515 19.525 62.536z" fill="#83a598" fill-rule="evenodd" stroke-width="7.8252"/>
  <path d="m128 143.59 29.766 62.535 16.982-26.137c0.27086-0.41665 0.17521-0.99281-0.21485-1.2871 0 0-15.882-11.982-23.822-17.975-1.0203-0.76958-22.711-17.137-22.711-17.137zm0 0s-21.691 16.367-22.711 17.137c-7.9407 5.9921-23.822 17.975-23.822 17.975-0.39006 0.2943-0.48571 0.87046-0.21484 1.2871l16.982 26.137 29.766-62.535z" fill="#282828" fill-rule="evenodd" opacity=".2" stroke-width="3.9085"/>
  <path d="m128 139.68 29.766 62.537 16.982-26.139c0.27086-0.41665 0.17521-0.99085-0.21485-1.2852 0 0-15.882-11.982-23.822-17.975-1.0203-0.76958-22.711-17.139-22.711-17.139zm0 0s-21.691 16.369-22.711 17.139c-7.9407 5.9921-23.822 17.975-23.822 17.975-0.39006 0.2943-0.48571 0.8685-0.21484 1.2852l16.982 26.139 29.766-62.537z" fill="#d5c4a1" fill-rule="evenodd" stroke-width="3.9085"/>
  <path d="m60.7 127.96a3.0553 3.013 0 0 0-2.9619 3.733l1.7863 7.1987 0.60308 2.4045a3.0553 3.013 0 0 0 2.9619 2.2978h2.5573a3.0553 3.013 0 0 0 0.0078 0l38.658-0.0547a3.0553 3.013 0 0 0 0.13759 0h4.6108a3.0553 3.013 0 0 0 0.42748 0.0391h37.024a3.0553 3.013 0 0 0 0.42747-0.0391h4.6108a3.0553 3.013 0 0 0 0.13758 0l38.658 0.0547a3.0553 3.013 0 0 1 8e-3 0h2.5573a3.0553 3.013 0 0 0 2.962-2.2978l0.60304-2.4045 1.7863-7.1987a3.0553 3.013 0 0 0-2.9619-3.733h-134.6z" fill="#282828" fill-rule="evenodd" opacity=".15" stroke-width="3.9085"/>
  <path d="m198.35 126c-11.101-7.0685-24.188-19.138-37.726-33.527-14.757-15.66-24.278-31.15-30.416-43.297-0.49642-1.0158-0.99281-2.0313-1.4892-3.0049-0.31581-0.08599-0.58663-0.21497-0.85741-0.29705-0.22552 0.4655-0.49642 0.97361-0.76713 1.4391-6.408 12.401-16.246 28.102-31.183 44.143-13.583 14.601-26.941 27.094-38.268 34.543" fill="#83a598" fill-rule="evenodd" stroke-width="3.9085"/>
  <path d="m127.86 45.876c-0.22551 0.4655-0.49266 0.96966-0.76336 1.4352-6.408 12.401-16.247 28.105-31.184 44.146-13.583 14.601-26.941 27.094-38.268 34.543h5.4887c10.049-7.5539 21.328-18.325 32.78-30.634 14.937-16.041 24.776-31.746 31.184-44.146 0.27085-0.4655 0.53777-0.96966 0.76336-1.4352 0.27087 0.08208 0.54677 0.21184 0.86265 0.29783 0.49639 0.97361 0.99218 1.9843 1.4886 3.0001 6.1372 12.147 15.657 27.639 30.413 43.299 11.32 12.032 22.308 22.399 32.1 29.619h5.6261c-11.101-7.0685-24.188-19.138-37.726-33.528-14.757-15.66-24.276-31.152-30.413-43.299-0.49642-1.0158-0.99221-2.0265-1.4886-3.0001-0.3158-0.08599-0.59186-0.21575-0.86265-0.29783z" fill="#ebdbb2" fill-rule="evenodd" opacity=".1" stroke-width="3.9085"/>
  <path d="m60.7 124.05a3.0553 3.013 0 0 0-2.9619 3.7329l1.7863 7.1987 0.60308 2.4046a3.0553 3.013 0 0 0 2.9619 2.2978h2.5573a3.0553 3.013 0 0 0 0.0078 0l38.658-0.0535a3.0553 3.013 0 0 0 0.13759 0l4.6108 8e-3a3.0553 3.013 0 0 0 0.42748 0.0313h2.7253l15.787-0.0156 15.787 0.0156h2.7253a3.0553 3.013 0 0 0 0.42747-0.0313l4.6108-8e-3a3.0553 3.013 0 0 0 0.13758 0l38.658 0.0535a3.0553 3.013 0 0 1 8e-3 0h2.5573a3.0553 3.013 0 0 0 2.9619-2.2978l0.60309-2.4046 1.7863-7.1987a3.0553 3.013 0 0 0-2.9621-3.7329h-87.697z" fill="#076678" fill-rule="evenodd" stroke-width="3.9085"/>
  <path d="m91 12c-72 0-85 15-85 87v56c0 70 13 85 85 85h74c72 0 85-15 85-85v-56c0-72-13-87-85-87zm0 4h74c68 0 80 15 80 83v56c0 66-12 81-80 81h-74c-68 0-80-15-80-81v-56c0-68 12-83 80-83z" fill="url(#linearGradient31)" style="isolation:isolate"/>
</svg>
