<svg width="256" height="256" version="1.1" xmlns="http://www.w3.org/2000/svg">
  <linearGradient id="b" x1=".5002" x2=".5002" y2="1" gradientTransform="matrix(244,0,0,228,5.981,12)" gradientUnits="userSpaceOnUse">
    <stop stop-color="#ebdbb2" offset="0"/>
    <stop stop-color="#ebdbb2" offset="1"/>
  </linearGradient>
  <defs>
    <linearGradient id="linearGradient31" x1=".5002" x2=".5002" y2="1" gradientTransform="matrix(244,0,0,228,5.988,12)" gradientUnits="userSpaceOnUse">
      <stop stop-color="#282828" stop-opacity=".1" offset="0"/>
      <stop stop-color="#bdae93" stop-opacity=".1" offset=".1"/>
      <stop stop-color="#d5c4a1" stop-opacity="0" offset=".7022"/>
      <stop stop-color="#bdae93" stop-opacity=".302" offset=".9"/>
      <stop stop-color="#282828" stop-opacity=".15" offset="1"/>
    </linearGradient>
    <linearGradient id="linearGradient24" x1="128" x2="154.26" y1="59.862" y2="84.523" gradientTransform="matrix(.91477 0 0 .91477 10.908 6.7694)" gradientUnits="userSpaceOnUse">
      <stop stop-color="#b8bb26" offset="0"/>
      <stop stop-color="#8ec07c" offset="1"/>
    </linearGradient>
    <linearGradient id="linearGradient26" x1="161.47" x2="164.73" y1="77.312" y2="110.78" gradientTransform="matrix(.91477 0 0 .91477 10.908 6.7694)" gradientUnits="userSpaceOnUse">
      <stop stop-color="#8ec07c" offset="0"/>
      <stop stop-color="#83a598" offset="1"/>
    </linearGradient>
    <linearGradient id="linearGradient18" x1="95.467" x2="97.319" y1="110.78" y2="141.45" gradientTransform="matrix(.91477 0 0 .91477 10.908 6.7694)" gradientUnits="userSpaceOnUse">
      <stop stop-color="#fe8019" offset="0"/>
      <stop stop-color="#fb4934" offset="1"/>
    </linearGradient>
    <linearGradient id="linearGradient22" x1="94.531" x2="128" y1="77.312" y2="73.947" gradientTransform="matrix(.91477 0 0 .91477 10.908 6.7694)" gradientUnits="userSpaceOnUse">
      <stop stop-color="#fabd2f" offset="0"/>
      <stop stop-color="#b8bb26" offset="1"/>
    </linearGradient>
    <linearGradient id="linearGradient20" x1="80.629" x2="102.8" y1="110.78" y2="85.582" gradientTransform="matrix(.91477 0 0 .91477 10.908 6.7694)" gradientUnits="userSpaceOnUse">
      <stop stop-color="#fe8019" offset="0"/>
      <stop stop-color="#fabd2f" offset="1"/>
    </linearGradient>
    <linearGradient id="linearGradient28" x1="161.49" x2="175.37" y1="144.27" y2="110.78" gradientTransform="matrix(.91477 0 0 .91477 10.908 6.7694)" gradientUnits="userSpaceOnUse">
      <stop stop-color="#458588" offset="0"/>
      <stop stop-color="#83a598" offset="1"/>
    </linearGradient>
    <linearGradient id="linearGradient33" x1="97.08" x2="110.93" y1="141.7" y2="155.01" gradientTransform="matrix(.91477 0 0 .91477 10.908 6.7694)" gradientUnits="userSpaceOnUse">
      <stop stop-color="#fb4934" offset="0"/>
      <stop stop-color="#8f3f71" offset="1"/>
    </linearGradient>
    <linearGradient id="linearGradient30" x1="145.25" x2="158.43" y1="155" y2="140.98" gradientTransform="matrix(.91477 0 0 .91477 10.908 6.7694)" gradientUnits="userSpaceOnUse">
      <stop stop-color="#076678" offset="0"/>
      <stop stop-color="#458588" offset="1"/>
    </linearGradient>
  </defs>
  <path d="m165 12c72 0 85 15 85 87v56c0 70-13 85-85 85h-74c-72 0-85-15-85-85v-56c0-72 13-87 85-87z" fill="url(#b)" style="isolation:isolate"/>
  <path d="m127.93 48.429c-18.114 0-34.474 7.386-46.344 19.257-11.871 11.87-19.257 28.23-19.257 46.344 0 18.113 7.3363 34.507 19.207 46.377v2e-3c6.2262 6.2604 13.616 11.132 21.659 14.422l16.962-37.383h0.0204c-3.6017-1.2244-6.9057-3.2685-9.6302-6.034-4.6141-4.6089-7.2095-10.863-7.2148-17.384a24.597 24.597 0 0 1 7.2148-17.382 24.597 24.597 0 0 1 17.382-7.2148 24.597 24.597 0 0 1 17.384 7.2148 24.597 24.597 0 0 1 7.2148 17.382c-6e-3 6.5216-2.6007 12.775-7.2148 17.384h-2e-3c-3.1734 3.1607-6.4303 4.9809-9.2825 6.0284h0.0185l16.614 37.385c8.0394-3.2875 15.428-8.1531 21.65-14.405 11.871-11.87 19.22-28.278 19.22-46.392s-7.386-34.474-19.257-46.344c-11.87-11.871-28.232-19.257-46.345-19.257z" fill="#282828" opacity=".15"/>
  <path d="m128 45.076c-17.404 0-33.124 7.0968-44.529 18.503-11.406 11.405-18.503 27.125-18.503 44.529s7.049 33.156 18.454 44.561v2e-3c5.9823 6.0153 13.083 10.696 20.811 13.857l16.298-35.919h0.0196c-3.4607-1.1765-6.6353-3.1405-9.2531-5.7977-4.4334-4.4284-6.9272-10.437-6.9323-16.704a23.634 23.634 0 0 1 6.9322-16.702 23.634 23.634 0 0 1 16.702-6.9323 23.634 23.634 0 0 1 16.704 6.9323 23.634 23.634 0 0 1 6.9323 16.702c-6e-3 6.2663-2.4988 12.275-6.9323 16.704h-2e-3c-3.0492 3.037-6.1785 4.7858-8.919 5.7924h0.0178l15.964 35.921c7.7246-3.1587 14.824-7.8338 20.802-13.841 11.406-11.405 18.467-27.171 18.467-44.575s-7.0968-33.124-18.503-44.529c-11.405-11.406-27.126-18.503-44.53-18.503z" fill="#076678" stroke="#000" stroke-linejoin="round" stroke-width="5"/>
  <path d="m128 45.075c-17.404 0-33.124 7.0968-44.529 18.503-11.406 11.405-18.503 27.125-18.503 44.529s7.049 33.156 18.454 44.561v2e-3c5.9823 6.0153 13.083 10.696 20.811 13.857l16.298-35.919h0.0196c-3.4607-1.1765-6.6353-3.1405-9.2531-5.7977-4.4334-4.4284-6.9272-10.437-6.9323-16.704a23.634 23.634 0 0 1 6.9322-16.702 23.634 23.634 0 0 1 16.702-6.9322 23.634 23.634 0 0 1 16.704 6.9322 23.634 23.634 0 0 1 6.9323 16.702c-6e-3 6.2663-2.4988 12.275-6.9323 16.704h-2e-3c-3.0492 3.037-6.1785 4.7858-8.919 5.7924h0.0178l15.964 35.921c7.7246-3.1587 14.824-7.8338 20.802-13.841 11.406-11.405 18.467-27.171 18.467-44.575s-7.0968-33.124-18.503-44.529c-11.405-11.406-27.126-18.503-44.53-18.503z" fill="#b8bb26"/>
  <path d="m111.3 124.81-28.311 27.426c5.891 6.5644 13.518 11.129 21.247 14.29l16.298-35.919h0.0196c-3.4607-1.1765-6.6353-3.1405-9.2531-5.7977z" fill="url(#linearGradient33)" style="paint-order:markers fill stroke"/>
  <path d="m64.967 108.11c0 17.404 7.0477 33.157 18.454 44.562l27.876-27.86c-4.4334-4.4284-6.9268-10.436-6.9318-16.702z" fill="url(#linearGradient18)" stroke-width="3.939"/>
  <path d="m83.47 63.578c-11.406 11.405-18.503 27.125-18.503 44.53h39.398a23.634 23.634 0 0 1 6.9318-16.702z" fill="url(#linearGradient20)" stroke-width="3.939"/>
  <path d="m128 45.076c-17.404 0-33.124 7.0964-44.53 18.502l27.827 27.827c4.4284-4.4334 10.436-6.9268 16.702-6.9318z" fill="url(#linearGradient22)" stroke-width="3.939"/>
  <path d="m144.87 124.64c-3.0492 3.037-6.3505 4.957-9.0911 5.9635h0.0178l15.964 35.921c7.7246-3.1587 15.195-7.9146 21.27-14.31z" fill="url(#linearGradient30)" style="paint-order:markers fill stroke"/>
  <path d="m151.63 108.11c-6e-3 6.2663-2.4974 12.275-6.9308 16.703l27.863 27.872c11.406-11.405 18.466-27.171 18.466-44.575z" fill="url(#linearGradient28)" stroke-width="3.939"/>
  <path d="m172.53 63.578-27.827 27.827a23.634 23.634 0 0 1 6.9318 16.702h39.398c0-17.404-7.0968-33.124-18.503-44.53z" fill="url(#linearGradient26)" stroke-width="3.939"/>
  <path d="m128 45.075v39.398c6.2663 5e-3 12.274 2.4984 16.702 6.9318l27.827-27.827c-11.405-11.406-27.125-18.503-44.53-18.503z" fill="url(#linearGradient24)" stroke-width="3.939"/>
  <path d="m128.03 167.23a25.334 5.8462 0 0 0-25.334 5.8462 25.334 5.8462 0 0 0 3.4408 2.9231 25.334 5.8462 0 0 0-3.4408 2.9231 25.334 5.8462 0 0 0 3.4408 2.9231 25.334 5.8462 0 0 0-3.4408 2.9231 25.334 5.8462 0 0 0 3.4408 2.9231 25.334 5.8462 0 0 0-3.4408 2.9231 25.334 5.8462 0 0 0 3.4408 2.9231 25.334 5.8462 0 0 0-3.4408 2.9231 25.334 5.8462 0 0 0 3.4408 2.9231 25.334 5.8462 0 0 0-3.4408 2.9231 25.334 5.8462 0 0 0 12.737 5.0622 12.18 6.0898 0 0 0-0.0705 0.54047 12.18 6.0898 0 0 0 12.18 6.0898 12.18 6.0898 0 0 0 12.18-6.0898 12.18 6.0898 0 0 0-0.0304-0.41487 25.334 5.8462 0 0 0 13.672-5.1878 25.334 5.8462 0 0 0-3.4198-2.9307 25.334 5.8462 0 0 0 3.4198-2.9155 25.334 5.8462 0 0 0-3.4198-2.9307 25.334 5.8462 0 0 0 3.4198-2.9155 25.334 5.8462 0 0 0-3.4198-2.9307 25.334 5.8462 0 0 0 3.4198-2.9155 25.334 5.8462 0 0 0-3.4198-2.9307 25.334 5.8462 0 0 0 3.4198-2.9155 25.334 5.8462 0 0 0-3.4198-2.9307 25.334 5.8462 0 0 0 3.4198-2.9155 25.334 5.8462 0 0 0-25.334-5.8462z" fill="#282828" opacity=".15" style="paint-order:markers fill stroke"/>
  <path d="m128 162.12a25.334 5.8462 0 0 0-25.334 5.8462 25.334 5.8462 0 0 0 3.4408 2.9231 25.334 5.8462 0 0 0-3.4408 2.9231 25.334 5.8462 0 0 0 3.4408 2.9231 25.334 5.8462 0 0 0-3.4408 2.9231 25.334 5.8462 0 0 0 3.4408 2.9231 25.334 5.8462 0 0 0-3.4408 2.9231 25.334 5.8462 0 0 0 3.4408 2.9231 25.334 5.8462 0 0 0-3.4408 2.9231 25.334 5.8462 0 0 0 3.4408 2.9231 25.334 5.8462 0 0 0-3.4408 2.9231 25.334 5.8462 0 0 0 12.737 5.0622 12.18 6.0898 0 0 0-0.0705 0.54047 12.18 6.0898 0 0 0 12.18 6.0898 12.18 6.0898 0 0 0 12.18-6.0898 12.18 6.0898 0 0 0-0.0304-0.41487 25.334 5.8462 0 0 0 13.672-5.1878 25.334 5.8462 0 0 0-3.4198-2.9307 25.334 5.8462 0 0 0 3.4198-2.9155 25.334 5.8462 0 0 0-3.4198-2.9307 25.334 5.8462 0 0 0 3.4198-2.9155 25.334 5.8462 0 0 0-3.4198-2.9307 25.334 5.8462 0 0 0 3.4198-2.9155 25.334 5.8462 0 0 0-3.4198-2.9307 25.334 5.8462 0 0 0 3.4198-2.9155 25.334 5.8462 0 0 0-3.4198-2.9307 25.334 5.8462 0 0 0 3.4198-2.9155 25.334 5.8462 0 0 0-25.334-5.8462z" fill="#3c3836" style="paint-order:markers fill stroke"/>
  <path d="m91 12c-72 0-85 15-85 87v56c0 70 13 85 85 85h74c72 0 85-15 85-85v-56c0-72-13-87-85-87zm0 4h74c68 0 80 15 80 83v56c0 66-12 81-80 81h-74c-68 0-80-15-80-81v-56c0-68 12-83 80-83z" fill="url(#linearGradient31)" style="isolation:isolate"/>
</svg>
