<svg width="256" height="256" version="1.1" xmlns="http://www.w3.org/2000/svg" xmlns:xlink="http://www.w3.org/1999/xlink">
  <defs>
    <linearGradient id="linearGradient31-8" x1=".5002" x2=".5002" y2="1" gradientTransform="matrix(244 0 0 228 5.99 12)" gradientUnits="userSpaceOnUse">
      <stop stop-color="#282828" stop-opacity=".1" offset="0"/>
      <stop stop-color="#bdae93" stop-opacity=".1" offset=".1"/>
      <stop stop-color="#d5c4a1" stop-opacity="0" offset=".7022"/>
      <stop stop-color="#bdae93" stop-opacity=".302" offset=".9"/>
      <stop stop-color="#282828" stop-opacity=".15" offset="1"/>
    </linearGradient>
    <linearGradient id="linearGradient17" x1="-157.5" x2="-157.5" y1="-116" y2="112" gradientTransform="translate(267 128)" gradientUnits="userSpaceOnUse">
      <stop stop-color="#ebdbb2" stop-opacity=".2" offset="0"/>
      <stop stop-color="#ebdbb2" stop-opacity=".05098" offset=".5"/>
      <stop stop-opacity="0" offset=".75"/>
      <stop stop-opacity=".10196" offset=".875"/>
      <stop stop-opacity=".2" offset="1"/>
    </linearGradient>
  </defs>
  <path d="m165 12c72 0 85 15 85 87v56c0 70-13 85-85 85h-74c-72 0-85-15-85-85v-56c0-72 13-87 85-87z" fill="#ebdbb2" style="isolation:isolate"/>
  <path d="m91.002 12c-72 0-85 15-85 87v56c0 70 13 85 85 85h74c72 0 85-15 85-85v-56c0-72-13-87-85-87zm0 4h74c68 0 80 15 80 83v56c0 66-12 81-80 81h-74c-68 0-80-15-80-81v-56c0-68 12-83 80-83z" fill="url(#linearGradient31-8)" style="isolation:isolate"/>
  <path d="m91 12c-72 0-85 15-85 87v26.982h122v-113.98zm37.002 113.98v114.02h36.998c72 0 85-15 85-85v-29.018z" fill="#665c54" style="isolation:isolate"/>
  <path d="m55.168 41.611c-11.918 0-21.574 9.629-21.574 21.496 0 6.1826 2.6188 11.756 6.8086 15.678h-0.01367l32.766 31.447 33.762-31.447h-0.0137c4.1899-3.9216 6.8086-9.4949 6.8086-15.678 0-11.867-9.6565-21.496-21.574-21.496-7.8432 0-14.715 4.1752-18.484 10.422-3.7683-6.2465-10.641-10.422-18.484-10.422zm128.42 103.75c-2.6034 3.7e-4 -5.099 1.0356-6.9394 2.877-3.8317 3.8326-3.8317 10.044 0 13.877l12.695 12.699h-41.748c-5.4181 7.5e-4 -9.8093 4.3924-9.8086 9.8106 7.5e-4 5.4171 4.3916 9.8079 9.8086 9.8086h41.74l-12.688 12.689c-3.8334 3.8329-3.8334 10.048 0 13.881 3.8326 3.8316 10.044 3.8316 13.877 0l36.383-36.383-36.383-36.385c-1.8398-1.8407-4.335-2.874-6.9375-2.875z" fill="#ebdbb2" opacity=".1"/>
  <path d="m55.168 37.324c-11.917 0.001057-21.574 9.6296-21.574 21.496 0 6.1826 2.6188 11.754 6.8086 15.676h-0.011719l32.764 31.449 33.762-31.449h-0.01368c4.1899-3.9216 6.8086-9.493 6.8086-15.676 0-11.867-9.6565-21.496-21.574-21.496-7.8432 0-14.715 4.1752-18.484 10.422-3.768-6.246-10.64-10.421-18.482-10.422h-0.001953zm128.42 103.75c-2.6034 3.7e-4 -5.099 1.0356-6.9394 2.877-3.8317 3.8326-3.8317 10.044 0 13.877l12.695 12.697h-41.748c-5.4181 7.5e-4 -9.8093 4.3944-9.8086 9.8125 7.5e-4 5.4171 4.3916 9.8079 9.8086 9.8086h41.74l-12.688 12.688c-3.8334 3.8329-3.8334 10.05 0 13.883 3.8326 3.8316 10.044 3.8316 13.877 0l36.383-36.385-36.383-36.383c-1.8398-1.8407-4.335-2.874-6.9375-2.875z" fill="#ebdbb2"/>
  <path d="m55.168 37.324c-11.917 0.0011-21.574 9.6296-21.574 21.496 0 0.70624 0.04455 1.4031 0.11133 2.0918 1.1046-10.835 10.291-19.298 21.463-19.299h2e-3c7.8422 6.98e-4 14.714 4.1759 18.482 10.422 3.769-6.2467 10.641-10.422 18.484-10.422 11.173 0 20.358 8.4628 21.463 19.299 0.0668-0.68876 0.11133-1.3855 0.11133-2.0918 0-11.867-9.6565-21.496-21.574-21.496-7.8432 0-14.715 4.1752-18.484 10.422-3.768-6.246-10.64-10.421-18.482-10.422zm128.42 103.75c-2.6034 3.7e-4 -5.099 1.0356-6.9394 2.877-2.4658 2.4664-3.3211 5.9132-2.6133 9.082 0.39212-1.7552 1.2475-3.4268 2.6133-4.793 1.8404-1.8414 4.336-2.8766 6.9394-2.877 2.6025 9.9e-4 5.0977 1.0343 6.9375 2.875l34.238 34.238 2.1445-2.1445-36.383-36.383c-1.8398-1.8407-4.335-2.874-6.9375-2.875zm-35.992 29.451c-5.4181 7.5e-4 -9.8093 4.3944-9.8086 9.8125 1e-4 0.7383 0.0973 1.4509 0.25196 2.1426 0.98007-4.3835 4.8776-7.6673 9.5566-7.668h41.748l-4.2871-4.2871zm37.451 23.91-8.3984 8.3984c-2.4668 2.4665-3.3233 5.9155-2.6152 9.0859 0.39206-1.7569 1.2483-3.4301 2.6152-4.7969l12.688-12.688z" fill="#282828" opacity=".15"/>
  <path d="m182.35 36.92c-21.518 0-39.24 17.725-39.24 39.242 0 21.518 17.723 39.24 39.24 39.24 21.518 0 39.242-17.723 39.242-39.24 0-21.518-17.725-39.242-39.242-39.242zm0 26.162c7.377 0 13.08 5.7035 13.08 13.08 0 7.377-5.7036 13.08-13.08 13.08-7.377 0-13.08-5.7035-13.08-13.08 0-7.377 5.7036-13.08 13.08-13.08zm-131.59 82.436c-9.0312 0-16.35 7.3202-16.35 16.352s7.3187 16.35 16.35 16.35c9.0312 0 16.348-7.3187 16.348-16.35s-7.3168-16.352-16.348-16.352zm45.777 0c-9.0312 0-16.348 7.3202-16.348 16.352s7.3168 16.35 16.348 16.35 16.355-7.3187 16.355-16.35-7.3246-16.352-16.355-16.352zm-45.777 45.783c-9.0312 0-16.35 7.3187-16.35 16.35 0 9.0312 7.3187 16.35 16.35 16.35 9.0312 0 16.348-7.3187 16.348-16.35 0-9.0312-7.3168-16.35-16.348-16.35zm45.777 0c-9.0312 0-16.348 7.3187-16.348 16.35 0 9.0312 7.3168 16.35 16.348 16.35s16.355-7.3187 16.355-16.35c0-9.0312-7.3246-16.35-16.355-16.35z" fill="#282828" opacity=".15"/>
  <path d="m182.35 32.393c-21.518 0-39.24 17.725-39.24 39.242 0 21.518 17.723 39.24 39.24 39.24 21.518 0 39.242-17.723 39.242-39.24 0-21.518-17.725-39.242-39.242-39.242zm0 26.162c7.377 0 13.08 5.7035 13.08 13.08 0 7.377-5.7036 13.08-13.08 13.08-7.377 0-13.08-5.7035-13.08-13.08 0-7.377 5.7036-13.08 13.08-13.08zm-131.59 82.436c-9.0312 0-16.35 7.3202-16.35 16.352s7.3187 16.35 16.35 16.35c9.0312 0 16.348-7.3187 16.348-16.35s-7.3168-16.352-16.348-16.352zm45.777 0c-9.0312 0-16.348 7.3202-16.348 16.352s7.3168 16.35 16.348 16.35c9.0312 0 16.355-7.3187 16.355-16.35s-7.3246-16.352-16.355-16.352zm-45.777 45.783c-9.0312 0-16.35 7.3187-16.35 16.35 0 9.0312 7.3187 16.35 16.35 16.35 9.0312 0 16.348-7.3187 16.348-16.35 0-9.0312-7.3168-16.35-16.348-16.35zm45.777 0c-9.0312 0-16.348 7.3187-16.348 16.35 0 9.0312 7.3168 16.35 16.348 16.35 9.0312 0 16.355-7.3187 16.355-16.35 0-9.0312-7.3246-16.35-16.355-16.35z" fill="#665c54"/>
  <path d="m182.35 32.392c-21.518 0-39.24 17.723-39.24 39.24 0 0.76372 0.0732 1.5102 0.11719 2.2637 1.1964-20.477 18.369-36.977 39.123-36.977 20.753 0 37.93 16.499 39.127 36.977 0.044-0.75349 0.11523-1.5 0.11523-2.2637 0-21.518-17.725-39.24-39.242-39.24zm-12.881 41.504c-0.12167 0.73466-0.19922 1.4872-0.19922 2.2637 0 7.3766 5.7031 13.08 13.08 13.08 7.3765 0 13.08-5.7031 13.08-13.08 0-0.7743-0.0762-1.525-0.19726-2.2578-1.0366 6.2424-6.2847 10.811-12.883 10.811-6.6004 0-11.846-4.5716-12.881-10.816zm-118.71 67.094c-9.0312 0-16.35 7.3202-16.35 16.352 0 0.76895 0.07313 1.5191 0.17578 2.2598 1.1063-7.9548 7.9143-14.084 16.174-14.084 8.2607 0 15.07 6.1314 16.174 14.088 0.10296-0.74182 0.17383-1.4935 0.17383-2.2637 0-9.0309-7.3168-16.352-16.348-16.352zm45.779 0c-9.0312 0-16.35 7.3202-16.35 16.352 0 0.76895 0.07313 1.5191 0.17578 2.2598 1.1063-7.9548 7.9143-14.084 16.174-14.084 8.2607 0 15.075 6.1314 16.18 14.088 0.10303-0.74182 0.17382-1.4935 0.17382-2.2637 0-9.0309-7.3226-16.352-16.354-16.352zm-45.779 45.783c-9.0312 0-16.35 7.3187-16.35 16.35 0 0.76894 0.07313 1.5191 0.17578 2.2598 1.1063-7.9542 7.9143-14.082 16.174-14.082 8.2607 0 15.07 6.1295 16.174 14.086 0.10296-0.74179 0.17383-1.4935 0.17383-2.2637 0-9.0312-7.3168-16.35-16.348-16.35zm45.779 0c-9.0312 0-16.35 7.3187-16.35 16.35 0 0.76894 0.07313 1.5191 0.17578 2.2598 1.1063-7.9542 7.9143-14.082 16.174-14.082 8.2607 0 15.075 6.1295 16.18 14.086 0.10303-0.74179 0.17382-1.4935 0.17382-2.2637 0-9.0312-7.3226-16.35-16.354-16.35z" fill="#ebdbb2" opacity=".15"/>
  <path d="m91.001 12c-72 0-85 15-85 87v26.982h5v-26.982c0-68 12-83 80-83h37.002v-4zm154 113.98v29.02c0 66-12 81-80 81h-37v4h37c72 0 85-15 85-85v-29.02z" fill="url(#linearGradient17)" style="isolation:isolate"/>
</svg>
