<svg width="256" height="256" version="1.1" xmlns="http://www.w3.org/2000/svg">
  <defs>
    <linearGradient id="linearGradient31" x1=".5002" x2=".5002" y2="1" gradientTransform="matrix(244,0,0,228,5.986,12)" gradientUnits="userSpaceOnUse">
      <stop stop-color="#ebdbb2" stop-opacity=".2" offset="0"/>
      <stop stop-color="#ebdbb2" stop-opacity=".05" offset=".1"/>
      <stop stop-opacity="0" offset=".7036"/>
      <stop stop-opacity=".1" offset=".8975"/>
      <stop stop-opacity=".2" offset="1"/>
    </linearGradient>
    <linearGradient id="linearGradient6" x1="140" x2="140" y1="12" y2="240" gradientUnits="userSpaceOnUse">
      <stop stop-color="#83a598" offset="0"/>
      <stop stop-color="#458588" offset="1"/>
    </linearGradient>
  </defs>
  <path d="m165 12c72 0 85 15 85 87v56c0 70-13 85-85 85h-74c-72 0-85-15-85-85v-56c0-72 13-87 85-87z" fill="url(#linearGradient6)" style="isolation:isolate"/>
  <path d="m91 12c-61.96 0-80.23 11.21-84.13 60.19h242.3c-3.89-48.98-22.17-60.19-84.13-60.19z" fill="#504945" style="isolation:isolate"/>
  <path d="m38.019 35.619v28.569h5.7138v-11.428h11.428v-5.7138h-11.428v-5.7138h11.428v-5.7138zm22.855 0v28.569h5.7138v-28.569zm11.428 0v28.569h17.142v-5.7138h-11.428v-22.855zm22.855 0v28.569h17.142v-5.7138h-11.428v-5.7138h11.428v-5.7138h-11.428v-5.7138h11.428v-5.7138zm39.997 0v28.569h17.142v-5.7138h-11.428v-5.7138h11.428v-5.7138h-11.428v-5.7138h11.428v-5.7138zm22.855 0v28.569h9.4747l7.6668-5.3679v-17.833l-7.6668-5.3679h-6.6178zm22.855 0v28.569h5.7138v-28.569zm11.428 0v5.7138h5.7138v22.855h5.7139v-22.855h5.7138v-5.7138zm-28.569 5.7138h1.953l3.7609 2.6337v11.874l-3.7609 2.6337h-1.953z" fill="#3c3836" stroke-width="5.7138"/>
  <path d="m38.019 29.906v28.569h5.7138v-11.428h11.428v-5.7138h-11.428v-5.7138h11.428v-5.7138zm22.855 0v28.569h5.7138v-28.569zm11.428 0v28.569h17.142v-5.7138h-11.428v-22.855zm22.855 0v28.569h17.142v-5.7138h-11.428v-5.7138h11.428v-5.7138h-11.428v-5.7138h11.428v-5.7138zm39.997 0v28.569h17.142v-5.7138h-11.428v-5.7138h11.428v-5.7138h-11.428v-5.7138h11.428v-5.7138zm22.855 0v28.569h9.4747l7.6668-5.3679v-17.833l-7.6668-5.3679h-6.6178zm22.855 0v28.569h5.7138v-28.569zm11.428 0v5.7138h5.7138v22.855h5.7139v-22.855h5.7138v-5.7138zm-28.569 5.7138h1.953l3.7609 2.6337v11.874l-3.7609 2.6337h-1.953z" fill="#ebdbb2" stroke-width="5.7138"/>
  <path d="m91 12c-72 0-85 15-85 87v56c0 70 13 85 85 85h74c72 0 85-15 85-85v-56c0-72-13-87-85-87zm0 4h74c68 0 80 15 80 83v56c0 66-12 81-80 81h-74c-68 0-80-15-80-81v-56c0-68 12-83 80-83z" fill="url(#linearGradient31)" style="isolation:isolate"/>
</svg>
