<svg width="256" height="256" version="1.1" xmlns="http://www.w3.org/2000/svg" xmlns:xlink="http://www.w3.org/1999/xlink">
  <linearGradient id="b" x1=".5002" x2=".5002" y2="1" gradientTransform="matrix(244,0,0,228,5.981,12)" gradientUnits="userSpaceOnUse">
    <stop stop-color="#ebdbb2" offset="0"/>
    <stop stop-color="#ebdbb2" offset="1"/>
  </linearGradient>
  <defs>
    <linearGradient id="linearGradient31" x1=".5002" x2=".5002" y2="1" gradientTransform="matrix(244,0,0,228,5.988,12)" gradientUnits="userSpaceOnUse">
      <stop stop-color="#282828" stop-opacity=".1" offset="0"/>
      <stop stop-color="#bdae93" stop-opacity=".1" offset=".1"/>
      <stop stop-color="#d5c4a1" stop-opacity="0" offset=".7022"/>
      <stop stop-color="#bdae93" stop-opacity=".302" offset=".9"/>
      <stop stop-color="#282828" stop-opacity=".15" offset="1"/>
    </linearGradient>
    <linearGradient id="linearGradient9" x1="128" x2="128" y1="22.695" y2="232" gradientTransform="translate(0 -.30469)" gradientUnits="userSpaceOnUse">
      <stop stop-color="#d3869b" offset="0"/>
      <stop stop-color="#8f3f71" offset="1"/>
    </linearGradient>
  </defs>
  <path d="m165 12c72 0 85 15 85 87v56c0 70-13 85-85 85h-74c-72 0-85-15-85-85v-56c0-72 13-87 85-87z" fill="url(#b)" style="isolation:isolate"/>
  <path d="m94.471 25.391c-65.245 2e-6 -77.025 13.593-77.025 78.838v50.746c0 63.433 11.78 77.025 77.025 77.025h67.059c65.245 0 77.025-13.592 77.025-77.025v-50.746c0-65.245-11.78-78.838-77.025-78.838zm116.96 55.85c2.1807 0.01607 4.623 0.18359 7.2598 0.62305l-0.99024 49.395c-4.512 0.82495-9.0783 0.79064-13.586 0l-1.0801-49.395c1.8561-0.25602 4.762-0.64983 8.3965-0.62305zm-149.29 19.697c16.415 0 25.193 11.558 25.193 27.531 0 13.962-6.9312 27.172-25.193 27.172-17.531 0-25.012-12.564-25.012-27.172 0-14.986 7.9179-27.531 25.012-27.531zm55.152 0.0898c5.2889 0.0261 10.53 1.0012 15.475 2.8789-0.30074 3.6398-1.3152 7.1478-2.8789 10.438-5.8566-2.2775-8.3131-2.5195-11.426-2.5195-4.1983 0-7.1973 1.1661-7.1973 4.498 0.34166 4.8864 7.2629 5.4661 10.977 6.5684 8.5339 2.4383 12.416 6.6873 12.416 15.205 0 11.443-10.998 17.821-22.854 17.635-6.4366 0-10.661-0.99513-15.924-2.9688 0.25223-5.043 2.7312-10.385 2.9688-10.887 6.4322 2.5729 10.406 2.6094 12.506 2.6094 3.6051 0 9.4473-1.1982 9.4473-5.668 0-2.0957-0.39405-3.7898-5.4883-5.3984l-6.5684-1.709c-11.485-3.2814-11.967-10.044-11.967-14.307 0-10.336 7.7876-16.375 20.514-16.375zm34.012 0.64648c2.401-4e-3 4.8012 0.19625 7.1953 0.61328v27.621c0 9.5636 2.316 13.945 10.797 13.945 2.5192 0 4.5894-0.26889 6.2988-0.71875v-40.848c4.7426-0.80468 9.5665-0.82533 14.305 0v50.205c-5.3304 1.7768-16.569 4.6022-29.512 2.4277-15.486-2.6548-16.193-17.752-16.193-24.471v-28.162h-0.0898c2.3964-0.40117 4.7982-0.60932 7.1992-0.61328zm-89.164 10.51c-7.4243 0-10.525 6.0978-10.525 16.285 0 15.811 7.5054 16.285 10.525 16.285 3.8877 0 10.527-1.1698 10.527-16.285 0-15.108-6.6358-16.285-10.527-16.285zm148.68 26.83c2.4808-3e-3 4.9608 0.19827 7.4199 0.61133 0.43518 3.0462 1.1599 8.3504 0 14.846-4.9293 0.87744-9.9077 0.67294-14.844 0-0.80821-4.9236-0.8266-9.9263 0-14.846 2.4613-0.40257 4.943-0.60871 7.4238-0.61133z" fill="#282828" opacity=".15" stroke-width=".90618" style="isolation:isolate"/>
  <path d="m94.471 22.391c-65.245 2e-6 -77.025 13.593-77.025 78.838v50.746c0 63.433 11.78 77.025 77.025 77.025h67.059c65.245 0 77.025-13.592 77.025-77.025v-50.746c0-65.245-11.78-78.838-77.025-78.838zm116.96 55.85c2.1807 0.01607 4.623 0.18359 7.2598 0.62305l-0.99024 49.395c-4.512 0.82495-9.0783 0.79064-13.586 0l-1.0801-49.395c1.8561-0.25602 4.762-0.64983 8.3965-0.62305zm-149.29 19.697c16.415 0 25.193 11.558 25.193 27.531 0 13.962-6.9312 27.172-25.193 27.172-17.531 0-25.012-12.564-25.012-27.172 0-14.986 7.9179-27.531 25.012-27.531zm55.152 0.08984c5.2889 0.0261 10.53 1.0012 15.475 2.8789-0.30074 3.6398-1.3152 7.1478-2.8789 10.438-5.8566-2.2775-8.3131-2.5195-11.426-2.5195-4.1983 0-7.1973 1.1661-7.1973 4.498 0.34166 4.8864 7.2629 5.4661 10.977 6.5684 8.5339 2.4383 12.416 6.6873 12.416 15.205 0 11.443-10.998 17.821-22.854 17.635-6.4366 0-10.661-0.99513-15.924-2.9688 0.25223-5.043 2.7312-10.385 2.9688-10.887 6.4322 2.5729 10.406 2.6094 12.506 2.6094 3.6051 0 9.4473-1.1982 9.4473-5.668 0-2.0957-0.39405-3.7898-5.4883-5.3984l-6.5684-1.709c-11.485-3.2814-11.967-10.044-11.967-14.307 0-10.336 7.7876-16.375 20.514-16.375zm34.012 0.64648c2.401-4e-3 4.8012 0.19625 7.1953 0.61328v27.621c0 9.5636 2.316 13.945 10.797 13.945 2.5192 0 4.5894-0.26889 6.2988-0.71875v-40.848c4.7426-0.80468 9.5665-0.82533 14.305 0v50.205c-5.3304 1.7768-16.569 4.6022-29.512 2.4277-15.486-2.6548-16.193-17.752-16.193-24.471v-28.162h-0.0898c2.3964-0.40117 4.7982-0.60932 7.1992-0.61328zm-89.164 10.51c-7.4243 0-10.525 6.0978-10.525 16.285 0 15.811 7.5054 16.285 10.525 16.285 3.8877 0 10.527-1.1698 10.527-16.285 0-15.108-6.6358-16.285-10.527-16.285zm148.68 26.83c2.4808-3e-3 4.9608 0.19827 7.4199 0.61133 0.43518 3.0462 1.1599 8.3504 0 14.846-4.9293 0.87744-9.9077 0.67294-14.844 0-0.80821-4.9236-0.8266-9.9263 0-14.846 2.4613-0.40257 4.943-0.60871 7.4238-0.61133z" fill="url(#linearGradient9)" stroke-width=".90618" style="isolation:isolate"/>
  <path d="m91 12c-72 0-85 15-85 87v56c0 70 13 85 85 85h74c72 0 85-15 85-85v-56c0-72-13-87-85-87zm0 4h74c68 0 80 15 80 83v56c0 66-12 81-80 81h-74c-68 0-80-15-80-81v-56c0-68 12-83 80-83z" fill="url(#linearGradient31)" style="isolation:isolate"/>
</svg>
