<svg width="256" height="256" version="1.1" xmlns="http://www.w3.org/2000/svg" xmlns:xlink="http://www.w3.org/1999/xlink">
  <defs>
    <linearGradient id="linearGradient31" x1=".5002" x2=".5002" y2="1" gradientTransform="matrix(244,0,0,228,5.986,12)" gradientUnits="userSpaceOnUse">
      <stop stop-color="#ebdbb2" stop-opacity=".2" offset="0"/>
      <stop stop-color="#ebdbb2" stop-opacity=".05" offset=".1"/>
      <stop stop-opacity="0" offset=".7036"/>
      <stop stop-opacity=".1" offset=".8975"/>
      <stop stop-opacity=".2" offset="1"/>
    </linearGradient>
    <linearGradient id="linearGradient6" x1="140" x2="140" y1="12" y2="240" gradientUnits="userSpaceOnUse">
      <stop stop-color="#d3869b" offset="0"/>
      <stop stop-color="#b16286" offset="1"/>
    </linearGradient>
    <linearGradient id="linearGradient9" x1="6" x2="250" y1="217.19" y2="217.19" gradientUnits="userSpaceOnUse">
      <stop stop-color="#8f3f71" offset="0"/>
      <stop stop-color="#b16286" offset=".10218"/>
      <stop stop-color="#8f3f71" offset=".25307"/>
      <stop stop-color="#8f3f71" offset=".75358"/>
      <stop stop-color="#b16286" offset=".89714"/>
      <stop stop-color="#8f3f71" offset="1"/>
    </linearGradient>
    <linearGradient id="linearGradient13" x1="45" x2="45" y1="50" y2="82" gradientTransform="matrix(2.1219 0 0 2.1219 -8.862 -32.203)" gradientUnits="userSpaceOnUse">
      <stop stop-color="#d5c4a1" offset="0"/>
      <stop stop-color="#665c54" offset="1"/>
    </linearGradient>
  </defs>
  <path d="m165 12c72 0 85 15 85 87v56c0 70-13 85-85 85h-74c-72 0-85-15-85-85v-56c0-72 13-87 85-87z" fill="url(#linearGradient6)" style="isolation:isolate"/>
  <path d="m6.0098 98.236c-3.62e-4 0.26603-0.009766 0.49607-0.009766 0.76367v56c0 0.26065 0.0094 0.48501 0.0098 0.74414zm243.98 0v57.508c3.7e-4 -0.25913 0.01-0.48349 0.01-0.74414v-56c-2.3e-4 -0.2676-0.00923-0.49764-0.01023-0.76367zm-242.44 89.644c5.1049 42.023 24.518 52.12 83.445 52.12h74c58.926 0 78.339-10.096 83.445-52.118-2.7794 6.3397-8.9942 10.76-16.199 10.76h-208.49c-7.2044 0-13.419-4.4231-16.199-10.763z" fill="url(#linearGradient9)" style="isolation:isolate"/>
  <path d="m145.46 217.03a5.3724 5.3724 0 1 1 10.745 0 5.3724 5.3724 0 0 1-10.745 0z" fill="#282828" stroke-width="2.6862"/>
  <path d="m145.63 215.69a5.3724 5.3724 0 0 0 10.406 0 5.3697 5.3697 0 0 1-7.5671 6.1622 5.3617 5.3617 0 0 1-2.8393-6.1622z" fill="#b16286" stroke-width="2.6862"/>
  <path d="m132.03 211.66h-26.862a5.3724 5.3724 0 1 0 0 10.745h26.862a5.3724 5.3724 0 1 0 0-10.745z" fill="#282828" stroke-width="2.6862"/>
  <path d="m99.964 215.69a5.3724 5.3724 0 0 0 5.2032 6.7155h26.862a5.3859 5.3859 0 0 0 4.2496-2.0818 5.3617 5.3617 0 0 0 0.95361-4.6337 5.3697 5.3697 0 0 1-5.2032 4.0293h-26.862a5.3671 5.3671 0 0 1-5.2032-4.0293z" fill="#b16286" stroke-width="2.6862"/>
  <path d="m169.38 60.097h-84.876c-4.6876 0-8.4876 3.8-8.4876 8.4876v84.876c-1e-6 4.6876 3.8 8.4876 8.4876 8.4876h84.876c4.6876 0 8.4876-3.8 8.4876-8.4876v-84.876c0-4.6876-3.8-8.4876-8.4876-8.4876z" fill="#ebdbb2" opacity=".2" stroke-width="2.1219"/>
  <path d="m169.38 56.917h-84.876c-4.6876 0-8.4876 3.8-8.4876 8.4876v84.876c-1e-6 4.6876 3.8 8.4876 8.4876 8.4876h84.876c4.6876 0 8.4876-3.8 8.4876-8.4876v-84.876c0-4.6876-3.8-8.4876-8.4876-8.4876z" fill="#282828" stroke-width="2.1219"/>
  <path d="m163.01 73.892h-72.144a4.2438 4.2438 0 0 0-4.2438 4.2438v59.413a4.2438 4.2438 0 0 0 4.2438 4.2438h72.144a4.2438 4.2438 0 0 0 4.2438-4.2438v-59.413a4.2438 4.2438 0 0 0-4.2438-4.2438z" fill="url(#linearGradient13)" stroke-width="2.1219"/>
  <path d="m207.57 97.233v-2.1219a10.609 10.609 0 0 0-21.219 0v2.1219a10.609 10.609 0 0 0 21.219 0zm25.463-12.731v-2.1219a10.609 10.609 0 0 0-21.219 0v2.1219a10.609 10.609 0 0 0 21.219 0z" fill="#282828" stroke-width="2.1219"/>
  <path d="m196.96 103.6c5.8585 0 10.609-4.2756 10.609-9.5485 0-5.2729-4.7509-9.5485-10.609-9.5485s-10.609 4.2756-10.609 9.5485c0 5.2729 4.7509 9.5485 10.609 9.5485zm25.463-12.731c5.8585 0 10.609-4.2756 10.609-9.5485s-4.7509-9.5485-10.609-9.5485-10.609 4.2756-10.609 9.5485 4.7509 9.5485 10.609 9.5485z" fill="#3c3836" stroke-width="2.1219"/>
  <path d="m44.471 80.299a7.4266 7.4266 0 0 0-6.6504 7.3848v3.1836h-8.4883a6.3657 6.3657 0 0 0-6.3652 6.3652v4.2441a6.3657 6.3657 0 0 0 6.3652 6.3652h8.4883v7.4277a7.4266 7.4266 0 1 0 14.852 0v-7.4277h8.4883a6.3657 6.3657 0 0 0 6.3652-6.3652v-4.2441a6.3657 6.3657 0 0 0-6.3652-6.3652h-8.4883v-3.1836a7.4266 7.4266 0 0 0-8.2012-7.3848z" fill="#282828" stroke-width="2.1219"/>
  <path d="m44.471 76.055a7.4266 7.4266 0 0 0-6.6504 7.3867v7.4258h-8.4883a6.3657 6.3657 0 1 0 0 12.73h8.4883v7.4277a7.4266 7.4266 0 1 0 14.852 0v-7.4277h8.4883a6.3657 6.3657 0 1 0 0-12.73h-8.4883v-7.4258a7.4266 7.4266 0 0 0-8.2012-7.3867z" fill="#3c3836" stroke-width="2.1219"/>
  <path d="m224.55 124.82h-29.706a2.1219 2.1219 0 1 0 0 4.2438h29.706a2.1219 2.1219 0 0 0 0-4.2438zm0 10.609h-29.706a2.1219 2.1219 0 1 0 0 4.2438h29.706a2.1219 2.1219 0 0 0 0-4.2438zm0 10.609h-29.706a2.1219 2.1219 0 1 0 0 4.2438h29.706a2.1219 2.1219 0 0 0 0-4.2438z" fill="#8f3f71" stroke-width="2.1219"/>
  <path d="m36.759 135.43h-6.3657a5.3047 5.3047 0 0 0 0 10.609h6.3657a5.3047 5.3047 0 0 0 0-10.609zm23.341 0h-6.3657a5.3047 5.3047 0 0 0 0 10.609h6.3657a5.3047 5.3047 0 0 0 0-10.609z" fill="#282828" stroke-width="2.1219"/>
  <path d="m37.82 135.43h-8.4876a4.2438 4.2438 0 1 0 0 8.4876h8.4876a4.2438 4.2438 0 1 0 0-8.4876zm23.341 0h-8.4876a4.2438 4.2438 0 1 0 0 8.4876h8.4876a4.2438 4.2438 0 1 0 0-8.4876z" fill="#3c3836" stroke-width="2.1219"/>
  <path d="m91 12c-72 0-85 15-85 87v56c0 70 13 85 85 85h74c72 0 85-15 85-85v-56c0-72-13-87-85-87zm0 4h74c68 0 80 15 80 83v56c0 66-12 81-80 81h-74c-68 0-80-15-80-81v-56c0-68 12-83 80-83z" fill="url(#linearGradient31)" style="isolation:isolate"/>
  <path d="m84.502 56.917c-4.6876 0-8.4883 3.8007-8.4883 8.4883v3.1797c0-4.6876 3.8007-8.4883 8.4883-8.4883h84.875c4.6876 4e-6 8.4883 3.8007 8.4883 8.4883v-3.1797c0-4.6876-3.8007-8.4883-8.4883-8.4883z" fill="#1d2021" stroke-width="2.1219"/>
</svg>
