<svg width="256" height="256" style="isolation:isolate" version="1.1" viewBox="0 0 256 256" xmlns="http://www.w3.org/2000/svg">
  <g transform="translate(.01574 .04874)" filter="url(#eCPzTXTXrsdEEKx2ILoZfo038u9CcKhf)">
    <linearGradient id="_lgradient_7" x2="0" y2="1" gradientTransform="matrix(244.6,0,0,228.3,5.7,11.9)" gradientUnits="userSpaceOnUse">
      <stop stop-color="#504945" offset="0"/>
      <stop stop-color="#3c3836" offset="1"/>
    </linearGradient>
    <path d="m165.7 11.9c74.06 0 84.64 10.56 84.64 84.54v59.25c0 73.99-10.58 84.54-84.64 84.54h-75.37c-74.06 0-84.64-10.56-84.64-84.54v-59.25c0-73.99 10.58-84.54 84.64-84.54z" fill="url(#_lgradient_7)"/>
  </g>
  <g opacity=".4">
    <linearGradient id="_lgradient_8" x1=".517" x2=".517" y2="1" gradientTransform="matrix(244.6 0 0 228.3 5.68 11.95)" gradientUnits="userSpaceOnUse">
      <stop stop-color="#ebdbb2" offset="0"/>
      <stop stop-color="#ebdbb2" stop-opacity=".098" offset=".125"/>
      <stop stop-color="#282828" stop-opacity=".098" offset=".925"/>
      <stop stop-color="#282828" stop-opacity=".498" offset="1"/>
    </linearGradient>
    <path d="m165.1 11.95c4.328-0.01 8.656 0.04 12.98 0.138 3.875 0.078 7.751 0.226 11.63 0.452 3.453 0.196 6.905 0.481 10.35 0.854 3.059 0.335 6.118 0.786 9.148 1.346 2.715 0.502 5.4 1.14 8.046 1.916 2.4 0.698 4.751 1.562 7.023 2.584 2.115 0.943 4.141 2.063 6.059 3.35 1.84 1.238 3.561 2.653 5.135 4.215 1.564 1.572 2.98 3.282 4.219 5.119 1.289 1.916 2.41 3.94 3.364 6.042 1.023 2.28 1.889 4.618 2.597 7.005 0.777 2.643 1.417 5.325 1.918 8.037 0.561 3.026 1.013 6.072 1.348 9.127 0.374 3.439 0.659 6.878 0.856 10.33 0.226 3.861 0.373 7.732 0.462 11.59 0.088 4.323 0.138 8.646 0.128 12.96v58.21c0.01 4.323-0.04 8.636-0.128 12.96-0.089 3.871-0.236 7.732-0.462 11.59-0.197 3.448-0.482 6.897-0.856 10.33-0.335 3.055-0.787 6.111-1.348 9.137-0.501 2.702-1.141 5.384-1.918 8.027-0.708 2.387-1.574 4.735-2.597 7.005-0.954 2.112-2.075 4.126-3.364 6.042-1.239 1.837-2.655 3.557-4.219 5.119-1.574 1.562-3.295 2.977-5.135 4.215-1.918 1.287-3.944 2.407-6.059 3.35-2.272 1.022-4.623 1.886-7.023 2.594-2.646 0.776-5.331 1.414-8.046 1.906-3.03 0.569-6.089 1.011-9.148 1.346-3.443 0.373-6.895 0.658-10.35 0.854-3.875 0.226-7.751 0.374-11.63 0.462-4.328 0.088-8.656 0.138-12.98 0.128h-74.13c-4.328 0.01-8.656-0.04-12.98-0.128-3.875-0.088-7.751-0.236-11.63-0.462-3.453-0.196-6.905-0.481-10.35-0.854-3.059-0.335-6.118-0.777-9.148-1.346-2.715-0.492-5.4-1.13-8.046-1.906-2.4-0.708-4.751-1.572-7.023-2.594-2.115-0.943-4.141-2.063-6.059-3.35-1.84-1.238-3.561-2.653-5.135-4.215-1.564-1.562-2.98-3.282-4.219-5.119-1.289-1.916-2.41-3.93-3.364-6.042-1.023-2.27-1.889-4.618-2.597-7.005-0.777-2.643-1.417-5.325-1.918-8.027-0.561-3.026-1.013-6.082-1.348-9.137-0.374-3.429-0.659-6.878-0.856-10.33-0.226-3.861-0.373-7.722-0.462-11.59-0.088-4.323-0.138-8.636-0.128-12.96v-58.21c-0.01-4.313 0.04-8.636 0.128-12.96 0.089-3.861 0.236-7.732 0.462-11.59 0.197-3.448 0.482-6.887 0.856-10.33 0.335-3.055 0.787-6.101 1.348-9.127 0.501-2.712 1.141-5.394 1.918-8.037 0.708-2.387 1.574-4.725 2.597-7.005 0.954-2.102 2.075-4.126 3.364-6.042 1.239-1.837 2.655-3.547 4.219-5.119 1.574-1.562 3.295-2.977 5.135-4.215 1.918-1.287 3.944-2.407 6.059-3.35 2.272-1.022 4.623-1.886 7.023-2.584 2.646-0.776 5.331-1.414 8.046-1.916 3.03-0.56 6.089-1.011 9.148-1.346 3.443-0.373 6.895-0.658 10.35-0.854 3.875-0.226 7.751-0.374 11.63-0.452 4.328-0.098 8.656-0.148 12.98-0.138h74.13zm0.01 4.009c4.298-0.01 8.597 0.039 12.9 0.127 3.827 0.089 7.653 0.236 11.48 0.452 3.384 0.197 6.767 0.472 10.13 0.845 2.971 0.315 5.932 0.747 8.863 1.297 2.577 0.472 5.134 1.081 7.653 1.818 2.223 0.648 4.396 1.454 6.501 2.397 1.909 0.855 3.738 1.867 5.469 3.026 1.623 1.091 3.138 2.338 4.525 3.724 1.387 1.385 2.636 2.898 3.738 4.519 1.16 1.729 2.174 3.547 3.029 5.443 0.945 2.112 1.751 4.284 2.4 6.494 0.748 2.515 1.348 5.06 1.83 7.634 0.541 2.928 0.974 5.875 1.298 8.842 0.374 3.36 0.65 6.73 0.846 10.11 0.217 3.822 0.374 7.634 0.453 11.46 0.088 4.293 0.137 8.577 0.137 12.87v58.21c0 4.293-0.049 8.577-0.137 12.87-0.079 3.822-0.236 7.644-0.453 11.46-0.196 3.38-0.472 6.75-0.846 10.12-0.324 2.957-0.757 5.904-1.298 8.832-0.482 2.574-1.082 5.119-1.83 7.634-0.649 2.22-1.455 4.382-2.4 6.494-0.855 1.896-1.869 3.724-3.029 5.443-1.102 1.631-2.351 3.144-3.738 4.529-1.387 1.376-2.902 2.623-4.525 3.714-1.731 1.159-3.56 2.171-5.469 3.026-2.105 0.953-4.278 1.749-6.501 2.397-2.519 0.737-5.076 1.346-7.653 1.818-2.931 0.55-5.892 0.982-8.863 1.306-3.364 0.364-6.747 0.649-10.13 0.836-3.826 0.216-7.652 0.373-11.48 0.452-4.298 0.098-8.597 0.137-12.9 0.137h-74.15c-4.298 0-8.597-0.039-12.9-0.137-3.827-0.079-7.653-0.236-11.48-0.452-3.384-0.187-6.767-0.472-10.13-0.836-2.971-0.324-5.932-0.756-8.863-1.306-2.577-0.472-5.134-1.081-7.653-1.818-2.223-0.648-4.396-1.444-6.501-2.397-1.909-0.855-3.738-1.867-5.469-3.026-1.623-1.091-3.138-2.338-4.525-3.714-1.387-1.385-2.636-2.898-3.738-4.529-1.16-1.719-2.174-3.547-3.029-5.443-0.945-2.112-1.751-4.274-2.4-6.494-0.748-2.515-1.348-5.06-1.83-7.634-0.541-2.928-0.974-5.875-1.298-8.832-0.374-3.37-0.649-6.74-0.846-10.12-0.217-3.812-0.374-7.634-0.453-11.46-0.088-4.293-0.137-8.577-0.137-12.87v-58.21c0-4.293 0.049-8.577 0.137-12.87 0.079-3.822 0.236-7.634 0.453-11.46 0.197-3.38 0.472-6.75 0.846-10.11 0.324-2.967 0.757-5.914 1.298-8.842 0.482-2.574 1.082-5.119 1.83-7.634 0.649-2.21 1.455-4.382 2.4-6.494 0.855-1.896 1.869-3.714 3.029-5.443 1.102-1.621 2.351-3.134 3.738-4.519 1.387-1.386 2.902-2.633 4.525-3.724 1.731-1.159 3.56-2.171 5.469-3.026 2.105-0.943 4.278-1.749 6.501-2.397 2.519-0.737 5.076-1.346 7.653-1.818 2.931-0.55 5.892-0.982 8.863-1.297 3.364-0.373 6.747-0.648 10.13-0.845 3.826-0.216 7.652-0.363 11.48-0.452 4.298-0.088 8.597-0.137 12.9-0.127h74.15z" fill="url(#_lgradient_8)" fill-rule="evenodd"/>
  </g>
  <g filter="url(#X7Q4umq1NCUbTNZvknUMOwzHV6asdDFN)" opacity=".4">
    <path d="m55.5 181.1v2.59c0 10.04 8.084 18.12 18.12 18.12h108.7c10.04 0 18.12-8.084 18.12-18.12 0-0.297-0.062-0.576-0.086-0.865-0.865 9.224-8.581 16.4-18.04 16.4h-108.7c-10.04 0-18.12-8.083-18.12-18.12z"/>
  </g>
  <path d="m164.2 163h18.12c10.04 0 18.12 8.084 18.12 18.12 0 10.04-8.084 18.12-18.12 18.12h-18.12v-36.25z" fill="#fb4934"/>
  <path d="m91.75 163h-18.12c-10.04 0-18.12 8.084-18.12 18.12 0 10.04 8.084 18.12 18.12 18.12h18.12v-36.25z" fill="#282828"/>
  <path d="m91.75 163h-18.12c-10.04 0-18.12 8.084-18.12 18.12 0 10.04 8.084 18.12 18.12 18.12h18.12v-36.25z" fill="#9d0006" opacity=".8" style="isolation:isolate"/>
  <path d="m164.2 163v36.25h-36.25v-36.25h36.25z" fill="#cc241d"/>
  <path d="m128 163v36.25h-36.25v-36.25h36.25z" fill="#9d0006"/>
  <g filter="url(#KGJYkfd5roJOse2YL5QYTN9AkswHzyHH)" opacity=".4">
    <path d="m169.1 111.2c-3.48-0.243-7.076 0.524-10.34 2.407l-94.18 54.38c-5.03 2.904-8.063 7.838-8.82 13.15 1.272 8.78 8.719 15.5 17.86 15.5h13.81l10.96-6.331 78.49-45.31c8.696-5.02 11.66-16.06 6.635-24.76-3.138-5.435-8.624-8.627-14.42-9.032zm-113.5 73.63c0.037 0.565 0.081 1.125 0.172 1.689-0.087-0.554-0.136-1.119-0.172-1.689zm0.648 3.803c0.113 0.394 0.222 0.784 0.364 1.173-0.138-0.384-0.252-0.778-0.364-1.173zm1.497 3.661c0.077 0.142 0.111 0.294 0.192 0.435 0.047 0.081 0.114 0.142 0.162 0.222-0.128-0.213-0.236-0.438-0.354-0.657zm1.972 2.923c0.2 0.243 0.385 0.498 0.597 0.728-0.213-0.23-0.397-0.486-0.597-0.728zm2.478 2.458c0.247 0.202 0.482 0.419 0.738 0.607-0.257-0.189-0.491-0.405-0.738-0.607zm2.791 1.871c0.336 0.183 0.657 0.386 1.002 0.546-0.347-0.161-0.667-0.364-1.002-0.546zm3.035 1.305c0.448 0.147 0.887 0.303 1.345 0.415-0.461-0.111-0.899-0.27-1.345-0.415zm3.125 0.718c0.623 0.087 1.24 0.161 1.871 0.182-0.636-0.021-1.253-0.098-1.871-0.182z"/>
  </g>
  <path d="m143.1 120.1 15.7-9.062c8.696-5.021 19.74-2.062 24.76 6.634s2.062 19.74-6.634 24.76l-15.7 9.063-18.12-31.39z" fill="#fabd2f"/>
  <path d="m80.28 156.3-15.7 9.063c-8.696 5.02-11.65 16.06-6.634 24.76 5.021 8.696 16.06 11.66 24.76 6.634l15.7-9.062-18.12-31.39z" fill="#282828"/>
  <path d="m80.28 156.3-15.7 9.063c-8.696 5.02-11.65 16.06-6.634 24.76 5.021 8.696 16.06 11.66 24.76 6.634l15.7-9.062-18.12-31.39z" fill="#b57614" opacity=".6" style="isolation:isolate"/>
  <path d="m143.1 120.1 18.12 31.39-31.39 18.12-18.12-31.39 31.39-18.12z" fill="#d79921"/>
  <path d="m111.7 138.2 18.12 31.39-31.39 18.12-18.12-31.39 31.39-18.12z" fill="#b57614"/>
  <g filter="url(#GjfMjeUSpDtpkU3UzjVvzVFQUlqqg2iV)" opacity=".4">
    <path d="m126.7 71.38c-5.8 0.405-11.28 3.597-14.42 9.032l-45.31 78.49-9.062 15.69c-1.173 2.032-1.875 4.201-2.205 6.382 1.212 8.849 8.69 15.65 17.88 15.65h12.57c1.179-1.146 2.271-2.407 3.136-3.904l9.062-15.69 45.31-78.49c5.02-8.696 2.071-19.74-6.625-24.76-3.261-1.883-6.858-2.641-10.34-2.397zm-71.18 113c0.021 0.579 0.085 1.147 0.162 1.72-0.075-0.568-0.141-1.136-0.162-1.72zm0.475 3.581c0.111 0.458 0.268 0.896 0.415 1.345-0.145-0.446-0.304-0.885-0.415-1.345zm1.204 3.428c0.135 0.289 0.304 0.558 0.455 0.84-0.15-0.281-0.319-0.549-0.455-0.84zm1.78 3.004c0.182 0.249 0.391 0.478 0.587 0.719-0.196-0.24-0.404-0.469-0.587-0.719zm2.377 2.65c0.201 0.184 0.426 0.341 0.637 0.516-0.21-0.175-0.436-0.331-0.637-0.516zm2.953 2.185c0.081 0.048 0.141 0.115 0.223 0.162 0.137 0.079 0.286 0.117 0.425 0.192-0.217-0.118-0.437-0.228-0.648-0.354zm3.176 1.497c0.37 0.134 0.739 0.236 1.113 0.344-0.375-0.107-0.749-0.214-1.113-0.344zm3.257 0.829c0.578 0.093 1.15 0.136 1.73 0.172-0.584-0.035-1.163-0.083-1.73-0.172z"/>
  </g>
  <path d="m103.3 93.52 9.062-15.7c5.021-8.696 16.06-11.66 24.76-6.634 8.696 5.02 11.66 16.06 6.635 24.76l-9.063 15.7-31.39-18.12z" fill="#83a598"/>
  <path d="m67.01 156.3-9.063 15.7c-5.02 8.696-2.062 19.74 6.634 24.76 8.696 5.021 19.74 2.062 24.76-6.634l9.062-15.7-31.39-18.12z" fill="#282828" style="isolation:isolate"/>
  <path d="m67.01 156.3-9.063 15.7c-5.02 8.696-2.062 19.74 6.634 24.76 8.696 5.021 19.74 2.062 24.76-6.634l9.062-15.7-31.39-18.12z" fill="#076678" opacity=".6"/>
  <path d="m103.3 93.52 31.39 18.12-18.12 31.39-31.39-18.12 18.12-31.39z" fill="#458588"/>
  <path d="m85.13 124.9 31.39 18.12-18.12 31.39-31.39-18.12 18.12-31.39z" fill="#076678"/>
  <path d="m55.5 90.46v-18.12c0-10.04 8.084-18.12 18.12-18.12s18.12 8.084 18.12 18.12v18.12h-36.25z" fill="#b8bb26"/>
  <path d="m55.5 163v18.12c0 10.04 8.084 18.12 18.12 18.12s18.12-8.083 18.12-18.12v-18.12h-36.25z" fill="#282828"/>
  <path d="m55.5 163v18.12c0 10.04 8.084 18.12 18.12 18.12s18.12-8.083 18.12-18.12v-18.12h-36.25z" fill="#79740e" opacity=".6" style="isolation:isolate"/>
  <path d="m55.5 90.46h36.25v36.25h-36.25v-36.25z" fill="#98971a"/>
  <path d="m55.5 126.7h36.25v36.25h-36.25v-36.25z" fill="#79740e"/>
  <g filter="url(#7lCspXPIetMyru3tAyfC03LCmUfgIojS)" opacity=".4">
    <circle cx="73.62" cy="183.7" r="10.36" vector-effect="non-scaling-stroke"/>
  </g>
  <circle cx="73.62" cy="181.1" r="10.36" fill="#ebdbb2" vector-effect="non-scaling-stroke"/>
  <g opacity=".2">
    <path d="m73.62 54.2c-10.04 0-18.12 8.084-18.12 18.12v2.59c0-10.04 8.084-18.12 18.12-18.12s18.12 8.083 18.12 18.12v-2.59c0-10.04-8.084-18.12-18.12-18.12zm54.87 14.54c-6.425-0.174-12.73 3.094-16.18 9.072l-9.063 15.7-11.57 20.04 0.043 2.516 20.59-35.67c3.451-5.979 9.753-9.246 16.18-9.073 2.92 0.079 5.864 0.869 8.582 2.438 5.39 3.112 8.574 8.539 9.022 14.29 0.44-6.665-2.826-13.3-9.022-16.88-2.718-1.569-5.662-2.358-8.582-2.437zm38.85 39.8c-2.921 0.079-5.87 0.869-8.587 2.438l-33.36 19.26-2.241 3.884 19.9-11.49 15.7-9.062c8.696-5.021 19.74-2.061 24.76 6.635 1.443 2.5 2.209 5.195 2.387 7.884 0.274-3.524-0.479-7.168-2.387-10.47-3.452-5.979-9.748-9.246-16.17-9.073zm-57.48 38.07c-0.129 0.011-0.251 0.01-0.379 0.02-0.112 1.169-0.136 2.297-0.061 3.378 0.065-1.095 0.2-2.221 0.44-3.398zm35.88 16.33-4.486 2.59h41.11c9.603 0 17.4 7.401 18.06 16.83 0.03-0.43 0.066-0.857 0.066-1.295 0-10.04-8.084-18.12-18.12-18.12h-36.62z" fill="#ebdbb2"/>
  </g>
</svg>
