<svg width="256" height="256" version="1.1" xmlns="http://www.w3.org/2000/svg">
  <defs>
    <linearGradient id="linearGradient31" x1=".5002" x2=".5002" y2="1" gradientTransform="matrix(244,0,0,228,5.986,12)" gradientUnits="userSpaceOnUse">
      <stop stop-color="#ebdbb2" stop-opacity=".2" offset="0"/>
      <stop stop-color="#ebdbb2" stop-opacity=".05" offset=".1"/>
      <stop stop-opacity="0" offset=".7036"/>
      <stop stop-opacity=".1" offset=".8975"/>
      <stop stop-opacity=".2" offset="1"/>
    </linearGradient>
    <linearGradient id="linearGradient6" x1="140" x2="140" y1="12" y2="240" gradientUnits="userSpaceOnUse">
      <stop stop-color="#458588" offset="0"/>
      <stop stop-color="#458588" offset="1"/>
    </linearGradient>
  </defs>
  <path d="m165 12c72 0 85 15 85 87v56c0 70-13 85-85 85h-74c-72 0-85-15-85-85v-56c0-72 13-87 85-87z" fill="url(#linearGradient6)" style="isolation:isolate"/>
  <path d="m88.03 12.01c-2.152 2.566-6.582 7.583-6.582 7.583l12.22 12.3v13.03l13.9 15.45h8.482v-7.793l12.06-12.05v-8.686l8.035-8.002v-11.84zm-21.36 0.7827c-10.47 0.7963-19.16 2.231-26.42 4.595 2.006 2.044 6.035 6.133 6.035 6.133h20.42zm-26.38 19.37v12.09h-10.06s-7.91-8.012-12-11.85c-8.094 11.1-11.25 27.81-12.03 52.36-0.03224 1.327-0.07707 2.587-0.1049 4.01-0.07005 3.306-0.1001 6.645-0.1001 10.23v19.37l7.575 7.638h12.59l20.16 20.13 0.3086-23.87 12.3-12.38h8.074l12.59-12.67h11.46l-2.775-2.826c-1.876-1.908-2.623-3.069-2.311-3.596 0.6909-1.155 10.18-11.96 10.84-13.07-2.507-4.834-7.533-8.829-11.43-12.75h-18.1v16.12h-8.869l-7.779-7.742v-8.643l12.32-12.4h10.06v-7.754l-12.32-12.4zm192.3 4.03h-6.051l-12.67 12.67-7.98-8.066h-24.73l-11.74 11.82v10.06h11.48v-6.334h8.609v4.492l-1.898 6.34-1.898 1.846-8.291 0.3652-8.289 0.3594-5.959 5.598h-8.105v7.812l-6.312 6.254v11.84h12.37l7.977-8.059h8.352v5.014l7.805 7.73 4.018-0.1953 4e-3 -3.676-7.816-8.873h8.363l7.979 8.059h9.168l-5.652-5.76 3.113-3.166c3.026-3.077 3.211-3.162 6.279-3.162 3.037 0 3.274 0.1161 6.191 3 1.667 1.653 3.029 3.209 3.029 3.457 0 0.2477-5.75 0.0645-5.75 0.0645-1.751 1.964 0.7898-0.9742-5.84 6.156l2.855 3.029c2.906 2.95 2.992 3.136 2.992 6.33v3.291l-7.082-8e-3 23.44 23.88 3.732-0.0879 12.05-11.96-8.289-8.373h11.96v-18.94c0-30.51-2.334-50.76-10.5-64-2.156 1.005-4.569 1.153-6.914 1.193zm-106.2 20.72v5.756h11.72l-2.824-2.881c-2.686-2.733-2.98-2.875-5.867-2.875zm36.16 2.633-2.867 2.832c-2.651 2.621-2.871 3.05-2.871 5.594v2.756h5.742v-5.592zm-63.14 21.85c-2.01 2.005-4.01 4.018-6.012 6.031h3.221c2.161 0 3.459 0.2826 3.937 0.8633 0.934 1.123 3.103 1.103 4.053-0.0391 0.5368-2.408-3.53-5.184-5.199-6.855zm53.68 28.48-14.65 14.67v20.19l10.06 10.05h14.29l3.32 3.291c3.141 3.124 3.318 3.444 3.318 6.123 0 2.423 0.2866 3.148 2.008 5.057l2.006 2.229v24.54l15.22 15.72 25.72-25.19-0.6856-23.41 20.27-20.45h-8.008l-20.36-20.45v-8.342h-24.46l-3.893-4.025h-12.08zm-85.14 14.39c-2.536 0-2.96 0.2254-5.572 2.881l-2.826 2.879h11.15v-5.76zm-9.047 18.43-8.293 8.377v20.16l16.58 14.36 0.0684 18.46-6.312 6.256v26.46l2.14 2.144s2.09 0.1944 3.432 0.2912c0.1591-0.6649 0.1976-6.402 0.1976-6.402l26.33-24.18 0.0449-8.078 12.63-12.63v-3.197c0-3.112 0.0804-3.28 3.156-6.322l3.158-3.127v-16.08l-8.41-8.434h-16.6l-7.973-8.061zm169.1 29.29-7.461 6.693v12.96h7.461z" fill="#ebdbb2" opacity=".3" stroke-width="3.865"/>
  <path d="m19.844 30.343c-0.53146 0.63186-1.0469 1.2906-1.5412 1.9629h219.39c-0.49427-0.67234-1.0017-1.331-1.5332-1.9629z" fill="#d3869b" style="isolation:isolate"/>
  <path d="m10.106 50.854c-0.16031 0.63362-0.32326 1.3098-0.47259 1.9629h236.73c-0.14933-0.65313-0.31206-1.3293-0.47237-1.9629zm-3.2075 21.043c-0.05439 0.67216-0.10298 1.2763-0.15197 1.9629h242.51c-0.049-0.68657-0.098-1.2907-0.15239-1.9629zm-0.85902 20.51c-0.0084 0.6533-0.02027 1.2994-0.02609 1.9629h243.97c-6e-3 -0.66349-0.017-1.3096-0.0254-1.9629zm-0.039608 20.832v1.9629h244v-1.9629zm0 20.51v1.9629h244v-1.9629zm0 21.045v0.20703c0 0.61503-0.00204 1.1493 0 1.7559h244c2e-3 -0.60657-4e-5 -1.1408-4e-5 -1.7559v-0.20703zm0.48463 20.51c0.03561 0.6407 0.076042 1.3342 0.11595 1.9629h242.8c0.0399-0.62869 0.0804-1.3222 0.11595-1.9629zm2.4308 21.316c0.12949 0.66166 0.2648 1.3201 0.4045 1.9629h237.36c0.13971-0.64283 0.27501-1.3012 0.40451-1.9629zm7.4164 20.51c0.41465 0.66795 0.85105 1.3305 1.2967 1.9629h220.74c0.44561-0.63242 0.88203-1.2949 1.2967-1.9629z" fill="#83a598" style="isolation:isolate"/>
  <path d="m-217.25 1.573-6e-3 0.0021-4e-3 0.0043c-9.9798 5.5134-15.974 12.782-15.974 25.045 0 13.594 4.9645 28.363 13.127 35.168 4.9263 4.1312 8.3728-0.42831 6.4482-3.1584-6.6254-9.1285-9.092-19.717-9.3586-30.931 0-12.503 5.446-17.364 10.077-20.053 14.02-8.1388 41.309-3.8919 51.321-1.7615h2e-3l4e-3 0.0021c10.79 2.2651 32.731 8.273 55.602 22.67l0.0109 0.0064 0.0127 0.0064c41.409 25.476 43.622 43.764 43.622 53.286-1.7e-4 10.044-4.3774 16.625-14.183 21.1l-0.0424 0.0218c-15.567 6.8846-34.194 8.4898-50.791 5.8335-4.0114-0.98433-6.0655 5.6366-2.0265 6.7259 12.177 3.2854 37.752 2.344 55.691-4.3158l9e-3 -4e-3c13.264-4.7026 25.152-13.651 25.153-30.619-3.3e-4 -24.758-24.485-45.036-47.009-58.449l-0.0109-0.0064c-18.644-11.415-37.288-18.595-54.853-22.805-21.507-5.4643-47.648-8.2344-66.822 2.2321zm100.56 42.377c-3.3978 4.2368-9.0912 14.811-15.304 26.946-13.079 25.146-33.807 71.432-59.164 83.907-7.7435 1.9483-13.201 1.1712-19.181-4.7903-6.2332-5.6181-10.677-0.0129-6.3994 5.7762 7.6174 10.572 21.594 11.497 32.576 6.0201 15.57-7.5579 31.221-26.078 47.821-55.397l4e-3 -6e-3c17.07-29.953 27.947-58.551 27.942-60.166-6e-3 -2.5962-3.2364-8.5962-8.2945-2.2893z" fill="#282828" opacity=".2" stroke-linecap="round" stroke-width="1.0853"/>
  <path d="m-217.25-3.1157-6e-3 0.0021-4e-3 0.0043c-9.9798 5.5134-15.974 12.782-15.974 25.045 0 13.594 4.9645 28.363 13.128 35.168 4.9263 4.1312 8.3728-0.42831 6.4482-3.1584-6.6255-9.1285-9.092-19.717-9.3586-30.931 0-12.503 5.446-17.364 10.077-20.053 14.02-8.1388 41.309-3.8919 51.321-1.7615h2e-3l4e-3 0.0021c10.79 2.2651 32.731 8.273 55.602 22.67l0.0109 0.0064 0.0127 0.0064c41.409 25.476 43.622 43.764 43.622 53.286-1.7e-4 10.044-4.3774 16.625-14.183 21.1l-0.0424 0.0218c-15.567 6.8846-34.194 8.4898-50.791 5.8335-4.0114-0.98433-6.0655 5.6366-2.0265 6.7259 12.177 3.2854 37.752 2.344 55.691-4.3158l9e-3 -4e-3c13.264-4.7026 25.152-13.651 25.153-30.619-3.3e-4 -24.758-24.485-45.036-47.009-58.449l-0.0109-0.0064c-18.644-11.415-37.288-18.595-54.853-22.805-21.507-5.4643-47.648-8.2344-66.822 2.2321zm100.56 42.377c-3.3978 4.2368-9.0912 14.811-15.304 26.946-13.079 25.146-33.807 71.432-59.164 83.907-7.7435 1.9483-13.201 1.1712-19.181-4.7903-6.2332-5.6181-10.677-0.0129-6.3994 5.7762 7.6174 10.572 21.594 11.497 32.576 6.0201 15.57-7.5579 31.221-26.078 47.821-55.397l4e-3 -6e-3c17.07-29.953 27.947-58.551 27.942-60.166-6e-3 -2.5962-3.2364-8.5962-8.2945-2.2893z" fill="#282828" stroke-linecap="round" stroke-width="1.0853"/>
  <path d="m-184.71-10.206c-11.62-0.06726-22.95 1.8586-32.537 7.0918l-6e-3 2e-3 -4e-3 0.0039c-9.9798 5.5134-15.975 12.782-15.975 25.045 0 0.71938 0.0701 1.4492 0.0977 2.1738 0.77657-10.758 6.601-17.407 15.877-22.531l4e-3 -0.0039 6e-3 -2e-3c19.174-10.466 45.315-7.6967 66.822-2.2324 17.564 4.2103 36.21 11.39 54.854 22.805l0.01 0.0078c21.741 12.947 45.304 32.291 46.916 55.885 0.0431-0.70003 0.0937-1.3956 0.0937-2.125-3.3e-4 -24.758-24.486-45.036-47.01-58.449l-0.01-0.0059c-18.643-11.415-37.289-18.594-54.854-22.805-10.754-2.7321-22.665-4.7921-34.285-4.8594zm-38.205 35.229c-0.059 0.85672-0.0996 1.7407-0.0996 2.6816 0.25962 10.919 2.6369 21.234 8.877 30.197 1.0732-0.99787 1.39-2.6677 0.48242-3.9551-6.227-8.5796-8.7539-18.458-9.2598-28.924zm110.39 11.453c-1.181 0.04667-2.5834 0.81619-4.1641 2.7871-3.3978 4.2368-9.0915 14.81-15.305 26.945-13.079 25.146-33.808 71.433-59.164 83.908-7.7435 1.9483-13.201 1.1705-19.182-4.791-5.5192-4.9745-9.6224-1.1479-7.5234 3.8125 1.1773-1.8972 4.072-2.2339 7.5234 0.87696 5.9808 5.9616 11.438 6.7373 19.182 4.7891 25.356-12.475 46.085-58.76 59.164-83.906 6.2127-12.134 11.907-22.708 15.305-26.945 3.7358-4.6572 6.4639-2.5974 7.6426-0.1582 0.40159-1.1835 0.65296-2.0193 0.65235-2.2422-4e-3 -1.7849-1.5326-5.1788-4.1309-5.0762zm50.043 42.734c-0.57985 8.8859-4.9535 14.902-14.066 19.061l-0.043 0.0234c-15.567 6.8846-34.192 8.4884-50.789 5.832-3.4547-0.84773-5.4462 3.938-3.3555 5.9805 0.74416-0.99983 1.9148-1.6445 3.3555-1.291 16.597 2.6563 35.222 1.0506 50.789-5.834l0.0215-0.01 0.0215-0.0117c9.8057-4.4751 14.183-11.056 14.184-21.1-1e-5 -0.79289-0.0651-1.7368-0.11719-2.6504z" fill="#ebdbb2" opacity=".1" stroke-linecap="round" stroke-width="1.0853"/>
  <path d="m31.814 72.4c-1.8e-5 14.664 5.1324 29.663 13.848 36.721 4.8281 4.0646 8.8515 0.92527 5.1036-4.4805-3.7154-5.5794-8.9434-13.734-8.9434-31.111-1.42e-4 -33.585 46.394-27.004 64.584-23.133h2e-3l4e-3 2e-3c39.035 8.1943 104.01 42.147 104.01 79.74-4.5e-4 27.146-38.246 29.283-50.289 29.283-6.5402 3e-5 -12.392-0.58549-15.977-1.7399-4.7489-1.5293-5.4074-3.331-6.6064-4.6689-1.4962 0.7064-4.0926 1.8235-5.0652 2.5904 10.486-18.402 19.644-37.622 27.473-57.656l-0.0703 0.16406c0.88623-1.8643 0.73252-3.6934 0.43359-6.2539l-2e-3 -0.02148-4e-3 -0.02148c-0.0952-0.70691-0.14556-1.8466-0.57422-3.0977-0.10716-0.31276-0.23346-0.64952-0.5332-1.0703s-0.89329-1.035-1.8613-1.207-1.8618 0.25013-2.3301 0.625c-0.46832 0.37487-0.72129 0.73616-0.96093 1.1152l-0.14063 0.2207-0.0898 0.24805c-7.2797 19.684-19.508 43-36.693 69.857-12.142 18.992-22.197 32.567-30.893 40.584-9.1673 9.3305-21.456 12.11-31.055 2.5371-6.2438-5.6276-10.452-0.18072-6.1934 5.5898 5.1095 7.0368 16.565 14.561 33.229 6.4336 7.151-3.488 13.948-9.176 20.268-15.824 11.437-12.032 21.138-27.072 27.816-38.523 0.0261 6.821 18.753 7.5645 26.908 7.5645 16.689 2e-5 66.974-2.9147 66.975-38.045-4.5e-4 -40.2-64.593-74.629-106.21-84.609-52.349-13.307-86.16 1.5665-86.16 28.188z" fill="#ebdbb2" opacity=".2"/>
  <path d="m137.18 155.72c-2.9212 1.3792-4.3818 2.5704-4.3817 3.5733-6.3e-4 3.6546 15.016 5.078 24.412 5.0779 16.373 3e-5 64.474-2.7875 64.474-35.545-2.7e-4 -24.694-25.179-45.223-47.782-58.678-19.23-11.773-38.447-19.172-56.545-23.509-50.146-12.748-83.044 0.51526-83.044 25.766-1.7e-5 14.05 5.2611 28.591 12.937 34.793 1.8186 1.5373 3.8114 2.2623 1.4606-1.1284-6.2596-8.4003-9.3894-19.246-9.3894-32.536-1.52e-4 -36.307 48.189-29.709 67.604-25.577 11.473 2.4085 34.768 8.7882 59.049 24.073 43.145 26.544 46.947 46.269 46.947 58.114-4.6e-4 29.404-39.88 31.784-52.789 31.784-13.484 5e-5 -21.866-3.2679-22.952-6.2063m-76.367 57.737c26.782 9.2854 56.353-35.863 69.482-59.054 10.433-18.305 19.544-37.426 27.334-57.361 0.41716-0.87755 0.48673-2.5075 0.2086-4.8898-0.21106-1.5676-0.46287-4.5413-1.6692-2.633-7.3726 19.935-19.683 43.381-36.932 70.338-24.374 38.123-40.391 54.797-56.128 49.838-4.034-1.5046-7.2334-3.5734-9.5981-6.2063-4.0634-3.6624-4.7481-0.77737-2.5038 2.2568 2.3647 3.2599 5.6336 5.8302 9.8067 7.7108" fill="#282828"/>
  <path d="m91 12c-72 0-85 15-85 87v56c0 70 13 85 85 85h74c72 0 85-15 85-85v-56c0-72-13-87-85-87zm0 4h74c68 0 80 15 80 83v56c0 66-12 81-80 81h-74c-68 0-80-15-80-81v-56c0-68 12-83 80-83z" fill="url(#linearGradient31)" style="isolation:isolate"/>
</svg>
