<svg width="256" height="256" version="1.1" xmlns="http://www.w3.org/2000/svg">
  <defs>
    <linearGradient id="linearGradient10" x1="128" x2="128" y1="12" y2="240" gradientUnits="userSpaceOnUse">
      <stop stop-color="#ebdbb2" stop-opacity=".2" offset="0"/>
      <stop stop-color="#ebdbb2" stop-opacity="0" offset=".24921"/>
      <stop stop-color="#1d2021" stop-opacity=".05" offset=".50485"/>
      <stop stop-color="#1d2021" stop-opacity=".15" offset=".75285"/>
      <stop stop-color="#1d2021" stop-opacity=".25" offset="1"/>
    </linearGradient>
    <linearGradient id="linearGradient15" x1="128" x2="128" y1="12" y2="240" gradientUnits="userSpaceOnUse">
      <stop stop-color="#458588" offset="0"/>
      <stop stop-color="#076678" offset="1"/>
    </linearGradient>
  </defs>
  <path d="m165 12c72 0 85 15 85 87v56c0 70-13 85-85 85h-74c-72 0-85-15-85-85v-56c0-72 13-87 85-87z" fill="url(#linearGradient15)" style="isolation:isolate"/>
  <path d="m169.83 48.17c-16.095 0.22351-29.91 10.376-42.3 19.58-11.812-8.8829-24.199-17.264-39.148-19.381-6.215-0.6728-11.942 0.47422-16.84 4.6611-0.46467 0.39691-1.2085 0.64889-1.8233 0.65373-6.8926 0.06293-12.843 4.3811-14.847 10.853-2.0426 6.5974 0.31085 13.654 6.1386 17.377 1.8054 1.152 2.5224 2.3672 2.7547 4.4098 0.3485 3.0543 1.1032 6.0587 1.6986 9.1711-1.0165 0.4308-2.0389 0.84325-3.0457 1.2886-8.756 3.8827-27.065 13.123-27.719 28.713-0.59822 14.161 12.75 23.77 26.089 29.807 2.091 0.94386 4.2263 1.7946 6.3899 2.7094-1.516 5.6701-2.6247 11.422-3.1817 17.267-2.0038 23.809 10.215 33.593 24.061 32.677 1.1859-0.0775 2.0526 0.22196 2.9626 1.0448 6.3941 5.7648 16.583 4.8928 22.009-1.8062 2.0039-2.4782 3.1031-5.2991 3.5048-8.455 0.11134-0.87609 0.45043-1.9935 1.0845-2.4921 2.8994-2.2895 5.9674-4.3615 8.9103-6.5977 0.75993-0.58087 1.1999-0.48958 1.8969 0.0283 10.964 8.6472 23.056 15.987 37.058 18.136 17.372 2.0919 32.34-12.499 22.561-48.62-0.25654-0.94871-0.0679-1.3263 0.82755-1.6022 0.97291-0.3001 1.8734-0.82443 2.8511-1.0713 0.52275-0.13069 1.2678-0.0618 1.6986 0.22862 5.426 3.7029 12.11 3.8482 17.473 0.30986 5.3292-3.5092 7.9294-9.8022 6.5354-16.177-0.31946-1.4473-0.14128-2.5021 0.62349-3.809 11.231-19.226-9.6728-32.641-15.208-35.76-4.2789-2.4153-8.7814-4.4394-13.22-6.6563 2.202-10.37 3.579-20.953 0.48935-31.292-4.5204-13.41-15.515-15.114-20.286-15.194zm-44.584 21.584c-0.43564 0.40659-0.82221 0.76388-1.1998 1.1317-4.6225 4.5209-9.3174 8.9741-13.819 13.611-1.2391 1.273-2.6086 1.4608-4.0848 1.606-17.945 1.7412-29.017 5.7836-30.873 5.8911-0.49855-2.638-0.99134-5.2752-1.4851-7.8938 11.046-3.3592 15.333-17.338 6.1707-26.423l0.0038-0.0057c13.603-10.921 38.262 6.6292 45.287 12.083zm38.995-15.497c1.2437 0.0205 2.4986 0.14138 3.7655 0.37977 13.497 2.5446 13.998 17.723 13.401 25.174-0.30978 3.8868-0.98662 7.7445-1.5191 11.777-11.165-3.1136-28.442-5.5052-32.116-5.74-1.3408-0.08712-2.3322-0.64016-3.3196-1.6324-4.5209-4.5548-9.1545-8.9978-13.753-13.475-0.29042-0.28073-0.63283-0.51342-1.1072-0.88612 8.7744-6.8295 22.622-15.795 34.648-15.597zm-36.698 17.719c0.19207-0.0069 0.35863 0.02194 0.44211 0.09636 4.6951 4.1917 9.3421 8.4406 13.998 12.676-0.10649 0.12585-0.20821 0.24636-0.30986 0.37221l6e-3 0.0057h-28.499c0.12101-0.18877 0.23586-0.47523 0.444-0.66884 4.3321-4.0804 8.6592-8.1591 13.035-12.196 0.17547-0.16336 0.56413-0.2739 0.88423-0.2853zm16.247 15.967c0.61472 0.03873 1.307 0.61973 1.7571 1.128 7.3863 8.306 14.022 17.178 19.884 26.621 0.85675 1.3746 1.6412 2.7884 2.5318 4.134 0.49372 0.74541 0.52231 1.3513 0.0964 2.1596-6.215 11.81-13.549 22.869-21.947 33.242-0.92451 1.1472-1.9882 1.4043-3.2176 1.4624-10.662 0.88571-21.319 0.59224-31.98-0.0283-0.65344-0.0387-1.4241-0.61501-1.8743-1.162-5.4308-6.607-10.484-13.499-14.913-20.823-2.5073-4.1482-4.82-8.4075-7.2401-12.604-0.46468-0.80834-0.43703-1.4671 0.05668-2.2899 6.5829-11.017 14.028-21.399 22.629-30.935 0.45499-0.5034 1.2965-0.87657 1.9838-0.92013 10.826-0.79043 21.406-0.68102 32.233 0.01512zm-37.402 0.40622c-7.8844 9.4071-14.72 19.569-21.573 29.728-1.5052-3.4894-3.1026-6.8619-4.4287-10.337-1.4666-3.8287-2.6715-7.7586-4.0074-11.64-0.3243-0.9487-0.22786-1.4483 0.91446-1.7968 9.4463-3.1287 19.291-4.5144 29.095-5.9535zm43.036 0.20028c5.8681 0.13346 25.398 4.2296 29.255 6.1991-0.13553 2.9913-6.0313 18.698-8.7951 23.296-6.3941-10.412-13.428-20.237-21.448-29.463l6e-3 -0.0038c0.26108-0.02813 0.59128-0.03723 0.98248-0.02834zm-21.87 6.0819c-14.991-0.09681-27.536 12.213-27.638 27.116-0.10648 15.373 12.063 27.857 27.247 27.953 15.233 0.0968 27.676-12.11 27.797-27.275 0.12586-15.262-12.134-27.698-27.406-27.795zm60.955 3.7618c6.186 2.8509 11.888 6.1232 16.559 10.949 4.6102 4.7607 8.6995 12.041 3.6541 20.643-0.3243-0.0823-0.67789-0.13971-1.007-0.26074-10.111-3.7319-20.817 3.8196-20.696 14.609 0.0193 1.6748-0.868 2.7544-2.6622 3.2384-2.3112-6.0638-5.2166-11.869-7.9335-17.755-0.20324-0.43564-0.34016-1.1132-0.1417-1.4907 4.9759-9.5645 9.1835-19.435 12.228-29.934zm-122.42 0.2853c2.396 6.215 4.647 12.366 7.1494 18.412 1.5344 3.7077 3.4742 7.2372 5.1731 10.877 0.23234 0.50339 0.33956 1.2731 0.12659 1.7571-1.6949 3.8842-7.2775 16.477-8.1905 18.355-14.949-6.1793-26.961-14.557-27.067-25.539-0.11283-11.537 14.85-20.809 22.809-23.863zm14.129 33.238c5.0291 7.7978 9.8019 15.19 14.662 22.722-7.3137-1.2585-14.43-2.9765-21.749-5.5661 2.3621-5.7164 4.6814-11.328 7.0871-17.156zm94.405 0.0491c2.3014 5.1673 4.4225 10.404 6.473 15.672 0.29526 0.74057 0.24565 1.2052-0.61594 1.4473-6.7296 1.9054-13.409 3.9619-20.275 5.3054 4.8594-7.5554 9.5826-14.908 14.418-22.425zm9.8116 27.271c2.8723 13.965 4.5937 37.415-16.433 36.84-15.319-0.41889-32.064-14.29-32.124-14.343 4.8205-4.6566 9.2672-9.6739 13.844-14.565 0.3485-0.36786 0.86143-0.74978 1.3358-0.80299 11.075-1.2827 21.95-3.4844 32.569-6.9114 0.21213-0.0675 0.42435-0.11645 0.80866-0.21728zm-113.89 0.13986c10.785 3.3465 21.894 5.0994 32.996 6.9548 0.54696 0.092 1.1804 0.32991 1.5531 0.7123 8.9546 9.2493 13.53 14.082 13.995 14.773-2.2943 1.607-4.5508 3.1841-6.8112 4.7669-4.85-4.3224-10.276-5.8947-16.375-3.673-6.0262 2.1927-9.2442 6.786-10.169 13.035-4.3853 0.71154-10.601-2.2414-13.093-6.0895-3.0591-4.7242-4.1051-10.009-3.8921-15.474 0.14167-3.6088 1.2158-13.259 1.7968-15.002zm49.167 8.2037h15.387c-6.986 6.8932-4.0245 3.7179-6.6979 6.4334-0.69701 0.71151-1.2009 0.76951-1.9366 0.0434-2.1249-2.0959-4.3083-4.1333-6.7527-6.4711z" fill="#282828" opacity=".2" stroke-width="0"/>
  <path d="m169.83 43.673c-16.095 0.22351-29.91 10.376-42.3 19.58-11.812-8.8829-24.199-17.264-39.148-19.381-6.215-0.6728-11.942 0.47422-16.84 4.6611-0.46467 0.39691-1.2085 0.64889-1.8233 0.65373-6.8926 0.06293-12.843 4.3811-14.847 10.853-2.0426 6.5974 0.31085 13.654 6.1386 17.377 1.8054 1.152 2.5224 2.3672 2.7547 4.4098 0.3485 3.0543 1.1032 6.0587 1.6986 9.1711-1.0165 0.4308-2.0389 0.84325-3.0457 1.2886-8.756 3.8827-27.065 13.123-27.719 28.713-0.59822 14.161 12.75 23.77 26.089 29.807 2.091 0.94386 4.2263 1.7946 6.3899 2.7094-1.516 5.6701-2.6247 11.422-3.1817 17.267-2.0038 23.809 10.215 33.593 24.061 32.677 1.1859-0.0775 2.0526 0.22196 2.9626 1.0448 6.3941 5.7648 16.583 4.8928 22.009-1.8062 2.0039-2.4782 3.1031-5.2991 3.5048-8.455 0.11134-0.87609 0.45043-1.9935 1.0845-2.4921 2.8994-2.2895 5.9674-4.3615 8.9103-6.5977 0.75993-0.58087 1.1999-0.48958 1.8969 0.0283 10.964 8.6472 23.056 15.987 37.058 18.136 17.372 2.0919 32.34-12.499 22.561-48.62-0.25654-0.94871-0.0679-1.3263 0.82755-1.6022 0.97291-0.3001 1.8734-0.82443 2.8511-1.0713 0.52275-0.13069 1.2678-0.0618 1.6986 0.22862 5.426 3.7029 12.11 3.8482 17.473 0.30986 5.3292-3.5092 7.9294-9.8022 6.5354-16.177-0.31946-1.4473-0.14128-2.5021 0.62349-3.809 11.231-19.226-9.6728-32.641-15.208-35.76-4.2789-2.4153-8.7814-4.4394-13.22-6.6563 2.202-10.37 3.579-20.953 0.48935-31.292-4.5204-13.41-15.515-15.114-20.286-15.194zm-44.584 21.584c-0.43564 0.40659-0.82221 0.76388-1.1998 1.1317-4.6225 4.5209-9.3174 8.9741-13.819 13.611-1.2391 1.273-2.6086 1.4608-4.0848 1.606-17.945 1.7412-29.017 5.7836-30.873 5.8911-0.49855-2.638-0.99134-5.2752-1.4851-7.8938 11.046-3.3592 15.333-17.338 6.1707-26.423l0.0038-0.0057c13.603-10.921 38.262 6.6292 45.287 12.083zm38.995-15.497c1.2437 0.0205 2.4986 0.14138 3.7655 0.37977 13.497 2.5446 13.998 17.723 13.401 25.174-0.30978 3.8868-0.98662 7.7445-1.5191 11.777-11.165-3.1136-28.442-5.5052-32.116-5.74-1.3408-0.08712-2.3322-0.64016-3.3196-1.6324-4.5209-4.5548-9.1545-8.9978-13.753-13.475-0.29042-0.28073-0.63283-0.51342-1.1072-0.88612 8.7744-6.8295 22.622-15.795 34.648-15.597zm-36.698 17.719c0.19207-0.0069 0.35863 0.02194 0.44211 0.09636 4.6951 4.1917 9.3421 8.4406 13.998 12.676-0.10649 0.12585-0.20821 0.24636-0.30986 0.37221l6e-3 0.0057h-28.499c0.12101-0.18877 0.23586-0.47523 0.444-0.66884 4.3321-4.0804 8.6592-8.1591 13.035-12.196 0.17547-0.16336 0.56413-0.2739 0.88423-0.2853zm16.247 15.967c0.61472 0.03873 1.307 0.61973 1.7571 1.128 7.3863 8.306 14.022 17.178 19.884 26.621 0.85675 1.3746 1.6412 2.7884 2.5318 4.134 0.49372 0.74541 0.52231 1.3513 0.0964 2.1596-6.215 11.81-13.549 22.869-21.947 33.242-0.92451 1.1472-1.9882 1.4043-3.2176 1.4624-10.662 0.88571-21.319 0.59224-31.98-0.0283-0.65344-0.0387-1.4241-0.61501-1.8743-1.162-5.4308-6.607-10.484-13.499-14.913-20.823-2.5073-4.1482-4.82-8.4075-7.2401-12.604-0.46468-0.80834-0.43703-1.4671 0.05668-2.2899 6.5829-11.017 14.028-21.399 22.629-30.935 0.45499-0.5034 1.2965-0.87657 1.9838-0.92013 10.826-0.79043 21.406-0.68102 32.233 0.01512zm-37.402 0.40622c-7.8844 9.4071-14.72 19.569-21.573 29.728-1.5052-3.4894-3.1026-6.8619-4.4287-10.337-1.4666-3.8287-2.6715-7.7586-4.0074-11.64-0.3243-0.9487-0.22786-1.4483 0.91446-1.7968 9.4463-3.1287 19.291-4.5144 29.095-5.9535zm43.036 0.20028c5.8681 0.13346 25.398 4.2296 29.255 6.1991-0.13553 2.9913-6.0313 18.698-8.7951 23.296-6.3941-10.412-13.428-20.237-21.448-29.463l6e-3 -0.0038c0.26108-0.02813 0.59128-0.03723 0.98248-0.02834zm-21.87 6.0819c-14.991-0.09681-27.536 12.213-27.638 27.116-0.10648 15.373 12.063 27.857 27.247 27.953 15.233 0.0968 27.676-12.11 27.797-27.275 0.12586-15.262-12.134-27.698-27.406-27.795zm60.955 3.7618c6.186 2.851 11.888 6.1232 16.559 10.949 4.6102 4.7607 8.6995 12.041 3.6541 20.643-0.3243-0.0823-0.67789-0.13971-1.007-0.26074-10.111-3.7319-20.817 3.8196-20.696 14.609 0.0193 1.6748-0.868 2.7544-2.6622 3.2384-2.3112-6.0638-5.2166-11.869-7.9335-17.755-0.20324-0.43564-0.34016-1.1132-0.1417-1.4907 4.9759-9.5645 9.1835-19.435 12.228-29.934zm-122.42 0.2853c2.396 6.215 4.647 12.366 7.1494 18.412 1.5344 3.7077 3.4742 7.2372 5.1731 10.877 0.23234 0.50339 0.33956 1.2731 0.12659 1.7571-1.6949 3.8842-7.2775 16.477-8.1905 18.355-14.949-6.1793-26.961-14.557-27.067-25.539-0.11283-11.537 14.85-20.809 22.809-23.863zm14.129 33.238c5.0291 7.7978 9.8019 15.19 14.662 22.722-7.3137-1.2585-14.43-2.9765-21.749-5.5661 2.3621-5.7164 4.6814-11.328 7.0871-17.156zm94.405 0.0491c2.3014 5.1673 4.4225 10.404 6.473 15.672 0.29526 0.74057 0.24565 1.2052-0.61594 1.4473-6.7296 1.9054-13.409 3.9619-20.275 5.3054 4.8594-7.5554 9.5826-14.908 14.418-22.425zm9.8116 27.271c2.8723 13.965 4.5937 37.415-16.433 36.84-15.319-0.41889-32.064-14.29-32.124-14.343 4.8205-4.6566 9.2672-9.6739 13.844-14.565 0.3485-0.36786 0.86143-0.74978 1.3358-0.80299 11.075-1.2827 21.95-3.4844 32.569-6.9114 0.21213-0.0675 0.42435-0.11645 0.80866-0.21728zm-113.89 0.13986c10.785 3.3465 21.894 5.0994 32.996 6.9548 0.54696 0.092 1.1804 0.32991 1.5531 0.7123 8.9546 9.2493 13.53 14.082 13.995 14.773-2.2943 1.607-4.5508 3.1841-6.8112 4.7669-4.85-4.3224-10.276-5.8947-16.375-3.673-6.0262 2.1927-9.2442 6.786-10.169 13.035-4.3853 0.71154-10.601-2.2414-13.093-6.0895-3.0591-4.7242-4.1051-10.009-3.8921-15.474 0.14167-3.6088 1.2158-13.259 1.7968-15.002zm49.167 8.2037h15.387c-6.986 6.8932-4.0245 3.7179-6.6979 6.4334-0.69701 0.71151-1.2009 0.76951-1.9366 0.0434-2.1249-2.0959-4.3083-4.1333-6.7527-6.4711z" fill="#ebdbb2" stroke-width="0"/>
  <path d="m169.83 43.671c-16.095 0.22351-29.909 10.376-42.299 19.58-11.812-8.8829-24.2-17.264-39.148-19.381-6.215-0.6728-11.941 0.47327-16.84 4.6602-0.46467 0.39691-1.2095 0.64946-1.8242 0.6543-6.8926 0.06293-12.842 4.382-14.846 10.854-0.72021 2.3262-0.89493 4.7083-0.5625 6.9824 0.11976-0.83103 0.30736-1.6622 0.5625-2.4863 2.0039-6.4715 7.9531-10.789 14.846-10.852 0.61472-0.0048 1.3595-0.25739 1.8242-0.6543 4.8984-4.1869 10.625-5.333 16.84-4.6602 3.3506 0.47449 6.5719 1.2637 9.6875 2.3027 11.274 2.8766 22.741 11.143 27.176 14.586-0.1635 0.1526-0.3189 0.29757-0.4707 0.43945 0.81967 0.60346 1.6358 1.2117 2.4492 1.8223 0.10699-0.02245 0.21606-0.03725 0.31836-0.04102h2e-3c0.1169-4e-3 0.22575 0.0046 0.31055 0.0293 0.76519-0.56828 1.5362-1.1387 2.3125-1.7109-0.16877-0.12935-0.35833-0.26983-0.57422-0.43945 6.4236-4.9998 15.566-11.144 24.723-14 4.9345-1.911 10.095-3.1122 15.514-3.1875 4.7715 0.08057 15.767 1.7848 20.287 15.195 1.0691 3.5775 1.6035 7.1838 1.7539 10.801 0.20043-5.1222-0.24211-10.24-1.7539-15.299-4.5205-13.41-15.516-15.115-20.287-15.195zm-87.482 12.424c-0.8271 0.44043-1.626 0.96391-2.3887 1.5762l-0.0039 0.0059c2.7962 2.7725 4.3411 6.0011 4.8223 9.2441 0.52891-3.5773-0.18893-7.3997-2.4297-10.826zm40.271 11.686c-4.1581 4.0459-8.352 8.0585-12.391 12.219-1.2391 1.273-2.6096 1.4603-4.0859 1.6055-17.945 1.7412-29.017 5.7831-30.873 5.8906-0.23077-1.2211-0.46049-2.4412-0.68945-3.6602-0.26118 0.0943-0.52561 0.18177-0.79492 0.26367 0.49371 2.6186 0.98582 5.2565 1.4844 7.8945 0.23848-0.01381 0.63001-0.0921 1.168-0.22266-0.01927-0.05617-0.03927-0.11377-0.05859-0.16992-0.3243-0.9487-0.2263-1.4464 0.91602-1.7949 9.4463-3.1287 19.29-4.516 29.094-5.9551-0.67457 0.80485-1.3421 1.6162-2.002 2.4316 0.57764-0.06231 1.1631-0.12217 1.7559-0.17969 0.77726-0.07645 1.5256-0.16575 2.2402-0.41797 0.39481-0.44684 0.79163-0.89079 1.1914-1.334 0.38373-0.42456 1.0431-0.75726 1.6523-0.87695 0.93785-0.95498 1.8816-1.9027 2.832-2.8457h-0.87695c0.12101-0.18877 0.23522-0.47436 0.44336-0.66797 3.7321-3.5152 7.4599-7.0305 11.219-10.518-0.63106-0.48464-1.3772-1.046-2.2246-1.6621zm9.6856 0.02148c-0.76457 0.56272-1.5025 1.1178-2.209 1.6621 3.9796 3.5761 7.9308 7.1872 11.889 10.787-0.1065 0.12585-0.2089 0.24524-0.31055 0.37109l6e-3 0.0059h-0.82617c0.94639 0.9331 1.8894 1.8699 2.8281 2.8105 0.0367 0.0023 0.0727 0.0035 0.10938 0.0059 0.61472 0.03873 1.3077 0.62068 1.7578 1.1289 0.29335 0.32988 0.58401 0.66052 0.875 0.99219 0.41414 0.15546 0.85878 0.24936 1.3496 0.28125 0.52896 0.03381 1.3407 0.11346 2.375 0.23242-0.56532-0.66797-1.1356-1.3343-1.7109-1.9961l6e-3 -0.0039c0.26108-0.02813 0.59122-0.03623 0.98242-0.02734 5.8681 0.13346 25.397 4.2298 29.254 6.1992-0.011 0.24352-0.06 0.57151-0.14258 0.9707 0.45936 0.12077 0.91009 0.24212 1.3516 0.36524 0.53244-4.032 1.2098-7.8906 1.5195-11.777 0.13528-1.6885 0.2137-3.7722 0.0977-6.0176-0.0261 0.53552-0.0594 1.0441-0.0977 1.5215-0.30978 3.8868-0.98709 7.7434-1.5195 11.775-11.165-3.1136-28.442-5.5035-32.115-5.7383-1.3408-0.08712-2.3329-0.64054-3.3203-1.6328-3.9958-4.0258-8.0787-7.964-12.148-11.916zm-14.613 12.826c-0.91518 0.86054-1.8295 1.7226-2.7441 2.584 8.5015-0.47763 16.882-0.41613 25.383 0.03125-0.95735-0.8715-1.9135-1.7439-2.8711-2.6152zm-11.66 7.7734c-1.2566 0.1843-2.5127 0.36764-3.7695 0.55469-6.1976 7.9297-11.816 16.278-17.445 24.623-1.5052-3.4894-3.1036-6.863-4.4297-10.338-1.1272-2.9425-2.0995-5.9432-3.0957-8.9375-1.1395 0.34846-1.2361 0.84705-0.91211 1.7949 1.3359 3.8819 2.5412 7.8119 4.0078 11.641 1.3261 3.4749 2.9245 6.8485 4.4297 10.338 1.4481-2.1467 2.8949-4.2937 4.3516-6.4336 5.0778-8.1462 10.657-15.924 16.863-23.242zm42.957 0.14453c5.3753 6.3797 10.324 13.081 14.836 20.104 2.0867 3.0764 4.1036 6.208 6.0606 9.3945 2.7638-4.5983 8.6594-20.306 8.7949-23.297-0.26019-0.13285-0.59056-0.27545-0.98438-0.42578-1.8217 5.8751-5.716 15.74-7.8105 19.225-5.3172-8.658-11.077-16.91-17.479-24.75-1.1882-0.14253-2.2033-0.22842-2.9805-0.24609-0.15557-0.0035-0.30173-0.0061-0.4375-0.0039zm-21.434 1.5879c-14.991-0.09681-27.535 12.212-27.637 27.115-0.0058 0.8362 0.02448 1.6648 0.08984 2.4824 1.1575-13.981 13.238-25.194 27.547-25.102 14.435 0.0915 26.179 11.209 27.316 25.314 0.0538-0.66549 0.0844-1.3375 0.0898-2.0156 0.12586-15.262-12.135-27.698-27.406-27.795zm62.889 0.42969c-0.23892 1.2946-0.49736 2.586-0.76953 3.875 2.098 0.99659 4.1337 2.0512 6.0879 3.209 2.3967 1.1685 4.7745 2.3593 7.0859 3.6641 4.1402 2.3332 16.88 10.428 18.336 22.406 1.7398-14.441-13.697-24.29-18.336-26.904-4.0169-2.2674-8.2311-4.189-12.404-6.25zm-125.83 0.78711c-0.73556 0.30673-1.4718 0.61187-2.1992 0.93359-8.756 3.8827-27.064 13.123-27.719 28.713-0.04563 1.0802-0.0089 2.1325 0.10156 3.1602 1.1775-10.849 10.921-18.488 19.385-23.275 3.7919-2.8592 7.8918-5.0555 11.086-6.373-0.21378-1.0612-0.43994-2.1121-0.6543-3.1582zm22.947 27.402c-0.20717 0.34264-0.41366 0.68541-0.61914 1.0293-0.49371 0.82286-0.52132 1.4807-0.05664 2.2891 2.4202 4.1966 4.7329 8.4573 7.2402 12.605 4.4289 7.3234 9.4813 14.215 14.912 20.822 0.45016 0.54696 1.2216 1.1234 1.875 1.1621 10.661 0.62054 21.317 0.915 31.979 0.0293 1.2294-0.058 2.2942-0.31573 3.2188-1.4629 8.398-10.373 15.732-21.432 21.947-33.242 0.42591-0.80831 0.39606-1.4148-0.0977-2.1602-0.21373-0.32291-0.42104-0.64924-0.625-0.97851-6.0587 11.301-13.149 21.909-21.225 31.883-0.92451 1.1472-1.9893 1.4048-3.2188 1.4629-10.662 0.88571-21.318 0.59124-31.979-0.0293-0.65344-0.0387-1.4248-0.61319-1.875-1.1602-5.4308-6.607-10.483-13.501-14.912-20.824-2.2731-3.7607-4.3862-7.612-6.5645-11.426zm123.29 1.0234c-0.29883 1.824-0.97633 3.7325-2.1367 5.7109-0.3243-0.0823-0.67672-0.13873-1.0059-0.25976-10.111-3.7319-20.818 3.8183-20.697 14.607 0.0193 1.6748-0.86796 2.7543-2.6621 3.2383-2.1231-5.5701-4.7465-10.922-7.2656-16.318-0.2672 0.52442-0.53675 1.0478-0.8086 1.5703-0.19846 0.37757-0.0626 1.0566 0.14063 1.4922 2.7169 5.8858 5.6223 11.69 7.9336 17.754 1.7942-0.48404 2.6814-1.5635 2.6621-3.2383-0.12102-10.789 10.586-18.341 20.697-14.609 0.32914 0.12104 0.68156 0.17942 1.0059 0.26173 2.1556-3.6752 2.6441-7.1098 2.1367-10.209zm-167.39 0.44141c-0.12496 0.76274-0.18736 1.5373-0.17969 2.3223 0.10611 10.982 12.117 19.36 27.066 25.539 0.91295-1.8781 6.4965-14.471 8.1914-18.355 0.21297-0.48404 0.10538-1.2525-0.12695-1.7559-0.18366-0.39348-0.37013-0.78649-0.55859-1.1777-2.1761 4.9497-6.6929 15.12-7.5059 16.793-13.946-5.7647-25.335-13.444-26.887-23.365zm174.21 17.588c-0.43703 0.99544-0.50387 1.9083-0.24609 3.0762 0.0842 0.38493 0.15366 0.76862 0.20898 1.1524 0.20158-1.3744 0.21929-2.794 0.0371-4.2285zm-37.717 6.9297c-5.4546 1.5509-10.879 3.1859-16.402 4.4453-1.1112 1.7284-2.2269 3.4635-3.3496 5.209 6.8663-1.3435 13.546-3.3992 20.275-5.3047 0.86158-0.24202 0.91049-0.7067 0.61523-1.4473-0.37693-0.96835-0.75629-1.9363-1.1387-2.9023zm-105.2 0.40038c-0.5408 1.3087-1.0832 2.6196-1.627 3.9356 7.3186 2.5896 14.436 4.3079 21.75 5.5664-1.0997-1.7044-2.1962-3.4012-3.291-5.0976-5.6314-1.0902-11.179-2.4951-16.832-4.4043zm-8.5977 12.449c-1.0001 4.3477-1.7438 8.7447-2.168 13.195-0.21518 2.5568-0.26522 4.952-0.16797 7.1894 0.03569-0.87663 0.0907-1.7752 0.16797-2.6934 0.55701-5.8449 1.6657-11.596 3.1816-17.266-0.33852-0.14313-0.6766-0.28519-1.0137-0.42578zm122.63 0.0312c-0.82731 0.27395-0.9988 0.65608-0.75 1.5762 1.8734 6.9198 2.8387 13.05 3.0527 18.424 0.24057-5.6664-0.44694-12.316-2.3027-20zm-69.08 9.9629v6e-3c2.4444 2.3379 4.6271 4.3768 6.752 6.4726 0.73573 0.72611 1.2405 0.66659 1.9375-0.0449 2.6733-2.7154-0.2887 0.45958 6.6973-6.4336h-4.6465c-0.85991 0.78383-0.47102 0.33285-2.0508 1.9375-0.69701 0.71151-1.2018 0.76908-1.9375 0.043-0.67106-0.66189-1.348-1.319-2.0371-1.9805zm66.373 4.3418c-0.47822 10.539-4.6146 20.026-18.082 19.658-11.73-0.32074-24.295-8.5282-29.566-12.381-0.84246 0.85455-1.695 1.701-2.5586 2.5352 0.0601 0.0534 16.806 13.925 32.125 14.344 15.367 0.4202 18.585-11.993 18.082-24.156zm-117.29 1.5215c-0.02146 0.34503-0.03787 0.66028-0.04883 0.93945-0.21298 5.4648 0.83348 10.75 3.8926 15.475 2.4928 3.8481 8.7084 6.7994 13.094 6.0879 0.9245-6.2489 4.1418-10.841 10.168-13.033 6.0988-2.2217 11.525-0.65054 16.375 3.6719 2.2604-1.5828 4.5162-3.1586 6.8105-4.7656-0.18294-0.27206-1.0031-1.1871-2.4785-2.7617-1.4496 1.0143-2.8901 2.0216-4.332 3.0312-4.85-4.3224-10.276-5.8955-16.375-3.6738-6.0262 2.1927-9.2435 6.7863-10.168 13.035-4.3853 0.71154-10.601-2.2418-13.094-6.0898-2.3897-3.6904-3.5515-7.7228-3.8438-11.916z" fill="#fbf1c7" opacity=".6" stroke-width="0"/>
  <path d="m91 12c-72 0-85 15-85 87v56c0 70 13 85 85 85h74c72 0 85-15 85-85v-56c0-72-13-87-85-87zm0 5h74c35.653 0 55.307 3.9448 65.895 14.965 10.588 11.02 14.105 31.336 14.105 67.035v56c0 34.69-3.4936 54.457-14.07 65.25-10.577 10.793-30.277 14.75-65.93 14.75h-74c-35.653 0-55.353-3.9574-65.93-14.75-10.577-10.793-14.07-30.56-14.07-65.25v-56c0-35.699 3.5176-56.015 14.105-67.035 10.588-11.02 30.242-14.965 65.895-14.965z" fill="url(#linearGradient10)" style="isolation:isolate"/>
</svg>
