<svg width="256" height="256" version="1.1" xmlns="http://www.w3.org/2000/svg">
  <defs>
    <linearGradient id="linearGradient31" x1=".5002" x2=".5002" y2="1" gradientTransform="matrix(244,0,0,228,5.986,12)" gradientUnits="userSpaceOnUse">
      <stop stop-color="#ebdbb2" stop-opacity=".2" offset="0"/>
      <stop stop-color="#ebdbb2" stop-opacity=".05" offset=".1"/>
      <stop stop-opacity="0" offset=".7036"/>
      <stop stop-opacity=".1" offset=".8975"/>
      <stop stop-opacity=".2" offset="1"/>
    </linearGradient>
    <linearGradient id="linearGradient6" x1="140" x2="140" y1="12" y2="240" gradientUnits="userSpaceOnUse">
      <stop stop-color="#3c3836" offset="0"/>
      <stop stop-color="#3c3836" offset="1"/>
    </linearGradient>
  </defs>
  <path d="m165 12c72 0 85 15 85 87v56c0 70-13 85-85 85h-74c-72 0-85-15-85-85v-56c0-72 13-87 85-87z" fill="url(#linearGradient6)" style="isolation:isolate"/>
  <path class="ColorScheme-Text" d="m156.7 53.19c-10.71-0.1231-21.04 5.557-27.15 14.26-20.33 26.05-40.72 52.06-61.02 78.13-9.168 12.31-8.815 30.61 0.7763 42.58 3.324 4.172 7.628 7.433 11.84 10.65 10.82 7.488 26.15 7.314 36.83-0.3466 6.397-4.373 10.33-11.24 15.22-17.07 11.43-14.71 23-29.31 34.36-44.07 6.348-9.174 4.404-22.94-4.428-29.84-4.624-4.431-11.08-7.109-17.52-6.247-6.446 0.6176-12.04 4.659-15.62 9.902-13.43 17.22-26.95 34.39-40.32 51.65-3.247 4.692 0.05401 12.11 5.857 12.44 3.477 0.4502 6.291-1.997 8.076-4.705 13.47-17.21 26.87-34.47 40.4-51.64 2.28-2.51 6.331-2.002 8.466 0.4006 2.69 1.718 4.239 5.297 2.623 8.277-3.904 5.402-8.185 10.54-12.23 15.84-10.11 12.91-20.16 25.87-30.31 38.74-5.562 6.687-16.25 8.072-23.28 2.885-4.134-3.335-8.821-6.598-10.6-11.87-2.64-6.689-0.9804-14.62 3.848-19.89 20.31-25.97 40.56-51.97 60.91-77.9 5.554-6.698 16.25-8.1 23.28-2.905 4.16 3.366 8.874 6.673 10.63 12 2.429 6.318 1.109 13.8-3.224 18.99-3.274 4.692 0.0433 12.12 5.847 12.46 3.739 0.4707 6.754-2.326 8.448-5.365 8.619-12.85 7.334-31.32-3.066-42.79-3.335-3.528-7.147-6.619-11.1-9.427-5.205-3.322-11.36-5.15-17.53-5.143z" color="#ebdbb2" fill="#282828" opacity=".5" stroke-width="10.8"/>
  <path class="ColorScheme-Text" d="m156.7 48.47c-10.71-0.1231-21.04 5.557-27.15 14.26-20.33 26.05-40.72 52.06-61.02 78.13-9.168 12.31-8.815 30.61 0.7763 42.58 3.324 4.172 7.628 7.433 11.84 10.65 10.82 7.488 26.15 7.314 36.83-0.3466 6.397-4.373 10.33-11.24 15.22-17.07 11.43-14.71 23-29.31 34.36-44.07 6.348-9.174 4.404-22.94-4.428-29.84-4.624-4.431-11.08-7.109-17.52-6.247-6.446 0.6176-12.04 4.659-15.62 9.902-13.43 17.22-26.95 34.39-40.32 51.65-3.247 4.692 0.05401 12.11 5.857 12.44 3.477 0.4502 6.291-1.997 8.076-4.705 13.47-17.21 26.87-34.47 40.4-51.64 2.28-2.51 6.331-2.002 8.466 0.4006 2.69 1.718 4.239 5.297 2.623 8.277-3.904 5.402-8.185 10.54-12.23 15.84-10.11 12.91-20.16 25.87-30.31 38.74-5.562 6.687-16.25 8.072-23.28 2.885-4.134-3.335-8.821-6.598-10.6-11.87-2.64-6.689-0.9804-14.62 3.848-19.89 20.31-25.97 40.56-51.97 60.91-77.9 5.554-6.698 16.25-8.1 23.28-2.905 4.16 3.366 8.874 6.673 10.63 12 2.429 6.318 1.109 13.8-3.224 18.99-3.274 4.692 0.0433 12.12 5.847 12.46 3.739 0.4708 6.754-2.326 8.448-5.365 8.619-12.85 7.334-31.32-3.066-42.79-3.335-3.528-7.147-6.619-11.1-9.427-5.205-3.322-11.36-5.15-17.53-5.143z" color="#ebdbb2" fill="currentColor" stroke-width="10.8"/>
  <path d="m91 12c-72 0-85 15-85 87v56c0 70 13 85 85 85h74c72 0 85-15 85-85v-56c0-72-13-87-85-87zm0 4h74c68 0 80 15 80 83v56c0 66-12 81-80 81h-74c-68 0-80-15-80-81v-56c0-68 12-83 80-83z" fill="url(#linearGradient31)" style="isolation:isolate"/>
</svg>
