<svg width="256" height="256" version="1.1" xmlns="http://www.w3.org/2000/svg">
  <defs>
    <linearGradient id="linearGradient31" x1=".5002" x2=".5002" y2="1" gradientTransform="matrix(244,0,0,228,5.986,12)" gradientUnits="userSpaceOnUse">
      <stop stop-color="#ebdbb2" stop-opacity=".2" offset="0"/>
      <stop stop-color="#ebdbb2" stop-opacity=".05" offset=".1"/>
      <stop stop-opacity="0" offset=".7036"/>
      <stop stop-opacity=".1" offset=".8975"/>
      <stop stop-opacity=".2" offset="1"/>
    </linearGradient>
    <linearGradient id="linearGradient6" x1="140" x2="140" y1="12" y2="240" gradientUnits="userSpaceOnUse">
      <stop stop-color="#504945" offset="0"/>
      <stop stop-color="#3c3836" offset="1"/>
    </linearGradient>
    <linearGradient id="linearGradient37" x1="67.742" x2="188.26" y1="128" y2="128" gradientTransform="matrix(.88281 0 0 .88281 -3.6506 15.753)" gradientUnits="userSpaceOnUse">
      <stop stop-color="#83a598" offset="0"/>
      <stop stop-color="#458588" offset="1"/>
    </linearGradient>
    <linearGradient id="linearGradient38" x1="99.444" x2="188.26" y1="127.71" y2="128" gradientTransform="matrix(.76014 0 0 .76014 64.546 16.081)" gradientUnits="userSpaceOnUse">
      <stop stop-color="#83a598" offset="0"/>
      <stop stop-color="#076678" offset="1"/>
    </linearGradient>
    <linearGradient id="b-9-6" x1=".6312" x2=".6312" y1=".4998" y2=".9998" gradientTransform="matrix(244,0,0,228,5.995,12)" gradientUnits="userSpaceOnUse">
      <stop stop-color="#fe8019" offset="0"/>
      <stop stop-color="#d65d0e" offset="1"/>
    </linearGradient>
  </defs>
  <path d="m165 12c72 0 85 15 85 87v56c0 70-13 85-85 85h-74c-72 0-85-15-85-85v-56c0-72 13-87 85-87z" fill="url(#linearGradient6)" style="isolation:isolate"/>
  <path d="m161.84 58.01v0.0018c-8.4454-2.15e-4 -16.093 3.5783-21.699 9.369 3.7789 3.7019 6.9335 8.0714 9.3282 12.908 2.9245-3.805 7.3777-6.2381 12.369-6.2384 8.8093-4.31e-4 15.951 7.5693 15.951 16.908 0 9.339-7.1418 16.91-15.951 16.91-2.7064-1.4e-4 -5.2529-0.7198-7.4857-1.9808-0.56027 6.4194-2.4332 12.463-5.2072 17.96l1.4546 1.4883c3.759-1.0471 7.4744-1.3684 10.46-1.3749l0.77957 9e-3c17.181-5.4e-4 31.109-14.765 31.109-32.978 4.2e-4 -18.215-13.927-32.981-31.109-32.981zm-52.495 5.6218c-19.955-5.08e-4 -36.132 17.15-36.131 38.304 0.0093 9.3554 3.2477 18.383 9.105 25.381-1.4937 0.62714-26.162 11.505-26.162 45.911v14.144c13.981 13.116 33.83 16.144 52.283 16.628 28.984 0.25714 45.789-8.989 54.077-15.595l0.0319-15.329c-4e-3 -14.499-4.9393-27.581-15.059-37.94-3.9486 5.036-8.7561 9.2392-14.17 12.392 7.0464 6.0145 10.135 15.05 10.482 25.835v4.456c-0.20123 2e-3 -12.206 7.4045-35.362 7.5016-23.157-0.0971-33.546-7.4999-33.546-7.4999v-4.5889c0-28.979 21.702-32.98 33.546-33.006l0.90535 0.0107c19.954-5e-4 36.13-17.148 36.13-38.3 4.5e-4 -21.154-16.175-38.303-36.13-38.304zm-2e-3 18.628c10.231-5.01e-4 18.526 8.7906 18.526 19.636 0 10.846-8.2944 19.639-18.526 19.638-10.231-5.1e-4 -18.524-8.7931-18.524-19.638 0-10.845 8.2933-19.636 18.524-19.636zm85.342 37.317c-3.3999 4.3361-7.5384 7.9552-12.2 10.67 6.0672 5.1786 8.7255 12.959 9.0236 22.246v3.8358c-0.14257 2e-3 -7.1821 4.3099-20.774 5.8858 0.57977 3.558 0.88665 7.185 0.88765 10.859v0.0107l-0.0124 5.349c18.573-1.7048 29.953-8.1577 36.014-12.988l0.0282-13.198c-3e-3 -12.484-4.2548-23.749-12.968-32.67z" color="#000000" fill="#282828" opacity=".5" stroke-width="1.0039" style="-inkscape-stroke:none;isolation:isolate"/>
  <path d="m109.34 58.567c-19.955-5.06e-4 -36.132 17.149-36.131 38.302 0.0093 9.3554 3.2484 18.383 9.1059 25.381-1.4937 0.62713-26.162 11.505-26.162 45.911v14.144c13.981 13.116 33.83 16.145 52.283 16.629 28.984 0.25713 45.789-8.9898 54.077-15.596l0.0329-15.329c-4e-3 -14.499-4.9408-27.583-15.059-37.942-3.9486 5.036-8.7555 9.2402-14.17 12.392 7.0464 6.0144 10.136 15.049 10.482 25.836v4.4555c-0.20125 2e-3 -12.207 7.4052-35.362 7.5022-23.157-0.0971-33.547-7.5005-33.547-7.5005v-4.5882c0-28.979 21.702-32.98 33.547-33.005l0.90524 0.0104c19.953-5e-4 36.13-17.148 36.13-38.3 4.6e-4 -21.154-16.175-38.302-36.13-38.302zm-2e-3 18.627c10.231-5.01e-4 18.526 8.7917 18.526 19.638 0 10.846-8.2942 19.638-18.526 19.638-10.231-5.2e-4 -18.524-8.7924-18.524-19.638 0-10.845 8.2932-19.637 18.524-19.638z" color="#000000" fill="url(#linearGradient37)" stroke-width=".88281" style="-inkscape-stroke:none;isolation:isolate"/>
  <path d="m161.84 52.944v0.0018c-8.4454-2.16e-4 -16.093 3.5783-21.699 9.369 3.7789 3.7019 6.9335 8.0714 9.3282 12.908 2.9245-3.805 7.3777-6.2381 12.369-6.2384 8.8093-4.31e-4 15.951 7.5693 15.951 16.908 0 9.339-7.1418 16.91-15.951 16.91-2.7064-1.3e-4 -5.2529-0.71978-7.4857-1.9808-0.56027 6.4194-2.4332 12.463-5.2072 17.961l1.4546 1.4882c3.759-1.0471 7.4744-1.3684 10.46-1.3749l0.77958 9e-3c17.181-5.4e-4 31.109-14.765 31.109-32.978 4.2e-4 -18.215-13.927-32.981-31.109-32.981zm32.845 61.567c-3.3999 4.3361-7.5383 7.9552-12.2 10.67 6.0672 5.1786 8.7255 12.959 9.0236 22.246v3.8358c-0.14258 2e-3 -7.1821 4.3099-20.774 5.8858 0.57978 3.558 0.88665 7.185 0.88766 10.859v0.0106l-0.0124 5.349c18.573-1.7048 29.953-8.1578 36.014-12.988l0.0282-13.198c-3e-3 -12.484-4.2548-23.749-12.968-32.67z" color="#000000" fill="url(#linearGradient38)" stroke-width=".76014" style="-inkscape-stroke:none;isolation:isolate"/>
  <path d="m161.84 52.945c-8.4454-2.14e-4 -16.093 3.5785-21.699 9.3691 0.88819 0.87008 1.7353 1.7834 2.5527 2.7246 5.2808-4.3898 11.915-7.0275 19.146-7.0273 16.375 0 29.765 13.421 30.988 30.449 0.06028-0.83853 0.1211-1.6783 0.1211-2.5332 4.2e-4 -18.215-13.927-32.982-31.109-32.982zm-52.5 5.6211c-19.955-5.06e-4 -36.132 17.15-36.131 38.303 8.5e-4 0.8828 0.05933 1.7592 0.11719 2.6348 1.1881-20.014 16.833-35.872 36.014-35.871l0.00196 0.001954c19.148 0 34.776 15.8 36.012 35.768 0.05206-0.84121 0.11914-1.678 0.11914-2.5332 4.6e-4 -21.154-16.176-38.301-36.131-38.301l-0.00196-0.001953zm68.252 29.859c-1.1555 8.1346-7.7587 14.377-15.754 14.377-2.7064-1.3e-4 -5.2535-0.71946-7.4863-1.9805-0.56027 6.4194-2.433 12.463-5.207 17.961l1.4551 1.4883c0.06022-0.01677 0.11949-0.02461 0.17969-0.04101 1.8612-4.4974 3.132-9.298 3.5723-14.342 2.2328 1.261 4.7799 1.9803 7.4863 1.9805 8.8092 0 15.951-7.5712 15.951-16.91 0-0.86325-0.07954-1.7048-0.19726-2.5332zm-49.9 10.938c-1.1739 9.6475-8.9328 17.107-18.354 17.107-9.4193-4.8e-4 -17.177-7.4592-18.352-17.105-0.10125 0.83132-0.17188 1.6727-0.17188 2.5332 0 10.846 8.2925 19.638 18.523 19.639 10.232 0 18.525-8.7927 18.525-19.639 0-0.86114-0.07049-1.7033-0.17187-2.5352zm66.994 15.15c-3.3997 4.3356-7.5399 7.9534-12.201 10.668 1.115 0.95173 2.0775 2.0199 2.9687 3.1406 3.4565-2.423 6.5756-5.354 9.2324-8.7422 8.6534 8.8608 12.897 20.037 12.957 32.42l0.00976-4.8184c-3e-3 -12.483-4.2549-23.747-12.967-32.668zm-115.06 9.1055c-6.7195 3.8168-23.471 16.165-23.471 44.541v5.0664c0-34.406 24.668-45.283 26.162-45.91-0.98097-1.172-1.8602-2.4194-2.6914-3.6973zm67.863 6.4473c-3.9486 5.036-8.7554 9.2408-14.17 12.393 1.1233 0.95876 2.1354 2.0023 3.0625 3.1094 4.1707-2.8642 7.9222-6.3731 11.107-10.436 10.016 10.255 14.946 23.183 15.049 37.508l0.00976-4.6308c-4e-3 -14.499-4.9404-27.584-15.059-37.943zm43.943 21.236c-0.33089 0.11945-7.2937 4.2919-20.695 5.8457 0.2678 1.6435 0.4708 3.3038 0.61914 4.9746 13.164-1.6355 20.014-5.791 20.154-5.793v-3.8359c-0.01302-0.40557-0.05602-0.79168-0.07812-1.1914zm-19.818 21.215-0.00195 0.84961c0.00468-4.3e-4 0.00898-0.00152 0.01367-0.00196v-0.29101c-5e-5 -0.18618-0.0101-0.3707-0.01172-0.55664zm-96.709 0.24219c-0.001338 0.15965-0.011719 0.30951-0.011719 0.4707v4.5879s10.39 7.4029 33.547 7.5c23.155-0.097 35.16-7.5 35.361-7.502v-4.4551c-0.00646-0.20147-0.03068-0.39157-0.03906-0.5918-0.29823 0.06307-12.264 7.3858-35.322 7.4824-23.087-0.09681-33.473-7.448-33.535-7.4922z" fill="#ebdbb2" opacity=".3" style="-inkscape-stroke:none;isolation:isolate"/>
  <g transform="translate(0 .0497)" style="isolation:isolate">
    <path d="m250 124.82-29.932 0.32363c-81.008 0.87549-94.966 4.4497-96.093 80.376-0.34358 11.488-0.0783 22.956 0.4422 34.434 2.1e-4 4e-3 37.418 4e-3 37.687 4e-3 74.443 0 87.884-15.156 87.884-85.882z" fill="#282828" opacity=".3" stroke-width="1.0221" style="isolation:isolate"/>
    <path d="m250 126-28.95 0.3203c-78.35 0.8665-91.85 4.404-92.94 79.55-0.3323 11.37-0.0757 22.72 0.4277 34.08 1.9e-4 4e-3 36.19 4e-3 36.45 4e-3 72 0 85-15 85-85z" fill="url(#b-9-6)" style="isolation:isolate"/>
    <path d="m182.3 148.5-0.772 9.219c-2.923 1.082-5.64 2.654-8.036 4.648l-8.379-3.945-8.75 15.16 7.607 5.283c-0.271 1.532-0.411 3.083-0.42 4.639 1e-3 1.561 0.135 3.119 0.4 4.658l-7.588 5.263 8.75 15.16 8.359-3.936c2.405 1.986 5.129 3.547 8.057 4.619l0.771 9.238h17.5l0.772-9.218c2.923-1.083 5.64-2.655 8.037-4.649l8.378 3.945 8.75-15.16-7.607-5.283c0.271-1.532 0.411-3.083 0.42-4.639-1e-3 -1.561-0.135-3.119-0.4-4.658l7.587-5.263-8.749-15.16-8.359 3.936c-2.405-1.986-5.13-3.548-8.059-4.62l-0.77-9.24h-17.5zm8.75 25c2.652-1e-3 5.196 1.053 7.072 2.929 1.875 1.875 2.929 4.419 2.929 7.072 0 2.652-1.054 5.196-2.929 7.072-1.876 1.875-4.42 2.929-7.072 2.929-2.653 0-5.197-1.054-7.072-2.929-1.876-1.876-2.929-4.42-2.929-7.072 0-2.653 1.053-5.197 2.929-7.072 1.875-1.876 4.419-2.93 7.072-2.929z" fill="#282828" opacity=".5" style="isolation:isolate"/>
    <path d="m182.3 146-0.772 9.219c-2.923 1.082-5.64 2.654-8.036 4.648l-8.379-3.945-8.75 15.16 7.607 5.283c-0.271 1.532-0.411 3.083-0.42 4.639 1e-3 1.561 0.135 3.119 0.4 4.658l-7.588 5.263 8.75 15.16 8.359-3.936c2.405 1.986 5.129 3.547 8.057 4.619l0.771 9.238h17.5l0.772-9.218c2.923-1.083 5.64-2.655 8.037-4.649l8.378 3.945 8.75-15.16-7.607-5.283c0.271-1.532 0.411-3.083 0.42-4.639-1e-3 -1.561-0.135-3.119-0.4-4.658l7.587-5.263-8.749-15.16-8.359 3.936c-2.405-1.986-5.13-3.548-8.059-4.62l-0.77-9.24h-17.5zm8.75 25c2.652-1e-3 5.196 1.053 7.072 2.929 1.875 1.875 2.929 4.419 2.929 7.072 0 2.652-1.054 5.196-2.929 7.072-1.876 1.875-4.42 2.929-7.072 2.929-2.653 0-5.197-1.054-7.072-2.929-1.876-1.876-2.929-4.42-2.929-7.072 0-2.653 1.053-5.197 2.929-7.072 1.875-1.876 4.419-2.93 7.072-2.929z" fill="#ebdbb2" style="isolation:isolate"/>
  </g>
  <path d="m91 12c-72 0-85 15-85 87v56c0 70 13 85 85 85h74c72 0 85-15 85-85v-56c0-72-13-87-85-87zm0 4h74c68 0 80 15 80 83v56c0 66-12 81-80 81h-74c-68 0-80-15-80-81v-56c0-68 12-83 80-83z" fill="url(#linearGradient31)" style="isolation:isolate"/>
</svg>
