<svg width="256" height="256" version="1.1" xmlns="http://www.w3.org/2000/svg">
  <defs>
    <linearGradient id="linearGradient31" x1=".5002" x2=".5002" y2="1" gradientTransform="matrix(244,0,0,228,5.986,12)" gradientUnits="userSpaceOnUse">
      <stop stop-color="#ebdbb2" stop-opacity=".2" offset="0"/>
      <stop stop-color="#ebdbb2" stop-opacity=".05" offset=".1"/>
      <stop stop-opacity="0" offset=".7036"/>
      <stop stop-opacity=".1" offset=".8975"/>
      <stop stop-opacity=".2" offset="1"/>
    </linearGradient>
    <linearGradient id="linearGradient26" x1="7.622" x2="62.06" y1="64.72" y2="39.48" gradientTransform="matrix(4.866 0 0 4.546 -31.41 -33.5)" gradientUnits="userSpaceOnUse">
      <stop stop-color="#8ec07c" offset=".3619"/>
      <stop stop-color="#fabd2f" offset=".5941"/>
    </linearGradient>
    <linearGradient id="linearGradient36" x1="61.38" x2="1.313" y1="61.12" y2="1.073" gradientTransform="matrix(3.812,0,0,3.403,5.98,11.99)" gradientUnits="userSpaceOnUse">
      <stop stop-color="#fabd2f" offset="0"/>
      <stop stop-color="#b8bb26" offset=".4407"/>
      <stop stop-color="#83a598" offset=".5284"/>
    </linearGradient>
  </defs>
  <path d="m165 12c72 0 85 15 85 87v56c0 70-13 85-85 85h-74c-72 0-85-15-85-85v-56c0-72 13-87 85-87z" fill="#3c3836" style="isolation:isolate"/>
  <path d="m152.9 12-146.9 127.8v15.22c0 62.27 10.34 81.02 63.3 84.4 56.23-25.98 132.5-71.38 180.7-119.1v-21.35c0-72-13-87-85-87z" fill="#8ec07c" stroke-width="4.536"/>
  <path d="m250 125.2-80.02 0.0195c-2.129 0-4.245 0.3197-6.263 0.9492l-122.7 31.86c-1.418 0.4417-33.27 16.93-34.51 17.64 2.976 52.3 20.21 64.36 84.47 64.36h74.02c72.02 0 85.02-15 85.02-85z" fill="url(#linearGradient26)" stroke-width="4.703"/>
  <path d="m91 12c-72 0-85 15-85 87v42.46c0 5.544 3.683 10.56 9.39 12.74 56.96 22.75 122 60.43 191.5 82.73 35.53-7.148 43.1-28.4 43.1-81.93v-45.43l-84.21-91.4c-2.879-3.853-7.727-6.17-12.91-6.17h-43.78z" fill="url(#linearGradient36)" stroke-width="3.602"/>
  <path d="m204.2 51.75h-152.5v152.5h152.5z" fill="#282828" stroke-width="3.812"/>
  <path d="m70.79 173.8h61v11.44h-61z" fill="#ebdbb2" stroke-width="3.812"/>
  <path d="m92.47 70.43h-24.47v57h11.12v-21.54h13.03c4.07 0 7.641-0.7328 10.71-2.199 3.095-1.492 5.47-3.584 7.126-6.271 1.682-2.687 2.523-5.863 2.523-9.364s-0.8289-6.581-2.484-9.242c-1.629-2.661-3.963-4.722-7.004-6.188s-6.557-2.199-10.55-2.199zm4.151 25.2c-1.385 0.6781-3.012 1.018-4.886 1.018h-12.62v-16.98h12.62c1.874 0 3.501 0.351 4.886 1.058 1.411 0.6762 2.495 1.654 3.257 2.932 0.7613 1.245 1.141 2.768 1.141 4.478s-0.3818 3.217-1.141 4.519c-0.759 1.278-1.845 2.266-3.257 2.973z" clip-rule="evenodd" fill="#ebdbb2" fill-rule="evenodd" stroke-width="3.799"/>
  <path d="m129.9 124.6c4.426 2.55 9.366 3.828 14.82 3.828v-4e-3c4.613 0 8.849-0.8551 12.7-2.565 3.854-1.71 7.056-4.096 9.608-7.165 2.578-3.095 4.303-6.637 5.172-10.63h-11.65c-0.7613 2.061-1.9 3.883-3.42 5.455-1.494 1.548-3.3 2.744-5.416 3.584-2.116 0.8395-4.424 1.263-6.921 1.263-3.366 0-6.406-0.8395-9.119-2.523-2.716-1.684-4.847-3.989-6.393-6.921-1.52-2.956-2.279-6.284-2.279-9.975 0-3.69 0.759-7.004 2.279-9.935 1.549-2.958 3.678-5.279 6.393-6.963 2.713-1.684 5.754-2.523 9.119-2.523 2.495 0 4.803 0.4232 6.921 1.263 2.118 0.8395 3.922 2.05 5.416 3.623 1.52 1.549 2.659 3.355 3.42 5.416h11.65c-0.8703-3.989-2.593-7.516-5.172-10.59-2.552-3.095-5.754-5.496-9.608-7.206-3.854-1.711-8.09-2.566-12.7-2.566-5.458 0-10.4 1.287-14.82 3.867-4.425 2.55-7.9 6.081-10.42 10.59-2.523 4.478-3.787 9.486-3.787 15.02 0 5.538 1.263 10.56 3.787 15.07 2.526 4.478 5.998 8.005 10.42 10.59z" fill="#ebdbb2" stroke-width="3.799"/>
  <path d="m91 12c-72 0-85 15-85 87v56c0 70 13 85 85 85h74c72 0 85-15 85-85v-56c0-72-13-87-85-87zm0 4h74c68 0 80 15 80 83v56c0 66-12 81-80 81h-74c-68 0-80-15-80-81v-56c0-68 12-83 80-83z" fill="url(#linearGradient31)" style="isolation:isolate"/>
</svg>
