<svg width="256" height="256" version="1.1" xmlns="http://www.w3.org/2000/svg">
  <defs>
    <linearGradient id="linearGradient31" x1=".5002" x2=".5002" y2="1" gradientTransform="matrix(244,0,0,228,5.986,12)" gradientUnits="userSpaceOnUse">
      <stop stop-color="#ebdbb2" stop-opacity=".2" offset="0"/>
      <stop stop-color="#ebdbb2" stop-opacity=".05" offset=".1"/>
      <stop stop-opacity="0" offset=".7036"/>
      <stop stop-opacity=".1" offset=".8975"/>
      <stop stop-opacity=".2" offset="1"/>
    </linearGradient>
    <linearGradient id="linearGradient6" x1="140" x2="140" y1="12" y2="240" gradientUnits="userSpaceOnUse">
      <stop stop-color="#689d6a" offset="0"/>
      <stop stop-color="#427b58" offset="1"/>
    </linearGradient>
  </defs>
  <path d="m165 12c72 0 85 15 85 87v56c0 70-13 85-85 85h-74c-72 0-85-15-85-85v-56c0-72 13-87 85-87z" fill="url(#linearGradient6)" style="isolation:isolate"/>
  <path class="ColorScheme-Text" d="m134.4 46.61c-4.54-0.01053-8.033 0.7461-9.476 2.362-2.289 2.564-7.56 21.68-14.14 50.9-4.745 21.03-1.445 33.29 1.797 39.85 4.145 8.39 7.37 13.43 0.8197 30.18-4.745 12.13-9.583 12.13-14.08 12.7-10.83-2.635-19.01-2.726-20.08 0.2385-1.461 4.055 10.9 14.59 27.6 20.68 16.7 6.083 31.43 7.734 32.9 3.679 1.071-2.974-5.304-8.18-15.36-13.15-4.414-4.6-8.38-7.805-4.884-22.06 6.839-27.87 17.27-18.3 29.56-35.63 10.43-14.7 13.2-25.98 19.23-43.2 6.398-18.25 9.204-26.7 8.376-28.37-5.578-11.24-28.64-18.15-42.26-18.19zm-15.59 37.12c6.591 7.295 12.61 11.5 18.04 11.72 13.4 0.5344 23.2-14.86 29.15-7.049-2.868 9.526-20.15 67.22-43.18 56.91-19.08-8.412-8.036-51.32-4.009-61.58z" color="#ebdbb2" fill="currentColor" stroke-width="5.553"/>
  <path d="m91 12c-72 0-85 15-85 87v56c0 70 13 85 85 85h74c72 0 85-15 85-85v-56c0-72-13-87-85-87zm0 4h74c68 0 80 15 80 83v56c0 66-12 81-80 81h-74c-68 0-80-15-80-81v-56c0-68 12-83 80-83z" fill="url(#linearGradient31)" style="isolation:isolate"/>
</svg>
