<svg width="256" height="256" version="1.1" xmlns="http://www.w3.org/2000/svg">
  <defs>
    <linearGradient id="linearGradient31" x1=".5002" x2=".5002" y2="1" gradientTransform="matrix(244,0,0,228,5.986,12)" gradientUnits="userSpaceOnUse">
      <stop stop-color="#ebdbb2" stop-opacity=".2" offset="0"/>
      <stop stop-color="#ebdbb2" stop-opacity=".05" offset=".1"/>
      <stop stop-opacity="0" offset=".7036"/>
      <stop stop-opacity=".1" offset=".8975"/>
      <stop stop-opacity=".2" offset="1"/>
    </linearGradient>
    <linearGradient id="linearGradient6" x1="140" x2="140" y1="12" y2="240" gradientUnits="userSpaceOnUse">
      <stop stop-color="#504945" offset="0"/>
      <stop stop-color="#3c3836" offset="1"/>
    </linearGradient>
  </defs>
  <path d="m165 12c72 0 85 15 85 87v56c0 70-13 85-85 85h-74c-72 0-85-15-85-85v-56c0-72 13-87 85-87z" fill="url(#linearGradient6)" style="isolation:isolate"/>
  <path d="m46.618 69.435v96.453h84.397v24.113h30.14v-120.57zm132.62 0v120.57h30.142v-120.57zm-102.48 30.14h54.255v36.17h-54.255z" fill="#ebdbb2" opacity=".15" stroke-width="6.0284"/>
  <path d="m46.617 65.435v96.453h84.397v24.113h30.14v-120.57zm132.62 0v120.57h30.142v-120.57zm-102.48 30.14h54.255v36.17h-54.255z" fill="#ebdbb2" stroke-width="6.0284"/>
  <path d="m91 12c-72 0-85 15-85 87v56c0 70 13 85 85 85h74c72 0 85-15 85-85v-56c0-72-13-87-85-87zm0 4h74c68 0 80 15 80 83v56c0 66-12 81-80 81h-74c-68 0-80-15-80-81v-56c0-68 12-83 80-83z" fill="url(#linearGradient31)" style="isolation:isolate"/>
  <path d="m46.618 65.435v4h114.54v-4zm132.62 0v4h30.143v-4zm-102.48 66.309v4h54.256v-4z" fill="#282828" opacity=".15" stroke-width="6.0284"/>
</svg>
