<svg width="256" height="256" version="1.1" xmlns="http://www.w3.org/2000/svg" xmlns:xlink="http://www.w3.org/1999/xlink">
  <defs>
    <linearGradient id="linearGradient31" x1=".5002" x2=".5002" y2="1" gradientTransform="matrix(244,0,0,228,5.986,12)" gradientUnits="userSpaceOnUse">
      <stop stop-color="#ebdbb2" stop-opacity=".2" offset="0"/>
      <stop stop-color="#ebdbb2" stop-opacity=".05" offset=".1"/>
      <stop stop-opacity="0" offset=".7036"/>
      <stop stop-opacity=".1" offset=".8975"/>
      <stop stop-opacity=".2" offset="1"/>
    </linearGradient>
    <linearGradient id="linearGradient6" x1="140" x2="140" y1="12" y2="240" gradientUnits="userSpaceOnUse">
      <stop stop-color="#504945" offset="0"/>
      <stop stop-color="#504945" offset="1"/>
    </linearGradient>
    <linearGradient id="LinearGradient1">
      <stop stop-opacity=".8" offset="0"/>
      <stop stop-opacity=".2" offset="1"/>
    </linearGradient>
    <linearGradient id="linearGradient1151" x1="29.8" x2="1.8" y1="29.8" y2="1.8" gradientUnits="userSpaceOnUse" xlink:href="#LinearGradient1"/>
    <linearGradient id="linearGradient2059-6" x1="30" x2="2" y1="30" y2="2" gradientUnits="userSpaceOnUse" xlink:href="#LinearGradient1"/>
    <linearGradient id="linearGradient3261-8" x1="30" x2="10" y1="30" y2="10" gradientUnits="userSpaceOnUse">
      <stop stop-color="#282828" stop-opacity=".8" offset="0"/>
      <stop stop-color="#282828" stop-opacity=".2" offset="1"/>
    </linearGradient>
    <linearGradient id="linearGradient4877" x1="28" x2="27" y1="315.53" y2="314.03" gradientUnits="userSpaceOnUse">
      <stop stop-color="#282828" stop-opacity=".8" offset="0"/>
      <stop stop-color="#282828" stop-opacity=".2" offset="1"/>
    </linearGradient>
    <linearGradient id="linearGradient4875" x1="28" x2="27" y1="306.03" y2="304.53" gradientUnits="userSpaceOnUse">
      <stop stop-color="#282828" stop-opacity=".8" offset="0"/>
      <stop stop-color="#282828" stop-opacity=".2" offset="1"/>
    </linearGradient>
    <linearGradient id="linearGradient4873" x1="28" x2="27" y1="296.53" y2="295.03" gradientUnits="userSpaceOnUse">
      <stop stop-color="#282828" stop-opacity=".8" offset="0"/>
      <stop stop-color="#282828" stop-opacity=".2" offset="1"/>
    </linearGradient>
    <linearGradient id="linearGradient4871" x1="6" x2="5" y1="315.53" y2="314.03" gradientUnits="userSpaceOnUse">
      <stop stop-color="#282828" stop-opacity=".8" offset="0"/>
      <stop stop-color="#282828" stop-opacity=".2" offset="1"/>
    </linearGradient>
    <linearGradient id="linearGradient4869" x1="6" x2="5" y1="306.03" y2="304.53" gradientUnits="userSpaceOnUse">
      <stop stop-color="#282828" stop-opacity=".8" offset="0"/>
      <stop stop-color="#282828" stop-opacity=".2" offset="1"/>
    </linearGradient>
    <linearGradient id="linearGradient4867" x1="6" x2="5" y1="296.53" y2="295.03" gradientUnits="userSpaceOnUse">
      <stop stop-color="#282828" stop-opacity=".8" offset="0"/>
      <stop stop-color="#282828" stop-opacity=".2" offset="1"/>
    </linearGradient>
    <linearGradient id="linearGradient3229" x1="26" x2="28" y1="312.53" y2="315.53" gradientUnits="userSpaceOnUse">
      <stop stop-color="#282828" stop-opacity=".8" offset="0"/>
      <stop stop-color="#282828" stop-opacity=".2" offset="1"/>
    </linearGradient>
    <linearGradient id="linearGradient3227" x1="26" x2="28" y1="303.03" y2="306.03" gradientUnits="userSpaceOnUse">
      <stop stop-color="#282828" stop-opacity=".8" offset="0"/>
      <stop stop-color="#282828" stop-opacity=".2" offset="1"/>
    </linearGradient>
    <linearGradient id="linearGradient3225" x1="26" x2="28" y1="293.53" y2="296.53" gradientUnits="userSpaceOnUse">
      <stop stop-color="#282828" stop-opacity=".8" offset="0"/>
      <stop stop-color="#282828" stop-opacity=".2" offset="1"/>
    </linearGradient>
    <linearGradient id="linearGradient3223" x1="4" x2="6" y1="312.53" y2="315.53" gradientUnits="userSpaceOnUse">
      <stop stop-color="#282828" stop-opacity=".8" offset="0"/>
      <stop stop-color="#282828" stop-opacity=".2" offset="1"/>
    </linearGradient>
    <linearGradient id="linearGradient3221" x1="4" x2="6" y1="303.03" y2="306.03" gradientUnits="userSpaceOnUse">
      <stop stop-color="#282828" stop-opacity=".8" offset="0"/>
      <stop stop-color="#282828" stop-opacity=".2" offset="1"/>
    </linearGradient>
    <linearGradient id="linearGradient3219" x1="4" x2="6" y1="293.53" y2="296.53" gradientUnits="userSpaceOnUse">
      <stop stop-color="#282828" stop-opacity=".8" offset="0"/>
      <stop stop-color="#282828" stop-opacity=".2" offset="1"/>
    </linearGradient>
    <linearGradient id="linearGradient1547" x1="28" x2="26" y1="315.53" y2="312.53" gradientUnits="userSpaceOnUse">
      <stop stop-color="#282828" stop-opacity=".8" offset="0"/>
      <stop stop-color="#282828" stop-opacity=".2" offset="1"/>
    </linearGradient>
    <linearGradient id="linearGradient1545" x1="28" x2="26" y1="306.03" y2="303.03" gradientUnits="userSpaceOnUse">
      <stop stop-color="#282828" stop-opacity=".8" offset="0"/>
      <stop stop-color="#282828" stop-opacity=".2" offset="1"/>
    </linearGradient>
    <linearGradient id="linearGradient1543" x1="28" x2="26" y1="296.53" y2="293.53" gradientUnits="userSpaceOnUse">
      <stop stop-color="#282828" stop-opacity=".8" offset="0"/>
      <stop stop-color="#282828" stop-opacity=".2" offset="1"/>
    </linearGradient>
    <linearGradient id="linearGradient1541" x1="6" x2="4" y1="315.53" y2="312.53" gradientUnits="userSpaceOnUse">
      <stop stop-color="#282828" stop-opacity=".8" offset="0"/>
      <stop stop-color="#282828" stop-opacity=".2" offset="1"/>
    </linearGradient>
    <linearGradient id="linearGradient1539" x1="6" x2="4" y1="306.03" y2="303.03" gradientUnits="userSpaceOnUse">
      <stop stop-color="#282828" stop-opacity=".8" offset="0"/>
      <stop stop-color="#282828" stop-opacity=".2" offset="1"/>
    </linearGradient>
    <linearGradient id="linearGradient1537" x1="6" x2="4" y1="296.53" y2="293.53" gradientUnits="userSpaceOnUse">
      <stop stop-color="#282828" stop-opacity=".8" offset="0"/>
      <stop stop-color="#282828" stop-opacity=".2" offset="1"/>
    </linearGradient>
    <linearGradient id="linearGradient10" x1="29.8" x2="1.8" y1="29.8" y2="1.8" gradientUnits="userSpaceOnUse">
      <stop stop-color="#282828" stop-opacity=".8" offset="0"/>
      <stop stop-color="#282828" stop-opacity=".2" offset="1"/>
    </linearGradient>
  </defs>
  <path d="m165 12c72 0 85 15 85 87v56c0 70-13 85-85 85h-74c-72 0-85-15-85-85v-56c0-72 13-87 85-87z" fill="url(#linearGradient6)" style="isolation:isolate"/>
  <g transform="matrix(.66504 0 0 .66504 21.527 -170.34)" stroke-linecap="round" stroke-linejoin="bevel">
    <g transform="matrix(10 0 0 10 .2 -2596.6)" fill="none" stroke="url(#linearGradient10)" stroke-opacity=".2">
      <path transform="translate(0,288.53)" d="m5.5 5s-1.5 0-1.5 1.5 1.5 1.5 1.5 1.5h4c4.5 6 3.5 6.5 3.5 6.5h-7.5s-1.5 0-1.5 1.5c0 2 1.5 1.5 1.5 1.5h7.5s1 0.5-3.5 6.5h-4s-1.5 0-1.5 1.5 1.5 1.5 1.5 1.5h5c9.5-11 1.5-11 11 0h5s1.5 0 1.5-1.5-1.5-1.5-1.5-1.5h-4c-4.5-6-3.5-6.5-3.5-6.5h7.5s1.5 0 1.5-1.5-1.5-1.5-1.5-1.5h-7.5s-1-0.5 3.5-6.5h4s1.5 0 1.5-1.5-1.5-1.5-1.5-1.5h-5c-9.5 11-1.5 11-11 0z" stroke-width="1.6" style="paint-order:stroke fill markers"/>
      <path transform="translate(0,288.53)" d="m5.5 5s-1.5 0-1.5 1.5 1.5 1.5 1.5 1.5h4c4.5 6 3.5 6.5 3.5 6.5h-7.5s-1.5 0-1.5 1.5c0 2 1.5 1.5 1.5 1.5h7.5s1 0.5-3.5 6.5h-4s-1.5 0-1.5 1.5 1.5 1.5 1.5 1.5h5c9.5-11 1.5-11 11 0h5s1.5 0 1.5-1.5-1.5-1.5-1.5-1.5h-4c-4.5-6-3.5-6.5-3.5-6.5h7.5s1.5 0 1.5-1.5-1.5-1.5-1.5-1.5h-7.5s-1-0.5 3.5-6.5h4s1.5 0 1.5-1.5-1.5-1.5-1.5-1.5h-5c-9.5 11-1.5 11-11 0z" stroke-width="1.2" style="paint-order:stroke fill markers"/>
    </g>
    <g transform="matrix(10,0,0,10,0,-2596.8)" stroke-opacity=".2">
      <path transform="translate(0,288.53)" d="m5.5 5s-1.5 0-1.5 1.5 1.5 1.5 1.5 1.5h4c4.5 6 3.5 6.5 3.5 6.5h-7.5s-1.5 0-1.5 1.5c0 2 1.5 1.5 1.5 1.5h7.5s1 0.5-3.5 6.5h-4s-1.5 0-1.5 1.5 1.5 1.5 1.5 1.5h5c9.5-11 1.5-11 11 0h5s1.5 0 1.5-1.5-1.5-1.5-1.5-1.5h-4c-4.5-6-3.5-6.5-3.5-6.5h7.5s1.5 0 1.5-1.5-1.5-1.5-1.5-1.5h-7.5s-1-0.5 3.5-6.5h4s1.5 0 1.5-1.5-1.5-1.5-1.5-1.5h-5c-9.5 11-1.5 11-11 0z" fill="#ebdbb2" fill-rule="evenodd" stroke="#282828" stroke-width=".8" style="paint-order:stroke fill markers"/>
      <g fill="none">
        <g stroke="url(#linearGradient2059-6)">
          <path transform="translate(0,288.53)" d="m5.5 5s-1.5 0-1.5 1.5 1.5 1.5 1.5 1.5h4c4.5 6 3.5 6.5 3.5 6.5h-7.5s-1.5 0-1.5 1.5c0 2 1.5 1.5 1.5 1.5h7.5s1 0.5-3.5 6.5h-4s-1.5 0-1.5 1.5 1.5 1.5 1.5 1.5h5c9.5-11 1.5-11 11 0h5s1.5 0 1.5-1.5-1.5-1.5-1.5-1.5h-4c-4.5-6-3.5-6.5-3.5-6.5h7.5s1.5 0 1.5-1.5-1.5-1.5-1.5-1.5h-7.5s-1-0.5 3.5-6.5h4s1.5 0 1.5-1.5-1.5-1.5-1.5-1.5h-5c-9.5 11-1.5 11-11 0z" stroke-width=".6" style="paint-order:stroke fill markers"/>
          <path transform="translate(0,288.53)" d="m5.5 5s-1.5 0-1.5 1.5 1.5 1.5 1.5 1.5h4c4.5 6 3.5 6.5 3.5 6.5h-7.5s-1.5 0-1.5 1.5c0 2 1.5 1.5 1.5 1.5h7.5s1 0.5-3.5 6.5h-4s-1.5 0-1.5 1.5 1.5 1.5 1.5 1.5h5c9.5-11 1.5-11 11 0h5s1.5 0 1.5-1.5-1.5-1.5-1.5-1.5h-4c-4.5-6-3.5-6.5-3.5-6.5h7.5s1.5 0 1.5-1.5-1.5-1.5-1.5-1.5h-7.5s-1-0.5 3.5-6.5h4s1.5 0 1.5-1.5-1.5-1.5-1.5-1.5h-5c-9.5 11-1.5 11-11 0z" style="paint-order:stroke fill markers"/>
          <path transform="translate(0,288.53)" d="m5.5 5s-1.5 0-1.5 1.5 1.5 1.5 1.5 1.5h4c4.5 6 3.5 6.5 3.5 6.5h-7.5s-1.5 0-1.5 1.5c0 2 1.5 1.5 1.5 1.5h7.5s1 0.5-3.5 6.5h-4s-1.5 0-1.5 1.5 1.5 1.5 1.5 1.5h5c9.5-11 1.5-11 11 0h5s1.5 0 1.5-1.5-1.5-1.5-1.5-1.5h-4c-4.5-6-3.5-6.5-3.5-6.5h7.5s1.5 0 1.5-1.5-1.5-1.5-1.5-1.5h-7.5s-1-0.5 3.5-6.5h4s1.5 0 1.5-1.5-1.5-1.5-1.5-1.5h-5c-9.5 11-1.5 11-11 0z" stroke-width="1.4" style="paint-order:stroke fill markers"/>
        </g>
        <path transform="translate(0,288.53)" d="m5.5 5s-1.5 0-1.5 1.5 1.5 1.5 1.5 1.5h4c4.5 6 3.5 6.5 3.5 6.5h-7.5s-1.5 0-1.5 1.5c0 2 1.5 1.5 1.5 1.5h7.5s1 0.5-3.5 6.5h-4s-1.5 0-1.5 1.5 1.5 1.5 1.5 1.5h5c9.5-11 1.5-11 11 0h5s1.5 0 1.5-1.5-1.5-1.5-1.5-1.5h-4c-4.5-6-3.5-6.5-3.5-6.5h7.5s1.5 0 1.5-1.5-1.5-1.5-1.5-1.5h-7.5s-1-0.5 3.5-6.5h4s1.5 0 1.5-1.5-1.5-1.5-1.5-1.5h-5c-9.5 11-1.5 11-11 0z" stroke="url(#linearGradient3261-8)" stroke-width="1.8" style="paint-order:stroke fill markers"/>
      </g>
    </g>
    <g transform="matrix(10 0 0 10 .1 -2596.7)" stroke="#000" stroke-opacity=".2">
      <g stroke-width="2.8">
        <circle cx="27" cy="314.03" r="1.5" fill="url(#linearGradient4877)" style="paint-order:stroke fill markers"/>
        <circle cx="27" cy="304.53" r="1.5" fill="url(#linearGradient4875)" style="paint-order:stroke fill markers"/>
        <circle cx="27" cy="295.03" r="1.5" fill="url(#linearGradient4873)" style="paint-order:stroke fill markers"/>
        <circle cx="5" cy="314.03" r="1.5" fill="url(#linearGradient4871)" style="paint-order:stroke fill markers"/>
        <circle cx="5" cy="304.53" r="1.5" fill="url(#linearGradient4869)" style="paint-order:stroke fill markers"/>
        <circle cx="5" cy="295.03" r="1.5" fill="url(#linearGradient4867)" style="paint-order:stroke fill markers"/>
      </g>
      <g stroke-width="2.4">
        <circle cx="27" cy="314.03" r="1.5" fill="url(#linearGradient3229)" style="paint-order:stroke fill markers"/>
        <circle cx="27" cy="304.53" r="1.5" fill="url(#linearGradient3227)" style="paint-order:stroke fill markers"/>
        <circle cx="27" cy="295.03" r="1.5" fill="url(#linearGradient3225)" style="paint-order:stroke fill markers"/>
        <circle cx="5" cy="314.03" r="1.5" fill="url(#linearGradient3223)" style="paint-order:stroke fill markers"/>
        <circle cx="5" cy="304.53" r="1.5" fill="url(#linearGradient3221)" style="paint-order:stroke fill markers"/>
        <circle cx="5" cy="295.03" r="1.5" fill="url(#linearGradient3219)" style="paint-order:stroke fill markers"/>
      </g>
    </g>
    <g transform="matrix(10,0,0,10,0,-2596.8)" fill="none" stroke-opacity=".19524" stroke-width="2">
      <circle cx="27" cy="314.03" r="1.5" stroke="url(#linearGradient1547)" style="paint-order:stroke fill markers"/>
      <circle cx="27" cy="304.53" r="1.5" stroke="url(#linearGradient1545)" style="paint-order:stroke fill markers"/>
      <circle cx="27" cy="295.03" r="1.5" stroke="url(#linearGradient1543)" style="paint-order:stroke fill markers"/>
      <circle cx="5" cy="314.03" r="1.5" stroke="url(#linearGradient1541)" style="paint-order:stroke fill markers"/>
      <circle cx="5" cy="304.53" r="1.5" stroke="url(#linearGradient1539)" style="paint-order:stroke fill markers"/>
      <circle cx="5" cy="295.03" r="1.5" stroke="url(#linearGradient1537)" style="paint-order:stroke fill markers"/>
    </g>
    <g transform="matrix(10,0,0,10,0,-2596.8)" fill="none" stroke="#ebdbb2" stroke-width="1.2">
      <circle cx="27" cy="314.03" r="1.5" style="paint-order:stroke fill markers"/>
      <circle cx="27" cy="304.53" r="1.5" style="paint-order:stroke fill markers"/>
      <circle cx="27" cy="295.03" r="1.5" style="paint-order:stroke fill markers"/>
      <circle cx="5" cy="314.03" r="1.5" style="paint-order:stroke fill markers"/>
      <circle cx="5" cy="304.53" r="1.5" style="paint-order:stroke fill markers"/>
      <circle cx="5" cy="295.03" r="1.5" style="paint-order:stroke fill markers"/>
    </g>
  </g>
  <path d="m91 12c-72 0-85 15-85 87v56c0 70 13 85 85 85h74c72 0 85-15 85-85v-56c0-72-13-87-85-87zm0 4h74c68 0 80 15 80 83v56c0 66-12 81-80 81h-74c-68 0-80-15-80-81v-56c0-68 12-83 80-83z" fill="url(#linearGradient31)" style="isolation:isolate"/>
</svg>
