<svg width="256" height="256" viewBox="0 0 67.73 67.73" xmlns="http://www.w3.org/2000/svg">
    <defs>
        <linearGradient id="e" x1="296" x2="296" y1="-212" y2="236" gradientUnits="userSpaceOnUse">
            <stop offset="0" stop-color="#ebdbb2"/>
            <stop offset=".125" stop-color="#ebdbb2" stop-opacity=".098"/>
            <stop offset=".925" stop-opacity=".098"/>
            <stop offset="1" stop-opacity=".498"/>
        </linearGradient>
        <clipPath id="d">
            <path d="M361.938-212C507.235-212 528-191.287 528-46.125v116.25C528 215.286 507.235 236 361.937 236H214.063C68.766 236 48 215.286 48 70.125v-116.25C48-191.287 68.765-212 214.063-212z" fill="#b16286"/>
        </clipPath>
        <linearGradient id="c" x1="32" x2="272" y1="156" y2="156" gradientTransform="rotate(60 -153.58 146.183) scale(.26971)" gradientUnits="userSpaceOnUse">
   <stop offset="0%" style="stop-color:#8ec07c"/>
   <stop offset="100%" style="stop-color:#458588"/>
        </linearGradient>
        <filter id="b" x="-.01" y="-.01" width="1.023" height="1.025" color-interpolation-filters="sRGB">
            <feGaussianBlur stdDeviation="1.16"/>
        </filter>
        <filter id="a" x="-.02" y="-.03" width="1.046" height="1.05" color-interpolation-filters="sRGB">
            <feGaussianBlur stdDeviation="2.32"/>
        </filter>
        <filter id="f" x="-.05" y="-.05" width="1.092" height="1.1" color-interpolation-filters="sRGB">
            <feGaussianBlur stdDeviation="2.682"/>
        </filter>
        <linearGradient id="g" x1="624" x2="688" y1="369.239" y2="369.239" gradientUnits="userSpaceOnUse">
            <stop offset="0" stop-color="#458588"/>
            <stop offset=".278" stop-color="#458588"/>
            <stop offset=".278" stop-color="#458588"/>
            <stop offset=".707" stop-color="#458588"/>
            <stop offset=".709" stop-color="#458588"/>
            <stop offset="1" stop-color="#458588"/>
        </linearGradient>
    </defs>
    <path transform="matrix(.2697 0 0 .2697 -7.129 -8.706)" d="M188.969 46C261.617 46 272 56.357 272 128.938v58.125c0 72.58-10.383 82.937-83.031 82.937H115.03C42.383 270 32 259.643 32 187.062v-58.125C32 56.358 42.383 46 115.031 46z" filter="url(#a)" opacity=".2"/>
    <path transform="matrix(.2697 0 0 .2697 -7.129 -8.706)" d="M188.969 44C261.617 44 272 54.357 272 126.938v58.124C272 257.644 261.617 268 188.969 268H115.03C42.383 268 32 257.643 32 185.062v-58.125C32 54.358 42.383 44 115.031 44z" filter="url(#b)" opacity=".1"/>
    <path d="M43.837 232.428c19.594 0 22.395 2.793 22.395 22.369v15.676c0 19.576-2.8 22.37-22.395 22.37H23.896c-19.594 0-22.394-2.794-22.394-22.37v-15.676c0-19.576 2.8-22.37 22.394-22.37z" fill="url(#c)" transform="translate(0 -229.267)"/>
    <path transform="matrix(.13485 0 0 .13485 -4.971 31.75)" d="M361.938-212C507.235-212 528-191.287 528-46.125v116.25C528 215.286 507.235 236 361.937 236H214.063C68.766 236 48 215.286 48 70.125v-116.25C48-191.287 68.765-212 214.063-212z" clip-path="url(#d)" fill="none" opacity=".4" stroke-linecap="round" stroke-linejoin="round" stroke-width="8" stroke="url(#e)"/>
    <g transform="matrix(.26458 0 0 .26458 -40.936 20.035)" filter="url(#f)" opacity=".3">
        <path d="M221.598-37.95c-12.057 0-21.799 4.386-29.204 13.157-8.449 9.995-12.676 23.542-12.676 40.676 0 12.75 2.445 23.832 7.381 33.215 7.5 13.973 19.025 20.94 34.499 20.94 3.343 14.932 12.566 22.786 34.258 19.496V78.703c-10.098.93-12.29-4.62-13.078-14.441v-.642c3.038-1.938 5.796-4.343 8.264-7.301 8.07-9.69 12.114-23.199 12.114-40.436 0-12.85-2.575-23.911-7.702-33.295-7.594-13.667-18.857-20.538-33.856-20.538zm81.272 4.332l-15.244.401-5.054 23.908H271.74V8.583h9.948V42.84c0 9.384 1.339 15.963 3.932 19.737 3.265 4.997 10.2 7.461 20.86 7.461 3.552 0 7.955-.483 13.237-1.604v-17.01c-3.65.205-6.359.322-8.183.322-2.977 0-5.09-.505-6.338-1.525-1.537-1.223-2.327-4.389-2.327-9.386V8.583h15.725V-9.31H302.87zm-81.272 15.725c11.771 0 17.65 11.295 17.65 33.937 0 22.642-5.879 34.017-17.65 34.017-11.962 0-17.972-11.433-17.972-34.178v-2.727c.57-20.705 6.58-31.05 17.972-31.05z"/>
    </g>
    <path d="M17.695 9.994c-3.19 0-5.767 1.16-7.727 3.482-2.235 2.644-3.353 6.228-3.353 10.762 0 3.373.646 6.305 1.952 8.788 1.985 3.697 5.034 5.54 9.128 5.54.885 3.95 3.325 6.029 9.064 5.158V40.86c-2.671.246-3.252-1.222-3.46-3.821v-.17a9.449 9.449 0 0 0 2.187-1.932c2.135-2.563 3.205-6.138 3.205-10.698 0-3.4-.681-6.327-2.038-8.81-2.01-3.616-4.99-5.434-8.958-5.434zM39.2 11.141l-4.034.106-1.337 6.325h-2.866v4.734h2.633v9.064c0 2.483.354 4.224 1.04 5.222.864 1.322 2.698 1.974 5.519 1.974.94 0 2.105-.127 3.502-.424v-4.5a43.44 43.44 0 0 1-2.165.084c-.788 0-1.347-.133-1.677-.403-.406-.324-.615-1.161-.615-2.484v-8.533h4.16v-4.734H39.2zM17.695 15.3c3.115 0 4.67 2.988 4.67 8.98 0 5.99-1.555 9-4.67 9-3.165 0-4.755-3.025-4.755-9.043v-.722c.151-5.478 1.741-8.215 4.755-8.215z" fill="#ebdbb2"/>
    <path d="M48.639 53.975l-9.605 4.482 4.482-9.604.96-.96 5.123 5.122z" fill="#ebdbb2"/>
    <path d="M40.46 55.4l-1.426 3.057 3.057-1.425s.302-.178.143-.337-.636.004-.636.004.318-.483 0-.801c-.32-.319-.802-.001-.802-.001s.16-.481 0-.641-.336.145-.336.145z" fill="#282828"/>
    <path d="M624 319.356c0-7.376 18-3.688 18 7.376 0-18.44 28-18.44 28 0 0-11.064 18-14.752 18-7.376v-185.9h-64z" fill="url(#g)" transform="rotate(45.002 45.426 11.3) scale(.11319 .12275)"/>
</svg>
