<svg width="256" height="256" version="1.1" xmlns="http://www.w3.org/2000/svg">
  <defs>
    <linearGradient id="linearGradient31" x1=".5002" x2=".5002" y2="1" gradientTransform="matrix(244,0,0,228,5.986,12)" gradientUnits="userSpaceOnUse">
      <stop stop-color="#ebdbb2" stop-opacity=".2" offset="0"/>
      <stop stop-color="#ebdbb2" stop-opacity=".05" offset=".1"/>
      <stop stop-opacity="0" offset=".7036"/>
      <stop stop-opacity=".1" offset=".8975"/>
      <stop stop-opacity=".2" offset="1"/>
    </linearGradient>
    <linearGradient id="linearGradient6" x1="140" x2="140" y1="12" y2="240" gradientUnits="userSpaceOnUse">
      <stop stop-color="#504945" offset="0"/>
      <stop stop-color="#3c3836" offset="1"/>
    </linearGradient>
  </defs>
  <path d="m165 12c72 0 85 15 85 87v56c0 70-13 85-85 85h-74c-72 0-85-15-85-85v-56c0-72 13-87 85-87z" fill="url(#linearGradient6)" style="isolation:isolate"/>
  <path d="m180.41 58.375a17.469 17.469 0 0 0-17.469 17.469 17.469 17.469 0 0 0 17.469 17.469 17.469 17.469 0 0 0 17.469-17.469 17.469 17.469 0 0 0-17.469-17.469zm-80.861 52.406c-1.5093 0.035-2.9903 0.64425-4.026 1.8084l-53.498 55.92c-0.68836 0.99887-1.3647 2.32-1.3647 3.6506v20.301c0 3.3282 2.4136 5.6637 5.8684 5.6637h162.95c3.1074 0 5.8684-2.6675 5.8684-5.6637v-14.637c0.01-1.504-0.61856-2.9445-1.74-3.9918l-38.998-42.41c-2.4156-1.9976-5.8751-2.3293-8.2908 0l-15.217 17.776c-2.374 1.997-5.8829 1.997-8.2568 0l-39.032-36.951c-1.2071-0.99921-2.755-1.509-4.2648-1.467z" fill="#282828" opacity=".5" stroke-width="17.469" style="isolation:isolate"/>
  <path d="m180.41 53.25a17.469 17.469 0 0 0-17.469 17.469 17.469 17.469 0 0 0 17.469 17.469 17.469 17.469 0 0 0 17.469-17.469 17.469 17.469 0 0 0-17.469-17.469zm-80.861 52.406c-1.5093 0.035-2.9903 0.64425-4.026 1.8084l-53.498 55.92c-0.68836 0.99887-1.3647 2.32-1.3647 3.6506v20.301c0 3.3282 2.4136 5.6637 5.8684 5.6637h162.95c3.1074 0 5.8684-2.6675 5.8684-5.6637v-14.637c0.01-1.504-0.61856-2.9445-1.74-3.9918l-38.998-42.41c-2.4156-1.9976-5.8751-2.3293-8.2908 0l-15.217 17.776c-2.374 1.997-5.8829 1.997-8.2568 0l-39.032-36.951c-1.2071-0.99921-2.755-1.509-4.2648-1.467z" fill="#ebdbb2" stroke-width="17.469" style="isolation:isolate"/>
  <path d="m180.41 53.25a17.469 17.469 0 0 0-17.469 17.469 17.469 17.469 0 0 0 0.40625 2.5625 17.469 17.469 0 0 1 17.062-14.906 17.469 17.469 0 0 1 17.062 14.906 17.469 17.469 0 0 0 0.40625-2.5625 17.469 17.469 0 0 0-17.469-17.469zm-80.861 52.406c-1.5093 0.035-2.9897 0.64448-4.0254 1.8086l-53.498 55.92c-0.68836 0.99887-1.3652 2.3198-1.3652 3.6504v5.125c0-1.3306 0.67688-2.6515 1.3652-3.6504l53.498-55.92c1.0357-1.1641 2.5161-1.7736 4.0254-1.8086 1.5098-0.0419 3.0585 0.46759 4.2656 1.4668l39.031 36.951c2.3738 1.997 5.8818 1.997 8.2559 0l15.217-17.775c2.4158-2.3293 5.8755-1.9976 8.291 0l38.998 42.408c1.1215 1.0472 1.7502 2.4881 1.7402 3.9922v-5.125c0.01-1.504-0.61874-2.9449-1.7402-3.9922l-38.998-42.408c-2.4156-1.9976-5.8753-2.3293-8.291 0l-15.217 17.775c-2.374 1.997-5.882 1.997-8.2559 0l-39.031-36.951c-1.2071-0.99921-2.7558-1.5087-4.2656-1.4668z" fill="#fbf1c7" opacity=".6" stroke-width="17.469" style="isolation:isolate"/>
  <path d="m91 12c-72 0-85 15-85 87v56c0 70 13 85 85 85h74c72 0 85-15 85-85v-56c0-72-13-87-85-87zm0 4h74c68 0 80 15 80 83v56c0 66-12 81-80 81h-74c-68 0-80-15-80-81v-56c0-68 12-83 80-83z" fill="url(#linearGradient31)" style="isolation:isolate"/>
</svg>
