<svg width="256" height="256" version="1.1" xmlns="http://www.w3.org/2000/svg" xmlns:xlink="http://www.w3.org/1999/xlink">
  <defs>
    <linearGradient id="linearGradient31" x1=".5002" x2=".5002" y2="1" gradientTransform="matrix(244,0,0,228,5.986,12)" gradientUnits="userSpaceOnUse">
      <stop stop-color="#ebdbb2" stop-opacity=".2" offset="0"/>
      <stop stop-color="#ebdbb2" stop-opacity=".05" offset=".1"/>
      <stop stop-opacity="0" offset=".7036"/>
      <stop stop-opacity=".1" offset=".8975"/>
      <stop stop-opacity=".2" offset="1"/>
    </linearGradient>
    <linearGradient id="linearGradient6" x1="140" x2="140" y1="12" y2="240" gradientUnits="userSpaceOnUse">
      <stop stop-color="#458588" offset="0"/>
      <stop stop-color="#458588" offset="1"/>
    </linearGradient>
    <linearGradient id="linearGradient9" x1="81.589" x2="81.589" y1="12" y2="240" gradientUnits="userSpaceOnUse">
      <stop stop-color="#fb4934" offset="0"/>
      <stop stop-color="#cc241d" offset="1"/>
    </linearGradient>
  </defs>
  <path d="m165 12c72 0 85 15 85 87v56c0 70-13 85-85 85h-74c-72 0-85-15-85-85v-56c0-72 13-87 85-87z" fill="url(#linearGradient6)" style="isolation:isolate"/>
  <path d="m91 12c-72 0-85 15-85 87v56c0 70 13 85 85 85h74c20.992 0 36.939-1.2924 49.041-4.834-9.851-16.47-43.473-90.708-105.34-223.17z" fill="url(#linearGradient9)" style="isolation:isolate"/>
  <path d="m108.96 18.013c-0.58992 0.0091-1.1799 0.05632-1.7695 0.14258l-2e-3 -2e-3c-15.047 1.6725-29.65 6.1252-43.072 13.129-0.10642 0.25774-0.27948 0.62217-0.26367 0.66797 0.17496 0.50563 1.2014 0.29802 5.1719-1.0879 18.226-6.3621 24.909-5.0904 32.049 5.377 8.8217 12.65 14.778 35.975 12.352 48.127-1.8952 9.4935-6.067 20.931-11.789 32.346-22.544 39.135-42.239 77.842-65.052 116.66 7.2479 2.8311 16.212 4.6044 27.047 5.5953l55.802-132.97c4.225-7.019 7.3854-3.5574 10.572 1.9473 18.638 32.964 33.243 85.571 51.733 131.72 16.474-0.73614 29.226-2.7624 38.868-6.7866-19.208-41.885-26.174-65.346-90.494-200-3.5918-6.7951-12.304-15.008-21.152-14.871z" fill="#282828" opacity=".2" style="isolation:isolate"/>
  <path d="m106.71 12.142c-15.047 1.6725-29.652 6.1238-43.074 13.128-0.10643 0.25774-0.27862 0.62314-0.26281 0.66894 0.17496 0.50563 1.2017 0.29891 5.1722-1.087 18.226-6.3621 24.909-5.0921 32.048 5.3753 8.8217 12.65 14.778 35.975 12.352 48.127-1.8952 9.4935-6.0677 20.933-11.79 32.348-23.447 40.704-43.756 80.926-67.758 121.31 5.1394 2.3806 12.939 5.1078 27.36 6.671l58.197-138.69c4.225-7.019 7.3846-3.5576 10.571 1.947 19.444 34.391 34.472 90.124 54.131 137.64 18.29-0.93549 30.369-3.5445 38.832-7.5129-21.222-45.506-25.839-64.893-92.856-205.19-3.8312-7.2481-13.488-16.108-22.922-14.728z" fill="#ebdbb2" stroke-width=".99761" style="isolation:isolate"/>
  <path d="m108.45 12.034c-0.58991 0.0091-1.1818 0.05437-1.7715 0.14062-15.047 1.6725-29.652 6.1232-43.074 13.127-0.10643 0.25774-0.27753 0.62412-0.26172 0.66992 0.17496 0.50563 1.2014 0.29802 5.1719-1.0879 9.6942-3.3838 16.108-4.5838 21.076-3.4141 5.7562-1.5122 11.621-2.623 17.561-3.2832l2e-3 2e-3c9.4345-1.3801 19.091 7.4805 22.922 14.729 64.314 134.64 71.285 158.11 90.488 199.98 0.63591-0.26705 1.2958-0.52587 1.8945-0.80664-21.222-45.506-25.838-64.894-92.855-205.19-3.5918-6.7951-12.304-15.006-21.152-14.869zm4.9844 59.344c0.0408 2.5774-0.11077 4.9603-0.51953 7.0078-1.8952 9.4935-6.0689 20.933-11.791 32.348-23.447 40.704-43.756 80.925-67.758 121.31 0.93363 0.43247 2.076 0.88184 3.209 1.3281 22.809-38.81 42.483-77.496 65.023-116.62 5.7221-11.415 9.8939-22.852 11.789-32.346 0.70909-3.5519 0.63218-8.1063 0.0469-13.021z" fill="#fbf1c7" opacity=".6" stroke-width=".99761" style="isolation:isolate"/>
  <path d="m91 12c-72 0-85 15-85 87v56c0 70 13 85 85 85h74c72 0 85-15 85-85v-56c0-72-13-87-85-87zm0 4h74c68 0 80 15 80 83v56c0 66-12 81-80 81h-74c-68 0-80-15-80-81v-56c0-68 12-83 80-83z" fill="url(#linearGradient31)" style="isolation:isolate"/>
</svg>
