<svg width="256" height="256" version="1.1" xmlns="http://www.w3.org/2000/svg">
  <linearGradient id="b" x1=".5002" x2=".5002" y2="1" gradientTransform="matrix(244,0,0,228,5.981,12)" gradientUnits="userSpaceOnUse">
    <stop stop-color="#ebdbb2" offset="0"/>
    <stop stop-color="#ebdbb2" offset="1"/>
  </linearGradient>
  <defs>
    <linearGradient id="linearGradient31" x1=".5002" x2=".5002" y2="1" gradientTransform="matrix(244,0,0,228,5.988,12)" gradientUnits="userSpaceOnUse">
      <stop stop-color="#282828" stop-opacity=".1" offset="0"/>
      <stop stop-color="#bdae93" stop-opacity=".1" offset=".1"/>
      <stop stop-color="#d5c4a1" stop-opacity="0" offset=".7022"/>
      <stop stop-color="#bdae93" stop-opacity=".302" offset=".9"/>
      <stop stop-color="#282828" stop-opacity=".15" offset="1"/>
    </linearGradient>
  </defs>
  <path d="m165 12c72 0 85 15 85 87v56c0 70-13 85-85 85h-74c-72 0-85-15-85-85v-56c0-72 13-87 85-87z" fill="url(#b)" style="isolation:isolate"/>
  <path d="m129.3 52.32c-17.89-0.4637-35.47 8.611-45.05 25.17-5.218 9.021-7.317 18.99-6.642 28.65 5.721-2.009 11.87-3.116 18.27-3.116l8.81-8e-3a23.29 23.25 0 0 1 3.093-11.96 23.29 23.25 0 0 1 31.81-8.507 23.29 23.25 0 0 1 9.538 29.74 23.29 23.25 0 0 1-1.008 2.009 23.29 23.25 0 0 1-0.0834 0.1289l-10.09 17.47 7.089 13.56 16.44-8e-3 10.16-17.6c13.93-24.09 5.662-54.89-18.47-68.8-7.542-4.346-15.74-6.529-23.87-6.74zm-12.06 54.33-20.36 0.0156c-27.87 0-50.46 22.59-50.46 50.46s22.59 50.46 50.46 50.46c10.44 0 20.13-3.173 28.17-8.598-4.604-3.948-8.634-8.718-11.84-14.26l-4.413-7.627a23.29 23.29 0 0 1-11.92 3.313 23.29 23.29 0 0 1-23.29-23.29 23.29 23.29 0 0 1 21.04-23.15 23.29 23.29 0 0 1 2.252-0.1362 23.29 23.29 0 0 1 0.1518 8e-3l20.2-0.0156 8.226-12.93zm64 5.156c-1.121 5.959-3.237 11.83-6.437 17.38l-4.397 7.642a23.25 23.29 30 0 1 8.81 8.651 23.25 23.29 30 0 1-8.545 31.81 23.25 23.29 30 0 1-30.52-6.619 23.25 23.29 30 0 1-1.236-1.88 23.25 23.29 30 0 1-0.0683-0.1366l-10.08-17.47-15.29-0.6445-8.219 14.24 10.17 17.61c13.89 24.11 44.7 32.35 68.81 18.4s32.39-44.8 18.5-68.91c-5.203-9.029-12.78-15.83-21.49-20.08z" fill="#282828" opacity=".3" stroke-width="3.882"/>
  <path d="m105.3 160.9 10.16 17.61c13.89 24.11 44.71 32.35 68.82 18.4s32.39-44.8 18.5-68.91c-5.203-9.029-12.78-15.83-21.49-20.07-1.121 5.959-3.238 11.83-6.438 17.38l-4.399 7.635a23.25 23.29 30 0 1 8.81 8.654 23.25 23.29 30 0 1-8.539 31.81 23.25 23.29 30 0 1-30.53-6.616 23.25 23.29 30 0 1-1.241-1.88 23.25 23.29 30 0 1-0.0692-0.1351l-10.08-17.47-15.29-0.648z" fill="#83a598" stroke-width="3.882"/>
  <path d="m161.5 141.6 10.17-17.61c13.93-24.09 5.662-54.89-18.47-68.8-24.13-13.91-54.99-5.654-68.93 18.43-5.218 9.021-7.316 18.98-6.641 28.65 5.721-2.009 11.87-3.113 18.27-3.113l8.812-0.0082a23.29 23.25 0 0 1 3.09-11.96 23.29 23.25 0 0 1 31.82-8.51 23.29 23.25 0 0 1 9.533 29.74 23.29 23.25 0 0 1-1.008 2.015 23.29 23.25 0 0 1-0.0827 0.1273l-10.09 17.47 7.082 13.56z" fill="#458588" stroke-width="3.882"/>
  <path d="m117.3 102.8-20.36 0.0156c-27.87-3.5e-4 -50.46 22.59-50.46 50.46s22.59 50.46 50.46 50.46c10.44 0 20.13-3.173 28.17-8.598-4.604-3.948-8.634-8.718-11.84-14.26l-4.413-7.627a23.29 23.29 0 0 1-11.92 3.313 23.29 23.29 0 0 1-23.29-23.29 23.29 23.29 0 0 1 21.04-23.15 23.29 23.29 0 0 1 2.252-0.1366 23.29 23.29 0 0 1 0.1518 8e-3l20.2-0.0156 8.226-12.93z" fill="#076678" stroke-width="3.882"/>
  <path d="m129.3 48.44c-17.89-0.4638-35.47 8.611-45.05 25.17-4.943 8.546-7.057 17.94-6.695 27.12 0.2993-7.923 2.446-15.89 6.695-23.24 13.93-24.09 44.79-32.34 68.93-18.43 15.67 9.031 24.6 25.19 25.16 42.01 0.8081-18.18-8.28-36.17-25.16-45.89-7.542-4.346-15.74-6.529-23.87-6.74zm21.81 52.32a23.29 23.25 0 0 1-1.979 7.658 23.29 23.25 0 0 1-1.008 2.009 23.29 23.25 0 0 1-0.0834 0.1289l-10.09 17.47 1.061 2.039 9.03-15.63a23.29 23.25 0 0 0 0.0834-0.1289 23.29 23.25 0 0 0 1.008-2.009 23.29 23.25 0 0 0 1.979-11.54zm30.13 7.165c-1.121 5.959-3.237 11.83-6.437 17.38l-4.397 7.642a23.25 23.29 30 0 1 1.645 1.024l2.752-4.784c3.2-5.544 5.316-11.42 6.437-17.38 8.705 4.247 16.28 11.05 21.49 20.08 4.178 7.249 6.316 15.11 6.657 22.93 0.3059-9.09-1.786-18.37-6.657-26.82-5.203-9.029-12.78-15.83-21.49-20.08zm-67.77 38.74-8.219 14.24 1.122 1.941 7.097-12.3 15.29 0.6445 10.08 17.47a23.25 23.29 30 0 0 0.0683 0.1366 23.25 23.29 30 0 0 1.236 1.88 23.25 23.29 30 0 0 30.52 6.619 23.25 23.29 30 0 0 11.55-22.04 23.25 23.29 30 0 1-11.55 18.16 23.25 23.29 30 0 1-30.52-6.619 23.25 23.29 30 0 1-1.236-1.88 23.25 23.29 30 0 1-0.0683-0.1366l-10.08-17.47z" fill="#ebdbb2" opacity=".3" stroke-width="3.882"/>
  <path d="m117.3 102.8-20.36 0.0156c-27.87-3.5e-4 -50.46 22.59-50.46 50.46 0 0.6557 0.07375 1.291 0.0986 1.941 1.029-26.96 23.15-48.52 50.36-48.52l20.36-0.0156 7.051 12.21 1.175-1.85zm-43.54 52.44a23.29 23.29 0 0 0-0.0986 1.911 23.29 23.29 0 0 0 23.29 23.29 23.29 23.29 0 0 0 11.92-3.313l4.413 7.627c2.603 4.508 5.777 8.474 9.341 11.93 0.8438-0.5002 1.683-1.007 2.494-1.554-4.604-3.948-8.634-8.718-11.84-14.26l-4.413-7.627a23.29 23.29 0 0 1-11.92 3.313 23.29 23.29 0 0 1-23.19-21.32z" fill="#ebdbb2" opacity=".2" stroke-width="3.882"/>
  <path d="m91 12c-72 0-85 15-85 87v56c0 70 13 85 85 85h74c72 0 85-15 85-85v-56c0-72-13-87-85-87zm0 4h74c68 0 80 15 80 83v56c0 66-12 81-80 81h-74c-68 0-80-15-80-81v-56c0-68 12-83 80-83z" fill="url(#linearGradient31)" style="isolation:isolate"/>
</svg>
