<svg width="256" height="256" version="1.0" xmlns="http://www.w3.org/2000/svg" enable-background="new">
    <defs>
        <filter id="a" x="-.02" y="-.03" width="1.046" height="1.05" color-interpolation-filters="sRGB">
            <feGaussianBlur stdDeviation="2.32"/>
        </filter>
        <filter id="b" x="-.01" y="-.01" width="1.023" height="1.025" color-interpolation-filters="sRGB">
            <feGaussianBlur stdDeviation="1.16"/>
        </filter>
        <linearGradient id="e" x1="296" x2="296" y1="-212" y2="236" gradientUnits="userSpaceOnUse">
            <stop offset="0" stop-color="#ebdbb2"/>
            <stop offset=".125" stop-color="#ebdbb2" stop-opacity=".098"/>
            <stop offset=".925" stop-opacity=".098"/>
            <stop offset="1" stop-opacity=".498"/>
        </linearGradient>
        <clipPath id="d">
            <path d="M361.938-212C507.235-212 528-191.287 528-46.125v116.25C528 215.286 507.235 236 361.937 236H214.063C68.766 236 48 215.286 48 70.125v-116.25C48-191.287 68.765-212 214.063-212z" fill="#b16286"/>
        </clipPath>
        <linearGradient id="c" x1="33.568" x2="215.568" y1="56.864" y2="288.216" gradientUnits="userSpaceOnUse">
            <stop offset="0" stop-color="#ebdbb2"/>
            <stop offset="1" stop-color="#ebdbb2"/>
        </linearGradient>
    </defs>
    <path d="M162.537 62.432c72.648 0 83.031 10.357 83.031 82.937v58.125c0 72.581-10.383 82.938-83.031 82.938H88.599c-72.648 0-83.031-10.357-83.031-82.938V145.37c0-72.58 10.383-82.937 83.031-82.937z" filter="url(#a)" opacity=".2" transform="translate(0 -44)"/>
    <path d="M162.537 61.432c72.648 0 83.031 10.357 83.031 82.937v58.125c0 72.581-10.383 82.938-83.031 82.938H88.599c-72.648 0-83.031-10.357-83.031-82.938V144.37c0-72.58 10.383-82.937 83.031-82.937z" filter="url(#b)" opacity=".1" transform="translate(0 -44)"/>
    <path d="M162.537 60.432c72.648 0 83.031 10.357 83.031 82.937v58.125c0 72.581-10.383 82.938-83.031 82.938H88.599c-72.648 0-83.031-10.357-83.031-82.938V143.37c0-72.58 10.383-82.937 83.031-82.937z" fill="url(#c)" transform="translate(0 -44)"/>
    <path transform="matrix(.5 0 0 .5 -18.432 122.432)" d="M361.938-212C507.235-212 528-191.287 528-46.125v116.25C528 215.286 507.235 236 361.937 236H214.063C68.766 236 48 215.286 48 70.125v-116.25C48-191.287 68.765-212 214.063-212z" clip-path="url(#d)" fill="none" opacity=".4" stroke-linecap="round" stroke-linejoin="round" stroke-width="8" stroke="url(#e)"/>
    <g fill-opacity=".353" fill="#fb4934">
        <path d="M5.568 128.432v29.062c0 9.073.162 17.173.588 24.403.213 3.615.492 7.011.85 10.203s.793 6.18 1.32 8.975c.527 2.794 1.145 5.396 1.867 7.818s1.548 4.665 2.49 6.74a38.766 38.766 0 0 0 3.192 5.736c1.188 1.754 2.505 3.355 3.964 4.813s3.063 2.772 4.819 3.959a38.85 38.85 0 0 0 5.744 3.187c2.078.942 4.323 1.766 6.748 2.487s5.029 1.339 7.826 1.865c2.798.526 5.787.962 8.983 1.318 3.195.357 6.596.636 10.214.848 7.237.425 15.345.586 24.426.586h36.969v-112zM245.568 128.432V99.37c0-9.073-.162-17.173-.588-24.403-.213-3.615-.492-7.011-.85-10.203s-.793-6.18-1.32-8.975c-.527-2.794-1.145-5.396-1.867-7.818s-1.548-4.665-2.49-6.74a38.756 38.756 0 0 0-3.192-5.736 32.667 32.667 0 0 0-3.964-4.813 32.688 32.688 0 0 0-4.819-3.959 38.852 38.852 0 0 0-5.744-3.187c-2.078-.942-4.323-1.766-6.748-2.487-2.425-.721-5.029-1.339-7.826-1.865a121.776 121.776 0 0 0-8.983-1.318 195.757 195.757 0 0 0-10.214-.848c-7.237-.425-15.345-.586-24.426-.586h-36.969v112z"/>
    </g>
    <g transform="matrix(3.70772 0 0 3.70772 .563 -844.84)">
        <g fill="#fb4934">
            <path d="M40.638 286.277a6.228 6.228 0 0 0 .022-.474 6.228 6.228 0 0 0-.032-.622 6.228 6.228 0 0 0-.094-.615 6.228 6.228 0 0 0-.155-.603 6.228 6.228 0 0 0-.215-.585 6.228 6.228 0 0 0-.271-.56 6.228 6.228 0 0 0-.327-.53 6.228 6.228 0 0 0-.378-.495 6.228 6.228 0 0 0-.425-.455 6.228 6.228 0 0 0-.327-.295 6.228 6.228 0 0 0-.496-.376 6.228 6.228 0 0 0-.532-.324 6.228 6.228 0 0 0-.56-.27 6.228 6.228 0 0 0-.586-.212 6.228 6.228 0 0 0-.603-.153 6.228 6.228 0 0 0-.616-.092 6.228 6.228 0 0 0-.622-.03 6.228 6.228 0 0 0-.622.032 6.228 6.228 0 0 0-.028.004 6.228 6.228 0 0 0 1.874 4.938 6.228 6.228 0 0 0 4.993 1.716zM26.453 286.277a6.228 6.228 0 0 1-.023-.474 6.228 6.228 0 0 1 .032-.622 6.228 6.228 0 0 1 .095-.615 6.228 6.228 0 0 1 .155-.603 6.228 6.228 0 0 1 .214-.585 6.228 6.228 0 0 1 .272-.56 6.228 6.228 0 0 1 .326-.53 6.228 6.228 0 0 1 .378-.495 6.228 6.228 0 0 1 .425-.455 6.228 6.228 0 0 1 .328-.295 6.228 6.228 0 0 1 .496-.376 6.228 6.228 0 0 1 .531-.324 6.228 6.228 0 0 1 .56-.27 6.228 6.228 0 0 1 .586-.212 6.228 6.228 0 0 1 .604-.153 6.228 6.228 0 0 1 .615-.092 6.228 6.228 0 0 1 .622-.03 6.228 6.228 0 0 1 .622.032 6.228 6.228 0 0 1 .028.004 6.228 6.228 0 0 1-1.874 4.938 6.228 6.228 0 0 1-4.992 1.716z"/>
        </g>
        <ellipse cx="33.594" cy="268.426" rx="12.878" ry="11.503" fill="#ebdbb2" stroke-linecap="square" stroke-opacity=".605" stroke-width=".539" stroke="#282828"/>
        <ellipse transform="matrix(.8859 .46386 -.64318 .76571 0 0)" cx="199.327" cy="225.638" rx="1.276" ry=".66" fill-opacity=".559"/>
        <ellipse transform="matrix(.8859 -.46386 -.64318 -.76571 0 0)" cx="-146.954" cy="-257.429" rx="1.276" ry=".66" fill-opacity=".559"/>
        <circle cx="42.014" cy="267.644" r="2.547" fill="#fe8019" opacity=".5"/>
        <circle cx="25.139" cy="267.644" r="2.547" fill-opacity=".559" fill="#fb4934" opacity=".5"/>
        <path d="M23.307 261.134s3.412.874 5.156 1.08c3.382.4 6.822.614 10.213.295 1.669-.157 4.91-1.08 4.91-1.08s-1.423-9.723-1.08-9.723 1.76-.4 2.456-.933c.753-.577 1.409-1.395 1.669-2.308.252-.884-.196-2.75-.196-2.75s-.438-1.738-1.032-2.357c-.542-.565-1.453-.915-2.111-1.03-1.61-.284-4.42.932-4.42.932s-.477-1.434-.883-2.062c-.434-.672-.93-1.367-1.62-1.768-.45-.26-1.003-.327-1.523-.344a4.274 4.274 0 0 0-1.522.246c-.602.21-1.189.514-1.67.933-.51.445-.86 1.05-1.227 1.62-.373.58-.982 1.817-.982 1.817s-1.756-.98-2.8-1.178c-.822-.157-1.704-.446-2.503-.197-.867.27-1.625.953-2.112 1.719-.29.456-.331 1.035-.393 1.571-.113.992-.296 2.059.05 2.996.293.796.956 1.435 1.62 1.964.515.41 1.768.884 1.768.884z" fill="#ebdbb2" stroke-opacity=".605" stroke-width=".539" stroke="#282828"/>
        <ellipse transform="matrix(.99907 .04322 -.0911 .99584 0 0)" cx="52.46" cy="254.228" rx=".716" ry="3.199" fill="#282828"/>
        <ellipse transform="matrix(-.99907 .04322 .0911 .99584 0 0)" cx="-14.75" cy="257.145" rx=".716" ry="3.199" fill="#282828"/>
        <ellipse transform="matrix(-.99815 -.06072 -.01275 .99992 0 0)" cx="-37.004" cy="253.211" rx=".716" ry="3.199" fill="#282828"/>
        <path d="M26.763 271.802c-1.056-.176-2.554-.838-3.116-1.376-.574-.55-.584-1.276-.025-1.94.226-.269.474-.49.55-.49.075 0-.039.19-.254.422-.87.939-.207 1.628 2.049 2.133l.88.197.689-.59c.712-.61 2.576-1.594 3.372-1.78.422-.098.442-.082.279.223-.258.483-.215 1.244.087 1.547.403.403.941.555 1.965.555 2.034 0 2.983-.924 2.302-2.241l-.245-.475.444.105c1.138.268 2.72 1.08 3.89 1.997.32.25.724.455.899.455.557 0 2.362-.624 2.798-.966.564-.444.564-1.126 0-1.57-.23-.181-.352-.33-.27-.33.417 0 1.167.993 1.167 1.543 0 .536-.867 1.417-1.852 1.883-1.832.867-5.044 1.117-7.73.602-1.33-.255-1.488-.254-2.72 0-1.389.288-3.745.332-5.16.096z"/>
    </g>
</svg>
