<svg width="256" height="256" version="1.1" xmlns="http://www.w3.org/2000/svg">
  <linearGradient id="b" x1=".5002" x2=".5002" y2="1" gradientTransform="matrix(244,0,0,228,5.981,12)" gradientUnits="userSpaceOnUse">
    <stop stop-color="#ebdbb2" offset="0"/>
    <stop stop-color="#d5c4a1" offset="1"/>
  </linearGradient>
  <defs>
    <linearGradient id="linearGradient31" x1=".5002" x2=".5002" y2="1" gradientTransform="matrix(244,0,0,228,5.988,12)" gradientUnits="userSpaceOnUse">
      <stop stop-color="#282828" stop-opacity=".1" offset="0"/>
      <stop stop-color="#bdae93" stop-opacity=".1" offset=".1"/>
      <stop stop-color="#d5c4a1" stop-opacity="0" offset=".7022"/>
      <stop stop-color="#bdae93" stop-opacity=".302" offset=".9"/>
      <stop stop-color="#282828" stop-opacity=".15" offset="1"/>
    </linearGradient>
    <linearGradient id="_lgradient_13" x2="3.0998e-5" y2=".99209" gradientTransform="matrix(32.26 0 0 138.75 78.706 43.623)" gradientUnits="userSpaceOnUse">
      <stop stop-color="#fb4934" offset="0"/>
      <stop stop-color="#cc241d" offset="1"/>
    </linearGradient>
  </defs>
  <path d="m165 12c72 0 85 15 85 87v56c0 70-13 85-85 85h-74c-72 0-85-15-85-85v-56c0-72 13-87 85-87z" fill="url(#b)" style="isolation:isolate"/>
  <path d="m82.95 201.92-3.1072-0.30104-0.1891-0.78397c-0.47274-1.9471-1.9446-16.493-1.6949-16.744 0.23345-0.23315 15.846 1.0991 15.816 1.3489-0.084 0.71608-2.7886 10.281-3.7796 13.367l-1.1229 3.4971-1.4077-0.041c-0.77389-0.0218-2.8049-0.17679-4.5149-0.34203z" fill="#fabd2f" stroke-width="1.2228" style="isolation:isolate"/>
  <path d="m87.309 40.25-11.506 137.88c-0.5251 3.1319-0.26522 6.2058 0.058594 9.334 0.30449 2.8537 0.96649 8.2776 1.6934 11.938 1.6054 11.361 7.9392 14.854 13.318 1.6387 3.3454-8.0901 5.029-14.554 5.8418-20.834l6.9414-53.635c45.308 14.325 31.871 58.698 76.871 85.18l5.0606-8.5898c-33.884-20.026-31.033-55.486-59.051-76.23 39.165-2.2337 60.74-22.636 60.74-42.859 0-31.743-45.651-42.083-74.805-42.244l-25.164-1.5762zm2.9199 3.3789 20.789 1.3008-9.1387 71.188c-0.77677 0.11685-1.5268 0.39528-2.1719 0.86328-1.02 0.74-1.7285 1.8303-1.9785 3.0703-0.25 1.23-0.021328 2.5198 0.63867 3.5898 0.54188 0.8785 1.3546 1.5517 2.2949 1.9531l-7.2734 56.646-14.65-0.9707 11.49-137.64zm23.049 8.6113c41.44 0.39548 64.031 15.005 64.031 31.82 0 18.813-28.023 37.336-72.32 32.217l8.2891-64.037zm-34.393 132.23 13.824 0.92187c-1.6416 5.4343-3.2396 10.891-5.5605 16.082-1.062-0.24075-5.2325-0.66836-5.9375-0.5918-1.073-4.4102-1.7587-9.6739-2.3262-16.412z" fill="#3c3836" style="isolation:isolate"/>
  <path d="m87.309 44.363-11.506 137.88c-0.5251 3.1319-0.26522 6.2058 0.05859 9.334 0.30449 2.8537 0.96649 8.2776 1.6934 11.938 1.6054 11.361 7.9392 14.854 13.318 1.6387 3.3454-8.0901 5.029-14.554 5.8418-20.834l6.9414-53.635c45.308 14.325 31.871 58.698 76.871 85.18l5.0606-8.5898c-33.884-20.026-31.033-55.486-59.051-76.23 39.165-2.2337 60.74-22.636 60.74-42.859 0-31.743-45.651-42.083-74.805-42.244zm2.9199 3.3789 20.789 1.3008-9.1387 71.188c-0.77677 0.11685-1.5268 0.39528-2.1719 0.86328-1.02 0.74-1.7285 1.8303-1.9785 3.0703-0.25 1.23-0.0213 2.5198 0.63867 3.5898 0.54188 0.8785 1.3546 1.5517 2.2949 1.9531l-7.2734 56.646-14.65-0.9707zm23.049 8.6113c41.44 0.39548 64.031 15.005 64.031 31.82 0 18.813-28.023 37.336-72.32 32.217zm-34.393 132.23 13.824 0.92187c-1.6416 5.4343-3.2396 10.891-5.5605 16.082-1.062-0.24075-5.2325-0.66836-5.9375-0.5918-1.073-4.4102-1.7587-9.6739-2.3262-16.412z" fill="#282828" opacity=".15" style="isolation:isolate"/>
  <path d="m78.738 181.27 11.49-137.64 20.79 1.3-17.63 137.31z" fill="url(#_lgradient_13)" style="isolation:isolate"/>
  <path d="m91 12c-72 0-85 15-85 87v56c0 70 13 85 85 85h74c72 0 85-15 85-85v-56c0-72-13-87-85-87zm0 4h74c68 0 80 15 80 83v56c0 66-12 81-80 81h-74c-68 0-80-15-80-81v-56c0-68 12-83 80-83z" fill="url(#linearGradient31)" style="isolation:isolate"/>
</svg>
