<svg width="256" height="256" version="1.1" xmlns="http://www.w3.org/2000/svg" xmlns:xlink="http://www.w3.org/1999/xlink">
  <linearGradient id="b" x1=".5002" x2=".5002" y2="1" gradientTransform="matrix(244,0,0,228,5.981,12)" gradientUnits="userSpaceOnUse">
    <stop stop-color="#ebdbb2" offset="0"/>
    <stop stop-color="#d5c4a1" offset="1"/>
  </linearGradient>
  <defs>
    <linearGradient id="linearGradient15" x1="40.612" x2="40.612" y1="13.484" y2="238.53" gradientUnits="userSpaceOnUse">
      <stop stop-color="#ebdbb2" stop-opacity=".15" offset="0"/>
      <stop stop-color="#ebdbb2" stop-opacity=".05" offset=".10235"/>
      <stop stop-opacity="0" offset=".70294"/>
      <stop stop-opacity=".1" offset=".90324"/>
      <stop stop-opacity=".2" offset="1"/>
    </linearGradient>
    <linearGradient id="linearGradient31-2" x1=".5002" x2=".5002" y2="1" gradientTransform="matrix(244,0,0,228,5.988,12)" gradientUnits="userSpaceOnUse">
      <stop stop-color="#282828" stop-opacity=".1" offset="0"/>
      <stop stop-color="#bdae93" stop-opacity=".1" offset=".1"/>
      <stop stop-color="#d5c4a1" stop-opacity="0" offset=".7022"/>
      <stop stop-color="#bdae93" stop-opacity=".302" offset=".9"/>
      <stop stop-color="#282828" stop-opacity=".15" offset="1"/>
    </linearGradient>
  </defs>
  <path d="m165 12c72 0 85 15 85 87v56c0 70-13 85-85 85h-74c-72 0-85-15-85-85v-56c0-72 13-87 85-87z" fill="url(#b)" style="isolation:isolate"/>
  <path d="m60 48.972v3.082h186.19c-0.25097-1.0551-0.5139-2.0786-0.79475-3.082zm0 36.973v3.082h189.91c-0.0207-1.0061-0.0468-2.1009-0.0747-3.082zm0 36.973v3.082h190v-3.082zm0 36.975v3.0801h189.94c0.0171-1.0122 0.0298-2.0424 0.04-3.0801zm0 36.973v3.0801h186.37c0.23536-1.0061 0.45413-2.0261 0.6631-3.0801z" fill="#a89984" style="isolation:isolate"/>
  <path d="m84.662 12.042c-2.0545 0.02912-4.2103 0.07461-6.1621 0.13428v227.65c1.9518 0.0594 4.1076 0.10488 6.1621 0.13388z" fill="#cc241d" style="isolation:isolate"/>
  <path d="m204.79 83.445c-0.30073-2.4306 1.5783-6.277 1.3261-11.514-0.26004-5.2451-2.823-12.554-13.342-17.859-0.18732-0.09367-0.37405-0.18795-0.56939-0.28161-6.8419-3.3091-16.816-5.68-28.45-4.5202-9.0384 0.90405-18.427 3.8976-27.278 9.1768-7.9645 4.7334-15.303 11.215-21.258 19.232-3.4983 5.0404-6.549 10.746-8.7293 16.904-0.94373 2.6609-1.7247 5.4157-2.3104 8.2301-0.7566 3.6588-1.1716 7.6586-1.0088 11.88 0.43136 6.6949 2.3348 14.012 6.5897 20.597 2.0094 3.1215 4.507 5.953 7.3951 8.3154 2.8718 2.3624 6.1585 4.2728 9.7462 5.5265 5.7518 1.9701 11.406 1.9701 16.084 1.2281 2.4813-0.39253 4.7592-0.99784 6.7686-1.6716 2.4813-0.82727 4.7592-1.7825 6.5572-2.5927 3.9213-1.7995 7.5985-3.9572 10.527-5.6971 2.9287-1.7398 5.8006-3.4882 8.5584-4.9039 1.6434-0.81877 3.5959-1.7313 5.5239-2.4221 0.5127-0.17932 1.0251-0.3494 1.5376-0.49482 1.92-0.5546 3.8156-0.8017 5.4996-0.62263 1.44 0.14482 2.6603 0.63963 3.482 1.2452 0.35002 0.23046 0.65086 0.55459 0.90301 0.89549 0.22 0.3155 0.36604 0.61375 0.44738 0.77612 0.0893 0.20458 0.13806 0.62256-0.0186 1.2281-0.14671 0.61375-0.46401 1.3219-0.95182 2.0298-0.50468 0.72492-1.2041 1.4754-2.1478 2.2515-0.92745 0.7505-2.0339 1.484-3.3192 2.1918-2.823 1.4243-5.6298 2.3795-9.5754 3.9232-3.5796 1.3987-7.8507 3.2067-11.853 6.0723-2.099 1.5522-4.1979 3.4882-6.004 5.8336-1.7979 2.3453-3.3599 5.1768-4.2304 8.4945-0.781 3.3176-0.82173 7.0019 0.228 10.541 0.52871 1.7995 1.3423 3.5053 2.3836 5.0233 1.0576 1.5352 2.3837 2.9254 3.9538 4.0341 2.7904 1.9445 5.8656 2.661 8.5259 2.7377h0.90305c2.2535-0.0616 4.4012-0.54597 6.3619-1.2366 2.0501-0.6567 3.905-1.5437 5.4996-2.3283 1.627-0.8102 2.8799-1.4669 4.1897-2.0127 1.1959-0.5546 2.2372-0.91256 3.181-1.0661 0.89486-0.14482 1.627-0.0771 2.1558 0.077 0.23602 0.0684 0.44738 0.17931 0.61832 0.29023 0.16268 0.11086 0.27668 0.21322 0.33336 0.26436 0.0893 0.0431 0.1707 0.11085 0.228 0.12815 0.0653 0 0.12202 0.0369 0.20336 0.0184 0.0733-0.0184 0 0.25573-0.2927 0.61376-0.342 0.41779-0.83794 0.83576-1.6027 1.4583-0.74031 0.58849-1.7491 1.3646-2.6684 2.3198-1.0169 1.049-2.0095 2.3795-2.6197 4.0255-0.61005 1.663-0.70777 3.3688-0.45537 4.8698 0.29269 1.7483 1.0657 3.1812 1.9607 4.1961 1.204 1.3816 2.6033 1.9701 3.6365 2.1322 0.25203 0.0369 0.48805 0.0494 0.70779 0.0431 1.8386-0.0684 2.5789-1.5437 2.9043-1.9787-0.45538-0.4523-0.91926-1.6119-1.2854-2.6012-0.0431-0.11086-0.0813-0.21322-0.114-0.32414-0.1467-0.43504-0.27668-0.91255-0.24402-1.339 0.0186-0.30688 0.0893-0.63112 0.228-0.83577 0.114-0.17932 0.27668-0.34139 0.42273-0.40116 0.1467-0.0684 0.39068-0.27299 0.82979-0.5546 0.54475-0.34138 0.92748-0.53733 1.8956-1.0832 0.7566-0.4178 1.8793-1.0661 2.9532-1.9445 1.0739-0.87847 2.3105-2.1577 3.1891-3.9402 0.78101-1.5949 1.1634-3.3603 1.1634-5.1001 6e-3 -1.7398-0.36604-3.4285-1.0169-4.938-0.68333-1.5181-1.6271-2.8144-2.7009-3.8805-1.082-1.0746-2.3104-1.9275-3.5959-2.5672-2.5789-1.2708-5.2961-1.6289-7.6798-1.5351-2.4651 0.0937-4.7267 0.67377-6.5897 1.2878-1.8386 0.64814-3.7423 1.501-5.0928 2.0725-1.5539 0.6567-2.7498 1.1087-3.8806 1.3816-1.0658 0.19595-1.8711 0.17932-2.4569 0.0431-0.0733-0.0184-0.1467-0.0369-0.21998-0.0616-0.59404-0.19595-0.91933-0.53734-0.82985-0.7079 0.0494-0.0684 0.0555-0.15346 0.0733-0.29825 0.0186-0.1368 0.0308-0.29024 0.0973-0.42643 0.0973-0.29023 0.26005-0.79312 0.59404-1.2622 0.24401-0.52007 0.65084-1.1088 1.318-1.774 0.68339-0.68227 1.5783-1.3731 2.6522-1.9872 2.164-1.3645 4.743-2.3795 8.0866-3.4796 3.0914-1.0234 7.33-2.2772 11.227-3.9744 2.0989-0.86991 4.2792-1.936 6.3944-3.2835 2.164-1.373 4.3036-3.0617 6.2561-5.1513 2.0257-2.1833 3.7829-4.759 5.0765-7.6416 1.326-2.968 2.1884-6.3367 2.2698-9.9443 0.0813-3.5564-0.61006-6.9167-1.7654-9.8847-1.1875-3.079-2.9204-5.8422-4.9867-8.1535-4.3769-4.8954-9.9171-7.5564-14.896-8.7077-5.768-1.339-11.178-0.84434-15.335 0.077-1.1553 0.26436-2.2454 0.55459-3.2623 0.86991-3.8399 1.1855-7.029 2.7803-9.2663 4.017-3.6365 1.9701-7.2568 4.3666-9.7218 5.9444-2.8637 1.8337-5.4263 3.42-7.9971 4.6396-1.1471 0.55459-2.4 1.049-3.7017 1.3902-1.0414 0.26436-2.0583 0.44368-3.059 0.49482-1.9118 0.10229-3.5226-0.25573-4.6128-0.91255-0.63458-0.35802-1.2854-0.87848-1.8793-1.5608-0.59402-0.69078-1.0983-1.4925-1.44-2.3454-0.781-1.8933-1.0251-4.1875-0.68338-6.3623 0.0893-1.356 0.37404-2.7206 0.82166-4.0766 0.35-1.049 0.8298-2.1151 1.44-3.1897 1.4318-2.5245 3.5064-4.9125 5.9388-6.9679 3.7829-3.6588 8.2086-6.3026 12.699-8.0168 4.9951-1.9105 9.7787-2.5671 13.977-2.6012 5.3693-0.03697 10.177 0.92962 13.944 1.3902 0.10598 0.0061 0.21136 0.02466 0.31736 0.03697 5.9551 0.69078 10.519-0.76762 14.57-2.7974 3.9294-1.9616 7.4439-4.614 9.6404-4.631z" fill="#282828" opacity=".15" stroke-width="6.1622"/>
  <path d="m204.79 77.283c-0.30073-2.4306 1.5783-6.277 1.3261-11.514-0.26004-5.2451-2.823-12.554-13.342-17.859-0.18732-0.09367-0.37405-0.18795-0.56939-0.28161-6.8419-3.3091-16.816-5.6801-28.45-4.5202-9.0384 0.90405-18.427 3.8976-27.278 9.1768-7.9645 4.7334-15.303 11.215-21.258 19.232-3.4983 5.0404-6.549 10.746-8.7293 16.904-0.94373 2.6609-1.7247 5.4157-2.3104 8.2301-0.7566 3.6588-1.1716 7.6586-1.0088 11.88 0.43136 6.695 2.3348 14.012 6.5897 20.597 2.0094 3.1214 4.507 5.953 7.3951 8.3153 2.8718 2.3624 6.1585 4.2728 9.7462 5.5265 5.7518 1.9701 11.406 1.9701 16.084 1.2281 2.4813-0.39253 4.7592-0.99784 6.7686-1.6716 2.4813-0.82727 4.7592-1.7825 6.5572-2.5927 3.9213-1.7995 7.5985-3.9573 10.527-5.6971 2.9287-1.7398 5.8006-3.4882 8.5584-4.9039 1.6434-0.81876 3.5959-1.7313 5.5239-2.4222 0.5127-0.17932 1.0251-0.35001 1.5376-0.49482 1.92-0.55459 3.8156-0.8017 5.4996-0.62256 1.44 0.14482 2.6603 0.63963 3.482 1.2452 0.35002 0.23046 0.65086 0.55459 0.90301 0.89548 0.22 0.3155 0.36604 0.61375 0.44738 0.77613 0.0893 0.20458 0.13806 0.62256-0.0186 1.2281-0.14671 0.61375-0.46401 1.3219-0.95182 2.0298-0.50468 0.72498-1.2041 1.4755-2.1478 2.2516-0.92745 0.75049-2.0339 1.484-3.3192 2.1918-2.823 1.4243-5.6298 2.3795-9.5754 3.9231-3.5796 1.3987-7.8507 3.2068-11.853 6.0724-2.099 1.5522-4.1979 3.4882-6.004 5.8336-1.7979 2.3453-3.3599 5.1768-4.2304 8.4945-0.781 3.3176-0.82173 7.002 0.228 10.541 0.52871 1.7995 1.3423 3.5053 2.3836 5.0233 1.0576 1.5352 2.3837 2.9253 3.9538 4.0341 2.7904 1.9445 5.8656 2.6609 8.5259 2.7377h0.90305c2.2535-0.0616 4.4012-0.54597 6.3619-1.2366 2.0501-0.65671 3.905-1.5437 5.4996-2.3283 1.627-0.81025 2.8799-1.467 4.1897-2.0127 1.1959-0.55461 2.2372-0.91257 3.181-1.0661 0.89486-0.14482 1.627-0.077 2.1558 0.077 0.23602 0.0684 0.44738 0.17932 0.61832 0.29024 0.16268 0.11086 0.27668 0.21322 0.33336 0.26436 0.0893 0.0431 0.1707 0.11085 0.228 0.12815 0.0653 0 0.12202 0.0369 0.20336 0.0184 0.0733-0.0184 0 0.25574-0.2927 0.61438-0.342 0.41779-0.83794 0.83583-1.6027 1.4584-0.74031 0.58849-1.7491 1.3646-2.6684 2.3198-1.0169 1.049-2.0095 2.3794-2.6197 4.0255-0.61005 1.663-0.70777 3.3688-0.45537 4.8698 0.29269 1.7483 1.0657 3.1812 1.9607 4.1961 1.204 1.3816 2.6033 1.9701 3.6365 2.1321 0.25203 0.037 0.48805 0.0494 0.70779 0.0431 1.8386-0.0684 2.5789-1.5437 2.9043-1.9786-0.45538-0.4523-0.91926-1.6119-1.2854-2.6012-0.0431-0.11086-0.0813-0.21321-0.114-0.32413-0.1467-0.43505-0.27668-0.91256-0.24402-1.339 0.0186-0.30689 0.0893-0.63113 0.228-0.83585 0.114-0.17931 0.27668-0.34138 0.42273-0.40115 0.1467-0.0684 0.39068-0.27299 0.82979-0.55459 0.54475-0.34139 0.92748-0.53734 1.8956-1.0831 0.7566-0.41779 1.8793-1.066 2.9532-1.9445 1.0739-0.87843 2.3105-2.1577 3.1891-3.9402 0.78101-1.5949 1.1634-3.3603 1.1634-5.1001 6e-3 -1.7398-0.36604-3.4285-1.0169-4.938-0.68333-1.5181-1.6271-2.8144-2.7009-3.8806-1.082-1.0746-2.3104-1.9275-3.5959-2.5671-2.5789-1.2708-5.2961-1.629-7.6798-1.5351-2.4651 0.0937-4.7267 0.67377-6.5897 1.2878-1.8386 0.64814-3.7423 1.501-5.0928 2.0724-1.5539 0.6567-2.7498 1.1088-3.8806 1.3817-1.0658 0.19597-1.8711 0.17932-2.4569 0.0431-0.0733-0.0185-0.1467-0.0369-0.21998-0.0616-0.59404-0.19595-0.91933-0.53734-0.82985-0.70791 0.0494-0.0684 0.0555-0.15347 0.0733-0.29824 0.0186-0.1368 0.0308-0.29024 0.0973-0.42642 0.0973-0.29024 0.26005-0.79315 0.59404-1.2622 0.24401-0.52009 0.65084-1.1088 1.318-1.774 0.68339-0.68229 1.5783-1.3731 2.6522-1.9872 2.164-1.3645 4.743-2.3794 8.0866-3.4796 3.0914-1.0235 7.33-2.2772 11.227-3.9744 2.0989-0.86991 4.2792-1.936 6.3944-3.2835 2.164-1.3731 4.3036-3.0617 6.2561-5.1513 2.0257-2.1833 3.7829-4.759 5.0765-7.6416 1.326-2.968 2.1884-6.3367 2.2698-9.9443 0.0813-3.5564-0.61006-6.9167-1.7654-9.8847-1.1875-3.079-2.9204-5.8422-4.9867-8.1535-4.3769-4.8954-9.9171-7.5564-14.896-8.7077-5.768-1.339-11.178-0.84434-15.335 0.077-1.1553 0.26436-2.2454 0.55459-3.2623 0.86991-3.8399 1.1855-7.029 2.7803-9.2663 4.0169-3.6365 1.9701-7.2568 4.3666-9.7218 5.9444-2.8637 1.8337-5.4263 3.4199-7.9971 4.6396-1.1471 0.55459-2.4 1.049-3.7017 1.3902-1.0414 0.26436-2.0583 0.44368-3.059 0.49482-1.9118 0.10229-3.5226-0.25573-4.6128-0.91255-0.63458-0.35802-1.2854-0.87848-1.8793-1.5608-0.59402-0.69084-1.0983-1.4925-1.44-2.3454-0.781-1.8933-1.0251-4.1875-0.68338-6.3623 0.0893-1.356 0.37404-2.7207 0.82166-4.0767 0.35-1.049 0.8298-2.115 1.44-3.1896 1.4318-2.5245 3.5064-4.9125 5.9388-6.9679 3.7829-3.6588 8.2086-6.3027 12.699-8.0169 4.9951-1.9104 9.7787-2.5671 13.977-2.6012 5.3693-0.03697 10.177 0.92962 13.944 1.3901 0.10598 0.0061 0.21136 0.02464 0.31736 0.03697 5.9551 0.69084 10.519-0.76756 14.57-2.7974 3.9294-1.9615 7.4439-4.614 9.6404-4.631z" fill="#3c3836" stroke-width="6.1622"/>
  <path d="m91 12c-72 0-85 15-85 87v56c0 70 13 85 85 85h74c72 0 85-15 85-85v-56c0-72-13-87-85-87zm0 4h74c68 0 80 15 80 83v56c0 66-12 81-80 81h-74c-68 0-80-15-80-81v-56c0-68 12-83 80-83z" fill="url(#linearGradient31-2)" style="isolation:isolate"/>
  <path d="m60 13.484c-44.813 5.1089-54 25.445-54 85.516v56c0 58.402 9.187 78.462 54 83.525z" fill="#504945" style="isolation:isolate"/>
  <path d="m60 13.484c-44.813 5.1089-54 25.445-54 85.516v56c0 58.402 9.187 78.462 54 83.525v-4.1699c-40.79-5.2969-49-25.034-49-79.355v-56c0-55.967 8.2101-75.997 49-81.346v-4.1699z" fill="url(#linearGradient15)" style="isolation:isolate"/>
</svg>
