<svg width="256" height="256" version="1.1" xmlns="http://www.w3.org/2000/svg">
  <defs>
    <linearGradient id="linearGradient10" x1="128" x2="128" y1="12" y2="240" gradientUnits="userSpaceOnUse">
      <stop stop-color="#ebdbb2" stop-opacity=".2" offset="0"/>
      <stop stop-color="#ebdbb2" stop-opacity="0" offset=".24921"/>
      <stop stop-color="#1d2021" stop-opacity=".05" offset=".50485"/>
      <stop stop-color="#1d2021" stop-opacity=".15" offset=".75285"/>
      <stop stop-color="#1d2021" stop-opacity=".25" offset="1"/>
    </linearGradient>
    <linearGradient id="linearGradient15" x1="128" x2="128" y1="12" y2="240" gradientUnits="userSpaceOnUse">
      <stop stop-color="#b16286" offset="0"/>
      <stop stop-color="#8f3f71" offset="1"/>
    </linearGradient>
  </defs>
  <path d="m165 12c72 0 85 15 85 87v56c0 70-13 85-85 85h-74c-72 0-85-15-85-85v-56c0-72 13-87 85-87z" fill="url(#linearGradient15)" style="isolation:isolate"/>
  <path class="ColorScheme-Text" d="m39.426 72.178c-3.1434 0-5.684 2.5406-5.684 5.684v12.196c0 3.1434 2.5406 5.684 5.684 5.684h135.7c6.5274 0 11.782 5.2549 11.782 11.782s-5.2549 11.782-11.782 11.782h-135.7c-3.1434 0-5.684 2.5406-5.684 5.684v12.196c0 3.1434 2.5406 5.684 5.684 5.684h135.7c6.5274 0 11.782 5.2549 11.782 11.782s-5.2549 11.782-11.782 11.782h-135.7c-3.1434 0-5.684 2.5406-5.684 5.684v12.196c0 3.1434 2.5406 5.684 5.684 5.684h147.48c19.521 0 35.347-15.825 35.347-35.347-0.0236-8.7062-3.2612-17.097-9.0898-23.564 5.8285-6.4673 9.0652-14.858 9.0898-23.564 0-19.521-15.825-35.347-35.347-35.347z" color="#ebdbb2" fill="#282828" opacity=".2" stroke-width="11.782"/>
  <path class="ColorScheme-Text" d="m39.426 67.178c-3.1434 0-5.684 2.5406-5.684 5.684v12.196c0 3.1434 2.5406 5.684 5.684 5.684h135.7c6.5274 0 11.782 5.2549 11.782 11.782 0 6.5274-5.2549 11.782-11.782 11.782h-135.7c-3.1434 0-5.684 2.5406-5.684 5.684v12.196c0 3.1434 2.5406 5.684 5.684 5.684h135.7c6.5274 0 11.782 5.2549 11.782 11.782s-5.2549 11.782-11.782 11.782h-135.7c-3.1434 0-5.684 2.5406-5.684 5.684v12.196c0 3.1434 2.5406 5.684 5.684 5.684h147.48c19.521 0 35.347-15.825 35.347-35.347-0.0236-8.7062-3.2612-17.097-9.0898-23.564 5.8285-6.4673 9.0652-14.858 9.0898-23.564 0-19.521-15.825-35.347-35.347-35.347z" color="#ebdbb2" fill="#ebdbb2" stroke-width="11.782"/>
  <path class="ColorScheme-Text" d="m39.426 67.178c-3.1434 0-5.6836 2.5402-5.6836 5.6836v5c-1e-6 -3.1434 2.5402-5.6836 5.6836-5.6836h147.48c18.661 0 33.945 14.46 35.256 32.787 0.0583-0.80998 0.0895-1.6226 0.0918-2.4394 0-19.521-15.826-35.348-35.348-35.348zm147.22 37.848c-1.1405 5.3185-5.8505 9.2812-11.52 9.2812h-135.7c-3.1434 0-5.6836 2.5402-5.6836 5.6836v5c-1e-6 -3.1434 2.5402-5.6836 5.6836-5.6836h135.7c6.5274 0 11.781-5.2539 11.781-11.781 0-0.85836-0.089-1.6947-0.26172-2.5zm28.574 23.564c-0.64371 0.86106-1.3296 1.6954-2.0547 2.5 5.2813 5.8601 8.4348 13.299 8.998 21.121 0.0604-0.84467 0.0918-1.6966 0.0918-2.5566-0.0207-7.6231-2.5046-15.004-7.0352-21.064zm-28.574 23.564c-1.1405 5.3185-5.8505 9.2812-11.52 9.2812h-135.7c-3.1434 0-5.6836 2.5402-5.6836 5.6836v5c-1e-6 -3.1434 2.5402-5.6836 5.6836-5.6836h135.7c6.5274 0 11.781-5.2539 11.781-11.781 0-0.85836-0.089-1.6947-0.26172-2.5z" color="#ebdbb2" fill="#fbf1c7" opacity=".6" stroke-width="11.782"/>
  <path d="m91 12c-72 0-85 15-85 87v56c0 70 13 85 85 85h74c72 0 85-15 85-85v-56c0-72-13-87-85-87zm0 5h74c35.653 0 55.307 3.9448 65.895 14.965 10.588 11.02 14.105 31.336 14.105 67.035v56c0 34.69-3.4936 54.457-14.07 65.25-10.577 10.793-30.277 14.75-65.93 14.75h-74c-35.653 0-55.353-3.9574-65.93-14.75-10.577-10.793-14.07-30.56-14.07-65.25v-56c0-35.699 3.5176-56.015 14.105-67.035 10.588-11.02 30.242-14.965 65.895-14.965z" fill="url(#linearGradient10)" style="isolation:isolate"/>
</svg>
