<svg width="256" height="256" version="1.1" xmlns="http://www.w3.org/2000/svg">
  <defs>
    <linearGradient id="linearGradient31" x1=".5002" x2=".5002" y2="1" gradientTransform="matrix(244,0,0,228,5.986,12)" gradientUnits="userSpaceOnUse">
      <stop stop-color="#ebdbb2" stop-opacity=".2" offset="0"/>
      <stop stop-color="#ebdbb2" stop-opacity=".05" offset=".1"/>
      <stop stop-opacity="0" offset=".7036"/>
      <stop stop-opacity=".1" offset=".8975"/>
      <stop stop-opacity=".2" offset="1"/>
    </linearGradient>
    <linearGradient id="linearGradient6" x1="140" x2="140" y1="12" y2="240" gradientUnits="userSpaceOnUse">
      <stop stop-color="#504945" offset="0"/>
      <stop stop-color="#3c3836" offset="1"/>
    </linearGradient>
  </defs>
  <path d="m165 12c72 0 85 15 85 87v56c0 70-13 85-85 85h-74c-72 0-85-15-85-85v-56c0-72 13-87 85-87z" fill="url(#linearGradient6)" style="isolation:isolate"/>
  <path d="m111.51 72.243v116.76h21.228v-42.456h21.309l32.654 42.456h26.784l-34.867-45.333a37.15 37.15 0 0 0 23.113-34.273 37.15 37.15 0 0 0-37.15-37.15h-31.843zm21.228 21.228h26.535c9.0447 0 15.922 6.8777 15.922 15.922 0 9.0446-6.8777 15.92-15.922 15.92h-26.535z" fill="#282828" opacity=".5" stroke-width="5.3072"/>
  <path d="m42.516 98.779v90.221h21.228v-68.993h37.15v-21.228c-14.509-0.0589-26.805 3.9306-37.15 11.49v-11.49z" fill="#282828" opacity=".5" stroke-width="5.3072"/>
  <path d="m111.51 67v116.76h21.228v-42.456h21.309l32.654 42.456h26.784l-34.867-45.333a37.15 37.15 0 0 0 23.113-34.273 37.15 37.15 0 0 0-37.15-37.15h-31.843zm21.228 21.228h26.535c9.0447 0 15.922 6.8777 15.922 15.922 0 9.0446-6.8777 15.92-15.922 15.92h-26.535z" fill="#ebdbb2" stroke-width="5.3072"/>
  <path d="m111.51 67v5.2434h53.071a37.15 37.15 0 0 1 36.983 33.812 37.15 37.15 0 0 0 0.16756-1.9053 37.15 37.15 0 0 0-37.15-37.15h-31.843zm63.469 39.773c-1.1899 7.7149-7.5606 13.298-15.706 13.298h-26.535v5.2434h26.535c9.0447 0 15.922-6.8758 15.922-15.92 0-0.89877-0.0853-1.7694-0.21651-2.6208zm6.535 35.416a37.15 37.15 0 0 1-2.8956 1.478l30.834 40.089h4.0328z" fill="#fbf1c7" opacity=".6" stroke-width="5.3072"/>
  <path d="m42.516 93.535v90.221h21.228v-68.993h37.15v-21.228c-14.509-0.058937-26.805 3.9306-37.15 11.49v-11.49z" fill="#a89984" stroke-width="5.3072"/>
  <path d="m42.516 93.535v5.2434h21.228v-5.2434zm58.378 0c-14.509-0.058937-26.805 3.9306-37.15 11.49v5.2434c10.345-7.5598 22.641-11.549 37.15-11.49z" fill="#ebdbb2" opacity=".2" stroke-width="5.3072"/>
  <path d="m91 12c-72 0-85 15-85 87v56c0 70 13 85 85 85h74c72 0 85-15 85-85v-56c0-72-13-87-85-87zm0 4h74c68 0 80 15 80 83v56c0 66-12 81-80 81h-74c-68 0-80-15-80-81v-56c0-68 12-83 80-83z" fill="url(#linearGradient31)" style="isolation:isolate"/>
</svg>
