<svg width="256" height="256" version="1.1" xmlns="http://www.w3.org/2000/svg">
  <defs>
    <linearGradient id="linearGradient31" x1=".5002" x2=".5002" y2="1" gradientTransform="matrix(244,0,0,228,5.986,12)" gradientUnits="userSpaceOnUse">
      <stop stop-color="#ebdbb2" stop-opacity=".2" offset="0"/>
      <stop stop-color="#ebdbb2" stop-opacity=".05" offset=".1"/>
      <stop stop-opacity="0" offset=".7036"/>
      <stop stop-opacity=".1" offset=".8975"/>
      <stop stop-opacity=".2" offset="1"/>
    </linearGradient>
    <linearGradient id="linearGradient6" x1="140" x2="140" y1="12" y2="240" gradientUnits="userSpaceOnUse">
      <stop stop-color="#504945" offset="0"/>
      <stop stop-color="#3c3836" offset="1"/>
    </linearGradient>
    <linearGradient id="b-9-6" x1=".6312" x2=".6312" y1=".4998" y2=".9998" gradientTransform="matrix(244,0,0,228,5.995,12)" gradientUnits="userSpaceOnUse">
      <stop stop-color="#458588" offset="0"/>
      <stop stop-color="#076678" offset="1"/>
    </linearGradient>
  </defs>
  <path d="m165 12c72 0 85 15 85 87v56c0 70-13 85-85 85h-74c-72 0-85-15-85-85v-56c0-72 13-87 85-87z" fill="url(#linearGradient6)" style="isolation:isolate"/>
  <path d="m84.25 59.75v14.583h21.875v14.583h-36.458v36.458h-14.583v-21.875h-14.583v58.333h14.583v-21.875h14.583v21.875l29.167 29.167h65.625l14.583-14.583 14.583 0.11668v7.1779h14.583l7.2917-7.2917v-58.333l-7.2917-7.2917h-14.583v7.2917h-5.4688l-29.167-29.167h-38.281v-14.583h21.875v-14.583zm0 43.75h65.625l29.167 29.167h21.875v29.167h-29.167l-14.583 14.583h-49.219l-23.698-23.698z" fill="#282828" opacity=".5" stroke-width="7.2917"/>
  <path d="m84.25 55.182v14.583h21.875v14.583h-36.458v36.458h-14.583v-21.875h-14.583v58.333h14.583v-21.875h14.583v21.875l29.167 29.167h65.625l14.583-14.583 14.583 0.11668v7.1779h14.583l7.2917-7.2917v-58.333l-7.2917-7.2917h-14.583v7.2917h-5.4688l-29.167-29.167h-38.281v-14.583h21.875v-14.583zm0 43.75h65.625l29.167 29.167h21.875v29.167h-29.167l-14.583 14.583h-49.219l-23.698-23.698z" fill="#fe8019" stroke-width="7.2917"/>
  <path d="m84.25 55.181v4.5684l58.334 2e-3v-4.5665zm-14.582 29.166v4.5684h36.457v-4.5684zm51.041 0.0039v4.5664h38.279l29.168 29.168h5.4688v-4.5684h-5.4688l-29.168-29.166zm-80.207 14.58v4.5664h14.582v-4.5664zm153.12 7.2949v4.5684h14.582l7.293 7.291v-4.5684l-7.293-7.291zm-138.54 14.58v4.5664h14.584v-4.5664zm29.166 27.344v4.5684l23.697 23.699h49.221l14.582-14.584h29.168v-4.5684h-29.168l-14.582 14.584h-49.221z" fill="#ebdbb2" opacity=".2"/>
  <g transform="translate(0 .04969)" style="isolation:isolate">
    <path d="m250 124.82-29.932 0.32363c-81.008 0.87549-94.966 4.4497-96.093 80.376-0.34358 11.488-0.0783 22.956 0.4422 34.434 2.1e-4 4e-3 37.418 4e-3 37.687 4e-3 74.443 0 87.884-15.156 87.884-85.882z" fill="#282828" opacity=".3" stroke-width="1.0221" style="isolation:isolate"/>
    <path d="m250 126-28.95 0.3203c-78.35 0.8665-91.85 4.404-92.94 79.55-0.3323 11.37-0.0757 22.72 0.4277 34.08 1.9e-4 4e-3 36.19 4e-3 36.45 4e-3 72 0 85-15 85-85z" fill="url(#b-9-6)" style="isolation:isolate"/>
    <path d="m182.3 148.5-0.772 9.219c-2.923 1.082-5.64 2.654-8.036 4.648l-8.379-3.945-8.75 15.16 7.607 5.283c-0.271 1.532-0.411 3.083-0.42 4.639 1e-3 1.561 0.135 3.119 0.4 4.658l-7.588 5.263 8.75 15.16 8.359-3.936c2.405 1.986 5.129 3.547 8.057 4.619l0.771 9.238h17.5l0.772-9.218c2.923-1.083 5.64-2.655 8.037-4.649l8.378 3.945 8.75-15.16-7.607-5.283c0.271-1.532 0.411-3.083 0.42-4.639-1e-3 -1.561-0.135-3.119-0.4-4.658l7.587-5.263-8.749-15.16-8.359 3.936c-2.405-1.986-5.13-3.548-8.059-4.62l-0.77-9.24h-17.5zm8.75 25c2.652-1e-3 5.196 1.053 7.072 2.929 1.875 1.875 2.929 4.419 2.929 7.072 0 2.652-1.054 5.196-2.929 7.072-1.876 1.875-4.42 2.929-7.072 2.929-2.653 0-5.197-1.054-7.072-2.929-1.876-1.876-2.929-4.42-2.929-7.072 0-2.653 1.053-5.197 2.929-7.072 1.875-1.876 4.419-2.93 7.072-2.929z" fill="#282828" opacity=".5" style="isolation:isolate"/>
    <path d="m182.3 146-0.772 9.219c-2.923 1.082-5.64 2.654-8.036 4.648l-8.379-3.945-8.75 15.16 7.607 5.283c-0.271 1.532-0.411 3.083-0.42 4.639 1e-3 1.561 0.135 3.119 0.4 4.658l-7.588 5.263 8.75 15.16 8.359-3.936c2.405 1.986 5.129 3.547 8.057 4.619l0.771 9.238h17.5l0.772-9.218c2.923-1.083 5.64-2.655 8.037-4.649l8.378 3.945 8.75-15.16-7.607-5.283c0.271-1.532 0.411-3.083 0.42-4.639-1e-3 -1.561-0.135-3.119-0.4-4.658l7.587-5.263-8.749-15.16-8.359 3.936c-2.405-1.986-5.13-3.548-8.059-4.62l-0.77-9.24h-17.5zm8.75 25c2.652-1e-3 5.196 1.053 7.072 2.929 1.875 1.875 2.929 4.419 2.929 7.072 0 2.652-1.054 5.196-2.929 7.072-1.876 1.875-4.42 2.929-7.072 2.929-2.653 0-5.197-1.054-7.072-2.929-1.876-1.876-2.929-4.42-2.929-7.072 0-2.653 1.053-5.197 2.929-7.072 1.875-1.876 4.419-2.93 7.072-2.929z" fill="#ebdbb2" style="isolation:isolate"/>
  </g>
  <path d="m91 12c-72 0-85 15-85 87v56c0 70 13 85 85 85h74c72 0 85-15 85-85v-56c0-72-13-87-85-87zm0 4h74c68 0 80 15 80 83v56c0 66-12 81-80 81h-74c-68 0-80-15-80-81v-56c0-68 12-83 80-83z" fill="url(#linearGradient31)" style="isolation:isolate"/>
</svg>
