<svg width="256" height="256" version="1.1" xmlns="http://www.w3.org/2000/svg" xmlns:xlink="http://www.w3.org/1999/xlink">
  <linearGradient id="b" x1=".5002" x2=".5002" y2="1" gradientTransform="matrix(244,0,0,228,5.981,12)" gradientUnits="userSpaceOnUse">
    <stop stop-color="#ebdbb2" offset="0"/>
    <stop stop-color="#d5c4a1" offset="1"/>
  </linearGradient>
  <defs>
    <linearGradient id="linearGradient31" x1=".5002" x2=".5002" y2="1" gradientTransform="matrix(244,0,0,228,5.988,12)" gradientUnits="userSpaceOnUse">
      <stop stop-color="#282828" stop-opacity=".1" offset="0"/>
      <stop stop-color="#bdae93" stop-opacity=".1" offset=".1"/>
      <stop stop-color="#d5c4a1" stop-opacity="0" offset=".7022"/>
      <stop stop-color="#bdae93" stop-opacity=".302" offset=".9"/>
      <stop stop-color="#282828" stop-opacity=".15" offset="1"/>
    </linearGradient>
    <linearGradient id="linearGradient9" x1="130" x2="130" y1="50" y2="211" gradientUnits="userSpaceOnUse">
      <stop stop-color="#fbf1c7" stop-opacity=".6" offset="0"/>
      <stop stop-color="#ebdbb2" offset="1"/>
    </linearGradient>
  </defs>
  <path d="m165 12c72 0 85 15 85 87v56c0 70-13 85-85 85h-74c-72 0-85-15-85-85v-56c0-72 13-87 85-87z" fill="url(#b)" style="isolation:isolate"/>
  <path d="m106.8 50.15c-9.346 0-16.898 7.5544-16.898 16.9s7.5524 16.9 16.898 16.9h16.9v-16.9c0-9.346-7.5544-16.9-16.9-16.9zm42.352 0.01953c-9.346 0-16.9 7.5544-16.9 16.9v42.381c0 9.346 7.5544 16.898 16.9 16.898s16.898-7.5524 16.898-16.898v-42.381c0-9.346-7.5524-16.9-16.898-16.9zm-84.73 42.359c-9.346 0-16.9 7.5524-16.9 16.898s7.5544 16.9 16.9 16.9h42.379c9.346 0 16.9-7.5544 16.9-16.9s-7.5544-16.898-16.9-16.898zm126.98 0.02148c-9.346 0-16.9 7.5544-16.9 16.9v16.898h16.9c9.346 0 16.898-7.5524 16.898-16.898s-7.5524-16.9-16.898-16.9zm-42.201 42.35c-9.346 0-16.9 7.5544-16.9 16.9s7.5544 16.9 16.9 16.9h42.381c9.346 0 16.9-7.5544 16.9-16.9s-7.5544-16.9-16.9-16.9zm-84.641 0.0508c-9.346 0-16.898 7.5524-16.898 16.898s7.5524 16.9 16.898 16.9 16.9-7.5544 16.9-16.9v-16.898zm42.25 0c-9.346 0-16.898 7.5524-16.898 16.898v42.25c1e-5 9.346 7.5524 16.9 16.898 16.9s16.9-7.5544 16.9-16.9v-42.25c0-9.346-7.5544-16.898-16.9-16.898zm25.49 42.199v16.9c0 9.346 7.5544 16.9 16.9 16.9s16.9-7.5544 16.9-16.9-7.5544-16.9-16.9-16.9z" fill="url(#linearGradient9)" opacity=".5" style="isolation:isolate"/>
  <path d="m81.46 147.28c0 9.346-7.554 16.9-16.9 16.9s-16.9-7.554-16.9-16.9 7.554-16.9 16.9-16.9h16.9zm8.45 0c0-9.346 7.554-16.9 16.9-16.9s16.9 7.554 16.9 16.9v42.25c0 9.346-7.554 16.9-16.9 16.9s-16.9-7.554-16.9-16.9z" fill="#cc241d" stroke-width="1.28" style="isolation:isolate"/>
  <path d="m106.8 79.375c-9.346 0-16.9-7.554-16.9-16.9s7.554-16.9 16.9-16.9 16.9 7.554 16.9 16.9v16.9zm0 8.578c9.346 0 16.9 7.554 16.9 16.9s-7.554 16.9-16.9 16.9h-42.38c-9.346 0-16.9-7.554-16.9-16.9s7.554-16.9 16.9-16.9z" fill="#83a598" stroke-width="1.28" style="isolation:isolate"/>
  <path d="m174.5 104.88c0-9.346 7.554-16.9 16.9-16.9s16.9 7.554 16.9 16.9-7.554 16.9-16.9 16.9h-16.9zm-8.45 0c0 9.346-7.554 16.9-16.9 16.9s-16.9-7.554-16.9-16.9v-42.38c0-9.346 7.554-16.9 16.9-16.9s16.9 7.554 16.9 16.9z" fill="#689d6a" stroke-width="1.28" style="isolation:isolate"/>
  <path d="m149.2 172.58c9.346 0 16.9 7.554 16.9 16.9s-7.554 16.9-16.9 16.9-16.9-7.554-16.9-16.9v-16.9zm0-8.45c-9.346 0-16.9-7.554-16.9-16.9s7.554-16.9 16.9-16.9h42.38c9.346 0 16.9 7.554 16.9 16.9s-7.554 16.9-16.9 16.9z" fill="#fabd2f" stroke-width="1.28" style="isolation:isolate"/>
  <path d="m106.8 45.574c-9.346 0-16.9 7.5544-16.9 16.9 0 0.775 0.071268 1.5322 0.17188 2.2793 1.1195-8.2545 8.161-14.605 16.727-14.605 9.346-1e-6 16.898 7.5544 16.898 16.9v12.326h0.00195v-16.9c0-9.346-7.5524-16.9-16.898-16.9zm42.35 0.021484c-9.346 0-16.9 7.5524-16.9 16.898v4.5352c0.02127-9.3278 7.5656-16.859 16.898-16.859 9.346 0 16.9 7.5524 16.9 16.898v37.846c3e-5 -0.01318 0.00195-0.02587 0.00195-0.03906v-42.381c0-9.346-7.5544-16.898-16.9-16.898zm-84.73 42.357c-9.346 0-16.9 7.5544-16.9 16.9 0 0.775 0.071268 1.5322 0.17188 2.2793 1.1195-8.2545 8.161-14.605 16.727-14.605h42.381c8.5731 0 15.619 6.3618 16.729 14.627 0.10248-0.75392 0.17188-1.5184 0.17188-2.3008 0-9.346-7.5524-16.9-16.898-16.9h-42.381zm126.98 0.021484c-9.346 0-16.9 7.5544-16.9 16.9v4.5352c0.02127-9.3278 7.5656-16.861 16.898-16.861 8.5731 0 15.62 6.3618 16.73 14.627 0.1025-0.75391 0.17187-1.5184 0.17187-2.3008 0-9.346-7.5544-16.9-16.9-16.9zm-42.201 42.35c-9.346 0-16.898 7.5544-16.898 16.9 0 0.775 0.07129 1.5322 0.17188 2.2793 1.1192-8.2545 8.1591-14.605 16.725-14.605h42.381c8.5731 0 15.62 6.3618 16.73 14.627 0.10251-0.75391 0.17188-1.5184 0.17188-2.3008 0-9.346-7.5544-16.9-16.9-16.9h-42.381zm-84.639 0.05078c-9.346 0-16.9 7.5544-16.9 16.9 0 0.775 0.071268 1.5322 0.17188 2.2793 1.1195-8.2545 8.161-14.605 16.727-14.605h16.9v12.365c3e-5 -0.01318 0.001954-0.02587 0.001954-0.03906v-16.9h-16.9zm42.25 0c-9.346 0-16.9 7.5544-16.9 16.9v4.5352c0.021274-9.3278 7.5656-16.861 16.898-16.861 9.346 0 16.9 7.5544 16.9 16.9v37.715c3e-5 -0.01318 0.00196-0.02587 0.00196-0.03906v-42.25c0-9.346-7.5544-16.9-16.9-16.9zm25.49 42.199v4.5742h16.896c8.5731 0 15.62 6.3618 16.73 14.627 0.10251-0.75391 0.17188-1.5184 0.17188-2.3008 0-9.346-7.5544-16.9-16.9-16.9h-16.898z" fill="#282828" opacity=".2" style="isolation:isolate"/>
  <path d="m91 12c-72 0-85 15-85 87v56c0 70 13 85 85 85h74c72 0 85-15 85-85v-56c0-72-13-87-85-87zm0 4h74c68 0 80 15 80 83v56c0 66-12 81-80 81h-74c-68 0-80-15-80-81v-56c0-68 12-83 80-83z" fill="url(#linearGradient31)" style="isolation:isolate"/>
</svg>
