<svg width="256" height="256" version="1.1" xmlns="http://www.w3.org/2000/svg">
  <defs>
    <linearGradient id="linearGradient10" x1="128" x2="128" y1="12" y2="240" gradientUnits="userSpaceOnUse">
      <stop stop-color="#ebdbb2" stop-opacity=".2" offset="0"/>
      <stop stop-color="#ebdbb2" stop-opacity="0" offset=".24921"/>
      <stop stop-color="#1d2021" stop-opacity=".05" offset=".50485"/>
      <stop stop-color="#1d2021" stop-opacity=".15" offset=".75285"/>
      <stop stop-color="#1d2021" stop-opacity=".25" offset="1"/>
    </linearGradient>
    <linearGradient id="linearGradient15" x1="128" x2="128" y1="12" y2="240" gradientUnits="userSpaceOnUse">
      <stop stop-color="#458588" offset="0"/>
      <stop stop-color="#076678" offset="1"/>
    </linearGradient>
  </defs>
  <path d="m165 12c72 0 85 15 85 87v56c0 70-13 85-85 85h-74c-72 0-85-15-85-85v-56c0-72 13-87 85-87z" fill="url(#linearGradient15)" style="isolation:isolate"/>
  <path d="m59.293 56.919s-9.8149 0.0017-9.8149 9.8168v98.151s-2.36e-4 9.8149 9.8149 9.8149l53.869-0.0589s8.1055-13.172 12.173-19.592l-15.49-17.215 19.362-22.564-15.931-21.068 13.67-19.286-14.09-18zm71.219 0 11.521 15.509-15.452 22.372 15.701 20.723-19.651 22.909 18.96 19.687-10.391 16.583h65.506c9.8152 0 9.815-9.815 9.815-9.8149v-98.151s2.3e-4 -9.8168-9.815-9.8168zm-66.31 9.8168h49.554l6.9585 8.4343-13.59 19.113 15.737 20.799-1.3598 1.5728c-4.4799-4.7285-8.7736-9.629-13.459-14.149-2.1135-2.1815-5.8016-1.9676-8.1471-0.22821-13.735 15.684-40.602 47.81-40.602 47.81v-78.445s8.32e-4 -4.9065 4.9084-4.9065zm79.748 0h47.848s4.9118-0.0011 4.9465 4.9065l-0.038 78.828s-21.22-22.361-31.765-33.547c-1.9834-1.4152-4.6417-1.2248-6.4222 0.42219-3.0414 2.1812-5.5179 5.4202-9.1436 6.5934-2.2565 0.28268-4.2508-0.84664-5.7129-2.4342l4.9636-5.7699-15.948-21.087 15.393-22.218zm28.218 9.8149c-8.1312 0-14.723 6.5903-14.723 14.721 0 8.1312 6.5922 14.723 14.723 14.723s14.723-6.5922 14.723-14.723c0-8.1312-6.5922-14.721-14.723-14.721zm-80.944 107.69v11.509h-23.021v13.812h23.021v11.511l25.913-18.417zm73.552 0-25.913 18.417 25.913 18.417v-11.511h23.021v-13.812h-23.021z" fill="#282828" opacity=".2" stroke-linecap="square" stroke-linejoin="round" stroke-width="3.4531" style="font-variation-settings:'opsz' 32, 'wght' 900"/>
  <path d="m59.313 51.709s-9.8149 0.0017-9.8149 9.8168v98.151s-2.36e-4 9.8149 9.8149 9.8149l53.869-0.0589s8.1055-13.172 12.173-19.592l-15.49-17.215 19.362-22.564-15.931-21.068 13.67-19.286-14.09-18zm71.219 0 11.521 15.509-15.452 22.372 15.701 20.723-19.651 22.909 18.96 19.687-10.391 16.583h65.506c9.8152 0 9.8149-9.815 9.8149-9.8149v-98.151s2.3e-4 -9.8168-9.8149-9.8168zm-66.31 9.8168h49.554l6.9585 8.4343-13.59 19.113 15.737 20.799-1.3598 1.5728c-4.48-4.7285-8.7736-9.629-13.459-14.149-2.1135-2.1815-5.8016-1.9676-8.1471-0.22821-13.735 15.684-40.602 47.81-40.602 47.81v-78.445s8.33e-4 -4.9065 4.9084-4.9065zm79.748 0h47.848s4.9118-1e-3 4.9464 4.9065l-0.038 78.828s-21.22-22.361-31.765-33.547c-1.9834-1.4152-4.6417-1.2248-6.4222 0.42219-3.0414 2.1812-5.5179 5.4202-9.1436 6.5934-2.2565 0.28268-4.2508-0.84664-5.7129-2.4342l4.9636-5.7699-15.948-21.087 15.393-22.218zm28.218 9.8149c-8.1312 0-14.723 6.5903-14.723 14.721 0 8.1312 6.5922 14.723 14.723 14.723 8.1312 0 14.723-6.5922 14.723-14.723 0-8.1312-6.5922-14.721-14.723-14.721zm-80.944 107.69v11.509h-23.021v13.812h23.021v11.511l25.913-18.417zm73.552 0-25.913 18.417 25.913 18.417v-11.511h23.021v-13.812h-23.021z" fill="#ebdbb2" stroke-linecap="square" stroke-linejoin="round" stroke-width="3.4531" style="font-variation-settings:'opsz' 32, 'wght' 900"/>
  <path d="m59.314 51.709s-9.8146 0.0015-9.8146 9.8167v4.455c0.48952-9.0609 9.7941-9.0619 9.7941-9.0619h53.563l12.161 15.539 1.9486-2.7485-14.089-18.001zm71.219 0 3.8705 5.2098h62.303c9.8152-1e-6 9.8146 9.8167 9.8146 9.8167v93.375c0.0201-0.27573 0.0205-0.43278 0.0205-0.43278v-98.152s5.7e-4 -9.8167-9.8146-9.8167zm13.416 15.027 2.287 3.1608 1.8542-2.6767-0.35073-0.48406zm-3.77 3.1956-13.578 19.658 1.8727 2.4716 13.56-19.633zm-80.865 1.3763c-0.02 0.2101-0.02051 0.33433-0.02051 0.33433v78.445s26.867-32.126 40.602-47.81c2.3455-1.7394 6.0335-1.9539 8.147 0.22766 4.6851 4.5201 8.9795 9.4222 13.459 14.151l1.3599-1.5732-8.8916-11.753-4e-3 -4e-3c-1.9255-2.0513-3.878-4.0765-5.9031-6.0303-2.1135-2.1815-5.8015-1.967-8.1471-0.22768-13.735 15.684-40.602 47.81-40.602 47.81zm112.87 0.03282c-8.1312 0-14.723 6.5897-14.723 14.721 0 0.86936 0.075 1.7215 0.21947 2.5495 1.2526-6.8606 7.2625-12.061 14.485-12.061 7.2618 0 13.296 5.2574 14.503 12.173 0.15759-0.86315 0.23998-1.7537 0.23998-2.6624 0-8.1312-6.5938-14.721-14.725-14.721zm-53.452 1.4317-11.591 16.3 1.8993 2.5106 11.671-16.413zm-3.5423 18.729-1.9158 2.7034 13.845 18.31 2.1065-2.4532zm19.379 0.41228-1.8932 2.7341 13.859 18.327 2.1086-2.449zm27.528 18.852c-1.2807-0.0219-2.5592 0.44371-3.5608 1.3701-3.0414 2.1812-5.5182 5.4212-9.1439 6.5944-1.0572 0.13244-2.0557-0.0455-2.97-0.43483l-2.7629 3.21c1.4621 1.5876 3.4559 2.7174 5.7124 2.4347 3.6257-1.1732 6.1025-4.4131 9.1439-6.5944 1.7805-1.647 4.4387-1.8378 6.4221-0.42253 10.545 11.186 31.766 33.548 31.766 33.548l2e-3 -5.2283c-0.68604-0.72295-21.378-22.53-31.747-33.53-0.86771-0.61917-1.8652-0.93064-2.8613-0.94761zm-21.904 2.0039-17.545 20.454 2.3547 2.445 17.277-20.144zm-28.051 22.39-2.2993 2.6788 13.572 15.082c0.70394-1.1241 1.362-2.1691 1.9383-3.0787zm27.481 20.919-8.4055 13.414h3.2449l7.1276-11.373zm-48.382 22.952v5.2262l22.238 15.804 3.6756-2.6131zm73.553 0-25.914 18.417 3.6551 2.5988 22.238-15.804v11.509h23.02v8.6024h0.0205v-13.812h-23.02zm-96.573 11.511v5.2098h22.999v-5.2098zm96.552 19.022v6.2867l0.0205 0.0144v-6.301z" fill="#fbf1c7" opacity=".6" stroke-linecap="square" stroke-linejoin="round" stroke-width="3.4531" style="font-variation-settings:'opsz' 32, 'wght' 900"/>
  <path d="m91 12c-72 0-85 15-85 87v56c0 70 13 85 85 85h74c72 0 85-15 85-85v-56c0-72-13-87-85-87zm0 5h74c35.653 0 55.307 3.9448 65.895 14.965 10.588 11.02 14.105 31.336 14.105 67.035v56c0 34.69-3.4936 54.457-14.07 65.25-10.577 10.793-30.277 14.75-65.93 14.75h-74c-35.653 0-55.353-3.9574-65.93-14.75-10.577-10.793-14.07-30.56-14.07-65.25v-56c0-35.699 3.5176-56.015 14.105-67.035 10.588-11.02 30.242-14.965 65.895-14.965z" fill="url(#linearGradient10)" style="isolation:isolate"/>
</svg>
