<svg width="256" height="256" version="1.1" xml:space="preserve" xmlns="http://www.w3.org/2000/svg"><defs><linearGradient id="linearGradient31" x1=".5002" x2=".5002" y2="1" gradientTransform="matrix(244,0,0,228,5.986,12)" gradientUnits="userSpaceOnUse"><stop stop-color="#ebdbb2" stop-opacity=".2" offset="0"/><stop stop-color="#ebdbb2" stop-opacity=".05" offset=".1"/><stop stop-opacity="0" offset=".7036"/><stop stop-opacity=".1" offset=".8975"/><stop stop-opacity=".2" offset="1"/></linearGradient><linearGradient id="linearGradient6" x1="140" x2="140" y1="12" y2="240" gradientUnits="userSpaceOnUse"><stop stop-color="#fb4934" offset="0"/><stop stop-color="#cc241d" offset="1"/></linearGradient></defs><path d="m165 12c72 0 85 15 85 87v56c0 70-13 85-85 85h-74c-72 0-85-15-85-85v-56c0-72 13-87 85-87z" fill="url(#linearGradient6)" style="isolation:isolate"/><path d="m91 12c-72 0-85 15-85 87v56c0 70 13 85 85 85h74c72 0 85-15 85-85v-56c0-72-13-87-85-87zm0 4h74c68 0 80 15 80 83v56c0 66-12 81-80 81h-74c-68 0-80-15-80-81v-56c0-68 12-83 80-83z" fill="url(#linearGradient31)" style="isolation:isolate"/><path d="m67.67 17.689c-8.3942 0.60057-15.705 1.6145-22.035 3.1621l48.576 48.58c-4.6503 11.098 0.63365 23.859 11.768 28.422v75.43c-9.4537 3.8681-14.925 13.811-13.131 23.865 1.7936 10.054 10.365 17.49 20.572 17.852 10.208 0.36137 19.283-6.4492 21.783-16.352 2.5002-9.9025-2.2537-20.207-11.41-24.734v-74.713l29.236 29.232c-3.3277 8.0863-1.4705 17.38 4.709 23.566 8.4625 8.4663 22.185 8.4703 30.65 8e-3 8.4663-8.4625 8.4683-22.185 6e-3 -30.65-5.8594-5.8645-14.555-7.8653-22.387-5.1484l-31.348-31.342c5.8869-17.003-10.344-33.345-27.387-27.574z" fill="#282828" opacity=".2" style="isolation:isolate"/><path d="m67.656 12.712c-8.3942 0.60057-15.714 1.6112-22.044 3.1588l48.599 48.604c-4.6503 11.098 0.63365 23.859 11.768 28.422v75.43c-9.4537 3.8681-14.925 13.811-13.131 23.865 1.7936 10.054 10.365 17.49 20.572 17.852 10.208 0.36137 19.283-6.4492 21.783-16.352 2.5002-9.9025-2.2537-20.207-11.41-24.734v-74.713l29.236 29.232c-3.3277 8.0863-1.4705 17.38 4.709 23.566 8.4625 8.4663 22.185 8.4703 30.65 8e-3 8.4663-8.4625 8.4683-22.185 6e-3 -30.65-5.8594-5.8645-14.555-7.8653-22.387-5.1484l-31.348-31.342c5.8869-17.003-10.344-33.345-27.387-27.574z" fill="#ebdbb2" style="isolation:isolate"/><path d="m51.965 14.602c-2.1975 0.38603-4.3469 0.78868-6.3457 1.2774l47.037 47.041c0.21882-2.0387 0.72139-4.0797 1.5547-6.0684zm40.912 54.412c-1.779 9.8398 3.4633 19.933 13.102 23.883v-7.623c-7.1276-2.9209-11.84-9.2063-13.102-16.26zm42.639 0.0469c-0.20091 1.0691-0.48156 2.1466-0.85546 3.2266l1.209 1.209c0.0554-1.5173-0.0968-2.9924-0.35352-4.4356zm-11.723 17.561v7.623l27.719 27.715c0.20498-2.0655 0.70116-4.1216 1.5176-6.1054zm70.598 41.289c-0.74999 4.218-2.7419 8.259-6.002 11.518-8.4652 8.4623-22.188 8.4585-30.65-8e-3 -3.172-3.1758-5.1834-7.1748-5.9609-11.404-1.192 6.8495 0.91226 13.973 5.9609 19.027 8.4625 8.4663 22.185 8.4701 30.65 8e-3 5.2088-5.2064 7.2009-12.401 6.002-19.141zm-58.873 56.637c-0.0902 0.50717-0.18672 1.0156-0.31446 1.5215-2.5001 9.9024-11.575 16.713-21.783 16.352-10.202-0.36119-18.768-7.7896-20.568-17.836-0.43975 2.4624-0.46373 5.0298-4e-3 7.6074 1.7936 10.054 10.365 17.49 20.572 17.852 10.208 0.36137 19.283-6.4492 21.783-16.352 0.7754-3.0711 0.84944-6.1804 0.31446-9.1445z" fill="#282828" opacity=".1" style="isolation:isolate"/><path d="m67.67 12.732c-8.3942 0.60057-15.721 1.595-22.051 3.1426l4.0937 4.0976c5.347-1.0569 11.298-1.8067 17.957-2.2832l39.604 39.604c13.689-4.6352 26.828 5.0027 28.43 17.783 1.6732-15.084-13.018-27.959-28.43-22.74zm25.363 55.521c-0.51708 2.3696-0.62586 4.7613-0.35352 7.0898 0.22806-1.9862 0.71948-3.9749 1.5312-5.9121zm42.574 12.604c-0.19937 1.3272-0.48119 2.6636-0.94726 4.0098l31.348 31.342c7.8322-2.7169 16.527-0.71605 22.387 5.1484 3.599 3.6002 5.6505 8.1527 6.1875 12.846 0.72656-6.3402-1.3252-12.939-6.1875-17.803-5.8594-5.8645-14.555-7.8653-22.387-5.1484zm16.291 46.445c-0.47214 2.2615-0.56514 4.5516-0.31446 6.8066 0.22956-1.9202 0.68576-3.8301 1.4453-5.6758zm-45.92 41.023c-9.0345 3.6966-14.413 12.941-13.309 22.529 0.88931-7.685 5.8507-14.521 13.309-17.572zm17.814 0.63086v4.957c6.7393 3.3319 11.08 9.7961 11.912 16.924 1.0265-8.9714-3.6336-17.788-11.912-21.881z" fill="#fbf1c7" opacity=".6" style="isolation:isolate"/></svg>
