<svg width="256" height="256" version="1.1" xmlns="http://www.w3.org/2000/svg">
  <defs>
    <linearGradient id="linearGradient31" x1=".5002" x2=".5002" y2="1" gradientTransform="matrix(244,0,0,228,5.986,12)" gradientUnits="userSpaceOnUse">
      <stop stop-color="#ebdbb2" stop-opacity=".2" offset="0"/>
      <stop stop-color="#ebdbb2" stop-opacity=".05" offset=".1"/>
      <stop stop-opacity="0" offset=".7036"/>
      <stop stop-opacity=".1" offset=".8975"/>
      <stop stop-opacity=".2" offset="1"/>
    </linearGradient>
    <linearGradient id="linearGradient6" x1="140" x2="140" y1="12" y2="240" gradientUnits="userSpaceOnUse">
      <stop stop-color="#8f3f71" offset="0"/>
      <stop stop-color="#8f3f71" offset="1"/>
    </linearGradient>
    <linearGradient id="b-9-6" x1=".6312" x2=".6312" y1=".4998" y2=".9998" gradientTransform="matrix(244,0,0,228,5.995,12)" gradientUnits="userSpaceOnUse">
      <stop stop-color="#d79921" offset="0"/>
      <stop stop-color="#b57614" offset="1"/>
    </linearGradient>
  </defs>
  <path d="m165 12c72 0 85 15 85 87v56c0 70-13 85-85 85h-74c-72 0-85-15-85-85v-56c0-72 13-87 85-87z" fill="url(#linearGradient6)" style="isolation:isolate"/>
  <path d="m64.04 48.711v8.6191h127.92v-8.6191zm18.27 17.24v8.6191h109.64v-8.6191zm-18.27 34.471v8.6172h127.92v-8.6172zm18.27 17.238v8.6191h109.64v-8.6191zm-18.27 34.48v8.6191h127.92v-8.6191zm18.27 17.24v8.6191h109.64v-8.6191z" fill="#282828" opacity=".2" style="isolation:isolate"/>
  <path d="m64.04 45.694v8.6191h127.92v-8.6191zm0 51.711v8.6172h127.92v-8.6172zm0 51.719v8.6192h127.92v-8.6192z" fill="#ebdbb2" style="isolation:isolate"/>
  <path d="m64.039 45.693v3.0176h127.92v-3.0176h-127.92zm0 51.711v3.0176h127.92v-3.0176h-127.92zm0 51.719v3.0176h127.92v-3.0176h-127.92z" fill="#fbf1c7" opacity=".6" style="isolation:isolate"/>
  <path d="m82.31 62.934v8.6191h109.64v-8.6191zm0 51.709v8.6191h109.64v-8.6191zm0 51.721v8.6191h109.64v-8.6191z" fill="#458588" style="isolation:isolate"/>
  <path d="m82.309 62.934v3.0176h109.64v-3.0176h-109.64zm0 51.709v3.0176h109.64v-3.0176h-109.64zm0 51.721v3.0176h109.64v-3.0176h-109.64z" fill="#ebdbb2" opacity=".15" style="isolation:isolate"/>
  <path d="m9.3373 198.66c7.2084 33.024 28.13 41.338 81.663 41.338h74c53.532 0 74.454-8.3135 81.663-41.338z" fill="#282828" opacity=".3" style="isolation:isolate"/>
  <g transform="translate(0 .0497)" style="isolation:isolate">
    <path d="m250.01 124.82-29.932 0.32363c-81.008 0.87549-94.966 4.4497-96.093 80.376-0.34358 11.488-0.0783 22.956 0.4422 34.434 2.1e-4 4e-3 37.418 4e-3 37.687 4e-3 74.443 0 87.884-15.156 87.884-85.882z" fill="#282828" opacity=".3" stroke-width="1.0221" style="isolation:isolate"/>
    <path d="m250 126-28.95 0.3203c-78.35 0.8665-91.85 4.404-92.94 79.55-0.3323 11.37-0.0757 22.72 0.4277 34.08 1.9e-4 4e-3 36.19 4e-3 36.45 4e-3 72 0 85-15 85-85z" fill="url(#b-9-6)" style="isolation:isolate"/>
    <path d="m155.89 155.96v20.264h70v-20.264zm0 34.73v20.262h70v-20.262z" fill="#282828" opacity=".3" style="isolation:isolate"/>
    <path transform="translate(1.2038 -4.0482)" d="m154.69 156.02v20.264h70v-20.264h-70zm0 34.73v20.262h70v-20.262h-70z" fill="#ebdbb2" style="isolation:isolate"/>
    <path d="m155.89 151.97v3.9863h69.996v16.277h4e-3v-20.264zm0 34.73v3.9863h69.996v16.275h4e-3v-20.262z" fill="#fbf1c7" opacity=".6" style="isolation:isolate"/>
  </g>
  <path d="m91 12c-72 0-85 15-85 87v56c0 70 13 85 85 85h74c72 0 85-15 85-85v-56c0-72-13-87-85-87zm0 4h74c68 0 80 15 80 83v56c0 66-12 81-80 81h-74c-68 0-80-15-80-81v-56c0-68 12-83 80-83z" fill="url(#linearGradient31)" style="isolation:isolate"/>
</svg>
