<svg width="256" height="256" version="1.1" xmlns="http://www.w3.org/2000/svg">
  <defs>
    <linearGradient id="linearGradient31" x1=".5002" x2=".5002" y2="1" gradientTransform="matrix(244,0,0,228,5.986,12)" gradientUnits="userSpaceOnUse">
      <stop stop-color="#ebdbb2" stop-opacity=".2" offset="0"/>
      <stop stop-color="#ebdbb2" stop-opacity=".05" offset=".1"/>
      <stop stop-opacity="0" offset=".7036"/>
      <stop stop-opacity=".1" offset=".8975"/>
      <stop stop-opacity=".2" offset="1"/>
    </linearGradient>
    <linearGradient id="linearGradient6" x1="140" x2="140" y1="12" y2="240" gradientUnits="userSpaceOnUse">
      <stop stop-color="#8ec07c" offset="0"/>
      <stop stop-color="#689d6a" offset="1"/>
    </linearGradient>
  </defs>
  <path d="m165 12c72 0 85 15 85 87v56c0 70-13 85-85 85h-74c-72 0-85-15-85-85v-56c0-72 13-87 85-87z" fill="url(#linearGradient6)" style="isolation:isolate"/>
  <path d="m57.923 161.45c-4.2444 0.96542-6.8997 5.1922-5.927 9.435 0.95705 4.2239 5.2057 6.9026 9.436 5.933 16.725-3.8386 38.611-6.9262 60.91-4.479 21.643 2.3798 38.014 9.237 50.17 16.663 3.6998 2.2767 8.5842 1.0948 10.842-2.613 2.2723-3.7055 1.0903-8.5724-2.613-10.839-19.1-11.673-38.666-16.858-55.83-18.815-20.195-2.3021-42.791-0.83962-66.988 4.715zm-4.38-39.836c-6.7518 2.043-9.1849 10.364-4.718 15.737 2.4005 2.8701 6.4634 4.3313 10.444 3.122 25.519-7.7026 50.29-6.7954 65.31-5.039 14.243 1.6663 38.893 6.3899 60.66 19.78 4.7546 2.9392 10.814 1.2195 13.614-3.327 2.8001-4.5466 1.3162-10.642-3.3027-13.476-24.706-15.174-51.728-20.647-68.42-22.614-17.408-2.0594-44.834-2.8697-73.587 5.817zm-7.153-42.751c-6.2366 1.8835-9.7746 8.5241-7.882 14.752 1.874 6.2164 8.4842 9.7715 14.747 7.879 23.098-7.0119 51.315-7.8794 72.74-6.195 51.452 4.0531 72.878 21.586 78.575 22.365 4.6434 0.63194 9.3215-1.5436 11.771-5.685 3.3253-5.5785 1.4951-12.875-4.138-16.205-28.237-16.728-62.208-22.228-83.742-23.982-14.198-1.1536-49.921-2.6892-82.071 7.071z" fill="#282828" opacity=".3" style="isolation:isolate"/>
  <path d="m57.923 156.91c-4.2444 0.96542-6.8997 5.1922-5.927 9.435 0.95705 4.2239 5.2057 6.9026 9.436 5.933 16.725-3.8386 38.611-6.9262 60.91-4.479 21.643 2.3798 38.014 9.237 50.17 16.663 3.6998 2.2767 8.5842 1.0948 10.842-2.613 2.2723-3.7055 1.0903-8.5724-2.613-10.839-19.1-11.673-38.666-16.858-55.83-18.815-20.195-2.3021-42.791-0.83962-66.988 4.715zm-4.38-39.836c-6.7518 2.043-9.1849 10.364-4.718 15.737 2.4005 2.8701 6.4634 4.3313 10.444 3.122 25.519-7.7026 50.29-6.7954 65.31-5.039 14.243 1.6663 38.893 6.3899 60.66 19.78 4.7546 2.9392 10.814 1.2195 13.614-3.327 2.8001-4.5466 1.3162-10.642-3.3027-13.476-24.706-15.174-51.728-20.647-68.42-22.614-17.408-2.0594-44.834-2.8697-73.587 5.817zm-7.153-42.751c-6.2366 1.8835-9.7746 8.5241-7.882 14.752 1.874 6.2164 8.4842 9.7715 14.747 7.879 23.098-7.0119 51.315-7.8794 72.74-6.195 51.452 4.0531 72.878 21.586 78.575 22.365 4.6434 0.63194 9.3215-1.5436 11.771-5.685 3.3253-5.5785 1.4951-12.875-4.138-16.205-28.237-16.728-62.208-22.228-83.742-23.982-14.198-1.1536-49.921-2.6892-82.071 7.071z" fill="#ebdbb2" style="isolation:isolate"/>
  <path d="m91 12c-72 0-85 15-85 87v56c0 70 13 85 85 85h74c72 0 85-15 85-85v-56c0-72-13-87-85-87zm0 4h74c68 0 80 15 80 83v56c0 66-12 81-80 81h-74c-68 0-80-15-80-81v-56c0-68 12-83 80-83z" fill="url(#linearGradient31)" style="isolation:isolate"/>
  <path d="m104.73 66.411c-16.758 0.12631-38.246 1.814-58.34 7.9141-5.8558 1.7685-9.3319 7.7306-8.168 13.607 0.81463-4.1628 3.8387-7.7628 8.168-9.0703 32.15-9.7602 67.872-8.2258 82.07-7.0723 21.534 1.7543 55.506 7.2543 83.742 23.982 3.0512 1.8039 4.9382 4.78 5.543 8.0078 0.97815-4.7875-1.0836-9.9086-5.543-12.545-28.237-16.728-62.208-22.226-83.742-23.98-5.3244-0.43258-13.676-0.91954-23.73-0.84375zm-0.95313 43.492c-14.812 0.0233-32.264 1.7427-50.234 7.1719-5.2236 1.5806-7.8447 6.9166-6.7031 11.74 0.75967-3.2498 3.1126-6.1166 6.7031-7.2031 28.753-8.6866 56.18-7.8759 73.588-5.8164 16.692 1.9666 43.714 7.4392 68.42 22.613 2.3032 1.4129 3.826 3.6374 4.4277 6.0762 0.91554-3.9841-0.7268-8.343-4.4277-10.613-24.706-15.174-51.728-20.647-68.42-22.613-6.528-0.77229-14.466-1.3694-23.354-1.3555zm5.5508 41.277c-16.009-0.2995-33.257 1.5645-51.404 5.7305-4.2444 0.96542-6.9004 5.1928-5.9277 9.4355 0.04014 0.17716 0.11844 0.3343 0.16992 0.50586 0.79516-2.6154 2.9008-4.7544 5.7578-5.4043 24.197-5.5546 46.792-7.0169 66.986-4.7148 17.164 1.9565 36.73 7.1439 55.83 18.816 1.7184 1.0517 2.8668 2.6712 3.4062 4.4668 1.0128-3.3496-0.28857-7.0958-3.4062-9.0039-19.1-11.673-38.666-16.86-55.83-18.816-5.0487-0.5755-10.246-0.91578-15.582-1.0156z" fill="#fbf1c7" opacity=".5" style="isolation:isolate"/>
</svg>
