<svg width="256" height="256" version="1.1" xmlns="http://www.w3.org/2000/svg" xmlns:xlink="http://www.w3.org/1999/xlink">
  <defs>
    <linearGradient id="linearGradient31" x1=".5002" x2=".5002" y2="1" gradientTransform="matrix(244,0,0,228,5.986,12)" gradientUnits="userSpaceOnUse">
      <stop stop-color="#ebdbb2" stop-opacity=".2" offset="0"/>
      <stop stop-color="#ebdbb2" stop-opacity=".05" offset=".1"/>
      <stop stop-opacity="0" offset=".7036"/>
      <stop stop-opacity=".1" offset=".8975"/>
      <stop stop-opacity=".2" offset="1"/>
    </linearGradient>
    <linearGradient id="linearGradient6" x1="140" x2="140" y1="12" y2="240" gradientUnits="userSpaceOnUse">
      <stop stop-color="#fb4934" offset="0"/>
      <stop stop-color="#cc241d" offset="1"/>
    </linearGradient>
    <linearGradient id="linearGradient14" x1="128.04" x2="128.04" y1="31.23" y2="220.76" gradientUnits="userSpaceOnUse">
      <stop stop-color="#3c3836" offset="0"/>
      <stop stop-color="#3c3836" offset="1"/>
    </linearGradient>
  </defs>
  <path d="m165 12c72 0 85 15 85 87v56c0 70-13 85-85 85h-74c-72 0-85-15-85-85v-56c0-72 13-87 85-87z" fill="url(#linearGradient6)" style="isolation:isolate"/>
  <path d="m97.279 35.471c-59.85 0-70.66 12.47-70.66 72.32v46.549c0 58.19 10.81 70.66 70.66 70.66h61.521c59.85 0 70.66-12.47 70.66-70.66v-46.549c0-59.85-10.81-72.32-70.66-72.32zm30.721 21.23 65.33 36.75v34.709l-28.58-10.209v-8.166l-36.75-20.422-28.58 16.33 93.91 32.66v32.67l-65.33 36.75-65.33-36.75v-34.709l28.58 10.209v8.166l36.75 20.42 28.58-16.33-93.91-32.658v-32.67z" fill="#282828" opacity=".3" style="isolation:isolate"/>
  <path d="m97.279 31.23c-59.85 0-70.66 12.47-70.66 72.32v46.549c0 58.19 10.81 70.66 70.66 70.66h61.521c59.85 0 70.66-12.47 70.66-70.66v-46.549c0-59.85-10.81-72.32-70.66-72.32h-61.521zm30.721 21.23 65.33 36.75v34.709l-28.58-10.209v-8.166l-36.75-20.422-28.58 16.33 93.91 32.66v32.67l-65.33 36.75-65.33-36.75v-34.709l28.58 10.209v8.166l36.75 20.42 28.58-16.33-93.91-32.658v-32.67l65.33-36.75z" fill="url(#linearGradient14)" style="isolation:isolate"/>
  <path d="m91 12c-72 0-85 15-85 87v56c0 70 13 85 85 85h74c72 0 85-15 85-85v-56c0-72-13-87-85-87zm0 4h74c68 0 80 15 80 83v56c0 66-12 81-80 81h-74c-68 0-80-15-80-81v-56c0-68 12-83 80-83z" fill="url(#linearGradient31)" style="isolation:isolate"/>
</svg>
