<svg width="256" height="256" version="1.1" xmlns="http://www.w3.org/2000/svg">
  <linearGradient id="b" x1=".5002" x2=".5002" y2="1" gradientTransform="matrix(244,0,0,228,5.981,12)" gradientUnits="userSpaceOnUse">
    <stop stop-color="#ebdbb2" offset="0"/>
    <stop stop-color="#d5c4a1" offset="1"/>
  </linearGradient>
  <defs>
    <linearGradient id="linearGradient31" x1=".5002" x2=".5002" y2="1" gradientTransform="matrix(244,0,0,228,5.988,12)" gradientUnits="userSpaceOnUse">
      <stop stop-color="#ebdbb2" stop-opacity=".4" offset="0"/>
      <stop stop-color="#ebdbb2" stop-opacity=".15493" offset=".1"/>
      <stop stop-color="#d5c4a1" stop-opacity="0" offset=".7022"/>
      <stop stop-color="#bdae93" stop-opacity=".302" offset=".9"/>
      <stop stop-color="#282828" stop-opacity=".15" offset="1"/>
    </linearGradient>
  </defs>
  <path d="m165 12c72 0 85 15 85 87v56c0 70-13 85-85 85h-74c-72 0-85-15-85-85v-56c0-72 13-87 85-87z" fill="url(#b)" style="isolation:isolate"/>
  <path d="m83.996 185.99c-5.4729 0-6.3145 3.8891-6.3145 6.1484v15.344h4.127v-11.133h5.0957v-3.4356h-5.0957c0.0025-1.8771 0.38216-3.4192 2.6035-3.4336 0.52971 0 1.618 0.14156 2.4102 0.49804l0.80273-3.2949c-0.05168-0.0218-1.6625-0.69336-3.6289-0.69336zm11.689 0c-5.4729 0-6.3164 3.8891-6.3164 6.1484v15.344h4.127v-11.133h5.0977v-3.4356h-5.0977v-0.71875c0-0.81034 0.059-2.7148 2.6035-2.7148 0.52971 0 1.618 0.14156 2.4102 0.49804l0.80273-3.2949c-0.05168-0.0218-1.6605-0.69336-3.627-0.69336zm-43.291 1.8555c-4.2662 0-7.0625 2.1953-7.0625 5.7617 0 3.6317 2.8636 4.8313 5.2617 5.6777 3.2223 1.0741 3.9336 1.8467 3.9336 2.9082 0 1.3138-0.86173 1.9941-3.1016 1.9941-1.8232-0.0564-3.5958-0.29797-5.207-1.2188l-1.2188 3.4336c2.2369 1.2782 4.9881 1.4688 6.4258 1.4688 3.4277 0 7.5605-0.97047 7.5605-5.6504 0-3.6227-1.7916-4.8774-5.8984-6.3984-1.3771-0.48308-3.1052-0.88861-3.3242-2.5469 0-1.1921 0.88692-1.7461 2.9082-1.7461 1.4615 0.0551 2.8549 0.35178 4.1543 1.0527l1.2461-3.4062c-1.2389-0.67578-3.1012-1.3301-5.6777-1.3301zm15.205 4.6816c-1.5394 0-3.7377 0.35047-4.8457 0.69141l0.52539 3.3242c1.016-0.37629 2.6229-0.58204 3.8496-0.58204 2.4727 0.16437 2.8535 1.2231 2.8535 2.7148-0.36209-0.10343-1.3456-0.25-2.4375-0.25-1.9852 0-6.1484 0.48708-6.1484 4.5703 0 4.5202 4.1333 4.791 6.2598 4.791 1.9156 0 3.8471-0.18499 6.2871-0.71875v-8.5859c0-4.0156-1.844-5.9551-6.3438-5.9551zm51.35 0c-3.9507 0-7.1719 2.845-7.1719 7.6445 0 4.4194 2.7256 7.6992 7.1719 7.6992 4.1215 0 7.1465-2.8226 7.1465-7.6992 0-4.6902-3.0552-7.6445-7.1465-7.6445zm16.535 0.0547c-0.16043 0-3.3723 0.0126-6.2031 0.83203v14.068h4.127v-11.244c0.22619-0.0323 1.2836-0.13867 1.8281-0.13867 1.7516 0 2.4922 0.80392 2.4922 3.6562v7.7266h4.127v-8.2246c0-4.0107-1.4986-6.6758-6.3711-6.6758zm-28.443 0.0273c-2.0939 0-4.1205 0.42843-5.9824 1.0801v13.793h4.127v-11.133c0.32232-0.0966 1.3054-0.22266 1.7441-0.22266 0.73659 0 1.6442 0.12748 2.9082 0.44336l0.6914-3.4062c-0.77847-0.3245-2.8526-0.55469-3.4883-0.55469zm11.908 3.4629c2.7181 0 2.9375 3.105 2.9375 4.0996 0 2.036-0.72734 4.1543-2.9375 4.1543-2.1026 0-2.9629-1.8978-2.9629-4.1543 0-2.5252 1.0716-4.0996 2.9629-4.0996zm-50.629 5.123c0.6619 0 1.4274 0.11577 1.6621 0.16797v3.1289c-0.6067 0.10177-1.6726 0.11133-2.0488 0.11133-2.2648 0-2.4375-1.0011-2.4375-1.7188 0-0.86939 0.48576-1.6894 2.8242-1.6894zm33.777 12.43c-1.8055 0-3.104 0.99492-3.6523 1.5059l1.1855 1.666c0.07861-0.0786 1.1441-1.1211 2.3711-1.1211 0.62885 0 1.3945 0.21766 1.3945 1.2812 0 0.64175-0.42153 1.193-1.1367 1.9082-1.7468 1.6635-0.70272 0.68508-1.7324 1.6504-0.49424 0.4783-1.1618 1.2492-1.5527 2.2266-0.16025 0.42735-0.24219 0.89736-0.24219 1.4102 0.01068 0.27749-0.01889 0.55898 0.0332 0.83398h7.4043v-2.0039h-4.7774c0.032-0.10683 0.11399-0.24013 0.24219-0.40039 0.1343-0.16529 0.51658-0.62987 0.99219-1.1055 0.67972-0.67971 0.6089-0.56004 1.4746-1.4258 1.7195-1.7195 1.7305-2.8889 1.7305-3.2539 0-1.3892-0.60891-3.1719-3.7344-3.1719zm-22.131 0.12695c-0.73385 0-2.2449 0.0761-3.3809 0.28906v10.77c0.6517 0.1388 1.2767 0.22376 1.875 0.25586 0.60896 0.0427 1.2172 0.0645 1.8262 0.0645 2.6999 0 5.0645-0.77965 5.0645-3.5098-0.18165-1.2792-0.51073-2.1556-1.8262-2.6445 0.85469-0.51283 1.2812-1.2129 1.2812-2.0996 0-2.6228-2.5391-3.125-4.8398-3.125zm10.803 0c-1.9336 0-3.3601 0.26444-3.4141 0.27344v10.816c1.3367 0.272 2.9791 0.28907 3.334 0.28907 2.3455 0 6.3926-0.72169 6.3926-5.7051 0-4.622-3.3051-5.6738-6.3125-5.6738zm-42.998 0.12891-0.52734 2.7246h-2.2441v1.8418h1.8906l-0.38477 1.9727h-1.5059v1.8418h1.1543l-0.51367 2.7246h2.084l0.51172-2.7246h1.8594l-0.51172 2.7246h2.082l0.51367-2.7246h2.2598v-1.8418h-1.9082l0.38477-1.9727h1.5234v-1.8418h-1.1699l0.5293-2.7246h-2.084l-0.5293 2.7246h-1.8594l0.5293-2.7246zm8.8301 0v11.105h2.5v-4.584h4.3926v-2.0977h-4.3926v-2.3242h4.9375v-2.0996zm11.73 0c-0.37392 0.76922-0.73533 1.5591-1.0879 2.3711-1.2904 3.0245-2.2083 5.5015-3.334 8.7344h2.5957c0.25718-0.80672 0.52961-1.6082 0.81836-2.4043h4.3262c0.27395 0.80079 0.55908 1.598 0.81641 2.4043h2.6777c-1.4435-4.1454-2.7565-7.5747-4.4238-11.105zm39.936 0v11.105h2.5v-4.584h4.3926v-2.0977h-4.3926v-2.3242h4.9375v-2.0996zm-27.9 1.8906c1.7908 0 2.0195 0.64797 2.0195 1.2188 0 0.96388-0.75847 1.25-2.1465 1.25h-1.2188v-2.4199c0.44823-0.0208 0.89619-0.0548 1.3457-0.0488zm10.529 0.11328c1.5102 0 3.6055 0.39481 3.6055 3.541 0 1.4915-0.56322 3.5566-3.6855 3.5566-0.32065-9e-3 -0.64182 0.0142-0.96094-0.0312v-7.0195c0.34668-0.0182 0.69278-0.0549 1.041-0.0469zm-21.426 0.51172c0.84012 2.1003 1.5569 4.1175 1.5859 4.1992h-3.1562c0.90896-2.5564 1.2837-3.3393 1.5703-4.1992zm-20.496 2.0508h1.8594l-0.38476 1.9727h-1.8594zm30.047 1.6992h1.5703c2.2022 0 2.2285 1.049 2.2285 1.4258-0.37462 1.272-1.1514 1.5068-2.5 1.5078-0.46844 0-0.90587-0.0182-1.2988-0.0644z" fill="#ebdbb2" opacity=".6" stroke-width="1.3848"/>
  <path d="m51.426 203.3c2.2398 0 3.102-0.68038 3.102-1.9942 0-1.0615-0.71061-1.834-3.9329-2.9081-2.3981-0.8464-5.2624-2.0461-5.2624-5.6778 0-3.5665 2.7964-5.7609 7.0626-5.7609 2.5766 0 4.4389 0.65366 5.6778 1.3294l-1.2463 3.4067c-1.2994-0.70096-2.693-0.99737-4.1545-1.0525-2.0213 0-2.9081 0.55279-2.9081 1.7449 0.21904 1.6583 1.9465 2.065 3.3236 2.5481 4.1068 1.5211 5.8994 2.7752 5.8994 6.3979 0 4.6799-4.1335 5.6501-7.5612 5.6501-1.4377 0-4.1887-0.18969-6.4256-1.4679l1.2186-3.4344c1.6112 0.92078 3.3838 1.1622 5.207 1.2186zm16.507 0.41545c0.37626 0 1.4429-9e-3 2.0495-0.11077v-3.1297c-0.2347-0.0522-0.9999-0.16622-1.6618-0.16622-2.3385 0-2.8251 0.82007-2.8251 1.6895 0 0.71768 0.17248 1.7172 2.4373 1.7172zm-0.33236-12.076c4.4998 0 6.3425 1.9392 6.3425 5.9548v8.586c-2.44 0.53376-4.3715 0.72011-6.2871 0.72011-2.1265 0-6.2594-0.2713-6.2594-4.7915 0-4.0832 4.1634-4.57 6.1486-4.57 1.0919 0 2.0752 0.14581 2.4373 0.24924 0-1.4917-0.38001-2.5499-2.8527-2.7143-1.2267 0-2.8338 0.20533-3.8498 0.58162l-0.52624-3.3236c1.1081-0.34094 3.3075-0.69238 4.8469-0.69238zm16.396-6.5364c1.9664 0 3.5766 0.67066 3.6283 0.69242l-0.8032 3.2959c-0.7922-0.35648-1.8799-0.49853-2.4096-0.49853-2.2214 0.0144-2.601 1.5573-2.6035 3.4344h5.0962v3.4344h-5.0962v11.134h-4.1268v-15.344c0-2.2594 0.84189-6.1486 6.3148-6.1486zm11.688 0c1.9664 0 3.5766 0.67066 3.6283 0.69242l-0.8032 3.2959c-0.7922-0.35648-1.8799-0.49853-2.4096-0.49853-2.5445 0-2.6035 1.9039-2.6035 2.7143v0.72011h5.0962v3.4344h-5.0962v11.134h-4.1268v-15.344c0-2.2594 0.84189-6.1486 6.3148-6.1486zm14.153 10.58c-1.264-0.31588-2.1716-0.44314-2.9081-0.44314-0.43873 0-1.4226 0.12495-1.7449 0.22153v11.134h-4.1268v-13.793c1.8619-0.65165 3.8886-1.0802 5.9825-1.0802 0.63571 0 2.7113 0.22948 3.4898 0.55398zm16.258 3.6006c0 4.8766-3.0242 7.6996-7.1457 7.6996-4.4463 0-7.1734-3.2803-7.1734-7.6996 0-4.7995 3.2228-7.6443 7.1734-7.6443 4.0913 0 7.1457 2.954 7.1457 7.6443zm-4.2099 0c0-0.99464-0.21771-4.0991-2.9358-4.0991-1.8913 0-2.9635 1.5739-2.9635 4.0991 0 2.2565 0.86092 4.1545 2.9635 4.1545 2.2102 0 2.9358-2.1185 2.9358-4.1545zm7.395-6.758c2.8308-0.81941 6.0436-0.8309 6.204-0.8309 4.8724 0 6.3702 2.6641 6.3702 6.6749v8.2259h-4.1268v-7.7274c0-2.8523-0.74105-3.656-2.4927-3.656-0.54454 0-1.6018 0.10624-1.828 0.13849v11.245h-4.1268z" fill="#3c3836" stroke-width="1.3848" aria-label="Saffron"/>
  <path d="m83.996 185.1c-5.4729 0-6.3145 3.8891-6.3145 6.1484v0.88476c0-2.2594 0.84152-6.1484 6.3145-6.1484 1.656 0 2.9988 0.45574 3.4316 0.61914l0.19727-0.81055c-0.05168-0.0218-1.6625-0.69336-3.6289-0.69336zm11.689 0c-5.4729 0-6.3164 3.8891-6.3164 6.1484v0.88476c0-2.2594 0.84348-6.1484 6.3164-6.1484 1.656 0 2.9973 0.45574 3.4297 0.61914l0.19727-0.81055c-0.05168-0.0218-1.6605-0.69336-3.627-0.69336zm-43.291 1.8555c-4.2662 0-7.0625 2.1953-7.0625 5.7617 0 0.1495 0.01201 0.28828 0.02148 0.42969 0.23079-3.2951 2.9608-5.3066 7.041-5.3066 2.4072 0 4.1679 0.57498 5.4023 1.2012l0.27539-0.75586c-1.2389-0.67578-3.1012-1.3301-5.6777-1.3301zm15.205 4.6816c-1.5394 0-3.7377 0.35047-4.8457 0.69141l0.13477 0.85156c1.1395-0.32978 3.2229-0.6582 4.7109-0.6582 4.4998 0 6.3438 1.9395 6.3438 5.9551v-0.88476c0-4.0156-1.844-5.9551-6.3438-5.9551zm51.35 0c-3.9507 0-7.1719 2.845-7.1719 7.6445 0 0.15764 0.0107 0.3102 0.0176 0.46484 0.18487-4.5416 3.3219-7.2246 7.1543-7.2246 3.9623 0 6.9442 2.7758 7.1289 7.2109 6e-3 -0.15025 0.0176-0.29677 0.0176-0.45117 0-4.6902-3.0552-7.6445-7.1465-7.6445zm16.535 0.0547c-0.16044 0-3.3723 0.0126-6.2031 0.83203v0.88476c2.8308-0.81943 6.0427-0.83203 6.2031-0.83203 4.8724 0 6.3711 2.665 6.3711 6.6758v-0.88476c0-4.0107-1.4987-6.6758-6.3711-6.6758zm-28.443 0.0273c-2.0939 0-4.1206 0.42843-5.9824 1.0801v0.88476c1.8619-0.65164 3.8885-1.0801 5.9824-1.0801 0.60128 0 2.4569 0.20897 3.3184 0.50586l0.16992-0.83594c-0.77847-0.3245-2.8526-0.55469-3.4883-0.55469zm-25.188 0.30469c-0.02711 0.28437-0.04451 0.57715-0.04492 0.88476h5.0957v-0.88476zm11.652 0c-7.32e-4 0.0499-0.0098 0.1221-0.0098 0.16601v0.71875h5.0977v-0.88476zm-43.654 0.69531c-0.05332 0.16721-0.08789 0.34654-0.08789 0.55078 0.21904 1.6583 1.9471 2.0638 3.3242 2.5469 3.9434 1.4606 5.7334 2.6984 5.8711 6 0.01075-0.16085 0.02734-0.31577 0.02734-0.48633 0-3.6227-1.7916-4.8774-5.8984-6.3984-1.2756-0.44749-2.8368-0.84106-3.2363-2.2129zm17.693 4.8164c-1.9852 0-6.1484 0.48709-6.1484 4.5703 0 0.1644 0.01671 0.3115 0.02734 0.46484 0.28265-3.6882 4.2078-4.1504 6.1211-4.1504 1.0919 0 2.0754 0.14657 2.4375 0.25 0-0.32256-0.02326-0.62103-0.07617-0.89843-0.39478-0.10231-1.3134-0.23633-2.3613-0.23633zm48.465 2.207c-7e-3 0.14188-0.0234 0.27524-0.0234 0.42383 0 2.2565 0.86027 4.1543 2.9629 4.1543 2.2102 0 2.9375-2.1182 2.9375-4.1543 0-0.0811-0.0212-0.23943-0.0254-0.34571-0.1224 1.854-0.89697 3.6152-2.9121 3.6152-1.956 0-2.8261-1.6478-2.9394-3.6934zm-61.527 2.0371c-0.20141 1.0008-1.1062 1.5176-3.0566 1.5176-1.8232-0.0564-3.5958-0.29797-5.207-1.2188l-1.2188 3.4336c0.08693 0.0497 0.1792 0.0864 0.26758 0.13281l0.95117-2.6816c1.6112 0.92078 3.3838 1.1624 5.207 1.2188 2.2398 0 3.1016-0.68036 3.1016-1.9941 0-0.14114-0.01554-0.27589-0.04492-0.4082zm11.064 0.68359c-0.03169 0.13568-0.05078 0.27439-0.05078 0.41602 0 0.71768 0.17268 1.7188 2.4375 1.7188 0.37626 0 1.4421-0.01 2.0488-0.11133v-0.88477c-0.6067 0.10177-1.6726 0.11133-2.0488 0.11133-1.7995 0-2.266-0.63032-2.3867-1.25z" fill="#282828" stroke-width="1.3848"/>
  <path d="m49.327 215.72h1.859l0.52884-2.7243h2.0833l-0.52884 2.7243h1.1699v1.8429h-1.5224l-0.38461 1.9711h1.907v1.8429h-2.2596l-0.51281 2.7243h-2.0833l0.51281-2.7243h-1.859l-0.51281 2.7243h-2.0833l0.51281-2.7243h-1.1538v-1.8429h1.5064l0.38461-1.9711h-1.891v-1.8429h2.2436l0.52884-2.7243h2.0833zm-0.73717 3.8141h1.859l0.38461-1.9711h-1.859zm8.0127 4.5673v-11.106h7.4358v2.0993h-4.9358v2.3237h4.391v2.0993h-4.391v4.5833zm15.865 0c-0.25732-0.80626-0.54335-1.603-0.8173-2.4038h-4.3269c-0.28875 0.79607-0.56012 1.5971-0.8173 2.4038h-2.5961c1.1257-3.2329 2.0428-5.7094 3.3333-8.7339 0.35256-0.81196 0.7158-1.6025 1.0897-2.3718h2.3878c1.6673 3.5307 2.9795 6.9603 4.423 11.106zm-2.9968-8.5896c-0.28663 0.8599-0.66154 1.6422-1.5705 4.1987h3.157c-0.02901-0.0817-0.7464-2.0984-1.5865-4.1987zm10.817 8.7339c-0.60896 0-1.2179-0.0214-1.8269-0.0641-0.59828-0.0321-1.2233-0.11759-1.875-0.25639v-10.769c1.136-0.21299 2.6475-0.2884 3.3814-0.2884 2.3008 0 4.8397 0.50221 4.8397 3.125 0 0.88675-0.42735 1.5865-1.282 2.0993 1.3154 0.48893 1.6452 1.365 1.8269 2.6442 0 2.7301-2.3642 3.5096-5.064 3.5096zm-1.266-4.9839v2.8685c0.39295 0.0462 0.82962 0.0641 1.2981 0.0641 1.3486-1e-3 2.1253-0.23442 2.5-1.5064 0-0.37675-0.02535-1.4263-2.2275-1.4263zm0-1.907h1.2179c1.388 0 2.1474-0.2861 2.1474-1.25 0-0.57078-0.22842-1.2179-2.0192-1.2179-0.44952-6e-3 -0.89791 0.0274-1.3461 0.0482zm10.833 4.7115c0.31912 0.0454 0.64087 0.0228 0.96153 0.0321 3.1223 0 3.6859-2.0661 3.6859-3.5576 0-3.1462-2.0955-3.5416-3.6057-3.5416-0.34824-8e-3 -0.69497 0.03-1.0417 0.0482zm7.2275-3.5256c0 4.9834-4.0487 5.7051-6.3942 5.7051-0.35486 0-1.9966-0.0165-3.3333-0.2885v-10.817c0.05398-9e-3 1.4798-0.27248 3.4134-0.27248 3.0074 0 6.314 1.051 6.314 5.673zm8.7499-2.6282c0 0.36501-0.0113 1.5336-1.7308 3.2532-0.86571 0.86574-0.7946 0.74654-1.4743 1.4262-0.47561 0.4756-0.85929 0.94047-0.99359 1.1058-0.1282 0.16026-0.20833 0.2938-0.24038 0.40063h4.7756v2.0032h-7.4037c-0.05209-0.275-0.02138-0.55585-0.03206-0.83334 0-0.5128 0.08013-0.98288 0.24038-1.4102 0.39096-0.97739 1.0602-1.7492 1.5545-2.2275 1.0297-0.96531-0.016 0.0129 1.7308-1.6506 0.71519-0.7152 1.1378-1.2653 1.1378-1.907 0-1.0636-0.76537-1.282-1.3942-1.282-1.227 0-2.2931 1.0432-2.3718 1.1218l-1.1859-1.6666c0.54832-0.51094 1.8483-1.5064 3.6538-1.5064 3.1255 0 3.7339 1.7838 3.7339 3.173zm2.4359 8.189v-11.106h7.4358v2.0993h-4.9358v2.3237h4.391v2.0993h-4.391v4.5833z" fill="#665c54" stroke-width="1.6025" aria-label="#FABD2F"/>
  <path d="m102.1 212.74c-1.8055 0-3.104 0.99492-3.6523 1.5059l0.39648 0.55859c0.66484-0.52237 1.7765-1.1797 3.2559-1.1797 2.7832 0 3.566 1.4125 3.7051 2.7031 0.0272-0.18524 0.0293-0.32561 0.0293-0.41602 0-1.3892-0.6089-3.1719-3.7344-3.1719zm-22.131 0.12695c-0.73385 0-2.2449 0.0761-3.3809 0.28906v0.88477c1.136-0.21296 2.647-0.28907 3.3809-0.28907 2.1323 0 4.466 0.43506 4.7969 2.5859 0.0161-0.11476 0.04297-0.22389 0.04297-0.3457 0-2.6228-2.5391-3.125-4.8398-3.125zm10.803 0c-1.9336 0-3.3601 0.26444-3.4141 0.27344v0.88476c0.05398-9e-3 1.4804-0.27344 3.4141-0.27344 2.903 1e-5 6.0737 0.98967 6.291 5.2148 0.0072-0.14227 0.02148-0.2759 0.02148-0.42578 0-4.622-3.3051-5.6738-6.3125-5.6738zm-42.998 0.12891-0.52734 2.7246h-2.2441v0.88476h2.2441l0.52734-2.7246h1.9121l0.17188-0.88476zm3.9434 0-0.5293 2.7246h-1.6875l-0.17188 0.88476h1.8594l0.5293-2.7246h1.9121l0.17188-0.88476zm4.8867 0v0.88476h7.4375v-0.88476zm11.73 0c-0.37392 0.76922-0.73533 1.5591-1.0879 2.3711-1.2904 3.0245-2.2083 5.5015-3.334 8.7344h0.32031c0.98158-2.7872 1.8517-5.1262 3.0137-7.8496 0.35256-0.81195 0.71396-1.6019 1.0879-2.3711h2.3887c1.5439 3.2693 2.7862 6.4763 4.1074 10.221h0.31641c-1.4435-4.1454-2.7565-7.5747-4.4238-11.105zm39.936 0v0.88476h7.4375v-0.88476zm-54.826 2.7246-0.17188 0.88476h1.1699v-0.88476zm49.887 0.77343c-0.14198 0.47579-0.51407 0.93204-1.0684 1.4863-1.7468 1.6635-0.70273 0.68508-1.7324 1.6504-0.49424 0.4783-1.1618 1.2492-1.5527 2.2266-0.16025 0.42735-0.24219 0.89736-0.24219 1.4102 0.0083 0.21626 0.0024 0.43423 0.01953 0.65039 0.02185-0.41973 0.08791-0.81645 0.22266-1.1758 0.39096-0.97739 1.0585-1.7483 1.5527-2.2266 1.0297-0.96531-0.0143 0.0131 1.7324-1.6504 0.71519-0.7152 1.1367-1.2665 1.1367-1.9082 0-0.17998-0.0289-0.32831-0.0684-0.46289zm-21.016 0.043c-0.21259 0.61516-0.92257 0.81836-2.0723 0.81836h-1.2188v0.88477h1.2188c1.388 0 2.1465-0.28612 2.1465-1.25 0-0.15002-0.01841-0.30561-0.07422-0.45313zm-23.211 0.88281v0.88477h4.3926v-0.88477zm51.666 0v0.88477h4.3926v-0.88477zm-26.58 1.0117c-0.18387 0.19764-0.39407 0.38409-0.66211 0.54492 1.2188 0.45303 1.5809 1.2543 1.7734 2.3848 0.03047-0.19767 0.05273-0.40193 0.05273-0.625-0.14572-1.0261-0.39557-1.789-1.1641-2.3047zm-37.469 0.0156-0.21289 1.0879h-1.5059v0.88476h1.5059l0.38477-1.9726zm3.9434 0-0.21289 1.0879h-1.6875l-0.17188 0.88476h1.8594l0.38476-1.9726zm43.811 0.6582c-0.14629 1.3984-0.91373 2.9922-3.6562 2.9922-0.32065-9e-3 -0.64182 0.0142-0.96094-0.0312v0.88476c0.31912 0.0454 0.64028 0.0222 0.96094 0.0312 3.1223 0 3.6855-2.0651 3.6855-3.5566 0-0.11946-0.0234-0.20865-0.0293-0.32031zm-41.77 0.42969-0.17188 0.88476h1.9082v-0.88476zm15.525 0.17578c-0.12088 0.32832-0.18122 0.4716-0.32812 0.88477h3.1562c-0.0096-0.0269-0.18338-0.50337-0.32227-0.88477zm14.479 1.2793c-0.40744 0.99891-1.1569 1.2042-2.3867 1.2051-0.46844 0-0.90587-0.0182-1.2988-0.0644v0.88477c0.39295 0.0462 0.83039 0.0644 1.2988 0.0644 1.3486-1e-3 2.1254-0.23586 2.5-1.5078 0-0.13435-0.0091-0.35477-0.11328-0.58203zm19.34 1.1074c-0.19077 0.21629-0.3401 0.39574-0.41211 0.48437-0.1282 0.16026-0.21019 0.29356-0.24219 0.40039h4.7773v-0.88476zm-56.059 0.16406-0.34766 1.8398h0.16602l0.34766-1.8398zm3.9414 0-0.3457 1.8398h0.16602l0.3457-1.8398z" fill="#282828" opacity=".3" stroke-width="1.3848"/>
  <path d="m91 12c-72 0-85 15-85 87v56c0 7.195 0.13005 13.672 0.45469 19.748h243.09c0.32465-6.0763 0.45469-12.553 0.45469-19.748v-56c0-72-13-87-85-87z" fill="#fabd2f" style="isolation:isolate"/>
  <path d="m91 12c-72 0-85 15-85 87v56c0 70 13 85 85 85h74c72 0 85-15 85-85v-56c0-72-13-87-85-87zm0 4h74c68 0 80 15 80 83v56c0 66-12 81-80 81h-74c-68 0-80-15-80-81v-56c0-68 12-83 80-83z" fill="url(#linearGradient31)" style="isolation:isolate"/>
</svg>
