<svg width="256" height="256" version="1.1" xmlns="http://www.w3.org/2000/svg">
  <defs>
    <linearGradient id="linearGradient31" x1=".5002" x2=".5002" y2="1" gradientTransform="matrix(244,0,0,228,5.986,12)" gradientUnits="userSpaceOnUse">
      <stop stop-color="#ebdbb2" stop-opacity=".2" offset="0"/>
      <stop stop-color="#ebdbb2" stop-opacity=".05" offset=".1"/>
      <stop stop-opacity="0" offset=".7036"/>
      <stop stop-opacity=".1" offset=".8975"/>
      <stop stop-opacity=".2" offset="1"/>
    </linearGradient>
    <linearGradient id="linearGradient6" x1="140" x2="140" y1="12" y2="240" gradientUnits="userSpaceOnUse">
      <stop stop-color="#3c3836" offset="0"/>
      <stop stop-color="#504945" offset="1"/>
    </linearGradient>
  </defs>
  <path d="m165 12c72 0 85 15 85 87v56c0 70-13 85-85 85h-74c-72 0-85-15-85-85v-56c0-72 13-87 85-87z" fill="url(#linearGradient6)" style="isolation:isolate"/>
  <path d="m218.76 87.364c-57.161 6.4588-99.487 43.652-99.538 87.467 0.0528 15.419 5.4176 30.56 15.563 43.924h74.9c5.0278 0 9.0755-4.0477 9.0755-9.0755l45.044 25.055 1.7999-153.59z" display="none" fill="#306082" stroke-width="4.5378"/>
  <path d="m249.74 83.249-30.989 4.1152c-57.161 6.4588-99.488 43.654-99.539 87.469 0.0528 15.419 5.417 30.56 15.562 43.924h74.9c5.0278 0 9.0762-4.0484 9.0762-9.0762l18.807 10.461c5.6731-7.4961 8.9636-17.533 10.718-30.962 1.2516-9.5818 1.7197-20.913 1.7197-34.178v-56c0-5.6305-0.0746-10.799-0.25563-15.752z" fill="#458588" style="isolation:isolate"/>
  <path d="m146.26 132.37c-18.529 0.69528-17.173 6.1906-28.352 11.805-3.9461 1.982-10.708 2.9788-14.597 5.3443-22.05 13.414-41.747 32.24-42.958 47.939-0.64023 8.3011-5.4843 60.007 2.1742 65.911l161.1-7.2497c5.0228-0.22604 26.52-10.416 28.036-15.21l12.534-39.636-45.437-34.516c-21.33-19.028-51.709-35.168-72.498-34.388z" display="none" fill="#6abe30" stroke-width="4.5378"/>
  <path d="m146.26 132.36c-18.529 0.69528-17.175 6.1901-28.354 11.805-3.9461 1.982-10.707 2.9802-14.596 5.3457-22.05 13.414-41.748 32.238-42.959 47.938-0.37184 4.8212-2.1471 24.262-2.082 40.889 9.276 1.1508 20.043 1.6543 32.732 1.6543h74c18.48 0 33.019-0.98452 44.505-3.629 24.858-5.7233 35.121-19.203 38.77-47.187l-29.52-22.426c-21.33-19.028-51.709-35.169-72.498-34.389z" fill="#689d6a" style="isolation:isolate"/>
  <path d="m114.4 150.66c-14.095-0.35303-26.804 2.6545-34.547 10.866-14.615 15.498-33.185 24.342-26.863 40.468 1.2429 3.1704 7.587 9.2279 16.946 16.76l3.2329 54.606 142.51-16.885-11.597-37.721c-5.9232-16.689-11.822-31.082-14.393-36.497-6.5356-13.765-44.281-30.819-75.29-31.596z" display="none" fill="#37946e" stroke-width="4.5378"/>
  <path d="m114.4 150.66c-14.095-0.35303-26.804 2.6539-34.547 10.865-14.615 15.498-33.185 24.343-26.863 40.469 1.2429 3.1704 7.5866 9.2281 16.945 16.76l1.2246 20.695c6.0966 0.34445 12.592 0.54876 19.836 0.54883l74.001 7.1e-4c18.46 1.8e-4 33.031-0.98723 44.509-3.6335l-5.4219-17.611c-5.9232-16.689-11.823-31.083-14.395-36.498-6.5356-13.765-44.281-30.819-75.289-31.596z" fill="#427b58" style="isolation:isolate"/>
  <path d="m53.357 146.91c-6.4349-0.32535-11.588 4.3367-16.113 10.644v52.122c0 5.0278 4.0477 9.0755 9.0755 9.0755l4.3789 59.708 110.75-8.9601-11.971-50.748c-5.6525-19.184-14.126-36.119-23.593-44.943-11.058-10.308-46.226-15.247-66.32-25.17-2.1925-1.0827-4.2556-1.6298-6.204-1.7282z" display="none" fill="#306082" stroke-width="4.5378"/>
  <path d="m52.166 146.91c-5.8849 0.2672-10.68 4.7332-14.922 10.646v52.123c0 5.0278 4.0483 9.0762 9.0762 9.0762l1.3105 17.863c11.299 2.4543 25.516 3.3809 43.369 3.3809h63.486l-5.0117-21.244c-5.6525-19.183-14.127-36.119-23.594-44.943-11.058-10.308-46.226-15.249-66.32-25.172-2.1925-1.0827-4.2548-1.6281-6.2031-1.7266-0.40218-0.0203-0.79908-0.0217-1.1914-4e-3z" fill="#076678" style="isolation:isolate"/>
  <path d="m45.159 145.39c-2.6335 8e-3 -5.2798 0.32236-7.9145 0.93947v63.351c0 5.0278 4.0477 9.0755 9.0755 9.0755l-3.4631 64.14 45.255 2.2232 2.8237-66.363c1.0593-22.163-4.6273-43.044-15.51-56.952-8.2527-10.523-18.92-16.308-30.266-16.414z" display="none" fill="#d95763" stroke-width="4.5378"/>
  <path d="m45.16 145.4c-2.6335 8e-3 -5.2814 0.32235-7.916 0.93945v63.352c0 5.0278 4.0483 9.0762 9.0762 9.0762l-0.9447 17.337c11.439 2.7974 26.069 3.8562 44.656 3.8933l0.9043-21.23c1.0593-22.163-4.6272-43.045-15.51-56.953-8.2527-10.523-18.919-16.308-30.266-16.414z" fill="#fb4934" style="isolation:isolate"/>
  <path d="m38.264 142.32c-19.1-2.1744-38.355-2.6088-57.544-3.6005l6.6133 107.49c0.30877 5.0184 29.237 18.329 33.892 20.229l29.474 12.027 2.7025-59.708c-0.78028-3.5108-0.55552-6.4836 1.2939-8.4463 10.585-11.233 22.372-33.559 16.051-49.685-4.7411-12.094-17.856-18.922-32.482-18.302z" display="none" fill="#ac3232" stroke-width="4.5378"/>
  <path d="m6.0004 139.91 0.012673 15.09c0.021076 25.096 1.6626 43.127 7.1226 55.928 6.5207 15.288 18.473 23.119 39.419 26.638l-0.01436-6.4356c9.8e-4 -3.0265 0.75602-5.2346 2.2305-7.0723 10.585-11.233 22.31-47.31 15.988-63.436-4.7411-12.094-17.869-18.923-32.495-18.303-10.719-1.2203-21.486-1.8798-32.264-2.4102z" fill="#9d0006" style="isolation:isolate"/>
  <path d="m37.245 136.45-45.348-3.8519 6.5612 88.153 38.787-25.975c17.343-8.8263 26.052-26.577 20.287-41.354-3.2442-8.228-10.612-14.392-20.287-16.972z" display="none" fill="#76428a" stroke-width="4.5378"/>
  <path d="m6.0005 133.79v21.209c0 25.102 1.6704 43.129 7.1351 55.93l24.109-16.159c17.343-8.8263 26.052-26.577 20.287-41.354-3.2442-8.228-10.612-14.392-20.287-16.973z" fill="#8f3f71" style="isolation:isolate"/>
  <path d="m146.26 132.37c-18.529 0.69528-17.173 6.1906-28.352 11.805-3.9461 1.982-10.708 2.9788-14.597 5.3443-0.44833 0.27271-0.87411 0.58241-1.3205 0.85967 7.1935 1.7356 16.516 2.8184 26.845 2.8184 22.562 0 75.801 32.534 76.894 26.438 2.6733-14.921-4.1125-25.491-14.854-32.89-5.6037-3.2161-11.285-6.0125-16.866-8.2779-8.277-2.9541-17.042-4.893-25.091-6.071-1.5719-0.0399-2.6542-0.0313-2.6588-0.0266z" fill="#8ec07c" stroke-width="4.5378"/>
  <path d="m146.26 132.37c-18.529 0.69528-17.173 6.1906-28.352 11.805-3.9461 1.982-10.708 2.9788-14.597 5.3443-0.46881 0.28543-0.91605 0.60512-1.3826 0.8951a40.852 11.214 0 0 0 26.907 2.7829 40.852 11.214 0 0 0 40.849-11.211 40.852 11.214 0 0 0-19.693-9.5718c-1.2715-0.0666-2.521-0.0899-3.7312-0.0454z" fill="#fabd2f" stroke-width="4.5378"/>
  <path d="m218.76 87.364c-37.434 4.275-69.811 22.046-86.856 47.673-4.9547 2.2739-7.1061 5.6778-13.994 9.1375-3.9461 1.982-10.708 2.9788-14.597 5.3443-1.1329 0.68914-2.223 1.4459-3.3413 2.1625-5.8268 1.0561-11.052 3.0021-15.395 5.947-7.64-2.2766-15.047-4.6724-21.439-7.4536-3.4329-2.9173-7.607-5.0482-12.248-6.3546-3.6657-3.4226-8.3348-5.9468-13.64-7.3739l-31.244-2.6547-5.41e-4 3.9805s24.748 1.7536 31.245 3.212c5.305 1.4271 9.9742 3.9513 13.64 7.3739 4.6414 1.3065 8.8155 3.4373 12.248 6.3546 6.3924 2.7812 13.799 5.177 21.439 7.4536 4.3427-2.9448 9.5679-4.8909 15.395-5.947 1.1182-0.71659 2.2084-1.4734 3.3413-2.1625 3.8886-2.3655 10.651-3.3623 14.597-5.3443 6.8882-3.4597 9.0396-6.8636 13.994-9.1376 17.045-25.627 49.421-43.398 86.856-47.673l31.123-4.1461-0.13468-4.5069z" fill="#ebdbb2" opacity=".1" stroke-width="4.5378"/>
  <path d="m139.66 36.809v22.284h16.713v-22.284zm-89.136 38.997v44.568h-11.142v22.284h27.855v-44.568h27.855v-22.284h-27.855zm44.568 22.284v22.284h16.713v-22.284zm16.713 0h16.713v-22.284h-16.713zm0 22.284v22.284h83.565v-22.284h-11.142v-44.568h-16.713v44.568h-11.142v-44.568h-16.713v44.568zm-16.713 0h-16.713v22.284h16.713zm100.28-44.568v38.997h16.713v-38.997z" fill="#282828" opacity=".5" stroke-width="5.571"/>
  <path d="m139.66 31.237v22.286h16.713v-22.286zm-89.137 38.998v44.566h-11.14v22.286h27.853v-44.569h27.856v-22.283h-27.856zm44.569 22.283v22.283h16.713v-22.283zm16.713 0h16.713v-22.283h-16.713zm0 22.283v22.286h83.565v-22.286h-11.143v-44.566h-16.713v44.566h-11.14v-44.566h-16.713v44.566zm83.565 0h16.713v-44.566h-16.713zm-100.28 0h-16.713v22.286h16.713z" fill="#ebdbb2" stroke-width="5.571"/>
  <path d="m139.66 31.234v5.5742h16.713v-5.5742zm-89.137 38.998v5.5742h44.568v-5.5742h-27.855zm61.281 0v5.5742h16.713v-5.5742zm27.855 0v5.5742h16.713v-5.5742zm27.854 0v5.5742h16.713v-5.5742zm27.855 0v5.5742h16.713v-5.5742zm-100.28 22.283v5.5742h16.713v-5.5742zm-55.709 22.283v5.5742h11.141v-5.5742zm38.994 0v5.5742h16.713v-5.5742zm33.428 0v5.5742h27.855v-5.5742zm44.568 0v5.5742h11.141v-5.5742zm27.854 0v5.5742h11.143v-5.5742z" fill="#fbf1c7" opacity=".6"/>
  <path d="m91 12c-72 0-85 15-85 87v56c0 70 13 85 85 85h74c72 0 85-15 85-85v-56c0-72-13-87-85-87zm0 4h74c68 0 80 15 80 83v56c0 66-12 81-80 81h-74c-68 0-80-15-80-81v-56c0-68 12-83 80-83z" fill="url(#linearGradient31)" style="isolation:isolate"/>
</svg>
