<svg width="256" height="256" version="1.1" xmlns="http://www.w3.org/2000/svg">
  <defs>
    <linearGradient id="linearGradient31" x1=".5002" x2=".5002" y2="1" gradientTransform="matrix(244,0,0,228,5.986,12)" gradientUnits="userSpaceOnUse">
      <stop stop-color="#ebdbb2" stop-opacity=".2" offset="0"/>
      <stop stop-color="#ebdbb2" stop-opacity=".05" offset=".1"/>
      <stop stop-opacity="0" offset=".7036"/>
      <stop stop-opacity=".1" offset=".8975"/>
      <stop stop-opacity=".2" offset="1"/>
    </linearGradient>
    <linearGradient id="linearGradient6" x1="140" x2="140" y1="12" y2="240" gradientUnits="userSpaceOnUse">
      <stop stop-color="#b16286" offset="0"/>
      <stop stop-color="#b16286" offset="1"/>
    </linearGradient>
  </defs>
  <path d="m165 12c72 0 85 15 85 87v56c0 70-13 85-85 85h-74c-72 0-85-15-85-85v-56c0-72 13-87 85-87z" fill="url(#linearGradient6)" style="isolation:isolate"/>
  <path d="m128 42.5c-50.12 0-90.75 40.63-90.75 90.75 0.03974 4.341 0.39091 8.6736 1.0508 12.964h153.2c-6.16 30.178-32.705 51.854-63.505 51.857-20.376-0.02389-39.555-9.6275-51.781-25.929h-30.094c15.004 31.632 46.865 51.812 81.875 51.857 50.12 0 90.75-40.63 90.75-90.75-0.0397-4.341-0.39091-8.6736-1.0508-12.964h-153.2c6.16-30.178 32.705-51.854 63.505-51.857 20.376 0.02389 39.555 9.6275 51.781 25.929h30.094c-15.004-31.632-46.865-51.811-81.875-51.857z" fill="#ebdbb2" opacity=".1" stroke-width="6.4822"/>
  <path d="m128 37.25c-50.12 0-90.75 40.63-90.75 90.75 0.03974 4.341 0.39091 8.6736 1.0508 12.964h153.2c-6.16 30.178-32.705 51.854-63.505 51.857-20.376-0.02389-39.555-9.6275-51.781-25.929h-30.094c15.004 31.632 46.865 51.812 81.875 51.857 50.12 0 90.75-40.63 90.75-90.75-0.0397-4.341-0.39091-8.6736-1.0508-12.964h-153.2c6.16-30.178 32.705-51.854 63.505-51.857 20.376 0.02389 39.555 9.6275 51.781 25.929h30.094c-15.004-31.632-46.865-51.811-81.875-51.857z" fill="#8f3f71" stroke-width="6.4822"/>
  <path d="m128 37.25c-50.12 0-90.75 40.63-90.75 90.75 0.05524 0.82118 0.12166 1.6416 0.19922 2.4609 1.505-48.95 41.578-87.877 90.551-87.961 32.794 0.13622 62.963 17.954 78.914 46.607h2.9609c-15.004-31.632-46.865-51.812-81.875-51.857zm-61.955 77.785c-0.58997 1.7274-1.1067 3.479-1.5488 5.25h153.2c0.48708 3.4818 0.77141 6.9891 0.85156 10.504 0.0807-0.92861 0.14714-1.8584 0.19922-2.7891-0.0397-4.3412-0.39086-8.6739-1.0508-12.965zm123.91 31.18c-8.0615 27.535-33.265 46.495-61.955 46.607-20.376-0.02413-39.556-9.6282-51.781-25.93h-30.094c0.92858 1.7823 1.9161 3.5333 2.9609 5.25h27.133c12.226 16.301 31.405 25.906 51.781 25.93 30.8-4e-3 57.344-21.68 63.504-51.857z" fill="#282828" opacity=".2" stroke-width="6.4822"/>
  <path d="m108.55 81.285v51.857h-25.928l45.375 51.857 45.375-51.857h-25.928v-51.857z" fill="#282828" opacity=".2" stroke-width="6.4822"/>
  <path d="m108.55 76.143v51.857h-25.928l45.375 51.857 45.375-51.857h-25.928v-51.857h-38.895z" fill="#ebdbb2" stroke-width="6.4822"/>
  <path d="m108.55 76.143v5.1426h38.895v-5.1426zm-25.928 51.857 4.5 5.1426h21.428v-5.1426zm64.822 0v5.1426h21.428l4.5-5.1426z" fill="#fbf1c7" opacity=".6" stroke-width="6.4822"/>
  <path d="m91 12c-72 0-85 15-85 87v56c0 70 13 85 85 85h74c72 0 85-15 85-85v-56c0-72-13-87-85-87zm0 4h74c68 0 80 15 80 83v56c0 66-12 81-80 81h-74c-68 0-80-15-80-81v-56c0-68 12-83 80-83z" fill="url(#linearGradient31)" style="isolation:isolate"/>
</svg>
