<svg width="256" height="256" version="1.1" xmlns="http://www.w3.org/2000/svg">
  <defs>
    <linearGradient id="linearGradient31" x1=".5002" x2=".5002" y2="1" gradientTransform="matrix(244,0,0,228,5.986,12)" gradientUnits="userSpaceOnUse">
      <stop stop-color="#ebdbb2" stop-opacity=".2" offset="0"/>
      <stop stop-color="#ebdbb2" stop-opacity=".05" offset=".1"/>
      <stop stop-opacity="0" offset=".7036"/>
      <stop stop-opacity=".1" offset=".8975"/>
      <stop stop-opacity=".2" offset="1"/>
    </linearGradient>
    <linearGradient id="linearGradient6" x1="140" x2="140" y1="12" y2="240" gradientUnits="userSpaceOnUse">
      <stop stop-color="#3c3836" offset="0"/>
      <stop stop-color="#3c3836" offset="1"/>
    </linearGradient>
  </defs>
  <path d="m165 12c72 0 85 15 85 87v56c0 70-13 85-85 85h-74c-72 0-85-15-85-85v-56c0-72 13-87 85-87z" fill="url(#linearGradient6)" style="isolation:isolate"/>
  <path class="ColorScheme-Text" d="m109.83 57.427-1.604 19.17a57.18 57.18 0 0 0-16.71 9.665l-17.42-8.203-18.19 31.51 15.81 10.99a57.18 57.18 0 0 0-0.8734 9.645 57.18 57.18 0 0 0 0.8325 9.686l-15.78 10.95 18.19 31.51 17.38-8.184a57.18 57.18 0 0 0 16.75 9.604l1.563 19.23h36.39l1.604-19.17a57.18 57.18 0 0 0 16.71-9.665l17.42 8.203 18.19-31.51-15.81-10.99a57.18 57.18 0 0 0 0.8734-9.645 57.18 57.18 0 0 0-0.8325-9.686l15.78-10.95-18.19-31.51-17.38 8.184a57.18 57.18 0 0 0-16.75-9.604l-1.563-19.23zm-2.6 38.38 2e-3 3e-3s33.3 13.33 63.38 34.3c0 7e-3 2e-3 0.0138 5e-3 0.0204 3e-3 7e-3 0.01 0.0156 0.0149 0.0242 5e-3 7e-3 0.01 0.0137 0.0129 0.0223 3e-3 9e-3 7e-3 0.0119 7e-3 0.0186-28.52 20.32-63.43 34.43-63.43 34.43v-34.42z" color="#ebdbb2" fill="#282828" stroke-width="10.4"/>
  <path class="ColorScheme-Text" d="m109.83 53.214-1.604 19.17a57.18 57.18 0 0 0-16.71 9.665l-17.42-8.203-18.19 31.51 15.81 10.99a57.18 57.18 0 0 0-0.8734 9.645 57.18 57.18 0 0 0 0.8325 9.686l-15.78 10.95 18.19 31.51 17.38-8.184a57.18 57.18 0 0 0 16.75 9.604l1.563 19.23h36.39l1.604-19.17a57.18 57.18 0 0 0 16.71-9.665l17.42 8.203 18.19-31.51-15.81-10.99a57.18 57.18 0 0 0 0.8734-9.645 57.18 57.18 0 0 0-0.8325-9.686l15.78-10.95-18.19-31.51-17.38 8.184a57.18 57.18 0 0 0-16.75-9.604l-1.563-19.23zm-2.6 38.38 2e-3 0.0032s33.3 13.33 63.38 34.3c0 7e-3 2e-3 0.0138 5e-3 0.0204 3e-3 7e-3 0.01 0.0156 0.0149 0.0242 5e-3 7e-3 0.01 0.0137 0.0129 0.0223 3e-3 9e-3 7e-3 0.0119 7e-3 0.0186-28.52 20.32-63.43 34.43-63.43 34.43v-34.42z" color="#ebdbb2" fill="#ebdbb2" stroke-width="10.4"/>
  <path d="m91 12c-72 0-85 15-85 87v56c0 70 13 85 85 85h74c72 0 85-15 85-85v-56c0-72-13-87-85-87zm0 4h74c68 0 80 15 80 83v56c0 66-12 81-80 81h-74c-68 0-80-15-80-81v-56c0-68 12-83 80-83z" fill="url(#linearGradient31)" style="isolation:isolate"/>
  <path class="ColorScheme-Text" d="m109.83 53.214-1.6035 19.17a57.18 57.18 0 0 0-16.711 9.6641l-17.42-8.2031-18.189 31.51 1.7363 1.207 16.453-28.504 17.42 8.2031a57.18 57.18 0 0 1 16.711-9.6641l1.6035-19.17h36.391l1.5625 19.229a57.18 57.18 0 0 1 16.75 9.6055l17.379-8.1856 16.455 28.502 1.7363-1.2051-18.191-31.51-17.379 8.1855a57.18 57.18 0 0 0-16.75-9.6055l-1.5625-19.229zm74.992 66.977-0.5 0.3457a57.18 57.18 0 0 1 0.73828 7.4727 57.18 57.18 0 0 0 0.0957-2 57.18 57.18 0 0 0-0.33398-5.8184zm-113.62 0.01a57.18 57.18 0 0 0-0.35938 5.7891 57.18 57.18 0 0 0 0.0957 2.2129 57.18 57.18 0 0 1 0.7793-7.6445zm96.414 7.8789c-27.903 19.177-60.393 32.332-60.393 32.332v4.2129s34.91-14.11 63.43-34.43c0-7e-3 -5e-3 -9e-3 -8e-3 -0.0176-3e-3 -9e-3 -7e-3 -0.0164-0.0117-0.0234-5e-3 -9e-3 -0.0126-0.0164-0.0156-0.0234s-6e-3 -0.0145-6e-3 -0.0215c-0.9937-0.69275-1.9967-1.3534-2.9961-2.0293zm17.182 7.9336a57.18 57.18 0 0 1-0.51563 3.8535l14.074 9.7832 1.7363-3.0059zm-113.62 0.01-15.281 10.604 1.7363 3.0078 14.045-9.7442a57.18 57.18 0 0 1-0.5-3.8672z" fill="#282828" opacity=".2"/>
</svg>
