<svg xmlns="http://www.w3.org/2000/svg" xmlns:xlink="http://www.w3.org/1999/xlink" width="256" height="256" version="1.0" enable-background="new">
    <defs>
        <linearGradient id="b">
            <stop offset="0" stop-color="#ebdbb2"/>
            <stop offset="1" stop-color="#ebdbb2" stop-opacity="0"/>
        </linearGradient>
        <filter id="c" width="1.046" height="1.05" x="-.02" y="-.03" color-interpolation-filters="sRGB">
            <feGaussianBlur stdDeviation="2.32"/>
        </filter>
        <filter id="d" width="1.023" height="1.025" x="-.01" y="-.01" color-interpolation-filters="sRGB">
            <feGaussianBlur stdDeviation="1.16"/>
        </filter>
        <linearGradient id="h" x1="296" x2="296" y1="-212" y2="236" gradientUnits="userSpaceOnUse" xlink:href="#a"/>
        <linearGradient id="a">
            <stop offset="0" stop-color="#ebdbb2"/>
            <stop offset=".125" stop-color="#ebdbb2" stop-opacity=".098"/>
            <stop offset=".925" stop-opacity=".098"/>
            <stop offset="1" stop-opacity=".498"/>
        </linearGradient>
        <clipPath id="g" clipPathUnits="userSpaceOnUse">
            <path d="M361.938-212C507.235-212 528-191.287 528-46.125v116.25C528 215.286 507.235 236 361.937 236H214.063C68.766 236 48 215.286 48 70.125v-116.25C48-191.287 68.765-212 214.063-212z" fill="#b16286"/>
        </clipPath>
        <radialGradient id="e" cx="66.542" cy="240.261" r="120" fx="66.542" fy="240.261" gradientTransform="matrix(1 0 0 .93333 0 11.495)" gradientUnits="userSpaceOnUse" xlink:href="#b"/>
        <linearGradient id="f" x1="31.997" x2="-11.574" y1="261.252" y2="262.067" gradientTransform="matrix(.91583 0 0 1.00509 2.256 -2.154)" gradientUnits="userSpaceOnUse">
            <stop offset="0" stop-color="#fabd2f"/>
            <stop offset="1" stop-color="#fabd2f" stop-opacity="0"/>
        </linearGradient>
    </defs>
    <path d="M162.537 62.432c72.648 0 83.031 10.357 83.031 82.937v58.125c0 72.581-10.383 82.938-83.031 82.938H88.599c-72.648 0-83.031-10.357-83.031-82.938V145.37c0-72.58 10.383-82.937 83.031-82.937z" opacity=".2" filter="url(#c)" transform="translate(0 -44)"/>
    <path d="M162.537 61.432c72.648 0 83.031 10.357 83.031 82.937v58.125c0 72.581-10.383 82.938-83.031 82.938H88.599c-72.648 0-83.031-10.357-83.031-82.938V144.37c0-72.58 10.383-82.937 83.031-82.937z" opacity=".1" filter="url(#d)" transform="translate(0 -44)"/>
    <path d="M162.537 16.432c72.648 0 83.031 10.357 83.031 82.937v58.125c0 72.581-10.383 82.938-83.031 82.938H88.599c-72.648 0-83.031-10.357-83.031-82.938V99.37c0-72.58 10.383-82.937 83.031-82.937z" fill="#282828"/>
    <path d="M162.537 60.432c72.648 0 83.031 10.357 83.031 82.937v58.125c0 72.581-10.383 82.938-83.031 82.938H88.599c-72.648 0-83.031-10.357-83.031-82.938V143.37c0-72.58 10.383-82.937 83.031-82.937z" opacity=".1" fill="url(#e)" transform="translate(0 -44)"/>
    <g>
        <path style="font-variation-settings:normal;inline-size:0" d="M77.821 65.13l-25.956 75.959H5.568v5h49.873l22.001-64.394 32.11 110.13 20.036-65.95 5.605 18.467 10.381 31.32 9.793-29.572h90.201v-5.001h-93.809l-6.185 18.675-5.613-16.928-10.373-34.162-19.94 65.627z" fill="#282828"/>
        <path style="font-variation-settings:normal;inline-size:0" d="M21.09 248.518l-6.217 18.195-11.276-.005v1.014l12.003.005 5.414-15.846 7.78 26.691 4.856-15.99 1.455 4.791 2.424 7.31 2.305-6.954 5.67.019.004-1.016-6.406-.021-1.573 4.746-1.455-4.39-2.422-7.977-4.836 15.924z" fill="url(#f)" transform="matrix(4.12332 0 0 4.12332 -9.171 -958.244)"/>
    </g>
    <g>
        <path style="font-variation-settings:normal;inline-size:0" d="M214.063-216c-72.84 0-115.523 4.883-140.344 29.672C48.898-161.538 44-118.897 44-46.125v116.25c0 72.771 4.898 115.414 29.719 140.203C98.539 235.118 141.224 240 214.063 240h147.875c72.838 0 115.522-4.883 140.343-29.672C527.102 185.538 532 142.896 532 70.125v-116.25c0-72.772-4.898-115.414-29.719-140.203C477.461-211.118 434.776-216 361.937-216zm0 8h147.875c72.458 0 112.805 5.474 134.69 27.332C518.516-158.81 524-118.515 524-46.125v116.25c0 72.39-5.485 112.685-27.371 134.543C474.743 226.526 434.396 232 361.938 232H214.063c-72.46 0-112.806-5.474-134.692-27.332C57.485 182.81 52 142.515 52 70.125v-116.25c0-72.39 5.485-112.685 27.371-134.543C101.257-202.526 141.604-208 214.063-208z" clip-path="url(#g)" transform="matrix(.5 0 0 .5 -18.432 122.432)" opacity=".4" fill="url(#h)"/>
    </g>
</svg>
