<svg width="256" height="256" version="1.1" xmlns="http://www.w3.org/2000/svg">
  <defs>
    <linearGradient id="linearGradient31" x1=".5002" x2=".5002" y2="1" gradientTransform="matrix(244,0,0,228,5.986,12)" gradientUnits="userSpaceOnUse">
      <stop stop-color="#ebdbb2" stop-opacity=".2" offset="0"/>
      <stop stop-color="#ebdbb2" stop-opacity=".05" offset=".1"/>
      <stop stop-opacity="0" offset=".7036"/>
      <stop stop-opacity=".1" offset=".8975"/>
      <stop stop-opacity=".2" offset="1"/>
    </linearGradient>
    <linearGradient id="linearGradient6" x1="140" x2="140" y1="12" y2="240" gradientUnits="userSpaceOnUse">
      <stop stop-color="#504945" offset="0"/>
      <stop stop-color="#3c3836" offset="1"/>
    </linearGradient>
    <linearGradient id="_lgradient_28" x2="0" y2="1" gradientTransform="matrix(157.73 0 0 48.783 49.137 47.408)" gradientUnits="userSpaceOnUse">
      <stop stop-color="#8ec07c" offset="0"/>
      <stop stop-color="#8ec07c" offset="1"/>
    </linearGradient>
    <linearGradient id="_lgradient_27" x2="0" y2="1" gradientTransform="matrix(124.66 0 0 48.784 65.669 79.929)" gradientUnits="userSpaceOnUse">
      <stop stop-color="#8ec07c" offset="0"/>
      <stop stop-color="#8ec07c" offset="1"/>
    </linearGradient>
    <linearGradient id="_lgradient_25" x1=".5" x2=".5" y2="1" gradientTransform="matrix(125.74 0 0 106.23 65.126 63.128)" gradientUnits="userSpaceOnUse">
      <stop stop-color="#83a598" offset="0"/>
      <stop stop-color="#458588" offset="1"/>
    </linearGradient>
  </defs>
  <path d="m165 12c72 0 85 15 85 87v56c0 70-13 85-85 85h-74c-72 0-85-15-85-85v-56c0-72 13-87 85-87z" fill="url(#linearGradient6)" style="isolation:isolate"/>
  <ellipse cx="128" cy="185.42" rx="67.751" ry="23.577" fill="#282828" opacity=".5" stroke-width="1.0878" vector-effect="non-scaling-stroke" style="isolation:isolate"/>
  <ellipse cx="128" cy="181.01" rx="67.751" ry="23.577" fill="#504945" stroke-width="1.0878" vector-effect="non-scaling-stroke" style="isolation:isolate"/>
  <path d="m128 157.44a67.751 23.577 0 0 0-67.752 23.576 67.751 23.577 0 0 0 0.38281 2.2051 67.751 23.577 0 0 1 67.369-21.373 67.751 23.577 0 0 1 67.396 21.215 67.751 23.577 0 0 0 0.35547-2.0469 67.751 23.577 0 0 0-67.752-23.576z" fill="#ebdbb2" opacity=".04" stroke-width="1.0878" style="isolation:isolate"/>
  <ellipse cx="128" cy="171.45" rx="46.071" ry="13.55" fill="#ebdbb2" opacity=".1" stroke-width="1.0878" vector-effect="non-scaling-stroke" style="isolation:isolate"/>
  <ellipse cx="128" cy="169.36" rx="46.071" ry="13.55" fill="#282828" stroke-width="1.0878" vector-effect="non-scaling-stroke" style="isolation:isolate"/>
  <path d="m128 155.81a46.071 13.55 0 0 0-46.07 13.551 46.071 13.55 0 0 0 0.21484 1.041 46.071 13.55 0 0 1 45.855-12.506 46.071 13.55 0 0 1 45.887 12.354 46.071 13.55 0 0 0 0.18359-0.88868 46.071 13.55 0 0 0-46.07-13.551z" fill="#1d2021" stroke-width="1.0878" style="isolation:isolate"/>
  <path d="m65.126 67.766h125.74l-40.995 99.197c-1.6044 3.8844-6.3199 7.0367-10.522 7.0367h-22.712c-4.202 0-8.9174-3.1523-10.522-7.0367l-40.995-99.197z" fill="#1d2021" stroke-width="1.0878" style="isolation:isolate"/>
  <path d="m65.126 63.128h125.74l-40.995 99.197c-1.6044 3.8844-6.3199 7.0367-10.522 7.0367h-22.712c-4.202 0-8.9174-3.1523-10.522-7.0367l-40.995-99.197z" fill="url(#_lgradient_25)" stroke-width="1.0878" style="isolation:isolate"/>
  <path d="m174.07 137.08c-0.0272 2.4388-0.73206 4.8242-2.0863 6.8561-1.1117 1.6806-2.5203 3.1164-4.1193 4.3097-1.5185 1.0834-3.1164 2.0319-4.8242 2.8184-1.7883 0.83975-3.6581 1.5446-5.5552 2.1135-4.3641 1.3554-8.862 2.2767-13.415 2.8456-5.3115 0.65048-10.705 1.0029-16.071 0.97572-5.3659 0.0272-10.759-0.32524-16.071-0.97572-4.5534-0.5689-9.0512-1.4902-13.415-2.8456-1.897-0.5689-3.7669-1.2738-5.5552-2.1135-1.7078-0.78645-3.3057-1.735-4.8242-2.8184-1.599-1.1933-3.0077-2.6291-4.0921-4.2825-1.3815-2.0591-2.0863-4.4446-2.1135-6.8833 0.02719-2.4388 0.73206-4.797 2.033-6.829 1.0834-1.6534 2.4388-3.1164 4.0106-4.3358 1.4902-1.1389 3.0892-2.1418 4.7698-2.9816 1.7883-0.89414 3.6581-1.6534 5.5552-2.3039 4.3902-1.463 8.9164-2.5203 13.496-3.1436 5.3659-0.78536 10.786-1.165 16.207-1.1378 5.4203-0.0272 10.841 0.35243 16.207 1.1378 4.5795 0.62329 9.1056 1.6806 13.496 3.1436 1.8971 0.65048 3.7669 1.4097 5.5552 2.3039 1.6806 0.83975 3.2796 1.8427 4.7698 2.9816 1.5718 1.2194 2.9272 2.6824 4.0106 4.3358 1.301 2.0319 2.0058 4.3902 2.033 6.829zm-19.296-0.16208c-0.67767 0.27085-1.3553 0.51451-2.0319 0.73097-3.4961 1.0573-7.0465 1.7894-10.651 2.2223-4.6882 0.5961-9.3765 0.89414-14.092 0.86804-4.7154 0.0261-9.4037-0.27194-14.092-0.86804-3.6048-0.43292-7.1553-1.165-10.651-2.2223-0.67659-0.21646-1.3543-0.46012-2.0319-0.73097 0.73206-0.32524 1.4902-0.62329 2.2495-0.86803 3.4417-1.165 6.9921-1.9776 10.569-2.466 4.6349-0.67768 9.296-1.0029 13.957-0.97572 4.661-0.0272 9.3221 0.29804 13.957 0.97572 3.5766 0.4884 7.127 1.301 10.569 2.466 0.75926 0.24474 1.5174 0.54279 2.2495 0.86803z" fill="#282828" fill-rule="evenodd" opacity=".2" stroke-width="1.0878" style="isolation:isolate"/>
  <path d="m174.07 133.27c-0.0272 2.4388-0.73206 4.8242-2.0863 6.8561-1.1117 1.6806-2.5203 3.1164-4.1193 4.3097-1.5185 1.0834-3.1164 2.0319-4.8242 2.8184-1.7883 0.83975-3.6581 1.5446-5.5552 2.1135-4.3641 1.3554-8.862 2.2767-13.415 2.8456-5.3115 0.65048-10.705 1.0029-16.071 0.97572-5.3659 0.0272-10.759-0.32524-16.071-0.97572-4.5534-0.5689-9.0512-1.4902-13.415-2.8456-1.8971-0.5689-3.7669-1.2738-5.5552-2.1135-1.7078-0.78645-3.3057-1.735-4.8242-2.8184-1.599-1.1933-3.0077-2.6291-4.0921-4.2825-1.3815-2.0591-2.0863-4.4446-2.1135-6.8833 0.02719-2.4388 0.73206-4.797 2.033-6.829 1.0834-1.6534 2.4388-3.1164 4.0106-4.3358 1.4902-1.1389 3.0892-2.1418 4.7698-2.9816 1.7883-0.89414 3.6581-1.6534 5.5552-2.3039 4.3902-1.463 8.9164-2.5203 13.496-3.1436 5.3659-0.78536 10.786-1.165 16.207-1.1378 5.4203-0.0272 10.841 0.35243 16.207 1.1378 4.5795 0.62329 9.1056 1.6806 13.496 3.1436 1.8971 0.65048 3.7669 1.4097 5.5552 2.3039 1.6806 0.83975 3.2796 1.8427 4.7698 2.9816 1.5718 1.2194 2.9272 2.6824 4.0106 4.3358 1.301 2.0319 2.0058 4.3902 2.033 6.829zm-19.296-0.16208c-0.67767 0.27085-1.3553 0.51451-2.0319 0.73097-3.4961 1.0573-7.0465 1.7894-10.651 2.2223-4.6882 0.5961-9.3765 0.89414-14.092 0.86804-4.7154 0.0261-9.4037-0.27194-14.092-0.86804-3.6048-0.43292-7.1553-1.165-10.651-2.2223-0.67659-0.21646-1.3543-0.46012-2.0319-0.73097 0.73206-0.32524 1.4902-0.62329 2.2495-0.86803 3.4417-1.165 6.9921-1.9776 10.569-2.466 4.6349-0.67768 9.296-1.0029 13.957-0.97572 4.661-0.0272 9.3221 0.29804 13.957 0.97572 3.5766 0.4884 7.127 1.301 10.569 2.466 0.75926 0.24474 1.5174 0.54279 2.2495 0.86803z" fill="#8ec07c" fill-rule="evenodd" stroke-width="1.0878" style="isolation:isolate"/>
  <path d="m128 112.53c-5.4203-0.0272-10.841 0.35332-16.207 1.1387-4.5795 0.62328-9.1059 1.6795-13.496 3.1426-1.8971 0.65048-3.7664 1.4106-5.5547 2.3047-1.6806 0.83975-3.2793 1.8435-4.7695 2.9824-1.5718 1.2194-2.9264 2.6826-4.0098 4.3359-1.301 2.0319-2.006 4.3894-2.0332 6.8281 0.0072 0.64234 0.0629 1.2802 0.16406 1.9102 0.27888-1.7524 0.91096-3.4273 1.8691-4.9238 1.0834-1.6534 2.438-3.1166 4.0098-4.3359 1.4902-1.1389 3.0889-2.1407 4.7695-2.9805 1.7883-0.89414 3.6576-1.6542 5.5547-2.3047 4.3902-1.463 8.9166-2.5212 13.496-3.1445 5.3659-0.78536 10.787-1.1639 16.207-1.1367 5.4203-0.0272 10.841 0.35136 16.207 1.1367 4.5795 0.62329 9.1059 1.6815 13.496 3.1445 1.8971 0.65048 3.7664 1.4106 5.5547 2.3047 1.6806 0.83975 3.2793 1.8416 4.7695 2.9805 1.5718 1.2194 2.9264 2.6825 4.0098 4.3359 0.95818 1.4966 1.5903 3.1714 1.8691 4.9238 0.10069-0.62953 0.1569-1.2677 0.16406-1.9102-0.0272-2.4388-0.73224-4.7962-2.0332-6.8281-1.0834-1.6534-2.438-3.1166-4.0098-4.3359-1.4902-1.1389-3.0889-2.1427-4.7695-2.9824-1.7883-0.89414-3.6576-1.6542-5.5547-2.3047-4.3902-1.463-8.9166-2.5193-13.496-3.1426-5.3659-0.78536-10.787-1.1659-16.207-1.1387z" fill="#ebdbb2" opacity=".2" stroke-width="1.0878" style="isolation:isolate"/>
  <path d="m190.33 106.26c-0.0533 2.8184-0.92134 5.5824-2.5475 7.8863-1.3271 1.9504-2.9804 3.6581-4.9047 5.094-1.9242 1.4641-4.0106 2.7651-6.2057 3.8213-2.4398 1.2194-4.933 2.3039-7.5066 3.198-6.0708 2.0874-12.304 3.6048-18.645 4.5534-7.4533 1.165-14.987 1.7339-22.521 1.7067-7.5338 0.0272-15.068-0.54171-22.521-1.7067-6.3416-0.94852-12.574-2.466-18.645-4.5534-2.5736-0.89413-5.0668-1.9786-7.5066-3.198-2.1951-1.0562-4.2814-2.3572-6.2057-3.8213-1.9242-1.4358-3.5776-3.1436-4.9319-5.1212-1.5446-2.2495-2.4398-4.9058-2.5203-7.6426v-0.43402c0.0533-2.8456 1.029-5.5824 2.7368-7.8319 1.463-1.9242 3.2524-3.5504 5.3115-4.797 2.0058-1.2466 4.1193-2.3028 6.3144-3.1436 2.4659-0.94852 4.9591-1.7339 7.5066-2.3572 6.0436-1.4913 12.196-2.5475 18.402-3.1164 7.3174-0.73206 14.688-1.0845 22.06-1.0573 7.3718-0.02719 14.742 0.32524 22.06 1.0573 6.2057 0.5689 12.358 1.6251 18.402 3.1164 2.5475 0.62329 5.0407 1.4086 7.5066 2.3572 2.1951 0.84084 4.3086 1.8971 6.3144 3.1436 2.0591 1.2466 3.8485 2.8728 5.3115 4.797 1.7611 2.3039 2.7096 5.1495 2.7368 8.0494zm-17.696 0.32524c-1.0029 0.73098-2.0874 1.3815-3.198 1.9232-1.8166 0.92133-3.6864 1.7078-5.6107 2.3854-5.1212 1.7611-10.407 3.0348-15.772 3.8485-6.6397 1.029-13.333 1.5446-20.054 1.5174-6.7213 0.0272-13.414-0.48841-20.054-1.5174-5.3659-0.81364-10.651-2.0874-15.773-3.8485-1.9242-0.67767-3.7941-1.4641-5.6107-2.3854-1.1106-0.54171-2.1951-1.1922-3.198-1.9232 0.78645-0.40682 1.6262-0.78645 2.467-1.1117 1.8427-0.70486 3.7125-1.301 5.6368-1.7883 5.2571-1.301 10.623-2.1951 16.016-2.7107 6.829-0.67768 13.659-1.0029 20.515-0.97572 6.8562-0.0272 13.686 0.29804 20.515 0.97572 5.3931 0.51559 10.759 1.4097 16.016 2.7107 1.9242 0.48732 3.7941 1.0834 5.6368 1.7883 0.84083 0.32524 1.6806 0.70487 2.467 1.1117z" fill="#282828" fill-rule="evenodd" opacity=".2" stroke-width="1.0878" style="isolation:isolate"/>
  <path d="m190.33 102.45c-0.0533 2.8184-0.92134 5.5824-2.5475 7.8863-1.3271 1.9504-2.9804 3.6581-4.9047 5.094-1.9242 1.4641-4.0106 2.7651-6.2057 3.8213-2.4398 1.2194-4.933 2.3039-7.5066 3.198-6.0708 2.0874-12.304 3.6048-18.645 4.5534-7.4533 1.165-14.987 1.7339-22.521 1.7067-7.5338 0.0272-15.068-0.54171-22.521-1.7067-6.3416-0.94852-12.574-2.466-18.645-4.5534-2.5736-0.89413-5.0668-1.9786-7.5066-3.198-2.1951-1.0562-4.2814-2.3572-6.2057-3.8213-1.9242-1.4358-3.5776-3.1436-4.9319-5.1212-1.5446-2.2495-2.4398-4.9058-2.5203-7.6426v-0.43402c0.0533-2.8456 1.029-5.5824 2.7368-7.8319 1.463-1.9242 3.2524-3.5504 5.3115-4.797 2.0058-1.2466 4.1193-2.3028 6.3144-3.1436 2.4659-0.94852 4.9591-1.7339 7.5066-2.3572 6.0436-1.4913 12.196-2.5475 18.402-3.1164 7.3174-0.73206 14.688-1.0845 22.06-1.0573 7.3718-0.02719 14.742 0.32524 22.06 1.0573 6.2057 0.5689 12.358 1.6251 18.402 3.1164 2.5475 0.62329 5.0407 1.4086 7.5066 2.3572 2.1951 0.84084 4.3086 1.8971 6.3144 3.1436 2.0591 1.2466 3.8485 2.8728 5.3115 4.797 1.7611 2.3039 2.7096 5.1495 2.7368 8.0494zm-17.696 0.32524c-1.0029 0.73098-2.0874 1.3815-3.198 1.9232-1.8166 0.92133-3.6864 1.7078-5.6107 2.3854-5.1212 1.7611-10.407 3.0348-15.772 3.8485-6.6397 1.029-13.333 1.5446-20.054 1.5174-6.7213 0.0272-13.414-0.48841-20.054-1.5174-5.3659-0.81364-10.651-2.0874-15.773-3.8485-1.9242-0.67767-3.7941-1.4641-5.6107-2.3854-1.1106-0.54171-2.1951-1.1922-3.198-1.9232 0.78645-0.40682 1.6262-0.78645 2.467-1.1117 1.8427-0.70486 3.7125-1.301 5.6368-1.7883 5.2571-1.301 10.623-2.1951 16.016-2.7107 6.829-0.67767 13.659-1.0029 20.515-0.97572 6.8562-0.02719 13.686 0.29805 20.515 0.97572 5.3931 0.5156 10.759 1.4097 16.016 2.7107 1.9242 0.48732 3.7941 1.0834 5.6368 1.7883 0.84083 0.32524 1.6806 0.70487 2.467 1.1117z" fill="url(#_lgradient_27)" fill-rule="evenodd" stroke-width="1.0878" style="isolation:isolate"/>
  <path d="m206.86 74.797c-0.0816 3.3612-1.4358 6.5853-3.7941 8.9707-1.7078 1.7611-3.7941 3.3329-6.0708 4.5251-2.466 1.3553-5.0135 2.467-7.6426 3.3884-3.0892 1.1106-6.2329 2.0319-9.4309 2.8184-7.7503 1.8699-15.609 3.198-23.55 4.0106-9.4309 1.0029-18.889 1.5174-28.374 1.4902-9.4853 0.0272-18.943-0.48731-28.374-1.4902-7.9406-0.81256-15.8-2.1407-23.55-4.0106-3.198-0.78645-6.3416-1.7078-9.4309-2.8184-2.6291-0.92133-5.1766-2.033-7.6426-3.3884-2.2767-1.1922-4.363-2.764-6.1524-4.6067-2.3028-2.3844-3.6309-5.5552-3.7125-8.8892 0.05439-3.3601 1.4358-6.5581 3.8485-8.9425 1.8155-1.8166 3.929-3.3068 6.2601-4.4446 2.4659-1.2194 5.0407-2.2495 7.6698-3.0631 3.0892-1.0018 6.2329-1.8155 9.4037-2.4931 7.7231-1.599 15.556-2.764 23.442-3.4145 9.4037-0.83975 18.807-1.2466 28.238-1.2194 9.4309-0.02719 18.835 0.37963 28.238 1.2194 7.8862 0.65048 15.719 1.8155 23.442 3.4145 3.1708 0.67767 6.3144 1.4913 9.4037 2.4931 2.6291 0.81364 5.2038 1.8438 7.6698 3.0631 2.3311 1.1378 4.4446 2.628 6.26 4.4446 2.4126 2.3844 3.7941 5.5824 3.8485 8.9425zm-19.539 0.19036c-1.0845 0.51451-2.2223 0.94852-3.3601 1.3543-2.5747 0.92133-5.2038 1.7078-7.8591 2.3583-7.0465 1.6806-14.201 2.9-21.41 3.6309-8.862 0.94853-17.777 1.4369-26.694 1.4097-8.9164 0.02719-17.832-0.46121-26.694-1.4097-7.2097-0.73097-14.364-1.9504-21.41-3.6309-2.6552-0.65048-5.2843-1.4369-7.8591-2.3583-1.1378-0.40573-2.2756-0.83975-3.3601-1.3543 1.0029-0.43402 2.0602-0.81364 3.0892-1.1389 2.6019-0.81256 5.231-1.5174 7.8863-2.0863 7.1009-1.463 14.282-2.5203 21.518-3.1164 8.9164-0.78645 17.859-1.1922 26.83-1.1661 8.9708-0.02611 17.913 0.37963 26.83 1.1661 7.2358 0.59609 14.417 1.6534 21.518 3.1164 2.6552 0.5689 5.2843 1.2738 7.8862 2.0863 1.029 0.32524 2.0863 0.70487 3.0892 1.1389z" fill="#282828" fill-rule="evenodd" opacity=".2" stroke-width="1.0878" style="isolation:isolate"/>
  <path d="m128 79.924c-7.3717-0.02719-14.743 0.32653-22.061 1.0586-6.2057 0.5689-12.357 1.6239-18.4 3.1152-2.5475 0.62329-5.0419 1.4089-7.5078 2.3574-2.1951 0.84084-4.3086 1.898-6.3145 3.1445-2.0591 1.2466-3.8475 2.8726-5.3105 4.7969-1.7078 2.2495-2.683 4.9865-2.7363 7.832v0.43359c0.0163 0.55407 0.07259 1.1037 0.1543 1.6484 0.33689-2.2135 1.2228-4.3098 2.5801-6.0977 1.463-1.9242 3.2514-3.5503 5.3105-4.7969 2.0058-1.2466 4.1194-2.3037 6.3145-3.1445 2.4659-0.94852 4.9603-1.7341 7.5078-2.3574 6.0436-1.4913 12.195-2.5463 18.4-3.1152 7.3174-0.73206 14.689-1.0858 22.061-1.0586 7.3718-0.02719 14.741 0.32653 22.059 1.0586 6.2057 0.5689 12.359 1.6239 18.402 3.1152 2.5475 0.62329 5.0399 1.4089 7.5059 2.3574 2.1951 0.84084 4.3086 1.898 6.3144 3.1445 2.0591 1.2466 3.8495 2.8726 5.3125 4.7969 1.3673 1.7888 2.2374 3.9054 2.5742 6.1191 0.0936-0.62324 0.15209-1.2534 0.16406-1.8867-0.0272-2.9-0.97523-5.745-2.7363-8.0488-1.463-1.9242-3.2534-3.5503-5.3125-4.7969-2.0058-1.2466-4.1194-2.3037-6.3145-3.1445-2.466-0.94852-4.9583-1.7341-7.5059-2.3574-6.0436-1.4913-12.197-2.5463-18.402-3.1152-7.3174-0.73206-14.687-1.0858-22.059-1.0586z" fill="#ebdbb2" opacity=".2" stroke-width="1.0878" style="isolation:isolate"/>
  <path d="m206.86 70.987c-0.0816 3.3612-1.4358 6.5853-3.7941 8.9707-1.7078 1.7611-3.7941 3.3329-6.0708 4.5251-2.466 1.3553-5.0135 2.467-7.6426 3.3884-3.0892 1.1106-6.2329 2.0319-9.4309 2.8184-7.7503 1.8699-15.609 3.198-23.55 4.0106-9.4309 1.0029-18.889 1.5174-28.374 1.4902-9.4853 0.027194-18.943-0.48732-28.374-1.4902-7.9406-0.81256-15.8-2.1407-23.55-4.0106-3.198-0.78645-6.3416-1.7078-9.4309-2.8184-2.6291-0.92133-5.1766-2.033-7.6426-3.3884-2.2767-1.1922-4.363-2.764-6.1524-4.6067-2.3028-2.3844-3.6309-5.5552-3.7125-8.8892 0.05439-3.3601 1.4358-6.5581 3.8485-8.9425 1.8155-1.8166 3.929-3.3068 6.2601-4.4446 2.4659-1.2194 5.0407-2.2495 7.6698-3.0631 3.0892-1.0018 6.2329-1.8155 9.4037-2.4931 7.7231-1.599 15.556-2.764 23.442-3.4145 9.4037-0.83975 18.807-1.2466 28.238-1.2194 9.4309-0.02719 18.835 0.37963 28.238 1.2194 7.8862 0.65048 15.719 1.8155 23.442 3.4145 3.1708 0.67767 6.3144 1.4913 9.4037 2.4931 2.6291 0.81364 5.2038 1.8438 7.6698 3.0631 2.3311 1.1378 4.4446 2.628 6.26 4.4446 2.4126 2.3844 3.7941 5.5824 3.8485 8.9425zm-19.539 0.19036c-1.0845 0.51451-2.2223 0.94852-3.3601 1.3543-2.5747 0.92133-5.2038 1.7078-7.8591 2.3583-7.0465 1.6806-14.201 2.9-21.41 3.6309-8.862 0.94853-17.777 1.4369-26.694 1.4097-8.9164 0.02719-17.832-0.46121-26.694-1.4097-7.2097-0.73097-14.364-1.9504-21.41-3.6309-2.6552-0.65048-5.2843-1.4369-7.8591-2.3583-1.1378-0.40573-2.2756-0.83975-3.3601-1.3543 1.0029-0.43402 2.0602-0.81364 3.0892-1.1389 2.6019-0.81256 5.231-1.5174 7.8863-2.0863 7.1009-1.463 14.282-2.5203 21.518-3.1164 8.9164-0.78645 17.859-1.1922 26.83-1.1661 8.9708-0.02611 17.913 0.37963 26.83 1.1661 7.2358 0.59609 14.417 1.6534 21.518 3.1164 2.6552 0.5689 5.2843 1.2738 7.8862 2.0863 1.029 0.32524 2.0863 0.70487 3.0892 1.1389z" fill="url(#_lgradient_28)" fill-rule="evenodd" stroke-width="1.0878" style="isolation:isolate"/>
  <path d="m128 47.411c-9.4309-0.02719-18.835 0.379-28.238 1.2188-7.8863 0.65048-15.718 1.8151-23.441 3.4141-3.1708 0.67767-6.3151 1.4923-9.4043 2.4941-2.6291 0.81364-5.204 1.8431-7.6699 3.0625-2.3311 1.1378-4.4443 2.6288-6.2598 4.4453-2.4126 2.3844-3.7952 5.5813-3.8496 8.9414 0.01551 0.63384 0.09156 1.2592 0.19531 1.877 0.45042-2.6364 1.7106-5.0888 3.6543-7.0098 1.8155-1.8166 3.9287-3.3056 6.2598-4.4434 2.4659-1.2194 5.0408-2.2508 7.6699-3.0645 3.0892-1.0018 6.2335-1.8145 9.4043-2.4922 7.7231-1.599 15.555-2.7636 23.441-3.4141 9.4037-0.83975 18.807-1.2479 28.238-1.2207 9.4309-0.02719 18.835 0.38095 28.238 1.2207 7.8862 0.65048 15.718 1.8151 23.441 3.4141 3.1708 0.67767 6.315 1.4904 9.4043 2.4922 2.6291 0.81364 5.204 1.8451 7.6699 3.0645 2.3311 1.1378 4.4443 2.6268 6.2598 4.4434 1.9437 1.9209 3.2039 4.3734 3.6543 7.0098 0.10382-0.61852 0.17995-1.244 0.19531-1.877-0.0544-3.3601-1.437-6.557-3.8496-8.9414-1.8155-1.8166-3.9287-3.3075-6.2598-4.4453-2.466-1.2194-5.0408-2.2489-7.6699-3.0625-3.0892-1.0018-6.2335-1.8165-9.4043-2.4941-7.7231-1.599-15.555-2.7636-23.441-3.4141-9.4037-0.83975-18.807-1.2459-28.238-1.2188z" fill="#ebdbb2" opacity=".2" stroke-width="1.0878" style="isolation:isolate"/>
  <path d="m91 12c-72 0-85 15-85 87v56c0 70 13 85 85 85h74c72 0 85-15 85-85v-56c0-72-13-87-85-87zm0 4h74c68 0 80 15 80 83v56c0 66-12 81-80 81h-74c-68 0-80-15-80-81v-56c0-68 12-83 80-83z" fill="url(#linearGradient31)" style="isolation:isolate"/>
</svg>
