<svg width="256" height="256" style="isolation:isolate" version="1.1" viewBox="0 0 256 256" xmlns="http://www.w3.org/2000/svg">
  <g filter="url(#IqgQJOYLHQslH6QuNEvC2dfeKaZpJq4y)">
    <linearGradient id="_lgradient_433" x2="0" y2="1" gradientTransform="matrix(244.65 0 0 228.34 5.68 11.95)" gradientUnits="userSpaceOnUse">
      <stop stop-color="#8ec07c" offset="0"/>
      <stop stop-color="#458588" offset="1"/>
    </linearGradient>
    <path d="m165.69 11.95c74.056 0 84.639 10.557 84.639 84.544v59.251c0 73.986-10.583 84.543-84.639 84.543h-75.37c-74.055 0-84.639-10.557-84.639-84.543v-59.251c0-73.987 10.584-84.544 84.639-84.544h75.37z" fill="url(#_lgradient_433)"/>
  </g>
  <g opacity=".6">
    <linearGradient id="_lgradient_434" x2="0" y2="1" gradientTransform="matrix(244.77 0 0 220.87 5.563 19.129)" gradientUnits="userSpaceOnUse">
      <stop stop-color="#504945" offset="0"/>
      <stop stop-color="#3c3836" offset="1"/>
    </linearGradient>
    <path d="m195.49 19.129c-4.953 13.631-17.564 25.247-17.564 25.247 7.204 2.012 9.009 0 9.009 0-3.602 8.938-17.11 19.216-17.11 19.216 6.755 1.342 14.861-1.338 14.861-1.338-1.801 8.939-22.518 15.209-22.518 15.209 7.204 3.574 21.166 0 21.166 0-4.954 8.044-32.425 15.184-32.425 15.184 8.105 4.022 29.266 2.236 29.266 2.236-10.357 12.514-21.728 16.716-21.728 16.716s-6.897 7.213-17.253-5.301c0 0 11.816-2.105 19.921-6.126 0 0-20.46-5.01-25.413-13.054 0 0 13.949 3.575 21.154 0 0 0-20.705-6.258-22.506-15.196 0 0 8.106 2.679 14.86 1.341 0 0-13.519-10.278-17.122-19.217 0 0 1.805 2.013 9.01 0 0 0-12.599-11.615-17.552-25.247-4.953 13.632-17.565 25.247-17.565 25.247 7.205 2.013 9.01 0 9.01 0-3.602 8.939-17.11 19.217-17.11 19.217 6.754 1.341 14.86-1.341 14.86-1.341-1.8 8.938-22.517 15.196-22.517 15.196 7.204 3.575 21.165 0 21.165 0-4.953 8.044-32.424 15.195-32.424 15.195 8.105 4.022 29.266 2.237 29.266 2.237-10.357 12.514-24.971 15.113-24.971 15.113s-9.062 3.444-19.419-9.07c0 0 11.817-2.105 19.922-6.126 0 0-20.472-5.01-25.425-13.055 0 0 13.961 3.576 21.165 0 0 0-20.704-6.257-22.505-15.196 0 0 8.105 2.68 14.86 1.341 0 0-13.519-10.277-17.122-19.216 0 0 1.805 2.012 9.01 0 0 0-12.612-11.616-17.565-25.247-4.953 13.631-17.552 25.247-17.552 25.247 7.205 2.012 9.01 0 9.01 0-3.603 8.939-17.122 19.216-17.122 19.216 6.754 1.342 14.872-1.341 14.872-1.341-1.801 8.939-22.517 15.196-22.517 15.196 7.204 3.576 21.153 0 21.153 0-3.83 6.221-18.868 11.813-26.514 14.071v2.442c9.524 2.234 23.367 0.922 23.367 0.922-5.151 6.225-16.464 10.535-25.305 13.402v37.251c-0.32 61.5 10.055 78.875 65.868 80.5h113.69c55.5-1.5 63.75-18.25 65.208-72.875v-43.644c-13.143 6.593-31.85 9.057-31.85 9.057s5.009-23.381-5.348-35.896c0 0 11.816-2.117 19.921-6.138 0 0-20.46-4.997-25.413-13.042 0 0 13.961 3.575 21.166 0 0 0-20.717-6.269-22.518-15.208 0 0 8.106 2.679 14.86 1.338 0 0-13.507-10.278-17.109-19.216 0 0 1.792 2.012 8.997 0 0 0-12.599-11.616-17.552-25.247zm54.846 76.327c-4.271 1.781-8.662 2.944-8.662 2.944 2.12 1.054 5.688 1.391 8.662 1.47v-4.415 1e-3zm0 11.774c-9.042 3.775-19.909 6.366-19.909 6.366 4.361 2.16 13.233 2.58 19.909 2.56v-8.926z" fill="url(#_lgradient_434)" fill-rule="evenodd"/>
  </g>
  <rect x="148" y="183.5" width="19.5" height="56.5" fill="#824217"/>
  <linearGradient id="_lgradient_435" x1=".187" x2=".19" y1=".005" y2=".999" gradientTransform="matrix(122.5 0 0 73 128 126.12)" gradientUnits="userSpaceOnUse">
    <stop stop-color="#83a598" offset="0"/>
    <stop stop-color="#458588" offset="1"/>
  </linearGradient>
  <path d="m134 126.12h116.5v42c-0.479 14.351-1.469 24.695-3 31h-113.5c-3.311 0-6-2.689-6-6v-61c0-3.311 2.689-6 6-6z" fill="url(#_lgradient_435)"/>
  <path d="m250.62 131h-110.26c-2.903 0-5.26 2.357-5.26 5.26v53.48c0 2.903 2.357 5.26 5.26 5.26h107.95l0.625-4h-108.58c-0.33 0-0.65-0.13-0.89-0.37-0.23-0.24-0.37-0.56-0.37-0.89v-53.48c0-0.33 0.14-0.65 0.37-0.89 0.24-0.24 0.56-0.37 0.89-0.37h110.26v-4z" fill="#ebdbb2"/>
  <g opacity=".4">
    <linearGradient id="_lgradient_436" x1=".517" x2=".517" y2="1" gradientTransform="matrix(244.65,0,0,228.34,5.68,11.95)" gradientUnits="userSpaceOnUse">
      <stop stop-color="#ebdbb2" offset="0"/>
      <stop stop-color="#ebdbb2" stop-opacity=".098" offset=".125"/>
      <stop stop-color="#282828" stop-opacity=".098" offset=".925"/>
      <stop stop-color="#282828" stop-opacity=".498" offset="1"/>
    </linearGradient>
    <path d="m165.07 11.951c4.328-0.01 8.656 0.04 12.984 0.138 3.875 0.078 7.751 0.226 11.626 0.452 3.453 0.196 6.905 0.481 10.348 0.854 3.059 0.335 6.118 0.786 9.148 1.346 2.715 0.502 5.4 1.14 8.046 1.916 2.4 0.698 4.751 1.562 7.023 2.584 2.115 0.943 4.141 2.063 6.059 3.35 1.84 1.238 3.561 2.653 5.135 4.215 1.564 1.572 2.98 3.282 4.219 5.119 1.289 1.916 2.41 3.94 3.364 6.042 1.023 2.28 1.889 4.618 2.597 7.005 0.777 2.643 1.417 5.325 1.918 8.037 0.561 3.026 1.013 6.072 1.348 9.127 0.374 3.439 0.659 6.878 0.856 10.326 0.226 3.861 0.373 7.732 0.462 11.593 0.088 4.323 0.138 8.646 0.128 12.959v58.212c0.01 4.323-0.04 8.636-0.128 12.959-0.089 3.871-0.236 7.732-0.462 11.593-0.197 3.448-0.482 6.897-0.856 10.326-0.335 3.055-0.787 6.111-1.348 9.137-0.501 2.702-1.141 5.384-1.918 8.027-0.708 2.387-1.574 4.735-2.597 7.005-0.954 2.112-2.075 4.126-3.364 6.042-1.239 1.837-2.655 3.557-4.219 5.119-1.574 1.562-3.295 2.977-5.135 4.215-1.918 1.287-3.944 2.407-6.059 3.35-2.272 1.022-4.623 1.886-7.023 2.594-2.646 0.776-5.331 1.414-8.046 1.906-3.03 0.569-6.089 1.011-9.148 1.346-3.443 0.373-6.895 0.658-10.348 0.854-3.875 0.226-7.751 0.374-11.626 0.462-4.328 0.088-8.656 0.138-12.984 0.128h-74.126c-4.328 0.01-8.656-0.04-12.984-0.128-3.875-0.088-7.751-0.236-11.626-0.462-3.453-0.196-6.905-0.481-10.348-0.854-3.059-0.335-6.118-0.777-9.148-1.346-2.715-0.492-5.4-1.13-8.046-1.906-2.4-0.708-4.751-1.572-7.023-2.594-2.115-0.943-4.141-2.063-6.059-3.35-1.84-1.238-3.561-2.653-5.135-4.215-1.564-1.562-2.98-3.282-4.219-5.119-1.289-1.916-2.41-3.93-3.364-6.042-1.023-2.27-1.889-4.618-2.597-7.005-0.777-2.643-1.417-5.325-1.918-8.027-0.561-3.026-1.013-6.082-1.348-9.137-0.374-3.429-0.659-6.878-0.856-10.326-0.226-3.861-0.373-7.722-0.462-11.593-0.088-4.323-0.138-8.636-0.128-12.959v-58.212c-0.01-4.313 0.04-8.636 0.128-12.959 0.089-3.861 0.236-7.732 0.462-11.593 0.197-3.448 0.482-6.887 0.856-10.326 0.335-3.055 0.787-6.101 1.348-9.127 0.501-2.712 1.141-5.394 1.918-8.037 0.708-2.387 1.574-4.725 2.597-7.005 0.954-2.102 2.075-4.126 3.364-6.042 1.239-1.837 2.655-3.547 4.219-5.119 1.574-1.562 3.295-2.977 5.135-4.215 1.918-1.287 3.944-2.407 6.059-3.35 2.272-1.022 4.623-1.886 7.023-2.584 2.646-0.776 5.331-1.414 8.046-1.916 3.03-0.56 6.089-1.011 9.148-1.346 3.443-0.373 6.895-0.658 10.348-0.854 3.875-0.226 7.751-0.374 11.626-0.452 4.328-0.098 8.656-0.148 12.984-0.138h74.126zm0.01 4.009c4.298-0.01 8.597 0.039 12.895 0.127 3.827 0.089 7.653 0.236 11.479 0.452 3.384 0.197 6.767 0.472 10.131 0.845 2.971 0.315 5.932 0.747 8.863 1.297 2.577 0.472 5.134 1.081 7.653 1.818 2.223 0.648 4.396 1.454 6.501 2.397 1.909 0.855 3.738 1.867 5.469 3.026 1.623 1.091 3.138 2.338 4.525 3.724 1.387 1.385 2.636 2.898 3.738 4.519 1.16 1.729 2.174 3.547 3.029 5.443 0.945 2.112 1.751 4.284 2.4 6.494 0.748 2.515 1.348 5.06 1.83 7.634 0.541 2.928 0.974 5.875 1.298 8.842 0.374 3.36 0.65 6.73 0.846 10.11 0.217 3.822 0.374 7.634 0.453 11.456 0.088 4.293 0.137 8.577 0.137 12.87v58.212c0 4.293-0.049 8.577-0.137 12.87-0.079 3.822-0.236 7.644-0.453 11.456-0.196 3.38-0.472 6.75-0.846 10.12-0.324 2.957-0.757 5.904-1.298 8.832-0.482 2.574-1.082 5.119-1.83 7.634-0.649 2.22-1.455 4.382-2.4 6.494-0.855 1.896-1.869 3.724-3.029 5.443-1.102 1.631-2.351 3.144-3.738 4.529-1.387 1.376-2.902 2.623-4.525 3.714-1.731 1.159-3.56 2.171-5.469 3.026-2.105 0.953-4.278 1.749-6.501 2.397-2.519 0.737-5.076 1.346-7.653 1.818-2.931 0.55-5.892 0.982-8.863 1.306-3.364 0.364-6.747 0.649-10.131 0.836-3.826 0.216-7.652 0.373-11.479 0.452-4.298 0.098-8.597 0.137-12.895 0.137h-0.01-74.126-0.01c-4.298 0-8.597-0.039-12.895-0.137-3.827-0.079-7.653-0.236-11.479-0.452-3.384-0.187-6.767-0.472-10.131-0.836-2.971-0.324-5.932-0.756-8.863-1.306-2.577-0.472-5.134-1.081-7.653-1.818-2.223-0.648-4.396-1.444-6.501-2.397-1.909-0.855-3.738-1.867-5.469-3.026-1.623-1.091-3.138-2.338-4.525-3.714-1.387-1.385-2.636-2.898-3.738-4.529-1.16-1.719-2.174-3.547-3.029-5.443-0.945-2.112-1.751-4.274-2.4-6.494-0.748-2.515-1.348-5.06-1.83-7.634-0.541-2.928-0.974-5.875-1.298-8.832-0.374-3.37-0.649-6.74-0.846-10.12-0.217-3.812-0.374-7.634-0.453-11.456-0.088-4.293-0.137-8.577-0.137-12.87v-58.212c0-4.293 0.049-8.577 0.137-12.87 0.079-3.822 0.236-7.634 0.453-11.456 0.197-3.38 0.472-6.75 0.846-10.11 0.324-2.967 0.757-5.914 1.298-8.842 0.482-2.574 1.082-5.119 1.83-7.634 0.649-2.21 1.455-4.382 2.4-6.494 0.855-1.896 1.869-3.714 3.029-5.443 1.102-1.621 2.351-3.134 3.738-4.519 1.387-1.386 2.902-2.633 4.525-3.724 1.731-1.159 3.56-2.171 5.469-3.026 2.105-0.943 4.278-1.749 6.501-2.397 2.519-0.737 5.076-1.346 7.653-1.818 2.931-0.55 5.892-0.982 8.863-1.297 3.364-0.373 6.747-0.648 10.131-0.845 3.826-0.216 7.652-0.363 11.479-0.452 4.298-0.088 8.597-0.137 12.895-0.127h0.01 74.126 0.01z" fill="url(#_lgradient_436)" fill-rule="evenodd"/>
  </g>
  <g transform="matrix(.9807 0 0 .9807 4.8118 4.2356)" fill="#ebdbb2" font-family="sans-serif" font-size="14.814px" font-weight="bold" letter-spacing="0px" stroke-width=".69439" word-spacing="0px">
    <text x="141.87341" y="158.4015" style="font-variant-caps:normal;font-variant-east-asian:normal;font-variant-ligatures:normal;font-variant-numeric:normal;line-height:1.25" xml:space="preserve"><tspan x="141.87341" y="158.4015" fill="#ebdbb2" stroke-width=".69439">THIMBLEWEED</tspan></text>
    <text x="173.00117" y="176.34093" style="font-variant-caps:normal;font-variant-east-asian:normal;font-variant-ligatures:normal;font-variant-numeric:normal;line-height:1.25" xml:space="preserve"><tspan x="173.00117" y="176.34093" fill="#ebdbb2" stroke-width=".69439">PARK</tspan></text>
  </g>
</svg>
