<svg width="256" height="256" version="1.1" xmlns="http://www.w3.org/2000/svg">
  <defs>
    <linearGradient id="linearGradient31" x1=".5002" x2=".5002" y2="1" gradientTransform="matrix(244,0,0,228,5.986,12)" gradientUnits="userSpaceOnUse">
      <stop stop-color="#ebdbb2" stop-opacity=".2" offset="0"/>
      <stop stop-color="#ebdbb2" stop-opacity=".05" offset=".1"/>
      <stop stop-opacity=".1" offset=".7036"/>
      <stop stop-opacity=".15" offset=".8975"/>
      <stop stop-opacity=".2" offset="1"/>
    </linearGradient>
    <linearGradient id="linearGradient6" x1="140" x2="140" y1="12" y2="240" gradientUnits="userSpaceOnUse">
      <stop stop-color="#fb4934" offset="0"/>
      <stop stop-color="#cc241d" offset="1"/>
    </linearGradient>
  </defs>
  <path d="m165 12c72 0 85 15 85 87v56c0 70-13 85-85 85h-74c-72 0-85-15-85-85v-56c0-72 13-87 85-87z" fill="url(#linearGradient6)" style="isolation:isolate"/>
  <path d="m58.854 65.92c-6.7621 0-12.217 5.4657-12.217 12.192v51.881c0 3.2545 1.3069 6.3305 3.585 8.6448l53.877 53.877c4.7733 4.7732 12.478 4.7732 17.251 0l51.881-51.881c4.7732-4.7733 4.7732-12.514 0-17.251l-53.877-53.877c-2.2782-2.2782-5.3902-3.585-8.6447-3.585zm72.044 0 49.898 49.936c4.3032 4.3032 6.687 10.06 6.687 16.171 0 6.1112-2.3477 11.819-6.687 16.158l-44.266 44.228 0.11452 0.10151c4.7732 4.7733 12.478 4.7733 17.251 0l51.881-51.881c4.7736-4.7732 4.7753-12.514 0.039-17.251l-53.878-53.877c-2.3151-2.278-5.391-3.5848-8.6455-3.5848zm-58.225 13.018c7.2023 0 13.018 5.8305 13.018 13.043 0 7.2129-5.8543 12.993-13.018 12.993-7.1637 0-13.018-5.8305-13.018-13.043 0-7.2129 5.8157-12.993 13.018-12.993z" fill="#282828" opacity=".2" stroke-width="6.509"/>
  <path d="m58.854 60.912c-6.7621 0-12.217 5.4657-12.217 12.192v51.881c0 3.2545 1.3069 6.3305 3.585 8.6448l53.877 53.877c4.7733 4.7732 12.478 4.7732 17.251 0l51.881-51.881c4.7732-4.7733 4.7732-12.514 0-17.251l-53.877-53.877c-2.2782-2.2782-5.3902-3.585-8.6447-3.585zm72.044 0 49.898 49.936c4.3032 4.3032 6.687 10.06 6.687 16.171 0 6.1112-2.3477 11.819-6.687 16.158l-44.266 44.228 0.11452 0.10151c4.7732 4.7733 12.478 4.7733 17.251 0l51.881-51.881c4.7736-4.7732 4.7753-12.514 0.039-17.251l-53.878-53.877c-2.3151-2.278-5.391-3.5848-8.6455-3.5848zm-58.225 13.018c7.2023 0 13.018 5.8305 13.018 13.043 0 7.2129-5.8543 12.993-13.018 12.993-7.1637 0-13.018-5.8305-13.018-13.043 0-7.2129 5.8157-12.993 13.018-12.993z" fill="#ebdbb2" stroke-width="6.509"/>
  <path d="m58.853 60.912c-6.7621 0-12.217 5.4654-12.217 12.191v5.0078c0-6.726 5.4547-12.191 12.217-12.191h51.857c3.2545 0 6.3664 1.3078 8.6445 3.5859l53.877 53.877c1.7453 1.7321 2.8513 3.866 3.3203 6.1094 0.81366-3.8982-0.29236-8.1122-3.3203-11.117l-53.877-53.877c-2.2782-2.2782-5.39-3.5859-8.6445-3.5859zm72.045 0 5.0039 5.0078h7.3906c3.2545 0 6.3314 1.308 8.6465 3.5859l53.877 53.877c1.7266 1.7269 2.8234 3.8519 3.2891 6.0879 0.80939-3.8926-0.28974-8.0958-3.2891-11.096l-53.877-53.877c-2.315-2.278-5.392-3.5859-8.6465-3.5859zm-71.004 28.512c-0.15723 0.81038-0.24023 1.6495-0.24023 2.5078 0 7.213 5.8558 13.043 13.02 13.043 7.1638 0 13.018-5.7793 13.018-12.992 0-0.85829-0.083-1.6981-0.24023-2.5098-1.1678 6.0036-6.4634 10.494-12.777 10.494-6.3139 0-11.611-4.53-12.779-10.543zm127.46 40.107c-0.5539 5.1535-2.8138 9.9076-6.5527 13.646l-44.268 44.229 0.11523 0.10156c0.83222 0.83224 1.753 1.5185 2.7324 2.0606l41.42-41.383c4.3393-4.3394 6.6855-10.047 6.6855-16.158 0-0.83996-0.0439-1.6724-0.13281-2.4961z" fill="#fbf1c7" opacity=".6" stroke-width="6.509"/>
  <path d="m91 12c-72 0-85 15-85 87v56c0 70 13 85 85 85h74c72 0 85-15 85-85v-56c0-72-13-87-85-87zm0 4h74c68 0 80 15 80 83v56c0 66-12 81-80 81h-74c-68 0-80-15-80-81v-56c0-68 12-83 80-83z" fill="url(#linearGradient31)" style="isolation:isolate"/>
</svg>
