<svg width="256" height="256" viewBox="0 0 67.73 67.73" xmlns="http://www.w3.org/2000/svg">
    <defs>
        <linearGradient id="d" x1="296" x2="296" y1="-212" y2="236" gradientUnits="userSpaceOnUse">
            <stop offset="0" stop-color="#ebdbb2"/>
            <stop offset=".125" stop-color="#ebdbb2" stop-opacity=".098"/>
            <stop offset=".925" stop-opacity=".098"/>
            <stop offset="1" stop-opacity=".498"/>
        </linearGradient>
        <clipPath id="c">
            <path d="M361.938-212C507.235-212 528-191.287 528-46.125v116.25C528 215.286 507.235 236 361.937 236H214.063C68.766 236 48 215.286 48 70.125v-116.25C48-191.287 68.765-212 214.063-212z" fill="#b16286"/>
        </clipPath>
        <filter id="b" x="-.02" y="-.03" width="1.046" height="1.05" color-interpolation-filters="sRGB">
            <feGaussianBlur stdDeviation="2.32"/>
        </filter>
        <filter id="a" x="-.01" y="-.01" width="1.023" height="1.025" color-interpolation-filters="sRGB">
            <feGaussianBlur stdDeviation="1.16"/>
        </filter>
    </defs>
    <path transform="matrix(.26458 0 0 .26458 0 3.404)" d="M162.537 3.568c72.648 0 83.031 10.357 83.031 82.938v58.125c0 72.58-10.383 82.937-83.031 82.937H88.599c-72.648 0-83.031-10.357-83.031-82.937V86.506c0-72.581 10.383-82.938 83.031-82.938z" filter="url(#a)" opacity=".1"/>
    <path transform="matrix(.26458 0 0 .26458 0 3.404)" d="M162.537 5.568c72.648 0 83.031 10.357 83.031 82.938v58.125c0 72.58-10.383 82.937-83.031 82.937H88.599c-72.648 0-83.031-10.357-83.031-82.937V88.506c0-72.581 10.383-82.938 83.031-82.938z" filter="url(#b)" opacity=".2"/>
    <path d="M43.005 4.348c19.221 0 21.968 2.74 21.968 21.944V41.67c0 19.204-2.747 21.944-21.968 21.944H23.442c-19.222 0-21.969-2.74-21.969-21.944V26.292c0-19.204 2.747-21.944 21.969-21.944z" fill="#458588"/>
    <path d="M63.83 13.033c-.03-.108-.049-.235-.08-.34-.191-.641-.41-1.234-.66-1.784s-.53-1.054-.844-1.518a8.643 8.643 0 0 0-1.05-1.273 8.647 8.647 0 0 0-1.274-1.048c-.192-.13-.423-.23-.63-.349L26.84 39.343l-12.001-12-5.576 5.576 17.577 17.578 36.86-37.378c.064-.04.097-.063.132-.086z" opacity=".2"/>
    <path d="M63.94 13.491c-.065-.262-.117-.55-.19-.798-.191-.641-.41-1.234-.66-1.784s-.53-1.054-.844-1.518a8.643 8.643 0 0 0-1.05-1.273 8.647 8.647 0 0 0-1.274-1.048c-.077-.052-.174-.09-.254-.14-.117.1-.206.166-.326.27L26.84 39.873l-12.001-12-5.576 5.576 17.577 17.577 36.86-37.378c.118-.074.127-.084.241-.157z" fill="#ebdbb2"/>
    <path transform="matrix(.1323 0 0 .1323 -4.877 32.393)" d="M361.938-212C507.235-212 528-191.287 528-46.125v116.25C528 215.286 507.235 236 361.937 236H214.063C68.766 236 48 215.286 48 70.125v-116.25C48-191.287 68.765-212 214.063-212z" clip-path="url(#c)" fill="none" opacity=".5" stroke-linecap="round" stroke-linejoin="round" stroke-width="8" stroke="url(#d)"/>
</svg>
