<svg width="256" height="256" version="1.1" xmlns="http://www.w3.org/2000/svg">
  <linearGradient id="b" x1=".5002" x2=".5002" y2="1" gradientTransform="matrix(244,0,0,228,5.981,12)" gradientUnits="userSpaceOnUse">
    <stop stop-color="#458588" offset="0"/>
    <stop stop-color="#076678" offset="1"/>
  </linearGradient>
  <defs>
    <linearGradient id="linearGradient31" x1=".5002" x2=".5002" y2="1" gradientTransform="matrix(244,0,0,228,5.988,12)" gradientUnits="userSpaceOnUse">
      <stop stop-color="#282828" stop-opacity=".1" offset="0"/>
      <stop stop-color="#bdae93" stop-opacity=".1" offset=".1"/>
      <stop stop-color="#d5c4a1" stop-opacity="0" offset=".7022"/>
      <stop stop-color="#bdae93" stop-opacity=".302" offset=".9"/>
      <stop stop-color="#282828" stop-opacity=".3" offset="1"/>
    </linearGradient>
  </defs>
  <path d="m165 12c72 0 85 15 85 87v56c0 70-13 85-85 85h-74c-72 0-85-15-85-85v-56c0-72 13-87 85-87z" fill="url(#b)" style="isolation:isolate"/>
  <path d="m88.01 12c-2.152 2.566-6.582 7.588-6.582 7.588l12.22 12.3v13.03l13.9 15.45h8.482v-7.793l12.06-12.05v-8.686l8.035-8.002v-11.83c-16.04 0.03233-32.08-0.03668-48.12 0zm-21.35 0.7874c-10.47 0.7963-19.17 2.248-26.43 4.612 2.006 2.044 6.035 6.116 6.035 6.116h20.42s-0.0056-7.152-0.01824-10.73zm-26.39 19.37v12.09h-10.06s-7.861-8.012-11.95-11.85c-8.094 11.1-11.26 27.81-12.04 52.36-0.03224 1.327-0.06979 2.587-0.09766 4.01-0.07005 3.306-0.1001 6.645-0.1001 10.23v19.39l7.531 7.615h12.59l20.16 20.13 0.3086-23.87 12.3-12.38h8.074l12.59-12.67h11.46l-2.775-2.826c-1.876-1.908-2.623-3.069-2.311-3.596 0.6909-1.155 10.18-11.96 10.84-13.07-2.507-4.834-7.533-8.829-11.43-12.75h-18.1v16.12h-8.869l-7.779-7.742v-8.643l12.32-12.4h10.06v-7.754l-12.32-12.4zm199.2 2.844c-1.131 0.5637-3.295 1.186-6.906 1.186h-6.051l-12.67 12.67-7.98-8.066h-24.73l-11.74 11.82v10.06h11.48v-6.334h8.609v4.492l-1.898 6.34-1.898 1.846-8.291 0.3652-8.289 0.3594-5.959 5.598h-8.105v7.812l-6.312 6.254v11.84h12.37l7.977-8.059h8.352v5.014l7.805 7.73 4.018-0.1953 4e-3 -3.676-7.816-8.873h8.363l7.979 8.059h9.168l-5.652-5.76 3.113-3.166c3.026-3.077 3.211-3.162 6.279-3.162 3.037 0 3.274 0.1161 6.191 3 1.667 1.653 3.029 3.209 3.029 3.457 0 0.2477-5.75 0.06445-5.75 0.06445-1.751 1.964 0.7898-0.9742-5.84 6.156l2.855 3.029c2.906 2.95 2.992 3.136 2.992 6.33v3.291l-7.082-8e-3 23.44 23.88 3.732-0.0879 12.05-11.96-8.289-8.373h11.96v-18.94c0-30.51-2.334-50.76-10.5-64zm-113.1 21.91v5.756h11.72l-2.824-2.881c-2.686-2.733-2.98-2.875-5.867-2.875zm36.16 2.633-2.867 2.832c-2.651 2.621-2.871 3.05-2.871 5.594v2.756h5.742v-5.592zm-63.14 21.85c-2.01 2.005-4.01 4.018-6.012 6.031h3.221c2.161 0 3.459 0.2826 3.937 0.8633 0.934 1.123 3.103 1.103 4.053-0.03906 0.5368-2.408-3.53-5.184-5.199-6.855zm53.68 28.48-14.65 14.67v20.19l10.06 10.05h14.29l3.32 3.291c3.141 3.124 3.318 3.444 3.318 6.123 0 2.423 0.2866 3.148 2.008 5.057l2.006 2.229v24.54l15.22 15.72 25.72-25.19-0.6856-23.41 20.27-20.45h-8.008l-20.36-20.45v-8.342h-24.46l-3.893-4.025h-12.08zm-85.14 14.39c-2.536 0-2.96 0.2254-5.572 2.881l-2.826 2.879h11.15v-5.76zm-9.047 18.43-8.293 8.377v20.16l16.58 14.36 0.06836 18.46-6.312 6.256v26.46l2.133 2.141s2.236 0.196 3.453 0.2889c0.1619-0.6642 0.1836-6.396 0.1836-6.396l26.33-24.18 0.04492-8.078 12.63-12.63v-3.197c0-3.112 0.0804-3.28 3.156-6.322l3.158-3.127v-16.08l-8.41-8.434h-16.6l-7.973-8.061zm169.1 29.29-7.461 6.693v12.96h7.461z" fill="#ebdbb2" opacity=".3" stroke-width="3.865"/>
  <path d="m128 34.23v17.05c44.04 0 79.56 35.52 79.56 79.56s-35.52 79.56-79.56 79.56v17.05c53.26 0 96.61-43.36 96.61-96.61 0-53.26-43.36-96.61-96.61-96.61zm0 34.1v17.05c25.21 0 45.46 20.25 45.46 45.46s-20.25 45.46-45.46 45.46v17.05c34.42 0 62.51-28.09 62.51-62.51s-28.09-62.51-62.51-62.51zm0 34.1v56.83a28.42 28.42 0 0 0 28.42-28.41 28.42 28.42 0 0 0-28.42-28.42z" fill="#282828" opacity=".2" stroke-width="5.683"/>
  <path d="m128 28.55v17.05c44.04 0 79.56 35.52 79.56 79.56s-35.52 79.56-79.56 79.56v17.05c53.26 0 96.61-43.36 96.61-96.61 0-53.26-43.36-96.61-96.61-96.61zm0 34.1v17.05c25.21 0 45.46 20.25 45.46 45.46s-20.25 45.46-45.46 45.46v17.05c34.42 0 62.51-28.09 62.51-62.51s-28.09-62.51-62.51-62.51zm0 34.1v56.83a28.42 28.42 0 0 0 28.41-28.42 28.42 28.42 0 0 0-28.41-28.41z" color="#000000" fill="#282828" stroke-linecap="round" stroke-linejoin="round" style="-inkscape-stroke:none"/>
  <path d="m91 12c-72 0-85 15-85 87v56c0 70 13 85 85 85h74c72 0 85-15 85-85v-56c0-72-13-87-85-87zm0 4h74c68 0 80 15 80 83v56c0 66-12 81-80 81h-74c-68 0-80-15-80-81v-56c0-68 12-83 80-83z" fill="url(#linearGradient31)" style="isolation:isolate"/>
</svg>
