<svg width="256" height="256" version="1.1" xmlns="http://www.w3.org/2000/svg">
  <defs>
    <linearGradient id="linearGradient31" x1=".5002" x2=".5002" y2="1" gradientTransform="matrix(244,0,0,228,5.986,12)" gradientUnits="userSpaceOnUse">
      <stop stop-color="#ebdbb2" stop-opacity=".2" offset="0"/>
      <stop stop-color="#ebdbb2" stop-opacity=".05" offset=".1"/>
      <stop stop-opacity="0" offset=".7036"/>
      <stop stop-opacity=".1" offset=".8975"/>
      <stop stop-opacity=".2" offset="1"/>
    </linearGradient>
    <linearGradient id="linearGradient6" x1="140" x2="140" y1="12" y2="240" gradientUnits="userSpaceOnUse">
      <stop stop-color="#504945" offset="0"/>
      <stop stop-color="#504945" offset="1"/>
    </linearGradient>
  </defs>
  <path d="m165 12c72 0 85 15 85 87v56c0 70-13 85-85 85h-74c-72 0-85-15-85-85v-56c0-72 13-87 85-87z" fill="url(#linearGradient6)" style="isolation:isolate"/>
  <rect x="107.3" y="52.92" width="41.42" height="15.53" fill="#689d6a" stroke-width="5.178"/>
  <rect x="71.04" y="63.28" width="113.9" height="134.6" rx="7.596" ry="7.917" fill="#427b58" stroke-width="5.178"/>
  <rect x="60.69" y="58.1" width="134.6" height="31.07" rx="7.477" ry="7.767" fill="#689d6a" stroke-width="5.178"/>
  <rect x="117.6" y="109.9" width="20.71" height="72.49" rx="5.178" ry="3.625" fill="#282828" opacity=".5" stroke-width="5.178"/>
  <rect x="86.58" y="109.9" width="20.71" height="72.49" rx="5.178" ry="3.625" fill="#282828" opacity=".5" stroke-width="5.178"/>
  <rect x="148.7" y="109.9" width="20.71" height="72.49" rx="5.178" ry="3.625" fill="#282828" opacity=".5" stroke-width="5.178"/>
  <path d="m71.04 190v5.178c0 4.386 3.388 7.917 7.595 7.917h98.72c4.21 0 7.596-3.531 7.596-7.917v-5.178c0 4.386-3.386 7.917-7.596 7.917h-98.72c-4.208 0-7.596-3.531-7.596-7.917z" fill="#282828" opacity=".7" stroke-width="5.178"/>
  <path d="m60.69 81.4v5.178c0 4.303 3.34 7.767 7.484 7.767h119.7c4.142 0 7.482-3.464 7.482-7.767v-5.178c0 4.303-3.34 7.767-7.482 7.767h-119.7c-4.142 0-7.482-3.464-7.482-7.767z" fill="#282828" opacity=".3" stroke-width="5.178"/>
  <path d="m68.17 58.1c-4.143 0-7.484 3.464-7.484 7.767v5.178c0-4.303 3.34-7.767 7.484-7.767h119.7c4.142 0 7.482 3.464 7.482 7.767v-5.178c0-4.303-3.34-7.767-7.482-7.767z" fill="#ebdbb2" opacity=".3" stroke-width="5.178"/>
  <rect x="107.3" y="52.92" width="41.42" height="5.178" fill="#8ec07c" opacity=".1" stroke-width="5.178"/>
  <path d="m91 12c-72 0-85 15-85 87v56c0 70 13 85 85 85h74c72 0 85-15 85-85v-56c0-72-13-87-85-87zm0 4h74c68 0 80 15 80 83v56c0 66-12 81-80 81h-74c-68 0-80-15-80-81v-56c0-68 12-83 80-83z" fill="url(#linearGradient31)" style="isolation:isolate"/>
</svg>
