<svg width="256" height="256" version="1.1" xmlns="http://www.w3.org/2000/svg">
  <defs>
    <linearGradient id="linearGradient31" x1=".5002" x2=".5002" y2="1" gradientTransform="matrix(244,0,0,228,5.986,12)" gradientUnits="userSpaceOnUse">
      <stop stop-color="#ebdbb2" stop-opacity=".2" offset="0"/>
      <stop stop-color="#ebdbb2" stop-opacity=".05" offset=".1"/>
      <stop stop-opacity="0" offset=".7036"/>
      <stop stop-opacity=".1" offset=".8975"/>
      <stop stop-opacity=".2" offset="1"/>
    </linearGradient>
    <linearGradient id="linearGradient6" x1="140" x2="140" y1="12" y2="240" gradientUnits="userSpaceOnUse">
      <stop stop-color="#665c54" offset="0"/>
      <stop stop-color="#504945" offset="1"/>
    </linearGradient>
  </defs>
  <path d="m165 12c72 0 85 15 85 87v56c0 70-13 85-85 85h-74c-72 0-85-15-85-85v-56c0-72 13-87 85-87z" fill="url(#linearGradient6)" style="isolation:isolate"/>
  <path d="m165.1 49.607c-3.3314 0.15689-6.3548 1.9996-8.0211 4.889-1.301 2.2492-1.6548 4.9244-0.9826 7.4348 0.67224 2.5103 2.3145 4.6508 4.5648 5.9506 2.2504 1.2998 4.9256 1.6537 7.4359 0.98146 2.5103-0.67225 4.6508-2.3145 5.9494-4.5648 1.301-2.2504 1.6537-4.9245 0.9826-7.4348-0.67225-2.5115-2.3145-4.6519-4.566-5.9506-1.6251-0.94023-3.4872-1.3937-5.3631-1.3056zm-63.041 15.315c-1.64-1e-3 -3.2135 0.65049-4.3736 1.8094-1.1601 1.1601-1.8106 2.7336-1.8106 4.3748 5e-3 3.4105 2.7726 6.1739 6.1842 6.1716 3.407-5e-3 6.1682-2.7657 6.1727-6.1716 1e-3 -3.4116-2.7611-6.1796-6.1727-6.1842zm15.558 1.5712c-1.4315 0-2.8046 0.56803-3.817 1.5804-1.0124 1.0124-1.5816 2.3866-1.5804 3.8182 5e-3 2.9776 2.4198 5.3883 5.3974 5.386 2.973-5e-3 5.3825-2.413 5.3871-5.386 1e-3 -2.9776-2.4095-5.3928-5.3871-5.3986zm-33.635 0.62414c-1.932 0-3.7838 0.7673-5.1501 2.1324-1.3651 1.3662-2.1324 3.2192-2.1324 5.1501 0 1.9308 0.7673 3.7838 2.1324 5.1501 1.3662 1.3651 3.2181 2.1324 5.1501 2.1324 1.9308 0 3.7838-0.7673 5.1489-2.1324 1.3662-1.3662 2.1336-3.2192 2.1324-5.1501 1e-3 -1.9308-0.76615-3.7838-2.1324-5.1501-1.3651-1.3651-3.2181-2.1324-5.1489-2.1324zm46.442 3.7804c-2.5882-3e-3 -4.6885 2.0923-4.692 4.6805-2e-3 1.246 0.49244 2.4405 1.372 3.32 0.88068 0.88068 2.0752 1.3743 3.32 1.3731 2.5882-3e-3 4.684-2.1038 4.6817-4.6931-3e-3 -2.5836-2.0969-4.6771-4.6817-4.6805zm37.381 5.0859c-2.8516 0.13399-5.4398 1.711-6.8656 4.1835-2.3099 4.0094-0.93336 9.132 3.0738 11.443 4.0071 2.3122 9.1274 0.94137 11.443-3.0623 1.1143-1.9251 1.4178-4.2144 0.84288-6.3628-0.5749-2.1484-1.9789-3.9796-3.9052-5.0917-1.3914-0.8028-2.9844-1.1876-4.5889-1.1097zm-27.636 0.87838c-1.0788-2e-3 -2.1129 0.42373-2.8756 1.1842-0.76386 0.76157-1.1933 1.7946-1.1933 2.8722-2e-3 1.08 0.42488 2.1164 1.1887 2.8802 0.76386 0.76386 1.8003 1.191 2.8802 1.1887 1.0776 0 2.1106-0.42946 2.8722-1.1933 0.76042-0.76271 1.1864-1.7968 1.1842-2.8756-1e-3 -2.24-1.8163-4.0552-4.0564-4.0564zm48.939 2.1267c-2.847 0.13742-5.4295 1.7144-6.8542 4.1846-2.3111 4.006-0.94023 9.1274 3.0635 11.443 1.9251 1.1132 4.2133 1.4166 6.3617 0.84174 2.1484-0.57491 3.9808-1.979 5.0928-3.9052 2.3099-4.0094 0.93335-9.132-3.0749-11.443-1.3903-0.80624-2.9833-1.1956-4.5889-1.1212zm-84.228 3.8491c-3.4116 5e-3 -6.1739 2.7726-6.1727 6.1842 5e-3 3.407 2.7657 6.167 6.1727 6.1716 3.4116 2e-3 6.1796-2.76 6.1842-6.1716 0-1.6411-0.65048-3.2146-1.8106-4.3736-1.1601-1.1601-2.7336-1.8117-4.3736-1.8106zm42.513 1.0983c-0.91045-1e-3 -1.7843 0.36075-2.4279 1.0044-0.64476 0.64362-1.0055 1.5174-1.0055 2.4279s0.36075 1.7843 1.0055 2.429c0.64361 0.64361 1.5174 1.0044 2.4279 1.0044s1.7842-0.36074 2.4279-1.0044c0.64361-0.64476 1.0055-1.5186 1.0044-2.429 1e-3 -0.91045-0.36074-1.7842-1.0044-2.4279-0.64362-0.64361-1.5174-1.0055-2.4279-1.0044zm-26.955 0.47412c-2.9776 5e-3 -5.3883 2.4199-5.386 5.3974 5e-3 2.973 2.413 5.3814 5.386 5.386 2.9776 2e-3 5.3928-2.4084 5.3974-5.386 1e-3 -1.4315-0.56689-2.8058-1.5793-3.8182-1.0124-1.0124-2.3866-1.5804-3.8182-1.5793zm-33.624 0.62415c-1.932-1e-3 -3.7838 0.76615-5.1501 2.1324-1.3662 1.3651-2.1324 3.2181-2.1324 5.1489 0 1.932 0.76615 3.7838 2.1324 5.1501 1.3663 1.3651 3.2181 2.1324 5.1501 2.1324 1.9308 0 3.7838-0.7673 5.1489-2.1324 1.3662-1.3662 2.1324-3.2181 2.1324-5.1501 0-1.9308-0.76616-3.7838-2.1324-5.1489-1.3651-1.3662-3.2181-2.1335-5.1489-2.1324zm46.431 3.7792c-2.5836 3e-3 -4.6782 2.0969-4.6817 4.6817-2e-3 2.5882 2.0935 4.6885 4.6817 4.692 1.2449 2e-3 2.4393-0.49245 3.32-1.3731 0.88067-0.87953 1.3743-2.074 1.3731-3.3188-3e-3 -2.5894-2.1049-4.6851-4.6931-4.6817zm-66.232 3.4563c-4.6278 0-8.3796 3.7517-8.3796 8.3796 0 4.6278 3.7517 8.3796 8.3796 8.3807 4.6278-1e-3 8.3796-3.7529 8.3807-8.3807-0.0011-4.6278-3.7529-8.3796-8.3807-8.3796zm75.975 2.508c-2.24 1e-3 -4.0552 1.8163-4.0564 4.0575 1e-3 2.2401 1.8163 4.0552 4.0564 4.0564 2.2401-1e-3 4.0564-1.8163 4.0575-4.0564-1e-3 -2.2412-1.8175-4.0564-4.0575-4.0575zm22.182 3.6178c-2.4771 0.11566-4.724 1.4831-5.9643 3.6292-0.96772 1.6732-1.2288 3.6636-0.72837 5.5303 0.50047 1.8667 1.7236 3.4574 3.3979 4.4217 3.4826 2.0064 7.9318 0.81082 9.9405-2.6695 2.0087-3.4792 0.81883-7.9284-2.6581-9.9405-1.2094-0.69973-2.5928-1.0364-3.9877-0.97114zm21.302 3.0051c-2.4725 0.1191-4.7149 1.4865-5.9529 3.6292-0.96771 1.672-1.2311 3.6613-0.73294 5.5268 0.49817 1.8667 1.719 3.4586 3.3921 4.4251 1.6732 0.96772 3.6624 1.23 5.5291 0.72836 1.8667-0.50046 3.4574-1.7236 4.4228-3.3979 2.0053-3.4826 0.81082-7.9318-2.6707-9.9405-1.2082-0.69973-2.5928-1.0364-3.9877-0.97115zm-73.536 1.3983c-3.4116-1e-3 -6.1796 2.7611-6.1842 6.1727-1e-3 1.64 0.65049 3.2135 1.8106 4.3736 1.159 1.1601 2.7325 1.8117 4.3736 1.8106 1.64 1e-3 3.2135-0.65049 4.3736-1.8106 1.159-1.1601 1.8106-2.7336 1.8094-4.3736-5e-3 -3.4116-2.7714-6.1739-6.183-6.1727zm15.558 1.5609c-1.4327-1e-3 -2.8058 0.56803-3.8182 1.5804-1.0124 1.0124-1.5804 2.3855-1.5804 3.817 0 1.4327 0.56803 2.8058 1.5804 3.8182 1.0124 1.0124 2.3855 1.5804 3.8182 1.5804 2.9776-5e-3 5.3883-2.421 5.386-5.3986 2e-3 -2.9764-2.4084-5.3928-5.386-5.3974zm-33.636 0.6356c-1.9308 0-3.7838 0.7673-5.1489 2.1324-1.3662 1.3662-2.1336 3.2181-2.1324 5.1501-1e-3 1.9308 0.76615 3.7838 2.1324 5.1489 1.3651 1.3663 3.2181 2.1336 5.1489 2.1324 1.932 1e-3 3.7838-0.76615 5.1501-2.1324 1.3651-1.3651 2.1324-3.2181 2.1324-5.1489 0-1.932-0.7673-3.7838-2.1324-5.1501-1.3662-1.3651-3.2181-2.1324-5.1501-2.1324zm108.55 2.9123c-2.476 0.11567-4.7229 1.4842-5.9643 3.6304-0.96657 1.6732-1.2288 3.6624-0.72836 5.5291 0.50161 1.8667 1.7236 3.4574 3.399 4.4229 3.4826 2.0064 7.9318 0.81081 9.9405-2.6707 2.0076-3.4792 0.81769-7.9272-2.6592-9.9405-1.2082-0.69859-2.5928-1.0364-3.9877-0.97115zm-62.104 0.85548c-1.2448-1e-3 -2.4393 0.49359-3.32 1.3731-0.88068 0.88067-1.3743 2.0751-1.3731 3.32 3e-3 2.5882 2.1049 4.684 4.6931 4.6817 2.5836-3e-3 4.6771-2.098 4.6805-4.6817 3e-3 -2.5882-2.0923-4.6897-4.6805-4.6931zm-66.243 3.4563c-4.6278 0-8.3796 3.7517-8.3796 8.3807 0 4.6278 3.7517 8.3796 8.3796 8.3796 4.6278 0 8.3796-3.7518 8.3796-8.3796 0-4.629-3.7518-8.3807-8.3796-8.3807zm83.985 4.5774c-2.1026 0.0996-4.0106 1.262-5.0619 3.0864-1.703 2.9558-0.68943 6.7316 2.2652 8.438 2.9558 1.703 6.7328 0.68828 8.438-2.2664 1.7041-2.9524 0.6963-6.7282-2.2538-8.4369-1.0273-0.59322-2.2023-0.87838-3.3876-0.82112zm21.303 3.0051c-2.0992 0.10307-4.0014 1.2655-5.0516 3.0864-1.7041 2.9524-0.69629 6.7282 2.2538 8.438 1.4212 0.82113 3.1093 1.0444 4.6943 0.61957 1.585-0.42602 2.9364-1.4636 3.7552-2.8848 1.7029-2.9558 0.68942-6.7328-2.2652-8.438-1.0273-0.59323-2.2023-0.87839-3.3864-0.82113zm-66.624 4.9016c-0.78906 0.0195-1.5609 0.23821-2.2423 0.6356-2.24 1.2964-3.0062 4.1629-1.711 6.4029 1.2964 2.24 4.1629 3.0062 6.4041 1.711 2.24-1.2964 3.0051-4.1629 1.7098-6.4041-0.85433-1.4831-2.4496-2.3821-4.1606-2.3454zm-58.961 0.86693c-2.5985 0-5.0894 1.0341-6.9263 2.8722-1.8358 1.8381-2.8665 4.3312-2.8642 6.9286 0.0023 5.4066 4.3839 9.7882 9.7905 9.7905 2.5974 2e-3 5.0905-1.0284 6.9286-2.8642s2.8722-4.3278 2.8734-6.9263c0.0011-2.5997-1.0307-5.094-2.8688-6.9332-1.8392-1.8381-4.3335-2.8699-6.9332-2.8676zm142.52 0.73981c-2.1026 0.0985-4.0106 1.262-5.063 3.0852-1.7029 2.9558-0.68828 6.7328 2.2652 8.438 2.957 1.703 6.7328 0.68943 8.438-2.2652 1.7052-2.9524 0.6963-6.7282-2.2538-8.438-1.0261-0.59208-2.2023-0.87724-3.3864-0.81998zm-46.662 4.345c-1.8346 0.0882-3.4986 1.1028-4.416 2.6936-0.71691 1.2403-0.9116 2.7142-0.54055 4.0976 0.37105 1.3823 1.2769 2.5619 2.5172 3.2765 1.2403 0.7169 2.7142 0.91159 4.0976 0.54054 1.3823-0.36991 2.5619-1.2758 3.2765-2.516 0.71691-1.2403 0.9116-2.7142 0.54054-4.0976-0.3699-1.3834-1.2758-2.5619-2.5172-3.2776-0.89671-0.51764-1.924-0.76615-2.9581-0.71691zm-50.385 0.52108c-0.68255 0.0149-1.3502 0.20156-1.9412 0.54284-0.93221 0.53939-1.6125 1.4269-1.8896 2.468-0.27715 1.0399-0.12941 2.1484 0.40998 3.0806 0.5394 0.93221 1.427 1.6113 2.468 1.8885 1.0399 0.27829 2.1484 0.13056 3.0806-0.40999 1.9343-1.1223 2.5951-3.5983 1.4785-5.536-0.73981-1.2861-2.1221-2.066-3.6063-2.0339zm71.699 2.4966c-1.8324 0.0847-3.4952 1.0948-4.4148 2.681-0.71806 1.2391-0.91389 2.7119-0.54627 4.0942 0.36876 1.3834 1.2723 2.563 2.5103 3.2811 1.2403 0.71691 2.7142 0.91045 4.0976 0.54055 1.3834-0.37106 2.5619-1.2769 3.2776-2.5172 1.4842-2.5802 0.60009-5.8738-1.9766-7.3638-0.89442-0.51535-1.9171-0.76387-2.9478-0.71577zm-83.823 0.0573c-0.57376 0.0149-1.1338 0.17408-1.6296 0.46267-1.64 0.94481-2.2034 3.0406-1.2598 4.6805 0.45351 0.79135 1.2036 1.3674 2.0843 1.6045 0.88067 0.23591 1.8186 0.11223 2.6077-0.34471 0.78905-0.4558 1.364-1.2071 1.5976-2.0866 0.23477-0.88067 0.1088-1.8186-0.34929-2.6054-0.62758-1.0857-1.798-1.7407-3.0509-1.711zm28.805 3.2135c-0.90587 0.0183-1.7923 0.26454-2.5779 0.7169-1.2414 0.71462-2.1462 1.8942-2.5172 3.2765-0.37105 1.3834-0.17636 2.8573 0.54054 4.0976 0.71691 1.2391 1.8965 2.1416 3.2799 2.5103s2.8562 0.17178 4.0942-0.54513c2.5779-1.4888 3.462-4.7836 1.9767-7.3638-0.98604-1.7064-2.8253-2.7394-4.7962-2.6924zm71.941 3.2364c-1.8312 0.0847-3.4952 1.0948-4.4148 2.681-0.71691 1.2403-0.9116 2.7142-0.54055 4.0976 0.36991 1.3834 1.2758 2.5619 2.5172 3.2776 1.2391 0.71691 2.713 0.91045 4.0965 0.54054 1.3834-0.37105 2.5619-1.2769 3.2776-2.5172 1.4854-2.579 0.6001-5.8738-1.9766-7.3626-0.89671-0.51879-1.924-0.7673-2.9592-0.71691zm-47.806 0.42717c-1.5953 0.0779-3.0417 0.96198-3.8376 2.3466-0.62071 1.0776-0.78906 2.358-0.46611 3.5582 0.32296 1.2013 1.1109 2.2252 2.1885 2.8459s2.3569 0.78791 3.5582 0.46496c1.2013-0.32296 2.224-1.1097 2.8447-2.1874 0.62186-1.0776 0.78906-2.358 0.46611-3.5594-0.32295-1.2002-1.1109-2.224-2.1885-2.8447-0.7776-0.44892-1.6686-0.66651-2.5653-0.62414zm-40.583 1.0525c-0.78791 0.016-1.5586 0.23019-2.2423 0.62414-2.24 1.2964-3.0062 4.1629-1.7098 6.4029 1.2952 2.24 4.1617 3.0062 6.4029 1.711 2.24-1.2964 3.0062-4.1629 1.711-6.4041-0.85777-1.4785-2.4519-2.3729-4.1617-2.334zm-14.332 0.92419c-0.67912 0.0172-1.3422 0.20385-1.9297 0.54284-0.9345 0.53825-1.617 1.4246-1.8965 2.4657-0.27943 1.041-0.13399 2.1496 0.40541 3.0829 0.53825 0.93221 1.427 1.6113 2.4668 1.8896 1.041 0.27714 2.1484 0.12941 3.0806-0.40999s1.6125-1.427 1.8896-2.468c0.27714-1.0399 0.12941-2.1484-0.40999-3.0806-0.74325-1.2815-2.1255-2.0568-3.6063-2.0225zm76.229 1.0284c-1.5953 0.0779-3.0417 0.96199-3.8376 2.3466-1.2952 2.2412-0.52909 5.1077 1.711 6.4041 1.0777 0.62071 2.358 0.78791 3.5582 0.46496 1.2013-0.32296 2.2252-1.1097 2.8459-2.1874 1.2952-2.2412 0.52909-5.1077-1.711-6.4041-0.7776-0.44893-1.6686-0.66538-2.5664-0.62415zm-38.374 6.4041c-1.0376 0.0252-2.0511 0.3115-2.9478 0.83257-2.9501 1.7087-3.959 5.4845-2.2538 8.4368 1.7052 2.9547 5.481 3.9693 8.438 2.2664 1.4212-0.81998 2.4588-2.1702 2.8837-3.7552 0.42603-1.585 0.20271-3.2742-0.61841-4.6943-1.1315-1.9583-3.2421-3.1413-5.5016-3.0864zm28.908 0c-1.3823 0.063-2.6363 0.8257-3.3292 2.0225-0.53825 0.93335-0.6837 2.0431-0.40426 3.0829 0.27943 1.041 0.96198 1.9286 1.8953 2.4657 1.9412 1.1143 4.4183 0.44663 5.5372-1.4911 0.53939-0.93221 0.68713-2.0408 0.40998-3.0806-0.27828-1.041-0.9574-1.9286-1.8896-2.468-0.67339-0.38594-1.4441-0.57032-2.2194-0.53138zm26.4 0.10421c-1.5987 0.0733-3.0509 0.95741-3.8491 2.3466-0.62071 1.0765-0.78791 2.3569-0.46496 3.5582 0.32296 1.2013 1.1097 2.224 2.1874 2.8447 1.0776 0.62071 2.358 0.78906 3.5594 0.46611 1.2002-0.32295 2.224-1.1109 2.8447-2.1885s0.78791-2.3569 0.46496-3.5582c-0.32296-1.2013-1.1097-2.224-2.1874-2.8447-0.77417-0.44778-1.6606-0.66423-2.555-0.62415zm-92.931 2.9467c-0.78448 0.0183-1.5518 0.23362-2.2309 0.62414-1.0776 0.62071-1.8644 1.6445-2.1874 2.8459-0.32295 1.2002-0.15575 2.4806 0.46496 3.5582 1.2964 2.24 4.1629 3.0062 6.4041 1.711 1.0777-0.62071 1.8644-1.6445 2.1874-2.8447 0.32295-1.2013 0.15575-2.4817-0.46611-3.5594-0.85891-1.4819-2.4588-2.3775-4.172-2.3351zm17.28 0.82112c-0.90244 0.0206-1.7843 0.26684-2.5664 0.71691-1.2403 0.71462-2.1462 1.8942-2.5172 3.2776-0.3699 1.3834-0.17636 2.8573 0.54055 4.0965 0.71576 1.2414 1.8942 2.1462 3.2776 2.5172s2.8573 0.17636 4.0976-0.54055c1.2403-0.71462 2.1462-1.8942 2.5172-3.2776 0.3699-1.3834 0.17522-2.8573-0.54055-4.0965-0.98947-1.711-2.8344-2.744-4.8088-2.6936zm66.173 2.6352c-1.3777 0.0676-2.6271 0.82914-3.3177 2.0225-0.53939 0.93221-0.68713 2.0408-0.40884 3.0806 0.27714 1.041 0.95626 1.9286 1.8885 2.468 0.93336 0.5394 2.0431 0.68485 3.0841 0.40541 1.0399-0.28058 1.9274-0.96198 2.4645-1.8965 0.5394-0.93221 0.68713-2.0396 0.40999-3.0806-0.27829-1.0399-0.95741-1.9286-1.8896-2.4668-0.67682-0.38823-1.451-0.57261-2.2309-0.53252zm-9.1664 3.6647c-1.1658 0.055-2.224 0.69973-2.8081 1.7098-0.94367 1.6411-0.38022 3.7357 1.2597 4.6817 0.78791 0.45809 1.7247 0.58292 2.6054 0.3493 0.88067-0.23477 1.6308-0.80853 2.0877-1.5976 0.4558-0.78905 0.58062-1.727 0.34356-2.6077-0.23591-0.88067-0.8131-1.6308-1.6033-2.0854-0.57261-0.32754-1.2265-0.48443-1.885-0.45008zm-24.793 2.7279c-1.2197 0.0309-2.4118 0.36876-3.4677 0.9826-3.4815 2.0076-4.6759 6.4579-2.6695 9.9405 0.96428 1.6743 2.555 2.8974 4.4217 3.3979 1.8667 0.50047 3.856 0.23821 5.5303-0.72836 1.672-0.96656 2.8928-2.5584 3.391-4.4251 0.49932-1.8667 0.23477-3.8548-0.73294-5.5268-1.3296-2.3053-3.8113-3.7014-6.4728-3.6407zm-46.304 2.3809c-0.90587 0.0183-1.7923 0.26454-2.5779 0.71691-1.2414 0.71461-2.1461 1.8942-2.5172 3.2765-0.37105 1.3834-0.17637 2.8573 0.54054 4.0976 0.71462 1.2403 1.8942 2.1461 3.2776 2.5172 1.3834 0.37105 2.8573 0.17637 4.0964-0.54054 1.2414-0.71577 2.1462-1.8942 2.5172-3.2776 0.37105-1.3834 0.17636-2.8573-0.54055-4.0976-0.98603-1.7064-2.8253-2.7382-4.7962-2.6924zm21.175 1.6755c-1.0364 0.0229-2.0499 0.30462-2.9478 0.82112-1.4201 0.82112-2.4554 2.1725-2.8779 3.7575-0.42258 1.585-0.19812 3.273 0.62415 4.692 1.7098 2.9501 5.4856 3.959 8.438 2.2538 2.9547-1.7052 3.9682-5.4822 2.2652-8.438-1.1315-1.9572-3.241-3.1414-5.5016-3.0864zm42.212 7.8253c-1.4018 0.0344-2.7726 0.4203-3.9877 1.1212-1.9274 1.1109-3.3349 2.9421-3.9121 5.0905-0.57604 2.1484-0.27485 4.4377 0.8383 6.364 1.112 1.9263 2.9432 3.3314 5.0917 3.9052 2.1484 0.57491 4.4377 0.27257 6.3628-0.84173 4.0037-2.3156 5.3745-7.4371 3.0623-11.443-1.53-2.6569-4.3896-4.266-7.4554-4.1961zm-56.314 3.572c-1.0364 0.0252-2.0499 0.3115-2.9466 0.83257-2.9501 1.7087-3.959 5.4845-2.2538 8.438s5.481 3.9682 8.4368 2.2652c2.9547-1.7052 3.9693-5.4822 2.2664-8.438-1.1292-1.9618-3.2398-3.1505-5.5028-3.0978zm25.972 1.5025c-1.2185 0.0286-2.4107 0.36189-3.4677 0.97115-3.4803 2.0087-4.6759 6.4579-2.6695 9.9405 0.96428 1.6743 2.5561 2.8974 4.4228 3.3979 1.8667 0.50161 3.856 0.23935 5.5291-0.72836 1.6732-0.96657 2.8928-2.5584 3.3921-4.4251 0.49817-1.8667 0.23477-3.8548-0.73409-5.5268-1.3319-2.3008-3.8136-3.6922-6.4728-3.6292zm53.24 3.7105c-1.6388 0.0424-3.241 0.49588-4.6588 1.317-4.6805 2.705-6.2838 8.6911-3.5834 13.374 2.705 4.6805 8.6911 6.2838 13.374 3.5834 4.6805-2.705 6.2838-8.6911 3.5834-13.374-1.79-3.1047-5.1329-4.984-8.7151-4.9004zm-67.341 7.6982c-1.2185 0.0275-2.4118 0.36189-3.4677 0.97115-3.4815 2.0076-4.6759 6.4579-2.6695 9.9405 0.96428 1.6743 2.555 2.8974 4.4217 3.3979 1.8667 0.50046 3.856 0.23935 5.5303-0.72836 1.672-0.96657 2.8928-2.5584 3.391-4.4251 0.49931-1.8667 0.23477-3.8548-0.73295-5.5268-1.333-2.3008-3.8147-3.6922-6.4728-3.6292zm31.186 0.47413c-1.4029 0.0332-2.7737 0.41915-3.9877 1.1212-4.0083 2.3111-5.3848 7.4336-3.0749 11.443 1.1097 1.9274 2.9409 3.3349 5.0894 3.9121 2.1496 0.57604 4.4389 0.27485 6.3651-0.83831 1.9263-1.112 3.3314-2.9432 3.9052-5.0916 0.5749-2.1484 0.27141-4.4377-0.84174-6.3628-1.5334-2.6523-4.3931-4.2568-7.4554-4.1835z" fill="#282828" opacity=".3" stroke-width="1.1452" style="isolation:isolate"/>
  <path d="m165.1 46.55c-3.3314 0.1569-6.3548 1.9996-8.0211 4.889-1.301 2.2492-1.6548 4.9245-0.9826 7.4348 0.67224 2.5103 2.3145 4.6507 4.5648 5.9506s4.9256 1.6537 7.4359 0.98146 4.6508-2.3145 5.9494-4.5649c1.301-2.2504 1.6537-4.9245 0.9826-7.4348-0.67225-2.5115-2.3145-4.6519-4.566-5.9506-1.6251-0.94023-3.4872-1.3937-5.3631-1.3056zm-63.041 15.315c-1.64-0.0011-3.2135 0.65049-4.3736 1.8094-1.1601 1.1601-1.8106 2.7336-1.8106 4.3747 0.0046 3.4105 2.7726 6.1739 6.1842 6.1716 3.407-0.0046 6.1682-2.7657 6.1727-6.1716 1e-3 -3.4116-2.7611-6.1796-6.1727-6.1842zm15.558 1.5712c-1.4315 0-2.8046 0.56803-3.817 1.5804-1.0124 1.0124-1.5816 2.3866-1.5804 3.8182 5e-3 2.9776 2.4198 5.3883 5.3974 5.386 2.973-0.0046 5.3825-2.413 5.3871-5.386 1e-3 -2.9776-2.4095-5.3928-5.3871-5.3986zm-33.635 0.62415c-1.932 0-3.7838 0.7673-5.1501 2.1324-1.3651 1.3662-2.1324 3.2192-2.1324 5.1501 0 1.9308 0.7673 3.7838 2.1324 5.1501 1.3662 1.3651 3.2181 2.1324 5.1501 2.1324 1.9308 0 3.7838-0.7673 5.1489-2.1324 1.3662-1.3662 2.1335-3.2192 2.1324-5.1501 0.0011-1.9308-0.76615-3.7838-2.1324-5.1501-1.3651-1.3651-3.2181-2.1324-5.1489-2.1324zm46.442 3.7804c-2.5882-0.0034-4.6885 2.0923-4.692 4.6805-2e-3 1.246 0.49244 2.4405 1.372 3.32 0.88068 0.88068 2.0752 1.3743 3.32 1.3731 2.5882-0.0034 4.684-2.1038 4.6817-4.6931-3e-3 -2.5836-2.0969-4.6771-4.6817-4.6805zm37.381 5.0859c-2.8516 0.13399-5.4398 1.711-6.8656 4.1835-2.3099 4.0094-0.93336 9.132 3.0738 11.443 4.0071 2.3122 9.1274 0.94137 11.443-3.0623 1.1143-1.9251 1.4178-4.2144 0.84288-6.3628-0.5749-2.1484-1.9789-3.9796-3.9052-5.0917-1.3914-0.8028-2.9844-1.1876-4.5889-1.1097zm-27.636 0.87838c-1.0788-0.0023-2.1129 0.42373-2.8756 1.1842-0.76386 0.76157-1.1933 1.7946-1.1933 2.8722-2e-3 1.0799 0.42488 2.1164 1.1887 2.8802 0.76386 0.76386 1.8003 1.191 2.8802 1.1887 1.0776 0 2.1106-0.42946 2.8722-1.1933 0.76042-0.76272 1.1864-1.7969 1.1842-2.8756-1e-3 -2.2401-1.8163-4.0552-4.0564-4.0564zm48.939 2.1267c-2.847 0.13743-5.4295 1.7144-6.8542 4.1846-2.3111 4.006-0.94023 9.1274 3.0635 11.443 1.9251 1.1132 4.2133 1.4166 6.3617 0.84174 2.1484-0.5749 3.9808-1.9789 5.0928-3.9052 2.3099-4.0094 0.93335-9.132-3.0749-11.443-1.3903-0.80624-2.9833-1.1956-4.5889-1.1212zm-84.228 3.8491c-3.4116 0.0046-6.1739 2.7726-6.1727 6.1842 0.0046 3.407 2.7657 6.167 6.1727 6.1716 3.4116 0.0023 6.1796-2.76 6.1842-6.1716 0-1.6411-0.65048-3.2146-1.8106-4.3736-1.1601-1.1601-2.7336-1.8117-4.3736-1.8106zm42.513 1.0983c-0.91045-0.0011-1.7843 0.36074-2.4279 1.0044-0.64476 0.64361-1.0055 1.5174-1.0055 2.4279s0.36075 1.7843 1.0055 2.429c0.64361 0.64361 1.5174 1.0044 2.4279 1.0044s1.7842-0.36074 2.4279-1.0044c0.64361-0.64476 1.0055-1.5186 1.0044-2.429 1e-3 -0.91045-0.36074-1.7843-1.0044-2.4279-0.64362-0.64361-1.5174-1.0055-2.4279-1.0044zm-26.955 0.47412c-2.9776 0.0046-5.3883 2.4199-5.386 5.3974 5e-3 2.973 2.413 5.3814 5.386 5.386 2.9776 0.0023 5.3928-2.4084 5.3974-5.386 1e-3 -1.4315-0.56689-2.8058-1.5793-3.8182-1.0124-1.0124-2.3866-1.5804-3.8182-1.5793zm-33.624 0.62414c-1.932-0.0011-3.7838 0.76615-5.1501 2.1324-1.3662 1.3651-2.1324 3.2181-2.1324 5.1489 0 1.932 0.76615 3.7838 2.1324 5.1501 1.3662 1.3651 3.2181 2.1324 5.1501 2.1324 1.9308 0 3.7838-0.7673 5.1489-2.1324 1.3662-1.3662 2.1324-3.2181 2.1324-5.1501 0-1.9308-0.76615-3.7838-2.1324-5.1489-1.3651-1.3662-3.2181-2.1335-5.1489-2.1324zm46.431 3.7792c-2.5836 0.0034-4.6782 2.0969-4.6817 4.6817-2e-3 2.5882 2.0935 4.6885 4.6817 4.692 1.2449 0.0023 2.4393-0.49245 3.32-1.3731 0.88067-0.87953 1.3743-2.074 1.3731-3.3189-3e-3 -2.5893-2.1049-4.6851-4.6931-4.6817zm-66.232 3.4563c-4.6278 0-8.3796 3.7517-8.3796 8.3796 0 4.6278 3.7517 8.3796 8.3796 8.3807 4.6278-1e-3 8.3796-3.7529 8.3807-8.3807-0.0011-4.6278-3.7529-8.3796-8.3807-8.3796zm75.975 2.508c-2.24 0.0011-4.0552 1.8163-4.0564 4.0575 1e-3 2.2401 1.8163 4.0552 4.0564 4.0564 2.2401-1e-3 4.0564-1.8163 4.0575-4.0564-1e-3 -2.2412-1.8175-4.0564-4.0575-4.0575zm22.182 3.6178c-2.4771 0.11567-4.724 1.4831-5.9643 3.6292-0.96772 1.6732-1.2288 3.6636-0.72837 5.5303 0.50047 1.8667 1.7236 3.4574 3.3979 4.4217 3.4826 2.0064 7.9318 0.81082 9.9405-2.6695 2.0087-3.4792 0.81883-7.9284-2.6581-9.9405-1.2094-0.69973-2.5928-1.0364-3.9877-0.97115zm21.302 3.0051c-2.4725 0.1191-4.7149 1.4865-5.9529 3.6292-0.96771 1.672-1.2311 3.6613-0.73294 5.5268 0.49817 1.8667 1.719 3.4586 3.3921 4.4251 1.6732 0.96772 3.6624 1.23 5.5291 0.72836 1.8667-0.50046 3.4574-1.7236 4.4228-3.3979 2.0053-3.4826 0.81082-7.9318-2.6707-9.9405-1.2082-0.69973-2.5928-1.0364-3.9877-0.97115zm-73.536 1.3983c-3.4116-1e-3 -6.1796 2.7611-6.1842 6.1727-1e-3 1.64 0.65049 3.2135 1.8106 4.3736 1.159 1.1601 2.7325 1.8117 4.3736 1.8106 1.64 1e-3 3.2135-0.65049 4.3736-1.8106 1.159-1.1601 1.8106-2.7336 1.8094-4.3736-5e-3 -3.4116-2.7714-6.1739-6.183-6.1727zm15.558 1.5609c-1.4327-1e-3 -2.8058 0.56803-3.8182 1.5804-1.0124 1.0124-1.5804 2.3855-1.5804 3.817 0 1.4327 0.56803 2.8058 1.5804 3.8182 1.0124 1.0124 2.3855 1.5804 3.8182 1.5804 2.9776-5e-3 5.3883-2.421 5.386-5.3986 2e-3 -2.9764-2.4084-5.3928-5.386-5.3974zm-33.636 0.6356c-1.9308 0-3.7838 0.7673-5.1489 2.1324-1.3662 1.3662-2.1335 3.2181-2.1324 5.1501-0.0011 1.9308 0.76615 3.7838 2.1324 5.1489 1.3651 1.3663 3.2181 2.1336 5.1489 2.1324 1.932 1e-3 3.7838-0.76615 5.1501-2.1324 1.3651-1.3651 2.1324-3.2181 2.1324-5.1489 0-1.932-0.7673-3.7838-2.1324-5.1501-1.3663-1.3651-3.2181-2.1324-5.1501-2.1324zm108.55 2.9123c-2.476 0.11567-4.7229 1.4842-5.9643 3.6304-0.96657 1.6732-1.2288 3.6624-0.72836 5.5291 0.50161 1.8667 1.7236 3.4574 3.399 4.4229 3.4826 2.0064 7.9318 0.81081 9.9405-2.6707 2.0076-3.4792 0.81769-7.9272-2.6592-9.9405-1.2082-0.69859-2.5928-1.0364-3.9877-0.97115zm-62.104 0.85548c-1.2448-1e-3 -2.4393 0.49359-3.32 1.3731-0.88068 0.88067-1.3743 2.0751-1.3731 3.32 3e-3 2.5882 2.1049 4.684 4.6931 4.6817 2.5836-3e-3 4.6771-2.098 4.6805-4.6817 3e-3 -2.5882-2.0923-4.6897-4.6805-4.6931zm-66.243 3.4563c-4.6278 0-8.3796 3.7517-8.3796 8.3807 0 4.6278 3.7517 8.3796 8.3796 8.3796 4.6278 0 8.3796-3.7518 8.3796-8.3796 0-4.629-3.7517-8.3807-8.3796-8.3807zm83.985 4.5774c-2.1026 0.0996-4.0106 1.262-5.0619 3.0864-1.703 2.9558-0.68943 6.7316 2.2652 8.438 2.9558 1.703 6.7328 0.68828 8.438-2.2664 1.7041-2.9524 0.6963-6.7282-2.2538-8.4369-1.0273-0.59322-2.2023-0.87838-3.3876-0.82112zm21.303 3.0051c-2.0992 0.10307-4.0014 1.2655-5.0516 3.0864-1.7041 2.9524-0.69629 6.7282 2.2538 8.438 1.4212 0.82113 3.1093 1.0444 4.6943 0.61957 1.585-0.42602 2.9364-1.4636 3.7552-2.8848 1.7029-2.9558 0.68942-6.7328-2.2652-8.438-1.0273-0.59323-2.2023-0.87839-3.3864-0.82113zm-66.624 4.9016c-0.78906 0.0195-1.5609 0.23821-2.2423 0.6356-2.24 1.2964-3.0062 4.1629-1.711 6.4029 1.2964 2.24 4.1629 3.0062 6.4041 1.711 2.24-1.2964 3.0051-4.1629 1.7098-6.4041-0.85433-1.4831-2.4496-2.3821-4.1606-2.3454zm-58.961 0.86693c-2.5985 0-5.0894 1.0341-6.9263 2.8722-1.8358 1.8381-2.8665 4.3312-2.8642 6.9286 0.0023 5.4066 4.3839 9.7882 9.7905 9.7905 2.5974 2e-3 5.0905-1.0284 6.9286-2.8642s2.8722-4.3278 2.8734-6.9263c0.0011-2.5997-1.0307-5.094-2.8688-6.9332-1.8392-1.8381-4.3335-2.8699-6.9332-2.8676zm142.52 0.73981c-2.1026 0.0985-4.0106 1.262-5.063 3.0852-1.7029 2.9558-0.68828 6.7328 2.2652 8.438 2.957 1.703 6.7328 0.68943 8.438-2.2652 1.7052-2.9524 0.6963-6.7282-2.2538-8.438-1.0261-0.59208-2.2023-0.87724-3.3864-0.81998zm-46.662 4.345c-1.8346 0.0882-3.4986 1.1028-4.416 2.6936-0.71691 1.2403-0.9116 2.7142-0.54055 4.0976 0.37105 1.3823 1.2769 2.5619 2.5172 3.2765 1.2403 0.7169 2.7142 0.91159 4.0976 0.54054 1.3823-0.36991 2.5619-1.2758 3.2765-2.516 0.71691-1.2403 0.9116-2.7142 0.54054-4.0976-0.3699-1.3834-1.2758-2.5619-2.5172-3.2776-0.89671-0.51764-1.924-0.76615-2.9581-0.71691zm-50.385 0.52108c-0.68255 0.0149-1.3502 0.20156-1.9412 0.54284-0.93221 0.53939-1.6125 1.4269-1.8896 2.468-0.27714 1.0399-0.12941 2.1484 0.40999 3.0806s1.4269 1.6113 2.468 1.8885c1.0399 0.27829 2.1484 0.13056 3.0806-0.40999 1.9343-1.1223 2.5951-3.5983 1.4785-5.536-0.73981-1.2861-2.1221-2.066-3.6063-2.0339zm71.699 2.4966c-1.8324 0.0847-3.4952 1.0948-4.4148 2.681-0.71806 1.2391-0.91389 2.7119-0.54627 4.0942 0.36876 1.3834 1.2723 2.563 2.5103 3.2811 1.2403 0.71691 2.7142 0.91045 4.0976 0.54055 1.3834-0.37106 2.5619-1.2769 3.2776-2.5172 1.4842-2.5802 0.60009-5.8738-1.9766-7.3638-0.89442-0.51535-1.9171-0.76387-2.9478-0.71577zm-83.823 0.0573c-0.57376 0.0149-1.1338 0.17408-1.6296 0.46267-1.64 0.94481-2.2034 3.0406-1.2597 4.6805 0.45351 0.79135 1.2036 1.3674 2.0843 1.6045 0.88068 0.23591 1.8186 0.11223 2.6077-0.34471 0.78906-0.4558 1.364-1.2071 1.5976-2.0866 0.23477-0.88067 0.1088-1.8186-0.34929-2.6054-0.62758-1.0857-1.798-1.7407-3.0509-1.711zm28.805 3.2135c-0.90587 0.0183-1.7923 0.26454-2.5779 0.7169-1.2414 0.71462-2.1462 1.8942-2.5172 3.2765-0.37105 1.3834-0.17636 2.8573 0.54054 4.0976 0.71691 1.2391 1.8965 2.1416 3.2799 2.5103s2.8562 0.17178 4.0942-0.54513c2.5779-1.4888 3.462-4.7836 1.9767-7.3638-0.98604-1.7064-2.8253-2.7394-4.7962-2.6924zm71.941 3.2364c-1.8312 0.0847-3.4952 1.0948-4.4148 2.681-0.71691 1.2403-0.9116 2.7142-0.54055 4.0976 0.36991 1.3834 1.2758 2.5619 2.5172 3.2776 1.2391 0.71691 2.713 0.91045 4.0965 0.54054 1.3834-0.37105 2.5619-1.2769 3.2776-2.5172 1.4854-2.579 0.6001-5.8738-1.9766-7.3626-0.89671-0.51879-1.924-0.7673-2.9592-0.71691zm-47.806 0.42717c-1.5953 0.0779-3.0417 0.96198-3.8376 2.3466-0.62071 1.0776-0.78906 2.358-0.46611 3.5582 0.32296 1.2013 1.1109 2.2252 2.1885 2.8459s2.3569 0.78791 3.5582 0.46496c1.2013-0.32296 2.224-1.1097 2.8447-2.1874 0.62186-1.0776 0.78906-2.358 0.46611-3.5594-0.32295-1.2002-1.1109-2.224-2.1885-2.8447-0.7776-0.44892-1.6686-0.66651-2.5653-0.62414zm-40.583 1.0525c-0.78791 0.016-1.5586 0.23019-2.2423 0.62414-2.2401 1.2964-3.0062 4.1629-1.7098 6.4029 1.2952 2.24 4.1617 3.0062 6.4029 1.711 2.24-1.2964 3.0062-4.1629 1.711-6.4041-0.85777-1.4785-2.4519-2.3729-4.1617-2.334zm-14.332 0.92419c-0.67912 0.0172-1.3422 0.20385-1.9297 0.54284-0.9345 0.53825-1.6171 1.4246-1.8965 2.4657-0.27943 1.041-0.13399 2.1496 0.40541 3.0829 0.53825 0.93221 1.4269 1.6113 2.4668 1.8896 1.041 0.27714 2.1484 0.12941 3.0806-0.40999 0.93221-0.5394 1.6125-1.427 1.8896-2.468 0.27714-1.0399 0.12941-2.1484-0.40999-3.0806-0.74325-1.2815-2.1255-2.0568-3.6063-2.0225zm76.229 1.0284c-1.5953 0.0779-3.0417 0.96199-3.8376 2.3466-1.2952 2.2412-0.52909 5.1077 1.711 6.4041 1.0777 0.62071 2.358 0.78791 3.5582 0.46496 1.2013-0.32296 2.2252-1.1097 2.8459-2.1874 1.2952-2.2412 0.52909-5.1077-1.711-6.4041-0.7776-0.44893-1.6686-0.66538-2.5664-0.62415zm-38.374 6.4041c-1.0376 0.0252-2.0511 0.3115-2.9478 0.83257-2.9501 1.7087-3.959 5.4845-2.2538 8.4368 1.7052 2.9547 5.481 3.9693 8.438 2.2664 1.4212-0.81998 2.4588-2.1702 2.8837-3.7552 0.42603-1.585 0.20271-3.2742-0.61841-4.6943-1.1315-1.9583-3.2421-3.1413-5.5016-3.0864zm28.908 0c-1.3823 0.063-2.6363 0.8257-3.3292 2.0225-0.53825 0.93335-0.6837 2.0431-0.40426 3.0829 0.27943 1.041 0.96198 1.9286 1.8953 2.4657 1.9412 1.1143 4.4183 0.44663 5.5372-1.4911 0.53939-0.93221 0.68713-2.0408 0.40998-3.0806-0.27828-1.041-0.9574-1.9286-1.8896-2.468-0.67339-0.38594-1.4441-0.57032-2.2194-0.53138zm26.4 0.10421c-1.5987 0.0733-3.0509 0.95741-3.8491 2.3466-0.62071 1.0765-0.78791 2.3569-0.46496 3.5582 0.32296 1.2013 1.1097 2.224 2.1874 2.8447 1.0776 0.62071 2.358 0.78906 3.5594 0.46611 1.2002-0.32295 2.224-1.1109 2.8447-2.1885s0.78791-2.3569 0.46496-3.5582c-0.32296-1.2013-1.1097-2.224-2.1874-2.8447-0.77417-0.44778-1.6606-0.66423-2.555-0.62415zm-92.931 2.9467c-0.78448 0.0183-1.5518 0.23362-2.2309 0.62414-1.0777 0.62071-1.8644 1.6445-2.1874 2.8459-0.32295 1.2002-0.15575 2.4806 0.46496 3.5582 1.2964 2.24 4.1629 3.0062 6.4041 1.711 1.0777-0.62071 1.8644-1.6445 2.1874-2.8447 0.32295-1.2013 0.15575-2.4817-0.46611-3.5594-0.85892-1.4819-2.4588-2.3775-4.172-2.3351zm17.28 0.82112c-0.90244 0.0206-1.7843 0.26684-2.5664 0.71691-1.2403 0.71462-2.1461 1.8942-2.5172 3.2776-0.36991 1.3834-0.17636 2.8573 0.54054 4.0965 0.71576 1.2414 1.8942 2.1462 3.2776 2.5172s2.8573 0.17636 4.0976-0.54055c1.2403-0.71462 2.1462-1.8942 2.5172-3.2776 0.3699-1.3834 0.17522-2.8573-0.54055-4.0965-0.98947-1.711-2.8344-2.744-4.8088-2.6936zm66.173 2.6352c-1.3777 0.0676-2.6271 0.82914-3.3177 2.0225-0.53939 0.93221-0.68713 2.0408-0.40884 3.0806 0.27714 1.041 0.95626 1.9286 1.8885 2.468 0.93336 0.5394 2.0431 0.68485 3.0841 0.40541 1.0399-0.28058 1.9274-0.96198 2.4645-1.8965 0.5394-0.93221 0.68713-2.0396 0.40999-3.0806-0.27829-1.0399-0.95741-1.9286-1.8896-2.4668-0.67682-0.38823-1.451-0.57261-2.2309-0.53252zm-9.1664 3.6647c-1.1658 0.055-2.224 0.69973-2.8081 1.7098-0.94367 1.6411-0.38022 3.7357 1.2597 4.6817 0.78791 0.45809 1.7247 0.58292 2.6054 0.3493 0.88067-0.23477 1.6308-0.80853 2.0877-1.5976 0.4558-0.78905 0.58062-1.727 0.34356-2.6077-0.23591-0.88067-0.8131-1.6308-1.6033-2.0854-0.57261-0.32754-1.2265-0.48443-1.885-0.45008zm-24.793 2.7279c-1.2197 0.0309-2.4118 0.36876-3.4677 0.9826-3.4815 2.0076-4.6759 6.4579-2.6695 9.9405 0.96428 1.6743 2.555 2.8974 4.4217 3.3979 1.8667 0.50047 3.856 0.23821 5.5303-0.72836 1.672-0.96656 2.8928-2.5584 3.391-4.4251 0.49932-1.8667 0.23477-3.8548-0.73294-5.5268-1.3296-2.3053-3.8113-3.7014-6.4728-3.6407zm-46.304 2.3809c-0.90587 0.0183-1.7923 0.26454-2.5779 0.71691-1.2414 0.71461-2.1461 1.8942-2.5172 3.2765-0.37105 1.3834-0.17636 2.8573 0.54054 4.0976 0.71462 1.2403 1.8942 2.1461 3.2776 2.5172 1.3834 0.37105 2.8573 0.17637 4.0965-0.54054 1.2414-0.71577 2.1461-1.8942 2.5172-3.2776 0.37105-1.3834 0.17636-2.8573-0.54054-4.0976-0.98604-1.7064-2.8253-2.7382-4.7962-2.6924zm21.175 1.6755c-1.0364 0.0229-2.0499 0.30462-2.9478 0.82112-1.4201 0.82112-2.4554 2.1725-2.8779 3.7575-0.42258 1.585-0.19812 3.273 0.62415 4.692 1.7098 2.9501 5.4856 3.959 8.438 2.2538 2.9547-1.7052 3.9682-5.4822 2.2652-8.438-1.1315-1.9572-3.241-3.1414-5.5016-3.0864zm42.212 7.8253c-1.4018 0.0344-2.7726 0.4203-3.9877 1.1212-1.9274 1.1109-3.3349 2.9421-3.9121 5.0905-0.57604 2.1484-0.27485 4.4377 0.8383 6.364 1.112 1.9263 2.9432 3.3314 5.0917 3.9052 2.1484 0.57491 4.4377 0.27257 6.3628-0.84173 4.0037-2.3156 5.3745-7.4371 3.0623-11.443-1.53-2.6569-4.3896-4.266-7.4554-4.1961zm-56.314 3.572c-1.0364 0.0252-2.0499 0.3115-2.9466 0.83257-2.9501 1.7087-3.959 5.4845-2.2538 8.438s5.481 3.9682 8.4368 2.2652c2.9547-1.7052 3.9693-5.4822 2.2664-8.438-1.1292-1.9618-3.2398-3.1505-5.5028-3.0978zm25.972 1.5025c-1.2185 0.0286-2.4107 0.36189-3.4677 0.97115-3.4803 2.0087-4.6759 6.4579-2.6695 9.9405 0.96428 1.6743 2.5561 2.8974 4.4228 3.3979 1.8667 0.50161 3.856 0.23935 5.5291-0.72836 1.6732-0.96657 2.8928-2.5584 3.3921-4.4251 0.49817-1.8667 0.23477-3.8548-0.73409-5.5268-1.3319-2.3008-3.8136-3.6922-6.4728-3.6292zm53.24 3.7105c-1.6388 0.0424-3.241 0.49588-4.6588 1.317-4.6805 2.705-6.2838 8.6911-3.5834 13.374 2.705 4.6805 8.6911 6.2838 13.374 3.5834 4.6805-2.705 6.2838-8.6911 3.5834-13.374-1.79-3.1047-5.1329-4.984-8.7151-4.9004zm-67.341 7.6982c-1.2185 0.0275-2.4118 0.36189-3.4677 0.97115-3.4815 2.0076-4.6759 6.4579-2.6695 9.9405 0.96428 1.6743 2.555 2.8974 4.4217 3.3979 1.8667 0.50046 3.856 0.23935 5.5303-0.72836 1.672-0.96657 2.8928-2.5584 3.391-4.4251 0.49931-1.8667 0.23477-3.8548-0.73295-5.5268-1.333-2.3008-3.8147-3.6922-6.4728-3.6292zm31.186 0.47413c-1.4029 0.0332-2.7737 0.41915-3.9877 1.1212-4.0083 2.3111-5.3848 7.4336-3.0749 11.443 1.1097 1.9274 2.9409 3.3349 5.0894 3.9121 2.1496 0.57604 4.4389 0.27485 6.3651-0.83831 1.9263-1.112 3.3314-2.9432 3.9052-5.0916 0.5749-2.1484 0.27141-4.4377-0.84174-6.3628-1.5334-2.6523-4.3931-4.2568-7.4554-4.1835z" fill="#ebdbb2" stroke-width="1.1452" style="isolation:isolate"/>
  <path d="m165.1 46.551c-3.3314 0.1569-6.3552 1.9993-8.0215 4.8887-1.1185 1.9337-1.49 4.1772-1.1582 6.3652 0.19077-1.1529 0.56197-2.2778 1.1582-3.3086 1.6663-2.8894 4.6901-4.7318 8.0215-4.8887 1.8759-0.0881 3.7382 0.36446 5.3633 1.3047 2.2515 1.2987 3.8942 3.4397 4.5664 5.9512 0.0941 0.35211 0.12172 0.71143 0.17578 1.0684 0.22532-1.3626 0.18776-2.7652-0.17578-4.125-0.67225-2.5115-2.3149-4.6525-4.5664-5.9512-1.6251-0.94023-3.4874-1.3928-5.3633-1.3047zm-63.041 15.314c-1.64-0.0011-3.213 0.64968-4.373 1.8086-1.1601 1.1601-1.8105 2.7339-1.8105 4.375 7.1e-4 0.53035 0.0884 1.0363 0.21484 1.5273 0.27265-1.0652 0.80508-2.0551 1.5957-2.8457 1.1601-1.1589 2.733-1.8097 4.373-1.8086 2.8789 0.0039 5.2751 1.9848 5.959 4.6504 0.12585-0.49009 0.21414-0.9943 0.21484-1.5234 1e-3 -3.4116-2.7622-6.179-6.1738-6.1836zm15.559 1.5703c-1.4315 0-2.804 0.56771-3.8164 1.5801-1.0124 1.0124-1.5832 2.3868-1.582 3.8184 9e-4 0.5338 0.1029 1.0406 0.24805 1.5273 0.25347-0.85323 0.69336-1.6465 1.334-2.2871 1.0124-1.0124 2.3849-1.582 3.8164-1.582 2.4408 0.0048 4.4759 1.6399 5.1387 3.8652 0.14464-0.48586 0.24722-0.99075 0.24805-1.5234 1e-3 -2.9776-2.4091-5.3926-5.3867-5.3984zm-33.635 0.625c-1.932 0-3.7841 0.76771-5.1504 2.1328-1.3651 1.3662-2.1328 3.2195-2.1328 5.1504 0 0.5188 0.0644 1.0277 0.17187 1.5273 0.2926-1.3599 0.96263-2.622 1.9609-3.6211 1.3663-1.3651 3.2184-2.1328 5.1504-2.1328 1.9308-1e-6 3.7833 0.76771 5.1484 2.1328 0.99914 0.99918 1.6687 2.2613 1.9609 3.6211 0.10736-0.49964 0.17217-1.0085 0.17187-1.5273 1e-3 -1.9308-0.76656-3.7841-2.1328-5.1504-1.3651-1.3651-3.2176-2.1328-5.1484-2.1328zm46.441 3.7793c-2.5882-0.0034-4.6879 2.0934-4.6914 4.6816-8.5e-4 0.52996 0.10519 1.0441 0.27539 1.5352 0.63631-1.8365 2.3633-3.1609 4.416-3.1582 2.0479 0.0027 3.7684 1.3253 4.4043 3.1562 0.1676-0.48306 0.27783-0.99297 0.27735-1.5332-3e-3 -2.5836-2.0968-4.6782-4.6816-4.6816zm37.381 5.0859c-2.8516 0.13399-5.4394 1.7111-6.8652 4.1836-1.0351 1.7967-1.2938 3.8106-0.94336 5.7012 0.16958-0.90476 0.45779-1.8017 0.94336-2.6445 1.4258-2.4725 4.0136-4.0496 6.8652-4.1836 1.6045-0.0779 3.1984 0.30853 4.5898 1.1113 1.9263 1.1121 3.3294 2.9434 3.9043 5.0918 0.0579 0.21636 0.0673 0.43754 0.10742 0.65625 0.23122-1.2235 0.22056-2.4873-0.10742-3.7129-0.5749-2.1484-1.978-3.9797-3.9043-5.0918-1.3914-0.8028-2.9853-1.1892-4.5898-1.1113zm-27.635 0.87891c-1.0788-0.0023-2.1142 0.42312-2.877 1.1836-0.76386 0.76157-1.1934 1.7954-1.1934 2.873-9.8e-4 0.53092 0.10536 1.0505 0.30078 1.5332 0.203-0.4999 0.50276-0.959 0.89258-1.3477 0.7627-0.76047 1.7982-1.1878 2.877-1.1855 1.7024 9.12e-4 3.154 1.0525 3.7559 2.5391 0.19672-0.48393 0.29992-1.006 0.29883-1.5391-1e-3 -2.2401-1.8146-4.0554-4.0547-4.0566zm48.938 2.127c-2.847 0.13743-5.4288 1.7153-6.8535 4.1855-1.0371 1.7976-1.2963 3.8126-0.94532 5.7051 0.1698-0.90677 0.45819-1.8041 0.94532-2.6484 1.4247-2.4702 4.0065-4.0481 6.8535-4.1855 1.6056-0.0744 3.1996 0.31485 4.5898 1.1211 2.2121 1.2754 3.5859 3.4138 4.0176 5.7422 0.63645-3.3988-0.85231-6.9739-4.0176-8.7988-1.3903-0.80624-2.9842-1.1955-4.5898-1.1211zm-84.227 3.8496c-3.4116 0.0046-6.175 2.772-6.1738 6.1836 7.1e-4 0.52881 0.0892 1.0337 0.21484 1.5234 0.68378-2.6656 3.0801-4.6465 5.959-4.6504 1.64-0.0011 3.213 0.65045 4.373 1.8105 0.79063 0.78987 1.3231 1.7786 1.5957 2.8438 0.12639-0.49116 0.21413-0.99683 0.21484-1.5273 0-1.6411-0.65042-3.214-1.8105-4.373-1.1601-1.1601-2.733-1.8116-4.373-1.8105zm42.512 1.0977c-0.91045-0.0011-1.7841 0.36025-2.4277 1.0039-0.64476 0.64361-1.0059 1.5172-1.0059 2.4277 0 0.53775 0.13915 1.0568 0.375 1.5293 0.1635-0.32737 0.3669-0.6369 0.63086-0.90039 0.6436-0.64366 1.5173-1.005 2.4277-1.0039 0.9105-0.0011 1.7841 0.3603 2.4277 1.0039 0.26351 0.26349 0.4674 0.57301 0.63086 0.90039 0.23584-0.47252 0.37565-0.99161 0.375-1.5293 1e-3 -0.91045-0.3622-1.7841-1.0059-2.4277-0.64362-0.64361-1.5172-1.005-2.4277-1.0039zm-26.955 0.47461c-2.9776 0.0046-5.3871 2.419-5.3848 5.3965 9e-4 0.5326 0.10153 1.0377 0.2461 1.5234 0.66203-2.2254 2.6978-3.8595 5.1387-3.8633 1.4316-0.0011 2.806 0.56572 3.8184 1.5781 0.64039 0.64038 1.0788 1.4342 1.332 2.2871 0.14478-0.4862 0.24722-0.99225 0.24805-1.5254 1e-3 -1.4315-0.56767-2.806-1.5801-3.8184-1.0124-1.0124-2.3868-1.5792-3.8184-1.5781zm-33.623 0.62305c-1.932-0.0011-3.7841 0.76656-5.1504 2.1328-1.3662 1.3651-2.1328 3.2176-2.1328 5.1484 0 0.51912 0.0645 1.0296 0.17187 1.5293 0.29234-1.3598 0.96183-2.6228 1.9609-3.6211 1.3663-1.3662 3.2184-2.1339 5.1504-2.1328 1.9308-0.0011 3.7833 0.76661 5.1484 2.1328 0.99914 0.9983 1.6686 2.2613 1.9609 3.6211 0.10739-0.49964 0.17187-1.0102 0.17187-1.5293 0-1.9308-0.76656-3.7833-2.1328-5.1484-1.3651-1.3662-3.2176-2.1339-5.1484-2.1328zm46.43 3.7793c-2.5836 0.0034-4.6781 2.0968-4.6816 4.6816-4.2e-4 0.5408 0.10925 1.0536 0.27734 1.5371 0.63528-1.8333 2.3561-3.1594 4.4043-3.1621 2.0517-0.0027 3.7807 1.3226 4.418 3.1582 0.16983-0.49037 0.2759-1.0043 0.27539-1.5332-3e-3 -2.5893-2.1052-4.685-4.6934-4.6816zm-66.23 3.457c-4.6278 0-8.3809 3.751-8.3809 8.3789 0 0.52365 0.06239 1.0322 0.1543 1.5293 0.72026-3.8958 4.1224-6.8516 8.2266-6.8516 4.1042 0 7.5036 2.9558 8.2246 6.8516 0.092-0.49706 0.15612-1.0056 0.15625-1.5293-1e-3 -4.6278-3.7531-8.3789-8.3809-8.3789zm75.975 2.5078c-2.24 0.0011-4.0554 1.8174-4.0566 4.0586 2.4e-4 0.54137 0.11018 1.0552 0.30274 1.5273 0.60427-1.4819 2.0552-2.5285 3.7539-2.5293 1.6986 8.34e-4 3.1494 1.0474 3.7539 2.5293 0.19266-0.47214 0.30247-0.98597 0.30273-1.5273-1e-3 -2.2412-1.8166-4.0575-4.0566-4.0586zm22.182 3.6172c-2.4771 0.11567-4.7245 1.4848-5.9648 3.6309-0.90964 1.5728-1.1698 3.4223-0.78516 5.1894 0.1576-0.74098 0.39885-1.4649 0.78516-2.1328 1.2403-2.1461 3.4877-3.5152 5.9648-3.6309 1.3949-0.06525 2.7789 0.27293 3.9883 0.97266 1.8432 1.0667 3.0175 2.8231 3.4395 4.752 0.63767-2.9993-0.64239-6.1899-3.4395-7.8086-1.2094-0.69973-2.5934-1.0379-3.9883-0.97266zm21.303 3.0059c-2.4725 0.1191-4.7151 1.4862-5.9531 3.6289-0.91065 1.5734-1.1716 3.4256-0.78711 5.1934 0.15807-0.74185 0.40016-1.4682 0.78711-2.1367 1.238-2.1427 3.4806-3.5098 5.9531-3.6289 1.3949-0.0653 2.7781 0.27097 3.9863 0.9707 1.8494 1.067 3.0293 2.828 3.4512 4.7617 0.6394-3.0037-0.64746-6.2007-3.4512-7.8184-1.2082-0.69973-2.5914-1.036-3.9863-0.9707zm-73.537 1.3984c-3.4116-1e-3 -6.179 2.7603-6.1836 6.1719-3.2e-4 0.52232 0.0874 1.0317 0.21485 1.5293 0.68654-2.6671 3.0878-4.6454 5.9688-4.6445 2.8809-1e-3 5.2823 1.9774 5.9688 4.6445 0.12735-0.49762 0.21522-1.007 0.21484-1.5293-5e-3 -3.4116-2.772-6.1731-6.1836-6.1719zm15.559 1.5605c-1.4327-1e-3 -2.806 0.56771-3.8184 1.5801-1.0124 1.0124-1.5801 2.3869-1.5801 3.8184 0 0.5254 0.0994 1.0348 0.2461 1.5293 0.25317-0.85436 0.6924-1.6494 1.334-2.291 1.0124-1.0124 2.3857-1.5811 3.8184-1.5801 2.4437 4e-3 4.481 1.642 5.1406 3.8711 0.14482-0.48824 0.2465-0.99401 0.24609-1.5293 2e-3 -2.9764-2.4091-5.3938-5.3867-5.3984zm-33.637 0.63672c-1.9308 0-3.7833 0.76576-5.1484 2.1309-1.3662 1.3662-2.1339 3.2184-2.1328 5.1504-3e-4 0.5188 0.0645 1.0297 0.17187 1.5293 0.29201-1.3607 0.96138-2.6235 1.9609-3.623 1.3651-1.3651 3.2176-2.1309 5.1484-2.1309 1.932 0 3.7841 0.76576 5.1504 2.1309 0.99876 0.99964 1.6686 2.2624 1.9609 3.623 0.1075-0.49961 0.17188-1.0105 0.17187-1.5293 0-1.932-0.76771-3.7841-2.1328-5.1504-1.3663-1.3651-3.2184-2.1309-5.1504-2.1309zm108.55 2.9121c-2.476 0.11567-4.7234 1.4827-5.9648 3.6289-0.90893 1.5734-1.1685 3.4238-0.7832 5.1914 0.15767-0.74061 0.39742-1.467 0.7832-2.1348 1.2414-2.1462 3.4888-3.5132 5.9648-3.6289 1.3949-0.0652 2.7801 0.27212 3.9883 0.97071 1.8445 1.0681 3.0201 2.8255 3.4414 4.7559 0.63792-2.9995-0.64387-6.1926-3.4414-7.8125-1.2082-0.69859-2.5934-1.036-3.9883-0.97071zm-62.104 0.85547c-1.2448-1e-3 -2.4396 0.49354-3.3203 1.373-0.88069 0.88067-1.3742 2.0754-1.373 3.3203 6.2e-4 0.53573 0.11117 1.0402 0.27734 1.5195 0.23006-0.66268 0.59005-1.2776 1.0957-1.7832 0.88069-0.87951 2.0755-1.374 3.3203-1.373 2.0474 3e-3 3.7685 1.3254 4.4043 3.1562 0.16596-0.47915 0.27469-0.98415 0.2754-1.5195 3e-3 -2.5882-2.0915-4.69-4.6797-4.6934zm-66.244 3.4551c-4.6278 0-8.3789 3.7519-8.3789 8.3809 0 0.52299 0.0626 1.0309 0.1543 1.5273 0.72033-3.8965 4.1205-6.8516 8.2246-6.8516 4.1042 0 7.5043 2.9551 8.2246 6.8516 0.0917-0.49647 0.15625-1.0043 0.15625-1.5273 0-4.629-3.753-8.3809-8.3809-8.3809zm83.986 4.5781c-2.1026 0.0996-4.0112 1.2615-5.0625 3.0859-0.84758 1.4711-1.0218 3.1449-0.61915 4.666 0.13588-0.54971 0.32232-1.0942 0.61915-1.6094 1.0513-1.8244 2.9599-2.9863 5.0625-3.0859 1.1853-0.0573 2.3594 0.22709 3.3867 0.82031 1.4788 0.85649 2.4692 2.2325 2.875 3.7637 0.64065-2.5996-0.44212-5.4112-2.875-6.8203-1.0273-0.59322-2.2014-0.87758-3.3867-0.82032zm21.303 3.0059c-2.0992 0.10307-4.0025 1.265-5.0527 3.0859-0.84888 1.4707-1.021 3.1438-0.61915 4.666 0.13629-0.55022 0.32166-1.094 0.61915-1.6094 1.0502-1.8209 2.9535-2.9829 5.0527-3.0859 1.1841-0.0573 2.3594 0.22709 3.3867 0.82032 1.4847 0.85687 2.4768 2.2373 2.8828 3.7734 0.64367-2.6044-0.44317-5.4221-2.8828-6.8301-1.0273-0.59323-2.2026-0.87758-3.3867-0.82032zm-66.625 4.9004c-0.78906 0.0195-1.5608 0.23933-2.2422 0.63672-1.9822 1.1472-2.8034 3.5214-2.0703 5.6055 0.35303-1.0351 1.0495-1.958 2.0703-2.5488 0.6814-0.39739 1.4531-0.61722 2.2422-0.63672 1.711-0.0367 3.3058 0.86261 4.1602 2.3457 0.14909 0.25797 0.26398 0.52568 0.35937 0.79687 0.42096-1.2361 0.34545-2.634-0.35937-3.8535-0.85433-1.4831-2.4492-2.3824-4.1602-2.3457zm-58.961 0.86719c-2.5985 0-5.0889 1.035-6.9258 2.873-1.8358 1.8381-2.8675 4.3303-2.8652 6.9277 2.19e-4 0.5152 0.0755 1.0102 0.15234 1.5039 0.32398-2.0207 1.2482-3.9085 2.7129-5.375 1.8369-1.8381 4.3273-2.873 6.9258-2.873 2.5997-2e-3 5.0944 1.0291 6.9336 2.8672 1.4706 1.4714 2.3944 3.3679 2.7168 5.3965 0.07935-0.50157 0.15211-1.0054 0.15234-1.5195 0.0011-2.5997-1.031-5.0944-2.8691-6.9336-1.8392-1.8381-4.3339-2.8695-6.9336-2.8672zm142.52 0.74024c-2.1026 0.0985-4.0101 1.2608-5.0625 3.084-0.84718 1.4705-1.0193 3.1452-0.61718 4.666 0.13582-0.54977 0.32037-1.0942 0.61718-1.6094 1.0524-1.8232 2.9599-2.9855 5.0625-3.084 1.1841-0.0573 2.3606 0.22823 3.3867 0.82031 1.4793 0.85739 2.4694 2.2336 2.875 3.7656 0.64208-2.6002-0.44149-5.4119-2.875-6.8223-1.0261-0.59208-2.2026-0.87757-3.3867-0.82031zm-46.662 4.3438c-1.8346 0.0882-3.4986 1.1045-4.416 2.6953-0.71691 1.2403-0.91011 2.7143-0.53906 4.0976 0.0129 0.0483 0.0385 0.0909 0.0527 0.13868 0.12001-0.40739 0.27025-0.80587 0.48633-1.1797 0.9174-1.5908 2.5814-2.6071 4.416-2.6953v2e-3c1.0341-0.0492 2.0623 0.19916 2.959 0.7168 1.1981 0.69076 2.072 1.8176 2.4648 3.1387 0.27824-0.94437 0.31199-1.9514 0.0527-2.918-0.3699-1.3834-1.2762-2.5616-2.5176-3.2773-0.89671-0.51764-1.9249-0.76604-2.959-0.7168zm-50.385 0.52148c-0.68255 0.0149-1.3504 0.20169-1.9414 0.54297-0.93221 0.53939-1.6116 1.4276-1.8887 2.4688-0.22906 0.85947-0.15102 1.7593 0.18164 2.5742 0.33809-0.82791 0.9248-1.5337 1.707-1.9863 0.591-0.34128 1.2589-0.52807 1.9414-0.54297 1.4842-0.0321 2.8676 0.74906 3.6074 2.0352 0.0933 0.1619 0.15584 0.33168 0.22461 0.5 0.45757-1.1208 0.42644-2.4268-0.22461-3.5566-0.73981-1.2861-2.1232-2.0673-3.6074-2.0352zm71.699 2.4961c-1.8324 0.0847-3.4945 1.0954-4.4141 2.6816-0.71806 1.2391-0.91449 2.7114-0.54687 4.0937 0.0139 0.0522 0.0412 0.0988 0.0566 0.1504 0.12056-0.40979 0.27244-0.81168 0.49023-1.1875 0.9196-1.5862 2.5817-2.595 4.4141-2.6797 1.0307-0.0481 2.0548 0.19949 2.9492 0.71484 1.2443 0.71951 2.0821 1.8634 2.4609 3.1406 0.69124-2.3365-0.25934-4.9242-2.4609-6.1973-0.89442-0.51535-1.9185-0.76294-2.9492-0.71484zm-83.822 0.0586c-0.57376 0.0149-1.1331 0.1743-1.6289 0.46289-1.5767 0.90837-2.1438 2.8762-1.3476 4.4844 0.29056-0.57782 0.74539-1.0808 1.3476-1.4277 0.4958-0.28859 1.0552-0.44799 1.6289-0.46289 1.2529-0.0297 2.4232 0.62524 3.0508 1.7109 0.0386 0.0663 0.0618 0.13869 0.0957 0.20703 0.10529-0.20921 0.1929-0.42854 0.25391-0.65821 0.23477-0.88067 0.10848-1.8187-0.34961-2.6055-0.62758-1.0857-1.7979-1.7406-3.0508-1.7109zm28.805 3.2129c-0.90587 0.0183-1.7925 0.26444-2.5781 0.7168-1.2414 0.71462-2.1466 1.895-2.5176 3.2773-0.25925 0.96655-0.22551 1.9736 0.0527 2.918 0.39378-1.3201 1.2668-2.449 2.4648-3.1387 0.7856-0.45236 1.6723-0.6985 2.5781-0.7168 1.9709-0.047 3.8108 0.98696 4.7969 2.6934 0.21623 0.37562 0.36845 0.76788 0.48633 1.166 0.40565-1.3678 0.28172-2.8884-0.48633-4.2226-0.98604-1.7064-2.826-2.7404-4.7969-2.6934zm71.941 3.2363c-1.8312 0.0847-3.4964 1.0954-4.416 2.6816-0.71691 1.2403-0.91011 2.7142-0.53906 4.0976 0.0129 0.0483 0.0385 0.0909 0.0527 0.13868 0.12001-0.40739 0.27026-0.80587 0.48633-1.1797 0.9196-1.5862 2.5848-2.5969 4.416-2.6816 1.0352-0.0504 2.0623 0.198 2.959 0.71679 1.2443 0.71895 2.0839 1.8634 2.4629 3.1406 0.69169-2.336-0.2613-4.9252-2.4629-6.1973-0.89671-0.51879-1.9238-0.76718-2.959-0.71679zm-47.807 0.42773c-1.5953 0.0779-3.042 0.96108-3.8379 2.3457-0.62071 1.0776-0.78779 2.3584-0.46484 3.5586 0.027 0.10038 0.076 0.19129 0.10938 0.28906 0.0954-0.27178 0.20969-0.53794 0.35546-0.79102 0.7959-1.3846 2.2426-2.2678 3.8379-2.3457 0.8967-0.0424 1.7888 0.17608 2.5664 0.625 0.98738 0.56873 1.712 1.4835 2.0781 2.5547 0.31089-0.8855 0.35647-1.8484 0.10937-2.7676-0.32295-1.2002-1.1099-2.225-2.1875-2.8457-0.7776-0.44892-1.6697-0.66542-2.5664-0.62305zm-38.986 1.332c-0.8667 0.41242-1.8481 0.52317-2.7813 0.27344-0.16267-0.0433-0.31432-0.11341-0.46875-0.17578-0.19716 0.0801-0.40216 0.13908-0.58789 0.24609-1.9822 1.1472-2.8042 3.5234-2.0703 5.6074 0.35278-1.0355 1.0491-1.9598 2.0703-2.5508 0.6837-0.39395 1.4543-0.60704 2.2422-0.62304 1.7098-0.0389 3.3024 0.85548 4.1602 2.334 0.14908 0.25797 0.26402 0.52569 0.35937 0.79688 0.42118-1.236 0.34535-2.6341-0.35937-3.8535-0.5788-0.99765-1.5058-1.6962-2.5644-2.0547zm-16.283 0.69727c-0.55222 0.0632-1.0911 0.21147-1.5742 0.49023-0.9345 0.53825-1.6171 1.4238-1.8965 2.4648-0.23159 0.86277-0.15677 1.7666 0.17773 2.584 0.33935-0.83141 0.93187-1.539 1.7188-1.9922 0.5875-0.33899 1.2506-0.52577 1.9297-0.54297 1.4808-0.0343 2.8622 0.73999 3.6055 2.0215 0.0936 0.16174 0.15868 0.33478 0.22851 0.50586 0.0647-0.15854 0.13712-0.3132 0.18164-0.48047 0.27714-1.0399 0.12925-2.1498-0.41015-3.082-0.23513-0.4054-0.55058-0.73678-0.89649-1.0312-0.50675 0.0983-1.0308 0.0971-1.5391-0.0391-0.58562-0.15766-1.1041-0.4774-1.5254-0.89844zm76.584 0.97461c-1.5953 0.0779-3.042 0.96304-3.8379 2.3476-0.70473 1.2194-0.78055 2.6175-0.35938 3.8535 0.0954-0.27119 0.2103-0.53891 0.35938-0.79688 0.7959-1.3846 2.2426-2.2678 3.8379-2.3457 0.8978-0.0412 1.7888 0.17412 2.5664 0.62305 1.0212 0.59102 1.7174 1.5151 2.0703 2.5508 0.73309-2.0849-0.0881-4.4602-2.0703-5.6074-0.7776-0.44893-1.6686-0.66623-2.5664-0.625zm-38.375 6.4043c-1.0376 0.0252-2.0506 0.31292-2.9473 0.83399-2.4329 1.4091-3.516 4.2208-2.875 6.8203 0.40594-1.5312 1.3962-2.9072 2.875-3.7637 0.8967-0.52107 1.9097-0.80878 2.9473-0.83399 2.2595-0.0549 4.3704 1.1296 5.502 3.0879 0.29398 0.50842 0.48469 1.0569 0.62305 1.6172 0.41901-1.5794 0.19472-3.2595-0.62305-4.6738-1.1315-1.9583-3.2424-3.1428-5.502-3.0879zm28.908 0c-1.3823 0.063-2.6352 0.82664-3.3281 2.0234-0.53825 0.93335-0.68374 2.0422-0.4043 3.082 0.044 0.16393 0.11433 0.31711 0.17773 0.47266 0.0689-0.16872 0.13451-0.33842 0.22657-0.49805 0.6929-1.1968 1.9458-1.9604 3.3281-2.0234 0.7753-0.0389 1.5473 0.14727 2.2207 0.53321 0.78188 0.45242 1.3684 1.157 1.707 1.9844 0.33266-0.81495 0.41071-1.7148 0.18165-2.5742-0.27828-1.041-0.95648-1.9294-1.8887-2.4688-0.67339-0.38594-1.4454-0.57019-2.2207-0.53125zm26.4 0.10547c-1.5987 0.0733-3.0514 0.95652-3.8496 2.3457-0.62071 1.0765-0.78779 2.3573-0.46484 3.5586 0.027 0.10058 0.0759 0.19112 0.10937 0.28906 0.0953-0.27165 0.2097-0.53819 0.35547-0.79101 0.7982-1.3892 2.2509-2.2724 3.8496-2.3457 0.8944-0.0401 1.7805 0.17527 2.5547 0.62305 0.9882 0.56916 1.7144 1.4857 2.0801 2.5586 0.31091-0.88565 0.35467-1.8498 0.10742-2.7695-0.32296-1.2013-1.1098-2.225-2.1875-2.8457-0.77417-0.44778-1.6603-0.66313-2.5547-0.62305zm-91.328 3.2227c-0.86826 0.41453-1.8523 0.52674-2.7891 0.27734-0.16085-0.043-0.31002-0.11215-0.46289-0.17383-0.19515 0.0796-0.39838 0.13853-0.58203 0.24415-1.0777 0.62071-1.8645 1.6443-2.1875 2.8457-0.2471 0.91833-0.20102 1.8821 0.10937 2.7676 0.366-1.0721 1.0907-1.9879 2.0781-2.5566 0.6791-0.39052 1.446-0.60475 2.2305-0.62305 1.7132-0.0424 3.3149 0.85208 4.1738 2.334 0.14604 0.25311 0.26003 0.51921 0.35547 0.79102 0.0334-0.0977 0.0824-0.18877 0.10937-0.28906 0.32295-1.2013 0.15702-2.4809-0.46484-3.5586-0.57918-0.99925-1.5098-1.7003-2.5703-2.0586zm15.678 0.54492c-0.90244 0.0206-1.7843 0.26673-2.5664 0.7168-1.2403 0.71462-2.1465 1.8939-2.5176 3.2773-0.25844 0.96655-0.22524 1.974 0.0527 2.918 0.39394-1.3211 1.2678-2.449 2.4648-3.1387 0.7821-0.45007 1.664-0.6962 2.5664-0.7168 1.9744-0.0504 3.8191 0.98236 4.8086 2.6934 0.21606 0.37405 0.36643 0.77377 0.48633 1.1816 0.0147-0.049 0.0414-0.093 0.0547-0.14258 0.3699-1.3834 0.17475-2.8565-0.54102-4.0957-0.98947-1.711-2.8342-2.7438-4.8086-2.6934zm66.172 2.6348c-1.3777 0.0676-2.6258 0.83007-3.3164 2.0234-0.53939 0.93221-0.68845 2.0403-0.41016 3.0801 0.0445 0.16705 0.11513 0.32213 0.17969 0.48047 0.0697-0.17059 0.13714-0.34261 0.23047-0.5039 0.6906-1.1934 1.9387-1.9558 3.3164-2.0234 0.7799-0.0401 1.5556 0.14497 2.2324 0.5332 0.78187 0.45141 1.3684 1.1574 1.707 1.9844 0.33265-0.8147 0.41069-1.7138 0.18164-2.5742-0.27829-1.0399-0.95648-1.9286-1.8887-2.4668-0.67682-0.38823-1.4525-0.57329-2.2324-0.5332zm-9.166 3.6641c-1.1658 0.055-2.2245 0.70087-2.8086 1.7109-0.59684 1.0379-0.58589 2.2546-0.0859 3.25 0.0316-0.0638 0.0499-0.13075 0.0859-0.19336 0.5841-1.0101 1.6428-1.6559 2.8086-1.7109 0.6585-0.0343 1.3122 0.12363 1.8848 0.45117 0.58593 0.33709 1.0541 0.83684 1.3535 1.4316 0.36718-0.7448 0.46733-1.5949 0.25-2.4023-0.23591-0.88067-0.81331-1.6313-1.6035-2.0859-0.57261-0.32754-1.2263-0.48552-1.8848-0.45117zm-24.793 2.7285c-1.2197 0.0309-2.4109 0.36858-3.4668 0.98242-2.803 1.6164-4.0901 4.8131-3.4512 7.8164 0.42204-1.9331 1.6024-3.6936 3.4512-4.7598 1.0559-0.61384 2.2471-0.95152 3.4668-0.98242 2.6615-0.0607 5.1431 1.3353 6.4727 3.6406 0.38731 0.66919 0.63092 1.3963 0.78906 2.1387 0.38591-1.7692 0.1219-3.6214-0.78906-5.1953-1.3296-2.3053-3.8112-3.7013-6.4727-3.6406zm-46.303 2.3808c-0.90587 0.0183-1.7925 0.26443-2.5781 0.7168-1.2414 0.71461-2.1465 1.895-2.5176 3.2774-0.25925 0.96657-0.22553 1.9736 0.0527 2.918 0.39387-1.3201 1.2668-2.449 2.4648-3.1387 0.7856-0.45237 1.6722-0.69849 2.5781-0.71679 1.9709-0.0458 3.8089 0.98695 4.7949 2.6934 0.21609 0.37385 0.36828 0.77227 0.48828 1.1797 0.0143-0.0478 0.0398-0.0904 0.0527-0.13867 0.37105-1.3834 0.17589-2.8574-0.54101-4.0977-0.98604-1.7064-2.824-2.7392-4.7949-2.6934zm21.174 1.6758c-1.0364 0.0229-2.0494 0.30381-2.9473 0.82031-1.4201 0.82112-2.4564 2.1728-2.8789 3.7578-0.27006 1.0129-0.24757 2.0625-2e-3 3.0625 5.3e-4 -2e-3 1e-3 -4e-3 2e-3 -6e-3 0.4225-1.585 1.4588-2.9367 2.8789-3.7578 0.8979-0.5165 1.9109-0.79741 2.9473-0.82031 2.2606-0.055 4.3704 1.1287 5.502 3.0859 0.29611 0.51395 0.48125 1.0571 0.61719 1.6055 0.40133-1.5203 0.22969-3.1922-0.61719-4.6621-1.1315-1.9572-3.2414-3.1409-5.502-3.0859zm42.213 7.8262c-1.4018 0.0344-2.7732 0.42019-3.9883 1.1211-1.9274 1.1109-3.3349 2.9415-3.9121 5.0898-0.32897 1.2269-0.34044 2.4938-0.10938 3.7188 0.0405-0.22069 0.0508-0.44381 0.10938-0.66211 0.5772-2.1484 1.9847-3.979 3.9121-5.0898 1.2151-0.70091 2.5865-1.0867 3.9883-1.1211 3.0658-0.0699 5.9251 1.5384 7.4551 4.1953 0.48737 0.84436 0.77537 1.7417 0.94532 2.6484 0.35078-1.8925 0.0922-3.9075-0.94532-5.7051-1.53-2.6569-4.3893-4.2652-7.4551-4.1953zm-56.314 3.5703c-1.0364 0.0252-2.0506 0.31292-2.9473 0.83399-2.4329 1.4091-3.516 4.2201-2.875 6.8203 0.40594-1.5313 1.3962-2.9072 2.875-3.7637 0.8967-0.52107 1.9109-0.80878 2.9473-0.83398 2.263-0.0527 4.3728 1.1378 5.502 3.0996 0.29573 0.51332 0.48129 1.0539 0.61718 1.6016 0.40037-1.5193 0.22897-3.1914-0.61718-4.6602-1.1292-1.9618-3.239-3.1504-5.502-3.0977zm25.973 1.5039c-1.2185 0.0286-2.4118 0.36144-3.4688 0.9707-2.8016 1.617-4.0871 4.8118-3.4492 7.8144 0.42265-1.9321 1.6017-3.6915 3.4492-4.7578 1.057-0.60927 2.2502-0.94211 3.4688-0.9707 2.6592-0.063 5.1408 1.3281 6.4726 3.6289 0.38797 0.66954 0.62899 1.3959 0.78711 2.1387 0.38509-1.7692 0.12495-3.6213-0.78711-5.1953-1.3319-2.3008-3.8134-3.6919-6.4726-3.6289zm53.238 3.709c-1.6388 0.0424-3.2404 0.49724-4.6582 1.3184-3.6256 2.0953-5.3736 6.1565-4.7363 10.059 0.43648-2.8325 2.0622-5.4565 4.7363-7.002 1.4178-0.82112 3.0194-1.274 4.6582-1.3164 3.5822-0.0836 6.9268 1.7957 8.7168 4.9004 0.60869 1.0556 0.96693 2.179 1.1523 3.3144 0.32749-2.1253 5e-3 -4.3656-1.1523-6.373-1.79-3.1047-5.1346-4.984-8.7168-4.9004zm-67.34 7.6992c-1.2185 0.0275-2.4128 0.36144-3.4688 0.9707-2.8025 1.6161-4.0873 4.8116-3.4492 7.8145 0.42246-1.9323 1.6011-3.6921 3.4492-4.7578 1.0559-0.60926 2.2502-0.94319 3.4688-0.97069 2.6581-0.063 5.1396 1.3281 6.4726 3.6289 0.38696 0.66857 0.6289 1.395 0.78711 2.1367 0.38531-1.7687 0.12355-3.62-0.78711-5.1934-1.333-2.3008-3.8146-3.6919-6.4726-3.6289zm31.186 0.47461c-1.4029 0.0332-2.7743 0.41904-3.9883 1.1211-3.1657 1.8253-4.6546 5.3996-4.0176 8.7988 0.43169-2.3284 1.8055-4.4667 4.0176-5.7422 1.214-0.70205 2.5854-1.0879 3.9883-1.1211 3.0623-0.0733 5.9217 1.5313 7.4551 4.1836 0.47812 0.82688 0.77529 1.7272 0.94922 2.6484 0.35852-1.953 0.0518-3.9738-0.94922-5.7051-1.5334-2.6523-4.3928-4.2569-7.4551-4.1836z" fill="#fbf1c7" opacity=".6" style="isolation:isolate"/>
  <path d="m91 12c-72 0-85 15-85 87v56c0 70 13 85 85 85h74c72 0 85-15 85-85v-56c0-72-13-87-85-87zm0 4h74c68 0 80 15 80 83v56c0 66-12 81-80 81h-74c-68 0-80-15-80-81v-56c0-68 12-83 80-83z" fill="url(#linearGradient31)" style="isolation:isolate"/>
</svg>
