<svg width="256" height="256" version="1.1" xmlns="http://www.w3.org/2000/svg">
  <defs>
    <linearGradient id="linearGradient6" x1="140" x2="140" y1="12" y2="240" gradientUnits="userSpaceOnUse">
      <stop stop-color="#504945" offset="0"/>
      <stop stop-color="#3c3836" offset="1"/>
    </linearGradient>
    <linearGradient id="linearGradient10" x1="128" x2="128" y1="12" y2="240" gradientUnits="userSpaceOnUse">
      <stop stop-color="#ebdbb2" stop-opacity=".2" offset="0"/>
      <stop stop-color="#ebdbb2" stop-opacity="0" offset=".24728"/>
      <stop stop-color="#1d2021" stop-opacity=".05" offset=".60231"/>
      <stop stop-color="#1d2021" stop-opacity=".1978" offset=".90182"/>
      <stop stop-color="#1d2021" stop-opacity=".60073" offset="1"/>
    </linearGradient>
  </defs>
  <path d="m165 12c72 0 85 15 85 87v56c0 70-13 85-85 85h-74c-72 0-85-15-85-85v-56c0-72 13-87 85-87z" fill="url(#linearGradient6)" style="isolation:isolate"/>
  <path d="m233.86 28.225-214.07 2.5547c-10.845 12.973-13.789 34.328-13.789 68.592v56c0 26.569 1.8719 45.214 8.1328 58.123h49.664c2.2127 0 4.316 0.96611 5.7578 2.6445l15.955 18.572c2.8837 3.3568 7.0883 5.2891 11.514 5.2891h61.953c4.4254 0 8.63-1.9322 11.514-5.2891l15.955-18.572c1.4418-1.6784 3.5451-2.6445 5.7578-2.6445h49.664c6.2609-12.909 8.1328-31.554 8.1328-58.123v-56c0-36.616-3.3623-58.49-16.137-71.146z" fill="#cc241d" style="isolation:isolate"/>
  <path d="m91 12c-72 0-85 15-85 87v56c0 19.598 1.0188 34.887 4.0664 46.74h57.258c2.3656 0 4.5954 1.1024 6.0312 2.9824l12.141 15.895c2.8716 3.7601 7.3313 5.9668 12.062 5.9668h60.883c4.7312 0 9.1909-2.2067 12.062-5.9668l12.141-15.895c1.4358-1.88 3.6657-2.9824 6.0312-2.9824h57.258c3.0476-11.854 4.0664-27.142 4.0664-46.74v-56c0-72-13-87-85-87z" fill="#fb4934" style="isolation:isolate"/>
  <path d="m158.81 48.299c-8.7645 0.35038-17.753 2.2906-26.787 2.7363-16.471 1.7564-33.71-2.6035-49.98 0.98047-17.139 4.0166-23.568 19.388-23.568 29.756-0.52245 4.4678 1.337 8.3798 2.3301 12.574 0.58826 2.5052 2.7455 13.995 2.8301 14.463 2.2436 15.642 10.408 28.802 26.371 32.973-14.794 13.807-8.5864 35.057-4.9277 40.545 10.04 15.06 27.115 15.094 34.676 14.674 15.356-1.9688 23.625 0.35584 35.617-3.1602 7.9832-3.0924 21.096-17.102 21.096-30.779 0-3.6173-0.86261-19.572-15.594-28.326-2e-3 -0.51068-6e-3 -0.96045-8e-3 -1.4551 15.532 2.2574 37.307-11.593 34.25-38.975 1.4825-14.23 0.40343-28.736-10.861-39.205-8.1387-5.9117-16.679-7.1512-25.443-6.8008zm3.1777 13.545c0.62587-0.0284 1.252-0.0256 1.877 6e-3 4.1667 0.20958 8.2718 1.7329 11.775 4.375 8.9638 8.1897 6.7151 18.203 5.1562 28.381 2.8703 11.013-2.3252 24.893-18.27 24.893-4.7483 0-12.398-2.4623-16.18-8.5996 0 0.0245-2e-3 0.0263-2e-3 0.0508l-4e-3 -0.0586c-0.0115-0.0186-0.0238-0.036-0.0352-0.0547 0.7668 11.214 0.27616 22.442 0.48243 33.67 11.075 1.506 15.549 10.802 15.549 18.572-1.5686 19.171-18.536 19.499-25.346 18.846-1.1132-0.1113-2.8372-0.16619-5.0039-0.0879-19.896 2.4954-29.48 1.5101-35.336-7.2734-4.2487-6.3731-2.1183-15.919-0.16407-19.018 3.1389-4.4692 7.7744-7.7919 13.23-8.6914 0.20363-4.0137 0.25295-10.3-0.0508-24.588-7.4448 9.5979-23.274 8.5933-29.195-4.7305-4.2083-10.907-4.5348-23.14-5.1133-24.791-0.88599-3.2352-1.9453-6.109-1.9453-9.3398 0-9.9271 9.0361-18.621 19.656-18.621 24.011 0-41.473 0.29687 39.287 0.29687 8.3188-0.36775 16.331-1.0929 24.059-2.1465 1.8209-0.64675 3.6946-1.0048 5.5723-1.0898zm0.63671 14.031c-1.2033 0.0173-2.453 0.30268-3.6133 0.88281-14.786 2.0632-32.879 3.0735-64.568 2.2207-3.14-0.44855-7.1094 1.0649-7.1094 4.4434 0 0.88855 0.29631 2.2209 0.88867 3.998 2.0487 5.203 1.6736 11.01 2.8145 16.437 1.2835 7.1084 2.8624 10.662 4.7383 10.662 2.3695 0 3.6044-0.73976 3.7031-2.2207l0.29492-3.998c-0.19745-4.0479-0.98694-10.811-2.3691-20.289 20.154-1.4144 14.767 0.29509 26.213-0.44336l0.44336 0.44336c-1.0348 23.085-0.11872 46.222-0.44336 69.307 0 1.6784-1.5312 2.5176-4.5918 2.5176-12.97 0-11.762 5.5344-10.811 6.9609 1.1848 1.7771 4.4421 2.5169 9.7734 2.2207 5.2326-0.29618 9.6771-0.68996 13.33-1.1836 7.51-0.27818 10.912 0.95136 13.771-0.14844 2.0733-0.88855 3.1094-2.4178 3.1094-4.5898 0-3.653-1.8753-5.2339-5.627-4.7402h-9.1816c-0.49363-0.69109-0.74024-1.8763-0.74024-3.5547 0-22.511-0.19706-45.026-0.44531-67.529 8.0957-0.78983 16.736-1.3824 25.918-1.7774 0.19747 0.19746 0.34466 0.29688 0.44336 0.29688 0 4.7373-0.66416 12.913-0.44336 17.771 1.4952 2.7767 9.3281 3.1229 9.3281-1.9258 0-0.78983-0.14718-2.1719-0.44336-4.1465-0.58746-3.329-0.13276-8.3443 1.4805-15.402 0.93347-3.9205-2.2533-6.2649-5.8633-6.2129zm-1.707 76.221c0.10437 1.3003 0 2.2549 0 2.6719z" fill="#282828" opacity=".2" stop-color="#000000"/>
  <path d="m158.81 42.676c-8.7645 0.35038-17.753 2.2906-26.787 2.7363-16.471 1.7564-33.71-2.6035-49.98 0.98047-17.139 4.0166-23.568 19.388-23.568 29.756-0.52245 4.4678 1.337 8.3798 2.3301 12.574 0.58826 2.5052 2.7455 13.995 2.8301 14.463 2.2436 15.642 10.408 28.802 26.371 32.973-14.794 13.807-8.5864 35.057-4.9277 40.545 10.04 15.06 27.115 15.094 34.676 14.674 15.356-1.9688 23.625 0.35584 35.617-3.1602 7.9832-3.0924 21.096-17.102 21.096-30.779 0-3.6173-0.86261-19.572-15.594-28.326-2e-3 -0.51068-0.00581-0.96045-0.00781-1.4551 15.532 2.2574 37.307-11.593 34.25-38.975 1.4825-14.23 0.40343-28.736-10.861-39.205-8.1387-5.9117-16.679-7.1512-25.443-6.8008zm3.1777 13.545c0.62587-0.02836 1.252-0.025576 1.877 0.005859 4.1667 0.20958 8.2718 1.7329 11.775 4.375 8.9638 8.1897 6.7151 18.203 5.1562 28.381 2.8703 11.013-2.3252 24.893-18.27 24.893-4.7483 0-12.398-2.4623-16.18-8.5996 0 0.0245-0.00195 0.02628-0.00195 0.05078l-0.00391-0.05859c-0.0115-0.0186-0.02376-0.03599-0.03516-0.05469 0.7668 11.214 0.27616 22.442 0.48243 33.67 11.075 1.506 15.549 10.802 15.549 18.572-1.5686 19.171-18.536 19.499-25.346 18.846-1.1132-0.1113-2.8372-0.16619-5.0039-0.08789-19.896 2.4954-29.48 1.5101-35.336-7.2734-4.2487-6.3731-2.1183-15.919-0.16406-19.018 3.1389-4.4692 7.7744-7.7919 13.23-8.6914 0.20363-4.0137 0.25295-10.3-0.05078-24.588-7.4448 9.5979-23.274 8.5933-29.195-4.7305-4.2083-10.907-4.5348-23.14-5.1133-24.791-0.88599-3.2352-1.9453-6.109-1.9453-9.3398 0-9.9271 9.0361-18.621 19.656-18.621 24.011 0-41.473 0.29688 39.287 0.29688 8.3188-0.36775 16.331-1.0929 24.059-2.1465 1.8209-0.64675 3.6946-1.0048 5.5723-1.0898zm0.63671 14.031c-1.2033 0.01735-2.453 0.30268-3.6133 0.88281-14.786 2.0632-32.879 3.0735-64.568 2.2207-3.14-0.44855-7.1094 1.0649-7.1094 4.4434 0 0.88856 0.29631 2.2209 0.88867 3.998 2.0487 5.203 1.6736 11.01 2.8145 16.438 1.2835 7.1084 2.8624 10.662 4.7383 10.662 2.3695 0 3.6044-0.73976 3.7031-2.2207l0.29492-3.998c-0.19745-4.0479-0.98694-10.811-2.3691-20.289 20.154-1.4143 14.767 0.29509 26.213-0.44336l0.44336 0.44336c-1.0348 23.085-0.11872 46.222-0.44336 69.307 0 1.6784-1.5312 2.5176-4.5918 2.5176-12.97 0-11.762 5.5344-10.811 6.9609 1.1848 1.7771 4.4421 2.5169 9.7734 2.2207 5.2326-0.29618 9.6771-0.68996 13.33-1.1836 7.51-0.27818 10.912 0.95136 13.771-0.14844 2.0733-0.88855 3.1094-2.4178 3.1094-4.5898 0-3.653-1.8753-5.2339-5.627-4.7402h-9.1816c-0.49363-0.69109-0.74024-1.8763-0.74024-3.5547 0-22.511-0.19706-45.026-0.44531-67.529 8.0957-0.78983 16.736-1.3824 25.918-1.7773 0.19747 0.19746 0.34466 0.29688 0.44336 0.29688 0 4.7373-0.66416 12.913-0.44336 17.771 1.4952 2.7767 9.3281 3.1229 9.3281-1.9258 0-0.78982-0.14718-2.1719-0.44336-4.1465-0.58746-3.329-0.13276-8.3443 1.4805-15.402 0.93347-3.9205-2.2533-6.2649-5.8633-6.2129zm-1.707 76.221c0.10437 1.3003 0 2.2549 0 2.6719v-2.6719z" fill="#ebdbb2" stop-color="#000000"/>
  <path d="m158.85 42.789c-8.7645 0.35038-17.753 2.2906-26.787 2.7363-16.471 1.7564-33.71-2.6035-49.98 0.98047-17.139 4.0166-23.568 19.388-23.568 29.756-0.14172 1.2119-0.10882 2.3824 0.03516 3.5293 0.76243-10.249 7.4167-24.008 23.494-27.775 16.271-3.584 33.51 0.77594 49.98-0.98047 9.0339-0.44576 18.023-2.3859 26.787-2.7363 8.7645-0.35038 17.305 0.88903 25.443 6.8008 8.2248 7.6437 11.019 17.44 11.352 27.709 0.52875-12.23-1.6262-24.217-11.312-33.219-8.1387-5.9117-16.679-7.1512-25.443-6.8008zm3.8144 27.576c-1.2033 0.01735-2.453 0.30268-3.6133 0.88281-14.786 2.0632-32.879 3.0735-64.568 2.2207-3.14-0.44855-7.1094 1.0649-7.1094 4.4434 0 0.76547 0.22051 1.8604 0.66015 3.2852 1.2775-1.7996 4.0733-2.5526 6.4102-2.2188 31.689 0.85278 49.782-0.15747 64.568-2.2207 1.1603-0.58013 2.4099-0.86546 3.6133-0.88281 2.3323-0.03363 4.4887 0.93394 5.4707 2.6797 0.13358-0.63998 0.27684-1.2993 0.43165-1.9766 0.93346-3.9205-2.2533-6.2649-5.8633-6.2129zm19.486 9.1191c-0.25231 3.1513-0.81851 6.3733-1.3144 9.6113 0.19321 0.74133 0.34945 1.4956 0.46875 2.2578 0.62766-4.0461 1.1634-8.0381 0.8457-11.869zm-108.48 1.0254c-0.1687 0.94808-0.25586 1.9153-0.25586 2.8945 0 3.2309 1.0593 6.1046 1.9453 9.3398 0.57845 1.651 0.905 13.884 5.1133 24.791 5.9217 13.324 21.751 14.328 29.195 4.7305 0.14175 6.6676 0.20668 11.593 0.21484 15.357 0.0807-4.1313 0.0485-10.318-0.17578-20.867-7.4448 9.5979-23.274 8.5933-29.195-4.7305-4.2083-10.907-4.5348-23.14-5.1133-24.791-0.64082-2.34-1.3727-4.4909-1.7285-6.7246zm84.779 5.2461c-0.17367 4.0547-0.41536 8.631-0.30273 11.893 0.13425-4.1608 0.41992-8.7489 0.41992-11.857-0.0337 0-0.0722-0.01207-0.11719-0.03516zm-26.145 1.5059c-0.0329 0.0032-0.0667 0.0066-0.0996 0.0098 0.24825 22.503 0.44531 45.018 0.44531 67.529 0 1.6784 0.24661 2.8636 0.74024 3.5547h9.1816c2.5163-0.3311 4.1892 0.272 5.0176 1.8066 0.43287-0.72433 0.64843-1.5836 0.64843-2.5762 0-3.653-1.8753-5.2339-5.627-4.7402h-9.1816c-0.49363-0.69109-0.74024-1.8763-0.74024-3.5547 0-20.677-0.16529-41.358-0.38476-62.029zm-8.4121 0.58398c-0.1935 5.9353-0.27442 11.873-0.29688 17.812 0.0632-5.8842 0.2013-11.767 0.46485-17.646zm-25.678 0.10938c-0.26535 0.01813-0.53583 0.03736-0.81055 0.05664 1.1202 7.6815 1.8514 13.578 2.1934 17.693l0.21484-2.9141c-0.15723-3.2234-0.68925-8.1692-1.5976-14.836zm68.711 3.1953c-0.24571 2.569-0.21311 4.6673 0.082 6.3398 0.0225 0.15017 0.0436 0.29614 0.0645 0.43945 0.26561-0.50188 0.41797-1.0996 0.41797-1.8027 0-0.78982-0.14718-2.1719-0.44336-4.1465-0.0469-0.26578-0.0875-0.54262-0.1211-0.83008zm28.449 0.29297c-0.074 0.95406-0.1605 1.9084-0.25976 2.8613 0.0992 0.8882 0.17273 1.7615 0.2207 2.6211 0.12822-1.7571 0.14384-3.5846 0.0391-5.4824zm-13.973 6.4434c-1.0849 8.4492-6.997 16.102-18.836 16.102-4.7483 0-12.398-2.4623-16.18-8.5996 0 0.0245-2e-3 0.0263-2e-3 0.0508l-4e-3 -0.0586c-0.0115-0.0186-0.0238-0.036-0.0352-0.0547 0.13767 2.0132 0.23482 4.027 0.30274 6.041 3.8743 5.7944 11.253 8.1309 15.879 8.1309 14.393 0 20.026-11.309 18.875-21.611zm-20.537 35.393c2e-3 0.49463 6e-3 0.94439 8e-3 1.4551 12.271 7.2927 14.919 19.581 15.461 25.572 0.11276-0.91817 0.17187-1.8373 0.17187-2.7559 0-3.0938-0.63015-15.213-10.029-24.133-1.922 0.16785-3.809 0.12329-5.6113-0.13867zm-74.627 7.2988c-4.76 6.6-5.9339 14.188-5.5039 20.809 0.55058-6.7027 3.0609-13.809 9.2715-19.605-1.3078-0.34168-2.5634-0.74433-3.7676-1.2031zm37.445 9.002c-8e-3 0.74317-0.0169 1.4854-0.0273 2.2285 0 1.6784-1.5312 2.5176-4.5918 2.5176-12.97 0-11.762 5.5344-10.811 6.9609 0.20307 0.30461 0.46614 0.5786 0.79101 0.82226 1.493-1.266 4.4468-2.2734 9.9805-2.2734 3.0606 0 4.5918-0.8392 4.5918-2.5176 0.0363-2.5791 0.0567-5.158 0.0664-7.7383zm38.412 10.336c-2.713 16.849-18.545 17.124-25.064 16.498-1.1132-0.1113-2.8372-0.16619-5.0039-0.0879-19.896 2.4954-29.48 1.5101-35.336-7.2734-1.3262-1.9892-2.03-4.2866-2.3125-6.6016-0.49113 3.8928-0.12843 8.5085 2.2734 12.111 5.8557 8.7835 15.439 9.7688 35.336 7.2734 2.1667-0.0783 3.8907-0.0234 5.0039 0.0879 6.8097 0.65373 23.777 0.32527 25.346-18.846 0-1.0343-0.0787-2.0957-0.24219-3.1621z" fill="#fbf1c7" opacity=".6" stop-color="#000000"/>
  <path d="m91 12c-72 0-85 15-85 87v56c0 70 13 85 85 85h74c72 0 85-15 85-85v-56c0-72-13-87-85-87zm0 5h74c35.653 0 55.307 3.9448 65.895 14.965 10.588 11.02 14.105 31.336 14.105 67.035v56c0 34.69-3.4936 54.457-14.07 65.25-10.577 10.793-30.277 14.75-65.93 14.75h-74c-35.653 0-55.353-3.9574-65.93-14.75-10.577-10.793-14.07-30.56-14.07-65.25v-56c0-35.699 3.5176-56.015 14.105-67.035 10.588-11.02 30.242-14.965 65.895-14.965z" fill="url(#linearGradient10)" style="isolation:isolate"/>
  <path d="m85.736 234.97c2.8749 3.1972 6.9767 5.0312 11.287 5.0312h61.953c4.3104 0 8.4122-1.834 11.287-5.0312-1.7145 0.0204-3.4692 0.0312-5.2637 0.0312h-74c-1.7944 0-3.5492-0.0108-5.2637-0.0312z" fill="#cc241d" style="isolation:isolate"/>
</svg>
