<svg xmlns="http://www.w3.org/2000/svg" width="256" height="256" viewBox="0 0 67.73 67.73">
    <defs>
        <linearGradient id="e" x1="296" x2="296" y1="-212" y2="236" gradientUnits="userSpaceOnUse">
            <stop offset="0" stop-color="#ebdbb2"/>
            <stop offset=".125" stop-color="#ebdbb2" stop-opacity=".098"/>
            <stop offset=".925" stop-opacity=".098"/>
            <stop offset="1" stop-opacity=".498"/>
        </linearGradient>
        <clipPath id="d">
            <path d="M361.938-212C507.235-212 528-191.287 528-46.125v116.25C528 215.286 507.235 236 361.937 236H214.063C68.766 236 48 215.286 48 70.125v-116.25C48-191.287 68.765-212 214.063-212z" fill="#b16286"/>
        </clipPath>
        <linearGradient id="c" x1="28.326" x2="277.697" y1="33.804" y2="283.991" gradientTransform="translate(-7.197 222.252) scale(.2646)" gradientUnits="userSpaceOnUse">
            <stop offset="0" stop-color="#b8bb26"/>
            <stop offset="1" stop-color="#b8bb26"/>
        </linearGradient>
        <filter id="b" width="1.046" height="1.05" x="-.02" y="-.03" color-interpolation-filters="sRGB">
            <feGaussianBlur stdDeviation="2.32"/>
        </filter>
        <filter id="a" width="1.023" height="1.025" x="-.01" y="-.01" color-interpolation-filters="sRGB">
            <feGaussianBlur stdDeviation="1.16"/>
        </filter>
        <radialGradient id="h" cx="48" cy="48" r="35.25" gradientTransform="matrix(.53585 0 0 .53585 8.678 235.213)" gradientUnits="userSpaceOnUse">
            <stop offset="0" stop-color="#b8bb26"/>
            <stop offset="1" stop-color="#b8bb26" stop-opacity="0"/>
        </radialGradient>
        <linearGradient id="g" x1="12.75" x2="83.25" y1="48" y2="48" gradientTransform="matrix(0 -.53585 .53585 0 8.678 286.654)" gradientUnits="userSpaceOnUse">
            <stop offset="0" stop-color="#b8bb26"/>
            <stop offset="1" stop-color="#ebdbb2"/>
        </linearGradient>
        <filter id="f" width="1.096" height="1.096" x="-.05" y="-.05" color-interpolation-filters="sRGB">
            <feGaussianBlur stdDeviation=".756"/>
        </filter>
    </defs>
    <path d="M188.969 44C261.617 44 272 54.357 272 126.938v58.124C272 257.644 261.617 268 188.969 268H115.03C42.383 268 32 257.643 32 185.062v-58.125C32 54.358 42.383 44 115.031 44z" transform="translate(-7.197 -7.014) scale(.2646)" opacity=".1" filter="url(#a)"/>
    <path d="M188.969 46C261.617 46 272 56.357 272 128.938v58.125c0 72.58-10.383 82.937-83.031 82.937H115.03C42.383 270 32 259.643 32 187.062v-58.125C32 56.358 42.383 46 115.031 46z" transform="translate(-7.197 -7.014) scale(.2646)" opacity=".2" filter="url(#b)"/>
    <path d="M42.804 233.895c19.223 0 21.97 2.74 21.97 21.945v15.38c0 19.205-2.747 21.945-21.97 21.945H23.24c-19.223 0-21.97-2.74-21.97-21.945v-15.38c0-19.205 2.747-21.945 21.97-21.945z" fill="url(#c)" transform="translate(0 -229.267)"/>
    <path d="M361.938-212C507.235-212 528-191.287 528-46.125v116.25C528 215.286 507.235 236 361.937 236H214.063C68.766 236 48 215.286 48 70.125v-116.25C48-191.287 68.765-212 214.063-212z" clip-path="url(#d)" transform="translate(-5.08 32.676) scale(.1323)" opacity=".4" fill="none" stroke="url(#e)" stroke-width="8" stroke-linecap="round" stroke-linejoin="round"/>
    <g transform="matrix(.98107 0 0 .98107 -.726 -221.73)" opacity=".3" filter="url(#f)">
        <path d="M30.447 242.045c-2.4.5-4.632 1.462-6.614 2.763a5.328 5.328 0 0 1-1.557 4.002 5.328 5.328 0 0 1-4.003 1.558 19.188 19.188 0 0 0-2.763 6.614 5.339 5.339 0 0 1 1.742 3.952c0 1.565-.67 2.972-1.742 3.952.5 2.4 1.462 4.632 2.763 6.614a5.328 5.328 0 0 1 4.003 1.557 5.328 5.328 0 0 1 1.557 4.002 19.188 19.188 0 0 0 6.614 2.763 5.339 5.339 0 0 1 3.952-1.741c1.566 0 2.972.67 3.952 1.741a19.192 19.192 0 0 0 6.598-2.746c-.004-.077 0-.157 0-.234 0-1.372.527-2.738 1.574-3.785a5.328 5.328 0 0 1 4.002-1.557 19.188 19.188 0 0 0 2.763-6.614 5.339 5.339 0 0 1-1.742-3.952c0-1.566.67-2.972 1.742-3.952-.5-2.4-1.462-4.632-2.763-6.614a5.328 5.328 0 0 1-4.002-1.558 5.336 5.336 0 0 1-1.574-3.784c0-.078-.004-.157 0-.235a19.192 19.192 0 0 0-6.598-2.746 5.339 5.339 0 0 1-3.952 1.742 5.339 5.339 0 0 1-3.952-1.742zm3.952 14.602a4.287 4.287 0 1 1 0 8.574 4.287 4.287 0 0 1 0-8.574z"/>
        <path d="M30.447 242.045c-2.4.5-4.632 1.462-6.614 2.763a5.328 5.328 0 0 1-1.557 4.002 5.328 5.328 0 0 1-4.003 1.558 19.188 19.188 0 0 0-2.763 6.614 5.339 5.339 0 0 1 1.742 3.952c0 1.565-.67 2.972-1.742 3.952.5 2.4 1.462 4.632 2.763 6.614a5.328 5.328 0 0 1 4.003 1.557 5.328 5.328 0 0 1 1.557 4.002 19.188 19.188 0 0 0 6.614 2.763 5.339 5.339 0 0 1 3.952-1.741c1.566 0 2.972.67 3.952 1.741a19.192 19.192 0 0 0 6.598-2.746c-.004-.077 0-.157 0-.234 0-1.372.527-2.738 1.574-3.785a5.328 5.328 0 0 1 4.002-1.557 19.188 19.188 0 0 0 2.763-6.614 5.339 5.339 0 0 1-1.742-3.952c0-1.566.67-2.972 1.742-3.952-.5-2.4-1.462-4.632-2.763-6.614a5.328 5.328 0 0 1-4.002-1.558 5.336 5.336 0 0 1-1.574-3.784c0-.078-.004-.157 0-.235a19.192 19.192 0 0 0-6.598-2.746 5.339 5.339 0 0 1-3.952 1.742 5.339 5.339 0 0 1-3.952-1.742zm3.952 14.602a4.287 4.287 0 1 1 0 8.574 4.287 4.287 0 0 1 0-8.574z"/>
        <path d="M39.861 248.678a2.551 2.551 0 0 0-2.546 2.557 2.551 2.551 0 0 0 2.546 2.557 2.551 2.551 0 0 0 2.546-2.557 2.551 2.551 0 0 0-2.546-2.557zm-5.376 2.002c-1.57 0-3.162.398-4.593 1.109a.19.19 0 0 0-.098.125.199.199 0 0 0 .018.161l2.065 3.281a.203.203 0 0 0 .25.08 5.999 5.999 0 0 1 2.358-.482c2.948 0 5.52 2.194 5.981 5.105.016.098.098.17.196.17h3.881c.057 0 .113-.02.151-.063a.198.198 0 0 0 .054-.152 10.385 10.385 0 0 0-2.582-5.874.199.199 0 0 0-.258-.027c-.585.38-1.25.582-1.922.582a3.56 3.56 0 0 1-3.552-3.559v-.071a.211.211 0 0 0-.169-.206 10.47 10.47 0 0 0-1.78-.179zm-6.23 2.146a.206.206 0 0 0-.08.036 10.394 10.394 0 0 0-3.561 5.159.196.196 0 0 0 .062.214 3.58 3.58 0 0 1 1.353 2.772 3.58 3.58 0 0 1-1.353 2.771.197.197 0 0 0-.062.215 10.42 10.42 0 0 0 3.525 5.132.189.189 0 0 0 .151.045.21.21 0 0 0 .134-.099l2.082-3.272a.202.202 0 0 0-.035-.26 6.062 6.062 0 0 1-2.056-4.532 6.05 6.05 0 0 1 2.074-4.55.204.204 0 0 0 .044-.26l-2.065-3.282a.196.196 0 0 0-.134-.089.216.216 0 0 0-.08 0zm-5.742 5.615a2.615 2.615 0 0 0-2.608 2.62 2.608 2.608 0 1 0 5.216 0 2.615 2.615 0 0 0-2.608-2.62zm22.03 3.38l-3.88.007a.21.21 0 0 0-.206.17c-.468 2.89-3.033 5.07-5.972 5.07-.81 0-1.613-.169-2.385-.501a.2.2 0 0 0-.25.071l-2.082 3.281a.2.2 0 0 0-.018.161.19.19 0 0 0 .098.126 10.388 10.388 0 0 0 4.637 1.108c.589 0 1.204-.059 1.825-.17a.193.193 0 0 0 .16-.17 3.544 3.544 0 0 1 3.516-3.147 3.58 3.58 0 0 1 1.646.412c.079.04.17.027.232-.036a10.35 10.35 0 0 0 2.884-6.17.196.196 0 0 0-.054-.151.202.202 0 0 0-.151-.063zm-4.584 6.91a2.605 2.605 0 0 0-2.608 2.602 2.605 2.605 0 0 0 2.608 2.602 2.605 2.605 0 0 0 2.608-2.602 2.605 2.605 0 0 0-2.608-2.602z"/>
        <path d="M30.447 242.045c-2.4.5-4.632 1.462-6.614 2.763a5.328 5.328 0 0 1-1.557 4.002 5.328 5.328 0 0 1-4.003 1.558 19.188 19.188 0 0 0-2.763 6.614 5.339 5.339 0 0 1 1.742 3.952c0 1.565-.67 2.972-1.742 3.952.5 2.4 1.462 4.632 2.763 6.614a5.328 5.328 0 0 1 4.003 1.557 5.328 5.328 0 0 1 1.557 4.002 19.188 19.188 0 0 0 6.614 2.763 5.339 5.339 0 0 1 3.952-1.741c1.566 0 2.972.67 3.952 1.741a19.192 19.192 0 0 0 6.598-2.746c-.004-.077 0-.157 0-.234 0-1.372.527-2.738 1.574-3.785a5.328 5.328 0 0 1 4.002-1.557 19.188 19.188 0 0 0 2.763-6.614 5.339 5.339 0 0 1-1.742-3.952c0-1.566.67-2.972 1.742-3.952-.5-2.4-1.462-4.632-2.763-6.614a5.328 5.328 0 0 1-4.002-1.558 5.336 5.336 0 0 1-1.574-3.784c0-.078-.004-.157 0-.235a19.192 19.192 0 0 0-6.598-2.746 5.339 5.339 0 0 1-3.952 1.742 5.339 5.339 0 0 1-3.952-1.742zm-.084.62c1.06 1.006 2.462 1.674 4.036 1.674 1.574 0 2.976-.668 4.036-1.674a18.628 18.628 0 0 1 5.978 2.478c.03 1.475.586 2.948 1.708 4.07 1.113 1.113 2.574 1.603 4.035 1.64a18.642 18.642 0 0 1 2.512 6.045c-1.006 1.06-1.674 2.462-1.674 4.036 0 1.574.668 2.975 1.674 4.035a18.642 18.642 0 0 1-2.512 6.045c-1.46.038-2.922.528-4.035 1.641-1.122 1.122-1.679 2.595-1.708 4.07a18.628 18.628 0 0 1-5.978 2.478c-1.06-1.006-2.462-1.675-4.036-1.675-1.574 0-2.975.669-4.036 1.675a18.642 18.642 0 0 1-6.045-2.512c-.037-1.46-.527-2.922-1.64-4.036-1.114-1.113-2.575-1.603-4.036-1.64a18.642 18.642 0 0 1-2.512-6.046c1.006-1.06 1.675-2.461 1.675-4.035 0-1.574-.67-2.976-1.675-4.036a18.642 18.642 0 0 1 2.512-6.045c1.46-.037 2.922-.527 4.035-1.64 1.114-1.114 1.604-2.576 1.641-4.036a18.642 18.642 0 0 1 6.045-2.512zM34.4 256.11a4.823 4.823 0 1 0 0 9.645 4.823 4.823 0 0 0 0-9.645zm0 .536a4.287 4.287 0 1 1 0 8.574 4.287 4.287 0 0 1 0-8.574z" opacity=".4"/>
    </g>
    <path d="M30.447 242.045c-2.4.5-4.632 1.462-6.614 2.763a5.328 5.328 0 0 1-1.557 4.002 5.328 5.328 0 0 1-4.003 1.558 19.188 19.188 0 0 0-2.763 6.614 5.339 5.339 0 0 1 1.742 3.952c0 1.565-.67 2.972-1.742 3.952.5 2.4 1.462 4.632 2.763 6.614a5.328 5.328 0 0 1 4.003 1.557 5.328 5.328 0 0 1 1.557 4.002 19.188 19.188 0 0 0 6.614 2.763 5.339 5.339 0 0 1 3.952-1.741c1.566 0 2.972.67 3.952 1.741a19.192 19.192 0 0 0 6.598-2.746c-.004-.077 0-.157 0-.234 0-1.372.527-2.738 1.574-3.785a5.328 5.328 0 0 1 4.002-1.557 19.188 19.188 0 0 0 2.763-6.614 5.339 5.339 0 0 1-1.742-3.952c0-1.566.67-2.972 1.742-3.952-.5-2.4-1.462-4.632-2.763-6.614a5.328 5.328 0 0 1-4.002-1.558 5.336 5.336 0 0 1-1.574-3.784c0-.078-.004-.157 0-.235a19.192 19.192 0 0 0-6.598-2.746 5.339 5.339 0 0 1-3.952 1.742 5.339 5.339 0 0 1-3.952-1.742zm3.952 14.602a4.287 4.287 0 1 1 0 8.574 4.287 4.287 0 0 1 0-8.574z" fill="url(#g)" transform="matrix(.98107 0 0 .98107 -.726 -221.73)"/>
    <path d="M30.447 242.045c-2.4.5-4.632 1.462-6.614 2.763a5.328 5.328 0 0 1-1.557 4.002 5.328 5.328 0 0 1-4.003 1.558 19.188 19.188 0 0 0-2.763 6.614 5.339 5.339 0 0 1 1.742 3.952c0 1.565-.67 2.972-1.742 3.952.5 2.4 1.462 4.632 2.763 6.614a5.328 5.328 0 0 1 4.003 1.557 5.328 5.328 0 0 1 1.557 4.002 19.188 19.188 0 0 0 6.614 2.763 5.339 5.339 0 0 1 3.952-1.741c1.566 0 2.972.67 3.952 1.741a19.192 19.192 0 0 0 6.598-2.746c-.004-.077 0-.157 0-.234 0-1.372.527-2.738 1.574-3.785a5.328 5.328 0 0 1 4.002-1.557 19.188 19.188 0 0 0 2.763-6.614 5.339 5.339 0 0 1-1.742-3.952c0-1.566.67-2.972 1.742-3.952-.5-2.4-1.462-4.632-2.763-6.614a5.328 5.328 0 0 1-4.002-1.558 5.336 5.336 0 0 1-1.574-3.784c0-.078-.004-.157 0-.235a19.192 19.192 0 0 0-6.598-2.746 5.339 5.339 0 0 1-3.952 1.742 5.339 5.339 0 0 1-3.952-1.742zm3.952 14.602a4.287 4.287 0 1 1 0 8.574 4.287 4.287 0 0 1 0-8.574z" fill="url(#h)" transform="matrix(.98107 0 0 .98107 -.726 -221.73)"/>
    <path d="M38.38 22.24a2.503 2.503 0 0 0-2.496 2.508 2.503 2.503 0 0 0 2.497 2.508 2.503 2.503 0 0 0 2.497-2.508 2.503 2.503 0 0 0-2.497-2.509zm-5.273 1.964c-1.54 0-3.102.39-4.506 1.088a.187.187 0 0 0-.096.122.195.195 0 0 0 .017.158l2.026 3.22a.2.2 0 0 0 .245.078 5.885 5.885 0 0 1 2.314-.473c2.891 0 5.414 2.152 5.868 5.008a.195.195 0 0 0 .192.167h3.807a.194.194 0 0 0 .2-.21 10.189 10.189 0 0 0-2.531-5.764.195.195 0 0 0-.254-.026 3.465 3.465 0 0 1-1.886.57 3.492 3.492 0 0 1-3.484-3.49v-.07a.207.207 0 0 0-.166-.203 10.272 10.272 0 0 0-1.746-.175zm-6.113 2.105a.202.202 0 0 0-.079.035 10.197 10.197 0 0 0-3.493 5.061.192.192 0 0 0 .062.21 3.512 3.512 0 0 1 1.327 2.72 3.512 3.512 0 0 1-1.327 2.72.193.193 0 0 0-.062.21 10.222 10.222 0 0 0 3.458 5.034.185.185 0 0 0 .149.044.207.207 0 0 0 .13-.096l2.044-3.21a.198.198 0 0 0-.035-.255 5.948 5.948 0 0 1-2.017-4.447c0-1.706.741-3.333 2.035-4.465a.2.2 0 0 0 .043-.254l-2.025-3.22a.193.193 0 0 0-.131-.087.212.212 0 0 0-.079 0zm-5.632 5.508a2.566 2.566 0 0 0-2.559 2.57 2.558 2.558 0 1 0 5.117 0 2.566 2.566 0 0 0-2.558-2.57zm21.612 3.316l-3.807.008a.206.206 0 0 0-.201.167c-.46 2.834-2.976 4.973-5.86 4.973a5.89 5.89 0 0 1-2.34-.491.195.195 0 0 0-.244.07l-2.044 3.219a.195.195 0 0 0-.017.158.187.187 0 0 0 .096.123 10.191 10.191 0 0 0 4.55 1.087c.577 0 1.18-.058 1.79-.166a.189.189 0 0 0 .157-.167 3.477 3.477 0 0 1 3.45-3.088c.546 0 1.109.14 1.615.404.077.04.166.027.227-.035a10.154 10.154 0 0 0 2.829-6.053.193.193 0 0 0-.052-.149.198.198 0 0 0-.149-.061zm-4.497 6.78a2.556 2.556 0 0 0-2.559 2.553 2.556 2.556 0 0 0 2.559 2.552 2.556 2.556 0 0 0 2.559-2.552 2.556 2.556 0 0 0-2.559-2.553z" fill="#282828"/>
    <path d="M29.145 15.732a18.825 18.825 0 0 0-6.489 2.711 5.227 5.227 0 0 1-1.528 3.926 5.227 5.227 0 0 1-3.926 1.528 18.825 18.825 0 0 0-2.71 6.49 5.237 5.237 0 0 1 1.708 3.876 5.237 5.237 0 0 1-1.709 3.877 18.825 18.825 0 0 0 2.711 6.49 5.227 5.227 0 0 1 3.926 1.527 5.227 5.227 0 0 1 1.528 3.927 18.825 18.825 0 0 0 6.49 2.71 5.237 5.237 0 0 1 3.876-1.708c1.536 0 2.916.658 3.877 1.708a18.829 18.829 0 0 0 6.473-2.694c-.003-.076 0-.154 0-.23 0-1.345.518-2.686 1.544-3.713a5.227 5.227 0 0 1 3.927-1.527 18.825 18.825 0 0 0 2.71-6.49 5.237 5.237 0 0 1-1.708-3.877c0-1.536.658-2.915 1.708-3.877a18.825 18.825 0 0 0-2.71-6.489 5.227 5.227 0 0 1-3.927-1.528 5.235 5.235 0 0 1-1.544-3.712c0-.076-.003-.155 0-.23a18.829 18.829 0 0 0-6.473-2.695 5.237 5.237 0 0 1-3.877 1.709 5.237 5.237 0 0 1-3.877-1.709zm-.082.608c1.04.987 2.415 1.643 3.96 1.643 1.544 0 2.918-.656 3.959-1.643a18.275 18.275 0 0 1 5.864 2.432c.03 1.446.576 2.891 1.676 3.992 1.093 1.092 2.526 1.573 3.96 1.61a18.29 18.29 0 0 1 2.463 5.93c-.986 1.04-1.642 2.415-1.642 3.96 0 1.544.656 2.919 1.642 3.959a18.29 18.29 0 0 1-2.464 5.93c-1.433.037-2.866.518-3.959 1.61-1.1 1.1-1.646 2.546-1.676 3.992a18.275 18.275 0 0 1-5.864 2.432c-1.04-.987-2.415-1.643-3.96-1.643-1.544 0-2.919.656-3.959 1.643a18.29 18.29 0 0 1-5.93-2.465c-.037-1.433-.518-2.866-1.61-3.959-1.093-1.092-2.526-1.573-3.96-1.61a18.29 18.29 0 0 1-2.464-5.93c.987-1.04 1.643-2.415 1.643-3.96 0-1.544-.656-2.919-1.643-3.959a18.29 18.29 0 0 1 2.464-5.93c1.434-.037 2.867-.518 3.96-1.61 1.092-1.093 1.573-2.526 1.61-3.96a18.289 18.289 0 0 1 5.93-2.464zm3.96 13.192a4.731 4.731 0 1 0 0 9.463 4.731 4.731 0 0 0 0-9.463zm0 .526a4.206 4.206 0 1 1 0 8.411 4.206 4.206 0 0 1 0-8.411z" opacity=".4" fill="#ebdbb2"/>
</svg>
