<svg width="256" height="256" version="1.1" xmlns="http://www.w3.org/2000/svg">
  <defs>
    <linearGradient id="linearGradient31" x1=".5002" x2=".5002" y2="1" gradientTransform="matrix(244,0,0,228,5.986,12)" gradientUnits="userSpaceOnUse">
      <stop stop-color="#ebdbb2" stop-opacity=".2" offset="0"/>
      <stop stop-color="#ebdbb2" stop-opacity=".05" offset=".1"/>
      <stop stop-opacity="0" offset=".7036"/>
      <stop stop-opacity=".1" offset=".8975"/>
      <stop stop-opacity=".2" offset="1"/>
    </linearGradient>
    <linearGradient id="linearGradient6" x1="140" x2="140" y1="12" y2="240" gradientUnits="userSpaceOnUse">
      <stop stop-color="#83a598" offset="0"/>
      <stop stop-color="#076678" offset="1"/>
    </linearGradient>
  </defs>
  <path d="m165 12c72 0 85 15 85 87v56c0 70-13 85-85 85h-74c-72 0-85-15-85-85v-56c0-72 13-87 85-87z" fill="url(#linearGradient6)" style="isolation:isolate"/>
  <path d="m6 102.57v52.426c0 70 13 85 85 85h18.471a217.36 217.36 0 0 0-103.47-137.43z" fill="#282828" opacity=".15" style="isolation:isolate"/>
  <path d="m249.66 172.3c-58.474 32.984-126.92 55.235-199.52 64.831 10.885 2.0796 24.335 2.8641 40.916 2.8641h74c65.779 0 82.161-12.59 84.607-67.695z" fill="#ebdbb2" opacity=".15" style="isolation:isolate"/>
  <path d="m90.977 12c-45.445 0-67.371 5.9953-77.373 28.508 33.758 24.553 76.585 38.051 120.87 38.094 39.749-0.14404 78.44-11.145 110.41-31.384-8.6119-28.079-30.224-35.217-79.903-35.217z" fill="#ebdbb2" opacity=".15" style="isolation:isolate"/>
  <path d="m91 12c-72 0-85 15-85 87v56c0 70 13 85 85 85h74c72 0 85-15 85-85v-56c0-72-13-87-85-87zm0 4h74c68 0 80 15 80 83v56c0 66-12 81-80 81h-74c-68 0-80-15-80-81v-56c0-68 12-83 80-83z" fill="url(#linearGradient31)" style="isolation:isolate"/>
  <path d="m173.03 55.781-24.019 23.894 29.656 29.51 24.029-23.904zm1.5839 12.64 6.0438 6.0021-4.9601 4.908-6.0229-6.0021zm9.1907 9.1387 6.0543 6.0125-4.9496 4.908-6.0439-6.0021zm-49.309 1.042-78.007 77.548c-4.2379 4.2128-4.2379 11.059 0 15.287l30.761 30.563c4.2531 4.228 11.147 4.2128 15.37 0l78.007-77.538zm12.598 33.335-3.0323 11.275-2.9698-2.949-27.791 27.624 14.734 0.39587c1.0976-0.12004 2.2347-0.56836 3.074-1.3651 4.2895-4.2641 5.8042-5.7625 5.8042-5.7625l-2.4071-2.3967 7.1901-7.1588 7.2005 7.1588-7.2005 7.1588-2.4071-2.4071-5.7312 5.7c-1.6112 1.6016-4.1836 2.3999-6.2939 2.4384-0.0481-2e-3 -15.62-0.42735-15.62-0.42735-1.0959 0.11844-2.2352 0.57237-3.074 1.3651l-9.0345 8.9928c-0.01064 0.0106-0.02135 0.0214-0.03199 0.032l-4.0952 4.064c2.1993 3.2827 1.8491 7.7549-1.0628 10.65-3.3194 3.2997-8.7058 3.2997-12.025 0-3.3184-3.2988-3.3194-8.6525 0-11.952 2.9114-2.8942 7.4121-3.2469 10.712-1.0629l4.1577-4.1369c0.80013-0.83426 1.2655-1.9637 1.3859-3.0531 0 0-0.43482-15.489-0.43749-15.537h0.01072c0.03735-2.098 0.83795-4.6509 2.4488-6.2522l5.9396-5.9084c-0.90794-1.8801-0.5905-4.2018 0.97951-5.7625 1.9864-1.9746 5.2023-1.976 7.1901 0 1.9869 1.9752 1.9862 5.1844 0 7.1588-1.57 1.5607-3.9013 1.8624-5.7937 0.95869-0.72394 0.72239-2.6943 2.6827-6.0125 5.9813-0.80124 0.83427-1.2545 1.9722-1.3755 3.0636l0.40655 14.641 36.784-36.565-2.9698-2.9385z" opacity=".2" stroke-width="5.3352"/>
  <path d="m173.03 50.639-24.019 23.894 29.656 29.51 24.029-23.904zm1.5839 12.64 6.0438 6.0021-4.9601 4.908-6.0229-6.0021zm9.1907 9.1387 6.0543 6.0125-4.9496 4.908-6.0439-6.0021zm-49.309 1.042-78.007 77.548c-4.2379 4.2128-4.2379 11.059 0 15.287l30.761 30.563c4.2531 4.228 11.147 4.2128 15.37 0l78.007-77.538zm12.598 33.335-3.0323 11.275-2.9698-2.9489-27.791 27.624 14.734 0.39587c1.0976-0.12004 2.2347-0.56836 3.074-1.3651 4.2895-4.2641 5.8042-5.7625 5.8042-5.7625l-2.4071-2.3966 7.1901-7.1588 7.2005 7.1588-7.2005 7.1588-2.4071-2.4071-5.7312 5.7c-1.6112 1.6016-4.1836 2.3999-6.2939 2.4384-0.0481-2e-3 -15.62-0.42735-15.62-0.42735-1.0959 0.11844-2.2352 0.57236-3.074 1.3651l-9.0345 8.9928c-0.01064 0.0106-0.02135 0.0214-0.03199 0.032l-4.0952 4.0639c2.1993 3.2828 1.8491 7.7549-1.0628 10.65-3.3194 3.2997-8.7058 3.2997-12.025 0-3.3184-3.2988-3.3194-8.6525 0-11.952 2.9114-2.8942 7.4121-3.2468 10.712-1.0628l4.1577-4.1369c0.80013-0.83422 1.2655-1.9637 1.3859-3.0532 0 0-0.43482-15.489-0.43749-15.537h0.01072c0.03735-2.0979 0.83795-4.6509 2.4488-6.2522l5.9396-5.9083c-0.90794-1.8801-0.5905-4.2017 0.97951-5.7624 1.9864-1.9746 5.2023-1.976 7.1901 0 1.9869 1.9751 1.9862 5.1844 0 7.1588-1.57 1.5607-3.9013 1.8624-5.7937 0.95869-0.72394 0.72239-2.6943 2.6827-6.0125 5.9813-0.80124 0.83427-1.2545 1.9722-1.3755 3.0636l0.40655 14.641 36.784-36.565-2.9698-2.9385z" fill="#ebdbb2" stroke-width="5.3352"/>
</svg>
