<svg width="256" height="256" viewBox="0 0 67.73 67.73" xmlns="http://www.w3.org/2000/svg">
    <defs>
        <linearGradient id="f" x1="205.258" x2="225.288" y1="53.167" y2="101.615" gradientTransform="scale(.65653 1.52315)" gradientUnits="userSpaceOnUse">
            <stop offset="0" stop-color="#282828"/>
            <stop stop-opacity=".061" offset=".335"/>
            <stop offset=".578" stop-color="#b8bb26"/>
            <stop stop-opacity="0" offset=".875" stop-color="#b8bb26"/>
            <stop offset="1"/>
        </linearGradient>
        <linearGradient id="e" x1="76.893" x2="87.042" y1="440.096" y2="435.336" gradientTransform="scale(2.10812 .47436)" gradientUnits="userSpaceOnUse">
            <stop stop-opacity=".118" offset="0"/>
            <stop offset="1" stop-color="#282828"/>
        </linearGradient>
        <linearGradient id="d" x1="296" x2="296" y1="-212" y2="236" gradientUnits="userSpaceOnUse">
            <stop offset="0" stop-color="#ebdbb2"/>
            <stop offset=".125" stop-color="#ebdbb2" stop-opacity=".098"/>
            <stop offset=".925" stop-opacity=".098"/>
            <stop offset="1" stop-opacity=".498"/>
        </linearGradient>
        <clipPath id="c">
            <path d="M361.938-212C507.235-212 528-191.287 528-46.125v116.25C528 215.286 507.235 236 361.937 236H214.063C68.766 236 48 215.286 48 70.125v-116.25C48-191.287 68.765-212 214.063-212z" fill="#b16286"/>
        </clipPath>
        <filter id="b" x="-.01" y="-.01" width="1.023" height="1.025" color-interpolation-filters="sRGB">
            <feGaussianBlur stdDeviation="1.16"/>
        </filter>
        <filter id="a" x="-.02" y="-.03" width="1.046" height="1.05" color-interpolation-filters="sRGB">
            <feGaussianBlur stdDeviation="2.32"/>
        </filter>
    </defs>
    <path transform="matrix(.26458 0 0 .26458 0 3.404)" d="M162.537 5.568c72.648 0 83.031 10.357 83.031 82.938v58.125c0 72.58-10.383 82.937-83.031 82.937H88.599c-72.648 0-83.031-10.357-83.031-82.937V88.506c0-72.581 10.383-82.938 83.031-82.938z" filter="url(#a)" opacity=".2"/>
    <path transform="matrix(.26458 0 0 .26458 0 3.404)" d="M162.537 3.568c72.648 0 83.031 10.357 83.031 82.938v58.125c0 72.58-10.383 82.937-83.031 82.937H88.599c-72.648 0-83.031-10.357-83.031-82.937V86.506c0-72.581 10.383-82.938 83.031-82.938z" filter="url(#b)" opacity=".1"/>
    <path d="M23.442 4.348c-9.611 0-15.102.683-18.192 3.77-3.09 3.087-3.777 8.571-3.777 18.174V41.67c0 9.603.686 15.087 3.777 18.174 3.09 3.087 8.58 3.77 18.192 3.77h19.563c9.61 0 15.101-.683 18.192-3.77 3.09-3.087 3.776-8.571 3.776-18.174V26.292c0-9.603-.686-15.087-3.776-18.174-3.09-3.087-8.581-3.77-18.192-3.77z" fill="#282828"/>
    <path d="M1.473 41.141v.53c0 9.602.686 15.086 3.777 18.173 3.09 3.087 8.58 3.77 18.192 3.77h19.563c9.61 0 15.101-.683 18.192-3.77 3.09-3.087 3.776-8.571 3.776-18.174v-.529c0 9.602-.686 15.087-3.776 18.174-3.09 3.086-8.581 3.77-18.192 3.77H23.442c-9.611 0-15.102-.684-18.192-3.77-3.09-3.087-3.777-8.572-3.777-18.174z" fill="#282828" opacity=".2"/>
    <path transform="matrix(.1323 0 0 .1323 -4.877 32.393)" d="M361.938-212C507.235-212 528-191.287 528-46.125v116.25C528 215.286 507.235 236 361.937 236H214.063C68.766 236 48 215.286 48 70.125v-116.25C48-191.287 68.765-212 214.063-212z" clip-path="url(#c)" fill="none" opacity=".4" stroke-linecap="round" stroke-linejoin="round" stroke-width="8" stroke="url(#d)"/>
    <path d="M1.473 31.864v9.806c0 9.603.686 15.087 3.777 18.174 3.09 3.087 8.58 3.77 18.192 3.77h19.563c9.61 0 15.101-.683 18.192-3.77 3.09-3.087 3.776-8.571 3.776-18.174v-9.806z" fill="#ebdbb2" opacity=".05"/>
    <path d="M48.388 60.314l-1.707-9.328.315 1.985-40.62.414 41.807 7.054z" style="isolation:isolate" fill="#b8bb26"/>
    <path d="M39.772 7.523l6.909 43.463 1.707 9.328 12.15-7.48-6.532-41.09.004-.004-.006-.008-.128-.81zM14.523 34.647l2.435-3.315-8.194-4.348-2.855 1.487zM38.718 42.875l-8.15-4.324-9.363-4.966-3.338 3.458L31.93 47.125z" style="isolation:isolate" fill="#b8bb26"/>
    <path d="M34.974 19.32l-6.408 6.64 2.001 12.59 8.151 4.325z" style="isolation:isolate" fill="#b8bb26"/>
    <path d="M27.203 17.385L16.958 31.332l-2.435 3.315-6.275 8.543 3.176.528 6.442-6.675 3.34-3.458h-.002l7.361-7.627v.002l6.409-6.639z" style="isolation:isolate" fill="#b8bb26"/>
    <path d="M48.388 60.314l-1.707-9.328.315 1.985-40.62.414 41.807 7.054z" style="isolation:isolate" fill="none"/>
    <path d="M189.919 225.641l-6.452-35.254 1.193 7.502-153.527 1.566 158.014 26.661z" fill="url(#e)" transform="matrix(.26458 0 0 .26458 -1.862 .613)" opacity=".25"/>
    <path d="M139.221 70.708L115.001 95.8l7.565 47.588 30.807 16.343z" fill="url(#f)" transform="matrix(.26458 0 0 .26458 -1.862 .613)" opacity=".2"/>
</svg>
