<svg width="256" height="256" version="1.1" xmlns="http://www.w3.org/2000/svg">
  <defs>
    <linearGradient id="linearGradient6" x1="140" x2="140" y1="12" y2="240" gradientUnits="userSpaceOnUse">
      <stop stop-color="#504945" offset="0"/>
      <stop stop-color="#3c3836" offset="1"/>
    </linearGradient>
    <linearGradient id="linearGradient10" x1="128" x2="128" y1="12" y2="240" gradientUnits="userSpaceOnUse">
      <stop stop-color="#ebdbb2" stop-opacity=".2" offset="0"/>
      <stop stop-color="#ebdbb2" stop-opacity="0" offset=".24728"/>
      <stop stop-color="#1d2021" stop-opacity=".05" offset=".50485"/>
      <stop stop-color="#1d2021" stop-opacity=".3961" offset=".75316"/>
      <stop stop-color="#1d2021" stop-opacity=".6039" offset="1"/>
    </linearGradient>
  </defs>
  <path d="m165 12c72 0 85 15 85 87v56c0 70-13 85-85 85h-74c-72 0-85-15-85-85v-56c0-72 13-87 85-87z" fill="url(#linearGradient6)" style="isolation:isolate"/>
  <path d="m98.414 40.687c-57.572 0-67.967 11.994-67.967 69.566v44.779c0 55.973 10.395 67.967 67.967 67.967h59.172c57.572 0 67.967-11.994 67.967-67.967v-44.779c0-57.572-10.395-69.566-67.967-69.566zm79.152 29.156c12.866-0.01257 17.86 12.996 15.559 21.857-0.81255 3.1291-50.892 94.09-53.312 96.836-4.7085 5.3388-15.484 8.472-23.211 0.2793-1.3771-1.4595-9.7736-16.309-27.441-48.521-27.992-51.034-27.508-50.007-26.455-55.967 1.4252-7.4467 7.4302-14.384 16.096-14.24 4.0307 0.0204 8.4337 1.2464 11.6 4.6738 4.4911 4.7677 23.816 45.282 31.223 52.646 10.227 10.169 25.795 9.9866 36.092-0.42187 10.268-10.381 7.8936-24.958 6.3418-28.996-2.6392-5.8388-3.8304-11.957-1.5762-18.186 0.65375-1.5415 4.6953-9.9491 15.082-9.957z" fill="#282828" opacity=".7" stroke-width=".79961" style="isolation:isolate"/>
  <path d="m98.414 34.688c-57.572 0-67.967 11.994-67.967 69.566v44.779c0 55.973 10.395 67.967 67.967 67.967h59.172c57.572 0 67.967-11.994 67.967-67.967v-44.779c0-57.572-10.395-69.566-67.967-69.566zm79.152 29.156c12.866-0.01257 17.86 12.996 15.559 21.857-0.81255 3.1291-50.892 94.09-53.312 96.836-4.7085 5.3388-15.484 8.472-23.211 0.2793-1.3771-1.4595-9.7736-16.309-27.441-48.521-27.992-51.034-27.508-50.007-26.455-55.967 1.4252-7.4467 7.4302-14.384 16.096-14.24 4.0307 0.0204 8.4337 1.2464 11.6 4.6738 4.4911 4.7677 23.816 45.282 31.223 52.646 10.227 10.169 25.795 9.9866 36.092-0.42187 10.268-10.381 7.8936-24.958 6.3418-28.996-2.6392-5.8388-3.8304-11.957-1.5762-18.186 0.65375-1.5415 4.6953-9.9491 15.082-9.957z" fill="#ebdbb2" stroke-width=".79961" style="isolation:isolate"/>
  <path d="m98.414 34.688c-57.572 0-67.967 11.994-67.967 69.566v6c0-57.572 10.395-69.566 67.967-69.566h59.172c57.572 0 67.967 11.994 67.967 69.566v-6c0-57.572-10.395-69.566-67.967-69.566zm63.096 48.949c-0.73065 4.9044 0.45104 9.7169 2.5469 14.354 0.46861 1.2193 1.0119 3.399 1.2598 6.1348 0.49931-5.4536-0.4831-10.114-1.2598-12.135-1.2337-2.7293-2.15-5.5194-2.5469-8.3535zm-98.713 0.24414c-0.03217 0.14853-0.06328 0.29828-0.0918 0.44727-1.053 5.96-1.5369 4.9328 26.455 55.967 17.668 32.212 26.064 47.062 27.441 48.521 7.7271 8.1927 18.502 5.0595 23.211-0.2793 2.421-2.746 52.5-93.707 53.312-96.836 0.59819-2.3035 0.70443-4.8868 0.30664-7.4492-0.0811 0.49322-0.184 0.97696-0.30664 1.4492-0.81255 3.1291-50.892 94.09-53.312 96.836-4.7085 5.3388-15.484 8.472-23.211 0.2793-1.3771-1.4595-9.7736-16.309-27.441-48.521-18.981-34.605-24.868-45.274-26.363-50.414z" fill="#fbf1c7" opacity=".6" stroke-width=".79961" style="isolation:isolate"/>
  <path d="m91 12c-72 0-85 15-85 87v56c0 70 13 85 85 85h74c72 0 85-15 85-85v-56c0-72-13-87-85-87zm0 5h74c35.653 0 55.307 3.9448 65.895 14.965 10.588 11.02 14.105 31.336 14.105 67.035v56c0 34.69-3.4936 54.457-14.07 65.25-10.577 10.793-30.277 14.75-65.93 14.75h-74c-35.653 0-55.353-3.9574-65.93-14.75-10.577-10.793-14.07-30.56-14.07-65.25v-56c0-35.699 3.5176-56.015 14.105-67.035 10.588-11.02 30.242-14.965 65.895-14.965z" fill="url(#linearGradient10)" style="isolation:isolate"/>
</svg>
