<svg width="256" height="256" version="1.1" xmlns="http://www.w3.org/2000/svg">
  <defs>
    <linearGradient id="b-3" x1=".5002" x2=".5002" y2="1" gradientTransform="matrix(244,0,0,228,5.981,12)" gradientUnits="userSpaceOnUse">
      <stop stop-color="#458588" offset="0"/>
      <stop stop-color="#458588" offset="1"/>
    </linearGradient>
    <linearGradient id="linearGradient31-7" x1=".5002" x2=".5002" y2="1" gradientTransform="matrix(244,0,0,228,5.986,12)" gradientUnits="userSpaceOnUse">
      <stop stop-color="#ebdbb2" stop-opacity=".2" offset="0"/>
      <stop stop-color="#ebdbb2" stop-opacity=".05" offset=".1"/>
      <stop stop-opacity="0" offset=".7036"/>
      <stop stop-opacity=".1" offset=".8975"/>
      <stop stop-opacity=".2" offset="1"/>
    </linearGradient>
  </defs>
  <path d="m165 12c72 0 85 15 85 87v56c0 70-13 85-85 85h-74c-72 0-85-15-85-85v-56c0-72 13-87 85-87z" fill="url(#b-3)" style="isolation:isolate"/>
  <g transform="translate(0 .01)" fill="#ebdbb2">
    <path d="m6 124v30.99c0 70.01 13 85.01 85 85.01h74c72 0 85-15 85-85.01v-30.99z" opacity=".1"/>
    <path d="m128 11.99v228h37c72 0 85-15 85-85v-56c0-72-13-87-85-87z" opacity=".2" style="isolation:isolate"/>
  </g>
  <path d="m140.63 207.26c-5.284-2.6949-7.2684-7.6048-5.1328-12.711 2.3056-5.5184 7.1777-7.1248 21.609-7.1248 6.6183 0 12.035-0.89201 12.035-0.89201l-16.627-17.508h-18.8v-21.854h4.3467c5.4692 0 7.0832-1.6215 7.0832-7.1285v-4.3694h22.856v19.031l17.141 17.137v-12.371c0-15.058 1.5421-19.67 7.3893-22.13 3.5643-1.4968 4.5168-1.4968 8.081 0 6.7166 2.8234 7.3893 6.0249 7.3893 35.132 0 38.417 1.6366 36.803-37.393 36.803-22.52 0-26.571-0.27592-29.977-2.0146zm-52.633-60.627v-10.961h22.856v4.3694c0 5.507 1.6102 7.1285 7.087 7.1285h4.3429v21.854l-11.717-0.0491c-19.091-0.0671-22.569-2.3398-22.569-22.342zm-32.902-25.343c-6.3877-2.797-7.0983-6.2932-7.0983-35.072 0-29.074 0.68035-32.313 7.3515-35.117 5.783-2.4341 53.793-2.4341 59.58 0 8.3532 3.5114 8.6064 13.985 0.43845 18.154-3.0238 1.5421-6.7997 2.0108-16.226 2.0108-6.7581 0-12.284 0.8391-12.284 0.8391l16.51 17.564h18.917v21.847h-4.3467c-5.473 0-7.0832 1.6253-7.0832 7.1323v4.3694h-22.856v-19.035l-17.145-17.137v12.375c0 15.028-1.5421 19.67-7.3515 22.111-4.702 1.9806-3.7533 1.9844-8.4061-0.0454zm90.044-2.6382c0-5.5108-1.6139-7.1323-7.087-7.1323h-4.3429v-21.851h18.914l16.514-17.564s-5.5259-0.8391-12.284-0.8391c-9.4304 0-13.203-0.46868-16.226-2.0108-8.168-4.169-7.9147-14.643 0.43845-18.154 5.783-2.4341 53.793-2.4341 59.58 0 6.6712 2.8045 7.3516 6.0475 7.3516 35.117 0 29.111-0.67279 32.309-7.3893 35.132-3.5643 1.5006-4.5168 1.5006-8.081 0-5.8472-2.4568-7.3893-7.0681-7.3893-22.126v-12.375l-17.141 17.137v19.035h-22.856z" fill="#282828" opacity=".3" stroke-width="3.7797"/>
  <path d="m140.63 201.99c-5.284-2.6949-7.2684-7.6048-5.1328-12.711 2.3056-5.5184 7.1777-7.1248 21.609-7.1248 6.6183 0 12.035-0.89201 12.035-0.89201l-16.627-17.508h-18.8v-21.854h4.3467c5.4692 0 7.0832-1.6215 7.0832-7.1285v-4.3694h22.856v19.031l17.141 17.137v-12.371c0-15.058 1.5421-19.67 7.3893-22.13 3.5643-1.4968 4.5168-1.4968 8.081 0 6.7166 2.8234 7.3893 6.0249 7.3893 35.132 0 38.417 1.6366 36.803-37.393 36.803-22.52 0-26.571-0.27592-29.977-2.0146zm-52.633-60.627v-10.961h22.856v4.3694c0 5.507 1.6102 7.1285 7.087 7.1285h4.3429v21.854l-11.717-0.0491c-19.091-0.06706-22.569-2.3398-22.569-22.342zm-32.902-25.343c-6.3877-2.797-7.0983-6.2932-7.0983-35.072 0-29.074 0.68035-32.313 7.3515-35.117 5.783-2.4341 53.793-2.4341 59.58 0 8.3532 3.5114 8.6064 13.985 0.43845 18.154-3.0238 1.5421-6.7997 2.0108-16.226 2.0108-6.7581 0-12.284 0.8391-12.284 0.8391l16.51 17.564h18.917v21.847h-4.3467c-5.473 0-7.0832 1.6253-7.0832 7.1323v4.3694h-22.856v-19.035l-17.145-17.137v12.375c0 15.028-1.5421 19.67-7.3515 22.111-4.702 1.9806-3.7533 1.9844-8.4061-0.0454zm90.044-2.6382c0-5.5108-1.6139-7.1323-7.087-7.1323h-4.3429v-21.851h18.914l16.514-17.564s-5.5259-0.8391-12.284-0.8391c-9.4304 0-13.203-0.46868-16.226-2.0108-8.168-4.169-7.9147-14.643 0.43845-18.154 5.783-2.4341 53.793-2.4341 59.58 0 6.6712 2.8045 7.3516 6.0475 7.3516 35.117 0 29.111-0.67279 32.309-7.3893 35.132-3.5643 1.5006-4.5168 1.5006-8.081 0-5.8472-2.4568-7.3893-7.0681-7.3893-22.126v-12.375l-17.141 17.137v19.035h-22.856z" fill="#fabd2f" stroke-width="3.7797"/>
  <path d="m91 12c-72 0-85 15-85 87v56c0 70 13 85 85 85h74c72 0 85-15 85-85v-56c0-72-13-87-85-87zm0 4h74c68 0 80 15 80 83v56c0 66-12 81-80 81h-74c-68 0-80-15-80-81v-56c0-68 12-83 80-83z" fill="url(#linearGradient31-7)" style="isolation:isolate"/>
  <path d="m85.132 44.002c-13.449 0-26.896 0.6091-29.787 1.8262-6.6712 2.8045-7.3516 6.0437-7.3516 35.117 0 0.95483 0.01 1.6624 0.01172 2.5625 0.05188-26.357 0.9007-29.699 7.3398-32.406 5.783-2.4341 53.793-2.4341 59.58 0 3.2275 1.3567 5.231 3.7556 6.0215 6.4258 1.3035-4.4447-0.72163-9.4714-6.0215-11.699-2.8934-1.2171-16.344-1.8262-29.793-1.8262zm85.717 0c-13.449 0-26.896 0.6091-29.787 1.8262-5.2998 2.2279-7.327 7.2545-6.0234 11.699 0.7905-2.6702 2.796-5.0691 6.0234-6.4258 5.783-2.4341 53.791-2.4341 59.578 0 6.4456 2.7097 7.2895 6.0551 7.3398 32.482 2e-3 -0.92631 0.0117-1.6541 0.0117-2.6387 0-29.07-0.68037-32.313-7.3516-35.117-2.8934-1.2171-16.342-1.8262-29.791-1.8262zm-79.496 27.617c-2.6879 0.23069-4.5 0.48633-4.5 0.48633l16.51 17.564h18.916v-5.2734h-18.916zm73.277 0-12.012 12.777h-18.912v5.2734h18.912l16.514-17.564s-1.813-0.2556-4.502-0.48633zm-76.637 58.779v5.2734h22.855v4.3691c0 5.507 1.6111 7.1289 7.0879 7.1289h4.3418v-5.2734h-4.3418c-5.4768 0-7.0879-1.6219-7.0879-7.1289v-4.3691zm57.146 0v4.3691c0 5.507-1.6147 7.1289-7.084 7.1289h-4.3457v5.2734h4.3457c5.4692 0 7.084-1.6219 7.084-7.1289v-4.3691h22.855v-5.2734zm51.426 0.54493c-1.1292 0-2.2589 0.37271-4.041 1.1211-5.8472 2.4606-7.3887 7.0725-7.3887 22.131v5.2734c0-15.058 1.5415-19.668 7.3887-22.129 3.5643-1.4968 4.5178-1.4968 8.082 0 6.6713 2.8044 7.3775 6.0395 7.3867 34.605-3e-3 -1.635 2e-3 -2.9401 2e-3 -4.748 0-29.108-0.67212-32.309-7.3887-35.133-1.7821-0.74838-2.9118-1.1211-4.041-1.1211zm-28.57 18.486v5.2734l17.141 17.137v-5.2734zm-3.3691 32.354c-2.08 0.19144-4.6358 0.36719-7.5234 0.36719-14.431 0-19.304 1.6066-21.609 7.125-0.95979 2.295-1.0461 4.538-0.41602 6.5703 0.12267-0.4311 0.23402-0.86167 0.41602-1.2969 2.3056-5.5184 7.1784-7.125 21.609-7.125 6.6183 0 12.033-0.89257 12.033-0.89257z" fill="#ebdbb2" opacity=".3" stroke-width="3.7797"/>
</svg>
