<svg width="256" height="256" viewBox="0 0 67.73 67.73" xmlns="http://www.w3.org/2000/svg">
    <defs>
        <linearGradient id="d" x1="296" x2="296" y1="-212" y2="236" gradientUnits="userSpaceOnUse">
            <stop offset="0" stop-color="#ebdbb2"/>
            <stop offset=".125" stop-color="#ebdbb2" stop-opacity=".098"/>
            <stop offset=".925" stop-opacity=".098"/>
            <stop offset="1" stop-opacity=".498"/>
        </linearGradient>
        <clipPath id="c">
            <path d="M361.938-212C507.235-212 528-191.287 528-46.125v116.25C528 215.286 507.235 236 361.937 236H214.063C68.766 236 48 215.286 48 70.125v-116.25C48-191.287 68.765-212 214.063-212z" fill="#b16286"/>
        </clipPath>
        <filter id="b" x="-.02" y="-.03" width="1.046" height="1.05" color-interpolation-filters="sRGB">
            <feGaussianBlur stdDeviation="2.32"/>
        </filter>
        <filter id="a" x="-.01" y="-.01" width="1.023" height="1.025" color-interpolation-filters="sRGB">
            <feGaussianBlur stdDeviation="1.16"/>
        </filter>
        <filter id="e" x="-.05" y="-.05" width="1.096" height="1.096" color-interpolation-filters="sRGB">
            <feGaussianBlur stdDeviation=".847"/>
        </filter>
    </defs>
    <path transform="matrix(.2697 0 0 .2697 -7.129 -8.706)" d="M188.969 44C261.617 44 272 54.357 272 126.938v58.124C272 257.644 261.617 268 188.969 268H115.03C42.383 268 32 257.643 32 185.062v-58.125C32 54.358 42.383 44 115.031 44z" filter="url(#a)" opacity=".1"/>
    <path transform="matrix(.2697 0 0 .2697 -7.129 -8.706)" d="M188.969 46C261.617 46 272 56.357 272 128.938v58.125c0 72.58-10.383 82.937-83.031 82.937H115.03C42.383 270 32 259.643 32 187.062v-58.125C32 56.358 42.383 46 115.031 46z" filter="url(#b)" opacity=".2"/>
    <path d="M43.837 3.161c19.594 0 22.395 2.793 22.395 22.369v15.677c0 19.575-2.8 22.369-22.395 22.369H23.896c-19.594 0-22.394-2.794-22.394-22.37V25.53c0-19.576 2.8-22.369 22.394-22.369z" fill="#458588"/>
    <path transform="matrix(.13485 0 0 .13485 -4.971 31.75)" d="M361.938-212C507.235-212 528-191.287 528-46.125v116.25C528 215.286 507.235 236 361.937 236H214.063C68.766 236 48 215.286 48 70.125v-116.25C48-191.287 68.765-212 214.063-212z" clip-path="url(#c)" fill="none" opacity=".6" stroke-linecap="round" stroke-linejoin="round" stroke-width="8" stroke="url(#d)"/>
    <path d="M33.867 3.088v60.415h9.97c19.594 0 22.395-2.794 22.395-22.37V25.458c0-19.576-2.8-22.369-22.395-22.369z" fill="#ebdbb2" opacity=".1"/>
    <path d="M23.896 63.503c-19.594 0-22.394-2.643-22.394-21.167v-7.418h64.73v7.418c0 18.524-2.8 21.167-22.395 21.167z" fill="#ebdbb2" opacity=".1"/>
    <path d="M35.307 278.411c-1.398-.713-1.923-2.012-1.358-3.363.61-1.46 1.899-1.885 5.717-1.885 1.752 0 3.185-.106 3.185-.236s-.99-1.225-2.2-2.434l-2.199-2.198h-4.975v-5.781h1.15c1.447 0 1.874-.43 1.874-1.887v-1.156h6.047v5.036l2.268 2.266 2.268 2.267v-3.273c0-3.984.407-5.204 1.954-5.855.943-.396 1.195-.396 2.138 0 1.777.747 1.955 1.594 1.955 9.296 0 10.163.433 9.736-9.893 9.736-5.958 0-7.03-.072-7.931-.533zM23.26 267.836c-1.422-.621-1.878-1.95-1.878-5.465v-2.9h6.047v1.156c0 1.457.427 1.887 1.875 1.887h1.149v5.78l-3.1-.012c-1.995-.007-3.453-.166-4.093-.446zm-10.582-12.17c-1.692-.74-1.879-1.665-1.879-9.279 0-7.692.18-8.549 1.945-9.29 1.53-.645 14.232-.645 15.763-.001 2.21.929 2.277 3.7.116 4.803-.8.408-1.799.532-4.293.532-1.788 0-3.25.1-3.25.222s.983 1.217 2.184 2.434l2.185 2.213h5.004v5.781h-1.15c-1.447 0-1.874.43-1.874 1.887v1.156h-6.047v-5.036l-2.268-2.267-2.268-2.266v3.273c0 3.976-.408 5.204-1.944 5.85-1.245.524-.994.525-2.224-.012zm23.822-.698c0-1.458-.427-1.887-1.875-1.887h-1.149v-5.78h5.004l2.185-2.214c1.202-1.217 2.185-2.313 2.185-2.434 0-.122-1.463-.221-3.25-.222-2.495 0-3.494-.124-4.294-.532-2.161-1.102-2.094-3.874.116-4.803 1.53-.644 14.232-.644 15.763 0 1.766.742 1.945 1.6 1.945 9.291 0 7.702-.178 8.549-1.955 9.296-.943.396-1.195.396-2.138 0-1.547-.65-1.954-1.87-1.954-5.855v-3.273l-2.268 2.267-2.268 2.266v5.036h-6.047z" filter="url(#e)" opacity=".3" transform="translate(1.9 -222.78)"/>
    <path d="M37.207 55.631c-1.398-.713-1.923-2.012-1.358-3.363.61-1.46 1.899-1.885 5.717-1.885 1.751 0 3.184-.106 3.184-.236s-.99-1.225-2.199-2.434l-2.2-2.198h-4.974v-5.782h1.15c1.447 0 1.874-.429 1.874-1.886v-1.156h6.047v5.035l2.268 2.267 2.267 2.267v-3.273c0-3.984.408-5.204 1.955-5.855.943-.396 1.195-.396 2.138 0 1.777.747 1.955 1.594 1.955 9.295 0 10.164.433 9.737-9.893 9.737-5.958 0-7.03-.073-7.931-.533zM25.16 45.056c-1.422-.622-1.878-1.95-1.878-5.465v-2.9h6.047v1.156c0 1.457.426 1.886 1.875 1.886h1.149v5.782l-3.1-.013c-1.996-.007-3.453-.166-4.093-.446zm-10.583-12.17c-1.69-.74-1.878-1.665-1.878-9.279 0-7.692.18-8.549 1.945-9.291 1.53-.644 14.232-.644 15.763 0 2.21.929 2.277 3.7.116 4.803-.8.408-1.799.532-4.293.532-1.788 0-3.25.1-3.25.222s.982 1.217 2.184 2.434l2.184 2.213h5.005V30.3h-1.15c-1.448 0-1.874.43-1.874 1.887v1.156h-6.047v-5.036l-2.268-2.267-2.268-2.267v3.274c0 3.976-.408 5.204-1.945 5.85-1.244.524-.993.525-2.224-.012zm23.823-.698c0-1.458-.427-1.887-1.875-1.887h-1.149V24.52h5.004l2.185-2.213c1.201-1.217 2.184-2.313 2.184-2.434 0-.122-1.462-.222-3.25-.222-2.495 0-3.493-.124-4.293-.532-2.161-1.103-2.094-3.874.116-4.803 1.53-.644 14.232-.644 15.763 0 1.765.742 1.945 1.6 1.945 9.291 0 7.702-.178 8.548-1.955 9.295-.943.397-1.195.397-2.138 0-1.547-.65-1.955-1.87-1.955-5.854v-3.274l-2.267 2.267-2.268 2.267v5.036h-6.047z" fill="#fabd2f"/>
</svg>
