<svg width="256" height="256" version="1.1" xmlns="http://www.w3.org/2000/svg" xmlns:xlink="http://www.w3.org/1999/xlink">
  <defs>
    <linearGradient id="linearGradient31" x1=".5002" x2=".5002" y2="1" gradientTransform="matrix(244,0,0,228,5.986,12)" gradientUnits="userSpaceOnUse">
      <stop stop-color="#ebdbb2" stop-opacity=".2" offset="0"/>
      <stop stop-color="#ebdbb2" stop-opacity=".05" offset=".1"/>
      <stop stop-opacity="0" offset=".7036"/>
      <stop stop-opacity=".1" offset=".8975"/>
      <stop stop-opacity=".2" offset="1"/>
    </linearGradient>
    <linearGradient id="linearGradient8" x1="140" x2="140" y1="12" y2="240" gradientTransform="matrix(.85889 0 0 .85889 18.062 17.78)" gradientUnits="userSpaceOnUse">
      <stop stop-color="#504945" offset="0"/>
      <stop stop-color="#3c3836" offset="1"/>
    </linearGradient>
    <linearGradient id="linearGradient9" x1="140" x2="140" y1="12" y2="240" gradientUnits="userSpaceOnUse">
      <stop stop-color="#b16286" offset="0"/>
      <stop stop-color="#b16286" offset="1"/>
    </linearGradient>
    <linearGradient id="f" x1="12" x2="52" y1="109" y2="109" gradientTransform="matrix(1.4809 0 0 1.4809 28.535 31.729)" gradientUnits="userSpaceOnUse">
      <stop stop-color="#665c54" offset="0"/>
      <stop stop-color="#ebdbb2" offset=".1"/>
      <stop stop-color="#a89984" offset=".2"/>
      <stop stop-color="#a89984" offset=".8"/>
      <stop stop-color="#ebdbb2" offset=".9"/>
      <stop stop-color="#665c54" offset="1"/>
    </linearGradient>
    <radialGradient id="l" cx="32" cy="277" r="20" gradientTransform="matrix(1.4809 0 0 .51831 28.535 43.65)" gradientUnits="userSpaceOnUse">
      <stop stop-color="#a89984" offset="0"/>
      <stop stop-color="#ebdbb2" offset="1"/>
    </radialGradient>
    <linearGradient id="m" x1="29" x2="35" y1="92" y2="92" gradientTransform="matrix(1.4809 0 0 1.4809 28.535 31.729)" gradientUnits="userSpaceOnUse">
      <stop stop-color="#d5c4a1" offset="0"/>
      <stop stop-color="#ebdbb2" offset=".5"/>
      <stop stop-color="#d5c4a1" offset="1"/>
    </linearGradient>
    <radialGradient id="n" cx="40" cy="54" r="28" gradientTransform="matrix(0 1.6924 -1.4809 0 155.89 38.076)" gradientUnits="userSpaceOnUse">
      <stop stop-color="#d5c4a1" offset="0"/>
      <stop stop-color="#ebdbb2" offset=".5"/>
      <stop stop-color="#d5c4a1" offset="1"/>
    </radialGradient>
    <radialGradient id="r" cx="40" cy="54" r="20" gradientTransform="matrix(1.4809 0 0 1.0366 16.688 32.025)" gradientUnits="userSpaceOnUse">
      <stop stop-color="#bdae93" offset="0"/>
      <stop stop-color="#665c54" offset="1"/>
    </radialGradient>
    <linearGradient id="linearGradient12" x1="56" x2="56" y1="96" y2="36" gradientTransform="matrix(2.1083 0 0 2.1083 -6.9283 -15.526)" gradientUnits="userSpaceOnUse">
      <stop stop-color="#ebdbb2" offset="0"/>
      <stop stop-color="#ebdbb2" stop-opacity="0" offset="1"/>
    </linearGradient>
    <linearGradient id="linearGradient14" x1="56" x2="56" y1="96" y2="36" gradientTransform="matrix(2.1083 0 0 2.1083 -6.9291 -15.526)" gradientUnits="userSpaceOnUse">
      <stop stop-color="#fbf1c7" offset="0"/>
      <stop stop-color="#fbf1c7" stop-opacity="0" offset="1"/>
    </linearGradient>
  </defs>
  <path d="m165 12c72 0 85 15 85 87v56c0 70-13 85-85 85h-74c-72 0-85-15-85-85v-56c0-72 13-87 85-87z" fill="url(#linearGradient9)" style="isolation:isolate"/>
  <path d="m227.65 46.117c2.4465 0 4.4261 1.9797 4.4261 4.4261v159.34c0 2.4465-1.9796 4.4261-4.4261 4.4261s-4.4261-1.9796-4.4261-4.4261v-159.34c0-2.4465 1.9796-4.4261 4.4261-4.4261z" fill="#ebdbb2" opacity=".15" stroke-width="2.2131"/>
  <path d="m227.65 41.69c2.4465 0 4.4261 1.9797 4.4261 4.4261v159.34c0 2.4465-1.9796 4.4261-4.4261 4.4261s-4.4261-1.9796-4.4261-4.4261v-159.34c0-2.4465 1.9796-4.4261 4.4261-4.4261z" fill="#8f3f71" stroke-width="2.2131"/>
  <path d="m227.64 41.69c-2.4551 0-4.4254 1.9703-4.4254 4.4254v4.4273c0-2.4551 1.9703-4.4273 4.4254-4.4273 2.4551 0 4.4273 1.9722 4.4273 4.4273v-4.4273c0-2.4551-1.9722-4.4254-4.4273-4.4254zm-4.4459 88.521v2.2146h8.8918v-2.2146z" fill="#282828" opacity=".3" stroke-width="2.2131"/>
  <path d="m221.01 119.15h13.278c1.2189 0 2.2131 0.99415 2.2131 2.2131v6.6392c0 1.2189-0.99415 2.2131-2.2131 2.2131h-13.278c-1.2189 0-2.2131-0.99415-2.2131-2.2131v-6.6392c0-1.2189 0.99415-2.2131 2.2131-2.2131z" fill="#282828" stroke-width="2.2131"/>
  <path d="m221.01 103.66h13.278c1.2189 0 2.2131 0.99415 2.2131 2.2131v19.918c0 1.2189-0.99415 2.2131-2.2131 2.2131h-13.278c-1.2189 0-2.2131-0.99415-2.2131-2.2131v-19.918c0-1.2189 0.99415-2.2131 2.2131-2.2131z" fill="#3c3836" stroke-width="2.2131"/>
  <path d="m223.22 114.72h8.8523c1.2189 0 2.2131 0.99416 2.2131 2.2131s-0.99415 2.2131-2.2131 2.2131h-8.8523c-1.2189 0-2.2131-0.99415-2.2131-2.2131s0.99415-2.2131 2.2131-2.2131z" fill="#928374" stroke-width="2.2131"/>
  <path d="m223.22 119.15h8.8523c1.2189 0 2.2131 0.99415 2.2131 2.2131 0 1.2189-0.99415 2.2131-2.2131 2.2131h-8.8523c-1.2189 0-2.2131-0.99415-2.2131-2.2131 0-1.2189 0.99415-2.2131 2.2131-2.2131z" fill="#282828" stroke-width="2.2131"/>
  <path d="m137.86 28.087c61.84-1e-6 73.006 12.883 73.006 74.723v48.098c0 60.122-11.166 73.006-73.006 73.006h-41.637c-61.84 0-73.006-12.883-73.006-73.006v-48.098c0-61.84 11.166-74.723 73.006-74.723z" fill="url(#linearGradient8)" stroke-width=".85889" style="isolation:isolate"/>
  <path d="m123.78 79.237c-2.3388 0-4.2165 1.8777-4.2165 4.2165 0 2.3388 1.8777 4.2165 4.2165 4.2165h8.433c2.3389 0 4.2165-1.8777 4.2165-4.2165 0-2.3388-1.8776-4.2165-4.2165-4.2165zm-50.598 16.866c-2.3388 0-4.2165 1.8776-4.2165 4.2165 0 2.3388 1.8777 4.2165 4.2165 4.2165h8.433c2.3388 0 4.2165-1.8777 4.2165-4.2165 0-2.3388-1.8777-4.2165-4.2165-4.2165zm50.598 0c-2.3388 0-4.2165 1.8776-4.2165 4.2165 0 2.3388 1.8777 4.2165 4.2165 4.2165h8.433c2.3389 0 4.2165-1.8777 4.2165-4.2165 0-2.3388-1.8776-4.2165-4.2165-4.2165zm-50.598 16.866c-2.3388 0-4.2165 1.8776-4.2165 4.2165 0 2.3388 1.8777 4.2165 4.2165 4.2165h8.433c2.3388 0 4.2165-1.8777 4.2165-4.2165 0-2.3389-1.8777-4.2165-4.2165-4.2165zm25.299 0c-2.3388 0-4.2165 1.8776-4.2165 4.2165 0 2.3388 1.8777 4.2165 4.2165 4.2165h8.433c2.3389 0 4.2165-1.8777 4.2165-4.2165 0-2.3389-1.8776-4.2165-4.2165-4.2165zm25.299 0c-2.3388 0-4.2165 1.8776-4.2165 4.2165 0 2.3388 1.8777 4.2165 4.2165 4.2165h8.433c2.3389 0 4.2165-1.8777 4.2165-4.2165 0-2.3389-1.8776-4.2165-4.2165-4.2165zm-75.897 16.866c-2.3388 0-4.2165 1.8776-4.2165 4.2165 0 2.3388 1.8777 4.2165 4.2165 4.2165h8.433c2.3388 0 4.2165-1.8777 4.2165-4.2165 0-2.3389-1.8777-4.2165-4.2165-4.2165zm25.299 0c-2.3388 0-4.2165 1.8776-4.2165 4.2165 0 2.3388 1.8777 4.2165 4.2165 4.2165h8.433c2.3388 0 4.2165-1.8777 4.2165-4.2165 0-2.3389-1.8777-4.2165-4.2165-4.2165zm25.299 0c-2.3388 0-4.2165 1.8776-4.2165 4.2165 0 2.3388 1.8777 4.2165 4.2165 4.2165h8.433c2.3389 0 4.2165-1.8777 4.2165-4.2165 0-2.3389-1.8776-4.2165-4.2165-4.2165zm25.299 0c-2.3388 0-4.2165 1.8776-4.2165 4.2165 0 2.3388 1.8777 4.2165 4.2165 4.2165h8.433c2.3389 0 4.2165-1.8777 4.2165-4.2165 0-2.3389-1.8776-4.2165-4.2165-4.2165zm50.598 0c-2.3389 0-4.2165 1.8776-4.2165 4.2165 0 2.3388 1.8776 4.2165 4.2165 4.2165h8.433c2.3388 0 4.2165-1.8777 4.2165-4.2165 0-2.3389-1.8777-4.2165-4.2165-4.2165zm-126.5 16.866c-2.3388 0-4.2165 1.8777-4.2165 4.2165 0 2.3388 1.8777 4.2165 4.2165 4.2165h8.433c2.3388 0 4.2165-1.8777 4.2165-4.2165 0-2.3388-1.8777-4.2165-4.2165-4.2165zm25.299 0c-2.3388 0-4.2165 1.8777-4.2165 4.2165 0 2.3388 1.8777 4.2165 4.2165 4.2165h8.433c2.3388 0 4.2165-1.8777 4.2165-4.2165 0-2.3388-1.8777-4.2165-4.2165-4.2165zm25.299 0c-2.3388 0-4.2165 1.8777-4.2165 4.2165 0 2.3388 1.8777 4.2165 4.2165 4.2165h8.433c2.3389 0 4.2165-1.8777 4.2165-4.2165 0-2.3388-1.8776-4.2165-4.2165-4.2165zm25.299 0c-2.3388 0-4.2165 1.8777-4.2165 4.2165 0 2.3388 1.8777 4.2165 4.2165 4.2165h8.433c2.3389 0 4.2165-1.8777 4.2165-4.2165 0-2.3388-1.8776-4.2165-4.2165-4.2165zm50.598 0c-2.3389 0-4.2165 1.8777-4.2165 4.2165 0 2.3388 1.8776 4.2165 4.2165 4.2165h8.433c2.3388 0 4.2165-1.8777 4.2165-4.2165 0-2.3388-1.8777-4.2165-4.2165-4.2165zm-126.5 16.866c-2.3388 0-4.2165 1.8777-4.2165 4.2165 0 2.3388 1.8777 4.2165 4.2165 4.2165h8.433c2.3388 0 4.2165-1.8777 4.2165-4.2165 0-2.3388-1.8777-4.2165-4.2165-4.2165zm25.299 0c-2.3388 0-4.2165 1.8777-4.2165 4.2165 0 2.3388 1.8777 4.2165 4.2165 4.2165h8.433c2.3388 0 4.2165-1.8777 4.2165-4.2165 0-2.3388-1.8777-4.2165-4.2165-4.2165zm25.299 0c-2.3388 0-4.2165 1.8777-4.2165 4.2165 0 2.3388 1.8777 4.2165 4.2165 4.2165h8.433c2.3389 0 4.2165-1.8777 4.2165-4.2165 0-2.3388-1.8776-4.2165-4.2165-4.2165zm25.299 0c-2.3388 0-4.2165 1.8777-4.2165 4.2165 0 2.3388 1.8777 4.2165 4.2165 4.2165h8.433c2.3389 0 4.2165-1.8777 4.2165-4.2165 0-2.3388-1.8776-4.2165-4.2165-4.2165zm25.299 0c-2.3388 0-4.2165 1.8777-4.2165 4.2165 0 2.3388 1.8777 4.2165 4.2165 4.2165h8.433c2.3388 0 4.2165-1.8777 4.2165-4.2165 0-2.3388-1.8777-4.2165-4.2165-4.2165zm25.299 0c-2.3389 0-4.2165 1.8777-4.2165 4.2165 0 2.3388 1.8776 4.2165 4.2165 4.2165h8.433c2.3388 0 4.2165-1.8777 4.2165-4.2165 0-2.3388-1.8777-4.2165-4.2165-4.2165zm-126.5 16.866c-2.3388 0-4.2165 1.8777-4.2165 4.2165 0 2.3388 1.8777 4.2165 4.2165 4.2165h8.433c2.3388 0 4.2165-1.8777 4.2165-4.2165 0-2.3388-1.8777-4.2165-4.2165-4.2165zm25.299 0c-2.3388 0-4.2165 1.8777-4.2165 4.2165 0 2.3388 1.8777 4.2165 4.2165 4.2165h8.433c2.3388 0 4.2165-1.8777 4.2165-4.2165 0-2.3388-1.8777-4.2165-4.2165-4.2165zm25.299 0c-2.3388 0-4.2165 1.8777-4.2165 4.2165 0 2.3388 1.8777 4.2165 4.2165 4.2165h8.433c2.3389 0 4.2165-1.8777 4.2165-4.2165 0-2.3388-1.8776-4.2165-4.2165-4.2165zm25.299 0c-2.3388 0-4.2165 1.8777-4.2165 4.2165 0 2.3388 1.8777 4.2165 4.2165 4.2165h8.433c2.3389 0 4.2165-1.8777 4.2165-4.2165 0-2.3388-1.8776-4.2165-4.2165-4.2165zm25.299 0c-2.3388 0-4.2165 1.8777-4.2165 4.2165 0 2.3388 1.8777 4.2165 4.2165 4.2165h8.433c2.3388 0 4.2165-1.8777 4.2165-4.2165 0-2.3388-1.8777-4.2165-4.2165-4.2165zm25.299 0c-2.3389 0-4.2165 1.8777-4.2165 4.2165 0 2.3388 1.8776 4.2165 4.2165 4.2165h8.433c2.3388 0 4.2165-1.8777 4.2165-4.2165 0-2.3388-1.8777-4.2165-4.2165-4.2165z" fill="#282828" stroke-width="2.1082"/>
  <path d="m123.78 77.237c-2.3388 0-4.2165 1.8777-4.2165 4.2165 0 2.3389 1.8777 4.2165 4.2165 4.2165h8.433c2.3389 0 4.2165-1.8777 4.2165-4.2165 0-2.3388-1.8776-4.2165-4.2165-4.2165zm-50.598 16.866c-2.3388 0-4.2165 1.8777-4.2165 4.2165 0 2.3388 1.8777 4.2165 4.2165 4.2165h8.433c2.3388 0 4.2165-1.8777 4.2165-4.2165 0-2.3389-1.8777-4.2165-4.2165-4.2165zm50.598 0c-2.3388 0-4.2165 1.8777-4.2165 4.2165 0 2.3388 1.8777 4.2165 4.2165 4.2165h8.433c2.3389 0 4.2165-1.8777 4.2165-4.2165 0-2.3389-1.8776-4.2165-4.2165-4.2165zm-50.598 16.866c-2.3388 0-4.2165 1.8776-4.2165 4.2165 0 2.3388 1.8777 4.2165 4.2165 4.2165h8.433c2.3388 0 4.2165-1.8777 4.2165-4.2165 0-2.3389-1.8777-4.2165-4.2165-4.2165zm25.299 0c-2.3388 0-4.2165 1.8776-4.2165 4.2165 0 2.3388 1.8777 4.2165 4.2165 4.2165h8.433c2.3389 0 4.2165-1.8777 4.2165-4.2165 0-2.3389-1.8776-4.2165-4.2165-4.2165zm25.299 0c-2.3388 0-4.2165 1.8776-4.2165 4.2165 0 2.3388 1.8777 4.2165 4.2165 4.2165h8.433c2.3389 0 4.2165-1.8777 4.2165-4.2165 0-2.3389-1.8776-4.2165-4.2165-4.2165zm-75.897 16.866c-2.3388 0-4.2165 1.8776-4.2165 4.2165 0 2.3388 1.8777 4.2165 4.2165 4.2165h8.433c2.3388 0 4.2165-1.8777 4.2165-4.2165 0-2.3389-1.8777-4.2165-4.2165-4.2165zm25.299 0c-2.3388 0-4.2165 1.8776-4.2165 4.2165 0 2.3388 1.8777 4.2165 4.2165 4.2165h8.433c2.3388 0 4.2165-1.8777 4.2165-4.2165 0-2.3389-1.8777-4.2165-4.2165-4.2165zm25.299 0c-2.3388 0-4.2165 1.8776-4.2165 4.2165 0 2.3388 1.8777 4.2165 4.2165 4.2165h8.433c2.3389 0 4.2165-1.8777 4.2165-4.2165 0-2.3389-1.8776-4.2165-4.2165-4.2165zm25.299 0c-2.3388 0-4.2165 1.8776-4.2165 4.2165 0 2.3388 1.8777 4.2165 4.2165 4.2165h8.433c2.3389 0 4.2165-1.8777 4.2165-4.2165 0-2.3389-1.8776-4.2165-4.2165-4.2165zm50.598 0c-2.3389 0-4.2165 1.8776-4.2165 4.2165 0 2.3388 1.8776 4.2165 4.2165 4.2165h8.433c2.3388 0 4.2165-1.8777 4.2165-4.2165 0-2.3389-1.8777-4.2165-4.2165-4.2165zm-126.5 16.866c-2.3388 0-4.2165 1.8777-4.2165 4.2165 0 2.3388 1.8777 4.2165 4.2165 4.2165h8.433c2.3388 0 4.2165-1.8777 4.2165-4.2165 0-2.3388-1.8777-4.2165-4.2165-4.2165zm25.299 0c-2.3388 0-4.2165 1.8777-4.2165 4.2165 0 2.3388 1.8777 4.2165 4.2165 4.2165h8.433c2.3388 0 4.2165-1.8777 4.2165-4.2165 0-2.3388-1.8777-4.2165-4.2165-4.2165zm25.299 0c-2.3388 0-4.2165 1.8777-4.2165 4.2165 0 2.3388 1.8777 4.2165 4.2165 4.2165h8.433c2.3389 0 4.2165-1.8777 4.2165-4.2165 0-2.3388-1.8776-4.2165-4.2165-4.2165zm25.299 0c-2.3388 0-4.2165 1.8777-4.2165 4.2165 0 2.3388 1.8777 4.2165 4.2165 4.2165h8.433c2.3389 0 4.2165-1.8777 4.2165-4.2165 0-2.3388-1.8776-4.2165-4.2165-4.2165zm50.598 0c-2.3389 0-4.2165 1.8777-4.2165 4.2165 0 2.3388 1.8776 4.2165 4.2165 4.2165h8.433c2.3388 0 4.2165-1.8777 4.2165-4.2165 0-2.3388-1.8777-4.2165-4.2165-4.2165zm-126.5 16.866c-2.3388 0-4.2165 1.8777-4.2165 4.2165 0 2.3388 1.8777 4.2165 4.2165 4.2165h8.433c2.3388 0 4.2165-1.8777 4.2165-4.2165 0-2.3388-1.8777-4.2165-4.2165-4.2165zm25.299 0c-2.3388 0-4.2165 1.8777-4.2165 4.2165 0 2.3388 1.8777 4.2165 4.2165 4.2165h8.433c2.3388 0 4.2165-1.8777 4.2165-4.2165 0-2.3388-1.8777-4.2165-4.2165-4.2165zm25.299 0c-2.3388 0-4.2165 1.8777-4.2165 4.2165 0 2.3388 1.8777 4.2165 4.2165 4.2165h8.433c2.3389 0 4.2165-1.8777 4.2165-4.2165 0-2.3388-1.8776-4.2165-4.2165-4.2165zm25.299 0c-2.3388 0-4.2165 1.8777-4.2165 4.2165 0 2.3388 1.8777 4.2165 4.2165 4.2165h8.433c2.3389 0 4.2165-1.8777 4.2165-4.2165 0-2.3388-1.8776-4.2165-4.2165-4.2165zm25.299 0c-2.3388 0-4.2165 1.8777-4.2165 4.2165 0 2.3388 1.8777 4.2165 4.2165 4.2165h8.433c2.3388 0 4.2165-1.8777 4.2165-4.2165 0-2.3388-1.8777-4.2165-4.2165-4.2165zm25.299 0c-2.3389 0-4.2165 1.8777-4.2165 4.2165 0 2.3388 1.8776 4.2165 4.2165 4.2165h8.433c2.3388 0 4.2165-1.8777 4.2165-4.2165 0-2.3388-1.8777-4.2165-4.2165-4.2165zm-126.5 16.866c-2.3388 0-4.2165 1.8777-4.2165 4.2165 0 2.3388 1.8777 4.2165 4.2165 4.2165h8.433c2.3388 0 4.2165-1.8777 4.2165-4.2165 0-2.3388-1.8777-4.2165-4.2165-4.2165zm25.299 0c-2.3388 0-4.2165 1.8777-4.2165 4.2165 0 2.3388 1.8777 4.2165 4.2165 4.2165h8.433c2.3388 0 4.2165-1.8777 4.2165-4.2165 0-2.3388-1.8777-4.2165-4.2165-4.2165zm25.299 0c-2.3388 0-4.2165 1.8777-4.2165 4.2165 0 2.3388 1.8777 4.2165 4.2165 4.2165h8.433c2.3389 0 4.2165-1.8777 4.2165-4.2165 0-2.3388-1.8776-4.2165-4.2165-4.2165zm25.299 0c-2.3388 0-4.2165 1.8777-4.2165 4.2165 0 2.3388 1.8777 4.2165 4.2165 4.2165h8.433c2.3389 0 4.2165-1.8777 4.2165-4.2165 0-2.3388-1.8776-4.2165-4.2165-4.2165zm25.299 0c-2.3388 0-4.2165 1.8777-4.2165 4.2165 0 2.3388 1.8777 4.2165 4.2165 4.2165h8.433c2.3388 0 4.2165-1.8777 4.2165-4.2165 0-2.3388-1.8777-4.2165-4.2165-4.2165zm25.299 0c-2.3389 0-4.2165 1.8777-4.2165 4.2165 0 2.3388 1.8776 4.2165 4.2165 4.2165h8.433c2.3388 0 4.2165-1.8777 4.2165-4.2165 0-2.3388-1.8777-4.2165-4.2165-4.2165z" fill="url(#linearGradient12)" stroke-width="2.1082"/>
  <path d="m123.78 77.237c-2.3388 0-4.2168 1.878-4.2168 4.2168 0 0.34634 0.0531 0.67848 0.13086 1 0.44794-1.8488 2.0941-3.2168 4.0859-3.2168h8.4336c1.9919 0 3.638 1.368 4.0859 3.2168 0.0778-0.32152 0.13086-0.65366 0.13086-1 0-2.3388-1.8779-4.2168-4.2168-4.2168zm-50.598 16.867c-2.3388 0-4.2168 1.8779-4.2168 4.2168 0 0.347 0.05282 0.67793 0.13086 1 0.44729-1.8497 2.0934-3.2168 4.0859-3.2168h8.4336c1.9925 0 3.6386 1.3671 4.0859 3.2168 0.078-0.32207 0.1289-0.653 0.1289-1 0-2.3388-1.876-4.2168-4.2148-4.2168zm50.598 0c-2.3388 0-4.2168 1.8779-4.2168 4.2168 0 0.347 0.0528 0.67793 0.13086 1 0.44729-1.8497 2.0934-3.2168 4.0859-3.2168h8.4336c1.9925 0 3.6386 1.3671 4.0859 3.2168 0.078-0.32207 0.13086-0.653 0.13086-1 0-2.3388-1.8779-4.2168-4.2168-4.2168zm-50.598 16.865c-2.3388 0-4.2168 1.8779-4.2168 4.2168 0 0.34634 0.05311 0.67653 0.13086 0.99804 0.44794-1.8488 2.0941-3.2148 4.0859-3.2148h8.4336c1.9918 0 3.638 1.3661 4.0859 3.2148 0.0777-0.32151 0.1289-0.6517 0.1289-0.99804 0-2.3389-1.876-4.2168-4.2148-4.2168zm25.299 0c-2.3388 0-4.2168 1.8779-4.2168 4.2168 0 0.34634 0.0531 0.67653 0.13086 0.99804 0.44794-1.8488 2.0941-3.2148 4.0859-3.2148h8.4336c1.9919 0 3.638 1.3661 4.0859 3.2148 0.0777-0.32151 0.13086-0.6517 0.13086-0.99804 0-2.3389-1.8779-4.2168-4.2168-4.2168zm25.299 0c-2.3388 0-4.2168 1.8779-4.2168 4.2168 0 0.34634 0.0531 0.67653 0.13086 0.99804 0.44794-1.8488 2.0941-3.2148 4.0859-3.2148h8.4336c1.9919 0 3.638 1.3661 4.0859 3.2148 0.0778-0.32151 0.13086-0.6517 0.13086-0.99804 0-2.3389-1.8779-4.2168-4.2168-4.2168zm-75.896 16.865c-2.3388 0-4.2168 1.8779-4.2168 4.2168 0 0.34634 0.05311 0.67848 0.13086 1 0.44794-1.8488 2.0941-3.2168 4.0859-3.2168h8.4336c1.9919 0 3.638 1.368 4.0859 3.2168 0.07773-0.32148 0.12891-0.65369 0.12891-1 0-2.3389-1.876-4.2168-4.2148-4.2168zm25.299 0c-2.3388 0-4.2168 1.8779-4.2168 4.2168 0 0.34634 0.05311 0.67848 0.13086 1 0.44794-1.8488 2.0941-3.2168 4.0859-3.2168h8.4336c1.9918 0 3.638 1.368 4.0859 3.2168 0.0777-0.32152 0.1289-0.65366 0.1289-1 0-2.3389-1.876-4.2168-4.2148-4.2168zm25.299 0c-2.3388 0-4.2168 1.8779-4.2168 4.2168 0 0.34634 0.0531 0.67848 0.13086 1 0.44794-1.8488 2.0941-3.2168 4.0859-3.2168h8.4336c1.9919 0 3.638 1.368 4.0859 3.2168 0.0777-0.32152 0.13086-0.65366 0.13086-1 0-2.3389-1.8779-4.2168-4.2168-4.2168zm25.299 0c-2.3388 0-4.2168 1.8779-4.2168 4.2168 0 0.34634 0.0531 0.67848 0.13086 1 0.44794-1.8488 2.0941-3.2168 4.0859-3.2168h8.4336c1.9919 0 3.638 1.368 4.0859 3.2168 0.0778-0.32152 0.13086-0.65366 0.13086-1 0-2.3389-1.8779-4.2168-4.2168-4.2168zm50.598 0c-2.3389 0-4.2148 1.8779-4.2148 4.2168 0 0.34634 0.0512 0.67848 0.1289 1 0.44794-1.8488 2.0941-3.2168 4.0859-3.2168h8.4336c1.9918 0 3.638 1.368 4.0859 3.2168 0.0778-0.32152 0.13086-0.65366 0.13086-1 0-2.3389-1.878-4.2168-4.2168-4.2168zm-126.49 16.867c-2.3388 0-4.2168 1.878-4.2168 4.2168 0 0.347 0.05282 0.67793 0.13086 1 0.44729-1.8497 2.0934-3.2168 4.0859-3.2168h8.4336c1.9925 0 3.6387 1.3671 4.0859 3.2168 0.07802-0.32204 0.12891-0.65304 0.12891-1 0-2.3388-1.876-4.2168-4.2148-4.2168zm25.299 0c-2.3388 0-4.2168 1.878-4.2168 4.2168 0 0.347 0.05282 0.67793 0.13086 1 0.44729-1.8497 2.0934-3.2168 4.0859-3.2168h8.4336c1.9925 0 3.6386 1.3671 4.0859 3.2168 0.078-0.32207 0.1289-0.653 0.1289-1 0-2.3388-1.876-4.2168-4.2148-4.2168zm25.299 0c-2.3388 0-4.2168 1.878-4.2168 4.2168 0 0.347 0.0528 0.67793 0.13086 1 0.44729-1.8497 2.0934-3.2168 4.0859-3.2168h8.4336c1.9925 0 3.6386 1.3671 4.0859 3.2168 0.078-0.32207 0.13086-0.653 0.13086-1 0-2.3388-1.8779-4.2168-4.2168-4.2168zm25.299 0c-2.3388 0-4.2168 1.878-4.2168 4.2168 0 0.347 0.0528 0.67793 0.13086 1 0.44729-1.8497 2.0934-3.2168 4.0859-3.2168h8.4336c1.9925 0 3.6386 1.3671 4.0859 3.2168 0.078-0.32207 0.13086-0.653 0.13086-1 0-2.3388-1.8779-4.2168-4.2168-4.2168zm50.598 0c-2.3389 0-4.2148 1.878-4.2148 4.2168 0 0.347 0.0509 0.67793 0.1289 1 0.44729-1.8497 2.0934-3.2168 4.0859-3.2168h8.4336c1.9925 0 3.6386 1.3671 4.0859 3.2168 0.078-0.32207 0.13086-0.653 0.13086-1 0-2.3388-1.878-4.2168-4.2168-4.2168zm-126.49 16.865c-2.3388 0-4.2168 1.8779-4.2168 4.2168 0 0.347 0.05282 0.67988 0.13086 1.002 0.44729-1.8497 2.0934-3.2188 4.0859-3.2188h8.4336c1.9925 0 3.6387 1.369 4.0859 3.2188 0.07802-0.32204 0.12891-0.655 0.12891-1.002 0-2.3388-1.876-4.2168-4.2148-4.2168zm25.299 0c-2.3388 0-4.2168 1.8779-4.2168 4.2168 0 0.347 0.05282 0.67988 0.13086 1.002 0.44729-1.8497 2.0934-3.2188 4.0859-3.2188h8.4336c1.9925 0 3.6386 1.3691 4.0859 3.2188 0.078-0.32208 0.1289-0.65496 0.1289-1.002 0-2.3388-1.876-4.2168-4.2148-4.2168zm25.299 0c-2.3388 0-4.2168 1.8779-4.2168 4.2168 0 0.347 0.0528 0.67988 0.13086 1.002 0.44729-1.8497 2.0934-3.2188 4.0859-3.2188h8.4336c1.9925 0 3.6386 1.3691 4.0859 3.2188 0.078-0.32208 0.13086-0.65496 0.13086-1.002 0-2.3388-1.8779-4.2168-4.2168-4.2168zm25.299 0c-2.3388 0-4.2168 1.8779-4.2168 4.2168 0 0.347 0.0528 0.67988 0.13086 1.002 0.44729-1.8497 2.0934-3.2188 4.0859-3.2188h8.4336c1.9925 0 3.6386 1.3691 4.0859 3.2188 0.078-0.32208 0.13086-0.65496 0.13086-1.002 0-2.3388-1.8779-4.2168-4.2168-4.2168zm25.299 0c-2.3388 0-4.2168 1.8779-4.2168 4.2168 0 0.347 0.0528 0.67988 0.13086 1.002 0.4473-1.8497 2.0934-3.2188 4.0859-3.2188h8.4336c1.9925 0 3.6386 1.3691 4.0859 3.2188 0.078-0.32208 0.13086-0.65496 0.13086-1.002 0-2.3388-1.878-4.2168-4.2168-4.2168zm25.299 0c-2.3389 0-4.2148 1.8779-4.2148 4.2168 0 0.347 0.0509 0.67988 0.1289 1.002 0.44729-1.8497 2.0934-3.2188 4.0859-3.2188h8.4336c1.9925 0 3.6386 1.3691 4.0859 3.2188 0.078-0.32208 0.13086-0.65496 0.13086-1.002 0-2.3388-1.878-4.2168-4.2168-4.2168zm-126.49 16.867c-2.3388 0-4.2168 1.878-4.2168 4.2168 0 0.34634 0.05311 0.67653 0.13086 0.99805 0.44794-1.8488 2.0941-3.2148 4.0859-3.2148h8.4336c1.9919 0 3.638 1.366 4.0859 3.2148 0.07773-0.32149 0.12891-0.65174 0.12891-0.99805 0-2.3388-1.876-4.2168-4.2148-4.2168zm25.299 0c-2.3388 0-4.2168 1.878-4.2168 4.2168 0 0.34634 0.05311 0.67653 0.13086 0.99805 0.44794-1.8488 2.0941-3.2148 4.0859-3.2148h8.4336c1.9918 0 3.638 1.3661 4.0859 3.2148 0.0777-0.32152 0.1289-0.65171 0.1289-0.99805 0-2.3388-1.876-4.2168-4.2148-4.2168zm25.299 0c-2.3388 0-4.2168 1.878-4.2168 4.2168 0 0.34634 0.0531 0.67653 0.13086 0.99805 0.44794-1.8488 2.0941-3.2148 4.0859-3.2148h8.4336c1.9919 0 3.638 1.3661 4.0859 3.2148 0.0777-0.32152 0.13086-0.65171 0.13086-0.99805 0-2.3388-1.8779-4.2168-4.2168-4.2168zm25.299 0c-2.3388 0-4.2168 1.878-4.2168 4.2168 0 0.34634 0.0531 0.67653 0.13086 0.99805 0.44794-1.8488 2.0941-3.2148 4.0859-3.2148h8.4336c1.9919 0 3.638 1.3661 4.0859 3.2148 0.0778-0.32152 0.13086-0.65171 0.13086-0.99805 0-2.3388-1.8779-4.2168-4.2168-4.2168zm25.299 0c-2.3388 0-4.2168 1.878-4.2168 4.2168 0 0.34634 0.0531 0.67653 0.13086 0.99805 0.44795-1.8488 2.0941-3.2148 4.0859-3.2148h8.4336c1.9918 0 3.638 1.3661 4.0859 3.2148 0.0777-0.32152 0.13086-0.65171 0.13086-0.99805 0-2.3388-1.878-4.2168-4.2168-4.2168zm25.299 0c-2.3389 0-4.2148 1.878-4.2148 4.2168 0 0.34634 0.0512 0.67653 0.1289 0.99805 0.44794-1.8488 2.0941-3.2148 4.0859-3.2148h8.4336c1.9918 0 3.638 1.3661 4.0859 3.2148 0.0778-0.32152 0.13086-0.65171 0.13086-0.99805 0-2.3388-1.878-4.2168-4.2168-4.2168z" fill="url(#linearGradient14)" opacity=".5" stroke-width="2.1082"/>
  <path d="m91 12c-72 0-85 15-85 87v56c0 70 13 85 85 85h74c72 0 85-15 85-85v-56c0-72-13-87-85-87zm0 4h74c68 0 80 15 80 83v56c0 66-12 81-80 81h-74c-68 0-80-15-80-81v-56c0-68 12-83 80-83z" fill="url(#linearGradient31)" style="isolation:isolate"/>
  <path d="m105.54 196.13c0 5.7269-13.259 10.366-29.618 10.366s-29.618-4.6394-29.618-10.366v-5.9236c5.3625-1.8742 21.438-4.4427 29.618-4.4427 8.1796 0 26.656 2.9618 29.618 4.4427z" fill="#282828" stroke-width="1.4809"/>
  <path d="m105.54 193.15c0 5.7269-13.259 10.366-29.618 10.366-16.359 0-29.618-4.6394-29.618-10.366v-5.9236c5.3625-1.8742 21.438-4.4427 29.618-4.4427 8.1796 0 26.656 2.9618 29.618 4.4427z" fill="url(#f)" stroke-width="1.4809"/>
  <path d="m37.42 108.74c-1.6371 0-2.9618 1.3247-2.9618 2.9618v2.9618c0 22.971 18.494 41.465 41.465 41.465 22.971 0 41.465-18.494 41.465-41.465v-2.9618c0-1.6371-1.3247-2.9618-2.9618-2.9618-1.6371 0-2.9618 1.3247-2.9618 2.9618v2.9618c0 19.691-15.85 35.541-35.541 35.541-19.691 0-35.541-15.85-35.541-35.541v-2.9618c0-1.6371-1.3247-2.9618-2.9618-2.9618z" fill="#a89984" stroke-width="1.4809"/>
  <path d="m105.54 187.22c0 5.7269-13.259 10.366-29.618 10.366-16.359 0-29.618-4.6394-29.618-10.366s13.259-10.366 29.618-10.366c16.359 0 29.618 4.6394 29.618 10.366z" fill="url(#l)" stroke-width="1.4809"/>
  <path d="m75.924 147.24c2.4527 0 4.4427 1.9899 4.4427 4.4427v32.58c0 2.4527-1.99 4.4427-4.4427 4.4427-2.4527 0-4.4427-1.9899-4.4427-4.4427v-32.58c0-2.4527 1.99-4.4427 4.4427-4.4427z" fill="url(#m)" stroke-width="1.4809"/>
  <path d="m75.924 52.462c-16.359 0-29.618 13.259-29.618 29.618v26.656h-6.664c-1.2264 0-2.2213 0.99497-2.2213 2.2213 0 1.2264 0.99497 2.2214 2.2213 2.2214h6.7016c0.77157 15.671 13.718 28.137 29.58 28.137 15.863 0 28.809-12.466 29.58-28.137h6.7016c1.2264 0 2.2213-0.99498 2.2213-2.2214 0-1.2264-0.99497-2.2213-2.2213-2.2213h-6.664v-26.656c0-16.359-13.259-29.618-29.618-29.618z" fill="#d5c4a1" stroke-width="1.4809"/>
  <path d="m37.42 105.77c-1.6371 0-2.9618 1.3247-2.9618 2.9618v2.9618c0 22.971 18.494 41.465 41.465 41.465 22.971 0 41.465-18.494 41.465-41.465v-2.9618c0-1.6371-1.3247-2.9618-2.9618-2.9618-1.6371 0-2.9618 1.3247-2.9618 2.9618v2.9618c0 19.691-15.85 35.541-35.541 35.541-19.691 0-35.541-15.85-35.541-35.541v-2.9618c0-1.6371-1.3247-2.9618-2.9618-2.9618z" fill="url(#n)" stroke-width="1.4809"/>
  <path d="m75.924 49.5c16.359 0 29.618 13.259 29.618 29.618v29.618c0 16.359-13.259 29.618-29.618 29.618-16.359 0-29.618-13.259-29.618-29.618v-29.618c0-16.359 13.259-29.618 29.618-29.618z" fill="#ebdbb2" stroke-width="1.4809"/>
  <path d="m46.89 76.156c-0.38179 1.9147-0.58426 3.8931-0.58426 5.9236h20.732c1.6429 0 2.9618-1.3189 2.9618-2.9618s-1.3189-2.9618-2.9618-2.9618zm37.919 0c-1.6429 0-2.9618 1.3189-2.9618 2.9618s1.3189 2.9618 2.9618 2.9618h20.732c0-2.0304-0.20247-4.0088-0.58426-5.9236zm-38.503 11.847v5.9236h20.732c1.6429 0 2.9618-1.3189 2.9618-2.9618 0-1.6429-1.3189-2.9618-2.9618-2.9618zm38.503 0c-1.6429 0-2.9618 1.3189-2.9618 2.9618 0 1.6429 1.3189 2.9618 2.9618 2.9618h20.732v-5.9236zm-38.503 11.847v5.9236h20.732c1.6429 0 2.9618-1.3189 2.9618-2.9618 0-1.6429-1.3189-2.9618-2.9618-2.9618zm38.503 0c-1.6429 0-2.9618 1.3189-2.9618 2.9618 0 1.6429 1.3189 2.9618 2.9618 2.9618h20.732v-5.9236z" fill="#fbf1c7" opacity=".5" stroke-width="1.4809"/>
  <path d="m46.89 73.194c-0.38179 1.9147-0.58426 3.8931-0.58426 5.9236h20.732c1.6429 0 2.9618-1.3189 2.9618-2.9618 0-1.6429-1.3189-2.9618-2.9618-2.9618zm37.919 0c-1.6429 0-2.9618 1.3189-2.9618 2.9618 0 1.6429 1.3189 2.9618 2.9618 2.9618h20.732c0-2.0304-0.20247-4.0088-0.58426-5.9236zm-38.503 11.847v5.9236h20.732c1.6429 0 2.9618-1.3189 2.9618-2.9618 0-1.6429-1.3189-2.9618-2.9618-2.9618zm38.503 0c-1.6429 0-2.9618 1.3189-2.9618 2.9618 0 1.6429 1.3189 2.9618 2.9618 2.9618h20.732v-5.9236zm-38.503 11.847v5.9236h20.732c1.6429 0 2.9618-1.3189 2.9618-2.9618 0-1.6429-1.3189-2.9618-2.9618-2.9618zm38.503 0c-1.6429 0-2.9618 1.3189-2.9618 2.9618 0 1.6429 1.3189 2.9618 2.9618 2.9618h20.732v-5.9236z" fill="url(#r)" stroke-width="1.4809"/>
</svg>
