<svg width="256" height="256" version="1.1" xmlns="http://www.w3.org/2000/svg">
  <defs>
    <linearGradient id="linearGradient31" x1=".5002" x2=".5002" y2="1" gradientTransform="matrix(244,0,0,228,5.986,12)" gradientUnits="userSpaceOnUse">
      <stop stop-color="#ebdbb2" stop-opacity=".2" offset="0"/>
      <stop stop-color="#ebdbb2" stop-opacity=".05" offset=".1"/>
      <stop stop-opacity="0" offset=".7036"/>
      <stop stop-opacity=".1" offset=".8975"/>
      <stop stop-opacity=".2" offset="1"/>
    </linearGradient>
    <linearGradient id="linearGradient6" x1="140" x2="140" y1="12" y2="240" gradientUnits="userSpaceOnUse">
      <stop stop-color="#3c3836" offset="0"/>
      <stop stop-color="#282828" offset="1"/>
    </linearGradient>
  </defs>
  <path d="m165 12c72 0 85 15 85 87v56c0 70-13 85-85 85h-74c-72 0-85-15-85-85v-56c0-72 13-87 85-87z" fill="url(#linearGradient6)" style="isolation:isolate"/>
  <path d="m167.41 45.5c-0.30859 0.0011-0.61437 0.02073-0.91793 0.05475v-0.0098c-1.7779 0.19828-3.5099 0.80437-5.2382 1.9199-0.81264 0.41874-1.6186 0.96837-2.3906 1.6816l-65.952 60.956-27.353-20.923c-1.8391-1.4443-6.6314-4.893-10.814-0.91797l-10.641 10.115c-2.792 2.6551-1.206 6.232 1.0079 8.2793l-0.0039 4e-3 25.766 23.814-25.766 23.814 0.0039 4e-3c-2.2139 2.0472-3.7997 5.6241-1.0079 8.2793l10.641 10.115c4.183 3.9751 8.9754 0.52635 10.814-0.91797l27.355-20.923 65.95 60.954c1.0025 0.92638 2.0619 1.6026 3.1192 2.0293 1.8514 0.98979 4.22 1.8687 6.3613 1.6074 0.80359-0.0986 1.6172-0.32329 2.4238-0.71884l34.966-17.143c3.8106-1.8675 7.6562-3.4108 7.6562-7.6542v-118.85c0-4.2434-3.8456-5.7902-7.6562-7.6562l-34.966-17.143c-0.80661-0.39535-1.6203-0.61896-2.4238-0.71679-0.31363-0.03825-0.62504-0.05576-0.93363-0.05475zm3.3066 45.778 0.0604 0.03704v78.346l-0.0604 0.0449v-0.088l-51.174-39.145 51.174-39.145z" opacity=".3" stroke-width="20.13" style="isolation:isolate;paint-order:stroke fill markers"/>
  <path d="m166.49 40.562c-1.8222 0.20331-3.5952 0.82754-5.3667 1.9973 2.7719 3.4503-2.8242 35.952 4.183 40.341l5.4693 3.4322v78.346l-8.5915 6.4376c-6.6228 4.962 0.59947 33.537-1.1375 37.22 1.919 1.1712 4.7869 2.4216 7.2951 2.1157 0.80359-0.0986 1.617-0.32248 2.4236-0.71784l34.966-17.143c3.8106-1.8675 7.6554-3.412 7.6554-7.6554v-118.85c0-4.2434-3.8448-5.7894-7.6554-7.6554l-34.966-17.143c-0.80661-0.39535-1.6201-0.62-2.4236-0.71784-0.62725-0.07629-1.2442-0.06784-1.8516 0z" fill="#fabd2f" stroke-width="20.13" style="isolation:isolate;paint-order:stroke fill markers"/>
  <path d="m45.103 149.3 113.75-105.14c5.1654-4.7728 11.855-3.0799 11.855 6.7919v35.389l-105.16 80.439c-1.8391 1.4443-6.6308 4.8936-10.814 0.91853l-10.641-10.115c-2.792-2.6552-1.2054-6.2322 1.0085-8.2795z" fill="#b57614" stroke-width="20.13" style="isolation:isolate;paint-order:stroke fill markers"/>
  <path d="m167.41 40.518c-0.30857 1e-3 -0.61431 0.0208-0.91797 0.0547v-0.01c-1.7779 0.19838-3.5098 0.80439-5.2383 1.9199-0.81258 0.41875-1.6187 0.96838-2.3906 1.6816l-113.76 105.14 4e-3 4e-3c-1.9624 1.8147-3.4135 4.8287-1.7774 7.3398 0.45672-0.88507 1.0768-1.7022 1.7832-2.3555l-4e-3 -4e-3 113.76-105.14c0.77193-0.71327 1.578-1.2629 2.3906-1.6816 1.7285-1.1155 3.4604-1.7216 5.2383-1.9199v0.01c0.30366-0.0339 0.60939-0.0536 0.91796-0.0547 0.30857-1e-3 0.61998 0.0165 0.9336 0.0547 0.80359 0.0978 1.6172 0.32144 2.4238 0.7168l34.965 17.143c3.7942 1.858 7.6174 3.4035 7.6504 7.6055v-4.9336c0-4.2434-3.8456-5.7902-7.6562-7.6562l-34.965-17.143c-0.80661-0.39535-1.6202-0.61897-2.4238-0.7168-0.31362-0.0382-0.62503-0.0557-0.93359-0.0547zm-6.2813 167.47c-0.03 0.10608-0.0414 0.26374-0.0801 0.3457 0.0327 0.02 0.0761 0.0386 0.10937 0.0586-0.011-0.1396-0.017-0.26039-0.0293-0.4043z" fill="#ebdbb2" opacity=".2" stroke-width="20.13" style="isolation:isolate;paint-order:stroke fill markers"/>
  <path d="m45.103 101.68 113.75 105.14c5.1654 4.7728 11.855 3.0799 11.855-6.7919v-35.389l-105.16-80.439c-1.8391-1.4443-6.6308-4.8936-10.814-0.91853l-10.641 10.115c-2.792 2.6551-1.2054 6.2322 1.0085 8.2795z" fill="#d79921" stroke-width="20.13" style="isolation:isolate;paint-order:stroke fill markers"/>
  <path d="m58.74 81.447c-1.3173 0.07992-2.685 0.59764-3.9922 1.8398l-10.641 10.115c-1.9005 1.8073-1.7513 4.0335-0.77742 5.9219 0.21056-0.32454 0.45756-0.64324 0.77742-0.94726l10.641-10.115c4.183-3.9751 8.9754-0.52636 10.814 0.91797l105.16 80.439v-4.9746l-105.16-80.439c-1.2644-0.99297-3.924-2.9336-6.8223-2.7578z" fill="#ebdbb2" opacity=".2" stroke-width="20.13" style="isolation:isolate;paint-order:stroke fill markers"/>
  <path d="m91 12c-72 0-85 15-85 87v56c0 70 13 85 85 85h74c72 0 85-15 85-85v-56c0-72-13-87-85-87zm0 4h74c68 0 80 15 80 83v56c0 66-12 81-80 81h-74c-68 0-80-15-80-81v-56c0-68 12-83 80-83z" fill="url(#linearGradient31)" style="isolation:isolate"/>
</svg>
