<svg width="256" height="256" version="1.1" xmlns="http://www.w3.org/2000/svg" xmlns:xlink="http://www.w3.org/1999/xlink">
  <linearGradient id="b" x1=".5002" x2=".5002" y2="1" gradientTransform="matrix(244 0 0 228 5.981 12)" gradientUnits="userSpaceOnUse">
    <stop stop-color="#ebdbb2" offset="0"/>
    <stop stop-color="#d5c4a1" offset="1"/>
  </linearGradient>
  <defs>
    <linearGradient id="linearGradient10" x1="128" x2="128" y1="12" y2="240" gradientUnits="userSpaceOnUse">
      <stop stop-color="#282828" stop-opacity=".1" offset="0"/>
      <stop stop-color="#282828" stop-opacity=".05" offset=".1966"/>
      <stop stop-color="#282828" stop-opacity="0" offset=".50485"/>
      <stop stop-color="#282828" stop-opacity=".1" offset=".74636"/>
      <stop stop-color="#282828" stop-opacity=".2" offset="1"/>
    </linearGradient>
    <linearGradient id="linearGradient15" x1="85" x2="85" y1="50" y2="212.4" gradientUnits="userSpaceOnUse">
      <stop stop-color="#fbf1c7" stop-opacity=".6" offset="0"/>
      <stop stop-color="#ebdbb2" offset="1"/>
    </linearGradient>
  </defs>
  <path d="m165 12c72 0 85 15 85 87v56c0 70-13 85-85 85h-74c-72 0-85-15-85-85v-56c0-72 13-87 85-87z" fill="url(#b)" style="isolation:isolate"/>
  <path d="m162.91 49.684c-6.4311 6.7e-5 -11.644 5.2135-11.645 11.645 7e-5 6.4311 5.2135 11.644 11.645 11.645 6.4311-6.7e-5 11.644-5.2135 11.645-11.645-7e-5 -6.4311-5.2135-11.644-11.645-11.645zm-35.6 0.0078 2e-3 2e-3c-2.5513 0.0036-5.259 0.87233-7.9922 2.6191-10.198 6.5208-15.226 17.809-14.586 32.777 0.16058 3.782 0.65576 7.8416 1.1016 9.0195s1.1897 2.1406 1.6523 2.1406c0.4632 0 2.4324-2.0495 4.375-4.5547 2.6422-3.4069 4.9323-5.3917 9.0859-7.8711 11.101-6.6263 12.116-7.3771 14.777-10.973 5.0262-6.7802 5.1566-13.453 0.36914-18.91-2.4816-2.8286-5.504-4.2545-8.7852-4.25zm-36.145 34.926c-0.61109-0.02328-1.2301 0.03415-1.8398 0.17969-4.8443 1.1487-8.6359 9.8407-7.7656 17.799 0.54001 4.9352 4.2211 12.486 7.3652 15.113 1.3643 1.1375 3.1374 1.9512 3.9414 1.8086 1.2599-0.22346 1.535-1.1477 1.9785-6.668 0.28286-3.5248 1.3318-8.8138 2.3301-11.756 2.1785-6.4186 2.2478-8.5088 0.41406-12.24-1.2464-2.5344-3.7749-4.1367-6.4238-4.2344zm65.186 0.29492c-4.1009-0.06983-8.8056 0.61402-14.508 2.543-13.823 4.5725-22.313 12.925-28.545 19.977-8.3976 11.501-14.763 24.551-21.164 37.105l-0.18359 0.32617-16.609-36.23c-3.1462-6.8637-9.7152-11.527-17.232-12.234-3.6934-0.34714-7.413 0.28404-10.785 1.8301-10.61 4.8638-15.268 17.408-10.404 28.018 11.294 24.634 22.52 49.156 33.812 73.754 7.0904 15.468 28.787 16.591 37.504 1.7734l2e-3 -2e-3c6.9909-11.441 13.223-23.547 19.537-35.646 6.8188 11.96 13.346 24.09 20.217 36.02 7.4068 12.454 27.901 15.583 37.272-2.123l33.813-73.752c4.8637-10.61 0.20539-23.154-10.405-28.017-3.3721-1.546-7.0918-2.1772-10.785-1.8301-7.5168 0.70658-14.086 5.3695-17.232 12.232l-16.541 36.082-0.27148-0.48437 0.0703-0.10547c-3.7946-6.8569-7.481-13.919-11.365-20.729 6.0259-8.639 12.716-16.78 20.469-24.109 1.1342-1.0033 1.9898-2.6346 1.2891-4.3516-2.8444-6.9632-8.0475-8.4882-14.037-9.7402-1.2476-0.17226-2.5444-0.27476-3.9121-0.29688z" fill="url(#linearGradient15)" opacity=".6" stop-color="#000000" stroke-linecap="round" stroke-linejoin="round" style="isolation:isolate"/>
  <path d="m58.111 91.377a21.133 21.133 0 0 0-10.785 1.8301 21.133 21.133 0 0 0-10.404 28.018l33.812 73.754a21.133 21.133 0 0 0 28.018 10.404 21.133 21.133 0 0 0 10.402-28.018l-33.811-73.754a21.133 21.133 0 0 0-17.232-12.234z" fill="#076678" stop-color="#000000" stroke-linecap="round" stroke-linejoin="round" style="isolation:isolate"/>
  <path d="m197.89 91.4a21.133 21.133 0 0 0-17.232 12.232l-33.811 73.754a21.133 21.133 0 0 0 10.402 28.018 21.133 21.133 0 0 0 28.018-10.404l33.812-73.752a21.133 21.133 0 0 0-10.404-28.018 21.133 21.133 0 0 0-10.785-1.8301z" fill="#b16286" stop-color="#000000" stroke-linecap="round" stroke-linejoin="round" style="isolation:isolate"/>
  <path d="m152.45 118.23c-9.3484 13.466-17.082 28.146-24.702 42.824l20.142 35.918c8.6776 14.628 30.221 13.62 37.507-2.2736l12.369-26.98c-5.9964 3.4876-14.055 5.9558-18.263-0.6334l-15.664-27.859 0.0703-0.10547c-3.8248-6.9115-7.5409-14.03-11.459-20.89z" fill="#458588" style="isolation:isolate"/>
  <path d="m162.91 44.662a11.645 11.645 0 0 0-11.645 11.645 11.645 11.645 0 0 0 11.645 11.645 11.645 11.645 0 0 0 11.645-11.645 11.645 11.645 0 0 0-11.645-11.645zm-35.6 0.007813 0.00195 0.001953c-2.5513 0.0036-5.259 0.87233-7.9922 2.6191-10.198 6.5208-15.226 17.809-14.586 32.777 0.16058 3.782 0.65576 7.8416 1.1016 9.0195s1.1897 2.1406 1.6523 2.1406c0.4632 0 2.4324-2.0495 4.375-4.5547 2.6422-3.4069 4.9323-5.3917 9.0859-7.8711 11.101-6.6263 12.116-7.3771 14.777-10.973 5.0262-6.7802 5.1566-13.453 0.36914-18.91-2.4816-2.8286-5.504-4.2545-8.7852-4.25zm-36.145 34.926c-0.61109-0.02328-1.2301 0.034155-1.8398 0.17969-4.8443 1.1487-8.6359 9.8407-7.7656 17.799 0.54001 4.9352 4.2211 12.486 7.3652 15.113 1.3643 1.1375 3.1374 1.9512 3.9414 1.8086 1.2599-0.22346 1.535-1.1477 1.9785-6.668 0.28286-3.5248 1.3318-8.8138 2.3301-11.756 2.1785-6.4186 2.2478-8.5088 0.41406-12.24-1.2464-2.5344-3.7749-4.1367-6.4238-4.2344v-0.001953zm65.186 0.29492c-4.1009-0.06983-8.8056 0.61402-14.508 2.543-13.823 4.5725-22.313 12.925-28.545 19.977-8.3976 11.501-14.763 24.551-21.164 37.105l-15.664 27.859c-4.646 6.8392-12.14 4.0852-18.137 0.59766l12.398 27.006c7.4165 15.743 28.784 16.48 37.504 1.7734 20.893-34.191 35.012-74.325 64.779-102.46 1.1342-1.0033 1.9898-2.6346 1.2891-4.3516-2.8444-6.9632-8.0475-8.4882-14.037-9.7402-1.2476-0.17226-2.5444-0.27475-3.9121-0.29687l-0.0039-0.007813z" fill="#83a598" style="isolation:isolate"/>
  <path d="m162.91 44.662c-6.4311 6.7e-5 -11.644 5.2135-11.645 11.645 1e-5 0.86038 0.09247 1.6986 0.26953 2.5059 1.1498-5.222 5.8056-9.1288 11.373-9.1289 5.5707 5.8e-5 10.229 3.9122 11.375 9.1387 0.17835-0.81002 0.27147-1.652 0.27148-2.5156-7e-5 -6.4311-5.2135-11.644-11.645-11.645zm-35.6 0.007813 0.00195 0.001953c-2.5513 0.0036-5.259 0.87233-7.9922 2.6191-10.198 6.5208-15.226 17.809-14.586 32.777 2.4e-4 0.005701-2.5e-4 0.011877 0 0.017579 0.57874-12.491 5.5555-22.001 14.584-27.773 2.7332-1.7468 5.4409-2.6155 7.9922-2.6191l-0.00195-0.001953c3.2812-0.004491 6.3035 1.4214 8.7852 4.25 1.7054 1.944 2.7858 4.0418 3.2441 6.2441 0.79907-4.0458-0.27935-7.8882-3.2422-11.266-2.4816-2.8286-5.504-4.2545-8.7852-4.25zm-36.145 34.926c-0.61109-0.0233-1.2301 0.034198-1.8398 0.17969-4.8443 1.1488-8.6359 9.8407-7.7656 17.799 0.005014 0.045826 0.010072 0.092401 0.015625 0.13867 0.69984-6.3021 3.8903-12.001 7.748-12.916 0.60975-0.14549 1.2288-0.20299 1.8398-0.17969v0.001953c2.649 0.09769 5.1774 1.6999 6.4238 4.2344 0.43569 0.88659 0.76436 1.6796 0.98242 2.4609 0.65566-3.0586 0.30486-4.8669-0.98047-7.4824-1.2464-2.5344-3.7749-4.1367-6.4238-4.2344v-0.001953zm65.186 0.29492c-4.1009-0.0698-8.8056 0.61403-14.508 2.543-13.823 4.5725-22.313 12.925-28.545 19.977-8.3976 11.501-14.763 24.551-21.164 37.105l-0.18359 0.32618-16.609-36.23c-3.1462-6.8637-9.7152-11.527-17.232-12.234-3.6934-0.34713-7.413 0.28404-10.785 1.8301-8.5613 3.9246-13.247 12.85-12.182 21.725 0.85038-7.0594 5.2425-13.523 12.18-16.703 3.3721-1.546 7.0918-2.1772 10.785-1.8301 7.5172 0.70696 14.086 5.3707 17.232 12.234l16.609 36.23 0.18359-0.32617c6.4015-12.554 12.766-25.604 21.164-37.105 6.2322-7.0519 14.722-15.404 28.545-19.977 5.7022-1.9289 10.407-2.6128 14.508-2.543l0.00391 0.007813c1.3677 0.02212 2.6645 0.12462 3.9121 0.29688 5.5737 1.1651 10.466 2.5672 13.41 8.3672 0.76217-0.98283 1.1837-2.2891 0.62891-3.6484-2.8444-6.9632-8.0475-8.4882-14.037-9.7402-1.2476-0.17225-2.5444-0.27475-3.9121-0.29687l-0.0039-0.007813zm44.305 11.432c-0.92079-0.034514-1.8462-0.00866-2.7695 0.078125-7.5168 0.70658-14.086 5.3695-17.232 12.232l-16.541 36.082-0.27148-0.48437 0.07031-0.10547c-3.2782-5.9238-6.475-12.001-9.7891-17.936-0.53097 0.739-1.0573 1.4819-1.5781 2.2285 3.8842 6.8096 7.5706 13.872 11.365 20.729l-0.07031 0.10547 0.27148 0.48438 16.541-36.082c3.1467-6.8629 9.7156-11.526 17.232-12.232 3.6934-0.34714 7.413 0.28404 10.785 1.8301 6.9428 3.1826 11.336 9.6547 12.182 16.721 1.0728-8.8802-3.613-17.815-12.18-21.742-2.5291-1.1595-5.2533-1.8047-8.0156-1.9082z" fill="#282828" opacity=".2" stop-color="#000000" stroke-linecap="round" stroke-linejoin="round" style="isolation:isolate"/>
  <path d="m91 12c-72 0-85 15-85 87v56c0 70 13 85 85 85h74c72 0 85-15 85-85v-56c0-72-13-87-85-87zm0 5h74c35.653 0 55.307 3.9448 65.895 14.965 10.588 11.02 14.105 31.336 14.105 67.035v56c0 34.69-3.4936 54.457-14.07 65.25-10.577 10.793-30.277 14.75-65.93 14.75h-74c-35.653 0-55.353-3.9574-65.93-14.75-10.577-10.793-14.07-30.56-14.07-65.25v-56c0-35.699 3.5176-56.015 14.105-67.035 10.588-11.02 30.242-14.965 65.895-14.965z" fill="url(#linearGradient10)" style="isolation:isolate"/>
</svg>
