<svg width="256" height="256" version="1.1" xmlns="http://www.w3.org/2000/svg" xmlns:xlink="http://www.w3.org/1999/xlink">
  <linearGradient id="b" x1=".5002" x2=".5002" y2="1" gradientTransform="matrix(244,0,0,228,5.981,12)" gradientUnits="userSpaceOnUse">
    <stop stop-color="#ebdbb2" offset="0"/>
    <stop stop-color="#d5c4a1" offset="1"/>
  </linearGradient>
  <defs>
    <linearGradient id="linearGradient31" x1=".5002" x2=".5002" y2="1" gradientTransform="matrix(244,0,0,228,5.988,12)" gradientUnits="userSpaceOnUse">
      <stop stop-color="#282828" stop-opacity=".1" offset="0"/>
      <stop stop-color="#bdae93" stop-opacity=".1" offset=".1"/>
      <stop stop-color="#d5c4a1" stop-opacity="0" offset=".7022"/>
      <stop stop-color="#bdae93" stop-opacity=".302" offset=".9"/>
      <stop stop-color="#282828" stop-opacity=".15" offset="1"/>
    </linearGradient>
    <linearGradient id="b-3" x1=".092" x2=".482" y1="1.016" y2=".006" gradientTransform="matrix(59.822 7.9206 -8.5624 64.67 128.08 150.38)" gradientUnits="userSpaceOnUse">
      <stop stop-color="#076678" offset="0"/>
      <stop stop-color="#458588" offset=".4753"/>
      <stop stop-color="#8ec07c" offset="1"/>
    </linearGradient>
    <linearGradient id="c" x1=".084" x2=".77064" y1="1.028" y2=".20836" gradientTransform="matrix(56.279 7.4516 -8.5252 64.388 131.63 151.19)" gradientUnits="userSpaceOnUse">
      <stop stop-color="#458588" offset="0"/>
      <stop stop-color="#8ec07c" offset="1"/>
    </linearGradient>
    <linearGradient id="d" x1=".325" x2=".406" y1=".938" y2="-.013" gradientTransform="matrix(43.672 5.7823 -8.5148 64.31 144.21 152.97)" gradientUnits="userSpaceOnUse">
      <stop stop-color="#8f3f71" offset="0"/>
      <stop stop-color="#fabd2f" offset="1"/>
    </linearGradient>
    <linearGradient id="e" x1=".55723" x2=".3295" y1=".90293" y2="-.035443" gradientTransform="matrix(23.686 3.1361 -6.7859 51.252 164.12 155.61)" gradientUnits="userSpaceOnUse">
      <stop stop-color="#b16286" offset="0"/>
      <stop stop-color="#fabd2f" offset="1"/>
    </linearGradient>
    <linearGradient id="f" x1=".98868" x2=".25231" y1=".88285" y2=".024387" gradientTransform="matrix(20.908 2.7683 -3.7243 28.128 166.87 156.43)" gradientUnits="userSpaceOnUse">
      <stop stop-color="#d65d0e" offset="0"/>
      <stop stop-color="#fabd2f" offset="1"/>
    </linearGradient>
    <linearGradient id="linearGradient20" x1="117.86" x2="117.86" y1="43.01" y2="213.2" gradientTransform="translate(.61175 -3.1996)" gradientUnits="userSpaceOnUse">
      <stop stop-color="#fabd2f" offset="0"/>
      <stop stop-color="#d79921" offset="1"/>
    </linearGradient>
  </defs>
  <path d="m165 12c72 0 85 15 85 87v56c0 70-13 85-85 85h-74c-72 0-85-15-85-85v-56c0-72 13-87 85-87z" fill="url(#b)" style="isolation:isolate"/>
  <path d="m80.812 55.841c-41.37 22.271-56.65 73.185-34.379 114.55 22.271 41.37 73.184 56.65 114.55 34.379 6.6193-3.5634 9.2929-12.473 5.7297-19.092-1.7817-3.3096-3.9454-5.3466-7.7638-6.4923-2.9901-1.5935-5.9802-3.187-7.7621-6.4971-3.5634-6.6194-0.8893-15.529 5.7297-19.092l14.893-8.0176c23.167-12.471 31.571-40.474 19.099-63.641-19.599-36.407-68.731-48.376-110.1-26.105z" fill="#282828" opacity=".15" stroke-width="4.2286"/>
  <path d="m80.812 50.836c-41.37 22.271-56.65 73.185-34.379 114.55 22.271 41.37 73.184 56.65 114.55 34.379 6.6193-3.5634 9.2929-12.473 5.7297-19.092-1.7817-3.3096-3.9454-5.3466-7.7638-6.4923-2.9901-1.5935-5.9802-3.187-7.7621-6.4971-3.5634-6.6194-0.8893-15.529 5.7297-19.092l14.893-8.0176c23.167-12.471 31.571-40.474 19.099-63.641-19.599-36.407-68.731-48.376-110.1-26.105z" fill="url(#linearGradient20)" stroke-width="4.2286"/>
  <path d="m124.71 39.609c-14.54-0.03816-29.677 3.5729-43.898 11.229l-2e-3 0.0039c-29.288 15.767-45.476 45.89-44.545 76.818 0.86107-29.137 16.84-56.898 44.545-71.813l2e-3 -0.0059c41.37-22.271 90.5-10.301 110.1 26.106 3.4782 6.4609 5.2772 13.297 5.6406 20.068 0.45748-8.3734-1.3015-17.012-5.6406-25.072-12.862-23.892-38.442-37.261-66.201-37.334zm25.121 124.18c-0.51372 2.9992-0.12445 6.1499 1.3594 8.9062 1.7819 3.31 4.7716 4.9026 7.7617 6.4961 3.8184 1.1457 5.982 3.1826 7.7637 6.4922 0.66581 1.2368 1.1122 2.5554 1.3574 3.9023 0.51367-2.9992 0.12632-6.1501-1.3574-8.9062-1.7817-3.3096-3.9453-5.3465-7.7637-6.4922-2.9901-1.5935-5.9798-3.188-7.7617-6.498-0.66585-1.2369-1.1141-2.5534-1.3594-3.9004z" fill="#ebdbb2" opacity=".3" stroke-width="4.2286"/>
  <path d="m115.43 60.046c-2.0546-0.03125-4.1168 0.42163-5.9785 1.4238-5.9574 3.2071-8.3652 11.226-5.1582 17.184s11.226 8.3633 17.184 5.1562c5.9574-3.207 8.3633-11.224 5.1562-17.182-2.2048-4.0957-6.6831-6.5133-11.203-6.582zm44.104 19.479c-2.0545-0.03125-4.1188 0.42358-5.9805 1.4258-5.9574 3.2071-8.3633 11.226-5.1562 17.184 3.207 5.9573 11.226 8.3633 17.184 5.1563 5.9574-3.207 8.3633-11.226 5.1562-17.184-2.2048-4.0957-6.6831-6.5133-11.203-6.582zm-85.061 2.5703c-2.0546-0.03125-4.1169 0.42163-5.9785 1.4238-5.9574 3.2071-8.3633 11.226-5.1562 17.184 3.207 5.9573 11.224 8.3633 17.182 5.1562 5.9573-3.207 8.3653-11.226 5.1582-17.184-2.2048-4.0957-6.6851-6.5113-11.205-6.5801zm-8.0234 47.541c-2.0546-0.0312-4.1169 0.42163-5.9785 1.4238-5.9573 3.207-8.3653 11.226-5.1582 17.184 3.2071 5.9574 11.226 8.3633 17.184 5.1562 5.9573-3.207 8.3633-11.226 5.1562-17.184-2.2048-4.0957-6.6831-6.5113-11.203-6.5801z" fill="#ebdbb2" opacity=".3" stroke-width="4.2286"/>
  <path d="m72.497 151.36c-5.9573 3.207-13.976 0.80054-17.183-5.1568-3.207-5.9573-0.80054-13.976 5.1568-17.183 5.9573-3.207 13.976-0.80054 17.183 5.1568 3.2071 5.9574 0.8005 13.976-5.1568 17.183z" fill="#d65d0e" stroke-width="4.2286"/>
  <path d="m80.521 103.82c-5.9574 3.207-13.976 0.80054-17.183-5.1568-3.207-5.9573-0.80054-13.976 5.1568-17.183 5.9573-3.207 13.976-0.80054 17.183 5.1568 3.2071 5.9573 0.8005 13.976-5.1568 17.183z" fill="#458588" stroke-width="4.2286"/>
  <path d="m121.48 81.77c-5.9574 3.2071-13.976 0.80054-17.183-5.1568s-0.80054-13.976 5.1568-17.183c5.9573-3.207 13.976-0.80054 17.183 5.1568s0.80055 13.976-5.1568 17.183z" fill="#689d6a" stroke-width="4.2286"/>
  <path d="m165.58 101.25c-5.9574 3.207-13.976 0.80054-17.183-5.1568-3.207-5.9573-0.80054-13.976 5.1568-17.183 5.9573-3.207 13.976-0.80053 17.183 5.1568 3.2071 5.9574 0.80055 13.976-5.1568 17.183z" fill="#cc241d" stroke-width="4.2286"/>
  <path d="m115.43 58.006c-2.0546-0.03125-4.1168 0.42163-5.9785 1.4238-4.4822 2.413-6.9518 7.549-6.5352 12.482 0.31216-4.2547 2.67-8.3606 6.5352-10.441 1.8617-1.0022 3.924-1.4551 5.9785-1.4238 4.52 0.06874 9.0002 2.4864 11.205 6.582 0.79248 1.4721 1.2388 3.0695 1.377 4.6895 0.16704-2.2996-0.25226-4.6413-1.377-6.7305-2.2048-4.0957-6.6851-6.5133-11.205-6.582zm44.104 19.479c-2.0546-0.03125-4.1168 0.42358-5.9785 1.4258-4.4841 2.4139-6.9538 7.553-6.5352 12.488 0.31102-4.2568 2.6682-8.3656 6.5352-10.447 1.8617-1.0022 3.924-1.457 5.9785-1.4258 4.52 0.06874 9.0002 2.4864 11.205 6.582 0.79249 1.4721 1.239 3.0693 1.377 4.6895 0.16735-2.2999-0.25225-4.6413-1.377-6.7305-2.2048-4.0957-6.6851-6.5133-11.205-6.582zm-85.059 2.5703c-2.0546-0.03125-4.1188 0.42163-5.9805 1.4238-4.4823 2.413-6.9518 7.549-6.5352 12.482 0.31217-4.2547 2.67-8.3606 6.5352-10.441 1.8617-1.0022 3.9259-1.4551 5.9805-1.4238 4.52 0.06874 8.9983 2.4844 11.203 6.5801 0.79248 1.4721 1.2388 3.0693 1.377 4.6895 0.16704-2.2999-0.25226-4.6413-1.377-6.7305-2.2048-4.0957-6.6831-6.5113-11.203-6.5801zm-8.0254 47.541c-2.0546-0.0312-4.1169 0.42164-5.9785 1.4238-4.4823 2.413-6.9518 7.549-6.5352 12.482 0.31217-4.2547 2.67-8.3606 6.5352-10.441 1.8617-1.0022 3.924-1.455 5.9785-1.4238 4.52 0.0687 9.0002 2.4844 11.205 6.5801 0.79248 1.4721 1.2388 3.0693 1.377 4.6895 0.16704-2.2999-0.25225-4.6413-1.377-6.7305-2.2048-4.0957-6.6851-6.5113-11.205-6.5801z" fill="#282828" opacity=".2" stroke-width="4.2286"/>
  <path d="m221.43 88.957a4.0059 4.0059 0 0 0-2.5741 1.6686l-6.8168 9.9004 10.132 6.9748 6.8168-9.9004a4.0059 4.0059 0 0 0-1.0279-5.5731l-3.5308-2.4295a4.0059 4.0059 0 0 0-2.999-0.64074zm-11.658 14.862-24.993 36.3 10.132 6.9725 24.993-36.298zm-30.838 37.517a4.0025 4.0025 0 0 0-3.2682 0.92328l-7.7001 6.6499a4.0059 4.0059 0 0 0 0.3493 6.3318l17.211 11.847a4.0059 4.0059 0 0 0 6.0693-2.0179l3.2905-9.7402a4.0059 4.0059 0 0 0-1.5329-4.5898l-12.804-8.7546-2e-3 -2e-3a4.0025 4.0025 0 0 0-1.613-0.64742zm-13.663 17.681c-7.5292-0.31848-18.586 5.2774-23.692 15.402-9.0426 17.949-0.2645 44.207-21.558 40.438 28.776 20.186 65.657-13.245 65.089-33.588-0.1217-4.3992-1.208-8.0327-2.87-11.004z" fill="#282828" opacity=".15" stroke-width="1.1391" style="isolation:isolate"/>
  <path d="m165.3 155.31c-7.5292-0.31849-18.586 5.2776-23.691 15.403-9.0426 17.949-0.26509 44.208-21.559 40.438 28.776 20.186 65.657-13.245 65.089-33.588-0.1217-4.3992-1.2091-8.0336-2.8711-11.005z" fill="url(#b-3)" fill-rule="evenodd" stroke-width="1.6008" style="isolation:isolate"/>
  <path d="m124.06 213.59c28.078 14.739 61.652-16.614 61.109-36.026-0.12169-4.3992-1.2091-8.0336-2.8711-11.005l-16.433-10.893c-4.1361 2.6121-7.9522 6.1523-10.808 10.597-13.394 20.829-6.019 54.146-31.634 46.783 0.20856 0.18108 0.41767 0.35891 0.62687 0.53527z" fill="url(#c)" fill-rule="evenodd" stroke-width="1.6008" style="isolation:isolate"/>
  <path d="m136.05 217.24c24.804 2.5557 49.561-22.964 49.105-39.664-0.12169-4.3992-1.2091-8.0336-2.8711-11.005l-16.307-10.809c-3.2878 3.102-6.1296 6.9509-8.0087 11.437-9.2525 22.075 3.358 52.549-22.255 49.845z" fill="url(#d)" fill-rule="evenodd" stroke-width="1.6008" style="isolation:isolate"/>
  <path d="m165.88 208.03c11.516-8.4201 19.491-20.845 19.233-30.39-0.12168-4.3992-1.2091-8.0336-2.8711-11.005l-16.192-10.731c-1.6024 3.0357-2.7692 6.4197-3.2595 10.028-2.1418 15.75 7.022 32.698 3.0868 42.099z" fill="url(#e)" fill-rule="evenodd" stroke-width="1.6008" style="isolation:isolate"/>
  <path d="m183.06 187.18c1.3811-3.3316 2.1017-6.5904 2.0198-9.5699-0.12169-4.3992-1.2091-8.0336-2.8711-11.005l-15.371-10.19c0.14197 0.80695 0.32903 1.6137 0.56204 2.4159 3.3678 11.54 14.561 20.536 15.667 28.35z" fill="url(#f)" fill-rule="evenodd" stroke-width="1.6008" style="isolation:isolate"/>
  <path d="m165.3 155.31c-7.5292-0.31848-18.586 5.2774-23.692 15.402-9.0426 17.949-0.26672 44.207-21.561 40.438 2.221 1.558 4.4913 2.7967 6.7879 3.7466 12.503-2.8952 6.8601-24.839 14.739-40.478 5.1057-10.125 16.163-15.721 23.692-15.402l16.966 11.249c1.496 2.6745 2.5192 5.8924 2.7988 9.7157 0.0875-0.82214 0.12877-1.6315 0.10674-2.4184-0.12171-4.3992-1.2103-8.0327-2.8722-11.004z" fill="#ebdbb2" opacity=".2" stroke-width="1.1391" style="isolation:isolate"/>
  <path d="m209.81 100.11 10.131 6.973-24.993 36.299-10.131-6.9729zm-29.223 38.165 12.802 8.756a4.0059 4.0059 0 0 1 1.5335 4.5896l-3.291 9.7392a4.0059 4.0059 0 0 1-6.0694 2.0185l-17.211-11.847a4.0059 4.0059 0 0 1-0.34832-6.3323l7.7-6.6503a4.0025 4.0025 0 0 1 4.8806-0.27449zm31.49-41.458 6.8155-9.9008a4.0059 4.0059 0 0 1 5.5732-1.0279l3.5303 2.4301a4.0059 4.0059 0 0 1 1.0279 5.5732l-6.8153 9.8997z" fill="#665c54" fill-rule="evenodd" stroke-width="1.6008" style="isolation:isolate"/>
  <path d="m221.46 85.25a4.0059 4.0059 0 0 0-2.5741 1.6686l-6.8146 9.9004 1.7086 1.1769 5.0748-7.3708a4.0059 4.0059 0 0 1 5.5731-1.0279l3.5285 2.4317a4.0059 4.0059 0 0 1 1.2882 1.4795 4.0059 4.0059 0 0 0-1.2548-5.1882l-3.5308-2.4295a4.0059 4.0059 0 0 0-2.999-0.64074zm-11.656 14.862-24.993 36.3 1.7086 1.1769 23.251-33.768 8.4209 5.7956 1.742-2.5296zm-30.84 37.517a4.0025 4.0025 0 0 0-3.266 0.92329l-7.7 6.6499a4.0059 4.0059 0 0 0-0.90772 4.7989 4.0059 4.0059 0 0 1 0.87436-1.0924l7.7-6.6499a4.0025 4.0025 0 0 1 4.8812-0.27365h2e-3l12.802 8.7568a4.0059 4.0059 0 0 1 1.3393 1.5551l0.22693-0.67413a4.0059 4.0059 0 0 0-1.5329-4.5898l-12.802-8.7546-5e-3 -2e-3a4.0025 4.0025 0 0 0-1.613-0.64742z" fill="#ebdbb2" opacity=".1" stroke-width="1.1391" style="isolation:isolate"/>
  <path d="m91 12c-72 0-85 15-85 87v56c0 70 13 85 85 85h74c72 0 85-15 85-85v-56c0-72-13-87-85-87zm0 4h74c68 0 80 15 80 83v56c0 66-12 81-80 81h-74c-68 0-80-15-80-81v-56c0-68 12-83 80-83z" fill="url(#linearGradient31)" style="isolation:isolate"/>
</svg>
