<svg width="256" height="256" viewBox="0 0 67.73 67.73" xmlns="http://www.w3.org/2000/svg">
    <defs>
        <linearGradient id="d" x1="296" x2="296" y1="-212" y2="236" gradientUnits="userSpaceOnUse">
            <stop offset="0" stop-color="#ebdbb2"/>
            <stop offset=".125" stop-color="#ebdbb2" stop-opacity=".098"/>
            <stop offset=".925" stop-opacity=".098"/>
            <stop offset="1" stop-opacity=".498"/>
        </linearGradient>
        <clipPath id="c">
            <path d="M361.938-212C507.235-212 528-191.287 528-46.125v116.25C528 215.286 507.235 236 361.937 236H214.063C68.766 236 48 215.286 48 70.125v-116.25C48-191.287 68.765-212 214.063-212z" fill="#b16286"/>
        </clipPath>
        <filter id="b" x="-.01" y="-.01" width="1.023" height="1.025" color-interpolation-filters="sRGB">
            <feGaussianBlur stdDeviation="1.16"/>
        </filter>
        <filter id="a" x="-.02" y="-.03" width="1.046" height="1.05" color-interpolation-filters="sRGB">
            <feGaussianBlur stdDeviation="2.32"/>
        </filter>
    </defs>
    <path transform="matrix(.2697 0 0 .2697 0 2.199)" d="M162.537 5.568c72.648 0 83.031 10.357 83.031 82.938v58.125c0 72.58-10.383 82.937-83.031 82.937H88.599c-72.648 0-83.031-10.357-83.031-82.937V88.506c0-72.581 10.383-82.938 83.031-82.938z" filter="url(#a)" opacity=".2"/>
    <path d="M43.837 3.161c19.594 0 22.395 2.793 22.395 22.369v15.677c0 19.575-2.8 22.369-22.395 22.369H23.896c-19.594 0-22.394-2.794-22.394-22.37V25.53c0-19.576 2.8-22.369 22.394-22.369z" fill="none" opacity=".1" stroke-linecap="round" stroke-linejoin="round" stroke-width="1.079" stroke="#282828"/>
    <path transform="matrix(.2697 0 0 .2697 0 2.199)" d="M162.537 3.568c72.648 0 83.031 10.357 83.031 82.938v58.125c0 72.58-10.383 82.937-83.031 82.937H88.599c-72.648 0-83.031-10.357-83.031-82.937V86.506c0-72.581 10.383-82.938 83.031-82.938z" filter="url(#b)" opacity=".1"/>
    <path d="M43.837 3.161c19.594 0 22.395 2.793 22.395 22.369v15.677c0 19.575-2.8 22.369-22.395 22.369H23.896c-19.594 0-22.394-2.794-22.394-22.37V25.53c0-19.576 2.8-22.369 22.394-22.369z" fill="#fabd2f"/>
    <path d="M58.297 5.375c1.173 0 1.829.885 1.967 2.654l-.984 8.333h.363l.776-.617h.207v.185c-1.07.782-2.105 2.922-3.105 6.42-.38 3.004-1.018 5.782-1.915 8.333-.793 2.634-1.19 5.062-1.19 7.284l-1.5 4.383c0 .37.569.74 1.707 1.111-.207.864-.517 1.296-.931 1.296v.247h.362v.186c0 .452-.587.679-1.76.679l.208.246v.865h-.363c.242.864.76 1.296 1.553 1.296v.432h-1.553v.247c.518 0 .777.37.777 1.111l-2.174.864.207.247v.185c0 .288-.259.432-.776.432v.247c.655 0 .983.144.983.432-.931.37-2.156 2.202-3.674 5.494-1.552 2.922-2.898 4.383-4.036 4.383h-.414c-.863-.658-1.57-2.84-2.122-6.543-2.208-5.638-3.312-8.95-3.312-9.938 0-2.552-.707-5.268-2.121-8.149-.38-1.275-.638-2.88-.776-4.814l-.932-.247c-2.346 4.238-3.57 7.551-3.674 9.938-.655 1.4-1.173 3.086-1.552 5.062 1.414.452 2.121.884 2.121 1.296v.247c-1.104-.165-1.88-.473-2.328-.926-.483 1.111-1.122 4.197-1.915 9.26-.62 2.345-1.397 3.518-2.329 3.518-2.621-1.03-4.812-2.716-6.571-5.062-.276 0-.725-1.173-1.346-3.519-.38 0-.638-1.172-.776-3.518-1.311-3.333-2.208-7.14-2.69-11.42v-6.42H12.5l-.931.247v-.246c0-.289.31-.433.931-.433l-.207-3.703v-2.902l-.288-1.775-1.213-7.484v-3.95c.656-2.47 1.794-3.704 3.416-3.704h10.867v.432c-.863.041-1.45.268-1.76.68-.655-.454-1.293-.68-1.914-.68H19.28l-1.19.185-.207-.185h-.155l-1.553.185-.776-.185-.57.185-.62-.185c2.518 3.292 4.002 6.07 4.45 8.333h1.76v.432h-1.346v.494c.517 1.893.897 2.84 1.138 2.84h.414l.932-.247.207.247.207-.247.207.247v.185c-.69.494-1.156 1.173-1.397 2.037h-.156v.432h.363c.483 6.873 1.38 12.078 2.69 15.617l.777.618h.414c.517 0 1.604-2.408 3.26-7.223 1.07-2.18 1.845-4.094 2.328-5.74l-.207-.68c1.07-1.604 2.174-2.407 3.312-2.407h.362c.725 0 1.242.453 1.553 1.358.966 1.358 1.742 3.395 2.328 6.111l2.898 6.42c.38.453.57.967.57 1.543 1.069 2.428 2.035 4.033 2.897 4.815h.621c.725 0 1.69-3.004 2.898-9.012.207 0 .776-1.605 1.708-4.815v-.247l-3.26-.432-.777.247h-.983v-.494l1.967-.185h3.829c1.483-5.309 2.846-9.424 4.088-12.346.414-6.008.983-9.012 1.708-9.012l2.328-1.111m-11.022.679c-.207.576-.655.864-1.345.864v-.432l1.345-.432M27.766 7.165h5.227v.432l-1.19.185-1.139-.185-.983.432-.362-.432h-1.553v-.432m10.816 3.518h.569v.186c0 .288-.19.432-.57.432l-.206.247v.247l-.57-.247v-.432l.777-.433m-2.898 2.408v.247c0 .33-.828.679-2.484 1.05v-.433l1.138-.617.207.185h.156l.983-.432m-5.589 2.222v.185c-.724.659-1.897 1.255-3.519 1.79v-.432c.276 0 .414-.226.414-.679l3.105-.864m9.832 2.16l.207.247v.186l-.362.493h-.207l-.414-.493v-.186l.776-.246m7.141.246h.207v.186l-.362.493h-.207v-.246l.362-.433m-3.26 3.087l.776.617c-.138.453-.517.68-1.138.68l-.414-.68c0-.206.259-.411.776-.617m4.657 2.84l.156.246v.185l-.156.247h-.414v-.247l.414-.432m-7.348 2.223v.185l-.983.926h-.57v-.247c0-.37.518-.659 1.553-.864m-32.083 8.58h.207v.185c-.517 1.358-.966 2.181-1.345 2.47h-.414v-.927l1.552-1.728m25.304 10.308h.207v.433l-1.552.925-.207-.246v-.433l1.552-.679M13.07 47.66h.363l.62 2.407h-.413l-.57-2.222v-.185m20.7 2.84h.154l.621.678-.207.185h-.207l-.362-.617v-.247" fill="#ebdbb2"/>
    <path d="M23.896 63.576c-19.594 0-22.394-2.794-22.394-22.37v-7.838h64.73v7.839c0 19.575-2.8 22.369-22.395 22.369z" fill="#ebdbb2" opacity=".1"/>
    <path d="M33.867 3.161v60.415h9.97c19.594 0 22.395-2.794 22.395-22.37V25.53c0-19.576-2.8-22.369-22.395-22.369z" fill="#ebdbb2" opacity=".1"/>
    <path transform="matrix(.13485 0 0 .13485 -4.971 31.75)" d="M361.938-212C507.235-212 528-191.287 528-46.125v116.25C528 215.286 507.235 236 361.937 236H214.063C68.766 236 48 215.286 48 70.125v-116.25c0-30.21.9-55.031 3.634-75.397C62.037-199.012 99.004-212 214.063-212z" clip-path="url(#c)" fill="none" opacity=".4" stroke-linecap="round" stroke-linejoin="round" stroke-width="8" stroke="url(#d)"/>
</svg>
