<svg width="256" height="256" version="1.1" xmlns="http://www.w3.org/2000/svg">
  <defs>
    <linearGradient id="linearGradient31" x1=".5002" x2=".5002" y2="1" gradientTransform="matrix(244,0,0,228,5.986,12)" gradientUnits="userSpaceOnUse">
      <stop stop-color="#ebdbb2" stop-opacity=".2" offset="0"/>
      <stop stop-color="#ebdbb2" stop-opacity=".05" offset=".1"/>
      <stop stop-opacity="0" offset=".7036"/>
      <stop stop-opacity=".1" offset=".8975"/>
      <stop stop-opacity=".2" offset="1"/>
    </linearGradient>
    <linearGradient id="linearGradient26" x1="7.622" x2="62.06" y1="64.72" y2="39.48" gradientTransform="matrix(4.866 0 0 4.546 -31.4 -33.53)" gradientUnits="userSpaceOnUse">
      <stop stop-color="#b8bb26" offset=".3"/>
      <stop stop-color="#83a598" offset=".5426"/>
    </linearGradient>
    <linearGradient id="linearGradient36" x1="61.38" x2="1.313" y1="61.12" y2="1.073" gradientTransform="matrix(3.812 0 0 3.403 6 12)" gradientUnits="userSpaceOnUse">
      <stop stop-color="#83a598" offset="0"/>
      <stop stop-color="#83a598" offset=".1933"/>
      <stop stop-color="#076678" offset="1"/>
    </linearGradient>
  </defs>
  <path d="m165 12c72 0 85 15 85 87v56c0 70-13 85-85 85h-74c-72 0-85-15-85-85v-56c0-72 13-87 85-87z" fill="#3c3836" style="isolation:isolate"/>
  <path d="m152.9 12-146.9 127.8v15.22c0 62.27 10.31 81.05 63.32 84.38 56.21-26.03 132.5-71.36 180.7-119.1v-21.35c0-72-13-86.97-85-86.97z" fill="#b8bb26" stroke-width="4.536"/>
  <path d="m250 125.2-80.01 0.0195c-2.129 0-4.245 0.3197-6.263 0.9492l-122.7 31.86c-1.418 0.4417-33.29 16.93-34.53 17.64 2.882 52.39 20.23 64.33 84.49 64.33h74.02c72.02 0 84.99-14.97 84.99-84.97z" fill="url(#linearGradient26)" stroke-width="4.703"/>
  <path d="m91 12c-72 0-85 15-85 87v42.46c0 5.544 3.703 10.56 9.41 12.74 56.96 22.75 122 60.43 191.5 82.73 35.53-7.148 43.1-28.54 43.1-81.92l-3e-3 -45.44-84.19-91.39c-2.879-3.853-7.723-6.178-12.91-6.178l-43.78 0.0019z" fill="url(#linearGradient36)" stroke-width="3.602"/>
  <path d="m204.2 51.75h-152.5v152.5h152.5z" fill="#282828" stroke-width="3.812"/>
  <path d="m70.79 173.8h61v11.44h-61z" fill="#ebdbb2" stroke-width="3.812"/>
  <path d="m88.68 111.9-9.182-41.52h-11.49l13.73 56.88h12.59l9.709-41.32 9.587 41.32h12.63l13.81-56.88h-11.25l-8.897 41.52-10.24-41.52h-11.21z" fill="#ebdbb2" stroke-width="3.791"/>
  <path d="m153.1 126c3.195 1.489 6.851 2.235 10.97 2.235s7.777-0.7574 10.97-2.276c3.195-1.519 5.674-3.602 7.435-6.257 1.787-2.682 2.681-5.705 2.681-9.061 0-2.738-0.6092-5.256-1.828-7.556-1.219-2.331-2.925-4.281-5.119-5.85-2.168-1.6-4.644-2.681-7.435-3.249l-9.67-2.113c-1.76-0.431-3.156-1.162-4.185-2.194-1.003-1.032-1.504-2.331-1.504-3.9 0-1.38 0.3658-2.583 1.097-3.615 0.7312-1.056 1.747-1.87 3.047-2.437 1.326-0.5944 2.858-0.8946 4.59-0.8946s3.263 0.3089 4.59 0.9336c1.354 0.594 2.396 1.447 3.128 2.559 0.7312 1.082 1.097 2.316 1.097 3.698h11.09c-0.0265-3.249-0.8946-6.118-2.601-8.612-1.68-2.52-4.035-4.485-7.069-5.891-3.034-1.408-6.54-2.113-10.36-2.113s-7.233 0.7312-10.24 2.194c-3.006 1.436-5.347 3.452-7.028 6.053-1.678 2.575-2.518 5.485-2.518 8.734 0 2.681 0.555 5.095 1.665 7.232 1.112 2.139 2.668 3.942 4.673 5.404 2.004 1.437 4.362 2.453 7.069 3.047l10.04 2.235c1.924 0.4636 3.426 1.286 4.51 2.479 1.11 1.193 1.665 2.696 1.665 4.509 0 1.463-0.4071 2.762-1.219 3.9-0.7858 1.138-1.909 2.031-3.371 2.682-1.436 0.6247-3.034 0.9336-5.039 0.9336s-3.778-0.3506-5.321-1.056c-1.543-0.7051-2.749-1.68-3.615-2.925-0.8662-1.243-1.299-2.697-1.299-4.346h-11.13c0.0542 3.493 0.975 6.581 2.762 9.263 1.815 2.681 4.307 4.768 7.476 6.257z" fill="#ebdbb2" stroke-width="3.791"/>
  <path d="m91 12c-72 0-85 15-85 87v56c0 70 13 85 85 85h74c72 0 85-15 85-85v-56c0-72-13-87-85-87zm0 4h74c68 0 80 15 80 83v56c0 66-12 81-80 81h-74c-68 0-80-15-80-81v-56c0-68 12-83 80-83z" fill="url(#linearGradient31)" style="isolation:isolate"/>
</svg>
