<svg width="256" height="256" version="1.1" xmlns="http://www.w3.org/2000/svg" xmlns:xlink="http://www.w3.org/1999/xlink">
  <defs>
    <linearGradient id="b-3" x1=".5002" x2=".5002" y2="1" gradientTransform="matrix(244,0,0,228,5.981,12)" gradientUnits="userSpaceOnUse">
      <stop stop-color="#282828" offset="0"/>
      <stop stop-color="#3c3836" offset="1"/>
    </linearGradient>
    <linearGradient id="linearGradient31-7" x1=".5002" x2=".5002" y2="1" gradientTransform="matrix(244,0,0,228,5.986,12)" gradientUnits="userSpaceOnUse">
      <stop stop-color="#ebdbb2" stop-opacity=".2" offset="0"/>
      <stop stop-color="#ebdbb2" stop-opacity=".05" offset=".1"/>
      <stop stop-opacity="0" offset=".7036"/>
      <stop stop-opacity=".1" offset=".8975"/>
      <stop stop-opacity=".2" offset="1"/>
    </linearGradient>
    <linearGradient id="linearGradient11" x1="71" x2="62" y1="56" y2="117" gradientUnits="userSpaceOnUse">
      <stop stop-color="#458588" offset=".5"/>
      <stop stop-color="#076678" offset="1"/>
    </linearGradient>
  </defs>
  <path d="m165 12c72 0 85 15 85 87v56c0 70-13 85-85 85h-74c-72 0-85-15-85-85v-56c0-72 13-87 85-87z" fill="url(#b-3)" style="isolation:isolate"/>
  <path d="m69.31 60.451-1.399 7.845c-11.13 0.924-16.78 6.557-16.78 11.72 0 5.236 7.495 9.238 13.17 12.7l-2.065 12.46c-2.654-0.1539-5.896-0.6195-9.656-1.312l-1.475 7.931c3.17 0.385 6.117 0.6149 8.77 0.6919l-1.618 7.799 7.224 0.0763 1.399-8.18c11.13-1.078 15.48-6.297 15.48-11.46 0-5.313-6.192-9.47-11.87-13.09l2.065-12.18c2.359 0.231 5.158 0.6958 8.475 1.389l0.9615-7.931c-2.506-0.385-4.87-0.5379-7.081-0.6919l1.699-7.692zm20.86 5.209c1.002 20.19 2.467 38.04 3.546 46.88h8.48l5.937-22.46 6.242 22.46h8.638c1.079-8.848 2.62-26.69 3.622-46.88h-8.252c-0.2313 4.764-1.075 33.12-1.384 35.46h-0.2339c-2.082-7.638-3.774-14.88-5.856-22.44h-4.706c-2.004 7.562-3.392 14.27-5.474 22.44h-0.3052c-0.2313-2.344-1.545-30.7-1.699-35.46zm-22.41 9.564-1.547 9.635c-2.875-2.002-6.318-3.85-6.318-5.621 0-2.002 3.221-4.014 7.865-4.014zm0.8852 20.19c2.875 2.002 4.94 3.773 4.94 5.698 0 2.079-1.992 3.986-6.563 4.217z" fill="#1d2021" stroke-width="2.605"/>
  <path d="m69.31 56.46-1.399 7.845c-11.13 0.924-16.78 6.557-16.78 11.72 0 5.236 7.495 9.238 13.17 12.7l-2.065 12.46c-2.654-0.1539-5.896-0.6195-9.656-1.312l-1.475 7.931c3.17 0.385 6.117 0.6149 8.77 0.6919l-1.618 7.799 7.224 0.0763 1.399-8.18c11.13-1.078 15.48-6.297 15.48-11.46 0-5.313-6.192-9.47-11.87-13.09l2.065-12.18c2.359 0.231 5.158 0.6958 8.475 1.389l0.9615-7.931c-2.506-0.385-4.87-0.5379-7.081-0.6919l1.699-7.692zm20.86 5.209c1.002 20.19 2.467 38.04 3.546 46.88h8.48l5.937-22.46 6.242 22.46h8.638c1.079-8.848 2.62-26.69 3.622-46.88h-8.252c-0.2313 4.764-1.075 33.12-1.384 35.46h-0.2339c-2.082-7.638-3.774-14.88-5.856-22.44h-4.706c-2.004 7.562-3.392 14.27-5.474 22.44h-0.3052c-0.2313-2.344-1.545-30.7-1.699-35.46zm-22.41 9.564-1.547 9.635c-2.875-2.002-6.318-3.85-6.318-5.621 0-2.002 3.221-4.014 7.865-4.014zm0.8852 20.19c2.875 2.002 4.94 3.773 4.94 5.698 0 2.079-1.992 3.986-6.563 4.217z" fill="url(#linearGradient11)" stroke-width="2.605"/>
  <path d="m91 12c-72 0-85 15-85 87v56c0 70 13 85 85 85h74c72 0 85-15 85-85v-56c0-72-13-87-85-87zm0 4h74c68 0 80 15 80 83v56c0 66-12 81-80 81h-74c-68 0-80-15-80-81v-56c0-68 12-83 80-83z" fill="url(#linearGradient31-7)" style="isolation:isolate"/>
</svg>
