<svg width="256" height="256" style="isolation:isolate" version="1.1" viewBox="0 0 256 256" xmlns="http://www.w3.org/2000/svg">
  <defs>
    <linearGradient id="_lgradient_736" x1=".517" x2=".517" y2="1" gradientTransform="matrix(244.6 0 0 228.3 5.68 11.95)" gradientUnits="userSpaceOnUse">
      <stop stop-color="#ebdbb2" offset="0"/>
      <stop stop-color="#ebdbb2" stop-opacity=".098" offset=".125"/>
      <stop stop-color="#282828" stop-opacity=".098" offset=".925"/>
      <stop stop-color="#282828" stop-opacity=".498" offset="1"/>
    </linearGradient>
    <linearGradient id="_lgradient_725" x2="0" y2="1" gradientTransform="matrix(61.45 0 0 97.3 50.16 142.3)" gradientUnits="userSpaceOnUse">
      <stop stop-color="#ebdbb2" offset="0"/>
      <stop stop-color="#d5c4a1" offset="1"/>
    </linearGradient>
    <linearGradient id="_lgradient_724" x1=".5" x2=".5" y2="1" gradientTransform="matrix(244.6 0 0 228.3 5.68 11.95)" gradientUnits="userSpaceOnUse">
      <stop stop-color="#8ec07c" offset="0"/>
      <stop stop-color="#83a598" offset="1"/>
    </linearGradient>
  </defs>
  <path d="m165.7 11.95c74.06 0 84.64 10.56 84.64 84.54v59.25c0 73.99-10.58 84.54-84.64 84.54h-75.37c-74.06 0-84.64-10.56-84.64-84.54v-59.25c0-73.99 10.58-84.54 84.64-84.54z" fill="url(#_lgradient_724)" filter="url(#UmHSOtad9qh3nuqJuLSKxUs0MnWrV5q9)"/>
  <path d="m90.14 11.83c-0.789 0-1.348 0.05073-2.123 0.05273l-7.125 8.104 12.29 12.23v12.78l14.34 15.76h8.193v-8.154l12.29-12.23v-8.154l8.193-8.154v-12.23zm-23.59 0.5664c-0.429 0.023-1.006 0.0082-1.43 0.0332-3.705 0.217-7.189 0.5003-10.46 0.8633-3.272 0.364-6.332 0.8078-9.197 1.344-2.559 0.479-4.907 1.063-7.16 1.699l7.766 7.729h20.48zm-50.54 18.45c-0.107 0.152-0.2466 0.2679-0.3516 0.4219-1.217 1.788-2.3 3.732-3.266 5.848-0.965 2.115-1.811 4.402-2.551 6.871-0.74 2.469-1.374 5.121-1.914 7.969-0.54 2.849-0.9856 5.894-1.352 9.148s-0.6531 6.714-0.8711 10.4c-0.436 7.37-0.6016 15.63-0.6016 24.88v21.47l8.193 8.152h12.29l20.49 20.39v-24.46l12.29-12.23h8.193l12.29-12.23h12.29l-6.145-6.115 12.29-14.27-12.29-12.23h-18.44v16.31h-8.193l-8.195-8.156v-8.152l12.29-12.23h10.24v-8.158l-12.29-12.23h-20.48v12.23h-10.24zm225.5 2.547-2.922 2.908h-12.29l-12.29 12.23-8.193-8.156h-24.58l-12.29 12.23v10.19h12.29v-6.117h8.193v8.156l-4.098 4.074-16.38 0.2773-6.146 5.84h-8.193v8.156l-6.146 6.117v12.23h12.29l8.195-8.152h8.191v4.076l8.193 8.156h4.098v-4.08l-8.193-8.152h8.193l8.191 8.152h10.24l-6.145-6.113 6.145-6.115h6.146l6.145 6.115h-6.145l-6.146 6.113 6.035 6.006 0.1113 6.229h-8.193l24.58 24.46h4.094l4.098-4.076 8.193-8.158-8.193-8.152h12.29v-21.47c0-9.248-0.1675-17.5-0.6035-24.88-0.218-3.684-0.5031-7.144-0.8691-10.4s-0.8116-6.299-1.352-9.148c-0.54-2.848-1.174-5.5-1.914-7.969-0.739-2.469-1.585-4.756-2.551-6.871-0.614-1.347-1.365-2.511-2.08-3.723zm-35.7 80.38h-24.58l-4.098-4.078h-24.58l-14.34 14.27v20.39l10.24 10.19h14.34l6.145 6.115v6.117l4.098 4.076v24.46l15.55 16.37 25.69-25.57-0.2773-23.42 20.48-20.39h-8.195l-20.48-20.39zm-79.89-57.08v6.115h12.29l-6.145-6.115zm36.87 2.039-6.145 6.115v6.115h6.145zm-63.5 22.43-6.145 6.117h6.145l2.049 2.039h2.049l2.049-2.039zm-34.82 42.81-6.146 6.117h12.29v-6.117zm-6.146 18.35-8.195 8.154v20.39l16.44 14.34-0.05469 18.28-6.145 6.117v26.5l3.135 3.35c0.55 0.036 1.02 0.0979 1.58 0.1309 0.435 0.025 1.028 0.0111 1.469 0.0351l-0.03906-7.592 26.63-24.46v-8.156l12.29-12.23v-6.113l6.143-6.117v-16.31l-8.191-8.154h-16.39l-8.191-8.154zm170 28.54-8.193 7.604v12.79h8.193z" fill="url(#_lgradient_725)" opacity=".4"/>
  <g fill="#ebdbb2">
    <path d="m174.3 79.11a4.078 4.078 0 0 0-4.078 4.078 4.078 4.078 0 0 0 4.078 4.078 4.078 4.078 0 0 0 4.078-4.078 4.078 4.078 0 0 0-4.078-4.078zm-101.9 20.39a4.078 4.078 0 0 0-4.078 4.078 4.078 4.078 0 0 0 4.078 4.078 4.078 4.078 0 0 0 4.078-4.078 4.078 4.078 0 0 0-4.078-4.078zm81.55 40.78a4.078 4.078 0 0 0-4.078 4.078 4.078 4.078 0 0 0 4.078 4.078 4.078 4.078 0 0 0 4.078-4.078 4.078 4.078 0 0 0-4.078-4.078zm-61.16 40.78a4.078 4.078 0 0 0-4.078 4.078 4.078 4.078 0 0 0 4.078 4.078 4.078 4.078 0 0 0 4.078-4.078 4.078 4.078 0 0 0-4.078-4.078z" vector-effect="non-scaling-stroke"/>
    <path d="m174.3 79.11a4.078 4.078 0 0 0-4.078 4.078 4.078 4.078 0 0 0 4.078 4.078 4.078 4.078 0 0 0 4.078-4.078 4.078 4.078 0 0 0-4.078-4.078zm-101.9 20.39a4.078 4.078 0 0 0-4.078 4.078 4.078 4.078 0 0 0 4.078 4.078 4.078 4.078 0 0 0 4.078-4.078 4.078 4.078 0 0 0-4.078-4.078zm81.55 40.78a4.078 4.078 0 0 0-4.078 4.078 4.078 4.078 0 0 0 4.078 4.078 4.078 4.078 0 0 0 4.078-4.078 4.078 4.078 0 0 0-4.078-4.078zm-61.16 40.78a4.078 4.078 0 0 0-4.078 4.078 4.078 4.078 0 0 0 4.078 4.078 4.078 4.078 0 0 0 4.078-4.078 4.078 4.078 0 0 0-4.078-4.078z" filter="url(#CWHNMi7Lig22rQCWyDApGg36hqmfNSGT)" vector-effect="non-scaling-stroke"/>
    <path d="m74.98 12.06c-3.847 32.68-5.897 62.39-4.627 89.42-22.64-14-42.76-27.91-63.1-42.5l-1.166 1.625c20.47 14.69 40.73 28.71 63.59 42.82-22.91 8.291-44.67 19.3-65.16 34l1.166 1.625c20.38-14.63 42.03-25.57 64.87-33.81 0.8247 13.96 2.568 27.2 5.455 39.76 3.275 14.24 8.026 27.6 14.55 40.13-7.824 2.745-15.64 4.893-23.2 6.529-14.79 3.203-28.54 4.459-39.27 4.48-5.364 0.0109-9.972-0.2871-13.55-0.7988s-6.171-1.288-7.303-1.996l-1.061 1.695c1.663 1.041 4.368 1.751 8.08 2.281 3.712 0.5301 8.401 0.8294 13.84 0.8184 10.88-0.0221 24.76-1.291 39.69-4.525 7.719-1.672 15.72-3.873 23.73-6.695 10.75 19.97 26.11 37.81 47.36 53.72l1.199-1.6c-20.96-15.68-36.08-33.19-46.67-52.79 21.99-8.022 43.87-20.83 59.96-40.5 30.57 11.57 62.73 19.08 96.37 19.81l0.043-1.998c-64.02-1.391-122.8-27.53-175.5-59.65 31.53-10.92 65.29-16.79 101.1-20.04-4.98 18.85-12.58 37.1-21.87 57.02l1.812 0.8457c9.422-20.2 17.14-38.78 22.16-58.05 23.25-2.042 47.35-3.017 72.27-3.559l-0.043-2c-24.69 0.5369-48.61 1.496-71.71 3.502 5.307-21.25 7.313-43.41 4.668-69.54l-1.99 0.2012c2.651 26.18 0.6149 48.28-4.768 69.52-36.66 3.293-71.25 9.303-103.5 20.63-1.363-27.14 0.6703-57.09 4.561-90.14zm-2.424 93.13c24.91 15.23 51.21 29.15 78.83 39.79-15.82 19.1-37.31 31.61-58.93 39.46-6.506-12.44-11.23-25.71-14.5-39.9-2.853-12.4-4.579-25.51-5.398-39.35z" color="#282828" color-rendering="auto" dominant-baseline="auto" image-rendering="auto" opacity=".5" shape-rendering="auto" solid-color="#282828" stop-color="#282828" style="#ebdbb2-space:normal;font-feature-settings:normal;font-variant-alternates:normal;font-variant-caps:normal;font-variant-east-asian:normal;font-variant-ligatures:normal;font-variant-numeric:normal;font-variant-position:normal;font-variation-settings:normal;inline-size:0;isolation:auto;mix-blend-mode:normal;shape-margin:0;shape-padding:0;text-decoration-color:#282828;text-decoration-line:none;text-decoration-style:solid;text-indent:0;text-orientation:mixed;text-transform:none"/>
  </g>
  <path d="m48 104.6 14.54 14.55c36.15-36.15 94.76-36.15 130.9 0l14.54-14.55c-44.18-44.18-115.8-44.18-160 0zm58.18 58.18 21.82 21.82 21.82-21.82c-12.04-12.04-31.6-12.04-43.64 0zm-29.09-29.09 14.54 14.54c20.07-20.07 52.66-20.07 72.73 0l14.54-14.54c-28.11-28.11-73.71-28.11-101.8 0z" fill="#ebdbb2" opacity=".75"/>
  <path d="m165.1 11.95c4.328-0.01 8.656 0.04 12.98 0.138 3.875 0.078 7.751 0.226 11.63 0.452 3.453 0.196 6.905 0.481 10.35 0.854 3.059 0.335 6.118 0.786 9.148 1.346 2.715 0.502 5.4 1.14 8.046 1.916 2.4 0.698 4.751 1.562 7.023 2.584 2.115 0.943 4.141 2.063 6.059 3.35 1.84 1.238 3.561 2.653 5.135 4.215 1.564 1.572 2.98 3.282 4.219 5.119 1.289 1.916 2.41 3.94 3.364 6.042 1.023 2.28 1.889 4.618 2.597 7.005 0.777 2.643 1.417 5.325 1.918 8.037 0.561 3.026 1.013 6.072 1.348 9.127 0.374 3.439 0.659 6.878 0.856 10.33 0.226 3.861 0.373 7.732 0.462 11.59 0.088 4.323 0.138 8.646 0.128 12.96v58.21c0.01 4.323-0.04 8.636-0.128 12.96-0.089 3.871-0.236 7.732-0.462 11.59-0.197 3.448-0.482 6.897-0.856 10.33-0.335 3.055-0.787 6.111-1.348 9.137-0.501 2.702-1.141 5.384-1.918 8.027-0.708 2.387-1.574 4.735-2.597 7.005-0.954 2.112-2.075 4.126-3.364 6.042-1.239 1.837-2.655 3.557-4.219 5.119-1.574 1.562-3.295 2.977-5.135 4.215-1.918 1.287-3.944 2.407-6.059 3.35-2.272 1.022-4.623 1.886-7.023 2.594-2.646 0.776-5.331 1.414-8.046 1.906-3.03 0.569-6.089 1.011-9.148 1.346-3.443 0.373-6.895 0.658-10.35 0.854-3.875 0.226-7.751 0.374-11.63 0.462-4.328 0.088-8.656 0.138-12.98 0.128h-74.13c-4.328 0.01-8.656-0.04-12.98-0.128-3.875-0.088-7.751-0.236-11.63-0.462-3.453-0.196-6.905-0.481-10.35-0.854-3.059-0.335-6.118-0.777-9.148-1.346-2.715-0.492-5.4-1.13-8.046-1.906-2.4-0.708-4.751-1.572-7.023-2.594-2.115-0.943-4.141-2.063-6.059-3.35-1.84-1.238-3.561-2.653-5.135-4.215-1.564-1.562-2.98-3.282-4.219-5.119-1.289-1.916-2.41-3.93-3.364-6.042-1.023-2.27-1.889-4.618-2.597-7.005-0.777-2.643-1.417-5.325-1.918-8.027-0.561-3.026-1.013-6.082-1.348-9.137-0.374-3.429-0.659-6.878-0.856-10.33-0.226-3.861-0.373-7.722-0.462-11.59-0.088-4.323-0.138-8.636-0.128-12.96v-58.21c-0.01-4.313 0.04-8.636 0.128-12.96 0.089-3.861 0.236-7.732 0.462-11.59 0.197-3.448 0.482-6.887 0.856-10.33 0.335-3.055 0.787-6.101 1.348-9.127 0.501-2.712 1.141-5.394 1.918-8.037 0.708-2.387 1.574-4.725 2.597-7.005 0.954-2.102 2.075-4.126 3.364-6.042 1.239-1.837 2.655-3.547 4.219-5.119 1.574-1.562 3.295-2.977 5.135-4.215 1.918-1.287 3.944-2.407 6.059-3.35 2.272-1.022 4.623-1.886 7.023-2.584 2.646-0.776 5.331-1.414 8.046-1.916 3.03-0.56 6.089-1.011 9.148-1.346 3.443-0.373 6.895-0.658 10.35-0.854 3.875-0.226 7.751-0.374 11.63-0.452 4.328-0.098 8.656-0.148 12.98-0.138zm0.01 4.009c4.298-0.01 8.597 0.039 12.9 0.127 3.827 0.089 7.653 0.236 11.48 0.452 3.384 0.197 6.767 0.472 10.13 0.845 2.971 0.315 5.932 0.747 8.863 1.297 2.577 0.472 5.134 1.081 7.653 1.818 2.223 0.648 4.396 1.454 6.501 2.397 1.909 0.855 3.738 1.867 5.469 3.026 1.623 1.091 3.138 2.338 4.525 3.724 1.387 1.385 2.636 2.898 3.738 4.519 1.16 1.729 2.174 3.547 3.029 5.443 0.945 2.112 1.751 4.284 2.4 6.494 0.748 2.515 1.348 5.06 1.83 7.634 0.541 2.928 0.974 5.875 1.298 8.842 0.374 3.36 0.65 6.73 0.846 10.11 0.217 3.822 0.374 7.634 0.453 11.46 0.088 4.293 0.137 8.577 0.137 12.87v58.21c0 4.293-0.049 8.577-0.137 12.87-0.079 3.822-0.236 7.644-0.453 11.46-0.196 3.38-0.472 6.75-0.846 10.12-0.324 2.957-0.757 5.904-1.298 8.832-0.482 2.574-1.082 5.119-1.83 7.634-0.649 2.22-1.455 4.382-2.4 6.494-0.855 1.896-1.869 3.724-3.029 5.443-1.102 1.631-2.351 3.144-3.738 4.529-1.387 1.376-2.902 2.623-4.525 3.714-1.731 1.159-3.56 2.171-5.469 3.026-2.105 0.953-4.278 1.749-6.501 2.397-2.519 0.737-5.076 1.346-7.653 1.818-2.931 0.55-5.892 0.982-8.863 1.306-3.364 0.364-6.747 0.649-10.13 0.836-3.826 0.216-7.652 0.373-11.48 0.452-4.298 0.098-8.597 0.137-12.9 0.137h-0.01-74.13-0.01c-4.298 0-8.597-0.039-12.9-0.137-3.827-0.079-7.653-0.236-11.48-0.452-3.384-0.187-6.767-0.472-10.13-0.836-2.971-0.324-5.932-0.756-8.863-1.306-2.577-0.472-5.134-1.081-7.653-1.818-2.223-0.648-4.396-1.444-6.501-2.397-1.909-0.855-3.738-1.867-5.469-3.026-1.623-1.091-3.138-2.338-4.525-3.714-1.387-1.385-2.636-2.898-3.738-4.529-1.16-1.719-2.174-3.547-3.029-5.443-0.945-2.112-1.751-4.274-2.4-6.494-0.748-2.515-1.348-5.06-1.83-7.634-0.541-2.928-0.974-5.875-1.298-8.832-0.374-3.37-0.649-6.74-0.846-10.12-0.217-3.812-0.374-7.634-0.453-11.46-0.088-4.293-0.137-8.577-0.137-12.87v-58.21c0-4.293 0.049-8.577 0.137-12.87 0.079-3.822 0.236-7.634 0.453-11.46 0.197-3.38 0.472-6.75 0.846-10.11 0.324-2.967 0.757-5.914 1.298-8.842 0.482-2.574 1.082-5.119 1.83-7.634 0.649-2.21 1.455-4.382 2.4-6.494 0.855-1.896 1.869-3.714 3.029-5.443 1.102-1.621 2.351-3.134 3.738-4.519 1.387-1.386 2.902-2.633 4.525-3.724 1.731-1.159 3.56-2.171 5.469-3.026 2.105-0.943 4.278-1.749 6.501-2.397 2.519-0.737 5.076-1.346 7.653-1.818 2.931-0.55 5.892-0.982 8.863-1.297 3.364-0.373 6.747-0.648 10.13-0.845 3.826-0.216 7.652-0.363 11.48-0.452 4.298-0.088 8.597-0.137 12.9-0.127h0.01 74.13 0.01z" fill="url(#_lgradient_736)" fill-rule="evenodd" opacity=".4"/>
</svg>
