<svg width="256" height="256" version="1.1" xmlns="http://www.w3.org/2000/svg">
  <defs>
    <linearGradient id="linearGradient31" x1=".5002" x2=".5002" y2="1" gradientTransform="matrix(244,0,0,228,5.986,12)" gradientUnits="userSpaceOnUse">
      <stop stop-color="#ebdbb2" stop-opacity=".2" offset="0"/>
      <stop stop-color="#ebdbb2" stop-opacity=".05" offset=".1"/>
      <stop stop-opacity="0" offset=".7036"/>
      <stop stop-opacity=".1" offset=".8975"/>
      <stop stop-opacity=".2" offset="1"/>
    </linearGradient>
    <linearGradient id="linearGradient6" x1="140" x2="140" y1="12" y2="240" gradientUnits="userSpaceOnUse">
      <stop stop-color="#cc241d" offset="0"/>
      <stop stop-color="#9d0006" offset="1"/>
    </linearGradient>
    <linearGradient id="b-9-6" x1=".6312" x2=".6312" y1=".4998" y2=".9998" gradientTransform="matrix(244,0,0,228,5.995,12)" gradientUnits="userSpaceOnUse">
      <stop stop-color="#b16286" offset="0"/>
      <stop stop-color="#b16286" offset="1"/>
    </linearGradient>
  </defs>
  <path d="m165 12c72 0 85 15 85 87v56c0 70-13 85-85 85h-74c-72 0-85-15-85-85v-56c0-72 13-87 85-87z" fill="url(#linearGradient6)" style="isolation:isolate"/>
  <path class="ColorScheme-Text" d="m134.4 53.591c-4.54-0.0105-8.033 0.7461-9.476 2.362-2.289 2.564-7.56 21.68-14.14 50.9-4.745 21.03-1.445 33.29 1.797 39.85 4.145 8.39 7.37 13.43 0.8197 30.18-4.745 12.13-9.583 12.13-14.08 12.7-10.83-2.635-19.01-2.726-20.08 0.2385-1.461 4.055 10.9 14.59 27.6 20.68 16.7 6.083 31.43 7.734 32.9 3.679 1.071-2.974-5.304-8.18-15.36-13.15-4.414-4.6-8.38-7.805-4.884-22.06 6.839-27.87 17.27-18.3 29.56-35.63 10.43-14.7 13.2-25.98 19.23-43.2 6.398-18.25 9.204-26.7 8.376-28.37-5.578-11.24-28.64-18.15-42.26-18.19zm-15.59 37.12c6.591 7.295 12.61 11.5 18.04 11.72 13.4 0.5344 23.2-14.86 29.15-7.05-2.868 9.526-20.15 67.22-43.18 56.91-19.08-8.412-8.036-51.32-4.009-61.58z" color="#ebdbb2" fill="#282828" opacity=".3" stroke-width="5.553"/>
  <path class="ColorScheme-Text" d="m134.4 49.131c-4.54-0.01053-8.033 0.7461-9.476 2.362-2.289 2.564-7.56 21.68-14.14 50.9-4.745 21.03-1.445 33.29 1.797 39.85 4.145 8.39 7.37 13.43 0.8197 30.18-4.745 12.13-9.583 12.13-14.08 12.7-10.83-2.635-19.01-2.726-20.08 0.2385-1.461 4.055 10.9 14.59 27.6 20.68 16.7 6.083 31.43 7.734 32.9 3.679 1.071-2.974-5.304-8.18-15.36-13.15-4.414-4.6-8.38-7.805-4.884-22.06 6.839-27.87 17.27-18.3 29.56-35.63 10.43-14.7 13.2-25.98 19.23-43.2 6.398-18.25 9.204-26.7 8.376-28.37-5.578-11.24-28.64-18.15-42.26-18.19zm-15.59 37.12c6.591 7.295 12.61 11.5 18.04 11.72 13.4 0.5344 23.2-14.86 29.15-7.049-2.868 9.526-20.15 67.22-43.18 56.91-19.08-8.412-8.036-51.32-4.009-61.58z" color="#ebdbb2" fill="currentColor" stroke-width="5.553"/>
  <path class="ColorScheme-Text" d="m134.4 49.12-2e-3 0.01172c-4.54-0.01053-8.0336 0.74543-9.4766 2.3613-2.289 2.564-7.5606 21.68-14.141 50.9-1.9306 8.5562-2.5153 15.639-2.3281 21.498 0.17071-4.9074 0.86477-10.553 2.3281-17.039 6.58-29.22 11.852-48.336 14.141-50.9 1.443-1.6159 4.9366-2.3719 9.4766-2.3613l2e-3 -0.01172c13.36 0.03924 35.793 6.6927 41.91 17.555 0.46757-1.9913 0.61231-3.2944 0.34961-3.8242-5.578-11.24-28.64-18.149-42.26-18.189zm30.557 45.166c-4.6088 14.893-20.837 63.081-42.139 53.545-7.7174-3.4025-10.463-12.468-10.781-22.715-0.38863 12.006 1.9566 23.285 10.781 27.176 3.1468 1.4088 6.1817 1.5119 9.0918 0.67773 2.6598-1.7764 5.5135-3.1522 8.5332-5.3066 13.869-13.338 23.481-45.394 25.555-52.281-0.33455-0.43919-0.68216-0.79628-1.041-1.0957zm-47.941 64.578c-0.31956 3.5722-1.3981 7.884-3.6172 13.559-4.745 12.13-9.5831 12.129-14.08 12.699-10.83-2.635-19.01-2.7243-20.08 0.24024-0.31157 0.86478 0.0389 2.0346 0.89258 3.3828 2.5768-1.8049 9.8998-1.4218 19.188 0.83789 4.497-0.57 9.3351-0.57117 14.08-12.701 3.2254-8.2477 4.0748-13.65 3.6172-18.018zm1.2578 27.006c-0.77881 8.5969 2.5144 11.418 6.1055 15.16 6.9641 3.4419 12.157 6.9952 14.34 9.8438 0.49325-0.31537 0.85242-0.69333 1.0195-1.1543 1.071-2.974-5.3034-8.1784-15.359-13.148-2.8803-3.0016-5.5555-5.4297-6.1055-10.701z" fill="#fbf1c7" opacity=".6"/>
  <g transform="translate(0 .0497)" style="isolation:isolate">
    <path d="m128.5 240-2.532 1e-5 -0.335-29.11c0-74.81 11.01-85.35 85.89-85.35l38.44-0.0223-1e-3 0.532" fill="#32302f" opacity=".3" stroke-width="1.011" style="isolation:isolate"/>
    <path d="m250 126-28.95 0.3203c-78.35 0.8665-91.85 4.404-92.94 79.55-0.3323 11.37-0.0757 22.72 0.4277 34.08 1.9e-4 4e-3 36.19 4e-3 36.45 4e-3 72 0 85-15 85-85z" fill="url(#b-9-6)" style="isolation:isolate"/>
    <path d="m206.8 185.01 17.47-17.47c2.743-2.745 2.746-7.238 0-9.981l-5.491-5.492c-2.743-2.744-7.237-2.744-9.982 1e-3l-17.47 17.47-17.47-17.47c-2.745-2.745-7.238-2.745-9.983-1e-3l-5.489 5.492c-2.745 2.743-2.745 7.236 0 9.98l17.47 17.47-17.47 17.47c-2.745 2.746-2.745 7.239 0 9.982l5.489 5.491c2.745 2.748 7.238 2.746 9.983 0l17.47-17.47 17.47 17.47c2.745 2.746 7.241 2.748 9.983 0l5.49-5.491c2.747-2.743 2.745-7.236 0-9.982z" fill="#282828" opacity=".3" style="isolation:isolate"/>
    <path d="m206.8 181 17.47-17.47c2.743-2.745 2.746-7.238 0-9.981l-5.491-5.492c-2.743-2.744-7.237-2.744-9.982 1e-3l-17.47 17.47-17.47-17.47c-2.745-2.745-7.238-2.745-9.983-1e-3l-5.489 5.492c-2.745 2.743-2.745 7.236 0 9.98l17.47 17.47-17.47 17.47c-2.745 2.746-2.745 7.239 0 9.982l5.489 5.491c2.745 2.748 7.238 2.746 9.983 0l17.47-17.47 17.47 17.47c2.745 2.746 7.241 2.748 9.983 0l5.49-5.491c2.747-2.743 2.745-7.236 0-9.982z" fill="#ebdbb2" style="isolation:isolate"/>
    <path d="m168.86 146c-1.8095-1.3e-4 -3.6197 0.68659-4.9922 2.0586l-5.4883 5.4922c-1.8852 1.8838-2.4756 4.591-1.7715 6.9922 0.32117-1.0951 0.91165-2.1252 1.7715-2.9844l5.4883-5.4922c2.745-2.744 7.2394-2.745 9.9844 0l17.469 17.471 17.471-17.471c2.745-2.745 7.2394-2.744 9.9824 0l5.4902 5.4922c0.86063 0.85969 1.4506 1.8905 1.7715 2.9863 0.70432-2.4015 0.11436-5.1104-1.7715-6.9941l-5.4902-5.4922c-2.743-2.744-7.2374-2.745-9.9824 0l-17.471 17.471-17.469-17.471c-1.3725-1.3725-3.1827-2.0585-4.9922-2.0586zm4.9863 37.004-15.467 15.467c-1.8852 1.8858-2.4756 4.595-1.7715 6.9961 0.32105-1.0962 0.91117-2.1276 1.7715-2.9883l17.471-17.471zm34.953 2e-3 -2.0039 2.0039 17.469 17.469c0.86139 0.86171 1.4524 1.8945 1.7734 2.9922 0.70588-2.402 0.11268-5.1132-1.7734-7z" fill="#fbf1c7" opacity=".6" style="isolation:isolate"/>
  </g>
  <path d="m91 12c-72 0-85 15-85 87v56c0 70 13 85 85 85h74c72 0 85-15 85-85v-56c0-72-13-87-85-87zm0 4h74c68 0 80 15 80 83v56c0 66-12 81-80 81h-74c-68 0-80-15-80-81v-56c0-68 12-83 80-83z" fill="url(#linearGradient31)" style="isolation:isolate"/>
</svg>
