<svg width="256" height="256" viewBox="0 0 67.73 67.73" xmlns="http://www.w3.org/2000/svg">
    <defs>
        <clipPath id="f">
            <path d="M361.938-212C507.235-212 528-191.287 528-46.125v116.25C528 215.286 507.235 236 361.937 236H214.063C68.766 236 48 215.286 48 70.125v-116.25C48-191.287 68.765-212 214.063-212z" fill="#b16286"/>
        </clipPath>
        <filter id="b" x="-.01" y="-.01" width="1.023" height="1.025" color-interpolation-filters="sRGB">
            <feGaussianBlur stdDeviation="1.16"/>
        </filter>
        <filter id="a" x="-.02" y="-.03" width="1.046" height="1.05" color-interpolation-filters="sRGB">
            <feGaussianBlur stdDeviation="2.32"/>
        </filter>
        <linearGradient id="g" x1="296" x2="296" y1="-212" y2="236" gradientUnits="userSpaceOnUse">
            <stop offset="0" stop-color="#ebdbb2"/>
            <stop offset=".125" stop-color="#ebdbb2" stop-opacity=".098"/>
            <stop offset=".925" stop-opacity=".098"/>
            <stop offset="1" stop-opacity=".498"/>
        </linearGradient>
        <radialGradient id="d" cx="34.115" cy="282.914" r="32.388" gradientTransform="matrix(1.29327 -.90987 .6284 .88575 -187.588 60.016)" gradientUnits="userSpaceOnUse">
            <stop offset="0" stop-color="#665c54"/>
            <stop offset=".5" stop-color="#665c54"/>
            <stop offset="1" stop-color="#665c54"/>
        </radialGradient>
        <filter id="e" x="-.6" y="-.11" width="2.198" height="1.212" color-interpolation-filters="sRGB">
            <feGaussianBlur stdDeviation="2.03"/>
        </filter>
        <linearGradient id="c" x1="18.521" x2="15.875" y1="254.667" y2="244.083" gradientUnits="userSpaceOnUse">
            <stop offset="0" stop-color="#ebdbb2"/>
            <stop offset="1" stop-color="#ebdbb2"/>
        </linearGradient>
    </defs>
    <path transform="matrix(.2697 0 0 .2697 -7.129 -8.706)" d="M188.969 46C261.617 46 272 56.357 272 128.938v58.125c0 72.58-10.383 82.937-83.031 82.937H115.03C42.383 270 32 259.643 32 187.062v-58.125C32 56.358 42.383 46 115.031 46z" filter="url(#a)" opacity=".2"/>
    <path transform="matrix(.2697 0 0 .2697 -7.129 -8.706)" d="M188.969 44C261.617 44 272 54.357 272 126.938v58.124C272 257.644 261.617 268 188.969 268H115.03C42.383 268 32 257.643 32 185.062v-58.125C32 54.358 42.383 44 115.031 44z" filter="url(#b)" opacity=".1"/>
    <path d="M23.896 232.428c-9.797 0-15.394.697-18.545 3.843-3.15 3.146-3.85 8.737-3.85 18.526v15.676c0 9.788.7 15.38 3.85 18.526 3.15 3.146 8.748 3.843 18.545 3.843h19.941c9.798 0 15.395-.697 18.545-3.843 3.15-3.147 3.85-8.738 3.85-18.526v-15.676c0-9.789-.7-15.38-3.85-18.526-3.15-3.146-8.747-3.843-18.545-3.843z" fill="url(#c)" transform="translate(0 -229.267)"/>
    <path d="M1.502 40.667v.54c0 9.788.699 15.379 3.85 18.525 3.15 3.147 8.747 3.844 18.544 3.844h19.941c9.798 0 15.395-.697 18.545-3.844 3.15-3.146 3.85-8.737 3.85-18.525v-.54c0 9.788-.7 15.38-3.85 18.526-3.15 3.146-8.747 3.843-18.545 3.843H23.896c-9.797 0-15.394-.697-18.545-3.843-3.15-3.147-3.85-8.738-3.85-18.526z" fill="#282828" opacity=".2"/>
    <path d="M1.588 255.525v15.037c0 2.43.044 4.6.158 6.535.058.968.133 1.878.229 2.732.096.855.213 1.655.355 2.403.141.748.307 1.445.501 2.094.195.649.417 1.249.67 1.805.254.555.539 1.066.859 1.536.32.47.674.899 1.067 1.29.392.39.823.742 1.295 1.06.472.318.987.601 1.545.853.559.253 1.162.473 1.814.666.653.194 1.353.359 2.105.5s1.557.257 2.416.352c.859.096 1.773.17 2.746.227 1.946.114 4.126.157 6.568.157H43.8c2.442 0 4.622-.043 6.568-.157a52.909 52.909 0 0 0 2.746-.227 32.84 32.84 0 0 0 2.416-.352c.752-.141 1.453-.306 2.105-.5.652-.193 1.255-.413 1.814-.666s1.073-.535 1.545-.853c.472-.318.903-.67 1.295-1.06.393-.391.748-.82 1.067-1.29.32-.47.605-.98.858-1.536.254-.556.476-1.156.67-1.805.195-.649.36-1.346.502-2.094.142-.748.26-1.548.355-2.403.096-.854.171-1.764.229-2.732.114-1.936.158-4.105.158-6.535v-15.566c0-.642.052-3.715.045-4.322-7.965-15.024-36.408 26.963-64.585 4.851z" fill="url(#d)" transform="translate(0 -229.267)"/>
    <path d="M16.187 239.18a22.536 22.536 0 0 0-2.236 3.443c-2.652 4.981-4.262 11.78-4.262 19.284s1.61 14.304 4.262 19.285c.8 1.5 1.7 2.84 2.686 3.984l1.184-.732c-.959-1.083-1.851-2.39-2.655-3.899-2.516-4.724-4.102-11.333-4.102-18.638s1.586-13.913 4.102-18.637a21.328 21.328 0 0 1 2.032-3.155l-1.01-.935z" fill="#ebdbb2" filter="url(#e)" opacity=".87" transform="translate(0 -229.267)"/>
    <path transform="matrix(.13485 0 0 .13485 -4.971 31.75)" d="M361.938-212C507.235-212 528-191.287 528-46.125v116.25C528 215.286 507.235 236 361.937 236H214.063C68.766 236 48 215.286 48 70.125v-116.25C48-191.287 68.765-212 214.063-212z" clip-path="url(#f)" fill="none" opacity=".4" stroke-linecap="round" stroke-linejoin="round" stroke-width="8" stroke="url(#g)"/>
</svg>
