<svg width="256" height="256" version="1.1" xmlns="http://www.w3.org/2000/svg">
  <linearGradient id="b" x1=".5002" x2=".5002" y2="1" gradientTransform="matrix(244,0,0,228,5.981,12)" gradientUnits="userSpaceOnUse">
    <stop stop-color="#ebdbb2" offset="0"/>
    <stop stop-color="#ebdbb2" offset="1"/>
  </linearGradient>
  <defs>
    <linearGradient id="linearGradient31" x1=".5002" x2=".5002" y2="1" gradientTransform="matrix(244,0,0,228,5.988,12)" gradientUnits="userSpaceOnUse">
      <stop stop-color="#282828" stop-opacity=".1" offset="0"/>
      <stop stop-color="#bdae93" stop-opacity=".1" offset=".1"/>
      <stop stop-color="#d5c4a1" stop-opacity="0" offset=".7022"/>
      <stop stop-color="#bdae93" stop-opacity=".302" offset=".9"/>
      <stop stop-color="#282828" stop-opacity=".15" offset="1"/>
    </linearGradient>
  </defs>
  <path d="m165 12c72 0 85 15 85 87v56c0 70-13 85-85 85h-74c-72 0-85-15-85-85v-56c0-72 13-87 85-87z" fill="url(#b)" style="isolation:isolate"/>
  <path class="ColorScheme-Text" d="m55.468 57.946c-10.046 0-18.133 8.0874-18.133 18.133l90.666 63.466 90.666-63.466c0-10.046-8.0874-18.133-18.133-18.133zm17.85 18.133h109.37l-54.683 42.465zm-35.983 18.133v90.654c0 10.046 8.0874 18.133 18.133 18.133h145.06c10.046 0 16.478-8.2234 18.133-18.133v-90.654l-90.666 63.466zm18.133 31.552 63.398 47.565c5.6462 3.2934 12.625 3.2934 18.269 0l63.398-47.565v59.103h-145.06z" color="#ebdbb2" fill="#fbf1c7" opacity=".4" stroke-width="11.333"/>
  <path class="ColorScheme-Text" d="m55.468 52.946c-10.046 0-18.133 8.0874-18.133 18.133l90.666 63.466 90.666-63.466c0-10.046-8.0874-18.133-18.133-18.133zm17.85 18.133h109.37l-54.683 42.465zm-35.983 18.133v90.654c0 10.046 8.0874 18.133 18.133 18.133h145.06c10.046 0 16.478-8.2234 18.133-18.133v-90.654l-90.666 63.466zm18.133 31.552 63.398 47.565c5.6462 3.2934 12.625 3.2934 18.269 0l63.398-47.565v59.103h-145.06z" color="#ebdbb2" fill="#fb4934" stroke-width="11.333"/>
  <path class="ColorScheme-Text" d="m55.467 52.946c-10.046 0-18.133 8.0871-18.133 18.133l0.60156 0.42188c2.0214-7.811 9.071-13.555 17.531-13.555h145.07c8.4602 0 15.51 5.7437 17.531 13.555l0.60157-0.42188c0-10.046-8.0871-18.133-18.133-18.133zm17.85 23.133 54.684 42.465 54.684-42.465h-6.4394l-48.244 37.465-48.244-37.465zm-35.982 13.133v5l90.666 63.465 90.666-63.465v-5l-90.666 63.465zm18.133 90.654v5h145.07v-5z" color="#ebdbb2" fill="#282828" opacity=".2" stroke-width="11.333"/>
  <path d="m91 12c-72 0-85 15-85 87v56c0 70 13 85 85 85h74c72 0 85-15 85-85v-56c0-72-13-87-85-87zm0 4h74c68 0 80 15 80 83v56c0 66-12 81-80 81h-74c-68 0-80-15-80-81v-56c0-68 12-83 80-83z" fill="url(#linearGradient31)" style="isolation:isolate"/>
</svg>
