<svg width="256" height="256" viewBox="0 0 67.73 67.73" xmlns="http://www.w3.org/2000/svg">
    <defs>
        <linearGradient id="c" x1="160.625" x2="161.193" y1="34.398" y2="283.558" gradientTransform="matrix(.2697 0 0 .2697 -7.129 220.56)" gradientUnits="userSpaceOnUse">
            <stop offset="0" stop-color="#fabd2f"/>
            <stop offset="1" stop-color="#fb4934"/>
        </linearGradient>
        <filter id="b" x="-.02" y="-.03" width="1.046" height="1.05" color-interpolation-filters="sRGB">
            <feGaussianBlur stdDeviation="2.32"/>
        </filter>
        <filter id="a" x="-.01" y="-.01" width="1.023" height="1.025" color-interpolation-filters="sRGB">
            <feGaussianBlur stdDeviation="1.16"/>
        </filter>
        <linearGradient id="e" x1="296" x2="296" y1="-212" y2="236" gradientUnits="userSpaceOnUse">
            <stop offset="0" stop-color="#ebdbb2"/>
            <stop offset=".125" stop-color="#ebdbb2" stop-opacity=".098"/>
            <stop offset=".925" stop-opacity=".098"/>
            <stop offset="1" stop-opacity=".498"/>
        </linearGradient>
        <clipPath id="d">
            <path d="M361.938-212C507.235-212 528-191.287 528-46.125v116.25C528 215.286 507.235 236 361.937 236H214.063C68.766 236 48 215.286 48 70.125v-116.25C48-191.287 68.765-212 214.063-212z" fill="#b16286"/>
        </clipPath>
    </defs>
    <path d="M43.837 3.161c19.594 0 22.395 2.793 22.395 22.369v15.677c0 19.575-2.8 22.369-22.395 22.369H23.896c-19.594 0-22.394-2.794-22.394-22.37V25.53c0-19.576 2.8-22.369 22.394-22.369z" fill="none" opacity=".115" stroke-linecap="round" stroke-linejoin="round" stroke-width="1.079" stroke="#282828"/>
    <path transform="matrix(.2697 0 0 .2697 -7.129 -8.706)" d="M188.969 44C261.617 44 272 54.357 272 126.938v58.124C272 257.644 261.617 268 188.969 268H115.03C42.383 268 32 257.643 32 185.062v-58.125C32 54.358 42.383 44 115.031 44z" filter="url(#a)" opacity=".1"/>
    <path transform="matrix(.2697 0 0 .2697 -7.129 -8.706)" d="M188.969 46C261.617 46 272 56.357 272 128.938v58.125c0 72.58-10.383 82.937-83.031 82.937H115.03C42.383 270 32 259.643 32 187.062v-58.125C32 56.358 42.383 46 115.031 46z" filter="url(#b)" opacity=".2"/>
    <path d="M43.837 232.428c19.594 0 22.395 2.793 22.395 22.369v15.676c0 19.576-2.8 22.37-22.395 22.37H23.896c-19.594 0-22.394-2.794-22.394-22.37v-15.676c0-19.576 2.8-22.37 22.394-22.37z" fill="url(#c)" transform="translate(0 -229.267)"/>
    <path d="M.953 33.295v7.966c0 19.893 2.846 22.731 22.76 22.731h20.27c19.914 0 22.76-2.838 22.76-22.731v-7.966z" fill="#ebdbb2" opacity=".25"/>
    <path d="M35.716 63.992h9.222c2.38 0 4.506-.044 6.403-.16.949-.059 1.84-.135 2.678-.233a30.64 30.64 0 0 0 2.354-.36 19.758 19.758 0 0 0 2.052-.512 13.466 13.466 0 0 0 1.77-.682 10.063 10.063 0 0 0 1.505-.873 8.662 8.662 0 0 0 2.303-2.404c.311-.481.589-1.004.836-1.573s.464-1.183.653-1.847c.19-.664.351-1.377.49-2.143.138-.766.252-1.585.346-2.46.093-.874.166-1.805.222-2.796.112-1.981.154-4.201.154-6.688V25.33c0-2.487-.042-4.707-.154-6.688a55.84 55.84 0 0 0-.222-2.797 34.675 34.675 0 0 0-.346-2.459c-.139-.766-.3-1.48-.49-2.143a14.859 14.859 0 0 0-.653-1.848c-.247-.568-.525-1.091-.836-1.572s-.657-.919-1.04-1.318c-.383-.4-.803-.76-1.263-1.086-.46-.325-.961-.615-1.506-.873a13.466 13.466 0 0 0-1.769-.682 19.758 19.758 0 0 0-2.052-.511 30.62 30.62 0 0 0-2.354-.362 49.116 49.116 0 0 0-2.678-.232c-1.897-.116-4.022-.16-6.403-.16h-9.222z" fill="#ebdbb2" opacity=".25"/>
    <path d="M20.05 6.91L9.24 17.72l1.235 1.234L24.89 33.37 9.24 49.017l10.808 10.809 15.649-15.649 15.648 15.649 10.81-10.809L46.509 33.37 62.157 17.72 51.347 6.91l-15.65 15.648L20.05 6.91zm0 2.47l15.648 15.65L51.347 9.38l8.339 8.34-15.649 15.649 15.649 15.648-8.34 8.34-15.648-15.65-15.649 15.65-8.339-8.34 15.65-15.648-15.65-15.65 8.34-8.338z"/>
    <path d="M15.215 55.978h-5.89v-9.424h11.78v2.356h-8.246v4.712h8.246v2.356zm8.246 0v-11.78h3.534v2.356h9.424v9.424h-3.534V48.91h-5.89v7.068H23.46zm19.437 0h-4.123v-9.424h12.958v3.534h1.178v5.89h-3.534V48.91h-7.068v4.712h4.712v2.356zm15.314 0h-2.945V48.91h-1.178v-2.356h2.356v-2.356H58.8v2.356h2.356v2.356H58.8v4.712h2.356v2.356z" fill="#282828" opacity=".716"/>
    <path d="M13.822 54.534h-5.89V45.11h11.78v2.356h-8.246v4.712h8.246v2.356zm8.246 0v-11.78h3.534v2.356h9.424v9.424h-3.534v-7.068h-5.89v7.068h-3.534zm19.437 0h-4.123V45.11H50.34v3.534h1.178v5.89h-3.534v-7.068h-7.068v4.712h4.712v2.356zm15.314 0h-2.945v-7.068h-1.178V45.11h2.356v-2.356h2.356v2.356h2.356v2.356h-2.356v4.712h2.356v2.356z" fill="#ebdbb2"/>
    <path transform="matrix(.13485 0 0 .13485 -4.971 31.75)" d="M361.938-212C507.235-212 528-191.287 528-46.125v116.25C528 215.286 507.235 236 361.937 236H214.063C68.766 236 48 215.286 48 70.125v-116.25C48-191.287 68.765-212 214.063-212z" clip-path="url(#d)" fill="none" opacity=".6" stroke-linecap="round" stroke-linejoin="round" stroke-width="8" stroke="url(#e)"/>
</svg>
