<svg width="256" height="256" version="1.1" xmlns="http://www.w3.org/2000/svg">
  <defs>
    <linearGradient id="linearGradient10" x1="128" x2="128" y1="12" y2="240" gradientUnits="userSpaceOnUse">
      <stop stop-color="#ebdbb2" stop-opacity=".2" offset="0"/>
      <stop stop-color="#ebdbb2" stop-opacity="0" offset=".24921"/>
      <stop stop-color="#1d2021" stop-opacity=".05" offset=".50485"/>
      <stop stop-color="#1d2021" stop-opacity=".2" offset=".75285"/>
      <stop stop-color="#1d2021" stop-opacity=".6" offset="1"/>
    </linearGradient>
    <linearGradient id="linearGradient15" x1="128" x2="128" y1="12" y2="240" gradientUnits="userSpaceOnUse">
      <stop stop-color="#458588" offset="0"/>
      <stop stop-color="#076678" offset="1"/>
    </linearGradient>
  </defs>
  <path d="m165 12c72 0 85 15 85 87v56c0 70-13 85-85 85h-74c-72 0-85-15-85-85v-56c0-72 13-87 85-87z" fill="url(#linearGradient15)" style="isolation:isolate"/>
  <path d="m9.918 201.15c7.715 30.975 28.907 38.852 81.082 38.852h74c52.175 0 73.367-7.8764 81.082-38.852z" fill="#3c3836" opacity=".8" style="isolation:isolate"/>
  <path d="m54.271 207.83c-2.334 0-4.2285 1.8936-4.2285 4.2266v10.76c0 2.333 1.8945 4.2266 4.2285 4.2266h60.74c2.333 0 4.2266-1.8936 4.2266-4.2266v-10.76c0-2.333-1.8936-4.2266-4.2266-4.2266h-60.74zm86.719 0c-2.333 0-4.2266 1.8936-4.2266 4.2266v10.76c0 2.333 1.8936 4.2266 4.2266 4.2266h60.74c2.333 0 4.2266-1.8936 4.2266-4.2266v-10.76c0-2.333-1.8936-4.2266-4.2266-4.2266h-60.74z" fill="#83a598" opacity=".37131" style="isolation:isolate"/>
  <path d="m54.271 207.83c-2.334 0-4.2285 1.8936-4.2285 4.2266v1.9473c0-2.333 1.8945-4.2266 4.2285-4.2266h60.74c2.333 0 4.2266 1.8936 4.2266 4.2266v-1.9473c0-2.333-1.8936-4.2266-4.2266-4.2266zm86.719 0c-2.333 0-4.2266 1.8936-4.2266 4.2266v1.9473c0-2.333 1.8936-4.2266 4.2266-4.2266h60.74c2.333 0 4.2266 1.8936 4.2266 4.2266v-1.9473c0-2.333-1.8936-4.2266-4.2266-4.2266z" fill="#ebdbb2" opacity=".1" style="isolation:isolate"/>
  <path d="m119.24 222.81c0 2.333-1.8936 4.2266-4.2266 4.2266h-60.74c-2.333 0-4.2269-1.891-4.2285-4.2226v1.9434c0 2.333 1.8945 4.2266 4.2285 4.2266h60.74c2.333 0 4.2266-1.8936 4.2266-4.2266zm17.525 0v1.9473c0 2.333 1.8936 4.2266 4.2266 4.2266h60.74c2.333 0 4.2266-1.8936 4.2266-4.2266v-1.9473c0 2.333-1.8936 4.2266-4.2266 4.2266h-60.74c-2.333 0-4.2266-1.8936-4.2266-4.2266z" fill="#282828" opacity=".5" style="isolation:isolate"/>
  <path d="m58.037 211.52c-4.94 0-5.6465 0.70462-5.6465 5.6406v3.9512c0 4.936 0.70648 5.6406 5.6465 5.6406h5.0274c4.94 0 5.6465-0.70463 5.6465-5.6406v-3.9512c0-4.936-0.70648-5.6406-5.6465-5.6406zm86.547 0c-4.94 0-5.6465 0.70462-5.6465 5.6406v3.9512c0 4.936 0.70648 5.6406 5.6465 5.6406h5.0274c4.94 0 5.6465-0.70463 5.6465-5.6406v-3.9512c0-4.936-0.70648-5.6406-5.6465-5.6406z" fill="#282828" opacity=".3" style="isolation:isolate"/>
  <path d="m58.037 209.82c-4.94 0-5.6465 0.70462-5.6465 5.6406v3.9512c0 4.936 0.70648 5.6406 5.6465 5.6406h5.0273c4.94 0 5.6465-0.70463 5.6465-5.6406v-3.9512c0-4.936-0.70649-5.6406-5.6465-5.6406h-5.0273zm86.547 0c-4.94 0-5.6465 0.70462-5.6465 5.6406v3.9512c0 4.936 0.70648 5.6406 5.6465 5.6406h5.0274c4.94 0 5.6465-0.70463 5.6465-5.6406v-3.9512c0-4.936-0.70648-5.6406-5.6465-5.6406h-5.0274z" fill="#d5c4a1" style="isolation:isolate"/>
  <path d="m58.037 209.82c-4.94 0-5.6465 0.70462-5.6465 5.6406v1.7012c0-4.936 0.70648-5.6406 5.6465-5.6406h5.0273c4.9352 0 5.6451 0.70396 5.6465 5.627v-1.6875c0-4.936-0.70648-5.6406-5.6465-5.6406zm86.547 0c-4.94 0-5.6465 0.70462-5.6465 5.6406v1.7012c0-4.936 0.70648-5.6406 5.6465-5.6406h5.0274c4.94 0 5.6465 0.70463 5.6465 5.6406v-1.7012c0-4.936-0.70648-5.6406-5.6465-5.6406z" fill="#ebdbb2" opacity=".6" style="isolation:isolate"/>
  <path d="m91 12c-72 0-85 15-85 87v56c0 70 13 85 85 85h74c72 0 85-15 85-85v-56c0-72-13-87-85-87zm0 5h74c35.653 0 55.307 3.9448 65.895 14.965 10.588 11.02 14.105 31.336 14.105 67.035v56c0 34.69-3.4936 54.457-14.07 65.25-10.577 10.793-30.277 14.75-65.93 14.75h-74c-35.653 0-55.353-3.9574-65.93-14.75-10.577-10.793-14.07-30.56-14.07-65.25v-56c0-35.699 3.5176-56.015 14.105-67.035 10.588-11.02 30.242-14.965 65.895-14.965z" fill="url(#linearGradient10)" style="isolation:isolate"/>
</svg>
