<svg width="256" height="256" viewBox="0 0 67.73 67.73" xmlns="http://www.w3.org/2000/svg">
    <defs>
        <linearGradient id="e" x1="296" x2="296" y1="-212" y2="236" gradientUnits="userSpaceOnUse">
            <stop offset="0" stop-color="#ebdbb2"/>
            <stop offset=".125" stop-color="#ebdbb2" stop-opacity=".098"/>
            <stop offset=".925" stop-opacity=".098"/>
            <stop offset="1" stop-opacity=".498"/>
        </linearGradient>
        <clipPath id="d">
            <path d="M361.938-212C507.235-212 528-191.287 528-46.125v116.25C528 215.286 507.235 236 361.937 236H214.063C68.766 236 48 215.286 48 70.125v-116.25C48-191.287 68.765-212 214.063-212z" fill="#b16286"/>
        </clipPath>
        <filter id="b" x="-.02" y="-.03" width="1.046" height="1.05" color-interpolation-filters="sRGB">
            <feGaussianBlur stdDeviation="2.32"/>
        </filter>
        <filter id="a" x="-.01" y="-.01" width="1.023" height="1.025" color-interpolation-filters="sRGB">
            <feGaussianBlur stdDeviation="1.16"/>
        </filter>
        <linearGradient id="c" x1="33.867" x2="33.867" y1="292.769" y2="232.355" gradientUnits="userSpaceOnUse">
            <stop offset="0" stop-color="#b16286"/>
            <stop offset="1" stop-color="#8f3f71"/>
        </linearGradient>
        <filter id="f" x="-.04" y="-.06" width="1.08" height="1.12" color-interpolation-filters="sRGB">
            <feGaussianBlur stdDeviation="2.419"/>
        </filter>
    </defs>
    <path transform="matrix(.2697 0 0 .2697 -7.129 -8.706)" d="M188.969 44C261.617 44 272 54.357 272 126.938v58.124C272 257.644 261.617 268 188.969 268H115.03C42.383 268 32 257.643 32 185.062v-58.125C32 54.358 42.383 44 115.031 44z" filter="url(#a)" opacity=".1"/>
    <path transform="matrix(.2697 0 0 .2697 -7.129 -8.706)" d="M188.969 46C261.617 46 272 56.357 272 128.938v58.125c0 72.58-10.383 82.937-83.031 82.937H115.03C42.383 270 32 259.643 32 187.062v-58.125C32 56.358 42.383 46 115.031 46z" filter="url(#b)" opacity=".2"/>
    <path d="M43.837 232.428c19.594 0 22.395 2.793 22.395 22.369v15.676c0 19.576-2.8 22.37-22.395 22.37H23.896c-19.594 0-22.394-2.794-22.394-22.37v-15.676c0-19.576 2.8-22.37 22.394-22.37z" fill="url(#c)" transform="translate(0 -229.267)"/>
    <path transform="matrix(.13485 0 0 .13485 -4.971 31.75)" d="M361.938-212C507.235-212 528-191.287 528-46.125v116.25C528 215.286 507.235 236 361.937 236H214.063C68.766 236 48 215.286 48 70.125v-116.25C48-191.287 68.765-212 214.063-212z" clip-path="url(#d)" fill="none" opacity=".6" stroke-linecap="round" stroke-linejoin="round" stroke-width="8" stroke="url(#e)"/>
    <path d="M33.867 3.088v60.415h9.97c19.594 0 22.395-2.794 22.395-22.37V25.458c0-19.576-2.8-22.369-22.395-22.369z" fill="#ebdbb2" opacity=".1"/>
    <path d="M25.132 63.503c-20.675 0-23.63-2.79-23.63-22.336V33.34h68.303v7.827c0 19.547-2.955 22.336-23.63 22.336z" fill="#ebdbb2" opacity=".1"/>
    <g transform="matrix(.26458 0 0 .26458 20.215 11.756)" filter="url(#f)" opacity=".3" stroke="#282828">
        <path d="M-20.652 129.35c-1.57-2.54.784-3.462 8.844-3.462 13.392 0 18.594-3.863 32.98-24.493 6.91-9.91 13.523-16.718 18.44-18.984 1.186-.547 1.186-.782 0-1.329-4.94-2.277-11.55-9.105-18.587-19.2C6.554 41.125 3.01 38.47-11.365 37.613c-7.354-.438-9.38-.916-9.38-2.214 0-1.344 1.662-1.632 8.828-1.533 14.715.204 20.153 3.83 32.796 21.86 13.615 19.416 19.147 23.743 30.417 23.79 11.305.047 17.256-4.263 28.154-20.391 9.068-13.42 16.384-20.975 22.622-23.357 6.678-2.55 21.746-2.806 21.746-.37 0 1.31-2.1 1.773-10.037 2.215-8.8.49-10.61.957-14.69 3.784-2.56 1.774-7.36 6.985-10.67 11.58a4703.371 4703.371 0 0 1-10.972 15.17c-2.727 3.748-7.171 8.217-9.877 9.931-2.706 1.715-4.938 3.41-4.96 3.768-.022.358 1.09 1.166 2.473 1.796 4.912 2.238 9.39 6.993 17.138 18.2 13.995 20.242 19.162 24.047 32.658 24.047 8.163 0 11.368 1.358 8.25 3.497-2.046 1.404-16.604.226-21.264-1.72-5.807-2.427-12.01-8.685-19.588-19.76-13.085-19.129-19.226-23.903-30.743-23.903-11.516 0-17.657 4.774-30.743 23.902-7.746 11.323-13.516 17.081-19.71 19.67-5.393 2.253-20.668 3.501-21.735 1.776z" fill="#ebdbb2" stroke-width="4.579"/>
    </g>
    <path d="M14.751 45.98c-.415-.672.208-.916 2.34-.916 3.544 0 4.92-1.022 8.726-6.48 1.829-2.622 3.578-4.424 4.879-5.023.314-.145.314-.207 0-.352-1.307-.602-3.056-2.409-4.918-5.08-3.828-5.492-4.766-6.195-8.57-6.421-1.945-.116-2.481-.243-2.481-.586 0-.356.44-.432 2.335-.406 3.894.054 5.333 1.013 8.678 5.784 3.602 5.137 5.066 6.282 8.048 6.294 2.99.013 4.565-1.128 7.448-5.395 2.4-3.55 4.336-5.55 5.986-6.18 1.767-.674 5.754-.742 5.754-.097 0 .346-.556.469-2.656.586-2.328.13-2.807.253-3.887 1-.677.47-1.947 1.849-2.823 3.065-.875 1.215-2.182 3.022-2.903 4.013-.721.992-1.897 2.174-2.613 2.628-.716.454-1.307.902-1.312.997-.006.095.288.308.654.475 1.3.592 2.484 1.85 4.534 4.816 3.703 5.355 5.07 6.362 8.641 6.362 2.16 0 3.008.36 2.183.925-.542.372-4.393.06-5.626-.455-1.537-.642-3.178-2.298-5.183-5.228-3.462-5.061-5.087-6.324-8.134-6.324-3.047 0-4.672 1.263-8.134 6.324-2.05 2.996-3.576 4.52-5.215 5.204-1.427.596-5.468.926-5.75.47z" fill="#ebdbb2" stroke-width="1.21151182" stroke="#ebdbb2"/>
</svg>
