<svg width="256" height="256" version="1.1" xmlns="http://www.w3.org/2000/svg">
  <defs>
    <linearGradient id="linearGradient31" x1=".5002" x2=".5002" y2="1" gradientTransform="matrix(244,0,0,228,5.986,12)" gradientUnits="userSpaceOnUse">
      <stop stop-color="#ebdbb2" stop-opacity=".2" offset="0"/>
      <stop stop-color="#ebdbb2" stop-opacity=".05" offset=".1"/>
      <stop stop-opacity="0" offset=".7036"/>
      <stop stop-opacity=".1" offset=".8975"/>
      <stop stop-opacity=".2" offset="1"/>
    </linearGradient>
    <linearGradient id="linearGradient6" x1="140" x2="140" y1="12" y2="240" gradientUnits="userSpaceOnUse">
      <stop stop-color="#504945" offset="0"/>
      <stop stop-color="#3c3836" offset="1"/>
    </linearGradient>
  </defs>
  <path d="m165 12c72 0 85 15 85 87v56c0 70-13 85-85 85h-74c-72 0-85-15-85-85v-56c0-72 13-87 85-87z" fill="url(#linearGradient6)" style="isolation:isolate"/>
  <path d="m97.512 37.774c-58.88 0-69.512 12.266-69.512 71.146v45.795c0 57.244 10.632 69.512 69.512 69.512h60.516c58.88 0 69.512-12.267 69.512-69.512v-45.795c0-58.88-10.632-71.146-69.512-71.146zm-7.7422 37.227 100 60-100 60z" fill="#282828" opacity=".5" stroke-width=".81778" style="isolation:isolate"/>
  <path d="m97.742 32.774c-58.88-1e-6 -69.512 12.266-69.512 71.146v45.795c0 57.244 10.632 69.512 69.512 69.512h60.516c58.88 0 69.512-12.267 69.512-69.512v-45.795c0-58.88-10.632-71.146-69.512-71.146zm-7.7422 37.227 100 60-100 60z" fill="#ebdbb2" stroke-width=".81778" style="isolation:isolate"/>
  <path d="m91 12c-72 0-85 15-85 87v56c0 70 13 85 85 85h74c72 0 85-15 85-85v-56c0-72-13-87-85-87zm0 4h74c68 0 80 15 80 83v56c0 66-12 81-80 81h-74c-68 0-80-15-80-81v-56c0-68 12-83 80-83z" fill="url(#linearGradient31)" style="isolation:isolate"/>
</svg>
