<svg width="256" height="256" style="isolation:isolate" version="1.1" xmlns="http://www.w3.org/2000/svg">
  <g transform="translate(.007136 -.1198)" filter="url(#a)">
    <linearGradient id="b" x1=".5002" x2=".5002" y2="1" gradientTransform="matrix(244,0,0,228,5.981,12.12)" gradientUnits="userSpaceOnUse">
      <stop stop-color="#ebdbb2" offset="0"/>
      <stop stop-color="#ebdbb2" offset="1"/>
    </linearGradient>
    <path d="m165 12.12c72 0 85 15 85 87v56c0 70-13 85-85 85h-74c-72 0-85-15-85-85v-56c0-72 13-87 85-87z" fill="url(#b)"/>
  </g>
  <path d="m76.4 12c-3.604 0.096-7.72 0.07267-10.97 0.2637 3.251-0.191 7.367-0.1677 10.97-0.2637zm103.2 0c3.605 0.096 7.724 0.07267 10.97 0.2637-3.251-0.191-7.37-0.1677-10.97-0.2637zm-103.1 0.2734c-15.72 0.5802-28.12 2.239-37.77 5.633l71.28 124.2v97.94h35.6v-98.22l71.54-123.9c-9.641-3.388-22.03-5.043-37.74-5.623l-51.45 89.63-51.46-89.64h-0.001953zm-21.54 0.8535c-3.257 0.364-6.306 0.8068-9.158 1.344 2.852-0.537 5.901-0.9798 9.158-1.344zm146 0c3.257 0.364 6.302 0.8068 9.154 1.344-2.852-0.537-5.897-0.9798-9.154-1.344zm9.154 1.344c2.835 0.533 5.474 1.158 7.934 1.887-2.46-0.729-5.099-1.354-7.934-1.887z" fill="url(#_lgradient_825)" style="isolation:isolate"/>
  <defs>
    <linearGradient id="linearGradient31" x1=".5002" x2=".5002" y2="1" gradientTransform="matrix(244,0,0,228,5.988,12.12)" gradientUnits="userSpaceOnUse">
      <stop stop-color="#d5c4a1" offset="0"/>
      <stop stop-color="#d5c4a1" stop-opacity=".09804" offset=".1"/>
      <stop stop-color="#282828" stop-opacity=".1" offset=".9"/>
      <stop stop-color="#282828" stop-opacity=".4" offset="1"/>
    </linearGradient>
    <linearGradient id="_lgradient_825" x2="0" y2="1" gradientTransform="matrix(180.2 0 0 228 37.9 12)" gradientUnits="userSpaceOnUse">
      <stop stop-color="#fb4934" offset="0"/>
      <stop stop-color="#cc241d" offset="1"/>
    </linearGradient>
  </defs>
  <g transform="translate(.007189 -.1198)" opacity=".5">
    <path d="m91 12.12c-72 0-85 15-85 87v56c0 70 13 85 85 85h74c72 0 85-15 85-85v-56c0-72-13-87-85-87zm0 4h74c68 0 80 15 80 83v56c0 66-12 81-80 81h-74c-68 0-80-15-80-81v-56c0-68 12-83 80-83z" fill="url(#linearGradient31)" opacity="1"/>
  </g>
</svg>
