<svg width="256" height="256" version="1.1" xmlns="http://www.w3.org/2000/svg">
  <defs>
    <linearGradient id="linearGradient31" x1=".5002" x2=".5002" y2="1" gradientTransform="matrix(244,0,0,228,5.986,12)" gradientUnits="userSpaceOnUse">
      <stop stop-color="#ebdbb2" stop-opacity=".2" offset="0"/>
      <stop stop-color="#ebdbb2" stop-opacity=".05" offset=".1"/>
      <stop stop-opacity="0" offset=".7036"/>
      <stop stop-opacity=".1" offset=".8975"/>
      <stop stop-opacity=".2" offset="1"/>
    </linearGradient>
    <linearGradient id="linearGradient6" x1="140" x2="140" y1="12" y2="240" gradientUnits="userSpaceOnUse">
      <stop stop-color="#689d6a" offset="0"/>
      <stop stop-color="#427b58" offset="1"/>
    </linearGradient>
  </defs>
  <path d="m165 12c72 0 85 15 85 87v56c0 70-13 85-85 85h-74c-72 0-85-15-85-85v-56c0-72 13-87 85-87z" fill="url(#linearGradient6)" style="isolation:isolate"/>
  <path d="m67.476 43.265 8.408 28.12 13.47 16.09a38.02 38.02 0 0 0-12.93 4.848c-4.763 4.185-7.404 9.44-9.487 14.97l-15.15 11.78c-0.8048-0.6912-1.401-0.1231-2.055 0.142-2.31 1.363-4.838 2.537-6.192 4.706-2.462 6.372 1.704 9.79 4.355 13.74 1.695 1.837 5.492 4.166 9.127 4.412l30-14.68 16.38-3.049c-2.869 19.95-2.604 41.66-3.172 62.92l-8.663 14.55-2.074 1.657 52.02-4.015 20.24 9.279 6.325-2.765 12.93-0.7006-2.746-3.598 9.752-0.4166-0.5302 5.122 8.663-4.98h3.854l2.339 2.074 4.261-3.039 6.609-0.284c-3.806-21.49-6.221-43.22-8.398-65-0.4261-5.615-0.8711-11.19-2.339-14.97a53.72 53.72 0 0 0-13.34-17.88c-6.704-5.539-13.62-10.57-21.33-13.59-6.836-2.585-13.67-0.7859-20.51 0.5681a113.9 113.9 0 0 0-22.16 7.612c1.42-3.323 3.825-6.505 6.931-8.143 4.242-2.216 7.878-3.219 12.34-4.46 3.996-1.496 6.524-3.939 9.222-6.249 7.433-8.938 13.82-18.17 20.08-27.44-11.29 2.594-22.57 6.988-33.86 11.23-7.149 2.67-13.56 6.079-18.98 11.36l-11.55 11.5c-2.604 1.998-3.91-0.05681-5.378-1.657l-8.521-12.76zm58.65 111.1 9.43 3.219 8.417 15.41-8.124 15.05-7.783 4.45s-5.501-34.77-5.208-34.92c0.284-0.142 3.267-3.219 3.267-3.219zm52.45 7.745 7.035 13.76 1.515 12.6-9.875 11.91s-6.817-7.291-6.618-7.688c0.1988-0.4166 5.302-29.97 5.302-29.97z" fill="#282828" stroke-width="9.468" style="isolation:isolate"/>
  <path d="m73.766 54.225 6.808 15.98 16.65 19.01c-5.397 0.8521-10.2 2.301-14.72 4.033-2.556 1.231-4.999 2.556-6.363 5.255l-4.147 7.347c-1.335 2.698-4.166 4.857-6.94 7.044l-11.36 8.872c2.263 1.098 4.289 2.538 6.154 4.242-2.007-1.108-3.958-2.272-6.296-2.888-1.629-0.2556-3.238-0.2367-4.725 0.9468-1.335 1.108-1.184 2.982-0.909 4.734 0.5113 2.708 2.774 5.113 5.35 6.931 2.395 1.07 4.602 0.5208 6.722-0.729 1.837-1.704 2.585-4.696 2.358-8.787 1.326-0.2462 1.032 7.641 1.269 6.741 0.1231-0.4829 19.48-10.16 24.6-11.36 5.226-1.344 13.38-1.78 19.28-3.617 3.664-1.174 6.344-3.958 8.616-7.452l-1.827 3.882a10.44 10.44 0 0 1-6.003 4.545l-3.285 34.96-0.0663 33.8-5.719 8.521 3.891-0.1326 4.147-5.482-3.049 6.561s19.95-1.335 19.95-1.193-6.154-40.43-6.154-40.43 6.666-7.452 6.808-7.556c0.142-0.1136 24.38 8.181 24.38 8.181l-3.73-4.403-3.068-1.695 3.721 1.231s8.645 10.47 8.682 10.62c0.0378 0.142 1.543-1.884 1.543-1.884l-9.052 36.74 12.02 4.1-0.3787-5.615 2.878 6.969 4.422 0.2935-2.992-7.262 5.208 6.325 2.859-0.5681-5.151-7.414 6.012-35.79-6.931-5.473-5.368-7.196 5.084 5.179-5.511-7.849-0.4355-10.37 1.932 8.929 2.083-7.338-1.079 8.569 4.005 8.787 8.01 5.965-0.1515 1.373 6.306-2.31 4.071-9.203 0.3503-5.7 0.587 5.776s-3.503 8.484-3.503 8.777c0 0.284 4.573-4.327 4.573-4.327l-5.018 5.908 8.02 14.47 2.717 15.77 1.998-1.43-0.4261 0.5681-6.438 8.408 4.223-0.9184 1.638-2.594-0.7196 3.162 1.505 0.0758-0.3503 3.456 3.143-2.812 2.348 0.729 0.7291-4.194v4.261l2.206-0.4355 1.07 3.598 1.572-4.535 3.077-0.142c-2.935-22.27-6.817-44.54-7.859-66.81-0.1136-4.242-3.674-11.74-7.508-16.65-4.478-5.16-13.62-16.19-26.61-19.29-7.082-0.8427-14.3 0.303-22.16 2.869-6.95 2.036-14.13 4.516-21.93 8.256 1.837 3.011 4.27 5.965 8.417 9.468 1.297 1.269 3.636 1.619 5.937 1.439-1.591 0.5681-3.229 1.042-4.942 0.142-2.793-1.894-5.094-4.261-7.291-6.76a26.14 26.14 0 0 1-3.361-5.406c-1.326-3.011 0.2367-6.836 2.793-10.95 2.32-2.85 4.876-5.634 10.07-7.631 4.677-1.865 9.374-3.73 13.81-6.192 5.018-3.257 13.03-13.63 17.29-20.89-11.61 4.261-23.21 7.669-34.75 14.47-4.318 2.964-8.55 7.556-12.87 12.31-1.837 2.083-3.825 4.033-6.438 5.416-3.588 1.922-6.06 0.09468-7.717-1.373a55.13 55.13 0 0 1-6.789-9.061c-2.556-3.503-5.236-7.016-9.156-10.52-4.507-4.185-8.569-9.014-12.66-13.4zm73.44 11.48-10.23 12.41 6.94-2.405-13.97 6.846zm-48.51 25.91c0.8995-0.01894 1.799 0 2.67 0.09468-5.653 0.4355-8.237 1.411-13.14 3.929 1.799-1.373 2.812-2.395 6.05-3.503 1.42-0.3125 2.926-0.4923 4.422-0.5208zm1.572 7.802c2.793 0.0473 4.687 1.278 4.687 1.278-6.192-1.666-9.591-0.284-12.24 3.768-0.3125-0.2556 1.761-3.778 4.507-4.611 1.098-0.3314 2.121-0.4545 3.049-0.4355zm-0.4734 2.083a7.196 7.196 0 0 1 1.752 0.142c1.155 0.4071 1.685 1.269 2.253 2.083-1.202-1.06-2.443-1.894-3.948-1.505 1.704 0.1894 2.339 1.259 2.585 2.661 0.2083 1.884-1.411 2.992-2.49 3.153s-2.462-0.1136-3.257-1.278c-0.2272-0.4734-0.8332-2.216 0.1326-3.456a9.468 9.468 0 0 0-2.859 1.818c0.729-1.06 1.619-1.894 2.964-2.784a6.306 6.306 0 0 1 2.869-0.8427zm-45.69 24.59c1.449 1.714 2.859 3.361 3.551 5.634 0.09468 2.102-0.8332 2.055-1.742 2.045-0.7575-0.01-2.197-0.8711-1.733-1.572a5.548 5.548 0 0 0 0.5492-2.935zm-5.302 0.5208c1.136 1.193 2.253 1.988 2.462 3.655 0.08522 0.3977 0.161 1.382-0.6249 1.231-2.291-2.168-0.909-1.932-1.827-4.886z" fill="#ebdbb2" stroke-width="9.468" style="isolation:isolate"/>
  <path d="m91 12c-72 0-85 15-85 87v56c0 70 13 85 85 85h74c72 0 85-15 85-85v-56c0-72-13-87-85-87zm0 4h74c68 0 80 15 80 83v56c0 66-12 81-80 81h-74c-68 0-80-15-80-81v-56c0-68 12-83 80-83z" fill="url(#linearGradient31)" style="isolation:isolate"/>
</svg>
