<svg width="256" height="256" version="1.1" xmlns="http://www.w3.org/2000/svg">
  <defs>
    <linearGradient id="linearGradient6" x1="140" x2="140" y1="12" y2="240" gradientUnits="userSpaceOnUse">
      <stop stop-color="#504945" offset="0"/>
      <stop stop-color="#3c3836" offset="1"/>
    </linearGradient>
    <linearGradient id="linearGradient10" x1="128" x2="128" y1="12" y2="240" gradientUnits="userSpaceOnUse">
      <stop stop-color="#ebdbb2" stop-opacity=".2" offset="0"/>
      <stop stop-color="#ebdbb2" stop-opacity="0" offset=".24728"/>
      <stop stop-color="#1d2021" stop-opacity=".05" offset=".50485"/>
      <stop stop-color="#1d2021" stop-opacity=".3961" offset=".75316"/>
      <stop stop-color="#1d2021" stop-opacity=".6039" offset="1"/>
    </linearGradient>
  </defs>
  <path d="m165 12c72 0 85 15 85 87v56c0 70-13 85-85 85h-74c-72 0-85-15-85-85v-56c0-72 13-87 85-87z" fill="url(#linearGradient6)" style="isolation:isolate"/>
  <path d="m84.289 56.133a12.49 12.49 0 0 0-12.488 12.49v31.221a12.489 12.489 0 0 0 12.488 12.49 12.489 12.489 0 0 0 12.488-12.49v-18.732h50.947l-73.666 105.24a12.49 12.49 0 0 0 10.23 19.65h87.422a12.49 12.49 0 0 0 12.488-12.49v-31.221a12.489 12.489 0 0 0-12.488-12.49 12.489 12.489 0 0 0-12.488 12.49v18.732h-50.947l73.666-105.24a12.49 12.49 0 0 0-10.23-19.65z" fill="#282828" opacity=".5" stop-color="#000000" stroke-linecap="round" stroke-linejoin="round"/>
  <path d="m84.289 51.133a12.49 12.49 0 0 0-12.488 12.49v31.221a12.489 12.489 0 0 0 12.488 12.49 12.489 12.489 0 0 0 12.488-12.49v-18.732h50.947l-73.666 105.24a12.49 12.49 0 0 0 10.23 19.65h87.422a12.49 12.49 0 0 0 12.488-12.49v-31.221a12.489 12.489 0 0 0-12.488-12.49 12.489 12.489 0 0 0-12.488 12.49v18.732h-50.947l73.666-105.24a12.49 12.49 0 0 0-10.23-19.65z" fill="#928374" stop-color="#000000" stroke-linecap="round" stroke-linejoin="round"/>
  <path d="m84.289 51.133a12.49 12.49 0 0 0-12.488 12.49v5a12.49 12.49 0 0 1 12.488-12.49h87.422a12.49 12.49 0 0 1 12.23 10.004 12.49 12.49 0 0 0-12.23-15.004zm59.936 29.979-70.166 100.24a12.49 12.49 0 0 0-2 9.6465 12.49 12.49 0 0 1 2-4.6465l73.666-105.24zm27.486 63.688a12.489 12.489 0 0 0-12.488 12.49v4.998a12.489 12.489 0 0 1 12.488-12.488 12.489 12.489 0 0 1 12.488 12.488v-4.998a12.489 12.489 0 0 0-12.488-12.49zm-59.936 31.223-3.5 5h50.947v-5z" fill="#ebdbb2" opacity=".2" stop-color="#000000" stroke-linecap="round" stroke-linejoin="round"/>
  <path d="m91 12c-72 0-85 15-85 87v56c0 70 13 85 85 85h74c72 0 85-15 85-85v-56c0-72-13-87-85-87zm0 5h74c35.653 0 55.307 3.9448 65.895 14.965 10.588 11.02 14.105 31.336 14.105 67.035v56c0 34.69-3.4936 54.457-14.07 65.25-10.577 10.793-30.277 14.75-65.93 14.75h-74c-35.653 0-55.353-3.9574-65.93-14.75-10.577-10.793-14.07-30.56-14.07-65.25v-56c0-35.699 3.5176-56.015 14.105-67.035 10.588-11.02 30.242-14.965 65.895-14.965z" fill="url(#linearGradient10)" style="isolation:isolate"/>
</svg>
