<svg width="256" height="256" version="1.1" xmlns="http://www.w3.org/2000/svg">
  <defs>
    <linearGradient id="linearGradient31" x1=".5002" x2=".5002" y2="1" gradientTransform="matrix(244,0,0,228,5.986,12)" gradientUnits="userSpaceOnUse">
      <stop stop-color="#ebdbb2" stop-opacity=".2" offset="0"/>
      <stop stop-color="#ebdbb2" stop-opacity=".05" offset=".1"/>
      <stop stop-opacity="0" offset=".7036"/>
      <stop stop-opacity=".1" offset=".8975"/>
      <stop stop-opacity=".2" offset="1"/>
    </linearGradient>
    <linearGradient id="linearGradient6" x1="140" x2="140" y1="12" y2="240" gradientUnits="userSpaceOnUse">
      <stop stop-color="#fb4934" offset="0"/>
      <stop stop-color="#cc241d" offset="1"/>
    </linearGradient>
  </defs>
  <path d="m165 12c72 0 85 15 85 87v56c0 70-13 85-85 85h-74c-72 0-85-15-85-85v-56c0-72 13-87 85-87z" fill="url(#linearGradient6)" style="isolation:isolate"/>
  <path d="m188.44 73.561c-4.3918 10.612-77.247 72.873-88.197 82.174-13.178 11.244-13.956 11.892-18.1 12.645-2.3498 0.36271-2.7172 0.13667-3.8777 0.33071-1.0614 0.15942-2.1188 1.0606-2.0348 2.3172 0.08014 0.67304 0.5224 3.0119 2.9955 3.0908 49.971 2.261 87.811 19.881 119.84 19.881 6.6038-6e-3 12.294-0.97917 23.018-10.326 2.1032-1.8243 7.8558-7.2531 7.8834-12.078 0-1.0479-0.2293-3.2594-2.1761-3.1524-1.7748 0.0985-2.6004 2.2966-2.7903 2.8857-1.091 3.0582-3.0868 8.2292-10.658 10.468-22.298 6.6445-74.725-2.975-105.16-11.225-0.0505-0.0166-0.91453-0.30623-1.009-0.59982 0.23655-0.48879 0.41988-0.97172 0.82068-1.3879 29.193-30.431 89.18-83.63 99.643-92.547 1.2586-1.2707 3.3031-2.9328 4.4148-3.1536 1.8592-0.25916 2.916-1.3934 3.0739-2.8229-0.0528-2.9418-3.0086-2.9178-5.2656-2.9001-22.988 0.5399-45.98 0.82339-68.963 1.5291-5.3013 0.1861-12.456 0.49459-18.935 1.0729-4.2551 0.63531-5.5906 3.0053-7.0168 5.612-0.76577 1.4246-1.491 2.8706-2.1748 4.3363-0.38763 0.91564 0.0816 3.1756 2.0022 3.3732 1.9733 0.07897 2.4883-1.7231 5.5179-3.3105 2.9944-1.5915 8.0439-3.4267 16.224-4.2724 13.703-1.6814 33.302-2.3655 47.835-2.3655 1.0668-0.0204 2.0814 0.10196 3.0896 0.42603z" fill="#282828" opacity=".2" stroke-width="1.2069" style="isolation:isolate"/>
  <path d="m188.44 68.983c-4.3918 10.612-77.247 72.873-88.197 82.174-13.178 11.244-13.956 11.892-18.1 12.645-2.3498 0.36271-2.7172 0.13666-3.8777 0.3307-1.0614 0.15943-2.1188 1.0606-2.0348 2.3172 0.08014 0.67303 0.5224 3.0119 2.9955 3.0908 49.971 2.261 87.811 19.881 119.84 19.881 6.6038-6e-3 12.294-0.97916 23.018-10.326 2.1032-1.8243 7.8558-7.2531 7.8834-12.078 0-1.0479-0.2293-3.2594-2.1761-3.1524-1.7748 0.0985-2.6004 2.2966-2.7903 2.8857-1.091 3.0582-3.0868 8.2292-10.658 10.468-22.298 6.6445-74.725-2.975-105.16-11.225-0.0505-0.0166-0.91453-0.30623-1.009-0.59982 0.23655-0.48879 0.41988-0.97172 0.82068-1.3879 29.193-30.431 89.18-83.63 99.643-92.547 1.2586-1.2707 3.3031-2.9328 4.4148-3.1536 1.8592-0.25916 2.916-1.3934 3.0739-2.8229-0.0528-2.9418-3.0086-2.9178-5.2656-2.9001-22.988 0.5399-45.98 0.82339-68.963 1.5291-5.3013 0.1861-12.456 0.49459-18.935 1.0729-4.2551 0.63531-5.5906 3.0053-7.0168 5.612-0.76577 1.4246-1.491 2.8706-2.1748 4.3363-0.38763 0.91564 0.0816 3.1756 2.0022 3.3732 1.9733 0.07897 2.4883-1.7231 5.5179-3.3105 2.9944-1.5915 8.0439-3.4267 16.224-4.2724 13.703-1.6814 33.302-2.3655 47.835-2.3655 1.0668-0.0204 2.0814 0.10196 3.0896 0.42603z" fill="#ebdbb2" stroke-width="1.2069" style="isolation:isolate"/>
  <path d="m210.86 62.582c-22.988 0.5399-45.98 0.82356-68.963 1.5293-5.3013 0.1861-12.457 0.49394-18.936 1.0723-4.2551 0.63531-5.5894 3.0047-7.0156 5.6113-0.76577 1.4246-1.492 2.8721-2.1758 4.3379-0.29231 0.69047-0.0953 2.1418 0.8418 2.9004 0.43879-0.88908 0.86451-1.7848 1.334-2.6582 1.4262-2.6067 2.7606-4.978 7.0156-5.6133 6.4788-0.57833 13.634-0.88616 18.936-1.0723 22.983-0.70574 45.975-0.9894 68.963-1.5293 1.2791-0.01002 2.7675-0.0034 3.8398 0.52344 0.81488-0.52096 1.3245-1.2846 1.4258-2.2012-0.0528-2.9418-3.0086-2.9181-5.2656-2.9004zm-25.334 10.562c-14.244 17.342-75.318 69.547-85.283 78.012-13.178 11.244-13.956 11.892-18.1 12.645-2.3498 0.36271-2.7165 0.13799-3.877 0.33203-1.0614 0.15943-2.1192 1.0598-2.0352 2.3164 0.0561 0.47105 0.30609 1.7468 1.2891 2.5039 0.23807-0.11792 0.49196-0.20401 0.74609-0.24218 1.1605-0.19404 1.5272 0.0326 3.877-0.33008 4.1437-0.7521 4.922-1.4001 18.1-12.645 10.95-9.301 83.806-71.564 88.197-82.176-0.95165-0.30588-1.9125-0.41997-2.9141-0.41602zm42.266 90.721c-1.7748 0.0985-2.5992 2.2956-2.7891 2.8848-1.091 3.0582-3.087 8.2295-10.658 10.469-21.862 6.5144-72.633-2.6017-103.3-10.736-0.67301 0.69266-1.4088 1.4303-2.0527 2.1016-0.4008 0.4162-0.58377 0.89989-0.82032 1.3887 0.0944 0.29359 0.95927 0.58301 1.0098 0.59961 30.437 8.2502 82.864 17.869 105.16 11.225 7.5712-2.2393 9.5672-7.4106 10.658-10.469 0.18988-0.58912 1.0143-2.7863 2.7891-2.8848 0.87604-0.0481 1.3929 0.38154 1.709 0.95508 0.2669-0.79843 0.46232-1.5962 0.4668-2.3809 0-1.0479-0.22902-3.2593-2.1758-3.1524z" fill="#fbf1c7" opacity=".6" stroke-width="1.2069" style="isolation:isolate"/>
  <path d="m56.145 13.897c-41.593 5.8252-50.145 26.735-50.145 85.103v56c0 56.746 8.5518 77.349 50.145 83.116z" fill="#504945" style="isolation:isolate"/>
  <path d="m91 12c-72 0-85 15-85 87v56c0 70 13 85 85 85h74c72 0 85-15 85-85v-56c0-72-13-87-85-87zm0 4h74c68 0 80 15 80 83v56c0 66-12 81-80 81h-74c-68 0-80-15-80-81v-56c0-68 12-83 80-83z" fill="url(#linearGradient31)" style="isolation:isolate"/>
</svg>
