<svg width="256" height="256" version="1.1" xmlns="http://www.w3.org/2000/svg">
  <defs>
    <linearGradient id="linearGradient6" x1="140" x2="140" y1="12" y2="240" gradientUnits="userSpaceOnUse">
      <stop stop-color="#504945" offset="0"/>
      <stop stop-color="#3c3836" offset="1"/>
    </linearGradient>
    <linearGradient id="linearGradient10" x1="128" x2="128" y1="12" y2="240" gradientUnits="userSpaceOnUse">
      <stop stop-color="#ebdbb2" stop-opacity=".2" offset="0"/>
      <stop stop-color="#ebdbb2" stop-opacity="0" offset=".24728"/>
      <stop stop-color="#1d2021" stop-opacity=".05" offset=".50485"/>
      <stop stop-color="#1d2021" stop-opacity=".3961" offset=".75316"/>
      <stop stop-color="#1d2021" stop-opacity=".6039" offset="1"/>
    </linearGradient>
  </defs>
  <path d="m165 12c72 0 85 15 85 87v56c0 70-13 85-85 85h-74c-72 0-85-15-85-85v-56c0-72 13-87 85-87z" fill="url(#linearGradient6)" style="isolation:isolate"/>
  <path d="m57.386 56.34c-2.0525 2.04e-4 -3.7163 1.664-3.7165 3.7165v26.016c2.2e-4 2.0525 1.664 3.7163 3.7165 3.7165h111.5v18.583c0 4.3359-1.6196 5.4808-3.5205 6.4313-1.9009 0.95048-3.9125 1.0017-3.9125 1.0017-2.0525 2.1e-4 -3.7163 1.664-3.7165 3.7165v22.299c1.9e-4 2.0525 1.664 3.7163 3.7165 3.7165h11.15s7.2797 0.0512 14.67-3.6439c7.3903-3.6952 15.062-11.842 15.062-26.088v-55.748c-2.1e-4 -2.0525-1.664-3.7163-3.7165-3.7165zm70.614 55.748c-10.263 0-18.583 8.3197-18.583 18.583 0 10.263 8.3197 18.583 18.583 18.583s18.583-8.3197 18.583-18.583c0-10.263-8.3197-18.583-18.583-18.583zm-44.598 3.7165s-7.2797-0.0512-14.67 3.6439c-7.3903 3.6952-15.062 11.842-15.062 26.088v55.748c2.2e-4 2.0525 1.664 3.7163 3.7165 3.7165h141.23c2.0525-2.2e-4 3.7163-1.664 3.7165-3.7165v-26.016c-2.1e-4 -2.0525-1.664-3.7163-3.7165-3.7165h-111.5v-18.583c0-4.3359 1.6196-5.4808 3.5205-6.4313 1.9009-0.95047 3.9125-1.0017 3.9125-1.0017 2.0525-2.3e-4 3.7163-1.664 3.7165-3.7165v-22.299c-2.1e-4 -2.0525-1.664-3.7163-3.7165-3.7165z" fill="#282828" opacity=".6" stroke-width="3.7165"/>
  <path d="m57.386 51.34c-2.0525 2.04e-4 -3.7163 1.664-3.7165 3.7165v26.016c2.22e-4 2.0525 1.664 3.7163 3.7165 3.7165h111.5v18.583c0 4.3359-1.6196 5.4808-3.5205 6.4313-1.9009 0.95048-3.9125 1.0017-3.9125 1.0017-2.0525 2.1e-4 -3.7163 1.664-3.7165 3.7165v22.299c1.9e-4 2.0525 1.664 3.7163 3.7165 3.7165h11.15s7.2797 0.0512 14.67-3.6439c7.3903-3.6952 15.062-11.842 15.062-26.088v-55.748c-2.1e-4 -2.0525-1.664-3.7163-3.7165-3.7165zm70.614 55.748c-10.263 0-18.583 8.3197-18.583 18.583 0 10.263 8.3197 18.583 18.583 18.583s18.583-8.3197 18.583-18.583c0-10.263-8.3197-18.583-18.583-18.583zm-44.598 3.7165s-7.2797-0.0512-14.67 3.6439c-7.3903 3.6952-15.062 11.842-15.062 26.088v55.748c2.22e-4 2.0525 1.664 3.7163 3.7165 3.7165h141.23c2.0525-2.2e-4 3.7163-1.664 3.7165-3.7165v-26.016c-2.1e-4 -2.0525-1.664-3.7163-3.7165-3.7165h-111.5v-18.583c0-4.3359 1.6196-5.4808 3.5205-6.4313 1.9009-0.95047 3.9125-1.0017 3.9125-1.0017 2.0525-2.3e-4 3.7163-1.664 3.7165-3.7165v-22.299c-2.18e-4 -2.0525-1.664-3.7163-3.7165-3.7165z" fill="#ebdbb2" stroke-width="3.7165"/>
  <path d="m57.386 51.34c-2.0525 2.04e-4 -3.7166 1.6643-3.7168 3.7168v5c2.22e-4 -2.0525 1.6643-3.7166 3.7168-3.7168h141.23c2.0525 2.04e-4 3.7166 1.6643 3.7168 3.7168v-5c-2.1e-4 -2.0525-1.6643-3.7166-3.7168-3.7168zm111.49 52.031c0 4.3359-1.6186 5.4812-3.5195 6.4316-1.9009 0.95048-3.9121 1.002-3.9121 1.002-2.0525 2.1e-4 -3.7166 1.6623-3.7168 3.7148v5c1.9e-4 -2.0525 1.6643-3.7146 3.7168-3.7148 0 0 2.0112-0.0515 3.9121-1.002 1.901-0.95047 3.5195-2.0957 3.5195-6.4316zm-40.881 3.7168c-10.263 0-18.582 8.3192-18.582 18.582 0 0.84779 0.0561 1.6823 0.16601 2.5 1.2211-9.0806 9.001-16.082 18.416-16.082s17.195 7.0014 18.416 16.082c0.10995-0.81767 0.16601-1.6522 0.16601-2.5 0-10.263-8.3192-18.582-18.582-18.582zm-44.598 3.7168s-7.2796-0.0525-14.67 3.6426c-7.3903 3.6952-15.062 11.841-15.062 26.088v5c0-14.247 7.6722-22.393 15.062-26.088 7.3903-3.6951 14.67-3.6426 14.67-3.6426h11.148c2.0525 2.1e-4 3.7166 1.6623 3.7168 3.7148v-5c-2.18e-4 -2.0525-1.6643-3.7146-3.7168-3.7148zm3.7168 55.746v5h111.49c2.0525 2.2e-4 3.7166 1.6643 3.7168 3.7168v-5c-2.1e-4 -2.0525-1.6643-3.7166-3.7168-3.7168z" fill="#fbf1c7" opacity=".6" stroke-width="3.7165"/>
  <path d="m91 12c-72 0-85 15-85 87v56c0 70 13 85 85 85h74c72 0 85-15 85-85v-56c0-72-13-87-85-87zm0 5h74c35.653 0 55.307 3.9448 65.895 14.965 10.588 11.02 14.105 31.336 14.105 67.035v56c0 34.69-3.4936 54.457-14.07 65.25-10.577 10.793-30.277 14.75-65.93 14.75h-74c-35.653 0-55.353-3.9574-65.93-14.75-10.577-10.793-14.07-30.56-14.07-65.25v-56c0-35.699 3.5176-56.015 14.105-67.035 10.588-11.02 30.242-14.965 65.895-14.965z" fill="url(#linearGradient10)" style="isolation:isolate"/>
</svg>
