<svg xmlns="http://www.w3.org/2000/svg" width="48" height="48" version="1">
 <rect fill="#bdae93" width="6" height="16" x="14" y="5" rx="2" ry="2"/>
 <rect fill="#bdae93" width="6" height="16" x="28" y="5" rx="2" ry="2"/>
 <rect fill="#665c54" width="30" height="24" x="9" y="19" rx="2" ry="2"/>
 <path fill="#ebdbb2" opacity=".1" d="m16 5c-1.108 0-2 0.892-2 2v1c0-1.108 0.892-2 2-2h2c1.108 0 2 0.892 2 2v-1c0-1.108-0.892-2-2-2h-2z"/>
 <path fill="#ebdbb2" opacity=".1" d="m30 5c-1.108 0-2 0.892-2 2v1c0-1.108 0.892-2 2-2h2c1.108 0 2 0.892 2 2v-1c0-1.108-0.892-2-2-2h-2z"/>
 <path opacity=".2" d="m9 41v1c0 1.108 0.892 2 2 2h26c1.108 0 2-0.892 2-2v-1c0 1.108-0.892 2-2 2h-26c-1.108 0-2-0.892-2-2z"/>
 <path opacity=".2" d="m24 24v6h6l-6 10v-6h-6z"/>
 <path fill="#ebdbb2" d="m24 23v6h6l-6 10v-6h-6z"/>
</svg>
