<svg width="256" height="256" style="isolation:isolate" version="1.1" viewBox="0 0 256 256" xmlns="http://www.w3.org/2000/svg">
 <defs>
  <clipPath id="_clipPath_YkspjaV4MlMWk5gBXyXl7uZWmiyZb1UH">
   <rect width="256" height="256"/>
  </clipPath>
 </defs>
 <g clip-path="url(#_clipPath_YkspjaV4MlMWk5gBXyXl7uZWmiyZb1UH)">
  <defs>
   <filter id="k8kppZ2iyuSMsCuhyAt10w3zl0rOGD6O" x="-.042124" y="-.045133" width="1.0842" height="1.1078" color-interpolation-filters="sRGB">
    <feGaussianBlur in="SourceGraphic" stdDeviation="4.294"/>
    <feOffset dx="0" dy="4" result="pf_100_offsetBlur"/>
    <feFlood flood-opacity=".4"/>
    <feComposite in2="pf_100_offsetBlur" operator="in" result="pf_100_dropShadow"/>
    <feBlend in="SourceGraphic" in2="pf_100_dropShadow"/>
   </filter>
  </defs>
  <g filter="url(#k8kppZ2iyuSMsCuhyAt10w3zl0rOGD6O)">
   <linearGradient id="_lgradient_141" x1=".5" x2=".5" y2="1" gradientTransform="matrix(244.65 0 0 228.34 5.68 11.95)" gradientUnits="userSpaceOnUse">
    <stop stop-color="#83a598" offset="0"/>
    <stop stop-color="#458588" offset="1"/>
   </linearGradient>
   <path d="m165.69 11.95c74.056 0 84.639 10.557 84.639 84.544v59.251c0 73.986-10.583 84.543-84.639 84.543h-75.37c-74.055 0-84.639-10.557-84.639-84.543v-59.251c0-73.987 10.584-84.544 84.639-84.544h75.37z" fill="url(#_lgradient_141)"/>
  </g>
  <g opacity=".4">
   <linearGradient id="_lgradient_142" x1=".517" x2=".517" y2="1" gradientTransform="matrix(244.65,0,0,228.34,5.68,11.95)" gradientUnits="userSpaceOnUse">
    <stop stop-color="#ebdbb2" offset="0"/>
    <stop stop-color="#ebdbb2" stop-opacity=".098" offset=".125"/>
    <stop stop-color="#282828" stop-opacity=".098" offset=".925"/>
    <stop stop-color="#282828" stop-opacity=".498" offset="1"/>
   </linearGradient>
   <path d="m165.07 11.951c4.328-0.01 8.656 0.04 12.984 0.138 3.875 0.078 7.751 0.226 11.626 0.452 3.453 0.196 6.905 0.481 10.348 0.854 3.059 0.335 6.118 0.786 9.148 1.346 2.715 0.502 5.4 1.14 8.046 1.916 2.4 0.698 4.751 1.562 7.023 2.584 2.115 0.943 4.141 2.063 6.059 3.35 1.84 1.238 3.561 2.653 5.135 4.215 1.564 1.572 2.98 3.282 4.219 5.119 1.289 1.916 2.41 3.94 3.364 6.042 1.023 2.28 1.889 4.618 2.597 7.005 0.777 2.643 1.417 5.325 1.918 8.037 0.561 3.026 1.013 6.072 1.348 9.127 0.374 3.439 0.659 6.878 0.856 10.326 0.226 3.861 0.373 7.732 0.462 11.593 0.088 4.323 0.138 8.646 0.128 12.959v58.212c0.01 4.323-0.04 8.636-0.128 12.959-0.089 3.871-0.236 7.732-0.462 11.593-0.197 3.448-0.482 6.897-0.856 10.326-0.335 3.055-0.787 6.111-1.348 9.137-0.501 2.702-1.141 5.384-1.918 8.027-0.708 2.387-1.574 4.735-2.597 7.005-0.954 2.112-2.075 4.126-3.364 6.042-1.239 1.837-2.655 3.557-4.219 5.119-1.574 1.562-3.295 2.977-5.135 4.215-1.918 1.287-3.944 2.407-6.059 3.35-2.272 1.022-4.623 1.886-7.023 2.594-2.646 0.776-5.331 1.414-8.046 1.906-3.03 0.569-6.089 1.011-9.148 1.346-3.443 0.373-6.895 0.658-10.348 0.854-3.875 0.226-7.751 0.374-11.626 0.462-4.328 0.088-8.656 0.138-12.984 0.128h-74.126c-4.328 0.01-8.656-0.04-12.984-0.128-3.875-0.088-7.751-0.236-11.626-0.462-3.453-0.196-6.905-0.481-10.348-0.854-3.059-0.335-6.118-0.777-9.148-1.346-2.715-0.492-5.4-1.13-8.046-1.906-2.4-0.708-4.751-1.572-7.023-2.594-2.115-0.943-4.141-2.063-6.059-3.35-1.84-1.238-3.561-2.653-5.135-4.215-1.564-1.562-2.98-3.282-4.219-5.119-1.289-1.916-2.41-3.93-3.364-6.042-1.023-2.27-1.889-4.618-2.597-7.005-0.777-2.643-1.417-5.325-1.918-8.027-0.561-3.026-1.013-6.082-1.348-9.137-0.374-3.429-0.659-6.878-0.856-10.326-0.226-3.861-0.373-7.722-0.462-11.593-0.088-4.323-0.138-8.636-0.128-12.959v-58.212c-0.01-4.313 0.04-8.636 0.128-12.959 0.089-3.861 0.236-7.732 0.462-11.593 0.197-3.448 0.482-6.887 0.856-10.326 0.335-3.055 0.787-6.101 1.348-9.127 0.501-2.712 1.141-5.394 1.918-8.037 0.708-2.387 1.574-4.725 2.597-7.005 0.954-2.102 2.075-4.126 3.364-6.042 1.239-1.837 2.655-3.547 4.219-5.119 1.574-1.562 3.295-2.977 5.135-4.215 1.918-1.287 3.944-2.407 6.059-3.35 2.272-1.022 4.623-1.886 7.023-2.584 2.646-0.776 5.331-1.414 8.046-1.916 3.03-0.56 6.089-1.011 9.148-1.346 3.443-0.373 6.895-0.658 10.348-0.854 3.875-0.226 7.751-0.374 11.626-0.452 4.328-0.098 8.656-0.148 12.984-0.138h74.126zm0.01 4.009c4.298-0.01 8.597 0.039 12.895 0.127 3.827 0.089 7.653 0.236 11.479 0.452 3.384 0.197 6.767 0.472 10.131 0.845 2.971 0.315 5.932 0.747 8.863 1.297 2.577 0.472 5.134 1.081 7.653 1.818 2.223 0.648 4.396 1.454 6.501 2.397 1.909 0.855 3.738 1.867 5.469 3.026 1.623 1.091 3.138 2.338 4.525 3.724 1.387 1.385 2.636 2.898 3.738 4.519 1.16 1.729 2.174 3.547 3.029 5.443 0.945 2.112 1.751 4.284 2.4 6.494 0.748 2.515 1.348 5.06 1.83 7.634 0.541 2.928 0.974 5.875 1.298 8.842 0.374 3.36 0.65 6.73 0.846 10.11 0.217 3.822 0.374 7.634 0.453 11.456 0.088 4.293 0.137 8.577 0.137 12.87v58.212c0 4.293-0.049 8.577-0.137 12.87-0.079 3.822-0.236 7.644-0.453 11.456-0.196 3.38-0.472 6.75-0.846 10.12-0.324 2.957-0.757 5.904-1.298 8.832-0.482 2.574-1.082 5.119-1.83 7.634-0.649 2.22-1.455 4.382-2.4 6.494-0.855 1.896-1.869 3.724-3.029 5.443-1.102 1.631-2.351 3.144-3.738 4.529-1.387 1.376-2.902 2.623-4.525 3.714-1.731 1.159-3.56 2.171-5.469 3.026-2.105 0.953-4.278 1.749-6.501 2.397-2.519 0.737-5.076 1.346-7.653 1.818-2.931 0.55-5.892 0.982-8.863 1.306-3.364 0.364-6.747 0.649-10.131 0.836-3.826 0.216-7.652 0.373-11.479 0.452-4.298 0.098-8.597 0.137-12.895 0.137h-0.01-74.126-0.01c-4.298 0-8.597-0.039-12.895-0.137-3.827-0.079-7.653-0.236-11.479-0.452-3.384-0.187-6.767-0.472-10.131-0.836-2.971-0.324-5.932-0.756-8.863-1.306-2.577-0.472-5.134-1.081-7.653-1.818-2.223-0.648-4.396-1.444-6.501-2.397-1.909-0.855-3.738-1.867-5.469-3.026-1.623-1.091-3.138-2.338-4.525-3.714-1.387-1.385-2.636-2.898-3.738-4.529-1.16-1.719-2.174-3.547-3.029-5.443-0.945-2.112-1.751-4.274-2.4-6.494-0.748-2.515-1.348-5.06-1.83-7.634-0.541-2.928-0.974-5.875-1.298-8.832-0.374-3.37-0.649-6.74-0.846-10.12-0.217-3.812-0.374-7.634-0.453-11.456-0.088-4.293-0.137-8.577-0.137-12.87v-58.212c0-4.293 0.049-8.577 0.137-12.87 0.079-3.822 0.236-7.634 0.453-11.456 0.197-3.38 0.472-6.75 0.846-10.11 0.324-2.967 0.757-5.914 1.298-8.842 0.482-2.574 1.082-5.119 1.83-7.634 0.649-2.21 1.455-4.382 2.4-6.494 0.855-1.896 1.869-3.714 3.029-5.443 1.102-1.621 2.351-3.134 3.738-4.519 1.387-1.386 2.902-2.633 4.525-3.724 1.731-1.159 3.56-2.171 5.469-3.026 2.105-0.943 4.278-1.749 6.501-2.397 2.519-0.737 5.076-1.346 7.653-1.818 2.931-0.55 5.892-0.982 8.863-1.297 3.364-0.373 6.747-0.648 10.131-0.845 3.826-0.216 7.652-0.363 11.479-0.452 4.298-0.088 8.597-0.137 12.895-0.127h0.01 74.126 0.01z" fill="url(#_lgradient_142)" fill-rule="evenodd"/>
  </g>
  <linearGradient id="_lgradient_143" x1=".5" x2=".5" y2="1" gradientTransform="matrix(105.38 0 0 121.2 76.107 62.578)" gradientUnits="userSpaceOnUse">
   <stop stop-color="#83a598" offset="0"/>
   <stop stop-color="#458588" offset="1"/>
  </linearGradient>
  <rect x="76.11" y="62.58" width="105.38" height="121.2" fill="url(#_lgradient_143)"/>
  <linearGradient id="_lgradient_144" x2="0" y2="1" gradientTransform="matrix(120.9 0 0 145 67.547 54.5)" gradientUnits="userSpaceOnUse">
   <stop stop-color="#665c54" offset="0"/>
   <stop stop-color="#3c3836" offset="1"/>
  </linearGradient>
  <path d="m73.547 54.5h108.91c3.311 0 6 2.689 6 6v133c0 3.311-2.689 6-6 6h-108.91c-3.311 0-6-2.689-6-6v-133c0-3.311 2.689-6 6-6zm103.1 121.98h-97.3c-1.103 0-2-0.896-2-2v-106.15c0-1.103 0.897-2 2-2h97.3c1.104 0 2 0.897 2 2v106.15c0 1.104-0.896 2-2 2z" fill="url(#_lgradient_144)" fill-rule="evenodd"/>
  <g opacity=".4">
   <ellipse cx="128" cy="188.75" rx="5.986" ry="6.258" fill="#1d2021" vector-effect="non-scaling-stroke"/>
  </g>
 </g>
 <g transform="matrix(8.1181 0 0 8.1181 65.409 63.902)" fill="#ebdbb2" stroke-width=".41946">
  <path class="ColorScheme-Text" d="m7.0891 4.6302c-0.61292 0-0.61292 0.40795-0.61442 0.81641-0.00399 0.25223-0.00299 0.77859 0.00149 1.5556 0.00796 1.2412 0.00547 1.6313-0.00945 1.6846-0.42338-0.044775-1.0632-0.21591-1.3497-0.44228-0.18707-0.14876-0.37312-0.28457-0.41243-0.30248-0.16418-0.072635-0.39751-0.026866-0.53133 0.10547-0.092536 0.091541-0.12636 0.17313-0.13482 0.31989-0.00597 0.11194-0.00249 0.13831 0.03184 0.21293 0.02189 0.046765 0.061193 0.10945 0.087063 0.1393 0.02587 0.02985 0.38258 0.49203 0.79202 1.0278 0.75869 0.99153 1.5134 1.3597 1.6433 1.3965 0.0796 0.02289 4.1796 0.02338 4.2621 9.95e-4 0.03731-0.01044 0.09154-0.04477 0.12985-0.08308 0.05423-0.05373 0.07463-0.09304 0.11641-0.22239 0.1204-0.37113 0.2403-0.93581 0.27462-1.2493 0.01492-0.36467 7e-3 -0.3786 0-0.67411 0-0.00547-0.0015-0.010449-0.0015-0.015921 4.97e-4 -0.26218 2e-3 -0.48407 0-0.59601 9.95e-4 -0.40845 2e-3 -0.81641-0.60944-0.81641-0.55174 0-0.60347 0.33432-0.60944 0.699-9.95e-4 0.00995-4e-3 0.0199-4e-3 0.029353 0-0.098505 9.95e-4 -0.2602 0-0.32039 9.95e-4 -0.40795 9.95e-4 -0.81641-0.61043-0.81641-0.54825 0-0.60247 0.33034-0.60944 0.69202-0.00149 9.95e-4 -0.00299 0.00149-0.00448 0.00249 0-0.00199-9.951e-4 -0.02189-9.951e-4 -0.026368 0-0.073133 9.951e-4 -0.21094 0-0.2597 0.00149-0.40845 0.00149-0.81641-0.60993-0.81641-0.46516 0-0.57661 0.23581-0.60397 0.52835-9.95e-4 0-0.010449 0.00249-0.010449 0.00249-0.00895 0.00299-0.00149-0.49601-0.00149-1.0333 0-0.36816 0.00249-0.58656 0-0.72237 9.951e-4 -0.40845 0.00149-0.81641-0.61093-0.81641z" color="#ebdbb2" fill="currentColor" stroke-width=".49751"/>
 </g>
</svg>
