<svg width="256" height="256" viewBox="0 0 67.73 67.73" xmlns="http://www.w3.org/2000/svg">
    <defs>
        <linearGradient id="e" x1="296" x2="296" y1="-212" y2="236" gradientUnits="userSpaceOnUse">
            <stop offset="0" stop-color="#ebdbb2"/>
            <stop offset=".125" stop-color="#ebdbb2" stop-opacity=".098"/>
            <stop offset=".925" stop-opacity=".098"/>
            <stop offset="1" stop-opacity=".498"/>
        </linearGradient>
        <clipPath id="d">
            <path d="M361.938-212C507.235-212 528-191.287 528-46.125v116.25C528 215.286 507.235 236 361.937 236H214.063C68.766 236 48 215.286 48 70.125v-116.25C48-191.287 68.765-212 214.063-212z" fill="#b16286"/>
        </clipPath>
        <clipPath id="c">
            <path d="M329.938 16C475.235 16 496 36.713 496 181.875v116.25C496 443.286 475.235 464 329.937 464H182.063C36.766 464 16 443.286 16 298.125v-116.25C16 36.713 36.765 16 182.063 16z" fill="#458588"/>
        </clipPath>
        <linearGradient id="b" x1="24" x2="280" y1="28" y2="284" gradientTransform="matrix(.2697 0 0 .2697 -7.129 220.56)" gradientUnits="userSpaceOnUse">
            <stop offset="0" stop-color="#458588"/>
            <stop offset="1" stop-color="#458588"/>
        </linearGradient>
        <filter id="a" x="-.02" y="-.03" width="1.046" height="1.05" color-interpolation-filters="sRGB">
            <feGaussianBlur stdDeviation="2.32"/>
        </filter>
        <linearGradient id="k" x1="121.976" x2="108.56" y1="330.553" y2="348.038" gradientTransform="matrix(.13485 0 0 .13485 -.575 224.65)" gradientUnits="userSpaceOnUse">
            <stop offset="0" stop-color="#458588" stop-opacity=".996"/>
            <stop offset="1" stop-color="#458588" stop-opacity=".275"/>
        </linearGradient>
        <linearGradient id="j" x1="354.037" x2="370.342" y1="292.996" y2="314.245" gradientTransform="matrix(.13485 0 0 .13485 -.575 224.65)" gradientUnits="userSpaceOnUse">
            <stop offset="0" stop-color="#458588" stop-opacity=".996"/>
            <stop offset="1" stop-color="#458588" stop-opacity=".275"/>
        </linearGradient>
        <linearGradient id="i" x1="211.404" x2="211.404" y1="344.742" y2="375.678" gradientTransform="matrix(.99945 0 0 .99945 -183.355 -97.735)" gradientUnits="userSpaceOnUse">
            <stop offset="0" stop-color="#ebdbb2"/>
            <stop offset="1" stop-color="#ebdbb2"/>
        </linearGradient>
        <linearGradient id="h" x1="297.987" x2="299.397" y1="344.067" y2="141.4" gradientTransform="matrix(.13485 0 0 .13485 -.575 227.077)" gradientUnits="userSpaceOnUse">
            <stop offset="0" stop-color="#ebdbb2" stop-opacity=".996"/>
            <stop offset="1" stop-color="#ebdbb2"/>
        </linearGradient>
        <filter id="g" x="-.01" y="-.01" width="1.021" height="1.028" color-interpolation-filters="sRGB">
            <feGaussianBlur stdDeviation="1.346"/>
        </filter>
        <linearGradient id="f" x1="211.404" x2="232.776" y1="344.742" y2="375.408" gradientTransform="matrix(7.41138 0 0 7.41138 -1355.39 -2406.617)" gradientUnits="userSpaceOnUse">
            <stop offset="0" stop-opacity="0"/>
            <stop offset=".67"/>
            <stop offset="1" stop-opacity="0"/>
        </linearGradient>
    </defs>
    <path transform="matrix(.2697 0 0 .2697 -7.129 -8.706)" d="M188.969 46C261.617 46 272 56.357 272 128.938v58.125c0 72.58-10.383 82.937-83.031 82.937H115.03C42.383 270 32 259.643 32 187.062v-58.125C32 56.358 42.383 46 115.031 46z" filter="url(#a)" opacity=".2"/>
    <path d="M43.837 232.428c19.594 0 22.395 2.793 22.395 22.369v15.676c0 19.576-2.8 22.37-22.395 22.37H23.896c-19.594 0-22.394-2.794-22.394-22.37v-15.676c0-19.576 2.8-22.37 22.394-22.37z" fill="url(#b)" transform="translate(0 -229.267)"/>
    <g transform="matrix(.13485 0 0 .13485 -.656 1.003)" clip-path="url(#c)" fill="#ebdbb2" opacity=".4">
        <g opacity=".6">
            <path d="M130.122 462.57c1.074.07 1.994.193 3.088.257.85.05 2.005.023 2.867.069L136 448l52-48v-16.003l24-24V348L224 335.998v-31.997L208 287.998h-32.001L160 272h-39.999L104 288V328l32.108 28.134L136 392l-11.998 12.002v51.997l6.12 6.572zM199.999 152L188 164h11.998l4 4H208l4-4L200 152z"/>
            <path d="M37.294 53.298c-.208.297-.477.526-.682.827-2.377 3.508-4.495 7.323-6.38 11.474-1.885 4.15-3.537 8.636-4.982 13.48-1.444 4.845-2.682 10.05-3.736 15.64-1.054 5.588-1.925 11.56-2.64 17.945-.715 6.383-1.272 13.176-1.698 20.405C16.325 147.528 16 163.73 16 181.874v42.125l15.999 16h24L96 280v-48l24-24H136l24-24h24l-11.998-12.002 24-27.997-24-24H136v31.997h-15.999L104 136.001v-16l24-24h20.003V80l-24-24H83.999v24H64L37.295 53.298zM352 208h-48l-28 28v40l20 20h28l12 12v12l8 8v48l30.378 32.108 50.163-50.162L424 312l40-40h-16l-40-40v-16h-48z"/>
            <path d="M496 224v-42.126c0-18.145-.325-34.346-1.176-48.805-.426-7.23-.983-14.022-1.698-20.405-.715-6.384-1.586-12.357-2.64-17.946-1.054-5.589-2.292-10.794-3.736-15.638-1.445-4.845-3.097-9.33-4.982-13.481-1.2-2.643-2.666-4.926-4.062-7.304L472 64h-24l-24 24-15.999-16h-48l-24 24v20h24V104h16v16.003l-8.002 7.997-31.998.54L324 140.002h-15.998V156l-12.002 12.002v23.996h24L336 176h16v8.002l15.998 15.998H376v-8l-15.999-16h16l15.998 16h20L400 180l11.998-11.998H424L435.998 180H424l-12.002 11.998 11.784 11.784.218 12.216h-15.999l48 48H464l8.001-7.997L488 239.998 472 224h24z"/>
            <path d="M312 132v-12l12-12v24zM436 368v-25.081L452 328v40zM271.999 16H182.06c-1.542 0-2.633.095-4.146.1L164 32l24 24v25.08L216 112H232V96.003l24-24V55.999l15.999-15.998V16zM136 17.108c-.838.045-1.963.017-2.79.065-7.236.425-14.038.98-20.428 1.694s-12.37 1.584-17.965 2.636c-4.996.94-9.579 2.086-13.98 3.334l15.164 15.164H136V17.108zM252 104h12l12 12h-24zM144 236h-12l-12 12h24z"/>
        </g>
    </g>
    <path transform="matrix(.13485 0 0 .13485 -4.971 31.75)" d="M361.938-212C507.235-212 528-191.287 528-46.125v116.25C528 215.286 507.235 236 361.937 236H214.063C68.766 236 48 215.286 48 70.125v-116.25C48-191.287 68.765-212 214.063-212z" clip-path="url(#d)" fill="none" opacity=".4" stroke-linecap="round" stroke-linejoin="round" stroke-width="8" stroke="url(#e)"/>
    <path transform="matrix(.13485 0 0 .13485 -.575 -2.19)" d="M132.664 147.4c-14.297-.178-23.904 3.031-28.834 8.948-5.177 6.163-7.83 16.274-7.83 30.326v128.119c0 14.051 2.653 24.161 7.83 30.324 4.93 5.917 14.536 8.95 28.834 8.95h33.957l44.783 31.61 44.784-31.61h123.148c14.298 0 23.903-3.033 28.834-8.95 5.177-6.163 7.83-16.273 7.83-30.324v-128.12c0-14.05-2.653-24.162-7.83-30.325-4.93-5.917-14.536-8.948-28.834-8.948h-181.75z" fill="url(#f)" filter="url(#filter4482)" opacity=".2"/>
    <path transform="matrix(.13485 0 0 .13485 -.575 -2.19)" d="M132.664 147.4c-14.297-.178-23.904 3.031-28.834 8.948-5.177 6.163-7.83 16.274-7.83 30.326v128.119c0 14.051 2.653 24.161 7.83 30.324 4.93 5.917 14.536 8.95 28.834 8.95h33.957l44.783 31.61 44.784-31.61h123.148c14.298 0 23.903-3.033 28.834-8.95 5.177-6.163 7.83-16.273 7.83-30.324v-128.12c0-14.05-2.653-24.162-7.83-30.325-4.93-5.917-14.536-8.948-28.834-8.948h-181.75z" filter="url(#g)" opacity=".1"/>
    <path d="M12.37 255.126v14.132c0 1.895.358 3.258 1.056 4.09.665.797 1.96 1.206 3.889 1.206h4.58l6.038 4.263 6.04-4.263h16.606c1.929 0 3.224-.409 3.89-1.207.697-.83 1.055-2.194 1.055-4.089v-14.132z" fill="url(#h)" transform="translate(0 -229.267)"/>
    <path d="M17.315 246.496c-1.928-.025-3.224.43-3.889 1.228-.698.831-1.055 2.195-1.055 4.09v16.78l9.523 5.96 6.04 4.263 6.038-4.263 21.552-16.364v-6.376c0-1.895-.358-3.259-1.056-4.09-.665-.798-1.96-1.228-3.888-1.228H26.07z" fill="url(#i)" transform="translate(0 -229.267)"/>
    <path d="M55.524 258.19l-21.552 16.364H50.58c1.928 0 3.223-.409 3.888-1.207.698-.83 1.056-2.194 1.056-4.09z" fill="url(#j)" opacity=".1" transform="translate(0 -229.267)"/>
    <path d="M12.37 268.593v.665c0 1.895.358 3.258 1.056 4.09.665.797 1.974 1.432 3.889 1.206h4.579z" fill="url(#k)" opacity=".1" transform="translate(0 -229.267)"/>
    <path d="M17.315 17.229c-1.928-.024-3.224.431-3.889 1.229-.698.831-1.055 2.194-1.055 4.09v.539c0-1.895.357-3.259 1.055-4.09.665-.798 1.96-1.253 3.889-1.229h33.264c1.929 0 3.224.431 3.89 1.23.697.83 1.055 2.194 1.055 4.089v-.54c0-1.895-.358-3.258-1.056-4.09-.665-.797-1.96-1.228-3.889-1.228H26.07z" fill="#ebdbb2"/>
</svg>
