<svg width="256" height="256" version="1.0" xmlns="http://www.w3.org/2000/svg" enable-background="new">
    <defs>
        <filter id="a" x="-.02" y="-.03" width="1.046" height="1.05" color-interpolation-filters="sRGB">
            <feGaussianBlur stdDeviation="2.32"/>
        </filter>
        <filter id="b" x="-.01" y="-.01" width="1.023" height="1.025" color-interpolation-filters="sRGB">
            <feGaussianBlur stdDeviation="1.16"/>
        </filter>
        <linearGradient id="d" x1="296" x2="296" y1="-212" y2="236" gradientUnits="userSpaceOnUse">
            <stop offset="0" stop-color="#ebdbb2"/>
            <stop offset=".125" stop-color="#ebdbb2" stop-opacity=".098"/>
            <stop offset=".925" stop-opacity=".098"/>
            <stop offset="1" stop-opacity=".498"/>
        </linearGradient>
        <clipPath id="c">
            <path d="M361.938-212C507.235-212 528-191.287 528-46.125v116.25C528 215.286 507.235 236 361.937 236H214.063C68.766 236 48 215.286 48 70.125v-116.25C48-191.287 68.765-212 214.063-212z" fill="#b16286"/>
        </clipPath>
        <filter id="e" x="-.05" y="-.05" width="1.096" height="1.096" color-interpolation-filters="sRGB">
            <feGaussianBlur stdDeviation=".924"/>
        </filter>
        <linearGradient id="f" x1="12.274" x2="35.391" y1="32.416" y2="14.203" gradientTransform="matrix(0 2.28573 -2.28573 0 116.8 10.51)" gradientUnits="userSpaceOnUse">
            <stop offset="0" stop-color="#ebdbb2"/>
            <stop offset=".5" stop-color="#ebdbb2"/>
            <stop offset="1" stop-color="#ebdbb2"/>
        </linearGradient>
    </defs>
    <path d="M162.537 62.432c72.648 0 83.031 10.357 83.031 82.937v58.125c0 72.581-10.383 82.938-83.031 82.938H88.599c-72.648 0-83.031-10.357-83.031-82.938V145.37c0-72.58 10.383-82.937 83.031-82.937z" filter="url(#a)" opacity=".2" transform="translate(0 -44)"/>
    <path d="M162.537 61.432c72.648 0 83.031 10.357 83.031 82.937v58.125c0 72.581-10.383 82.938-83.031 82.938H88.599c-72.648 0-83.031-10.357-83.031-82.938V144.37c0-72.58 10.383-82.937 83.031-82.937z" filter="url(#b)" opacity=".1" transform="translate(0 -44)"/>
    <path d="M162.537 16.432c72.648 0 83.031 10.357 83.031 82.937v58.125c0 72.581-10.383 82.938-83.031 82.938H88.599c-72.648 0-83.031-10.357-83.031-82.938V99.37c0-72.58 10.383-82.937 83.031-82.937z" fill="#504945"/>
    <path transform="matrix(.5 0 0 .5 -18.432 122.432)" d="M361.938-212C507.235-212 528-191.287 528-46.125v116.25C528 215.286 507.235 236 361.937 236H214.063C68.766 236 48 215.286 48 70.125v-116.25C48-191.287 68.765-212 214.063-212z" clip-path="url(#c)" fill="none" opacity=".4" stroke-linecap="round" stroke-linejoin="round" stroke-width="8" stroke="url(#d)"/>
    <path d="M5.568 127.718v34.777c0 34.053 2.593 53.504 14.273 64.45 11.681 10.946 32.432 13.371 68.758 13.371h73.938c36.326 0 57.077-2.425 68.758-13.371 11.68-10.946 14.273-30.397 14.273-64.45v-34.777z" fill="#ebdbb2" opacity=".05"/>
    <g>
        <g filter="url(#e)" opacity=".3" transform="matrix(3.77953 0 0 3.77953 -8.081 -862.597)">
            <path d="M38.355 239.157c.156.03.315.055.469.092.542 1.33.94 2.99 1.477 4.328-1.487.951-2.912 1.94-4.233 3.053 0 .098 1.127 1.033 2.174 1.95l1.906 1.667-2.484 1.648c-1.323.88-2.076 1.385-2.502 1.626-.12.068-.207.112-.28.143.16-.008.316-.023.48-.023 5.035 0 8.47 3.902 8.47 8.47 0 4.662-3.715 8.47-8.47 8.47-4.85 0-8.47-3.902-8.47-8.47 0-4.44 3.12-8.098 7.767-8.436-.007-.015-.015-.03-.015-.053 0-.091.311-.886.693-1.748.38-.862.647-1.577.595-1.607-1.383-1.333-2.27-2.164-3.81-3.637 1.132-1.195 2.014-2.18 2.887-3.355l-1.905-2.29c-.948-1.141-1.06-1.239-1.51-1.718A23.084 23.084 0 0 0 12.21 262.11a23.092 23.092 0 0 0 23.151 23.152 23.092 23.092 0 0 0 23.151-23.152 23.082 23.082 0 0 0-20.157-22.954z"/>
        </g>
        <path d="M125.568 96.42c-17.67 0-32.012 14.341-32.012 32.012 0 17.67 14.341 32.012 32.012 32.012 17.67 0 32.012-14.341 32.012-32.012 0-17.67-14.341-32.012-32.012-32.012zm0 16.006c8.835 0 16.006 7.17 16.006 16.006 0 8.835-7.17 16.006-16.006 16.006s-16.006-7.17-16.006-16.006c0-8.835 7.17-16.006 16.006-16.006z" fill="none"/>
        <path transform="matrix(2.1875 0 0 2.1875 -14.432 -14.93)" d="M69.172 25.707c.27.052.544.095.81.158.936 2.298 1.625 5.168 2.553 7.479-2.57 1.643-5.032 3.352-7.314 5.275 0 .169 1.948 1.784 3.756 3.367l3.293 2.881-4.291 2.848c-2.286 1.522-3.587 2.394-4.323 2.81a4.897 4.897 0 0 1-.484.246c.276-.013.546-.039.828-.039 8.7 0 14.635 6.741 14.635 14.635 0 8.055-6.419 14.635-14.635 14.635-8.377 0-14.635-6.743-14.635-14.635 0-7.671 5.392-13.992 13.422-14.576-.013-.026-.027-.05-.027-.092 0-.158.538-1.53 1.197-3.02.659-1.489 1.119-2.725 1.03-2.777-2.39-2.302-3.924-3.74-6.583-6.283 1.955-2.065 3.478-3.765 4.987-5.797L60.1 28.865c-1.638-1.972-1.831-2.14-2.61-2.969A39.884 39.884 0 0 0 24 65.367c0 22.172 17.828 40 40 40s40-17.828 40-40a39.88 39.88 0 0 0-34.828-39.66z" fill="url(#f)"/>
        <path d="M125.568 96.049c-17.67 0-32.012 14.341-32.012 32.012 0 17.67 14.341 32.012 32.012 32.012 17.67 0 32.012-14.341 32.012-32.012 0-17.67-14.341-32.012-32.012-32.012zm0 16.006c8.835 0 16.006 7.17 16.006 16.006 0 8.835-7.17 16.006-16.006 16.006s-16.006-7.17-16.006-16.006 7.17-16.006 16.006-16.006z" fill="none"/>
    </g>
</svg>
