<svg width="256" height="256" viewBox="0 0 67.73 67.73" xmlns="http://www.w3.org/2000/svg">
    <defs>
        <linearGradient id="e" x1="296" x2="296" y1="-212" y2="236" gradientUnits="userSpaceOnUse">
            <stop offset="0" stop-color="#ebdbb2"/>
            <stop offset=".125" stop-color="#ebdbb2" stop-opacity=".098"/>
            <stop offset=".925" stop-opacity=".098"/>
            <stop offset="1" stop-opacity=".498"/>
        </linearGradient>
        <clipPath id="d">
            <path d="M361.938-212C507.235-212 528-191.287 528-46.125v116.25C528 215.286 507.235 236 361.937 236H214.063C68.766 236 48 215.286 48 70.125v-116.25C48-191.287 68.765-212 214.063-212z" fill="#b16286"/>
        </clipPath>
        <filter id="b" x="-.01" y="-.01" width="1.023" height="1.025" color-interpolation-filters="sRGB">
            <feGaussianBlur stdDeviation="1.16"/>
        </filter>
        <filter id="a" x="-.02" y="-.03" width="1.046" height="1.05" color-interpolation-filters="sRGB">
            <feGaussianBlur stdDeviation="2.32"/>
        </filter>
        <radialGradient id="c" cx="31.272" cy="247.711" r="32.365" gradientTransform="matrix(2.40398 -.66748 .3789 1.3646 -137.76 -68.448)" gradientUnits="userSpaceOnUse">
            <stop offset="0" stop-color="#979617"/>
            <stop offset="1" stop-color="#b8bb26"/>
        </radialGradient>
        <filter id="f" x="-.07" y="-.05" width="1.146" height="1.106" color-interpolation-filters="sRGB">
            <feGaussianBlur stdDeviation=".728"/>
        </filter>
        <filter id="g" x="-.05" y="-.14" width="1.092" height="1.286" color-interpolation-filters="sRGB">
            <feGaussianBlur stdDeviation=".728"/>
        </filter>
        <filter id="h" x="-.08" y="-.05" width="1.164" height="1.101" color-interpolation-filters="sRGB">
            <feGaussianBlur stdDeviation=".728"/>
        </filter>
        <filter id="i" x="-.12" y="-.12" width="1.24" height="1.24" color-interpolation-filters="sRGB">
            <feGaussianBlur stdDeviation=".228"/>
        </filter>
    </defs>
    <path transform="matrix(.2697 0 0 .2697 0 2.199)" d="M162.537 5.568c72.648 0 83.031 10.357 83.031 82.938v58.125c0 72.58-10.383 82.937-83.031 82.937H88.599c-72.648 0-83.031-10.357-83.031-82.937V88.506c0-72.581 10.383-82.938 83.031-82.938z" filter="url(#a)" opacity=".2"/>
    <path d="M43.837 3.161c19.594 0 22.395 2.793 22.395 22.369v15.677c0 19.575-2.8 22.369-22.395 22.369H23.896c-19.594 0-22.394-2.794-22.394-22.37V25.53c0-19.576 2.8-22.369 22.394-22.369z" fill="none" opacity=".1" stroke-linecap="round" stroke-linejoin="round" stroke-width="1.079" stroke="#282828"/>
    <path transform="matrix(.2697 0 0 .2697 0 2.199)" d="M162.537 3.568c72.648 0 83.031 10.357 83.031 82.938v58.125c0 72.58-10.383 82.937-83.031 82.937H88.599c-72.648 0-83.031-10.357-83.031-82.937V86.506c0-72.581 10.383-82.938 83.031-82.938z" filter="url(#b)" opacity=".1"/>
    <path d="M43.837 232.428c19.594 0 22.395 2.793 22.395 22.369v15.676c0 19.576-2.8 22.37-22.395 22.37H23.896c-19.594 0-22.394-2.794-22.394-22.37v-15.676c0-19.576 2.8-22.37 22.394-22.37z" fill="url(#c)" transform="translate(0 -229.267)"/>
    <path transform="matrix(.13485 0 0 .13485 -4.971 31.75)" d="M361.938-212C507.235-212 528-191.287 528-46.125v116.25C528 215.286 507.235 236 361.937 236H214.063C68.766 236 48 215.286 48 70.125v-116.25C48-191.287 68.765-212 214.063-212z" clip-path="url(#d)" fill="none" opacity=".4" stroke-linecap="round" stroke-linejoin="round" stroke-width="8" stroke="url(#e)"/>
    <g stroke="#ebdbb2">
        <path d="M44.524 245.585c.641-3.262.283-5.737-1.232-6.72-.505-.329-1.11-.472-1.792-.446-3.679.14-9.615 5.205-14.465 12.674-5.748 8.851-7.791 17.722-4.56 19.82 1.534.997 3.979.29 6.74-1.677" fill="none" filter="url(#f)" opacity=".3" stroke-linecap="round" stroke-width="1.517" stroke="#282828" transform="translate(.995 -220.41)"/>
        <path d="M45.52 25.174c.64-3.261.282-5.737-1.233-6.72-.505-.329-1.11-.472-1.792-.446-3.679.14-9.615 5.205-14.465 12.674-5.748 8.851-7.791 17.722-4.56 19.821 1.534.996 3.979.29 6.74-1.678" fill="none" stroke-linecap="round" stroke-width="1.517"/>
        <path d="M47.472 260.06c2.729-1.058 4.406-2.507 4.494-4.17.201-3.849-8.173-7.411-18.713-7.964a52.318 52.318 0 0 0-2.91-.075c-9.187.03-16.358 2.55-16.541 6.038-.087 1.66 1.426 3.27 4.02 4.607" fill="none" filter="url(#g)" opacity=".3" stroke-linecap="round" stroke-width="1.517" stroke="#282828" transform="translate(.995 -220.41)"/>
        <path d="M48.467 39.65c2.729-1.06 4.406-2.508 4.494-4.172.201-3.848-8.173-7.41-18.713-7.962a52.318 52.318 0 0 0-2.91-.076c-9.187.03-16.358 2.551-16.541 6.038-.087 1.66 1.426 3.27 4.02 4.607" fill="none" stroke-linecap="round" stroke-width="1.517"/>
        <path d="M30.277 239.85c-1.867-1.549-3.618-2.38-5.024-2.275-.375.028-.721.12-1.043.284-3.433 1.75-2.336 10.797 2.455 20.2 4.792 9.405 11.46 15.609 14.892 13.86 3.302-1.683 2.41-10.113-1.924-19.12" fill="none" filter="url(#h)" opacity=".3" stroke-linecap="round" stroke-width="1.517" stroke="#282828" transform="translate(.995 -220.41)"/>
        <path d="M31.272 19.44c-1.867-1.55-3.617-2.381-5.024-2.276-.375.028-.721.12-1.043.285-3.433 1.749-2.336 10.796 2.455 20.2 4.792 9.404 11.46 15.608 14.892 13.859 3.302-1.682 2.41-10.113-1.924-19.12" fill="none" stroke-linecap="round" stroke-width="1.517"/>
        <path d="M35.282 255.16a2.275 2.275 0 0 1-4.55 0 2.275 2.275 0 1 1 4.55 0z" fill="#282828" filter="url(#i)" opacity=".3" transform="translate(.995 -220.41)"/>
        <path d="M36.277 34.748a2.275 2.275 0 0 1-4.55 0 2.275 2.275 0 1 1 4.55 0z" fill="#ebdbb2"/>
    </g>
    
    <path d="M23.896 63.576c-19.594 0-22.394-2.644-22.394-21.168v-7.417h64.73v7.417c0 18.524-2.8 21.168-22.395 21.168z" fill="#282828" opacity=".1"/>
</svg>
