<svg width="256" height="256" viewBox="0 0 67.73 67.73" xmlns="http://www.w3.org/2000/svg">
    <defs>
        <clipPath id="c">
            <path d="M361.938-212C507.235-212 528-191.287 528-46.125v116.25C528 215.286 507.235 236 361.937 236H214.063C68.766 236 48 215.286 48 70.125v-116.25C48-191.287 68.765-212 214.063-212z" fill="#b16286"/>
        </clipPath>
        <filter id="b" x="-.01" y="-.01" width="1.023" height="1.025" color-interpolation-filters="sRGB">
            <feGaussianBlur stdDeviation="1.16"/>
        </filter>
        <filter id="a" x="-.02" y="-.03" width="1.046" height="1.05" color-interpolation-filters="sRGB">
            <feGaussianBlur stdDeviation="2.32"/>
        </filter>
        <linearGradient id="d" x1="296" x2="296" y1="-212" y2="236" gradientUnits="userSpaceOnUse">
            <stop offset="0" stop-color="#ebdbb2"/>
            <stop offset=".125" stop-color="#ebdbb2" stop-opacity=".098"/>
            <stop offset=".925" stop-opacity=".098"/>
            <stop offset="1" stop-opacity=".498"/>
        </linearGradient>
    </defs>
    <path transform="matrix(.2697 0 0 .2697 -7.129 -8.706)" d="M188.969 46C261.617 46 272 56.357 272 128.938v58.125c0 72.58-10.383 82.937-83.031 82.937H115.03C42.383 270 32 259.643 32 187.062v-58.125C32 56.358 42.383 46 115.031 46z" filter="url(#a)" opacity=".2"/>
    <path transform="matrix(.2697 0 0 .2697 -7.129 -8.706)" d="M188.969 44C261.617 44 272 54.357 272 126.938v58.124C272 257.644 261.617 268 188.969 268H115.03C42.383 268 32 257.643 32 185.062v-58.125C32 54.358 42.383 44 115.031 44z" filter="url(#b)" opacity=".1"/>
    <path d="M23.896 3.161c-9.797 0-15.394.697-18.545 3.843-3.15 3.147-3.85 8.738-3.85 18.526v15.677c0 9.788.7 15.379 3.85 18.525 3.15 3.147 8.748 3.844 18.545 3.844h19.941c9.798 0 15.395-.697 18.545-3.844 3.15-3.146 3.85-8.737 3.85-18.525V25.53c0-9.788-.7-15.38-3.85-18.526-3.15-3.146-8.747-3.843-18.545-3.843z" fill="#282828"/>
    <path d="M1.502 40.667v.54c0 9.788.699 15.379 3.85 18.525 3.15 3.147 8.747 3.844 18.544 3.844h19.941c9.798 0 15.395-.697 18.545-3.844 3.15-3.146 3.85-8.737 3.85-18.525v-.54c0 9.788-.7 15.38-3.85 18.526-3.15 3.146-8.747 3.843-18.545 3.843H23.896c-9.797 0-15.394-.697-18.545-3.843-3.15-3.147-3.85-8.738-3.85-18.526z" fill="#282828" opacity=".2"/>
    <path transform="matrix(.13485 0 0 .13485 -4.971 31.75)" d="M361.938-212C507.235-212 528-191.287 528-46.125v116.25C528 215.286 507.235 236 361.937 236H214.063C68.766 236 48 215.286 48 70.125v-116.25C48-191.287 68.765-212 214.063-212z" clip-path="url(#c)" fill="none" opacity=".4" stroke-linecap="round" stroke-linejoin="round" stroke-width="8" stroke="url(#d)"/>
    <path d="M1.502 31.21v9.997c0 9.788.699 15.379 3.85 18.525 3.15 3.147 8.747 3.844 18.544 3.844h19.941c9.798 0 15.395-.697 18.545-3.844 3.15-3.146 3.85-8.737 3.85-18.525V31.21z" fill="#ebdbb2" opacity=".05"/>
    <path d="M14.244 27.395c-3.731 0-6.836 1.583-6.836 6.365 0 3.779 2.086 6.162 6.946 6.162 5.707 0 6.068-3.763 6.068-3.763h-2.76s-.595 2.023-3.48 2.023c-2.352 0-4.03-1.584-4.03-3.81H20.72v-1.396c-.016-2.195-1.411-5.581-6.476-5.581zm-.094 1.787c2.242 0 3.763 1.364 3.763 3.418H10.2c0-2.18 1.991-3.418 3.951-3.418z" fill="#fb4934"/>
    <path d="M20.704 22.77v14.753c0 .831-.063 2.007-.063 2.007h2.634s.095-.847.095-1.615c0 0 1.3 2.038 4.844 2.038 3.732 0 6.256-2.587 6.256-6.303 0-3.449-2.32-6.224-6.256-6.224-3.684 0-4.829 1.991-4.829 1.991V22.77zm6.836 6.49c2.54 0 4.14 1.882 4.14 4.406 0 2.713-1.866 4.469-4.124 4.469-2.697 0-4.155-2.117-4.155-4.453 0-2.18 1.301-4.422 4.14-4.422z" fill="#458588"/>
    <path d="M41.024 27.395c-5.613 0-5.974 3.073-5.974 3.559h2.791s.141-1.788 2.995-1.788c1.85 0 3.277.847 3.277 2.462v.58h-3.277c-4.343 0-6.648 1.27-6.648 3.857 0 2.54 2.117 3.92 5.002 3.92 3.92 0 5.174-2.164 5.174-2.164 0 .862.062 1.71.062 1.71h2.478s-.094-1.051-.094-1.726v-5.8c0-3.81-3.073-4.61-5.786-4.61zm3.089 6.553v.769c0 1.003-.627 3.512-4.28 3.512-2.007 0-2.854-1.004-2.854-2.164 0-2.101 2.9-2.117 7.134-2.117z" fill="#fe8019"/>
    <path d="M45.305 27.88h3.151l4.516 9.047 4.5-9.046h2.853l-8.2 16.086H49.13l2.368-4.484z" fill="#b8bb26"/>
</svg>
