<svg width="256" height="256" viewBox="0 0 67.73 67.73" xmlns="http://www.w3.org/2000/svg">
    <defs>
        <linearGradient id="d" x1="296" x2="296" y1="-212" y2="236" gradientUnits="userSpaceOnUse">
            <stop offset="0" stop-color="#ebdbb2"/>
            <stop offset=".125" stop-color="#ebdbb2" stop-opacity=".098"/>
            <stop offset=".925" stop-opacity=".098"/>
            <stop offset="1" stop-opacity=".498"/>
        </linearGradient>
        <clipPath id="c">
            <path d="M361.938-212C507.235-212 528-191.287 528-46.125v116.25C528 215.286 507.235 236 361.937 236H214.063C68.766 236 48 215.286 48 70.125v-116.25C48-191.287 68.765-212 214.063-212z" fill="#b16286"/>
        </clipPath>
        <filter id="b" x="-.01" y="-.01" width="1.023" height="1.025" color-interpolation-filters="sRGB">
            <feGaussianBlur stdDeviation="1.16"/>
        </filter>
        <filter id="a" x="-.02" y="-.03" width="1.046" height="1.05" color-interpolation-filters="sRGB">
            <feGaussianBlur stdDeviation="2.32"/>
        </filter>
    </defs>
    <g transform="translate(0 -229.267)">
        <path transform="matrix(.2697 0 0 .2697 -7.129 220.56)" d="M188.969 46C261.617 46 272 56.357 272 128.938v58.125c0 72.58-10.383 82.937-83.031 82.937H115.03C42.383 270 32 259.643 32 187.062v-58.125C32 56.358 42.383 46 115.031 46z" filter="url(#a)" opacity=".02"/>
        <path transform="matrix(.2697 0 0 .2697 -7.129 220.56)" d="M188.969 44C261.617 44 272 54.357 272 126.938v58.124C272 257.644 261.617 268 188.969 268H115.03C42.383 268 32 257.643 32 185.062v-58.125C32 54.358 42.383 44 115.031 44z" filter="url(#b)" opacity=".1"/>
        <path d="M43.837 232.428c19.594 0 22.395 2.793 22.395 22.369v15.676c0 19.576-2.8 22.37-22.395 22.37H23.896c-19.594 0-22.394-2.794-22.394-22.37v-15.676c0-19.576 2.8-22.37 22.394-22.37z" fill="#8ec07c"/>
        <path transform="matrix(.13485 0 0 .13485 -4.971 261.017)" d="M361.938-212C507.235-212 528-191.287 528-46.125v116.25C528 215.286 507.235 236 361.937 236H214.063C68.766 236 48 215.286 48 70.125v-116.25C48-191.287 68.765-212 214.063-212z" clip-path="url(#c)" fill="none" opacity=".4" stroke-linecap="round" stroke-linejoin="round" stroke-width="8" stroke="url(#d)"/>
        <path d="M66.232 270.473v-15.677c0-2.447-.044-4.631-.159-6.581a52.606 52.606 0 0 0-.229-2.752 32.725 32.725 0 0 0-.356-2.42 21.028 21.028 0 0 0-.504-2.109 14.204 14.204 0 0 0-.672-1.818c-.254-.56-.54-1.074-.86-1.547a8.81 8.81 0 0 0-1.07-1.298c-.272-.272-.589-.502-.899-.74L6.898 290.205c.41.26.83.509 1.302.722.56.254 1.166.476 1.82.67.654.195 1.356.362 2.11.504.755.142 1.561.26 2.423.356s1.78.17 2.755.228c1.952.115 4.138.158 6.588.158h19.942c19.593 0 21.669-2.807 22.394-22.369z" fill="#ebdbb2" opacity=".2"/>
        <ellipse cx="27.927" cy="266.208" rx="7.832" ry="8.405" fill="#ebdbb2"/>
        <path d="M48.833 247.887c0 2.753-1.927 4.985-4.303 4.985s-4.303-2.232-4.303-4.985c0-2.752-.02-3.686 2.356-3.686 2.377 0 6.25.934 6.25 3.686z" fill="#ebdbb2"/>
        <path d="M43.335 246.47c-.092.019-.173.078-.267.163-.381.345-.299.466 1.273 1.86.924.819 1.691 1.495 1.703 1.502.012.006.2-.185.418-.426.378-.417.32-.502-1.295-1.87-1.173-.995-1.555-1.289-1.832-1.23zM43.025 250.761c-.094-.047-.18-.11-.273-.163.082.045.145.118.232.155.012.005.028.003.04.008z"/>
        <path d="M40.227 242.79c-3.721.023-7.458 1.778-9.827 5.44-1.061 1.641-1.833 3.969-1.819 5.488l.01.977c.022-.004.45 2.262.472 2.259l3.722 1.278c1.42-2.691-1.552-.25 1.909.219 3.02.41.027 1.176 3.935 3.133 1.265.634.689.495.689 2.613 0 2.65 3.092-.315 1.543 1.233l1.856.746 1.444-.48c3.54-1.178 6.166-3.824 7.412-7.467.726-2.123.723-5.145-.007-7.313-1.795-5.323-6.554-8.157-11.339-8.127zm2.87 2.061c2.68-.09 5.898 2.539 5.147 4.816a2.524 2.524 0 0 1-1.015 1.291c-1.358.829-3.595.483-5.21-.805-2.163-1.726-2.308-3.928-.327-4.952.431-.223.909-.333 1.405-.35z" fill="#fabd2f"/>
        <path d="M29.275 255.19c-1.225-.016-2.418.082-3.28.302-2.557.656-4.4 1.717-6.355 3.66-2.762 2.747-4.028 5.8-4.021 9.702.011 6.852 4.97 12.505 11.897 13.564 1.185.182 4.197-.07 5.53-.461 2.11-.62 3.99-1.765 5.726-3.489 2.878-2.858 4.222-6.265 4.038-10.244l-.094-2.046-.153-.664-.63-1.618c-1.464-3.763-4.588-6.778-8.414-8.119-1.041-.365-2.669-.569-4.244-.588zm-.836 3.855c1.82.032 3.61.75 4.834 2.145 3.03 3.45 2.035 8.75-2.012 10.73-3.18 1.557-6.93.53-8.792-2.407-1.697-2.677-1.3-6.25.948-8.497 1.35-1.35 3.2-2.003 5.022-1.971zm-.815 2.028a4.453 4.453 0 0 0-2.791 1.025c-1.346 1.132-.75 2.931 1.085 3.276l.78.146-.704.802c-.67.764-.818 1.17-.71 1.956.077.57.954 1.372 1.617 1.48.873.141 2.382-.075 3.105-.445.949-.485 1.844-1.684 1.844-2.469 0-.901-.867-1.767-1.98-1.976-.676-.127-.825-.242-.696-.542.09-.21.275-.772.41-1.25.21-.735.183-.94-.18-1.342-.402-.444-1.054-.66-1.78-.661zm-.372 1.153c.157-.004.319.013.48.054.659.165.836.987.323 1.5-.3.3-1.644.387-1.906.125-.086-.086-.156-.404-.156-.707 0-.547.578-.955 1.259-.972zm1.465 4.178c1.208 0 1.67.96.83 1.72-.5.453-1.695.513-2.101.107-.707-.706.073-1.827 1.271-1.827z"/>
    </g>
</svg>
