<svg width="256" height="256" viewBox="0 0 67.73 67.73" xmlns="http://www.w3.org/2000/svg" xmlns:xlink="http://www.w3.org/1999/xlink">
    <defs>
        <linearGradient id="d" x1="168" x2="168" y1="284" y2="28" gradientTransform="matrix(.2697 0 0 .2697 -7.129 220.56)" gradientUnits="userSpaceOnUse">
            <stop offset="0" stop-color="#8f3f71"/>
            <stop offset="1" stop-color="#b16286"/>
        </linearGradient>
        <linearGradient id="a">
            <stop offset="0" stop-color="#ebdbb2"/>
            <stop offset="1" stop-color="#ebdbb2"/>
        </linearGradient>
        <filter id="c" x="-.02" y="-.03" width="1.046" height="1.05" color-interpolation-filters="sRGB">
            <feGaussianBlur stdDeviation="2.32"/>
        </filter>
        <filter id="b" x="-.01" y="-.01" width="1.023" height="1.025" color-interpolation-filters="sRGB">
            <feGaussianBlur stdDeviation="1.16"/>
        </filter>
        <linearGradient id="f" x1="296" x2="296" y1="-212" y2="236" gradientUnits="userSpaceOnUse">
            <stop offset="0" stop-color="#ebdbb2"/>
            <stop offset=".125" stop-color="#ebdbb2" stop-opacity=".098"/>
            <stop offset=".925" stop-opacity=".098"/>
            <stop offset="1" stop-opacity=".498"/>
        </linearGradient>
        <clipPath id="e">
            <path d="M361.938-212C507.235-212 528-191.287 528-46.125v116.25C528 215.286 507.235 236 361.937 236H214.063C68.766 236 48 215.286 48 70.125v-116.25C48-191.287 68.765-212 214.063-212z" fill="#b16286"/>
        </clipPath>
        <linearGradient id="h" x1="34.107" x2="34.117" y1="248.32" y2="277.587" gradientUnits="userSpaceOnUse" xlink:href="#a"/>
        <filter id="g" x="-.04" y="-.06" width="1.083" height="1.115" color-interpolation-filters="sRGB">
            <feGaussianBlur stdDeviation=".728"/>
        </filter>
    </defs>
    <path d="M43.837 3.161c19.594 0 22.395 2.793 22.395 22.369v15.677c0 19.575-2.8 22.369-22.395 22.369H23.896c-19.594 0-22.394-2.794-22.394-22.37V25.53c0-19.576 2.8-22.369 22.394-22.369z" fill="none" opacity=".115" stroke-linecap="round" stroke-linejoin="round" stroke-width="1.079" stroke="#282828"/>
    <path transform="matrix(.2697 0 0 .2697 -7.129 -8.706)" d="M188.969 44C261.617 44 272 54.357 272 126.938v58.124C272 257.644 261.617 268 188.969 268H115.03C42.383 268 32 257.643 32 185.062v-58.125C32 54.358 42.383 44 115.031 44z" filter="url(#b)" opacity=".1"/>
    <path transform="matrix(.2697 0 0 .2697 -7.129 -8.706)" d="M188.969 46C261.617 46 272 56.357 272 128.938v58.125c0 72.58-10.383 82.937-83.031 82.937H115.03C42.383 270 32 259.643 32 187.062v-58.125C32 56.358 42.383 46 115.031 46z" filter="url(#c)" opacity=".2"/>
    <path d="M43.837 232.428c19.594 0 22.395 2.793 22.395 22.369v15.676c0 19.576-2.8 22.37-22.395 22.37H23.896c-19.594 0-22.394-2.794-22.394-22.37v-15.676c0-19.576 2.8-22.37 22.394-22.37z" fill="url(#d)" transform="translate(0 -229.267)"/>
    <path d="M.953 33.295v7.966c0 19.893 2.846 22.731 22.76 22.731h20.27c19.914 0 22.76-2.838 22.76-22.731v-7.966z" fill="#ebdbb2" opacity=".1"/>
    <path d="M34.34 63.992h9.63c2.487 0 4.707-.044 6.688-.16.991-.059 1.922-.135 2.797-.233a33.326 33.326 0 0 0 2.46-.36c.765-.145 1.478-.315 2.142-.512a14.451 14.451 0 0 0 1.848-.682 10.633 10.633 0 0 0 1.573-.873 8.95 8.95 0 0 0 1.319-1.086c.4-.4.76-.838 1.086-1.318.325-.481.615-1.004.873-1.573s.484-1.183.682-1.847c.198-.664.367-1.377.511-2.143.145-.766.264-1.585.362-2.46s.174-1.805.232-2.796c.117-1.981.161-4.201.161-6.688V25.33c0-2.487-.044-4.707-.16-6.688a53.51 53.51 0 0 0-.233-2.797 33.287 33.287 0 0 0-.362-2.459 21.387 21.387 0 0 0-.511-2.143 14.444 14.444 0 0 0-.682-1.848 10.627 10.627 0 0 0-.873-1.572 8.951 8.951 0 0 0-1.086-1.318c-.4-.4-.838-.76-1.32-1.086a10.633 10.633 0 0 0-1.572-.873 14.451 14.451 0 0 0-1.848-.682 21.394 21.394 0 0 0-2.143-.511 33.304 33.304 0 0 0-2.459-.362 53.527 53.527 0 0 0-2.797-.232c-1.981-.116-4.2-.16-6.687-.16h-9.632z" fill="#ebdbb2" opacity=".1"/>
    <path transform="matrix(.13485 0 0 .13485 -4.971 31.75)" d="M361.938-212C507.235-212 528-191.287 528-46.125v116.25C528 215.286 507.235 236 361.937 236H214.063C68.766 236 48 215.286 48 70.125v-116.25C48-191.287 68.765-212 214.063-212z" clip-path="url(#e)" fill="none" opacity=".6" stroke-linecap="round" stroke-linejoin="round" stroke-width="8" stroke="url(#f)"/>
    <g transform="matrix(.92379 0 0 .92379 8.137 -213.797)">
        <rect x="12.7" y="247.42" width="42.333" height="30.427" rx="1.027" ry="1.071" fill="#282828" filter="url(#g)" opacity=".3"/>
        <rect x="12.7" y="247.42" width="42.333" height="30.427" rx="1.027" ry="1.071" fill="url(#h)" opacity=".7"/>
        <rect x="19.32" y="262.91" width="29.087" height="5.801" rx="1.058" ry="1.058" fill="#ebdbb2" opacity=".7"/>
        <path d="M24.119 256.066h.4l.316-1.423c.015-.074.044-.197.064-.296.015.099.045.227.06.301l.325 1.418h.395l.643-2.524h-.465l-.336 1.462c-.02.084-.034.158-.049.247-.015-.089-.025-.168-.044-.247l-.336-1.462h-.386l-.33 1.462c-.02.079-.03.148-.045.232a1.544 1.544 0 0 0-.044-.227l-.346-1.467h-.464zM29.064 254.688c0-.83-.484-1.205-1.072-1.205-.716 0-1.18.489-1.18 1.318 0 .771.44 1.324 1.18 1.324.36 0 .662-.148.87-.355l-.292-.317a.793.793 0 0 1-.573.228c-.38 0-.617-.267-.687-.682h1.739c.015-.123.015-.237.015-.311zm-1.763-.119c.049-.4.271-.652.691-.652.267 0 .563.163.583.652zM31.223 255.626V252.5h-1.318l.227.435h.597v2.691h-.726v.44h1.941v-.44zM34.07 256.125c.523 0 .873-.247 1.012-.691l-.465-.148c-.079.237-.261.375-.543.375-.4 0-.612-.321-.612-.855 0-.523.207-.859.627-.859.272 0 .43.138.509.331l.464-.163c-.153-.425-.494-.632-.973-.632-.696 0-1.136.499-1.136 1.323 0 .835.435 1.32 1.116 1.32zM37.053 256.125c.731 0 1.196-.504 1.196-1.324 0-.814-.465-1.318-1.196-1.318-.73 0-1.195.509-1.195 1.323 0 .82.464 1.32 1.195 1.32zm0-.464c-.449 0-.691-.336-.691-.855 0-.538.242-.859.691-.859.455 0 .697.336.697.854 0 .524-.252.86-.697.86zM40.764 253.483c-.262 0-.45.178-.558.375-.06-.183-.223-.375-.475-.375-.237 0-.4.138-.493.39v-.33h-.435v2.523h.464v-1.526c0-.35.124-.588.341-.588.207 0 .262.222.262.538v1.576h.464v-1.526c0-.35.104-.588.321-.588.212 0 .262.183.262.573v1.54h.464v-1.668c0-.662-.202-.914-.617-.914zM44.257 254.688c0-.83-.484-1.205-1.072-1.205-.716 0-1.18.489-1.18 1.318 0 .771.439 1.324 1.18 1.324.36 0 .662-.148.87-.355l-.292-.317a.793.793 0 0 1-.573.228c-.38 0-.618-.267-.687-.682h1.739c.015-.123.015-.237.015-.311zm-1.764-.119c.05-.4.272-.652.692-.652.267 0 .563.163.583.652zM21.035 263.928v3.968h.264v-3.968z" opacity=".8"/>
    </g>
    <g transform="matrix(.92379 0 0 .92379 -2.975 -204.704)">
        <rect x="12.7" y="247.42" width="42.333" height="30.427" rx="1.027" ry="1.071" fill="#282828" filter="url(#g)" opacity=".3"/>
        <rect x="12.7" y="247.42" width="42.333" height="30.427" rx="1.027" ry="1.071" fill="url(#h)" opacity=".7"/>
        <rect x="19.32" y="262.91" width="29.087" height="5.801" rx="1.058" ry="1.058" fill="#ebdbb2" opacity=".7"/>
        <path d="M24.119 256.066h.4l.316-1.423c.015-.074.044-.197.064-.296.015.099.045.227.06.301l.325 1.418h.395l.643-2.524h-.465l-.336 1.462c-.02.084-.034.158-.049.247-.015-.089-.025-.168-.044-.247l-.336-1.462h-.386l-.33 1.462c-.02.079-.03.148-.045.232a1.544 1.544 0 0 0-.044-.227l-.346-1.467h-.464zM29.064 254.688c0-.83-.484-1.205-1.072-1.205-.716 0-1.18.489-1.18 1.318 0 .771.44 1.324 1.18 1.324.36 0 .662-.148.87-.355l-.292-.317a.793.793 0 0 1-.573.228c-.38 0-.617-.267-.687-.682h1.739c.015-.123.015-.237.015-.311zm-1.763-.119c.049-.4.271-.652.691-.652.267 0 .563.163.583.652zM31.223 255.626V252.5h-1.318l.227.435h.597v2.691h-.726v.44h1.941v-.44zM34.07 256.125c.523 0 .873-.247 1.012-.691l-.465-.148c-.079.237-.261.375-.543.375-.4 0-.612-.321-.612-.855 0-.523.207-.859.627-.859.272 0 .43.138.509.331l.464-.163c-.153-.425-.494-.632-.973-.632-.696 0-1.136.499-1.136 1.323 0 .835.435 1.32 1.116 1.32zM37.053 256.125c.731 0 1.196-.504 1.196-1.324 0-.814-.465-1.318-1.196-1.318-.73 0-1.195.509-1.195 1.323 0 .82.464 1.32 1.195 1.32zm0-.464c-.449 0-.691-.336-.691-.855 0-.538.242-.859.691-.859.455 0 .697.336.697.854 0 .524-.252.86-.697.86zM40.764 253.483c-.262 0-.45.178-.558.375-.06-.183-.223-.375-.475-.375-.237 0-.4.138-.493.39v-.33h-.435v2.523h.464v-1.526c0-.35.124-.588.341-.588.207 0 .262.222.262.538v1.576h.464v-1.526c0-.35.104-.588.321-.588.212 0 .262.183.262.573v1.54h.464v-1.668c0-.662-.202-.914-.617-.914zM44.257 254.688c0-.83-.484-1.205-1.072-1.205-.716 0-1.18.489-1.18 1.318 0 .771.439 1.324 1.18 1.324.36 0 .662-.148.87-.355l-.292-.317a.793.793 0 0 1-.573.228c-.38 0-.618-.267-.687-.682h1.739c.015-.123.015-.237.015-.311zm-1.764-.119c.05-.4.272-.652.692-.652.267 0 .563.163.583.652zM21.035 263.928v3.968h.264v-3.968z" opacity=".8"/>
    </g>
</svg>
