<svg width="256" height="256" viewBox="0 0 67.73 67.73" xmlns="http://www.w3.org/2000/svg">
    <defs>
        <linearGradient id="e" x1="296" x2="296" y1="-212" y2="236" gradientUnits="userSpaceOnUse">
            <stop offset="0" stop-color="#ebdbb2"/>
            <stop offset=".125" stop-color="#ebdbb2" stop-opacity=".098"/>
            <stop offset=".925" stop-opacity=".098"/>
            <stop offset="1" stop-opacity=".498"/>
        </linearGradient>
        <clipPath id="d">
            <path d="M361.938-212C507.235-212 528-191.287 528-46.125v116.25C528 215.286 507.235 236 361.937 236H214.063C68.766 236 48 215.286 48 70.125v-116.25C48-191.287 68.765-212 214.063-212z" fill="#b16286"/>
        </clipPath>
        <linearGradient id="c" x1="160" x2="160" y1="44" y2="268" gradientTransform="matrix(.2697 0 0 .2697 -7.129 220.56)" gradientUnits="userSpaceOnUse">
            <stop offset="0" stop-color="#fabd2f"/>
            <stop offset="1" stop-color="#fabd2f"/>
        </linearGradient>
        <filter id="b" x="-.01" y="-.01" width="1.023" height="1.025" color-interpolation-filters="sRGB">
            <feGaussianBlur stdDeviation="1.16"/>
        </filter>
        <filter id="a" x="-.02" y="-.03" width="1.046" height="1.05" color-interpolation-filters="sRGB">
            <feGaussianBlur stdDeviation="2.32"/>
        </filter>
        <filter id="f" x="-.04" y="-.07" width="1.075" height="1.133" color-interpolation-filters="sRGB">
            <feGaussianBlur stdDeviation=".99"/>
        </filter>
    </defs>
    <path transform="matrix(.2697 0 0 .2697 -7.129 -8.706)" d="M188.969 46C261.617 46 272 56.357 272 128.938v58.125c0 72.58-10.383 82.937-83.031 82.937H115.03C42.383 270 32 259.643 32 187.062v-58.125C32 56.358 42.383 46 115.031 46z" filter="url(#a)" opacity=".2"/>
    <path transform="matrix(.2697 0 0 .2697 -7.129 -8.706)" d="M188.969 44C261.617 44 272 54.357 272 126.938v58.124C272 257.644 261.617 268 188.969 268H115.03C42.383 268 32 257.643 32 185.062v-58.125C32 54.358 42.383 44 115.031 44z" filter="url(#b)" opacity=".1"/>
    <path d="M43.837 232.428c19.594 0 22.395 2.793 22.395 22.369v15.676c0 19.576-2.8 22.37-22.395 22.37H23.896c-19.594 0-22.394-2.794-22.394-22.37v-15.676c0-19.576 2.8-22.37 22.394-22.37z" fill="url(#c)" transform="translate(0 -229.267)"/>
    <path transform="matrix(.13485 0 0 .13485 -4.971 31.75)" d="M361.938-212C507.235-212 528-191.287 528-46.125v116.25C528 215.286 507.235 236 361.937 236H214.063C68.766 236 48 215.286 48 70.125v-116.25C48-191.287 68.765-212 214.063-212z" clip-path="url(#d)" fill="none" opacity=".4" stroke-linecap="round" stroke-linejoin="round" stroke-width="8" stroke="url(#e)"/>
    <g transform="translate(-16.292 29.738) scale(.79375)" filter="url(#f)" opacity=".4">
        <path d="M40.431-5.239c-2.189 0-8.393 9.878-8.878 13.5-.019.109-.03.224-.027.356-.003.133.008.246.027.352.481 3.62 6.689 13.5 8.878 13.5 2.19 0 8.397-9.88 8.878-13.5.02-.107.03-.22.028-.352a1.747 1.747 0 0 0-.028-.356c-.484-3.622-6.689-13.5-8.878-13.5zM63.192 2.678c-2.189 0-8.394 9.878-8.878 13.5-.02.109-.03.223-.028.356-.002.132.008.245.028.352.481 3.62 6.688 13.5 8.878 13.5 2.19 0 8.397-9.88 8.878-13.5.02-.107.03-.22.028-.352a1.748 1.748 0 0 0-.028-.356c-.484-3.622-6.689-13.5-8.878-13.5zM85.952-5.239c-2.189 0-8.393 9.878-8.878 13.5-.019.109-.03.224-.027.356-.003.133.009.246.027.352.481 3.62 6.689 13.5 8.878 13.5 2.19 0 8.397-9.88 8.878-13.5.02-.107.03-.22.028-.352a1.747 1.747 0 0 0-.028-.356c-.484-3.622-6.689-13.5-8.878-13.5z"/>
    </g>
    <path d="M62.197 6.596a8.815 8.815 0 0 0-1.033-.849c-.474-.32-.99-.605-1.55-.86a14.24 14.24 0 0 0-1.82-.67 21.086 21.086 0 0 0-2.11-.503c-.755-.142-1.561-.26-2.423-.356a52.812 52.812 0 0 0-2.755-.228c-1.952-.115-4.138-.158-6.588-.158H23.977c-2.45 0-4.637.043-6.588.158a52.79 52.79 0 0 0-2.755.228c-.861.097-1.668.214-2.422.356-.755.142-1.458.309-2.112.503-.654.195-1.259.417-1.82.67-.56.255-1.075.54-1.55.86-.473.32-.905.675-1.298 1.068-.394.394-.749.825-1.07 1.298s-.606.987-.86 1.547c-.255.56-.477 1.165-.672 1.818a21.031 21.031 0 0 0-.503 2.11c-.143.753-.26 1.558-.357 2.42-.096.86-.172 1.776-.229 2.75-.115 1.95-.159 4.135-.159 6.582v15.678c0 2.446.044 4.631.159 6.581.057.975.133 1.89.229 2.752.096.86.214 1.666.357 2.42.142.753.308 1.455.503 2.109.195.653.417 1.258.672 1.818.254.56.54 1.074.86 1.547.321.473.676.904 1.07 1.297.047.047.106.082.154.128z" fill="#ebdbb2" opacity=".1"/>
    <path d="M6.285 6.021c-.292.226-.594.443-.852.7A8.807 8.807 0 0 0 4.364 8.02c-.32.473-.607.987-.861 1.547-.254.56-.477 1.164-.672 1.818s-.36 1.355-.503 2.109c-.142.753-.26 1.559-.357 2.42-.096.86-.171 1.776-.229 2.751-.114 1.95-.158 4.135-.158 6.582v15.677c0 2.447.044 4.632.158 6.581.058.975.133 1.891.23 2.752.096.861.214 1.667.356 2.42.142.754.308 1.456.503 2.11.195.652.418 1.257.672 1.817.254.56.54 1.074.861 1.547.32.473.675.905 1.07 1.298.393.393.825.748 1.298 1.068.474.32.99.606 1.55.86.56.253 1.166.476 1.82.67a21.1 21.1 0 0 0 2.111.504c.755.142 1.56.259 2.423.355.861.096 1.778.171 2.754.229 1.952.114 4.139.158 6.588.158H43.92c2.449 0 4.636-.044 6.587-.158a52.816 52.816 0 0 0 2.755-.229 32.837 32.837 0 0 0 2.423-.355 21.088 21.088 0 0 0 2.11-.504c.655-.194 1.26-.417 1.82-.67.561-.254 1.077-.54 1.55-.86.39-.263.734-.566 1.069-.878z" fill="#ebdbb2" opacity=".1"/>
    <g fill="#fb4934">
        <path d="M15.8 25.58c-1.737 0-6.662 7.84-7.046 10.715a1.412 1.412 0 0 0-.022.283c-.003.105.006.195.022.28.381 2.872 5.308 10.715 7.047 10.715 1.738 0 6.665-7.843 7.046-10.716.016-.084.025-.175.022-.28a1.387 1.387 0 0 0-.022-.282c-.384-2.875-5.309-10.715-7.046-10.715zM33.867 31.863c-1.738 0-6.663 7.841-7.047 10.716a1.411 1.411 0 0 0-.022.283c-.002.105.006.194.022.28.382 2.872 5.309 10.715 7.047 10.715 1.738 0 6.665-7.843 7.047-10.716.015-.085.024-.175.022-.28a1.387 1.387 0 0 0-.022-.282c-.385-2.875-5.31-10.716-7.047-10.716zM51.933 25.58c-1.738 0-6.663 7.84-7.047 10.715a1.412 1.412 0 0 0-.022.283 1.43 1.43 0 0 0 .022.28c.382 2.872 5.309 10.715 7.047 10.715 1.738 0 6.665-7.843 7.047-10.716.015-.084.024-.175.022-.28a1.387 1.387 0 0 0-.022-.282c-.385-2.875-5.31-10.715-7.047-10.715z"/>
    </g>
</svg>
