<svg width="256" height="256" viewBox="0 0 67.73 67.73" xmlns="http://www.w3.org/2000/svg" xmlns:xlink="http://www.w3.org/1999/xlink">
    <defs>
        <linearGradient id="h" x1="296" x2="296" y1="-212" y2="236" gradientUnits="userSpaceOnUse">
            <stop offset="0" stop-color="#ebdbb2"/>
            <stop offset=".125" stop-color="#ebdbb2" stop-opacity=".098"/>
            <stop offset=".925" stop-opacity=".098"/>
            <stop offset="1" stop-opacity=".498"/>
        </linearGradient>
        <clipPath id="g">
            <path d="M361.938-212C507.235-212 528-191.287 528-46.125v116.25C528 215.286 507.235 236 361.937 236H214.063C68.766 236 48 215.286 48 70.125v-116.25C48-191.287 68.765-212 214.063-212z" fill="#b16286"/>
        </clipPath>
        <linearGradient id="f" x1="88" x2="256" y1="28" y2="284" gradientTransform="matrix(.2697 0 0 .2697 -7.129 220.56)" gradientUnits="userSpaceOnUse">
            <stop offset="0" stop-color="#ebdbb2"/>
            <stop offset="1" stop-color="#ebdbb2"/>
        </linearGradient>
        <filter id="e" x="-.01" y="-.01" width="1.023" height="1.025" color-interpolation-filters="sRGB">
            <feGaussianBlur stdDeviation="1.16"/>
        </filter>
        <filter id="d" x="-.02" y="-.03" width="1.046" height="1.05" color-interpolation-filters="sRGB">
            <feGaussianBlur stdDeviation="2.32"/>
        </filter>
        <radialGradient id="s" cx="28.199" cy="11.358" r="3.039" gradientTransform="matrix(.49163 0 0 .49418 25.256 242.375)" gradientUnits="userSpaceOnUse" xlink:href="#a"/>
        <linearGradient id="a">
            <stop offset="0" stop-color="#282828"/>
            <stop offset="1" stop-color="#282828"/>
        </linearGradient>
        <radialGradient id="r" cx="6.774" cy="23.203" r="7.098" gradientTransform="matrix(1 0 0 .85911 0 3.733)" gradientUnits="userSpaceOnUse" xlink:href="#b"/>
        <linearGradient id="b">
            <stop offset="0" stop-color="#b8bb26"/>
            <stop offset="1" stop-color="#b8bb26"/>
        </linearGradient>
        <radialGradient id="l" cx="7.749" cy="23.203" r="7.098" gradientTransform="matrix(1 0 0 .85911 0 3.733)" gradientUnits="userSpaceOnUse" xlink:href="#c"/>
        <linearGradient id="c">
            <stop offset="0" stop-color="#458588"/>
            <stop offset="1" stop-color="#458588"/>
        </linearGradient>
        <radialGradient id="q" cx="8.074" cy="24.163" r="7.098" gradientTransform="matrix(1 0 0 .85911 0 3.733)" gradientUnits="userSpaceOnUse">
            <stop offset="0" stop-color="#fb4934"/>
            <stop offset="1" stop-color="#fb4934"/>
        </radialGradient>
        <radialGradient id="p" cx="7.749" cy="24.003" r="7.098" gradientTransform="matrix(1 0 0 .85911 0 3.733)" gradientUnits="userSpaceOnUse">
            <stop offset="0" stop-color="#fe8019"/>
            <stop offset="1" stop-color="#fe8019"/>
        </radialGradient>
        <radialGradient id="o" cx="7.749" cy="24.003" r="7.098" gradientTransform="matrix(1 0 0 .85911 0 3.733)" gradientUnits="userSpaceOnUse">
            <stop offset="0" stop-color="#fabd2f"/>
            <stop offset="1" stop-color="#fabd2f"/>
        </radialGradient>
        <radialGradient id="n" cx="7.099" cy="23.203" r="7.098" gradientTransform="matrix(1 0 0 .85911 0 3.733)" gradientUnits="userSpaceOnUse">
            <stop offset="0" stop-color="#fe8019"/>
            <stop offset="1" stop-color="#fe8019"/>
        </radialGradient>
        <radialGradient id="m" cx="7.424" cy="23.683" r="7.098" gradientTransform="matrix(1 0 0 .85911 0 3.733)" gradientUnits="userSpaceOnUse">
            <stop offset="0" stop-color="#ebdbb2"/>
            <stop offset="1" stop-color="#282828"/>
        </radialGradient>
        <radialGradient id="k" cx="28.199" cy="11.358" r="3.039" gradientTransform="matrix(.49163 0 0 .49418 14.27 242.375)" gradientUnits="userSpaceOnUse" xlink:href="#a"/>
        <linearGradient id="i" x1="47.917" x2="50.355" y1="-8.776" y2="-8.992" gradientUnits="userSpaceOnUse">
            <stop offset="0" stop-color="#ebdbb2"/>
            <stop offset="1" stop-color="#282828"/>
        </linearGradient>
        <radialGradient id="j" cx="12.1" cy="28.613" r="7.038" gradientTransform="matrix(.99993 .0137 -.00224 .86488 .066 3.822)" gradientUnits="userSpaceOnUse">
            <stop offset="0" stop-color="#ebdbb2"/>
            <stop offset="1" stop-color="#282828"/>
        </radialGradient>
    </defs>
    <path transform="matrix(.2697 0 0 .2697 0 2.199)" d="M162.537 5.568c72.648 0 83.031 10.357 83.031 82.938v58.125c0 72.58-10.383 82.937-83.031 82.937H88.599c-72.648 0-83.031-10.357-83.031-82.937V88.506c0-72.581 10.383-82.938 83.031-82.938z" filter="url(#d)" opacity=".2"/>
    <path d="M43.837 3.161c19.594 0 22.395 2.793 22.395 22.369v15.677c0 19.575-2.8 22.369-22.395 22.369H23.896c-19.594 0-22.394-2.794-22.394-22.37V25.53c0-19.576 2.8-22.369 22.394-22.369z" fill="none" opacity=".1" stroke-linecap="round" stroke-linejoin="round" stroke-width="1.079" stroke="#282828"/>
    <path transform="matrix(.2697 0 0 .2697 0 2.199)" d="M162.537 3.568c72.648 0 83.031 10.357 83.031 82.938v58.125c0 72.58-10.383 82.937-83.031 82.937H88.599c-72.648 0-83.031-10.357-83.031-82.937V86.506c0-72.581 10.383-82.938 83.031-82.938z" filter="url(#e)" opacity=".1"/>
    <path d="M43.837 232.428c19.594 0 22.395 2.793 22.395 22.369v15.676c0 19.576-2.8 22.37-22.395 22.37H23.896c-19.594 0-22.394-2.794-22.394-22.37v-15.676c0-19.576 2.8-22.37 22.394-22.37z" fill="url(#f)" transform="translate(0 -229.267)"/>
    <path transform="matrix(.13485 0 0 .13485 -4.971 31.75)" d="M361.938-212C507.235-212 528-191.287 528-46.125v116.25C528 215.286 507.235 236 361.937 236H214.063C68.766 236 48 215.286 48 70.125v-116.25C48-191.287 68.765-212 214.063-212z" clip-path="url(#g)" fill="none" opacity=".4" stroke-linecap="round" stroke-linejoin="round" stroke-width="8" stroke="url(#h)"/>
    <path d="M33.867 3.161v60.415h9.97c19.594 0 22.395-2.794 22.395-22.37V25.53c0-19.576-2.8-22.369-22.395-22.369z" fill="#ebdbb2" opacity=".1"/>
    <path d="M23.896 63.576c-19.594 0-22.394-2.794-22.394-22.37v-7.838h64.73v7.839c0 19.575-2.8 22.369-22.395 22.369z" fill="#ebdbb2" opacity=".1"/>
    <g transform="translate(-.944 -229.39)">
        <g transform="matrix(.99863 0 0 1.01755 15.277 212.77)" fill="#ebdbb2">
            <rect transform="matrix(.4888 .8724 -.85942 .51128 0 0)" x="48.15" y="-15.09" width="2.046" height="10.581" ry=".359" fill="url(#i)"/>
            <path transform="matrix(-.42308 -.7328 .86603 -.5 17.07 56.212)" d="M15.602 26.595c0 3.036-1.74 5.418-6.102 5.405-3.866-.011-6.386-2.291-5.893-5.492z" fill="url(#j)"/>
        </g>
        <circle cx="28.759" cy="248.799" r=".999" fill="#282828" stroke-linecap="square" stroke-width=".999" stroke="url(#k)"/>
        <g transform="translate(10.284 237.315) scale(.99863)">
            <ellipse transform="matrix(.76923 0 0 .9091 .192 .41)" cx="9.5" cy="26.5" rx="6.5" ry="5.5" fill="url(#l)"/>
            <ellipse transform="matrix(.61538 0 0 .72727 1.654 5.227)" cx="9.5" cy="26.5" rx="6.5" ry="5.5" fill="none" opacity=".604"/>
        </g>
        <g transform="translate(21.269 237.315) scale(.99863)">
            <ellipse transform="matrix(.76923 0 0 .9091 .192 .41)" cx="9.5" cy="26.5" rx="6.5" ry="5.5" fill="url(#m)"/>
            <ellipse transform="matrix(.61538 0 0 .72727 1.654 5.227)" cx="9.5" cy="26.5" rx="6.5" ry="5.5" fill="none" opacity=".624"/>
        </g>
        <g transform="translate(32.254 250.297) scale(.99863)">
            <ellipse transform="matrix(.76923 0 0 .9091 .192 .41)" cx="9.5" cy="26.5" rx="6.5" ry="5.5" fill="url(#n)"/>
            <ellipse transform="matrix(.61538 0 0 .72727 1.654 5.227)" cx="9.5" cy="26.5" rx="6.5" ry="5.5" fill="none" opacity=".64"/>
        </g>
        <g transform="translate(43.239 237.315) scale(.99863)">
            <ellipse transform="matrix(.76923 0 0 .9091 .192 .41)" cx="9.5" cy="26.5" rx="6.5" ry="5.5" fill="url(#o)"/>
            <ellipse transform="matrix(.61538 0 0 .72727 1.654 5.227)" cx="9.5" cy="26.5" rx="6.5" ry="5.5" fill="none" opacity=".892"/>
        </g>
        <g transform="translate(10.284 250.297) scale(.99863)">
            <ellipse transform="matrix(.76923 0 0 .9091 .192 .41)" cx="9.5" cy="26.5" rx="6.5" ry="5.5" fill="url(#p)"/>
            <ellipse transform="matrix(.61538 0 0 .72727 1.654 5.227)" cx="9.5" cy="26.5" rx="6.5" ry="5.5" fill="none" opacity=".616"/>
        </g>
        <g transform="translate(32.254 237.315) scale(.99863)">
            <ellipse transform="matrix(.76923 0 0 .9091 .192 .41)" cx="9.5" cy="26.5" rx="6.5" ry="5.5" fill="url(#q)"/>
            <ellipse transform="matrix(.61538 0 0 .72727 1.654 5.227)" cx="9.5" cy="26.5" rx="6.5" ry="5.5" fill="none" opacity=".608"/>
        </g>
        <g transform="translate(43.239 250.297) scale(.99863)">
            <ellipse transform="matrix(.76923 0 0 .9091 .192 .41)" cx="9.5" cy="26.5" rx="6.5" ry="5.5" fill="url(#r)"/>
            <ellipse transform="matrix(.61538 0 0 .72727 1.654 5.227)" cx="9.5" cy="26.5" rx="6.5" ry="5.5" fill="none" opacity=".624"/>
        </g>
        <path d="M54.07 252.383l-3.943-7.16c2.452-1.11 4.565.374 5.382 2.802.635 1.885.014 3.441-1.44 4.358z" fill="none" opacity=".628"/>
        <g transform="translate(21.269 250.297) scale(.99863)">
            <ellipse transform="matrix(.76923 0 0 .9091 .192 .41)" cx="9.5" cy="26.5" rx="6.5" ry="5.5" fill="url(#l)"/>
            <ellipse transform="matrix(.61538 0 0 .72727 1.654 5.227)" cx="9.5" cy="26.5" rx="6.5" ry="5.5" fill="none" opacity=".6"/>
        </g>
        <g transform="translate(10.284 224.333) scale(.99863)">
            <ellipse transform="matrix(.76923 0 0 .9091 .192 .41)" cx="9.5" cy="26.5" rx="6.5" ry="5.5" fill="url(#r)"/>
            <ellipse transform="matrix(.61538 0 0 .72727 1.654 5.227)" cx="9.5" cy="26.5" rx="6.5" ry="5.5" fill="none" opacity=".648"/>
        </g>
        <circle cx="39.744" cy="248.799" r=".999" fill="#282828" stroke-linecap="square" stroke-width=".999" stroke="url(#s)"/>
    </g>
</svg>
