<svg width="256" height="256" viewBox="0 0 67.73 67.73" xmlns="http://www.w3.org/2000/svg">
    <defs>
        <linearGradient id="d" x1="296" x2="296" y1="-212" y2="202.4" gradientUnits="userSpaceOnUse">
            <stop offset="0" stop-color="#ebdbb2"/>
            <stop offset=".135" stop-color="#ebdbb2" stop-opacity=".098"/>
            <stop offset="1" stop-color="#ebdbb2" stop-opacity="0"/>
        </linearGradient>
        <clipPath id="c">
            <path d="M361.938-212C507.235-212 528-191.287 528-46.125v116.25C528 215.286 507.235 236 361.937 236H214.063C68.766 236 48 215.286 48 70.125v-116.25C48-191.287 68.765-212 214.063-212z" fill="#b16286"/>
        </clipPath>
        <filter id="b" x="-.02" y="-.03" width="1.046" height="1.05" color-interpolation-filters="sRGB">
            <feGaussianBlur stdDeviation="2.32"/>
        </filter>
        <filter id="a" x="-.01" y="-.01" width="1.023" height="1.025" color-interpolation-filters="sRGB">
            <feGaussianBlur stdDeviation="1.16"/>
        </filter>
    </defs>
    <path d="M43.005 4.348c19.221 0 21.968 2.74 21.968 21.944V41.67c0 19.204-2.747 21.944-21.968 21.944H23.442c-19.222 0-21.969-2.74-21.969-21.944V26.292c0-19.204 2.747-21.944 21.969-21.944z" fill="none" opacity=".2" stroke-linecap="round" stroke-linejoin="round" stroke-width="1.05828918" stroke="#282828"/>
    <path transform="matrix(.26458 0 0 .26458 0 3.404)" d="M162.537 3.568c72.648 0 83.031 10.357 83.031 82.938v58.125c0 72.58-10.383 82.937-83.031 82.937H88.599c-72.648 0-83.031-10.357-83.031-82.937V86.506c0-72.581 10.383-82.938 83.031-82.938z" filter="url(#a)" opacity=".1"/>
    <path transform="matrix(.26458 0 0 .26458 0 3.404)" d="M162.537 5.568c72.648 0 83.031 10.357 83.031 82.938v58.125c0 72.58-10.383 82.937-83.031 82.937H88.599c-72.648 0-83.031-10.357-83.031-82.937V88.506c0-72.581 10.383-82.938 83.031-82.938z" filter="url(#b)" opacity=".2"/>
    <path d="M43.005 4.348c19.221 0 21.968 2.74 21.968 21.944V41.67c0 19.204-2.747 21.944-21.968 21.944H23.442c-19.222 0-21.969-2.74-21.969-21.944V26.292c0-19.204 2.747-21.944 21.969-21.944z" fill="#ebdbb2"/>
    <path transform="matrix(.1323 0 0 .1323 -4.877 32.393)" d="M361.938-212C507.235-212 528-191.287 528-46.125v116.25C528 215.286 507.235 236 361.937 236H214.063C68.766 236 48 215.286 48 70.125v-116.25C48-191.287 68.765-212 214.063-212z" clip-path="url(#c)" fill="none" opacity=".5" stroke-linecap="round" stroke-linejoin="round" stroke-width="8" stroke="url(#d)"/>
    <path d="M25.506 31.203c-6.435 0-18.741 2.874-18.741 2.874s9.548 2.23 16.221 2.762c.903.072 1.753.113 2.52.113 6.085 0 7.561-2.57 7.704-2.85a.537.537 0 0 0 .012-.025s-1.28-2.874-7.716-2.874" fill="#C6C752"/>
    <path d="M26.878 39.324c3.217-5.574 6.347-5.245 6.347-5.245s1.85 2.546-1.369 8.12c-3.217 5.573-11.86 14.792-11.86 14.792s3.664-12.094 6.882-17.667" fill="#C6C752"/>
    <path d="M25.108 35.483c5.574-3.217 8.12-1.368 8.12-1.368s.328 3.13-5.245 6.347c-5.573 3.218-17.668 6.881-17.668 6.881s9.22-8.642 14.793-11.86" fill="#b8bb26"/>
    <path d="M26.878 39.324c3.217-5.574 6.347-5.245 6.347-5.245s1.85 2.546-1.369 8.12c-3.217 5.573-11.86 14.792-11.86 14.792s3.664-12.094 6.882-17.667" fill="#C6C752"/>
    <path d="M30.35 41.567c0-6.436 2.875-7.716 2.875-7.716s2.874 1.28 2.874 7.716-2.874 18.74-2.874 18.74-2.875-12.305-2.875-18.74" fill="#b8bb26"/>
    <path d="M39.57 39.321c-3.217-5.573-6.347-5.245-6.347-5.245s-1.85 2.547 1.368 8.12c3.218 5.573 11.86 14.793 11.86 14.793s-3.663-12.094-6.88-17.668" fill="#C6C752"/>
    <path d="M41.348 35.482c-5.574-3.217-8.12-1.369-8.12-1.369s-.328 3.13 5.245 6.348 17.668 6.881 17.668 6.881-9.22-8.642-14.793-11.86" fill="#b8bb26"/>
    <path d="M40.94 31.203c-6.435 0-7.716 2.874-7.716 2.874s1.28 2.875 7.716 2.875 18.742-2.875 18.742-2.875-12.306-2.874-18.742-2.874" fill="#C6C752"/>
    <path d="M38.469 27.503c-5.574 3.217-5.246 6.347-5.246 6.347s2.547 1.85 8.12-1.369c5.573-3.217 14.793-11.86 14.793-11.86s-12.094 3.664-17.667 6.882" fill="#b8bb26"/>
    <path d="M39.57 28.829c-3.217 5.573-6.347 5.245-6.347 5.245s-1.85-2.547 1.368-8.12c3.218-5.573 11.86-14.793 11.86-14.793s-3.663 12.094-6.88 17.668" fill="#C6C752"/>
    <path d="M36.101 26.395c0 6.436-2.874 7.716-2.874 7.716s-2.875-1.28-2.875-7.716 2.875-18.741 2.875-18.741S36.1 19.96 36.1 26.395" fill="#b8bb26"/>
    <path d="M31.853 25.957c3.218 5.573 1.37 8.12 1.37 8.12s-3.13.327-6.348-5.246-6.882-17.667-6.882-17.667 8.643 9.22 11.86 14.793" fill="#C6C752"/>
    <path d="M27.976 27.503c5.573 3.217 5.245 6.347 5.245 6.347s-2.546 1.849-8.12-1.369c-5.573-3.217-14.793-11.86-14.793-11.86s12.094 3.664 17.668 6.882" fill="#b8bb26"/>
    <path d="M23.23 31.297c.654.444 1.283.845 1.871 1.184 4.956 2.862 7.519 1.717 8.026 1.428-.393-.615-2.132-2.706-7.621-2.706-.698 0-1.464.034-2.277.094" fill="#C6C752"/>
    <path d="M28.48 33.983c2.505.745 3.974.256 4.509-.002-.541-.26-2.01-.742-4.51.002" fill="#b8bb26"/>
    <path d="M27.024 36.893c-3.79 3.79-9.344 12.73-9.344 12.73s6.937-4.31 11.18-7.927c.574-.49 1.099-.966 1.55-1.418 3.584-3.584 2.94-5.966 2.86-6.215l-.008-.022s-2.447-.939-6.238 2.852" fill="#C6C752"/>
    <path d="M32.615 40.867c-1.387-5.177.649-6.827.649-6.827s2.589.41 3.976 5.588c1.387 5.177 1.727 15.697 1.727 15.697s-4.965-9.28-6.352-14.458" fill="#C6C752"/>
    <path d="M29.311 39.648c1.387-5.178 3.976-5.588 3.976-5.588s2.037 1.65.65 6.827c-1.388 5.177-6.353 14.457-6.353 14.457s.34-10.519 1.727-15.696" fill="#b8bb26"/>
    <path d="M32.615 40.867c-1.387-5.177.649-6.827.649-6.827s2.589.41 3.976 5.588c1.387 5.177 1.727 15.697 1.727 15.697s-4.965-9.28-6.352-14.458" fill="#C6C752"/>
    <path d="M35.981 40.143c-3.79-3.79-2.852-6.237-2.852-6.237s2.448-.939 6.238 2.852c3.79 3.79 9.344 12.73 9.344 12.73s-8.94-5.555-12.73-9.345" fill="#b8bb26"/>
    <path d="M40.089 33.39c-5.178-1.386-6.828.65-6.828.65s.411 2.589 5.588 3.976c5.178 1.387 15.697 1.727 15.697 1.727s-9.28-4.965-14.457-6.352" fill="#C6C752"/>
    <path d="M38.874 30.083c-5.177 1.387-5.588 3.976-5.588 3.976s1.65 2.036 6.828.65c5.177-1.388 14.457-6.353 14.457-6.353s-10.52.34-15.697 1.727" fill="#b8bb26"/>
    <path d="M36.114 27.803c-3.79 3.79-2.85 6.237-2.85 6.237s2.446.938 6.236-2.852c3.79-3.79 9.345-12.73 9.345-12.73s-8.94 5.554-12.73 9.345" fill="#C6C752"/>
    <path d="M32.48 27.08c-1.388 5.176.649 6.826.649 6.826s2.588-.41 3.975-5.587c1.388-5.178 1.728-15.698 1.728-15.698s-4.965 9.28-6.353 14.458" fill="#b8bb26"/>
    <path d="M33.91 27.211c1.386 5.178-.65 6.828-.65 6.828s-2.589-.411-3.976-5.588c-1.387-5.178-1.728-15.697-1.728-15.697s4.966 9.28 6.353 14.457" fill="#C6C752"/>
    <path d="M30.433 27.821c3.79 3.79 2.851 6.237 2.851 6.237s-2.447.939-6.237-2.851-9.344-12.73-9.344-12.73 8.94 5.554 12.73 9.344" fill="#b8bb26"/>
    <path d="M27.673 30.065c5.177 1.387 5.588 3.975 5.588 3.975s-1.65 2.037-6.827.65c-5.178-1.388-14.458-6.353-14.458-6.353s10.52.34 15.697 1.728" fill="#C6C752"/>
    <path d="M26.3 33.259c5.177-1.387 6.827.649 6.827.649s-.41 2.588-5.588 3.976c-5.177 1.387-15.697 1.727-15.697 1.727s9.28-4.965 14.458-6.352" fill="#b8bb26"/>
    <path d="M25.739 38.289a25.792 25.792 0 0 0 1.8-.405c4.604-1.234 5.439-3.417 5.567-3.886-.593-.13-2.849-.338-6.082 2.894-.41.411-.842.883-1.285 1.397" fill="#C6C752"/>
    <path d="M30.413 36.779c1.914-1.038 2.492-2.19 2.654-2.657-.471.166-1.62.747-2.654 2.657" fill="#b8bb26"/>
</svg>
