<svg width="256" height="256" viewBox="0 0 67.73 67.73" xmlns="http://www.w3.org/2000/svg">
    <defs>
        <linearGradient id="e" x1="296" x2="296" y1="-212" y2="236" gradientUnits="userSpaceOnUse">
            <stop offset="0" stop-color="#ebdbb2"/>
            <stop offset=".125" stop-color="#ebdbb2" stop-opacity=".098"/>
            <stop offset=".925" stop-opacity=".098"/>
            <stop offset="1" stop-opacity=".498"/>
        </linearGradient>
        <clipPath id="d">
            <path d="M361.938-212C507.235-212 528-191.287 528-46.125v116.25C528 215.286 507.235 236 361.937 236H214.063C68.766 236 48 215.286 48 70.125v-116.25C48-191.287 68.765-212 214.063-212z" fill="#b16286"/>
        </clipPath>
        <filter id="b" x="-.01" y="-.01" width="1.023" height="1.025" color-interpolation-filters="sRGB">
            <feGaussianBlur stdDeviation="1.16"/>
        </filter>
        <filter id="a" x="-.02" y="-.03" width="1.046" height="1.05" color-interpolation-filters="sRGB">
            <feGaussianBlur stdDeviation="2.32"/>
        </filter>
        <radialGradient id="c" cx="31.272" cy="247.711" r="32.365" gradientTransform="matrix(2.40398 -.66748 .3789 1.3646 -137.76 -68.448)" gradientUnits="userSpaceOnUse">
            <stop stop-color="#458588" offset="0"/>
            <stop stop-color="#458588" offset="1"/>
        </radialGradient>
        <radialGradient id="f" cx="31.272" cy="247.711" r="32.365" gradientTransform="matrix(2.40398 -.66748 .3789 1.3646 -137.76 -68.448)" gradientUnits="userSpaceOnUse">
            <stop stop-color="#076678" stop-opacity="0" offset="0"/>
            <stop stop-color="#076678" stop-opacity=".24" offset="1"/>
        </radialGradient>
    </defs>
    <path transform="matrix(.2697 0 0 .2697 0 2.199)" d="M162.537 5.568c72.648 0 83.031 10.357 83.031 82.938v58.125c0 72.58-10.383 82.937-83.031 82.937H88.599c-72.648 0-83.031-10.357-83.031-82.937V88.506c0-72.581 10.383-82.938 83.031-82.938z" filter="url(#a)" opacity=".2"/>
    <path d="M43.837 3.161c19.594 0 22.395 2.793 22.395 22.369v15.677c0 19.575-2.8 22.369-22.395 22.369H23.896c-19.594 0-22.394-2.794-22.394-22.37V25.53c0-19.576 2.8-22.369 22.394-22.369z" fill="none" opacity=".1" stroke-linecap="round" stroke-linejoin="round" stroke-width="1.079" stroke="#282828"/>
    <path transform="matrix(.2697 0 0 .2697 0 2.199)" d="M162.537 3.568c72.648 0 83.031 10.357 83.031 82.938v58.125c0 72.58-10.383 82.937-83.031 82.937H88.599c-72.648 0-83.031-10.357-83.031-82.937V86.506c0-72.581 10.383-82.938 83.031-82.938z" filter="url(#b)" opacity=".1"/>
    <path d="M43.837 232.428c19.594 0 22.395 2.793 22.395 22.369v15.676c0 19.576-2.8 22.37-22.395 22.37H23.896c-19.594 0-22.394-2.794-22.394-22.37v-15.676c0-19.576 2.8-22.37 22.394-22.37z" fill="url(#c)" transform="translate(0 -229.267)"/>
    <path transform="matrix(.13485 0 0 .13485 -4.971 31.75)" d="M361.938-212C507.235-212 528-191.287 528-46.125v116.25C528 215.286 507.235 236 361.937 236H214.063C68.766 236 48 215.286 48 70.125v-116.25C48-191.287 68.765-212 214.063-212z" clip-path="url(#d)" fill="none" opacity=".4" stroke-linecap="round" stroke-linejoin="round" stroke-width="8" stroke="url(#e)"/>
    <path d="M33.867 3.161v60.415h9.97c19.594 0 22.395-2.794 22.395-22.37V25.53c0-19.576-2.8-22.369-22.395-22.369z" fill="#ebdbb2" opacity=".1"/>
    <path d="M23.896 63.576c-19.594 0-22.394-2.778-22.394-22.243V33.54h64.73v7.794c0 19.465-2.8 22.243-22.395 22.243z" fill="#ebdbb2" opacity=".1"/>
    <path d="M43.837 232.428c19.594 0 22.395 2.793 22.395 22.369v15.676c0 19.576-2.8 22.37-22.395 22.37H23.896c-19.594 0-22.394-2.794-22.394-22.37v-15.676c0-19.576 2.8-22.37 22.394-22.37z" fill="url(#f)" transform="translate(0 -229.267)"/>
    <path d="M28.484 14.373l-3.738 10.274-6.354 17.45h4.23l5.401-14.829h3.179L25.8 42.098l4.227.001 5.034-13.835c.725-1.989-.415-3.617-2.53-3.617h-3.555l3.929-10.796c-1.313-.14-3.447.155-4.422.523zM39.56 24.647l-6.532 17.95h-.003l-3.664 10.07a19.954 19.954 0 0 0 4.035.545l4.044-11.114h5.612c.985 0 2.066-.757 2.403-1.682l4.424-12.152c.723-1.99-.416-3.617-2.533-3.617zm3.29 2.611h3.178l-4.45 12.209h-3.177z" display="block" overflow="visible" fill-opacity=".194"/>
    <path d="M27.728 14.082L23.99 24.356h-.001l-6.352 17.45h4.228l5.403-14.829h3.178l-5.402 14.83 4.227.001 5.034-13.835c.725-1.989-.415-3.617-2.53-3.617H28.22L32.15 13.56c-1.312-.14-3.447.155-4.421.523zm11.077 10.274l-6.533 17.95h-.003l-3.664 10.07a19.954 19.954 0 0 0 4.035.545l4.044-11.114h5.612c.985 0 2.067-.757 2.403-1.682l4.424-12.152c.724-1.99-.415-3.617-2.532-3.617zm3.29 2.611h3.177l-4.45 12.209h-3.177z" display="block" overflow="visible" fill="#ebdbb2"/>
</svg>
