<svg xmlns="http://www.w3.org/2000/svg" width="256" height="256" version="1.0" enable-background="new">
    <defs>
        <filter id="a" width="1.046" height="1.05" x="-.02" y="-.03" color-interpolation-filters="sRGB">
            <feGaussianBlur stdDeviation="2.32"/>
        </filter>
        <filter id="b" width="1.023" height="1.025" x="-.01" y="-.01" color-interpolation-filters="sRGB">
            <feGaussianBlur stdDeviation="1.16"/>
        </filter>
        <linearGradient id="d" x1="296" x2="296" y1="-212" y2="236" gradientUnits="userSpaceOnUse">
            <stop offset="0" stop-color="#ebdbb2"/>
            <stop offset=".125" stop-color="#ebdbb2" stop-opacity=".098"/>
            <stop offset=".925" stop-opacity=".098"/>
            <stop offset="1" stop-opacity=".498"/>
        </linearGradient>
        <clipPath id="c">
            <path d="M361.938-212C507.235-212 528-191.287 528-46.125v116.25C528 215.286 507.235 236 361.937 236H214.063C68.766 236 48 215.286 48 70.125v-116.25C48-191.287 68.765-212 214.063-212z" fill="#b16286"/>
        </clipPath>
        <filter id="e" width="1.096" height="1.096" x="-.05" y="-.05" color-interpolation-filters="sRGB">
            <feGaussianBlur stdDeviation=".926"/>
        </filter>
        <linearGradient id="f" x1="12.274" x2="35.391" y1="32.416" y2="14.203" gradientTransform="rotate(90 -83.6 147.66) scale(1.32293)" gradientUnits="userSpaceOnUse">
            <stop offset="0" stop-color="#ebdbb2"/>
            <stop offset=".5" stop-color="#ebdbb2"/>
            <stop offset="1" stop-color="#ebdbb2"/>
        </linearGradient>
        <linearGradient id="g" x1="389.071" x2="428.568" y1="518.548" y2="534.908" gradientTransform="rotate(-44.956 -4152 7624.827) scale(10.21099)" gradientUnits="userSpaceOnUse">
            <stop offset="0" stop-color="#282828"/>
            <stop offset="1" stop-color="#ebdbb2"/>
        </linearGradient>
    </defs>
    <path d="M162.537 62.432c72.648 0 83.031 10.357 83.031 82.937v58.125c0 72.581-10.383 82.938-83.031 82.938H88.599c-72.648 0-83.031-10.357-83.031-82.938V145.37c0-72.58 10.383-82.937 83.031-82.937z" filter="url(#a)" opacity=".2" transform="translate(0 -44)"/>
    <path d="M162.537 61.432c72.648 0 83.031 10.357 83.031 82.937v58.125c0 72.581-10.383 82.938-83.031 82.938H88.599c-72.648 0-83.031-10.357-83.031-82.938V144.37c0-72.58 10.383-82.937 83.031-82.937z" filter="url(#b)" opacity=".1" transform="translate(0 -44)"/>
    <path d="M162.537 16.432c72.648 0 83.031 10.357 83.031 82.937v58.125c0 72.581-10.383 82.938-83.031 82.938H88.599c-72.648 0-83.031-10.357-83.031-82.938V99.37c0-72.58 10.383-82.937 83.031-82.937z" fill="#458588"/>
    <path d="M361.938-212C507.235-212 528-191.287 528-46.125v116.25C528 215.286 507.235 236 361.937 236H214.063C68.766 236 48 215.286 48 70.125v-116.25C48-191.287 68.765-212 214.063-212z" clip-path="url(#c)" transform="matrix(.5 0 0 .5 -18.432 122.432)" fill="none" opacity=".4" stroke-linecap="round" stroke-linejoin="round" stroke-width="8" stroke="url(#d)"/>
    <g>
        <path d="M56.65 263.01a23.092 23.092 0 0 0-23.151-23.15 23.092 23.092 0 0 0-23.151 23.15 23.092 23.092 0 0 0 23.151 23.152A23.092 23.092 0 0 0 56.65 263.01zm-14.681 0c0 4.663-3.715 8.47-8.47 8.47-4.849 0-8.47-3.901-8.47-8.47 0-4.66 3.435-8.47 8.47-8.47s8.47 3.902 8.47 8.47z" filter="url(#e)" opacity=".3" transform="matrix(3.77953 0 0 3.77953 -1.042 -864.624)"/>
        <path d="M56.65 263.01a23.092 23.092 0 0 0-23.151-23.15 23.092 23.092 0 0 0-23.151 23.15 23.092 23.092 0 0 0 23.151 23.152A23.092 23.092 0 0 0 56.65 263.01zm-14.681 0c0 4.663-3.715 8.47-8.47 8.47-4.849 0-8.47-3.901-8.47-8.47 0-4.66 3.435-8.47 8.47-8.47s8.47 3.902 8.47 8.47z" fill="url(#f)" transform="matrix(3.77953 0 0 3.77953 -1.042 -864.624)"/>
    </g>
    <g opacity=".8">
        <path d="M5.852 89.166c-.032 2.554-.176 4.601-.176 7.324v59.252c0 7.46.215 13.84.484 20.065l243.676.187c.275-6.271.488-12.722.488-20.252V96.49c0-2.654-.142-4.645-.172-7.138z" transform="matrix(.981 0 0 .981 0 5.743)" fill="url(#g)"/>
        <path d="M168.934 115.09l-.031 40.932 61.397.047.046-40.946z" fill="#458588"/>
        <path d="M96.572 115.035l-.031 40.932 61.395.045.046-40.943z" fill="#ebdbb2"/>
        <path d="M24.208 114.982l-.033 40.93 61.397.046.046-40.946z" fill="#ebdbb2"/>
        <path d="M245.568 156.081V115.15l-4.269-.004-.03 40.932z" fill="#458588"/>
        <path d="M5.568 114.968v40.928l7.641.005.03-40.928z" fill="#ebdbb2"/>
        <path d="M69.368 118.298a6.596 6.596 0 1 0 0 13.191 6.596 6.596 0 0 0 0-13.191zM45.183 129.29L31.99 153.476H67.17l-10.993-19.788-4.397 6.596z" fill="#fb4934"/>
        <path d="M140.916 118.298a6.596 6.596 0 1 0 0 13.191 6.596 6.596 0 0 0 0-13.191zM116.73 129.29l-13.192 24.185h35.178l-10.993-19.788-4.397 6.596z" fill="#b8bb26"/>
        <path d="M214.568 118.298a6.596 6.596 0 1 0 0 13.191 6.596 6.596 0 0 0 0-13.191zm-24.185 10.993l-13.192 24.185h35.178l-10.993-19.788-4.397 6.596z" fill="#fabd2f"/>
    </g>
</svg>
