<svg width="256" height="256" xmlns="http://www.w3.org/2000/svg">
    <defs>
        <linearGradient id="g" x1="296" x2="296" y1="-212" y2="236" gradientUnits="userSpaceOnUse">
            <stop offset="0" stop-color="#ebdbb2"/>
            <stop offset=".125" stop-color="#ebdbb2" stop-opacity=".098"/>
            <stop offset=".925" stop-opacity=".098"/>
            <stop offset="1" stop-opacity=".498"/>
        </linearGradient>
        <clipPath id="f">
            <path d="M361.938-212C507.235-212 528-191.287 528-46.125v116.25C528 215.286 507.235 236 361.937 236H214.063C68.766 236 48 215.286 48 70.125v-116.25C48-191.287 68.765-212 214.063-212z" fill="#b16286"/>
        </clipPath>
        <linearGradient id="c" x1="152.741" x2="153.513" y1="220.216" y2="44" gradientTransform="matrix(1.01937 0 0 1.01937 -26.944 -32.905)" gradientUnits="userSpaceOnUse">
            <stop offset="0" stop-color="#b16286" stop-opacity="0"/>
            <stop offset="1" stop-color="#b16286" stop-opacity=".893"/>
        </linearGradient>
        <filter id="b" x="-.01" y="-.01" width="1.023" height="1.025" color-interpolation-filters="sRGB">
            <feGaussianBlur stdDeviation="1.16"/>
        </filter>
        <filter id="a" x="-.02" y="-.03" width="1.046" height="1.05" color-interpolation-filters="sRGB">
            <feGaussianBlur stdDeviation="2.32"/>
        </filter>
        <linearGradient id="d" x1="132.03" x2="32.703" y1="146.005" y2="267.498" gradientTransform="matrix(1.01937 0 0 1.01937 -26.944 -32.905)" gradientUnits="userSpaceOnUse">
            <stop offset="0" stop-color="#458588" stop-opacity=".028"/>
            <stop offset="1" stop-color="#689d6a"/>
        </linearGradient>
        <linearGradient id="e" x1="132.03" x2="270.871" y1="146.005" y2="265.772" gradientTransform="matrix(1.01937 0 0 1.01937 -26.944 -32.905)" gradientUnits="userSpaceOnUse">
            <stop offset="0" stop-color="#fabd2f" stop-opacity="0"/>
            <stop offset="1" stop-color="#fabd2f"/>
        </linearGradient>
        <linearGradient id="h" x1="244.334" x2="74.574" y1="219.226" y2="174.361" gradientTransform="matrix(.62996 0 0 .62996 34.435 51.558)" gradientUnits="userSpaceOnUse">
            <stop offset="0" stop-color="#458588"/>
            <stop offset="1" stop-color="#458588" stop-opacity=".014"/>
        </linearGradient>
    </defs>
    <path transform="matrix(1.01937 0 0 1.01937 0 8.31)" d="M162.537 5.568c72.648 0 83.031 10.357 83.031 82.938v58.125c0 72.58-10.383 82.937-83.031 82.937H88.599c-72.648 0-83.031-10.357-83.031-82.937V88.506c0-72.581 10.383-82.938 83.031-82.938z" filter="url(#a)" opacity=".2"/>
    <path d="M165.685 11.947c74.055 0 84.64 10.557 84.64 84.544v59.25c0 73.987-10.585 84.544-84.64 84.544h-75.37c-74.055 0-84.64-10.557-84.64-84.543V96.49c0-73.987 10.585-84.544 84.64-84.544z" fill="none" opacity=".1" stroke-linecap="round" stroke-linejoin="round" stroke-width="4.077" stroke="#282828"/>
    <path transform="matrix(1.01937 0 0 1.01937 0 8.31)" d="M162.537 3.568c72.648 0 83.031 10.357 83.031 82.938v58.125c0 72.58-10.383 82.937-83.031 82.937H88.599c-72.648 0-83.031-10.357-83.031-82.937V86.506c0-72.581 10.383-82.938 83.031-82.938z" filter="url(#b)" opacity=".1"/>
    <path d="M165.685 11.947c74.055 0 84.64 10.557 84.64 84.544v59.25c0 73.987-10.585 84.544-84.64 84.544h-75.37c-74.055 0-84.64-10.557-84.64-84.543V96.49c0-73.987 10.585-84.544 84.64-84.544z" fill-opacity=".981" fill="#ebdbb2"/>
    <path d="M165.685 11.947c74.055 0 84.64 10.557 84.64 84.544v59.25c0 73.987-10.585 84.544-84.64 84.544h-75.37c-74.055 0-84.64-10.557-84.64-84.543V96.49c0-73.987 10.585-84.544 84.64-84.544z" fill="url(#c)"/>
    <path d="M165.685 11.947c74.055 0 84.64 10.557 84.64 84.544v59.25c0 73.987-10.585 84.544-84.64 84.544h-75.37c-74.055 0-84.64-10.557-84.64-84.543V96.49c0-73.987 10.585-84.544 84.64-84.544z" fill="url(#d)"/>
    <path d="M165.685 11.947c74.055 0 84.64 10.557 84.64 84.544v59.25c0 73.987-10.585 84.544-84.64 84.544h-75.37c-74.055 0-84.64-10.557-84.64-84.543V96.49c0-73.987 10.585-84.544 84.64-84.544z" fill="url(#e)"/>
    <path transform="matrix(.50968 0 0 .50968 -18.789 120)" d="M361.938-212C507.235-212 528-191.287 528-46.125v116.25C528 215.286 507.235 236 361.937 236H214.063C68.766 236 48 215.286 48 70.125v-116.25C48-191.287 68.765-212 214.063-212z" clip-path="url(#f)" fill="none" opacity=".4" stroke-linecap="round" stroke-linejoin="round" stroke-width="8" stroke="url(#g)"/>
    <path d="M73.128 148.731c-.05.615-.09 1.23-.117 1.846 0 34.065 34.883 61.68 77.914 61.681 14.319-.027 27.602-2.522 39.807-8.45l8.364-12.952-9.214-13.735-7.218-7.993-3.797-5.46c-12.447 10.887-32.731 12.677-49.903 12.689-22.467-.016-43.432-10.388-55.836-27.626z" fill="url(#h)"/>
    <path d="M148.933 144.105l29.934 21.564 11.207-14.613s-.426 0-1.56-1.276c-1.135-1.277-28.799-26.813-28.799-26.813l-11.207 1.277-4.54 7.235.04 9.795z" opacity=".5"/>
    <path d="M141.743 143.477c-4.703-1.11-12.81-4.566-15.47-6.595-1.159-.883-2.305-1.605-2.547-1.605s-1.866-1.104-3.608-2.454a283.946 283.946 0 0 0-5.795-4.36c-3.27-2.374-27.968-27.736-35.981-36.949-2.386-2.743-26.743-28.076-37.349-38.846-12.362-12.553-14.226-15.239-13.005-18.74.91-2.613 3.9-4.24 6.791-3.697 1.173.22 4.008 1.62 6.3 3.109 8.477 5.51 41.829 26.441 53.233 33.408a3761.54 3761.54 0 0 1 15.702 9.632c6.447 4.005 17.418 10.484 17.753 10.484.482 0 8.734 5.823 11.858 8.368 0 0 2.89 1.936 8.738 7.738 3.034 3.698 6.204 7.169 8.269 10.488.643.91 5.265 7.029 5.723 9.406.137.713.285 1.161.512 1.61.252 2.975-1.096-.69-2.355-.218-4.507.646-8.581 4.561-10.973 7.988-2.096 3.139-2.562 4.41-2.562 6.995 0 2.524.318 3.515 1.48 4.329 1.432 1.003.894 1.118-.844.813-1.249-.03-3.89-.437-5.87-.904z" opacity=".5"/>
    <path d="M148.933 142.105l29.934 21.564 11.207-14.613s-.426 0-1.56-1.276c-1.135-1.277-28.799-26.813-28.799-26.813l-11.207 1.277-4.54 7.235.04 9.795z" fill="#ebdbb2"/>
    <path d="M191.482 201.152c2.541-5.598 1.183-10.257-5.836-20.02-6.175-8.59-8.107-12.948-8.162-18.415-.05-5 1.471-8.46 5.134-11.676 8.428-7.4 19.341-3.897 25.262 8.108 5.66 11.476 3.143 25.158-6.58 35.769-3.514 3.835-9.667 9.015-10.71 9.015-.203 0 .198-1.252.892-2.78zm-49.739-59.675c-4.703-1.11-12.81-4.566-15.47-6.595-1.159-.883-2.305-1.605-2.547-1.605s-1.866-1.104-3.608-2.454a283.946 283.946 0 0 0-5.795-4.36c-3.27-2.374-27.968-27.736-35.981-36.949-2.386-2.743-26.743-28.076-37.349-38.846-12.362-12.553-14.226-15.239-13.005-18.74.91-2.613 3.9-4.24 6.791-3.697 1.173.22 4.008 1.62 6.3 3.109 8.477 5.51 41.829 26.441 53.233 33.408a3761.54 3761.54 0 0 1 15.702 9.632c6.447 4.005 17.418 10.484 17.753 10.484.482 0 8.734 5.823 11.858 8.368 0 0 2.89 1.936 8.738 7.738 3.034 3.698 6.204 7.169 8.269 10.488.643.91 5.265 7.029 5.723 9.406.137.713.285 1.161.512 1.61.252 2.975-1.096-.69-2.355-.218-4.507.646-8.581 4.561-10.973 7.988-2.096 3.139-2.562 4.41-2.562 6.995 0 2.524.318 3.515 1.48 4.329 1.432 1.003.894 1.118-.844.813-1.249-.03-3.89-.437-5.87-.904z"/>
</svg>
