<svg xmlns="http://www.w3.org/2000/svg" width="256" height="256" version="1.0" enable-background="new">
    <defs>
        <filter id="a" width="1.046" height="1.05" x="-.02" y="-.03" color-interpolation-filters="sRGB">
            <feGaussianBlur stdDeviation="2.32"/>
        </filter>
        <filter id="b" width="1.023" height="1.025" x="-.01" y="-.01" color-interpolation-filters="sRGB">
            <feGaussianBlur stdDeviation="1.16"/>
        </filter>
        <linearGradient id="f" x1="296" x2="296" y1="-212" y2="236" gradientUnits="userSpaceOnUse">
            <stop offset="0" stop-color="#ebdbb2"/>
            <stop offset=".125" stop-color="#ebdbb2" stop-opacity=".098"/>
            <stop offset=".925" stop-opacity=".098"/>
            <stop offset="1" stop-opacity=".498"/>
        </linearGradient>
        <filter id="d" width="1.095" height="1.097" x="-.05" y="-.05" color-interpolation-filters="sRGB">
            <feGaussianBlur stdDeviation=".283"/>
        </filter>
        <linearGradient id="c" x1="186.568" x2="55.568" y1="292" y2="56.864" gradientTransform="translate(0 -44)" gradientUnits="userSpaceOnUse">
            <stop offset="0" stop-color="#fe8019"/>
            <stop offset="1" stop-color="#fb4934"/>
        </linearGradient>
        <clipPath id="e">
            <path d="M361.938-212C507.235-212 528-191.287 528-46.125v116.25C528 215.286 507.235 236 361.937 236H214.063C68.766 236 48 215.286 48 70.125v-116.25C48-191.287 68.765-212 214.063-212z" fill="#b16286"/>
        </clipPath>
    </defs>
    <path d="M162.537 62.432c72.648 0 83.031 10.357 83.031 82.937v58.125c0 72.581-10.383 82.938-83.031 82.938H88.599c-72.648 0-83.031-10.357-83.031-82.938V145.37c0-72.58 10.383-82.937 83.031-82.937z" filter="url(#a)" opacity=".2" transform="translate(0 -44)"/>
    <path d="M162.537 61.432c72.648 0 83.031 10.357 83.031 82.937v58.125c0 72.581-10.383 82.938-83.031 82.938H88.599c-72.648 0-83.031-10.357-83.031-82.938V144.37c0-72.58 10.383-82.937 83.031-82.937z" filter="url(#b)" opacity=".1" transform="translate(0 -44)"/>
    <path d="M162.537 16.432c72.648 0 83.031 10.357 83.031 82.937v58.126c0 72.58-10.383 82.937-83.031 82.937H88.599c-72.648 0-83.031-10.357-83.031-82.937V99.369c0-72.58 10.383-82.937 83.031-82.937z" fill="url(#c)"/>
    <g opacity=".3" fill="#282828" filter="url(#d)" transform="matrix(-11.19978 0 0 -11.19978 216.768 218.024)">
        <path d="M13.909 1.307l-3.304 3.307c.732.273 1.5.527 2.306.764.8.231 1.592.436 2.375.612a48.514 48.514 0 0 0-.621-2.366 40.298 40.298 0 0 0-.756-2.316z" overflow="visible"/>
        <path d="M8.102 1A7.003 7.003 0 0 0 1 8a7.003 7.003 0 0 0 4.895 6.676 7.005 7.005 0 0 0 7.84-2.66l.287-.41-.82-.575-.288.41a5.996 5.996 0 0 1-6.719 2.282A5.996 5.996 0 0 1 2 8a5.996 5.996 0 0 1 4.195-5.723 5.996 5.996 0 0 1 6.72 2.282l.286.41.82-.574-.287-.41A7.006 7.006 0 0 0 8.102 1z" font-weight="400" overflow="visible"/>
    </g>
    <g fill="#ebdbb2">
        <path d="M60.99 203.386l37.004-37.038c-8.198-3.058-16.8-5.902-25.827-8.557-8.96-2.587-17.83-4.883-26.599-6.854a543.346 543.346 0 0 0 6.955 26.499 451.329 451.329 0 0 0 8.467 25.938z" overflow="visible"/>
        <path d="M126.027 206.824a78.432 78.432 0 0 0 79.541-78.398 78.432 78.432 0 0 0-54.823-74.77A78.454 78.454 0 0 0 62.94 83.447l-3.214 4.592 9.183 6.44 3.226-4.592a67.154 67.154 0 0 1 75.251-25.558 67.154 67.154 0 0 1 46.983 64.097 67.154 67.154 0 0 1-46.983 64.096 67.154 67.154 0 0 1-75.262-25.558l-3.203-4.592-9.184 6.429 3.214 4.592a78.466 78.466 0 0 0 63.077 33.431z" font-weight="400" overflow="visible"/>
    </g>
    <path d="M361.938-212C507.235-212 528-191.287 528-46.125v116.25C528 215.286 507.235 236 361.937 236H214.063C68.766 236 48 215.286 48 70.125v-116.25C48-191.287 68.765-212 214.063-212z" clip-path="url(#e)" transform="matrix(.5 0 0 .5 -18.432 122.432)" opacity=".4" fill="none" stroke="url(#f)" stroke-width="8" stroke-linecap="round" stroke-linejoin="round"/>
</svg>
