<svg width="256" height="256" viewBox="0 0 67.73 67.73" xmlns="http://www.w3.org/2000/svg">
    <defs>
        <filter id="e" x="-.06" y="-.06" width="1.12" height="1.12" color-interpolation-filters="sRGB">
            <feGaussianBlur stdDeviation="1.2"/>
        </filter>
        <linearGradient id="d" x1="296" x2="296" y1="-212" y2="236" gradientUnits="userSpaceOnUse">
            <stop offset="0" stop-color="#ebdbb2"/>
            <stop offset=".125" stop-color="#ebdbb2" stop-opacity=".098"/>
            <stop offset=".925" stop-opacity=".098"/>
            <stop offset="1" stop-opacity=".498"/>
        </linearGradient>
        <clipPath id="c">
            <path d="M361.938-212C507.235-212 528-191.287 528-46.125v116.25C528 215.286 507.235 236 361.937 236H214.063C68.766 236 48 215.286 48 70.125v-116.25C48-191.287 68.765-212 214.063-212z" fill="#b16286"/>
        </clipPath>
        <filter id="b" x="-.02" y="-.03" width="1.046" height="1.05" color-interpolation-filters="sRGB">
            <feGaussianBlur stdDeviation="2.32"/>
        </filter>
        <filter id="a" x="-.01" y="-.01" width="1.023" height="1.025" color-interpolation-filters="sRGB">
            <feGaussianBlur stdDeviation="1.16"/>
        </filter>
        <linearGradient id="f" x1="28.317" x2="28.308" y1="281.2" y2="284.013" gradientTransform="translate(-4.242 -37.265) scale(1.13323)" gradientUnits="userSpaceOnUse">
            <stop offset="0" stop-color="#d79921"/>
            <stop offset=".526" stop-color="#d79921"/>
            <stop offset="1" stop-color="#d79921" stop-opacity="0"/>
        </linearGradient>
    </defs>
    <g transform="translate(0 -229.267)">
        <path transform="matrix(.2697 0 0 .2697 -7.129 220.56)" d="M188.969 44C261.617 44 272 54.357 272 126.938v58.124C272 257.644 261.617 268 188.969 268H115.03C42.383 268 32 257.643 32 185.062v-58.125C32 54.358 42.383 44 115.031 44z" filter="url(#a)" opacity=".1"/>
        <path transform="matrix(.2697 0 0 .2697 -7.129 220.56)" d="M188.969 46C261.617 46 272 56.357 272 128.938v58.125c0 72.58-10.383 82.937-83.031 82.937H115.03C42.383 270 32 259.643 32 187.062v-58.125C32 56.358 42.383 46 115.031 46z" filter="url(#b)" opacity=".2"/>
        <path d="M23.896 232.428c-19.594 0-22.394 2.793-22.394 22.369v15.676c0 2.742.058 5.144.207 7.266l4.108 2.157h56.1l4.108-2.157c.148-2.122.207-4.524.207-7.266v-15.676c0-19.576-2.8-22.37-22.395-22.37z" fill="#d3869b"/>
        <path d="M1.709 277.739c.91 13.027 5.337 15.103 22.187 15.103h19.941c16.85 0 21.277-2.076 22.188-15.103H8.11z" fill="#fabd2f"/>
        <path transform="matrix(.13485 0 0 .13485 -4.971 261.017)" d="M361.938-212C507.235-212 528-191.287 528-46.125v116.25C528 215.286 507.235 236 361.937 236H214.063C68.766 236 48 215.286 48 70.125v-116.25C48-191.287 68.765-212 214.063-212z" clip-path="url(#c)" fill="none" opacity=".4" stroke-linecap="round" stroke-linejoin="round" stroke-width="8" stroke="url(#d)"/>
        <path d="M66.092 275.366c.063-1.557.14-3.046.14-4.893v-15.677c0-2.447-.044-4.631-.159-6.581a52.606 52.606 0 0 0-.229-2.752 32.725 32.725 0 0 0-.356-2.42 21.028 21.028 0 0 0-.504-2.109 14.204 14.204 0 0 0-.672-1.818c-.254-.56-.54-1.074-.86-1.547a8.81 8.81 0 0 0-1.07-1.298 8.815 8.815 0 0 0-1.299-1.068c-.474-.32-.989-.605-1.55-.86s-1.165-.475-1.82-.67-1.356-.361-2.11-.503c-.755-.142-1.561-.26-2.423-.356a52.812 52.812 0 0 0-2.755-.228c-1.951-.115-4.138-.158-6.587-.158H27.352c-4.642 5.156-7.492 11.959-7.492 19.443 0 13.381 9.041 24.624 21.34 28.025h15.528a28.94 28.94 0 0 0 9.364-4.53z" fill="#ebdbb2" opacity=".05"/>
        <path d="M66.232 263.371v-8.575c0-2.447-.044-4.631-.159-6.581a52.606 52.606 0 0 0-.229-2.752 32.725 32.725 0 0 0-.356-2.42 21.028 21.028 0 0 0-.504-2.109 14.204 14.204 0 0 0-.672-1.818c-.254-.56-.54-1.074-.86-1.547a8.81 8.81 0 0 0-1.07-1.298 8.815 8.815 0 0 0-1.299-1.068c-.474-.32-.989-.605-1.55-.86s-1.165-.475-1.82-.67-1.356-.361-2.11-.503c-.755-.142-1.561-.26-2.423-.356a52.812 52.812 0 0 0-2.755-.228c-1.951-.115-4.138-.158-6.587-.158h-2.242c-7.86 2.966-13.46 10.536-13.46 19.434 0 11.481 9.307 20.79 20.788 20.79 7.224 0 13.582-3.689 17.308-9.281z" fill="#ebdbb2" opacity=".1"/>
        <circle cx="48.924" cy="251.862" r="12.083" fill="#ebdbb2" opacity=".15"/>
        <circle transform="matrix(.2697 0 0 .2697 -7.129 220.56)" cx="208" cy="118" r="24" filter="url(#e)" opacity=".1"/>
        <circle cx="48.97" cy="251.847" r="6.473" fill="#fe8019"/>
        <path d="M34.165 248.769c-.491.42-.765.863-1.139 1.112-.167.112-.515.248-.595.468-.014.038.116.075.182.052.645-.225 1.268-.491 1.902-.75.708-.29 1.443-.464 2.186-.638.731-.17 1.457-.376 2.211-.407.719-.028 1.514.183 2.218.007.559-.14.785-.665 1.176-1.03.472-.44 1.041-.492 1.655-.404.554.08 1.102.207 1.541-.231.347-.347.526-.944 1.101-.94.617.005 1.201.553 1.824.284.268-.116.475-.35.707-.52.287-.211.605-.36.932-.497-2.422-.371-4.874-.83-7.33-.873-2.172-.038-4.174.482-5.915 1.815-.5.384-.969.809-1.42 1.249-.487.476-.883 1.045-1.428 1.46M33.874 251.871c.64-.3 1.356-.393 2.039-.557.713-.17 1.434-.3 2.16-.391 1.589-.198 3.205-.254 4.804-.242 1.345.01 2.846.05 3.971.884 1.15.852 1.777 2.306 2.278 3.6.48 1.243.826 2.515 1.052 3.827-.464-.411-.934-.832-1.505-1.09-.478-.215-1.081-.243-1.503-.568-.446-.344-.493-.948-.824-1.374-.396-.508-1.022-.388-1.59-.427-.675-.048-.937-.442-1.234-.997-.304-.568-.668-.887-1.331-.914-.679-.028-1.319.048-1.985-.14-.687-.195-1.318-.543-1.978-.808-.752-.302-1.514-.402-2.32-.422-.41-.01-.822-.009-1.233-.034-.22-.013-.655.042-.876-.088-.061-.036.037-.268.075-.259M32.133 253.987c.247-.034.526.04.768.064.255.026.543.02.802.046.252.026.487.128.726.187.225.055.466.092.688.16.492.152.972.338 1.452.49.498.156.992.236 1.436.537.516.35 1.02.647 1.387 1.135.055.073.186.118.254.196.081.094.149.2.215.304.146.234.284.47.443.697.28.402.558.813.837 1.22.556.812 1.114 1.582 1.463 2.483.185.478.402.921.609 1.402.18.42.384.864.565 1.289.137.32.265.668.354 1.012.003.014-.183-.043-.205-.06a.723.723 0 0 1-.178-.224c-.071-.137-.146-.227-.235-.274-.173-.093-.285-.183-.479-.242-.19-.056-.399-.03-.593-.05-.253-.025-.54 0-.784-.064-.463-.12-.446-.712-.631-1.065-.242-.465-.637-.524-1.13-.55-.406-.021-1.097.037-1.267-.412-.082-.218-.092-.467-.172-.693-.067-.19-.203-.365-.334-.53a2.16 2.16 0 0 0-1.052-.71c-.386-.11-.925-.265-1.085-.705-.08-.22-.01-.487-.082-.705-.067-.2-.163-.325-.261-.489-.124-.206-.19-.441-.31-.648-.191-.326-.491-.597-.67-.933-.11-.209-.213-.416-.374-.605-.14-.164-.287-.3-.427-.468-.131-.157-.265-.305-.396-.47-.14-.174-.258-.363-.4-.546-.138-.176-.322-.303-.496-.433a1.493 1.493 0 0 1-.376-.13c-.08-.045-.253-.29-.028-.233M27.929 249.977a.457.457 0 0 0 .097-.2c.188-.82-.346-1.614-.697-2.317-.423-.845-.576-1.996-.236-2.898.312-.83.875-1.452 1.366-2.164.19-.274.52-.62.86-.686.037.552-.12 1.006-.147 1.53-.046.908.548 1.79.875 2.591.39.956.193 1.825-.456 2.613-.488.593-1.117 1.005-1.662 1.531M23.1 251.034c-.19-.243-.457-.444-.69-.643-.249-.212-.504-.416-.756-.624-.461-.378-.936-.74-1.434-1.068-.487-.32-.997-.606-1.53-.844a9.509 9.509 0 0 0-1.638-.561 10.326 10.326 0 0 0-1.737-.263c-.6-.04-1.201-.033-1.8.008-.612.043-1.221.121-1.825.224-.61.103-1.214.231-1.815.374-.6.143-1.195.3-1.789.465-.59.164-1.178.335-1.765.508l-.422.124c.276.113.545.234.798.392.25.157.49.34.77.44.285.103.57.089.852-.012.284-.102.548-.253.851-.291.634-.079 1.032.365 1.533.655.244.141.523.23.807.186.283-.044.517-.214.772-.333.266-.126.55-.17.837-.092.288.08.53.258.758.444.226.184.451.37.717.495.275.129.572.185.874.2.654.036 1.313-.038 1.966-.066a18.14 18.14 0 0 1 1.966.003c.63.043 1.25.218 1.864.355.33.074.654.17.983.251.237.06.578.159.794-.009a.616.616 0 0 0 .141-.153c.052-.089.003-.129-.082-.165" fill-opacity=".893" fill="#98971a"/>
        <path d="M23.203 253.142c-.265-.032-.448-.099-.692-.163-.564-.147-1.17-.097-1.746-.114-.649-.02-1.296-.054-1.944-.087-1.295-.064-2.593-.115-3.888-.027-.733.05-1.466.155-2.181.327-1.208.29-2.353.845-3.166 1.809-.81.96-1.219 2.186-1.48 3.398-.33 1.523-.28 2.238-.43 3.788.364-.519.554-.196 1.053-.597.418-.336.925-.501 1.36-.804.403-.28.492-.696.632-1.138.17-.533.472-.848 1.024-.986.524-.13 1.174-.102 1.581-.516.354-.359.33-.902.611-1.3.313-.441.934-.43 1.416-.501a3.467 3.467 0 0 0 1.677-.694c.563-.432 1.08-.836 1.763-1.066.889-.3 1.817-.45 2.732-.643.235-.05.48-.07.717-.11.307-.05.641-.104.923-.243a.873.873 0 0 0 .156-.096c.027-.022.06-.048.065-.086.015-.13-.168-.141-.254-.17" fill="#98971a"/>
        <path d="M22.42 255.674c-1.243.266-2.574 1.142-3.446 2.031-.31.316-.667.608-.927.96-.298.403-.553.82-.843 1.227-.325.457-.57.981-.77 1.502-.198.515-.253 1.11-.45 1.626-.212.555-.452.9-.614 1.475-.262.93-.572.968-.717 2.662.554-.46.69-.508.834-.54.287-.066.434.022.706-.033.285-.058.253-.103.473-.302.202-.183.269-.496.357-.733.106-.286.141-.518.42-.692.237-.148.508-.207.764-.306.243-.094.535-.152.747-.324.225-.183.301-.422.406-.683.237-.588.384-1.151.924-1.51.215-.143.471-.247.651-.419.19-.183.3-.449.388-.68.392-1.03.72-2.096 1.1-3.137.178-.488.445-1.024.891-1.353.196-.145.438-.27.61-.482.105-.132.417-.418.36-.605-.09-.293-.793-.136-.983-.056-.28.12-.584.277-.882.372" fill-opacity=".893" fill="#98971a"/>
        <path d="M27.232 252.846c-.047-.076-.035-.19.078-.225.14-.044.211-.026.352-.067.149-.044.331-.001.483-.035.174-.04.509-.105.687-.07.381.073.376.378.514.703.086.2.165.404.23.612.044.138.203.494.08.583-.257.188-.67.141-.91.13-.229-.011-.506.088-.722.009-.112-.04-.212-.109-.28-.29-.075-.203-.133-.266-.228-.448a3.547 3.547 0 0 1-.208-.54 2.264 2.264 0 0 1-.089-.504M28.68 257.755a1.907 1.907 0 0 1-.27-.518c-.067-.181-.2-.334-.333-.466-.034-.034-.16-.165-.147-.219.02-.078.27-.066.34-.073.25-.026.513-.015.766-.026.265-.013.523-.013.784-.027.114-.006.23 0 .345-.007.097-.004.228-.037.294.039.146.164.269.406.358.607.087.197.148.33.258.525.104.188.126.475.213.672.081.185.155.42.155.634 0 .208.012.357-.049.548-.065.205-.347.155-.537.155-.22 0-.443.013-.658.013-.235 0-.433-.017-.647-.085-.157-.05-.303-.257-.37-.402-.175-.379-.298-.779-.449-1.162-.05-.132-.095-.31-.178-.42M29.634 263.064c-.09-.354-.123-.653-.31-.991-.227-.411-.037-.427.035-.485.145-.113.361-.127.536-.138a8.13 8.13 0 0 1 .782 0c.407.013.684.11 1.106.12.563.016.624.378.681 1.04.042.487.15.97.187 1.456.032.436.07.894-.006 1.327-.057.32.006.569-.344.572-.418.004-1.075-.186-1.456-.337-.321-.126-.534-.244-.887-.324-.408-.093-.262-.514-.236-1.457.005-.19.012-.384-.035-.57-.018-.073-.046-.139-.053-.213-.02-.232.006-.117-.033-.18M29.067 269.777c0-.358.06-.7.045-1.058-.015-.371-.074-.757-.075-1.128 0-.434.221-.431.527-.305.428.177.824.406 1.266.555.497.168.838.335 1.36.415.453.069.565.19.418 1.082-.108.658-.217 1.499-.307 2.162-.053.392-.39 1.768-.604 1.783-.45.031-.994-.286-1.452-.469-.526-.21-.844-.371-1.284-.513-.726-.235-.3-.482-.047-1.72.06-.292.11-.566.138-.864M26.451 277.249c.198-.168.225-.591.292-.829.115-.408.102-.837.19-1.25.045-.218.167-.958.365-1.102.176-.126.626.326.807.388.362.123.415.164.78.277.445.136.914.38 1.367.488.362.086.941.176 1.263.373.827.506.27 1.013.08 1.714-.45 1.648-1.155 3.236-2.158 4.623-.339.469-.629 1.373-1.293 1.19-.34-.094-.827-.572-1.104-.781a27.577 27.577 0 0 1-1.053-.847c-.886-.74-1.547-.79-1.183-1.349.164-.252.344-.682.493-.937.224-.382.458-.757.684-1.137.203-.343.395-.595.537-.97.007-.019.147-.33.153-.348" fill="#af3a03"/>
        <ellipse cx="27.479" cy="283.537" rx="9.525" ry="3.838" fill="url(#f)"/>
    </g>
</svg>
