<svg width="256" height="256" viewBox="0 0 67.73 67.73" xmlns="http://www.w3.org/2000/svg">
    <defs>
        <linearGradient id="d" x1="296" x2="296" y1="-212" y2="236" gradientUnits="userSpaceOnUse">
            <stop offset="0" stop-color="#ebdbb2"/>
            <stop offset=".125" stop-color="#ebdbb2" stop-opacity=".098"/>
            <stop offset=".925" stop-opacity=".098"/>
            <stop offset="1" stop-opacity=".498"/>
        </linearGradient>
        <clipPath id="c">
            <path d="M361.938-212C507.235-212 528-191.287 528-46.125v116.25C528 215.286 507.235 236 361.937 236H214.063C68.766 236 48 215.286 48 70.125v-116.25C48-191.287 68.765-212 214.063-212z" fill="#b16286"/>
        </clipPath>
        <filter id="b" x="-.01" y="-.01" width="1.023" height="1.025" color-interpolation-filters="sRGB">
            <feGaussianBlur stdDeviation="1.16"/>
        </filter>
        <filter id="a" x="-.02" y="-.03" width="1.046" height="1.05" color-interpolation-filters="sRGB">
            <feGaussianBlur stdDeviation="2.32"/>
        </filter>
    </defs>
    <path transform="matrix(.2697 0 0 .2697 0 2.199)" d="M162.537 5.568c72.648 0 83.031 10.357 83.031 82.938v58.125c0 72.58-10.383 82.937-83.031 82.937H88.599c-72.648 0-83.031-10.357-83.031-82.937V88.506c0-72.581 10.383-82.938 83.031-82.938z" filter="url(#a)" opacity=".2"/>
    <path d="M43.837 3.161c19.594 0 22.395 2.793 22.395 22.369v15.677c0 19.575-2.8 22.369-22.395 22.369H23.896c-19.594 0-22.394-2.794-22.394-22.37V25.53c0-19.576 2.8-22.369 22.394-22.369z" fill="none" opacity=".1" stroke-linecap="round" stroke-linejoin="round" stroke-width="1.079" stroke="#282828"/>
    <path transform="matrix(.2697 0 0 .2697 0 2.199)" d="M162.537 3.568c72.648 0 83.031 10.357 83.031 82.938v58.125c0 72.58-10.383 82.937-83.031 82.937H88.599c-72.648 0-83.031-10.357-83.031-82.937V86.506c0-72.581 10.383-82.938 83.031-82.938z" filter="url(#b)" opacity=".1"/>
    <path d="M23.896 63.576c-19.594 0-22.394-2.794-22.394-22.37v-7.838h64.73v7.839c0 19.575-2.8 22.369-22.395 22.369z" fill="#ebdbb2" opacity=".1"/>
    <path d="M48.554 18.893v14.469h14.469V18.893zM19.616 33.362V47.83h14.469V33.36zM5.147 33.362h14.469V18.893H5.147zM1.502 33.362v7.845c0 2.447.044 4.631.158 6.581l.004.043h3.483V33.36z" fill="#cc241d"/>
    <path d="M34.085 33.362V18.893h-14.47v14.469zM48.554 47.83V33.363h-14.47V47.83zM66.232 33.362V25.53c0-2.447-.044-4.631-.159-6.581l-.005-.056h-3.045v14.469zM57.798 62.3c.62-.188 1.201-.399 1.736-.64.56-.255 1.076-.54 1.55-.86s.905-.675 1.298-1.068c.236-.235.432-.513.64-.776V47.83H48.555V62.3zM5.147 59.485c.072.078.13.172.204.247.394.393.826.748 1.3 1.068s.988.605 1.549.86c.534.241 1.116.452 1.735.64h9.68V47.83H5.148z" fill="#9d0006"/>
    <path d="M34.085 62.3V47.83h-14.47V62.3zM63.023 47.83V33.363h-14.47V47.83zM66.068 18.893a52.561 52.561 0 0 0-.224-2.697 32.727 32.727 0 0 0-.356-2.42c-.142-.753-.309-1.455-.504-2.109s-.417-1.258-.672-1.818c-.254-.56-.54-1.074-.86-1.547-.129-.19-.29-.344-.43-.52v11.111zM63.023 58.956c.14-.177.3-.331.429-.521.32-.473.606-.988.86-1.548.255-.56.477-1.165.672-1.818s.362-1.355.504-2.109c.142-.754.26-1.56.356-2.42.095-.848.168-1.751.225-2.71h-3.046zM34.085 63.575h9.753c1.753 0 3.221-.058 4.716-.113V62.3h-14.47zM9.935 62.3c.03.009.054.022.085.03.654.195 1.356.361 2.11.503s1.562.26 2.424.356c.861.096 1.778.171 2.754.228.684.04 1.565.032 2.308.056V62.3zM1.664 47.83c.057.959.13 1.862.225 2.71.097.86.214 1.666.356 2.42.143.754.31 1.456.504 2.109s.418 1.258.672 1.818c.254.56.54 1.075.86 1.548.26.382.56.72.866 1.05V47.83z" fill="#cc241d"/>
    <path d="M34.085 18.893v14.469h14.469V18.893zM5.147 33.362V47.83h14.469V33.36zM1.665 18.893l-.005.056c-.114 1.95-.158 4.134-.158 6.581v7.832h3.645V18.893z" fill="#fb4934"/>
    <path d="M48.554 62.3V47.83h-14.47V62.3zM66.07 47.83l.003-.042c.115-1.95.159-4.134.159-6.581v-7.845h-3.21V47.83zM48.554 63.462c.593-.021 1.317-.012 1.871-.045a52.81 52.81 0 0 0 2.755-.228 32.837 32.837 0 0 0 2.423-.356 21.091 21.091 0 0 0 2.11-.502c.031-.01.055-.022.085-.031h-9.244zM19.616 63.473c1.377.044 2.689.102 4.28.102h10.189V62.3h-14.47z" fill="#8f3f71"/>
    <path d="M48.554 18.893V4.424h-14.47v14.47z" fill="#cc241d"/>
    <path d="M19.616 18.893h14.469V4.424H19.616z" fill="#fe8019"/>
    <path d="M57.763 4.424c-.018-.005-.032-.012-.05-.018a21.092 21.092 0 0 0-2.11-.502c-.755-.142-1.561-.26-2.423-.356a52.792 52.792 0 0 0-2.755-.229c-.554-.032-1.278-.023-1.871-.045v1.15z" fill="#8f3f71"/>
    <path d="M63.023 7.781c-.21-.263-.405-.541-.64-.776a8.815 8.815 0 0 0-1.3-1.068c-.473-.32-.989-.606-1.55-.86a14.233 14.233 0 0 0-1.77-.653h-9.21v14.47h14.47z" fill="#fb4934"/>
    <path d="M48.554 3.274c-1.495-.055-2.963-.113-4.716-.113h-9.753v1.263h14.469z" fill="#fb4934"/>
    <path d="M34.085 3.161H23.896c-1.591 0-2.903.059-4.28.103v1.16h14.469z" fill="#fb4934"/>
    <path d="M19.616 3.264c-.743.024-1.624.015-2.308.055a52.77 52.77 0 0 0-2.754.23c-.862.095-1.669.213-2.423.355-.755.142-1.457.308-2.111.502l-.05.019h9.646z" fill="#fe8019"/>
    <path d="M9.97 4.424c-.633.191-1.225.406-1.77.653-.56.254-1.076.54-1.55.86-.473.32-.905.675-1.299 1.068-.075.075-.132.17-.204.247v11.641h14.469V4.424z" fill="#fb4934"/>
    <path d="M5.147 7.252a8.81 8.81 0 0 0-.866 1.05c-.32.473-.606.988-.86 1.547-.254.56-.477 1.165-.672 1.818s-.361 1.356-.504 2.11c-.142.753-.26 1.559-.356 2.42a52.561 52.561 0 0 0-.224 2.696h3.482z" fill="#fe8019"/>
    <path d="M43.569 13.94c-4-.011-8.066 1.118-11.273 2.792C19.719 23.295 10.942 39.77 10.942 39.77c18.588 19.352 33.32 11.412 33.32 11.412 14.238-6.65 12.459-30.268 12.459-30.268-2.972-5.057-8.009-6.96-13.152-6.975zM25.319 25.21c4.872 0 15.772.011 18.58.011 1.364 0 1.677.138 2.77.5 1.912.953 2.63 3.031 2.711 4.913.057 3.113.011 6.227.026 9.34H43.97v-8.349c0-1.754-.817-2.53-1.942-2.53s-1.943.778-1.943 2.509c-.062 2.79.015 5.58 0 8.37h-5.44v-8.407c0-1.695-.777-2.472-1.943-2.472s-1.943.853-1.943 2.366c-.087 2.836.021 5.676 0 8.514h-5.44z" fill-rule="evenodd" fill="#ebdbb2"/>
    <path transform="matrix(.13485 0 0 .13485 -4.971 31.75)" d="M361.938-212C507.235-212 528-191.287 528-46.125v116.25C528 215.286 507.235 236 361.937 236H214.063C68.766 236 48 215.286 48 70.125v-116.25C48-191.287 68.765-212 214.063-212z" clip-path="url(#c)" fill="none" opacity=".4" stroke-linecap="round" stroke-linejoin="round" stroke-width="8" stroke="url(#d)"/>
</svg>
