<svg width="256" height="256" viewBox="0 0 67.73 67.73" xmlns="http://www.w3.org/2000/svg">
    <defs>
        <linearGradient id="e" x1="296" x2="296" y1="-212" y2="236" gradientUnits="userSpaceOnUse">
            <stop offset="0" stop-color="#ebdbb2"/>
            <stop offset=".125" stop-color="#ebdbb2" stop-opacity=".098"/>
            <stop offset=".925" stop-opacity=".098"/>
            <stop offset="1" stop-opacity=".498"/>
        </linearGradient>
        <clipPath id="d">
            <path d="M361.938-212C507.235-212 528-191.287 528-46.125v116.25C528 215.286 507.235 236 361.937 236H214.063C68.766 236 48 215.286 48 70.125v-116.25C48-191.287 68.765-212 214.063-212z" fill="#b16286"/>
        </clipPath>
        <linearGradient id="c" x1="88" x2="256" y1="28" y2="284" gradientTransform="matrix(.26458 0 0 .26458 -6.993 221.973)" gradientUnits="userSpaceOnUse">
            <stop offset="0" stop-color="#ebdbb2"/>
            <stop offset="1" stop-color="#ebdbb2"/>
        </linearGradient>
        <filter id="b" x="-.01" y="-.01" width="1.023" height="1.025" color-interpolation-filters="sRGB">
            <feGaussianBlur stdDeviation="1.16"/>
        </filter>
        <filter id="a" x="-.02" y="-.03" width="1.046" height="1.05" color-interpolation-filters="sRGB">
            <feGaussianBlur stdDeviation="2.32"/>
        </filter>
        <filter id="f" x="-.05" y="-.05" width="1.096" height="1.096" color-interpolation-filters="sRGB">
            <feGaussianBlur stdDeviation=".794"/>
        </filter>
    </defs>
    <path transform="matrix(.26458 0 0 .26458 0 3.404)" d="M162.537 5.568c72.648 0 83.031 10.357 83.031 82.938v58.125c0 72.58-10.383 82.937-83.031 82.937H88.599c-72.648 0-83.031-10.357-83.031-82.937V88.506c0-72.581 10.383-82.938 83.031-82.938z" filter="url(#a)" opacity=".2"/>
    <path d="M43.005 4.348c19.221 0 21.968 2.74 21.968 21.944V41.67c0 19.204-2.747 21.944-21.968 21.944H23.442c-19.222 0-21.969-2.74-21.969-21.944V26.292c0-19.204 2.747-21.944 21.969-21.944z" fill="none" opacity=".1" stroke-linecap="round" stroke-linejoin="round" stroke-width="1.058" stroke="#282828"/>
    <path transform="matrix(.26458 0 0 .26458 0 3.404)" d="M162.537 3.568c72.648 0 83.031 10.357 83.031 82.938v58.125c0 72.58-10.383 82.937-83.031 82.937H88.599c-72.648 0-83.031-10.357-83.031-82.937V86.506c0-72.581 10.383-82.938 83.031-82.938z" filter="url(#b)" opacity=".1"/>
    <path d="M43.005 233.614c19.221 0 21.968 2.74 21.968 21.944v15.38c0 19.203-2.747 21.943-21.968 21.943H23.442c-19.222 0-21.969-2.74-21.969-21.944v-15.379c0-19.204 2.747-21.944 21.969-21.944z" fill="url(#c)" transform="translate(0 -229.267)"/>
    <path transform="matrix(.1323 0 0 .1323 -4.877 32.393)" d="M361.938-212C507.235-212 528-191.287 528-46.125v116.25C528 215.286 507.235 236 361.937 236H214.063C68.766 236 48 215.286 48 70.125v-116.25C48-191.287 68.765-212 214.063-212z" clip-path="url(#d)" fill="none" opacity=".4" stroke-linecap="round" stroke-linejoin="round" stroke-width="8" stroke="url(#e)"/>
    <path d="M23.442 63.614c-19.222 0-21.969-2.739-21.969-21.935v-7.686h63.5v7.686c0 19.196-2.747 21.935-21.968 21.935z" fill="#ebdbb2" opacity=".25"/>
    <path d="M33.223 12.857C21.541 12.857 12.1 22.3 12.1 33.981c0 11.682 9.441 21.124 21.123 21.124s21.123-9.442 21.123-21.124c0-11.682-9.44-21.124-21.123-21.124z" fill="#ebdbb2"/>
    <path transform="matrix(1.06448 0 0 1.06448 -2.142 -246.24)" d="M33.223 243.404c-10.974 0-19.844 8.87-19.844 19.844 0 10.974 8.87 19.844 19.844 19.844 10.975 0 19.844-8.87 19.844-19.844 0-10.974-8.87-19.844-19.844-19.844zm-5.753 1.878c.017-.004.028-.001.033.005.03.043-.214.318-.8.94a9.092 9.092 0 0 0-2.407 4.849c-.551 3.377 1.148 7.043 4.153 8.957 2.66 1.695 6.751 1.694 9.405-.003.985-.629 2.318-1.927 2.776-2.703.298-.503.38-.533 1.17-.427 2.575.344 4.636 1.34 6.411 3.093 1.7 1.682 2.747 3.63 3.083 5.743.114.714.104.704-.246-.226-1.469-3.909-5.73-6.392-9.79-5.707-5.587.942-8.845 6.417-7.05 11.847l.49 1.486-.392.552c-1.19 1.67-3.726 3.45-5.84 4.099-1.326.407-3.867.49-5.26.173-1.573-.357-1.723-.549-.305-.388 3.485.395 7.213-1.723 8.823-5.011 2.363-4.824-.019-10.644-5.065-12.38a12.198 12.198 0 0 0-2.152-.484c-1.084-.122-1.122-.145-1.415-.877-.502-1.256-.844-2.99-.847-4.298-.003-1.519.565-3.819 1.263-5.118.607-1.128 2.742-3.449 3.654-3.971.153-.088.257-.142.308-.152z" fill="#282828" filter="url(#f)" opacity=".61"/>
    <path d="M33.223 12.857C21.541 12.857 12.1 22.3 12.1 33.981c0 11.682 9.441 21.124 21.123 21.124s21.123-9.442 21.123-21.124c0-11.682-9.44-21.124-21.123-21.124zm-6.124 2c.018-.005.03-.002.035.004.033.047-.227.34-.851 1a9.678 9.678 0 0 0-2.562 5.163c-.587 3.595 1.222 7.498 4.42 9.535 2.832 1.804 7.187 1.803 10.011-.003 1.05-.67 2.468-2.051 2.956-2.877.316-.536.404-.568 1.245-.455 2.74.367 4.935 1.425 6.824 3.293 1.81 1.79 2.924 3.863 3.282 6.112.122.76.11.75-.262-.24-1.563-4.16-6.099-6.804-10.421-6.075-5.948 1.003-9.416 6.83-7.505 12.61l.523 1.583-.418.587c-1.266 1.778-3.967 3.673-6.217 4.364-1.411.432-4.116.522-5.6.184-1.673-.38-1.833-.585-.324-.413 3.71.42 7.678-1.834 9.392-5.334 2.515-5.136-.02-11.33-5.391-13.179a12.984 12.984 0 0 0-2.29-.514c-1.155-.131-1.195-.155-1.507-.934-.535-1.337-.899-3.184-.901-4.575-.004-1.617.6-4.065 1.344-5.449.645-1.2 2.918-3.67 3.89-4.227.162-.093.273-.15.327-.161z" fill="#282828"/>
</svg>
