<svg width="256" height="256" version="1.0" xmlns="http://www.w3.org/2000/svg" enable-background="new">
    <defs>
        <filter id="a" x="-.02" y="-.03" width="1.046" height="1.05" color-interpolation-filters="sRGB">
            <feGaussianBlur stdDeviation="2.32"/>
        </filter>
        <filter id="b" x="-.01" y="-.01" width="1.023" height="1.025" color-interpolation-filters="sRGB">
            <feGaussianBlur stdDeviation="1.16"/>
        </filter>
        <linearGradient id="d" x1="296" x2="296" y1="-212" y2="236" gradientUnits="userSpaceOnUse">
            <stop offset="0" stop-color="#ebdbb2"/>
            <stop offset=".125" stop-color="#ebdbb2" stop-opacity=".098"/>
            <stop offset=".925" stop-opacity=".098"/>
            <stop offset="1" stop-opacity=".498"/>
        </linearGradient>
        <clipPath id="c">
            <path d="M361.938-212C507.235-212 528-191.287 528-46.125v116.25C528 215.286 507.235 236 361.937 236H214.063C68.766 236 48 215.286 48 70.125v-116.25C48-191.287 68.765-212 214.063-212z" fill="#b16286"/>
        </clipPath>
        <filter id="e" x="-.01" y="-.02" width="1.019" height="1.033" color-interpolation-filters="sRGB">
            <feGaussianBlur stdDeviation=".76"/>
        </filter>
        <filter id="f" x="-.02" y="-.03" width="1.038" height="1.065" color-interpolation-filters="sRGB">
            <feGaussianBlur stdDeviation="1.52"/>
        </filter>
        <linearGradient id="g" x1="152" x2="152" y1="100" y2="212" gradientTransform="matrix(.26458 0 0 .26458 -8.202 220.573)" gradientUnits="userSpaceOnUse">
            <stop offset="0" stop-color="#ebdbb2"/>
            <stop offset="1" stop-color="#ebdbb2"/>
        </linearGradient>
    </defs>
    <path d="M162.537 62.432c72.648 0 83.031 10.357 83.031 82.937v58.125c0 72.581-10.383 82.938-83.031 82.938H88.599c-72.648 0-83.031-10.357-83.031-82.938V145.37c0-72.58 10.383-82.937 83.031-82.937z" filter="url(#a)" opacity=".2" transform="translate(0 -44)"/>
    <path d="M162.537 61.432c72.648 0 83.031 10.357 83.031 82.937v58.125c0 72.581-10.383 82.938-83.031 82.938H88.599c-72.648 0-83.031-10.357-83.031-82.938V144.37c0-72.58 10.383-82.937 83.031-82.937z" filter="url(#b)" opacity=".1" transform="translate(0 -44)"/>
    <path d="M162.537 16.432c72.648 0 83.031 10.357 83.031 82.937v58.125c0 72.581-10.383 82.938-83.031 82.938H88.599c-72.648 0-83.031-10.357-83.031-82.938V99.37c0-72.58 10.383-82.937 83.031-82.937z" fill="#282828"/>
    <path transform="matrix(.5 0 0 .5 -18.432 122.432)" d="M361.938-212C507.235-212 528-191.287 528-46.125v116.25C528 215.286 507.235 236 361.937 236H214.063C68.766 236 48 215.286 48 70.125v-116.25C48-191.287 68.765-212 214.063-212z" clip-path="url(#c)" fill="none" opacity=".4" stroke-linecap="round" stroke-linejoin="round" stroke-width="8" stroke="url(#d)"/>
    <path d="M5.568 120.432v37.062c0 36.292 2.593 57.022 14.273 68.688 11.681 11.666 32.432 14.25 68.758 14.25h73.938c36.326 0 57.077-2.584 68.758-14.25 11.68-11.666 14.273-32.396 14.273-68.688v-37.062z" fill="#ebdbb2" opacity=".05"/>
    <g>
        <path transform="matrix(1 0 0 1 25.92 69.696)" d="M12.777 1.824c-2.876.033-4.98-.07-6.701.879-.86.475-1.538 1.279-1.914 2.281-.377 1.003-.514 2.194-.514 3.697v18.286c0 1.503.137 2.694.514 3.697.376 1.002 1.053 1.8 1.914 2.275 1.72.95 3.825.852 6.7.885H26.52c2.876-.033 4.98.065 6.701-.885.86-.474 1.538-1.273 1.914-2.275.375-1.003.514-2.194.514-3.697V8.68c0-1.503-.137-2.694-.514-3.697-.376-1.002-1.053-1.806-1.914-2.281-1.72-.95-3.825-.846-6.7-.879H12.786zm40 0c-2.876.033-4.98-.07-6.701.879-.86.475-1.538 1.279-1.914 2.281-.377 1.003-.514 2.194-.514 3.697v18.286c0 1.503.137 2.694.514 3.697.376 1.002 1.053 1.8 1.914 2.275 1.72.95 3.825.852 6.7.885H66.52c2.875-.033 4.98.065 6.7-.885.861-.474 1.538-1.273 1.915-2.275.375-1.003.513-2.194.513-3.697V8.68c0-1.503-.137-2.694-.513-3.697-.377-1.002-1.054-1.806-1.914-2.281-1.721-.95-3.826-.846-6.701-.879H52.787zm40 0c-2.876.033-4.98-.07-6.701.879-.86.475-1.538 1.279-1.914 2.281-.377 1.003-.514 2.194-.514 3.697v18.286c0 1.503.137 2.694.514 3.697.376 1.002 1.053 1.8 1.914 2.275 1.72.95 3.825.852 6.7.885h13.744c2.875-.033 4.98.065 6.7-.885.861-.474 1.538-1.273 1.915-2.275.375-1.003.513-2.194.513-3.697V8.68c0-1.503-.137-2.694-.513-3.697-.377-1.002-1.054-1.806-1.914-2.281-1.721-.95-3.826-.846-6.701-.879H92.787zm40 0c-2.876.033-4.98-.07-6.701.879-.86.475-1.538 1.279-1.914 2.281-.377 1.003-.514 2.194-.514 3.697v18.286c0 1.503.137 2.694.514 3.697.376 1.002 1.053 1.8 1.914 2.275 1.72.95 3.825.852 6.7.885h13.744c2.875-.033 4.98.065 6.7-.885.861-.474 1.538-1.273 1.915-2.275.375-1.003.513-2.194.513-3.697V8.68c0-1.503-.137-2.694-.513-3.697-.377-1.002-1.054-1.806-1.914-2.281-1.721-.95-3.826-.846-6.701-.879h-13.733zm40 0c-2.876.033-4.98-.07-6.701.879-.86.475-1.538 1.279-1.914 2.281-.377 1.003-.514 2.194-.514 3.697v18.286c0 1.503.137 2.694.514 3.697.376 1.002 1.053 1.8 1.914 2.275 1.72.95 3.825.852 6.7.885h13.744c2.875-.033 4.98.065 6.7-.885.861-.474 1.538-1.273 1.915-2.275.375-1.003.513-2.194.513-3.697V8.68c0-1.503-.137-2.694-.513-3.697-.377-1.002-1.054-1.806-1.914-2.281-1.721-.95-3.826-.846-6.701-.879h-13.733zm-144 40c-2.876.033-4.98-.07-6.701.879-.86.475-1.538 1.279-1.914 2.281-.377 1.003-.514 2.194-.514 3.697v18.286c0 1.503.137 2.694.514 3.697.376 1.002 1.053 1.8 1.914 2.275 1.72.95 3.825.852 6.7.885H42.52c2.876-.033 4.98.065 6.701-.885.86-.474 1.538-1.273 1.914-2.275.375-1.003.514-2.194.514-3.697V48.68c0-1.503-.137-2.694-.514-3.697-.376-1.002-1.053-1.806-1.914-2.281-1.72-.95-3.825-.846-6.7-.879H28.786zm40 0c-2.876.033-4.98-.07-6.701.879-.86.475-1.538 1.279-1.914 2.281-.377 1.003-.514 2.194-.514 3.697v18.286c0 1.503.137 2.694.514 3.697.376 1.002 1.053 1.8 1.914 2.275 1.72.95 3.825.852 6.7.885H82.52c2.875-.033 4.98.065 6.7-.885.861-.474 1.538-1.273 1.915-2.275.375-1.003.513-2.194.513-3.697V48.68c0-1.503-.137-2.694-.513-3.697-.377-1.002-1.054-1.806-1.914-2.281-1.72-.95-3.826-.846-6.701-.879H68.787zm40 0c-2.876.033-4.98-.07-6.701.879-.86.475-1.538 1.279-1.914 2.281-.377 1.003-.514 2.194-.514 3.697v18.286c0 1.503.137 2.694.514 3.697.376 1.002 1.053 1.8 1.914 2.275 1.72.95 3.825.852 6.7.885h13.744c2.875-.033 4.98.065 6.7-.885.861-.474 1.538-1.273 1.915-2.275.375-1.003.513-2.194.513-3.697V48.68c0-1.503-.137-2.694-.513-3.697-.377-1.002-1.054-1.806-1.914-2.281-1.72-.95-3.826-.846-6.701-.879h-13.733zm40 0c-2.876.033-4.98-.07-6.701.879-.86.475-1.538 1.279-1.914 2.281-.377 1.003-.514 2.194-.514 3.697v18.286c0 1.503.137 2.694.514 3.697.376 1.002 1.053 1.8 1.914 2.275 1.72.95 3.825.852 6.7.885h13.744c2.875-.033 4.98.065 6.7-.885.861-.474 1.538-1.273 1.915-2.275.375-1.003.513-2.194.513-3.697V48.68c0-1.503-.137-2.694-.513-3.697-.377-1.002-1.054-1.806-1.914-2.281-1.72-.95-3.826-.846-6.701-.879h-13.733zm-136 40c-2.876.033-4.98-.07-6.701.879-.86.475-1.538 1.279-1.914 2.281-.377 1.003-.514 2.194-.514 3.697v18.286c0 1.503.137 2.694.514 3.697.376 1.002 1.053 1.8 1.914 2.275 1.72.95 3.825.852 6.7.885H26.52c2.876-.033 4.98.065 6.701-.885.86-.474 1.538-1.273 1.914-2.275.375-1.003.514-2.194.514-3.697V88.68c0-1.503-.137-2.694-.514-3.697-.376-1.002-1.053-1.806-1.914-2.281-1.72-.95-3.825-.846-6.7-.879H12.786zm40 0c-2.876.033-4.98-.07-6.701.879-.86.475-1.538 1.279-1.914 2.281-.377 1.003-.514 2.194-.514 3.697v18.286c0 1.503.137 2.694.514 3.697.376 1.002 1.053 1.8 1.914 2.275 1.72.95 3.825.852 6.7.885h93.744c2.875-.033 4.98.065 6.7-.885.861-.474 1.538-1.273 1.915-2.275.375-1.003.514-2.194.514-3.697V88.68c0-1.503-.138-2.694-.514-3.697-.377-1.002-1.054-1.806-1.914-2.281-1.72-.95-3.826-.846-6.701-.879H52.787zm120 0c-2.876.033-4.98-.07-6.701.879-.86.475-1.538 1.279-1.914 2.281-.377 1.003-.514 2.194-.514 3.697v18.286c0 1.503.137 2.694.514 3.697.376 1.002 1.053 1.8 1.914 2.275 1.72.95 3.825.852 6.7.885h13.744c2.875-.033 4.98.065 6.7-.885.861-.474 1.538-1.273 1.915-2.275.375-1.003.513-2.194.513-3.697V88.68c0-1.503-.137-2.694-.513-3.697-.377-1.002-1.054-1.806-1.914-2.281-1.72-.95-3.826-.846-6.701-.879h-13.733z" filter="url(#e)" opacity=".1"/>
        <path transform="matrix(1 0 0 1 25.92 69.696)" d="M12.777 3.824c-2.876.033-4.98-.07-6.701.879-.86.475-1.538 1.279-1.914 2.281-.377 1.003-.514 2.194-.514 3.697v18.286c0 1.503.137 2.694.514 3.697.376 1.002 1.053 1.8 1.914 2.275 1.72.95 3.825.852 6.7.885H26.52c2.876-.033 4.98.065 6.701-.885.86-.474 1.538-1.273 1.914-2.275.375-1.003.514-2.194.514-3.697V10.68c0-1.503-.137-2.694-.514-3.697-.376-1.002-1.053-1.806-1.914-2.281-1.72-.95-3.825-.846-6.7-.879H12.786zm40 0c-2.876.033-4.98-.07-6.701.879-.86.475-1.538 1.279-1.914 2.281-.377 1.003-.514 2.194-.514 3.697v18.286c0 1.503.137 2.694.514 3.697.376 1.002 1.053 1.8 1.914 2.275 1.72.95 3.825.852 6.7.885H66.52c2.875-.033 4.98.065 6.7-.885.861-.474 1.538-1.273 1.915-2.275.375-1.003.513-2.194.513-3.697V10.68c0-1.503-.137-2.694-.513-3.697-.377-1.002-1.054-1.806-1.914-2.281-1.721-.95-3.826-.846-6.701-.879H52.787zm40 0c-2.876.033-4.98-.07-6.701.879-.86.475-1.538 1.279-1.914 2.281-.377 1.003-.514 2.194-.514 3.697v18.286c0 1.503.137 2.694.514 3.697.376 1.002 1.053 1.8 1.914 2.275 1.72.95 3.825.852 6.7.885h13.744c2.875-.033 4.98.065 6.7-.885.861-.474 1.538-1.273 1.915-2.275.375-1.003.513-2.194.513-3.697V10.68c0-1.503-.137-2.694-.513-3.697-.377-1.002-1.054-1.806-1.914-2.281-1.721-.95-3.826-.846-6.701-.879H92.787zm40 0c-2.876.033-4.98-.07-6.701.879-.86.475-1.538 1.279-1.914 2.281-.377 1.003-.514 2.194-.514 3.697v18.286c0 1.503.137 2.694.514 3.697.376 1.002 1.053 1.8 1.914 2.275 1.72.95 3.825.852 6.7.885h13.744c2.875-.033 4.98.065 6.7-.885.861-.474 1.538-1.273 1.915-2.275.375-1.003.513-2.194.513-3.697V10.68c0-1.503-.137-2.694-.513-3.697-.377-1.002-1.054-1.806-1.914-2.281-1.721-.95-3.826-.846-6.701-.879h-13.733zm40 0c-2.876.033-4.98-.07-6.701.879-.86.475-1.538 1.279-1.914 2.281-.377 1.003-.514 2.194-.514 3.697v18.286c0 1.503.137 2.694.514 3.697.376 1.002 1.053 1.8 1.914 2.275 1.72.95 3.825.852 6.7.885h13.744c2.875-.033 4.98.065 6.7-.885.861-.474 1.538-1.273 1.915-2.275.375-1.003.513-2.194.513-3.697V10.68c0-1.503-.137-2.694-.513-3.697-.377-1.002-1.054-1.806-1.914-2.281-1.721-.95-3.826-.846-6.701-.879h-13.733zm-144 40c-2.876.033-4.98-.07-6.701.879-.86.475-1.538 1.279-1.914 2.281-.377 1.003-.514 2.194-.514 3.697v18.286c0 1.503.137 2.694.514 3.697.376 1.002 1.053 1.8 1.914 2.275 1.72.95 3.825.852 6.7.885H42.52c2.876-.033 4.98.065 6.701-.885.86-.474 1.538-1.273 1.914-2.275.375-1.003.514-2.194.514-3.697V50.68c0-1.503-.137-2.694-.514-3.697-.376-1.002-1.053-1.806-1.914-2.281-1.72-.95-3.825-.846-6.7-.879H28.786zm40 0c-2.876.033-4.98-.07-6.701.879-.86.475-1.538 1.279-1.914 2.281-.377 1.003-.514 2.194-.514 3.697v18.286c0 1.503.137 2.694.514 3.697.376 1.002 1.053 1.8 1.914 2.275 1.72.95 3.825.852 6.7.885H82.52c2.875-.033 4.98.065 6.7-.885.861-.474 1.538-1.273 1.915-2.275.375-1.003.513-2.194.513-3.697V50.68c0-1.503-.137-2.694-.513-3.697-.377-1.002-1.054-1.806-1.914-2.281-1.72-.95-3.826-.846-6.701-.879H68.787zm40 0c-2.876.033-4.98-.07-6.701.879-.86.475-1.538 1.279-1.914 2.281-.377 1.003-.514 2.194-.514 3.697v18.286c0 1.503.137 2.694.514 3.697.376 1.002 1.053 1.8 1.914 2.275 1.72.95 3.825.852 6.7.885h13.744c2.875-.033 4.98.065 6.7-.885.861-.474 1.538-1.273 1.915-2.275.375-1.003.513-2.194.513-3.697V50.68c0-1.503-.137-2.694-.513-3.697-.377-1.002-1.054-1.806-1.914-2.281-1.72-.95-3.826-.846-6.701-.879h-13.733zm40 0c-2.876.033-4.98-.07-6.701.879-.86.475-1.538 1.279-1.914 2.281-.377 1.003-.514 2.194-.514 3.697v18.286c0 1.503.137 2.694.514 3.697.376 1.002 1.053 1.8 1.914 2.275 1.72.95 3.825.852 6.7.885h13.744c2.875-.033 4.98.065 6.7-.885.861-.474 1.538-1.273 1.915-2.275.375-1.003.513-2.194.513-3.697V50.68c0-1.503-.137-2.694-.513-3.697-.377-1.002-1.054-1.806-1.914-2.281-1.72-.95-3.826-.846-6.701-.879h-13.733zm-136 40c-2.876.033-4.98-.07-6.701.879-.86.475-1.538 1.279-1.914 2.281-.377 1.003-.514 2.194-.514 3.697v18.286c0 1.503.137 2.694.514 3.697.376 1.002 1.053 1.8 1.914 2.275 1.72.95 3.825.852 6.7.885H26.52c2.876-.033 4.98.065 6.701-.885.86-.474 1.538-1.273 1.914-2.275.375-1.003.514-2.194.514-3.697V90.68c0-1.503-.137-2.694-.514-3.697-.376-1.002-1.053-1.806-1.914-2.281-1.72-.95-3.825-.846-6.7-.879H12.786zm40 0c-2.876.033-4.98-.07-6.701.879-.86.475-1.538 1.279-1.914 2.281-.377 1.003-.514 2.194-.514 3.697v18.286c0 1.503.137 2.694.514 3.697.376 1.002 1.053 1.8 1.914 2.275 1.72.95 3.825.852 6.7.885h93.744c2.875-.033 4.98.065 6.7-.885.861-.474 1.538-1.273 1.915-2.275.375-1.003.514-2.194.514-3.697V90.68c0-1.503-.138-2.694-.514-3.697-.377-1.002-1.054-1.806-1.914-2.281-1.72-.95-3.826-.846-6.701-.879H52.787zm120 0c-2.876.033-4.98-.07-6.701.879-.86.475-1.538 1.279-1.914 2.281-.377 1.003-.514 2.194-.514 3.697v18.286c0 1.503.137 2.694.514 3.697.376 1.002 1.053 1.8 1.914 2.275 1.72.95 3.825.852 6.7.885h13.744c2.875-.033 4.98.065 6.7-.885.861-.474 1.538-1.273 1.915-2.275.375-1.003.513-2.194.513-3.697V90.68c0-1.503-.137-2.694-.513-3.697-.377-1.002-1.054-1.806-1.914-2.281-1.72-.95-3.826-.846-6.701-.879h-13.733z" filter="url(#f)" opacity=".1"/>
        <path d="M9.03 247.031c-.761.01-1.318-.018-1.773.233a1.136 1.136 0 0 0-.507.604c-.1.265-.135.58-.135.978v4.838c0 .397.036.713.135.978.1.265.28.476.507.602.455.251 1.012.225 1.773.234h3.636c.76-.009 1.318.017 1.773-.234.228-.126.407-.337.506-.602.1-.265.136-.58.136-.978v-4.838c0-.398-.036-.713-.136-.978a1.136 1.136 0 0 0-.506-.604c-.455-.251-1.012-.224-1.773-.233H9.033zm10.583 0c-.76.01-1.317-.018-1.773.233a1.136 1.136 0 0 0-.506.604c-.1.265-.136.58-.136.978v4.838c0 .397.036.713.136.978s.279.476.506.602c.456.251 1.012.225 1.773.234h3.636c.761-.009 1.318.017 1.773-.234.228-.126.407-.337.507-.602.099-.265.136-.58.136-.978v-4.838c0-.398-.037-.713-.136-.978a1.136 1.136 0 0 0-.507-.604c-.455-.251-1.012-.224-1.773-.233h-3.633zm10.584 0c-.761.01-1.318-.018-1.773.233a1.136 1.136 0 0 0-.507.604c-.1.265-.136.58-.136.978v4.838c0 .397.037.713.136.978.1.265.279.476.507.602.455.251 1.012.225 1.773.234h3.636c.76-.009 1.317.017 1.773-.234.227-.126.406-.337.506-.602.1-.265.136-.58.136-.978v-4.838c0-.398-.036-.713-.136-.978a1.136 1.136 0 0 0-.506-.604c-.456-.251-1.013-.224-1.773-.233h-3.634zm10.583 0c-.761.01-1.318-.018-1.773.233a1.136 1.136 0 0 0-.507.604c-.1.265-.135.58-.135.978v4.838c0 .397.036.713.135.978.1.265.28.476.507.602.455.251 1.012.225 1.773.234h3.636c.76-.009 1.318.017 1.773-.234.228-.126.407-.337.506-.602.1-.265.136-.58.136-.978v-4.838c0-.398-.036-.713-.136-.978a1.136 1.136 0 0 0-.506-.604c-.455-.251-1.012-.224-1.773-.233h-3.633zm10.583 0c-.76.01-1.317-.018-1.773.233a1.136 1.136 0 0 0-.506.604c-.1.265-.136.58-.136.978v4.838c0 .397.036.713.136.978s.279.476.506.602c.456.251 1.012.225 1.773.234H55c.761-.009 1.318.017 1.773-.234.228-.126.407-.337.507-.602.099-.265.136-.58.136-.978v-4.838c0-.398-.037-.713-.136-.978a1.136 1.136 0 0 0-.507-.604c-.455-.251-1.012-.224-1.773-.233h-3.633zm-38.1 10.584c-.76.009-1.317-.019-1.773.232a1.136 1.136 0 0 0-.506.604c-.1.265-.136.58-.136.978v4.838c0 .398.036.713.136.978.1.266.279.477.506.602.456.252 1.012.226 1.773.234H16.9c.761-.009 1.318.018 1.773-.234.228-.125.407-.336.507-.602.099-.265.136-.58.136-.978v-4.838c0-.398-.037-.713-.136-.978a1.136 1.136 0 0 0-.507-.604c-.455-.25-1.012-.223-1.773-.232h-3.633zm10.584 0c-.761.009-1.318-.019-1.773.232a1.136 1.136 0 0 0-.507.604c-.1.265-.136.58-.136.978v4.838c0 .398.037.713.136.978.1.266.279.477.507.602.455.252 1.012.226 1.773.234h3.636c.76-.009 1.317.018 1.773-.234.227-.125.406-.336.506-.602.1-.265.136-.58.136-.978v-4.838c0-.398-.036-.713-.136-.978a1.136 1.136 0 0 0-.506-.604c-.456-.25-1.012-.223-1.773-.232h-3.634zm10.583 0c-.761.009-1.318-.019-1.773.232a1.136 1.136 0 0 0-.507.604c-.1.265-.135.58-.135.978v4.838c0 .398.036.713.135.978.1.266.28.477.507.602.455.252 1.012.226 1.773.234h3.636c.76-.009 1.318.018 1.773-.234.228-.125.407-.336.506-.602.1-.265.136-.58.136-.978v-4.838c0-.398-.036-.713-.136-.978a1.136 1.136 0 0 0-.506-.604c-.455-.25-1.012-.223-1.773-.232h-3.633zm10.583 0c-.76.009-1.317-.019-1.773.232a1.136 1.136 0 0 0-.506.604c-.1.265-.136.58-.136.978v4.838c0 .398.036.713.136.978.1.266.279.477.506.602.456.252 1.012.226 1.773.234h3.636c.761-.009 1.318.018 1.773-.234.228-.125.407-.336.507-.602.099-.265.136-.58.136-.978v-4.838c0-.398-.037-.713-.136-.978a1.136 1.136 0 0 0-.507-.604c-.455-.25-1.012-.223-1.773-.232h-3.633zM9.03 268.198c-.761.01-1.318-.019-1.773.233a1.136 1.136 0 0 0-.507.603c-.1.266-.135.58-.135.978v4.838c0 .398.036.713.135.979.1.265.28.476.507.602.455.25 1.012.225 1.773.234h3.636c.76-.01 1.318.017 1.773-.234.228-.126.407-.337.506-.602.1-.266.136-.58.136-.979v-4.838c0-.397-.036-.712-.136-.978a1.136 1.136 0 0 0-.506-.603c-.455-.252-1.012-.224-1.773-.233H9.033zm10.583 0c-.76.01-1.317-.019-1.773.233a1.136 1.136 0 0 0-.506.603c-.1.266-.136.58-.136.978v4.838c0 .398.036.713.136.979.1.265.279.476.506.602.456.25 1.012.225 1.773.234h24.803c.76-.01 1.318.017 1.773-.234.228-.126.407-.337.506-.602.1-.266.136-.58.136-.979v-4.838c0-.397-.036-.712-.136-.978a1.136 1.136 0 0 0-.506-.603c-.455-.252-1.012-.224-1.773-.233h-24.8zm31.75 0c-.76.01-1.317-.019-1.773.233a1.136 1.136 0 0 0-.506.603c-.1.266-.136.58-.136.978v4.838c0 .398.036.713.136.979.1.265.279.476.506.602.456.25 1.012.225 1.773.234H55c.761-.01 1.318.017 1.773-.234.228-.126.407-.337.507-.602.099-.266.136-.58.136-.979v-4.838c0-.397-.037-.712-.136-.978a1.136 1.136 0 0 0-.507-.603c-.455-.252-1.012-.224-1.773-.233h-3.633z" fill="url(#g)" transform="matrix(3.77953 0 0 3.77953 4.568 -862.142)"/>
        <path d="M38.697 71.52c-2.876.034-4.98-.07-6.702.879-.86.475-1.537 1.279-1.914 2.281-.376 1.003-.513 2.194-.513 3.697v2c0-1.503.137-2.694.513-3.697.377-1.002 1.054-1.806 1.914-2.281 1.721-.95 3.826-.846 6.702-.879h13.742c2.876.034 4.98-.07 6.701.879.86.475 1.538 1.279 1.914 2.281.376 1.003.514 2.194.514 3.697v-2c0-1.503-.138-2.694-.514-3.697-.376-1.002-1.054-1.806-1.914-2.281-1.72-.95-3.825-.846-6.701-.879H38.706zm40 0c-2.876.034-4.98-.07-6.702.879-.86.475-1.537 1.279-1.914 2.281-.376 1.003-.513 2.194-.513 3.697v2c0-1.503.137-2.694.513-3.697.377-1.002 1.054-1.806 1.914-2.281 1.721-.95 3.826-.846 6.702-.879h13.742c2.876.034 4.98-.07 6.701.879.86.475 1.538 1.279 1.914 2.281.376 1.003.514 2.194.514 3.697v-2c0-1.503-.138-2.694-.514-3.697-.376-1.002-1.053-1.806-1.914-2.281-1.72-.95-3.825-.846-6.701-.879H78.707zm40 0c-2.876.034-4.98-.07-6.702.879-.86.475-1.537 1.279-1.914 2.281-.376 1.003-.513 2.194-.513 3.697v2c0-1.503.137-2.694.513-3.697.377-1.002 1.054-1.806 1.914-2.281 1.721-.95 3.826-.846 6.702-.879h13.742c2.876.034 4.98-.07 6.701.879.86.475 1.538 1.279 1.914 2.281.376 1.003.514 2.194.514 3.697v-2c0-1.503-.138-2.694-.514-3.697-.376-1.002-1.053-1.806-1.914-2.281-1.72-.95-3.825-.846-6.701-.879h-13.733zm40 0c-2.876.034-4.98-.07-6.702.879-.86.475-1.537 1.279-1.914 2.281-.376 1.003-.513 2.194-.513 3.697v2c0-1.503.137-2.694.513-3.697.377-1.002 1.054-1.806 1.914-2.281 1.721-.95 3.826-.846 6.702-.879h13.742c2.876.034 4.98-.07 6.701.879.86.475 1.538 1.279 1.914 2.281.376 1.003.514 2.194.514 3.697v-2c0-1.503-.138-2.694-.514-3.697-.376-1.002-1.053-1.806-1.914-2.281-1.72-.95-3.825-.846-6.701-.879h-13.732zm40 0c-2.876.034-4.98-.07-6.702.879-.86.475-1.537 1.279-1.914 2.281-.376 1.003-.513 2.194-.513 3.697v2c0-1.503.137-2.694.513-3.697.377-1.002 1.054-1.806 1.914-2.281 1.721-.95 3.826-.846 6.702-.879h13.742c2.876.034 4.98-.07 6.701.879.86.475 1.538 1.279 1.914 2.281.376 1.003.514 2.194.514 3.697v-2c0-1.503-.138-2.694-.514-3.697-.376-1.002-1.053-1.806-1.914-2.281-1.72-.95-3.825-.846-6.701-.879h-13.733zm-144 40c-2.876.034-4.98-.07-6.702.879-.86.475-1.537 1.279-1.914 2.281-.376 1.003-.513 2.194-.513 3.697v2c0-1.503.137-2.694.513-3.697.377-1.002 1.054-1.806 1.914-2.281 1.721-.95 3.826-.846 6.702-.879h13.742c2.876.034 4.98-.07 6.701.879.86.475 1.538 1.279 1.914 2.281.376 1.003.514 2.194.514 3.697v-2c0-1.503-.138-2.694-.514-3.697-.376-1.002-1.053-1.806-1.914-2.281-1.72-.95-3.825-.846-6.701-.879H54.706zm40 0c-2.876.034-4.98-.07-6.702.879-.86.475-1.537 1.279-1.914 2.281-.376 1.003-.513 2.194-.513 3.697v2c0-1.503.137-2.694.513-3.697.377-1.002 1.054-1.806 1.914-2.281 1.721-.95 3.826-.846 6.702-.879h13.742c2.876.034 4.98-.07 6.701.879.86.475 1.538 1.279 1.914 2.281.376 1.003.514 2.194.514 3.697v-2c0-1.503-.138-2.694-.514-3.697-.376-1.002-1.053-1.806-1.914-2.281-1.72-.95-3.825-.846-6.701-.879H94.706zm40 0c-2.876.034-4.98-.07-6.702.879-.86.475-1.537 1.279-1.914 2.281-.376 1.003-.513 2.194-.513 3.697v2c0-1.503.137-2.694.513-3.697.377-1.002 1.054-1.806 1.914-2.281 1.721-.95 3.826-.846 6.702-.879h13.742c2.876.034 4.98-.07 6.701.879.86.475 1.538 1.279 1.914 2.281.376 1.003.514 2.194.514 3.697v-2c0-1.503-.138-2.694-.514-3.697-.376-1.002-1.053-1.806-1.914-2.281-1.72-.95-3.825-.846-6.701-.879h-13.732zm40 0c-2.876.034-4.98-.07-6.702.879-.86.475-1.537 1.279-1.914 2.281-.376 1.003-.513 2.194-.513 3.697v2c0-1.503.137-2.694.513-3.697.377-1.002 1.054-1.806 1.914-2.281 1.721-.95 3.826-.846 6.702-.879h13.742c2.876.034 4.98-.07 6.701.879.86.475 1.538 1.279 1.914 2.281.376 1.003.514 2.194.514 3.697v-2c0-1.503-.138-2.694-.514-3.697-.376-1.002-1.053-1.806-1.914-2.281-1.72-.95-3.825-.846-6.701-.879h-13.733zm-136 40c-2.876.034-4.98-.07-6.702.879-.86.475-1.537 1.279-1.914 2.281-.376 1.003-.513 2.194-.513 3.697v2c0-1.503.137-2.694.513-3.697.377-1.002 1.054-1.806 1.914-2.281 1.721-.95 3.826-.846 6.702-.879h13.742c2.876.034 4.98-.07 6.701.879.86.475 1.538 1.279 1.914 2.281.376 1.003.514 2.194.514 3.697v-2c0-1.503-.138-2.694-.514-3.697-.376-1.002-1.054-1.806-1.914-2.281-1.72-.95-3.825-.846-6.701-.879H38.706zm40 0c-2.876.034-4.98-.07-6.702.879-.86.475-1.537 1.279-1.914 2.281-.376 1.003-.513 2.194-.513 3.697v2c0-1.503.137-2.694.513-3.697.377-1.002 1.054-1.806 1.914-2.281 1.721-.95 3.826-.846 6.702-.879h93.742c2.876.034 4.98-.07 6.701.879.86.475 1.538 1.279 1.914 2.281.376 1.003.514 2.194.514 3.697v-2c0-1.503-.138-2.694-.514-3.697-.376-1.002-1.053-1.806-1.914-2.281-1.72-.95-3.825-.846-6.701-.879H78.706zm120 0c-2.876.034-4.98-.07-6.702.879-.86.475-1.537 1.279-1.914 2.281-.376 1.003-.513 2.194-.513 3.697v2c0-1.503.137-2.694.513-3.697.377-1.002 1.054-1.806 1.914-2.281 1.721-.95 3.826-.846 6.702-.879h13.742c2.876.034 4.98-.07 6.701.879.86.475 1.538 1.279 1.914 2.281.376 1.003.514 2.194.514 3.697v-2c0-1.503-.138-2.694-.514-3.697-.376-1.002-1.053-1.806-1.914-2.281-1.72-.95-3.825-.846-6.701-.879h-13.733z" fill="#ebdbb2" opacity=".4"/>
        <g opacity=".9" font-size="40" letter-spacing="0" text-anchor="middle" word-spacing="0">
            <text x="71.3" y="120.86" style="line-height:1000%;text-align:center" transform="matrix(1 0 0 1 -26.432 -28.48)">
                <tspan x="71.3" y="120.86" style="text-align:center" font-family="Ubuntu" font-size="16">Q</tspan>
            </text>
            <text x="111.3" y="120.86" style="line-height:1000%;text-align:center" transform="matrix(1 0 0 1 -26.432 -28.48)">
                <tspan x="111.3" y="120.86" style="text-align:center" font-family="Ubuntu" font-size="16">W</tspan>
            </text>
            <text x="151.3" y="120.86" style="line-height:1000%;text-align:center" transform="matrix(1 0 0 1 -26.432 -28.48)">
                <tspan x="151.3" y="120.86" style="text-align:center" font-family="Ubuntu" font-size="16">E</tspan>
            </text>
            <text x="191.3" y="120.86" style="line-height:1000%;text-align:center" transform="matrix(1 0 0 1 -26.432 -28.48)">
                <tspan x="191.3" y="120.86" style="text-align:center" font-family="Ubuntu" font-size="16">R</tspan>
            </text>
            <text x="231.3" y="120.86" style="line-height:1000%;text-align:center" transform="matrix(1 0 0 1 -26.432 -28.48)">
                <tspan x="231.3" y="120.86" style="text-align:center" font-family="Ubuntu" font-size="16">T</tspan>
            </text>
            <text x="87.3" y="160.86" style="line-height:1000%;text-align:center" transform="matrix(1 0 0 1 -26.432 -28.48)">
                <tspan x="87.3" y="160.86" style="text-align:center" font-family="Ubuntu" font-size="16">A</tspan>
            </text>
            <text x="127.3" y="160.86" style="line-height:1000%;text-align:center" transform="matrix(1 0 0 1 -26.432 -28.48)">
                <tspan x="127.3" y="160.86" style="text-align:center" font-family="Ubuntu" font-size="16">S</tspan>
            </text>
            <text x="167.3" y="160.86" style="line-height:1000%;text-align:center" transform="matrix(1 0 0 1 -26.432 -28.48)">
                <tspan x="167.3" y="160.86" style="text-align:center" font-family="Ubuntu" font-size="16">D</tspan>
            </text>
            <text x="207.3" y="160.86" style="line-height:1000%;text-align:center" transform="matrix(1 0 0 1 -26.432 -28.48)">
                <tspan x="207.3" y="160.86" style="text-align:center" font-family="Ubuntu" font-size="16">F</tspan>
            </text>
            <text x="71.3" y="200.86" style="line-height:1000%;text-align:center" transform="matrix(1 0 0 1 -26.432 -28.48)">
                <tspan x="71.3" y="200.86" style="text-align:center" font-family="Ubuntu" font-size="16">.</tspan>
            </text>
            <text x="231.3" y="200.86" style="line-height:1000%;text-align:center" transform="matrix(1 0 0 1 -26.432 -28.48)">
                <tspan x="231.3" y="200.86" style="text-align:center" font-family="Ubuntu" font-size="16">/</tspan>
            </text>
        </g>
    </g>
</svg>
