<svg width="256" height="256" viewBox="0 0 67.73 67.73" xmlns="http://www.w3.org/2000/svg">
    <defs>
        <filter id="b" x="-.02" y="-.03" width="1.046" height="1.05" color-interpolation-filters="sRGB">
            <feGaussianBlur stdDeviation="2.32"/>
        </filter>
        <filter id="a" x="-.01" y="-.01" width="1.023" height="1.025" color-interpolation-filters="sRGB">
            <feGaussianBlur stdDeviation="1.16"/>
        </filter>
        <linearGradient id="d" x1="296" x2="296" y1="-212" y2="236" gradientUnits="userSpaceOnUse">
            <stop offset="0" stop-color="#ebdbb2"/>
            <stop offset=".125" stop-color="#ebdbb2" stop-opacity=".098"/>
            <stop offset=".925" stop-opacity=".098"/>
            <stop offset="1" stop-opacity=".498"/>
        </linearGradient>
        <clipPath id="c">
            <path d="M361.938-212C507.235-212 528-191.287 528-46.125v116.25C528 215.286 507.235 236 361.937 236H214.063C68.766 236 48 215.286 48 70.125v-116.25C48-191.287 68.765-212 214.063-212z" fill="#b16286"/>
        </clipPath>
        <filter id="e" x="-.05" y="-.05" width="1.093" height="1.099" color-interpolation-filters="sRGB">
            <feGaussianBlur stdDeviation="1.023"/>
        </filter>
        <filter id="f" x="-.07" y="-.04" width="1.142" height="1.073" color-interpolation-filters="sRGB">
            <feGaussianBlur stdDeviation=".54"/>
        </filter>
    </defs>
    <path d="M43.837 3.161c19.594 0 22.395 2.793 22.395 22.369v15.677c0 19.575-2.8 22.369-22.395 22.369H23.896c-19.594 0-22.394-2.794-22.394-22.37V25.53c0-19.576 2.8-22.369 22.394-22.369z" fill="none" opacity=".115" stroke-linecap="round" stroke-linejoin="round" stroke-width="1.079" stroke="#282828"/>
    <path transform="matrix(.2697 0 0 .2697 -7.129 -8.706)" d="M188.969 44C261.617 44 272 54.357 272 126.938v58.124C272 257.644 261.617 268 188.969 268H115.03C42.383 268 32 257.643 32 185.062v-58.125C32 54.358 42.383 44 115.031 44z" filter="url(#a)" opacity=".1"/>
    <path transform="matrix(.2697 0 0 .2697 -7.129 -8.706)" d="M188.969 46C261.617 46 272 56.357 272 128.938v58.125c0 72.58-10.383 82.937-83.031 82.937H115.03C42.383 270 32 259.643 32 187.062v-58.125C32 56.358 42.383 46 115.031 46z" filter="url(#b)" opacity=".2"/>
    <path d="M43.837 3.161c19.594 0 22.395 2.793 22.395 22.369v15.677c0 19.575-2.8 22.369-22.395 22.369H23.896c-19.594 0-22.394-2.794-22.394-22.37V25.53c0-19.576 2.8-22.369 22.394-22.369z" fill="#427b58"/>
    <path d="M.953 33.295v7.966c0 19.893 2.846 22.731 22.76 22.731h20.27c19.914 0 22.76-2.838 22.76-22.731v-7.966z" fill="#ebdbb2" opacity=".25"/>
    <path d="M34.34 63.992h9.642c2.49 0 4.712-.044 6.696-.16a53.654 53.654 0 0 0 2.8-.233 33.403 33.403 0 0 0 2.462-.36 21.44 21.44 0 0 0 2.146-.512 14.48 14.48 0 0 0 1.85-.682 10.65 10.65 0 0 0 1.574-.873 8.96 8.96 0 0 0 1.32-1.086c.4-.4.762-.838 1.088-1.318.326-.481.616-1.004.875-1.573s.484-1.183.682-1.847c.198-.664.368-1.377.512-2.143a33.25 33.25 0 0 0 .362-2.46c.098-.874.175-1.805.233-2.796.117-1.981.161-4.201.161-6.688V25.33c0-2.487-.044-4.707-.161-6.688a53.448 53.448 0 0 0-.233-2.797 33.251 33.251 0 0 0-.362-2.459 21.366 21.366 0 0 0-.512-2.143 14.433 14.433 0 0 0-.682-1.848 10.623 10.623 0 0 0-.875-1.572 8.953 8.953 0 0 0-1.087-1.318c-.4-.4-.84-.76-1.32-1.086a10.65 10.65 0 0 0-1.575-.873 14.48 14.48 0 0 0-1.85-.682 21.44 21.44 0 0 0-2.146-.511 33.382 33.382 0 0 0-2.462-.362 53.654 53.654 0 0 0-2.8-.232c-1.984-.116-4.206-.16-6.696-.16H34.34z" fill="#ebdbb2" opacity=".25"/>
    <path transform="matrix(.13485 0 0 .13485 -4.971 31.75)" d="M361.938-212C507.235-212 528-191.287 528-46.125v116.25C528 215.286 507.235 236 361.937 236H214.063C68.766 236 48 215.286 48 70.125v-116.25C48-191.287 68.765-212 214.063-212z" clip-path="url(#c)" fill="none" opacity=".6" stroke-linecap="round" stroke-linejoin="round" stroke-width="8" stroke="url(#d)"/>
    <path d="M42.018 237.94c16.018 0 18.307 2.284 18.307 18.287v12.816c0 16.003-2.29 18.286-18.307 18.286H25.716c-16.018 0-18.308-2.283-18.308-18.286v-12.816c0-16.003 2.29-18.287 18.308-18.287z" fill="#282828" filter="url(#e)" opacity=".4" transform="translate(0 -229.267)"/>
    <path d="M42.018 8.674c16.018 0 18.307 2.283 18.307 18.286v12.816c0 16.003-2.29 18.287-18.307 18.287H25.716c-16.018 0-18.308-2.284-18.308-18.287V26.96c0-16.003 2.29-18.286 18.308-18.286z" fill="#fe8019"/>
    <g transform="matrix(1.08476 0 0 1.1204 -1.411 -1.91)" filter="url(#f)" opacity=".3">
        <path d="M33.538 42.31c1.437-.126 2.215-.688 2.965-1.387.763-.7 1.1-1.34 1.1-2.548 0-1.094-.33-2.335-1.081-3.098s-1.535-1.428-2.984-1.822zm-2.033-21.647c-1.31.09-2.518.625-3.243 1.3-.724.66-.822 1.517-.822 2.636 0 1.018.066 1.897.727 2.57.674.675 1.914.946 3.338 1.366zm-8.13 21.648v-4.92h2.032c.051 1.742.63 2.49 1.596 3.38.967.89 2.595 1.502 4.502 1.54v-8.856c-2.925-.814-5.17-2.292-6.352-3.348-1.183-1.068-1.778-2.48-1.778-4.235 0-2.034.704-3.668 2.102-4.902 1.4-1.233 3.536-2.122 6.028-2.275v-4.92h2.033v4.92c1.284.102 2.202.508 3.385.825 1.195.306 2.597.72 3.729 1.24v4.823h-2.033c-.153-1.475-.952-2.464-1.83-3.316-.877-.852-1.75-1.49-3.251-1.604v8.856c3.128.852 5 1.752 6.246 2.858 1.259 1.094 1.884 2.186 1.884 4.03 0 2.11-.733 4.179-2.208 5.45s-3.24 2.23-5.922 2.422v4.92h-2.033v-4.92c-1.22-.026-2.677-.431-3.987-.762-1.31-.318-2.719-.57-4.143-1.206z"/>
    </g>
    <path d="M34.97 45.495c1.558-.143 2.402-.771 3.216-1.555.827-.783 1.193-1.501 1.193-2.855 0-1.225-.359-2.616-1.173-3.47s-1.664-1.6-3.237-2.042zm-2.206-24.253c-1.42.1-2.73.7-3.517 1.455-.787.74-.892 1.7-.892 2.954 0 1.14.071 2.125.788 2.88.731.755 2.076 1.06 3.621 1.53zm-8.82 24.253v-5.512h2.206c.055 1.952.683 2.789 1.731 3.786 1.048.998 2.814 1.683 4.883 1.726v-9.922c-3.173-.912-5.607-2.568-6.89-3.75-1.283-1.197-1.93-2.779-1.93-4.745 0-2.28.764-4.11 2.282-5.493 1.517-1.382 3.834-2.377 6.538-2.548v-5.513h2.205v5.513c1.393.114 2.39.568 3.672.924 1.297.342 2.817.805 4.045 1.39v5.403h-2.205c-.165-1.653-1.033-2.76-1.985-3.715-.952-.955-1.9-1.67-3.527-1.797v9.921c3.394.955 5.424 1.963 6.776 3.203 1.365 1.225 2.044 2.448 2.044 4.514 0 2.366-.796 4.683-2.396 6.107s-3.513 2.5-6.424 2.713v5.512h-2.205V47.7c-1.324-.029-2.903-.483-4.324-.853-1.421-.356-2.95-.64-4.495-1.352z" fill="#ebdbb2"/>
</svg>
