<svg xmlns="http://www.w3.org/2000/svg" width="256" height="256">
    <defs>
        <linearGradient id="f" x1="296" x2="296" y1="-212" y2="236" gradientUnits="userSpaceOnUse">
            <stop offset="0" stop-color="#ebdbb2"/>
            <stop offset=".125" stop-color="#ebdbb2" stop-opacity=".098"/>
            <stop offset=".925" stop-opacity=".098"/>
            <stop offset="1" stop-opacity=".498"/>
        </linearGradient>
        <clipPath id="e">
            <path d="M361.938-212C507.235-212 528-191.287 528-46.125v116.25C528 215.286 507.235 236 361.937 236H214.063C68.766 236 48 215.286 48 70.125v-116.25C48-191.287 68.765-212 214.063-212z" fill="#b16286"/>
        </clipPath>
        <linearGradient id="b" x1="32" x2="272" y1="156" y2="156" gradientTransform="scale(-1 1) rotate(70 32.902 -55.988)" gradientUnits="userSpaceOnUse">
            <stop offset="0" stop-color="#665c54"/>
            <stop offset="1" stop-color="#504945"/>
        </linearGradient>
        <filter id="a" width="1.046" height="1.05" x="-.02" y="-.03" color-interpolation-filters="sRGB">
            <feGaussianBlur stdDeviation="2.32"/>
        </filter>
        <linearGradient id="c" x1="32" x2="272" y1="156" y2="156" gradientTransform="matrix(-.29927 .8046 .82223 .29285 27.789 -23.45)" gradientUnits="userSpaceOnUse">
            <stop offset="0" stop-color="#b8bb26"/>
            <stop offset="1" stop-color="#98971a"/>
        </linearGradient>
        <linearGradient id="d" x1="32" x2="272" y1="156" y2="156" gradientTransform="matrix(-.25652 .68966 .70477 .25101 24.614 14.247)" gradientUnits="userSpaceOnUse">
            <stop offset="0" stop-color="#83a598"/>
            <stop offset="1" stop-color="#458588"/>
        </linearGradient>
    </defs>
    <path d="M162.537 18.432c72.648 0 83.031 10.357 83.031 82.937v58.125c0 72.581-10.383 82.938-83.031 82.938H88.599c-72.648 0-83.031-10.357-83.031-82.938V101.37c0-72.58 10.383-82.937 83.031-82.937z" filter="url(#a)" opacity=".2"/>
    <path d="M88.6 16.432c-72.65 0-83.032 10.357-83.032 82.937v58.125c0 72.581 10.383 82.938 83.031 82.938h73.938c72.648 0 83.031-10.357 83.031-82.938V99.37c0-1.006-.01-1.955-.014-2.937l-89.004-80z" fill="url(#b)"/>
    <path d="M156.55 16.432c.294 69.883 11.376 80 83.018 80h5.986z" fill="#ebdbb2"/>
    <path d="M245.554 96.432c-.293-69.883-11.376-80-83.017-80h-5.987z" fill="#282828"/>
    <path d="M5.568 119.648v37.846c0 9.073.162 17.173.588 24.402.213 3.615.493 7.012.85 10.204.357 3.191.793 6.18 1.32 8.974.527 2.795 1.145 5.396 1.867 7.819.723 2.422 1.548 4.664 2.49 6.74s2.004 3.982 3.192 5.736 2.505 3.355 3.965 4.813a32.687 32.687 0 0 0 4.818 3.959 38.848 38.848 0 0 0 5.744 3.187c2.078.941 4.323 1.765 6.748 2.486 2.425.722 5.03 1.34 7.827 1.866 2.797.526 5.787.961 8.982 1.318 3.195.357 6.597.635 10.215.848 7.236.425 15.345.586 24.426.586h54.316c63.568 0 72.652-8.868 72.652-71.014v-49.77c0-.86-.008-1.672-.011-2.513l-77.88-68.5H78.222c-63.568 0-72.653 8.867-72.653 71.013z" fill="url(#c)"/>
    <path d="M137.678 48.635c.257 59.837 9.953 68.5 72.64 68.5h5.238z" fill="#ebdbb2"/>
    <path d="M215.556 117.134c-.257-59.837-9.954-68.499-72.64-68.499h-5.238z" fill="#282828"/>
    <path d="M5.568 136.904v20.59c0 9.073.162 17.173.588 24.402.213 3.615.493 7.012.85 10.204.357 3.191.793 6.18 1.32 8.974.527 2.795 1.145 5.396 1.867 7.819.723 2.422 1.548 4.664 2.49 6.74s2.004 3.982 3.192 5.736 2.505 3.355 3.965 4.813a32.687 32.687 0 0 0 4.818 3.959 38.848 38.848 0 0 0 5.744 3.187c2.078.941 4.323 1.765 6.748 2.486 2.425.722 5.03 1.34 7.827 1.866 2.797.526 5.787.961 8.982 1.318 3.195.357 6.597.635 10.215.848 7.236.425 15.345.586 24.426.586h34.695c54.486 0 62.273-7.601 62.273-60.87v-42.658c0-.738-.007-1.435-.01-2.156l-66.753-58.713H67.842c-54.487 0-62.274 7.601-62.274 60.87z" fill="url(#d)"/>
    <path d="M118.805 76.035c.22 51.288 8.532 58.713 62.263 58.713h4.49z" fill="#ebdbb2"/>
    <path d="M185.558 134.748c-.22-51.289-8.532-58.713-62.263-58.713h-4.49z" fill="#282828"/>
    <path d="M361.938-212C507.235-212 528-191.287 528-46.125v116.25C528 215.286 507.235 236 361.937 236H214.063C68.766 236 48 215.286 48 70.125v-116.25C48-191.287 68.765-212 214.063-212z" clip-path="url(#e)" transform="matrix(.5 0 0 .5 -18.432 122.432)" fill="none" opacity=".4" stroke-linecap="round" stroke-linejoin="round" stroke-width="8" stroke="url(#f)"/>
</svg>
