<svg xmlns="http://www.w3.org/2000/svg" xmlns:xlink="http://www.w3.org/1999/xlink" width="256" height="256" version="1.0" enable-background="new">
    <defs>
        <filter id="b" width="1.046" height="1.05" x="-.02" y="-.03" color-interpolation-filters="sRGB">
            <feGaussianBlur stdDeviation="2.32"/>
        </filter>
        <filter id="c" width="1.023" height="1.025" x="-.01" y="-.01" color-interpolation-filters="sRGB">
            <feGaussianBlur stdDeviation="1.16"/>
        </filter>
        <linearGradient id="i" x1="296" x2="296" y1="-212" y2="236" gradientUnits="userSpaceOnUse" xlink:href="#a"/>
        <linearGradient id="a">
            <stop offset="0" stop-color="#ebdbb2"/>
            <stop offset=".125" stop-color="#ebdbb2" stop-opacity=".098"/>
            <stop offset=".925" stop-opacity=".098"/>
            <stop offset="1" stop-opacity=".498"/>
        </linearGradient>
        <clipPath id="h" clipPathUnits="userSpaceOnUse">
            <path d="M361.938-212C507.235-212 528-191.287 528-46.125v116.25C528 215.286 507.235 236 361.937 236H214.063C68.766 236 48 215.286 48 70.125v-116.25C48-191.287 68.765-212 214.063-212z" fill="#b16286"/>
        </clipPath>
        <radialGradient id="g" cx="13.576" cy="1020.617" r="11.609" gradientTransform="matrix(5.19476 7.71672 -3.66843 2.57197 3753.466 -2596.285)" gradientUnits="userSpaceOnUse">
            <stop offset="0" stop-color="#ebdbb2"/>
            <stop offset="1" stop-color="#ebdbb2" stop-opacity="0"/>
        </radialGradient>
        <radialGradient id="f" cx="14.105" cy="1023.434" r="11.609" gradientTransform="matrix(6.50355 17.01466 -12.68937 5.05149 12976.209 -5268.935)" gradientUnits="userSpaceOnUse">
            <stop offset="0" stop-color="#282828" stop-opacity="0"/>
            <stop offset="1" stop-color="#282828"/>
        </radialGradient>
        <radialGradient id="e" cx="23.119" cy="43.713" r="10.422" gradientTransform="matrix(3.41817 -2.65948 5.2393 7.01332 -173.294 16.988)" gradientUnits="userSpaceOnUse">
            <stop offset="0" stop-color="#282828"/>
            <stop offset="1" stop-color="#282828" stop-opacity="0"/>
        </radialGradient>
        <radialGradient id="d" cx="7.696" cy="13.416" r=".918" gradientTransform="matrix(.59152 -.78458 -2.11436 -1.50939 9.938 63.448)" gradientUnits="userSpaceOnUse">
            <stop offset="0" stop-color="#fabd2f"/>
            <stop offset="1" stop-color="#fabd2f" stop-opacity="0"/>
        </radialGradient>
    </defs>
    <path d="M162.537 62.432c72.648 0 83.031 10.357 83.031 82.937v58.125c0 72.581-10.383 82.938-83.031 82.938H88.599c-72.648 0-83.031-10.357-83.031-82.938V145.37c0-72.58 10.383-82.937 83.031-82.937z" opacity=".2" filter="url(#b)" transform="translate(0 -44)"/>
    <path d="M162.537 61.432c72.648 0 83.031 10.357 83.031 82.937v58.125c0 72.581-10.383 82.938-83.031 82.938H88.599c-72.648 0-83.031-10.357-83.031-82.938V144.37c0-72.58 10.383-82.937 83.031-82.937z" opacity=".1" filter="url(#c)" transform="translate(0 -44)"/>
    <path d="M162.537 16.432c72.648 0 83.031 10.357 83.031 82.937v58.125c0 72.581-10.383 82.938-83.031 82.938H88.599c-72.648 0-83.031-10.357-83.031-82.938V99.37c0-72.58 10.383-82.937 83.031-82.937z" fill="#ebdbb2"/>
    <path d="M158.013 124.14c-10.687-7.048-13.877-23.526-5.19-37.316 8.688-13.79 24.598-17.503 35.285-10.455 10.687 7.048 13.952 23.407 5.265 37.197-8.687 13.79-24.673 17.622-35.36 10.574zm9.156-14.533c5.644 3.722 12.322 1.294 15.21-3.29 2.89-4.586 2.292-11.81-3.352-15.533-5.644-3.722-12.322-1.295-15.21 3.29-2.889 4.586-2.292 11.81 3.352 15.533z" fill="none"/>
    <path d="M158.013 124.14c-10.687-7.048-13.877-23.526-5.19-37.316 8.688-13.79 24.598-17.503 35.285-10.455 10.687 7.048 13.952 23.407 5.265 37.197-8.687 13.79-24.673 17.622-35.36 10.574zm9.156-14.533c5.644 3.722 12.322 1.294 15.21-3.29 2.89-4.586 2.292-11.81-3.352-15.533-5.644-3.722-12.322-1.295-15.21 3.29-2.889 4.586-2.292 11.81 3.352 15.533z" fill="#ebdbb2"/>
    <path d="M175.74 72.888c-8.404.176-17.215 4.887-22.917 13.936-8.687 13.79-5.497 30.268 5.19 37.316 10.687 7.048 26.673 3.216 35.36-10.574 8.688-13.79 5.422-30.149-5.265-37.197-3.674-2.423-7.965-3.574-12.367-3.481zm-100.374.263c-4.414-.112-8.714 1.026-12.388 3.448-10.687 7.049-13.877 23.526-5.19 37.316 8.688 13.79 24.598 17.503 35.285 10.455 10.687-7.048 13.953-23.406 5.265-37.196-5.7-9.05-14.545-13.811-22.972-14.023zm97.67 15.812c1.989-.012 4.05.541 5.991 1.82 5.644 3.723 6.241 10.948 3.352 15.533-2.888 4.585-9.566 7.013-15.21 3.29-5.644-3.722-6.241-10.946-3.352-15.532 1.895-3.009 5.423-5.089 9.22-5.11zm-94.91.35c3.796.022 7.323 2.102 9.219 5.11 2.888 4.586 2.291 11.81-3.353 15.533-5.644 3.722-12.322 1.294-15.21-3.29-2.889-4.586-2.292-11.81 3.352-15.533 1.94-1.28 4.003-1.832 5.992-1.82z" fill="#665c54"/>
    <path d="M158.013 124.14c-10.687-7.048-13.877-23.526-5.19-37.316 8.688-13.79 24.598-17.503 35.285-10.455 10.687 7.048 13.952 23.407 5.265 37.197-8.687 13.79-24.673 17.622-35.36 10.574zm9.156-14.533c5.644 3.722 12.322 1.294 15.21-3.29 2.89-4.586 2.292-11.81-3.352-15.533-5.644-3.722-12.322-1.295-15.21 3.29-2.889 4.586-2.292 11.81 3.352 15.533z" fill="#282828" fill-opacity="0"/>
    <path d="M8.614 13.416a.918 2.344 0 1 1-1.837 0 .918 2.344 0 1 1 1.837 0z" transform="matrix(4.72362 -2.38535 -2.45928 -4.83864 148.845 194.726)" opacity=".75" fill="url(#d)"/>
    <path d="M169.263 63.149a40.718 17.539 0 1 1-81.436 0 40.718 17.539 0 1 1 81.436 0z" fill="none"/>
    <path d="M128.545 55.746c-27.535 0-49.898 28.754-49.898 64.235 0 21.054 7.942 39.603 20.087 51.32 2.021 3.268 3.81 8.453.727 14.711a5.739 5.739 0 0 0-.273.674c-7.191 2.83-11.543 6.742-11.543 11.006 0 8.673 18.289 15.722 40.9 15.722 22.611 0 40.9-7.05 40.9-15.722 0-4.264-4.352-8.176-11.543-11.006a5.558 5.558 0 0 0-.273-.674c-3.083-6.258-1.294-11.443.727-14.71 12.145-11.718 20.087-30.267 20.087-51.321 0-35.481-22.363-64.235-49.898-64.235z" fill="#ebdbb2"/>
    <path d="M63.485 186.876c2.535 15.556 9.39 29.032 18.939 38.245 2.021 3.267 3.755 8.409.672 14.667-.12.241-.19.459-.269.685-7.191 2.83-11.552 6.703-11.552 10.967 0 8.673 18.357 15.764 40.968 15.764 22.611 0 40.834-7.091 40.834-15.764 0-4.264-4.36-8.137-11.552-10.967-.08-.228-.15-.445-.269-.685-2.539-5.153-1.746-9.522-.268-12.748-1.221.346-2.348.554-3.627.96-38.7 12.267-62.968-20.795-73.876-41.124z" fill="url(#e)" transform="translate(16.35 -53.77)"/>
    <path d="M112.195 109.516c-27.534 0-49.897 28.754-49.897 64.235 0 21.054 7.941 39.604 20.086 51.321 2.021 3.268 3.81 8.453.727 14.71a5.739 5.739 0 0 0-.272.675c-7.192 2.83-11.543 6.741-11.543 11.005 0 8.673 18.288 15.722 40.9 15.722 22.61 0 40.9-7.049 40.9-15.722 0-4.264-4.352-8.175-11.544-11.005a5.558 5.558 0 0 0-.272-.674c-3.084-6.258-1.295-11.443.727-14.71 12.144-11.718 20.086-30.268 20.086-51.322 0-35.48-22.363-64.235-49.898-64.235z" fill="url(#f)" transform="translate(16.35 -53.77)"/>
    <path d="M112.195 109.516c-27.534 0-49.897 28.754-49.897 64.235 0 21.054 7.941 39.604 20.086 51.321 2.021 3.268 3.81 8.453.727 14.71a5.739 5.739 0 0 0-.272.675c-7.192 2.83-11.543 6.741-11.543 11.005 0 8.673 18.288 15.722 40.9 15.722 22.61 0 40.9-7.049 40.9-15.722 0-4.264-4.352-8.175-11.544-11.005a5.558 5.558 0 0 0-.272-.674c-3.084-6.258-1.295-11.443.727-14.71 12.144-11.718 20.086-30.268 20.086-51.322 0-35.48-22.363-64.235-49.898-64.235z" fill="url(#g)" transform="translate(16.35 -53.77)"/>
    <path d="M169.263 63.149a40.718 17.539 0 1 1-81.436 0 40.718 17.539 0 1 1 81.436 0z" fill="#665c54" stroke="#ebdbb2" stroke-width="4.342"/>
    <path d="M155.427 59.794a26.882 7.452 0 1 1-53.764 0 26.882 7.452 0 1 1 53.764 0z" fill="#282828"/>
    <path d="M193.394 42.49c-1.078-.424-4.806 12.892-14.367 50.294-6.828 26.714-12.472 48.654-12.578 48.897a35.36 21.461 0 0 0-27.191-7.772 35.36 21.461 0 0 0-35.362 21.461 35.36 21.461 0 0 0 35.362 21.46 35.36 21.461 0 0 0 34.341-16.456c1.002-1.597 1.72-3.144 1.997-4.492.824-4.021 14.139-94.3 14.166-96.055.009-.574 1.445 1.457 3.193 4.514 1.748 3.057 6.334 9.35 10.191 13.986 11.048 13.276 14.13 22.794 10.59 32.703-1.26 3.528-1.217 3.595.695 1.127 7.006-9.038 4.837-20.476-7.54-39.785-8.113-12.656-13.116-23.14-13.133-27.522-.006-1.433-.115-2.263-.364-2.36z" fill="#458588"/>
    <g>
        <path d="M361.938-212C507.235-212 528-191.287 528-46.125v116.25C528 215.286 507.235 236 361.937 236H214.063C68.766 236 48 215.286 48 70.125v-116.25C48-191.287 68.765-212 214.063-212z" clip-path="url(#h)" transform="matrix(.5 0 0 .5 -18.432 122.432)" opacity=".4" fill="none" stroke="url(#i)" stroke-width="8" stroke-linecap="round" stroke-linejoin="round"/>
    </g>
</svg>
