<svg xmlns="http://www.w3.org/2000/svg" width="256" height="256" viewBox="0 0 67.73 67.73">
    <defs>
        <filter id="c" width="1.048" height="1.048" x="-.02" y="-.02" color-interpolation-filters="sRGB">
            <feGaussianBlur stdDeviation="1.531"/>
        </filter>
        <linearGradient id="e" x1="296" x2="296" y1="-212" y2="236" gradientUnits="userSpaceOnUse">
            <stop offset="0" stop-color="#ebdbb2"/>
            <stop offset=".125" stop-color="#ebdbb2" stop-opacity=".098"/>
            <stop offset=".925" stop-opacity=".098"/>
            <stop offset="1" stop-opacity=".498"/>
        </linearGradient>
        <clipPath id="d">
            <path d="M361.938-212C507.235-212 528-191.287 528-46.125v116.25C528 215.286 507.235 236 361.937 236H214.063C68.766 236 48 215.286 48 70.125v-116.25C48-191.287 68.765-212 214.063-212z" fill="#b16286"/>
        </clipPath>
        <filter id="b" width="1.046" height="1.05" x="-.02" y="-.03" color-interpolation-filters="sRGB">
            <feGaussianBlur stdDeviation="2.32"/>
        </filter>
        <filter id="a" width="1.023" height="1.025" x="-.01" y="-.01" color-interpolation-filters="sRGB">
            <feGaussianBlur stdDeviation="1.16"/>
        </filter>
    </defs>
    <g transform="translate(0 -229.267)">
        <path d="M162.537 3.568c72.648 0 83.031 10.357 83.031 82.938v58.125c0 72.58-10.383 82.937-83.031 82.937H88.599c-72.648 0-83.031-10.357-83.031-82.937V86.506c0-72.581 10.383-82.938 83.031-82.938z" transform="matrix(.26458 0 0 .26458 0 232.67)" opacity=".1" filter="url(#a)"/>
        <path d="M162.537 5.568c72.648 0 83.031 10.357 83.031 82.938v58.125c0 72.58-10.383 82.937-83.031 82.937H88.599c-72.648 0-83.031-10.357-83.031-82.937V88.506c0-72.581 10.383-82.938 83.031-82.938z" transform="matrix(.26458 0 0 .26458 0 232.67)" opacity=".2" filter="url(#b)"/>
        <path d="M23.442 233.614c-19.222 0-21.969 2.74-21.969 21.944v15.38c0 2.689.058 5.045.203 7.126l4.03 2.117H60.74l4.03-2.117c.146-2.081.203-4.437.203-7.127v-15.379c0-19.204-2.747-21.944-21.968-21.944z" fill="#ebdbb2"/>
        <path d="M1.676 278.064c.894 12.78 5.236 14.817 21.766 14.817h19.563c16.529 0 20.872-2.037 21.765-14.817H7.955z" fill="#282828"/>
        <path d="M18.29 292.687c-.55-.049-1-.145-1-.215 0-.069 1.866-3.684 4.146-8.034 2.28-4.349 9.177-17.515 15.326-29.257l11.18-21.35 1.659.067c4.061.163 8.008 1.094 9.97 2.353 2.227 1.43 3.693 3.786 4.412 7.093.774 3.559.884 6.624.786 21.828-.088 13.532-.124 14.663-.524 16.722-1.197 6.148-3.302 8.569-8.594 9.884-3.363.836-4.59.892-20.692.945-8.619.029-16.12.012-16.67-.036z" style="font-variation-settings:normal" opacity=".05" fill="#ebdbb2" paint-order="markers fill stroke"/>
        <path d="M12.172 278.05s14.395-27.627 23.188-44.43l6.014.012 6.437.094c-8.242 15.83-22.914 44.323-22.914 44.323-4.904.03-12.725 0-12.725 0z" style="font-variation-settings:normal" fill="#ebdbb2" paint-order="markers fill stroke"/>
        <path d="M47.82 233.764l2.792.164c5.074.316 7.219 1.195 9.067 2.274 2.565 1.463 3.668 4.624 3.668 4.624s-1.258 1.831-10.705 20.034c-2.142 5.654-8.748 17.22-8.748 17.22s-11.199.02-19.17.005c8.148-15.409 14.845-28.527 23.096-44.32z" style="font-variation-settings:normal" fill="#d5c4a1" paint-order="markers fill stroke"/>
        <path d="M44.118 277.638c10.13-20.316 10.168-20.323 19.216-36.82 0 0 .988 2.67 1.215 6.08.08 1.216.236 1.415.283 8.986l.026 6.176-4.282 8.011-4.182 7.993-6.18-.005-6.24.056.144-.477z" style="font-variation-settings:normal" fill="#ebdbb2" paint-order="markers fill stroke"/>
        <circle cx="48.04" cy="252.664" r="6.35" fill="#ebdbb2"/>
        <path d="M12.057 278.064l12.603-24.243 12.603 24.243z" fill="#ebdbb2"/>
        <path d="M24.757 278.064l9.525-18.256 9.525 18.256z" fill="#ebdbb2"/>
        <path d="M113.443 41.568c-35.298 0-64 28.702-64 64s28.702 64 64 64c15.452 0 29.64-5.502 40.709-14.648l6.89 6.89-1.413 1.414 31.5 31.5 11.314-11.312-31.5-31.5-1.414 1.414-6.88-6.881c9.23-11.094 14.794-25.345 14.794-40.877 0-35.298-28.702-64-64-64zm0 8.137c30.901 0 55.863 24.962 55.863 55.863s-24.962 55.865-55.863 55.865-55.865-24.964-55.865-55.865c0-30.901 24.964-55.863 55.865-55.863z" transform="matrix(.26458 0 0 .26458 0 232.67)" opacity=".2" filter="url(#c)"/>
        <g transform="matrix(.26458 0 0 .26458 -9.11 223.031)">
            <g fill="none">
                <path d="M203.717 196l-12-12" stroke="#a89984" stroke-width="12"/>
                <path d="M231.217 223.5l-31.5-31.5" stroke="#3c3836" stroke-width="16"/>
            </g>
            <circle cx="147.875" cy="140" r="59.932" fill="#ebdbb2" fill-opacity=".543" stroke="#665c54" stroke-width="8.136"/>
        </g>
        <path d="M361.938-212C507.235-212 528-191.287 528-46.125v116.25C528 215.286 507.235 236 361.937 236H214.063C68.766 236 48 215.286 48 70.125v-116.25C48-191.287 68.765-212 214.063-212z" clip-path="url(#d)" transform="matrix(.1323 0 0 .1323 -4.877 261.66)" opacity=".4" fill="none" stroke="url(#e)" stroke-width="8" stroke-linecap="round" stroke-linejoin="round"/>
    </g>
</svg>
