<svg width="256" height="256" version="1.0" xmlns="http://www.w3.org/2000/svg" enable-background="new">
    <defs>
        <filter id="a" x="-.02" y="-.03" width="1.046" height="1.05" color-interpolation-filters="sRGB">
            <feGaussianBlur stdDeviation="2.32"/>
        </filter>
        <filter id="b" x="-.01" y="-.01" width="1.023" height="1.025" color-interpolation-filters="sRGB">
            <feGaussianBlur stdDeviation="1.16"/>
        </filter>
        <linearGradient id="d" x1="296" x2="296" y1="-212" y2="236" gradientUnits="userSpaceOnUse">
            <stop offset="0" stop-color="#ebdbb2"/>
            <stop offset=".125" stop-color="#ebdbb2" stop-opacity=".098"/>
            <stop offset=".925" stop-opacity=".098"/>
            <stop offset="1" stop-opacity=".498"/>
        </linearGradient>
        <clipPath id="c">
            <path d="M361.938-212C507.235-212 528-191.287 528-46.125v116.25C528 215.286 507.235 236 361.937 236H214.063C68.766 236 48 215.286 48 70.125v-116.25C48-191.287 68.765-212 214.063-212z" fill="#b16286"/>
        </clipPath>
    </defs>
    <path d="M162.537 62.432c72.648 0 83.031 10.357 83.031 82.937v58.125c0 72.581-10.383 82.938-83.031 82.938H88.599c-72.648 0-83.031-10.357-83.031-82.938V145.37c0-72.58 10.383-82.937 83.031-82.937z" filter="url(#a)" opacity=".2" transform="translate(0 -44)"/>
    <path d="M162.537 61.432c72.648 0 83.031 10.357 83.031 82.937v58.125c0 72.581-10.383 82.938-83.031 82.938H88.599c-72.648 0-83.031-10.357-83.031-82.938V144.37c0-72.58 10.383-82.937 83.031-82.937z" filter="url(#b)" opacity=".1" transform="translate(0 -44)"/>
    <path d="M162.537 16.432c72.648 0 83.031 10.357 83.031 82.937v58.125c0 72.581-10.383 82.938-83.031 82.938H88.599c-72.648 0-83.031-10.357-83.031-82.938V99.37c0-72.58 10.383-82.937 83.031-82.937z" fill="#ebdbb2"/>
    <path transform="matrix(.5 0 0 .5 -18.432 122.432)" d="M361.938-212C507.235-212 528-191.287 528-46.125v116.25C528 215.286 507.235 236 361.937 236H214.063C68.766 236 48 215.286 48 70.125v-116.25C48-191.287 68.765-212 214.063-212z" clip-path="url(#c)" fill="none" opacity=".4" stroke-linecap="round" stroke-linejoin="round" stroke-width="8" stroke="url(#d)"/>
    <path d="M88.596 240.435c-72.648 0-83.031-10.353-83.031-82.905v-29.051h240v29.051c0 72.552-10.383 82.905-83.031 82.905z" fill="#ebdbb2" opacity=".25"/>
    <g stroke="#ebdbb2">
        <path d="M140.278 67.825c-15.277 0-28.641 7.275-36.07 18.097.087-.071.168-.147.256-.217 2.412-1.94 4.916-3.789 7.614-5.434 11.744-7.165 24.817-10.559 37.822-10.677a77.7 77.7 0 0 1 2.601.02c1.418.384 2.886.664 4.236 1.173-5.059-1.906-10.62-2.962-16.46-2.962zm16.46 2.962c1.03.388 1.94.956 2.926 1.413-15.755-1.917-32.158 1.072-46.512 9.828-33.395 20.372-44.684 65.324-24.238 98.818 1.788 2.929 3.829 5.618 5.978 8.192h5.697a64.72 64.72 0 0 1-7.913-10.382c-19.271-31.472-8.694-73.678 22.666-92.865 11.05-6.76 23.382-9.9 35.615-9.83a71.262 71.262 0 0 1 18.944 2.695c.081.071.181.123.264.193-3.823-3.403-8.374-6.158-13.428-8.062zM149.706 78c-11.457.158-22.958 3.23-33.29 9.551-30.387 18.592-40.649 59.543-21.981 90.028 2.602 4.25 5.694 8.044 9.098 11.46h6.282A58.594 58.594 0 0 1 98.2 175.391c-17.495-28.463-7.947-66.668 20.404-84.076 9.741-5.981 20.592-8.875 31.391-8.998 9.529-.109 19.019 1.94 27.67 5.929.51.873 1.144 1.678 1.577 2.589-2.13-4.487-5.21-8.527-9.012-11.927.936.846 1.693 1.834 2.543 2.752A68.959 68.959 0 0 0 149.707 78zm-62.75 6.208c-8.123 0-15.477 2.932-20.8 7.675 1.125-1.003 2.387-1.876 3.682-2.706a99.642 99.642 0 0 0-11.941 24.956c-.02-.11-.057-.215-.075-.326.18 1.11.439 2.199.752 3.262a43.743 43.743 0 0 0-4.204 2.87c.711-.55 1.493-1.025 2.244-1.533-5.74 21.335-4.453 44.492 4.967 65.386-.913-.462-1.899-.819-2.77-1.335-8.422-19.97-9.801-41.797-4.855-62.158.144-.114.267-.248.414-.36a41.36 41.36 0 0 0-7.099 6.974c.378-.476.826-.9 1.227-1.36-3.107 17.212-2.063 35.179 3.742 52.137-.058-.052-.131-.088-.19-.14 7.976 7.106 19.006 11.49 31.228 11.49h.983c-.887-1.277-1.813-2.515-2.63-3.857-19.775-32.479-12.9-74.47 13.586-99.912a32.46 32.46 0 0 0-8.26-1.063zm-39.685 42.705c-4.093 5.145-6.832 11.213-7.765 17.791.207-1.461.536-2.886.916-4.292-.273 7.567.22 15.173 1.514 22.701-.723-1.779-1.457-3.555-1.889-5.444a35.493 35.493 0 0 1-.894-7.942c0 10.89 4.92 20.718 12.896 27.823-1.085-.966-1.96-2.1-2.927-3.164a105.998 105.998 0 0 1-3.34-45.338c.494-.713.946-1.453 1.49-2.135zm18.884-35.03c-5.323 4.742-8.616 11.295-8.616 18.533a20.204 20.204 0 0 0 .001 0c0-.796.185-1.546.263-2.323 1.903-5.007 4.143-9.89 6.82-14.555.52-.545.964-1.15 1.532-1.655zm21.156-7.653c.915.01 1.81.09 2.703.174-26.007 26.979-32.355 69.709-12.146 102.974.265.437.583.824.855 1.254-.88-.081-1.777-.108-2.641-.234-20.363-33.57-14.39-76.49 11.229-104.168zm62.368.185c-10.326.16-20.685 2.942-29.995 8.659-27.38 16.812-36.617 53.763-19.729 81.24 3.558 5.788 8.08 10.685 13.192 14.725h7.497c-6.696-4.196-12.565-9.855-16.92-16.909-15.72-25.454-7.199-59.66 18.144-75.29 8.796-5.425 18.598-8.029 28.35-8.11 11.053-.091 22.042 3.058 31.427 9.01.013.058.046.11.059.169a34.482 34.482 0 0 0-2.463-7.071c.1.21.135.447.23.66-9.175-4.78-19.467-7.243-29.792-7.083zm32.025 13.494c.185.806.157 1.673.283 2.497-17.178-11.658-40.466-13.268-59.039-1.814-24.374 15.033-32.582 47.986-17.472 72.454 4.82 7.807 11.561 13.86 19.252 17.993h11.694c-10.932-3.117-20.84-9.975-27.175-20.173-13.943-22.446-6.45-52.651 15.883-66.502 7.97-4.943 16.878-7.264 25.721-7.246 11.37.023 22.63 3.91 31.645 11.06-.014.826-.17 1.615-.24 2.426-15.395-12.911-38.206-15.55-56.04-4.49-21.368 13.253-28.55 42.207-15.22 63.666 12.807 20.616 40.763 27.542 61.47 14.656 19.865-12.361 26.533-39.318 14.092-59.273-11.917-19.113-37.872-25.524-57.075-13.528-18.362 11.471-24.516 36.426-12.965 54.876 11.026 17.61 34.981 23.512 52.68 12.405 16.859-10.58 22.501-33.54 11.84-50.485-10.136-16.109-32.094-21.492-48.287-11.275-15.358 9.689-20.486 30.646-10.714 46.087 9.244 14.607 29.204 19.481 43.893 10.154 13.855-8.798 18.47-27.76 9.588-41.695-8.352-13.105-26.31-17.466-39.495-9.03-12.354 7.907-16.46 24.87-8.469 37.3 7.46 11.604 23.424 15.453 35.103 7.906 10.854-7.013 14.447-21.978 7.346-32.904-6.567-10.103-20.535-13.44-30.709-6.784-9.354 6.12-12.433 19.088-6.223 28.508 5.673 8.605 17.643 11.43 26.31 5.665 7.856-5.225 10.427-16.197 5.108-24.111-4.776-7.107-14.753-9.423-21.914-4.55-6.36 4.327-8.42 13.306-3.993 19.713 3.877 5.613 11.86 7.422 17.513 3.443 4.867-3.426 6.424-10.415 2.893-15.313-2.973-4.124-8.97-5.429-13.113-2.346-3.382 2.516-4.436 7.52-1.805 10.905 2.055 2.645 6.068 3.456 8.695 1.28 1.914-1.585 2.486-4.618.775-6.48-.549-.597-1.387-1.005-2.187-1.077s-1.514.142-2.06.753c-.242.272-.45.8-.449 1.206 0 .407.082.603.4.765-.2-.102.18-.026.226-.042.023-.009-.077.004-.175.202-.098.197-.018.48-.023.47l1.774-1.05c.24.407.329 1.028.097 1.496-.232.468-.61.682-.932.806-.642.247-1.195.313-1.9-.044-1.045-.531-1.526-1.634-1.527-2.6a3.853 3.853 0 0 1 .973-2.58c1.008-1.13 2.447-1.555 3.78-1.435a5.473 5.473 0 0 1 3.521 1.735c2.592 2.821 1.775 7.181-.979 9.462-3.595 2.978-8.91 1.908-11.638-1.602-3.387-4.36-2.062-10.651 2.204-13.825 5.12-3.809 12.394-2.226 16.014 2.795 4.237 5.877 2.397 14.139-3.378 18.203-6.634 4.67-15.886 2.573-20.396-3.956-5.104-7.389-2.752-17.632 4.53-22.587 8.143-5.542 19.384-2.933 24.784 5.103 5.98 8.897 3.113 21.132-5.676 26.978-9.65 6.419-22.881 3.293-29.172-6.248-6.859-10.405-3.48-24.632 6.815-31.368 11.157-7.3 26.384-3.66 33.564 7.387 7.741 11.91 3.845 28.134-7.955 35.76-12.663 8.182-29.883 4.027-37.953-8.526-8.625-13.416-4.215-31.633 9.09-40.148 14.169-9.067 33.384-4.401 42.344 9.657 9.51 14.921 4.589 35.138-10.222 44.542-15.674 9.953-36.89 4.773-46.74-10.79-10.395-16.426-4.956-38.64 11.36-48.934 17.178-10.84 40.389-5.145 51.127 11.923 11.282 17.931 5.334 42.144-12.486 53.327-18.684 11.725-43.896 5.517-55.524-13.055-12.169-19.436-5.705-45.647 13.62-57.72 20.188-12.612 47.399-5.891 59.916 14.185 13.056 20.941 6.076 49.15-14.753 62.112-3.469 2.158-7.14 3.73-10.897 4.855h5.198c3.055 0 6.034-.274 8.91-.795-.6.108-1.251.079-1.86.166.272-.161.557-.286.827-.453 22.871-14.142 30.568-45.098 16.348-68.061-1.058-1.709-2.245-3.296-3.486-4.827 1.49.707 2.904 1.52 4.287 2.368.31.465.654.897.95 1.375 14.063 22.71 7.565 52.814-13.466 68.44-1.2.317-2.336.761-3.576.988 20.134-3.66 35.193-19.462 35.193-38.513 0-8.695-3.15-16.709-8.49-23.2.692.841 1.239 1.774 1.855 2.664 4.962 16.94 1.753 35.396-8.18 49.77-1.486 1.18-2.95 2.385-4.607 3.38-.304.183-.66.294-.97.47 13.795-15.788 17.987-38.66 9.92-58.343.655.691 1.381 1.328 1.983 2.06-5.34-6.491-12.867-11.461-21.62-14.066.476-2.26.691-4.578.691-6.961 0-2.601-.297-5.14-.86-7.592zM81.089 84.733c-23.46 28.123-28.803 69.153-10.603 102.44-.918-.247-1.852-.458-2.743-.756-17.044-32.86-12.081-72.596 9.984-100.763 1.092-.324 2.157-.706 3.303-.915.019-.004.04-.003.06-.006zm14.31.587c.682.189 1.33.443 1.992.67-26.444 24.707-33.447 66.179-14 98.12 1.044 1.714 2.2 3.324 3.361 4.928h5.446c-1.796-2.26-3.508-4.606-5.042-7.12-18.79-30.78-11.503-70.849 14.712-94.02l.026-.022a31.4 31.4 0 0 0-6.495-2.556z" fill="#689d6a" stroke-width=".86862"/>
        <path d="M140.277 67.826c-16.371 0-30.549 8.352-37.577 20.475-4.554-2.579-9.946-4.095-15.743-4.095-16.246 0-29.417 11.733-29.417 26.208 0 2.301.408 4.528 1.034 6.654-11.734 7.051-19.42 19.046-19.42 32.658 0 21.779 19.68 39.312 44.126 39.312h84.576c24.446 0 44.126-17.533 44.126-39.312 0-17.391-12.602-32.054-30.107-37.265.475-2.26.69-4.578.69-6.961 0-20.807-18.933-37.674-42.288-37.674z" fill="none" stroke-width="2.17004978" stroke="#282828"/>
    </g>
</svg>
