<svg width="256" height="256" viewBox="0 0 67.73 67.73" xmlns="http://www.w3.org/2000/svg">
    <defs>
        <clipPath id="c">
            <path
                d="M361.938-212C507.235-212 528-191.287 528-46.125v116.25C528 215.286 507.235 236 361.937 236H214.063C68.766 236 48 215.286 48 70.125v-116.25C48-191.287 68.765-212 214.063-212z"
                fill="#b16286" />
        </clipPath>
        <filter id="b" x="-.01" y="-.01" width="1.023" height="1.025" color-interpolation-filters="sRGB">
            <feGaussianBlur stdDeviation="1.16" />
        </filter>
        <filter id="a" x="-.02" y="-.03" width="1.046" height="1.05" color-interpolation-filters="sRGB">
            <feGaussianBlur stdDeviation="2.32" />
        </filter>
        <linearGradient id="d" x1="296" x2="296" y1="-212" y2="236" gradientUnits="userSpaceOnUse">
            <stop offset="0" stop-color="#ebdbb2" />
            <stop offset=".125" stop-color="#ebdbb2" stop-opacity=".098" />
            <stop offset=".925" stop-opacity=".098" />
            <stop offset="1" stop-opacity=".498" />
        </linearGradient>
        <filter id="e" y="-.12" width="1.207" height="1.237" color-interpolation-filters="sRGB">
            <feGaussianBlur stdDeviation=".811" />
        </filter>
        <filter id="f" x="-.12" y="-.09" width="1.237" height="1.184" color-interpolation-filters="sRGB">
            <feGaussianBlur stdDeviation=".811" />
        </filter>
        <filter id="g" y="-.12" width="1.207" height="1.237" color-interpolation-filters="sRGB">
            <feGaussianBlur stdDeviation=".811" />
        </filter>
    </defs>
    <path transform="matrix(.2697 0 0 .2697 -7.129 -8.706)"
        d="M188.969 46C261.617 46 272 56.357 272 128.938v58.125c0 72.58-10.383 82.937-83.031 82.937H115.03C42.383 270 32 259.643 32 187.062v-58.125C32 56.358 42.383 46 115.031 46z"
        filter="url(#a)" opacity=".2" />
    <path transform="matrix(.2697 0 0 .2697 -7.129 -8.706)"
        d="M188.969 44C261.617 44 272 54.357 272 126.938v58.124C272 257.644 261.617 268 188.969 268H115.03C42.383 268 32 257.643 32 185.062v-58.125C32 54.358 42.383 44 115.031 44z"
        filter="url(#b)" opacity=".1" />
    <path
        d="M23.896 3.161c-9.797 0-15.394.697-18.545 3.843-3.15 3.147-3.85 8.738-3.85 18.526v15.677c0 9.788.7 15.379 3.85 18.525 3.15 3.147 8.748 3.844 18.545 3.844h19.941c9.798 0 15.395-.697 18.545-3.844 3.15-3.146 3.85-8.737 3.85-18.525V25.53c0-9.788-.7-15.38-3.85-18.526-3.15-3.146-8.747-3.843-18.545-3.843z"
        fill="#282828" />
    <path
        d="M1.502 40.667v.54c0 9.788.699 15.379 3.85 18.525 3.15 3.147 8.747 3.844 18.544 3.844h19.941c9.798 0 15.395-.697 18.545-3.844 3.15-3.146 3.85-8.737 3.85-18.525v-.54c0 9.788-.7 15.38-3.85 18.526-3.15 3.146-8.747 3.843-18.545 3.843H23.896c-9.797 0-15.394-.697-18.545-3.843-3.15-3.147-3.85-8.738-3.85-18.526z"
        fill="#282828" opacity=".2" />
    <path d="M23.813 63.451C4.22 63.451 1.42 60.658 1.42 41.082v-7.838h64.73v7.838c0 19.576-2.8 22.369-22.394 22.369z"
        clip-rule="evenodd" fill-rule="evenodd" fill="#504945" image-rendering="optimizeQuality" opacity=".1"
        shape-rendering="geometricPrecision" />
    <path transform="matrix(.13485 0 0 .13485 -4.971 31.75)"
        d="M361.938-212C507.235-212 528-191.287 528-46.125v116.25C528 215.286 507.235 236 361.937 236H214.063C68.766 236 48 215.286 48 70.125v-116.25C48-191.287 68.765-212 214.063-212z"
        clip-path="url(#c)" fill="none" opacity=".4" stroke-linecap="round" stroke-linejoin="round" stroke-width="8"
        stroke="url(#d)" />
    <path
        d="M20.97 279.126a7.272 7.272 0 0 0 1.66-.17c1.7-.372 3.143-1.144 4.253-2.514a15.608 15.608 0 0 0 1.73-2.693 28.369 28.369 0 0 0 1.474-3.474 37.772 37.772 0 0 0 1.28-4.372c.186-.828-.023-1.347-.939-1.632a42.601 42.601 0 0 0-3.53-.952c-1.978-.434-3.972-.712-6.006-.643-.574.022-1.147.085-1.715.185a7.398 7.398 0 0 0-4.181 2.244c-1.948 2.043-2.723 4.48-2.243 7.259.69 3.97 4.213 6.793 8.217 6.762z"
        filter="url(#e)" opacity=".3" transform="translate(.085 -229.267)" />
    <path
        d="M25.553 249.004c-.023.605.084 1.266.263 1.928.34 1.258.902 2.412 1.566 3.5 1.511 2.478 3.417 4.6 5.485 6.568.169.162.37.299.586.403a.73.73 0 0 0 .656.018c.216-.097.409-.234.57-.412a70.357 70.357 0 0 0 2.107-2.251c.956-1.09 1.867-2.21 2.693-3.413.748-1.089 1.42-2.235 1.912-3.477.494-1.235.733-2.509.572-3.848-.27-2.21-1.173-4.082-2.785-5.55-1.907-1.734-4.128-2.428-6.628-2.041-4.065.63-7.013 4.373-6.997 8.576z"
        filter="url(#f)" opacity=".3" transform="translate(.085 -229.267)" />
    <path
        d="M21.055 49.86a7.272 7.272 0 0 0 1.66-.17c1.7-.372 3.144-1.145 4.253-2.515a15.608 15.608 0 0 0 1.73-2.693 28.369 28.369 0 0 0 1.474-3.474 37.772 37.772 0 0 0 1.28-4.372c.187-.828-.022-1.346-.938-1.632a42.601 42.601 0 0 0-3.53-.952c-1.979-.433-3.973-.711-6.006-.643-.575.022-1.148.085-1.715.185a7.398 7.398 0 0 0-4.182 2.244c-1.948 2.043-2.723 4.48-2.243 7.259.69 3.97 4.214 6.794 8.217 6.763z"
        fill="#fabd2f" />
    <path
        d="M46.593 279.126a7.272 7.272 0 0 1-1.66-.17c-1.7-.372-3.144-1.144-4.253-2.514a15.608 15.608 0 0 1-1.73-2.693 28.37 28.37 0 0 1-1.474-3.474 37.771 37.771 0 0 1-1.28-4.372c-.187-.828.022-1.347.938-1.632a42.601 42.601 0 0 1 3.53-.952c1.979-.434 3.972-.712 6.006-.643.575.022 1.148.085 1.715.185a7.398 7.398 0 0 1 4.182 2.244c1.948 2.043 2.723 4.48 2.242 7.259-.69 3.97-4.213 6.793-8.216 6.762z"
        filter="url(#g)" opacity=".3" transform="translate(.085 -229.267)" />
    <path
        d="M25.638 19.737c-.023.605.085 1.266.263 1.928.34 1.259.902 2.412 1.566 3.501 1.512 2.478 3.417 4.599 5.485 6.568.17.161.371.298.587.402a.73.73 0 0 0 .655.018c.216-.096.41-.233.571-.411a70.357 70.357 0 0 0 2.106-2.252c.957-1.09 1.868-2.21 2.693-3.412.749-1.09 1.42-2.235 1.913-3.478.493-1.235.733-2.508.57-3.848-.27-2.21-1.171-4.082-2.784-5.55-1.907-1.734-4.128-2.428-6.628-2.041-4.065.63-7.012 4.374-6.997 8.577z"
        fill="#458588" />
    <path
        d="M46.678 49.86a7.272 7.272 0 0 1-1.66-.17c-1.7-.372-3.143-1.145-4.253-2.515a15.608 15.608 0 0 1-1.73-2.693 28.37 28.37 0 0 1-1.474-3.474 37.771 37.771 0 0 1-1.28-4.372c-.186-.828.023-1.346.938-1.632a42.601 42.601 0 0 1 3.53-.952c1.979-.433 3.973-.711 6.007-.643.574.022 1.147.085 1.715.185a7.398 7.398 0 0 1 4.181 2.244c1.948 2.043 2.723 4.48 2.243 7.259-.69 3.97-4.213 6.794-8.217 6.763z"
        fill="#fb4934" />
    <path d="M33.784 3.036v60.415h9.97c19.595 0 22.395-2.793 22.395-22.369V25.405c0-19.575-2.8-22.369-22.394-22.369z"
        clip-rule="evenodd" fill-rule="evenodd" fill="#504945" image-rendering="optimizeQuality" opacity=".1"
        shape-rendering="geometricPrecision" />
</svg>