<svg width="256" height="256" viewBox="0 0 67.73 67.73" xmlns="http://www.w3.org/2000/svg">
    <defs>
        <linearGradient id="e" x1="296" x2="296" y1="-212" y2="236" gradientUnits="userSpaceOnUse">
            <stop offset="0" stop-color="#ebdbb2"/>
            <stop offset=".125" stop-color="#ebdbb2" stop-opacity=".098"/>
            <stop offset=".925" stop-opacity=".098"/>
            <stop offset="1" stop-opacity=".498"/>
        </linearGradient>
        <clipPath id="d">
            <path d="M361.938-212C507.235-212 528-191.287 528-46.125v116.25C528 215.286 507.235 236 361.937 236H214.063C68.766 236 48 215.286 48 70.125v-116.25C48-191.287 68.765-212 214.063-212z" fill="#b16286"/>
        </clipPath>
        <linearGradient id="c" x1="93.46" x2="248" y1="69.921" y2="263.092" gradientTransform="matrix(.26458 0 0 .26458 -6.993 221.973)" gradientUnits="userSpaceOnUse">
            <stop offset="0" stop-color="#fabd2f"/>
            <stop offset="1" stop-color="#fe8019"/>
        </linearGradient>
        <filter id="b" x="-.01" y="-.01" width="1.023" height="1.025" color-interpolation-filters="sRGB">
            <feGaussianBlur stdDeviation="1.16"/>
        </filter>
        <filter id="a" x="-.02" y="-.03" width="1.046" height="1.05" color-interpolation-filters="sRGB">
            <feGaussianBlur stdDeviation="2.32"/>
        </filter>
        <filter id="f" x="-.05" y="-.04" width="1.104" height="1.089" color-interpolation-filters="sRGB">
            <feGaussianBlur stdDeviation=".833"/>
        </filter>
    </defs>
    <path transform="matrix(.26458 0 0 .26458 0 3.404)" d="M162.537 5.568c72.648 0 83.031 10.357 83.031 82.938v58.124c0 72.581-10.383 82.938-83.031 82.938H88.599c-72.648 0-83.031-10.357-83.031-82.938V88.505c0-72.58 10.383-82.937 83.031-82.937z" filter="url(#a)" opacity=".2"/>
    <path transform="matrix(.26458 0 0 .26458 0 3.404)" d="M162.537 4.568c72.648 0 83.031 10.357 83.031 82.938v58.124c0 72.581-10.383 82.938-83.031 82.938H88.599c-72.648 0-83.031-10.357-83.031-82.938V87.505c0-72.58 10.383-82.937 83.031-82.937z" filter="url(#b)" opacity=".1"/>
    <path d="M43.005 233.614c19.221 0 21.968 2.74 21.968 21.944v15.38c0 19.203-2.747 21.943-21.968 21.943H23.442c-19.222 0-21.969-2.74-21.969-21.944v-15.379c0-19.204 2.747-21.944 21.969-21.944z" fill="url(#c)" transform="translate(0 -229.267)"/>
    <path d="M1.473 33.981v7.69c0 19.203 2.747 21.943 21.969 21.943h19.563c19.221 0 21.968-2.74 21.968-21.944v-7.689z" fill="#ebdbb2" opacity=".1"/>
    <path transform="matrix(.1323 0 0 .1323 -4.877 32.393)" d="M361.938-212C507.235-212 528-191.287 528-46.125v116.25C528 215.286 507.235 236 361.937 236H214.063C68.766 236 48 215.286 48 70.125v-116.25C48-191.287 68.765-212 214.063-212z" clip-path="url(#d)" fill="none" opacity=".4" stroke-linecap="round" stroke-linejoin="round" stroke-width="8" stroke="url(#e)"/>
    <path d="M32.558 285.649c-1.223-.24-2.665-1.263-4.297-3.05-6.646-7.27-11.202-15.614-13.54-24.792-.572-2.245-.716-3.338-.645-4.926.232-5.253 3.896-8.973 10.854-11.02 5.334-1.57 12.305-1.455 17.535.29 6.374 2.127 9.684 5.712 9.906 10.73.07 1.588-.073 2.681-.645 4.926-2.338 9.175-6.897 17.524-13.54 24.793-1.679 1.837-3.073 2.81-4.377 3.056-.582.11-.657.11-1.251-.008zm2.684-1.249c.911-.589 1.624-1.243 2.86-2.625 1.873-2.094 2.768-3.233 2.84-3.613.095-.51-.132-1.834-.964-5.615-.026-.119-.131-1.025-.234-2.013-.972-9.373-.917-8.997-1.736-11.816-.748-2.575-.888-2.919-1.348-3.306-.253-.213-.373-.25-.651-.206-.188.03-.422.152-.52.273-.235.286-.176 1.012.222 2.711.17.73.336 1.803.4 2.589.208 2.562.524 4.644.813 5.368.24.6.27.794.273 1.805.003.802.033 1.087.1.973.254-.427.635-.908.72-.908.155 0 .106.592-.083 1.007-.096.21-.361.551-.589.756-.488.44-.599.32 1.149 1.251.687.366 1.249.722 1.249.791 0 .07-.039.126-.086.126s-.705-.286-1.462-.635c-1.932-.89-2.334-1.03-4.115-1.428-1.865-.417-2.294-.412-2.694.036-.47.525-.477 1.385-.017 1.931.42.5.398.493 4.323 1.392.119.027.217.103.218.168.001.064.303.287.671.494.632.355.857.63.515.63-.11 0-.134.049-.084.168.26.624.276.695.176.795-.156.156-.68-.334-.81-.754-.078-.26-.198-.396-.451-.518-.19-.09-.369-.14-.398-.111-.029.029-.05.707-.046 1.507.006 1.114.054 1.656.207 2.317l.233 1.006c.018.08-.032.144-.111.144-.198 0-.616-.894-.817-1.747-.202-.856-.156-2.425.09-3.093.188-.508.07-.864-.284-.864-.116 0-.71-.087-1.32-.193L32.37 273l-.605.33c-.711.388-1.323.537-1.323.32 0-.176.224-.378.752-.677l.417-.236-.299-.177c-.74-.438-1.077-1.576-.733-2.477.16-.42.159-.433-.053-.72-.119-.16-.232-.292-.252-.292-.02 0-.183.112-.362.249-.347.264-1.034.415-1.136.25-.07-.113.524-.635.923-.812.304-.135.316-.208.12-.678-.08-.19-.144-.49-.144-.668 0-.219-.157-.583-.487-1.13-.73-1.208-.9-1.574-1.237-2.675-.366-1.195-.728-1.907-1.03-2.021-.325-.124-.676.053-.858.433-.153.322-.148.378.156 1.656.387 1.63 1.016 3.396 1.682 4.725.61 1.22.782 1.708.917 2.614.113.76.856 3.711 1.165 4.625.455 1.347 1.909 4.182 3.171 6.183.625.992 1.018 1.807 1.214 2.517.069.25.156.456.194.456.038 0 .343-.178.679-.395zm1.497-11.941c-.036-.035-.064-.205-.064-.377 0-.694.38-1.078.57-.576.104.27.035.615-.167.85-.156.18-.238.204-.34.103zm-4.732-.266c-.3-.132-.605-.57-.605-.864 0-.204.164-.186.28.03.11.205.616.441.797.372.095-.037.457-1.105.457-1.35 0-.026-.151-.098-.336-.159-.191-.063-.336-.175-.336-.26 0-.12.091-.14.487-.101.269.026.557.117.645.205.147.147.147.213.001.917-.225 1.09-.341 1.295-.75 1.323a1.614 1.614 0 0 1-.64-.113zm-4.181-4.428c-.104-.104.123-.421.442-.616.302-.184 1.024-.26 1.024-.107 0 .12-.392.454-.738.628-.317.16-.623.2-.728.095zm9.799-1.628c-.109-.13-.1-.174.054-.288.34-.247 1.009-.145 1.009.155a.262.262 0 0 1-.152.23c-.287.11-.784.057-.911-.097zm-10.514-.677c-.336-.133.125-.703.57-.703.198 0 .27.047.27.177 0 .307-.54.644-.84.526zm9.723-2.833c-.272-.204-.029-.34.837-.469.861-.128 1.048-.046.681.298-.298.28-1.233.385-1.518.17zm-.676-3.796c-.096-.155.03-.367.287-.484.587-.268 1.36.003.883.309-.285.183-1.09.304-1.17.175zM24.17 271.976c-.51-.999-.88-1.83-.834-1.875.045-.046.4-.127.79-.18.39-.055.715-.106.722-.115.016-.018-2.403-3.683-2.484-3.764-.029-.029.097.54.28 1.263.181.723.31 1.368.286 1.432-.025.064-.405.171-.844.238-.44.067-.847.148-.905.18-.062.036.716 1.007 1.87 2.335 1.086 1.252 1.989 2.276 2.005 2.277.017.001-.382-.805-.886-1.79zm19.529-.843c.988-1.132 1.63-1.942 1.567-1.977-.059-.033-.466-.114-.906-.18-.44-.068-.819-.175-.843-.239-.025-.064.104-.709.286-1.432.183-.724.308-1.292.28-1.263-.081.08-2.5 3.747-2.485 3.764.008.01.333.06.722.114.39.054.745.135.79.18.047.046-.324.888-.836 1.9-.76 1.503-.86 1.751-.584 1.434l2.009-2.301zm-7.163-4.26c-.085-.5-.22-1.011-.3-1.134-.452-.69-1.502-.796-2.103-.213-.517.5-.722 1.372-.464 1.972.088.207.25.692.36 1.08l.2.705 1.079.309c.593.17 1.11.342 1.15.382.04.04.109-.436.152-1.059.062-.888.046-1.329-.074-2.042zm-5.101 2.247c.386-.162 1.164-.185 1.738-.051.209.048.396.072.415.054.047-.048-.374-1.18-.823-2.209-.527-1.21-1.028-1.517-1.886-1.158-.376.157-.613.478-.728.984-.067.3-.027.485.257 1.172.355.857.592 1.351.649 1.351.018 0 .188-.064.378-.143zm-11.432-6.203l.853-.69v-1.02c0-.562.028-1.939.063-3.06l.064-2.041.344-.147c.189-.08.516-.151.727-.156.346-.01.4.023.551.326.144.288.168.628.17 2.397 0 1.133.037 2.118.081 2.188.063.098.281.019.971-.351l.89-.478-.017-2.142c-.023-2.695-.156-3.235-.87-3.53-.352-.146-.354-.177-.034-.481.783-.744 1.021-1.593.975-3.488-.03-1.234-.054-1.39-.272-1.776-.584-1.03-1.318-1.272-3.75-1.234l-1.667.027-.024 8.173c-.014 4.495.002 8.173.034 8.173s.442-.31.911-.69zm.949-11.236c0-2.547-.07-2.36.87-2.36.958 0 1.099.3 1.028 2.187-.044 1.183-.142 1.51-.571 1.903-.2.184-.993.513-1.235.513-.057 0-.092-.866-.092-2.243zm26.123 10.667c-.469-2.042-1.2-4.885-1.726-6.707-.289-1-.525-1.87-.525-1.935 0-.065.285-.787.633-1.604.71-1.665 1.714-4.226 1.814-4.627l.066-.262h-1.905l-.317.839c-.452 1.2-1.366 3.4-1.76 4.242l-.337.719-.008-1.015c-.004-.559-.036-1.864-.071-2.9l-.063-1.885h-1.917l.062 2.948c.035 1.621.091 4.42.126 6.221l.063 3.274 1.888.94v-2.053c0-2.041.001-2.055.255-2.522.14-.257.27-.453.29-.434.063.063.874 2.829 1.385 4.723l.503 1.863.869.71c.477.39.881.674.897.632.015-.043-.085-.568-.222-1.167zm-17.594-3.93c.927-.247 1.564-.599 2.02-1.117.648-.737.668-.875.668-4.75 0-2.364-.036-3.565-.113-3.823-.301-1.004-1.327-1.622-2.716-1.637-1.46-.016-2.393.546-2.825 1.704-.202.541-.22.793-.299 4.297-.058 2.53-.053 3.865.015 4.168.307 1.37 1.223 1.697 3.25 1.158zm-.925-1.522a.716.716 0 0 1-.312-.276c-.113-.211-.122-2.459-.02-5.498l.062-1.892.266-.266c.357-.357 1.1-.381 1.433-.046l.218.22-.024 3.458c-.017 2.531-.055 3.524-.143 3.706-.213.44-1.042.773-1.48.594zm10.394 1.256c.527-.378.798-1.577.655-2.908l-.067-.625-.785-.156a11.321 11.321 0 0 0-.904-.156c-.088 0-.12.259-.12.975 0 .802.054 1.166.305 2.062.33 1.182.36 1.208.916.808zm-3.861-.874c-.268-1.25-.104-2.176.413-2.34.175-.056.183-.184.175-2.94l-.01-2.883.27-.232c.311-.269.797-.306 1.21-.092.366.19.42.34.482 1.346l.052.863.893.1c.49.057.915.066.943.02.084-.136-.067-1.718-.217-2.258-.354-1.278-1.68-1.975-3.316-1.742-.818.116-1.3.355-1.733.86-.542.634-.562.815-.53 4.8l.03 3.604.29.468c.246.4 1.065 1.164 1.153 1.077.015-.016-.032-.308-.105-.65z" fill="#282828" filter="url(#f)" opacity=".3" transform="translate(0 -229.267)"/>
    <path d="M32.558 56.382c-1.223-.24-2.665-1.263-4.297-3.049-6.646-7.272-11.202-15.615-13.54-24.793-.572-2.245-.716-3.338-.645-4.925.232-5.254 3.896-8.974 10.854-11.022 5.334-1.569 12.305-1.453 17.535.291 6.374 2.127 9.684 5.712 9.906 10.73.07 1.588-.073 2.681-.645 4.926-2.338 9.175-6.897 17.524-13.54 24.793-1.679 1.837-3.073 2.81-4.377 3.056-.582.11-.657.11-1.251-.008zm2.684-1.248c.911-.59 1.624-1.244 2.86-2.626 1.873-2.094 2.768-3.233 2.84-3.613.095-.51-.132-1.834-.964-5.615-.026-.118-.131-1.024-.234-2.013-.972-9.373-.917-8.997-1.736-11.815-.748-2.576-.888-2.92-1.348-3.306-.253-.213-.373-.252-.651-.207-.188.03-.422.153-.52.273-.235.287-.176 1.012.222 2.711.17.73.336 1.804.4 2.589.208 2.563.524 4.644.813 5.369.24.599.27.793.273 1.805.003.801.033 1.086.1.972.254-.427.635-.908.72-.908.155 0 .106.593-.083 1.007-.096.21-.361.551-.589.757-.488.44-.599.32 1.149 1.25.687.366 1.249.722 1.249.791 0 .07-.039.126-.086.126s-.705-.286-1.462-.635c-1.932-.89-2.334-1.03-4.115-1.428-1.865-.417-2.294-.411-2.694.036-.47.525-.477 1.385-.017 1.932.42.499.398.492 4.323 1.391.119.028.217.103.218.168.001.065.303.287.671.494.632.356.857.63.515.63-.11 0-.134.049-.084.168.26.624.276.696.176.795-.156.156-.68-.333-.81-.754-.078-.26-.198-.396-.451-.517-.19-.09-.369-.141-.398-.112-.029.03-.05.707-.046 1.507.006 1.114.054 1.656.207 2.317l.233 1.007c.018.079-.032.143-.111.143-.198 0-.616-.893-.817-1.746-.202-.856-.156-2.425.09-3.094.188-.508.07-.864-.284-.864-.116 0-.71-.087-1.32-.193l-1.11-.192-.605.33c-.711.387-1.323.536-1.323.32 0-.177.224-.378.752-.678l.417-.236-.299-.177c-.74-.437-1.077-1.575-.733-2.476.16-.42.159-.434-.053-.72-.119-.16-.232-.292-.252-.292-.02 0-.183.112-.362.248-.347.265-1.034.416-1.136.25-.07-.112.524-.634.923-.811.304-.135.316-.208.12-.679-.08-.19-.144-.49-.144-.668 0-.219-.157-.583-.487-1.13-.73-1.208-.9-1.574-1.237-2.675-.366-1.195-.728-1.907-1.03-2.021-.325-.124-.676.053-.858.433-.153.322-.148.378.156 1.656.387 1.63 1.016 3.397 1.682 4.725.61 1.22.782 1.709.917 2.615.113.76.856 3.71 1.165 4.624.455 1.348 1.909 4.182 3.171 6.184.625.991 1.018 1.806 1.214 2.516.069.25.156.456.194.456.038 0 .343-.178.679-.395zm1.497-11.942c-.036-.035-.064-.205-.064-.377 0-.694.38-1.077.57-.576.104.27.035.615-.167.85-.156.18-.238.205-.34.103zm-4.732-.265c-.3-.133-.605-.57-.605-.864 0-.205.164-.187.28.03.11.205.616.44.797.371.095-.036.457-1.105.457-1.35 0-.026-.151-.098-.336-.159-.191-.063-.336-.174-.336-.259 0-.12.091-.14.487-.102.269.026.557.118.645.205.147.147.147.213.001.918-.225 1.09-.341 1.295-.75 1.322a1.614 1.614 0 0 1-.64-.112zm-4.181-4.429c-.104-.104.123-.421.442-.615.302-.185 1.024-.26 1.024-.108 0 .12-.392.454-.738.629-.317.16-.623.2-.728.094zm9.799-1.628c-.109-.13-.1-.174.054-.287.34-.248 1.009-.146 1.009.154a.262.262 0 0 1-.152.23c-.287.11-.784.057-.911-.097zm-10.514-.677c-.336-.133.125-.702.57-.702.198 0 .27.047.27.177 0 .306-.54.644-.84.525zm9.723-2.833c-.272-.204-.029-.34.837-.469.861-.128 1.048-.046.681.299-.298.28-1.233.384-1.518.17zm-.676-3.796c-.096-.155.03-.367.287-.484.587-.267 1.36.003.883.309-.285.183-1.09.304-1.17.175zM24.17 42.71c-.51-.999-.88-1.83-.834-1.875.045-.045.4-.127.79-.18.39-.054.715-.106.722-.114.016-.018-2.403-3.684-2.484-3.765-.029-.029.097.54.28 1.263.181.724.31 1.368.286 1.432-.025.065-.405.172-.844.239-.44.066-.847.148-.905.18-.062.035.716 1.006 1.87 2.335 1.086 1.25 1.989 2.275 2.005 2.277.017 0-.382-.805-.886-1.792zm19.529-.843c.988-1.131 1.63-1.942 1.567-1.977-.059-.032-.466-.114-.906-.18-.44-.067-.819-.174-.843-.239-.025-.064.104-.708.286-1.432.183-.723.308-1.292.28-1.263-.081.081-2.5 3.747-2.485 3.765.008.009.333.06.722.114.39.053.745.135.79.18.047.046-.324.887-.836 1.9-.76 1.503-.86 1.75-.584 1.433l2.009-2.3zm-7.163-4.26c-.085-.5-.22-1.01-.3-1.134-.452-.69-1.502-.796-2.103-.213-.517.5-.722 1.372-.464 1.973.088.206.25.692.36 1.08l.2.704 1.079.31c.593.17 1.11.341 1.15.382.04.04.109-.437.152-1.06.062-.888.046-1.329-.074-2.042zm-5.101 2.247c.386-.161 1.164-.184 1.738-.051.209.048.396.073.415.054.047-.048-.374-1.179-.823-2.208-.527-1.21-1.028-1.517-1.886-1.159-.376.157-.613.478-.728.984-.067.301-.027.486.257 1.172.355.857.592 1.352.649 1.352.018 0 .188-.065.378-.144zM20.003 33.65l.853-.69v-1.02c0-.561.028-1.938.063-3.06l.064-2.04.344-.148c.189-.08.516-.15.727-.156.346-.01.4.023.551.326.144.288.168.629.17 2.397 0 1.134.037 2.118.081 2.188.063.098.281.019.971-.351l.89-.478-.017-2.141c-.023-2.696-.156-3.236-.87-3.531-.352-.146-.354-.177-.034-.48.783-.744 1.021-1.594.975-3.488-.03-1.235-.054-1.392-.272-1.777-.584-1.03-1.318-1.272-3.75-1.233l-1.667.026-.024 8.173c-.014 4.495.002 8.173.034 8.173s.442-.31.911-.69zm.949-11.236c0-2.547-.07-2.359.87-2.359.958 0 1.099.3 1.028 2.186-.044 1.183-.142 1.51-.571 1.903-.2.184-.993.513-1.235.513-.057 0-.092-.866-.092-2.243zm26.123 10.667c-.469-2.042-1.2-4.884-1.726-6.706-.289-1-.525-1.871-.525-1.936 0-.065.285-.786.633-1.603.71-1.666 1.714-4.227 1.814-4.627l.066-.263h-1.905l-.317.839c-.452 1.2-1.366 3.401-1.76 4.242l-.337.72-.008-1.016c-.004-.558-.036-1.863-.071-2.9l-.063-1.885h-1.917l.062 2.948c.035 1.622.091 4.421.126 6.222l.063 3.273 1.888.94v-2.053c0-2.041.001-2.055.255-2.521.14-.258.27-.453.29-.434.063.062.874 2.828 1.385 4.723l.503 1.863.869.709c.477.39.881.674.897.632.015-.042-.085-.567-.222-1.167zm-17.594-3.93c.927-.247 1.564-.599 2.02-1.117.648-.736.668-.875.668-4.749 0-2.365-.036-3.565-.113-3.824-.301-1.004-1.327-1.622-2.716-1.637-1.46-.016-2.393.547-2.825 1.704-.202.541-.22.793-.299 4.298-.058 2.53-.053 3.864.015 4.167.307 1.37 1.223 1.697 3.25 1.158zm-.925-1.521a.716.716 0 0 1-.312-.277c-.113-.211-.122-2.458-.02-5.498l.062-1.892.266-.265c.357-.358 1.1-.382 1.433-.047l.218.22-.024 3.458c-.017 2.532-.055 3.525-.143 3.707-.213.44-1.042.772-1.48.594zm10.394 1.256c.527-.38.798-1.578.655-2.908l-.067-.626-.785-.156a11.321 11.321 0 0 0-.904-.155c-.088 0-.12.258-.12.974 0 .802.054 1.166.305 2.062.33 1.183.36 1.208.916.809zm-3.861-.874c-.268-1.25-.104-2.177.413-2.341.175-.056.183-.184.175-2.94l-.01-2.883.27-.232c.311-.269.797-.305 1.21-.092.366.19.42.341.482 1.346l.052.863.893.101c.49.056.915.065.943.02.084-.137-.067-1.72-.217-2.258-.354-1.279-1.68-1.975-3.316-1.743-.818.116-1.3.355-1.733.86-.542.634-.562.815-.53 4.801l.03 3.603.29.469c.246.4 1.065 1.164 1.153 1.076.015-.015-.032-.308-.105-.65z" fill="#8f3f71"/>
</svg>
