<svg width="256" height="256" xmlns="http://www.w3.org/2000/svg">
    <defs>
        <linearGradient id="e" x1="296" x2="296" y1="-212" y2="236" gradientUnits="userSpaceOnUse">
            <stop offset="0" stop-color="#ebdbb2"/>
            <stop offset=".125" stop-color="#ebdbb2" stop-opacity=".098"/>
            <stop offset=".925" stop-opacity=".098"/>
            <stop offset="1" stop-opacity=".498"/>
        </linearGradient>
        <clipPath id="d">
            <path d="M361.938-212C507.235-212 528-191.287 528-46.125v116.25C528 215.286 507.235 236 361.937 236H214.063C68.766 236 48 215.286 48 70.125v-116.25C48-191.287 68.765-212 214.063-212z" fill="#b16286"/>
        </clipPath>
        <linearGradient id="c" x1="88" x2="256" y1="28" y2="284" gradientTransform="matrix(1.01937 0 0 1.01937 -26.944 -32.905)" gradientUnits="userSpaceOnUse">
            <stop offset="0" stop-color="#ebdbb2"/>
            <stop offset="1" stop-color="#ebdbb2"/>
        </linearGradient>
        <filter id="b" x="-.01" y="-.01" width="1.023" height="1.025" color-interpolation-filters="sRGB">
            <feGaussianBlur stdDeviation="1.16"/>
        </filter>
        <filter id="a" x="-.02" y="-.03" width="1.046" height="1.05" color-interpolation-filters="sRGB">
            <feGaussianBlur stdDeviation="2.32"/>
        </filter>
        <filter id="f" x="-.05" y="-.05" width="1.094" height="1.098" color-interpolation-filters="sRGB">
            <feGaussianBlur stdDeviation=".39"/>
        </filter>
    </defs>
    <path transform="matrix(1.01937 0 0 1.01937 0 8.31)" d="M162.537 5.568c72.648 0 83.031 10.357 83.031 82.938v58.125c0 72.58-10.383 82.937-83.031 82.937H88.599c-72.648 0-83.031-10.357-83.031-82.937V88.506c0-72.581 10.383-82.938 83.031-82.938z" filter="url(#a)" opacity=".2"/>
    <path d="M165.685 11.947c74.055 0 84.64 10.557 84.64 84.544v59.25c0 73.987-10.585 84.544-84.64 84.544h-75.37c-74.055 0-84.64-10.557-84.64-84.543V96.49c0-73.987 10.585-84.544 84.64-84.544z" fill="none" opacity=".1" stroke-linecap="round" stroke-linejoin="round" stroke-width="4.077" stroke="#282828"/>
    <path transform="matrix(1.01937 0 0 1.01937 0 8.31)" d="M162.537 3.568c72.648 0 83.031 10.357 83.031 82.938v58.125c0 72.58-10.383 82.937-83.031 82.937H88.599c-72.648 0-83.031-10.357-83.031-82.937V86.506c0-72.581 10.383-82.938 83.031-82.938z" filter="url(#b)" opacity=".1"/>
    <path d="M165.685 11.947c74.055 0 84.64 10.557 84.64 84.544v59.25c0 73.987-10.585 84.544-84.64 84.544h-75.37c-74.055 0-84.64-10.557-84.64-84.543V96.49c0-73.987 10.585-84.544 84.64-84.544z" fill="url(#c)"/>
    <path transform="matrix(.50968 0 0 .50968 -18.789 120)" d="M361.938-212C507.235-212 528-191.287 528-46.125v116.25C528 215.286 507.235 236 361.937 236H214.063C68.766 236 48 215.286 48 70.125v-116.25C48-191.287 68.765-212 214.063-212z" clip-path="url(#d)" fill="none" opacity=".4" stroke-linecap="round" stroke-linejoin="round" stroke-width="8" stroke="url(#e)"/>
    <path d="M129.542 11.947v228.338h37.21c73.122 0 83.572-10.557 83.572-84.543V96.49c0-73.987-10.45-84.544-83.572-84.544z" fill="#ebdbb2" opacity=".2"/>
    <path d="M90.315 240.285c-74.055 0-84.64-10.557-84.64-84.543v-29.626h244.65v29.626c0 73.986-10.585 84.543-84.64 84.543z" fill="#ebdbb2" opacity=".25"/>
    <g transform="matrix(9.00004 0 0 9.47369 -16.001 -30.2)" fill="#282828" filter="url(#f)" opacity=".3">
        <path d="M11.158 8C7.943 9.72 6.005 12.825 6 16.298c.007 4.783 3.803 8.966 8.842 9.68.362.036.471.02.737 0 2.442 0 4.421-1.857 4.421-4.148-.002-1.573-.946-2.977-2.383-3.677 0 0-1.587-.683-2.29-1.037a37.031 37.031 0 0 1-2.903-1.511c-.533-.306-1.072-.663-1.556-1.214-.484-.552-.884-1.378-.884-2.242 0-1.677.346-2.955 1.174-4.149z"/>
        <path d="M20.842 25c3.215-1.72 5.153-4.825 5.158-8.298-.007-4.783-3.802-8.966-8.842-9.68-.361-.037-.47-.02-.737 0-2.442 0-4.42 1.857-4.42 4.148.001 1.573.945 2.977 2.382 3.677 0 0 1.588.683 2.29 1.037 1.017.477 1.887.9 2.953 1.51.534.307 1.072.664 1.556 1.215s.884 1.378.884 2.242c0 1.677-.396 2.955-1.224 4.149z"/>
    </g>
    <g fill="#458588">
        <path d="M84.421 45.59C55.49 61.883 38.048 91.303 38 124.201c.061 45.314 34.223 84.943 79.58 91.713 3.251.34 4.237.19 6.63 0 21.976 0 39.791-17.597 39.791-39.305-.02-14.899-8.515-28.203-21.449-34.834 0 0-14.287-6.468-20.607-9.82-9.157-4.522-16.535-8.524-26.132-14.317-4.798-2.897-9.646-6.28-14.001-11.503-4.355-5.224-7.953-13.051-7.953-21.24 0-15.885 3.113-27.991 10.563-39.305z"/>
        <path d="M171.578 206.643c28.935-16.295 46.377-45.71 46.422-78.613-.063-45.312-34.218-84.94-79.578-91.712-3.252-.34-4.238-.189-6.632 0-21.975 0-39.79 17.598-39.79 39.306.02 14.898 8.515 28.202 21.449 34.834 0 0 14.286 6.467 20.607 9.82 9.157 4.522 16.984 8.523 26.58 14.317 4.8 2.896 9.647 6.278 14.002 11.503 4.355 5.223 7.953 13.05 7.953 21.239 0 15.885-3.562 27.992-11.012 39.305z"/>
    </g>
</svg>
