<svg xmlns="http://www.w3.org/2000/svg" style="isolation:isolate" width="256" height="256">
    <g filter="url(#a)">
        <linearGradient id="b" x1=".567" x2=".567" y1="1.071" y2="-.071"
            gradientTransform="matrix(244.648 0 0 228.338 5.676 11.947)" gradientUnits="userSpaceOnUse">
            <stop offset="0%" stop-color="#3c3836" />
            <stop offset="100%" stop-color="#282828" />
        </linearGradient>
        <path fill="url(#b)"
            d="M165.685 11.947c74.055 0 84.639 10.557 84.639 84.544v59.251c0 73.986-10.584 84.543-84.639 84.543h-75.37c-74.055 0-84.639-10.557-84.639-84.543V96.491c0-73.987 10.584-84.544 84.639-84.544h75.37z" />
    </g>
    <defs>
     id="defs22">
    <filter
       id="a"
       width="1.0842484"
       height="1.1077841"
       x="-0.042124196"
       y="-0.045133094"
       color-interpolation-filters="sRGB"
       filterUnits="objectBoundingBox">
      <feGaussianBlur
         in="SourceGraphic"
         stdDeviation="4.294"
         id="feGaussianBlur11" />
      <feOffset
         dy="4"
         result="pf_100_offsetBlur"
         id="feOffset13" />
      <feFlood
         flood-opacity=".4"
         id="feFlood15" />
      <feComposite
         in2="pf_100_offsetBlur"
         operator="in"
         result="pf_100_dropShadow"
         id="feComposite17" />
      <feBlend
         in="SourceGraphic"
         in2="pf_100_dropShadow"
         id="feBlend19" />
    </filter>
    <filter
       id="i"
       x="-0.074214431"
       y="-0.050355349"
       width="1.1484289"
       height="1.1007107"
       color-interpolation-filters="sRGB">
      <feGaussianBlur
         stdDeviation="0.089997363"
         id="feGaussianBlur10" />
    </filter>
    <filter
       id="k"
       x="-0.06"
       y="-0.06"
       width="1.12"
       height="1.12"
       color-interpolation-filters="sRGB">
      <feGaussianBlur
         stdDeviation="0.264575"
         id="feGaussianBlur7" />
    </filter>
    <linearGradient
       id="f"
       x1="6.6145"
       x2="6.6145"
       y1="3.175"
       y2="13.758"
       gradientUnits="userSpaceOnUse">
      <stop
         stop-color="#83a598"
         offset="0"
         id="stop2-7" />
      <stop
         stop-color="#458588"
         offset="1"
         id="stop4-5" />
    </linearGradient>
  </defs>
  <path
     fill="#504945"
     opacity=".1"
     d="M87.22 11.83h81.549v228.338H87.22V11.83z"
     id="path24" />
  <path
     fill="#504945"
     opacity=".1"
     d="M5.676 126.116v29.626c0 73.986 10.584 84.543 84.639 84.543h75.37c74.055 0 84.639-10.557 84.639-84.543v-29.626H5.676z"
     id="path26" />
  <g
     opacity=".4"
     id="g39">
    <linearGradient
       id="c"
       x1=".517"
       x2=".517"
       y2="1"
       gradientTransform="matrix(244.65 0 0 228.34 5.68 11.95)"
       gradientUnits="userSpaceOnUse">
      <stop
         offset="0%"
         stop-color="#ebdbb2"
         id="stop28" />
      <stop
         offset="12.5%"
         stop-color="#ebdbb2"
         stop-opacity=".098"
         id="stop30" />
      <stop
         offset="92.5%"
         stop-opacity=".098"
         id="stop32" />
      <stop
         offset="100%"
         stop-opacity=".498"
         id="stop34" />
    </linearGradient>
    <path
       fill="url(#c)"
       fill-rule="evenodd"
       d="M165.068 11.951c4.328-.01 8.656.04 12.984.138 3.875.078 7.75.226 11.626.452 3.453.196 6.905.481 10.348.854 3.06.335 6.118.786 9.148 1.346a80.47 80.47 0 0 1 8.046 1.916 53.64 53.64 0 0 1 7.023 2.584 40.413 40.413 0 0 1 6.06 3.35 35.176 35.176 0 0 1 5.134 4.215 35.072 35.072 0 0 1 4.22 5.119 41.692 41.692 0 0 1 3.363 6.042 55.982 55.982 0 0 1 2.597 7.005 80.224 80.224 0 0 1 1.918 8.037 124.43 124.43 0 0 1 1.348 9.127c.374 3.439.659 6.878.856 10.326.226 3.861.373 7.732.462 11.593.088 4.323.138 8.646.128 12.96v58.21c.01 4.324-.04 8.637-.128 12.96a325.177 325.177 0 0 1-.462 11.593 200.984 200.984 0 0 1-.856 10.326 124.691 124.691 0 0 1-1.348 9.137 80.687 80.687 0 0 1-1.918 8.027 55.414 55.414 0 0 1-2.597 7.005 41.18 41.18 0 0 1-3.364 6.042 34.559 34.559 0 0 1-4.22 5.119 35.177 35.177 0 0 1-5.134 4.215 40.412 40.412 0 0 1-6.059 3.35 55.138 55.138 0 0 1-7.023 2.594 77.806 77.806 0 0 1-8.046 1.906 120 120 0 0 1-9.148 1.346c-3.443.373-6.895.658-10.348.854-3.875.226-7.75.374-11.626.462-4.328.088-8.656.138-12.984.128H90.942c-4.328.01-8.656-.04-12.984-.128a328.387 328.387 0 0 1-11.626-.462 203.003 203.003 0 0 1-10.348-.854 120 120 0 0 1-9.148-1.346 77.806 77.806 0 0 1-8.046-1.906 55.139 55.139 0 0 1-7.023-2.594 40.413 40.413 0 0 1-6.06-3.35 35.176 35.176 0 0 1-5.134-4.215 34.56 34.56 0 0 1-4.22-5.119 41.183 41.183 0 0 1-3.363-6.042 55.415 55.415 0 0 1-2.597-7.005 80.682 80.682 0 0 1-1.918-8.027 124.688 124.688 0 0 1-1.348-9.137 200.993 200.993 0 0 1-.856-10.326 325.212 325.212 0 0 1-.462-11.593 569.197 569.197 0 0 1-.128-12.96v-58.21c-.01-4.314.04-8.637.128-12.96.089-3.86.236-7.732.462-11.593.197-3.448.482-6.887.856-10.326.335-3.055.787-6.101 1.348-9.127a80.219 80.219 0 0 1 1.918-8.037 55.983 55.983 0 0 1 2.597-7.005 41.695 41.695 0 0 1 3.364-6.042 35.072 35.072 0 0 1 4.22-5.119 35.176 35.176 0 0 1 5.134-4.215 40.413 40.413 0 0 1 6.059-3.35 53.64 53.64 0 0 1 7.023-2.584 80.47 80.47 0 0 1 8.046-1.916 125.11 125.11 0 0 1 9.148-1.346c3.443-.373 6.895-.658 10.348-.854 3.875-.226 7.75-.374 11.626-.452 4.328-.098 8.656-.148 12.984-.138h74.126zm.01 4.009c4.298-.01 8.597.039 12.895.127 3.827.089 7.653.236 11.48.452 3.383.197 6.766.472 10.13.845 2.971.315 5.932.747 8.863 1.297a75.943 75.943 0 0 1 7.653 1.818 50.493 50.493 0 0 1 6.501 2.397 37.038 37.038 0 0 1 5.47 3.026 30.383 30.383 0 0 1 4.524 3.724 31.05 31.05 0 0 1 3.738 4.519 37.271 37.271 0 0 1 3.03 5.443 51.46 51.46 0 0 1 2.4 6.494 75.563 75.563 0 0 1 1.829 7.634c.54 2.928.974 5.875 1.298 8.842.374 3.36.65 6.73.846 10.11.217 3.822.374 7.634.453 11.456.088 4.293.137 8.577.137 12.87v58.212c0 4.293-.049 8.577-.137 12.87a317.503 317.503 0 0 1-.453 11.456c-.196 3.38-.472 6.75-.846 10.12a121.689 121.689 0 0 1-1.298 8.832 75.562 75.562 0 0 1-1.83 7.634 50.902 50.902 0 0 1-2.4 6.494 36.767 36.767 0 0 1-3.03 5.443 30.615 30.615 0 0 1-3.737 4.53 30.938 30.938 0 0 1-4.525 3.713 37.038 37.038 0 0 1-5.469 3.026 49.07 49.07 0 0 1-6.501 2.397 75.942 75.942 0 0 1-7.653 1.818c-2.931.55-5.892.982-8.863 1.306-3.364.364-6.747.649-10.13.836-3.827.216-7.653.373-11.48.452-4.298.098-8.597.137-12.895.137H90.932c-4.298 0-8.597-.04-12.895-.137a320.093 320.093 0 0 1-11.48-.452 193.696 193.696 0 0 1-10.13-.836 116.71 116.71 0 0 1-8.863-1.306 75.942 75.942 0 0 1-7.653-1.818 49.07 49.07 0 0 1-6.501-2.397 37.038 37.038 0 0 1-5.47-3.026 30.938 30.938 0 0 1-4.524-3.714 30.615 30.615 0 0 1-3.738-4.529 36.766 36.766 0 0 1-3.03-5.443 50.903 50.903 0 0 1-2.4-6.494 75.567 75.567 0 0 1-1.829-7.634 121.69 121.69 0 0 1-1.298-8.832c-.374-3.37-.65-6.74-.846-10.12a317.535 317.535 0 0 1-.453-11.456 623.851 623.851 0 0 1-.137-12.87V97.014c0-4.293.049-8.577.137-12.87.079-3.822.236-7.634.453-11.456.197-3.38.472-6.75.846-10.11.324-2.967.757-5.914 1.298-8.842a75.568 75.568 0 0 1 1.83-7.634 51.46 51.46 0 0 1 2.4-6.494 37.27 37.27 0 0 1 3.03-5.443 31.05 31.05 0 0 1 3.737-4.52 30.384 30.384 0 0 1 4.525-3.723 37.039 37.039 0 0 1 5.469-3.026 50.494 50.494 0 0 1 6.501-2.397 75.943 75.943 0 0 1 7.653-1.818c2.931-.55 5.892-.982 8.863-1.297 3.364-.373 6.747-.648 10.13-.845a344.71 344.71 0 0 1 11.48-.452c4.298-.088 8.597-.137 12.895-.127H165.078z"
       id="path37" />
  </g>
  <g
     transform="matrix(15.118408,0,0,15.118408,27.999289,-6.1957785e-6)"
     id="g30">
    <circle
       cx="6.6145"
       cy="8.4665003"
       r="5.2915001"
       filter="url(#k)"
       opacity="0.25"
       style="paint-order:stroke markers fill"
       id="circle24" />
    <circle
       cx="6.6145"
       cy="8.4665003"
       r="5.2915001"
       fill="url(#f)"
       style="fill:url(#f);paint-order:stroke markers fill"
       id="circle26" />
    <path
       transform="matrix(0.26458,0,0,0.26458,-0.26457,0)"
       d="M 26,16 A 15.999,15.999 0 0 0 15.816,19.6719 V 22.418 A 14,14 0 0 0 11.9996,32 14,14 0 0 0 15.816,41.5938 v 2.7363 A 15.999,15.999 0 0 0 26,48 15.999,15.999 0 0 0 41.998,32.002 15.999,15.999 0 0 0 26,16 Z"
       opacity="0.25"
       stroke-width="3.7796"
       style="paint-order:stroke markers fill"
       id="path28" />
  </g>
  <g
     transform="matrix(15.118408,0,0,15.118408,28.000498,-4.0366087e-4)"
     stroke-width="0.26458"
     aria-label="S"
     id="g36">
    <path
       d="M 7.8204,6.5323 V 7.07782 Q 7.50195,6.92552 7.2195,6.85075 6.93705,6.77598 6.67398,6.775983 q -0.45691,0 -0.70613,0.17722 -0.24645,0.17722 -0.24645,0.50398 0,0.27414 0.16338,0.41537 0.16615,0.13846 0.62582,0.2243 l 0.33783,0.069228 q 0.62582,0.11907 0.92212,0.42091 0.29907,0.29907 0.29907,0.80305 0,0.6009 -0.40429,0.91104 -0.40152,0.31014 -1.1797,0.31014 -0.29353,0 -0.62582,-0.06646 -0.32953,-0.06646 -0.68398,-0.19661 v -0.57598 q 0.3406,0.19107 0.66736,0.28799 0.32676,0.09692 0.64244,0.09692 0.47906,0 0.73936,-0.1883 0.2603,-0.1883 0.2603,-0.53721 0,-0.3046 -0.1883,-0.47629 Q 7.11146,8.783591 6.68501,8.697751 L 6.34441,8.631292 Q 5.71859,8.506682 5.4389,8.240842 5.15922,7.975002 5.15922,7.501482 q 0,-0.54829 0.38491,-0.86397 0.38768,-0.31568 1.0661,-0.31568 0.29076,0 0.59259,0.052614 0.30184,0.052613 0.61752,0.15784 z"
       filter="url(#i)"
       opacity="0.25"
       id="path32" />
    <path
       d="M 7.8204,6.5323 V 7.07782 Q 7.50195,6.92552 7.2195,6.85075 6.93705,6.77598 6.67398,6.775983 q -0.45691,0 -0.70613,0.17722 -0.24645,0.17722 -0.24645,0.50398 0,0.27414 0.16338,0.41537 0.16615,0.13846 0.62582,0.2243 l 0.33783,0.069228 q 0.62582,0.11907 0.92212,0.42091 0.29907,0.29907 0.29907,0.80305 0,0.6009 -0.40429,0.91104 -0.40152,0.31014 -1.1797,0.31014 -0.29353,0 -0.62582,-0.06646 -0.32953,-0.06646 -0.68398,-0.19661 v -0.57598 q 0.3406,0.19107 0.66736,0.28799 0.32676,0.09692 0.64244,0.09692 0.47906,0 0.73936,-0.1883 0.2603,-0.1883 0.2603,-0.53721 0,-0.3046 -0.1883,-0.47629 Q 7.11146,8.783591 6.68501,8.697751 L 6.34441,8.631292 Q 5.71859,8.506682 5.4389,8.240842 5.15922,7.975002 5.15922,7.501482 q 0,-0.54829 0.38491,-0.86397 0.38768,-0.31568 1.0661,-0.31568 0.29076,0 0.59259,0.052614 0.30184,0.052613 0.61752,0.15784 z"
       fill="#ebdbb2"
       id="path34" />
  </g>
</svg>
