<svg width="256" height="256" viewBox="0 0 67.73 67.73" xmlns="http://www.w3.org/2000/svg" xmlns:xlink="http://www.w3.org/1999/xlink">
    <defs>
        <linearGradient id="h" x1="296" x2="296" y1="-212" y2="236" gradientUnits="userSpaceOnUse">
            <stop offset="0" stop-color="#ebdbb2"/>
            <stop offset=".125" stop-color="#ebdbb2" stop-opacity=".098"/>
            <stop offset=".925" stop-opacity=".098"/>
            <stop offset="1" stop-opacity=".498"/>
        </linearGradient>
        <clipPath id="g">
            <path d="M361.938-212C507.235-212 528-191.287 528-46.125v116.25C528 215.286 507.235 236 361.937 236H214.063C68.766 236 48 215.286 48 70.125v-116.25C48-191.287 68.765-212 214.063-212z" fill="#b16286"/>
        </clipPath>
        <clipPath id="e">
            <path d="M191.433 45.067c77.492 0 88.567 11.047 88.567 88.466v62c0 77.42-11.075 88.467-88.567 88.467h-78.866C35.075 284 24 272.953 24 195.533v-62c0-77.42 11.075-88.466 88.567-88.466z" fill="#83a598"/>
        </clipPath>
        <linearGradient id="f" x1="-10.133" x2="314.133" y1="215.733" y2="215.733" gradientTransform="matrix(-.9375 0 0 .9375 268.068 -1.818)" gradientUnits="userSpaceOnUse">
            <stop offset="0" stop-opacity=".091"/>
            <stop offset=".5" stop-opacity=".848"/>
            <stop offset="1" stop-opacity="0"/>
        </linearGradient>
        <linearGradient id="d" x1="16" x2="352" y1="28" y2="332" gradientTransform="matrix(.26458 0 0 .26458 -6.993 221.973)" gradientUnits="userSpaceOnUse">
            <stop offset="0" stop-color="#458588"/>
            <stop offset="1" stop-color="#83a598"/>
        </linearGradient>
        <filter id="c" x="-.02" y="-.03" width="1.046" height="1.05" color-interpolation-filters="sRGB">
            <feGaussianBlur stdDeviation="2.32"/>
        </filter>
        <filter id="b" x="-.01" y="-.01" width="1.023" height="1.025" color-interpolation-filters="sRGB">
            <feGaussianBlur stdDeviation="1.16"/>
        </filter>
        <linearGradient id="i" x1="199.533" x2="39.679" y1="201.907" y2="42.053" gradientUnits="userSpaceOnUse">
            <stop offset="0" stop-color="#282828"/>
            <stop offset=".23" stop-color="#282828"/>
            <stop offset=".512" stop-color="#282828"/>
            <stop offset=".821" stop-color="#458588"/>
            <stop offset="1" stop-color="#b16286"/>
        </linearGradient>
        <linearGradient id="j" x1="10.243" x2="57.704" y1="95.311" y2="95.311" gradientUnits="userSpaceOnUse">
            <stop offset="0" stop-color="#458588"/>
            <stop offset=".247" stop-color="#458588"/>
            <stop offset=".536" stop-color="#458588"/>
            <stop offset=".845" stop-color="#458588"/>
            <stop offset="1" stop-color="#b16286"/>
        </linearGradient>
        <radialGradient id="k" cx="59.073" cy="113.923" r="85.247" gradientTransform="matrix(1 0 0 1.45 0 -51.265)" gradientUnits="userSpaceOnUse">
            <stop offset=".165" stop-color="#83a598"/>
            <stop offset=".548" stop-color="#458588"/>
            <stop offset=".655" stop-color="#458588"/>
            <stop offset=".864" stop-color="#458588"/>
            <stop offset="1" stop-color="#282828"/>
        </radialGradient>
        <linearGradient id="l" x1="44.539" x2="191.515" y1="57.897" y2="57.897" gradientUnits="userSpaceOnUse">
            <stop offset="0" stop-color="#458588"/>
            <stop offset=".185" stop-color="#458588"/>
            <stop offset=".683" stop-color="#458588"/>
            <stop offset=".941" stop-color="#b16286"/>
        </linearGradient>
        <linearGradient id="m" x1="66.174" x2="167.264" y1="23.206" y2="111.082" gradientUnits="userSpaceOnUse">
            <stop offset=".02" stop-color="#83a598"/>
            <stop offset=".388" stop-color="#458588"/>
            <stop offset=".497" stop-color="#458588"/>
            <stop offset=".789" stop-color="#458588"/>
            <stop offset=".941" stop-color="#b16286"/>
        </linearGradient>
        <linearGradient id="n" x1="19.676" x2="217.835" y1="337.414" y2="43.631" gradientUnits="userSpaceOnUse">
            <stop offset=".379" stop-color="#458588"/>
            <stop offset="1" stop-color="#b16286"/>
        </linearGradient>
        <linearGradient id="o" x1="96.745" x2="206.317" y1="278.646" y2="32.542" gradientUnits="userSpaceOnUse">
            <stop offset="0" stop-color="#83a598"/>
            <stop offset=".773" stop-color="#458588"/>
            <stop offset=".858" stop-color="#458588"/>
            <stop offset="1" stop-color="#b16286"/>
        </linearGradient>
        <linearGradient id="p" x1="48.269" x2="54.241" y1="92.034" y2="95.468" gradientUnits="userSpaceOnUse">
            <stop offset="0" stop-color="#83a598"/>
            <stop offset="1" stop-color="#83a598"/>
        </linearGradient>
        <linearGradient id="q" x1="176.214" x2="164.24" y1="23.085" y2="20.555" gradientUnits="userSpaceOnUse">
            <stop offset="0" stop-color="#076678"/>
            <stop offset=".22" stop-color="#076678"/>
            <stop offset=".656" stop-color="#076678"/>
            <stop offset="1" stop-color="#076678"/>
        </linearGradient>
        <linearGradient id="r" x1="80.784" x2="90.637" y1="38.025" y2="77.544" gradientUnits="userSpaceOnUse">
            <stop offset=".007" stop-color="#076678" stop-opacity="0"/>
            <stop offset=".248" stop-color="#076678" stop-opacity=".62"/>
            <stop offset=".642" stop-color="#076678" stop-opacity=".71"/>
            <stop offset="1" stop-color="#076678" stop-opacity=".5"/>
        </linearGradient>
        <linearGradient id="s" x1="48.738" x2="43.199" y1="14.373" y2="11.303" gradientTransform="rotate(1.985 -1624.088 732.523)" gradientUnits="userSpaceOnUse" xlink:href="#a"/>
        <linearGradient id="a" x1="48.738" x2="43.199" y1="14.373" y2="11.303" gradientTransform="rotate(1.985 -1624.088 732.523)" gradientUnits="userSpaceOnUse">
            <stop offset="0" stop-color="#fabd2f"/>
            <stop offset=".148" stop-color="#DEBA46"/>
            <stop offset=".379" stop-color="#DEBA46"/>
            <stop offset=".663" stop-color="#fe8019"/>
            <stop offset=".988" stop-color="#af3a03"/>
            <stop offset="1" stop-color="#af3a03"/>
        </linearGradient>
        <linearGradient id="t" x1="206.211" x2="169.43" y1="130.139" y2="47.526" gradientUnits="userSpaceOnUse">
            <stop offset="0" stop-color="#458588"/>
            <stop offset=".62" stop-color="#458588"/>
        </linearGradient>
        <linearGradient id="u" x1="176.76" x2="150.407" y1="103.061" y2="21.954" gradientUnits="userSpaceOnUse">
            <stop offset="0" stop-color="#458588"/>
            <stop offset=".403" stop-color="#458588"/>
            <stop offset=".508" stop-color="#458588"/>
            <stop offset=".649" stop-color="#458588"/>
            <stop offset=".816" stop-color="#458588"/>
            <stop offset=".984" stop-color="#458588"/>
        </linearGradient>
        <linearGradient id="v" x1="199.533" x2="39.679" y1="201.907" y2="42.053" gradientTransform="matrix(.64788 0 0 .64788 75.909 77.385)" gradientUnits="userSpaceOnUse">
            <stop offset="0" stop-color="#282828"/>
            <stop offset=".23" stop-color="#282828"/>
            <stop offset=".512" stop-color="#282828"/>
            <stop offset=".821" stop-color="#458588"/>
            <stop offset="1" stop-color="#b16286"/>
        </linearGradient>
        <linearGradient id="w" x1="10.243" x2="57.704" y1="95.311" y2="95.311" gradientTransform="matrix(.64788 0 0 .64788 75.909 77.385)" gradientUnits="userSpaceOnUse">
            <stop offset="0" stop-color="#458588"/>
            <stop offset=".247" stop-color="#458588"/>
            <stop offset=".536" stop-color="#458588"/>
            <stop offset=".845" stop-color="#458588"/>
            <stop offset="1" stop-color="#b16286"/>
        </linearGradient>
        <radialGradient id="x" cx="59.073" cy="113.923" r="85.247" gradientTransform="matrix(.64788 0 0 .93942 75.909 44.17)" gradientUnits="userSpaceOnUse">
            <stop offset=".165" stop-color="#83a598"/>
            <stop offset=".548" stop-color="#458588"/>
            <stop offset=".655" stop-color="#458588"/>
            <stop offset=".864" stop-color="#458588"/>
            <stop offset="1" stop-color="#282828"/>
        </radialGradient>
        <linearGradient id="y" x1="44.539" x2="191.515" y1="57.897" y2="57.897" gradientTransform="matrix(.64788 0 0 .64788 75.909 77.385)" gradientUnits="userSpaceOnUse">
            <stop offset="0" stop-color="#458588"/>
            <stop offset=".185" stop-color="#458588"/>
            <stop offset=".683" stop-color="#458588"/>
            <stop offset=".941" stop-color="#b16286"/>
        </linearGradient>
        <linearGradient id="z" x1="66.174" x2="167.264" y1="23.206" y2="111.082" gradientTransform="matrix(.64788 0 0 .64788 75.909 77.385)" gradientUnits="userSpaceOnUse">
            <stop offset=".02" stop-color="#83a598"/>
            <stop offset=".388" stop-color="#458588"/>
            <stop offset=".497" stop-color="#458588"/>
            <stop offset=".789" stop-color="#458588"/>
            <stop offset=".941" stop-color="#b16286"/>
        </linearGradient>
        <linearGradient id="A" x1="19.676" x2="217.835" y1="337.414" y2="43.631" gradientTransform="matrix(.64788 0 0 .64788 75.909 77.385)" gradientUnits="userSpaceOnUse">
            <stop offset=".379" stop-color="#458588"/>
            <stop offset="1" stop-color="#b16286"/>
        </linearGradient>
        <linearGradient id="B" x1="96.745" x2="206.317" y1="278.646" y2="32.542" gradientTransform="matrix(.64788 0 0 .64788 75.909 77.385)" gradientUnits="userSpaceOnUse">
            <stop offset="0" stop-color="#83a598"/>
            <stop offset=".773" stop-color="#458588"/>
            <stop offset=".858" stop-color="#458588"/>
            <stop offset="1" stop-color="#b16286"/>
        </linearGradient>
        <linearGradient id="C" x1="48.269" x2="54.241" y1="92.034" y2="95.468" gradientTransform="matrix(.64788 0 0 .64788 75.909 77.385)" gradientUnits="userSpaceOnUse">
            <stop offset="0" stop-color="#d3869b"/>
            <stop offset="1" stop-color="#83a598"/>
        </linearGradient>
        <linearGradient id="D" x1="176.214" x2="164.24" y1="23.085" y2="20.555" gradientTransform="matrix(.64788 0 0 .64788 75.909 77.385)" gradientUnits="userSpaceOnUse">
            <stop offset="0" stop-color="#076678"/>
            <stop offset=".22" stop-color="#076678"/>
            <stop offset=".656" stop-color="#076678"/>
            <stop offset="1" stop-color="#076678"/>
        </linearGradient>
        <linearGradient id="E" x1="80.784" x2="90.637" y1="38.025" y2="77.544" gradientTransform="matrix(.64788 0 0 .64788 75.909 77.385)" gradientUnits="userSpaceOnUse">
            <stop offset=".007" stop-color="#076678" stop-opacity="0"/>
            <stop offset=".248" stop-color="#076678" stop-opacity=".62"/>
            <stop offset=".642" stop-color="#076678" stop-opacity=".71"/>
            <stop offset="1" stop-color="#458588" stop-opacity=".5"/>
        </linearGradient>
        <linearGradient id="F" x1="48.738" x2="43.199" y1="14.373" y2="11.303" gradientTransform="matrix(.6475 .02261 -.02261 .6475 91.84 114.392)" gradientUnits="userSpaceOnUse" xlink:href="#a"/>
        <linearGradient id="G" x1="206.211" x2="169.43" y1="130.139" y2="47.526" gradientTransform="matrix(.64788 0 0 .64788 75.909 77.385)" gradientUnits="userSpaceOnUse">
            <stop offset="0" stop-color="#458588"/>
            <stop offset=".62" stop-color="#458588"/>
        </linearGradient>
        <linearGradient id="H" x1="176.76" x2="150.407" y1="103.061" y2="21.954" gradientTransform="matrix(.64788 0 0 .64788 75.909 77.385)" gradientUnits="userSpaceOnUse">
            <stop offset="0" stop-color="#458588"/>
            <stop offset=".403" stop-color="#458588"/>
            <stop offset=".508" stop-color="#458588"/>
            <stop offset=".649" stop-color="#458588"/>
            <stop offset=".816" stop-color="#458588"/>
            <stop offset=".984" stop-color="#458588"/>
        </linearGradient>
    </defs>
    <path transform="matrix(.26458 0 0 .26458 0 3.404)" d="M162.537 3.568c72.648 0 83.031 10.357 83.031 82.938v58.125c0 72.58-10.383 82.937-83.031 82.937H88.599c-72.648 0-83.031-10.357-83.031-82.937V86.506c0-72.581 10.383-82.938 83.031-82.938z" filter="url(#b)" opacity=".1"/>
    <path transform="scale(.26458)" d="M5.568 101.37v56.124c0 9.073.162 17.173.588 24.402.213 3.615.493 7.012.85 10.204.357 3.191.793 6.18 1.32 8.974s1.145 5.396 1.867 7.819c.723 2.422 1.548 4.664 2.49 6.74a38.763 38.763 0 0 0 3.192 5.736 32.67 32.67 0 0 0 3.965 4.813 32.686 32.686 0 0 0 4.818 3.959 38.848 38.848 0 0 0 5.744 3.187c2.078.941 4.323 1.765 6.748 2.486 2.425.722 5.03 1.34 7.827 1.866 2.797.526 5.787.961 8.982 1.318 3.195.357 6.597.635 10.215.848 7.236.425 15.345.586 24.426.586h73.937c9.081 0 17.19-.161 24.426-.586a195.72 195.72 0 0 0 10.213-.848c3.195-.357 6.185-.792 8.982-1.318 2.798-.527 5.403-1.144 7.828-1.866 2.425-.72 4.67-1.545 6.748-2.486 2.078-.941 3.988-2 5.745-3.187a32.67 32.67 0 0 0 4.816-3.96 32.682 32.682 0 0 0 3.967-4.812c1.188-1.754 2.246-3.66 3.19-5.736s1.77-4.318 2.491-6.74c.723-2.423 1.34-5.024 1.868-7.819a121.39 121.39 0 0 0 1.32-8.974c.357-3.192.637-6.589.85-10.204.425-7.229.587-15.33.587-24.402V101.37c0-72.58-10.382-82.937-83.03-82.937H88.6c-72.649 0-83.032 10.356-83.032 82.937z" filter="url(#c)" opacity=".2"/>
    <path d="M43.005 233.614c19.221 0 21.968 2.74 21.968 21.944v15.38c0 19.203-2.747 21.943-21.968 21.943H23.442c-19.222 0-21.969-2.74-21.969-21.944v-15.379c0-19.204 2.747-21.944 21.969-21.944z" fill="url(#d)" transform="translate(0 -229.267)"/>
    <g transform="matrix(-.24805 0 0 .24805 70.926 -6.831)" clip-path="url(#e)">
        <path transform="matrix(-1.06667 0 0 1.06667 285.94 27.54)" d="M5.568 107.182v50.312c0 9.073.162 17.173.588 24.402.213 3.615.493 7.012.85 10.204.357 3.191.793 6.18 1.32 8.974s1.145 5.396 1.867 7.819c.723 2.422 1.548 4.664 2.49 6.74a38.763 38.763 0 0 0 3.192 5.736 32.67 32.67 0 0 0 3.965 4.813 32.686 32.686 0 0 0 4.818 3.959 38.848 38.848 0 0 0 5.744 3.187c2.078.941 4.323 1.765 6.748 2.486 2.425.722 5.03 1.34 7.827 1.866 2.797.526 5.787.961 8.982 1.318 3.195.357 6.597.635 10.215.848 7.236.425 15.345.586 24.426.586h73.937c9.081 0 17.19-.161 24.426-.586a195.72 195.72 0 0 0 10.213-.848c3.195-.357 6.185-.792 8.982-1.318 2.798-.527 5.403-1.144 7.828-1.866 2.425-.72 4.67-1.545 6.748-2.486 2.078-.941 3.988-2 5.745-3.187a32.67 32.67 0 0 0 4.816-3.96 32.682 32.682 0 0 0 3.967-4.812c1.188-1.754 2.246-3.66 3.19-5.736s1.77-4.318 2.491-6.74c.723-2.423 1.34-5.024 1.868-7.819a121.39 121.39 0 0 0 1.32-8.974c.357-3.192.637-6.589.85-10.204.425-7.229.587-15.33.587-24.402v-50.312l-120 53.25-120-53.25z" fill-rule="evenodd" fill="url(#f)" filter="url(#filter1033)" opacity=".2"/>
        <path d="M280 138.666v56.867c0 9.677-.173 18.318-.627 26.03a208.027 208.027 0 0 1-.907 10.882c-.38 3.405-.846 6.593-1.408 9.573s-1.221 5.756-1.992 8.34c-.77 2.584-1.65 4.976-2.656 7.19a41.347 41.347 0 0 1-3.404 6.118 34.848 34.848 0 0 1-4.23 5.134 34.866 34.866 0 0 1-5.139 4.223 41.437 41.437 0 0 1-6.127 3.4c-2.216 1.004-4.611 1.882-7.198 2.652-2.586.769-5.364 1.428-8.348 1.99-2.984.56-6.173 1.025-9.581 1.405-3.408.38-7.036.678-10.896.905-7.719.453-16.368.625-26.054.625h-78.867c-9.686 0-18.335-.172-26.054-.625-3.86-.227-7.485-.524-10.894-.905-3.408-.38-6.597-.844-9.58-1.406-2.985-.561-5.764-1.22-8.35-1.99-2.587-.769-4.982-1.647-7.199-2.651a41.438 41.438 0 0 1-6.127-3.4 34.848 34.848 0 0 1-5.137-4.223 34.861 34.861 0 0 1-4.232-5.134c-1.267-1.87-2.396-3.905-3.402-6.118s-1.888-4.606-2.658-7.19c-.77-2.584-1.43-5.359-1.992-8.34-.562-2.98-1.027-6.168-1.408-9.573-.381-3.404-.68-7.027-.906-10.883-.454-7.711-.627-16.352-.627-26.03v-56.866l128 60 128-60z" fill-rule="evenodd" fill="#83a598"/>
        <path d="M273.216 255.366c-.282.705-.5 1.51-.806 2.182a41.347 41.347 0 0 1-3.404 6.118 34.848 34.848 0 0 1-4.23 5.134 34.866 34.866 0 0 1-5.139 4.223 41.437 41.437 0 0 1-6.127 3.4c-2.216 1.004-4.611 1.882-7.198 2.652-2.586.769-5.364 1.428-8.348 1.99-2.984.56-6.173 1.025-9.581 1.405-3.408.38-7.036.678-10.896.905-7.719.453-16.368.625-26.054.625h-78.867c-9.686 0-18.335-.172-26.054-.625-3.86-.227-7.485-.524-10.894-.905-3.408-.38-6.597-.844-9.58-1.406-2.985-.561-5.764-1.22-8.35-1.99-2.587-.769-4.982-1.647-7.199-2.651a41.438 41.438 0 0 1-6.127-3.4 34.848 34.848 0 0 1-5.137-4.223 34.861 34.861 0 0 1-4.232-5.134c-1.267-1.87-2.396-3.905-3.402-6.118s-1.888-4.606-2.658-7.19c-.77-2.584-1.43-5.359-1.992-8.34-.562-2.98-1.027-6.168-1.408-9.573-.381-3.404-.68-7.027-.906-10.883-.454-7.711-.627-16.352-.627-26.03v-56.5l249.216 116.334z" fill-rule="evenodd" fill="#ebdbb2" opacity=".2"/>
        <path d="M279.6 212.177c-.096 3.027-.064 6.605-.227 9.385a208.027 208.027 0 0 1-.907 10.883c-.38 3.405-.846 6.593-1.408 9.573-.397 2.106-.907 3.986-1.406 5.892l-4.186 1.84v-34l8.134-3.573z" fill="#458588"/>
        <path d="M280 160.933l-8.533 3.75v34l8.533-3.75z" fill="#fb4934"/>
        <path d="M28.348 247.91c-.5-1.906-1.01-3.786-1.407-5.892-.562-2.98-1.027-6.168-1.408-9.573-.381-3.404-.68-7.027-.906-10.883-.164-2.78-.132-6.358-.227-9.385l8.133 3.573v34l-4.185-1.84z" fill="#458588"/>
        <path d="M24 160.933v34l8.533 3.75v-34z" fill="#fb4934"/>
    </g>
    <path transform="matrix(.1323 0 0 .1323 -4.877 32.393)" d="M361.938-212C507.235-212 528-191.287 528-46.125v116.25c0 28.684-.81 52.508-3.233 72.274C514.931 222.663 478.524 236 361.937 236H214.063C68.766 236 48 215.286 48 70.125v-116.25C48-191.287 68.765-212 214.063-212z" clip-path="url(#g)" fill="none" opacity=".4" stroke-linecap="round" stroke-linejoin="round" stroke-width="8" stroke="url(#h)"/>
    <g transform="matrix(.26458 0 0 .26458 -8.028 -7.305)">
        <g transform="matrix(.64788 0 0 .64788 75.909 77.385)">
            <path class="st1" d="M188.887 35.492c-14.501-9.472-33.046-12.538-43.281-13.609-10.954-1.145-20.468-.943-28.836.285-.709-.009-1.414-.037-2.127-.037-.544 0-1.08.023-1.627.029.225-.275.381-.445.381-.445s-.44.069-1.304.46c-2.717.044-5.421.138-8.085.32 3.711-4.068 6.751-6.2 6.751-6.2s-3.608.528-10.192 6.496c-3.132.288-6.221.67-9.258 1.145 6.918-9.362 14.155-13.304 14.155-13.304s-8.772-1.786-22.507 12.016a60.522 60.522 0 0 0-3.246 3.572C39.68 35.907 11.03 61.758 11.03 92.139c0 5.958-1.829 12.511.143 19.054-.788 10.453.89 38.975.89 38.975s10.837 58.649 52.51 68.846c.662.158-8.707-14.62-12.851-32.442 8.069 8.208 17.685 14.699 28.478 15.824 1.325.137-6.165-8.64-12.725-19.234l94.698 31.906c49.529-21.274 43.763-19.357 54.397-30.875 23.428-25.36 26.708-39.75 20.806-82.235-3.993-28.679-25.16-57.083-48.489-66.466z" fill="url(#i)"/>
            <path class="st2" fill="#ebdbb2" d="M201.94 95.59L22.69 62.28l-14.14 80.4 7.84 24.29 156.52 52.04z"/>
            <path class="st3" d="M23.128 65.01c.785 1.689.554 2.089.065 2.089-.22 0-.492-.081-.747-.161-.255-.081-.494-.161-.648-.161-.433 0-.189.639 2.263 3.72 3.468 4.406 54.399 81.293 57.182 81.293a.125.125 0 0 0 .04-.006c23.71-8.448 124.543-43.058 124.543-43.058L195.51 93.697 23.128 65.01" fill="#a89984"/>
            <path class="st4" d="M24.607 63.121s.76 3.932 4.281 8.284c3.5 4.392 50.51 75.571 52.869 74.944 30.795-8.176 142.525-51.674 142.525-51.674z" fill="#ebdbb2"/>
            <path class="st3" fill="#a89984" d="M19.09 171.18l149.89 49.83-1.66-3.85L18.57 167.7z"/>
            <path class="st5" d="M57.704 59.795s-54.122 15.85-29.288 71.033c0 0-11.387-10.426-18.167-23.757-.305-.597 11.301-41.829 11.301-41.829z" fill="url(#j)"/>
            <path class="st6" d="M28.416 130.828c-4.707-.081-12.269-3.964-14.722-8.665-3.066 51.098 17.782 80.939 50.88 96.853C53.759 217.776 0 189.407 0 121.14 0 63.093 46.06 11.208 118.142 8.831c.442 3.254-35.736 11.414-36.893 15.251-1.796 5.972-5.924 12.473-9.406 17.684-4.718 7.061 6.557 13.099-1.729 15.001-12.468 2.861-29.098 1.277-41.361 17.219-18.434 23.965-6.133 51.379-.337 56.842z" fill="url(#k)"/>
            <path class="st7" d="M137.048 10.699c-46.682-3.582-70.707 15.097-86.13 36.817-5.617 7.906-5.002 15.166-3.068 23.937.831 3.744 1.671 5.538.659 9.355-.558 2.106-.465 4.072-1.158 5.314-.959 1.717-2.18 3.594-2.589 6.677-1.022 7.699 1.703 10.151 3.406 12.741 2.426-2.409 7.165-8.079 15.71-11.466s14.167-8.477 24.876-13.941c14.632-7.463 31.782 3.859 64.3-6.796 10.006-3.279 33.002-37.344 38.461-38.652-15.203-16.812-41.067-22.959-54.467-23.986z" fill="url(#l)"/>
            <path class="st8" d="M106.207.032s-8.335 4.026-11.965 11.301c8.381-4.225 13.246-6.533 15.546-6.808 0 0-2.203 1.067-4.935 6.87 4.83-1.547 6.493-2.522 7.819-2.537 0 0-.385.61-.737 6.402-7.417-2.404-21.693.397-29.287 5.153C80.072 6.678 106.207.032 106.207.032z" fill="#3D87C1"/>
            <path class="st9" d="M139.379 8.63c-14.309-1.854-26.27-1.489-36.439.47 3.198-3.065 6.898-4.575 6.898-4.575-4.795.424-10.781 3.554-15.917 6.868a71.737 71.737 0 0 0-7.39 2.799c1.43-1.885 3.094-3.899 4.72-5.445C97.29 3.004 106.257.032 106.257.032 98.603-.53 72.989 6.027 57.576 37.245c-2.526 3.077-4.883 6.235-7.129 9.398-5.798 8.164-5.162 15.658-3.162 24.715.852 3.867 1.009 10.04.168 14.029-.168.799-2.363 2.863-2.926 8.428-.602 5.905 1.505 8.804 3.582 11.203 7.38-10.792 14.661-12.931 14.661-12.931 10.33-4.232 14.63-8.752 25.688-14.393 15.108-7.709 67.939 17.45 101.512 6.448 10.332-3.384-3.977-47.359 1.663-48.709-15.699-17.36-38.494-25.02-52.254-26.803z" fill="url(#m)"/>
            <path class="st10" d="M244.176 103.288c-8.276-43.237-48.096-82.572-80.117-84.752-14.211-.968-9.847 6.319-18.739 9.094-38.32 11.959-38.906 18.941-38.906 18.941 81.252 3.819 82.484 84.064 60.724 104.366 6.123-1.428 12.762-8.914 18.859-20.666-.732 4.931-1.36 10.98-2.274 17.729-2.788 20.595.823 63.614-58.356 92.405 0 0 32.372-2.646 48.425-20.717-6.528 15.012-24.441 23.121-24.441 23.121 13.182-1.928 47.81-12.146 69.868-39.732 24.966-31.225 32.474-60.519 24.957-99.789z" fill="url(#n)"/>
            <path class="st11" d="M164.993 182.221s26.396-7.38 34.903-21.633c-1.032 16.619-16.107 33.662-16.107 33.662s22.038-4.46 31.436-19.968c-1.224 13.994-18.191 32.907-18.191 32.907 17.346-3.113 60.93-30.645 47.143-103.901-8.142-43.262-48.096-82.572-80.117-84.752-14.211-.968-9.847 6.319-18.739 9.094-38.32 11.959-38.906 18.941-38.906 18.941 81.252 3.819 102.844 46.344 60.724 103.231 6.123-1.429 8.578-4.794 13.178-10.301-.002 0 2.084 21.78-15.324 42.72z" fill="url(#o)"/>
            <path class="st12" d="M60.609 85.567s-4.719 3.301-8.136 2.46c-4.045-.993-4.73-4.913-4.73-4.913-.089.803-.192 1.578-.341 2.273-.168.799-2.363 2.863-2.926 8.428-.602 5.905 1.615 9.325 3.692 11.724C55.549 94.747 62.72 92.087 62.72 92.087c-2.809-.982-2.111-6.52-2.111-6.52z" fill="url(#p)"/>
            <g class="st16" opacity=".6">
                <g class="st17" opacity=".2">
                    <path class="st18" d="M163.513 18.434c1.106-.287 5.621.204 8.584 1.533 2.964 1.329 8.073 3.679 3.986 4.701-4.088 1.022-6.438-.613-8.482-2.351s-6.847-3.168-4.088-3.883z" fill="url(#q)"/>
                </g>
            </g>
            <path class="st19" d="M61.051 84.921s25.888-42.662 49.292-54.175c2.173-1.093-32.405 9.191-46.32 24.55-8.271 9.129-3.891 27.002-2.972 29.625z" fill="url(#r)"/>
            <path class="st20" d="M61.051 84.921l.075-.045c6.694-4.136 18.166-6.518 21.864-14.015 14.237-28.869 27.354-40.115 27.354-40.115-23.405 11.513-49.293 54.175-49.293 54.175z" fill="#ebdbb2" opacity=".1"/>
            <path class="st21" d="M63.512 77.118s-4.666-7.159 2.053-13.687c3.546-3.44 8.919-1.529 9.54-.91 2.644 2.622.982 8.156-1.398 11.288-1.345 1.764-5.259 4.51-10.195 3.309z" fill="#458588"/>
            <path class="st22" d="M66.187 76.674s-3.224-4.949 1.422-9.459c2.446-2.376 6.161-1.056 6.592-.63 1.826 1.812.676 5.637-.968 7.8-.929 1.223-3.635 3.119-7.046 2.289z" fill="url(#s)"/>
            <path d="M72.623 71.393c-.072 1.978-1.746 3.522-3.738 3.454-1.996-.069-3.558-1.726-3.487-3.704.071-1.977 1.744-3.521 3.741-3.453 1.992.069 3.553 1.727 3.484 3.703z"/>
            <circle class="st24" cx="66.725" cy="70.287" r="1.136" fill="#ebdbb2"/>
            <path class="st23" d="M228.505 65.01c-17.721-26.976-31.761-33.831-31.761-33.831s.645 19.65 10.484 29.128c1.124 1.083-11.774-8.432-11.774-8.432s-2.758 9.076 3.562 19.51c-1.836-2.439-3.051-3.363-3.051-3.363s-11.908 5.491-15.423 13.109c-1.815-3.426-3.176-5.444-3.176-5.444s-8.236 16.437-7.201 35.495c1.684 30.988-5.803 42.404-5.803 42.404s20.057-7.695 29.676-32.468c3.974 10.533-.121 21.619-.121 21.619s16.206-12.109 19.691-34.18c3.863 6.23 2.727 18.664 2.727 18.664s10.344-14.402 10.596-30.086c4.794 3.343 5.235 16.399 5.235 16.399s15.336-19.606-3.661-48.524z" fill="url(#t)"/>
            <path class="st25" d="M211.282 46.158c-4.631-8.63-12.803-14.13-19.986-18.582-17.909-11.105-29.427-12.665-29.427-12.665s-16.528 3.074-13.689 7.672c.146.236.487.535.968.877-14.498-6.678-22.722 8.677-22.722 8.677-8.284-.503-18.371 3.575-21.312 14.499-.305 1.134 3.711.496 5.777.945 12.079 2.626 23.45 8.32 28.675 11.134 12.154 6.548 19.365 17.451 23.528 25.629 5.037 9.894 7.094 27.304 7.094 27.304s13.253-18.205 10.086-27.552c5.249 3.26 6.285 14.891 6.285 14.891s8.835-13.838 6.223-25.891c6.815 4.153 7.042 12.601 7.042 12.601s6.939-9.631 3.803-25.427c6.858 5.453 8.293 12.517 8.293 12.517s5.606-14.993-.638-26.629z" fill="url(#u)"/>
        </g>
        <path class="st1" d="M198.285 100.38c-9.395-6.137-21.41-8.124-28.041-8.818-7.097-.742-13.261-.61-18.682.185-.46-.006-.917-.024-1.378-.024-.353 0-.7.015-1.055.019.146-.178.247-.289.247-.289s-.285.045-.845.298c-1.76.029-3.512.09-5.238.208 2.405-2.636 4.374-4.017 4.374-4.017s-2.337.342-6.603 4.209c-2.03.186-4.03.434-5.998.741 4.482-6.065 9.17-8.619 9.17-8.619s-5.683-1.157-14.581 7.785a39.211 39.211 0 0 0-2.103 2.314c-25.935 6.276-44.497 23.024-44.497 42.708 0 3.86-1.185 8.105.092 12.344-.51 6.773.577 25.251.577 25.251s7.021 37.998 34.02 44.604c.429.103-5.64-9.472-8.326-21.018 5.228 5.318 11.458 9.523 18.45 10.252.859.089-3.994-5.598-8.244-12.461l61.353 20.67c32.089-13.782 28.353-12.54 35.243-20.002 15.178-16.43 17.303-25.754 13.48-53.279-2.587-18.58-16.301-36.983-31.415-43.062z" fill="url(#v)"/>
        <path class="st2" fill="#ebdbb2" d="M206.741 139.315L90.61 117.735l-9.161 52.09 5.08 15.736 101.405 33.716z"/>
        <path class="st3" d="M90.893 119.503c.508 1.095.359 1.354.042 1.354-.143 0-.319-.053-.484-.105-.165-.052-.32-.104-.42-.104-.28 0-.122.414 1.466 2.41 2.247 2.855 35.244 52.668 37.047 52.668.01 0 .018 0 .026-.004 15.361-5.473 80.689-27.896 80.689-27.896l-6.683-9.737-111.683-18.586" fill="#a89984"/>
        <path class="st4" d="M91.851 118.28s.492 2.547 2.774 5.367c2.267 2.845 32.724 48.96 34.252 48.554 19.952-5.297 92.34-33.478 92.34-33.478z" fill="#ebdbb2"/>
        <path class="st3" fill="#a89984" d="M184.312 218.078L87.94 186.034l.337 2.255 97.11 32.284z"/>
        <path class="st5" d="M113.294 116.125s-35.065 10.269-18.975 46.02c0 0-7.378-6.754-11.77-15.391-.198-.387 7.321-27.1 7.321-27.1z" fill="url(#w)"/>
        <path class="st6" d="M94.319 162.145c-3.05-.052-7.949-2.568-9.538-5.613-1.987 33.105 11.52 52.438 32.964 62.749-7.007-.804-41.836-19.183-41.836-63.412 0-37.608 29.841-71.223 76.541-72.763.287 2.108-23.152 7.395-23.902 9.88-1.163 3.87-3.838 8.082-6.094 11.458-3.056 4.575 4.248 8.487-1.12 9.719-8.078 1.853-18.852.827-26.797 11.156-11.943 15.526-3.973 33.287-.218 36.826z" fill="url(#x)"/>
        <path class="st7" d="M164.7 84.316c-30.245-2.32-45.81 9.781-55.803 23.853-3.639 5.122-3.24 9.826-1.987 15.509.538 2.425 1.082 3.588.427 6.06-.362 1.365-.302 2.639-.75 3.443-.622 1.113-1.413 2.329-1.678 4.326-.662 4.988 1.103 6.577 2.207 8.255 1.571-1.56 4.642-5.234 10.178-7.429 5.536-2.194 9.178-5.492 16.117-9.032 9.48-4.835 20.59 2.5 41.658-4.403 6.483-2.124 21.382-24.194 24.918-25.042-9.85-10.892-26.606-14.874-35.288-15.54z" fill="url(#y)"/>
        <path class="st8" d="M144.718 77.405s-5.4 2.609-7.752 7.322c5.43-2.737 8.582-4.232 10.072-4.41 0 0-1.427.69-3.197 4.45 3.129-1.002 4.206-1.634 5.066-1.643 0 0-.25.395-.478 4.147-4.805-1.557-14.054.258-18.974 3.339-1.67-8.899 15.263-13.205 15.263-13.205z" fill="#3D87C1"/>
        <path class="st9" d="M166.21 82.976c-9.271-1.201-17.02-.965-23.609.304 2.072-1.985 4.47-2.964 4.47-2.964-3.107.275-6.985 2.303-10.313 4.45a46.475 46.475 0 0 0-4.788 1.813c.927-1.22 2.005-2.526 3.058-3.527 3.913-3.721 9.722-5.647 9.722-5.647-4.958-.364-21.553 3.884-31.539 24.11a109.263 109.263 0 0 0-4.619 6.089c-3.756 5.289-3.344 10.144-2.048 16.012.552 2.505.653 6.505.109 9.09-.11.517-1.531 1.854-1.896 5.46-.39 3.825.975 5.703 2.32 7.258 4.782-6.992 9.5-8.378 9.5-8.378 6.692-2.742 9.478-5.67 16.642-9.325 9.788-4.994 44.016 11.306 65.767 4.178 6.694-2.193-2.576-30.683 1.078-31.558-10.171-11.247-24.94-16.21-33.855-17.365z" fill="url(#z)"/>
        <path class="st10" d="M234.105 144.303c-5.362-28.012-31.16-53.497-51.906-54.91-9.207-.626-6.38 4.095-12.14 5.893-24.827 7.748-25.207 12.271-25.207 12.271 52.642 2.474 53.44 54.463 39.342 67.617 3.967-.926 8.268-5.776 12.218-13.39-.474 3.195-.88 7.114-1.473 11.487-1.806 13.343.533 41.214-37.808 59.867 0 0 20.974-1.714 31.374-13.422-4.23 9.726-15.835 14.98-15.835 14.98 8.54-1.25 30.975-7.87 45.266-25.742 16.175-20.23 21.04-39.209 16.17-64.651z" fill="url(#A)"/>
        <path class="st11" d="M182.804 195.442s17.102-4.781 22.613-14.016c-.668 10.767-10.435 21.81-10.435 21.81s14.278-2.89 20.366-12.938c-.793 9.067-11.785 21.32-11.785 21.32 11.238-2.017 39.475-19.854 30.543-67.315-5.275-28.029-31.16-53.497-51.906-54.91-9.207-.626-6.38 4.095-12.14 5.893-24.828 7.748-25.207 12.271-25.207 12.271 52.641 2.474 66.63 30.025 39.342 66.881 3.967-.925 5.557-3.106 8.537-6.673 0 0 1.35 14.11-9.928 27.677z" fill="url(#B)"/>
        <path class="st12" d="M115.176 132.822s-3.057 2.138-5.271 1.594c-2.62-.644-3.065-3.183-3.065-3.183-.057.52-.124 1.022-.22 1.472-.11.518-1.531 1.855-1.896 5.46-.39 3.826 1.046 6.042 2.392 7.596 4.782-6.992 9.428-8.715 9.428-8.715-1.82-.636-1.368-4.224-1.368-4.224z" fill="url(#C)"/>
        <path class="st18" d="M181.845 89.328c.717-.186 3.642.132 5.562.993 1.92.86 5.23 2.383 2.582 3.046-2.648.662-4.17-.398-5.495-1.524-1.324-1.126-4.436-2.052-2.649-2.515z" fill="url(#D)"/>
        <path class="st19" d="M115.462 132.403s16.773-27.64 31.936-35.099c1.407-.708-20.995 5.955-30.01 15.906-5.359 5.914-2.521 17.494-1.926 19.193z" fill="url(#E)"/>
        <path class="st20" d="M115.462 132.403l.049-.029c4.337-2.68 11.77-4.223 14.165-9.08 9.224-18.704 17.722-25.99 17.722-25.99-15.163 7.46-31.936 35.1-31.936 35.1z" fill="#ebdbb2" opacity=".1"/>
        <path class="st21" d="M117.057 127.348s-3.023-4.638 1.33-8.868c2.297-2.228 5.778-.99 6.18-.59 1.714 1.7.637 5.285-.905 7.314-.871 1.143-3.407 2.922-6.605 2.144z" fill="#458588"/>
        <path class="st22" d="M118.79 127.06s-2.089-3.206.921-6.128c1.585-1.54 3.992-.684 4.271-.408 1.183 1.174.438 3.652-.627 5.053-.602.793-2.355 2.02-4.565 1.483z" fill="url(#F)"/>
        <path d="M122.96 123.639a2.335 2.335 0 0 1-2.422 2.238c-1.293-.045-2.305-1.119-2.26-2.4a2.334 2.334 0 0 1 2.424-2.237 2.33 2.33 0 0 1 2.258 2.399z"/>
        <circle class="st24" cx="119.138" cy="122.922" r=".736" fill="#ebdbb2"/>
        <path class="st23" d="M223.952 119.503c-11.48-17.477-20.577-21.918-20.577-21.918s.418 12.73 6.792 18.871c.729.702-7.628-5.463-7.628-5.463s-1.787 5.88 2.308 12.64c-1.19-1.58-1.977-2.178-1.977-2.178s-7.715 3.557-9.992 8.493c-1.176-2.22-2.058-3.527-2.058-3.527s-5.336 10.649-4.665 22.996c1.091 20.077-3.76 27.473-3.76 27.473s12.995-4.986 19.227-21.035c2.575 6.824-.079 14.006-.079 14.006s10.5-7.845 12.758-22.144c2.503 4.036 1.767 12.092 1.767 12.092s6.701-9.331 6.865-19.493c3.106 2.166 3.391 10.625 3.391 10.625s9.936-12.702-2.372-31.438z" fill="url(#G)"/>
        <path class="st25" d="M212.794 107.29c-3-5.592-8.295-9.155-12.949-12.04-11.602-7.194-19.065-8.205-19.065-8.205s-10.708 1.992-8.869 4.97c.095.154.316.347.628.569-9.393-4.327-14.722 5.622-14.722 5.622-5.367-.326-11.902 2.316-13.807 9.393-.198.735 2.404.322 3.743.612 7.825 1.702 15.192 5.39 18.578 7.214 7.874 4.242 12.546 11.306 15.243 16.604 3.263 6.41 4.596 17.69 4.596 17.69s8.586-11.795 6.534-17.85c3.401 2.112 4.072 9.647 4.072 9.647s5.724-8.965 4.032-16.774c4.415 2.69 4.563 8.164 4.563 8.164s4.495-6.24 2.463-16.474c4.444 3.533 5.373 8.11 5.373 8.11s3.632-9.714-.413-17.252z" fill="url(#H)"/>
    </g>
</svg>
