<svg width="256" height="256" version="1.0" xmlns="http://www.w3.org/2000/svg" enable-background="new">
    <defs>
        <filter id="a" x="-.02" y="-.03" width="1.046" height="1.05" color-interpolation-filters="sRGB">
            <feGaussianBlur stdDeviation="2.32"/>
        </filter>
        <filter id="b" x="-.01" y="-.01" width="1.023" height="1.025" color-interpolation-filters="sRGB">
            <feGaussianBlur stdDeviation="1.16"/>
        </filter>
        <linearGradient id="g" x1="296" x2="296" y1="-212" y2="236" gradientUnits="userSpaceOnUse">
            <stop offset="0" stop-color="#ebdbb2"/>
            <stop offset=".125" stop-color="#ebdbb2" stop-opacity=".098"/>
            <stop offset=".925" stop-opacity=".098"/>
            <stop offset="1" stop-opacity=".498"/>
        </linearGradient>
        <clipPath id="f">
            <path d="M361.938-212C507.235-212 528-191.287 528-46.125v116.25C528 215.286 507.235 236 361.937 236H214.063C68.766 236 48 215.286 48 70.125v-116.25C48-191.287 68.765-212 214.063-212z" fill="#b16286"/>
        </clipPath>
        <radialGradient id="d" cx="34.115" cy="282.914" r="32.388" gradientTransform="matrix(4.8058 -3.43886 2.33514 3.34772 -697.352 -595.277)" gradientUnits="userSpaceOnUse">
            <stop offset="0" stop-color="#665c54"/>
            <stop offset=".5" stop-color="#665c54"/>
            <stop offset="1" stop-color="#665c54"/>
        </radialGradient>
        <filter id="e" x="-.6" y="-.11" width="2.198" height="1.212" color-interpolation-filters="sRGB">
            <feGaussianBlur stdDeviation="2.03"/>
        </filter>
        <linearGradient id="c" x1="70.533" x2="39.067" y1="138.028" y2="98.522" gradientUnits="userSpaceOnUse">
            <stop offset="0" stop-color="#ebdbb2"/>
            <stop offset="1" stop-color="#ebdbb2"/>
        </linearGradient>
    </defs>
    <path d="M162.537 62.432c72.648 0 83.031 10.357 83.031 82.937v58.125c0 72.581-10.383 82.938-83.031 82.938H88.599c-72.648 0-83.031-10.357-83.031-82.938V145.37c0-72.58 10.383-82.937 83.031-82.937z" filter="url(#a)" opacity=".2" transform="translate(0 -44)"/>
    <path d="M162.537 61.432c72.648 0 83.031 10.357 83.031 82.937v58.125c0 72.581-10.383 82.938-83.031 82.938H88.599c-72.648 0-83.031-10.357-83.031-82.938V144.37c0-72.58 10.383-82.937 83.031-82.937z" filter="url(#b)" opacity=".1" transform="translate(0 -44)"/>
    <path d="M162.537 60.432c72.648 0 83.031 10.357 83.031 82.937v58.125c0 72.581-10.383 82.938-83.031 82.938H88.599c-72.648 0-83.031-10.357-83.031-82.938V143.37c0-72.58 10.383-82.937 83.031-82.937z" fill="url(#c)" transform="translate(0 -44)"/>
    <path d="M5.627 143.656v56.834c0 9.183.163 17.381.588 24.698.213 3.658.491 7.096.848 10.326.358 3.23.793 6.254 1.32 9.082.526 2.828 1.143 5.462 1.865 7.914.721 2.452 1.548 4.72 2.49 6.82.943 2.101 2 4.033 3.188 5.808a33.002 33.002 0 0 0 3.966 4.872 32.754 32.754 0 0 0 4.813 4.008 38.704 38.704 0 0 0 5.742 3.227c2.077.953 4.319 1.788 6.742 2.517 2.423.73 5.026 1.355 7.821 1.887 2.795.533 5.783.972 8.976 1.332 3.193.361 6.59.643 10.205.858 7.231.43 15.333.593 24.408.593h73.887c9.075 0 17.177-.164 24.408-.593a193.38 193.38 0 0 0 10.205-.858c3.193-.36 6.18-.8 8.976-1.332 2.795-.532 5.398-1.157 7.821-1.887 2.424-.73 4.666-1.564 6.742-2.517a38.704 38.704 0 0 0 5.742-3.227 32.753 32.753 0 0 0 4.814-4.008 33.002 33.002 0 0 0 3.965-4.872 39.398 39.398 0 0 0 3.188-5.808c.942-2.1 1.769-4.368 2.49-6.82.722-2.452 1.339-5.086 1.866-7.914a124.25 124.25 0 0 0 1.319-9.082c.357-3.23.635-6.668.848-10.326.425-7.317.588-15.515.588-24.698v-58.832c0-2.43.192-14.042.167-16.336C216.027 68.538 110.333 227.23 5.627 143.656z" fill="url(#d)" transform="translate(0 -44)"/>
    <path transform="matrix(3.70255 0 0 3.77953 4.082 -865.64)" d="M16.157 240.017a22.536 22.536 0 0 0-2.236 3.443c-2.652 4.98-4.262 11.78-4.262 19.283s1.61 14.305 4.262 19.285c.8 1.501 1.7 2.84 2.686 3.985l1.184-.732c-.959-1.083-1.851-2.39-2.655-3.9-2.516-4.724-4.102-11.332-4.102-18.638s1.586-13.912 4.102-18.636a21.328 21.328 0 0 1 2.032-3.156c-.267-.245-.623-.576-1.011-.934z" fill="#ebdbb2" filter="url(#e)" opacity=".87"/>
    <path transform="matrix(.5 0 0 .5 -18.432 122.432)" d="M361.938-212C507.235-212 528-191.287 528-46.125v116.25C528 215.286 507.235 236 361.937 236H214.063C68.766 236 48 215.286 48 70.125v-116.25C48-191.287 68.765-212 214.063-212z" clip-path="url(#f)" fill="none" opacity=".4" stroke-linecap="round" stroke-linejoin="round" stroke-width="8" stroke="url(#g)"/>
</svg>
