<svg width="256" height="256" viewBox="0 0 67.73 67.73" xmlns="http://www.w3.org/2000/svg">
    <defs>
        <linearGradient id="e" x1="296" x2="296" y1="-212" y2="236" gradientUnits="userSpaceOnUse">
            <stop offset="0" stop-color="#ebdbb2"/>
            <stop offset=".125" stop-color="#ebdbb2" stop-opacity=".098"/>
            <stop offset=".925" stop-opacity=".098"/>
            <stop offset="1" stop-opacity=".498"/>
        </linearGradient>
        <clipPath id="d">
            <path d="M361.938-212C507.235-212 528-191.287 528-46.125v116.25C528 215.286 507.235 236 361.937 236H214.063C68.766 236 48 215.286 48 70.125v-116.25C48-191.287 68.765-212 214.063-212z" fill="#b16286"/>
        </clipPath>
        <filter id="b" x="-.01" y="-.01" width="1.023" height="1.025" color-interpolation-filters="sRGB">
            <feGaussianBlur stdDeviation="1.16"/>
        </filter>
        <filter id="a" x="-.02" y="-.03" width="1.046" height="1.05" color-interpolation-filters="sRGB">
            <feGaussianBlur stdDeviation="2.32"/>
        </filter>
        <linearGradient id="c" x1="7.5" x2="64.112" y1="230.789" y2="294.501" gradientTransform="matrix(1.01937 0 0 1.01937 0 -5.711)" gradientUnits="userSpaceOnUse">
            <stop offset="0" stop-color="#fb4934"/>
            <stop offset="1" stop-color="#fb4934"/>
        </linearGradient>
        <linearGradient id="g" x1="17.197" x2="27.308" y1="11.627" y2="31.453" gradientTransform="matrix(1.5119 0 0 1.5119 -2.42 226.314)" gradientUnits="userSpaceOnUse">
            <stop offset="0" stop-color="#ebdbb2"/>
            <stop offset="1" stop-color="#ebdbb2"/>
        </linearGradient>
        <filter id="f" x="-.04" y="-.06" width="1.079" height="1.122" color-interpolation-filters="sRGB">
            <feGaussianBlur stdDeviation=".696"/>
        </filter>
    </defs>
    <path transform="matrix(.2697 0 0 .2697 0 2.199)" d="M162.537 5.568c72.648 0 83.031 10.357 83.031 82.938v58.125c0 72.58-10.383 82.937-83.031 82.937H88.599c-72.648 0-83.031-10.357-83.031-82.937V88.506c0-72.581 10.383-82.938 83.031-82.938z" filter="url(#a)" opacity=".2"/>
    <path d="M43.837 3.161c19.594 0 22.395 2.793 22.395 22.369v15.677c0 19.575-2.8 22.369-22.395 22.369H23.896c-19.594 0-22.394-2.794-22.394-22.37V25.53c0-19.576 2.8-22.369 22.394-22.369z" fill="none" opacity=".1" stroke-linecap="round" stroke-linejoin="round" stroke-width="1.079" stroke="#282828"/>
    <path transform="matrix(.2697 0 0 .2697 0 2.199)" d="M162.537 3.568c72.648 0 83.031 10.357 83.031 82.938v58.125c0 72.58-10.383 82.937-83.031 82.937H88.599c-72.648 0-83.031-10.357-83.031-82.937V86.506c0-72.581 10.383-82.938 83.031-82.938z" filter="url(#b)" opacity=".1"/>
    <path d="M43.837 232.428c19.594 0 22.395 2.793 22.395 22.369v15.676c0 19.576-2.8 22.37-22.395 22.37H23.896c-19.594 0-22.394-2.794-22.394-22.37v-15.676c0-19.576 2.8-22.37 22.394-22.37z" fill="url(#c)" transform="translate(0 -229.267)"/>
    <path transform="matrix(.13485 0 0 .13485 -4.971 31.75)" d="M361.938-212C507.235-212 528-191.287 528-46.125v116.25C528 215.286 507.235 236 361.937 236H214.063C68.766 236 48 215.286 48 70.125v-116.25C48-191.287 68.765-212 214.063-212z" clip-path="url(#d)" fill="none" opacity=".4" stroke-linecap="round" stroke-linejoin="round" stroke-width="8" stroke="url(#e)"/>
    <path d="M23.896 63.576c-19.594 0-22.394-2.794-22.394-22.37v-7.838h64.73v7.839c0 19.575-2.8 22.369-22.395 22.369z" fill="#ebdbb2" opacity=".1"/>
    <path d="M33.867 3.161v60.415h9.97c19.594 0 22.395-2.794 22.395-22.37V25.53c0-19.576-2.8-22.369-22.395-22.369z" fill="#ebdbb2" opacity=".1"/>
    <path d="M24.69 248.993c-.1.002-.213.012-.342.017-.49.029-9.733 1.762-10.321 1.933-.622.18-1.153.562-1.283.923-.221.614.42 2.611 1.265 3.952 3.372 4.005 7.117 5.022 10.786 7.18.421.494.588.732-2.643 2.163-5.05 2.236-6.683 4.137-7.65 6.95-.286.832-.419 3.03-.217 3.583.261.717.418.862 5.297-.064 4.9-.93 4.495-.984 4.904-1.371.333-.316.352-.392.497-1.884.084-.855.257-2.525.384-2.967.294-1.027 1.034-2.1 1.84-2.667 3.057-2.151 8.81-1.079 11.924 2.223 1.173 1.244 1.91 3.019 2.498 4.948.339 1.113.683 1.597 1.218 1.703.493.098.505-.057 6.74-1.24 3.469-.659 4.912-.979 5.116-1.138.439-.341.44-1.177.003-2.558-.75-2.372-2.05-3.95-4.458-5.774-1.192-.903-2.697-1.757-5.244-2.977-2.424-1.16-3.578-1.474-3.578-1.834 0-.298.952-.431 2.874-1.006 4.212-1.26 6.242-3.029 6.242-6.303 0-1.436-.272-2.596-.693-2.972-.561-.5-1.546-.516-3.9-.09-7.548 1.364-7.029 1.311-7.38 1.88-.185.3-.177.37.164 1.736.196.783.353 1.763.352 1.99-.003.483-.63 1.29-.938 1.578-.751.704-2.455 1.183-4.2 1.183-2.11 0-3.7-.725-5.279-2.407-1.141-1.215-1.724-2.391-2.501-4.555-.683-1.9-.777-2.148-1.478-2.136z" filter="url(#f)" opacity=".3" transform="translate(0 -229.267)"/>
    <path d="M24.69 248.993c-.1.002-.213.012-.342.017-.49.029-9.733 1.762-10.321 1.933-.622.18-1.153.562-1.283.923-.221.614.42 2.611 1.265 3.952 3.372 4.005 7.117 5.022 10.786 7.18.421.494.588.732-2.643 2.163-5.05 2.236-6.683 4.137-7.65 6.95-.286.832-.419 3.03-.217 3.583.261.717.418.862 5.297-.064 4.9-.93 4.495-.984 4.904-1.371.333-.316.352-.392.497-1.884.084-.855.257-2.525.384-2.967.294-1.027 1.034-2.1 1.84-2.667 3.057-2.151 8.81-1.079 11.924 2.223 1.173 1.244 1.91 3.019 2.498 4.948.339 1.113.683 1.597 1.218 1.703.493.098.505-.057 6.74-1.24 3.469-.659 4.912-.979 5.116-1.138.439-.341.44-1.177.003-2.558-.75-2.372-2.05-3.95-4.458-5.774-1.192-.903-2.697-1.757-5.244-2.977-2.424-1.16-3.578-1.474-3.578-1.834 0-.298.952-.431 2.874-1.006 4.212-1.26 6.242-3.029 6.242-6.303 0-1.436-.272-2.596-.693-2.972-.561-.5-1.546-.516-3.9-.09-7.548 1.364-7.029 1.311-7.38 1.88-.185.3-.177.37.164 1.736.196.783.353 1.763.352 1.99-.003.483-.63 1.29-.938 1.578-.751.704-2.455 1.183-4.2 1.183-2.11 0-3.7-.725-5.279-2.407-1.141-1.215-1.724-2.391-2.501-4.555-.683-1.9-.777-2.148-1.478-2.136z" fill="url(#g)" transform="translate(0 -229.267)"/>
</svg>
