<?xml version="1.0" encoding="UTF-8" standalone="no"?>
<svg
   id="svg32"
   width="256"
   height="256"
   enable-background="new"
   version="1.0"
   sodipodi:docname="yuzu.svg"
   inkscape:version="1.1.1 (3bf5ae0d25, 2021-09-20)"
   xmlns:inkscape="http://www.inkscape.org/namespaces/inkscape"
   xmlns:sodipodi="http://sodipodi.sourceforge.net/DTD/sodipodi-0.dtd"
   xmlns="http://www.w3.org/2000/svg"
   xmlns:svg="http://www.w3.org/2000/svg">
  <sodipodi:namedview
     id="namedview30"
     pagecolor="#505050"
     bordercolor="#ffffff"
     borderopacity="1"
     inkscape:pageshadow="0"
     inkscape:pageopacity="0"
     inkscape:pagecheckerboard="1"
     showgrid="false"
     inkscape:zoom="3.0664062"
     inkscape:cx="61.146498"
     inkscape:cy="128"
     inkscape:window-width="1920"
     inkscape:window-height="1022"
     inkscape:window-x="0"
     inkscape:window-y="1110"
     inkscape:window-maximized="1"
     inkscape:current-layer="svg32" />
  <defs
     id="defs20">
    <filter
       id="a"
       x="-0.023199999"
       y="-0.024857142"
       width="1.0464"
       height="1.0497143"
       color-interpolation-filters="sRGB">
      <feGaussianBlur
         id="feGaussianBlur2"
         stdDeviation="2.32" />
    </filter>
    <filter
       id="b"
       x="-0.0116"
       y="-0.012428571"
       width="1.0232"
       height="1.0248571"
       color-interpolation-filters="sRGB">
      <feGaussianBlur
         id="feGaussianBlur5"
         stdDeviation="1.16" />
    </filter>
    <linearGradient
       id="d"
       x1="296"
       x2="296"
       y1="-212"
       y2="236"
       gradientUnits="userSpaceOnUse">
      <stop
         id="stop8"
         stop-color="#ebdbb2"
         offset="0" />
      <stop
         id="stop10"
         stop-color="#ebdbb2"
         stop-opacity=".098"
         offset=".125" />
      <stop
         id="stop12"
         stop-opacity=".098"
         offset=".925" />
      <stop
         id="stop14"
         stop-opacity=".498"
         offset="1" />
    </linearGradient>
    <clipPath
       id="c">
      <path
         id="path17"
         d="M361.938-212C507.235-212 528-191.287 528-46.125v116.25C528 215.286 507.235 236 361.937 236H214.063C68.766 236 48 215.286 48 70.125v-116.25C48-191.287 68.765-212 214.063-212z"
         fill="#b16286" />
    </clipPath>
    <clipPath
       id="clip-path-3">
      <rect
         id="rect853-6"
         class="cls-1"
         x="-43"
         y="-46.67"
         width="699.6"
         height="777.33" />
    </clipPath>
  </defs>
  <path
     id="path22"
     transform="matrix(1.0194 0 0 1.0191 0 -49.582)"
     d="m162.54 62.432c72.648 0 83.031 10.357 83.031 82.937v58.125c0 72.581-10.383 82.938-83.031 82.938h-73.938c-72.648 0-83.031-10.357-83.031-82.938v-58.124c0-72.58 10.383-82.937 83.031-82.937z"
     filter="url(#a)"
     opacity=".2" />
  <path
     id="path24"
     transform="matrix(1.0194 0 0 1.0191 0 -49.582)"
     d="m162.54 61.432c72.648 0 83.031 10.357 83.031 82.937v58.125c0 72.581-10.383 82.938-83.031 82.938h-73.938c-72.648 0-83.031-10.357-83.031-82.938v-58.124c0-72.58 10.383-82.937 83.031-82.937z"
     filter="url(#b)"
     opacity=".1" />
  <g
     id="g964">
    <path
       id="path26"
       d="m165.69 12.006c74.055 0 84.639 10.555 84.639 84.522v59.236c0 73.968-10.584 84.523-84.639 84.523h-75.37c-74.055 0-84.639-10.555-84.639-84.523v-59.235c0-73.967 10.584-84.522 84.639-84.522z"
       fill="#ebdbb2"
       stroke-width="1.0192" />
    <path
       id="path28"
       transform="matrix(.50968 0 0 .50956 -18.789 120.03)"
       d="m361.94-212c145.3 0 166.06 20.713 166.06 165.88v116.25c0 145.16-20.765 165.88-166.06 165.88h-147.87c-145.3 0-166.06-20.714-166.06-165.88v-116.25c0-145.16 20.765-165.88 166.06-165.88z"
       clip-path="url(#c)"
       fill="none"
       opacity=".4"
       stroke="url(#d)"
       stroke-linecap="round"
       stroke-linejoin="round"
       stroke-width="8" />
    <path
       id="path30"
       d="m90.316 240.29c-74.057 0-84.64-10.551-84.64-84.49v-29.606h244.65v29.606c0 73.939-10.584 84.49-84.639 84.49z"
       fill="#ebdbb2"
       opacity=".25"
       stroke-width="1.0192" />
  </g>
  <g
     id="g1725"
     transform="matrix(0.74999607,0,0,0.74999607,32.000098,32.000428)"
     style="isolation:isolate">
    <path
       id="path835"
       class="cls-3"
       transform="matrix(0.29405,0,0,0.29405,37.786,27.435)"
       d="m 340.81,138 v 544.08 c 150.26,0 272.06,-121.81 272.06,-272.06 C 612.87,259.77 491.07,138 340.81,138 M 394,197.55 a 219.06,219.06 0 0 1 0,424.94 V 197.55"
       fill="#fb4934" />
    <g
       id="left"
       transform="matrix(0.29405,0,0,0.29405,37.786,27.435)"
       fill="#83a598">
      <g
         id="g869"
         class="cls-2"
         clip-path="url(#clip-path-3)"
         fill="#83a598">
        <g
           id="g839"
           fill="#83a598">
          <g
             id="g845"
             fill="#83a598">
            <path
               id="path847"
               class="cls-4"
               d="M 272.79,1.92 C 122.53,1.92 0.73,123.73 0.73,274 c 0,150.27 121.8,272.07 272.06,272.07 z m -53.14,59.59 v 425 A 219,219 0 0 1 118,119.18 217.51,217.51 0 0 1 219.65,61.51"
               fill="#83a598" />
          </g>
        </g>
      </g>
    </g>
  </g>
</svg>
