<svg width="16" height="16" version="1.1" xmlns="http://www.w3.org/2000/svg">
  <defs>
    <style id="current-color-scheme" type="text/css">.ColorScheme-Text { color:#ebdbb2; } .ColorScheme-Highlight { color:#458588; }</style>
  </defs>
  <path class="ColorScheme-Text" d="m7.0918 1-0.15625 0.27148 3.2949 5.7051 3.4531-5.9766zm7.666 0.14062c-0.007913 0.0018917-4.8281 8.3594-4.8281 8.3594h5.0703v-7.8594c0-0.20262-0.095342-0.38233-0.24219-0.5zm-8.3984 1.1328-1.8652 3.2266h3.7285zm-2.4434 4.2266-2.916 5.0488 0.00195 2.8574c0.012434 0.17024 0.09298 0.32034 0.21289 0.42773l4.8125-8.334zm3.5547 0c-0.18517 0.0023161-0.36104 0.11164-0.45313 0.26953-0.18726 0.32465-0.37341 0.64793-0.56055 0.97266-0.090675 0.16155-0.090816 0.36672 0 0.52539 9.932e-4 0.00196 0.56182 0.97355 0.5625 0.97461 0.09463 0.15923 0.27217 0.25705 0.45508 0.25781 9.931e-4 0 0.70898 0.0015 1.0625 0 0.18531-0.0023 0.36104-0.10578 0.45312-0.26367 0.18757-0.32467 0.37649-0.64917 0.5625-0.97461 0.12787-0.2279 0.03843-0.4475-0.0098-0.52734l-0.55465-0.96094s-9.93e-4 -0.00425-2e-3 -0.00586c-0.094442-0.15923-0.27017-0.26681-0.45308-0.26758-0.97111 0-0.27852-5.59e-4 -1.0625 0zm-1.7168 2.4766-3.4805 6.0234h6.959zm2.0352 1.5234 2.5996 4.5h3.9844c0.34776-0.006824 0.62695-0.29128 0.62695-0.64062v-3.8594z" fill="currentColor"/>
</svg>
