<svg width="16" height="16" version="1.1" xmlns="http://www.w3.org/2000/svg">
  <defs>
    <style id="current-color-scheme" type="text/css">.ColorScheme-Text { color:#ebdbb2; } .ColorScheme-Highlight { color:#458588; }</style>
  </defs>
  <path class="ColorScheme-Text" d="m5.454 1c-0.8273 0-1.526 0.5346-1.79 1.272h-0.7153l-2.366 7.637c-0.1454 0.4086-0.2197 0.8391-0.2196 1.272 0 2.1 1.718 3.818 3.818 3.818 1.398-0.0026 2.685-0.7641 3.361-1.988 0.1419 0.05473 0.2959 0.07955 0.4575 0.07955s0.3157-0.02546 0.4575-0.07955c0.6755 1.225 1.963 1.986 3.361 1.988 2.1 0 3.818-1.718 3.818-3.818 0.0014-0.6712-0.1774-1.331-0.5174-1.909l-2.069-7h-0.7159c-0.2675-0.7599-0.9842-1.27-1.79-1.272-0.8273 0-1.526 0.5346-1.79 1.272h-1.511c-0.2676-0.7601-0.9842-1.27-1.79-1.272zm-1.272 7.637c1.415 0 2.546 1.131 2.546 2.546s-1.131 2.546-2.546 2.546-2.546-1.131-2.546-2.546 1.131-2.546 2.546-2.546zm7.637 0c1.415 0 2.546 1.131 2.546 2.546s-1.131 2.546-2.546 2.546-2.546-1.131-2.546-2.546 1.131-2.546 2.546-2.546z" fill="currentColor"/>
</svg>
