<svg xmlns="http://www.w3.org/2000/svg" width="16" height="15.996">
<defs>
  <style id="current-color-scheme" type="text/css">
   .ColorScheme-Text { color:#ebdbb2; } .ColorScheme-Highlight { color:#458588; }
  </style>
  <linearGradient id="arrongin" x1="0%" x2="0%" y1="0%" y2="100%">
   <stop offset="0%" style="stop-color:#d79921; stop-opacity:1"/>
   <stop offset="100%" style="stop-color:#b57614; stop-opacity:1"/>
  </linearGradient>
  <linearGradient id="aurora" x1="0%" x2="0%" y1="0%" y2="100%">
   <stop offset="0%" style="stop-color:#83a598; stop-opacity:1"/>
   <stop offset="100%" style="stop-color:#b16286; stop-opacity:1"/>
  </linearGradient>
  <linearGradient id="fitdance" x1="0%" x2="0%" y1="0%" y2="100%">
   <stop offset="0%" style="stop-color:#8ec07c; stop-opacity:1"/>
   <stop offset="100%" style="stop-color:#458588; stop-opacity:1"/>
  </linearGradient>
  <linearGradient id="oomox" x1="0%" x2="0%" y1="0%" y2="100%">
   <stop offset="0%" style="stop-color:#458588; stop-opacity:1"/>
   <stop offset="100%" style="stop-color:#928374; stop-opacity:1"/>
  </linearGradient>
  <linearGradient id="rainblue" x1="0%" x2="0%" y1="0%" y2="100%">
   <stop offset="0%" style="stop-color:#b8bb26; stop-opacity:1"/>
   <stop offset="100%" style="stop-color:#076678; stop-opacity:1"/>
  </linearGradient>
  <linearGradient id="sunrise" x1="0%" x2="0%" y1="0%" y2="100%">
   <stop offset="0%" style="stop-color: #fe8019; stop-opacity:1"/>
   <stop offset="100%" style="stop-color: #fabd2f; stop-opacity:1"/>
  </linearGradient>
  <linearGradient id="telinkrin" x1="0%" x2="0%" y1="0%" y2="100%">
   <stop offset="0%" style="stop-color: #83a598; stop-opacity:1"/>
   <stop offset="100%" style="stop-color: #83a598; stop-opacity:1"/>
  </linearGradient>
  <linearGradient id="60spsycho" x1="0%" x2="0%" y1="0%" y2="100%">
   <stop offset="0%" style="stop-color: #fb4934; stop-opacity:1"/>
   <stop offset="25%" style="stop-color: #fabd2f; stop-opacity:1"/>
   <stop offset="50%" style="stop-color: #fe8019; stop-opacity:1"/>
   <stop offset="100%" style="stop-color: #689d6a; stop-opacity:1"/>
  </linearGradient>
  <linearGradient id="90ssummer" x1="0%" x2="0%" y1="0%" y2="100%">
   <stop offset="0%" style="stop-color: #b16286; stop-opacity:1"/>
   <stop offset="20%" style="stop-color: #8ec07c; stop-opacity:1"/>
   <stop offset="50%" style="stop-color: #fabd2f; stop-opacity:1"/>
   <stop offset="100%" style="stop-color: #458588; stop-opacity:1"/>
  </linearGradient>
  <linearGradient id="cyberneon" x1="0%" x2="0%" y1="0%" y2="100%">
    <stop offset="0" style="stop-color:#83a598; stop-opacity:1"/>
    <stop offset="1" style="stop-color:#b16286; stop-opacity:1"/>
  </linearGradient>
 </defs>
 <g transform="translate(-832.002 -444.004)">
  <path style="fill:currentColor" class="ColorScheme-Text" d="M837.5 445c-.5 0-.5.5-.5.5s0 .5.5.5h.5l.018 2.877a1 1 0 0 1-.159.539c-.132.208-.235.367-.416.678-.267.46-.598 1.048-.959 1.693a514.53 514.53 0 0 0-2.199 3.986c-.386.708-.383 1.677.203 2.407l.022.027c.422.563 1.12.74 1.818.74h7.348c.7 0 1.4-.176 1.822-.74l.022-.027c.584-.729.586-1.699.199-2.407l-.022-.039c-1.123-2.287-2.428-4.128-3.558-6.39a1 1 0 0 1-.106-.448L842 446h.5c.5 0 .5-.5.5-.5s0-.5-.5-.5zm1.518 1.047h2.015v3.107a1 1 0 0 0 .102.44c1.201 2.457 2.573 4.343 3.685 6.617a.807.807 0 0 0 .02.04c.24.44.254.884-.1 1.315l-.035.045c-.144.199-.489.336-1.03.336h-7.347c-.54 0-.885-.137-1.03-.336a.912.912 0 0 0-.032-.045c-.354-.431-.342-.875-.102-1.314a513.045 513.045 0 0 1 2.193-3.977c.359-.641.688-1.227.952-1.681.263-.454.49-.813.517-.85a1 1 0 0 0 .192-.59z" font-family="sans-serif" font-weight="400" overflow="visible"/>
  <path style="fill:currentColor" class="ColorScheme-Text" opacity=".25" d="M838.219 453.001L836 457h8l-2.219-3.999z" overflow="visible"/>
 </g>
</svg>
