<svg xmlns="http://www.w3.org/2000/svg" style="isolation:isolate" width="16" height="16" viewBox="0 0 16 16">
 <defs>
  <style id="current-color-scheme" type="text/css">
   .ColorScheme-Text { color:#ebdbb2; } .ColorScheme-Highlight { color:#458588; }
  </style>
  <linearGradient id="arrongin" x1="0%" x2="0%" y1="0%" y2="100%">
   <stop offset="0%" style="stop-color:#d79921; stop-opacity:1"/>
   <stop offset="100%" style="stop-color:#b57614; stop-opacity:1"/>
  </linearGradient>
  <linearGradient id="aurora" x1="0%" x2="0%" y1="0%" y2="100%">
   <stop offset="0%" style="stop-color:#83a598; stop-opacity:1"/>
   <stop offset="100%" style="stop-color:#b16286; stop-opacity:1"/>
  </linearGradient>
  <linearGradient id="fitdance" x1="0%" x2="0%" y1="0%" y2="100%">
   <stop offset="0%" style="stop-color:#8ec07c; stop-opacity:1"/>
   <stop offset="100%" style="stop-color:#458588; stop-opacity:1"/>
  </linearGradient>
  <linearGradient id="oomox" x1="0%" x2="0%" y1="0%" y2="100%">
   <stop offset="0%" style="stop-color:#458588; stop-opacity:1"/>
   <stop offset="100%" style="stop-color:#928374; stop-opacity:1"/>
  </linearGradient>
  <linearGradient id="rainblue" x1="0%" x2="0%" y1="0%" y2="100%">
   <stop offset="0%" style="stop-color:#b8bb26; stop-opacity:1"/>
   <stop offset="100%" style="stop-color:#076678; stop-opacity:1"/>
  </linearGradient>
  <linearGradient id="sunrise" x1="0%" x2="0%" y1="0%" y2="100%">
   <stop offset="0%" style="stop-color: #fe8019; stop-opacity:1"/>
   <stop offset="100%" style="stop-color: #fabd2f; stop-opacity:1"/>
  </linearGradient>
  <linearGradient id="telinkrin" x1="0%" x2="0%" y1="0%" y2="100%">
   <stop offset="0%" style="stop-color: #83a598; stop-opacity:1"/>
   <stop offset="100%" style="stop-color: #83a598; stop-opacity:1"/>
  </linearGradient>
  <linearGradient id="60spsycho" x1="0%" x2="0%" y1="0%" y2="100%">
   <stop offset="0%" style="stop-color: #fb4934; stop-opacity:1"/>
   <stop offset="25%" style="stop-color: #fabd2f; stop-opacity:1"/>
   <stop offset="50%" style="stop-color: #fe8019; stop-opacity:1"/>
   <stop offset="100%" style="stop-color: #689d6a; stop-opacity:1"/>
  </linearGradient>
  <linearGradient id="90ssummer" x1="0%" x2="0%" y1="0%" y2="100%">
   <stop offset="0%" style="stop-color: #b16286; stop-opacity:1"/>
   <stop offset="20%" style="stop-color: #8ec07c; stop-opacity:1"/>
   <stop offset="50%" style="stop-color: #fabd2f; stop-opacity:1"/>
   <stop offset="100%" style="stop-color: #458588; stop-opacity:1"/>
  </linearGradient>
  <linearGradient id="cyberneon" x1="0%" x2="0%" y1="0%" y2="100%">
    <stop offset="0" style="stop-color:#83a598; stop-opacity:1"/>
    <stop offset="1" style="stop-color:#b16286; stop-opacity:1"/>
  </linearGradient>
  <clipPath id="_clipPath_H4kOcxV9yEPyG7EDOb4liKWAn8IGhNAF">
   <rect width="16" height="16"/>
  </clipPath>
 </defs>
 <g clip-path="url(#_clipPath_H4kOcxV9yEPyG7EDOb4liKWAn8IGhNAF)">
  <rect style="fill:currentColor" class="ColorScheme-Text" width="4.625" height="3.594" x="16.34" y=".34" transform="matrix(1,0,0,1,0,0)"/>
  <path style="fill:currentColor" class="ColorScheme-Text" fill-rule="evenodd" d="M 9.462 8.881 C 9.462 9.904 9.487 10.756 8.97 11.665 C 8.553 12.404 7.889 12.858 7.152 12.858 C 6.144 12.858 5.554 12.091 5.554 10.955 C 5.554 8.719 7.562 8.313 9.462 8.313 L 9.462 8.881 Z M 12.112 15.28 C 11.937 15.436 11.686 15.447 11.49 15.341 C 10.617 14.617 10.461 14.282 9.984 13.592 C 8.542 15.06 7.521 15.5 5.653 15.5 C 3.44 15.5 1.72 14.137 1.72 11.409 C 1.72 9.279 2.875 7.83 4.522 7.119 C 5.947 6.494 7.939 6.381 9.462 6.21 L 9.462 5.869 C 9.462 5.245 9.511 4.506 9.143 3.966 C 8.823 3.483 8.209 3.284 7.668 3.284 C 6.666 3.284 5.775 3.797 5.556 4.86 C 5.511 5.097 5.338 5.331 5.1 5.343 L 2.553 5.067 C 2.338 5.019 2.099 4.847 2.161 4.519 C 2.746 1.433 5.536 0.5 8.037 0.5 C 9.315 0.5 10.986 0.841 11.994 1.807 C 13.272 3 13.149 4.591 13.149 6.324 L 13.149 10.413 C 13.149 11.643 13.66 12.183 14.14 12.846 C 14.308 13.084 14.346 13.369 14.132 13.543 C 13.595 13.992 12.641 14.82 12.116 15.286 L 12.112 15.28 Z"/>
 </g>
</svg>
