<svg width="16" height="16" version="1.1" xmlns="http://www.w3.org/2000/svg">
  <defs>
    <style id="current-color-scheme" type="text/css">.ColorScheme-Text { color:#ebdbb2; } .ColorScheme-Highlight { color:#458588; }</style>
  </defs>
  <path class="ColorScheme-Text" d="m1.1855 1.4961c-0.65303-1e-7 -1.1816 0.53057-1.1816 1.1836v7.6855c0 0.65303 0.52861 1.1816 1.1816 1.1816h9.3242s-2.4932-8.0582-2.8203-9.0078c-0.20844-0.5387-0.465-1.043-1.043-1.043zm0.81836 2.5039h2.1445c1.3745 0 2.5 1.1255 2.5 2.5 0 1.3745-1.1255 2.5-2.5 2.5h-2.1445zm7.334 0.45312 0.62891 2.0078h0.66992v0.50391h-0.51367l0.10547 0.33398h0.74414v0.50391h-0.58594l1.2559 4.0137v-1.8359h3.0176v2.5156h-0.50195v-0.33594h-2.0117v0.33594h-0.29102l0.01758 0.05664-4.8691-0.01563c0.13429 0.42189 0.24662 0.77227 0.29883 0.92383 0.20844 0.5387 0.465 1.043 1.043 1.043h6.4688c0.65303 0 1.1816-0.53057 1.1816-1.1836v-7.6855c0-0.65303-0.52861-1.1816-1.1816-1.1816zm-6.2617 0.61914v2.8555h1.0723c0.79518 0 1.4277-0.63256 1.4277-1.4277 1e-7 -0.79518-0.63256-1.4277-1.4277-1.4277zm8.0645 1.3887h3.8555v0.50391h-2.1719l-0.17969 0.66992h1.6816v1.3398h0.66992v0.50391h-3.8555v-0.50391h0.62305l0.22461-0.83789h-0.84766v-0.50195h0.98242l0.17969-0.66992h-1.1621zm1.3691 1.6758-0.22461 0.83789h1.5371v-0.83789zm-0.36328 2.3477v1.1738h2.0117v-1.1738z" fill="currentColor"/>
</svg>
