<svg width="16" height="16" version="1.1" xmlns="http://www.w3.org/2000/svg">
  <defs>
    <style id="current-color-scheme" type="text/css">.ColorScheme-Text { color:#ebdbb2; } .ColorScheme-Highlight { color:#458588; }</style>
  </defs>
  <path class="ColorScheme-Text" d="m10.43 1c-1.131 0-2.1 0.6524-2.498 1.576-0.4406-0.7492-0.8151-1.547-0.7168-0.8594 0 0 0.2294 2.151 0.3594 2.512 0.06678 0.151 0.1657 0.2475 0.248 0.3066 0.05182 0.3769 0.135 0.8478 0.2754 1.49 0.08179 0.2463 0.4626 0.6799 0.8516 1.096 0.06582 0.4622 0.07799 0.8971-0.01172 1.416-1.043 0.8667-3.715 1.259-3.711 2.154l-0.3613 2.693c1.2e-6 0.8916 2.492 1.615 5.564 1.615 3.074 0 5.566-0.7236 5.566-1.615l-0.3594-2.693c-0.004187-0.767-2.694-1.257-3.725-2.154-0.05514-0.4474-0.05046-0.8857-0.001954-1.326 0.3749-0.4418 0.7657-0.9215 0.8535-1.186 0.1521-0.6446 0.2349-1.1 0.2832-1.463 0.1002-0.07451 0.2161-0.1883 0.2559-0.334 0.09194-0.3845 0.3594-2.512 0.3594-2.512 0.09904-0.6929-0.282 0.1212-0.7266 0.875-0.3938-0.9321-1.366-1.592-2.506-1.592zm-6.125 1.436c-0.9914 0-1.797 0.7726-1.797 1.725 0.00829 0.3534 0.03849 0.7745 0.2422 1.728 0.03812 0.119 0.1759 0.3079 0.3438 0.5156 0.1114 0.5347 0.1666 0.9664 0.06836 1.52-0.8126 0.6609-2.891 0.9567-2.887 1.641l-0.2793 2.053c0 0.6418 1.728 1.168 3.934 1.225l0.3027-2.264c0.07847-1.086 1.252-1.571 2.088-1.904 0.1106-0.04407 0.211-0.08787 0.3144-0.1309-0.4466-0.1836-0.8804-0.3823-1.158-0.6191-0.06443-0.5196-0.01988-1.025 0.08398-1.543 0.1435-0.1972 0.2636-0.3783 0.3008-0.4922 0.2265-0.9914 0.2255-1.357 0.2383-1.728 0-0.9517-0.8035-1.725-1.795-1.725z" fill="currentColor"/>
</svg>
