<svg width="16" height="16" version="1.1" xmlns="http://www.w3.org/2000/svg">
  <defs>
    <style type="text/css" id="current-color-scheme">.ColorScheme-Text { color:#ebdbb2; } .ColorScheme-Highlight { color:#458588; }</style>
  </defs>
  <path class="ColorScheme-Text" fill="currentColor" d="m4.659 3.302-0.6426 0.6448 3.96 3.96h0.05079l3.96-3.96-0.6448-0.6426-2.491 2.491h-1.699l-2.492-2.492zm-0.6996 0.7543-3.96 3.962v0.04883l3.96 3.962 0.6448-0.6448-2.492-2.492v-1.699l2.492-2.491-0.6448-0.6448zm8.079 0-0.6426 0.6448 2.491 2.491v1.699l-2.491 2.492 0.6426 0.6448 3.962-3.962v-0.05079l-3.962-3.96zm-4.065 4.038-3.96 3.962 0.6426 0.6426 2.492-2.492h1.699l2.491 2.492 0.6448-0.6448-3.96-3.96h-0.05079z"/>
</svg>
