<svg width="16" height="16" version="1.1" xmlns="http://www.w3.org/2000/svg">
  <defs>
    <style id="current-color-scheme" type="text/css">.ColorScheme-Text { color:#ebdbb2; } .ColorScheme-Highlight { color:#458588; }</style>
  </defs>
  <path class="ColorScheme-Text" d="m9.967 9.347 1.989 5.653h1.967l-5.025-14h-1.794l-5.027 14h1.966l3.946-11.27 1.689 4.798c-0.629-0.168-1.316-0.109-1.907 0.159-0.604 0.278-1.113 0.797-1.296 1.517-0.109 0.439-0.067 0.912 0.124 1.321 0.193 0.41 0.553 0.759 1.047 0.872 0.29 0.066 0.6 0.03 0.869-0.107 0.271-0.134 0.509-0.395 0.574-0.742 0.037-0.2 8e-3 -0.404-0.086-0.591-0.099-0.186-0.288-0.356-0.537-0.394-0.141-0.021-0.275 5e-3 -0.404 0.079-0.13 0.073-0.258 0.227-0.275 0.418l0.66 0.063c-4e-3 0.046-0.046 0.095-0.058 0.103-0.015 8e-3 -5e-3 4e-3 -0.019 2e-3 0.021 4e-3 0.025 6e-3 0.044 0.044 0.021 0.038 0.032 0.107 0.023 0.151-0.023 0.123-0.095 0.207-0.216 0.267-0.124 0.059-0.295 0.079-0.429 0.053-0.28-0.065-0.469-0.246-0.592-0.506-0.122-0.257-0.151-0.587-0.081-0.865 0.13-0.511 0.473-0.864 0.927-1.072 0.455-0.209 1.012-0.253 1.498-0.114 0.148 0.042 0.289 0.097 0.423 0.163z" fill="currentColor"/>
</svg>
