<svg width="16" height="16" version="1.1" xmlns="http://www.w3.org/2000/svg">
  <defs>
    <style id="current-color-scheme" type="text/css">.ColorScheme-Text { color:#ebdbb2; } .ColorScheme-Highlight { color:#458588; }</style>
  </defs>
  <path class="ColorScheme-Text" d="m8 1c-0.3141 0-0.6226 0.02241-0.9258 0.0625l1.307 1.629-1.502 1.248 1.66 1.494-0.2051 0.5957-0.3359 0.9707 1.02-0.7188 1.061-0.75-1.545-1.494 2.049-1.354-0.6387-1.408c-0.6171-0.178-1.269-0.2754-1.943-0.2754zm-2.02 0.2969c-2.881 0.8668-4.98 3.539-4.98 6.703 0 3.866 3.134 7 7 7s7-3.134 7-7c0-2.677-1.504-5-3.711-6.178l0.5566 1.225-1.723 1.137 1.518 1.467-1.91 1.352c0.1698 0.294 0.2695 0.6341 0.2695 0.998 0 1.105-0.8954 2-2 2s-2-0.8954-2-2c0-0.8343 0.5103-1.55 1.236-1.85l0.1426-0.416-2.029-1.824 1.637-1.359-0.707-0.8828-0.2988-0.3711z" fill="currentColor"/>
</svg>
