<svg width="16" height="16" version="1.1" xmlns="http://www.w3.org/2000/svg">
  <defs>
    <style id="current-color-scheme" type="text/css">.ColorScheme-Text { color:#ebdbb2; } .ColorScheme-Highlight { color:#458588; }</style>
  </defs>
  <path class="ColorScheme-Text" d="m7.373 1.916c0.5411 0.5146-0.1283 1.239-0.6877 0.8184-0.7349-0.5456-1.215-0.7123-1.534-0.6449-0.6846 0.1454-0.5909 1.662-0.4156 2.815 0.5148-0.07901 1.035-0.09939 1.553-0.1328 0.3218-0.4123 3.504-4.391 5.652-3.355 1.392 0.6667 0.9323 3.006 0.8398 3.246-0.1767 0.46-1.016 0.4463-1.016-0.2143 0-0.1201 0.02175-0.3283 0.04713-0.5313 0.1129-0.8754-0.1087-1.522-0.4414-1.57-1.108-0.1614-2.816 1.437-3.679 2.427 0.3558 0.01263 7.283 0.2946 7.946 3.117 0.3883 1.616-1.836 2.482-2.1 2.522-0.4575 0.06833-0.8104-0.5399-0.4607-0.8934 0.2611-0.2639 1.504-0.578 1.504-1.266 0-0.9672-2.997-2.434-7.743-2.434-0.5434 0.7088-1.144 1.729-1.23 1.879 0.3704 0.8772 1.179 2.588 2.425 4.146 1.426 1.782 2.589 2.265 3.008 2.059 0.7316-0.359 0.7417-2.897-0.8377-6.264-0.08131-0.1909-0.1197-0.3265-0.1714-0.512-0.1281-0.4599 0.5905-0.6634 0.8763-0.4028 0.09334 0.08514 0.1424 0.1843 0.2035 0.3128 1.907 3.99 2.203 8.157-0.4842 7.955-1.752-0.1706-3.497-2.474-4.223-3.552-0.526-0.782-1.036-1.716-1.416-2.534-1.338 2.87-1.318 4.872-0.1692 4.675 0.6864-0.1162 1.351-0.6532 1.553-0.7498 0.5738-0.2738 1.032 0.4775 0.5934 0.8741-0.2072 0.1872-0.9798 0.655-1.5 0.8227-1.301 0.4173-2.685-0.05732-2.554-2.365 0.1187-1.616 0.789-3.101 1.508-4.529-0.1177-0.3147-0.3353-0.9137-0.4905-1.476-0.05617 0.01146-2.083 0.4301-2.47 1.26-0.3377 0.7236 1.126 1.31 1.333 1.583 0.2879 0.3804-0.07783 0.9329-0.5313 0.8313-0.211-0.04728-1.561-0.6992-1.883-1.772-0.2349-0.7823 0.2317-1.389 0.5056-1.663 0.7733-0.7443 1.782-1.033 2.794-1.298-0.1948-0.9823-0.5093-3.46 1.15-4.03 0.9222-0.3106 2.248 0.5681 2.543 0.8482zm-1.911 3.987-0.4671 0.04927 0.1371 0.4521zm2.834 1.217c0.6038 0 1.097 0.4958 1.097 1.099 0 0.6033-0.4936 1.099-1.097 1.099-0.6033 0-1.097-0.4961-1.097-1.099s0.4931-1.099 1.097-1.099z" fill="currentColor"/>
</svg>
