<svg width="16" height="16" version="1.1" xmlns="http://www.w3.org/2000/svg">
  <defs>
    <style id="current-color-scheme" type="text/css">.ColorScheme-Text { color:#ebdbb2; } .ColorScheme-Highlight { color:#458588; }</style>
  </defs>
  <path class="ColorScheme-Text" d="m2 1c-1.108 0-2 0.892-2 2v1h3l1-1.504-1-1.496zm3 0 1 1.496-1 1.504h2l1-1.504-1-1.496zm4 0 1 1.496-1 1.504h2l1-1.504-1-1.496zm4 0 1 1.496-1 1.504h2l1-1.492-1-1.508zm-13 4v8c0 1.108 0.892 2 2 2h12c1.108 0 2-0.892 2-2v-8z" fill="currentColor"/>
</svg>
