<svg width="16" height="16" version="1.1" xmlns="http://www.w3.org/2000/svg">
  <defs>
    <style id="current-color-scheme" type="text/css">.ColorScheme-Text { color:#ebdbb2; } .ColorScheme-Highlight { color:#458588; }</style>
  </defs>
  <path class="ColorScheme-Text" d="m6.77 1c-0.2674 0-0.3102 0.1473-0.459 0.5195l-0.2891 0.7246c0.6382 0.29 1.301 0.619 1.977 0.9746 0.6747-0.3552 1.337-0.6828 1.975-0.9727l-0.2891-0.7266c-0.1484-0.3722-0.1934-0.5195-0.4609-0.5195zm1.229 3.307c-1.726-0.9457-7.026-3.633-7.896-1.49-0.5238 1.289 1.044 3.052 3.074 4.684-1.19 0.9606-3.701 3.142-3.072 4.684 0.2276 0.5583 0.7312 0.7348 1.097 0.7871l0.6055-1.512c-0.145 0.03042-0.2871-0.0236-0.4277-0.03516 0.5319-1.355 3.875-3.881 6.617-5.445 2.74 1.563 6.094 4.103 6.621 5.445-0.1368 0.06318-0.2876 0.02484-0.4297 0.03712l0.6055 1.512c0.3636-0.05286 0.878-0.2294 1.105-0.7891 0.6192-1.523-1.748-3.612-3.076-4.684 1.467-1.232 3.278-2.606 3.074-4.684-0.8865-2.181-6.476 0.7108-7.898 1.49zm6.615-0.7305c-0.35 0.8944-2.015 2.28-2.504 2.674l0.3965 0.9961c-0.884-0.6903-1.905-1.394-3.014-2.072 0.3201-0.1606 3.88-1.926 5.121-1.598zm-8.111 1.6c-1.092 0.6684-2.098 1.359-2.973 2.039l0.3672-0.957c-0.5405-0.434-2.165-1.79-2.514-2.682 1.252-0.3308 4.925 1.502 5.119 1.6zm0.5898 2.342c-1.496 0.9097-3.041 2.118-4.68 3.77l-1.227 3.074c-0.2693 0.6197-0.3358 0.6387 0.3652 0.6387h1.811c0.698 0 0.7424 0.0072 0.9727-0.5703l1.033-2.58h5.26l1.033 2.58c0.2304 0.5776 0.2727 0.5703 0.9707 0.5703h1.812c0.7012 0 0.6326-0.01908 0.3633-0.6387l-1.205-3.021c-1.627-1.633-3.275-2.918-4.695-3.807l0.6055 1.518h-3.029z" fill="currentColor"/>
</svg>
