<svg width="16" height="16" version="1.1" xmlns="http://www.w3.org/2000/svg">
  <defs>
    <style id="current-color-scheme" type="text/css">.ColorScheme-Text { color:#ebdbb2; } .ColorScheme-Highlight { color:#458588; }</style>
  </defs>
  <path class="ColorScheme-Text" d="m8.836 1.145c-1.542 0.4209-2.012 0.9056-2.43 2.481-0.364 1.327-0.5355 1.575-1.456 2.028-0.7595 0.378-0.7919 0.4095-0.7919 0.7656 0 0.2056 0.04287 0.4104 0.1067 0.4427 0.06475 0.04287 0.0105 0.1942-0.1277 0.3885l-0.2362 0.3124-0.2249-0.2152c-0.1277-0.119-0.2992-0.2161-0.385-0.2161-0.2677 0-0.7061 0.5504-1.049 1.295-0.182 0.4314-0.4497 0.798-0.6527 0.9485-0.2782 0.2161-0.3316 0.3132-0.2677 0.5399 0.1067 0.4742 0.6317 0.8846 1.124 0.8846 0.406 0 0.8557 0.28 0.8557 0.5285 0 0.06475 0.1391 0.1942 0.3106 0.2914 0.1715 0.1076 0.3964 0.3666 0.5031 0.5932 0.2144 0.4961 1.017 1.316 1.509 1.553 0.1925 0.09712 0.7061 0.2485 1.135 0.3342 0.4174 0.08662 1.091 0.3027 1.487 0.4856 0.7814 0.3561 1.477 0.518 1.477 0.3456 0-0.1619-0.2135-0.3132-0.6632-0.4532-0.4926-0.1619-0.728-0.4209-0.5031-0.5504 0.08575-0.05425 0.364-0.1295 0.6317-0.1619 1.156-0.1619 2.397-0.7009 2.162-0.9389-0.07525-0.07525-0.2896-0.04287-0.6956 0.1085l-0.5889 0.2266-0.06475-0.3351c-0.08487-0.4524-0.7595-1.067-1.412-1.305-0.3001-0.1085-0.6536-0.2695-0.7814-0.3561l-0.2362-0.1724 0.4926-0.4427c0.6107-0.539 0.91-1.003 1.231-1.909 0.1391-0.3885 0.2887-0.7446 0.3421-0.798 0.1286-0.1619 0.6641 0.4095 0.9424 1.014 0.1391 0.3019 0.2144 0.5714 0.1715 0.6142-0.04288 0.05425-0.3964 0.1085-0.7709 0.1409-0.3745 0.03237-0.6851 0.09712-0.6851 0.1619 0 0.06475 0.4392 0.14 0.9957 0.1724 0.546 0.04287 0.9476 0.07 1.333 0.07262 1.237-0.04725 1.573-0.3509 2.053-0.3902 1.07-0.08925 1.087-0.3622 0.9826-0.5355-0.2537-0.4244-0.6484 0.154-0.8479 0.2074-0.2152 0.05775-1.284 0.1242-1.32 0.0385-0.06912-0.1671 0.147-0.7429 0.5189-0.9835 0.6151-0.3999 0.8514-0.9695 0.3054-1.023-0.2389-0.02362-0.5521 0.35-0.5845 0.7411-0.028 0.35-0.6799 1.031-0.8934 0.987-0.1172-0.0245-0.2205-0.1216-0.3377-0.2362-0.4812-0.4637-0.6746-0.9494-0.8881-2.201-0.09625-0.518-0.07525-0.5932 0.2564-1.133 0.8356-1.359 0.6212-3.926-0.3745-4.391-0.3211-0.1505-1.017-0.1295-1.659 0.04375z" fill="currentColor"/>
</svg>
