<svg width="16" height="16" version="1.1" xmlns="http://www.w3.org/2000/svg">
  <defs>
    <style id="current-color-scheme" type="text/css">.ColorScheme-Text { color:#ebdbb2; } .ColorScheme-Highlight { color:#458588; }</style>
  </defs>
  <path class="ColorScheme-Text" d="m3 1c-0.554 0-1 0.446-1 1v12c0 0.554 0.44601 1 1 1h10c0.554 0 1-0.446 1-1v-12c0-0.554-0.446-1-1-1zm0.87597 2.4385c0.25562 0 0.51116 0.097095 0.70703 0.29297l2.1211 2.1211c0.39174 0.39174 0.39174 1.0223 0 1.4141-0.39174 0.39174-1.0223 0.39174-1.4141 0l-2.1191-2.1211c-0.39173-0.39174-0.39173-1.0223 0-1.4141 0.19587-0.19587 0.44945-0.29297 0.70507-0.29297zm8.2441 0c0.25562 0 0.51312 0.097095 0.70899 0.29297 0.39173 0.39174 0.39173 1.0223 0 1.4141l-2.123 2.1211c-0.39174 0.39174-1.0223 0.39174-1.4141 0-0.39174-0.39174-0.39174-1.0223 0-1.4141l2.1211-2.1211c0.19587-0.19587 0.45141-0.29297 0.70703-0.29297zm-4.123 4.123c0.554 0 1.002 0.446 1.002 1v3c0 0.554-0.44796 1-1.002 1-0.554 0-1-0.446-1-1v-3c0-0.554 0.446-1 1-1z" fill="currentColor"/>
</svg>
