<svg width="16" height="16" version="1.1" xmlns="http://www.w3.org/2000/svg">
  <defs>
    <style id="current-color-scheme" type="text/css">.ColorScheme-Text { color:#ebdbb2; } .ColorScheme-Highlight { color:#458588; }</style>
  </defs>
  <path class="ColorScheme-Text" d="m4.492 1.004c-0.2949-0.01282-0.4868 0.1083-0.6348 0.3105l-2.752 3.752c-0.1411 0.1923-0.142 0.4297-0.001953 0.623 0.1402 0.1923 0.4005 0.3105 0.6816 0.3105h1.215v5.809c0 0.6628 0.5248 1.195 1.178 1.195h0.6427c0.653 0 1.178-0.5325 1.178-1.195v-5.809h1.203c0.2811 0 0.5415-0.1182 0.6816-0.3105 0.14-0.1933 0.1391-0.4307-0.001953-0.623l-2.752-3.752c-0.148-0.2022-0.3399-0.3234-0.6348-0.3105h-0.001953zm6.688 1.992c-0.653 0-1.178 0.5325-1.178 1.195v5.809h-1.203c-0.2811 0-0.5415 0.1182-0.6816 0.3105-0.14 0.1933-0.1391 0.4307 0.001953 0.623l2.752 3.752c0.148 0.2022 0.3399 0.3234 0.6348 0.3105h0.001953c0.2949 0.01282 0.4868-0.1083 0.6348-0.3105l2.752-3.752c0.1411-0.1923 0.142-0.4297 0.001953-0.623-0.1402-0.1923-0.4005-0.3105-0.6816-0.3105h-1.215v-5.809c0-0.6628-0.5248-1.195-1.178-1.195h-0.6427z" fill="currentColor"/>
</svg>
