<svg width="16" height="16" version="1.1" xmlns="http://www.w3.org/2000/svg">
  <defs>
    <style id="current-color-scheme" type="text/css">.ColorScheme-Text { color:#ebdbb2; } .ColorScheme-Highlight { color:#458588; }</style>
  </defs>
  <path class="ColorScheme-Text" d="m12.19 5.766c-1.831-0.8466-4.465-1.384-6.942-1.184 0.123-0.8201 0.4317-1.392 0.9334-1.512 0.6922-0.1664 1.447 0.2894 2.166 1.117 0.4703 0.06027 1.03 0.1688 1.421 0.2581-1.312-2.467-3.073-3.849-4.411-3.338-1.018 0.3883-1.539 1.79-1.476 3.673-1.327 0.2822-2.361 0.7839-3.025 1.505-0.03377 0.03856-0.1085 0.1375-0.08201 0.1833 0.02171 0.03621 0.08683-0.00456 0.1182-0.02414 0.767-0.5379 1.751-0.8273 3.032-1.011 0.1833 2.009 1.032 4.559 2.446 6.604-0.7718 0.3039-1.421 0.3232-1.775-0.05306-0.4896-0.5162-0.4727-1.399-0.1158-2.436-0.1833-0.439-0.369-0.9768-0.4848-1.358-1.486 2.371-1.804 4.588-0.6922 5.492 0.8466 0.6874 2.32 0.439 3.919-0.5572 0.9069 1.008 1.86 1.652 2.815 1.864 0.05065 0.0096 0.1737 0.02656 0.2002-0.01928 0.0217-0.0362-0.04824-0.07478-0.0796-0.08924-0.849-0.3956-1.592-1.102-2.39-2.12 1.65-1.163 3.432-3.174 4.496-5.42 0.6488 0.5186 0.9889 1.069 0.8418 1.565-0.2026 0.6826-0.9744 1.109-2.053 1.317-0.2894 0.3787-0.6609 0.808-0.9334 1.1 2.793 0.09647 4.872-0.7356 5.099-2.149 0.1737-1.076-0.7815-2.229-2.443-3.116 0.4197-1.29 0.5017-2.436 0.2074-3.369-0.01688-0.04828-0.0627-0.164-0.1182-0.164-0.041 0-0.041 0.0796-0.0386 0.1134 0.08683 0.931-0.152 1.93-0.6343 3.128zm-5.145 5.95c-1.182-1.896-1.862-4.129-1.86-6.387 2.233-0.07477 4.508 0.451 6.462 1.585-1.052 1.971-2.644 3.678-4.602 4.802z" fill="currentColor"/>
</svg>
