<svg width="16" height="16" version="1.1" xmlns="http://www.w3.org/2000/svg">
  <defs>
    <style id="current-color-scheme" type="text/css">.ColorScheme-Text { color:#ebdbb2; } .ColorScheme-Highlight { color:#458588; }</style>
  </defs>
  <path class="ColorScheme-Text" d="m8 1-0.666 0.875-0.7344-0.4375-0.4961 1.072c-1.535 0.316-2.62 1.059-3.52 2.232-1.573 2.052-1.584 5.592-1.584 7.592s3.667 2.666 7 2.666 7-0.666 7-2.666-0.01135-5.54-1.584-7.592c-0.8991-1.173-1.984-1.916-3.52-2.232l-0.4961-1.072-0.7344 0.4375-0.666-0.875zm-2.893 6.127a1.25 1.372 45.02 0 1 1.127 0.9883 1.25 1.372 45.02 0 1-1.094 1.594 1.25 1.372 45.02 0 1-1.5-0.9492 1.25 1.372 45.02 0 1 1.094-1.594 1.25 1.372 45.02 0 1 0.373-0.03906zm5.785 0a1.372 1.25 44.98 0 1 0.373 0.03906 1.372 1.25 44.98 0 1 1.094 1.594 1.372 1.25 44.98 0 1-1.5 0.9492 1.372 1.25 44.98 0 1-1.094-1.594 1.372 1.25 44.98 0 1 1.127-0.9883zm-5.803 0.4355a0.337 0.5187 44.98 0 0-0.334 0.1465 0.337 0.5187 44.98 0 0-0.2168 0.6191 0.337 0.5187 44.98 0 0 0.5801-0.03711 0.337 0.5187 44.98 0 0 0.2168-0.6191 0.337 0.5187 44.98 0 0-0.2461-0.1094zm6.127 0a0.337 0.5187 44.98 0 0-0.3359 0.1465 0.337 0.5187 44.98 0 0-0.2168 0.6191 0.337 0.5187 44.98 0 0 0.5801-0.03711 0.337 0.5187 44.98 0 0 0.2168-0.6191 0.337 0.5187 44.98 0 0-0.2441-0.1094zm-3.217 2.188c0.06701 8.75e-4 0.1322 0.03081 0.1797 0.08594l1.488 1.52c0.1593 0.1838 0.07495 0.7284-0.1504 0.7285l-0.2188 0.04102a1.312 1.312 0 0 1-1.299 1.125 1.312 1.312 0 0 1-1.299-1.125l-0.2188-0.04102c-0.2253-8.7e-5 -0.3097-0.5447-0.1504-0.7285l1.488-1.52c0.04745-0.05512 0.1127-0.08585 0.1797-0.08594z" fill="currentColor"/>
</svg>
