<svg width="16" height="16" version="1.1" xmlns="http://www.w3.org/2000/svg">
  <defs>
    <style id="current-color-scheme" type="text/css">.ColorScheme-Text { color:#ebdbb2; } .ColorScheme-Highlight { color:#458588; }</style>
  </defs>
  <path class="ColorScheme-Text" d="m5 1c-1.108 0-2 0.892-2 2v10c0 1.108 0.892 2 2 2h6c1.108 0 2-0.892 2-2v-10c0-1.108-0.892-2-2-2zm2.6641 2c0.14295-0.00601 0.29004 0.037576 0.41406 0.13672l3.123 2.5c0.31564 0.25232 0.31304 0.73215-0.0059 0.98047l-1.7754 1.3828 1.7754 1.3809c0.31897 0.24813 0.32157 0.72796 0.0059 0.98047l-3.123 2.5c-0.40927 0.32773-1.0157 0.036097-1.0157-0.48828v-2.541l-1.4902 1.1602c-0.27281 0.21195-0.66529 0.16165-0.87695-0.11133-0.21081-0.27241-0.16256-0.66362 0.10938-0.875l2.2578-1.7559v-0.50195l-2.2578-1.7559c-0.27298-0.21157-0.32132-0.60416-0.10938-0.87695 0.21204-0.27251 0.60454-0.3217 0.87695-0.10938l1.4902 1.1602v-2.541c1.83e-4 -0.24032 0.1369-0.45862 0.35352-0.5625 0.076374-0.036813 0.16227-0.058892 0.24805-0.0625zm0.64844 1.9258v2.2129l0.089844 0.070312 1.4004-1.0918zm0.089844 3.8652-0.089844 0.068359v2.2109l1.4902-1.1895z" fill="currentColor"/>
</svg>
