<svg width="16" height="16" version="1.1" xmlns="http://www.w3.org/2000/svg">
  <defs>
    <style type="text/css" id="current-color-scheme">.ColorScheme-Text { color:#ebdbb2; } .ColorScheme-Highlight { color:#458588; }</style>
  </defs>
  <path class="ColorScheme-Text" d="m4.938 1c-0.9695 0-1.75 0.7805-1.75 1.75v10.5c0 0.9695 0.7805 1.75 1.75 1.75h6.125c0.9695 0 1.75-0.7805 1.75-1.75v-10.5c0-0.9695-0.7805-1.75-1.75-1.75zm3.047 1.894 3.281 2.625c0.3315 0.265 0.3281 0.7702-0.0068 1.031l-1.865 1.451 1.865 1.451c0.335 0.2606 0.3384 0.7658 0.0068 1.031l-3.281 2.625c-0.4298 0.3442-1.067 0.03801-1.067-0.5127v-2.67l-1.565 1.219c-0.2865 0.2226-0.6991 0.1705-0.9214-0.1162-0.2214-0.2861-0.1694-0.6976 0.1162-0.9196l2.37-1.844v-0.5264l-2.37-1.844c-0.2867-0.2222-0.3388-0.6349-0.1162-0.9214 0.2227-0.2862 0.6353-0.3375 0.9214-0.1145l1.565 1.217v-2.668c1.925e-4 -0.2524 0.1451-0.4822 0.3726-0.5913 0.2139-0.1031 0.4856-0.08872 0.694 0.07788zm0.2461 1.879v2.324l0.09398 0.07348 1.472-1.145-1.565-1.253zm0.09398 4.059-0.09398 0.07348v2.322l1.565-1.251-1.472-1.145z" fill="currentColor"/>
</svg>
