<svg width="16" height="16" version="1.1" xmlns="http://www.w3.org/2000/svg">
  <defs>
    <style id="current-color-scheme" type="text/css">.ColorScheme-Text { color:#ebdbb2; } .ColorScheme-Highlight { color:#458588; }</style>
  </defs>
  <path class="ColorScheme-Text" d="m8 1.0039s-0.36378-1.586e-4 -0.92578 0.18164c-0.562 0.1818-1.1585 0.41211-1.4395 0.41211s-2.3457-0.39648-2.3457-0.39648-2.4473 2.9754-2.4473 3.6035 0.29733 0.79054 0.61133 1.1211c0.314 0.314 1.653 1.7528 1.7852 1.9512 0.1818 0.1983 0.54693 0.47871 0.33203 0.97461-0.21486 0.513-0.52874 1.1581-0.18164 1.8027 0.3468 0.6444 0.94012 1.0739 1.3203 1.0078 0.397-0.0826 1.2905-0.54486 1.6211-0.75976 0.1395-0.09061 0.40538-0.29566 0.66602-0.52734v-1.5742c-0.25389-0.16714-0.49983-0.30525-0.58398-0.36133-0.1984-0.1322-1.1066-0.66098-1.123-0.85938-0.0165-0.2149-8.26e-4 -0.26494 0.26367-0.77734 0.281-0.512 0.76038-1.1904 0.67773-1.6367-0.083-0.4463-0.85986-0.67768-1.4219-0.89258s-1.6373-0.61161-1.7695-0.67773c-0.03514-0.017563-0.056683-0.035791-0.064453-0.052734v-0.00195h-0.0039v-0.00195c-1.25e-4 -9.827e-4 1e-5 -0.00488 0-0.00586 5.3e-5 -4.861e-4 4.1e-5 -0.00463 0-0.00586 3.42e-4 -9.605e-4 0.00155-0.0049 0.00195-0.00586l0.00195-0.00195c0.02629-0.034824 0.14002-0.068778 0.37891-0.087891 0.414-0.04959 1.5551-0.19763 2.084-0.048828 0.5293 0.1487 1.4222 0.36477 1.4883 0.48047 0.08258 0.1157 0.13057 0.13064 0.06445 0.52734-0.0827 0.413-0.46114 2.3462-0.49414 2.6934s-0.09993 0.57751 0.26367 0.66016c0.0956 0.02169 0.21031 0.049242 0.33008 0.076172 0.27425-0.97636 1.1228-1.7086 2.1621-1.8086-0.12455-0.65472-0.27257-1.3933-0.31055-1.6211-0.06608-0.4132 2.83e-4 -0.41164 0.06641-0.52734 0.083-0.1157 0.95936-0.33167 1.4883-0.48047 0.529-0.14871 1.6708 0.015768 2.084 0.048828 0.23241 0.0279 0.3449 0.057056 0.375 0.087891l2e-3 0.00195v0.00195h2e-3v0.00586h2e-3l2e-3 0.00195v0.00391c-1e-5 8.914e-4 1.24e-4 0.00496 0 0.00586l-2e-3 0.00195v0.00195c-3.94e-4 0.00124-0.0017 0.00345-2e-3 0.00391-9e-3 0.014721-0.03336 0.032298-0.06641 0.048828-0.133 0.0661-1.2056 0.46283-1.7676 0.67773-0.5625 0.2149-1.3392 0.44628-1.4219 0.89258-0.04344 0.23359 0.07072 0.53038 0.22843 0.83398h4.5273c0.02696-0.028467 0.05084-0.053712 0.07031-0.074219 0.3141-0.3306 0.62891-0.4785 0.62891-1.123 0-0.644-2.4473-3.6035-2.4473-3.6035h-2e-3s-2.0647 0.39648-2.3457 0.39648c-0.281 0-0.8774-0.23031-1.4395-0.41211-0.56191-0.1818-0.92378-0.18164-0.92378-0.18164zm2 5.9961c-1.108 0-2 0.892-2 2v4c0 1.108 0.892 2 2 2h4c1.108 0 2-0.892 2-2v-4c0-1.108-0.892-2-2-2zm0.5 1h3c0.831 0 1.5 0.669 1.5 1.5v3c0 0.831-0.669 1.5-1.5 1.5h-3c-0.831 0-1.5-0.669-1.5-1.5v-3c0-0.831 0.669-1.5 1.5-1.5zm1.125 0.41211c-0.50092 0.00994-0.87695 0.095703-0.87695 0.095703-0.26501 0.055531-0.45075 0.25516-0.45117 0.48438v4.0195c4.25e-4 0.22922 0.18617 0.42884 0.45117 0.48438 0 0 0.37603 0.0858 0.87695 0.0957 0.16698 0.0033 0.34787-2e-3 0.5332-0.02149 0.37067-0.03888 0.78827-0.13528 1.1387-0.39258 0.35041-0.2573 0.57422-0.6799 0.57422-1.166 0-0.3972-0.15001-0.75169-0.39453-1.0098 0.24452-0.25807 0.39453-0.61256 0.39453-1.0098 0-0.48611-0.22381-0.90871-0.57422-1.166-0.35041-0.25729-0.768-0.35369-1.1387-0.39257-0.18534-0.019442-0.36623-0.024797-0.5332-0.021484zm0.10547 0.99609c0.07629-1.62e-4 0.14872 0.0039 0.2793 0.01758 0.22514 0.02362 0.40355 0.08347 0.5 0.1543 0.24045 0.17656 0.23818 0.65258-2e-3 0.83203-0.09937 0.07427-0.28223 0.13549-0.50781 0.16211-0.23746 0.02802-0.32158 0.0178-0.51172 0v-1.1484c0.09569-0.01042 0.16594-0.01702 0.24219-0.01758zm-0.0039 2.0039c0.07456-0.0013 0.15471 0.0036 0.27344 0.01758 0.22558 0.02662 0.40844 0.08784 0.50781 0.16211 0.24009 0.17944 0.24235 0.65548 2e-3 0.83203-0.09645 0.07083-0.27486 0.13068-0.5 0.1543-0.12065 0.01268-0.20305 0.01814-0.2793 0.01758s-0.1465-0.0072-0.24219-0.01758v-1.1484c0.09507-0.0089 0.16372-0.0163 0.23828-0.01758zm-4.7305 0.14844c-0.19809 0.08482-0.40431 0.17975-0.59766 0.28125-0.6449 0.3471-1.1246 0.57855-1.2734 0.67773-0.14875 0.0826-0.05017 0.2641 0.08203 0.36328 0.11065 0.08299 1.4302 1.1069 1.9609 1.5332-0.11128-0.28375-0.17188-0.59186-0.17188-0.91602z" fill="currentColor"/>
</svg>
