<svg width="16" height="16" version="1.1" xmlns="http://www.w3.org/2000/svg">
  <defs>
    <style id="current-color-scheme" type="text/css">.ColorScheme-Text { color:#ebdbb2; } .ColorScheme-Highlight { color:#458588; }</style>
  </defs>
  <path class="ColorScheme-Text" d="m6.252 0.99805-0.1543 1.8438c-0.58463 0.21655-1.1282 0.53093-1.6074 0.92969l-1.6758-0.78906-1.75 3.0312 1.5215 1.0586c-0.05407 0.30567-0.082165 0.61537-0.083984 0.92578 1.978e-4 0.31226 0.026987 0.62393 0.080078 0.93164l-1.5176 1.0547 1.75 3.0293 1.6719-0.78711c0.48085 0.39706 1.0257 0.70946 1.6113 0.92383l0.15039 1.8516h3.5l0.1543-1.8438c0.58463-0.21655 1.1282-0.53093 1.6074-0.92969l1.6758 0.78906 1.75-3.0312-1.5215-1.0586c0.05407-0.30567 0.08217-0.61537 0.08399-0.92578-1.98e-4 -0.31226-0.02699-0.62393-0.08008-0.93164l1.5176-1.0547-1.75-3.0293-1.6719 0.78711c-0.48086-0.39706-1.0257-0.70946-1.6113-0.92383l-0.15039-1.8516zm1.748 3.002c2.2091 0 4 1.7909 4 4s-1.7909 4-4 4c-2.2091 0-4-1.7909-4-4 1e-7 -2.2091 1.7909-4 4-4zm-0.99805 1.082c-0.9994 1e-7 -1 0.83398-1 0.83398v4.168s6e-4 0.83398 1 0.83398h1.998c0.9994 0 1-0.83398 1-0.83398v-4.168s-6e-4 -0.83398-1-0.83398zm0.4082 0.91797h1.1797c0.22735 0 0.41016 0.18281 0.41016 0.41016v0.67969c0 0.22735-0.18281 0.41016-0.41016 0.41016h-1.1797c-0.22735 0-0.41016-0.18281-0.41016-0.41016v-0.67969c0-0.22735 0.18281-0.41016 0.41016-0.41016zm0.00195 2.498h1.1797c0.22735 0 0.41016 0.18281 0.41016 0.41016v0.67969c0 0.22735-0.18281 0.41016-0.41016 0.41016h-1.1797c-0.22735 0-0.41016-0.18281-0.41016-0.41016v-0.67969c0-0.22735 0.18281-0.41016 0.41016-0.41016z" fill="currentColor"/>
</svg>
