<svg width="16" height="16" version="1.1" xmlns="http://www.w3.org/2000/svg">
  <defs>
    <style id="current-color-scheme" type="text/css">.ColorScheme-Text { color:#ebdbb2; } .ColorScheme-Highlight { color:#458588; }</style>
  </defs>
  <path class="ColorScheme-Text" d="m7.921 1c-1.764-0.009237-3.509 0.7079-4.772 1.94-0.8948 0.8704-1.622 1.946-1.972 3.152-0.165 0.3298 0.2068 0.7399 0.5343 0.5216 0.2962-0.2847 0.2642-0.7689 0.4978-1.108 0.4357-0.9263 1.095-1.735 1.891-2.374 2.161-1.825 5.634-1.817 7.78 0.02866 1.134 0.9675 1.934 2.321 2.248 3.777-0.3461-0.2193-0.5871-0.5948-0.9377-0.8188-0.3928-0.2267-0.7865 0.3955-0.4327 0.6511 0.5165 0.5339 1.034 1.068 1.571 1.581 0.4086 0.2601 0.7637-0.2538 0.6494-0.637-0.05546-1.638-0.8066-3.195-1.868-4.417-1.122-1.31-2.778-2.112-4.487-2.263-0.2335-0.02216-0.4681-0.03298-0.7027-0.0323zm-6.921 6.903c0.01365 0.7314 0.0956 1.467 0.3482 2.158 0.6502 1.895 2.034 3.579 3.895 4.377 1.03 0.45 2.171 0.624 3.29 0.5415 2.028-0.1018 3.928-1.23 5.132-2.845 0.517-0.6901 0.9464-1.465 1.16-2.305 0.1447-0.3445-0.3588-0.6591-0.6113-0.3963-0.2082 0.3525-0.2754 0.7717-0.4742 1.132-0.8844 1.821-2.622 3.26-4.644 3.584-1.772 0.3022-3.691-0.1575-5.048-1.362-1.086-0.9395-1.837-2.244-2.169-3.636 0.3198 0.2274 0.5901 0.5471 0.8817 0.8211 0.1693 0.06124 0.4668-0.004105 0.5379-0.2021 0.01344-0.1342 0.119-0.3291-0.03386-0.4179-0.5634-0.5645-1.126-1.129-1.69-1.693-0.2027-0.1302-0.5625-0.02417-0.5741 0.2441z" fill="currentColor"/>
</svg>
