<svg width="16" height="16" version="1.1" xmlns="http://www.w3.org/2000/svg">
  <defs>
    <style type="text/css" id="current-color-scheme">.ColorScheme-Text { color:#ebdbb2; } .ColorScheme-Highlight { color:#458588; }</style>
  </defs>
  <path class="ColorScheme-Text" fill="currentColor" d="m8 1c-3.866 0-7 3.134-7 7 0.00377 0.9389 0.1964 1.868 0.5664 2.73 0.5004-0.1267 0.9443-0.2708 1.334-0.4258-0.09818-0.07526-0.1926-0.154-0.2793-0.2402 0-0.07195-0.9512-0.7177-0.9512-2.561 0-2.148 1.349-3.506 3.506-3.506 0.5232 0 1.288 0.096 2.047 0.5332v1.662c-0.6002-0.3918-1.174-0.7456-1.918-0.7266-1.12 0-1.725 0.7889-1.725 2.037 0 1.087 0.4393 1.665 1.035 1.896 0.4322-0.2906 0.7848-0.5736 1.121-0.8145 0.4618-0.3307 0.931-0.597 1.516-0.5859 0.3186 0.0061 0.5969 0.07308 0.8457 0.1777v-4.178h1.775c0.9881 0 1.726 0.07175 2.229 0.2266 0.7647 0.2293 2.229 1.029 2.229 3.268 0 0.7118-0.192 2.641-2.199 3.273 0.5712 0.1703 1.259 0.3084 2.098 0.3965 0.5023-0.9794 0.7667-2.063 0.7715-3.164 0-3.866-3.134-7-7-7zm1.91 4.57v3.859h0.4707c1.218-2e-6 1.971-0.5947 1.971-1.936 0-1.376-0.7902-1.924-1.971-1.924h-0.4707zm-2.658 3.43c-0.5846-0.01103-1.054 0.2553-1.516 0.5859-0.4618 0.3307-0.951 0.7395-1.641 1.141-0.8973 0.522-2.149 1.04-4.096 1.307v0.9668h16v-0.7344c-3.349-0.05272-4.897-0.753-5.855-1.461-0.5332-0.3938-0.8915-0.8027-1.303-1.154-0.4112-0.3516-0.9102-0.6374-1.59-0.6504zm-2.834 5c1.082 0.6502 2.32 0.9957 3.582 1 1.262-0.0043 2.5-0.3498 3.582-1h-7.164z"/>
</svg>
