<svg width="16" height="16" version="1.1" xmlns="http://www.w3.org/2000/svg">
  <defs>
    <style type="text/css">.ColorScheme-Text { color:#ebdbb2; } .ColorScheme-Highlight { color:#458588; }</style>
  </defs>
  <g transform="matrix(8.346 0 0 8.346 -152.7 -53.89)" fill-rule="evenodd" stroke-width=".2646" style="isolation:isolate">
    <path d="m19.64 6.577c-3e-3 1.04e-5 -6e-3 2.039e-4 -9e-3 5.372e-4v-3.84e-5c-0.01766 0.00197-0.03484 0.00798-0.05201 0.01917-0.0076 0.00405-0.01511 0.00942-0.02233 0.0161l-0.6482 0.599-0.2687-0.2055c-0.01807-0.01419-0.06517-0.0481-0.1063-0.00904l-0.1045 0.0994c-0.02743 0.02608-0.01183 0.06124 0.0099 0.08135l0.2531 0.2339-0.2531 0.2339v1.9e-5c-0.02175 0.0201-0.03735 0.05527-0.0099 0.08135l0.1045 0.09938c0.04108 0.03906 0.08818 0.0052 0.1063-9e-3l0.2688-0.2055 0.6481 0.599c0.0081 0.0075 0.01655 0.01334 0.02508 0.01752 0.01868 0.01071 0.04458 0.02109 0.06746 0.0183 0.0079-9.7e-4 0.01589-0.0032 0.02381-0.0071l0.3435-0.1684c0.03744-0.01835 0.07523-0.03353 0.07523-0.07523v-1.168c0-0.0417-0.03779-0.05686-0.07523-0.07521l-0.3435-0.1685c-0.0079-0.00388-0.01591-0.00608-0.02381-0.00704-0.0031-3.748e-4 -0.0061-5.476e-4 -0.0092-5.372e-4zm0.03308 0.4502h1.9e-5v0.7693l-0.503-0.3847z" fill="#ebdbb2" stroke-width=".05233" style="paint-order:stroke fill markers"/>
  </g>
</svg>
