<svg width="16" height="16" version="1.1" xmlns="http://www.w3.org/2000/svg">
  <defs>
    <style id="current-color-scheme" type="text/css">.ColorScheme-Text { color:#ebdbb2; } .ColorScheme-Highlight { color:#458588; }</style>
  </defs>
  <path class="ColorScheme-Text" d="m4.219 1.003c0.5008 0.01335 0.9567 0.2989 1.491 0.7178 0.9134 0.7213 2.053 1.683 3.05 2.688 0.5927-0.09517 1.354-0.1219 2.383-0.06511 1.1-0.9099 2.081-0.6896 3.024-0.1052 0.2938 1.182-0.1603 1.513-0.1085 1.897l0.1369 1.003c-0.7178 0.3422-1.357-0.1102-1.997-0.5393l0.02671 0.06011-0.3958 1.756c-0.09851 1.721 0.167 3.018 0.9384 4.449l-0.6328 0.2905c-0.4258-1.077-0.9567-2.102-1.015-3.361-0.9218 1.049-0.2137 2.449 0.1453 3.773l-0.9015 0.6011c-0.5244-0.6211-0.6963-2.577-0.8399-4.634-0.3106 0.6946-0.6129 1.393-1.112 1.992 0.2171 0.9651 0.2171 1.931-0.3373 2.896l-0.8582 0.5778-0.3138-3.647c-0.2938 0.8115-0.4977 2.423-0.8815 2.417-0.3924-2.026 0.7631-3.502 1.799-5.023l-0.2505 0.1202-1.785 1.598c-1.396 0.7331-7.108 3.708-1.898-3.447 0.5126-0.703 1.272 0.09015 2.194-0.8231 0.06847-0.0768 0.1286-0.1453 0.1938-0.2186-1.479-0.5091-3.705-1.426-3.876-2.568 0 0-0.05175-1.257 0.3138-1.705 0.5912-0.5126 1.065-0.7146 1.508-0.703z" fill="currentColor"/>
</svg>
