<svg width="16" height="16" version="1.1" xmlns="http://www.w3.org/2000/svg">
  <defs>
    <style id="current-color-scheme" type="text/css">.ColorScheme-Text { color:#ebdbb2; } .ColorScheme-Highlight { color:#458588; }</style>
  </defs>
  <path class="ColorScheme-Text" d="m2 2c-1.108 0-2 0.892-2 2v8c0 1.108 0.892 2 2 2h12c1.108 0 2-0.892 2-2v-8c0-1.108-0.892-2-2-2zm0.66602 1h10.668c0.92333 0 1.666 0.74268 1.666 1.666v6.668c0 0.92333-0.74268 1.666-1.666 1.666h-10.668c-0.92333 0-1.666-0.74268-1.666-1.666v-6.668c0-0.92333 0.74268-1.666 1.666-1.666zm5.334 1c-2.2091 0-4 1.7909-4 4s1.7909 4 4 4 4-1.7909 4-4-1.7909-4-4-4zm-1.543 1.5c0.01756-9.86e-4 0.034816-0.0011 0.052734 0 0.06616 4e-3 0.13372 0.02251 0.20117 0.05859h0.00195l3.8066 2.0312c0.34399 0.17199 0.30015 0.67813-0.0098 0.83008l-3.7695 2.0059c-0.32766 0.20027-0.74023-0.029863-0.74023-0.39453v-4.0273c-0.023534-0.24918 0.19363-0.48912 0.45703-0.50391z" fill="currentColor"/>
</svg>
