<svg width="16" height="16" version="1.1" xmlns="http://www.w3.org/2000/svg">
  <defs>
    <style id="current-color-scheme" type="text/css">.ColorScheme-Text { color:#ebdbb2; } .ColorScheme-Highlight { color:#458588; }</style>
  </defs>
  <path class="ColorScheme-Text" d="m8 1c-1.105-1e-7 -2 0.8954-2 2 0.0013 0.05874 0.0052 0.1174 0.01172 0.1758-0.3797-0.4611-0.9457-0.7283-1.543-0.7285-1.105-1e-7 -2 0.8954-2 2 0.0022 0.6118 0.2843 1.189 0.7656 1.566-0.07779-0.009143-0.156-0.01371-0.2344-0.01367-1.105-1e-7 -2 0.8954-2 2s0.8954 2 2 2c0.06134-0.00109 0.1226-5e-3 0.1836-0.01172-0.4632 0.3786-0.7327 0.9447-0.7344 1.543 0 1.105 0.8954 2 2 2 0.6114-0.0017 1.188-0.2831 1.566-0.7637-0.00972 0.0771-0.01494 0.1547-0.01562 0.2324 0 1.105 0.8954 2 2 2s2-0.8954 2-2c9.2e-5 -0.05998-0.00251-0.1199-0.00781-0.1797 0.3785 0.4607 0.9428 0.7286 1.539 0.7305 1.105 0 2-0.8954 2-2 1.42e-4 -0.6101-0.2782-1.187-0.7559-1.566 0.07452 0.00942 0.1495 0.01464 0.2246 0.01562 1.105 0 2-0.8954 2-2s-0.8954-2-2-2c-0.07902 5.353e-4 -0.1579 0.00575-0.2363 0.01562 0.4826-0.3776 0.7655-0.9556 0.7676-1.568 0-1.105-0.8954-2-2-2-0.5983 0.00169-1.164 0.2711-1.543 0.7344 0.006651-0.06034 0.01057-0.121 0.01172-0.1816 0-1.105-0.8954-2-2-2zm0 1c0.5523 0 1 0.4477 1 1-9.785e-4 0.3563-0.1914 0.6851-0.5 0.8633v2.889l2.062-2.062c-0.02027-0.07915-0.03077-0.1605-0.03125-0.2422 0-0.5523 0.4477-1 1-1s1 0.4477 1 1-0.4477 1-1 1c-0.09251-3.098e-4 -0.1845-0.01346-0.2734-0.03906l-2.092 2.092h2.971c0.1781-0.3086 0.507-0.499 0.8633-0.5 0.5523 0 1 0.4477 1 1s-0.4477 1-1 1c-0.3563-9.786e-4 -0.6851-0.1914-0.8633-0.5h-2.83l2.064 2.064c0.05293-0.0088 0.1065-0.01342 0.1602-0.01367 0.5523 0 1 0.4477 1 1s-0.4477 1-1 1-1-0.4477-1-1c6.63e-4 -0.1188 0.02249-0.2365 0.06445-0.3477l-2.096-2.096v3.027c0.3092 0.1785 0.4997 0.5082 0.5 0.8652 0 0.5523-0.4477 1-1 1s-1-0.4477-1-1c9.786e-4 -0.3563 0.1914-0.6851 0.5-0.8633v-2.971l-2.09 2.09c0.02579 0.08953 0.03893 0.1822 0.03906 0.2754 0 0.5523-0.4477 1-1 1s-1-0.4477-1-1 0.4477-1 1-1c0.08162-1.54e-4 0.163 0.0097 0.2422 0.0293l2.06-2.061h-2.889c-0.1781 0.3086-0.507 0.499-0.8633 0.5-0.5523 0-1-0.4477-1-1s0.4477-1 1-1c0.357 2.824e-4 0.6867 0.1908 0.8652 0.5h3.027l-2.107-2.107c-0.1018 0.03515-0.2087 0.05362-0.3164 0.05469-0.5523 0-1-0.4477-1-1s0.4477-1 1-1 1 0.4477 1 1c-8.598e-4 0.065-0.00806 0.1298-0.02148 0.1934l2.053 2.053v-2.83c-0.3086-0.1781-0.499-0.507-0.5-0.8633 0-0.5523 0.4477-1 1-1z" fill="currentColor"/>
</svg>
