<svg width="16" height="16" version="1.1" xmlns="http://www.w3.org/2000/svg">
  <defs>
    <style id="current-color-scheme" type="text/css">.ColorScheme-Text { color:#ebdbb2; } .ColorScheme-Highlight { color:#458588; }</style>
  </defs>
  <path class="ColorScheme-Text" d="m5 1c-2.1992 0-4 1.8008-4 4v3c-1.982e-5 0.00259 0 0.00522 0 0.00781v5.9922c0 0.55078 0.44922 1 1 1s1-0.44922 1-1v-5.9922c0-0.00259 1.98e-5 -0.00523 0-0.00781v-3c0-0.72266 0.4375-1.2383 1-1.5898v1.5898c0 0.55078 0.44922 1 1 1h2c0.55078 0 1-0.44922 1-1 0-0.72266 0.4375-1.2383 1-1.5898v1.5898c0 0.55078 0.44922 1 1 1h2.5c0.28906 0 0.5 0.21094 0.5 0.5v2.5h-7v3c0 1.1055 0.89453 2 2 2 0.7861 5e-3 1.5958 0.08117 2.3516-0.16406 0.23008-0.10424 0.44091-0.2464 0.64844-0.4082v0.57227c0 0.55078 0.44922 1 1 1s1-0.44922 1-1v-2.1582c0.71968-0.42218 1.6543-0.76001 3-0.8418v-2h-1v-2.5c0-1.3672-1.1328-2.5-2.5-2.5h-1.5v-2c0-0.55078-0.44922-1-1-1-1.8541 0-3.4237 1.2805-3.8711 3h-0.12891v-2c0-0.55078-0.44922-1-1-1z" fill="currentColor"/>
</svg>
