<svg width="16" height="16" version="1.1" xmlns="http://www.w3.org/2000/svg">
  <defs>
    <style type="text/css" id="current-color-scheme">.ColorScheme-Text { color:#ebdbb2; } .ColorScheme-Highlight { color:#458588; }</style>
  </defs>
  <path class="ColorScheme-Text" fill="currentColor" d="m13.06 9.102c0.2056-0.3246 0.3806-0.6685 0.5338-1.023 0.1138-0.245 0.2012-0.4988 0.28-0.7612 0.1662-0.56 0.2538-1.137 0.2538-1.724 0.00875-0.98-0.3325-1.934-0.9712-2.678-0.5512-0.6475-1.356-1.024-2.196-1.041-0.8838 0-1.724 0.3938-2.284 1.076-0.1662 0.21-0.4112 0.3237-0.6738 0.3237s-0.5075-0.1137-0.6738-0.3237c-0.56-0.6825-1.4-1.076-2.284-1.076-0.84 0.0175-1.645 0.3938-2.196 1.041-0.6388 0.7438-0.98 1.697-0.9712 2.678 0 0.5862 0.0875 1.164 0.2537 1.724 0.07875 0.2625 0.1663 0.5163 0.28 0.7612 0.3938 0.91 0.9275 1.75 1.575 2.494 0.6125 0.7088 1.286 1.374 2.012 1.96 0.5512 0.455 1.129 0.8838 1.724 1.269 0.09625 0.06126 0.1838 0.1225 0.28 0.1838 0.09625-0.06125 0.1838-0.1225 0.28-0.1838 0.595-0.385 1.172-0.8138 1.724-1.269 0.4428-0.357 0.8662-0.7438 1.263-1.158-0.2074-0.1785-0.42-0.364-0.6405-0.5582-0.1155 0.1321-0.2336 0.2607-0.3544 0.385-0.5871 0.581-1.354 1.31-2.186 1.141-0.6562-0.203-1.023-0.3596-1.204-0.742-0.2896-0.9905 0.581-1.395 1.087-1.913 0.2091-0.2179 0.42-0.4568 0.6256-0.7149-0.2756-0.2494-0.5442-0.504-0.8111-0.7604-0.1899-0.182-0.3806-0.3684-0.5749-0.5582-0.4296-0.4699-0.4384-0.6825-0.3141-1.208 0.098-0.3098 0.2336-0.5906 0.3929-0.8242 0.2468-0.3649 0.5416-0.5364 0.8435-0.5757 0.5049-0.06562 1.032 0.2345 1.393 0.616 0.2625 0.2835 0.5206 0.5714 0.7779 0.8601 0.1986-0.3272 0.3605-0.6291 0.49-0.8995 0.3071-0.5959 0.364-0.8269 0.9502-0.9704 0.1671-0.00875 0.3141 0.0245 0.4629 0.09188 0.7245 0.3386 0.9013 1.384 0.735 1.997-0.1374 0.4611-0.3771 1.044-0.6982 1.664 0.2783 0.2389 0.5591 0.4795 0.8164 0.6965zm-5.058-6.702c0.7376-0.9048 1.791-1.4 2.961-1.4 2.23 0 4.039 2.058 4.039 4.596 0 0.6825-0.1059 1.339-0.2914 1.965 0 0-0.168 0.5653-0.3168 0.8768-1.703 3.98-6.392 6.562-6.392 6.562s-4.689-2.581-6.392-6.562c-0.1488-0.3115-0.3168-0.8768-0.3168-0.8768-0.1855-0.6265-0.2914-1.283-0.2914-1.965 0-2.538 1.809-4.596 4.039-4.596 1.17 0 2.223 0.4952 2.961 1.4z"/>
</svg>
