<svg width="16" height="16" style="isolation:isolate" version="1.1" viewBox="0 0 16 16" xmlns="http://www.w3.org/2000/svg">
  <path d="m3.625 1v0.5391c0 0.3252-0.1498 0.6881-0.3555 1.084-0.5519 0.9594-1.118 1.895-1.252 3.004l-0.00781 3.373h1.75l0.00781-3.373c0.1341-1.109 0.702-2.044 1.254-3.004 0.2057-0.3959 0.3535-0.7588 0.3535-1.084v-0.5391zm3.5 0v0.5391c0 0.3252-0.1478 0.6881-0.3535 1.084-0.5519 0.9594-1.12 1.895-1.254 3.004l-0.00781 3.373h1.75l0.00781-3.373c0.1341-1.109 0.702-2.044 1.254-3.004 0.2057-0.3959 0.3535-0.7588 0.3535-1.084v-0.5391zm3.49 0v0.5391c-0.2757 1.468-1.428 2.77-1.607 4.088l-0.00781 3.373h4.98l-0.0059-3.361c-0.281-1.589-1.213-2.696-1.609-4.1v-0.5391zm3.385 9v3.125l-1.803-3.125zm-4.113 0 2.887 5h-2.311l-2.885-5zm-4.619 0 2.887 5h-2.309l-2.887-5zm-3.268 2.338 1.537 2.662h-1.537z" enable-background="new" fill="#ebdbb2" stroke-width=".1596"/>
</svg>
