<svg width="16" height="16" version="1.1" xmlns="http://www.w3.org/2000/svg">
  <defs>
    <style id="current-color-scheme" type="text/css">.ColorScheme-Text { color:#ebdbb2; } .ColorScheme-Highlight { color:#458588; }</style>
  </defs>
  <path class="ColorScheme-Text" d="m8.001 1c-0.82843 0-1.5 0.67157-1.5 1.5 0 0.06262 0.00427 0.12494 0.011719 0.18555l-2.457 1.2285c-0.27037-0.26399-0.63914-0.42773-1.0469-0.42773-0.82843 0-1.5 0.67157-1.5 1.5 0 0.64982 0.41418 1.2018 0.99219 1.4102v3.1934c-0.578 0.20838-0.99219 0.76033-0.99219 1.4102 0 0.82843 0.67157 1.5 1.5 1.5 0.40276 0 0.76765-0.15964 1.0371-0.41797l2.4668 1.2324c-0.00745 0.06061-0.011719 0.12292-0.011719 0.18555 0 0.82843 0.67157 1.5 1.5 1.5 0.82843 0 1.5-0.67157 1.5-1.5 0-0.06262-0.0043-0.12494-0.01172-0.18555l2.4648-1.2324c0.26948 0.25846 0.63424 0.41797 1.0371 0.41797 0.82843 0 1.5-0.67157 1.5-1.5 0-0.64894-0.41346-1.1992-0.99023-1.4082v-3.1836c0.57678-0.20903 0.99023-0.75926 0.99023-1.4082 0-0.82843-0.67157-1.5-1.5-1.5-0.40287 0-0.76763 0.15951-1.0371 0.41797l-2.4648-1.2324c0.0075-0.06061 0.01172-0.12292 0.01172-0.18555 0-0.82843-0.67157-1.5-1.5-1.5zm-1.041 2.5781c0.15265 0.14742 0.33685 0.26162 0.54102 0.33398v2.6758c-0.16644 0.05899-0.32154 0.1437-0.45508 0.25391l-2.5703-1.543c0.021316-0.1007 0.033203-0.20545 0.033203-0.3125 0-0.0593-0.00503-0.11828-0.011719-0.17578zm2.082 0 2.4629 1.2324c-0.0078 0.06194-0.01367 0.1254-0.01367 0.18945 0 0.10355 0.01127 0.20509 0.03125 0.30273l-2.5664 1.5391c-0.13353-0.1102-0.28864-0.19491-0.45508-0.25391v-2.6758c0.20416-0.07237 0.38837-0.18657 0.54102-0.33398zm-5.0918 2.5762 2.582 1.5488c-0.041738 0.20806-0.041258 0.38809 0 0.59375l-2.5723 1.543c-0.13494-0.11072-0.29075-0.19733-0.45898-0.25586v-3.1816c0.16425-0.05714 0.31656-0.14101 0.44922-0.24805zm8.0918 0.0059c0.1354 0.11109 0.29009 0.19733 0.45898 0.25586v3.168c-0.16889 0.05852-0.32358 0.14477-0.45898 0.25586l-2.5723-1.543c0.041746-0.20808 0.041251-0.38815 0-0.59375zm-4.9961 2.998c0.13353 0.1102 0.28864 0.19491 0.45508 0.25391v2.6758c-0.20417 0.07232-0.38837 0.18653-0.54102 0.33394l-2.4648-1.2324c0.011136-0.088543 0.030688-0.25281-0.017578-0.49023 0.85279-0.51498 2.5684-1.541 2.5684-1.541zm1.9102 0 2.5664 1.5391c-0.01998 0.09765-0.03125 0.19918-0.03125 0.30273 0 0.06406 0.0059 0.12751 0.01367 0.18945l-2.4629 1.2324c-0.15265-0.14742-0.33685-0.26162-0.54102-0.33398v-2.6758c0.16644-0.05899 0.32154-0.1437 0.45508-0.25391z" fill="currentColor"/>
</svg>
