<svg width="16" height="16" version="1.1" xmlns="http://www.w3.org/2000/svg">
  <defs>
    <style type="text/css" id="current-color-scheme">.ColorScheme-Text { color:#ebdbb2; } .ColorScheme-Highlight { color:#458588; }</style>
  </defs>
  <path class="ColorScheme-Text" fill="currentColor" d="m5.552 7.28c-2.976-1.775-4.552-6.28-4.552-6.28h2.45c1.75 0 2.1 2.45 4.55 4.9 2.45-2.45 2.8-4.9 4.55-4.9h2.45s-2.45 7-7 7c-0.9074 0.06464-2.088-0.4703-2.465-0.7215 0.0056 0 0.0112 9.332e-4 0.0168 9.332e-4zm4.895 1.441c2.976 1.775 4.553 6.28 4.553 6.28h-2.45c-1.75 0-2.1-2.45-4.55-4.9-2.45 2.45-2.8 4.9-4.55 4.9h-2.45s2.45-7 7-7c0.8607-0.06131 2.033 0.4344 2.466 0.7215-0.0066-9.332e-4 -0.01214-9.332e-4 -0.01866-9.332e-4z"/>
</svg>
