<svg width="16" height="16" version="1.1" xmlns="http://www.w3.org/2000/svg">
  <defs>
    <style id="current-color-scheme" type="text/css">.ColorScheme-Text { color:#ebdbb2; } .ColorScheme-Highlight { color:#458588; }</style>
  </defs>
  <path class="ColorScheme-Text" d="m9.289 14.88c-0.3894-0.2354-0.6387-0.6457-1.722-2.835-0.5985-1.213-1.169-2.29-1.267-2.393-0.1102-0.1164-1.014-0.5967-2.363-1.256-2.666-1.301-2.936-1.508-2.936-2.245 0-0.3439 0.168-0.6728 0.4314-0.8443 0.09012-0.0595 2.878-1.056 6.194-2.216 5.827-2.038 6.044-2.108 6.442-2.084 0.3439 0.021 0.4436 0.056 0.609 0.2144 0.2485 0.2362 0.3605 0.5644 0.3115 0.9152-0.05162 0.3771-4.235 12.19-4.391 12.4-0.3316 0.4462-0.8951 0.5932-1.309 0.3412z" fill="currentColor"/>
</svg>
