<svg width="16" height="16" version="1.1" xmlns="http://www.w3.org/2000/svg">
  <defs>
    <style id="current-color-scheme" type="text/css">.ColorScheme-Text { color:#ebdbb2; } .ColorScheme-Highlight { color:#458588; }</style>
  </defs>
  <path class="ColorScheme-Text" d="m10.04 14.69c-2.504-0.535-4.961-2.643-5.776-5.094-0.21-0.632-0.284-1.667-0.158-2.226 0.452-2.021 2.749-2.747 5.664-1.792 1.082 0.354 2.667 1.2 2.667 1.423 0 0.113-0.2 0.219-0.793 0.42l-0.43 0.146-0.595-0.292c-2.302-1.129-4.364-0.834-4.826 0.691-0.202 0.665-0.087 1.382 0.364 2.287 0.915 1.831 3.102 3.142 4.948 3.056 0.522-0.025 0.637-0.055 1.162-0.309 0.742-0.36 1.479-1.051 1.795-1.687 0.828-1.663 0.352-3.49-1.37-5.263-2.003-2.063-5.025-3.429-7.577-3.424-1.227 2e-3 -1.936 0.241-2.577 0.87-0.629 0.617-0.872 1.375-0.803 2.504 0.151 2.465 1.594 5.051 3.982 7.135 0.45 0.394 0.819 0.757 0.819 0.807 0 0.171-0.243 0.093-0.833-0.269-2.035-1.249-3.649-2.985-4.716-5.073-0.844-1.65-1.158-3.25-0.892-4.53 0.204-0.978 0.693-1.721 1.458-2.223 1.675-1.039 4.438-0.609 5.931-0.178 3.188 0.946 6.034 2.887 7.531 5.1 1.547 2.169 1.15 5.02-0.308 6.522-0.729 0.714-1.209 1.03-1.954 1.285-0.74 0.253-1.842 0.3-2.713 0.114z" fill="currentColor"/>
</svg>
