<svg width="16" height="16" version="1.1" xmlns="http://www.w3.org/2000/svg">
  <defs>
    <style id="current-color-scheme" type="text/css">.ColorScheme-Text { color:#ebdbb2; } .ColorScheme-Highlight { color:#458588; }</style>
  </defs>
  <path class="ColorScheme-Text" d="m1 1v14h14v-14zm1 1h2.34c1.884 0 3.189 1.294 3.189 2.982 0 1.276-0.9013 3.018-3.189 3.018h-2.34zm9.033 0.00391c0.8342-0.04375 1.652 0.2425 2.277 0.7969l-0.8027 0.9668c-0.4084-0.3876-0.953-0.5988-1.516-0.5879-0.9332 0-1.664 0.8222-1.664 1.807 0 0.831 0.5199 1.854 1.756 1.854 0.4271 0.01444 0.848-0.1058 1.203-0.3438v-0.832h-1.283v-1.1h2.518v2.516c-2.092 1.817-5.522 0.8486-5.522-2.078-0.01385-1.675 1.358-3.031 3.033-2.998zm-6.693 1.188h-1.021v3.623h1.021c1.016 0.059 1.858-0.7767 1.807-1.793 0-1.503-1.23-1.86-1.807-1.83zm-2.34 9.809h6v1h-6z" fill="currentColor"/>
</svg>
