<svg width="16" height="16" version="1.1" xmlns="http://www.w3.org/2000/svg">
  <defs>
    <style id="current-color-scheme" type="text/css">.ColorScheme-Text { color:#ebdbb2; } .ColorScheme-Highlight { color:#458588; }</style>
  </defs>
  <path class="ColorScheme-Text" d="m3 1.5c-1.1447-0.034353-2.1191 1.0576-2 2.1877 0.0067796 2.1722-0.013628 4.3452 0.010327 6.5168 0.081669 1.0832 1.148 1.9136 2.2149 1.7955 0.3863-0.070778 0.85538 0.15503 0.77478 0.61261 0.039512 0.43847-0.14541 1.0052 0.29515 1.2937 0.41822 0.27793 0.80877-0.096723 1.0858-0.38472 0.52716-0.46878 1.0047-1.0014 1.5677-1.4243 0.48588-0.18057 1.0216-0.06406 1.531-0.097321 1.5749-0.0066 3.1505 0.01338 4.7249-0.01033 1.0832-0.081666 1.9136-1.148 1.7955-2.2149-0.0068-2.1596 0.01363-4.3202-0.01033-6.4793-0.081666-1.0832-1.148-1.9136-2.2149-1.7955h-9.7748zm4.998 2.6719c0.49376 0.029106 0.52202 0.60307 0.70963 0.95106 0.11031 0.24597 0.17054 0.63258 0.5241 0.5853 0.42494 0.061821 0.88583-0.00873 1.2793 0.1721 0.44176 0.38274-0.03446 0.80851-0.36063 1.0437-0.19607 0.18717-0.44475 0.3268-0.59984 0.55099 0.027528 0.47864 0.23804 0.93493 0.28931 1.4131-0.083784 0.63799-0.76428 0.42273-1.0978 0.13231l-0.74213-0.45997c-0.4204 0.24667-0.81832 0.53622-1.2541 0.75355-0.63184 0.11673-0.6374-0.59688-0.46528-1.0037 0.050676-0.27905 0.17291-0.55056 0.16874-0.83538-0.30387-0.37086-0.74419-0.61431-1.0663-0.9715-0.3064-0.5661 0.36911-0.79255 0.81034-0.75325 0.28069-0.038032 0.5769-0.0035563 0.84571-0.0971 0.25774-0.40366 0.35527-0.89568 0.59512-1.3118 0.086652-0.10879 0.22547-0.17104 0.36384-0.1695z" fill="currentColor" stroke-width=".125"/>
</svg>
