<svg width="16" height="16" version="1.1" xmlns="http://www.w3.org/2000/svg">
  <defs>
    <style id="current-color-scheme" type="text/css">.ColorScheme-Text { color:#ebdbb2; } .ColorScheme-Highlight { color:#458588; }</style>
  </defs>
  <path class="ColorScheme-Text" d="m2 1c-1.2852 0-2 1-2 2 0.0075842 2.6066-0.026691 5.394 0 8 0 1 1 2 2 2 0.33014 0.02495 1.0253-0.06452 1.3323 0.08078 0.22819 0.46912-0.022338 1.0426 0.16314 1.531 0.26532 0.5431 0.98999 0.44795 1.3368 0.04805 0.6388-0.46747 1.2254-1.0151 1.9023-1.4241 0.89962-0.37539 2.3179-0.19143 3.2654-0.23573 0.42674-5e-5 4 0 4 0 1 0 2-1 2-2-0.0077-2.5751 0.02737-5.4256 0-8 0-1-1-2-2-2-3.7246-6.7e-6 -8.2761 2.33e-5 -12 0zm7.1757 3.5835c0.079772 0.44942 0.29278 0.76162 0.77015 0.63521 0.54678 0.016212 1.1002-0.033997 1.6425 0.02807 0.64526 0.36542 0.40206 1.0641 0.12201 1.4577-0.33204 0.55253-1.0154 0.87531-1.2718 1.4416 0.14724 0.80804 0.82724 1.6179 0.40541 2.4527-0.42898 0.73645-1.3701 0.28046-1.8793-0.11525-0.51794-0.45853-1.15-0.80379-1.6974-0.18416-0.56948 0.34739-1.2716 0.95337-1.9605 0.55017-0.62768-0.50957-0.22671-1.3741-0.029365-1.9986 0.47597-0.68919-0.11293-1.2267-0.57465-1.7069-0.40996-0.46655-1.0548-1.2606-0.45527-1.8199 0.70686-0.18112 1.4706-0.10583 2.2038-0.10353 0.37117-0.7161 0.43333-1.6913 1.1856-2.1385 1.0058-0.049197 1.219 0.68083 1.5388 1.5014z" fill="currentColor" stroke-width=".13867"/>
</svg>
