<svg width="16" height="16" version="1.1" xmlns="http://www.w3.org/2000/svg">
  <defs>
    <style id="current-color-scheme" type="text/css">.ColorScheme-Text { color:#ebdbb2; } .ColorScheme-Highlight { color:#458588; }</style>
  </defs>
  <path class="ColorScheme-Text" fill="currentColor" transform="matrix(.14001 0 0 .14001 -9.7319 -10.048)" d="m86.637 78.905c-8.8359 0-15.986 7.1643-15.986 16v52.004c0 8.8359 7.1504 16 15.986 16h4.2128c2.115 0.10704 3.7943 1.8478 3.7943 3.9896v7.0027c0 1.9922 1.185 3.7965 3.0131 4.5894 1.8281 0.78906 3.9454 0.41471 5.3985-0.94857l13.531-12.708c1.2701-1.1915 2.9264-1.8711 4.6591-1.925h45.406c8.8359 0 15.986-7.1643 15.986-16v-52.004c0-8.8359-7.1504-16-15.986-16h-80.015zm40.049 16.474c1.916-0.01281 3.4949 1.0555 4.1988 2.776l4.2546 10.406c0.32588 0.80809 1.0369 1.3158 1.8971 1.381l11.215 0.83697c1.8508 0.13034 3.3463 1.3093 3.9198 3.0689s0.05364 3.5995-1.3671 4.7986l-8.5929 7.2677c-0.66472 0.56043-0.94787 1.3847-0.73932 2.2319l2.6923 10.922c0.4432 1.7987-0.21786 3.6052-1.7298 4.687-1.4989 1.0949-3.4029 1.145-4.98 0.1674l-10.741-6.64-10.727 6.64c-1.5771 0.97757-3.481 0.92749-4.98-0.1674-1.4989-1.0948-2.1598-2.8883-1.7297-4.687l2.6644-10.922c0.2085-0.84722-0.06067-1.6715-0.72538-2.2319l-8.5929-7.2677c-1.4207-1.1991-1.9406-3.039-1.367-4.7986 0.57349-1.7596 2.069-2.9385 3.9198-3.0689l11.215-0.83697c0.87326-0.0652 1.5713-0.57287 1.8971-1.381l4.2546-10.406c0.70384-1.7205 2.2791-2.776 4.143-2.776z"/>
</svg>
