<svg width="16" height="16" version="1.1" xmlns="http://www.w3.org/2000/svg">
  <defs>
    <style id="current-color-scheme" type="text/css">.ColorScheme-Text { color:#ebdbb2; } .ColorScheme-Highlight { color:#458588; }</style>
  </defs>
  <path class="ColorScheme-Text" d="m5 4-5e-5 1h-1.906c-0.6059 0-1.094 0.4878-1.094 1.094v7.859c0 0.6059 0.4878 1.094 1.094 1.094h9.812c0.6059 0 1.094-0.4878 1.094-1.094v-7.859c0-0.6059-0.4878-1.094-1.094-1.094h-1.906v-1c0-1.653-1.347-3-3-3s-3 1.347-3 3zm3-2c1.117 0 2 0.8834 2 2l-5e-5 1h-4l5e-5 -1c5.58e-5 -1.117 0.8834-2 2-2zm-2.531 4c0.2868 0 0.5312 0.2239 0.5312 0.5s-0.2445 0.5-0.5312 0.5-0.5-0.2239-0.5-0.5 0.2132-0.5 0.5-0.5zm5 0c0.2868 0 0.5312 0.2239 0.5312 0.5s-0.2445 0.5-0.5312 0.5-0.5-0.2239-0.5-0.5 0.2132-0.5 0.5-0.5z" fill="currentColor"/>
</svg>
