<svg width="16" height="16" version="1.1" xmlns="http://www.w3.org/2000/svg">
  <defs>
    <style id="current-color-scheme" type="text/css">.ColorScheme-Text { color:#ebdbb2; } .ColorScheme-Highlight { color:#458588; }</style>
  </defs>
  <path class="ColorScheme-Text" d="m4.2227 1.5c-1.9154 0-3.1855 0.95799-3.1855 2.3867 0 1.0048 0.48518 1.7264 2.3535 2.9824-1.9939 0.47101-3.3906 1.7902-3.3906 3.9883 0 2.0724 1.5064 3.6426 3.8301 3.6426 2.1823 0 3.9414-1.5705 3.9414-3.9727 0-1.8369-0.80038-3.0614-2.9199-4.5059-2.2294-1.4915-2.6543-1.9789-2.6543-2.7168 0-0.87922 0.81677-1.3965 1.9629-1.3965 0.157 0 0.3137 0.015467 0.4707 0.046875l0.78516 0.94141c0.39251 0.54951 0.80085 0.76953 1.1934 0.76953 0.47101 0 0.81633-0.36117 0.83203-0.80078-0.50241-0.80072-1.7115-1.3652-3.2188-1.3652zm-0.43945 5.6211c1.57 1.0048 2.418 2.2145 2.418 3.9102 0 1.9311-0.76876 2.9512-2.1504 2.9512-1.3345 0-2.3555-1.2567-2.3555-3.5332 0-1.4915 0.53356-2.6844 2.0879-3.3281zm8.9473 0.37891c-3.6618 0.01176-3.2038 0.26692-3.9805 2.127l0.26367 0.01953c0.27395-0.30981 0.38177-1.2262 1.9961-1.0469-0.0587 3.9266-1.7795 4.341-1.6719 5.1465 0.03913 0.45658 0.39966 0.7376 0.79102 0.75391 1.236-0.04239 1.1816-1.7077 1.5664-5.9082h1.5938c-0.08479 1.4806-0.31571 2.9608-0.3418 4.4121 0.01957 0.96533 0.60599 1.4798 1.3789 1.4863 1.2719 0.042391 1.6738-1.4415 1.6738-2.0742h-0.27344c-0.02608 0.5218-0.27765 0.89709-0.8125 0.91992-1.4578 0.01957-0.65626-2.5644-0.64648-4.7266l1.7324 0.011719-0.009766-1.1074c-1.3496-0.00657-2.4147-0.016387-3.2598-0.013672z" fill="currentColor"/>
</svg>
