<svg width="16" height="16" version="1.1" xmlns="http://www.w3.org/2000/svg">
  <defs>
    <style id="current-color-scheme" type="text/css">.ColorScheme-Text { color:#ebdbb2; } .ColorScheme-Highlight { color:#458588; }</style>
  </defs>
  <path class="ColorScheme-Text" d="m2.246 1.265c0.3342 0.2336 0.903 0.5836 1.308 0.9004 0.3097 0.2887 0.3596 0.4305 0.3596 0.8907v5.305c0 1.412 0.1645 2.438-0.3097 3.507-0.5241 1.181-1.631 1.542-2.396 2.589-0.7289 0.9012 0.6956 0.4707 1.255 0.189 1.197-0.6064 2.151-0.945 3.586-1.102 1.809-0.03588 2.949 0.042 4.593 0.0052 2.975 0 4.353-2.902 4.353-6.643 0-3.151-1.378-5.907-4.632-5.892-2.783-0.01225-6.849-0.01487-8.136-0.01487-0.3675 0-0.2128 0.1037 0.0191 0.2656zm4.641 1.664c1.047 0.00262 3.195 0.0315 3.616 0.2362 1.839 1.033 2.115 2.272 2.076 4.038 0.05075 1.597-0.5372 3.32-2.076 4.137-0.5617 0.2721-4.098 0.2721-4.098 0.2721l-0.09362-8.682s0.2275-0.00175 0.5757-0.00175z" fill="currentColor"/>
</svg>
