<svg width="16" height="16" version="1.1" xmlns="http://www.w3.org/2000/svg">
  <defs>
    <style id="current-color-scheme" type="text/css">.ColorScheme-Text { color:#ebdbb2; } .ColorScheme-Highlight { color:#458588; }</style>
  </defs>
  <path class="ColorScheme-Text" d="m7.5994 1.0004-0.42383 1.2051c-0.92527-0.032617-1.7589 0.26384-2.5918 0.62109l-0.75-0.58398 0.30273 0.83984c-0.12606 0.075156-0.24084 0.16674-0.36133 0.25 0.27341 0.43364 0.05631 0.99584-0.44726 0.90039-0.09833-0.018766-0.22544-0.06872-0.34961-0.18945-0.05008 0.052867-0.10206 0.10334-0.15039 0.1582l-0.62109-0.32617 0.38086 0.61523c3.09e-4 6.176e-4 -0.10096 0.12504-0.25195 0.34766 0.73481-0.053196 1.1709 0.48174 1.2715 0.62109 0.35085-1.1299 1.432-1.7809 2.4863-1.4668 1.1023 0.32849 1.7581 1.5888 1.4629 2.8145-0.14004 0.58087-0.4082 0.8895-0.4082 0.89258-0.96038-0.2965-1.9925 0.24212-2.3867 1.291-0.41549 1.1055 0.031248 2.373 0.99609 2.8789-0.028422-0.011535-0.057657-0.02399-0.085937-0.03711-1.0224-0.4751-1.5034-1.7829-1.0762-2.9199 0.073605-0.19561 0.16786-0.37308 0.28125-0.53125-0.49565-0.19229-0.88823-0.57895-1.127-1.0605-0.19794 0.3969-0.53081 0.68241-0.91406 0.80078 0.55386 0.9548 0.31879 2.1212-0.33203 2.6191 0.62516-0.59607 0.67252-1.691 0.26367-2.4707-0.45246-0.8546-1.3277-1.1137-1.9531-0.57812-0.62538 0.53562-0.76507 1.6631-0.3125 2.5176 0.29387 0.559 0.7393 0.81387 1.1172 0.85156 0.21812 0.57449 0.51631 1.1126 0.88281 1.5996 1.0934 1.4535 2.7607 2.3764 4.6699 2.3379 1.8915-0.03808 3.5234-1.016 4.5801-2.4824 0.91256-1.2669 1.3649-2.8564 1.2344-4.4922l0.94727-0.6543-1.0293 0.017578c-0.03234-0.27749-0.11424-0.54489-0.17383-0.81641 0 0 1.2563-0.32463 2.7891-0.046875 0.25962 0.04756 0.31398 0.12869 0.15625-0.1543-0.09949-0.17842-0.19922-0.35468-0.29883-0.5332-0.1384-0.24838-0.82253-0.24381-0.96094-0.49219-0.21542-0.38631 0.11581-1.0278-0.09961-1.4141-0.16398-0.29436-0.73055-0.45758-0.89453-0.75195-0.09179-0.1648-0.11971-0.39578-0.11133-0.59375 0.01762-0.42409 0.03466-0.66755-0.27539-0.25391-0.49235 0.65713-0.9397 1.3858-1.3535 2.1758-0.1796-0.25361-0.50072-0.54019-0.74805-0.78711 0.08939-0.22888 0.17819-0.45862 0.26758-0.6875l-0.54492 0.44727c-0.13931-0.12164-0.29712-0.22046-0.44531-0.33008l0.22461-1.5-0.86914 1.1289c-0.55959-0.3057-1.1746-0.41589-1.791-0.5332zm-1.4375 1.5664c0.91464-0.058631 0.91261 0.92671 2e-3 1.002-0.93812 0.076813-0.92708-0.94077-2e-3 -1.002zm2.502 1.2109c-0.65652 0.18692-1.1635-0.74577-0.58008-1.0566 0.6822-0.36378 1.3952 0.82446 0.58008 1.0566zm4.8105-0.19141c-0.46792 0.49154-1.0198 0.88886-1.6348 1.1602-0.02784-0.043337-0.05325-0.075901-0.08008-0.11523 0.64969-0.21916 1.1796-0.63481 1.7148-1.0449zm-3.5098 1.4004c-0.57918 0.80424-1.6468-0.32707-0.91211-0.9707 0.57366-0.50291 1.3896 0.308 0.91211 0.9707zm4.0195-0.51758c-0.50827 0.44099-1.0942 0.77687-1.7305 0.98242-0.0216-0.041396-0.042-0.084079-0.06445-0.125 0.64769-0.17523 1.252-0.46636 1.7949-0.85742zm-2.9844 0.38281-1.0195 1.3281 0.7168-1.0566-1.2578 0.61914zm0.51367 0.33203c0.50536 0.023975 0.97872 0.55131 0.8125 1.0566-0.13751 0.41839-0.65279 0.5581-1.0801 0.30078-0.53798-0.32486-0.57981-1.0458-0.08008-1.2871 0.10304-0.074343 0.23418-0.047362 0.34766-0.070312zm-4.3867 0.054687c2.86e-4 0.21804-0.02498 0.43943-0.07813 0.66016-0.32511 1.3492-1.5737 2.1486-2.7871 1.7871-0.11254-0.033495-0.22063-0.074756-0.32422-0.125 0.24128 0.35045 0.58251 0.61817 0.99219 0.74805 0.48922-0.62727 1.2666-0.90826 2.0078-0.69922 0.1654-0.22562 0.29124-0.49371 0.36328-0.79297 0.13343-0.5538 0.05779-1.1133-0.17383-1.5781zm1.6133 0.97656c-0.10965 0.43971-1.0549-0.051779-0.76562-0.4043 0.20518-0.2501 0.85076 0.062639 0.76562 0.4043zm4.2852-0.49023c0.35767 5.826e-4 0.83961 0.042517 1.3652 0.20117-0.62666-0.12482-1.2761-0.13678-1.9238-0.025391-0.01875-0.043925-0.03898-0.087565-0.05859-0.13086 0.0261-0.00474 0.25952-0.045505 0.61719-0.044922zm-11.924 0.003906c-0.29805 0.13295-0.54563 1.307-0.20898 1.8633 0.0936-0.058093 0.19092-0.10664 0.28711-0.16016-0.34222-0.57513-0.29757-1.237-0.07813-1.7031zm4.6289 0.13867c-0.28953 0.006206-0.48928 0.36204-0.33398 0.66211 0.10984 0.21125 0.35103 0.28409 0.54102 0.16211 0.12036-0.077274 0.19169-0.21396 0.19922-0.35742-0.22604 0.34323-0.63966-0.17476-0.3125-0.38477 0.0297-0.018962 0.06178-0.031366 0.09375-0.035156-0.05776-0.032232-0.12265-0.048276-0.1875-0.046876zm-2.9004 0.38477c-0.20574 0.004536-0.35504 0.26021-0.24219 0.47656 0.07902 0.15232 0.25574 0.20698 0.39258 0.11914 0.08654-0.055616 0.13704-0.15643 0.14258-0.25977-0.16285 0.24641-0.46264-0.12611-0.22656-0.27734 0.02131-0.013745 0.04519-0.022595 0.06836-0.025391-0.04163-0.02323-0.08805-0.034231-0.13477-0.033203zm0.66602 0.10742c-0.17961 0.61115-0.62651 1.0522-1.1562 1.2012 0.15546 0.11013 0.29982 0.25694 0.42188 0.43945 0.39689-0.12956 0.73061-0.45502 0.89062-0.90234-0.087531-0.23242-0.14133-0.48169-0.15625-0.73828zm7.2461 0.54297c0.38033 0.019455 0.64374 0.18552 0.62695 0.61914-0.0506 1.3184-0.53848 1.9264-1.1055 1.9727-0.09819 8e-3 -0.19723-0.00239-0.29883-0.027344 0.21571 0.018358 0.64931-0.030958 0.94922-0.63282-0.55673-0.31159-1.1394-0.50221-1.7031-0.57031 0.56696 0.022593 1.1661 0.18742 1.7363 0.49805 0.07261-0.16164 0.1323-0.35285 0.17578-0.57422-0.62807-0.19861-1.2603-0.25703-1.8496-0.19336 0.58177-0.11045 1.2258-0.08138 1.8652 0.11328 0.02899-0.16638 0.04849-0.34748 0.05859-0.54688 0.0039-0.074102-0.0014-0.14013-0.01367-0.19922-0.6761-0.035552-1.3272 0.076474-1.9043 0.30273 0.55306-0.26845 1.2037-0.41083 1.8828-0.38477-0.13869-0.36863-0.63912-0.389-1.1973-0.28125 0.31199-0.075544 0.56816-0.10645 0.77734-0.095703zm1.5957 1.582c0.33246 0.39034-0.34132 1.0701-0.66406 0.66992-0.32654-0.40302 0.34809-1.0398 0.66406-0.66992zm-8.4824-0.046875c-0.20761 0.15769-0.28073 0.54261-0.05664 0.72461 0.09336 0.075683 0.14816 0.18102 0.125 0.32227-0.01805 0.1106-0.08867 0.24928-0.19922 0.35547-0.12618 0.12103-0.27896 0.18418-0.41211 0.16602 0.12732-0.034916 0.2547-0.12093 0.35742-0.23437 0.088528-0.097647 0.14868-0.20951 0.17383-0.30273 0.05016-0.18534-0.062114-0.21816-0.15234-0.34961-0.053429-0.077895-0.084447-0.17555-0.082031-0.28125 0.004118-0.18171 0.10442-0.33453 0.24609-0.40039zm5.9453 1.1543-0.86328 0.68945 0.64453-0.58203-0.70898 0.13672zm1.1445 0.96289c-0.32889 0.38435-0.97724-0.28253-0.66406-0.66992 0.3148-0.39031 1.0092 0.26593 0.66406 0.66992zm-6.6152-0.06641c-0.07872 0.28946-0.32139 0.50195-0.60742 0.50195-0.25762 0-0.47922-0.17227-0.57812-0.41797 0.26636 0.40704 1.1072 0.10099 1.1855-0.08399zm4.5488 0.15039c0.33813 0.39498-0.34407 1.0686-0.66406 0.67188-0.31416-0.38766 0.33593-1.056 0.66406-0.67188zm1.084 0.51562 0.87695 0.4082-1.0625-0.0059 0.83203-0.05078zm-6.3613 1.334c0.05747-0.0082 0.14409 0.06417 0.08398 0.11328-0.04678 0.03749-0.13989-0.01764-0.125-0.07422 0.01005-0.03904 0.04102-0.03781 0.04102-0.03906zm0.6582 0.03906c0.15842 0.0057 0.38897 0.14323 0.37695 0.27734-0.02079 0.23506-0.63362-0.06153-0.5-0.23438 0.02496-0.03254 0.07024-0.04487 0.12305-0.04297zm-0.22461 0.35352c0.08282 0.0042 0.20332 0.07823 0.19726 0.14648-0.01044 0.11946-0.33497-0.02992-0.26172-0.125 0.01306-0.02503 0.04429-0.01477 0.06445-0.02149zm0.81641 0.3418c0.1093-0.01545 0.27343 0.12257 0.1582 0.2168-0.09369 0.07561-0.26511-0.03247-0.23633-0.14258 0.01213-0.0464 0.04169-0.06907 0.07813-0.07422z" fill="currentColor"/>
</svg>
