<svg width="16" height="16" version="1.1" xmlns="http://www.w3.org/2000/svg">
  <defs>
    <style type="text/css" id="current-color-scheme">.ColorScheme-Text { color:#ebdbb2; } .ColorScheme-Highlight { color:#458588; }</style>
  </defs>
  <path class="ColorScheme-Text" fill="currentColor" d="m16 4.176-1.748 0.018-0.436 1.291-0.618-1.284-1.182-0.01v4.751l-0.079 0.078 1.354 0.972 0.021-1.848 0.504 1.326 0.454-1.378 4e-3 1.252 5e-3 1.252 1.268 0.899 4e-3 -3.49 4e-3 -3.356zm-11.29 1e-3 -0.407 0.306-1e-3 4.439 2.078 1.552 1.135-0.852-4e-3 -5.139-0.402-0.306zm3.854 0-0.402 0.306-4e-3 5.139 1.136 0.852 2.077-1.552-1e-3 -4.439-0.407-0.306zm-8.567 3e-3 0.461 0.455 0.021 7.188 3.303-2.675-0.099-0.081v-4.584l-0.389-0.3-1.627-3e-3zm6.324 0.967 0.229 0.077-9e-3 3.99-1.273-0.956-2e-3 -3.035 0.157-0.072zm3.032 0 0.898 4e-3 0.156 0.072-2e-3 3.035-1.273 0.956-8e-3 -3.99zm-6.804 0.016 0.153 0.069v3.409l-1.284 0.975-0.011-4.449z"/>
</svg>
