<svg xmlns="http://www.w3.org/2000/svg" style="isolation:isolate" width="16" height="16" viewBox="0 0 16 16">
 <defs>
  <style id="current-color-scheme" type="text/css">
   .ColorScheme-Text { color:#ebdbb2; } .ColorScheme-Highlight { color:#458588; }
  </style>
  <linearGradient id="arrongin" x1="0%" x2="0%" y1="0%" y2="100%">
   <stop offset="0%" style="stop-color:#d79921; stop-opacity:1"/>
   <stop offset="100%" style="stop-color:#b57614; stop-opacity:1"/>
  </linearGradient>
  <linearGradient id="aurora" x1="0%" x2="0%" y1="0%" y2="100%">
   <stop offset="0%" style="stop-color:#83a598; stop-opacity:1"/>
   <stop offset="100%" style="stop-color:#b16286; stop-opacity:1"/>
  </linearGradient>
  <linearGradient id="fitdance" x1="0%" x2="0%" y1="0%" y2="100%">
   <stop offset="0%" style="stop-color:#8ec07c; stop-opacity:1"/>
   <stop offset="100%" style="stop-color:#458588; stop-opacity:1"/>
  </linearGradient>
  <linearGradient id="oomox" x1="0%" x2="0%" y1="0%" y2="100%">
   <stop offset="0%" style="stop-color:#458588; stop-opacity:1"/>
   <stop offset="100%" style="stop-color:#928374; stop-opacity:1"/>
  </linearGradient>
  <linearGradient id="rainblue" x1="0%" x2="0%" y1="0%" y2="100%">
   <stop offset="0%" style="stop-color:#b8bb26; stop-opacity:1"/>
   <stop offset="100%" style="stop-color:#076678; stop-opacity:1"/>
  </linearGradient>
  <linearGradient id="sunrise" x1="0%" x2="0%" y1="0%" y2="100%">
   <stop offset="0%" style="stop-color: #fe8019; stop-opacity:1"/>
   <stop offset="100%" style="stop-color: #fabd2f; stop-opacity:1"/>
  </linearGradient>
  <linearGradient id="telinkrin" x1="0%" x2="0%" y1="0%" y2="100%">
   <stop offset="0%" style="stop-color: #83a598; stop-opacity:1"/>
   <stop offset="100%" style="stop-color: #83a598; stop-opacity:1"/>
  </linearGradient>
  <linearGradient id="60spsycho" x1="0%" x2="0%" y1="0%" y2="100%">
   <stop offset="0%" style="stop-color: #fb4934; stop-opacity:1"/>
   <stop offset="25%" style="stop-color: #fabd2f; stop-opacity:1"/>
   <stop offset="50%" style="stop-color: #fe8019; stop-opacity:1"/>
   <stop offset="100%" style="stop-color: #689d6a; stop-opacity:1"/>
  </linearGradient>
  <linearGradient id="90ssummer" x1="0%" x2="0%" y1="0%" y2="100%">
   <stop offset="0%" style="stop-color: #b16286; stop-opacity:1"/>
   <stop offset="20%" style="stop-color: #8ec07c; stop-opacity:1"/>
   <stop offset="50%" style="stop-color: #fabd2f; stop-opacity:1"/>
   <stop offset="100%" style="stop-color: #458588; stop-opacity:1"/>
  </linearGradient>
  <linearGradient id="cyberneon" x1="0%" x2="0%" y1="0%" y2="100%">
    <stop offset="0" style="stop-color:#83a598; stop-opacity:1"/>
    <stop offset="1" style="stop-color:#b16286; stop-opacity:1"/>
  </linearGradient>
  <clipPath id="_clipPath_tOWnvfsc1lrHtOmj8KocUsr9IyHlVyZW">
   <rect width="16" height="16"/>
  </clipPath>
 </defs>
 <g clip-path="url(#_clipPath_tOWnvfsc1lrHtOmj8KocUsr9IyHlVyZW)">
  <rect style="fill:#282828" fill-opacity="0" width="16" height="16"/>
  <path style="fill:currentColor" class="ColorScheme-Text" fill-rule="evenodd" d="M -0.031 12.5 L 15.969 12.5 L 15.969 14.5 L -0.031 14.5 L -0.031 12.5 Z"/>
  <path style="fill:currentColor" class="ColorScheme-Text" fill-rule="evenodd" d="M 0.91 10.071 L 0.91 1.6 L 3.524 1.6 L 3.524 1.6 Q 4.383 1.6 5.085 1.842 L 5.085 1.842 L 5.085 1.842 Q 5.787 2.084 6.246 2.483 L 6.246 2.483 L 6.246 2.483 Q 6.706 2.883 7.015 3.433 L 7.015 3.433 L 7.015 3.433 Q 7.323 3.984 7.463 4.583 L 7.463 4.583 L 7.463 4.583 Q 7.602 5.182 7.602 5.835 L 7.602 5.835 L 7.602 5.835 Q 7.602 6.44 7.475 7.021 L 7.475 7.021 L 7.475 7.021 Q 7.348 7.602 7.039 8.165 L 7.039 8.165 L 7.039 8.165 Q 6.73 8.727 6.271 9.145 L 6.271 9.145 L 6.271 9.145 Q 5.811 9.562 5.091 9.816 L 5.091 9.816 L 5.091 9.816 Q 4.371 10.071 3.475 10.071 L 3.475 10.071 L 0.91 10.071 Z M 2.362 8.703 L 3.681 8.703 L 3.681 8.703 Q 4.322 8.703 4.812 8.449 L 4.812 8.449 L 4.812 8.449 Q 5.303 8.195 5.575 7.765 L 5.575 7.765 L 5.575 7.765 Q 5.847 7.336 5.974 6.852 L 5.974 6.852 L 5.974 6.852 Q 6.101 6.368 6.101 5.835 L 6.101 5.835 L 6.101 5.835 Q 6.101 4.649 5.52 3.808 L 5.52 3.808 L 5.52 3.808 Q 4.94 2.967 3.814 2.967 L 3.814 2.967 L 2.362 2.967 L 2.362 8.703 Z M 15.08 2.992 L 12.672 2.992 L 12.672 10.071 L 11.22 10.071 L 11.22 2.992 L 8.812 2.992 L 8.812 1.6 L 15.08 1.6 L 15.08 2.992 Z"/>
 </g>
</svg>
