<svg width="16" height="16" version="1.1" xmlns="http://www.w3.org/2000/svg">
  <defs>
    <style id="current-color-scheme" type="text/css">.ColorScheme-Text { color:#ebdbb2; } .ColorScheme-Highlight { color:#458588; }</style>
  </defs>
  <path class="ColorScheme-Text" d="m10.44 14.96c-0.3829-0.1898-0.5869-0.5863-0.8712-0.8857-0.1403-0.2297-0.06995-0.5205-0.1695-0.7617-0.2789-0.09805-0.2562-0.4482-0.3621-0.679-0.08403-0.2601-0.1614-0.5238-0.2709-0.7744-0.00902-0.1419 0.182-0.2255 0.121-0.3675-0.05748-0.2815-0.02071-0.573-0.07061-0.8539-0.1724-0.211-0.3919-0.3952-0.481-0.6666-0.1561-0.1799-0.1079-0.626-0.3767-0.6416-0.2298 0.2229-0.2103 0.5832-0.353 0.8559-0.07977 0.2723-0.4567 0.3864-0.4105 0.6973 0.08036 0.2514-0.1232 0.5956 0.07318 0.7812 0.204 0.2257-0.08649 0.5174-0.1319 0.7577-0.1042 0.2594-0.209 0.5186-0.3135 0.7779-0.2888 0.0071-0.2552 0.2709-0.2699 0.4895 0.0049 0.3356-0.3199 0.4757-0.5295 0.6719-0.1999 0.1496-0.3561 0.387-0.6061 0.4499-0.423 0.06489-0.2215-0.4737-0.1707-0.7075 0.1118-0.3671 0.2637-0.72 0.4044-1.077-0.1715-0.3429-0.01137-0.7283 0.03954-1.082 0.1019-0.2261-0.03095-0.6411 0.2736-0.7141 0.07727-0.2675 0.265-0.4827 0.3736-0.7349 0.05213-0.3798-0.04653-0.781 0.1178-1.143 0.1232-0.3745 0.3333-0.7124 0.4928-1.069 0.03426-0.3134 0.156-0.608 0.271-0.8989-0.04046-0.135 0.005978-0.2792-0.03509-0.421-0.09907-0.06374-0.2271-0.3186-0.312-0.2009-0.07555 0.2595-0.2684 0.4434-0.4134 0.6483-0.256 0.03872-0.4464 0.3327-0.7304 0.1798-0.2912-0.1052-0.5492-0.2832-0.818-0.4303-0.1598-0.09479-0.07278-0.294-0.166-0.4295 0.1122-0.1266-0.1268-0.2697-0.01173-0.4173-0.08812-0.2822 0.3178-0.5673 0.5304-0.301 0.2343-0.1166 0.326 0.1749 0.3816 0.3466 0.1359-0.03472 0.3837 0.09722 0.4179-0.05932 0.1288-0.113 0.08453-0.2619 0.1598-0.3998-0.03211-0.227-0.01202-0.4834 0.1778-0.6488 0.1736-0.1909 0.4579-0.1235 0.689-0.1407 0.1478 0.06255 0.1422-0.1882 0.2904-0.08372 0.0581-0.04925 0.1679-0.1033 0.1484-0.2011 0.07457-0.2284-0.02573-0.3262-0.2498-0.3703-0.2616-0.1141-0.5249-0.2674-0.6941-0.5023 0.1403 0.02236 0.4973 0.09455 0.2134-0.08947-0.09482-0.09674-0.214-0.1811-0.2339-0.3245-0.05884-0.1779-0.1206-0.3549-0.175-0.5342 0.1278 0.1053 0.3477 0.3026 0.4644 0.29-0.1666-0.2505-0.303-0.536-0.2689-0.8451 0.0155-0.1577-0.06844-0.685 0.1276-0.3341 0.09267 0.13 0.5109 0.4369 0.4225 0.09735 0.02168-0.3231 0.2528-0.5769 0.4008-0.8526 0.01454 0.1198 0.00233 0.2906 0.03173 0.4243 0.05461 0.1291 0.1587 0.2686 0.1855 0.04321 0.1038-0.2527 0.449-0.3894 0.404-0.6985-0.03457-0.3573 0.2287 0.1041 0.3312 0.1977 0.1718 0.2335 0.3806 0.4894 0.3522 0.7984 0.1343 0.00294 0.3433-0.2494 0.4177-0.4174 0.04551 0.0753 0.04117 0.3883 0.0684 0.5399 0.05029 0.1546-0.00947 0.4545-0.00758 0.5036 0.1256-0.05494 0.3529-0.3935 0.2689-0.07286-0.05449 0.2573 0.005148 0.5758-0.1835 0.7804-0.1686 0.2104 0.3761-0.2594 0.1803 0.04233-0.04845 0.2511-0.216 0.4993-0.3943 0.6164 0.1976-0.04702 0.2351-0.006038 0.07182 0.124-0.155 0.2142-0.4363 0.2158-0.654 0.327 0.00287 0.1358 0.00527 0.273 0.00504 0.4095 0.1475 0.03549 0.2477 0.163 0.3596 0.2091 0.27-0.04536 0.6007-0.05542 0.7896 0.181 0.1631 0.1302 0.192 0.3688 0.1488 0.5554 0.05826 0.1853 0.135 0.3553 0.1705 0.5465 0.1556-0.02883 0.3727-0.0797 0.2239-0.2456-0.04544-0.222 0.03627-0.3953 0.2706-0.4064 0.1964-0.2272 0.4648-0.1407 0.6311 0.07005 0.09876 0.2266 0.1104 0.5121 0.03145 0.746-0.04134 0.2498-0.2126 0.4344-0.3447 0.6549-0.1094 0.2735-0.3919 0.393-0.6641 0.281-0.2436-0.02007-0.5321 0.007798-0.6907-0.242-0.1015-0.2227-0.2586-0.4222-0.3178-0.6725-0.05532 0.1809-0.2936 0.2629-0.3379 0.4541-0.09122 0.2519 0.08549 0.4959 0.1349 0.7388 0.0873 0.3018 0.1411 0.6132 0.2868 0.8953 0.1503 0.371 0.3103 0.7424 0.4226 1.126 0.00821 0.1888 0.01257 0.3781-0.04116 0.5614-0.03866 0.3222 0.3461 0.4982 0.3536 0.8153 0.0099 0.1148-0.0014 0.2439 0.1502 0.243 0.2458 0.11 0.1534 0.4509 0.2163 0.667 0.03409 0.3074 0.06343 0.6153 0.08377 0.924-0.08009 0.09734-0.1397 0.1792-0.04824 0.2947 0.1084 0.3548 0.3714 0.6697 0.3332 1.06 0.02216 0.2166 0.01612 0.694-0.335 0.5238z" fill="currentColor"/>
</svg>
