<svg width="16" height="16" version="1.1" xmlns="http://www.w3.org/2000/svg">
  <defs>
    <style id="current-color-scheme" type="text/css">.ColorScheme-Text { color:#ebdbb2; } .ColorScheme-Highlight { color:#458588; }</style>
  </defs>
  <path class="ColorScheme-Text" d="m8.002 1.002c-2.616 0.03-4.83 7.993-4.611 10.13 0.218 2.126 2.065 3.867 4.611 3.867s4.41-1.739 4.609-3.867c0.207-2.213-1.975-10.16-4.609-10.13zm-1.221 9.939c0.1423 0.1976 0.2554 0.611 0.2051 0.75-0.03948 0.109-0.08488 0.09305-0.1895-0.0625-0.05072-0.07544-0.1913-0.1959-0.3125-0.2695-0.3938-0.2392-0.896-0.1635-1.215 0.1836-0.07636 0.08314-0.1387 0.1673-0.1387 0.1875 0 0.02016-0.02726 0.03711-0.0625 0.03711-0.1089 0-0.08409-0.4163 0.04102-0.6777 0.3293-0.6883 1.223-0.7721 1.672-0.1484zm4 0c0.1423 0.1976 0.2554 0.611 0.2051 0.75-0.03948 0.109-0.08488 0.09305-0.1895-0.0625-0.05072-0.07544-0.1913-0.1959-0.3125-0.2695-0.3938-0.2392-0.896-0.1635-1.215 0.1836-0.07636 0.08314-0.1387 0.1673-0.1387 0.1875 0 0.02016-0.02726 0.03711-0.0625 0.03711-0.1089 0-0.08409-0.4163 0.04102-0.6777 0.3293-0.6883 1.223-0.7721 1.672-0.1484zm-1.875 1.676c0.1086 0.06736 0.1218 0.1802 0.04102 0.3633-0.1733 0.3925-0.7236 0.6639-1.15 0.5664-0.3342-0.07635-0.6276-0.2998-0.7461-0.5684-0.07958-0.1803-0.06643-0.2947 0.04102-0.3613 0.1288-0.07986 0.2213-0.0268 0.3535 0.2031 0.1321 0.2298 0.3115 0.3418 0.5527 0.3418 0.2526 0 0.4283-0.1119 0.5605-0.3594 0.1245-0.2329 0.214-0.2685 0.3477-0.1855z" fill="currentColor"/>
</svg>
