<svg width="16" height="16" version="1.1" xmlns="http://www.w3.org/2000/svg">
  <defs>
    <style id="current-color-scheme" type="text/css">.ColorScheme-Text { color:#ebdbb2; } .ColorScheme-Highlight { color:#458588; }</style>
  </defs>
  <path class="ColorScheme-Text" d="m5.873 1.001c-0.5974-0.01427-1.168 0.1151-1.678 0.41-1.099 0.6336-1.664 1.895-1.75 3.384-1.246 0.8191-2.056 1.939-2.056 3.207s0.8096 2.388 2.056 3.206c0.08562 1.489 0.6516 2.75 1.75 3.385 1.098 0.6336 2.472 0.4928 3.804-0.1769 1.332 0.6697 2.707 0.8105 3.805 0.1769 1.098-0.6345 1.664-1.895 1.75-3.384 1.246-0.8191 2.056-1.939 2.056-3.207s-0.8096-2.389-2.056-3.207c-0.08562-1.489-0.6516-2.75-1.75-3.384-1.099-0.6345-2.474-0.4937-3.806 0.1769-0.7135-0.3586-1.437-0.5717-2.126-0.587zm4.254 0.6012c0.5032-0.01332 0.9694 0.09418 1.378 0.3301 0.7858 0.4538 1.265 1.338 1.413 2.489-0.6964-0.3624-1.496-0.645-2.37-0.8343-0.6003-0.6612-1.244-1.213-1.906-1.634 0.5156-0.216 1.017-0.3377 1.485-0.3501zm-4.254 0c0.468 0.01237 0.9684 0.1341 1.484 0.3501-0.6612 0.4214-1.306 0.9732-1.906 1.634-0.8733 0.1893-1.673 0.4718-2.369 0.8343 0.1465-1.151 0.6279-2.035 1.414-2.489 0.4072-0.2359 0.8733-0.3425 1.377-0.3301zm2.126 0.664c0.5147 0.2911 1.031 0.6773 1.529 1.142-0.4937-0.06088-1.005-0.09323-1.528-0.09323s-1.034 0.03234-1.529 0.09323c0.4975-0.4642 1.013-0.8505 1.528-1.142zm9.514e-4 1.652c0.781 0 1.531 0.07801 2.232 0.2169 0.4709 0.5384 0.9142 1.148 1.305 1.825 0.391 0.6773 0.6973 1.365 0.9275 2.042-0.2302 0.6764-0.5365 1.365-0.9275 2.042-0.391 0.6773-0.8334 1.287-1.305 1.825-0.7011 0.1389-1.45 0.2178-2.232 0.2178s-1.531-0.07896-2.232-0.2178c-0.4718-0.5375-0.9152-1.147-1.305-1.824-0.391-0.6773-0.6973-1.366-0.9275-2.042 0.2302-0.6773 0.5365-1.365 0.9275-2.042 0.39-0.6764 0.8334-1.286 1.305-1.825 0.7011-0.1389 1.45-0.2169 2.232-0.2169zm-3.214 0.4642c-0.2997 0.3967-0.5822 0.8229-0.8448 1.276-0.2616 0.4538-0.488 0.9123-0.6821 1.371-0.1541-0.6631-0.2312-1.303-0.2255-1.895 0.509-0.2997 1.102-0.5537 1.752-0.7515zm6.428 0c0.6516 0.1979 1.243 0.4519 1.753 0.7515 0.0048 0.5917-0.07134 1.231-0.2255 1.895-0.1931-0.4585-0.4205-0.9171-0.6821-1.37-0.2626-0.4528-0.5461-0.88-0.8457-1.277zm-4.354 0.6954-0.5651 2.483-0.9837 0.1484-0.234 0.8771 1.019-0.1541-0.4348 1.908h4.24l0.4091-1.169h-2.628l0.2312-1.015 1.023-0.1541 0.234-0.8771-1.058 0.1598 0.5023-2.207zm6.7 0.4557c0.9228 0.7021 1.448 1.56 1.448 2.469 0 0.9076-0.5251 1.766-1.448 2.469-0.03425-0.7839-0.1893-1.618-0.4623-2.469 0.273-0.8505 0.4281-1.685 0.4623-2.469zm-11.12 0c0.0352 0.7839 0.1903 1.618 0.4623 2.469-0.2721 0.8505-0.4271 1.684-0.4623 2.468-0.9218-0.7021-1.447-1.56-1.447-2.468s0.5251-1.766 1.447-2.469zm0.8191 3.441c0.1941 0.4585 0.4205 0.9171 0.6821 1.371 0.2626 0.4528 0.5451 0.879 0.8448 1.277-0.6507-0.1988-1.243-0.4519-1.752-0.7525-0.005704-0.5908 0.07135-1.231 0.2255-1.895zm9.483 0c0.1541 0.664 0.2302 1.303 0.2255 1.895-0.5099 0.3006-1.102 0.5537-1.753 0.7525 0.2997-0.3976 0.5832-0.8238 0.8448-1.277 0.2616-0.4528 0.4899-0.9123 0.683-1.371zm-9.659 2.608c0.6954 0.3615 1.496 0.645 2.369 0.8343 0.5993 0.6602 1.244 1.212 1.906 1.633-1.07 0.4481-2.075 0.4738-2.861 0.01998-0.7858-0.4538-1.267-1.338-1.414-2.488zm9.835 0c-0.1474 1.15-0.6279 2.034-1.414 2.488s-1.791 0.4281-2.862-0.01998c0.6612-0.4214 1.305-0.9732 1.906-1.633 0.8733-0.1893 1.673-0.4728 2.37-0.8343zm-6.445 1.012c0.4937 0.06088 1.005 0.09323 1.528 0.09323s1.034-0.03234 1.528-0.09323c-0.4985 0.4652-1.013 0.8514-1.529 1.142-0.5147-0.2902-1.029-0.6764-1.527-1.142z" fill="currentColor"/>
</svg>
