<svg width="16" height="16" version="1.1" xmlns="http://www.w3.org/2000/svg">
  <defs>
    <style type="text/css" id="current-color-scheme">.ColorScheme-Text { color:#ebdbb2; } .ColorScheme-Highlight { color:#458588; }</style>
  </defs>
  <path class="ColorScheme-Text" fill="currentColor" d="m2.51 11.74v-7.476c0.558-0.285 0.941-0.867 0.941-1.537 0-0.952-0.773-1.725-1.726-1.725-0.952 0-1.725 0.773-1.725 1.725 0 0.67 0.383 1.252 0.941 1.538v7.474c-0.558 0.286-0.941 0.868-0.941 1.538 0 0.952 0.773 1.725 1.725 1.725 0.671 0 1.252-0.383 1.538-0.941h9.474c0.286 0.558 0.867 0.941 1.538 0.941 0.952 0 1.725-0.773 1.725-1.725 0-0.953-0.773-1.726-1.725-1.726-0.67 0-1.252 0.383-1.537 0.941h-9.476c-0.165-0.323-0.429-0.587-0.752-0.752zm3.849-1.61c0.193-0.05 0.386-0.099 0.578-0.148 0.512-0.125 1.018-0.274 1.515-0.452 0.287 0.236 0.656 0.373 1.058 0.373 0.894 0 1.63-0.681 1.713-1.554 0.296-0.183 0.573-0.395 0.825-0.635 0.26-0.261 0.495-0.543 0.702-0.847 0.101-0.143 0.199-0.286 0.297-0.43 0.074 0.01 0.15 0.016 0.227 0.016 0.953 0 1.726-0.774 1.726-1.726s-0.773-1.725-1.726-1.725c-0.952 0-1.725 0.773-1.725 1.725 0 0.294 0.073 0.57 0.216 0.806-0.099 0.147-0.199 0.294-0.301 0.44-0.15 0.219-0.323 0.426-0.511 0.618-0.107 0.101-0.221 0.193-0.335 0.286-0.29-0.269-0.681-0.424-1.108-0.424-0.932 0-1.693 0.74-1.722 1.665-0.407 0.124-0.817 0.242-1.231 0.342-0.094 0.025-0.189 0.049-0.284 0.073-0.301-0.495-0.847-0.826-1.469-0.826-0.953 0-1.726 0.774-1.726 1.726s0.773 1.725 1.726 1.725c0.7 0 1.304-0.418 1.555-1.028z"/>
</svg>
