<svg width="16" height="16" version="1.1" xmlns="http://www.w3.org/2000/svg">
  <defs>
    <style type="text/css" id="current-color-scheme">.ColorScheme-Text { color:#ebdbb2; } .ColorScheme-Highlight { color:#458588; }</style>
  </defs>
  <path class="ColorScheme-Text" d="m2 1c-1.108 0-2 0.892-2 2v5.029c0.9072-1.223 2.322-1.965 3.844-2.018 1.3-0.02981 2.605-0.01172 3.906-0.01172 0.6925 0 1.25 0.5575 1.25 1.25v3.701l2.525-2.451 2.477 2.475v2.025h-5.441c-0.3478 0.7931-0.8956 1.482-1.59 2h7.029c1.108 0 2-0.892 2-2v-10c0-1.108-0.892-2-2-2zm10 2c1.108 0 2 0.892 2 2s-0.892 2-2 2-2-0.892-2-2 0.892-2 2-2zm-8 4c-0.0428 0-0.08364 0.0046-0.125 0.0098-2.156 0.06742-3.871 1.833-3.875 3.99 0 2.209 1.791 4 4 4 2.157-0.0042 3.923-1.719 3.99-3.875 0.00517-0.04136 0.00977-0.0822 0.00977-0.125v-3c0-0.554-0.446-1-1-1zm2.75 0.5c0.4142 0 0.75 0.3358 0.75 0.75s-0.3358 0.75-0.75 0.75-0.75-0.3358-0.75-0.75 0.3358-0.75 0.75-0.75zm-2.75 1c1.381 0 2.5 1.119 2.5 2.5 0 1.381-1.119 2.5-2.5 2.5s-2.5-1.119-2.5-2.5c0-1.381 1.119-2.5 2.5-2.5z" fill="currentColor"/>
</svg>
