<svg width="16" height="16" version="1.1" xmlns="http://www.w3.org/2000/svg">
  <defs>
    <style id="current-color-scheme" type="text/css">.ColorScheme-Text { color:#ebdbb2; } .ColorScheme-Highlight { color:#458588; }</style>
  </defs>
  <path class="ColorScheme-Text" d="m1.1906 1.0313c-0.20171 0.094582-0.27107 0.4436-0.125 0.63086 0.078339 0.10043 0.82472 0.93902 2.0723 2.3379h9.6992c0.68683-0.78417 1.3945-1.5422 2.0723-2.3379 0.14607-0.18726 0.07672-0.53627-0.125-0.63086-0.13888-0.065061-13.455-0.06517-13.594 0zm1.7969 3.9688s-1.9004 4.3023-2.8047 7h15.609c-0.90404-2.7215-2.8047-7-2.8047-7zm1 1h8l0.63867 2.1289h-5.7598l3.0957-1.6289h-5.6016l-1.0527 3.502 2.5898-1.3633h6.8809l0.70898 2.3613h-11zm11.975 6.5059v0.49414c0.02845-0.25995 0.03786-0.35099 0-0.49414zm0 0.49414h-15.949c0.05176 0.47299 0.14772 1.8229 0.25977 1.9355l0.082031 0.08203h15.266l0.08203-0.08203c0.11205-0.11265 0.20801-1.4627 0.25977-1.9355z" fill="currentColor"/>
</svg>
