<svg width="16" height="16" version="1.1" xmlns="http://www.w3.org/2000/svg">
  <defs>
    <style id="current-color-scheme" type="text/css">.ColorScheme-Text { color:#ebdbb2; } .ColorScheme-Highlight { color:#458588; }</style>
  </defs>
  <path class="ColorScheme-Text" d="m11 1.266v0.7344h-7.031c-1.091 0-1.969 0.8776-1.969 1.969v7.031h2v-6c0-0.554 0.446-1 1-1h8.734c0.2342 0 0.3559-0.2848 0.1875-0.4532l-2.471-2.469c-0.1552-0.1579-0.4505-0.05868-0.4505 0.1878zm1 3.734v6c0 0.554-0.446 1-1 1h-8.734c-0.2342 0-0.3559 0.2848-0.1875 0.4532l2.471 2.469c0.1546 0.1572 0.4512 0.05723 0.4512-0.1875v-0.7344h7.031c1.091 0 1.969-0.8776 1.969-1.969v-7.031zm-5.498 1.5c-0.554 0-1 0.446-1 1v1c0 0.554 0.446 1 1 1s1-0.446 1-1v-1c0-0.554-0.446-1-1-1zm3 0c-0.554 0-1 0.446-1 1v1c0 0.554 0.446 1 1 1s1-0.446 1-1v-1c0-0.554-0.446-1-1-1z" fill="currentColor"/>
</svg>
