<svg width="16" height="16" version="1.1" xmlns="http://www.w3.org/2000/svg">
  <defs>
    <style type="text/css" id="current-color-scheme">.ColorScheme-Text { color:#ebdbb2; } .ColorScheme-Highlight { color:#458588; }</style>
  </defs>
  <path class="ColorScheme-Text" fill="currentColor" d="m8 0.998c-0.5979-0.001087-1.196 0.2096-1.67 0.6348l-1.514 1.367h6.365l-1.512-1.363c-0.474-0.4248-1.072-0.6376-1.67-0.6387zm-3 3.002c-0.554 0-1 0.446-1 1v3.59l4 2.801 4-2.799v-3.592c0-0.554-0.446-1-1-1h-6zm-2 0.6309-1.572 1.412c-0.2392 0.2149-0.2163 0.5965 0.04688 0.7812 0.507 0.355 0.8627 0.6046 1.525 1.068v-3.262zm10 0.003906v3.254c0.6598-0.4621 1.014-0.7107 1.52-1.064 0.2632-0.1848 0.2861-0.5663 0.04688-0.7812l-1.566-1.408zm-7.5 0.3652h5v1h-5v-1zm0 2h3v1h-3v-1zm-4.465 0.7363c-0.02274 0.08397-0.03516 0.1723-0.03516 0.2637v6c0 0.08941 0.01334 0.1755 0.03516 0.2578l3.838-3.838-3.838-2.684zm13.93 0-3.838 2.686 3.842 3.826c0.02015-0.07939 0.03125-0.1622 0.03125-0.248v-6c0-0.09136-0.01242-0.1797-0.03516-0.2637zm-4.668 3.266-2.297 1.607-2.297-1.605-3.961 3.961c0.08236 0.02181 0.1684 0.03516 0.2578 0.03516h12c0.09347 0 0.1838-0.01334 0.2695-0.03711l-3.973-3.961z"/>
</svg>
