<svg width="16" height="16" version="1.1" xmlns="http://www.w3.org/2000/svg">
  <defs>
    <style id="current-color-scheme" type="text/css">.ColorScheme-Text { color:#ebdbb2; } .ColorScheme-Highlight { color:#458588; }</style>
  </defs>
  <path class="ColorScheme-Text" d="m8 1c-3.866 0-7 3.134-7 7s3.134 7 7 7 7-3.134 7-7-3.134-7-7-7zm0 1c3.867-5.6e-5 6.102 3.432 5.994 6.096-4.227 1.854-7.777 1.847-11.99 0-0.06343-1.687 1.215-6.096 5.994-6.096zm0 1c-0.831 1.3e-5 -1.536 0.1669-2.137 0.4492 0.02788 0.02423 0.05519 0.0556 0.07422 0.08984 0.0429 0.07663 0.1858 0.1648 0.3164 0.1973 0.1612 0.03998 0.252 0.1138 0.2852 0.2305 0.2246 0.7904 0.2194 1.334-0.01172 1.334-0.1462 0-0.3211 0.2238-0.3926 0.502-0.0377 0.1466-0.1199 0.2042-0.3984 0.2793-0.1927 0.05233-0.4171 0.08592-0.498 0.07617-0.08125-0.0098-0.2124 0.02906-0.293 0.08594-0.1176 0.0832-0.1285 0.1219-0.05469 0.1934 0.05037 0.04907 0.0918 0.1613 0.0918 0.248 0 0.08677 0.03392 0.1771 0.07422 0.2012 0.04062 0.02405 0.07227 0.1829 0.07227 0.3535-1e-6 0.352-0.1294 0.4664-0.459 0.4062-0.1664-0.03055-0.213-0.0043-0.2754 0.1523-0.0095 0.02383-0.01571 0.04581-0.02344 0.06836 0.5084 0.1566 1.007 0.2783 1.5 0.3711 0.01538-0.02382 0.03164-0.04405 0.04492-0.05859 0.1388-0.1527 0.5914-0.2352 0.7227-0.1309 0.1706 0.1352 0.423 0.05239 0.498-0.1641 0.08807-0.2548 0.04365-0.2887-0.3418-0.2695-0.4309 0.02145-0.6802-0.0818-0.8203-0.3418-0.1446-0.2678-0.1037-0.4028 0.207-0.6914 0.2486-0.2307 0.3058-0.2418 1.006-0.2031 0.4621 0.02567 0.8766-0.1661 0.8828-0.4082 0.00543-0.2109 0.2332-0.4896 0.1738-0.6367-0.02307-0.05752 0.0014-0.1557 0.05469-0.2168 0.08125-0.09392 0.07796-0.1215-0.02734-0.1777-0.2701-0.1449-0.1435-0.2257 0.4844-0.3105l0.3535-0.04883-0.168 0.3281c-0.1323 0.261-0.1496 0.3533-0.08203 0.4492 0.2447 0.458 0.5849 0.8327 0.9219 1.217 0.259 0.1995 0.3293 0.219 0.6504 0.1895 0.4628-0.04258 0.6562 0.07637 0.6562 0.4023 0 0.3529 0.06772 0.459 0.2871 0.459 0.1079 0 0.2739 0.05316 0.3691 0.1172 0.03487 0.02338 0.06498 0.04191 0.0918 0.05469 0.2715-0.08775 0.5462-0.1833 0.8242-0.2891-0.09721 0.0011-0.1866 0.01072-0.248 0.0332-0.4521 0.1648-0.5983-0.09207-0.6152-1.076l-0.0098-0.5605 0.5703-0.01367c0.04635-0.0011 0.07208-0.0013 0.1113-2e-3 -0.1636-0.3768-0.3756-0.7497-0.6543-1.096-0.3687-0.4579-0.8113-0.8617-1.344-1.17-0.04645 0.02916-0.1025 0.0319-0.168 0.0078-0.03297-0.01208-0.0838-0.07702-0.1406-0.168-0.606-0.2895-1.318-0.4628-2.162-0.4628zm-4.74 3.682c0.08399-0.06168 0.1743-0.1133 0.2168-0.1133 0.04972 0 0.144-0.0773 0.209-0.1719 0.08872-0.1297 0.1947-0.1768 0.4316-0.1934 0.2408-0.01658 0.3302-0.05781 0.3848-0.1777 0.052-0.1131 0.1144-0.1445 0.2285-0.1172 0.1225 0.02958 0.2089-0.02967 0.3887-0.2637 0.3383-0.4407 0.3109-0.6653-0.07617-0.6289-0.06728 0.0065-0.2398-0.03753-0.3848-0.0957-0.2025-0.08093-0.2656-0.1444-0.2656-0.2793 0-0.03695 0.0084-0.07374 0.01758-0.1074-0.5921 0.5991-0.8853 1.368-1.15 2.148zm-0.9512 3.211c5.304 1.984 9.213 0.8117 11.38 0.00195-0.7192 2.161-2.85 4.104-5.689 4.105-2.507-0.001066-4.854-1.588-5.691-4.107zm2.592 1.76c0.0028 0.03009 0.0049 0.06288 0.0059 0.0957 0.6015 0.5117 1.28 0.9166 2.041 1.115 0.04906-6e-3 0.09579-0.0086 0.1328-0.0059 0.1882 0.01397 0.2178-0.0057 0.2031-0.1387-0.0117-0.1063 0.06343-0.216 0.2383-0.3438 0.141-0.103 0.2559-0.2296 0.2559-0.2812 0-0.04432-0.0097-0.09183-0.02539-0.1387-1.68-0.02601-2.841-0.3138-2.852-0.3027zm5.965-0.01798c-0.1166 0.0087-0.2983 0.0709-0.5555 0.1885-0.2725 0.1243-0.5638 0.2346-0.6479 0.2435-0.2201 0.02333-0.4084 0.1629-0.6389 0.4763-0.07572 0.1028-0.1332 0.1766-0.1915 0.2501 0.1297-0.0014 0.2599-8e-3 0.3924-0.02197 0.7291-0.07779 1.373-0.3428 1.944-0.7227-0.08418-0.01226-0.1327-0.1035-0.1336-0.2785-4.87e-4 -0.09849-0.05286-0.144-0.1695-0.1352z" fill="currentColor"/>
</svg>
