<svg width="16" height="16" version="1.1" xmlns="http://www.w3.org/2000/svg">
  <defs>
    <style type="text/css" id="current-color-scheme">.ColorScheme-Text { color:#ebdbb2; } .ColorScheme-Highlight { color:#458588; }</style>
  </defs>
  <path class="ColorScheme-Text" fill="currentColor" d="m10.08 1c-2.082 0-3.747 1.665-3.747 3.747 0 4.664-2.248 6.078-5.829 5.412 0 0 2.053 2.941 6.22 3.305-0.237 0.2736-0.3382 0.5462-0.3382 0.5462l1.561 0.6249s-0.03279 0.01312 0.07869-0.07776c0.1105-0.09182 0.3157-0.2342 0.8066-0.2342 0.9855 2e-6 2.004 0.6764 2.004 0.6764l0.9893-1.353s-0.6895-0.4946-1.693-0.7813c2.099-1.135 3.507-3.76 3.671-7.416l1.691-1.12-1.926-0.9106c-0.5359-1.412-1.879-2.42-3.487-2.42zm1.25 2.498c0.5012 0 0.8319 0.3316 0.8319 0.8328 0 0.5012-0.3307 0.8328-0.8319 0.8328-0.5021 0-0.8328-0.3316-0.8328-0.8328 0-0.5012 0.3307-0.8328 0.8328-0.8328z"/>
</svg>
