<svg width="16" height="16" version="1.1" xmlns="http://www.w3.org/2000/svg">
  <defs>
    <style id="current-color-scheme" type="text/css">.ColorScheme-Text { color:#ebdbb2; } .ColorScheme-Highlight { color:#458588; }</style>
  </defs>
  <path class="ColorScheme-Text" d="m6.9515 1-3.4801 1.7539 1.5121 1.5232 4.8343-0.74475 0.98355-1.9067zm4.7101 1.066-0.97582 1.8946 2.2109 4.3793 2.1034 0.34177-0.59275-3.8482zm-1.7867 2.4351-4.6319 0.71444-0.7524 4.6199 4.1667 2.1422 3.3285-3.2954zm-7.0915-1.0661-1.7833 3.4622 0.59275 3.8482 1.9259-0.97027 0.78339-4.8102zm9.9577 5.8602-3.4865 3.4535 0.32431 2.1058 3.4823-1.7554 1.7833-3.4622zm-8.7962 1.3478-1.9175 0.96589 2.746 2.7655 3.8499 0.62557-0.32779-2.1198z" fill="currentColor"/>
</svg>
