<svg width="16" height="16" version="1.1" xmlns="http://www.w3.org/2000/svg">
  <defs>
    <style id="current-color-scheme" type="text/css">.ColorScheme-Text { color:#ebdbb2; } .ColorScheme-Highlight { color:#458588; }</style>
  </defs>
  <path class="ColorScheme-Text" d="m8 1c-3.3137 0-6 2.6863-6 6v6a2 2 0 0 0 2 2 2 2 0 0 0 2-2 2 2 0 0 0 2 2 2 2 0 0 0 2-2 2 2 0 0 0 2 2 2 2 0 0 0 2-2v-6c0-3.3137-2.6863-6-6-6zm-3.6191 3.25c0.14248-0.00602 0.2858 0.027812 0.41016 0.099609l2.166 1.25c0.50229 0.29 0.50709 1.0549 0 1.3477l-2.166 1.25c-0.35983 0.20775-0.81569 0.086396-1.0234-0.27344-0.20775-0.35983-0.086396-0.81764 0.27344-1.0254l1.084-0.625-1.084-0.625c-0.35983-0.20775-0.48119-0.6636-0.27344-1.0234 0.14075-0.24378 0.37582-0.36496 0.61328-0.375zm4.7012 1.25h2.5c0.4155 0 0.75 0.3345 0.75 0.75s-0.3345 0.75-0.75 0.75h-2.5c-0.4155 0-0.75-0.3345-0.75-0.75s0.3345-0.75 0.75-0.75z" fill="currentColor"/>
</svg>
