<svg width="16" height="16" version="1.1" xmlns="http://www.w3.org/2000/svg">
  <defs>
    <style type="text/css" id="current-color-scheme">.ColorScheme-Text { color:#ebdbb2; } .ColorScheme-Highlight { color:#458588; }</style>
  </defs>
  <path class="ColorScheme-Text" d="m8.002 1c-1.224 0-2.218 0.9935-2.218 2.218 0 1.224 2.218 3.3 2.218 3.3s2.218-2.075 2.218-3.3c0-1.224-0.9935-2.218-2.218-2.218zm-4.783 4.783c-1.224 0-2.218 0.9935-2.218 2.218 0 1.224 0.9935 2.218 2.218 2.218s3.3-2.218 3.3-2.218-2.075-2.218-3.3-2.218zm9.561 0c-1.224 0-3.3 2.218-3.3 2.218s2.075 2.218 3.3 2.218c1.225 0 2.218-0.9935 2.218-2.218 0-1.224-0.9935-2.218-2.218-2.218zm-4.783 3.699s-2.218 2.075-2.218 3.3c0 1.224 0.9935 2.218 2.218 2.218 1.225 0 2.218-0.9935 2.218-2.218 0-1.224-2.218-3.3-2.218-3.3z" fill="currentColor"/>
</svg>
