<svg width="16" height="16" version="1.1" xmlns="http://www.w3.org/2000/svg">
  <defs>
    <style id="current-color-scheme" type="text/css">.ColorScheme-Text { color:#ebdbb2; } .ColorScheme-Highlight { color:#458588; }</style>
  </defs>
  <path class="ColorScheme-Text" d="m0 13.54c0 0.5098 0.4133 0.9231 0.9231 0.9231h3.385v-1.231h-2.769c-0.1699 0-0.3077-0.1378-0.3077-0.3077v-1.846c0-0.1699 0.1378-0.3077 0.3077-0.3077h2.769v-1.231h-3.385c-0.5098 0-0.9231 0.4133-0.9231 0.9231zm4.923-11.08c0-0.5098-0.4133-0.9231-0.9231-0.9231h-3.077c-0.5098 0-0.9231 0.4133-0.9231 0.9231v3.077c0 0.5098 0.4133 0.9231 0.9231 0.9231h2.154v-1.231h-1.538c-0.1699 0-0.3077-0.1378-0.3077-0.3077v-1.846c0-0.1699 0.1378-0.3077 0.3077-0.3077h1.846c0.1699 0 0.3077 0.1378 0.3077 0.3077v3.692c0 0.1699-0.1378 0.3077-0.3077 0.3077h-3.385v1.231h4c0.5098 0 0.9231-0.4133 0.9231-0.9231zm0 8v3.077c0 0.5098 0.4133 0.9231 0.9231 0.9231h3.077c0.5098 0 0.9231-0.4133 0.9231-0.9231v-3.077c0-0.5098-0.4133-0.9231-0.9231-0.9231h-3.077c-0.5098 0-0.9231 0.4133-0.9231 0.9231zm5.538-8c0-0.5098-0.4133-0.9231-0.9231-0.9231h-3.077c-0.5098 0-0.9231 0.4133-0.9231 0.9231v3.077c0 0.5098 0.4133 0.9231 0.9231 0.9231h3.077c0.5098 0 0.9231-0.4133 0.9231-0.9231zm5.538 0c0-0.5098-0.4133-0.9231-0.9231-0.9231h-3.077c-0.5098 0-0.9231 0.4133-0.9231 0.9231v3.077c0 0.5098 0.4133 0.9231 0.9231 0.9231h2.154v-1.231h-1.538c-0.1699 0-0.3077-0.1378-0.3077-0.3077v-1.846c0-0.1699 0.1378-0.3077 0.3077-0.3077h1.846c0.1699 0 0.3077 0.1378 0.3077 0.3077v3.692c0 0.1699-0.1378 0.3077-0.3077 0.3077h-3.385v1.231h4c0.5098 0 0.9231-0.4133 0.9231-0.9231zm0 7.077h-4.615c-0.5098 0-0.9231 0.4133-0.9231 0.9231v4h1.231v-3.385c0-0.1699 0.1378-0.3077 0.3077-0.3077h0.6154v3.692h1.231v-3.692h0.9231v3.692h1.231zm-7.077-4.308h-1.846c-0.1699 0-0.3077-0.1378-0.3077-0.3077v-1.846c0-0.1699 0.1378-0.3077 0.3077-0.3077h1.846c0.1699 0 0.3077 0.1378 0.3077 0.3077v1.846c0 0.1699-0.1378 0.3077-0.3077 0.3077zm-2.462 5.538h1.846c0.1699 0 0.3077 0.1378 0.3077 0.3077v1.846c0 0.1699-0.1378 0.3077-0.3077 0.3077h-1.846c-0.1699 0-0.3077-0.1378-0.3077-0.3077v-1.846c0-0.1699 0.1378-0.3077 0.3077-0.3077z" fill="currentColor"/>
</svg>
