<svg width="16" height="16" version="1.1" xmlns="http://www.w3.org/2000/svg">
  <defs>
    <style id="current-color-scheme" type="text/css">.ColorScheme-Text { color:#ebdbb2; }</style>
  </defs>
  <path class="ColorScheme-Text" d="m6.715 1c-0.3957 0-0.7148 0.3191-0.7148 0.7148v7.57c0 0.395 0.3191 0.7148 0.7148 0.7148h7.57c0.395-6e-6 0.7148-0.3198 0.7148-0.7148v-7.57c0-0.3957-0.3198-0.7148-0.7148-0.7148zm1.361 1.445h2.354c0.8435 0 1.453 0.1271 1.83 0.3789 0.3797 0.2518 0.5703 0.6544 0.5703 1.209 0 0.292-0.06877 0.5418-0.207 0.748-0.1383 0.2036-0.3404 0.354-0.6035 0.4531 0.3363 0.09645 0.5968 0.2753 0.7812 0.5352s0.2773 0.5773 0.2773 0.9551c0 0.5787-0.1997 1.011-0.5957 1.295s-0.9976 0.4258-1.807 0.4258h-2.6zm2.434 1.051-0.8672 0.0019v1.27h0.8672c0.2468 0 0.4331-0.05291 0.5605-0.1602 0.1275-0.1072 0.1914-0.2656 0.1914-0.4746 0-0.2063-0.06395-0.3635-0.1914-0.4707-0.1275-0.1098-0.3137-0.166-0.5605-0.166zm0.05273 2.322-0.9199 2e-3v1.57h0.9199c0.3146 0 0.5497-0.06593 0.707-0.1973 0.16-0.1313 0.2402-0.3285 0.2402-0.5938 0-0.2599-0.07908-0.4554-0.2363-0.584-0.1573-0.1313-0.3936-0.1973-0.7109-0.1973zm-8.848 0.1816c-0.3957 0-0.7148 0.3191-0.7148 0.7148v7.57c0 0.395 0.3191 0.7148 0.7148 0.7148h8.57c0.395 0 0.7148-0.3198 0.7148-0.7148v-3.285h-2.875l0.875 2.477h-1.482l-0.3613-1.094h-2.309l-0.3633 1.094h-1.484l2-5.658v-1.818zm3.59 5-0.08789 0.2695h1.568l-0.08789-0.2695z" fill="currentColor"/>
</svg>
