<svg width="16" height="16" version="1.1" xmlns="http://www.w3.org/2000/svg">
  <defs>
    <style type="text/css" id="current-color-scheme">.ColorScheme-Text { color:#ebdbb2; } .ColorScheme-Highlight { color:#458588; }</style>
  </defs>
  <path class="ColorScheme-Text" fill="currentColor" d="m8 1c-3.866 0-7 3.134-7 7 0 3.866 3.134 7 7 7 3.866 0 7-3.134 7-7 0-3.866-3.134-7-7-7zm-0.7988 1.08c-1.143 1.209-3.004 3.053-5.139 5.141 0.1068-1.579 1.644-4.697 5.139-5.141zm0.4297 0.3027-5.135 7.963c-0.2835-0.6636-0.4449-1.373-0.4766-2.094l3.717-4.191zm2.98 0.2578c2.348 1.165 3.766 3.828 3.24 6.504-2.119 1.485-4.114 3.835-4.838 4.736-0.4736 0.08025-0.9544 0.1132-1.447 0.07617 0.1376-3.846 1.302-7.804 3.045-11.32z"/>
</svg>
