<svg width="16" height="16" version="1.1" xmlns="http://www.w3.org/2000/svg">
  <defs>
    <style id="current-color-scheme" type="text/css">.ColorScheme-Text { color:#ebdbb2; } .ColorScheme-Highlight { color:#458588; }</style>
  </defs>
  <path class="ColorScheme-Text" d="m4.962 1.668c-1.516 0.02698-2.87 1.017-2.92 3.117 0.9314-0.4033 1.988-0.6873 3.268-0.918 0.2616-0.7565 0.7625-1.309 1.318-1.85-0.5382-0.2402-1.112-0.3575-1.666-0.3477zm3.389 0.6836c-1.198 0.03585-2.061 1.461-2.408 2.387-1.021 0.1433-4.261 0.9113-4.59 1.742-0.333 0.8426 3.616 0.9201 3.031 1.916-0.4534 0.7727-1.42 4.308-0.6328 4.881 0.6885 0.5011 2.372-2.238 3.74-2.561 1.255 0.662 3.045 4.035 3.742 3.572 0.5218-0.4926-0.05161-4.315-0.4863-5.061-0.5956-1.024 4.079-0.8712 3.914-1.754-0.1673-0.8946-2.401-1.82-3.764-2.053-0.4517-1.622-1.349-3.106-2.547-3.07zm2.537 0.5859c0.3151 0.5077 0.5241 1.095 0.7246 1.68 0.6771 0.1636 1.389 0.3539 2.061 0.6875 0.3727 0.1851 0.7204 0.3921 1.035 0.6387-0.07134-1.926-1.841-2.974-3.82-3.006zm-2.689 0.6406c0.06122 0.00244 0.1208 0.04513 0.1172 0.125l-0.04492 1.312c-0.08118-0.0078-0.1627-0.01237-0.2441-0.01367l-0.05859 1.66c-0.0045 0.1586 0.2385 0.1664 0.2441 0.00781l0.05859-1.652c0.1236 0.00501 0.7503 0.04978 1.357 0.4473l-0.998 2.107c-0.06767 0.1434 0.1517 0.2481 0.2207 0.1055l0.9766-2.066c0.5476 0.4419 0.8208 1.057 0.7402 1.668-0.1445 1.094-1.361 1.858-2.717 1.707-1.357-0.1516-2.339-1.162-2.193-2.256 0.1275-0.987 1.136-1.725 2.365-1.73h0.0039l0.04492-1.307c0.0028-0.0799 0.06573-0.1177 0.127-0.1152zm1.672 1.941-0.04297 0.08984c-0.06323-0.0516-0.1297-0.1005-0.1992-0.1465l0.02344-0.04688c0.06708-0.1427 0.2884-0.0414 0.2187 0.1035zm-3.682 0.5215 0.9648 1.645c0.08078 0.1363 0.289 0.01373 0.209-0.123l-0.9629-1.645c-0.08098-0.135-0.2899-0.01442-0.2109 0.123zm-5.363 1.547c-0.7973 0.8703-1.139 2.418-0.4707 4.734 0.9795-0.924 1.628-1.183 2.197-1.207 0 0-0.07015-0.5957 0.7578-2.557-0.8646-0.2635-1.702-0.5274-2.484-0.9707zm14.54 0.707c-0.9197 0.8754-2.306 0.9068-3.5 1.191 0.2635 0.6489 0.34 1.349 0.4434 2.037 0.7527 0.08629 1.491 0.3783 2.498 1.732 1.536-2.293 1.431-3.966 0.5586-4.961zm-8.002 3.682c-0.2608 0.1713-0.6137 0.4212-1.029 0.7949 0.4559 0.3151 1.009 0.6173 1.676 0.8945 0.06928-0.1776 0.2049-0.3836 0.375-0.6055-0.4061-0.4736-0.7658-0.8413-1.021-1.084z" fill="currentColor"/>
</svg>
