<svg width="16" height="16" version="1.1" xmlns="http://www.w3.org/2000/svg">
  <defs>
    <style type="text/css" id="current-color-scheme">.ColorScheme-Text { color:#ebdbb2; } .ColorScheme-Highlight { color:#458588; }</style>
  </defs>
  <path class="ColorScheme-Text" fill="currentColor" d="m7.2768 14.965c-1.0373-0.10782-2.2649-0.54362-3.0978-1.0996-0.65951-0.44026-1.3046-1.0405-1.7572-1.6352-0.77336-1.0159-1.2575-2.2513-1.3942-3.5575-0.048819-0.46656-0.023349-1.3374 0.052546-1.796 0.24092-1.4557 0.93042-2.7998 1.969-3.8384 1.0496-1.0496 2.3651-1.7223 3.8594-1.9735 0.51058-0.085658 1.7486-0.085328 2.2134 7.939e-4 2.0432 0.37878 3.6651 1.4361 4.7594 3.1027 0.21481 0.32709 0.30721 0.49781 0.28208 0.521-0.0077 0.00662-1.0347 0.28972-2.2823 0.62832-1.2476 0.33847-3.3272 0.90322-4.6213 1.255-2.8255 0.76805-3.467 0.9393-3.4804 0.92915-0.02712-0.019844 0.081091-0.51203 0.18276-0.83 0.12121-0.37905 0.40614-0.9727 0.48889-1.0186 0.055288-0.029766 6.1834-1.7008 6.7283-1.8338 0.079608-0.019844 0.1395-0.051594 0.13308-0.071768-0.021496-0.067137-0.51109-0.38662-0.85338-0.55704-0.41393-0.20604-0.92595-0.38579-1.3831-0.48541-0.29497-0.064161-0.4465-0.074745-1.0715-0.074745-0.82125 0-1.1141 0.04498-1.7655 0.27153-0.80611 0.28046-1.4386 0.67789-2.0433 1.2841-0.6286 0.63017-1.0222 1.2659-1.3021 2.1028-0.21785 0.65157-0.28355 1.1216-0.262 1.8744 0.019215 0.67171 0.082917 1.0396 0.27872 1.6098 0.57507 1.6747 1.9854 2.9818 3.7034 3.4326 0.55455 0.14552 0.93239 0.18355 1.6052 0.16173 0.84261-0.02644 1.4708-0.18488 2.2062-0.55215 0.80673-0.40306 1.5757-1.0826 2.0693-1.8285 0.25354-0.38322 0.55308-0.97386 0.51378-1.0132-0.01886-0.019847-0.90458 0.21497-3.5141 0.92802-0.88448 0.24176-2.0164 0.54782-2.5155 0.68037l-0.90732 0.2411-0.18296-0.10484c-0.24812-0.14188-0.5713-0.38275-0.79193-0.59005-0.19981-0.18785-0.52245-0.56121-0.50227-0.58139 0.0069755-0.006649 0.68952-0.19447 1.5168-0.41675 0.82728-0.22225 2.144-0.57934 2.9261-0.79352 0.78206-0.21431 1.9628-0.53442 2.6238-0.71169 0.66103-0.17727 1.6511-0.44516 2.2001-0.59531 0.54902-0.15015 1.0213-0.27682 1.0495-0.28112 0.13808-0.023152 0.1183 0.89697-0.03556 1.6508-0.09495 0.46533-0.33724 1.1788-0.55188 1.6251-0.6764 1.4065-1.8341 2.5745-3.2208 3.2497-1.2006 0.58453-2.5341 0.82546-3.8257 0.69116zm-3.1917-5.3036c-0.16115-0.37872-0.2445-0.71579-0.32622-1.3193-0.0078981-0.058208 0.013361-0.082682 0.094966-0.10848 0.10524-0.033403 1.8998-0.51845 4.5064-1.218 0.76345-0.20472 2.0051-0.53932 2.7592-0.74318 1.982-0.53575 3.3275-0.89273 3.3838-0.89776 0.0876-0.00662 0.38396 0.89855 0.4586 1.4024l0.02282 0.15412-1.3147 0.34846c-0.72312 0.19182-1.9851 0.53059-2.8044 0.7532-0.8193 0.22258-1.8934 0.5117-2.3868 0.64244-0.49345 0.13064-1.6521 0.44228-2.5747 0.69235-0.92264 0.25003-1.6939 0.45469-1.714 0.45469-0.020077 0-0.067273-0.072431-0.10491-0.16073z"/>
</svg>
