<svg width="16" height="16" style="isolation:isolate" version="1.1" xmlns="http://www.w3.org/2000/svg">
  <path d="m4.26 1v2.328c0 0.277 0.223 0.5 0.5 0.5s0.5-0.223 0.5-0.5v-2.328zm-0.545 4c-0.3957 0-0.8052 0.3103-0.9219 0.7109l-1.719 5.904c-0.03882 0.1333-0.06206 0.2615-0.07031 0.3848h-0.003906v2c0 0.554 0.446 1 1 1h12c0.554 0 1-0.446 1-1v-2h-0.0039c-0.0083-0.1233-0.03149-0.2515-0.07031-0.3848l-1.719-5.904c-0.1167-0.4006-0.5262-0.7109-0.9219-0.7109h-6.525v1.41c0.1507 0.1654 0.2402 0.369 0.2402 0.5898 1e-7 0.5525-0.5571 1-1.244 1-0.6863-6.125e-4 -1.242-0.4482-1.242-1-2e-7 -0.223 0.09258-0.4274 0.2461-0.5938v-1.406h-0.04492zm4.285 1c0.687-2.545e-4 1.244 0.4475 1.244 1 1e-7 0.5525-0.5571 1-1.244 1-0.687 2.545e-4 -1.244-0.4475-1.244-1-1e-7 -0.5525 0.5571-1 1.244-1zm3.244 0c0.6863 6.127e-4 1.242 0.4482 1.242 1s-0.5559 0.9994-1.242 1c-0.687 2.547e-4 -1.244-0.4475-1.244-1-1e-7 -0.5525 0.5571-1 1.244-1zm-7 3c0.6863 6.125e-4 1.242 0.4482 1.242 1 4e-7 0.5518-0.5559 0.9994-1.242 1-0.687 2.55e-4 -1.244-0.4475-1.244-1-1e-7 -0.5525 0.5571-1 1.244-1zm3.756 0c0.687-2.545e-4 1.244 0.4475 1.244 1 1e-7 0.5525-0.5571 1-1.244 1-0.687 2.55e-4 -1.244-0.4475-1.244-1-1e-7 -0.5525 0.5571-1 1.244-1zm3.756 0c0.687-2.547e-4 1.244 0.4475 1.244 1s-0.5571 1-1.244 1c-0.6863-6.13e-4 -1.242-0.4482-1.242-1s0.5559-0.9994 1.242-1z" fill="#ebdbb2" fill-rule="evenodd" stroke-width="5"/>
  <path d="m4.093 3.344c-0.2044 0.1828-0.334 0.4471-0.334 0.7441v2.472c0 0.554 0.446 1 1 1s1-0.446 1-1v-2.472c0-0.2971-0.1296-0.5613-0.334-0.7441v0.07812c0 0.3693-0.2967 0.666-0.666 0.666s-0.666-0.2967-0.666-0.666z" fill="#ebdbb2" fill-rule="evenodd" opacity=".3" stroke-width="5"/>
</svg>
