<svg xmlns="http://www.w3.org/2000/svg" style="isolation:isolate" width="16" height="16" viewBox="0 0 16 16">
 <defs>
  <style id="current-color-scheme" type="text/css">
   .ColorScheme-Text { color:#ebdbb2; } .ColorScheme-Highlight { color:#458588; }
  </style>
  <linearGradient id="arrongin" x1="0%" x2="0%" y1="0%" y2="100%">
   <stop offset="0%" style="stop-color:#d79921; stop-opacity:1"/>
   <stop offset="100%" style="stop-color:#b57614; stop-opacity:1"/>
  </linearGradient>
  <linearGradient id="aurora" x1="0%" x2="0%" y1="0%" y2="100%">
   <stop offset="0%" style="stop-color:#83a598; stop-opacity:1"/>
   <stop offset="100%" style="stop-color:#b16286; stop-opacity:1"/>
  </linearGradient>
  <linearGradient id="fitdance" x1="0%" x2="0%" y1="0%" y2="100%">
   <stop offset="0%" style="stop-color:#8ec07c; stop-opacity:1"/>
   <stop offset="100%" style="stop-color:#458588; stop-opacity:1"/>
  </linearGradient>
  <linearGradient id="oomox" x1="0%" x2="0%" y1="0%" y2="100%">
   <stop offset="0%" style="stop-color:#458588; stop-opacity:1"/>
   <stop offset="100%" style="stop-color:#928374; stop-opacity:1"/>
  </linearGradient>
  <linearGradient id="rainblue" x1="0%" x2="0%" y1="0%" y2="100%">
   <stop offset="0%" style="stop-color:#b8bb26; stop-opacity:1"/>
   <stop offset="100%" style="stop-color:#076678; stop-opacity:1"/>
  </linearGradient>
  <linearGradient id="sunrise" x1="0%" x2="0%" y1="0%" y2="100%">
   <stop offset="0%" style="stop-color: #fe8019; stop-opacity:1"/>
   <stop offset="100%" style="stop-color: #fabd2f; stop-opacity:1"/>
  </linearGradient>
  <linearGradient id="telinkrin" x1="0%" x2="0%" y1="0%" y2="100%">
   <stop offset="0%" style="stop-color: #83a598; stop-opacity:1"/>
   <stop offset="100%" style="stop-color: #83a598; stop-opacity:1"/>
  </linearGradient>
  <linearGradient id="60spsycho" x1="0%" x2="0%" y1="0%" y2="100%">
   <stop offset="0%" style="stop-color: #fb4934; stop-opacity:1"/>
   <stop offset="25%" style="stop-color: #fabd2f; stop-opacity:1"/>
   <stop offset="50%" style="stop-color: #fe8019; stop-opacity:1"/>
   <stop offset="100%" style="stop-color: #689d6a; stop-opacity:1"/>
  </linearGradient>
  <linearGradient id="90ssummer" x1="0%" x2="0%" y1="0%" y2="100%">
   <stop offset="0%" style="stop-color: #b16286; stop-opacity:1"/>
   <stop offset="20%" style="stop-color: #8ec07c; stop-opacity:1"/>
   <stop offset="50%" style="stop-color: #fabd2f; stop-opacity:1"/>
   <stop offset="100%" style="stop-color: #458588; stop-opacity:1"/>
  </linearGradient>
  <linearGradient id="cyberneon" x1="0%" x2="0%" y1="0%" y2="100%">
    <stop offset="0" style="stop-color:#83a598; stop-opacity:1"/>
    <stop offset="1" style="stop-color:#b16286; stop-opacity:1"/>
  </linearGradient>
 </defs>
 <path style="fill:currentColor" class="ColorScheme-Text" d="M 0 3.6 L 0 5.6 L 0 7.2 L 0 11.6 L 1.6 11.6 L 1.6 7.2 L 2.4 7.2 L 2.4 10 L 4 10 L 4 3.6 L 2.4 3.6 L 2.4 5.6 L 1.6 5.6 L 1.6 3.6 L 0 3.6 Z M 8 3.6 C 7.151 3.6 6.337 3.937 5.737 4.537 C 5.137 5.137 4.8 5.951 4.8 6.8 C 4.8 7.649 5.137 8.463 5.737 9.063 C 6.337 9.663 7.151 10 8 10 C 8.849 10 9.663 9.663 10.263 9.063 C 10.863 8.463 11.2 7.649 11.2 6.8 C 11.2 5.951 10.863 5.137 10.263 4.537 C 9.663 3.937 8.849 3.6 8 3.6 L 8 3.6 Z M 12 3.6 L 12 10 L 13.6 10 L 13.6 6.563 L 14.4 7.949 L 14.4 11.6 L 16 11.6 L 16 3.6 L 14.4 3.6 L 14.4 4.952 L 13.6 3.6 L 12 3.6 Z M 8 5.2 C 8.424 5.2 8.831 5.369 9.131 5.669 C 9.431 5.969 9.6 6.376 9.6 6.8 C 9.6 7.224 9.431 7.631 9.131 7.931 C 8.831 8.231 8.424 8.4 8 8.4 C 7.576 8.4 7.169 8.231 6.869 7.931 C 6.569 7.631 6.4 7.224 6.4 6.8 C 6.4 6.376 6.569 5.969 6.869 5.669 C 7.169 5.369 7.576 5.2 8 5.2 L 8 5.2 Z M 4.8 10.8 L 4.8 12.4 L 11.2 12.4 L 11.2 10.8 L 4.8 10.8 Z"/>
</svg>
