<svg width="16" height="16" version="1.1" xmlns="http://www.w3.org/2000/svg">
  <defs>
    <style type="text/css" id="current-color-scheme">.ColorScheme-Text { color:#ebdbb2; } .ColorScheme-Highlight { color:#458588; }</style>
  </defs>
  <path class="ColorScheme-Text" fill="currentColor" d="m8 2.555c3.003 0 5.443 2.362 5.444 5.105-0.0018 1.18-0.5329 2.322-1.467 3.282-0.2914 0.2984-0.4506 0.7017-0.4419 1.119 0.0105 0.4559 0.1864 0.8785 0.3631 1.273-0.5022-0.1164-0.987-0.3194-1.459-0.6309-0.3509-0.231-0.7805-0.3106-1.19-0.2205-0.4952 0.1102-0.9091 0.1811-1.249 0.1829-3.032 0-5.444-2.259-5.444-5.004 0-2.745 2.44-5.107 5.444-5.107zm0-1.555c-3.822 0-7 3.014-7 6.662 0 3.648 3.178 6.56 7 6.56h0.00175c0.5355-0.0018 1.061-0.1041 1.583-0.2196 1.074 0.707 2.387 1.191 3.876 0.9231 0.6834-0.1251 0.9563-0.8006 0.4804-1.305-0.5101-0.539-0.8347-0.8741-0.8505-1.592 1.164-1.195 1.907-2.719 1.909-4.365 0-3.648-3.178-6.662-7-6.662zm1.928 7.88c0.175-0.1085 0.3894-0.14 0.5871-0.09275 0.2021 0.04637 0.3736 0.175 0.4821 0.35 0.1094 0.175 0.14 0.3885 0.09362 0.5871-0.05075 0.2021-0.175 0.3727-0.3535 0.4821-0.2721 0.1671-0.5565 0.315-0.8522 0.4392-0.2756 0.1207-0.56 0.2214-0.8513 0.3036-0.3342 0.09275-0.6842 0.1435-1.034 0.1479-0.35-0.0044-0.6965-0.05512-1.035-0.1479-0.287-0.08225-0.5714-0.1829-0.847-0.3036-0.2957-0.1242-0.5801-0.2721-0.8557-0.4392-0.175-0.1094-0.3036-0.28-0.35-0.4821-0.05075-0.1986-0.01575-0.4121 0.09275-0.5871 0.105-0.175 0.28-0.3036 0.4786-0.35 0.2021-0.04725 0.4121-0.01575 0.5915 0.09275 0.21 0.1286 0.4314 0.2415 0.6606 0.3386 0.21 0.09362 0.4279 0.1706 0.6536 0.2336 0.1986 0.05425 0.4042 0.08487 0.6107 0.08925 0.21-0.00439 0.4156-0.035 0.6142-0.08925 0.2214-0.063 0.4436-0.14 0.6536-0.2336 0.2292-0.09712 0.4506-0.21 0.6606-0.3386z"/>
</svg>
