<svg width="16" height="16" version="1.1" xmlns="http://www.w3.org/2000/svg">
  <defs>
    <style id="current-color-scheme" type="text/css">.ColorScheme-Text { color:#ebdbb2; } .ColorScheme-Highlight { color:#458588; }</style>
  </defs>
  <path class="ColorScheme-Text" d="m7.398 1.03-5.766 1.545c-0.4565 0.1223-0.7293 0.5735-0.6113 1.014l2.555 9.539c0.1175 0.4401 0.5807 0.6945 1.037 0.5723l5.766-1.545c0.4565-0.1223 0.7293-0.5755 0.6113-1.016l-2.555-9.537c-0.1275-0.4778-0.621-0.6837-1.037-0.5723zm2.273 1.324 2.285 8.527c0.262 0.9777-0.3622 1.984-1.318 2.24l-3.111 0.834 3.783 1.014c0.4657 0.1249 0.9382-0.1365 1.059-0.5859l2.609-9.738c0.1204-0.4495-0.159-0.9123-0.625-1.037z" fill="currentColor"/>
</svg>
