<svg width="16" height="16" version="1.1" xmlns="http://www.w3.org/2000/svg">
  <defs>
    <style id="current-color-scheme" type="text/css">.ColorScheme-Text { color:#ebdbb2; } .ColorScheme-Highlight { color:#458588; }</style>
  </defs>
  <path class="ColorScheme-Text" d="m4 1c-1.662 0-3 1.338-3 3v8c0 1.662 1.338 3 3 3h8c1.662 0 3-1.338 3-3v-8c0-1.662-1.338-3-3-3zm0.334 1.5h7.331c1.016 0 1.834 0.8182 1.834 1.834v7.331c0 1.016-0.8182 1.834-1.834 1.834h-7.331c-1.016 0-1.834-0.8182-1.834-1.834v-7.331c0-1.016 0.8182-1.834 1.834-1.834zm7.418 1a0.7497 0.7497 0 0 0-0.7501 0.7501 0.7497 0.7497 0 0 0 0.7501 0.7501 0.7497 0.7497 0 0 0 0.7501-0.7501 0.7497 0.7497 0 0 0-0.7501-0.7501zm-3.75 1c-1.933 0-3.5 1.567-3.5 3.5s1.567 3.5 3.5 3.5 3.5-1.567 3.5-3.5-1.567-3.5-3.5-3.5zm0 1.5c1.105 0 2 0.8953 2 2 0 1.105-0.8953 2-2 2-1.105 0-2-0.8953-2-2 0-1.105 0.8953-2 2-2z" fill="currentColor"/>
</svg>
