<svg width="16" height="16" version="1.1" xmlns="http://www.w3.org/2000/svg">
  <defs>
    <style id="current-color-scheme" type="text/css">.ColorScheme-Text { color:#ebdbb2; } .ColorScheme-Highlight { color:#458588; }</style>
  </defs>
  <path class="ColorScheme-Text" d="m2 1c-1.108 0-2 0.892-2 2v8h5v-3h-3.5c-0.277 0-0.5-0.223-0.5-0.5s0.223-0.5 0.5-0.5h3.5c0-1.662 1.338-3 3-3h2v-1c0-1.108-0.892-2-2-2zm6 4c-1.108 0-2 0.892-2 2v6c0 1.108 0.892 2 2 2h8v-8c0-1.108-0.892-2-2-2zm-0.00977 3.002c0.092227-0.00133 0.19446 0.022669 0.28711 0.083984l3 2c0.29679 0.19794 0.29679 0.63409 0 0.83203l-3 2c-0.22976 0.15317-0.54018 0.09108-0.69336-0.13867-0.15317-0.22976-0.091081-0.54018 0.13867-0.69336l2.375-1.584-2.375-1.584c-0.22975-0.15318-0.29184-0.4636-0.13867-0.69336 0.073659-0.1104 0.18819-0.18699 0.31836-0.21289 0.02793-0.00541 0.057148-0.00932 0.087891-0.00977zm3.5098 3.998h3c0.277 0 0.5 0.223 0.5 0.5s-0.223 0.5-0.5 0.5h-3c-0.277 0-0.5-0.223-0.5-0.5s0.223-0.5 0.5-0.5z" fill="currentColor"/>
</svg>
