<svg width="16" height="16" version="1.1" xmlns="http://www.w3.org/2000/svg">
  <defs>
    <style id="current-color-scheme" type="text/css">.ColorScheme-Text { color:#ebdbb2; } .ColorScheme-Highlight { color:#458588; }</style>
  </defs>
  <path class="ColorScheme-Text" d="m1.9043 1-1.9043 2.2227v4.5547l1.9043 2.2227h5.1562l1.0547-1.0527c0.12543 0.034177 0.25477 0.051904 0.38477 0.052734 0.82843 0 1.5-0.67157 1.5-1.5s-0.67157-1.5-1.5-1.5c-0.82843 0-1.5 0.67157-1.5 1.5 8.305e-4 0.13 0.018557 0.25934 0.052734 0.38477l-0.61328 0.61523h-3.8438l-1.0957-1.2773v-3.4453l1.0957-1.2773h3.8438l0.61328 0.61523c-0.034177 0.12543-0.051904 0.25477-0.052734 0.38477 0 0.82843 0.67157 1.5 1.5 1.5 0.82843 0 1.5-0.67157 1.5-1.5s-0.67157-1.5-1.5-1.5c-0.13 8.305e-4 -0.25934 0.018557-0.38477 0.052734l-1.0547-1.0527zm11.096 0c-0.35627 0.00196-0.70555 0.099061-1.0117 0.28125l1.0117 1.0117c0.19587 0.19587 0.19587 0.51116 0 0.70703s-0.51116 0.19587-0.70703 0l-1.0117-1.0117c-0.18219 0.30617-0.27929 0.65545-0.28125 1.0117 0 1.1046 0.89543 2 2 2s2-0.89543 2-2-0.89543-2-2-2zm-4.5 2c0.27614 0 0.5 0.22386 0.5 0.5s-0.22386 0.5-0.5 0.5-0.5-0.22386-0.5-0.5 0.22386-0.5 0.5-0.5zm4.5 3c-1.1046 0-2 0.89543-2 2s0.89543 2 2 2 2-0.89543 2-2c-2e-3 -0.35627-0.09906-0.70555-0.28125-1.0117l-1.0117 1.0117c-0.19587 0.19587-0.51116 0.19587-0.70703 0s-0.19587-0.51116 0-0.70703l1.0117-1.0117c-0.30617-0.18219-0.65545-0.27929-1.0117-0.28125zm-4.5 1c0.27614 0 0.5 0.22386 0.5 0.5s-0.22386 0.5-0.5 0.5-0.5-0.22386-0.5-0.5 0.22386-0.5 0.5-0.5zm-2.5 4.0039-1.9727 2.3691-1.7305-2.3672-2.2949 3.4395 0.83203 0.55469 1.5-2.248 1.6406 2.2461 2.0273-2.4336 2.0352 2.4336 2.373-3.4238-0.82031-0.57031-1.627 2.3477zm7-0.003906c-1.1046 0-2 0.89543-2 2s0.89543 2 2 2 2-0.89543 2-2-0.89543-2-2-2zm0 1c0.55228 0 1 0.44772 1 1s-0.44772 1-1 1-1-0.44772-1-1 0.44772-1 1-1z" fill="currentColor"/>
</svg>
