<svg width="16" height="16" version="1.1" xmlns="http://www.w3.org/2000/svg">
  <defs>
    <style id="current-color-scheme" type="text/css">.ColorScheme-Text { color:#ebdbb2; } .ColorScheme-Highlight { color:#458588; }</style>
  </defs>
  <path class="ColorScheme-Text" d="m8.002 1.0002c-0.32285 7.73e-4 -0.64284 0.07954-0.93164 0.23242l-4.5098 2.3945c-0.65341 0.34679-1.0621 1.0259-1.0625 1.7656v5.127c1.57e-5 0.72899 0.39659 1.4002 1.0352 1.752l4.5098 2.4805c0.60154 0.3309 1.3308 0.33031 1.9316-2e-3l4.4941-2.4804c0.63716-0.35189 1.0329-1.0221 1.0332-1.75v-5.127c-3.81e-4 -0.73819-0.40731-1.4162-1.0586-1.7637l-4.4961-2.3945c-0.29681-0.15792-0.62246-0.23515-0.94531-0.23438zm-0.00781 2 4.4766 2.4414-4.4766 2.5586v5l-4.5-2.4551v-5.1172l4.5 2.5723zm3.2578 4.0566c0.09547-0.0064 0.17188 0.0575 0.17188 0.16211v0.41992l0.94922-0.51953c0.06694-0.0365 0.13281-0.02081 0.13281 0.06641v0.2793c0 0.0932-0.0702 0.18062-0.13281 0.21484l-0.40625 0.2207v2.6523c0 0.13723-0.13537 0.35161-0.27148 0.42578l-2.4395 1.334c-0.13233 0.07295-0.27148 0.0093-0.27148-0.13281v-2.6543l-0.4043 0.22461c-0.07074 0.03847-0.13672 0.01615-0.13672-0.06641v-0.2793c0-0.07351 0.05726-0.17148 0.13672-0.21484l0.94727-0.51562v-0.41797c0-0.14288 0.13583-0.35555 0.27148-0.42969l1.3535-0.73633c0.03415-0.0186 0.06779-0.03106 0.09961-0.0332zm-0.32031 0.58203c-0.01556 0.0014-0.03243 0.0067-0.04883 0.01563l-0.8125 0.44336c-0.06827 0.03811-0.13672 0.14621-0.13672 0.21484v0.14062l1.082-0.5957v-0.13867c0-0.05658-0.0373-0.08421-0.08398-0.08008zm0.49219 0.55859-1.8965 1.0352v2.373l1.8965-1.0352zm-0.52539 0.72461c8e-3 -9.3e-4 0.01596-3.51e-4 0.02344 0 0.05435 0.0025 0.09375 0.03777 0.09375 0.12305v1.1191c0 0.27533-0.4043 0.49601-0.4043 0.2207v-1.1152c0-0.17896 0.16761-0.33371 0.28711-0.34766zm-0.67578 0.36914c8e-3 -1e-3 0.01592-2.6e-4 0.02344 0 0.05464 0.0019 0.09375 0.03812 0.09375 0.12305v1.1191c0 0.26946-0.40625 0.50111-0.40625 0.22266v-1.1191c0-0.17487 0.1689-0.33047 0.28906-0.3457z" fill="currentColor"/>
</svg>
