<svg width="16" height="16" version="1.1" xmlns="http://www.w3.org/2000/svg">
  <defs>
    <style id="current-color-scheme" type="text/css">.ColorScheme-Text { color:#ebdbb2; } .ColorScheme-Highlight { color:#458588; }</style>
  </defs>
  <path class="ColorScheme-Text" d="m7.295 3.2c-1.088-0.032-2.134 0.192-3.1 0.419-1.423 0.335-3.766 1.374-3.766 1.374-0.565 0.245-0.574 1.047-0.014 1.305 0.805 0.412 2.025 0.584 2.195 1.513 0.251 1.37-1.188 2.625-1.95 3.888-0.457 0.726 0.515 1.495 1.111 0.88 0 0 3.689-3.426 8.506-3.555 0.897-0.024 2.092 0.374 3.024 0.805 0.933 0.432 1.597 0.759 1.597 0.759 0.59 0.385 1.319-0.392 1.041-1.041-1.381-3.228-4.24-5.883-8.169-6.316l-6e-3 -1e-3c-0.157-0.016-0.314-0.025-0.469-0.03z" fill="currentColor"/>
</svg>
