<svg width="16" height="16" version="1.1" xmlns="http://www.w3.org/2000/svg">
  <defs>
    <style id="current-color-scheme" type="text/css">.ColorScheme-Text { color:#ebdbb2; } .ColorScheme-Highlight { color:#458588; }</style>
  </defs>
  <path class="ColorScheme-Text" d="m1.619 1.455c2.828 3.221 3.202 6.545 3.053 8.727-0.131 1.913-1.308 2.628-1.533 2.719-0.468 0.188-1.57 0.469-3.139-0.537 0 1.174 1.009 2.181 2.766 2.181 1.756 0 3.194-1.41 3.485-2.998 1.014-8.2-0.914-9.352-0.914-9.352s-1.766-0.74-3.718-0.74zm5.654 0c0.513 2.175 4.363 3.032 4.363 4.066 0 1.035-2.951 1.213-2.909 2.89 0.043 2.318 3.765 5.385 7.273 6.134-1.54-1.783-5.433-5.671-4.149-6.67 4.62-3.139 0.384-5.707-4.578-6.42z" fill="currentColor"/>
</svg>
