<svg xmlns="http://www.w3.org/2000/svg" style="isolation:isolate" width="16" height="16" viewBox="0 0 16 16">
 <defs>
  <style id="current-color-scheme" type="text/css">
   .ColorScheme-Text { color:#ebdbb2; } .ColorScheme-Highlight { color:#458588; }
  </style>
  <linearGradient id="arrongin" x1="0%" x2="0%" y1="0%" y2="100%">
   <stop offset="0%" style="stop-color:#d79921; stop-opacity:1"/>
   <stop offset="100%" style="stop-color:#b57614; stop-opacity:1"/>
  </linearGradient>
  <linearGradient id="aurora" x1="0%" x2="0%" y1="0%" y2="100%">
   <stop offset="0%" style="stop-color:#83a598; stop-opacity:1"/>
   <stop offset="100%" style="stop-color:#b16286; stop-opacity:1"/>
  </linearGradient>
  <linearGradient id="fitdance" x1="0%" x2="0%" y1="0%" y2="100%">
   <stop offset="0%" style="stop-color:#8ec07c; stop-opacity:1"/>
   <stop offset="100%" style="stop-color:#458588; stop-opacity:1"/>
  </linearGradient>
  <linearGradient id="oomox" x1="0%" x2="0%" y1="0%" y2="100%">
   <stop offset="0%" style="stop-color:#458588; stop-opacity:1"/>
   <stop offset="100%" style="stop-color:#928374; stop-opacity:1"/>
  </linearGradient>
  <linearGradient id="rainblue" x1="0%" x2="0%" y1="0%" y2="100%">
   <stop offset="0%" style="stop-color:#b8bb26; stop-opacity:1"/>
   <stop offset="100%" style="stop-color:#076678; stop-opacity:1"/>
  </linearGradient>
  <linearGradient id="sunrise" x1="0%" x2="0%" y1="0%" y2="100%">
   <stop offset="0%" style="stop-color: #fe8019; stop-opacity:1"/>
   <stop offset="100%" style="stop-color: #fabd2f; stop-opacity:1"/>
  </linearGradient>
  <linearGradient id="telinkrin" x1="0%" x2="0%" y1="0%" y2="100%">
   <stop offset="0%" style="stop-color: #83a598; stop-opacity:1"/>
   <stop offset="100%" style="stop-color: #83a598; stop-opacity:1"/>
  </linearGradient>
  <linearGradient id="60spsycho" x1="0%" x2="0%" y1="0%" y2="100%">
   <stop offset="0%" style="stop-color: #fb4934; stop-opacity:1"/>
   <stop offset="25%" style="stop-color: #fabd2f; stop-opacity:1"/>
   <stop offset="50%" style="stop-color: #fe8019; stop-opacity:1"/>
   <stop offset="100%" style="stop-color: #689d6a; stop-opacity:1"/>
  </linearGradient>
  <linearGradient id="90ssummer" x1="0%" x2="0%" y1="0%" y2="100%">
   <stop offset="0%" style="stop-color: #b16286; stop-opacity:1"/>
   <stop offset="20%" style="stop-color: #8ec07c; stop-opacity:1"/>
   <stop offset="50%" style="stop-color: #fabd2f; stop-opacity:1"/>
   <stop offset="100%" style="stop-color: #458588; stop-opacity:1"/>
  </linearGradient>
  <linearGradient id="cyberneon" x1="0%" x2="0%" y1="0%" y2="100%">
    <stop offset="0" style="stop-color:#83a598; stop-opacity:1"/>
    <stop offset="1" style="stop-color:#b16286; stop-opacity:1"/>
  </linearGradient>
 </defs>
 <path style="fill:currentColor" class="ColorScheme-Text" fill-rule="evenodd" d="M 8.444 3.216 L 8.444 3.216 Q 7.701 3.216 7.313 2.82 L 7.313 2.82 L 7.313 2.82 Q 6.925 2.424 6.925 1.681 L 6.925 1.681 L 6.925 1.681 Q 6.925 0.905 7.37 0.453 L 7.37 0.453 L 7.37 0.453 Q 7.814 0 8.574 0 L 8.574 0 L 8.574 0 Q 9.285 0 9.681 0.404 L 9.681 0.404 L 9.681 0.404 Q 10.077 0.808 10.077 1.535 L 10.077 1.535 L 10.077 1.535 Q 10.077 2.311 9.64 2.764 L 9.64 2.764 L 9.64 2.764 Q 9.204 3.216 8.444 3.216 L 8.444 3.216 Z M 6.553 16 L 5.794 15.305 L 5.826 15.063 L 5.826 15.063 Q 6.521 14.384 6.764 13.64 L 6.764 13.64 L 6.764 13.64 Q 7.006 12.897 7.006 11.459 L 7.006 11.459 L 7.006 6.998 L 7.006 6.998 Q 7.006 6.465 6.893 6.263 L 6.893 6.263 L 6.893 6.263 Q 6.78 6.061 6.473 6.061 L 6.473 6.061 L 6.473 6.061 Q 6.279 6.061 6.141 6.077 L 6.141 6.077 L 6.141 6.077 Q 6.004 6.093 5.956 6.109 L 5.956 6.109 L 6.085 4.8 L 6.085 4.8 Q 7.394 4.606 8.509 4.42 L 8.509 4.42 L 8.509 4.42 Q 9.624 4.234 9.996 4.17 L 9.996 4.17 L 10.206 4.525 L 10.206 4.525 Q 9.77 5.511 9.77 12.218 L 9.77 12.218 L 9.77 12.218 Q 9.77 13.333 8.897 14.36 L 8.897 14.36 L 8.897 14.36 Q 8.024 15.386 6.553 16 L 6.553 16 Z"/>
</svg>
