<svg width="16" height="16" version="1.1" xmlns="http://www.w3.org/2000/svg">
  <defs>
    <style id="current-color-scheme" type="text/css">.ColorScheme-Text { color:#ebdbb2; } .ColorScheme-Highlight { color:#458588; }</style>
  </defs>
  <path class="ColorScheme-Text" d="m12.5 1c-0.5523 0-1 0.4477-1 1s0.4477 1 1 1 1-0.4477 1-1-0.4477-1-1-1zm-9.004 1c-0.2761 0-0.5 0.2239-0.5 0.5s0.2239 0.5 0.5 0.5 0.5-0.2239 0.5-0.5-0.2239-0.5-0.5-0.5zm4.5 0c-1.087 0-2.148 0.3804-3.035 1.09-0.8868 0.7095-1.555 1.714-1.914 2.871 0.9666-1.287 2.824-1.762 4.951-1.762s3.983 0.4721 4.947 1.762c-0.3591-1.157-1.027-2.162-1.914-2.871-0.8868-0.7095-1.948-1.09-3.035-1.09zm-4.949 7.039c0.3591 1.157 1.027 2.162 1.914 2.871 0.8868 0.7095 1.948 1.09 3.035 1.09s2.148-0.3804 3.035-1.09c0.8868-0.7095 1.555-1.714 1.914-2.871-0.9642 1.29-2.82 1.762-4.947 1.762-2.127 0-3.985-0.4747-4.951-1.762zm0.9492 3.961c-0.5523 0-1 0.4477-1 1s0.4477 1 1 1 1-0.4477 1-1-0.4477-1-1-1z" fill="currentColor"/>
</svg>
