<svg width="16" height="16" version="1.1" xmlns="http://www.w3.org/2000/svg">
  <defs>
    <style id="current-color-scheme" type="text/css">.ColorScheme-Text { color:#ebdbb2; } .ColorScheme-Highlight { color:#458588; }</style>
  </defs>
  <path class="ColorScheme-Text" d="m1.506 3c-0.8284 0-1.5 0.6716-1.5 1.5s0.6716 1.5 1.5 1.5 1.5-0.6716 1.5-1.5-0.6716-1.5-1.5-1.5zm6.494 0c-0.8284 0-1.5 0.6716-1.5 1.5s0.6716 1.5 1.5 1.5 1.5-0.6716 1.5-1.5-0.6716-1.5-1.5-1.5zm6.5 0c-0.8284 0-1.5 0.6716-1.5 1.5s0.6716 1.5 1.5 1.5 1.5-0.6716 1.5-1.5-0.6716-1.5-1.5-1.5zm-10.97 2.939c-0.1919 0.2768-0.4377 0.512-0.7227 0.6914l3.178 3.43c0.1919-0.2768 0.4377-0.512 0.7227-0.6914zm8.955 0-3.182 3.426c0.2881 0.1748 0.5379 0.4059 0.7344 0.6797l3.17-3.414c-0.285-0.1794-0.5308-0.4146-0.7227-0.6914zm-10.97 4.061c-0.8284 0-1.5 0.6716-1.5 1.5-1e-7 0.8284 0.6716 1.5 1.5 1.5s1.5-0.6716 1.5-1.5-0.6716-1.5-1.5-1.5zm6.494 0c-0.8284 0-1.5 0.6716-1.5 1.5-1e-7 0.8284 0.6716 1.5 1.5 1.5s1.5-0.6716 1.5-1.5-0.6716-1.5-1.5-1.5z" fill="currentColor"/>
</svg>
