<svg width="16" height="16" version="1.1" xmlns="http://www.w3.org/2000/svg">
  <defs>
    <style id="current-color-scheme" type="text/css">.ColorScheme-Text { color:#ebdbb2; } .ColorScheme-Highlight { color:#458588; }</style>
  </defs>
  <path class="ColorScheme-Text" d="m4.5 1c-0.8284 0-1.5 0.6716-1.5 1.5 0.00126 0.1822 0.03634 0.3599 0.09961 0.5254-0.5949 0.5805-1.082 1.262-1.438 2.014-0.9431 0.2013-1.662 1.225-1.662 2.461 0 1.049 0.5169 1.946 1.25 2.316 0.3411 1.263 1.028 2.396 1.973 3.281 0.3304-0.6425 0.9973-1.098 1.777-1.098h6c0.7801 0 1.447 0.4552 1.777 1.098 0.9446-0.8851 1.632-2.018 1.973-3.281 0.7331-0.3708 1.25-1.267 1.25-2.316 0-1.235-0.7171-2.258-1.658-2.461-0.3532-0.7558-0.8387-1.442-1.434-2.027 0.05903-0.1621 0.09172-0.3343 0.0918-0.5117 0-0.8284-0.6716-1.5-1.5-1.5-0.4091 0.0033-0.7804 0.1732-1.051 0.4453-0.7832-0.2936-1.613-0.4444-2.449-0.4453-0.8297 6e-3 -1.652 0.1594-2.428 0.4531-0.2733-0.2803-0.6548-0.4526-1.072-0.4531zm3.5 1c3.314 0 6 2.559 6 5.715 0 2.212-1.323 3.425-3.254 3.955 0.1036-0.9202 0.01838-2.112 0.1055-3.148-0.1759 0.2863-0.4909 0.4785-0.8516 0.4785-0.5523 0-1-0.4477-1-1s0.4477-1 1-1c0.3942 0 0.7336 0.2292 0.8965 0.5605 0.0084-0.2129 0.01826-0.4258 0.02734-0.6387-0.09374-0.2238-0.3759-1.886-1.596-1.842-1.283-0.258-1.29 0.8609-1.785 0.9004-0.5293 0.042-0.6198-1.096-1.395-1-0.7343 0.3108-0.9755 1.312-1.061 1.764l0.03906 0.7695c0.1709-0.3062 0.4975-0.5137 0.873-0.5137 0.5523 0 1 0.4477 1 1s-0.4477 1-1 1c-0.3683 0-0.6898-0.1996-0.8633-0.4961-0.04464 1.069 0.07465 2.126 0.1934 3.186-5.944-1.563-3.339-9.689 2.67-9.689zm-0.1895 1.002c-0.531-0.01024-1.648 0.07483-2.422 0.8809-0.3917 0.3909-0.4051 0.6438-0.3809 1.201-0.0015 0.1556-0.00528 0.3125-0.00781 0.4688 0.0076-0.4692 0.2287-1.07 1.148-1.391 0.7747-0.09597 0.8652 0.8701 1.395 0.8281 0.4954-0.03949 0.7754-0.9318 2.059-0.6738 0.6711 0.1564 1.101 0.3058 1.318 1.596l0.07813-0.7012c0.02138-0.9559-0.3232-1.266-0.8008-1.666-0.5886-0.4158-1.278-0.5352-2.197-0.5352-0.04922-0.0036-0.1136-0.0063-0.1895-0.0078zm-2.061 4.998c-0.1381 0-0.25 0.1119-0.25 0.25s0.1119 0.25 0.25 0.25 0.25-0.1119 0.25-0.25-0.1119-0.25-0.25-0.25zm4.5 0c-0.1381 0-0.25 0.1119-0.25 0.25s0.1119 0.25 0.25 0.25 0.25-0.1119 0.25-0.25-0.1119-0.25-0.25-0.25zm-3.75 2h3c0.2761 0 0.5 0.2239 0.5 0.5s-0.2239 0.5-0.5 0.5h-3c-0.2761 0-0.5-0.2239-0.5-0.5s0.2239-0.5 0.5-0.5zm-1.5 3c-0.5562 0-1 0.4622-1 1 0 0.554 0.446 1 1 1h6c0.554 0 1-0.446 1-1 0-0.5378-0.4438-1-1-1z" fill="currentColor"/>
</svg>
