<svg width="16" height="16" version="1.1" xmlns="http://www.w3.org/2000/svg">
  <defs>
    <style id="current-color-scheme" type="text/css">.ColorScheme-Text { color:#ebdbb2; } .ColorScheme-Highlight { color:#458588; }</style>
  </defs>
  <path class="ColorScheme-Text" d="m3.872 1c-1.337 0.1228-2.216 7.129-2.238 11.17 0.05107 1.735 1.48 2.833 3.108 2.83 2.253-0.01285 4.26 8.07e-4 6.517 0 1.627 0.0029 3.057-1.096 3.108-2.83-0.02243-4.044-0.9023-11.06-2.24-11.17-0.7231 0.1526-1.453 1.755-1.604 2.573-1.724-0.1845-3.45-0.1631-5.046 0-0.1508-0.8168-0.8792-2.418-1.602-2.573zm2.143 4.721c0.5156 0 0.9317 0.415 0.9317 0.928 0 0.5129-0.4162 0.9299-0.9317 0.9299-0.5156 0-0.9336-0.4169-0.9336-0.9299 0-0.5129 0.4181-0.928 0.9336-0.928zm3.973 0c0.5156 0 0.9336 0.415 0.9336 0.928 0 0.5129-0.4181 0.9299-0.9336 0.9299-0.5156 0-0.9336-0.4169-0.9336-0.9299 0-0.5129 0.4181-0.928 0.9336-0.928zm-3.908 0.4199c-0.1752 0.00903-0.3165 0.1572-0.3165 0.3379 0 0.1865 0.1489 0.3379 0.3321 0.3379s0.3321-0.1514 0.3321-0.3379-0.1489-0.3379-0.3321-0.3379c-0.00574 0-0.00998-2.919e-4 -0.01561 0zm3.829 0c-0.1832 0-0.3321 0.1514-0.3321 0.3379s0.1489 0.3379 0.3321 0.3379 0.3321-0.1514 0.3321-0.3379c0-0.1807-0.1412-0.3289-0.3165-0.3379-0.00563-2.919e-4 -0.00987 0-0.01561 0zm-1.907 1.109c0.1481 1.8e-6 0.3303 0.0852 0.3125 0.1738-0.01024 0.09741-0.2257 0.1951-0.2305 0.1992 0 0-0.00502 0.07401 0.02733 0.2227 0.05318 0.1415 0.1363 0.3639 0.4687 0.3692 0.3648-0.01108 0.3333-0.2493 0.3321-0.3711 0.00533-0.02219 0.01542-0.04528 0.06055-0.04687 0.03602-0.00128 0.05624 0.01614 0.06445 0.04884 0.02986 0.2211-0.06456 0.4857-0.4611 0.4865-0.4135 7.993e-4 -0.5178-0.2637-0.5723-0.3848-0.05451 0.1211-0.1608 0.3855-0.5742 0.3848-0.3965-7.666e-4 -0.491-0.2653-0.4611-0.4865 0.00805-0.03281 0.03039-0.05012 0.06641-0.04884 0.04528 0.00158 0.0553 0.02476 0.06055 0.04687-0.00126 0.1218-0.0347 0.3601 0.3301 0.3711 0.3325-0.005329 0.4158-0.2277 0.4687-0.3692 0.03262-0.1487 0.02929-0.2227 0.02929-0.2227-0.1366-0.04392-0.2298-0.1639-0.2364-0.1992-0.01777-0.08864 0.1664-0.1738 0.3145-0.1738zm-1.867 2.211c0.4933 0.3999 0.9896 0.801 1.482 1.199 0.08263 0.07001 0.07824 0.254 0 0.3184-0.4925 0.4105-1.006 0.804-1.502 1.213-0.06275 0.0514-0.1716 0.0206-0.2442-0.06837-0.07242-0.08898-0.08036-0.2025-0.01758-0.2539l1.287-1.055-1.268-1.033c-0.06293-0.05129-0.05519-0.1651 0.01758-0.2539 0.0824-0.1006 0.1892-0.1118 0.2442-0.06641zm2.039 2.967c0.6603-1.03e-4 1.32-3.1e-5 1.981 0 0.08135 0 0.1465 0.06512 0.1465 0.1465v0.1211c0 0.08135-0.06512 0.1484-0.1465 0.1484h-1.957c-0.08134 0-0.1465-0.06709-0.1465-0.1484v-0.1211c0-0.0739 0.05224-0.1359 0.1231-0.1465z" fill="currentColor"/>
</svg>
