<svg width="16" height="16" version="1.1" xmlns="http://www.w3.org/2000/svg">
  <defs>
    <style id="current-color-scheme" type="text/css">.ColorScheme-Text { color:#ebdbb2; } .ColorScheme-Highlight { color:#458588; }</style>
  </defs>
  <path class="ColorScheme-Text" d="m3.9268 5.4695-1.0386 1.5376v-1.5355l-0.90622 0.085528 6.98e-4 3.5295 0.90552-0.18261v-1.4451l1.0883 1.6236 0.90232-0.36326-1.1773-1.5175 1.1716-1.5533zm1.5711 0.1381c-0.17658 0.0048181-0.28962 0.15506-0.31459 0.32112-0.070487 0.58988-0.18643 1.1739-0.22614 1.7672-0.036071 0.55956 0.061375 1.2765 0.80316 1.2561 0.39897-0.01095 0.75552-0.34462 0.92777-0.53586 0.00131 0.27103 0.16895 0.59674 0.43614 0.5894 0.50028-0.013724 0.99675-0.59971 1.1015-0.78564 0.065207 0.2681 0.30995 0.42772 0.49455 0.42265 0.34107-0.0093442 0.64693-0.19551 0.89871-0.43002 0.18358-0.17137 0.30515-0.29007 0.42613-0.43322 1.42e-4 2.847e-4 3.56e-4 7.125e-4 5.69e-4 9.753e-4 0.05604 0.099164 0.2929 0.42814 0.35395 0.54837 0.07101 0.12636-0.03494 0.22555-0.07496 0.25687-0.14585 0.11233-0.4566 0.19069-0.63696 0.35409-0.26641 0.25023-0.02886 0.5444 0.38413 0.35951 0.32467-0.14279 1.5415-1.2004 1.9162-1.6898 6.41e-4 -8.044e-4 0.0012-0.0016 0.0018-0.00234 1e-3 0.00138 0.0018 0.00262 0.0027 0.00408 0.19235 0.23376 0.38207 0.26488 0.55018 0.43239 0.11788 0.10314 0.10118 0.22647 0.03185 0.35367-0.10583 0.17687-0.32521 0.23517-0.53196 0.3933-0.4334 0.32794 0.03543 0.59742 0.37119 0.36646 0.27325-0.18726 0.47634-0.45589 0.68953-0.70581 0.13337-0.14876 0.46696-0.47315 0.57883-0.60401-0.02893 0.16554-0.03309 0.24215-0.03129 0.30791 0.0065 0.24167 0.24198 0.52937 0.64336 0.51833 0.33684-0.0092 0.8052-0.40757 0.87325-0.46702-0.1391 0.40806-0.27783 0.81598-0.42488 1.2212-0.25492 0.68711 0.359 0.70725 0.46674 0.21974 0.12527-0.46217 0.2544-0.92326 0.3851-1.3839 0.16647-0.64963 0.37395-1.0868 0.40555-1.3625v-0.00438c-0.0051-0.18606-0.03809-0.24226-0.11794-0.26272-0.16476-0.04453-0.26863 0.039786-0.33281 0.14437-0.06106 0.10204-0.2009 0.72896-0.29526 0.86533-0.11546 0.16829-0.65468 0.55856-0.90149 0.56534-0.24438 0.00686-0.19852-0.2497-0.17231-0.3851 0.08654-0.44714 0.26111-0.639 0.28955-0.82986-9e-3 -0.32804-0.2893-0.25001-0.36452-0.20041-0.07402 0.050516-0.1354 0.1548-0.15924 0.19902-0.0019 0.00176-0.0036 0.00292-0.0055 0.00468-0.25776 0.25056-0.40733 0.51324-0.89189 0.91498-0.0083-0.032266-0.03068-0.064796-0.06703-0.097778-0.10008-0.094712-0.38257-0.26064-0.58662-0.47133-0.06666-0.071686-0.05778-0.090346-0.02572-0.1299 0.10882-0.11949 0.22864-0.22925 0.3043-0.37397 0.08391-0.17282-0.1029-0.4617-0.41138-0.21682-0.17499 0.13892-0.34504 0.41684-0.36493 0.63655-2.83e-4 3.562e-4 -4.98e-4 4.994e-4 -8.33e-4 8.338e-4 -0.30114 0.33598-0.93168 0.83471-1.0476 0.89273-0.22357-0.36742-0.06758-0.099485-0.373-0.59677-0.04641-0.077001-0.07163-0.162-0.07566-0.25493 0.04822-0.055598 0.22239-0.20212 0.29971-0.29832 0.22172-0.27589 4.3e-5 -0.56019-0.32085-0.38774-0.05383 0.03342-0.411 0.273-0.43266 0.76102-0.085066 0.076589-0.10931 0.11331-0.12749 0.12919-0.30857 0.3371-0.67079 0.69517-1.0141 0.66353-0.47111-0.088462-0.1629-0.7669-0.15757-1.0589-0.0034894-0.12619-0.071892-0.4079-0.61555-0.39289-0.27576 0.0075921-0.78049 0.35034-1.0814 0.87659-0.035553 0.022922-0.062064 0.055364-0.088313 0.087893-0.086692 0.12628-0.18547 0.24326-0.2915 0.35367-0.2409 0.2411-0.52046 0.45519-0.75824 0.46173-0.35443 0.009782-0.38912-0.44079-0.35589-0.94071 0.033538-0.56621 0.17213-1.1175 0.2641-1.6752l0.020861-0.12683c-0.052978-0.10045-0.13404-0.14931-0.24324-0.14631zm-4.5604 0.70205c-0.0229-0.00176-0.045382 7e-3 -0.061332 0.023506l-0.3826 0.38426c-0.035297 0.035304-0.028311 0.086184 2.777e-4 0.12766l0.39748 0.62167c-0.031564 0.064051-0.059012 0.13-0.081916 0.19763l-0.7193 0.16133c-0.049416 0.011096-0.090363 0.040603-0.090121 0.090535l0.00111 0.54198c1.425e-4 0.050064 0.041664 0.079367 0.090539 0.090127l0.72041 0.15868c0.022455 0.066884 0.049178 0.13226 0.080108 0.19568l-0.39567 0.62459c-0.026775 0.042238-0.035156 0.092346 2.777e-4 0.12768l0.38399 0.38273c0.035292 0.0353 0.092488 0.03514 0.12767-2.84e-4l0.62306-0.39859c0.064582 0.032018 0.13129 0.059744 0.19957 0.082886l0.16119 0.7193c0.010422 0.0492 0.040594 0.08976 0.090538 0.08956h0.54198c0.050025-1.42e-4 0.079371-0.04208 0.09012-0.09096l0.15869-0.72041c0.067865-0.02282 0.13417-0.050122 0.19846-0.081644l0.62181 0.39428c0.043507 0.02635 0.092513 0.03519 0.12767-2.85e-4l0.38274-0.38426c0.035294-0.035464 0.026684-0.085644-2.778e-4 -0.12781l-0.16995-0.26563-0.12614 0.050619-0.40596-0.60595c-0.20298 0.45392-0.65322 0.74669-1.1504 0.74823-0.69835 0.00146-1.2656-0.56348-1.2671-1.2618-4.343e-4 -0.48785 0.27979-0.93249 0.72013-1.1425l-8.344e-4 -0.38872c-0.060742 0.020952-0.12017 0.045362-0.17802 0.073292l-0.62167-0.39412c-0.021156-0.013432-0.04424-0.022105-0.066477-0.023083zm7.1063 0.80358c0.087508-0.0073 0.14213 0.041844 0.14241 0.14867 0.00587 0.23048-0.08206 0.44217-0.18622 0.64294-0.16366 0.30413-0.53199 0.64603-0.76394 0.6524-0.15156 0.0042341-0.11615-0.31029 0.054518-0.67048 0.089302-0.18847 0.19681-0.36274 0.29734-0.46896 0.17643-0.19274 0.34338-0.29524 0.45589-0.30458z" fill="currentColor"/>
</svg>
