<svg width="16" height="16" version="1.1" xmlns="http://www.w3.org/2000/svg">
  <defs>
    <style id="current-color-scheme" type="text/css">.ColorScheme-Text { color:#ebdbb2; } .ColorScheme-Highlight { color:#458588; }</style>
  </defs>
  <path class="ColorScheme-Text" d="m10 1c-2.002 0.003722-3.808 1.201-4.592 3.043 0.1964-0.02407 0.3939-0.03841 0.5918-0.04297 0.5406 5.181e-4 1.079 0.0741 1.6 0.2188 0.5627-0.7626 1.453-1.214 2.4-1.219h3v3c-0.00429 0.9477-0.4562 1.838-1.219 2.4 0.1446 0.5209 0.2182 1.059 0.2188 1.6-0.0046 0.1979-0.0189 0.3954-0.04297 0.5918 1.842-0.7835 3.039-2.59 3.043-4.592v-4.318c0-0.3771-0.3346-0.6816-0.75-0.6816h-4.25zm-4 4a5 5 0 0 0-5 5v4.318c0 0.3771 0.3346 0.6816 0.75 0.6816h4.25a5 5 0 0 0 5-5 5 5 0 0 0-5-5zm0 2a3 3 0 0 1 3 3 3 3 0 0 1-3 3h-3v-3a3 3 0 0 1 3-3z" fill="currentColor"/>
</svg>
