<svg width="16" height="16" version="1.1" xmlns="http://www.w3.org/2000/svg">
  <defs>
    <style type="text/css" id="current-color-scheme">.ColorScheme-Text { color:#ebdbb2; } .ColorScheme-Highlight { color:#458588; }</style>
  </defs>
  <path class="ColorScheme-Text" fill="currentColor" d="m8 3a7 7 0 0 0-6.93 6h-0.4727c-0.3316 0-0.5977 0.2661-0.5977 0.5977v2.805c0 0.3316 0.2661 0.5977 0.5977 0.5977h0.9023v-1.5c0-0.277 0.223-0.5 0.5-0.5s0.5 0.223 0.5 0.5v1.5h2v-1.5c0-0.277 0.223-0.5 0.5-0.5s0.5 0.223 0.5 0.5v1.5h2v-1.5c0-0.277 0.223-0.5 0.5-0.5s0.5 0.223 0.5 0.5v1.5h2v-1.5c0-0.277 0.223-0.5 0.5-0.5s0.5 0.223 0.5 0.5v1.5h2v-1.5c0-0.277 0.223-0.5 0.5-0.5s0.5 0.223 0.5 0.5v1.5h0.9023c0.3316 0 0.5977-0.2661 0.5977-0.5977v-2.805c0-0.3316-0.2661-0.5977-0.5977-0.5977h-0.4746a7 7 0 0 0-6.928-6zm0 3a4 4 0 0 1 3.871 3h-7.729a4 4 0 0 1 3.857-3z"/>
</svg>
