<svg width="16" height="16" version="1.1" xmlns="http://www.w3.org/2000/svg">
  <defs>
    <style type="text/css" id="current-color-scheme">.ColorScheme-Text { color:#ebdbb2; } .ColorScheme-Highlight { color:#458588; }</style>
  </defs>
  <path class="ColorScheme-Text" fill="currentColor" d="m8.003 2.237c-1.704 0-3.711 0.802-4.913 2.771-0.427 0.781-0.671 1.691-0.671 2.692 0 1.18 0.398 2.074 0.411 2.081 0.592 0.963 3.118 0.939 5.943-0.62 2.885-1.577 4.064-3.696 3.512-4.593-0.3095-0.4642-1.704-2.314-4.282-2.331zm3.202 0.22c-0.059 7e-3 -0.12 0.011-0.181 0.02 1.245 0.7945 2.306 1.893 1.952 3.232-0.356 1.34-1.884 2.914-3.893 4.012-1.637 0.903-3.25 1.361-4.522 1.361-2.297 0-2.684-1.253-2.772-3.612-1.656 1.811-2.21 3.574-1.461 4.822 0.553 0.917 1.737 1.371 3.262 1.371 0.8607 0 3.359-0.179 6.624-1.991 0.7753-0.4394 4.868-2.882 5.673-5.913 0.6118-2.342-1.359-3.777-4.682-3.302zm2.041 7.894c-0.849 0.708-1.76 1.338-2.722 1.882-1.114 0.618-2.266 1.11-3.382 1.46 2.188 0.3419 4.919-0.6675 6.104-3.342z"/>
</svg>
