<svg width="16" height="16" version="1.1" xmlns="http://www.w3.org/2000/svg">
  <defs>
    <style type="text/css" id="current-color-scheme">.ColorScheme-Text { color:#ebdbb2; } .ColorScheme-Highlight { color:#458588; }</style>
  </defs>
  <path class="ColorScheme-Text" fill="currentColor" d="m8.025 1.333c-0.4147 0.1659 0.1332 0.6532-0.08508 0.8741-0.1489 0.1275-0.4181 0.07105-0.3613 0.3464-0.3169 0.1678-0.5971 0.4013-0.9362 0.5261-0.1637-0.1286-0.6108-0.2635-0.3975 0.1083 0.3228 0.1727 0.152 0.4633-0.1374 0.5316-0.1981 0.2813 0.3405 0.7461-0.1301 0.9829-0.1504 0.1665 0.2488 0.4048-0.1376 0.4696-0.4108 0.09166-0.2861 0.5103-0.2633 0.7854-0.3265 0.2046-0.2615 0.6983-0.6468 0.8504-0.3513 0.2432-0.1715 0.6172 0.07089 0.8587 0.3273 0.2254 0.2093 0.6973-0.1398 0.8275-0.3421 0.1512-0.5018-0.423-0.8017-0.3652-0.2229 0.1788-0.02856 0.6448-0.4543 0.5592-0.3495 0.02028-0.595 0.4426-0.9221 0.1149-0.4409-0.0401-0.6256-0.4025-0.8188-0.7453-0.1802-0.3239-0.4934-0.5397-0.8579-0.5964-0.381-0.04369-0.7824 0.1598-0.9076 0.5349-0.02804 0.2783-0.2903 0.8383 0.1354 0.8918 0.3597 0.04048 0.4298 0.5267 0.8348 0.5293 0.3749 0.06101 0.5679 0.3938 0.8066 0.6477 0.1748 0.266-0.4585 0.4615-0.1499 0.7945 0.189 0.2159 0.7091 0.3815 0.3104 0.6875 0.02317 0.3241 0.06183 0.6818 0.2848 0.9639 0.3339 0.1664 0.7185 0.2821 0.7401 0.731 0.1815 0.3212 0.6688 0.1027 0.7852 0.5083 0.2833 0.2425 0.6773 0.3051 0.8862 0.6597 0.1921 0.3667 0.6163 0.2418 0.947 0.2228 0.3331 0.1108 0.7144-0.3422 0.3157-0.5247-0.2289-0.07063-0.7393 0.07642-0.83-0.1477 0.183-0.2537 0.6267 0.2347 0.567-0.1963 0.1027-0.3206 0.5169-0.5853 0.8701-0.501 0.4931 0.01253 0.02643-0.6159 0.4711-0.751 0.3159 0.01341 0.5541 0.3476 0.9199 0.2409 0.3338-0.06997 0.6492 0.02511 0.9618 0.1319 0.3969 0.01824 0.4375 0.5168 0.8089 0.6098 0.3137 0.2289 0.6727 0.04086 0.9894-0.05946 0.1808-0.1375 0.1853-0.392 0.4619-0.3773 0.3758 0.02354 0.2825-0.5925 0.7068-0.5083 0.3655 0.2235 0.6927-0.1725 1.046-0.1772 0.2411 0.1901 0.697 0.4035 0.7019-0.09096-0.1435-0.1816-0.5564-0.3986-0.1646-0.5993 0.3685-0.1246 0.7488-0.222 1.07-0.457 0.348-0.1179 0.7935-0.1867 0.8461-0.6423 0.1346-0.3937 0.02468-0.8414 0.2526-1.206 0.2506-0.4686 0.2926-1.016 0.254-1.536 4e-3 -0.4902 0.1561-0.9957 0.0105-1.476-0.2512-0.3187-0.2167-0.7526-0.458-1.081-0.1325-0.3677-0.6002-0.5549-0.616-0.9616-0.01822-0.2832 0.02906-0.8428-0.3987-0.7683-0.3611-0.1511-0.1908 0.5297-0.5494 0.2831-0.1821-0.2589-0.7403-0.471-0.499-0.8522 0.3412-0.32-0.1242-0.8899-0.426-0.5032-0.1439 0.2505-0.5282 0.6514-0.8207 0.3858-0.06049-0.3319-0.2106-0.6709-0.455-0.9001-0.1701-0.354-0.5936-0.2669-0.7727 0.03089-0.2407 0.2381-0.5747-0.1451-0.8556 0.03419-0.2867-0.238-0.5558 0.5056-0.668-0.0198-0.3314-0.1238-0.7261-0.2882-1.09-0.1449-0.1889-0.1065 0.1738-0.3795-0.1246-0.4812-0.0518-0.03568-0.115-0.06045-0.179-0.05372zm2.469 1.782c0.5211-0.01292 1.027 0.1396 1.542 0.2018 0.1992 0.0205 0.4124 0.2386 0.2879 0.3973 0.1295 0.1114 0.09937 0.3292 0.3204 0.3361 0.1156 0.3661-0.2803 0.1344-0.3748 0.3208 0.08993 0.1589-0.2842 0.2577 0.0018 0.3379 0.05272 0.1069 0.3104-0.2184 0.2973 0.085-0.01886 0.351 0.02107 0.7094 0.1737 1.028 0.05552 0.376-0.02436 0.7586-0.06476 1.132-0.2071 0.3015-0.1323 0.7156-0.07739 1.056 0.1006 0.169 0.3305 0.1894 0.1241 0.39 0.1447-0.02786 0.2686 0.2727 0.3872 0.042 0.248-0.1066 0.2972 0.1972 0.5229 0.1225 0.261 0.2999 0.1342 0.7598-0.2319 0.8987-0.3118 0.1713-0.7378 0.2343-0.8764 0.6136-0.1248 0.5348 7.45e-4 1.093-0.07135 1.634-0.06609 0.3823-0.5335 0.3033-0.8201 0.2577-0.2285-0.07211-0.6035 0.1299-0.5886-0.2395-0.07789-0.08353-0.2475 0.2291-0.2579-0.05019-0.1036-0.02256-0.2766 0.3161-0.2089 0.0039 0.08258-0.2019-0.1935-0.2249-0.07175-0.461-0.3107-0.1816 0.03704-0.7226-0.4004-0.8377-0.06881-0.1521-0.1182-0.333-0.2901-0.1463-0.4961-0.05584-1.001-0.02888-1.495-0.1051-0.3748-0.08083-0.7634-0.1207-1.143-0.1768-0.3914 0.04334-0.7123-0.1694-0.8413-0.5306-0.2841-0.1772 0.06358-0.5075-0.04183-0.7474 0.2541-0.1851 0.2792-0.4933 0.2873-0.7354 0.1529-0.2951 0.05994-0.6782 0.4279-0.8735 0.3213-0.2058 0.4511-0.5613 0.575-0.9028 0.2141-0.6838 0.9148-1.024 1.282-1.609 0.185-0.3582 0.4259-0.6805 0.6302-1.029 0.2495-0.2694 0.6415-0.3733 0.9954-0.4134zm-0.456 3.147c-0.3351 0.1897-0.7222 0.4253-0.8027 0.8326-0.2038 0.3218-0.3964 0.6886-0.3343 1.084 0.1697 0.3134 0.6224 0.2583 0.9328 0.2768 0.3503-0.01857 0.7266 0.05843 1.058-0.07839 0.2181-0.2107 0.3548-0.8185-0.04242-0.9044-0.327-0.1622-0.3097-0.6068-0.4886-0.8921-0.08861-0.09968-0.1681-0.3248-0.3232-0.3181z"/>
</svg>
