<svg width="16" height="16" version="1.1" xmlns="http://www.w3.org/2000/svg">
  <defs>
    <style type="text/css" id="current-color-scheme">.ColorScheme-Text { color:#ebdbb2; } .ColorScheme-Highlight { color:#458588; }</style>
  </defs>
  <path class="ColorScheme-Text" fill="currentColor" d="m3 1c-0.554 0-1 0.446-1 1v12c0 0.554 0.446 1 1 1h10c0.554 0 1-0.446 1-1v-6.863l-6.137-6.137zm6.277 0 4.723 4.723v-3.723s-4e-6 -1-1-1zm-6.277 1h4.449l5.551 5.551v6.449h-10zm1 6v5h8v-5zm1 1h2.51v1h-2.51zm3.488 0h2.512v1h-2.512zm-3.488 2h2.51v1h-2.51zm3.488 0h2.512v1h-2.512z"/>
</svg>
