<svg width="16" height="16" enable-background="new" version="1.1" xmlns="http://www.w3.org/2000/svg">
  <path d="m3 1c-0.554 0-1 0.446-1 1v12c0 0.554 0.446 1 1 1h10c0.554 0 1-0.446 1-1v-6c0-1-3e-6 -0.8633-1-1.863l-4.137-4.137c-0.8626-0.8626-0.8633-1-1.863-1zm7.4 0.00195c-0.3493-2.881e-4 -0.538 0.4295-0.2832 0.6836l3.199 3.199c0.2521 0.2533 0.6845 0.07416 0.6836-0.2832v-2.602s-2e-6 -1-1-1zm-7.4 0.998h4.449l5.551 5.551v6.449h-10z" enable-background="new" fill="#ebdbb2" fill-rule="evenodd" stroke-linecap="round" stroke-width=".023" style="paint-order:markers fill stroke"/>
</svg>
