<svg width="16" height="16" version="1.1" xmlns="http://www.w3.org/2000/svg">
  <defs>
    <style id="current-color-scheme" type="text/css">.ColorScheme-Text { color:#ebdbb2; } .ColorScheme-Highlight { color:#458588; }</style>
  </defs>
  <path class="ColorScheme-Text" d="m1 1v14h14v-14zm3.818 1.273h0.6364v11.45h-0.6364zm4.589 0.05717c0.3642-0.00626 0.7996 0.06167 1.148 0.3928 0.3987 0.3784 0.6264 1.032 0.6264 2.096h-0.6364c0-0.9724-0.2099-1.427-0.4276-1.633-0.2177-0.2066-0.5014-0.2356-0.8203-0.2138-0.5338 0.03658-1.296 0.625-1.298 1.832v0.00248c-0.00403 0.5056 0.1446 0.8505 0.3853 1.211 0.2376 0.3554 0.5752 0.7148 0.9098 1.171 0.0033 4e-3 0.0066 0.00845 0.0099 0.01244l0.0025 0.00248c0.5556 0.6726 1.214 1.317 1.728 2.053 0.517 0.7413 0.8831 1.599 0.7805 2.632v0.0125c-0.137 0.9779-0.8538 1.463-1.472 1.643-0.6036 0.1758-1.136 0.1195-1.161 0.1168-0.6132-0.002443-1.1-0.3577-1.392-0.8303-0.2929-0.4742-0.4275-1.065-0.4275-1.648h0.6364c0 0.4814 0.1196 0.9709 0.3306 1.312 0.211 0.3416 0.4749 0.532 0.8576 0.532h0.0174l0.01492 0.0025s0.4666 0.04481 0.9446-0.09446c0.4769-0.139 0.9141-0.3992 1.017-1.119 0.08125-0.8499-0.2023-1.529-0.6687-2.197-0.4684-0.6717-1.12-1.312-1.708-2.026l-0.00746-0.00746-0.00498-0.00746c-0.3088-0.4234-0.6534-0.7836-0.9371-1.208-0.2837-0.4245-0.4973-0.9272-0.4922-1.569 0.00265-1.477 0.9585-2.399 1.892-2.463 0.04864-0.00333 0.09961-0.00657 0.1516-0.00746z" fill="currentColor"/>
</svg>
