<svg width="16" height="16" version="1.1" xmlns="http://www.w3.org/2000/svg">
  <defs>
    <style id="current-color-scheme" type="text/css">.ColorScheme-Text { color:#ebdbb2; } .ColorScheme-Highlight { color:#458588; }</style>
  </defs>
  <path class="ColorScheme-Text" d="m3.828 1.002c-1.007 0-1.826 0.8192-1.826 1.826 0.0085 3.557-0.01376 7.115 0.0039 10.67 0 0.8307 0.6673 1.498 1.498 1.498h10.5v-0.998l-10-2e-3c-0.554 0-1-0.446-1-1 0-0.554 0.446-1 1-1h10v-11zm4.174 0.998c1.381 0 2.5 1.119 2.5 2.5-0.0017 0.9925-0.5903 1.89-1.5 2.287v2.213h1v1h-1v1h-2v-4.213c-0.9097-0.397-1.498-1.295-1.5-2.287 0-1.381 1.119-2.5 2.5-2.5zm0 1.5c-0.5523 0-1 0.4477-1 1s0.4477 1 1 1 1-0.4477 1-1-0.4477-1-1-1z" fill="currentColor"/>
</svg>
