<svg width="16" height="16" version="1.1" xmlns="http://www.w3.org/2000/svg">
 <defs>
  <style type="text/css">.ColorScheme-Text { color:#ebdbb2; } .ColorScheme-Highlight { color:#458588; }</style>
 </defs>
 <path d="m7.373 14.966c-0.397-0.03494-1.2429-0.19613-1.2936-0.24646-0.054106-0.05386 0.08011-0.34394 0.23099-0.49932 0.07711-0.07938 0.20966-0.18036 0.29454-0.22436 0.15071-0.0781 0.1834-0.08003 1.3951-0.08077l1.2408-8.4e-4 0.19348 0.10552c0.10678 0.0582 0.24694 0.17551 0.3128 0.2617 0.13362 0.17489 0.21894 0.39301 0.17197 0.4397-0.052298 0.052-0.90716 0.21041-1.3436 0.24899-0.46893 0.04142-0.69315 0.04068-1.2026-0.0045zm-3.0594-1.019c-0.92084-0.5767-1.6983-1.3523-2.2629-2.2574-0.094844-0.15207-0.16341-0.30001-0.15236-0.32878 0.01104-0.02872 0.11278-0.07919 0.2261-0.11214 0.43075-0.12513 0.85085 0.01 1.152 0.37055 0.095301 0.11409 0.33526 0.36931 0.53325 0.56716 0.19798 0.19784 0.45338 0.43764 0.56755 0.53288 0.29896 0.24936 0.40244 0.4635 0.40242 0.83257-1.4e-5 0.21031-0.01914 0.32921-0.07123 0.44274l-0.07121 0.1552zm6.9675 0.02714c-0.0403-0.09035-0.05978-0.22947-0.05918-0.42229 0.0013-0.371 0.10441-0.58525 0.40089-0.83257 0.11417-0.09524 0.36957-0.33503 0.56755-0.53288 0.19798-0.19784 0.43794-0.45306 0.53325-0.56716 0.24365-0.29169 0.46447-0.40066 0.81516-0.40228 0.17882-8.4e-4 0.3278 0.02114 0.44195 0.06513l0.1722 0.06642-0.09683 0.16722c-0.35051 0.60536-0.89606 1.2684-1.426 1.7332-0.34251 0.30041-1.1481 0.85994-1.238 0.85994-0.02796 0-0.07786-0.06068-0.11097-0.13477zm-3.7305-2.2423c-1.2897-0.16281-2.3663-0.93285-2.9327-2.0975-0.58673-1.2063-0.48623-2.6177 0.26695-3.749 0.73971-1.111 2.1671-1.7778 3.4791-1.6254 0.4743 0.055101 0.84678 0.15533 1.2119 0.32611 0.81124 0.37937 1.4161 0.97441 1.8068 1.7777 0.58673 1.2063 0.48623 2.6177-0.26696 3.749-0.59015 0.88633-1.6137 1.4976-2.7198 1.6245-0.35004 0.04008-0.49286 0.03923-0.8452-0.0056zm-6.2906-1.8224c-0.010314-0.01669-0.059874-0.23324-0.11012-0.48122-0.13707-0.67647-0.17948-1.2997-0.12999-1.9104 0.04147-0.51165 0.19504-1.3783 0.2549-1.4384 0.05385-0.05407 0.34418 0.080051 0.49966 0.23083 0.079461 0.07706 0.1805 0.20951 0.22452 0.29434 0.078179 0.15061 0.08007 0.18327 0.080861 1.3941l8.406e-4 1.2399-0.10451 0.19134c-0.1118 0.20466-0.29253 0.3697-0.49948 0.45612-0.14644 0.061127-0.19022 0.0658-0.21666 0.02307zm13.228-0.038182c-0.1836-0.083332-0.38494-0.28146-0.48829-0.48054-0.07656-0.14752-0.07886-0.1867-0.0796-1.3917l-8.41e-4 -1.2399 0.1056-0.19334c0.05825-0.10671 0.17563-0.24677 0.26189-0.31258 0.17501-0.13353 0.39328-0.21878 0.44-0.17186 0.05649 0.056691 0.21416 0.93372 0.2545 1.4154 0.04855 0.58001 9.31e-4 1.2764-0.13247 1.9366-0.0496 0.24523-0.09856 0.45952-0.10887 0.47621-0.02796 0.045244-0.08831 0.036055-0.25193-0.038201zm-12.369-5.1191c-0.29518-0.096815-0.29279-0.081593-0.0689-0.43905 0.57426-0.91684 1.3523-1.6955 2.2575-2.2593 0.15217-0.094781 0.30023-0.1633 0.32901-0.15226 0.028774 0.01103 0.07928 0.11271 0.11222 0.22594 0.12522 0.43045-0.01 0.85027-0.3708 1.1512-0.11417 0.095238-0.36957 0.33503-0.56755 0.53289-0.19798 0.19784-0.43794 0.45306-0.53325 0.56715-0.2231 0.26708-0.46076 0.39171-0.77919 0.40862-0.13239 0.0070001-0.29676-0.0082139-0.37905-0.035224zm11.186 0.014392c-0.21324-0.052108-0.41145-0.18434-0.58156-0.388-0.22282-0.26675-0.83356-0.87707-1.1006-1.0999-0.29189-0.24349-0.40094-0.46414-0.40257-0.8146-8.41e-4 -0.17869 0.02115-0.32757 0.06517-0.44164l0.06644-0.17208 0.16734 0.09676c0.60578 0.35026 1.2693 0.89546 1.7344 1.425 0.33139 0.37731 0.8684 1.1622 0.85271 1.2463-0.02327 0.12507-0.51997 0.21683-0.8014 0.14806zm-6.5831-2.7185c-0.19384-0.066594-0.36757-0.19162-0.48162-0.3466-0.12568-0.17077-0.2042-0.38018-0.15931-0.42484 0.05673-0.056411 0.93445-0.21402 1.4164-0.25433 0.35261-0.029493 0.60828-0.029176 0.98401 0.0012 0.512 0.04144 1.3792 0.1949 1.4394 0.25473 0.054078 0.05382-0.080123 0.34394-0.231 0.49931-0.077113 0.079411-0.20965 0.18015-0.29454 0.22389-0.1498 0.077191-0.18963 0.079611-1.3562 0.082806-0.7885 0.0021-1.2415-0.010301-1.317-0.036221z" fill="#ebdbb2" stroke-width=".035954" style="isolation:isolate"/>
</svg>
