<svg width="16" height="16" version="1.1" xmlns="http://www.w3.org/2000/svg">
  <defs>
    <style id="current-color-scheme" type="text/css">.ColorScheme-Text { color:#ebdbb2; } .ColorScheme-Highlight { color:#458588; }</style>
  </defs>
  <path class="ColorScheme-Text" d="m8 1c-0.554 0-1 0.446-1 1v12c0 0.554 0.446 1 1 1s1-0.446 1-1v-12c0-0.554-0.446-1-1-1zm3 1c-0.554 0-1 0.446-1 1v10c0 0.554 0.446 1 1 1s1-0.446 1-1v-10c0-0.554-0.446-1-1-1zm-9 1c-0.554 0-1 0.446-1 1v8c0 0.554 0.446 1 1 1s1-0.446 1-1v-8c0-0.554-0.446-1-1-1zm12 0c-0.554 0-1 0.446-1 1v8c0 0.554 0.446 1 1 1s1-0.446 1-1v-8c0-0.554-0.446-1-1-1zm-9 1c-0.554 0-1 0.446-1 1v6c0 0.554 0.446 1 1 1s1-0.446 1-1v-6c0-0.554-0.446-1-1-1z" fill="currentColor"/>
</svg>
