<svg width="16" height="16" version="1.1" xmlns="http://www.w3.org/2000/svg">
  <defs>
    <style id="current-color-scheme" type="text/css">.ColorScheme-Text { color:#ebdbb2; } .ColorScheme-Highlight { color:#458588; }</style>
  </defs>
  <path class="ColorScheme-Text" d="m13.84 11.71v2.537c-1.553 0.5041-3.041 0.7561-4.463 0.7561-2.236 0-3.996-0.6423-5.28-1.927-1.285-1.276-1.927-3.024-1.927-5.244 0-2.073 0.561-3.728 1.683-4.963 1.114-1.244 2.602-1.866 4.463-1.866 2.163 1.86e-5 3.671 0.7927 4.524 2.378 0.6423 1.195 0.9756 2.976 1 5.341h-7.866c0.1057 0.7805 0.248 1.37 0.4268 1.768 0.6341 1.374 1.829 2.061 3.585 2.061 1.106 0 2.39-0.2805 3.854-0.8415m-7.902-5.024h4.354c-0.02444-1.065-0.1505-1.854-0.3781-2.366-0.3252-0.7073-0.8496-1.061-1.573-1.061-0.813 1.86e-5 -1.431 0.4187-1.854 1.256-0.2439 0.4878-0.4268 1.211-0.5488 2.171" fill="currentColor"/>
</svg>
