<svg width="16" height="16" version="1.1" xmlns="http://www.w3.org/2000/svg">
  <defs>
    <style id="current-color-scheme" type="text/css">.ColorScheme-Text { color:#ebdbb2; } .ColorScheme-Highlight { color:#458588; }</style>
  </defs>
  <path class="ColorScheme-Text" d="m5 0.9965v2h6v-2zm0 3c-1 0-1 1-1 1v9c0 1 1 1 1 1h6s0.06255 0.0156 0.1562 0c0.2812-0.0469 0.8438-0.25 0.8438-1v-9s-1e-6 -1-1-1zm4.246 2.5c0.9605 2.538e-4 1.75 0.7895 1.75 1.75 0 0.2761-0.2239 0.5-0.5 0.5s-0.5-0.2239-0.5-0.5c7e-5 -0.4201-0.3299-0.7499-0.75-0.75-0.4201-1.11e-4 -0.7498 0.3299-0.75 0.75v1.25h0.75c0.2761 0 0.5 0.2239 0.5 0.5 0 0.2761-0.2239 0.5-0.5 0.5h-0.75v0.75c0 0.9606-0.7894 1.75-1.75 1.75s-1.75-0.7894-1.75-1.75 0.7894-1.75 1.75-1.75h0.25v1h-0.25c-0.4201 0-0.75 0.3299-0.75 0.75s0.3299 0.75 0.75 0.75c0.4201 0 0.75-0.3299 0.75-0.75v-3c3.49e-4 -0.9605 0.7895-1.75 1.75-1.75z" fill="currentColor"/>
</svg>
