<svg width="16" height="16" version="1.1" xmlns="http://www.w3.org/2000/svg">
  <defs>
    <style id="current-color-scheme" type="text/css">.ColorScheme-Text { color:#ebdbb2; } .ColorScheme-Highlight { color:#458588; }</style>
  </defs>
  <path class="ColorScheme-Text" d="m2.667 2.658-0.2735 4.381c0.01534 0.1071-0.0229 0.2077-0.1459 0.4037-0.327 0.5742-0.3977 1.233-0.5053 1.873l-0.6642-0.01563c-1.031-0.02224-1.037-0.01585-1.037 0.3698 0 0.1304-0.01249 0.361-0.02865 0.5105-0.02714 0.2516-0.01978 0.2806 0.09116 0.3881 0.1143 0.1107 0.1441 0.1146 0.6251 0.1146 0.7697 0 1.498 0.05349 1.479 0.1068-0.02236 0.06502-1.863 0.6272-1.961 0.7058-0.1797 0.1445 0.2844 1.396 0.435 1.396 0.09818 0 2.329-0.7631 2.49-0.7631 0.06068 0 0.2023 0.07844 0.3204 0.1771 0.216 0.1811 4.97 2.215 8.994 0.03644 0.2313-0.1706 0.4615-0.1689 0.5105-0.1693 0.1904-0.0013 2.271 0.7796 2.417 0.6928 0.08907-0.05306 0.5285-1.206 0.3803-1.349-0.03881-0.03757-0.4612-0.2095-0.9481-0.3542-1.395-0.4146-1.427-0.414-0.237-0.448 0.2878-0.01606 0.5115-0.0283 0.6772-0.02865 0.4217-9.81e-4 0.6457-0.04552 0.6954-0.1354 0.03049-0.05502 0.04039-1.083-0.1199-1.201-0.07138-0.05229-0.2368-0.06184-0.8491-0.04949l-0.6173 0.01563c-0.05327-0.683-0.2792-1.309-0.5417-1.93l-0.1979-0.2969-0.3204-4.412c-0.2454 0.01507-0.6357 0.04972-0.9611 0.2396-0.4601 0.2674-0.8777 0.7516-2.052 1.511l-0.771 0.4975c-1.495-0.1275-1.808-0.1285-2.987 0.002604l-0.6772-0.4324c-1.342-1.278-2.726-1.836-3.219-1.836zm2.667 4.001c0.7365 0 1.334 0.597 1.334 1.334 0 0.7365-0.597 1.334-1.334 1.334-0.7365 1e-7 -1.334-0.597-1.334-1.334 1e-7 -0.7365 0.597-1.334 1.334-1.334zm5.334 0c0.7365-2e-7 1.334 0.597 1.334 1.334 0 0.7365-0.597 1.334-1.334 1.334-0.7365 2e-7 -1.334-0.597-1.334-1.334 1e-7 -0.7365 0.597-1.334 1.334-1.334z" fill="currentColor"/>
</svg>
