<svg width="16" height="16" version="1.1" xmlns="http://www.w3.org/2000/svg">
  <defs>
    <style id="current-color-scheme" type="text/css">.ColorScheme-Text { color:#ebdbb2; } .ColorScheme-Highlight { color:#458588; }</style>
  </defs>
  <path class="ColorScheme-Text" d="m8.7405 1.0003c-0.82572-0.0056-1.6377 0.2038-2.3574 0.60938l-2e-3 2e-3c-0.72013 0.40616-1.3194 0.99315-1.7422 1.7031-0.50256 0.78435 0.70999 1.506 1.1621 0.69141 0.61474-1.0315 1.7289-1.6602 2.9297-1.6523 1.2009 0.0068 2.308 0.6498 2.9082 1.6895 0.0013 0.0013 0.0025 0.0027 0.0039 0.0039 7.14e-4 0.0022 0.0012 0.0037 0.0019 0.0059l0.33789 0.58594c0.45026 0.77988 1.6241 0.10215 1.1738-0.67773l-0.33789-0.58398c-2e-3 -0.0035-0.0038-0.0083-0.0059-0.01172-0.84104-1.455-2.3909-2.354-4.0722-2.3653zm-0.10547 2.0352c-0.43691 0.01054-0.87671 0.12694-1.2793 0.35938-1.0007 0.57774-1.4942 1.7117-1.3164 2.793 0.43338 0.16736 0.82715 0.45007 1.127 0.8418 0.23665 0.30922 0.37276 0.62048 0.46875 0.90039 0.29033-0.17047 0.46803-0.53213 0.24414-0.91992l-0.33789-0.58594c-0.0013-0.0023-0.0026-0.0055-0.0039-0.0078-0.37781-0.6544-0.15889-1.4715 0.49609-1.8496 0.6544-0.37782 1.4717-0.15842 1.8496 0.49609 6.72e-4 0.0012 0.0013 0.0027 2e-3 0.0039 6.72e-4 0.0012 0.0012 0.0027 0.0019 0.0039l1.6875 2.9238s0.15537 0.25342 0.42188 0.49023c0.36047 0.31167 0.78774 0.53574 1.25 0.6543 0.88282 0.25291 1.2432-1.0846 0.35156-1.3047-0.35373-0.09388-0.57073-0.24442-0.70312-0.36133-0.11665-0.10252-0.1438-0.14725-0.14844-0.15625l-1.6875-2.9238c-0.0013-0.0023-0.0025-0.0036-0.0039-0.0059-0.51134-0.88569-1.4587-1.3748-2.4199-1.3516zm-3.8887 1.9824c-0.11551-5e-3 -0.2357 0.021-0.35156 0.08203-0.21921 0.11514-0.36104 0.33507-0.36914 0.57617-0.0088 0.18254-0.0053 0.36445 0.0078 0.54492 0.42489-0.18347 0.88543-0.24667 1.334-0.19726-0.0055-0.10772-0.0053-0.21557 0-0.32422 0.02493-0.38228-0.27457-0.66661-0.62109-0.68164zm3.9414 0.04492c-0.11114 0.0037-0.2237 0.0363-0.32617 0.09766v-2e-3c-0.32068 0.1918-0.4255 0.60752-0.23438 0.92774l1.6875 2.9238s0.20157 0.34796 0.53125 0.72266c0.33013 0.37545 0.79868 0.82644 1.4785 1.0078 0.88234 0.25194 1.2421-1.0859 0.35156-1.3066-0.24453-0.06468-0.57411-0.32303-0.8125-0.59375-0.23883-0.27148-0.375-0.50781-0.375-0.50781l-1.6895-2.9238c-0.12764-0.22871-0.36682-0.35375-0.61133-0.3457zm4.877 0.31445c-0.10914 0.0028-0.21911 0.03141-0.32031 0.08984-0.32386 0.18698-0.43499 0.60198-0.24805 0.92578 0.18695 0.3238 0.59997 0.43503 0.92383 0.24805s0.43499-0.60198 0.24805-0.92578c-0.12852-0.22261-0.3634-0.34413-0.60352-0.33789zm-8.5781 1.625c-0.31175 0.01868-0.6229 0.12909-0.89062 0.33398l-1.7168 1.3145c-0.71394 0.54639-0.84913 1.5615-0.30273 2.2754 0.43993 0.57492 1.3042 0.81387 1.7441 1.3887 0.43665 0.57064 0.44806 1.4762 0.88477 2.0469 0.54644 0.71384 1.5615 0.84913 2.2754 0.30273l1.7188-1.3145c0.71394-0.54639 0.84913-1.5614 0.30274-2.2754-0.43248-0.5651-1.3117-0.82356-1.7441-1.3887-0.44414-0.58031-0.44253-1.4665-0.88672-2.0469-0.3415-0.44621-0.86518-0.66785-1.3848-0.63672zm3.291 1.416c-0.111 0.0037-0.22188 0.03442-0.32422 0.0957-0.04055 0.02425-0.07784 0.05325-0.11133 0.08398 0.08103 0.24304 0.15272 0.40696 0.20898 0.48047 0.06224 0.08133 0.2833 0.24898 0.61133 0.45508 0.32803 0.2061 0.76256 0.44981 1.1328 0.93359 0.07567 0.09888 0.14378 0.20075 0.20312 0.30664-0.0129-0.08326-0.04306-0.16806-0.09375-0.25586l-1.0137-1.7559c-0.12791-0.22813-0.36907-0.35194-0.61328-0.34375z" fill="currentColor"/>
</svg>
