<svg width="16" height="16" version="1.1" xmlns="http://www.w3.org/2000/svg">
  <defs>
    <style type="text/css" id="current-color-scheme">.ColorScheme-Text { color:#ebdbb2; } .ColorScheme-Highlight { color:#458588; }</style>
  </defs>
  <path class="ColorScheme-Text" fill="currentColor" d="m5.205 1c-0.3869 0-0.5956 0.3275-0.6992 0.7012l-3.492 12.6c-0.1035 0.3736 0.3123 0.7012 0.6992 0.7012h12.57c0.3869 0 0.8008-0.3276 0.6973-0.7012h-0.001953l-2.301-8.297-3.172 5.492a1.75 1.75 0 0 1 0.2402 0.8809 1.75 1.75 0 0 1-1.75 1.75 1.75 1.75 0 0 1-1.75-1.75 1.75 1.75 0 0 1 1.74-1.748l3.676-6.365c0.1006-0.1742 0.2574-0.2944 0.4355-0.3555l-0.6113-2.205c-0.1036-0.3736-0.3103-0.7012-0.6973-0.7012h-1.043l-1.75 2.625-1.75-2.625h-1.045z"/>
</svg>
