<svg width="16" height="16" version="1.1" xmlns="http://www.w3.org/2000/svg">
  <defs>
    <style id="current-color-scheme" type="text/css">.ColorScheme-Text { color:#ebdbb2; } .ColorScheme-Highlight { color:#458588; }</style>
  </defs>
  <path class="ColorScheme-Text" d="m2.164 1.002c-0.6442 0-1.164 0.5182-1.164 1.162v11.67c0 0.6442 0.5202 1.162 1.164 1.162h11.67c0.6442 0 1.164-0.5182 1.164-1.162v-11.67c0-0.6442-0.5202-1.162-1.164-1.162h-11.67zm4.951 2.998h1.812l2.912 8h-1.711l-0.6426-1.908h-2.996l-0.6289 1.908h-1.701l2.955-8zm0.8516 1.311c-0.0346 0.2285-0.09139 0.4538-0.168 0.6719l-0.9395 2.879 2.242-0.001953-0.9316-2.895c-0.07612-0.2122-0.1326-0.4319-0.1699-0.6543h-0.0332z" fill="currentColor"/>
</svg>
