<svg width="16" height="16" version="1.1" xmlns="http://www.w3.org/2000/svg">
  <defs>
    <style id="current-color-scheme" type="text/css">.ColorScheme-Text { color:#ebdbb2; } .ColorScheme-Highlight { color:#458588; }</style>
  </defs>
  <path class="ColorScheme-Text" d="m4 1v2h6v-2zm0 3c-1 0-1 1-1 1v9c0 1 1 1 1 1h4.686c-0.6476-0.5223-1.138-1.214-1.416-1.998h-0.5938c-0.1939 0-0.3477-0.1577-0.3477-0.3516v-0.6992c0-0.1939 0.1538-0.3477 0.3477-0.3477 0-0.146-0.05128-0.2306-0.2012-0.3555-0.1498-0.1248-0.3897-0.2516-0.6523-0.3828-0.2627-0.1313-0.5471-0.2674-0.791-0.4707-0.244-0.203-0.4531-0.5134-0.4531-0.8926v-0.6992c0-0.3865 0.3126-0.6992 0.6992-0.6992 0.3865 1e-7 0.6992 0.3127 0.6992 0.6992s-0.3126 0.6992-0.6992 0.6992c0 0.1458 0.05319 0.2286 0.2031 0.3535 0.1503 0.1248 0.3919 0.2516 0.6543 0.3828 0.1794 0.08956 0.3639 0.1909 0.543 0.3047v-3.141h-0.7012l0.7012-1.398h0.7012l0.6992 1.396h-0.6992v2.303c0.1798-0.4161 0.4215-0.8026 0.7168-1.146-0.01065-0.03353-0.01758-0.06846-0.01758-0.1055v-0.6992c0-0.1939 0.1577-0.3516 0.3516-0.3516h0.6992c0.1103 0 0.2061 0.0531 0.2695 0.1328 0.4979-0.2649 1.041-0.4339 1.602-0.498v-2.035s-2e-6 -1-1-1zm7.5 4c-1.933 0-3.5 1.567-3.5 3.5s1.567 3.5 3.5 3.5 3.5-1.567 3.5-3.5-1.567-3.5-3.5-3.5zm0 1 2 2.012v0.9883h-4v-0.9883zm-2 3.502h4v0.9922l-4 0.0039z" fill="currentColor"/>
</svg>
