<svg width="16" height="16" version="1.1" xmlns="http://www.w3.org/2000/svg">
  <defs>
    <style id="current-color-scheme" type="text/css">.ColorScheme-Text { color:#ebdbb2; } .ColorScheme-Highlight { color:#458588; }</style>
  </defs>
  <path class="ColorScheme-Text" d="m0 1v5l1-3 1 3h1.5l0.5-1 0.5 1h1.5l1-3 0.86328 2.5879c0.70673-0.45976 1.1341-1.2448 1.1367-2.0879 0-1.3807-1.1193-2.5-2.5-2.5zm11 0c-0.2652 4.01e-5 -0.51953 0.10542-0.70703 0.29297-0.39042 0.39051-0.39042 1.0236 0 1.4141l0.79297 0.79297-0.79297 0.79297c-0.39042 0.39051-0.39042 1.0236 0 1.4141 0.39051 0.39042 1.0236 0.39042 1.4141 0l0.042969-0.042969v3.3359h-0.75l-0.51953-2.0762c-0.30859-0.081273-0.60045-0.23396-0.8457-0.46289l-0.63477 2.5391h-1l-1-5-1 5h-1l-1-3-1 3h-1l-1-5-1 5v1.6777c0.42545 0.40191 0.81725 0.8132 1.4082 0.98242 1.8861 0.6287 2.0747-1.2127 3.959-1.5938 2.0266-0.40983 2.842 1.1941 4.041 1.5938 0.62351 0.20784 1.3561 0.25324 2.2383-0.62891 1.1179-1.1179 2.3852-1.1633 3.2617-0.87109 0.38515 0.17474 0.75451 0.36232 1.0918 0.5957v-1.7559l-0.5293-2.6465c-0.01858 0.020219-0.03706 0.040967-0.05664 0.060547-0.28281 0.28275-0.63443 0.46135-1.0039 0.53711l-0.41016 2.0488h-0.75v-3.3359l0.04297 0.042969c0.39051 0.39042 1.0236 0.39042 1.4141 0 0.39042-0.39051 0.39042-1.0236 0-1.4141l-0.79297-0.79297 0.79297-0.79297c0.39042-0.39051 0.39042-1.0236 0-1.4141-0.1875-0.18755-0.44183-0.29293-0.70703-0.29297-0.2652 4.01e-5 -0.51953 0.10542-0.70703 0.29297l-0.79297 0.79297-0.79297-0.79297c-0.1875-0.18755-0.44183-0.29293-0.70703-0.29297zm2.8418 9.9844c-0.44439 0.01349-0.93694 0.20256-1.4883 0.75391-1.1179 1.1179-2.3852 1.1633-3.2617 0.87109-1.3112-0.43706-1.4198-1.1399-2.5-1.5-2.2225-0.74085-2.6828 2.4391-5.5 1.5-0.38515-0.17474-0.75451-0.36233-1.0918-0.5957v1.9863c0 0.554 0.446 1 1 1h14c0.554 0 1-0.446 1-1v-1.9082c-0.42545-0.40191-0.81725-0.8132-1.4082-0.98242-0.23382-0.07794-0.48336-0.13309-0.75-0.125zm-8.8418 1.0156c0.55228 0 1 0.44772 1 1s-0.44772 1-1 1-1-0.44772-1-1 0.44772-1 1-1zm8.5 0c0.27614 0 0.5 0.22386 0.5 0.5s-0.22386 0.5-0.5 0.5-0.5-0.22386-0.5-0.5 0.22386-0.5 0.5-0.5zm-5 1c0.27614 0 0.5 0.22386 0.5 0.5s-0.22386 0.5-0.5 0.5-0.5-0.22386-0.5-0.5 0.22386-0.5 0.5-0.5z" fill="currentColor"/>
</svg>
