<svg xmlns="http://www.w3.org/2000/svg" style="isolation:isolate" width="16" height="16" viewBox="0 0 16 16">
 <defs>
  <style id="current-color-scheme" type="text/css">
   .ColorScheme-Text { color:#ebdbb2; } .ColorScheme-Highlight { color:#458588; }
  </style>
  <linearGradient id="arrongin" x1="0%" x2="0%" y1="0%" y2="100%">
   <stop offset="0%" style="stop-color:#d79921; stop-opacity:1"/>
   <stop offset="100%" style="stop-color:#b57614; stop-opacity:1"/>
  </linearGradient>
  <linearGradient id="aurora" x1="0%" x2="0%" y1="0%" y2="100%">
   <stop offset="0%" style="stop-color:#83a598; stop-opacity:1"/>
   <stop offset="100%" style="stop-color:#b16286; stop-opacity:1"/>
  </linearGradient>
  <linearGradient id="fitdance" x1="0%" x2="0%" y1="0%" y2="100%">
   <stop offset="0%" style="stop-color:#8ec07c; stop-opacity:1"/>
   <stop offset="100%" style="stop-color:#458588; stop-opacity:1"/>
  </linearGradient>
  <linearGradient id="oomox" x1="0%" x2="0%" y1="0%" y2="100%">
   <stop offset="0%" style="stop-color:#458588; stop-opacity:1"/>
   <stop offset="100%" style="stop-color:#928374; stop-opacity:1"/>
  </linearGradient>
  <linearGradient id="rainblue" x1="0%" x2="0%" y1="0%" y2="100%">
   <stop offset="0%" style="stop-color:#b8bb26; stop-opacity:1"/>
   <stop offset="100%" style="stop-color:#076678; stop-opacity:1"/>
  </linearGradient>
  <linearGradient id="sunrise" x1="0%" x2="0%" y1="0%" y2="100%">
   <stop offset="0%" style="stop-color: #fe8019; stop-opacity:1"/>
   <stop offset="100%" style="stop-color: #fabd2f; stop-opacity:1"/>
  </linearGradient>
  <linearGradient id="telinkrin" x1="0%" x2="0%" y1="0%" y2="100%">
   <stop offset="0%" style="stop-color: #83a598; stop-opacity:1"/>
   <stop offset="100%" style="stop-color: #83a598; stop-opacity:1"/>
  </linearGradient>
  <linearGradient id="60spsycho" x1="0%" x2="0%" y1="0%" y2="100%">
   <stop offset="0%" style="stop-color: #fb4934; stop-opacity:1"/>
   <stop offset="25%" style="stop-color: #fabd2f; stop-opacity:1"/>
   <stop offset="50%" style="stop-color: #fe8019; stop-opacity:1"/>
   <stop offset="100%" style="stop-color: #689d6a; stop-opacity:1"/>
  </linearGradient>
  <linearGradient id="90ssummer" x1="0%" x2="0%" y1="0%" y2="100%">
   <stop offset="0%" style="stop-color: #b16286; stop-opacity:1"/>
   <stop offset="20%" style="stop-color: #8ec07c; stop-opacity:1"/>
   <stop offset="50%" style="stop-color: #fabd2f; stop-opacity:1"/>
   <stop offset="100%" style="stop-color: #458588; stop-opacity:1"/>
  </linearGradient>
  <linearGradient id="cyberneon" x1="0%" x2="0%" y1="0%" y2="100%">
    <stop offset="0" style="stop-color:#83a598; stop-opacity:1"/>
    <stop offset="1" style="stop-color:#b16286; stop-opacity:1"/>
  </linearGradient>
 </defs>
 <g opacity=".4">
  <path style="fill:currentColor" class="ColorScheme-Text" d="M 2.032 5.877 L 13.957 8.408 L 13.957 10.189 L 13.481 10.792 C 13.481 10.792 10.147 10.315 10.077 10.315 L 9.517 11.745 L 2.608 11.745 L 1.975 10.792 L 2.032 5.877 Z"/>
 </g>
 <path style="fill:currentColor" class="ColorScheme-Text" d="M 2.31 2.213 L 1.362 3.166 L 1.362 10.791 L 2.31 11.745 L 8.511 11.745 L 8.511 10.723 L 2.383 10.723 L 2.383 3.234 L 13.656 3.234 L 13.656 4.119 L 13.852 4.119 L 14.638 4.875 L 14.638 3.166 L 13.69 2.213 L 2.31 2.213 Z M 9.816 4.596 L 8.851 5.579 L 8.851 12.463 L 9.816 13.447 L 13.673 13.447 L 14.638 12.463 L 14.638 5.579 L 13.673 4.596 L 9.816 4.596 Z M 9.872 5.617 L 13.617 5.617 L 13.617 10.043 L 9.872 10.043 L 9.872 5.617 Z M 9.872 11.064 L 13.617 11.064 L 13.617 12.425 L 9.872 12.425 L 9.872 11.064 Z M 11.234 11.404 L 11.234 12.085 L 12.255 12.085 L 12.255 11.404 L 11.234 11.404 Z M 0 12.425 L 0.941 13.447 L 9.217 13.447 L 8.471 12.637 L 8.471 12.425 L 0 12.425 Z M 15.059 12.425 L 15.059 12.637 L 14.312 13.447 L 15.059 13.447 L 16 12.425 L 15.059 12.425 Z"/>
</svg>
