<svg width="16" height="16" version="1.1" xmlns="http://www.w3.org/2000/svg">
  <defs>
    <style id="current-color-scheme" type="text/css">.ColorScheme-Text { color:#ebdbb2; } .ColorScheme-Highlight { color:#458588; }</style>
  </defs>
  <path class="ColorScheme-Text" d="m2.2167 0.99949c-0.69905 0-1.2168 0.56848-1.2168 1.25v9.498c0 0.69234 0.55766 1.25 1.25 1.25h8.6855l-1.1504-1.25h-6.2852c-0.69234 0-1.25-0.55766-1.25-1.25v-6.498h11.498v6.498c0 0.23895-0.06622 0.46095-0.18164 0.65039l1.207 1.3125c0.14028-0.20206 0.22266-0.44721 0.22266-0.71289v-9.498c0-0.69234-0.55571-1.25-1.248-1.25zm9.7832 0.5c0.55228 0 1 0.44772 1 1s-0.44772 1-1 1-1-0.44772-1-1 0.44772-1 1-1zm-1.6621 5.6387c-0.04548-0.00267-0.09104 0.010798-0.12891 0.039063l-0.97461 0.72656-1.1484-0.39062c-0.071222-0.023998-0.15159-0.00503-0.20508 0.048828-0.053686 0.05333-0.071069 0.13173-0.046875 0.20312l0.38867 1.1484-0.72656 0.97266c-0.098052 0.13141-3.286e-4 0.32031 0.16016 0.32031 0.4056-0.0053 1.2168-0.01758 1.2168-0.01758l0.70117 0.99024c0.09293 0.13113 0.30223 0.10148 0.35156-0.05664l0.35937-1.1582 1.1602-0.36133c0.07215-0.02249 0.12492-0.08351 0.13672-0.1582 0.0119-0.07448-0.01839-0.14771-0.08008-0.19141l-0.99219-0.70117 0.01563-1.2129c8.89e-4 -0.075551-0.04199-0.1454-0.10938-0.17969-0.02525-0.012888-0.05083-0.020062-0.07813-0.021484zm1.1523 3.2344-0.67773 0.14453-0.19922 0.66016 3.4453 3.7441c0.04176 0.04542 0.0966 0.07315 0.15039 0.07813 0.0538 0.0053 0.10609-0.0099 0.14648-0.04687l0.58594-0.53711c0.08078-0.07404 0.07779-0.20805-0.0059-0.29883z" fill="currentColor"/>
</svg>
