<svg width="16" height="16" version="1.1" xmlns="http://www.w3.org/2000/svg">
  <defs>
    <style id="current-color-scheme" type="text/css">.ColorScheme-Text { color:#ebdbb2; } .ColorScheme-Highlight { color:#458588; }</style>
  </defs>
  <path class="ColorScheme-Text" d="m7.999 1c-0.14 0-0.2794 0.05289-0.3867 0.1602l-6.451 6.451c-0.2145 0.2145-0.2145 0.5589 0 0.7734l0.3867 0.3867-0.42 0.42c-0.1686 0.1686-0.1686 0.4388 0 0.6074l5.069 5.069c0.1686 0.1686 0.4408 0.1686 0.6094 0l0.418-0.42 0.3887 0.3887c0.2145 0.2145 0.5589 0.2145 0.7734 0l0.3867-0.3867 0.4238 0.4238c0.1686 0.1686 0.4408 0.1686 0.6094 0l5.066-5.066c0.1686-0.1686 0.1686-0.4408 0-0.6094l-0.4238-0.4238 0.3887-0.3887c0.2145-0.2145 0.2145-0.5589 0-0.7734l-6.451-6.451c-0.1073-0.1073-0.2467-0.1601-0.3867-0.1602zm-0.3458 2.627h0.5489v1.262c0.3685 0.0251 0.7212 0.07778 1.061 0.1563 0.3429 0.07538 0.6773 0.1779 1.002 0.3066v1.234h-0.5957c-0.04384-0.3643-0.1916-0.6529-0.4434-0.8632-0.2518-0.2104-0.5929-0.3292-1.023-0.3574v2.128c0.8976 0.2104 1.525 0.4516 1.883 0.7248 0.3612 0.2701 0.541 0.6345 0.5409 1.09 0 0.5213-0.2116 0.9379-0.6347 1.252-0.4232 0.314-1.019 0.4956-1.789 0.543l2e-7 1.272h-0.5489l-2e-7 -1.272c-0.3502-0.0063-0.7121-0.05119-1.088-0.1329-0.3758-0.07856-0.7691-0.1965-1.178-0.3537v-1.301h0.5918c0.01457 0.4302 0.1602 0.7567 0.4375 0.9766 0.2773 0.2198 0.689 0.3343 1.236 0.3436v-2.285c-0.8392-0.201-1.428-0.4327-1.767-0.6932-0.3393-0.2638-0.5078-0.6115-0.5078-1.045 0-0.5025 0.2002-0.9063 0.6018-1.211 0.4014-0.3046 0.9583-0.4757 1.674-0.5138v-1.262zm0 1.738c-0.3758 0.02199-0.667 0.1167-0.875 0.2832-0.208 0.1633-0.3125 0.3819-0.3125 0.6582 0 0.2512 0.09539 0.4605 0.2852 0.627 0.1934 0.1664 0.4937 0.3007 0.9023 0.4043v-1.973zm0.5487 3.142v2.128c0.4122-0.0314 0.7261-0.1339 0.9414-0.3067 0.2189-0.1727 0.3281-0.4087 0.3282-0.707 0-0.2701-0.1089-0.4991-0.3242-0.6875-0.2153-0.1885-0.5293-0.3304-0.9453-0.4277z" fill="currentColor"/>
</svg>
