<svg width="16" height="16" version="1.1" xmlns="http://www.w3.org/2000/svg">
  <defs>
    <style id="current-color-scheme" type="text/css">.ColorScheme-Text { color:#ebdbb2; } .ColorScheme-Highlight { color:#458588; }</style>
  </defs>
  <path class="ColorScheme-Text" d="m8 15c-3.123 0-7-2.471-7-7 0-3.866 3.134-7 7-7 0.9551 0 2.917 0.2174 4.666 1.782-2.223-1.475-5.191-1.036-6.97 1.273-1.713 2.022-1.775 5.793 1.333e-4 7.889 1.778 2.309 4.746 2.748 6.969 1.274-1.238 1.108-2.873 1.781-4.665 1.781zm4.968-2.07c-1.351 0.8037-2.96 0.8631-4.351 0.1745 4.139-0.855 4.139-9.353 2.666e-4 -10.21 1.392-0.6887 3-0.6288 4.351 0.1748 2.704 2.726 2.705 7.133-3.11e-4 9.86z" fill="currentColor"/>
</svg>
