<svg width="16" height="16" version="1.1" xmlns="http://www.w3.org/2000/svg">
  <defs>
    <style id="current-color-scheme" type="text/css">.ColorScheme-Text { color:#ebdbb2; } .ColorScheme-Highlight { color:#458588; }</style>
  </defs>
  <path class="ColorScheme-Text" d="m0.666 1c-0.3693 0-0.666 0.2967-0.666 0.666v8.084c0 0.3693 0.2967 0.6777 0.666 0.6777h1.572s0.334-0.01105 0.334 0.3223v1.561c-2.866e-4 0.5301 0.3431 0.861 0.6172 0.5957l1.672-1.531 0.7773-0.7539c0.1675-0.2138 0.2722-0.1934 0.5273-0.1934h5.166c0.3693 0 0.668-0.3084 0.668-0.6777v-8.084c0-0.3693-0.2986-0.666-0.668-0.666h-10.67zm1.646 1.25h7.373a0.75 0.75 0 0 1 0.6406 1.121 0.75 0.75 0 0 1-0.6406 0.3789h-7.373a0.75 0.75 0 0 1 0-1.5zm10.69 0.75v7.607c0 0.4476-0.3484 0.8203-0.7793 0.8203h-6.148l-1.092 1h4.854c0.2551 0 0.3598-0.01852 0.5273 0.1953l0.7793 0.752 1.672 1.531c0.2741 0.2653 0.6155-0.06557 0.6152-0.5957v-1.559c0-0.3334 0.334-0.3242 0.334-0.3242h1.572c0.3693 0 0.666-0.3065 0.666-0.6758v-8.086c0-0.3693-0.2967-0.666-0.666-0.666h-2.334zm-10.69 1.859h5.527a0.75 0.75 0 0 1 0.6406 0.3789 0.75 0.75 0 0 1 0 0.7422 0.75 0.75 0 0 1-0.6406 0.3789h-5.527a0.75 0.75 0 0 1-0.7402-0.75 0.75 0.75 0 0 1 0.7402-0.75zm0 2.764h3.686a0.75 0.75 0 0 1 0.6406 0.377 0.75 0.75 0 0 1-0.6406 1.121h-3.686a0.75 0.75 0 0 1 0-1.498z" fill="currentColor"/>
</svg>
