<svg width="16" height="16" version="1.1" xmlns="http://www.w3.org/2000/svg">
  <defs>
    <style id="current-color-scheme" type="text/css">.ColorScheme-Text { color:#ebdbb2; } .ColorScheme-Highlight { color:#458588; }</style>
  </defs>
  <path class="ColorScheme-Text" d="m8 1c-3.0376 0-5.5 2.4624-5.5 5.5 0.00741 2.2729 1.4122 4.3072 3.5352 5.1191-0.021915 0.043149-0.033679 0.086937-0.035156 0.13086 1.313e-4 0.18451 0.18162 0.36252 0.50977 0.5-0.32814 0.13748-0.50963 0.31549-0.50977 0.5 1.313e-4 0.18451 0.18162 0.36252 0.50977 0.5-0.32814 0.13748-0.50963 0.31549-0.50977 0.5 0.0017 0.27063 0.39207 0.51994 1.0215 0.65234-0.013556 0.03212-0.020752 0.06483-0.021484 0.097656 0 0.27614 0.44772 0.5 1 0.5 0.55228 0 1-0.22386 1-0.5-8.9e-5 -0.0328-0.0066-0.06551-0.01953-0.09766 0.62866-0.1326 1.0182-0.38186 1.0195-0.65234 4.06e-4 -0.18441-0.18038-0.36241-0.50781-0.5 0.32744-0.13759 0.50822-0.31559 0.50781-0.5 4.06e-4 -0.18441-0.18038-0.36241-0.50781-0.5 0.32744-0.13759 0.50822-0.31559 0.50781-0.5 1.18e-4 -0.04453-0.01034-0.08898-0.03125-0.13281 2.1208-0.81299 3.5237-2.846 3.5312-5.1172 0-3.0376-2.4624-5.5-5.5-5.5zm0 3.5c1.1046 0 2 0.89543 2 2-0.0024 0.83196-0.51967 1.5755-1.2988 1.8672l1.166 3.1152c-0.2957-0.29036-1.0384-0.48224-1.8672-0.48242-0.83086 1.91e-4 -1.5749 0.193-1.8691 0.48438l1.168-3.1172c-0.77916-0.29167-1.2964-1.0352-1.2988-1.8672 0-1.1046 0.89543-2 2-2z" fill="currentColor"/>
</svg>
