<svg width="16" height="16" version="1.1" xmlns="http://www.w3.org/2000/svg">
  <defs>
    <style type="text/css" id="current-color-scheme">.ColorScheme-Text { color:#ebdbb2; } .ColorScheme-Highlight { color:#458588; }</style>
  </defs>
  <path class="ColorScheme-Text" fill="currentColor" d="m2.828 2.5a0.5832 0.6806 0 0 0-0.5625 0.502l-2.246 9.639a0.5832 0.6806 0 0 0 0.5625 0.8594h2.59a0.5832 0.6806 0 0 0 0.5625-0.502l2.244-9.639a0.5832 0.6806 0 0 0-0.5625-0.8594h-2.588zm5 0a0.5832 0.6806 0 0 0-0.5625 0.502l-2.246 9.639a0.5832 0.6806 0 0 0 0.5625 0.8594h2.59a0.5832 0.6806 0 0 0 0.5625-0.502l2.246-9.639a0.5832 0.6806 0 0 0-0.5645-0.8594h-2.588zm5 0a0.5832 0.6806 0 0 0-0.5625 0.502l-2.246 9.639a0.5832 0.6806 0 0 0 0.5625 0.8594h2.59a0.5832 0.6806 0 0 0 0.5625-0.502l2.246-9.639a0.5832 0.6806 0 0 0-0.5645-0.8594h-2.588z"/>
</svg>
