<svg width="16" height="16" version="1.1" xmlns="http://www.w3.org/2000/svg">
  <defs>
    <style id="current-color-scheme" type="text/css">.ColorScheme-Text { color:#ebdbb2; } .ColorScheme-Highlight { color:#458588; }</style>
  </defs>
  <path class="ColorScheme-Text" d="m7.999 0.9991c-0.09735 5.99e-5 -0.19298 0.025651-0.27734 0.074219l-4.5762 2.6426c-0.37018 0.21373-0.37126 0.74766-0.00195 0.96289l1.248 0.73242c0.17321 0.10096 0.38734 0.10096 0.56055 0l2.7695-1.6016c0.17222-0.099446 0.38442-0.099446 0.55664 0l2.7695 1.6016c0.17356 0.10036 0.38769 0.09961 0.56055-0.00195l1.248-0.73047c0.36888-0.21597 0.36672-0.74991-0.0039-0.96289l-4.5742-2.6426c-0.08494-0.048899-0.18129-0.074502-0.2793-0.074219zm0 4.6621c-0.09735 5.99e-5 -0.19298 0.025651-0.27734 0.074219l-1.9707 1.1387c-0.17272 0.099241-0.27924 0.28322-0.2793 0.48242v2.2793c6.17e-5 0.1992 0.10658 0.38318 0.2793 0.48242l1.9707 1.1387c0.17222 0.09945 0.38442 0.09945 0.55664 0l1.9707-1.1387c0.17272-0.09924 0.27924-0.28322 0.2793-0.48242v-2.2793c-6.2e-5 -0.1992-0.10658-0.38318-0.2793-0.48242l-1.9707-1.1387c-0.08494-0.048899-0.18129-0.074502-0.2793-0.074219zm-5.9336 0.33984c-0.29902 0.01152-0.53541 0.2574-0.53516 0.55664v5.2578c-3.41e-4 0.1988 0.10538 0.38268 0.27734 0.48242l4.5449 2.627c0.37145 0.21555 0.83673-0.05296 0.83594-0.48242v-1.4258c-6.2e-5 -0.1992-0.10658-0.38318-0.2793-0.48242l-2.7578-1.582c-0.17272-0.099241-0.27924-0.28322-0.2793-0.48242v-3.2051c-6.17e-5 -0.1992-0.10658-0.38318-0.2793-0.48242l-1.2285-0.70703c-0.090648-0.052348-0.19422-0.078072-0.29883-0.074219zm11.867 0c-0.10395-0.00348-0.2068 0.022227-0.29688 0.074219l-1.2305 0.70703c-0.17197 0.099738-0.27768 0.28362-0.27734 0.48242v3.2051c-6.2e-5 0.1992-0.10658 0.38318-0.2793 0.48242l-2.7578 1.582c-0.17272 0.09924-0.27924 0.28322-0.2793 0.48242v1.4258c8.2e-5 0.42795 0.46297 0.69571 0.83398 0.48242l4.5469-2.627c0.17197-0.09974 0.27768-0.28362 0.27734-0.48242v-5.2578c2.15e-4 -0.29997-0.23733-0.54615-0.53711-0.55664z" fill="currentColor"/>
</svg>
