<svg width="16" height="16" version="1.1" xmlns="http://www.w3.org/2000/svg">
  <defs>
    <style type="text/css" id="current-color-scheme">.ColorScheme-Text { color:#ebdbb2; } .ColorScheme-Highlight { color:#458588; }</style>
  </defs>
  <path class="ColorScheme-Text" fill="currentColor" d="m10 1v1.897e-4a5.332 5.332 0 0 0-4.931 3.309 2.666 2.666 0 0 0-1.734-0.6432 2.666 2.666 0 0 0-2.666 2.666 2.666 2.666 0 0 0 0.5506 1.62 2.333 2.333 0 0 0-1.217 2.046 2.333 2.333 0 0 0 2.333 2.333 2.333 2.333 0 0 0 0.3334-0.02371v0.6926c0 1.108 0.8918 2 2 2h6.666c1.108 0 2-0.8918 2-2v-0.02846a2.333 2.333 0 0 0 0.3334 0.02846 2.333 2.333 0 0 0 2.333-2.333 2.333 2.333 0 0 0-1.194-2.035 5.332 5.332 0 0 0 0.5271-2.298 5.332 5.332 0 0 0-5.332-5.333zm-5.666 5.999a1.333 1.333 0 0 1 1.333 1.333 1.333 1.333 0 0 1-1.333 1.333 1.333 1.333 0 0 1-1.333-1.333 1.333 1.333 0 0 1 1.333-1.333zm7.332 0a1.333 1.333 0 0 1 1.333 1.333 1.333 1.333 0 0 1-1.333 1.333 1.333 1.333 0 0 1-1.333-1.333 1.333 1.333 0 0 1 1.333-1.333zm-5.666 2.666h3.999c0 1.104-0.8952 2-2 2-1.104 0-2-0.8952-2-2z"/>
</svg>
