<svg xmlns="http://www.w3.org/2000/svg" width="16" height="16" version="1.1">
<defs>
  <style id="current-color-scheme" type="text/css">
   .ColorScheme-Text { color:#ebdbb2; } .ColorScheme-Highlight { color:#458588; }
  </style>
  <linearGradient id="arrongin" x1="0%" x2="0%" y1="0%" y2="100%">
   <stop offset="0%" style="stop-color:#d79921; stop-opacity:1"/>
   <stop offset="100%" style="stop-color:#b57614; stop-opacity:1"/>
  </linearGradient>
  <linearGradient id="aurora" x1="0%" x2="0%" y1="0%" y2="100%">
   <stop offset="0%" style="stop-color:#83a598; stop-opacity:1"/>
   <stop offset="100%" style="stop-color:#b16286; stop-opacity:1"/>
  </linearGradient>
  <linearGradient id="fitdance" x1="0%" x2="0%" y1="0%" y2="100%">
   <stop offset="0%" style="stop-color:#8ec07c; stop-opacity:1"/>
   <stop offset="100%" style="stop-color:#458588; stop-opacity:1"/>
  </linearGradient>
  <linearGradient id="oomox" x1="0%" x2="0%" y1="0%" y2="100%">
   <stop offset="0%" style="stop-color:#458588; stop-opacity:1"/>
   <stop offset="100%" style="stop-color:#928374; stop-opacity:1"/>
  </linearGradient>
  <linearGradient id="rainblue" x1="0%" x2="0%" y1="0%" y2="100%">
   <stop offset="0%" style="stop-color:#b8bb26; stop-opacity:1"/>
   <stop offset="100%" style="stop-color:#076678; stop-opacity:1"/>
  </linearGradient>
  <linearGradient id="sunrise" x1="0%" x2="0%" y1="0%" y2="100%">
   <stop offset="0%" style="stop-color: #fe8019; stop-opacity:1"/>
   <stop offset="100%" style="stop-color: #fabd2f; stop-opacity:1"/>
  </linearGradient>
  <linearGradient id="telinkrin" x1="0%" x2="0%" y1="0%" y2="100%">
   <stop offset="0%" style="stop-color: #83a598; stop-opacity:1"/>
   <stop offset="100%" style="stop-color: #83a598; stop-opacity:1"/>
  </linearGradient>
  <linearGradient id="60spsycho" x1="0%" x2="0%" y1="0%" y2="100%">
   <stop offset="0%" style="stop-color: #fb4934; stop-opacity:1"/>
   <stop offset="25%" style="stop-color: #fabd2f; stop-opacity:1"/>
   <stop offset="50%" style="stop-color: #fe8019; stop-opacity:1"/>
   <stop offset="100%" style="stop-color: #689d6a; stop-opacity:1"/>
  </linearGradient>
  <linearGradient id="90ssummer" x1="0%" x2="0%" y1="0%" y2="100%">
   <stop offset="0%" style="stop-color: #b16286; stop-opacity:1"/>
   <stop offset="20%" style="stop-color: #8ec07c; stop-opacity:1"/>
   <stop offset="50%" style="stop-color: #fabd2f; stop-opacity:1"/>
   <stop offset="100%" style="stop-color: #458588; stop-opacity:1"/>
  </linearGradient>
  <linearGradient id="cyberneon" x1="0%" x2="0%" y1="0%" y2="100%">
    <stop offset="0" style="stop-color:#83a598; stop-opacity:1"/>
    <stop offset="1" style="stop-color:#b16286; stop-opacity:1"/>
  </linearGradient>
 </defs>
 <path style="fill:currentColor" class="ColorScheme-Text" d="M 8.109375 0 A 8 8 0 0 0 2.3359375 2.34375 A 8 8 0 0 0 2.3359375 13.65625 A 8 8 0 0 0 13.648438 13.65625 A 8 8 0 0 0 13.648438 2.34375 A 8 8 0 0 0 8.109375 0 z M 7.890625 1 A 7 7 0 0 1 12.570312 2.7148438 L 11.166016 4.1191406 A 8 5 45 0 0 5.7421875 1.3769531 A 7 7 0 0 1 7.890625 1 z M 4.8632812 2.3066406 A 7 4 45 0 1 10.457031 4.828125 L 7.9921875 7.2929688 L 3.4414062 2.7421875 A 7 4 45 0 1 4.8632812 2.3066406 z M 13.283203 3.4160156 A 7 7 0 0 1 14.619141 10.226562 A 8 5 45 0 0 11.869141 4.8300781 L 13.283203 3.4160156 z M 2.7324219 3.4472656 L 7.2851562 8 L 4.8183594 10.466797 A 7 4 45 0 1 2.7324219 3.4472656 z M 11.166016 5.5332031 A 7 4 45 0 1 13.251953 12.552734 L 8.6992188 8 L 11.166016 5.5332031 z M 1.3652344 5.7734375 A 8 5 45 0 0 4.1152344 11.169922 L 2.7011719 12.583984 A 7 7 0 0 1 1.3652344 5.7734375 z M 7.9921875 8.7070312 L 12.542969 13.257812 A 7 4 45 0 1 5.5273438 11.171875 L 7.9921875 8.7070312 z M 4.8183594 11.880859 A 8 5 45 0 0 10.242188 14.623047 A 7 7 0 0 1 3.4140625 13.285156 L 4.8183594 11.880859 z"/>
</svg>
