<svg width="16" height="16" version="1.1" xmlns="http://www.w3.org/2000/svg">
  <defs>
    <style id="current-color-scheme" type="text/css">.ColorScheme-Text { color:#ebdbb2; } .ColorScheme-Highlight { color:#458588; }</style>
  </defs>
  <path class="ColorScheme-Text" d="m1 1c-0.554 0-1 0.446-1 1v12c0 0.554 0.446 1 1 1h10.78c-0.3875-0.4266-0.6409-0.9541-0.7363-1.516l-0.6621-0.332c-0.4248 0.2236-0.8978 0.3451-1.381 0.3477-0.5885-7.89e-4 -1.164-0.1747-1.654-0.5h-5.346v-8h12c0.7379-7.2e-5 1.45 0.2718 2 0.7637v-3.764c0-0.554-0.446-1-1-1zm2 1c0.5523 0 1 0.4477 1 1s-0.4477 1-1 1-1-0.4477-1-1 0.4477-1 1-1zm3 0c0.5523 0 1 0.4477 1 1s-0.4477 1-1 1-1-0.4477-1-1 0.4477-1 1-1zm3 0c0.5523 0 1 0.4477 1 1s-0.4477 1-1 1-1-0.4477-1-1 0.4477-1 1-1zm5 4c-1.105 0-2 0.8954-2 2 0.0012 0.05219 0.0045 0.1043 0.0098 0.1562l-1.686 0.8438c-0.3657-0.3225-0.8366-0.5003-1.324-0.5-1.105 0-2 0.8954-2 2 0 1.105 0.8954 2 2 2 0.4869-1.49e-4 0.9571-0.1779 1.322-0.5l1.688 0.8438c-0.0053 0.05194-0.008566 0.1041-0.009766 0.1562 0 1.105 0.8954 2 2 2s2-0.8954 2-2-0.8954-2-2-2c-0.4869 1.4e-4 -0.9571 0.1779-1.322 0.5l-1.688-0.8438c0.0053-0.05194 0.008566-0.1041 0.009766-0.1562 1e-4 -0.05279-0.0019-0.1056-0.0059-0.1582l1.684-0.8418c0.3652 0.3221 0.8353 0.4998 1.322 0.5 1.105 0 2-0.8954 2-2 0-1.105-0.8954-2-2-2z" fill="currentColor"/>
</svg>
