<svg width="16" height="16" version="1.1" xmlns="http://www.w3.org/2000/svg">
  <defs>
    <style id="current-color-scheme" type="text/css">.ColorScheme-Text { color:#ebdbb2; } .ColorScheme-Highlight { color:#458588; }</style>
  </defs>
  <path class="ColorScheme-Text" d="m8 1c-0.2652 4.01e-5 -0.5195 0.1054-0.707 0.293l-6 6c-0.3904 0.3905-0.3904 1.024 0 1.414 0.3905 0.3904 1.024 0.3904 1.414 0l4.293-4.293v4.172l2-2v-2.172l4.293 4.293c0.3905 0.3904 1.024 0.3904 1.414 0 0.3904-0.3905 0.3904-1.024 0-1.414l-6-6c-0.1875-0.1876-0.4418-0.2929-0.707-0.293zm-3 7-2.707 2.707 1.414 1.414 1.293-1.293 2 2 2-2 2 2 2.707-2.707-1.414-1.414-1.293 1.293-2-2-2 2zm4 4.242-1.959 1.959c0.09387 0.4576 0.492 0.7892 0.959 0.7988 0.5523 0 1-0.4477 1-1z" fill="currentColor"/>
</svg>
