<svg width="16" height="16" version="1.1" xmlns="http://www.w3.org/2000/svg">
  <defs>
    <style id="current-color-scheme" type="text/css">.ColorScheme-Text { color:#ebdbb2; } .ColorScheme-Highlight { color:#458588; }</style>
  </defs>
  <path class="ColorScheme-Text" d="m8 1c-0.5304 1.021e-4 -1.039 0.2109-1.414 0.5859l-0.4297 0.4297c0.739 0.03566 1.439 0.3431 1.965 0.8633l3 3c1.171 1.172 1.171 3.071 0 4.242l-3 3c-0.5261 0.5202-1.226 0.8276-1.965 0.8633l0.4297 0.4297c0.7811 0.7807 2.047 0.7807 2.828 0l5-5c0.7807-0.7811 0.7807-2.047 0-2.828l-5-5c-0.375-0.3751-0.8837-0.5858-1.414-0.5859zm-2 2c-0.5118 0-1.024 0.1956-1.414 0.5859l-3 3c-0.7807 0.7811-0.7807 2.047 0 2.828l3 3c0.7811 0.7807 2.047 0.7807 2.828 0l3-3c0.7807-0.7811 0.7807-2.047 0-2.828l-3-3c-0.3905-0.3904-0.9023-0.5859-1.414-0.5859z" fill="currentColor"/>
</svg>
