<svg width="16" height="16" version="1.1" xmlns="http://www.w3.org/2000/svg">
  <defs>
    <style type="text/css" id="current-color-scheme">.ColorScheme-Text { color:#ebdbb2; } .ColorScheme-Highlight { color:#458588; }</style>
  </defs>
  <path class="ColorScheme-Text" d="m14 1.185c-1.913 0.03394-4.792 1.438-6.631 2.703-2.966 0.564-7.373 2.237-7.373 4.215 0 2.044 4.708 3.763 7.645 4.254 2.463 1.609 6.407 3.305 7.727 1.986 1.066-1.066 0.1658-3.843-1.076-6.17 1.326-2.409 2.346-5.391 1.227-6.51-0.3492-0.3492-0.8798-0.4898-1.518-0.4785zm0.3125 1.492c0.1258 1.029-0.796 3.039-1.059 3.604-0.6484-1.134-1.686-1.783-2.801-2.391 1.286-0.6994 3.052-1.313 3.859-1.213zm-5.211 2.781c1.461-5.395e-4 2.645 1.184 2.645 2.645-5.39e-4 1.46-1.185 2.643-2.645 2.643-1.459-5.39e-4 -2.642-1.183-2.643-2.643-5.39e-4 -1.46 1.183-2.644 2.643-2.645zm-3.975 0.8984c-0.285 0.659-0.3911 1.375-0.3281 2.078 0.038 0.499 0.1609 0.9931 0.3789 1.455-0.2084-0.07127-2.576-0.8952-3.256-1.773 0.6071-0.7837 2.535-1.521 3.205-1.76zm8.965 6.709c-0.9264 0.1158-2.724-0.6679-3.271-0.92 0.9789-0.3969 1.543-0.9794 2.408-2.227 6e-3 0.04088 0.9957 2.089 0.8633 3.147z" fill="currentColor"/>
</svg>
