<svg width="16" height="16" version="1.1" xmlns="http://www.w3.org/2000/svg">
  <defs>
    <style type="text/css" id="current-color-scheme">.ColorScheme-Text { color:#ebdbb2; } .ColorScheme-Highlight { color:#458588; }</style>
  </defs>
  <path class="ColorScheme-Text" fill="currentColor" d="m3 1c-0.554 0-1 0.446-1 1v1.268c0.3041-0.1754 0.649-0.2677 1-0.2676 0.3512 4.809e-4 0.6961 0.09344 1 0.2695v-1.27c0-0.554-0.446-1-1-1zm5 0c-0.554 0-1 0.446-1 1v6.268c0.3041-0.1754 0.649-0.2677 1-0.2676 0.3512 4.809e-4 0.6961 0.09344 1 0.2695v-6.27c0-0.554-0.446-1-1-1zm5 0c-0.554 0-1 0.446-1 1v3.268c0.3041-0.1754 0.649-0.2677 1-0.2676 0.3512 4.809e-4 0.6961 0.09344 1 0.2695v-3.27c0-0.554-0.446-1-1-1zm-10 3c-1.105 0-2 0.8954-2 2 0.002419 0.7258 0.3978 1.393 1.033 1.744-0.02143 0.08169-0.0332 0.1673-0.0332 0.2559v6c0 0.554 0.446 1 1 1s1-0.446 1-1v-6c0-0.08859-0.01177-0.1742-0.0332-0.2559 0.6354-0.3508 1.031-1.018 1.033-1.744 0-1.105-0.8954-2-2-2zm10 2c-1.105 0-2 0.8954-2 2 0.0024 0.7258 0.3978 1.393 1.033 1.744-0.02143 0.08169-0.0332 0.1673-0.0332 0.2559v4c0 0.554 0.446 1 1 1s1-0.446 1-1v-4c0-0.08859-0.01178-0.1742-0.0332-0.2559 0.6354-0.3508 1.031-1.018 1.033-1.744 0-1.105-0.8954-2-2-2zm-5 3c-1.105 0-2 0.8954-2 2 0.00242 0.7258 0.3978 1.393 1.033 1.744-0.02146 0.08175-0.0332 0.1672-0.0332 0.2559v1c0 0.554 0.446 1 1 1s1-0.446 1-1v-1c0-0.08867-0.01174-0.1741-0.0332-0.2559 0.6354-0.3508 1.031-1.018 1.033-1.744 0-1.105-0.8954-2-2-2z"/>
</svg>
