<svg width="16" height="16" style="isolation:isolate" version="1.1" xmlns="http://www.w3.org/2000/svg">
  <defs>
    <style type="text/css">.ColorScheme-Text { color:#ebdbb2; } .ColorScheme-Highlight { color:#458588; }</style>
  </defs>
  <path class="ColorScheme-Text" fill="currentColor" d="m7.942 1c-0.2569-0.005861-0.5105 0.05925-0.7329 0.1882l-4.729 2.736c-0.4332 0.2505-0.7002 0.7137-0.7004 1.215v5.474c6.149e-4 0.5009 0.2675 0.9634 0.7004 1.214l4.729 2.738c0.4332 0.2507 0.9669 0.2507 1.4 0 0.3592-0.2077 1.051-0.6081 1.051-0.6081l1.343 0.7811c0.6005 0.3495 1.568 0.3495 2.168 0l0.6003-0.3494c0.6005-0.3495 0.6005-0.9122 0-1.262l-1.334-0.7767 0.9025-0.5224c0.4326-0.2505 0.6992-0.713 0.6997-1.214v-5.474c-3e-5 -0.5012-0.2667-0.9643-0.6997-1.215l-4.73-2.736c-0.2031-0.1178-0.4325-0.1825-0.6671-0.1882zm-0.0152 3.094h3.624e-4c0.129 3e-3 0.2551 0.03854 0.3669 0.1032l2.601 1.505c0.2381 0.1379 0.3849 0.3927 0.3849 0.6684v3.011c-4.52e-4 0.2753-0.1471 0.5295-0.3849 0.6671l-2.601 1.506c-0.2381 0.1377-0.5314 0.1377-0.7695 0l-2.602-1.506c-0.2377-0.1377-0.3843-0.3919-0.3847-0.6671v-3.011c1.07e-5 -0.2757 0.1467-0.5304 0.3847-0.6684l2.601-1.505c0.1222-0.0707 0.2614-0.1064 0.4024-0.1032z"/>
</svg>
