<svg width="16" height="16" version="1.1" xmlns="http://www.w3.org/2000/svg">
  <defs>
    <style id="current-color-scheme" type="text/css">.ColorScheme-Text { color:#ebdbb2; } .ColorScheme-Highlight { color:#458588; }</style>
  </defs>
  <path class="ColorScheme-Text" d="m6.727 1c-0.7665 0.6944-2.105 3.382-2.686 4.777l-0.05664-1.834c-0.618 0.912-1.666 2.429-1.723 4.143-0.039 1.158 0.4346 2.407 1.572 3.623l-1.834 0.8926c3.086 0.7197 3.941 0.9284 6.709 0.5592 0.3823-1.701 0.6665-3.562 0.2888-5.563 0 0-2.4 2.633-2.407 2.665-1.29-3.387-0.9355-6.087 0.1371-9.263zm0.3848 1.893c-0.3823 1.701-0.489 3.708-0.1113 5.709l2.407-2.873c1.126 2.037 0.7574 6.44-0.2303 9.272 0.9047-0.708 2.126-3.204 2.78-4.777l0.05664 1.832c0.637-0.94 1.723-2.519 1.725-4.297 2e-3 -1.114-0.4856-2.305-1.572-3.467l1.834-0.8926c-2.25-0.6295-4.203-1.132-6.889-0.5059z" fill="currentColor"/>
</svg>
