<svg xmlns="http://www.w3.org/2000/svg" style="isolation:isolate" width="16" height="16" viewBox="0 0 16 16">
 <defs>
  <style id="current-color-scheme" type="text/css">
   .ColorScheme-Text { color:#ebdbb2; } .ColorScheme-Highlight { color:#458588; }
  </style>
  <linearGradient id="arrongin" x1="0%" x2="0%" y1="0%" y2="100%">
   <stop offset="0%" style="stop-color:#d79921; stop-opacity:1"/>
   <stop offset="100%" style="stop-color:#b57614; stop-opacity:1"/>
  </linearGradient>
  <linearGradient id="aurora" x1="0%" x2="0%" y1="0%" y2="100%">
   <stop offset="0%" style="stop-color:#83a598; stop-opacity:1"/>
   <stop offset="100%" style="stop-color:#b16286; stop-opacity:1"/>
  </linearGradient>
  <linearGradient id="fitdance" x1="0%" x2="0%" y1="0%" y2="100%">
   <stop offset="0%" style="stop-color:#8ec07c; stop-opacity:1"/>
   <stop offset="100%" style="stop-color:#458588; stop-opacity:1"/>
  </linearGradient>
  <linearGradient id="oomox" x1="0%" x2="0%" y1="0%" y2="100%">
   <stop offset="0%" style="stop-color:#458588; stop-opacity:1"/>
   <stop offset="100%" style="stop-color:#928374; stop-opacity:1"/>
  </linearGradient>
  <linearGradient id="rainblue" x1="0%" x2="0%" y1="0%" y2="100%">
   <stop offset="0%" style="stop-color:#b8bb26; stop-opacity:1"/>
   <stop offset="100%" style="stop-color:#076678; stop-opacity:1"/>
  </linearGradient>
  <linearGradient id="sunrise" x1="0%" x2="0%" y1="0%" y2="100%">
   <stop offset="0%" style="stop-color: #fe8019; stop-opacity:1"/>
   <stop offset="100%" style="stop-color: #fabd2f; stop-opacity:1"/>
  </linearGradient>
  <linearGradient id="telinkrin" x1="0%" x2="0%" y1="0%" y2="100%">
   <stop offset="0%" style="stop-color: #83a598; stop-opacity:1"/>
   <stop offset="100%" style="stop-color: #83a598; stop-opacity:1"/>
  </linearGradient>
  <linearGradient id="60spsycho" x1="0%" x2="0%" y1="0%" y2="100%">
   <stop offset="0%" style="stop-color: #fb4934; stop-opacity:1"/>
   <stop offset="25%" style="stop-color: #fabd2f; stop-opacity:1"/>
   <stop offset="50%" style="stop-color: #fe8019; stop-opacity:1"/>
   <stop offset="100%" style="stop-color: #689d6a; stop-opacity:1"/>
  </linearGradient>
  <linearGradient id="90ssummer" x1="0%" x2="0%" y1="0%" y2="100%">
   <stop offset="0%" style="stop-color: #b16286; stop-opacity:1"/>
   <stop offset="20%" style="stop-color: #8ec07c; stop-opacity:1"/>
   <stop offset="50%" style="stop-color: #fabd2f; stop-opacity:1"/>
   <stop offset="100%" style="stop-color: #458588; stop-opacity:1"/>
  </linearGradient>
  <linearGradient id="cyberneon" x1="0%" x2="0%" y1="0%" y2="100%">
    <stop offset="0" style="stop-color:#83a598; stop-opacity:1"/>
    <stop offset="1" style="stop-color:#b16286; stop-opacity:1"/>
  </linearGradient>
  <clipPath id="_clipPath_ncIhFmfvacalp1GdcgBMTzqkP6I6KDdK">
   <rect width="16" height="16"/>
  </clipPath>
 </defs>
 <g clip-path="url(#_clipPath_ncIhFmfvacalp1GdcgBMTzqkP6I6KDdK)">
  <rect style="fill:currentColor" class="ColorScheme-Text" fill-opacity="0" width="16" height="16"/>
  <path style="fill:currentColor" class="ColorScheme-Text" fill-rule="evenodd" d="M 2.999 9.968 L 2.999 11.563 L 4.593 11.563 L 8.619 7.537 L 7.025 5.943 L 2.999 9.968 L 2.999 9.968 L 2.999 9.968 L 2.999 9.968 L 2.999 9.968 L 2.999 9.968 L 2.999 9.968 L 2.999 9.968 L 2.999 9.968 L 2.999 9.968 L 2.999 9.968 L 2.999 9.968 Z M 10.029 6.132 C 10.197 5.963 10.197 5.697 10.029 5.529 L 9.032 4.533 C 8.864 4.364 8.598 4.364 8.43 4.533 L 7.597 5.371 L 9.191 6.965 L 10.029 6.132 L 10.029 6.132 L 10.029 6.132 L 10.029 6.132 L 10.029 6.132 L 10.029 6.132 L 10.029 6.132 L 10.029 6.132 L 10.029 6.132 L 10.029 6.132 L 10.029 6.132 L 10.029 6.132 Z M 12.942 4.744 C 12.942 4.17 13.408 3.704 13.982 3.704 C 14.556 3.704 15.022 4.17 15.022 4.744 C 15.022 5.317 14.556 5.783 13.982 5.783 C 13.408 5.783 12.942 5.317 12.942 4.744 L 12.942 4.744 L 12.942 4.744 L 12.942 4.744 L 12.942 4.744 L 12.942 4.744 L 12.942 4.744 L 12.942 4.744 L 12.942 4.744 Z M 12.942 7.343 C 12.942 6.769 13.408 6.303 13.982 6.303 C 14.556 6.303 15.022 6.769 15.022 7.343 C 15.022 7.917 14.556 8.383 13.982 8.383 C 13.408 8.383 12.942 7.917 12.942 7.343 L 12.942 7.343 L 12.942 7.343 L 12.942 7.343 L 12.942 7.343 L 12.942 7.343 L 12.942 7.343 Z M 12.942 10.203 L 12.942 10.723 L 15.022 10.723 L 15.022 10.203 L 12.942 10.203 L 12.942 10.203 L 12.942 10.203 L 12.942 10.203 L 12.942 10.203 Z M 12.942 11.762 L 12.942 12.282 L 15.022 12.282 L 15.022 11.762 L 12.942 11.762 L 12.942 11.762 L 12.942 11.762 Z M 11.637 7.847 C 11.637 3.272 9.905 2.891 6.438 2.891 C 2.972 2.891 1.239 3.272 1.239 7.847 C 1.239 12.421 2.972 12.802 6.438 12.802 C 9.905 12.802 11.637 12.421 11.637 7.847 L 11.637 7.847 L 11.637 7.847 L 11.637 7.847 L 11.637 7.847 L 11.637 7.847 L 11.637 7.847 L 11.637 7.847 L 11.637 7.847 L 11.637 7.847 L 11.637 7.847 L 11.637 7.847 Z M 10.465 0.533 C 15.308 0.533 16 1.224 16 6.063 L 16 9.938 C 16 14.776 15.308 15.467 10.465 15.467 L 5.535 15.467 C 0.692 15.467 0 14.776 0 9.938 L 0 6.063 C 0 1.224 0.692 0.533 5.535 0.533 L 10.465 0.533 L 10.465 0.533 L 10.465 0.533 L 10.465 0.533 L 10.465 0.533 L 10.465 0.533 L 10.465 0.533 L 10.465 0.533 L 10.465 0.533 L 10.465 0.533 L 10.465 0.533 L 10.465 0.533 Z M 12.942 10.983 L 12.942 11.502 L 15.022 11.502 L 15.022 10.983 L 12.942 10.983 Z"/>
 </g>
</svg>
