<svg width="16" height="16" version="1.1" xmlns="http://www.w3.org/2000/svg">
  <defs>
    <style id="current-color-scheme" type="text/css">.ColorScheme-Text { color:#ebdbb2; } .ColorScheme-Highlight { color:#458588; }</style>
  </defs>
  <path class="ColorScheme-Text" d="m13.021 4.2674-1.1498 1.1425c-0.20228 0.1813-0.3001 0.47319-0.18671 0.71989 0.766 1.6025 0.47522 3.5128-0.78156 4.7686-1.2573 1.2553-3.1699 1.5458-4.7743 0.78013-0.23635-0.10582-0.51368-0.01623-0.69572 0.16837l-1.1684 1.1665c-0.13733 0.1345-0.20494 0.32432-0.18311 0.51465 0.02181 0.19089 0.13095 0.3605 0.2949 0.45991 2.7531 1.6663 6.2887 1.2415 8.5675-1.0293 2.2788-2.2703 2.7132-5.8006 1.0529-8.5547-0.09528-0.16747-0.2635-0.28126-0.4546-0.30784-0.19109-0.027122-0.38379 0.036686-0.52113 0.1712zm-9.9435-1.2415c-2.29 2.2618-2.7387 5.7926-1.0875 8.5536 0.095288 0.16801 0.26296 0.28178 0.45406 0.30838 0.1911 0.02688 0.38379-0.03656 0.52166-0.17177l1.1434-1.1357c0.20706-0.1813 0.30808-0.47637 0.1931-0.72627-0.76599-1.6025-0.47576-3.5128 0.78156-4.7686 1.2568-1.2553 3.1699-1.5458 4.7737-0.78076 0.23368 0.10473 0.50729 0.017798 0.68987-0.16138l1.1748-1.1734c0.13733-0.13399 0.20494-0.3238 0.18311-0.51467-0.02235-0.19034-0.13095-0.35994-0.2949-0.45991-2.7579-1.6519-6.2882-1.2144-8.5579 1.0618z" fill="currentColor"/>
</svg>
