<svg width="16" height="16" version="1.1" xmlns="http://www.w3.org/2000/svg">
  <defs>
    <style id="current-color-scheme" type="text/css">.ColorScheme-Text { color:#ebdbb2; } .ColorScheme-Highlight { color:#458588; }</style>
  </defs>
  <path class="ColorScheme-Text" d="m5.714 1c-0.2918 0-0.5275 0.2346-0.5275 0.5242 0 0.1139 0.04336 0.2184 0.1055 0.3044l-1.319 1.505c-0.05272-0.01412-0.1012-0.03528-0.1583-0.03528-0.3549 0-0.6508 0.2903-0.6508 0.6426 0 0.01412 0.01693 0.02117 0.01764 0.03528l-1.161 0.761c-0.08559-0.05926-0.1868-0.1012-0.299-0.1012-0.2918 0-0.5275 0.2346-0.5275 0.5242 0 0.1764 0.09389 0.3277 0.2286 0.4226l-0.2111 3.922c-0.1286 0.06948-0.2111 0.2163-0.2111 0.3717 0 0.2268 0.1934 0.4058 0.422 0.4058 0.01234 0 0.02328 0.0013 0.03529 0l2.884 2.925c-2.576e-4 0.0071 0 0.01058 0 0.01763 0 0.2272 0.1758 0.4226 0.4045 0.4226 0.08112 0 0.1647-0.02824 0.2287-0.06773l1.583 0.8284c-0.00324 0.02471-0.01764 0.04303-0.01764 0.06737 0 0.2896 0.2359 0.5242 0.5278 0.5242 0.2732 0 0.4825-0.2095 0.51-0.4736l4.22-1.234c0.09587 0.1326 0.2627 0.2198 0.4398 0.2198 0.2918 0 0.5275-0.2346 0.5275-0.5242 0-0.1224-0.05225-0.2321-0.1231-0.3214l1.829-4.008c0.2918 0 0.5278-0.2346 0.5278-0.5242 0-0.254-0.1804-0.459-0.422-0.5073l-0.5804-1.911c0.09104-0.07514 0.1583-0.1774 0.1583-0.3044 0-0.2272-0.1934-0.4058-0.422-0.4058-0.0194 0-0.03387 0.01412-0.05278 0.01763l-2.656-3.213c0.0039-0.02117 0.01764-0.04481 0.01764-0.06773 0-0.2272-0.1934-0.4058-0.422-0.4058-0.1362 0-0.2411 0.06842-0.3166 0.169l-4.098-0.152c-0.07203-0.2046-0.2618-0.3552-0.4924-0.3552zm0.4924 0.71 4.028 0.152c0.02646 0.09171 0.08132 0.1665 0.1583 0.2198l-0.1055 0.4564c-0.1885 0.04375-0.338 0.17-0.422 0.3383l-4.504 0.541 0.299-1.386c0.01975 0.00198 0.03245 0.01763 0.05278 0.01763 0.2248 0 0.416-0.1418 0.4924-0.3383zm4.59 0.4058 2.586 3.128c-0.02716 0.05467-0.05279 0.1041-0.05279 0.1693 0 0.1136 0.04812 0.2131 0.1231 0.2875l-0.2111 0.5916-2.251-2.84c0.04941-0.09032 0.08794-0.1944 0.08794-0.3044 0-0.2755-0.1753-0.5027-0.422-0.592l0.08794-0.4226c0.018-0.00701 0.03589-0.00701 0.05278-0.01763zm-5.348 0.0843-0.2814 1.234-0.8618 0.1012c-0.00493-0.00701-0.01234-0.01058-0.01764-0.01763l1.161-1.319zm4.432 1.404-1.302 5.04c-0.04074 0.01058-0.08499 0.01763-0.1231 0.03529l-3.34-3.77 1.565-0.169c0.07031 0.1277 0.2125 0.2198 0.3694 0.2198 0.2287 0 0.4045-0.1954 0.4045-0.4226 0-0.03175-0.01094-0.05503-0.01764-0.0843l2.251-0.8284 0.1935-0.01763zm-0.9673 0.1012-1.565 0.5748c-0.07593-0.09032-0.1711-0.1524-0.299-0.1524-0.2287 0-0.422 0.1788-0.422 0.4058 0 0.00701-2.116e-4 0.01058 0 0.01763l-1.548 0.1859 0.1231-0.6085 3.711-0.4226zm1.671 0.0843 2.445 3.111-0.51 1.42-3.06 0.71c-0.04517-0.08255-0.1054-0.1411-0.1759-0.2028zm-5.592 0.3721-0.1055 0.4904-0.3869-0.4395 0.4924-0.0508zm-1.671 0.169c0.0314 0.03773 0.06654 0.07196 0.1055 0.1012l-0.08794 0.4904-1.108 0.1355c-0.00109-0.00708 0.00109-0.01058 0-0.01763zm0.4574 0.2367c0.012 6.613e-4 0.02293 0 0.03529 0 0.012 0 0.02328 6.613e-4 0.03529 0l0.2462 0.2706-0.3694 0.05079 0.05278-0.3214zm0.4749 0.4395 0.4574 0.5073-0.2111 0.93c-0.22 0.01058-0.3869 0.1852-0.3869 0.4058 0 0.1281 0.06578 0.229 0.1583 0.3044l-1.389 2.097 0.8089-4.177zm-0.9498 0.1012-0.8794 4.547c-0.1559 0.03175-0.2783 0.1358-0.3519 0.2706l-0.2462-0.05079c0-0.1704-0.09756-0.3266-0.2462-0.3889l0.2111-3.823c0.2337-0.03175 0.4074-0.2078 0.4398-0.4395l1.073-0.1185zm1.548 0.5916 3.131 3.499c-6e-3 0.02117-0.0134 0.04515-0.01764 0.06737l-5.066 0.541c-0.03281-0.03175-0.06515-0.06138-0.1055-0.08466l1.618-2.486c0.03456 0.01058 0.06783 0.01763 0.1055 0.01763 0.2287 0 0.422-0.1788 0.422-0.4058 0-0.1623-0.1086-0.3051-0.2462-0.372l0.1583-0.7778zm8.757 0.1012c0.01094 0.00354 0.02398-0.00198 0.03525 0l0.4749 1.623-0.7388-0.9637 0.2286-0.6594zm-0.4574 1.268 0.7388 0.93-1.161 0.2706zm0.7914 1.454-1.671 3.635 0.03528-2.266c0.1766-0.03598 0.3166-0.1863 0.3166-0.372 0-0.1506-0.1015-0.2752-0.2287-0.3383l0.1231-0.3214 1.425-0.3383zm-1.618 0.3889-0.08794 0.2198c-0.214 0-0.3869 0.1764-0.3869 0.3889 0 0.1774 0.1168 0.3277 0.2814 0.372l-0.05279 2.587c-0.129 0.03952-0.2331 0.1393-0.299 0.2536l-2.304-0.5073c0-0.2268-0.1934-0.4058-0.422-0.4058-0.2227 0-0.4127 0.17-0.422 0.3889l-0.5629 0.1355 0.7034-2.13c0.3849-7e-3 0.7071-0.2946 0.7739-0.6594l2.779-0.6426zm-4.273 0.8794c0.04828 0.0882 0.1165 0.1729 0.1935 0.2367l-0.8089 2.469-1.688 0.4226-2.726-2.553c0.00388-0.01058 0.01411-0.02471 0.01764-0.03528l5.014-0.5411zm-6.102 0.4395 0.07034 0.01763c0.00327 0.02117-0.00565 0.04762 0 0.06773l-0.07034-0.0843zm0.422 0.4226c0.05 0.01763 0.1031 0.03526 0.1583 0.03526 0.01164 0 0.02364 6.63e-4 0.03529 0l2.304 2.147c-0.03625-0.01058-0.08354-0.01763-0.1231-0.01763-0.08112 0-0.1472 0.02821-0.2111 0.06773l-2.163-2.232zm6.297 1.725c0.05923 0.1552 0.2099 0.2536 0.3869 0.2536 0.1715 0 0.3241-0.08926 0.3869-0.2367l2.005 0.4395-3.906 1.133 0.4749-1.437zm-1.284 0.3214-0.422 1.268c-0.02328 0.0035-0.04828 0.01058-0.07034 0.01763l-1.002-0.93zm-2.111 0.5073 0.2638 0.2536-0.3694-0.2028c5.292e-4 -0.01058 0-0.02117 0-0.03528z" fill="currentColor"/>
</svg>
