<svg width="16" height="16" version="1.1" xmlns="http://www.w3.org/2000/svg">
  <defs>
    <style type="text/css" id="current-color-scheme">.ColorScheme-Text { color:#ebdbb2; } .ColorScheme-Highlight { color:#458588; }</style>
  </defs>
  <path class="ColorScheme-Text" fill="currentColor" d="m6.092 1a1.273 1.273 0 0 0-1.273 1.273 1.273 1.273 0 0 0 1.273 1.271h1.271v-1.271a1.273 1.273 0 0 0-1.271-1.273zm3.816 0a1.273 1.273 0 0 0-1.271 1.273v3.818a1.273 1.273 0 0 0 1.271 1.271 1.273 1.273 0 0 0 1.273-1.271v-3.818a1.273 1.273 0 0 0-1.273-1.273zm-7.635 3.818a1.273 1.273 0 0 0-1.273 1.273 1.273 1.273 0 0 0 1.273 1.271h3.818a1.273 1.273 0 0 0 1.271-1.271 1.273 1.273 0 0 0-1.271-1.273h-3.818zm11.45 0a1.273 1.273 0 0 0-1.271 1.273v1.271h1.271a1.273 1.273 0 0 0 1.273-1.271 1.273 1.273 0 0 0-1.273-1.273zm-11.45 3.818a1.273 1.273 0 0 0-1.273 1.271 1.273 1.273 0 0 0 1.273 1.273 1.273 1.273 0 0 0 1.271-1.273v-1.271h-1.271zm3.818 0a1.273 1.273 0 0 0-1.273 1.271v3.818a1.273 1.273 0 0 0 1.273 1.273 1.273 1.273 0 0 0 1.271-1.273v-3.818a1.273 1.273 0 0 0-1.271-1.271zm3.816 0a1.273 1.273 0 0 0-1.271 1.271 1.273 1.273 0 0 0 1.271 1.273h3.818a1.273 1.273 0 0 0 1.273-1.273 1.273 1.273 0 0 0-1.273-1.271h-3.818zm-1.271 3.818v1.271a1.273 1.273 0 0 0 1.271 1.273 1.273 1.273 0 0 0 1.273-1.273 1.273 1.273 0 0 0-1.273-1.271h-1.271z"/>
</svg>
