<svg width="16" height="16" version="1.1" xmlns="http://www.w3.org/2000/svg">
  <defs>
    <style id="current-color-scheme" type="text/css">.ColorScheme-Text { color:#ebdbb2; } .ColorScheme-Highlight { color:#458588; }</style>
  </defs>
  <path class="ColorScheme-Text" d="m6.516 1-2.758 7h2.699l1.471-3.828 1.475 3.828h0.2832c0.6277-0.5082 1.381-0.8381 2.18-0.9551l-2.379-6.045zm5.144 7-0.07813 0.9219c-0.292 0.1084-0.5634 0.2656-0.8027 0.4648l-0.8379-0.3945-0.875 1.516 0.7598 0.5273c-0.02682 0.1535-0.04054 0.309-0.04102 0.4648-1.71e-4 0.1558 0.0129 0.3113 0.03906 0.4648l-0.7578 0.5273 0.875 1.514 0.8359-0.3926c0.2402 0.1981 0.5123 0.354 0.8047 0.4609l0.07423 0.9258h1.75l0.07813-0.9219c0.292-0.1084 0.5634-0.2656 0.8027-0.4648l0.8379 0.3945 0.875-1.516-0.7598-0.5273c0.02682-0.1535 0.04055-0.309 0.04102-0.4648 1.72e-4 -0.1558-0.0129-0.3113-0.03906-0.4648l0.7578-0.5273-0.875-1.514-0.8359 0.3926c-0.2402-0.1981-0.5123-0.354-0.8047-0.4609l-0.07422-0.9258zm-9.16 0.5c-0.831 0-1.5 0.669-1.5 1.5s0.669 1.5 1.5 1.5h5.5c0.0024-0.1672 0.01416-0.3341 0.03516-0.5h-5.535c-0.554 0-1-0.446-1-1s0.446-1 1-1h6.264c0.1176-0.1756 0.2475-0.3427 0.3887-0.5zm10.04 2c0.5523-1.03e-4 1 0.4477 1 1 1.03e-4 0.5523-0.4477 1-1 1-0.5523 1.03e-4 -1-0.4477-1-1-1.03e-4 -0.5523 0.4477-1 1-1zm-10.35 1.5-1.182 3h2.768l1.152-3z" fill="currentColor"/>
</svg>
