<svg width="16" height="16" version="1.1" xmlns="http://www.w3.org/2000/svg">
  <defs>
    <style id="current-color-scheme" type="text/css">.ColorScheme-Text { color:#ebdbb2; } .ColorScheme-Highlight { color:#458588; }</style>
  </defs>
  <path class="ColorScheme-Text" d="m0.51918 8.1392c-0.1023-0.029639-0.20882 0.030419-0.23824 0.1465-0.1848 0.7307-0.2793 1.487-0.2793 2.25 0 0.131 0.0037 0.262 0.0098 0.401 0.0048 0.111 0.09019 0.199 0.1934 0.199 0.77861-0.03749 1.5572-0.0726 2.3358-0.11109 0.10705-0.0062 0.19046-0.10545 0.1855-0.219-4e-3 -0.094-0.0059-0.181-0.0059-0.266 0-0.505 0.0617-1.0079 0.1836-1.4899 0.028-0.111-0.0332-0.2258-0.1367-0.2559zm14.872-0.3066-2.225 0.7461c-0.102 0.0343-0.159 0.152-0.127 0.2617 0.16 0.5461 0.24 1.1199 0.24 1.6989 0 0.085-2e-3 0.172-6e-3 0.266-0.0043 0.11862 0.08281 0.21293 0.186 0.219l2.328 0.11109h8e-3c0.103 0 0.188-0.088 0.193-0.199 6e-3 -0.139 0.01-0.27 0.01-0.401 0-0.8745-0.123-1.738-0.365-2.566-0.032-0.1097-0.14-0.1712-0.242-0.1367zm-12.663-3.7403c-0.7069 0.6661-1.294 1.451-1.744 2.334-0.04882 0.095932-0.02066 0.22666 0.07614 0.2832l2.045 1.199c0.08728 0.051478 0.20849 0.024288 0.2636-0.0839 0.2977-0.5838 0.6867-1.102 1.154-1.543 0.08209-0.077009 0.08434-0.21363 0.0176-0.2949l-1.539-1.875c-0.07222-0.08841-0.1956-0.09251-0.27334-0.0194zm10.05-0.1816-1.47 1.938c-0.06728 0.087461-0.05224 0.22212 0.029 0.293 0.483 0.4209 0.888 0.9225 1.207 1.494 0.05595 0.098586 0.17446 0.13076 0.268 0.0723l2-1.281c0.09457-0.060828 0.1193-0.19153 0.066-0.2851-0.482-0.8642-1.096-1.625-1.826-2.262-0.07812-0.06816-0.20149-0.06324-0.274 0.0308zm-5.855-1.8732c-0.9335 0.1357-1.828 0.4449-2.66 0.9179-0.0948 0.0539-0.1303 0.1797-0.0801 0.2813l1.092 2.207c0.053069 0.1072 0.17565 0.13486 0.2617 0.0859 0.548-0.3115 1.137-0.5141 1.752-0.6035 0.1063-0.0154 0.1805-0.1204 0.1661-0.2343l-0.3125-2.477c-0.0144-0.1139-0.1128-0.1931-0.2188-0.1777zm1.863-0.0372c-0.10811-0.01152-0.20051 0.06897-0.2109 0.1856l-0.2266 2.486c-0.0104 0.1144 0.069 0.2175 0.1758 0.2285 0.6183 0.0642 1.214 0.243 1.771 0.5313 0.08823 0.044771 0.20912 0.012474 0.26-0.0977l1.012-2.25c0.046-0.1035 6e-3 -0.2274-0.09-0.2773-0.848-0.4378-1.754-0.7092-2.692-0.8067zm2.2935 5.9981-2.939 2.008c-0.1435-0.01141-0.2878-0.0073-0.4304 0.01227-1.094 0.1516-1.858 1.161-1.707 2.256 0.1516 1.094 1.161 1.858 2.256 1.707 1.094-0.1516 1.858-1.161 1.707-2.256-0.01145-0.07623-0.02728-0.1517-0.04748-0.2261l1.482-3.265c0.08538-0.18815-0.14621-0.3559-0.32112-0.23617z" fill="currentColor"/>
</svg>
