<svg width="16" height="16" version="1.1" xmlns="http://www.w3.org/2000/svg">
  <defs>
    <style id="current-color-scheme" type="text/css">.ColorScheme-Text { color:#ebdbb2; } .ColorScheme-Highlight { color:#458588; }</style>
  </defs>
  <path class="ColorScheme-Text" d="m10.283 1.001-1.1016 1.6699c-0.20709-0.029203-0.41587-0.044862-0.625-0.046875-0.6321 1.202e-4 -1.258 0.1249-1.8418 0.36719l-1.4941-1.3242 0.40234 1.9629c-0.40671 0.31526-0.76017 0.69377-1.0469 1.1211-1.4708-0.54164-3.0121-0.86792-4.5762-0.96875v1.2178c6.4331 0.28985 11.814 3.9427 14 10l0.40234-9.76e-4c-0.50992-1.5806-1.2588-3.0738-2.2207-4.4277 0.33331-0.38148 0.60423-0.81323 0.80273-1.2793l2.0156-0.12109-1.6836-1.1113c0.02937-0.20838 0.04503-0.41847 0.04687-0.62891-8.11e-4 -0.62514-0.12354-1.2441-0.36132-1.8223l1.332-1.498-1.9648 0.40234c-0.51156-0.66872-1.1898-1.1914-1.9668-1.5156zm-1.7266 2.3613c2.2463 7.65e-4 4.0667 1.8221 4.0664 4.0684-0.0019 0.92788-0.32099 1.8272-0.9043 2.5488-1.6978-2.1646-3.9166-3.8633-6.4492-4.9375 0.76396-1.0534 1.9858-1.6778 3.2871-1.6797z" fill="currentColor"/>
</svg>
