<svg width="16" height="16" version="1.1" xmlns="http://www.w3.org/2000/svg">
  <defs>
    <style type="text/css" id="current-color-scheme">.ColorScheme-Text { color:#ebdbb2; } .ColorScheme-Highlight { color:#458588; }</style>
  </defs>
  <path class="ColorScheme-Text" fill="currentColor" d="m5 1c-2.216 0-4 1.784-4 4v6c0 2.216 1.784 4 4 4h6c2.216 0 4-1.784 4-4v-6c0-2.216-1.784-4-4-4h-6zm0 2h0.01953v4.605c-0.4468 0.1891-0.7598 0.6312-0.7598 1.148 0 0.6906 0.5575 1.246 1.248 1.246s1.246-0.5555 1.246-1.246c0-0.5074-0.3012-0.9418-0.7344-1.137v-4.617h1.5v4.604c-0.4507 0.1874-0.7656 0.6303-0.7656 1.15 0 0.6906 0.5555 1.246 1.246 1.246s1.246-0.5555 1.246-1.246c0-0.5049-0.2969-0.9385-0.7266-1.135v-4.619h1.5v4.602c-0.4537 0.186-0.7734 0.6301-0.7734 1.152 0 0.6906 0.5555 1.246 1.246 1.246 0.6906 0 1.248-0.5555 1.248-1.246 0-0.5022-0.2947-0.9331-0.7207-1.131v-4.623c1.099 0.01051 1.98 0.8986 1.98 2v6c0 1.108-0.892 2-2 2h-6c-1.108 0-2-0.892-2-2v-6c0-1.108 0.892-2 2-2z"/>
</svg>
