<svg width="16" height="16" version="1.1" xmlns="http://www.w3.org/2000/svg">
  <defs>
    <style id="current-color-scheme" type="text/css">.ColorScheme-Text { color:#ebdbb2; } .ColorScheme-Highlight { color:#458588; }</style>
  </defs>
  <path class="ColorScheme-Text" d="m6.482 1.368c0.337-0.4792 1.122-0.4853 1.47-0.01483 0.3047 0.3643 0.2511 0.9369-0.08217 1.265-0.8977 1.132-2.261 1.723-3.576 2.223-0.5424 0.2342-1.15 0.4085-1.569 0.8465-0.2847 0.3626-0.1803 0.8964 0.02148 1.274 0.4436 0.6724 1.208 1.014 1.809 1.519 0.7633 0.5814 1.34 1.446 1.421 2.419 0.07987 1.076-0.172 2.262-0.9793 3.031-0.7342 0.7034-1.803 0.8303-2.774 0.7875-0.3812-0.02693-0.7682-0.0032-1.145-0.0615-0.5719-0.1267-0.8842-0.8448-0.5846-1.349 0.194-0.3821 0.6479-0.5424 1.055-0.4827 0.6597-0.001277 1.362 0.1346 1.989-0.1305 0.4628-0.2345 0.5433-0.8226 0.5866-1.287 0.06333-0.5295-0.1953-1.046-0.6112-1.366-0.7895-0.65-1.752-1.134-2.309-2.027-0.5845-0.9259-0.7207-2.194-0.1643-3.164 0.5484-0.9432 1.612-1.363 2.576-1.748 1.039-0.4058 2.164-0.8188 2.868-1.734zm2.948 7.114c0.172-0.7834 0.8433-1.299 1.434-1.777 0.6489-0.5293 1.39-0.9909 1.852-1.707 0.1979-0.3614 0.0822-0.7967 0.0022-1.177-0.09864-0.4801-0.512-0.8493-0.9959-0.9073-0.5569-0.1195-1.222-0.0436-1.585 0.4456-0.3446 0.4348-0.5639 0.9645-0.7067 1.494l-9.9e-6 3.629zm0 0.604c-0.00305 1.691 0.0061 3.382-0.0046 5.073-0.03785 0.5837-0.7007 1.002-1.244 0.7852-0.4203-0.1399-0.6652-0.593-0.6176-1.023 0.001546-3.106-0.003093-6.211 0.002322-9.317 0.1232-0.6192 0.3831-1.21 0.6756-1.768 0.4639-0.8614 1.268-1.577 2.247-1.764 0.9317-0.1739 1.951-0.04701 2.762 0.464 0.8311 0.5196 1.29 1.473 1.396 2.424 0.104 0.7102 0.0375 1.475-0.3811 2.08-0.7148 1.134-1.935 1.78-2.886 2.682-0.1796 0.2612 0.2636 0.5755 0.3822 0.8285 0.9735 1.261 2.105 2.389 3.235 3.508 0.2862 0.2731 0.6449 0.568 0.6241 1.006 0.02246 0.6024-0.6335 1.088-1.203 0.8929-0.3958-0.1261-0.6211-0.5085-0.9279-0.7631-1.127-1.127-2.256-2.261-3.224-3.531-0.3512-0.479-0.7066-0.9898-0.8347-1.58z" fill="currentColor"/>
</svg>
