<svg width="16" height="16" version="1.1" xmlns="http://www.w3.org/2000/svg">
  <defs>
    <style id="current-color-scheme" type="text/css">.ColorScheme-Text { color:#ebdbb2; } .ColorScheme-Highlight { color:#458588; }</style>
  </defs>
  <path class="ColorScheme-Text" d="m8 1c-0.5523 0-1 0.4477-1 1s0.4477 1 1 1 1-0.4477 1-1-0.4477-1-1-1zm0 3c-2.761 0-5 2.239-5 5s2.239 5 5 5 5-2.239 5-5-2.239-5-5-5zm0 1 3.459 1.945v1.838l-1.514-0.541v-0.4316l-1.945-1.082-1.514 0.8652 4.973 1.73v1.73l-3.459 1.945-3.459-1.945v-1.838l1.514 0.5391v0.4336l1.945 1.082 1.514-0.8652-4.973-1.73v-1.73zm5.5 7c-0.8284 0-1.5 0.6716-1.5 1.5s0.6716 1.5 1.5 1.5 1.5-0.6716 1.5-1.5-0.6716-1.5-1.5-1.5zm-11 1c-0.2761 0-0.5 0.2239-0.5 0.5s0.2239 0.5 0.5 0.5 0.5-0.2239 0.5-0.5-0.2239-0.5-0.5-0.5z" fill="currentColor"/>
</svg>
