<svg xmlns="http://www.w3.org/2000/svg" width="16" height="16" version="1.1">
 <defs>
  <style id="current-color-scheme" type="text/css">
   .ColorScheme-Text { color:#ebdbb2; } .ColorScheme-Highlight { color:#458588; }
  </style>
  <linearGradient id="arrongin" x1="0%" x2="0%" y1="0%" y2="100%">
   <stop offset="0%" style="stop-color:#d79921"/>
   <stop offset="100%" style="stop-color:#b57614"/>
  </linearGradient>
  <linearGradient id="aurora" x1="0%" x2="0%" y1="0%" y2="100%">
   <stop offset="0%" style="stop-color:#83a598"/>
   <stop offset="100%" style="stop-color:#b16286"/>
  </linearGradient>
  <linearGradient id="fitdance" x1="0%" x2="0%" y1="0%" y2="100%">
   <stop offset="0%" style="stop-color:#8ec07c"/>
   <stop offset="100%" style="stop-color:#458588"/>
  </linearGradient>
  <linearGradient id="oomox" x1="0%" x2="0%" y1="0%" y2="100%">
   <stop offset="0%" style="stop-color:#458588"/>
   <stop offset="100%" style="stop-color:#928374"/>
  </linearGradient>
  <linearGradient id="rainblue" x1="0%" x2="0%" y1="0%" y2="100%">
   <stop offset="0%" style="stop-color:#b8bb26"/>
   <stop offset="100%" style="stop-color:#076678"/>
  </linearGradient>
  <linearGradient id="sunrise" x1="0%" x2="0%" y1="0%" y2="100%">
   <stop offset="0%" style="stop-color:#fe8019"/>
   <stop offset="100%" style="stop-color:#fabd2f"/>
  </linearGradient>
  <linearGradient id="telinkrin" x1="0%" x2="0%" y1="0%" y2="100%">
   <stop offset="0%" style="stop-color:#83a598"/>
   <stop offset="100%" style="stop-color:#83a598"/>
  </linearGradient>
  <linearGradient id="60spsycho" x1="0%" x2="0%" y1="0%" y2="100%">
   <stop offset="0%" style="stop-color:#fb4934"/>
   <stop offset="25%" style="stop-color:#fabd2f"/>
   <stop offset="50%" style="stop-color:#fe8019"/>
   <stop offset="100%" style="stop-color:#689d6a"/>
  </linearGradient>
  <linearGradient id="90ssummer" x1="0%" x2="0%" y1="0%" y2="100%">
   <stop offset="0%" style="stop-color:#b16286"/>
   <stop offset="20%" style="stop-color:#8ec07c"/>
   <stop offset="50%" style="stop-color:#fabd2f"/>
   <stop offset="100%" style="stop-color:#458588"/>
  </linearGradient>
  <linearGradient id="cyberneon" x1="0%" x2="0%" y1="0%" y2="100%">
   <stop id="stop56" offset="0" style="stop-color:#83a598"/>
   <stop id="stop58" offset="1" style="stop-color:#b16286"/>
  </linearGradient>
 </defs>
 <path fill="currentColor" class="ColorScheme-Text" d="M7.91887 0L1 3.89189V7.35139L10.9459 10.8108L7.91887 12.5405L4.02703 10.3784V9.51354L1 8.43241V12.1081L7.91887 16L14.8378 12.1081V8.64861L4.8919 5.18924L7.91887 3.45946L11.8108 5.62164V6.48646L14.8378 7.56759V3.89189L7.91887 0Z"/>
</svg>
