<svg width="16" height="16" version="1.1" xmlns="http://www.w3.org/2000/svg">
  <defs>
    <style id="current-color-scheme" type="text/css">.ColorScheme-Text { color:#ebdbb2; } .ColorScheme-Highlight { color:#458588; }</style>
  </defs>
  <path class="ColorScheme-Text" d="m7.9453 1v0.00195c-3.8525 0.029362-6.9453 3.1383-6.9453 6.998 0 3.878 3.122 7 7 7 3.738 0 6.7721-2.9013 6.9863-6.584l0.013672-0.011719v-6.0039c-1e-6 -0.7756-0.62479-1.4004-1.4004-1.4004zm0.054687 1.5c1.5625 0.00234 3.0503 0.66918 4.0918 1.834h-3.1758v1.0762c1.098 0.3879 1.8327 1.4253 1.834 2.5898h0.91602c-0.001683-1.0534-0.45632-2.0552-1.248-2.75h2.3379c0.48527 0.8354 0.74193 1.7839 0.74414 2.75-0.0023 1.5625-0.66918 3.0503-1.834 4.0918v-3.1758h-1.0781c-0.38766 1.0973-1.4241 1.8318-2.5879 1.834v0.91602c1.0534-0.0017 2.0552-0.45632 2.75-1.248v2.3379c-0.8354 0.48527-1.7839 0.74193-2.75 0.74414-1.5625-0.002343-3.0503-0.66918-4.0918-1.834h3.1758v-1.0781c-1.0973-0.38766-1.8318-1.4241-1.834-2.5879h-0.91602c0.0017 1.0534 0.45632 2.0552 1.248 2.75h-2.3379c-0.48527-0.8354-0.74193-1.7839-0.74414-2.75 0.0023434-1.5625 0.66918-3.0503 1.834-4.0918v3.1758h1.0762c0.3879-1.098 1.4253-1.8327 2.5898-1.834v-0.91602c-1.0534 0.00168-2.0552 0.45633-2.75 1.248v-2.3379c0.8354-0.48527 1.7839-0.74193 2.75-0.74414zm0 3.666c-1.013-3.596e-4 -1.8343 0.82095-1.834 1.834-3.6e-4 1.013 0.82095 1.8343 1.834 1.834 1.013 3.596e-4 1.8343-0.82095 1.834-1.834 3.6e-4 -1.013-0.82095-1.8343-1.834-1.834z" fill="currentColor"/>
</svg>
