<svg width="16" height="16" version="1.1" xmlns="http://www.w3.org/2000/svg">
  <defs>
    <style type="text/css" id="current-color-scheme">.ColorScheme-Text { color:#ebdbb2; } .ColorScheme-Highlight { color:#458588; }</style>
  </defs>
  <path class="ColorScheme-Text" fill="currentColor" d="m8.561 1a4 4 0 0 0-3.729 2.578 3 3 0 0 0-2.684 2.979 3 3 0 0 0 1.529 2.605 5 5 0 0 0-0.07812 0.8379 5 5 0 0 0 5 5 5 5 0 0 0 5-5 5 5 0 0 0-1.365-3.432 4 4 0 0 0 0.3262-1.568 4 4 0 0 0-4-4zm0 1a3 3 0 0 1 3 3 3 3 0 0 1-0.1348 0.877 5 5 0 0 0-2.826-0.877 5 5 0 0 0-0.8398 0.07812 3 3 0 0 0-1.877-1.43 3 3 0 0 1 2.678-1.648zm-2.969 2.596a2.061 2.061 0 0 1 1.229 0.7441 5 5 0 0 0-1.111 0.5938 3 3 0 0 1-0.1484-0.9336 3 3 0 0 1 0.03125-0.4043zm-1.006 0.0625a4 4 0 0 0-0.02539 0.3418 4 4 0 0 0 0.3516 1.635 5 5 0 0 0-0.9746 1.596 2.061 2.061 0 0 1-0.7891-1.613 2.061 2.061 0 0 1 1.438-1.959zm4.014 1.342a4 4 0 0 1 2.371 0.7812 3 3 0 0 1-2.41 1.219 3 3 0 0 1-0.7363-0.09961 3 3 0 0 0 0.3242-1.344 3 3 0 0 0-0.04492-0.5176 4 4 0 0 1 0.4961-0.03906zm-1.365 0.248a2.061 2.061 0 0 1 0.03516 0.3691 2.061 2.061 0 0 1-0.2402 0.9531 3 3 0 0 1-0.8477-0.75 4 4 0 0 1 1.053-0.5723zm4.461 1.223a4 4 0 0 1 0.9043 2.529 4 4 0 0 1-4 4 4 4 0 0 1-4-4 4 4 0 0 1 0.03906-0.4922 3 3 0 0 0 0.5098 0.04883 3 3 0 0 0 2.041-0.8086 4 4 0 0 0 1.371 0.252 4 4 0 0 0 3.135-1.529zm-6.229 0.05664a4 4 0 0 0 0.8789 0.7988 2.061 2.061 0 0 1-1.137 0.3516 2.061 2.061 0 0 1-0.3652-0.0332 4 4 0 0 1 0.623-1.117z"/>
</svg>
