<svg width="16" height="16" version="1.1" xmlns="http://www.w3.org/2000/svg">
  <defs>
    <style type="text/css" id="current-color-scheme">.ColorScheme-Text { color:#ebdbb2; } .ColorScheme-Highlight { color:#458588; }</style>
  </defs>
  <path class="ColorScheme-Text" fill="currentColor" d="m2 1c-1.108 0-2 0.892-2 2v10c0 1.108 0.892 2 2 2h12c1.108 0 2-0.892 2-2v-10c0-1.108-0.892-2-2-2h-12zm0.6738 2c0.08918 5.9e-6 0.1784 0.03265 0.2461 0.09766l2.777 2.666c0.1448 0.1389 0.1239 0.3538 0 0.4727l-2.777 2.668c-0.1359 0.1304-0.3563 0.1304-0.4922 0l-0.3262-0.3125c-0.1359-0.1304-0.1359-0.3403 0-0.4707l2.209-2.119-2.209-2.119c-0.1359-0.1304-0.1359-0.3403 0-0.4707l0.3262-0.3145c0.06775-0.06502 0.1569-0.09766 0.2461-0.09766zm4.629 4.998h3.398c0.1662 0 0.3008 0.1346 0.3008 0.3008v0.3984c0 0.1662-0.1346 0.3008-0.3008 0.3008h-3.398c-0.1662 0-0.3008-0.1346-0.3008-0.3008v-0.3984c0-0.1662 0.1346-0.3008 0.3008-0.3008z"/>
</svg>
