<svg width="16" height="16" version="1.1" xmlns="http://www.w3.org/2000/svg">
  <defs>
    <style id="current-color-scheme" type="text/css">.ColorScheme-Text { color:#ebdbb2; } .ColorScheme-Highlight { color:#458588; }</style>
  </defs>
  <path class="ColorScheme-Text" d="m2 1 2e-3 1.098c-0.02775 0.9074 0.2391 1.714 0.5586 2.502 0.5556 1.314 2.057 1.802 2.963 2.609 0.5747 0.5249 0.7283 1.487 0.8105 1.949 0.137 0.7707 0.5225 5.071 0.6719 5.701 0.1372 0.1467 0.9941 0.1406 0.9941 0.1406s0.8569 6e-3 0.9941-0.1406c0.1499-0.6324 0.5341-4.926 0.6719-5.701 0.08223-0.4625 0.2359-1.425 0.8105-1.949 0.9059-0.8078 2.407-1.296 2.963-2.609 0.3195-0.7883 0.5863-1.595 0.5586-2.502l2e-3 -1.098-0.5 1.096s-1.494 1.23-2.498 1.426c-0.9866 0.175-5.002 0.1564-6.004 0-0.9835-0.1807-2.498-1.426-2.498-1.426zm2 0v0.9512s0.05009 0.305 0.998 0.5703c0.9229 0.2226 5.03 0.2337 6.004 0 1.016-0.2578 0.998-0.5703 0.998-0.5703v-0.9512l-2 1.24v-0.7695l-1 0.7695v-0.7695l-1 0.7695-1-0.7695v0.7695l-1-0.7695v0.7695zm0.9961 3.219 2.5 1.781c-0.2624 0.4515-0.6742 0.7184-1.111 0.7188-1.411-0.0023-1.389-2.5-1.389-2.5zm6.008 0s0.02184 2.498-1.389 2.5c-0.4371-3.98e-4 -0.849-0.2673-1.111-0.7188zm-10 0.7812 1 2-2 1.508h2.516l-2.516 2.492h3l-2 2.477 3-0.4766-1 2 3-1c-0.03964-0.3396-0.4046-2.548-0.4531-2.83-0.05978-0.8939-0.1176-1.476-0.2129-2.012-0.08223-0.4625-0.2358-0.9247-0.8105-1.449-0.8432-0.6956-3.523-2.709-3.523-2.709zm14 0s-2.68 2.013-3.523 2.709c-0.5747 0.5245-0.7283 0.9867-0.8105 1.449-0.0953 0.536-0.1531 1.118-0.2129 2.012-0.04854 0.282-0.4135 2.49-0.4531 2.83l3 1-1-2 3 0.4766-2-2.477h3l-2.516-2.492h2.516l-2-1.508zm-5.801 3.402-0.3535 4.5c-0.123-0.2072-0.272-1.717-0.4434-1.852v1.906h-0.8008v-1.906c-0.1726 0.136-0.3238 1.654-0.4473 1.857-0.1181-1.204-0.2353-3.292-0.3535-4.496 0.0243 0.0093 0.07031 0.03125 0.07031 0.03125s0.4686 1.156 0.7305 1.557v-1h0.8008v1c0.3494-0.2753 0.6102-1.003 0.7305-1.568 0.0225-0.0094 0.04348-0.0205 0.06641-0.0293z" fill="currentColor"/>
</svg>
