<svg width="16" height="16" version="1.1" xmlns="http://www.w3.org/2000/svg">
  <defs>
    <style id="current-color-scheme" type="text/css">.ColorScheme-Text { color:#ebdbb2; } .ColorScheme-Highlight { color:#458588; }</style>
  </defs>
  <path class="ColorScheme-Text" fill="currentColor" d="m2 1c-1.108 0-2 0.892-2 2v10c0 1.108 0.892 2 2 2h5.5v-14zm6.5 0v14h5.5c1.108 0 2-0.892 2-2v-10c0-1.108-0.892-2-2-2zm-6.918 2c0.07717 1e-7 0.15434 0.029339 0.21289 0.087891l2.2012 2.2012c0.11623 0.11623 0.11762 0.30816 0 0.42578l-2.1973 2.1973c-0.11783 0.11783-0.30795 0.11783-0.42578 0l-0.28125-0.28125c-0.11783-0.11783-0.11781-0.30794 0-0.42578l1.7031-1.7031-1.707-1.707c-0.11783-0.11783-0.11783-0.306 0-0.42383l0.28125-0.2832c0.058552-0.058552 0.13572-0.087891 0.21289-0.087891zm8 0c0.07717 1e-7 0.15434 0.029339 0.21289 0.087891l2.2012 2.2012c0.11623 0.11623 0.11762 0.30816 0 0.42578 0-5e-7 -2.1941 2.1951-2.1973 2.1973-0.11783 0.11783-0.30795 0.11783-0.42578 0l-0.28125-0.28125c-0.11783-0.11783-0.11781-0.30794 0-0.42578l1.7031-1.7031-1.707-1.707c-0.11783-0.11783-0.11783-0.306 0-0.42383l0.28125-0.2832c0.058552-0.058552 0.13572-0.087891 0.21289-0.087891zm-5.7695 4h2.8867c0.1662 0 0.30078 0.13458 0.30078 0.30078v0.39844c0 0.1662-0.13458 0.30078-0.30078 0.30078h-2.8867c-0.1662 0-0.30078-0.13458-0.30078-0.30078v-0.39844c0-0.1662 0.13458-0.30078 0.30078-0.30078zm8 0h2.8867c0.1662 0 0.30078 0.13458 0.30078 0.30078v0.39844c0 0.1662-0.13458 0.30078-0.30078 0.30078h-2.8867c-0.1662 0-0.30078-0.13458-0.30078-0.30078v-0.39844c0-0.1662 0.13458-0.30078 0.30078-0.30078z"/>
</svg>
