<svg width="16" height="16" version="1.1" xmlns="http://www.w3.org/2000/svg">
  <defs>
    <style id="current-color-scheme" type="text/css">.ColorScheme-Text { color:#ebdbb2; } .ColorScheme-Highlight { color:#458588; }</style>
  </defs>
  <path class="ColorScheme-Text" d="m15.98 6.645-2.121-3.99c-0.159-0.1987-0.3881-0.09636-0.447 0.051l-1.147 2.701-3.769 1.932-0.176-0.332c-0.1-0.188-0.335-0.26-0.527-0.162-0.19 0.097-0.265 0.329-0.165 0.517l0.176 0.331-0.651 0.334-0.563-1.058 1.01-0.517c0.259-0.134 0.36-0.448 0.224-0.702-0.1157-0.2258-0.4313-0.3655-0.715-0.22l-2.981 1.527c-0.26 0.134-0.361 0.448-0.225 0.703 0.1201 0.2288 0.4353 0.3641 0.715 0.22l1.01-0.517 0.562 1.058-0.719 0.368-0.176-0.331c-0.1-0.188-0.337-0.26-0.527-0.163-0.187 0.09726-0.2677 0.3255-0.165 0.517l0.176 0.332c-0.00722-0.02454-3.748 1.919-3.748 1.919-0.2985-0.06417-0.5975-0.1274-0.896-0.191-0.08265-0.01653-0.1641 0.06543-0.13 0.153l0.975 1.834c0.02474 0.05187 0.1672 0.06523 0.203-0.017 0.1207-0.282 0.2401-0.5646 0.36-0.847l1.044-0.535c4e-3 0.291 0.076 0.586 0.222 0.861 0.501 0.942 1.685 1.306 2.644 0.815l1.139-0.585 0.205 0.385c0.099 0.188 0.336 0.26 0.527 0.163 0.19-0.098 0.265-0.33 0.165-0.517l-0.205-0.385 0.719-0.368 0.597 1.122c0.139 0.262 0.467 0.363 0.733 0.226 0.2526-0.128 0.3753-0.4459 0.23-0.719l-0.597-1.123 0.652-0.333 0.205 0.384c0.099 0.187 0.335 0.261 0.526 0.162 0.192-0.098 0.265-0.33 0.166-0.516l-0.205-0.385 1.51-0.775c0.7952-0.4089 1.379-1.519 0.813-2.585-0.146-0.275-0.351-0.501-0.592-0.671l0.712-0.365c0.9819 0.2089 1.964 0.4176 2.946 0.626 0.1923 0.03561 0.3524-0.1503 0.281-0.332zm-11.03 5.652c-0.432 0.221-0.963 0.057-1.188-0.366s-0.058-0.945 0.372-1.165l1.141-0.585 0.814 1.532c-0.38 0.194-0.7595 0.3893-1.139 0.584zm1.831-0.939-0.814-1.531c0.2397-0.1226 0.4793-0.2453 0.719-0.368l0.814 1.531c-0.2391 0.1238-0.4793 0.2454-0.719 0.368zm1.683-0.862-0.815-1.531 0.652-0.334 0.814 1.531zm2.672-1.37-1.329 0.682-0.815-1.531c0.4524-0.2339 0.9064-0.4644 1.36-0.696 0.421-0.184 0.921-0.016 1.137 0.39 0.191 0.358 0.1 0.787-0.193 1.044-0.07019 0.06299-0.1469 0.1062-0.16 0.111z" fill="currentColor"/>
</svg>
