<svg width="16" height="16" version="1.1" xmlns="http://www.w3.org/2000/svg">
  <defs>
    <style id="current-color-scheme" type="text/css">.ColorScheme-Text { color:#ebdbb2; } .ColorScheme-Highlight { color:#458588; }</style>
  </defs>
  <path class="ColorScheme-Text" d="m8.145 15q-3.21 0-5.144-1.788t-1.934-4.98q0-3.132 2.089-5.182t5.163-2.05q2.958 0 4.785 1.673 1.828 1.672 1.828 4.128 0 2.127-1.18 3.519t-2.94 1.392q-0.483 0-0.9468-0.2511-0.4646-0.2511-0.6195-0.7542-0.5994 1.005-1.914 1.005-1.238 0-2.012-0.9091-0.7735-0.9082-0.7735-2.398 0-1.547 1.015-2.775 1.016-1.228 2.582-1.228 1.141 0 1.586 0.7928l0.09625-0.5416h1.914l-0.6379 3.441q-0.2511 1.257-0.2511 1.547 0 0.329 0.3281 0.329 0.735 0 1.296-0.8601 0.5609-0.861 0.5609-2.272 0-1.721-1.18-2.833-1.18-1.111-3.442-1.111-2.359 0-3.848 1.508-1.488 1.508-1.488 3.847 0 2.32 1.382 3.588 1.382 1.266 3.761 1.266 1.141 0 2.65-0.3675l-0.5609 2.108q-1.199 0.1549-2.166 0.1549zm-0.5801-5.183q0.735 0 1.199-0.6764 0.4638-0.6772 0.4638-1.489 0-0.6379-0.2704-0.9958t-0.7735-0.3579q-0.735 0-1.199 0.6282-0.4646 0.6291-0.4646 1.518 0 0.6186 0.2809 0.9958 0.28 0.3771 0.7639 0.3771z" fill="currentColor"/>
</svg>
