<svg width="16" height="16" version="1.1" xmlns="http://www.w3.org/2000/svg">
  <defs>
    <style id="current-color-scheme" type="text/css">.ColorScheme-Text { color:#ebdbb2; } .ColorScheme-Highlight { color:#458588; }</style>
  </defs>
  <path class="ColorScheme-Text" d="m2.0723 1c-0.59173 0-1.0723 0.47454-1.0723 1.0605v9.8926c0 0.58601 0.48053 1.0469 1.0723 1.0469h1.6445c0.16698 0 0.32443 0.09123 0.42578 0.22266l0.85742 1.3594c0.17683 0.2809 0.51761 0.41797 0.85156 0.41797h4.2969c0.33396 0 0.67474-0.13707 0.85156-0.41797l0.85742-1.3594c0.08841-0.14045 0.2588-0.22266 0.42578-0.22266h1.6445c0.59173 0 1.0723-0.46087 1.0723-1.0469v-9.8926c0-0.58601-0.48053-1.0605-1.0723-1.0605zm8.1992 1c0.48385 0.00172 1.2014 0.16049 1.7578 0.60352 0.69824 0.57153 1.0322 1.8239 0.88672 2.5059-0.02512 0.11468-0.04438 0.26441-0.0625 0.41992 1.9e-5 1.19e-4 0.41833 2.6812-2.207 2.8672 0.03281 0.02592 0.06942 0.022475 0.10156 0.050781 0.69522 0.61215 0.84375 1.4381 0.84375 1.9277-2e-6 0.89768-0.83976 2.0649-1.5957 2.3652-0.83153 0.33391-1.0768 0.16772-1.4941 0.16992-0.48354-0.01044-1.2391 0.20751-2.1133 0-0.43868-0.10412-1.1208-0.3757-1.5781-1.0918-0.42546-0.66614-0.48694-1.7759-0.12109-2.3965 0.1569-0.25946 0.284-0.40336 0.55469-0.54102-0.43267-0.15167-0.92923-0.28351-1.127-0.49609-0.47994-0.51598-0.66333-1.1144-0.78711-1.8301-0.015147-0.10021-0.10756-0.84004-0.11719-0.86914-0.57805-1.8102 0.53274-3.1968 2.0645-3.4492 1.631-0.1471 3.2112 0.0032504 4.8027-0.22852 0.058376-0.0057993 0.12228-0.0080585 0.19141-0.0078125zm0.05274 1.1113c-0.1423 0.00253-0.29126 0.025028-0.44531 0.072266-1.4123 0.11711-2.8336 0.22386-4.25 0.12891-0.67557 0.00184-1.8221 0.61241-1.3672 2.041 0.18714 0.50549 0.054909 1.0805 0.37109 1.8262 0.41722 0.98391 1.3846 1.0227 1.9707 0.625 0.016543 0.59127 0.015051 1.0321 0.00195 1.3477-1.2921 0.39206-1.5574 2.3127 0.025391 2.6895 0.55025 0.02926 1.0168 0.02699 1.6348-0.0293 0.44844 7.48e-4 0.91276 0.06439 1.3379-0.10742 0.76402-0.34271 1.2641-1.6619 0.39453-2.4297-0.19022-0.16793-0.37797-0.12001-0.58398-0.16406-9.05e-4 -0.75189 0.0086-1.5046-0.02734-2.2559 0.30604 0.27092 0.66461 0.54297 0.93945 0.54297 1.6851 0 1.4567-1.6027 1.3945-1.8496-0.0191-0.11006 0.06522-0.55711 0.08789-0.66211 0.18251-0.80239-0.4883-1.7931-1.4844-1.7754zm0.0039 1.0879c0.1537-0.00205 0.48771 0.093807 0.4082 0.44336-0.06764 0.46681-0.17139 0.91285-0.06836 1.3828 0 0.35684-0.53007 0.3346-0.63086 0.13867-0.01484-0.34403 0.0293-0.8808 0.0293-1.2598h-4e-3c-0.0063-0.00277-0.01538-0.011002-0.02539-0.021484-0.62089 0.027952-1.2065 0.071052-1.7539 0.12695 0.05305 2.004-0.02261 4.878 0.08203 5.0312h0.62109c0.2537-0.03494 0.37891 0.07739 0.37891 0.33594 0 0.15373-0.06878 0.26133-0.20898 0.32422-0.19426 0.07819-0.43019-0.0078-0.93359 0.01172-0.24702 0.03493-0.54655 0.06302-0.90039 0.08398-0.36052 0.02097-0.58199-0.03242-0.66211-0.1582-0.063055-0.09899-0.15018-0.49219 0.73242-0.49219 0.20696 0 0.31055-0.0609 0.31055-0.17969 0.0010193-1.6339-0.038857-3.2706 0.029389-4.9043l-0.029297-0.03125c-0.73332 0.049481-0.47229-0.064328-1.7734 0.03125 0.072968 0.56916 0.1931 1.1456 0.14062 1.7207-0.00668 0.10482-0.08977 0.15625-0.25 0.15625-0.12685 0-0.23352-0.25274-0.32031-0.75586-0.040058-0.30047-0.079083-0.60465-0.11914-0.91211 0-0.11379-0.13086-0.35291-0.13086-0.53516 0-0.23736 0.2642-0.34481 0.48047-0.3125 1.533 0.024636 3.085 0.079627 4.5977-0.22461z" fill="currentColor"/>
</svg>
