<svg xmlns="http://www.w3.org/2000/svg" style="isolation:isolate" width="16" height="16" viewBox="0 0 16 16">
 <defs>
  <style id="current-color-scheme" type="text/css">
   .ColorScheme-Text { color:#ebdbb2; } .ColorScheme-Highlight { color:#458588; }
  </style>
  <linearGradient id="arrongin" x1="0%" x2="0%" y1="0%" y2="100%">
   <stop offset="0%" style="stop-color:#d79921"/>
   <stop offset="100%" style="stop-color:#b57614"/>
  </linearGradient>
  <linearGradient id="aurora" x1="0%" x2="0%" y1="0%" y2="100%">
   <stop offset="0%" style="stop-color:#83a598"/>
   <stop offset="100%" style="stop-color:#b16286"/>
  </linearGradient>
  <linearGradient id="fitdance" x1="0%" x2="0%" y1="0%" y2="100%">
   <stop offset="0%" style="stop-color:#8ec07c"/>
   <stop offset="100%" style="stop-color:#458588"/>
  </linearGradient>
  <linearGradient id="oomox" x1="0%" x2="0%" y1="0%" y2="100%">
   <stop offset="0%" style="stop-color:#458588"/>
   <stop offset="100%" style="stop-color:#928374"/>
  </linearGradient>
  <linearGradient id="rainblue" x1="0%" x2="0%" y1="0%" y2="100%">
   <stop offset="0%" style="stop-color:#b8bb26"/>
   <stop offset="100%" style="stop-color:#076678"/>
  </linearGradient>
  <linearGradient id="sunrise" x1="0%" x2="0%" y1="0%" y2="100%">
   <stop offset="0%" style="stop-color:#fe8019"/>
   <stop offset="100%" style="stop-color:#fabd2f"/>
  </linearGradient>
  <linearGradient id="telinkrin" x1="0%" x2="0%" y1="0%" y2="100%">
   <stop offset="0%" style="stop-color:#83a598"/>
   <stop offset="100%" style="stop-color:#83a598"/>
  </linearGradient>
  <linearGradient id="60spsycho" x1="0%" x2="0%" y1="0%" y2="100%">
   <stop offset="0%" style="stop-color:#fb4934"/>
   <stop offset="25%" style="stop-color:#fabd2f"/>
   <stop offset="50%" style="stop-color:#fe8019"/>
   <stop offset="100%" style="stop-color:#689d6a"/>
  </linearGradient>
  <linearGradient id="90ssummer" x1="0%" x2="0%" y1="0%" y2="100%">
   <stop offset="0%" style="stop-color:#b16286"/>
   <stop offset="20%" style="stop-color:#8ec07c"/>
   <stop offset="50%" style="stop-color:#fabd2f"/>
   <stop offset="100%" style="stop-color:#458588"/>
  </linearGradient>
 </defs>
 <path fill="currentColor" class="ColorScheme-Text" d="M 10.303224 8.000771 L 13.022345 3.165394 L 14.314956 8.000771 L 13.022345 12.834463 L 10.303224 8.000771 Z M 8.978022 9.193146 L 11.697309 13.620147 L 6.962219 12.370462 L 3.540374 9.193061 L 8.978022 9.193146 Z M 11.69672 2.379963 L 8.978022 7.593143 L 3.540037 7.593143 L 6.961462 3.629985 L 11.69672 2.379963 Z M 15.578771 6.315799 L 13.919846 0 L 7.728777 1.70316 L 6.81258 3.362532 L 4.952396 3.349058 L 0.421092 8.000854 L 4.952648 12.651894 L 4.95287 12.651894 L 6.811707 12.637721 L 7.729505 14.297094 L 13.919984 16 L 15.578908 9.684202 L 14.736815 8.00083"/>
</svg>
