<svg width="16" height="16" version="1.1" xmlns="http://www.w3.org/2000/svg">
  <defs>
    <style id="current-color-scheme" type="text/css">.ColorScheme-Text { color:#ebdbb2; } .ColorScheme-Highlight { color:#458588; }</style>
  </defs>
  <path class="ColorScheme-Text" d="m12.22 1-2.251 2.2393 2.7793 2.7657 2.252-2.2403zm0.14844 1.1846 0.56641 0.56251-0.46485 0.45997-0.56446-0.56251zm0.86134 0.85646 0.5674 0.56348-0.46387 0.45998-0.56642-0.56251zm-4.6212 0.097659-7.3107 7.2677c-0.39717 0.39482-0.39717 1.0364 0 1.4326l2.8829 2.8643c0.3986 0.39624 1.0447 0.39482 1.4405 0l7.3107-7.2667zm1.1807 3.1241-0.28418 1.0567-0.27832-0.27636-2.6045 2.5889 1.3809 0.037125c0.10287-0.011271 0.20943-0.0533 0.28809-0.12793 0.402-0.39962 0.54395-0.54005 0.54395-0.54005l-0.22559-0.22461 0.67384-0.67091 0.67482 0.67091-0.67482 0.67091-0.22559-0.22559-0.53712 0.53419c-0.151 0.1501-0.39208 0.22492-0.58985 0.22851-0.0045213-1.847e-4 -1.4639-0.040055-1.4639-0.040055-0.10271 0.01108-0.20948 0.053618-0.28809 0.12793l-0.84669 0.84279c-0.00102 0.0013-0.00197 0.0019-3e-3 0.0032l-0.3838 0.38086c0.20612 0.30766 0.1733 0.72678-0.099607 0.99807-0.31109 0.30924-0.81589 0.30924-1.127 0-0.311-0.30916-0.31109-0.8109 0-1.1201 0.27285-0.27124 0.69465-0.30429 1.0039-0.09961l0.38966-0.38773c0.074986-0.07818 0.1186-0.18403 0.12988-0.28613 0 0-0.040749-1.4516-0.041003-1.4561h0.00102c0.0035042-0.19661 0.078533-0.43586 0.2295-0.58594l0.55665-0.55371c-0.085091-0.1762-0.055344-0.39378 0.091798-0.54004 0.18616-0.18506 0.48755-0.18519 0.67384 0 0.18621 0.1851 0.18614 0.48586 0 0.6709-0.14714 0.14627-0.36562 0.17454-0.54298 0.089846-0.067846 0.067698-0.2525 0.25141-0.56348 0.56055-0.075091 0.078186-0.11757 0.18483-0.12891 0.28711l0.0381 1.3721 3.4473-3.4268-0.27832-0.2754z" fill="currentColor"/>
</svg>
