<svg width="16" height="16" version="1.1" xmlns="http://www.w3.org/2000/svg">
  <defs>
    <style type="text/css" id="current-color-scheme">.ColorScheme-Text { color:#ebdbb2; } .ColorScheme-Highlight { color:#458588; }</style>
  </defs>
  <path class="ColorScheme-Text" fill="currentColor" d="m13.42 1c0.2765 0 0.4305 0.217 0.4629 0.6519l-0.3482 2.048h0.08488l0.1829-0.1522h0.04812v0.0455c-0.2511 0.1925-0.4952 0.7184-0.7306 1.578-0.08926 0.7385-0.2389 1.421-0.4506 2.048-0.1864 0.6475-0.28 1.244-0.28 1.79l-0.3526 1.077c0 0.091 0.1339 0.182 0.4016 0.273-0.049 0.2118-0.1216 0.3185-0.2196 0.3185v0.06038h0.08574v0.0455c0 0.1111-0.1382 0.1671-0.4139 0.1671l0.04812 0.06038v0.2126h-0.08488c0.05688 0.2118 0.1785 0.3185 0.3649 0.3185v0.1059h-0.3649v0.06038c0.1216 0 0.1829 0.091 0.1829 0.273l-0.5119 0.2126 0.049 0.06038v0.0455c0 0.07088-0.06126 0.1068-0.1829 0.1068v0.06038c0.154 0 0.231 0.035 0.231 0.1059-0.2188 0.091-0.5075 0.5416-0.8645 1.35-0.3649 0.7183-0.6816 1.077-0.9502 1.077h-0.09712c-0.203-0.1619-0.3692-0.6974-0.4988-1.607-0.5198-1.386-0.7796-2.2-0.7796-2.442 0-0.6274-0.1671-1.183-0.4996-1.891-0.08925-0.3132-0.1505-0.861-0.1829-1.337h-0.2188c-0.5521 1.042-0.8409 1.838-0.8645 2.424-0.1549 0.3439-0.2765 0.7586-0.3658 1.243 0.3325 0.1111 0.4996 0.2179 0.4996 0.3185v0.06126c-0.2599-0.04026-0.4428-0.1164-0.5486-0.2275-0.1138 0.273-0.2634 0.8628-0.4506 2.107-0.1461 0.5766-0.3281 0.791-0.5478 0.791-0.6169-0.2529-1.132-0.5941-1.547-1.17-0.06475 0-0.1698-0.2888-0.3159-0.8654-0.09013 0-0.1505-0.2879-0.1829-0.8645-0.3089-0.819-0.5198-1.586-0.6335-2.638v-1.577h-0.049l-0.2188 0.06037v-0.06037c0-0.07088 0.07262-0.1068 0.2188-0.1068l-0.04812-0.91v-0.7131l-0.3535-2.275v-0.8584c0.154-0.6072 0.4226-0.91 0.8041-0.91l0.1461 0.1514-0.1461-0.0455c0.5924 0.8094 0.9415 1.38 1.047 1.936h0.4139v0.1068h-0.3168v0.1208c0.1216 0.4655 0.2109 0.6982 0.2678 0.6982h0.098l0.2188-0.06125 0.049 0.06125 0.04812-0.06125 0.049 0.06125v0.0455c-0.1628 0.1208-0.2721 0.2879-0.329 0.5005h-0.03587v0.1059h0.08487c0.1138 1.689 0.3246 3.192 0.6335 4.062l0.182 0.1671h0.098c0.1216 0 0.3771-0.6632 0.7674-1.846 0.2511-0.5355 0.434-0.9284 0.5478-1.333l-0.049-0.1671c0.252-0.3946 0.5119-0.574 0.7796-0.574h0.08575c0.1698 0 0.2922 0.09362 0.3649 0.3159 0.2275 0.3342 0.4104 0.7569 0.5478 1.424l0.6825 1.409c0.08925 0.112 0.1339 0.238 0.1339 0.3798 0.252 0.5968 0.4786 1.319 0.6816 1.511h0.1461c0.1706 0 0.3981-1.067 0.6825-2.543 0.04812 0 0.1829-0.3946 0.4016-1.183v-0.06125l-0.2319-0.1059-0.182 0.06125h-0.2319v-0.1216l0.4629-0.0455h0.3658c0.3491-1.305 0.6694-2.316 0.9616-3.034 0.098-1.476 0.2319-2.215 0.4025-2.215z"/>
</svg>
