<svg width="16mm" height="16mm" version="1.1" viewBox="0 0 16 16" xmlns="http://www.w3.org/2000/svg">
  <path d="m9.1197 1.8348c-0.0418 5.24e-4 0.68755 0.40692 1.6206 0.90333 0.9331 0.49641 1.7072 0.91345 1.72 0.92662 0.0128 0.01317-0.28226-0.05344-0.65573-0.14791-0.37351-0.09446-0.95804-0.22451-1.2988-0.28913-0.34081-0.06462-0.85499-0.14872-1.1428-0.18673-0.30598-0.04042-0.87128-0.06899-1.3613-0.06899-0.49029 0-1.0549 0.0287-1.3611 0.06917-0.28778 0.03804-0.79966 0.12073-1.1376 0.18384-0.33793 0.06311-0.89556 0.1857-1.2392 0.27233-0.34367 0.08664-0.64578 0.15743-0.67145 0.1573-0.0257-1.47e-4 0.6118-0.35063 1.4166-0.7789 0.80477-0.42825 1.5728-0.83837 1.707-0.91127 0.24387-0.13255 0.24397-0.13263-0.0442-0.10565-0.15851 0.01484-0.56769 0.06762-0.90911 0.1172-0.34139 0.04958-0.77027 0.12074-0.95317 0.1582-0.18294 0.03746-0.52212 0.12847-0.75379 0.20208-0.23168 0.07362-0.56369 0.21539-0.73773 0.31514-0.17404 0.09974-0.48032 0.33963-0.68065 0.53311-0.20034 0.19348-0.48943 0.51664-0.64237 0.71822-0.15295 0.20157-0.38813 0.5408-0.52264 0.75362-0.1345 0.21281-0.33485 0.57126-0.44534 0.7966-0.1105 0.22534-0.25361 0.55307-0.31784 0.72833-0.0642 0.17529-0.20457 0.66695-0.31189 1.0926-0.10731 0.42565-0.24055 1.0094-0.29617 1.2974-0.0814 0.42143-0.10113 0.67447-0.10095 1.2974 1.7e-4 0.60866 0.0177 0.84094 0.0822 1.0877 0.0451 0.17257 0.12217 0.40818 0.17138 0.52354 0.0492 0.11538 0.17577 0.34738 0.28118 0.5156 0.10541 0.16821 0.34497 0.47058 0.53239 0.67198 0.18743 0.20141 0.47262 0.46615 0.6337 0.58837 0.16108 0.12223 0.42264 0.29522 0.58115 0.38431 0.15851 0.0891 0.42778 0.21615 0.59849 0.28245s0.43012 0.14858 0.57645 0.18294c0.16009 0.0376 0.45142 0.0576 0.73158 0.0502l1.8e-4 -1.8e-4c0.38647-0.0103 0.49919-0.0303 0.66368-0.11847 0.10899-0.0584 0.2556-0.14961 0.3258-0.20263 0.0702-0.053 0.17564-0.1801 0.23422-0.28245 0.0586-0.10234 0.10637-0.24164 0.10637-0.30953 0-0.0679-0.0285-0.18045-0.0636-0.24995-0.035-0.0695-0.14224-0.19904-0.2382-0.28804-0.096-0.089-0.31228-0.24447-0.48074-0.34547-0.16846-0.10101-0.42046-0.23552-0.56001-0.29889-0.13955-0.0633-0.25374-0.12321-0.25374-0.13291 0-0.01 0.23499 0.0485 0.5221 0.12912 0.28714 0.0807 0.71122 0.17919 0.94233 0.21906 0.23112 0.0399 0.59969 0.0932 0.81917 0.11847 0.21951 0.0253 1.0282 0.0461 1.7971 0.0464 0.97562 2.8e-4 1.5603-0.0203 1.9347-0.0679 0.29514-0.0375 0.7236-0.10757 0.95209-0.15585 0.22848-0.0483 0.56176-0.12946 0.74079-0.18042 0.17903-0.051 0.36868-0.10468 0.42132-0.11937 0.0526-0.0147-0.16273 0.11231-0.47857 0.28227-0.38705 0.20827-0.64903 0.38393-0.80364 0.53889-0.13994 0.14027-0.24155 0.28697-0.26059 0.37599-0.0173 0.0808-9e-3 0.21533 0.0188 0.3016 0.0275 0.0857 0.14037 0.24126 0.25067 0.34565s0.29393 0.23272 0.40796 0.28498c0.13405 0.0614 0.33447 0.10202 0.56706 0.11503 0.23552 0.0132 0.48812-6e-3 0.73158-0.0569 0.20453-0.0424 0.52042-0.13794 0.70197-0.21238 0.18154-0.0744 0.48412-0.22944 0.67234-0.34439 0.18823-0.11495 0.50467-0.35102 0.70323-0.52463 0.19857-0.1736 0.48991-0.48298 0.64743-0.68751 0.15753-0.20453 0.36535-0.53594 0.46178-0.73646 0.0964-0.20052 0.20975-0.50793 0.25192-0.68318 0.0563-0.23387 0.0767-0.50654 0.076-1.0243-7e-4 -0.53073-0.025-0.83884-0.0982-1.2427-0.0536-0.29532-0.18799-0.89819-0.2987-1.3398-0.11071-0.44162-0.26762-0.97938-0.34873-1.195-0.0811-0.2156-0.2122-0.5236-0.29129-0.68445-0.0791-0.16085-0.24077-0.45306-0.35938-0.64941-0.11862-0.19631-0.36655-0.55914-0.55099-0.80617-0.18444-0.24702-0.47166-0.58111-0.63822-0.74242-0.16655-0.16131-0.39009-0.35463-0.49663-0.42963-0.10654-0.075-0.29722-0.19007-0.42385-0.25572-0.12663-0.06565-0.40028-0.16989-0.60806-0.2317-0.20779-0.06182-0.59256-0.15494-0.8551-0.20696-0.26256-0.05202-0.78296-0.13498-1.1563-0.1842s-0.71295-0.08898-0.7547-0.08849zm-3.8605 5.2291a1.5588 1.5588 0 0 1 1.5589 1.5589 1.5588 1.5588 0 0 1-1.5589 1.5589 1.5588 1.5588 0 0 1-1.5587-1.5589 1.5588 1.5588 0 0 1 1.5587-1.5589zm5.4581 0a1.5588 1.5588 0 0 1 1.5587 1.5589 1.5588 1.5588 0 0 1-1.5587 1.5589 1.5588 1.5588 0 0 1-1.5589-1.5589 1.5588 1.5588 0 0 1 1.5589-1.5589z" fill="#ebdbb2" stroke-width=".092464"/>
</svg>
