<svg width="16" height="16" version="1.1" xmlns="http://www.w3.org/2000/svg">
  <defs>
    <style id="current-color-scheme" type="text/css">.ColorScheme-Text { color:#ebdbb2; } .ColorScheme-Highlight { color:#458588; }</style>
  </defs>
  <path class="ColorScheme-Text" d="m3 1v5c0 2.419 1.718 4.437 4 4.9v2.1c0 1-1 1-1 1h-1v1h6v-1h-1s-1-2e-6 -1-1v-2.1c2.282-0.4632 4-2.481 4-4.9v-5zm8 2v3c0 1.657-1.343 3-3 3s-3-1.343-3-3v-2c0.6613 0.6651 1.34 0.9944 2 1 0.6772 0.005781 1.335-0.3293 2-1 0.9955-1.004 2-1 2-1z" fill="currentColor"/>
</svg>
