<svg width="16" height="16" version="1.1" xmlns="http://www.w3.org/2000/svg">
  <defs>
    <style type="text/css" id="current-color-scheme">.ColorScheme-Text { color:#ebdbb2; } .ColorScheme-Highlight { color:#458588; }</style>
  </defs>
  <path class="ColorScheme-Text" fill="currentColor" d="m8 1c-0.1711 0.0044-0.3418 0.01679-0.5117 0.03711 0.02978 0.06008 0.07129 0.1198 0.1211 0.1699l0.168 0.168h-0.3809c-0.5305 0-0.6992 0.1392-0.7539 0.627-0.04427 0.3943-0.1826 0.5032-0.3066 0.2422-0.09157-0.1925-0.4695-0.3079-0.7129-0.2188-0.2305 0.08433-0.2285 0.2441 0.003906 0.2441 0.09817 0 0.2286 0.05314 0.291 0.1191 0.06187 0.06563 0.1485 0.1191 0.1934 0.1191 0.04482 0 0.1124 0.05229 0.1484 0.1172 0.0363 0.06481 0.1551 0.1405 0.2656 0.168 0.1364 0.03382 0.2141 0.09659 0.2422 0.1953 0.19 0.6688 0.1858 1.129-0.009766 1.129-0.1237 0-0.2715 0.1884-0.332 0.4238-0.0319 0.124-0.1003 0.1728-0.3359 0.2363-0.1631 0.04427-0.3534 0.0727-0.4219 0.06445-0.06875-0.00825-0.1798 0.02414-0.248 0.07227-0.09955 0.0704-0.1093 0.1036-0.04688 0.1641 0.04262 0.04152 0.07812 0.1356 0.07812 0.209 0 0.04017 0.0082 0.08053 0.02148 0.1133 0.3462-0.1078 0.6984-0.1932 1.055-0.2559 0.1636-0.1394 0.2612-0.1444 0.7891-0.1152 0.391 0.02172 0.7409-0.1408 0.7461-0.3457 0.00165-0.06572 0.04398-0.1939 0.09375-0.2852 0.0495-0.09102 0.07421-0.2055 0.05469-0.2539-0.01952-0.04867 0.001775-0.1319 0.04688-0.1836 0.06875-0.07947 0.06566-0.1028-0.02344-0.1504-0.2285-0.1226-0.1211-0.1919 0.4102-0.2637l0.2988-0.04102-0.1426 0.2793c-0.1119 0.2208-0.1256 0.2978-0.06836 0.3789 0.03987 0.0561 0.1762 0.2678 0.3027 0.4707 0.1108 0.1778 0.2863 0.3872 0.4199 0.5078 0.6174 0.1046 1.222 0.2774 1.805 0.5156-0.05391-0.3409-0.04254-0.6873-0.05078-1.031l0.4824-0.01172c0.4235-0.01018 0.4824 0.00163 0.4824 0.09375 0 0.05775 0.05625 0.1529 0.125 0.2129 0.0715 0.06132 0.113 0.1529 0.09375 0.209-0.02017 0.0616 0.04896 0.1803 0.1855 0.3145 0.1201 0.1185 0.2188 0.2401 0.2188 0.2695 0 0.1391 0.2359 0.2479 0.5137 0.2363 0.05867-0.00247 0.1107-5.238e-4 0.1602 0.001953-0.1047-1.05-0.5154-2.05-1.172-2.877-0.2988-0.1653-0.4463-0.2109-0.6855-0.2109-0.1943 0-0.2646-0.03385-0.3691-0.1738-0.07058-0.09515-0.1289-0.213-0.1289-0.2617 0-0.09258-0.1264-0.1602-0.2969-0.1602-0.055 0-0.1623-0.05729-0.2402-0.127-0.1989-0.1797-0.3111-0.1099-0.3496 0.2188-0.03392 0.2864-0.1241 0.3976-0.2754 0.3418-0.07517-0.0275-0.2261-0.299-0.4434-0.8027-0.0451-0.1044-0.1768-0.2063-0.3828-0.2969-0.3811-0.1674-0.4263-0.3064-0.08203-0.2539 0.1972 0.03007 0.2572 0.01112 0.3848-0.1191 0.01045-0.01082 0.02248-0.01762 0.0332-0.02734-0.4763-0.1332-0.9683-0.2015-1.463-0.2031zm-2.504 0.6172c-1.834 0.938-2.989 2.799-2.994 4.859 0.00807 0 0.1409 0.1103 0.1719 0.2285 0.00906 0.03448 0.03564 0.07638 0.06836 0.1191 0.1566-0.1168 0.3168-0.2282 0.4805-0.334-0.1052-0.1333-0.1884-0.3178-0.2246-0.5176-0.0319-0.1757-0.006396-0.2292 0.2051-0.4316 0.2391-0.2291 0.3982-0.2874 0.4727-0.1719 0.05638 0.08717 0.1206 0.07283 0.2812-0.06055 0.07892-0.06545 0.1785-0.1191 0.2207-0.1191 0.04207 0 0.1208-0.06451 0.1758-0.1445 0.07507-0.1097 0.1648-0.15 0.3652-0.1641 0.2038-0.01402 0.28-0.04892 0.3262-0.1504 0.044-0.0957 0.09684-0.1227 0.1934-0.09961 0.1037 0.02502 0.1761-0.02466 0.3281-0.2227 0.2863-0.3729 0.2631-0.564-0.06445-0.5332-0.05692 0.0055-0.2035-0.03085-0.3262-0.08008-0.1713-0.06848-0.2227-0.1242-0.2227-0.2383 0-0.08167 0.03068-0.1669 0.06836-0.1895 0.03795-0.02228 0.1067-0.1294 0.1543-0.2383 0.0473-0.1086 0.1638-0.2322 0.2578-0.2754 0.2035-0.09322 0.2558-0.2616 0.09766-0.3105-0.1191-0.03676-0.2676-0.2902-0.2676-0.4551 0-0.0539 0.05652-0.1458 0.125-0.2051 0.09745-0.08439 0.1299-0.1801 0.1074-0.2656zm6.43 4.367c0.2319 0.1185 0.4587 0.2475 0.6797 0.3867-0.03427-0.1192-0.09539-0.2427-0.1387-0.2773-0.0889-0.07078-0.3423-0.1149-0.541-0.1094zm-4.826 0.07812c-3.598 0.4728-6.297 3.66-6.299 7.438 0.001582 0.3668 0.029 0.733 0.08203 1.096 0.1199 0.2394 0.3584 0.4043 0.6367 0.4043h12.96c0.2763 0 0.5122-0.1617 0.6328-0.3984 0.05462-0.3645 0.08334-0.7327 0.08594-1.102-0.001689-3.778-2.701-6.965-6.299-7.438v3.525h1.217c0.4753-0.00123 0.7732 0.4292 0.5352 0.7734-0.6956 1.006-1.39 2.013-2.084 3.02-0.2368 0.3449-0.8315 0.3449-1.068 0-0.744-1.064-1.517-2.161-2.166-3.262-0.01073-0.2912 0.269-0.5319 0.6172-0.5313h1.148v-3.525zm6.395 0.2012c-0.0734 0.1165-0.07862 0.2225-0.00586 0.3887 0.004649-0.05072 0.008518-0.1015 0.01172-0.1523-2.6e-4 -0.07881-0.002159-0.1576-0.005859-0.2363z"/>
</svg>
