<svg width="16" height="16" version="1.1" xmlns="http://www.w3.org/2000/svg">
  <defs>
    <style id="current-color-scheme" type="text/css">.ColorScheme-Text { color:#ebdbb2; } .ColorScheme-Highlight { color:#458588; }</style>
  </defs>
  <path class="ColorScheme-Text" d="m0.6667 2c-0.36821 0-0.6667 0.29849-0.6667 0.6667s0.29849 0.6667 0.6667 0.6667c1.704 0 2.651 1.094 3.628 2.398 0.55524 0.8351 1.1965 1.5888 1.9269 2.268-0.7771 0.62729-1.3396 1.4708-1.9269 2.268-0.9763 1.305-1.924 2.398-3.628 2.398-0.36821 0-0.6667 0.29849-0.6667 0.6667s0.29849 0.6667 0.6667 0.6667c2.296 0 3.676-1.573 4.695-2.935 0.5095-0.6809 0.9596-1.326 1.393-1.76 0.4336-0.4344 0.7899-0.638 1.234-0.638 0.4444 4.5e-6 0.8041 0.2033 1.24 0.638 0.4355 0.4347 0.8892 1.082 1.401 1.763 1.024 1.362 2.407 2.932 4.703 2.932 0.36821 0 0.6667-0.29849 0.6667-0.6667s-0.29849-0.6667-0.6667-0.6667c-1.704 0-2.657-1.096-3.638-2.401-0.55803-0.83466-1.2016-1.5878-1.9345-2.266 0.78008-0.62551 1.3451-1.4689 1.9345-2.266 0.981-1.305 1.934-2.401 3.638-2.401 0.36821 0 0.6667-0.29849 0.6667-0.6667s-0.29849-0.6667-0.6667-0.6667c-2.296 0-3.679 1.571-4.703 2.932-0.5118 0.6809-0.9656 1.328-1.401 1.763-0.4355 0.4347-0.7951 0.638-1.24 0.638-0.4444 0-0.8008-0.2037-1.234-0.638-0.4336-0.4344-0.8837-1.079-1.393-1.76-1.019-1.362-2.399-2.935-4.695-2.935z" fill="currentColor"/>
</svg>
