<svg width="16" height="16" version="1.1" xmlns="http://www.w3.org/2000/svg">
  <defs>
    <style id="current-color-scheme" type="text/css">.ColorScheme-Text { color:#ebdbb2; } .ColorScheme-Highlight { color:#458588; }</style>
  </defs>
  <path class="ColorScheme-Text" d="m11.68 2.066c-0.3219 0.4964-0.7689 0.8997-1.167 1.335-2.636 2.685-5.536 5.088-8.387 7.536-0.4457 0.3369-0.8228 0.8084-1.377 0.9673-0.2882 0.03062-0.9838 0.0461-0.6617 0.5063 0.2621 0.2251 0.6501 0.09025 0.9672 0.1553 1.866 0.1101 3.689 0.5512 5.51 0.9423 1.426 0.319 2.846 0.6684 4.285 0.9254 0.8566 0.1207 1.736 0.2481 2.597 0.1037 0.7417-0.1451 1.333-0.6643 1.885-1.148 0.3286-0.325 0.6998-0.7316 0.664-1.227-0.1264-0.487-0.5694-0.02213-0.5899 0.276-0.1907 0.5311-0.7116 0.8444-1.242 0.9501-1.132 0.2476-2.303 0.1793-3.45 0.09916-2.46-0.2277-4.898-0.6796-7.282-1.325-0.253-0.1638 0.2774-0.4344 0.3751-0.615 2.213-2.241 4.548-4.357 6.876-6.476 1.11-1.001 2.22-2.003 3.358-2.97 0.249-0.0831 0.7281-0.3068 0.425-0.6219-0.4031-0.1737-0.8732-0.02803-1.303-0.06092-1.594 0.02486-3.187 0.07515-4.781 0.0963-1.189 0.03728-2.382 0.04952-3.567 0.1652-0.4699 0.05943-0.6686 0.5383-0.8519 0.9127-0.2495 0.3862 0.3073 0.6283 0.5101 0.264 0.6977-0.4925 1.586-0.5502 2.409-0.6435 1.536-0.1401 3.081-0.1958 4.623-0.1834 0.05938 0.00411 0.1202 0.01156 0.1747 0.03721z" fill="currentColor"/>
</svg>
