<svg width="48" height="48" version="1" xmlns="http://www.w3.org/2000/svg">
  <path d="m23.95 4c-0.946 0.0134-1.85 0.3953-2.519 1.064l-16.36 16.36c-1.421 1.42-1.421 3.724 0 5.144l16.36 16.36c1.42 1.421 3.724 1.421 5.144 0l16.36-16.36c1.421-1.42 1.421-3.724 0-5.144l-16.36-16.36c-0.695-0.6952-1.642-1.079-2.625-1.065z" fill="#689d6a" fill-rule="evenodd"/>
  <path d="m26 39h-4v-4h4zm4.14-15.5-1.8 1.84c-1.44 1.46-2.34 2.66-2.34 5.66h-4v-1c0-2.2 0.9-4.2 2.34-5.66l2.48-2.52c0.74-0.72 1.18-1.72 1.18-2.82 0-2.2-1.8-4-4-4s-4 1.8-4 4h-4c0-4.42 3.58-8 8-8s8 3.58 8 8c0 1.76-0.72 3.36-1.86 4.5z" fill="#282828" opacity=".3"/>
  <path d="m26 38h-4v-4h4zm4.14-15.5-1.8 1.84c-1.44 1.46-2.34 2.66-2.34 5.66h-4v-1c0-2.2 0.9-4.2 2.34-5.66l2.48-2.52c0.74-0.72 1.18-1.72 1.18-2.82 0-2.2-1.8-4-4-4s-4 1.8-4 4h-4c0-4.42 3.58-8 8-8s8 3.58 8 8c0 1.76-0.72 3.36-1.86 4.5z" fill="#ebdbb2"/>
  <path d="m23.95 4c-0.946 0.0134-1.85 0.3953-2.519 1.064l-16.36 16.36c-0.8382 0.838-1.17 1.982-1.019 3.072 0.1047-0.758 0.4367-1.49 1.02-2.072l16.36-16.36c0.669-0.6687 1.573-1.051 2.519-1.064 0.9828-0.01453 1.93 0.3695 2.625 1.064l16.36 16.36c0.5828 0.5825 0.9148 1.314 1.02 2.072 0.1512-1.09-0.1809-2.234-1.02-3.072l-16.36-16.36c-0.695-0.6945-1.642-1.078-2.625-1.064z" fill="#ebdbb2" fill-rule="evenodd" opacity=".2"/>
  <path d="m4.047 24.5c-0.1507 1.09 0.1813 2.234 1.02 3.072l16.36 16.36c1.42 1.421 3.724 1.421 5.144 0l16.36-16.36c0.838-0.838 1.17-1.982 1.019-3.072-0.105 0.7573-0.4371 1.49-1.02 2.072l-16.36 16.36c-1.42 1.421-3.724 1.421-5.144 0l-16.36-16.36c-0.5821-0.582-0.9141-1.315-1.019-2.072z" fill="#282828" fill-rule="evenodd" opacity=".2"/>
</svg>
