<svg width="48" height="48" version="1" xmlns="http://www.w3.org/2000/svg">
  <circle cx="23" cy="25" r="20" fill="#282828" opacity=".2"/>
  <circle cx="23" cy="24" r="20" fill="#458588"/>
  <path d="M 23,4 A 20,20 0 0 0 3,24 20,20 0 0 0 3.0214844,24.582031 20,20 0 0 1 23,5 20,20 0 0 1 42.978516,24.417969 20,20 0 0 0 43,24 20,20 0 0 0 23,4 Z" fill="#ebdbb2" opacity=".2"/>
  <path d="m6 11c-1.108 0-2 0.892-2 2s0.892 2 2 2h12c1.108 0 2-0.892 2-2s-0.892-2-2-2zm8 8c-1.108 0-2 0.892-2 2s0.892 2 2 2h20c1.108 0 2-0.892 2-2s-0.892-2-2-2zm-6 8c-1.108 0-2 0.892-2 2s0.892 2 2 2h22c1.108 0 2-0.892 2-2s-0.892-2-2-2zm8 8c-1.108 0-2 0.892-2 2s0.892 2 2 2h24c1.108 0 2-0.892 2-2s-0.892-2-2-2z" fill="#282828" opacity=".3"/>
  <path d="m6 10c-1.108 0-2 0.892-2 2s0.892 2 2 2h12c1.108 0 2-0.892 2-2s-0.892-2-2-2h-12zm8 8c-1.108 0-2 0.892-2 2s0.892 2 2 2h20c1.108 0 2-0.892 2-2s-0.892-2-2-2h-20zm-6 8c-1.108 0-2 0.892-2 2s0.892 2 2 2h22c1.108 0 2-0.892 2-2s-0.892-2-2-2h-22zm8 8c-1.108 0-2 0.892-2 2s0.892 2 2 2h24c1.108 0 2-0.892 2-2s-0.892-2-2-2h-24z" fill="#ebdbb2"/>
</svg>
