<svg width="48" height="48" version="1.1" viewBox="0 0 48 48" xmlns="http://www.w3.org/2000/svg">
  <rect transform="matrix(0,-1,-1,0,0,0)" x="-42" y="-36" width="32" height="24" rx="2" ry="2" fill="#ebdbb2"/>
  <rect transform="matrix(0,-1,-1,0,0,0)" x="-38" y="-44" width="32" height="40" rx="2" ry="2" fill="#ebdbb2"/>
  <rect transform="matrix(0,-1,-1,0,0,0)" x="-35" y="-41" width="26" height="34" rx="0" ry="0" fill="#665c54"/>
  <path d="m6 6c-1.108 0-2 0.892-2 2v1c0-1.108 0.892-2 2-2h36c1.108 0 2 0.892 2 2v-1c0-1.108-0.892-2-2-2h-36z" fill="#fbf1c7" opacity=".5"/>
  <path d="m12 40v1c0 1.108 0.892 2 2 2h20c1.108 0 2-0.892 2-2v-1c0 1.108-0.892 2-2 2h-20c-1.108 0-2-0.892-2-2z" fill="#282828" opacity=".2"/>
  <path d="m4 36v1c0 1.108 0.892 2 2 2h36c1.108 0 2-0.892 2-2v-1c0 1.108-0.892 2-2 2h-36c-1.108 0-2-0.892-2-2z" fill="#282828" opacity=".2"/>
  <path d="m24 11.685-3.3145 3.3145h-4.6855v4.6855l-3.3145 3.3145 3.314 3.314v4.6855h4.6855l3.314 3.314 3.314-3.314h4.686v-4.686l3.314-3.314-3.314-3.315v-4.6855h-4.6855l-3.314-3.315zm0 5.3145c3.3137 0 6 2.6863 6 6s-2.6863 6-6 6v-12z" fill="#282828" opacity=".3"/>
  <path d="m24 10.686-3.314 3.314h-4.686v4.686l-3.314 3.314 3.314 3.314v4.686h4.686l3.314 3.314 3.314-3.314h4.686v-4.686l3.314-3.314-3.314-3.314v-4.686h-4.686l-3.314-3.314zm0 5.314c3.314 0 6 2.686 6 6s-2.686 6-6 6v-12z" fill="#ebdbb2"/>
</svg>
