<svg width="48" height="48" version="1" xmlns="http://www.w3.org/2000/svg">
  <path d="m23 5a20 20 0 0 0-20 20 20 20 0 0 0 11.338 18h17.324a20 20 0 0 0 11.338-18 20 20 0 0 0-20-20z" fill="#282828" opacity=".2"/>
  <circle cx="23" cy="24" r="20" fill="#8f3f71"/>
  <path d="M 23,4 A 20,20 0 0 0 3,24 20,20 0 0 0 3.0351562,24.5 20,20 0 0 1 23,5 20,20 0 0 1 42.982422,24.25 20,20 0 0 0 43,24 20,20 0 0 0 23,4 Z" fill="#ebdbb2" opacity=".2"/>
  <path d="m33.444 5.0017c-1.0387 0.051448-1.6456 1.1938-1.1069 2.0833 0.90879 1.5013 1.6623 3.2218 1.6625 4.9767 0 5.3238-4.5582 9.9351-9.8812 9.9383-1.1658-0.0091-2.3217-0.55509-3.4084-0.97737-1.2205-0.47356-2.3487 0.86673-1.6738 1.9885 2.23 3.7072 6.2423 5.9805 10.569 5.9888h0.0018c6.8102 0 12.36-5.5502 12.36-12.36-0.0014-5.1256-3.1758-9.7283-7.9666-11.55-0.17734-0.067296-0.3667-0.097131-0.55614-0.087624z" fill="#282828" opacity=".3"/>
  <path d="m33.444 4.0017c-1.0387 0.051448-1.6456 1.1938-1.1069 2.0833 0.90879 1.5013 1.6623 3.2218 1.6625 4.9767 0 5.3238-4.5582 9.9351-9.8812 9.9383-1.1658-0.0091-2.3217-0.55509-3.4084-0.97737-1.2205-0.47356-2.3487 0.86673-1.6738 1.9885 2.23 3.7072 6.2423 5.9805 10.569 5.9888h0.0018c6.8102 0 12.36-5.5502 12.36-12.36-0.0014-5.1256-3.1758-9.7283-7.9666-11.55-0.17734-0.067296-0.3667-0.097131-0.55614-0.087624z" fill="#ffcc42"/>
  <path transform="matrix(.27371 -.15803 .15803 .27371 21.154 12.137)" d="m12.061-4.5762-1.5003 0.91773-1.7582-0.044621 0.91464 1.5057-0.044621 1.7582 1.5057-0.91464 1.7613 0.039269-0.91773-1.5003 0.03927-1.7613zm2.439 19.247-3.1466 1.9153-3.6827-0.08538 1.9153 3.1466-0.085383 3.6827 3.1466-1.9153 3.6827 0.08538-1.9153-3.1466zm-75.554 4.3027-3.1466 1.9153-3.6827-0.08538 1.9153 3.1466-0.08538 3.6827 3.1466-1.9153 3.6827 0.08538-1.9153-3.1466 0.08538-3.6827zm13.29 12.255-1.5057 0.91464-1.7559-0.03618 0.91238 1.4972-0.03927 1.7613 1.5057-0.91464 1.7528 0.04153-0.90928-1.5026 0.03927-1.7613zm64.352 43.105-3.1466 1.9153-3.6827-0.08538 1.9153 3.1466-0.08538 3.6827 3.1466-1.9153 3.6827 0.08538-1.9153-3.1466 0.08538-3.6827z" fill="#ebdbb2"/>
  <path d="m33.445 4.002c-0.9577 0.047437-1.5469 1.0221-1.2109 1.8711 0.18686-0.47424 0.63164-0.8424 1.2109-0.87109 0.18944-0.009507 0.37735 0.020595 0.55469 0.087891 4.6294 1.7606 7.7488 6.1168 7.9551 11.033 0.0063-0.1609 0.01172-0.32198 0.01172-0.48438-0.001401-5.1256-3.1759-9.7268-7.9668-11.549-0.17734-0.067296-0.36524-0.097398-0.55469-0.087891zm0.53711 7.6094c-0.30011 5.0875-4.7244 9.3856-9.8633 9.3887-1.1658-0.0091-2.3215-0.55428-3.4082-0.97656-1.1456-0.44451-2.2092 0.70834-1.7773 1.7793 0.25964-0.64613 0.99909-1.0813 1.7773-0.7793 1.0867 0.42228 2.2424 0.96746 3.4082 0.97656 5.323-0.003146 9.8809-4.6137 9.8809-9.9375-1.7e-5 -0.15039-0.0069-0.3014-0.01758-0.45117z" fill="#ebdbb2" opacity=".4"/>
  <path d="m11 10c-3.3137 0-6 2.6863-6 6-2.2091 0-4 1.7909-4 4s1.7909 4 4 4h12c2.7614 0 5-2.2386 5-5s-2.2386-5-5-5c-0.11221 4e-3 -0.22425 0.01186-0.33594 0.02344-0.84051-2.409-3.1126-4.023-5.6641-4.0234zm12 15c-4.4183 0-8 3.5817-8 8 0.0013 0.11856 0.0052 0.23708 0.01172 0.35547-0.64532-0.23262-1.3258-0.35285-2.0117-0.35547-3.3137 0-6 2.6863-6 6s2.6863 6 6 6h20c3.3137 0 6-2.6863 6-6s-2.6863-6-6-6c-0.68793 2e-3 -1.3704 0.12219-2.0176 0.35547 0.008495-0.11834 0.014355-0.23686 0.017578-0.35547 0-4.4183-3.5817-8-8-8z" fill="#282828" opacity=".2"/>
  <path d="m11 9c-3.3137 0-6 2.6863-6 6-2.2091 0-4 1.7909-4 4s1.7909 4 4 4h12c2.7614 0 5-2.2386 5-5s-2.2386-5-5-5c-0.11221 4e-3 -0.22425 0.01186-0.33594 0.02344-0.84051-2.409-3.1126-4.023-5.6641-4.0234zm12 15c-4.4183 0-8 3.5817-8 8 0.0059 0.11801 0.01432 0.23588 0.02539 0.35352-0.64976-0.2335-1.3349-0.35309-2.0254-0.35352-3.3137 0-6 2.6863-6 6s2.6863 6 6 6h20c3.3137 0 6-2.6863 6-6s-2.6863-6-6-6c-0.69201 0.0052-1.3779 0.1301-2.0273 0.36914 0.01196-0.12282 0.021078-0.2459 0.027344-0.36914 0-4.4183-3.5817-8-8-8z" fill="#ebdbb2"/>
</svg>
