<svg width="256" height="256" version="1.1" xmlns="http://www.w3.org/2000/svg">
  <path d="m53.047 21c-36.322 0-40.047 2.4809-40.047 37.772v96.653h230v-77.055c0-35.291-3.6782-41.37-40-41.37h-90l-16-16z" fill="#8f3f71"/>
  <path d="m53 71c-36.338 0-39.996 6.1437-39.996 41.397v83.653c0 35.313 3.6859 38.951 40.002 38.951h149.99c36.316 0 40-3.639 40-38.951v-99.621c0-33.574-2.6872-40.428-36-40.428h-87l-17 15z" fill="#b16286"/>
  <path d="m243 193.99c0 35.291-3.6527 37.006-39.974 37.006h-150.02c-36.319 0-40.005-1.7148-40.005-37v2c0 35.641 4.0005 39 40.005 39h150.02c36.399 0 39.974-3.7272 39.974-38.998z" fill="#8f3f71"/>
  <path d="m120 56-17 15h-50c-36.156 0-39.996 5.9171-39.996 41.433v4.1406c0-35.295 3.6836-41.574 39.996-41.574h51l17-15 86.001-0.01105c33.136-0.004256 35.999 7.0504 35.999 40.591v-4.1407c0-33.541-2.6494-40.44-36-40.44z" fill="#d3869b" opacity=".4"/>
  <path d="m97 21-43.953 1e-6c-36.322 0-40.052 2.4512-40.052 37.744v3.9101c0-35.291 3.6815-37.655 40.005-37.655h43l16 16h91c36.322 0 40 5.9893 40 41.281v-3.9072c0-35.291-3.6777-41.373-40-41.373h-90z" fill="#ebdbb2" opacity=".3"/>
  <path d="m97.369 98v19.871h19.871v-19.871zm29.807 0v19.871h19.871v-19.871zm-49.678 29.807v19.871h19.871v-19.871zm29.807 0v19.871h19.871v-19.871zm29.807 0v19.871h19.871v-19.871zm34.07 2.3123c-5.2749 3.613-6.5467 10.167-4.8847 16.374 1.662 6.1492 5.8747 10.615 12.248 11.121a15.066 15.066 0 0 0 14.235 10.08c6.4022 0 12.103-4.0465 14.221-10.08a15.102 15.102 0 0 0-14.228-10.08 15.406 15.406 0 0 0-8.5482 2.688c1.0116-2.8831 1.1562-6.012 0.3613-8.9529a15.124 15.124 0 0 0-13.404-11.15zm7.3704 27.495h-120.93c0 33.391 27.068 50.386 60.459 50.386s60.459-16.995 60.459-50.386zm-95.859 6.7201a8.2953 8.2953 0 1 1 0.0067 16.583 8.2953 8.2953 0 0 1-0.0067-16.583z" fill="#ebdbb2" opacity=".1"/>
  <path d="m97.369 95v19.871h19.871v-19.871zm29.807 0v19.871h19.871v-19.871zm-49.678 29.807v19.871h19.871v-19.871zm29.807 0v19.871h19.871v-19.871zm29.807 0v19.871h19.871v-19.871zm34.07 2.3123c-5.2749 3.613-6.5467 10.167-4.8847 16.374 1.662 6.1492 5.8747 10.615 12.248 11.121a15.066 15.066 0 0 0 14.235 10.08c6.4022 0 12.103-4.0465 14.221-10.08a15.102 15.102 0 0 0-14.228-10.08 15.406 15.406 0 0 0-8.5482 2.688c1.0116-2.8831 1.1562-6.012 0.3613-8.9529a15.124 15.124 0 0 0-13.404-11.15zm7.3704 27.495h-120.93c0 33.391 27.068 50.386 60.459 50.386s60.459-16.995 60.459-50.386zm-95.859 6.7201a8.2953 8.2953 0 1 1 0.0067 16.583 8.2953 8.2953 0 0 1-0.0067-16.583z" fill="#8f3f71"/>
  <path d="m97.369 95v3h19.871v-3zm29.807 0v3h19.871v-3zm-49.678 29.807v3h19.871v-3zm29.807 0v3h19.871v-3zm29.807 0v3h19.871v-3zm34.07 2.3125c-4.2516 2.9121-5.8662 7.7383-5.4766 12.75 0.36533-3.882 2.084-7.4263 5.4766-9.75a15.124 15.124 0 0 1 13.404 11.15c0.19578 0.72432 0.33313 1.4605 0.41601 2.2012 0.15428-1.7416 0.0434-3.5014-0.41601-5.2012a15.124 15.124 0 0 0-13.404-11.15zm21.592 17.416a15.406 15.406 0 0 0-7.8184 2.332c-0.13073 1.1364-0.34816 2.2659-0.73047 3.3555a15.406 15.406 0 0 1 8.5488-2.6895 15.102 15.102 0 0 1 13.514 8.752c0.26603-0.53957 0.51201-1.0921 0.71484-1.6699a15.102 15.102 0 0 0-14.229-10.08zm-135.15 10.08c0 1.015 0.02673 2.0133 0.07617 2.998h120.76c1.6e-4 -3e-3 -1.6e-4 -7e-3 0-0.01-2.8825-0.24526-5.2977-1.33-7.2539-2.9883zm33.314 16.51a8.2953 8.2953 0 0 1-8.2383 6.793 8.2953 8.2953 0 0 1-7.7539-6.791 8.2953 8.2953 0 0 0 7.7539 9.791 8.2953 8.2953 0 0 0 8.2383-9.793z" fill="#282828" opacity=".1"/>
</svg>
