<svg width="16" height="16" version="1.1" xmlns="http://www.w3.org/2000/svg">
  <defs>
    <style id="current-color-scheme" type="text/css">.ColorScheme-Text { color:#ebdbb2; } .ColorScheme-Highlight { color:#458588; }</style>
  </defs>
  <path class="ColorScheme-Text" d="m4 1c-0.554 0-1 0.446-1 1v6c0 0.554 0.446 1 1 1h2c-0.554 0-1 0.446-1 1v1h6v-1c0-0.554-0.446-1-1-1h2c0.554 0 1-0.446 1-1v-6c0-0.554-0.446-1-1-1zm1 2h6v4h-6zm2 9v1h-2v2h6v-2h-2v-1zm-6 1c-0.554 0-1 0.446-1 1 0 0.554 0.446 1 1 1h3v-2zm11 0v2h3c0.554 0 1-0.446 1-1 0-0.554-0.446-1-1-1z" fill="currentColor"/>
</svg>
