<svg width="16" height="16" version="1.1" xmlns="http://www.w3.org/2000/svg">
  <defs>
    <style id="current-color-scheme" type="text/css">.ColorScheme-Text { color:#ebdbb2; } .ColorScheme-Highlight { color:#458588; }</style>
  </defs>
  <path class="ColorScheme-Text" d="m4 1c-1 0-1 1-1 1v12s0 1 1 1h8c1 0 1-1 1-1v-12s0-1-1-1zm1 2h6v9h-6zm2.5 10h1s0.5 0 0.5 0.5-0.5 0.5-0.5 0.5h-1s-0.5 0-0.5-0.5 0.5-0.5 0.5-0.5zm-0.833-6.646v0.6458h-0.3333c-0.1847 0-0.3333 0.1487-0.3333 0.3333v2.334c0 0.1847 0.1487 0.3333 0.3333 0.3333h3.333c0.1847 0 0.3333-0.1487 0.3333-0.3333v-2.334c0-0.1847-0.1487-0.3333-0.3333-0.3333h-0.3333v-0.6458c0-0.7467-0.5947-1.354-1.333-1.354s-1.333 0.6072-1.333 1.354zm2-0.0206v0.6667h-1.333v-0.6667c0-0.3693 0.2973-0.6667 0.6664-0.6667s0.6666 0.2973 0.6666 0.6667z" fill="currentColor"/>
</svg>
