<svg width="16" height="16" version="1.1" xmlns="http://www.w3.org/2000/svg">
  <defs>
    <style id="current-color-scheme" type="text/css">.ColorScheme-Text { color:#ebdbb2; } .ColorScheme-Highlight { color:#458588; }</style>
  </defs>
  <path class="ColorScheme-Text" d="m1.998 0.9941 0.001953 0.005859c-1.031 0.0625-1 1-1 1v12s-0.0312 0.9375 1 1h12c1 0 1-1 1-1v-12s0-1-1-1h-5.531l0.3125 0.375 1.312 1.625h2.906v7h-3c0 1.108-0.892 2-2 2s-2-0.892-2-2h-3v-7h2.906l1.312-1.625 0.3105-0.3809h-5.531zm6.002 1.006-4 5h2v2h4v-2h2l-4-5z" fill="currentColor"/>
</svg>
