<svg width="24" height="24" version="1.1" viewBox="0 0 24 24" xmlns="http://www.w3.org/2000/svg">
  <defs>
    <style id="current-color-scheme" type="text/css">.ColorScheme-Text { color:#ebdbb2; } .ColorScheme-Highlight { color:#458588; }</style>
  </defs>
  <path class="ColorScheme-Text" d="m19 12c0 0.3222-0.2612 0.5833-0.5833 0.5833s-0.5833-0.2612-0.5833-0.5833 0.2612-0.5833 0.5833-0.5833 0.5833 0.2612 0.5833 0.5833zm-0.9378-3.5c0.1611 0.279 0.06549 0.6358-0.2135 0.7968-0.279 0.1611-0.6358 0.06549-0.7968-0.2135-0.1611-0.279-0.06549-0.6358 0.2135-0.7968 0.279-0.1611 0.6358-0.06549 0.7968 0.2135zm-2.562-2.562c0.279 0.1611 0.3746 0.5178 0.2135 0.7968s-0.5178 0.3746-0.7968 0.2135-0.3746-0.5178-0.2135-0.7968 0.5178-0.3746 0.7968-0.2135zm-3.5-0.9378c0.3222 0 0.5833 0.2612 0.5833 0.5833 0 0.3222-0.2612 0.5833-0.5833 0.5833s-0.5833-0.2612-0.5833-0.5833c0-0.3222 0.2612-0.5833 0.5833-0.5833zm-3.5 0.9378c0.279-0.1611 0.6358-0.06549 0.7968 0.2135 0.1611 0.279 0.06549 0.6358-0.2135 0.7968-0.279 0.1611-0.6358 0.06549-0.7968-0.2135-0.1611-0.279-0.06549-0.6358 0.2135-0.7968zm-2.562 2.562c0.1611-0.279 0.5178-0.3746 0.7968-0.2135s0.3746 0.5178 0.2135 0.7968-0.5178 0.3746-0.7968 0.2135-0.3746-0.5178-0.2135-0.7968zm-0.9378 3.5c0-0.3222 0.2612-0.5833 0.5833-0.5833 0.3222 0 0.5833 0.2612 0.5833 0.5833s-0.2612 0.5833-0.5833 0.5833c-0.3222 0-0.5833-0.2612-0.5833-0.5833zm0.9378 3.5c-0.1611-0.279-0.06549-0.6358 0.2135-0.7968 0.279-0.1611 0.6358-0.06549 0.7968 0.2135 0.1611 0.279 0.06549 0.6358-0.2135 0.7968s-0.6358 0.06549-0.7968-0.2135zm2.562 2.562c-0.279-0.1611-0.3746-0.5178-0.2135-0.7968s0.5178-0.3746 0.7968-0.2135 0.3746 0.5178 0.2135 0.7968-0.5178 0.3746-0.7968 0.2135zm3.5 0.9378c-0.3222 0-0.5833-0.2612-0.5833-0.5833s0.2612-0.5833 0.5833-0.5833 0.5833 0.2612 0.5833 0.5833-0.2612 0.5833-0.5833 0.5833zm3.5-0.9378c-0.279 0.1611-0.6358 0.06549-0.7968-0.2135-0.1611-0.279-0.06549-0.6358 0.2135-0.7968 0.279-0.1611 0.6358-0.06549 0.7968 0.2135 0.1611 0.279 0.06549 0.6358-0.2135 0.7968zm2.562-2.562c-0.1611 0.279-0.5178 0.3746-0.7968 0.2135s-0.3746-0.5178-0.2135-0.7968 0.5178-0.3746 0.7968-0.2135 0.3746 0.5178 0.2135 0.7968zm-0.8122-3.5c0 0.6443-0.5223 1.167-1.167 1.167-0.6443 0-1.167-0.5223-1.167-1.167 0-0.6443 0.5223-1.167 1.167-1.167 0.6443 0 1.167 0.5223 1.167 1.167zm-1.538-3.712c0.4556 0.4556 0.4556 1.194 0 1.65-0.4556 0.4556-1.194 0.4556-1.65 0-0.4556-0.4556-0.4556-1.194 0-1.65 0.4556-0.4556 1.194-0.4556 1.65 0zm-3.712-1.538c0.6443 0 1.167 0.5223 1.167 1.167s-0.5223 1.167-1.167 1.167c-0.6443 0-1.167-0.5223-1.167-1.167s0.5223-1.167 1.167-1.167zm-3.712 1.538c0.4556-0.4556 1.194-0.4556 1.65 0s0.4556 1.194 0 1.65-1.194 0.4556-1.65 0-0.4556-1.194 0-1.65zm-1.538 3.712c0-0.6443 0.5223-1.167 1.167-1.167 0.6443 0 1.167 0.5223 1.167 1.167 0 0.6443-0.5223 1.167-1.167 1.167-0.6443 0-1.167-0.5223-1.167-1.167zm1.538 3.712c-0.4556-0.4556-0.4556-1.194 0-1.65 0.4556-0.4556 1.194-0.4556 1.65 0 0.4556 0.4556 0.4556 1.194 0 1.65s-1.194 0.4556-1.65 0zm3.712 1.538c-0.6443 0-1.167-0.5223-1.167-1.167 0-0.6443 0.5223-1.167 1.167-1.167 0.6443 0 1.167 0.5223 1.167 1.167 0 0.6443-0.5223 1.167-1.167 1.167zm3.712-1.538c-0.4556 0.4556-1.194 0.4556-1.65 0s-0.4556-1.194 0-1.65c0.4556-0.4556 1.194-0.4556 1.65 0 0.4556 0.4556 0.4556 1.194 0 1.65zm-1.962-3.712a1.75 1.75 0 0 1-1.75 1.75 1.75 1.75 0 0 1-1.75-1.75 1.75 1.75 0 0 1 1.75-1.75 1.75 1.75 0 0 1 1.75 1.75z" fill="currentColor"/>
</svg>
