<svg width="24" height="24" version="1.1" viewBox="0 0 24 24" xmlns="http://www.w3.org/2000/svg">
  <defs>
    <style id="current-color-scheme" type="text/css">.ColorScheme-Text { color:#ebdbb2; } .ColorScheme-Highlight { color:#458588; }</style>
  </defs>
  <path class="ColorScheme-Text" d="m11.5 6v1h1v-1zm-3.389 1.404-0.707 0.707 0.707 0.707 0.707-0.707zm7.779 0.00195-0.707 0.707 0.707 0.707 0.707-0.707zm-3.895 0.5938a4 4 0 0 0-3.996 4.002 4 4 0 0 0 4.002 3.998 4 4 0 0 0 3.998-4h-4v3a3 3 0 0 1-3-2.998 3 3 0 0 1 2.998-3.002 3 3 0 0 0 2e-3 0v3l4-0.0039a4 4 0 0 0-4.004-3.996zm-5.996 3.5v1h1v-1zm11 0v1h1v-1zm-1.111 3.682-0.707 0.707 0.707 0.707 0.707-0.707zm-7.773 0.0039-0.707 0.707 0.707 0.707 0.707-0.707zm3.385 1.814v1h1v-1z" fill="currentColor"/>
</svg>
