<svg width="24" height="24" version="1.1" viewBox="0 0 24 24" xmlns="http://www.w3.org/2000/svg">
  <defs>
    <style id="current-color-scheme" type="text/css">.ColorScheme-Text { color:#ebdbb2; } .ColorScheme-Highlight { color:#458588; }</style>
  </defs>
  <path class="ColorScheme-Text" d="m8.727 5c-1.174 0.015-2.032-0.03053-2.734 0.3848-0.3509 0.2072-0.6281 0.5593-0.7812 0.998-0.154 0.4387-0.2109 0.96-0.2109 1.617v8c0 0.6572 0.05694 1.178 0.2109 1.617 0.1531 0.4387 0.4304 0.7909 0.7812 0.998 0.7026 0.4153 1.56 0.3698 2.734 0.3848h6.545c1.174-0.015 2.034 0.03053 2.736-0.3848 0.3509-0.2072 0.6292-0.5593 0.7832-0.998 0.1532-0.4387 0.209-0.96 0.209-1.617v-8c0-0.6572-0.05694-1.178-0.2109-1.617-0.153-0.4387-0.4304-0.7909-0.7812-0.998-0.7026-0.4153-1.56-0.3698-2.734-0.3848h-6.547zm7.266 3.986c0.02833-0.00154 0.0568-0.00133 0.08398 0.00195 0.1087 0.01312 0.2053 0.0625 0.2578 0.1328l0.08594 0.1152c0.1266 0.1697 0.1047 0.4946-0.1016 0.6465l-3.33 1.982c0.0066 0.045 0.0098 0.08977 0.0098 0.1348 0 0.3572-0.1916 0.6862-0.5 0.8652v2.635c0 0.2775-0.2091 0.502-0.4688 0.502h-0.0625c-0.2597 0-0.4688-0.2245-0.4688-0.502v-2.635c-0.3084-0.1781-0.4991-0.509-0.5-0.8652 9.38e-4 -0.03937 0.0032-0.07876 0.0078-0.1172l-2.33-0.9824c-0.2053-0.1519-0.2262-0.4788-0.09961-0.6484l0.08594-0.1133c0.105-0.1406 0.3856-0.1988 0.5918-0.04687l2.346 0.9941c0.1256-0.05531 0.2616-0.085 0.3984-0.08594 0.1322 0 0.2609 0.0275 0.3828 0.07813l3.361-2.004c0.07734-0.05695 0.165-0.08328 0.25-0.08789z" fill="currentColor"/>
</svg>
