<svg width="24" height="24" version="1.1" viewBox="0 0 24 24" xmlns="http://www.w3.org/2000/svg">
  <defs>
    <style type="text/css">.ColorScheme-Text { color:#ebdbb2; } .ColorScheme-Highlight { color:#458588; }</style>
  </defs>
  <path class="ColorScheme-Text" d="m7.051 7.051c-2.734 2.734-2.734 7.165 0 9.898 2.734 2.734 7.165 2.734 9.898 0s2.734-7.165 0-9.898c-2.732-2.732-7.167-2.732-9.898 0zm8.484 1.414c1.952 1.952 1.952 5.118 0 7.07-1.952 1.952-5.118 1.952-7.07 0-1.952-1.952-1.952-5.118 0-7.07 1.946-1.948 5.12-1.951 7.07 0zm-4.539-0.465v4.414l2.414 2.414 1.414-1.414-1.828-1.828v-3.586z" fill="currentColor"/>
</svg>
