<svg width="24" height="24" version="1.1" xmlns="http://www.w3.org/2000/svg">
  <defs>
    <style id="current-color-scheme" type="text/css">.ColorScheme-Text { color:#ebdbb2; } .ColorScheme-Highlight { color:#458588; }</style>
  </defs>
  <path class="ColorScheme-Text" d="m12 5a7 7 0 0 0-7 7 7 7 0 0 0 7 7 7 7 0 0 0 2-0.293v-1.707h-2v-2h2v-2h-2v-2h2v-2h-2v-2h2v-1.707a7 7 0 0 0-2-0.293zm2 2v2h2v-2zm2 0h0.8965a7 7 0 0 0-0.8965-0.7422zm0 2v2h2v-2zm2 0h0.3242a7 7 0 0 0-0.3242-0.6055zm0 2v2h0.9297a7 7 0 0 0 0.07031-1 7 7 0 0 0-0.07227-1h-0.9277zm0 2h-2v2h2zm0 2v0.582a7 7 0 0 0 0.3164-0.582zm-2 0h-2v2h2zm0 2v0.7285a7 7 0 0 0 0.875-0.7285zm0-4v-2h-2v2z" fill="currentColor"/>
</svg>
