<svg width="24" height="24" version="1.1" viewBox="0 0 24 24" xmlns="http://www.w3.org/2000/svg">
  <defs>
    <style type="text/css">.ColorScheme-Text { color:#ebdbb2; } .ColorScheme-Highlight { color:#458588; }</style>
  </defs>
  <path class="ColorScheme-Text" d="m7.92 6.229c0.04757 0.3967 0.2525 0.4344 0.8595 0.1621 1.128-0.5065 1.678-0.6136 3.102-0.6152 1.633-0.00134 2.235 0.1384 3.574 0.8321 0.2302 0.119 0.9587 0.681 1.23 0.3789 0.2693-0.2693 0.1271-0.4926-0.5663-0.8867-1.368-0.7776-2.562-1.094-4.05-1.101-1.487-0.00694-2.676 0.2513-3.396 0.6119s-0.7763 0.4236-0.7531 0.6179zm-0.9893 2.544c-0.5184 0.56-1.123 1.476-1.123 1.703 0 0.2646 0.1088 0.4123 0.3067 0.4123 0.155 0 0.3121-0.1682 0.6876-0.7326 0.8397-1.262 1.93-2.1 3.332-2.563 1.088-0.3551 2.36-0.3139 3.584 0 1.581 0.5194 2.937 1.677 3.68 3.141 0.1616 0.3185 0.2577 0.4159 0.4159 0.4159 0.2726 0 0.4337-0.2031 0.3594-0.4552-0.1201-0.4063-0.761-1.39-1.246-1.914-1.342-1.45-3.172-2.176-5.002-2.178-1.83-0.00132-3.656 0.723-4.995 2.17zm3.901-0.4628c-1.878 0.3924-3.448 1.913-3.951 3.825-0.2666 1.016-0.145 2.674 0.2949 4 0.1315 0.3964 0.1944 0.48 0.3828 0.5018 0.4334 0.05035 0.4761-0.156 0.2168-1.053-0.7419-2.566-0.1036-4.751 1.736-5.941 1.819-1.177 4.324-0.8288 5.746 0.7987 0.8923 1.02 1.382 2.745 0.9921 3.498-0.2572 0.4972-0.884 0.7971-1.398 0.6681-0.3759-0.09435-0.8219-0.5557-0.879-0.9101-0.2013-1.251-0.484-1.742-1.203-2.076-0.6136-0.2856-1.125-0.2776-1.727 0.02734-0.561 0.2841-0.9911 0.8572-1.078 1.437-0.03141 0.2092-0.01756 0.6625 0.03124 1.006 0.3035 2.14 1.778 3.709 3.878 4.232 0.2644 0.06546 1.222 0.2452 1.499 0.2074 0.2765-0.03772 0.3152-0.5409 0-0.6113-0.3152-0.07038-1.892-0.3465-2.48-0.6777-1.28-0.7204-2.197-2.283-2.197-3.742 0-0.643 0.2449-1.019 0.8126-1.254 0.4103-0.1092 0.4162-0.1147 0.8262 0 0.519 0.2151 0.7676 0.5759 0.8321 1.199 0.1181 1.144 0.9114 1.897 2 1.897 0.8738 0 1.61-0.5673 1.871-1.441 0.2552-0.8556-0.08896-2.292-0.8086-3.385-0.9538-1.448-2.532-2.333-4.222-2.322-0.8342 0.00527-1.171 0.1294-1.175 0.1158zm-0.4377 1.83c-0.7068 0.3461-1.38 1.038-1.729 1.774-0.2651 0.5597-0.2814 0.6456-0.2813 1.596 1.961e-4 1.169 0.1412 1.79 0.6447 2.84 0.4337 0.9045 1.035 1.694 1.703 2.234 0.5789 0.4684 0.64 0.4906 0.881 0.3145 0.2468-0.1804 0.1099-0.4909-0.3888-0.8731-0.5405-0.4146-1.126-1.163-1.52-1.949-0.6473-1.291-0.8106-2.887-0.3888-3.802 0.3062-0.6632 0.7739-1.157 1.369-1.449 0.7154-0.3514 1.761-0.3514 2.477 0 0.8539 0.4192 1.399 1.181 1.592 2.229 0.1154 0.6252 0.2902 0.8338 0.5567 0.6622 0.1235-0.07961 0.1502-0.2134 0.1387-0.6896-0.02792-1.157-0.8387-2.319-2.024-2.901-0.3977-0.1935-0.9267-0.2803-1.47-0.2729-0.5438 0.00747-1.102 0.1092-1.561 0.2877zm1.203 3.574c0.1292 1.529 1.28 2.846 2.774 3.172 0.6625 0.1444 0.839 0.1416 0.9981-0.01759 0.3179-0.3179 0.107-0.5719-0.5528-0.6622-1.348-0.1844-2.352-1.214-2.512-2.578-0.04982-0.4238-0.153-0.6152-0.4181-0.5754s-0.33 0.178-0.2892 0.6612z" fill="currentColor" stroke-width="3.306"/>
</svg>
