<svg width="24" height="24" version="1.1" viewBox="0 0 24 24" xmlns="http://www.w3.org/2000/svg">
  <defs>
    <style id="current-color-scheme" type="text/css">.ColorScheme-Text { color:#ebdbb2; } .ColorScheme-Highlight { color:#458588; }</style>
  </defs>
  <path class="ColorScheme-Text" d="m8.5 5c-0.8417 0-1.479 0.5729-1.879 1.266-0.3996 0.6927-0.6367 1.548-0.7988 2.391-0.0889 0.4623-0.1526 0.9193-0.1992 1.344h-1.623v4h4v-4h-1.373c0.04253-0.3704 0.1003-0.7638 0.1758-1.156 0.1504-0.7821 0.3821-1.552 0.6855-2.078s0.6034-0.7656 1.012-0.7656 0.8013 0.2687 1.197 0.8105c0.396 0.5419 0.7457 1.318 1.018 2.104 0.1276 0.3686 0.2365 0.736 0.332 1.086h-1.047v4h1.916c0.1153 0.4444 0.2549 0.9259 0.4238 1.414 0.2906 0.8397 0.6597 1.688 1.154 2.365 0.4946 0.6769 1.164 1.221 2.006 1.221s1.479-0.5728 1.879-1.266c0.3996-0.6928 0.6367-1.546 0.7988-2.389 0.08904-0.4631 0.1506-0.9204 0.1973-1.346h1.625v-4h-4v4h1.371c-0.04253 0.3704-0.09835 0.7637-0.1738 1.156-0.1504 0.7823-0.382 1.552-0.6855 2.078-0.3035 0.5261-0.6034 0.7656-1.012 0.7656s-0.8013-0.2686-1.197-0.8105c-0.396-0.542-0.7457-1.316-1.018-2.102-0.1278-0.3692-0.2383-0.7373-0.334-1.088h1.049v-4h-1.918c-0.1153-0.4444-0.2529-0.926-0.4219-1.414-0.2906-0.8395-0.6597-1.688-1.154-2.365-0.4946-0.6769-1.164-1.221-2.006-1.221z" fill="currentColor"/>
</svg>
