<svg width="24" height="24" version="1.1" xmlns="http://www.w3.org/2000/svg">
  <defs>
    <style id="current-color-scheme" type="text/css">.ColorScheme-Text { color:#ebdbb2; } .ColorScheme-Highlight { color:#458588; }</style>
  </defs>
  <path class="ColorScheme-Text" d="m6 5c-1 0-1 1-1 1v5.004h2v-4.004h3.984l8e-3 -2zm6.992 0v2h4.008v4.004h2v-5.004c0-1-1-1-1-1zm-7.992 8.004v4.996c0 1 1 1 1 1h4.992v-2h-3.992v-3.996zm12 0v3.996h-4.008v2h5.008s1 0 1-1v-4.996zm-3.008-5.004h-4l2 4m-2 4h4l-2-4" fill="currentColor"/>
</svg>
