<svg width="24" height="24" version="1.1" xmlns="http://www.w3.org/2000/svg">
  <defs>
    <style id="current-color-scheme" type="text/css">.ColorScheme-Text { color:#ebdbb2; } .ColorScheme-Highlight { color:#458588; }</style>
  </defs>
  <path class="ColorScheme-Text" d="m6 5v2h-1v3h1v4h-1v3h1v2h2v-1h-1v-12h11v2h1v-3zm8 3c-3.314 0-5 0.8954-5 2v8c0 1.105 1.686 2 5 2s5-0.8954 5-2v-8c0-1.105-1.686-2-5-2zm0 1c2.761 0 4 0.4477 4 1s-1.239 1-4 1-4-0.4477-4-1 1.239-1 4-1zm-4 2.102c1.109 0.5601 1.987 0.8976 4 0.8984 2.012-4.5e-4 2.89-0.3371 4-0.8965v2.896c0 0.5523-1.239 1-4 1s-4-0.4477-4-1v-2.898zm0 4c1.109 0.5601 1.987 0.8976 4 0.8984 2.012-4.5e-4 2.89-0.3371 4-0.8965v2.896c0 0.5523-1.239 1-4 1s-4-0.4477-4-1v-2.898z" fill="currentColor"/>
</svg>
