<svg width="24" height="24" version="1.1" viewBox="0 0 24 24" xmlns="http://www.w3.org/2000/svg">
  <defs>
    <style type="text/css">.ColorScheme-Text { color:#ebdbb2; } .ColorScheme-Highlight { color:#458588; }</style>
  </defs>
  <path class="ColorScheme-Text" d="m6 5s-1 0.00568-1 1v11.01s1e-6 0.9902 1 0.9902h12s1-1e-6 1-1v-9c0-1-1-1-1-1l-5-0.009766-2-1.99zm6.186 3c1.137 0 2.056 0.3138 2.758 0.9414 0.7046 0.6244 1.057 1.448 1.057 2.473 0 0.8423-0.2148 1.519-0.6445 2.029-0.4297 0.5073-0.9626 0.7617-1.598 0.7617-0.3128 0-0.5658-0.08545-0.7617-0.2578-0.1959-0.1724-0.3026-0.3974-0.3184-0.6738h-0.0293c-0.2212 0.6211-0.6218 0.9316-1.203 0.9316-0.436 0-0.7881-0.1631-1.057-0.4883-0.2654-0.3252-0.3984-0.776-0.3984-1.352 0-0.7447 0.185-1.349 0.5547-1.814 0.3697-0.4683 0.8146-0.7012 1.336-0.7012 0.4708 0 0.7667 0.1898 0.8867 0.5703h0.01953l0.04688-0.4824h1.066c-0.1422 1.385-0.2129 2.291-0.2129 2.717 0 0.4553 0.1192 0.6816 0.3594 0.6816 0.2528-1e-6 0.4627-0.1709 0.627-0.5156 0.1643-0.3447 0.2461-0.7955 0.2461-1.352 0-0.761-0.2363-1.385-0.707-1.869-0.4708-0.4878-1.127-0.7305-1.971-0.7305-0.9036 0-1.656 0.3242-2.256 0.9746-0.5972 0.6472-0.8965 1.438-0.8965 2.371 0 0.9041 0.2634 1.616 0.791 2.137 0.5308 0.5203 1.263 0.7793 2.195 0.7793 0.7109 0 1.362-0.1383 1.953-0.418v0.9316c-0.5403 0.2374-1.236 0.3555-2.086 0.3555-1.166 0-2.115-0.3431-2.848-1.029-0.7299-0.6894-1.096-1.614-1.096-2.775 0-1.184 0.3895-2.18 1.17-2.986 0.7804-0.8065 1.787-1.209 3.016-1.209zm-0.1387 2.697c-0.2844 0-0.5152 0.167-0.6953 0.502-0.1769 0.3317-0.2656 0.7172-0.2656 1.156 0 0.3122 0.05962 0.5568 0.1797 0.7324 0.1232 0.1724 0.2819 0.2578 0.4746 0.2578 0.297 0 0.5306-0.1637 0.7012-0.4922 0.1706-0.3285 0.2559-0.7668 0.2559-1.316 0-0.2602-0.06158-0.4656-0.1816-0.6152-0.1169-0.1496-0.2729-0.2246-0.4688-0.2246z" fill="currentColor"/>
</svg>
