<svg width="24" height="24" version="1.1" xmlns="http://www.w3.org/2000/svg">
  <defs>
    <style id="current-color-scheme" type="text/css">.ColorScheme-Text { color:#ebdbb2; } .ColorScheme-Highlight { color:#458588; }</style>
  </defs>
  <path class="ColorScheme-Text" d="m6 6c-1.108 0-2 0.892-2 2v8c0 1.108 0.892 2 2 2h12c1.108 0 2-0.892 2-2v-8c0-1.108-0.892-2-2-2zm6 1.996c1.105 0 2 0.8954 2 2 0 1.105-0.8954 2-2 2-1.105 0-2-0.8954-2-2 0-1.105 0.8954-2 2-2zm0 4.5c2.033 0.0023 3.746 1.502 4 3.5h-8c0.2543-1.998 1.967-3.498 4-3.5z" fill="currentColor"/>
</svg>
