<svg width="24" height="24" version="1.1" viewBox="0 0 24 24" xmlns="http://www.w3.org/2000/svg">
    <defs>
        <style type="text/css">
            .ColorScheme-Text {
                color: #ebdbb2;
            }

            .ColorScheme-Highlight {
                color: #458588;
            }
        </style>
    </defs>
    <path class="ColorScheme-Text"
        d="m5 5v14h14v-2.4883l-0.04785-0.04558-3.2995-3.2995-0.0045 0.0045-0.0068-0.0045-2.4769 2.4769-3.6436-3.6436h-3.3542v-7zm8.1667 0-4.6689 4.6689h-2.3288v1.1667h2.8118l4.1882-4.1882 2.4769 2.4769 0.0068-0.00456 0.0045 0.00456 3.2995-3.2995c0.003552 0.0058337-0.82478-0.82487-0.82478-0.82487l-2.4792 2.4792-2.4814-2.4792-0.0023 0.00228zm-7 8.1667h2.8711l4.1243 4.1244 0.0023-0.0023 0.0023 0.0023 2.4814-2.4792 2.4792 2.4792 0.56283 0.54232h-12.523v-2.7686z"
        fill="currentColor" stroke-width="1.1667" />
</svg>