<svg width="24" height="24" version="1.1" viewBox="0 0 24 24" xmlns="http://www.w3.org/2000/svg">
  <defs>
    <style id="current-color-scheme" type="text/css">.ColorScheme-Text { color:#ebdbb2; } .ColorScheme-Highlight { color:#458588; }</style>
  </defs>
  <path class="ColorScheme-Text" d="m11.96 3.988c-2.666 0.0253-5.318 0.7241-7.957 2.021 3.107 5.003 2.048 8.228 0 12 5.611 2.98 10.97 2.345 16 0-2.508-3.88-2.722-7.203 0-12-2.697-1.399-5.377-2.047-8.043-2.021zm-0.2422 1.014c0.8787-0.02506 1.773 0.04912 2.682 0.2109-0.2896 1.165-0.5152 2.326-0.6641 3.484-0.4375-0.03967-0.8779-0.07132-1.328-0.08203-0.708-0.01685-1.438 0.02104-2.182 0.08594-0.147-1.145-0.3698-2.294-0.6543-3.445 0.7097-0.1322 1.423-0.2333 2.146-0.2539zm3.658 0.4277c1.07 0.2632 2.16 0.6344 3.275 1.135-0.4903 0.9439-0.8575 1.891-1.105 2.834-0.9161-0.2414-1.851-0.4452-2.818-0.5801 0.1453-1.123 0.3649-2.253 0.6484-3.389zm-6.785 0.02539c0.2788 1.12 0.4965 2.235 0.6406 3.344-0.8887 0.123-1.812 0.3271-2.758 0.5879-0.2611-0.8949-0.6376-1.832-1.143-2.812 1.081-0.4617 2.165-0.8441 3.26-1.119zm3.422 4.158c0.5503-4.859e-4 1.089 0.02399 1.619 0.07227-0.1477 1.591-0.1575 3.174-0.02148 4.748-1.046 0.09412-2.131 0.09568-3.258-2e-3 0.1356-1.572 0.1238-3.153-0.02344-4.742 0.5716-0.05024 1.133-0.07569 1.684-0.07617zm-2.678 0.1777c0.1415 1.524 0.1524 3.038 0.02344 4.541-0.8518-0.1199-1.739-0.3185-2.65-0.5723 0.05572-0.2755 0.1163-0.5477 0.1484-0.8379 0.08847-0.7995 0.03533-1.657-0.1445-2.562 0.902-0.2507 1.78-0.4486 2.623-0.5684zm5.289 0.01758c0.9296 0.1329 1.833 0.3324 2.723 0.5703-0.1961 1.136-0.2141 2.263-0.04297 3.373-0.8836 0.2341-1.78 0.4297-2.703 0.5605-0.1269-1.491-0.1159-2.992 0.02344-4.504zm-8.158 4.918c0.9554 0.2647 1.888 0.474 2.785 0.5977-0.1365 1.068-0.3556 2.131-0.6406 3.189-1.115-0.2516-2.193-0.6077-3.25-1.055 0.4172-0.8609 0.8122-1.762 1.105-2.732zm11.03 0.0059c0.2361 0.9206 0.5999 1.826 1.104 2.711-1.14 0.4721-2.219 0.8098-3.252 1.045-0.283-1.057-0.4994-2.119-0.6348-3.186 0.9548-0.1327 1.878-0.3337 2.783-0.5703zm-7.25 0.6875c1.203 0.1043 2.361 0.1022 3.475 2e-3 0.1375 1.088 0.3577 2.17 0.6426 3.248-1.7 0.2807-3.277 0.2723-4.77 0.03516 0.2898-1.09 0.5134-2.185 0.6523-3.285z" fill="currentColor"/>
</svg>
