<svg width="24" height="24" version="1.1" viewBox="0 0 24 24" xmlns="http://www.w3.org/2000/svg">
  <defs>
    <style type="text/css">.ColorScheme-Text { color:#ebdbb2; } .ColorScheme-Highlight { color:#458588; }</style>
  </defs>
  <path class="ColorScheme-Text" d="m15.5 19v-14h-1v14zm-3.002-0.5c0.2779 0 0.502-0.2241 0.502-0.502v-1.996c0-0.2779-0.2241-0.502-0.502-0.502h-1.996c-0.2779 0-0.502 0.2241-0.502 0.502v1.996c0 0.2779 0.2241 0.502 0.502 0.502zm-5 0c0.2779 0 0.502-0.2241 0.502-0.502v-1.996c0-0.2779-0.2241-0.502-0.502-0.502h-1.996c-0.2779 0-0.502 0.2241-0.502 0.502v1.996c0 0.2779 0.2241 0.502 0.502 0.502zm11.5-0.7285v-1h-2v1zm0-3.5v-1h-2v1zm-6.502-0.7715c0.2779 0 0.502-0.2241 0.502-0.502v-1.996c0-0.2779-0.2241-0.502-0.502-0.502h-1.996c-0.2779 0-0.502 0.2241-0.502 0.502v1.996c0 0.2779 0.2241 0.502 0.502 0.502zm-5 0c0.2779 0 0.502-0.2241 0.502-0.502v-1.996c0-0.2779-0.2241-0.502-0.502-0.502h-1.996c-0.2779 0-0.502 0.2241-0.502 0.502v1.996c0 0.2779 0.2241 0.502 0.502 0.502zm11.5-2.729v-1h-2v1zm-6.502-2.271c0.2779 0 0.502-0.2241 0.502-0.502v-1.996c0-0.2779-0.2241-0.502-0.502-0.502h-1.996c-0.2779 0-0.502 0.2241-0.502 0.502v1.996c0 0.2779 0.2241 0.502 0.502 0.502zm-5 0c0.2779 0 0.502-0.2241 0.502-0.502v-1.996c0-0.2779-0.2241-0.502-0.502-0.502h-1.996c-0.2779 0-0.502 0.2241-0.502 0.502v1.996c0 0.2779 0.2241 0.502 0.502 0.502zm11.5-1.229v-1h-2v1z" fill="currentColor"/>
</svg>
