<svg width="24" height="24" version="1.1" xmlns="http://www.w3.org/2000/svg">
  <defs>
    <style id="current-color-scheme" type="text/css">.ColorScheme-Text { color:#ebdbb2; } .ColorScheme-Highlight { color:#458588; }</style>
  </defs>
  <path class="ColorScheme-Text" d="m11.97 5-6.967 4h1v2h1v6h-1v2h9.729l-1.25-2h-6.479c0.2543-1.998 1.967-3.498 4-3.5 1.262 0.0014 2.396 0.5829 3.139 1.5h0.3613v-2h1.5v-2h1v-2h1l-7.033-4zm0.0332 4c1.105 0 2 0.8954 2 2 0 1.105-0.8954 2-2 2-1.105 0-2-0.8954-2-2 0-1.105 0.8954-2 2-2zm4.5 5v2h-1.5l2.5 4 2.5-4h-1.5v-2z" fill="currentColor"/>
</svg>
