<svg width="24" height="24" version="1.1" xmlns="http://www.w3.org/2000/svg">
  <defs>
    <style id="current-color-scheme" type="text/css">.ColorScheme-Text { color:#ebdbb2; } .ColorScheme-Highlight { color:#458588; }</style>
  </defs>
  <path class="ColorScheme-Text" d="m18.62 7c0.2077 0 0.375 0.1673 0.375 0.375v1.25c0 0.2077-0.1673 0.375-0.375 0.375h-1.25c-0.2077 0-0.375-0.1673-0.375-0.375v-1.25c0-0.2077 0.1673-0.375 0.375-0.375zm-3.625 0v2h-10v-2zm3.625 4c0.2077 0 0.375 0.1673 0.375 0.375v1.25c0 0.2077-0.1673 0.375-0.375 0.375h-1.25c-0.2077 0-0.375-0.1673-0.375-0.375v-1.25c0-0.2077 0.1673-0.375 0.375-0.375zm-3.625 0v2h-10v-2zm3.625 4c0.2077 0 0.375 0.1673 0.375 0.375v1.25c0 0.2077-0.1673 0.375-0.375 0.375h-1.25c-0.2077 0-0.375-0.1673-0.375-0.375v-1.25c0-0.2077 0.1673-0.375 0.375-0.375zm-3.625 0v2h-10v-2z" fill="currentColor"/>
</svg>
