<svg width="24" height="24" version="1.1" xmlns="http://www.w3.org/2000/svg">
  <defs>
    <style id="current-color-scheme" type="text/css">.ColorScheme-Text { color:#ebdbb2; } .ColorScheme-Highlight { color:#458588; }</style>
  </defs>
  <path class="ColorScheme-Text" d="m10.67 4c-1.46 0-2.666 1.206-2.666 2.666v1.334h-1.334c-1.46 0-2.666 1.206-2.666 2.666v6.668c0 1.46 1.206 2.666 2.666 2.666h6.668c1.46 0 2.666-1.206 2.666-2.666v-1.334h1.334c1.46 0 2.666-1.206 2.666-2.666v-6.668c0-1.46-1.206-2.666-2.666-2.666zm-0.666 2h8v8h-4v4h-8v-8h4zm1 1v4h-4v6h6v-4h4v-6z" fill="currentColor"/>
</svg>
