<svg width="24" height="24" version="1.1" viewBox="0 0 24 24" xmlns="http://www.w3.org/2000/svg">
  <defs>
    <style id="current-color-scheme" type="text/css">.ColorScheme-Text { color:#ebdbb2; } .ColorScheme-Highlight { color:#458588; }</style>
  </defs>
  <path class="ColorScheme-Text" d="m12 4.719 0.001953 0.001953 0.001953-0.001953h-0.003906zm0.001953 0.001953c-0.7673 0.7572-1.515 1.535-2.295 2.279h-2.703v2.703c-0.7446 0.7806-1.523 1.529-2.281 2.297 0.7579 0.768 1.537 1.516 2.281 2.297v2.703h2.703c0.7806 0.7446 1.529 1.523 2.297 2.281 0.768-0.7579 1.516-1.537 2.297-2.281h2.703v-2.703c0.7446-0.7806 1.523-1.529 2.281-2.297-0.7579-0.768-1.537-1.516-2.281-2.297v-2.703h-2.703c-0.7843-0.7439-1.53-1.522-2.299-2.279zm0.001953 2.779c2.485 0 4.5 2.015 4.5 4.5s-2.015 4.5-4.5 4.5-4.5-2.015-4.5-4.5 2.015-4.5 4.5-4.5zm0 1.5c-1.657 0-3 1.343-3 3s1.343 3 3 3v-6z" fill="currentColor"/>
</svg>
