<svg width="256" height="256" version="1.1" xmlns="http://www.w3.org/2000/svg">
  <path d="m53.047 21c-36.322 0-40.047 2.4809-40.047 37.772v96.653h230v-77.055c0-35.291-3.6782-41.37-40-41.37h-90l-16-16z" fill="#d79921"/>
  <path d="m53 71c-36.338 0-39.996 6.1437-39.996 41.397v83.653c0 35.313 3.6859 38.951 40.002 38.951h149.99c36.316 0 40-3.639 40-38.951v-99.621c0-33.574-2.6872-40.428-36-40.428h-87l-17 15z" fill="#fabd2f"/>
  <path d="m243 193.99c0 35.291-3.6527 37.006-39.974 37.006h-150.02c-36.319 0-40.005-1.7148-40.005-37v2c0 35.641 4.0005 39 40.005 39h150.02c36.399 0 39.974-3.7272 39.974-38.998z" fill="#d79921"/>
  <path d="m120 56-17 15h-50c-36.156 0-39.996 5.9171-39.996 41.433v4.1406c0-35.295 3.6836-41.574 39.996-41.574h51l17-15 86.001-0.01105c33.136-0.004256 35.999 7.0504 35.999 40.591v-4.1407c0-33.541-2.6494-40.44-36-40.44z" fill="#ebdbb2" opacity=".3"/>
  <path d="m97 21-43.953 1e-6c-36.322 0-40.052 2.4512-40.052 37.744v3.9101c0-35.291 3.6815-37.655 40.005-37.655h43l16 16h91c36.322 0 40 5.9893 40 41.281v-3.9072c0-35.291-3.6777-41.373-40-41.373h-90z" fill="#fabd2f" opacity=".4"/>
  <path d="m157.17 103c-11.735-3e-3 -22.689 5.8798-29.167 15.665-6.4776-9.7854-17.432-15.668-29.167-15.665-19.334 0-35 15.665-35 35 0 34.829 64.167 70 64.167 70s64.167-34.863 64.167-70c0-19.334-15.665-35-35-35z" fill="#ebdbb2" opacity=".2"/>
  <path d="m157.17 100c-11.735-0.003207-22.689 5.8798-29.167 15.665-6.4776-9.7854-17.432-15.668-29.167-15.665-19.334 0-35 15.665-35 35 0 34.829 64.167 70 64.167 70s64.167-34.863 64.167-70c0-19.334-15.665-35-35-35z" fill="#d79921"/>
  <path d="m98.835 100c-19.334 0-35 15.665-35 35 0 0.46479 0.01846 0.9297 0.04102 1.3945 0.83956-18.588 16.164-33.395 34.959-33.395 11.735-3e-3 22.69 5.8787 29.168 15.664 6.478-9.7852 17.431-15.667 29.166-15.664 18.798 0 34.124 14.81 34.961 33.4 0.0224-0.46677 0.0391-0.93344 0.0391-1.4004 0-19.334-15.665-35-35-35-11.735-3e-3 -22.688 5.8789-29.166 15.664-6.4776-9.7854-17.433-15.667-29.168-15.664z" fill="#282828" opacity=".05"/>
</svg>
