<svg width="256" height="256" version="1.1" xmlns="http://www.w3.org/2000/svg">
  <path d="m53.047 21c-36.322 0-40.047 2.4809-40.047 37.772v96.653h230v-77.055c0-35.291-3.6782-41.37-40-41.37h-90l-16-16z" fill="#d79921"/>
  <path d="m42.518 58.151h170.96c5.5901 0 10.126 4.5386 10.126 10.126v81.035c0 5.59-4.5386 10.126-10.126 10.126h-170.96c-5.591 0-10.126-4.5386-10.126-10.126v-81.035c0-5.5901 4.5386-10.126 10.126-10.126z" fill="#ebdbb2"/>
  <path d="m53 99c-36.338 0-39.996 6.1437-39.996 41.397v55.653c0 35.313 3.6859 38.951 40.002 38.951h149.99c36.316 0 40-3.639 40-38.951v-71.621c0-33.574-2.6872-40.428-36-40.428h-87l-17 15z" fill="#fabd2f"/>
  <path d="m243 193.99c0 35.291-3.6527 37.006-39.974 37.006h-150.02c-36.319 0-40.005-1.7148-40.005-37v2c0 35.641 4.0005 39 40.005 39h150.02c36.399 0 39.974-3.7272 39.974-38.998z" fill="#d79921"/>
  <path d="m120 84-17 15h-50c-36.156 0-39.996 5.9171-39.996 41.433v4.1406c0-35.295 3.6836-41.574 39.996-41.574h51l17-15 86.001-0.01105c33.136-0.004256 35.999 7.0504 35.999 40.591v-4.1407c0-33.541-2.6494-40.44-36-40.44z" fill="#ebdbb2" opacity=".3"/>
  <path d="m97 21-43.953 1e-6c-36.322 0-40.052 2.4512-40.052 37.744v3.9101c0-35.291 3.6815-37.655 40.005-37.655h43l16 16h91c36.322 0 40 5.9893 40 41.281v-3.9072c0-35.291-3.6777-41.373-40-41.373h-90z" fill="#fabd2f" opacity=".4"/>
  <path d="m92.643 132.63c-19.533 19.533-19.533 51.191 0 70.717 19.533 19.533 51.19 19.533 70.717 0 19.526-19.533 19.533-51.191 0-70.717-19.512-19.512-51.205-19.512-70.717 0zm60.614 10.103c13.946 13.954 13.946 36.566 0 50.512-13.954 13.946-36.566 13.946-50.512 0-13.946-13.954-13.946-36.566 0-50.512 13.904-13.91 36.58-13.939 50.512 0zm-32.4-3.3222v32.679l22.176 12.795 7.1446-12.36-15.032-8.6806v-24.435z" fill="#ebdbb2" opacity=".2"/>
  <path d="m92.643 129.63c-19.533 19.533-19.533 51.191 0 70.717 19.533 19.533 51.19 19.533 70.717 0 19.526-19.533 19.533-51.191 0-70.717-19.512-19.512-51.205-19.512-70.717 0zm60.614 10.103c13.946 13.954 13.946 36.566 0 50.512-13.954 13.946-36.566 13.946-50.512 0-13.946-13.954-13.946-36.566 0-50.512 13.904-13.91 36.58-13.939 50.512 0zm-32.4-3.3222v32.679l22.176 12.795 7.1446-12.36-15.032-8.6806v-24.435z" fill="#d79921"/>
  <path d="m128 115c-12.801 0-25.603 4.8788-35.359 14.635-10.148 10.148-15.01 23.569-14.613 36.861 0.36746-12.291 5.2292-24.473 14.613-33.857 19.512-19.512 51.205-19.512 70.717 0 9.3842 9.3809 14.245 21.562 14.611 33.854 0.39805-13.293-4.4626-26.712-14.611-36.857-9.756-9.756-22.556-14.635-35.357-14.635zm-7.1445 21.414v3.0039h14.289v-3.0039zm14.289 24.434v3.0039l13.729 7.9297 1.3027-2.252zm-42.826 5.6445c-0.40308 9.6344 3.0687 19.4 10.424 26.76 13.946 13.946 36.56 13.946 50.514 0 7.3551-7.3551 10.827-17.119 10.424-26.754-0.3612 8.6333-3.833 17.159-10.424 23.75-13.954 13.946-36.568 13.946-50.514 0-6.5909-6.5946-10.063-15.122-10.424-23.756z" fill="#282828" opacity=".05"/>
</svg>
