<svg width="16" height="16" version="1.1" xmlns="http://www.w3.org/2000/svg">
  <defs>
    <style id="current-color-scheme" type="text/css">.ColorScheme-Text { color:#282828; } .ColorScheme-Highlight { color:#458588; }</style>
  </defs>
  <path class="ColorScheme-Text" d="m1.9222 1.0018c-0.34334 0.02824-0.4575 0.47438-0.16992 0.66406 1.4134 0.94197 2.2598 2.524 2.2598 4.2207 0 0.87223-0.22463 1.729-0.66016 2.4805-0.09655 0.16791-0.04409 0.38206 0.11914 0.48633 1.4628 0.9323 2.3477 2.5466 2.3477 4.2813 0 0.11744-0.0042 0.23447-0.01367 0.37109-0.0075 0.10846 0.03409 0.21456 0.11328 0.28906 0.56832 0.53329 1.2349 0.929 1.9551 1.1836 0.07834 0.02776 0.16384 0.02776 0.24219 0 0.72022-0.25463 1.3848-0.65036 1.9531-1.1836 0.07919-0.0745 0.12077-0.1806 0.11328-0.28906-0.0095-0.13663-0.01172-0.25367-0.01172-0.37109 0-1.7347 0.88447-3.3468 2.3535-4.2793 0.16323-0.10427 0.21569-0.31842 0.11914-0.48633-0.43004-0.75227-0.6543-1.6103-0.6543-2.4824 8.5e-5 -1.6967 0.84641-3.2788 2.2598-4.2207 0.3078-0.20449 0.14827-0.6845-0.2207-0.66406-2.1968 0.11945-4.1239 1.4813-4.9922 3.498-0.33164 0.07465-0.67613 0.11914-1.0352 0.11914-0.359 0-0.70344-0.04448-1.0352-0.11914-0.86826-2.0168-2.7954-3.3786-4.9922-3.498-0.01691-0.0012-0.03387-0.0012-0.05078 0zm4.5762 5.4121c0.27702 0 0.5 0.22298 0.5 0.5v2c0 0.27702-0.22298 0.5-0.5 0.5s-0.5-0.22298-0.5-0.5v-2c0-0.27702 0.22298-0.5 0.5-0.5zm3 0c0.27702 0 0.5 0.22298 0.5 0.5v2c0 0.27702-0.22298 0.5-0.5 0.5s-0.5-0.22298-0.5-0.5v-2c0-0.27702 0.22298-0.5 0.5-0.5zm-2.1367 5.5859c0.20029-7e-6 0.36134 0.16299 0.36133 0.36328 6e-6 0.20029-0.16104 0.36134-0.36133 0.36133-0.20029 8e-6 -0.36329-0.16104-0.36328-0.36133-8e-6 -0.20029 0.16299-0.36329 0.36328-0.36328zm1.2734 0c0.20029-8e-6 0.36329 0.16299 0.36328 0.36328 7e-6 0.20029-0.16299 0.36134-0.36328 0.36133-0.20023-8.5e-5 -0.36134-0.1611-0.36133-0.36133-8e-6 -0.20023 0.1611-0.3632 0.36133-0.36328z" fill="currentColor"/>
</svg>
