<svg width="16" height="16" version="1.1" xmlns="http://www.w3.org/2000/svg">
  <defs>
    <style id="current-color-scheme" type="text/css">.ColorScheme-Text { color:#282828; } .ColorScheme-Highlight { color:#458588; }</style>
  </defs>
  <path class="ColorScheme-Text" d="m7.172 0.5137c-0.2556 0-0.5115 0.09914-0.7073 0.2951-0.3917 0.3917-0.3917 1.023 0 1.415l2.777 2.777h-7.241c-0.554 0-1 0.4464-1 1 0 0.554 0.4464 1 1 1 1.276-3e-3 2.272-8.3e-4 3.929 0l-5.123 5.119c-0.3917 0.3917-0.3917 1.023 0 1.415 0.3917 0.3917 1.025 0.3917 1.417 0 0.9171-0.922 1.645-1.646 2.831-2.831a5 5 0 0 0 4.945 4.297 5 5 0 0 0 5-5 5 5 0 0 0-1.467-3.533l0.002021-0.002021s-3.823-3.815-5.655-5.657c-0.1956-0.1959-0.4517-0.2951-0.7073-0.2951zm2.827 6.485a3 3 0 0 1 3.001 3.001 3 3 0 0 1-3.001 2.999 3 3 0 0 1-2.999-2.999 3 3 0 0 1 2.999-3.001zm0 1a2 2 0 0 0-1.999 2.001 2 2 0 0 0 1.999 2.001 2 2 0 0 0 2.001-2.001 2 2 0 0 0-2.001-2.001z" fill="currentColor"/>
</svg>
