<svg width="16" height="16" version="1.1" xmlns="http://www.w3.org/2000/svg">
  <defs>
    <style id="current-color-scheme" type="text/css">.ColorScheme-Text { color:#282828; } .ColorScheme-Highlight { color:#458588; }</style>
  </defs>
  <path class="ColorScheme-Text" d="m6.5 1v13.58c-0.01941 0.3987-0.00308 0.41 0.3696 0.41h2.382c0.3866 0.0424 0.2481-0.07948 0.2481-0.4353v-13.56zm3 0.0096c0 3.503-0.113 6.201 0.5463 8.509 0.6224 2.179 1.862 3.956 3.806 5.304 0.2879 0.1938 0.3754 0.3035 0.5541-0.1189l0.9762-1.716c0.1926-0.3386 0.1583-0.3386-0.1538-0.5412-2.815-2.108-3.7-6.529-3.75-11.1-0.0018-0.2823 0.02476-0.3777-0.3103-0.3355zm-3 0h-1.668c-0.335-0.04212-0.3085 0.05319-0.3103 0.3355-0.0502 4.572-0.9346 8.993-3.75 11.1-0.3121 0.2026-0.3466 0.2026-0.1538 0.5412l0.9762 1.716c0.1786 0.4225 0.2661 0.3126 0.5541 0.1189 1.942-1.348 3.182-3.124 3.806-5.304 0.6593-2.308 0.5463-5.006 0.5463-8.509z" fill="currentColor"/>
</svg>
