<svg width="16" height="16" version="1.1" xmlns="http://www.w3.org/2000/svg">
  <defs>
    <style id="current-color-scheme" type="text/css">.ColorScheme-Text { color:#282828; } .ColorScheme-Highlight { color:#458588; }</style>
  </defs>
  <path class="ColorScheme-Text" d="m4 1c-0.554 0-1 0.446-1 1v4h3v-1.75c0-0.6925 0.5575-1.25 1.25-1.25h3.75v-1c0-0.554-0.446-1-1-1zm4 3c-0.554 0-1 0.446-1 1v1h1.75c0.6925 0 1.25 0.5575 1.25 1.25v4.75h4c0.554 0 1-0.446 1-1v-6c0-0.554-0.446-1-1-1zm-6 3c-0.554 0-1 0.446-1 1v6c0 0.554 0.446 1 1 1h6c0.554 0 1-0.446 1-1v-6c0-0.554-0.446-1-1-1zm3 1c0.94972 0 1.7148 0.78023 1.7148 1.7402v0.83203h0.42773c0.23743 0 0.42969 0.19031 0.42969 0.42773v2.5723c0 0.23743-0.19226 0.42773-0.42969 0.42773h-4.2852c-0.23743 0-0.42969-0.1903-0.42969-0.42773v-2.5723c0-0.23743 0.19226-0.42773 0.42969-0.42773h0.42773v-0.83203c0-0.96 0.76513-1.7402 1.7148-1.7402zm0 0.85742c-0.47486 0-0.85742 0.38256-0.85742 0.85742v0.85742h1.7148v-0.85742c0-0.47486-0.38256-0.85742-0.85742-0.85742z" fill="currentColor"/>
</svg>
