<svg width="16" height="16" version="1.1" xmlns="http://www.w3.org/2000/svg">
  <defs>
    <style id="current-color-scheme" type="text/css">.ColorScheme-Text { color:#282828; } .ColorScheme-Highlight { color:#458588; }</style>
  </defs>
  <path class="ColorScheme-Text" d="m12.341 11.121c-1.7916 0-2.8942 1.3387-5.1791 1.3387-2.4614 0-4.4891-2.0085-4.4891-4.4891 0-2.4806 2.0277-4.5093 4.4891-4.5093s4.4891 2.0478 4.4891 4.5093c0 0.7677-0.15738 1.6151-0.47214 2.2052 0.96442-0.21688 1.6544-0.25622 2.5996 0 0.21688-0.68901 0.33491-1.4375 0.33491-2.2052 0-3.8395-3.0718-6.9707-6.9506-6.9707-3.8788 0-6.9506 3.1313-6.9506 6.9707 0 3.8395 3.1111 6.9506 6.9506 6.9506 2.7369 0 3.6236-1.2993 5.0601-1.2993 0.72836 0 1.0834 0.59113 1.2206 1.378l2.3434-0.57098c-0.25622-2.0469-1.5556-3.3078-3.446-3.3078z" fill="currentColor"/>
</svg>
