<svg width="16" height="16" version="1.1" xmlns="http://www.w3.org/2000/svg">
  <defs>
    <style id="current-color-scheme" type="text/css">.ColorScheme-Text { color:#282828; } .ColorScheme-Highlight { color:#458588; }</style>
  </defs>
  <path class="ColorScheme-Text" d="m8 1.001c-0.02151 0-0.04303 0.0041-0.06445 0.01172l-5.803 2.037c-0.0792 0.028-0.1328 0.4157-0.1328 0.5 0 8.451 5.969 11.45 6 11.45 0 0 6-2.999 6-11.45 0-0.08426-0.05397-0.472-0.1328-0.5l-5.803-2.037c-0.02143-0.0076-0.04294-0.01172-0.06445-0.01172zm0 3c1.105 0 2 0.8954 2 2-0.00282 0.8262-0.5134 1.566-1.285 1.861l0.7852 3.139h-3l0.7852-3.139c-0.7716-0.2954-1.282-1.035-1.285-1.861 0-1.105 0.8954-2 2-2z" fill="currentColor"/>
</svg>
