<svg width="16" height="16" version="1.1" xmlns="http://www.w3.org/2000/svg">
  <defs>
    <style id="current-color-scheme" type="text/css">.ColorScheme-Text { color:#282828; } .ColorScheme-Highlight { color:#458588; }</style>
  </defs>
  <path class="ColorScheme-Text" d="m2 0.9996c-0.554 0-1 0.446-1 1v12c0 0.554 0.446 1 1 1h2c1.029-0.5933 0.9295-1.338 1.043-2h-2.043v-8h9.037c1.144-0.9924 2.208-1.725 2.963-2.043v-0.957c0-0.554-0.446-1-1-1zm13.58 3.002c-0.8814-0.00604-2.975 1.449-5.037 3.512-0.9496 0.9501-1.773 1.89-2.404 2.775 0.7397 0.2357 1.335 0.8306 1.57 1.57 0.8852-0.6311 1.828-1.453 2.777-2.402 2.416-2.416 3.939-4.811 3.402-5.348-0.05518-0.05555-0.1318-0.09112-0.2285-0.1035-0.02588-0.00327-0.05163-0.00372-0.08008-0.00391zm-0.584 3.998c-0.5574 0.7376-1.233 1.41-2 2.225v2.775h-3c0 0.5234-0.7801 1.354-2.018 2h6.018c0.554 0 1-0.446 1-1zm-7.25 3.311v0.0059c-2.29 0.06251-0.6877 2.495-2.75 3.684 2.75 0 4.125-1.377 4.125-2.295 0-0.4574-0.06518-1.43-1.375-1.395z" fill="currentColor"/>
</svg>
