<svg width="16" height="16" version="1.1" xmlns="http://www.w3.org/2000/svg">
  <defs>
    <style id="current-color-scheme" type="text/css">.ColorScheme-Text { color:#282828; } .ColorScheme-Highlight { color:#458588; }</style>
  </defs>
  <path class="ColorScheme-Text" d="m9.812 1.239c-0.423-0.1134-0.8598-0.1873-1.3-0.2198l-1.309 4.885 6.628-1.774c-0.9436-1.424-2.365-2.448-4.019-2.891zm-2.249-0.2251c-1.074 0.06754-2.13 0.3857-3.063 0.9245-0.9105 0.526-1.701 1.26-2.29 2.127l3.576 3.579zm6.74 3.94-4.885 1.309 4.852 4.852c0.2071-0.4178 0.3723-0.8551 0.4921-1.302 0.4357-1.626 0.2724-3.348-0.4591-4.858zm-12.57-0.0682c-0.2067 0.4171-0.3721 0.8547-0.4922 1.303-0.4359 1.627-0.2719 3.349 0.4605 4.861l4.885-1.31zm8.484 3.473-1.778 6.628c1.074-0.06712 2.13-0.3852 3.063-0.9242 0.9108-0.5257 1.701-1.26 2.291-2.128zm-1.418 1.739-6.625 1.776c0.9443 1.423 2.365 2.445 4.017 2.888 0.4229 0.1133 0.8595 0.1874 1.299 0.2197z" fill="currentColor"/>
</svg>
