<svg width="16" height="16" version="1.1" xmlns="http://www.w3.org/2000/svg">
  <defs>
    <style id="current-color-scheme" type="text/css">.ColorScheme-Text { color:#282828; } .ColorScheme-Highlight { color:#458588; }</style>
  </defs>
  <path class="ColorScheme-Text" d="m3.4947 1c-0.042004-9.9998e-4 -0.069988 0.013657-0.07199 0.039984-0.012517 0.01378-0.021946 0.039984-0.029978 0.059968-0.032673 0.13074 0.37009 0.65603 0.45744 1.0036-0.18643-0.025896-0.36785 0.038805-0.54939 0.057957-0.097968-0.15993-0.34247-0.54578-0.54819-0.65574-0.26154-0.15859-0.4763-0.06898-0.4832-7.06e-5 -0.00816 0.08001 0.18593 0.28789 0.36326 0.5238 0.09796 0.13994 0.18393 0.2639 0.23891 0.34787-0.2693 0.19993-0.36746 0.32987-0.31388 0.42583 0.01997 0.039984 0.053956 0.059968 0.095962 0.08001-0.63445 0.33388-0.93799 0.35222-1.0924 0.56579 0 0 0.024437 0.028644 0.23231 0.19315 0 0 0.13595-0.08001 0.32588-0.15994 0.18792-0.08001 0.19592 0.11996 0.09796 0.17993-0.09996 0.039977-0.33867 0.19992-0.33867 0.19992l0.015222 0.13994s0.053956 0.01997 0.22272 0.01997c0.16794 0.0036 0.35866-0.15994 0.43703-0.080008 0.078004 0.080008-0.18193 0.29388-0.36686 0.29589-0.18593 0.0036-0.39145-0.080008-0.39145-0.080008s-0.053956-0.00816-0.17593-0.01997c0.28775 0.34786 0.56802 0.2048 0.95924 0.2235-0.081007 0.05537-0.038553 0.93651 0.60454 1.9858-0.015272 0.3279-0.00238 1.6538 1.138 2.2931-0.030066 0.83673 0.59446 1.2701 0.89166 1.2835 0.037243 0.25202 0.2845 0.96909 0.65515 1.1716-0.046883 0.28163-0.046584 1.2613 0.44007 1.7333 0 0 0.038008 1.4135 0 1.5014-0.038009 0.08002-0.36326 0.43382-0.29649 0.54979 0.065977 0.11995 0.36326 0.11995 0.511 0.11995 0.14794 0 0.39025-0.03994 0.45583-0.11996 0.06598-0.05996 0.081966-1.0056 0.081966-1.1816 0-0.17991 0.038008-0.81969 0.038008-0.81969s0.17993-0.08001 0.34307-0.22793c0.058351 0.30037 0.067219 1.2329 0.065968 1.2415-0.010497 0.08-0.31288 0.35187-0.23091 0.47381 0.081966 0.11996 0.67034 0.11996 0.81909 0 0.11996-0.09998 0.065982-0.39985 0.065982-0.60977 0-0.26989 0.00584-1.2375 0.00584-1.2375 0.14661-0.12714 0.24107-0.40722 0.30189-0.69772 0.62704-0.05578 1.1059-0.4376 1.5986-0.78974 0.27656 0.54455 0.60578 1.0533 0.95044 1.5554 0 0 0.0058 1.6014-0.02598 1.6654-0.032 0.05996-0.42883 0.5278-0.34687 0.61577 0.08197 0.08 0.28589 0.09998 0.51101 0.09998 0.22491-0.0058 0.45583-0.01624 0.50041-0.13992 0.04401-0.13992 0-0.42385 0.01044-0.64376 0.01058-0.21994 0.04994-1.4135 0.04994-1.4135s0.18593-0.09994 0.40125-0.31588c0.08036 0.5671 0.11096 1.5102 0.07616 1.6334-0.01641 0.05996-0.37966 0.35789-0.24731 0.46782 0.13195 0.11994 0.83088 0.03994 0.88586-0.05996 0.05596-0.09998 0.04994-2.1222 0.04994-2.2875 0-0.09994-0.11795-0.40186-0.21112-0.60178 0.22171-0.60177 0.21812-1.2095 0.21812-1.2095 0.21548-0.70806 0.26241-0.97577 0.2445-1.3155 0.258 0.020607 0.64264-0.027117 0.74172-0.46582 0.50075 0.14749 0.66554-0.18652 0.66554-0.26531 0-0.099962-0.14794-0.21392-0.2637-0.38385-0.11593-0.17992-0.13192-0.37584-0.28586-0.90164-0.22553-0.77324-1.2621-1.2754-2.233-0.5278-1.5674-1.161-4.8512-0.42443-5.3066-0.55179-0.21452-0.059966-0.63276-0.67575-0.7921-1.3155-0.15994-0.63775-0.35147-1.3315-0.62097-1.6554-0.2695-0.32388-0.5168-0.42784-0.5168-0.42784s-9.204e-4 0.0022-9.404e-4 0.0024c3.6e-4 -0.01563 4.202e-4 -0.03999-2.198e-4 -0.03999-0.048559-1.2405-0.97836-1.4942-1.0248-1.4955zm0.012 2.0938c0.14794 0.080008 0.11595 0.32987-0.038009 0.36586-0.14394 0.039984-0.25191-0.059968-0.25191-0.059968s-0.30108 0.039984-0.28829-0.11996c0.010579-0.13994 0.29289-0.11996 0.29289-0.11996 0.024274-0.02263 0.13985-0.11967 0.28532-0.065977zm-1.9916 0.52582c-0.016108 0.08001-0.069988 0.15994-0.053956 0.2699 0.033971-0.059968 0.20912 0.080008 0.21332 0.059968 0.0047-0.039984 0.0047-0.11996 0.0047-0.11996-0.066785-0.058946-0.11181-0.14305-0.16407-0.20991zm11.325 3.6658c0.14594 0.19993 0.01085 0.45983-0.032 0.5338-0.10396-0.22192-0.23491-0.44383-0.39165-0.65575 0.09278-0.026502 0.29445-0.057103 0.42365 0.12195z" fill="currentColor"/>
</svg>
