<svg width="16" height="16" version="1.1" xmlns="http://www.w3.org/2000/svg">
  <defs>
    <style id="current-color-scheme" type="text/css">.ColorScheme-Text { color:#282828; } .ColorScheme-Highlight { color:#458588; }</style>
  </defs>
  <path class="ColorScheme-Text" d="m5.7148 1c-1.8161 0-3.4863 0.22003-3.4863 2.6035v2.1836c0 0.59795-0.2009 1.3594-1.2285 1.3594v1.707c1.0276 0 1.2285 0.76141 1.2285 1.3594v2.1836c0 2.2316 1.432 2.6035 3.4863 2.6035v-1.7207h-0.36133c-0.73437 0-1.0996-0.23315-1.0996-1.1855v-1.9238c0-1.3716-0.47368-1.8369-1.0117-2.1699 0.53791-0.33299 1.0117-0.79815 1.0117-2.1699v-1.9238c0-0.95249 0.36534-1.1855 1.0996-1.1855h0.36133l0.13086 7.1016c0.02836 1.5391 0.44434 2.6065 3.0371 2.6465l0.30469-1.7793c-1.0052-0.07445-1.1875-0.5092-1.1875-1.3008v-8.3887zm4.5703 0v1.7207h0.36133c0.62291 0 1.0996 0.15667 1.0996 1.1855v1.9238c0 1.3716 0.47368 1.8369 1.0117 2.1699-0.53791 0.33299-1.0117 0.79815-1.0117 2.1699v1.9238c0 1.0288-0.47664 1.1855-1.0996 1.1855h-0.36133v1.7207h0.28906c2.2499 0 3.1973-0.8054 3.1973-2.6035v-2.1836c0-0.59795 0.2009-1.3594 1.2285-1.3594v-1.707c-1.0276 0-1.2285-0.76141-1.2285-1.3594v-2.1836c0-1.7986-0.94802-2.6035-3.1973-2.6035z" fill="currentColor"/>
</svg>
