<svg width="16" height="16" version="1.1" xmlns="http://www.w3.org/2000/svg">
  <defs>
    <style id="current-color-scheme" type="text/css">.ColorScheme-Text { color:#282828; } .ColorScheme-Highlight { color:#458588; }</style>
  </defs>
  <path class="ColorScheme-Text" d="m8.014 2c-0.8958-0.0011-4.849 0.1748-7.75 3.221-0.3486 0.3486-0.3437 0.9026 0 1.246l1.943 1.951c0.3566 0.3566 0.9307 0.3566 1.287 0l1.287-1.287c0.3566-0.3566 0.3566-0.9307 0-1.287l-0.3008-0.3008c2.227-1.064 4.811-1.064 7.039 0l-0.3008 0.3008c-0.3566 0.3566-0.3566 0.9307 0 1.287l1.287 1.287c0.3566 0.3566 0.9307 0.3566 1.287 0l1.93-1.932c0.3566-0.3566 0.3722-0.9148 0.02148-1.266-1.134-1.134-3.757-3.216-7.73-3.22m-3.736 8.621 3.094 3.1s0.6352 0.6347 1.27 0l3.5-3.1z" fill="currentColor"/>
</svg>
