<svg width="16" height="16" version="1.1" xmlns="http://www.w3.org/2000/svg">
  <defs>
    <style id="current-color-scheme" type="text/css">.ColorScheme-Text { color:#282828; } .ColorScheme-Highlight { color:#458588; }</style>
  </defs>
  <path class="ColorScheme-Text" d="m13 6c0-1.63-1.32-3-3-3h-6v2h6c0.43 0 1 0.61 1 1v1h-5c-0.92 0-1.74 0.38-2.25 0.97-0.51 0.58-0.75 1.31-0.75 2.03s0.27 1.45 0.78 2.03 1.31 0.97 2.22 0.97h7m-7-4h5v2h-5c-0.4 0-0.57-0.11-0.72-0.28s-0.28-0.44-0.28-0.72 0.1-0.55 0.25-0.72c0.15-0.16 0.33-0.28 0.75-0.28z" fill="currentColor"/>
</svg>
