<svg width="16" height="16" version="1.1" xmlns="http://www.w3.org/2000/svg">
  <defs>
    <style id="current-color-scheme" type="text/css">.ColorScheme-Text { color:#282828; } .ColorScheme-Highlight { color:#458588; }</style>
  </defs>
  <path class="ColorScheme-Text" d="m5.621 5.287c-0.3822 0.2916-4.469 0.579-4.615 1.051-0.146 0.4719 3 3.227 3.146 3.699 0.146 0.4719-1.198 4.647-0.8164 4.938 0.3822 0.2916 4.192-2.002 4.664-2.002 0.1227 0 0.4772 0.1589 0.9316 0.3828v-1.625c5.2e-5 -0.5152 0.4185-0.9336 0.9336-0.9336h0.9764v-0.8802s1e-6 -1 1-1h0.8947c0.9659-0.9946 2.354-2.26 2.256-2.579-0.146-0.4719-4.233-0.7592-4.615-1.051-0.3817-0.2913-1.902-4.278-2.378-4.278s-1.996 3.986-2.378 4.278zm6.379 4.713v2h-2v2h2v2h2v-2h2v-2h-2v-2z" fill="currentColor"/>
</svg>
