<svg width="16" height="16" version="1.1" xmlns="http://www.w3.org/2000/svg">
  <defs>
    <style type="text/css" id="current-color-scheme">.ColorScheme-Text { color:#282828; } .ColorScheme-Highlight { color:#458588; }</style>
  </defs>
  <path class="ColorScheme-Text" fill="currentColor" d="m8 1c-2.03 0-3.85 0.87-5.12 2.25 0.35-0.14 0.72-0.25 1.12-0.25 1.39 0 2.54 0.97 2.88 2.25 0.35-0.14 0.72-0.25 1.12-0.25s0.77 0.11 1.13 0.25c0.33-1.28 1.48-2.25 2.87-2.25 0.4 0 0.77 0.11 1.13 0.25-1.28-1.38-3.1-2.25-5.13-2.25zm-4 3c-1.1 0-2 0.9-2 2s0.9 2 2 2 2-0.9 2-2c0 0.55-0.45 1-1 1s-1-0.45-1-1 0.45-1 1-1 1 0.45 1 1c0-1.1-0.9-2-2-2zm8 0c-1.1 0-2 0.9-2 2 0-0.55 0.45-1 1-1s1 0.45 1 1-0.45 1-1 1-1-0.45-1-1c0 1.1 0.9 2 2 2s2-0.9 2-2-0.9-2-2-2zm-4 2c-0.37 0-0.73 0.1-1.03 0.28-0.15 1.52-1.41 2.72-2.97 2.72-1.38 0-2.53-0.95-2.87-2.22-0.07 0.4-0.13 0.8-0.13 1.22 0 3.87 3.13 7 7 7s7-3.13 7-7c0-0.42-0.05-0.82-0.12-1.22-0.35 1.27-1.5 2.22-2.88 2.22-1.56 0-2.82-1.2-2.97-2.72-0.3-0.18-0.66-0.28-1.03-0.28zm-2.83 3.83c0.75 0.75 1.77 1.17 2.83 1.17s2.08-0.42 2.83-1.17l0.7 0.7c-0.93 0.94-2.2 1.47-3.53 1.47s-2.6-0.53-3.53-1.47z"/>
</svg>
