<svg width="16" height="16" version="1.1" xmlns="http://www.w3.org/2000/svg">
  <defs>
    <style type="text/css" id="current-color-scheme">.ColorScheme-Text { color:#282828; } .ColorScheme-Highlight { color:#458588; }</style>
  </defs>
  <path class="ColorScheme-Text" fill="currentColor" d="m8 1c-3.87 0-7 3.13-7 7 0 3.86 3.13 7 7 7s7-3.14 7-7c0-3.87-3.13-7-7-7zm-4.97 5.37c0.00818-0.00205 3.843 0.56 3.91 0.56 0.34 0.3 0.25 0.77 0.06 1.07h-1c0 0.55-0.45 1-1 1s-1-0.45-1-1h-1s-0.47-0.46-0.41-1c0.05-0.41 0.32-0.58 0.44-0.63zm9.88 0c0.01-0.02 0.43 0.08 0.5 0.63 0.06 0.54-0.41 1-0.41 1h-1c0 0.55-0.45 1-1 1s-1-0.45-1-1h-1c-0.19-0.3-0.27-0.77 0.06-1.07 0.02 0 3.84-0.54 3.85-0.56zm-6.41 5.63h3c0.28 0 0.5 0.22 0.5 0.5 0 0.27-0.22 0.5-0.5 0.5h-3c-0.28 0-0.5-0.23-0.5-0.5 0-0.28 0.22-0.5 0.5-0.5z"/>
</svg>
