<svg xmlns="http://www.w3.org/2000/svg" width="16" height="16" version="1.1">
 <defs>
  <style id="current-color-scheme" type="text/css">
   .ColorScheme-Text { color:#ebdbb2; } .ColorScheme-Highlight { color:#458588; }
  </style>
  <linearGradient id="arrongin" x1="0%" x2="0%" y1="0%" y2="100%">
   <stop offset="0%" style="stop-color:#d79921; stop-opacity:1"/>
   <stop offset="100%" style="stop-color:#b57614; stop-opacity:1"/>
  </linearGradient>
  <linearGradient id="aurora" x1="0%" x2="0%" y1="0%" y2="100%">
   <stop offset="0%" style="stop-color:#83a598; stop-opacity:1"/>
   <stop offset="100%" style="stop-color:#b16286; stop-opacity:1"/>
  </linearGradient>
  <linearGradient id="fitdance" x1="0%" x2="0%" y1="0%" y2="100%">
   <stop offset="0%" style="stop-color:#8ec07c; stop-opacity:1"/>
   <stop offset="100%" style="stop-color:#458588; stop-opacity:1"/>
  </linearGradient>
  <linearGradient id="oomox" x1="0%" x2="0%" y1="0%" y2="100%">
   <stop offset="0%" style="stop-color:#458588; stop-opacity:1"/>
   <stop offset="100%" style="stop-color:#928374; stop-opacity:1"/>
  </linearGradient>
  <linearGradient id="rainblue" x1="0%" x2="0%" y1="0%" y2="100%">
   <stop offset="0%" style="stop-color:#b8bb26; stop-opacity:1"/>
   <stop offset="100%" style="stop-color:#076678; stop-opacity:1"/>
  </linearGradient>
  <linearGradient id="sunrise" x1="0%" x2="0%" y1="0%" y2="100%">
   <stop offset="0%" style="stop-color: #fe8019; stop-opacity:1"/>
   <stop offset="100%" style="stop-color: #fabd2f; stop-opacity:1"/>
  </linearGradient>
  <linearGradient id="telinkrin" x1="0%" x2="0%" y1="0%" y2="100%">
   <stop offset="0%" style="stop-color: #83a598; stop-opacity:1"/>
   <stop offset="100%" style="stop-color: #83a598; stop-opacity:1"/>
  </linearGradient>
  <linearGradient id="60spsycho" x1="0%" x2="0%" y1="0%" y2="100%">
   <stop offset="0%" style="stop-color: #fb4934; stop-opacity:1"/>
   <stop offset="25%" style="stop-color: #fabd2f; stop-opacity:1"/>
   <stop offset="50%" style="stop-color: #fe8019; stop-opacity:1"/>
   <stop offset="100%" style="stop-color: #689d6a; stop-opacity:1"/>
  </linearGradient>
  <linearGradient id="90ssummer" x1="0%" x2="0%" y1="0%" y2="100%">
   <stop offset="0%" style="stop-color: #b16286; stop-opacity:1"/>
   <stop offset="20%" style="stop-color: #8ec07c; stop-opacity:1"/>
   <stop offset="50%" style="stop-color: #fabd2f; stop-opacity:1"/>
   <stop offset="100%" style="stop-color: #458588; stop-opacity:1"/>
  </linearGradient>
  <linearGradient id="cyberneon" x1="0%" x2="0%" y1="0%" y2="100%">
    <stop offset="0" style="stop-color:#83a598; stop-opacity:1"/>
    <stop offset="1" style="stop-color:#b16286; stop-opacity:1"/>
  </linearGradient>
  <clipPath id="_clipPath_Pq8gi0UFH0yVcqOiKSjNhmu1ToEQ47bH">
   <rect width="16" height="16"/>
  </clipPath>
 </defs>
 <g transform="translate(-311.99997,-119.99994)">
  <path style="fill:currentColor" class="ColorScheme-Text" d="m315.99 121c-1.2582 0.0145-2.1789-0.0306-2.9316 0.38477-0.10485 0.05785-0.2016 0.12805-0.29296 0.20703a1.329 1.286 0 0 0-0.05079 0.04492c-0.0205 0.01912-0.04086 0.03845-0.06054 0.05859a1.329 1.286 0 0 0-0.05664 0.06055c-0.15854 0.17758-0.28771 0.38919-0.37696 0.62695-0.16467 0.43867-0.22461 0.95957-0.22461 1.6172v6c0 0.65761 0.0599 1.1785 0.22461 1.6172 0.09306 0.24788 0.23047 0.46638 0.39844 0.64843a1.3283 1.2853 0 0 0 0.00586 0.00782c0.04038 0.0433 0.08298 0.08426 0.12695 0.12304a1.3283 1.2853 0 0 0 0.00196 0.00196c0.09455 0.08315 0.19544 0.15652 0.30468 0.21679 0.75275 0.41532 1.6735 0.3702 2.9316 0.38477h2.0098v0.5c0 1.5-0.5 1.5-1.5 1.5h-0.5v1h8v-1h-0.5c-1 0-1.5 0-1.5-1.5v-0.5h2.002c1.2582-0.0145 2.1789 0.0306 2.9316-0.38477 0.10686-0.05895 0.206-0.13006 0.29883-0.21093 0.01418-0.01236 0.0272-0.02623 0.04102-0.03907 0.02188-0.02031 0.04545-0.03906 0.0664-0.06054a1.3266 1.2837 0 0 0 0.06055-0.06836c0.15556-0.1761 0.28305-0.38461 0.37109-0.61914 0.16449-0.43867 0.22461-0.95957 0.22461-1.6172v-6c0-0.65761-0.0599-1.1785-0.22461-1.6172-0.07271-0.19371-0.17323-0.36855-0.29296-0.52344a1.3275 1.2846 0 0 0-0.00977-0.01562 1.3275 1.2846 0 0 0-0.03711-0.04688 1.3275 1.2846 0 0 0-0.23047-0.22851 1.3275 1.2846 0 0 0-0.00195-0.00195c-0.01077-0.00892-0.02224-0.01675-0.0332-0.02539a1.3275 1.2846 0 0 0-0.00391-0.00196c-0.07286-0.05719-0.14783-0.10978-0.22852-0.15429-0.75275-0.41534-1.6734-0.37025-2.9316-0.38477h-8.0078-0.00391zm0.00586 1h8c0.45298 0.00529 0.82985 0.01805 1.1699 0.03711a1.3275 1.2846 0 0 0-0.11914 0.53516 1.3275 1.2846 0 0 0 1.3281 1.2852 1.3275 1.2846 0 0 0 0.61328-0.14844c0.00379 0.09395 0.00781 0.18595 0.00781 0.29102v6c0 0.10437-0.00407 0.19567-0.00781 0.28906a1.3266 1.2837 0 0 0-0.61523-0.14648 1.3266 1.2837 0 0 0-1.3262 1.2852 1.3266 1.2837 0 0 0 0.11914 0.53516c-0.34008 0.01906-0.71695 0.03182-1.1699 0.03711h-1.9961-4-2.0039c-0.44996-0.00526-0.82518-0.0183-1.1641-0.03711a1.3283 1.2853 0 0 0 0.1211-0.53516 1.3283 1.2853 0 0 0-1.3281-1.2852 1.3283 1.2853 0 0 0-0.62109 0.15234c-0.00389-0.09506-0.00782-0.18844-0.00782-0.29492v-6c0-0.10648 0.00393-0.19986 0.00782-0.29492a1.329 1.286 0 0 0 0.61914 0.15234 1.329 1.286 0 0 0 1.3301-1.2852 1.329 1.286 0 0 0-0.1211-0.53516c0.33889-0.01881 0.7141-0.03185 1.1641-0.03711z" fill="currentColor"/>
 </g>
</svg>
