<svg width="16" height="16" version="1.1" xmlns="http://www.w3.org/2000/svg">
  <defs>
    <style id="current-color-scheme" type="text/css">.ColorScheme-Text { color:#282828; } .ColorScheme-Highlight { color:#458588; }</style>
  </defs>
  <path class="ColorScheme-Text" d="m2 1c-0.831 0-1.5 0.669-1.5 1.5v5.521c0.9398-1.267 2.422-2.016 4-2.021 2.761 0 5 2.239 5 5-0.0051 1.578-0.7549 3.06-2.021 4h6.521c0.831 0 1.5-0.669 1.5-1.5v-9c0-0.831-0.669-1.5-1.5-1.5h-6l-2-2zm2.5 6c-2.209 0-4 1.791-4 4s1.791 4 4 4 4-1.791 4-4-1.791-4-4-4zm2.007 1.267 0.9219 0.8717-1.298 1.225 1.298 1.225-0.9219 0.8717-2.219-2.096zm-4.013 1.272 2.219 2.096-2.219 2.098-0.9219-0.8717 1.298-1.225-1.298-1.225z" fill="currentColor"/>
</svg>
