<svg width="16" height="16" version="1.1" xmlns="http://www.w3.org/2000/svg">
  <defs>
    <style id="current-color-scheme" type="text/css">.ColorScheme-Text { color:#282828; } .ColorScheme-Highlight { color:#458588; }</style>
  </defs>
  <path class="ColorScheme-Text" d="m4 1c-0.554 0-1 0.446-1 1v1h-1c-1.108 0-2 0.892-2 2v6c0 1.108 0.892 2 2 2h1v1c0 0.554 0.446 1 1 1s1-0.446 1-1v-1h2v1c0 0.554 0.446 1 1 1s1-0.446 1-1v-1h2v1c0 0.554 0.446 1 1 1s1-0.446 1-1v-1h1c1.108 0 2-0.892 2-2v-6c0-1.108-0.892-2-2-2h-1v-1c0-0.554-0.446-1-1-1s-1 0.446-1 1v1h-2v-1c0-0.554-0.446-1-1-1s-1 0.446-1 1v1h-2v-1c0-0.554-0.446-1-1-1zm-2 4h12v6h-12v-6zm2 1.5v3h3v-3h-3zm5 0v3h3v-3h-3z" fill="currentColor"/>
</svg>
