<svg width="16" height="16" version="1.1" xmlns="http://www.w3.org/2000/svg">
  <defs>
    <style type="text/css" id="current-color-scheme">.ColorScheme-Text { color:#282828; } .ColorScheme-Highlight { color:#458588; }</style>
  </defs>
  <path class="ColorScheme-Text" fill="currentColor" d="m12.96 1c-0.3441 0-1.012 0.8159-1.262 0.9447-0.2506 0.1288-2.232 1.588-2.419 1.845-0.1879 0.2575-0.4382 0.365-0.7092 0.3436-0.2714-0.02141-1.128-0.03052-1.42 0.1411-0.2917 0.1717-1.625 1.576-1.959 1.747-0.3337 0.1716-0.7688 0.2595-0.9773 0.2809-0.2085 0.02143-0.8994 0.8134-1.087 0.9637-0.1877 0.1502-1.671 0.8107-1.879 0.9394-0.2086 0.1288 1.521 1.932 1.772 1.975 0.2503 0.04298-0.6487 0.6121-0.654 1.02-0.00533 0.407 0.4306 1.619 2.958 3.046 2.185 1.233 4.492 0.6393 5.363 0.3881 0.3455-0.09965 0.2188-1.244 0.2827-1.853 0.01948-0.1803 0.06167-0.9827 0.1563-1.874 0.1081-1.018 0.2845-2.153 0.5736-2.611 0.5422-0.8583 2.092-1.889 2.634-1.996 0.5422-0.1073 0.4379-0.322 0.4379-0.5151 0-0.1931-0.08376-0.6223-0.2298-0.6867-0.146-0.06436-0.7155 0.3223-0.9032 0.3652-0.1877 0.04291-1.084 0.1074-1.209-0.1072-0.1251-0.2145 1.011-2.404 1.157-2.661 0.1459-0.2576 0.2088-0.6006-0.06263-0.9654-0.271-0.3649-0.4584-0.7299-0.5627-0.7299zm-4.753 4.516c0.1414-0.00224 0.2377 0.01235 0.2377 0.01235 0.07917 0.1782-0.2898 0.7382-0.6329 0.8146-0.3429 0.07632-1.135 1.197-1.161 0.942-0.02646-0.2546 0.3169-1.095 0.7127-1.477 0.2474-0.2387 0.6079-0.2887 0.8437-0.2924z"/>
</svg>
