<svg width="16" height="16" version="1.1" xmlns="http://www.w3.org/2000/svg">
  <defs>
    <style id="current-color-scheme" type="text/css">.ColorScheme-Text { color:#282828; } .ColorScheme-Highlight { color:#458588; }</style>
  </defs>
  <path class="ColorScheme-Text" d="m2 1c-1.108 0-2 0.892-2 2v10c0 1.108 0.892 2 2 2h12c1.108 0 2-0.892 2-2v-10c0-1.108-0.892-2-2-2zm0.67383 2c0.08918 5.9e-6 0.17839 0.032646 0.24609 0.097656l2.7773 2.666c0.1448 0.1389 0.1239 0.35376 0 0.47266l-2.7773 2.668c-0.1359 0.1304-0.35629 0.1304-0.49219 0l-0.32617-0.3125c-0.1359-0.1304-0.1359-0.3403 0-0.4707l2.209-2.1191-2.209-2.1191c-0.1359-0.1304-0.1359-0.3403 0-0.4707l0.32617-0.31445c0.06775-0.06502 0.15689-0.097656 0.24609-0.097656zm4.7012 0c0.085075 0 0.17113 0.033613 0.23633 0.10156l0.31445 0.32617c0.06502 0.06775 0.097656 0.15689 0.097656 0.24609-6e-6 0.08918-0.032646 0.17839-0.097656 0.24609l-1.3863 1.4451c-0.1304 0.1359-0.3403 0.1359-0.4707 0l-0.31445-0.32617c-0.06502-0.06775-0.097656-0.15689-0.097656-0.24609 6e-6 -0.08918 0.032646-0.17839 0.097656-0.24609l1.3863-1.4451c0.0652-0.067949 0.1493-0.10156 0.23438-0.10156zm-0.072266 4.998h3.3984c0.1662 0 0.30078 0.13458 0.30078 0.30078v0.39844c0 0.1662-0.13458 0.30078-0.30078 0.30078h-3.3984c-0.1662 0-0.30078-0.13458-0.30078-0.30078v-0.39844c0-0.1662 0.13458-0.30078 0.30078-0.30078z" fill="currentColor"/>
</svg>
