<svg width="256" height="256" viewBox="0 0 67.73 67.73" xmlns="http://www.w3.org/2000/svg">
    <defs>
        <linearGradient id="d" x1="296" x2="296" y1="-212" y2="202.4" gradientUnits="userSpaceOnUse">
            <stop offset="0" stop-color="#ebdbb2"/>
            <stop offset=".135" stop-color="#ebdbb2" stop-opacity=".098"/>
            <stop offset="1" stop-color="#ebdbb2" stop-opacity="0"/>
        </linearGradient>
        <clipPath id="c">
            <path d="M361.938-212C507.235-212 528-191.287 528-46.125v116.25C528 215.286 507.235 236 361.937 236H214.063C68.766 236 48 215.286 48 70.125v-116.25C48-191.287 68.765-212 214.063-212z" fill="#b16286"/>
        </clipPath>
        <filter id="b" x="-.02" y="-.03" width="1.046" height="1.05" color-interpolation-filters="sRGB">
            <feGaussianBlur stdDeviation="2.32"/>
        </filter>
        <filter id="a" x="-.01" y="-.01" width="1.023" height="1.025" color-interpolation-filters="sRGB">
            <feGaussianBlur stdDeviation="1.16"/>
        </filter>
    </defs>
    <path d="M43.005 4.348c19.221 0 21.968 2.74 21.968 21.944V41.67c0 19.204-2.747 21.944-21.968 21.944H23.442c-19.222 0-21.969-2.74-21.969-21.944V26.292c0-19.204 2.747-21.944 21.969-21.944z" fill="none" opacity=".2" stroke-linecap="round" stroke-linejoin="round" stroke-width="1.05828918" stroke="#282828"/>
    <path transform="matrix(.26458 0 0 .26458 0 3.404)" d="M162.537 3.568c72.648 0 83.031 10.357 83.031 82.938v58.125c0 72.58-10.383 82.937-83.031 82.937H88.599c-72.648 0-83.031-10.357-83.031-82.937V86.506c0-72.581 10.383-82.938 83.031-82.938z" filter="url(#a)" opacity=".1"/>
    <path transform="matrix(.26458 0 0 .26458 0 3.404)" d="M162.537 5.568c72.648 0 83.031 10.357 83.031 82.938v58.125c0 72.58-10.383 82.937-83.031 82.937H88.599c-72.648 0-83.031-10.357-83.031-82.937V88.506c0-72.581 10.383-82.938 83.031-82.938z" filter="url(#b)" opacity=".2"/>
    <path d="M43.005 4.348c19.221 0 21.968 2.74 21.968 21.944V41.67c0 19.204-2.747 21.944-21.968 21.944H23.442c-19.222 0-21.969-2.74-21.969-21.944V26.292c0-19.204 2.747-21.944 21.969-21.944z" fill="#ebdbb2"/>
    <path transform="matrix(.1323 0 0 .1323 -4.877 32.393)" d="M361.938-212C507.235-212 528-191.287 528-46.125v116.25C528 215.286 507.235 236 361.937 236H214.063C68.766 236 48 215.286 48 70.125v-116.25C48-191.287 68.765-212 214.063-212z" clip-path="url(#c)" fill="none" opacity=".5" stroke-linecap="round" stroke-linejoin="round" stroke-width="8" stroke="url(#d)"/>
    <g fill="#ebdbb2" opacity=".6">
        <path d="M59.029 18.791a29.866 29.866 0 0 0-1.504-2.345c-.039.047-.08.092-.125.133-.477.561-1.43.571-1.921.025-3.208-3.088-7.736-4.758-12.183-4.426-3.693.238-7.272 1.829-9.953 4.377-.238.244-.542.444-.893.461-.878.103-1.69-.815-1.5-1.674.053-.308.251-.565.477-.77 3.139-3.005 7.351-4.85 11.686-5.136 3.445-.248 6.941.512 9.998 2.108-6.183-5.393-13.997-7.117-19.936-3.688-8.093 4.673-9.64 17.145-3.456 27.857s17.76 15.608 25.853 10.935c8.094-4.672 9.641-17.144 3.457-27.857zm-14.63 11.5c-1.468.05-2.828-1.168-2.957-2.628-.21-1.533.99-3.068 2.525-3.245 1.637-.275 3.298 1.077 3.35 2.736.153 1.628-1.284 3.172-2.917 3.136zm6.031-6.223c-.463.558-1.39.596-1.893.073-.997-1.023-2.377-1.67-3.805-1.747-1.622-.116-3.262.525-4.414 1.664-.283.318-.704.514-1.134.463-1-.07-1.694-1.404-1.005-2.205 1.39-1.508 3.365-2.442 5.4-2.645 2.54-.252 5.166.72 6.933 2.56.484.504.428 1.37-.082 1.837zm3.498-3.762c-.451.552-1.36.614-1.871.114-1.824-1.798-4.29-2.94-6.845-3.126-3.105-.258-6.276.92-8.487 3.108-.51.538-1.459.477-1.918-.096-.494-.467-.535-1.32-.06-1.815 2.19-2.192 5.153-3.586 8.234-3.902 4.025-.438 8.204 1.045 11.052 3.921.445.508.39 1.34-.105 1.796z"/>
        <path d="M57.525 16.446c.398-.484.413-1.26-.034-1.72a18.264 18.264 0 0 0-4.38-3.182 27.993 27.993 0 0 1 4.414 4.902z"/>
    </g>
    <g fill="#282828">
        <path d="M59.558 18.262a29.866 29.866 0 0 0-1.504-2.345c-.039.047-.08.092-.125.133-.476.561-1.43.571-1.92.024-3.208-3.087-7.737-4.757-12.183-4.425-3.694.238-7.273 1.829-9.953 4.377-.239.244-.543.444-.894.461-.878.103-1.69-.815-1.5-1.674.053-.308.251-.565.478-.77 3.138-3.005 7.35-4.85 11.685-5.136 3.445-.248 6.942.512 9.998 2.108-6.183-5.394-13.996-7.117-19.936-3.688-8.093 4.673-9.64 17.145-3.456 27.857s17.76 15.608 25.853 10.935c8.094-4.672 9.641-17.145 3.457-27.857zm-14.629 11.5c-1.468.05-2.83-1.168-2.958-2.628-.209-1.534.99-3.069 2.526-3.246 1.636-.274 3.297 1.077 3.35 2.737.152 1.628-1.284 3.172-2.918 3.136zm6.03-6.223c-.463.558-1.39.596-1.893.072-.997-1.022-2.376-1.669-3.805-1.746-1.622-.116-3.262.525-4.414 1.664-.283.318-.704.514-1.134.463-1-.07-1.694-1.405-1.005-2.206 1.39-1.508 3.365-2.442 5.4-2.644 2.54-.252 5.166.72 6.933 2.56.484.504.428 1.37-.082 1.837zm3.498-3.762c-.45.552-1.36.614-1.871.114-1.824-1.798-4.289-2.94-6.845-3.126-3.105-.258-6.276.92-8.487 3.107-.51.54-1.459.478-1.918-.095-.494-.467-.535-1.32-.06-1.815 2.19-2.192 5.153-3.586 8.234-3.903 4.025-.437 8.204 1.046 11.052 3.922.445.508.39 1.34-.105 1.796z"/>
        <path d="M58.054 15.917c.399-.484.414-1.26-.034-1.72a18.264 18.264 0 0 0-4.38-3.182 27.993 27.993 0 0 1 4.414 4.902z"/>
    </g>
</svg>
