<svg width="256" height="256" xmlns="http://www.w3.org/2000/svg" clip-rule="evenodd" fill-rule="evenodd" image-rendering="optimizeQuality" shape-rendering="geometricPrecision" text-rendering="geometricPrecision">
    <defs>
        <style>
            <![CDATA[.fil5{fill:none}.fil1{fill:#196FBA}.fil0{fill:#25B2EE}.fil4{fill:#793C7C}.fil3{fill:#8C508C}.fil2{fill:white}]]>
        </style>
        <filter id="filter939" x="-.02" y="-.03" width="1.046" height="1.05" color-interpolation-filters="sRGB">
            <feGaussianBlur stdDeviation="2.32"/>
        </filter>
        <filter id="filter4569" x="-.01" y="-.01" width="1.023" height="1.025" color-interpolation-filters="sRGB">
            <feGaussianBlur stdDeviation="1.16"/>
        </filter>
        <linearGradient id="linearGradient1108" x1="296" x2="296" y1="-212" y2="236" gradientUnits="userSpaceOnUse">
            <stop offset="0" stop-color="#ebdbb2"/>
            <stop offset=".125" stop-color="#ebdbb2" stop-opacity=".098"/>
            <stop offset=".925" stop-opacity=".098"/>
            <stop offset="1" stop-opacity=".498"/>
        </linearGradient>
        <clipPath id="clipPath1082-3-361">
            <path d="M361.938-212C507.235-212 528-191.287 528-46.125v116.25C528 215.286 507.235 236 361.937 236H214.063C68.766 236 48 215.286 48 70.125v-116.25C48-191.287 68.765-212 214.063-212z" fill="#b16286"/>
        </clipPath>
        <filter id="filter877" x="-.05" y="-.05" width="1.096" height="1.096" color-interpolation-filters="sRGB">
            <feGaussianBlur stdDeviation="3.174"/>
        </filter>
    </defs>
    <path transform="matrix(1.01937 0 0 1.01937 0 8.31)" d="M162.537 5.568c72.648 0 83.031 10.357 83.031 82.938v58.125c0 72.58-10.383 82.937-83.031 82.937H88.599c-72.648 0-83.031-10.357-83.031-82.937V88.506c0-72.581 10.383-82.938 83.031-82.938z" filter="url(#filter939)" opacity=".2"/>
    <path d="M165.685 11.947c74.055 0 84.64 10.557 84.64 84.544v59.25c0 73.987-10.585 84.544-84.64 84.544h-75.37c-74.055 0-84.64-10.557-84.64-84.543V96.49c0-73.987 10.585-84.544 84.64-84.544z" fill="none" opacity=".1" stroke-linecap="round" stroke-linejoin="round" stroke-width="4.077" stroke="#282828"/>
    <path transform="matrix(1.01937 0 0 1.01937 0 8.31)" d="M162.537 3.568c72.648 0 83.031 10.357 83.031 82.938v58.125c0 72.58-10.383 82.937-83.031 82.937H88.599c-72.648 0-83.031-10.357-83.031-82.937V86.506c0-72.581 10.383-82.938 83.031-82.938z" filter="url(#filter4569)" opacity=".1"/>
    <path d="M165.685 11.947c74.055 0 84.64 10.557 84.64 84.544v59.25c0 73.987-10.585 84.544-84.64 84.544h-75.37c-74.055 0-84.64-10.557-84.64-84.543V96.49c0-73.987 10.585-84.544 84.64-84.544z" fill="#fe8019"/>
    <path transform="matrix(.50968 0 0 .50968 -18.789 120)" d="M361.938-212C507.235-212 528-191.287 528-46.125v116.25C528 215.286 507.235 236 361.937 236H214.063C68.766 236 48 215.286 48 70.125v-116.25C48-191.287 68.765-212 214.063-212z" clip-path="url(#clipPath1082-3-361)" fill="none" opacity=".4" stroke-linecap="round" stroke-linejoin="round" stroke-width="8" stroke="url(#linearGradient1108)"/>
    <g transform="matrix(1.00814 0 0 1.00814 -2.367 -5.698)" fill="#282828" filter="url(#filter877)" opacity=".3">
        <path d="M117.978 47.428c-2.04 0-3.74 7.88-4.738 19.14a62.35 62.35 0 0 0-15.067 6.333c-8.704-7.295-15.503-11.698-16.95-10.251L65.184 78.69c-1.447 1.446 2.956 8.245 10.25 16.95a62.35 62.35 0 0 0-6.276 15.066c-11.293.997-19.197 2.695-19.197 4.738v22.673c0 2.04 7.88 3.74 19.141 4.738a62.35 62.35 0 0 0 6.31 15.1c-7.277 8.688-11.673 15.471-10.229 16.916l16.042 16.041c1.443 1.444 8.217-2.942 16.893-10.207a62.35 62.35 0 0 0 15.123 6.233c.997 11.293 2.694 19.196 4.738 19.196h22.672c2.04 0 3.74-7.88 4.739-19.14a62.35 62.35 0 0 0 15.067-6.333c8.703 7.295 15.502 11.698 16.949 10.251l16.041-16.04c1.446-1.447-2.957-8.246-10.251-16.95a62.35 62.35 0 0 0 6.277-15.067c11.292-.997 19.196-2.695 19.196-4.738v-22.673c0-2.04-7.88-3.74-19.141-4.738a62.35 62.35 0 0 0-6.31-15.1c7.278-8.688 11.674-15.471 10.229-16.916L177.405 62.65c-1.444-1.444-8.218 2.942-16.894 10.207a62.35 62.35 0 0 0-15.122-6.233c-.997-11.293-2.695-19.196-4.739-19.196zm11.336 51.013a28.34 28.34 0 0 1 28.34 28.34 28.34 28.34 0 0 1-28.34 28.341 28.34 28.34 0 0 1-28.34-28.34 28.34 28.34 0 0 1 28.34-28.341z"/>
    </g>
    <path d="M116.571 42.116c-2.056 0-3.77 7.944-4.776 19.297a62.857 62.857 0 0 0-15.19 6.384c-8.775-7.354-15.629-11.793-17.087-10.335L63.346 73.634c-1.458 1.458 2.98 8.313 10.335 17.087a62.857 62.857 0 0 0-6.328 15.19C55.968 106.916 48 108.627 48 110.688v22.857c0 2.057 7.944 3.77 19.297 4.777a62.857 62.857 0 0 0 6.361 15.223c-7.337 8.759-11.769 15.597-10.312 17.053l16.172 16.172c1.455 1.455 8.285-2.966 17.031-10.29a62.857 62.857 0 0 0 15.246 6.284c1.005 11.384 2.716 19.352 4.776 19.352h22.858c2.056 0 3.77-7.944 4.776-19.297a62.857 62.857 0 0 0 15.19-6.384c8.775 7.354 15.629 11.794 17.087 10.335l16.172-16.172c1.458-1.458-2.98-8.312-10.335-17.087a62.857 62.857 0 0 0 6.328-15.19c11.385-1.005 19.353-2.716 19.353-4.776v-22.857c0-2.057-7.944-3.771-19.297-4.777a62.857 62.857 0 0 0-6.361-15.223c7.337-8.76 11.769-15.597 10.312-17.054l-16.172-16.172c-1.455-1.455-8.285 2.966-17.031 10.29a62.857 62.857 0 0 0-15.246-6.283c-1.005-11.385-2.716-19.353-4.776-19.353zM128 93.545a28.571 28.571 0 0 1 28.571 28.571A28.571 28.571 0 0 1 128 150.688a28.571 28.571 0 0 1-28.571-28.572A28.571 28.571 0 0 1 128 93.545z" fill="#ebdbb2"/>
    <path d="M90.315 240.285c-74.055 0-84.64-10.952-84.64-87.711v-30.735h244.65v30.735c0 76.759-10.585 87.711-84.64 87.711z" fill="#ebdbb2" opacity=".1"/>
    <path d="M127.013 11.947v228.338h37.989c74.653 0 85.322-10.557 85.322-84.543V96.49c0-73.987-10.669-84.544-85.322-84.544z" fill="#ebdbb2" opacity=".1"/>
</svg>
