<svg width="256" height="256" viewBox="0 0 67.73 67.73" xmlns="http://www.w3.org/2000/svg">
    <defs>
        <clipPath id="d">
            <path d="M361.938-212C507.235-212 528-191.287 528-46.125v116.25C528 215.286 507.235 236 361.937 236H214.063C68.766 236 48 215.286 48 70.125v-116.25C48-191.287 68.765-212 214.063-212z" fill="#b16286"/>
        </clipPath>
        <filter id="b" x="-.01" y="-.01" width="1.023" height="1.025" color-interpolation-filters="sRGB">
            <feGaussianBlur stdDeviation="1.16"/>
        </filter>
        <filter id="a" x="-.02" y="-.03" width="1.046" height="1.05" color-interpolation-filters="sRGB">
            <feGaussianBlur stdDeviation="2.32"/>
        </filter>
        <linearGradient id="e" x1="296" x2="296" y1="-212" y2="236" gradientUnits="userSpaceOnUse">
            <stop offset="0" stop-color="#ebdbb2"/>
            <stop offset=".125" stop-color="#ebdbb2" stop-opacity=".098"/>
            <stop offset=".925" stop-opacity=".098"/>
            <stop offset="1" stop-opacity=".498"/>
        </linearGradient>
        <linearGradient id="c" x1="13.229" x2="59.531" y1="230.854" y2="294.354" gradientUnits="userSpaceOnUse">
            <stop offset="0" stop-color="#fb4934"/>
            <stop offset="1" stop-color="#fb4934"/>
        </linearGradient>
        <filter id="f" x="-.05" y="-.05" width="1.097" height="1.095" color-interpolation-filters="sRGB">
            <feGaussianBlur stdDeviation="3.024"/>
        </filter>
    </defs>
    <path transform="matrix(.2697 0 0 .2697 -7.129 -8.706)" d="M188.969 46C261.617 46 272 56.357 272 128.938v58.125c0 72.58-10.383 82.937-83.031 82.937H115.03C42.383 270 32 259.643 32 187.062v-58.125C32 56.358 42.383 46 115.031 46z" filter="url(#a)" opacity=".2"/>
    <path transform="matrix(.2697 0 0 .2697 -7.129 -8.706)" d="M188.969 44C261.617 44 272 54.357 272 126.938v58.124C272 257.644 261.617 268 188.969 268H115.03C42.383 268 32 257.643 32 185.062v-58.125C32 54.358 42.383 44 115.031 44z" filter="url(#b)" opacity=".1"/>
    <path d="M23.896 232.428c-9.797 0-15.394.697-18.545 3.843-3.15 3.146-3.85 8.737-3.85 18.526v15.676c0 9.788.7 15.38 3.85 18.526 3.15 3.146 8.748 3.843 18.545 3.843h19.941c9.798 0 15.395-.697 18.545-3.843 3.15-3.147 3.85-8.738 3.85-18.526v-15.676c0-9.789-.7-15.38-3.85-18.526-3.15-3.146-8.747-3.843-18.545-3.843z" fill="url(#c)" transform="translate(0 -229.267)"/>
    <path d="M1.502 40.667v.54c0 9.788.699 15.379 3.85 18.525 3.15 3.147 8.747 3.844 18.544 3.844h19.941c9.798 0 15.395-.697 18.545-3.844 3.15-3.146 3.85-8.737 3.85-18.525v-.54c0 9.788-.7 15.38-3.85 18.526-3.15 3.146-8.747 3.843-18.545 3.843H23.896c-9.797 0-15.394-.697-18.545-3.843-3.15-3.147-3.85-8.738-3.85-18.526z" fill="#282828" opacity=".2"/>
    <path transform="matrix(.13485 0 0 .13485 -4.971 31.75)" d="M361.938-212C507.235-212 528-191.287 528-46.125v116.25C528 215.286 507.235 236 361.937 236H214.063C68.766 236 48 215.286 48 70.125v-116.25C48-191.287 68.765-212 214.063-212z" clip-path="url(#d)" fill="none" opacity=".4" stroke-linecap="round" stroke-linejoin="round" stroke-width="8" stroke="url(#e)"/>
    <path d="M1.502 31.21v9.997c0 9.788.699 15.379 3.85 18.525 3.15 3.147 8.747 3.844 18.544 3.844h19.941c9.798 0 15.395-.697 18.545-3.844 3.15-3.146 3.85-8.737 3.85-18.525V31.21z" fill="#ebdbb2" opacity=".1"/>
    <path d="M33.84 63.575h9.996c9.788 0 15.195-.839 18.341-3.78 3.146-2.94 4.028-7.977 4.028-17.12V24.061c0-9.144-.882-14.242-4.028-17.183-3.146-2.94-8.553-3.718-18.34-3.718H33.84z" fill="#ebdbb2" opacity=".1"/>
    <g transform="matrix(.26458 0 0 .26458 22.053 13.92)" filter="url(#f)" opacity=".3">
        <path d="M49.85-11.596C40.086 4.766 37.027 12.707 40.55 23.121c3.194 9.44 11.621 14.496 7.47 36.328 6.817-10.637 11.945-24.478 6.592-35.376-5.443-11.084-8.184-17.607-4.76-35.669zM68.968-4.49c-6.756 9.993-8.363 15.71-5.347 22.705 3.071 7.123 6.525 8.079 2.49 18.457 7.444-8.394 7.827-13.855 4.761-20.361-3.128-6.637-6.361-9.075-1.904-20.801zM30.515 7.814c-6.13 10.527-8.037 15.632-5.713 22.265 2.107 6.013 7.482 9.16 4.98 23.145 7.679-9.688 7.429-16.575 4.029-22.705-3.315-5.977-5.36-11.136-3.296-22.705zM-2.225 65.82v18.75c0 20.775 8.363 37.5 18.75 37.5h56.25c8.765 0 16.09-11.925 18.165-28.125h14.648a7.016 7.016 0 0 0 7.031-7.03V72.852a7.016 7.016 0 0 0-7.031-7.032H91.526zm9.302 4.615h4.761V84.57c.121 10.458-1.272 26.964 9.375 32.886h-3.516c-10.8-5.091-9.74-22.944-10.62-32.886zm84.449 2.417h9.668a4.385 4.385 0 0 1 4.394 4.394v5.86a4.385 4.385 0 0 1-4.394 4.394h-9.742c.038-.979.073-1.93.073-2.93zM-30.35 126.759c0 7.79 16.725 14.062 37.5 14.062h75c20.775 0 37.5-6.271 37.5-14.062z"/>
    </g>
    <path d="M35.243 10.852c-2.584 4.33-3.394 6.43-2.462 9.186.845 2.498 3.075 3.835 1.977 9.612 1.803-2.815 3.16-6.477 1.744-9.36-1.44-2.933-2.165-4.659-1.26-9.438zm5.057 1.88c-1.787 2.644-2.212 4.157-1.414 6.007.812 1.885 1.726 2.138.659 4.884 1.969-2.221 2.07-3.666 1.26-5.387-.828-1.756-1.684-2.402-.505-5.504zm-10.173 3.256c-1.622 2.785-2.127 4.136-1.512 5.89.557 1.592 1.98 2.424 1.318 6.124 2.031-2.563 1.965-4.385 1.066-6.007-.877-1.581-1.418-2.946-.872-6.007zm-8.663 15.348v4.96c0 5.497 2.213 9.922 4.961 9.922h14.883c2.319 0 4.257-3.155 4.806-7.441h3.876c1.03 0 1.86-.83 1.86-1.86v-3.721c0-1.03-.83-1.86-1.86-1.86h-3.721zm2.461 1.22h1.26v3.74c.032 2.767-.337 7.135 2.48 8.702h-.93c-2.857-1.348-2.577-6.071-2.81-8.701zm22.344.64h2.558a1.16 1.16 0 0 1 1.163 1.163v1.55a1.16 1.16 0 0 1-1.163 1.163H46.25c.01-.26.019-.511.019-.775zM14.023 47.459c0 2.06 4.425 3.72 9.922 3.72h19.844c5.496 0 9.921-1.66 9.921-3.72z" fill="#ebdbb2"/>
</svg>
