<svg width="256" height="256" viewBox="0 0 67.73 67.73" xmlns="http://www.w3.org/2000/svg">
    <defs>
        <linearGradient id="g" x1="196" x2="132" y1="160" y2="160" gradientTransform="matrix(.2697 0 0 .2697 -7.129 220.56)" gradientUnits="userSpaceOnUse">
            <stop offset="0" stop-color="#fabd2f"/>
            <stop offset="1" stop-color="#fabd2f" stop-opacity="0"/>
        </linearGradient>
        <filter id="f" x="-.01" y="-.01" width="1.027" height="1.021" color-interpolation-filters="sRGB">
            <feGaussianBlur stdDeviation=".658"/>
        </filter>
        <linearGradient id="e" x1="160" x2="160" y1="76" y2="236" gradientUnits="userSpaceOnUse">
            <stop offset="0" stop-opacity="0"/>
            <stop offset=".519"/>
            <stop offset="1" stop-opacity="0"/>
        </linearGradient>
        <linearGradient id="d" x1="296" x2="296" y1="-212" y2="236" gradientUnits="userSpaceOnUse">
            <stop offset="0" stop-color="#ebdbb2"/>
            <stop offset=".125" stop-color="#ebdbb2" stop-opacity=".098"/>
            <stop offset=".925" stop-opacity=".098"/>
            <stop offset="1" stop-opacity=".498"/>
        </linearGradient>
        <clipPath id="c">
            <path d="M361.938-212C507.235-212 528-191.287 528-46.125v116.25C528 215.286 507.235 236 361.937 236H214.063C68.766 236 48 215.286 48 70.125v-116.25C48-191.287 68.765-212 214.063-212z" fill="#b16286"/>
        </clipPath>
        <filter id="b" x="-.02" y="-.03" width="1.046" height="1.05" color-interpolation-filters="sRGB">
            <feGaussianBlur stdDeviation="2.32"/>
        </filter>
        <filter id="a" x="-.01" y="-.01" width="1.023" height="1.025" color-interpolation-filters="sRGB">
            <feGaussianBlur stdDeviation="1.16"/>
        </filter>
    </defs>
    <path transform="matrix(.2697 0 0 .2697 -7.129 -8.706)" d="M188.969 44C261.617 44 272 54.357 272 126.938v58.124C272 257.644 261.617 268 188.969 268H115.03C42.383 268 32 257.643 32 185.062v-58.125C32 54.358 42.383 44 115.031 44z" filter="url(#a)" opacity=".1"/>
    <path transform="matrix(.2697 0 0 .2697 -7.129 -8.706)" d="M188.969 46C261.617 46 272 56.357 272 128.938v58.125c0 72.58-10.383 82.937-83.031 82.937H115.03C42.383 270 32 259.643 32 187.062v-58.125C32 56.358 42.383 46 115.031 46z" filter="url(#b)" opacity=".2"/>
    <path d="M43.837 3.161c19.594 0 22.395 2.793 22.395 22.369v15.677c0 19.575-2.8 22.369-22.395 22.369H23.896c-19.594 0-22.394-2.794-22.394-22.37V25.53c0-19.576 2.8-22.369 22.394-22.369z" fill="#fe8019"/>
    <path d="M33.867 9.095A24.274 24.274 0 0 0 9.593 33.368a24.274 24.274 0 0 0 24.274 24.274A24.274 24.274 0 0 0 58.14 33.368 24.274 24.274 0 0 0 33.867 9.095zm.83 4.374a17.21 17.21 0 0 1 1.123 0c2.386.074 5.446.643 6.493 2.233.865 1.313-.273 2.658-.908 3.725-1.572 2.642-2.956 5.506-4.48 8.205-.413.733-1.945 3.25-2.939 1.993-2.113-2.672-2.734-8.271-3.049-11.56-.1-1.049-.447-2.682.05-3.66.428-.843 1.959-.77 2.772-.866.274-.033.591-.058.939-.07zm-8.68 1.709c.44.027.864.165 1.25.454 1.382 1.036 1.785 3.223 2.23 4.756.578 1.989 1.369 3.8 1.752 5.861.17.908 1.263 3.147.028 3.7-.893.401-2.26-.594-3.042-.937-2.746-1.206-5.58-3.066-7.947-4.919-3.746-2.932-.855-5.341 1.98-7.395.965-.699 2.427-1.601 3.749-1.52zm20.246 2.515c2.266-.222 3.697 2.23 4.886 3.743.89 1.135 2.477 3.793 1.622 5.243-.566.958-1.86 1.142-2.808 1.497-2.463.92-4.971 1.879-7.558 2.462-1.01.229-5.11 1.696-5.804.774-.339-.451.185-1.302.392-1.717.8-1.605 1.992-2.84 2.93-4.334 1.293-2.062 2.873-3.837 4.339-5.754.569-.744.93-1.809 2.001-1.914zm-29.297 8.499c3.27-.13 7.322 2.374 9.999 3.773.974.509 2.3.834 3.084 1.642 1.292 1.331-.906 2.22-1.929 2.42-3.296.642-6.629 1.015-9.928 1.612-1.072.194-3.179.657-4.038-.272-2.141-2.316-1.136-8.59 2.169-9.113.21-.033.425-.053.643-.062zm35.253 4.591c.299.012.583.07.839.187 2.932 1.36 1.603 8.44-1.233 9.23-1.937.54-4.248-.634-5.966-1.417-2.222-1.013-4.551-1.661-6.675-2.905-.64-.374-2.122-1.255-1.604-2.16.582-1.02 2.442-1.101 3.43-1.315 2.8-.608 5.638-.866 8.487-1.226.794-.1 1.826-.433 2.722-.394zm-23.45 4.324c.625-.03 1.173.038 1.564.262 1.48.849-.459 3.075-.948 3.96-1.565 2.835-3.617 5.803-5.6 8.36-.765.987-1.799 2.13-3.193 1.402-2.212-1.156-4.002-4.208-4.936-6.413-.357-.844-.89-2.045-.257-2.88 1.48-1.951 5.596-2.544 7.763-3.236 1.157-.369 3.731-1.36 5.607-1.455zm8.21 1.26c.892.107 2.048.913 2.574 1.216 2.685 1.543 5.607 3.134 7.873 5.22.493.454 1.338.64 1.724 1.18.54.754.139 2.375-.337 3.08-1.204 1.782-6.714 5.787-8.573 3.39-2.227-2.869-2.904-6.867-3.726-10.338-.19-.8-1.13-2.913-.307-3.575.205-.165.474-.208.771-.173zm-3.796.792a.655.655 0 0 1 .26.008c.65.152.922 1.138 1.17 1.656.843 1.765 1.252 3.533 1.63 5.457.386 1.98 1.89 6.019.788 7.89-1.002 1.7-5.732 1.033-7.309.66-1.282-.305-3.372-.543-4.11-1.785-.57-.963.178-1.92.604-2.76 1.055-2.08 2.224-4.075 3.296-6.15.472-.912 2.326-4.76 3.671-4.976z" fill="#f6b37c"/>
    <path d="M1.502 33.368v7.839c0 19.575 2.8 22.369 22.394 22.369h19.941c19.594 0 22.395-2.794 22.395-22.37v-7.838z" fill="#ebdbb2" opacity=".1"/>
    <path transform="matrix(.13485 0 0 .13485 -4.971 31.75)" d="M361.938-212C507.235-212 528-191.287 528-46.125v116.25C528 215.286 507.235 236 361.937 236H214.063C68.766 236 48 215.286 48 70.125v-116.25C48-191.287 68.765-212 214.063-212z" clip-path="url(#c)" fill="none" opacity=".4" stroke-linecap="round" stroke-linejoin="round" stroke-width="8" stroke="url(#d)"/>
    <path transform="matrix(.2697 0 0 .2697 -7.129 -8.706)" d="M194.32 84.566c-1.878-.02-4.376.273-7.699.772l-53.271 8.455C120 96.636 120.045 97.52 120 108.799v91.515c-.557-.39-1.106-.782-1.682-1.168v.004c-4.241-2.842-8.762-4.865-14.834-4.865-7.605 0-12.14 2.912-14.886 6.748-2.746 3.836-3.657 8.671-3.657 12.409 0 4.506 1.54 9.316 4.877 12.982 3.339 3.665 8.47 6.232 15.85 6.232 8.333 0 14.194-2.326 17.508-6.87 2.609-3.579 4.051-8.359 4.566-14.255v-.016c.072-.715.125-1.45.17-2.207.07-1.165.055-3.345.055-3.345V135.89c0-10.01 0-10.607 13.353-12.89l37.3-6.168c13.377-1.75 13.38-.523 13.38 6.984v64.307c-.542-.38-1.077-.762-1.637-1.137v.004c-4.241-2.842-8.76-4.865-14.832-4.865-7.605 0-12.143 2.912-14.888 6.748-2.746 3.836-3.657 8.67-3.657 12.408 0 4.507 1.541 9.317 4.88 12.983 3.337 3.665 8.47 6.234 15.849 6.234 8.333 0 14.194-2.329 17.508-6.873 2.609-3.578 4.05-8.356 4.564-14.252v-.018c.072-.715.125-1.448.17-2.205.07-1.165.057-3.348.057-3.348V96.316c0-8.78-.058-11.687-5.694-11.75z" fill="url(#e)" filter="url(#filter1197)" opacity=".4"/>
    <path transform="matrix(.2697 0 0 .2697 -7.129 -8.706)" d="M194.32 83.566c-1.878-.02-4.376.273-7.699.772l-53.271 8.455C120 95.636 120.045 96.52 120 107.799v91.515c-.557-.39-1.106-.782-1.682-1.168v.004c-4.241-2.842-8.762-4.865-14.834-4.865-7.605 0-12.14 2.912-14.886 6.748-2.746 3.836-3.657 8.671-3.657 12.409 0 4.506 1.54 9.316 4.877 12.982 3.339 3.665 8.47 6.232 15.85 6.232 8.333 0 14.194-2.326 17.508-6.87 2.609-3.579 4.051-8.359 4.566-14.255v-.016c.072-.715.125-1.45.17-2.207.07-1.165.055-3.345.055-3.345V134.89c0-10.01 0-10.607 13.353-12.89l37.3-6.168c13.377-1.75 13.38-.523 13.38 6.984v64.307c-.542-.38-1.077-.762-1.637-1.137v.004c-4.241-2.842-8.76-4.865-14.832-4.865-7.605 0-12.143 2.912-14.888 6.748-2.746 3.836-3.657 8.67-3.657 12.408 0 4.507 1.541 9.317 4.88 12.983 3.337 3.665 8.47 6.234 15.849 6.234 8.333 0 14.194-2.329 17.508-6.873 2.609-3.578 4.05-8.356 4.564-14.252v-.018c.072-.715.125-1.448.17-2.205.07-1.165.057-3.348.057-3.348V95.316c0-8.78-.058-11.687-5.694-11.75z" filter="url(#f)" opacity=".1"/>
    <path d="M45.28 13.563c-.506-.006-1.18.073-2.076.208l-14.367 2.28c-3.601.767-3.589 1.005-3.601 4.047v24.683c-.15-.105-.298-.211-.454-.315-1.143-.766-2.363-1.311-4-1.311-2.052 0-3.275.785-4.015 1.82-.741 1.034-.987 2.338-.987 3.346 0 1.216.415 2.513 1.316 3.502.9.988 2.284 1.68 4.275 1.68 2.247 0 3.828-.627 4.722-1.853.703-.965 1.092-2.254 1.231-3.844v-.005c.02-.193.034-.391.046-.595.019-.315.015-.903.015-.903V27.404c0-2.7 0-2.86 3.601-3.476l10.06-1.664c3.608-.472 3.609-.141 3.609 1.884v17.344c-.146-.102-.29-.205-.441-.307v.001c-1.144-.766-2.363-1.312-4-1.312-2.052 0-3.276.786-4.016 1.82-.74 1.035-.986 2.339-.986 3.347 0 1.215.415 2.513 1.315 3.501.9.989 2.285 1.682 4.275 1.682 2.248 0 3.828-.628 4.722-1.854.704-.965 1.092-2.254 1.231-3.844v-.005c.02-.193.034-.39.046-.595.019-.314.015-.903.015-.903V16.731c0-2.368-.015-3.152-1.535-3.17z" fill="#ebdbb2"/>
    <path d="M25.92 246.273c-.675.529-.677 1.35-.684 3.092v24.682c-.15-.105-.298-.21-.454-.315v.001c-1.143-.766-2.363-1.312-4-1.312-2.052 0-3.275.786-4.015 1.82-.741 1.035-.987 2.339-.987 3.347 0 1.215.415 2.513 1.316 3.501.9.989 2.284 1.681 4.275 1.681 2.247 0 3.828-.627 4.722-1.853.703-.965 1.092-2.254 1.231-3.844v-.005c.02-.193.034-.391.046-.596.019-.314.015-.902.015-.902v-18.899c0-2.7 0-2.861 3.601-3.477l10.06-1.663c.918-.12 1.6-.188 2.111-.19zm18.47 5.432c.261.32.265.866.265 1.71v17.344c-.146-.102-.29-.205-.441-.306-1.144-.766-2.363-1.311-4-1.311-2.052 0-3.276.785-4.016 1.82-.74 1.034-.986 2.338-.986 3.346 0 1.216.415 2.513 1.315 3.502.9.988 2.285 1.681 4.275 1.681 2.248 0 3.828-.628 4.722-1.854.704-.965 1.092-2.253 1.231-3.844v-.005c.02-.192.034-.39.046-.594.019-.315.015-.903.015-.903v-19.873z" fill="url(#g)" opacity=".1" transform="translate(0 -229.267)"/>
    <path d="M45.28 13.563c-.506-.006-1.18.073-2.076.208l-14.367 2.28c-3.601.767-3.589 1.005-3.601 4.047v.54c.012-3.042 0-3.28 3.6-4.047l14.368-2.28c.896-.136 1.57-.215 2.077-.209 1.52.017 1.535.801 1.535 3.17v-.54c0-2.368-.015-3.152-1.535-3.17zm-5.067 26.312c-2.051 0-3.275.785-4.015 1.82-.74 1.034-.986 2.338-.986 3.347 0 .075.006.151.009.227.046-.955.31-2.103.977-3.035.74-1.034 1.964-1.82 4.015-1.82 1.638 0 2.857.546 4 1.313v-.001c.152.1.296.204.442.306v-.54c-.146-.102-.29-.205-.441-.306v.001c-1.144-.766-2.363-1.312-4-1.312zm-19.431 3.28c-2.052 0-3.275.785-4.015 1.82-.741 1.034-.987 2.338-.987 3.346 0 .076.007.152.01.228.046-.956.31-2.104.977-3.035.74-1.035 1.963-1.82 4.015-1.82 1.637 0 2.857.546 4 1.312.156.103.304.21.454.314v-.54c-.15-.104-.298-.21-.454-.314-1.143-.766-2.363-1.311-4-1.311z" fill="#ebdbb2"/>
</svg>
