<svg width="256" height="256" xmlns="http://www.w3.org/2000/svg">
    <defs>
        <linearGradient id="f" x1="296" x2="296" y1="-212" y2="236" gradientUnits="userSpaceOnUse">
            <stop offset="0" stop-color="#ebdbb2"/>
            <stop offset=".125" stop-color="#ebdbb2" stop-opacity=".098"/>
            <stop offset=".925" stop-opacity=".098"/>
            <stop offset="1" stop-opacity=".498"/>
        </linearGradient>
        <clipPath id="e">
            <path d="M361.938-212C507.235-212 528-191.287 528-46.125v116.25C528 215.286 507.235 236 361.937 236H214.063C68.766 236 48 215.286 48 70.125v-116.25C48-191.287 68.765-212 214.063-212z" fill="#b16286"/>
        </clipPath>
        <linearGradient id="c" x1="88" x2="256" y1="28" y2="284" gradientTransform="translate(-26.432 -27.568)" gradientUnits="userSpaceOnUse">
            <stop offset="0" stop-color="#ebdbb2"/>
            <stop offset="1" stop-color="#ebdbb2"/>
        </linearGradient>
        <filter id="b" x="-.01" y="-.01" width="1.023" height="1.025" color-interpolation-filters="sRGB">
            <feGaussianBlur stdDeviation="1.16"/>
        </filter>
        <filter id="a" x="-.02" y="-.03" width="1.046" height="1.05" color-interpolation-filters="sRGB">
            <feGaussianBlur stdDeviation="2.32"/>
        </filter>
        <linearGradient id="d" x1="253.657" x2="1.418" y1="249.181" y2="2.126" gradientTransform="matrix(3.71144 0 0 3.71144 -48.953 -13.114)" gradientUnits="userSpaceOnUse">
                <stop offset="0" stop-color="#d3869b"/>
            <stop offset="1" stop-color="#b16286"/>
        </linearGradient>
    </defs>
    <path d="M162.537 18.432c72.648 0 83.031 10.357 83.031 82.937v58.125c0 72.581-10.383 82.938-83.031 82.938H88.599c-72.648 0-83.031-10.357-83.031-82.938V101.37c0-72.58 10.383-82.937 83.031-82.937z" filter="url(#a)" opacity=".2"/>
    <path d="M162.537 16.432c72.648 0 83.031 10.357 83.031 82.937v58.125c0 72.581-10.383 82.938-83.031 82.938H88.599c-72.648 0-83.031-10.357-83.031-82.938V99.37c0-72.58 10.383-82.937 83.031-82.937z" filter="url(#b)" opacity=".1"/>
    <path d="M162.537 16.432c72.648 0 83.031 10.357 83.031 82.937v58.125c0 72.581-10.383 82.938-83.031 82.938H88.599c-72.648 0-83.031-10.357-83.031-82.938V99.37c0-72.58 10.383-82.937 83.031-82.937z" fill="url(#c)"/>
    <path d="M102.725 121.519c-7.339 0-13.278 6.425-13.278 14.349 0 7.929 5.94 14.353 13.278 14.353 7.329 0 13.268-6.424 13.268-14.353 0-7.924-5.94-14.35-13.268-14.35zM149.982 121.519c-7.329 0-13.268 6.425-13.268 14.349 0 7.929 5.94 14.353 13.268 14.353 7.339 0 13.278-6.424 13.278-14.353 0-7.924-5.94-14.35-13.278-14.35z" fill="#d3869b"/>
    <path d="M286.243 31.227c-34.356 0-65.03.61-92.409 2.218-13.689.804-26.555 1.855-38.643 3.205-12.089 1.349-23.4 2.996-33.983 4.987-10.584 1.99-20.438 4.332-29.612 7.06-9.174 2.728-17.67 5.848-25.53 9.41-7.862 3.56-15.09 7.564-21.733 12.054-6.644 4.49-12.701 9.469-18.224 14.984-5.522 5.515-10.508 11.566-15.005 18.202-4.496 6.635-8.503 13.85-12.07 21.703-3.566 7.852-6.69 16.337-9.423 25.501-2.732 9.165-5.073 19.011-7.067 29.583-1.995 10.572-3.643 21.87-4.995 33.947-1.352 12.076-2.406 24.925-3.211 38.6-1.611 27.351-2.226 57.998-2.226 92.322v219.91c0 34.325.615 64.971 2.226 92.322.805 13.676 1.86 26.525 3.211 38.6 1.352 12.077 3 23.375 4.995 33.947 1.994 10.572 4.335 20.419 7.067 29.583 2.733 9.164 5.857 17.65 9.424 25.502 3.566 7.852 7.573 15.067 12.07 21.703 4.496 6.635 9.482 12.687 15.004 18.202 5.523 5.515 11.58 10.493 18.224 14.983s13.871 8.494 21.732 12.055c7.861 3.562 16.357 6.681 25.531 9.41 9.174 2.728 19.028 5.069 29.612 7.06 10.583 1.99 21.894 3.637 33.983 4.987 12.088 1.35 24.954 2.4 38.643 3.204 27.379 1.608 58.053 2.218 92.41 2.218h279.735c34.356 0 65.03-.61 92.409-2.218 13.689-.804 26.555-1.854 38.643-3.204 12.089-1.35 23.4-2.996 33.983-4.987 10.584-1.991 20.438-4.332 29.612-7.06 9.174-2.729 17.67-5.848 25.53-9.41 7.862-3.561 15.09-7.564 21.733-12.055 6.644-4.49 12.702-9.468 18.224-14.983 5.522-5.515 10.509-11.567 15.005-18.202 4.496-6.636 8.503-13.851 12.07-21.703 3.566-7.852 6.69-16.338 9.423-25.502 2.732-9.164 5.073-19.01 7.068-29.583 1.994-10.572 3.642-21.87 4.994-33.946 1.352-12.076 2.406-24.925 3.211-38.6 1.611-27.352 2.226-57.998 2.226-92.323v-219.91c0-34.324-.615-64.97-2.226-92.322-.805-13.675-1.859-26.524-3.21-38.6-1.353-12.076-3.001-23.375-4.995-33.947-1.995-10.572-4.336-20.418-7.068-29.583-2.733-9.164-5.857-17.65-9.424-25.501-3.566-7.852-7.573-15.068-12.07-21.703-4.495-6.636-9.482-12.687-15.004-18.202-5.522-5.515-11.58-10.494-18.224-14.984s-13.871-8.493-21.732-12.055c-7.861-3.561-16.357-6.68-25.53-9.409s-19.03-5.07-29.613-7.06c-10.583-1.991-21.894-3.638-33.983-4.987-12.088-1.35-24.954-2.4-38.643-3.205-27.379-1.607-58.053-2.218-92.41-2.218zm66.306 214.597l5.06 5.77c-88.512 25.39-128.784 64.472-128.784 64.472s10.553-6.11 29.133-14.02c52.674-23.138 94.165-29.365 111.336-31.025 2.75-.394 5.454-.817 8.242-1.174 30.156-3.815 63.646-4.88 99.216-.885 46.59 5.257 96.788 19.22 147.805 47.104 0 0-38.551-36.966-122.238-62.355l6.864-7.887s66.975-1.68 137.606 51.496c0 0 70.634 127.987 70.634 285.853 0 0-41.414 71.47-149.77 74.794 0 0-17.49-21.207-32.156-39.796 64.432-18.072 88.705-58.39 88.705-58.39-20.277 13.288-39.375 22.538-56.585 29.104-24.473 10.167-48.313 17.014-71.3 21.261-46.94 8.727-90.161 6.6-127.139-.275-27.885-5.204-52.196-13.095-72.003-21.102-11.254-4.31-23.335-9.861-36.042-16.882a251.568 251.568 0 0 1-4.545-2.516c-.742-.415-1.45-.79-2.16-1.225-8.749-5.025-13.526-8.365-13.526-8.365s23.567 39.19 85.957 57.643c-14.786 18.748-32.736 40.543-32.736 40.543-108.362-3.324-149.777-74.794-149.777-74.794 0-157.866 70.597-285.853 70.597-285.853 70.67-53.176 137.606-51.496 137.606-51.496z" fill="url(#d)" transform="matrix(.26432 0 0 .26432 12.94 8.178)"/>
    <path transform="matrix(.5 0 0 .5 -18.432 122.432)" d="M361.938-212C507.235-212 528-191.287 528-46.125v116.25C528 215.286 507.235 236 361.937 236H214.063C68.766 236 48 215.286 48 70.125v-116.25C48-191.287 68.765-212 214.063-212z" clip-path="url(#e)" fill="none" opacity=".4" stroke-linecap="round" stroke-linejoin="round" stroke-width="8" stroke="url(#f)"/>
</svg>
