<svg xmlns="http://www.w3.org/2000/svg" width="256" height="256" viewBox="0 0 67.73 67.73">
    <defs>
        <linearGradient id="d" x1="296" x2="296" y1="-212" y2="236" gradientUnits="userSpaceOnUse">
            <stop offset="0" stop-color="#ebdbb2"/>
            <stop offset=".125" stop-color="#ebdbb2" stop-opacity=".098"/>
            <stop offset=".925" stop-opacity=".098"/>
            <stop offset="1" stop-opacity=".498"/>
        </linearGradient>
        <linearGradient id="c" x1="88" x2="256" y1="28" y2="284" gradientTransform="matrix(.2697 0 0 .2697 -7.129 220.56)" gradientUnits="userSpaceOnUse">
            <stop offset="0" stop-color="#ebdbb2"/>
            <stop offset="1" stop-color="#ebdbb2"/>
        </linearGradient>
        <filter id="b" width="1.023" height="1.025" x="-.01" y="-.01" color-interpolation-filters="sRGB">
            <feGaussianBlur stdDeviation="1.16"/>
        </filter>
        <filter id="a" width="1.046" height="1.05" x="-.02" y="-.03" color-interpolation-filters="sRGB">
            <feGaussianBlur stdDeviation="2.32"/>
        </filter>
        <filter id="e" width="1.143" height="1.072" x="-.07" y="-.04" color-interpolation-filters="sRGB">
            <feGaussianBlur stdDeviation=".797"/>
        </filter>
    </defs>
    <path d="M162.537 5.568c72.648 0 83.031 10.357 83.031 82.938v58.125c0 72.58-10.383 82.937-83.031 82.937H88.599c-72.648 0-83.031-10.357-83.031-82.937V88.506c0-72.581 10.383-82.938 83.031-82.938z" transform="matrix(.2697 0 0 .2697 0 2.199)" opacity=".2" filter="url(#a)"/>
    <path d="M43.837 3.161c19.594 0 22.395 2.793 22.395 22.369v15.677c0 19.575-2.8 22.369-22.395 22.369H23.896c-19.594 0-22.394-2.794-22.394-22.37V25.53c0-19.576 2.8-22.369 22.394-22.369z" opacity=".1" fill="none" stroke="#282828" stroke-width="1.079" stroke-linecap="round" stroke-linejoin="round"/>
    <path d="M162.537 3.568c72.648 0 83.031 10.357 83.031 82.938v58.125c0 72.58-10.383 82.937-83.031 82.937H88.599c-72.648 0-83.031-10.357-83.031-82.937V86.506c0-72.581 10.383-82.938 83.031-82.938z" transform="matrix(.2697 0 0 .2697 0 2.199)" opacity=".1" filter="url(#b)"/>
    <path d="M43.837 232.428c19.594 0 22.395 2.793 22.395 22.369v15.676c0 19.576-2.8 22.37-22.395 22.37H23.896c-19.594 0-22.394-2.794-22.394-22.37v-15.676c0-19.576 2.8-22.37 22.394-22.37z" fill="url(#c)" transform="translate(0 -229.267)"/>
    <path d="M214.063-216c-72.84 0-115.523 4.883-140.344 29.672C48.898-161.538 44-118.897 44-46.125v116.25c0 72.771 4.898 115.414 29.719 140.203C98.539 235.118 141.224 240 214.063 240h147.875c72.838 0 115.522-4.882 140.343-29.672C527.102 185.538 532 142.896 532 70.125v-116.25c0-72.772-4.898-115.414-29.719-140.203C477.461-211.118 434.776-216 361.937-216zm0 8h147.875c72.458 0 112.805 5.474 134.69 27.332C518.516-158.81 524-118.515 524-46.125v116.25c0 72.39-5.485 112.685-27.371 134.543C474.743 226.526 434.396 232 361.937 232H214.063c-72.458 0-112.805-5.474-134.69-27.332C57.484 182.81 52 142.515 52 70.125v-116.25c0-72.39 5.485-112.685 27.371-134.543C101.257-202.526 141.604-208 214.063-208z" transform="matrix(.13485 0 0 .13485 -4.971 31.75)" style="font-variation-settings:normal;inline-size:0" opacity=".4" fill="url(#d)"/>
    <path d="M33.867 3.161v60.415h9.97c19.594 0 22.395-2.794 22.395-22.37V25.53c0-19.576-2.8-22.369-22.395-22.369z" opacity=".2" fill="#ebdbb2"/>
    <path d="M23.896 63.576c-19.594 0-22.394-2.915-22.394-23.337V32.06h64.73v8.178c0 20.422-2.8 23.337-22.395 23.337z" opacity=".2" fill="#ebdbb2"/>
    <g transform="translate(.123 -227.497)" opacity=".3" fill="#282828" filter="url(#e)">
        <path d="M34.383 240.127c-.566.388-1.091.796-1.582 1.22H32.8l-.003.003s-1.347 1.244-1.903 1.967a17.773 17.773 0 0 0-2.041 3.384c-.548 1.186-1.241 3.717-1.241 3.717l-.463 4.08a23.443 23.443 0 0 0 .595 5.989l.002.025h.004c.424 1.808.505 2.661 1.313 4.104 9.163-1.606 15.237 5.477 13.188 13.123-1.08 4.033-4.409 5.976-7.6 6.705-4.498.782-8.29-1.646-9.203-5.053-.178-1.124.1-2.634.742-3.015-.371.129-.823.278-1.364.788-.911.859-.934 1.162-2.125 1.496.583-1.643-2.616-2.979-2.038-6.502.013-.082-.145.674-.133.59-1.41 7.787 6.566 16.552 15.415 14.18 5.995-1.496 9.569-5.898 10.75-10.867.683-2.87.472-5.828-.148-8.312-.505-2.022-1.536-4.156-3.087-6.116a21.06 21.06 0 0 0-1.544-1.737l-.012-.015-.045-.04c-1.19-1.196-2.423-2.184-3.605-3.118 0 0-2.391-1.956-3.5-3.027a2.729 2.729 0 0 1-.194-.21c-.387-.46-.758-.936-1.09-1.437a3.177 3.177 0 0 1-.247-.43c-.352-.767-.657-1.565-.835-2.39a13.811 13.811 0 0 1-.297-3.29c.026-.937.154-1.88.407-2.783.458-1.071 1.203-2.061 1.885-3.03z"/>
        <path d="M37.034 244.096c-.3.482-.528 1.025-.792 1.537-.234.454-.508.891-.703 1.364-.427 1.034-.676 2.134-1.014 3.2-.04.128-.138.251-.122.385.122 1.009.97 1.797 1.589 2.603.238.31.81.847.81.847.097.107.196.212.302.316 0 0-.197-1.223-.284-1.836-.008-.054-.017-.108-.02-.162-.152-2.175-.254-4.368-.073-6.541.048-.578.307-1.713.307-1.713zM21.398 261.42s.365 2.4.107 3.558c-.121.549-.62.961-.758 1.505-.219.859-.29 1.795-.086 2.657.117.491.49.883.725 1.33.055.105.105.215.16.317.29-1.3 1.238-2.354 1.613-3.621.145-.49.265-1.005.239-1.515a6.59 6.59 0 0 0-.693-2.643c-.312-.61-1.307-1.589-1.307-1.589zM31.954 266.016a9.221 9.221 0 0 0-9.221 9.221c.002.475.04.949.115 1.417.104.162.212.322.299.493.077.152.116.329.167.502.028-.02.1-.035.129-.057.198-.166.45-.458.932-.912.626-.59 1.21-.862 1.593-.94.85-.175 1.076-.02 1.813.093-.6.25-.785.523-1.247 1.114-.016.02-.27.325-.377.802a4.403 4.403 0 0 0-.05 1.506c.834 3.014 4.242 5.252 8.427 4.524a12.116 12.116 0 0 0 2.602-.927 9.221 9.221 0 0 0 4.04-7.615 9.221 9.221 0 0 0-9.222-9.221zM37.515 234.407s.038 1.24-.163 1.812c-.096.27-.373.45-.477.717-.164.422-.257.893-.206 1.343.029.256.19.48.286.72.077.192.155.404.231.578l.153.385.339-1.194c.052-.178.103-.356.153-.54 0 0 .402-1.016.44-1.552a3.368 3.368 0 0 0-.19-1.383c-.121-.329-.566-.886-.566-.886z"/>
    </g>
    <g fill="#282828">
        <path d="M34.506 12.63c-.565.388-1.091.796-1.582 1.22l-.003.004s-1.348 1.243-1.904 1.966a17.773 17.773 0 0 0-2.04 3.384 18.331 18.331 0 0 0-1.242 3.717 19.585 19.585 0 0 0-.463 4.081c-.014 2.006.152 4.089.595 5.988l.003.025h.003c.425 1.808.505 2.661 1.313 4.104 9.164-1.606 15.237 5.477 13.188 13.123-1.08 4.034-4.409 5.976-7.6 6.705-4.498.782-8.29-1.646-9.203-5.053-.178-1.124.1-2.634.742-3.015-.371.13-.823.278-1.364.788-.91.859-.933 1.162-2.124 1.496.583-1.643-2.617-2.978-2.04-6.502.014-.082-.144.675-.131.59-1.41 7.787 6.565 16.552 15.414 14.181 5.995-1.496 9.57-5.899 10.751-10.868.682-2.87.471-5.828-.148-8.311-.505-2.023-1.536-4.157-3.088-6.117A21.06 21.06 0 0 0 42.04 32.4l-.013-.015-.045-.04c-1.19-1.196-2.423-2.183-3.605-3.118 0 0-2.39-1.955-3.5-3.027a2.729 2.729 0 0 1-.194-.209c-.387-.46-.757-.937-1.09-1.438a3.177 3.177 0 0 1-.247-.43c-.352-.767-.657-1.565-.835-2.39a13.811 13.811 0 0 1-.297-3.29c.026-.936.154-1.88.407-2.782.458-1.072 1.203-2.062 1.885-3.03z"/>
        <path d="M37.158 16.6c-.301.481-.529 1.024-.793 1.536-.234.455-.508.891-.703 1.364-.427 1.035-.676 2.134-1.014 3.2-.04.129-.138.251-.122.385.122 1.009.97 1.797 1.59 2.603.237.31.81.847.81.847.096.107.195.213.301.316 0 0-.197-1.223-.284-1.836-.007-.054-.017-.107-.02-.162-.151-2.175-.254-4.368-.073-6.54.049-.579.308-1.713.308-1.713zM21.521 33.922s.365 2.4.108 3.56c-.122.548-.62.96-.759 1.505-.219.858-.29 1.794-.086 2.656.117.491.491.883.725 1.331.055.105.106.214.16.316.29-1.3 1.238-2.354 1.614-3.621.145-.49.264-1.004.238-1.515a6.59 6.59 0 0 0-.693-2.643c-.312-.61-1.307-1.589-1.307-1.589zM32.077 38.52a9.221 9.221 0 0 0-9.221 9.22c.002.475.04.949.115 1.418.104.161.212.32.299.492.077.152.116.33.167.503.028-.02.101-.036.129-.058.198-.165.45-.457.932-.912.626-.59 1.21-.861 1.593-.94.85-.175 1.076-.02 1.814.094-.6.248-.786.522-1.248 1.114-.016.02-.27.324-.377.801a4.403 4.403 0 0 0-.05 1.506c.834 3.014 4.242 5.252 8.428 4.525a12.116 12.116 0 0 0 2.6-.928 9.221 9.221 0 0 0 4.04-7.615 9.221 9.221 0 0 0-9.22-9.221zM37.638 6.91s.038 1.24-.163 1.812c-.095.27-.373.45-.477.717-.163.422-.257.893-.206 1.343.03.256.19.48.286.72.077.192.155.404.231.579l.153.384.339-1.194c.052-.178.103-.355.153-.54 0 0 .402-1.015.44-1.552a3.368 3.368 0 0 0-.19-1.383c-.12-.329-.566-.886-.566-.886z"/>
    </g>
</svg>
