<svg xmlns="http://www.w3.org/2000/svg" width="256" height="256" viewBox="0 0 67.73 67.73">
    <defs>
        <linearGradient id="e" x1="296" x2="296" y1="-212" y2="236" gradientUnits="userSpaceOnUse">
            <stop offset="0" stop-color="#ebdbb2"/>
            <stop offset=".125" stop-color="#ebdbb2" stop-opacity=".098"/>
            <stop offset=".925" stop-opacity=".098"/>
            <stop offset="1" stop-opacity=".498"/>
        </linearGradient>
        <clipPath id="d">
            <path d="M361.938-212C507.235-212 528-191.287 528-46.125v116.25C528 215.286 507.235 236 361.937 236H214.063C68.766 236 48 215.286 48 70.125v-116.25C48-191.287 68.765-212 214.063-212z" fill="#b16286"/>
        </clipPath>
        <linearGradient id="c" x1="24" x2="280" y1="28" y2="284" gradientTransform="matrix(.2697 0 0 .2697 -7.129 220.56)" gradientUnits="userSpaceOnUse">
            <stop offset="0" stop-color="#fb4934"/>
            <stop offset=".483" stop-color="#fb4934"/>
            <stop offset="1" stop-color="#fb4934"/>
        </linearGradient>
        <filter id="b" x="-.02" y="-.03" width="1.046" height="1.05" color-interpolation-filters="sRGB">
            <feGaussianBlur stdDeviation="2.32"/>
        </filter>
        <filter id="a" x="-.01" y="-.01" width="1.023" height="1.025" color-interpolation-filters="sRGB">
            <feGaussianBlur stdDeviation="1.16"/>
        </filter>
        <filter id="f" x="-.03" width="1.063" color-interpolation-filters="sRGB">
            <feGaussianBlur stdDeviation=".696"/>
        </filter>
    </defs>
    <path transform="matrix(.2697 0 0 .2697 -7.129 -8.706)" d="M188.969 44C261.617 44 272 54.357 272 126.938v58.124C272 257.644 261.617 268 188.969 268H115.03C42.383 268 32 257.643 32 185.062v-58.125C32 54.358 42.383 44 115.031 44z" filter="url(#a)" opacity=".1"/>
    <path transform="matrix(.2697 0 0 .2697 -7.129 -8.706)" d="M188.969 46C261.617 46 272 56.357 272 128.938v58.125c0 72.58-10.383 82.937-83.031 82.937H115.03C42.383 270 32 259.643 32 187.062v-58.125C32 56.358 42.383 46 115.031 46z" filter="url(#b)" opacity=".2"/>
    <path d="M43.837 232.428c19.594 0 22.395 2.793 22.395 22.369v15.676c0 19.576-2.8 22.37-22.395 22.37H23.896c-19.594 0-22.394-2.794-22.394-22.37v-15.676c0-19.576 2.8-22.37 22.394-22.37z" fill="url(#c)" transform="translate(0 -229.267)"/>
    <path d="M1.502 33.368v7.839c0 19.575 2.8 22.369 22.394 22.369h19.941c19.594 0 22.395-2.794 22.395-22.37v-7.838z" fill="#ebdbb2" opacity=".1"/>
    <path transform="matrix(.13485 0 0 .13485 -4.971 31.75)" d="M361.938-212C507.235-212 528-191.287 528-46.125v116.25C528 215.286 507.235 236 361.937 236H214.063C68.766 236 48 215.286 48 70.125v-116.25C48-191.287 68.765-212 214.063-212z" clip-path="url(#d)" fill="none" opacity=".4" stroke-linecap="round" stroke-linejoin="round" stroke-width="8" stroke="url(#e)"/>
    <g transform="translate(.794 -229.285)" fill="#282828" filter="url(#f)" opacity=".3">
        <path d="M6.615 268.043v-13.72h13.719v13.72h-2.94v-10.78h-3.92v10.78zM39.932 268.043v-13.72h13.72v13.72h-2.94v-10.78h-3.92v10.78z"/>
        <path d="M39.932 268.043v-13.72h13.72v13.72h-2.94v-10.78h-3.92v10.78zM53.652 254.324h5.88v13.719h-2.94v-10.78h-2.94M23.274 254.324v16.659h6.86v-2.94h6.859v-13.72zm6.86 2.94h3.919v7.839h-3.92z"/>
    </g>
    <g fill="#ebdbb2">
        <path d="M7.408 38.758v-13.72h13.72v13.72h-2.94v-10.78h-3.92v10.78zM40.726 38.758v-13.72h13.72v13.72h-2.94v-10.78h-3.92v10.78z"/>
        <path d="M40.726 38.758v-13.72h13.72v13.72h-2.94v-10.78h-3.92v10.78z"/>
        <path d="M54.445 25.039h5.88v13.719h-2.94v-10.78h-2.94M24.067 25.039v16.659h6.86v-2.94h6.86v-13.72zm6.86 2.94h3.92v7.84h-3.92z"/>
    </g>
</svg>
