<svg width="256" height="256" viewBox="0 0 67.73 67.73" xmlns="http://www.w3.org/2000/svg">
    <defs>
        <filter id="a" x="-.02" y="-.03" width="1.046" height="1.05" color-interpolation-filters="sRGB">
            <feGaussianBlur stdDeviation="2.32"/>
        </filter>
        <filter id="b" x="-.01" y="-.01" width="1.023" height="1.025" color-interpolation-filters="sRGB">
            <feGaussianBlur stdDeviation="1.16"/>
        </filter>
        <linearGradient id="d" x1="296" x2="296" y1="-212" y2="236" gradientUnits="userSpaceOnUse">
            <stop offset="0" stop-color="#ebdbb2"/>
            <stop offset=".125" stop-color="#ebdbb2" stop-opacity=".098"/>
            <stop offset=".925" stop-opacity=".098"/>
            <stop offset="1" stop-opacity=".498"/>
        </linearGradient>
        <clipPath id="c">
            <path d="M361.938-212C507.235-212 528-191.287 528-46.125v116.25C528 215.286 507.235 236 361.937 236H214.063C68.766 236 48 215.286 48 70.125v-116.25C48-191.287 68.765-212 214.063-212z" fill="#b16286"/>
        </clipPath>
    </defs>
    <path transform="matrix(.26458 0 0 .26458 0 3.404)" d="M162.537 5.568c72.648 0 83.031 10.357 83.031 82.938v58.125c0 72.58-10.383 82.937-83.031 82.937H88.599c-72.648 0-83.031-10.357-83.031-82.937V88.506c0-72.581 10.383-82.938 83.031-82.938z" filter="url(#a)" opacity=".2"/>
    <path transform="matrix(.26458 0 0 .26458 0 3.404)" d="M162.537 3.568c72.648 0 83.031 10.357 83.031 82.938v58.125c0 72.58-10.383 82.937-83.031 82.937H88.599c-72.648 0-83.031-10.357-83.031-82.937V86.506c0-72.581 10.383-82.938 83.031-82.938z" filter="url(#b)" opacity=".1"/>
    <path d="M23.356 4.348c-9.612 0-15.102.683-18.193 3.77-3.09 3.087-3.776 8.571-3.776 18.174V41.67c0 9.603.686 15.087 3.776 18.174 3.09 3.087 8.581 3.77 18.193 3.77h19.562c9.611 0 15.102-.683 18.192-3.77 3.09-3.087 3.777-8.571 3.777-18.174V26.292c0-9.603-.686-15.087-3.777-18.174-3.09-3.087-8.58-3.77-18.192-3.77z" fill="#282828"/>
    <path d="M1.473 41.141v.53c0 9.602.686 15.086 3.777 18.173 3.09 3.087 8.58 3.77 18.192 3.77h19.563c9.61 0 15.101-.683 18.192-3.77 3.09-3.087 3.776-8.571 3.776-18.174v-.529c0 9.602-.686 15.087-3.776 18.174-3.09 3.086-8.581 3.77-18.192 3.77H23.442c-9.611 0-15.102-.684-18.192-3.77-3.09-3.087-3.777-8.572-3.777-18.174z" fill="#282828" opacity=".2"/>
    <path d="M29.743 4.324l.01 1.87V21.8c.297-.023.582-.025.881-.035 11.537-.389 19.066 9.447 19.066 9.447s-8.635 10.501-17.63 10.501c-.824 0-1.593-.096-2.318-.225v2.837c.62.08 1.267.122 1.938.122 8.37 0 14.399-4.301 20.26-9.36.972.778 4.96 2.7 5.778 3.53-5.573 4.665-18.554 8.39-25.917 8.39-.71 0-1.389-.021-2.059-.086v16.297l.006.372h13.219c2.402 0 4.547-.043 6.462-.155s3.599-.295 5.08-.573c1.48-.279 2.756-.654 3.856-1.152a10.27 10.27 0 0 0 1.52-.842 8.653 8.653 0 0 0 1.274-1.048c.386-.386.734-.81 1.049-1.274.314-.464.595-.968.844-1.517.5-1.098.874-2.374 1.153-3.853.28-1.479.462-3.16.574-5.074.113-1.912.156-4.056.156-6.456V26.268c0-2.4-.043-4.545-.156-6.457-.112-1.913-.295-3.595-.574-5.073-.279-1.48-.654-2.754-1.153-3.852-.25-.55-.53-1.055-.844-1.519a8.64 8.64 0 0 0-1.05-1.272 8.655 8.655 0 0 0-1.274-1.049 10.27 10.27 0 0 0-1.52-.842c-1.099-.498-2.376-.874-3.856-1.152-1.48-.279-3.164-.46-5.08-.573-1.914-.113-4.059-.155-6.461-.155zm.01 40.001C19.508 43.037 15.98 31.73 15.98 31.73s4.61-6.756 13.772-7.457V21.8c-10.148.815-18.927 9.411-18.927 9.411s4.969 14.392 18.927 15.71zm1.65-20.123c-.253-.006-.509-.006-.768.002-.304.01-.588.05-.883.07v3.01c.543-.058 1.101-.087 1.679-.087 5.314 0 8.477 4.153 8.477 4.153l-4.325 3.616c-1.942-3.237-2.601-4.662-5.83-5.052v9.204a7.56 7.56 0 0 0 2.439.38c6.303 0 12.18-8.148 12.18-8.148s-5.107-6.95-12.968-7.148zm-1.65 14.916c-4.365-1.466-5.78-6.575-5.78-6.575s2.539-3.018 5.78-2.63v-2.629c-6.174.668-9.897 4.793-9.897 4.793s2.155 8.03 9.896 9.41z" fill="#b8bb26"/>
    <path transform="matrix(.1323 0 0 .1323 -4.877 32.393)" d="M361.938-212C507.235-212 528-191.287 528-46.125v116.25C528 215.286 507.235 236 361.937 236H214.063C68.766 236 48 215.286 48 70.125v-116.25C48-191.287 68.765-212 214.063-212z" clip-path="url(#c)" fill="none" opacity=".4" stroke-linecap="round" stroke-linejoin="round" stroke-width="8" stroke="url(#d)"/>
</svg>
