<svg width="256" height="256" viewBox="0 0 67.73 67.73" xmlns="http://www.w3.org/2000/svg">
    <defs>
        <linearGradient id="d" x1="296" x2="296" y1="-212" y2="236" gradientUnits="userSpaceOnUse">
            <stop offset="0" stop-color="#ebdbb2"/>
            <stop offset=".125" stop-color="#ebdbb2" stop-opacity=".098"/>
            <stop offset=".925" stop-opacity=".098"/>
            <stop offset="1" stop-opacity=".498"/>
        </linearGradient>
        <clipPath id="c">
            <path d="M361.938-212C507.235-212 528-191.287 528-46.125v116.25C528 215.286 507.235 236 361.937 236H214.063C68.766 236 48 215.286 48 70.125v-116.25C48-191.287 68.765-212 214.063-212z" fill="#b16286"/>
        </clipPath>
        <filter id="b" x="-.02" y="-.03" width="1.046" height="1.05" color-interpolation-filters="sRGB">
            <feGaussianBlur stdDeviation="2.32"/>
        </filter>
        <filter id="a" x="-.01" y="-.01" width="1.023" height="1.025" color-interpolation-filters="sRGB">
            <feGaussianBlur stdDeviation="1.16"/>
        </filter>
        <filter id="e" x="-.05" y="-.05" width="1.096" height="1.096" color-interpolation-filters="sRGB">
            <feGaussianBlur stdDeviation="10.24"/>
        </filter>
    </defs>
    <path transform="matrix(.2697 0 0 .2697 -7.129 -8.706)" d="M188.969 44C261.617 44 272 54.357 272 126.938v58.124C272 257.644 261.617 268 188.969 268H115.03C42.383 268 32 257.643 32 185.062v-58.125C32 54.358 42.383 44 115.031 44z" filter="url(#a)" opacity=".1"/>
    <path transform="matrix(.2697 0 0 .2697 -7.129 -8.706)" d="M188.969 46C261.617 46 272 56.357 272 128.938v58.125c0 72.58-10.383 82.937-83.031 82.937H115.03C42.383 270 32 259.643 32 187.062v-58.125C32 56.358 42.383 46 115.031 46z" filter="url(#b)" opacity=".2"/>
    <path d="M43.837 3.161c19.594 0 22.395 2.793 22.395 22.369v15.677c0 19.575-2.8 22.369-22.395 22.369H23.896c-19.594 0-22.394-2.794-22.394-22.37V25.53c0-19.576 2.8-22.369 22.394-22.369z" fill="#b8bb26"/>
    <path transform="matrix(.13485 0 0 .13485 -4.971 31.75)" d="M361.938-212C507.235-212 528-191.287 528-46.125v116.25C528 215.286 507.235 236 361.937 236H214.063C68.766 236 48 215.286 48 70.125v-116.25C48-191.287 68.765-212 214.063-212z" clip-path="url(#c)" fill="none" opacity=".6" stroke-linecap="round" stroke-linejoin="round" stroke-width="8" stroke="url(#d)"/>
    <path d="M33.867 3.088v60.415h9.97c19.594 0 22.395-2.794 22.395-22.37V25.458c0-19.576-2.8-22.369-22.395-22.369z" fill="#ebdbb2" opacity=".1"/>
    <path d="M23.896 63.503c-19.594 0-22.394-2.643-22.394-21.167v-7.418h64.73v7.418c0 18.524-2.8 21.167-22.395 21.167z" fill="#ebdbb2" opacity=".1"/>
    <path class="st0" d="M35.025 32.254a.791.791 0 0 0-.226-.59c-.152-.147-.36-.22-.627-.22H33.09v1.616h1.082c.268 0 .475-.073.627-.22.152-.144.226-.342.226-.586z" fill="#282828"/>
    <path class="st0" d="M44 18.711H23.734a4.607 4.607 0 0 0-4.607 4.607v20.1a4.607 4.607 0 0 0 4.607 4.607H44a4.606 4.606 0 0 0 4.606-4.606V23.318A4.607 4.607 0 0 0 44 18.71zM30.568 32.365h-1.622l-.037-.147a1.176 1.176 0 0 0-.29-.545c-.127-.128-.311-.19-.561-.19a.915.915 0 0 0-.372.07.755.755 0 0 0-.375.36c-.03.064-.056.155-.077.267a3.826 3.826 0 0 0-.049.461c-.012.193-.017.435-.017.727s.005.535.017.727c.011.186.027.34.05.462.02.112.046.202.077.267a.746.746 0 0 0 .375.359c.105.047.23.071.37.071.252 0 .437-.063.567-.192.14-.14.239-.323.294-.543l.036-.148h1.392l.223.003-.04.226c-.124.696-.414 1.23-.86 1.589-.445.356-.987.536-1.611.536-.387 0-.729-.062-1.02-.186a2.54 2.54 0 0 1-.785-.524 2.083 2.083 0 0 1-.602-1.147 4.614 4.614 0 0 1-.072-.688 22.873 22.873 0 0 1 0-1.622c.009-.252.034-.484.073-.69.04-.217.108-.42.2-.605.092-.184.226-.366.399-.54.235-.227.5-.404.787-.526.29-.123.633-.185 1.02-.185.624 0 1.166.18 1.61.536.447.358.737.893.86 1.59l.037.205zm-8.464-3.667l-.009.002a.627.627 0 0 1-.763-.613v-4.3a2.656 2.656 0 0 1 2.649-2.65h3.445c.536 0 .824.63.473 1.037l-5.467 6.323a.617.617 0 0 1-.328.201zm11.184 5.583h-.014v2.23h-1.52v-6.284h2.474c.327 0 .626.055.894.157.267.106.492.258.677.442.18.184.322.405.42.65a2.125 2.125 0 0 1 0 1.557 1.92 1.92 0 0 1-.42.65 1.92 1.92 0 0 1-.677.441 2.403 2.403 0 0 1-.894.157h-.94zm5.783.653c.148.155.35.23.614.23.267 0 .47-.076.62-.231.152-.157.226-.377.226-.674v-4.03h1.515v4.072c0 .34-.063.654-.187.931a2.145 2.145 0 0 1-.508.712 2.321 2.321 0 0 1-.749.456c-.282.107-.59.162-.917.162-.325 0-.633-.055-.916-.162a2.307 2.307 0 0 1-.749-.456 2.128 2.128 0 0 1-.509-.712 2.268 2.268 0 0 1-.186-.93V30.23h1.523v4.03c0 .296.073.517.223.674zM21.977 16.851v.015h4.628V14.67h-1.049a.355.355 0 0 1-.355-.355V10.88H23.38v3.436a.355.355 0 0 1-.354.355h-1.048v2.181zM32.733 16.866h.256V14.67h-1.046a.355.355 0 0 1-.355-.355V10.88h-1.823v3.436a.355.355 0 0 1-.354.355h-1.05v2.195h4.372zM34.744 16.851v.015h4.629V14.67h-1.05a.355.355 0 0 1-.354-.355V10.88h-1.822v3.436a.355.355 0 0 1-.355.355h-1.047v2.181zM45.5 16.866h.256V14.67h-1.05a.355.355 0 0 1-.356-.355V10.88h-1.817v3.436a.355.355 0 0 1-.354.355h-1.05v2.195H45.5zM41.384 49.87h-.256v2.197h1.05c.195 0 .354.158.354.354v3.437h1.822V52.42c0-.196.159-.354.355-.354h1.047V49.87h-4.372zM35 49.87h-.256v2.197h1.047c.196 0 .355.158.355.354v3.437h1.822V52.42c0-.196.159-.354.354-.354h1.05V49.87H35zM28.617 49.87h-.256v2.197h1.049c.196 0 .354.158.354.354v3.437h1.823V52.42c0-.196.158-.354.354-.354h1.048V49.87h-4.372zM22.233 49.87h-.256v2.197h1.051c.196 0 .355.158.355.354v3.437H25.2V52.42c0-.196.159-.354.354-.354h1.051V49.87h-4.372zM56.1 22.88h-3.18a.354.354 0 0 1-.355-.354V21.48H50.37v4.628h2.195v-1.05c0-.195.159-.354.355-.354h3.436v-1.822H56.1zM52.92 29.267a.355.355 0 0 1-.355-.355v-1.05h-2.196v4.628h2.196v-1.046c0-.196.159-.355.355-.355h3.436v-1.822H52.92zM52.92 35.649a.355.355 0 0 1-.355-.355v-1.048h-2.196v4.628h2.196v-1.049c0-.196.159-.355.355-.355H56.356V35.65H52.92zM52.92 42.035a.354.354 0 0 1-.355-.355v-1.05h-2.196v4.627h2.196v-1.05c0-.196.159-.355.355-.355h3.436v-1.817H52.92zM15.424 40.63h-.256v1.049a.355.355 0 0 1-.354.354h-3.437v1.823h3.436c.196 0 .355.158.355.354v1.047h2.196V40.63h-.256zM15.424 34.246h-.256v1.046a.355.355 0 0 1-.354.355h-3.437v1.822h3.436c.196 0 .355.159.355.355v1.05h2.196v-4.628h-.256zM15.424 27.862h-.256v1.05a.355.355 0 0 1-.354.354h-3.437v1.822h3.436c.196 0 .355.158.355.354v1.048h2.196v-4.628h-1.94zM15.424 21.479h-.256v1.05a.355.355 0 0 1-.354.355h-3.437v1.817h3.436c.196 0 .355.159.355.355v1.051h2.196v-4.629h-1.94z" fill="#282828"/>
    <g transform="matrix(.08785 0 0 .08785 11.377 10.879)" filter="url(#e)" opacity=".5">
        <path class="st0" d="M269.183 243.32c0-2.781-.839-4.984-2.57-6.714-1.73-1.68-4.09-2.516-7.133-2.516h-12.325v18.406h12.325c3.042 0 5.402-.84 7.133-2.519 1.731-1.626 2.57-3.879 2.57-6.657z" fill="#282828"/>
        <path class="st0" d="M371.344 89.156H140.66c-28.961 0-52.442 23.481-52.442 52.438v228.809c0 28.965 23.481 52.438 52.442 52.438h230.684c28.961 0 52.438-23.473 52.438-52.438V141.594c0-28.957-23.477-52.438-52.438-52.438zM218.45 244.582h-18.466l-.414-1.676c-.633-2.512-1.746-4.598-3.309-6.199-1.445-1.461-3.535-2.172-6.386-2.172-1.602 0-3.027.27-4.226.801-1.192.531-2.192 1.254-2.973 2.137a7.594 7.594 0 0 0-1.301 1.961c-.344.73-.633 1.762-.871 3.043-.254 1.382-.438 3.129-.558 5.246-.137 2.192-.195 4.95-.195 8.274 0 3.328.058 6.09.195 8.274.121 2.121.305 3.875.558 5.258.238 1.278.527 2.305.879 3.047a7.632 7.632 0 0 0 1.269 1.93c.813.922 1.786 1.613 3 2.156 1.196.531 2.622.805 4.223.805 2.863 0 4.969-.718 6.449-2.191 1.59-1.598 2.715-3.672 3.34-6.18l.414-1.676h15.843l2.539.028-.457 2.57c-1.41 7.922-4.711 14.011-9.793 18.09-5.055 4.05-11.223 6.102-18.336 6.102-4.394 0-8.293-.707-11.602-2.118-3.282-1.386-6.293-3.39-8.934-5.961-1.992-1.992-3.52-4.062-4.566-6.176-1.047-2.078-1.817-4.402-2.286-6.886-.445-2.367-.722-4.93-.828-7.832a260.365 260.365 0 0 1-.152-9.238c0-3.406.054-6.484.152-9.226.106-2.867.387-5.508.836-7.844.461-2.473 1.23-4.797 2.282-6.89 1.042-2.102 2.57-4.168 4.535-6.141 2.679-2.598 5.687-4.606 8.961-5.992 3.301-1.402 7.207-2.114 11.602-2.114 7.113 0 13.281 2.055 18.336 6.102 5.082 4.082 8.382 10.172 9.793 18.094l.418 2.34zm-96.344-41.738c-.031.007-.066.011-.098.019-4.118.902-8.691-2.043-8.691-6.977V146.93c0-16.586 13.566-30.152 30.152-30.152h39.211c6.105 0 9.386 7.175 5.394 11.793l-62.234 71.984c-1.066 1.234-2.375 1.968-3.734 2.289zm127.308 63.55h-.157v25.375H231.95v-71.527h28.16c3.726 0 7.133.629 10.175 1.785 3.039 1.207 5.61 2.938 7.707 5.035a22.386 22.386 0 0 1 4.774 7.39 24.193 24.193 0 0 1 1.68 8.867c0 3.094-.578 6.078-1.68 8.86a21.858 21.858 0 0 1-4.774 7.394c-2.098 2.148-4.668 3.828-7.707 5.031-3.042 1.211-6.449 1.789-10.175 1.789h-10.696zm65.824 7.426c1.691 1.762 3.98 2.618 6.996 2.618 3.031 0 5.336-.859 7.054-2.629 1.734-1.782 2.574-4.29 2.574-7.664v-45.871h17.246v46.347c0 3.875-.715 7.442-2.126 10.594-1.398 3.136-3.343 5.867-5.785 8.109-2.434 2.226-5.301 3.969-8.527 5.192-3.215 1.218-6.722 1.835-10.438 1.835-3.703 0-7.211-.617-10.426-1.835-3.242-1.227-6.11-2.973-8.527-5.192-2.446-2.242-4.398-4.969-5.79-8.113-1.41-3.157-2.121-6.723-2.121-10.59v-46.347h17.34v45.871c.003 3.378.827 5.89 2.53 7.675zM120.66 67.988v.161h52.683V43.156h-11.941a4.04 4.04 0 0 1-4.039-4.039V0h-20.742v39.116a4.038 4.038 0 0 1-4.035 4.039h-11.925v24.833zM243.098 68.149h2.914V43.156h-11.914a4.036 4.036 0 0 1-4.035-4.039V0h-20.747v39.116a4.036 4.036 0 0 1-4.035 4.039h-11.957v24.992h49.774zM265.992 67.988v.161h52.683V43.156h-11.941a4.038 4.038 0 0 1-4.035-4.039V0h-20.742v39.116a4.039 4.039 0 0 1-4.039 4.039h-11.925v24.833zM388.426 68.149h2.914V43.156h-11.964a4.04 4.04 0 0 1-4.039-4.039V0h-20.683v39.116a4.038 4.038 0 0 1-4.035 4.039h-11.96v24.992h49.767zM341.57 443.848h-2.914v24.996h11.945a4.036 4.036 0 0 1 4.035 4.035V512h20.742v-39.12a4.036 4.036 0 0 1 4.038-4.035h11.922v-24.996H341.57zM268.902 443.848h-2.91v24.996h11.91a4.036 4.036 0 0 1 4.039 4.035V512h20.742v-39.12a4.036 4.036 0 0 1 4.035-4.035h11.957v-24.996h-49.773zM196.238 443.848h-2.914v24.996h11.941a4.033 4.033 0 0 1 4.035 4.035V512h20.746v-39.12a4.032 4.032 0 0 1 4.035-4.035h11.929v-24.996h-49.772zM123.574 443.848h-2.914v24.996h11.964a4.036 4.036 0 0 1 4.039 4.035V512h20.683v-39.12a4.035 4.035 0 0 1 4.035-4.035h11.96v-24.996h-49.767zM509.086 136.617h-36.202a4.035 4.035 0 0 1-4.039-4.034v-11.922h-24.992v52.687h24.992v-11.949a4.036 4.036 0 0 1 4.039-4.035H512v-20.746h-2.914zM472.883 209.317a4.04 4.04 0 0 1-4.039-4.039v-11.953h-24.992v52.683h24.992v-11.91a4.04 4.04 0 0 1 4.039-4.039H512v-20.743h-39.117zM472.883 281.957a4.039 4.039 0 0 1-4.039-4.039v-11.929h-24.992v52.687h24.992v-11.941a4.04 4.04 0 0 1 4.039-4.039h38.948l.008.004v-.004H512v-20.738h-39.117zM472.883 354.652a4.035 4.035 0 0 1-4.039-4.035v-11.96h-24.992v52.679h24.992v-11.96a4.04 4.04 0 0 1 4.039-4.039H512v-20.683h-39.117zM46.07 338.656h-2.914v11.941a4.04 4.04 0 0 1-4.039 4.039H0v20.742h39.116a4.038 4.038 0 0 1 4.039 4.038v11.918h24.996v-52.678h-2.914zM46.07 265.988h-2.914v11.914a4.036 4.036 0 0 1-4.039 4.035H0v20.746h39.116a4.036 4.036 0 0 1 4.039 4.035v11.957h24.996v-52.687h-2.914zM46.07 193.324h-2.914v11.941a4.036 4.036 0 0 1-4.039 4.035H0v20.742h39.116a4.036 4.036 0 0 1 4.039 4.035v11.929h24.996v-52.683H46.07zM46.07 120.66h-2.914v11.964a4.036 4.036 0 0 1-4.039 4.035H0v20.687h39.116a4.036 4.036 0 0 1 4.039 4.038v11.961h24.996v-52.687H46.07z" fill="#282828"/>
    </g>
</svg>
