<svg width="256" height="256" version="1.0" xmlns="http://www.w3.org/2000/svg" enable-background="new">
    <defs>
        <filter id="a" x="-.02" y="-.03" width="1.046" height="1.05" color-interpolation-filters="sRGB">
            <feGaussianBlur stdDeviation="2.32"/>
        </filter>
        <filter id="b" x="-.01" y="-.01" width="1.023" height="1.025" color-interpolation-filters="sRGB">
            <feGaussianBlur stdDeviation="1.16"/>
        </filter>
        <linearGradient id="d" x1="296" x2="296" y1="-212" y2="236" gradientUnits="userSpaceOnUse">
            <stop offset="0" stop-color="#ebdbb2"/>
            <stop offset=".125" stop-color="#ebdbb2" stop-opacity=".098"/>
            <stop offset=".925" stop-opacity=".098"/>
            <stop offset="1" stop-opacity=".498"/>
        </linearGradient>
        <clipPath id="c">
            <path d="M361.938-212C507.235-212 528-191.287 528-46.125v116.25C528 215.286 507.235 236 361.937 236H214.063C68.766 236 48 215.286 48 70.125v-116.25C48-191.287 68.765-212 214.063-212z" fill="#b16286"/>
        </clipPath>
    </defs>
    <path d="M162.537 62.432c72.648 0 83.031 10.357 83.031 82.937v58.125c0 72.581-10.383 82.938-83.031 82.938H88.599c-72.648 0-83.031-10.357-83.031-82.938V145.37c0-72.58 10.383-82.937 83.031-82.937z" filter="url(#a)" opacity=".2" transform="translate(0 -44)"/>
    <path d="M162.537 61.432c72.648 0 83.031 10.357 83.031 82.937v58.125c0 72.581-10.383 82.938-83.031 82.938H88.599c-72.648 0-83.031-10.357-83.031-82.938V144.37c0-72.58 10.383-82.937 83.031-82.937z" filter="url(#b)" opacity=".1" transform="translate(0 -44)"/>
    <path d="M162.537 16.432c72.648 0 83.031 10.357 83.031 82.937v58.125c0 72.581-10.383 82.938-83.031 82.938H88.599c-72.648 0-83.031-10.357-83.031-82.938V99.37c0-72.58 10.383-82.937 83.031-82.937z" fill="#ebdbb2"/>
    <path transform="matrix(.5 0 0 .5 -18.432 122.432)" d="M361.938-212C507.235-212 528-191.287 528-46.125v116.25C528 215.286 507.235 236 361.937 236H214.063C68.766 236 48 215.286 48 70.125v-116.25C48-191.287 68.765-212 214.063-212z" clip-path="url(#c)" fill="none" opacity=".4" stroke-linecap="round" stroke-linejoin="round" stroke-width="8" stroke="url(#d)"/>
    <path d="M88.6 240.4c-72.65 0-83.032-10.353-83.032-82.906v-29.05h240v29.05c0 72.553-10.383 82.905-83.031 82.905z" fill="#ebdbb2" opacity=".25"/>
    <g>
        <path d="M152.761 140.183h-30.603v30.667h-21.86l37.812 43.364 36.51-43.364h-21.859z" fill="#458588"/>
        <path d="M157.133 166.47h30.603v-30.668h21.86l-37.812-43.364-36.51 43.364h21.859z" fill="#458588"/>
        <path d="M161.322 46.652a3.514 3.514 0 0 0-.456.017l-38.602 4.122-13.543 1.349s-3.602.614-4.715 1.893c-.97 1.115-1.072 4.309-1.072 4.309l.085 94.556c-8.338-1.57-18.254-1.08-27.903 1.378-21.981 5.615-36.752 19.744-32.99 31.56 3.76 11.814 24.627 16.84 46.608 11.226 18.34-4.698 32.145-15.524 33.424-26.212l.113-1.292-.005-95.715 39.816-3.73c1.709-.058 3.973-2.238 3.97-4.74l-.011-14.772c-.001-1.715-2.43-3.895-4.719-3.95z" fill="#b8bb26"/>
    </g>
</svg>
