<?xml version="1.0" encoding="UTF-8" standalone="no"?>
<svg
   xmlns:dc="http://purl.org/dc/elements/1.1/"
   xmlns:cc="http://creativecommons.org/ns#"
   xmlns:rdf="http://www.w3.org/1999/02/22-rdf-syntax-ns#"
   xmlns:svg="http://www.w3.org/2000/svg"
   xmlns="http://www.w3.org/2000/svg"
   xmlns:sodipodi="http://sodipodi.sourceforge.net/DTD/sodipodi-0.dtd"
   xmlns:inkscape="http://www.inkscape.org/namespaces/inkscape"
   width="256"
   height="256"
   viewBox="0 0 67.73 67.73"
   version="1.1"
   id="svg48"
   sodipodi:docname="typora.svg"
   inkscape:version="1.0.2 (e86c870879, 2021-01-15)">
  <metadata
     id="metadata52">
    <rdf:RDF>
      <cc:Work
         rdf:about="">
        <dc:format>image/svg+xml</dc:format>
        <dc:type
           rdf:resource="http://purl.org/dc/dcmitype/StillImage" />
        <dc:title></dc:title>
      </cc:Work>
    </rdf:RDF>
  </metadata>
  <sodipodi:namedview
     pagecolor="#ffffff"
     bordercolor="#666666"
     borderopacity="1"
     objecttolerance="10"
     gridtolerance="10"
     guidetolerance="10"
     inkscape:pageopacity="0"
     inkscape:pageshadow="2"
     inkscape:window-width="1015"
     inkscape:window-height="662"
     id="namedview50"
     showgrid="true"
     inkscape:zoom="1.7617188"
     inkscape:cx="138.73489"
     inkscape:cy="134.12422"
     inkscape:window-x="905"
     inkscape:window-y="418"
     inkscape:window-maximized="0"
     inkscape:current-layer="svg48"
     inkscape:document-rotation="0"
     showguides="true"
     inkscape:guide-bbox="true"
     units="mm">
    <inkscape:grid
       type="xygrid"
       id="grid856" />
    <sodipodi:guide
       position="37.039844,63.761445"
       orientation="0,-1"
       id="guide928" />
    <sodipodi:guide
       position="27.779883,4.233125"
       orientation="0,-1"
       id="guide930" />
    <sodipodi:guide
       position="33.071289,53.178633"
       orientation="0,-1"
       id="guide932" />
    <sodipodi:guide
       position="34.394141,14.815938"
       orientation="0,-1"
       id="guide934" />
  </sodipodi:namedview>
  <defs
     id="defs28">
    <rect
       x="20.029409"
       y="14.235091"
       width="28.654397"
       height="37.792701"
       id="rect879" />
    <linearGradient
       id="f"
       x1="296"
       x2="296"
       y1="-212"
       y2="236"
       gradientUnits="userSpaceOnUse">
      <stop
         offset="0"
         stop-color="#ebdbb2"
         id="stop2" />
      <stop
         offset=".125"
         stop-color="#ebdbb2"
         stop-opacity=".098"
         id="stop4" />
      <stop
         offset=".925"
         stop-opacity=".098"
         id="stop6" />
      <stop
         offset="1"
         stop-opacity=".498"
         id="stop8" />
    </linearGradient>
    <clipPath
       id="e">
      <path
         d="M361.938-212C507.235-212 528-191.287 528-46.125v116.25C528 215.286 507.235 236 361.937 236H214.063C68.766 236 48 215.286 48 70.125v-116.25C48-191.287 68.765-212 214.063-212z"
         fill="#b16286"
         id="path11" />
    </clipPath>
    <filter
       id="d"
       x="-.28"
       y="-.03"
       width="1.555"
       height="1.067"
       color-interpolation-filters="sRGB">
      <feGaussianBlur
         stdDeviation="1.85"
         id="feGaussianBlur14" />
    </filter>
    <linearGradient
       id="c"
       x1="32"
       x2="272"
       y1="156"
       y2="156"
       gradientTransform="rotate(90 -74.267 148.764) scale(.26458)"
       gradientUnits="userSpaceOnUse">
      <stop
         offset="0"
         stop-color="#ebdbb2"
         id="stop17" />
      <stop
         offset="1"
         stop-color="#ebdbb2"
         id="stop19" />
    </linearGradient>
    <filter
       id="b"
       x="-.02"
       y="-.03"
       width="1.046"
       height="1.05"
       color-interpolation-filters="sRGB">
      <feGaussianBlur
         stdDeviation="2.32"
         id="feGaussianBlur22" />
    </filter>
    <filter
       id="a"
       x="-.01"
       y="-.01"
       width="1.023"
       height="1.025"
       color-interpolation-filters="sRGB">
      <feGaussianBlur
         stdDeviation="1.16"
         id="feGaussianBlur25" />
    </filter>
    <inkscape:path-effect
       effect="bspline"
       id="path-effect853"
       is_visible="true"
       lpeversion="1"
       weight="33.333333"
       steps="2"
       helper_size="0"
       apply_no_weight="true"
       apply_with_weight="true"
       only_selected="false" />
  </defs>
  <path
     transform="translate(0 3.404) scale(.26458)"
     d="M162.537 3.568c72.648 0 83.031 10.357 83.031 82.938v58.125c0 72.58-10.383 82.937-83.031 82.937H88.599c-72.648 0-83.031-10.357-83.031-82.937V86.506c0-72.581 10.383-82.938 83.031-82.938z"
     filter="url(#a)"
     opacity=".1"
     id="path30" />
  <path
     transform="translate(0 3.404) scale(.26458)"
     d="M162.537 5.568c72.648 0 83.031 10.357 83.031 82.938v58.125c0 72.58-10.383 82.937-83.031 82.937H88.599c-72.648 0-83.031-10.357-83.031-82.937V88.506c0-72.581 10.383-82.938 83.031-82.938z"
     filter="url(#b)"
     opacity=".2"
     id="path32" />
  <path
     d="M43.005 233.614c19.221 0 21.968 2.74 21.968 21.944v15.38c0 19.203-2.747 21.943-21.968 21.943H23.442c-19.222 0-21.969-2.74-21.969-21.944v-15.379c0-19.204 2.747-21.944 21.969-21.944z"
     fill="url(#c)"
     id="path34"
     transform="translate(0 -229.267)" />
  <path
     d="M33.223 4.348v59.266h9.782c19.221 0 21.968-2.74 21.968-21.944V26.292c0-19.204-2.747-21.944-21.968-21.944z"
     fill="#ebdbb2"
     opacity=".1"
     id="path36" />
  <path
     transform="translate(-4.877 32.393) scale(.1323)"
     d="M361.938-212C507.235-212 528-191.287 528-46.125v116.25C528 215.286 507.235 236 361.937 236H214.063C68.766 236 48 215.286 48 70.125v-116.25C48-191.287 68.765-212 214.063-212z"
     clip-path="url(#e)"
     fill="none"
     opacity=".4"
     stroke-linecap="round"
     stroke-linejoin="round"
     stroke-width="8"
     stroke="url(#f)"
     id="path46" />
  <path
     style="fill:#000000;fill-opacity:1;stroke:#000000;stroke-width:0.0500404;stroke-linecap:butt;stroke-linejoin:miter;stroke-miterlimit:4;stroke-dasharray:none;stroke-opacity:1"
     d="m 22.515185,26.272061 c 0.02102,0.06421 0.0629,0.192178 0.154721,0.252101 0.09182,0.05992 0.233308,0.05209 0.308802,0.0068 0.0755,-0.04533 0.08512,-0.128331 0.105146,-0.391439 0.02002,-0.263108 0.05042,-0.706256 0.109179,-1.002433 0.05876,-0.296178 0.145913,-0.445221 0.298308,-0.611569 0.152395,-0.166348 0.369945,-0.349887 0.689384,-0.509075 0.319439,-0.159188 0.740631,-0.293996 1.15779,-0.399291 0.41716,-0.105294 0.830203,-0.181081 1.483301,-0.265181 0.653098,-0.0841 1.54616,-0.176521 2.325095,-0.269691 0.778935,-0.09317 1.443243,-0.187013 1.818931,-0.154191 0.375689,0.03282 0.461832,0.192011 0.592345,1.546588 0.130514,1.354576 0.305782,3.907371 0.555046,7.258301 0.249265,3.350931 0.572621,7.501408 0.747297,10.089399 0.174677,2.587992 0.20071,3.613778 0.09491,4.206655 -0.105797,0.592876 -0.343438,0.753025 -0.629151,0.870496 -0.285712,0.11747 -0.619623,0.192249 -0.901517,0.246193 -0.281893,0.05394 -0.511704,0.08703 -0.700987,0.116601 -0.189283,0.02957 -0.337791,0.0556 -0.393493,0.120731 -0.0557,0.06513 -0.01846,0.169004 0.0813,0.214842 0.09975,0.04584 0.261705,0.03405 0.42388,0.02226 0.565939,-0.04172 1.132107,-0.08346 1.766496,-0.142338 0.634388,-0.05888 1.33719,-0.134902 2.125688,-0.200138 0.788498,-0.06524 1.662595,-0.119688 2.299831,-0.149977 0.637237,-0.03029 1.037525,-0.03642 1.276033,-0.07919 0.238508,-0.04276 0.315528,-0.122189 0.34732,-0.18972 0.03179,-0.06753 0.01837,-0.12312 -0.222181,-0.140641 -0.240552,-0.01752 -0.708011,0.0035 -1.078253,-0.09207 -0.370242,-0.0956 -0.643042,-0.30806 -1.022649,-3.080927 -0.379606,-2.772866 -0.865455,-8.104035 -1.218583,-11.866393 -0.353129,-3.762359 -0.573411,-5.954512 -0.677251,-7.187292 -0.10384,-1.232779 -0.09117,-1.505931 0.02388,-1.666186 0.115049,-0.160256 0.332213,-0.207278 0.626204,-0.240215 0.293991,-0.03294 0.664645,-0.0518 1.683756,-0.119288 1.019111,-0.06749 2.686489,-0.183578 3.721783,-0.216444 1.035294,-0.03287 1.438123,0.01745 1.786608,0.181164 0.348486,0.163713 0.642573,0.440569 0.931054,0.820305 0.28848,0.379736 0.571412,0.86227 0.735868,1.041348 0.164456,0.179079 0.210674,0.05488 0.13126,-0.355723 -0.07942,-0.410605 -0.284615,-1.107774 -0.498771,-1.756177 -0.214157,-0.648403 -0.43727,-1.247969 -0.617584,-1.557421 -0.180313,-0.309452 -0.318025,-0.328487 -0.589303,-0.261775 -0.271278,0.06671 -0.676006,0.219278 -1.189073,0.360147 -0.513067,0.140869 -1.134526,0.270031 -1.999237,0.373334 -0.864711,0.103304 -1.972606,0.18071 -3.09625,0.262253 -1.123643,0.08154 -2.26286,0.167211 -3.403309,0.249099 -1.14045,0.08189 -2.281971,0.159984 -3.385212,0.254359 -1.103241,0.09437 -2.16805,0.205025 -3.31892,0.246902 -1.15087,0.04188 -2.387699,0.01495 -3.014199,0.07726 -0.6265,0.06232 -0.642299,0.213652 -0.618226,0.899163 0.02407,0.685511 0.08794,1.904329 0.119898,2.514328 0.03196,0.609998 0.03203,0.609979 0.05304,0.674188 z"
     id="path851"
     inkscape:path-effect="#path-effect853"
     inkscape:original-d="m 22.494169,26.207852 c 0.0422,0.128363 0.0841,0.256327 0.125714,0.384081 0.141833,-0.008 0.283346,-0.0154 0.424709,-0.0235 0.01,-0.0828 0.0195,-0.165812 0.0289,-0.249118 0.0307,-0.442918 0.0611,-0.886066 0.0912,-1.329494 0.0874,-0.148773 0.174572,-0.297806 0.261457,-0.447118 0.21783,-0.183281 0.435379,-0.366822 0.652658,-0.550623 0.421459,-0.134544 0.842649,-0.269357 1.263588,-0.40443 0.41334,-0.0755 0.826379,-0.151313 1.239189,-0.227369 0.893356,-0.0922 1.786422,-0.184581 2.679248,-0.277267 0.665048,-0.0937 1.329365,-0.18748 1.994342,-0.281726 0.0864,0.159562 0.172592,0.318725 0.258427,0.477567 0.175352,2.550344 0.350613,5.103139 0.525525,7.654343 0.323604,4.150656 0.646968,8.301132 0.970042,12.451088 0.0263,1.026039 0.0522,2.051829 0.0781,3.077448 -0.237418,0.160442 -0.475057,0.320594 -0.712995,0.480496 -0.333634,0.075 -0.667537,0.149813 -1.001691,0.224329 -0.229668,0.0333 -0.459477,0.0664 -0.689746,0.0993 -0.148262,0.0264 -0.296775,0.0524 -0.445598,0.0781 0.0375,0.104135 0.0748,0.207989 0.111705,0.311554 0.162422,-0.0115 0.486526,-0.0354 0.486526,-0.0354 0,0 1.132134,-0.0831 1.697816,-0.125164 0.703106,-0.0757 1.405901,-0.151792 2.108486,-0.228079 0.874397,-0.0542 1.748494,-0.108644 2.622381,-0.163361 0.400571,-0.006 0.800861,-0.012 1.200881,-0.0184 0.0773,-0.0791 0.154313,-0.158532 0.231029,-0.238248 -0.014,-0.0555 -0.0267,-0.111264 -0.0404,-0.167332 -0.467547,0.0213 -0.935004,0.0424 -1.402921,0.0632 -0.272607,-0.212249 -0.545413,-0.424699 -0.81858,-0.637508 -0.485776,-5.332988 -0.971632,-10.664156 -1.457848,-15.996813 -0.220039,-2.192062 -0.440328,-4.384215 -0.660887,-6.576857 0.0124,-0.272906 0.0256,-0.546033 0.038,-0.819479 0.217479,-0.0468 0.434648,-0.0938 0.651608,-0.141093 0.370971,-0.0186 0.741623,-0.0375 1.112055,-0.0566 1.667798,-0.115834 3.335176,-0.231928 5.002564,-0.348303 0.40315,0.0506 0.80598,0.100906 1.20859,0.150963 0.294376,0.277156 0.588471,0.554003 0.882327,0.830629 0.283186,0.482796 0.566112,0.965333 0.848788,1.447589 0.0465,-0.123934 0.0927,-0.248138 0.138663,-0.372612 -0.20493,-0.696905 -0.41014,-1.394071 -0.615609,-2.091537 -0.222879,-0.59934 -0.445978,-1.198911 -0.669367,-1.798771 -0.137424,-0.0187 -0.275127,-0.0378 -0.4131,-0.0571 -0.40443,0.152822 -0.80916,0.305384 -1.21413,0.457677 -0.62122,0.129434 -1.242679,0.258597 -1.864449,0.387501 -1.107695,0.0777 -2.215591,0.155082 -3.323836,0.232229 -1.139044,0.0859 -2.278258,0.171601 -3.417812,0.257017 -1.141344,0.0784 -2.282868,0.156462 -3.424741,0.234298 -1.064598,0.110925 -2.129406,0.221579 -3.194543,0.331964 -1.236639,-0.0267 -2.473469,-0.0536 -3.710638,-0.0808 -0.0155,0.151613 -0.0313,0.302945 -0.0474,0.454028 0.0642,1.21989 0.128033,2.43871 0.19171,3.65872 z"
     sodipodi:nodetypes="cccccccccccccccccccccccccccccccccccccccccccccccccccc" />
</svg>
