<svg width="256" height="256" viewBox="0 0 67.73 67.73" xmlns="http://www.w3.org/2000/svg" xmlns:xlink="http://www.w3.org/1999/xlink">
    <defs>
        <linearGradient id="d" x1="196.788" x2="107.421" y1="237.057" y2="58.323" gradientTransform="matrix(.2697 0 0 .2697 -7.129 220.56)" gradientUnits="userSpaceOnUse">
            <stop offset="0" stop-color="#ebdbb2"/>
            <stop offset=".063" stop-color="#ebdbb2"/>
            <stop offset="1" stop-color="#ebdbb2"/>
        </linearGradient>
        <filter id="c" x="-.02" y="-.03" width="1.046" height="1.05" color-interpolation-filters="sRGB">
            <feGaussianBlur stdDeviation="2.32"/>
        </filter>
        <filter id="b" x="-.01" y="-.01" width="1.023" height="1.025" color-interpolation-filters="sRGB">
            <feGaussianBlur stdDeviation="1.16"/>
        </filter>
        <linearGradient id="i" x1="296" x2="296" y1="-212" y2="236" gradientUnits="userSpaceOnUse">
            <stop offset="0" stop-color="#ebdbb2"/>
            <stop offset=".125" stop-color="#ebdbb2" stop-opacity=".098"/>
            <stop offset=".925" stop-opacity=".098"/>
            <stop offset="1" stop-opacity=".498"/>
        </linearGradient>
        <clipPath id="h">
            <path d="M361.938-212C507.235-212 528-191.287 528-46.125v116.25C528 215.286 507.235 236 361.937 236H214.063C68.766 236 48 215.286 48 70.125v-116.25C48-191.287 68.765-212 214.063-212z" fill="#b16286"/>
        </clipPath>
        <linearGradient id="a">
            <stop offset="0" stop-color="#ebdbb2"/>
            <stop offset="1" stop-color="#ebdbb2" stop-opacity="0"/>
        </linearGradient>
        <radialGradient id="g" cx="149" cy="139.75" r="12" gradientTransform="matrix(1 0 0 1.16667 0 -23.292)" gradientUnits="userSpaceOnUse">
            <stop offset="0" stop-color="#fabd2f"/>
            <stop offset="1" stop-color="#fb4934"/>
        </radialGradient>
        <filter id="f" x="-.03" y="-.09" width="1.065" height="1.18" color-interpolation-filters="sRGB">
            <feGaussianBlur stdDeviation="2.047"/>
        </filter>
        <filter id="e" x="-.05" y="-.05" width="1.096" height="1.096" color-interpolation-filters="sRGB">
            <feGaussianBlur stdDeviation=".865"/>
        </filter>
        <filter id="j" color-interpolation-filters="sRGB">
            <feGaussianBlur stdDeviation=".875"/>
        </filter>
        <linearGradient id="k" x1="24" x2="24" y1="20.257" y2="8.987" gradientTransform="matrix(1.13938 0 0 1.41678 18.635 14.927)" gradientUnits="userSpaceOnUse">
            <stop offset="0" stop-color="#282828"/>
            <stop offset="1" stop-color="#282828"/>
        </linearGradient>
        <linearGradient id="l" x1="23.773" x2="24.278" y1="26.996" y2="16.218" gradientTransform="matrix(.82864 0 0 1.0744 26.507 16.567)" gradientUnits="userSpaceOnUse">
            <stop offset="0" stop-color="#ebdbb2"/>
            <stop offset="1" stop-color="#ebdbb2" stop-opacity="0"/>
        </linearGradient>
        <radialGradient id="m" cx="92.953" cy="176.156" r="10.742" gradientTransform="matrix(.81187 .02338 -.00549 .19145 -28.581 9.987)" gradientUnits="userSpaceOnUse">
            <stop offset="0" stop-color="#ebdbb2"/>
            <stop offset="1" stop-color="#ebdbb2" stop-opacity="0"/>
        </radialGradient>
        <linearGradient id="n" x1="94" x2="94" y1="178.34" y2="182.247" gradientTransform="matrix(.28656 0 0 .27378 19.28 -2.36)" gradientUnits="userSpaceOnUse">
            <stop offset="0" stop-color="#282828"/>
            <stop offset="1" stop-color="#282828"/>
        </linearGradient>
        <radialGradient id="o" cx="85.867" cy="148.503" r=".25" gradientTransform="matrix(2.46402 17.98978 -31.44204 4.32456 4500.619 -2142.798)" gradientUnits="userSpaceOnUse" xlink:href="#a"/>
        <linearGradient id="p" x1="117.843" x2="94.498" y1="-105.064" y2="-116.314" gradientTransform="matrix(0 .28 .27985 0 73.034 13.943)" gradientUnits="userSpaceOnUse" xlink:href="#a"/>
    </defs>
    <g transform="translate(0 -229.267)">
        <path d="M43.837 232.428c19.594 0 22.395 2.793 22.395 22.369v15.676c0 19.576-2.8 22.37-22.395 22.37H23.896c-19.594 0-22.394-2.794-22.394-22.37v-15.676c0-19.576 2.8-22.37 22.394-22.37z" fill="none" opacity=".115" stroke-linecap="round" stroke-linejoin="round" stroke-width="1.079" stroke="#282828"/>
        <path transform="matrix(.2697 0 0 .2697 -7.129 220.56)" d="M188.969 44C261.617 44 272 54.357 272 126.938v58.124C272 257.644 261.617 268 188.969 268H115.03C42.383 268 32 257.643 32 185.062v-58.125C32 54.358 42.383 44 115.031 44z" filter="url(#b)" opacity=".1"/>
        <path transform="matrix(.2697 0 0 .2697 -7.129 220.56)" d="M188.969 46C261.617 46 272 56.357 272 128.938v58.125c0 72.58-10.383 82.937-83.031 82.937H115.03C42.383 270 32 259.643 32 187.062v-58.125C32 56.358 42.383 46 115.031 46z" filter="url(#c)" opacity=".2"/>
        <path d="M43.837 232.428c19.594 0 22.395 2.793 22.395 22.369v15.676c0 19.576-2.8 22.37-22.395 22.37H23.896c-19.594 0-22.394-2.794-22.394-22.37v-15.676c0-19.576 2.8-22.37 22.394-22.37z" fill="url(#d)"/>
        <path d="M.953 262.562v7.965c0 19.893 2.846 22.732 22.76 22.732h20.27c19.914 0 22.76-2.839 22.76-22.732v-7.965z" fill="#ebdbb2" opacity=".25"/>
        <path d="M34.34 293.259h9.63c2.487 0 4.707-.044 6.688-.16.991-.059 1.922-.135 2.797-.233a33.326 33.326 0 0 0 2.46-.361c.765-.144 1.478-.314 2.142-.512a14.451 14.451 0 0 0 1.848-.681 10.633 10.633 0 0 0 1.573-.874 8.95 8.95 0 0 0 1.319-1.085c.4-.4.76-.838 1.086-1.319.325-.48.615-1.003.873-1.572.258-.569.484-1.184.682-1.847.198-.664.367-1.378.511-2.144.145-.765.264-1.584.362-2.459s.174-1.805.232-2.796c.117-1.982.161-4.202.161-6.688v-15.932c0-2.486-.044-4.706-.16-6.688a53.51 53.51 0 0 0-.233-2.796 33.287 33.287 0 0 0-.362-2.46 21.387 21.387 0 0 0-.511-2.142 14.444 14.444 0 0 0-.682-1.848 10.627 10.627 0 0 0-.873-1.572 8.951 8.951 0 0 0-1.086-1.319c-.4-.4-.838-.76-1.32-1.085a10.633 10.633 0 0 0-1.572-.874 14.451 14.451 0 0 0-1.848-.681 21.394 21.394 0 0 0-2.143-.512 33.304 33.304 0 0 0-2.459-.361 53.527 53.527 0 0 0-2.797-.232c-1.981-.117-4.2-.16-6.687-.16h-9.632z" fill="#ebdbb2" opacity=".25"/>
        <path d="M29.59 241.358l-8.07 3.295 1.899 4.517a17.196 17.196 0 0 0-3.39 3.37l-4.547-1.886-3.32 8.007 4.477 1.885c-.215 1.546-.161 3.133.062 4.717l-4.538 1.885 3.32 8.02 4.546-1.886a17.177 17.177 0 0 0 3.39 3.365l-1.898 4.51 8.069 3.302 1.906-4.442c1.557.213 3.142.15 4.737-.07l1.902 4.512 8.073-3.303-1.898-4.509a17.176 17.176 0 0 0 3.39-3.365l4.55 1.886 3.32-8.02-4.475-1.885c.214-1.546.156-3.133-.067-4.717l4.543-1.885-3.32-8.007-4.55 1.886a17.198 17.198 0 0 0-3.39-3.37l1.897-4.517-8.073-3.295-1.902 4.447c-1.557-.213-3.142-.16-4.737.062zm4.277 10.775c5.993 0 10.85 4.824 10.85 10.776s-4.857 10.775-10.85 10.775c-5.994 0-10.854-4.824-10.854-10.775s4.86-10.776 10.854-10.776z" fill="#282828" filter="url(#e)" opacity=".3"/>
        <path d="M29.59 241.358l-8.07 3.295 1.899 4.517a17.196 17.196 0 0 0-3.39 3.37l-4.547-1.886-3.32 8.007 4.477 1.885c-.215 1.546-.161 3.133.062 4.717l-4.538 1.885 3.32 8.02 4.546-1.886a17.177 17.177 0 0 0 3.39 3.365l-1.898 4.51 8.069 3.302 1.906-4.442c1.557.213 3.142.15 4.737-.07l1.902 4.512 8.073-3.303-1.898-4.509a17.176 17.176 0 0 0 3.39-3.365l4.55 1.886 3.32-8.02-4.475-1.885c.214-1.546.156-3.133-.067-4.717l4.543-1.885-3.32-8.007-4.55 1.886a17.198 17.198 0 0 0-3.39-3.37l1.897-4.517-8.073-3.295-1.902 4.447c-1.557-.213-3.142-.16-4.737.062zm4.277 10.775c5.993 0 10.85 4.824 10.85 10.776s-4.857 10.775-10.85 10.775c-5.994 0-10.854-4.824-10.854-10.775s4.86-10.776 10.854-10.776z" fill="#282828"/>
        <path transform="matrix(.26458 0 0 .26458 0 229.267)" d="M5.676 99.912v54.48h120.53c16.379 0 29.657-12.195 29.657-27.24 0-15.044-13.278-27.24-29.658-27.24H5.675z" filter="url(#f)" opacity=".3"/>
        <path d="M1.502 255.702v14.414h31.89c4.334 0 7.847-3.226 7.847-7.207 0-3.98-3.513-7.207-7.847-7.207H1.502z" fill="#ebdbb2"/>
        <path d="M34.027 258.299c-2.549 0-4.615 2.058-4.615 4.606a4.616 4.616 0 0 0 9.23 0 4.609 4.609 0 0 0-4.615-4.606z" fill="#282828"/>
        <ellipse transform="matrix(.28846 0 0 .24711 -8.953 228.375)" cx="149" cy="139.75" rx="12" ry="14" fill="url(#g)" filter="url(#filter8972)"/>
        <path transform="matrix(.13485 0 0 .13485 -4.971 261.017)" d="M361.938-212C507.235-212 528-191.287 528-46.125v116.25C528 215.286 507.235 236 361.937 236H214.063C68.766 236 48 215.286 48 70.125v-116.25C48-191.287 68.765-212 214.063-212z" clip-path="url(#h)" fill="none" opacity=".6" stroke-linecap="round" stroke-linejoin="round" stroke-width="8" stroke="url(#i)"/>
        <g transform="matrix(0 -.8955 .8955 0 -19.52 304.323)">
            <path transform="matrix(.28 0 0 .28 -81.838 17.834)" d="M444.486 108.304l28-36 2 40h-26z" filter="url(#j)" opacity=".4"/>
            <rect x="41.5" y="28" width="8.96" height="20.72" rx=".28" ry=".28" display="block" fill="#282828"/>
            <rect x="42.56" y="29.09" width="6.836" height="18.418" rx=".099" ry=".139" display="block" fill="url(#k)"/>
            <path d="M42.821 36.868c.721 0 6.415 1.07 6.415 1.07v6.907c.057 1.332-.316 1.573-1.274 1.507h-5.095l-.046-9.484z" display="block" fill="url(#l)"/>
            <path d="M42.982 45.885h5.87" fill="none" opacity=".469" stroke-linecap="round" stroke-width="1.024" stroke="url(#m)"/>
            <path d="M42.993 46.03l-.43 1.506h6.842l-.422-1.507z" fill="url(#n)"/>
            <rect x="42.85" y="29.91" width=".143" height="15.902" rx=".136" ry=".149" fill="url(#o)"/>
            <path d="M43.074 45.741l-.564 1.732.054-18.243.215 7.538z" fill-rule="evenodd" fill="#ebdbb2"/>
            <path d="M43.074 45.741l-.564 1.732.054-18.243.215 7.538z" fill-rule="evenodd" fill="url(#p)" opacity=".8"/>
        </g>
    </g>
</svg>
