<svg width="256" height="256" viewBox="0 0 67.73 67.73" xmlns="http://www.w3.org/2000/svg">
    <defs>
        <linearGradient id="d" x1="296" x2="296" y1="-212" y2="236" gradientUnits="userSpaceOnUse">
            <stop offset="0" stop-color="#ebdbb2"/>
            <stop offset=".125" stop-color="#ebdbb2" stop-opacity=".098"/>
            <stop offset=".925" stop-opacity=".098"/>
            <stop offset="1" stop-opacity=".498"/>
        </linearGradient>
        <clipPath id="c">
            <path d="M361.938-212C507.235-212 528-191.287 528-46.125v116.25C528 215.286 507.235 236 361.937 236H214.063C68.766 236 48 215.286 48 70.125v-116.25C48-191.287 68.765-212 214.063-212z" fill="#b16286"/>
        </clipPath>
        <filter id="b" x="-.01" y="-.01" width="1.023" height="1.025" color-interpolation-filters="sRGB">
            <feGaussianBlur stdDeviation="1.16"/>
        </filter>
        <filter id="a" x="-.02" y="-.03" width="1.046" height="1.05" color-interpolation-filters="sRGB">
            <feGaussianBlur stdDeviation="2.32"/>
        </filter>
        <filter id="e" x="-.05" y="-.04" width="1.103" height="1.09" color-interpolation-filters="sRGB">
            <feGaussianBlur stdDeviation=".777"/>
        </filter>
    </defs>
    <path transform="matrix(.2697 0 0 .2697 -7.129 -8.706)" d="M188.969 46C261.617 46 272 56.357 272 128.938v58.125c0 72.58-10.383 82.937-83.031 82.937H115.03C42.383 270 32 259.643 32 187.062v-58.125C32 56.358 42.383 46 115.031 46z" filter="url(#a)" opacity=".02"/>
    <path transform="matrix(.2697 0 0 .2697 -7.129 -8.706)" d="M188.969 44C261.617 44 272 54.357 272 126.938v58.124C272 257.644 261.617 268 188.969 268H115.03C42.383 268 32 257.643 32 185.062v-58.125C32 54.358 42.383 44 115.031 44z" filter="url(#b)" opacity=".1"/>
    <path d="M43.837 3.161c19.594 0 22.395 2.793 22.395 22.369v15.677c0 19.575-2.8 22.369-22.395 22.369H23.896c-19.594 0-22.394-2.794-22.394-22.37V25.53c0-19.576 2.8-22.369 22.394-22.369z" fill="#282828"/>
    <path transform="matrix(.13485 0 0 .13485 -4.93 31.737)" d="M361.938-212C507.235-212 528-191.287 528-46.125v116.25C528 215.286 507.235 236 361.937 236H214.063C68.766 236 48 215.286 48 70.125v-116.25C48-191.287 68.765-212 214.063-212z" clip-path="url(#c)" fill="none" opacity=".4" stroke-linecap="round" stroke-linejoin="round" stroke-width="8" stroke="url(#d)"/>
    <path d="M1.543 33.299v2.976c0 23.838 2.8 27.24 22.394 27.24h19.941c19.594 0 22.394-3.402 22.394-27.24V33.3z" fill="#ebdbb2" opacity=".08"/>
    <path d="M33.8 63.255h3.18c25.466 0 29.1-2.598 29.1-20.778V23.975c0-18.18-3.634-20.779-29.1-20.779H33.8z" fill="#ebdbb2" opacity=".08"/>
    <path d="M16.056 282.836c-.296-.297-.34-.486-.262-1.128.093-.771 3.969-13.44 4.173-13.645.174-.174 1.607-.37 2.792-.38l1.095-.01-.147 2.023.823.793c1.493 1.439 4.399 2.3 8.33 2.469 4.862.208 9.026-.831 10.686-2.668.567-.628.59-.701.52-1.66l-.072-1.004 1.68.096c.925.052 1.809.144 1.964.204.319.123.69 1.192 2.963 8.557.83 2.689 1.508 5.166 1.506 5.505-.005 1.215 1.592 1.112-18.006 1.16l-17.688.045zm16.035-17.85c-3.41-.198-6.34-1.399-6.34-2.598 0-.313 1.954-7.184 2.095-7.364.023-.03.357.108.743.305 2.353 1.2 8.414 1.197 10.72-.005.365-.19.68-.323.703-.296.166.203 2.088 7.03 2.088 7.418 0 .537-.389.904-1.628 1.537-1.563.797-4.946 1.202-8.381 1.003zm-.713-17.067c-.53-.114-1.033-.276-1.117-.361-.167-.17.707-3.297 1.287-4.605.29-.656.449-.81.987-.959.83-.23 2.155-.213 2.891.039.42.143.667.377.884.838.337.718 1.494 4.63 1.397 4.727-.035.035-.58.173-1.213.307-1.381.292-3.79.299-5.116.014z" fill="#282828" filter="url(#e)" opacity=".4" transform="translate(-.04 -229.205)"/>
    <path d="M16.016 53.63c-.297-.296-.341-.486-.263-1.128.093-.77 3.969-13.44 4.174-13.645.174-.174 1.606-.369 2.79-.38l1.096-.01-.146 2.024.822.793c1.493 1.439 4.399 2.3 8.33 2.468 4.863.21 9.026-.83 10.686-2.667.567-.629.59-.701.52-1.66l-.072-1.004 1.681.095c.924.053 1.808.145 1.964.205.318.123.688 1.192 2.962 8.556.83 2.69 1.508 5.167 1.507 5.506-.005 1.215 1.591 1.112-18.007 1.16l-17.688.044zM32.05 35.78c-3.41-.197-6.34-1.398-6.34-2.597 0-.314 1.955-7.184 2.095-7.364.023-.03.358.108.744.305 2.352 1.2 8.413 1.197 10.72-.005.364-.19.68-.323.702-.296.166.203 2.088 7.03 2.088 7.418 0 .537-.388.904-1.628 1.536-1.563.798-4.946 1.203-8.381 1.004zm-.713-17.066c-.53-.114-1.032-.277-1.117-.362-.167-.169.707-3.296 1.287-4.605.291-.655.45-.809.987-.958.831-.23 2.155-.213 2.891.038.42.144.667.378.884.839.338.717 1.494 4.63 1.397 4.727-.034.034-.58.172-1.213.306-1.38.293-3.79.3-5.116.015z" fill="#fabd2f"/>
</svg>
