<svg width="256" height="256" viewBox="0 0 67.73 67.73" xmlns="http://www.w3.org/2000/svg">
    <defs>
        <linearGradient id="d" x1="296" x2="296" y1="-212" y2="236" gradientUnits="userSpaceOnUse">
            <stop offset="0" stop-color="#ebdbb2"/>
            <stop offset=".125" stop-color="#ebdbb2" stop-opacity=".098"/>
            <stop offset=".925" stop-opacity="0"/>
            <stop offset="1" stop-opacity="0"/>
        </linearGradient>
        <clipPath id="c">
            <path d="M361.938-212C507.235-212 528-191.287 528-46.125v116.25C528 215.286 507.235 236 361.937 236H214.063C68.766 236 48 215.286 48 70.125v-116.25C48-191.287 68.765-212 214.063-212z" fill="#b16286"/>
        </clipPath>
        <filter id="b" x="-.02" y="-.03" width="1.046" height="1.05" color-interpolation-filters="sRGB">
            <feGaussianBlur stdDeviation="2.32"/>
        </filter>
        <filter id="a" x="-.01" y="-.01" width="1.023" height="1.025" color-interpolation-filters="sRGB">
            <feGaussianBlur stdDeviation="1.16"/>
        </filter>
        <filter id="e" x="-.05" y="-.05" width="1.096" height="1.096" color-interpolation-filters="sRGB">
            <feGaussianBlur stdDeviation="1.058"/>
        </filter>
    </defs>
    <path transform="matrix(.2697 0 0 .2697 0 2.199)" d="M162.537 3.568c72.648 0 83.031 10.357 83.031 82.938v58.125c0 72.58-10.383 82.937-83.031 82.937H88.599c-72.648 0-83.031-10.357-83.031-82.937V86.506c0-72.581 10.383-82.938 83.031-82.938z" filter="url(#a)" opacity=".1"/>
    <path transform="matrix(.2697 0 0 .2697 0 2.199)" d="M162.537 5.568c72.648 0 83.031 10.357 83.031 82.938v58.125c0 72.58-10.383 82.937-83.031 82.937H88.599c-72.648 0-83.031-10.357-83.031-82.937V88.506c0-72.581 10.383-82.938 83.031-82.938z" filter="url(#b)" opacity=".2"/>
    <path d="M43.837 3.161c19.594 0 22.395 2.793 22.395 22.369v15.677c0 19.575-2.8 22.369-22.395 22.369H23.896c-19.594 0-22.394-2.794-22.394-22.37V25.53c0-19.576 2.8-22.369 22.394-22.369z" fill="none" opacity=".2" stroke-linecap="round" stroke-linejoin="round" stroke-width="1.079" stroke="#282828"/>
    <path d="M43.837 3.161c19.594 0 22.395 2.793 22.395 22.369v15.677c0 19.575-2.8 22.369-22.395 22.369H23.896c-19.594 0-22.394-2.794-22.394-22.37V25.53c0-19.576 2.8-22.369 22.394-22.369z" fill="#282828"/>
    <path transform="matrix(.13485 0 0 .13485 -4.971 31.75)" d="M361.938-212C507.235-212 528-191.287 528-46.125v116.25C528 215.286 507.235 236 361.937 236H214.063C68.766 236 48 215.286 48 70.125v-116.25C48-191.287 68.765-212 214.063-212z" clip-path="url(#c)" fill="none" opacity=".5" stroke-linecap="round" stroke-linejoin="round" stroke-width="8" stroke="url(#d)"/>
    <g filter="url(#e)" opacity=".3" transform="translate(.295 -229.067)">
        <path d="M10.82 262.436c0 9.08 5.323 16.917 13.016 20.566l-10.971-30.001a22.665 22.665 0 0 0-2.045 9.435M26.955 284.208c2.094.635 4.315.979 6.616.979 2.672 0 5.236-.463 7.618-1.31l-7.225-19.755z"/>
        <path d="M22.817 250.09v1.362a.223.223 0 0 1-.218.227h-2.634c-.295 0-.419.178-.315.483l8.262 24.339 5.028-15.18-3.343-9.139c-.121-.331-.265-.503-.78-.503h-2.311a.223.223 0 0 1-.218-.227v-1.362c0-.125.098-.232.218-.227 4.302.192 8.63.19 12.985 0 .12-.005.218.102.218.227v1.362a.223.223 0 0 1-.218.227h-2.299c-.456 0-.603.211-.477.582l8.134 23.958 2.986-9.09c3.61-10.99-3.09-12.153-2.923-17.616.083-2.703 2.064-3.883 4.049-3.83a22.667 22.667 0 0 0-15.39-5.998c-8.002 0-15.039 4.134-19.095 10.381 2.585-.026 5.36-.056 8.123-.203.12-.006.218.102.218.227"/>
        <path d="M33.571 235.977c-14.61 0-26.458 11.849-26.458 26.459s11.848 26.458 26.458 26.458 26.459-11.848 26.459-26.458-11.849-26.459-26.459-26.459zm0 1.573c13.742 0 24.886 11.144 24.886 24.886 0 13.741-11.144 24.885-24.886 24.885-13.741 0-24.885-11.144-24.885-24.885 0-13.742 11.144-24.886 24.885-24.886z"/>
        <path d="M53.581 251.603c.125 3.384-.895 7.587-1.994 10.698l-7.097 20.097c7.05-3.866 11.832-11.356 11.832-19.962 0-3.922-.993-7.612-2.74-10.833"/>
    </g>
    <path d="M11.116 33.368c0 9.08 5.322 16.918 13.016 20.567L13.16 23.934a22.665 22.665 0 0 0-2.044 9.434M27.25 55.14c2.094.636 4.315.98 6.617.98 2.672 0 5.235-.463 7.617-1.31L34.26 35.055z" fill="#ebdbb2"/>
    <path d="M23.112 21.023v1.362a.223.223 0 0 1-.217.227H20.26c-.294 0-.418.178-.315.482l8.263 24.34 5.027-15.18-3.342-9.14c-.122-.33-.266-.502-.78-.502h-2.312a.223.223 0 0 1-.217-.227v-1.362c0-.125.098-.232.217-.227 4.302.192 8.631.19 12.986 0 .119-.005.217.102.217.227v1.362a.223.223 0 0 1-.217.227h-2.3c-.456 0-.602.21-.476.581l8.133 23.959 2.986-9.09c3.611-10.99-3.089-12.153-2.922-17.617.082-2.703 2.063-3.882 4.048-3.83a22.667 22.667 0 0 0-15.39-5.997c-8.001 0-15.039 4.133-19.094 10.38 2.584-.026 5.359-.055 8.123-.202.119-.006.217.102.217.227" fill="#ebdbb2"/>
    <path d="M33.867 6.91c-14.61 0-26.459 11.848-26.459 26.458s11.849 26.459 26.459 26.459 26.458-11.849 26.458-26.459S48.477 6.91 33.867 6.91zm0 1.573c13.741 0 24.885 11.144 24.885 24.885 0 13.742-11.144 24.886-24.885 24.886-13.742 0-24.886-11.144-24.886-24.886 0-13.741 11.144-24.885 24.886-24.885z" fill="#ebdbb2"/>
    <path d="M53.877 22.535c.124 3.385-.896 7.588-1.994 10.699L44.786 53.33c7.05-3.865 11.832-11.356 11.832-19.962 0-3.921-.993-7.612-2.741-10.833" fill="#ebdbb2"/>
</svg>
