<svg width="256" height="256" version="1.0" xmlns="http://www.w3.org/2000/svg" enable-background="new">
    <defs>
        <filter id="a" x="-.02" y="-.03" width="1.046" height="1.05" color-interpolation-filters="sRGB">
            <feGaussianBlur stdDeviation="2.32"/>
        </filter>
        <filter id="b" x="-.01" y="-.01" width="1.023" height="1.025" color-interpolation-filters="sRGB">
            <feGaussianBlur stdDeviation="1.16"/>
        </filter>
        <linearGradient id="d" x1="296" x2="296" y1="-212" y2="236" gradientUnits="userSpaceOnUse">
            <stop offset="0" stop-color="#ebdbb2"/>
            <stop offset=".125" stop-color="#ebdbb2" stop-opacity=".098"/>
            <stop offset=".925" stop-opacity=".098"/>
            <stop offset="1" stop-opacity=".498"/>
        </linearGradient>
        <clipPath id="c">
            <path d="M361.938-212C507.235-212 528-191.287 528-46.125v116.25C528 215.286 507.235 236 361.937 236H214.063C68.766 236 48 215.286 48 70.125v-116.25C48-191.287 68.765-212 214.063-212z" fill="#b16286"/>
        </clipPath>
        <filter id="e" x="-.14" y="-.14" width="1.286" height="1.285" color-interpolation-filters="sRGB">
            <feGaussianBlur stdDeviation=".637"/>
        </filter>
    </defs>
    <path d="M162.537 62.432c72.648 0 83.031 10.357 83.031 82.937v58.125c0 72.581-10.383 82.938-83.031 82.938H88.599c-72.648 0-83.031-10.357-83.031-82.938V145.37c0-72.58 10.383-82.937 83.031-82.937z" filter="url(#a)" opacity=".2" transform="translate(0 -44)"/>
    <path d="M162.537 61.432c72.648 0 83.031 10.357 83.031 82.937v58.125c0 72.581-10.383 82.938-83.031 82.938H88.599c-72.648 0-83.031-10.357-83.031-82.938V144.37c0-72.58 10.383-82.937 83.031-82.937z" filter="url(#b)" opacity=".1" transform="translate(0 -44)"/>
    <path d="M162.537 16.432c72.648 0 83.031 10.357 83.031 82.937v58.125c0 72.581-10.383 82.938-83.031 82.938H88.599c-72.648 0-83.031-10.357-83.031-82.938V99.37c0-72.58 10.383-82.937 83.031-82.937z" fill="#ebdbb2"/>
    <path transform="matrix(.5 0 0 .5 -18.432 122.432)" d="M361.938-212C507.235-212 528-191.287 528-46.125v116.25C528 215.286 507.235 236 361.937 236H214.063C68.766 236 48 215.286 48 70.125v-116.25C48-191.287 68.765-212 214.063-212z" clip-path="url(#c)" fill="none" opacity=".4" stroke-linecap="round" stroke-linejoin="round" stroke-width="8" stroke="url(#d)"/>
    <g>
        <g transform="matrix(3.77953 0 0 3.77953 3.042 -862.328)">
            <path d="M28.391 286.688c-2.413.125-7.618-.89-10.725-2.092-3.744-1.447-6.964-4.626-7.422-7.49-.413-2.58 3.19-5.983 8.61-7.142-.512 1.13-2.685 2.125-3.743 3.107-.948.798-1.17 2.173-.878 2.72.37.69 2.174 1.9 3.231 2.368 2.612 1.155 8.188 2.193 12.58 2.343 4.889.166 8.603-.472 11.992-2.06 3.511-1.646 5.72-3.49 6.747-5.635.53-1.105.603-1.459.601-2.905-.002-2.036-.383-3.21-1.66-5.119-1.784-2.668-4.674-4.698-7.45-6.04l-2.07-1.003 2.466.623c6.996 1.768 14.023 4.783 14.908 9.699.758 4.203-.07 7.107-1 9.087-1.039 1.726-2.93 3.55-4.395 4.535-3.147 2.117-7.667 3.757-12.128 4.4-3.493.588-6.62.688-9.664.604zm16.545-21.46c-3.109-1.041-8.624-1.625-8.624-1.625-.586-.062-2.338-.126-3.075-.174-2.284-.094-6.722.446-10.747.937-1.65.217-4.925.904-5.373.482-.162-.152 3.605-1.616 5.783-2.713 3.9-1.964 8.655-3.275 11.862-3.27 3.026.005 6.518 1.309 8.364 2.95 1.212.935 1.452 1.449 2.012 2.506.218.305.547 1.185.547 1.185zm-30.156-3.022c-5.953-8.347-6.575-14.55-1.853-18.48 3.434-2.858 9.093-4.619 18.887-5.028 4.225-.177 6.035-.093 9.705.723 5.24 1.164 9.653 2.663 12.1 4.984 1.756 1.664 2.247 2.155 2.463 6.165.14 2.624-.616 4.422-1.574 6.855-.297.755-.712 1.713-.782 2.13-.221 1.326-.577 1.502-1.04.502-1.188-2.564-5.435-4.996-12.232-6.54-.516-.118-.904-.162.384-.806 1.91-.956 3.816-1.984 3.028-2.718-1.027-.956-3.894-2.045-6.004-2.28a35.908 35.908 0 0 1-1.55-.209c-1.098-.181-4.815-.18-6.489.002-2.753.373-5.582.966-7.962 1.907-1.266.504-1.776 1.258-1.425 2.106.303.638.85 1.16 1.214 1.653.556.82 2.92 3.18 4.3 4.292.426.343-.073.51-.253.447-.558-.194-1.953.398-4.584 1.697-3.056 1.508-5.132 2.831-5.227 3.354 0 0-.381.458-.816-.295z" fill="#282828" opacity=".75"/>
            <path d="M27.862 286.159c-2.413.125-7.618-.89-10.725-2.092-3.744-1.447-6.964-4.626-7.422-7.49-.413-2.58 3.313-5.364 8.732-6.524.517-.11.55-.092.291.166-.16.16-.988.654-1.84 1.099-.852.445-1.835 1.08-2.183 1.41-.92.827-1.132 2.188-.84 2.734.37.69 2.003 1.7 3.06 2.168 2.612 1.154 8.188 2.193 12.58 2.343 4.888.166 8.602-.472 11.992-2.06 3.51-1.646 5.72-3.49 6.747-5.635.53-1.105.603-1.459.601-2.905-.002-2.036-.383-3.21-1.66-5.12-1.784-2.667-4.722-4.979-7.675-6.04l-1.316-.473 1.937.094c7.207.35 14.137 4.668 15.023 9.584.757 4.203.16 6.705-1 9.087-1.24 2.328-3.046 3.665-4.51 4.65-3.147 2.117-7.667 3.757-12.128 4.4-3.493.588-6.62.688-9.664.604zm16.544-21.46c-3.108-1.041-8.623-1.625-8.623-1.625-.586-.062-2.338-.126-3.076-.174-2.283-.094-6.828.233-10.746.936-1.65.217-4.41.928-4.513.825-.158-.158 2.744-1.959 4.923-3.056 3.9-1.963 8.655-3.274 11.862-3.27 3.026.006 6.731 1.256 8.576 2.897 1.213.936 1.77 2.032 2.33 3.089.217.305.327.786.293.78a27.332 27.332 0 0 1-1.026-.401zm-30.155-3.022c-5.953-8.347-6.575-14.55-1.853-18.48 3.434-2.858 9.093-4.619 18.887-5.028 4.225-.177 6.035-.093 9.705.723 5.24 1.164 9.739 2.835 12.186 5.156 1.756 1.664 2.161 1.982 2.377 5.993.14 2.623-.616 4.422-1.574 6.855-.297.755-.598 1.713-.667 2.13-.222 1.326-.29 1.359-.754.358-1.188-2.564-5.196-4.626-11.994-6.17-.515-.118-.47-.162.818-.806 1.91-.956 2.743-2.21 1.955-2.944-1.027-.957-3.894-2.045-6.005-2.28a35.908 35.908 0 0 1-1.55-.209c-1.097-.182-4.814-.18-6.488.002-2.753.373-5.582.966-7.962 1.906-1.266.505-1.776 1.26-1.425 2.107.303.638.85 1.16 1.214 1.653.556.82 2.92 3.18 4.3 4.292.425.343.626.573.445.51-.557-.193-2.463.467-5.094 1.765-3.056 1.508-5.007 2.766-5.101 3.288-.141.783-.37.65-1.42-.821z" fill="#fabd2f"/>
            <circle cx="32.418" cy="271.482" r="7.276" fill="#b16286"/>
            <path d="M34.554 265.146a6.686 6.686 0 0 0-8.256 3.672 6.686 6.686 0 0 0 3.47 8.797 6.686 6.686 0 0 0 1.342.414 6.686 6.686 0 0 1-.54-.204 6.686 6.686 0 0 1-3.47-8.796 6.686 6.686 0 0 1 7.454-3.883z" fill="#282828" opacity=".75"/>
            <path d="M32.788 263.783c-4.376 0-7.937 3.562-7.937 7.938 0 4.376 3.561 7.937 7.937 7.937s7.938-3.561 7.938-7.937-3.562-7.938-7.938-7.938zm0 1.322c3.661 0 6.616 2.955 6.616 6.616s-2.955 6.615-6.616 6.615-6.613-2.954-6.613-6.615 2.952-6.616 6.613-6.616z" fill="#282828" opacity=".75"/>
            <path d="M32.418 263.545c-4.376 0-7.938 3.561-7.938 7.937s3.562 7.938 7.938 7.938c4.376 0 7.937-3.562 7.937-7.938 0-4.376-3.561-7.937-7.937-7.937zm0 1.322c3.66 0 6.615 2.954 6.615 6.615s-2.954 6.616-6.615 6.616-6.613-2.955-6.613-6.616 2.952-6.615 6.613-6.615z" fill="#fabd2f"/>
        </g>
        <path transform="translate(26.274 -664.776) scale(3.03912)" d="M35.78 280.611l-2.36-5.162-2.246 5.311.745-5.596-4.954 3.16 3.846-4.212-6.573-.144 6.209-1.34-4.656-3.5 5.152 2.056-2.268-5.37 3.467 4.422 1.08-5.564.44 5.415 3.382-4.919-2.022 5.616 4.686-3.066-3.919 4.387 5.317.741-5.386.785 3.723 4.192-4.606-2.945z" fill="#ebdbb2" filter="url(#e)"/>
    </g>
</svg>
