<svg width="16" height="16" version="1.1" xmlns="http://www.w3.org/2000/svg">
  <defs>
    <style id="current-color-scheme" type="text/css">.ColorScheme-Text { color:#ebdbb2; } .ColorScheme-Highlight { color:#458588; } .ColorScheme-NeutralText { color:#fe8019; } .ColorScheme-PositiveText { color:#689d6a; } .ColorScheme-NegativeText { color:#fb4934; }</style>
  </defs>
  <path class="ColorScheme-Text" d="m12.87 2.023-0.362-0.3098c-0.538-0.46-1.215-0.7133-1.906-0.7133-0.9236 0-1.785 0.4335-2.364 1.189l-5.567 7.274c-0.5101 0.666-0.7436 1.502-0.6586 2.356 0.0851 0.852 0.4784 1.618 1.109 2.157l0.3622 0.31c0.5375 0.461 1.214 0.714 1.906 0.714 0.1068 0 0.2149-5e-3 0.3212-0.017 0.8013-0.09 1.523-0.502 2.03-1.157 0.0017-2e-3 0.0026-4e-3 3.756-4.907 0.669-0.8733 0.54-2.159-0.285-2.866l-0.19-0.1618c-0.342-0.2921-0.771-0.4529-1.211-0.4529-0.5863 0-1.133 0.2752-1.5 0.7551l-3.749 4.898c-0.2449 0.321-0.198 0.791 0.1048 1.05 0.1253 0.108 0.2829 0.167 0.4439 0.167 0.2144 0 0.4147-0.101 0.5496-0.277l3.749-4.898c0.0977-0.1284 0.2434-0.2019 0.4003-0.2019 0.1191 0 0.2304 0.0418 0.3234 0.1208l0.189 0.1624c0.107 0.091 0.174 0.2214 0.189 0.3658 0.013 0.1452-0.026 0.287-0.113 0.3999l-3.744 4.892c-0.3092 0.403-0.7695 0.635-1.263 0.635-0.3698 0-0.7318-0.135-1.019-0.381l-0.3622-0.31c-0.3358-0.287-0.5465-0.696-0.5918-1.152-0.0455-0.456 0.0796-0.903 0.3523-1.26l5.568-7.273c0.3094-0.4039 0.7698-0.6356 1.264-0.6356 0.37 0 0.732 0.1354 1.019 0.3811l0.362 0.3098c0.695 0.5952 0.803 1.678 0.24 2.413-0.118 0.1551-0.173 0.3497-0.153 0.5482 0.02 0.1983 0.111 0.3767 0.259 0.5021 0.125 0.1072 0.283 0.1663 0.443 0.1663 0.215 0 0.415-0.1009 0.55-0.2769 0.509-0.6655 0.742-1.502 0.657-2.356-0.086-0.8545-0.479-1.621-1.109-2.159z" fill="currentColor"/>
</svg>
