<svg width="16" height="16" xmlns="http://www.w3.org/2000/svg">
  <defs>
    <style id="current-color-scheme" type="text/css">.ColorScheme-Text { color:#ebdbb2; } .ColorScheme-Highlight { color:#458588; } .ColorScheme-NeutralText { color:#fe8019; } .ColorScheme-PositiveText { color:#689d6a; } .ColorScheme-NegativeText { color:#fb4934; }</style>
  </defs>
  <path class="ColorScheme-Text" d="m8 0-2.5 4h1.5v5h-3v-1.271c0.6177-0.3566 0.9987-1.015 1-1.729 0-1.105-0.8954-2-2-2s-2 0.8954-2 2c5.6e-4 0.714 0.3817 1.373 1 1.73v1.27c0 2 2 2 2 2h3v1.271c-0.6177 0.3566-0.9987 1.015-1 1.729 0 1.105 0.8954 2 2 2s2-0.8954 2-2c-5.6e-4 -0.714-0.3817-1.373-1-1.73v-1.27h3s2 0 2-2v-1s1.125-0.1875 1-1v-2c0.125-1.125-1-1-1-1h-2c-1.062 0-1 1-1 1v2c0 1 1 1 1 1v1h-3v-5h1.5l-2.5-4z" fill="currentColor"/>
</svg>
