<svg width="16" height="16" version="1.1" xmlns="http://www.w3.org/2000/svg">
  <defs>
    <style id="current-color-scheme" type="text/css">.ColorScheme-Text { color:#ebdbb2; } .ColorScheme-Highlight { color:#458588; } .ColorScheme-NeutralText { color:#fe8019; } .ColorScheme-PositiveText { color:#689d6a; } .ColorScheme-NegativeText { color:#fb4934; }</style>
  </defs>
  <path class="ColorScheme-Text" d="m6.252 0.9987-0.1543 1.844c-0.5845 0.2166-1.128 0.531-1.607 0.9297l-1.676-0.7891-1.75 3.031 1.521 1.057c-0.1104 0.6239-0.1106 1.241-0.0039 1.859l-1.518 1.053 1.75 3.031 1.672-0.7871c0.4808 0.397 1.026 0.7094 1.611 0.9238l0.1504 1.85h3.5l0.1543-1.844c0.5845-0.2166 1.128-0.531 1.607-0.9297l1.676 0.7891 1.75-3.031-1.521-1.057c0.1103-0.6238 0.1106-1.241 0.0039-1.859l1.518-1.053-1.75-3.031-1.672 0.7871c-0.4808-0.397-1.026-0.7094-1.611-0.9238l-0.1504-1.85zm1.75 5c1.105 0 2 0.8954 2 2s-0.8954 2-2 2-2-0.8954-2-2 0.8954-2 2-2z" fill="currentColor"/>
</svg>
