<svg width="16" height="16" version="1" xmlns="http://www.w3.org/2000/svg">
  <defs>
    <style id="current-color-scheme" type="text/css">.ColorScheme-Text { color:#ebdbb2; } .ColorScheme-Highlight { color:#458588; } .ColorScheme-NeutralText { color:#fe8019; } .ColorScheme-PositiveText { color:#689d6a; } .ColorScheme-NegativeText { color:#fb4934; }</style>
  </defs>
  <path class="ColorScheme-Text" d="m8 1c-0.14 0-0.2774 0.0124-0.4156 0.0205-0.4121 1.176-0.8312 2.856-1.237 4.005 0.5739 0.0214 1.461 0.1075 1.861 0.6255 0.1881 0.244 0.1723 0.6257 0.0621 0.9228-0.5198 1.456-1.053 2.981-1.569 4.437-0.4564 7e-3 -0.9108-3e-3 -1.367 0-0.0639-1e-3 -0.1249 0.011-0.1863-0.013 0.5815-1.598 1.151-3.282 1.723-4.885-0.2721-0.0039-0.5417 0.0051-0.8151 0-0.0414 0.0877-0.0762 0.1854-0.1077 0.2769-0.5267 1.478-1.058 3.02-1.583 4.499-0.025 0.037-0.0178 0.122-0.0769 0.122-0.4361 2e-3 -0.8724-2e-3 -1.307 0-0.0791-1e-3 -0.1544 8e-3 -0.2308-0.015 1.039-2.878 2.084-6.685 3.126-9.668-2.833 0.8954-4.876 3.535-4.876 6.671 0 3.219 2.153 5.909 5.101 6.733 1.142-3.175 2.458-6.493 3.568-9.606 0.0114-0.0237 0.0201-0.0819 0.0306-0.106v-0.0017c0.7319 0.0077 1.483 0.0141 2.215 0.0154 0.239 0.0052 0.474-0.0267 0.708 0.0461 0.268 0.0728 0.517 0.282 0.598 0.5555 0.061 0.2136 0.015 0.4385-0.062 0.6442-0.466 1.361-0.947 2.74-1.428 4.095-0.121 0.353-0.669 0.571-1.031 0.584-0.571 0.012-1.138 4e-3 -1.709 0.015-0.4743 1.321-1.169 2.616-1.684 3.991 0.2275 0.022 0.4585 0.034 0.6921 0.034 3.878 0 7-3.122 7-7 0-3.878-3.122-7-7-7zm-1.899 13.73c0.1948 0.055 0.3916 0.104 0.593 0.142-0.2005-0.039-0.3986-0.087-0.593-0.142zm-0.2256-13.4c0.2714-0.0858 0.5503-0.1539 0.8356-0.2051-0.2847 0.0527-0.5643 0.1194-0.8356 0.2051zm0.8356-0.2051c0.2843-0.0509 0.5746-0.0852 0.8695-0.1025-0.2949 0.0173-0.5856 0.0501-0.8695 0.1025zm4.365 4.755c-0.023-0.0026-0.046-0.0035-0.069 0.0034v-0.0018c-0.015 0.0039-0.034 0.0182-0.045 0.0308-0.499 1.396-0.9924 2.827-1.492 4.22 0.2748 1e-3 0.556 0.018 0.83 0 0.484-1.407 0.986-2.847 1.476-4.249-0.21-0.0052-0.418 0.0038-0.63 0-0.022 0.0032-0.047-9e-4 -0.07-0.0034zm-4.327 9.005c0.1825 0.033 0.3664 0.064 0.554 0.082-0.1879-0.018-0.3716-0.047-0.554-0.082z" fill="currentColor"/>
</svg>
