<svg width="16" height="16" version="1.1" xmlns="http://www.w3.org/2000/svg">
  <defs>
    <style id="current-color-scheme" type="text/css">.ColorScheme-Text { color:#ebdbb2; } .ColorScheme-Highlight { color:#458588; } .ColorScheme-NeutralText { color:#fe8019; } .ColorScheme-PositiveText { color:#689d6a; } .ColorScheme-NegativeText { color:#fb4934; }</style>
  </defs>
  <path class="ColorScheme-Text" d="m2.75 1c-0.9695 0-1.75 0.7805-1.75 1.75v10.5c0 0.97 0.7805 1.75 1.75 1.75h10.5c0.97 0 1.75-0.78 1.75-1.75v-10.5c0-0.9695-0.78-1.75-1.75-1.75zm4.746 2a0.5 0.5 0 0 1 0.4844 0.3633l1.557 5.445 1.488-4.467a0.5 0.5 0 0 1 0.969 0.0762l0.93 5.582h1.076v1h-1.5a0.5 0.5 0 0 1-0.494-0.418l-0.668-4.012-1.363 4.088a0.5 0.5 0 0 1-0.9551-0.021l-1.459-5.106-1.572 7.078a0.5 0.5 0 0 1-0.9629 0.049l-1.887-5.658h-1.139v-1h1.5a0.5 0.5 0 0 1 0.4746 0.3418l1.43 4.287 1.607-7.236a0.5 0.5 0 0 1 0.4844-0.3926z" fill="currentColor"/>
</svg>
