<svg width="16" height="16" version="1.1" xmlns="http://www.w3.org/2000/svg">
  <defs>
    <style id="current-color-scheme" type="text/css">.ColorScheme-Text { color:#ebdbb2; } .ColorScheme-Highlight { color:#458588; } .ColorScheme-NeutralText { color:#fe8019; } .ColorScheme-PositiveText { color:#689d6a; } .ColorScheme-NegativeText { color:#fb4934; }</style>
  </defs>
  <path class="ColorScheme-Text" d="m4.293 1-1.19 1.191 1.19 1.191 1.19-1.191zm9.331 0.1677a1.262 1.263 0 0 0-1.262 1.263 1.262 1.263 0 0 0 1.262 1.263 1.262 1.263 0 0 0 1.262-1.263 1.262 1.263 0 0 0-1.262-1.263zm-11.11 1.618-1.191 1.191 1.191 1.19 1.189-1.19zm3.568 0-1.19 1.191 1.19 1.19 1.19-1.19zm5.691 0.6085-0.695 0.6956 0.892 0.893 0.695-0.6957c-0.381-0.2004-0.691-0.5111-0.892-0.8929zm-2.767 0.0477-5.077 5.082c0.788 0.3082 1.526 0.7923 2.152 1.419 0.6248 0.6273 1.108 1.364 1.416 2.153l5.077-5.083zm-4.709 1.13-1.19 1.19 1.19 1.19 1.19-1.19zm7.732 4.174-1.19 1.192 1.19 1.19 1.19-1.19zm-10.13 0.2172c-0.1814 0.0042-0.3621 0.0185-0.5406 0.048a0.4206 0.421 0 0 0-0.23 0.7148l5.144 5.15a0.4206 0.421 0 0 0 0.7147-0.231c0.2307-1.428-0.356-2.981-1.5-4.129-1.003-1.003-2.318-1.579-3.588-1.552zm8.346 1.57-1.189 1.19 1.189 1.191 1.19-1.191zm3.57 0-1.191 1.19 1.191 1.191 1.189-1.191zm-1.785 1.786-1.19 1.19 1.19 1.191 1.19-1.191z" fill="currentColor"/>
</svg>
