<svg width="16" height="16" version="1.1" xmlns="http://www.w3.org/2000/svg">
  <defs>
    <style id="current-color-scheme" type="text/css">.ColorScheme-Text { color:#ebdbb2; } .ColorScheme-Highlight { color:#458588; } .ColorScheme-NeutralText { color:#fe8019; } .ColorScheme-PositiveText { color:#689d6a; } .ColorScheme-NegativeText { color:#fb4934; }</style>
  </defs>
  <path class="ColorScheme-NeutralText" d="m2.5 1c-0.28 0-0.5 0.22-0.5 0.5v0.5h-2v12.5c0 0.28 0.22 0.5 0.5 0.5h6c0.28 0 0.5-0.22 0.5-0.5v-12.5h-2v-0.5c0-0.28-0.22-0.5-0.5-0.5z" fill="currentColor" opacity=".3"/>
  <path class="ColorScheme-NeutralText" d="m0 11v3.5c0 0.28 0.22 0.5 0.5 0.5h6c0.28 0 0.5-0.22 0.5-0.5v-3.5z" fill="currentColor"/>
  <path class="ColorScheme-NeutralText" d="m10 2c-0.55 0-1 0.45-1 1v11c0 0.55 0.45 1 1 1h5c0.55 0 1-0.45 1-1v-11c0-0.55-0.45-1-1-1zm0 2h1v1h-1zm2 0h1v1h-1zm2 1h1v7h-1zm-4 1h1v1h-1zm2 0h1v1h-1zm-2 2h1v1h-1zm2 0h1v1h-1zm-2 2h1v1h-1zm2 0h1v1h-1zm-2 2h1v1h-1zm2 0h1v1h-1z" fill="currentColor"/>
</svg>
