<svg width="16" height="16" version="1.1" xmlns="http://www.w3.org/2000/svg">
  <defs>
    <style id="current-color-scheme" type="text/css">.ColorScheme-Text { color:#ebdbb2; } .ColorScheme-Highlight { color:#458588; } .ColorScheme-NeutralText { color:#fe8019; } .ColorScheme-PositiveText { color:#689d6a; } .ColorScheme-NegativeText { color:#fb4934; }</style>
  </defs>
  <path class="ColorScheme-Text" d="m13.746 1.0029-1.5215 1.3223c0.50638 0.7999 0.77527 1.7271 0.77539 2.6738-0.0055 0.94454-0.27837 1.8682-0.78711 2.6641l1.5234 1.3242c0.81794-1.1695 1.2589-2.5611 1.2637-3.9883-3.48e-4 -1.4288-0.43791-2.8232-1.2539-3.9961zm-11.482 0.00781c-0.81794 1.1695-1.2589 2.5611-1.2637 3.9883 0.0048 1.4272 0.44573 2.8188 1.2637 3.9883l1.5234-1.3242c-0.50874-0.79585-0.78164-1.7195-0.78711-2.6641 0.0049-0.94435 0.2771-1.868 0.78516-2.6641zm9.1953 1.9805-1.5684 1.3633c0.07156 0.20739 0.10851 0.42514 0.10938 0.64453-0.0042 0.2172-0.0438 0.43225-0.11719 0.63672l1.5762 1.3711c0.35419-0.60987 0.54084-1.3026 0.54102-2.0078-1.81e-4 -0.70526-0.18683-1.3979-0.54102-2.0078zm-6.9062 0.011719c-0.3563 0.6053-0.54694 1.2937-0.55273 1.9961 1.81e-4 0.70526 0.18683 1.3979 0.54102 2.0078l1.5762-1.3711c-0.073383-0.20447-0.11296-0.41952-0.11719-0.63672 0.0042-0.2172 0.0438-0.43225 0.11719-0.63672zm3.4473 0.99414c-0.5523 0-1 0.4477-1 1 0 0.5523 0.4477 1 1 1 0.5523 0 1-0.4477 1-1 0-0.5523-0.4477-1-1-1zm-0.74024 2.8535-3.2598 8.1465h2c0-1.105 0.8954-2 2-2s2 0.8954 2 2h2l-3.2598-8.1465c-0.4803 0.1962-1.0005 0.1961-1.4805 0z" fill="currentColor"/>
</svg>
