<svg width="16" height="16" version="1.1" xmlns="http://www.w3.org/2000/svg">
  <defs>
    <style id="current-color-scheme" type="text/css">.ColorScheme-Text { color:#ebdbb2; } .ColorScheme-Highlight { color:#458588; } .ColorScheme-NeutralText { color:#fe8019; } .ColorScheme-PositiveText { color:#689d6a; } .ColorScheme-NegativeText { color:#fb4934; }</style>
  </defs>
  <path class="ColorScheme-Text" d="m9.465 1.437c-1.692 0.03183-3.322 0.9224-4.232 2.5l-2.25 3.896-2.732 0.7324-0.25 0.4336 1.732 1 10.39 6 0.25-0.4336-0.7324-2.732 1.25-2.164 1-1.732c0.545-0.943 0.7308-1.984 0.6328-2.986-0.01236 2e-3 -0.02473 0.0039-0.03711 0.0059-0.03701 0.0059-0.07412 0.01112-0.1113 0.01563-0.1034 0.01473-0.2078 0.02734-0.3145 0.02734-0.01187 0-0.02332-0.0018-0.03516-2e-3 -0.0078 6.97e-4 -0.01562 0.0014-0.02343 2e-3 -0.04629-0.0022-0.09253-0.0055-0.1387-0.0098-0.045-3e-3 -0.0903-0.0048-0.1348-0.0098-1.542-0.1411-2.723-1.432-2.727-2.98 4.74e-4 -0.4308 0.09374-0.8565 0.2734-1.248-0.05369-0.02375-0.1236-0.05421-0.125-0.05469-0.5521-0.1861-1.121-0.2704-1.684-0.2598zm-5.4 11.06c0 0.714 0.38 1.375 0.998 1.732 0.6183 0.356 1.38 0.355 1.998-2e-3z" fill="currentColor"/>
  <path class="ColorScheme-Highlight" d="m16 3a2 2 0 0 1-2 2 2 2 0 0 1-2-2 2 2 0 0 1 2-2 2 2 0 0 1 2 2z" fill="currentColor"/>
</svg>
