<svg width="16" height="16" version="1.1" xmlns="http://www.w3.org/2000/svg">
  <defs>
    <style id="current-color-scheme" type="text/css">.ColorScheme-Text { color:#ebdbb2; } .ColorScheme-Highlight { color:#458588; } .ColorScheme-NeutralText { color:#fe8019; } .ColorScheme-PositiveText { color:#689d6a; } .ColorScheme-NegativeText { color:#fb4934; }</style>
  </defs>
  <path class="ColorScheme-Text" d="m8 1c-3.866 0-6.999 3.132-7 6.998-5.233e-4 3.863 3.137 7.002 7 7.002 3.866-4.1e-5 7-3.134 7-7 0-0.8784-0.1617-1.72-0.457-2.494-0.02374-0.06226-0.1062-0.07723-0.1504-0.02734l-1.527 1.391a5 5 0 0 1 0.1348 1.131 5 5 0 0 1-5 5 5 5 0 0 1-5-5 5 5 0 0 1 5-5 5 5 0 0 1 1.664 0.291l1.225-1.557c0.03335-0.04399 0.0178-0.1075-0.03125-0.1328-0.9611-0.4965-1.701-0.6016-2.857-0.6016zm4.176 1c-0.02212 0.00278-0.0441 0.01533-0.05859 0.0332l-5.186 6.389c-0.02273 0.02801-0.06714 0.03268-0.09375 0.007812l-1.852-1.732c-0.03975-0.03716-0.1074-0.02921-0.1367 0.01562l-0.8379 1.279c-0.02091 0.03198-0.01471 0.07507 0.01367 0.1016l3.09 2.883c0.03538 0.03294 0.09184 0.03097 0.125-0.003906l6.738-7.107c0.02585-0.0273 0.02921-0.06715 0.007812-0.09766-0.4713-0.6727-1.065-1.264-1.748-1.75-0.01911-0.01358-0.04039-0.02036-0.0625-0.01758z" fill="currentColor"/>
</svg>
