<svg width="16" height="16" version="1.1" xmlns="http://www.w3.org/2000/svg">
  <defs>
    <style id="current-color-scheme" type="text/css">.ColorScheme-Text { color:#ebdbb2; } .ColorScheme-Highlight { color:#458588; } .ColorScheme-NeutralText { color:#fe8019; } .ColorScheme-PositiveText { color:#689d6a; } .ColorScheme-NegativeText { color:#fb4934; }</style>
  </defs>
  <path class="ColorScheme-Text" d="m5.998 7v4h2v-4zm3 0v4h2v-4zm-2.135-3.157c-0.09125 0.1158-0.09022 0.1158-0.2305 0.08008-0.9185-0.2302-4.003 0.2319-4.153 2.965l-0.01758 0.3477-0.123 0.03516c-0.4303 0.1288-0.9657 0.3801-1.344 0.7578-0.7259 0.6883-0.9963 1.536-0.9929 2.475 0 2.198 1.692 3.282 2.956 3.467 0.1018 0.01488 2.241 0.02673 4.754 0.0293 4.895 4e-3 4.823 6e-3 5.396-0.1523 1.17-0.3228 2.377-1.415 2.736-2.774 0.6768-2.553-1.086-4.03-1.883-4.551 0.1479-3.346-2.298-4.501-3.843-4.508-1.545-0.00672-2.412 0.7731-3.256 1.828zm3.164 0.159c1.94 0.02214 1.956 2.008 1.938 2.434-0.0308 0.7057 0.3129 1.375 0.9043 1.762 2.113 1.406 0.8159 3.741-0.8946 3.789-0.1681 0.0047-5.606 0.03456-8.556-0.0039-1.704-0.02154-1.98-2.377-0.4006-2.825 0.8163-0.2361 1.394-0.9621 1.441-1.811l0.01953-0.3496c0.05061-0.9292 0.8997-1.134 1.744-1.104 1.001 0.22 1.669-0.2176 2.211-1.012 0.4065-0.6052 0.9351-0.8801 1.593-0.8795z" fill="currentColor"/>
</svg>
