<svg width="16" height="16" version="1" xmlns="http://www.w3.org/2000/svg">
  <defs>
    <style id="current-color-scheme" type="text/css">.ColorScheme-Text { color:#ebdbb2; } .ColorScheme-Highlight { color:#458588; } .ColorScheme-NeutralText { color:#fe8019; } .ColorScheme-PositiveText { color:#689d6a; } .ColorScheme-NegativeText { color:#fb4934; }</style>
  </defs>
  <path class="ColorScheme-Text" d="m9.561 1c-1.28 0-2.561-7e-4 -2.561 1.279v6.063c-0.468-0.224-0.9803-0.341-1.5-0.342-1.933 0-3.5 1.567-3.5 3.5s1.567 3.5 3.5 3.5c1.892-2e-3 3.44-1.508 3.494-3.398l5e-3 3e-3c1e-3 -0.034 0-0.07 0-0.105 0.015-2.376 0-2.781 0-5.166 0-3.532 4.36 1.026 5 1.666 0-1.707 0.041-7-4.439-7z" fill="currentColor"/>
</svg>
