<svg width="16" height="16" version="1.1" xmlns="http://www.w3.org/2000/svg">
  <defs>
    <style id="current-color-scheme" type="text/css">.ColorScheme-Text { color:#ebdbb2; } .ColorScheme-Highlight { color:#458588; } .ColorScheme-NeutralText { color:#fe8019; } .ColorScheme-PositiveText { color:#689d6a; } .ColorScheme-NegativeText { color:#fb4934; }</style>
  </defs>
  <path class="ColorScheme-Text" d="m15 8a7 7 0 0 0-7-7 7 7 0 0 0-7 7 7 7 0 0 0 7 7 7 7 0 0 0 7-7zm-2-1e-7a5 5 0 0 1-4.057 4.908 1.5 1.5 0 0 1-1.443 1.092 1.5 1.5 0 0 1-1.496-1.422 5 5 0 0 1-2.586-2.582 1.5 1.5 0 0 1-1.418-1.496 1.5 1.5 0 0 1 1.094-1.443 5 5 0 0 1 4.906-4.057 5 5 0 0 1 0.08594 0.001953 1.5 1.5 0 0 1 1.414-1.002 1.5 1.5 0 0 1 1.5 1.5 1.5 1.5 0 0 1-0.07226 0.4551 5 5 0 0 1 2.072 4.045zm-1 2e-7a4 4 0 0 0-1.674-3.248 1.5 1.5 0 0 1-0.8262 0.248 1.5 1.5 0 0 1-0.06055-0.003906l-0.9512 2.377a1.5 1.5 0 0 1 0.5117 1.127 1.5 1.5 0 0 1-1 1.412v1.176a1.5 1.5 0 0 1 0.8711 0.8105 4 4 0 0 0 3.129-3.898zm-3.488-3.375a1.5 1.5 0 0 1-0.4219-0.6211 4 4 0 0 0-0.08984-0.003906 4 4 0 0 0-3.9 3.127 1.5 1.5 0 0 1 0.8125 0.873h1.176a1.5 1.5 0 0 1 1.412-1 1.5 1.5 0 0 1 0.06055 0.00391l0.9512-2.379zm-1.512 5.287a1.5 1.5 0 0 1-0.9121-0.9121l-1.176 3e-7a1.5 1.5 0 0 1-0.5254 0.7051 4 4 0 0 0 1.906 1.906 1.5 1.5 0 0 1 0.707-0.5234l-1.8e-6 -1.176z" fill="currentColor"/>
</svg>
