<svg width="16" height="16" version="1.1" xmlns="http://www.w3.org/2000/svg">
  <defs>
    <style id="current-color-scheme" type="text/css">.ColorScheme-Text { color:#ebdbb2; } .ColorScheme-Highlight { color:#458588; } .ColorScheme-NeutralText { color:#fe8019; } .ColorScheme-PositiveText { color:#689d6a; } .ColorScheme-NegativeText { color:#fb4934; }</style>
  </defs>
  <path class="ColorScheme-Text" d="m8 1a7 7 0 0 0-7 7 7 7 0 0 0 7 7 7 7 0 0 0 7-7 7 7 0 0 0-7-7zm0.1445 2.998v2e-3h2e-3c1.309 0.048 2.5 0.7374 3.204 1.818l1.388-0.4629-1.57 3.146-3.146-1.574 1.277-0.4257c-0.338-0.294-0.7625-0.487-1.228-0.504-0.742-0.027-1.435 0.3551-1.807 0.9981l-1.732-1c0.7401-1.282 2.134-2.053 3.613-1.998zm-3.312 3.5 3.146 1.574-1.277 0.4257c0.3378 0.294 0.7625 0.485 1.228 0.502 0.742 0.027 1.435-0.355 1.807-0.998l1.733 1c-0.74 1.282-2.134 2.053-3.614 1.998-1.308-0.048-2.5-0.737-3.203-1.818l-1.389 0.463z" fill="currentColor"/>
</svg>
