<svg width="16" height="16" version="1.1" xmlns="http://www.w3.org/2000/svg">
  <defs>
    <style id="current-color-scheme" type="text/css">.ColorScheme-Text { color:#ebdbb2; } .ColorScheme-Highlight { color:#458588; } .ColorScheme-NeutralText { color:#fe8019; } .ColorScheme-PositiveText { color:#689d6a; } .ColorScheme-NegativeText { color:#fb4934; }</style>
  </defs>
  <path class="ColorScheme-Text" d="m9.5859 1c-2.7406 0-4.7617 1.8965-4.7617 1.8965 0.058905-0.04105 0.11137-0.078307 0.16797-0.11719 0.53598-0.3614 2.3843-1.5078 4.2734-1.5078 2.2387 0 3.6392 1.631 3.957 3.0176 0.242 1.056 0.3155 2.3186-0.10938 3.7148 0.47713 0.01761 0.94317 0.14885 1.3594 0.38281 0.57924-2.1338 0.0857-3.9516-0.33008-4.8047-0.55968-1.1482-1.8159-2.582-4.5566-2.582zm-2.1191 0.80273s-2.3768 0.21263-4.8105 3.5273c-2.4337 3.3147-1.6251 8.0368 1.9785 8.6289 1.6024 0.26332 3.1026-0.22073 4.3652-1.0293v-2.2617c-0.26278 0.1207-0.54231 0.23225-0.83984 0.33008-2.8405 0.934-5.595-1.0103-4.9883-4.3516 0.60662-3.3412 4.2949-4.8438 4.2949-4.8438zm5.4453 2.8984s0.01209 0.74964-0.14844 1.6387c-0.23331 0.65741-0.53108 1.3011-0.92383 1.9004 0.31174-0.13019 0.64322-0.20678 0.98047-0.22656 0.48277-1.5049 0.34329-2.5503 0.0918-3.3125zm-3.9121 8.5078c-0.31162 0.1848-0.64748 0.36449-1.0137 0.54102-2.412 1.1627-4.8887 0.1582-4.8887 0.1582 0.13042 0.12331 0.93914 0.84 2.3594 1.0332 0.31023 0.03841 1.3518 0.15779 2.5723-0.11523 0.26014-0.05819 0.59176-0.15038 0.9707-0.29688v-0.5293z" fill="currentColor"/>
  <path class="ColorScheme-Text" fill="currentColor" d="m13 9c-1.108 0-2 0.9111-2 2.0312v0.96875h-1v4h6v-4h-1v-0.96875c0-1.12-0.892-2.0312-2-2.0312zm0 1c0.554 0 1 0.4424 1 1v1h-2v-1c0-0.5576 0.446-1 1-1z" opacity=".3"/>
</svg>
