<svg width="16" height="16" version="1.1" xmlns="http://www.w3.org/2000/svg">
  <defs>
    <style id="current-color-scheme" type="text/css">.ColorScheme-Text { color:#ebdbb2; } .ColorScheme-Highlight { color:#458588; } .ColorScheme-NeutralText { color:#fe8019; } .ColorScheme-PositiveText { color:#689d6a; } .ColorScheme-NegativeText { color:#fb4934; }</style>
  </defs>
  <path class="ColorScheme-Text" d="m8.141 1.002c-2.2-0.04308-4.349 0.9555-5.727 2.777-1.837 2.429-1.89 5.778-0.1309 8.264 1.759 2.486 4.936 3.55 7.838 2.627 2.902-0.9234 4.878-3.627 4.877-6.672 0-0.5523-0.4477-1-1-1s-1 0.4477-1 1c8.26e-4 2.182-1.405 4.104-3.484 4.766-2.079 0.6616-4.337-0.09364-5.598-1.875-1.26-1.781-1.222-4.164 0.09375-5.904s3.597-2.426 5.654-1.699c0.5204 0.1836 1.091-0.08912 1.275-0.6094 0.1836-0.5204-0.08912-1.091-0.6094-1.275-0.7178-0.2537-1.456-0.3841-2.189-0.3984zm5.865 1.145c-0.2938-0.0011-0.5732 0.1275-0.7637 0.3516l-5.408 6.186-1.729-1.154c-1.115-0.7859-2.261 0.9327-1.107 1.662l2.459 1.641c0.4169 0.2784 0.975 0.204 1.305-0.1738l5.98-6.846c0.5737-0.6411 0.1233-1.66-0.7363-1.666z" fill="currentColor"/>
</svg>
