<svg width="16" height="16" version="1.1" xmlns="http://www.w3.org/2000/svg">
  <defs>
    <style id="current-color-scheme" type="text/css">.ColorScheme-Text { color:#ebdbb2; } .ColorScheme-Highlight { color:#458588; } .ColorScheme-NeutralText { color:#fe8019; } .ColorScheme-PositiveText { color:#689d6a; } .ColorScheme-NegativeText { color:#fb4934; }</style>
  </defs>
  <path class="ColorScheme-NegativeText" d="m6 3c-2.209 0-4 1.791-4 4 7.207e-4 0.05734 0.00267 0.1146 0.00586 0.1719-1.201 0.4217-2.005 1.555-2.006 2.828 0 1.657 1.343 3 3 3h10c1.657 0 3-1.343 3-3-0.0017-1.274-0.8071-2.408-2.01-2.828 0.0049-0.0572 0.0082-0.1145 0.0098-0.1719 0-1.657-1.343-3-3-3-0.6501 0.0014-1.282 0.2138-1.801 0.6055-0.7542-1.009-1.94-1.604-3.199-1.605zm0.3223 2.492 1.678 1.678 1.678-1.678 1.322 1.324-1.678 1.676 1.678 1.678-1.322 1.322-1.678-1.676-1.678 1.676-1.322-1.322 1.678-1.678-1.678-1.676z" fill="currentColor"/>
</svg>
