<svg width="16" height="16" version="1.1" xmlns="http://www.w3.org/2000/svg">
  <defs>
    <style id="current-color-scheme" type="text/css">.ColorScheme-Text { color:#ebdbb2; } .ColorScheme-Highlight { color:#458588; } .ColorScheme-NeutralText { color:#fe8019; } .ColorScheme-PositiveText { color:#689d6a; } .ColorScheme-NegativeText { color:#fb4934; }</style>
  </defs>
  <path class="ColorScheme-Text" d="m3.5351 0.99612c-0.32715-7.79e-4 -0.58064 0.14176-0.58008 0.14648-0.3253 0.1808-1.1579 0.85085-1.4199 1.1895-0.4379 0.5458-0.66204 1.1078-0.46094 1.7578 0.1949 0.5589 0.64744 3.2219 4.0566 6.6309 3.185 3.185 6.1793 3.991 6.7812 4.207 0.7618 0.2538 1.3775-0.18362 1.8145-0.48242 0.4588-0.3727 0.79529-0.9352 1.1172-1.4082 0.2962-0.5011 0.15039-1.0478-0.25391-1.3848-0.7511-0.6875-1.5639-1.2676-2.4629-1.7656-0.631-0.3541-1.291-0.14788-1.582 0.22851l-0.50977 0.63867c-0.2054 0.2589-0.61595 0.23302-0.62695 0.23242-3.455-0.8888-4.3856-4.3607-4.3926-4.3867-5.77e-4 -0.01099-0.026568-0.42196 0.23242-0.63086l0.63477-0.50977c0.3773-0.2888 0.59017-0.94863 0.23438-1.582-0.7687-1.357-1.7585-2.4724-1.7695-2.4844-0.25961-0.30848-0.55805-0.39588-0.8125-0.39648zm4.4629 0.0059c-0.2769-9.81e-4 -0.50185 0.2231-0.50195 0.5 9.79e-5 0.2769 0.22505 0.501 0.50195 0.5 3.319 2.15e-4 5.998 2.681 5.998 6.002 9.9e-5 0.2761 0.2239 0.4999 0.5 0.5 0.2761-1e-4 0.4999-0.2239 0.5-0.5-1.7e-5 -3.861-3.1381-7.002-6.998-7.002zm0.42773 2.0645c-0.21438 0.03277-0.38319 0.2-0.41797 0.41406-0.043309 0.27294 0.14302 0.52926 0.41602 0.57226 1.8146 0.2911 3.2334 1.7125 3.5234 3.5273 0.04396 0.2722 0.29997 0.45744 0.57226 0.41406 0.2722-0.04396 0.45744-0.29997 0.41406-0.57226-0.35764-2.2375-2.1143-3.9966-4.3516-4.3555-0.051761-0.0082-0.10449-0.0082-0.15625 0zm0.53906 2.1953c-0.20201 0.01537-0.37477 0.15112-0.4375 0.34375-0.085929 0.26267 0.05754 0.54524 0.32031 0.63086 0.41269 0.13569 0.72391 0.47231 0.82617 0.89453 0.0646 0.26868 0.3349 0.43401 0.60352 0.36914 0.26868-0.0646 0.43401-0.3349 0.36914-0.60352-0.18338-0.75713-0.74628-1.368-1.4863-1.6113-0.06291-0.02067-0.1293-0.02864-0.19531-0.02344z" fill="currentColor"/>
</svg>
