<svg width="16" height="16" version="1.1" xmlns="http://www.w3.org/2000/svg">
  <defs>
    <style id="current-color-scheme" type="text/css">.ColorScheme-Text { color:#ebdbb2; } .ColorScheme-Highlight { color:#458588; } .ColorScheme-NeutralText { color:#fe8019; } .ColorScheme-PositiveText { color:#689d6a; } .ColorScheme-NegativeText { color:#fb4934; }</style>
  </defs>
  <path class="ColorScheme-Text" d="m8 1c-3.866 0-7 3.134-7 7 0.01429 1.305 0.4561 2.551 0.6953 3.139 0.2588-0.09001 0.5307-0.1369 0.8047-0.1387 1.381 0 2.5 1.119 2.5 2.5-5.09e-4 0.3529-0.07573 0.7017-0.2207 1.023 0.394-0.03847 0.675 0.03474 1.279 0.2246 0.6382 0.2006 1.882 0.2498 1.941 0.252 3.866 0 7-3.134 7-7s-3.134-7-7-7zm-4.5 5.5c0.8284 0 1.5 0.6716 1.5 1.5 0 0.8284-0.6716 1.5-1.5 1.5s-1.5-0.6716-1.5-1.5c0-0.8284 0.6716-1.5 1.5-1.5zm4.5 0c0.8284 0 1.5 0.6716 1.5 1.5 0 0.8284-0.6716 1.5-1.5 1.5s-1.5-0.6716-1.5-1.5c0-0.8284 0.6716-1.5 1.5-1.5zm4.5 0c0.8284 0 1.5 0.6716 1.5 1.5 0 0.8284-0.6716 1.5-1.5 1.5s-1.5-0.6716-1.5-1.5c0-0.8284 0.6716-1.5 1.5-1.5z" fill="currentColor"/>
  <circle class="ColorScheme-Highlight" cx="2.5" cy="13.5" r="1.5" color="#458588" fill="currentColor"/>
</svg>
