<svg width="16" height="16" version="1.1" xmlns="http://www.w3.org/2000/svg">
  <defs>
    <style id="current-color-scheme" type="text/css">.ColorScheme-Text { color:#ebdbb2; } .ColorScheme-Highlight { color:#458588; } .ColorScheme-NeutralText { color:#fe8019; } .ColorScheme-PositiveText { color:#689d6a; } .ColorScheme-NegativeText { color:#fb4934; }</style>
  </defs>
  <path class="ColorScheme-Text" d="m8 1c-2.209 0-4 1.791-4 4s1.791 4 4 4c2.209 0 4-1.791 4-4s-1.791-4-4-4zm-1 2h2v1h1v2h-1v1h-2v-1h-1v-2h1zm4.494 6.994c-0.449 1e-4 -0.67 0.5469-0.348 0.8599l1.647 1.646-1.647 1.646c-0.49 0.472 0.236 1.198 0.708 0.708l1.646-1.647 1.646 1.647c0.472 0.49 1.198-0.236 0.708-0.708l-1.647-1.646 1.647-1.646c0.325-0.318 0.091-0.8704-0.364-0.8579-0.13 0.0036-0.253 0.0579-0.344 0.1499l-1.646 1.647-1.646-1.647c-0.095-0.097-0.224-0.1519-0.36-0.1519zm-3.494 0.0059c-8 4e-3 -7 5-7 5h9.074c-0.047-0.132-0.0819-0.271-0.0896-0.424-0.0208-0.407 0.1646-0.858 0.4686-1.15l0.926-0.926-0.928-0.928c-0.396-0.383-0.5104-0.952-0.396-1.435-0.6242-0.082-1.293-0.1374-2.055-0.137z" fill="currentColor"/>
</svg>
