<svg width="16" height="16" version="1.1" xmlns="http://www.w3.org/2000/svg">
  <defs>
    <style id="current-color-scheme" type="text/css">.ColorScheme-Text { color:#ebdbb2; } .ColorScheme-Highlight { color:#458588; } .ColorScheme-NeutralText { color:#fe8019; } .ColorScheme-PositiveText { color:#689d6a; } .ColorScheme-NegativeText { color:#fb4934; }</style>
  </defs>
  <path class="ColorScheme-Text" d="m7.992 2c-2.715-8.6e-4 -5.429 0.1098-6.254 0.3242 0-0.0033-1.097 0.2792-1.412 1.424-0.4302 1.656-0.4278 6.884 0 8.504 0.1878 0.6819 0.7304 1.226 1.412 1.414 1.004 0.2666 4.655 0.3714 7.801 0.3223-0.3502-0.6043-0.536-1.29-0.5391-1.988 0-2.209 1.791-4 4-4 1.134 6.66e-4 2.215 0.4829 2.973 1.326 0.07397-2.085-0.02351-4.544-0.3086-5.578-0.1779-0.6819-0.721-1.226-1.402-1.404-0.8364-0.2305-3.554-0.3428-6.27-0.3438zm-1.992 2.998 5.197 3-5.197 3zm7 4.004c-0.7681-6.25e-4 -1.537 0.291-2.123 0.877-1.171 1.171-1.167 3.075 0 4.242 1.167 1.167 3.07 1.172 4.242 0 0.5855-0.5855 0.8775-1.355 0.877-2.123-4.99e-4 -0.7685-0.2935-1.536-0.877-2.119-0.5835-0.5835-1.351-0.8763-2.119-0.877zm-2e-3 0.998c0.5117 0 1.024 0.1955 1.414 0.5859l-0.707 0.709c-0.3905-0.3904-1.024-0.3904-1.414 0l-0.707-0.709c0.3905-0.3904 0.9023-0.5859 1.414-0.5859zm-0.707 2.707c0.3905 0.3904 1.024 0.3904 1.414 0l0.707 0.707c-0.781 0.7808-2.047 0.7808-2.828 0z" fill="currentColor"/>
</svg>
