<svg xmlns="http://www.w3.org/2000/svg" width="16" height="16" version="1.1">
    <defs>
        <style id="current-color-scheme" type="text/css">
            .ColorScheme-Text {
                color: #ebdbb2;
            }

            .ColorScheme-Highlight {
                color: #458588;
            }
        </style>
    </defs>
    <path style="fill:currentColor" class="ColorScheme-Text"
        d="M 8.1074219,2 C 6.2376219,2.0004 3.4791438,2.1237438 2.6523438,2.1523438 1.7535435,2.2383437 1.4219406,2.286375 0.93164062,2.734375 0.17682062,3.444975 0,4.8425687 0,6.9804688 v 2.0332031 c 5.33e-8,2.4374001 0.30353375,3.6769061 0.80859375,4.1289061 0.57708005,0.529 0.95782375,0.569813 1.33984375,0.632813 0.1489,0.023 1.207325,0.224609 5.890625,0.224609 1.1080174,0 2.0268335,-0.03022 2.9160155,-0.05859 l -0.255859,-0.341797 -1.5000002,-2 C 8.7053066,10.940114 9.1760567,9.9997625 10,10 h 1 V 8 L 6.0000007,11.999999 V 3.9999998 L 11,8 V 7.8808594 C 11,7.4741235 11.087065,7.093101 11.300781,6.7402344 11.514497,6.3873677 11.942765,6 12.533203,6 h 0.933594 c 0.590438,0 1.018706,0.3873677 1.232422,0.7402344 C 14.912935,7.093101 15,7.4741235 15,7.8808594 V 10 h 0.976562 C 15.987478,9.6868277 16,9.3774525 16,9.0253906 V 6.6582031 c 0,-1.2653 -0.06473,-3.0508812 -0.802734,-3.8007812 -0.56,-0.5053 -0.763922,-0.6463844 -1.919922,-0.7089844 C 12.951344,2.1330375 10.100122,1.99966 8.1074219,2 Z M 12.533203,7 C 12.238203,7 12,7.3918594 12,7.8808594 V 11 h -2 l 1.5,2 1.5,2 1.5,-2 1.5,-2 H 14 V 7.8808594 C 14,7.3918594 13.761797,7 13.466797,7 Z" />
</svg>