<svg xmlns="http://www.w3.org/2000/svg" width="16" height="16" version="1.1">
   <defs>
      <style id="current-color-scheme" type="text/css">
         .ColorScheme-Text {
            color: #ebdbb2;
         }

         .ColorScheme-Highlight {
            color: #458588;
         }
      </style>
   </defs>
   <path style="fill:currentColor" class="ColorScheme-Text"
      d="M 8.1074219,2 C 6.2376219,2.0004 3.4791438,2.1237438 2.6523438,2.1523438 1.7535436,2.2383437 1.4219406,2.286375 0.93164062,2.734375 0.17682062,3.444975 0,4.8425687 0,6.9804688 v 2.0332031 c 5.33e-8,2.4374001 0.30353375,3.6769061 0.80859375,4.1289061 0.57708005,0.529 0.95782375,0.569813 1.33984375,0.632813 0.1489,0.023 1.207325,0.224609 5.890625,0.224609 0.5647654,0 0.9656111,-0.02009 1.4863281,-0.0293 C 9.1829174,13.370236 9.0019031,12.691264 9,12 9,9.790861 10.790861,8 13,8 14.145162,8.002053 15.234525,8.4948264 15.992188,9.3535156 15.993246,9.2394246 16,9.1439198 16,9.0253906 V 6.6582031 c 0,-1.2653 -0.06473,-3.0508812 -0.802734,-3.8007812 -0.56,-0.5053 -0.763922,-0.6463844 -1.919922,-0.7089844 C 12.951344,2.1330375 10.100122,1.99966 8.1074219,2 Z M 5.9999998,3.9999998 11,8 5.9999998,11.999999 Z" />
   <path style="fill:currentColor" class="ColorScheme-Text"
      d="M 13 9 C 11.343249 9 10 10.35 10 12 C 10 13.65 11.343249 15 13 15 C 14.65675 15 16 13.65 16 12 C 16 10.35 14.65675 9 13 9 z M 13 10 A 2 2 0 0 1 15 12 L 14 12 A 1 1 0 0 0 13 11 L 13 10 z M 11 12 L 12 12 A 1 1 0 0 0 13 13 L 13 14 A 2 2 0 0 1 11 12 z" />
</svg>