<svg width="16" height="16" version="1.1" xmlns="http://www.w3.org/2000/svg">
  <defs>
    <style id="current-color-scheme" type="text/css">.ColorScheme-Text { color:#ebdbb2; } .ColorScheme-Highlight { color:#458588; }</style>
  </defs>
  <path class="ColorScheme-Text" d="m7.288 0.9999c-0.3955 0.0037-1.098 1.21-1.469 1.898-0.2283 0.04941-0.4519 0.1135-0.6699 0.1875-0.6833-0.4483-2.054-1.307-2.316-1.158-0.3056 0.1737-0.1864 2.601-0.1777 2.768-0.8513 0.9086-1.429 2.076-1.6 3.375-0.1058 0.6657-0.04156 1.218 0.07227 1.891 0.4368 1.426 1.575 1.6 1.699 1.775 0 0 0.5529 3.289 1.564 3.264 0.7654-0.01886 1.365-1.781 2.338-1.75 0.9723 0.03057 1.367 1.74 2.334 1.75 0.5588 0.0059 1.047-0.9702 1.354-1.75h0.2891c0.92 0.8564 3.012 1.425 3.918 1.721 0.07852 0.02859 0.07227-0.04492 0.07227-0.04492-0.0077-0.1186-0.04118-0.2391-0.1172-0.4258 0.1907-0.3058 0.5079-0.8584 0.3965-1.049-0.09152-0.156-0.669-0.1795-1.053-0.1797-0.06009-0.09958-0.1222-0.2008-0.1855-0.3027 0.1932-0.3734 0.4743-0.9804 0.3594-1.176-0.1183-0.2017-0.8654-0.2644-1.295-0.2852-0.03337-0.04465-0.06405-0.09676-0.0957-0.1445 0.04837-0.1092 1.388-1.004 1.447-1.348 0.04911-0.2814-0.9082-1.131-0.9082-1.141 0-0.3778-0.03608-0.7465-0.1016-1.105 0.432-0.7637 1.062-1.928 0.9766-2.131-0.1117-0.2648-1.234-0.2905-1.984-0.2773-0.1006-0.1433-0.2062-0.2841-0.3184-0.418 0.2274-0.692 0.6135-1.998 0.3555-2.162-0.03704-0.02344-0.1165-0.0304-0.2285-0.02734v2e-3c-0.5276 0.01442-1.737 0.2812-2.486 0.457h-0.00195c-0.2723-0.09892-0.5487-0.186-0.8242-0.2754-0.311-0.6783-0.9414-1.934-1.342-1.938zm-3.288 5h1v1h-1z" fill="currentColor"/>
</svg>
