<svg width="16" height="16" style="isolation:isolate" version="1.1" viewBox="0 0 16 16" xmlns="http://www.w3.org/2000/svg">
 <defs>
  <style type="text/css">.ColorScheme-Text { color:#ebdbb2; } .ColorScheme-Highlight { color:#458588; }</style>
  <clipPath id="clipPath20">
   <path d="M 0,790.89 H 900 V 0 H 0 Z"/>
  </clipPath>
 </defs>
 <g transform="matrix(.028407 0 0 -.028407 -4.8183 19.23)" style="isolation:isolate">
  <g fill="#ebdbb2">
   <g clip-path="url(#clipPath20)">
    <g transform="translate(649.84,676.94)" fill="#ebdbb2">
     <path d="m0 0h-397.22c-32.196 0-44.078-11.882-44.078-44.093v-388.68c0-3.645 0.147-7.031 0.469-10.168 0.733-7.031 0.871-13.844 7.41-21.601 0.639-0.76 7.315-5.728 7.315-5.728 3.591-1.761 6.043-3.058 10.093-4.688l195.6-81.948c10.154-4.655 14.4-6.469 21.775-6.323v-1e-3h0.058v1e-3c7.375-0.146 11.621 1.668 21.776 6.323l195.6 81.948c4.051 1.63 6.502 2.927 10.094 4.688 0 0 6.676 4.968 7.314 5.728 6.539 7.757 6.677 14.57 7.41 21.601 0.322 3.137 0.47 6.523 0.47 10.168v388.68c0 32.211-11.883 44.093-44.078 44.093" fill="#ebdbb2" fill-rule="evenodd"/>
    </g>
    <g transform="translate(623.23,286.18)" fill="#ebdbb2">
     <path d="m0 0-0.09-0.897-0.089-0.985-0.18-0.897-0.268-0.896-0.174-0.807-0.27-0.897-0.358-0.807-0.359-0.718-0.353-0.806-0.448-0.717-0.448-0.718-0.533-0.717-0.449-0.717-0.532-0.627-0.628-0.628-0.533-0.538-0.716-0.628-0.623-0.538-0.717-0.538-0.712-0.442-0.712-0.538-0.807-0.448-0.802-0.359-0.801-0.448-0.897-0.359-0.891-0.359-0.891-0.268-0.891-0.27-0.807-0.268-0.891-0.18-0.802-0.179-0.801-0.179-0.897-0.18-0.892-0.089-0.801-0.09-0.897-0.09-0.98-0.09-0.892-0.089h-3.749l-0.892 0.089h-0.98l-0.892 0.09-0.896 0.09-0.981 0.09-0.891 0.179-0.891 0.09-0.897 0.179-0.892 0.179-0.891 0.18-0.891 0.179-0.896 0.268-0.802 0.18-0.891 0.269-0.892 0.269-0.806 0.359-0.891 0.269-0.802 0.268-0.892 0.359-0.806 0.359-0.802 0.359-0.802 0.442-0.806 0.359-0.802 0.449-0.712 0.447-0.807 0.449-0.712 0.448-0.717 0.448-1.424 1.076-0.717 0.538-0.713 0.538-0.627 0.538-0.712 0.627 0.538 0.717 0.622 0.628 0.538 0.718 0.623 0.717 0.538 0.627 0.532 0.717 0.628 0.718 0.532 0.627 0.628 0.717 0.533 0.628 0.627 0.717 0.533 0.718 0.538 0.627 0.622 0.717 0.538 0.718 0.622 0.627 0.538 0.717 0.712-0.538 0.802-0.538 0.717-0.538 0.802-0.538 0.717-0.448 0.802-0.537 0.711-0.449 0.808-0.358 0.711-0.449 0.802-0.359 0.807-0.358 0.801-0.359 0.803-0.269 0.806-0.358 0.891-0.269 0.892-0.269 0.801-0.269 0.897-0.18 1.782-0.358 0.981-0.09 0.896-0.179h0.892l0.98-0.089h1.962l0.981 0.089 0.897 0.179 0.801 0.18 0.802 0.179 0.717 0.269 0.623 0.358 0.717 0.538 0.532 0.628 0.359 0.718 0.27 0.806 0.088 0.897v0.179l-0.088 1.076-0.359 0.897-0.449 0.627-0.622 0.538-0.718 0.538-0.712 0.358-0.801 0.359-0.897 0.359-1.07 0.447-0.623 0.18-0.711 0.179-0.807 0.27-0.802 0.179-0.891 0.269-0.897 0.179-0.98 0.269-0.892 0.179-0.981 0.269-0.891 0.179-0.897 0.269-0.89 0.18-0.892 0.269-0.807 0.268-0.89 0.18-0.803 0.269-0.801 0.269-0.807 0.269-0.981 0.359-0.891 0.359-0.892 0.358-0.896 0.359-0.801 0.448-0.892 0.448-0.717 0.448-0.802 0.448-0.712 0.538-0.717 0.448-0.622 0.539-0.627 0.627-0.623 0.628-0.538 0.628-0.532 0.627-0.449 0.627-0.443 0.718-0.448 0.806-0.359 0.622-0.269 0.718-0.263 0.807-0.269 0.717-0.18 0.897-0.179 0.807-0.09 0.896-0.089 0.897-0.09 0.985v2.063l0.09 0.896 0.089 0.807 0.09 0.897 0.179 0.806 0.18 0.807 0.269 0.808 0.179 0.806 0.353 0.807 0.359 0.807 0.358 0.806 0.444 0.808 0.447 0.806 0.533 0.718 0.539 0.717 0.622 0.717 0.627 0.627 0.623 0.718 0.717 0.628 0.622 0.448 0.717 0.538 0.713 0.538 0.711 0.448 0.807 0.448 0.802 0.359 0.801 0.448 0.807 0.358 0.891 0.27 0.891 0.358 0.807 0.269 0.712 0.18 0.803 0.179 0.806 0.179 0.891 0.179 0.802 0.18 0.891 0.089 0.897 0.09 0.891 0.09 0.891 0.089h3.839l0.981-0.089 0.981-0.09h0.891l0.986-0.09 0.891-0.179 0.981-0.09 0.892-0.179 0.807-0.179 0.891-0.179 0.891-0.18 0.802-0.179 0.896-0.269 0.802-0.269 0.802-0.18 0.896-0.358 0.802-0.269 0.801-0.358 0.802-0.359 0.896-0.359 0.802-0.448 0.712-0.359 0.807-0.448 0.802-0.448 0.712-0.449 0.806-0.538 0.713-0.447 0.717-0.539 0.712-0.538 0.711-0.537-0.532-0.718-0.448-0.717-0.533-0.717-0.538-0.718-0.532-0.806-0.449-0.717-0.538-0.718-0.533-0.717-0.447-0.717-0.534-0.718-0.537-0.717-0.449-0.717-0.532-0.807-0.539-0.717-0.532-0.717-0.448-0.717-0.533-0.717-0.717 0.537-0.801 0.449-0.713 0.448-0.717 0.538-0.801 0.358-0.718 0.449-0.801 0.359-0.712 0.358-0.807 0.359-0.712 0.358-0.801 0.269-0.717 0.359-0.982 0.268-0.891 0.27-0.891 0.268-0.897 0.18-0.891 0.179-0.891 0.18-0.891 0.09-0.897 0.089-0.801 0.09h-1.962l-0.981-0.179-0.897-0.18-0.801-0.179-0.712-0.359-0.628-0.358-0.802-0.718-0.538-0.807-0.352-0.807-0.091-0.896v-0.18l0.091-1.165 0.442-0.986 0.359-0.538 0.622-0.628 0.807-0.448 0.712-0.448 0.891-0.359 0.986-0.359 1.071-0.358 0.712-0.179 0.712-0.269 0.807-0.179 0.801-0.269 0.891-0.18 0.987-0.269 0.981-0.268 0.981-0.27 0.98-0.179 0.891-0.269 0.981-0.269 0.897-0.179 0.892-0.269 0.891-0.269 0.801-0.269 0.897-0.269 0.802-0.269 0.801-0.269 0.986-0.353 0.891-0.449 0.891-0.358 0.892-0.448 0.807-0.449 0.802-0.448 0.711-0.448 0.717-0.538 0.713-0.448 0.712-0.628 0.717-0.627 0.622-0.718 0.627-0.627 0.533-0.718 0.538-0.806 0.443-0.717 0.449-0.808 0.358-0.717 0.269-0.806 0.264-0.807 0.179-0.807 0.358-1.794 0.09-0.896 0.09-0.986v-2.152zm-62.594-17.926h-51.143v65.258h51.587v-14.794h-34.543v-10.668h31.062v-13.891h-31.062v-11.116h34.991v-14.789zm-65.214 0h-16.333v38.589l-0.447-0.717-0.533-0.813-0.449-0.717-0.532-0.718-0.448-0.806-0.539-0.718-0.442-0.717-0.449-0.812-0.532-0.717-0.449-0.717-0.537-0.718-0.443-0.812-0.538-0.717-0.443-0.717-0.449-0.807-0.538-0.722-0.443-0.718-0.538-0.806-0.442-0.718-0.538-0.717-0.443-0.812-0.449-0.718-0.537-0.717-0.443-0.807-0.538-0.722-0.443-0.717-0.538-0.718-0.449-0.806-0.443-0.722-0.537-0.718-0.443-0.807-0.538-0.717-0.448-0.717-0.533-0.813-0.448-0.717h-0.354l-0.537 0.807-0.449 0.723-0.533 0.807-0.448 0.717-0.533 0.806-0.448 0.723-0.532 0.807-0.449 0.718-0.538 0.806-0.443 0.717-0.538 0.813-0.442 0.717-0.538 0.807-0.449 0.717-0.532 0.812-0.449 0.717-0.532 0.807-0.538 0.717-0.448 0.812-0.533 0.717-0.448 0.807-0.533 0.717-0.448 0.813-0.533 0.717-0.448 0.807-0.538 0.717-0.443 0.807-0.538 0.723-0.443 0.806-0.538 0.718-0.448 0.807-0.532 0.716-0.45 0.813-0.532 0.717v-38.409h-16.96v65.258h18.3l0.443-0.718 0.448-0.806 0.532-0.712 0.449-0.807 0.448-0.717 0.443-0.808 0.448-0.711 0.534-0.808 0.447-0.717 0.449-0.717 0.443-0.801 0.448-0.718 0.533-0.806 0.448-0.718 0.448-0.801 0.443-0.717 0.538-0.717 0.449-0.803 0.442-0.716 0.448-0.807 0.444-0.718 0.538-0.801 0.448-0.718 0.442-0.806 0.449-0.712 0.443-0.717 0.538-0.807 0.448-0.718 0.443-0.807 0.448-0.712 0.443-0.807 0.539-0.717 0.448-0.801 0.443-0.718 0.448 0.718 0.448 0.801 0.533 0.717 0.447 0.807 0.444 0.712 0.448 0.807 0.533 0.718 0.448 0.807 0.449 0.717 0.442 0.712 0.538 0.806 0.443 0.718 0.449 0.801 0.447 0.718 0.533 0.807 0.448 0.716 0.449 0.803 0.442 0.717 0.45 0.717 0.532 0.801 0.448 0.718 0.448 0.806 0.444 0.718 0.537 0.801 0.444 0.717 0.447 0.717 0.449 0.808 0.532 0.711 0.449 0.808 0.442 0.717 0.449 0.807 0.538 0.712 0.443 0.806 0.448 0.718h18.294v-65.258zm-103.56 26.891-0.269 0.812-0.353 0.897-0.359 0.807-0.269 0.812-0.353 0.807-0.358 0.897-0.27 0.812-0.359 0.807-0.352 0.806-0.27 0.812-0.359 0.897-0.263 0.807-0.359 0.812-0.359 0.807-0.268 0.807-0.354 0.901-0.358 0.808-0.269 0.806-0.359 0.812-0.353 0.897-0.269 0.812-0.359 0.807-0.353-0.807-0.268-0.812-0.359-0.897-0.359-0.812-0.264-0.806-0.358-0.808-0.359-0.901-0.353-0.807-0.27-0.807-0.358-0.812-0.359-0.807-0.264-0.897-0.358-0.812-0.359-0.806-0.268-0.807-0.354-0.812-0.359-0.897-0.358-0.807-0.263-0.812-0.359-0.807-0.359-0.897-0.269-0.812-0.353-0.807h15.082zm28.03-26.891h-17.498l-0.354 0.808-0.269 0.807-0.358 0.807-0.359 0.896-0.264 0.802-0.358 0.806-0.359 0.807-0.264 0.807-0.358 0.807-0.359 0.807-0.268 0.807-0.354 0.896-0.359 0.807-0.269 0.807-0.359 0.807h-25.614l-0.353-0.807-0.269-0.807-0.359-0.807-0.358-0.896-0.264-0.807-0.358-0.807-0.359-0.807-0.269-0.807-0.353-0.807-0.359-0.806-0.269-0.802-0.354-0.896-0.358-0.807-0.269-0.807-0.359-0.808h-18.025l0.353 0.808 0.359 0.807 0.358 0.807 0.354 0.896 0.269 0.802 0.359 0.806 0.358 0.807 0.353 0.807 0.359 0.807 0.359 0.897 0.353 0.807 0.359 0.806 0.268 0.807 0.359 0.807 0.353 0.807 0.359 0.896 0.358 0.807 0.354 0.808 0.359 0.806 0.358 0.807 0.269 0.807 0.353 0.897 0.359 0.806 0.359 0.807 0.353 0.807 0.718 1.614 0.353 0.897 0.269 0.806 0.359 0.807 0.358 0.807 0.354 0.807 0.358 0.807 0.358 0.896 0.354 0.807 0.358 0.807 0.269 0.807 0.359 0.806 0.353 0.807 0.359 0.897 0.359 0.807 0.353 0.807 0.358 0.807 0.359 0.806 0.269 0.808 0.354 0.801 0.358 0.897 0.358 0.806 0.354 0.808 0.358 0.807 0.359 0.806 0.353 0.807 0.269 0.897 0.359 0.806 0.358 0.807 0.354 0.807 0.359 0.807 0.358 0.807 0.354 0.897 0.358 0.806 0.269 0.807 0.358 0.807 0.354 0.807 0.358 0.807 0.359 0.896 0.353 0.807 0.718 1.614 0.263 0.806 0.359 0.808 0.359 0.896 0.359 0.807 0.353 0.807 0.359 0.807 0.358 0.807 0.353 0.806 0.27 0.897 0.358 0.807 0.359 0.807 0.353 0.807h16.512l0.358-0.807 0.359-0.807 0.354-0.807 0.358-0.897 0.269-0.806 0.353-0.807 0.359-0.807 0.358-0.807 0.359-0.807 0.353-0.896 0.359-0.808 0.359-0.806 0.263-0.807 0.718-1.614 0.359-0.896 0.353-0.807 0.358-0.807 0.359-0.807 0.353-0.807 0.269-0.806 0.358-0.897 0.354-0.807 0.359-0.807 0.358-0.807 0.359-0.807 0.353-0.806 0.358-0.897 0.27-0.807 0.353-0.806 0.358-0.807 0.359-0.808 0.359-0.806 0.353-0.897 0.359-0.801 0.358-0.808 0.264-0.806 0.358-0.807 0.359-0.807 0.354-0.807 0.358-0.897 0.359-0.807 0.359-0.806 0.353-0.807 0.269-0.807 0.358-0.807 0.354-0.896 0.358-0.807 0.359-0.807 0.358-0.807 0.354-0.807 0.359-0.806 0.268-0.897 0.354-0.807 0.358-0.807 0.359-0.807 0.353-0.807 0.359-0.806 0.359-0.897 0.359-0.807 0.263-0.807 0.359-0.806 0.359-0.808 0.353-0.807 0.358-0.896 0.359-0.807 0.358-0.807 0.353-0.807 0.27-0.806 0.359-0.807 0.353-0.897 0.716-1.614 0.354-0.807 0.358-0.806 0.359-0.802 0.27-0.896 0.352-0.807 0.359-0.807 0.358-0.808zm-78.193 8.334-0.717-0.538-0.623-0.449-0.717-0.538-0.712-0.448-0.712-0.538-0.717-0.448-0.712-0.449-0.807-0.447-0.802-0.449-0.802-0.448-0.806-0.353-0.802-0.449-0.891-0.358-0.801-0.359-0.897-0.358-0.801-0.359-0.803-0.269-0.806-0.269-0.802-0.27-0.891-0.268-0.801-0.27-0.897-0.179-0.802-0.179-0.891-0.179-0.896-0.179-0.892-0.09-0.981-0.09-0.891-0.09-0.981-0.089-0.897-0.09-0.98-0.089h-3.84l-0.891 0.089-0.981 0.09-0.891 0.089-0.891 0.09-0.897 0.09-0.891 0.179-0.892 0.18-0.801 0.179-0.896 0.179-0.802 0.269-0.891 0.179-0.807 0.27-0.802 0.358-0.802 0.269-0.89 0.359-0.807 0.358-0.802 0.358-0.801 0.359-0.808 0.448-0.711 0.444-0.802 0.448-0.717 0.449-0.712 0.447-0.717 0.539-0.712 0.537-0.713 0.538-0.627 0.538-0.622 0.538-0.628 0.628-0.622 0.537-0.628 0.628-0.622 0.628-0.538 0.627-0.533 0.717-0.538 0.628-0.448 0.717-0.533 0.718-0.447 0.716-0.444 0.718-0.448 0.807-0.448 0.717-0.353 0.807-0.359 0.807-0.358 0.807-0.354 0.806-0.269 0.717-0.359 0.808-0.179 0.807-0.264 0.806-0.179 0.896-0.269 0.808-0.179 0.896-0.09 0.807-0.18 0.897-0.088 0.806-0.091 0.897-0.084 0.897-0.089 0.896v2.959l0.089 0.986v0.896l0.084 0.897 0.091 0.986 0.179 0.891 0.089 0.897 0.179 0.807 0.269 0.896 0.18 0.897 0.263 0.807 0.269 0.896 0.269 0.807 0.359 0.897 0.354 0.806 0.358 0.807 0.359 0.807 0.353 0.807 0.448 0.807 0.448 0.717 0.444 0.718 0.447 0.717 0.449 0.717 0.532 0.717 0.538 0.717 0.533 0.717 0.538 0.629 0.622 0.627 0.538 0.628 0.623 0.626 0.627 0.629 0.622 0.537 0.717 0.628 0.623 0.538 0.712 0.538 0.717 0.448 0.712 0.538 0.718 0.448 0.711 0.448 0.802 0.449 0.807 0.448 0.801 0.448 0.802 0.359 0.806 0.358 0.892 0.449 0.712 0.268 0.891 0.27 0.808 0.358 0.801 0.18 0.801 0.269 0.896 0.179 0.802 0.269 0.891 0.179 0.892 0.09 0.896 0.179 0.892 0.09 0.89 0.089 0.892 0.09 0.897 0.09h3.833l0.987-0.09 0.981-0.09h0.891l0.891-0.089 0.981-0.18 0.807-0.089 0.891-0.18 0.892-0.179 0.806-0.179 0.801-0.179 0.803-0.18 0.807-0.269 0.801-0.179 0.712-0.269 0.807-0.269 0.802-0.358 0.801-0.359 0.807-0.359 0.802-0.448 0.801-0.359 0.718-0.448 0.801-0.448 0.712-0.448 0.807-0.449 0.712-0.537 0.712-0.449 0.717-0.538 0.712-0.538 0.717-0.627 0.712-0.538-0.538-0.718-0.622-0.627-0.538-0.717-0.622-0.717-0.538-0.718-0.533-0.627-0.628-0.717-0.532-0.717-0.538-0.629-0.623-0.717-0.537-0.717-0.623-0.717-0.538-0.628-0.532-0.717-0.627-0.717-0.534-0.717-0.627-0.628-0.533-0.717-0.717 0.538-0.712 0.627-0.717 0.449-0.712 0.538-0.712 0.448-0.717 0.449-0.713 0.447-0.801 0.449-0.717 0.358-0.712 0.359-0.717 0.269-0.802 0.269-0.801 0.269-0.807 0.179-0.891 0.18-0.891 0.179-0.892 0.089-0.981 0.09-0.986 0.089h-1.872l-0.891-0.089-0.807-0.09-0.891-0.179-0.802-0.18-0.807-0.268-0.801-0.269-0.802-0.359-0.802-0.358-0.717-0.448-0.711-0.449-0.718-0.449-0.622-0.537-0.628-0.538-0.622-0.538-0.538-0.627-0.622-0.628-0.538-0.717-0.444-0.628-0.448-0.717-0.442-0.807-0.449-0.717-0.358-0.807-0.269-0.807-0.354-0.807-0.269-0.896-0.179-0.892-0.179-0.806-0.18-0.987-0.089-0.896-0.084-0.896v-2.063l0.084-0.896 0.089-0.807 0.09-0.897 0.179-0.806 0.18-0.808 0.179-0.806 0.269-0.807 0.264-0.717 0.359-0.896 0.358-0.808 0.443-0.807 0.896-1.434 0.533-0.718 0.538-0.627 0.622-0.628 0.539-0.627 0.621-0.538 0.718-0.538 0.712-0.538 0.711-0.448 0.717-0.448 0.803-0.359 0.801-0.359 0.806-0.358 0.892-0.269 0.891-0.269 0.897-0.18 0.891-0.179 0.891-0.089 0.981-0.09h2.051l0.987 0.09 0.981 0.089 0.891 0.09 0.891 0.18 0.897 0.179 0.891 0.268 0.801 0.18 0.803 0.358 0.717 0.359 0.801 0.359 0.627 0.358 0.713 0.449v8.158h-13.032v13.084h29.454v-29.132z" fill="#282828"/>
    </g>
    <g fill="#282828">
     <g transform="translate(312.99,481.16)">
      <path d="m0 0h38.683v29.922h-38.683v61.086h40.223v29.922h-73.072v-215.95h73.684v29.923h-40.835z" fill="#282828"/>
     </g>
     <g transform="translate(590.07,474.68)">
      <path d="m0 0v-48.744c0-8.639-3.993-12.647-12.278-12.647h-6.144c-8.595 0-12.588 4.008-12.588 12.647v136.36c0 8.638 3.993 12.646 12.588 12.646h5.527c8.29 0 12.283-4.008 12.283-12.646v-42.269h32.233v44.12c0 26.837-12.895 39.795-39.6 39.795h-15.969c-26.706 0-39.912-13.264-39.912-40.106v-139.44c0-26.843 13.206-40.106 39.912-40.106h16.274c26.712 0 39.911 13.263 39.911 40.106v50.284z" fill="#282828"/>
     </g>
     <path d="m476 386.14h32.854v215.95h-32.854z"/>
     <g transform="translate(428.33,506.15)">
      <path d="m0 0c0-8.639-3.987-12.652-12.277-12.652h-13.511v79.596h13.511c8.29 0 12.277-4.009 12.277-12.646zm-7.061 95.944h-51.577v-215.95h32.85v78.362h18.727c26.711 0 39.911 13.263 39.911 40.1v57.384c0 26.842-13.2 40.106-39.911 40.106" fill="#282828"/>
     </g>
     <g transform="translate(357.64,190.87)">
      <path d="m0 0h188.05l-95.986-31.654z" fill="#282828" fill-rule="evenodd"/>
     </g>
    </g>
   </g>
  </g>
 </g>
</svg>
