<svg width="16" height="16" version="1.1" xmlns="http://www.w3.org/2000/svg">
  <defs>
    <style id="current-color-scheme" type="text/css">.ColorScheme-Text { color:#ebdbb2; } .ColorScheme-Highlight { color:#458588; }</style>
  </defs>
  <path class="ColorScheme-Text" d="m8.002 1.0002c-0.32285 7.725e-4 -0.64284 0.079542-0.93164 0.23242l-4.5098 2.3945c-0.65341 0.34679-1.0621 1.0259-1.0625 1.7656v5.127c1.6e-5 0.72899 0.39659 1.4002 1.0352 1.752l4.5098 2.4805c0.60154 0.3309 1.3308 0.33031 1.9316-2e-3l4.4941-2.4804c0.63716-0.35189 1.0329-1.0221 1.0332-1.75v-5.127c-3.81e-4 -0.73819-0.40731-1.4162-1.0586-1.7637l-4.4961-2.3945c-0.29681-0.15792-0.62246-0.23515-0.94531-0.23438zm-0.0078 2 4.4766 2.4414-4.4766 2.5586v5l-4.5-2.4551v-5.1172l4.5 2.5723z" fill="currentColor"/>
</svg>
