<svg id="svg67" width="16" height="16" version="1.1" xmlns="http://www.w3.org/2000/svg">
 <defs id="defs61">
  <style id="current-color-scheme" type="text/css">.ColorScheme-Text { color:#ebdbb2; } .ColorScheme-Highlight { color:#458588; }</style>
 </defs>
 <g id="g65" transform="translate(-1133 107)" label="status">
  <path id="path63" class="ColorScheme-Text" d="m1135.4-104c-0.5204 0-0.9408 0.0477-1.3047 0.19141-0.3638 0.14368-0.6621 0.41047-0.832 0.73437-0.3398 0.6478-0.2973 1.4026-0.3086 2.4316v0.00391 3.2773 0.003906c0.012 1.029-0.031 1.7839 0.3086 2.4316 0.1698 0.32389 0.4682 0.59068 0.832 0.73438 0.3639 0.1437 0.7843 0.19141 1.3047 0.19141h3.1113c0.5204 0 0.9409-0.047696 1.3047-0.19141 0.3639-0.14368 0.6602-0.41048 0.8301-0.73438 0.2954-0.56311 0.2967-1.2415 0.3008-2.0762l1.9453-0.003906 0.5625-0.49414 0.5 0.5 0.5-0.5 0.5 0.5 0.5-0.5 1 1 2.5-2.5-2-2-6.0078 0.00195c0-0.83464-0.01-1.5131-0.3008-2.0762-0.1698-0.3239-0.4682-0.59068-0.832-0.73437-0.3639-0.14384-0.7824-0.19141-1.3028-0.19141h-3.1113zm1.5078 3.0254c1.0909 0 1.9766 0.88368 1.9766 1.9746s-0.8857 1.9746-1.9766 1.9746c-1.0911 0-1.9746-0.88368-1.9746-1.9746s0.8835-1.9746 1.9746-1.9746z" fill="#ebdbb2"/>
 </g>
</svg>
