<svg width="16" height="16" style="isolation:isolate" version="1.1" viewBox="0 0 16 16" xmlns="http://www.w3.org/2000/svg">
  <path d="m9.646 11.993c-5e-3 -5e-3 -8e-3 -0.048-8e-3 -0.098 0-0.142-0.023-0.225-0.12-0.452-0.033-0.075-0.085-0.206-0.117-0.291-0.081-0.213-0.239-0.572-0.278-0.629-0.017-0.026-0.044-0.077-0.059-0.113s-0.037-0.084-0.049-0.106c-0.073-0.145-0.283-0.684-0.386-0.992-0.031-0.091-0.086-0.237-0.123-0.324s-0.094-0.239-0.126-0.338c-0.033-0.099-0.099-0.276-0.148-0.394-0.107-0.262-0.263-0.734-0.29-0.878-0.01-0.059-0.024-0.13-0.031-0.157-6e-3 -0.027-0.011-0.089-0.011-0.136 0-0.086 0.026-0.282 0.041-0.306 0.016-0.026 0.039-0.01 0.086 0.056 0.126 0.181 0.215 0.214 0.652 0.24 0.243 0.015 0.375 0.036 0.447 0.07 0.12 0.059 0.216 0.202 0.337 0.502 0.202 0.499 0.268 0.672 0.38 1.001 0.048 0.139 0.08 0.215 0.091 0.217 0.045 9e-3 0.283-0.363 0.395-0.615 0.14-0.317 0.381-0.952 0.432-1.139 0.04-0.146 0.174-0.348 0.396-0.596 0.066-0.073 0.142-0.151 0.17-0.172 0.112-0.086 0.396-0.125 0.589-0.08 0.042 9e-3 0.17 0.021 0.285 0.025 0.149 5e-3 0.212 0.012 0.221 0.023 0.016 0.019-0.011 0.119-0.065 0.236-0.021 0.046-0.05 0.124-0.065 0.172-0.014 0.049-0.03 0.094-0.035 0.101-5e-3 6e-3 -0.026 0.062-0.047 0.124s-0.042 0.119-0.047 0.125c-0.032 0.04-0.248 0.692-0.318 0.96-0.025 0.099-0.06 0.233-0.077 0.298-0.017 0.066-0.052 0.194-0.078 0.285-0.025 0.092-0.05 0.185-0.055 0.208-5e-3 0.024-0.023 0.069-0.04 0.101-0.092 0.173-0.264 0.566-0.458 1.05-0.208 0.521-0.248 0.611-0.338 0.771-0.085 0.151-0.36 0.58-0.396 0.616-0.011 0.011-0.035 0.044-0.054 0.073-0.061 0.095-0.201 0.265-0.284 0.345-0.096 0.093-0.155 0.133-0.278 0.185-0.091 0.039-0.126 0.047-0.141 0.032zm-1.728-0.531c-9e-3 -7e-3 -0.028-0.042-0.042-0.078s-0.046-0.099-0.071-0.14c-0.025-0.04-0.046-0.078-0.046-0.083 0-6e-3 -0.017-0.036-0.037-0.069-0.02-0.032-0.061-0.114-0.089-0.183-0.14-0.334-0.242-0.563-0.299-0.676l-0.062-0.125-0.294-4e-3c-0.161-2e-3 -0.326 0-0.367 4e-3 -0.111 0.011-0.123 0.027-0.179 0.231-0.027 0.095-0.055 0.199-0.065 0.232-0.034 0.121-0.147 0.427-0.178 0.48-0.039 0.068-0.139 0.168-0.21 0.21-0.073 0.043-0.194 0.075-0.282 0.075-0.04 0-0.152-0.016-0.249-0.035-0.107-0.022-0.213-0.036-0.27-0.036-0.093 0-0.094 0-0.165-0.054-0.075-0.057-0.084-0.075-0.053-0.102 0.042-0.034 0.106-0.235 0.145-0.448 0.013-0.069 0.034-0.176 0.047-0.238 0.028-0.13 0.03-0.194 8e-3 -0.213-9e-3 -7e-3 -0.054-0.018-0.101-0.024s-0.091-0.016-0.097-0.023c-8e-3 -8e-3 0-0.029 0.027-0.063 0.03-0.037 0.04-0.062 0.04-0.097 0-0.041-7e-3 -0.053-0.056-0.096l-0.055-0.048 0.047-0.078c0.026-0.042 0.057-0.092 0.068-0.11 0.072-0.12 0.18-0.268 0.214-0.291 0.035-0.024 0.048-0.027 0.099-0.019 0.033 5e-3 0.074 9e-3 0.093 0.01 0.038 1e-3 0.026 0.029 0.142-0.314 0.029-0.088 0.074-0.219 0.099-0.29 0.025-0.072 0.065-0.192 0.088-0.268 0.024-0.075 0.074-0.235 0.113-0.356 0.038-0.12 0.08-0.259 0.093-0.308s0.047-0.143 0.075-0.208 0.085-0.199 0.126-0.297c0.077-0.183 0.271-0.58 0.351-0.718 0.05-0.084 0.158-0.213 0.18-0.213 8e-3 0 0.021 0.011 0.03 0.025 0.021 0.034 0.062 0.026 0.213-0.043 0.141-0.064 0.305-0.107 0.305-0.08 0 6e-3 -0.026 0.04-0.058 0.076-0.084 0.096-0.162 0.217-0.183 0.287-0.01 0.034-0.021 0.114-0.025 0.18l-6e-3 0.118 0.061 0.178c0.067 0.196 0.147 0.374 0.319 0.707 0.134 0.26 0.37 0.738 0.41 0.831 0.054 0.124 0.197 0.41 0.254 0.505 0.031 0.052 0.069 0.121 0.086 0.152 0.034 0.067 0.155 0.186 0.226 0.222 0.088 0.046 0.114 0.072 0.132 0.134 0.03 0.103 0.025 0.128-0.047 0.211-0.036 0.041-0.065 0.086-0.065 0.099s0.035 0.093 0.078 0.178c0.208 0.416 0.392 0.788 0.392 0.793 0 3e-3 -0.052 8e-3 -0.115 0.012-0.183 0.012-0.245 0.051-0.529 0.332-0.13 0.128-0.15 0.144-0.197 0.151-0.032 5e-3 -0.059 3e-3 -0.069-5e-3zm-0.95-2.085c9e-3 -0.015-0.038-0.133-0.104-0.26-0.057-0.109-0.064-0.119-0.092-0.119s-0.029 3e-3 -0.076 0.168c-0.039 0.142-0.048 0.2-0.032 0.216 0.013 0.014 0.295 9e-3 0.304-5e-3zm5.629 1.999c-0.051-0.011-0.215-0.094-0.272-0.138-0.08-0.063-0.123-0.082-0.198-0.089-0.09-8e-3 -0.117 1e-3 -0.181 0.057-0.06 0.052-0.062 0.052-0.104 0.036-0.041-0.016-0.046-0.043-0.031-0.18 0.026-0.244 0.097-0.449 0.202-0.584 0.03-0.038 0.064-0.097 0.077-0.13 0.065-0.171 0.158-0.646 0.215-1.089 0.019-0.153 0.048-0.356 0.064-0.451 0.074-0.443 0.097-0.836 0.058-0.97-0.018-0.06-0.07-0.124-0.155-0.19-0.061-0.046-0.06-0.067 5e-3 -0.138 0.081-0.09 0.154-0.227 0.302-0.571 8e-3 -0.02 0.032-0.089 0.053-0.155 0.054-0.172 0.11-0.313 0.126-0.319 8e-3 -3e-3 0.062 0.018 0.121 0.047 0.187 0.092 0.24 0.1 0.637 0.1 0.35 0 0.718-0.026 0.869-0.062 0.099-0.024 0.531-0.019 0.655 7e-3 0.126 0.027 0.421 0.12 0.503 0.159 0.069 0.033 0.256 0.205 0.336 0.312 0.065 0.084 0.128 0.189 0.12 0.197-3e-3 4e-3 -0.042-0.016-0.086-0.043-0.074-0.046-0.085-0.049-0.144-0.043-0.078 7e-3 -0.09 0.019-0.208 0.19-0.124 0.18-0.281 0.392-0.329 0.443-0.036 0.039-0.043 0.042-0.089 0.034-0.028-4e-3 -0.106-0.024-0.174-0.045-0.164-0.049-0.26-0.053-0.463-0.021-0.276 0.043-0.429 0.059-0.565 0.059-0.176 1e-3 -0.169-9e-3 -0.221 0.28-0.023 0.123-0.047 0.275-0.055 0.336-0.012 0.098-0.012 0.112 5e-3 0.129 0.02 0.021 0.04 0.022 0.607 0.05 0.198 9e-3 0.261 0.017 0.358 0.043 0.064 0.017 0.123 0.036 0.13 0.042 0.012 9e-3 0.029 0.095 0.046 0.225 0.015 0.123 0.146 0.306 0.234 0.329 0.053 0.014 0.048 0.048-0.011 0.069-0.218 0.081-0.209 0.079-0.475 0.089-0.217 7e-3 -0.553 0.039-0.863 0.082-0.046 6e-3 -0.092 0.011-0.103 0.012-0.011 0-0.037 0.015-0.056 0.032-0.029 0.027-0.042 0.055-0.065 0.144-0.038 0.15-0.057 0.335-0.036 0.356 0.011 0.011 0.086 0.019 0.267 0.026 0.517 0.022 0.81 0.037 1.067 0.054 0.145 9e-3 0.384 0.017 0.529 0.017 0.253 0 0.267 1e-3 0.288 0.024 0.021 0.025 0.021 0.025-0.019 0.056-0.081 0.062-0.209 0.202-0.24 0.263-0.038 0.076-0.068 0.176-0.094 0.31-0.042 0.218-0.085 0.331-0.149 0.386-0.094 0.08-0.302 0.148-0.456 0.148-0.055 0-0.168 5e-3 -0.252 0.011-0.311 0.024-0.612 0.037-1.092 0.049-0.272 6e-3 -0.531 0.014-0.576 0.016-0.045 3e-3 -0.095 3e-3 -0.111-1e-3h-1e-3zm-10.503-0.077c-0.263-0.039-0.327-0.053-0.542-0.125-0.246-0.082-0.485-0.191-0.508-0.232-0.01-0.018-0.025-0.033-0.033-0.033-7e-3 0-0.025-0.015-0.039-0.033s-0.055-0.053-0.092-0.077c-0.036-0.025-0.132-0.111-0.212-0.191-0.234-0.234-0.321-0.355-0.421-0.588-0.078-0.183-0.1-0.267-0.125-0.482-0.011-0.092-0.028-0.223-0.038-0.292-0.026-0.182-0.037-0.312-0.057-0.682-0.032-0.563-0.035-0.801-0.013-0.944 0.011-0.069 0.033-0.218 0.049-0.332s0.037-0.259 0.047-0.321 0.029-0.182 0.041-0.267c0.04-0.272 0.087-0.468 0.144-0.6 0.029-0.068 0.074-0.177 0.102-0.242 0.061-0.147 0.222-0.537 0.386-0.774 0.098-0.142 0.221-0.269 0.352-0.382 0.181-0.156 0.451-0.334 0.592-0.403 0.136-0.067 0.394-0.172 0.601-0.222 0.221-0.052 0.492-0.082 0.676-0.077 0.386 0.011 0.428 9e-3 0.636 0.053 0.146 0.03 0.293 0.071 0.423 0.143 0.211 0.117 0.402 0.276 0.561 0.458 0.109 0.125 0.356 0.493 0.426 0.636 0.029 0.058 0.064 0.142 0.079 0.188 0.014 0.046 0.039 0.113 0.054 0.151 0.015 0.037 0.044 0.149 0.065 0.249 0.033 0.168 0.036 0.194 0.029 0.342-8e-3 0.194-0.029 0.307-0.08 0.432-0.034 0.082-0.052 0.108-0.143 0.199-0.11 0.11-0.226 0.195-0.389 0.286-0.138 0.076-0.555 0.282-0.572 0.282-0.011 0-0.023 5e-3 -0.027 0.011-8e-3 0.015-0.135 0.054-0.206 0.065-0.05 7e-3 -0.058 4e-3 -0.093-0.028-0.032-0.031-0.036-0.041-0.029-0.075 0.011-0.055 0.02-0.061 0.091-0.058 0.061 3e-3 0.064 1e-3 0.104-0.048 0.082-0.103 0.085-0.11 0.082-0.228-4e-3 -0.162-0.034-0.391-0.06-0.458-0.034-0.085-0.136-0.289-0.191-0.38-0.064-0.104-0.106-0.148-0.273-0.282-0.078-0.063-0.146-0.12-0.153-0.128-6e-3 -7e-3 -0.051-0.036-0.1-0.063-0.154-0.085-0.305-0.092-0.445-0.02-0.127 0.065-0.41 0.38-0.544 0.605-0.181 0.307-0.289 0.637-0.325 1.002-7e-3 0.067-0.013 0.29-0.013 0.494 0 0.478 0.013 0.547 0.136 0.766 0.029 0.052 0.052 0.098 0.052 0.104s0.011 0.023 0.024 0.039 0.058 0.081 0.1 0.146c0.045 0.07 0.114 0.154 0.171 0.211 0.053 0.051 0.098 0.093 0.101 0.093s0.041 0.032 0.086 0.07c0.092 0.081 0.202 0.137 0.37 0.19 0.198 0.063 0.292 0.074 0.65 0.076 0.281 2e-3 0.337-1e-3 0.418-0.02 0.051-0.012 0.123-0.027 0.158-0.033 0.07-0.011 0.119-0.02 0.165-0.029 0.016-4e-3 0.043-6e-3 0.059-7e-3 0.016 0 0.038-5e-3 0.048-0.01 0.011-6e-3 0.059-0.014 0.106-0.017 0.048-3e-3 0.116-9e-3 0.152-0.013 0.063-8e-3 0.117 6e-3 0.117 0.029 0 5e-3 -0.019 0.04-0.043 0.079-0.087 0.147-0.265 0.494-0.295 0.575-0.029 0.081-0.026 0.223 7e-3 0.278 0.034 0.059 0.032 0.078-0.016 0.134-0.022 0.027-0.041 0.055-0.041 0.061 0 7e-3 -7e-3 0.017-0.016 0.022s-0.022 0.023-0.031 0.038c-0.043 0.084-0.372 0.458-0.439 0.499-0.106 0.066-0.47 0.147-0.882 0.197-0.101 0.012-0.277 0.021-0.458 0.023-0.27 3e-3 -0.311 0-0.517-0.03h1e-3zm8.013-4.728c-5e-3 -4e-3 -0.406-0.049-0.698-0.078-0.303-0.03-0.493-0.074-0.534-0.124-0.023-0.028 2e-3 -0.148 0.127-0.624 0.02-0.075 0.047-0.211 0.061-0.302 0.013-0.092 0.035-0.214 0.049-0.272 0.017-0.076 0.022-0.131 0.018-0.193-4e-3 -0.072-2e-3 -0.087 0.012-0.087 0.01 0 0.079 0.01 0.154 0.023s0.221 0.032 0.324 0.042c0.104 0.011 0.222 0.024 0.264 0.03s0.198 0.017 0.346 0.024 0.273 0.015 0.279 0.019c6e-3 3e-3 0.039 0.065 0.075 0.138 0.059 0.119 0.063 0.133 0.047 0.15-0.049 0.049-0.488 0.034-0.835-0.028-0.217-0.038-0.205-0.042-0.227 0.07-0.03 0.159-0.017 0.178 0.14 0.197 0.18 0.02 0.281 0.039 0.282 0.052 1e-3 7e-3 0 0.043-1e-3 0.08-1e-3 0.059 3e-3 0.071 0.035 0.109 0.021 0.023 0.034 0.049 0.029 0.056-6e-3 9e-3 -0.069 0.01-0.227 4e-3 -0.259-0.012-0.306-0.01-0.327 0.011-0.022 0.022-0.041 0.2-0.023 0.218 0.03 0.03 0.342 0.086 0.55 0.099 0.112 7e-3 0.264 0.021 0.339 0.03 0.074 0.01 0.157 0.017 0.184 0.017 0.06 0 0.073 0.017 0.04 0.052-0.013 0.015-0.025 0.032-0.025 0.039s-0.013 0.032-0.029 0.056c-0.043 0.065-0.047 0.095-0.019 0.142 0.014 0.022 0.021 0.043 0.017 0.048-8e-3 8e-3 -0.419 0.011-0.428 3e-3l1e-3 -1e-3zm-1.708-0.31c-0.069-0.049-0.11-0.052-0.223-0.016-0.117 0.036-0.118 0.034-0.117-0.2 1e-3 -0.112 0.01-0.248 0.022-0.338l0.022-0.151-0.039-0.045c-0.055-0.065-0.122-0.107-0.211-0.134-0.093-0.028-0.11-0.029-0.127-8e-3 -7e-3 9e-3 -0.021 0.082-0.031 0.163-0.04 0.325-0.046 0.336-0.215 0.392-0.063 0.021-0.13 0.045-0.15 0.054-0.142 0.063-0.229 0.089-0.229 0.069 0-4e-3 0.027-0.056 0.059-0.116 0.068-0.129 0.075-0.156 0.1-0.414 0.02-0.21 0.015-0.271-0.026-0.309-0.039-0.035-0.142-0.08-0.184-0.08-0.028 0-0.042-5e-3 -0.042-0.016 0-0.017 0.178-0.139 0.278-0.19 0.071-0.036 0.062-0.011 0.126-0.358 0.051-0.273 0.049-0.267 0.063-0.267 6e-3 0 0.053 0.04 0.105 0.088s0.131 0.11 0.177 0.137c0.046 0.028 0.089 0.057 0.095 0.065 9e-3 0.011 8e-3 0.044-5e-3 0.115-0.01 0.055-0.021 0.125-0.025 0.156l-7e-3 0.056 0.09 0.056c0.05 0.032 0.126 0.08 0.168 0.108 0.042 0.027 0.084 0.05 0.092 0.05 0.035 0 0.074-0.136 0.075-0.257 1e-3 -0.106 8e-3 -0.108 0.16-0.045 0.104 0.043 0.142 0.053 0.201 0.053 0.04 0 0.075 4e-3 0.078 9e-3s-5e-3 0.091-0.016 0.193c-0.012 0.101-0.027 0.288-0.034 0.415-0.017 0.295-0.021 0.33-0.056 0.432-0.045 0.133-0.064 0.21-0.069 0.284-8e-3 0.108-0.016 0.111-0.105 0.049zm-2.184-0.121c-0.013-3e-3 -0.034-0.014-0.046-0.023-0.013-9e-3 -0.049-0.016-0.08-0.016-0.052 0-0.056-2e-3 -0.05-0.027 0.022-0.096 0.064-0.336 0.07-0.4 4e-3 -0.043 0.015-0.211 0.024-0.374s0.021-0.35 0.025-0.416c9e-3 -0.137-6e-3 -0.211-0.046-0.234-0.02-0.011-0.106-0.014-0.359-0.011-0.353 4e-3 -0.367 2e-3 -0.34-0.05 8e-3 -0.013 0.01-0.057 7e-3 -0.1-5e-3 -0.063-0.014-0.087-0.05-0.14-0.024-0.035-0.064-0.083-0.089-0.106s-0.046-0.047-0.046-0.054c0-0.022 0.391-0.014 0.581 0.013 0.177 0.025 0.223 0.025 0.482 2e-3 0.114-0.01 0.233-0.041 0.247-0.063 4e-3 -6e-3 0.016-0.011 0.028-0.011 0.017 0 0.023 0.013 0.029 0.064 5e-3 0.035 0.014 0.073 0.022 0.083 0.021 0.028 0.155 0.042 0.405 0.043 0.238 0 0.242 2e-3 0.213 0.074-8e-3 0.022-0.043 0.074-0.077 0.117-0.09 0.113-0.132 0.131-0.344 0.145-0.094 6e-3 -0.175 0.015-0.179 0.019-9e-3 7e-3 -0.04 0.381-0.053 0.624-4e-3 0.083 1e-3 0.215 0.014 0.363 0.015 0.179 0.017 0.247 7e-3 0.3-0.015 0.081-0.049 0.135-0.1 0.157-0.039 0.016-0.256 0.032-0.295 0.021z" fill="#ebdbb2"/>
</svg>
