<svg width="16" height="16" style="isolation:isolate" version="1.1" viewBox="0 0 16 16" xmlns="http://www.w3.org/2000/svg">
  <defs>
    <style type="text/css">.ColorScheme-Text { color:#ebdbb2; } .ColorScheme-Highlight { color:#458588; } .ColorScheme-ButtonBackground { color:#ebdbb2; }</style>
  </defs>
  <path d="m11.575 0.345c-0.321 0.015-0.613 0.192-0.773 0.471-0.125 0.217-0.16 0.474-0.095 0.716s0.223 0.448 0.44 0.574c0.217 0.125 0.475 0.159 0.717 0.094 0.241-0.065 0.448-0.223 0.573-0.44s0.159-0.474 0.094-0.716c-0.064-0.242-0.223-0.448-0.44-0.573-0.156-0.091-0.336-0.135-0.516-0.126zm-6.074 1.475c-0.158 0-0.31 0.063-0.422 0.175s-0.174 0.263-0.174 0.421c0 0.329 0.267 0.595 0.596 0.595 0.328 0 0.594-0.267 0.594-0.595s-0.266-0.595-0.594-0.596zm1.499 0.152c-0.138 0-0.271 0.055-0.368 0.152-0.098 0.098-0.153 0.23-0.152 0.368 0 0.287 0.233 0.519 0.52 0.519 0.286 0 0.518-0.233 0.519-0.519 0-0.287-0.232-0.52-0.519-0.52zm-3.241 0.06c-0.186 0-0.365 0.074-0.496 0.205-0.132 0.132-0.206 0.311-0.206 0.497s0.074 0.364 0.206 0.496c0.131 0.131 0.31 0.205 0.496 0.205s0.364-0.074 0.496-0.205c0.132-0.132 0.205-0.31 0.205-0.496s-0.073-0.365-0.205-0.497c-0.132-0.131-0.31-0.205-0.496-0.205zm4.475 0.364c-0.25 0-0.452 0.202-0.452 0.451-1e-3 0.12 0.047 0.235 0.132 0.32s0.2 0.133 0.32 0.132c0.249 0 0.451-0.202 0.451-0.452-1e-3 -0.249-0.202-0.45-0.451-0.451zm3.601 0.49c-0.274 0.013-0.524 0.165-0.661 0.403-0.223 0.387-0.09 0.88 0.296 1.103s0.879 0.091 1.103-0.295c0.107-0.186 0.136-0.406 0.081-0.613-0.056-0.207-0.191-0.384-0.376-0.491-0.135-0.077-0.288-0.114-0.443-0.107zm-2.662 0.085c-0.104 0-0.204 0.041-0.278 0.114-0.073 0.073-0.115 0.173-0.115 0.277s0.041 0.204 0.115 0.277c0.074 0.074 0.173 0.115 0.278 0.115 0.103 0 0.203-0.042 0.276-0.115 0.074-0.074 0.115-0.173 0.114-0.277 0-0.216-0.175-0.391-0.39-0.391zm4.715 0.205c-0.274 0.013-0.523 0.165-0.661 0.403-0.222 0.386-0.09 0.879 0.296 1.103 0.185 0.107 0.406 0.136 0.613 0.081 0.207-0.056 0.383-0.191 0.49-0.377 0.223-0.386 0.09-0.879-0.296-1.102-0.134-0.078-0.287-0.115-0.442-0.108zm-8.116 0.371c-0.328 0-0.595 0.267-0.594 0.596 0 0.328 0.266 0.594 0.594 0.594 0.329 0 0.596-0.266 0.596-0.594 0-0.159-0.062-0.31-0.174-0.422s-0.264-0.174-0.422-0.174zm4.097 0.106c-0.088-1e-3 -0.172 0.034-0.234 0.096s-0.097 0.146-0.097 0.234 0.035 0.172 0.097 0.234 0.146 0.097 0.234 0.097c0.087 0 0.172-0.035 0.234-0.097s0.096-0.146 0.096-0.234-0.034-0.172-0.096-0.234-0.147-0.097-0.234-0.096zm-2.598 0.045c-0.286 1e-3 -0.519 0.233-0.519 0.52 1e-3 0.287 0.233 0.519 0.519 0.519 0.287 0 0.52-0.232 0.52-0.519 1e-3 -0.138-0.054-0.27-0.152-0.368-0.097-0.097-0.23-0.152-0.368-0.152zm-3.239 0.06c-0.186 0-0.365 0.074-0.497 0.206-0.131 0.131-0.205 0.31-0.205 0.496s0.074 0.364 0.205 0.496c0.132 0.132 0.311 0.206 0.497 0.206s0.364-0.074 0.496-0.206c0.131-0.132 0.205-0.31 0.205-0.496s-0.074-0.365-0.205-0.496c-0.132-0.132-0.31-0.206-0.496-0.206zm4.473 0.364c-0.249 1e-3 -0.45 0.203-0.451 0.452 0 0.249 0.202 0.451 0.451 0.452 0.12 0 0.235-0.048 0.32-0.133 0.085-0.084 0.133-0.2 0.133-0.319-1e-3 -0.25-0.203-0.452-0.453-0.452zm-6.381 0.333c-0.446 0-0.808 0.362-0.808 0.808s0.362 0.807 0.808 0.807 0.807-0.361 0.807-0.807-0.361-0.808-0.807-0.808zm7.32 0.242c-0.216 0-0.391 0.175-0.391 0.391s0.175 0.391 0.391 0.391 0.391-0.175 0.391-0.391-0.175-0.391-0.391-0.391zm2.137 0.349c-0.238 0.011-0.455 0.143-0.574 0.349-0.093 0.162-0.119 0.353-0.07 0.533 0.048 0.18 0.166 0.333 0.327 0.426 0.336 0.194 0.764 0.078 0.958-0.257 0.193-0.335 0.079-0.764-0.256-0.958-0.117-0.067-0.25-0.1-0.385-0.093zm2.053 0.289c-0.238 0.012-0.454 0.143-0.574 0.35-0.093 0.161-0.118 0.353-0.07 0.532 0.048 0.18 0.165 0.334 0.327 0.427 0.161 0.093 0.353 0.118 0.532 0.07 0.18-0.048 0.334-0.166 0.427-0.327 0.193-0.336 0.078-0.765-0.258-0.958-0.116-0.068-0.25-0.1-0.384-0.094zm-7.085 0.135c-0.329 0-0.596 0.266-0.596 0.595 0 0.158 0.062 0.309 0.174 0.421s0.264 0.175 0.422 0.175 0.309-0.063 0.421-0.175 0.175-0.263 0.174-0.421c0-0.329-0.267-0.595-0.595-0.595zm1.499 0.15c-0.138 0-0.271 0.055-0.368 0.153-0.098 0.097-0.152 0.23-0.152 0.367 0 0.138 0.054 0.271 0.152 0.368 0.097 0.098 0.23 0.153 0.368 0.153 0.287-1e-3 0.519-0.234 0.519-0.521 0-0.286-0.232-0.519-0.519-0.52zm-3.241 0.062c-0.186 0-0.365 0.074-0.496 0.205-0.132 0.132-0.206 0.31-0.206 0.496s0.074 0.365 0.206 0.496c0.131 0.132 0.31 0.206 0.496 0.206s0.364-0.074 0.496-0.206c0.131-0.131 0.205-0.31 0.205-0.496s-0.074-0.364-0.205-0.496c-0.132-0.131-0.31-0.205-0.496-0.205zm10.459 0.28c-0.239 0.011-0.456 0.143-0.575 0.35-0.093 0.161-0.119 0.353-0.07 0.533 0.048 0.18 0.166 0.333 0.327 0.426 0.336 0.193 0.764 0.078 0.958-0.257 0.193-0.336 0.079-0.764-0.256-0.958-0.117-0.067-0.25-0.1-0.384-0.094zm-5.984 0.083c-0.12 0-0.235 0.047-0.32 0.132s-0.133 0.2-0.133 0.32c1e-3 0.249 0.203 0.451 0.453 0.451 0.249 0 0.45-0.202 0.451-0.451 0-0.25-0.202-0.452-0.451-0.452zm-6.383 0.333c-0.446 0-0.807 0.361-0.807 0.807s0.361 0.808 0.807 0.808 0.807-0.362 0.807-0.808-0.361-0.807-0.807-0.807zm8.092 0.441c-0.202 9e-3 -0.386 0.121-0.488 0.297-0.164 0.285-0.066 0.649 0.219 0.813 0.284 0.164 0.648 0.066 0.813-0.218 0.164-0.285 0.067-0.649-0.217-0.813-0.099-0.057-0.213-0.085-0.327-0.079zm2.053 0.289c-0.203 0.01-0.386 0.122-0.487 0.298-0.164 0.284-0.067 0.648 0.217 0.813 0.137 0.079 0.3 0.1 0.452 0.059 0.153-0.041 0.283-0.141 0.362-0.278 0.164-0.284 0.067-0.648-0.218-0.813-0.099-0.057-0.212-0.084-0.326-0.079zm-6.42 0.473c-0.076 1e-3 -0.15 0.023-0.216 0.061-0.216 0.125-0.289 0.401-0.165 0.617 0.125 0.216 0.402 0.289 0.617 0.165 0.216-0.125 0.29-0.402 0.165-0.617-0.082-0.143-0.236-0.23-0.401-0.226zm-5.681 0.083c-0.25 0-0.49 0.1-0.667 0.277s-0.276 0.417-0.276 0.667c0 0.521 0.422 0.944 0.943 0.944 0.251 0 0.491-0.099 0.668-0.276s0.277-0.417 0.277-0.668c0-0.25-0.1-0.49-0.277-0.668-0.177-0.177-0.417-0.276-0.668-0.276zm13.732 0.071c-0.202 0.01-0.386 0.122-0.488 0.298-0.164 0.284-0.066 0.648 0.219 0.813 0.285 0.164 0.648 0.066 0.813-0.219 0.164-0.284 0.067-0.648-0.217-0.813-0.099-0.057-0.213-0.084-0.327-0.079zm-4.496 0.419c-0.176 9e-3 -0.337 0.106-0.425 0.26-0.069 0.119-0.088 0.261-0.052 0.394 0.035 0.134 0.123 0.247 0.242 0.316 0.12 0.069 0.262 0.088 0.395 0.052 0.133-0.035 0.247-0.123 0.316-0.242 0.069-0.12 0.088-0.262 0.052-0.395s-0.123-0.247-0.243-0.316c-0.086-0.05-0.185-0.074-0.285-0.069zm-4.854 0.05c-0.066 2e-3 -0.131 0.02-0.187 0.053-0.09 0.052-0.156 0.137-0.183 0.237-0.026 0.101-0.012 0.207 0.04 0.297s0.137 0.155 0.238 0.182c0.1 0.027 0.207 0.013 0.297-0.039 0.186-0.109 0.25-0.347 0.142-0.534-0.071-0.124-0.204-0.199-0.347-0.196zm6.908 0.241c-0.177 8e-3 -0.337 0.105-0.425 0.258-0.07 0.119-0.088 0.261-0.053 0.395 0.035 0.133 0.123 0.247 0.242 0.316s0.261 0.087 0.395 0.052c0.133-0.036 0.246-0.123 0.315-0.243 0.143-0.248 0.058-0.566-0.19-0.709-0.086-0.05-0.185-0.074-0.284-0.069zm-8.077 5e-3c-0.055 2e-3 -0.109 0.017-0.157 0.045-0.158 0.091-0.212 0.293-0.121 0.451 0.044 0.076 0.116 0.132 0.201 0.154 0.085 0.023 0.175 0.011 0.251-0.033s0.131-0.116 0.154-0.201 0.01-0.175-0.034-0.251c-0.06-0.104-0.173-0.168-0.294-0.165zm2.776 0.31c-0.088 2e-3 -0.173 0.025-0.249 0.069-0.119 0.069-0.206 0.183-0.242 0.316s-0.017 0.275 0.052 0.395c0.069 0.119 0.183 0.206 0.316 0.241 0.133 0.036 0.275 0.017 0.394-0.052 0.249-0.144 0.334-0.461 0.191-0.71-0.095-0.164-0.272-0.264-0.462-0.259zm6.931 0.312c-0.176 8e-3 -0.336 0.105-0.425 0.258-0.069 0.12-0.088 0.262-0.052 0.395s0.123 0.247 0.242 0.316c0.12 0.069 0.262 0.087 0.395 0.052 0.133-0.036 0.247-0.123 0.316-0.243 0.143-0.248 0.058-0.566-0.19-0.709-0.087-0.05-0.186-0.074-0.286-0.069zm-4.606 0.041c-0.154 7e-3 -0.293 0.093-0.37 0.226-0.059 0.104-0.076 0.227-0.045 0.343 0.032 0.116 0.108 0.214 0.211 0.274 0.104 0.06 0.227 0.076 0.343 0.045s0.214-0.107 0.274-0.211 0.076-0.227 0.045-0.343c-0.031-0.115-0.107-0.214-0.211-0.274-0.075-0.043-0.16-0.064-0.247-0.06zm-3.91 0.101c-0.076 2e-3 -0.15 0.023-0.216 0.06-0.216 0.125-0.29 0.402-0.165 0.617 0.125 0.216 0.401 0.29 0.617 0.165s0.29-0.401 0.165-0.617c-0.083-0.142-0.236-0.228-0.401-0.225zm-1.381 0.089c-0.066 2e-3 -0.129 0.02-0.186 0.053-0.09 0.052-0.156 0.137-0.183 0.237-0.027 0.101-0.013 0.207 0.039 0.297s0.138 0.156 0.238 0.182c0.1 0.027 0.207 0.013 0.297-0.039s0.155-0.138 0.182-0.238 0.012-0.207-0.04-0.297c-0.071-0.123-0.204-0.198-0.347-0.195zm7.345 0.099c-0.154 8e-3 -0.293 0.093-0.37 0.227-0.125 0.216-0.051 0.492 0.165 0.617 0.104 0.059 0.227 0.076 0.343 0.044 0.115-0.031 0.214-0.107 0.274-0.21 0.125-0.216 0.051-0.492-0.165-0.617-0.075-0.044-0.161-0.065-0.247-0.061zm-3.698 0.618c-0.1 2e-3 -0.197 0.03-0.284 0.08-0.284 0.164-0.381 0.528-0.217 0.813 0.164 0.284 0.528 0.382 0.813 0.218 0.137-0.079 0.237-0.209 0.278-0.362s0.02-0.315-0.06-0.452c-0.109-0.189-0.312-0.303-0.53-0.297zm2.786 0c-0.134 6e-3 -0.254 0.079-0.321 0.194-0.052 0.09-0.066 0.197-0.039 0.297 0.027 0.101 0.093 0.186 0.183 0.238 0.187 0.107 0.425 0.043 0.533-0.144 0.052-0.089 0.066-0.196 0.04-0.296-0.027-0.101-0.093-0.186-0.182-0.238-0.065-0.037-0.14-0.055-0.214-0.051zm2.543 0.01c-0.154 7e-3 -0.294 0.092-0.371 0.226-0.059 0.103-0.075 0.227-0.044 0.342 0.031 0.116 0.107 0.215 0.21 0.275 0.104 0.059 0.228 0.076 0.343 0.045 0.116-0.032 0.215-0.108 0.274-0.211 0.06-0.104 0.076-0.227 0.045-0.343s-0.107-0.215-0.21-0.274c-0.075-0.043-0.16-0.064-0.247-0.06zm-8.954 0.283c-0.075 2e-3 -0.149 0.023-0.215 0.061-0.104 0.059-0.179 0.158-0.211 0.274-0.031 0.115-0.015 0.239 0.045 0.343 0.125 0.215 0.401 0.289 0.617 0.165 0.104-0.06 0.18-0.159 0.211-0.275 0.031-0.115 0.015-0.239-0.045-0.343-0.083-0.142-0.237-0.229-0.402-0.225zm1.665 0.08c-0.087 2e-3 -0.172 0.025-0.247 0.069-0.12 0.069-0.207 0.182-0.243 0.315-0.035 0.134-0.017 0.276 0.052 0.395 0.069 0.12 0.183 0.207 0.316 0.243 0.134 0.035 0.276 0.017 0.395-0.052 0.12-0.069 0.207-0.183 0.243-0.316 0.035-0.133 0.016-0.275-0.052-0.395-0.096-0.165-0.274-0.264-0.464-0.259zm6.376 0.253c-0.133 7e-3 -0.253 0.08-0.32 0.195-0.052 0.09-0.066 0.197-0.039 0.297s0.092 0.186 0.182 0.238 0.197 0.066 0.297 0.039 0.186-0.093 0.238-0.183 0.066-0.196 0.039-0.297c-0.027-0.1-0.092-0.185-0.182-0.237-0.065-0.038-0.14-0.055-0.215-0.052zm-0.883 0.354c-0.112 5e-3 -0.214 0.067-0.271 0.164-0.091 0.158-0.036 0.36 0.122 0.451 0.076 0.045 0.166 0.057 0.251 0.034s0.157-0.078 0.201-0.154 0.056-0.166 0.033-0.251-0.078-0.157-0.154-0.201c-0.056-0.032-0.119-0.047-0.182-0.043zm-2.389 0.262c-0.117 3e-3 -0.232 0.036-0.334 0.095-0.335 0.194-0.451 0.622-0.257 0.958 0.093 0.161 0.246 0.279 0.426 0.327 0.18 0.049 0.371 0.023 0.533-0.07 0.161-0.093 0.278-0.246 0.326-0.426s0.023-0.372-0.07-0.533c-0.128-0.222-0.367-0.356-0.624-0.351zm-4.461 0.23c-0.088 2e-3 -0.173 0.025-0.249 0.069-0.119 0.069-0.207 0.182-0.242 0.316-0.036 0.133-0.017 0.275 0.052 0.394 0.069 0.12 0.182 0.207 0.316 0.243 0.133 0.036 0.275 0.017 0.394-0.052 0.12-0.069 0.207-0.183 0.243-0.316s0.017-0.275-0.052-0.395c-0.095-0.164-0.272-0.264-0.462-0.259zm2.04 0.161c-0.1 2e-3 -0.198 0.03-0.284 0.079-0.137 0.08-0.237 0.21-0.277 0.362-0.041 0.153-0.02 0.316 0.06 0.453 0.164 0.284 0.528 0.381 0.813 0.217 0.284-0.165 0.382-0.529 0.218-0.813-0.109-0.189-0.312-0.303-0.53-0.298zm4.067 0.754c-0.135 4e-3 -0.267 0.041-0.384 0.108-0.186 0.107-0.321 0.284-0.377 0.491s-0.027 0.427 0.081 0.613c0.107 0.186 0.283 0.321 0.49 0.376 0.207 0.056 0.428 0.027 0.613-0.081 0.386-0.223 0.518-0.716 0.295-1.102-0.147-0.256-0.423-0.411-0.718-0.405zm-5.426 0.344c-0.1 3e-3 -0.197 0.03-0.284 0.081-0.284 0.164-0.381 0.528-0.217 0.813 0.164 0.284 0.528 0.382 0.813 0.218s0.382-0.528 0.218-0.813c-0.108-0.189-0.312-0.304-0.53-0.299zm2.503 0.145c-0.118 3e-3 -0.233 0.035-0.335 0.094-0.335 0.193-0.45 0.622-0.257 0.958 0.093 0.161 0.247 0.279 0.426 0.327 0.18 0.048 0.372 0.023 0.533-0.07s0.279-0.247 0.327-0.427c0.048-0.179 0.023-0.371-0.071-0.532-0.128-0.222-0.367-0.356-0.623-0.35zm5.129 0.358c-0.157 4e-3 -0.312 0.048-0.448 0.127-0.451 0.26-0.606 0.837-0.346 1.288 0.261 0.451 0.838 0.606 1.289 0.345 0.451-0.26 0.605-0.837 0.345-1.288-0.172-0.299-0.494-0.48-0.84-0.472zm-6.488 0.741c-0.117 3e-3 -0.232 0.035-0.334 0.094-0.336 0.193-0.451 0.622-0.257 0.958 0.093 0.161 0.246 0.279 0.426 0.327s0.371 0.023 0.533-0.07c0.161-0.093 0.278-0.246 0.326-0.426s0.023-0.372-0.07-0.533c-0.129-0.222-0.368-0.356-0.624-0.35zm3.005 0.046c-0.135 3e-3 -0.268 0.041-0.384 0.108-0.387 0.223-0.519 0.716-0.297 1.103 0.107 0.185 0.284 0.321 0.491 0.377 0.207 0.055 0.427 0.026 0.613-0.081s0.321-0.284 0.376-0.491c0.056-0.207 0.026-0.427-0.081-0.613-0.148-0.255-0.423-0.41-0.718-0.403z" fill="#ebdbb2"/>
</svg>
