<svg xmlns="http://www.w3.org/2000/svg" width="16" height="16" fill="none" viewBox="0 0 16 16">
 <defs>
  <style id="current-color-scheme" type="text/css">
   .ColorScheme-Text { color:#ebdbb2; } .ColorScheme-Highlight { color:#458588; }
  </style>
  <linearGradient id="arrongin" x1="0%" x2="0%" y1="0%" y2="100%">
   <stop offset="0%" style="stop-color:#d79921; stop-opacity:1"/>
   <stop offset="100%" style="stop-color:#b57614; stop-opacity:1"/>
  </linearGradient>
  <linearGradient id="aurora" x1="0%" x2="0%" y1="0%" y2="100%">
   <stop offset="0%" style="stop-color:#83a598; stop-opacity:1"/>
   <stop offset="100%" style="stop-color:#b16286; stop-opacity:1"/>
  </linearGradient>
  <linearGradient id="fitdance" x1="0%" x2="0%" y1="0%" y2="100%">
   <stop offset="0%" style="stop-color:#8ec07c; stop-opacity:1"/>
   <stop offset="100%" style="stop-color:#458588; stop-opacity:1"/>
  </linearGradient>
  <linearGradient id="oomox" x1="0%" x2="0%" y1="0%" y2="100%">
   <stop offset="0%" style="stop-color:#458588; stop-opacity:1"/>
   <stop offset="100%" style="stop-color:#928374; stop-opacity:1"/>
  </linearGradient>
  <linearGradient id="rainblue" x1="0%" x2="0%" y1="0%" y2="100%">
   <stop offset="0%" style="stop-color:#b8bb26; stop-opacity:1"/>
   <stop offset="100%" style="stop-color:#076678; stop-opacity:1"/>
  </linearGradient>
  <linearGradient id="sunrise" x1="0%" x2="0%" y1="0%" y2="100%">
   <stop offset="0%" style="stop-color: #fe8019; stop-opacity:1"/>
   <stop offset="100%" style="stop-color: #fabd2f; stop-opacity:1"/>
  </linearGradient>
  <linearGradient id="telinkrin" x1="0%" x2="0%" y1="0%" y2="100%">
   <stop offset="0%" style="stop-color: #83a598; stop-opacity:1"/>
   <stop offset="100%" style="stop-color: #83a598; stop-opacity:1"/>
  </linearGradient>
  <linearGradient id="60spsycho" x1="0%" x2="0%" y1="0%" y2="100%">
   <stop offset="0%" style="stop-color: #fb4934; stop-opacity:1"/>
   <stop offset="25%" style="stop-color: #fabd2f; stop-opacity:1"/>
   <stop offset="50%" style="stop-color: #fe8019; stop-opacity:1"/>
   <stop offset="100%" style="stop-color: #689d6a; stop-opacity:1"/>
  </linearGradient>
  <linearGradient id="90ssummer" x1="0%" x2="0%" y1="0%" y2="100%">
   <stop offset="0%" style="stop-color: #b16286; stop-opacity:1"/>
   <stop offset="20%" style="stop-color: #8ec07c; stop-opacity:1"/>
   <stop offset="50%" style="stop-color: #fabd2f; stop-opacity:1"/>
   <stop offset="100%" style="stop-color: #458588; stop-opacity:1"/>
  </linearGradient>
  <linearGradient id="cyberneon" x1="0%" x2="0%" y1="0%" y2="100%">
    <stop offset="0" style="stop-color:#83a598; stop-opacity:1"/>
    <stop offset="1" style="stop-color:#b16286; stop-opacity:1"/>
  </linearGradient>
  <clipPath id="clip0">
      <rect width="16" height="16" fill="white"/>
  </clipPath>
 </defs>
<g clip-path="url(#clip0)">
    <path fill="currentColor" class="ColorScheme-Text" fill-rule="evenodd" d="M8.39704 6.77422C10.0479 7.76614 12.1902 7.23199 13.1822 5.58116C14.1741 3.93032 13.6399 1.78795 11.9891 0.79603C10.3383 -0.19589 8.19589 0.338264 7.20397 1.9891C6.21205 3.63993 6.7462 5.7823 8.39704 6.77422ZM9.40071 5.10385C9.13461 4.94932 9.11336 4.18742 9.55126 3.45932C10.0878 2.56714 11.2866 3.31036 10.7469 4.20763C10.2957 4.95757 9.66681 5.25838 9.40071 5.10385Z" clip-rule="evenodd"/>
    <path fill="currentColor" class="ColorScheme-Text" fill-rule="evenodd" d="M9.10149 5.40268L9.27732 5.50833L8.64342 6.5633L8.73134 6.61613L8.38798 7.18757L8.03632 6.97627L8.37968 6.40483L8.46759 6.45765L9.10149 5.40268ZM5.84449 10.0267L6.38581 9.03574L5.50245 8.50497L5.8194 7.97748L6.68108 8.49523L7.6407 6.73857L8.03632 6.97628L8.38798 7.18757L8.78359 7.42528L7.68307 9.09728L8.54475 9.61504L8.2278 10.1425L7.34444 9.61175L6.72363 10.5549L6.54783 10.4493L6.48177 10.5592C6.28682 10.8834 5.75724 10.5701 5.95429 10.2422L6.02032 10.1323L5.84449 10.0267Z" clip-rule="evenodd"/>
    <path fill="currentColor" class="ColorScheme-Text" fill-rule="evenodd" d="M6.37639 6.65222C6.41666 6.58518 6.41673 6.5052 6.38357 6.44034C6.47424 6.27351 6.4367 6.07495 6.29557 5.99016C6.15445 5.90536 5.96151 5.96543 5.85677 6.12381C5.78394 6.12498 5.71335 6.16259 5.67307 6.22962L2.98244 10.7076C2.9221 10.6927 2.8566 10.7179 2.82292 10.7739L2.12756 11.9312C2.09387 11.9873 2.10238 12.0569 2.14387 12.1032L2.03491 12.2845L1.71796 12.812C1.60127 13.0062 1.66411 13.2583 1.85832 13.375C2.05254 13.4917 2.30458 13.4288 2.42128 13.2346L2.73823 12.7071L2.84719 12.5258C2.90753 12.5407 2.97302 12.5155 3.0067 12.4594L3.70207 11.3022C3.73575 11.2461 3.72724 11.1765 3.68576 11.1302L6.37639 6.65222Z" clip-rule="evenodd"/>
    <path fill="currentColor" class="ColorScheme-Text" fill-rule="evenodd" d="M9.4534 8.50107C9.49368 8.43404 9.56427 8.39643 9.6371 8.39526C9.74184 8.23688 9.93478 8.17681 10.0759 8.26161C10.217 8.3464 10.2546 8.54496 10.1639 8.71179C10.1971 8.77665 10.197 8.85663 10.1567 8.92367L7.46608 13.4016C7.50757 13.4479 7.51608 13.5176 7.48239 13.5736L6.78703 14.7309C6.75335 14.787 6.68785 14.8121 6.62751 14.7972L6.51855 14.9786L5.81524 14.556L5.9242 14.3746C5.88271 14.3284 5.8742 14.2587 5.90789 14.2027L6.60325 13.0454C6.63693 12.9893 6.70243 12.9641 6.76277 12.979L9.4534 8.50107ZM5.49829 15.0835L5.81524 14.556L6.51855 14.9786L6.20161 15.5061C6.08491 15.7003 5.83287 15.7631 5.63865 15.6464C5.44444 15.5297 5.38159 15.2777 5.49829 15.0835Z" clip-rule="evenodd"/>
</g>
</svg>
