<svg width="256" height="256" version="1.1" xmlns="http://www.w3.org/2000/svg">
  <path d="m53.047 21c-36.322 0-40.047 2.4809-40.047 37.772v96.653h230v-77.055c0-35.291-3.6782-41.37-40-41.37h-90l-16-16z" fill="#98971a"/>
  <path d="m53 71c-36.338 0-39.996 6.1437-39.996 41.397v83.653c0 35.313 3.6859 38.951 40.002 38.951h149.99c36.316 0 40-3.639 40-38.951v-99.621c0-33.574-2.6872-40.428-36-40.428h-87l-17 15z" fill="#79740e"/>
  <path d="m243 193.99c0 35.291-3.6527 37.006-39.974 37.006h-150.02c-36.319 0-40.005-1.7148-40.005-37v2c0 35.641 4.0005 39 40.005 39h150.02c36.399 0 39.974-3.7272 39.974-38.998z" fill="#282828" opacity=".3"/>
  <path d="m120 56-17 15h-50c-36.156 0-39.996 5.9171-39.996 41.433v4.1406c0-35.295 3.6836-41.574 39.996-41.574h51l17-15 86.001-0.01105c33.136-0.004256 35.999 7.0504 35.999 40.591v-4.1407c0-33.541-2.6494-40.44-36-40.44z" fill="#b8bb26" opacity=".3"/>
  <path d="m97 21-43.953 1e-6c-36.322 0-40.052 2.4512-40.052 37.744v3.9101c0-35.291 3.6815-37.655 40.005-37.655h43l16 16h91c36.322 0 40 5.9893 40 41.281v-3.9072c0-35.291-3.6777-41.373-40-41.373h-90z" fill="#ebdbb2" opacity=".3"/>
  <path d="m142.24 103c-14.28 0-27.336 8.0334-33.814 20.757a23.75 23.75 0 0 0-8.93-1.7634c-11.881 0-21.909 8.7993-23.494 20.574-11.501 3.9544-19.238 14.767-19.249 26.926 0 15.74 12.766 28.506 28.506 28.506h85.488c15.74 0 28.506-12.766 28.506-28.506a28.469 28.469 0 0 0-19.065-26.855c0.0357-0.54624 0.0534-1.1043 0.0713-1.6506 0-20.983-17.029-37.988-38.018-37.988zm0 23.75c8.1343 0 14.214 6.074 14.244 14.191v0.0712a23.752 23.752 0 0 0 15.841 24.029c1.9831 0.69468 3.1706 2.3691 3.1825 4.4531 0 2.9034-1.8525 4.7559-4.7559 4.7559h-85.488c-2.8975 0-4.7441-1.8406-4.7559-4.7322v-0.0238c6e-3 -2.1018 1.2053-3.7644 3.2003-4.4531a23.75 23.75 0 0 0 15.818-19.273c11.421 4.6265 24.483-0.24937 30.08-11.228 2.4522-4.8212 7.2674-7.79 12.635-7.79z" fill="#282828" opacity=".1"/>
  <path d="m142.24 100c-14.28 0-27.336 8.0334-33.814 20.757a23.75 23.75 0 0 0-8.93-1.7634c-11.881 0-21.909 8.7993-23.494 20.574-11.501 3.9544-19.238 14.767-19.249 26.926 0 15.74 12.766 28.506 28.506 28.506h85.488c15.74 0 28.506-12.766 28.506-28.506a28.469 28.469 0 0 0-19.065-26.855c0.0357-0.54624 0.0534-1.1043 0.0713-1.6506 0-20.983-17.029-37.988-38.018-37.988zm0 23.75c8.1343 0 14.214 6.074 14.244 14.191v0.0712a23.752 23.752 0 0 0 15.841 24.029c1.9831 0.69468 3.1706 2.3691 3.1825 4.4531 0 2.9034-1.8525 4.7559-4.7559 4.7559h-85.488c-2.8975 0-4.7441-1.8406-4.7559-4.7322v-0.0238c6e-3 -2.1018 1.2053-3.7644 3.2003-4.4531a23.75 23.75 0 0 0 15.818-19.273c11.421 4.6265 24.483-0.24937 30.08-11.228 2.4522-4.8212 7.2674-7.79 12.635-7.79z" fill="#98971a"/>
  <path d="m142.24 100c-14.28 0-27.334 8.0339-33.812 20.758a23.75 23.75 0 0 0-8.9316-1.7637c-11.881 0-21.909 8.7999-23.494 20.574-11.501 3.9544-19.237 14.766-19.248 26.926 0 0.44507 0.04621 0.87827 0.06641 1.3184 0.68648-11.464 8.2145-21.473 19.182-25.244 1.5847-11.774 11.614-20.574 23.494-20.574a23.75 23.75 0 0 1 8.9297 1.7637c6.4782-12.724 19.534-20.758 33.814-20.758 20.364 0 36.998 16.008 37.971 36.125 0.0181-0.37974 0.0365-0.76047 0.0488-1.1367 3e-5 -20.983-17.028-37.988-38.018-37.988zm37.984 39.656c0.0153 0.44303 0.0352 0.88527 0.0352 1.332-0.0179 0.54626-0.0366 1.1042-0.0723 1.6504a28.469 28.469 0 0 1 18.965 25.877c0.0472-0.67045 0.10157-1.339 0.10157-2.0215a28.469 28.469 0 0 0-19.029-26.838zm-99.5 28.365c-0.14176 0.45844-0.21531 0.95225-0.2168 1.4727v0.0234c0.01184 2.8916 1.8584 4.7324 4.7559 4.7324h85.488c2.9034 0 4.7559-1.8525 4.7559-4.7559-3e-3 -0.51395-0.0805-1.0015-0.2207-1.457-0.55277 1.992-2.1918 3.2129-4.5352 3.2129h-85.488c-2.3513 0-3.9907-1.2264-4.5391-3.2285z" fill="#ebdbb2" opacity=".1"/>
</svg>
