<svg width="256" height="256" version="1.1" xmlns="http://www.w3.org/2000/svg">
  <path d="m53.047 21c-36.322 0-40.047 2.4809-40.047 37.772v96.653h230v-77.055c0-35.291-3.6782-41.37-40-41.37h-90l-16-16z" fill="#427b58"/>
  <path d="m53 71c-36.338 0-39.996 6.1437-39.996 41.397v83.653c0 35.313 3.6859 38.951 40.002 38.951h149.99c36.316 0 40-3.639 40-38.951v-99.621c0-33.574-2.6872-40.428-36-40.428h-87l-17 15z" fill="#689d6a"/>
  <path d="m243 193.99c0 35.291-3.6527 37.006-39.974 37.006h-150.02c-36.319 0-40.005-1.7148-40.005-37v2c0 35.641 4.0005 39 40.005 39h150.02c36.399 0 39.974-3.7272 39.974-38.998z" fill="#427b58"/>
  <path d="m120 56-17 15h-50c-36.156 0-39.996 5.9171-39.996 41.433v4.1406c0-35.295 3.6836-41.574 39.996-41.574h51l17-15 86.001-0.01105c33.136-0.0043 35.999 7.0504 35.999 40.591v-4.1407c0-33.541-2.6494-40.44-36-40.44z" fill="#ebdbb2" opacity=".3"/>
  <path d="m97 21-43.953 1e-6c-36.322 0-40.052 2.4512-40.052 37.744v3.9101c0-35.291 3.6815-37.655 40.005-37.655h43l16 16h91c36.322 0 40 5.9893 40 41.281v-3.9072c0-35.291-3.6777-41.373-40-41.373h-90z" fill="#ebdbb2" opacity=".4"/>
  <path d="m112.29 98c-3.1426 0-3.1378 6e-3 -6.1225 3.1764l-8.5164 12.539h-19.932c-6.9136 0-12.57 5.1554-12.57 11.879v70.189c0 6.722 5.6535 12.217 12.57 12.217h100.56c6.9136 0 12.57-5.4924 12.57-12.217v-70.189c0-6.722-5.6535-11.879-12.57-11.879h-19.932l-8.6263-12.657c-2.8692-3.0483-2.8723-3.0538-6.0149-3.0538zm66.685 23.569a3.9282 3.9282 0 0 1 0.092 0 3.9282 3.9282 0 0 1 3.9282 3.9282 3.9282 3.9282 0 0 1-3.9282 3.9282 3.9282 3.9282 0 0 1-3.9282-3.9282 3.9282 3.9282 0 0 1 3.8363-3.9282zm-51.452 7.8564a31.426 31.426 0 0 1 0.47531 0 31.426 31.426 0 0 1 31.426 31.426 31.426 31.426 0 0 1-31.426 31.426 31.426 31.426 0 0 1-31.426-31.426 31.426 31.426 0 0 1 30.946-31.426zm0.0919 15.713a15.713 15.713 0 0 0-15.328 15.713 15.713 15.713 0 0 0 15.713 15.713 15.713 15.713 0 0 0 15.713-15.713 15.713 15.713 0 0 0-15.713-15.713 15.713 15.713 0 0 0-0.38339 0z" fill="#ebdbb2" opacity=".1"/>
  <path d="m112.29 95c-3.1426 0-3.1378 0.0062-6.1225 3.1764l-8.5164 12.539h-19.932c-6.9136 0-12.57 5.1554-12.57 11.879v70.189c0 6.722 5.6535 12.217 12.57 12.217h100.56c6.9136 0 12.57-5.4924 12.57-12.217v-70.189c0-6.722-5.6535-11.879-12.57-11.879h-19.932l-8.6263-12.657c-2.8692-3.0483-2.8723-3.0538-6.0149-3.0538zm66.685 23.569a3.9282 3.9282 0 0 1 0.092 0 3.9282 3.9282 0 0 1 3.9282 3.9282 3.9282 3.9282 0 0 1-3.9282 3.9282 3.9282 3.9282 0 0 1-3.9282-3.9282 3.9282 3.9282 0 0 1 3.8363-3.9282zm-51.452 7.8564a31.426 31.426 0 0 1 0.47531 0 31.426 31.426 0 0 1 31.426 31.426 31.426 31.426 0 0 1-31.426 31.426 31.426 31.426 0 0 1-31.426-31.426 31.426 31.426 0 0 1 30.946-31.426zm0.0919 15.713a15.713 15.713 0 0 0-15.328 15.713 15.713 15.713 0 0 0 15.713 15.713 15.713 15.713 0 0 0 15.713-15.713 15.713 15.713 0 0 0-15.713-15.713 15.713 15.713 0 0 0-0.38339 0z" fill="#427b58"/>
  <path d="m112.29 95c-3.1426 0-3.1364 6e-3 -6.1211 3.1758l-8.5176 12.539h-19.932c-6.9136 0-12.57 5.1553-12.57 11.879v3c0-6.7236 5.6567-11.879 12.57-11.879h19.932l8.5176-12.539c2.9847-3.1704 2.9785-3.1758 6.1211-3.1758l31.416 4e-3c3.1426 0 3.1464 6e-3 6.0156 3.0547l8.627 12.656h19.932c6.9165 0 12.57 5.1569 12.57 11.879v-3c0-6.722-5.6538-11.879-12.57-11.879h-19.932l-8.627-12.656c-2.8692-3.0483-2.873-3.0547-6.0156-3.0547zm70.338 28.871a3.9282 3.9282 0 0 1-3.5605 2.5547 3.9282 3.9282 0 0 1-3.5293-2.4414 3.9282 3.9282 0 0 0-0.39844 1.5117 3.9282 3.9282 0 0 0 3.9277 3.9297 3.9282 3.9282 0 0 0 3.9297-3.9297 3.9282 3.9282 0 0 0-0.36914-1.625zm-55.012 18.268a15.713 15.713 0 0 0-15.328 15.713 15.713 15.713 0 0 0 0.19531 1.4863 15.713 15.713 0 0 1 15.133-14.199h2e-3a15.713 15.713 0 0 1 0.38281 0 15.713 15.713 0 0 1 15.576 13.756 15.713 15.713 0 0 0 0.13671-1.043 15.713 15.713 0 0 0-15.713-15.713 15.713 15.713 0 0 0-0.38281 0zm31.73 16.51a31.426 31.426 0 0 1-31.348 30.629 31.426 31.426 0 0 1-31.279-29.934 31.426 31.426 0 0 0-0.14648 1.5078 31.426 31.426 0 0 0 31.426 31.426 31.426 31.426 0 0 0 31.426-31.426 31.426 31.426 0 0 0-0.0781-2.2031z" fill="#282828" opacity=".05"/>
</svg>
