<svg width="256" height="256" version="1.1" xmlns="http://www.w3.org/2000/svg">
  <path d="m53.047 21c-36.322 0-40.047 2.4809-40.047 37.772v96.653h230v-77.055c0-35.291-3.6782-41.37-40-41.37h-90l-16-16z" fill="#b16286"/>
  <path d="m53 71c-36.338 0-39.996 6.1437-39.996 41.397v83.653c0 35.313 3.6859 38.951 40.002 38.951h149.99c36.316 0 40-3.639 40-38.951v-99.621c0-33.574-2.6872-40.428-36-40.428h-87l-17 15z" fill="#d3869b"/>
  <path d="m243 193.99c0 35.291-3.6527 37.006-39.974 37.006h-150.02c-36.319 0-40.005-1.7148-40.005-37v2c0 35.641 4.0005 39 40.005 39h150.02c36.399 0 39.974-3.7272 39.974-38.998z" fill="#b16286"/>
  <path d="m120 56-17 15h-50c-36.156 0-39.996 5.9171-39.996 41.433v4.1406c0-35.295 3.6836-41.574 39.996-41.574h51l17-15 86.001-0.01105c33.136-0.004256 35.999 7.0504 35.999 40.591v-4.1407c0-33.541-2.6494-40.44-36-40.44z" fill="#ebdbb2" opacity=".3"/>
  <path d="m97 21-43.953 1e-6c-36.322 0-40.052 2.4512-40.052 37.744v3.9101c0-35.291 3.6815-37.655 40.005-37.655h43l16 16h91c36.322 0 40 5.9893 40 41.281v-3.9072c0-35.291-3.6777-41.373-40-41.373h-90z" fill="#ebdbb2" opacity=".4"/>
  <path d="m138.99 88c-14.047 18.985-25.316 42.515-26.718 69.501l-0.17414 3.296h24.816c-1.3377 5.4972-2.0985 11.109-2.3369 16.725-18.074 1.076-34.88-0.90459-51.052-9.2245l-2.8605 5.5811c17.261 8.8816 35.237 10.984 53.856 9.921 0.2786 10.046 2.228 19.949 5.6856 29.2l5.4936-3.1397c-3.0933-8.377-4.9837-17.351-5.3891-26.37 14.707-0.51168 26.012-4.055 35.023-9.4209l-3.1915-5.3891c-8.0618 4.8007-18.154 8.0511-31.879 8.5458 0.20539-6.3357 1.1618-12.618 2.9826-18.663l1.2037-4.0291h-25.084c2.0494-23.619 11.662-44.702 24.137-62.017zm-45.104 26.825v15.993h6.2437v-15.993zm58.044 0v15.993h6.2616v-15.993z" fill="#ebdbb2" opacity=".1"/>
  <path d="m138.99 85c-14.047 18.985-25.316 42.515-26.718 69.501l-0.17414 3.296h24.816c-1.3377 5.4972-2.0985 11.109-2.3369 16.725-18.074 1.076-34.88-0.90459-51.052-9.2245l-2.8605 5.5811c17.261 8.8816 35.237 10.984 53.856 9.921 0.2786 10.046 2.228 19.949 5.6856 29.2l5.4936-3.1397c-3.0933-8.377-4.9837-17.351-5.3891-26.37 14.707-0.51168 26.012-4.055 35.023-9.4209l-3.1915-5.3891c-8.0618 4.8007-18.154 8.0511-31.879 8.5458 0.20539-6.3357 1.1618-12.618 2.9826-18.663l1.2037-4.0291h-25.084c2.0494-23.619 11.662-44.702 24.137-62.017zm-45.104 26.825v15.993h6.2437v-15.993zm58.044 0v15.993h6.2616v-15.993z" fill="#b16286"/>
  <path d="m138.99 85.001c-14.047 18.985-25.317 42.516-26.719 69.502l-0.17383 3.2949h0.1582l0.0156-0.29493c1.402-26.986 12.672-50.517 26.719-69.502l3.2774 3.2793c0.41115-0.58824 0.81662-1.1838 1.2344-1.7637zm-45.104 26.824v3h6.2422v-3zm58.043 0v3h6.2617v-3zm-32.242 39.709c-0.11449 0.99753-0.23491 1.9932-0.32227 3h24.187l0.89649-3zm16.578 9.2637c-0.92592 4.533-1.4942 9.1253-1.6894 13.725-18.074 1.076-34.879-0.9047-51.051-9.2246l-2.8613 5.582c0.40899 0.21044 0.82068 0.39868 1.2305 0.60156l1.6309-3.1836c16.172 8.3199 32.977 10.301 51.051 9.2246 0.2384-5.616 1.0002-11.227 2.3379-16.725zm35.877 4.8828c-8.0234 4.7779-18.064 8.0167-31.689 8.5352-0.071 1.0029-0.15683 2.0054-0.18945 3.0117 13.725-0.4947 23.817-3.7462 31.879-8.5469l1.8516 3.127c0.44314-0.24898 0.9074-0.48077 1.3398-0.73828zm-31.637 17.799c-0.0669 2e-3 -0.1283 9e-3 -0.19531 0.0117 0.36537 8.1287 1.9462 16.216 4.5176 23.867l0.8711-0.49804c-2.7513-7.4509-4.5438-15.374-5.1934-23.381z" fill="#282828" opacity=".05"/>
</svg>
