<svg width="256" height="256" version="1.1" xmlns="http://www.w3.org/2000/svg">
  <path d="m53.047 21c-36.322 0-40.047 2.4809-40.047 37.772v96.653h230v-77.055c0-35.291-3.6782-41.37-40-41.37h-90l-16-16z" fill="#8f3f71"/>
  <path d="m53 71c-36.338 0-39.996 6.1437-39.996 41.397v83.653c0 35.313 3.6859 38.951 40.002 38.951h149.99c36.316 0 40-3.639 40-38.951v-99.621c0-33.574-2.6872-40.428-36-40.428h-87l-17 15z" fill="#b16286"/>
  <path d="m243 193.99c0 35.291-3.6527 37.006-39.974 37.006h-150.02c-36.319 0-40.005-1.7148-40.005-37v2c0 35.641 4.0005 39 40.005 39h150.02c36.399 0 39.974-3.7272 39.974-38.998z" fill="#8f3f71"/>
  <path d="m120 56-17 15h-50c-36.156 0-39.996 5.9171-39.996 41.433v4.1406c0-35.295 3.6836-41.574 39.996-41.574h51l17-15 86.001-0.01105c33.136-0.0043 35.999 7.0504 35.999 40.591v-4.1407c0-33.541-2.6494-40.44-36-40.44z" fill="#d3869b" opacity=".4"/>
  <path d="m97 21-43.953 1e-6c-36.322 0-40.052 2.4512-40.052 37.744v3.9101c0-35.291 3.6815-37.655 40.005-37.655h43l16 16h91c36.322 0 40 5.9893 40 41.281v-3.9072c0-35.291-3.6777-41.373-40-41.373h-90z" fill="#ebdbb2" opacity=".3"/>
  <path d="m110.01 107.98c-3.409-3.9e-4 -6.5257 1.9254-8.0506 4.9743l-15.507 31.023h-37.449v18h43.002c3.409 4e-4 6.5257-1.9254 8.0506-4.9743l9.9451-19.899 27.945 55.899c3.3163 6.6352 12.785 6.6352 16.101 0l15.507-31.023h37.449v-18h-43.002c-3.409-4e-4 -6.5257 1.9253-8.0506 4.9743l-9.9451 19.899-27.945-55.899c-1.5249-3.049-4.6415-4.9747-8.0506-4.9743z" fill="#ebdbb2" opacity=".1"/>
  <path d="m110.01 105.03c-3.409-3.9e-4 -6.5257 1.9254-8.0506 4.9743l-15.507 31.023h-37.449v18h43.002c3.409 4e-4 6.5257-1.9254 8.0506-4.9743l9.9451-19.899 27.945 55.899c3.3163 6.6352 12.785 6.6352 16.101 0l15.507-31.023h37.449v-18h-43.002c-3.409-4e-4 -6.5257 1.9253-8.0506 4.9743l-9.9451 19.899-27.945-55.899c-1.5249-3.049-4.6415-4.9747-8.0506-4.9743z" fill="#8f3f71"/>
  <path d="m110.01 105.01c-3.409-3.9e-4 -6.5259 1.9257-8.0508 4.9746l-15.506 31.023h-37.449v2.9707h37.449l15.506-31.023c1.5249-3.0489 4.6418-4.975 8.0508-4.9746 3.4091-4e-4 6.5259 1.9256 8.0508 4.9746l27.945 55.898 9.9453-19.898c1.5249-3.049 4.6398-4.975 8.0488-4.9746h43.002v15.029h2e-3v-18h-43.002c-3.409-4e-4 -6.5259 1.9256-8.0508 4.9746l-9.9453 19.898-27.945-55.898c-1.5249-3.049-4.6417-4.975-8.0508-4.9746z" fill="#282828" opacity=".1"/>
</svg>
