<svg width="256" height="256" style="isolation:isolate" version="1.1" xmlns="http://www.w3.org/2000/svg">
  <g transform="translate(0 -.1185)" filter="url(#a)">
    <linearGradient id="b" x1=".5002" x2=".5002" y2="1" gradientTransform="matrix(244,0,0,228,5.981,12.12)" gradientUnits="userSpaceOnUse">
      <stop stop-color="#83a598" offset="0"/>
      <stop stop-color="#458588" offset="1"/>
    </linearGradient>
    <path d="m165 12.12c72 0 85 15 85 87v56c0 70-13 85-85 85h-74c-72 0-85-15-85-85v-56c0-72 13-87 85-87z" fill="url(#b)"/>
  </g>
  <g transform="translate(.173 -19)" style="isolation:isolate">
    <path d="m127.9 63.13-0.0117 2e-3a64.48 64.48 0 0 0-51.56 25.78s-0.2409 0.4266-0.5371 1.02c-0.04685 0.0613-0.09595 0.1201-0.1426 0.1816-2.579 3.407-3.998 11.71 1.279 14.75l0.4609 0.2559c-3.013 6.769-4.714 14.25-4.75 22.12h-0.02148v5.129c-4.446 0.7078-8.751 2.327-12.54 4.758a6.81 6.81 0 0 0-3.133 5.732v5.809c-5.501 3.736-9.117 10.04-9.117 17.19s3.616 13.46 9.117 17.19v5.375a6.801 6.801 0 0 0 3.121 5.719 32.78 32.78 0 0 0 17.62 5.209h0.01953c2.407-3e-3 4.65-0.2859 6.781-0.8223v0.0762c4.489-1.132 8.472-3.396 12.39-6.627a6.829 6.829 0 0 0 2.143-3.273 6.819 6.819 0 0 0 0.04883-0.1465 6.829 6.829 0 0 0 0.2852-1.832v-42.08a6.811 6.811 0 0 0-0.03516-0.2422 6.827 6.827 0 0 0-0.207-1.387 6.811 6.811 0 0 0-0.2988-0.8672 6.827 6.827 0 0 0-0.2969-0.627 6.811 6.811 0 0 0-0.6016-0.9785 6.827 6.827 0 0 0-0.0059-6e-3 6.811 6.811 0 0 0-1.039-1.148c-5.772-4.761-11.68-7.436-19.17-7.441l-2e-3 6e-3c-0.4854 0-0.9721 0.015-1.457 0.0371v-4.508h0.01367c0-7.336 1.539-14.31 4.297-20.62l0.7109 0.3926a3.211 3.211 0 0 0 4.395-1.174c8.715-15.1 24.33-26 42.23-26s33.51 10.9 42.23 26a3.213 3.213 0 0 0 4.393 1.174l0.5586-0.2832c2.726 6.285 4.246 13.22 4.246 20.51h0.0156v4.49c-0.3476-0.0114-0.6951-0.0195-1.043-0.0195l-2e-3 -6e-3c-7.49 5e-3 -13.4 2.68-19.17 7.441-1.572 1.294-2.486 3.22-2.486 5.256a6.827 6.827 0 0 0-0.01 0.0801v42a6.829 6.829 0 0 0 0.3008 1.883 6.819 6.819 0 0 0 8e-3 0.0215 6.829 6.829 0 0 0 2.168 3.348c3.919 3.231 7.902 5.495 12.39 6.627v-0.0801c2.013 0.5076 4.13 0.7836 6.387 0.8164l-0.3711 0.0312s0.4525 5.387-3.188 10.92c-3.64 5.533-11.34 11.88-29.32 11.88h-6v5h6c19.11 0 28.91-7.155 33.5-14.12 4.462-6.78 4.026-13.64 3.998-14.01a32.78 32.78 0 0 0 13.43-4.9 6.801 6.801 0 0 0 3.121-5.719v-5.396c5.485-3.739 9.088-10.03 9.088-17.17 0-7.138-3.603-13.43-9.088-17.17v-5.83a6.81 6.81 0 0 0-3.133-5.732c-3.905-2.506-8.357-4.153-12.95-4.824v-5.062h-0.0234c-0.0356-7.787-1.698-15.19-4.646-21.9l0.3144-0.1602c6.196-3.581 3.331-11.93 1.717-14.72-0.1017-0.1363-0.2078-0.2672-0.3106-0.4023-0.3127-0.6867-0.5703-1.17-0.5703-1.17a64.48 64.48 0 0 0-51.54-25.76zm-11.91 153.9c-2.009 0-3.627 1.618-3.627 3.627v7.814c0 2.009 1.618 3.625 3.627 3.625h19.34c2.009 0 3.627-1.616 3.627-3.625v-7.814c0-2.009-1.618-3.627-3.627-3.627z" fill="#282828" opacity=".3" style="-inkscape-stroke:none;isolation:isolate"/>
    <path d="m182.5 195.7-4.984 0.418s0.452 5.387-3.188 10.92-11.34 11.88-29.32 11.88h-6v5h6c19.11 0 28.91-7.154 33.5-14.12 4.588-6.971 3.994-14.08 3.994-14.08z" color="#000000" fill="#504945" style="-inkscape-stroke:none;isolation:isolate"/>
    <path d="m116 213.8h19.34c2.009 0 3.626 1.617 3.626 3.626v7.815c0 2.009-1.617 3.626-3.626 3.626h-19.34c-2.009 0-3.626-1.617-3.626-3.626v-7.815c0-2.009 1.617-3.626 3.626-3.626z" fill="#3c3836" fill-rule="evenodd" stroke-width="6.043"/>
    <path d="m127.9 63.54c-20.68 0-40.16 7.363-52.24 23.31-2.579 3.407-3.998 11.71 1.279 14.75l4.337 2.401a3.211 3.211 0 0 0 4.394-1.174c8.715-15.1 24.33-26 42.23-26s33.51 10.9 42.23 26a3.213 3.213 0 0 0 4.394 1.174l4.091-2.078c6.196-3.581 3.331-11.93 1.717-14.72-12.06-16.17-31.62-23.67-52.43-23.67z" fill="#504945" stroke-width="1.336"/>
    <path d="m127.8 69.08c-30.35 0-55.01 24.57-55.15 54.9h-0.02084v27.18h3.625v-26.93h0.01336c0-28.48 23.05-51.53 51.53-51.53s51.53 23.04 51.53 51.53h0.0156v26.93h3.627v-27.18h-0.0235c-0.1387-30.33-24.79-54.9-55.15-54.9z" color="#000000" fill="#504945" stroke-width="1.336" style="-inkscape-stroke:none"/>
    <path d="m83.71 90.07a61.5 61.5 0 0 0-6.305 10.48c1.351 0.2926 2.698 1.018 3.711 1.92a57.77 57.77 0 0 1 7.885-12.4zm83.32 0.5879a56 56 0 0 1 7.625 11.99c0.9754-0.8711 2.275-1.577 3.586-1.854a59.55 59.55 0 0 0-6.096-10.13z" fill="#504945" stroke-width="1.336"/>
    <path d="m127.9 59.87a64.48 64.48 0 0 0-51.56 25.78s-5.788 9.369 1.403 13.52l2.298 1.327c1.575 0.9086 3.594 0.3701 4.508-1.212a50.03 50.03 0 0 1 43.36-25.03 50.02 50.02 0 0 1 43.35 25.03 3.308 3.308 0 0 0 4.515 1.212l2.358-1.368c6.88-3.721 1.32-13.5 1.32-13.5a64.48 64.48 0 0 0-51.54-25.76z" fill="url(#j-3)" stroke-width="1.336"/>
    <path d="m127.9 68.5c-24.32 0-39.56 12.53-49.83 30.33-0.07749 0.1349-0.1456 0.2766-0.1977 0.4222l2.166 1.253c1.577 0.9086 3.597 0.3701 4.509-1.212a50.03 50.03 0 0 1 43.36-25.03 50.02 50.02 0 0 1 43.35 25.03 3.308 3.308 0 0 0 4.515 1.212l2.164-1.253a3.149 3.149 0 0 0-0.2031-0.4222c-10.27-17.8-25.52-30.33-49.83-30.33z" fill="url(#k-5)" stroke-width="1.336"/>
    <path d="m89.38 162.6c0 11.47-9.301 20.77-20.77 20.77-11.47 0-20.77-9.301-20.77-20.77 0-11.47 9.299-20.77 20.77-20.77 11.47 0 20.77 9.299 20.77 20.77z" fill="#7c6f64" fill-opacity=".949" stroke-width="1.336"/>
    <path d="m77.71 128.7c-6.201 0-12.4 1.817-17.62 5.167a6.81 6.81 0 0 0-3.132 5.731v45.57a6.801 6.801 0 0 0 3.121 5.719 32.78 32.78 0 0 0 17.62 5.209h0.02004c7.479-0.0107 13.4-2.688 19.17-7.453a6.819 6.819 0 0 0 2.478-5.251v-42a6.811 6.811 0 0 0-2.485-5.256c-5.772-4.761-11.68-7.437-19.17-7.442z" fill="url(#n-6)" stroke-width="1.336"/>
    <path d="m84.5 129.6v65.75c4.489-1.132 8.471-3.396 12.39-6.627a6.829 6.829 0 0 0 2.478-5.251v-42a6.827 6.827 0 0 0-2.485-5.256c-3.908-3.225-7.89-5.491-12.38-6.618z" fill="#665c54" stroke-width="1.336"/>
    <path d="m166.6 162.6c0 11.47 9.301 20.77 20.77 20.77 11.47 0 20.77-9.301 20.77-20.77 0-11.47-9.299-20.77-20.77-20.77s-20.77 9.299-20.77 20.77z" fill="#7c6f64" fill-opacity=".949" stroke-width="1.336" style="isolation:isolate"/>
    <path d="m178.3 128.7c6.201 0 12.4 1.817 17.62 5.167a6.81 6.81 0 0 1 3.132 5.731v45.57a6.801 6.801 0 0 1-3.121 5.719 32.78 32.78 0 0 1-17.62 5.209h-0.02c-7.479-0.0107-13.4-2.688-19.17-7.453a6.819 6.819 0 0 1-2.478-5.251v-42c0-2.036 0.9126-3.962 2.485-5.256 5.772-4.761 11.68-7.437 19.17-7.442z" fill="url(#v-2)" stroke-width="1.336" style="isolation:isolate"/>
    <path d="m171.5 129.6v65.75c-4.489-1.132-8.471-3.396-12.39-6.627a6.829 6.829 0 0 1-2.478-5.251v-42a6.827 6.827 0 0 1 2.485-5.256c3.908-3.225 7.89-5.491 12.38-6.618z" fill="#665c54" stroke-width="1.336" style="isolation:isolate"/>
  </g>
  <defs>
    <linearGradient id="linearGradient31" x1=".5002" x2=".5002" y2="1" gradientTransform="matrix(244,0,0,228,5.988,12.12)" gradientUnits="userSpaceOnUse">
      <stop stop-color="#d5c4a1" offset="0"/>
      <stop stop-color="#d5c4a1" stop-opacity=".09804" offset=".1"/>
      <stop stop-color="#282828" stop-opacity=".1" offset=".9"/>
      <stop stop-color="#282828" stop-opacity=".4" offset="1"/>
    </linearGradient>
    <radialGradient id="j-3" cx="281.4" cy="-269.1" r="144.5" gradientTransform="matrix(.3893 0 0 .1421 18.09 104.2)" gradientUnits="userSpaceOnUse">
      <stop stop-color="#504945" offset="0"/>
      <stop stop-color="#665c54" stop-opacity=".9843" offset="1"/>
    </radialGradient>
    <radialGradient id="k-5" cx="282.1" cy="-218.9" r="128.5" gradientTransform="matrix(.4284 .01411 -.007255 .2201 5.476 119.6)" gradientUnits="userSpaceOnUse">
      <stop stop-color="#504945" stop-opacity=".9608" offset="0"/>
      <stop stop-color="#665c54" offset="1"/>
    </radialGradient>
    <radialGradient id="n-6" cx="134.3" cy="55.28" r="58.46" gradientTransform="matrix(1.021 .004008 -.003795 .9669 -62.37 99.73)" gradientUnits="userSpaceOnUse">
      <stop stop-color="#d5c4a1" offset="0"/>
      <stop stop-color="#a89984" offset=".649"/>
      <stop stop-color="#d5c4a1" offset="1"/>
    </radialGradient>
    <radialGradient id="v-2" cx="134.3" cy="55.28" r="58.46" gradientTransform="matrix(-1.021 .004008 .003795 .9669 318.4 99.73)" gradientUnits="userSpaceOnUse">
      <stop stop-color="#d5c4a1" offset="0"/>
      <stop stop-color="#a89984" offset=".649"/>
      <stop stop-color="#d5c4a1" offset="1"/>
    </radialGradient>
  </defs>
  <g transform="translate(.0005039 -.1185)" opacity=".5">
    <path d="m91 12.12c-72 0-85 15-85 87v56c0 70 13 85 85 85h74c72 0 85-15 85-85v-56c0-72-13-87-85-87zm0 4h74c68 0 80 15 80 83v56c0 66-12 81-80 81h-74c-68 0-80-15-80-81v-56c0-68 12-83 80-83z" fill="url(#linearGradient31)" opacity="1"/>
  </g>
</svg>
