<svg width="256" height="256" version="1.1" xmlns="http://www.w3.org/2000/svg" xmlns:xlink="http://www.w3.org/1999/xlink">
  <defs>
    <linearGradient id="linearGradient10" x1="128" x2="128" y1="12" y2="240" gradientUnits="userSpaceOnUse">
      <stop stop-color="#ebdbb2" stop-opacity=".2" offset="0"/>
      <stop stop-color="#ebdbb2" stop-opacity="0" offset=".24921"/>
      <stop stop-color="#1d2021" stop-opacity=".05" offset=".50485"/>
      <stop stop-color="#1d2021" stop-opacity=".15" offset=".75285"/>
      <stop stop-color="#1d2021" stop-opacity=".25" offset="1"/>
    </linearGradient>
    <linearGradient id="linearGradient15" x1="128" x2="128" y1="12" y2="240" gradientUnits="userSpaceOnUse">
      <stop stop-color="#83a598" offset="0"/>
      <stop stop-color="#458588" offset="1"/>
    </linearGradient>
    <linearGradient id="linearGradient18" x1="115.02" x2="115.02" y1="50.301" y2="195" gradientTransform="translate(-.048828 3)" gradientUnits="userSpaceOnUse">
      <stop stop-color="#504945" offset="0"/>
      <stop stop-color="#3c3836" offset="1"/>
    </linearGradient>
  </defs>
  <path d="m165 12c72 0 85 15 85 87v56c0 70-13 85-85 85h-74c-72 0-85-15-85-85v-56c0-72 13-87 85-87z" fill="url(#linearGradient15)" style="isolation:isolate"/>
  <path d="m128.04 58.301c-15.455 0-27.881 12.41-27.881 27.883v44.619c0 15.49 12.433 27.881 27.881 27.881 15.453 0 27.881-12.395 27.881-27.881v-44.619c0-15.49-12.437-27.883-27.881-27.883zm-44.652 55.479c-3.0545 0-5.5781 2.5339-5.5781 5.5762v11.15c0 26.19 19.536 47.054 44.609 49.84v11.5h-22.309c-3.0447 0-5.5762 2.5228-5.5762 5.5762 0 3.0546 2.5304 5.5781 5.5762 5.5781h55.77c1.511 0 2.8189-0.55225 3.9199-1.6562 1.105-1.102 1.6582-2.4129 1.6582-3.9219 0-3.0387-2.5232-5.5762-5.5781-5.5762h-22.301v-11.5c25.116-2.7787 44.621-23.723 44.621-49.84v-11.15c0-3.0412-2.5282-5.5762-5.5801-5.5762-3.0466 0-5.5762 2.5251-5.5762 5.5762v11.15c0 21.67-17.352 39.041-39.041 39.041-21.673 0-39.039-17.352-39.039-39.041v-11.15c0-3.04-2.5231-5.5762-5.5762-5.5762z" fill="#ebdbb2" opacity=".15" style="isolation:isolate"/>
  <path d="m128.04 53.301c-15.455 0-27.881 12.41-27.881 27.883v44.619c0 15.49 12.433 27.881 27.881 27.881 15.453 0 27.881-12.395 27.881-27.881v-44.619c0-15.49-12.437-27.883-27.881-27.883zm-44.652 55.479c-3.0545 0-5.5781 2.5339-5.5781 5.5762v11.15c0 26.19 19.536 47.054 44.609 49.84v11.5h-22.309c-3.0447 0-5.5762 2.5228-5.5762 5.5762 0 3.0546 2.5304 5.5781 5.5762 5.5781h55.77c1.511 0 2.8189-0.55225 3.9199-1.6562 1.105-1.102 1.6582-2.4129 1.6582-3.9219 0-3.0387-2.5232-5.5762-5.5781-5.5762h-22.301v-11.5c25.116-2.7787 44.621-23.723 44.621-49.84v-11.15c0-3.0412-2.5282-5.5762-5.5801-5.5762-3.0466 0-5.5762 2.5251-5.5762 5.5762v11.15c0 21.67-17.352 39.041-39.041 39.041-21.673 0-39.039-17.352-39.039-39.041v-11.15c0-3.04-2.5231-5.5762-5.5762-5.5762z" fill="url(#linearGradient18)" style="isolation:isolate"/>
  <path d="m128.04 53.301c-15.455 0-27.881 12.41-27.881 27.883v5c0-15.473 12.425-27.883 27.881-27.883 15.444 0 27.881 12.392 27.881 27.883v-5c0-15.49-12.437-27.883-27.881-27.883zm-44.652 55.479c-3.0545 1e-5 -5.5781 2.5339-5.5781 5.5762v5c0-3.0423 2.5237-5.5762 5.5781-5.5762 3.0515 1e-5 5.5736 2.5343 5.5762 5.5723v-4.9961c0-3.04-2.5231-5.5762-5.5762-5.5762zm89.232 0c-3.0466 0-5.5762 2.5251-5.5762 5.5762v5c0-3.051 2.5296-5.5762 5.5762-5.5762 3.052 0 5.5801 2.5349 5.5801 5.5762v-5c0-3.0412-2.5281-5.5762-5.5801-5.5762zm-5.5762 16.727c0 21.67-17.352 39.041-39.041 39.041-21.669 0-39.032-17.344-39.039-39.027v4.9863c2e-6 21.689 17.366 39.041 39.039 39.041 21.689 0 39.041-17.371 39.041-39.041zm-66.934 61.34c-3.0447 0-5.5762 2.5228-5.5762 5.5762 0 0.89601 0.21696 1.7457 0.60156 2.5 0.92671-1.8168 2.8229-3.0762 4.9746-3.0762h22.309v-5zm33.469 0v5h22.301c2.159 0 4.0517 1.2681 4.9766 3.084 0.4005-0.76235 0.60156-1.5996 0.60156-2.5078 0-3.0387-2.5232-5.5762-5.5781-5.5762z" fill="#282828" opacity=".3" style="isolation:isolate"/>
  <path d="m91 12c-72 0-85 15-85 87v56c0 70 13 85 85 85h74c72 0 85-15 85-85v-56c0-72-13-87-85-87zm0 5h74c35.653 0 55.307 3.9448 65.895 14.965 10.588 11.02 14.105 31.336 14.105 67.035v56c0 34.69-3.4936 54.457-14.07 65.25-10.577 10.793-30.277 14.75-65.93 14.75h-74c-35.653 0-55.353-3.9574-65.93-14.75-10.577-10.793-14.07-30.56-14.07-65.25v-56c0-35.699 3.5176-56.015 14.105-67.035 10.588-11.02 30.242-14.965 65.895-14.965z" fill="url(#linearGradient10)" style="isolation:isolate"/>
</svg>
