<svg width="256" height="256" version="1.1" xmlns="http://www.w3.org/2000/svg">
  <linearGradient id="b" x1=".5002" x2=".5002" y2="1" gradientTransform="matrix(244,0,0,228,5.981,12)" gradientUnits="userSpaceOnUse">
    <stop stop-color="#ebdbb2" offset="0"/>
    <stop stop-color="#d5c4a1" offset="1"/>
  </linearGradient>
  <defs>
    <linearGradient id="linearGradient10" x1="128" x2="128" y1="12" y2="240" gradientUnits="userSpaceOnUse">
      <stop stop-color="#282828" stop-opacity=".1" offset="0"/>
      <stop stop-color="#282828" stop-opacity=".05" offset=".1966"/>
      <stop stop-color="#282828" stop-opacity="0" offset=".50485"/>
      <stop stop-color="#282828" stop-opacity=".1" offset=".74636"/>
      <stop stop-color="#282828" stop-opacity=".2" offset="1"/>
    </linearGradient>
  </defs>
  <path d="m165 12c72 0 85 15 85 87v56c0 70-13 85-85 85h-74c-72 0-85-15-85-85v-56c0-72 13-87 85-87z" fill="url(#b)" style="isolation:isolate"/>
  <circle cx="214.41" cy="44.845" r="8.155" fill="#fbf1c7" opacity=".4" vector-effect="non-scaling-stroke" style="isolation:isolate"/>
  <circle cx="214.41" cy="41.824" r="8.155" fill="#fb4934" vector-effect="non-scaling-stroke" style="isolation:isolate"/>
  <path d="m214.41 33.669a8.155 8.155 0 0 0-8.1543 8.1562 8.155 8.155 0 0 0 0.1582 1.5098 8.155 8.155 0 0 1 7.9961-6.6445 8.155 8.155 0 0 1 7.9961 6.6445 8.155 8.155 0 0 0 0.1582-1.5098 8.155 8.155 0 0 0-8.1543-8.1562z" fill="#282828" opacity=".2" style="isolation:isolate"/>
  <path d="m128 221c49.51 0 89.7-40.2 89.7-89.7s-40.2-89.7-89.7-89.7-89.7 40.2-89.7 89.7 40.2 89.7 89.7 89.7z" fill="#ebdbb2" opacity=".6" style="isolation:isolate"/>
  <path d="m128 215.7c49.51 0 89.7-40.2 89.7-89.7s-40.2-89.7-89.7-89.7-89.7 40.2-89.7 89.7 40.2 89.7 89.7 89.7z" fill="#32302f" style="isolation:isolate"/>
  <path d="m128 36.301c-49.5 0-89.699 40.199-89.699 89.699 0 0.88637 0.01151 1.7702 0.03711 2.6504 1.4042-48.277 41.048-87.051 89.662-87.051 48.614 0 88.258 38.774 89.662 87.051 0.0256-0.88029 0.0371-1.764 0.0371-2.6504 1e-5 -49.5-40.199-89.699-89.699-89.699z" fill="#1d2021" style="isolation:isolate"/>
  <path d="m128 207.6c45.01 0 81.55-36.54 81.55-81.55s-36.54-81.55-81.55-81.55-81.55 36.54-81.55 81.55 36.54 81.55 81.55 81.55z" fill="#504945" style="isolation:isolate"/>
  <path d="m128 211c45.01 0 81.55-36.54 81.55-81.55s-36.54-81.55-81.55-81.55-81.55 36.54-81.55 81.55 36.54 81.55 81.55 81.55z" fill="#282828" style="isolation:isolate"/>
  <path d="m128 207.6c45.01 0 81.55-36.54 81.55-81.55s-36.54-81.55-81.55-81.55-81.55 36.54-81.55 81.55 36.54 81.55 81.55 81.55z" fill="#504945" style="isolation:isolate"/>
  <path d="m128 44.5c-45.01 0-81.551 36.541-81.551 81.551 0 0.56804 6e-3 1.1339 0.01758 1.6992 0.90623-44.226 37.091-79.85 81.533-79.85 44.442 0 80.627 35.623 81.533 79.85 0.0116-0.56528 0.0176-1.1312 0.0176-1.6992-2e-5 -45.01-36.541-81.551-81.551-81.551z" fill="#ebdbb2" opacity=".1" style="isolation:isolate"/>
  <path d="m128 191c33.76 0 61.16-27.41 61.16-61.16s-27.41-61.16-61.16-61.16-61.16 27.41-61.16 61.16 27.41 61.16 61.16 61.16z" fill="#282828" opacity=".5" style="isolation:isolate"/>
  <path d="m128 187.2c33.76 0 61.16-27.41 61.16-61.16s-27.41-61.16-61.16-61.16-61.16 27.41-61.16 61.16 27.41 61.16 61.16 61.16z" fill="#b16286" style="isolation:isolate"/>
  <path d="m128 64.882c-33.75 0-61.16 27.408-61.16 61.158 0 0.63563 0.01 1.2694 0.0293 1.9004 1.0057-32.873 28.016-59.26 61.131-59.26 33.114-1e-6 60.125 26.387 61.131 59.26 0.0193-0.63104 0.0293-1.2647 0.0293-1.9004 0-33.75-27.41-61.158-61.16-61.158z" fill="#ebdbb2" opacity=".15" style="isolation:isolate"/>
  <path d="m128 171c22.5 0 40.78-18.27 40.78-40.78 0-22.5-18.27-40.78-40.78-40.78-22.5 0-40.78 18.27-40.78 40.78 0 22.5 18.27 40.78 40.78 40.78z" fill="#ebdbb2" opacity=".2" style="isolation:isolate"/>
  <path d="m128 166.8c22.5 0 40.78-18.27 40.78-40.78 0-22.5-18.27-40.78-40.78-40.78-22.5 0-40.78 18.27-40.78 40.78 0 22.5 18.27 40.78 40.78 40.78z" fill="#8f3f71" style="isolation:isolate"/>
  <path d="m128 85.241c-22.5 0-40.779 18.269-40.779 40.779 0 0.70423 0.01737 1.4041 0.05273 2.0996 1.0949-21.535 18.931-38.68 40.727-38.68 21.805 0 39.632 17.155 40.727 38.682 0.0354-0.69561 0.0527-1.3972 0.0527-2.1016 0-22.5-18.269-40.779-40.779-40.779z" fill="#282828" opacity=".2" style="isolation:isolate"/>
  <path d="m130.1 118.7a6.119 6.119 0 0 1 5.206-6.908 6.119 6.119 0 0 1 6.908 5.205 6.119 6.119 0 0 1-5.206 6.908 6.119 6.119 0 0 1-6.907-5.205zm-11.99 16.14a2.04 2.04 0 0 1 4.038-0.57 2.04 2.04 0 0 1-4.038 0.57z" fill="#ebdbb2" opacity=".3" style="isolation:isolate"/>
  <path d="m130.9 146.2c11.14-1.565 18.92-11.88 17.35-23.02-1.566-11.14-11.88-18.92-23.02-17.35-11.14 1.565-18.92 11.88-17.35 23.02 1.566 11.14 11.88 18.92 23.02 17.35z" fill="#ebdbb2" opacity=".11667" style="isolation:isolate"/>
  <circle cx="154.5" cy="99.5" r="24.46" fill="#ebdbb2" opacity=".2" vector-effect="non-scaling-stroke" style="isolation:isolate"/>
  <path d="m91 12c-72 0-85 15-85 87v56c0 70 13 85 85 85h74c72 0 85-15 85-85v-56c0-72-13-87-85-87zm0 5h74c35.653 0 55.307 3.9448 65.895 14.965 10.588 11.02 14.105 31.336 14.105 67.035v56c0 34.69-3.4936 54.457-14.07 65.25-10.577 10.793-30.277 14.75-65.93 14.75h-74c-35.653 0-55.353-3.9574-65.93-14.75-10.577-10.793-14.07-30.56-14.07-65.25v-56c0-35.699 3.5176-56.015 14.105-67.035 10.588-11.02 30.242-14.965 65.895-14.965z" fill="url(#linearGradient10)" style="isolation:isolate"/>
</svg>
