<svg width="256" height="256" version="1.1" xmlns="http://www.w3.org/2000/svg">
  <defs>
    <linearGradient id="linearGradient10" x1="128" x2="128" y1="12" y2="240" gradientUnits="userSpaceOnUse">
      <stop stop-color="#ebdbb2" stop-opacity=".2" offset="0"/>
      <stop stop-color="#ebdbb2" stop-opacity="0" offset=".24921"/>
      <stop stop-color="#1d2021" stop-opacity=".05" offset=".50485"/>
      <stop stop-color="#1d2021" stop-opacity=".15" offset=".75285"/>
      <stop stop-color="#1d2021" stop-opacity=".25" offset="1"/>
    </linearGradient>
    <linearGradient id="linearGradient15" x1="128" x2="128" y1="12" y2="240" gradientTransform="translate(0 .38447)" gradientUnits="userSpaceOnUse">
      <stop stop-color="#83a598" offset="0"/>
      <stop stop-color="#458588" offset="1"/>
    </linearGradient>
  </defs>
  <path d="m165 12.384c72 0 85 15 85 87v56c0 70-13 85-85 85h-74c-72 0-85-15-85-85v-56c0-72 13-87 85-87z" fill="url(#linearGradient15)" style="isolation:isolate"/>
  <path d="m56.114 79.594h147.01c5.8159 0 10.501 4.1164 10.501 9.2311v84.944c0 5.1148-4.685 9.2311-10.501 9.2311h-147.01c-5.8159 0-10.501-4.1164-10.501-9.2311v-84.944c0-5.1147 4.685-9.2311 10.501-9.2311z" fill="#ebdbb2" opacity=".15" stroke-width="3.231" style="isolation:isolate"/>
  <path d="m56.114 74.681h147.01c5.8159 0 10.501 4.1164 10.501 9.2311v84.944c0 5.1148-4.685 9.2311-10.501 9.2311h-147.01c-5.8159 0-10.501-4.1164-10.501-9.2311v-84.944c0-5.1147 4.685-9.2311 10.501-9.2311z" fill="#504945" stroke-width="3.231" style="isolation:isolate"/>
  <path d="m56.114 74.681c-5.8159 0-10.5 4.1157-10.5 9.2305v4.9082c0.0025-5.1128 4.6857-9.2266 10.5-9.2266h147.01c5.8159 0 10.5 4.1157 10.5 9.2305v-4.9121c0-5.1147-4.6841-9.2305-10.5-9.2305z" fill="#282828" opacity=".3" stroke-width="3.231" style="isolation:isolate"/>
  <path d="m76.857 100.53h102.33c4.7238 0 9.3022 3.4798 8.5267 7.6737l-8.5267 46.042c-0.77675 4.1939-3.803 7.6737-8.5267 7.6737h-85.267c-4.7238 0-7.7513-3.4798-8.5267-7.6737l-8.5267-46.042c-0.77674-4.1939 3.8029-7.6737 8.5267-7.6737z" fill="#282828" opacity=".3" stroke-width="3.231" style="isolation:isolate"/>
  <path d="m76.857 97.299h102.33c4.7238 0 9.3022 3.4798 8.5267 7.6737l-8.5267 46.042c-0.77675 4.1939-3.803 7.6737-8.5267 7.6737h-85.267c-4.7238 0-7.7513-3.4798-8.5267-7.6737l-8.5267-46.042c-0.77674-4.1939 3.8029-7.6737 8.5267-7.6737z" fill="#ebdbb2" stroke-width="3.231" style="isolation:isolate"/>
  <path d="m76.851 97.299c-4.7217 0.0029-9.296 3.4817-8.5195 7.6738l0.14453 0.78515c0.94381-3.0177 4.6133-5.2262 8.375-5.2285h102.33c3.7649 0 7.4356 2.2117 8.3789 5.2324l0.14649-0.78906c0.77546-4.1939-3.8016-7.6738-8.5254-7.6738h-102.32z" fill="#fbf1c7" opacity=".6" stroke-width="3.231" style="isolation:isolate"/>
  <path d="m40.033 113.45c-4.0679 0-7.3438 3.0932-7.3438 6.9316v18.449c0 3.8394 3.2759 6.9297 7.3438 6.9297h17.623c4.0679 0 7.3438-3.0912 7.3438-6.9297v-18.449c0-3.8395-3.2759-6.9316-7.3438-6.9316h-17.623zm158.31 0c-4.0679 0-7.3438 3.0932-7.3438 6.9316v18.449c0 3.8394 3.2759 6.9297 7.3438 6.9297h17.623c4.0679 0 7.3438-3.0912 7.3438-6.9297v-18.449c0-3.8395-3.2759-6.9316-7.3438-6.9316h-17.623z" fill="#282828" opacity=".3" stroke-width="3.231" style="isolation:isolate"/>
  <path d="m40.033 110.22c-4.0679 0-7.3438 3.0932-7.3438 6.9316v18.449c0 3.8394 3.2759 6.9297 7.3438 6.9297h17.623c4.0679 0 7.3438-3.0912 7.3438-6.9297v-18.449c0-3.8394-3.2759-6.9316-7.3438-6.9316h-17.623zm158.31 0c-4.0679 0-7.3438 3.0932-7.3438 6.9316v18.449c0 3.8394 3.2759 6.9297 7.3438 6.9297h17.623c4.0679 0 7.3438-3.0912 7.3438-6.9297v-18.449c0-3.8394-3.2759-6.9316-7.3438-6.9316h-17.623z" fill="#bdae93" stroke-width="3.231" style="isolation:isolate"/>
  <path d="m48.844 118.62a9.6931 9.6931 0 0 0-9.6934 9.6934 9.6931 9.6931 0 0 0 9.6934 9.6914 9.6931 9.6931 0 0 0 9.6934-9.6914 9.6931 9.6931 0 0 0-9.6934-9.6934zm158.32 0a9.6931 9.6931 0 0 0-9.6934 9.6934 9.6931 9.6931 0 0 0 9.6934 9.6914 9.6931 9.6931 0 0 0 9.6934-9.6914 9.6931 9.6931 0 0 0-9.6934-9.6934z" fill="#ebdbb2" opacity=".3" stroke-width="3.231" style="isolation:isolate"/>
  <path d="m48.844 116.69a9.6931 9.6931 0 0 0-9.6934 9.6934 9.6931 9.6931 0 0 0 9.6934 9.6914 9.6931 9.6931 0 0 0 9.6934-9.6914 9.6931 9.6931 0 0 0-9.6934-9.6934zm158.32 0a9.6931 9.6931 0 0 0-9.6934 9.6934 9.6931 9.6931 0 0 0 9.6934 9.6914 9.6931 9.6931 0 0 0 9.6934-9.6914 9.6931 9.6931 0 0 0-9.6934-9.6934z" fill="#7c6f64" stroke-width="3.231" style="isolation:isolate"/>
  <path d="m48.844 116.69a9.6931 9.6931 0 0 0-9.6934 9.6934 9.6931 9.6931 0 0 0 0.0625 0.95312 9.6931 9.6931 0 0 1 9.6309-8.7168 9.6931 9.6931 0 0 1 9.6309 8.7168 9.6931 9.6931 0 0 0 0.0625-0.95312 9.6931 9.6931 0 0 0-9.6934-9.6934zm158.32 0a9.6931 9.6931 0 0 0-9.6934 9.6934 9.6931 9.6931 0 0 0 0.0488 0.96484 9.6931 9.6931 0 0 1 9.6445-8.7285 9.6931 9.6931 0 0 1 9.6309 8.7168 9.6931 9.6931 0 0 0 0.0625-0.95312 9.6931 9.6931 0 0 0-9.6934-9.6934z" fill="#282828" opacity=".2" stroke-width="3.231" style="isolation:isolate"/>
  <path d="m40.033 110.22c-4.0679 0-7.3438 3.0906-7.3438 6.9316v3.2305c0-3.8385 3.2759-6.9316 7.3438-6.9316h17.619c4.0679 0 7.3438 3.0906 7.3438 6.9316v-3.2305c0-3.8385-3.2759-6.9316-7.3438-6.9316h-17.619zm158.31 0c-4.0679 0-7.3438 3.0906-7.3438 6.9316v3.2305c0-3.8385 3.2759-6.9316 7.3438-6.9316h17.619c4.0679 0 7.3457 3.0906 7.3457 6.9316v-3.2305c0-3.8385-3.2778-6.9316-7.3457-6.9316h-17.619z" fill="#ebdbb2" opacity=".2" stroke-width="3.231" style="isolation:isolate"/>
  <path d="m92.463 113.45a8.0776 8.0776 0 0 0-8.0776 8.0776 8.0776 8.0776 0 0 0 8.0776 8.0776 8.0776 8.0776 0 0 0 8.0776-8.0776 8.0776 8.0776 0 0 0-8.0776-8.0776zm22.617 0a8.0776 8.0776 0 0 0-8.0776 8.0776 8.0776 8.0776 0 0 0 8.0776 8.0776 8.0776 8.0776 0 0 0 8.0776-8.0776 8.0776 8.0776 0 0 0-8.0776-8.0776zm22.617 0a8.0776 8.0776 0 0 0-8.0776 8.0776 8.0776 8.0776 0 0 0 8.0776 8.0776 8.0776 8.0776 0 0 0 8.0776-8.0776 8.0776 8.0776 0 0 0-8.0776-8.0776zm22.617 0a8.0776 8.0776 0 0 0-8.0776 8.0776 8.0776 8.0776 0 0 0 8.0776 8.0776 8.0776 8.0776 0 0 0 8.0776-8.0776 8.0776 8.0776 0 0 0-8.0776-8.0776zm-54.928 19.386a8.0776 8.0776 0 0 0-8.0776 8.0776 8.0776 8.0776 0 0 0 8.0776 8.0776 8.0776 8.0776 0 0 0 8.0776-8.0776 8.0776 8.0776 0 0 0-8.0776-8.0776zm22.617 0a8.0776 8.0776 0 0 0-8.0776 8.0776 8.0776 8.0776 0 0 0 8.0776 8.0776 8.0776 8.0776 0 0 0 8.0776-8.0776 8.0776 8.0776 0 0 0-8.0776-8.0776zm22.617 0a8.0776 8.0776 0 0 0-8.0776 8.0776 8.0776 8.0776 0 0 0 8.0776 8.0776 8.0776 8.0776 0 0 0 8.0776-8.0776 8.0776 8.0776 0 0 0-8.0776-8.0776z" fill="#fbf1c7" opacity=".6" stroke-width="3.231" style="isolation:isolate"/>
  <path d="m92.463 110.22a8.0776 8.0776 0 0 0-8.0776 8.0776 8.0776 8.0776 0 0 0 8.0776 8.0776 8.0776 8.0776 0 0 0 8.0776-8.0776 8.0776 8.0776 0 0 0-8.0776-8.0776zm22.617 0a8.0776 8.0776 0 0 0-8.0776 8.0776 8.0776 8.0776 0 0 0 8.0776 8.0776 8.0776 8.0776 0 0 0 8.0776-8.0776 8.0776 8.0776 0 0 0-8.0776-8.0776zm22.617 0a8.0776 8.0776 0 0 0-8.0776 8.0776 8.0776 8.0776 0 0 0 8.0776 8.0776 8.0776 8.0776 0 0 0 8.0776-8.0776 8.0776 8.0776 0 0 0-8.0776-8.0776zm22.617 0a8.0776 8.0776 0 0 0-8.0776 8.0776 8.0776 8.0776 0 0 0 8.0776 8.0776 8.0776 8.0776 0 0 0 8.0776-8.0776 8.0776 8.0776 0 0 0-8.0776-8.0776zm-54.928 19.386a8.0776 8.0776 0 0 0-8.0776 8.0776 8.0776 8.0776 0 0 0 8.0776 8.0776 8.0776 8.0776 0 0 0 8.0776-8.0776 8.0776 8.0776 0 0 0-8.0776-8.0776zm22.617 0a8.0776 8.0776 0 0 0-8.0776 8.0776 8.0776 8.0776 0 0 0 8.0776 8.0776 8.0776 8.0776 0 0 0 8.0776-8.0776 8.0776 8.0776 0 0 0-8.0776-8.0776zm22.617 0a8.0776 8.0776 0 0 0-8.0776 8.0776 8.0776 8.0776 0 0 0 8.0776 8.0776 8.0776 8.0776 0 0 0 8.0776-8.0776 8.0776 8.0776 0 0 0-8.0776-8.0776z" fill="#504945" stroke-width="3.231" style="isolation:isolate"/>
  <path d="m92.463 110.22a8.0776 8.0776 0 0 0-8.0781 8.0781 8.0776 8.0776 0 0 0 0.18164 1.6152 8.0776 8.0776 0 0 1 7.8965-6.4629 8.0776 8.0776 0 0 1 7.8984 6.4629 8.0776 8.0776 0 0 0 0.17969-1.6152 8.0776 8.0776 0 0 0-8.0781-8.0781zm22.617 0a8.0776 8.0776 0 0 0-8.0762 8.0781 8.0776 8.0776 0 0 0 0.17968 1.6152 8.0776 8.0776 0 0 1 7.8965-6.4629 8.0776 8.0776 0 0 1 7.9141 6.4629 8.0776 8.0776 0 0 0 0.16406-1.6152 8.0776 8.0776 0 0 0-8.0781-8.0781zm22.617 0a8.0776 8.0776 0 0 0-8.0762 8.0781 8.0776 8.0776 0 0 0 0.17969 1.6152 8.0776 8.0776 0 0 1 7.8965-6.4629 8.0776 8.0776 0 0 1 7.916 6.4629 8.0776 8.0776 0 0 0 0.16211-1.6152 8.0776 8.0776 0 0 0-8.0781-8.0781zm22.617 0a8.0776 8.0776 0 0 0-8.0762 8.0781 8.0776 8.0776 0 0 0 0.17969 1.6152 8.0776 8.0776 0 0 1 7.8965-6.4629 8.0776 8.0776 0 0 1 7.8984 6.4629 8.0776 8.0776 0 0 0 0.17969-1.6152 8.0776 8.0776 0 0 0-8.0781-8.0781zm-54.928 19.387a8.0776 8.0776 0 0 0-8.0762 8.0781 8.0776 8.0776 0 0 0 0.17969 1.6133 8.0776 8.0776 0 0 1 7.8965-6.4609 8.0776 8.0776 0 0 1 7.916 6.4629 8.0776 8.0776 0 0 0 0.16211-1.6152 8.0776 8.0776 0 0 0-8.0781-8.0781zm22.617 0a8.0776 8.0776 0 0 0-8.0762 8.0781 8.0776 8.0776 0 0 0 0.17969 1.6133 8.0776 8.0776 0 0 1 7.8965-6.4609 8.0776 8.0776 0 0 1 7.8984 6.4609 8.0776 8.0776 0 0 0 0.17969-1.6133 8.0776 8.0776 0 0 0-8.0781-8.0781zm22.619 0a8.0776 8.0776 0 0 0-8.0781 8.0781 8.0776 8.0776 0 0 0 0.17969 1.6133 8.0776 8.0776 0 0 1 7.8984-6.4609 8.0776 8.0776 0 0 1 7.8965 6.4609 8.0776 8.0776 0 0 0 0.17969-1.6133 8.0776 8.0776 0 0 0-8.0762-8.0781z" fill="#282828" opacity=".3" stroke-width="3.231" style="isolation:isolate"/>
  <path d="m91 12c-72 0-85 15-85 87v56c0 70 13 85 85 85h74c72 0 85-15 85-85v-56c0-72-13-87-85-87zm0 5h74c35.653 0 55.307 3.9448 65.895 14.965 10.588 11.02 14.105 31.336 14.105 67.035v56c0 34.69-3.4936 54.457-14.07 65.25-10.577 10.793-30.277 14.75-65.93 14.75h-74c-35.653 0-55.353-3.9574-65.93-14.75-10.577-10.793-14.07-30.56-14.07-65.25v-56c0-35.699 3.5176-56.015 14.105-67.035 10.588-11.02 30.242-14.965 65.895-14.965z" fill="url(#linearGradient10)" style="isolation:isolate"/>
</svg>
