<svg width="256" height="256" style="isolation:isolate" version="1.1" viewBox="0 0 256 256" xmlns="http://www.w3.org/2000/svg">
 <defs>
  <clipPath id="_clipPath_eaoqWVnQx5No5sC9YauAyS7gMqDYExbA">
   <rect width="256" height="256"/>
  </clipPath>
  <linearGradient id="g" x1="152" x2="152" y1="124" y2="236" gradientUnits="userSpaceOnUse">
   <stop offset="0"/>
   <stop stop-opacity="0" offset="1"/>
  </linearGradient>
  <clipPath id="f">
   <path d="m152 68c-48.601 0-88 39.399-88 88s39.399 88 88 88 88-39.399 88-88-39.399-88-88-88z" fill="#282828"/>
  </clipPath>
  <filter id="h" x="-.06" y="-.06" width="1.12" height="1.12" color-interpolation-filters="sRGB">
   <feGaussianBlur stdDeviation="3.75"/>
  </filter>
 </defs>
 <g clip-path="url(#_clipPath_eaoqWVnQx5No5sC9YauAyS7gMqDYExbA)">
  <defs>
   <filter id="e0eI2QFOvi9OAfgvvhEPkhnMmdywFGZA" x="-.042124" y="-.045133" width="1.0842" height="1.1078" color-interpolation-filters="sRGB">
    <feGaussianBlur in="SourceGraphic" stdDeviation="4.294"/>
    <feOffset dx="0" dy="4" result="pf_100_offsetBlur"/>
    <feFlood flood-opacity=".4"/>
    <feComposite in2="pf_100_offsetBlur" operator="in" result="pf_100_dropShadow"/>
    <feBlend in="SourceGraphic" in2="pf_100_dropShadow"/>
   </filter>
  </defs>
  <g filter="url(#e0eI2QFOvi9OAfgvvhEPkhnMmdywFGZA)">
   <linearGradient id="_lgradient_24" x1=".993" x2=".002" y1=".988" y2=".193" gradientTransform="matrix(244.65 0 0 228.34 5.682 11.95)" gradientUnits="userSpaceOnUse">
    <stop stop-color="#3c3836" offset="0"/>
    <stop stop-color="#665c54" offset="1"/>
   </linearGradient>
   <path d="m165.69 11.95c74.055 0 84.639 10.557 84.639 84.544v59.251c0 73.986-10.584 84.543-84.639 84.543h-75.37c-74.056 0-84.639-10.557-84.639-84.543v-59.251c0-73.987 10.583-84.544 84.639-84.544h75.37z" fill="url(#_lgradient_24)"/>
  </g>
  <g opacity=".4">
   <linearGradient id="_lgradient_25" x1=".517" x2=".517" y2="1" gradientTransform="matrix(244.65,0,0,228.34,5.68,11.95)" gradientUnits="userSpaceOnUse">
    <stop stop-color="#ebdbb2" offset="0"/>
    <stop stop-color="#ebdbb2" stop-opacity=".098" offset=".125"/>
    <stop stop-color="#282828" stop-opacity=".098" offset=".925"/>
    <stop stop-color="#282828" stop-opacity=".498" offset="1"/>
   </linearGradient>
   <path d="m165.07 11.951c4.328-0.01 8.656 0.04 12.984 0.138 3.875 0.078 7.751 0.226 11.626 0.452 3.453 0.196 6.905 0.481 10.348 0.854 3.059 0.335 6.118 0.786 9.148 1.346 2.715 0.502 5.4 1.14 8.046 1.916 2.4 0.698 4.751 1.562 7.023 2.584 2.115 0.943 4.141 2.063 6.059 3.35 1.84 1.238 3.561 2.653 5.135 4.215 1.564 1.572 2.98 3.282 4.219 5.119 1.289 1.916 2.41 3.94 3.364 6.042 1.023 2.28 1.889 4.618 2.597 7.005 0.777 2.643 1.417 5.325 1.918 8.037 0.561 3.026 1.013 6.072 1.348 9.127 0.374 3.439 0.659 6.878 0.856 10.326 0.226 3.861 0.373 7.732 0.462 11.593 0.088 4.323 0.138 8.646 0.128 12.959v58.212c0.01 4.323-0.04 8.636-0.128 12.959-0.089 3.871-0.236 7.732-0.462 11.593-0.197 3.448-0.482 6.897-0.856 10.326-0.335 3.055-0.787 6.111-1.348 9.137-0.501 2.702-1.141 5.384-1.918 8.027-0.708 2.387-1.574 4.735-2.597 7.005-0.954 2.112-2.075 4.126-3.364 6.042-1.239 1.837-2.655 3.557-4.219 5.119-1.574 1.562-3.295 2.977-5.135 4.215-1.918 1.287-3.944 2.407-6.059 3.35-2.272 1.022-4.623 1.886-7.023 2.594-2.646 0.776-5.331 1.414-8.046 1.906-3.03 0.569-6.089 1.011-9.148 1.346-3.443 0.373-6.895 0.658-10.348 0.854-3.875 0.226-7.751 0.374-11.626 0.462-4.328 0.088-8.656 0.138-12.984 0.128h-74.126c-4.328 0.01-8.656-0.04-12.984-0.128-3.875-0.088-7.751-0.236-11.626-0.462-3.453-0.196-6.905-0.481-10.348-0.854-3.059-0.335-6.118-0.777-9.148-1.346-2.715-0.492-5.4-1.13-8.046-1.906-2.4-0.708-4.751-1.572-7.023-2.594-2.115-0.943-4.141-2.063-6.059-3.35-1.84-1.238-3.561-2.653-5.135-4.215-1.564-1.562-2.98-3.282-4.219-5.119-1.289-1.916-2.41-3.93-3.364-6.042-1.023-2.27-1.889-4.618-2.597-7.005-0.777-2.643-1.417-5.325-1.918-8.027-0.561-3.026-1.013-6.082-1.348-9.137-0.374-3.429-0.659-6.878-0.856-10.326-0.226-3.861-0.373-7.722-0.462-11.593-0.088-4.323-0.138-8.636-0.128-12.959v-58.212c-0.01-4.313 0.04-8.636 0.128-12.959 0.089-3.861 0.236-7.732 0.462-11.593 0.197-3.448 0.482-6.887 0.856-10.326 0.335-3.055 0.787-6.101 1.348-9.127 0.501-2.712 1.141-5.394 1.918-8.037 0.708-2.387 1.574-4.725 2.597-7.005 0.954-2.102 2.075-4.126 3.364-6.042 1.239-1.837 2.655-3.547 4.219-5.119 1.574-1.562 3.295-2.977 5.135-4.215 1.918-1.287 3.944-2.407 6.059-3.35 2.272-1.022 4.623-1.886 7.023-2.584 2.646-0.776 5.331-1.414 8.046-1.916 3.03-0.56 6.089-1.011 9.148-1.346 3.443-0.373 6.895-0.658 10.348-0.854 3.875-0.226 7.751-0.374 11.626-0.452 4.328-0.098 8.656-0.148 12.984-0.138h74.126zm0.01 4.009c4.298-0.01 8.597 0.039 12.895 0.127 3.827 0.089 7.653 0.236 11.479 0.452 3.384 0.197 6.767 0.472 10.131 0.845 2.971 0.315 5.932 0.747 8.863 1.297 2.577 0.472 5.134 1.081 7.653 1.818 2.223 0.648 4.396 1.454 6.501 2.397 1.909 0.855 3.738 1.867 5.469 3.026 1.623 1.091 3.138 2.338 4.525 3.724 1.387 1.385 2.636 2.898 3.738 4.519 1.16 1.729 2.174 3.547 3.029 5.443 0.945 2.112 1.751 4.284 2.4 6.494 0.748 2.515 1.348 5.06 1.83 7.634 0.541 2.928 0.974 5.875 1.298 8.842 0.374 3.36 0.65 6.73 0.846 10.11 0.217 3.822 0.374 7.634 0.453 11.456 0.088 4.293 0.137 8.577 0.137 12.87v58.212c0 4.293-0.049 8.577-0.137 12.87-0.079 3.822-0.236 7.644-0.453 11.456-0.196 3.38-0.472 6.75-0.846 10.12-0.324 2.957-0.757 5.904-1.298 8.832-0.482 2.574-1.082 5.119-1.83 7.634-0.649 2.22-1.455 4.382-2.4 6.494-0.855 1.896-1.869 3.724-3.029 5.443-1.102 1.631-2.351 3.144-3.738 4.529-1.387 1.376-2.902 2.623-4.525 3.714-1.731 1.159-3.56 2.171-5.469 3.026-2.105 0.953-4.278 1.749-6.501 2.397-2.519 0.737-5.076 1.346-7.653 1.818-2.931 0.55-5.892 0.982-8.863 1.306-3.364 0.364-6.747 0.649-10.131 0.836-3.826 0.216-7.652 0.373-11.479 0.452-4.298 0.098-8.597 0.137-12.895 0.137h-74.146c-4.298 0-8.597-0.039-12.895-0.137-3.827-0.079-7.653-0.236-11.479-0.452-3.384-0.187-6.767-0.472-10.131-0.836-2.971-0.324-5.932-0.756-8.863-1.306-2.577-0.472-5.134-1.081-7.653-1.818-2.223-0.648-4.396-1.444-6.501-2.397-1.909-0.855-3.738-1.867-5.469-3.026-1.623-1.091-3.138-2.338-4.525-3.714-1.387-1.385-2.636-2.898-3.738-4.529-1.16-1.719-2.174-3.547-3.029-5.443-0.945-2.112-1.751-4.274-2.4-6.494-0.748-2.515-1.348-5.06-1.83-7.634-0.541-2.928-0.974-5.875-1.298-8.832-0.374-3.37-0.649-6.74-0.846-10.12-0.217-3.812-0.374-7.634-0.453-11.456-0.088-4.293-0.137-8.577-0.137-12.87v-58.212c0-4.293 0.049-8.577 0.137-12.87 0.079-3.822 0.236-7.634 0.453-11.456 0.197-3.38 0.472-6.75 0.846-10.11 0.324-2.967 0.757-5.914 1.298-8.842 0.482-2.574 1.082-5.119 1.83-7.634 0.649-2.21 1.455-4.382 2.4-6.494 0.855-1.896 1.869-3.714 3.029-5.443 1.102-1.621 2.351-3.134 3.738-4.519 1.387-1.386 2.902-2.633 4.525-3.724 1.731-1.159 3.56-2.171 5.469-3.026 2.105-0.943 4.278-1.749 6.501-2.397 2.519-0.737 5.076-1.346 7.653-1.818 2.931-0.55 5.892-0.982 8.863-1.297 3.364-0.373 6.747-0.648 10.131-0.845 3.826-0.216 7.652-0.363 11.479-0.452 4.298-0.088 8.597-0.137 12.895-0.127h74.146z" fill="url(#_lgradient_25)" fill-rule="evenodd"/>
  </g>
  <defs>
   <filter id="SZjG2dOTD35CZHp5UvJHRmrN1mVQNfpM" x="-.077372" y="-.2338" width="1.1547" height="1.5584" color-interpolation-filters="sRGB">
    <feGaussianBlur in="SourceGraphic" stdDeviation="4.294"/>
    <feOffset dx="0" dy="4" result="pf_100_offsetBlur"/>
    <feFlood flood-opacity=".4"/>
    <feComposite in2="pf_100_offsetBlur" operator="in" result="pf_100_dropShadow"/>
    <feBlend in="SourceGraphic" in2="pf_100_dropShadow"/>
   </filter>
  </defs>
  <g opacity=".4">
   <path d="m56.457 49.971c-1.013 0-1.984 0.403-2.7 1.119-0.717 0.716-1.119 1.688-1.119 2.7 0 2.11 1.71 3.819 3.819 3.819s3.819-1.709 3.819-3.819c0-1.012-0.402-1.984-1.118-2.7-0.717-0.716-1.688-1.119-2.701-1.119zm145.12 0c-1.013 0-1.984 0.403-2.7 1.119-0.717 0.716-1.119 1.688-1.119 2.7 0 1.013 0.402 1.985 1.119 2.701 0.716 0.716 1.687 1.118 2.7 1.118 2.109 0 3.819-1.709 3.819-3.819 0-1.012-0.402-1.984-1.118-2.7-0.717-0.716-1.688-1.119-2.701-1.119zm0 145.12c-1.013 0-1.984 0.403-2.7 1.119-0.717 0.716-1.119 1.688-1.119 2.7 0 1.013 0.402 1.985 1.119 2.701 0.716 0.716 1.687 1.118 2.7 1.118 2.109 0 3.819-1.709 3.819-3.819 0-2.109-1.71-3.819-3.819-3.819z" fill="#ebdbb2"/>
  </g>
  <circle transform="scale(1,-1)" cx="127.8" cy="-127.11" r="89.708" fill="#a89984" stroke-width="3.7797"/>
  <path d="m38.089 127.11a89.708 89.708 0 0 1 89.712-89.711 89.708 89.708 0 0 1 89.704 89.711z" opacity=".05" stroke-width="3.7797"/>
  <path transform="matrix(1.0194 0 0 1.0194 -27.153 -31.918)" d="m152 70c-48.601 0-88 39.399-88 88s39.399 88 88 88 88-39.399 88-88-39.399-88-88-88z" clip-path="url(#f)" fill="none" filter="url(#filter1003)" opacity=".2" stroke="url(#g)" stroke-linejoin="round" stroke-width="10"/>
  <path transform="matrix(1.0194 0 0 1.0194 -.20703 9.2997)" d="m125.57 192.57c-41.421 0-75-33.579-75-75 0-41.422 33.579-75 75-75 41.422 0 75 33.578 75 75 0 41.421-33.578 75-75 75z" filter="url(#h)" opacity=".2"/>
  <g stroke-width="3.7797">
   <path d="m127.8 50.654c-42.227 0-76.456 34.233-76.456 76.46 0 0.34018 0.0189 0.68035 0.02268 1.0205 0.54806-41.758 34.547-75.443 76.433-75.443 41.879 0 75.882 33.685 76.426 75.443 8e-3 -0.34395 0.0302-0.68034 0.0302-1.0205 0-42.227-34.233-76.46-76.456-76.46z" fill="#ebdbb2" opacity=".5"/>
   <path d="m104.28 142.22-40.598 26.269a76.456 76.456 0 0 0 64.13 34.962 76.456 76.456 0 0 0 35.987-9.026l-22.792-42.718a28.034 28.034 0 0 1-13.18 3.3148 28.034 28.034 0 0 1-23.532-12.813" fill="#fabd2f"/>
   <path d="m127.81 50.544a76.456 76.456 0 0 0-76.46 76.456 76.456 76.456 0 0 0 13.361 43.179l39.982-27.376a28.034 28.034 0 0 1-4.9212-15.799 28.034 28.034 0 0 1 28.034-28.038 28.034 28.034 0 0 1 28.034 28.034h48.422a76.456 76.456 0 0 0-76.456-76.456z" fill="#fe8019"/>
   <path d="m155.37 121.9a28.034 28.034 0 0 1 0.47625 5.095 28.034 28.034 0 0 1-28.034 28.034v48.422a76.456 76.456 0 0 0 76.456-76.456 76.456 76.456 0 0 0-0.24946-5.095z" fill="#ebdbb2"/>
  </g>
  <g transform="translate(0 3.2326)" filter="url(#SZjG2dOTD35CZHp5UvJHRmrN1mVQNfpM)">
   <path d="m178.19 166.29s-112.66 42.048-118.77 43.685c-6.112 1.638-12.394-1.989-14.032-8.101-1.637-6.112 1.99-12.394 8.102-14.032s124.7-21.552 124.7-21.552zm-125.56 32.621c0-2.108 1.711-3.819 3.819-3.819s3.819 1.711 3.819 3.819-1.711 3.819-3.819 3.819-3.819-1.711-3.819-3.819z" fill="#d5c4a1" fill-rule="evenodd"/>
  </g>
  <g transform="matrix(3.7797 0 0 3.7797 2.5673 -865.45)">
   <circle cx="33.186" cy="262.14" r="8.599" fill="#ebdbb2"/>
   <g transform="matrix(.2697 0 0 .2697 -7.885 220.08)">
    <circle cx="152" cy="156" r="32" opacity=".05"/>
    <circle cx="152" cy="156" r="20" fill="#ebdbb2"/>
    <g opacity=".1">
     <circle transform="rotate(-30)" cx="53.636" cy="185.1" r="2"/>
     <circle transform="rotate(-30)" cx="53.636" cy="237.1" r="2"/>
     <circle transform="rotate(-60)" cx="-59.1" cy="183.64" r="2"/>
     <circle transform="rotate(-60)" cx="-59.1" cy="235.64" r="2"/>
     <circle transform="rotate(-90)" cx="-156" cy="126" r="2"/>
     <circle transform="rotate(-90)" cx="-156" cy="178" r="2"/>
     <circle transform="rotate(240)" cx="-211.1" cy="27.636" r="2"/>
     <circle transform="rotate(240)" cx="-211.1" cy="79.636" r="2"/>
     <circle transform="rotate(210 152 156)" cx="152" cy="130" r="2"/>
     <circle transform="rotate(210 152 156)" cx="152" cy="182" r="2"/>
     <circle transform="scale(-1)" cx="-152" cy="-182" r="2"/>
     <circle transform="scale(-1)" cx="-152" cy="-130" r="2"/>
    </g>
    <circle cx="152" cy="156" r="16" opacity=".1"/>
    <circle cx="152" cy="156" r="4" fill="#ebdbb2"/>
   </g>
  </g>
 </g>
</svg>
