<svg width="256" height="256" style="isolation:isolate" version="1.1" viewBox="0 0 256 256" xmlns="http://www.w3.org/2000/svg">
  <defs>
    <linearGradient id="b" x1=".5002" x2=".5002" y2="1" gradientTransform="matrix(244,0,0,228,5.981,12.12)" gradientUnits="userSpaceOnUse">
      <stop stop-color="#ebdbb2" offset="0"/>
      <stop stop-color="#ebdbb2" offset="1"/>
    </linearGradient>
    <linearGradient id="linearGradient31" x1=".5002" x2=".5002" y2="1" gradientTransform="matrix(244,0,0,228,5.988,12.12)" gradientUnits="userSpaceOnUse">
      <stop stop-color="#d5c4a1" offset="0"/>
      <stop stop-color="#d5c4a1" stop-opacity=".09804" offset=".1"/>
      <stop stop-color="#282828" stop-opacity=".1" offset=".9"/>
      <stop stop-color="#282828" stop-opacity=".4" offset="1"/>
    </linearGradient>
    <linearGradient id="_lgradient_177" x1="1" x2="1" y1="1" gradientTransform="matrix(105.9 0 0 10.96 47.75 290.7)" gradientUnits="userSpaceOnUse">
      <stop stop-color="#665c54" offset="0"/>
      <stop stop-color="#282828" offset="1"/>
    </linearGradient>
    <linearGradient id="_lgradient_243" x2="0" y2="1" gradientTransform="matrix(10 0 0 10 198.2 284.2)" gradientUnits="userSpaceOnUse">
      <stop stop-color="#665c54" offset="0"/>
      <stop stop-color="#3c3836" offset="1"/>
    </linearGradient>
    <linearGradient id="_lgradient_244" x1=".187" x2=".19" y1=".005" y2=".999" gradientTransform="matrix(6 0 0 6 200.2 286.2)" gradientUnits="userSpaceOnUse">
      <stop stop-color="#83a598" offset="0"/>
      <stop stop-color="#458588" offset="1"/>
    </linearGradient>
    <linearGradient id="linearGradient11" x1="128" x2="128" y1="30" y2="167.5" gradientTransform="matrix(1 0 0 .9667 .004884 -1.815)" gradientUnits="userSpaceOnUse">
      <stop stop-color="#665c54" offset="0"/>
      <stop stop-color="#3c3836" offset="1"/>
    </linearGradient>
    <linearGradient id="_lgradient_245" x1=".5" x2=".5" y2="1" gradientTransform="matrix(114.7 0 0 10.25 70.67 137.4)" gradientUnits="userSpaceOnUse">
      <stop stop-color="#83a598" offset="0"/>
      <stop stop-color="#458588" offset="1"/>
    </linearGradient>
    <linearGradient id="_lgradient_246" x1=".5" x2=".5" y2="1" gradientTransform="matrix(42.28 0 0 14.91 75.16 108.7)" gradientUnits="userSpaceOnUse">
      <stop stop-color="#83a598" offset="0"/>
      <stop stop-color="#458588" offset="1"/>
    </linearGradient>
    <linearGradient id="_lgradient_247" x1=".146" x2=".146" y1="1" y2="-.254" gradientTransform="matrix(36.33 0 -1.787 10.14 79.03 111.1)" gradientUnits="userSpaceOnUse">
      <stop stop-color="#bdae93" offset="0"/>
      <stop stop-color="#ebdbb2" offset="1"/>
    </linearGradient>
  </defs>
  <g transform="translate(-2.65e-5,1.88)" filter="url(#a)" style="isolation:isolate">
    <path d="m165 12.12c72 0 85 15 85 87v56c0 70-13 85-85 85h-74c-72 0-85-15-85-85v-56c0-72 13-87 85-87z" fill="url(#b)"/>
  </g>
  <g transform="translate(2.65e-5,1.88)" opacity=".5" style="isolation:isolate">
    <path d="m91 12.12c-72 0-85 15-85 87v56c0 70 13 85 85 85h74c72 0 85-15 85-85v-56c0-72-13-87-85-87zm0 4h74c68 0 80 15 80 83v56c0 66-12 81-80 81h-74c-68 0-80-15-80-81v-56c0-68 12-83 80-83z" fill="url(#linearGradient31)" opacity="1"/>
  </g>
  <g transform="translate(-.01205 4.815)" style="isolation:isolate">
    <g transform="translate(.004884 -88.53)" style="isolation:isolate">
      <path transform="translate(.007136 85.6)" d="m230.9 181.5c-4.548 35.13-21.29 43.58-71.24 43.58h-63.29c-49.94 0-66.69-8.449-71.24-43.57 12.53 6.917 32.78 8.566 65.19 8.566h75.37c32.42 0 52.67-1.651 65.2-8.576z" fill="#3c3836" style="isolation:isolate"/>
      <path d="m48.74 290.7h103.9c0.544 0 0.986 0.442 0.986 0.986v8.983c0 0.544-0.442 0.986-0.986 0.986h-103.9c-0.544 0-0.986-0.442-0.986-0.986v-8.983c0-0.544 0.442-0.986 0.986-0.986z" fill="url(#_lgradient_177)"/>
      <path d="m51.62 295.8h98.12v1.861c0 1.546-1.255 2.801-2.801 2.801h-92.52c-1.546 0-2.801-1.255-2.801-2.801z" fill="#427b58"/>
      <path d="m98.06 297h2.062v3.609c0 0.276-0.224 0.5-0.5 0.5h-1.062c-0.276 0-0.5-0.224-0.5-0.5zm-9 0h2.062v3.609c0 0.276-0.224 0.5-0.5 0.5h-1.062c-0.276 0-0.5-0.224-0.5-0.5zm-30 0h2.062v3.609c0 0.276-0.224 0.5-0.5 0.5h-1.062c-0.276 0-0.5-0.224-0.5-0.5zm3 0h2.062v3.609c0 0.276-0.224 0.5-0.5 0.5h-1.062c-0.276 0-0.5-0.224-0.5-0.5zm3 0h2.062v3.609c0 0.276-0.224 0.5-0.5 0.5h-1.062c-0.276 0-0.5-0.224-0.5-0.5zm-9 0h2.062v3.609c0 0.276-0.224 0.5-0.5 0.5h-1.062c-0.276 0-0.5-0.224-0.5-0.5zm12 0h2.062v3.609c0 0.276-0.224 0.5-0.5 0.5h-1.062c-0.276 0-0.5-0.224-0.5-0.5zm-15 0h2.062v3.609c0 0.276-0.224 0.5-0.5 0.5h-1.062c-0.276 0-0.5-0.224-0.5-0.5zm18 0h2.062v3.609c0 0.276-0.224 0.5-0.5 0.5h-1.062c-0.276 0-0.5-0.224-0.5-0.5zm3 0h2.062v3.609c0 0.276-0.224 0.5-0.5 0.5h-1.062c-0.276 0-0.5-0.224-0.5-0.5zm3 0h2.062v3.609c0 0.276-0.224 0.5-0.5 0.5h-1.062c-0.276 0-0.5-0.224-0.5-0.5zm3 0h2.062v3.609c0 0.276-0.224 0.5-0.5 0.5h-1.062c-0.276 0-0.5-0.224-0.5-0.5zm3 0h2.062v3.609c0 0.276-0.224 0.5-0.5 0.5h-1.062c-0.276 0-0.5-0.224-0.5-0.5zm3 0h2.062v3.609c0 0.276-0.224 0.5-0.5 0.5h-1.062c-0.276 0-0.5-0.224-0.5-0.5zm6 0h2.062v3.609c0 0.276-0.224 0.5-0.5 0.5h-1.062c-0.276 0-0.5-0.224-0.5-0.5zm9 0h2.062v3.609c0 0.276-0.224 0.5-0.5 0.5h-1.062c-0.276 0-0.5-0.224-0.5-0.5zm3 0h2.062v3.609c0 0.276-0.224 0.5-0.5 0.5h-1.062c-0.276 0-0.5-0.224-0.5-0.5zm3 0h2.062v3.609c0 0.276-0.224 0.5-0.5 0.5h-1.062c-0.276 0-0.5-0.224-0.5-0.5zm3 0h2.062v3.609c0 0.276-0.224 0.5-0.5 0.5h-1.062c-0.276 0-0.5-0.224-0.5-0.5zm3 0h2.062v3.609c0 0.276-0.224 0.5-0.5 0.5h-1.062c-0.276 0-0.5-0.224-0.5-0.5zm3 0h2.062v3.609c0 0.276-0.224 0.5-0.5 0.5h-1.062c-0.276 0-0.5-0.224-0.5-0.5zm3 0h2.062v3.609c0 0.276-0.224 0.5-0.5 0.5h-1.062c-0.276 0-0.5-0.224-0.5-0.5zm3 0h2.062v3.609c0 0.276-0.224 0.5-0.5 0.5h-1.062c-0.276 0-0.5-0.224-0.5-0.5zm3 0h2.062v3.609c0 0.276-0.224 0.5-0.5 0.5h-1.062c-0.276 0-0.5-0.224-0.5-0.5zm3 0h2.062v3.609c0 0.276-0.224 0.5-0.5 0.5h-1.062c-0.276 0-0.5-0.224-0.5-0.5zm8 0h2.062v3.609c0 0.276-0.224 0.5-0.5 0.5h-1.062c-0.276 0-0.5-0.224-0.5-0.5zm3 0h2.062v3.609c0 0.276-0.224 0.5-0.5 0.5h-1.062c-0.276 0-0.5-0.224-0.5-0.5zm3 0h2.062v3.609c0 0.276-0.224 0.5-0.5 0.5h-1.062c-0.276 0-0.5-0.224-0.5-0.5zm3 0h2.062v3.609c0 0.276-0.224 0.5-0.5 0.5h-1.062c-0.276 0-0.5-0.224-0.5-0.5z" fill="#fabd2f" fill-rule="evenodd"/>
      <path transform="translate(0,76.27)" d="m48.29 202c-0.161 0-0.291 0.13-0.291 0.291v1.355c0 0.16 0.13 0.291 0.291 0.291h3.918c0.161 0 0.291-0.131 0.291-0.291v-1.355c0-0.161-0.13-0.291-0.291-0.291h-3.918zm6 0c-0.161 0-0.291 0.13-0.291 0.291v1.355c0 0.16 0.13 0.291 0.291 0.291h3.918c0.161 0 0.291-0.131 0.291-0.291v-1.355c0-0.161-0.13-0.291-0.291-0.291h-3.918zm6 0c-0.161 0-0.291 0.13-0.291 0.291v1.355c0 0.16 0.13 0.291 0.291 0.291h3.918c0.161 0 0.291-0.131 0.291-0.291v-1.355c0-0.161-0.13-0.291-0.291-0.291h-3.918zm6 0c-0.161 0-0.291 0.13-0.291 0.291v1.355c0 0.16 0.13 0.291 0.291 0.291h3.918c0.161 0 0.291-0.131 0.291-0.291v-1.355c0-0.161-0.13-0.291-0.291-0.291h-3.918zm6 0c-0.161 0-0.291 0.13-0.291 0.291v1.355c0 0.16 0.13 0.291 0.291 0.291h3.918c0.161 0 0.291-0.131 0.291-0.291v-1.355c0-0.161-0.13-0.291-0.291-0.291h-3.918zm6 0c-0.161 0-0.291 0.13-0.291 0.291v1.355c0 0.16 0.13 0.291 0.291 0.291h3.918c0.161 0 0.291-0.131 0.291-0.291v-1.355c0-0.161-0.13-0.291-0.291-0.291h-3.918zm6 0c-0.161 0-0.291 0.13-0.291 0.291v1.355c0 0.16 0.13 0.291 0.291 0.291h3.918c0.161 0 0.291-0.131 0.291-0.291v-1.355c1e-6 -0.161-0.13-0.291-0.291-0.291h-3.918zm6 0c-0.161 0-0.291 0.13-0.291 0.291v1.355c1e-6 0.16 0.13 0.291 0.291 0.291h3.918c0.161 0 0.291-0.131 0.291-0.291v-1.355c1e-6 -0.161-0.13-0.291-0.291-0.291h-3.918zm6 0c-0.161 0-0.291 0.13-0.291 0.291v1.355c1e-6 0.16 0.13 0.291 0.291 0.291h3.918c0.161 0 0.291-0.131 0.291-0.291v-1.355c0-0.161-0.13-0.291-0.291-0.291h-3.918zm6.01 0c-0.161 0-0.291 0.13-0.291 0.291v1.355c0 0.16 0.13 0.291 0.291 0.291h3.918c0.161 0 0.291-0.131 0.291-0.291v-1.355c0-0.161-0.13-0.291-0.291-0.291h-3.918zm6 0c-0.161 0-0.291 0.13-0.291 0.291v1.355c0 0.16 0.13 0.291 0.291 0.291h3.918c0.161 0 0.291-0.131 0.291-0.291v-1.355c0-0.161-0.13-0.291-0.291-0.291h-3.918zm6 0c-0.161 0-0.291 0.13-0.291 0.291v1.355c0 0.16 0.13 0.291 0.291 0.291h3.918c0.161 0 0.291-0.131 0.291-0.291v-1.355c0-0.161-0.13-0.291-0.291-0.291h-3.918zm6 0c-0.161 0-0.291 0.13-0.291 0.291v1.355c0 0.16 0.13 0.291 0.291 0.291h3.918c0.161 0 0.291-0.131 0.291-0.291v-1.355c0-0.161-0.13-0.291-0.291-0.291h-3.918zm6 0c-0.161 0-0.291 0.13-0.291 0.291v1.355c0 0.16 0.13 0.291 0.291 0.291h3.918c0.161 0 0.291-0.131 0.291-0.291v-1.355c0-0.161-0.13-0.291-0.291-0.291h-3.918zm6 0c-0.161 0-0.291 0.13-0.291 0.291v1.355c0 0.16 0.13 0.291 0.291 0.291h3.918c0.161 0 0.291-0.131 0.291-0.291v-1.355c0-0.161-0.13-0.291-0.291-0.291h-3.918zm6 0c-0.161 0-0.291 0.13-0.291 0.291v1.355c0 0.16 0.13 0.291 0.291 0.291h3.918c0.161 0 0.291-0.131 0.291-0.291v-1.355c0-0.161-0.13-0.291-0.291-0.291h-3.918zm6 0c-0.161 0-0.291 0.13-0.291 0.291v1.355c0 0.16 0.13 0.291 0.291 0.291h3.918c0.161 0 0.291-0.131 0.291-0.291v-1.355c0-0.161-0.13-0.291-0.291-0.291h-3.918zm6 0c-0.161 0-0.291 0.13-0.291 0.291v1.355c0 0.16 0.13 0.291 0.291 0.291h3.918c0.161 0 0.291-0.131 0.291-0.291v-1.355c0-0.161-0.13-0.291-0.291-0.291h-3.918zm16 0c-0.161 0-0.291 0.13-0.291 0.291v1.355c0 0.16 0.13 0.291 0.291 0.291h3.918c0.161 0 0.291-0.131 0.291-0.291v-1.355c0-0.161-0.13-0.291-0.291-0.291h-3.918zm6 0c-0.161 0-0.291 0.13-0.291 0.291v1.355c0 0.16 0.13 0.291 0.291 0.291h3.918c0.161 0 0.291-0.131 0.291-0.291v-1.355c0-0.161-0.13-0.291-0.291-0.291h-3.918zm6 0c-0.161 0-0.291 0.13-0.291 0.291v1.355c0 0.16 0.13 0.291 0.291 0.291h3.918c0.161 0 0.291-0.131 0.291-0.291v-1.355c0-0.161-0.13-0.291-0.291-0.291h-3.918zm-130 3c-0.161 0-0.291 0.13-0.291 0.291v1.355c0 0.16 0.13 0.291 0.291 0.291h3.918c0.161 0 0.291-0.131 0.291-0.291v-1.355c0-0.161-0.13-0.291-0.291-0.291h-3.918zm6 0c-0.161 0-0.291 0.13-0.291 0.291v1.355c0 0.16 0.13 0.291 0.291 0.291h3.918c0.161 0 0.291-0.131 0.291-0.291v-1.355c0-0.161-0.13-0.291-0.291-0.291h-3.918zm6 0c-0.161 0-0.291 0.13-0.291 0.291v1.355c0 0.16 0.13 0.291 0.291 0.291h3.918c0.161 0 0.291-0.131 0.291-0.291v-1.355c0-0.161-0.13-0.291-0.291-0.291h-3.918zm6 0c-0.161 0-0.291 0.13-0.291 0.291v1.355c0 0.16 0.13 0.291 0.291 0.291h3.918c0.161 0 0.291-0.131 0.291-0.291v-1.355c0-0.161-0.13-0.291-0.291-0.291h-3.918zm6 0c-0.161 0-0.291 0.13-0.291 0.291v1.355c0 0.16 0.13 0.291 0.291 0.291h3.918c0.161 0 0.291-0.131 0.291-0.291v-1.355c0-0.161-0.13-0.291-0.291-0.291h-3.918zm6 0c-0.161 0-0.291 0.13-0.291 0.291v1.355c0 0.16 0.13 0.291 0.291 0.291h3.918c0.161 0 0.291-0.131 0.291-0.291v-1.355c0-0.161-0.13-0.291-0.291-0.291h-3.918zm6 0c-0.161 0-0.291 0.13-0.291 0.291v1.355c0 0.16 0.13 0.291 0.291 0.291h3.918c0.161 0 0.291-0.131 0.291-0.291v-1.355c1e-6 -0.161-0.13-0.291-0.291-0.291h-3.918zm6 0c-0.161 0-0.291 0.13-0.291 0.291v1.355c1e-6 0.16 0.13 0.291 0.291 0.291h3.918c0.161 0 0.291-0.131 0.291-0.291v-1.355c1e-6 -0.161-0.13-0.291-0.291-0.291h-3.918zm6 0c-0.161 0-0.291 0.13-0.291 0.291v1.355c1e-6 0.16 0.13 0.291 0.291 0.291h3.918c0.161 0 0.291-0.131 0.291-0.291v-1.355c0-0.161-0.13-0.291-0.291-0.291h-3.918zm6.01 0c-0.161 0-0.291 0.13-0.291 0.291v1.355c0 0.16 0.13 0.291 0.291 0.291h3.918c0.161 0 0.291-0.131 0.291-0.291v-1.355c0-0.161-0.13-0.291-0.291-0.291h-3.918zm6 0c-0.161 0-0.291 0.13-0.291 0.291v1.355c0 0.16 0.13 0.291 0.291 0.291h3.918c0.161 0 0.291-0.131 0.291-0.291v-1.355c0-0.161-0.13-0.291-0.291-0.291h-3.918zm6 0c-0.161 0-0.291 0.13-0.291 0.291v1.355c0 0.16 0.13 0.291 0.291 0.291h3.918c0.161 0 0.291-0.131 0.291-0.291v-1.355c0-0.161-0.13-0.291-0.291-0.291h-3.918zm6 0c-0.161 0-0.291 0.13-0.291 0.291v1.355c0 0.16 0.13 0.291 0.291 0.291h3.918c0.161 0 0.291-0.131 0.291-0.291v-1.355c0-0.161-0.13-0.291-0.291-0.291h-3.918zm6 0c-0.161 0-0.291 0.13-0.291 0.291v1.355c0 0.16 0.13 0.291 0.291 0.291h3.918c0.161 0 0.291-0.131 0.291-0.291v-1.355c0-0.161-0.13-0.291-0.291-0.291h-3.918zm6 0c-0.161 0-0.291 0.13-0.291 0.291v1.355c0 0.16 0.13 0.291 0.291 0.291h3.918c0.161 0 0.291-0.131 0.291-0.291v-1.355c0-0.161-0.13-0.291-0.291-0.291h-3.918zm6 0c-0.161 0-0.291 0.13-0.291 0.291v1.355c0 0.16 0.13 0.291 0.291 0.291h3.918c0.161 0 0.291-0.131 0.291-0.291v-1.355c0-0.161-0.13-0.291-0.291-0.291h-3.918zm6 0c-0.161 0-0.291 0.13-0.291 0.291v1.355c0 0.16 0.13 0.291 0.291 0.291h3.918c0.161 0 0.291-0.131 0.291-0.291v-1.355c0-0.161-0.13-0.291-0.291-0.291h-3.918zm6 0c-0.161 0-0.291 0.13-0.291 0.291v1.355c0 0.16 0.13 0.291 0.291 0.291h3.918c0.161 0 0.291-0.131 0.291-0.291v-1.355c0-0.161-0.13-0.291-0.291-0.291h-3.918zm16 0c-0.161 0-0.291 0.13-0.291 0.291v1.355c0 0.16 0.13 0.291 0.291 0.291h3.918c0.161 0 0.291-0.131 0.291-0.291v-1.355c0-0.161-0.13-0.291-0.291-0.291h-3.918zm6 0c-0.161 0-0.291 0.13-0.291 0.291v1.355c0 0.16 0.13 0.291 0.291 0.291h3.918c0.161 0 0.291-0.131 0.291-0.291v-1.355c0-0.161-0.13-0.291-0.291-0.291h-3.918zm6 0c-0.161 0-0.291 0.13-0.291 0.291v1.355c0 0.16 0.13 0.291 0.291 0.291h3.918c0.161 0 0.291-0.131 0.291-0.291v-1.355c0-0.161-0.13-0.291-0.291-0.291h-3.918zm-130 3c-0.161 0-0.291 0.13-0.291 0.291v1.355c0 0.16 0.13 0.291 0.291 0.291h3.918c0.161 0 0.291-0.131 0.291-0.291v-1.355c0-0.161-0.13-0.291-0.291-0.291h-3.918zm6 0c-0.161 0-0.291 0.13-0.291 0.291v1.355c0 0.16 0.13 0.291 0.291 0.291h3.918c0.161 0 0.291-0.131 0.291-0.291v-1.355c0-0.161-0.13-0.291-0.291-0.291h-3.918zm6 0c-0.161 0-0.291 0.13-0.291 0.291v1.355c0 0.16 0.13 0.291 0.291 0.291h3.918c0.161 0 0.291-0.131 0.291-0.291v-1.355c0-0.161-0.13-0.291-0.291-0.291h-3.918zm6 0c-0.161 0-0.291 0.13-0.291 0.291v1.355c0 0.16 0.13 0.291 0.291 0.291h3.918c0.161 0 0.291-0.131 0.291-0.291v-1.355c0-0.161-0.13-0.291-0.291-0.291h-3.918zm6 0c-0.161 0-0.291 0.13-0.291 0.291v1.355c0 0.16 0.13 0.291 0.291 0.291h3.918c0.161 0 0.291-0.131 0.291-0.291v-1.355c0-0.161-0.13-0.291-0.291-0.291h-3.918zm6 0c-0.161 0-0.291 0.13-0.291 0.291v1.355c0 0.16 0.13 0.291 0.291 0.291h3.918c0.161 0 0.291-0.131 0.291-0.291v-1.355c0-0.161-0.13-0.291-0.291-0.291h-3.918zm6 0c-0.161 0-0.291 0.13-0.291 0.291v1.355c0 0.16 0.13 0.291 0.291 0.291h3.918c0.161 0 0.291-0.131 0.291-0.291v-1.355c1e-6 -0.161-0.13-0.291-0.291-0.291h-3.918zm6 0c-0.161 0-0.291 0.13-0.291 0.291v1.355c1e-6 0.16 0.13 0.291 0.291 0.291h3.918c0.161 0 0.291-0.131 0.291-0.291v-1.355c1e-6 -0.161-0.13-0.291-0.291-0.291h-3.918zm6 0c-0.161 0-0.291 0.13-0.291 0.291v1.355c1e-6 0.16 0.13 0.291 0.291 0.291h3.918c0.161 0 0.291-0.131 0.291-0.291v-1.355c0-0.161-0.13-0.291-0.291-0.291h-3.918zm6.01 0c-0.161 0-0.291 0.13-0.291 0.291v1.355c0 0.16 0.13 0.291 0.291 0.291h3.918c0.161 0 0.291-0.131 0.291-0.291v-1.355c0-0.161-0.13-0.291-0.291-0.291h-3.918zm6 0c-0.161 0-0.291 0.13-0.291 0.291v1.355c0 0.16 0.13 0.291 0.291 0.291h3.918c0.161 0 0.291-0.131 0.291-0.291v-1.355c0-0.161-0.13-0.291-0.291-0.291h-3.918zm6 0c-0.161 0-0.291 0.13-0.291 0.291v1.355c0 0.16 0.13 0.291 0.291 0.291h3.918c0.161 0 0.291-0.131 0.291-0.291v-1.355c0-0.161-0.13-0.291-0.291-0.291h-3.918zm6 0c-0.161 0-0.291 0.13-0.291 0.291v1.355c0 0.16 0.13 0.291 0.291 0.291h3.918c0.161 0 0.291-0.131 0.291-0.291v-1.355c0-0.161-0.13-0.291-0.291-0.291h-3.918zm6 0c-0.161 0-0.291 0.13-0.291 0.291v1.355c0 0.16 0.13 0.291 0.291 0.291h3.918c0.161 0 0.291-0.131 0.291-0.291v-1.355c0-0.161-0.13-0.291-0.291-0.291h-3.918zm6 0c-0.161 0-0.291 0.13-0.291 0.291v1.355c0 0.16 0.13 0.291 0.291 0.291h3.918c0.161 0 0.291-0.131 0.291-0.291v-1.355c0-0.161-0.13-0.291-0.291-0.291h-3.918zm6 0c-0.161 0-0.291 0.13-0.291 0.291v1.355c0 0.16 0.13 0.291 0.291 0.291h3.918c0.161 0 0.291-0.131 0.291-0.291v-1.355c0-0.161-0.13-0.291-0.291-0.291h-3.918zm6 0c-0.161 0-0.291 0.13-0.291 0.291v1.355c0 0.16 0.13 0.291 0.291 0.291h3.918c0.161 0 0.291-0.131 0.291-0.291v-1.355c0-0.161-0.13-0.291-0.291-0.291h-3.918zm6 0c-0.161 0-0.291 0.13-0.291 0.291v1.355c0 0.16 0.13 0.291 0.291 0.291h3.918c0.161 0 0.291-0.131 0.291-0.291v-1.355c0-0.161-0.13-0.291-0.291-0.291h-3.918zm16 0c-0.161 0-0.291 0.13-0.291 0.291v1.355c0 0.16 0.13 0.291 0.291 0.291h3.918c0.161 0 0.291-0.131 0.291-0.291v-1.355c0-0.161-0.13-0.291-0.291-0.291h-3.918zm6 0c-0.161 0-0.291 0.13-0.291 0.291v1.355c0 0.16 0.13 0.291 0.291 0.291h3.918c0.161 0 0.291-0.131 0.291-0.291v-1.355c0-0.161-0.13-0.291-0.291-0.291h-3.918zm6 0c-0.161 0-0.291 0.13-0.291 0.291v1.355c0 0.16 0.13 0.291 0.291 0.291h3.918c0.161 0 0.291-0.131 0.291-0.291v-1.355c0-0.161-0.13-0.291-0.291-0.291h-3.918z" fill="#282828" style="isolation:isolate"/>
      <circle cx="203.2" cy="289.2" r="5" fill="url(#_lgradient_243)" vector-effect="non-scaling-stroke"/>
      <circle cx="203.2" cy="289.2" r="3" fill="url(#_lgradient_244)" vector-effect="non-scaling-stroke"/>
    </g>
    <g transform="matrix(1.091 0 0 1.091 -11.68 -4.481)">
      <path d="m154.7 27.19c51.86 0 61.22 8.742 61.22 50.7v32.64c0 40.79-9.364 49.54-61.22 49.54h-53.3c-51.86 0-61.22-8.742-61.22-49.54v-32.64c1e-6 -41.96 9.364-50.7 61.22-50.7z" fill="url(#linearGradient11)" stroke-width=".6479" style="isolation:isolate"/>
      <path d="m75.84 102.7h104.3c2.856 0 5.175 2.319 5.175 5.175v34.65c0 2.856-2.319 5.175-5.175 5.175h-104.3c-2.856 0-5.175-2.319-5.175-5.175v-34.65c0-2.856 2.319-5.175 5.175-5.175z" fill="#ebdbb2"/>
      <path d="m70.67 137.4h114.7v5.077c0 2.856-2.319 5.175-5.175 5.175h-104.3c-2.856 0-5.175-2.319-5.175-5.175z" fill="url(#_lgradient_245)"/>
      <path d="m78.63 108.7h38.8l-1.784 11.48c-0.294 1.896-2.09 3.434-4.008 3.434h-36.49l2.139-13.77c0.098-0.632 0.697-1.145 1.336-1.145z" fill="url(#_lgradient_246)"/>
      <path d="m90.29 113.1-0.136 0.774h-1.873l0.137-0.774q0.017-0.098-0.067-0.098h-6.222q-0.098 0-0.116 0.098l-0.367 2.083q-0.018 0.099 0.081 0.099h6.222q0.802 0 1.279 0.57 0.476 0.57 0.332 1.387l-0.367 2.083q-0.144 0.816-0.822 1.386-0.677 0.571-1.48 0.571h-6.221q-0.817 0-1.286-0.571-0.47-0.57-0.326-1.386l0.137-0.774h1.858l-0.137 0.774q-0.017 0.098 0.081 0.098h6.222q0.085 0 0.102-0.098l0.367-2.083q0.018-0.099-0.067-0.099h-6.222q-0.816 0-1.286-0.57-0.469-0.57-0.325-1.387l0.367-2.083q0.144-0.816 0.815-1.386 0.67-0.57 1.487-0.57h6.221q0.803 0 1.279 0.57 0.477 0.57 0.333 1.386zm11.57 0-0.137 0.774h-1.872l0.137-0.774q0.017-0.098-0.067-0.098h-6.222q-0.099 0-0.116 0.098l-0.367 2.083q-0.018 0.099 0.081 0.099h6.222q0.802 0 1.279 0.57 0.476 0.57 0.332 1.387l-0.367 2.083q-0.144 0.816-0.822 1.386-0.677 0.571-1.48 0.571h-6.222q-0.816 0-1.286-0.571-0.469-0.57-0.325-1.386l0.136-0.774h1.858l-0.136 0.774q-0.017 0.098 0.081 0.098h6.222q0.084 0 0.102-0.098l0.367-2.083q0.017-0.099-0.067-0.099h-6.222q-0.816 0-1.286-0.57-0.469-0.57-0.325-1.387l0.367-2.083q0.144-0.816 0.814-1.386 0.671-0.57 1.488-0.57h6.221q0.803 0 1.279 0.57 0.477 0.57 0.333 1.386zm0.092 8.179 1.787-10.14h8.165q0.816 0 1.293 0.57 0.476 0.57 0.332 1.386l-1.097 6.222q-0.144 0.816-0.821 1.386-0.678 0.571-1.495 0.571zm8.608-1.957 1.097-6.222q0.017-0.098-0.081-0.098h-6.208q-0.098 0-0.116 0.098l-1.097 6.222q-0.017 0.098 0.081 0.098h6.208q0.099 0 0.116-0.098z" fill="url(#_lgradient_247)"/>
    </g>
  </g>
</svg>
