<svg width="256" height="256" version="1.1" xmlns="http://www.w3.org/2000/svg">
  <defs>
    <linearGradient id="linearGradient10" x1="128" x2="128" y1="12" y2="240" gradientUnits="userSpaceOnUse">
      <stop stop-color="#ebdbb2" stop-opacity=".2" offset="0"/>
      <stop stop-color="#ebdbb2" stop-opacity="0" offset=".24921"/>
      <stop stop-color="#1d2021" stop-opacity=".05" offset=".50485"/>
      <stop stop-color="#1d2021" stop-opacity=".15" offset=".75285"/>
      <stop stop-color="#1d2021" stop-opacity=".25" offset="1"/>
    </linearGradient>
    <linearGradient id="linearGradient15" x1="128" x2="128" y1="12" y2="240" gradientUnits="userSpaceOnUse">
      <stop stop-color="#83a598" offset="0"/>
      <stop stop-color="#458588" offset="1"/>
    </linearGradient>
  </defs>
  <path d="m165 12c72 0 85 15 85 87v56c0 70-13 85-85 85h-74c-72 0-85-15-85-85v-56c0-72 13-87 85-87z" fill="url(#linearGradient15)" style="isolation:isolate"/>
  <path d="m6.7852 179.93c3.6735 48.768 21.716 60.07 84.215 60.07h74c62.499 0 80.541-11.303 84.215-60.07z" fill="#ebdbb2" style="isolation:isolate"/>
  <path d="m186.96 193c7.732 0 14 6.268 14 14s-6.268 14-14 14-14-6.268-14-14 6.268-14 14-14z" fill="#fbf1c7" opacity=".6" style="isolation:isolate"/>
  <path d="m186.96 189.91c7.732 0 14 6.268 14 14s-6.268 14-14 14-14-6.268-14-14 6.268-14 14-14z" fill="#458588" style="isolation:isolate"/>
  <path d="m186.96 189.91c-7.732 0-14 6.268-14 14 0 0.52234 0.0283 1.0394 0.084 1.5469 0.76921-7.0048 6.7063-12.455 13.916-12.455s13.145 5.4503 13.914 12.455c0.0557-0.5075 0.0859-1.0245 0.0859-1.5469 0-7.732-6.268-14-14-14z" fill="#282828" opacity=".3" style="isolation:isolate"/>
  <path d="m128.23 34.9-8.746 15.14h6.239v77.41l-15.92-15.07c-1.028-1.282-1.749-2.961-1.789-4.687 0-6.985-2e-3 -11.13-5e-3 -12.66 2.948-1.035 5.076-3.815 5.076-7.119 0-4.181-3.392-7.573-7.574-7.573-4.184 0-7.575 3.392-7.575 7.573 0 3.304 2.127 6.084 5.073 7.119l-2e-3 12.51c0 3.391 1.86 6.944 4.041 9.205-0.065-0.062-0.134-0.126 1e-3 4e-3 0.054 0.048 16.89 15.99 16.89 15.99 1.027 1.28 1.744 2.957 1.785 4.682v8.757c-5.785 1.161-10.14 6.27-10.14 12.4 0 6.987 5.664 12.65 12.65 12.65 6.987 0 12.65-5.663 12.65-12.65 0-6.129-4.362-11.24-10.15-12.4v-8.603c0-0.023 1e-3 -0.045 0-0.067v-19.03c0.044-1.722 0.761-3.397 1.789-4.676 0 0 16.84-15.94 16.89-15.99 0.136-0.128 0.065-0.065 2e-3 -2e-3 2.18-2.261 4.039-5.815 4.039-9.206l-3e-3 -12.06h5.078v-15.15h-15.15v15.15h5.071s-6e-3 3.176-6e-3 12.2c-0.039 1.727-0.76 3.407-1.788 4.689l-15.93 15.08v-58.48h6.249l-8.745-15.14z" fill="#282828" opacity=".3" style="isolation:isolate"/>
  <path d="m128.23 29.19-8.746 15.14h6.239v77.41l-15.92-15.07c-1.028-1.282-1.749-2.961-1.789-4.687 0-6.985-2e-3 -11.13-5e-3 -12.66 2.948-1.035 5.076-3.815 5.076-7.119 0-4.181-3.392-7.573-7.574-7.573-4.184 0-7.575 3.392-7.575 7.573 0 3.304 2.127 6.084 5.073 7.119l-2e-3 12.51c0 3.391 1.86 6.944 4.041 9.205-0.065-0.062-0.134-0.126 1e-3 4e-3 0.054 0.048 16.89 15.99 16.89 15.99 1.027 1.28 1.744 2.957 1.785 4.682v8.757c-5.785 1.161-10.14 6.27-10.14 12.4 0 6.987 5.664 12.65 12.65 12.65 6.987 0 12.65-5.663 12.65-12.65 0-6.129-4.362-11.24-10.15-12.4v-8.603c0-0.023 1e-3 -0.045 0-0.067v-19.03c0.044-1.722 0.761-3.397 1.789-4.676 0 0 16.84-15.94 16.89-15.99 0.136-0.128 0.065-0.065 2e-3 -2e-3 2.18-2.261 4.039-5.815 4.039-9.206l-3e-3 -12.06h5.078v-15.15h-15.15v15.15h5.071s-6e-3 3.176-6e-3 12.2c-0.039 1.727-0.76 3.407-1.788 4.689l-15.93 15.08v-58.48h6.249l-8.745-15.14z" fill="#ebdbb2" style="isolation:isolate"/>
  <path d="m128.23 29.185v0.0039l-8.7461 15.141h3.2988l5.4473-9.4297v-0.0039l5.4473 9.4297h3.2988zm15.15 26.502v5.709h15.148v-5.709zm-37.869 18.943c-4.184 0-7.5742 3.3913-7.5742 7.5723 0 1.0104 0.19818 1.9722 0.55859 2.8496 1.129-2.7637 3.8445-4.7109 7.0156-4.7109 3.1695 0 5.8864 1.9473 7.0156 4.7109 0.36054-0.8774 0.55859-1.8393 0.55859-2.8496 0-4.181-3.3922-7.5723-7.5742-7.5723zm42.934 1.916c-7.3e-4 1.7066 0 3.8478 0 6.4902-0.039 1.727-0.76107 3.4075-1.7891 4.6895l-15.93 15.08v5.709l15.93-15.08c1.028-1.282 1.7501-2.9625 1.7891-4.6895 0-9.024 6e-3 -12.199 6e-3 -12.199zm5.0059 0 2e-3 6.498c7.9e-4 -0.04962 2e-3 -0.09888 2e-3 -0.14844l-2e-3 -6.3496zm-45.438 18.484c-1e-3 4.84e-4 -3e-3 0.0015-4e-3 2e-3 3e-3 1.53 6e-3 5.6752 6e-3 12.66 0.04 1.726 0.76106 3.4055 1.7891 4.6875l15.92 15.068v-5.709l-15.92-15.07c-1.028-1.282-1.7491-2.9615-1.7891-4.6875 0-2.7541-1e-3 -5.0663-2e-3 -6.9512zm17.711 45.439c-5.785 1.161-10.141 6.2704-10.141 12.4 0 0.98159 0.11268 1.9362 0.32422 2.8535 1.1088-4.8101 4.9582-8.568 9.8164-9.543zm5.0098 0v5.7109c4.861 0.97422 8.716 4.7345 9.8262 9.5449 0.21171-0.91769 0.32422-1.8734 0.32422-2.8555 0-6.129-4.3624-11.24-10.15-12.4z" fill="#fbf1c7" opacity=".6" style="isolation:isolate"/>
  <path d="m91 12c-72 0-85 15-85 87v56c0 70 13 85 85 85h74c72 0 85-15 85-85v-56c0-72-13-87-85-87zm0 5h74c35.653 0 55.307 3.9448 65.895 14.965 10.588 11.02 14.105 31.336 14.105 67.035v56c0 34.69-3.4936 54.457-14.07 65.25-10.577 10.793-30.277 14.75-65.93 14.75h-74c-35.653 0-55.353-3.9574-65.93-14.75-10.577-10.793-14.07-30.56-14.07-65.25v-56c0-35.699 3.5176-56.015 14.105-67.035 10.588-11.02 30.242-14.965 65.895-14.965z" fill="url(#linearGradient10)" style="isolation:isolate"/>
</svg>
