<svg width="256" height="256" version="1.1" xmlns="http://www.w3.org/2000/svg">
  <defs>
    <linearGradient id="linearGradient10" x1="128" x2="128" y1="12" y2="240" gradientUnits="userSpaceOnUse">
      <stop stop-color="#ebdbb2" stop-opacity=".2" offset="0"/>
      <stop stop-color="#ebdbb2" stop-opacity="0" offset=".24921"/>
      <stop stop-color="#1d2021" stop-opacity=".05" offset=".50485"/>
      <stop stop-color="#1d2021" stop-opacity=".15" offset=".75285"/>
      <stop stop-color="#1d2021" stop-opacity=".25" offset="1"/>
    </linearGradient>
    <linearGradient id="linearGradient15" x1="128" x2="128" y1="12" y2="240" gradientUnits="userSpaceOnUse">
      <stop stop-color="#83a598" offset="0"/>
      <stop stop-color="#458588" offset="1"/>
    </linearGradient>
  </defs>
  <path d="m165 12c72 0 85 15 85 87v56c0 70-13 85-85 85h-74c-72 0-85-15-85-85v-56c0-72 13-87 85-87z" fill="url(#linearGradient15)" style="isolation:isolate"/>
  <path d="m84.413 55.741-26.878 26.878 10.076 10.076 26.878-26.878zm87.175 0.15518-26.876 26.878 26.876 26.878 26.878-26.878zm-70.395 16.626-26.876 26.876 10.074 10.076 26.878-26.878zm26.913 20.496a33.244 33.254 45 0 0-23.511 9.7435 33.244 33.254 45 0 0-0.0122 47.023 33.244 33.254 45 0 0 47.023-0.0102h4e-3a33.244 33.254 45 0 0 8e-3 -47.023 33.244 33.254 45 0 0-23.511-9.7333zm2e-3 14.227a18.995 19.005 45 0 1 13.437 5.566 18.995 19.005 45 0 1-4e-3 26.878 18.995 19.005 45 0 1-26.878 4e-3 18.995 19.005 45 0 1 4e-3 -26.878 18.995 19.005 45 0 1 13.441-5.57zm-19.048 61.765v14.26h38.033v-14.26zm0 23.73v14.26h38.033v-14.26z" fill="#282828" opacity=".3" style="isolation:isolate"/>
  <path d="m84.413 50.731-26.878 26.878 10.076 10.076 26.878-26.878zm87.175 0.15518-26.876 26.878 26.876 26.878 26.878-26.878zm-70.395 16.626-26.876 26.876 10.074 10.076 26.878-26.878zm26.913 20.496a33.244 33.254 45 0 0-23.511 9.7435 33.244 33.254 45 0 0-0.0122 47.023 33.244 33.254 45 0 0 47.023-0.0102h4e-3a33.244 33.254 45 0 0 8e-3 -47.023 33.244 33.254 45 0 0-23.511-9.7333zm2e-3 14.227a18.995 19.005 45 0 1 13.437 5.566 18.995 19.005 45 0 1-4e-3 26.878 18.995 19.005 45 0 1-26.878 4e-3 18.995 19.005 45 0 1 4e-3 -26.878 18.995 19.005 45 0 1 13.441-5.57zm-19.048 61.765v14.26h38.033v-14.26zm0 23.73v14.26h38.033v-14.26z" fill="#ebdbb2" style="isolation:isolate"/>
  <path d="m84.416 50.731-26.877 26.879 2.502 2.502 24.371-24.371 7.5742 7.5742 2.5059-2.5078zm87.176 0.15625-26.877 26.879 2.502 2.502 24.371-24.371 24.375 24.375 2.5059-2.5059zm-70.396 16.627-26.875 26.875 2.502 2.5039 24.369-24.369 7.5723 7.5723 2.5078-2.5078zm26.914 20.494a33.244 33.254 45 0 0-23.512 9.7441 33.244 33.254 45 0 0-9.584 26.004 33.244 33.254 45 0 1 9.5801-20.994 33.244 33.254 45 0 1 23.512-9.7441 33.244 33.254 45 0 1 23.512 9.7344 33.244 33.254 45 0 1 9.5723 21.025 33.244 33.254 45 0 0-9.5684-26.035 33.244 33.254 45 0 0-23.512-9.7344zm-18.846 35.734a18.995 19.005 45 0 0 5.3984 15.951 18.995 19.005 45 0 0 26.879-4e-3 18.995 19.005 45 0 0 5.4062-15.936 18.995 19.005 45 0 1-5.4023 10.926 18.995 19.005 45 0 1-26.879 4e-3 18.995 19.005 45 0 1-5.4023-10.941zm-0.20118 40.258v5.0098h38.029v9.25h4e-3v-14.26zm0 23.73v5.0098h38.029v9.25h4e-3v-14.26z" fill="#fbf1c7" opacity=".6" style="isolation:isolate"/>
  <path d="m91 12c-72 0-85 15-85 87v56c0 70 13 85 85 85h74c72 0 85-15 85-85v-56c0-72-13-87-85-87zm0 5h74c35.653 0 55.307 3.9448 65.895 14.965 10.588 11.02 14.105 31.336 14.105 67.035v56c0 34.69-3.4936 54.457-14.07 65.25-10.577 10.793-30.277 14.75-65.93 14.75h-74c-35.653 0-55.353-3.9574-65.93-14.75-10.577-10.793-14.07-30.56-14.07-65.25v-56c0-35.699 3.5176-56.015 14.105-67.035 10.588-11.02 30.242-14.965 65.895-14.965z" fill="url(#linearGradient10)" style="isolation:isolate"/>
</svg>
