<svg width="256" height="256" style="isolation:isolate" version="1.1" xmlns="http://www.w3.org/2000/svg">
  <g transform="translate(0 -.1185)" filter="url(#a)">
    <linearGradient id="b" x1=".5002" x2=".5002" y2="1" gradientTransform="matrix(244,0,0,228,5.981,12.12)" gradientUnits="userSpaceOnUse">
      <stop stop-color="#504945" offset="0"/>
      <stop stop-color="#3c3836" offset="1"/>
    </linearGradient>
    <path d="m165 12.12c72 0 85 15 85 87v56c0 70-13 85-85 85h-74c-72 0-85-15-85-85v-56c0-72 13-87 85-87z" fill="url(#b)"/>
  </g>
  <defs>
    <linearGradient id="linearGradient31" x1=".5002" x2=".5002" y2="1" gradientTransform="matrix(244,0,0,228,5.988,12.12)" gradientUnits="userSpaceOnUse">
      <stop stop-color="#928374" offset="0"/>
      <stop stop-color="#928374" stop-opacity=".09804" offset=".1"/>
      <stop stop-opacity=".09804" offset=".9"/>
      <stop stop-opacity=".498" offset="1"/>
    </linearGradient>
  </defs>
  <g transform="translate(.0005039 -.1185)" opacity=".5">
    <path d="m91 12.12c-72 0-85 15-85 87v56c0 70 13 85 85 85h74c72 0 85-15 85-85v-56c0-72-13-87-85-87zm0 4h74c68 0 80 15 80 83v56c0 66-12 81-80 81h-74c-68 0-80-15-80-81v-56c0-68 12-83 80-83z" fill="url(#linearGradient31)" opacity="1"/>
  </g>
  <path d="m185.1 42.56v9.082h36.33v-9.082zm0 18.16v9.082h36.33v-9.082zm0 18.17v9.082h36.33v-9.082zm0 18.16v9.082h36.33v-9.082zm0 18.16v9.084h36.33v-9.084zm0 18.17v9.082h36.33v-9.082zm-141.4 38.8c-5.047 0-9.145 4.098-9.145 9.145v22.96c0 5.047 4.098 9.145 9.145 9.145h67.34c5.047 0 9.145-4.098 9.145-9.145v-22.96c0-5.047-4.098-9.145-9.145-9.145zm101.2 0c-5.047 0-9.145 4.098-9.145 9.145v22.96c0 5.047 4.098 9.145 9.145 9.145h67.34c5.047 0 9.145-4.098 9.145-9.145v-22.96c0-5.047-4.098-9.145-9.145-9.145z" fill="#282828" style="isolation:isolate"/>
</svg>
