<svg width="256" height="256" style="isolation:isolate" version="1.1" xmlns="http://www.w3.org/2000/svg">
  <g transform="translate(0 -.1185)" filter="url(#a)">
    <linearGradient id="b" x1=".5002" x2=".5002" y2="1" gradientTransform="matrix(244,0,0,228,5.981,12.12)" gradientUnits="userSpaceOnUse">
      <stop stop-color="#83a598" offset="0"/>
      <stop stop-color="#458588" offset="1"/>
    </linearGradient>
    <path d="m165 12.12c72 0 85 15 85 87v56c0 70-13 85-85 85h-74c-72 0-85-15-85-85v-56c0-72 13-87 85-87z" fill="url(#b)"/>
  </g>
  <defs>
    <linearGradient id="linearGradient31" x1=".5002" x2=".5002" y2="1" gradientTransform="matrix(244,0,0,228,5.988,12.12)" gradientUnits="userSpaceOnUse">
      <stop stop-color="#d5c4a1" offset="0"/>
      <stop stop-color="#d5c4a1" stop-opacity=".09804" offset=".1"/>
      <stop stop-color="#282828" stop-opacity=".1" offset=".9"/>
      <stop stop-color="#282828" stop-opacity=".4" offset="1"/>
    </linearGradient>
    <linearGradient id="a">
      <stop stop-color="#3c3836" offset="0"/>
      <stop stop-color="#504945" offset="1"/>
    </linearGradient>
  </defs>
  <g transform="translate(.0005039 -.1185)" opacity=".5">
    <path d="m91 12.12c-72 0-85 15-85 87v56c0 70 13 85 85 85h74c72 0 85-15 85-85v-56c0-72-13-87-85-87zm0 4h74c68 0 80 15 80 83v56c0 66-12 81-80 81h-74c-68 0-80-15-80-81v-56c0-68 12-83 80-83z" fill="url(#linearGradient31)" opacity="1"/>
  </g>
  <g transform="translate(.001177 1.116)" style="isolation:isolate">
    <path d="m128 79.6c-27.38 0-53.24 12.08-70.95 33.15-2.352 2.798-1.991 6.973 0.8105 9.326 1.241 1.042 2.747 1.555 4.252 1.555 1.889 0 3.765-0.8053 5.076-2.363 15.18-18.06 37.35-28.43 60.81-28.43s45.62 10.36 60.81 28.42c1.311 1.558 3.186 2.363 5.076 2.363 1.505 0 3.014-0.5087 4.254-1.555 2.799-2.349 3.162-6.528 0.8086-9.322l2e-3 6e-3c-17.71-21.07-43.57-33.15-70.95-33.15zm-4e-3 28.04c-19.56 1e-3 -38.02 8.632-50.68 23.68-2.353 2.798-1.99 6.973 0.8125 9.326 1.24 1.041 2.749 1.553 4.254 1.553 1.889 0 3.764-0.8033 5.07-2.361 10.12-12.04 24.9-18.95 40.54-18.95s30.42 6.909 40.54 18.95c1.311 1.563 3.187 2.361 5.072 2.361 1.505 0 3.014-0.5067 4.254-1.553 2.803-2.353 3.166-6.532 0.8125-9.326-12.65-15.05-31.12-23.68-50.68-23.68h-4e-3zm4e-3 29.13c-11.74 5.8e-4 -22.82 5.177-30.41 14.2-2.352 2.799-1.99 6.975 0.8125 9.328 1.24 1.041 2.749 1.553 4.254 1.553 1.889 0 3.765-0.8033 5.072-2.361 5.063-6.025 12.45-9.48 20.27-9.48s15.21 3.455 20.27 9.48c1.311 1.562 3.187 2.361 5.072 2.361 1.505 0 3.013-0.5067 4.254-1.553 2.802-2.353 3.164-6.53 0.8125-9.328-7.583-9.025-18.67-14.2-30.41-14.2h-2e-3zm0 24.84a10.66 10.66 0 0 0-10.66 10.66 10.66 10.66 0 0 0 10.66 10.66 10.66 10.66 0 0 0 10.66-10.66 10.66 10.66 0 0 0-10.66-10.66z" fill="#282828" opacity=".3" style="isolation:isolate"/>
    <path d="m128 73.07c-27.38 0-53.24 12.08-70.95 33.15-2.352 2.798-1.991 6.973 0.8105 9.326 1.241 1.042 2.747 1.555 4.252 1.555 1.889 0 3.765-0.8053 5.076-2.363 15.18-18.06 37.35-28.43 60.81-28.43s45.62 10.36 60.81 28.42c1.311 1.558 3.186 2.363 5.076 2.363 1.505 0 3.014-0.5087 4.254-1.555 2.799-2.349 3.162-6.528 0.8086-9.322l2e-3 6e-3c-17.71-21.07-43.57-33.15-70.95-33.15zm-4e-3 28.04c-19.56 1e-3 -38.02 8.632-50.68 23.68-2.353 2.798-1.99 6.973 0.8125 9.326 1.24 1.041 2.749 1.553 4.254 1.553 1.889 0 3.764-0.8033 5.07-2.361 10.12-12.04 24.9-18.95 40.54-18.95s30.42 6.909 40.54 18.95c1.311 1.563 3.187 2.361 5.072 2.361 1.505 0 3.014-0.5067 4.254-1.553 2.803-2.353 3.166-6.532 0.8125-9.326-12.65-15.05-31.12-23.68-50.68-23.68h-4e-3zm4e-3 29.13c-11.74 5.8e-4 -22.82 5.177-30.41 14.2-2.352 2.799-1.99 6.975 0.8125 9.328 1.24 1.041 2.749 1.553 4.254 1.553 1.889 0 3.765-0.8033 5.072-2.361 5.063-6.025 12.45-9.48 20.27-9.48s15.21 3.455 20.27 9.48c1.311 1.562 3.187 2.361 5.072 2.361 1.505 0 3.013-0.5067 4.254-1.553 2.802-2.353 3.164-6.53 0.8125-9.328-7.583-9.025-18.67-14.2-30.41-14.2h-2e-3zm0 24.84a10.66 10.66 0 0 0-10.66 10.66 10.66 10.66 0 0 0 10.66 10.66 10.66 10.66 0 0 0 10.66-10.66 10.66 10.66 0 0 0-10.66-10.66z" fill="#ebdbb2" style="isolation:isolate"/>
  </g>
</svg>
