<svg width="256" height="256" style="isolation:isolate" version="1.1" viewBox="0 0 256 256" xmlns="http://www.w3.org/2000/svg">
  <defs>
    <filter id="a-3" x="-.04224" y="-.0452" width="1.084" height="1.108" color-interpolation-filters="sRGB">
      <feGaussianBlur in="SourceGraphic" stdDeviation="4.294"/>
      <feOffset dy="4" result="pf_100_offsetBlur"/>
      <feFlood flood-opacity=".4"/>
      <feComposite in2="pf_100_offsetBlur" operator="in" result="pf_100_dropShadow"/>
      <feBlend in="SourceGraphic" in2="pf_100_dropShadow"/>
    </filter>
    <linearGradient id="b-5" x1=".5002" x2=".5002" y2="1" gradientTransform="matrix(244,0,0,228,5.981,12.12)" gradientUnits="userSpaceOnUse">
      <stop stop-color="#83a598" offset="0"/>
      <stop stop-color="#458588" offset="1"/>
    </linearGradient>
    <linearGradient id="linearGradient31" x1=".5002" x2=".5002" y2="1" gradientTransform="matrix(244,0,0,228,5.986,12)" gradientUnits="userSpaceOnUse">
      <stop stop-color="#ebdbb2" offset="0"/>
      <stop stop-color="#ebdbb2" stop-opacity=".09804" offset=".1"/>
      <stop stop-color="#282828" stop-opacity=".1" offset=".9"/>
      <stop stop-color="#282828" stop-opacity=".4" offset="1"/>
    </linearGradient>
  </defs>
  <g transform="translate(9.09e-6 -.12)" filter="url(#a-3)" style="isolation:isolate">
    <path d="m165 12.12c72 0 85 15 85 87v56c0 70-13 85-85 85h-74c-72 0-85-15-85-85v-56c0-72 13-87 85-87z" fill="url(#b-5)"/>
  </g>
  <g transform="translate(9.09e-6 -.12)" opacity=".5" style="isolation:isolate">
    <path transform="translate(-.004996 .116)" d="m91 12c-72 0-85 15-85 87v56c0 70 13 85 85 85h74c72 0 85-15 85-85v-56c0-72-13-87-85-87zm0 4h74c68 0 80 15 80 83v56c0 66-12 81-80 81h-74c-68 0-80-15-80-81v-56c0-68 12-83 80-83z" fill="url(#linearGradient31)" opacity="1"/>
  </g>
  <g style="isolation:isolate">
    <defs>
      <filter id="jHBYce1UgzErREyf37qdxRLXStoss9Za" x="-.09032" y="-.09032" width="1.181" height="1.181" color-interpolation-filters="sRGB">
        <feGaussianBlur stdDeviation="4.294"/>
      </filter>
    </defs>
    <g filter="url(#jHBYce1UgzErREyf37qdxRLXStoss9Za)" opacity=".4">
      <path d="m185 172v-57.05c0-15.74-12.78-28.52-28.52-28.52h-57.05c-15.74 0-28.52 12.78-28.52 28.52v57.05c0 15.74 12.78 28.52 28.52 28.52h57.05c15.74 0 28.52-12.78 28.52-28.52z"/>
    </g>
    <defs>
      <linearGradient id="_lgradient_134" x2="0" y2="1">
        <stop stop-color="#ebdbb2" offset="0"/>
        <stop stop-color="#d5c4a1" offset="1"/>
      </linearGradient>
    </defs>
    <path d="m185 157.6v-90.1c0-6.623-5.377-12-12-12h-90.1c-6.623 0-12 5.377-12 12v90.1c0 6.623 5.377 12 12 12h90.1c6.623 0 12-5.377 12-12z" fill="url(#_lgradient_134)"/>
    <defs></defs>
    <path d="m185 170.1v-58.1c0-15.45-12.55-28-28-28h-58.1c-15.45 0-28 12.55-28 28v58.1c0 15.45 12.55 28 28 28h58.1c15.45 0 28-12.55 28-28z" fill="url(#_lgradient_134)"/>
    <path d="m88.78 69.76h78.44c1.968 0 3.566 1.598 3.566 3.566v83.2c0 1.967-1.598 3.565-3.566 3.565h-78.44c-1.968 0-3.566-1.598-3.566-3.565v-83.2c0-1.968 1.598-3.566 3.566-3.566z" fill="#458588"/>
    <g opacity=".5">
      <linearGradient id="_lgradient_137" x2="0" y2="1" gradientTransform="matrix(14.26 0 0 14.26 89.97 167.2)" gradientUnits="userSpaceOnUse">
        <stop stop-color="#665c54" offset="0"/>
        <stop stop-color="#3c3836" offset="1"/>
      </linearGradient>
      <circle cx="97.1" cy="174.4" r="7.131" fill="url(#_lgradient_137)" vector-effect="non-scaling-stroke"/>
      <linearGradient id="_lgradient_138" x2="0" y2="1" gradientTransform="matrix(14.26 0 0 14.26 149.4 167.2)" gradientUnits="userSpaceOnUse">
        <stop stop-color="#665c54" offset="0"/>
        <stop stop-color="#3c3836" offset="1"/>
      </linearGradient>
      <circle cx="156.5" cy="174.4" r="7.131" fill="url(#_lgradient_138)" vector-effect="non-scaling-stroke"/>
      <linearGradient id="_lgradient_139" x2="0" y2="1" gradientTransform="matrix(19.02 0 0 19.02 118.5 169.6)" gradientUnits="userSpaceOnUse">
        <stop stop-color="#665c54" offset="0"/>
        <stop stop-color="#3c3836" offset="1"/>
      </linearGradient>
      <circle cx="128" cy="179.1" r="9.508" fill="url(#_lgradient_139)" vector-effect="non-scaling-stroke"/>
    </g>
    <g opacity=".7">
      <linearGradient id="_lgradient_140" x2="0" y2="1" gradientTransform="matrix(9.508 0 0 9.508 151.8 55.5)" gradientUnits="userSpaceOnUse">
        <stop stop-color="#fb4934" offset="0"/>
        <stop stop-color="#cc241d" offset="1"/>
      </linearGradient>
      <rect x="151.8" y="55.5" width="9.508" height="9.508" fill="url(#_lgradient_140)"/>
    </g>
    <g opacity=".2">
      <path d="m82.84 55.5c-6.584 0-11.88 5.301-11.88 11.88v2.377c0-6.584 5.301-11.88 11.88-11.88h90.33c6.584 0 11.88 5.301 11.88 11.88v-2.377c0-6.584-5.301-11.88-11.88-11.88h-90.33z" fill="#ebdbb2"/>
    </g>
  </g>
</svg>
