<svg width="256" height="256" style="isolation:isolate" version="1.1" xmlns="http://www.w3.org/2000/svg" xmlns:xlink="http://www.w3.org/1999/xlink">
  <g transform="translate(0 -.1185)" filter="url(#a)">
    <linearGradient id="b" x1=".5002" x2=".5002" y2="1" gradientTransform="matrix(244,0,0,228,5.981,12.12)" gradientUnits="userSpaceOnUse">
      <stop stop-color="#83a598" offset="0"/>
      <stop stop-color="#458588" offset="1"/>
    </linearGradient>
    <path d="m165 12.12c72 0 85 15 85 87v56c0 70-13 85-85 85h-74c-72 0-85-15-85-85v-56c0-72 13-87 85-87z" fill="url(#b)"/>
  </g>
  <defs>
    <linearGradient id="linearGradient31" x1=".5002" x2=".5002" y2="1" gradientTransform="matrix(244,0,0,228,5.988,12.12)" gradientUnits="userSpaceOnUse">
      <stop stop-color="#d5c4a1" offset="0"/>
      <stop stop-color="#d5c4a1" stop-opacity=".09804" offset=".1"/>
      <stop stop-color="#282828" stop-opacity=".1" offset=".9"/>
      <stop stop-color="#282828" stop-opacity=".4" offset="1"/>
    </linearGradient>
    <linearGradient id="a">
      <stop stop-color="#3c3836" offset="0"/>
      <stop stop-color="#504945" offset="1"/>
    </linearGradient>
    <linearGradient id="_lgradient_147" x1="81.32" x2="81.32" y1="49.19" y2="175.5" gradientTransform="scale(.8863 1.128)" gradientUnits="userSpaceOnUse">
      <stop stop-color="#ebdbb2" offset="0"/>
      <stop stop-color="#d5c4a1" offset="1"/>
    </linearGradient>
    <linearGradient id="_lgradient_148" x2="0" y2="1" gradientTransform="matrix(71.23,0,0,111.9,92.39,55.5)" gradientUnits="userSpaceOnUse">
      <stop stop-color="#665c54" offset="0"/>
      <stop stop-color="#3c3836" offset="1"/>
    </linearGradient>
    <linearGradient id="_lgradient_149" x2="0" y2="1" gradientTransform="matrix(30.53,0,0,30.53,112.7,116.6)" gradientUnits="userSpaceOnUse">
      <stop stop-color="#ebdbb2" offset="0"/>
      <stop stop-color="#d5c4a1" offset="1"/>
    </linearGradient>
    <linearGradient id="_lgradient_150" x2="0" y2="1" gradientTransform="matrix(15.26,0,0,15.26,120.4,91.11)" gradientUnits="userSpaceOnUse">
      <stop stop-color="#fabd2f" offset="0"/>
      <stop stop-color="#fabd2f" offset=".5"/>
      <stop stop-color="#fe8019" offset="1"/>
    </linearGradient>
    <linearGradient id="_lgradient_151" x1=".5" x2=".5" y2="1" gradientTransform="matrix(15.26,0,0,15.26,120.4,70.76)" gradientUnits="userSpaceOnUse">
      <stop stop-color="#83a598" offset="0"/>
      <stop stop-color="#458588" offset="1"/>
    </linearGradient>
    <linearGradient id="_lgradient_152" x2="0" y2="1" gradientTransform="matrix(86.49,0,0,10.18,84.75,187.8)" gradientUnits="userSpaceOnUse">
      <stop stop-color="#665c54" offset="0"/>
      <stop stop-color="#3c3836" offset="1"/>
    </linearGradient>
  </defs>
  <g transform="translate(.0005039 -.1185)" opacity=".5">
    <path d="m91 12.12c-72 0-85 15-85 87v56c0 70 13 85 85 85h74c72 0 85-15 85-85v-56c0-72-13-87-85-87zm0 4h74c68 0 80 15 80 83v56c0 66-12 81-80 81h-74c-68 0-80-15-80-81v-56c0-68 12-83 80-83z" fill="url(#linearGradient31)" opacity="1"/>
  </g>
  <g transform="translate(-.03 -1.25)" style="isolation:isolate">
    <g filter="url(#wUUo3Lx5cmom8VLjYzpiGz1wpkJmb2ZT)" opacity=".4">
      <path d="m184 190.3v-122.1c0-5.616-4.56-10.18-10.18-10.18h-91.58c-5.616 0-10.18 4.559-10.18 10.18v122.1c0 5.616 4.56 10.18 10.18 10.18h91.58c5.616 0 10.18-4.559 10.18-10.18z"/>
    </g>
    <path d="m184 188v-122.5c0-5.519-4.481-10-10-10h-91.93c-5.519 0-10 4.481-10 10v122.5c0 5.519 4.481 10 10 10h91.93c5.519 0 10-4.481 10-10z" fill="url(#_lgradient_147)"/>
    <path d="m163.6 55.5v76.32c0 19.73-15.88 35.61-35.61 35.61s-35.61-15.88-35.61-35.61v-76.32h71.23z" fill="url(#_lgradient_148)"/>
    <g opacity=".2">
      <path d="m82.21 55.5c-5.638 0-10.18 4.538-10.18 10.18v2.544c0-5.637 4.538-10.18 10.18-10.18h91.58c5.638 0 10.18 4.538 10.18 10.18v-2.544c0-5.637-4.538-10.18-10.18-10.18z" fill="#ebdbb2"/>
      <circle cx="128" cy="134.4" r="15.26" vector-effect="non-scaling-stroke"/>
    </g>
    <circle cx="128" cy="131.8" r="15.26" fill="url(#_lgradient_149)" vector-effect="non-scaling-stroke"/>
    <g opacity=".2">
      <circle cx="128" cy="101.3" r="7.632" vector-effect="non-scaling-stroke"/>
    </g>
    <circle cx="128" cy="98.75" r="7.632" fill="url(#_lgradient_150)" vector-effect="non-scaling-stroke"/>
    <g opacity=".2">
      <circle cx="128" cy="80.94" r="7.632" vector-effect="non-scaling-stroke"/>
    </g>
    <circle cx="128" cy="78.4" r="7.632" fill="url(#_lgradient_151)" vector-effect="non-scaling-stroke"/>
    <rect x="84.75" y="187.8" width="86.49" height="10.18" fill="url(#_lgradient_152)"/>
    <g fill="#5c616c" opacity=".5">
      <path d="m176.3 126.7c-1.409 0-2.544 1.135-2.544 2.544s1.135 2.544 2.544 2.544h7.632v-5.088zm0 10.18c-1.409 0-2.544 1.134-2.544 2.543 0 1.41 1.135 2.544 2.544 2.544h7.632v-5.087zm0 10.18c-1.409 0-2.544 1.135-2.544 2.544s1.135 2.544 2.544 2.544h7.632v-5.088z"/>
      <path d="m79.67 126.7c1.409 0 2.544 1.135 2.544 2.544s-1.135 2.544-2.544 2.544h-7.632v-5.088zm0 10.18c1.409 0 2.544 1.134 2.544 2.543 0 1.41-1.135 2.544-2.544 2.544h-7.632v-5.087zm0 10.18c1.409 0 2.544 1.135 2.544 2.544s-1.135 2.544-2.544 2.544h-7.632v-5.088z"/>
    </g>
  </g>
</svg>
