<svg width="16" height="16" version="1.1" xmlns="http://www.w3.org/2000/svg">
  <defs>
    <style id="current-color-scheme" type="text/css">.ColorScheme-Text { color:#ebdbb2; } .ColorScheme-Highlight { color:#458588; }</style>
  </defs>
  <path class="ColorScheme-Text" d="m5.1878 12.307c1.4225-1.4807 2.7236-3.0197 2.8906-3.4222 0.16453-0.39993 0.81757-1.1897 1.4529-1.7592 1.6605-1.4833 2.6274-1.3668 3.4601 0.41764 0.21262 0.45561 0.50624 0.82517 0.65051 0.82517 0.32905 0 1.8579-1.4883 1.8579-1.8098 0-0.41765-0.78467-1.139-1.2377-1.139-0.48093 0-0.93654-0.68596-0.93654-1.4073 0-0.54421-1.501-2.0604-2.5894-2.6173-0.5189-0.26324-1.4124-0.39487-2.7084-0.39487-1.9591 0-2.7767 0.32399-1.5238 0.60496 0.37715 0.083524 1.0859 0.48598 1.5744 0.89604 1.2605 1.0555 1.2099 1.8478-0.22781 3.5563-0.61508 0.73151-1.2681 1.3289-1.4529 1.3289-0.40498 0-5.8977 5.1029-5.8977 5.48 0 0.28602 1.6858 2.1338 1.949 2.1338 0.08353 0 1.3162-1.2124 2.7387-2.6932z" fill="currentColor"/>
</svg>
