<svg width="16" height="16" version="1.1" xmlns="http://www.w3.org/2000/svg">
  <defs>
    <style id="current-color-scheme" type="text/css">.ColorScheme-Text { color:#ebdbb2; } .ColorScheme-Highlight { color:#458588; }</style>
  </defs>
  <path class="ColorScheme-Text" d="m14.62 1.001c-0.8013-0.005481-2.703 1.316-4.577 3.191-0.8633 0.8636-1.612 1.718-2.185 2.523 0.6724 0.2142 1.214 0.7552 1.428 1.428 0.8047-0.5738 1.66-1.32 2.523-2.184 2.196-2.197 3.581-4.373 3.094-4.861-0.05016-0.0505-0.1191-0.08247-0.207-0.09374-0.02351-0.00297-0.04838-0.00373-0.07423-0.00389zm-12.62 1c-1.108 0-2 0.892-2 2v8.999c0 1.108 0.892 2 2 2h12c1.108 0 2-0.892 2-2v-8.999c0-0.4596-0.1553-0.8799-0.4139-1.217-0.4418 0.655-0.9729 1.364-1.586 2.107v8.107h-2v-1h-7.998v1h-2v-8.999h6.883c0.7612-0.7295 1.516-1.4 2.244-2h-9.128zm5.499 5.662v0.00195c-2.499 0.6701-0.6252 2.253-2.5 3.334 2.499 0 3.75-1.251 3.75-2.086 0-0.4158 0.04233-1.181-1.25-1.25z" fill="currentColor"/>
</svg>
