<svg width="16" height="16" version="1.1" xmlns="http://www.w3.org/2000/svg">
  <defs>
    <style id="current-color-scheme" type="text/css">.ColorScheme-Text { color:#ebdbb2; } .ColorScheme-Highlight { color:#458588; }</style>
  </defs>
  <path class="ColorScheme-Text" d="m1 8c0 3.866 3.134 7 7 7 1.701-3e-3 3.342-0.6251 4.618-1.75h-4.618c-2.899 0-5.25-2.351-5.25-5.25 1e-7 -2.899 2.351-5.25 5.25-5.25v0.875c-2.416 0-4.375 1.959-4.375 4.375s1.959 4.375 4.375 4.375h5.457c0.2212-0.2761 0.4212-0.5686 0.5981-0.875h-6.055c-1.933 0-3.5-1.567-3.5-3.5s1.567-3.5 3.5-3.5c0.2953 0.00114 0.5893 0.03958 0.875 0.1145v0.9143c-0.2808-0.1006-0.5767-0.1526-0.875-0.1538-1.45 0-2.625 1.175-2.625 2.625s1.175 2.625 2.625 2.625h6.484c0.1136-0.2851 0.2084-0.5774 0.2837-0.875h-6.768c-0.9665 0-1.75-0.7835-1.75-1.75s0.7835-1.75 1.75-1.75c0.6247 4.941e-4 1.202 0.334 1.514 0.875h-1.514c-0.4832 0-0.875 0.3918-0.875 0.875s0.3918 0.875 0.875 0.875h6.938c0.03878-0.2901 0.05932-0.5823 0.06152-0.875 1e-6 -3.866-3.134-7-7-7s-7 3.134-7 7z" fill="currentColor"/>
</svg>
