<svg width="16" height="16" version="1.1" xmlns="http://www.w3.org/2000/svg">
  <defs>
    <style id="current-color-scheme" type="text/css">.ColorScheme-Text { color:#ebdbb2; } .ColorScheme-Highlight { color:#458588; }</style>
  </defs>
  <path class="ColorScheme-Text" d="m2 1c-0.554 0-1 0.446-1 1v3c0 0.554 0.446 1 1 1h10c0.554 0 1-0.446 1-1v-1h1v3h-7v2c-0.554 0-1 0.446-1 1v4c0 0.554 0.446 1 1 1h1c0.554 0 1-0.446 1-1v-4c0-0.554-0.446-1-1-1v-1h7v-5h-2v-1c0-0.554-0.446-1-1-1z" fill="currentColor"/>
</svg>
