<svg width="16" height="16" version="1.1" xmlns="http://www.w3.org/2000/svg">
  <defs>
    <style id="current-color-scheme" type="text/css">.ColorScheme-Text { color:#ebdbb2; } .ColorScheme-Highlight { color:#458588; }</style>
  </defs>
  <path class="ColorScheme-Text" d="m7.953 1.001c-0.3395 0.01594-0.6476 0.2035-0.8176 0.4978-0.2756 0.4774-0.1121 1.088 0.3653 1.364 0.319 0.1783 0.7099 0.1681 1.019-0.02665l6.642e-4 6.641e-4c0.3043 0.3277 0.5801 0.7495 0.8208 1.236-1.249 0.4179-2.6 1.113-3.81 1.958-0.7779 0.5433-1.408 1.226-1.898 1.96-0.02102-0.02602-0.04313-0.05185-0.06369-0.07799-0.987-1.255-1.4-2.61-1.05-3.447 0.1816-0.4339 0.431-0.6208 0.7448-0.7175s0.7072-0.07802 1.093 0.00779c0.772 0.1717 1.474 0.5895 1.474 0.5895 0.1572 0.09509 0.3618 0.04476 0.4569-0.1124 0.09509-0.1572 0.04476-0.3618-0.1124-0.4569 0 0-0.7648-0.4679-1.674-0.6701-0.2273-0.05055-0.4666-0.08604-0.7084-0.09034-0.2418-0.00429-0.4859 0.02263-0.7247 0.09619-0.4775 0.1471-0.9163 0.5069-1.163 1.097-0.5071 1.212 0.07158 2.754 1.142 4.115 0.07108 0.09037 0.1446 0.1802 0.2203 0.2691-0.4455 0.8127-0.7276 1.657-0.8507 2.431-0.4336 0.1166-0.736 0.5083-0.739 0.9573 0 0.5513 0.4469 0.9983 0.9983 0.9983 0.5513 0 0.9983-0.4469 0.9983-0.9983-7.784e-4 -0.3912-0.2299-0.7458-0.5862-0.9073 0.1095-0.6086 0.334-1.284 0.6714-1.949 1.015 1.017 2.326 1.864 3.753 2.251 0.8649 0.2346 1.749 0.2918 2.568 0.2567-0.06153 0.2735-0.1336 0.5331-0.2158 0.7747-0.2137 0.6285-0.4966 1.134-0.8215 1.46-0.3249 0.3267-0.6732 0.4838-1.106 0.4666-0.9546-0.03787-1.495-0.4747-1.834-0.9125-0.3388-0.4378-0.4419-0.854-0.4419-0.854-0.04357-0.1786-0.2237-0.288-0.4023-0.2444-0.1787 0.04386-0.2878 0.2244-0.2437 0.4029 0 0 0.1349 0.5517 0.5615 1.103 0.4266 0.5512 1.178 1.124 2.334 1.17 0.6222 0.02469 1.178-0.2329 1.605-0.6623 0.4269-0.4294 0.7437-1.022 0.9794-1.715 0.1105-0.325 0.2024-0.6737 0.2775-1.039 0.6786-0.07287 1.288-0.2008 1.771-0.3302 0.3022 0.3936 0.8476 0.5054 1.28 0.2626 0.4773-0.2757 0.6408-0.8861 0.3653-1.364-0.1824-0.3162-0.5229-0.5076-0.8878-0.4991-0.1673 0.00404-0.3309 0.05008-0.4757 0.1339-0.2928 0.1729-0.4775 0.483-0.49 0.8228-0.3987 0.1011-0.894 0.2013-1.442 0.2704 0.1407-1.017 0.1602-2.132 0.06434-3.242-0.0961-1.114-0.3234-2.197-0.6805-3.144 0.0097-0.00233 0.01961-0.00546 0.02925-0.00779 0.6705-0.1627 1.266-0.2087 1.703-0.1332 0.4372 0.07549 0.6954 0.2425 0.8371 0.5381 0.6753 1.409-0.4471 2.952-0.4471 2.952-0.1101 0.1473-0.07985 0.356 0.06759 0.466 0.1472 0.1097 0.3554 0.07944 0.4653-0.06759 0 0 1.388-1.814 0.5141-3.638-0.2456-0.5127-0.7481-0.8072-1.324-0.9066-0.2879-0.0497-0.5989-0.05851-0.9294-0.03251-0.3304 0.02602-0.6801 0.08659-1.044 0.1748-0.0448 0.01088-0.0906 0.02336-0.1358 0.0351-0.2912-0.6141-0.6449-1.151-1.065-1.568 0.1449-0.4474-0.04221-0.9353-0.4491-1.171-0.1655-0.09554-0.355-0.1416-0.5459-0.1326zm1.66 3.684c0.3476 0.8852 0.5876 1.925 0.6811 3.008 0.09684 1.122 0.06547 2.252-0.08644 3.252-0.8145 0.05136-1.696 0.01221-2.522-0.2119-1.348-0.3656-2.626-1.213-3.586-2.214 0.4593-0.733 1.063-1.419 1.813-1.943 1.179-0.8232 2.512-1.5 3.701-1.891zm-1.946 2.305c-0.7306 0-1.331 0.6004-1.331 1.331s0.6004 1.331 1.331 1.331 1.331-0.6004 1.331-1.331-0.6004-1.331-1.331-1.331z" fill="currentColor"/>
</svg>
