<svg width="16" height="16" version="1.1" viewBox="0 0 16 16" xmlns="http://www.w3.org/2000/svg">
 <defs>
  <style type="text/css">.ColorScheme-Text { color:#ebdbb2; } .ColorScheme-Highlight { color:#458588; }</style>
 </defs>
 <path class="ColorScheme-Text" d="m2.9531 1.0039c-0.027348-0.00182-0.066421-0.00142-0.11328 0.00586-0.28103 0.04373-0.84375 0.23197-0.84375 0.93164v12.129c0 0.933 1 0.93164 1 0.93164h9.9922c0.99921 0 1-0.93164 1-0.93164 0.0188-0.04301 5e-3 -6.9539 0-9.3301l-3.9961-3.7305h-6.9961s-0.015621-0.00404-0.042969-0.00586zm5.7147 1.9989 0.00204 3.3427 3.33 0.00676c1.04e-4 0.64773 1.04e-4 6.6477 1.04e-4 6.6477h-8c2.026e-4 -3.3333-5.245e-4 -6.6667 0-10 1.3569-0.00283 5 0 4.6678 0.0028362z" fill="currentColor"/>
</svg>
