<svg width="16" height="16" version="1.1" xmlns="http://www.w3.org/2000/svg">
  <defs>
    <style id="current-color-scheme" type="text/css">.ColorScheme-Text { color:#ebdbb2; } .ColorScheme-Highlight { color:#458588; }</style>
  </defs>
  <path class="ColorScheme-Text" d="m8 1.713c-0.1741 6.356e-4 -0.3424 0.04168-0.4941 0.125l-5.986 3.285c-0.4856 0.2666-0.6612 0.8722-0.3945 1.357 0.2666 0.4856 0.8722 0.6612 1.357 0.3945l5.518-3.029 5.518 3.029c0.4856 0.2666 1.091 0.09105 1.357-0.3945 0.2666-0.4856 0.09105-1.091-0.3945-1.357l-5.986-3.285c-0.1578-0.08667-0.3201-0.1256-0.4941-0.125zm-5.996 7.287c-0.3538-0.001481-0.6958 0.1863-0.8789 0.5195-0.2666 0.4856-0.09105 1.091 0.3945 1.357l5.986 3.287c0.1578 0.08667 0.3201 0.1256 0.4941 0.125 0.174-5.99e-4 0.3424-0.04168 0.4941-0.125l5.986-3.287c0.4856-0.2666 0.6612-0.8722 0.3945-1.357-0.2666-0.4856-0.8722-0.6612-1.357-0.3945l-5.518 3.029-5.52-3.029c-0.1512-0.08299-0.314-0.1237-0.4746-0.125h-0.001953z" fill="currentColor"/>
</svg>
