<svg width="16" height="16" version="1.1" xmlns="http://www.w3.org/2000/svg">
  <path d="m4.265 10.54 3.095 3.098s0.6347 0.6347 1.269 0l3.098-3.098z" fill="#ebdbb2" stroke-width="1.269"/>
  <path class="ColorScheme-Text" d="m2.208 8.5c0.3566 0.3566 0.9306 0.3566 1.287 0l1.287-1.287c0.3566-0.3566 0.3566-0.9306 0-1.287l-0.3017-0.3017c2.227-1.064 4.812-1.064 7.04 0l-0.3017 0.3017c-0.3566 0.3566-0.3566 0.9306 0 1.287l1.287 1.287c0.3566 0.3566 0.9306 0.3566 1.287 0l1.931-1.931c0.3566-0.3566 0.3708-0.9162 0.02008-1.267l-0.02012-0.02012c-4.259-4.259-11.16-4.266-15.42-0.02032l-0.04022 0.04022c-0.3486 0.3486-0.3437 0.9035 0 1.247z" color="#458588" fill="currentColor" stroke-width=".9103"/>
</svg>
