<svg width="16" height="16" version="1.1" viewBox="0 0 16 16" xmlns="http://www.w3.org/2000/svg">
  <defs>
    <style id="current-color-scheme" type="text/css">.ColorScheme-Text { color:#ebdbb2; } .ColorScheme-Highlight { color:#458588; }</style>
  </defs>
  <path class="ColorScheme-Text" d="m2.414 1-1.414 1.414 13.59 13.59 1.414-1.414z" fill="currentColor"/>
  <path class="ColorScheme-Text" d="m10.62 1c-1.097-2.88e-6 -2.041 0.6717-2.459 1.635a4 4 0 0 1 1.838 3.365 4 4 0 0 1-0.0293 0.418c0.2084 0.05295 0.426 0.08203 0.6504 0.08203 1.485 3.7e-6 2.689-1.231 2.689-2.75s-1.204-2.75-2.689-2.75zm-4.621 2a3 3 0 0 0-0.1562 0.01758l3.139 3.139a3 3 0 0 0 0.01758-0.1562 3 3 0 0 0-3-3zm-2.982 2.848a3 3 0 0 0-0.01758 0.1523 3 3 0 0 0 3 3 3 3 0 0 0 0.1523-0.01758l-3.135-3.135zm7.604 1.34c-0.193 2.331e-4 -0.3824 0.01628-0.5703 0.03711l4.775 4.775h1.176c-0.3415-2.747-2.646-4.81-5.379-4.812h-0.001953zm-4.627 2.562c-3.049 0.0036-5.619 2.253-6 5.25h12c-0.008738-0.06873-0.01828-0.1372-0.0293-0.2051l-4.959-4.959c-0.3293-0.05538-0.6678-0.0856-1.012-0.08594z" fill="currentColor" opacity=".3"/>
</svg>
