<svg width="16" height="16" version="1.1" xmlns="http://www.w3.org/2000/svg">
  <defs>
    <style id="current-color-scheme" type="text/css">.ColorScheme-Text { color:#ebdbb2; } .ColorScheme-Highlight { color:#458588; }</style>
  </defs>
  <path class="ColorScheme-Text" d="m3.441 3c-0.6094 0.01522-1.238 0.1752-1.717 0.5723-0.6789 0.537-0.8867 1.453-0.8672 2.285-0.02201 0.4263 0.07804 0.8906-0.1523 1.275-0.1422 0.2628-0.4521 0.2427-0.7051 0.2383v1.227c0.1117 0.05606 0.3283-0.02074 0.4629 0.05273 0.3806 0.1662 0.4048 0.637 0.3945 1-0.007842 0.7563-0.02056 1.559 0.3867 2.227 0.4428 0.7686 1.348 1.128 2.197 1.123v-1.248c-0.4902 0.001369-0.9988-0.2506-1.133-0.7598-0.1285-0.4904-0.05522-1.001-0.07812-1.502-0.002692-0.5651-0.2191-1.221-0.7891-1.434-0.328-0.06484 0.02614-0.08936 0.1543-0.1816 0.5193-0.2685 0.639-0.9055 0.6367-1.443 0.01695-0.4721-0.04835-0.955 0.07617-1.416 0.132-0.5002 0.6506-0.764 1.133-0.7676v-1.248zm9.117 0v0.9238c0.02935 0.1056-0.07151 0.3337 0.07422 0.3301 0.4845 0.01663 0.9812 0.3192 1.088 0.8223 0.1153 0.5451 0.02273 1.106 0.07422 1.658 0.02134 0.504 0.2716 1.046 0.7754 1.213 0.2477 0.05019 0.1079 0.06982-0.05273 0.1328-0.5508 0.2404-0.7362 0.8925-0.7363 1.451-0.0194 0.4861 0.04925 0.9822-0.07812 1.457-0.1332 0.5041-0.6595 0.765-1.145 0.7637v1.248c0.6108-0.009202 1.241-0.166 1.721-0.5645 0.6905-0.5458 0.8987-1.478 0.875-2.324 0.02161-0.422-0.07716-0.8816 0.1523-1.262 0.1426-0.2539 0.4449-0.2371 0.6934-0.2324v-1.189c-0.01794-0.1367-0.2871-0.001718-0.3906-0.07227-0.3817-0.1049-0.4666-0.5643-0.4551-0.9102 0.002788-0.7635 0.04031-1.573-0.3574-2.256-0.4378-0.8002-1.365-1.186-2.238-1.189zm-7.559 6.746a1 1 0 0 0-1 1 1 1 0 0 0 1 1 1 1 0 0 0 1-1 1 1 0 0 0-1-1zm3 0a1 1 0 0 0-1 1 1 1 0 0 0 1 1 1 1 0 0 0 1-1 1 1 0 0 0-1-1zm3 0a1 1 0 0 0-1 1 1 1 0 0 0 1 1 1 1 0 0 0 1-1 1 1 0 0 0-1-1z" fill="currentColor"/>
</svg>
