<svg width="16" height="16" version="1.1" xmlns="http://www.w3.org/2000/svg">
  <defs>
    <style id="current-color-scheme" type="text/css">.ColorScheme-Text { color:#ebdbb2; } .ColorScheme-Highlight { color:#458588; }</style>
  </defs>
  <path class="ColorScheme-Text" d="m12.22 0.9961c-0.2125 0-0.4268 0.08305-0.5918 0.248l-1.629 1.641 3.119 3.119 1.641-1.629c0.33-0.33 0.33-0.8516 0-1.182l-1.949-1.949c-0.165-0.165-0.3773-0.248-0.5898-0.248zm-3.342 3.008-7.879 7.881v3.119h3.119l7.881-7.879z" fill="currentColor"/>
  <path class="ColorScheme-Text" d="m12.53 7.999c-0.02085-5.267e-4 -0.04171 1.252e-4 -0.0625 0.00195-0.2101 0.01231-0.4004 0.1431-0.5059 0.3477l-2.877 5.602c-0.2392 0.4654 0.05884 1.047 0.5371 1.049h5.756c0.4791 3.4e-4 0.7787-0.5826 0.5391-1.049l-2.877-5.602c-0.1058-0.2066-0.2979-0.3383-0.5098-0.3496zm-0.5293 2.001h1v2.499h-1zm0 2.999h1v1h-1z" fill="currentColor"/>
</svg>
