<svg version="1.1" viewBox="0 0 16 16" xmlns="http://www.w3.org/2000/svg">
  <defs>
    <style type="text/css">.ColorScheme-Text { color:#ebdbb2; } .ColorScheme-Highlight { color:#458588; }</style>
  </defs>
  <path class="ColorScheme-Text" fill="currentColor" d="m8 0c1.105 0 2 0.8954 2 2h3s1 2e-6 1 1v11c0 1-1 1-1 1h-10s-1-2e-6 -1-1v-11s2e-6 -1 1-1h3c0-1.105 0.8954-2 2-2zm0 1a1 1 0 0 0-1 1 1 1 0 0 0 1 1 1 1 0 0 0 1-1 1 1 0 0 0-1-1zm4 3h-1v1h-6v-1h-1v9h8zm-1 3v1h-6v-1zm-1 2v1h-5v-1zm1 2v1h-6v-1z"/>
</svg>
