<svg version="1.1" viewBox="0 0 16 16" xmlns="http://www.w3.org/2000/svg">
  <defs>
    <style id="current-color-scheme" type="text/css">.ColorScheme-Text { color:#ebdbb2; } .ColorScheme-Highlight { color:#458588; }</style>
  </defs>
  <path class="ColorScheme-Text" d="m6 1c-1.108 0-2 0.892-2 2h-1c-1.108 0-2 0.892-2 2v6c0 1.108 0.892 2 2 2h1c0 1.108 0.892 2 2 2h4c1.108 0 2-0.892 2-2h1c1.108 0 2-0.892 2-2v-6c0-1.108-0.892-2-2-2h-1c0-1.108-0.892-2-2-2zm0 2h4v10h-4zm-3 2h1v6h-1zm9 0h1v6h-1z" fill="currentColor"/>
</svg>
