<svg width="16" height="16" version="1.1" viewBox="0 0 16 16" xmlns="http://www.w3.org/2000/svg">
  <defs>
    <style type="text/css">.ColorScheme-Text { color:#ebdbb2; } .ColorScheme-Highlight { color:#458588; }</style>
  </defs>
  <path class="ColorScheme-Text" d="m8 1c-3.866 0-7 3.134-7 7s3.134 7 7 7c3.866 0 7-3.134 7-7s-3.134-7-7-7zm0 2c2.761 0 5 2.239 5 5s-2.239 5-5 5c-2.761 0-5-2.239-5-5s2.239-5 5-5zm-0.7988 2.361c-1.172 0.0095-2.136 0.2002-2.648 0.3184-0.2573 0.05917-0.4166 0.3149-0.3574 0.5723 0.0596 0.257 0.3152 0.4167 0.5723 0.3574 1.988-0.4588 4.433-0.4444 6.344 0.5957 0.2319 0.1264 0.5221 0.04242 0.6484-0.1895 0.1262-0.2321 0.03886-0.5244-0.1934-0.6504-1.101-0.5994-2.315-0.8944-3.523-0.9785-0.2899-0.02018-0.5713-0.02759-0.8418-0.02539zm-0.00391 1.916c-0.5867 0.01192-1.332 0.08654-2.051 0.3262-0.2507 0.08329-0.3862 0.3548-0.3027 0.6055 0.08368 0.2504 0.3551 0.3844 0.6055 0.3008 0.6365-0.2122 1.587-0.329 2.518-0.2539 0.9307 0.07506 1.837 0.3449 2.438 0.8184 0.2074 0.1638 0.5083 0.1275 0.6719-0.08008 0.1638-0.2074 0.1294-0.5083-0.07812-0.6719-0.8188-0.646-1.898-0.9362-2.955-1.021-0.1991-0.01606-0.4937-0.03059-0.8457-0.02344zm0.2109 1.896c-0.5126 0.0043-1.052 0.05409-1.572 0.1699-0.2575 0.0575-0.4205 0.3127-0.3633 0.5703 0.0575 0.2575 0.3127 0.4205 0.5703 0.3633 0.6516-0.1451 1.448-0.179 2.16-0.1152 0.7121 0.06376 1.351 0.2415 1.629 0.4082 0.2264 0.1359 0.5204 0.06244 0.6562-0.1641 0.1359-0.2265 0.06244-0.5204-0.1641-0.6562-0.519-0.3114-1.234-0.4674-2.035-0.5391-0.2761-0.02471-0.5733-0.03966-0.8809-0.03711z" fill="currentColor"/>
</svg>
