<svg width="16" height="16" version="1.1" viewBox="0 0 16 16" xmlns="http://www.w3.org/2000/svg">
  <defs>
    <style id="current-color-scheme" type="text/css">.ColorScheme-Text { color:#ebdbb2; } .ColorScheme-Highlight { color:#458588; }</style>
  </defs>
  <path class="ColorScheme-Text" d="m2 1c-1.108 0-2 0.892-2 2v7c0 1.108 0.892 2 2 2h2v-2h-2v-7h10v4h2v-4c0-1.108-0.892-2-2-2h-10zm4 7.012c-0.554 0-1 0.446-1 1v5c0 0.554 0.446 1 1 1h6c0.554 0 1-0.446 1-1v-1.508l1.848 1.379c0.2188 0.1602 0.5039 0.1875 0.7422 0.06641 0.2422-0.1211 0.3945-0.3672 0.3945-0.6328v-3.605c0-0.2695-0.1523-0.5156-0.3945-0.6367-0.2383-0.1211-0.5273-0.09375-0.7422 0.06641l-1.848 1.373v-1.502c0-0.554-0.446-1-1-1h-6zm1 2h4v3h-4v-3z" fill="currentColor"/>
</svg>
