<svg width="16" height="16" version="1.1" xmlns="http://www.w3.org/2000/svg">
  <defs>
    <style id="current-color-scheme" type="text/css">.ColorScheme-Text { color:#ebdbb2; } .ColorScheme-Highlight { color:#458588; }</style>
  </defs>
  <path class="ColorScheme-Text" d="m3 1c-0.554 0-1 0.446-1 1s0.446 1 1 1h0.025391c0.15465 2.2004 1.304 4.1211 2.9922 5-1.6882 0.87893-2.8375 2.7996-2.9922 5h-0.025391c-0.554 0-1 0.446-1 1s0.446 1 1 1h10c0.554 0 1-0.446 1-1s-0.446-1-1-1h-0.02539c-0.15465-2.2004-1.304-4.1211-2.9922-5 1.6882-0.87893 2.8375-2.7996 2.9922-5h0.02539c0.554 0 1-0.446 1-1s-0.446-1-1-1zm2.0273 2h5.9453c-0.07148 0.73303-0.2939 1.4253-0.64258 2h-4.6602c-0.34868-0.5747-0.5711-1.267-0.64258-2zm2.9727 6.5039c1.5087 0.0036 2.7806 1.5005 2.9707 3.4961h-5.9414c0.19006-1.9955 1.462-3.4925 2.9707-3.4961z" fill="currentColor"/>
</svg>
