<svg version="1.1" viewBox="0 0 16 16" xmlns="http://www.w3.org/2000/svg">
  <defs>
    <style id="current-color-scheme" type="text/css">.ColorScheme-Text { color:#ebdbb2; } .ColorScheme-Highlight { color:#458588; }</style>
  </defs>
  <path class="ColorScheme-Text" d="m2 1v14h8l4-4v-4l-1 1v2h-2l-2 2v2h-6v-12h8l1-1h-10zm10.81 1c-0.1669 0-0.3353 0.06574-0.4648 0.1953l-1.279 1.287 2.449 2.449 1.287-1.279c0.2592-0.2592 0.2592-0.6686 0-0.9277l-1.529-1.529c-0.1296-0.1296-0.296-0.1953-0.4629-0.1953zm-8.812 1v1h5l1-1h-6zm6.188 1.361-6.188 6.189v2.449h2.449l6.189-6.188-2.451-2.451zm-6.188 0.6387v1h3l1-1h-4zm0 2v1h1l1-1h-2z" fill="currentColor"/>
</svg>
