<svg width="16" height="16" version="1.1" viewBox="0 0 16 16" xmlns="http://www.w3.org/2000/svg">
  <defs>
    <style type="text/css">.ColorScheme-Text { color:#ebdbb2; } .ColorScheme-Highlight { color:#458588; }</style>
  </defs>
  <path class="ColorScheme-Text" d="m13.01 3.122a7.001 7.001 0 0 0-5.023-2.122 7.001 7.001 0 0 0-7 7 7.001 7.001 0 0 0 7 7 7.001 7.001 0 0 0 7-7 7.001 7.001 0 0 0-1.977-4.878zm-0.7541 0.4834a6.126 6.126 0 0 1 1.835 3.957l-1.738 5e-7a4.375 7.001 0 0 0-1.659-5.053 6.126 6.126 0 0 1 1.563 1.096zm-2.682-1.065a3.5 6.126 0 0 1 1.901 5.022l-3.05 3e-7v-5.632a3.5 6.126 0 0 1 1.149 0.6103zm4.524 5.897a6.126 6.126 0 0 1-3.388 5.041 4.375 7.001 0 0 0 1.638-5.041zm-6.548-6.509v5.634l-3.053 1e-7a3.5 6.126 0 0 1 3.053-5.634zm3.928 6.509a3.5 6.126 0 0 1-3.053 5.634l-2e-7 -5.634zm-6.213-5.916a4.375 7.001 0 0 0-1.638 5.041l-1.75-3e-7a6.126 6.126 0 0 1 3.388-5.041zm2.285 5.916 4e-7 5.632a3.5 6.126 0 0 1-3.05-5.632zm-3.928-2e-7a4.375 7.001 0 0 0 1.659 5.053 6.126 6.126 0 0 1-3.397-5.053z" fill="currentColor"/>
</svg>
