<svg xmlns="http://www.w3.org/2000/svg" width="16" height="16" version="1.1" viewBox="0 0 16 16">
   <defs>
      <style id="current-color-scheme" type="text/css">
         .ColorScheme-Text {
            color: #ebdbb2;
         }

         .ColorScheme-Highlight {
            color: #458588;
         }
      </style>
   </defs>
   <path inkscape:connector-curvature="0"
      d="M 0,2 H 6 C 6,0.8954305 6.8954305,0 8,0 c 1.1045695,0 2,0.8954305 2,2 h 6 v 2 h -1 v 8 H 11.25 L 13,16 H 11 L 9.25,12 H 6.75 L 5,16 H 3 L 4.75,12 H 1 V 4 H 0 V 2 m 3,2 v 6 H 13 V 4 H 3"
      id="path2-36" sodipodi:nodetypes="ccscccccccccccccccccccccc" style="fill:#ebdbb2;fill-opacity:1" />
   <g id="layer12" transform="matrix(0.39999802,0,0,0.39999802,-27.599834,-238.59879)">
      <path inkscape:connector-curvature="0" id="path3807-1-1-9-38-4"
         d="m 84,609 v 10 H 84.90625 85 c 0.17491,10e-4 0.34778,-0.0388 0.5,-0.125 l 7,-4 c 0.3107,-0.17189 0.46875,-0.52345 0.46875,-0.875 0,-0.35155 -0.15805,-0.70311 -0.46875,-0.875 l -7,-4 C 85.34778,609.03875 85.17491,608.99869 85,609 h -0.09375 z"
         style="color:#282828;text-indent:0;text-transform:none;fill:#ebdbb2" />
   </g>
</svg>