<svg width="24" height="24" version="1" xmlns="http://www.w3.org/2000/svg">
  <path d="m12 2.5c-2.9825 0-5.436 2.1562-5.9102 5h2.0488c0.44369-1.7263 1.9928-3 3.8613-3 2.216 0 4 1.784 4 4v2h2v-2c0-3.324-2.676-6-6-6zm-8 18.5v0.5c0 0.554 0.446 1 1 1h14c0.554 0 1-0.446 1-1v-0.5c0 0.554-0.446 1-1 1h-14c-0.554 0-1-0.446-1-1z" fill="#282828" opacity=".2"/>
  <path d="m12 2c-2.9825 0-5.436 2.1562-5.9102 5h2.0488c0.44369-1.7263 1.9928-3 3.8613-3 2.216 0 4 1.784 4 4v2h2v-2c0-3.324-2.676-6-6-6z" fill="#928374"/>
  <rect transform="matrix(0,-1,-1,0,0,0)" x="-22" y="-20" width="12" height="16" rx="1" ry="1" fill="#cc241d"/>
  <path d="m12 2c-2.9825 0-5.436 2.1562-5.9102 5h0.10547c0.66381-2.592 3.0001-4.5 5.8047-4.5 3.324 0 6 2.676 6 6v-0.5c0-3.324-2.676-6-6-6z" fill="#ebdbb2" opacity=".2"/>
  <path d="m5 10c-0.554 0-1 0.446-1 1v0.5c0-0.554 0.446-1 1-1h14c0.554 0 1 0.446 1 1v-0.5c0-0.554-0.446-1-1-1z" fill="#ebdbb2" opacity=".2"/>
  <rect x="4" y="12" width="16" height="7" rx="0" ry="0" fill="#fb4934"/>
</svg>
