<svg width="256" height="256" version="1.1" xmlns="http://www.w3.org/2000/svg">
  <path d="m53.047 21c-36.322 0-40.047 2.4809-40.047 37.772v96.653h230v-77.055c0-35.291-3.6782-41.37-40-41.37h-90l-16-16z" fill="#282828"/>
  <path d="m53 71c-36.338 0-39.996 6.1437-39.996 41.397v83.653c0 35.313 3.6859 38.951 40.002 38.951h149.99c36.316 0 40-3.639 40-38.951v-99.621c0-33.574-2.6872-40.428-36-40.428h-87l-17 15z" fill="#3c3836"/>
  <path d="m243 193.99c0 35.291-3.6527 37.006-39.974 37.006h-150.02c-36.319 0-40.005-1.7148-40.005-37v2c0 35.641 4.0005 39 40.005 39h150.02c36.399 0 39.974-3.7272 39.974-38.998z" fill="#282828"/>
  <path d="m120 56-17 15h-50c-36.156 0-39.996 5.9171-39.996 41.433v4.1406c0-35.295 3.6836-41.574 39.996-41.574h51l17-15 86.001-0.01105c33.136-0.004256 35.999 7.0504 35.999 40.591v-4.1407c0-33.541-2.6494-40.44-36-40.44z" fill="#ebdbb2" opacity=".2"/>
  <path d="m97 21-43.953 1e-6c-36.322 0-40.052 2.4512-40.052 37.744v3.9101c0-35.291 3.6815-37.655 40.005-37.655h43l16 16h91c36.322 0 40 5.9893 40 41.281v-3.9072c0-35.291-3.6777-41.373-40-41.373h-90z" fill="#ebdbb2" opacity=".3"/>
  <path d="m85.062 93.001c-1.0475 0-2.1036 0.56403-2.4944 1.7075l-15.198 41.145h35.394l-15.215-41.145c-0.39174-1.1435-1.4307-1.7075-2.4773-1.7075zm17.692 42.86 25.244 77.139 25.244-77.139zm50.489 0h35.393l-15.198-41.145c-0.78262-2.2878-4.1891-2.2878-4.9717 0zm35.393 0-60.638 77.139 66.415-45.834c1.8327-1.2644 2.6085-3.5119 1.9081-5.558zm-60.638 77.139-60.638-77.139-7.6839 25.75c-0.69947 2.0461 0.07715 4.2937 1.9081 5.558z" fill="#282828" opacity=".5"/>
  <path d="m85.062 90.002c-1.0475 0-2.1036 0.56403-2.4944 1.7075l-15.198 41.145h35.394l-15.215-41.145c-0.39174-1.1435-1.4307-1.7075-2.4773-1.7075zm17.692 42.86 25.244 77.139 25.244-77.139zm50.489 0h35.393l-15.198-41.145c-0.78262-2.2878-4.1891-2.2878-4.9717 0zm35.393 0-60.638 77.139 66.415-45.834c1.8327-1.2644 2.6085-3.5119 1.9081-5.558zm-60.638 77.139-60.638-77.139-7.6839 25.75c-0.69947 2.0461 0.07715 4.2937 1.9081 5.558z" fill="#928374"/>
  <path d="m85.071 90.001c-1.0475 0-2.1033 0.56356-2.4941 1.707l-15.199 41.146h1.1074l14.092-38.146c0.3908-1.1435 1.4466-1.707 2.4941-1.707h0.0098c1.0466 0 2.0848 0.56353 2.4766 1.707l14.105 38.146h1.1094l-15.215-41.146c-0.39174-1.1435-1.43-1.707-2.4766-1.707zm85.889 0c-1.0473 0-2.0931 0.57094-2.4844 1.7148l-15.225 41.145h1.1094l14.115-38.145c0.7826-2.2878 4.1881-2.2878 4.9707 0l14.092 38.145h1.1074l-15.199-41.145c-0.39131-1.1439-1.4391-1.7148-2.4863-1.7148zm17.686 42.859-0.75391 0.95898 0.75391 2.041 7.6836 25.746c3e-3 0.01 5e-3 0.0196 8e-3 0.0293 0.32106-0.96388 0.33713-2.0197-8e-3 -3.0273zm0 3h-2.3574l-56.6 72.002-0.41407 1.2637 3.8848-2.6797zm-35.395-3h-50.488l0.98242 3h48.523zm-85.883 0-7.6836 25.75c-0.34426 1.007-0.32644 2.062-0.0059 3.0254 0.0028-8e-3 3e-3 -0.017 0.0059-0.0254l7.6836-25.75 55.488 70.586 3.8828 2.6797-0.41406-1.2637-56.605-72.01h-2.3418l0.74805-2.0274z" fill="#ebdbb2" opacity=".1"/>
</svg>
