<svg width="16" height="16" version="1.1" xmlns="http://www.w3.org/2000/svg">
  <defs>
    <style id="current-color-scheme" type="text/css">.ColorScheme-Text { color:#ebdbb2; } .ColorScheme-Highlight { color:#458588; } .ColorScheme-NeutralText { color:#fe8019; } .ColorScheme-PositiveText { color:#689d6a; } .ColorScheme-NegativeText { color:#fb4934; }</style>
  </defs>
  <path class="ColorScheme-Text" d="m8 1c-2.071 0-3.835 1.268-4.594 3.062-1.928 0.2866-3.406 1.93-3.406 3.938 0 2.209 1.791 4 4 4h1v-2c1e-4 -0.265 0.1054-0.52 0.293-0.707l1.293-1.293h-1.586c-0.5523 0-0.9999-0.448-1-1v-2c1e-4 -0.5523 0.4477-0.9999 1-1h5c0.552 1e-4 1 0.4477 1 1v3c0 0.266-0.105 0.521-0.293 0.709l-1.707 1.707v1.584h3.5c1.933 0 3.5-1.567 3.5-3.5 0-1.796-1.351-3.269-3.094-3.469-0.454-2.293-2.479-4.031-4.906-4.031z" fill="currentColor" opacity=".3"/>
  <path class="ColorScheme-Highlight" d="m5 5v2h3v1l-2 2v2h2v-2l2-2v-3zm1 8v2h2v-2z" fill="currentColor"/>
</svg>
