<svg width="256" height="256" version="1.1" xmlns="http://www.w3.org/2000/svg">
  <path d="m53.047 21c-36.322 0-40.047 2.4809-40.047 37.772v96.653h230v-77.055c0-35.291-3.6782-41.37-40-41.37h-90l-16-16z" fill="#9d0006"/>
  <path d="m53 71c-36.338 0-39.996 6.1437-39.996 41.397v83.653c0 35.313 3.6859 38.951 40.002 38.951h149.99c36.316 0 40-3.639 40-38.951v-99.621c0-33.574-2.6872-40.428-36-40.428h-87l-17 15z" fill="#cc241d"/>
  <path d="m243 193.99c0 35.291-3.6527 37.006-39.974 37.006h-150.02c-36.319 0-40.005-1.7148-40.005-37v2c0 35.641 4.0005 39 40.005 39h150.02c36.399 0 39.974-3.7272 39.974-38.998z" fill="#9d0006"/>
  <path d="m120 56-17 15h-50c-36.156 0-39.996 5.9171-39.996 41.433v4.1406c0-35.295 3.6836-41.574 39.996-41.574h51l17-15 86.001-0.01105c33.136-0.0043 35.999 7.0504 35.999 40.591v-4.1407c0-33.541-2.6494-40.44-36-40.44z" fill="#ebdbb2" opacity=".3"/>
  <path d="m97 21-43.953 1e-6c-36.322 0-40.052 2.4512-40.052 37.744v3.9101c0-35.291 3.6815-37.655 40.005-37.655h43l16 16h91c36.322 0 40 5.9893 40 41.281v-3.9072c0-35.291-3.6777-41.373-40-41.373h-90z" fill="#ebdbb2" opacity=".4"/>
  <path d="m169.08 93.375v19.365c0 2.2685-3.6783 4.108-8.216 4.108s-8.216-1.8396-8.216-4.108v-19.308c-9.8264 2.8945-16.399 10.623-16.432 19.308 7e-3 8.0263 5.6222 15.315 14.378 18.659v14.306c7.9959 3.5633 15.035 8.9719 20.54 15.775v-30.081c8.7583-3.3439 14.37-10.64 14.378-18.659-9e-5 -8.7008-6.5843-16.465-16.432-19.365zm-41.08 57.545c-23.317 0.0575-42.765 17.853-44.884 41.08h-12.628v16.432h115.02v-16.432h-12.513c-2.1238-23.268-21.633-41.08-44.999-41.08zm0 20.54c12.02 0.0164 22.274 8.6926 24.278 20.54h-48.508c1.9998-11.831 12.234-20.507 24.229-20.54z" fill="#ebdbb2" opacity=".1"/>
  <path d="m169.08 89.942v19.365c0 2.2685-3.6783 4.108-8.216 4.108s-8.216-1.8396-8.216-4.108v-19.308c-9.8264 2.8945-16.399 10.623-16.432 19.308 7e-3 8.0263 5.6222 15.315 14.378 18.659v14.306c7.9959 3.5633 15.035 8.9719 20.54 15.775v-30.081c8.7583-3.3439 14.37-10.64 14.378-18.659-9e-5 -8.7008-6.5843-16.465-16.432-19.365zm-41.08 57.545c-23.317 0.0575-42.765 17.853-44.884 41.08h-12.628v16.432h115.02v-16.432h-12.513c-2.1238-23.268-21.633-41.08-44.999-41.08zm0 20.54c12.02 0.0164 22.274 8.6926 24.278 20.54h-48.508c1.9998-11.831 12.234-20.507 24.229-20.54z" fill="#9d0006"/>
  <path d="m169.08 89.942v3.002c9.2797 2.7327 15.658 9.7862 16.363 17.871 0.0445-0.49928 0.0678-1.002 0.0684-1.5078-9e-5 -8.7008-6.584-16.465-16.432-19.365zm-16.432 0.05664c-9.8264 2.8945-16.399 10.624-16.432 19.309 4.5e-4 0.5203 0.0273 1.0376 0.0742 1.5508 0.7138-8.0851 7.0821-15.125 16.357-17.857zm0 19.309v3.002c0 2.2684 3.6791 4.1074 8.2168 4.1074 4.5377 0 8.2148-1.8389 8.2148-4.1074v-3.002c0 2.2685-3.6791 4.1074-8.2168 4.1074-4.5377 0-8.2148-1.839-8.2148-4.1074zm-2.0547 21.66v11.305c5.4e-4 2.4e-4 1e-3 -2.3e-4 2e-3 0v-11.305c-5.6e-4 -2.2e-4 -1e-3 2.1e-4 -2e-3 0zm-22.598 16.52c-23.315 0.0595-42.762 17.854-44.881 41.08h-12.627v3.002h12.629c2.1188-23.225 21.565-41.02 44.879-41.08h6e-3c23.363 3e-3 42.871 17.814 44.994 41.08h12.512v-3.002h-12.514c-2.1237-23.267-21.63-41.078-44.994-41.08h-2e-3zm-23.5 41.08c-0.29424 0.97764-0.55068 1.973-0.72461 3.002h48.508c-0.17409-1.0292-0.43223-2.0243-0.72657-3.002z" fill="#282828" opacity=".05"/>
</svg>
