<svg width="256" height="256" version="1.1" xmlns="http://www.w3.org/2000/svg">
  <path d="m53.047 21c-36.322 0-40.047 2.4809-40.047 37.772v96.653h230v-77.055c0-35.291-3.6782-41.37-40-41.37h-90l-16-16z" fill="#9d0006"/>
  <path d="m53 70.999c-36.338 0-39.996 6.1437-39.996 41.397v83.653c0 35.313 3.6859 38.951 40.002 38.951h149.99c36.316 0 40-3.639 40-38.951v-99.621c0-33.574-2.6872-40.428-36-40.428h-87l-17 15z" fill="#cc241d"/>
  <path d="m180.61 59.988-49.926 6e-3 112.32 64.863v-24.297c-4e-5 -1.6019-0.0151-3.0911-0.0312-4.5742zm-71.572 10.566-5.0332 4.4414h-37.209l176.21 101.73v-28.83zm-78.881 6.3105c-10.296 2.5177-14.531 8.1218-16.16 19.543l224.7 129.73c3.2991-5.2098 4.158-13.475 4.2812-26.354zm-14.334 7.7617c-0.08836 0.23704-0.16494 0.49529-0.24805 0.74024 0.08263-0.2463 0.1602-0.50197 0.24805-0.74024zm-0.99219 3.2598c-0.08935 0.36272-0.16106 0.76089-0.24219 1.1387 0.08072-0.37929 0.15337-0.77458 0.24219-1.1387zm-0.74414 3.7598c-0.0759 0.48938-0.13133 1.0291-0.19726 1.541 0.06597-0.51335 0.12155-1.0504 0.19726-1.541zm-0.52539 4.3496c-0.0047 0.0529-0.01292 0.0973-0.01758 0.15039l0.0059 4e-3c0.0044-0.0493 0.0073-0.10521 0.01172-0.1543zm-0.55664 22.912v28.834l151.12 87.254h38.875c3.9853 0 7.5124-0.057 10.75-0.18163zm0.0059 51.908-0.0039 26.111c0.0019 0.94627 0.0015 1.8224 0.0098 2.7227l61.219 35.346h49.938z" fill="#ebdbb2" opacity=".1"/>
  <path d="m185.82 59.987-49.924 0.0078 107.11 61.869-0.011-28.861zm-74.732 8.7578-7.0859 6.252h-32.02l171.02 98.738v-28.83zm-96.664 24.915 225.51 130.2c2.5032-5.6956 3.0323-14.278 3.0532-27.063l-209.02-120.73c-13.179 1.9158-17.657 7.8472-19.545 17.591zm-1.4125 22.258-6e-3 28.832 156.31 90.246h33.684c6.0412 0 11.106-0.12072 15.475-0.45117zm-6e-3 51.898 6e-3 28.838 66.408 38.342h49.938z" fill="#9d0006"/>
  <path d="m185.82 59.987h-5.2508l62.431 36.03v-3.0137zm-74.732 8.758-2.0664 1.8223 133.98 77.355 2e-3 -3.0176zm-77.121 7.3223c-1.4082 0.2047-2.7096 0.45303-3.9265 0.74917l212.94 122.99c0.01-1.0244 0.0136-1.9199 0.0156-3.0039zm-20.967 39.843v3.0173l200.66 115.85c1.65-0.0673 3.3369-0.12444 4.8164-0.23632zm6e-3 51.905v3.0195l111.13 64.16h5.2266z" fill="#282828" opacity=".05"/>
  <path d="m243 193.99c0 35.291-3.6527 37.006-39.974 37.006h-150.02c-36.319 0-40.005-1.7148-40.005-37v2c0 35.641 4.0005 39 40.005 39h150.02c36.399 0 39.974-3.7272 39.974-38.998z" fill="#9d0006"/>
  <path d="m120 56-17 15h-50c-36.156 0-39.996 5.9171-39.996 41.433v4.1406c0-35.295 3.6836-41.574 39.996-41.574h51l17-15 86.001-0.01105c33.136-0.0043 35.999 7.0504 35.999 40.591v-4.1407c0-33.541-2.6494-40.44-36-40.44z" fill="#ebdbb2" opacity=".3"/>
  <path d="m97 21-43.953 1e-6c-36.322 0-40.052 2.4512-40.052 37.744v3.9101c0-35.291 3.6815-37.655 40.005-37.655h43l16 16h91c36.322 0 40 5.9893 40 41.281v-3.9072c0-35.291-3.6777-41.373-40-41.373h-90z" fill="#ebdbb2" opacity=".4"/>
</svg>
