<svg width="256" height="256" version="1.1" xmlns="http://www.w3.org/2000/svg">
  <path d="m53.047 21c-36.322 0-40.047 2.4809-40.047 37.772v96.653h230v-77.055c0-35.291-3.6782-41.37-40-41.37h-90l-16-16z" fill="#9d0006"/>
  <path d="m53 71c-36.338 0-39.996 6.1437-39.996 41.397v83.653c0 35.313 3.6859 38.951 40.002 38.951h149.99c36.316 0 40-3.639 40-38.951v-99.621c0-33.574-2.6872-40.428-36-40.428h-87l-17 15z" fill="#cc241d"/>
  <path d="m243 193.99c0 35.291-3.6527 37.006-39.974 37.006h-150.02c-36.319 0-40.005-1.7148-40.005-37v2c0 35.641 4.0005 39 40.005 39h150.02c36.399 0 39.974-3.7272 39.974-38.998z" fill="#9d0006"/>
  <path d="m120 56-17 15h-50c-36.156 0-39.996 5.9171-39.996 41.433v4.1406c0-35.295 3.6836-41.574 39.996-41.574h51l17-15 86.001-0.01105c33.136-0.0043 35.999 7.0504 35.999 40.591v-4.1407c0-33.541-2.6494-40.44-36-40.44z" fill="#ebdbb2" opacity=".3"/>
  <path d="m97 21-43.953 1e-6c-36.322 0-40.052 2.4512-40.052 37.744v3.9101c0-35.291 3.6815-37.655 40.005-37.655h43l16 16h91c36.322 0 40 5.9893 40 41.281v-3.9072c0-35.291-3.6777-41.373-40-41.373h-90z" fill="#ebdbb2" opacity=".4"/>
  <path d="m54.154 167.36 27.766 16.034c-0.0461 0.63692-0.0738 1.2738-0.0738 1.9108 0 15.295 12.397 27.692 27.692 27.692s27.692-12.397 27.692-27.692c-0.0185-1.2646-0.12-2.52-0.30463-3.7661l33.582-23.982c17.446-0.52615 31.32-14.806 31.338-32.252 0-17.843-14.465-32.308-32.308-32.308s-32.317 14.465-32.308 32.437l-21.434 32.935c-2.0492-0.48925-4.1539-0.74771-6.2585-0.75693-4.1815 8e-3 -8.3077 0.96922-12.065 2.7969l-43.32-25.006m115.38-33.175c12.748 0 23.077 10.329 23.077 23.077s-10.329 23.077-23.077 23.077-23.077-10.329-23.077-23.077 10.329-23.077 23.077-23.077zm0 9.2308c-7.6431 0-13.846 6.2031-13.846 13.846 0 7.6431 6.2031 13.846 13.846 13.846 7.6431 0 13.846-6.2031 13.846-13.846 0-7.6431-6.2031-13.846-13.846-13.846zm-60 55.385c10.2 0 18.462 8.2615 18.462 18.462s-8.2615 18.462-18.462 18.462c-8.8061-8e-3 -16.375-6.24-18.083-14.871l6.5077 3.7662c6.6461 3.8308 15.074 1.5785 18.914-5.0677 3.8308-6.6462 1.5785-15.074-5.0677-18.914l-3.12-1.8c0.28617-0.0185 0.5631-0.0276 0.84924-0.0368z" fill="#ebdbb2" opacity=".1"/>
  <path d="m54.154 164.36 27.766 16.034c-0.04615 0.63692-0.07385 1.2738-0.07385 1.9108 0 15.295 12.397 27.692 27.692 27.692s27.692-12.397 27.692-27.692c-0.0185-1.2646-0.12-2.52-0.30463-3.7661l33.582-23.982c17.446-0.52615 31.32-14.806 31.338-32.252 0-17.843-14.465-32.308-32.308-32.308s-32.317 14.465-32.308 32.437l-21.434 32.935c-2.0492-0.48925-4.1539-0.74771-6.2585-0.75693-4.1815 8e-3 -8.3077 0.96922-12.065 2.7969l-43.32-25.006m115.38-33.175c12.748 0 23.077 10.329 23.077 23.077s-10.329 23.077-23.077 23.077-23.077-10.329-23.077-23.077 10.329-23.077 23.077-23.077zm0 9.2308c-7.6431 0-13.846 6.2031-13.846 13.846 0 7.6431 6.2031 13.846 13.846 13.846 7.6431 0 13.846-6.2031 13.846-13.846 0-7.6431-6.2031-13.846-13.846-13.846zm-60 55.385c10.2 0 18.462 8.2615 18.462 18.462s-8.2615 18.462-18.462 18.462c-8.8061-8e-3 -16.375-6.24-18.083-14.871l6.5077 3.7662c6.6461 3.8308 15.074 1.5785 18.914-5.0677 3.8308-6.6462 1.5785-15.074-5.0677-18.914l-3.12-1.8c0.28617-0.0185 0.5631-0.0276 0.84924-0.0368z" fill="#9d0006"/>
  <path d="m169.54 89.997c-17.843 0-32.316 14.466-32.307 32.438l-21.436 32.936c-2.0492-0.48925-4.1532-0.74859-6.2578-0.75781-4.1815 8e-3 -8.3072 0.96919-12.064 2.7969l-43.32-25.006v3.0039l43.32 25.006c3.7573-1.8277 7.883-2.7889 12.064-2.7969 2.1046 9e-3 4.2086 0.26661 6.2578 0.75586l21.434-32.934c-9e-3 -17.972 14.466-32.438 32.309-32.438 17.337 0 31.444 13.667 32.232 30.809 0.0237-0.50168 0.0756-0.9966 0.0762-1.5039 0-17.843-14.466-32.309-32.309-32.309zm-6e-3 18.463c-7.6431 0-13.846 6.2028-13.846 13.846 0 0.50758 0.0326 1.0065 0.0859 1.5 0.75044-6.9362 6.6249-12.344 13.76-12.344 7.1347 0 13.011 5.4074 13.762 12.344 0.0533-0.49347 0.0859-0.99244 0.0859-1.5 0-7.6431-6.2048-13.846-13.848-13.846zm-23 15.348c-0.0322 0.49865-0.0762 0.99516-0.0762 1.502 0 12.748 10.328 23.076 23.076 23.076s23.078-10.328 23.078-23.076c0-0.50679-0.044-1.0033-0.0762-1.502-0.7772 12.044-10.761 21.574-23.002 21.574s-22.223-9.5303-23-21.574zm-37 43.039v2e-3c-0.28614 9e-3 -0.56149 0.0186-0.84766 0.0371l3.1191 1.7988c3.9935 2.3073 6.3856 6.2734 6.8398 10.512 0.48543-4.3339-1.1083-8.7102-4.4043-11.721-1.505-0.39601-3.0773-0.62891-4.707-0.62891zm27.654 14.51-0.25977 0.18555c0.10919 0.73696 0.1794 1.4792 0.23047 2.2226 0.0254-0.48616 0.0742-0.9665 0.0742-1.459-5e-3 -0.31746-0.0298-0.63293-0.0449-0.94922zm-55.285 2.0293c3e-3 0.0764 8e-3 0.15226 0.0117 0.22851 5e-3 -0.0722 3e-3 -0.14459 8e-3 -0.2168zm46.018 0.42187c-0.76558 9.4955-8.6932 16.961-18.387 16.961-7.4976-7e-3 -14.083-4.5335-16.934-11.203l-1.1484-0.66406c1.708 8.631 9.2759 14.863 18.082 14.871 10.2 0 18.463-8.2624 18.463-18.463 0-0.50699-0.0361-1.0053-0.0762-1.502z" fill="#282828" opacity=".05"/>
</svg>
