<svg width="16" height="16" style="isolation:isolate" version="1.1" viewBox="0 0 16 16" xmlns="http://www.w3.org/2000/svg">
  <defs>
    <style type="text/css">.ColorScheme-Text { color:#ebdbb2; } .ColorScheme-Highlight { color:#458588; }</style>
  </defs>
  <path class="ColorScheme-Text" d="m4.77 1c-1.783 0-3.23 1.447-3.23 3.23 0 1.783 1.447 3.23 3.23 3.23 1.783 0 3.23-1.447 3.23-3.23 0-1.783-1.447-3.23-3.23-3.23zm6.461 3.77c-1.783 1e-7 -3.23 1.447-3.23 3.23 1e-7 1.783 1.447 3.23 3.23 3.23 1.783 0 3.23-1.447 3.23-3.23-1e-6 -1.783-1.447-3.23-3.23-3.23zm-6.461 3.77c-1.783 0-3.23 1.447-3.23 3.23 0 1.783 1.447 3.23 3.23 3.23 1.783 0 3.23-1.447 3.23-3.23 0-1.783-1.447-3.23-3.23-3.23z" fill="currentColor"/>
</svg>
