<svg width="16" height="16" version="1.1" xmlns="http://www.w3.org/2000/svg">
  <defs>
    <style type="text/css">.ColorScheme-Text { color:#ebdbb2; } .ColorScheme-Highlight { color:#458588; }</style>
  </defs>
  <path class="ColorScheme-Text" d="m12.5 1c-1.188 2.327e-4 -2.211 0.8362-2.449 2h-8.051v1c1.855 0.9588 3.165 2.48 3.357 3.303 0.2086 0.8925-0.0238 1.912-0.6484 3.009-0.3701-0.2046-0.7861-0.3119-1.209-0.312-1.381 0-2.5 1.119-2.5 2.5s1.119 2.5 2.5 2.5c1.188-1.38e-4 2.212-0.8361 2.449-2h3.051v2h5v-5h-5v2h-3.055c-0.07298-0.3599-0.2243-0.6992-0.4433-0.994 0.8523-1.346 1.209-2.625 0.9238-3.865-0.2938-1.279-1.184-2.276-2.457-3.141h6.086c0.2373 1.162 1.259 1.998 2.445 2 1.381 0 2.5-1.119 2.5-2.5s-1.119-2.5-2.5-2.5z" fill="currentColor"/>
</svg>
