<svg width="16" height="16" version="1.1" xmlns="http://www.w3.org/2000/svg">
  <defs>
    <style id="current-color-scheme" type="text/css">.ColorScheme-Text { color:#ebdbb2; } .ColorScheme-Highlight { color:#458588; }</style>
  </defs>
  <path class="ColorScheme-Text" d="m7.9746 1c-3.5763 0.0072073-6.5721 2.709-6.9473 6.2656l1.0078-0.039063c0.3881-2.9856 2.9287-5.2213 5.9395-5.2266 2.5205 0.00103 4.7716 1.5772 5.6348 3.9453l-1.459 0.39844c-0.47707-1.2077-1.4525-2.1504-2.6758-2.5859l-0.11914 1.0254c1.286 0.55215 2.1194 1.8173 2.1191 3.2168-9.57e-4 1.2543-0.67304 2.4122-1.7617 3.0352l0.23633 1.0078c1.5451-0.7545 2.5251-2.3235 2.5254-4.043-0.001607-0.23229-0.021197-0.4641-0.058594-0.69336l1.457-0.39648c0.066989 0.35943 0.10098 0.72423 0.10156 1.0898-0.0058 0.45559-0.06345 0.90903-0.17188 1.3516l0.93945 0.39258c0.15053-0.56929 0.22862-1.1553 0.23242-1.7441 0-3.866-3.134-7-7-7zm-0.14062 2.5098c-2.4264 0.075859-4.3553 2.0626-4.3594 4.4902 0.00353 0.64436 0.1454 1.2804 0.41602 1.8652l-1.2891 0.77344c-0.28962-0.58793-0.48096-1.2193-0.56641-1.8691l-1.0098-0.039062c0.37341 3.5589 3.3708 6.2631 6.9492 6.2695 2.6518-0.0052 5.073-1.5084 6.2539-3.8828l-0.95508-0.31445c-1.038 1.9647-3.0768 3.1949-5.2988 3.1973-1.927-0.005587-3.734-0.93634-4.8574-2.502l1.2871-0.77148c0.84906 1.1148 2.169 1.7704 3.5703 1.7734 0.12519-6.41e-4 0.2503-0.0065 0.375-0.01758l-0.3125-0.98438c-0.020827 8.53e-4 -0.041661 0.0015-0.0625 2e-3 -1.051-0.0018-2.0456-0.47576-2.709-1.291l1.5762-0.94536 0.064454 0.10352 0.69922 0.7793 1.5605-0.49609 0.93164-1.1426-0.26953-0.60352-0.90234 0.28516-0.41406 0.45508-0.58008 0.1543c-7.34e-4 -2.457e-4 -0.41211-0.4375-0.41211-0.4375l-0.20312-0.56445 0.41406-0.42578 0.58008-0.18164 0.66406-0.67578-0.41602-0.51367-1.4434 0.31055-1.1406 1.1738 0.34766 0.92188-1.5664 0.93945c-0.18179-0.42556-0.27739-0.88295-0.28125-1.3457 0.0055495-1.7972 1.3714-3.2982 3.1602-3.4727z" fill="currentColor"/>
</svg>
