<svg width="16" height="16" version="1.1" xmlns="http://www.w3.org/2000/svg">
  <defs>
    <style id="current-color-scheme" type="text/css">.ColorScheme-Text { color:#ebdbb2; } .ColorScheme-Highlight { color:#458588; }</style>
  </defs>
  <path class="ColorScheme-Text" d="m4 1c-0.554 0-1 0.446-1 1v2c0 0.554 0.446 1 1 1h8c0.554 0 1-0.446 1-1v-2c0-0.554-0.446-1-1-1zm0 1h1v2h-1zm4 0c0.55228 0 1 0.44772 1 1s-0.44772 1-1 1c-0.55228 0-1-0.44772-1-1s0.44772-1 1-1zm3 0c0.55228 0 1 0.44772 1 1s-0.44772 1-1 1-1-0.44772-1-1 0.44772-1 1-1zm-8 4c-0.554 0-1 0.446-1 1v7c0 0.554 0.446 1 1 1h10c0.554 0 1-0.446 1-1v-7c0-0.554-0.446-1-1-1zm5 1c1.933 0 3.5 1.567 3.5 3.5s-1.567 3.5-3.5 3.5c-1.933 0-3.5-1.567-3.5-3.5s1.567-3.5 3.5-3.5zm0 1c-1.3807 0-2.5 1.1193-2.5 2.5s1.1193 2.5 2.5 2.5c1.3807 0 2.5-1.1193 2.5-2.5s-1.1193-2.5-2.5-2.5z" fill="currentColor"/>
</svg>
