<svg width="16" height="16" version="1.1" xmlns="http://www.w3.org/2000/svg">
  <defs>
    <style id="current-color-scheme" type="text/css">.ColorScheme-Text { color:#ebdbb2; } .ColorScheme-Highlight { color:#458588; }</style>
  </defs>
  <path class="ColorScheme-Text" d="m12.58 3.712c0.03096-0.4569 0.08131-0.9425-0.1308-1.369-0.3325-0.7105-1.126-1.023-1.842-1.198-1.934-0.4464-4.019 0.1684-5.525 1.428-1.197 0.9968-2.112 2.376-2.428 3.912-0.2367 1.225-0.07111 2.594 0.7201 3.596 0.8483 1.14 2.332 1.826 3.751 1.568 1.016-0.1681 1.871-0.7878 2.663-1.408 0.354-0.2582 0.7354-0.5478 1.193-0.5538 0.1738-0.1583-0.0084 0.422-0.1607 0.4839-0.6164 0.6636-1.439 1.152-1.866 1.979-0.378 0.663-0.444 1.54-0.00404 2.191 0.282 0.4476 0.8616 0.8252 1.394 0.5855 0.1874-0.07859 0.3715-0.18 0.1775-0.3744-0.125-0.3983-0.3354-0.8454-0.1353-1.254 0.3093-0.5778 0.9584-0.8277 1.465-1.196 0.8292-0.5535 1.544-1.431 1.589-2.463 0.0635-0.9489-0.5306-1.864-1.376-2.271-0.8557-0.4414-1.889-0.3713-2.756 1.272e-4 -0.767 0.2977-1.393 0.8507-2.122 1.217-0.2641 0.166-0.7525 0.2217-0.7836-0.2042-0.04491-0.5199 0.05366-1.047 0.2627-1.525 0.488-1.158 1.666-1.926 2.892-2.082 0.6295-0.115 1.314-0.01867 1.89-0.347 0.3944-0.19 0.7032-0.5193 1.099-0.7041l0.03481-0.01038z" fill="currentColor"/>
</svg>
