<svg width="16" height="16" version="1.1" xmlns="http://www.w3.org/2000/svg">
  <defs>
    <style id="current-color-scheme" type="text/css">.ColorScheme-Text { color:#ebdbb2; } .ColorScheme-Highlight { color:#458588; }</style>
  </defs>
  <path class="ColorScheme-Text" d="m1e-7 13.999s2.1027-0.23904 3.7413-1.6053c1.5593-1.2996 2.1233-2.4187 2.5133-3.6873 0.38933-1.2693 0.44733-4.3223 0.44733-5.228v-2.48h-0.97v0.91914c-0.016 1.3743-0.13333 3.985-0.75666 5.6859-1.5067 4.0988-4.9753 4.4577-4.9753 4.4577zm16 0s-2.1027-0.23904-3.74-1.6053c-1.5613-1.2996-2.1247-2.4187-2.5147-3.6873-0.38867-1.2693-0.44733-4.3223-0.44733-5.228v-2.48h0.96866l7.29e-4 0.91914c0.016 1.3743 0.13467 3.985 0.75866 5.6859 1.5053 4.0988 4.9733 4.4577 4.9733 4.4577zm-9.0007-12.999h2.0007v13h-2z" fill="currentColor"/>
</svg>
