<svg width="16" height="16" version="1.1" xmlns="http://www.w3.org/2000/svg">
  <defs>
    <style id="current-color-scheme" type="text/css">.ColorScheme-Text { color:#ebdbb2; } .ColorScheme-Highlight { color:#458588; }</style>
  </defs>
  <path class="ColorScheme-Text" d="m0 1v14h9.6855c-0.64865-0.52258-1.1395-1.2149-1.418-2h-6.2676v-2.6387l2.9961-2.9434 2.3945 2.4258 4.7969-4.6562 1.8105 1.8125v-5h-5l1.7715 1.7695-3.3516 3.2578-2.4141-2.4453-3.0059 2.9688v-6.5488zm12.5 7c-1.9442 0-3.5 1.5558-3.5 3.5s1.5558 3.5 3.5 3.5 3.5-1.5558 3.5-3.5-1.5558-3.5-3.5-3.5zm-0.12109 0.77734h0.4375v0.62109c0.27417 0.0315 0.52166 0.17167 0.69141 0.38867 0.15517 0.19425 0.28125 0.51249 0.28125 0.86133h-0.82812c0-0.19425-0.03042-0.3931-0.10742-0.50977-0.07817-0.11667-0.16182-0.12109-0.31641-0.12109-0.11725 0-0.22791 0.04154-0.26758 0.1582-0.05541 0.1225-0.08537 0.25451-0.08594 0.38867 0 0.11667 0.04628 0.23941 0.08594 0.31641 0.077 0.07816 0.19442 0.18548 0.38867 0.30274 0.38908 0.15517 0.65929 0.31552 0.81445 0.50976 0.19425 0.19483 0.26758 0.46504 0.26758 0.81445 0 0.3115-0.07332 0.58446-0.26758 0.7793-0.19484 0.19425-0.43069 0.3119-0.74219 0.35156v0.58398h-0.38867v-0.58398c-0.3115-0.03967-0.58309-0.15476-0.77734-0.38867-0.19425-0.19425-0.30469-0.50738-0.30469-0.93555h0.77734c0 0.23392 0.02981 0.43021 0.14648 0.54688 0.07759 0.11667 0.19835 0.19531 0.35352 0.19531 0.15458 0 0.23687-0.04096 0.31445-0.1582 0.07759-0.07759 0.10938-0.23546 0.10938-0.39063s-0.03042-0.272-0.10742-0.38867c-0.07817-0.07817-0.19893-0.19-0.35352-0.26758-0.38908-0.15458-0.65673-0.31493-0.85156-0.50976-0.19425-0.19425-0.2793-0.46504-0.2793-0.81445 0-0.31092 0.08504-0.58309 0.2793-0.77734 0.19483-0.19425 0.41955-0.35156 0.73047-0.35156z" fill="currentColor"/>
</svg>
