<svg width="16" height="16" version="1.1" xmlns="http://www.w3.org/2000/svg">
  <defs>
    <style id="current-color-scheme" type="text/css">.ColorScheme-Text { color:#ebdbb2; } .ColorScheme-Highlight { color:#458588; }</style>
  </defs>
  <path class="ColorScheme-Text" d="m8 1c-1.751 0-3.321 1.319-4.416 3.049 0.1364-0.03076 0.2757-0.04712 0.4155-0.04883 1.105 0 2 0.8954 2 2s-0.8954 2-2 2c-0.7035-0.001493-1.355-0.3725-1.714-0.9771-0.1848 0.7002-0.2856 1.391-0.2856 2.027 0 0.0741 0 0.7068 0.04297 0.7002 0.293-0.1622 0.6221-0.2481 0.957-0.25 1.105 0 2 0.8954 2 2-3.103e-4 0.7869-0.462 1.5-1.18 1.823 0 0 0.1104 0.1256 0 0 1.098 1.25 2.369 1.677 4.18 1.677 3.324 0 6-2.654 6-5.95 0-1.084-0.2911-2.325-0.7979-3.504-0.3632 0.592-1.008 0.9532-1.702 0.9541-1.105 0-2-0.8954-2-2 5.373e-4 -0.9903 0.7256-1.831 1.705-1.977-0.9263-0.9213-2.024-1.523-3.205-1.523zm2 7c1.105 0 2 0.8954 2 2 0 1.105-0.8954 2-2 2-1.105 0-2-0.8954-2-2 0-1.105 0.8954-2 2-2z" fill="currentColor"/>
</svg>
