<svg width="16" height="16" version="1.1" xmlns="http://www.w3.org/2000/svg">
  <defs>
    <style id="current-color-scheme" type="text/css">.ColorScheme-Text { color:#ebdbb2; } .ColorScheme-Highlight { color:#458588; }</style>
  </defs>
  <path class="ColorScheme-Text" d="m4 1c-2.2091 0-4 0.44772-4 1s1.7909 1 4 1 4-0.44772 4-1-1.7909-1-4-1zm7.0078 1.8359-5.0078 10.164c0 1.1046 2.2386 2 5 2s5-0.89543 5-2h-0.0078zm-11.008 0.27539v7.3867c0.0012674 0.82964 1.7918 1.502 4 1.502 0.50287 0 0.98244-0.03596 1.4258-0.09961l2.5742-5.2246v-3.4687c-0.92981 0.49918-2.3812 0.79264-3.9219 0.79297-1.6387-0.0018899-3.1676-0.33505-4.0781-0.88867z" fill="currentColor"/>
</svg>
