<svg width="16" height="16" version="1.1" xmlns="http://www.w3.org/2000/svg">
  <defs>
    <style id="current-color-scheme" type="text/css">.ColorScheme-Text { color:#ebdbb2; } .ColorScheme-Highlight { color:#458588; }</style>
  </defs>
  <path class="ColorScheme-Text" d="m0 5.5v5h1.246v-3.486l2.506 3.486h1.248v-5h-1.25v3.486l-2.494-3.486h-1.256zm5.564 0v3.346s-0.1573 1.654 1.477 1.654h3.52v-1.25h-3.268c-0.2197 0-0.4824-0.1033-0.4824-0.3125 0-0.2465 0.2316-0.3125 0.4824-0.3125h3.268v-1.25h-3.332c-0.188 0-0.418-0.1007-0.418-0.3125 0-0.2119 0.23-0.3125 0.418-0.3125h3.332v-1.25h-4.996zm6.75 0.009766c-0.7252 0-1.305 0.6672-1.305 1.441 0 1.089 0.6389 1.678 1.422 1.678h1.885c0.2325 0 0.4355 0.06734 0.4355 0.3125 0 0.211-0.2024 0.3105-0.377 0.3105h-3.365v1.248h3.713c0.6674 0 1.277-0.5975 1.277-1.441 0-1.018-0.6389-1.678-1.422-1.678h-1.885c-0.2325 0-0.4355-0.06735-0.4355-0.3125 0-0.213 0.2024-0.3114 0.377-0.3105h3.365v-1.248h-3.686z" fill="currentColor"/>
</svg>
