<svg width="16" height="16" version="1.1" xmlns="http://www.w3.org/2000/svg">
  <defs>
    <style id="current-color-scheme" type="text/css">.ColorScheme-Text { color:#ebdbb2; } .ColorScheme-Highlight { color:#458588; }</style>
  </defs>
  <path class="ColorScheme-Text" d="m13.405 9.4012c-0.56314 0.61001-1.1732 1.2663-1.7529 1.8862-0.26689-0.94416-0.53268-1.9904-0.79272-2.9708-0.40071 0.36693-0.79456 0.74775-1.1908 1.1215-1.7327 1.6224-2.728 1.2921-3.8184 0.25602-0.00956-0.00899-0.025116-0.00558-0.029871 0.00651-0.93021 2.3276-1.2565 3.026-1.7782 3.8401-0.75771 1.127-2.0428 1.2771-3.2461 1.4624 3.593-4.8326 4.9871-11.072 5.6496-12.146 0.27438-0.44451 0.7213-0.60758 1.2016-0.72835 0.48283-0.08455 1.056-0.18078 1.5038-0.25666-1.0954 2.3664-2.9058 6.7362-1.5641 7.0652 1.0979 0.26385 2.386-1.6424 2.8507-2.4034 1.1905-1.9489 1.4665-2.9105 2.5643-4.7877 0.1144-0.19554 0.27222-0.33202 0.47345-0.40944 0.67425-0.24489 1.7283-0.33619 1.7283-0.33619-3.0601 4.5448-3.0776 6.1658-1.7986 8.4004z" fill="currentColor"/>
</svg>
