<svg width="16" height="16" version="1.1" xmlns="http://www.w3.org/2000/svg">
  <defs>
    <style id="current-color-scheme" type="text/css">.ColorScheme-Text { color:#ebdbb2; } .ColorScheme-Highlight { color:#458588; }</style>
  </defs>
  <path class="ColorScheme-Text" d="m2 14.208c0-0.71342 0-0.77887 0.065395-0.77887l0.8174-0.03927c0.65392 0 0.77163-0.03927 0.92857-0.12436 0.11234-0.04587 0.20336-0.1323 0.25503-0.24217 0.07847-0.15054 0.07847-0.18981 0.07847-5.0528 0-4.5816 0-4.9088-0.065394-5.0201-0.089038-0.15902-0.23703-0.27658-0.41197-0.32726-0.29898-0.04218-0.60048-0.064046-0.90241-0.065454h-0.76509v-1.5577h13v5.7728h-0.68662c-0.26201 0.0075-0.52423-0.00347-0.78471-0.032726-0.09154 0-0.09808-0.032726-0.14386-0.62179-0.024917-0.5363-0.10157-1.0689-0.22888-1.5905-0.10387-0.92625-0.80329-1.6742-1.7198-1.8392-0.37274-0.065447-2.0272-0.1309-3.3939-0.1309h-0.93511v4.3394h0.49044c1.205-0.027653 1.9543-0.3507 2.0599-1.957 0-0.21599 0.052313-0.43198 0.065391-0.47779 0.013078-0.045818 0-0.085087 0.77163-0.085087h0.75201v6.9247h-1.5367c0-1.9882-0.36429-2.7222-1.9552-2.8471-0.20933-0.019112-0.41753-0.045817-0.62776-0.045817v2.1861c0 2.2973 0 2.389 0.19618 2.5788 0.19618 0.18981 0.28119 0.20944 2.1056 0.2749 0.082266 0.49654 0.045769 1.0397 0.045769 1.5512h-7.4743z" fill="currentColor"/>
</svg>
