<svg width="16" height="16" version="1.1" xmlns="http://www.w3.org/2000/svg">
  <defs>
    <style id="current-color-scheme" type="text/css">.ColorScheme-Text { color:#ebdbb2; } .ColorScheme-Highlight { color:#458588; }</style>
  </defs>
  <path class="ColorScheme-Text" d="m0 1v14h1v-2h2v2h10v-2h2v2h1v-14h-1v2h-2v-2h-10v2h-2v-2zm1 3h2v2h-2zm12 0h2v2h-2zm-4.7148 0.42773 3.7148 2.5723-3.7148 2.5723v-1.4297h-1.1426c-0.78 0-1.4686 0.49858-1.6777 1.1426-0.24971 0.77029 0.82031 2.2871 0.82031 2.2871 1e-7 0-2.2852-0.8577-2.2852-2.7148 0-1.7851 1.1431-3 2.8574-3h1.4277zm-7.2852 2.5723h2v2h-2zm12 0h2v2h-2zm-12 3h2v2h-2zm12 0h2v2h-2z" fill="currentColor"/>
</svg>
