<svg width="16" height="16" version="1.1" xmlns="http://www.w3.org/2000/svg">
  <defs>
    <style id="current-color-scheme" type="text/css">.ColorScheme-Text { color:#ebdbb2; } .ColorScheme-Highlight { color:#458588; }</style>
  </defs>
  <path class="ColorScheme-Text" d="m5 1v2h-1c-0.554 0-1 0.446-1 1v1h-2v1h2v1.5137h-2v1h2v1.4863h-2v1h2v1c0 0.554 0.446 1 1 1h1v2h1v-2h1.5137v2h1v-2h1.4863v2h1v-2h1c0.554 0 1-0.446 1-1v-1h2v-1h-2v-1.4863h2v-1h-2v-1.5137h2v-1h-2v-1c0-0.554-0.446-1-1-1h-1v-2h-1v2h-1.4863v-2h-1v2h-1.5137v-2zm-1.3672 3h3.752v0.64844h-0.77734l2.1582 5.2988 2.1758-5.2988h-0.95312v-0.64844h2.3789v0.64844h-0.66992l-3.0176 7.3516h-1.2754l-3.0156-7.3516h-0.75586z" fill="currentColor"/>
</svg>
