<svg width="16" height="16" version="1.1" xmlns="http://www.w3.org/2000/svg">
  <defs>
    <style id="current-color-scheme" type="text/css">.ColorScheme-Text { color:#ebdbb2; } .ColorScheme-Highlight { color:#458588; }</style>
  </defs>
  <path class="ColorScheme-Text" d="m11.76 1.54 0.1353 0.1803-0.6584 2.537-0.2503 0.04195-1.596-2.537 0.115-0.2222zm-5.263 0 0.1109 0.2279-1.878 2.678-0.2502-0.06501-0.3765-2.678 0.1393-0.1629zm6.685 0.05065 2.818 3.664-0.1083 0.2313h-3.946l-0.1336-0.1856 1.127-3.664zm-5.073 0 2.818 3.664-0.1083 0.2313h-5.637l-0.1083-0.2313 2.818-3.664zm-5.29 0 0.2419 0.04573 1.127 3.664-0.1336 0.1856h-3.946l-0.1083-0.2313zm13.07 4.459 0.1032 0.237-7.328 8.174-0.2327-0.1516 3.382-8.174 0.1295-0.08542zm-5.073 0 0.1301 0.195-2.818 7.046h-0.2601l-2.818-7.046 0.1301-0.195zm-6.764 0 0.1295 0.08542 3.382 8.174-0.2327 0.1516-7.328-8.174 0.1032-0.237z" fill="currentColor"/>
</svg>
