<svg width="16" height="16" version="1.1" xmlns="http://www.w3.org/2000/svg">
  <defs>
    <style id="current-color-scheme" type="text/css">.ColorScheme-Text { color:#ebdbb2; } .ColorScheme-Highlight { color:#458588; }</style>
  </defs>
  <path class="ColorScheme-Text" d="m9.58 6.637c2.674 2.79 3.959 4.034 3.856 4.368-0.07434 0.2459-0.2886 0.4544-0.6428 0.6256-0.3536 0.1612-0.6722 0.2343-0.9558 0.2193-1.566-1.019-2.689-2.609-3.876-4.04-0.2795 0.305-0.6972 0.9325-1.253 1.882-0.7157 1.516-1.657 2.914-2.197 4.516-0.1647 0.5609-0.5838 0.8236-1.257 0.7879-0.6332-0.0335-0.8772-0.3733-0.5538-1.408 0.283-0.9444 1.644-3.236 4.084-6.875-0.02735-0.3165-1.984-3.232-2.681-3.908-0.4364-0.4228-0.618-0.7472-0.5449-0.9732 0.1647-0.5609 0.6843-0.8182 1.559-0.772 0.8089 0.04282 2.548 3.309 3.19 4.01 1.434-1.349 1.922-3.208 2.879-3.76 0.8543-0.4927 1.938-0.4342 1.663 0.4328-0.3208 1.092-3.457 4.265-3.621 4.545" fill="currentColor"/>
</svg>
