<svg width="256" height="256" fill="none" version="1.1" viewBox="0 0 256 256" xmlns="http://www.w3.org/2000/svg">
  <path d="m57 15c-9.9393 0-17 7.0595-17 17v192c0 9.9393 7.0595 17 17 17h142c9.9405 0 17-7.0607 17-17v-192c0-9.9405-7.0607-17-17-17z" fill="url(#linearGradient26)" stroke-linecap="round" stroke-linejoin="round" stroke-miterlimit="0" style="paint-order:markers fill stroke"/>
  <path class="ColorScheme-Text" d="m61.18 95.188c-0.48191 2.9338 0.4016 6.0463 2.6699 8.3164l13.484 13.469c0.47936-0.55486 0.95623-1.112 1.4551-1.6523l-14.939-14.92c-1.4734-1.4745-2.3569-3.307-2.6699-5.2129zm133.48 2e-3c-0.31302 1.9057-1.1965 3.7375-2.6699 5.2109l-14.854 14.854c0.49779 0.54108 0.97291 1.0988 1.4512 1.6543l13.402-13.404c2.2683-2.2683 3.1518-5.3803 2.6699-8.3145zm-95.396 27.096c-5.2758 0-9.5508 4.275-9.5508 9.5508 0 0.5299 0.05375 1.0463 0.13672 1.5527 0.74306-4.5356 4.6681-8 9.4141-8s8.673 3.4644 9.416 8c0.083-0.50642 0.13672-1.0228 0.13672-1.5527 0-5.2758-4.2769-9.5508-9.5527-9.5508zm57.316 0c-5.2758 0-9.5527 4.275-9.5527 9.5508 0 0.5299 0.0538 1.0463 0.13672 1.5527 0.74305-4.5356 4.6701-8 9.416-8s8.671 3.4644 9.4141 8c0.083-0.50642 0.13671-1.0228 0.13671-1.5527 0-5.2758-4.275-9.5508-9.5508-9.5508zm-95.443 38.209c-0.05091 1.0319-0.07907 2.068-0.08203 3.1055h133.73c-3.7e-4 -1.0374-0.0259-2.0734-0.0742-3.1055z" color="#ebdbb2" fill="#ebdbb2" opacity=".2" stroke-width="9.5525"/>
  <path class="ColorScheme-Text" d="m70.685 84.074c-2.4416 0-4.8832 0.92755-6.7536 2.7989-3.7417 3.7417-3.7417 9.7817 0 13.526l14.94 14.921c-11.358 12.304-17.691 28.428-17.739 45.174h133.73c-6e-3 -16.755-6.3075-32.908-17.653-45.241l14.854-14.854c3.7417-3.7417 3.7417-9.7817 0-13.526-3.7417-3.7417-9.7817-3.7417-13.526 0l-16.23 16.249c-10.364-6.2082-22.229-9.4894-34.313-9.4961-12.074 0.0191-23.919 3.3071-34.274 9.5152l-16.268-16.268c-1.8713-1.8713-4.3311-2.7989-6.7727-2.7989zm28.657 38.21c5.2758 0 9.5525 4.2766 9.5525 9.5525s-4.2766 9.5525-9.5525 9.5525-9.5525-4.2766-9.5525-9.5525 4.2767-9.5525 9.5525-9.5525zm57.315 0c5.2758 0 9.5525 4.2766 9.5525 9.5525s-4.2766 9.5525-9.5525 9.5525-9.5525-4.2766-9.5525-9.5525 4.2766-9.5525 9.5525-9.5525z" color="#ebdbb2" fill="#282828" opacity=".5" stroke-width="9.5525"/>
  <path class="ColorScheme-Text" d="m185.31 84.067c-2.4458 0-4.8914 0.93579-6.7637 2.8066l-16.23 16.248c-10.364-6.2082-22.229-9.4894-34.312-9.4961-12.074 0.0191-23.919 3.3075-34.273 9.5156l-16.27-16.268c-1.8713-1.8713-4.3299-2.7988-6.7715-2.7988s-4.8835 0.9275-6.7539 2.7988c-2.1946 2.1946-3.0907 5.1784-2.7109 8.0273 0.35258-1.8022 1.2274-3.5223 2.627-4.9219 1.8704-1.8713 4.3123-2.7988 6.7539-2.7988s4.9021 0.9275 6.7734 2.7988l16.268 16.268c10.355-6.2082 22.201-9.4965 34.275-9.5156 12.084 7e-3 23.948 3.2879 34.312 9.4961l16.229-16.248c3.7446-3.7417 9.7856-3.7417 13.527 0 1.5457 1.5469 2.4423 3.4857 2.7109 5.4922 0.5877-3.0144-0.2883-6.2553-2.6289-8.5977-1.8709-1.8709-4.3159-2.8066-6.7617-2.8066zm-6.6797 32.795-1.4961 1.4961c10.643 11.569 16.846 26.501 17.578 42.137h0.15821c-6e-3 -16.04-5.7929-31.52-16.24-43.633zm-101.25 0.1543c-10.402 12.061-16.186 27.46-16.242 43.436 0.78015-15.609 7.0098-30.495 17.654-42.025zm12.508 16.098c-0.11477 0.59196-0.17774 1.2026-0.17774 1.8281 0 5.2758 4.2769 9.5527 9.5527 9.5527s9.5527-4.2769 9.5527-9.5527c0-0.43557-0.0392-0.86114-0.0957-1.2812-0.85178 4.4027-4.7234 7.7285-9.375 7.7285-4.8417 0-8.8314-3.605-9.457-8.2754zm57.316 6e-3c-0.11406 0.5902-0.17969 1.1987-0.17969 1.8223 0 5.2758 4.2769 9.5527 9.5527 9.5527s9.5527-4.2769 9.5527-9.5527c0-0.43627-0.0391-0.86245-0.0957-1.2832-0.85104 4.4037-4.7207 7.7305-9.373 7.7305-4.8396 0-8.8288-3.6021-9.457-8.2695z" color="#ebdbb2" fill="#282828" opacity=".2" stroke-width="9.5525"/>
  <path d="m53 189.1h52v32h-52z" fill="#ebdbb2"/>
  <path d="m57.01 197.1v16h7.998v-16zm12 0v16h3.999v-16zm7.998 0v16h8.001v-16zm12 0v16h4.003v-16zm8.001 0v16h3.999v-16z" fill="#665c54"/>
  <path d="m150 191.1v3.999h48v-3.999zm0 7.997v4.003h40v-4.003zm0 8.002v3.999h48v-3.999zm0 8.001v3.999h32v-3.999z" fill="#ebdbb2" opacity=".3"/>
  <defs>
    <linearGradient id="linearGradient26" x1="-160" x2="-160" y2="226" gradientTransform="translate(267,15)" gradientUnits="userSpaceOnUse">
      <stop stop-color="#b8bb26" offset="0"/>
      <stop stop-color="#98971a" offset="1"/>
    </linearGradient>
    <linearGradient id="linearGradient30" x1="119" x2="137" y1="127" y2="127" gradientTransform="translate(0,39)" gradientUnits="userSpaceOnUse">
      <stop stop-color="#a89984" offset="0"/>
      <stop stop-color="#ebdbb2" offset=".096045"/>
      <stop stop-color="#a89984" offset=".19915"/>
      <stop stop-color="#a89984" offset=".7959"/>
      <stop stop-color="#ebdbb2" offset=".89795"/>
      <stop stop-color="#a89984" offset="1"/>
    </linearGradient>
    <linearGradient id="linearGradient23" x1="128" x2="128" y1="15" y2="241" gradientTransform="translate(-1.1e-4)" gradientUnits="userSpaceOnUse">
      <stop stop-color="#ebdbb2" stop-opacity=".15" offset="0"/>
      <stop stop-color="#ebdbb2" stop-opacity=".1" offset=".2"/>
      <stop stop-opacity="0" offset=".75"/>
      <stop stop-opacity=".05098" offset=".9"/>
      <stop stop-opacity=".10196" offset="1"/>
    </linearGradient>
  </defs>
  <path d="m124 176 0.68359 65h3.3164v-65h-4z" fill="#7c6f64"/>
  <path d="m128 163v4h-9v9h9v7h-9l2 4 7 2v4h-9v9h9v4h-9v9h9v4h-9v9h9v4h-9v9h13.115l0.01368-4h4.8711v-9h-4.8438l0.01367-4h4.8301v-9h-4.8008l0.01172-4h4.7891v-9h-4.7598l0.01368-4h4.7461v-9h-4.7188l0.01367-4h4.7051v-9h-4.6758l0.01172-4h4.6641v-9h-9z" fill="#ebdbb2"/>
  <path d="m119 173v3h9v-3h-9zm9 9v3h9v-3h-9zm0 13v3h9v-3h-9zm-9 4v3h9v-3h-9zm9 9v3h9v-3h-9zm-9 4v3h9v-3h-9zm9 9v3h9v-3h-9zm-9 4v3h9v-3h-9zm9 9v3h9v-3h-9zm-9 4v3h9v-3h-9z" fill="#282828" opacity=".4" style="paint-order:markers fill stroke"/>
  <path d="m120 142.97c-4.986 0-9 4.014-9 9v21.029c0 4.6472 3.489 8.4461 8 8.9414v17.059c0 2.77 2.23 5 5 5h8c2.77 0 5-2.23 5-5v-17.059c4.511-0.49532 8-4.2942 8-8.9414v-21.029c0-4.986-4.014-9-9-9zm3 44.029h10v13h-10z" fill="#282828" opacity=".2" style="paint-order:markers fill stroke"/>
  <path d="m120 139.97h16c4.986 0 9 4.014 9 9v21.03c0 4.986-4.014 9-9 9h-16c-4.986 0-9-4.014-9-9v-21.03c0-4.986 4.014-9 9-9z" fill="#504945" style="paint-order:markers fill stroke"/>
  <path d="m120 134.97h16c4.986 0 9 4.014 9 9v21.03c0 4.986-4.014 9-9 9h-16c-4.986 0-9-4.014-9-9v-21.03c0-4.986 4.014-9 9-9z" fill="#665c54" style="paint-order:markers fill stroke"/>
  <rect x="124" y="129" width="8" height="18" ry="4" fill="#a89984" style="paint-order:markers fill stroke"/>
  <path d="m124 142c-2.77 0-5 2.23-5 5v38c0 2.77 2.23 5 5 5h8c2.77 0 5-2.23 5-5v-38c0-2.77-2.23-5-5-5v10c0 2.216-1.784 4-4 4s-4-1.784-4-4zm-1 31h10v12h-10z" fill="url(#linearGradient30)" style="paint-order:markers fill stroke"/>
  <path d="m124 138c-2.77 0-5 2.23-5 5v38c0 2.77 2.23 5 5 5h8c2.77 0 5-2.23 5-5v-38c0-2.77-2.23-5-5-5v10c0 2.216-1.784 4-4 4s-4-1.784-4-4zm-1 31h10v13h-10z" fill="#ebdbb2" style="paint-order:markers fill stroke"/>
  <path d="m57 15c-9.9393 0-17 7.0595-17 17v43h176v-43c0-9.9405-7.0607-17-17-17z" fill="#79740e" opacity=".3" stroke-linecap="round" stroke-linejoin="round" stroke-miterlimit="0" style="paint-order:markers fill stroke"/>
  <path d="m108.78 63c-0.64332-2.0121-1.3562-4.0012-2.04-6h-10.8c-0.7104 1.9905-1.4118 3.9818-2.04 6h-6.48c3.0521-8.7651 6.8127-19.024 11.04-27.72h5.96c4.1618 8.8133 7.4372 17.373 11.04 27.72zm-7.48-21.44c-0.71614 2.1484-1.6498 4.095-3.92 10.48h7.88c-0.0731-0.20573-1.8629-5.2373-3.96-10.48zm26.08-6.6c12.379 0 12.84 6.5014 12.84 9.32 0 3.3294-0.85049 9.44-12.96 9.44h-1.96v9.28h-6.24v-27.32c3.0028-0.58878 6.4467-0.72 8.32-0.72zm0.4 5.32c-0.95141 0-1.8488 0.0674-2.48 0.12v8h1.96c5.6666 0 6.52-1.933 6.52-4.16 0-2.7192-1.8321-3.96-6-3.96zm33.4 22.72c-1.9571-3.1686-6.1991-8.6704-10.12-11.72v11.72h-6.24v-27.72h6.24v10.48c3.2506-3.4103 6.335-6.9732 9.48-10.48h7.4c-2.2923 2.712-6.5669 7.6069-11.72 12.76 5.4224 4.5078 9.7838 10.787 12.36 14.96z" fill="#ebdbb2" opacity=".15" aria-label="APK"/>
  <path d="m108.78 60c-0.64332-2.0121-1.3562-4.0012-2.04-6h-10.8c-0.7104 1.9905-1.4118 3.9818-2.04 6h-6.48c3.0521-8.7651 6.8127-19.024 11.04-27.72h5.96c4.1618 8.8133 7.4372 17.373 11.04 27.72zm-7.48-21.44c-0.71614 2.1484-1.6498 4.095-3.92 10.48h7.88c-0.0731-0.20573-1.8629-5.2373-3.96-10.48zm26.08-6.6c12.379 0 12.84 6.5014 12.84 9.32 0 3.3294-0.85049 9.44-12.96 9.44h-1.96v9.28h-6.24v-27.32c3.0028-0.58878 6.4467-0.72 8.32-0.72zm0.4 5.32c-0.95141 0-1.8488 0.0674-2.48 0.12v8h1.96c5.6666 0 6.52-1.933 6.52-4.16 0-2.7192-1.8321-3.96-6-3.96zm33.4 22.72c-1.9571-3.1686-6.1991-8.6704-10.12-11.72v11.72h-6.24v-27.72h6.24v10.48c3.2506-3.4103 6.335-6.9732 9.48-10.48h7.4c-2.2923 2.712-6.5669 7.6069-11.72 12.76 5.4224 4.5078 9.7838 10.787 12.36 14.96z" fill="#79740e" aria-label="APK"/>
  <path d="m127.38 31.961c-1.8733 0-5.3175 0.12997-8.3203 0.71875v3c3.0028-0.58878 6.447-0.71875 8.3203-0.71875 10.506 0 12.421 4.6763 12.762 7.8164 0.0581-0.53527 0.0781-1.0437 0.0781-1.498 0-2.8186-0.461-9.3184-12.84-9.3184zm-28.92 0.31836c-4.2273 8.6963-7.9889 18.956-11.041 27.721h1.0664c2.8521-8.0591 6.2131-16.983 9.9746-24.721h5.959c3.7432 7.9269 6.7784 15.719 9.9707 24.721h1.0703c-3.6028-10.347-6.8792-18.907-11.041-27.721zm46.359 0v3h6.2402v-3zm15.719 0c-3.145 3.5068-6.2279 7.0702-9.4785 10.48v3c3.2506-3.4103 6.3335-6.9737 9.4785-10.48h4.8066c1.006-1.145 1.9106-2.1918 2.5938-3zm-26.977 10.533c-0.49969 1.4918-2.0367 2.5879-6.3027 2.5879h-1.959v3h1.959c5.6666 0 6.5195-1.9332 6.5195-4.1602 0-0.53285-0.0723-1.0066-0.2168-1.4277zm24.227 3.6133c-0.52766 0.54075-1.0194 1.0643-1.5684 1.6133 4.2411 3.5257 7.8176 8.1233 10.414 11.961h1.9453c-2.3222-3.7613-6.0981-9.2299-10.791-13.574zm-59.314 2.6133c-0.33729 0.91116-0.67098 1.811-1.0938 3h7.8789c-0.0327-0.09213-0.49901-1.3866-1.0938-3z" fill="#282828" opacity=".2"/>
  <path d="m57 15c-9.9393 0-17 7.0595-17 17v192c0 9.9393 7.0595 17 17 17h142c9.9405 0 17-7.0607 17-17v-192c0-9.9405-7.0607-17-17-17zm4.0332 5h133.93c9.3746 0 16.033 6.7474 16.033 16.248v183.5c0 9.4995-6.6575 16.248-16.033 16.248h-133.93c-9.3757 0-16.033-6.7486-16.033-16.248v-183.5c0-9.5007 6.6586-16.248 16.033-16.248z" fill="url(#linearGradient23)" style="paint-order:markers fill stroke"/>
</svg>
