<svg width="256" height="256" version="1.1" viewBox="0 0 256 256" xmlns="http://www.w3.org/2000/svg">
  <defs>
    <linearGradient id="linearGradient7-6-0" x1="186" x2="156" y1="45.006" y2="75.012" gradientTransform="matrix(1.0833 0 0 1.0833 -17.998 -1.2506)" gradientUnits="userSpaceOnUse">
      <stop stop-color="#8ec07c" offset="0"/>
      <stop stop-color="#689d6a" offset=".3027"/>
      <stop stop-color="#427b58" offset="1"/>
    </linearGradient>
    <linearGradient id="linearGradient14-5" x1="128" x2="128" y1="15.001" y2="241" gradientTransform="translate(0,4.8e-4)" gradientUnits="userSpaceOnUse">
      <stop stop-color="#ebdbb2" stop-opacity=".15" offset="0"/>
      <stop stop-color="#ebdbb2" stop-opacity=".05" offset=".2"/>
      <stop stop-opacity="0" offset=".70405"/>
      <stop stop-opacity=".05" offset=".80473"/>
      <stop stop-opacity=".1" offset="1"/>
    </linearGradient>
    <linearGradient id="linearGradient21" x1="128" x2="128" y1="15.002" y2="241" gradientTransform="translate(-.001)" gradientUnits="userSpaceOnUse">
      <stop stop-color="#427b58" offset="0"/>
      <stop stop-color="#8ec07c" offset="1"/>
    </linearGradient>
  </defs>
  <path d="m56.999 15c-9.9393 0-17 7.0595-17 17v149h176v-101l-64.998-64.998z" fill="url(#linearGradient21)" style="paint-order:markers fill stroke"/>
  <path d="m56.999 241c-9.9393 0-17-7.0595-17-17v-43h176v43c0 9.9405-7.0607 17-17 17z" fill="#8ec07c" stroke-linecap="round" stroke-linejoin="round" stroke-miterlimit="0" style="paint-order:markers fill stroke"/>
  <path d="m91.18 213.84c0 5.6626 2.883 8.96 7.36 8.96 4.8781 0 7.36-3.9271 7.36-8.96 0-4.9078-2.3872-9-7.36-9-4.1749 0-7.36 3.1092-7.36 9zm21.16 0c0 9.292-5.7804 14.44-13.8 14.44-7.1983 0-13.8-4.5179-13.8-14.44 0-9.2833 6.2024-14.48 13.8-14.48 7.6238 0 13.8 4.991 13.8 14.48zm11.44 8.8c0.79723 0.0981 1.5986 0.08 2.4 0.08 7.7941 0 9.2-5.1581 9.2-8.88 0-7.853-5.2303-8.84-9-8.84-0.86857 4e-3 -1.7356 0.0424-2.6 0.12zm18.04-8.8c0 12.439-10.106 14.24-15.96 14.24-0.88703 0-4.9869-0.041-8.32-0.72v-27c0.13451-0.0249 3.6911-0.68 8.52-0.68 7.5066 0 15.76 2.6232 15.76 14.16zm22.76 13.88c-0.64332-2.0121-1.3562-4.0012-2.04-6h-10.8c-0.7104 1.9905-1.4118 3.9818-2.04 6h-6.48c4.213-12.099 7.5904-20.624 11.04-27.72h5.96c4.147 8.782 7.4312 17.356 11.04 27.72zm-7.48-21.44c-0.71608 2.1482-1.6498 4.0952-3.92 10.48h7.88c-0.0731-0.20573-1.8629-5.2373-3.96-10.48z" fill="#ebdbb2" opacity=".2" aria-label="ODA"/>
  <path d="m91.18 210.84c0 5.6626 2.8829 8.96 7.36 8.96 4.8781 0 7.36-3.9271 7.36-8.96 0-4.9078-2.3872-9-7.36-9-4.1749 0-7.36 3.1092-7.36 9zm21.16 0c0 9.292-5.7804 14.44-13.8 14.44-7.1983 0-13.8-4.5179-13.8-14.44 0-9.2833 6.2024-14.48 13.8-14.48 7.6238 0 13.8 4.991 13.8 14.48zm11.44 8.8c0.79723 0.0981 1.5986 0.08 2.4 0.08 7.7941 0 9.2-5.1581 9.2-8.88 0-7.853-5.2303-8.84-9-8.84-0.86857 4e-3 -1.7356 0.0424-2.6 0.12zm18.04-8.8c0 12.439-10.106 14.24-15.96 14.24-0.88703 0-4.9869-0.041-8.32-0.72v-27c0.13451-0.0249 3.6911-0.68 8.52-0.68 7.5066 0 15.76 2.6232 15.76 14.16zm22.76 13.88c-0.64332-2.0121-1.3562-4.0012-2.04-6h-10.8c-0.7104 1.9905-1.4118 3.9818-2.04 6h-6.48c4.213-12.099 7.5904-20.624 11.04-27.72h5.96c4.147 8.782 7.4312 17.356 11.04 27.72zm-7.48-21.44c-0.71608 2.1482-1.6498 4.0952-3.92 10.48h7.88c-0.0731-0.20573-1.8629-5.2373-3.96-10.48z" fill="#427b58" aria-label="ODA"/>
  <path d="m98.54 196.36c-7.5976-1e-5 -13.799 5.1971-13.799 14.48 0 0.51228 0.0281 1.0008 0.0625 1.4844 0.64158-8.328 6.5643-12.965 13.736-12.965 7.2174 0 13.13 4.48 13.74 13.008 0.0361-0.4973 0.0605-1.0035 0.0605-1.5274 0-9.489-6.177-14.48-13.801-14.48zm27.521 0.32031c-4.8289 0-8.387 0.65478-8.5215 0.67969v3c0.13451-0.0249 3.6926-0.67969 8.5215-0.67969 7.1636 0 15.001 2.3957 15.703 12.641 0.0335-0.47811 0.0566-0.96667 0.0566-1.4805 0-11.537-8.2532-14.16-15.76-14.16zm28.199 0.32031c-3.4496 7.0962-6.826 15.622-11.039 27.721h1.0723c3.7097-10.46 6.8239-18.255 9.9668-24.721h5.9609c3.7306 7.9001 6.7702 15.703 9.9688 24.721h1.0703c-3.6088-10.364-6.892-18.939-11.039-27.721zm-18.959 15.312c-0.38127 3.4754-2.3152 7.4082-9.1211 7.4082-0.80135 0-1.6032 0.018-2.4004-0.0801v3c0.79723 0.0981 1.599 0.0801 2.4004 0.0801 7.7941 0 9.2012-5.159 9.2012-8.8809 0-0.54411-0.0321-1.0472-0.0801-1.5273zm-29.486 0.0293c-0.45476 4.2889-2.896 7.459-7.2754 7.459-4.061 0-6.8014-2.721-7.2773-7.4512-0.0483 0.4774-0.082 0.96906-0.082 1.4902 0 5.6626 2.8823 8.9609 7.3594 8.9609 4.8781 0 7.3613-3.928 7.3613-8.9609 0-0.51058-0.034-1.0088-0.0859-1.498zm48.461 1.418c-0.33719 0.9109-0.67311 1.8115-1.0957 3h7.8809c-0.0327-0.0921-0.4978-1.3886-1.0918-3z" fill="#282828" opacity=".2"/>
  <path d="m70 48v60h60v-60zm75 50v10h41v-10zm-75 20v10h116v-10zm0 20v10h116v-10zm0 20v10h116v-10z" fill="#ebdbb2" opacity=".15" style="paint-order:markers fill stroke"/>
  <path d="m70 45v60h60v-60zm75 50v10h41v-10zm-75 20v10h116v-10zm0 20v10h116v-10zm0 20v10h116v-10z" fill="#427b58" style="paint-order:markers fill stroke"/>
  <path d="m70 45v3h60v-3zm75 50v3h41v-3zm-75 20v3h116v-3zm0 20v3h116v-3zm0 20v3h116v-3z" fill="#282828" opacity=".2" style="paint-order:markers fill stroke"/>
  <path d="m115 54c-5.5228 0-10 4.4772-10 10s4.4772 10 10 10 10-4.4772 10-10-4.4772-10-10-10zm-24 16-16 30h50l-13-20-7 10z" fill="#282828" opacity=".2" stroke-linecap="round" stroke-linejoin="round" stroke-miterlimit="0" stroke-width="1.5" style="paint-order:markers fill stroke"/>
  <path d="m115 52c-5.5228 0-10 4.4772-10 10s4.4772 10 10 10 10-4.4772 10-10-4.4772-10-10-10zm-24 16-16 30h50l-13-20-7 10z" fill="#689d6a" stroke-linecap="round" stroke-linejoin="round" stroke-miterlimit="0" stroke-width="1.5" style="paint-order:markers fill stroke"/>
  <path d="m115 52c-5.5228 0-10 4.4772-10 10 0 0.3379 0.0161 0.67071 0.0488 1 0.50227-5.0528 4.7662-9 9.9512-9s9.4489 3.9472 9.9512 9c0.0328-0.32929 0.0489-0.6621 0.0489-1 0-5.5228-4.4772-10-10-10zm-24 16-16 30h1.0664l14.934-28 14 20 7-10 11.699 18h1.3008l-13-20-7 10z" fill="#ebdbb2" opacity=".15" stroke-linecap="round" stroke-linejoin="round" stroke-miterlimit="0" stroke-width="1.5" style="paint-order:markers fill stroke"/>
  <path d="m57 15c-9.9393 0-17 7.0595-17 17v192c0 9.9393 7.0595 17 17 17h142c9.9405 0 17-7.0607 17-17v-144l-65-64.998zm4.0332 4.9902 89.967 2e-3 60 60.009v139.75c0 9.4999-6.6575 16.248-16.033 16.248h-133.93c-9.3757 0-16.033-6.7481-16.033-16.248v-183.51c0-9.501 6.6586-16.25 16.033-16.25z" fill="url(#linearGradient14-5)" style="paint-order:markers fill stroke"/>
  <path d="m151 15.002v52.914c0 9.6525 7.8639 17.084 17.518 17.084l47.482-1.34e-4v-5z" fill="#282828" opacity=".3" stroke-width="1.0833"/>
  <path d="m151 15.001v47.916c0 9.6525 7.8639 17.084 17.518 17.084l47.482-1.34e-4z" fill="url(#linearGradient7-6-0)" stroke-width="1.0833"/>
</svg>
