<svg width="256" height="256" version="1.1" viewBox="0 0 256 256" xmlns="http://www.w3.org/2000/svg">
  <defs>
    <linearGradient id="linearGradient7-6-0" x1="186" x2="156" y1="45.006" y2="75.012" gradientTransform="matrix(1.0833 0 0 1.0833 -17.998 -1.2507)" gradientUnits="userSpaceOnUse">
      <stop stop-color="#928374" offset="0"/>
      <stop stop-color="#665c54" offset=".3027"/>
      <stop stop-color="#3c3836" offset="1"/>
    </linearGradient>
    <linearGradient id="linearGradient14-5" x1="128" x2="128" y1="15.001" y2="241" gradientTransform="translate(0,4.8e-4)" gradientUnits="userSpaceOnUse">
      <stop stop-color="#ebdbb2" stop-opacity=".15" offset="0"/>
      <stop stop-color="#ebdbb2" stop-opacity=".05" offset=".2"/>
      <stop stop-opacity="0" offset=".70405"/>
      <stop stop-opacity=".05" offset=".80473"/>
      <stop stop-opacity=".15" offset="1"/>
    </linearGradient>
    <linearGradient id="linearGradient28" x1="104" x2="104" y1="15" y2="241" gradientUnits="userSpaceOnUse">
      <stop stop-color="#282828" offset="0"/>
      <stop stop-color="#3c3836" offset="1"/>
    </linearGradient>
  </defs>
  <path d="m57 15c-9.9393 0-17 7.0595-17 17v192c0 9.9393 7.0595 17 17 17h142c9.9405 0 17-7.0607 17-17v-144l-64.999-64.999z" fill="url(#linearGradient28)" stroke-linecap="round" stroke-linejoin="round" stroke-miterlimit="0" style="paint-order:markers fill stroke"/>
  <path d="m57 241c-9.9393 0-17-7.0595-17-17v-43h176v43c0 9.9405-7.0607 17-17 17z" fill="#ebdbb2" opacity=".3" stroke-linecap="round" stroke-linejoin="round" stroke-miterlimit="0" style="paint-order:markers fill stroke"/>
  <path d="m93.7 200c2.8077 5.364 5.1623 10.948 7.52 16.52 2.3568-5.5724 4.6676-11.178 7.52-16.52h5.68c1.2019 9.1934 1.7322 18.464 2.2 27.72h-6.08c-0.20884-7.0309-0.45108-12.726-0.92-18.4-2.144 4.9499-4.2446 9.918-6.36 14.88h-4.36c-2.1341-4.9541-4.2337-9.9226-6.36-14.88-0.46892 5.6739-0.71116 11.369-0.92 18.4h-6.08c0.61669-12.642 1.2396-21.093 2.2-27.72zm42.04 4.8c-6.2421 0-8.24 3.9646-8.24 9.04 0 4.9582 2.1987 9.08 7.68 9.08 1.7593 0 2.5214-0.0803 3.08-0.2v-9.64h6.24v13.72c-3.5405 1.3909-8.9813 1.44-9.72 1.44-7.9578 0-13.76-4.8354-13.76-14.4 0-9.3096 6.2351-14.48 13.88-14.48 4.3252 0 7.7259 1.1987 9.2 2.12l-1.8 5c-0.98137-0.52135-3.5054-1.68-6.56-1.68zm34.72-4.8v5.32h-8.36v22.4h-6.24v-22.4h-8.36v-5.32z" fill="#d5c4a1" opacity=".15" style="font-variant-ligatures:none" aria-label="MGT"/>
  <path d="m93.7 197c2.8077 5.364 5.1623 10.948 7.52 16.52 2.3568-5.5724 4.6676-11.178 7.52-16.52h5.68c1.2019 9.1934 1.7322 18.464 2.2 27.72h-6.08c-0.20884-7.0309-0.45108-12.726-0.92-18.4-2.144 4.9499-4.2446 9.918-6.36 14.88h-4.36c-2.1341-4.9541-4.2337-9.9226-6.36-14.88-0.46892 5.6739-0.71116 11.369-0.92 18.4h-6.08c0.61669-12.642 1.2396-21.093 2.2-27.72zm42.04 4.8c-6.2421 0-8.24 3.9646-8.24 9.04 0 4.9582 2.1987 9.08 7.68 9.08 1.7593 0 2.5214-0.0803 3.08-0.2v-9.64h6.24v13.72c-3.5405 1.3909-8.9813 1.44-9.72 1.44-7.9578 0-13.76-4.8354-13.76-14.4 0-9.3096 6.2351-14.48 13.88-14.48 4.3252 0 7.7259 1.1987 9.2 2.12l-1.8 5c-0.98137-0.52135-3.5054-1.68-6.56-1.68zm34.72-4.8v5.32h-8.36v22.4h-6.24v-22.4h-8.36v-5.32z" fill="#3c3836" style="font-variant-ligatures:none" aria-label="MGT"/>
  <path d="m134.9 196.36c-7.6449 0-13.881 5.1709-13.881 14.48 0 0.52905 0.0178 1.0429 0.0527 1.543 0.61751-8.3909 6.5916-13.023 13.828-13.023 3.5952 0 6.5508 0.82801 8.293 1.6367h2e-3l0.9043-2.5156c-1.4741-0.92131-4.874-2.1211-9.1992-2.1211zm-47.16 0.64062c-0.96038 6.6266-1.5845 15.078-2.2012 27.721h0.15234c0.56953-11.004 1.1665-18.633 2.0488-24.721h5.959c2.8076 5.364 5.1638 10.948 7.5215 16.52 2.3568-5.5724 4.6672-11.177 7.5195-16.52h5.6797c1.072 8.2002 1.6093 16.463 2.0449 24.721h0.1543c-0.46781-9.2559-0.99734-18.527-2.1992-27.721h-5.6797c-2.8524 5.3425-5.1628 10.947-7.5195 16.52-2.3577-5.5719-4.7138-11.156-7.5215-16.52zm59.76 0v3h22.961v-3zm-9.2402 13.08v3h6.2402v-3zm-10.693 2.2188c-0.0455 0.49954-0.0664 1.0144-0.0664 1.541 0 4.9582 2.1984 9.0801 7.6797 9.0801 1.7593 0 2.5215-0.0795 3.0801-0.19922v-3c-0.55857 0.1197-1.3208 0.19922-3.0801 0.19922-4.9332 0-7.2078-3.3389-7.6133-7.6211z" fill="#282828" style="font-variant-ligatures:none"/>
  <path d="m216 80-101 101h20.2l80.797-80.797z" fill="#fb4934" stroke-width="5.0498"/>
  <path d="m216 100.21-80.797 80.797h20.198l60.598-60.598z" fill="#fabd2f" stroke-width="5.0498"/>
  <path d="m216 120.4-60.598 60.598h20.2l40.398-40.398z" fill="#8ec07c" stroke-width="5.0498"/>
  <path d="m175.6 181h20.199l20.199-20.199v-20.199z" fill="#83a598" stroke-width="5.0498"/>
  <path d="m59.999 80v11.929h35.786l-35.786 47.416v12.227h53.678v-11.929h-35.786l35.786-50.696v-8.9464zm62.625 0 20.875 35.786-20.875 35.786h17.893l11.929-20.444 11.929 20.444h17.893l-20.875-35.786 20.875-35.786h-17.893l-11.929 20.444-11.929-20.444z" fill="#1d2021" stroke-width="5.9643"/>
  <path d="m59.999 75v11.929h35.786l-35.786 47.416v12.227h53.678v-11.929h-35.786l35.786-50.696v-8.9464zm62.625 0 20.875 35.786-20.875 35.786h17.893l11.929-20.444 11.929 20.444h17.893l-20.875-35.786 20.875-35.786h-17.893l-11.929 20.444-11.929-20.444z" fill="#ebdbb2" stroke-width="5.9643"/>
  <path d="m60 75v5h53.678v-5zm62.625 0 2.916 5h14.977l11.928 20.443 11.93-20.443h14.977l2.916-5h-17.893l-11.93 20.443-11.928-20.443zm-30.613 16.928-32.012 42.416v5l35.785-47.416zm50.029 21.357-19.416 33.285h2.916l17.959-30.785zm20.811 0-1.459 2.5 17.959 30.785h2.916zm-81.43 21.357-3.5293 5h35.785v-5z" fill="#fbf1c7" opacity=".6" stroke-width="5.9643"/>
  <path d="m57 15c-9.9393 0-17 7.0595-17 17v192c0 9.9393 7.0595 17 17 17h142c9.9405 0 17-7.0607 17-17v-144l-65-64.998zm4.0332 4.9902 89.967 2e-3 60 60.009v139.75c0 9.4999-6.6575 16.248-16.033 16.248h-133.93c-9.3757 0-16.033-6.7481-16.033-16.248v-183.51c0-9.501 6.6586-16.25 16.033-16.25z" fill="url(#linearGradient14-5)" style="paint-order:markers fill stroke"/>
  <path d="m151 15.002v52.914c0 9.6525 7.8639 17.084 17.518 17.084l47.482-1.34e-4v-5z" fill="#282828" opacity=".5" stroke-width="1.0833"/>
  <path d="m151 15.001v47.916c0 9.6525 7.8639 17.082 17.518 17.082l47.482 0.0019z" fill="url(#linearGradient7-6-0)" stroke-width="1.0833"/>
</svg>
