<svg width="256" height="256" version="1.1" viewBox="0 0 256 256" xmlns="http://www.w3.org/2000/svg">
  <defs>
    <linearGradient id="linearGradient7-6-0" x1="186" x2="156" y1="45.006" y2="75.012" gradientTransform="matrix(1.0833 0 0 1.0833 -17.998 -1.2506)" gradientUnits="userSpaceOnUse">
      <stop stop-color="#fabd2f" offset="0"/>
      <stop stop-color="#d79921" offset=".3027"/>
      <stop stop-color="#b57614" offset="1"/>
    </linearGradient>
    <linearGradient id="linearGradient21" x1="128" x2="128" y1="15" y2="241" gradientTransform="translate(0,-1.34e-4)" gradientUnits="userSpaceOnUse">
      <stop stop-color="#ebdbb2" offset="0"/>
      <stop stop-color="#d5c4a1" offset="1"/>
    </linearGradient>
    <linearGradient id="linearGradient14-7-1" x1="128" x2="128" y1="15.001" y2="241" gradientTransform="translate(0,4.8e-4)" gradientUnits="userSpaceOnUse">
      <stop stop-color="#b57614" stop-opacity=".09894" offset="0"/>
      <stop stop-color="#b57614" stop-opacity=".051237" offset=".2"/>
      <stop stop-color="#b57614" stop-opacity=".045936" offset=".70405"/>
      <stop stop-color="#282828" stop-opacity=".051237" offset=".80473"/>
      <stop stop-color="#282828" stop-opacity=".09894" offset="1"/>
    </linearGradient>
  </defs>
  <path d="m57 15c-9.9393 0-17 7.0595-17 17v149h176v-101l-64.998-64.998z" fill="url(#linearGradient21)" style="paint-order:markers fill stroke"/>
  <path d="m57 241c-9.9393 0-17-7.0595-17-17v-43h176v43c0 9.9405-7.0607 17-17 17z" fill="#d79921" stroke-linecap="round" stroke-linejoin="round" stroke-miterlimit="0" style="paint-order:markers fill stroke"/>
  <path d="m105.6 200h6.24v27.72h-6.24v-11.76h-10.48v11.76h-6.24v-27.72h6.24v10.6h10.48zm28.56 27.72c-0.95148-1.903-3.0803-5.9231-5.72-9.56-2.4596 3.1624-5.5122 8.7835-5.88 9.56h-7.12c2.4908-4.5853 5.4549-8.9918 9.32-14.36l-8.92-13.36h7.56l5.4 8.64 5.28-8.64h7.12l-8.8 13.44c2.0317 2.6364 5.968 8.0335 9.24 14.28zm20.32 0.36c-3.9745 0-6.8192-0.28408-9.24-0.8v-26.88c2.835-0.53155 6.6089-0.72 8.44-0.72 5.7428 0 12.08 1.2536 12.08 7.8 0 2.2133-1.0667 3.96-3.2 5.24 3.0743 1.0716 4.4184 3.479 4.56 6.6 0 6.8145-5.901 8.76-12.64 8.76zm-3.16-12.44v7.16c0.98081 0.11539 2.0707 0.16 3.24 0.16 2.8306-6e-3 5.9596-0.46056 6.24-3.76 0-0.94028-0.0632-3.56-5.56-3.56zm0-4.76h3.04c3.4646 0 5.36-0.71411 5.36-3.12 0-1.4248-0.57021-3.04-5.04-3.04-1.1212 0.0106-2.2423 0.0329-3.36 0.12z" fill="#282828" opacity=".2" aria-label="HXB"/>
  <path d="m105.6 197h6.24v27.72h-6.24v-11.76h-10.48v11.76h-6.24v-27.72h6.24v10.6h10.48zm28.56 27.72c-0.95148-1.903-3.0803-5.9231-5.72-9.56-2.4596 3.1624-5.5122 8.7835-5.88 9.56h-7.12c2.4908-4.5853 5.4549-8.9918 9.32-14.36l-8.92-13.36h7.56l5.4 8.64 5.28-8.64h7.12l-8.8 13.44c2.0317 2.6364 5.968 8.0335 9.24 14.28zm20.32 0.36c-3.9745 0-6.8192-0.28408-9.24-0.8v-26.88c2.835-0.53155 6.6089-0.72 8.44-0.72 5.7428 0 12.08 1.2536 12.08 7.8 0 2.2133-1.0667 3.96-3.2 5.24 3.0743 1.0716 4.4184 3.479 4.56 6.6 0 6.8145-5.901 8.76-12.64 8.76zm-3.16-12.44v7.16c0.98081 0.11539 2.0707 0.16 3.24 0.16 2.8306-6e-3 5.9596-0.46056 6.24-3.76 0-0.94028-0.0632-3.56-5.56-3.56zm0-4.76h3.04c3.4646 0 5.36-0.71411 5.36-3.12 0-1.4248-0.57021-3.04-5.04-3.04-1.1212 0.0106-2.2423 0.0329-3.36 0.12z" fill="#ebdbb2" aria-label="HXB"/>
  <path d="m153.68 196.68c-1.8311 0-5.6045 0.18915-8.4395 0.7207v3c2.835-0.53155 6.6084-0.7207 8.4395-0.7207 5.2302 0 10.938 1.0547 11.918 6.1855 0.1026-0.4405 0.16211-0.89937 0.16211-1.3848 0-6.5464-6.3373-7.8008-12.08-7.8008zm-64.799 0.32031v3h6.2383v-3zm16.719 0v3h6.2402v-3zm10.24 0 2.0039 3h5.5566l5.4004 8.6406 5.2793-8.6406h5.1543l1.9648-3h-7.1191l-5.2793 8.6406-5.4004-8.6406zm43.518 9.2773c-0.70174 1.2026-2.4118 1.6035-4.998 1.6035h-3.0391v3h3.0391c3.4646 0 5.3613-0.7152 5.3613-3.1211 0-0.49758-0.0824-1.0153-0.36328-1.4824zm-64.238 1.3223v3h10.48v-3zm69.549 3.2617c-0.51928 0.69985-1.2139 1.3233-2.1074 1.8594 2.6243 0.9147 3.9791 2.8069 4.4102 5.2812 0.0888-0.52841 0.14844-1.0791 0.14844-1.6816-0.10358-2.2833-0.85374-4.1832-2.4512-5.459zm-40.939 0.95508c-3.3505 4.7074-6.033 8.7511-8.2891 12.904h1.7148c2.1232-3.5627 4.5868-7.1687 7.6055-11.361zm9.7188 0.0254-1.0469 1.5976c1.6967 2.2017 4.7191 6.3421 7.5762 11.281h1.6641c-2.8066-5.358-6.0304-9.977-8.1934-12.879zm26.998 5.7422c-0.93985 2.0437-3.5134 2.3719-5.8848 2.377-1.1693 0-2.2594-0.0448-3.2402-0.16016v3c0.98081 0.11539 2.071 0.16016 3.2402 0.16016 2.8306-6e-3 5.9598-0.46228 6.2402-3.7617 0-0.3676-0.0153-0.99116-0.35547-1.6152z" fill="#fbf1c7" opacity=".6"/>
  <path class="ColorScheme-Text" d="m128 63.5-58 50.75h14.5v50.75h87v-50.75h14.5l-21.75-19.031v-31.719h-14.5v19.031z" color="#ebdbb2" fill="#ebdbb2" opacity=".6" stroke-width="7.25"/>
  <path class="ColorScheme-Text" d="m128 58.5-58 50.75h14.5v50.75h87v-50.75h14.5l-21.75-19.031v-31.719h-14.5v19.031z" color="#ebdbb2" fill="#a89984" stroke-width="7.25"/>
  <path class="ColorScheme-Text" d="m128 58.5-58 50.75h5.7148l52.285-45.75 21.75 19.031v-5zm21.75 0v5h14.5v-5zm14.5 31.719v5l16.035 14.031h5.7148z" color="#ebdbb2" fill="#282828" opacity=".15" stroke-width="7.25"/>
  <path d="m57 15c-9.9393 0-17 7.0595-17 17v192c0 9.9393 7.0595 17 17 17h142c9.9405 0 17-7.0607 17-17v-144l-65-65zm4.0332 4.9902 89.967 0.01 60 60 2e-4 139.75c1e-5 9.4999-6.6575 16.248-16.033 16.248h-133.93c-9.3757 0-16.033-6.7481-16.033-16.248v-183.51c0-9.501 6.6586-16.25 16.033-16.25z" fill="url(#linearGradient14-7-1)" style="paint-order:markers fill stroke"/>
  <path d="m151 15.002v52.914c0 9.6525 7.8639 17.084 17.518 17.084l47.482-1.34e-4v-5z" fill="#282828" opacity=".2" stroke-width="1.0833"/>
  <path d="m151 15.001v47.916c0 9.6525 7.8639 17.084 17.518 17.084l47.482-1.34e-4z" fill="url(#linearGradient7-6-0)" stroke-width="1.0833"/>
</svg>
