<svg width="256" height="256" version="1.1" viewBox="0 0 256 256" xmlns="http://www.w3.org/2000/svg">
  <defs>
    <linearGradient id="linearGradient26" x1="-160" x2="-160" y2="226" gradientTransform="translate(267,15)" gradientUnits="userSpaceOnUse">
      <stop stop-color="#83a598" offset="0"/>
      <stop stop-color="#83a598" offset="1"/>
    </linearGradient>
    <linearGradient id="linearGradient7-6" x1="186" x2="156" y1="45.006" y2="75.012" gradientTransform="matrix(1.0833,0,0,1.0833,-17.998,-1.2502)" gradientUnits="userSpaceOnUse">
      <stop stop-color="#83a598" offset="0"/>
      <stop stop-color="#458588" offset=".3027"/>
      <stop stop-color="#076678" offset="1"/>
    </linearGradient>
    <linearGradient id="linearGradient14-5-1" x1="128" x2="128" y1="15.001" y2="241" gradientTransform="translate(0,4.8e-4)" gradientUnits="userSpaceOnUse">
      <stop stop-color="#ebdbb2" stop-opacity=".2" offset="0"/>
      <stop stop-color="#ebdbb2" stop-opacity=".1" offset=".2"/>
      <stop stop-opacity="0" offset=".70405"/>
      <stop stop-opacity=".05" offset=".80473"/>
      <stop stop-opacity=".1" offset="1"/>
    </linearGradient>
  </defs>
  <path d="m57 15c-9.9393 0-17 7.0595-17 17v192c0 9.9393 7.0595 17 17 17h142c9.9405 0 17-7.0607 17-17v-144l-64.999-64.999z" fill="url(#linearGradient26)" stroke-linecap="round" stroke-linejoin="round" stroke-miterlimit="0" style="paint-order:markers fill stroke"/>
  <path d="m57 241c-9.9393 0-17-7.0595-17-17v-43h176v43c0 9.9405-7.0607 17-17 17z" fill="#076678" opacity=".3" stroke-linecap="round" stroke-linejoin="round" stroke-miterlimit="0" style="paint-order:markers fill stroke"/>
  <path d="m123.92 227.72c-0.64332-2.0121-1.3562-4.0012-2.04-6h-10.8c-0.7104 1.9905-1.4118 3.9818-2.04 6h-6.48c4.213-12.099 7.5904-20.624 11.04-27.72h5.96c4.147 8.782 7.4312 17.356 11.04 27.72zm-7.48-21.44c-0.71609 2.1482-1.6498 4.0952-3.92 10.48h7.88c-0.0732-0.20573-1.8629-5.2373-3.96-10.48zm26.08 16.68c3.2335 0 4.48-0.98172 4.48-2.88 0-1.533-1.0262-2.6487-5.68-4.2-3.4634-1.2224-7.6-2.955-7.6-8.2 0-5.1508 4.0386-8.32 10.2-8.32 3.7211 0 6.4107 0.94404 8.2 1.92l-1.8 4.92c-1.873-0.99727-3.8907-1.4678-6-1.52-2.9192 0-4.2 0.79833-4.2 2.52 0.24727 2.3866 2.8628 3.0035 4.8 3.68 5.9312 2.1967 8.52 4.0081 8.52 9.24 0 6.7588-5.9696 8.16-10.92 8.16-2.0763 0-6.0494-0.27394-9.28-2.12l1.76-4.96c2.3212 1.3162 4.8902 1.7066 7.52 1.76z" fill="#ebdbb2" opacity=".15" aria-label="AS"/>
  <path d="m123.92 224.72c-0.64332-2.0121-1.3562-4.0012-2.04-6h-10.8c-0.7104 1.9905-1.4118 3.9818-2.04 6h-6.48c4.213-12.099 7.5904-20.624 11.04-27.72h5.96c4.147 8.782 7.4312 17.356 11.04 27.72zm-7.48-21.44c-0.71609 2.1482-1.6498 4.0952-3.92 10.48h7.88c-0.0732-0.20573-1.8629-5.2373-3.96-10.48zm26.08 16.68c3.2335 0 4.48-0.98172 4.48-2.88 0-1.533-1.0262-2.6487-5.68-4.2-3.4634-1.2224-7.6-2.955-7.6-8.2 0-5.1508 4.0386-8.32 10.2-8.32 3.7211 0 6.4107 0.94404 8.2 1.92l-1.8 4.92c-1.873-0.99727-3.8907-1.4678-6-1.52-2.9192 0-4.2 0.79833-4.2 2.52 0.24727 2.3866 2.8628 3.0035 4.8 3.68 5.9312 2.1967 8.52 4.0081 8.52 9.24 0 6.7588-5.9696 8.16-10.92 8.16-2.0763 0-6.0494-0.27394-9.28-2.12l1.76-4.96c2.3212 1.3162 4.8902 1.7066 7.52 1.76z" fill="#076678" aria-label="AS"/>
  <path d="m143.92 196.36c-6.1614 0-10.199 3.1696-10.199 8.3203 0 0.53725 0.0531 1.0293 0.13477 1.4961 0.72078-4.2529 4.5304-6.8164 10.064-6.8164 3.1296 0 5.5212 0.67 7.2695 1.4629l0.92969-2.543c-1.7893-0.97596-4.4781-1.9199-8.1992-1.9199zm-30.32 0.64062c-3.4496 7.0962-6.826 15.622-11.039 27.721h1.0566c3.727-10.516 6.8285-18.233 9.9824-24.721h5.9609c3.7385 7.9168 6.7764 15.678 9.9824 24.721h1.0566c-3.6088-10.364-6.892-18.939-11.039-27.721zm27.076 8.6504c-0.37645 0.39203-0.55664 0.90539-0.55664 1.5488 0.24727 2.3866 2.8636 3.0052 4.8008 3.6816 5.285 1.9574 7.9093 3.6144 8.4199 7.6523 0.0628-0.44375 0.0996-0.91304 0.0996-1.4141 0-5.2319-2.5883-7.0415-8.5195-9.2383-1.467-0.5123-3.3222-0.992-4.2441-2.2305zm-27.061 8.1094c-0.33719 0.9109-0.67311 1.8115-1.0957 3h7.8809c-0.0328-0.0921-0.49781-1.3886-1.0918-3zm21.385 4.4394-1.7598 4.9609c0.29446 0.16825 0.5956 0.31977 0.90039 0.46289l0.85938-2.4238c2.3212 1.3162 4.8898 1.7083 7.5195 1.7617 3.2335 0 4.4805-0.98258 4.4805-2.8809 0-0.50876-0.11834-0.97192-0.43945-1.4199-0.60621 0.85949-1.8775 1.3008-4.041 1.3008-2.6298-0.0534-5.1983-0.44556-7.5195-1.7617z" fill="#282828" opacity=".2"/>
  <path d="m70 60v100h116v-100zm10 10h30v20h-30zm40 0h56v20h-56zm-40 30h30v20h-30zm40 0h56v20h-56zm-40 30h30v20h-30zm40 0h56v20h-56z" fill="#ebdbb2" opacity=".15" style="paint-order:markers fill stroke"/>
  <path d="m70 55v100h116v-100zm10 10h30v20h-30zm40 0h56v20h-56zm-40 30h30v20h-30zm40 0h56v20h-56zm-40 30h30v20h-30zm40 0h56v20h-56z" fill="#076678" style="paint-order:markers fill stroke"/>
  <path d="m70 55v5h116v-5zm10 30v5h30v-5zm40 0v5h56v-5zm-40 30v5h30v-5zm40 0v5h56v-5zm-40 30v5h30v-5zm40 0v5h56v-5z" fill="#282828" opacity=".2" style="paint-order:markers fill stroke"/>
  <path d="m57 15c-9.9393 0-17 7.0595-17 17v192c0 9.9393 7.0595 17 17 17h142c9.9405 0 17-7.0607 17-17v-144l-65-64.998zm4.0332 4.9902 89.967 2e-3 60 60.009v139.75c0 9.4999-6.6575 16.248-16.033 16.248h-133.93c-9.3757 0-16.033-6.7481-16.033-16.248v-183.51c0-9.501 6.6586-16.25 16.033-16.25z" fill="url(#linearGradient14-5-1)" style="paint-order:markers fill stroke"/>
  <path d="m151 15.002v52.914c0 9.6525 7.8639 17.084 17.518 17.084l47.482-1.34e-4v-5z" fill="#282828" opacity=".3" stroke-width="1.0833"/>
  <path d="m151 15.001v47.916c0 9.6525 7.8639 17.084 17.518 17.084l47.482-1.3e-4z" fill="url(#linearGradient7-6)" stroke-width="1.0833"/>
</svg>
