<svg width="256" height="256" fill="none" version="1.1" viewBox="0 0 256 256" xmlns="http://www.w3.org/2000/svg">
  <path d="m57 15c-9.9393 0-17 7.0595-17 17v192c0 9.9393 7.0595 17 17 17h142c9.9405 0 17-7.0607 17-17v-192c0-9.9405-7.0607-17-17-17z" fill="url(#linearGradient26)" stroke-linecap="round" stroke-linejoin="round" stroke-miterlimit="0" style="paint-order:markers fill stroke"/>
  <path transform="translate(0,-2)" d="m53 175h52v32h-52z" fill="#ebdbb2"/>
  <path transform="translate(0,-2)" d="m57.01 183v16h7.998v-16zm12 0v16h3.999v-16zm7.998 0v16h8.001v-16zm12 0v16h4.003v-16zm8.001 0v16h3.999v-16z" fill="#665c54"/>
  <path transform="translate(0,-2)" d="m150 177v3.999h48v-3.999zm0 7.997v4.003h40v-4.003zm0 8.002v3.999h48v-3.999zm0 8.001v3.999h32v-3.999z" fill="#ebdbb2" opacity=".3"/>
  <defs>
    <linearGradient id="linearGradient26" x1="-160" x2="-160" y2="226" gradientTransform="translate(267,15)" gradientUnits="userSpaceOnUse">
      <stop stop-color="#af3a03" offset="0"/>
      <stop stop-color="#fe8019" offset="1"/>
    </linearGradient>
    <linearGradient id="linearGradient30" x1="119" x2="137" y1="127" y2="127" gradientUnits="userSpaceOnUse">
      <stop stop-color="#a89984" offset="0"/>
      <stop stop-color="#ebdbb2" offset=".096045"/>
      <stop stop-color="#a89984" offset=".19915"/>
      <stop stop-color="#a89984" offset=".7959"/>
      <stop stop-color="#ebdbb2" offset=".89795"/>
      <stop stop-color="#a89984" offset="1"/>
    </linearGradient>
    <linearGradient id="linearGradient23" x1="128" x2="128" y1="15" y2="241" gradientTransform="translate(-1.1e-4)" gradientUnits="userSpaceOnUse">
      <stop stop-color="#ebdbb2" stop-opacity=".15" offset="0"/>
      <stop stop-color="#ebdbb2" stop-opacity=".05" offset=".2"/>
      <stop stop-opacity="0" offset=".75"/>
      <stop stop-opacity=".05098" offset=".9"/>
      <stop stop-opacity=".10196" offset="1"/>
    </linearGradient>
  </defs>
  <path d="m128 137h-4l1 95h3z" fill="#7c6f64"/>
  <path d="m128 124v4h-9v9h9v7h-9l2 4 7 2v4h-9v9h9v4h-9v9h9v4h-9v9h9v4h-9v9h9v4h-9v9h9v4h-9v9h9v4h-9v9h9v-3h4l4e-3 -1h4.996v-9h-4.9688l0.0137-4h4.955v-9h-4.9258l0.0117-4h4.9141v-9h-4.8848l0.0137-4h4.8711v-9h-4.8438l0.0137-4h4.83v-9h-4.8008l0.0117-4h4.7891v-9h-4.7598l0.0137-4h4.7461v-9h-4.7188l0.0137-4h4.705v-9h-4.6758l0.0117-4h4.6641v-9h-4.6348z" fill="#ebdbb2"/>
  <path d="m119 134v3h9v-3zm9 9v3h9v-3zm0 13v3h9v-3zm-9 4v3h9v-3zm9 9v3h9v-3zm-9 4v3h9v-3zm9 9v3h9v-3zm-9 4v3h9v-3zm9 9v3h9v-3zm-9 4v3h9v-3zm9 9v3h9v-3zm-9 4v3h9v-3zm9 9v3h9v-3zm-9 4v3h9v-3zm9 9v3h9v-3zm-9 4v3h9v-3z" fill="#282828" opacity=".4" style="paint-order:markers fill stroke"/>
  <path d="m120 93.971c-4.986 0-9 4.014-9 9v21.029c0 4.6472 3.489 8.4461 8 8.9414v17.059c0 2.77 2.23 5 5 5h8c2.77 0 5-2.23 5-5v-17.059c4.511-0.49532 8-4.2942 8-8.9414v-21.029c0-4.986-4.014-9-9-9zm3 44.029h10v13h-10z" fill="#282828" opacity=".2" style="paint-order:markers fill stroke"/>
  <path d="m120 90.97h16c4.986 0 9 4.014 9 9v21.03c0 4.986-4.014 9-9 9h-16c-4.986 0-9-4.014-9-9v-21.03c0-4.986 4.014-9 9-9z" fill="#504945" style="paint-order:markers fill stroke"/>
  <path d="m120 85.97h16c4.986 0 9 4.014 9 9v21.03c0 4.986-4.014 9-9 9h-16c-4.986 0-9-4.014-9-9v-21.03c0-4.986 4.014-9 9-9z" fill="#665c54" style="paint-order:markers fill stroke"/>
  <rect x="124" y="90" width="8" height="18" ry="4" fill="#a89984" style="paint-order:markers fill stroke"/>
  <path d="m124 103c-2.77 0-5 2.23-5 5v38c0 2.77 2.23 5 5 5h8c2.77 0 5-2.23 5-5v-38c0-2.77-2.23-5-5-5v10c0 2.216-1.784 4-4 4s-4-1.784-4-4zm-1 31h10v12h-10z" fill="url(#linearGradient30)" style="paint-order:markers fill stroke"/>
  <path d="m124 99c-2.77 0-5 2.23-5 5v38c0 2.77 2.23 5 5 5h8c2.77 0 5-2.23 5-5v-38c0-2.77-2.23-5-5-5v10c0 2.216-1.784 4-4 4s-4-1.784-4-4zm-1 31h10v13h-10z" fill="#ebdbb2" style="paint-order:markers fill stroke"/>
  <path d="m57 15c-9.9393 0-17 7.0595-17 17v43h176v-43c0-9.9405-7.0607-17-17-17z" fill="#fe8019" opacity=".8" stroke-linecap="round" stroke-linejoin="round" stroke-miterlimit="0" style="paint-order:markers fill stroke"/>
  <path d="m84.34 58.24c3.2335 0 4.48-0.98172 4.48-2.88 0-1.5331-1.0262-2.6487-5.68-4.2-3.4634-1.2224-7.6-2.955-7.6-8.2 0-5.1507 4.0386-8.32 10.2-8.32 3.7211 0 6.4107 0.94404 8.2 1.92l-1.8 4.92c-1.873-0.99727-3.8907-1.4678-6-1.52-2.9192 0-4.2 0.79833-4.2 2.52 0.19285 2.3426 2.9057 3.0323 4.8 3.68 5.9312 2.1967 8.52 4.0081 8.52 9.24 0 6.7588-5.9696 8.16-10.92 8.16-1.9159 0-6.0008-0.24618-9.28-2.12l1.76-4.96c2.3212 1.3162 4.8902 1.7066 7.52 1.76zm32.44-22.96h6.24v27.72h-6.24v-11.76h-10.48v11.76h-6.24v-27.72h6.24v10.6h10.48zm31.2 27.72c-0.64332-2.0121-1.3562-4.0012-2.04-6h-10.8c-0.7104 1.9905-1.4118 3.9818-2.04 6h-6.48c4.213-12.099 7.5904-20.624 11.04-27.72h5.96c4.1469 8.7816 7.4311 17.356 11.04 27.72zm-7.48-21.44c-0.71781 2.1535-1.6463 4.0853-3.92 10.48h7.88c-0.0734-0.20655-1.8631-5.2378-3.96-10.48zm25.88-6.6c7.1485 0 12.88 2.1678 12.88 9.12 0 2.1895-0.48892 5.6557-5.2 7.6 1.6628 2.0587 4.5131 6.3231 6.88 11.32h-7c-4.0065-7.1694-5.2519-8.7902-6.36-10.12h-3.08v10.12h-6.24v-27.32c3.1191-0.6116 6.3871-0.72 8.12-0.72zm0.36 5.32c-0.74882-0.0098-1.4946 0.05989-2.24 0.12v7.52h1.76c4.8398 0 6.56-1.1781 6.56-3.88 0-1.4407-0.45697-3.76-6.08-3.76z" fill="#ebdbb2" opacity=".15" aria-label="SHAR"/>
  <path d="m84.34 55.24c3.2335 0 4.48-0.98172 4.48-2.88 0-1.5331-1.0262-2.6487-5.68-4.2-3.4634-1.2224-7.6-2.955-7.6-8.2 0-5.1507 4.0386-8.32 10.2-8.32 3.7211 0 6.4107 0.94404 8.2 1.92l-1.8 4.92c-1.873-0.99727-3.8907-1.4678-6-1.52-2.9192 0-4.2 0.79833-4.2 2.52 0.19285 2.3426 2.9057 3.0323 4.8 3.68 5.9312 2.1967 8.52 4.0081 8.52 9.24 0 6.7588-5.9696 8.16-10.92 8.16-1.9159 0-6.0008-0.24618-9.28-2.12l1.76-4.96c2.3212 1.3162 4.8902 1.7066 7.52 1.76zm32.44-22.96h6.24v27.72h-6.24v-11.76h-10.48v11.76h-6.24v-27.72h6.24v10.6h10.48zm31.2 27.72c-0.64332-2.0121-1.3562-4.0012-2.04-6h-10.8c-0.7104 1.9905-1.4118 3.9818-2.04 6h-6.48c4.213-12.099 7.5904-20.624 11.04-27.72h5.96c4.1469 8.7816 7.4311 17.356 11.04 27.72zm-7.48-21.44c-0.71781 2.1535-1.6463 4.0853-3.92 10.48h7.88c-0.0734-0.20655-1.8631-5.2378-3.96-10.48zm25.88-6.6c7.1485 0 12.88 2.1678 12.88 9.12 0 2.1895-0.48892 5.6557-5.2 7.6 1.6628 2.0587 4.5131 6.3231 6.88 11.32h-7c-4.0065-7.1694-5.2519-8.7902-6.36-10.12h-3.08v10.12h-6.24v-27.32c3.1191-0.6116 6.3871-0.72 8.12-0.72zm0.36 5.32c-0.74882-0.0098-1.4946 0.05989-2.24 0.12v7.52h1.76c4.8398 0 6.56-1.1781 6.56-3.88 0-1.4407-0.45697-3.76-6.08-3.76z" fill="#af3a03" aria-label="SHAR"/>
  <path d="m85.741 31.641c-6.1614 0-10.201 3.1696-10.201 8.3203 0 0.53498 0.0538 1.0232 0.13477 1.4883 0.72322-4.2495 4.5348-6.8086 10.066-6.8086 3.1453 0 5.5131 0.68037 7.2637 1.4785l0.93555-2.5586c-1.7893-0.97596-4.4781-1.9199-8.1992-1.9199zm80.641 0.32031c-1.7329 0-5.002 0.10715-8.1211 0.71875v3c3.1191-0.6116 6.3882-0.71875 8.1211-0.71875 6.6045 0 11.987 1.8587 12.77 7.623 0.0747-0.53683 0.10938-1.0514 0.10938-1.5039 0-6.9522-5.7304-9.1191-12.879-9.1191zm-66.32 0.31836v3h6.2402v-3zm16.719 0v3h6.2402v-3zm20.881 0c-3.4496 7.0964-6.828 15.622-11.041 27.721h1.0723c3.7097-10.46 6.8257-18.255 9.9688-24.721h5.959c3.7304 7.8997 6.7721 15.703 9.9707 24.721h1.0703c-3.6089-10.364-6.8942-18.939-11.041-27.721zm-55.166 8.6562c-0.37362 0.39149-0.55469 0.90385-0.55469 1.5449 0.19285 2.3426 2.9065 3.032 4.8008 3.6797 5.275 1.9537 7.9003 3.6095 8.418 7.6309 0.0612-0.43875 0.10156-0.89606 0.10156-1.3906 0-5.2319-2.5883-7.0435-8.5195-9.2402-1.4272-0.48798-3.3174-0.99989-4.2461-2.2246zm90.057 1.6641c-0.64246 1.5989-2.5144 2.3203-6.291 2.3203h-1.7598v3h1.7598c4.8398 0 6.5605-1.1789 6.5605-3.8809 0-0.43028-0.0626-0.93762-0.26953-1.4395zm-66.25 0.28125v3h10.479v-3zm31.373 6.1582c-0.33718 0.91088-0.67077 1.8104-1.0938 3h7.8809c-0.0328-0.09243-0.49973-1.3885-1.0938-3zm37.994 1.8242c-0.47252 0.29289-1.0044 0.56752-1.6074 0.81641 1.3168 1.6303 3.3751 4.6551 5.3516 8.3203h1.5273c-1.7192-3.6295-3.6825-6.8447-5.2715-9.1367zm-98.848 2.6172-1.7598 4.959c0.29384 0.16791 0.59966 0.30841 0.9043 0.45117l0.85547-2.4102c2.3212 1.3162 4.8898 1.7063 7.5195 1.7598 3.2335 0 4.4805-0.98258 4.4805-2.8809 0-0.51039-0.13354-0.97253-0.45703-1.4219-0.60805 0.85519-1.8654 1.3027-4.0234 1.3027-2.6298-0.05342-5.1983-0.4436-7.5195-1.7598z" fill="#282828" opacity=".19"/>
  <path d="m57 15c-9.9393 0-17 7.0595-17 17v192c0 9.9393 7.0595 17 17 17h142c9.9405 0 17-7.0607 17-17v-192c0-9.9405-7.0607-17-17-17zm4.0332 5h133.93c9.3746 0 16.033 6.7474 16.033 16.248v183.5c0 9.4995-6.6575 16.248-16.033 16.248h-133.93c-9.3757 0-16.033-6.7486-16.033-16.248v-183.5c0-9.5007 6.6586-16.248 16.033-16.248z" fill="url(#linearGradient23)" style="paint-order:markers fill stroke"/>
</svg>
