<svg width="256" height="256" version="1.1" viewBox="0 0 256 256" xmlns="http://www.w3.org/2000/svg">
  <defs>
    <linearGradient id="linearGradient28" x1="104" x2="104" y1="15" y2="241" gradientUnits="userSpaceOnUse">
      <stop stop-color="#504945" offset="0"/>
      <stop stop-color="#3c3836" offset="1"/>
    </linearGradient>
    <linearGradient id="linearGradient7-6-0-9" x1="186" x2="156" y1="45.006" y2="75.012" gradientTransform="matrix(1.0833,0,0,1.0833,-17.998,-1.2527)" gradientUnits="userSpaceOnUse">
      <stop stop-color="#665c54" offset="0"/>
      <stop stop-color="#3c3836" offset=".3027"/>
      <stop stop-color="#282828" offset="1"/>
    </linearGradient>
    <linearGradient id="linearGradient14-5" x1="128" x2="128" y1="15.001" y2="241" gradientTransform="translate(0,4.8e-4)" gradientUnits="userSpaceOnUse">
      <stop stop-color="#ebdbb2" stop-opacity=".1" offset="0"/>
      <stop stop-color="#ebdbb2" stop-opacity=".05" offset=".2"/>
      <stop stop-opacity="0" offset=".70405"/>
      <stop stop-opacity=".05" offset=".80473"/>
      <stop stop-opacity=".1" offset="1"/>
    </linearGradient>
  </defs>
  <path d="m57 15c-9.9393 0-17 7.0595-17 17v192c0 9.9393 7.0595 17 17 17h142c9.9405 0 17-7.0607 17-17v-144l-64.999-64.999z" fill="url(#linearGradient28)" stroke-linecap="round" stroke-linejoin="round" stroke-miterlimit="0" style="paint-order:markers fill stroke"/>
  <path d="m57 241c-9.9393 0-17-7.0595-17-17v-43h176v43c0 9.9405-7.0607 17-17 17z" fill="#ebdbb2" opacity=".5" stroke-linecap="round" stroke-linejoin="round" stroke-miterlimit="0" style="paint-order:markers fill stroke"/>
  <path d="m101.62 227.72c-0.64227-2.0124-1.3562-4.0012-2.04-6h-10.8c-0.7104 1.9905-1.4118 3.9818-2.04 6h-6.48c4.2091-12.088 7.6057-20.655 11.04-27.72h5.96c4.152 8.7925 7.4332 17.362 11.04 27.72zm-7.48-21.44c-0.71608 2.1482-1.6498 4.0952-3.92 10.48h7.88c-0.0731-0.20573-1.8629-5.2373-3.96-10.48zm36.36 21.44c-3.2367-5.7487-7.4259-12.291-12.44-18.16v18.16h-6.16v-27.72h5.08c4.3447 4.3447 10.344 13.037 12.56 16.36v-16.36h6.2v27.72zm28 0c-1.9571-3.1686-6.1991-8.6704-10.12-11.72v11.72h-6.24v-27.72h6.24v10.48c3.2506-3.4103 6.335-6.9732 9.48-10.48h7.4c-2.2922 2.712-6.5669 7.6069-11.72 12.76 5.4224 4.5078 9.7838 10.787 12.36 14.96zm11-27.72h6.24v27.72h-6.24z" fill="#ebdbb2" opacity=".15" aria-label="ANKI"/>
  <path d="m101.62 224.72c-0.64227-2.0124-1.3562-4.0012-2.04-6h-10.8c-0.7104 1.9905-1.4118 3.9818-2.04 6h-6.48c4.2091-12.088 7.6057-20.655 11.04-27.72h5.96c4.152 8.7925 7.4332 17.362 11.04 27.72zm-7.48-21.44c-0.71608 2.1482-1.6498 4.0952-3.92 10.48h7.88c-0.07315-0.20573-1.8629-5.2373-3.96-10.48zm36.36 21.44c-3.2367-5.7487-7.4259-12.291-12.44-18.16v18.16h-6.16v-27.72h5.08c4.3447 4.3447 10.344 13.037 12.56 16.36v-16.36h6.2v27.72zm28 0c-1.9571-3.1686-6.1991-8.6704-10.12-11.72v11.72h-6.24v-27.72h6.24v10.48c3.2506-3.4103 6.335-6.9732 9.48-10.48h7.4c-2.2922 2.712-6.5669 7.6069-11.72 12.76 5.4224 4.5078 9.7838 10.787 12.36 14.96zm11-27.72h6.24v27.72h-6.24z" fill="#3c3836" aria-label="ANKI"/>
  <path d="m91.3 197c-3.4343 7.0648-6.8319 15.633-11.041 27.721h1.0723c3.7095-10.458 6.8397-18.284 9.9688-24.721h5.959c3.7348 7.9091 6.7743 15.708 9.9707 24.721h1.0703c-3.6068-10.358-6.889-18.928-11.041-27.721zm20.6 0v3h5.0801c4.3447 4.3447 10.343 13.036 12.559 16.359v-3c-2.2156-3.3235-8.2139-12.015-12.559-16.359zm17.639 0v3h6.2012v-3zm12.602 0v3h6.2402v-3zm15.719 0c-3.145 3.5068-6.2279 7.0702-9.4785 10.48v3c3.2506-3.4103 6.3335-6.9737 9.4785-10.48h4.8047c1.0061-1.1451 1.9125-2.1918 2.5957-3zm11.641 0v3h6.2402v-3zm-14.396 14.152c-0.52599 0.53899-1.0173 1.0603-1.5645 1.6074 4.2411 3.5257 7.8196 8.1233 10.416 11.961h1.9453c-2.3221-3.7612-6.1042-9.2242-10.797-13.568zm-63.789 2.6074c-0.33718 0.91086-0.67118 1.8115-1.0938 3h7.8789c-0.03271-0.0921-0.4978-1.3886-1.0918-3z" fill="#282828" opacity=".5"/>
  <path class="ColorScheme-Text" d="m123.21 55c-6.5214 0-11.786 5.2643-11.786 11.786v11.786h-23.571c-4.3214 0-7.8571 3.5357-7.8571 7.8571v23.571h11.786c6.5214 0 11.786 5.2643 11.786 11.786 0 6.5214-5.2643 11.786-11.786 11.786h-11.786v23.571c0 4.3214 3.5357 7.8571 7.8571 7.8571h23.571v-11.786c0-6.5214 5.2643-11.786 11.786-11.786s11.786 5.2643 11.786 11.786v11.786h23.571c4.3214 0 7.8572-3.5357 7.8572-7.8571v-23.571h11.786c6.5214 0 11.786-5.2643 11.786-11.786 0-6.5214-5.2643-11.786-11.786-11.786h-11.786v-23.571c0-4.3214-3.5357-7.8571-7.8572-7.8571h-23.571v-11.786c0-6.5214-5.2643-11.786-11.786-11.786z" color="#ebdbb2" fill="#282828" opacity=".5" stroke-width="7.8571"/>
  <path class="ColorScheme-Text" d="m123.21 50c-6.5214 0-11.786 5.2643-11.786 11.786v11.786h-23.571c-4.3214 0-7.8571 3.5357-7.8571 7.8571v23.571h11.786c6.5214 0 11.786 5.2643 11.786 11.786 0 6.5214-5.2643 11.786-11.786 11.786h-11.786v23.571c0 4.3214 3.5357 7.8571 7.8571 7.8571h23.571v-11.786c0-6.5214 5.2643-11.786 11.786-11.786s11.786 5.2643 11.786 11.786v11.786h23.571c4.3214 0 7.8572-3.5357 7.8572-7.8571v-23.571h11.786c6.5214 0 11.786-5.2643 11.786-11.786 0-6.5214-5.2643-11.786-11.786-11.786h-11.786v-23.571c0-4.3214-3.5357-7.8571-7.8572-7.8571h-23.571v-11.786c0-6.5214-5.2643-11.786-11.786-11.786z" color="#ebdbb2" fill="#d5c4a1" stroke-width="7.8571"/>
  <path class="ColorScheme-Text" d="m123.21 50c-6.5214 0-11.787 5.2637-11.787 11.785v5c0-6.5214 5.2657-11.785 11.787-11.785s11.785 5.2637 11.785 11.785v-5c0-6.5214-5.2637-11.785-11.785-11.785zm-35.357 23.572c-4.3214 0-7.8574 3.534-7.8574 7.8555v5c0-4.3214 3.536-7.8555 7.8574-7.8555h23.57v-5zm47.143 0v5h23.572c4.3214 0 7.8555 3.534 7.8555 7.8555v-5c0-4.3214-3.534-7.8555-7.8555-7.8555zm31.428 31.428v5h11.787c5.6625 0 10.372 3.9705 11.516 9.2852 0.17345-0.80608 0.26953-1.6412 0.26953-2.5 0-6.5214-5.2637-11.785-11.785-11.785zm-63.127 14.285c-1.1436 5.3147-5.853 9.2871-11.516 9.2871h-11.785v5h11.785c6.5214 0 11.787-5.2657 11.787-11.787 0-0.85892-0.098-1.6939-0.27149-2.5z" color="#ebdbb2" fill="#ebdbb2" opacity=".6" stroke-width="7.8571"/>
  <path d="m57 15c-9.9393 0-17 7.0595-17 17v192c0 9.9393 7.0595 17 17 17h142c9.9405 0 17-7.0607 17-17v-144l-65-64.998zm4.0332 4.9902 89.967 2e-3 60 60.009v139.75c0 9.4999-6.6575 16.248-16.033 16.248h-133.93c-9.3757 0-16.033-6.7481-16.033-16.248v-183.51c0-9.501 6.6586-16.25 16.033-16.25z" fill="url(#linearGradient14-5)" style="paint-order:markers fill stroke"/>
  <path d="m151 15v52.914c0 9.6525 7.8639 17.084 17.518 17.084l47.482-1.34e-4v-5z" fill="#282828" opacity=".5" stroke-width="1.0833"/>
  <path d="m151 14.999v47.916c0 9.6525 7.8639 17.082 17.518 17.082l47.482 0.0019z" fill="url(#linearGradient7-6-0-9)" stroke-width="1.0833"/>
</svg>
