<svg width="256" height="256" fill="none" version="1.1" viewBox="0 0 256 256" xmlns="http://www.w3.org/2000/svg">
  <path d="m99.4 15h-44.32c-8.91 0-16.08 7.173-16.08 16.08v193c0 8.91 7.173 16.08 16.08 16.08h144.8c8.911 0 16.08-7.174 16.08-16.08v-0.044-193c0-8.91-7.173-16.08-16.08-16.08h-100.5z" clip-rule="evenodd" fill="#ebdbb2" fill-rule="evenodd"/>
  <path d="m216 31.08c0-8.91-7.173-16.08-16.08-16.08h-144.8c-8.91 0-16.08 7.173-16.08 16.08v193c0 8.91 7.173 16.08 16.08 16.08h144.8c8.911 0 16.08-7.174 16.08-16.08v-193zm-10 193v-193c0-3.388-2.696-6.084-6.084-6.084h-144.8c-3.388 0-6.084 2.696-6.084 6.084v193c0 3.388 2.696 6.084 6.084 6.084h144.8c3.387 0 6.082-2.695 6.084-6.081v-1e-3 -2e-3z" clip-rule="evenodd" fill="url(#paint0_linear)" fill-rule="evenodd"/>
  <path d="m123.6 175.3 0.031-27.39h-24.11l4.189-7.32h7.714l-11.18-19.48h-24.44l5.335 3.09-7.113 12.45 19.1 33.37 1.84 3.178 1.296 2.126 27.33-0.02zm43.96-61.79-22 12.82 12.02 21.02h-8.377l-3.858-6.704-11.18 19.48 12.24 21.36v-6.206h14.22l19.14-33.4 1.809-3.147 0.451-0.814-14.47-24.41zm-73.59-13.64 22 12.82 12.05-21.05 4.19 7.32-4.19 6.9h22.63l12.27-21.5-5.304 3.09-7.143-12.45h-42.78" fill="url(#paint1_linear)"/>
  <defs>
    <linearGradient id="paint0_linear" x1="127.5" x2="127.5" y1="15" y2="240.2" gradientUnits="userSpaceOnUse">
      <stop stop-color="#689d6a" offset="1e-7"/>
      <stop stop-color="#8ec07c" offset="1"/>
    </linearGradient>
    <linearGradient id="paint1_linear" x1="128" x2="128" y1="75" y2="181.5" gradientUnits="userSpaceOnUse">
      <stop stop-color="#689d6a" offset="1e-7"/>
      <stop stop-color="#8ec07c" offset="1"/>
    </linearGradient>
  </defs>
</svg>
