<svg width="256" height="256" fill="none" version="1.1" viewBox="0 0 256 256" xmlns="http://www.w3.org/2000/svg">
  <path d="m57 15c-9.9393 0-17 7.0595-17 17v192c0 9.9393 7.0595 17 17 17h142c9.9405 0 17-7.0607 17-17v-192c0-9.9405-7.0607-17-17-17z" fill="url(#linearGradient26)" stroke-linecap="round" stroke-linejoin="round" stroke-miterlimit="0" style="paint-order:markers fill stroke"/>
  <path transform="translate(0,-2)" d="m53 175h52v32h-52z" fill="#ebdbb2"/>
  <path transform="translate(0,-2)" d="m57.01 183v16h7.998v-16zm12 0v16h3.999v-16zm7.998 0v16h8.001v-16zm12 0v16h4.003v-16zm8.001 0v16h3.999v-16z" fill="#665c54"/>
  <path transform="translate(0,-2)" d="m150 177v3.999h48v-3.999zm0 7.997v4.003h40v-4.003zm0 8.002v3.999h48v-3.999zm0 8.001v3.999h32v-3.999z" fill="#ebdbb2" opacity=".5"/>
  <defs>
    <linearGradient id="linearGradient26" x1="-160" x2="-160" y2="226" gradientTransform="translate(267,15)" gradientUnits="userSpaceOnUse">
      <stop stop-color="#076678" offset="0"/>
      <stop stop-color="#83a598" offset="1"/>
    </linearGradient>
    <linearGradient id="linearGradient30" x1="119" x2="137" y1="127" y2="127" gradientUnits="userSpaceOnUse">
      <stop stop-color="#a89984" offset="0"/>
      <stop stop-color="#ebdbb2" offset=".096045"/>
      <stop stop-color="#a89984" offset=".19915"/>
      <stop stop-color="#a89984" offset=".7959"/>
      <stop stop-color="#ebdbb2" offset=".89795"/>
      <stop stop-color="#a89984" offset="1"/>
    </linearGradient>
    <linearGradient id="linearGradient23" x1="128" x2="128" y1="15" y2="241" gradientTransform="translate(-1.1e-4)" gradientUnits="userSpaceOnUse">
      <stop stop-color="#ebdbb2" stop-opacity=".15" offset="0"/>
      <stop stop-color="#ebdbb2" stop-opacity=".05" offset=".2"/>
      <stop stop-opacity="0" offset=".75"/>
      <stop stop-opacity=".05098" offset=".9"/>
      <stop stop-opacity=".10196" offset="1"/>
    </linearGradient>
  </defs>
  <path d="m128 137h-4l1 95h3z" fill="#7c6f64"/>
  <path d="m128 124v4h-9v9h9v7h-9l2 4 7 2v4h-9v9h9v4h-9v9h9v4h-9v9h9v4h-9v9h9v4h-9v9h9v4h-9v9h9v4h-9v9h9v-3h4l4e-3 -1h4.996v-9h-4.9688l0.0137-4h4.955v-9h-4.9258l0.0117-4h4.9141v-9h-4.8848l0.0137-4h4.8711v-9h-4.8438l0.0137-4h4.83v-9h-4.8008l0.0117-4h4.7891v-9h-4.7598l0.0137-4h4.7461v-9h-4.7188l0.0137-4h4.705v-9h-4.6758l0.0117-4h4.6641v-9h-4.6348z" fill="#ebdbb2"/>
  <path d="m119 134v3h9v-3zm9 9v3h9v-3zm0 13v3h9v-3zm-9 4v3h9v-3zm9 9v3h9v-3zm-9 4v3h9v-3zm9 9v3h9v-3zm-9 4v3h9v-3zm9 9v3h9v-3zm-9 4v3h9v-3zm9 9v3h9v-3zm-9 4v3h9v-3zm9 9v3h9v-3zm-9 4v3h9v-3zm9 9v3h9v-3zm-9 4v3h9v-3z" fill="#282828" opacity=".4" style="paint-order:markers fill stroke"/>
  <path d="m120 90.97h16c4.986 0 9 4.014 9 9v21.03c0 4.986-4.014 9-9 9h-16c-4.986 0-9-4.014-9-9v-21.03c0-4.986 4.014-9 9-9z" fill="#504945" style="paint-order:markers fill stroke"/>
  <path d="m120 93.971c-4.986 0-9 4.014-9 9v21.029c0 4.6472 3.489 8.4461 8 8.9414v17.059c0 2.77 2.23 5 5 5h8c2.77 0 5-2.23 5-5v-17.059c4.511-0.49532 8-4.2942 8-8.9414v-21.029c0-4.986-4.014-9-9-9zm3 44.029h10v13h-10z" fill="#282828" opacity=".2" style="paint-order:markers fill stroke"/>
  <path d="m120 85.97h16c4.986 0 9 4.014 9 9v21.03c0 4.986-4.014 9-9 9h-16c-4.986 0-9-4.014-9-9v-21.03c0-4.986 4.014-9 9-9z" fill="#665c54" style="paint-order:markers fill stroke"/>
  <rect x="124" y="90" width="8" height="18" ry="4" fill="#a89984" style="paint-order:markers fill stroke"/>
  <path d="m124 103c-2.77 0-5 2.23-5 5v38c0 2.77 2.23 5 5 5h8c2.77 0 5-2.23 5-5v-38c0-2.77-2.23-5-5-5v10c0 2.216-1.784 4-4 4s-4-1.784-4-4zm-1 31h10v12h-10z" fill="url(#linearGradient30)" style="paint-order:markers fill stroke"/>
  <path d="m124 99c-2.77 0-5 2.23-5 5v38c0 2.77 2.23 5 5 5h8c2.77 0 5-2.23 5-5v-38c0-2.77-2.23-5-5-5v10c0 2.216-1.784 4-4 4s-4-1.784-4-4zm-1 31h10v13h-10z" fill="#ebdbb2" style="paint-order:markers fill stroke"/>
  <path d="m57 15c-9.9393 0-17 7.0595-17 17v43h176v-43c0-9.9405-7.0607-17-17-17z" fill="#83a598" opacity=".7" stroke-linecap="round" stroke-linejoin="round" stroke-miterlimit="0" style="paint-order:markers fill stroke"/>
  <path d="m151.58 34.639c-3.4648 0-6.3668 1.3852-8.1191 2.4805l2.1191 4.3594c1.772-1.1727 3.7423-1.7029 5.8418-1.8008 1.3248 0 3.6387 0.6609 3.6387 2.9609 0 2.7622-2.3701 3.4004-4.5606 3.4004h-2.6387v4.7988h2.3203c1.7329 0 5.959 0.21304 5.959 3.8398 0 3.2022-2.9614 3.8398-5.3203 3.8398-1.8164 0-3.4842-0.08751-6.6797-1.4394l-1.1602 4.9609c1.5906 0.73413 5.2914 1.5586 8.0801 1.5586 3.9368 0 11.08-1.0705 11.08-8.8398 0-3.6071-2.0585-5.7962-4.5195-6.7988 2.3361-1.198 3.4004-3.5811 3.4004-5.5195 0-4.3394-2.8354-7.8008-9.4414-7.8008zm-48.252 0.30859c-3.1692-5e-3 -6.3409 0.19937-9.4668 0.73242v26.879c2.4208 0.51592 5.2657 0.80078 9.2402 0.80078 6.739 0 12.639-1.9453 12.639-8.7598-0.1416-3.121-1.4843-5.528-4.5586-6.5996 2.1333-1.28 3.1992-3.0269 3.1992-5.2402-0.25125-5.8176-5.8766-7.7498-11.053-7.8125zm16.252 0.33203v5.2402h12.441c-5.8942 7.103-11.132 15.211-13.08 18.76v3.7207h21.799v-5.2402h-14.119c3.9324-6.554 10.44-14.82 13.68-18.16v-4.3203zm-16.279 4.7207c4.4698 0 5.0391 1.6144 5.0391 3.0391 0 2.4059-1.8948 3.1211-5.3594 3.1211h-3.0391v-6.041c1.1177-0.0871 2.2382-0.10854 3.3594-0.11914zm-3.3594 10.92h3.9199c5.4968 0 5.5586 2.6183 5.5586 3.5586-0.2804 3.2994-3.4077 3.7557-6.2383 3.7617-1.1693 0-2.2594-0.0448-3.2402-0.16016z" fill="#ebdbb2" opacity=".15"/>
  <path d="m151.58 31.639c-3.4648 0-6.3668 1.3852-8.1191 2.4805l2.1191 4.3594c1.772-1.1727 3.7423-1.7029 5.8418-1.8008 1.3248 0 3.6387 0.6609 3.6387 2.9609 0 2.7622-2.3701 3.4004-4.5606 3.4004h-2.6387v4.7988h2.3203c1.7329 0 5.959 0.21304 5.959 3.8398 0 3.2022-2.9614 3.8398-5.3203 3.8398-1.8164 0-3.4842-0.08751-6.6797-1.4394l-1.1602 4.9609c1.5906 0.73413 5.2914 1.5586 8.0801 1.5586 3.9368 0 11.08-1.0705 11.08-8.8398 0-3.6071-2.0585-5.7962-4.5195-6.7988 2.3361-1.198 3.4004-3.5811 3.4004-5.5195 0-4.3394-2.8354-7.8008-9.4414-7.8008zm-48.252 0.30859c-3.1692-5e-3 -6.3409 0.19937-9.4668 0.73242v26.879c2.4208 0.51592 5.2657 0.80078 9.2402 0.80078 6.739 0 12.639-1.9453 12.639-8.7598-0.1416-3.121-1.4843-5.528-4.5586-6.5996 2.1333-1.28 3.1992-3.0269 3.1992-5.2402-0.25125-5.8176-5.8766-7.7498-11.053-7.8125zm16.252 0.33203v5.2402h12.441c-5.8942 7.103-11.132 15.211-13.08 18.76v3.7207h21.799v-5.2402h-14.119c3.9324-6.554 10.44-14.82 13.68-18.16v-4.3203zm-16.279 4.7207c4.4698 0 5.0391 1.6144 5.0391 3.0391 0 2.4059-1.8948 3.1211-5.3594 3.1211h-3.0391v-6.041c1.1177-0.0871 2.2382-0.10854 3.3594-0.11914zm-3.3594 10.92h3.9199c5.4968 0 5.5586 2.6183 5.5586 3.5586-0.2804 3.2994-3.4077 3.7557-6.2383 3.7617-1.1693 0-2.2594-0.0448-3.2402-0.16016z" fill="#076678"/>
  <path d="m151.58 31.639c-3.4648 0-6.3668 1.3852-8.1191 2.4805l1.1426 2.3496c1.7553-0.9255 4.1757-1.8301 6.9766-1.8301 5.7157 0 8.6053 2.5924 9.2813 6.1016 0.10109-0.44309 0.1621-0.88271 0.1621-1.3008 0-4.3394-2.8374-7.8008-9.4434-7.8008zm-48.25 0.30859c-3.1692-5e-3 -6.3429 0.19937-9.4688 0.73242v3c3.1259-0.53305 6.2996-0.73742 9.4688-0.73242 4.7222 0.05723 9.8032 1.6811 10.852 6.3809 0.1326-0.49394 0.19922-1.0164 0.19922-1.5684-0.25125-5.8176-5.8746-7.7498-11.051-7.8125zm16.25 0.33203v3h20.721v-3zm10.039 8.2402c-4.8758 6.2654-8.9978 12.703-10.676 15.76v3c1.9483-3.5487 7.1859-11.657 13.08-18.76zm25.082 0.72461c-0.74253 1.4172-2.5231 1.7949-4.2012 1.7949h-2.6387v3h2.6387c2.1904 1e-6 4.5605-0.63816 4.5605-3.4004 0-0.55649-0.13525-1.0161-0.35937-1.3945zm-46.717 0.30664c-0.69896 1.2084-2.4125 1.6094-5.0039 1.6094h-3.0391v3h3.0391c3.4646 0 5.3613-0.7152 5.3613-3.1211 0-0.49895-0.0747-1.0203-0.35742-1.4883zm5.3047 4.5918c-0.51903 0.69932-1.2145 1.3217-2.1074 1.8574 2.6236 0.91452 3.9791 2.8078 4.4102 5.2812 0.0888-0.52841 0.15039-1.0791 0.15039-1.6816-0.10361-2.2837-0.85548-4.1814-2.4531-5.457zm46.41 0.08203c-0.52651 0.6846-1.2124 1.2914-2.0762 1.7344 2.1231 0.86498 3.9436 2.615 4.4043 5.3945 0.0724-0.49894 0.11523-1.0272 0.11523-1.5957 0-2.5098-1.008-4.3184-2.4434-5.5332zm-50.633 6.6387c-0.93935 2.0443-3.5133 2.3719-5.8848 2.377-1.1693 0-2.2594-0.0448-3.2402-0.16016v3c0.98082 0.11536 2.0709 0.16016 3.2402 0.16016 2.8306-6e-3 5.9579-0.46228 6.2383-3.7617 0-0.3676-0.0136-0.99142-0.35352-1.6152zm46.783 0.36328c-0.80311 1.8698-3.1149 2.291-5.0293 2.291-1.8164 0-3.4822-0.08751-6.6777-1.4395l-1.1621 4.9609c0.18479 0.08529 0.40556 0.17152 0.64257 0.25781l0.51953-2.2188c3.1955 1.3519 4.8613 1.4395 6.6777 1.4395 2.3589 0 5.3223-0.63767 5.3223-3.8398 0-0.5654-0.11301-1.0396-0.29296-1.4512zm-27.324 1.5332c-0.67467 1.0218-1.3213 2.0316-1.9024 3h14.119v-3z" fill="#282828" opacity=".2"/>
  <path d="m57 15c-9.9393 0-17 7.0595-17 17v192c0 9.9393 7.0595 17 17 17h142c9.9405 0 17-7.0607 17-17v-192c0-9.9405-7.0607-17-17-17zm4.0332 5h133.93c9.3746 0 16.033 6.7474 16.033 16.248v183.5c0 9.4995-6.6575 16.248-16.033 16.248h-133.93c-9.3757 0-16.033-6.7486-16.033-16.248v-183.5c0-9.5007 6.6586-16.248 16.033-16.248z" fill="url(#linearGradient23)" style="paint-order:markers fill stroke"/>
</svg>
