<svg width="256" height="256" version="1.1" viewBox="0 0 256 256" xmlns="http://www.w3.org/2000/svg">
  <defs>
    <linearGradient id="linearGradient26" x1="-160" x2="-160" y2="226" gradientTransform="translate(267,15)" gradientUnits="userSpaceOnUse">
      <stop stop-color="#b16286" offset="0"/>
      <stop stop-color="#b16286" offset="1"/>
    </linearGradient>
    <linearGradient id="linearGradient7-6-0" x1="186" x2="156" y1="45.006" y2="75.012" gradientTransform="matrix(1.0833 0 0 1.0833 -17.999 -1.2512)" gradientUnits="userSpaceOnUse">
      <stop stop-color="#d3869b" offset="0"/>
      <stop stop-color="#b16286" offset=".3027"/>
      <stop stop-color="#8f3f71" offset="1"/>
    </linearGradient>
    <linearGradient id="linearGradient14-5-1" x1="128" x2="128" y1="15.001" y2="241" gradientTransform="translate(0,4.8e-4)" gradientUnits="userSpaceOnUse">
      <stop stop-color="#ebdbb2" stop-opacity=".15" offset="0"/>
      <stop stop-color="#ebdbb2" stop-opacity=".05" offset=".2"/>
      <stop stop-opacity="0" offset=".70405"/>
      <stop stop-opacity=".05" offset=".80473"/>
      <stop stop-opacity=".1" offset="1"/>
    </linearGradient>
  </defs>
  <path d="m57 15c-9.9393 0-17 7.0595-17 17v192c0 9.9393 7.0595 17 17 17h142c9.9405 0 17-7.0607 17-17v-144l-64.999-64.999z" fill="url(#linearGradient26)" stroke-linecap="round" stroke-linejoin="round" stroke-miterlimit="0" style="paint-order:markers fill stroke"/>
  <path d="m57 241c-9.9393 0-17-7.0595-17-17v-43h176v43c0 9.9405-7.0607 17-17 17z" fill="#d3869b" opacity=".8" stroke-linecap="round" stroke-linejoin="round" stroke-miterlimit="0" style="paint-order:markers fill stroke"/>
  <path d="m95.46 213.84c0 5.6626 2.883 8.96 7.36 8.96 4.8781 0 7.36-3.9271 7.36-8.96 0-4.9078-2.3872-9-7.36-9-4.1749 0-7.36 3.1092-7.36 9zm21.16 0c0 9.292-5.7804 14.44-13.8 14.44-7.1983 0-13.8-4.5179-13.8-14.44 0-9.2833 6.2024-14.48 13.8-14.48 7.6238 0 13.8 4.991 13.8 14.48zm12.76 9.12c3.2335 0 4.48-0.98172 4.48-2.88 0-1.533-1.0262-2.6487-5.68-4.2-3.4634-1.2224-7.6-2.955-7.6-8.2 0-5.1508 4.0386-8.32 10.2-8.32 3.7211 0 6.4107 0.94404 8.2 1.92l-1.8 4.92c-1.873-0.99727-3.8907-1.4678-6-1.52-2.9192 0-4.2 0.79833-4.2 2.52 0.24727 2.3866 2.8628 3.0035 4.8 3.68 5.9312 2.1967 8.52 4.0081 8.52 9.24 0 6.7588-5.9696 8.16-10.92 8.16-2.0763 0-6.0494-0.27394-9.28-2.12l1.76-4.96c2.3212 1.3162 4.8902 1.7066 7.52 1.76zm24.96 5.12c-3.9745 0-6.8192-0.28408-9.24-0.8v-26.88c2.835-0.53155 6.6089-0.72 8.44-0.72 5.7428 0 12.08 1.2536 12.08 7.8 0 2.2133-1.0667 3.96-3.2 5.24 3.0743 1.0716 4.4184 3.479 4.56 6.6 0 6.8145-5.901 8.76-12.64 8.76zm-3.16-12.44v7.16c0.98081 0.11539 2.0707 0.16 3.24 0.16 2.8306-6e-3 5.9596-0.46056 6.24-3.76 0-0.94028-0.0632-3.56-5.56-3.56zm0-4.76h3.04c3.4646 0 5.36-0.71411 5.36-3.12 0-1.4248-0.57021-3.04-5.04-3.04-1.1212 0.0106-2.2423 0.0329-3.36 0.12z" fill="#ebdbb2" opacity=".15" aria-label="OSBI"/>
  <path d="m95.46 210.84c0 5.6626 2.8829 8.96 7.36 8.96 4.8781 0 7.36-3.9271 7.36-8.96 0-4.9078-2.3872-9-7.36-9-4.1749 0-7.36 3.1092-7.36 9zm21.16 0c0 9.292-5.7804 14.44-13.8 14.44-7.1983 0-13.8-4.5179-13.8-14.44 0-9.2833 6.2024-14.48 13.8-14.48 7.6238 0 13.8 4.991 13.8 14.48zm12.76 9.12c3.2335 0 4.48-0.98172 4.48-2.88 0-1.533-1.0262-2.6487-5.68-4.2-3.4634-1.2224-7.6-2.955-7.6-8.2 0-5.1508 4.0386-8.32 10.2-8.32 3.7211 0 6.4107 0.94404 8.2 1.92l-1.8 4.92c-1.873-0.99727-3.8907-1.4678-6-1.52-2.9192 0-4.2 0.79833-4.2 2.52 0.24727 2.3866 2.8628 3.0035 4.8 3.68 5.9312 2.1967 8.52 4.0081 8.52 9.24 0 6.7588-5.9696 8.16-10.92 8.16-2.0763 0-6.0494-0.27394-9.28-2.12l1.76-4.96c2.3212 1.3162 4.8902 1.7066 7.52 1.76zm24.96 5.12c-3.9745 0-6.8192-0.28408-9.24-0.8v-26.88c2.835-0.53155 6.6089-0.72 8.44-0.72 5.7428 0 12.08 1.2536 12.08 7.8 0 2.2133-1.0667 3.96-3.2 5.24 3.0743 1.0716 4.4184 3.479 4.56 6.6 0 6.8145-5.901 8.76-12.64 8.76zm-3.16-12.44v7.16c0.98081 0.11539 2.0707 0.16 3.24 0.16 2.8306-6e-3 5.9596-0.46056 6.24-3.76 0-0.94028-0.0632-3.56-5.56-3.56zm0-4.76h3.04c3.4646 0 5.36-0.71411 5.36-3.12 0-1.4248-0.57021-3.04-5.04-3.04-1.1212 0.0106-2.2423 0.0329-3.36 0.12z" fill="#8f3f71" aria-label="OSBI"/>
  <path d="m102.82 196.36c-7.5976-1e-5 -13.801 5.1971-13.801 14.48 0 0.51971 0.0291 1.0157 0.0644 1.5059 0.63324-8.3412 6.5582-12.986 13.736-12.986 7.2174 0 13.128 4.48 13.738 13.008 0.0361-0.4973 0.0606-1.0035 0.0606-1.5274 0-9.489-6.175-14.48-13.799-14.48zm27.959 0c-6.1614 0-10.199 3.1696-10.199 8.3203 0 0.53725 0.0531 1.0293 0.13476 1.4961 0.72078-4.2529 4.5304-6.8164 10.064-6.8164 3.13 0 5.5211 0.67181 7.2695 1.4648l0.93164-2.5449c-1.7893-0.97596-4.4801-1.9199-8.2012-1.9199zm22.76 0.32031c-1.8311 0-5.6045 0.18915-8.4394 0.7207v3c2.835-0.53155 6.6084-0.7207 8.4394-0.7207 5.2302 0 10.938 1.0547 11.918 6.1855 0.1026-0.4405 0.16211-0.89937 0.16211-1.3848 0-6.5464-6.3373-7.8008-12.08-7.8008zm-26.002 8.9688c-0.37777 0.39228-0.55664 0.90625-0.55664 1.5508 0.24727 2.3866 2.8616 3.0052 4.7988 3.6816 5.275 1.9537 7.9022 3.6076 8.4199 7.6289 0.061-0.43816 0.10156-0.89682 0.10156-1.3906 0-5.2319-2.5903-7.0415-8.5215-9.2383-1.4676-0.51248-3.3206-0.99299-4.2422-2.2324zm31.682 0.63086c-0.70226 1.2015-2.4128 1.6016-4.998 1.6016h-3.041v3h3.041c3.4646 0 5.3594-0.7152 5.3594-3.1211 0-0.49682-0.0815-1.0139-0.36133-1.4805zm5.3047 4.5879c-0.51889 0.69752-1.2124 1.3188-2.1035 1.8535 2.6236 0.91445 3.9787 2.8059 4.4102 5.2793 0.0885-0.52786 0.15039-1.0779 0.15039-1.6797-0.10356-2.2828-0.86031-4.1773-2.457-5.4531zm-54.428 1.4707c-0.45368 4.2909-2.8946 7.4629-7.2754 7.4629-4.061 0-6.8033-2.7209-7.2793-7.4512-0.0483 0.47737-0.0801 0.96909-0.0801 1.4902 0 5.6626 2.8823 8.9609 7.3594 8.9609 4.8781 0 7.3594-3.928 7.3594-8.9609 0-0.51192-0.0318-1.0115-0.084-1.502zm50.209 5.2461c-0.93986 2.0437-3.5134 2.3719-5.8848 2.377-1.1693 0-2.2594-0.0448-3.2402-0.16016v3c0.98081 0.11539 2.071 0.16016 3.2402 0.16016 2.8306-6e-3 5.9598-0.46228 6.2402-3.7617 0-0.3676-0.0153-0.99116-0.35547-1.6152zm-38.445 0.61524-1.7598 4.9609c0.29385 0.16791 0.60014 0.30829 0.9043 0.45117l0.85547-2.4121c2.3212 1.3162 4.8917 1.7083 7.5215 1.7617 3.2335 0 4.4785-0.98258 4.4785-2.8809 0-0.5104-0.13355-0.97253-0.45704-1.4219-0.60826 0.8547-1.864 1.3027-4.0215 1.3027-2.6298-0.0534-5.2002-0.44556-7.5215-1.7617z" fill="#282828" opacity=".2"/>
  <path d="m190.44 99.256c1.6319 0.012 3.4596 0.13739 5.4328 0.46626l-0.74103 36.964c-3.3765 0.61734-6.7937 0.59166-10.167 0l-0.80828-36.964c1.389-0.1916 3.5636-0.4863 6.2834-0.46626zm-111.72 14.74c12.284 0 18.853 8.6493 18.853 20.603 0 10.448-5.1869 20.334-18.853 20.334-13.119 0-18.718-9.4022-18.718-20.334 0-11.215 5.9253-20.603 18.718-20.603zm41.273 0.0672c3.9579 0.0196 7.88 0.74924 11.581 2.1544-0.22506 2.7238-0.98421 5.349-2.1544 7.8112-4.3827-1.7043-6.221-1.8854-8.5506-1.8854-3.1418 0-5.386 0.87263-5.386 3.366 0.25569 3.6567 5.4352 4.0905 8.2146 4.9154 6.3863 1.8247 9.2914 5.0044 9.2914 11.379 0 8.5633-8.2302 13.336-17.103 13.197-4.8168 0-7.9781-0.74469-11.917-2.2217 0.18876-3.7739 2.0439-7.7715 2.2217-8.1472 4.8135 1.9254 7.7872 1.9527 9.3588 1.9527 2.6978 0 7.0698-0.89665 7.0698-4.2416 0-1.5683-0.29488-2.836-4.1071-4.0398l-4.9154-1.2789c-8.5947-2.4556-8.9554-7.5164-8.9554-10.707 0-7.7348 5.8278-12.254 15.351-12.254zm25.453 0.48379c1.7968-4e-3 3.593 0.14687 5.3846 0.45894v20.67c0 7.1568 1.7332 10.436 8.0798 10.436 1.8852 0 3.4344-0.20122 4.7136-0.53789v-30.568c3.5491-0.60217 7.159-0.61763 10.705 0v37.57c-3.989 1.3297-12.399 3.444-22.085 1.8168-11.589-1.9867-12.118-13.285-12.118-18.313v-21.075h-0.0673c1.7933-0.30023 3.5907-0.45599 5.3875-0.45895zm-66.725 7.8651c-5.5559 0-7.8763 4.5632-7.8763 12.187 0 11.832 5.6166 12.187 7.8763 12.187 2.9093 0 7.8778-0.87539 7.8778-12.187 0-11.306-4.9658-12.187-7.8778-12.187zm111.26 20.078c1.8565-3e-3 3.7124 0.14836 5.5526 0.45745 0.32566 2.2796 0.86801 6.249 0 11.11-3.6888 0.65662-7.4143 0.5036-11.108 0-0.6048-3.6845-0.61856-7.4283 0-11.11 1.8419-0.30123 3.6991-0.4555 5.5555-0.45745z" fill="#ebdbb2" opacity=".1" stroke-width=".67813" style="isolation:isolate"/>
  <path d="m190.44 94.256c1.6319 0.01201 3.4596 0.13739 5.4328 0.46626l-0.74103 36.964c-3.3765 0.61734-6.7937 0.59166-10.167 0l-0.80828-36.964c1.389-0.1916 3.5636-0.4863 6.2834-0.46626zm-111.72 14.74c12.284 0 18.853 8.6493 18.853 20.603 0 10.448-5.1869 20.334-18.853 20.334-13.119 0-18.718-9.4022-18.718-20.334 0-11.215 5.9253-20.603 18.718-20.603zm41.273 0.0672c3.9579 0.0196 7.88 0.74924 11.581 2.1544-0.22506 2.7238-0.98421 5.349-2.1544 7.8112-4.3827-1.7043-6.221-1.8854-8.5506-1.8854-3.1418 0-5.386 0.87263-5.386 3.366 0.25569 3.6567 5.4352 4.0905 8.2146 4.9154 6.3863 1.8247 9.2914 5.0044 9.2914 11.379 0 8.5633-8.2302 13.336-17.103 13.197-4.8168 0-7.9781-0.74469-11.917-2.2217 0.18876-3.7739 2.0439-7.7715 2.2217-8.1472 4.8135 1.9254 7.7872 1.9527 9.3588 1.9527 2.6978 0 7.0698-0.89665 7.0698-4.2416 0-1.5683-0.29488-2.836-4.1071-4.0398l-4.9154-1.2789c-8.5947-2.4556-8.9554-7.5164-8.9554-10.707 0-7.7348 5.8278-12.254 15.351-12.254zm25.453 0.48379c1.7968-4e-3 3.593 0.14687 5.3846 0.45894v20.67c0 7.1568 1.7332 10.436 8.0798 10.436 1.8852 0 3.4344-0.20122 4.7136-0.53789v-30.568c3.5491-0.60217 7.159-0.61763 10.705 0v37.57c-3.989 1.3297-12.399 3.444-22.085 1.8168-11.589-1.9867-12.118-13.285-12.118-18.313v-21.075h-0.0673c1.7933-0.30023 3.5907-0.45599 5.3875-0.45895zm-66.725 7.8651c-5.5559 0-7.8763 4.5632-7.8763 12.187 0 11.832 5.6166 12.187 7.8763 12.187 2.9093 0 7.8778-0.87539 7.8778-12.187 0-11.306-4.9658-12.187-7.8778-12.187zm111.26 20.078c1.8565-3e-3 3.7124 0.14836 5.5526 0.45745 0.32566 2.2796 0.86801 6.249 0 11.11-3.6888 0.65662-7.4143 0.5036-11.108 0-0.6048-3.6845-0.61856-7.4283 0-11.11 1.8419-0.30123 3.6991-0.4555 5.5555-0.45745z" fill="#8f3f71" stroke-width=".67813" style="isolation:isolate"/>
  <path d="m190.44 94.256c-2.7198-0.02004-4.8942 0.2752-6.2832 0.4668l0.10937 4.9863c1.392-0.19164 3.5103-0.47275 6.1738-0.45312 1.6034 0.01179 3.4003 0.13892 5.334 0.45508l0.0996-4.9883c-1.9732-0.32887-3.8017-0.45479-5.4336-0.4668zm-111.72 14.74c-12.792 0-18.717 9.387-18.717 20.602 0 0.84544 0.04542 1.6784 0.11328 2.502 0.83157-10.074 6.7764-18.104 18.604-18.104 11.398 0 17.867 7.4513 18.742 18.074 0.06712-0.81824 0.11133-1.6426 0.11133-2.4726 0-11.953-6.5695-20.602-18.854-20.602zm41.273 0.0664c-9.5237 0-15.352 4.5191-15.352 12.254 0 0.80763 0.0272 1.7361 0.20117 2.7109 1.0618-6.3238 6.6133-9.9648 15.15-9.9648 3.625 0.0179 7.2106 0.66109 10.633 1.8438 0.47762-1.5221 0.81476-3.0859 0.94726-4.6894-3.7005-1.4052-7.6222-2.1347-11.58-2.1543zm25.453 0.48242c-1.7968 3e-3 -3.5953 0.15876-5.3887 0.45899h0.0684v4.9922c1.7707-0.29281 3.5463-0.44825 5.3203-0.45117v2e-3c1.7968-4e-3 3.5932 0.14691 5.3848 0.45898v-5c-1.7916-0.31207-3.588-0.46299-5.3848-0.45898zm23.531 2e-3c-1.7894 2e-3 -3.579 0.15789-5.3535 0.45898v5c3.5491-0.60217 7.1591-0.61763 10.705 0v-5c-1.773-0.30882-3.5622-0.46092-5.3516-0.45898zm-52.145 13.461c-0.84475 0.53363-1.3496 1.3353-1.3496 2.502 0.25569 3.6567 5.4335 4.0892 8.2129 4.9141 5.3884 1.5396 8.2905 4.0532 9.0684 8.627 0.13261-0.72077 0.22461-1.4626 0.22461-2.248 0-6.3742-2.9067-9.5542-9.293-11.379-1.952-0.57933-5.0807-0.97064-6.8633-2.416zm33.998 7.668v5c0 7.1568 1.7315 10.436 8.0781 10.436 1.8852 0 3.4356-0.20044 4.7148-0.53711v-5c-1.2792 0.33667-2.8296 0.53711-4.7148 0.53711-6.3467 0-8.0781-3.2787-8.0781-10.436zm-79.885 1.4004c-0.06417 0.80124-0.10156 1.6352-0.10156 2.5215 0 11.832 5.6153 12.188 7.875 12.188 2.9093 0 7.8789-0.87615 7.8789-12.188 0-0.90625-0.04136-1.7228-0.10156-2.5-0.69063 8.9241-5.101 9.6875-7.7773 9.6875-2.0884 0-7.0341-0.32318-7.7734-9.709zm119.04 5.4141c-1.8565 2e-3 -3.7128 0.15581-5.5547 0.45704-0.44699 2.6605-0.55329 5.3536-0.35547 8.0332 0.0754-1.0138 0.18629-2.0263 0.35547-3.0332 1.8419-0.30123 3.6982-0.45509 5.5547-0.45704 1.8565-3e-3 3.7125 0.14795 5.5527 0.45704 0.12228 0.85593 0.25627 2.0146 0.35352 3.3047 0.29297-3.5715-0.0933-6.4834-0.35352-8.3047-1.8402-0.30909-3.6962-0.46004-5.5527-0.45704zm-83.793 2.1406c-0.17782 0.37567-2.0319 4.3745-2.2207 8.1484 0.31499 0.11812 0.60386 0.20179 0.91015 0.31054 0.57065-1.8464 1.2095-3.2456 1.3106-3.459 4.8135 1.9254 7.7878 1.9531 9.3594 1.9531 2.6978 0 7.0703-0.89723 7.0703-4.2422 0-0.95141-0.12207-1.7912-1.0586-2.5742-1.4639 1.3826-4.1393 1.8164-6.0117 1.8164-1.5715 0-4.5459-0.0277-9.3594-1.9531z" fill="#282828" opacity=".2" stroke-width=".67813" style="isolation:isolate"/>
  <path d="m57 15c-9.9393 0-17 7.0595-17 17v192c0 9.9393 7.0595 17 17 17h142c9.9405 0 17-7.0607 17-17v-144l-65-64.998zm4.0332 4.9902 89.967 2e-3 60 60.009v139.75c0 9.4999-6.6575 16.248-16.033 16.248h-133.93c-9.3757 0-16.033-6.7481-16.033-16.248v-183.51c0-9.501 6.6586-16.25 16.033-16.25z" fill="url(#linearGradient14-5-1)" style="paint-order:markers fill stroke"/>
  <path d="m151 15.002v52.914c0 9.6525 7.8639 17.084 17.518 17.084l47.482-1.34e-4v-5z" fill="#282828" opacity=".3" stroke-width="1.0833"/>
  <path d="m151 15v47.916c0 9.6525 7.8639 17.084 17.518 17.084l47.482-1.34e-4z" fill="url(#linearGradient7-6-0)" stroke-width="1.0833"/>
</svg>
