<svg width="256" height="256" fill="none" version="1.1" viewBox="0 0 256 256" xmlns="http://www.w3.org/2000/svg">
  <path d="m55.08 15h100.5l60.4 60.15 2e-3 148.9c0 8.911-7.262 16.13-16.17 16.13h-144.8c-8.91 0-16.08-7.174-16.08-16.08v-193c0-8.91 7.173-16.08 16.08-16.08h1e-4z" fill="#ebdbb2"/>
  <path d="m155.6 20.32h-100.5c-5.973 0-10.76 4.792-10.76 10.76v193c0 5.973 4.792 10.76 10.76 10.76h144.8c5.992 0 10.85-4.856 10.85-10.81v-148.9l-55.08-54.83zm0-5.319h-100.5c-8.91 0-16.08 7.173-16.08 16.08v193c0 8.91 7.173 16.08 16.08 16.08h144.8c8.911 0 16.17-7.218 16.17-16.13l-2e-3 -148.9-60.4-60.15z" clip-rule="evenodd" fill="url(#paint0_linear)" fill-rule="evenodd"/>
  <path d="m87.82 69.5s7.473 24.08 2.912 39.52c-4.562 15.44-27.73 32.82-27.73 32.82s30.29 1.648 41.78 8.997c11.5 7.348 23.19 35.66 23.19 35.66s15.53-31.2 22.02-35.66c6.496-4.466 43-9.039 43-9.039s-26.69-25.12-28.96-32.13 4.155-40.15 4.155-40.15-24.02 16.23-40.9 16.23c-16.87 0-39.48-16.25-39.48-16.25zm58.58 30.32c-0.374 4.483-1.28 7.677 1.151 15.18 2.7 8.341 5.458 9.961 8.726 13.83 0.398 0.472 0.891 0.939 1.303 1.414-0.727 0.166-1.515 0.275-2.226 0.448-4.996 1.218-8.443 1.229-15.18 5.857s-8.001 7.949-10.78 12.12c-0.357 0.536-0.669 1.144-1.024 1.693-3.46-5.059-7.748-9.978-14.25-14.13-5.018-3.208-10-4.979-14.9-6.357 3.26-4.554 6.268-9.63 8.134-15.94 1.451-4.909 1.646-9.486 1.82-14.01 5.467 1.806 11.44 3.165 18.13 3.165 7.013 0 13.36-1.347 19.1-3.267z" clip-rule="evenodd" fill="url(#paint1_linear)" fill-rule="evenodd"/>
  <path d="m155.6 17v44.23c0 8.91 7.259 15.93 16.17 15.93l44.23-0.0112v-2l-60.4-58.15z" fill="#282828" opacity=".25"/>
  <path d="m155.6 15v44.23c0 8.91 7.259 15.93 16.17 15.93l44.23-0.0112-60.4-60.15z" fill="url(#paint2_linear)"/>
  <defs>
    <linearGradient id="paint0_linear" x1="39" x2="39" y1="15" y2="240.2" gradientUnits="userSpaceOnUse">
      <stop stop-color="#fb4934" offset="1e-7"/>
      <stop stop-color="#cc241d" offset="1"/>
    </linearGradient>
    <linearGradient id="paint1_linear" x1="63" x2="63" y1="69.5" y2="186.5" gradientUnits="userSpaceOnUse">
      <stop stop-color="#fb4934" offset="1e-7"/>
      <stop stop-color="#cc241d" offset="1"/>
    </linearGradient>
    <linearGradient id="paint2_linear" x1="155.6" x2="155.6" y1="15" y2="75.16" gradientUnits="userSpaceOnUse">
      <stop stop-color="#fb4934" offset="1e-7"/>
      <stop stop-color="#cc241d" offset="1"/>
    </linearGradient>
  </defs>
</svg>
