<svg width="256" height="256" version="1.1" viewBox="0 0 256 256" xmlns="http://www.w3.org/2000/svg">
  <defs>
    <linearGradient id="linearGradient26" x1="-160" x2="-160" y2="226" gradientTransform="translate(267,15)" gradientUnits="userSpaceOnUse">
      <stop stop-color="#a89984" offset="0"/>
      <stop stop-color="#7c6f64" offset="1"/>
    </linearGradient>
    <linearGradient id="linearGradient7-6-0" x1="186" x2="156" y1="45.006" y2="75.012" gradientTransform="matrix(1.0833 0 0 1.0833 -17.999 -1.2512)" gradientUnits="userSpaceOnUse">
      <stop stop-color="#bdae93" offset="0"/>
      <stop stop-color="#928374" offset=".3027"/>
      <stop stop-color="#665c54" offset="1"/>
    </linearGradient>
    <linearGradient id="linearGradient14-5" x1="128" x2="128" y1="15.001" y2="241" gradientTransform="translate(0,4.8e-4)" gradientUnits="userSpaceOnUse">
      <stop stop-color="#ebdbb2" stop-opacity=".1" offset="0"/>
      <stop stop-color="#ebdbb2" stop-opacity=".05" offset=".2"/>
      <stop stop-opacity="0" offset=".70405"/>
      <stop stop-opacity=".1" offset=".80473"/>
      <stop stop-opacity=".15" offset="1"/>
    </linearGradient>
  </defs>
  <path d="m57 15c-9.9393 0-17 7.0595-17 17v192c0 9.9393 7.0595 17 17 17h142c9.9405 0 17-7.0607 17-17v-144l-64.999-64.999z" fill="url(#linearGradient26)" stroke-linecap="round" stroke-linejoin="round" stroke-miterlimit="0" style="paint-order:markers fill stroke"/>
  <path d="m128 78.529c32.132 0 58 46.339 58 78.471 0 32.132-25.868 58-58 58-32.132 0-58-25.868-58-58 0-32.132 25.868-78.471 58-78.471z" fill="#282828" opacity=".2" stroke-width="3.4118"/>
  <path d="m128 73.529c32.132 0 58 46.339 58 78.471 0 32.132-25.868 58-58 58-32.132 0-58-25.868-58-58 0-32.132 25.868-78.471 58-78.471z" fill="#ebdbb2" stroke-width="3.4118"/>
  <path d="m128 73.529c-32.132-1e-6 -58 46.339-58 78.471 0 0.83054 0.02632 1.6547 0.06055 2.4766 1.2892-31.978 26.637-75.947 57.939-75.947 31.302 0 56.648 43.97 57.938 75.947 0.0342-0.82183 0.0625-1.646 0.0625-2.4766 0-32.132-25.868-78.471-58-78.471z" fill="#fbf1c7" opacity=".6" stroke-width="3.4118"/>
  <path d="m158.22 91.009c-9.6065 1.8634-16.55 10.266-16.572 20.051 0 11.306 9.165 20.471 20.471 20.471 6.5341-0.0153 13.894-4.3412 17.794-9.6651-1.0337-2.7247-2.1835-5.4281-3.4489-8.0844-4.902-8.6498-11.509-16.224-18.243-22.772zm-71.16 13.228c-0.06218 4e-3 -0.12555 9e-3 -0.18774 0.014-3.4797 5.1953-7.061 10.455-10.11 15.877-2.4391 6.1056-4.2735 12.338-5.412 18.392 4.1268 3.6011 10.673 6.6478 15.71 6.659 11.306 0 20.471-9.165 20.471-20.471 0-11.306-9.165-20.471-20.471-20.471zm61.412 40.941c-11.306 0-20.471 9.165-20.471 20.471s9.165 20.471 20.471 20.471c11.306 0 20.471-9.165 20.471-20.471s-9.165-20.471-20.471-20.471zm-68.235 13.647c-3.3188 0.0176-6.5771 0.84922-9.5029 2.4059 2.258 14.229 9.6494 26.704 20.236 35.474 5.989-3.6881 9.7321-10.247 9.737-17.409 0-11.306-9.165-20.471-20.471-20.471z" fill="#282828" opacity=".1" stroke-width="3.4118"/>
  <circle cx="148.47" cy="162.24" r="20.471" fill="#fb4934" stroke-width="3.4118"/>
  <path d="m80.235 155.41a20.471 20.471 0 0 0-9.9221 2.6254c1.4792 14.42 8.2027 27.237 18.238 36.537a20.471 20.471 0 0 0 12.154-18.691 20.471 20.471 0 0 0-20.471-20.471z" fill="#fabd2f" stroke-width="3.4118"/>
  <path d="m87.059 100.82a20.471 20.471 0 0 0-0.18662 0.0136c-6.9752 10.414-12.153 22.599-14.827 34.324a20.471 20.471 0 0 0 15.013 6.6033 20.471 20.471 0 0 0 20.471-20.471 20.471 20.471 0 0 0-20.471-20.471z" fill="#83a598" stroke-width="3.4118"/>
  <path d="m158.22 87.596a20.471 20.471 0 0 0-16.572 20.051 20.471 20.471 0 0 0 20.471 20.471 20.471 20.471 0 0 0 16.786-8.8226c-4.8786-11.921-12.025-23.28-20.684-31.699z" fill="#689d6a" stroke-width="3.4118"/>
  <path d="m57 15c-9.9393 0-17 7.0595-17 17v192c0 9.9393 7.0595 17 17 17h142c9.9405 0 17-7.0607 17-17v-144l-65-64.998zm4.0332 4.9902 89.967 2e-3 60 60.009v139.75c0 9.4999-6.6575 16.248-16.033 16.248h-133.93c-9.3757 0-16.033-6.7481-16.033-16.248v-183.51c0-9.501 6.6586-16.25 16.033-16.25z" fill="url(#linearGradient14-5)" style="paint-order:markers fill stroke"/>
  <path d="m151 15.002v52.914c0 9.6525 7.8639 17.084 17.518 17.084l47.482-1.34e-4v-5z" fill="#282828" opacity=".3" stroke-width="1.0833"/>
  <path d="m151 15v47.916c0 9.6525 7.8639 17.082 17.518 17.082l47.482 0.0019z" fill="url(#linearGradient7-6-0)" stroke-width="1.0833"/>
</svg>
