<svg width="256" height="256" version="1.1" viewBox="0 0 256 256" xmlns="http://www.w3.org/2000/svg">
  <defs>
    <linearGradient id="linearGradient21" x1="128" x2="128" y1="15" y2="241" gradientTransform="translate(-9.75e-4,-9.75e-4)" gradientUnits="userSpaceOnUse">
      <stop stop-color="#ebdbb2" offset="0"/>
      <stop stop-color="#d5c4a1" offset="1"/>
    </linearGradient>
    <linearGradient id="linearGradient7-6-0-8" x1="186" x2="156" y1="45.006" y2="75.012" gradientTransform="matrix(1.0833,0,0,1.0833,-17.997,-1.2516)" gradientUnits="userSpaceOnUse">
      <stop stop-color="#fb4934" offset="0"/>
      <stop stop-color="#cc241d" offset=".3027"/>
      <stop stop-color="#9d0006" offset="1"/>
    </linearGradient>
    <linearGradient id="linearGradient14-4-1" x1="128" x2="128" y1="15.001" y2="241" gradientTransform="translate(0,4.8e-4)" gradientUnits="userSpaceOnUse">
      <stop stop-color="#9d0006" stop-opacity=".097113" offset="0"/>
      <stop stop-color="#9d0006" stop-opacity=".048556" offset=".2"/>
      <stop stop-color="#9d0006" stop-opacity=".051181" offset=".70405"/>
      <stop stop-color="#282828" stop-opacity=".053806" offset=".80473"/>
      <stop stop-color="#282828" stop-opacity=".10367" offset="1"/>
    </linearGradient>
  </defs>
  <path d="m56.999 14.999c-9.9393 0-17 7.0595-17 17v149h176v-101l-64.998-64.998z" fill="url(#linearGradient21)" style="paint-order:markers fill stroke"/>
  <path d="m57 241c-9.9393 0-17-7.0595-17-17v-43h176v43c0 9.9405-7.0607 17-17 17z" fill="#fb4934" stroke-linecap="round" stroke-linejoin="round" stroke-miterlimit="0" style="paint-order:markers fill stroke"/>
  <path d="m67.24 204.8c-6.2421 0-8.24 3.9646-8.24 9.04 0 4.9582 2.1987 9.08 7.68 9.08 1.7593 0 2.5214-0.0803 3.08-0.2v-9.64h6.24v13.72c-3.5405 1.3909-8.9813 1.44-9.72 1.44-7.9578 0-13.76-4.8354-13.76-14.4 0-9.3096 6.2351-14.48 13.88-14.48 4.3252 0 7.7259 1.1987 9.2 2.12l-1.8 5c-0.98137-0.52135-3.5054-1.68-6.56-1.68zm22.12 18.16c3.2348 0 4.48-0.9826 4.48-2.88 0-1.5331-1.0263-2.6488-5.68-4.2-3.4634-1.2224-7.6-2.955-7.6-8.2 0-5.1508 4.0386-8.32 10.2-8.32 3.7211 0 6.4107 0.94404 8.2 1.92l-1.8 4.92c-1.873-0.99727-3.8907-1.4678-6-1.52-2.9192 0-4.2 0.79833-4.2 2.52 0.24727 2.3866 2.8628 3.0035 4.8 3.68 5.9312 2.1967 8.52 4.0082 8.52 9.24 0 6.7588-5.9696 8.16-10.92 8.16-2.0764 0-6.0493-0.27394-9.28-2.12l1.76-4.96c2.3212 1.3162 4.8902 1.7066 7.52 1.76zm32.44-22.96h6.24v27.72h-6.24v-11.76h-10.48v11.76h-6.24v-27.72h6.24v10.6h10.48zm12.64 27.72v-27.72h18.72v5.24h-12.48v5.44h11.08v5.12h-11.08v6.68h13.4v5.24zm24.24 0v-27.72h18.72v5.24h-12.48v5.44h11.08v5.12h-11.08v6.68h13.4v5.24zm44.8-27.72v5.32h-8.36v22.4h-6.24v-22.4h-8.36v-5.32z" fill="#282828" opacity=".2" aria-label="GSHEET"/>
  <path d="m67.24 201.8c-6.2421 0-8.24 3.9646-8.24 9.04 0 4.9582 2.1987 9.08 7.68 9.08 1.7593 0 2.5214-0.0803 3.08-0.2v-9.64h6.24v13.72c-3.5405 1.3909-8.9813 1.44-9.72 1.44-7.9578 0-13.76-4.8354-13.76-14.4 0-9.3096 6.2351-14.48 13.88-14.48 4.3252 0 7.7259 1.1987 9.2 2.12l-1.8 5c-0.98137-0.52135-3.5054-1.68-6.56-1.68zm22.12 18.16c3.2348 0 4.48-0.9826 4.48-2.88 0-1.5331-1.0263-2.6488-5.68-4.2-3.4634-1.2224-7.6-2.955-7.6-8.2 0-5.1508 4.0386-8.32 10.2-8.32 3.7211 0 6.4107 0.94404 8.2 1.92l-1.8 4.92c-1.873-0.99727-3.8907-1.4678-6-1.52-2.9192 0-4.2 0.79833-4.2 2.52 0.24727 2.3866 2.8628 3.0035 4.8 3.68 5.9312 2.1967 8.52 4.0082 8.52 9.24 0 6.7588-5.9696 8.16-10.92 8.16-2.0764 0-6.0493-0.27394-9.28-2.12l1.76-4.96c2.3212 1.3162 4.8902 1.7066 7.52 1.76zm32.44-22.96h6.24v27.72h-6.24v-11.76h-10.48v11.76h-6.24v-27.72h6.24v10.6h10.48zm12.64 27.72v-27.72h18.72v5.24h-12.48v5.44h11.08v5.12h-11.08v6.68h13.4v5.24zm24.24 0v-27.72h18.72v5.24h-12.48v5.44h11.08v5.12h-11.08v6.68h13.4v5.24zm44.8-27.72v5.32h-8.36v22.4h-6.24v-22.4h-8.36v-5.32z" fill="#ebdbb2" aria-label="GSHEET"/>
  <path d="m66.4 196.36c-7.6449 0-13.881 5.1709-13.881 14.48 0 0.53599 0.02475 1.0523 0.06055 1.5586 0.61388-8.3966 6.5812-13.039 13.82-13.039 3.6426 0 6.5506 0.84733 8.2832 1.666l0.91602-2.5449c-1.4741-0.92131-4.874-2.1211-9.1992-2.1211zm24.359 0c-6.1614 0-10.199 3.1696-10.199 8.3203 0 0.53725 0.05313 1.0293 0.13476 1.4961 0.72078-4.2529 4.5304-6.8164 10.064-6.8164 3.1455 0 5.5131 0.68226 7.2637 1.4805l0.93555-2.5605c-1.7893-0.97596-4.4781-1.9199-8.1992-1.9199zm14.32 0.64062v3h6.2402v-3zm16.721 0v3h6.2383v-3zm12.639 0v3h18.721v-3zm24.24 0v3h18.721v-3zm21.84 0v3h22.961v-3zm-93.002 8.6484c-0.37777 0.39228-0.55859 0.90625-0.55859 1.5508 0.24727 2.3866 2.8636 3.0052 4.8008 3.6816 5.2843 1.9571 7.901 3.6234 8.4121 7.6602 0.064-0.44761 0.10742-0.91588 0.10742-1.4219 0-5.2318-2.5883-7.0415-8.5195-9.2383-1.4672-0.51234-3.3204-0.99375-4.2422-2.2324zm23.803 1.9512v3h10.48v-3zm29.359 0.0801v3h11.08v-3zm24.24 0v3h11.08v-3zm-95.16 2.4004v3h6.2402v-3zm-10.676 2.1894c-0.0479 0.5112-0.08398 1.0305-0.08398 1.5703 0 4.9582 2.1984 9.0801 7.6797 9.0801 1.7593 0 2.5215-0.0795 3.0801-0.19922v-3c-0.55857 0.1197-1.3208 0.19922-3.0801 0.19922-4.9414 0-7.1958-3.3578-7.5957-7.6504zm22.756 5.9297-1.7598 4.9609c0.29448 0.16827 0.59948 0.30999 0.9043 0.45312l0.85547-2.4141c2.3212 1.3162 4.8898 1.7083 7.5195 1.7617 3.2348 0 4.4805-0.98346 4.4805-2.8809 0-0.5104-0.13354-0.97253-0.45703-1.4219-0.60823 0.85411-1.8659 1.3027-4.0234 1.3027-2.6298-0.0534-5.1983-0.44556-7.5195-1.7617zm58.84 1.2812v3h13.4v-3zm24.24 0v3h13.4v-3z" fill="#fbf1c7" opacity=".6"/>
  <path d="m70 60v100h116v-100zm10 10h30v20h-30zm40 0h56v20h-56zm-40 30h30v20h-30zm40 0h56v20h-56zm-40 30h30v20h-30zm40 0h56v20h-56z" fill="#ebdbb2" opacity=".6" style="paint-order:markers fill stroke"/>
  <path d="m70 55v100h116v-100zm10 10h30v20h-30zm40 0h56v20h-56zm-40 30h30v20h-30zm40 0h56v20h-56zm-40 30h30v20h-30zm40 0h56v20h-56z" fill="#fb4934" style="paint-order:markers fill stroke"/>
  <path d="m70 55v5h116v-5zm10 30v5h30v-5zm40 0v5h56v-5zm-40 30v5h30v-5zm40 0v5h56v-5zm-40 30v5h30v-5zm40 0v5h56v-5z" fill="#282828" opacity=".2" style="paint-order:markers fill stroke"/>
  <path d="m57 15c-9.9393 0-17 7.0595-17 17v192c0 9.9393 7.0595 17 17 17h142c9.9405 0 17-7.0607 17-17v-144l-65-65zm4.0332 4.9902 89.967 0.01 60 60 2e-4 139.75c1e-5 9.4999-6.6575 16.248-16.033 16.248h-133.93c-9.3757 0-16.033-6.7481-16.033-16.248v-183.51c0-9.501 6.6586-16.25 16.033-16.25z" fill="url(#linearGradient14-4-1)" style="paint-order:markers fill stroke"/>
  <path d="m151 15.002v52.914c0 9.6525 7.8639 17.084 17.518 17.084l47.482-1.34e-4v-5z" fill="#282828" opacity=".2" stroke-width="1.0833"/>
  <path d="m151 15v47.916c0 9.6525 7.8639 17.084 17.518 17.084l47.482-1.34e-4z" fill="url(#linearGradient7-6-0-8)" stroke-width="1.0833"/>
</svg>
