<svg width="256" height="256" fill="none" version="1.1" viewBox="0 0 256 256" xmlns="http://www.w3.org/2000/svg">
  <path d="m57 15c-9.9393 0-17 7.0595-17 17v192c0 9.9393 7.0595 17 17 17h142c9.9405 0 17-7.0607 17-17v-192c0-9.9405-7.0607-17-17-17z" fill="url(#linearGradient26)" stroke-linecap="round" stroke-linejoin="round" stroke-miterlimit="0" style="paint-order:markers fill stroke"/>
  <path transform="translate(0,-2)" d="m53 175h52v32h-52z" fill="#ebdbb2"/>
  <path transform="translate(0,-2)" d="m57.01 183v16h7.998v-16zm12 0v16h3.999v-16zm7.998 0v16h8.001v-16zm12 0v16h4.003v-16zm8.001 0v16h3.999v-16z" fill="#665c54"/>
  <path transform="translate(0,-2)" d="m150 177v3.999h48v-3.999zm0 7.997v4.003h40v-4.003zm0 8.002v3.999h48v-3.999zm0 8.001v3.999h32v-3.999z" fill="#ebdbb2" opacity=".5"/>
  <defs>
    <linearGradient id="linearGradient26" x1="-160" x2="-160" y2="226" gradientTransform="translate(267,15)" gradientUnits="userSpaceOnUse">
      <stop stop-color="#fabd2f" offset="0"/>
      <stop stop-color="#fabd2f" offset="1"/>
    </linearGradient>
    <linearGradient id="linearGradient30" x1="119" x2="137" y1="127" y2="127" gradientUnits="userSpaceOnUse">
      <stop stop-color="#a89984" offset="0"/>
      <stop stop-color="#ebdbb2" offset=".096045"/>
      <stop stop-color="#a89984" offset=".19915"/>
      <stop stop-color="#a89984" offset=".7959"/>
      <stop stop-color="#ebdbb2" offset=".89795"/>
      <stop stop-color="#a89984" offset="1"/>
    </linearGradient>
    <linearGradient id="linearGradient23" x1="128" x2="128" y1="15" y2="241" gradientTransform="translate(-1.1e-4)" gradientUnits="userSpaceOnUse">
      <stop stop-color="#ebdbb2" stop-opacity=".2" offset="0"/>
      <stop stop-color="#ebdbb2" stop-opacity=".1" offset=".2"/>
      <stop stop-opacity="0" offset=".75"/>
      <stop stop-opacity=".05098" offset=".9"/>
      <stop stop-opacity=".10196" offset="1"/>
    </linearGradient>
  </defs>
  <path d="m128 137h-4l1 95h3z" fill="#7c6f64"/>
  <path d="m128 124v4h-9v9h9v7h-9l2 4 7 2v4h-9v9h9v4h-9v9h9v4h-9v9h9v4h-9v9h9v4h-9v9h9v4h-9v9h9v4h-9v9h9v-3h4l4e-3 -1h4.996v-9h-4.9688l0.0137-4h4.955v-9h-4.9258l0.0117-4h4.9141v-9h-4.8848l0.0137-4h4.8711v-9h-4.8438l0.0137-4h4.83v-9h-4.8008l0.0117-4h4.7891v-9h-4.7598l0.0137-4h4.7461v-9h-4.7188l0.0137-4h4.705v-9h-4.6758l0.0117-4h4.6641v-9h-4.6348z" fill="#ebdbb2"/>
  <path d="m119 134v3h9v-3zm9 9v3h9v-3zm0 13v3h9v-3zm-9 4v3h9v-3zm9 9v3h9v-3zm-9 4v3h9v-3zm9 9v3h9v-3zm-9 4v3h9v-3zm9 9v3h9v-3zm-9 4v3h9v-3zm9 9v3h9v-3zm-9 4v3h9v-3zm9 9v3h9v-3zm-9 4v3h9v-3zm9 9v3h9v-3zm-9 4v3h9v-3z" fill="#282828" opacity=".4" style="paint-order:markers fill stroke"/>
  <path d="m120 93.971c-4.986 0-9 4.014-9 9v21.029c0 4.6472 3.489 8.4461 8 8.9414v17.059c0 2.77 2.23 5 5 5h8c2.77 0 5-2.23 5-5v-17.059c4.511-0.49532 8-4.2942 8-8.9414v-21.029c0-4.986-4.014-9-9-9zm3 44.029h10v13h-10z" fill="#282828" opacity=".2" style="paint-order:markers fill stroke"/>
  <path d="m120 90.97h16c4.986 0 9 4.014 9 9v21.03c0 4.986-4.014 9-9 9h-16c-4.986 0-9-4.014-9-9v-21.03c0-4.986 4.014-9 9-9z" fill="#504945" style="paint-order:markers fill stroke"/>
  <path d="m120 85.97h16c4.986 0 9 4.014 9 9v21.03c0 4.986-4.014 9-9 9h-16c-4.986 0-9-4.014-9-9v-21.03c0-4.986 4.014-9 9-9z" fill="#665c54" style="paint-order:markers fill stroke"/>
  <rect x="124" y="90" width="8" height="18" ry="4" fill="#a89984" style="paint-order:markers fill stroke"/>
  <path d="m124 103c-2.77 0-5 2.23-5 5v38c0 2.77 2.23 5 5 5h8c2.77 0 5-2.23 5-5v-38c0-2.77-2.23-5-5-5v10c0 2.216-1.784 4-4 4s-4-1.784-4-4zm-1 31h10v12h-10z" fill="url(#linearGradient30)" style="paint-order:markers fill stroke"/>
  <path d="m124 99c-2.77 0-5 2.23-5 5v38c0 2.77 2.23 5 5 5h8c2.77 0 5-2.23 5-5v-38c0-2.77-2.23-5-5-5v10c0 2.216-1.784 4-4 4s-4-1.784-4-4zm-1 31h10v13h-10z" fill="#ebdbb2" style="paint-order:markers fill stroke"/>
  <path d="m57 15c-9.9393 0-17 7.0595-17 17v43h176v-43c0-9.9405-7.0607-17-17-17z" fill="#b57614" opacity=".3" stroke-linecap="round" stroke-linejoin="round" stroke-miterlimit="0" style="paint-order:markers fill stroke"/>
  <path d="m124.66 34.961c-1.7329 0-5 0.10715-8.1191 0.71875v27.32h6.2402v-10.119h3.0801c1.1084 1.33 2.3535 2.9507 6.3594 10.119h7c-0.3731-0.788-3.3279-6.9239-6.8789-11.32 4.7111-1.9443 5.1992-5.4101 5.1992-7.5996 0-6.9522-5.7324-9.1191-12.881-9.1191zm-60.639 0.31836v5.3203h8.3594v22.4h6.2402v-22.4h8.3594v-5.3203zm31.92 0c-4.2273 8.696-7.9889 18.956-11.041 27.721h6.4805c0.6282-2.0182 1.3306-4.0095 2.041-6h10.799c0.6838 1.9988 1.3977 3.9879 2.041 6h6.6797c-4.1773-11.996-7.3969-20.004-11.041-27.721zm45.68 0 8.9199 13.361c-3.8651 5.3682-6.8276 9.7741-9.3184 14.359h7.1191c0.3678-0.7765 3.4213-6.3982 5.8809-9.5606 2.6397 3.6369 4.7673 7.6576 5.7188 9.5606h7.4805c-3.272-6.2465-7.2085-11.643-9.2402-14.279l8.8008-13.441h-7.1211l-5.2793 8.6406-5.4004-8.6406zm29.201 0v5.2402h12.439c-5.8942 7.103-11.132 15.211-13.08 18.76v3.7207h21.801v-5.2402h-14.121c3.9324-6.554 10.44-14.82 13.68-18.16v-4.3203zm-45.801 5c5.623 0 6.0801 2.3191 6.0801 3.7598 0 2.7019-1.7207 3.8809-6.5606 3.8809h-1.7598v-7.5195c0.7454-0.0601 1.4914-0.13089 2.2402-0.12109zm-26.24 1.2812c2.097 5.2426 3.886 10.273 3.959 10.479h-7.8789c2.2702-6.3848 3.2038-8.3303 3.9199-10.479z" fill="#ebdbb2" opacity=".2"/>
  <path d="m124.66 31.961c-1.7329 0-5 0.10715-8.1191 0.71875v27.32h6.2402v-10.119h3.0801c1.1084 1.33 2.3535 2.9507 6.3594 10.119h7c-0.3731-0.788-3.3279-6.9239-6.8789-11.32 4.7111-1.9443 5.1992-5.4101 5.1992-7.5996 0-6.9522-5.7324-9.1191-12.881-9.1191zm-60.639 0.31836v5.3203h8.3594v22.4h6.2402v-22.4h8.3594v-5.3203zm31.92 0c-4.2273 8.696-7.9889 18.956-11.041 27.721h6.4805c0.6282-2.0182 1.3306-4.0095 2.041-6h10.799c0.6838 1.9988 1.3977 3.9879 2.041 6h6.6797c-4.1773-11.996-7.3969-20.004-11.041-27.721zm45.68 0 8.9199 13.361c-3.8651 5.3682-6.8276 9.7741-9.3184 14.359h7.1191c0.3678-0.7765 3.4213-6.3982 5.8809-9.5606 2.6397 3.6369 4.7673 7.6576 5.7188 9.5606h7.4805c-3.272-6.2465-7.2085-11.643-9.2402-14.279l8.8008-13.441h-7.1211l-5.2793 8.6406-5.4004-8.6406zm29.201 0v5.2402h12.439c-5.8942 7.103-11.132 15.211-13.08 18.76v3.7207h21.801v-5.2402h-14.121c3.9324-6.554 10.44-14.82 13.68-18.16v-4.3203zm-45.801 5c5.623 0 6.0801 2.3191 6.0801 3.7598 0 2.7019-1.7207 3.8809-6.5606 3.8809h-1.7598v-7.5195c0.7454-0.0601 1.4914-0.13089 2.2402-0.12109zm-26.24 1.2812c2.097 5.2426 3.886 10.273 3.959 10.479h-7.8789c2.2702-6.3848 3.2038-8.3303 3.9199-10.479z" fill="#b57614"/>
  <path d="m124.66 31.961c-1.7329 0-5 0.10715-8.1191 0.71875v3c3.1191-0.6116 6.3862-0.71875 8.1191-0.71875 6.6045-1e-6 11.989 1.8588 12.771 7.623 0.0747-0.5368 0.10937-1.0514 0.10937-1.5039 0-6.9522-5.7324-9.1191-12.881-9.1191zm-60.639 0.31836v3h22.959v-3zm31.92 0c-4.2273 8.696-7.9889 18.956-11.041 27.721h1.0664c2.8523-8.0593 6.2131-16.983 9.9746-24.721h5.959c3.3151 7.0202 6.3137 14.436 9.9668 24.721h1.0742c-4.1773-11.996-7.3969-20.004-11.041-27.721zm45.68 0 2.002 3h5.5586l5.4004 8.6406 5.2793-8.6406h5.1562l1.9648-3h-7.1211l-5.2793 8.6406-5.4004-8.6406zm29.201 0v3h20.719v-3zm10.037 8.2402c-4.8758 6.2654-8.9997 12.703-10.678 15.76v3c1.9484-3.5489 7.1859-11.657 13.08-18.76zm-50.035 2.0625c-0.63946 1.605-2.5001 2.3379-6.2832 2.3379h-1.7598v3h1.7598c4.8398 0 6.5606-1.179 6.5606-3.8809 0-0.43533-0.064-0.94952-0.27734-1.457zm18.686 4.5137c-3.3505 4.7076-6.0309 8.7508-8.2871 12.904h1.7207c2.1227-3.5622 4.5793-7.1672 7.5976-11.359zm9.7188 0.02734-1.0469 1.5977c1.6967 2.2017 4.719 6.3403 7.5762 11.279h1.6641c-2.8066-5.358-6.0304-9.9752-8.1934-12.877zm-63.273 1.916c-0.33718 0.91078-0.67117 1.8115-1.0938 3h7.8789c-0.0327-0.0919-0.49921-1.3869-1.0938-3zm38 1.8203c-0.47402 0.29433-1.0076 0.57034-1.6133 0.82031 2.1862 2.7067 4.0611 5.9489 5.332 8.3203h1.5469c-0.31445-0.66413-2.4722-5.122-5.2656-9.1406zm45.811 3.9004c-0.67466 1.0218-1.3232 2.0316-1.9043 3h14.121v-3z" fill="#282828" opacity=".2"/>
  <path d="m57 15c-9.9393 0-17 7.0595-17 17v192c0 9.9393 7.0595 17 17 17h142c9.9405 0 17-7.0607 17-17v-192c0-9.9405-7.0607-17-17-17zm4.0332 5h133.93c9.3746 0 16.033 6.7474 16.033 16.248v183.5c0 9.4995-6.6575 16.248-16.033 16.248h-133.93c-9.3757 0-16.033-6.7486-16.033-16.248v-183.5c0-9.5007 6.6586-16.248 16.033-16.248z" fill="url(#linearGradient23)" style="paint-order:markers fill stroke"/>
</svg>
