<svg width="256" height="256" version="1.1" viewBox="0 0 256 256" xmlns="http://www.w3.org/2000/svg">
  <defs>
    <linearGradient id="linearGradient7-6-0" x1="186" x2="156" y1="45.006" y2="75.012" gradientTransform="matrix(1.0833 0 0 1.0833 -17.999 -1.2511)" gradientUnits="userSpaceOnUse">
      <stop stop-color="#8ec07c" offset="0"/>
      <stop stop-color="#689d6a" offset=".3027"/>
      <stop stop-color="#427b58" offset="1"/>
    </linearGradient>
    <linearGradient id="linearGradient14-5" x1="128" x2="128" y1="15.001" y2="241" gradientTransform="translate(0,4.8e-4)" gradientUnits="userSpaceOnUse">
      <stop stop-color="#ebdbb2" stop-opacity=".15" offset="0"/>
      <stop stop-color="#ebdbb2" stop-opacity=".05" offset=".2"/>
      <stop stop-opacity="0" offset=".70405"/>
      <stop stop-opacity=".05" offset=".80473"/>
      <stop stop-opacity=".1" offset="1"/>
    </linearGradient>
    <linearGradient id="linearGradient26" x1="-160" x2="-160" y2="226" gradientTransform="translate(267,15)" gradientUnits="userSpaceOnUse">
      <stop stop-color="#427b58" offset="0"/>
      <stop stop-color="#427b58" offset="1"/>
    </linearGradient>
  </defs>
  <path d="m57 15c-9.9393 0-17 7.0595-17 17v192c0 9.9393 7.0595 17 17 17h142c9.9405 0 17-7.0607 17-17v-144l-64.999-64.999z" fill="url(#linearGradient26)" stroke-linecap="round" stroke-linejoin="round" stroke-miterlimit="0" style="paint-order:markers fill stroke"/>
  <path d="m57 241c-9.9393 0-17-7.0595-17-17v-43h176v43c0 9.9405-7.0607 17-17 17z" fill="#8ec07c" opacity=".7" stroke-linecap="round" stroke-linejoin="round" stroke-miterlimit="0" style="paint-order:markers fill stroke"/>
  <path d="m96.78 222.64c0.79723 0.0981 1.5987 0.08 2.4 0.08 7.7941 0 9.2-5.1581 9.2-8.88 0-7.853-5.2303-8.84-9-8.84-0.86856 4e-3 -1.7356 0.0424-2.6 0.12zm18.04-8.8c0 12.439-10.106 14.24-15.96 14.24-0.88703 0-4.9869-0.041-8.32-0.72v-27c0.13451-0.0249 3.6911-0.68 8.52-0.68 7.5066 0 15.76 2.6232 15.76 14.16zm14.44 14.24c-3.9745 0-6.8192-0.28408-9.24-0.8v-26.88c2.835-0.53155 6.6089-0.72 8.44-0.72 5.7428 0 12.08 1.2536 12.08 7.8 0 2.2133-1.0667 3.96-3.2 5.24 3.0743 1.0716 4.4184 3.479 4.56 6.6 0 6.8145-5.901 8.76-12.64 8.76zm-3.16-12.44v7.16c0.98081 0.11539 2.0707 0.16 3.24 0.16 2.8306-6e-3 5.9596-0.46056 6.24-3.76 0-0.94028-0.0632-3.56-5.56-3.56zm0-4.76h3.04c3.4646 0 5.36-0.71411 5.36-3.12 0-1.4248-0.57021-3.04-5.04-3.04-1.1212 0.0106-2.2423 0.0329-3.36 0.12zm20.8 16.84v-27.72h18.56v5.24h-12.32v5.8h10.96v5.24h-10.96v11.44z" fill="#ebdbb2" opacity=".15" aria-label="DBF"/>
  <path d="m96.78 219.64c0.79723 0.0981 1.5987 0.08 2.4 0.08 7.7941 0 9.2-5.1581 9.2-8.88 0-7.853-5.2303-8.84-9-8.84-0.86856 4e-3 -1.7356 0.0424-2.6 0.12zm18.04-8.8c0 12.439-10.106 14.24-15.96 14.24-0.88703 0-4.9869-0.041-8.32-0.72v-27c0.13451-0.0249 3.6911-0.68 8.52-0.68 7.5066 0 15.76 2.6232 15.76 14.16zm14.44 14.24c-3.9745 0-6.8192-0.28408-9.24-0.8v-26.88c2.835-0.53155 6.6089-0.72 8.44-0.72 5.7428 0 12.08 1.2536 12.08 7.8 0 2.2133-1.0667 3.96-3.2 5.24 3.0743 1.0716 4.4184 3.479 4.56 6.6 0 6.8145-5.901 8.76-12.64 8.76zm-3.16-12.44v7.16c0.98081 0.11539 2.0707 0.16 3.24 0.16 2.8306-6e-3 5.9596-0.46056 6.24-3.76 0-0.94028-0.0632-3.56-5.56-3.56zm0-4.76h3.04c3.4646 0 5.36-0.71411 5.36-3.12 0-1.4248-0.57021-3.04-5.04-3.04-1.1212 0.0106-2.2423 0.0329-3.36 0.12zm20.8 16.84v-27.72h18.56v5.24h-12.32v5.8h10.96v5.24h-10.96v11.44z" fill="#427b58" aria-label="DBF"/>
  <path d="m99.061 196.68c-4.8289 0-8.387 0.65478-8.5215 0.67969v3c0.13451-0.0249 3.6926-0.67969 8.5215-0.67969 7.1636 0 15.001 2.3957 15.703 12.641 0.0335-0.47811 0.0566-0.96667 0.0566-1.4805 0-11.537-8.2532-14.16-15.76-14.16zm29.4 0c-1.8311 0-5.6065 0.18915-8.4414 0.7207v3c2.835-0.53155 6.6103-0.7207 8.4414-0.7207 5.2302 0 10.936 1.0547 11.916 6.1855 0.1026-0.4405 0.16211-0.89937 0.16211-1.3848 0-6.5464-6.3353-7.8008-12.078-7.8008zm18.439 0.32031v3h18.561v-3zm-12.762 9.2793c-0.70226 1.2015-2.4128 1.6016-4.998 1.6016h-3.041v3h3.041c3.4646 0 5.3594-0.7152 5.3594-3.1211 0-0.49682-0.0815-1.0139-0.36133-1.4805zm19.002 1.7598v3h10.959v-3zm-13.693 2.8223c-0.51929 0.69985-1.2139 1.3233-2.1074 1.8594 2.6236 0.91445 3.9787 2.8059 4.4102 5.2793 0.0885-0.52786 0.15039-1.0779 0.15039-1.6797-0.1036-2.2837-0.85512-4.1832-2.4531-5.459zm-31.146 1.4512c-0.38127 3.4754-2.3152 7.4082-9.1211 7.4082-0.80135 0-1.6032 0.018-2.4004-0.0801v3c0.79723 0.0981 1.599 0.0801 2.4004 0.0801 7.7941 0 9.2012-5.159 9.2012-8.8809 0-0.54411-0.0321-1.0472-0.0801-1.5273zm26.924 5.2715c-0.93986 2.0437-3.5134 2.3719-5.8848 2.377-1.1693 0-2.2594-0.0448-3.2402-0.16016v3c0.98081 0.11539 2.071 0.16016 3.2402 0.16016 2.8306-6e-3 5.9598-0.46228 6.2402-3.7617 0-0.3676-0.0153-0.99116-0.35547-1.6152z" fill="#282828" opacity=".2"/>
  <path d="m128 50c-28.029 0-53 8.3487-53 22.5v75c0 14.149 24.966 22.5 53 22.5 27.836 0 52.644-8.2367 52.984-22.211h0.01562v-75.289c0-14.149-24.966-22.5-53-22.5zm0 10c27.27 0 43 8.3196 43 12.5 0 4.1823-15.736 12.5-43 12.5-27.27 0-43-8.3196-43-12.5 0-4.1823 15.736-12.5 43-12.5zm-43 26.193c9.8385 5.6731 25.839 8.8066 43 8.8066 17.159 0 33.161-3.1331 43-8.8066v11.307c0 4.1823-15.736 12.5-43 12.5-27.27 0-43-8.3196-43-12.5zm0 25c9.8385 5.6731 25.839 8.8066 43 8.8066 17.159 0 33.161-3.1331 43-8.8066v11.307c0 4.1823-15.736 12.5-43 12.5-27.27 0-43-8.3196-43-12.5zm0 25c9.8385 5.6731 25.839 8.8066 43 8.8066 17.159 0 33.161-3.1331 43-8.8066v11.307c0 4.1823-15.736 12.5-43 12.5-27.27 0-43-8.3196-43-12.5z" fill="#282828" opacity=".2" stroke-linecap="round" stroke-linejoin="round" stroke-miterlimit="0" stroke-width="2.0059" style="paint-order:markers fill stroke"/>
  <path d="m128 45c-28.029 0-53 8.3487-53 22.5v75c0 14.149 24.966 22.5 53 22.5 27.836 0 52.644-8.2367 52.984-22.211h0.01562v-75.289c0-14.149-24.966-22.5-53-22.5zm0 10c27.27 0 43 8.3196 43 12.5 0 4.1823-15.736 12.5-43 12.5-27.27 0-43-8.3196-43-12.5 0-4.1823 15.736-12.5 43-12.5zm-43 26.193c9.8385 5.6731 25.839 8.8066 43 8.8066 17.159 0 33.161-3.1331 43-8.8066v11.307c0 4.1823-15.736 12.5-43 12.5-27.27 0-43-8.3196-43-12.5zm0 25c9.8385 5.6731 25.839 8.8066 43 8.8066 17.159 0 33.161-3.1331 43-8.8066v11.307c0 4.1823-15.736 12.5-43 12.5-27.27 0-43-8.3196-43-12.5zm0 25c9.8385 5.6731 25.839 8.8066 43 8.8066 17.159 0 33.161-3.1331 43-8.8066v11.307c0 4.1823-15.736 12.5-43 12.5-27.27 0-43-8.3196-43-12.5z" fill="#8ec07c" stroke-linecap="round" stroke-linejoin="round" stroke-miterlimit="0" stroke-width="2.0059" style="paint-order:markers fill stroke"/>
  <path d="m128 45c-28.029 0-53 8.3487-53 22.5v5c0-14.151 24.971-22.5 53-22.5 28.034 0 53 8.3506 53 22.5v-5c0-14.149-24.966-22.5-53-22.5zm-41.561 25c-0.93214 0.91335-1.4395 1.7717-1.4395 2.5 0 4.1804 15.73 12.5 43 12.5 27.264 0 43-8.3177 43-12.5 0-0.7284-0.50647-1.5862-1.4394-2.5-4.4207 4.3316-19.044 10-41.561 10-22.518 0-37.139-5.6692-41.561-10zm-1.4395 22.5v5c0 4.1804 15.73 12.5 43 12.5 27.264 0 43-8.3177 43-12.5v-5c0 4.1823-15.736 12.5-43 12.5-27.27 0-43-8.3196-43-12.5zm0 25v5c0 4.1804 15.73 12.5 43 12.5 27.264 0 43-8.3177 43-12.5v-5c0 4.1823-15.736 12.5-43 12.5-27.27 0-43-8.3196-43-12.5zm0 25v5c0 4.1804 15.73 12.5 43 12.5 27.264 0 43-8.3177 43-12.5v-5c0 4.1823-15.736 12.5-43 12.5-27.27 0-43-8.3196-43-12.5z" fill="#ebdbb2" opacity=".2" stroke-linecap="round" stroke-linejoin="round" stroke-miterlimit="0" stroke-width="2.0059" style="paint-order:markers fill stroke"/>
  <path d="m57 15c-9.9393 0-17 7.0595-17 17v192c0 9.9393 7.0595 17 17 17h142c9.9405 0 17-7.0607 17-17v-144l-65-64.998zm4.0332 4.9902 89.967 2e-3 60 60.009v139.75c0 9.4999-6.6575 16.248-16.033 16.248h-133.93c-9.3757 0-16.033-6.7481-16.033-16.248v-183.51c0-9.501 6.6586-16.25 16.033-16.25z" fill="url(#linearGradient14-5)" style="paint-order:markers fill stroke"/>
  <path d="m151 15.002v52.914c0 9.6525 7.8639 17.084 17.518 17.084l47.482-1.3e-4v-5z" fill="#282828" opacity=".3" stroke-width="1.0833"/>
  <path d="m151 15v47.916c0 9.6525 7.8639 17.084 17.518 17.084l47.482-1.3e-4z" fill="url(#linearGradient7-6-0)" stroke-width="1.0833"/>
</svg>
