<svg width="256" height="256" fill="none" version="1.1" viewBox="0 0 256 256" xmlns="http://www.w3.org/2000/svg">
  <path d="m57 15c-9.9393 0-17 7.0595-17 17v192c0 9.9393 7.0595 17 17 17h142c9.9405 0 17-7.0607 17-17v-192c0-9.9405-7.0607-17-17-17z" fill="url(#linearGradient26)" stroke-linecap="round" stroke-linejoin="round" stroke-miterlimit="0" style="paint-order:markers fill stroke"/>
  <path transform="translate(0,-2)" d="m53 175h52v32h-52z" fill="#ebdbb2"/>
  <path transform="translate(0,-2)" d="m57.01 183v16h7.998v-16zm12 0v16h3.999v-16zm7.998 0v16h8.001v-16zm12 0v16h4.003v-16zm8.001 0v16h3.999v-16z" fill="#665c54"/>
  <path transform="translate(0,-2)" d="m150 177v3.999h48v-3.999zm0 7.997v4.003h40v-4.003zm0 8.002v3.999h48v-3.999zm0 8.001v3.999h32v-3.999z" fill="#ebdbb2" opacity=".5"/>
  <defs>
    <linearGradient id="linearGradient26" x1="-160" x2="-160" y2="226" gradientTransform="translate(267,15)" gradientUnits="userSpaceOnUse">
      <stop stop-color="#b8bb26" offset="0"/>
      <stop stop-color="#b8bb26" offset="1"/>
    </linearGradient>
    <linearGradient id="linearGradient30" x1="119" x2="137" y1="127" y2="127" gradientUnits="userSpaceOnUse">
      <stop stop-color="#a89984" offset="0"/>
      <stop stop-color="#ebdbb2" offset=".096045"/>
      <stop stop-color="#a89984" offset=".19915"/>
      <stop stop-color="#a89984" offset=".7959"/>
      <stop stop-color="#ebdbb2" offset=".89795"/>
      <stop stop-color="#a89984" offset="1"/>
    </linearGradient>
    <linearGradient id="linearGradient23" x1="128" x2="128" y1="15" y2="241" gradientTransform="translate(-1.1e-4)" gradientUnits="userSpaceOnUse">
      <stop stop-color="#ebdbb2" stop-opacity=".15" offset="0"/>
      <stop stop-color="#ebdbb2" stop-opacity=".05" offset=".2"/>
      <stop stop-opacity="0" offset=".75"/>
      <stop stop-opacity=".05098" offset=".9"/>
      <stop stop-opacity=".10196" offset="1"/>
    </linearGradient>
  </defs>
  <path d="m128 137h-4l1 95h3z" fill="#7c6f64"/>
  <path d="m128 124v4h-9v9h9v7h-9l2 4 7 2v4h-9v9h9v4h-9v9h9v4h-9v9h9v4h-9v9h9v4h-9v9h9v4h-9v9h9v4h-9v9h9v-3h4l4e-3 -1h4.996v-9h-4.9688l0.0137-4h4.955v-9h-4.9258l0.0117-4h4.9141v-9h-4.8848l0.0137-4h4.8711v-9h-4.8438l0.0137-4h4.83v-9h-4.8008l0.0117-4h4.7891v-9h-4.7598l0.0137-4h4.7461v-9h-4.7188l0.0137-4h4.705v-9h-4.6758l0.0117-4h4.6641v-9h-4.6348z" fill="#ebdbb2"/>
  <path d="m119 134v3h9v-3zm9 9v3h9v-3zm0 13v3h9v-3zm-9 4v3h9v-3zm9 9v3h9v-3zm-9 4v3h9v-3zm9 9v3h9v-3zm-9 4v3h9v-3zm9 9v3h9v-3zm-9 4v3h9v-3zm9 9v3h9v-3zm-9 4v3h9v-3zm9 9v3h9v-3zm-9 4v3h9v-3zm9 9v3h9v-3zm-9 4v3h9v-3z" fill="#282828" opacity=".4" style="paint-order:markers fill stroke"/>
  <path d="m120 93.971c-4.986 0-9 4.014-9 9v21.029c0 4.6472 3.489 8.4461 8 8.9414v17.059c0 2.77 2.23 5 5 5h8c2.77 0 5-2.23 5-5v-17.059c4.511-0.49532 8-4.2942 8-8.9414v-21.029c0-4.986-4.014-9-9-9zm3 44.029h10v13h-10z" fill="#282828" opacity=".2" style="paint-order:markers fill stroke"/>
  <path d="m120 90.97h16c4.986 0 9 4.014 9 9v21.03c0 4.986-4.014 9-9 9h-16c-4.986 0-9-4.014-9-9v-21.03c0-4.986 4.014-9 9-9z" fill="#504945" style="paint-order:markers fill stroke"/>
  <path d="m120 85.97h16c4.986 0 9 4.014 9 9v21.03c0 4.986-4.014 9-9 9h-16c-4.986 0-9-4.014-9-9v-21.03c0-4.986 4.014-9 9-9z" fill="#665c54" style="paint-order:markers fill stroke"/>
  <rect x="124" y="90" width="8" height="18" ry="4" fill="#a89984" style="paint-order:markers fill stroke"/>
  <path d="m124 103c-2.77 0-5 2.23-5 5v38c0 2.77 2.23 5 5 5h8c2.77 0 5-2.23 5-5v-38c0-2.77-2.23-5-5-5v10c0 2.216-1.784 4-4 4s-4-1.784-4-4zm-1 31h10v12h-10z" fill="url(#linearGradient30)" style="paint-order:markers fill stroke"/>
  <path d="m124 99c-2.77 0-5 2.23-5 5v38c0 2.77 2.23 5 5 5h8c2.77 0 5-2.23 5-5v-38c0-2.77-2.23-5-5-5v10c0 2.216-1.784 4-4 4s-4-1.784-4-4zm-1 31h10v13h-10z" fill="#ebdbb2" style="paint-order:markers fill stroke"/>
  <path d="m57 15c-9.9393 0-17 7.0595-17 17v43h176v-43c0-9.9405-7.0607-17-17-17z" fill="#79740e" opacity=".3" stroke-linecap="round" stroke-linejoin="round" stroke-miterlimit="0" style="paint-order:markers fill stroke"/>
  <path d="m77.26 63.56c-7.3373 0-11.24-4.0343-11.24-11.04v-17.24h6.24v16.72c0 4.7482 2.2338 6.16 5.08 6.16 4.071 0 5.12-3.0332 5.12-6.16v-16.72h6.24v17.24c0 4.0123-1.4289 11.04-11.44 11.04zm25-5.32c3.2335 0 4.48-0.98172 4.48-2.88 0-1.5331-1.0262-2.6487-5.68-4.2-3.4634-1.2224-7.6-2.955-7.6-8.2 0-5.1507 4.0386-8.32 10.2-8.32 3.7211 0 6.4107 0.94404 8.2 1.92l-1.8 4.92c-1.873-0.99727-3.8907-1.4678-6-1.52-2.9192 0-4.2 0.79832-4.2 2.52 0.19285 2.3426 2.9057 3.0323 4.8 3.68 5.9312 2.1967 8.52 4.0081 8.52 9.24 0 6.7588-5.9696 8.16-10.92 8.16-1.871 0-5.9869-0.23822-9.28-2.12l1.76-4.96c2.3212 1.3162 4.8902 1.7066 7.52 1.76zm35.48-22.96v5.32h-8.36v22.4h-6.24v-22.4h-8.36v-5.32zm19.28 27.72c-0.64332-2.0121-1.3562-4.0012-2.04-6h-10.8c-0.7104 1.9905-1.4118 3.9818-2.04 6h-6.48c4.209-12.088 7.6056-20.655 11.04-27.72h5.96c4.1469 8.7816 7.4311 17.356 11.04 27.72zm-7.48-21.44c-0.71781 2.1535-1.6463 4.0853-3.92 10.48h7.88c-0.0734-0.20655-1.8631-5.2378-3.96-10.48zm25.88-6.6c7.1485 0 12.88 2.1678 12.88 9.12 0 2.1895-0.48892 5.6557-5.2 7.6 1.6628 2.0587 4.5131 6.3231 6.88 11.32h-7c-4.0065-7.1694-5.2519-8.7902-6.36-10.12h-3.08v10.12h-6.24v-27.32c3.1191-0.6116 6.3871-0.72 8.12-0.72zm0.36 5.32c-0.74882-0.0098-1.4946 0.05989-2.24 0.12v7.52h1.76c4.8398 0 6.56-1.1781 6.56-3.88 0-1.4407-0.45697-3.76-6.08-3.76z" fill="#ebdbb2" opacity=".15" aria-label="USTAR"/>
  <path d="m77.26 60.561c-7.3373 0-11.24-4.0343-11.24-11.04v-17.24h6.24v16.72c0 4.7482 2.2338 6.16 5.08 6.16 4.071 0 5.12-3.0332 5.12-6.16v-16.72h6.24v17.24c0 4.0123-1.4289 11.04-11.44 11.04zm25-5.32c3.2335 0 4.48-0.98172 4.48-2.88 0-1.5331-1.0262-2.6487-5.68-4.2-3.4634-1.2224-7.6-2.955-7.6-8.2 0-5.1507 4.0386-8.32 10.2-8.32 3.7211 0 6.4107 0.94404 8.2 1.92l-1.8 4.92c-1.873-0.99727-3.8907-1.4678-6-1.52-2.9192 0-4.2 0.79832-4.2 2.52 0.19285 2.3426 2.9057 3.0323 4.8 3.68 5.9312 2.1967 8.52 4.0081 8.52 9.24 0 6.7588-5.9696 8.16-10.92 8.16-1.871 0-5.9869-0.23822-9.28-2.12l1.76-4.96c2.3212 1.3162 4.8902 1.7066 7.52 1.76zm35.48-22.96v5.32h-8.36v22.4h-6.24v-22.4h-8.36v-5.32zm19.28 27.72c-0.64332-2.0121-1.3562-4.0012-2.04-6h-10.8c-0.7104 1.9905-1.4118 3.9818-2.04 6h-6.48c4.209-12.088 7.6056-20.655 11.04-27.72h5.96c4.1469 8.7816 7.4311 17.356 11.04 27.72zm-7.48-21.44c-0.71781 2.1535-1.6463 4.0853-3.92 10.48h7.88c-0.0734-0.20655-1.8631-5.2378-3.96-10.48zm25.88-6.6c7.1485 0 12.88 2.1678 12.88 9.12 0 2.1895-0.48892 5.6557-5.2 7.6 1.6628 2.0587 4.5131 6.3231 6.88 11.32h-7c-4.0065-7.1694-5.2519-8.7902-6.36-10.12h-3.08v10.12h-6.24v-27.32c3.1191-0.6116 6.3871-0.72 8.12-0.72zm0.36 5.32c-0.74882-0.0098-1.4946 0.05989-2.24 0.12v7.52h1.76c4.8398 0 6.56-1.1781 6.56-3.88 0-1.4407-0.45697-3.76-6.08-3.76z" fill="#79740e" aria-label="USTAR"/>
  <path d="m103.66 31.641c-6.1614 0-10.199 3.1696-10.199 8.3203 0 0.53653 0.05334 1.0279 0.13476 1.4941 0.72078-4.2529 4.5304-6.8145 10.064-6.8145 3.1453 0 5.5131 0.68037 7.2637 1.4785l0.93555-2.5586c-1.7893-0.97596-4.4781-1.9199-8.1992-1.9199zm71.76 0.32031c-1.7329 0-5 0.10911-8.1191 0.7207v2.998c3.1191-0.6116 6.3862-0.71875 8.1191-0.71875 6.6046 0 11.989 1.8586 12.771 7.623 0.0745-0.53608 0.10937-1.05 0.10937-1.502 0-6.9522-5.7323-9.1211-12.881-9.1211zm-109.4 0.32031v2.998h6.2402v-2.998zm16.441 0v2.998h6.2383v-2.998zm32.318 0v2.998h22.961v-2.998zm31.92 0c-3.4344 7.065-6.83 15.633-11.039 27.721h1.0723c3.7098-10.458 6.8375-18.285 9.9668-24.723h5.9609c3.7307 7.9002 6.7699 15.704 9.9688 24.723h1.0703c-3.6089-10.364-6.8922-18.939-11.039-27.721zm-46.285 8.6523c-0.37438 0.39163-0.55468 0.90517-0.55468 1.5469 0.19284 2.3426 2.9065 3.032 4.8008 3.6797 5.275 1.9537 7.9003 3.6096 8.418 7.6309 0.061-0.43817 0.10157-0.89679 0.10157-1.3906 0-5.2319-2.5883-7.0415-8.5195-9.2383-1.4277-0.48814-3.3178-1.0029-4.2461-2.2285zm81.168 1.6484c-0.63871 1.6058-2.4969 2.3398-6.2812 2.3398h-1.7617v2.998h1.7617c4.8398 0 6.5586-1.1789 6.5586-3.8809 0-0.43545-0.0638-0.94935-0.27736-1.457zm-109.32 6.4199v2.998c0 4.7482 2.2339 6.1602 5.0801 6.1602 4.071 0 5.1211-3.0334 5.1211-6.1602v-2.998c0 3.1268-1.0501 6.1602-5.1211 6.1602-2.8462 0-5.0801-1.412-5.0801-6.1602zm74.453 0.03906c-0.33702 0.91049-0.67102 1.8091-1.0938 2.998h7.8809c-0.0328-0.09238-0.49839-1.3882-1.0918-2.998zm37.994 1.8223c-0.4725 0.29288-1.0044 0.56754-1.6074 0.81641 1.3171 1.6307 3.3786 4.6559 5.3555 8.3223h1.5254c-1.7192-3.6295-3.6845-6.8466-5.2734-9.1387zm-89.967 2.6172-1.7598 4.9609c0.29356 0.16775 0.59984 0.3066 0.9043 0.44922l0.85547-2.4102c2.3212 1.3162 4.8898 1.7063 7.5195 1.7598 3.2335 0 4.4805-0.98258 4.4805-2.8809 0-0.51006-0.13208-0.9728-0.45507-1.4219-0.60757 0.85634-1.8659 1.3047-4.0254 1.3047-2.6298-0.05342-5.1983-0.44556-7.5195-1.7617z" fill="#282828" opacity=".2"/>
  <path d="m57 15c-9.9393 0-17 7.0595-17 17v192c0 9.9393 7.0595 17 17 17h142c9.9405 0 17-7.0607 17-17v-192c0-9.9405-7.0607-17-17-17zm4.0332 5h133.93c9.3746 0 16.033 6.7474 16.033 16.248v183.5c0 9.4995-6.6575 16.248-16.033 16.248h-133.93c-9.3757 0-16.033-6.7486-16.033-16.248v-183.5c0-9.5007 6.6586-16.248 16.033-16.248z" fill="url(#linearGradient23)" style="paint-order:markers fill stroke"/>
</svg>
