<svg width="256" height="256" version="1.1" viewBox="0 0 256 256" xmlns="http://www.w3.org/2000/svg">
  <defs>
    <linearGradient id="linearGradient14-5" x1="128" x2="128" y1="15.001" y2="241" gradientTransform="translate(0,4.8e-4)" gradientUnits="userSpaceOnUse">
      <stop stop-color="#ebdbb2" stop-opacity=".2" offset="0"/>
      <stop stop-color="#ebdbb2" stop-opacity=".1" offset=".2"/>
      <stop stop-opacity="0" offset=".70405"/>
      <stop stop-opacity=".1" offset=".80473"/>
      <stop stop-opacity=".15" offset="1"/>
    </linearGradient>
    <linearGradient id="linearGradient15" x1="104" x2="104" y1="15.001" y2="241" gradientUnits="userSpaceOnUse">
      <stop stop-color="#8ec07c" offset="0"/>
      <stop stop-color="#689d6a" offset="1"/>
    </linearGradient>
    <linearGradient id="linearGradient7-6-0-2" x1="186" x2="156" y1="45.006" y2="75.012" gradientTransform="matrix(1.0833,0,0,1.0833,-17.997,-1.2506)" gradientUnits="userSpaceOnUse">
      <stop stop-color="#8ec07c" offset="0"/>
      <stop stop-color="#689d6a" offset=".3027"/>
      <stop stop-color="#427b58" offset="1"/>
    </linearGradient>
  </defs>
  <path d="m57 15c-9.9393 0-17 7.0595-17 17v192c0 9.9393 7.0595 17 17 17h142c9.9405 0 17-7.0607 17-17v-144l-64.999-64.999z" fill="url(#linearGradient15)" stroke-linecap="round" stroke-linejoin="round" stroke-miterlimit="0" style="paint-order:markers fill stroke"/>
  <path d="m173 89-44.991 44.991 44.991 44.991 17.997-17.997-27.007-27.007 27.007-27.007-17.997-17.997zm-90.007 35.993-17.997 17.997 27.007 27.007-27.007 27.007 17.997 17.997 44.991-44.991-44.991-44.991z" color="#ebdbb2" fill="currentColor" opacity=".15" stroke-width="15.753" style="isolation:isolate"/>
  <path d="m173 84-44.991 44.991 44.991 44.991 17.997-17.997-27.007-27.007 27.007-27.007-17.997-17.997zm-90.007 35.993-17.997 17.997 27.007 27.007-27.007 27.007 17.997 17.997 44.991-44.991-44.991-44.991z" color="#ebdbb2" fill="#427b58" stroke-width="15.753" style="isolation:isolate"/>
  <path d="m173 83.977v0.02344l-44.992 44.992 2.5 2.5 42.492-42.492v-0.02344l15.496 15.496 2.5-2.5zm-90.008 36.016-17.996 17.998 2.5 2.5 15.496-15.498v0.0254l42.492 42.49 2.5-2.5-44.992-44.99zm83.496 11.486-2.5 2.5 24.508 24.508 2.5-2.5zm-76.984 36.018-24.508 24.508 2.5 2.5 24.508-24.508z" fill="#282828" opacity=".2" style="isolation:isolate"/>
  <path d="m57 15c-9.9393 0-17 7.0595-17 17v192c0 9.9393 7.0595 17 17 17h142c9.9405 0 17-7.0607 17-17v-144l-65-64.998zm4.0332 4.9902 89.967 2e-3 60 60.009v139.75c0 9.4999-6.6575 16.248-16.033 16.248h-133.93c-9.3757 0-16.033-6.7481-16.033-16.248v-183.51c0-9.501 6.6586-16.25 16.033-16.25z" fill="url(#linearGradient14-5)" style="paint-order:markers fill stroke"/>
  <path d="m151 15.002v52.914c0 9.6525 7.8639 17.084 17.518 17.084l47.482-1.34e-4v-5z" fill="#282828" opacity=".3" stroke-width="1.0833"/>
  <path d="m151 15.001v47.916c0 9.6525 7.8639 17.084 17.518 17.084l47.482-1.34e-4z" fill="url(#linearGradient7-6-0-2)" stroke-width="1.0833"/>
</svg>
