<svg width="256" height="256" fill="none" version="1.1" viewBox="0 0 256 256" xmlns="http://www.w3.org/2000/svg">
  <path d="m55.08 15h100.5l60.4 60.15 2e-3 148.9c0 8.911-7.262 16.13-16.17 16.13h-144.8c-8.91 0-16.08-7.174-16.08-16.08v-193c0-8.91 7.173-16.08 16.08-16.08h1e-4z" fill="#ebdbb2"/>
  <path d="m199.8 240.2c8.911 0 16.17-7.218 16.17-16.13l-1e-3 -37.55h-177v37.59c0 8.91 7.173 16.08 16.08 16.08h144.8z" fill="url(#paint0_linear)" opacity=".2"/>
  <path d="m155.6 20.32h-100.5c-5.973 0-10.76 4.792-10.76 10.76v193c0 5.973 4.792 10.76 10.76 10.76h144.8c5.992 0 10.85-4.856 10.85-10.81v-148.9l-55.08-54.83zm0-5.319h-100.5c-8.91 0-16.08 7.173-16.08 16.08v193c0 8.91 7.173 16.08 16.08 16.08h144.8c8.911 0 16.17-7.218 16.17-16.13l-2e-3 -148.9-60.4-60.15z" clip-rule="evenodd" fill="url(#paint1_linear)" fill-rule="evenodd"/>
  <path d="m92.1 197.8v28.56h5.119v-10.52l2.68-2.119 8.48 12.64h5.881l-10.68-16 10.48-12.56h-5.799l-7.721 9.32c-0.56 0.6933-1.12 1.387-1.68 2.08s-1.107 1.372-1.641 2.039v-13.44zm22.16 0 9.879 28.56h5.48l9.879-28.56h-5.238l-5.762 17.48c-0.1867 0.48-0.3863 1.106-0.5996 1.879-0.2133 0.7467-0.4129 1.52-0.5996 2.32-0.1867 0.8-0.3204 1.493-0.4004 2.08-0.1067-0.5867-0.2652-1.28-0.4785-2.08-0.1867-0.8-0.3882-1.574-0.6016-2.32-0.2133-0.7733-0.3986-1.399-0.5586-1.879l-5.762-17.48zm25.88 0v4.32h8.201v24.24h5.119v-24.24h8.199v-4.32z" fill="url(#paint2_linear)"/>
  <path d="m117.5 44.03c-7.208-0.4755-15.32 4.645-15.03 12.53-0.852 4.695 3.675 8.198 3.478 12.44-2.666 1.17-4.694 1.17-6.571 1.17h-31.24v30.92c2.439 5.311 7.418-2.273 11.35-1.453 7.517-1.574 14.28 5.016 14.64 12.3 0.9997 6.946-1.689 15.98-9.56 17.38-4.246 0.717-8.816-0.068-12.3-2.665-4.199-2.534-4.466 3.027-4.132 5.751v31.5h35.93c5.31-2.44-2.275-7.421-1.454-11.36-1.572-7.515 5.015-14.29 12.3-14.64 6.947-0.997 15.98 1.689 17.37 9.562 0.716 4.248-0.068 8.817-2.664 12.3-2.535 4.198 3.026 4.465 5.75 4.132h26.49v-35.77c2.497-5.357 7.473 2.48 11.53 1.314 6.52 1.283 13.13-3.378 14.11-9.941 1.664-7.263-0.399-16.9-8.349-19.44-5.037-1.715-10.06 0.476-14.31 3.064-3.913 0.553-2.865-4.184-2.988-6.626v-26.33h-30.76c-5.358-2.498 2.479-7.474 1.312-11.54 1.282-6.52-3.377-13.13-9.938-14.11-1.634-0.3515-3.307-0.4892-4.974-0.4902z" fill="url(#paint3_linear)"/>
  <path d="m155.6 17v44.23c0 8.91 7.259 15.93 16.17 15.93l44.23-0.0112v-2l-60.4-58.15z" fill="#282828" opacity=".25"/>
  <path d="m155.6 15v44.23c0 8.91 7.259 15.93 16.17 15.93l44.23-0.0112-60.4-60.15z" fill="url(#paint4_linear)"/>
  <defs>
    <linearGradient id="paint0_linear" x1="127.5" x2="127.5" y1="186.5" y2="240.2" gradientUnits="userSpaceOnUse">
      <stop stop-color="#cc241d" offset="1e-7"/>
      <stop stop-color="#fb4934" offset="1"/>
    </linearGradient>
    <linearGradient id="paint1_linear" x1="127.5" x2="127.5" y1="15" y2="240.2" gradientUnits="userSpaceOnUse">
      <stop stop-color="#cc241d" offset="1e-7"/>
      <stop stop-color="#fb4934" offset="1"/>
    </linearGradient>
    <linearGradient id="paint2_linear" x1="127.5" x2="127.5" y1="187" y2="240" gradientUnits="userSpaceOnUse">
      <stop stop-color="#cc241d" offset="1e-7"/>
      <stop stop-color="#fb4934" offset="1"/>
    </linearGradient>
    <linearGradient id="paint3_linear" x1="128" x2="128" y1="44" y2="164" gradientUnits="userSpaceOnUse">
      <stop stop-color="#cc241d" offset="1e-7"/>
      <stop stop-color="#fb4934" offset="1"/>
    </linearGradient>
    <linearGradient id="paint4_linear" x1="185.8" x2="185.8" y1="15" y2="75.16" gradientUnits="userSpaceOnUse">
      <stop stop-color="#cc241d" offset="1e-7"/>
      <stop stop-color="#fb4934" offset="1"/>
    </linearGradient>
  </defs>
</svg>
