<svg width="256" height="256" version="1.1" viewBox="0 0 256 256" xmlns="http://www.w3.org/2000/svg">
  <defs>
    <linearGradient id="linearGradient21-3" x1="128" x2="128" y1="15" y2="241" gradientTransform="translate(-9.7e-4,3e-5)" gradientUnits="userSpaceOnUse">
      <stop stop-color="#ebdbb2" offset="0"/>
      <stop stop-color="#d5c4a1" offset="1"/>
    </linearGradient>
    <linearGradient id="linearGradient7-6-0-15-8" x1="186" x2="156" y1="45.006" y2="75.012" gradientTransform="matrix(1.0833,0,0,1.0833,-17.994,-1.2496)" gradientUnits="userSpaceOnUse">
      <stop stop-color="#8ec07c" offset="0"/>
      <stop stop-color="#689d6a" offset=".3027"/>
      <stop stop-color="#427b58" offset="1"/>
    </linearGradient>
    <linearGradient id="linearGradient14-6-8" x1="128" x2="128" y1="15.001" y2="241" gradientTransform="translate(-.001 .00048)" gradientUnits="userSpaceOnUse">
      <stop stop-color="#427b58" stop-opacity=".099738" offset="0"/>
      <stop stop-color="#427b58" stop-opacity=".047244" offset=".2"/>
      <stop stop-color="#427b58" stop-opacity=".047244" offset=".70405"/>
      <stop stop-color="#282828" stop-opacity=".049869" offset=".80473"/>
      <stop stop-color="#282828" stop-opacity=".10367" offset="1"/>
    </linearGradient>
  </defs>
  <path d="m56.999 15c-9.9393 0-17 7.0595-17 17v149h176v-101l-64.998-64.998z" fill="url(#linearGradient21-3)" style="paint-order:markers fill stroke"/>
  <path d="m56.999 241c-9.9393 0-17-7.0595-17-17v-43h176v43c0 9.9405-7.0607 17-17 17z" fill="#689d6a" stroke-linecap="round" stroke-linejoin="round" stroke-miterlimit="0" style="paint-order:markers fill stroke"/>
  <path d="m96.88 227.72c-0.95142-1.9028-3.0803-5.923-5.72-9.56-2.4596 3.1624-5.5122 8.7835-5.88 9.56h-7.12c2.4908-4.5853 5.4549-8.9918 9.32-14.36l-8.92-13.36h7.56l5.4 8.64 5.28-8.64h7.12l-8.8 13.44c2.0318 2.6365 5.968 8.0335 9.24 14.28zm29.6-5.36v5.36h-18.52v-27.72h6.24v22.36zm12.24 0.6c3.2348 0 4.48-0.9826 4.48-2.88 0-1.5331-1.0263-2.6488-5.68-4.2-3.4634-1.2224-7.6-2.9551-7.6-8.2 0-5.1508 4.0386-8.32 10.2-8.32 3.7211 0 6.4107 0.94404 8.2 1.92l-1.8 4.92c-1.873-0.99727-3.8907-1.4678-6-1.52-2.9192 0-4.2 0.79833-4.2 2.52 0.24727 2.3866 2.8628 3.0035 4.8 3.68 5.9312 2.1967 8.52 4.0082 8.52 9.24 0 6.7588-5.9696 8.16-10.92 8.16-2.0764 0-6.0494-0.27394-9.28-2.12l1.76-4.96c2.3212 1.3162 4.8902 1.7066 7.52 1.76zm31.64 4.76c-0.95131-1.9026-3.0802-5.923-5.72-9.56-2.4597 3.1625-5.5122 8.7835-5.88 9.56h-7.12c2.4908-4.5853 5.4549-8.9918 9.32-14.36l-8.92-13.36h7.56l5.4 8.64 5.28-8.64h7.12l-8.8 13.44c2.0318 2.6365 5.968 8.0336 9.24 14.28z" fill="#282828" opacity=".2" aria-label="XLSX"/>
  <path d="m96.88 224.72c-0.95142-1.9028-3.0803-5.923-5.72-9.56-2.4596 3.1624-5.5122 8.7835-5.88 9.56h-7.12c2.4908-4.5853 5.4549-8.9918 9.32-14.36l-8.92-13.36h7.56l5.4 8.64 5.28-8.64h7.12l-8.8 13.44c2.0318 2.6365 5.968 8.0335 9.24 14.28zm29.6-5.36v5.36h-18.52v-27.72h6.24v22.36zm12.24 0.6c3.2348 0 4.48-0.9826 4.48-2.88 0-1.5331-1.0263-2.6488-5.68-4.2-3.4634-1.2224-7.6-2.9551-7.6-8.2 0-5.1508 4.0386-8.32 10.2-8.32 3.7211 0 6.4107 0.94404 8.2 1.92l-1.8 4.92c-1.873-0.99727-3.8907-1.4678-6-1.52-2.9192 0-4.2 0.79833-4.2 2.52 0.24727 2.3866 2.8628 3.0035 4.8 3.68 5.9312 2.1967 8.52 4.0082 8.52 9.24 0 6.7588-5.9696 8.16-10.92 8.16-2.0764 0-6.0494-0.27394-9.28-2.12l1.76-4.96c2.3212 1.3162 4.8902 1.7066 7.52 1.76zm31.64 4.76c-0.95131-1.9026-3.0802-5.923-5.72-9.56-2.4597 3.1625-5.5122 8.7835-5.88 9.56h-7.12c2.4908-4.5853 5.4549-8.9918 9.32-14.36l-8.92-13.36h7.56l5.4 8.64 5.28-8.64h7.12l-8.8 13.44c2.0318 2.6365 5.968 8.0336 9.24 14.28z" fill="#ebdbb2" aria-label="XLSX"/>
  <path d="m140.12 196.36c-6.1614 0-10.199 3.1676-10.199 8.3184 0 0.53726 0.0531 1.0293 0.13477 1.4961 0.72159-4.2518 4.5312-6.8145 10.064-6.8144 3.1289 0 5.5213 0.67023 7.2695 1.4629l0.93164-2.543c-1.7893-0.97596-4.4801-1.9199-8.2012-1.9199zm-61.559 0.63867 2.0039 3.002h5.5547l5.4004 8.6406 5.2812-8.6406h5.1543l1.9648-3.002h-7.1191l-5.2812 8.6406-5.4004-8.6406zm29.4 0v3.002h6.2383v-3.002zm44.078 0 2.0039 3.002h5.5566l5.4004 8.6406 5.2793-8.6406h5.1562l1.9648-3.002h-7.1211l-5.2793 8.6406-5.4004-8.6406zm-15.162 8.6504c-0.37776 0.39228-0.55664 0.90625-0.55664 1.5508 0.24727 2.3866 2.8616 3.0052 4.7988 3.6816 5.2742 1.9534 7.9017 3.607 8.4199 7.627 0.061-0.43815 0.10156-0.89486 0.10156-1.3887 1e-5 -5.2318-2.5902-7.0435-8.5215-9.2402-1.4671-0.51233-3.3203-0.99189-4.2422-2.2305zm-50.428 6.166c-3.3508 4.7077-6.0329 8.7508-8.2891 12.904h1.7207c2.1229-3.5618 4.5817-7.1678 7.5996-11.359zm73.48 0c-3.3509 4.7079-6.0328 8.7508-8.2891 12.904h1.7207c2.1229-3.5618 4.5817-7.1678 7.5996-11.359zm-63.764 0.0254-1.0469 1.5996c1.6965 2.2014 4.7195 6.3412 7.5762 11.279h1.6641c-2.8071-5.3591-6.0305-9.9772-8.1934-12.879zm73.48 0-1.0469 1.5996c1.6965 2.2014 4.7176 6.3412 7.5742 11.279h1.666c-2.8071-5.3591-6.0304-9.9771-8.1934-12.879zm-38.447 6.3594-1.7598 4.959c0.29411 0.16806 0.59988 0.31015 0.9043 0.45313l0.85547-2.4121c2.3212 1.3162 4.8917 1.7083 7.5215 1.7617 3.2348 0 4.4785-0.98346 4.4785-2.8809 0-0.5104-0.13354-0.97253-0.45703-1.4219-0.60823 0.85411-1.864 1.3008-4.0215 1.3008-2.6298-0.0534-5.2002-0.4436-7.5215-1.7598zm-17 1.1602v3h12.281v-3z" fill="#fbf1c7" opacity=".6"/>
  <path d="m70 60v100h116v-100zm10 10h30v20h-30zm40 0h56v20h-56zm-40 30h30v20h-30zm40 0h56v20h-56zm-40 30h30v20h-30zm40 0h56v20h-56z" fill="#ebdbb2" opacity=".6" style="paint-order:markers fill stroke"/>
  <path d="m70 55v100h116v-100zm10 10h30v20h-30zm40 0h56v20h-56zm-40 30h30v20h-30zm40 0h56v20h-56zm-40 30h30v20h-30zm40 0h56v20h-56z" fill="#689d6a" style="paint-order:markers fill stroke"/>
  <path d="m70 55v5h116v-5zm10 30v5h30v-5zm40 0v5h56v-5zm-40 30v5h30v-5zm40 0v5h56v-5zm-40 30v5h30v-5zm40 0v5h56v-5z" fill="#282828" opacity=".2" style="paint-order:markers fill stroke"/>
  <path d="m56.999 15c-9.9393 0-17 7.0595-17 17v192c0 9.9393 7.0595 17 17 17h142c9.9405 0 17-7.0607 17-17v-144l-65-65zm4.0332 4.9902 89.967 0.01 60 60 2e-4 139.75c1e-5 9.4999-6.6575 16.248-16.033 16.248h-133.93c-9.3757 0-16.033-6.7481-16.033-16.248v-183.51c0-9.501 6.6586-16.25 16.033-16.25z" fill="url(#linearGradient14-6-8)" style="paint-order:markers fill stroke"/>
  <path d="m151 15.002v52.914c0 9.6525 7.8639 17.084 17.518 17.084l47.482-1.34e-4v-5z" fill="#282828" opacity=".2" stroke-width="1.0833"/>
  <path d="m151 15.002v47.916c0 9.6525 7.8639 17.084 17.518 17.084l47.482-1.34e-4z" fill="url(#linearGradient7-6-0-15-8)" stroke-width="1.0833"/>
</svg>
