<svg width="256" height="256" version="1.1" viewBox="0 0 256 256" xmlns="http://www.w3.org/2000/svg">
  <defs>
    <linearGradient id="linearGradient26" x1="-160" x2="-160" y2="226" gradientTransform="translate(267,15)" gradientUnits="userSpaceOnUse">
      <stop stop-color="#076678" offset="0"/>
      <stop stop-color="#458588" offset="1"/>
    </linearGradient>
    <linearGradient id="linearGradient7-6" x1="186" x2="156" y1="45.006" y2="75.012" gradientTransform="matrix(1.0833 0 0 1.0833 -17.999 -1.2512)" gradientUnits="userSpaceOnUse">
      <stop stop-color="#83a598" offset="0"/>
      <stop stop-color="#458588" offset=".3027"/>
      <stop stop-color="#076678" offset="1"/>
    </linearGradient>
    <linearGradient id="linearGradient14-5-0" x1="128" x2="128" y1="15.001" y2="241" gradientTransform="translate(0,4.8e-4)" gradientUnits="userSpaceOnUse">
      <stop stop-color="#ebdbb2" stop-opacity=".15" offset="0"/>
      <stop stop-color="#ebdbb2" stop-opacity=".05" offset=".2"/>
      <stop stop-opacity="0" offset=".70405"/>
      <stop stop-opacity=".05" offset=".80473"/>
      <stop stop-opacity=".1" offset="1"/>
    </linearGradient>
  </defs>
  <path d="m57 15c-9.9393 0-17 7.0595-17 17v192c0 9.9393 7.0595 17 17 17h142c9.9405 0 17-7.0607 17-17v-144l-64.999-64.999z" fill="url(#linearGradient26)" stroke-linecap="round" stroke-linejoin="round" stroke-miterlimit="0" style="paint-order:markers fill stroke"/>
  <path d="m57 241c-9.9393 0-17-7.0595-17-17v-43h176v43c0 9.9405-7.0607 17-17 17z" fill="#83a598" opacity=".7" stroke-linecap="round" stroke-linejoin="round" stroke-miterlimit="0" style="paint-order:markers fill stroke"/>
  <path d="m74 199.68c7.1485 0 12.88 2.1678 12.88 9.12 0 2.1895-0.48892 5.6557-5.2 7.6 3.5509 4.3964 6.5069 10.532 6.88 11.32h-7c-4.0059-7.1684-5.2516-8.79-6.36-10.12h-3.08v10.12h-6.24v-27.32c3.1191-0.6116 6.3871-0.72 8.12-0.72zm0.36 5.32c-0.74882-0.01-1.4946 0.0599-2.24 0.12v7.52h1.76c4.8398 0 6.56-1.1781 6.56-3.88 0-1.4407-0.45697-3.76-6.08-3.76zm26.52-5.32c12.379 0 12.84 6.5014 12.84 9.32 0 3.3294-0.85049 9.44-12.96 9.44h-1.96v9.28h-6.24v-27.32c3.0028-0.58878 6.4467-0.72 8.32-0.72zm0.4 5.32c-0.9514 0-1.8488 0.0674-2.48 0.12v8h1.96c5.6666 0 6.52-1.933 6.52-4.16 0-2.7192-1.8321-3.96-6-3.96zm25.16-5.32c7.1485 0 12.88 2.1678 12.88 9.12 0 2.1895-0.48892 5.6557-5.2 7.6 3.551 4.3964 6.5069 10.532 6.88 11.32h-7c-4.0059-7.1684-5.2516-8.79-6.36-10.12h-3.08v10.12h-6.24v-27.32c3.1191-0.6116 6.3871-0.72 8.12-0.72zm0.36 5.32c-0.74882-0.01-1.4946 0.0599-2.24 0.12v7.52h1.76c4.8398 0 6.56-1.1781 6.56-3.88 0-1.4407-0.45697-3.76-6.08-3.76zm22.72 8.84c0 5.6626 2.8829 8.96 7.36 8.96 4.8781 0 7.36-3.9271 7.36-8.96 0-4.9078-2.3872-9-7.36-9-4.1749 0-7.36 3.1092-7.36 9zm21.16 0c0 9.292-5.7804 14.44-13.8 14.44-7.1983 0-13.8-4.5179-13.8-14.44 0-9.2833 6.2024-14.48 13.8-14.48 7.6238 0 13.8 4.991 13.8 14.48zm19.44 4.56c0 9.0384-6.2603 9.88-10.04 9.88-2.8555 0.0854-5.5096-0.71748-7.92-2.2l2.08-4.84c1.6547 1.0291 3.4215 1.6208 5.36 1.72 3.1245 0 4.28-1.4992 4.28-4.88v-18.08h6.24z" fill="#ebdbb2" opacity=".15" style="font-variant-ligatures:none" aria-label="RPROJ"/>
  <path d="m74 196.68c7.1485 0 12.88 2.1678 12.88 9.12 0 2.1895-0.48892 5.6557-5.2 7.6 3.5509 4.3964 6.5069 10.532 6.88 11.32h-7c-4.0059-7.1684-5.2516-8.79-6.36-10.12h-3.08v10.12h-6.24v-27.32c3.1191-0.6116 6.3871-0.72 8.12-0.72zm0.36 5.32c-0.74882-0.01-1.4946 0.0599-2.24 0.12v7.52h1.76c4.8398 0 6.56-1.1781 6.56-3.88 0-1.4407-0.45697-3.76-6.08-3.76zm26.52-5.32c12.379 0 12.84 6.5014 12.84 9.32 0 3.3294-0.85049 9.44-12.96 9.44h-1.96v9.28h-6.24v-27.32c3.0028-0.58878 6.4467-0.72 8.32-0.72zm0.4 5.32c-0.9514 0-1.8488 0.0674-2.48 0.12v8h1.96c5.6666 0 6.52-1.933 6.52-4.16 0-2.7192-1.8321-3.96-6-3.96zm25.16-5.32c7.1485 0 12.88 2.1678 12.88 9.12 0 2.1895-0.48892 5.6557-5.2 7.6 3.551 4.3964 6.5069 10.532 6.88 11.32h-7c-4.0059-7.1684-5.2516-8.79-6.36-10.12h-3.08v10.12h-6.24v-27.32c3.1191-0.6116 6.3871-0.72 8.12-0.72zm0.36 5.32c-0.74882-0.01-1.4946 0.0599-2.24 0.12v7.52h1.76c4.8398 0 6.56-1.1781 6.56-3.88 0-1.4407-0.45697-3.76-6.08-3.76zm22.72 8.84c0 5.6626 2.8829 8.96 7.36 8.96 4.8781 0 7.36-3.9271 7.36-8.96 0-4.9078-2.3872-9-7.36-9-4.1749 0-7.36 3.1092-7.36 9zm21.16 0c0 9.292-5.7804 14.44-13.8 14.44-7.1983 0-13.8-4.5179-13.8-14.44 0-9.2833 6.2024-14.48 13.8-14.48 7.6238 0 13.8 4.991 13.8 14.48zm19.44 4.56c0 9.0384-6.2603 9.88-10.04 9.88-2.8555 0.0854-5.5096-0.71748-7.92-2.2l2.08-4.84c1.6547 1.0291 3.4215 1.6208 5.36 1.72 3.1245 0 4.28-1.4992 4.28-4.88v-18.08h6.24z" fill="#076678" style="font-variant-ligatures:none" aria-label="RPROJ"/>
  <path d="m156.88 196.36c-7.5976-1e-5 -13.801 5.1971-13.801 14.48 0 0.52287 0.0189 1.0305 0.0547 1.5234 0.62374-8.3562 6.5612-13.004 13.746-13.004 7.214 0 13.131 4.4703 13.746 12.99 0.035-0.49002 0.0527-0.99404 0.0527-1.5098 0-9.489-6.175-14.48-13.799-14.48zm-82.881 0.32031c-1.7329 0-5 0.1091-8.1191 0.7207v3c3.1191-0.6116 6.3862-0.7207 8.1191-0.7207 6.6077 0 12.004 1.8521 12.783 7.623 0.07549-0.53935 0.09766-1.0476 0.09766-1.502 0-6.9522-5.7323-9.1211-12.881-9.1211zm26.881 0c-1.8733 0-5.3175 0.13192-8.3203 0.7207v3c3.0028-0.58878 6.447-0.7207 8.3203-0.7207 10.489 0 12.42 4.6686 12.766 7.8086 0.0574-0.53222 0.0742-1.0363 0.0742-1.4883 0-2.8186-0.461-9.3203-12.84-9.3203zm25.559 0c-1.7329 0-5 0.1091-8.1191 0.7207v3c3.1191-0.6116 6.3862-0.7207 8.1191-0.7207 6.6077 0 12.004 1.8521 12.783 7.623 0.0755-0.53935 0.0977-1.0476 0.0977-1.502 0-6.9522-5.7323-9.1211-12.881-9.1211zm57.441 0.32031v3h6.2383v-3zm-103.7 10.301c-0.634 1.6145-2.5107 2.3398-6.3047 2.3398h-1.7617v3h1.7617c4.8398 0 6.5586-1.1789 6.5586-3.8808 0-0.43533-0.04054-0.95145-0.25391-1.459zm52.439 0c-0.634 1.6145-2.5107 2.3398-6.3047 2.3398h-1.7598v3h1.7598c4.8398 0 6.5606-1.1789 6.5606-3.8808 0-0.43533-0.0425-0.95145-0.25586-1.459zm-25.561 0.22852c-0.49853 1.4935-2.0355 2.5898-6.3047 2.5898h-1.959v3h1.959c5.6666 0 6.5195-1.9312 6.5195-4.1582 0-0.53313-0.0702-1.0104-0.21485-1.4316zm57.098 4.8125c-0.45376 4.2908-2.9006 7.459-7.2812 7.459-4.0636 0-6.8158-2.7171-7.2891-7.4531-0.048 0.47577-0.0723 0.97297-0.0723 1.4922 0 5.6626 2.8843 8.9609 7.3613 8.9609 4.8781 0 7.3594-3.928 7.3594-8.9609 0-0.50927-0.0265-1.01-0.0781-1.498zm19.719 2.7383c0 3.3808-1.1568 4.8809-4.2812 4.8809-1.9385-0.0992-3.7047-0.69164-5.3594-1.7207l-2.0801 4.8398c0.34077 0.20959 0.68671 0.40605 1.0371 0.58789l1.043-2.4277c1.6547 1.0291 3.4209 1.6215 5.3594 1.7207 3.1245 0 4.2812-1.5001 4.2812-4.8809zm-100.58 0.49609c-0.47597 0.29617-1.014 0.57288-1.623 0.82422 2.1483 2.6598 4.079 5.9566 5.3516 8.3203h1.5293c-0.31443-0.66379-2.4645-5.1262-5.2578-9.1445zm52.441 0c-0.47597 0.29617-1.016 0.57288-1.625 0.82422 2.1483 2.6598 4.079 5.9566 5.3516 8.3203h1.5293c-0.31442-0.66379-2.4625-5.1262-5.2559-9.1445z" fill="#282828" opacity=".2" style="font-variant-ligatures:none"/>
  <path d="m150.68 124.63c4.2869-0.0444 9.3718 2.7667 11.187 6.6731l19.129 33.747h-35.369c-5.9218-11.333-10.954-23.575-18.503-33.666-1.5006-1.2278-2.7487-1.7027-4.2341-1.7027h-7.581l5e-3 35.349h-30.318v-101.04h54.7c5.9298 0 31.193 5.0527 32.069 30.316-0.87699 25.263-21.087 30.316-21.087 30.316zm-35.367-40.428v25.27h20.209c6.3803-0.61415 7.1714-24.676 0-25.257z" fill="#32302f" fill-rule="evenodd" opacity=".2" stroke-width="5.0527"/>
  <path d="m150.68 119.6c4.2869-0.0444 9.3718 2.7667 11.187 6.6731l19.129 33.747h-35.369c-5.9218-11.333-10.954-23.575-18.503-33.666-1.5006-1.2278-2.7487-1.7027-4.2341-1.7027h-7.581l5e-3 35.349h-30.318v-101.04h54.7c5.9298 0 31.193 5.0527 32.069 30.316-0.87699 25.263-21.087 30.316-21.087 30.316zm-35.367-40.428v25.27h20.209c6.3803-0.61415 7.1714-24.676 0-25.257z" fill="#83a598" fill-rule="evenodd" stroke-width="5.0527"/>
  <path d="m85 58.964v5.0254h54.699c5.7343 0 29.545 4.7274 31.902 27.885 0.0774-0.84228 0.13701-1.7017 0.16797-2.5938-0.87668-25.263-26.14-30.316-32.07-30.316zm55.504 34.902c-0.42212 5.4079-2.1465 10.302-4.9785 10.574h-20.209v5.0254h20.209c3.7068-0.35681 5.5102-8.6166 4.9785-15.6zm16.836 27.68c-3.6982 2.3239-6.6582 3.0742-6.6582 3.0742l2e-3 4e-3c4.2869-0.0444 9.3726 2.7674 11.188 6.6738l16.281 28.721h2.8476l-19.129-33.746c-0.88641-1.9079-2.5588-3.5463-4.5312-4.7266z" fill="#ebdbb2" opacity=".2"/>
  <path d="m57 15c-9.9393 0-17 7.0595-17 17v192c0 9.9393 7.0595 17 17 17h142c9.9405 0 17-7.0607 17-17v-144l-65-64.998zm4.0332 4.9902 89.967 2e-3 60 60.009v139.75c0 9.4999-6.6575 16.248-16.033 16.248h-133.93c-9.3757 0-16.033-6.7481-16.033-16.248v-183.51c0-9.501 6.6586-16.25 16.033-16.25z" fill="url(#linearGradient14-5-0)" style="paint-order:markers fill stroke"/>
  <path d="m151 15.002v52.914c0 9.6525 7.8639 17.084 17.518 17.084l47.482-1.34e-4v-5z" fill="#282828" opacity=".3" stroke-width="1.0833"/>
  <path d="m151 15v47.916c0 9.6525 7.8639 17.084 17.518 17.084l47.482-1.34e-4z" fill="url(#linearGradient7-6)" stroke-width="1.0833"/>
</svg>
