<svg width="256" height="256" version="1.1" viewBox="0 0 256 256" xmlns="http://www.w3.org/2000/svg">
  <defs>
    <linearGradient id="linearGradient26" x1="-160" x2="-160" y2="226" gradientTransform="translate(267,15)" gradientUnits="userSpaceOnUse">
      <stop stop-color="#ebdbb2" offset="0"/>
      <stop stop-color="#d5c4a1" offset="1"/>
    </linearGradient>
    <linearGradient id="linearGradient7-6-0-49" x1="186" x2="156" y1="45.006" y2="75.012" gradientTransform="matrix(1.0833,0,0,1.0833,-17.998,-1.2516)" gradientUnits="userSpaceOnUse">
      <stop stop-color="#fabd2f" offset="0"/>
      <stop stop-color="#d79921" offset=".3027"/>
      <stop stop-color="#b57614" offset="1"/>
    </linearGradient>
    <linearGradient id="linearGradient14-7-1" x1="128" x2="128" y1="15.001" y2="241" gradientTransform="translate(0,4.8e-4)" gradientUnits="userSpaceOnUse">
      <stop stop-color="#b57614" stop-opacity=".09894" offset="0"/>
      <stop stop-color="#b57614" stop-opacity=".051237" offset=".2"/>
      <stop stop-color="#b57614" stop-opacity=".045936" offset=".70405"/>
      <stop stop-color="#282828" stop-opacity=".051237" offset=".80473"/>
      <stop stop-color="#282828" stop-opacity=".09894" offset="1"/>
    </linearGradient>
  </defs>
  <path d="m57 15c-9.9393 0-17 7.0595-17 17v192c0 9.9393 7.0595 17 17 17h142c9.9405 0 17-7.0607 17-17v-144l-64.999-64.999z" fill="url(#linearGradient26)" stroke-linecap="round" stroke-linejoin="round" stroke-miterlimit="0" style="paint-order:markers fill stroke"/>
  <path d="m57 241c-9.9393 0-17-7.0595-17-17v-43h176v43c0 9.9405-7.0607 17-17 17z" fill="#d79921" stroke-linecap="round" stroke-linejoin="round" stroke-miterlimit="0" style="paint-order:markers fill stroke"/>
  <path d="m64.141 204.56c-5.93 0-7.828 3.7664-7.828 8.588 0 4.7102 2.0887 8.626 7.296 8.626 1.6713 0 2.3954-0.0763 2.926-0.19v-9.158h5.928v13.034c-3.3635 1.3214-8.5322 1.368-9.234 1.368-7.5599 0-13.072-4.5936-13.072-13.68 0-8.8441 5.9234-13.756 13.186-13.756 4.1089 0 7.3396 1.1388 8.74 2.014l-1.71 4.75c-0.9323-0.49529-3.3301-1.596-6.232-1.596zm19.76 16.948c0.75737 0.0931 1.5187 0.076 2.28 0.076 7.4044 0 8.74-4.9002 8.74-8.436 0-7.4604-4.9688-8.398-8.55-8.398-0.82514 4e-3 -1.6488 0.0403-2.47 0.114zm17.138-8.36c0 11.817-9.6003 13.528-15.162 13.528-0.84268 0-4.7376-0.039-7.904-0.684v-25.65c0.12778-0.0237 3.5065-0.646 8.094-0.646 7.1313 0 14.972 2.492 14.972 13.452zm22.61 13.186c-3.0748-5.4611-7.0546-11.677-11.818-17.252v17.252h-5.852v-26.334h4.826c4.1275 4.1275 9.8271 12.385 11.932 15.542v-15.542h5.89v26.334zm16.036-13.186c0 5.3794 2.7388 8.512 6.992 8.512 4.6342 0 6.992-3.7307 6.992-8.512 0-4.6624-2.2678-8.55-6.992-8.55-3.9662 0-6.992 2.9538-6.992 8.55zm20.102 0c0 8.8274-5.4914 13.718-13.11 13.718-6.8384 0-13.11-4.292-13.11-13.718 0-8.8192 5.8923-13.756 13.11-13.756 7.2426 0 13.11 4.7414 13.11 13.756zm23.598-13.148v5.054h-7.942v21.28h-5.928v-21.28h-7.942v-5.054zm3.8 26.334v-26.334h17.784v4.978h-11.856v5.168h10.526v4.864h-10.526v6.346h12.73v4.978z" fill="#282828" opacity=".2" aria-label="GDNOTE"/>
  <path d="m64.141 201.56c-5.93 0-7.828 3.7664-7.828 8.588 0 4.7102 2.0887 8.626 7.296 8.626 1.6713 0 2.3954-0.0763 2.926-0.19v-9.158h5.928v13.034c-3.3635 1.3214-8.5322 1.368-9.234 1.368-7.5599 0-13.072-4.5936-13.072-13.68 0-8.8441 5.9234-13.756 13.186-13.756 4.1089 0 7.3396 1.1388 8.74 2.014l-1.71 4.75c-0.9323-0.49529-3.3301-1.596-6.232-1.596zm19.76 16.948c0.75737 0.0931 1.5187 0.076 2.28 0.076 7.4044 0 8.74-4.9002 8.74-8.436 0-7.4604-4.9688-8.398-8.55-8.398-0.82514 4e-3 -1.6488 0.0403-2.47 0.114zm17.138-8.36c0 11.817-9.6003 13.528-15.162 13.528-0.84268 0-4.7376-0.039-7.904-0.684v-25.65c0.12778-0.0237 3.5065-0.646 8.094-0.646 7.1313 0 14.972 2.492 14.972 13.452zm22.61 13.186c-3.0748-5.4611-7.0546-11.677-11.818-17.252v17.252h-5.852v-26.334h4.826c4.1275 4.1275 9.8271 12.385 11.932 15.542v-15.542h5.89v26.334zm16.036-13.186c0 5.3794 2.7388 8.512 6.992 8.512 4.6342 0 6.992-3.7307 6.992-8.512 0-4.6624-2.2678-8.55-6.992-8.55-3.9662 0-6.992 2.9538-6.992 8.55zm20.102 0c0 8.8274-5.4914 13.718-13.11 13.718-6.8384 0-13.11-4.292-13.11-13.718 0-8.8192 5.8923-13.756 13.11-13.756 7.2426 0 13.11 4.7414 13.11 13.756zm23.598-13.148v5.054h-7.942v21.28h-5.928v-21.28h-7.942v-5.054zm3.8 26.334v-26.334h17.784v4.978h-11.856v5.168h10.526v4.864h-10.526v6.346h12.73v4.978z" fill="#ebdbb2" aria-label="GDNOTE"/>
  <path d="m63.344 196.39c-7.2626 0-13.188 4.9118-13.188 13.756 0 0.53698 0.02276 1.055 0.06055 1.5605 0.61033-7.9339 6.2693-12.316 13.127-12.316 3.4255 0 6.1692 0.7882 7.8223 1.5586l0.91602-2.5449c-1.4004-0.87524-4.6294-2.0137-8.7383-2.0137zm83.334 0c-7.2177 0-13.111 4.9367-13.111 13.756 0 0.51903 0.0274 1.0159 0.0645 1.5039 0.63111-7.8773 6.2491-12.26 13.047-12.26 6.8368 0 12.442 4.229 13.049 12.285 0.0381-0.49684 0.0606-1.0044 0.0606-1.5293 0-9.0146-5.8668-13.756-13.109-13.756zm-60.611 0.30273c-4.5875 0-7.966 0.62279-8.0938 0.64649v3c0.12778-0.0237 3.5063-0.64649 8.0938-0.64649 6.7683 0 14.164 2.2606 14.9 11.859 0.0326-0.45984 0.0723-0.91162 0.0723-1.4062 0-10.96-7.8414-13.453-14.973-13.453zm19.912 0.30469v3h4.8262c4.1275 4.1275 9.8268 12.386 11.932 15.543v-3c-2.1049-3.1573-7.8042-11.415-11.932-15.543zm16.758 0v3h5.8906v-3zm38.836 0v3h21.812v-3zm25.613 0v3h17.783v-3zm5.9277 10.146v3h10.525v-3zm-126.58 2.2793v3h5.9277v-3zm-10.139 2.1641c-0.04977 0.50585-0.08398 1.023-0.08398 1.5586 0 4.7102 2.0896 8.625 7.2969 8.625 1.6713 0 2.3951-0.0758 2.9258-0.18946v-3c-0.53064 0.1137-1.2545 0.18946-2.9258 0.18946-4.6626 0-6.8116-3.1454-7.2129-7.1836zm38.439 0.0176c-0.37808 3.2866-2.2284 6.9766-8.6543 6.9766-0.76128 0-1.5239 0.0169-2.2812-0.0762v3c0.75737 0.0931 1.52 0.0762 2.2812 0.0762 7.4044 0 8.7402-4.8998 8.7402-8.4355 0-0.55192-0.0341-1.0582-0.0859-1.541zm58.738 0.0274c-0.44932 4.0423-2.7576 7.0254-6.8965 7.0254-3.8237 0-6.4046-2.5486-6.8906-6.9688-0.0499 0.47098-0.10156 0.94084-0.10156 1.457 0 5.3794 2.739 8.5117 6.9922 8.5117 4.6342 0 6.9922-3.7305 6.9922-8.5117 0-0.5168-0.0397-1.0202-0.0957-1.5137zm39.539 6.7207v3h12.73v-3z" fill="#fbf1c7" opacity=".6"/>
  <path d="m128 44.165c-23.005 0-41.655 18.65-41.655 41.655 0 14.362 7.269 27.025 18.328 34.515v44.629h8.3309v4.1654h29.991v-4.1654h8.3309v-44.629c11.059-7.4889 18.328-20.152 18.328-34.515 0-23.005-18.65-41.655-41.655-41.655zm0 12.496c16.104 0 29.158 13.055 29.158 29.158 0 16.104-13.055 29.158-29.158 29.158s-29.158-13.055-29.158-29.158c0-16.104 13.055-29.158 29.158-29.158zm-14.996 70.813h29.991v9.9971h-29.991zm0 19.994h29.991v9.9971h-29.991z" fill="#ebdbb2" opacity=".6" stroke-linecap="round" stroke-linejoin="round" stroke-miterlimit="0" stroke-width="4.1654" style="paint-order:markers fill stroke"/>
  <path d="m128 40c-23.005 0-41.655 18.65-41.655 41.655 0 14.362 7.269 27.025 18.328 34.515v44.629h8.3309v4.1654h29.991v-4.1654h8.3309v-44.629c11.059-7.4889 18.328-20.152 18.328-34.515 0-23.005-18.65-41.655-41.655-41.655zm0 12.496c16.104 0 29.158 13.055 29.158 29.158 0 16.104-13.055 29.158-29.158 29.158s-29.158-13.055-29.158-29.158c0-16.104 13.055-29.158 29.158-29.158zm-14.996 70.813h29.991v9.9971h-29.991zm0 19.994h29.991v9.9971h-29.991z" fill="#d79921" stroke-linecap="round" stroke-linejoin="round" stroke-miterlimit="0" stroke-width="4.1654" style="paint-order:markers fill stroke"/>
  <path d="m128 40c-23.005 0-41.655 18.65-41.655 41.655 0 0.64724 0.031 1.2865 0.06021 1.9265 1.1639-21.964 19.341-39.415 41.595-39.415s40.431 17.452 41.595 39.415c0.0293-0.64003 0.0602-1.2793 0.0602-1.9265 3e-5 -23.005-18.65-41.655-41.654-41.655zm-29.075 43.737c-0.04868 0.68885-0.08299 1.3815-0.08299 2.0827 0 16.104 13.055 29.158 29.158 29.158s29.158-13.055 29.158-29.158c0-0.70123-0.0343-1.3938-0.083-2.0827-1.0693 15.131-13.673 27.075-29.075 27.075-15.402 0-28.006-11.945-29.075-27.075zm14.079 49.569v4.1654h29.991v-4.1654zm0 19.994v4.1654h29.991v-4.1654z" fill="#282828" opacity=".2" stroke-linecap="round" stroke-linejoin="round" stroke-miterlimit="0" stroke-width="4.1654" style="paint-order:markers fill stroke"/>
  <path d="m57 15c-9.9393 0-17 7.0595-17 17v192c0 9.9393 7.0595 17 17 17h142c9.9405 0 17-7.0607 17-17v-144l-65-65zm4.0332 4.9902 89.967 0.01 60 60 2e-4 139.75c1e-5 9.4999-6.6575 16.248-16.033 16.248h-133.93c-9.3757 0-16.033-6.7481-16.033-16.248v-183.51c0-9.501 6.6586-16.25 16.033-16.25z" fill="url(#linearGradient14-7-1)" style="paint-order:markers fill stroke"/>
  <path d="m151 15.002v52.914c0 9.6525 7.8639 17.084 17.518 17.084l47.482-1.34e-4v-5z" fill="#282828" opacity=".2" stroke-width="1.0833"/>
  <path d="m151 15v47.916c0 9.6525 7.8639 17.084 17.518 17.084l47.482-1.34e-4z" fill="url(#linearGradient7-6-0-49)" stroke-width="1.0833"/>
</svg>
