<svg width="256" height="256" version="1.1" viewBox="0 0 256 256" xmlns="http://www.w3.org/2000/svg">
  <defs>
    <linearGradient id="linearGradient26" x1="-160" x2="-160" y2="226" gradientTransform="translate(267,15)" gradientUnits="userSpaceOnUse">
      <stop stop-color="#076678" offset="0"/>
      <stop stop-color="#076678" offset="1"/>
    </linearGradient>
    <linearGradient id="linearGradient7-6-0" x1="186" x2="156" y1="45.006" y2="75.012" gradientTransform="matrix(1.0833 0 0 1.0833 -17.998 -1.2506)" gradientUnits="userSpaceOnUse">
      <stop stop-color="#83a598" offset="0"/>
      <stop stop-color="#458588" offset=".3027"/>
      <stop stop-color="#076678" offset="1"/>
    </linearGradient>
    <linearGradient id="linearGradient14-5" x1="128" x2="128" y1="15.001" y2="241" gradientTransform="translate(0,4.8e-4)" gradientUnits="userSpaceOnUse">
      <stop stop-color="#ebdbb2" stop-opacity=".15" offset="0"/>
      <stop stop-color="#ebdbb2" stop-opacity=".05" offset=".2"/>
      <stop stop-opacity="0" offset=".70405"/>
      <stop stop-opacity=".05" offset=".80473"/>
      <stop stop-opacity=".1" offset="1"/>
    </linearGradient>
  </defs>
  <path d="m57 15c-9.9393 0-17 7.0595-17 17v192c0 9.9393 7.0595 17 17 17h142c9.9405 0 17-7.0607 17-17v-144l-64.999-64.999z" fill="url(#linearGradient26)" stroke-linecap="round" stroke-linejoin="round" stroke-miterlimit="0" style="paint-order:markers fill stroke"/>
  <path d="m57 241c-9.9393 0-17-7.0595-17-17v-43h176v43c0 9.9405-7.0607 17-17 17z" fill="#83a598" opacity=".7" stroke-linecap="round" stroke-linejoin="round" stroke-miterlimit="0" style="paint-order:markers fill stroke"/>
  <path d="m66.624 224.18c-0.51465-1.6096-1.085-3.201-1.632-4.8h-8.64c-0.56832 1.5924-1.1294 3.1855-1.632 4.8h-5.184c3.3704-9.6792 6.0724-16.499 8.832-22.176h4.768c3.3176 7.0256 5.945 13.885 8.832 22.176zm-5.984-17.152c-0.57287 1.7186-1.3199 3.2761-3.136 8.384h6.304c-0.05852-0.16458-1.4903-4.1899-3.168-8.384zm14.208 17.152v-22.176h14.848v4.192h-9.856v4.64h8.768v4.192h-8.768v9.152zm23.36-4.064c0.63779 0.0784 1.2789 0.064 1.92 0.064 6.2353 0 7.36-4.1265 7.36-7.104 0-6.2824-4.1842-7.072-7.2-7.072-0.69522-4e-3 -1.388 0.0434-2.08 0.096zm14.432-7.04c0 9.951-8.0845 11.392-12.768 11.392-0.70962 0-3.9895-0.0328-6.656-0.576v-21.6c0.10761-0.0199 2.9529-0.544 6.816-0.544 6.0053 0 12.608 2.0986 12.608 11.328zm4.16 11.104v-22.176h14.976v4.192h-9.984v4.352h8.864v4.096h-8.864v5.344h10.72v4.192zm25.44-3.808c2.5868 0 3.584-0.78537 3.584-2.304 0-1.2264-0.82098-2.119-4.544-3.36-2.7707-0.97791-6.08-2.364-6.08-6.56 0-4.1206 3.2309-6.656 8.16-6.656 2.9769 0 5.1286 0.75523 6.56 1.536l-1.44 3.936c-1.5013-0.80989-3.1114-1.1524-4.8-1.216-2.3353 0-3.36 0.63866-3.36 2.016 0.22532 1.9128 2.2696 2.3944 3.84 2.944 4.745 1.7574 6.816 3.2065 6.816 7.392 0 5.4071-4.7757 6.528-8.736 6.528-1.661 0-4.8395-0.21915-7.424-1.696l1.408-3.968c1.857 1.0529 3.9122 1.3653 6.016 1.408zm12.576-18.368h4.992v22.176h-4.992zm20.928 3.84c-4.9937 0-6.592 3.1717-6.592 7.232 0 4.4014 2.1183 7.264 6.144 7.264 1.4074 0 2.0172-0.0643 2.464-0.16v-7.712h4.992v10.976c-2.8324 1.1127-7.185 1.152-7.776 1.152-6.3662 0-11.008-3.8683-11.008-11.52 0-7.4476 4.9881-11.584 11.104-11.584 3.4601 0 6.1807 0.95895 7.36 1.696l-1.44 4c-0.7851-0.41708-2.8043-1.344-5.248-1.344zm26.528 18.336c-2.5893-4.5988-5.9407-9.8329-9.952-14.528v14.528h-4.928v-22.176h4.064c3.4758 3.4758 8.2755 10.429 10.048 13.088v-13.088h4.96v22.176z" fill="#ebdbb2" opacity=".15" aria-label="AFDESIGN"/>
  <path d="m66.624 222.18c-0.51465-1.6096-1.085-3.201-1.632-4.8h-8.64c-0.56832 1.5924-1.1294 3.1855-1.632 4.8h-5.184c3.3704-9.6792 6.0724-16.499 8.832-22.176h4.768c3.3176 7.0256 5.945 13.885 8.832 22.176zm-5.984-17.152c-0.57287 1.7186-1.3199 3.2761-3.136 8.384h6.304c-0.05852-0.16458-1.4903-4.1899-3.168-8.384zm14.208 17.152v-22.176h14.848v4.192h-9.856v4.64h8.768v4.192h-8.768v9.152zm23.36-4.064c0.63779 0.0784 1.2789 0.064 1.92 0.064 6.2353 0 7.36-4.1265 7.36-7.104 0-6.2824-4.1842-7.072-7.2-7.072-0.69521-4e-3 -1.388 0.0434-2.08 0.096zm14.432-7.04c0 9.951-8.0845 11.392-12.768 11.392-0.70962 0-3.9895-0.0328-6.656-0.576v-21.6c0.10761-0.0199 2.9529-0.544 6.816-0.544 6.0053 0 12.608 2.0986 12.608 11.328zm4.16 11.104v-22.176h14.976v4.192h-9.984v4.352h8.864v4.096h-8.864v5.344h10.72v4.192zm25.44-3.808c2.5868 0 3.584-0.78537 3.584-2.304 0-1.2264-0.82098-2.119-4.544-3.36-2.7707-0.97791-6.08-2.364-6.08-6.56 0-4.1206 3.2309-6.656 8.16-6.656 2.9769 0 5.1286 0.75523 6.56 1.536l-1.44 3.936c-1.5013-0.80989-3.1114-1.1524-4.8-1.216-2.3353 0-3.36 0.63866-3.36 2.016 0.22532 1.9128 2.2696 2.3944 3.84 2.944 4.745 1.7574 6.816 3.2065 6.816 7.392 0 5.4071-4.7757 6.528-8.736 6.528-1.661 0-4.8395-0.21915-7.424-1.696l1.408-3.968c1.857 1.0529 3.9122 1.3653 6.016 1.408zm12.576-18.368h4.992v22.176h-4.992zm20.928 3.84c-4.9937 0-6.592 3.1717-6.592 7.232 0 4.4014 2.1183 7.264 6.144 7.264 1.4074 0 2.0172-0.0643 2.464-0.16v-7.712h4.992v10.976c-2.8324 1.1127-7.185 1.152-7.776 1.152-6.3662 0-11.008-3.8683-11.008-11.52 0-7.4476 4.9881-11.584 11.104-11.584 3.4601 0 6.1807 0.95895 7.36 1.696l-1.44 4c-0.7851-0.41708-2.8043-1.344-5.248-1.344zm26.528 18.336c-2.5893-4.5988-5.9407-9.8329-9.952-14.528v14.528h-4.928v-22.176h4.064c3.4758 3.4758 8.2755 10.429 10.048 13.088v-13.088h4.96v22.176z" fill="#076678" aria-label="AFDESIGN"/>
  <path d="m143.36 199.49c-4.9291 0-8.1602 2.5356-8.1602 6.6562 0 0.38965 0.0378 0.74674 0.0918 1.0898 0.45327-3.5696 3.5211-5.7461 8.0684-5.7461 2.5928 0 4.5254 0.57846 5.9355 1.2422l0.625-1.707c-1.4314-0.78077-3.5837-1.5352-6.5605-1.5352zm31.713 0c-6.1159 0-11.104 4.1363-11.104 11.584 0 0.36 0.0188 0.70362 0.0391 1.0469 0.41147-6.8414 5.2169-10.631 11.064-10.631 3.0046 0 5.3837 0.71961 6.748 1.3926l0.61133-1.6973c-1.1793-0.73705-3.8992-1.6953-7.3594-1.6953zm-75.041 0.25586c-3.8631 0-6.7068 0.52307-6.8144 0.54297v2c0.10761-0.0199 2.9513-0.54297 6.8144-0.54297 5.7642 0 12.063 1.9522 12.561 10.27 0.0175-0.31264 0.0488-0.61017 0.0488-0.9414 1e-5 -9.2294-6.6041-11.328-12.609-11.328zm-41.664 0.25586c-2.7596 5.677-5.4616 12.497-8.832 22.176h0.71484c3.0328-8.5788 5.5619-14.919 8.1172-20.176h4.7695c3.0399 6.4375 5.5055 12.788 8.1172 20.176h0.71484c-2.887-8.291-5.5144-15.15-8.832-22.176zm16.48 0v2h14.848v-2zm41.953 0v2h14.975v-2zm38.016 0v2h4.9922v-2zm32.576 0v2h4.0625c3.4758 3.4758 8.2763 10.429 10.049 13.088v-2c-1.7725-2.6588-6.573-9.6121-10.049-13.088zm14.111 0v2h4.9609v-2zm-60.861 6.6875c-0.21004 0.28961-0.32227 0.64066-0.32227 1.0723 0.22532 1.9128 2.2695 2.3937 3.8398 2.9434 4.348 1.6104 6.4286 2.9886 6.75 6.4238 0.0415-0.3259 0.0664-0.66751 0.0664-1.0312 0-4.1855-2.0714-5.6352-6.8164-7.3926-1.2739-0.44584-2.8439-0.85908-3.5176-2.0156zm-18.852 1.8574v2h8.8652v-2zm-41.951 0.28711v2h8.7676v-2zm97.92 1.6328v2h4.9922v-2zm-70.318 1.5195c-0.23404 2.8426-1.6899 6.1914-7.3125 6.1914-0.64108 0-1.2841 0.0139-1.9219-0.0644v2c0.63779 0.0784 1.2808 0.0644 1.9219 0.0644 6.2353 0 7.3594-4.126 7.3594-7.1035 0-0.38302-0.017-0.74465-0.0469-1.0879zm61.768 0.01c-0.028 0.35404-0.0566 0.70755-0.0566 1.0781 0 4.4014 2.1188 7.2637 6.1445 7.2637 1.4074 0 2.016-0.0645 2.4629-0.16016v-2c-0.44685 0.0957-1.0555 0.16016-2.4629 0.16016-3.7314 0-5.8019-2.4773-6.0879-6.3418zm-110.96 1.4138c-0.26626 0.71977-0.41174 1.0651-0.74414 2h6.3047c-0.02182-0.0614-0.3832-1.0563-0.72852-2zm77.977 3.5527-1.4082 3.9668c0.19648 0.11228 0.40109 0.20455 0.60351 0.30274l0.80469-2.2695c1.857 1.0529 3.9118 1.3635 6.0156 1.4062 2.5868 0 3.584-0.78411 3.584-2.3027 0-0.33369-0.0709-0.6434-0.23438-0.9414-0.42285 0.82028-1.4571 1.2441-3.3496 1.2441-2.1038-0.0427-4.1586-0.35332-6.0156-1.4062zm-14.434 1.0234v2h10.721v-2z" fill="#282828" opacity=".2"/>
  <path class="ColorScheme-Text" d="m120.95 54.752-47.957 83.074v23.871c-7.7e-5 1.8142 1.462 3.2892 3.2761 3.3069h43.788l-23.132-40.067 40.529-70.181zm24.378 0-19.826 34.345 18.903 32.73h38.836v-63.83c-6e-3 -1.7915-1.4538-3.2454-3.2454-3.2453zm-24.378 42.219-9.3209 16.134c-1.0378 1.7992-1.0378 4.0146 0 5.8139 1.0383 1.8057 2.9638 2.8915 5.0448 2.8915h18.611zm-10.966 32.499 20.518 35.529h49.649c1.7062-0.0165 3.087-1.4006 3.0915-3.1069v-32.422z" color="#ebdbb2" fill="#282828" opacity=".2" stroke-width="7.875"/>
  <path class="ColorScheme-Text" d="m120.71 49.752-47.957 83.074v23.871c-7.8e-5 1.8142 1.462 3.2892 3.2761 3.3069h43.788l-23.132-40.067 40.529-70.181zm24.378 0-19.826 34.345 18.903 32.73h38.836v-63.83c-6e-3 -1.7915-1.4538-3.2454-3.2454-3.2453zm-24.378 42.219-9.3209 16.134c-1.0378 1.7992-1.0378 4.0146 0 5.8139 1.0383 1.8057 2.9638 2.8915 5.0448 2.8915h18.611zm-10.966 32.499 20.518 35.529h49.649c1.7062-0.0165 3.0869-1.4006 3.0915-3.1069v-32.422z" color="#ebdbb2" fill="#83a598" stroke-width="7.875"/>
  <path class="ColorScheme-Text" d="m120.71 49.752-47.955 83.074v23.872c-1.8e-5 0.42905 0.08689 0.83584 0.23575 1.2122v-20.202l47.957-83.074 13.446 0.0037 2.8197-4.882zm24.378 0-19.825 34.345 1.5277 2.6452 18.535-32.108h34.668c1.3696-5e-5 2.5319 0.85237 3.009 2.0531v-3.6903c-6e-3 -1.7915-1.4551-3.2448-3.2466-3.2448zm-24.378 42.219-9.3203 16.135c-0.99604 1.7269-1.0254 3.8334-0.10952 5.5911 0.0988-0.24198 0.2144-0.47899 0.34712-0.7091l9.3203-16.135 11.516 19.959h2.5821zm-22.496 30.614-1.2901 2.235 20.313 35.184h2.5821zm11.531 1.886 2.8197 4.882h70.438v-4.882z" fill="#ebdbb2" opacity=".2" stroke-width=".95042"/>
  <path d="m57 15c-9.9393 0-17 7.0595-17 17v192c0 9.9393 7.0595 17 17 17h142c9.9405 0 17-7.0607 17-17v-144l-65-64.998zm4.0332 4.9902 89.967 2e-3 60 60.009v139.75c0 9.4999-6.6575 16.248-16.033 16.248h-133.93c-9.3757 0-16.033-6.7481-16.033-16.248v-183.51c0-9.501 6.6586-16.25 16.033-16.25z" fill="url(#linearGradient14-5)" style="paint-order:markers fill stroke"/>
  <path d="m151 15.002v52.914c0 9.6525 7.8639 17.084 17.518 17.084l47.482-1.34e-4v-5z" fill="#282828" opacity=".3" stroke-width="1.0833"/>
  <path d="m151 15.001v47.916c0 9.6525 7.8639 17.084 17.518 17.084l47.482-1.34e-4z" fill="url(#linearGradient7-6-0)" stroke-width="1.0833"/>
</svg>
