<svg width="256" height="256" fill="none" version="1.1" viewBox="0 0 256 256" xmlns="http://www.w3.org/2000/svg">
  <path d="m55.08 15h100.5l60.4 60.15 2e-3 148.9c0 8.911-7.262 16.13-16.17 16.13h-144.8c-8.91 0-16.08-7.174-16.08-16.08v-193c0-8.91 7.173-16.08 16.08-16.08h1e-4z" fill="#ebdbb2"/>
  <path d="m83.13 46.01c-0.725-0.058-21.67 0.23-22.88 0.75l8.143 8.055h14.67zm16.82 0.04492c-0.2908 0-0.5381 0.0083-0.7852 0.01758-0.2328 0.0088-0.4651 0.01853-0.7344 0.01953l-5.104 5.803 8.801 8.758v9.154l10.27 11.29h5.867v-5.84l8.801-8.76v-5.842l5.867-5.838v-8.758zm-57.76 8.953v2e-3c-3.063 2.687-3.375 29.37-3.125 33.94-0.0822 3.497-0.0591 7.166-0.0332 11.15 0.0135 2.071 0.02734 4.229 0.02734 6.492v15.37l5.867 5.84h8.801l14.67 14.6v-17.52l8.799-8.758h5.867l8.801-8.762h8.801l-4.4-4.379 8.803-10.22-8.801-8.76h-13.2v11.68h-5.865l-5.869-5.84v-5.838l8.801-8.76h7.336v-5.84l-8.801-8.76h-14.67v8.76h-7.334zm155.3 8.566-8.799 8.76-5.867-5.84h-17.6l-8.799 8.76v7.297h8.799v-4.379h5.867v5.84l-2.934 2.918-11.73 0.1973-4.398 4.184h-5.867v5.84l-4.402 4.379v8.758h8.801l5.867-5.84h5.867v2.92l5.867 5.84h2.934v-2.92l-5.867-5.84h5.867l5.865 5.84h7.334l-4.4-4.379 4.4-4.379h4.402l4.398 4.379h-4.398l-4.4 4.379 4.32 4.301 0.0801 4.459h-5.867l17.6 17.52h2.932l2.934-2.918 5.867-5.84-5.867-5.84h8.801v-15.38c0-0.637 7e-3 -1.598 0.0137-2.812 0.034-6.321 0.1049-19.5-0.3301-29.52l-11.26-10.68zm-14.67 55.47h-17.6l-2.934-2.92h-17.6l-10.27 10.22v14.6l7.332 7.299h10.27l4.398 4.379v4.381l2.934 2.92v17.52l11.14 11.72 18.39-18.31-0.1973-16.77 14.67-14.6h-5.867l-14.67-14.6zm-57.2-40.87v4.379h8.799l-4.398-4.379zm26.4 1.459-4.4 4.379v4.381h4.4zm-45.47 16.06-4.4 4.379h4.4l1.467 1.461h1.467l1.467-1.461zm-24.93 30.66-4.4 4.381h8.799v-4.381zm-4.402 13.14-5.867 5.84v14.6l11.77 10.27-0.03906 13.09-4.4 4.381v18.98l2.244 2.4 2e-3 -2e-3c0.1865 0.013 0.3595 0.0289 0.5332 0.0449h2e-3c0.193 0.019 0.3869 0.0388 0.5977 0.0508 0.1589 0.01 0.3455 0.01 0.5332 0.0117 0.1811 2e-3 0.363 4e-3 0.5176 0.0117l-0.0293-5.436 19.07-17.52v-5.84l8.801-8.76v-4.377l4.398-4.381v-11.68l-5.865-5.84h-11.73l-5.867-5.84zm121.7 20.44-5.869 5.443v9.154h5.869z" fill="#458588" opacity=".4"/>
  <path d="m155.6 20.32h-100.5c-5.973 0-10.76 4.792-10.76 10.76v193c0 5.973 4.792 10.76 10.76 10.76h144.8c5.992 0 10.85-4.856 10.85-10.81v-148.9zm0-5.319h-100.5c-8.91 0-16.08 7.173-16.08 16.08v193c0 8.91 7.173 16.08 16.08 16.08h144.8c8.911 0 16.17-7.218 16.17-16.13l-2e-3 -148.9z" clip-rule="evenodd" fill="url(#paint2_linear)" fill-rule="evenodd"/>
  <path d="m128 68c5.508 0 10.82 0.7156 15.94 2.139 5.12 1.432 9.903 3.436 14.36 6.038 4.439 2.588 8.524 5.738 12.16 9.373 3.636 3.63 6.787 7.716 9.373 12.16 2.621 4.506 4.65 9.332 6.038 14.36 1.428 5.119 2.139 10.43 2.139 15.94s-0.716 10.82-2.139 15.94c-1.387 5.025-3.417 9.851-6.038 14.36-2.588 4.439-5.738 8.524-9.372 12.16-3.63 3.636-7.716 6.787-12.16 9.373-4.507 2.621-9.333 4.651-14.36 6.038-5.19 1.436-10.55 2.155-15.94 2.139-5.503 0-10.82-0.716-15.94-2.139-5.025-1.387-9.851-3.417-14.36-6.038-4.439-2.588-8.524-5.738-12.16-9.373-3.635-3.631-6.786-7.717-9.373-12.16-2.615-4.498-4.643-9.313-6.033-14.33-1.442-5.199-2.163-10.57-2.143-15.97 0-5.508 0.7166-10.82 2.144-15.94 1.386-5.026 3.414-9.851 6.033-14.36 2.588-4.438 5.738-8.524 9.372-12.16 3.631-3.637 7.718-6.788 12.16-9.373 4.497-2.617 9.311-4.646 14.32-6.038 5.198-1.44 10.57-2.16 15.96-2.139zm-52.5 60c0 5.196 0.72 10.2 2.164 15h21.27c-0.6222-4.976-0.9345-9.986-0.9389-15-0.0022-5.014 0.3111-10.02 0.9389-15h-21.27c-1.452 4.867-2.181 9.92-2.164 15zm35.33-49.63c-3.286 1.138-6.447 2.609-9.433 4.391-2.982 1.779-5.788 3.84-8.377 6.156-2.588 2.313-4.944 4.874-7.033 7.647-2.102 2.782-3.908 5.777-5.389 8.934h19.51c0.478-2.379 1.026-4.743 1.642-7.09 0.626-2.391 1.38-4.746 2.257-7.057 0.873-2.312 1.88-4.571 3.015-6.767 1.117-2.161 2.389-4.238 3.807-6.214zm-30.24 72.13c1.478 3.16 3.285 6.156 5.389 8.938 4.188 5.562 9.423 10.25 15.41 13.8 2.984 1.784 6.145 3.256 9.432 4.391-1.418-1.975-2.691-4.05-3.807-6.21-1.139-2.194-2.147-4.454-3.018-6.767-0.874-2.313-1.627-4.67-2.257-7.061-0.619-2.344-1.167-4.708-1.642-7.085h-19.51v-9e-3zm68.9-7.495c0.316-2.501 0.56-4.993 0.737-7.473 0.357-5.013 0.357-10.04 0-15.06-0.177-2.484-0.421-4.969-0.737-7.47h-43.01c-0.311 2.484-0.556 4.974-0.732 7.47-0.357 5.012-0.357 10.04 0 15.06 0.177 2.484 0.421 4.969 0.733 7.474h43zm-21.5-67.5c-1.902-0.0031-3.765 0.547-5.36 1.583-1.659 1.057-3.191 2.442-4.598 4.16-1.406 1.722-2.665 3.663-3.781 5.832-2.127 4.17-3.845 8.537-5.128 13.04-0.511 1.78-0.961 3.578-1.347 5.39h40.43c-0.861-4.031-2.037-7.988-3.516-11.84-0.868-2.249-1.856-4.45-2.96-6.593-1.049-2.072-2.316-4.027-3.777-5.832-1.301-1.624-2.855-3.029-4.602-4.16-1.597-1.035-3.46-1.585-5.364-1.582v-0.0011zm0 105c1.916 0 3.706-0.527 5.36-1.583 1.663-1.057 3.196-2.443 4.602-4.16 1.407-1.723 2.666-3.664 3.781-5.832 2.128-4.17 3.846-8.537 5.129-13.04 0.511-1.782 0.958-3.578 1.342-5.389h-40.42c0.86 4.03 2.034 7.987 3.511 11.83 0.871 2.249 1.859 4.45 2.96 6.594 1.116 2.168 2.375 4.109 3.781 5.832 1.407 1.717 2.939 3.107 4.598 4.16 1.663 1.052 3.449 1.583 5.36 1.583zm47.41-75c-1.48-3.158-3.286-6.152-5.388-8.934-4.188-5.562-9.424-10.25-15.41-13.8-2.985-1.785-6.145-3.257-9.433-4.391 1.418 1.975 2.69 4.051 3.807 6.211 1.138 2.194 2.146 4.453 3.019 6.766 0.873 2.313 1.627 4.67 2.257 7.061 0.623 2.383 1.171 4.745 1.637 7.086h19.51l1e-3 4e-3zm-30.24 72.13c3.286-1.135 6.447-2.606 9.431-4.391 2.984-1.78 5.791-3.841 8.383-6.156 2.588-2.313 4.942-4.874 7.031-7.647 2.102-2.782 3.908-5.776 5.389-8.934h-19.51c-0.479 2.379-1.027 4.743-1.643 7.09-0.625 2.391-1.377 4.747-2.252 7.058-0.873 2.312-1.88 4.571-3.015 6.766-1.117 2.162-2.39 4.239-3.81 6.214zm35.33-49.63c0-5.195-0.725-10.2-2.165-15h-21.27c0.62 4.976 0.932 9.985 0.934 15 3e-3 5.016-0.309 10.03-0.934 15h21.27c1.439-4.804 2.164-9.806 2.164-15h-2e-3z" clip-rule="evenodd" fill="url(#paint3_linear)" fill-rule="evenodd"/>
  <path d="m155.6 17v44.23c0 8.91 7.259 15.93 16.17 15.93l44.23-0.0112v-2l-60.4-58.15z" fill="#282828" opacity=".25"/>
  <path d="m155.6 15v44.23c0 8.91 7.259 15.93 16.17 15.93l44.23-0.0112-60.4-60.15z" fill="url(#paint4_linear)"/>
  <defs>
    <linearGradient id="paint2_linear" x1="126.4" x2="127.1" y1="14.91" y2="240.9" gradientUnits="userSpaceOnUse">
      <stop stop-color="#458588" offset="0"/>
      <stop stop-color="#076678" offset="1"/>
    </linearGradient>
    <linearGradient id="paint3_linear" x1="127.3" x2="127.6" y1="67.95" y2="188.4" gradientUnits="userSpaceOnUse">
      <stop stop-color="#458588" offset="0"/>
      <stop stop-color="#076678" offset="1"/>
    </linearGradient>
    <linearGradient id="paint4_linear" x1="185.4" x2="185.6" y1="14.98" y2="75.36" gradientUnits="userSpaceOnUse">
      <stop stop-color="#458588" offset="0"/>
      <stop stop-color="#076678" offset="1"/>
    </linearGradient>
  </defs>
</svg>
