<svg width="256" height="256" version="1.1" viewBox="0 0 256 256" xmlns="http://www.w3.org/2000/svg">
  <defs>
    <linearGradient id="linearGradient26" x1="-160" x2="-160" y2="226" gradientTransform="translate(267,15)" gradientUnits="userSpaceOnUse">
      <stop stop-color="#458588" offset="0"/>
      <stop stop-color="#458588" offset="1"/>
    </linearGradient>
    <linearGradient id="linearGradient14-5" x1="128" x2="128" y1="15.001" y2="241" gradientTransform="translate(0,4.8e-4)" gradientUnits="userSpaceOnUse">
      <stop stop-color="#ebdbb2" stop-opacity=".15" offset="0"/>
      <stop stop-color="#ebdbb2" stop-opacity=".05" offset=".2"/>
      <stop stop-opacity="0" offset=".70405"/>
      <stop stop-opacity=".05" offset=".80473"/>
      <stop stop-opacity=".1" offset="1"/>
    </linearGradient>
    <linearGradient id="linearGradient7-6-0-8" x1="186" x2="156" y1="45.006" y2="75.012" gradientTransform="matrix(1.0833,0,0,1.0833,-17.998,-1.2502)" gradientUnits="userSpaceOnUse">
      <stop stop-color="#83a598" offset="0"/>
      <stop stop-color="#458588" offset=".3027"/>
      <stop stop-color="#076678" offset="1"/>
    </linearGradient>
  </defs>
  <path d="m57 15c-9.9393 0-17 7.0595-17 17v192c0 9.9393 7.0595 17 17 17h142c9.9405 0 17-7.0607 17-17v-144l-64.999-64.999z" fill="url(#linearGradient26)" stroke-linecap="round" stroke-linejoin="round" stroke-miterlimit="0" style="paint-order:markers fill stroke"/>
  <path d="m57 241c-9.9393 0-17-7.0595-17-17v-43h176v43c0 9.9405-7.0607 17-17 17z" fill="#83a598" opacity=".8" stroke-linecap="round" stroke-linejoin="round" stroke-miterlimit="0" style="paint-order:markers fill stroke"/>
  <path d="m98.32 227.52c-3.9745 0-6.8192-0.28408-9.24-0.8v-26.88c2.835-0.53155 6.6089-0.72 8.44-0.72 5.7428 0 12.08 1.2536 12.08 7.8 0 2.2133-1.0667 3.96-3.2 5.24 3.0743 1.0716 4.4184 3.479 4.56 6.6 0 6.8145-5.901 8.76-12.64 8.76zm-3.16-12.44v7.16c0.98081 0.11539 2.0707 0.16 3.24 0.16 2.8306-6e-3 5.9596-0.46056 6.24-3.76 0-0.94028-0.0632-3.56-5.56-3.56zm0-4.76h3.04c3.4646 0 5.36-0.71411 5.36-3.12 0-1.4248-0.57021-3.04-5.04-3.04-1.1212 0.0106-2.2423 0.0329-3.36 0.12zm28.92-11.2c7.1485 0 12.88 2.1678 12.88 9.12 0 2.1895-0.48892 5.6557-5.2 7.6 3.551 4.3964 6.5069 10.532 6.88 11.32h-7c-4.0059-7.1684-5.2516-8.79-6.36-10.12h-3.08v10.12h-6.24v-27.32c3.1191-0.6116 6.3871-0.72 8.12-0.72zm0.36 5.32c-0.74882-0.01-1.4946 0.0599-2.24 0.12v7.52h1.76c4.8398 0 6.56-1.1781 6.56-3.88 0-1.4407-0.45697-3.76-6.08-3.76zm24.44 17.64c0.79723 0.0981 1.5986 0.08 2.4 0.08 7.7941 0 9.2-5.1581 9.2-8.88 0-7.853-5.2303-8.84-9-8.84-0.86857 4e-3 -1.7356 0.0424-2.6 0.12zm18.04-8.8c0 12.439-10.106 14.24-15.96 14.24-0.88703 0-4.9869-0.041-8.32-0.72v-27c0.13451-0.0249 3.6911-0.68 8.52-0.68 7.5066 0 15.76 2.6232 15.76 14.16z" fill="#ebdbb2" opacity=".15" aria-label="BRDI"/>
  <path d="m98.32 224.52c-3.9745 0-6.8192-0.28408-9.24-0.8v-26.88c2.835-0.53155 6.6089-0.72 8.44-0.72 5.7428 0 12.08 1.2536 12.08 7.8 0 2.2133-1.0667 3.96-3.2 5.24 3.0743 1.0716 4.4184 3.479 4.56 6.6 0 6.8145-5.901 8.76-12.64 8.76zm-3.16-12.44v7.16c0.98081 0.11539 2.0707 0.16 3.24 0.16 2.8306-6e-3 5.9596-0.46056 6.24-3.76 0-0.94028-0.0632-3.56-5.56-3.56zm0-4.76h3.04c3.4646 0 5.36-0.71411 5.36-3.12 0-1.4248-0.57021-3.04-5.04-3.04-1.1212 0.0106-2.2423 0.0329-3.36 0.12zm28.92-11.2c7.1485 0 12.88 2.1678 12.88 9.12 0 2.1895-0.48892 5.6557-5.2 7.6 3.551 4.3964 6.5069 10.532 6.88 11.32h-7c-4.0059-7.1684-5.2516-8.79-6.36-10.12h-3.08v10.12h-6.24v-27.32c3.1191-0.6116 6.3871-0.72 8.12-0.72zm0.36 5.32c-0.74882-0.01-1.4946 0.0599-2.24 0.12v7.52h1.76c4.8398 0 6.56-1.1781 6.56-3.88 0-1.4407-0.45697-3.76-6.08-3.76zm24.44 17.64c0.79723 0.0981 1.5986 0.08 2.4 0.08 7.7941 0 9.2-5.1581 9.2-8.88 0-7.853-5.2303-8.84-9-8.84-0.86857 4e-3 -1.7356 0.0424-2.6 0.12zm18.04-8.8c0 12.439-10.106 14.24-15.96 14.24-0.88703 0-4.9869-0.041-8.32-0.72v-27c0.13451-0.0249 3.6911-0.68 8.52-0.68 7.5066 0 15.76 2.6232 15.76 14.16z" fill="#076678" aria-label="BRDI"/>
  <path d="m97.519 196.12c-1.8311 0-5.6045 0.18915-8.4394 0.7207v3c2.835-0.53155 6.6084-0.7207 8.4394-0.7207 5.2302 0 10.938 1.0547 11.918 6.1855 0.1026-0.4405 0.16211-0.89937 0.16211-1.3848 0-6.5464-6.3373-7.8008-12.08-7.8008zm26.561 0c-1.7329 0-5 0.1091-8.1191 0.7207v3c3.1191-0.6116 6.3862-0.7207 8.1191-0.7207 6.6045 0 11.989 1.8606 12.771 7.625 0.0747-0.5368 0.10938-1.0514 0.10938-1.5039 0-6.9522-5.7323-9.1211-12.881-9.1211zm27.08 0c-4.8289 0-8.385 0.65674-8.5195 0.68164v2.998c0.13452-0.0249 3.6906-0.67969 8.5195-0.67969 7.1622 0 14.999 2.3949 15.703 12.635 0.0331-0.47569 0.0566-0.96362 0.0566-1.4746 0-11.537-8.2532-14.16-15.76-14.16zm-47.961 9.5996c-0.7014 1.2033-2.4131 1.6016-5 1.6016h-3.0391v3h3.0391c3.4646 0 5.3613-0.7152 5.3613-3.1211 0-0.49676-0.0816-1.0139-0.36133-1.4805zm27.051 1.0391c-0.64226 1.5993-2.5121 2.3223-6.2891 2.3223h-1.7617v3h1.7617c4.8398 0 6.5586-1.1789 6.5586-3.8808 0-0.43088-0.0618-0.9389-0.26953-1.4414zm-21.748 3.5508c-0.51873 0.69662-1.2114 1.3174-2.1016 1.8516 2.6243 0.9147 3.9791 2.8069 4.4102 5.2812 0.0885-0.52786 0.15039-1.0798 0.15039-1.6816-0.10357-2.2828-0.86225-4.1754-2.459-5.4512zm51.898 1.4434c-0.38126 3.4754-2.3152 7.4082-9.1211 7.4082-0.80135 0-1.6012 0.018-2.3984-0.0801v3c0.79723 0.0981 1.5971 0.0801 2.3984 0.0801 7.7941 0 9.2012-5.159 9.2012-8.8809 0-0.54411-0.0321-1.0472-0.0801-1.5273zm-27.025 3.2676c-0.47437 0.29465-1.009 0.57011-1.6152 0.82031 2.1865 2.7071 4.0628 5.9489 5.334 8.3203h1.5469c-0.31444-0.66384-2.472-5.122-5.2656-9.1406zm-29.09 2.0039c-0.93986 2.0437-3.5134 2.3719-5.8848 2.377-1.1693 0-2.2594-0.0448-3.2402-0.16016v3c0.98081 0.11539 2.071 0.16016 3.2402 0.16016 2.8306-6e-3 5.9598-0.46228 6.2402-3.7617 0-0.3676-0.0153-0.99116-0.35546-1.6152z" fill="#282828" opacity=".3"/>
  <path d="m166 53c-7.1797 0-13 5.8203-13 13 9e-3 2.0527 0.50461 4.074 1.4453 5.8984l-9.1016 9.1016h-47.957l-15.521 14.947c-2.9313-1.922-6.36-2.9464-9.8652-2.9473-9.9411 0-18 8.0589-18 18 0 9.9411 8.0589 18 18 18s18-8.0589 18-18c-2.29e-4 -3.2744-0.89362-6.4867-2.584-9.291l13.197-12.709h48.043l11.445-11.445c1.8245 0.9407 3.8458 1.436 5.8984 1.4453 7.1797 0 13-5.8203 13-13s-5.8203-13-13-13zm-84.5 4c-4.1421-1e-6 -7.5 3.3579-7.5 7.5-1e-6 4.1421 3.3579 7.5 7.5 7.5 4.1421 1e-6 7.5-3.3579 7.5-7.5 1e-6 -4.1421-3.3579-7.5-7.5-7.5zm25.936 0c-4.1421-3e-6 -7.5 3.3579-7.5 7.5s3.3579 7.5 7.5 7.5c4.1421 1e-6 7.5-3.3579 7.5-7.5s-3.3579-7.5-7.5-7.5zm23.064 0c-4.1421-1e-6 -7.5 3.3579-7.5 7.5s3.3579 7.5 7.5 7.5c4.1421 1e-6 7.5-3.3579 7.5-7.5s-3.3579-7.5-7.5-7.5zm35.5 1c4.4183 0 8 3.5817 8 8s-3.5817 8-8 8-8-3.5817-8-8 3.5817-8 8-8zm1 41c-8.3828 0.0214-15.641 5.8268-17.504 14h-41.115l-31.697 30.707c-1.1723-0.4659-2.4221-0.7058-3.6836-0.70703-5.5228 0-10 4.4772-10 10s4.4772 10 10 10 10-4.4772 10-10c-0.0011-1.2367-0.23152-2.4626-0.67969-3.6152l29.299-28.385h37.877c1.8628 8.1732 9.1211 13.979 17.504 14 9.9411 0 18-8.0589 18-18s-8.0589-18-18-18zm-43 29c-7.1797 0-13 5.8203-13 13s5.8203 13 13 13c2.1059-0.0107 4.1777-0.53282 6.0371-1.5215l11.398 10.521h74.564v-8h-71.436l-8.9316-8.2441c0.89204-1.788 1.3599-3.7577 1.3672-5.7559 0-7.1797-5.8203-13-13-13zm0 7a6 6 0 0 1 6 6 6 6 0 0 1-6 6 6 6 0 0 1-6-6 6 6 0 0 1 6-6zm-51 13c2.7614 0 5 2.2386 5 5s-2.2386 5-5 5-5-2.2386-5-5 2.2386-5 5-5z" fill="#282828" opacity=".2" style="paint-order:markers fill stroke"/>
  <path d="m166 50c-7.1797 0-13 5.8203-13 13 9e-3 2.0527 0.50461 4.074 1.4453 5.8984l-9.1016 9.1016h-47.957l-15.521 14.947c-2.9313-1.922-6.36-2.9464-9.8652-2.9473-9.9411 0-18 8.0589-18 18 0 9.9411 8.0589 18 18 18s18-8.0589 18-18c-2.29e-4 -3.2744-0.89362-6.4867-2.584-9.291l13.197-12.709h48.043l11.445-11.445c1.8245 0.9407 3.8458 1.436 5.8984 1.4453 7.1797 0 13-5.8203 13-13s-5.8203-13-13-13zm-84.5 4c-4.1421-1e-6 -7.5 3.3579-7.5 7.5-1e-6 4.1421 3.3579 7.5 7.5 7.5 4.1421 1e-6 7.5-3.3579 7.5-7.5 1e-6 -4.1421-3.3579-7.5-7.5-7.5zm25.936 0c-4.1421-3e-6 -7.5 3.3579-7.5 7.5-1e-6 4.1421 3.3579 7.5 7.5 7.5 4.1421 1e-6 7.5-3.3579 7.5-7.5s-3.3579-7.5-7.5-7.5zm23.064 0c-4.1421-1e-6 -7.5 3.3579-7.5 7.5s3.3579 7.5 7.5 7.5c4.1421 1e-6 7.5-3.3579 7.5-7.5s-3.3579-7.5-7.5-7.5zm35.5 1c4.4183 0 8 3.5817 8 8s-3.5817 8-8 8-8-3.5817-8-8 3.5817-8 8-8zm1 41c-8.3828 0.02144-15.641 5.8268-17.504 14h-41.115l-31.697 30.707c-1.1723-0.4659-2.4221-0.7058-3.6836-0.70703-5.5228 0-10 4.4772-10 10s4.4772 10 10 10 10-4.4772 10-10c-0.0011-1.2367-0.23152-2.4626-0.67969-3.6152l29.299-28.385h37.877c1.8628 8.1732 9.1211 13.979 17.504 14 9.9411 0 18-8.0589 18-18s-8.0589-18-18-18zm-43 29c-7.1797 0-13 5.8203-13 13s5.8203 13 13 13c2.1059-0.0107 4.1777-0.53282 6.0371-1.5215l11.398 10.521h74.564v-8h-71.436l-8.9316-8.2441c0.89204-1.788 1.3599-3.7577 1.3672-5.7559 0-7.1797-5.8203-13-13-13zm0 7a6 6 0 0 1 6 6 6 6 0 0 1-6 6 6 6 0 0 1-6-6 6 6 0 0 1 6-6zm-51 13c2.7614 0 5 2.2386 5 5s-2.2386 5-5 5-5-2.2386-5-5 2.2386-5 5-5z" fill="#ebdbb2" style="paint-order:markers fill stroke"/>
  <path d="m166 50c-7.1797 0-13 5.8203-13 13 2e-3 0.49744 0.035 0.99298 0.0937 1.4844 0.75156-6.4648 6.2399-11.484 12.906-11.484 6.6718 0 12.164 5.0276 12.908 11.5 0.0567-0.49267 0.0918-0.99215 0.0918-1.5 0-7.1797-5.8203-13-13-13zm-84.5 4c-4.1421-1e-6 -7.5 3.3579-7.5 7.5 0 0.51373 0.052 1.0153 0.15039 1.5 0.69494-3.4233 3.7212-6 7.3496-6 3.6284-1e-6 6.6547 2.5767 7.3496 6 0.09839-0.48469 0.15039-0.98627 0.15039-1.5 1e-6 -4.1421-3.3579-7.5-7.5-7.5zm25.936 0c-4.1421-3e-6 -7.5 3.3579-7.5 7.5 0 0.51373 0.052 1.0153 0.15039 1.5 0.69493-3.4233 3.7212-6 7.3496-6 3.6284-1e-6 6.6547 2.5767 7.3496 6 0.0984-0.48469 0.15039-0.98627 0.15039-1.5 0-4.1421-3.3579-7.5-7.5-7.5zm23.064 0c-4.1421-1e-6 -7.5 3.3579-7.5 7.5 0 0.51373 0.052 1.0153 0.15039 1.5 0.69494-3.4233 3.7212-6 7.3496-6 3.6284-1e-6 6.6547 2.5767 7.3496 6 0.0984-0.48469 0.15039-0.98627 0.15039-1.5 0-4.1421-3.3579-7.5-7.5-7.5zm27.65 10.5c-0.0927 0.48713-0.15039 0.98589-0.15039 1.5 0 4.4183 3.5817 8 8 8s8-3.5817 8-8c0-0.51411-0.0577-1.0129-0.15039-1.5-0.7037 3.6993-3.9454 6.5-7.8496 6.5s-7.1459-2.8007-7.8496-6.5zm-4.5566 5.25-8.25 8.25h-47.957l-15.521 14.947c-2.9313-1.922-6.36-2.9464-9.8652-2.9473-9.9411 0-18 8.0589-18 18 0 0.50655 0.03514 1.004 0.07617 1.5 0.76421-9.2373 8.4893-16.5 17.924-16.5 3.5052 9.1e-4 6.9339 1.0252 9.8652 2.9473l15.521-14.947h47.957l9.1016-9.1016c-0.35528-0.68906-0.62549-1.4121-0.85156-2.1484zm13.406 26.25c-8.3828 0.0214-15.641 5.8268-17.504 14h-41.115l-31.697 30.707c-1.1723-0.4659-2.4221-0.7058-3.6836-0.70703-5.5228 0-10 4.4772-10 10 0 0.51137 0.05096 1.0093 0.125 1.5 0.72563-4.8091 4.8635-8.5 9.875-8.5 1.2615 1e-3 2.5113 0.24113 3.6836 0.70703l31.697-30.707h41.115c1.8628-8.1732 9.1211-13.979 17.504-14 9.4346 0 17.16 7.2627 17.924 16.5 0.041-0.49596 0.0762-0.99345 0.0762-1.5 0-9.9411-8.0589-18-18-18zm-78.553 4.7148-1.0312 0.99414c1.4677 2.435 2.2931 5.1822 2.4961 8.0059 0.05348-0.56512 0.08789-1.1357 0.08789-1.7148-1.76e-4 -2.519-0.53917-4.9971-1.5527-7.2852zm35.553 24.285c-7.1797 0-13 5.8203-13 13 0 0.50785 0.0351 1.0073 0.0918 1.5 0.7444-6.4724 6.2364-11.5 12.908-11.5 6.6704 0 12.16 5.0257 12.906 11.496 0.0593-0.49557 0.0919-0.99449 0.0937-1.4961 0-7.1797-5.8203-13-13-13zm5.7422 14.295a6 6 0 0 1-5.7422 4.7051 6 6 0 0 1-5.7012-4.5 6 6 0 0 0-0.29883 1.5 6 6 0 0 0 6 6 6 6 0 0 0 6-6 6 6 0 0 0-0.25781-1.7051zm6.7344 5.2402c-0.21848 0.76085-0.48812 1.5079-0.84375 2.2207l8.9316 8.2441h71.436v-3h-71.436zm-53.586 4.2969-0.57031 0.55274c0.27332 0.70296 0.4362 1.4364 0.54492 2.1797 0.08053-0.51111 0.13477-1.0307 0.13477-1.5644-3.49e-4 -0.39256-0.06319-0.7796-0.10938-1.168zm-14.637 2.668c-0.15078 0.47648-0.25391 0.97365-0.25391 1.5 0 2.7614 2.2386 5 5 5s5-2.2386 5-5c0-0.52635-0.10313-1.0235-0.25391-1.5-0.64027 2.0233-2.511 3.5-4.7461 3.5s-4.1058-1.4767-4.7461-3.5z" fill="#fbf1c7" opacity=".6" style="paint-order:markers fill stroke"/>
  <path d="m57 15c-9.9393 0-17 7.0595-17 17v192c0 9.9393 7.0595 17 17 17h142c9.9405 0 17-7.0607 17-17v-144l-65-64.998zm4.0332 4.9902 89.967 2e-3 60 60.009v139.75c0 9.4999-6.6575 16.248-16.033 16.248h-133.93c-9.3757 0-16.033-6.7481-16.033-16.248v-183.51c0-9.501 6.6586-16.25 16.033-16.25z" fill="url(#linearGradient14-5)" style="paint-order:markers fill stroke"/>
  <path d="m151 15.002v52.914c0 9.6525 7.8639 17.084 17.518 17.084l47.482-1.34e-4v-5z" fill="#282828" opacity=".3" stroke-width="1.0833"/>
  <path d="m151 15.001v47.916c0 9.6525 7.8639 17.084 17.518 17.084l47.482-1.34e-4z" fill="url(#linearGradient7-6-0-8)" stroke-width="1.0833"/>
</svg>
