<svg width="256" height="256" version="1.1" viewBox="0 0 256 256" xmlns="http://www.w3.org/2000/svg">
  <defs>
    <linearGradient id="linearGradient7-6-0" x1="186" x2="156" y1="45.006" y2="75.012" gradientTransform="matrix(1.0833 0 0 1.0833 -17.998 -1.2507)" gradientUnits="userSpaceOnUse">
      <stop stop-color="#665c54" offset="0"/>
      <stop stop-color="#3c3836" offset=".3027"/>
      <stop stop-color="#282828" offset="1"/>
    </linearGradient>
    <linearGradient id="linearGradient14-5" x1="128" x2="128" y1="15.001" y2="241" gradientTransform="translate(0,4.8e-4)" gradientUnits="userSpaceOnUse">
      <stop stop-color="#ebdbb2" stop-opacity=".1" offset="0"/>
      <stop stop-color="#ebdbb2" stop-opacity=".05" offset=".2"/>
      <stop stop-opacity="0" offset=".70405"/>
      <stop stop-opacity=".05" offset=".80473"/>
      <stop stop-opacity=".1" offset="1"/>
    </linearGradient>
    <linearGradient id="_lgradient_11" x1=".5" x2=".5" y1="1.018" y2="-1.404e-5" gradientTransform="matrix(105.89 0 0 108.87 75.031 46.15)" gradientUnits="userSpaceOnUse">
      <stop stop-color="#d79921" offset="0"/>
      <stop stop-color="#fabd2f" offset="1"/>
    </linearGradient>
    <linearGradient id="linearGradient25" x1=".5" x2=".5" y1="1.018" y2="-1.404e-5" gradientTransform="matrix(105.89 0 0 108.87 75.031 46.15)" gradientUnits="userSpaceOnUse">
      <stop stop-color="#fabd2f" offset="0"/>
      <stop stop-color="#d79921" offset="1"/>
    </linearGradient>
  </defs>
  <path d="m57 15c-9.9393 0-17 7.0595-17 17v149h176v-101l-64.998-64.998-94.002-0.001953z" fill="#504945" style="paint-order:markers fill stroke"/>
  <path d="m57 241c-9.9393 0-17-7.0595-17-17v-43h176v43c0 9.9405-7.0607 17-17 17z" fill="#fabd2f" stroke-linecap="round" stroke-linejoin="round" stroke-miterlimit="0" style="paint-order:markers fill stroke"/>
  <path d="m66.305 222.79c-0.48249-1.509-1.0172-3.0009-1.53-4.5h-8.1c-0.53476 1.4922-1.0562 2.9872-1.53 4.5h-4.86c3.1598-9.0743 5.6928-15.468 8.28-20.79h4.47c3.1103 6.5865 5.5734 13.017 8.28 20.79zm-5.61-16.08c-0.53706 1.6112-1.2374 3.0714-2.94 7.86h5.91c-0.05486-0.1543-1.3972-3.928-2.97-7.86zm19.56-4.95c9.2841 0 9.63 4.8761 9.63 6.99 0 2.4971-0.63786 7.08-9.72 7.08h-1.47v6.96h-4.68v-20.49c2.2521-0.44158 4.835-0.54 6.24-0.54zm0.3 3.99c-0.71356 0-1.3866 0.0505-1.86 0.09v6h1.47c4.2499 0 4.89-1.4498 4.89-3.12 0-2.0394-1.3741-2.97-4.5-2.97zm19.02-3.99c9.2841 0 9.63 4.8761 9.63 6.99 0 2.4971-0.63787 7.08-9.72 7.08h-1.47v6.96h-4.68v-20.49c2.2521-0.44158 4.835-0.54 6.24-0.54zm0.3 3.99c-0.71356 0-1.3866 0.0505-1.86 0.09v6h1.47c4.2499 0 4.89-1.4498 4.89-3.12 0-2.0394-1.3741-2.97-4.5-2.97zm12.78-3.75h4.68v20.79h-4.68zm15 0c2.1058 4.0229 3.8716 8.2112 5.64 12.39 1.7676-4.1793 3.5007-8.3831 5.64-12.39h4.26c0.90141 6.895 1.2991 13.848 1.65 20.79h-4.56c-0.15663-5.2732-0.33831-9.5446-0.69-13.8-1.6095 3.7118-3.1814 7.4393-4.77 11.16h-3.27c-1.601-3.7154-3.1748-7.4421-4.77-11.16-0.35169 4.2554-0.53337 8.5269-0.69 13.8h-4.56c0.46252-9.4816 0.92971-15.82 1.65-20.79zm35.31 20.79c-0.48249-1.509-1.0172-3.0009-1.53-4.5h-8.1c-0.53476 1.4922-1.0562 2.9872-1.53 4.5h-4.86c3.1598-9.0743 5.6928-15.468 8.28-20.79h4.47c3.1103 6.5865 5.5734 13.017 8.28 20.79zm-5.61-16.08c-0.53706 1.6112-1.2374 3.0714-2.94 7.86h5.91c-0.0549-0.1543-1.3972-3.928-2.97-7.86zm22.71-1.11c-4.6816 0-6.18 2.9734-6.18 6.78 0 3.7186 1.649 6.81 5.76 6.81 1.3195 0 1.8911-0.0602 2.31-0.15v-7.23h4.68v10.29c-2.6554 1.0432-6.736 1.08-7.29 1.08-5.9683 0-10.32-3.6265-10.32-10.8 0-6.9822 4.6763-10.86 10.41-10.86 3.2439 0 5.7944 0.89902 6.9 1.59l-1.35 3.75c-0.73603-0.39102-2.629-1.26-4.92-1.26zm10.92 17.19v-20.79h14.04v3.93h-9.36v4.08h8.31v3.84h-8.31v5.01h10.05v3.93z" fill="#ebdbb2" opacity=".4" aria-label="APPIMAGE"/>
  <path d="m66.305 220.79c-0.48249-1.509-1.0172-3.0009-1.53-4.5h-8.1c-0.53476 1.4922-1.0562 2.9872-1.53 4.5h-4.86c3.1598-9.0743 5.6928-15.468 8.28-20.79h4.47c3.1103 6.5865 5.5734 13.017 8.28 20.79zm-5.61-16.08c-0.53706 1.6112-1.2374 3.0714-2.94 7.86h5.91c-0.05486-0.1543-1.3972-3.928-2.97-7.86zm19.56-4.95c9.2841 0 9.63 4.8761 9.63 6.99 0 2.4971-0.63786 7.08-9.72 7.08h-1.47v6.96h-4.68v-20.49c2.2521-0.44158 4.835-0.54 6.24-0.54zm0.3 3.99c-0.71356 0-1.3866 0.0505-1.86 0.09v6h1.47c4.2499 0 4.89-1.4498 4.89-3.12 0-2.0394-1.3741-2.97-4.5-2.97zm19.02-3.99c9.2841 0 9.63 4.8761 9.63 6.99 0 2.4971-0.63787 7.08-9.72 7.08h-1.47v6.96h-4.68v-20.49c2.2521-0.44158 4.835-0.54 6.24-0.54zm0.3 3.99c-0.71356 0-1.3866 0.0505-1.86 0.09v6h1.47c4.2499 0 4.89-1.4498 4.89-3.12 0-2.0394-1.3741-2.97-4.5-2.97zm12.78-3.75h4.68v20.79h-4.68zm15 0c2.1058 4.0229 3.8716 8.2112 5.64 12.39 1.7676-4.1793 3.5007-8.3831 5.64-12.39h4.26c0.90141 6.895 1.2991 13.848 1.65 20.79h-4.56c-0.15663-5.2732-0.33831-9.5446-0.69-13.8-1.6095 3.7118-3.1814 7.4393-4.77 11.16h-3.27c-1.601-3.7154-3.1748-7.4421-4.77-11.16-0.35169 4.2554-0.53337 8.5269-0.69 13.8h-4.56c0.46252-9.4816 0.92971-15.82 1.65-20.79zm35.31 20.79c-0.48249-1.509-1.0172-3.0009-1.53-4.5h-8.1c-0.53476 1.4922-1.0562 2.9872-1.53 4.5h-4.86c3.1598-9.0743 5.6928-15.468 8.28-20.79h4.47c3.1103 6.5865 5.5734 13.017 8.28 20.79zm-5.61-16.08c-0.53706 1.6112-1.2374 3.0714-2.94 7.86h5.91c-0.0549-0.1543-1.3972-3.928-2.97-7.86zm22.71-1.11c-4.6816 0-6.18 2.9734-6.18 6.78 0 3.7186 1.649 6.81 5.76 6.81 1.3195 0 1.8911-0.0602 2.31-0.15v-7.23h4.68v10.29c-2.6554 1.0432-6.736 1.08-7.29 1.08-5.9683 0-10.32-3.6265-10.32-10.8 0-6.9822 4.6763-10.86 10.41-10.86 3.2439 0 5.7944 0.89902 6.9 1.59l-1.35 3.75c-0.73603-0.39102-2.629-1.26-4.92-1.26zm10.92 17.19v-20.79h14.04v3.93h-9.36v4.08h8.31v3.84h-8.31v5.01h10.05v3.93z" fill="#504945" aria-label="APPIMAGE"/>
  <path d="m179.44 199.52c-5.7337 0-10.41 3.8792-10.41 10.861 0 0.35425 0.0201 0.69236 0.041 1.0293 0.41654-6.3661 4.9086-9.8906 10.369-9.8906 2.7889 0 5.0028 0.6616 6.2891 1.2871l0.61133-1.6973c-1.1056-0.69098-3.6565-1.5898-6.9004-1.5898zm-99.18 0.24024c-1.405 0-3.9882 0.0994-6.2402 0.54101v2c2.2521-0.44158 4.8352-0.54101 6.2402-0.54101 8.0435 0 9.371 3.655 9.584 6.0078 0.03485-0.36275 0.04492-0.70664 0.04492-1.0176 0-2.1139-0.34478-6.9902-9.6289-6.9902zm19.318 0c-1.405 0-3.9862 0.0994-6.2383 0.54101v2c2.2521-0.44158 4.8333-0.54101 6.2383-0.54101 8.0435 0 9.3729 3.655 9.5859 6.0078 0.0348-0.36276 0.0449-0.70664 0.0449-1.0176 0-2.1139-0.34673-6.9902-9.6309-6.9902zm-41.01 0.24023c-2.5872 5.3222-5.1195 11.715-8.2793 20.789h0.71484c2.8229-7.9765 5.1817-13.887 7.5645-18.789h4.4707c2.8326 5.9984 5.1346 11.918 7.5664 18.789h0.71289c-2.7066-7.7728-5.169-14.203-8.2793-20.789zm54.09 0v2h4.6816v-2zm10.531 0c-0.72029 4.97-1.1879 11.307-1.6504 20.789h0.10742c0.4292-8.324 0.87767-14.199 1.543-18.789h4.4688c2.1058 4.0229 3.8722 8.2118 5.6406 12.391 1.7676-4.1792 3.5014-8.3838 5.6406-12.391h4.2598c0.81484 6.2328 1.2021 12.512 1.5312 18.789h0.11914c-0.35086-6.942-0.74898-13.894-1.6504-20.789h-4.2598c-2.1393 4.0069-3.8731 8.2114-5.6406 12.391-1.7684-4.1788-3.5348-8.3677-5.6406-12.391zm32.039 0c-2.5872 5.3222-5.1195 11.715-8.2793 20.789h0.71485c2.8228-7.9764 5.1817-13.887 7.5644-18.789h4.4707c2.8326 5.9984 5.1346 11.918 7.5664 18.789h0.71289c-2.7066-7.7728-5.169-14.203-8.2793-20.789zm35.76 0v2h14.041v-2zm-106.07 7.7852c-0.33581 1.175-1.4497 2.0547-4.7539 2.0547h-1.4688v2h1.4688c4.2499 0 4.8906-1.4489 4.8906-3.1191 0-0.34773-0.05495-0.6514-0.13672-0.93554zm19.32 0c-0.3358 1.175-1.4497 2.0547-4.7539 2.0547h-1.4688v2h1.4688c4.2499 0 4.8906-1.4489 4.8906-3.1191 0-0.34773-0.055-0.6514-0.13672-0.93554zm91.426 0.22461v2h8.3106v-2zm-13.709 1.8008v2h4.6797v-2zm-8.0137 1.5234c-0.0282 0.34304-0.0566 0.68715-0.0566 1.0469 0 3.7186 1.6488 6.8086 5.7598 6.8086 1.3195 0 1.8916-0.0606 2.3106-0.15039v-2c-0.41893 0.0898-0.99109 0.15039-2.3106 0.15039-3.7507 0-5.4337-2.5804-5.7031-5.8555zm-115.44 1.2363c-0.26227 0.70713-0.41169 1.065-0.74414 2h5.9082c-0.02182-0.0614-0.36384-1.0111-0.72656-2zm96.66 0c-0.26231 0.70723-0.41358 1.0648-0.7461 2h5.9102c-0.0218-0.0614-0.36575-1.011-0.72852-2zm40.504 4.2891v2h10.051v-2z" fill="#32302f"/>
  <path d="m116.86 46.15c-1.1537 0.1253-2.1699 1.0689-2.3807 2.2103l-2.2959 11.652c-4.1212 1.6121-7.9918 3.8263-11.392 6.5478l-11.308-3.8263c-1.1751-0.4057-2.6 0.11919-3.2311 1.1904l-10.88 18.879c-0.61352 1.0857-0.35069 2.5878 0.59518 3.4007l9.0156 7.9077c-0.74661 4.9922-0.60695 8.8628 0 12.927l-9.0156 7.9077c-0.94511 0.81294-1.2087 2.315-0.59518 3.4007l10.88 18.879c0.63109 1.0704 2.056 1.5961 3.2311 1.1904l11.308-3.8263c3.3992 2.7207 7.2728 4.9356 11.392 6.5478l2.2951 11.652c0.23302 1.2194 1.3951 2.1935 2.6359 2.2104h21.767c1.2408-0.0152 2.4029-0.99098 2.6352-2.2104l2.2959-11.652c4.1212-1.6121 7.9918-3.8263 11.392-6.5478l11.308 3.8263c1.1751 0.4057 2.6-0.11919 3.2311-1.1904l10.88-18.879c0.61351-1.0857 0.35069-2.5878-0.59518-3.4007l-9.0156-7.9077c0.74631-4.9907 0.60717-8.8628 0-12.927l9.0156-7.9077c0.94511-0.81293 1.2087-2.315 0.59518-3.4007l-10.88-18.879c-0.63111-1.0704-2.056-1.5961-3.2311-1.1904l-11.308 3.8263c-3.4015-2.723-7.2728-4.9379-11.392-6.5493l-2.2959-11.652c-0.23229-1.2194-1.3944-2.1935-2.6352-2.2103h-21.767c-0.0847-0.0023-0.16961-0.0023-0.25441 0z" fill="url(#_lgradient_11)" stroke-width=".76403" style="isolation:isolate"/>
  <path d="m116.86 51.15c-1.1537 0.1253-2.1699 1.0689-2.3807 2.2103l-2.2959 11.652c-4.1212 1.6121-7.9918 3.8263-11.392 6.5478l-11.308-3.8263c-1.1751-0.4057-2.6 0.11919-3.2311 1.1904l-10.88 18.879c-0.61352 1.0857-0.35069 2.5878 0.59518 3.4007l9.0156 7.9077c-0.74661 4.9922-0.60695 8.8628 0 12.927l-9.0156 7.9077c-0.94511 0.81294-1.2087 2.315-0.59518 3.4007l10.88 18.879c0.63109 1.0704 2.056 1.5961 3.2311 1.1904l11.308-3.8263c3.3992 2.7207 7.2728 4.9356 11.392 6.5478l2.2951 11.652c0.23302 1.2194 1.3951 2.1935 2.6359 2.2104h21.767c1.2408-0.0152 2.4029-0.99098 2.6352-2.2104l2.2959-11.652c4.1212-1.6121 7.9918-3.8263 11.392-6.5478l11.308 3.8263c1.1751 0.4057 2.6-0.11919 3.2311-1.1904l10.88-18.879c0.61351-1.0857 0.35069-2.5878-0.59518-3.4007l-9.0156-7.9077c0.74631-4.9907 0.60717-8.8628 0-12.927l9.0156-7.9077c0.94511-0.81293 1.2087-2.315 0.59518-3.4007l-10.88-18.879c-0.63111-1.0704-2.056-1.5961-3.2311-1.1904l-11.308 3.8263c-3.4015-2.723-7.2728-4.938-11.392-6.5493l-2.2959-11.652c-0.23229-1.2194-1.3944-2.1935-2.6352-2.2103h-21.767c-0.0847-0.0023-0.16961-0.0023-0.25441 0z" fill="#282828" opacity=".5" stroke-width=".76403" style="isolation:isolate"/>
  <path d="m116.86 46.15c-1.1537 0.1253-2.1699 1.0689-2.3807 2.2103l-2.2959 11.652c-4.1212 1.6121-7.9918 3.8263-11.392 6.5478l-11.308-3.8263c-1.1751-0.4057-2.6 0.11919-3.2311 1.1904l-10.88 18.879c-0.61352 1.0857-0.35069 2.5878 0.59518 3.4007l9.0156 7.9077c-0.74661 4.9922-0.60695 8.8628 0 12.927l-9.0156 7.9077c-0.94511 0.81294-1.2087 2.315-0.59518 3.4007l10.88 18.879c0.63109 1.0704 2.056 1.5961 3.2311 1.1904l11.308-3.8263c3.3992 2.7207 7.2728 4.9356 11.392 6.5478l2.2951 11.652c0.23302 1.2194 1.3951 2.1935 2.6359 2.2104h21.767c1.2408-0.0152 2.4029-0.99098 2.6352-2.2104l2.2959-11.652c4.1212-1.6121 7.9918-3.8263 11.392-6.5478l11.308 3.8263c1.1751 0.4057 2.6-0.11919 3.2311-1.1904l10.88-18.879c0.61351-1.0857 0.35069-2.5878-0.59518-3.4007l-9.0156-7.9077c0.74631-4.9907 0.60717-8.8628 0-12.927l9.0156-7.9077c0.94511-0.81293 1.2087-2.315 0.59518-3.4007l-10.88-18.879c-0.63111-1.0704-2.056-1.5961-3.2311-1.1904l-11.308 3.8263c-3.4015-2.723-7.2728-4.938-11.392-6.5493l-2.2959-11.652c-0.23229-1.2194-1.3944-2.1935-2.6352-2.2103h-21.767c-0.0847-0.0023-0.16961-0.0023-0.25441 0z" fill="url(#linearGradient25)" stroke-width=".76403" style="isolation:isolate"/>
  <path d="m116.86 46.148v2e-3c-1.1537 0.1253-2.17 1.0675-2.3809 2.209l-2.2949 11.652c-4.1212 1.6121-7.9926 3.8254-11.393 6.5469l-11.307-3.8262c-1.1751-0.4057-2.6013 0.12024-3.2324 1.1914l-10.879 18.879c-0.61352 1.0857-0.35017 2.5875 0.5957 3.4004l0.2168 0.18945 10.066-17.469c0.63109-1.0712 2.0573-1.5971 3.2324-1.1914l11.307 3.8262c3.4-2.7215 7.2714-4.9348 11.393-6.5469l2.2949-11.652c0.21087-1.1415 1.2272-2.0837 2.3809-2.209v-2e-3c0.0848-0.0023 0.17116-0.0023 0.25586 0h21.766c1.2408 0.01681 2.4044 0.99154 2.6367 2.2109l2.2949 11.65c4.1189 1.6113 7.9911 3.8258 11.393 6.5488l11.307-3.8262c1.1751-0.4057 2.6013 0.121 3.2324 1.1914l10.066 17.469 0.2168-0.18945c0.94511-0.81293 1.2092-2.3147 0.5957-3.4004l-10.879-18.879c-0.63111-1.0704-2.0573-1.5971-3.2324-1.1914l-11.307 3.8262c-3.4015-2.723-7.2737-4.9375-11.393-6.5488l-2.2949-11.65c-0.23229-1.2194-1.3959-2.1941-2.6367-2.2109h-21.766c-0.0847-0.0023-0.17106-0.0023-0.25586 0zm-32.311 52.58c-0.06855 1.4695-0.05762 2.8768 0.02539 4.2422 0.08019-1.2241 0.20604-2.4945 0.41016-3.8594zm86.9 0-0.4375 0.38281c0.20274 1.3572 0.32733 2.7052 0.41016 4.0684 0.10214-1.5589 0.0946-3.0212 0.0273-4.4512zm-86.902 8.6934-8.5781 7.5254c-0.94511 0.81294-1.2092 2.3147-0.5957 3.4004l0.8125 1.4102 8.7988-7.7188c-0.22967-1.5381-0.36435-3.0634-0.4375-4.6172zm86.9 0c-0.068 1.4566-0.18808 2.9624-0.43555 4.6172l8.7988 7.7188 0.8125-1.4102c0.61351-1.0857 0.35017-2.5874-0.5957-3.4004z" fill="#ebdbb2" opacity=".2" stroke-width=".76403" style="isolation:isolate"/>
  <path d="m137.64 71.623c1.8184 0 1.8581 1.5777 1.8581 3.5367v27.2l15.319-0.0503-26.856 30.691-26.856-30.691 15.365 0.0503v-27.2c0-1.962 0.0335-3.5367 1.8581-3.5367z" color="#ebdbb2" fill="#ebdbb2" opacity=".5" stroke-width="7.6709" style="isolation:isolate"/>
  <path d="m137.64 68.623c1.8184 0 1.8581 1.5777 1.8581 3.5367v27.2l15.319-0.0503-26.856 30.691-26.856-30.691 15.365 0.0503v-27.2c0-1.962 0.0335-3.5367 1.8581-3.5367z" color="#ebdbb2" fill="currentColor" stroke-width="7.6709" style="isolation:isolate"/>
  <path d="m118.33 68.623c-1.8246 0-1.8574 1.5751-1.8574 3.5371v3c0-1.962 0.0328-3.5371 1.8574-3.5371h19.312c1.8184 0 1.8574 1.5781 1.8574 3.5371v-3c1e-5 -1.959-0.039-3.5371-1.8574-3.5371zm-17.223 30.686 2.6328 3.0078 12.732 0.043v-3zm53.711 0-15.318 0.0508v3l12.686-0.043z" fill="#282828" opacity=".1" style="isolation:isolate"/>
  <path d="m57 15c-9.9393 0-17 7.0595-17 17v192c0 9.9393 7.0595 17 17 17h142c9.9405 0 17-7.0607 17-17v-144l-65-64.998zm4.0332 4.9902 89.967 2e-3 60 60.009v139.75c0 9.4999-6.6575 16.248-16.033 16.248h-133.93c-9.3757 0-16.033-6.7481-16.033-16.248v-183.51c0-9.501 6.6586-16.25 16.033-16.25z" fill="url(#linearGradient14-5)" style="paint-order:markers fill stroke"/>
  <path d="m151 15.002v52.914c0 9.6525 7.8639 17.084 17.518 17.084l47.482-1.34e-4v-5z" fill="#282828" opacity=".5" stroke-width="1.0833"/>
  <path d="m151 15.001v47.916c0 9.6525 7.8639 17.082 17.518 17.082l47.482 0.0019z" fill="url(#linearGradient7-6-0)" stroke-width="1.0833"/>
</svg>
