<svg width="256" height="256" version="1.1" viewBox="0 0 256 256" xmlns="http://www.w3.org/2000/svg">
  <defs>
    <linearGradient id="linearGradient7-6-0" x1="186" x2="156" y1="45.006" y2="75.012" gradientTransform="matrix(1.0833 0 0 1.0833 -17.998 -1.2506)" gradientUnits="userSpaceOnUse">
      <stop stop-color="#83a598" offset="0"/>
      <stop stop-color="#458588" offset=".3027"/>
      <stop stop-color="#076678" offset="1"/>
    </linearGradient>
    <linearGradient id="linearGradient21" x1="128" x2="128" y1="15" y2="241" gradientUnits="userSpaceOnUse">
      <stop stop-color="#ebdbb2" offset="0"/>
      <stop stop-color="#d5c4a1" offset="1"/>
    </linearGradient>
    <linearGradient id="linearGradient14-0" x1="128" x2="128" y1="15.001" y2="241" gradientTransform="translate(0,4.8e-4)" gradientUnits="userSpaceOnUse">
      <stop stop-color="#076678" stop-opacity=".10323" offset="0"/>
      <stop stop-color="#076678" stop-opacity=".049032" offset=".2"/>
      <stop stop-color="#076678" stop-opacity=".050323" offset=".70405"/>
      <stop stop-color="#282828" stop-opacity=".052903" offset=".80473"/>
      <stop stop-color="#282828" stop-opacity=".14839" offset="1"/>
    </linearGradient>
  </defs>
  <path d="m57 15c-9.9393 0-17 7.0595-17 17v149h176v-101l-64.998-64.998-94.002-0.001953z" fill="url(#linearGradient21)" style="paint-order:markers fill stroke"/>
  <path d="m57 241c-9.9393 0-17-7.0595-17-17v-43h176v43c0 9.9405-7.0607 17-17 17z" fill="#076678" stroke-linecap="round" stroke-linejoin="round" stroke-miterlimit="0" style="paint-order:markers fill stroke"/>
  <path d="m99.76 222.96c3.2335 0 4.48-0.98172 4.48-2.88 0-1.533-1.0262-2.6487-5.68-4.2-3.4634-1.2224-7.6-2.955-7.6-8.2 0-5.1508 4.0386-8.32 10.2-8.32 3.7211 0 6.4107 0.94404 8.2 1.92l-1.8 4.92c-1.873-0.99727-3.8907-1.4678-6-1.52-2.9192 0-4.2 0.79833-4.2 2.52 0.24727 2.3866 2.8628 3.0035 4.8 3.68 5.9312 2.1967 8.52 4.0081 8.52 9.24 0 6.7588-5.9696 8.16-10.92 8.16-2.0763 0-6.0494-0.27394-9.28-2.12l1.76-4.96c2.3212 1.3162 4.8902 1.7066 7.52 1.76zm24.04-23.28c12.379 0 12.84 6.5014 12.84 9.32 0 3.3294-0.85049 9.44-12.96 9.44h-1.96v9.28h-6.24v-27.32c3.0028-0.58878 6.4467-0.72 8.32-0.72zm0.4 5.32c-0.95141 0-1.8488 0.0674-2.48 0.12v8h1.96c5.6666 0 6.52-1.933 6.52-4.16 0-2.7192-1.8321-3.96-6-3.96zm23.28 17.64c0.79723 0.0981 1.5986 0.08 2.4 0.08 7.7941 0 9.2-5.1581 9.2-8.88 0-7.853-5.2303-8.84-9-8.84-0.86857 4e-3 -1.7356 0.0424-2.6 0.12zm18.04-8.8c0 12.439-10.106 14.24-15.96 14.24-0.88703 0-4.9869-0.041-8.32-0.72v-27c0.13451-0.0249 3.6911-0.68 8.52-0.68 7.5066 0 15.76 2.6232 15.76 14.16z" fill="#282828" opacity=".3" aria-label="SPDI"/>
  <path d="m99.76 219.96c3.2335 0 4.48-0.98172 4.48-2.88 0-1.533-1.0262-2.6487-5.68-4.2-3.4634-1.2224-7.6-2.955-7.6-8.2 0-5.1508 4.0386-8.32 10.2-8.32 3.7211 0 6.4107 0.94404 8.2 1.92l-1.8 4.92c-1.873-0.99727-3.8907-1.4678-6-1.52-2.9192 0-4.2 0.79833-4.2 2.52 0.24727 2.3866 2.8628 3.0035 4.8 3.68 5.9312 2.1967 8.52 4.0081 8.52 9.24 0 6.7588-5.9696 8.16-10.92 8.16-2.0763 0-6.0494-0.27394-9.28-2.12l1.76-4.96c2.3212 1.3162 4.8902 1.7066 7.52 1.76zm24.04-23.28c12.379 0 12.84 6.5014 12.84 9.32 0 3.3294-0.85049 9.44-12.96 9.44h-1.96v9.28h-6.24v-27.32c3.0028-0.58878 6.4467-0.72 8.32-0.72zm0.4 5.32c-0.95141 0-1.8488 0.0674-2.48 0.12v8h1.96c5.6666 0 6.52-1.933 6.52-4.16 0-2.7192-1.8321-3.96-6-3.96zm23.28 17.64c0.79723 0.0981 1.5986 0.08 2.4 0.08 7.7941 0 9.2-5.1581 9.2-8.88 0-7.853-5.2303-8.84-9-8.84-0.86857 4e-3 -1.7356 0.0424-2.6 0.12zm18.04-8.8c0 12.439-10.106 14.24-15.96 14.24-0.88703 0-4.9869-0.041-8.32-0.72v-27c0.13451-0.0249 3.6911-0.68 8.52-0.68 7.5066 0 15.76 2.6232 15.76 14.16z" fill="#ebdbb2" aria-label="SPDI"/>
  <path d="m101.16 196.36c-6.1614 0-10.199 3.1696-10.199 8.3203 0 0.53725 0.0531 1.0293 0.13476 1.4961 0.72079-4.2529 4.5304-6.8164 10.064-6.8164 3.1296 0 5.5212 0.67 7.2695 1.4629l0.92969-2.543c-1.7893-0.97596-4.4781-1.9199-8.1992-1.9199zm22.641 0.32031c-1.8733 0-5.3175 0.13192-8.3203 0.7207v3c3.0028-0.58878 6.447-0.7207 8.3203-0.7207 10.506 0 12.421 4.6783 12.762 7.8184 0.0581-0.53527 0.0781-1.0438 0.0781-1.498 0-2.8186-0.461-9.3203-12.84-9.3203zm25.959 0c-4.8289 0-8.385 0.65478-8.5195 0.67969v3c0.13451-0.0249 3.6906-0.67969 8.5195-0.67969 7.1622 0 14.999 2.3949 15.703 12.635 0.0332-0.4763 0.0566-0.96292 0.0566-1.4746 0-11.537-8.2532-14.16-15.76-14.16zm-51.844 8.9707c-0.37646 0.39203-0.55664 0.90539-0.55664 1.5488 0.24727 2.3866 2.8636 3.0052 4.8008 3.6816 5.275 1.9537 7.9003 3.6076 8.418 7.6289 0.061-0.43818 0.10157-0.8968 0.10157-1.3906 0-5.2319-2.5883-7.0415-8.5195-9.2383-1.4671-0.5123-3.3222-0.992-4.2441-2.2305zm32.066 1.8809c-0.49969 1.4918-2.0367 2.5879-6.3027 2.5879h-1.959v3h1.959c5.6666 0 6.5195-1.9312 6.5195-4.1582 0-0.53289-0.0723-1.0086-0.2168-1.4297zm29.018 4.7812c-0.38127 3.4754-2.3133 7.4082-9.1191 7.4082-0.80135 0-1.6032 0.018-2.4004-0.0801v3c0.79723 0.0981 1.599 0.0801 2.4004 0.0801 7.7941 0 9.1992-5.159 9.1992-8.8809 0-0.54411-0.0321-1.0472-0.0801-1.5273zm-66.76 5.8867-1.7598 4.9609c0.29448 0.16827 0.59948 0.30999 0.9043 0.45312l0.85547-2.4141c2.3212 1.3162 4.8898 1.7083 7.5195 1.7617 3.2335 0 4.4805-0.98258 4.4805-2.8809 0-0.5104-0.13354-0.97253-0.45703-1.4219-0.60818 0.85489-1.8658 1.3027-4.0234 1.3027-2.6298-0.0534-5.1983-0.44556-7.5195-1.7617z" fill="#fbf1c7" opacity=".6"/>
  <path d="m74.588 159.58 1.5441-7.4397h2.9478c3.7061 0 5.6961-1.0132 8.1416-4.2112 1.2166-1.5909 2.6671-3.8368 4.3515-6.7379l47.586-81.837h19.371l11.791 82.679c0.37432 2.901 1.1698 5.3342 2.3863 7.2994 1.2166 1.8716 3.2286 2.8074 6.036 2.8074h2.6671l-1.5441 7.4397h-46.463l1.5441-7.4397h3.2285c4.5518 0 9.826-1.0463 9.826-5.8956 0-0.67655-0.19739-3.8253-0.28074-4.4919l-1.8248-15.16h-34.251l-7.0186 12.633c-1.778 3.2754-2.6671 5.8956-2.6671 7.8608 0 3.3689 2.6203 5.0534 7.8608 5.0534h2.8074l-1.5441 7.4397zm41.831-41.55h28.496c-0.22361-1.6425-4.3659-34.91-4.6323-44.498-6.8649 15.37-15.681 29.807-23.863 44.498z" fill="#ebdbb2" opacity=".6" stroke-width=".87732" aria-label="A"/>
  <path d="m74.588 155.23 1.5441-7.4397h2.9478c3.7061 0 5.6961-1.0132 8.1416-4.2112 1.2166-1.5909 2.6671-3.8368 4.3515-6.7379l47.586-81.837h19.371l11.791 82.679c0.37432 2.901 1.1698 5.3342 2.3863 7.2994 1.2166 1.8716 3.2286 2.8074 6.036 2.8074h2.6671l-1.5441 7.4397h-46.463l1.5441-7.4397h3.2286c4.5517 0 9.826-1.0462 9.826-5.8956 0-0.67656-0.19739-3.8253-0.28074-4.4919l-1.8248-15.16h-34.251l-7.0186 12.634c-1.778 3.2753-2.6671 5.8956-2.6671 7.8608 0 3.3689 2.6203 5.0534 7.8608 5.0534h2.8074l-1.5441 7.4397zm41.831-41.55h28.496c-0.22361-1.6425-4.3659-34.91-4.6323-44.498-6.8649 15.37-15.681 29.807-23.863 44.498z" fill="#076678" stroke-width=".87732" aria-label="A"/>
  <path d="m139.16 55-47.587 81.837c-1.6845 2.901-3.1343 5.1481-4.3508 6.739-2.4455 3.198-4.4355 4.2112-8.1416 4.2112h-2.9482l-1.5439 7.4386h0.90387l0.64002-3.0827h2.9482c3.7061 0 5.6961-1.0133 8.1416-4.2112 1.2166-1.5909 2.6664-3.8363 4.3508-6.7373l47.587-81.837h19.371l11.791 82.679c0.37433 2.901 1.1699 5.3338 2.3865 7.2991 1.2166 1.8716 3.2286 2.8069 6.036 2.8069h1.7635l0.90388-4.356h-2.6674c-2.8074 0-4.8194-0.93701-6.036-2.8086-1.2166-1.9652-2.0122-4.398-2.3865-7.299l-11.791-82.679zm-20.277 58.677c-0.82083 1.452-1.6522 2.9-2.4631 4.3559h28.495c-0.0387-0.28407-0.30851-2.466-0.5413-4.3559zm28.936 29.632c-0.94484 3.6344-5.5754 4.4785-9.6413 4.4785h-3.2291l-1.5439 7.4386h0.90387l0.64002-3.0827h3.2291c4.5517 0 9.8251-1.0454 9.8251-5.8947 0-0.44276-0.10204-1.768-0.18384-2.9397zm-45.466 1.3584c-0.23328 0.88373-0.39151 1.7121-0.39151 2.4239 0 3.3689 2.6202 5.0521 7.8608 5.0521h1.9031l0.90387-4.356h-2.8069c-4.1074 0-6.5811-1.0506-7.4693-3.1201z" fill="#282828" opacity=".2" stroke-width=".87732"/>
  <path d="m57 15c-9.9393 0-17 7.0595-17 17v192c0 9.9393 7.0595 17 17 17h142c9.9405 0 17-7.0607 17-17v-144l-65-65zm4.0332 4.9902 89.967 0.01 60 60 2e-4 139.75c1e-5 9.4999-6.6575 16.248-16.033 16.248h-133.93c-9.3757 0-16.033-6.7481-16.033-16.248v-183.51c0-9.501 6.6586-16.25 16.033-16.25z" fill="url(#linearGradient14-0)" style="paint-order:markers fill stroke"/>
  <path d="m151 15.002v52.914c0 9.6525 7.8639 17.084 17.518 17.084l47.482-1.34e-4v-5z" fill="#282828" opacity=".2" stroke-width="1.0833"/>
  <path d="m151 15.001v47.916c0 9.6525 7.8639 17.084 17.518 17.084l47.482-1.34e-4z" fill="url(#linearGradient7-6-0)" stroke-width="1.0833"/>
</svg>
