<svg width="256" height="256" fill="none" version="1.1" viewBox="0 0 256 256" xmlns="http://www.w3.org/2000/svg">
  <path d="m57 15c-9.9393 0-17 7.0595-17 17v192c0 9.9393 7.0595 17 17 17h142c9.9405 0 17-7.0607 17-17v-192c0-9.9405-7.0607-17-17-17z" fill="url(#linearGradient26)" stroke-linecap="round" stroke-linejoin="round" stroke-miterlimit="0" style="paint-order:markers fill stroke"/>
  <path transform="translate(0,-2)" d="m53 175h52v32h-52z" fill="#ebdbb2"/>
  <path transform="translate(0,-2)" d="m57.01 183v16h7.998v-16zm12 0v16h3.999v-16zm7.998 0v16h8.001v-16zm12 0v16h4.003v-16zm8.001 0v16h3.999v-16z" fill="#665c54"/>
  <path transform="translate(0,-2)" d="m150 177v3.999h48v-3.999zm0 7.997v4.003h40v-4.003zm0 8.002v3.999h48v-3.999zm0 8.001v3.999h32v-3.999z" fill="#ebdbb2" opacity=".5"/>
  <defs>
    <linearGradient id="linearGradient26" x1="-160" x2="-160" y2="226" gradientTransform="translate(267,15)" gradientUnits="userSpaceOnUse">
      <stop stop-color="#076678" offset="0"/>
      <stop stop-color="#458588" offset="1"/>
    </linearGradient>
    <linearGradient id="linearGradient30" x1="119" x2="137" y1="127" y2="127" gradientUnits="userSpaceOnUse">
      <stop stop-color="#a89984" offset="0"/>
      <stop stop-color="#ebdbb2" offset=".096045"/>
      <stop stop-color="#a89984" offset=".19915"/>
      <stop stop-color="#a89984" offset=".7959"/>
      <stop stop-color="#ebdbb2" offset=".89795"/>
      <stop stop-color="#a89984" offset="1"/>
    </linearGradient>
    <linearGradient id="linearGradient23" x1="128" x2="128" y1="15" y2="241" gradientTransform="translate(-1.1e-4)" gradientUnits="userSpaceOnUse">
      <stop stop-color="#ebdbb2" stop-opacity=".15" offset="0"/>
      <stop stop-color="#ebdbb2" stop-opacity=".05" offset=".2"/>
      <stop stop-opacity="0" offset=".75"/>
      <stop stop-opacity=".05098" offset=".9"/>
      <stop stop-opacity=".10196" offset="1"/>
    </linearGradient>
  </defs>
  <path d="m128 137h-4l1 95h3z" fill="#7c6f64"/>
  <path d="m128 124v4h-9v9h9v7h-9l2 4 7 2v4h-9v9h9v4h-9v9h9v4h-9v9h9v4h-9v9h9v4h-9v9h9v4h-9v9h9v4h-9v9h9v-3h4l4e-3 -1h4.996v-9h-4.9688l0.0137-4h4.955v-9h-4.9258l0.0117-4h4.9141v-9h-4.8848l0.0137-4h4.8711v-9h-4.8438l0.0137-4h4.83v-9h-4.8008l0.0117-4h4.7891v-9h-4.7598l0.0137-4h4.7461v-9h-4.7188l0.0137-4h4.705v-9h-4.6758l0.0117-4h4.6641v-9h-4.6348z" fill="#ebdbb2"/>
  <path d="m119 134v3h9v-3zm9 9v3h9v-3zm0 13v3h9v-3zm-9 4v3h9v-3zm9 9v3h9v-3zm-9 4v3h9v-3zm9 9v3h9v-3zm-9 4v3h9v-3zm9 9v3h9v-3zm-9 4v3h9v-3zm9 9v3h9v-3zm-9 4v3h9v-3zm9 9v3h9v-3zm-9 4v3h9v-3zm9 9v3h9v-3zm-9 4v3h9v-3z" fill="#282828" opacity=".4" style="paint-order:markers fill stroke"/>
  <path d="m120 90.97h16c4.986 0 9 4.014 9 9v21.03c0 4.986-4.014 9-9 9h-16c-4.986 0-9-4.014-9-9v-21.03c0-4.986 4.014-9 9-9z" fill="#504945" style="paint-order:markers fill stroke"/>
  <path d="m120 93.971c-4.986 0-9 4.014-9 9v21.029c0 4.6472 3.489 8.4461 8 8.9414v17.059c0 2.77 2.23 5 5 5h8c2.77 0 5-2.23 5-5v-17.059c4.511-0.49532 8-4.2942 8-8.9414v-21.029c0-4.986-4.014-9-9-9zm3 44.029h10v13h-10z" fill="#282828" opacity=".2" style="paint-order:markers fill stroke"/>
  <path d="m120 85.97h16c4.986 0 9 4.014 9 9v21.03c0 4.986-4.014 9-9 9h-16c-4.986 0-9-4.014-9-9v-21.03c0-4.986 4.014-9 9-9z" fill="#665c54" style="paint-order:markers fill stroke"/>
  <rect x="124" y="90" width="8" height="18" ry="4" fill="#a89984" style="paint-order:markers fill stroke"/>
  <path d="m124 103c-2.77 0-5 2.23-5 5v38c0 2.77 2.23 5 5 5h8c2.77 0 5-2.23 5-5v-38c0-2.77-2.23-5-5-5v10c0 2.216-1.784 4-4 4s-4-1.784-4-4zm-1 31h10v12h-10z" fill="url(#linearGradient30)" style="paint-order:markers fill stroke"/>
  <path d="m124 99c-2.77 0-5 2.23-5 5v38c0 2.77 2.23 5 5 5h8c2.77 0 5-2.23 5-5v-38c0-2.77-2.23-5-5-5v10c0 2.216-1.784 4-4 4s-4-1.784-4-4zm-1 31h10v13h-10z" fill="#ebdbb2" style="paint-order:markers fill stroke"/>
  <path d="m57 15c-9.9393 0-17 7.0595-17 17v43h176v-43c0-9.9405-7.0607-17-17-17z" fill="#83a598" opacity=".7" stroke-linecap="round" stroke-linejoin="round" stroke-miterlimit="0" style="paint-order:markers fill stroke"/>
  <path d="m87.92 35.28v5.32h-8.36v22.4h-6.24v-22.4h-8.36v-5.32zm19.28 27.72c-0.64332-2.0121-1.3562-4.0012-2.04-6h-10.8c-0.7104 1.9905-1.4118 3.9818-2.04 6h-6.48c3.0521-8.7651 6.8127-19.024 11.04-27.72h5.96c3.6441 7.7169 6.8627 15.724 11.04 27.72zm-7.48-21.44c-0.71608 2.1482-1.6498 4.0952-3.92 10.48h7.88c-0.073-0.20521-1.863-5.2374-3.96-10.48zm25.88-6.6c7.1485 0 12.88 2.1678 12.88 9.12 0 2.1895-0.48892 5.6557-5.2 7.6 3.551 4.3964 6.5069 10.532 6.88 11.32h-7c-4.0059-7.1684-5.2516-8.79-6.36-10.12h-3.08v10.12h-6.24v-27.32c3.1191-0.6116 6.3871-0.72 8.12-0.72zm0.36 5.32c-0.74882-0.0098-1.4946 0.05988-2.24 0.12v7.52h1.76c4.8398 0 6.56-1.1781 6.56-3.88 0-1.4407-0.45697-3.76-6.08-3.76zm27.44 23.08c-3.9745 0-6.8192-0.28408-9.24-0.8v-26.88c2.835-0.53155 6.6089-0.72 8.44-0.72 5.7428 0 12.08 1.2536 12.08 7.8 0 2.2133-1.0667 3.96-3.2 5.24 3.0743 1.0716 4.4184 3.479 4.56 6.6 0 6.8145-5.901 8.76-12.64 8.76zm-3.16-12.44v7.16c0.98081 0.11539 2.0707 0.16 3.24 0.16 2.8306-0.0062 5.9596-0.46056 6.24-3.76 0-0.94028-0.0632-3.56-5.56-3.56zm0-4.76h3.04c3.4646 0 5.36-0.71411 5.36-3.12 0-1.4247-0.57021-3.04-5.04-3.04-1.1212 0.01062-2.2423 0.03291-3.36 0.12zm40.36-6.56c-3.2392 3.3405-9.7476 11.606-13.68 18.16h14.12v5.24h-21.8v-3.72c1.9483-3.5487 7.1858-11.657 13.08-18.76h-12.44v-5.24h20.72z" fill="#ebdbb2" opacity=".15" aria-label="TARBZ"/>
  <path d="m87.92 32.28v5.32h-8.36v22.4h-6.24v-22.4h-8.36v-5.32zm19.28 27.72c-0.64332-2.0121-1.3562-4.0012-2.04-6h-10.8c-0.7104 1.9905-1.4118 3.9818-2.04 6h-6.48c3.0521-8.7651 6.8127-19.024 11.04-27.72h5.96c3.6441 7.7169 6.8627 15.724 11.04 27.72zm-7.48-21.44c-0.71608 2.1482-1.6498 4.0952-3.92 10.48h7.88c-0.073-0.20521-1.863-5.2374-3.96-10.48zm25.88-6.6c7.1485 0 12.88 2.1678 12.88 9.12 0 2.1895-0.48892 5.6557-5.2 7.6 3.551 4.3964 6.5069 10.532 6.88 11.32h-7c-4.0059-7.1684-5.2516-8.79-6.36-10.12h-3.08v10.12h-6.24v-27.32c3.1191-0.6116 6.3871-0.72 8.12-0.72zm0.36 5.32c-0.74882-0.0098-1.4946 0.05988-2.24 0.12v7.52h1.76c4.8398 0 6.56-1.1781 6.56-3.88 0-1.4407-0.45697-3.76-6.08-3.76zm27.44 23.08c-3.9745 0-6.8192-0.28408-9.24-0.8v-26.88c2.835-0.53155 6.6089-0.72 8.44-0.72 5.7428 0 12.08 1.2536 12.08 7.8 0 2.2133-1.0667 3.96-3.2 5.24 3.0743 1.0716 4.4184 3.479 4.56 6.6 0 6.8145-5.901 8.76-12.64 8.76zm-3.16-12.44v7.16c0.98081 0.11539 2.0707 0.16 3.24 0.16 2.8306-0.0062 5.9596-0.46056 6.24-3.76 0-0.94028-0.0632-3.56-5.56-3.56zm0-4.76h3.04c3.4646 0 5.36-0.71411 5.36-3.12 0-1.4247-0.57021-3.04-5.04-3.04-1.1212 0.01062-2.2423 0.03291-3.36 0.12zm40.36-6.56c-3.2392 3.3405-9.7476 11.606-13.68 18.16h14.12v5.24h-21.8v-3.72c1.9483-3.5487 7.1858-11.657 13.08-18.76h-12.44v-5.24h20.72z" fill="#076678" aria-label="TARBZ"/>
  <path d="m125.6 31.961c-1.7329 0-5 0.10715-8.1191 0.71875v3c3.1191-0.6116 6.3862-0.71875 8.1191-0.71875 6.6038 0 11.988 1.8582 12.771 7.6211 0.0745-0.53608 0.10938-1.05 0.10938-1.502 0-6.9522-5.7323-9.1191-12.881-9.1191zm27 0c-1.8311 0-5.6045 0.1872-8.4394 0.71875v3c2.835-0.53155 6.6084-0.71875 8.4394-0.71875 5.2302 0 10.938 1.0528 11.918 6.1836 0.1026-0.4405 0.16211-0.89937 0.16211-1.3848 0-6.5464-6.3373-7.7988-12.08-7.7988zm-87.639 0.31836v3h22.959v-3zm31.92 0c-4.2273 8.6963-7.9889 18.956-11.041 27.721h1.0664c2.8521-8.0591 6.2131-16.983 9.9746-24.721h5.959c3.3151 7.0202 6.3138 14.435 9.9668 24.721h1.0742c-4.1773-11.996-7.3969-20.004-11.041-27.721zm73 0v3h20.719v-3zm10.037 8.2402c-4.8762 6.2659-8.9997 12.703-10.678 15.76v3c1.9483-3.5487 7.1858-11.656 13.08-18.76zm-21.641 1.0371c-0.70128 1.2035-2.4109 1.6035-4.998 1.6035h-3.0391v3h3.0391c3.4646 0 5.3613-0.71521 5.3613-3.1211 0-0.49768-0.0822-1.0152-0.36328-1.4824zm-26.516 1.0234c-0.63823 1.6067-2.4959 2.3398-6.2812 2.3398h-1.7598v3h1.7598c4.8398 0 6.5586-1.1789 6.5586-3.8809 0-0.436-0.0631-0.95068-0.27734-1.459zm31.822 3.5684c-0.51882 0.69717-1.2128 1.3171-2.1035 1.8516 2.6244 0.91474 3.9792 2.8087 4.4102 5.2832 0.0888-0.52841 0.14844-1.0811 0.14844-1.6836-0.10354-2.2822-0.85913-4.1754-2.4551-5.4512zm-66.689 2.8906c-0.33729 0.91115-0.671 1.811-1.0938 3h7.8789c-0.0327-0.0919-0.499-1.3866-1.0938-3zm38 1.8203c-0.47437 0.29465-1.009 0.57011-1.6152 0.82031 2.1862 2.7067 4.0627 5.9489 5.334 8.3203h1.5469c-0.31445-0.66384-2.472-5.122-5.2656-9.1406zm24.469 2.0117c-0.94259 2.0372-3.5142 2.364-5.8828 2.3691-1.1693 0-2.2594-0.04477-3.2402-0.16016v3c0.98081 0.11539 2.071 0.16016 3.2402 0.16016 2.8306-0.0062 5.9598-0.46032 6.2402-3.7598 0-0.36615-0.0211-0.98774-0.35742-1.6094zm19.461 1.8887c-0.67468 1.0218-1.3232 2.0316-1.9043 3h14.119v-3z" fill="#282828" opacity=".2"/>
  <path d="m57 15c-9.9393 0-17 7.0595-17 17v192c0 9.9393 7.0595 17 17 17h142c9.9405 0 17-7.0607 17-17v-192c0-9.9405-7.0607-17-17-17zm4.0332 5h133.93c9.3746 0 16.033 6.7474 16.033 16.248v183.5c0 9.4995-6.6575 16.248-16.033 16.248h-133.93c-9.3757 0-16.033-6.7486-16.033-16.248v-183.5c0-9.5007 6.6586-16.248 16.033-16.248z" fill="url(#linearGradient23)" style="paint-order:markers fill stroke"/>
</svg>
