<svg width="256" height="256" fill="none" version="1.1" viewBox="0 0 256 256" xmlns="http://www.w3.org/2000/svg">
  <path d="m55.08 15h100.5l60.4 60.15 2e-3 148.9c0 8.911-7.262 16.13-16.17 16.13h-144.8c-8.91 0-16.08-7.174-16.08-16.08v-193c0-8.91 7.173-16.08 16.08-16.08h1e-4z" fill="#ebdbb2"/>
  <path d="m155.6 20.32h-100.5c-5.973 0-10.76 4.792-10.76 10.76v193c0 5.973 4.792 10.76 10.76 10.76h144.8c5.992 0 10.85-4.856 10.85-10.81v-148.9l-55.08-54.83zm0-5.319h-100.5c-8.91 0-16.08 7.173-16.08 16.08v193c0 8.91 7.173 16.08 16.08 16.08h144.8c8.911 0 16.17-7.218 16.17-16.13l-2e-3 -148.9-60.4-60.15z" clip-rule="evenodd" fill="url(#paint0_linear)" fill-rule="evenodd"/>
  <path d="m96 184c52 24 76-32 32-56-44-24-20-80 32-56" clip-rule="evenodd" fill="url(#paint1_linear)" fill-rule="evenodd" opacity=".2"/>
  <path d="m109.8 82.89c-6.425 12.85-2.081 31.76 19.17 43.35 22.75 12.41 28.41 33.5 20.83 48.65-3.765 7.531-10.74 13.4-20.17 15.79-9.415 2.387-21.14 1.273-34.45-4.873l1.676-3.632c12.68 5.854 23.46 6.741 31.8 4.627 8.323-2.11 14.34-7.236 17.58-13.7 6.425-12.85 2.08-31.76-19.17-43.35-22.75-12.41-28.41-33.5-20.83-48.65 3.765-7.531 10.74-13.4 20.17-15.79 9.415-2.387 21.14-1.273 34.45 4.873l-1.676 3.632c-12.68-5.854-23.46-6.74-31.8-4.627-8.323 2.11-14.34 7.237-17.58 13.71z" clip-rule="evenodd" fill="url(#paint2_linear)" fill-rule="evenodd"/>
  <path d="m84 100c-2.209 0-4 1.791-4 4s1.791 4 4 4c2.209 0 4-1.791 4-4s-1.791-4-4-4zm-8 4c0-4.418 3.582-8 8-8 4.418 0 8 3.582 8 8 0 0.555-0.0565 1.097-0.1641 1.62l74.26 40.98c1.463-1.597 3.565-2.598 5.9-2.598 4.419 0 8 3.582 8 8 0 4.419-3.581 8-8 8-4.418 0-8-3.581-8-8 0-0.644 0.077-1.271 0.22-1.871l-74.15-40.92c-1.467 1.706-3.642 2.787-6.068 2.787-4.418 0-8-3.582-8-8zm92 48c0-2.209 1.791-4 4-4s4 1.791 4 4-1.791 4-4 4-4-1.791-4-4z" clip-rule="evenodd" fill="url(#paint3_linear)" fill-rule="evenodd"/>
  <path d="m154 66h12v12h-12v-12zm-32 56h12v12h-12v-12zm-32 56h12v12h-12v-12z" fill="#ebdbb2"/>
  <path d="m152 64h16v16h-16v-16zm4 4v8h8v-8h-8zm-36 52h16v16h-16v-16zm4 4v7.999h8v-7.999h-8zm-36 52h16v16h-16v-16zm4 4v8h8v-8h-8z" clip-rule="evenodd" fill="url(#paint4_linear)" fill-rule="evenodd"/>
  <path d="m155.6 17v44.23c0 8.91 7.259 15.93 16.17 15.93l44.23-0.0112v-2l-60.4-58.15z" fill="#282828" opacity=".25"/>
  <path d="m155.6 15v44.23c0 8.91 7.259 15.93 16.17 15.93l44.23-0.0112-60.4-60.15z" fill="url(#paint5_linear)"/>
  <defs>
    <linearGradient id="paint0_linear" x1="39" x2="39" y1="15" y2="240.2" gradientUnits="userSpaceOnUse">
      <stop stop-color="#b16286" offset="1e-7"/>
      <stop stop-color="#8f3f71" offset="1"/>
    </linearGradient>
    <linearGradient id="paint1_linear" x1="96" x2="96" y1="66.15" y2="189.9" gradientUnits="userSpaceOnUse">
      <stop stop-color="#b16286" offset="1e-7"/>
      <stop stop-color="#8f3f71" offset="1"/>
    </linearGradient>
    <linearGradient id="paint2_linear" x1="95.16" x2="95.16" y1="64.15" y2="191.9" gradientUnits="userSpaceOnUse">
      <stop stop-color="#b16286" offset="1e-7"/>
      <stop stop-color="#8f3f71" offset="1"/>
    </linearGradient>
    <linearGradient id="paint3_linear" x1="128" x2="128" y1="160" y2="96" gradientUnits="userSpaceOnUse">
      <stop stop-color="#fb4934" offset="0"/>
      <stop stop-color="#fb4934" offset=".1"/>
      <stop stop-color="#fe8019" offset="1"/>
    </linearGradient>
    <linearGradient id="paint4_linear" x1="88" x2="88" y1="64" y2="192" gradientUnits="userSpaceOnUse">
      <stop stop-color="#b16286" offset="1e-7"/>
      <stop stop-color="#8f3f71" offset="1"/>
    </linearGradient>
    <linearGradient id="paint5_linear" x1="155.6" x2="155.6" y1="15" y2="75.16" gradientUnits="userSpaceOnUse">
      <stop stop-color="#b16286" offset="1e-7"/>
      <stop stop-color="#8f3f71" offset="1"/>
    </linearGradient>
  </defs>
</svg>
