<svg width="256" height="256" version="1.1" viewBox="0 0 256 256" xml:space="preserve" xmlns="http://www.w3.org/2000/svg"><defs><linearGradient id="linearGradient21" x1="128" x2="128" y1="15" y2="241" gradientUnits="userSpaceOnUse"><stop stop-color="#ebdbb2" offset="0"/><stop stop-color="#d5c4a1" offset="1"/></linearGradient><linearGradient id="linearGradient59" x1="95" x2="112.87" y1="118" y2="136" gradientTransform="translate(0,-10)" gradientUnits="userSpaceOnUse"><stop stop-color="#282828" offset="0"/><stop stop-color="#665c54" offset=".39806"/><stop stop-color="#665c54" offset=".60437"/><stop stop-color="#282828" offset="1"/></linearGradient><linearGradient id="linearGradient7-6-0-9" x1="186" x2="156" y1="45.006" y2="75.012" gradientTransform="matrix(1.0833,0,0,1.0833,-17.999,-1.2511)" gradientUnits="userSpaceOnUse"><stop stop-color="#b8bb26" offset="0"/><stop stop-color="#98971a" offset=".3027"/><stop stop-color="#79740e" offset="1"/></linearGradient><linearGradient id="linearGradient14-07" x1="128" x2="128" y1="15.001" y2="241" gradientTransform="translate(0,4.8e-4)" gradientUnits="userSpaceOnUse"><stop stop-color="#79740e" stop-opacity=".10367" offset="0"/><stop stop-color="#79740e" stop-opacity=".049869" offset=".2"/><stop stop-color="#79740e" stop-opacity=".052493" offset=".70405"/><stop stop-color="#282828" stop-opacity=".052493" offset=".80473"/><stop stop-color="#282828" stop-opacity=".10105" offset="1"/></linearGradient></defs><path d="m57 15c-9.9393 0-17 7.0595-17 17v149h176v-101l-64.998-64.998z" fill="url(#linearGradient21)" style="paint-order:markers fill stroke"/><path d="m57 241c-9.9393 0-17-7.0595-17-17v-43h176v43c0 9.9405-7.0607 17-17 17z" fill="#98971a" stroke-linecap="round" stroke-linejoin="round" stroke-miterlimit="0" style="paint-order:markers fill stroke"/><path d="m103.68 204.8c-6.2421 0-8.24 3.9646-8.24 9.04 0 4.9582 2.1987 9.08 7.68 9.08 1.7593 0 2.5214-0.0803 3.08-0.2v-9.64h6.24v13.72c-3.5405 1.3909-8.9813 1.44-9.72 1.44-7.9578 0-13.76-4.8354-13.76-14.4 0-9.3096 6.2351-14.48 13.88-14.48 4.3252 0 7.7259 1.1987 9.2 2.12l-1.8 5c-0.98137-0.52135-3.5054-1.68-6.56-1.68zm23.8 23.28c-3.9745 0-6.8192-0.28408-9.24-0.8v-26.88c2.835-0.53155 6.6089-0.72 8.44-0.72 5.7428 0 12.08 1.2536 12.08 7.8 0 2.2133-1.0667 3.96-3.2 5.24 3.0743 1.0716 4.4184 3.479 4.56 6.6 0 6.8145-5.901 8.76-12.64 8.76zm-3.16-12.44v7.16c0.98081 0.11539 2.0707 0.16 3.24 0.16 2.8306-6e-3 5.9596-0.46056 6.24-3.76 0-0.94028-0.0632-3.56-5.56-3.56zm0-4.76h3.04c3.4646 0 5.36-0.71411 5.36-3.12 0-1.4248-0.57021-3.04-5.04-3.04-1.1212 0.0106-2.2423 0.0329-3.36 0.12zm33.44 17.4c-11.917 0-13.84-8.7761-13.84-14.44 0-8.7097 5.577-14.48 14.16-14.48 3.6494 0 6.894 1.0788 8.56 2.12l-1.8 5.04c-1.62-0.86062-3.9004-1.64-6.84-1.64-1.6567 0-7.6 0.57595-7.6 8.84 0 7.3771 4.1646 9.04 7.92 9.04 2.4702 0.084 4.7798-0.55372 7-1.56l1.72 5c-3.204 1.9418-7.9741 2.08-9.28 2.08z" fill="#282828" opacity=".2" aria-label="GBCI"/><path d="m103.68 201.8c-6.2421 0-8.24 3.9646-8.24 9.04 0 4.9582 2.1987 9.08 7.68 9.08 1.7593 0 2.5214-0.0803 3.08-0.2v-9.64h6.24v13.72c-3.5405 1.3909-8.9813 1.44-9.72 1.44-7.9578 0-13.76-4.8354-13.76-14.4 0-9.3096 6.2351-14.48 13.88-14.48 4.3252 0 7.7259 1.1987 9.2 2.12l-1.8 5c-0.98137-0.52135-3.5054-1.68-6.56-1.68zm23.8 23.28c-3.9745 0-6.8192-0.28408-9.24-0.8v-26.88c2.835-0.53155 6.6089-0.72 8.44-0.72 5.7428 0 12.08 1.2536 12.08 7.8 0 2.2133-1.0667 3.96-3.2 5.24 3.0743 1.0716 4.4184 3.479 4.56 6.6 0 6.8145-5.901 8.76-12.64 8.76zm-3.16-12.44v7.16c0.98081 0.11539 2.0707 0.16 3.24 0.16 2.8306-6e-3 5.9596-0.46056 6.24-3.76 0-0.94028-0.0632-3.56-5.56-3.56zm0-4.76h3.04c3.4646 0 5.36-0.71411 5.36-3.12 0-1.4248-0.57021-3.04-5.04-3.04-1.1212 0.0106-2.2423 0.0329-3.36 0.12zm33.44 17.4c-11.917 0-13.84-8.7761-13.84-14.44 0-8.7097 5.577-14.48 14.16-14.48 3.6494 0 6.894 1.0788 8.56 2.12l-1.8 5.04c-1.62-0.86062-3.9004-1.64-6.84-1.64-1.6567 0-7.6 0.57595-7.6 8.84 0 7.3771 4.1646 9.04 7.92 9.04 2.4702 0.084 4.7798-0.55372 7-1.56l1.72 5c-3.204 1.9418-7.9741 2.08-9.28 2.08z" fill="#ebdbb2" aria-label="GBCI"/><path d="m102.84 196.36c-7.6449 0-13.879 5.169-13.879 14.479 0 0.53668 0.0247 1.0537 0.0606 1.5606 0.61314-8.3978 6.5787-13.041 13.818-13.041 3.6059 0 6.5509 0.83354 8.291 1.6445l0.9082-2.5234c-1.4741-0.92131-4.8741-2.1191-9.1993-2.1191zm55.24 0c-8.583 0-14.16 5.7688-14.16 14.479 0 0.498 0.0234 1.0264 0.0586 1.5645 0.58357-7.9005 6.0006-13.045 14.102-13.045 3.0828 0 5.8646 0.77198 7.6621 1.6387l0.89843-2.5176c-1.666-1.0412-4.9111-2.1191-8.5605-2.1191zm-31.4 0.31836c-1.8311 0-5.6045 0.18915-8.4395 0.7207v3c2.835-0.53155 6.6084-0.7207 8.4395-0.7207 5.2302 0 10.938 1.0547 11.918 6.1855 0.1026-0.4405 0.16211-0.89937 0.16211-1.3848 0-6.5464-6.3373-7.8008-12.08-7.8008zm5.6797 9.5996c-0.7014 1.2033-2.4131 1.6016-5 1.6016h-3.0391v3h3.0391c3.4645 0 5.3613-0.7152 5.3613-3.1211 0-0.49676-0.0816-1.0139-0.36132-1.4805zm-26.16 3.8008v3h6.2402v-3zm31.463 0.78906c-0.51873 0.69662-1.2114 1.3174-2.1016 1.8516 2.6243 0.9147 3.9791 2.8069 4.4102 5.2812 0.0886-0.52786 0.14844-1.0798 0.14844-1.6816-0.10356-2.2828-0.8603-4.1754-2.457-5.4512zm12.809 1.3672c-0.0455 0.46546-0.0703 0.95848-0.0703 1.4844 0 7.3771 4.1646 9.0391 7.9199 9.0391 2.4702 0.084 4.7798-0.55427 7-1.5606l0.84766 2.4648c0.29934-0.1428 0.59217-0.29384 0.87109-0.46289l-1.7188-5c-2.2202 1.0063-4.5298 1.6426-7 1.5586-3.4813 0-7.3088-1.4377-7.8496-7.5234zm-54.957 0.0566c-0.0461 0.50258-0.0742 1.0168-0.0742 1.5469 0 4.9582 2.1984 9.0801 7.6797 9.0801 1.7593 0 2.5215-0.0795 3.0801-0.19922v-3c-0.55857 0.1197-1.3208 0.19922-3.0801 0.19922-4.9345 0-7.2008-3.343-7.6055-7.627zm37.932 5.291c-0.93985 2.0437-3.5134 2.3719-5.8848 2.377-1.1693 0-2.2594-0.0448-3.2402-0.16016v3c0.98081 0.11539 2.071 0.16016 3.2402 0.16016 2.8306-6e-3 5.9598-0.46228 6.2402-3.7617 0-0.3676-0.0153-0.99116-0.35547-1.6152z" fill="#fbf1c7" opacity=".6"/><path d="m88.5 45c-0.277 0-0.5 0.223-0.5 0.5s0.223 0.5 0.5 0.5h75c0.277 0 0.5-0.223 0.5-0.5s-0.223-0.5-0.5-0.5zm0 4c-0.277 0-0.5 0.223-0.5 0.5s0.223 0.5 0.5 0.5h75c0.277 0 0.5-0.223 0.5-0.5s-0.223-0.5-0.5-0.5zm0 4c-0.277 0-0.5 0.223-0.5 0.5s0.223 0.5 0.5 0.5h75c0.277 0 0.5-0.223 0.5-0.5s-0.223-0.5-0.5-0.5zm0 4c-0.277 0-0.5 0.223-0.5 0.5s0.223 0.5 0.5 0.5h75c0.277 0 0.5-0.223 0.5-0.5s-0.223-0.5-0.5-0.5z" fill="#b8bb26" stroke-linecap="round" stroke-linejoin="bevel" stroke-miterlimit="0" stroke-width="10" style="paint-order:markers fill stroke"/><path d="m94 38h64c2.77 0 5 2.23 5 5v112c0 2.77-2 4-5 5 0 0-11 4-32 4s-32-4-32-4c-3-1-5-2.23-5-5v-112c0-2.77 2.23-5 5-5z" fill="#282828" opacity=".1" stroke-linecap="square" stroke-linejoin="round" stroke-miterlimit="0" stroke-width="10" style="paint-order:markers fill stroke"/><path d="m94 34h64c2.77 0 5 2.23 5 5v112c0 2.77-2 4-5 5 0 0-11 4-32 4s-32-4-32-4c-3-1-5-2.23-5-5v-112c0-2.77 2.23-5 5-5z" fill="#98971a" stroke-linecap="square" stroke-linejoin="round" stroke-miterlimit="0" stroke-width="10" style="paint-order:markers fill stroke"/><path d="m94 34c-2.77 0-5 2.23-5 5v3c0-2.77 2.23-5 5-5h64c2.77 0 5 2.23 5 5v-3c0-2.77-2.23-5-5-5z" fill="#ebdbb2" opacity=".15" stroke-linecap="square" stroke-linejoin="round" stroke-miterlimit="0" stroke-width="10" style="paint-order:markers fill stroke"/><path d="m94 34c-2.77 0-5 2.23-5 5v112c0 2.77 2 4 5 5 0 0 2.4375 0.86875 7 1.7834v-123.78z" fill="#ebdbb2" opacity=".15" stroke-linecap="square" stroke-linejoin="round" stroke-miterlimit="0" stroke-width="10" style="paint-order:markers fill stroke"/><path d="m95 40h62c1.108 0 2 0.892 2 2v52c0 1.108-1 1.8673-2 2 0 0-17 2-31 2s-31-2-31-2c-1-0.17555-2-0.892-2-2v-52c0-1.108 0.892-2 2-2z" fill="#ebdbb2" opacity=".2" stroke-linecap="round" stroke-linejoin="bevel" stroke-miterlimit="0" stroke-width="10" style="paint-order:markers fill stroke"/><path d="m95 39h62c1.108 0 2 0.892 2 2v52c0 1.108-1 1.8673-2 2 0 0-17 2-31 2s-31-2-31-2c-1-0.17555-2-0.892-2-2v-52c0-1.108 0.892-2 2-2z" fill="#3c3836" stroke-linecap="round" stroke-linejoin="bevel" stroke-miterlimit="0" stroke-width="10" style="paint-order:markers fill stroke"/><path d="m95 39c-1.108 0-2 0.892-2 2v1c0-1.108 0.892-2 2-2h62c1.108 0 2 0.892 2 2v-1c0-1.108-0.892-2-2-2z" fill="#282828" stroke-linecap="round" stroke-linejoin="bevel" stroke-miterlimit="0" stroke-width="10" style="paint-order:markers fill stroke"/><rect x="103" y="45" width="46" height="39" fill="#282828" stroke-linecap="round" stroke-linejoin="bevel" stroke-miterlimit="0" stroke-width="10.744" style="paint-order:markers fill stroke"/><rect x="104" y="46" width="44" height="37" fill="#bdae93" stroke-linecap="round" stroke-linejoin="bevel" stroke-miterlimit="0" stroke-width="10.235" style="paint-order:markers fill stroke"/><path d="m144.5 138.25a0.5 0.5 0 0 0-0.5 0.5 0.5 0.5 0 0 0 0.5 0.5 0.5 0.5 0 0 0 0.5-0.5 0.5 0.5 0 0 0-0.5-0.5zm4 0a0.5 0.5 0 0 0-0.5 0.5 0.5 0.5 0 0 0 0.5 0.5 0.5 0.5 0 0 0 0.5-0.5 0.5 0.5 0 0 0-0.5-0.5zm4 0a0.5 0.5 0 0 0-0.5 0.5 0.5 0.5 0 0 0 0.5 0.5 0.5 0.5 0 0 0 0.5-0.5 0.5 0.5 0 0 0-0.5-0.5zm-10 2a0.5 0.5 0 0 0-0.5 0.5 0.5 0.5 0 0 0 0.5 0.5 0.5 0.5 0 0 0 0.5-0.5 0.5 0.5 0 0 0-0.5-0.5zm4 0a0.5 0.5 0 0 0-0.5 0.5 0.5 0.5 0 0 0 0.5 0.5 0.5 0.5 0 0 0 0.5-0.5 0.5 0.5 0 0 0-0.5-0.5zm4 0a0.5 0.5 0 0 0-0.5 0.5 0.5 0.5 0 0 0 0.5 0.5 0.5 0.5 0 0 0 0.5-0.5 0.5 0.5 0 0 0-0.5-0.5zm4 0a0.5 0.5 0 0 0-0.5 0.5 0.5 0.5 0 0 0 0.5 0.5 0.5 0.5 0 0 0 0.5-0.5 0.5 0.5 0 0 0-0.5-0.5zm-10 2a0.5 0.5 0 0 0-0.5 0.5 0.5 0.5 0 0 0 0.5 0.5 0.5 0.5 0 0 0 0.5-0.5 0.5 0.5 0 0 0-0.5-0.5zm4 0a0.5 0.5 0 0 0-0.5 0.5 0.5 0.5 0 0 0 0.5 0.5 0.5 0.5 0 0 0 0.5-0.5 0.5 0.5 0 0 0-0.5-0.5zm4 0a0.5 0.5 0 0 0-0.5 0.5 0.5 0.5 0 0 0 0.5 0.5 0.5 0.5 0 0 0 0.5-0.5 0.5 0.5 0 0 0-0.5-0.5zm4 0a0.5 0.5 0 0 0-0.5 0.5 0.5 0.5 0 0 0 0.5 0.5 0.5 0.5 0 0 0 0.5-0.5 0.5 0.5 0 0 0-0.5-0.5zm-14 2a0.5 0.5 0 0 0-0.5 0.5 0.5 0.5 0 0 0 0.5 0.5 0.5 0.5 0 0 0 0.5-0.5 0.5 0.5 0 0 0-0.5-0.5zm4 0a0.5 0.5 0 0 0-0.5 0.5 0.5 0.5 0 0 0 0.5 0.5 0.5 0.5 0 0 0 0.5-0.5 0.5 0.5 0 0 0-0.5-0.5zm4 0a0.5 0.5 0 0 0-0.5 0.5 0.5 0.5 0 0 0 0.5 0.5 0.5 0.5 0 0 0 0.5-0.5 0.5 0.5 0 0 0-0.5-0.5zm4 0a0.5 0.5 0 0 0-0.5 0.5 0.5 0.5 0 0 0 0.5 0.5 0.5 0.5 0 0 0 0.5-0.5 0.5 0.5 0 0 0-0.5-0.5zm-10 2a0.5 0.5 0 0 0-0.5 0.5 0.5 0.5 0 0 0 0.5 0.5 0.5 0.5 0 0 0 0.5-0.5 0.5 0.5 0 0 0-0.5-0.5zm4 0a0.5 0.5 0 0 0-0.5 0.5 0.5 0.5 0 0 0 0.5 0.5 0.5 0.5 0 0 0 0.5-0.5 0.5 0.5 0 0 0-0.5-0.5zm4 0a0.5 0.5 0 0 0-0.5 0.5 0.5 0.5 0 0 0 0.5 0.5 0.5 0.5 0 0 0 0.5-0.5 0.5 0.5 0 0 0-0.5-0.5zm4 0a0.5 0.5 0 0 0-0.5 0.5 0.5 0.5 0 0 0 0.5 0.5 0.5 0.5 0 0 0 0.5-0.5 0.5 0.5 0 0 0-0.5-0.5zm-14 2a0.5 0.5 0 0 0-0.5 0.5 0.5 0.5 0 0 0 0.5 0.5 0.5 0.5 0 0 0 0.5-0.5 0.5 0.5 0 0 0-0.5-0.5zm4 0a0.5 0.5 0 0 0-0.5 0.5 0.5 0.5 0 0 0 0.5 0.5 0.5 0.5 0 0 0 0.5-0.5 0.5 0.5 0 0 0-0.5-0.5zm4 0a0.5 0.5 0 0 0-0.5 0.5 0.5 0.5 0 0 0 0.5 0.5 0.5 0.5 0 0 0 0.5-0.5 0.5 0.5 0 0 0-0.5-0.5zm4 0a0.5 0.5 0 0 0-0.5 0.5 0.5 0.5 0 0 0 0.5 0.5 0.5 0.5 0 0 0 0.5-0.5 0.5 0.5 0 0 0-0.5-0.5zm-10 2a0.5 0.5 0 0 0-0.5 0.5 0.5 0.5 0 0 0 0.5 0.5 0.5 0.5 0 0 0 0.5-0.5 0.5 0.5 0 0 0-0.5-0.5zm4 0a0.5 0.5 0 0 0-0.5 0.5 0.5 0.5 0 0 0 0.5 0.5 0.5 0.5 0 0 0 0.5-0.5 0.5 0.5 0 0 0-0.5-0.5zm4 0a0.5 0.5 0 0 0-0.5 0.5 0.5 0.5 0 0 0 0.5 0.5 0.5 0.5 0 0 0 0.5-0.5 0.5 0.5 0 0 0-0.5-0.5zm4 0a0.5 0.5 0 0 0-0.5 0.5 0.5 0.5 0 0 0 0.5 0.5 0.5 0.5 0 0 0 0.5-0.5 0.5 0.5 0 0 0-0.5-0.5zm-10 2a0.5 0.5 0 0 0-0.5 0.5 0.5 0.5 0 0 0 0.5 0.5 0.5 0.5 0 0 0 0.5-0.5 0.5 0.5 0 0 0-0.5-0.5zm4 0a0.5 0.5 0 0 0-0.5 0.5 0.5 0.5 0 0 0 0.5 0.5 0.5 0.5 0 0 0 0.5-0.5 0.5 0.5 0 0 0-0.5-0.5zm4 0a0.5 0.5 0 0 0-0.5 0.5 0.5 0.5 0 0 0 0.5 0.5 0.5 0.5 0 0 0 0.5-0.5 0.5 0.5 0 0 0-0.5-0.5z" fill="#ebdbb2" opacity=".2" stroke-linecap="round" stroke-linejoin="bevel" stroke-miterlimit="0" stroke-width="10" style="paint-order:markers fill stroke"/><path d="m144.5 138a0.5 0.5 0 0 0-0.5 0.5 0.5 0.5 0 0 0 0.5 0.5 0.5 0.5 0 0 0 0.5-0.5 0.5 0.5 0 0 0-0.5-0.5zm4 0a0.5 0.5 0 0 0-0.5 0.5 0.5 0.5 0 0 0 0.5 0.5 0.5 0.5 0 0 0 0.5-0.5 0.5 0.5 0 0 0-0.5-0.5zm4 0a0.5 0.5 0 0 0-0.5 0.5 0.5 0.5 0 0 0 0.5 0.5 0.5 0.5 0 0 0 0.5-0.5 0.5 0.5 0 0 0-0.5-0.5zm-10 2a0.5 0.5 0 0 0-0.5 0.5 0.5 0.5 0 0 0 0.5 0.5 0.5 0.5 0 0 0 0.5-0.5 0.5 0.5 0 0 0-0.5-0.5zm4 0a0.5 0.5 0 0 0-0.5 0.5 0.5 0.5 0 0 0 0.5 0.5 0.5 0.5 0 0 0 0.5-0.5 0.5 0.5 0 0 0-0.5-0.5zm4 0a0.5 0.5 0 0 0-0.5 0.5 0.5 0.5 0 0 0 0.5 0.5 0.5 0.5 0 0 0 0.5-0.5 0.5 0.5 0 0 0-0.5-0.5zm4 0a0.5 0.5 0 0 0-0.5 0.5 0.5 0.5 0 0 0 0.5 0.5 0.5 0.5 0 0 0 0.5-0.5 0.5 0.5 0 0 0-0.5-0.5zm-10 2a0.5 0.5 0 0 0-0.5 0.5 0.5 0.5 0 0 0 0.5 0.5 0.5 0.5 0 0 0 0.5-0.5 0.5 0.5 0 0 0-0.5-0.5zm4 0a0.5 0.5 0 0 0-0.5 0.5 0.5 0.5 0 0 0 0.5 0.5 0.5 0.5 0 0 0 0.5-0.5 0.5 0.5 0 0 0-0.5-0.5zm4 0a0.5 0.5 0 0 0-0.5 0.5 0.5 0.5 0 0 0 0.5 0.5 0.5 0.5 0 0 0 0.5-0.5 0.5 0.5 0 0 0-0.5-0.5zm4 0a0.5 0.5 0 0 0-0.5 0.5 0.5 0.5 0 0 0 0.5 0.5 0.5 0.5 0 0 0 0.5-0.5 0.5 0.5 0 0 0-0.5-0.5zm-14 2a0.5 0.5 0 0 0-0.5 0.5 0.5 0.5 0 0 0 0.5 0.5 0.5 0.5 0 0 0 0.5-0.5 0.5 0.5 0 0 0-0.5-0.5zm4 0a0.5 0.5 0 0 0-0.5 0.5 0.5 0.5 0 0 0 0.5 0.5 0.5 0.5 0 0 0 0.5-0.5 0.5 0.5 0 0 0-0.5-0.5zm4 0a0.5 0.5 0 0 0-0.5 0.5 0.5 0.5 0 0 0 0.5 0.5 0.5 0.5 0 0 0 0.5-0.5 0.5 0.5 0 0 0-0.5-0.5zm4 0a0.5 0.5 0 0 0-0.5 0.5 0.5 0.5 0 0 0 0.5 0.5 0.5 0.5 0 0 0 0.5-0.5 0.5 0.5 0 0 0-0.5-0.5zm-10 2a0.5 0.5 0 0 0-0.5 0.5 0.5 0.5 0 0 0 0.5 0.5 0.5 0.5 0 0 0 0.5-0.5 0.5 0.5 0 0 0-0.5-0.5zm4 0a0.5 0.5 0 0 0-0.5 0.5 0.5 0.5 0 0 0 0.5 0.5 0.5 0.5 0 0 0 0.5-0.5 0.5 0.5 0 0 0-0.5-0.5zm4 0a0.5 0.5 0 0 0-0.5 0.5 0.5 0.5 0 0 0 0.5 0.5 0.5 0.5 0 0 0 0.5-0.5 0.5 0.5 0 0 0-0.5-0.5zm4 0a0.5 0.5 0 0 0-0.5 0.5 0.5 0.5 0 0 0 0.5 0.5 0.5 0.5 0 0 0 0.5-0.5 0.5 0.5 0 0 0-0.5-0.5zm-14 2a0.5 0.5 0 0 0-0.5 0.5 0.5 0.5 0 0 0 0.5 0.5 0.5 0.5 0 0 0 0.5-0.5 0.5 0.5 0 0 0-0.5-0.5zm4 0a0.5 0.5 0 0 0-0.5 0.5 0.5 0.5 0 0 0 0.5 0.5 0.5 0.5 0 0 0 0.5-0.5 0.5 0.5 0 0 0-0.5-0.5zm4 0a0.5 0.5 0 0 0-0.5 0.5 0.5 0.5 0 0 0 0.5 0.5 0.5 0.5 0 0 0 0.5-0.5 0.5 0.5 0 0 0-0.5-0.5zm4 0a0.5 0.5 0 0 0-0.5 0.5 0.5 0.5 0 0 0 0.5 0.5 0.5 0.5 0 0 0 0.5-0.5 0.5 0.5 0 0 0-0.5-0.5zm-10 2a0.5 0.5 0 0 0-0.5 0.5 0.5 0.5 0 0 0 0.5 0.5 0.5 0.5 0 0 0 0.5-0.5 0.5 0.5 0 0 0-0.5-0.5zm4 0a0.5 0.5 0 0 0-0.5 0.5 0.5 0.5 0 0 0 0.5 0.5 0.5 0.5 0 0 0 0.5-0.5 0.5 0.5 0 0 0-0.5-0.5zm4 0a0.5 0.5 0 0 0-0.5 0.5 0.5 0.5 0 0 0 0.5 0.5 0.5 0.5 0 0 0 0.5-0.5 0.5 0.5 0 0 0-0.5-0.5zm4 0a0.5 0.5 0 0 0-0.5 0.5 0.5 0.5 0 0 0 0.5 0.5 0.5 0.5 0 0 0 0.5-0.5 0.5 0.5 0 0 0-0.5-0.5zm-10 2a0.5 0.5 0 0 0-0.5 0.5 0.5 0.5 0 0 0 0.5 0.5 0.5 0.5 0 0 0 0.5-0.5 0.5 0.5 0 0 0-0.5-0.5zm4 0a0.5 0.5 0 0 0-0.5 0.5 0.5 0.5 0 0 0 0.5 0.5 0.5 0.5 0 0 0 0.5-0.5 0.5 0.5 0 0 0-0.5-0.5zm4 0a0.5 0.5 0 0 0-0.5 0.5 0.5 0.5 0 0 0 0.5 0.5 0.5 0.5 0 0 0 0.5-0.5 0.5 0.5 0 0 0-0.5-0.5z" fill="#504945" stroke-linecap="round" stroke-linejoin="bevel" stroke-miterlimit="0" stroke-width="10" style="paint-order:markers fill stroke"/><path d="m144.5 138a0.5 0.5 0 0 0-0.5 0.5 0.5 0.5 0 0 0 0.0332 0.125 0.5 0.5 0 0 1 0.4668-0.37695 0.5 0.5 0 0 1 0.47461 0.3457 0.5 0.5 0 0 0 0.0254-0.0937 0.5 0.5 0 0 0-0.5-0.5zm4 0a0.5 0.5 0 0 0-0.5 0.5 0.5 0.5 0 0 0 0.0332 0.125 0.5 0.5 0 0 1 0.4668-0.37695 0.5 0.5 0 0 1 0.47461 0.3457 0.5 0.5 0 0 0 0.0254-0.0937 0.5 0.5 0 0 0-0.5-0.5zm4 0a0.5 0.5 0 0 0-0.5 0.5 0.5 0.5 0 0 0 0.0332 0.125 0.5 0.5 0 0 1 0.4668-0.37695 0.5 0.5 0 0 1 0.47461 0.3457 0.5 0.5 0 0 0 0.0254-0.0937 0.5 0.5 0 0 0-0.5-0.5zm-10 2a0.5 0.5 0 0 0-0.5 0.5 0.5 0.5 0 0 0 0.0332 0.125 0.5 0.5 0 0 1 0.4668-0.37695 0.5 0.5 0 0 1 0.47461 0.3457 0.5 0.5 0 0 0 0.0254-0.0937 0.5 0.5 0 0 0-0.5-0.5zm4 0a0.5 0.5 0 0 0-0.5 0.5 0.5 0.5 0 0 0 0.0332 0.125 0.5 0.5 0 0 1 0.4668-0.37695 0.5 0.5 0 0 1 0.47461 0.3457 0.5 0.5 0 0 0 0.0254-0.0937 0.5 0.5 0 0 0-0.5-0.5zm4 0a0.5 0.5 0 0 0-0.5 0.5 0.5 0.5 0 0 0 0.0332 0.125 0.5 0.5 0 0 1 0.4668-0.37695 0.5 0.5 0 0 1 0.47461 0.3457 0.5 0.5 0 0 0 0.0254-0.0937 0.5 0.5 0 0 0-0.5-0.5zm4 0a0.5 0.5 0 0 0-0.5 0.5 0.5 0.5 0 0 0 0.0332 0.125 0.5 0.5 0 0 1 0.4668-0.37695 0.5 0.5 0 0 1 0.47461 0.3457 0.5 0.5 0 0 0 0.0254-0.0937 0.5 0.5 0 0 0-0.5-0.5zm-10 2a0.5 0.5 0 0 0-0.5 0.5 0.5 0.5 0 0 0 0.0332 0.125 0.5 0.5 0 0 1 0.4668-0.37695 0.5 0.5 0 0 1 0.47461 0.3457 0.5 0.5 0 0 0 0.0254-0.0937 0.5 0.5 0 0 0-0.5-0.5zm4 0a0.5 0.5 0 0 0-0.5 0.5 0.5 0.5 0 0 0 0.0332 0.125 0.5 0.5 0 0 1 0.4668-0.37695 0.5 0.5 0 0 1 0.47461 0.3457 0.5 0.5 0 0 0 0.0254-0.0937 0.5 0.5 0 0 0-0.5-0.5zm4 0a0.5 0.5 0 0 0-0.5 0.5 0.5 0.5 0 0 0 0.0332 0.125 0.5 0.5 0 0 1 0.4668-0.37695 0.5 0.5 0 0 1 0.47461 0.3457 0.5 0.5 0 0 0 0.0254-0.0937 0.5 0.5 0 0 0-0.5-0.5zm4 0a0.5 0.5 0 0 0-0.5 0.5 0.5 0.5 0 0 0 0.0332 0.125 0.5 0.5 0 0 1 0.4668-0.37695 0.5 0.5 0 0 1 0.47461 0.3457 0.5 0.5 0 0 0 0.0254-0.0937 0.5 0.5 0 0 0-0.5-0.5zm-14 2a0.5 0.5 0 0 0-0.5 0.5 0.5 0.5 0 0 0 0.0332 0.125 0.5 0.5 0 0 1 0.4668-0.37695 0.5 0.5 0 0 1 0.47461 0.3457 0.5 0.5 0 0 0 0.0254-0.0937 0.5 0.5 0 0 0-0.5-0.5zm4 0a0.5 0.5 0 0 0-0.5 0.5 0.5 0.5 0 0 0 0.0332 0.125 0.5 0.5 0 0 1 0.4668-0.37695 0.5 0.5 0 0 1 0.47461 0.3457 0.5 0.5 0 0 0 0.0254-0.0937 0.5 0.5 0 0 0-0.5-0.5zm4 0a0.5 0.5 0 0 0-0.5 0.5 0.5 0.5 0 0 0 0.0332 0.125 0.5 0.5 0 0 1 0.4668-0.37695 0.5 0.5 0 0 1 0.47461 0.3457 0.5 0.5 0 0 0 0.0254-0.0937 0.5 0.5 0 0 0-0.5-0.5zm4 0a0.5 0.5 0 0 0-0.5 0.5 0.5 0.5 0 0 0 0.0332 0.125 0.5 0.5 0 0 1 0.4668-0.37695 0.5 0.5 0 0 1 0.47461 0.3457 0.5 0.5 0 0 0 0.0254-0.0937 0.5 0.5 0 0 0-0.5-0.5zm-10 2a0.5 0.5 0 0 0-0.5 0.5 0.5 0.5 0 0 0 0.0332 0.125 0.5 0.5 0 0 1 0.4668-0.37695 0.5 0.5 0 0 1 0.47461 0.3457 0.5 0.5 0 0 0 0.0254-0.0937 0.5 0.5 0 0 0-0.5-0.5zm4 0a0.5 0.5 0 0 0-0.5 0.5 0.5 0.5 0 0 0 0.0332 0.125 0.5 0.5 0 0 1 0.4668-0.37695 0.5 0.5 0 0 1 0.47461 0.3457 0.5 0.5 0 0 0 0.0254-0.0937 0.5 0.5 0 0 0-0.5-0.5zm4 0a0.5 0.5 0 0 0-0.5 0.5 0.5 0.5 0 0 0 0.0332 0.125 0.5 0.5 0 0 1 0.4668-0.37695 0.5 0.5 0 0 1 0.47461 0.3457 0.5 0.5 0 0 0 0.0254-0.0937 0.5 0.5 0 0 0-0.5-0.5zm4 0a0.5 0.5 0 0 0-0.5 0.5 0.5 0.5 0 0 0 0.0332 0.125 0.5 0.5 0 0 1 0.4668-0.37695 0.5 0.5 0 0 1 0.47461 0.3457 0.5 0.5 0 0 0 0.0254-0.0937 0.5 0.5 0 0 0-0.5-0.5zm-14 2a0.5 0.5 0 0 0-0.5 0.5 0.5 0.5 0 0 0 0.0332 0.125 0.5 0.5 0 0 1 0.4668-0.37695 0.5 0.5 0 0 1 0.47461 0.3457 0.5 0.5 0 0 0 0.0254-0.0937 0.5 0.5 0 0 0-0.5-0.5zm4 0a0.5 0.5 0 0 0-0.5 0.5 0.5 0.5 0 0 0 0.0332 0.125 0.5 0.5 0 0 1 0.4668-0.37695 0.5 0.5 0 0 1 0.47461 0.3457 0.5 0.5 0 0 0 0.0254-0.0937 0.5 0.5 0 0 0-0.5-0.5zm4 0a0.5 0.5 0 0 0-0.5 0.5 0.5 0.5 0 0 0 0.0332 0.125 0.5 0.5 0 0 1 0.4668-0.37695 0.5 0.5 0 0 1 0.47461 0.3457 0.5 0.5 0 0 0 0.0254-0.0937 0.5 0.5 0 0 0-0.5-0.5zm4 0a0.5 0.5 0 0 0-0.5 0.5 0.5 0.5 0 0 0 0.0332 0.125 0.5 0.5 0 0 1 0.4668-0.37695 0.5 0.5 0 0 1 0.47461 0.3457 0.5 0.5 0 0 0 0.0254-0.0937 0.5 0.5 0 0 0-0.5-0.5zm-10 2a0.5 0.5 0 0 0-0.5 0.5 0.5 0.5 0 0 0 0.0332 0.125 0.5 0.5 0 0 1 0.4668-0.37695 0.5 0.5 0 0 1 0.47461 0.3457 0.5 0.5 0 0 0 0.0254-0.0937 0.5 0.5 0 0 0-0.5-0.5zm4 0a0.5 0.5 0 0 0-0.5 0.5 0.5 0.5 0 0 0 0.0332 0.125 0.5 0.5 0 0 1 0.4668-0.37695 0.5 0.5 0 0 1 0.47461 0.3457 0.5 0.5 0 0 0 0.0254-0.0937 0.5 0.5 0 0 0-0.5-0.5zm4 0a0.5 0.5 0 0 0-0.5 0.5 0.5 0.5 0 0 0 0.0332 0.125 0.5 0.5 0 0 1 0.4668-0.37695 0.5 0.5 0 0 1 0.47461 0.3457 0.5 0.5 0 0 0 0.0254-0.0937 0.5 0.5 0 0 0-0.5-0.5zm4 0a0.5 0.5 0 0 0-0.5 0.5 0.5 0.5 0 0 0 0.0332 0.125 0.5 0.5 0 0 1 0.4668-0.37695 0.5 0.5 0 0 1 0.47461 0.3457 0.5 0.5 0 0 0 0.0254-0.0937 0.5 0.5 0 0 0-0.5-0.5zm-10 2a0.5 0.5 0 0 0-0.5 0.5 0.5 0.5 0 0 0 0.0332 0.125 0.5 0.5 0 0 1 0.4668-0.37695 0.5 0.5 0 0 1 0.47461 0.3457 0.5 0.5 0 0 0 0.0254-0.0937 0.5 0.5 0 0 0-0.5-0.5zm4 0a0.5 0.5 0 0 0-0.5 0.5 0.5 0.5 0 0 0 0.0332 0.125 0.5 0.5 0 0 1 0.4668-0.37695 0.5 0.5 0 0 1 0.47461 0.3457 0.5 0.5 0 0 0 0.0254-0.0937 0.5 0.5 0 0 0-0.5-0.5zm4 0a0.5 0.5 0 0 0-0.5 0.5 0.5 0.5 0 0 0 0.0332 0.125 0.5 0.5 0 0 1 0.4668-0.37695 0.5 0.5 0 0 1 0.47461 0.3457 0.5 0.5 0 0 0 0.0254-0.0937 0.5 0.5 0 0 0-0.5-0.5z" fill="#282828" opacity=".5" stroke-linecap="round" stroke-linejoin="bevel" stroke-miterlimit="0" stroke-width="10" style="paint-order:markers fill stroke"/><path d="m101.87 109c-0.554 0-1 0.446-1 1v5h-4.8672c-0.554 0-1 0.446-1 1v4c0 0.554 0.446 1 1 1h4.8672v5c0 0.554 0.446 1 1 1h4c0.554 0 1-0.446 1-1v-5h5c0.554 0 1-0.446 1-1v-4c0-0.554-0.446-1-1-1h-5v-5c0-0.554-0.446-1-1-1zm50.633 1.5a4.5 4.5 0 0 0-4.5 4.5 4.5 4.5 0 0 0 4.5 4.5 4.5 4.5 0 0 0 4.5-4.5 4.5 4.5 0 0 0-4.5-4.5zm-14 4.5a4.5 4.5 0 0 0-4.5 4.5 4.5 4.5 0 0 0 4.5 4.5 4.5 4.5 0 0 0 4.5-4.5 4.5 4.5 0 0 0-4.5-4.5zm-21 22c-0.831 0-1.5 0.669-1.5 1.5s0.669 1.5 1.5 1.5h6c0.831 0 1.5-0.669 1.5-1.5s-0.669-1.5-1.5-1.5zm11 0c-0.831 0-1.5 0.669-1.5 1.5s0.669 1.5 1.5 1.5h6c0.831 0 1.5-0.669 1.5-1.5s-0.669-1.5-1.5-1.5z" fill="#282828" opacity=".2" stroke-linecap="round" stroke-linejoin="bevel" stroke-miterlimit="0" stroke-width="10" style="paint-order:markers fill stroke"/><path d="m117.5 136c-0.831 0-1.5 0.669-1.5 1.5s0.669 1.5 1.5 1.5h6c0.831 0 1.5-0.669 1.5-1.5s-0.669-1.5-1.5-1.5zm11 0c-0.831 0-1.5 0.669-1.5 1.5s0.669 1.5 1.5 1.5h6c0.831 0 1.5-0.669 1.5-1.5s-0.669-1.5-1.5-1.5z" fill="#665c54" stroke-linecap="round" stroke-linejoin="bevel" stroke-miterlimit="0" stroke-width="10" style="paint-order:markers fill stroke"/><path d="m152.5 109.5a4.5 4.5 0 0 0-4.5 4.5 4.5 4.5 0 0 0 4.5 4.5 4.5 4.5 0 0 0 4.5-4.5 4.5 4.5 0 0 0-4.5-4.5zm-14 4.5a4.5 4.5 0 0 0-4.5 4.5 4.5 4.5 0 0 0 4.5 4.5 4.5 4.5 0 0 0 4.5-4.5 4.5 4.5 0 0 0-4.5-4.5z" fill="#665c54" stroke-linecap="round" stroke-linejoin="bevel" stroke-miterlimit="0" stroke-width="10" style="paint-order:markers fill stroke"/><path d="m101.87 108c-0.554 0-1 0.446-1 1v5h-4.868c-0.554 0-1 0.446-1 1v4c0 0.554 0.446 1 1 1h4.868v5c0 0.554 0.446 1 1 1h4c0.554 0 1-0.446 1-1v-5h5c0.554 0 1-0.446 1-1v-4c0-0.554-0.446-1-1-1h-5v-5c0-0.554-0.446-1-1-1z" fill="url(#linearGradient59)" stroke-linecap="round" stroke-linejoin="bevel" stroke-miterlimit="0" stroke-width="10" style="paint-order:markers fill stroke"/><path d="m117.5 136c-0.831 0-1.5 0.669-1.5 1.5s0.669 1.5 1.5 1.5h6c0.831 0 1.5-0.669 1.5-1.5s-0.669-1.5-1.5-1.5zm11 0c-0.831 0-1.5 0.669-1.5 1.5s0.669 1.5 1.5 1.5h6c0.831 0 1.5-0.669 1.5-1.5s-0.669-1.5-1.5-1.5z" fill="#504945" stroke-linecap="round" stroke-linejoin="bevel" stroke-miterlimit="0" stroke-width="10" style="paint-order:markers fill stroke"/><path d="m152.5 109.5a4.5 4.5 0 0 0-4.5 4.5 4.5 4.5 0 0 0 4.5 4.5 4.5 4.5 0 0 0 4.5-4.5 4.5 4.5 0 0 0-4.5-4.5zm-14 4.5a4.5 4.5 0 0 0-4.5 4.5 4.5 4.5 0 0 0 4.5 4.5 4.5 4.5 0 0 0 4.5-4.5 4.5 4.5 0 0 0-4.5-4.5z" fill="#504945" stroke-linecap="round" stroke-linejoin="bevel" stroke-miterlimit="0" stroke-width="10" style="paint-order:markers fill stroke"/><path d="m101.87 108c-0.554 0-1 0.446-1 1v1c0-0.554 0.446-1 1-1h4c0.554 0 1 0.446 1 1v-1c0-0.554-0.446-1-1-1zm50.633 1.5a4.5 4.5 0 0 0-4.5 4.5 4.5 4.5 0 0 0 0.0801 0.5 4.5 4.5 0 0 1 4.4199-4 4.5 4.5 0 0 1 4.4453 3.8418 4.5 4.5 0 0 0 0.0547-0.3418 4.5 4.5 0 0 0-4.5-4.5zm-56.5 4.5c-0.554 0-1 0.446-1 1v1c0-0.554 0.446-1 1-1h4.8672v-1zm10.867 0v1h5c0.554 0 1 0.446 1 1v-1c0-0.554-0.446-1-1-1zm31.633 0a4.5 4.5 0 0 0-4.5 4.5 4.5 4.5 0 0 0 0.0801 0.5 4.5 4.5 0 0 1 4.4199-4 4.5 4.5 0 0 1 4.4453 3.8418 4.5 4.5 0 0 0 0.0547-0.3418 4.5 4.5 0 0 0-4.5-4.5zm-21 22c-0.831 0-1.5 0.669-1.5 1.5 0 0.17676 0.0361 0.34278 0.0918 0.5 0.206-0.58192 0.75396-1 1.4082-1h6c0.65424 0 1.2022 0.41808 1.4082 1 0.0557-0.15727 0.0918-0.32318 0.0918-0.5 0-0.831-0.669-1.5-1.5-1.5zm11 0c-0.831 0-1.5 0.669-1.5 1.5 0 0.17676 0.0361 0.34278 0.0918 0.5 0.206-0.58192 0.75396-1 1.4082-1h6c0.65424 0 1.2022 0.41808 1.4082 1 0.0557-0.15727 0.0918-0.32318 0.0918-0.5 0-0.831-0.669-1.5-1.5-1.5z" fill="#ebdbb2" opacity=".1" stroke-linecap="round" stroke-linejoin="bevel" stroke-miterlimit="0" stroke-width="10" style="paint-order:markers fill stroke"/><path d="m104 109.28-2 3h4zm-5 6-3 2 3 2zm5 0a2 2 0 0 0-2 2 2 2 0 0 0 2 2 2 2 0 0 0 2-2 2 2 0 0 0-2-2zm5 0v4.2285l3-2.2285zm-7 7 2 3 2-3z" fill="#ebdbb2" opacity=".1" stroke-linecap="round" stroke-linejoin="bevel" stroke-miterlimit="0" stroke-width="10" style="paint-order:markers fill stroke"/><path d="m104 109-2 3h4zm-5 6-3 2 3 2zm5 0a2 2 0 0 0-2 2 2 2 0 0 0 2 2 2 2 0 0 0 2-2 2 2 0 0 0-2-2zm5 0v4.2285l3-2.2285zm-7 7 2 3 2-3z" fill="#3c3836" stroke-linecap="round" stroke-linejoin="bevel" stroke-miterlimit="0" stroke-width="10" style="paint-order:markers fill stroke"/><path d="m104 109-2 3h0.18359l1.8164-2.7246 1.8164 2.7246h0.18359zm-5 6-3 2 0.20703 0.13672 2.793-1.8613zm5 0a2 2 0 0 0-2 2 2 2 0 0 0 0.0176 0.13672 2 2 0 0 1 1.9824-1.8613 2 2 0 0 1 1.9902 1.8027 2 2 0 0 0 0.01-0.0781 2 2 0 0 0-2-2zm5 0v0.27539l2.8047 1.8691 0.19531-0.14453zm-7 7 0.18359 0.27539h3.6328l0.18359-0.27539z" fill="#282828" stroke-linecap="round" stroke-linejoin="bevel" stroke-miterlimit="0" stroke-width="10" style="paint-order:markers fill stroke"/><path d="m108.59 86.859c-0.63656-0.0061-1.154 0.21642-1.5405 0.45583-0.76548 0.47363-1.1336 1.1958-1.0355 2.1777 0.11395 1.139 1.5888 1.8566 2.8385 1.1336 0.0137-7e-3 0.0192-0.0124 0.0286-0.0178l-0.11789 0.26758h0.83918l0.52664-1.1692h0.92826l0.20535 1.1692h1.3656l0.69634-2.1869 0.44613 2.1869h0.5357l1.0442-2.4188 0.10733 2.4188h0.80319l-0.16947-3.9094h-0.96404l-0.91064 2.1421-0.39282-2.1421h-0.79429l-1.0266 3.1598-0.52662-3.1598h-0.99062l-1.5002 3.4041 0.22377-1.4227h-1.4908l-0.11432 0.73184h0.62298l-0.0715 0.39298c-0.35686 0.1427-0.96381 0.089-1.2226-0.37507-0.16389-0.29395-0.31579-0.95001 0.37508-1.5532 0.56196-0.49088 1.535-0.57999 2.0974-0.32114 0 0 0.0714-0.41061 0.12484-0.7946-0.3375-0.11717-0.65145-0.16706-0.9408-0.16984zm16.152 0.10609c-0.77651 0.0127-1.5111 0.67416-1.7294 1.62-0.24937 1.0806 0.27008 2.1235 1.1605 2.3292 0.89 0.2057 1.814-0.50367 2.0633-1.5844 0.24935-1.0809-0.27016-2.1236-1.1605-2.3294-0.11125-0.02578-0.22297-0.03723-0.33389-0.03536zm-7.7937 0.0011-0.62489 3.9094h2.2406l0.13393-0.83894h-1.4015l0.11125-0.69636h1.2187l0.13405-0.83894h-1.232l0.10733-0.69621h1.401l0.13407-0.83894zm8.8991 0 0.94629 2.0616-0.29162 1.8477h0.80343l0.24675-1.633 1.4461-2.276h-0.93735l-0.79433 1.2762-0.49979-1.2762zm-4.3753 0.01867c-0.47973-9.96e-4 -1.067 0.0025-1.0787 0.0025l-0.62006 3.88h1.807c0.74409 0 1.8322-1.0967 0.84163-1.993 1.0186-1.0541 8e-3 -1.8779-0.53161-1.887-0.10842-0.0011-0.25676-0.0025-0.41827-0.0025zm3.295 0.74196c0.0838-0.0025 0.16669 0.01382 0.24639 0.04942 0.42488 0.19007 0.59346 0.87162 0.37697 1.522-0.21674 0.65014-0.73715 1.023-1.1621 0.83295-0.42471-0.19024-0.59346-0.87115-0.37674-1.5216 0.17624-0.52848 0.5526-0.87389 0.9155-0.88278zm-3.6828 0.08492h0.5228c0.56685 0 0.45189 0.72636-0.0883 0.72636h-0.55833zm-10.295 0.37737 0.14697 0.75844h-0.48601zm10.047 1.1463h0.67308c0.63802 0 0.62033 0.7795-0.0883 0.7795h-0.70865z" fill="#d5c4a1"/><path d="m135.88 89.762s-0.24423 0.42618-0.78051 0.37584c-0.62963-0.06455-0.70382-0.61757-0.70382-0.61757s-0.0861-0.40699 0.30163-0.76134c0.39263-0.33041 0.80203-0.28015 0.80203-0.28015s0.2753 0.0264 0.41667 0.48123c0.18189 0.57941-0.0359 0.80199-0.0359 0.80199zm0.95047-1.1467c-0.0788-0.23936-0.28732-0.46682-0.28732-0.46682s-0.31352-0.40705-0.92886-0.5458c-0.52672-0.1102-0.94092 0.12206-0.94092 0.12206s-0.37575 0.1508-0.65836 0.46204c-0.45007 0.43328-0.57941 1.0654-0.57941 1.0654s-0.17228 0.55065 0.10058 0.98636l0.29688 0.35907c0.41898 0.34958 0.86671 0.38545 0.86671 0.38545s0.36152 0.08142 0.78288-0.02884c0.36862-0.07419 0.63684-0.25625 0.63684-0.25625s0.61049-0.33745 0.77805-1.027l-0.0672-1.0558" fill="#076678" stroke-width=".92738"/><path d="m141.08 89.886c-0.67751 0.40696-1.1036-0.03839-1.1036-0.03839s-0.18913-0.12443-0.22987-0.50269c-0.0287-0.43814 0.40698-0.66555 0.40698-0.66555s0.22991-0.14129 0.51716-0.11974c0.28737 0.02156 0.37824 0.0019 0.61048 0.17478 0.22017 0.19875 0.20593 0.3447 0.20593 0.3447s0.0787 0.49326-0.40705 0.8069zm1.1467-1.3982c-0.41879-0.68466-1.1562-0.78764-1.1562-0.78764s-0.23471-0.07906-0.73742-0.01205c-0.94323 0.17957-1.2713 0.90499-1.2713 0.90499s-0.33759 0.5315-0.20348 1.1754l0.41179 0.81398c0.30404 0.28487 0.42847 0.28487 0.4477 0.30173 0.40222 0.18192 0.86902 0.0766 0.86902 0.0766s0.58896-0.05741 1.1277-0.47641c0.43091-0.31603 0.61775-0.78043 0.61775-0.78043l-0.10553-1.2162" fill="#fabd2f" stroke-width=".92738"/><path d="m143.25 88.642-0.0456-0.62484s0.43807-0.0097 0.62008 0.02156c0.35921 0.05503 0.33987 0.15564 0.33987 0.15564s-0.012 0.12683-0.28481 0.25141c-0.29689 0.14357-0.62954 0.19624-0.62954 0.19624zm-0.90978 1.0631s0.0142 0.38294-0.0456 0.47638c-0.0814 0.17471-0.0694 0.34473-0.0694 0.34473s-0.055 0.51713 0.54356 0.60336c0.41175-0.0028 0.46204-0.34484 0.46913-0.49083 0.0239-0.11489 0.0143-0.64883 0.0143-0.64883l0.53392 0.43576s0.38795 0.32558 0.61529 0.51478c0.23727 0.18666 0.2968 0.2202 0.2968 0.2202s0.0504 0.05991 0.23217 0.0383c0.14631 0.0028 0.28027-0.12925 0.28027-0.12925s0.16992-0.12444 0.21286-0.34232c0.0528-0.25857-0.14817-0.38544-0.14817-0.38544s-0.74214-0.59855-1.2449-1.0104c0.33741-0.18428 0.5003-0.31121 0.5003-0.31121s0.46936-0.31119 0.56984-0.78761c0.13903-0.52434-0.25615-0.73021-0.25615-0.73021s-0.24663-0.17719-0.45504-0.27062c-0.52425-0.25611-1.0125-0.20348-1.0125-0.20348s-0.69435-0.04784-1.1469 0.51c-0.20817 0.27049-0.0787 0.62487-0.0787 0.62487s0.026 0.05679 0.0836 0.3256c0.11654 0.54062 0.10554 1.2163 0.10554 1.2163" fill="#458588" stroke-width=".92738"/><path d="m138.86 89.768c-0.20174-0.04433-0.52436 0.0383-0.52436 0.0383s-0.45 0.16515-0.51955 0.16276c-0.0262-0.0383-0.0837-0.77328-0.0671-1.0678 0.01-0.51952-0.0335-0.94333-0.0335-0.94333s-0.0216-0.50037-0.28975-0.79721c-0.316-0.31839-0.53625-0.18196-0.66311-0.10539-0.30413 0.27296-0.16284 0.60565-0.16284 0.60565l0.15802 0.4478s0.0766 0.1915 0.0671 0.50512l0.0673 1.0558c0 0.14126 0.11487 1.0917 0.11487 1.0917s0.012 0.30891 0.30888 0.3639c0.30401 0.05026 0.60323-0.10052 0.73018-0.16028 0.12689-0.05991 0.29458-0.11254 0.29458-0.11254s0.13878-0.03116 0.27759-0.04312c0.32566-0.03107 0.44298-0.08866 0.44298-0.08866s0.12612-0.01892 0.2107-0.13893c0.0845-0.11995 0.18704-0.68232-0.41181-0.81394" fill="#b8bb26" stroke-width=".92738"/><path d="m133.53 90.238c-0.21386-0.0639-0.45958-0.02161-0.45958-0.02161s-0.69437 0.06724-1.0558-0.0099c-0.56025-0.09817-0.54116-0.70144-0.54116-0.70144s-0.019-0.39985 0.3185-0.94092c0.41653-0.66798 0.87619-0.7877 0.87619-0.7877s0.11498-0.04305 0.22272 0.01435c0.0672 0.38782 0.44283 0.38544 0.44283 0.38544s0.54117 0.03598 0.51473-0.61995c-0.0621-0.53878-0.58181-0.613-0.79965-0.66322-0.65356-0.11734-1.0773 0.2322-1.0773 0.2322s-0.43813 0.23709-0.96243 1.063c-0.35684 0.51233-0.39983 0.91455-0.39983 0.91455s-0.043 0.0959-0.0264 0.522c-0.01 0.33272 0.11496 0.57446 0.11496 0.57446s0.18917 0.57232 0.78765 0.80692c0.36387 0.15083 0.8954 0.14841 0.8954 0.14841s0.51474-0.0056 0.90973-0.02884c0.21549 0.01669 0.31846-0.0958 0.31846-0.0958s0.24172-0.15797 0.21782-0.43334c0 0-0.0468-0.28438-0.29688-0.3592" fill="#cc241d" stroke-width=".92738"/><path d="m57 15c-9.9393 0-17 7.0595-17 17v192c0 9.9393 7.0595 17 17 17h142c9.9405 0 17-7.0607 17-17v-144l-65-65zm4.0332 4.9902 89.967 0.01 60 60 2e-4 139.75c1e-5 9.4999-6.6575 16.248-16.033 16.248h-133.93c-9.3757 0-16.033-6.7481-16.033-16.248v-183.51c0-9.501 6.6586-16.25 16.033-16.25z" fill="url(#linearGradient14-07)" style="paint-order:markers fill stroke"/><path d="m151 15.002v52.914c0 9.6525 7.8639 17.084 17.518 17.084l47.482-1.34e-4v-5z" fill="#282828" opacity=".2" stroke-width="1.0833"/><path d="m151 15v47.916c0 9.6525 7.8639 17.084 17.518 17.084l47.482-1.34e-4z" fill="url(#linearGradient7-6-0-9)" stroke-width="1.0833"/></svg>
