<svg width="256" height="256" version="1.1" viewBox="0 0 256 256" xmlns="http://www.w3.org/2000/svg">
  <defs>
    <linearGradient id="linearGradient21" x1="128" x2="128" y1="15" y2="241" gradientTransform="translate(-9.75e-4,-9.75e-4)" gradientUnits="userSpaceOnUse">
      <stop stop-color="#ebdbb2" offset="0"/>
      <stop stop-color="#d5c4a1" offset="1"/>
    </linearGradient>
    <linearGradient id="linearGradient7-6-0-5" x1="186" x2="156" y1="45.006" y2="75.012" gradientTransform="matrix(1.0833 0 0 1.0833 -17.999 -1.251)" gradientUnits="userSpaceOnUse">
      <stop stop-color="#b8bb26" offset="0"/>
      <stop stop-color="#98971a" offset=".3027"/>
      <stop stop-color="#79740e" offset="1"/>
    </linearGradient>
    <linearGradient id="linearGradient14-07" x1="128" x2="128" y1="15.001" y2="241" gradientTransform="translate(0,4.8e-4)" gradientUnits="userSpaceOnUse">
      <stop stop-color="#79740e" stop-opacity=".10367" offset="0"/>
      <stop stop-color="#79740e" stop-opacity=".049869" offset=".2"/>
      <stop stop-color="#79740e" stop-opacity=".052493" offset=".70405"/>
      <stop stop-color="#282828" stop-opacity=".052493" offset=".80473"/>
      <stop stop-color="#282828" stop-opacity=".10105" offset="1"/>
    </linearGradient>
  </defs>
  <path d="m56.999 14.999c-9.9393 0-17 7.0595-17 17v149h176v-101l-64.998-64.998z" fill="url(#linearGradient21)" style="paint-order:markers fill stroke"/>
  <path d="m57 241c-9.9393 0-17-7.0595-17-17v-43h176v43c0 9.9405-7.0607 17-17 17z" fill="#98971a" stroke-linecap="round" stroke-linejoin="round" stroke-miterlimit="0" style="paint-order:markers fill stroke"/>
  <path d="m105.76 222.96c3.2335 0 4.48-0.98172 4.48-2.88 0-1.533-1.0262-2.6487-5.68-4.2-3.4634-1.2224-7.6-2.955-7.6-8.2 0-5.1508 4.0386-8.32 10.2-8.32 3.7211 0 6.4107 0.94404 8.2 1.92l-1.8 4.92c-1.873-0.99727-3.8907-1.4678-6-1.52-2.9192 0-4.2 0.79833-4.2 2.52 0.24727 2.3866 2.8628 3.0035 4.8 3.68 5.9312 2.1967 8.52 4.0081 8.52 9.24 0 6.7588-5.9696 8.16-10.92 8.16-2.0763 0-6.0494-0.27394-9.28-2.12l1.76-4.96c2.3212 1.3162 4.8902 1.7066 7.52 1.76zm31.64 4.76c-0.95148-1.903-3.0803-5.9231-5.72-9.56-2.4596 3.1624-5.5122 8.7835-5.88 9.56h-7.12c2.4908-4.5853 5.4549-8.9918 9.32-14.36l-8.92-13.36h7.56l5.4 8.64 5.28-8.64h7.12l-8.8 13.44c2.0317 2.6364 5.968 8.0335 9.24 14.28zm11.08-27.72h6.24v27.72h-6.24z" color="#000000" color-rendering="auto" dominant-baseline="auto" fill="#282828" image-rendering="auto" opacity=".2" shape-rendering="auto" solid-color="#000000" stop-color="#000000" style="-inkscape-stroke:none;font-feature-settings:normal;font-variant-alternates:normal;font-variant-caps:normal;font-variant-east-asian:normal;font-variant-ligatures:normal;font-variant-numeric:normal;font-variant-position:normal;font-variation-settings:normal;inline-size:0;isolation:auto;mix-blend-mode:normal;shape-margin:0;shape-padding:0;text-decoration-color:#000000;text-decoration-line:none;text-decoration-style:solid;text-indent:0;text-orientation:mixed;text-transform:none;white-space:normal" aria-label="SXI"/>
  <path d="m105.76 219.96c3.2335 0 4.48-0.98172 4.48-2.88 0-1.533-1.0262-2.6487-5.68-4.2-3.4634-1.2224-7.6-2.955-7.6-8.2 0-5.1508 4.0386-8.32 10.2-8.32 3.7211 0 6.4107 0.94404 8.2 1.92l-1.8 4.92c-1.873-0.99727-3.8907-1.4678-6-1.52-2.9192 0-4.2 0.79833-4.2 2.52 0.24727 2.3866 2.8628 3.0035 4.8 3.68 5.9312 2.1967 8.52 4.0081 8.52 9.24 0 6.7588-5.9696 8.16-10.92 8.16-2.0763 0-6.0494-0.27394-9.28-2.12l1.76-4.96c2.3212 1.3162 4.8902 1.7066 7.52 1.76zm31.64 4.76c-0.95148-1.903-3.0803-5.9231-5.72-9.56-2.4596 3.1624-5.5122 8.7835-5.88 9.56h-7.12c2.4908-4.5853 5.4549-8.9918 9.32-14.36l-8.92-13.36h7.56l5.4 8.64 5.28-8.64h7.12l-8.8 13.44c2.0317 2.6364 5.968 8.0335 9.24 14.28zm11.08-27.72h6.24v27.72h-6.24z" color="#000000" color-rendering="auto" dominant-baseline="auto" fill="#ebdbb2" image-rendering="auto" shape-rendering="auto" solid-color="#000000" stop-color="#000000" style="-inkscape-stroke:none;font-feature-settings:normal;font-variant-alternates:normal;font-variant-caps:normal;font-variant-east-asian:normal;font-variant-ligatures:normal;font-variant-numeric:normal;font-variant-position:normal;font-variation-settings:normal;inline-size:0;isolation:auto;mix-blend-mode:normal;shape-margin:0;shape-padding:0;text-decoration-color:#000000;text-decoration-line:none;text-decoration-style:solid;text-indent:0;text-orientation:mixed;text-transform:none;white-space:normal" aria-label="SXI"/>
  <path d="m107.16 196.36c-6.1614 0-10.201 3.1696-10.201 8.3203 0 0.53497 0.0538 1.0252 0.13476 1.4902 0.72322-4.2495 4.5348-6.8105 10.066-6.8105 3.1286 0 5.5194 0.67032 7.2676 1.4629l0.93164-2.543c-1.7893-0.97596-4.4781-1.9199-8.1992-1.9199zm11.92 0.64062 2.0039 3h5.5547l5.4004 8.6406 5.2812-8.6406h5.1543l1.9648-3h-7.1191l-5.2812 8.6406-5.4004-8.6406zm29.4 0v3h6.2383v-3zm-44.564 8.6484c-0.37776 0.39228-0.55664 0.90625-0.55664 1.5508 0.24727 2.3866 2.8636 3.0052 4.8008 3.6816 5.285 1.9574 7.9093 3.6144 8.4199 7.6523 0.0628-0.44372 0.0996-0.91308 0.0996-1.4141 0-5.2319-2.5883-7.0415-8.5195-9.2383-1.4676-0.51248-3.3226-0.99299-4.2441-2.2324zm23.053 6.168c-3.3505 4.7074-6.033 8.7511-8.2891 12.904h1.7129c2.1233-3.5628 4.5887-7.1687 7.6074-11.361zm9.7168 0.0234-1.0469 1.5996c1.6967 2.2017 4.721 6.3421 7.5781 11.281h1.6621c-2.8072-5.3591-6.0305-9.9791-8.1934-12.881zm-38.445 6.3594-1.7598 4.9609c0.29445 0.16825 0.5956 0.31977 0.90039 0.46289l0.85938-2.4238c2.3212 1.3162 4.8898 1.7083 7.5195 1.7617 3.2335 0 4.4805-0.98258 4.4805-2.8809 0-0.50959-0.11908-0.97319-0.44141-1.4219-0.60604 0.8599-1.875 1.3027-4.0391 1.3027-2.6298-0.0534-5.1983-0.44556-7.5195-1.7617z" color="#000000" color-rendering="auto" dominant-baseline="auto" fill="#fbf1c7" image-rendering="auto" opacity=".6" shape-rendering="auto" solid-color="#000000" stop-color="#000000" style="-inkscape-stroke:none;font-feature-settings:normal;font-variant-alternates:normal;font-variant-caps:normal;font-variant-east-asian:normal;font-variant-ligatures:normal;font-variant-numeric:normal;font-variant-position:normal;font-variation-settings:normal;inline-size:0;isolation:auto;mix-blend-mode:normal;shape-margin:0;shape-padding:0;text-decoration-color:#000000;text-decoration-line:none;text-decoration-style:solid;text-indent:0;text-orientation:mixed;text-transform:none;white-space:normal"/>
  <path d="m105 64.795v30.205h30.205c0-16.682-13.523-30.205-30.205-30.205zm-9.7945 9.9486c-16.682 0-30.205 13.523-30.205 30.205s13.523 30.205 30.205 30.205 30.205-13.523 30.205-30.205h-30.205zm49.795 0v15.257h46v-15.257zm0 30.205v15.051h46v-15.051zm-80 45.051v15.36h103.56v-15.36z" color="#ebdbb2" fill="#ebdbb2" opacity=".6" stroke-width="7.5514"/>
  <path d="m105 59.795v30.205h30.205c0-16.682-13.523-30.205-30.205-30.205zm-9.7945 9.9486c-16.682 0-30.205 13.523-30.205 30.205s13.523 30.205 30.205 30.205 30.205-13.523 30.205-30.205h-30.205zm49.795 0v15.257h46v-15.257zm0 30.205v15.051h46v-15.051zm-80 45.051v15.36h103.56v-15.36z" color="#ebdbb2" fill="#98971a" stroke-width="7.5514"/>
  <path d="m105 59.795v5c14.975 0 27.371 10.908 29.758 25.205h0.44727c0-16.682-13.523-30.205-30.205-30.205zm-9.7949 9.9473c-16.682 0-30.205 13.525-30.205 30.207 0 0.84413 0.05904 1.6734 0.12695 2.5 1.2734-15.51 14.24-27.707 30.078-27.707zm49.795 0v5h46v-5zm-49.795 30.207v5h29.758c0.27228-1.6303 0.44727-3.2924 0.44727-5zm49.795 0v5h46v-5zm-80 45.051v5h103.56v-5z" color="#ebdbb2" fill="#282828" opacity=".15" stroke-width="7.5514"/>
  <path d="m57 15c-9.9393 0-17 7.0595-17 17v192c0 9.9393 7.0595 17 17 17h142c9.9405 0 17-7.0607 17-17v-144l-65-65zm4.0332 4.9902 89.967 0.01 60 60 2e-4 139.75c1e-5 9.4999-6.6575 16.248-16.033 16.248h-133.93c-9.3757 0-16.033-6.7481-16.033-16.248v-183.51c0-9.501 6.6586-16.25 16.033-16.25z" fill="url(#linearGradient14-07)" style="paint-order:markers fill stroke"/>
  <path d="m151 15.002v52.914c0 9.6525 7.8639 17.084 17.518 17.084l47.482-1.34e-4v-5z" fill="#282828" opacity=".2" stroke-width="1.0833"/>
  <path d="m151 15v47.916c0 9.6525 7.8639 17.084 17.518 17.084l47.482-1.34e-4z" fill="url(#linearGradient7-6-0-5)" stroke-width="1.0833"/>
</svg>
