<svg width="256" height="256" version="1.1" viewBox="0 0 256 256" xmlns="http://www.w3.org/2000/svg">
  <defs>
    <linearGradient id="linearGradient7-6-0" x1="186" x2="156" y1="45.006" y2="75.012" gradientTransform="matrix(1.0833 0 0 1.0833 -17.999 -1.2512)" gradientUnits="userSpaceOnUse">
      <stop stop-color="#fabd2f" offset="0"/>
      <stop stop-color="#d79921" offset=".3027"/>
      <stop stop-color="#b57614" offset="1"/>
    </linearGradient>
    <linearGradient id="linearGradient14-7-1" x1="128" x2="128" y1="15.001" y2="241" gradientTransform="translate(0,4.8e-4)" gradientUnits="userSpaceOnUse">
      <stop stop-color="#b57614" stop-opacity=".09894" offset="0"/>
      <stop stop-color="#b57614" stop-opacity=".051237" offset=".2"/>
      <stop stop-color="#b57614" stop-opacity=".045936" offset=".70405"/>
      <stop stop-color="#282828" stop-opacity=".051237" offset=".80473"/>
      <stop stop-color="#282828" stop-opacity=".09894" offset="1"/>
    </linearGradient>
    <linearGradient id="linearGradient20" x1="128" x2="128" y1="14.998" y2="241" gradientUnits="userSpaceOnUse">
      <stop stop-color="#ebdbb2" offset="0"/>
      <stop stop-color="#d5c4a1" offset="1"/>
    </linearGradient>
  </defs>
  <path d="m57 15c-9.9393 0-17 7.0595-17 17v149h176v-101l-64.998-64.998-94.002-0.001953z" fill="url(#linearGradient20)" style="paint-order:markers fill stroke"/>
  <path d="m57 241c-9.9393 0-17-7.0595-17-17v-43h176v43c0 9.9405-7.0607 17-17 17z" fill="#d79921" stroke-linecap="round" stroke-linejoin="round" stroke-miterlimit="0" style="paint-order:markers fill stroke"/>
  <path d="m99.92 199.68c12.379 0 12.84 6.5014 12.84 9.32 0 3.3294-0.85049 9.44-12.96 9.44h-1.96v9.28h-6.24v-27.32c3.0028-0.58878 6.4467-0.72 8.32-0.72zm0.4 5.32c-0.95141 0-1.8488 0.0674-2.48 0.12v8h1.96c5.6666 0 6.52-1.933 6.52-4.16 0-2.7192-1.8321-3.96-6-3.96zm32.88 22.72c-0.64332-2.0121-1.3562-4.0012-2.04-6h-10.8c-0.7104 1.9905-1.4118 3.9818-2.04 6h-6.48c4.2102-12.091 7.6081-20.66 11.04-27.72h5.96c3.6923 7.8189 6.9338 15.928 11.04 27.72zm-7.48-21.44c-0.71781 2.1535-1.6463 4.0853-3.92 10.48h7.88c-0.0734-0.20655-1.8631-5.2378-3.96-10.48zm29.4 22c-11.917 0-13.84-8.7761-13.84-14.44 0-8.7096 5.577-14.48 14.16-14.48 3.6495 0 6.894 1.0788 8.56 2.12l-1.8 5.04c-1.62-0.86063-3.9005-1.64-6.84-1.64-1.6567 0-7.6 0.57595-7.6 8.84 0 7.377 4.1646 9.04 7.92 9.04 2.4702 0.084 4.7798-0.55372 7-1.56l1.72 5c-3.204 1.9418-7.9741 2.08-9.28 2.08z" fill="#282828" opacity=".2" style="font-variant-ligatures:none" aria-label="PAC"/>
  <path d="m99.92 196.68c12.379 0 12.84 6.5014 12.84 9.32 0 3.3294-0.85049 9.44-12.96 9.44h-1.96v9.28h-6.24v-27.32c3.0028-0.58878 6.4467-0.72 8.32-0.72zm0.4 5.32c-0.95141 0-1.8488 0.0674-2.48 0.12v8h1.96c5.6666 0 6.52-1.933 6.52-4.16 0-2.7192-1.8321-3.96-6-3.96zm32.88 22.72c-0.64332-2.0121-1.3562-4.0012-2.04-6h-10.8c-0.7104 1.9905-1.4118 3.9818-2.04 6h-6.48c4.2102-12.091 7.6081-20.66 11.04-27.72h5.96c3.6923 7.8189 6.9338 15.928 11.04 27.72zm-7.48-21.44c-0.71781 2.1535-1.6463 4.0853-3.92 10.48h7.88c-0.0734-0.20655-1.8631-5.2378-3.96-10.48zm29.4 22c-11.917 0-13.84-8.7761-13.84-14.44 0-8.7096 5.577-14.48 14.16-14.48 3.6495 0 6.894 1.0788 8.56 2.12l-1.8 5.04c-1.62-0.86063-3.9005-1.64-6.84-1.64-1.6567 0-7.6 0.57595-7.6 8.84 0 7.377 4.1646 9.04 7.92 9.04 2.4702 0.084 4.7798-0.55372 7-1.56l1.72 5c-3.204 1.9418-7.9741 2.08-9.28 2.08z" fill="#ebdbb2" style="font-variant-ligatures:none" aria-label="PAC"/>
  <path d="m155.44 196.36c-8.583-1e-5 -14.16 5.7708-14.16 14.48 0 0.50335 0.0167 1.032 0.0527 1.5762 0.57788-7.9089 6.0014-13.057 14.107-13.057 3.0766 0 5.8662 0.76634 7.6641 1.6308l0.89651-2.5098c-1.666-1.0412-4.911-2.1211-8.5606-2.1211zm-55.52 0.32031c-1.8733 0-5.3175 0.13192-8.3203 0.7207v3c3.0028-0.58878 6.447-0.7207 8.3203-0.7207 10.489 0 12.422 4.6686 12.768 7.8086 0.0574-0.53216 0.0723-1.0364 0.0723-1.4883 0-2.8186-0.46101-9.3203-12.84-9.3203zm22.961 0.32031c-3.4319 7.0599-6.8309 15.63-11.041 27.721h1.0527c3.7329-10.533 6.8473-18.259 9.9883-24.721h5.959c3.3707 7.1379 6.3662 14.518 9.9863 24.721h1.0547c-4.1062-11.792-7.3487-19.902-11.041-27.721zm-16.775 10.529c-0.49848 1.4936-2.0354 2.5918-6.3047 2.5918h-1.9609v2.998h1.9609c5.6666 0 6.5195-1.9312 6.5195-4.1582 0-0.53307-0.0702-1.0104-0.21484-1.4316zm41.721 4.7363c-0.0435 0.45627-0.0664 0.94103-0.0664 1.4551 0 7.377 4.1646 9.0391 7.9199 9.0391 2.4702 0.084 4.7798-0.55427 7-1.5606l0.84961 2.4688c0.29998-0.14304 0.5916-0.29741 0.87109-0.4668l-1.7207-5c-2.2202 1.0063-4.5298 1.6426-7 1.5586-3.4776 0-7.3061-1.4252-7.8535-7.4942zm-24.939 1.4942c-0.32422 0.8776-0.68387 1.8692-1.0859 3h7.8789c-0.0344-0.0969-0.44547-1.2559-1.0898-3z" fill="#fbf1c7" opacity=".6" style="font-variant-ligatures:none"/>
  <path d="m133.95 14.998-35.15 0.0059c-1.5722 1.8747-4.8086 5.5391-4.8086 5.5391l8.9277 8.9863v9.5195l10.152 11.289h6.1973v-5.6934l8.8125-8.8047v-6.3457l5.8711-5.8457-2e-3 -8.6504zm-50.758 0.57812c-7.6492 0.58177-13.999 1.6303-19.303 3.3574 1.4656 1.4933 4.4102 4.4805 4.4102 4.4805h14.918l-0.02539-7.8379zm-4.3691 14.148-14.902 2e-3v8.834h-7.3496s-5.7775-5.8542-8.7656-8.6582c-4.2173 5.7835-6.5783 13.702-7.8047 24.246v39.707l4.3984 4.4355h9.1992l14.729 14.707 0.22461-17.439 8.9863-9.0449h5.8984l9.1992-9.2559h8.373l-2.0273-2.0645c-1.3706-1.394-1.9175-2.2419-1.6895-2.627 0.50476-0.84382 7.4377-8.7379 7.9199-9.5488-1.8316-3.5317-5.5045-6.4518-8.3516-9.3164h-13.223v11.777h-6.4805l-5.6816-5.6562v-6.3145l9-9.0586h7.3496v-5.6641l-9.002-9.0605zm88.016 6.3105-8.5781 8.6348v7.3496h8.3887v-4.627h6.2891v3.2812l-1.3867 4.6328-1.3867 1.3477-6.0566 0.26758-6.0566 0.26172-4.3535 4.0898h-5.9219v5.709l-4.6113 4.5684v8.6504h9.0371l5.8281-5.8887h6.1016v3.6641l5.7031 5.6465 2.9356-0.14258 2e-3 -2.6855-5.709-6.4824h6.1094l5.8301 5.8887h6.6973l-4.1289-4.209 2.2734-2.3125c2.2108-2.248 2.3464-2.3105 4.5879-2.3105 2.2188 0 2.3923 0.0844 4.5234 2.1914 1.2179 1.2076 2.2129 2.3442 2.2129 2.5254 0 0.18097-4.2012 0.0488-4.2012 0.0488-1.2793 1.4349 0.5761-0.71316-4.2676 4.4961l2.0859 2.2129c2.1231 2.1552 2.1875 2.2915 2.1875 4.625v2.4043l-5.1738-6e-3 17.125 17.447 2.7266-0.0645 8.8027-8.7383-6.0566-6.1172h7.6035v-12.395l-43.967-43.965h-5.1953zm-40.014 11.773v4.2051h8.5625l-2.0625-2.1035c-1.9624-1.9967-2.1779-2.1016-4.2871-2.1016zm26.418 1.9238-2.0938 2.0703c-1.9368 1.9149-2.0977 2.2273-2.0977 4.0859v2.0137h4.1934v-4.0859l-2e-3 -4.084zm-46.129 15.965c-1.4682 1.4645-2.9303 2.934-4.3926 4.4043h2.3535c1.5788 0 2.5258 0.20661 2.875 0.63086 0.68237 0.82044 2.2688 0.80704 2.9629-0.0273 0.39217-1.7592-2.5795-3.787-3.7988-5.0078zm39.217 20.807-10.703 10.717v14.75l7.3496 7.3438h10.441l2.4258 2.4043c2.2948 2.2824 2.4238 2.5154 2.4238 4.4727 0 1.7702 0.20915 2.3006 1.4668 3.6953l1.4648 1.6289v17.93l11.119 11.482 18.791-18.4-0.5-17.105 14.809-14.941h-5.8496l-14.875-14.938v-6.0957h-17.871l-2.8438-2.9395h-8.8262l-8.8223-4e-3zm-62.201 10.512c-1.8528 0-2.162 0.16529-4.0703 2.1055l-2.0664 2.1035h8.1465v-4.209zm8.1113 13.463-14.721 2e-3 -6.0586 6.1211v14.73l12.113 10.49 0.04883 13.486-4.6113 4.5703v19.33l1.5645 1.5664s1.5254 0.14217 2.5059 0.21289c0.11624-0.48576 0.14453-4.6758 0.14453-4.6758l19.236-17.666 0.0332-5.9023 9.2266-9.2266v-2.3359c0-2.2736 0.0597-2.3967 2.3066-4.6191l2.3066-2.2852v-11.748l-6.1445-6.1602h-12.127l-5.8242-5.8906zm108.82 21.402-5.4492 4.8887v9.4688h5.4492v-14.357z" fill="#b57614" opacity=".2" style="paint-order:markers fill stroke"/>
  <path d="m152.33 67.667v18.25l27.375 24.333-27.375 24.333v18.25l48.667-41.776zm-17.37 0.17825-25.188 94.026 11.751 3.1486 25.2-94.026zm-31.296 11.988-48.667 43.392 48.667 41.776v-18.25l-27.375-24.333 27.375-24.333z" fill="#ebdbb2" opacity=".6" stroke-width=".9271"/>
  <path d="m152.33 62.648v18.25l27.375 24.333-27.375 24.333v18.25l48.667-41.776zm-17.37 0.17825-25.188 94.026 11.751 3.1486 25.2-94.026zm-31.296 11.988-48.667 43.392 48.667 41.776v-18.25l-27.375-24.333 27.375-24.333z" fill="#d79921" stroke-width=".9271"/>
  <path d="m152.33 62.648v5.0195l45.797 40.834 2.8691-2.4629zm-17.371 0.17969-25.188 94.025 1.2539 0.33594 23.934-89.344 10.51 2.8125 1.2539-4.6816zm-31.297 11.988-48.666 43.391 2.8691 2.4629 45.797-40.836zm73.219 32.926-24.551 21.824v5.0176l27.375-24.332zm-97.771 12.166-2.8223 2.5098 27.375 24.334v-5.0195z" fill="#282828" opacity=".1" stroke-width=".9271"/>
  <path d="m57 15c-9.9393 0-17 7.0595-17 17v192c0 9.9393 7.0595 17 17 17h142c9.9405 0 17-7.0607 17-17v-144l-65-65zm4.0332 4.9902 89.967 0.01 60 60 2e-4 139.75c1e-5 9.4999-6.6575 16.248-16.033 16.248h-133.93c-9.3757 0-16.033-6.7481-16.033-16.248v-183.51c0-9.501 6.6586-16.25 16.033-16.25z" fill="url(#linearGradient14-7-1)" style="paint-order:markers fill stroke"/>
  <path d="m151 15.002v52.914c0 9.6525 7.8639 17.084 17.518 17.084h47.482v-5.0001z" fill="#282828" opacity=".2" stroke-width="1.0833"/>
  <path d="m151 15v47.916c0 9.6525 7.8639 17.084 17.518 17.084l47.482-1.34e-4z" fill="url(#linearGradient7-6-0)" stroke-width="1.0833"/>
</svg>
