<svg width="256" height="256" version="1.1" viewBox="0 0 256 256" xmlns="http://www.w3.org/2000/svg">
  <defs>
    <linearGradient id="linearGradient7-6-0" x1="186" x2="156" y1="45.006" y2="75.012" gradientTransform="matrix(1.0833 0 0 1.0833 -17.998 -1.2507)" gradientUnits="userSpaceOnUse">
      <stop stop-color="#665c54" offset="0"/>
      <stop stop-color="#3c3836" offset=".3027"/>
      <stop stop-color="#282828" offset="1"/>
    </linearGradient>
    <linearGradient id="linearGradient14-5" x1="128" x2="128" y1="15.001" y2="241" gradientTransform="translate(0,4.8e-4)" gradientUnits="userSpaceOnUse">
      <stop stop-color="#ebdbb2" stop-opacity=".15" offset="0"/>
      <stop stop-color="#ebdbb2" stop-opacity=".05" offset=".2"/>
      <stop stop-opacity="0" offset=".70405"/>
      <stop stop-opacity=".05" offset=".80473"/>
      <stop stop-opacity=".1" offset="1"/>
    </linearGradient>
    <linearGradient id="linearGradient28" x1="104" x2="104" y1="15" y2="241" gradientUnits="userSpaceOnUse">
      <stop stop-color="#504945" offset="0"/>
      <stop stop-color="#3c3836" offset="1"/>
    </linearGradient>
  </defs>
  <path d="m57 15c-9.9393 0-17 7.0595-17 17v192c0 9.9393 7.0595 17 17 17h142c9.9405 0 17-7.0607 17-17v-144l-64.999-64.999z" fill="url(#linearGradient28)" stroke-linecap="round" stroke-linejoin="round" stroke-miterlimit="0" style="paint-order:markers fill stroke"/>
  <path class="ColorScheme-Text" d="m80.811 94.064a15.742 15.742 0 0 0-15.742 15.742 15.742 15.742 0 0 0 7.871 13.637v67.178a15.742 15.742 0 0 0-7.871 13.637 15.742 15.742 0 0 0 15.742 15.742 15.742 15.742 0 0 0 13.637-7.871h67.178a15.742 15.742 0 0 0 13.637 7.871 15.742 15.742 0 0 0 15.742-15.742 15.742 15.742 0 0 0-7.871-13.601v-67.214a15.742 15.742 0 0 0 7.871-13.637 15.742 15.742 0 0 0-15.742-15.742 15.742 15.742 0 0 0-13.637 7.871h-67.214a15.742 15.742 0 0 0-13.601-7.871zm13.637 23.613h67.178a15.742 15.742 0 0 0 0.2767 0.35353l-8.8704 8.793a11.802 11.802 0 0 0-5.319-1.2756 11.802 11.802 0 0 0-11.055 7.871h-17.199a11.802 11.928 0 0 0-11.1-7.871 11.802 11.928 0 0 0-5.0734 1.1685l-8.9316-8.9316a15.742 15.742 0 0 0 0.0922-0.10795zm-5.6572 5.6725 8.9316 8.9316a11.802 11.928 0 0 0 0 0.018 11.802 11.928 0 0 0-1.1685 5.1805 11.802 11.928 0 0 0 7.871 11.163v17.019a11.802 11.802 0 0 0-7.871 11.055 11.802 11.802 0 0 0 1.1532 5.0887l-8.9163 8.9163a15.742 15.742 0 0 0-0.10759-0.063v-67.214a15.742 15.742 0 0 0 0.10759-0.0927zm78.602 0.32294v66.953a15.742 15.742 0 0 0-0.10767 0.0926l-8.9163-8.9163a11.802 11.802 0 0 0 1.1532-5.0887 11.802 11.802 0 0 0-7.871-11.118v-17.19a11.802 11.802 0 0 0 7.871-11.055 11.802 11.802 0 0 0-1.0453-4.8422zm-47.919 17.613h17.19a11.802 11.802 0 0 0 7.1181 7.1181v17.244a11.802 11.802 0 0 0-7.1181 7.1181h-17.19a11.802 11.802 0 0 0-7.1793-7.1793v-16.956a11.802 11.928 0 0 0 7.1793-7.3484zm-0.0612 39.355h17.244a11.802 11.802 0 0 0 11.055 7.871 11.802 11.802 0 0 0 5.0887-1.1532l8.9163 8.9163a15.742 15.742 0 0 0-0.0924 0.10795h-67.214a15.742 15.742 0 0 0-0.06117-0.10795l8.9163-8.9163a11.802 11.802 0 0 0 5.0887 1.1532 11.802 11.802 0 0 0 11.055-7.871z" color="#ebdbb2" fill="#282828" opacity=".5" stroke-width="8.9954"/>
  <path class="ColorScheme-Text" d="m80.811 89.064a15.742 15.742 0 0 0-15.742 15.742 15.742 15.742 0 0 0 7.871 13.637v67.178a15.742 15.742 0 0 0-7.871 13.637 15.742 15.742 0 0 0 15.742 15.742 15.742 15.742 0 0 0 13.637-7.871h67.178a15.742 15.742 0 0 0 13.637 7.871 15.742 15.742 0 0 0 15.742-15.742 15.742 15.742 0 0 0-7.871-13.601v-67.214a15.742 15.742 0 0 0 7.871-13.637 15.742 15.742 0 0 0-15.742-15.742 15.742 15.742 0 0 0-13.637 7.871h-67.214a15.742 15.742 0 0 0-13.601-7.871zm13.637 23.613h67.178a15.742 15.742 0 0 0 0.2767 0.35353l-8.8704 8.793a11.802 11.802 0 0 0-5.319-1.2756 11.802 11.802 0 0 0-11.055 7.871h-17.199a11.802 11.928 0 0 0-11.1-7.871 11.802 11.928 0 0 0-5.0734 1.1685l-8.9316-8.9316a15.742 15.742 0 0 0 0.0922-0.10795zm-5.6572 5.6725 8.9316 8.9316a11.802 11.928 0 0 0 0 0.018 11.802 11.928 0 0 0-1.1685 5.1805 11.802 11.928 0 0 0 7.871 11.163v17.019a11.802 11.802 0 0 0-7.871 11.055 11.802 11.802 0 0 0 1.1532 5.0887l-8.9163 8.9163a15.742 15.742 0 0 0-0.10759-0.063v-67.214a15.742 15.742 0 0 0 0.10759-0.0927zm78.602 0.32294v66.953a15.742 15.742 0 0 0-0.10767 0.0926l-8.9163-8.9163a11.802 11.802 0 0 0 1.1532-5.0887 11.802 11.802 0 0 0-7.871-11.118v-17.19a11.802 11.802 0 0 0 7.871-11.055 11.802 11.802 0 0 0-1.0453-4.8422zm-47.919 17.613h17.19a11.802 11.802 0 0 0 7.1181 7.1181v17.244a11.802 11.802 0 0 0-7.1181 7.1181h-17.19a11.802 11.802 0 0 0-7.1793-7.1793v-16.956a11.802 11.928 0 0 0 7.1793-7.3484zm-0.0612 39.355h17.244a11.802 11.802 0 0 0 11.055 7.871 11.802 11.802 0 0 0 5.0887-1.1532l8.9163 8.9163a15.742 15.742 0 0 0-0.0924 0.10795h-67.214a15.742 15.742 0 0 0-0.06117-0.10795l8.9163-8.9163a11.802 11.802 0 0 0 5.0887 1.1532 11.802 11.802 0 0 0 11.055-7.871z" color="#ebdbb2" fill="#bdae93" stroke-width="8.9954"/>
  <path class="ColorScheme-Text" d="m80.811 89.064a15.742 15.742 0 0 0-15.742 15.742 15.742 15.742 0 0 0 0.33008 2.5 15.742 15.742 0 0 1 15.412-13.242 15.742 15.742 0 0 1 13.602 7.8711h67.215a15.742 15.742 0 0 1 13.637-7.8711 15.742 15.742 0 0 1 15.529 13.283 15.742 15.742 0 0 0 0.21289-2.541 15.742 15.742 0 0 0-15.742-15.742 15.742 15.742 0 0 0-13.637 7.8711h-67.215a15.742 15.742 0 0 0-13.602-7.8711zm13.635 28.613a15.742 15.742 0 0 1-0.0918 0.10743l8.9316 8.9316a11.802 11.928 0 0 1 5.0723-1.1699 11.802 11.928 0 0 1 11.102 7.8711h17.199a11.802 11.802 0 0 1 11.055-7.8711 11.802 11.802 0 0 1 5.3203 1.2773l8.8691-8.793a15.742 15.742 0 0 1-0.27539-0.35352h-4.4121l-4.1816 4.1465a11.802 11.802 0 0 0-5.3203-1.2773 11.802 11.802 0 0 0-11.055 7.8711h-17.199a11.802 11.928 0 0 0-11.102-7.8711 11.802 11.928 0 0 0-5.0723 1.1699l-4.0391-4.0391h-4.7988zm2.2461 13.572a11.802 11.928 0 0 0-0.13672 1.2285 11.802 11.928 0 0 0 0.34961 2.1875 11.802 11.928 0 0 1 0.81836-2.3672 11.802 11.928 0 0 1 0-0.0176zm62.744 0.30469-0.95899 0.95117a11.802 11.802 0 0 1 0.68555 2.082 11.802 11.802 0 0 0 0.35937-2.2383 11.802 11.802 0 0 0-0.0859-0.79492zm-47.141 29.031v5a11.802 11.802 0 0 1 7.1797 7.1797h17.189a11.802 11.802 0 0 1 7.1191-7.1172v-5a11.802 11.802 0 0 0-7.1191 7.1172h-17.189a11.802 11.802 0 0 0-7.1797-7.1797zm39.355 8e-3v5a11.802 11.802 0 0 1 7.5312 8.9356 11.802 11.802 0 0 0 0.33984-2.8164 11.802 11.802 0 0 0-7.8711-11.119zm-47.225 0.0684a11.802 11.802 0 0 0-7.8711 11.055 11.802 11.802 0 0 0 0.35352 2.791 11.802 11.802 0 0 1 7.5176-8.8457zm-7.7461 17.172-7.8887 7.8887a15.742 15.742 0 0 0-0.10742-0.0625v5a15.742 15.742 0 0 1 0.10742 0.0625l8.916-8.916a11.802 11.802 0 0 1-1.0273-3.9727zm62.783 0.0606a11.802 11.802 0 0 1-1.0938 3.9062l8.916 8.918a15.742 15.742 0 0 1 0.10742-0.0937v-5a15.742 15.742 0 0 0-0.10742 0.0937zm-86.523 7.7266a15.742 15.742 0 0 0-7.8711 13.637 15.742 15.742 0 0 0 0.33008 2.5 15.742 15.742 0 0 1 7.541-11.137zm110.2 0.0352v5a15.742 15.742 0 0 1 7.5918 11.512 15.742 15.742 0 0 0 0.2793-2.9102 15.742 15.742 0 0 0-7.8711-13.602zm-83.893 5.7266-4.8926 4.8926a15.742 15.742 0 0 1 0.0625 0.10742h67.213a15.742 15.742 0 0 1 0.0918-0.10742l-4.8906-4.8926z" color="#ebdbb2" fill="#ebdbb2" opacity=".2" stroke-width="8.9954"/>
  <path d="m57 15c-9.9393 0-17 7.0595-17 17v192c0 9.9393 7.0595 17 17 17h142c9.9405 0 17-7.0607 17-17v-144l-65-64.998zm4.0332 4.9902 89.967 2e-3 60 60.009v139.75c0 9.4999-6.6575 16.248-16.033 16.248h-133.93c-9.3757 0-16.033-6.7481-16.033-16.248v-183.51c0-9.501 6.6586-16.25 16.033-16.25z" fill="url(#linearGradient14-5)" style="paint-order:markers fill stroke"/>
  <path d="m151 15.002v52.914c0 9.6525 7.8639 17.084 17.518 17.084l47.482-1.34e-4v-5z" fill="#282828" opacity=".5" stroke-width="1.0833"/>
  <path d="m151 15.001v47.916c0 9.6525 7.8639 17.082 17.518 17.082l47.482 0.0019z" fill="url(#linearGradient7-6-0)" stroke-width="1.0833"/>
</svg>
