<svg width="256" height="256" version="1.1" viewBox="0 0 256 256" xmlns="http://www.w3.org/2000/svg">
  <defs>
    <linearGradient id="linearGradient7-6-0" x1="186" x2="156" y1="45.006" y2="75.012" gradientTransform="matrix(1.0833 0 0 1.0833 -17.998 -1.2507)" gradientUnits="userSpaceOnUse">
      <stop stop-color="#83a598" offset="0"/>
      <stop stop-color="#458588" offset=".3027"/>
      <stop stop-color="#076678" offset="1"/>
    </linearGradient>
    <linearGradient id="linearGradient21" x1="128" x2="128" y1="15" y2="241" gradientTransform="translate(-9.75e-4,-9.75e-4)" gradientUnits="userSpaceOnUse">
      <stop stop-color="#ebdbb2" offset="0"/>
      <stop stop-color="#d5c4a1" offset="1"/>
    </linearGradient>
    <linearGradient id="linearGradient14-8" x1="128" x2="128" y1="15.001" y2="241" gradientTransform="translate(0,4.8e-4)" gradientUnits="userSpaceOnUse">
      <stop stop-color="#076678" stop-opacity=".099738" offset="0"/>
      <stop stop-color="#076678" stop-opacity=".049869" offset=".2"/>
      <stop stop-color="#076678" stop-opacity=".047244" offset=".70405"/>
      <stop stop-color="#282828" stop-opacity=".1" offset=".80473"/>
      <stop stop-color="#282828" stop-opacity=".15" offset="1"/>
    </linearGradient>
  </defs>
  <path d="m56.999 14.999c-9.9393 0-17 7.0595-17 17v149h176v-101l-64.998-64.998z" fill="url(#linearGradient21)" style="paint-order:markers fill stroke"/>
  <path d="m57 241c-9.9393 0-17-7.0595-17-17v-43h176v43c0 9.9405-7.0607 17-17 17z" fill="#076678" stroke-linecap="round" stroke-linejoin="round" stroke-miterlimit="0" style="paint-order:markers fill stroke"/>
  <path d="m102.44 213.84c0 5.6626 2.8829 8.96 7.36 8.96 4.8781 0 7.36-3.9271 7.36-8.96 0-4.9078-2.3872-9-7.36-9-4.1749 0-7.36 3.1092-7.36 9zm21.16 0c0 8.3488-4.6239 12.714-9.8 13.96 0.57037 2.2815 4.4337 2.6125 8 2.88l-1.28 4.56c-9.652-0.37123-11.914-3.5993-12.92-7.12-7.033-0.90749-11.6-6.1157-11.6-14.28 0-9.2833 6.2024-14.48 13.8-14.48 7.6238 0 13.8 4.991 13.8 14.48zm5.2-13.84h6.24v27.72h-6.24zm12.64 27.72v-27.72h18.56v5.24h-12.32v5.8h10.96v5.24h-10.96v11.44z" fill="#282828" opacity=".3" aria-label="QIF"/>
  <path d="m102.44 210.84c0 5.6626 2.8829 8.96 7.36 8.96 4.8781 0 7.36-3.9271 7.36-8.96 0-4.9078-2.3872-9-7.36-9-4.1749 0-7.36 3.1092-7.36 9zm21.16 0c0 8.3488-4.6239 12.714-9.8 13.96 0.57037 2.2815 4.4337 2.6125 8 2.88l-1.28 4.56c-9.652-0.37123-11.914-3.5993-12.92-7.12-7.033-0.90749-11.6-6.1157-11.6-14.28 0-9.2833 6.2024-14.48 13.8-14.48 7.6238 0 13.8 4.991 13.8 14.48zm5.2-13.84h6.24v27.72h-6.24zm12.64 27.72v-27.72h18.56v5.24h-12.32v5.8h10.96v5.24h-10.96v11.44z" fill="#ebdbb2" aria-label="QIF"/>
  <path d="m109.8 196.36c-7.5976 0-13.801 5.1952-13.801 14.479 0 0.52493 0.0194 1.037 0.0566 1.5371 0.61975-8.3625 6.5564-13.018 13.744-13.018 7.2292 0 13.146 4.4956 13.74 13.051 0.0376-0.50723 0.0586-1.0299 0.0586-1.5703 0-9.489-6.175-14.479-13.799-14.479zm19 0.63867v3h6.2383v-3zm12.639 0v3h18.561v-3zm6.2402 11.041v2.998h10.961v-2.998zm-30.604 4.2969c-0.45346 4.2914-2.8944 7.4629-7.2754 7.4629-4.0601 0-6.8025-2.7188-7.2793-7.4473-0.0481 0.4762-0.082 0.9666-0.082 1.4863 0 5.6626 2.8843 8.9609 7.3613 8.9609 4.8781 0 7.3594-3.928 7.3594-8.9609 0-0.51188-0.0318-1.0115-0.084-1.502zm-0.73633 14.557c-0.81917 0.38956-1.6694 0.69689-2.5391 0.90625 0.5267 2.1068 3.8599 2.5463 7.1758 2.8125l0.82422-2.9336c-1.9226-0.1442-3.9282-0.30839-5.4609-0.78516z" fill="#fbf1c7" opacity=".6"/>
  <path d="m167.48 131.02c-13.662 0-22.069 10.208-39.492 10.208-18.769 0-34.231-15.315-34.231-34.231 0-18.916 15.462-34.385 34.231-34.385s34.231 15.615 34.231 34.385c0 5.8539-1.2 12.315-3.6002 16.815 7.354-1.6537 12.615-1.9538 19.823 0 1.6537-5.2539 2.5538-10.961 2.5538-16.815 0-29.277-23.423-53.154-53-53.154-29.577 0-53 23.877-53 53.154 0 29.277 23.723 53 53 53 20.869 0 27.631-9.9078 38.585-9.9078 5.5539 0 8.2613 4.5075 9.3077 10.508l17.869-4.3538c-1.9538-15.608-11.862-25.223-26.277-25.223z" fill="#ebdbb2" opacity=".8" stroke-width=".73174"/>
  <path d="m167.48 126.02c-13.662 0-22.069 10.208-39.492 10.208-18.769 0-34.231-15.315-34.231-34.231s15.462-34.384 34.231-34.384 34.231 15.615 34.231 34.384c0 5.8539-1.2 12.315-3.6002 16.815 7.354-1.6537 12.615-1.9538 19.823 0 1.6537-5.2539 2.5538-10.961 2.5538-16.815 0-29.277-23.423-53.154-53-53.154-29.577 0-53 23.877-53 53.154 0 29.277 23.723 53 53 53 20.869 0 27.631-9.9078 38.585-9.9078 5.5539 0 8.2613 4.5075 9.3077 10.508l17.869-4.3539c-1.9538-15.608-11.862-25.223-26.277-25.223z" fill="#076678" stroke-width=".73174"/>
  <path d="m128 48.846c-29.577 0-53 23.877-53 53.154 0 0.83828 0.02403 1.6712 0.0625 2.5 1.2892-28.124 24.207-50.654 52.938-50.654 28.745 0 51.67 22.554 52.938 50.697 0.0377-0.84449 0.0625-1.6913 0.0625-2.543 0-29.277-23.423-53.154-53-53.154zm-34.137 55.654c-0.06009 0.82654-0.10156 1.6588-0.10156 2.5 0 18.916 15.461 34.23 34.23 34.23 17.423 0 25.831-10.207 39.492-10.207 12.875 0 22.135 7.6856 25.363 20.445l0.91406-0.22266c-1.9538-15.608-11.862-25.223-26.277-25.223-13.662 0-22.069 10.207-39.492 10.207-17.934 0-32.837-13.985-34.129-31.73zm68.27 0.17383c-0.30656 5.0798-1.4705 10.317-3.5098 14.141 0.72271-0.16252 1.4115-0.30003 2.0976-0.43554 0.9966-3.5893 1.502-7.6067 1.502-11.379 0-0.78206-0.037-1.556-0.0898-2.3262z" fill="#282828" opacity=".2" stroke-width=".73174"/>
  <path d="m57 15c-9.9393 0-17 7.0595-17 17v192c0 9.9393 7.0595 17 17 17h142c9.9405 0 17-7.0607 17-17v-144l-65-65zm4.0332 4.9902 89.967 0.01 60 60 2e-4 139.75c1e-5 9.4999-6.6575 16.248-16.033 16.248h-133.93c-9.3757 0-16.033-6.7481-16.033-16.248v-183.51c0-9.501 6.6586-16.25 16.033-16.25z" fill="url(#linearGradient14-8)" style="paint-order:markers fill stroke"/>
  <path d="m151 15.002v52.914c0 9.6525 7.8639 17.084 17.518 17.084l47.482-1.34e-4v-5z" fill="#282828" opacity=".2" stroke-width="1.0833"/>
  <path d="m151 15.001v47.916c0 9.6525 7.8639 17.082 17.518 17.082l47.482 0.0019z" fill="url(#linearGradient7-6-0)" stroke-width="1.0833"/>
</svg>
