<svg width="256" height="256" version="1.1" viewBox="0 0 256 256" xmlns="http://www.w3.org/2000/svg">
  <defs>
    <linearGradient id="linearGradient21" x1="128" x2="128" y1="15" y2="241" gradientTransform="translate(-9.75e-4,-9.7e-4)" gradientUnits="userSpaceOnUse">
      <stop stop-color="#ebdbb2" offset="0"/>
      <stop stop-color="#d5c4a1" offset="1"/>
    </linearGradient>
    <linearGradient id="linearGradient7-6-0-6" x1="186" x2="156" y1="45.006" y2="75.012" gradientTransform="matrix(1.0833,0,0,1.0833,-17.997,-1.2506)" gradientUnits="userSpaceOnUse">
      <stop stop-color="#fe8019" offset="0"/>
      <stop stop-color="#d65d0e" offset=".3027"/>
      <stop stop-color="#af3a03" offset="1"/>
    </linearGradient>
    <linearGradient id="linearGradient14-5" x1="128" x2="128" y1="15.001" y2="241" gradientTransform="translate(0,4.8e-4)" gradientUnits="userSpaceOnUse">
      <stop stop-color="#af3a03" stop-opacity=".095801" offset="0"/>
      <stop stop-color="#af3a03" stop-opacity=".045932" offset=".2"/>
      <stop stop-color="#af3a03" stop-opacity=".049869" offset=".70405"/>
      <stop stop-color="#282828" stop-opacity=".053806" offset=".80473"/>
      <stop stop-color="#282828" stop-opacity=".10499" offset="1"/>
    </linearGradient>
  </defs>
  <path d="m56.999 14.999c-9.9393 0-17 7.0595-17 17v149h176v-101l-64.998-64.998z" fill="url(#linearGradient21)" style="paint-order:markers fill stroke"/>
  <path d="m57 241c-9.9393 0-17-7.0595-17-17v-43h176v43c0 9.9405-7.0607 17-17 17z" fill="#d65d0e" stroke-linecap="round" stroke-linejoin="round" stroke-miterlimit="0" style="paint-order:markers fill stroke"/>
  <path d="m97.9 222.96c3.2335 0 4.48-0.98172 4.48-2.88 0-1.533-1.0262-2.6487-5.68-4.2-3.4634-1.2224-7.6-2.955-7.6-8.2 0-5.1508 4.0386-8.32 10.2-8.32 3.7211 0 6.4107 0.94404 8.2 1.92l-1.8 4.92c-1.873-0.99727-3.8907-1.4678-6-1.52-2.9192 0-4.2 0.79833-4.2 2.52 0.24727 2.3866 2.8628 3.0035 4.8 3.68 5.9312 2.1967 8.52 4.0081 8.52 9.24 0 6.7588-5.9696 8.16-10.92 8.16-2.0763 0-6.0494-0.27394-9.28-2.12l1.76-4.96c2.3212 1.3162 4.8902 1.7066 7.52 1.76zm21.96-0.32c0.79723 0.0981 1.5986 0.08 2.4 0.08 7.7941 0 9.2-5.1581 9.2-8.88 0-7.853-5.2303-8.84-9-8.84-0.86857 4e-3 -1.7356 0.0424-2.6 0.12zm18.04-8.8c0 12.439-10.106 14.24-15.96 14.24-0.88703 0-4.9869-0.041-8.32-0.72v-27c0.13451-0.0249 3.6911-0.68 8.52-0.68 7.5066 0 15.76 2.6232 15.76 14.16zm11.44 8.8c0.79723 0.0981 1.5986 0.08 2.4 0.08 7.7941 0 9.2-5.1581 9.2-8.88 0-7.853-5.2303-8.84-9-8.84-0.86857 4e-3 -1.7356 0.0424-2.6 0.12zm18.04-8.8c0 12.439-10.106 14.24-15.96 14.24-0.88741 0-4.9869-0.041-8.32-0.72v-27c0.13447-0.0249 3.691-0.68 8.52-0.68 7.5066 0 15.76 2.6232 15.76 14.16z" fill="#282828" opacity=".2" aria-label="SDDI"/>
  <path d="m97.9 219.96c3.2335 0 4.48-0.98172 4.48-2.88 0-1.533-1.0262-2.6487-5.68-4.2-3.4634-1.2224-7.6-2.955-7.6-8.2 0-5.1508 4.0386-8.32 10.2-8.32 3.7211 0 6.4107 0.94404 8.2 1.92l-1.8 4.92c-1.873-0.99727-3.8907-1.4678-6-1.52-2.9192 0-4.2 0.79833-4.2 2.52 0.24727 2.3866 2.8628 3.0035 4.8 3.68 5.9312 2.1967 8.52 4.0081 8.52 9.24 0 6.7588-5.9696 8.16-10.92 8.16-2.0763 0-6.0494-0.27394-9.28-2.12l1.76-4.96c2.3212 1.3162 4.8902 1.7066 7.52 1.76zm21.96-0.32c0.79723 0.0981 1.5986 0.08 2.4 0.08 7.7941 0 9.2-5.1581 9.2-8.88 0-7.853-5.2303-8.84-9-8.84-0.86857 4e-3 -1.7356 0.0424-2.6 0.12zm18.04-8.8c0 12.439-10.106 14.24-15.96 14.24-0.88703 0-4.9869-0.041-8.32-0.72v-27c0.13451-0.0249 3.6911-0.68 8.52-0.68 7.5066 0 15.76 2.6232 15.76 14.16zm11.44 8.8c0.79723 0.0981 1.5986 0.08 2.4 0.08 7.7941 0 9.2-5.1581 9.2-8.88 0-7.853-5.2303-8.84-9-8.84-0.86857 4e-3 -1.7356 0.0424-2.6 0.12zm18.04-8.8c0 12.439-10.106 14.24-15.96 14.24-0.88741 0-4.9869-0.041-8.32-0.72v-27c0.13447-0.0249 3.691-0.68 8.52-0.68 7.5066 0 15.76 2.6232 15.76 14.16z" fill="#ebdbb2" aria-label="SDDI"/>
  <path d="m99.301 196.36c-6.1614 0-10.201 3.1696-10.201 8.3203 0 0.53574 0.0536 1.0265 0.13476 1.4922 0.72241-4.2506 4.534-6.8125 10.066-6.8125 3.1289 0 5.5193 0.67023 7.2676 1.4629l0.93164-2.543c-1.7893-0.97596-4.4781-1.9199-8.1992-1.9199zm22.84 0.32031c-4.8289 0-8.387 0.65478-8.5215 0.67969v3c0.13451-0.0249 3.6926-0.67969 8.5215-0.67969 7.1636 0 15.001 2.3957 15.703 12.641 0.0335-0.47812 0.0566-0.96667 0.0566-1.4805 0-11.537-8.2532-14.16-15.76-14.16zm29.479 0c-4.829 0-8.3851 0.65478-8.5195 0.67969v3c0.13446-0.0249 3.6906-0.67969 8.5195-0.67969 7.165 0 15.006 2.3966 15.705 12.646 0.0337-0.47993 0.0566-0.97043 0.0566-1.4863 0-11.537-8.2551-14.16-15.762-14.16zm-55.563 8.9688c-0.37777 0.39228-0.55664 0.90625-0.55664 1.5508 0.24727 2.3866 2.8636 3.0052 4.8008 3.6816 5.275 1.9537 7.9003 3.6076 8.418 7.6289 0.061-0.43818 0.10156-0.8968 0.10156-1.3906 0-5.2319-2.5883-7.0415-8.5195-9.2383-1.4676-0.51248-3.3226-0.99299-4.2441-2.2324zm35.324 6.6641c-0.38127 3.4754-2.3153 7.4082-9.1211 7.4082-0.80136 0-1.6032 0.018-2.4004-0.0801v3c0.79722 0.0981 1.599 0.0801 2.4004 0.0801 7.7941 0 9.2012-5.159 9.2012-8.8809 0-0.54411-0.0321-1.0472-0.0801-1.5273zm29.48 0c-0.38127 3.4754-2.3152 7.4082-9.1211 7.4082-0.80135 0-1.6032 0.018-2.4004-0.0801v3c0.79724 0.0981 1.599 0.0801 2.4004 0.0801 7.7941 0 9.1992-5.159 9.1992-8.8809 0-0.5441-0.0301-1.0472-0.0781-1.5273zm-70.48 5.8867-1.7617 4.9609c0.29411 0.16806 0.59987 0.31014 0.9043 0.45312l0.85742-2.4141c2.3212 1.3162 4.8898 1.7083 7.5195 1.7617 3.2335 0 4.4805-0.98258 4.4805-2.8809 0-0.51028-0.13371-0.97262-0.45703-1.4219-0.60802 0.85527-1.8653 1.3027-4.0234 1.3027-2.6298-0.0534-5.1983-0.44556-7.5195-1.7617z" fill="#fbf1c7" opacity=".6"/>
  <path d="m105 70v30h30a30 30 0 0 0-30-30zm-10 10a30 30 0 0 0-30 30 30 30 0 0 0 30 30 30 30 0 0 0 30-30h-30zm50 0v15.002h46v-15.002zm0 30v15h46v-15zm-80 45v15h105v-15z" fill="#ebdbb2" opacity=".6" stroke-linecap="square" stroke-linejoin="round" stroke-miterlimit="0" stroke-width="6" style="paint-order:markers fill stroke"/>
  <path d="m105 65v30h30a30 30 0 0 0-30-30zm-10 10a30 30 0 0 0-30 30 30 30 0 0 0 30 30 30 30 0 0 0 30-30h-30v-30zm50 0v15.002h46v-15.002h-46zm0 30v15h46v-15h-46zm-80 45v15h105v-15h-105z" fill="#d65d0e" stroke-linecap="square" stroke-linejoin="round" stroke-miterlimit="0" stroke-width="6" style="paint-order:markers fill stroke"/>
  <path d="m105 65v5a30 30 0 0 1 29.562 25h0.4375a30 30 0 0 0-30-30zm-10 10a30 30 0 0 0-30 30 30 30 0 0 0 0.24609 2.5 30 30 0 0 1 29.754-27.5zm50 0v5h46v-5zm-50 30v5h29.508a30 30 0 0 0 0.49219-5zm50 0v5h46v-5zm-80 45v5h105v-5z" fill="#282828" opacity=".2" stroke-linecap="square" stroke-linejoin="round" stroke-miterlimit="0" stroke-width="6" style="paint-order:markers fill stroke"/>
  <path d="m57 15c-9.9393 0-17 7.0595-17 17v192c0 9.9393 7.0595 17 17 17h142c9.9405 0 17-7.0607 17-17v-144l-65-65zm4.0332 4.9902 89.967 0.01 60 60 2e-4 139.75c1e-5 9.4999-6.6575 16.248-16.033 16.248h-133.93c-9.3757 0-16.033-6.7481-16.033-16.248v-183.51c0-9.501 6.6586-16.25 16.033-16.25z" fill="url(#linearGradient14-5)" style="paint-order:markers fill stroke"/>
  <path d="m151 15.002v52.914c0 9.6525 7.8639 17.084 17.518 17.084l47.482-1.34e-4v-5z" fill="#282828" opacity=".2" stroke-width="1.0833"/>
  <path d="m151 15.001v47.916c0 9.6525 7.8639 17.084 17.518 17.084l47.482-1.34e-4z" fill="url(#linearGradient7-6-0-6)" stroke-width="1.0833"/>
</svg>
