<svg width="256" height="256" version="1.1" viewBox="0 0 256 256" xmlns="http://www.w3.org/2000/svg">
  <defs>
    <linearGradient id="linearGradient26" x1="-160" x2="-160" y2="226" gradientTransform="translate(267,15)" gradientUnits="userSpaceOnUse">
      <stop stop-color="#b16286" offset="0"/>
      <stop stop-color="#b16286" offset="1"/>
    </linearGradient>
    <linearGradient id="linearGradient7-6-0" x1="186" x2="156" y1="45.006" y2="75.012" gradientTransform="matrix(1.0833,0,0,1.0833,-17.998,-1.2502)" gradientUnits="userSpaceOnUse">
      <stop stop-color="#d3869b" offset="0"/>
      <stop stop-color="#b16286" offset=".3027"/>
      <stop stop-color="#8f3f71" offset="1"/>
    </linearGradient>
    <linearGradient id="linearGradient14-5" x1="128" x2="128" y1="15.001" y2="241" gradientTransform="translate(0,4.8e-4)" gradientUnits="userSpaceOnUse">
      <stop stop-color="#ebdbb2" stop-opacity=".15" offset="0"/>
      <stop stop-color="#ebdbb2" stop-opacity=".05" offset=".2"/>
      <stop stop-opacity="0" offset=".70405"/>
      <stop stop-opacity=".05" offset=".80473"/>
      <stop stop-opacity=".1" offset="1"/>
    </linearGradient>
  </defs>
  <path d="m57 15c-9.9393 0-17 7.0595-17 17v192c0 9.9393 7.0595 17 17 17h142c9.9405 0 17-7.0607 17-17v-144l-64.999-64.999z" fill="url(#linearGradient26)" stroke-linecap="round" stroke-linejoin="round" stroke-miterlimit="0" style="paint-order:markers fill stroke"/>
  <path d="m57 241c-9.9393 0-17-7.0595-17-17v-43h176v43c0 9.9405-7.0607 17-17 17z" fill="#d3869b" opacity=".8" stroke-linecap="round" stroke-linejoin="round" stroke-miterlimit="0" style="paint-order:markers fill stroke"/>
  <path d="m93.4 222.96c3.7496 0 4.48-1.3639 4.48-2.88 0-1.533-1.0262-2.6487-5.68-4.2-3.4634-1.2224-7.6-2.955-7.6-8.2 0-5.1508 4.0386-8.32 10.2-8.32 3.7211 0 6.4107 0.94404 8.2 1.92l-1.8 4.92c-1.873-0.99727-3.8907-1.4678-6-1.52-2.9192 0-4.2 0.79833-4.2 2.52 0.24727 2.3866 2.8628 3.0035 4.8 3.68 5.9312 2.1967 8.52 4.0081 8.52 9.24 0 6.7588-5.9696 8.16-10.92 8.16-2.0764 0-6.0493-0.27394-9.28-2.12l1.76-4.96c2.3212 1.3162 4.8902 1.7066 7.52 1.76zm15.72-22.96h6.24v27.72h-6.24zm31.2 27.72c-0.64332-2.0121-1.3562-4.0012-2.04-6h-10.8c-0.7104 1.9905-1.4118 3.9818-2.04 6h-6.48c4.209-12.088 7.6057-20.655 11.04-27.72h5.96c3.6883 7.8106 6.9242 15.9 11.04 27.72zm-7.48-21.44c-0.71781 2.1535-1.6463 4.0853-3.92 10.48h7.88c-0.0734-0.20655-1.8631-5.2378-3.96-10.48zm30.28-1.48c-6.2421 0-8.24 3.9646-8.24 9.04 0 4.9582 2.1987 9.08 7.68 9.08 1.7594 0 2.5215-0.0803 3.08-0.2v-9.64h6.24v13.72c-3.5406 1.3909-8.9813 1.44-9.72 1.44-7.9578 0-13.76-4.8354-13.76-14.4 0-9.3096 6.2351-14.48 13.88-14.48 4.3253 0 7.726 1.1987 9.2 2.12l-1.8 5c-0.98141-0.52137-3.5054-1.68-6.56-1.68z" fill="#ebdbb2" opacity=".15" aria-label="SIAG"/>
  <path d="m93.4 219.96c3.7496 0 4.48-1.3639 4.48-2.88 0-1.533-1.0262-2.6487-5.68-4.2-3.4634-1.2224-7.6-2.955-7.6-8.2 0-5.1508 4.0386-8.32 10.2-8.32 3.7211 0 6.4107 0.94404 8.2 1.92l-1.8 4.92c-1.873-0.99727-3.8907-1.4678-6-1.52-2.9192 0-4.2 0.79833-4.2 2.52 0.24727 2.3866 2.8628 3.0035 4.8 3.68 5.9312 2.1967 8.52 4.0081 8.52 9.24 0 6.7588-5.9696 8.16-10.92 8.16-2.0764 0-6.0493-0.27394-9.28-2.12l1.76-4.96c2.3212 1.3162 4.8902 1.7066 7.52 1.76zm15.72-22.96h6.24v27.72h-6.24zm31.2 27.72c-0.64332-2.0121-1.3562-4.0012-2.04-6h-10.8c-0.7104 1.9905-1.4118 3.9818-2.04 6h-6.48c4.209-12.088 7.6057-20.655 11.04-27.72h5.96c3.6883 7.8106 6.9242 15.9 11.04 27.72zm-7.48-21.44c-0.71781 2.1535-1.6463 4.0853-3.92 10.48h7.88c-0.0734-0.20655-1.8631-5.2378-3.96-10.48zm30.28-1.48c-6.2421 0-8.24 3.9646-8.24 9.04 0 4.9582 2.1987 9.08 7.68 9.08 1.7594 0 2.5215-0.0803 3.08-0.2v-9.64h6.24v13.72c-3.5406 1.3909-8.9813 1.44-9.72 1.44-7.9578 0-13.76-4.8354-13.76-14.4 0-9.3096 6.2351-14.48 13.88-14.48 4.3253 0 7.726 1.1987 9.2 2.12l-1.8 5c-0.98141-0.52137-3.5054-1.68-6.56-1.68z" fill="#8f3f71" aria-label="SIAG"/>
  <path d="m94.8 196.36c-6.1614 0-10.201 3.1696-10.201 8.3203 0 0.53574 0.05357 1.0265 0.13477 1.4922 0.7224-4.2506 4.534-6.8125 10.066-6.8125 3.1289 0 5.5193 0.67023 7.2676 1.4629l0.93164-2.543c-1.7893-0.97596-4.4781-1.9199-8.1992-1.9199zm67.479 0c-7.6449 0-13.879 5.1709-13.879 14.48 0 0.54406 0.0237 1.0686 0.0606 1.582 0.60467-8.4111 6.5726-13.062 13.818-13.062 3.606 0 6.5529 0.83355 8.293 1.6445l0.9082-2.5234c-1.474-0.92128-4.8759-2.1211-9.2012-2.1211zm-53.16 0.64062v3h6.2402v-3zm20.881 0c-3.4343 7.065-6.83 15.633-11.039 27.721h1.0723c3.7095-10.458 6.8377-18.284 9.9668-24.721h5.9609c3.3518 7.098 6.3604 14.572 9.9648 24.721h1.0742c-4.1158-11.82-7.3507-19.91-11.039-27.721zm-38.443 8.6484c-0.37777 0.39228-0.55664 0.90625-0.55664 1.5508 0.24727 2.3866 2.8636 3.0052 4.8008 3.6816 5.275 1.9537 7.9003 3.6076 8.418 7.6289 0.061-0.43818 0.10156-0.8968 0.10156-1.3906 0-5.2319-2.5883-7.0415-8.5195-9.2383-1.4676-0.51248-3.3226-0.99299-4.2441-2.2324zm74.084 4.4316v3h6.2402v-3zm-10.688 2.2207c-0.0457 0.50013-0.0723 1.0118-0.0723 1.5391 0 4.9582 2.1984 9.0801 7.6797 9.0801 1.7594 0 2.5215-0.0795 3.0801-0.19922v-3c-0.55853 0.1197-1.3207 0.19922-3.0801 0.19922-4.9316 0-7.2008-3.3389-7.6074-7.6191zm-24.939 1.459c-0.33717 0.91087-0.67077 1.8104-1.0938 3h7.8809c-0.0328-0.0924-0.49973-1.3886-1.0938-3zm-44.133 4.4394-1.7617 4.9609c0.29411 0.16806 0.59987 0.31014 0.9043 0.45312l0.85742-2.4141c2.3212 1.3162 4.8898 1.7083 7.5195 1.7617 3.7496 0 4.4805-1.3648 4.4805-2.8809 0-0.50365-0.13155-0.9605-0.44531-1.4043-0.54905 0.75983-1.7103 1.2852-4.0352 1.2852-2.6298-0.0534-5.1983-0.44556-7.5195-1.7617z" fill="#282828" opacity=".2"/>
  <path d="m70 60v100h116v-100zm10 10h30v20h-30zm40 0h56v20h-56zm-40 30h30v20h-30zm40 0h56v20h-56zm-40 30h30v20h-30zm40 0h56v20h-56z" fill="#ebdbb2" opacity=".1" style="paint-order:markers fill stroke"/>
  <path d="m70 55v100h116v-100zm10 10h30v20h-30zm40 0h56v20h-56zm-40 30h30v20h-30zm40 0h56v20h-56zm-40 30h30v20h-30zm40 0h56v20h-56z" fill="#8f3f71" style="paint-order:markers fill stroke"/>
  <path d="m70 55v5h116v-5zm10 30v5h30v-5zm40 0v5h56v-5zm-40 30v5h30v-5zm40 0v5h56v-5zm-40 30v5h30v-5zm40 0v5h56v-5z" fill="#282828" opacity=".2" style="paint-order:markers fill stroke"/>
  <path d="m57 15c-9.9393 0-17 7.0595-17 17v192c0 9.9393 7.0595 17 17 17h142c9.9405 0 17-7.0607 17-17v-144l-65-64.998zm4.0332 4.9902 89.967 2e-3 60 60.009v139.75c0 9.4999-6.6575 16.248-16.033 16.248h-133.93c-9.3757 0-16.033-6.7481-16.033-16.248v-183.51c0-9.501 6.6586-16.25 16.033-16.25z" fill="url(#linearGradient14-5)" style="paint-order:markers fill stroke"/>
  <path d="m151 15.002v52.914c0 9.6525 7.8639 17.084 17.518 17.084l47.482-1.34e-4v-5z" fill="#282828" opacity=".3" stroke-width="1.0833"/>
  <path d="m151 15.001v47.916c0 9.6525 7.8639 17.084 17.518 17.084l47.482-1.34e-4z" fill="url(#linearGradient7-6-0)" stroke-width="1.0833"/>
</svg>
