<svg width="256" height="256" version="1.1" viewBox="0 0 256 256" xmlns="http://www.w3.org/2000/svg">
  <defs>
    <linearGradient id="linearGradient7-6-0-5" x1="186" x2="156" y1="45.006" y2="75.012" gradientTransform="matrix(1.0833 0 0 1.0833 -17.999 -1.251)" gradientUnits="userSpaceOnUse">
      <stop stop-color="#b8bb26" offset="0"/>
      <stop stop-color="#98971a" offset=".3027"/>
      <stop stop-color="#79740e" offset="1"/>
    </linearGradient>
    <linearGradient id="linearGradient26" x1="-160" x2="-160" y2="226" gradientTransform="translate(267,15)" gradientUnits="userSpaceOnUse">
      <stop stop-color="#79740e" offset="0"/>
      <stop stop-color="#79740e" offset="1"/>
    </linearGradient>
    <linearGradient id="linearGradient14-5" x1="128" x2="128" y1="15.001" y2="241" gradientTransform="translate(0,4.8e-4)" gradientUnits="userSpaceOnUse">
      <stop stop-color="#ebdbb2" stop-opacity=".15" offset="0"/>
      <stop stop-color="#ebdbb2" stop-opacity=".05" offset=".2"/>
      <stop stop-opacity="0" offset=".70405"/>
      <stop stop-opacity=".05" offset=".80473"/>
      <stop stop-opacity=".1" offset="1"/>
    </linearGradient>
  </defs>
  <path d="m57 15c-9.9393 0-17 7.0595-17 17v192c0 9.9393 7.0595 17 17 17h142c9.9405 0 17-7.0607 17-17v-144l-64.999-64.999z" fill="url(#linearGradient26)" stroke-linecap="round" stroke-linejoin="round" stroke-miterlimit="0" style="paint-order:markers fill stroke"/>
  <path d="m57 241c-9.9393 0-17-7.0595-17-17v-43h176v43c0 9.9405-7.0607 17-17 17z" fill="#b8bb26" opacity=".7" stroke-linecap="round" stroke-linejoin="round" stroke-miterlimit="0" style="paint-order:markers fill stroke"/>
  <path d="m109.78 222.96c3.2335 0 4.48-0.98172 4.48-2.88 0-1.533-1.0262-2.6487-5.68-4.2-3.4634-1.2224-7.6-2.955-7.6-8.2 0-5.1508 4.0386-8.32 10.2-8.32 3.7211 0 6.4107 0.94404 8.2 1.92l-1.8 4.92c-1.873-0.99727-3.8907-1.4678-6-1.52-2.9192 0-4.2 0.79833-4.2 2.52 0.24727 2.3866 2.8628 3.0035 4.8 3.68 5.9312 2.1967 8.52 4.0081 8.52 9.24 0 6.7588-5.9696 8.16-10.92 8.16-2.0763 0-6.0494-0.27394-9.28-2.12l1.76-4.96c2.3212 1.3162 4.8902 1.7066 7.52 1.76zm35.48-22.96v5.32h-8.36v22.4h-6.24v-22.4h-8.36v-5.32zm4 0h6.24v27.72h-6.24z" fill="#ebdbb2" opacity=".2" aria-label="STI"/>
  <path d="m109.78 219.96c3.2335 0 4.48-0.98172 4.48-2.88 0-1.533-1.0262-2.6487-5.68-4.2-3.4634-1.2224-7.6-2.955-7.6-8.2 0-5.1508 4.0386-8.32 10.2-8.32 3.7211 0 6.4107 0.94404 8.2 1.92l-1.8 4.92c-1.873-0.99727-3.8907-1.4678-6-1.52-2.9192 0-4.2 0.79833-4.2 2.52 0.24727 2.3866 2.8628 3.0035 4.8 3.68 5.9312 2.1967 8.52 4.0081 8.52 9.24 0 6.7588-5.9696 8.16-10.92 8.16-2.0763 0-6.0494-0.27394-9.28-2.12l1.76-4.96c2.3212 1.3162 4.8902 1.7066 7.52 1.76zm35.48-22.96v5.32h-8.36v22.4h-6.24v-22.4h-8.36v-5.32zm4 0h6.24v27.72h-6.24z" fill="#79740e" aria-label="STI"/>
  <path d="m111.18 196.36c-6.1614 0-10.199 3.1696-10.199 8.3203 0 0.53725 0.0531 1.0293 0.13476 1.4961 0.72078-4.2529 4.5304-6.8164 10.064-6.8164 3.13 0 5.5211 0.67181 7.2695 1.4648l0.93164-2.5449c-1.7893-0.97596-4.4801-1.9199-8.2012-1.9199zm11.121 0.64062v3h22.959v-3zm26.959 0v3h6.2402v-3zm-41.324 8.6504c-0.37646 0.39203-0.55469 0.90539-0.55469 1.5488 0.24727 2.3866 2.8616 3.0052 4.7988 3.6816 5.2825 1.9565 7.9095 3.6127 8.4219 7.6465 0.0622-0.44198 0.0977-0.90946 0.0977-1.4082 0-5.2319-2.5883-7.0415-8.5195-9.2383-1.4671-0.5123-3.3222-0.992-4.2441-2.2305zm-5.6758 12.549-1.7598 4.9609c0.29445 0.16825 0.5956 0.31977 0.90039 0.46289l0.85938-2.4238c2.3212 1.3162 4.8898 1.7083 7.5195 1.7617 3.2335 0 4.4805-0.98258 4.4805-2.8809 0-0.50901-0.11798-0.97172-0.43946-1.4199-0.6064 0.85905-1.878 1.3008-4.041 1.3008-2.6298-0.0534-5.1983-0.44556-7.5195-1.7617z" fill="#282828" opacity=".2"/>
  <path d="m105 64.795v30.205h30.205c0-16.682-13.523-30.205-30.205-30.205zm-9.7945 9.9486c-16.682 0-30.205 13.523-30.205 30.205s13.523 30.205 30.205 30.205 30.205-13.523 30.205-30.205h-30.205zm49.795 0v15.257h46v-15.257zm0 30.205v15.051h46v-15.051zm-80 45.051v15.36h103.56v-15.36z" color="#ebdbb2" fill="#282828" opacity=".15" stroke-width="7.5514"/>
  <path d="m105 59.795v30.205h30.205c0-16.682-13.523-30.205-30.205-30.205zm-9.7945 9.9486c-16.682 0-30.205 13.523-30.205 30.205s13.523 30.205 30.205 30.205 30.205-13.523 30.205-30.205h-30.205zm49.795 0v15.257h46v-15.257zm0 30.205v15.051h46v-15.051zm-80 45.051v15.36h103.56v-15.36z" color="#ebdbb2" fill="#b8bb26" stroke-width="7.5514"/>
  <path d="m105 59.795v5c14.975 0 27.371 10.908 29.758 25.205h0.44727c0-16.682-13.523-30.205-30.205-30.205zm-9.7949 9.9473c-16.682 0-30.205 13.525-30.205 30.207 0 0.84413 0.05904 1.6734 0.12695 2.5 1.2734-15.51 14.24-27.707 30.078-27.707zm49.795 0v5h46v-5zm-49.795 30.207v5h29.758c0.27228-1.6303 0.44727-3.2924 0.44727-5zm49.795 0v5h46v-5zm-80 45.051v5h103.56v-5z" color="#ebdbb2" fill="#ebdbb2" opacity=".3" stroke-width="7.5514"/>
  <path d="m57 15c-9.9393 0-17 7.0595-17 17v192c0 9.9393 7.0595 17 17 17h142c9.9405 0 17-7.0607 17-17v-144l-65-64.998zm4.0332 4.9902 89.967 2e-3 60 60.009v139.75c0 9.4999-6.6575 16.248-16.033 16.248h-133.93c-9.3757 0-16.033-6.7481-16.033-16.248v-183.51c0-9.501 6.6586-16.25 16.033-16.25z" fill="url(#linearGradient14-5)" style="paint-order:markers fill stroke"/>
  <path d="m151 15.002v52.914c0 9.6525 7.8639 17.084 17.518 17.084l47.482-1.34e-4v-5z" fill="#282828" opacity=".2" stroke-width="1.0833"/>
  <path d="m151 15v47.916c0 9.6525 7.8639 17.084 17.518 17.084l47.482-1.34e-4z" fill="url(#linearGradient7-6-0-5)" stroke-width="1.0833"/>
</svg>
