<svg width="256" height="256" version="1.1" viewBox="0 0 256 256" xmlns="http://www.w3.org/2000/svg">
  <defs>
    <linearGradient id="linearGradient21" x1="128" x2="128" y1="15" y2="241" gradientTransform="translate(-9.75e-4,-9.75e-4)" gradientUnits="userSpaceOnUse">
      <stop stop-color="#ebdbb2" offset="0"/>
      <stop stop-color="#d5c4a1" offset="1"/>
    </linearGradient>
    <linearGradient id="linearGradient14" x1="128" x2="128" y1="15.001" y2="241" gradientTransform="translate(0,4.8e-4)" gradientUnits="userSpaceOnUse">
      <stop stop-color="#427b58" stop-opacity=".1" offset="0"/>
      <stop stop-color="#427b58" stop-opacity=".05" offset=".2"/>
      <stop stop-color="#427b58" stop-opacity=".05" offset=".70405"/>
      <stop stop-color="#282828" stop-opacity=".051613" offset=".80473"/>
      <stop stop-color="#282828" stop-opacity=".098065" offset="1"/>
    </linearGradient>
    <linearGradient id="linearGradient7-6-0" x1="186" x2="156" y1="45.006" y2="75.012" gradientTransform="matrix(1.0833,0,0,1.0833,-17.998,-1.2496)" gradientUnits="userSpaceOnUse">
      <stop stop-color="#8ec07c" offset="0"/>
      <stop stop-color="#689d6a" offset=".3027"/>
      <stop stop-color="#427b58" offset="1"/>
    </linearGradient>
  </defs>
  <path d="m56.999 14.999c-9.9393 0-17 7.0595-17 17v149h176v-101l-64.998-64.998z" fill="url(#linearGradient21)" style="paint-order:markers fill stroke"/>
  <path d="m57 241c-9.9393 0-17-7.0595-17-17v-43h176v43c0 9.9405-7.0607 17-17 17z" fill="#689d6a" stroke-linecap="round" stroke-linejoin="round" stroke-miterlimit="0" style="paint-order:markers fill stroke"/>
  <path d="m85.454 200c2.8077 5.364 5.1623 10.948 7.52 16.52 2.3568-5.5724 4.6676-11.178 7.52-16.52h5.68c1.2019 9.1934 1.7322 18.464 2.2 27.72h-6.08c-0.20884-7.0309-0.45108-12.726-0.92-18.4-2.144 4.9499-4.2446 9.918-6.36 14.88h-4.36c-2.1341-4.9541-4.2337-9.9226-6.36-14.88-0.46892 5.6739-0.71116 11.369-0.92 18.4h-6.08c0.61669-12.642 1.2396-21.093 2.2-27.72zm33.76 13.84c0 5.6626 2.8829 8.96 7.36 8.96 4.8781 0 7.36-3.9271 7.36-8.96 0-4.9078-2.3872-9-7.36-9-4.1749 0-7.36 3.1092-7.36 9zm21.16 0c0 9.292-5.7804 14.44-13.8 14.44-7.1983 0-13.8-4.5179-13.8-14.44 0-9.2833 6.2024-14.48 13.8-14.48 7.6238 0 13.8 4.991 13.8 14.48zm14.44 14.24c-3.9745 0-6.8192-0.28408-9.24-0.8v-26.88c2.835-0.53155 6.6089-0.72 8.44-0.72 5.7428 0 12.08 1.2536 12.08 7.8 0 2.2133-1.0667 3.96-3.2 5.24 3.0743 1.0716 4.4184 3.479 4.56 6.6 0 6.8145-5.901 8.76-12.64 8.76zm-3.16-12.44v7.16c0.98081 0.11539 2.0707 0.16 3.24 0.16 2.8306-6e-3 5.9596-0.46056 6.24-3.76 0-0.94028-0.0632-3.56-5.56-3.56zm0-4.76h3.04c3.4646 0 5.36-0.71411 5.36-3.12 0-1.4248-0.57021-3.04-5.04-3.04-1.1212 0.0106-2.2423 0.0329-3.36 0.12zm20.8-10.88h6.24v27.72h-6.24z" color="#000000" color-rendering="auto" dominant-baseline="auto" fill="#282828" image-rendering="auto" opacity=".2" shape-rendering="auto" solid-color="#000000" stop-color="#000000" style="-inkscape-stroke:none;font-feature-settings:normal;font-variant-alternates:normal;font-variant-caps:normal;font-variant-east-asian:normal;font-variant-ligatures:normal;font-variant-numeric:normal;font-variant-position:normal;font-variation-settings:normal;inline-size:0;isolation:auto;mix-blend-mode:normal;shape-margin:0;shape-padding:0;text-decoration-color:#000000;text-decoration-line:none;text-decoration-style:solid;text-indent:0;text-orientation:mixed;text-transform:none;white-space:normal" aria-label="MOBI"/>
  <path d="m85.46 197c2.8077 5.364 5.1623 10.948 7.52 16.52 2.3568-5.5724 4.6676-11.178 7.52-16.52h5.68c1.2019 9.1934 1.7322 18.464 2.2 27.72h-6.08c-0.20884-7.0309-0.45108-12.726-0.92-18.4-2.144 4.9499-4.2446 9.918-6.36 14.88h-4.36c-2.1341-4.9541-4.2337-9.9226-6.36-14.88-0.46892 5.6739-0.71116 11.369-0.92 18.4h-6.08c0.61669-12.642 1.2396-21.093 2.2-27.72zm33.76 13.84c0 5.6626 2.8829 8.96 7.36 8.96 4.8781 0 7.36-3.9271 7.36-8.96 0-4.9078-2.3872-9-7.36-9-4.1749 0-7.36 3.1092-7.36 9zm21.16 0c0 9.292-5.7804 14.44-13.8 14.44-7.1983 0-13.8-4.5179-13.8-14.44 0-9.2833 6.2024-14.48 13.8-14.48 7.6238 0 13.8 4.991 13.8 14.48zm14.44 14.24c-3.9745 0-6.8192-0.28408-9.24-0.8v-26.88c2.835-0.53155 6.6089-0.72 8.44-0.72 5.7428 0 12.08 1.2536 12.08 7.8 0 2.2133-1.0667 3.96-3.2 5.24 3.0743 1.0716 4.4184 3.479 4.56 6.6 0 6.8145-5.901 8.76-12.64 8.76zm-3.16-12.44v7.16c0.98081 0.11539 2.0707 0.16 3.24 0.16 2.8306-6e-3 5.9596-0.46056 6.24-3.76 0-0.94028-0.0632-3.56-5.56-3.56zm0-4.76h3.04c3.4646 0 5.36-0.71411 5.36-3.12 0-1.4248-0.57021-3.04-5.04-3.04-1.1212 0.0106-2.2423 0.0329-3.36 0.12zm20.8-10.88h6.24v27.72h-6.24z" color="#000000" color-rendering="auto" dominant-baseline="auto" fill="#ebdbb2" image-rendering="auto" shape-rendering="auto" solid-color="#000000" stop-color="#000000" style="-inkscape-stroke:none;font-feature-settings:normal;font-variant-alternates:normal;font-variant-caps:normal;font-variant-east-asian:normal;font-variant-ligatures:normal;font-variant-numeric:normal;font-variant-position:normal;font-variation-settings:normal;inline-size:0;isolation:auto;mix-blend-mode:normal;shape-margin:0;shape-padding:0;text-decoration-color:#000000;text-decoration-line:none;text-decoration-style:solid;text-indent:0;text-orientation:mixed;text-transform:none;white-space:normal" aria-label="MOBI"/>
  <path d="m126.58 196.36c-7.5976-1e-5 -13.801 5.1971-13.801 14.48 0 0.4961 0.0283 0.96831 0.0605 1.4375 0.65976-8.2992 6.5755-12.918 13.734-12.918 7.2384 0 13.161 4.5076 13.742 13.084 0.0398-0.52069 0.0645-1.0536 0.0645-1.6035 0-9.489-6.177-14.48-13.801-14.48zm27.439 0.32031c-1.8311 0-5.6045 0.18915-8.4394 0.7207v3c2.8343-0.53078 6.6037-0.7207 8.4336-0.7207 5.2355 0 10.948 1.0569 11.92 6.2012 0.10504-0.44516 0.16602-0.90928 0.16602-1.4004 0-6.5464-6.3373-7.8008-12.08-7.8008zm-74.52 0.32031c-0.96038 6.6266-1.5825 15.078-2.1992 27.721h0.1543c0.56695-10.915 1.1611-18.663 2.0391-24.721h5.959c2.8077 5.364 5.1638 10.948 7.5215 16.52 2.3568-5.5724 4.6672-11.177 7.5195-16.52h5.6797c1.0721 8.2003 1.6034 16.463 2.0391 24.721h0.16797c-0.46781-9.2559-0.99929-18.527-2.2012-27.721h-5.6797c-2.8524 5.3425-5.1628 10.947-7.5195 16.52-2.3577-5.5719-4.7119-11.156-7.5195-16.52zm92.961 0v3h6.2324v24.721h6e-3v-27.721zm-20.807 7.8398v6.041h3.0391c3.4646 0 5.3613-0.7152 5.3613-3.1211 0-0.4954-0.0815-1.011-0.35938-1.4766-0.70365 1.1985-2.4136 1.5977-4.9961 1.5977h-3.0391v-3.041c-2e-3 1.6e-4 -4e-3 -1.5e-4 -6e-3 0zm13.346 6.0234c-0.51915 0.69908-1.2127 1.3218-2.1055 1.8574 2.6291 0.9164 3.9837 2.8138 4.4121 5.2949 0.0903-0.53244 0.1543-1.0874 0.1543-1.6953-0.10364-2.2844-0.86189-4.1812-2.4609-5.457zm-45.701 1.4531c-0.0506 0.48746-0.0859 0.99013-0.0859 1.5234 0 5.6626 2.8843 8.9609 7.3613 8.9609 4.8781 0 7.3594-3.928 7.3594-8.9609 0-0.50106-0.0301-0.99013-0.0801-1.4707-0.46218 4.2752-2.9032 7.4316-7.2734 7.4316-4.0705 0-6.8148-2.7336-7.2812-7.4844zm32.355 3.3242v7.1602c0.98081 0.11539 2.071 0.16016 3.2402 0.16016 2.8306-6e-3 5.9598-0.46228 6.2402-3.7617 0-0.36501-0.0203-0.98189-0.35352-1.6016-0.9447 2.0323-3.5144 2.3583-5.8809 2.3633-1.1693 0-2.2594-0.0448-3.2402-0.16016v-4.1602z" color="#000000" color-rendering="auto" dominant-baseline="auto" fill="#fbf1c7" image-rendering="auto" opacity=".6" shape-rendering="auto" solid-color="#000000" stop-color="#000000" style="-inkscape-stroke:none;font-feature-settings:normal;font-variant-alternates:normal;font-variant-caps:normal;font-variant-east-asian:normal;font-variant-ligatures:normal;font-variant-numeric:normal;font-variant-position:normal;font-variation-settings:normal;inline-size:0;isolation:auto;mix-blend-mode:normal;shape-margin:0;shape-padding:0;text-decoration-color:#000000;text-decoration-line:none;text-decoration-style:solid;text-indent:0;text-orientation:mixed;text-transform:none;white-space:normal"/>
  <path class="ColorScheme-Text" d="m125.09 58.549-65.082 36.523 74.383 47.361 51.613-32.857v7.4238l-51.613 33.074-74.387-47.682v19.572l74.387 48.035 61.613-39.047v-27.744l-14.266-8.9824-45.262 28.092-14.682-9.3203 45.768-27.699-14.193-8.9395-46.273 27.309-14.66-9.3066 46.775-26.918z" color="#ebdbb2" fill="#ebdbb2" opacity=".6"/>
  <path class="ColorScheme-Text" d="m125.09 53.549-65.082 36.523 74.383 47.361 51.613-32.857v7.4238l-51.613 33.074-74.387-47.682v19.572l74.387 48.035 61.613-39.047v-27.744l-14.266-8.9824-45.262 28.092-14.682-9.3203 45.768-27.699-14.193-8.9395-46.273 27.309-14.66-9.3066 46.775-26.918-14.121-8.8945z" color="#ebdbb2" fill="#689d6a"/>
  <path class="ColorScheme-Text" d="m125.09 53.549-65.082 36.523 4.1738 2.6582 60.908-34.182 9.9726 6.2812 4.1484-2.3867zm28.279 17.811-46.273 27.309-10.529-6.6836-4.1309 2.377 14.66 9.3066 46.273-27.309 10.145 6.3887 4.0488-2.4492zm28.369 17.867-45.262 28.092-10.65-6.7598-4.0312 2.4395 14.682 9.3203 45.262-28.092 14.266 8.9824v-5zm-121.73 8.166v5l74.387 47.682 51.613-33.074v-5l-51.613 33.074z" color="#ebdbb2" fill="#282828" opacity=".2"/>
  <path d="m57 15c-9.9393 0-17 7.0595-17 17v192c0 9.9393 7.0595 17 17 17h142c9.9405 0 17-7.0607 17-17v-144l-65-65zm4.0332 4.9902 89.967 0.01 60 60 2e-4 139.75c1e-5 9.4999-6.6575 16.248-16.033 16.248h-133.93c-9.3757 0-16.033-6.7481-16.033-16.248v-183.51c0-9.501 6.6586-16.25 16.033-16.25z" fill="url(#linearGradient14)" style="paint-order:markers fill stroke"/>
  <path d="m151 15.002v52.914c0 9.6525 7.8639 17.084 17.518 17.084l47.482-1.34e-4v-5z" fill="#282828" opacity=".2" stroke-width="1.0833"/>
  <path d="m151 15.002v47.916c0 9.6525 7.8639 17.084 17.518 17.084l47.482-1.34e-4z" fill="url(#linearGradient7-6-0)" stroke-width="1.0833"/>
</svg>
