<svg width="256" height="256" version="1.1" viewBox="0 0 256 256" xmlns="http://www.w3.org/2000/svg" xmlns:xlink="http://www.w3.org/1999/xlink">
  <defs>
    <linearGradient id="linearGradient21" x1="128" x2="128" y1="15" y2="241" gradientTransform="translate(2.5e-5,2.5e-5)" gradientUnits="userSpaceOnUse">
      <stop stop-color="#ebdbb2" offset="0"/>
      <stop stop-color="#d5c4a1" offset="1"/>
    </linearGradient>
    <linearGradient id="linearGradient14-5" x1="128" x2="128" y1="15.001" y2="241" gradientTransform="translate(0,4.8e-4)" gradientUnits="userSpaceOnUse">
      <stop stop-color="#ebdbb2" stop-opacity=".1" offset="0"/>
      <stop stop-color="#ebdbb2" stop-opacity=".05" offset=".2"/>
      <stop stop-color="#282828" stop-opacity=".045375" offset=".70405"/>
      <stop stop-color="#282828" stop-opacity=".05" offset=".80473"/>
      <stop stop-color="#282828" stop-opacity=".15" offset="1"/>
    </linearGradient>
    <linearGradient id="linearGradient7-6-0" x1="186" x2="156" y1="45.006" y2="75.012" gradientTransform="matrix(1.0833,0,0,1.0833,-17.996,-1.2496)" gradientUnits="userSpaceOnUse">
      <stop stop-color="#a89984" offset="0"/>
      <stop stop-color="#7c6f64" offset=".3027"/>
      <stop stop-color="#504945" offset="1"/>
    </linearGradient>
    <linearGradient id="linearGradient26" x1="76" x2="76" y1="50" y2="160" gradientUnits="userSpaceOnUse">
      <stop stop-color="#ebdbb2" offset="0"/>
      <stop stop-color="#d5c4a1" offset="1"/>
    </linearGradient>
  </defs>
  <path d="m57 15c-9.9393 0-17 7.0595-17 17v149h176v-101l-64.998-64.998z" fill="url(#linearGradient21)" style="paint-order:markers fill stroke"/>
  <path d="m57 15c-9.9393 0-17 7.0595-17 17v192c0 9.9405 7.0607 17 17 17h142c9.9393 0 17-7.0595 17-17v-43h-88v-166l-71-2e-3z" fill="#7c6f64" style="paint-order:markers fill stroke"/>
  <path d="m57 15c-9.9393 0-17 7.0595-17 17v192c0 9.9393 7.0595 17 17 17h142c9.9405 0 17-7.0607 17-17v-43.002h-5v38.754c0 9.4999-6.6577 16.248-16.033 16.248h-133.93c-9.3757 0-16.033-6.7482-16.033-16.248v-183.51c0-9.4997 6.657-16.248 16.029-16.25h0.003906l66.963 0.001954v-4.9902l-71-0.001953z" fill="url(#linearGradient14-5)" style="paint-order:markers fill stroke"/>
  <path d="m70.34 228.08c-3.9745 0-6.8192-0.28408-9.24-0.8v-26.88c2.835-0.53155 6.6089-0.72 8.44-0.72 5.7428 0 12.08 1.2536 12.08 7.8 0 2.2133-1.0667 3.96-3.2 5.24 3.0743 1.0716 4.4184 3.479 4.56 6.6 0 6.8145-5.901 8.76-12.64 8.76zm-3.16-12.44v7.16c0.98081 0.11539 2.0707 0.16 3.24 0.16 2.8306-6e-3 5.9596-0.46056 6.24-3.76 0-0.94028-0.06317-3.56-5.56-3.56zm0-4.76h3.04c3.4646 0 5.36-0.71411 5.36-3.12 0-1.4248-0.57021-3.04-5.04-3.04-1.1212 0.0106-2.2423 0.0329-3.36 0.12zm28.36 12.08c3.2335 0 4.48-0.98173 4.48-2.88 0-1.5331-1.0262-2.6488-5.68-4.2-3.4634-1.2224-7.6-2.955-7.6-8.2 0-5.1508 4.0386-8.32 10.2-8.32 3.7211 0 6.4107 0.94404 8.2 1.92l-1.8 4.92c-1.873-0.99727-3.8907-1.4678-6-1.52-2.9192 0-4.2 0.79833-4.2 2.52 0.24727 2.3866 2.8628 3.0035 4.8 3.68 5.7865 2.1432 8.52 3.9386 8.52 9.24 0 6.7588-5.9696 8.16-10.92 8.16-2.0763 0-6.0494-0.27394-9.28-2.12l1.76-4.96c2.3212 1.3162 4.8902 1.7066 7.52 1.76zm21.96-0.32c0.79723 0.0981 1.5986 0.08 2.4 0.08 7.7941 0 9.2-5.1581 9.2-8.88 0-7.853-5.2303-8.84-9-8.84-0.86857 4e-3 -1.7356 0.0424-2.6 0.12zm18.04-8.8c0 12.439-10.106 14.24-15.96 14.24-0.88703 0-4.9869-0.041-8.32-0.72v-27c0.13451-0.0249 3.6911-0.68 8.52-0.68 7.5066 0 15.76 2.6232 15.76 14.16zm5.2-13.84h6.24v27.72h-6.24zm12.64 27.72v-27.72h18.56v5.24h-12.32v5.8h10.96v5.24h-10.96v11.44zm22.96 0v-27.72h18.56v5.24h-12.32v5.8h10.96v5.24h-10.96v11.44z" fill="#282828" opacity=".2" aria-label="BSDIFF"/>
  <path d="m70.34 225.08c-3.9745 0-6.8192-0.28408-9.24-0.8v-26.88c2.835-0.53155 6.6089-0.72 8.44-0.72 5.7428 0 12.08 1.2536 12.08 7.8 0 2.2133-1.0667 3.96-3.2 5.24 3.0743 1.0716 4.4184 3.479 4.56 6.6 0 6.8145-5.901 8.76-12.64 8.76zm-3.16-12.44v7.16c0.98081 0.11539 2.0707 0.16 3.24 0.16 2.8306-6e-3 5.9596-0.46056 6.24-3.76 0-0.94028-0.06317-3.56-5.56-3.56zm0-4.76h3.04c3.4646 0 5.36-0.71411 5.36-3.12 0-1.4248-0.57021-3.04-5.04-3.04-1.1212 0.0106-2.2423 0.0329-3.36 0.12zm28.36 12.08c3.2335 0 4.48-0.98173 4.48-2.88 0-1.5331-1.0262-2.6488-5.68-4.2-3.4634-1.2224-7.6-2.955-7.6-8.2 0-5.1508 4.0386-8.32 10.2-8.32 3.7211 0 6.4107 0.94404 8.2 1.92l-1.8 4.92c-1.873-0.99727-3.8907-1.4678-6-1.52-2.9192 0-4.2 0.79833-4.2 2.52 0.24727 2.3866 2.8628 3.0035 4.8 3.68 5.7865 2.1432 8.52 3.9386 8.52 9.24 0 6.7588-5.9696 8.16-10.92 8.16-2.0763 0-6.0494-0.27394-9.28-2.12l1.76-4.96c2.3212 1.3162 4.8902 1.7066 7.52 1.76zm21.96-0.32c0.79723 0.0981 1.5986 0.08 2.4 0.08 7.7941 0 9.2-5.1581 9.2-8.88 0-7.853-5.2303-8.84-9-8.84-0.86857 4e-3 -1.7356 0.0424-2.6 0.12zm18.04-8.8c0 12.439-10.106 14.24-15.96 14.24-0.88703 0-4.9869-0.041-8.32-0.72v-27c0.13451-0.0249 3.6911-0.68 8.52-0.68 7.5066 0 15.76 2.6232 15.76 14.16zm5.2-13.84h6.24v27.72h-6.24zm12.64 27.72v-27.72h18.56v5.24h-12.32v5.8h10.96v5.24h-10.96v11.44zm22.96 0v-27.72h18.56v5.24h-12.32v5.8h10.96v5.24h-10.96v11.44z" fill="#ebdbb2" aria-label="BSDIFF"/>
  <path d="m96.94 196.36c-6.1614 0-10.199 3.1676-10.199 8.3184 0 0.53725 0.0531 1.0293 0.13476 1.4961 0.72078-4.2529 4.5304-6.8164 10.064-6.8164 3.1461 0 5.5149 0.68206 7.2656 1.4805l0.93554-2.5586c-1.7892-0.97596-4.4801-1.9199-8.2012-1.9199zm-27.4 0.31836c-1.8311 0-5.6045 0.18915-8.4395 0.7207v3c2.835-0.53155 6.6084-0.7207 8.4395-0.7207 5.2302 0 10.938 1.0547 11.918 6.1855 0.1026-0.4405 0.16211-0.89937 0.16211-1.3848 0-6.5464-6.3373-7.8008-12.08-7.8008zm50.24 0c-4.8289 0-8.385 0.65674-8.5195 0.68164v2.998c0.13451-0.0249 3.6906-0.67969 8.5195-0.67969 7.1455 0 14.951 2.3948 15.688 12.574 0.0314-0.4638 0.0742-0.91684 0.0742-1.4141 0-11.537-8.2551-14.16-15.762-14.16zm20.961 0.32031v3h6.2402v-3zm12.641 0v3h18.559v-3zm22.959 0v3h18.561v-3zm-82.641 8.6465c-0.37909 0.39253-0.55859 0.90711-0.55859 1.5527 0.24727 2.3866 2.8616 3.0052 4.7988 3.6816 5.1583 1.9105 7.8855 3.551 8.418 7.6387 0.0619-0.44112 0.10352-0.90081 0.10352-1.3984 0-5.3014-2.7349-7.0971-8.5215-9.2402-1.4677-0.51252-3.3187-0.99474-4.2402-2.2344zm-18.48 0.63282c-0.70176 1.2025-2.4118 1.6016-4.998 1.6016h-3.041v3h3.041c3.4646 0 5.3594-0.7152 5.3594-3.1211 0-0.49682-0.08149-1.0139-0.36133-1.4805zm84.4 1.7617v2.998h10.961v-2.998zm22.961 0v2.998h10.959v-2.998zm-102.06 2.8262c-0.51889 0.69752-1.2124 1.3188-2.1035 1.8535 2.6242 0.91469 3.9791 2.8069 4.4102 5.2812 0.08855-0.52786 0.15039-1.0798 0.15039-1.6816-0.10359-2.2832-0.8597-4.1773-2.457-5.4531zm48.498 1.4434c-0.38072 3.4759-2.3139 7.4102-9.1211 7.4102-0.80135 0-1.6032 0.018-2.4004-0.0801v3c0.79723 0.0981 1.599 0.0801 2.4004 0.0801 7.7941 0 9.1992-5.159 9.1992-8.8809 0-0.54485-0.03-1.0486-0.0781-1.5293zm-52.719 5.2812c-0.94259 2.0372-3.5142 2.3641-5.8828 2.3691-1.1693 0-2.2594-0.0448-3.2402-0.16016v3c0.98081 0.11539 2.071 0.16016 3.2402 0.16016 2.8306-6e-3 5.9598-0.46228 6.2402-3.7617 0-0.36616-0.02113-0.98579-0.35742-1.6074zm11.717 0.60937-1.7598 4.959c0.29385 0.16791 0.60014 0.30829 0.90429 0.45117l0.85547-2.4121c2.3212 1.3162 4.8898 1.7083 7.5195 1.7617 3.2335 0 4.4805-0.98259 4.4805-2.8809 0-0.51006-0.13208-0.97281-0.45508-1.4219-0.60789 0.85557-1.8668 1.3027-4.0254 1.3027-2.6298-0.0534-5.1983-0.44361-7.5195-1.7598z" fill="#fbf1c7" opacity=".6"/>
  <path d="m142 53v10h44v-10zm0 20v10h60v-10zm0 20v10h38v-10zm0 20v10h48v-10zm0 20v10h60v-10zm0 20v10h53v-10z" fill="#ebdbb2" opacity=".8" stroke-linecap="round" stroke-linejoin="round" stroke-miterlimit="0" stroke-width="9.116" style="paint-order:markers fill stroke"/>
  <path d="m142 50v10h44v-10zm0 20v10h60v-10zm0 20v10h38v-10zm0 20v10h48v-10zm0 20v10h60v-10zm0 20v10h53v-10z" fill="#7c6f64" stroke-linecap="round" stroke-linejoin="round" stroke-miterlimit="0" stroke-width="9.116" style="paint-order:markers fill stroke"/>
  <path d="m142 50v3h44v-3zm0 20v3h60v-3zm0 20v3h38v-3zm0 20v3h48v-3zm0 20v3h60v-3zm0 20v3h53v-3z" fill="#282828" opacity=".2" stroke-linecap="round" stroke-linejoin="round" stroke-miterlimit="0" stroke-width="9.116" style="paint-order:markers fill stroke"/>
  <path d="m128 15.002v4.9902h23v-4.9902zm83 65v101h5v-101z" fill="#282828" opacity=".05" stroke-linecap="square" stroke-linejoin="round" stroke-miterlimit="0" stroke-width="10" style="paint-order:markers fill stroke"/>
  <path d="m151 15.002v52.914c0 9.6525 7.8639 17.084 17.518 17.084l47.482-1.34e-4v-5z" fill="#282828" opacity=".2" stroke-width="1.0833"/>
  <path d="m151 15.002v47.916c0 9.6525 7.8639 17.084 17.518 17.084l47.482-1.34e-4z" fill="url(#linearGradient7-6-0)" stroke-width="1.0833"/>
  <path d="m54 53v10h60v-10zm0 20v10h46v-10zm0 20v10h51.05v-10zm0 20v10h60v-10zm0 20v10h36v-10zm0 20v10h46v-10z" fill="#282828" opacity=".2" stroke-linecap="round" stroke-linejoin="round" stroke-miterlimit="0" stroke-width="9.116" style="paint-order:markers fill stroke"/>
  <path d="m54 50v10h60v-10zm0 20v10h46v-10zm0 20v10h51.05v-10zm0 20v10h60v-10zm0 20v10h36v-10zm0 20v10h46v-10z" fill="url(#linearGradient26)" stroke-linecap="round" stroke-linejoin="round" stroke-miterlimit="0" stroke-width="9.116" style="paint-order:markers fill stroke"/>
  <path d="m54 50v3h60v-3zm0 20v3h46v-3zm0 20v3h51.05v-3zm0 20v3h60v-3zm0 20v3h36v-3zm0 20v3h46v-3z" fill="#fbf1c7" opacity=".6" stroke-linecap="round" stroke-linejoin="round" stroke-miterlimit="0" stroke-width="9.116" style="paint-order:markers fill stroke"/>
</svg>
