<svg width="256" height="256" fill="none" version="1.1" viewBox="0 0 256 256" xmlns="http://www.w3.org/2000/svg">
  <path d="m57 15c-9.9393 0-17 7.0595-17 17v192c0 9.9393 7.0595 17 17 17h142c9.9405 0 17-7.0607 17-17v-192c0-9.9405-7.0607-17-17-17z" fill="url(#linearGradient26)" stroke-linecap="round" stroke-linejoin="round" stroke-miterlimit="0" style="paint-order:markers fill stroke"/>
  <path transform="translate(0,-2)" d="m53 175h52v32h-52z" fill="#ebdbb2"/>
  <path transform="translate(0,-2)" d="m57.01 183v16h7.998v-16zm12 0v16h3.999v-16zm7.998 0v16h8.001v-16zm12 0v16h4.003v-16zm8.001 0v16h3.999v-16z" fill="#665c54"/>
  <path transform="translate(0,-2)" d="m150 177v3.999h48v-3.999zm0 7.997v4.003h40v-4.003zm0 8.002v3.999h48v-3.999zm0 8.001v3.999h32v-3.999z" fill="#ebdbb2" opacity=".3"/>
  <defs>
    <linearGradient id="linearGradient26" x1="-160" x2="-160" y2="226" gradientTransform="translate(267,15)" gradientUnits="userSpaceOnUse">
      <stop stop-color="#d79921" offset="0"/>
      <stop stop-color="#d79921" offset="1"/>
    </linearGradient>
    <linearGradient id="linearGradient30" x1="119" x2="137" y1="127" y2="127" gradientUnits="userSpaceOnUse">
      <stop stop-color="#a89984" offset="0"/>
      <stop stop-color="#ebdbb2" offset=".096045"/>
      <stop stop-color="#a89984" offset=".19915"/>
      <stop stop-color="#a89984" offset=".7959"/>
      <stop stop-color="#ebdbb2" offset=".89795"/>
      <stop stop-color="#a89984" offset="1"/>
    </linearGradient>
    <linearGradient id="linearGradient23" x1="128" x2="128" y1="15" y2="241" gradientTransform="translate(-1.1e-4)" gradientUnits="userSpaceOnUse">
      <stop stop-color="#ebdbb2" stop-opacity=".3" offset="0"/>
      <stop stop-color="#ebdbb2" stop-opacity=".15" offset=".2"/>
      <stop stop-opacity="0" offset=".75"/>
      <stop stop-opacity=".05098" offset=".9"/>
      <stop stop-opacity=".10196" offset="1"/>
    </linearGradient>
  </defs>
  <path d="m128 137h-4l1 95h3z" fill="#7c6f64"/>
  <path d="m128 124v4h-9v9h9v7h-9l2 4 7 2v4h-9v9h9v4h-9v9h9v4h-9v9h9v4h-9v9h9v4h-9v9h9v4h-9v9h9v4h-9v9h9v-3h4l4e-3 -1h4.996v-9h-4.9688l0.0137-4h4.955v-9h-4.9258l0.0117-4h4.9141v-9h-4.8848l0.0137-4h4.8711v-9h-4.8438l0.0137-4h4.83v-9h-4.8008l0.0117-4h4.7891v-9h-4.7598l0.0137-4h4.7461v-9h-4.7188l0.0137-4h4.705v-9h-4.6758l0.0117-4h4.6641v-9h-4.6348z" fill="#ebdbb2"/>
  <path d="m119 134v3h9v-3zm9 9v3h9v-3zm0 13v3h9v-3zm-9 4v3h9v-3zm9 9v3h9v-3zm-9 4v3h9v-3zm9 9v3h9v-3zm-9 4v3h9v-3zm9 9v3h9v-3zm-9 4v3h9v-3zm9 9v3h9v-3zm-9 4v3h9v-3zm9 9v3h9v-3zm-9 4v3h9v-3zm9 9v3h9v-3zm-9 4v3h9v-3z" fill="#282828" opacity=".4" style="paint-order:markers fill stroke"/>
  <path d="m120 93.971c-4.986 0-9 4.014-9 9v21.029c0 4.6472 3.489 8.4461 8 8.9414v17.059c0 2.77 2.23 5 5 5h8c2.77 0 5-2.23 5-5v-17.059c4.511-0.49532 8-4.2942 8-8.9414v-21.029c0-4.986-4.014-9-9-9zm3 44.029h10v13h-10z" fill="#282828" opacity=".2" style="paint-order:markers fill stroke"/>
  <path d="m120 90.97h16c4.986 0 9 4.014 9 9v21.03c0 4.986-4.014 9-9 9h-16c-4.986 0-9-4.014-9-9v-21.03c0-4.986 4.014-9 9-9z" fill="#504945" style="paint-order:markers fill stroke"/>
  <path d="m120 85.97h16c4.986 0 9 4.014 9 9v21.03c0 4.986-4.014 9-9 9h-16c-4.986 0-9-4.014-9-9v-21.03c0-4.986 4.014-9 9-9z" fill="#665c54" style="paint-order:markers fill stroke"/>
  <rect x="124" y="90" width="8" height="18" ry="4" fill="#a89984" style="paint-order:markers fill stroke"/>
  <path d="m124 103c-2.77 0-5 2.23-5 5v38c0 2.77 2.23 5 5 5h8c2.77 0 5-2.23 5-5v-38c0-2.77-2.23-5-5-5v10c0 2.216-1.784 4-4 4s-4-1.784-4-4zm-1 31h10v12h-10z" fill="url(#linearGradient30)" style="paint-order:markers fill stroke"/>
  <path d="m124 99c-2.77 0-5 2.23-5 5v38c0 2.77 2.23 5 5 5h8c2.77 0 5-2.23 5-5v-38c0-2.77-2.23-5-5-5v10c0 2.216-1.784 4-4 4s-4-1.784-4-4zm-1 31h10v13h-10z" fill="#ebdbb2" style="paint-order:markers fill stroke"/>
  <path d="m57 15c-9.9393 0-17 7.0595-17 17v43h176v-43c0-9.9405-7.0607-17-17-17z" fill="#fabd2f" opacity=".6" stroke-linecap="round" stroke-linejoin="round" stroke-miterlimit="0" style="paint-order:markers fill stroke"/>
  <path d="m69.24 63.56c-11.917 0-13.84-8.7761-13.84-14.44 0-8.7097 5.577-14.48 14.16-14.48 4.9861 0 8.1256 1.8485 8.56 2.12l-1.8 5.04c-1.62-0.86062-3.9004-1.64-6.84-1.64-4.5709 0-7.6 3.2269-7.6 8.84 0 7.3771 4.1646 9.04 7.92 9.04 2.4702 0.08397 4.7798-0.55372 7-1.56l1.72 5c-3.204 1.9418-7.9741 2.08-9.28 2.08zm21.6-28.6c12.379 0 12.84 6.5014 12.84 9.32 0 3.3294-0.85048 9.44-12.96 9.44h-1.96v9.28h-6.24v-27.32c3.0028-0.58878 6.4467-0.72 8.32-0.72zm0.4 5.32c-0.95141 0-1.8488 0.0674-2.48 0.12v8h1.96c5.6666 0 6.52-1.933 6.52-4.16 0-2.7192-1.8321-3.96-6-3.96zm17.04-5h6.24v27.72h-6.24zm17.88 13.84c0 5.6625 2.8829 8.96 7.36 8.96 4.8781 0 7.36-3.9271 7.36-8.96 0-4.9078-2.3872-9-7.36-9-4.1749 0-7.36 3.1092-7.36 9zm21.16 0c0 9.292-5.7804 14.44-13.8 14.44-7.1983 0-13.8-4.5179-13.8-14.44 0-9.2833 6.2024-14.48 13.8-14.48 7.6238 0 13.8 4.991 13.8 14.48zm18.72-9.04c-6.2421 0-8.24 3.9646-8.24 9.04 0 4.9582 2.1987 9.08 7.68 9.08 1.7593 0 2.5214-0.08031 3.08-0.2v-9.64h6.24v13.72c-3.5405 1.3909-8.9813 1.44-9.72 1.44-7.9578 0-13.76-4.8354-13.76-14.4 0-9.3096 6.2351-14.48 13.88-14.48 5.6636 0 8.8879 1.9249 9.2 2.12l-1.8 5c-0.98135-0.52135-3.5054-1.68-6.56-1.68zm34.12-0.48c-3.2393 3.3406-9.7476 11.606-13.68 18.16h14.12v5.24h-21.8v-3.72c1.9484-3.5489 7.1858-11.657 13.08-18.76h-12.44v-5.24h20.72z" fill="#ebdbb2" opacity=".25" aria-label="CPIOGZ"/>
  <path d="m69.24 60.56c-11.917 0-13.84-8.7761-13.84-14.44 0-8.7097 5.577-14.48 14.16-14.48 4.9861 0 8.1256 1.8485 8.56 2.12l-1.8 5.04c-1.62-0.86062-3.9004-1.64-6.84-1.64-4.5709 0-7.6 3.2269-7.6 8.84 0 7.3771 4.1646 9.04 7.92 9.04 2.4702 0.08397 4.7798-0.55372 7-1.56l1.72 5c-3.204 1.9418-7.9741 2.08-9.28 2.08zm21.6-28.6c12.379 0 12.84 6.5014 12.84 9.32 0 3.3294-0.85048 9.44-12.96 9.44h-1.96v9.28h-6.24v-27.32c3.0028-0.58878 6.4467-0.72 8.32-0.72zm0.4 5.32c-0.95141 0-1.8488 0.0674-2.48 0.12v8h1.96c5.6666 0 6.52-1.933 6.52-4.16 0-2.7192-1.8321-3.96-6-3.96zm17.04-5h6.24v27.72h-6.24zm17.88 13.84c0 5.6625 2.8829 8.96 7.36 8.96 4.8781 0 7.36-3.9271 7.36-8.96 0-4.9078-2.3872-9-7.36-9-4.1749 0-7.36 3.1092-7.36 9zm21.16 0c0 9.292-5.7804 14.44-13.8 14.44-7.1983 0-13.8-4.5179-13.8-14.44 0-9.2833 6.2024-14.48 13.8-14.48 7.6238 0 13.8 4.991 13.8 14.48zm18.72-9.04c-6.2421 0-8.24 3.9646-8.24 9.04 0 4.9582 2.1987 9.08 7.68 9.08 1.7593 0 2.5214-0.08031 3.08-0.2v-9.64h6.24v13.72c-3.5405 1.3909-8.9813 1.44-9.72 1.44-7.9578 0-13.76-4.8354-13.76-14.4 0-9.3096 6.2351-14.48 13.88-14.48 5.6636 0 8.8879 1.9249 9.2 2.12l-1.8 5c-0.98135-0.52135-3.5054-1.68-6.56-1.68zm34.12-0.48c-3.2393 3.3406-9.7476 11.606-13.68 18.16h14.12v5.24h-21.8v-3.72c1.9484-3.5489 7.1858-11.657 13.08-18.76h-12.44v-5.24h20.72z" fill="#b57614" aria-label="CPIOGZ"/>
  <path d="m69.561 31.641c-8.583 0-14.16 5.7689-14.16 14.479 0 0.43917 0.03757 0.92348 0.06445 1.3945 0.64713-7.806 6.0518-12.873 14.096-12.873 3.6813 0 6.3356 1.004 7.6582 1.6406l0.90039-2.5215c-0.4344-0.2715-3.5725-2.1191-8.5586-2.1191zm63.959 0c-7.5976 0-13.799 5.1952-13.799 14.479 0 0.51914 0.0272 1.0162 0.0625 1.5059 0.63324-8.3412 6.5582-12.984 13.736-12.984 7.2229 0 13.137 4.4869 13.74 13.027 0.0371-0.50391 0.0605-1.0177 0.0605-1.5488 0-9.489-6.177-14.479-13.801-14.479zm31.68 0c-7.6449 0-13.879 5.169-13.879 14.479 0 0.54406 0.0237 1.0686 0.0606 1.582 0.60531-8.4101 6.5731-13.061 13.818-13.061 4.1236 0 6.9361 1.0143 8.291 1.6445l0.91016-2.5254c-0.31209-0.19506-3.5376-2.1191-9.2012-2.1191zm-74.359 0.32031c-1.8733 0-5.3175 0.12997-8.3203 0.71875v3c3.0028-0.58878 6.447-0.71875 8.3203-0.71875 10.53 0 12.419 4.6899 12.754 7.8301 0.0591-0.53925 0.0859-1.0544 0.0859-1.5117 0-2.8186-0.46101-9.3184-12.84-9.3184zm17.439 0.31836v3h6.2402v-3zm71.16 0v3h20.721v-3zm10.037 8.2402c-4.8761 6.2659-8.9976 12.703-10.676 15.76v3c1.9484-3.5489 7.1859-11.657 13.08-18.76zm-92.467 2.3281c-0.51204 1.4739-2.0565 2.5527-6.2891 2.5527h-1.9609v3h1.9609c5.6666 0 6.5195-1.9332 6.5195-4.1602 0-0.52407-0.09075-0.97663-0.23047-1.3926zm71.551 2.5117v3h6.2402v-3zm-42.307 2.166c-0.0556 0.50898-0.0937 1.0343-0.0937 1.5938 0 5.6625 2.8823 8.9609 7.3594 8.9609 4.8781 0 7.3613-3.928 7.3613-8.9609 0-0.51669-0.0426-1.0169-0.0957-1.5117-0.45251 4.2931-2.8834 7.4727-7.2656 7.4727-4.0858 0-6.8148-2.7707-7.2656-7.5547zm31.629 0.03711c-0.047 0.50702-0.082 1.0216-0.082 1.5566 0 4.9582 2.1984 9.0801 7.6797 9.0801 1.7593 0 2.5215-0.07953 3.0801-0.19922v-3c-0.55856 0.11969-1.3208 0.19922-3.0801 0.19922-4.9363 0-7.1942-3.3506-7.5977-7.6367zm-95.91 0.13086c-0.0399 0.42767-0.0918 0.84643-0.0918 1.3066 0 7.3771 4.1646 9.0391 7.9199 9.0391 2.4702 0.08397 4.7798-0.55231 7-1.5586l0.8418 2.4492c0.2983-0.14242 0.59895-0.28073 0.87695-0.44922l-1.7188-5c-2.2202 1.0063-4.5298 1.6426-7 1.5586-3.4462 0-7.2274-1.4139-7.8281-7.3457zm126.41 7.0664c-0.67472 1.0218-1.3232 2.0315-1.9043 3h14.119v-3z" fill="#282828" opacity=".2"/>
  <path d="m57 15c-9.9393 0-17 7.0595-17 17v192c0 9.9393 7.0595 17 17 17h142c9.9405 0 17-7.0607 17-17v-192c0-9.9405-7.0607-17-17-17zm4.0332 5h133.93c9.3746 0 16.033 6.7474 16.033 16.248v183.5c0 9.4995-6.6575 16.248-16.033 16.248h-133.93c-9.3757 0-16.033-6.7486-16.033-16.248v-183.5c0-9.5007 6.6586-16.248 16.033-16.248z" fill="url(#linearGradient23)" style="paint-order:markers fill stroke"/>
</svg>
