<svg width="256" height="256" version="1.1" viewBox="0 0 256 256" xmlns="http://www.w3.org/2000/svg" xmlns:xlink="http://www.w3.org/1999/xlink">
  <defs>
    <linearGradient id="linearGradient47">
      <stop stop-color="#bdae93" offset="0"/>
      <stop stop-color="#ebdbb2" offset=".5"/>
      <stop stop-color="#bdae93" offset="1"/>
    </linearGradient>
    <linearGradient id="linearGradient26" x1="-160" x2="-160" y2="226" gradientTransform="translate(267,15)" gradientUnits="userSpaceOnUse">
      <stop stop-color="#458588" offset="0"/>
      <stop stop-color="#458588" offset="1"/>
    </linearGradient>
    <linearGradient id="linearGradient14-5" x1="128" x2="128" y1="15.001" y2="241" gradientTransform="translate(0,4.8e-4)" gradientUnits="userSpaceOnUse">
      <stop stop-color="#ebdbb2" stop-opacity=".15" offset="0"/>
      <stop stop-color="#ebdbb2" stop-opacity=".05" offset=".2"/>
      <stop stop-opacity="0" offset=".70405"/>
      <stop stop-opacity=".05" offset=".80473"/>
      <stop stop-opacity=".1" offset="1"/>
    </linearGradient>
    <linearGradient id="linearGradient48" x1="87" x2="87" y1="112" y2="121" gradientTransform="translate(-4)" gradientUnits="userSpaceOnUse" xlink:href="#linearGradient47"/>
    <linearGradient id="linearGradient49" x1="87" x2="87" y1="112" y2="121" gradientTransform="matrix(1 0 0 -1 -4 181.92)" gradientUnits="userSpaceOnUse" xlink:href="#linearGradient47"/>
    <linearGradient id="linearGradient52" x1="87" x2="87" y1="112" y2="118" gradientTransform="translate(62.994 -23)" gradientUnits="userSpaceOnUse">
      <stop stop-color="#bdae93" offset="0"/>
      <stop stop-color="#ebdbb2" offset=".5"/>
      <stop stop-color="#bdae93" offset="1"/>
    </linearGradient>
    <linearGradient id="linearGradient53" x1="87" x2="87" y1="115" y2="119" gradientTransform="matrix(1 0 0 -1 62.994 182)" gradientUnits="userSpaceOnUse" xlink:href="#linearGradient47"/>
    <linearGradient id="linearGradient7-6-0-8" x1="186" x2="156" y1="45.006" y2="75.012" gradientTransform="matrix(1.0833,0,0,1.0833,-17.997,-1.2502)" gradientUnits="userSpaceOnUse">
      <stop stop-color="#83a598" offset="0"/>
      <stop stop-color="#458588" offset=".3027"/>
      <stop stop-color="#076678" offset="1"/>
    </linearGradient>
  </defs>
  <path d="m57 15c-9.9393 0-17 7.0595-17 17v192c0 9.9393 7.0595 17 17 17h142c9.9405 0 17-7.0607 17-17v-144l-64.999-64.999z" fill="url(#linearGradient26)" stroke-linecap="round" stroke-linejoin="round" stroke-miterlimit="0" style="paint-order:markers fill stroke"/>
  <path d="m57 241c-9.9393 0-17-7.0595-17-17v-43h176v43c0 9.9405-7.0607 17-17 17z" fill="#83a598" opacity=".7" stroke-linecap="round" stroke-linejoin="round" stroke-miterlimit="0" style="paint-order:markers fill stroke"/>
  <path d="m56.9 220.66c2.9102 0 4.032-0.88355 4.032-2.592 0-1.3798-0.9236-2.3839-5.112-3.78-3.1171-1.1002-6.84-2.6595-6.84-7.38 0-4.6357 3.6348-7.488 9.18-7.488 3.349 0 5.7697 0.84963 7.38 1.728l-1.62 4.428c-1.6863-0.9133-3.5023-1.2965-5.4-1.368-2.6272 0-3.78 0.71849-3.78 2.268 0.17357 2.1083 2.6151 2.7291 4.32 3.312 5.3381 1.9771 7.668 3.6073 7.668 8.316 0 6.083-5.3727 7.344-9.828 7.344-1.8687 0-5.4444-0.24654-8.352-1.908l1.584-4.464c2.0891 1.1845 4.4012 1.5359 6.768 1.584zm25.524 4.788c-10.725 0-12.456-7.8985-12.456-12.996 0-7.8387 5.0193-13.032 12.744-13.032 3.2845 0 6.2046 0.97088 7.704 1.908l-1.62 4.536c-1.458-0.77456-3.5104-1.476-6.156-1.476-1.4911 0-6.84 0.51836-6.84 7.956 0 6.6394 3.7482 8.136 7.128 8.136 2.224 0.0771 4.3008-0.50046 6.3-1.404l1.548 4.5c-2.8836 1.7476-7.1767 1.872-8.352 1.872zm27-25.452h5.616v24.948h-5.616v-10.584h-9.432v10.584h-5.616v-24.948h5.616v9.54h9.432zm26.352 6.552c0 0.81868-0.0246 3.4446-3.888 7.308-1.9224 1.8293-3.8434 3.6473-5.544 5.688-0.288 0.36-0.468 0.66-0.54 0.9h10.728v4.5h-16.632c-0.098-0.61848-0.072-1.2479-0.072-1.872 0-1.152 0.18-2.208 0.54-3.168 1.1368-2.961 3.5384-5.0244 5.76-7.164 1.7244-1.6799 3.8901-3.291 4.176-5.832 0-2.3892-1.7194-2.88-3.132-2.88-2.7554 0-5.1497 2.3417-5.328 2.52l-2.664-3.744c1.2318-1.1478 4.152-3.384 8.208-3.384 7.0206 0 8.388 4.0066 8.388 7.128zm12.96-6.84c11.141 0 11.556 5.8513 11.556 8.388 0 2.9965-0.76544 8.496-11.664 8.496h-1.764v8.352h-5.616v-24.588c2.7025-0.5299 5.802-0.648 7.488-0.648zm0.36 4.788c-0.85627 0-1.6639 0.0607-2.232 0.108v7.2h1.764c5.0999 0 5.868-1.7397 5.868-3.744 0-2.4473-1.6489-3.564-5.4-3.564zm26.712 20.952c-10.725 0-12.456-7.8985-12.456-12.996 0-7.8387 5.0193-13.032 12.744-13.032 3.2845 0 6.2046 0.97088 7.704 1.908l-1.62 4.536c-1.458-0.77456-3.5104-1.476-6.156-1.476-1.4911 0-6.84 0.51836-6.84 7.956 0 6.6394 3.7482 8.136 7.128 8.136 2.224 0.0771 4.3008-0.50046 6.3-1.404l1.548 4.5c-2.8836 1.7476-7.1767 1.872-8.352 1.872zm20.268-0.18c-3.577 0-6.1372-0.25567-8.316-0.72v-24.192c2.5514-0.4784 5.948-0.648 7.596-0.648 5.1685 0 10.872 1.1282 10.872 7.02 0 1.992-0.96 3.564-2.88 4.716 2.7669 0.96442 3.9766 3.1311 4.104 5.94 0 6.133-5.3109 7.884-11.376 7.884zm-2.844-11.196v6.444c0.88273 0.10385 1.8637 0.144 2.916 0.144 2.5475-6e-3 5.3636-0.4145 5.616-3.384 0-0.84625-0.0568-3.204-5.004-3.204zm0-4.284h2.736c3.1181 0 4.824-0.6427 4.824-2.808 0-1.2823-0.51319-2.736-4.536-2.736-1.0093 5e-3 -2.0177 0.0358-3.024 0.108z" fill="#ebdbb2" opacity=".15" aria-label="SCH2PCB"/>
  <path d="m56.9 218.66c2.9102 0 4.032-0.88355 4.032-2.592 0-1.3798-0.9236-2.3839-5.112-3.78-3.1171-1.1002-6.84-2.6595-6.84-7.38 0-4.6357 3.6348-7.488 9.18-7.488 3.349 0 5.7697 0.84963 7.38 1.728l-1.62 4.428c-1.6863-0.9133-3.5023-1.2965-5.4-1.368-2.6272 0-3.78 0.71849-3.78 2.268 0.17357 2.1083 2.6151 2.7291 4.32 3.312 5.3381 1.9771 7.668 3.6073 7.668 8.316 0 6.083-5.3727 7.344-9.828 7.344-1.8687 0-5.4444-0.24654-8.352-1.908l1.584-4.464c2.0891 1.1845 4.4012 1.5359 6.768 1.584zm25.524 4.788c-10.725 0-12.456-7.8985-12.456-12.996 0-7.8387 5.0193-13.032 12.744-13.032 3.2845 0 6.2046 0.97088 7.704 1.908l-1.62 4.536c-1.458-0.77456-3.5104-1.476-6.156-1.476-1.4911 0-6.84 0.51836-6.84 7.956 0 6.6394 3.7482 8.136 7.128 8.136 2.224 0.0771 4.3008-0.50046 6.3-1.404l1.548 4.5c-2.8836 1.7476-7.1767 1.872-8.352 1.872zm27-25.452h5.616v24.948h-5.616v-10.584h-9.432v10.584h-5.616v-24.948h5.616v9.54h9.432zm26.352 6.552c0 0.81868-0.0246 3.4446-3.888 7.308-1.9224 1.8293-3.8434 3.6473-5.544 5.688-0.288 0.36-0.468 0.66-0.54 0.9h10.728v4.5h-16.632c-0.098-0.61848-0.072-1.2479-0.072-1.872 0-1.152 0.18-2.208 0.54-3.168 1.1368-2.961 3.5384-5.0244 5.76-7.164 1.7244-1.6799 3.8901-3.291 4.176-5.832 0-2.3892-1.7194-2.88-3.132-2.88-2.7554 0-5.1497 2.3417-5.328 2.52l-2.664-3.744c1.2318-1.1478 4.152-3.384 8.208-3.384 7.0206 0 8.388 4.0066 8.388 7.128zm12.96-6.84c11.141 0 11.556 5.8513 11.556 8.388 0 2.9965-0.76544 8.496-11.664 8.496h-1.764v8.352h-5.616v-24.588c2.7025-0.5299 5.802-0.648 7.488-0.648zm0.36 4.788c-0.85627 0-1.6639 0.0607-2.232 0.108v7.2h1.764c5.0999 0 5.868-1.7397 5.868-3.744 0-2.4473-1.6489-3.564-5.4-3.564zm26.712 20.952c-10.725 0-12.456-7.8985-12.456-12.996 0-7.8387 5.0193-13.032 12.744-13.032 3.2845 0 6.2046 0.97088 7.704 1.908l-1.62 4.536c-1.458-0.77456-3.5104-1.476-6.156-1.476-1.4911 0-6.84 0.51836-6.84 7.956 0 6.6394 3.7482 8.136 7.128 8.136 2.224 0.0771 4.3008-0.50046 6.3-1.404l1.548 4.5c-2.8836 1.7476-7.1767 1.872-8.352 1.872zm20.268-0.18c-3.577 0-6.1372-0.25567-8.316-0.72v-24.192c2.5514-0.4784 5.948-0.648 7.596-0.648 5.1685 0 10.872 1.1282 10.872 7.02 0 1.992-0.96 3.564-2.88 4.716 2.7669 0.96442 3.9766 3.1311 4.104 5.94 0 6.133-5.3109 7.884-11.376 7.884zm-2.844-11.196v6.444c0.88273 0.10385 1.8637 0.144 2.916 0.144 2.5475-6e-3 5.3636-0.4145 5.616-3.384 0-0.84625-0.0568-3.204-5.004-3.204zm0-4.284h2.736c3.1181 0 4.824-0.6427 4.824-2.808 0-1.2823-0.51319-2.736-4.536-2.736-1.0093 5e-3 -2.0177 0.0358-3.024 0.108z" fill="#076678" aria-label="SCH2PCB"/>
  <path d="m58.159 197.42c-5.5452 0-9.1797 2.8526-9.1797 7.4883 0 0.34978 0.02728 0.67602 0.06641 0.99219 0.49503-4.0354 3.9836-6.4805 9.1133-6.4805 2.9659 0 5.1642 0.673 6.7559 1.4356l0.62305-1.707c-1.6103-0.87837-4.0299-1.7285-7.3789-1.7285zm24.553 0c-7.7247 0-12.744 5.1926-12.744 13.031 0 0.28969 0.03046 0.6141 0.04297 0.91992 0.44442-7.2284 5.3392-11.951 12.701-11.951 2.923 0 5.4964 0.77373 7.0977 1.6035l0.60547-1.6953c-1.4994-0.93712-4.4187-1.9082-7.7031-1.9082zm44.676 0c-4.056 0-6.9772 2.237-8.209 3.3848l0.89843 1.2617c1.4955-1.1728 3.9935-2.6465 7.3106-2.6465 6.2441 0 8.0066 3.1673 8.3223 6.0644 0.0612-0.41649 0.0644-0.73256 0.0644-0.93555 0-3.1214-1.3662-7.1289-8.3867-7.1289zm48.707 0c-7.7247 0-12.744 5.1926-12.744 13.031 0 0.29152 0.0303 0.61794 0.043 0.92578 0.44213-7.2317 5.3372-11.957 12.701-11.957 2.923 0 5.4983 0.77373 7.0996 1.6035l0.60547-1.6953c-1.4994-0.93712-4.4206-1.9082-7.7051-1.9082zm-27.359 0.28906c-1.686 0-4.7858 0.11659-7.4883 0.64649v2c2.7025-0.5299 5.8023-0.64649 7.4883-0.64649 9.7483 0 11.284 4.4794 11.516 7.2988 0.0208-0.31537 0.041-0.63357 0.041-0.91211 0-2.5367-0.41568-8.3867-11.557-8.3867zm46.619 0c-1.648 0-5.0442 0.16809-7.5957 0.64649v2c2.5514-0.4784 5.9477-0.64649 7.5957-0.64649 4.8261 0 10.115 0.98522 10.795 5.9121 0.0463-0.28894 0.0781-0.58341 0.0781-0.89258 0-5.8918-5.7045-7.0195-10.873-7.0195zm-100.98 0.28711v2h5.6152v-2zm15.047 0v2h5.6152v-2zm-54.408 7.3965c-0.1801 0.3023-0.27539 0.65897-0.27539 1.084 0.17357 2.1083 2.6155 2.7296 4.3203 3.3125 4.9632 1.8382 7.2981 3.4087 7.6055 7.4004 0.04044-0.34338 0.0625-0.70575 0.0625-1.0859 0-4.7087-2.3299-6.3374-7.668-8.3144-1.4233-0.48664-3.3431-1.0135-4.0449-2.3965zm75.105 0.38477c-0.61788 2.0546-2.4737 3.4836-3.9922 4.9629-2.2216 2.1396-4.6249 4.2031-5.7617 7.1641-0.36 0.96-0.53907 2.016-0.53907 3.168 1e-5 0.49422 1e-3 0.98962 0.043 1.4824 0.0475-0.94666 0.19236-1.8404 0.4961-2.6504 1.1368-2.961 3.5401-5.0245 5.7617-7.1641 1.7244-1.6799 3.8899-3.291 4.1758-5.832 0-0.44622-0.0769-0.80791-0.1836-1.1309zm70.5 0.18164c-0.48191 1.3749-2.0752 1.8301-4.6523 1.8301h-2.7363v2h2.7363c3.1181 0 4.8242-0.64329 4.8242-2.8086 0-0.33905-0.0447-0.68852-0.17188-1.0215zm-46.236 1.1426c-0.32127 1.5264-1.5735 2.7031-5.7559 2.7031h-1.7656v2h1.7656c5.0999 0 5.8672-1.7399 5.8672-3.7441 0-0.34898-0.043-0.66349-0.11132-0.95898zm-54.393 0.43359v2h9.4316v-2zm104.88 2.6816c-0.41572 0.44963-0.91672 0.86136-1.5254 1.2266 2.4936 0.86916 3.7137 2.7206 4.0254 5.1328 0.0482-0.37913 0.0781-0.77216 0.0781-1.1914-0.10071-2.2197-0.89137-4.0267-2.5781-5.168zm-129.03 1.2461c-0.01809 0.28771-0.04102 0.56934-0.04102 0.88086 0 6.6394 3.7471 8.1367 7.127 8.1367 2.224 0.0771 4.3016-0.50076 6.3008-1.4043l0.96289 2.7988c0.1953-0.0991 0.39908-0.18677 0.58398-0.29883l-1.5469-4.5c-1.9992 0.90354-4.0768 1.4814-6.3008 1.4043-3.1804 0-6.6832-1.329-7.0859-7.0176zm93.383 0c-0.0181 0.28771-0.041 0.56934-0.041 0.88086 0 6.6394 3.7491 8.1367 7.1289 8.1367 2.224 0.0771 4.2997-0.50076 6.2988-1.4043l0.96289 2.7988c0.19584-0.0993 0.40054-0.18647 0.58594-0.29883l-1.5488-4.5c-1.9992 0.90354-4.0748 1.4814-6.2988 1.4043-3.1804 0-6.6852-1.329-7.0879-7.0176zm32.355 4.6894c-0.69554 2.1658-3.1639 2.5025-5.4316 2.5078-1.0523 0-2.0333-0.0407-2.916-0.14453v2c0.88273 0.10385 1.8637 0.14453 2.916 0.14453 2.5475-6e-3 5.3629-0.41526 5.6152-3.3848 0-0.26486-0.0243-0.68069-0.18359-1.123zm-151.45 0.92383-1.584 4.4648c0.19623 0.11213 0.39998 0.20314 0.60156 0.30274l0.98242-2.7676c2.0891 1.1845 4.4008 1.5359 6.7676 1.584 2.9102 0 4.0312-0.88334 4.0312-2.5918 0-0.33347-0.05632-0.6449-0.19727-0.94532-0.42893 1.0127-1.6023 1.5371-3.834 1.5371-2.3668-0.0481-4.6785-0.39944-6.7676-1.584zm77.18 1.3672c-0.32699 0.3624-0.65536 0.72549-0.96875 1.1016-0.288 0.36-0.46706 0.65844-0.53906 0.89844h10.727v-2z" fill="#282828" opacity=".2"/>
  <path d="m85 33c-3.3137 0-6 2.6863-6 6s2.6863 6 6 6c2.5224-0.0233 4.7608-1.6217 5.6016-4h1.5703l8.8281 8.8281v102l6 6v5.5918c-1.7672 0.76947-3 2.5233-3 4.5801v13h10v-13c0-2.0568-1.2328-3.8106-3-4.5801v-7.248l-6-6v-102l-7.1719-7.1719h3.3438l6.8281 6.8281v95l18 18v2.5918c-1.7672 0.76947-3 2.5233-3 4.5801v13h10v-13c0-2.0568-1.2328-3.8106-3-4.5801v-4.248l-18-18v-95l-5.1719-5.1719h3.3438l4.8281 4.8281v85l30 30v2.5918c-1.7672 0.76947-3 2.5233-3 4.5801v13h10v-13c0-2.0568-1.2328-3.8106-3-4.5801v-4.248l-30-30v-85l-7.1719-7.1719h-21.182c-0.84629-2.3937-3.1076-3.9956-5.6465-4zm0 4c1.1046 0 2 0.89543 2 2 0 1.1046-0.89543 2-2 2s-2-0.89543-2-2c0-1.1046 0.89543-2 2-2zm-17 7c-3.3137 0-6 2.6863-6 6s2.6863 6 6 6c2.5224-0.0233 4.7608-1.6217 5.6016-4h6.3984v82.9l-7.8516 7.8516-9.6172 0.27149-12.531 12.129v8.2676c-1.7672 0.76947-3 2.5233-3 4.5801v13h10v-13c0-2.0568-1.2328-3.8106-3-4.5801v-6.5723l10.195-9.8711 9.6562-0.27148 10.148-10.148v-84.557h3v89.172l-18 18v4.248c-1.7672 0.76947-3 2.5233-3 4.5801v13h10v-13c0-2.0568-1.2328-3.8106-3-4.5801v-2.5918l18-18v-90.828h0.17188l2.8281 2.8281v89.344l-6 6v13.248c-1.7672 0.76947-3 2.5233-3 4.5801v13h10v-13c0-2.0568-1.2328-3.8106-3-4.5801v-11.592l6-6v-92.656l-5.1719-5.1719h-19.182c-0.84629-2.3937-3.1076-3.9956-5.6465-4zm0 4c1.1046 0 2 0.89543 2 2s-0.89543 2-2 2-2-0.89543-2-2 0.89543-2 2-2zm130 48c-3.3137 0-6 2.6863-6 6s2.6863 6 6 6 6-2.6863 6-6-2.6863-6-6-6zm0 4c1.1046 0 2 0.89543 2 2s-0.89543 2-2 2-2-0.89543-2-2 0.89543-2 2-2zm-44 11c-3.3137 0-6 2.6863-6 6 0.0233 2.5224 1.6217 4.7608 4 5.6016v3.2266l12 12v25.592c-1.7672 0.76947-3 2.5233-3 4.5801v13h10v-13c0-2.0568-1.2328-3.8106-3-4.5801v-27.248l-12-12v-1.5703c2.3783-0.84072 3.9767-3.0792 4-5.6016 0-3.3137-2.6863-6-6-6zm20 0c-3.3137 0-6 2.6863-6 6 0.0233 2.5224 1.6217 4.7608 4 5.6016v3.2266l5.1719 5.1719h17.656l5.1719-5.1719v-3.2266c2.3783-0.84072 3.9767-3.0792 4-5.6016 0-3.3137-2.6863-6-6-6s-6 2.6863-6 6c0.0233 2.5224 1.6217 4.7608 4 5.6016v1.5703l-2.8281 2.8281h-14.344l-2.8281-2.8281v-1.5703c2.3783-0.84072 3.9767-3.0792 4-5.6016 0-3.3137-2.6863-6-6-6zm-20 4c1.1046 0 2 0.89543 2 2s-0.89543 2-2 2-2-0.89543-2-2 0.89543-2 2-2zm20 0c1.1046 0 2 0.89543 2 2s-0.89543 2-2 2-2-0.89543-2-2 0.89543-2 2-2zm24 0c1.1046 0 2 0.89543 2 2s-0.89543 2-2 2-2-0.89543-2-2 0.89543-2 2-2zm-13 48c-2.77 0-5 2.23-5 5v13h10v-13c0-2.77-2.23-5-5-5zm19 0c-2.77 0-5 2.23-5 5v13h10v-13c0-2.77-2.23-5-5-5z" fill="#282828" opacity=".2" stroke-linecap="round" stroke-linejoin="round" stroke-miterlimit="0" stroke-width=".6474" style="paint-order:markers fill stroke"/>
  <path d="m85 32c-3.3137 0-6 2.6863-6 6s2.6863 6 6 6c2.5224-0.02328 4.7608-1.6217 5.6016-4h1.5703l8.8281 8.8281v102l6 6v5.5918c-1.7672 0.76947-3 2.5233-3 4.5801v14h10v-14c0-2.0568-1.2328-3.8106-3-4.5801v-7.248l-6-6v-102l-7.1719-7.1719h3.3438l6.8281 6.8281v95l18 18v2.5918c-1.7672 0.76947-3 2.5233-3 4.5801v14h10v-14c0-2.0568-1.2328-3.8106-3-4.5801v-4.248l-18-18v-95l-5.1719-5.1719h3.3438l4.8281 4.8281v85l30 30v2.5918c-1.7672 0.76947-3 2.5233-3 4.5801v14h10v-14c0-2.0568-1.2328-3.8106-3-4.5801v-4.248l-30-30v-85l-7.1719-7.1719h-21.182c-0.84629-2.3937-3.1076-3.9956-5.6465-4zm0 4c1.1046 0 2 0.89543 2 2s-0.89543 2-2 2-2-0.89543-2-2 0.89543-2 2-2zm-17 7c-3.3137 0-6 2.6863-6 6s2.6863 6 6 6c2.5224-0.02328 4.7608-1.6217 5.6016-4h6.3984v82.9l-7.8516 7.8516-9.6172 0.27149-12.531 12.129v8.2676c-1.7672 0.76947-3 2.5233-3 4.5801v14h10v-14c0-2.0568-1.2328-3.8106-3-4.5801v-6.5723l10.195-9.8711 9.6562-0.27148 10.148-10.148v-84.557h3v89.172l-18 18v4.248c-1.7672 0.76947-3 2.5233-3 4.5801v14h10v-14c0-2.0568-1.2328-3.8106-3-4.5801v-2.5918l18-18v-90.828h0.17188l2.8281 2.8281v89.344l-6 6v13.248c-1.7672 0.76947-3 2.5233-3 4.5801v14h10v-14c0-2.0568-1.2328-3.8106-3-4.5801v-11.592l6-6v-92.656l-5.1719-5.1719h-19.182c-0.84629-2.3937-3.1076-3.9956-5.6465-4zm0 4c1.1046 0 2 0.89543 2 2s-0.89543 2-2 2-2-0.89543-2-2 0.89543-2 2-2zm130 48c-3.3137 0-6 2.6863-6 6s2.6863 6 6 6 6-2.6863 6-6-2.6863-6-6-6zm0 4c1.1046 0 2 0.89543 2 2s-0.89543 2-2 2-2-0.89543-2-2 0.89543-2 2-2zm-44 11c-3.3137 0-6 2.6863-6 6 0.0233 2.5224 1.6217 4.7608 4 5.6016v3.2266l12 12v25.592c-1.7672 0.76947-3 2.5233-3 4.5801v14h10v-14c0-2.0568-1.2328-3.8106-3-4.5801v-27.248l-12-12v-1.5703c2.3783-0.84072 3.9767-3.0792 4-5.6016 0-3.3137-2.6863-6-6-6zm20 0c-3.3137 0-6 2.6863-6 6 0.0233 2.5224 1.6217 4.7608 4 5.6016v3.2266l5.1719 5.1719h17.656l5.1719-5.1719v-3.2266c2.3783-0.84072 3.9767-3.0792 4-5.6016 0-3.3137-2.6863-6-6-6s-6 2.6863-6 6c0.0233 2.5224 1.6217 4.7608 4 5.6016v1.5703l-2.8281 2.8281h-14.344l-2.8281-2.8281v-1.5703c2.3783-0.84072 3.9767-3.0792 4-5.6016 0-3.3137-2.6863-6-6-6zm-20 4c1.1046 0 2 0.89543 2 2s-0.89543 2-2 2-2-0.89543-2-2 0.89543-2 2-2zm20 0c1.1046 0 2 0.89543 2 2s-0.89543 2-2 2-2-0.89543-2-2 0.89543-2 2-2zm24 0c1.1046 0 2 0.89543 2 2s-0.89543 2-2 2-2-0.89543-2-2 0.89543-2 2-2zm-13 48c-2.77 0-5 2.23-5 5v14h10v-14c0-2.77-2.23-5-5-5zm19 0c-2.77 0-5 2.23-5 5v14h10v-14c0-2.77-2.23-5-5-5z" fill="#fabd2f" stroke-linecap="round" stroke-linejoin="round" stroke-miterlimit="0" stroke-width=".6474" style="paint-order:markers fill stroke"/>
  <path d="m85 32c-3.3137 0-6 2.6863-6 6 0 0.17133 0.0367 0.33231 0.0508 0.5 0.2582-3.0756 2.8068-5.5 5.9492-5.5 2.5389 0.0044 4.8002 1.6063 5.6465 4h21.182l7.1719 7.1719v-1l-7.1719-7.1719h-21.182c-0.84629-2.3937-3.1076-3.9956-5.6465-4zm-1.9004 6.5c-0.04322 0.16354-0.09961 0.32287-0.09961 0.5 0 1.1046 0.89543 2 2 2s2-0.89543 2-2c0-0.17713-0.0564-0.33646-0.0996-0.5-0.22631 0.8563-0.97295 1.5-1.9004 1.5s-1.6741-0.6437-1.9004-1.5zm14.729 2.5 7.1719 7.1719v-1l-6.1719-6.1719zm9 0 5.1719 5.1719v-1l-4.1719-4.1719zm-38.83 2c-3.3128 0.0011-5.998 2.687-5.998 6 0 0.17133 0.0367 0.33231 0.0508 0.5 0.25815-3.075 2.8058-5.499 5.9473-5.5h0.00193c2.5381 0.0052 4.7985 1.6069 5.6445 4h19.184l5.1719 5.1719v-1l-5.1719-5.1719h-19.184c-0.84607-2.3931-3.1064-3.9948-5.6445-4zm-1.8984 6.5c-0.04322 0.16354-0.09961 0.32287-0.09961 0.5 0 1.1046 0.89543 2 2 2s2-0.89543 2-2c0-0.17713-0.0564-0.33646-0.0996-0.5-0.22631 0.8563-0.97295 1.5-1.9004 1.5s-1.6741-0.6437-1.9004-1.5zm131.9 45.5c-3.3137 0-6 2.6863-6 6 0 0.17133 0.0367 0.33231 0.0508 0.5 0.2582-3.0756 2.8068-5.5 5.9492-5.5s5.691 2.4244 5.9492 5.5c0.0141-0.16769 0.0508-0.32867 0.0508-0.5 0-3.3137-2.6863-6-6-6zm-1.9004 6.5c-0.0432 0.16354-0.0996 0.32287-0.0996 0.5 0 1.1046 0.89543 2 2 2s2-0.89543 2-2c0-0.17713-0.0564-0.33646-0.0996-0.5-0.22631 0.8563-0.97295 1.5-1.9004 1.5s-1.6741-0.6437-1.9004-1.5zm-42.1 8.5c-3.3137 0-6 2.6863-6 6 2e-3 0.18218 0.0291 0.35832 0.0469 0.53711 0.24033-3.0934 2.798-5.5371 5.9531-5.5371 3.1558 0 5.7137 2.4447 5.9531 5.5391 0.0179-0.17906 0.0452-0.35661 0.0469-0.53906 0-3.3137-2.6863-6-6-6zm20 0c-3.3137 0-6 2.6863-6 6 2e-3 0.18218 0.0291 0.35832 0.0469 0.53711 0.24033-3.0934 2.798-5.5371 5.9531-5.5371 3.1544 0 5.7119 2.4426 5.9531 5.5352 0.0177-0.17814 0.0452-0.35367 0.0469-0.53516 0-3.3137-2.6863-6-6-6zm24 0c-3.3137 0-6 2.6863-6 6 2e-3 0.18218 0.0291 0.35832 0.0469 0.53711 0.24033-3.0934 2.798-5.5371 5.9531-5.5371 3.1544 0 5.7119 2.4426 5.9531 5.5352 0.0177-0.17814 0.0452-0.35367 0.0469-0.53516 0-3.3137-2.6863-6-6-6zm-45.9 6.5c-0.0432 0.16354-0.0996 0.32287-0.0996 0.5 0 1.1046 0.89543 2 2 2s2-0.89543 2-2c0-0.17713-0.0564-0.33646-0.0996-0.5-0.22631 0.8563-0.97295 1.5-1.9004 1.5s-1.6741-0.6437-1.9004-1.5zm20 0c-0.0432 0.16354-0.0996 0.32287-0.0996 0.5 0 1.1046 0.89543 2 2 2s2-0.89543 2-2c0-0.17713-0.0564-0.33646-0.0996-0.5-0.22631 0.8563-0.97295 1.5-1.9004 1.5s-1.6741-0.6437-1.9004-1.5zm24 0c-0.0432 0.16354-0.0996 0.32287-0.0996 0.5 0 1.1046 0.89543 2 2 2s2-0.89543 2-2c0-0.17713-0.0564-0.33646-0.0996-0.5-0.22631 0.8563-0.97295 1.5-1.9004 1.5s-1.6741-0.6437-1.9004-1.5zm-40.1 6.6719v1l12 12v-1zm20 0v1l2.8281 2.8281h14.344l2.8281-2.8281v-1l-2.8281 2.8281h-14.344zm-57 5v1l30 30v-1zm-39 5.7285-7.8516 7.8516-9.6172 0.27149-12.531 12.129v1l12.531-12.129 9.6172-0.27149 7.8516-7.8516zm7 6.2715-18 18v1l18-18zm25 0v1l18 18v-1zm-18 3-6 6v1l6-6zm11 6v1l6 6v-1zm80 12.828c-2.77 0-5 2.23-5 5v1c0-2.77 2.23-5 5-5s5 2.23 5 5v-1c0-2.77-2.23-5-5-5zm19 0c-2.77 0-5 2.23-5 5v1c0-2.77 2.23-5 5-5s5 2.23 5 5v-1c0-2.77-2.23-5-5-5zm-154 0.41992c-1.7672 0.76947-3 2.5233-3 4.5801v1c0-2.0568 1.2328-3.8106 3-4.5801zm4 0v1c1.7672 0.7695 3 2.5233 3 4.5801v-1c0-2.0568-1.2328-3.8106-3-4.5801zm15 0c-1.7672 0.76947-3 2.5233-3 4.5801v1c0-2.0568 1.2328-3.8106 3-4.5801zm4 0v1c1.7672 0.7695 3 2.5233 3 4.5801v-1c0-2.0568-1.2328-3.8106-3-4.5801zm15 0c-1.7672 0.76947-3 2.5233-3 4.5801v1c0-2.0568 1.2328-3.8106 3-4.5801zm4 0v1c1.7672 0.7695 3 2.5233 3 4.5801v-1c0-2.0568-1.2328-3.8106-3-4.5801zm15 0c-1.7672 0.76947-3 2.5233-3 4.5801v1c0-2.0568 1.2328-3.8106 3-4.5801zm4 0v1c1.7672 0.7695 3 2.5233 3 4.5801v-1c0-2.0568-1.2328-3.8106-3-4.5801zm15 0c-1.7672 0.76947-3 2.5233-3 4.5801v1c0-2.0568 1.2328-3.8106 3-4.5801zm4 0v1c1.7672 0.7695 3 2.5233 3 4.5801v-1c0-2.0568-1.2328-3.8106-3-4.5801zm15 0c-1.7672 0.76947-3 2.5233-3 4.5801v1c0-2.0568 1.2328-3.8106 3-4.5801zm4 0v1c1.7672 0.7695 3 2.5233 3 4.5801v-1c0-2.0568-1.2328-3.8106-3-4.5801zm15 0c-1.7672 0.76947-3 2.5233-3 4.5801v1c0-2.0568 1.2328-3.8106 3-4.5801zm4 0v1c1.7672 0.7695 3 2.5233 3 4.5801v-1c0-2.0568-1.2328-3.8106-3-4.5801z" fill="#ebdbb2" opacity=".2" style="paint-order:markers fill stroke"/>
  <rect x="73" y="70" width="53" height="44" ry="6" fill="#3c3836" style="paint-order:markers fill stroke"/>
  <path d="m80 69.92v-7c0-1.108 0.892-2 2-2s2 0.892 2 2v7zm7 0v-7c0-1.108 0.892-2 2-2s2 0.892 2 2v7zm7 0v-7c0-1.108 0.892-2 2-2s2 0.892 2 2v7zm7 0v-7c0-1.108 0.892-2 2-2s2 0.892 2 2v7zm7 0v-7c0-1.108 0.892-2 2-2s2 0.892 2 2v7zm7 0v-7c0-1.108 0.892-2 2-2s2 0.892 2 2v7z" fill="url(#linearGradient49)" style="paint-order:markers fill stroke"/>
  <path d="m82 60.92c-1.108 0-2 0.892-2 2v1.0801c0-1.108 0.892-2 2-2s2 0.892 2 2v-1.0801c0-1.108-0.892-2-2-2zm7 0c-1.108 0-2 0.892-2 2v1.0801c0-1.108 0.892-2 2-2s2 0.892 2 2v-1.0801c0-1.108-0.892-2-2-2zm7 0c-1.108 0-2 0.892-2 2v1.0801c0-1.108 0.892-2 2-2s2 0.892 2 2v-1.0801c0-1.108-0.892-2-2-2zm7 0c-1.108 0-2 0.892-2 2v1.0801c0-1.108 0.892-2 2-2s2 0.892 2 2v-1.0801c0-1.108-0.892-2-2-2zm7 0c-1.108 0-2 0.892-2 2v1.0801c0-1.108 0.892-2 2-2s2 0.892 2 2v-1.0801c0-1.108-0.892-2-2-2zm7 0c-1.108 0-2 0.892-2 2v1.0801c0-1.108 0.892-2 2-2s2 0.892 2 2v-1.0801c0-1.108-0.892-2-2-2z" fill="#ebdbb2" opacity=".5" style="paint-order:markers fill stroke"/>
  <rect x="73" y="66" width="53" height="44" ry="6" fill="#504945" style="paint-order:markers fill stroke"/>
  <path d="m79 76h28v4h-28zm0 8h15v8h-15zm17 0h20v8h-20z" fill="#ebdbb2" opacity=".5" stroke-width="1.8314"/>
  <path d="m79 75h28v4h-28zm0 8h15v8h-15zm17 0h20v8h-20z" fill="#928374" stroke-width="1.8314"/>
  <path d="m79 75v1h28v-1zm0 8v1h15v-1zm17 0v1h20v-1z" fill="#282828" opacity=".2"/>
  <path d="m80 113v7c0 1.108 0.892 2 2 2s2-0.892 2-2v-7zm7 0v7c0 1.108 0.892 2 2 2s2-0.892 2-2v-7zm7 0v7c0 1.108 0.892 2 2 2s2-0.892 2-2v-7zm7 0v7c0 1.108 0.892 2 2 2s2-0.892 2-2v-7zm7 0v7c0 1.108 0.892 2 2 2s2-0.892 2-2v-7zm7 0v7c0 1.108 0.892 2 2 2s2-0.892 2-2v-7z" fill="#282828" opacity=".2" style="paint-order:markers fill stroke"/>
  <path d="m80 112v7c0 1.108 0.892 2 2 2s2-0.892 2-2v-7zm7 0v7c0 1.108 0.892 2 2 2s2-0.892 2-2v-7zm7 0v7c0 1.108 0.892 2 2 2s2-0.892 2-2v-7zm7 0v7c0 1.108 0.892 2 2 2s2-0.892 2-2v-7zm7 0v7c0 1.108 0.892 2 2 2s2-0.892 2-2v-7zm7 0v7c0 1.108 0.892 2 2 2s2-0.892 2-2v-7z" fill="url(#linearGradient48)" style="paint-order:markers fill stroke"/>
  <rect x="143.01" y="68.012" width="25.988" height="21.988" ry="4" fill="#3c3836" style="paint-order:markers fill stroke"/>
  <path d="m146.99 90v4c0 1.108 0.892 2 2 2s2-0.892 2-2v-4zm7 0v4c0 1.108 0.892 2 2 2s2-0.892 2-2v-4zm7 0v4c0 1.108 0.892 2 2 2s2-0.892 2-2v-4z" fill="#282828" opacity=".2" style="paint-order:markers fill stroke"/>
  <path d="m146.99 89v4c0 1.108 0.892 2 2 2s2-0.892 2-2v-4zm7 0v4c0 1.108 0.892 2 2 2s2-0.892 2-2v-4zm7 0v4c0 1.108 0.892 2 2 2s2-0.892 2-2v-4z" fill="url(#linearGradient52)" style="paint-order:markers fill stroke"/>
  <path d="m146.99 67v-2c0-1.108 0.892-2 2-2s2 0.892 2 2v2zm7 0v-2c0-1.108 0.892-2 2-2s2 0.892 2 2v2zm7 0v-2c0-1.108 0.892-2 2-2s2 0.892 2 2v2z" fill="url(#linearGradient53)" style="paint-order:markers fill stroke"/>
  <path d="m148.99 63c-1.108 0-2 0.892-2 2v2h0.01v-1c0-1.108 0.892-2 2-2 1.0388 0 1.8882 0.78396 1.9902 1.7949v-0.79492c0-1.108-0.892-2-2-2zm7 0c-1.108 0-2 0.892-2 2v2h0.01v-1c0-1.108 0.892-2 2-2 1.0388 0 1.8882 0.78396 1.9902 1.7949v-0.79492c0-1.108-0.892-2-2-2zm7 0c-1.108 0-2 0.892-2 2v2h0.01v-1c0-1.108 0.892-2 2-2 1.0388 0 1.8882 0.78396 1.9902 1.7949v-0.79492c0-1.108-0.892-2-2-2z" fill="#ebdbb2" opacity=".5" style="paint-order:markers fill stroke"/>
  <rect x="143" y="66" width="25.988" height="21.988" ry="4" fill="#504945" style="paint-order:markers fill stroke"/>
  <path d="m146 71h15v4h-15zm0 7h8v4h-8z" fill="#ebdbb2" opacity=".5" stroke-width="1.8314"/>
  <path d="m145.99 70h15v4h-15zm0 7h8v4h-8z" fill="#928374" stroke-width="1.8314"/>
  <path d="m145.99 70v4h6e-3v-3h14.994v-1zm0 7v4h6e-3v-3h7.994v-1z" fill="#282828" opacity=".2"/>
  <path d="m57 15c-9.9393 0-17 7.0595-17 17v192c0 9.9393 7.0595 17 17 17h142c9.9405 0 17-7.0607 17-17v-144l-65-64.998zm4.0332 4.9902 89.967 2e-3 60 60.009v139.75c0 9.4999-6.6575 16.248-16.033 16.248h-133.93c-9.3757 0-16.033-6.7481-16.033-16.248v-183.51c0-9.501 6.6586-16.25 16.033-16.25z" fill="url(#linearGradient14-5)" style="paint-order:markers fill stroke"/>
  <path d="m151 15.002v52.914c0 9.6525 7.8639 17.084 17.518 17.084l47.482-1.34e-4v-5z" fill="#282828" opacity=".3" stroke-width="1.0833"/>
  <path d="m151 15.001v47.916c0 9.6525 7.8639 17.084 17.518 17.084l47.482-1.34e-4z" fill="url(#linearGradient7-6-0-8)" stroke-width="1.0833"/>
</svg>
