<svg width="256" height="256" version="1.1" viewBox="0 0 256 256" xmlns="http://www.w3.org/2000/svg">
  <defs>
    <linearGradient id="linearGradient7-6-0" x1="186" x2="156" y1="45.006" y2="75.012" gradientTransform="matrix(1.0833,0,0,1.0833,-17.997,-1.2506)" gradientUnits="userSpaceOnUse">
      <stop stop-color="#83a598" offset="0"/>
      <stop stop-color="#458588" offset=".3027"/>
      <stop stop-color="#076678" offset="1"/>
    </linearGradient>
    <linearGradient id="linearGradient14-5" x1="128" x2="128" y1="15.001" y2="241" gradientTransform="translate(0,4.8e-4)" gradientUnits="userSpaceOnUse">
      <stop stop-color="#ebdbb2" stop-opacity=".15" offset="0"/>
      <stop stop-color="#ebdbb2" stop-opacity=".05" offset=".2"/>
      <stop stop-opacity="0" offset=".70405"/>
      <stop stop-opacity=".1" offset=".80473"/>
      <stop stop-opacity=".15" offset="1"/>
    </linearGradient>
    <linearGradient id="linearGradient15" x1="104" x2="104" y1="15.001" y2="241" gradientUnits="userSpaceOnUse">
      <stop stop-color="#458588" offset="0"/>
      <stop stop-color="#83a598" offset="1"/>
    </linearGradient>
  </defs>
  <path d="m57 15c-9.9393 0-17 7.0595-17 17v192c0 9.9393 7.0595 17 17 17h142c9.9405 0 17-7.0607 17-17v-144l-64.999-64.999z" fill="url(#linearGradient15)" stroke-linecap="round" stroke-linejoin="round" stroke-miterlimit="0" style="paint-order:markers fill stroke"/>
  <path d="m57 241c-9.9393 0-17-7.0595-17-17v-43h176v43c0 9.9405-7.0607 17-17 17z" fill="#076678" opacity=".3" stroke-linecap="round" stroke-linejoin="round" stroke-miterlimit="0" style="paint-order:markers fill stroke"/>
  <path d="m96.94 200c2.8077 5.364 5.1623 10.948 7.52 16.52 2.3568-5.5724 4.6676-11.178 7.52-16.52h5.68c1.2019 9.1934 1.7322 18.464 2.2 27.72h-6.08c-0.20884-7.0309-0.45108-12.726-0.92-18.4-2.144 4.9499-4.2446 9.918-6.36 14.88h-4.36c-2.1341-4.9541-4.2337-9.9226-6.36-14.88-0.46892 5.6739-0.71116 11.369-0.92 18.4h-6.08c0.61669-12.642 1.2396-21.093 2.2-27.72zm36.08 22.96c3.2335 0 4.48-0.98172 4.48-2.88 0-1.533-1.0262-2.6487-5.68-4.2-3.4634-1.2224-7.6-2.955-7.6-8.2 0-5.1508 4.0386-8.32 10.2-8.32 3.7211 0 6.4107 0.94404 8.2 1.92l-1.8 4.92c-1.873-0.99727-3.8907-1.4678-6-1.52-2.9192 0-4.2 0.79833-4.2 2.52 0.24727 2.3866 2.8628 3.0035 4.8 3.68 5.9312 2.1967 8.52 4.0081 8.52 9.24 0 6.7588-5.9696 8.16-10.92 8.16-2.0763 0-6.0494-0.27394-9.28-2.12l1.76-4.96c2.3212 1.3162 4.8902 1.7066 7.52 1.76zm23.28 0c3.2335 0 4.48-0.98172 4.48-2.88 0-1.533-1.0262-2.6487-5.68-4.2-3.4634-1.2224-7.6-2.955-7.6-8.2 0-5.1508 4.0386-8.32 10.2-8.32 3.7211 0 6.4107 0.94404 8.2 1.92l-1.8 4.92c-1.873-0.99727-3.8907-1.4678-6-1.52-2.9192 0-4.2 0.79833-4.2 2.52 0.24727 2.3866 2.8628 3.0035 4.8 3.68 5.9312 2.1967 8.52 4.0081 8.52 9.24 0 6.7588-5.9696 8.16-10.92 8.16-2.0763 0-6.0494-0.27394-9.28-2.12l1.76-4.96c2.3212 1.3162 4.8902 1.7066 7.52 1.76z" fill="#ebdbb2" opacity=".15" aria-label="MSS"/>
  <path d="m96.94 197c2.8077 5.364 5.1623 10.948 7.52 16.52 2.3568-5.5724 4.6676-11.178 7.52-16.52h5.68c1.2019 9.1934 1.7322 18.464 2.2 27.72h-6.08c-0.20884-7.0309-0.45108-12.726-0.92-18.4-2.144 4.9499-4.2446 9.918-6.36 14.88h-4.36c-2.1341-4.9541-4.2337-9.9226-6.36-14.88-0.46892 5.6739-0.71116 11.369-0.92 18.4h-6.08c0.61669-12.642 1.2396-21.093 2.2-27.72zm36.08 22.96c3.2335 0 4.48-0.98172 4.48-2.88 0-1.533-1.0262-2.6487-5.68-4.2-3.4634-1.2224-7.6-2.955-7.6-8.2 0-5.1508 4.0386-8.32 10.2-8.32 3.7211 0 6.4107 0.94404 8.2 1.92l-1.8 4.92c-1.873-0.99727-3.8907-1.4678-6-1.52-2.9192 0-4.2 0.79833-4.2 2.52 0.24727 2.3866 2.8628 3.0035 4.8 3.68 5.9312 2.1967 8.52 4.0081 8.52 9.24 0 6.7588-5.9696 8.16-10.92 8.16-2.0763 0-6.0494-0.27394-9.28-2.12l1.76-4.96c2.3212 1.3162 4.8902 1.7066 7.52 1.76zm23.28 0c3.2335 0 4.48-0.98172 4.48-2.88 0-1.533-1.0262-2.6487-5.68-4.2-3.4634-1.2224-7.6-2.955-7.6-8.2 0-5.1508 4.0386-8.32 10.2-8.32 3.7211 0 6.4107 0.94404 8.2 1.92l-1.8 4.92c-1.873-0.99727-3.8907-1.4678-6-1.52-2.9192 0-4.2 0.79833-4.2 2.52 0.24727 2.3866 2.8628 3.0035 4.8 3.68 5.9312 2.1967 8.52 4.0081 8.52 9.24 0 6.7588-5.9696 8.16-10.92 8.16-2.0763 0-6.0494-0.27394-9.28-2.12l1.76-4.96c2.3212 1.3162 4.8902 1.7066 7.52 1.76z" fill="#076678" aria-label="MSS"/>
  <path d="m134.42 196.36c-6.1614 0-10.199 3.1696-10.199 8.3203 0 0.53726 0.0531 1.0293 0.13477 1.4961 0.72159-4.2518 4.5312-6.8144 10.064-6.8144 3.1296 0 5.5212 0.67 7.2695 1.4629l0.92969-2.5449c-1.7893-0.97596-4.4781-1.9199-8.1992-1.9199zm23.279 0c-6.1614 0-10.199 3.1696-10.199 8.3203 0 0.53726 0.0531 1.0293 0.13477 1.4961 0.72159-4.2518 4.5312-6.8144 10.064-6.8144 3.1288 0 5.5212 0.67023 7.2695 1.4629l0.93165-2.5449c-1.7893-0.97596-4.4801-1.9199-8.2012-1.9199zm-66.719 0.64063c-0.96038 6.6266-1.5845 15.078-2.2012 27.721h0.16016c0.56692-10.914 1.1632-18.661 2.041-24.719h5.959c2.8077 5.364 5.1638 10.948 7.5215 16.52 2.3568-5.5724 4.6672-11.177 7.5195-16.52h5.6797c1.072 8.1997 1.6034 16.461 2.0391 24.719h0.16017c-0.46781-9.2559-0.99734-18.527-2.1992-27.721h-5.6797c-2.8524 5.3425-5.1628 10.947-7.5195 16.52-2.3577-5.5719-4.7138-11.156-7.5215-16.52zm63.477 8.6504c-0.37777 0.39228-0.55663 0.90625-0.55663 1.5508 0.24726 2.3866 2.8616 3.0052 4.7988 3.6816 5.2742 1.9534 7.9017 3.607 8.4199 7.627 0.061-0.43825 0.10156-0.89669 0.10156-1.3906 0-5.2319-2.5903-7.0415-8.5215-9.2383-1.4671-0.51231-3.3203-0.992-4.2422-2.2305zm-23.279 2e-3c-0.377 0.39214-0.55859 0.90493-0.55859 1.5488 0.24727 2.3866 2.8636 3.0052 4.8008 3.6816 5.2741 1.9534 7.8997 3.607 8.418 7.627 0.061-0.43827 0.10156-0.89666 0.10156-1.3906 0-5.2319-2.5883-7.0415-8.5195-9.2383-1.4662-0.51201-3.3197-0.99165-4.2422-2.2285zm-5.6777 12.547-1.7598 4.9609c0.29448 0.16828 0.59948 0.31 0.9043 0.45313l0.85547-2.4122c2.3212 1.3162 4.8898 1.7083 7.5195 1.7617 3.2335 0 4.4805-0.98258 4.4805-2.8809 0-0.51091-0.1328-0.97406-0.45703-1.4238-0.60818 0.85489-1.8658 1.3008-4.0234 1.3008-2.6298-0.0534-5.1983-0.4436-7.5195-1.7598zm23.279 0-1.7598 4.9609c0.29411 0.16806 0.59987 0.31015 0.9043 0.45313l0.85547-2.4121c2.3212 1.3162 4.8917 1.7083 7.5215 1.7617 3.2335 0 4.4785-0.98258 4.4785-2.8809 0-0.5104-0.13355-0.97253-0.45703-1.4219-0.60864 0.85382-1.8652 1.2988-4.0215 1.2988-2.6298-0.0534-5.2002-0.4436-7.5215-1.7598z" fill="#282828" opacity=".2"/>
  <path d="m166.77 63.229c-13.607 0-24.231 10.634-24.231 24.591 1e-3 5.9816 9.6924 5.9816 9.6924 0 0-7.9749 4.2856-14.898 14.538-14.898 10.253 0 14.538 6.9227 14.538 14.898 0 5.9816 9.6924 5.9816 9.6924 0 0-13.957-10.623-24.591-24.231-24.591zm0 19.385c-2.6776 0-4.8462 2.1684-4.8462 4.8461 0 2.6776 2.1686 4.8461 4.8462 4.8461 2.6776 0 4.8461-2.1686 4.8461-4.8461 0-2.6778-2.1686-4.8461-4.8461-4.8461zm-38.77 14.538c-7.2725 0-15.842 4.481-19.801 10.071-3.9592-5.59-11.695-9.3608-18.968-9.3608-12.016 0-24.231 7.533-24.231 28.216v34.075s0 4.8461 4.8461 4.8461c4.8461 0 4.8461-4.8461 4.8461-4.8461v-34.075c-0.0042-15.718 7.1121-19.233 14.538-19.233 7.4268 0 14.538 5.8224 14.538 16.46v36.848s0 4.8461 4.8461 4.8461c4.8461 0 4.8461-4.8461 4.8461-4.8461v-36.848c0-10.638 7.1121-16.46 14.538-16.46 4.7149 0 14.576 1.6574 14.576 16.46l0.284 12.579c0 23.244 14.185 29.115 23.909 29.115 9.7249 0 23.934-6.855 24.231-27.421v-31.462c0-5.661-9.6924-5.661-9.6924 0v30.97c0 15.602-9.6762 18.221-14.538 18.221-4.8622 0-14.605-1.6252-14.605-19.905l-0.28398-11.415c0-17.631-11.525-26.834-23.881-26.834z" fill="#282828" opacity=".2" stroke-width="4.8461"/>
  <path d="m166.77 58.229c-13.607 0-24.231 10.634-24.231 24.591 1e-3 5.9816 9.6924 5.9816 9.6924 0 0-7.9749 4.2856-14.898 14.538-14.898 10.253 0 14.538 6.9227 14.538 14.898 0 5.9816 9.6924 5.9816 9.6924 0 0-13.957-10.623-24.591-24.231-24.591zm0 19.385c-2.6776 0-4.8462 2.1684-4.8462 4.8461 0 2.6776 2.1686 4.8461 4.8462 4.8461 2.6776 0 4.8461-2.1686 4.8461-4.8461 0-2.6778-2.1686-4.8461-4.8461-4.8461zm-38.77 14.538c-7.2725 0-15.842 4.481-19.801 10.071-3.9592-5.59-11.695-9.3608-18.968-9.3608-12.016 0-24.231 7.533-24.231 28.216v34.075s0 4.8461 4.8461 4.8461c4.8461 0 4.8461-4.8461 4.8461-4.8461v-34.075c-0.0042-15.718 7.1121-19.233 14.538-19.233 7.4268 0 14.538 5.8224 14.538 16.46v36.848s0 4.8461 4.8461 4.8461c4.8461 0 4.8461-4.8461 4.8461-4.8461v-36.848c0-10.638 7.1121-16.46 14.538-16.46 4.7149 0 14.576 1.6574 14.576 16.46l0.284 12.579c0 23.244 14.185 29.115 23.909 29.115 9.7249 0 23.934-6.855 24.231-27.421v-31.462c0-5.661-9.6924-5.661-9.6924 0v30.97c0 15.602-9.6762 18.221-14.538 18.221-4.8622 0-14.605-1.6252-14.605-19.905l-0.28398-11.415c0-17.631-11.525-26.834-23.881-26.834z" fill="#ebdbb2" stroke-width="4.8461"/>
  <path d="m166.77 58.228c-13.606 1e-3 -24.229 10.635-24.229 24.592 1e-4 0.55441 0.10666 1.0386 0.25782 1.4902 1.6176-12.185 11.534-21.081 23.971-21.082h2e-3c12.438 9.41e-4 22.355 8.8968 23.973 21.082 0.15104-0.45164 0.25776-0.93583 0.25776-1.4902 0-13.956-10.623-24.591-24.23-24.592zm2e-3 19.385c-2.6776 0-4.8457 2.1679-4.8457 4.8457 0 0.91925 0.2708 1.7698 0.71484 2.502 0.84917-1.4012 2.3719-2.3477 4.1309-2.3477 1.7586 0 3.2835 0.94502 4.1328 2.3457 0.44342-0.73174 0.71289-1.5815 0.71289-2.5 0-2.6778-2.1681-4.8457-4.8457-4.8457zm-38.77 14.539c-7.2725 0-15.842 4.4799-19.801 10.07-3.9592-5.59-11.696-9.3594-18.969-9.3594-12.016 0-24.23 7.5314-24.23 28.215v5.002c0-20.683 12.214-28.217 24.23-28.217 7.2725 0 15.01 3.7694 18.969 9.3594 3.9587-5.5904 12.528-10.07 19.801-10.07v2e-3c12.356 0 23.881 9.2032 23.881 26.834l0.2832 11.416c0 18.28 9.7432 19.904 14.605 19.904 4.8621 0 14.537-2.6187 14.537-18.221v-5c0 15.602-9.675 18.221-14.537 18.221-4.8622 0-14.605-1.6263-14.605-19.906l-0.2832-11.414c0-17.631-11.525-26.834-23.881-26.834zm58.154 4.7187c-2.4231 0-4.8477 1.4156-4.8477 4.2461v5c0-5.661 9.6934-5.661 9.6934 0v-5c0-2.8305-2.4226-4.2461-4.8457-4.2461z" fill="#fbf1c7" opacity=".6"/>
  <path d="m57 15c-9.9393 0-17 7.0595-17 17v192c0 9.9393 7.0595 17 17 17h142c9.9405 0 17-7.0607 17-17v-144l-65-64.998zm4.0332 4.9902 89.967 2e-3 60 60.009v139.75c0 9.4999-6.6575 16.248-16.033 16.248h-133.93c-9.3757 0-16.033-6.7481-16.033-16.248v-183.51c0-9.501 6.6586-16.25 16.033-16.25z" fill="url(#linearGradient14-5)" style="paint-order:markers fill stroke"/>
  <path d="m151 15.002v52.914c0 9.6525 7.8639 17.084 17.518 17.084l47.482-1.34e-4v-5z" fill="#282828" opacity=".3" stroke-width="1.0833"/>
  <path d="m151 15.001v47.916c0 9.6525 7.8639 17.084 17.518 17.084l47.482-1.34e-4z" fill="url(#linearGradient7-6-0)" stroke-width="1.0833"/>
</svg>
