<svg width="256" height="256" fill="none" version="1.1" viewBox="0 0 256 256" xmlns="http://www.w3.org/2000/svg">
  <path d="m55.08 15h100.5l60.4 60.15 2e-3 148.9c0 8.911-7.262 16.13-16.17 16.13h-144.8c-8.91 0-16.08-7.174-16.08-16.08v-193c0-8.91 7.173-16.08 16.08-16.08h1e-4z" fill="#ebdbb2"/>
  <path d="m155.6 22.98h-100.5c-4.504 0-8.105 3.601-8.105 8.105v193c0 4.504 3.601 8.105 8.105 8.105h144.8c4.533 0 8.194-3.674 8.194-8.149v-148.9l-52.42-52.17zm-1e-3 -7.979h-100.5c-8.91 0-16.08 7.173-16.08 16.08v193c0 8.91 7.173 16.08 16.08 16.08h144.8c8.911 0 16.17-7.218 16.17-16.13l-2e-3 -148.9-60.4-60.15z" clip-rule="evenodd" fill="url(#paint0_linear)" fill-rule="evenodd"/>
  <path d="m107.1 180.2c-4.074-1.279-6.791-2.636-10.87-5.272 16.16 1.173 37.08-2.635 51.34-14.89 0 0 27.03-20.43 8.149-53.9 0 0 2.717 13.44-0.869 24.64 0 0-4.075 15.16-20.92 19.5-25.13 6.589-53.65-10.54-65.6-18.19-0.91-7.908-0.1086-16.74 2.716-25.17 4.075-11.86 13.72-22.01 24.58-28.47-2.716 18.05-0.5704 34.66 2.716 41.51 4.075 9.225 10.87 20.16 25.53 21.61 14.13 1.318 21.87-10.54 21.87-10.54 6.791-10.54 8.149-25.3 8.149-25.7-0.108-0.369-1.358-1.317-1.358-1.317-5.433 18.58-13.58 24.78-13.58 24.78-12.22 11.86-21.6 3.953-21.6 3.953-9.508-9.224-2.717-25.7-2.717-25.7 4.075-10.54 14.8-26.62 27.3-34.79 2.716 0.4877 4.075 0.7908 6.791 1.318 8.15 2.636 14.13 6.589 19.7 11.86-9.508 2.636-23.9 9.225-23.9 9.225-23.36 9.225-24.86 23.33-24.86 23.33-2.717 14.5 9.507 7.907 9.507 7.907 12.22-5.272 18.61-23.72 18.61-23.72-4.074-0.699-6.791 0.421-6.791 0.421-5.433 11.86-15.21 16.47-15.21 16.47-4.075 2.636-5.433-1.318-5.433-1.318-0.679-2.635 2.716-2.635 2.716-2.635 5.433-2.636 9.508-7.907 9.508-9.225 0.801-2.636 2.717-2.636 2.717-2.636 8.149-2.635 14.53-2.635 14.53-2.635 9.507-1.094 23.9 2.635 23.9 2.635 2.716 1.226 6.791 2.636 9.507 2.636 5.433 11.86 6.792 26.75 0.883 40.46-10.87 29.39-45.77 44.67-76.88 33.87l-0.15-0.026z" clip-rule="evenodd" fill="url(#paint1_linear)" fill-rule="evenodd"/>
  <path d="m155.6 17v44.23c0 8.91 7.259 15.93 16.17 15.93l44.23-0.0112v-2l-60.4-58.15z" fill="#282828" opacity=".25"/>
  <path d="m155.6 15v44.23c0 8.91 7.259 15.93 16.17 15.93l44.23-0.0112-60.4-60.15z" fill="url(#paint2_linear)"/>
  <defs>
    <linearGradient id="paint0_linear" x1="72.14" x2="72.97" y1="16.03" y2="239.9" gradientUnits="userSpaceOnUse">
      <stop stop-color="#83a598" offset="0"/>
      <stop stop-color="#458588" offset="1"/>
    </linearGradient>
    <linearGradient id="paint1_linear" x1="90.46" x2="90.77" y1="72.8" y2="183.6" gradientUnits="userSpaceOnUse">
      <stop stop-color="#83a598" offset="0"/>
      <stop stop-color="#458588" offset="1"/>
    </linearGradient>
    <linearGradient id="paint2_linear" x1="166.9" x2="167.1" y1="15.28" y2="75.08" gradientUnits="userSpaceOnUse">
      <stop stop-color="#83a598" offset="0"/>
      <stop stop-color="#458588" offset="1"/>
    </linearGradient>
  </defs>
</svg>
