<svg width="256" height="256" version="1.1" viewBox="0 0 256 256" xmlns="http://www.w3.org/2000/svg">
  <defs>
    <linearGradient id="linearGradient26" x1="-160" x2="-160" y2="226" gradientTransform="translate(267,15)" gradientUnits="userSpaceOnUse">
      <stop stop-color="#076678" offset="0"/>
      <stop stop-color="#83a598" offset="1"/>
    </linearGradient>
    <linearGradient id="linearGradient7-6-0" x1="186" x2="156" y1="45.006" y2="75.012" gradientTransform="matrix(1.0833 0 0 1.0833 -17.998 -1.2506)" gradientUnits="userSpaceOnUse">
      <stop stop-color="#83a598" offset="0"/>
      <stop stop-color="#458588" offset=".3027"/>
      <stop stop-color="#076678" offset="1"/>
    </linearGradient>
    <linearGradient id="linearGradient14-5" x1="128" x2="128" y1="15.001" y2="241" gradientTransform="translate(0,4.8e-4)" gradientUnits="userSpaceOnUse">
      <stop stop-color="#ebdbb2" stop-opacity=".2" offset="0"/>
      <stop stop-color="#ebdbb2" stop-opacity=".1" offset=".2"/>
      <stop stop-opacity="0" offset=".70405"/>
      <stop stop-opacity=".05" offset=".80473"/>
      <stop stop-opacity=".1" offset="1"/>
    </linearGradient>
  </defs>
  <path d="m57 15c-9.9393 0-17 7.0595-17 17v192c0 9.9393 7.0595 17 17 17h142c9.9405 0 17-7.0607 17-17v-144l-64.999-64.999z" fill="url(#linearGradient26)" stroke-linecap="round" stroke-linejoin="round" stroke-miterlimit="0" style="paint-order:markers fill stroke"/>
  <path d="m57 241c-9.9393 0-17-7.0595-17-17v-43h176v43c0 9.9405-7.0607 17-17 17z" fill="#076678" opacity=".3" stroke-linecap="round" stroke-linejoin="round" stroke-miterlimit="0" style="paint-order:markers fill stroke"/>
  <path d="m103.94 204.8c-6.2421 0-8.24 3.9646-8.24 9.04 0 4.9582 2.1987 9.08 7.68 9.08 1.7593 0 2.5214-0.0803 3.08-0.2v-9.64h6.24v13.72c-3.5405 1.3909-8.9813 1.44-9.72 1.44-7.9578 0-13.76-4.8354-13.76-14.4 0-9.3096 6.2351-14.48 13.88-14.48 3.5141 0 7.186 0.86124 9.2 2.12l-1.8 5c-0.98137-0.52135-3.5054-1.68-6.56-1.68zm22.88-5.12c12.379 0 12.84 6.5014 12.84 9.32 0 3.3294-0.85049 9.44-12.96 9.44h-1.96v9.28h-6.24v-27.32c3.0028-0.58878 6.4467-0.72 8.32-0.72zm0.4 5.32c-0.95141 0-1.8488 0.0674-2.48 0.12v8h1.96c5.6666 0 6.52-1.933 6.52-4.16 0-3.5354-3.2779-3.96-6-3.96zm32.08 22.72c-0.95148-1.903-3.0803-5.9231-5.72-9.56-2.4596 3.1624-5.5122 8.7835-5.88 9.56h-7.12c2.4908-4.5853 5.4549-8.9918 9.32-14.36l-8.92-13.36h7.56l5.4 8.64 5.28-8.64h7.12l-8.8 13.44c2.0317 2.6364 5.968 8.0335 9.24 14.28z" fill="#ebdbb2" opacity=".15" aria-label="GPX"/>
  <path d="m103.94 201.8c-6.2421 0-8.24 3.9646-8.24 9.04 0 4.9582 2.1987 9.08 7.68 9.08 1.7593 0 2.5214-0.0803 3.08-0.2v-9.64h6.24v13.72c-3.5405 1.3909-8.9813 1.44-9.72 1.44-7.9578 0-13.76-4.8354-13.76-14.4 0-9.3096 6.2351-14.48 13.88-14.48 3.5141 0 7.186 0.86124 9.2 2.12l-1.8 5c-0.98137-0.52135-3.5054-1.68-6.56-1.68zm22.88-5.12c12.379 0 12.84 6.5014 12.84 9.32 0 3.3294-0.85049 9.44-12.96 9.44h-1.96v9.28h-6.24v-27.32c3.0028-0.58878 6.4467-0.72 8.32-0.72zm0.4 5.32c-0.95141 0-1.8488 0.0674-2.48 0.12v8h1.96c5.6666 0 6.52-1.933 6.52-4.16 0-3.5354-3.2779-3.96-6-3.96zm32.08 22.72c-0.95148-1.903-3.0803-5.9231-5.72-9.56-2.4596 3.1624-5.5122 8.7835-5.88 9.56h-7.12c2.4908-4.5853 5.4549-8.9918 9.32-14.36l-8.92-13.36h7.56l5.4 8.64 5.28-8.64h7.12l-8.8 13.44c2.0317 2.6364 5.968 8.0335 9.24 14.28z" fill="#076678" aria-label="GPX"/>
  <path d="m103.1 196.36c-7.6449 0-13.879 5.1709-13.879 14.48 0 0.53668 0.0247 1.0537 0.0606 1.5606 0.61309-8.3978 6.5787-13.041 13.818-13.041 3.0403 0 6.1942 0.64771 8.2949 1.6367l0.90625-2.5156c-2.014-1.2588-5.687-2.1211-9.2012-2.1211zm23.721 0.32031c-1.8733 0-5.3175 0.13192-8.3203 0.7207v3c3.0028-0.58878 6.447-0.7207 8.3203-0.7207 10.506 0 12.421 4.6783 12.762 7.8184 0.0581-0.53527 0.0781-1.0438 0.0781-1.498 0-2.8186-0.46101-9.3203-12.84-9.3203zm14.16 0.32031 2.0039 3h5.5547l5.4004 8.6406 5.2813-8.6406h5.1543l1.9648-3h-7.1191l-5.2812 8.6406-5.4004-8.6406zm-7.9844 10.553c-0.50709 1.4811-2.0509 2.5664-6.2969 2.5664h-1.959v3h1.959c5.6666 0 6.5215-1.9312 6.5215-4.1582 0-0.54146-0.0846-1.003-0.22461-1.4082zm-26.535 2.5274v3h6.2383v-3zm42.408 1.7363c-3.3505 4.7074-6.033 8.7511-8.2891 12.904h1.7129c2.1233-3.5628 4.5887-7.1687 7.6074-11.361zm9.7168 0.0234-1.0469 1.5996c1.6967 2.2017 4.721 6.3421 7.5781 11.281h1.6621c-2.8072-5.3591-6.0305-9.9791-8.1934-12.881zm-62.813 0.46094c-0.0456 0.50013-0.0742 1.0118-0.0742 1.5391 0 4.9582 2.2003 9.0801 7.6816 9.0801 1.7593 0 2.5215-0.0795 3.0801-0.19922v-3c-0.55857 0.1197-1.3208 0.19922-3.0801 0.19922-4.9316 0-7.2008-3.339-7.6074-7.6191z" fill="#282828" opacity=".2"/>
  <path d="m57 19.728c-4.377 0-9.4396 0.12559-13.432 1.416-1.7794 2.2583-2.9691 5.0356-3.3931 8.1943l78.141 78.108-73.586 73.553h31.121l58.025-58 58.025 58h24.098v-7.0176l-154.32-154.25z" fill="#ebdbb2" opacity=".1" style="paint-order:markers fill stroke"/>
  <path d="m57 15c-7.6123 0-13.536 4.1417-15.893 10.547l77.209 77.172-78.316 78.281h31.121l62.756-62.729 62.756 62.729h19.367v-11.746l-154.32-154.25z" fill="#076678" style="paint-order:markers fill stroke"/>
  <path d="m57 15 159 158.98v-4.7285l-154.32-154.25zm58.951 90.082-75.951 75.918h4.7305l73.586-73.553z" fill="#32302f" opacity=".2" style="paint-order:markers fill stroke"/>
  <path d="m95.48 39.945c-22.098 1e-3 -40.012 17.592-40.012 39.291 0 1.3561 0.11395 2.607 0.25 3.9277 0.10964 1.3144 0.28633 2.6423 0.5 3.9297 4.5816 27.616 23.259 47.177 39.264 62.893 16.005-15.716 34.68-35.273 39.262-62.893 0.21367-1.2874 0.39036-2.6152 0.5-3.9297 0.13684-1.3208 0.25-2.5716 0.25-3.9277 0-21.699-17.914-39.29-40.012-39.291zm2e-3 20.008c9.2078 0 16.672 7.4641 16.672 16.672 0 9.2078-7.4641 16.672-16.672 16.672-9.2078 0-16.674-7.4641-16.674-16.672 0-9.2078 7.466-16.672 16.674-16.672z" fill="#282828" opacity=".2" stroke-width="3.3345"/>
  <path d="m95.481 34.765c-22.098 1e-3 -40.012 17.592-40.012 39.291 0 1.3561 0.11395 2.607 0.25 3.9277 0.10964 1.3144 0.28633 2.6423 0.5 3.9297 4.5816 27.616 23.259 47.177 39.264 62.893 16.005-15.716 34.68-35.273 39.262-62.893 0.21367-1.2874 0.39036-2.6152 0.5-3.9297 0.13684-1.3208 0.25-2.5716 0.25-3.9277 0-21.699-17.914-39.29-40.012-39.291zm2e-3 20.008c9.2078 0 16.672 7.4641 16.672 16.672 0 9.2078-7.4641 16.672-16.672 16.672-9.2078 0-16.674-7.4641-16.674-16.672 0-9.2078 7.466-16.672 16.674-16.672z" fill="#83a598" stroke-width="3.3345"/>
  <path d="m95.482 34.765c-22.098 1e-3 -40.012 17.592-40.012 39.291 0 0.82007 0.04839 1.6046 0.11133 2.3867 1.4598-20.395 18.759-36.497 39.9-36.498h2e-3c21.144 9.97e-4 38.447 16.109 39.902 36.508 0.0633-0.78529 0.10937-1.5731 0.10937-2.3965 0-21.699-17.914-39.29-40.012-39.291z" fill="#ebdbb2" opacity=".2" stroke-width="3.3345"/>
  <path d="m57 15c-9.9393 0-17 7.0595-17 17v192c0 9.9393 7.0595 17 17 17h142c9.9405 0 17-7.0607 17-17v-144l-65-64.998zm4.0332 4.9902 89.967 2e-3 60 60.009v139.75c0 9.4999-6.6575 16.248-16.033 16.248h-133.93c-9.3757 0-16.033-6.7481-16.033-16.248v-183.51c0-9.501 6.6586-16.25 16.033-16.25z" fill="url(#linearGradient14-5)" style="paint-order:markers fill stroke"/>
  <path d="m151 15.002v52.914c0 9.6525 7.8639 17.084 17.518 17.084l47.482-1.34e-4v-5z" fill="#282828" opacity=".3" stroke-width="1.0833"/>
  <path d="m151 15.001v47.916c0 9.6525 7.8639 17.084 17.518 17.084l47.482-1.34e-4z" fill="url(#linearGradient7-6-0)" stroke-width="1.0833"/>
</svg>
