<svg width="256" height="256" version="1.1" viewBox="0 0 256 256" xmlns="http://www.w3.org/2000/svg" xmlns:xlink="http://www.w3.org/1999/xlink">
  <defs>
    <linearGradient id="linearGradient21" x1="128" x2="128" y1="15" y2="241" gradientUnits="userSpaceOnUse">
      <stop stop-color="#ebdbb2" offset="0"/>
      <stop stop-color="#d5c4a1" offset="1"/>
    </linearGradient>
    <linearGradient id="linearGradient23" x1="86.771" x2="86.771" y1="40.049" y2="172" gradientUnits="userSpaceOnUse">
      <stop stop-color="#fbf1c7" stop-opacity=".6" offset="0"/>
      <stop stop-color="#ebdbb2" offset="1"/>
    </linearGradient>
    <linearGradient id="linearGradient1478" x1="26.649" x2="135.67" y1="20.604" y2="114.4" gradientTransform="matrix(.57543 0 0 .58098 55.812 33.029)" gradientUnits="userSpaceOnUse">
      <stop stop-color="#83a598" offset="0"/>
      <stop stop-color="#076678" offset="1"/>
    </linearGradient>
    <linearGradient id="linearGradient1475" x1="176.46" x2="101.5" y1="236.06" y2="129.15" gradientTransform="matrix(.57543 0 0 .58098 55.812 33.029)" gradientUnits="userSpaceOnUse">
      <stop stop-color="#d79921" offset="0"/>
      <stop stop-color="#fabd2f" offset="1"/>
    </linearGradient>
    <linearGradient id="linearGradient22" x1="26.649" x2="135.67" y1="20.604" y2="114.4" gradientTransform="matrix(.57543 0 0 .58098 55.812 33.029)" gradientUnits="userSpaceOnUse" xlink:href="#linearGradient1478"/>
    <linearGradient id="linearGradient7-6-0" x1="186" x2="156" y1="45.006" y2="75.012" gradientTransform="matrix(1.0833,0,0,1.0833,-17.995,-1.2497)" gradientUnits="userSpaceOnUse">
      <stop stop-color="#a89984" offset="0"/>
      <stop stop-color="#7c6f64" offset=".3027"/>
      <stop stop-color="#504945" offset="1"/>
    </linearGradient>
    <linearGradient id="linearGradient14-8-2" x1="128" x2="128" y1="15.001" y2="241" gradientTransform="translate(0,4.8e-4)" gradientUnits="userSpaceOnUse">
      <stop stop-color="#282828" stop-opacity=".10452" offset="0"/>
      <stop stop-color="#282828" stop-opacity=".054194" offset=".2"/>
      <stop stop-color="#282828" stop-opacity=".050323" offset=".70405"/>
      <stop stop-color="#282828" stop-opacity=".1" offset=".80473"/>
      <stop stop-color="#282828" stop-opacity=".15" offset="1"/>
    </linearGradient>
  </defs>
  <path d="m57 15c-9.9393 0-17 7.0595-17 17v149h176v-101l-64.998-64.998-94.002-0.001953z" fill="url(#linearGradient21)" style="paint-order:markers fill stroke"/>
  <path d="m57 241c-9.9393 0-17-7.0595-17-17v-43h176v43c0 9.9405-7.0607 17-17 17z" fill="#665c54" stroke-linecap="round" stroke-linejoin="round" stroke-miterlimit="0" style="paint-order:markers fill stroke"/>
  <path d="m100.36 199.68c12.379 0 12.84 6.5014 12.84 9.32 0 3.3294-0.85049 9.44-12.96 9.44h-1.96v9.28h-6.24v-27.32c3.0028-0.58878 6.4467-0.72 8.32-0.72zm0.4 5.32c-0.95142 0-1.8488 0.0674-2.48 0.12v8h1.96c5.6666 0 6.52-1.933 6.52-4.16 0-2.7192-1.8321-3.96-6-3.96zm26.8 6.4c2.6536-4.4858 4.5353-8.1044 6-11.4h6.88c-3.04 5.9734-6.2718 11.495-9.88 17.12v10.6h-6.24v-10.52c-4.4191-6.8886-7.256-11.966-9.92-17.2h7.24c1.893 4.2592 3.9664 8.0976 5.92 11.4zm27.12 16.88c-11.917 0-13.84-8.7761-13.84-14.44 0-8.7096 5.577-14.48 14.16-14.48 3.6495 0 6.894 1.0788 8.56 2.12l-1.8 5.04c-1.62-0.86063-3.9005-1.64-6.84-1.64-1.6567 0-7.6 0.57595-7.6 8.84 0 7.377 4.1646 9.04 7.92 9.04 2.4702 0.084 4.7798-0.55372 7-1.56l1.72 5c-3.204 1.9418-7.9741 2.08-9.28 2.08z" fill="#282828" opacity=".3" aria-label="PYC"/>
  <path d="m100.36 196.76c12.379 0 12.84 6.5014 12.84 9.32 0 3.3294-0.85049 9.44-12.96 9.44h-1.96v9.28h-6.24v-27.32c3.0028-0.58878 6.4467-0.72 8.32-0.72zm0.4 5.32c-0.95142 0-1.8488 0.0674-2.48 0.12v8h1.96c5.6666 0 6.52-1.933 6.52-4.16 0-2.7192-1.8321-3.96-6-3.96zm26.8 6.4c2.6536-4.4858 4.5353-8.1044 6-11.4h6.88c-3.04 5.9734-6.2718 11.495-9.88 17.12v10.6h-6.24v-10.52c-4.4191-6.8886-7.256-11.966-9.92-17.2h7.24c1.893 4.2592 3.9664 8.0976 5.92 11.4zm27.12 16.88c-11.917 0-13.84-8.7761-13.84-14.44 0-8.7096 5.577-14.48 14.16-14.48 3.6495 0 6.894 1.0788 8.56 2.12l-1.8 5.04c-1.62-0.86063-3.9005-1.64-6.84-1.64-1.6567 0-7.6 0.57595-7.6 8.84 0 7.377 4.1646 9.04 7.92 9.04 2.4702 0.084 4.7798-0.55372 7-1.56l1.72 5c-3.204 1.9418-7.9741 2.08-9.28 2.08z" fill="#ebdbb2" aria-label="PYC"/>
  <path d="m155 196.44c-8.583 0-14.16 5.7689-14.16 14.479 0 0.489 0.0228 1.0074 0.0566 1.5352 0.56512-7.9277 5.9861-13.094 14.104-13.094 3.0956 0 5.8889 0.77741 7.6856 1.6484l0.875-2.4492c-1.666-1.0412-4.911-2.1191-8.5606-2.1191zm-54.641 0.31836c-1.8733 0-5.3175 0.13193-8.3203 0.72071v2.9219c3.0028-0.58878 6.447-0.7207 8.3203-0.7207 10.552 0 12.439 4.7192 12.768 7.8594 0.0549-0.52179 0.0723-1.017 0.0723-1.4609 0-2.8186-0.46101-9.3203-12.84-9.3203zm14.041 0.32031c0.49546 0.97353 1.0109 1.9466 1.5273 2.9219h5.7129c1.893 4.2592 3.9664 8.098 5.9199 11.4 2.6536-4.4858 4.5353-8.1048 6-11.4h5.3418c0.51554-0.96828 1.033-1.9313 1.5371-2.9219h-6.8789c-1.4647 3.2956-3.3464 6.9146-6 11.4-1.9536-3.3024-4.027-7.1412-5.9199-11.4zm-7.8438 10.486c-0.48337 1.5154-2.0063 2.6348-6.3164 2.6348h-1.9609v2.9199h1.9609c5.6666 0 6.5196-1.9312 6.5196-4.1582 0-0.51835-0.0665-0.98394-0.20313-1.3965zm40.83 4.7109c-0.043 0.45388-0.0664 0.93432-0.0664 1.4453 0 7.377 4.1646 9.0391 7.9199 9.0391 2.4702 0.084 4.7798-0.55427 7-1.5606l0.86914 2.5312c0.29175-0.13997 0.57739-0.28619 0.84961-0.45117l-1.7188-5c-2.2202 1.0063-4.5298 1.6426-7 1.5586-3.489 0-7.3261-1.4427-7.8535-7.5625z" fill="#fbf1c7" opacity=".6"/>
  <path d="m63.184 40.049v2h10v-2zm74.99 0v2h9.998v-2zm-79.988 22.496v2c0 1.3805 1.1195 2.5 2.5 2.5h14.996c1.3805 0 2.5-1.1195 2.5-2.5v-2c0 1.3805-1.1195 2.5-2.5 2.5h-14.996c-1.3805 0-2.5-1.1195-2.5-2.5zm34.994 0v2c-5e-3 3.3384 5.0055 3.3384 5 0v-2c5e-3 3.3384-5.005 3.3384-5 0zm19.998 0v2c-3e-3 3.3355 4.9954 3.3355 4.998 0v-2c-3e-3 3.3355-5.001 3.3355-4.998 0zm19.996 0v2c0 1.3805 1.1195 2.5 2.5 2.5h14.998c1.3805 0 2.5-1.1195 2.5-2.5v-2c0 1.3805-1.1195 2.5-2.5 2.5h-14.998c-1.3805 0-2.5-1.1195-2.5-2.5zm-14.996 12.457v2h9.998v-2zm35.006 2e-3v2h9.998v-2zm-80 22.492v2c-5e-3 3.3384 5.0055 3.3384 5 0v-2c0.0055 3.3384-5.005 3.3384-5 0zm20 0v2c-5e-3 3.3384 5.0055 3.3384 5 0v-2c5e-3 3.3384-5.005 3.3384-5 0zm19.994 2e-3v2c0 1.3805 1.1195 2.5 2.5 2.5h14.998c1.3805 0 2.5-1.1195 2.5-2.5v-2c0 1.3805-1.1195 2.5-2.5 2.5h-14.998c-1.3805 0-2.5-1.1195-2.5-2.5zm35.006 2e-3v2c0 1.3805 1.1195 2.5 2.5 2.5h14.998c1.3805 0 2.5-1.1195 2.5-2.5v-2c0 1.3805-1.1195 2.5-2.5 2.5h-14.998c-1.3805 0-2.5-1.1195-2.5-2.5zm30 0v2c-5e-3 3.3384 5.0055 3.3384 5 0v-2c5e-3 3.3384-5.005 3.3384-5 0zm-115 12.5v2h10v-2zm67.83 0v2h10v-2zm52.168 0v2h10v-2zm-84.992 2e-3v2h9.998v-2zm27.822 22.494v2c0 1.3805 1.1195 2.5 2.5 2.5h14.996c1.3805 0 2.5-1.1195 2.5-2.5v-2c0 1.3805-1.1195 2.5-2.5 2.5h-14.996c-1.3805 0-2.5-1.1195-2.5-2.5zm34.994 0v2c-5e-3 3.3384 5.0055 3.3384 5 0v-2c5e-3 3.3384-5.005 3.3384-5 0zm-102.82 2e-3v2c0 1.3805 1.1195 2.498 2.5 2.498h14.996c1.3805 1e-5 2.5-1.1175 2.5-2.498v-2c0 1.3805-1.1195 2.498-2.5 2.498h-14.996c-1.3805 0-2.5-1.1175-2.5-2.498zm120 0v2c0 1.3805 1.1195 2.498 2.5 2.498h14.996c1.3805 1e-5 2.5-1.1175 2.5-2.498v-2c0 1.3805-1.1195 2.498-2.5 2.498h-14.996c-1.3805 0-2.5-1.1175-2.5-2.498zm-84.988 2e-3v2c0 1.3805 1.1175 2.5 2.498 2.5h14.998c1.3805 0 2.5-1.1195 2.5-2.5v-2c0 1.3805-1.1195 2.5-2.5 2.5h-14.998c-1.3805 0-2.498-1.1195-2.498-2.5zm4.9922 12.496v2h10v-2zm75 4e-3v2h10v-2zm-100 22.492v2c-5e-3 3.3384 5.0055 3.3384 5 0v-2c0.0055 3.3384-5.005 3.3384-5 0zm53 0v2c-5e-3 3.3384 5.0055 3.3384 5 0v-2c5e-3 3.3384-5.005 3.3384-5 0zm-33 2e-3v2c0 1.3805 1.1195 2.498 2.5 2.498h14.996c1.3805 1e-5 2.5-1.1176 2.5-2.498v-2c0 1.3805-1.1195 2.4981-2.5 2.498h-14.996c-1.3805 0-2.5-1.1176-2.5-2.498zm55 2e-3v2c-5e-3 3.3384 5.0055 3.3384 5 0v-2c5e-3 3.3384-5.005 3.3384-5 0zm20 2e-3v2c0 1.3805 1.1195 2.4981 2.5 2.498h14.996c1.3805 1e-5 2.5-1.1175 2.5-2.498v-2c0 1.3805-1.1195 2.498-2.5 2.498h-14.996c-1.3805 1e-4 -2.5-1.1175-2.5-2.498z" fill="url(#linearGradient23)" opacity=".6"/>
  <path d="m60.686 35.049c-1.3805 1e-6 -2.5 1.1195-2.5 2.5v24.996c0 1.3805 1.1195 2.5 2.5 2.5h14.996c1.3805-1e-6 2.5-1.1195 2.5-2.5v-24.996c0-1.3805-1.1195-2.5-2.5-2.5zm34.994 0c-1.3805 1e-6 -2.5 1.1195-2.5 2.5v24.996c-5e-3 3.3384 5.0055 3.3384 5 0v-24.996c0-1.3805-1.1195-2.5-2.5-2.5zm19.998 0c-1.3805 1e-6 -2.5 1.1195-2.5 2.5v24.996c-3e-3 3.3355 4.9954 3.3355 4.998 0v-24.996c0-1.3805-1.1175-2.5-2.498-2.5zm19.996 0c-1.3805-1.3e-5 -2.5 1.1195-2.5 2.5v24.996c0 1.3805 1.1195 2.5 2.5 2.5h14.998c1.3805-1e-6 2.5-1.1195 2.5-2.5v-24.996c0-1.3805-1.1195-2.5-2.5-2.5zm-72.49 5h10v19.996h-10zm74.99 0h9.998v19.996h-9.998zm-62.49 29.951c-1.3805 0-2.5 1.1195-2.5 2.5v24.996c-5e-3 3.3384 5.0055 3.3384 5 0v-24.996c0-1.3805-1.1195-2.5-2.5-2.5zm20 0c-1.3805 0-2.5 1.1195-2.5 2.5v24.996c-5e-3 3.3384 5.0055 3.3384 5 0v-24.996c0-1.3805-1.1195-2.5-2.5-2.5zm19.994 2e-3c-1.3805-1.2e-5 -2.5 1.1195-2.5 2.5v24.996c0 1.3805 1.1195 2.5 2.5 2.5h14.998c1.3805 0 2.5-1.1195 2.5-2.5v-24.996c0-1.3805-1.1195-2.5-2.5-2.5zm35.006 2e-3c-1.3805 0-2.5 1.1195-2.5 2.5v24.996c0 1.3805 1.1195 2.5 2.5 2.5h14.998c1.3805 0 2.5-1.1195 2.5-2.5v-24.996c0-1.3805-1.1195-2.5-2.5-2.5zm30 0c-1.3805 0-2.5 1.1195-2.5 2.5v24.996c-5e-3 3.3384 5.0055 3.3384 5 0v-24.996c0-1.3805-1.1195-2.5-2.5-2.5zm-62.506 4.998h9.998v19.996h-9.998zm35.006 2e-3h9.998v19.998h-9.998zm-92.5 29.996c-1.3805-1e-5 -2.5 1.1195-2.5 2.5v24.998c0 1.3805 1.1195 2.498 2.5 2.498h14.996c1.3805 1e-5 2.5-1.1175 2.5-2.498v-24.998c0-1.3805-1.1195-2.5-2.5-2.5zm67.83 0c-1.3805 0-2.5 1.1195-2.5 2.5v24.996c0 1.3805 1.1195 2.5 2.5 2.5h14.996c1.3805 0 2.5-1.1195 2.5-2.5v-24.996c0-1.3805-1.1195-2.5-2.5-2.5zm34.994 0c-1.3805 0-2.5 1.1195-2.5 2.5v24.996c-5e-3 3.3384 5.0055 3.3384 5 0v-24.996c0-1.3805-1.1195-2.5-2.5-2.5zm17.174 0c-1.3805-1e-5 -2.5 1.1195-2.5 2.5v24.998c0 1.3805 1.1195 2.498 2.5 2.498h14.996c1.3805 1e-5 2.5-1.1175 2.5-2.498v-24.998c0-1.3805-1.1195-2.5-2.5-2.5zm-84.99 4e-3c-1.3805 0-2.498 1.1195-2.498 2.5v24.996c0 1.3805 1.1175 2.5 2.498 2.5h14.998c1.3805 0 2.5-1.1195 2.5-2.5v-24.996c0-1.3805-1.1195-2.5-2.5-2.5zm-32.506 4.9959h10v19.998h-10zm67.83 0h10v19.996h-10zm52.168 0h10v19.998h-10zm-84.992 2e-3h9.998v19.998h-9.998zm-22.506 29.994c-1.3805 0-2.5 1.1195-2.5 2.5v24.996c-5e-3 3.3384 5.0055 3.3384 5 0v-24.996c0-1.3805-1.1195-2.5-2.5-2.5zm20 0c-1.3805-1e-5 -2.5 1.1195-2.5 2.5v24.998c0 1.3805 1.1195 2.498 2.5 2.498h14.996c1.3805 1e-5 2.5-1.1175 2.5-2.498v-24.998c0-1.3805-1.1195-2.5-2.5-2.5zm33 0c-1.3805 0-2.5 1.1195-2.5 2.5v24.996c-5e-3 3.3384 5.0055 3.3384 5 0v-24.996c0-1.3805-1.1195-2.5-2.5-2.5zm22 4e-3c-1.3805 0-2.5 1.1195-2.5 2.5v24.996c-5e-3 3.3384 5.0055 3.3384 5 0v-24.996c0-1.3805-1.1195-2.5-2.5-2.5zm20 0c-1.3805-1e-5 -2.5 1.1195-2.5 2.5v24.998c0 1.3805 1.1195 2.4981 2.5 2.498h14.996c1.3805 1e-5 2.5-1.1175 2.5-2.498v-24.998c0-1.3805-1.1195-2.5-2.5-2.5zm-72.5 4.996h10v19.998h-10zm75 4e-3h10v19.998h-10z" fill="#282828" opacity=".2" stroke-width="4.9993"/>
  <path d="m60.686 35.049c-1.3805 1e-6 -2.5 1.1195-2.5 2.5v2c0-1.3805 1.1195-2.5 2.5-2.5h14.996c1.3805 0 2.5 1.1195 2.5 2.5v-2c0-1.3805-1.1195-2.5-2.5-2.5zm34.994 0c-1.3805 1e-6 -2.5 1.1195-2.5 2.5v2c-1e-6 -1.3805 1.1195-2.5 2.5-2.5s2.5 1.1195 2.5 2.5v-2c0-1.3805-1.1195-2.5-2.5-2.5zm19.998 0c-1.3805 1e-6 -2.5 1.1195-2.5 2.5v2c0-1.3805 1.1195-2.5 2.5-2.5s2.498 1.1195 2.498 2.5v-2c0-1.3805-1.1176-2.5-2.498-2.5zm19.996 0c-1.3805-1.3e-5 -2.5 1.1195-2.5 2.5v2c0-1.3805 1.1195-2.5 2.5-2.5h14.998c1.3805 0 2.5 1.1195 2.5 2.5v-2c0-1.3805-1.1195-2.5-2.5-2.5zm-72.49 24.996v2h10v-2zm74.99 0v2h9.998v-2zm-62.49 9.9551c-1.3805 0-2.5 1.1195-2.5 2.5v2c0-1.3805 1.1195-2.5 2.5-2.5s2.5 1.1195 2.5 2.5v-2c0-1.3805-1.1195-2.5-2.5-2.5zm20 0c-1.3805 0-2.5 1.1195-2.5 2.5v2c0-1.3805 1.1195-2.5 2.5-2.5s2.5 1.1195 2.5 2.5v-2c0-1.3805-1.1195-2.5-2.5-2.5zm19.994 2e-3c-1.3805-1e-5 -2.5 1.1195-2.5 2.5v2c0-1.3805 1.1195-2.5 2.5-2.5h14.998c1.3805 0 2.5 1.1195 2.5 2.5v-2c0-1.3805-1.1195-2.5-2.5-2.5zm35.006 2e-3c-1.3805 0-2.5 1.1195-2.5 2.5v2c0-1.3805 1.1195-2.5 2.5-2.5h14.998c1.3805 0 2.5 1.1195 2.5 2.5v-2c0-1.3805-1.1195-2.5-2.5-2.5zm30 0c-1.3805 0-2.5 1.1195-2.5 2.5v2c0-1.3805 1.1195-2.5 2.5-2.5s2.5 1.1195 2.5 2.5v-2c0-1.3805-1.1195-2.5-2.5-2.5zm-62.506 24.994v2h9.998v-2zm35.006 0.0039v2h9.998v-2zm-92.5 9.998c-1.3805-1e-5 -2.5 1.1195-2.5 2.5v2c0-1.3805 1.1195-2.5 2.5-2.5h14.996c1.3805 0 2.5 1.1195 2.5 2.5v-2c0-1.3805-1.1195-2.5-2.5-2.5zm67.83 0c-1.3805 0-2.5 1.1195-2.5 2.5v2c0-1.3805 1.1195-2.5 2.5-2.5h14.996c1.3805 0 2.5 1.1195 2.5 2.5v-2c0-1.3805-1.1195-2.5-2.5-2.5zm34.994 0c-1.3805 0-2.5 1.1195-2.5 2.5v2c0-1.3805 1.1195-2.5 2.5-2.5s2.5 1.1195 2.5 2.5v-2c0-1.3805-1.1195-2.5-2.5-2.5zm17.174 0c-1.3805-1e-5 -2.5 1.1195-2.5 2.5v2c0-1.3805 1.1195-2.5 2.5-2.5h14.996c1.3805 0 2.5 1.1195 2.5 2.5v-2c0-1.3805-1.1195-2.5-2.5-2.5zm-84.99 4e-3c-1.3805 0-2.498 1.1195-2.498 2.5v2c0-1.3805 1.1175-2.5 2.498-2.5h14.998c1.3805 0 2.5 1.1195 2.5 2.5v-2c0-1.3805-1.1195-2.5-2.5-2.5zm35.324 24.992v2h10v-2zm-67.83 2e-3v2h10v-2zm120 0v2h10v-2zm-84.992 2e-3v2h9.998v-2zm-22.506 9.9961c-1.3805 0-2.5 1.1195-2.5 2.5v2c0-1.3805 1.1195-2.5 2.5-2.5s2.5 1.1195 2.5 2.5v-2c0-1.3805-1.1195-2.5-2.5-2.5zm20 0c-1.3805-1e-5 -2.5 1.1195-2.5 2.5v2c0-1.3805 1.1195-2.5 2.5-2.5h14.996c1.3805 0 2.5 1.1195 2.5 2.5v-2c0-1.3805-1.1195-2.5-2.5-2.5zm33 0c-1.3805 0-2.5 1.1195-2.5 2.5v2c0-1.3805 1.1195-2.5 2.5-2.5s2.5 1.1195 2.5 2.5v-2c0-1.3805-1.1195-2.5-2.5-2.5zm22 4e-3c-1.3805 0-2.5 1.1195-2.5 2.5v2c0-1.3805 1.1195-2.5 2.5-2.5s2.5 1.1195 2.5 2.5v-2c0-1.3805-1.1195-2.5-2.5-2.5zm20 0c-1.3805-1e-5 -2.5 1.1195-2.5 2.5v2c0-1.3805 1.1195-2.5 2.5-2.5h14.996c1.3805 0 2.5 1.1195 2.5 2.5v-2c0-1.3805-1.1195-2.5-2.5-2.5zm-72.5 24.994v2h10v-2zm75 4e-3v2h10v-2z" fill="#282828" opacity=".1"/>
  <path d="m127.32 48.038c-4.6886 0.02179-9.1668 0.42145-13.106 1.1186-11.606 2.0504-13.714 6.3429-13.714 14.258v10.453h27.426v3.4831h-37.718c-7.971 0-14.95 4.7907-17.133 13.905-2.5182 10.447-2.6299 16.967 0 27.875 1.9496 8.1198 6.605 13.905 14.576 13.905h9.4286v-12.53c0-9.0523 7.8337-17.039 17.135-17.039h27.395c7.6257 0 13.712-6.2791 13.712-13.937v-26.114c0-7.4328-6.2692-13.017-13.712-14.258-4.7115-0.78429-9.5999-1.1403-14.289-1.1186zm-14.832 8.4069c2.833 0 5.1455 2.3507 5.1455 5.2418 0 2.8808-2.3125 5.2108-5.1455 5.2108-2.8432 0-5.1471-2.33-5.1471-5.2108 0-2.8911 2.304-5.2418 5.1471-5.2418zm46.254 20.906v12.178c0 9.4419-8.0047 17.39-17.133 17.39h-27.395c-7.5039 0-13.714 6.4226-13.714 13.938v26.116c0 7.4328 6.4638 11.805 13.714 13.938 8.6819 2.5528 17.008 3.0141 27.395 0 6.9048-1.9992 13.712-6.0228 13.712-13.938v-10.453h-27.395v-3.4848h41.109c7.971 0 10.942-5.5596 13.714-13.905 2.8634-8.5916 2.7416-16.854 0-27.875-1.9699-7.9352-5.7327-13.905-13.714-13.905zm-15.407 66.138c2.8432 0 5.1455 2.33 5.1455 5.2108 0 2.8911-2.3024 5.2418-5.1455 5.2418-2.833 0-5.1471-2.3507-5.1471-5.2418 0-2.8808 2.3141-5.2108 5.1471-5.2108z" fill="#282828" opacity=".2" stroke-width="1.0229"/>
  <path d="m127.32 45.001c-4.6886 0.02179-9.166 0.42166-13.106 1.1188-11.606 2.0504-13.714 6.3421-13.714 14.257v10.453h27.427v3.4843h-37.72c-7.971 0-14.951 4.791-17.134 13.905-2.5182 10.447-2.6299 16.966 0 27.874 1.9496 8.1198 6.6055 13.905 14.576 13.905h9.4302v-12.53c0-9.0523 7.8326-17.038 17.134-17.038h27.394c7.6257 0 13.714-6.2788 13.714-13.937v-26.116c0-7.4328-6.2704-13.016-13.714-14.257-4.7115-0.78429-9.5999-1.1406-14.289-1.1188zm-14.832 8.4069c2.833 0 5.1466 2.3513 5.1466 5.2424 0 2.8808-2.3135 5.2104-5.1466 5.2104-2.8432 0-5.1465-2.3296-5.1465-5.2104 0-2.8911 2.3034-5.2424 5.1465-5.2424z" fill="url(#linearGradient1478)" stroke-width="1.0229"/>
  <path d="m127.32 45.001c-4.6886 0.02179-9.166 0.42166-13.106 1.1188-11.606 2.0504-13.714 6.3421-13.714 14.257v10.453h27.427v3.4843h-37.72c-7.971 0-14.951 4.791-17.134 13.905-2.5182 10.447-2.6299 16.966 0 27.874 1.9496 8.1198 6.6055 13.905 14.576 13.905h9.4302v-12.53c0-9.0523 7.8326-17.038 17.134-17.038h27.394c7.6257 0 13.714-6.2788 13.714-13.937v-26.116c0-7.4328-6.2704-13.016-13.714-14.257-4.7115-0.78429-9.5999-1.1406-14.289-1.1188zm-14.832 8.4069c2.833 0 5.1466 2.3513 5.1466 5.2424 0 2.8808-2.3135 5.2104-5.1466 5.2104-2.8432 0-5.1465-2.3296-5.1465-5.2104 0-2.8911 2.3034-5.2424 5.1465-5.2424z" fill="url(#linearGradient22)" stroke-width="1.0229"/>
  <path d="m127.32 45c-4.6886 0.02179-9.1658 0.42204-13.105 1.1191-11.606 2.0504-13.715 6.343-13.715 14.258v3.0371c0-7.9148 2.1091-12.205 13.715-14.256 3.9396-0.6971 8.4169-1.0974 13.105-1.1191 4.6888-0.021821 9.5776 0.33485 14.289 1.1191 7.4431 1.2408 13.713 6.825 13.713 14.258v-3.0391c0-7.4328-6.2698-13.017-13.713-14.258-4.7115-0.78429-9.6003-1.139-14.289-1.1172v-0.001953zm-19.732 15.166c-0.14556 0.48501-0.2461 0.98842-0.2461 1.5215 0 2.8808 2.3033 5.2109 5.1465 5.2109 2.833-1e-6 5.1465-2.3301 5.1465-5.2109 0-0.53307-0.10199-1.0365-0.24805-1.5215-0.64606 2.1346-2.5877 3.6953-4.8984 3.6953-2.319 0-4.2565-1.5607-4.9004-3.6953zm-17.381 14.148c-7.971 0-14.95 4.7904-17.133 13.904-1.4238 5.9068-2.0778 10.558-1.9023 15.457 0.13243-3.8497 0.77468-7.7398 1.9023-12.418 2.183-9.1139 9.1618-13.906 17.133-13.906h37.721v-3.0371h-37.721z" fill="#ebdbb2" opacity=".15"/>
  <path d="m158.74 74.314v12.179c0 9.4419-8.0052 17.39-17.134 17.39h-27.394c-7.5039 0-13.714 6.4223-13.714 13.937v26.116c0 7.4328 6.4634 11.805 13.714 13.937 8.6819 2.5528 17.007 3.0141 27.394 0 6.9047-1.9992 13.714-6.0225 13.714-13.937v-10.453h-27.394v-3.4843h41.108c7.971 0 10.941-5.56 13.714-13.905 2.8634-8.5916 2.7416-16.853 0-27.874-1.9699-7.9352-5.7322-13.905-13.714-13.905zm-15.407 66.137c2.8432 0 5.1465 2.3296 5.1465 5.2104 0 2.8911-2.3033 5.2424-5.1465 5.2424-2.833 0-5.1465-2.3513-5.1465-5.2424 0-2.8808 2.3135-5.2104 5.1465-5.2104z" fill="url(#linearGradient1475)" stroke-width="1.0229"/>
  <path d="m158.74 74.314v12.18c0 9.4419-8.006 17.389-17.135 17.389h-27.395c-7.5039 0-13.713 6.4231-13.713 13.938v26.115c0 0.01201 0.00192 0.02315 0.00196 0.03515v-23.113c0-7.5144 6.209-13.938 13.713-13.938h27.395c9.1287 0 17.135-7.9487 17.135-17.391v-12.178h10.293c7.9813 1e-6 11.743 5.9692 13.713 13.904 1.2348 4.9637 1.9337 9.3658 2.0723 13.492 0.18072-5.003-0.53206-10.33-2.0742-16.529-1.9699-7.9352-5.7316-13.904-13.713-13.904h-10.293zm-30.814 59.168v3.0371h27.395v-3.0371h-27.395zm20.309 13.697c-0.64234 2.148-2.5816 3.7246-4.9023 3.7246-2.3103 0-4.252-1.5738-4.8984-3.7188-0.14524 0.48131-0.24609 0.9821-0.24609 1.5117 0 2.8911 2.3135 5.2441 5.1465 5.2441 2.8432 0 5.1465-2.353 5.1465-5.2441 0-0.5318-0.10021-1.0345-0.2461-1.5176z" fill="#ebdbb2" opacity=".3"/>
  <path d="m57 15c-9.9393 0-17 7.0595-17 17v192c0 9.9393 7.0595 17 17 17h142c9.9405 0 17-7.0607 17-17v-144l-65-65zm4.0332 4.9902 89.967 0.01 60 60 2e-4 139.75c1e-5 9.4999-6.6575 16.248-16.033 16.248h-133.93c-9.3757 0-16.033-6.7481-16.033-16.248v-183.51c0-9.501 6.6586-16.25 16.033-16.25z" fill="url(#linearGradient14-8-2)" style="paint-order:markers fill stroke"/>
  <path d="m151 15.002v52.914c0 9.6525 7.8639 17.084 17.518 17.084l47.482-1.34e-4v-5z" fill="#282828" opacity=".2" stroke-width="1.0833"/>
  <path d="m151 15.002v47.916c0 9.6525 7.8639 17.082 17.518 17.082l47.482 0.0019z" fill="url(#linearGradient7-6-0)" stroke-width="1.0833"/>
</svg>
