<svg width="256" height="256" version="1.1" viewBox="0 0 256 256" xmlns="http://www.w3.org/2000/svg">
  <defs>
    <linearGradient id="linearGradient26" x1="-160" x2="-160" y2="226" gradientTransform="translate(267,15)" gradientUnits="userSpaceOnUse">
      <stop stop-color="#83a598" offset="0"/>
      <stop stop-color="#458588" offset="1"/>
    </linearGradient>
    <linearGradient id="linearGradient7-6" x1="186" x2="156" y1="45.006" y2="75.012" gradientTransform="matrix(1.0833,0,0,1.0833,-17.998,-1.2502)" gradientUnits="userSpaceOnUse">
      <stop stop-color="#83a598" offset="0"/>
      <stop stop-color="#458588" offset=".3027"/>
      <stop stop-color="#076678" offset="1"/>
    </linearGradient>
    <linearGradient id="linearGradient14-5-2" x1="128" x2="128" y1="15.001" y2="241" gradientTransform="translate(0,4.8e-4)" gradientUnits="userSpaceOnUse">
      <stop stop-color="#ebdbb2" stop-opacity=".2" offset="0"/>
      <stop stop-color="#ebdbb2" stop-opacity=".1" offset=".2"/>
      <stop stop-opacity="0" offset=".70405"/>
      <stop stop-opacity=".05" offset=".80473"/>
      <stop stop-opacity=".1" offset="1"/>
    </linearGradient>
  </defs>
  <path d="m57 15c-9.9393 0-17 7.0595-17 17v192c0 9.9393 7.0595 17 17 17h142c9.9405 0 17-7.0607 17-17v-144l-64.999-64.999z" fill="url(#linearGradient26)" stroke-linecap="round" stroke-linejoin="round" stroke-miterlimit="0" style="paint-order:markers fill stroke"/>
  <path d="m57 241c-9.9393 0-17-7.0595-17-17v-43h176v43c0 9.9405-7.0607 17-17 17h-99.1z" fill="#83a598" opacity=".8" stroke-linecap="round" stroke-linejoin="round" stroke-miterlimit="0" style="paint-order:markers fill stroke"/>
  <path d="m96.94 213.84c0 5.6626 2.8829 8.96 7.36 8.96 4.8781 0 7.36-3.9271 7.36-8.96 0-4.9078-2.3872-9-7.36-9-4.1749 0-7.36 3.1092-7.36 9zm21.16 0c0 9.292-5.7804 14.44-13.8 14.44-7.1983 0-13.8-4.5179-13.8-14.44 0-9.2833 6.2024-14.48 13.8-14.48 7.6238 0 13.8 4.991 13.8 14.48zm24.84-13.84v5.32h-8.36v22.4h-6.24v-22.4h-8.36v-5.32zm4 27.72v-27.72h18.56v5.24h-12.32v5.8h10.96v5.24h-10.96v11.44z" fill="#ebdbb2" opacity=".15" aria-label="OTF"/>
  <path d="m96.94 210.84c0 5.6626 2.8829 8.96 7.36 8.96 4.8781 0 7.36-3.9271 7.36-8.96 0-4.9078-2.3872-9-7.36-9-4.1749 0-7.36 3.1092-7.36 9zm21.16 0c0 9.292-5.7804 14.44-13.8 14.44-7.1983 0-13.8-4.5179-13.8-14.44 0-9.2833 6.2024-14.48 13.8-14.48 7.6238 0 13.8 4.991 13.8 14.48zm24.84-13.84v5.32h-8.36v22.4h-6.24v-22.4h-8.36v-5.32zm4 27.72v-27.72h18.56v5.24h-12.32v5.8h10.96v5.24h-10.96v11.44z" fill="#076678" aria-label="OTF"/>
  <path d="m104.3 196.36c-7.5976-1e-5 -13.801 5.1971-13.801 14.48 0 0.51971 0.02909 1.0157 0.06445 1.5059 0.63324-8.3412 6.5583-12.986 13.736-12.986 7.2174 0 13.128 4.48 13.738 13.008 0.0361-0.4973 0.0605-1.0035 0.0605-1.5274 0-9.489-6.175-14.48-13.799-14.48zm15.68 0.64062v3h22.959v-3zm26.959 0v3h18.561v-3zm6.2402 11.039v3h10.961v-3zm-41.604 4.2988c-0.45365 4.291-2.8946 7.4629-7.2754 7.4629-4.0598 0-6.8022-2.7195-7.2793-7.4473-0.04808 0.4762-0.08203 0.9666-0.08203 1.4863 0 5.6626 2.8843 8.9609 7.3613 8.9609 4.8781 0 7.3594-3.928 7.3594-8.9609 0-0.51188-0.0318-1.0115-0.084-1.502z" fill="#282828" opacity=".2"/>
  <path d="m112.37 80.142-6.943 48.15-9.8166-39.452-30.45 11.026 4.3581 12.703 16.707-6.1972 14.667 58.628h12.603l10.161-71.566 53.57-0.3003v10.313l12.903 0.13785 0.71546-23.443zm56.509 25.522-16.748 18.853-16.401-18.246-9.7553 8.8412 17.317 19.27-17.317 19.254 9.7553 8.8429 16.408-18.256 16.408 18.255 9.7738-8.8412-17.329-19.255 17.267-19.202z" clip-rule="evenodd" fill="#ebdbb2" fill-rule="evenodd" opacity=".1" stroke-width=".84018"/>
  <path d="m112.37 75.142-6.943 48.15-9.8166-39.452-30.45 11.026 4.3581 12.703 16.707-6.1972 14.667 58.628h12.603l10.161-71.566 53.57-0.3003v10.313l12.903 0.13785 0.71546-23.443zm56.509 25.522-16.748 18.853-16.401-18.246-9.7553 8.8412 17.317 19.27-17.317 19.254 9.7553 8.8429 16.408-18.256 16.408 18.255 9.7738-8.8412-17.329-19.255 17.267-19.202z" clip-rule="evenodd" fill="#076678" fill-rule="evenodd" stroke-width=".84018"/>
  <path d="m112.37 75.142-6.9434 48.148-9.8164-39.451-30.449 11.025 1.5254 4.4473 28.924-10.473 9.8164 39.451 6.9434-48.148h78.322l0.15235-5zm56.51 25.521-16.748 18.854-16.402-18.246-9.7539 8.8398 2.4766 2.7559 7.2773-6.5957 16.402 18.246 16.748-18.854 7.0254 7.1289 2.3516-2.6152zm-5.6406 31.215-2.248 2.5019 14.848 16.5 2.4805-2.2441zm-22.195 2e-3 -15.068 16.756 2.4766 2.2461 14.84-16.5z" fill="#282828" opacity=".2" stroke-width=".84018"/>
  <path d="m57 15c-9.9393 0-17 7.0595-17 17v192c0 9.9393 7.0595 17 17 17h142c9.9405 0 17-7.0607 17-17v-144l-65-64.998zm4.0332 4.9902 89.967 2e-3 60 60.009v139.75c0 9.4999-6.6575 16.248-16.033 16.248h-133.93c-9.3757 0-16.033-6.7481-16.033-16.248v-183.51c0-9.501 6.6586-16.25 16.033-16.25z" fill="url(#linearGradient14-5-2)" style="paint-order:markers fill stroke"/>
  <path d="m151 15.002v52.914c0 9.6525 7.8639 17.084 17.518 17.084l47.482-1.34e-4v-5z" fill="#282828" opacity=".3" stroke-width="1.0833"/>
  <path d="m151 15.001v47.916c0 9.6525 7.8639 17.084 17.518 17.084l47.482-1.34e-4z" fill="url(#linearGradient7-6)" stroke-width="1.0833"/>
  <text x="80.287903" y="281.88675" font-family="'NotoSerif Nerd Font Propo'" font-size="100px" font-stretch="semi-condensed" font-weight="500" letter-spacing="0px" word-spacing="0px" style="font-variant-ligatures:none;line-height:1.25" xml:space="preserve"><tspan x="80.287903" y="281.88675"/></text>
</svg>
