<svg width="256" height="256" version="1.1" viewBox="0 0 256 256" xmlns="http://www.w3.org/2000/svg">
  <defs>
    <linearGradient id="linearGradient7-6-0-1" x1="186" x2="156" y1="45.006" y2="75.012" gradientTransform="matrix(1.0833,0,0,1.0833,-17.998,-1.2516)" gradientUnits="userSpaceOnUse">
      <stop stop-color="#fb4934" offset="0"/>
      <stop stop-color="#cc241d" offset=".3027"/>
      <stop stop-color="#9d0006" offset="1"/>
    </linearGradient>
    <linearGradient id="linearGradient14-4" x1="128" x2="128" y1="15.001" y2="241" gradientTransform="translate(0,4.8e-4)" gradientUnits="userSpaceOnUse">
      <stop stop-color="#9d0006" stop-opacity=".097113" offset="0"/>
      <stop stop-color="#9d0006" stop-opacity=".048556" offset=".2"/>
      <stop stop-color="#9d0006" stop-opacity=".051181" offset=".70405"/>
      <stop stop-color="#282828" stop-opacity=".053806" offset=".80473"/>
      <stop stop-color="#282828" stop-opacity=".14698" offset="1"/>
    </linearGradient>
    <linearGradient id="linearGradient30" x1="46.306" x2="150.92" y1="98" y2="181" gradientUnits="userSpaceOnUse">
      <stop stop-color="#d79921" offset="0"/>
      <stop stop-color="#b57614" offset="1"/>
    </linearGradient>
    <linearGradient id="linearGradient32" x1="84.404" x2="84.404" y1="65" y2="98" gradientUnits="userSpaceOnUse">
      <stop stop-color="#fb4934" offset="0"/>
      <stop stop-color="#cc241d" offset="1"/>
    </linearGradient>
    <linearGradient id="linearGradient34" x1="92.314" x2="92.314" y1="15.001" y2="40" gradientUnits="userSpaceOnUse">
      <stop stop-color="#fb4934" offset="0"/>
      <stop stop-color="#cc241d" offset="1"/>
    </linearGradient>
  </defs>
  <path d="m57 241c-9.9393 0-17-7.0595-17-17v-43h176v43c0 9.9405-7.0607 17-17 17z" fill="#cc241d" stroke-linecap="round" stroke-linejoin="round" stroke-miterlimit="0" style="paint-order:markers fill stroke"/>
  <path d="m40 98v83h176v-83z" fill="url(#linearGradient30)" stroke-width="4.15"/>
  <path d="m89.16 200v5.32h-8.36v22.4h-6.24v-22.4h-8.36v-5.32zm22.52 22.36v5.36h-18.52v-27.72h6.24v22.36zm16.72-17.56c-6.2421 0-8.24 3.9646-8.24 9.04 0 5.0845 2.3324 9.08 7.68 9.08 1.7593 0 2.5214-0.0803 3.08-0.2v-9.64h6.24v13.72c-3.5405 1.3909-8.9813 1.44-9.72 1.44-7.9578 0-13.76-4.8354-13.76-14.4 0-9.3096 6.2351-14.48 13.88-14.48 4.3252 0 7.7259 1.1987 9.2 2.12l-1.8 5c-0.98137-0.52135-3.5054-1.68-6.56-1.68zm14.56 22.92v-27.72h18.56v5.24h-12.32v5.8h10.96v5.24h-10.96v11.44zm39.36 0c-0.95148-1.903-3.0803-5.9231-5.72-9.56-2.4596 3.1624-5.5122 8.7835-5.88 9.56h-7.12c2.4908-4.5853 5.4549-8.9918 9.32-14.36l-8.92-13.36h7.56l5.4 8.64 5.28-8.64h7.12l-8.8 13.44c2.0317 2.6364 5.968 8.0335 9.24 14.28z" fill="#ebdbb2" opacity=".15" aria-label="TLGFX"/>
  <path d="m89.16 197v5.32h-8.36v22.4h-6.24v-22.4h-8.36v-5.32zm22.52 22.36v5.36h-18.52v-27.72h6.24v22.36zm16.72-17.56c-6.2421 0-8.24 3.9646-8.24 9.04 0 5.0845 2.3324 9.08 7.68 9.08 1.7593 0 2.5214-0.0803 3.08-0.2v-9.64h6.24v13.72c-3.5405 1.3909-8.9813 1.44-9.72 1.44-7.9578 0-13.76-4.8354-13.76-14.4 0-9.3096 6.2351-14.48 13.88-14.48 4.3252 0 7.7259 1.1987 9.2 2.12l-1.8 5c-0.98137-0.52135-3.5054-1.68-6.56-1.68zm14.56 22.92v-27.72h18.56v5.24h-12.32v5.8h10.96v5.24h-10.96v11.44zm39.36 0c-0.95148-1.903-3.0803-5.9231-5.72-9.56-2.4596 3.1624-5.5122 8.7835-5.88 9.56h-7.12c2.4908-4.5853 5.4549-8.9918 9.32-14.36l-8.92-13.36h7.56l5.4 8.64 5.28-8.64h7.12l-8.8 13.44c2.0317 2.6364 5.968 8.0335 9.24 14.28z" fill="#9d0006" aria-label="TLGFX"/>
  <path d="m127.56 196.36c-7.6449 0-13.881 5.1709-13.881 14.48 0 0.53599 0.0247 1.0523 0.0605 1.5586 0.61388-8.3966 6.5812-13.039 13.82-13.039 3.6059 0 6.5509 0.83354 8.291 1.6445l0.90821-2.5234c-1.4741-0.92131-4.874-2.1211-9.1992-2.1211zm-61.361 0.64062v3h22.961v-3zm26.961 0v3h6.2402v-3zm49.801 0v3h18.559v-3zm21.039 0 2.0039 3h5.5566l5.3984 8.6406 5.2812-8.6406h5.1543l1.9648-3h-7.1192l-5.2812 8.6406-5.3984-8.6406zm-14.801 11.039v3h10.961v-3zm-18.279 2.041v3h6.2402v-3zm40.969 1.7363c-3.3505 4.7074-6.033 8.7511-8.2891 12.904h1.7207c2.1231-3.5623 4.5813-7.1692 7.5996-11.361zm9.7188 0.0254-1.0469 1.5976c1.6967 2.2017 4.7191 6.3421 7.5762 11.281h1.6641c-2.8066-5.358-6.0305-9.977-8.1934-12.879zm-61.363 0.40234c-0.0495 0.51894-0.084 1.0472-0.084 1.5957 0 5.0845 2.332 9.0801 7.6797 9.0801 1.7593 0 2.5215-0.0795 3.0801-0.19922v-3c-0.55857 0.1197-1.3208 0.19922-3.0801 0.19922-4.8401 0-7.1894-3.2846-7.5957-7.6758zm-20.844 7.1152v3h12.279v-3z" fill="#282828" opacity=".2"/>
  <path d="m48.301 65c-4.5982 0-8.3008 3.7006-8.3008 8.2988v24.701h176v-18l-15-15z" fill="url(#linearGradient32)" stroke-width="4.15"/>
  <circle cx="128" cy="140" r="38" fill="#282828" opacity=".2" stroke-width="3.8"/>
  <circle cx="128" cy="140" r="28" fill="#282828" opacity=".15" stroke-width="4"/>
  <path d="m40 44v16.699c0 4.5982 3.7026 8.3008 8.3008 8.3008h152.7l-25-25z" fill="#282828" opacity=".2" stroke-width="4.15"/>
  <path d="m40 40v16.699c0 4.5982 3.7026 8.3008 8.3008 8.3008h152.7l-25-25z" fill="#fabd2f" stroke-width="4.15"/>
  <path d="m40 40h136l4 4h-140z" fill="#ebdbb2" opacity=".3" stop-color="#000000" stroke-linecap="square" stroke-miterlimit="0" stroke-width=".89443" style="paint-order:markers fill stroke"/>
  <path d="m57 15c-9.9393 0-17 7.0595-17 17v8h135.9l-24.898-24.998z" fill="url(#linearGradient34)" style="paint-order:markers fill stroke"/>
  <path d="m91.999 46a8.0002 8.0002 0 0 0-7.999 7.9991 8.0002 8.0002 0 0 0 7.999 8.0009 8.0002 8.0002 0 0 0 8.001-8.0009 8.0002 8.0002 0 0 0-8.001-7.9991zm24.001 0a8.0002 8.0002 0 0 0-7.9991 7.9991 8.0002 8.0002 0 0 0 7.9991 8.0009 8.0002 8.0002 0 0 0 8.0009-8.0009 8.0002 8.0002 0 0 0-8.0009-7.9991zm24.001 0a8.0002 8.0002 0 0 0-8.0009 7.9991 8.0002 8.0002 0 0 0 8.0009 8.0009 8.0002 8.0002 0 0 0 8.0009-8.0009 8.0002 8.0002 0 0 0-8.0009-7.9991z" fill="#282828" opacity=".15" stroke-width="4.0001"/>
  <path d="m91.999 44a8.0002 8.0002 0 0 0-7.999 7.9991 8.0002 8.0002 0 0 0 7.999 8.0009 8.0002 8.0002 0 0 0 8.001-8.0009 8.0002 8.0002 0 0 0-8.001-7.9991zm24.001 0a8.0002 8.0002 0 0 0-7.9991 7.9991 8.0002 8.0002 0 0 0 7.9991 8.0009 8.0002 8.0002 0 0 0 8.0009-8.0009 8.0002 8.0002 0 0 0-8.0009-7.9991zm24.001 0a8.0002 8.0002 0 0 0-8.0009 7.9991 8.0002 8.0002 0 0 0 8.0009 8.0009 8.0002 8.0002 0 0 0 8.0009-8.0009 8.0002 8.0002 0 0 0-8.0009-7.9991z" fill="#b57614" stroke-width="4.0001"/>
  <path d="m91.999 44a8.0002 8.0002 0 0 0-8 8 8.0002 8.0002 0 0 0 0.11328 1 8.0002 8.0002 0 0 1 7.8867-7 8.0002 8.0002 0 0 1 7.9082 7.1816 8.0002 8.0002 0 0 0 0.0918-1.1816 8.0002 8.0002 0 0 0-8-8zm24 0a8.0002 8.0002 0 0 0-8 8 8.0002 8.0002 0 0 0 0.11328 1 8.0002 8.0002 0 0 1 7.8867-7 8.0002 8.0002 0 0 1 7.9082 7.1855 8.0002 8.0002 0 0 0 0.0918-1.1855 8.0002 8.0002 0 0 0-8-8zm24 0a8.0002 8.0002 0 0 0-8 8 8.0002 8.0002 0 0 0 0.11328 1 8.0002 8.0002 0 0 1 7.8867-7 8.0002 8.0002 0 0 1 7.9102 7.1816 8.0002 8.0002 0 0 0 0.09179-1.1816 8.0002 8.0002 0 0 0-8.002-8z" fill="#ebdbb2" opacity=".1" stroke-width="4.0001"/>
  <rect x="55" y="44" width="7" height="16" fill="#504945" stroke-width="3.055"/>
  <rect x="52" y="54" width="13" height="8" fill="#282828" opacity=".3" stroke-width="4.1633"/>
  <rect x="52" y="52" width="13" height="8" fill="#3c3836" stroke-width="4.1633"/>
  <path d="m52 52v2h13v-2z" fill="#ebdbb2" opacity=".1" stroke-width="4.1633"/>
  <path d="m117.26 71.718c-2.8691 0-5.4713 1.1886-7.5771 3.4551-2.1321 2.2928-3.4764 5.5336-3.4764 8.3008 0 2.5563 1.3971 4.1362 3.6608 4.1362 1.632 0 3.028-0.42456 5.3707-1.6105-0.39486 1.5812-0.86987 3.2939-1.1068 3.8737-0.52645 1.4231-1.2938 2.0078-2.6889 2.0078-0.76336 0-2.0482-0.10934-2.8379-0.2412l-1.1068 1.7382c0.9476 0.10534 1.3678 0.13477 1.8942 0.13477 2.1058 0 3.8959-0.95051 5.6332-2.9798 1.1319-1.2913 1.6063-2.3987 2.3696-5.4558l1.0287-4.1078h0.54629l1.2132-0.73786c-1.0529-0.07921-3.4761-0.13476-5.924-0.13476l-1.6034 0.81589v0.21286c1.3161-0.07922 2.6082-0.12968 3.8453-0.1562l-0.95065 3.7956c-1.1055 1.0542-2.6842 1.7666-3.895 1.7666-1.9478 0-3.1571-1.5322-3.1571-3.9304 0-5.139 3.4734-9.9326 7.1585-9.9326 1.0792 0 1.9972 0.44385 2.4973 1.2345 0.34218 0.52708 0.47349 0.97896 0.63143 2.0858l1.951-2.1922c-0.50011-1.5022-1.4759-2.0788-3.4764-2.0788zm21.639 0c-1.1335 0.64335-2.0786 0.86554-3.5899 0.86554l-3.6183-0.0218c-2.9146 0-4.61 0.39006-6.0943 1.3551-1.5113 1.0145-2.4335 2.7484-2.4335 4.5547 0 0.59388 0.085 1.0177 0.35489 1.9085l2.2632-0.94346c-0.43178-1.163-0.5392-1.7053-0.5392-2.4477 0-2.227 1.591-3.6112 4.1007-3.6112 0.324 0 0.78555 0.0218 1.2983 0.07081l-1.724 6.3568-0.97195 1.1423h0.67397l-0.73074 2.6463c-1.0795 3.9591-1.7285 4.6541-4.2923 4.6541-0.3509 0-0.81062-0.02538-1.8092-0.04972l-1.0502 1.6111c0.56674 0.04937 1.0511 0.07081 1.348 0.07081 1.6192 0 2.7807-0.47295 4.5619-1.8092 1.9701-1.4599 2.6726-2.5233 3.3203-4.874l0.6456-2.3767c1.5383-0.07414 2.8066-0.14566 2.8875-0.17036 0.75566-0.0988 0.97128-0.22558 1.646-0.84426h-4.2639l1.7311-6.3568 4.3136 0.09917c0.35089-0.27208 1.136-0.81349 1.7027-1.1351 0.13476-0.29677 0.16165-0.34872 0.26953-0.69529zm9.5352 3.6325c-1.0475 0-1.8024 0.48798-2.923 1.9581l-2.4618 3.0862-0.87975-4.4554c-0.073-0.36754-0.21431-0.51792-0.48242-0.51792-0.36544 0-1.4916 0.27098-3.7815 0.90812l-0.56045 0.70946c0.26807-0.04902 0.51577-0.09591 0.58886-0.12061 0.95003-0.19614 0.99889-0.19869 1.2912-0.19869 0.70647 0 1.0689 0.34799 1.3125 1.1564 0.41413 1.4701 0.75365 2.8899 1.0216 4.3845-1.9001 2.4748-3.2375 4.1428-3.7247 4.6328-0.65773 0.66155-1.2641 0.87971-2.4335 0.87971-0.21904 0-0.36936-6.57e-4 -0.75912-0.04972l-1.1919 1.8377c0.56031 0.07335 0.83169 0.09917 1.0997 0.09917 0.70648 0 1.482-0.14531 1.9936-0.39021 0.7552-0.36753 1.4138-1.0318 2.8024-2.845l1.4615-1.8872 1.0216-1.2983 1.0216 5.0514c0.24374 1.2986 0.39063 1.5892 0.7804 1.5892 0.19506 0 0.48904-0.05086 0.83009-0.14893 0.17036-0.02538 0.65973-0.11879 1.3906-0.2412 0.24374-0.04902 0.89641-0.17291 1.944-0.36892l0.41856-0.56048c-0.26807 0.02538-0.51577 0.04254-0.58885 0.04254-0.43847 0.04902-0.82766 0.07808-1.0713 0.07808-0.92571 0-1.5066-0.34654-1.8233-1.0571-0.38976-0.93111-0.66187-1.9796-1.3196-5.1649l-0.21976-1.1068 1.9014-2.3057c1.0719-1.3231 1.7532-1.8092 2.5328-1.8092 0.34109 0 0.63282 0.09953 1.0713 0.36892l1.0995-1.7382c-0.48723-0.39205-0.82624-0.51792-1.3622-0.51792z" fill="#282828" opacity=".2" stroke-width="3.6325"/>
  <path d="m117.26 71.205c-2.8691 0-5.4713 1.1886-7.5771 3.4551-2.1321 2.2928-3.4764 5.5336-3.4764 8.3008 0 2.5563 1.3971 4.1362 3.6608 4.1362 1.632 0 3.028-0.42456 5.3707-1.6105-0.39486 1.5812-0.86987 3.2939-1.1068 3.8737-0.52645 1.4231-1.2938 2.0078-2.6889 2.0078-0.76336 0-2.0482-0.10934-2.8379-0.2412l-1.1068 1.7382c0.9476 0.10534 1.3678 0.13477 1.8942 0.13477 2.1058 0 3.8959-0.95051 5.6332-2.9798 1.1319-1.2913 1.6063-2.3987 2.3696-5.4558l1.0287-4.1078h0.54629l1.2132-0.73786c-1.0529-0.07921-3.4761-0.13476-5.924-0.13476l-1.6034 0.81589v0.21286c1.3161-0.07922 2.6082-0.12968 3.8453-0.1562l-0.95065 3.7956c-1.1055 1.0542-2.6842 1.7666-3.895 1.7666-1.9478 0-3.1571-1.5322-3.1571-3.9304 0-5.139 3.4734-9.9326 7.1585-9.9326 1.0792 0 1.9972 0.44385 2.4973 1.2345 0.34218 0.52708 0.47349 0.97896 0.63143 2.0858l1.951-2.1922c-0.50011-1.5022-1.4759-2.0788-3.4764-2.0788zm21.639 0c-1.1335 0.64335-2.0786 0.86554-3.5899 0.86554l-3.6183-0.0218c-2.9146 0-4.61 0.39006-6.0943 1.3551-1.5113 1.0145-2.4335 2.7484-2.4335 4.5547 0 0.59388 0.085 1.0177 0.35489 1.9085l2.2632-0.94346c-0.43178-1.163-0.5392-1.7053-0.5392-2.4477 0-2.227 1.591-3.6112 4.1007-3.6112 0.324 0 0.78555 0.0218 1.2983 0.07081l-1.724 6.3568-0.97195 1.1423h0.67397l-0.73074 2.6463c-1.0795 3.9591-1.7285 4.6541-4.2923 4.6541-0.3509 0-0.81062-0.02538-1.8092-0.04972l-1.0502 1.6111c0.56674 0.04937 1.0511 0.07081 1.348 0.07081 1.6192 0 2.7807-0.47295 4.5619-1.8092 1.9701-1.4599 2.6726-2.5233 3.3203-4.874l0.6456-2.3767c1.5383-0.07414 2.8066-0.14566 2.8875-0.17036 0.75566-0.0988 0.97128-0.22558 1.646-0.84426h-4.2639l1.7311-6.3568 4.3136 0.09917c0.35089-0.27208 1.136-0.81349 1.7027-1.1351 0.13476-0.29677 0.16165-0.34872 0.26953-0.69529zm9.5352 3.6325c-1.0475 0-1.8024 0.48798-2.923 1.9581l-2.4618 3.0862-0.87975-4.4554c-0.073-0.36754-0.21431-0.51792-0.48242-0.51792-0.36544 0-1.4916 0.27098-3.7815 0.90812l-0.56045 0.70946c0.26807-0.04902 0.51577-0.09591 0.58886-0.12061 0.95003-0.19614 0.99889-0.19869 1.2912-0.19869 0.70647 0 1.0689 0.34799 1.3125 1.1564 0.41413 1.4701 0.75365 2.8899 1.0216 4.3845-1.9001 2.4748-3.2375 4.1428-3.7247 4.6328-0.65773 0.66155-1.2641 0.87971-2.4335 0.87971-0.21904 0-0.36936-6.57e-4 -0.75912-0.04972l-1.1919 1.8377c0.56031 0.07335 0.83169 0.09917 1.0997 0.09917 0.70648 0 1.482-0.14531 1.9936-0.39021 0.7552-0.36753 1.4138-1.0318 2.8024-2.845l1.4615-1.8872 1.0216-1.2983 1.0216 5.0514c0.24374 1.2986 0.39063 1.5892 0.7804 1.5892 0.19506 0 0.48904-0.05086 0.83009-0.14893 0.17036-0.02538 0.65973-0.11879 1.3906-0.2412 0.24374-0.04902 0.89641-0.17291 1.944-0.36892l0.41856-0.56048c-0.26807 0.02538-0.51577 0.04254-0.58885 0.04254-0.43847 0.04902-0.82766 0.07808-1.0713 0.07808-0.92571 0-1.5066-0.34654-1.8233-1.0571-0.38976-0.93111-0.66187-1.9796-1.3196-5.1649l-0.21976-1.1068 1.9014-2.3057c1.0719-1.3231 1.7532-1.8092 2.5328-1.8092 0.34109 0 0.63282 0.09953 1.0713 0.36892l1.0995-1.7382c-0.48723-0.39205-0.82624-0.51792-1.3622-0.51792z" fill="#ebdbb2" stroke-width="3.6325"/>
  <path d="m117.26 71.205c-2.8691 0-5.4704 1.1886-7.5762 3.4551-2.1321 2.2928-3.4766 5.5336-3.4766 8.3008 0 0.08254 5e-3 0.1617 8e-3 0.24219 0.0838-2.7057 1.4058-5.8108 3.4688-8.0293 2.1058-2.2665 4.707-3.4551 7.5762-3.4551 1.8305 0 2.7988 0.49172 3.334 1.7246l0.14258-0.16016c-0.50012-1.5022-1.4761-2.0781-3.4766-2.0781zm21.639 0c-1.1335 0.64335-2.0786 0.86523-3.5898 0.86523l-3.6172-0.02148c-2.9146 0-4.6094 0.39043-6.0938 1.3555-1.5113 1.0145-2.4336 2.7484-2.4336 4.5547 0 0.10672 6e-3 0.20525 0.0117 0.30469 0.0682-1.73 0.96916-3.3705 2.4219-4.3457 1.4843-0.96504 3.1791-1.3555 6.0937-1.3555l3.6172 0.02148c1.3988 0 2.3148-0.19593 3.3418-0.73438 0.11028-0.2425 0.1484-0.32441 0.24804-0.64453zm-8.3945 2.2344-1.5859 5.8535-0.97265 1.1426h0.43555l0.53711-0.62891 1.7226-6.3574c-0.0487-0.0047-0.089-0.0056-0.13672-0.0098zm17.932 1.3984c-1.0475 0-1.8032 0.4869-2.9238 1.957l-2.4629 3.0879-0.87891-4.457c-0.073-0.36754-0.21431-0.51758-0.48242-0.51758-0.36544 0-1.4913 0.27107-3.7812 0.9082l-0.56055 0.70898c0.22082-0.04038 0.37741-0.07138 0.48437-0.09766l0.0762-0.09766c2.2899-0.63714 3.4158-0.9082 3.7812-0.9082 0.26811 0 0.40942 0.15004 0.48242 0.51758l0.87891 4.4551 2.4629-3.0859c1.1206-1.4701 1.8763-1.957 2.9238-1.957 0.44852 1e-6 0.76176 0.09888 1.1367 0.35742l0.22461-0.35352c-0.48723-0.39205-0.82539-0.51758-1.3613-0.51758zm-23.182 1.8926c-5e-3 0.08588-0.0117 0.17118-0.0117 0.25976 0 0.63405 0.0928 1.1444 0.38478 1.998l0.1543-0.06445c-0.38019-1.024-0.50202-1.5715-0.52735-2.1934zm5.7695 2.5625-0.14062 0.51367h3.627c0.18313-0.11923 0.37297-0.27182 0.63672-0.51367zm-16.764 0.29102-1.6035 0.81641v0.21289c0.22046-0.01327 0.43532-0.02152 0.65429-0.0332l0.94922-0.48242c1.9852 0 3.9134 0.03769 5.1484 0.09375l0.77539-0.47266c-1.0529-0.07921-3.4759-0.13477-5.9238-0.13477zm14.219 1.3633-0.58984 2.1348c-1.0795 3.9591-1.7292 4.6523-4.293 4.6523-0.3509 0-0.81006-0.02449-1.8086-0.04883l-1.0508 1.6113c0.11705 0.0102 0.21121 0.01361 0.32031 0.02148l0.73047-1.1191c0.99853 0.02434 1.4577 0.04883 1.8086 0.04883 2.5638 0 3.2135-0.6952 4.293-4.6543l0.73047-2.6465zm-11.977 0.02344c-0.0421 9.03e-4 -0.0867 0.0029-0.12891 0.0039l-0.82226 3.2773c-1.1055 1.0542-2.6837 1.7676-3.8945 1.7676-1.8699 0-3.0563-1.4156-3.1484-3.6504-2e-3 0.07767-0.01 0.15458-0.01 0.23242 0 2.3982 1.2104 3.9297 3.1582 3.9297 1.2108 0 2.789-0.71145 3.8945-1.7656zm26.771 0.2832-0.082 0.09961 0.22071 1.1055c0.65774 3.1853 0.9286 4.2349 1.3184 5.166 0.31668 0.71055 0.8985 1.0566 1.8242 1.0566 0.24362 0 0.63185-0.02911 1.0703-0.07813 0.023 0 0.13279-0.01055 0.18554-0.01367l0.4043-0.54102c-0.26807 0.02538-0.51676 0.04102-0.58984 0.04102-0.43847 0.04902-0.8267 0.07813-1.0703 0.07813-0.92571 0-1.5075-0.3461-1.8242-1.0566-0.38976-0.93111-0.66062-1.9788-1.3184-5.1641zm-1.793 0.5957c-1.85 2.4071-3.1654 4.0494-3.6445 4.5312-0.65773 0.66155-1.2643 0.87891-2.4336 0.87891-0.21904 0-0.37001 2.34e-4 -0.75977-0.04883l-1.1914 1.8379c0.13214 0.0173 0.2068 0.02286 0.31055 0.03516l0.88085-1.3594c0.38976 0.04906 0.54073 0.04883 0.75977 0.04883 1.1693 0 1.7759-0.21736 2.4336-0.87891 0.48722-0.49006 1.8245-2.1581 3.7246-4.6328-0.0249-0.13882-0.054-0.27448-0.0801-0.41211zm-26.242 4.1504c-0.0547 0.02767-0.1026 0.04932-0.15625 0.07617-0.35782 1.3909-0.74253 2.7793-0.94922 3.2852-0.52645 1.4231-1.2944 2.0078-2.6894 2.0078-0.76337 0-2.0482-0.11033-2.8379-0.24219l-1.1074 1.7383c0.13224 0.0147 0.19517 0.01743 0.3086 0.0293l0.79882-1.2539c0.78966 0.13186 2.0745 0.24023 2.8379 0.24023 1.395 0 2.163-0.58473 2.6894-2.0078 0.23691-0.57982 0.71061-2.2918 1.1055-3.873z" fill="#fbf1c7" opacity=".6" stroke-width="3.6325"/>
  <path d="m57 15c-9.9393 0-17 7.0595-17 17v192c0 9.9393 7.0595 17 17 17h142c9.9405 0 17-7.0607 17-17v-144l-65-65zm4.0332 4.9902 89.967 0.01 60 60 2e-4 139.75c1e-5 9.4999-6.6575 16.248-16.033 16.248h-133.93c-9.3757 0-16.033-6.7481-16.033-16.248v-183.51c0-9.501 6.6586-16.25 16.033-16.25z" fill="url(#linearGradient14-4)" style="paint-order:markers fill stroke"/>
  <path d="m151 15.002v52.914c0 9.6525 7.8639 17.084 17.518 17.084l47.482-1.34e-4v-5z" fill="#282828" opacity=".2" stroke-width="1.0833"/>
  <path d="m151 15v47.916c0 9.6525 7.8639 17.084 17.518 17.084l47.482-1.34e-4z" fill="url(#linearGradient7-6-0-1)" stroke-width="1.0833"/>
  <rect x="40" y="98" width="176" height="4" ry="0" fill="#282828" opacity=".2" stroke-linecap="square" stroke-miterlimit="0" stroke-width="22.836" style="paint-order:markers fill stroke"/>
</svg>
