<svg width="256" height="256" version="1.1" viewBox="0 0 256 256" xmlns="http://www.w3.org/2000/svg">
  <defs>
    <linearGradient id="linearGradient7-6-0-5-7" x1="186" x2="156" y1="45.006" y2="75.012" gradientTransform="matrix(1.0833 0 0 1.0833 -17.998 -1.2495)" gradientUnits="userSpaceOnUse">
      <stop stop-color="#b8bb26" offset="0"/>
      <stop stop-color="#98971a" offset=".3027"/>
      <stop stop-color="#79740e" offset="1"/>
    </linearGradient>
    <linearGradient id="linearGradient14-5-7" x1="128" x2="128" y1="15.001" y2="241" gradientTransform="translate(5e-4,9.8e-4)" gradientUnits="userSpaceOnUse">
      <stop stop-color="#ebdbb2" stop-opacity=".15" offset="0"/>
      <stop stop-color="#ebdbb2" stop-opacity=".05" offset=".2"/>
      <stop stop-opacity="0" offset=".70405"/>
      <stop stop-opacity=".05" offset=".80473"/>
      <stop stop-opacity=".1" offset="1"/>
    </linearGradient>
    <linearGradient id="linearGradient26-1" x1="-160" x2="-160" y2="226" gradientTransform="translate(267 15)" gradientUnits="userSpaceOnUse">
      <stop stop-color="#79740e" offset="0"/>
      <stop stop-color="#79740e" offset="1"/>
    </linearGradient>
  </defs>
  <path d="m57 15c-9.9393 0-17 7.0595-17 17v192c0 9.9393 7.0595 17 17 17h142c9.9405 0 17-7.0607 17-17v-144l-64.999-64.999z" fill="url(#linearGradient26-1)" stroke-linecap="round" stroke-linejoin="round" stroke-miterlimit="0" style="paint-order:markers fill stroke"/>
  <path d="m57 241c-9.9393 0-17-7.0595-17-17v-43h176v43c0 9.9405-7.0607 17-17 17z" fill="#b8bb26" opacity=".7" stroke-linecap="round" stroke-linejoin="round" stroke-miterlimit="0" style="paint-order:markers fill stroke"/>
  <path d="m95.42 222.96c3.2335 0 4.48-0.98172 4.48-2.88 0-1.533-1.0262-2.6487-5.68-4.2-3.4634-1.2224-7.6-2.955-7.6-8.2 0-5.1508 4.0386-8.32 10.2-8.32 3.7211 0 6.4107 0.94404 8.2 1.92l-1.8 4.92c-1.873-0.99727-3.8907-1.4678-6-1.52-2.9192 0-4.2 0.79833-4.2 2.52 0.24727 2.3866 2.8628 3.0035 4.8 3.68 5.9312 2.1967 8.52 4.0081 8.52 9.24 0 6.7588-5.9696 8.16-10.92 8.16-2.0763 0-6.0494-0.27394-9.28-2.12l1.76-4.96c2.3212 1.3162 4.8902 1.7066 7.52 1.76zm35.48-22.96v5.32h-8.36v22.4h-6.24v-22.4h-8.36v-5.32zm23.64 2.96c1.544 5.5115 3.1326 11.014 4.96 16.44 1.611-6.3983 2.7657-12.9 3.88-19.4h6.48c-0.95902 4.7677-3.5295 16.692-7.16 27.72h-5.72c-1.3616-3.7346-2.4335-6.9585-5.32-16.52-1.6632 5.5337-3.2757 11.084-5.24 16.52h-5.72c-3.3422-10.153-5.6178-20.053-7.16-27.72h6.76c0.12837 0.75737 2.0977 12.325 4.04 19.4 1.3269-3.6121 1.5097-4.1845 4.88-16.44z" fill="#fbf1c7" opacity=".15" aria-label="STW"/>
  <path d="m95.42 219.96c3.2335 0 4.48-0.98172 4.48-2.88 0-1.533-1.0262-2.6487-5.68-4.2-3.4634-1.2224-7.6-2.955-7.6-8.2 0-5.1508 4.0386-8.32 10.2-8.32 3.7211 0 6.4107 0.94404 8.2 1.92l-1.8 4.92c-1.873-0.99727-3.8907-1.4678-6-1.52-2.9192 0-4.2 0.79833-4.2 2.52 0.24727 2.3866 2.8628 3.0035 4.8 3.68 5.9312 2.1967 8.52 4.0081 8.52 9.24 0 6.7588-5.9696 8.16-10.92 8.16-2.0763 0-6.0494-0.27394-9.28-2.12l1.76-4.96c2.3212 1.3162 4.8902 1.7066 7.52 1.76zm35.48-22.96v5.32h-8.36v22.4h-6.24v-22.4h-8.36v-5.32zm23.64 2.96c1.544 5.5115 3.1326 11.014 4.96 16.44 1.611-6.3983 2.7657-12.9 3.88-19.4h6.48c-0.95902 4.7677-3.5295 16.692-7.16 27.72h-5.72c-1.3616-3.7346-2.4335-6.9585-5.32-16.52-1.6632 5.5337-3.2757 11.084-5.24 16.52h-5.72c-3.3422-10.153-5.6178-20.053-7.16-27.72h6.76c0.12837 0.75737 2.0977 12.325 4.04 19.4 1.3269-3.6121 1.5097-4.1845 4.88-16.44z" fill="#79740e" aria-label="STW"/>
  <path d="m96.82 196.36c-6.1614 0-10.201 3.1696-10.201 8.3203 0 0.53497 0.0538 1.0252 0.13476 1.4902 0.72322-4.2495 4.5348-6.8105 10.066-6.8105 3.1296 0 5.5212 0.67 7.2695 1.4629l0.92969-2.543c-1.7893-0.97596-4.4781-1.9199-8.1992-1.9199zm11.119 0.64062v3h22.961v-3zm25.6 0c0.18842 0.93669 0.42385 2.0003 0.63477 3h6.1269c0.12837 0.75737 2.0968 12.325 4.0391 19.4 1.3269-3.6121 1.5106-4.1839 4.8809-16.439h5.3184c1.544 5.5115 3.1335 11.014 4.9609 16.439 1.611-6.3983 2.7666-12.9 3.8809-19.4h5.8457c0.22698-1.0661 0.48269-2.2537 0.63282-3h-6.4785c-1.1143 6.5-2.2699 13.002-3.8809 19.4-1.8274-5.4256-3.417-10.928-4.9609-16.439h-5.3184c-3.3703 12.256-3.554 12.827-4.8809 16.439-1.9423-7.0754-3.9107-18.643-4.0391-19.4zm-39.963 8.6504c-0.37646 0.39203-0.55664 0.90539-0.55664 1.5488 0.24727 2.3866 2.8636 3.0052 4.8008 3.6816 5.275 1.9537 7.9003 3.6076 8.418 7.6289 0.061-0.43818 0.10156-0.8968 0.10156-1.3906 0-5.2319-2.5883-7.0415-8.5195-9.2383-1.4671-0.5123-3.3222-0.992-4.2441-2.2305zm-5.6758 12.549-1.7598 4.9609c0.29448 0.16827 0.59948 0.30999 0.9043 0.45312l0.85547-2.4141c2.3212 1.3162 4.8898 1.7083 7.5195 1.7617 3.2335 0 4.4805-0.98258 4.4805-2.8809 0-0.51028-0.13371-0.97262-0.45703-1.4219-0.60818 0.85489-1.8658 1.3027-4.0234 1.3027-2.6298-0.0534-5.1983-0.44556-7.5195-1.7617z" fill="#282828" opacity=".2"/>
  <path d="m70 48v60h60v-60zm75 50v10h41v-10zm-75 20v10h116v-10zm0 20v10h116v-10zm0 20v10h116v-10z" fill="#282828" opacity=".2" style="paint-order:markers fill stroke"/>
  <path d="m70 45v60h60v-60zm75 50v10h41v-10zm-75 20v10h116v-10zm0 20v10h116v-10zm0 20v10h116v-10z" fill="#b8bb26" style="paint-order:markers fill stroke"/>
  <path d="m70 45v3h60v-3zm75 50v3h41v-3zm-75 20v3h116v-3zm0 20v3h116v-3zm0 20v3h116v-3z" fill="#ebdbb2" opacity=".2" style="paint-order:markers fill stroke"/>
  <path d="m115 54c-5.5228 0-10 4.4772-10 10s4.4772 10 10 10 10-4.4772 10-10-4.4772-10-10-10zm-24 16-16 30h50l-13-20-7 10z" fill="#ebdbb2" opacity=".2" stroke-linecap="round" stroke-linejoin="round" stroke-miterlimit="0" stroke-width="1.5" style="paint-order:markers fill stroke"/>
  <path d="m115 52c-5.5228 0-10 4.4772-10 10s4.4772 10 10 10 10-4.4772 10-10-4.4772-10-10-10zm-24 16-16 30h50l-13-20-7 10z" fill="#79740e" stroke-linecap="round" stroke-linejoin="round" stroke-miterlimit="0" stroke-width="1.5" style="paint-order:markers fill stroke"/>
  <path d="m115 52c-5.5228 0-10 4.4772-10 10 0 0.3379 0.0161 0.67071 0.0488 1 0.50227-5.0528 4.7662-9 9.9512-9s9.4489 3.9472 9.9512 9c0.0328-0.32929 0.0489-0.6621 0.0489-1 0-5.5228-4.4772-10-10-10zm-24 16-16 30h1.0664l14.934-28 14 20 7-10 11.699 18h1.3008l-13-20-7 10z" fill="#282828" opacity=".2" stroke-linecap="round" stroke-linejoin="round" stroke-miterlimit="0" stroke-width="1.5" style="paint-order:markers fill stroke"/>
  <path d="m57 15c-9.9393 0-17 7.0595-17 17v192c0 9.9393 7.0595 17 17 17h142c9.9405 0 17-7.0607 17-17v-144l-65-64.998zm4.0332 4.9902 89.967 2e-3 60 60.009v139.75c0 9.4999-6.6575 16.248-16.033 16.248h-133.93c-9.3757 0-16.033-6.7481-16.033-16.248v-183.51c0-9.501 6.6586-16.25 16.033-16.25z" fill="url(#linearGradient14-5-7)" style="paint-order:markers fill stroke"/>
  <path d="m151 15.002v52.914c0 9.6525 7.8639 17.084 17.518 17.084l47.482-1.34e-4v-5z" fill="#282828" opacity=".3" stroke-width="1.0833"/>
  <path d="m151 15.002v47.916c0 9.6525 7.8639 17.084 17.518 17.084l47.482-1.34e-4z" fill="url(#linearGradient7-6-0-5-7)" stroke-width="1.0833"/>
</svg>
