<svg width="256" height="256" version="1.1" viewBox="0 0 256 256" xmlns="http://www.w3.org/2000/svg">
  <defs>
    <linearGradient id="linearGradient18" x1="128" x2="128" y1="15" y2="241" gradientUnits="userSpaceOnUse">
      <stop stop-color="#fe8019" offset="0"/>
      <stop stop-color="#d65d0e" offset="1"/>
    </linearGradient>
    <linearGradient id="linearGradient14-5-0" x1="128" x2="128" y1="15.001" y2="241" gradientTransform="translate(0,4.8e-4)" gradientUnits="userSpaceOnUse">
      <stop stop-color="#ebdbb2" stop-opacity=".2" offset="0"/>
      <stop stop-color="#ebdbb2" stop-opacity=".1" offset=".2"/>
      <stop stop-opacity="0" offset=".70405"/>
      <stop stop-opacity=".05" offset=".80473"/>
      <stop stop-opacity=".1" offset="1"/>
    </linearGradient>
    <linearGradient id="linearGradient7-6-0-0" x1="186" x2="156" y1="45.006" y2="75.012" gradientTransform="matrix(1.0833 0 0 1.0833 -17.997 -1.2515)" gradientUnits="userSpaceOnUse">
      <stop stop-color="#fe8019" offset="0"/>
      <stop stop-color="#d65d0e" offset=".3027"/>
      <stop stop-color="#af3a03" offset="1"/>
    </linearGradient>
  </defs>
  <path d="m57 15c-9.9393 0-17 7.0595-17 17v192c0 9.9393 7.0595 17 17 17h142c9.9405 0 17-7.0607 17-17v-144l-65-65z" fill="url(#linearGradient18)" stroke-linecap="round" stroke-linejoin="round" stroke-miterlimit="0" style="paint-order:markers fill stroke"/>
  <path d="m57 241c-9.9393 0-17-7.0595-17-17v-43h176v43c0 9.9405-7.0607 17-17 17z" fill="#fe8019" opacity=".7" stroke-linecap="round" stroke-linejoin="round" stroke-miterlimit="0" style="paint-order:markers fill stroke"/>
  <path d="m56.162 221.27c-2.5834 0-4.4324-0.18465-6.006-0.52v-17.472c1.8427-0.34551 4.2958-0.468 5.486-0.468 3.7328 0 7.852 0.81483 7.852 5.07 0 1.4387-0.69333 2.574-2.08 3.406 2.03 0.72854 2.8232 2.242 2.964 4.29 0 4.4294-3.8357 5.694-8.216 5.694zm-2.054-8.086v4.654c0.63753 0.075 1.346 0.104 2.106 0.104 1.9214-0.013 3.7738-0.30453 4.056-2.444 0-0.61118-0.04106-2.314-3.614-2.314zm0-3.094h1.976c2.252 0 3.484-0.46417 3.484-2.028 0-0.92609-0.37064-1.976-3.276-1.976-0.7291 3.9e-4 -1.4571 0.0301-2.184 0.078zm25.35-5.148c0.99958 3.5838 2.0417 7.1575 3.224 10.686 1.05-4.1585 1.7938-8.3856 2.522-12.61h4.212c-0.62337 3.099-2.2942 10.85-4.654 18.018h-3.718c-0.88503-2.4275-1.5818-4.523-3.458-10.738-1.0726 3.5999-2.1393 7.2008-3.406 10.738h-3.718c-2.1724-6.5993-3.6515-13.034-4.654-18.018h4.394c0.08339 0.49198 1.3635 8.0109 2.626 12.61 0.86272-2.3485 0.98161-2.721 3.172-10.686zm17.966-2.132c8.0462 0 8.346 4.2259 8.346 6.058 0 2.1641-0.55281 6.136-8.424 6.136h-1.274v6.032h-4.056v-17.758c1.9518-0.38271 4.1903-0.468 5.408-0.468zm0.26 3.458c-0.61842 0-1.2017 0.0438-1.612 0.078v5.2h1.274c3.6833 0 4.238-1.2565 4.238-2.704 0-1.7675-1.1909-2.574-3.9-2.574zm16.354-3.458c4.6465 0 8.372 1.409 8.372 5.928 0 1.4232-0.3178 3.6762-3.38 4.94 2.3081 2.8577 4.2295 6.846 4.472 7.358h-4.55c-2.6038-4.6595-3.4136-5.7135-4.134-6.578h-2.002v6.578h-4.056v-17.758c2.0274-0.39754 4.1516-0.468 5.278-0.468zm0.234 3.458c-0.48679-7e-3 -0.97139 0.0399-1.456 0.078v4.888h1.144c3.1459 0 4.264-0.76574 4.264-2.522 0-0.93645-0.29703-2.444-3.952-2.444zm14.768 5.746c0 3.6807 1.8739 5.824 4.784 5.824 3.1708 0 4.784-2.5526 4.784-5.824 0-3.1901-1.5517-5.85-4.784-5.85-2.7137 0-4.784 2.021-4.784 5.85zm13.754 0c0 6.0398-3.7573 9.386-8.97 9.386-4.6789 0-8.97-2.9366-8.97-9.386 0-6.0342 4.0316-9.412 8.97-9.412 4.9555 0 8.97 3.2441 8.97 9.412zm12.636 2.964c0 5.875-4.0692 6.422-6.526 6.422-1.8718 0.0665-3.5622-0.48926-5.148-1.43l1.352-3.146c1.0787 0.68121 2.2234 1.0313 3.484 1.118 2.0309 0 2.782-0.97448 2.782-3.172v-11.752h4.056zm3.9 6.058v-18.018h12.168v3.406h-8.112v3.536h7.202v3.328h-7.202v4.342h8.71v3.406zm23.972 0.364c-7.7461 0-8.996-5.7045-8.996-9.386 0-5.6613 3.625-9.412 9.204-9.412 2.3721 0 4.4811 0.70119 5.564 1.378l-1.17 3.276c-1.053-0.55941-2.5353-1.066-4.446-1.066-1.0769 0-4.94 0.37437-4.94 5.746 0 4.7951 2.707 5.876 5.148 5.876 1.6087 0.0547 3.1033-0.36373 4.55-1.014l1.118 3.25c-2.0826 1.2622-5.1831 1.352-6.032 1.352zm22.542-18.382v3.458h-5.434v14.56h-4.056v-14.56h-5.434v-3.458z" fill="#ebdbb2" opacity=".15" aria-label="BWPROJECT"/>
  <path d="m56.162 219.27c-2.5834 0-4.4324-0.18465-6.006-0.52v-17.472c1.8427-0.34551 4.2958-0.468 5.486-0.468 3.7328 0 7.852 0.81483 7.852 5.07 0 1.4387-0.69333 2.574-2.08 3.406 2.03 0.72854 2.8232 2.242 2.964 4.29 0 4.4294-3.8357 5.694-8.216 5.694zm-2.054-8.086v4.654c0.63753 0.075 1.346 0.104 2.106 0.104 1.9214-0.013 3.7738-0.30453 4.056-2.444 0-0.61118-0.04106-2.314-3.614-2.314zm0-3.094h1.976c2.252 0 3.484-0.46417 3.484-2.028 0-0.92609-0.37064-1.976-3.276-1.976-0.7291 3.9e-4 -1.4571 0.0301-2.184 0.078zm25.35-5.148c0.99958 3.5838 2.0417 7.1575 3.224 10.686 1.05-4.1585 1.7938-8.3856 2.522-12.61h4.212c-0.62337 3.099-2.2942 10.85-4.654 18.018h-3.718c-0.88503-2.4275-1.5818-4.523-3.458-10.738-1.0726 3.5999-2.1393 7.2008-3.406 10.738h-3.718c-2.1724-6.5993-3.6515-13.034-4.654-18.018h4.394c0.08339 0.49198 1.3635 8.0109 2.626 12.61 0.86272-2.3485 0.98161-2.721 3.172-10.686zm17.966-2.132c8.0462 0 8.346 4.2259 8.346 6.058 0 2.1641-0.55281 6.136-8.424 6.136h-1.274v6.032h-4.056v-17.758c1.9518-0.38271 4.1903-0.468 5.408-0.468zm0.26 3.458c-0.61842 0-1.2017 0.0438-1.612 0.078v5.2h1.274c3.6833 0 4.238-1.2565 4.238-2.704 0-1.7675-1.1909-2.574-3.9-2.574zm16.354-3.458c4.6465 0 8.372 1.409 8.372 5.928 0 1.4232-0.3178 3.6762-3.38 4.94 2.3081 2.8577 4.2295 6.846 4.472 7.358h-4.55c-2.6038-4.6595-3.4136-5.7135-4.134-6.578h-2.002v6.578h-4.056v-17.758c2.0274-0.39754 4.1516-0.468 5.278-0.468zm0.234 3.458c-0.48679-7e-3 -0.97139 0.0399-1.456 0.078v4.888h1.144c3.1459 0 4.264-0.76574 4.264-2.522 0-0.93645-0.29703-2.444-3.952-2.444zm14.768 5.746c0 3.6807 1.8739 5.824 4.784 5.824 3.1708 0 4.784-2.5526 4.784-5.824 0-3.1901-1.5517-5.85-4.784-5.85-2.7137 0-4.784 2.021-4.784 5.85zm13.754 0c0 6.0398-3.7573 9.386-8.97 9.386-4.6789 0-8.97-2.9366-8.97-9.386 0-6.0342 4.0316-9.412 8.97-9.412 4.9555 0 8.97 3.2441 8.97 9.412zm12.636 2.964c0 5.875-4.0692 6.422-6.526 6.422-1.8718 0.0665-3.5622-0.48926-5.148-1.43l1.352-3.146c1.0787 0.68121 2.2234 1.0313 3.484 1.118 2.0309 0 2.782-0.97448 2.782-3.172v-11.752h4.056zm3.9 6.058v-18.018h12.168v3.406h-8.112v3.536h7.202v3.328h-7.202v4.342h8.71v3.406zm23.972 0.364c-7.7461 0-8.996-5.7045-8.996-9.386 0-5.6613 3.625-9.412 9.204-9.412 2.3721 0 4.4811 0.70119 5.564 1.378l-1.17 3.276c-1.053-0.55941-2.5353-1.066-4.446-1.066-1.0769 0-4.94 0.37437-4.94 5.746 0 4.7951 2.707 5.876 5.148 5.876 1.6087 0.0547 3.1033-0.36373 4.55-1.014l1.118 3.25c-2.0826 1.2622-5.1831 1.352-6.032 1.352zm22.542-18.382v3.458h-5.434v14.56h-4.056v-14.56h-5.434v-3.458z" fill="#af3a03" aria-label="BWPROJECT"/>
  <path d="m133.82 200.6c-4.9384 0-8.9707 3.378-8.9707 9.4121 0 0.34175 0.0194 0.66813 0.043 0.99024 0.42651-5.3982 4.2728-8.4024 8.9277-8.4024 4.6829 0 8.5212 2.9 8.9297 8.4238 0.0243-0.32882 0.041-0.66502 0.041-1.0117 0-6.1679-4.0152-9.4121-8.9707-9.4121zm49.686 0c-5.579 0-9.2031 3.7508-9.2031 9.4121 0 0.2953 0.0242 0.62017 0.043 0.9375 0.42773-5.0633 3.9381-8.3496 9.1602-8.3496 2.0102 0 3.791 0.50675 4.959 1.0723l0.60547-1.6934c-1.0829-0.67681-3.1923-1.3789-5.5644-1.3789zm-127.87 0.20899c-1.1902 0-3.6436 0.12129-5.4863 0.4668v2c1.8427-0.34551 4.2961-0.4668 5.4863-0.4668 3.3826 0 7.0718 0.67699 7.7363 3.9688 0.06708-0.28708 0.11524-0.58396 0.11524-0.90039 0-4.2552-4.1187-5.0684-7.8516-5.0684zm41.781 0c-1.2177 0-3.4564 0.0841-5.4082 0.4668v2c1.9518-0.38271 4.1905-0.4668 5.4082-0.4668 6.8152 0 8.0598 3.0215 8.2851 5.0625 0.0405-0.35892 0.0606-0.70217 0.0606-1.0059 0-1.8321-0.29946-6.0566-8.3457-6.0566zm16.613 0c-1.1264 0-3.2499 0.0693-5.2773 0.4668v2c2.0274-0.39754 4.1509-0.4668 5.2773-0.4668 4.2718 0 7.7573 1.1968 8.293 4.9004 0.0469-0.34353 0.0801-0.68265 0.0801-0.97266 0-4.519-3.7265-5.9277-8.373-5.9277zm-48.229 0.20703c0.12562 0.62454 0.2828 1.3324 0.42383 2h3.9688c0.08339 0.49198 1.3645 8.0103 2.627 12.609 0.86272-2.3485 0.98149-2.7206 3.1719-10.686h3.457c0.99958 3.5838 2.0423 7.1571 3.2246 10.686 1.05-4.1585 1.7933-8.385 2.5215-12.609h3.791c0.15252-0.71534 0.32183-1.5026 0.42188-2h-4.2129c-0.72822 4.2244-1.4715 8.4509-2.5215 12.609-1.1823-3.5285-2.225-7.1017-3.2246-10.686h-3.457c-2.1904 7.965-2.3092 8.337-3.1719 10.686-1.2625-4.5991-2.5436-12.117-2.627-12.609zm85.564 0v2h4.0566v-2zm7.957 0v2h12.168v-2zm31.59 0v2h14.924v-2zm-131.6 6.0508c-0.46394 0.76487-1.5669 1.0215-3.2324 1.0215h-1.9766v2h1.9766c2.252 0 3.4844-0.46352 3.4844-2.0274 0-0.3337-0.05446-0.6832-0.25195-0.99414zm58.717 0.67383c-0.42597 1.0238-1.6349 1.4922-4.0723 1.4922h-1.1445v2h1.1445c3.1459 0 4.2637-0.76718 4.2637-2.5234 0-0.28966-0.044-0.63133-0.19141-0.96875zm-16.609 0.16406c-0.34025 0.94722-1.3472 1.6387-4.0781 1.6387h-1.2734v2h1.2734c3.6833 0 4.2383-1.2556 4.2383-2.7031 0-0.3531-0.0625-0.65792-0.16015-0.93555zm61.963 0.0527v2h7.2012v-2zm-100.6 2.082c-0.33935 0.46639-0.77846 0.88856-1.3711 1.2441 1.7628 0.63264 2.5596 1.8847 2.8398 3.5371 0.07585-0.38694 0.125-0.79572 0.125-1.2461-0.10304-1.4984-0.56344-2.7071-1.5938-3.5352zm115.8 0.79492c-0.0393 0.3434-0.0664 0.70379-0.0664 1.0996 0 4.7951 2.7074 5.877 5.1484 5.877 1.6087 0.0547 3.104-0.36535 4.5508-1.0156l0.5332 1.5508c0.19881-0.0944 0.39895-0.18864 0.58398-0.30078l-1.1172-3.25c-1.4467 0.65027-2.9421 1.0703-4.5508 1.0156-2.2724 0-4.747-0.97885-5.082-4.9766zm-40.039 0.17383c-0.30186 2.7762-1.8819 4.8281-4.7207 4.8281-2.6246 0-4.3925-1.7565-4.7168-4.7988-0.0326 0.31559-0.0684 0.62949-0.0684 0.97461 0 3.6807 1.8751 5.8242 4.7852 5.8242 3.1708 0 4.7832-2.5528 4.7832-5.8242 0-0.34275-0.0265-0.67603-0.0625-1.0039zm12.828 1.7598c0 2.1975-0.75035 3.1719-2.7812 3.1719-1.2606-0.0867-2.4057-0.43598-3.4844-1.1172l-1.3516 3.1445c0.23007 0.13648 0.46844 0.24569 0.70313 0.36524l0.64844-1.5098c1.0787 0.68121 2.2237 1.0305 3.4844 1.1172 2.0309 0 2.7812-0.97436 2.7812-3.1719zm-31.271 0.35547c-0.31487 0.1978-0.6668 0.3854-1.0723 0.55274 1.4833 1.8364 2.6068 3.8098 3.4277 5.3574h1.0449c-0.20357-0.42976-1.5952-3.3063-3.4004-5.9102zm-60.104 1.2676c-0.6328 1.317-2.177 1.538-3.7832 1.5488-0.76002 0-1.4699-0.0285-2.1074-0.10352v2c0.63753 0.075 1.3474 0.10352 2.1074 0.10352 1.9214-0.013 3.7725-0.30389 4.0547-2.4434 0-0.24964-0.0199-0.68201-0.27148-1.1055zm103.39 1.2363v2h8.709v-2z" fill="#282828" opacity=".2"/>
  <path d="m89.957 85.188c-5.2475-1.4e-4 -9.5203 4.2759-9.5203 9.5203 0.0028 5.2552 4.2647 9.5148 9.5203 9.5148 5.2552 1.5e-4 9.5166-4.2586 9.5203-9.5148 1.43e-4 -5.2475-4.2759-9.5203-9.5203-9.5203zm25.39 0c-5.2476-1.4e-4 -9.5203 4.2759-9.5203 9.5203 4e-3 5.2552 4.2647 9.5148 9.5203 9.5148 5.2552 1.5e-4 9.5166-4.2586 9.5203-9.5148 1.4e-4 -5.2475-4.2759-9.5203-9.5203-9.5203zm25.39 0c-5.2453-1.4e-4 -9.5203 4.2725-9.5203 9.5203 4e-3 5.2552 4.2646 9.5148 9.5203 9.5148 5.2552 1.5e-4 9.5166-4.2586 9.5203-9.5148 1.5e-4 -5.2475-4.2759-9.5203-9.5203-9.5203zm25.381 0c-5.2453-1.4e-4 -9.5203 4.2725-9.5203 9.5203 4e-3 5.2552 4.2647 9.5148 9.5203 9.5148 5.2552 1.5e-4 9.5166-4.2586 9.5203-9.5148 1.4e-4 -5.2475-4.2759-9.5203-9.5203-9.5203zm-101.58 25.381c-5.2446-1.3e-4 -9.5203 4.2725-9.5203 9.5203-1.47e-4 5.2453 4.2725 9.5203 9.5203 9.5203 5.2475 1.6e-4 9.5203-4.2759 9.5203-9.5203 1.48e-4 -5.2476-4.2759-9.5203-9.5203-9.5203zm25.39 0c-5.2497-1.3e-4 -9.5203 4.2784-9.5203 9.5203-1.48e-4 5.2453 4.2725 9.5203 9.5203 9.5203 5.2475 1.6e-4 9.5203-4.2759 9.5203-9.5203 1.53e-4 -5.2476-4.2759-9.5203-9.5203-9.5203zm25.39 0c-5.2497-1.3e-4 -9.5204 4.2784-9.5204 9.5203-1.4e-4 5.2474 4.275 9.5203 9.5204 9.5203 5.2453 1.6e-4 9.5203-4.2725 9.5203-9.5203 1.3e-4 -5.2476-4.2759-9.5203-9.5203-9.5203zm25.39 0c-5.2474-1.3e-4 -9.5203 4.275-9.5203 9.5203-1.4e-4 5.2453 4.2725 9.5203 9.5203 9.5203 5.2453 1.6e-4 9.5203-4.2725 9.5203-9.5203 1.5e-4 -5.2476-4.2759-9.5203-9.5203-9.5203zm25.381 0c-5.2475-1.3e-4 -9.5203 4.275-9.5203 9.5203-1.7e-4 5.2453 4.2725 9.5203 9.5203 9.5203 5.2453 1.6e-4 9.5203-4.2725 9.5203-9.5203 1.5e-4 -5.2476-4.2759-9.5203-9.5203-9.5203zm25.39 0c-5.2475-1.3e-4 -9.5203 4.275-9.5203 9.5203-1.6e-4 5.2453 4.2725 9.5203 9.5203 9.5203 5.2476 1.6e-4 9.5203-4.2759 9.5203-9.5203 1.5e-4 -5.2497-4.2784-9.5203-9.5203-9.5203zm-126.96 25.39c-5.2475-1.5e-4 -9.5203 4.2759-9.5203 9.5204-1.48e-4 5.2475 4.2759 9.5203 9.5203 9.5203 5.2497 1.3e-4 9.5203-4.2784 9.5203-9.5203 1.57e-4 -5.2453-4.2725-9.5204-9.5203-9.5204zm25.39 0c-5.2475-1.5e-4 -9.5203 4.2759-9.5203 9.5204-1.48e-4 5.2475 4.2759 9.5203 9.5203 9.5203 5.2497 1.3e-4 9.5203-4.2784 9.5203-9.5203 1.52e-4 -5.2453-4.2725-9.5204-9.5203-9.5204zm76.162 0c-5.2453-1.5e-4 -9.5203 4.2725-9.5203 9.5204-1.3e-4 5.2475 4.2759 9.5203 9.5203 9.5203 5.2475 1.3e-4 9.5203-4.275 9.5203-9.5203 1.3e-4 -5.2454-4.2725-9.5204-9.5203-9.5204zm25.39 0c-5.2453-1.5e-4 -9.5203 4.2725-9.5203 9.5204-1.4e-4 5.2475 4.2759 9.5203 9.5203 9.5203 5.2497 1.3e-4 9.5203-4.2784 9.5203-9.5203 1.4e-4 -5.2475-4.275-9.5204-9.5203-9.5204z" fill="#282828" opacity=".2" stroke-width=".92394"/>
  <path d="m89.957 80.188c-5.2475-1.4e-4 -9.5203 4.2759-9.5203 9.5203 0.0028 5.2552 4.2647 9.5148 9.5203 9.5148 5.2552 1.5e-4 9.5166-4.2586 9.5203-9.5148 1.43e-4 -5.2475-4.2759-9.5203-9.5203-9.5203zm25.39 0c-5.2476-1.4e-4 -9.5203 4.2759-9.5203 9.5203 4e-3 5.2552 4.2647 9.5148 9.5203 9.5148 5.2552 1.5e-4 9.5166-4.2586 9.5203-9.5148 1.4e-4 -5.2475-4.2759-9.5203-9.5203-9.5203zm25.39 0c-5.2453-1.4e-4 -9.5203 4.2725-9.5203 9.5203 4e-3 5.2552 4.2646 9.5148 9.5203 9.5148 5.2552 1.5e-4 9.5166-4.2586 9.5203-9.5148 1.5e-4 -5.2475-4.2759-9.5203-9.5203-9.5203zm25.381 0c-5.2453-1.4e-4 -9.5203 4.2725-9.5203 9.5203 4e-3 5.2552 4.2647 9.5148 9.5203 9.5148 5.2552 1.5e-4 9.5166-4.2586 9.5203-9.5148 1.4e-4 -5.2475-4.2759-9.5203-9.5203-9.5203zm-101.58 25.381c-5.2446-1.3e-4 -9.5203 4.2725-9.5203 9.5203-1.47e-4 5.2453 4.2725 9.5203 9.5203 9.5203 5.2475 1.6e-4 9.5203-4.2759 9.5203-9.5203 1.48e-4 -5.2476-4.2759-9.5203-9.5203-9.5203zm25.39 0c-5.2497-1.3e-4 -9.5203 4.2784-9.5203 9.5203-1.48e-4 5.2453 4.2725 9.5203 9.5203 9.5203 5.2475 1.6e-4 9.5203-4.2759 9.5203-9.5203 1.53e-4 -5.2476-4.2759-9.5203-9.5203-9.5203zm25.39 0c-5.2497-1.3e-4 -9.5204 4.2784-9.5204 9.5203-1.4e-4 5.2474 4.275 9.5203 9.5204 9.5203 5.2453 1.6e-4 9.5203-4.2725 9.5203-9.5203 1.3e-4 -5.2476-4.2759-9.5203-9.5203-9.5203zm25.39 0c-5.2474-1.3e-4 -9.5203 4.275-9.5203 9.5203-1.4e-4 5.2453 4.2725 9.5203 9.5203 9.5203 5.2453 1.6e-4 9.5203-4.2725 9.5203-9.5203 1.5e-4 -5.2476-4.2759-9.5203-9.5203-9.5203zm25.381 0c-5.2475-1.3e-4 -9.5203 4.275-9.5203 9.5203-1.7e-4 5.2453 4.2725 9.5203 9.5203 9.5203 5.2453 1.6e-4 9.5203-4.2725 9.5203-9.5203 1.5e-4 -5.2476-4.2759-9.5203-9.5203-9.5203zm25.39 0c-5.2475-1.3e-4 -9.5203 4.275-9.5203 9.5203-1.6e-4 5.2453 4.2725 9.5203 9.5203 9.5203 5.2476 1.6e-4 9.5203-4.2759 9.5203-9.5203 1.5e-4 -5.2497-4.2784-9.5203-9.5203-9.5203zm-126.96 25.39c-5.2475-1.5e-4 -9.5203 4.2759-9.5203 9.5204-1.48e-4 5.2475 4.2759 9.5203 9.5203 9.5203 5.2497 1.3e-4 9.5203-4.2784 9.5203-9.5203 1.57e-4 -5.2453-4.2725-9.5204-9.5203-9.5204zm25.39 0c-5.2475-1.5e-4 -9.5203 4.2759-9.5203 9.5204-1.48e-4 5.2475 4.2759 9.5203 9.5203 9.5203 5.2497 1.3e-4 9.5203-4.2784 9.5203-9.5203 1.52e-4 -5.2453-4.2725-9.5204-9.5203-9.5204zm76.162 0c-5.2453-1.5e-4 -9.5203 4.2725-9.5203 9.5204-1.3e-4 5.2475 4.2759 9.5203 9.5203 9.5203 5.2475 1.3e-4 9.5203-4.275 9.5203-9.5203 1.3e-4 -5.2454-4.2725-9.5204-9.5203-9.5204zm25.39 0c-5.2453-1.5e-4 -9.5203 4.2725-9.5203 9.5204-1.4e-4 5.2475 4.2759 9.5203 9.5203 9.5203 5.2497 1.3e-4 9.5203-4.2784 9.5203-9.5203 1.4e-4 -5.2475-4.275-9.5204-9.5203-9.5204z" fill="#ebdbb2" stroke-width=".92394"/>
  <path d="m89.957 80.188c-5.2475-1.4e-4 -9.5215 4.2751-9.5215 9.5195 4.62e-4 0.86723 0.12795 1.7036 0.3457 2.502 1.1025-4.0369 4.7942-7.0216 9.1758-7.0215 4.3797 0 8.0734 2.9824 9.1758 7.0215 0.21779-0.79832 0.34314-1.6347 0.34375-2.502 1.4e-4 -5.2475-4.2751-9.5195-9.5195-9.5195zm25.389 0c-5.2476-1.4e-4 -9.5195 4.2751-9.5195 9.5195 6.6e-4 0.86657 0.12819 1.7022 0.34571 2.5 1.1032-4.0359 4.7929-7.0196 9.1738-7.0195 4.3789 0 8.0726 2.9816 9.1758 7.0195 0.21752-0.79786 0.3451-1.6333 0.34571-2.5 1.4e-4 -5.2475-4.2771-9.5195-9.5215-9.5195zm25.391 0c-5.2453-1.4e-4 -9.5195 4.2717-9.5195 9.5195 6.6e-4 0.8658 0.1266 1.7009 0.34375 2.498 1.1036-4.0372 4.7967-7.0177 9.1758-7.0176 4.3796 0 8.0733 2.9826 9.1758 7.0215 0.21783-0.79841 0.34509-1.6346 0.3457-2.502 1.5e-4 -5.2475-4.2771-9.5195-9.5215-9.5195zm25.381 0c-5.2453-1.4e-4 -9.5195 4.2717-9.5195 9.5195 6.6e-4 0.8658 0.1266 1.7009 0.34375 2.498 1.1036-4.0372 4.7967-7.0177 9.1758-7.0176 4.3796 0 8.0733 2.9826 9.1758 7.0215 0.21783-0.79841 0.34509-1.6346 0.3457-2.502 1.4e-4 -5.2475-4.2771-9.5195-9.5215-9.5195zm-101.58 25.379c-5.2446-1.3e-4 -9.5215 4.2736-9.5215 9.5215-2.4e-5 0.86625 0.12751 1.7016 0.3457 2.5 1.1031-4.0381 4.7967-7.0216 9.1758-7.0215 4.379 0 8.0727 2.9835 9.1758 7.0215 0.21821-0.79838 0.34375-1.6339 0.34375-2.5 1.48e-4 -5.2476-4.2751-9.5215-9.5195-9.5215zm25.391 0c-5.2497-1.3e-4 -9.5215 4.2796-9.5215 9.5215-2.4e-5 0.86632 0.12748 1.7015 0.3457 2.5 1.1027-4.035 4.7931-7.0216 9.1758-7.0215 4.3789 0 8.0707 2.9836 9.1738 7.0215 0.21824-0.79843 0.3457-1.6338 0.3457-2.5 1.5e-4 -5.2476-4.2751-9.5215-9.5195-9.5215zm25.389 0c-5.2497-1.3e-4 -9.5195 4.2796-9.5195 9.5215-2e-5 0.8656 0.12594 1.7003 0.34375 2.498 1.1033-4.0342 4.7937-7.0196 9.1758-7.0195 4.379 0 8.0727 2.9835 9.1758 7.0215 0.21819-0.79842 0.3457-1.6336 0.3457-2.5 1.3e-4 -5.2476-4.2771-9.5215-9.5215-9.5215zm25.391 0c-5.2474-1.3e-4 -9.5195 4.2762-9.5195 9.5215-2e-5 0.86625 0.12556 1.7016 0.34375 2.5 1.1029-4.0366 4.7947-7.0216 9.1758-7.0215 4.379 0 8.0727 2.9835 9.1758 7.0215 0.21819-0.79842 0.34375-1.6336 0.34375-2.5 1.5e-4 -5.2476-4.2751-9.5215-9.5195-9.5215zm25.381 0c-5.2475-1.3e-4 -9.5215 4.2762-9.5215 9.5215-3e-5 0.86625 0.12751 1.7016 0.3457 2.5 1.1029-4.0366 4.7947-7.0216 9.1758-7.0215 4.379 0 8.0727 2.9835 9.1758 7.0215 0.21819-0.79842 0.34376-1.6336 0.34376-2.5 1.4e-4 -5.2476-4.2751-9.5215-9.5195-9.5215zm25.391 0c-5.2475-1.3e-4 -9.5215 4.2762-9.5215 9.5215-2e-5 0.86632 0.12749 1.7015 0.34571 2.5 1.103-4.0365 4.7948-7.0216 9.1758-7.0215 4.3768 0 8.0702 2.9828 9.1738 7.0215 0.21824-0.79843 0.3457-1.6338 0.3457-2.5 1.5e-4 -5.2497-4.2776-9.5215-9.5195-9.5215zm-126.96 25.391c-5.2475-1.5e-4 -9.5195 4.2771-9.5195 9.5215-2.4e-5 0.86668 0.12734 1.7014 0.3457 2.5 1.103-4.0362 4.7927-7.0216 9.1738-7.0215 4.3811 0 8.0727 2.9833 9.1758 7.0195 0.21804-0.79806 0.3457-1.6325 0.3457-2.498 1.57e-4 -5.2453-4.2737-9.5215-9.5215-9.5215zm25.391 0c-5.2476-1.5e-4 -9.5195 4.2771-9.5195 9.5215-2.4e-5 0.86661 0.12542 1.7014 0.34375 2.5 1.1029-4.0363 4.7946-7.0216 9.1758-7.0215 4.3812 0 8.0728 2.9833 9.1758 7.0195 0.21801-0.79801 0.3457-1.6326 0.3457-2.498 1.5e-4 -5.2453-4.2737-9.5215-9.5215-9.5215zm76.162 0c-5.2453-1.5e-4 -9.5215 4.2737-9.5215 9.5215-2e-5 0.86661 0.12737 1.7014 0.3457 2.5 1.103-4.0381 4.796-7.0216 9.1758-7.0215 4.3818 0 8.0734 2.9843 9.1758 7.0215 0.21821-0.79844 0.34375-1.6338 0.34375-2.5 1.3e-4 -5.2454-4.2717-9.5215-9.5195-9.5215zm25.391 0c-5.2453-1.5e-4 -9.5215 4.2737-9.5215 9.5215-3e-5 0.86668 0.12734 1.7014 0.3457 2.5 1.103-4.038 4.7961-7.0216 9.1758-7.0215 4.3798 0 8.073 2.9834 9.1758 7.0215 0.21833-0.79856 0.34375-1.6339 0.34375-2.5 1.4e-4 -5.2475-4.2742-9.5215-9.5195-9.5215z" fill="#fbf1c7" opacity=".6" stroke-width=".92394"/>
  <path d="m57 15c-9.9393 0-17 7.0595-17 17v192c0 9.9393 7.0595 17 17 17h142c9.9405 0 17-7.0607 17-17v-144l-65-64.998zm4.0332 4.9902 89.967 2e-3 60 60.009v139.75c0 9.4999-6.6575 16.248-16.033 16.248h-133.93c-9.3757 0-16.033-6.7481-16.033-16.248v-183.51c0-9.501 6.6586-16.25 16.033-16.25z" fill="url(#linearGradient14-5-0)" style="paint-order:markers fill stroke"/>
  <path d="m151 15.002v52.914c0 9.6525 7.8639 17.084 17.518 17.084l47.482-1.34e-4v-5z" fill="#282828" opacity=".3" stroke-width="1.0833"/>
  <path d="m151 15v47.916c0 9.6525 7.8639 17.084 17.518 17.084l47.482-1.34e-4z" fill="url(#linearGradient7-6-0-0)" stroke-width="1.0833"/>
</svg>
