<svg width="256" height="256" version="1.1" viewBox="0 0 256 256" xmlns="http://www.w3.org/2000/svg">
  <defs>
    <linearGradient id="linearGradient26" x1="-160" x2="-160" y2="226" gradientTransform="translate(267,15)" gradientUnits="userSpaceOnUse">
      <stop stop-color="#fabd2f" offset="0"/>
      <stop stop-color="#fe8019" offset="1"/>
    </linearGradient>
    <linearGradient id="linearGradient14-5-1" x1="128" x2="128" y1="15.001" y2="241" gradientTransform="translate(0,4.8e-4)" gradientUnits="userSpaceOnUse">
      <stop stop-color="#ebdbb2" stop-opacity=".4" offset="0"/>
      <stop stop-color="#ebdbb2" stop-opacity=".2" offset=".2"/>
      <stop stop-opacity="0" offset=".70405"/>
      <stop stop-opacity=".05" offset=".80473"/>
      <stop stop-opacity=".1" offset="1"/>
    </linearGradient>
    <linearGradient id="linearGradient7-6-0-6" x1="186" x2="156" y1="45.006" y2="75.012" gradientTransform="matrix(1.0833,0,0,1.0833,-17.998,-1.2502)" gradientUnits="userSpaceOnUse">
      <stop stop-color="#fabd2f" offset="0"/>
      <stop stop-color="#d79921" offset=".3027"/>
      <stop stop-color="#b57614" offset="1"/>
    </linearGradient>
  </defs>
  <path d="m57 15c-9.9393 0-17 7.0595-17 17v192c0 9.9393 7.0595 17 17 17h142c9.9405 0 17-7.0607 17-17v-144l-64.999-64.999z" fill="url(#linearGradient26)" stroke-linecap="round" stroke-linejoin="round" stroke-miterlimit="0" style="paint-order:markers fill stroke"/>
  <path d="m57 241c-9.9393 0-17-7.0595-17-17v-43h176v43c0 9.9405-7.0607 17-17 17h-99.1z" fill="#af3a03" opacity=".3" stroke-linecap="round" stroke-linejoin="round" stroke-miterlimit="0" style="paint-order:markers fill stroke"/>
  <path d="m101.06 222.96c3.2335 0 4.48-0.98172 4.48-2.88 0-1.5331-1.0263-2.6488-5.68-4.2-3.4634-1.2224-7.6-2.955-7.6-8.2 0-5.1508 4.0386-8.32 10.2-8.32 3.7211 0 6.4107 0.94404 8.2 1.92l-1.8 4.92c-1.873-0.99727-3.8907-1.4678-6-1.52-2.9192 0-4.2 0.79833-4.2 2.52 0.24727 2.3866 2.8628 3.0035 4.8 3.68 5.9312 2.1967 8.52 4.0081 8.52 9.24 0 6.7588-5.9696 8.16-10.92 8.16-2.0763 0-6.0494-0.27394-9.28-2.12l1.76-4.96c2.3212 1.3162 4.8902 1.7066 7.52 1.76zm32.08 4.76c-1.9571-3.1686-6.1991-8.6704-10.12-11.72v11.72h-6.24v-27.72h6.24v10.48c3.2506-3.4103 6.335-6.9732 9.48-10.48h7.4c-2.2923 2.712-6.5669 7.6069-11.72 12.76 5.4224 4.5078 9.7838 10.787 12.36 14.96zm22.32-22.92c-6.2421 0-8.24 3.9646-8.24 9.04 0 4.9582 2.1987 9.08 7.68 9.08 1.7593 0 2.5214-0.0803 3.08-0.2v-9.64h6.24v13.72c-3.5405 1.3909-8.9813 1.44-9.72 1.44-7.9578 0-13.76-4.8354-13.76-14.4 0-9.3096 6.2351-14.48 13.88-14.48 4.3252 0 7.7259 1.1987 9.2 2.12l-1.8 5c-0.98137-0.52135-3.5054-1.68-6.56-1.68z" fill="#ebdbb2" opacity=".15" style="font-variant-ligatures:none" aria-label="SKG"/>
  <path d="m101.06 219.96c3.2335 0 4.48-0.98172 4.48-2.88 0-1.5331-1.0263-2.6488-5.68-4.2-3.4634-1.2224-7.6-2.955-7.6-8.2 0-5.1508 4.0386-8.32 10.2-8.32 3.7211 0 6.4107 0.94404 8.2 1.92l-1.8 4.92c-1.873-0.99727-3.8907-1.4678-6-1.52-2.9192 0-4.2 0.79833-4.2 2.52 0.24727 2.3866 2.8628 3.0035 4.8 3.68 5.9312 2.1967 8.52 4.0081 8.52 9.24 0 6.7588-5.9696 8.16-10.92 8.16-2.0763 0-6.0494-0.27394-9.28-2.12l1.76-4.96c2.3212 1.3162 4.8902 1.7066 7.52 1.76zm32.08 4.76c-1.9571-3.1686-6.1991-8.6704-10.12-11.72v11.72h-6.24v-27.72h6.24v10.48c3.2506-3.4103 6.335-6.9732 9.48-10.48h7.4c-2.2923 2.712-6.5669 7.6069-11.72 12.76 5.4224 4.5078 9.7838 10.787 12.36 14.96zm22.32-22.92c-6.2421 0-8.24 3.9646-8.24 9.04 0 4.9582 2.1987 9.08 7.68 9.08 1.7593 0 2.5214-0.0803 3.08-0.2v-9.64h6.24v13.72c-3.5405 1.3909-8.9813 1.44-9.72 1.44-7.9578 0-13.76-4.8354-13.76-14.4 0-9.3096 6.2351-14.48 13.88-14.48 4.3252 0 7.7259 1.1987 9.2 2.12l-1.8 5c-0.98137-0.52135-3.5054-1.68-6.56-1.68z" fill="#af3a03" style="font-variant-ligatures:none" aria-label="SKG"/>
  <path d="m102.46 196.36c-6.1614 0-10.201 3.1696-10.201 8.3203 0 0.53574 0.05357 1.0265 0.13476 1.4922 0.72241-4.2506 4.534-6.8125 10.066-6.8125 3.1289 0 5.5193 0.67023 7.2676 1.4629l0.93164-2.543c-1.7893-0.97596-4.4781-1.9199-8.1992-1.9199zm52.158 0c-7.6449 0-13.879 5.1709-13.879 14.48 0 0.54406 0.0237 1.0686 0.0606 1.582 0.60467-8.4111 6.5726-13.062 13.818-13.062 3.6059 0 6.5529 0.83354 8.293 1.6445l0.9082-2.5234c-1.4741-0.92131-4.876-2.1211-9.2012-2.1211zm-37.84 0.64062v3h6.2402v-3zm15.721 0c-3.145 3.5068-6.2298 7.0702-9.4805 10.48v3c3.2506-3.4103 6.3355-6.9737 9.4805-10.48h4.8047c1.0061-1.1451 1.9125-2.1917 2.5957-3zm-33.283 8.6484c-0.37777 0.39228-0.55664 0.90625-0.55664 1.5508 0.24727 2.3866 2.8636 3.0052 4.8008 3.6816 5.275 1.9537 7.9003 3.6076 8.418 7.6289 0.061-0.43816 0.10156-0.89682 0.10156-1.3906 0-5.2319-2.5883-7.0415-8.5195-9.2383-1.4676-0.51248-3.3226-0.99299-4.2441-2.2324zm58.764 4.4316v3h6.2402v-3zm-28.23 1.0664c-0.52784 0.54094-1.0212 1.0642-1.5703 1.6133 4.2411 3.5257 7.8196 8.1233 10.416 11.961h1.9434c-2.322-3.7609-6.0969-9.2302-10.789-13.574zm17.543 1.1543c-0.0456 0.50013-0.0723 1.0118-0.0723 1.5391 0 4.9582 2.1984 9.0801 7.6797 9.0801 1.7593 0 2.5215-0.0795 3.0801-0.19922v-3c-0.55857 0.1197-1.3208 0.19922-3.0801 0.19922-4.9316 0-7.2008-3.339-7.6074-7.6191zm-53.754 5.8984-1.7598 4.9609c0.29385 0.16791 0.60014 0.30829 0.9043 0.45117l0.85547-2.4121c2.3212 1.3162 4.8917 1.7083 7.5215 1.7617 3.2335 0 4.4785-0.98258 4.4785-2.8809 0-0.50587-0.13033-0.96454-0.44726-1.4102-0.60926 0.85236-1.8768 1.291-4.0312 1.291-2.6297-0.0534-5.2002-0.44556-7.5215-1.7617z" fill="#282828" opacity=".2" style="font-variant-ligatures:none"/>
  <path d="m128 49.105c-16.321-0.13425-15.661 22.281-20.354 23.672-3.4627 1.058-11.539-3.4717-20.438 1.0039-8.8986 4.3972-8.3179 15.457-7.4512 20.783 3.4895 20.693 34.036 61.383 36.783 64.221 3.2402 3.3272 6.63 6.2148 11.459 6.2148s8.209-2.8877 11.449-6.2148c2.7042-2.8012 33.321-43.456 36.773-64.221 0.7877-4.6388 1.7336-16.278-7.4316-20.783-8.884-4.4715-16.925 0.047507-20.461-1.0039-4.4291-1.4173-3.807-23.205-20.33-23.672zm0 48.289c2.6752 0 4.8281 2.1529 4.8281 4.8281v28.975c0 2.6752-2.1529 4.8281-4.8281 4.8281-2.6753 0-4.8301-2.1529-4.8301-4.8281v-28.975c0-2.6753 2.1548-4.8281 4.8301-4.8281zm-88.002 5.6055v10h20a5 5 0 0 0 5-5 5 5 0 0 0-5-5h-20zm156 0a5 5 0 0 0-5 5 5 5 0 0 0 5 5h20v-10h-20zm-156 20v10h20a5 5 0 0 0 5-5 5 5 0 0 0-5-5h-20zm156 0a5 5 0 0 0-5 5 5 5 0 0 0 5 5h20v-10h-20z" fill="#ebdbb2" opacity=".15"/>
  <path d="m128 44.105c-16.321-0.13425-15.661 22.281-20.354 23.672-3.4627 1.058-11.537-3.4712-20.436 1.0044-8.8986 4.3972-8.3178 15.458-7.4511 20.784 3.4895 20.693 34.035 61.383 36.782 64.22 3.2402 3.3272 6.6302 6.2149 11.459 6.2149 4.829 0 8.2092-2.8877 11.449-6.2149 2.7042-2.8012 33.32-43.455 36.773-64.22 0.7877-4.6388 1.7334-16.278-7.4318-20.784-8.884-4.4715-16.924 0.04698-20.46-1.0044-4.4291-1.4173-3.8068-23.205-20.33-23.672m0 48.29c2.6752 0 4.829 2.1537 4.829 4.829v28.974c0 2.6752-2.1537 4.829-4.829 4.829s-4.8289-2.1537-4.8289-4.829v-28.974c0-2.6753 2.1537-4.829 4.8289-4.829" fill="#d65d0e" stroke-linejoin="round" stroke-width="2.4145"/>
  <path d="m40 100v10h20a5 5 0 0 0 5-5 5 5 0 0 0-5-5h-20zm156 0a5 5 0 0 0-5 5 5 5 0 0 0 5 5h20v-10h-20zm-156 20v10h20a5 5 0 0 0 5-5 5 5 0 0 0-5-5h-20zm156 0a5 5 0 0 0-5 5 5 5 0 0 0 5 5h20v-10h-20z" fill="#d65d0e" stroke-linecap="round"/>
  <path d="m128 44.105c-16.321-0.13425-15.661 22.281-20.354 23.672-3.4627 1.058-11.539-3.4717-20.438 1.0039-7.457 3.6849-8.2375 12.014-7.791 17.762 0.44476-4.8536 2.328-10.062 7.791-12.762 8.8988-4.4756 16.975 0.05413 20.438-1.0039 4.693-1.3905 4.0321-23.806 20.354-23.672 16.523 0.46682 15.901 22.255 20.33 23.672 3.5361 1.0514 11.577-3.4676 20.461 1.0039 5.4968 2.7022 7.3448 7.9669 7.7832 12.752 0.43926-5.4905-0.21272-14.03-7.7832-17.752-8.884-4.4715-16.925 0.04751-20.461-1.0039-4.4291-1.4173-3.8069-23.205-20.33-23.672zm-88.002 55.895v3h20a5 5 0 0 1 4.6699 3.2285 5 5 0 0 0 0.33008-1.2285 5 5 0 0 0-5-5h-20zm156 0a5 5 0 0 0-5 5 5 5 0 0 0 0.40234 1.5 5 5 0 0 1 4.5977-3.5h20v-3h-20zm-156 20v3h20a5 5 0 0 1 4.6699 3.2285 5 5 0 0 0 0.33008-1.2285 5 5 0 0 0-5-5h-20zm156 0a5 5 0 0 0-5 5 5 5 0 0 0 0.40234 1.5 5 5 0 0 1 4.5977-3.5h20v-3h-20zm-72.828 6.1973v5c-2e-5 2.6752 2.1548 4.8281 4.8301 4.8281 2.6752 0 4.8281-2.1529 4.8281-4.8281v-5c0 2.6752-2.1529 4.8281-4.8281 4.8281-2.6753 0-4.8301-2.1529-4.8301-4.8281z" fill="#32302f" opacity=".2"/>
  <path d="m57 15c-9.9393 0-17 7.0595-17 17v192c0 9.9393 7.0595 17 17 17h142c9.9405 0 17-7.0607 17-17v-144l-65-64.998zm4.0332 4.9902 89.967 2e-3 60 60.009v139.75c0 9.4999-6.6575 16.248-16.033 16.248h-133.93c-9.3757 0-16.033-6.7481-16.033-16.248v-183.51c0-9.501 6.6586-16.25 16.033-16.25z" fill="url(#linearGradient14-5-1)" style="paint-order:markers fill stroke"/>
  <path d="m151 15.002v52.914c0 9.6525 7.8639 17.084 17.518 17.084l47.482-1.34e-4v-5z" fill="#282828" opacity=".3" stroke-width="1.0833"/>
  <path d="m151 15.001v47.916c0 9.6525 7.8639 17.084 17.518 17.084l47.482-1.34e-4z" fill="url(#linearGradient7-6-0-6)" stroke-width="1.0833"/>
</svg>
