<svg width="256" height="256" fill="none" version="1.1" viewBox="0 0 256 256" xmlns="http://www.w3.org/2000/svg">
  <path d="m55.08 15h100.5l60.4 60.15 2e-3 148.9c0 8.911-7.262 16.13-16.17 16.13h-144.8c-8.91 0-16.08-7.174-16.08-16.08v-193c0-8.91 7.173-16.08 16.08-16.08h1e-4z" fill="#ebdbb2"/>
  <path d="m55.08 15h100.5l60.4 60.15 2e-3 148.9c0 8.911-7.262 16.13-16.17 16.13h-144.8c-8.91 0-16.08-7.174-16.08-16.08v-193c0-8.91 7.173-16.08 16.08-16.08h1e-4z" fill="url(#paint0_linear)" opacity=".2"/>
  <path d="m155.6 20.32h-100.5c-5.973 0-10.76 4.792-10.76 10.76v193c0 5.973 4.792 10.76 10.76 10.76h144.8c5.992 0 10.85-4.856 10.85-10.81v-148.9l-55.08-54.83zm0-5.319h-100.5c-8.91 0-16.08 7.173-16.08 16.08v193c0 8.91 7.173 16.08 16.08 16.08h144.8c8.911 0 16.17-7.218 16.17-16.13l-2e-3 -148.9-60.4-60.15z" clip-rule="evenodd" fill="url(#paint1_linear)" fill-rule="evenodd"/>
  <path d="m136 70v3.999h48v-3.999h-48zm0 16v3.999h48v-3.999h-48zm0 16v4.003h48v-4.003h-48zm0 16v4h48v-4h-48zm-64 16v3.997h112v-3.997h-112zm0 16v4.004h112v-4.004h-112zm0 16v3.998h112v-3.998h-112zm0 16v3.999h72v-3.999h-72z" fill="url(#paint2_linear)"/>
  <path d="m100 48c-17.32 30.07-22.88 47.58-25.04 80 23.33-28.06 36.65-45.62 50.59-3.529-3.817-31.71-11.26-59.33-25.54-76.47z" fill="url(#paint3_linear)"/>
  <path d="m75.44 122.2c-0.16 1.877-0.3053 3.805-0.4373 5.788 0.5853-0.704 1.165-1.403 1.739-2.092 0.6613-0.797 1.315-1.585 1.96-2.361 18.27-21.97 30.2-35.08 41.65-12.21 1.75 3.501 3.492 7.845 5.241 13.13-0.58-4.826-1.245-9.556-2.005-14.17-3.968-24.08-10.53-44.96-21.3-59.45-0.728-0.98-1.475-1.929-2.24-2.849-0.611 1.059-1.206 2.101-1.786 3.129-14.91 26.41-20.46 43.34-22.82 71.08zm3.807-4.557c3.203-3.803 6.24-7.299 9.119-10.29 4.777-4.964 9.556-9.026 14.4-10.62 2.523-0.832 5.142-1.025 7.767-0.2787 2.6 0.7413 4.923 2.324 7.015 4.568 0.402 0.432 0.801 0.893 1.194 1.383-3.877-19.54-9.689-36.23-18.27-48.35-7.207 12.88-12.07 23.39-15.42 34.06-2.859 9.105-4.644 18.42-5.804 29.53z" clip-rule="evenodd" fill="url(#paint4_linear)" fill-rule="evenodd"/>
  <path d="m100.5 57.91h-0.166l-2.288 20.26h-0.0814l-0.0133 0.0053-5.799 2.185-0.172 0.0653 0.1614 0.0867 5.24 2.828 0.0546 0.0293 0.0107-0.0187h0.0147l-0.6574 5.817 0.1547 0.0546 3.46-5.437 3.625 5.439 0.154-0.056-0.684-5.789 0.18 0.0014h0.021l0.017-0.0094 5.547-2.857 0.173-0.0893-0.184-0.0654-6.218-2.184-0.014-0.0053h-0.138l-2.398-20.26zm2.228 20.26-2.309-19.52-2.204 19.52h4.513zm-4.532 0.168h4.552l0.576 4.872-5.674-0.0267 0.5466-4.845zm-0.1693 0h-0.032l-5.611 2.115 5.059 2.729 0.0373 0.0013 0.5467-4.845zm-0.3973 5.013-0.6174 5.475 3.334-5.239 0.069-0.1093 3.575 5.361-0.646-5.461-5.714-0.0267zm5.864-0.14-0.576-4.873h0.09l6.02 2.116-5.354 2.757h-0.18z" clip-rule="evenodd" fill="url(#paint5_linear)" fill-rule="evenodd"/>
  <path d="m102.7 78.34h-4.552l-0.5466 4.845 5.674 0.0267-0.576-4.872z" fill="url(#paint5_linear)"/>
  <path d="m102.7 78.17-2.309-19.52-2.204 19.52h4.513z" fill="url(#paint5_linear)"/>
  <path d="m97.99 78.34h-0.032l-5.611 2.115 5.059 2.729 0.0373 0.0013 0.5467-4.845z" fill="url(#paint5_linear)"/>
  <path d="m97.59 83.35-0.6174 5.475 3.334-5.239 0.069-0.1093 3.575 5.361-0.646-5.461-5.714-0.0267z" fill="url(#paint5_linear)"/>
  <path d="m102.9 78.34 0.576 4.873h0.18l5.354-2.757-6.02-2.116h-0.09z" fill="url(#paint5_linear)"/>
  <path d="m155.6 17v44.23c0 8.91 7.259 15.93 16.17 15.93l44.23-0.0112v-2l-60.4-58.15z" fill="#282828" opacity=".25"/>
  <path d="m155.6 15v44.23c0 8.91 7.259 15.93 16.17 15.93l44.23-0.0112-60.4-60.15z" fill="url(#paint11_linear)"/>
  <defs>
    <linearGradient id="paint0_linear" x1="139.9" x2="142.8" y1="15" y2="242.4" gradientUnits="userSpaceOnUse">
      <stop stop-color="#fabd2f" offset="0"/>
      <stop stop-color="#d79921" offset="1"/>
    </linearGradient>
    <linearGradient id="paint1_linear" x1="39" x2="39" y1="15" y2="240.2" gradientUnits="userSpaceOnUse">
      <stop stop-color="#504945" offset="1e-7"/>
      <stop stop-color="#3c3836" offset="1"/>
    </linearGradient>
    <linearGradient id="paint2_linear" x1="72" x2="72" y1="70" y2="186" gradientUnits="userSpaceOnUse">
      <stop stop-color="#504945" offset="1e-7"/>
      <stop stop-color="#3c3836" offset="1"/>
    </linearGradient>
    <linearGradient id="paint3_linear" x1="75" x2="75" y1="48" y2="128" gradientUnits="userSpaceOnUse">
      <stop stop-color="#ebdbb2" offset="1e-7"/>
      <stop stop-color="#ebdbb2" offset="1"/>
    </linearGradient>
    <linearGradient id="paint4_linear" x1="75" x2="75" y1="48" y2="128" gradientUnits="userSpaceOnUse">
      <stop stop-color="#504945" offset="1e-7"/>
      <stop stop-color="#3c3836" offset="1"/>
    </linearGradient>
    <linearGradient id="paint5_linear" x1="91.94" x2="91.94" y1="57.91" y2="89.22" gradientUnits="userSpaceOnUse">
      <stop stop-color="#504945" offset="1e-7"/>
      <stop stop-color="#3c3836" offset="1"/>
    </linearGradient>
    <linearGradient id="paint11_linear" x1="155.6" x2="155.6" y1="15" y2="75.16" gradientUnits="userSpaceOnUse">
      <stop stop-color="#504945" offset="1e-7"/>
      <stop stop-color="#3c3836" offset="1"/>
    </linearGradient>
  </defs>
</svg>
