<svg width="256" height="256" version="1.1" viewBox="0 0 256 256" xmlns="http://www.w3.org/2000/svg">
  <defs>
    <linearGradient id="linearGradient21" x1="128" x2="128" y1="15" y2="241" gradientTransform="translate(-9.75e-4,-9.7e-4)" gradientUnits="userSpaceOnUse">
      <stop stop-color="#ebdbb2" offset="0"/>
      <stop stop-color="#d5c4a1" offset="1"/>
    </linearGradient>
    <linearGradient id="linearGradient7-6-0-64" x1="186" x2="156" y1="45.006" y2="75.012" gradientTransform="matrix(1.0833,0,0,1.0833,-17.997,-1.2506)" gradientUnits="userSpaceOnUse">
      <stop stop-color="#fabd2f" offset="0"/>
      <stop stop-color="#d79921" offset=".3027"/>
      <stop stop-color="#b57614" offset="1"/>
    </linearGradient>
    <linearGradient id="linearGradient14-7-1" x1="128" x2="128" y1="15.001" y2="241" gradientTransform="translate(0,4.8e-4)" gradientUnits="userSpaceOnUse">
      <stop stop-color="#b57614" stop-opacity=".09894" offset="0"/>
      <stop stop-color="#b57614" stop-opacity=".051237" offset=".2"/>
      <stop stop-color="#b57614" stop-opacity=".045936" offset=".70405"/>
      <stop stop-color="#282828" stop-opacity=".051237" offset=".80473"/>
      <stop stop-color="#282828" stop-opacity=".09894" offset="1"/>
    </linearGradient>
  </defs>
  <path d="m56.999 14.999c-9.9393 0-17 7.0595-17 17v149h176v-101l-64.998-64.998z" fill="url(#linearGradient21)" style="paint-order:markers fill stroke"/>
  <path d="m57 241c-9.9393 0-17-7.0595-17-17v-43h176v43c0 9.9405-7.0607 17-17 17z" fill="#b57614" stroke-linecap="round" stroke-linejoin="round" stroke-miterlimit="0" style="paint-order:markers fill stroke"/>
  <path d="m93.2 200c2.8077 5.364 5.1623 10.948 7.52 16.52 2.3568-5.5724 4.6676-11.178 7.52-16.52h5.68c1.2019 9.1934 1.7322 18.464 2.2 27.72h-6.08c-0.20884-7.031-0.45109-12.726-0.92-18.4-2.144 4.9499-4.2446 9.918-6.36 14.88h-4.36c-2.1341-4.9541-4.2337-9.9226-6.36-14.88-0.46892 5.6739-0.71116 11.369-0.92 18.4h-6.08c0.61669-12.642 1.2396-21.093 2.2-27.72zm42.04 4.8c-6.2421 0-8.24 3.9646-8.24 9.04 0 4.9582 2.1987 9.08 7.68 9.08 1.7594 0 2.5215-0.0803 3.08-0.2v-9.64h6.24v13.72c-3.5406 1.3909-8.9813 1.44-9.72 1.44-7.9578 0-13.76-4.8354-13.76-14.4 0-9.3096 6.2351-14.48 13.88-14.48 4.3253 0 7.726 1.1987 9.2 2.12l-1.8 5c-0.98141-0.52137-3.5054-1.68-6.56-1.68zm22.88-5.12c12.379 0 12.84 6.5014 12.84 9.32 0 3.3294-0.85048 9.44-12.96 9.44h-1.96v9.28h-6.24v-27.32c3.0027-0.58877 6.4466-0.72 8.32-0.72zm0.4 5.32c-0.96851 0-1.8853 0.0704-2.48 0.12v8h1.96c5.6666 0 6.52-1.933 6.52-4.16 0-2.7192-1.8321-3.96-6-3.96z" fill="#282828" opacity=".2" aria-label="MGP"/>
  <path d="m93.2 197c2.8077 5.364 5.1623 10.948 7.52 16.52 2.3568-5.5724 4.6676-11.178 7.52-16.52h5.68c1.2019 9.1934 1.7322 18.464 2.2 27.72h-6.08c-0.20884-7.031-0.45109-12.726-0.92-18.4-2.144 4.9499-4.2446 9.918-6.36 14.88h-4.36c-2.1341-4.9541-4.2337-9.9226-6.36-14.88-0.46892 5.6739-0.71116 11.369-0.92 18.4h-6.08c0.61669-12.642 1.2396-21.093 2.2-27.72zm42.04 4.8c-6.2421 0-8.24 3.9646-8.24 9.04 0 4.9582 2.1987 9.08 7.68 9.08 1.7594 0 2.5215-0.0803 3.08-0.2v-9.64h6.24v13.72c-3.5406 1.3909-8.9813 1.44-9.72 1.44-7.9578 0-13.76-4.8354-13.76-14.4 0-9.3096 6.2351-14.48 13.88-14.48 4.3253 0 7.726 1.1987 9.2 2.12l-1.8 5c-0.98141-0.52137-3.5054-1.68-6.56-1.68zm22.88-5.12c12.379 0 12.84 6.5014 12.84 9.32 0 3.3294-0.85048 9.44-12.96 9.44h-1.96v9.28h-6.24v-27.32c3.0027-0.58877 6.4466-0.72 8.32-0.72zm0.4 5.32c-0.96851 0-1.8853 0.0704-2.48 0.12v8h1.96c5.6666 0 6.52-1.933 6.52-4.16 0-2.7192-1.8321-3.96-6-3.96z" fill="#ebdbb2" aria-label="MGP"/>
  <path d="m134.4 196.36c-7.6449-1e-5 -13.881 5.1709-13.881 14.48 0 0.53599 0.0247 1.0523 0.0605 1.5586 0.61388-8.3966 6.5812-13.039 13.82-13.039 3.606 0 6.551 0.83355 8.291 1.6445l0.9082-2.5234c-1.474-0.92128-4.8739-2.1211-9.1992-2.1211zm23.719 0.32031c-1.8734 0-5.3157 0.13193-8.3184 0.7207v3c3.0027-0.58877 6.445-0.7207 8.3184-0.7207 10.506 0 12.423 4.6783 12.764 7.8184 0.0581-0.53526 0.0781-1.0438 0.0781-1.498 0-2.8186-0.46296-9.3203-12.842-9.3203zm-70.879 0.32031c-0.96038 6.6266-1.5845 15.078-2.2012 27.721h0.16211c0.56695-10.915 1.1611-18.663 2.0391-24.721h5.959c2.8077 5.364 5.1638 10.948 7.5215 16.52 2.3568-5.5724 4.6672-11.177 7.5195-16.52h5.6797c1.0721 8.2003 1.6034 16.463 2.0391 24.721h0.16016c-0.46782-9.2559-0.99733-18.527-2.1992-27.721h-5.6797c-2.8524 5.3425-5.1628 10.947-7.5195 16.52-2.3577-5.5719-4.7138-11.156-7.5215-16.52zm77.062 10.531c-0.49906 1.4927-2.035 2.5898-6.3027 2.5898h-1.9609v2.998h1.9609c5.6666 0 6.5195-1.9312 6.5195-4.1582 0-0.53285-0.0723-1.0086-0.2168-1.4297zm-26.543 2.5488v3h6.2402v-3zm-10.688 2.2129c-0.0461 0.50255-0.0723 1.0168-0.0723 1.5469 0 4.9582 2.1984 9.0801 7.6797 9.0801 1.7594 0 2.5215-0.0795 3.0801-0.19922v-3c-0.55854 0.1197-1.3207 0.19922-3.0801 0.19922-4.9346 0-7.2028-3.343-7.6074-7.627z" fill="#fbf1c7" opacity=".6"/>
  <path d="m105 70v30h30a30 30 0 0 0-30-30zm-10 10a30 30 0 0 0-30 30 30 30 0 0 0 30 30 30 30 0 0 0 30-30h-30zm50 0v15.002h46v-15.002zm0 30v15h46v-15zm-80 45v15h105v-15z" fill="#ebdbb2" opacity=".6" stroke-linecap="square" stroke-linejoin="round" stroke-miterlimit="0" stroke-width="6" style="paint-order:markers fill stroke"/>
  <path d="m105 65v30h30a30 30 0 0 0-30-30zm-10 10a30 30 0 0 0-30 30 30 30 0 0 0 30 30 30 30 0 0 0 30-30h-30v-30zm50 0v15.002h46v-15.002h-46zm0 30v15h46v-15h-46zm-80 45v15h105v-15h-105z" fill="#b57614" stroke-linecap="square" stroke-linejoin="round" stroke-miterlimit="0" stroke-width="6" style="paint-order:markers fill stroke"/>
  <path d="m105 65v5a30 30 0 0 1 29.562 25h0.4375a30 30 0 0 0-30-30zm-10 10a30 30 0 0 0-30 30 30 30 0 0 0 0.24609 2.5 30 30 0 0 1 29.754-27.5zm50 0v5h46v-5zm-50 30v5h29.508a30 30 0 0 0 0.49219-5zm50 0v5h46v-5zm-80 45v5h105v-5z" fill="#282828" opacity=".2" stroke-linecap="square" stroke-linejoin="round" stroke-miterlimit="0" stroke-width="6" style="paint-order:markers fill stroke"/>
  <path d="m57 15c-9.9393 0-17 7.0595-17 17v192c0 9.9393 7.0595 17 17 17h142c9.9405 0 17-7.0607 17-17v-144l-65-65zm4.0332 4.9902 89.967 0.01 60 60 2e-4 139.75c1e-5 9.4999-6.6575 16.248-16.033 16.248h-133.93c-9.3757 0-16.033-6.7481-16.033-16.248v-183.51c0-9.501 6.6586-16.25 16.033-16.25z" fill="url(#linearGradient14-7-1)" style="paint-order:markers fill stroke"/>
  <path d="m151 15.002v52.914c0 9.6525 7.8639 17.084 17.518 17.084l47.482-1.34e-4v-5z" fill="#282828" opacity=".2" stroke-width="1.0833"/>
  <path d="m151 15.001v47.916c0 9.6525 7.8639 17.084 17.518 17.084l47.482-1.34e-4z" fill="url(#linearGradient7-6-0-64)" stroke-width="1.0833"/>
</svg>
