<svg width="256" height="256" version="1.1" viewBox="0 0 256 256" xmlns="http://www.w3.org/2000/svg">
  <defs>
    <linearGradient id="linearGradient26" x1="-160" x2="-160" y2="226" gradientTransform="translate(267,15)" gradientUnits="userSpaceOnUse">
      <stop stop-color="#689d6a" offset="0"/>
      <stop stop-color="#689d6a" offset="1"/>
    </linearGradient>
    <linearGradient id="linearGradient14-5" x1="128" x2="128" y1="15.001" y2="241" gradientTransform="translate(0,4.8e-4)" gradientUnits="userSpaceOnUse">
      <stop stop-color="#ebdbb2" stop-opacity=".2" offset="0"/>
      <stop stop-color="#ebdbb2" stop-opacity=".1" offset=".2"/>
      <stop stop-opacity="0" offset=".70405"/>
      <stop stop-opacity=".05" offset=".80473"/>
      <stop stop-opacity=".1" offset="1"/>
    </linearGradient>
    <linearGradient id="linearGradient7-6-0" x1="186" x2="156" y1="45.006" y2="75.012" gradientTransform="matrix(1.0833,0,0,1.0833,-17.997,-1.2506)" gradientUnits="userSpaceOnUse">
      <stop stop-color="#8ec07c" offset="0"/>
      <stop stop-color="#689d6a" offset=".3027"/>
      <stop stop-color="#427b58" offset="1"/>
    </linearGradient>
  </defs>
  <path d="m57 15c-9.9393 0-17 7.0595-17 17v192c0 9.9393 7.0595 17 17 17h142c9.9405 0 17-7.0607 17-17v-144l-64.999-64.999z" fill="url(#linearGradient26)" stroke-linecap="round" stroke-linejoin="round" stroke-miterlimit="0" style="paint-order:markers fill stroke"/>
  <path d="m57 241c-9.9393 0-17-7.0595-17-17v-43h176v43c0 9.9405-7.0607 17-17 17z" fill="#8ec07c" opacity=".7" stroke-linecap="round" stroke-linejoin="round" stroke-miterlimit="0" style="paint-order:markers fill stroke"/>
  <path d="m52.832 224.18v-22.176h14.976v4.192h-9.984v4.352h8.864v4.096h-8.864v5.344h10.72v4.192zm25.28-22.176c2.2461 4.2912 4.1298 8.7585 6.016 13.216 1.8854-4.4579 3.7341-8.942 6.016-13.216h4.544c0.9615 7.3547 1.3858 14.771 1.76 22.176h-4.864c-0.16707-5.6248-0.36087-10.181-0.736-14.72-1.7152 3.9599-3.3957 7.9344-5.088 11.904h-3.488c-1.7077-3.9631-3.3864-7.9383-5.088-11.904-0.37514 4.5391-0.56893 9.0953-0.736 14.72h-4.864c0.49335-10.114 0.99169-16.875 1.76-22.176zm22.816 22.176v-22.176h14.976v4.192h-9.984v4.352h8.864v4.096h-8.864v5.344h10.72v4.192zm25.888-22.432c5.7188 0 10.304 1.7342 10.304 7.296 0 1.7516-0.39113 4.5246-4.16 6.08 2.8408 3.5171 5.2055 8.4259 5.504 9.056h-5.6c-3.2047-5.7347-4.2013-7.032-5.088-8.096h-2.464v8.096h-4.992v-21.856c2.4953-0.48928 5.1096-0.576 6.496-0.576zm0.288 4.256c-0.59907-8e-3 -1.1956 0.0481-1.792 0.096v6.016h1.408c3.8719 0 5.248-0.94244 5.248-3.104 0-1.1526-0.36558-3.008-4.864-3.008zm30.4 18.176c-0.51465-1.6096-1.085-3.201-1.632-4.8h-8.64c-0.56832 1.5924-1.1294 3.1855-1.632 4.8h-5.184c3.3704-9.6792 6.0724-16.499 8.832-22.176h4.768c3.3176 7.0256 5.945 13.885 8.832 22.176zm-5.984-17.152c-0.57287 1.7186-1.3199 3.2761-3.136 8.384h6.304c-0.0585-0.16458-1.4903-4.1899-3.168-8.384zm29.024 12.864v4.288h-14.816v-22.176h4.992v17.888zm8.192 0.224c0.63779 0.0784 1.2789 0.064 1.92 0.064 6.2353 0 7.36-4.1265 7.36-7.104 0-6.2824-4.1842-7.072-7.2-7.072-0.69521-4e-3 -1.388 0.0434-2.08 0.096zm14.432-7.04c0 9.951-8.0845 11.392-12.768 11.392-0.70962 0-3.9895-0.0328-6.656-0.576v-21.6c0.1076-0.0199 2.9529-0.544 6.816-0.544 6.0053 0 12.608 2.0986 12.608 11.328z" fill="#ebdbb2" opacity=".2" aria-label="EMERALD"/>
  <path d="m52.832 222.18v-22.176h14.976v4.192h-9.984v4.352h8.864v4.096h-8.864v5.344h10.72v4.192zm25.28-22.176c2.2461 4.2912 4.1298 8.7585 6.016 13.216 1.8854-4.4579 3.7341-8.942 6.016-13.216h4.544c0.9615 7.3547 1.3858 14.771 1.76 22.176h-4.864c-0.16707-5.6248-0.36087-10.181-0.736-14.72-1.7152 3.9599-3.3957 7.9344-5.088 11.904h-3.488c-1.7077-3.9631-3.3864-7.9383-5.088-11.904-0.37514 4.5391-0.56893 9.0953-0.736 14.72h-4.864c0.49335-10.114 0.99169-16.875 1.76-22.176zm22.816 22.176v-22.176h14.976v4.192h-9.984v4.352h8.864v4.096h-8.864v5.344h10.72v4.192zm25.888-22.432c5.7188 0 10.304 1.7342 10.304 7.296 0 1.7516-0.39113 4.5246-4.16 6.08 2.8408 3.5171 5.2055 8.4259 5.504 9.056h-5.6c-3.2047-5.7347-4.2013-7.032-5.088-8.096h-2.464v8.096h-4.992v-21.856c2.4953-0.48928 5.1096-0.576 6.496-0.576zm0.288 4.256c-0.59907-8e-3 -1.1956 0.0481-1.792 0.096v6.016h1.408c3.8719 0 5.248-0.94244 5.248-3.104 0-1.1526-0.36558-3.008-4.864-3.008zm30.4 18.176c-0.51465-1.6096-1.085-3.201-1.632-4.8h-8.64c-0.56832 1.5924-1.1294 3.1855-1.632 4.8h-5.184c3.3704-9.6792 6.0724-16.499 8.832-22.176h4.768c3.3176 7.0256 5.945 13.885 8.832 22.176zm-5.984-17.152c-0.57287 1.7186-1.3199 3.2761-3.136 8.384h6.304c-0.0585-0.16458-1.4903-4.1899-3.168-8.384zm29.024 12.864v4.288h-14.816v-22.176h4.992v17.888zm8.192 0.224c0.63779 0.0784 1.2789 0.064 1.92 0.064 6.2353 0 7.36-4.1265 7.36-7.104 0-6.2824-4.1842-7.072-7.2-7.072-0.69521-4e-3 -1.388 0.0434-2.08 0.096zm14.432-7.04c0 9.951-8.0845 11.392-12.768 11.392-0.70962 0-3.9895-0.0328-6.656-0.576v-21.6c0.1076-0.0199 2.9529-0.544 6.816-0.544 6.0053 0 12.608 2.0986 12.608 11.328z" fill="#427b58" aria-label="EMERALD"/>
  <path d="m126.82 199.74c-1.3864 0-4.0008 0.0869-6.4961 0.57617v2c2.4953-0.48928 5.1098-0.57617 6.4961-0.57617 5.3507 0 9.7072 1.5186 10.246 6.2695 0.037-0.34446 0.0566-0.67788 0.0566-0.97461 0-5.5618-4.5839-7.2949-10.303-7.2949zm63.744 0c-3.8631 0-6.7088 0.52307-6.8164 0.54297v2c0.1076-0.0199 2.9533-0.54297 6.8164-0.54297 5.7642 0 12.061 1.9522 12.559 10.27 0.0175-0.31264 0.0488-0.61017 0.0488-0.9414 0-9.2294-6.6021-11.328-12.607-11.328zm-137.73 0.25586v2h14.977v-2zm20.512 0c-0.76831 5.3013-1.2664 12.062-1.7598 22.176h0.10742c0.45997-8.9534 0.93902-15.254 1.6523-20.176h4.7676c2.2461 4.2912 4.1314 8.7593 6.0176 13.217 1.8854-4.4579 3.7337-8.9428 6.0156-13.217h4.543c0.87496 6.6927 1.3 13.436 1.6523 20.176h0.10742c-0.37425-7.4048-0.79826-14.821-1.7598-22.176h-4.543c-2.2819 4.274-4.1302 8.7589-6.0156 13.217-1.8862-4.4575-3.7715-8.9256-6.0176-13.217zm27.584 0v2h14.977v-2zm48.32 0c-2.7596 5.677-5.4616 12.497-8.832 22.176h0.71484c3.0328-8.5788 5.562-14.919 8.1172-20.176h4.7676c3.04 6.4376 5.5074 12.788 8.1192 20.176h0.71289c-2.887-8.291-5.5144-15.15-8.832-22.176zm16.48 0v2h4.9922v-2zm-33.908 8.0098c-0.42203 1.4446-1.8986 2.1016-5.0996 2.1016h-1.4082v2h1.4082c3.8719 0 5.248-0.94196 5.248-3.1035 0-0.30046-0.032-0.64737-0.14844-0.99804zm-73.996 0.53515v2h8.8633v-2zm48.096 0v2h8.8633v-2zm92.049 3.4199c-0.22884 2.8468-1.6768 6.2109-7.3125 6.2109-0.64108 0-1.2821 0.0139-1.9199-0.0644v2c0.63779 0.0784 1.2788 0.0644 1.9199 0.0644 6.2353 0 7.3594-4.126 7.3594-7.1035 0-0.38991-0.0159-0.75871-0.0469-1.1074zm-48.84 1.4434c-0.26628 0.71983-0.41171 1.065-0.74414 2h6.3027c-0.0218-0.0614-0.3832-1.0563-0.72852-2zm-15.076 1.1602c-0.33287 0.19429-0.6834 0.38224-1.0918 0.55078 1.8747 2.3211 3.4774 5.1531 4.4805 7.0566h1.0234c-0.25918-0.54716-2.0782-4.3205-4.4121-7.6074zm36.668 3.3203v2h9.8242v-2zm-112.9 0.0957v2h10.721v-2zm48.096 0v2h10.721v-2z" fill="#282828" opacity=".2"/>
  <path d="m155.25 71.333 0.98121 1.3495-4.7736 18.976-1.8155 0.31418-11.572-18.976 0.83331-1.6637h16.347zm-38.156 0 0.80431 1.7053-13.621 20.03-1.8136-0.48693-2.73-20.03 1.0102-1.2181h16.347zm48.471 0.37875 20.436 27.416-0.78499 1.7304h-28.605l-0.9696-1.3882 8.1745-27.416 1.7546-0.34173zm-36.783 0 20.436 27.416-0.78592 1.7304h-40.872l-0.78593-1.7304 20.436-27.416h1.5699zm-38.349 0 1.7536 0.34174 8.1745 27.416-0.96962 1.3882h-28.605l-0.78535-1.7304 20.436-27.416zm94.786 33.361 0.74728 1.773-53.13 61.154-1.6869-1.133 24.525-61.154 0.93868-0.63998h28.605zm-36.783 0 0.94351 1.4607-20.436 52.724h-1.8851l-20.436-52.724 0.94353-1.4607h40.872zm-49.041 0 0.93936 0.63998 24.525 61.154-1.6859 1.133-53.13-61.154 0.74814-1.773h28.605z" clip-rule="evenodd" fill="#ebdbb2" fill-rule="evenodd" opacity=".1" stroke-width=".96672"/>
  <path d="m155.25 68.333 0.98121 1.3495-4.7736 18.976-1.8155 0.31418-11.572-18.976 0.83331-1.6637h16.347zm-38.156 0 0.80431 1.7053-13.621 20.03-1.8136-0.48693-2.73-20.03 1.0102-1.2181h16.347zm48.471 0.37875 20.436 27.416-0.78499 1.7304h-28.605l-0.9696-1.3882 8.1745-27.416 1.7546-0.34173zm-36.783 0 20.436 27.416-0.78592 1.7304h-40.872l-0.78593-1.7304 20.436-27.416h1.5699zm-38.349 0 1.7536 0.34174 8.1745 27.416-0.96962 1.3882h-28.605l-0.78535-1.7304 20.436-27.416zm94.786 33.361 0.74728 1.773-53.13 61.154-1.6869-1.133 24.525-61.154 0.93868-0.63998h28.605zm-36.783 0 0.94351 1.4607-20.436 52.724h-1.8851l-20.436-52.724 0.94353-1.4607h40.872zm-49.041 0 0.93936 0.63998 24.525 61.154-1.6859 1.133-53.13-61.154 0.74814-1.773h28.605z" clip-rule="evenodd" fill="#427b58" fill-rule="evenodd" stroke-width=".96672"/>
  <path d="m100.75 68.333-1.0098 1.2168 0.35156 2.5762 0.6582-0.79297h16.273l0.88086-1.2949-0.80469-1.7051h-4e-3zm38.16 0-0.83399 1.6621 0.82617 1.3535 8e-3 -0.01563h16.346l0.41991 0.57812 0.56055-2.2285-0.98046-1.3496zm-48.471 0.37891-20.434 27.414 0.78516 1.7305h0.16016l19.488-26.145 1.752 0.33984 7.5469 25.314 0.62696-0.89844-8.1738-27.416zm36.775 0-20.436 27.414 0.78515 1.7305h0.16211l19.488-26.145h1.5723l19.488 26.145h0.16211l0.78516-1.7305-20.436-27.414h-2e-3zm38.355 2e-3 -1.748 0.33984-8.1758 27.416 0.62696 0.89648 7.5488-25.312 1.748-0.33984 19.488 26.143h0.16211l0.78516-1.7305zm-94.775 33.357-0.74805 1.7734 1.0664 1.2266h28.287l0.9375 0.64062 23.578 58.791 0.94726-0.63672-24.525-61.154-0.9375-0.64062zm36.775 0-0.94337 1.4609 0.72658 1.875 0.21679-0.33593h40.869l0.2168 0.33593 0.72656-1.875-0.94336-1.4609zm49.047 0-0.9375 0.64062-24.525 61.154 0.94726 0.63672 23.578-58.791 0.9375-0.64062h28.287l1.0664-1.2266-0.74804-1.7734z" fill="#282828" opacity=".15" stroke-width=".96672"/>
  <path d="m57 15c-9.9393 0-17 7.0595-17 17v192c0 9.9393 7.0595 17 17 17h142c9.9405 0 17-7.0607 17-17v-144l-65-64.998zm4.0332 4.9902 89.967 2e-3 60 60.009v139.75c0 9.4999-6.6575 16.248-16.033 16.248h-133.93c-9.3757 0-16.033-6.7481-16.033-16.248v-183.51c0-9.501 6.6586-16.25 16.033-16.25z" fill="url(#linearGradient14-5)" style="paint-order:markers fill stroke"/>
  <path d="m151 15.002v52.914c0 9.6525 7.8639 17.084 17.518 17.084l47.482-1.34e-4v-5z" fill="#282828" opacity=".3" stroke-width="1.0833"/>
  <path d="m151 15.001v47.916c0 9.6525 7.8639 17.084 17.518 17.084l47.482-1.34e-4z" fill="url(#linearGradient7-6-0)" stroke-width="1.0833"/>
</svg>
