<svg width="256" height="256" version="1.1" viewBox="0 0 256 256" xmlns="http://www.w3.org/2000/svg">
  <defs>
    <linearGradient id="linearGradient7-6-0-9" x1="186" x2="156" y1="45.006" y2="75.012" gradientTransform="matrix(1.0833,0,0,1.0833,-17.997,-1.2506)" gradientUnits="userSpaceOnUse">
      <stop stop-color="#d3869b" offset="0"/>
      <stop stop-color="#b16286" offset=".3027"/>
      <stop stop-color="#8f3f71" offset="1"/>
    </linearGradient>
    <linearGradient id="linearGradient21" x1="128" x2="128" y1="15" y2="241" gradientTransform="translate(-9.7e-4,-9.75e-4)" gradientUnits="userSpaceOnUse">
      <stop stop-color="#ebdbb2" offset="0"/>
      <stop stop-color="#d5c4a1" offset="1"/>
    </linearGradient>
    <linearGradient id="linearGradient14-0-1" x1="128" x2="128" y1="15.001" y2="241" gradientTransform="translate(0,4.8e-4)" gradientUnits="userSpaceOnUse">
      <stop stop-color="#8f3f71" stop-opacity=".099738" offset="0"/>
      <stop stop-color="#8f3f71" stop-opacity=".048556" offset=".2"/>
      <stop stop-color="#8f3f71" stop-opacity=".053806" offset=".70405"/>
      <stop stop-color="#282828" stop-opacity=".047244" offset=".80473"/>
      <stop stop-color="#282828" stop-opacity=".10367" offset="1"/>
    </linearGradient>
  </defs>
  <path d="m56.999 14.999c-9.9393 0-17 7.0595-17 17v149h176v-101l-64.998-64.998z" fill="url(#linearGradient21)" style="paint-order:markers fill stroke"/>
  <path d="m57 241c-9.9393 0-17-7.0595-17-17v-43h176v43c0 9.9405-7.0607 17-17 17z" fill="#b16286" stroke-linecap="round" stroke-linejoin="round" stroke-miterlimit="0" style="paint-order:markers fill stroke"/>
  <path d="m92.74 222.64c0.79723 0.0981 1.5987 0.08 2.4 0.08 7.7941 0 9.2-5.1581 9.2-8.88 0-7.853-5.2303-8.84-9-8.84-0.86856 4e-3 -1.7356 0.0424-2.6 0.12zm18.04-8.8c0 12.439-10.106 14.24-15.96 14.24-0.88742 0-4.9869-0.041-8.32-0.72v-27c0.13447-0.0249 3.691-0.68 8.52-0.68 7.5066 0 15.76 2.6232 15.76 14.16zm10.44 0c0 5.6625 2.8829 8.96 7.36 8.96 4.8781 0 7.36-3.9271 7.36-8.96 0-4.9078-2.3872-9-7.36-9-4.1749 0-7.36 3.1092-7.36 9zm21.16 0c0 9.292-5.7804 14.44-13.8 14.44-7.1983 0-13.8-4.5179-13.8-14.44 0-9.2833 6.2024-14.48 13.8-14.48 7.6238 0 13.8 4.991 13.8 14.48zm17.84 14.44c-11.917 0-13.84-8.7761-13.84-14.44 0-8.7096 5.577-14.48 14.16-14.48 3.6495 0 6.894 1.0788 8.56 2.12l-1.8 5.04c-1.62-0.86063-3.9005-1.64-6.84-1.64-1.6567 0-7.6 0.57595-7.6 8.84 0 4.3066 1.4676 9.04 7.92 9.04 2.4702 0.084 4.7798-0.55372 7-1.56l1.72 5c-3.204 1.9418-7.9741 2.08-9.28 2.08z" fill="#282828" opacity=".15" aria-label="DOCI"/>
  <path d="m92.74 219.64c0.79723 0.0981 1.5987 0.08 2.4 0.08 7.7941 0 9.2-5.1581 9.2-8.88 0-7.853-5.2303-8.84-9-8.84-0.86856 4e-3 -1.7356 0.0424-2.6 0.12zm18.04-8.8c0 12.439-10.106 14.24-15.96 14.24-0.88742 0-4.9869-0.041-8.32-0.72v-27c0.13447-0.0249 3.691-0.68 8.52-0.68 7.5066 0 15.76 2.6232 15.76 14.16zm10.44 0c0 5.6625 2.8829 8.96 7.36 8.96 4.8781 0 7.36-3.9271 7.36-8.96 0-4.9078-2.3872-9-7.36-9-4.1749 0-7.36 3.1092-7.36 9zm21.16 0c0 9.292-5.7804 14.44-13.8 14.44-7.1983 0-13.8-4.5179-13.8-14.44 0-9.2833 6.2024-14.48 13.8-14.48 7.6238 0 13.8 4.991 13.8 14.48zm17.84 14.44c-11.917 0-13.84-8.7761-13.84-14.44 0-8.7096 5.577-14.48 14.16-14.48 3.6495 0 6.894 1.0788 8.56 2.12l-1.8 5.04c-1.62-0.86063-3.9005-1.64-6.84-1.64-1.6567 0-7.6 0.57595-7.6 8.84 0 4.3066 1.4676 9.04 7.92 9.04 2.4702 0.084 4.7798-0.55372 7-1.56l1.72 5c-3.204 1.9418-7.9741 2.08-9.28 2.08z" fill="#ebdbb2" aria-label="DOCI"/>
  <path d="m128.58 196.36c-7.5976 0-13.801 5.1972-13.801 14.48 0 0.51971 0.0291 1.0157 0.0644 1.5059 0.63324-8.3412 6.5582-12.986 13.736-12.986 7.2174 0 13.128 4.48 13.738 13.008 0.0361-0.49731 0.0625-1.0035 0.0625-1.5274 0-9.489-6.177-14.48-13.801-14.48zm31.959 0c-8.583-1e-5 -14.158 5.7708-14.158 14.48 0 0.50122 0.0209 1.0325 0.0566 1.5742 0.57986-7.906 5.9973-13.055 14.102-13.055 3.0818 0 5.8646 0.77041 7.6621 1.6367l0.89844-2.5156c-1.666-1.0412-4.911-2.1211-8.5606-2.1211zm-65.52 0.32031c-4.829 0-8.3851 0.65478-8.5195 0.67969v3c0.13447-0.0249 3.6906-0.67969 8.5195-0.67969 7.1631 0 15 2.3955 15.703 12.639 0.0334-0.47753 0.0566-0.96541 0.0566-1.4785 0-11.537-8.2532-14.16-15.76-14.16zm57.91 15.561c-0.0452 0.46419-0.0703 0.95622-0.0703 1.4805 0 4.3066 1.4676 9.0391 7.9199 9.0391 2.4702 0.084 4.7798-0.55427 7-1.5606l0.84765 2.4629c0.29959-0.14289 0.59392-0.29372 0.87305-0.46289l-1.7207-5c-2.2202 1.0063-4.5298 1.6446-7 1.5606-5.6982 0-7.5042-3.6905-7.8496-7.5195zm-48.668 0.0664c-0.37971 3.4769-2.3114 7.4141-9.1211 7.4141-0.80135 0-1.6032 0.018-2.4004-0.0801v3c0.79723 0.0981 1.599 0.0801 2.4004 0.0801 7.7941 0 9.1992-5.159 9.1992-8.8809 0-0.54637-0.0297-1.0513-0.0781-1.5332zm31.594 0.0312c-0.45369 4.2909-2.8946 7.4629-7.2754 7.4629-4.0626 0-6.803-2.7233-7.2774-7.457-0.0487 0.4792-0.082 0.97276-0.082 1.4961 0 5.6625 2.8823 8.9609 7.3594 8.9609 4.8781 0 7.3594-3.928 7.3594-8.9609 0-0.51192-0.0318-1.0115-0.084-1.502z" fill="#fbf1c7" opacity=".6"/>
  <path d="m70 48v60h60v-60zm75 50v10h41v-10zm-75 20v10h116v-10zm0 20v10h116v-10zm0 20v10h116v-10z" fill="#ebdbb2" opacity=".6" style="paint-order:markers fill stroke"/>
  <path d="m70 45v60h60v-60zm75 50v10h41v-10zm-75 20v10h116v-10zm0 20v10h116v-10zm0 20v10h116v-10z" fill="#b16286" style="paint-order:markers fill stroke"/>
  <path d="m70 45v3h60v-3zm75 50v3h41v-3zm-75 20v3h116v-3zm0 20v3h116v-3zm0 20v3h116v-3z" fill="#282828" opacity=".2" style="paint-order:markers fill stroke"/>
  <path d="m115 54c-5.5228 0-10 4.4772-10 10s4.4772 10 10 10 10-4.4772 10-10-4.4772-10-10-10zm-24 16-16 30h50l-13-20-7 10z" fill="#282828" opacity=".2" stroke-linecap="round" stroke-linejoin="round" stroke-miterlimit="0" stroke-width="1.5" style="paint-order:markers fill stroke"/>
  <path d="m115 52c-5.5228 0-10 4.4772-10 10s4.4772 10 10 10 10-4.4772 10-10-4.4772-10-10-10zm-24 16-16 30h50l-13-20-7 10z" fill="#ebdbb2" stroke-linecap="round" stroke-linejoin="round" stroke-miterlimit="0" stroke-width="1.5" style="paint-order:markers fill stroke"/>
  <path d="m115 52c-5.5228 0-10 4.4772-10 10 0 0.3379 0.0161 0.67071 0.0488 1 0.50227-5.0528 4.7662-9 9.9512-9s9.4489 3.9472 9.9512 9c0.0328-0.32929 0.0489-0.6621 0.0489-1 0-5.5228-4.4772-10-10-10zm-24 16-16 30h1.0664l14.934-28 14 20 7-10 11.699 18h1.3008l-13-20-7 10z" fill="#fbf1c7" opacity=".6" stroke-linecap="round" stroke-linejoin="round" stroke-miterlimit="0" stroke-width="1.5" style="paint-order:markers fill stroke"/>
  <path d="m57 15c-9.9393 0-17 7.0595-17 17v192c0 9.9393 7.0595 17 17 17h142c9.9405 0 17-7.0607 17-17v-144l-65-65zm4.0332 4.9902 89.967 0.01 60 60 2e-4 139.75c1e-5 9.4999-6.6575 16.248-16.033 16.248h-133.93c-9.3757 0-16.033-6.7481-16.033-16.248v-183.51c0-9.501 6.6586-16.25 16.033-16.25z" fill="url(#linearGradient14-0-1)" style="paint-order:markers fill stroke"/>
  <path d="m151 15.002v52.914c0 9.6525 7.8639 17.084 17.518 17.084l47.482-1.34e-4v-5z" fill="#282828" opacity=".2" stroke-width="1.0833"/>
  <path d="m151 15.001v47.916c0 9.6525 7.8639 17.084 17.518 17.084l47.482-1.34e-4z" fill="url(#linearGradient7-6-0-9)" stroke-width="1.0833"/>
</svg>
