<svg width="256" height="256" version="1.1" viewBox="0 0 256 256" xmlns="http://www.w3.org/2000/svg">
  <defs>
    <linearGradient id="linearGradient7-6-0" x1="186" x2="156" y1="45.006" y2="75.012" gradientTransform="matrix(1.0833 0 0 1.0833 -17.998 -1.2506)" gradientUnits="userSpaceOnUse">
      <stop stop-color="#a89984" offset="0"/>
      <stop stop-color="#7c6f64" offset=".3027"/>
      <stop stop-color="#504945" offset="1"/>
    </linearGradient>
    <linearGradient id="linearGradient21" x1="128" x2="128" y1="15" y2="241" gradientUnits="userSpaceOnUse">
      <stop stop-color="#ebdbb2" offset="0"/>
      <stop stop-color="#d5c4a1" offset="1"/>
    </linearGradient>
    <linearGradient id="linearGradient14-8" x1="128" x2="128" y1="15.001" y2="241" gradientTransform="translate(0,5e-4)" gradientUnits="userSpaceOnUse">
      <stop stop-color="#282828" stop-opacity=".098065" offset="0"/>
      <stop stop-color="#282828" stop-opacity=".051613" offset=".2"/>
      <stop stop-color="#282828" stop-opacity=".050323" offset=".70405"/>
      <stop stop-color="#282828" stop-opacity=".1" offset=".80473"/>
      <stop stop-color="#282828" stop-opacity=".2" offset="1"/>
    </linearGradient>
  </defs>
  <path d="m57 15c-9.9393 0-17 7.0595-17 17v149h176v-101l-64.998-64.998-94.002-0.001953z" fill="url(#linearGradient21)" style="paint-order:markers fill stroke"/>
  <path d="m57 241c-9.9393 0-17-7.0595-17-17v-43h176v43c0 9.9405-7.0607 17-17 17z" fill="#665c54" stroke-linecap="round" stroke-linejoin="round" stroke-miterlimit="0" style="paint-order:markers fill stroke"/>
  <path d="m121.72 227.76c-1.9571-3.1686-6.1991-8.6704-10.12-11.72v11.72h-6.24v-27.72h6.24v10.48c3.2506-3.4103 6.335-6.9732 9.48-10.48h7.4c-2.2923 2.712-6.5669 7.6069-11.72 12.76 5.4224 4.5078 9.7838 10.787 12.36 14.96zm13.48 0c0.65612-7.9828 4.3768-17.496 8.08-22.68h-12.04v-5.08h19.4v4.32c-3.3252 3.637-8.7408 13.552-9.4 23.44z" fill="#282828" opacity=".2" aria-label="K7"/>
  <path d="m121.72 224.76c-1.9571-3.1686-6.1991-8.6704-10.12-11.72v11.72h-6.24v-27.72h6.24v10.48c3.2506-3.4103 6.335-6.9732 9.48-10.48h7.4c-2.2923 2.712-6.5669 7.6069-11.72 12.76 5.4224 4.5078 9.7838 10.787 12.36 14.96zm13.48 0c0.65612-7.9828 4.3768-17.496 8.08-22.68h-12.04v-5.08h19.4v4.32c-3.3252 3.637-8.7408 13.552-9.4 23.44z" fill="#ebdbb2" aria-label="K7"/>
  <path d="m131.24 197v3h19.4v-3zm-25.881 0.0391v3h6.2402v-3zm15.721 0c-3.145 3.5068-6.2298 7.0702-9.4805 10.48v3c3.2506-3.4103 6.3355-6.9737 9.4805-10.48h4.8047c1.0061-1.1451 1.9125-2.1917 2.5957-3zm20.324 8.041c-3.0042 5.3839-5.6606 13.055-6.2051 19.68h0.37695c1.1952-7.2542 4.4549-15.132 7.7031-19.68zm-23.064 6.1152c-0.51855 0.53119-1.041 1.0664-1.5801 1.6055 4.2404 3.5251 7.8177 8.1217 10.414 11.959h1.9453c-2.3204-3.7584-6.0916-9.2218-10.779-13.564z" fill="#fbf1c7" opacity=".6"/>
  <g transform="translate(-1200.9 -1231.3)">
    <path d="m1257.6 1357.5c-0.3248 0-0.5879 0.2634-0.5879 0.5879v21.17c0 0.3254 0.2631 0.5879 0.5879 0.5879h0.3554v-22.346zm142.63 0v24.934c0 2.0281-1.6459 3.6738-3.6719 3.6738h-134.93c-1.9551 0-3.537-1.533-3.6504-3.459v2.8594c0 2.0281 1.6432 3.6719 3.6719 3.6719h134.93c2.026 0 3.6738-1.6438 3.6738-3.6719v-5.6621h0.375c0.3245 0 0.5879-0.2625 0.5879-0.5879v-21.17c0-0.3245-0.2634-0.5879-0.5879-0.5879h-0.375z" fill="#282828" opacity=".15"/>
    <path d="m1298.8 1329c-0.2617 0-0.5207 0.021-0.7735 0.049v2.2617h1.7656v-2.2617c-0.2889-0.032-0.5833-0.049-0.8808-0.049-0.038 0-0.074-5e-4 -0.1113 0zm59.896 0c-0.2611 0-0.5182 0.021-0.7714 0.049v2.2617h1.7656v-2.2617c-0.2894-0.032-0.5831-0.049-0.8809-0.049-0.037 0-0.076-5e-4 -0.1133 0zm-53.168 3.3613-1.961 1.1309 0.8828 1.5293 1.961-1.1328c-0.2373-0.5438-0.5337-1.0556-0.8828-1.5274zm59.898 0-1.959 1.1309 0.8789 1.5293 1.9629-1.1328c-0.237-0.5438-0.5336-1.0556-0.8828-1.5274zm-73.133 0c-0.3519 0.4718-0.6492 0.9797-0.8867 1.5235l1.9629 1.1328 0.8808-1.5274zm59.898 0c-0.3522 0.4718-0.6497 0.9797-0.8867 1.5235l1.9629 1.1328 0.8809-1.5274zm-58.822 7.0156-1.9629 1.1329c0.2403 0.5398 0.5356 1.0536 0.8847 1.5254l1.959-1.1309zm11.08 0-0.8828 1.5274 1.9629 1.1348c0.3463-0.4748 0.6436-0.9885 0.8809-1.5313zm48.818 0-1.9629 1.1329c0.2401 0.5398 0.5357 1.0536 0.8848 1.5254l1.959-1.1309zm11.078 0-0.8789 1.5274 1.961 1.1348c0.3462-0.4748 0.6438-0.9885 0.8808-1.5313zm-66.32 3.7071v2.2637c0.2889 0.032 0.5843 0.049 0.8848 0.049 0.2975 0 0.5919-0.018 0.8808-0.049v-2.2637zm59.898 0v2.2637c0.2894 0.032 0.5849 0.049 0.8847 0.049 0.2978 0 0.5915-0.018 0.8809-0.049v-2.2637z" fill="#928374"/>
    <path d="m1303.9 1374.1c-0.694 0-1.2558 0.5645-1.2558 1.2578v2.1426c0 0.6942 0.5618 1.2559 1.2558 1.2559h3.5157c0.6937 0 1.2558-0.5617 1.2558-1.2559v-0.035h-3.4824c-0.6939 0-1.2539-0.5597-1.2539-1.2539v-2.1114zm50.463 0v2.1114c0 0.6942-0.5615 1.2539-1.2558 1.2539h-3.4825v0.035c0 0.6942 0.5628 1.2559 1.2559 1.2559h3.5176c0.6942 0 1.2558-0.5617 1.2558-1.2559v-2.1426c0-0.6933-0.5616-1.2578-1.2558-1.2578zm-60.84 4.375c-0.2676 0.1473-0.512 0.3288-0.7266 0.543-0.6028 0.5975-0.9765 1.4231-0.9765 2.3379 0 1.8139 1.47 3.2851 3.2812 3.2851 1.2407 0 2.3213-0.6877 2.877-1.6992-0.4704 0.2616-1.0098 0.4082-1.586 0.4082-1.8112 0-3.2812-1.4693-3.2812-3.2832 0-0.5768 0.1503-1.1211 0.4121-1.5918zm71.252 0c0.2617 0.4707 0.4102 1.015 0.4102 1.5918 0 1.8139-1.4705 3.2832-3.2813 3.2832-0.5769 0-1.113-0.1466-1.5839-0.4082 0.5564 1.0115 1.6338 1.6992 2.875 1.6992 1.8108 0 3.2812-1.4712 3.2812-3.2851 0-0.9148-0.374-1.7404-0.9766-2.3379-0.2152-0.2142-0.4577-0.3957-0.7246-0.543z" fill="#282828"/>
    <path d="m1257.5 1354.4c-0.3248 0-0.5879 0.2634-0.5879 0.5879v21.17c0 0.3254 0.2631 0.5878 0.5879 0.5878h0.8086c0.3248 0 0.5879-0.2624 0.5879-0.5878v-21.17c0-0.3245-0.2631-0.5879-0.5879-0.5879zm142.22 0c-0.3245 0-0.5879 0.2634-0.5879 0.5879v21.17c0 0.3254 0.2634 0.5878 0.5879 0.5878h0.8086c0.3245 0 0.5879-0.2624 0.5879-0.5878v-21.17c0-0.3245-0.2634-0.5879-0.5879-0.5879z" fill="#32302f"/>
    <path d="m1363.2 1384.6c-1.8108 0-3.2817-1.4698-3.2817-3.2837 0-1.815 1.4709-3.2849 3.2817-3.2849 1.8139 0 3.2838 1.4699 3.2838 3.2849 0 1.8139-1.4699 3.2837-3.2838 3.2837m-7.5389-7.1392c0 0.6942-0.5614 1.2556-1.2556 1.2556h-3.5167c-0.6931 0-1.2556-0.5614-1.2556-1.2556v-2.1435c0-0.6933 0.5625-1.2577 1.2556-1.2577h3.5167c0.6942 0 1.2556 0.5644 1.2556 1.2577v2.1435m-46.982 0c0 0.6942-0.5617 1.2556-1.2554 1.2556h-3.5166c-0.694 0-1.2555-0.5614-1.2555-1.2556v-2.1435c0-0.6933 0.5615-1.2577 1.2555-1.2577h3.5166c0.6937 0 1.2554 0.5644 1.2554 1.2577v2.1435m-13.569 7.1392c-1.8112 0-3.2813-1.4698-3.2813-3.2837 0-0.9148 0.3733-1.7408 0.9761-2.3383 0.591-0.585 1.4055-0.9466 2.3052-0.9466 1.7229 0 3.1342 1.3267 3.2724 3.0109 0.01 0.092 0.012 0.1823 0.012 0.274 0 1.8139-1.4703 3.2837-3.2843 3.2837m3.9839-55.627c4.528 0 8.2003 3.6721 8.2003 8.2001 0 4.5281-3.6723 8.2013-8.2003 8.2013-4.5308 0-8.2033-3.6732-8.2033-8.2013 0-4.528 3.6725-8.2001 8.2033-8.2001m13.969 0.5232c0-0.5789 0.4676-1.0466 1.0468-1.0466h28.273c0.58 0 1.0497 0.4677 1.0497 1.0466v9.4414c0 0.5789-0.4697 1.0497-1.0497 1.0497h-28.273c-0.5792 0-1.0468-0.4708-1.0468-1.0497v-9.4414m45.926-0.5232c4.5312 0 8.2012 3.6721 8.2012 8.2001 0 4.5281-3.67 8.2013-8.2012 8.2013-4.5271 0-8.2003-3.6732-8.2003-8.2013 0-4.528 3.6732-8.2001 8.2003-8.2001m37.52-33.145h-134.93c-2.0287 0-3.6723 1.643-3.6723 3.6721v82.921c0 2.0281 1.6436 3.6721 3.6723 3.6721h134.93c2.026 0 3.6731-1.644 3.6731-3.6721v-82.921c0-2.0291-1.6471-3.6721-3.6731-3.6721" fill="#504945"/>
    <path d="m1261.5 1295.8c-2.0287 0-3.6719 1.6447-3.6719 3.6738v2.8301c0-2.0291 1.6432-3.6738 3.6719-3.6738h134.93c2.026 0 3.6738 1.6447 3.6738 3.6738v-2.8301c0-2.0291-1.6478-3.6738-3.6738-3.6738zm-4.0488 58.586c-0.3248 0-0.5879 0.2634-0.5879 0.5879v2.8301c0-0.3245 0.2631-0.5879 0.5879-0.5879h0.4068v-2.8301zm142.66 0v2.8301h0.375c0.3245 0 0.5879 0.2634 0.5879 0.5879v-2.8301c0-0.3245-0.2634-0.5879-0.5879-0.5879z" fill="#ebdbb2" opacity=".15"/>
    <path d="m1274.2 1302.7c-0.2645 0-0.514 0.1036-0.6992 0.2891l-7.6465 7.6445c-0.1851 0.1854-0.2871 0.4376-0.2871 0.6992v48.082c0 1.4576 1.1813 2.6445 2.6426 2.6445h121.46c1.4585 0 2.6425-1.1869 2.6425-2.6445v-48.082c0-0.2616-0.1025-0.5138-0.291-0.6992l-7.6406-7.6445c-0.1854-0.1855-0.4375-0.2891-0.6992-0.2891h-109.48zm24.789 25.691a8.2007 8.2007 0 0 1 8.2012 8.2012 8.2007 8.2007 0 0 1-8.2012 8.2012 8.2007 8.2007 0 0 1-8.2012-8.2012 8.2007 8.2007 0 0 1 8.2012-8.2012zm59.896 0a8.2007 8.2007 0 0 1 8.1992 8.2012 8.2007 8.2007 0 0 1-8.1992 8.2012 8.2007 8.2007 0 0 1-8.2012-8.2012 8.2007 8.2007 0 0 1 8.2012-8.2012z" fill="#282828"/>
    <path d="m1342.3 1339.4h-28.273c-0.5792 0-1.0467-0.4708-1.0467-1.0497v1.0023c0 0.5799 0.4675 1.0506 1.0467 1.0506h28.273c0.5799 0 1.0497-0.4707 1.0497-1.0506v-1.0023c0 0.5789-0.4698 1.0497-1.0497 1.0497" fill="#4f5051"/>
    <path d="m1389.7 1362.1h-121.46c-1.4613 0-2.6433-1.1855-2.6433-2.6431v1.0023c0 1.4585 1.182 2.6431 2.6433 2.6431h121.46c1.4585 0 2.6431-1.1846 2.6431-2.6431v-1.0023c0 1.4576-1.1846 2.6431-2.6431 2.6431" fill="#504945"/>
    <path d="m1290.8 1337.2c0-2.264 0.9189-4.3159 2.4027-5.7971-1.4857 1.4812-2.4046 3.531-2.4046 5.7971 0 2.266 0.9189 4.3148 2.4046 5.7971-1.4838-1.4844-2.4027-3.5331-2.4027-5.7971zm4.4675 7.3031c0.1778 0.091 0.3576 0.175 0.5415 0.2523-0.1839-0.079-0.3637-0.1617-0.5415-0.2523zm1.1044 0.4655c0.1898 0.066 0.3835 0.1226 0.581 0.1721-0.1975-0.049-0.3912-0.1082-0.581-0.1721zm4.6789 0.1721c0.1976-0.049 0.3912-0.1062 0.581-0.1721-0.1898 0.065-0.3834 0.1226-0.581 0.1721zm49.906-5.8919c0.049 0.1977 0.106 0.3913 0.1719 0.5809-0.065-0.1916-0.1225-0.3852-0.1719-0.5809zm0-4.0976c0.049-0.1978 0.1081-0.3914 0.1719-0.581-0.066 0.1896-0.1225 0.3832-0.1719 0.581zm0.3851 5.2419c0.077 0.1834 0.1618 0.3636 0.2525 0.5387-0.089-0.1751-0.1742-0.3553-0.2525-0.5387zm0-6.3863c0.078-0.1833 0.1618-0.3636 0.2525-0.5397-0.091 0.1761-0.1751 0.3564-0.2525 0.5397zm3.8225 10.496c0.1762 0.091 0.3565 0.175 0.5398 0.2523-0.1833-0.079-0.3636-0.1638-0.5398-0.2523zm1.1032 0.4655c0.1896 0.066 0.3832 0.1226 0.581 0.1721-0.1957-0.049-0.3894-0.1082-0.581-0.1721zm4.6785 0.1721c0.1978-0.049 0.3915-0.1062 0.581-0.1721-0.1895 0.065-0.3832 0.1226-0.581 0.1721zm1.1444-0.3853c0.1834-0.077 0.3636-0.1617 0.5408-0.2523-0.1772 0.091-0.3574 0.1729-0.5408 0.2523zm-94.799 4.0327v10.166c0 1.7212 1.3534 3.1128 3.0171 3.1128h117.28c1.6656 0 3.0149-1.3958 3.0149-3.1128v-10.166h-123.32" fill="#fe8019"/>
    <path d="m1305.1 1331.1c0.1325 0.1463 0.2589 0.2967 0.3814 0.4501-0.1205-0.1534-0.2489-0.3038-0.3814-0.4501zm1.3219 9.0675c-0.087 0.1792-0.1778 0.3533-0.2766 0.5253 0.099-0.172 0.1917-0.3461 0.2766-0.5253zm0.4406-5.9928c-0.099-0.3224-0.2193-0.6346-0.3555-0.9374 0.1362 0.3028 0.2548 0.615 0.3555 0.9374zm0 4.8762c-0.061 0.1916-0.1265 0.3812-0.1996 0.5665 0.073-0.1853 0.1404-0.3749 0.1996-0.5665zm0.3675-2.4381c0 0.7787-0.1087 1.5307-0.3103 2.2445 0.2037-0.7138 0.3123-1.4658 0.3123-2.2445s-0.1086-1.5317-0.3123-2.2444c0.2016 0.7127 0.3103 1.4657 0.3103 2.2444zm59.088-3.5547c-0.084-0.1802-0.1782-0.3553-0.2771-0.5274 0.097 0.1721 0.1906 0.3472 0.2771 0.5274zm0.4408 1.1166c-0.099-0.3224-0.2193-0.6346-0.3564-0.9374 0.1371 0.3028 0.2555 0.615 0.3564 0.9374zm0 4.8762c-0.062 0.1916-0.1267 0.3812-0.1998 0.5665 0.073-0.1853 0.1401-0.3749 0.1998-0.5665zm0.3689-2.4381c0-0.7787-0.1083-1.5317-0.3122-2.2444 0.2019 0.7127 0.3111 1.4657 0.3111 2.2444s-0.1092 1.5307-0.3111 2.2445c0.2039-0.7138 0.3122-1.4658 0.3122-2.2445" fill="#f1f3e9"/>
    <path d="m1275.4 1304.4c-0.5532 0-1.0852 0.2261-1.4766 0.6289l-5.9941 6.1778c-0.3911 0.4049-0.6133 0.9517-0.6133 1.5234v36.033h123.32v-36.033c0-0.5717-0.2189-1.1185-0.6093-1.5234h-0.01l-5.9922-6.1778c-0.3935-0.4028-0.9234-0.6289-1.4786-0.6289zm23.625 23.975a8.2007 8.2007 0 0 1 8.2012 8.2012 8.2007 8.2007 0 0 1-8.2012 8.2012 8.2007 8.2007 0 0 1-8.2012-8.2012 8.2007 8.2007 0 0 1 8.2012-8.2012zm59.896 0a8.2007 8.2007 0 0 1 8.1992 8.2012 8.2007 8.2007 0 0 1-8.1992 8.2012 8.2007 8.2007 0 0 1-8.2012-8.2012 8.2007 8.2007 0 0 1 8.2012-8.2012z" fill="#ebdbb2"/>
    <path d="m1314 1327.9c-0.5808 0-1.0489 0.4711-1.0489 1.0488v9.4395c0 0.5808 0.4681 1.0507 1.0489 1.0507h9.1347c0.1091-0.924 0.1621-1.8628 0.1621-2.8125 0-3.0755-0.5691-6.0174-1.6132-8.7265zm23.084 0c-1.0815 2.6977-1.6777 5.6425-1.6777 8.7265 0 0.9519 0.059 1.8906 0.1699 2.8125h6.6953c0.5809 0 1.0508-0.4699 1.0508-1.0507v-9.4395c0-0.5777-0.4699-1.0488-1.0508-1.0488z" fill="#32302f"/>
    <path d="m1363.2 1384.6c-1.8108 0-3.2817-1.4698-3.2817-3.2837 0-1.815 1.4709-3.2849 3.2817-3.2849 1.8139 0 3.2838 1.4699 3.2838 3.2849 0 1.8139-1.4699 3.2837-3.2838 3.2837zm-7.5389-7.1392c0 0.6942-0.5614 1.2556-1.2556 1.2556h-3.5167c-0.6931 0-1.2556-0.5614-1.2556-1.2556v-2.1435c0-0.6933 0.5625-1.2577 1.2556-1.2577h3.5167c0.6942 0 1.2556 0.5644 1.2556 1.2577zm-46.982 0c0 0.6942-0.5617 1.2556-1.2554 1.2556h-3.5166c-0.694 0-1.2555-0.5614-1.2555-1.2556v-2.1435c0-0.6933 0.5615-1.2577 1.2555-1.2577h3.5166c0.6937 0 1.2554 0.5644 1.2554 1.2577zm-13.569 7.1392c-1.8112 0-3.2813-1.4698-3.2813-3.2837 0-0.9148 0.3733-1.7408 0.9761-2.3383 0.5911-0.585 1.4054-0.9466 2.3052-0.9466 1.7229 0 3.1342 1.3267 3.2724 3.0109 0.01 0.092 0.012 0.1823 0.012 0.274 0 1.8139-1.4701 3.2837-3.2843 3.2837zm77.123-17.918c-0.1329-0.6232-0.4852-1.1527-0.9641-1.5173l-0.2947 1.7233-0.4881 2.8368h-82.885l-0.4586-2.672-0.2941-1.7233c-0.3792 0.3523-0.6556 0.8168-0.7703 1.3525l-4.1898 19.411h94.535l-4.1903-19.411" fill="#32302f"/>
    <path d="m1371.2 1365.2-0.7828 4.5601h-82.885l-0.7527-4.3953c0.4675-0.4378 1.0968-0.6994 1.773-0.6994h81.069c0.5913 0 1.1382 0.1968 1.5791 0.5346" fill="#665c54"/>
    <path d="m1358.9 1345.9c-4.527 0-8.2001-3.6732-8.2001-8.2013 0-4.528 3.6731-8.2001 8.2001-8.2001 4.5312 0 8.2014 3.6721 8.2014 8.2001 0 4.5281-3.6702 8.2013-8.2014 8.2013m-15.557-6.4368c0 0.5789-0.4698 1.0497-1.0497 1.0497h-28.273c-0.5792 0-1.0467-0.4708-1.0467-1.0497v-9.4414c0-0.5789 0.4675-1.0466 1.0467-1.0466h28.273c0.5799 0 1.0497 0.4677 1.0497 1.0466v9.4414m-44.339 6.4368c-4.5307 0-8.2033-3.6732-8.2033-8.2013 0-4.528 3.6726-8.2001 8.2033-8.2001 4.5281 0 8.2004 3.6721 8.2004 8.2001 0 4.5281-3.6723 8.2013-8.2004 8.2013m59.898-19.785h-59.898c-6.4008 0-11.584 5.1863-11.584 11.584 0 6.3987 5.1836 11.588 11.584 11.588h59.898c6.3955 0 11.585-5.1894 11.585-11.588 0-6.3976-5.1895-11.584-11.585-11.584" fill="#3c3836"/>
    <path d="m1358.9 1344.8c-4.527 0-8.2001-3.6732-8.2001-8.2013 0-4.528 3.6731-8.2001 8.2001-8.2001 4.5312 0 8.2014 3.6721 8.2014 8.2001 0 4.5281-3.6702 8.2013-8.2014 8.2013m-15.557-6.4368c0 0.5789-0.4698 1.0497-1.0497 1.0497h-28.273c-0.5792 0-1.0467-0.4708-1.0467-1.0497v-9.4414c0-0.5789 0.4675-1.0466 1.0467-1.0466h28.273c0.5799 0 1.0497 0.4677 1.0497 1.0466v9.4414m-44.339 6.4368c-4.5307 0-8.2033-3.6732-8.2033-8.2013 0-4.528 3.6726-8.2001 8.2033-8.2001 4.5281 0 8.2004 3.6721 8.2004 8.2001 0 4.5281-3.6723 8.2013-8.2004 8.2013m59.898-19.785h-59.898c-6.4008 0-11.584 5.1863-11.584 11.584 0 6.3987 5.1836 11.588 11.584 11.588h59.898c6.3955 0 11.585-5.1894 11.585-11.588 0-6.3976-5.1895-11.584-11.585-11.584" fill="#504945"/>
    <path d="m1299 1325c-6.4008 0-11.584 5.1863-11.584 11.584 0 0.2092 0.02 0.4127 0.031 0.6191 0.2558-6.1711 5.3215-11.1 11.559-11.1h59.898c6.1858 0 11.23 4.8561 11.555 10.963 0.01-0.1613 0.023-0.3194 0.023-0.4824 0-6.3976-5.1885-11.584-11.584-11.584zm44.338 4.9707v8.377c0 0.5789-0.4689 1.0507-1.0488 1.0507h-28.274c-0.5653 0-1.0174-0.4519-1.039-1.0117v1.0645c0 0.5789 0.4676 1.0508 1.0468 1.0508h28.272c0.5799 0 1.0508-0.4719 1.0508-1.0508v-9.4414c0-0.014-0.01-0.025-0.01-0.039zm23.734 7.0938c-0.2502 4.3032-3.807 7.7207-8.1758 7.7207-4.3186 0-7.853-3.3452-8.1699-7.584-0.01 0.1618-0.024 0.3221-0.024 0.4863 0 4.5281 3.6723 8.2012 8.1993 8.2012 4.5312 0 8.2011-3.6731 8.2011-8.2012 0-0.2104-0.016-0.4166-0.031-0.623zm-59.896 0.01c-0.2532 4.3005-3.8119 7.7149-8.1758 7.7149-4.3201 0-7.8521-3.3421-8.1719-7.5782-0.01 0.16-0.025 0.3182-0.025 0.4805 0 4.5281 3.6725 8.2012 8.2032 8.2012 4.5281 0 8.2011-3.6731 8.2011-8.2012 0-0.2084-0.016-0.4126-0.031-0.6172z" fill="#ebdbb2" opacity=".1"/>
    <path d="m1363.2 1384.6c-1.8108 0-3.2817-1.4698-3.2817-3.2837 0-1.815 1.4709-3.2849 3.2817-3.2849 1.8139 0 3.2838 1.4699 3.2838 3.2849 0 1.8139-1.4699 3.2837-3.2838 3.2837zm-7.5389-7.1392c0 0.6942-0.5614 1.2556-1.2556 1.2556h-3.5167c-0.6931 0-1.2556-0.5614-1.2556-1.2556v-2.1435c0-0.6933 0.5625-1.2577 1.2556-1.2577h3.5167c0.6942 0 1.2556 0.5644 1.2556 1.2577zm-46.982 0c0 0.6942-0.5617 1.2556-1.2554 1.2556h-3.5166c-0.694 0-1.2555-0.5614-1.2555-1.2556v-2.1435c0-0.6933 0.5615-1.2577 1.2555-1.2577h3.5166c0.6937 0 1.2554 0.5644 1.2554 1.2577zm-13.569 7.1392c-1.8112 0-3.2813-1.4698-3.2813-3.2837 0-0.9148 0.3733-1.7408 0.9761-2.3383 0.5911-0.585 1.4054-0.9466 2.3052-0.9466 1.7229 0 3.1342 1.3267 3.2724 3.0109 0.01 0.092 0.012 0.1823 0.012 0.274 0 1.8139-1.4701 3.2837-3.2843 3.2837zm76.346-17.009c-0.067-0.2936-0.2441-0.5408-0.4822-0.7025-0.1874-0.1298-0.4171-0.206-0.6612-0.206h-82.312c-0.3323 0-0.638 0.1411-0.8586 0.3708-0.1382 0.1431-0.2382 0.3286-0.2882 0.5377l-4.3574 18.503h93.321l-4.3612-18.503" fill="#3c3836"/>
    <path d="m1342.3 1339.4h-3.6926 3.6916c0.1751 0 0.3399-0.043 0.4851-0.1185-0.1452 0.076-0.31 0.1185-0.4851 0.1185" fill="#eaf9fc"/>
    <path d="m1323.4 1336.3c-0.01-0.01-0.01-0.018-0.011-0.026l0.01-0.01c2e-4 0.013 3e-4 0.024 5e-4 0.036" fill="#6a8181"/>
    <path d="m1313.5 1339.2c-0.049-0.033-0.094-0.069-0.1362-0.1092 0.042 0.039 0.088 0.076 0.1364 0.1081h-6e-4" fill="#eaf9fc"/>
    <path d="m1313.5 1339.2c-0.07-0.048-0.134-0.103-0.1907-0.1648 0.018 0.019 0.036 0.037 0.055 0.056 0.042 0.04 0.088 0.076 0.1362 0.1091h-5e-4" fill="#6d7c80"/>
    <path d="m1313.2 1328.3c0.1911-0.2493 0.492-0.4101 0.8312-0.4101h28.273c0.2771 0 0.5295 0.1072 0.717 0.2823-0.1875-0.1751-0.4399-0.2823-0.717-0.2823h-28.271c-0.1342 0-0.2623 0.026-0.3801 0.071-0.1808 0.07-0.337 0.1875-0.453 0.3389" fill="#a2b2b1"/>
    <path d="m1320.2 1339.4h-6.1316c-6e-4 0 0 0 0 0h-0.01c-5e-4 0 0 0 0 0h-0.0206c-5e-4 0 0 0 0 0h-0.01c-5e-4 0 0 0 0 0h-0.0203c-3e-4 0 0 0 0 0h-0.01c-3e-4 0-5e-4 0 0 0-0.1949-0.011-0.3754-0.074-0.5277-0.1752h3e-4c0.1667 0.1113 0.3674 0.1772 0.5835 0.1772h6.1202-6e-4" fill="#f4fcfd"/>
    <path d="m1320.2 1339.4h-6.1316 6.1316m-6.1294 0h-0.01 0.01m-0.01 0h-0.01 0.01m-0.01 0h-0.01 0.01m-0.01 0h-0.01 0.01m-0.01 0h-0.01 0.01m-0.01 0h-0.01 0.01m-0.01 0h-0.01 0.01m-0.01 0c-0.1944-0.011-0.3771-0.074-0.5279-0.1752 0.1527 0.102 0.3332 0.1649 0.5279 0.1752" fill="#b2babc"/>
    <path d="m1323.4 1336.3c-0.01-0.029-0.015-0.059-0.015-0.093v-0.7292c0.013 0.2688 0.022 0.5398 0.025 0.8117l-0.01 0.01" fill="#b0bcbc"/>
    <path d="m1343.4 1328.7c-0.052-0.2173-0.1741-0.4089-0.3389-0.5489 0.013 0.011 0.024 0.022 0.036 0.033 0.1474 0.1371 0.2545 0.3152 0.3028 0.5161" fill="#d1d9db"/>
    <path d="m1343.1 1328.2c-0.012-0.012-0.024-0.023-0.036-0.033-0.1834-0.1555-0.4213-0.2492-0.6809-0.2492h-4.7455 4.7455c0.2771 0 0.5295 0.1071 0.7169 0.2822" fill="#ced6d6"/>
    <path d="m1275.4 1314.5c-1.5846 0-2.2754 0.814-2.2754 1.6875 0 1.1201 0.8956 1.4041 2.0175 1.67 0.814 0.1995 1.3379 0.3495 1.3379 0.8457 0 0.6556-0.8445 0.7343-1.25 0.7343-0.7682 0-1.4624-0.3033-1.8632-0.6211l-0.3633 0.8145c0.7585 0.6572 2.0666 0.6777 2.2265 0.6777 1.5831 0 2.2832-0.8 2.2832-1.6777 0-1.0821-0.8663-1.3911-2.0078-1.6523-0.7946-0.1977-1.3398-0.3475-1.3398-0.8399 0-0.6742 0.7951-0.7656 1.2265-0.7656 0.4401 0 1.0105 0.1229 1.5567 0.4433l0.3301-0.8144c-0.697-0.4656-1.6104-0.502-1.8789-0.502zm3.1543 0.082v5.6465h1.0488v-5.6465zm2.5722 0v5.6465h2.4688c1.7734 0 3.082-1.0697 3.082-2.8223 0-1.7083-1.2543-2.8242-3.082-2.8242zm6.6641 0v5.6465h4.2344v-0.8789h-3.1856v-1.5567h2.7266v-0.8633h-2.7266v-1.4687h3.0723v-0.8789zm9.373 0-2.541 5.6465h1.082l0.5547-1.3067h2.8243l0.5644 1.3067h1.0977l-2.5489-5.6465zm-14.988 0.8867h1.371c1.2381 0 2.0743 0.7364 2.0743 1.9375 0 1.1867-0.8225 1.9355-2.0743 1.9355h-1.371zm15.496 0.1621 1.0645 2.4688h-2.1211z" fill="#4f5051"/>
    <path d="m1375.5 1351.6c-1.6785 0-3.0603 1.0053-3.0603 2.6904 0 1.5599 1.2633 2.5185 2.7832 2.5185 0.8549 0 1.5246-0.243 2.0097-0.7282-0.034 0.7998-0.3468 2.3556-2.2754 2.3556-0.6159 0-1.1197-0.1339-1.5132-0.4037l-0.6922 1.3741c0.5619 0.3592 1.3841 0.5542 2.2404 0.5542 1.9747 0 4.1222-1.1003 4.1222-4.3531 0-3.59-2.4662-4.0078-3.6144-4.0078zm7.9798 0c-1.9081 0-3.4642 1.4201-3.4642 4.1809 0 2.7508 1.5474 4.18 3.4642 4.18 1.9305 0 3.465-1.4449 3.465-4.18 0-2.7452-1.5433-4.1809-3.465-4.1809zm-7.8644 1.3977c0.9748 0 1.4091 0.5747 1.4091 1.2011 0 0.7041-0.5549 1.2123-1.3854 1.2123-0.8328 0-1.3752-0.4705-1.3752-1.2123 0-0.777 0.5886-1.2011 1.3515-1.2011zm7.8644 0.1843c1.3192 0 1.5821 1.4462 1.5821 2.5989 0 1.1608-0.2658 2.5978-1.5821 2.5978-1.3255 0-1.5697-1.4955-1.5697-2.5978 0-1.0946 0.2416-2.5989 1.5697-2.5989z" fill="#4f5051"/>
  </g>
  <path d="m57 15c-9.9393 0-17 7.0595-17 17v192c0 9.9393 7.0595 17 17 17h142c9.9405 0 17-7.0607 17-17v-144l-65-65zm4.0332 4.9902 89.967 0.01 60 60 2e-4 139.75c1e-5 9.4999-6.6575 16.248-16.033 16.248h-133.93c-9.3757 0-16.033-6.7481-16.033-16.248v-183.51c0-9.501 6.6586-16.25 16.033-16.25z" fill="url(#linearGradient14-8)" style="paint-order:markers fill stroke"/>
  <path d="m151 15.002v52.914c0 9.6525 7.8639 17.084 17.518 17.084l47.482-1.34e-4v-5z" fill="#282828" opacity=".2" stroke-width="1.0833"/>
  <path d="m151 15.001v47.916c0 9.6525 7.8639 17.084 17.518 17.084l47.482-1.34e-4z" fill="url(#linearGradient7-6-0)" stroke-width="1.0833"/>
</svg>
