<svg width="256" height="256" version="1.1" viewBox="0 0 256 256" xmlns="http://www.w3.org/2000/svg">
  <defs>
    <linearGradient id="linearGradient7-6-0-3" x1="186" x2="156" y1="45.006" y2="75.012" gradientTransform="matrix(1.0833 0 0 1.0833 -17.997 -1.2505)" gradientUnits="userSpaceOnUse">
      <stop stop-color="#83a598" offset="0"/>
      <stop stop-color="#458588" offset=".3027"/>
      <stop stop-color="#076678" offset="1"/>
    </linearGradient>
    <linearGradient id="linearGradient14-2" x1="128" x2="128" y1="15.001" y2="241" gradientTransform="translate(0,4.8e-4)" gradientUnits="userSpaceOnUse">
      <stop stop-color="#076678" stop-opacity=".096774" offset="0"/>
      <stop stop-color="#076678" stop-opacity=".049032" offset=".2"/>
      <stop stop-color="#076678" stop-opacity=".046452" offset=".70405"/>
      <stop stop-color="#282828" stop-opacity=".1" offset=".80473"/>
      <stop stop-color="#282828" stop-opacity=".2" offset="1"/>
    </linearGradient>
    <linearGradient id="linearGradient21" x1="128" x2="128" y1="15" y2="241" gradientUnits="userSpaceOnUse">
      <stop stop-color="#ebdbb2" offset="0"/>
      <stop stop-color="#d5c4a1" offset="1"/>
    </linearGradient>
    <linearGradient id="linearGradient24" x1="91.406" x2="91.406" y1="93.572" y2="215" gradientTransform="matrix(.928 0 0 .928 5.041 -29.88)" gradientUnits="userSpaceOnUse">
      <stop stop-color="#fbf1c7" stop-opacity=".59502" offset="0"/>
      <stop stop-color="#ebdbb2" offset="1"/>
    </linearGradient>
    <linearGradient id="linearGradient25" x1="94.287" x2="94.287" y1="52.315" y2="165" gradientUnits="userSpaceOnUse">
      <stop stop-color="#83a598" offset="0"/>
      <stop stop-color="#076678" offset="1"/>
    </linearGradient>
  </defs>
  <path d="m57 15c-9.9393 0-17 7.0595-17 17v149h176v-101l-64.998-64.998-94.002-0.00195z" fill="url(#linearGradient21)" style="paint-order:markers fill stroke"/>
  <path d="m57 241c-9.9393 0-17-7.0595-17-17v-43h176v43c0 9.9405-7.0607 17-17 17z" fill="#076678" stroke-linecap="round" stroke-linejoin="round" stroke-miterlimit="0" style="paint-order:markers fill stroke"/>
  <path d="m130.46 199.36c-5.2399-1e-5 -9.2012 3.5091-9.2012 8.0801 0 2.2951 0.55308 3.9545 3.3613 6.2402-2.562 1.9215-3.9609 3.9817-3.9609 6.8008 0 0.46907 0.15342 7.7988 9.7598 7.7988 7.3092 0 9.8809-4.2316 9.8809-8.2793 0-3.008-1.4556-5.0733-4.2402-6.8809 1.6108-1.0174 3.5605-3.239 3.5605-6.1992 0-3.8872-3.1118-7.5605-9.1602-7.5605zm22.719 0c-4.8626-3e-5 -10 3.5925-10 14.441 0 4.7266 1.0808 14.479 10 14.479 9.0179 0 10-10.085 10-14.479 0-4.0544-0.88907-14.441-10-14.441zm-51.84 0.32031c-4.8289 0-8.385 0.65478-8.5195 0.67969v27c3.3331 0.679 7.4313 0.7207 8.3184 0.7207 5.8544 0 15.961-1.8016 15.961-14.24 0-11.537-8.2532-14.16-15.76-14.16zm29.121 4.4805c2.3371 0 3.3984 1.7382 3.3984 2.9199 0 1.144-0.21804 2.8875-2.6387 4.4004-2.0397-0.79006-4.0476-1.8965-4.1602-4.3203 0-1.0659 0.84781-3 3.4004-3zm22.719 0.32031c1.5592 0 3.9199 0.85186 3.9199 9.3203 0 8.3528-2.2562 9.3594-3.9199 9.3594-1.6435 0-3.9199-1.0098-3.9199-9.3594 0-8.4722 2.3856-9.3203 3.9199-9.3203zm-51.52 0.51953c3.7697 0 9 0.98681 9 8.8398 0 3.7219-1.407 8.8809-9.2012 8.8809-0.80137 0-1.6012 0.018-2.3984-0.0801v-17.521c0.86444-0.0776 1.731-0.11514 2.5996-0.11914zm27.439 10.6c3.9664 1.2749 5.3613 2.7064 5.3613 4.6406 0 0.4239-0.14505 3.2402-4 3.2402-3.1726 0-4-2.182-4-3.2402 0.15016-1.9679 1.0255-3.4704 2.6387-4.6406z" fill="#282828" opacity=".3" style="font-variant-ligatures:none"/>
  <path d="m130.46 196.36c-5.2399-1e-5 -9.2012 3.5091-9.2012 8.0801 0 2.2951 0.55308 3.9545 3.3613 6.2402-2.562 1.9215-3.9609 3.9817-3.9609 6.8008 0 0.46907 0.15342 7.7988 9.7598 7.7988 7.3092 0 9.8809-4.2316 9.8809-8.2793 0-3.008-1.4556-5.0733-4.2402-6.8809 1.6108-1.0174 3.5605-3.239 3.5605-6.1992 0-3.8872-3.1118-7.5605-9.1602-7.5605zm22.719 0c-4.8626-3e-5 -10 3.5925-10 14.441 0 4.7266 1.0808 14.479 10 14.479 9.0179 0 10-10.085 10-14.479 0-4.0544-0.88907-14.441-10-14.441zm-51.84 0.32031c-4.8289 0-8.385 0.65478-8.5195 0.67969v27c3.3331 0.679 7.4313 0.7207 8.3184 0.7207 5.8544 0 15.961-1.8016 15.961-14.24 0-11.537-8.2532-14.16-15.76-14.16zm29.121 4.4805c2.3371 0 3.3984 1.7382 3.3984 2.9199 0 1.144-0.21804 2.8875-2.6387 4.4004-2.0397-0.79006-4.0476-1.8965-4.1602-4.3203 0-1.0659 0.84781-3 3.4004-3zm22.719 0.32031c1.5592 0 3.9199 0.85186 3.9199 9.3203 0 8.3528-2.2562 9.3594-3.9199 9.3594-1.6435 0-3.9199-1.0098-3.9199-9.3594 0-8.4722 2.3856-9.3203 3.9199-9.3203zm-51.52 0.51953c3.7697 0 9 0.98681 9 8.8398 0 3.7219-1.407 8.8809-9.2012 8.8809-0.80137 0-1.6012 0.018-2.3984-0.0801v-17.521c0.86444-0.0776 1.7311-0.11514 2.5996-0.11914zm27.439 10.6c3.9664 1.2749 5.3613 2.7064 5.3613 4.6406 0 0.4239-0.14505 3.2402-4 3.2402-3.1726 0-4-2.182-4-3.2402 0.15016-1.9679 1.0255-3.4704 2.6387-4.6406z" fill="#ebdbb2" style="font-variant-ligatures:none"/>
  <path d="m130.46 196.36c-5.2399-2e-5 -9.2012 3.5091-9.2012 8.0801 0 0.56696 0.0338 1.0951 0.12695 1.6035 0.71563-3.8701 4.3823-6.6836 9.0742-6.6836 5.2455-1e-5 8.2823 2.7621 8.9961 6.0312 0.1054-0.46663 0.16406-0.95718 0.16406-1.4707 0-3.8872-3.1118-7.5606-9.1602-7.5605zm22.719 0c-4.8626-4e-5 -10 3.5925-10 14.441 0 0.451 0.01 0.94689 0.0351 1.4766 0.46056-9.6652 5.3373-12.918 9.9648-12.918 8.145-1e-5 9.7187 8.302 9.9609 12.959 0.0284-0.55423 0.0391-1.0663 0.0391-1.5176 0-4.0544-0.88907-14.441-10-14.441zm-51.84 0.32031c-4.8289 0-8.385 0.65478-8.5195 0.67969v3c0.13456-0.0249 3.6907-0.67969 8.5195-0.67969 7.1654 0 15.011 2.3911 15.709 12.643 0.0332-0.47628 0.0508-0.97077 0.0508-1.4824 0-11.537-8.2532-14.16-15.76-14.16zm26.127 9.0566c-0.2858 0.49768-0.40625 1.0227-0.40625 1.4238 0.11255 2.4238 2.1204 3.5302 4.1602 4.3203 2.4206-1.5129 2.6387-3.2564 2.6387-4.4004 0-0.36352-0.0995-0.77961-0.30665-1.1816-0.32693 0.83758-0.99285 1.745-2.332 2.582-1.5332-0.59389-3.0482-1.3675-3.7539-2.7441zm10.41 5.7773c-0.57397 0.68504-1.2189 1.2281-1.8164 1.6055 2.3077 1.498 3.7031 3.1723 4.1133 5.4141 0.0864-0.50828 0.12695-1.0219 0.12695-1.5332 0-2.2662-0.82547-3.9973-2.4238-5.4863zm-14.918 0.60352c-1.4986 1.5323-2.2988 3.231-2.2988 5.3633 0 0.11573 0.01 0.64888 0.16797 1.3867 0.44175-2.0287 1.746-3.6523 3.793-5.1875-0.67716-0.55119-1.2233-1.0665-1.6621-1.5625zm-12.373 0.16797c-0.37446 3.4821-2.3036 7.4355-9.127 7.4355-0.80138 0-1.6012 0.018-2.3984-0.0801v3c0.79722 0.0981 1.5971 0.0801 2.3984 0.0801 7.7941 0 9.2012-5.159 9.2012-8.8809 0-0.55161-0.0249-1.0688-0.0742-1.5547zm38.701 0.0215c-0.0177 0.46952-0.0273 0.96728-0.0273 1.4941 0 8.3495 2.2764 9.3594 3.9199 9.3594 1.6638 0 3.9199-1.0066 3.9199-9.3594 0-0.52684-0.01-1.0246-0.0273-1.4941-0.25796 6.9705-2.3346 7.8535-3.8926 7.8535-1.5389 0-3.6324-0.88581-3.8926-7.8535zm-22.486 6.2598c-0.18095 0.51722-0.29406 1.0739-0.33984 1.6738 0 1.0582 0.82738 3.2402 4 3.2402 3.855 0 4-2.8163 4-3.2402 0-0.55024-0.11238-1.0603-0.36524-1.5371-0.4477 0.86438-1.4405 1.7774-3.6348 1.7774-2.1036 0-3.1762-0.95915-3.6602-1.9141z" fill="#fbf1c7" opacity=".6" style="font-variant-ligatures:none"/>
  <path d="m126.36 57.316c-31.116 0-56.357 25.242-56.357 56.357 0 31.116 25.242 56.327 56.357 56.327 5.9838 0 11.761-0.95157 17.17-2.6789v-28.11c-4.6716 2.7162-10.137 4.2829-15.997 4.2829-17.122 0-30.991-13.351-30.991-29.821s13.87-29.818 30.991-29.818c5.8587 0 11.324 1.5667 15.997 4.2829v-28.144c-5.4098-1.7294-11.186-2.6789-17.17-2.6789zm17.668 33.621v19.549h23.202l18.772-19.549h-41.973zm-2e-3 23.512v19.551h41.975l-18.773-19.551z" fill="url(#linearGradient24)" opacity=".6" stroke-width="1.0709"/>
  <path d="m126.36 52.315c-31.116 0-56.358 25.242-56.358 56.358s25.242 56.327 56.358 56.327c5.9838 0 11.761-0.95084 17.17-2.6781v-28.111c-4.6716 2.7162-10.139 4.2833-15.999 4.2833-17.122 0-30.992-13.35-30.992-29.82s13.87-29.818 30.992-29.818c5.8587 0 11.325 1.5672 15.999 4.2833v-28.145c-5.4098-1.7294-11.186-2.6781-17.17-2.6781zm17.667 34.924v19.551h23.201l18.772-19.551z" fill="url(#linearGradient25)" stroke-width="1.0709"/>
  <polygon transform="matrix(.35422 0 0 .34452 80.28 60.333)" points="298.46 203.1 245.46 146.35 179.96 146.35 179.96 203.1" fill="#cc241d"/>
  <path d="m126.36 52.314c-31.116 0-56.357 25.244-56.357 56.359 0 0.84482 0.017857 1.6838 0.054687 2.5195 1.2982-29.967 26.019-53.879 56.305-53.879 5.983 0 11.759 0.94869 17.168 2.6777v-4.998c-5.4098-1.7294-11.186-2.6797-17.17-2.6797zm17.67 34.926v3.6953h38.424l3.5488-3.6953h-41.973zm0 23.514v3.6953h23.201l15.225 15.855h3.5488l-18.773-19.551h-23.201zm-47.383 0.42968c-0.07046 0.82074-0.10547 1.652-0.10547 2.4902 1e-6 16.47 13.87 29.82 30.992 29.82 5.8586 0 11.325-1.5677 15.996-4.2832v-5c-4.6716 2.7162-10.139 4.2832-15.998 4.2832-16.243 0-29.56-12.015-30.885-27.311z" fill="#282828" opacity=".2"/>
  <path d="m57 15c-9.9393 0-17 7.0595-17 17v192c0 9.9393 7.0595 17 17 17h142c9.9405 0 17-7.0607 17-17v-144l-65-65zm4.0332 4.9902 89.967 0.01 60 60 2e-4 139.75c1e-5 9.4999-6.6575 16.248-16.033 16.248h-133.93c-9.3757 0-16.033-6.7481-16.033-16.248v-183.51c0-9.501 6.6586-16.25 16.033-16.25z" fill="url(#linearGradient14-2)" style="paint-order:markers fill stroke"/>
  <path d="m151 15.002v52.914c0 9.6525 7.8639 17.084 17.518 17.084l47.482-1.3e-4v-5z" fill="#282828" opacity=".2" stroke-width="1.0833"/>
  <path d="m151 15.001v47.916c0 9.6525 7.8639 17.084 17.518 17.084l47.482-1.3e-4z" fill="url(#linearGradient7-6-0-3)" stroke-width="1.0833"/>
</svg>
