<svg width="256" height="256" version="1.1" viewBox="0 0 256 256" xmlns="http://www.w3.org/2000/svg">
  <defs>
    <linearGradient id="linearGradient7-6-0" x1="186" x2="156" y1="45.006" y2="75.012" gradientTransform="matrix(1.0833 0 0 1.0833 -17.998 -1.2506)" gradientUnits="userSpaceOnUse">
      <stop stop-color="#a89984" offset="0"/>
      <stop stop-color="#7c6f64" offset=".3027"/>
      <stop stop-color="#504945" offset="1"/>
    </linearGradient>
    <linearGradient id="linearGradient21" x1="128" x2="128" y1="15" y2="241" gradientUnits="userSpaceOnUse">
      <stop stop-color="#ebdbb2" offset="0"/>
      <stop stop-color="#d5c4a1" offset="1"/>
    </linearGradient>
    <linearGradient id="linearGradient14-8" x1="128" x2="128" y1="15.001" y2="241" gradientTransform="translate(0,5e-4)" gradientUnits="userSpaceOnUse">
      <stop stop-color="#282828" stop-opacity=".098065" offset="0"/>
      <stop stop-color="#282828" stop-opacity=".051613" offset=".2"/>
      <stop stop-color="#282828" stop-opacity=".050323" offset=".70405"/>
      <stop stop-color="#282828" stop-opacity=".1" offset=".80473"/>
      <stop stop-color="#282828" stop-opacity=".2" offset="1"/>
    </linearGradient>
  </defs>
  <path d="m57 15c-9.9393 0-17 7.0595-17 17v149h176v-101l-64.998-64.998-94.002-0.001953z" fill="url(#linearGradient21)" style="paint-order:markers fill stroke"/>
  <rect x="60" y="95" width="136" height="50" ry="15" fill="#458588" stroke-linecap="square" stroke-linejoin="round" stroke-miterlimit="0" stroke-width="2.294" style="paint-order:markers fill stroke"/>
  <rect x="60" y="110" width="136" height="50" ry="15" fill="#282828" opacity=".15" stroke-linecap="square" stroke-linejoin="round" stroke-miterlimit="0" stroke-width="2.294" style="paint-order:markers fill stroke"/>
  <rect x="60" y="115" width="136" height="50" ry="15" fill="#fabd2f" stroke-linecap="square" stroke-linejoin="round" stroke-miterlimit="0" stroke-width="2.294" style="paint-order:markers fill stroke"/>
  <rect x="60" y="130" width="136" height="50" ry="15" fill="#282828" opacity=".1" stroke-linecap="square" stroke-linejoin="round" stroke-miterlimit="0" stroke-width="2.294" style="paint-order:markers fill stroke"/>
  <rect x="60" y="135" width="136" height="50" ry="15" fill="#689d6a" stroke-linecap="square" stroke-linejoin="round" stroke-miterlimit="0" stroke-width="2.294" style="paint-order:markers fill stroke"/>
  <rect x="60" y="150" width="136" height="50" ry="15" fill="#282828" opacity=".15" stroke-linecap="square" stroke-linejoin="round" stroke-miterlimit="0" stroke-width="2.294" style="paint-order:markers fill stroke"/>
  <rect x="60" y="155" width="136" height="50" ry="15" fill="#fb4934" stroke-linecap="square" stroke-linejoin="round" stroke-miterlimit="0" stroke-width="2.294" style="paint-order:markers fill stroke"/>
  <path d="m60.082 170v5h54.945c-2.3462-2.7051-5.7062-5-13.18-5zm41.766 0 52.305 0.0195c-7.4473 0-10.809 2.2851-13.16 4.9805h55.09v-5zm0 5c18.273 0 12.061 13.682 26.152 13.682 14.065 0 7.9128-13.662 26.152-13.662l-13.174-6e-3c-3.3974 3.9033-4.6666 8.668-12.979 8.668-8.3244 0-9.5817-4.7677-12.969-8.6758z" fill="#1d2021" opacity=".1" style="paint-order:markers fill stroke"/>
  <path d="m40 175v49c0 9.9405 7.0607 17 17 17h142c9.9393 0 17-7.0595 17-17v-49h-114.23l52.305 0.0195c-18.24 0-12.087 13.662-26.152 13.662-14.091 0-7.8791-13.682-26.152-13.682z" fill="#a89984" style="paint-order:markers fill stroke"/>
  <path d="m62.56 197.68c12.379 0 12.84 6.5014 12.84 9.32 0 3.3294-0.85048 9.44-12.96 9.44h-1.96v9.28h-6.24v-27.32c3.0028-0.58878 6.4467-0.72 8.32-0.72zm0.4 5.32c-0.95141 0-1.8488 0.0674-2.48 0.12v8h1.96c5.6666 0 6.52-1.933 6.52-4.16 0-2.7192-1.8321-3.96-6-3.96zm33.4 22.72c-1.9571-3.1686-6.1991-8.6704-10.12-11.72v11.72h-6.24v-27.72h6.24v10.48c3.2507-3.4103 6.335-6.9732 9.48-10.48h7.4c-2.2921 2.7118-6.5668 7.6068-11.72 12.76 5.4224 4.5078 9.7838 10.787 12.36 14.96zm19.32-28.04c12.379 0 12.84 6.5014 12.84 9.32 0 3.3294-0.85049 9.44-12.96 9.44h-1.96v9.28h-6.24v-27.32c3.0028-0.58878 6.4467-0.72 8.32-0.72zm0.4 5.32c-0.95141 0-1.8488 0.0674-2.48 0.12v8h1.96c5.6666 0 6.52-1.933 6.52-4.16 0-2.7192-1.8321-3.96-6-3.96zm32.88 22.72c-0.64332-2.0121-1.3562-4.0012-2.04-6h-10.8c-0.7104 1.9905-1.4118 3.9818-2.04 6h-6.48c4.2091-12.088 7.6057-20.655 11.04-27.72h5.96c3.6923 7.819 6.9337 15.928 11.04 27.72zm-7.48-21.44c-0.71608 2.1482-1.6498 4.0952-3.92 10.48h7.88c-0.0731-0.20573-1.8629-5.2373-3.96-10.48zm26.08 16.68c3.2335 0 4.48-0.98172 4.48-2.88 0-1.533-1.0262-2.6487-5.68-4.2-3.4634-1.2224-7.6-2.955-7.6-8.2 0-5.1508 4.0386-8.32 10.2-8.32 3.7211 0 6.4107 0.94404 8.2 1.92l-1.8 4.92c-1.873-0.99727-3.8907-1.4678-6-1.52-2.9192 0-4.2 0.79833-4.2 2.52 0.24727 2.3866 2.8628 3.0035 4.8 3.68 5.9312 2.1967 8.52 4.0081 8.52 9.24 0 6.7588-5.9696 8.16-10.92 8.16-2.0763 0-6.0494-0.27394-9.28-2.12l1.76-4.96c2.3212 1.3162 4.8902 1.7066 7.52 1.76zm23.28 0c3.2335 0 4.48-0.98172 4.48-2.88 0-1.533-1.0262-2.6487-5.68-4.2-3.4634-1.2224-7.6-2.955-7.6-8.2 0-5.1508 4.0386-8.32 10.2-8.32 3.7211 0 6.4107 0.94404 8.2 1.92l-1.8 4.92c-1.873-0.99727-3.8907-1.4678-6-1.52-2.9192 0-4.2 0.79833-4.2 2.52 0.24727 2.3866 2.8628 3.0035 4.8 3.68 5.9312 2.1967 8.52 4.0081 8.52 9.24 0 6.7588-5.9696 8.16-10.92 8.16-2.0763 0-6.0494-0.27394-9.28-2.12l1.76-4.96c2.3212 1.3162 4.8902 1.7066 7.52 1.76z" fill="#282828" opacity=".2" aria-label="PKPASS"/>
  <path d="m62.56 194.68c12.379 0 12.84 6.5014 12.84 9.32 0 3.3294-0.85048 9.44-12.96 9.44h-1.96v9.28h-6.24v-27.32c3.0028-0.58878 6.4467-0.72 8.32-0.72zm0.4 5.32c-0.95141 0-1.8488 0.0674-2.48 0.12v8h1.96c5.6666 0 6.52-1.933 6.52-4.16 0-2.7192-1.8321-3.96-6-3.96zm33.4 22.72c-1.9571-3.1686-6.1991-8.6704-10.12-11.72v11.72h-6.24v-27.72h6.24v10.48c3.2507-3.4103 6.335-6.9732 9.48-10.48h7.4c-2.2921 2.7118-6.5668 7.6068-11.72 12.76 5.4224 4.5078 9.7838 10.787 12.36 14.96zm19.32-28.04c12.379 0 12.84 6.5014 12.84 9.32 0 3.3294-0.85049 9.44-12.96 9.44h-1.96v9.28h-6.24v-27.32c3.0028-0.58878 6.4467-0.72 8.32-0.72zm0.4 5.32c-0.95141 0-1.8488 0.0674-2.48 0.12v8h1.96c5.6666 0 6.52-1.933 6.52-4.16 0-2.7192-1.8321-3.96-6-3.96zm32.88 22.72c-0.64332-2.0121-1.3562-4.0012-2.04-6h-10.8c-0.7104 1.9905-1.4118 3.9818-2.04 6h-6.48c4.2091-12.088 7.6057-20.655 11.04-27.72h5.96c3.6923 7.819 6.9337 15.928 11.04 27.72zm-7.48-21.44c-0.71608 2.1482-1.6498 4.0952-3.92 10.48h7.88c-0.0731-0.20573-1.8629-5.2373-3.96-10.48zm26.08 16.68c3.2335 0 4.48-0.98172 4.48-2.88 0-1.533-1.0262-2.6487-5.68-4.2-3.4634-1.2224-7.6-2.955-7.6-8.2 0-5.1508 4.0386-8.32 10.2-8.32 3.7211 0 6.4107 0.94404 8.2 1.92l-1.8 4.92c-1.873-0.99727-3.8907-1.4678-6-1.52-2.9192 0-4.2 0.79833-4.2 2.52 0.24727 2.3866 2.8628 3.0035 4.8 3.68 5.9312 2.1967 8.52 4.0081 8.52 9.24 0 6.7588-5.9696 8.16-10.92 8.16-2.0763 0-6.0494-0.27394-9.28-2.12l1.76-4.96c2.3212 1.3162 4.8902 1.7066 7.52 1.76zm23.28 0c3.2335 0 4.48-0.98172 4.48-2.88 0-1.533-1.0262-2.6487-5.68-4.2-3.4634-1.2224-7.6-2.955-7.6-8.2 0-5.1508 4.0386-8.32 10.2-8.32 3.7211 0 6.4107 0.94404 8.2 1.92l-1.8 4.92c-1.873-0.99727-3.8907-1.4678-6-1.52-2.9192 0-4.2 0.79833-4.2 2.52 0.24727 2.3866 2.8628 3.0035 4.8 3.68 5.9312 2.1967 8.52 4.0081 8.52 9.24 0 6.7588-5.9696 8.16-10.92 8.16-2.0763 0-6.0494-0.27394-9.28-2.12l1.76-4.96c2.3212 1.3162 4.8902 1.7066 7.52 1.76z" fill="#ebdbb2" aria-label="PKPASS"/>
  <path d="m168.96 194.36c-6.1614 0-10.199 3.1696-10.199 8.3203 0 0.53574 0.0536 1.0265 0.13476 1.4922 0.72241-4.2506 4.532-6.8125 10.064-6.8125 3.1451 0 5.5131 0.68239 7.2637 1.4805l0.9375-2.5605c-1.7893-0.97596-4.4801-1.9199-8.2012-1.9199zm23.281 0c-6.1614 0-10.201 3.1696-10.201 8.3203 0 0.53497 0.0538 1.0252 0.13477 1.4902 0.72322-4.2495 4.5348-6.8105 10.066-6.8105 3.1455 0 5.5131 0.68226 7.2637 1.4805l0.93554-2.5605c-1.7893-0.97596-4.4781-1.9199-8.1992-1.9199zm-129.68 0.32031c-1.8733 0-5.3175 0.13192-8.3203 0.7207v3c3.0028-0.58878 6.447-0.7207 8.3203-0.7207 10.535 0 12.419 4.6958 12.752 7.8359 0.05945-0.54079 0.08789-1.0571 0.08789-1.5156 0-2.8186-0.461-9.3203-12.84-9.3203zm53.119 0c-1.8733 0-5.3175 0.13192-8.3203 0.7207v3c3.0028-0.58878 6.447-0.7207 8.3203-0.7207 10.53 0 12.419 4.6919 12.754 7.832 0.0591-0.53932 0.0859-1.0543 0.0859-1.5117 0-2.8186-0.461-9.3203-12.84-9.3203zm-35.68 0.32031v3h6.2402v-3zm15.721 0c-3.145 3.5068-6.2298 7.0702-9.4805 10.48v3c3.2507-3.4103 6.3355-6.9737 9.4805-10.48h4.7695c0.90524-1.0337 1.9997-2.2555 2.6289-3zm42.92 0c-3.4343 7.0648-6.8319 15.633-11.041 27.721h1.0723c3.7095-10.458 6.8397-18.284 9.9687-24.721h5.959c3.3549 7.1044 6.3694 14.592 9.9668 24.721h1.0742c-4.1063-11.792-7.3487-19.902-11.041-27.721zm27.078 8.6465c-0.37909 0.39253-0.55859 0.90711-0.55859 1.5527 0.24727 2.3866 2.8616 3.0052 4.7988 3.6816 5.2835 1.9568 7.9024 3.6227 8.4141 7.6582 0.0638-0.44701 0.10742-0.91468 0.10742-1.4199 0-5.2319-2.5903-7.0415-8.5215-9.2383-1.4677-0.51252-3.3187-0.99474-4.2402-2.2344zm23.279 2e-3c-0.37777 0.39228-0.5586 0.90625-0.5586 1.5508 0.24727 2.3866 2.8636 3.0052 4.8008 3.6816 5.2843 1.9571 7.901 3.6234 8.4121 7.6602 0.064-0.44761 0.10743-0.91588 0.10743-1.4219 0-5.2319-2.5883-7.0415-8.5195-9.2383-1.4672-0.51234-3.3204-0.99375-4.2422-2.2324zm-120.27 1.918c-0.51202 1.4739-2.0584 2.5527-6.291 2.5527h-1.959v3h1.959c5.6666 0 6.5215-1.9312 6.5215-4.1582 0-0.52441-0.09057-0.97839-0.23047-1.3945zm53.119 0c-0.51203 1.4739-2.0564 2.5527-6.2891 2.5527h-1.9609v3h1.9609c5.6666 0 6.5195-1.9312 6.5195-4.1582 0-0.52441-0.0906-0.97839-0.23047-1.3945zm-28.887 3.5859c-0.52569 0.53868-1.0157 1.0606-1.5625 1.6074 4.2487 3.532 7.8087 8.1192 10.406 11.961h1.9531c-2.3223-3.7615-6.1037-9.224-10.797-13.568zm45.691 2.6074c-0.33718 0.91086-0.67118 1.8115-1.0938 3h7.8789c-0.0327-0.0921-0.49779-1.3886-1.0918-3zm21.385 4.4394-1.7598 4.9609c0.29385 0.16791 0.60014 0.30829 0.90429 0.45117l0.85547-2.4121c2.3212 1.3162 4.8917 1.7083 7.5215 1.7617 3.2335 0 4.4785-0.98258 4.4785-2.8809 0-0.51028-0.13175-0.97262-0.45508-1.4219-0.60802 0.85527-1.8653 1.3027-4.0234 1.3027-2.6298-0.0534-5.2002-0.44556-7.5215-1.7617zm23.281 0-1.7598 4.9609c0.29447 0.16827 0.59948 0.30999 0.90429 0.45312l0.85547-2.4141c2.3212 1.3162 4.8898 1.7083 7.5195 1.7617 3.2335 0 4.4805-0.98258 4.4805-2.8809 0-0.51028-0.13371-0.97262-0.45703-1.4219-0.60818 0.85489-1.8658 1.3027-4.0234 1.3027-2.6298-0.0534-5.1983-0.44556-7.5195-1.7617z" fill="#fbf1c7" opacity=".6"/>
  <path d="m57 15c-9.9393 0-17 7.0595-17 17v192c0 9.9393 7.0595 17 17 17h142c9.9405 0 17-7.0607 17-17v-144l-65-65zm4.0332 4.9902 89.967 0.01 60 60 2e-4 139.75c1e-5 9.4999-6.6575 16.248-16.033 16.248h-133.93c-9.3757 0-16.033-6.7481-16.033-16.248v-183.51c0-9.501 6.6586-16.25 16.033-16.25z" fill="url(#linearGradient14-8)" style="paint-order:markers fill stroke"/>
  <path d="m151 15.002v52.914c0 9.6525 7.8639 17.084 17.518 17.084l47.482-1.34e-4v-5z" fill="#282828" opacity=".2" stroke-width="1.0833"/>
  <path d="m151 15.001v47.916c0 9.6525 7.8639 17.084 17.518 17.084l47.482-1.34e-4z" fill="url(#linearGradient7-6-0)" stroke-width="1.0833"/>
</svg>
