<svg width="256" height="256" version="1.1" viewBox="0 0 256 256" xmlns="http://www.w3.org/2000/svg">
  <defs>
    <linearGradient id="linearGradient21" x1="128" x2="128" y1="15" y2="241" gradientTransform="translate(-9.75e-4,-9.75e-4)" gradientUnits="userSpaceOnUse">
      <stop stop-color="#ebdbb2" offset="0"/>
      <stop stop-color="#d5c4a1" offset="1"/>
    </linearGradient>
    <linearGradient id="linearGradient7-6-0-7" x1="186" x2="156" y1="45.006" y2="75.012" gradientTransform="matrix(1.0833 0 0 1.0833 -17.997 -1.2506)" gradientUnits="userSpaceOnUse">
      <stop stop-color="#8ec07c" offset="0"/>
      <stop stop-color="#689d6a" offset=".3027"/>
      <stop stop-color="#427b58" offset="1"/>
    </linearGradient>
    <linearGradient id="linearGradient14-6" x1="128" x2="128" y1="15.001" y2="241" gradientTransform="translate(0,4.8e-4)" gradientUnits="userSpaceOnUse">
      <stop stop-color="#427b58" stop-opacity=".099738" offset="0"/>
      <stop stop-color="#427b58" stop-opacity=".047244" offset=".2"/>
      <stop stop-color="#427b58" stop-opacity=".047244" offset=".70405"/>
      <stop stop-color="#282828" stop-opacity=".049869" offset=".80473"/>
      <stop stop-color="#282828" stop-opacity=".10367" offset="1"/>
    </linearGradient>
  </defs>
  <path d="m56.999 14.999c-9.9393 0-17 7.0595-17 17v149h176v-101l-64.998-64.998z" fill="url(#linearGradient21)" style="paint-order:markers fill stroke"/>
  <path d="m57 241c-9.9393 0-17-7.0595-17-17v-43h176v43c0 9.9405-7.0607 17-17 17z" fill="#689d6a" stroke-linecap="round" stroke-linejoin="round" stroke-miterlimit="0" style="paint-order:markers fill stroke"/>
  <path d="m106.54 228.28c-11.917 0-13.84-8.7761-13.84-14.44 0-8.7097 5.577-14.48 14.16-14.48 3.6494 0 6.894 1.0788 8.56 2.12l-1.8 5.04c-1.62-0.86062-3.9004-1.64-6.84-1.64-1.6567 0-7.6 0.57595-7.6 8.84 0 7.3771 4.1646 9.04 7.92 9.04 2.4702 0.084 4.7798-0.55372 7-1.56l1.72 5c-3.204 1.9418-7.9741 2.08-9.28 2.08zm24.92 0c-11.917 0-13.84-8.7761-13.84-14.44 0-8.7097 5.577-14.48 14.16-14.48 3.6494 0 6.894 1.0788 8.56 2.12l-1.8 5.04c-1.62-0.86062-3.9004-1.64-6.84-1.64-1.6567 0-7.6 0.57595-7.6 8.84 0 7.3771 4.1646 9.04 7.92 9.04 2.4702 0.084 4.7798-0.55372 7-1.56l1.72 5c-3.204 1.9418-7.9741 2.08-9.28 2.08zm13.28-0.56v-27.72h18.56v5.24h-12.32v5.8h10.96v5.24h-10.96v11.44z" fill="#282828" opacity=".2" aria-label="CCF"/>
  <path d="m106.54 225.28c-11.917 0-13.84-8.7761-13.84-14.44 0-8.7097 5.577-14.48 14.16-14.48 3.6494 0 6.894 1.0788 8.56 2.12l-1.8 5.04c-1.62-0.86062-3.9004-1.64-6.84-1.64-1.6567 0-7.6 0.57595-7.6 8.84 0 7.3771 4.1646 9.04 7.92 9.04 2.4702 0.084 4.7798-0.55372 7-1.56l1.72 5c-3.204 1.9418-7.9741 2.08-9.28 2.08zm24.92 0c-11.917 0-13.84-8.7761-13.84-14.44 0-8.7097 5.577-14.48 14.16-14.48 3.6494 0 6.894 1.0788 8.56 2.12l-1.8 5.04c-1.62-0.86062-3.9004-1.64-6.84-1.64-1.6567 0-7.6 0.57595-7.6 8.84 0 7.3771 4.1646 9.04 7.92 9.04 2.4702 0.084 4.7798-0.55372 7-1.56l1.72 5c-3.204 1.9418-7.9741 2.08-9.28 2.08zm13.28-0.56v-27.72h18.56v5.24h-12.32v5.8h10.96v5.24h-10.96v11.44z" fill="#ebdbb2" aria-label="CCF"/>
  <path d="m106.86 196.36c-8.583 0-14.16 5.7688-14.16 14.479 0 0.50038 0.023 1.0315 0.0586 1.5723 0.5806-7.9049 5.9979-13.053 14.102-13.053 3.0828 0 5.8646 0.77198 7.6621 1.6387l0.89844-2.5176c-1.666-1.0412-4.9112-2.1191-8.5606-2.1191zm24.92 0c-8.583 0-14.16 5.7688-14.16 14.479 0 0.50038 0.023 1.0315 0.0586 1.5723 0.58061-7.9049 5.9979-13.053 14.102-13.053 3.0817 0 5.8645 0.7704 7.6621 1.6367l0.89843-2.5156c-1.666-1.0412-4.9111-2.1191-8.5605-2.1191zm12.961 0.63867v3h18.561v-3zm6.2402 11.041v2.998h10.959v-2.998zm-51.729 4.1953c-0.0455 0.46546-0.0723 0.95848-0.0723 1.4844 0 7.3771 4.1646 9.0391 7.9199 9.0391 2.4702 0.084 4.7798-0.55427 7-1.5606l0.84767 2.4648c0.29934-0.1428 0.59412-0.29384 0.87304-0.46289l-1.7207-5c-2.2202 1.0063-4.5298 1.6426-7 1.5586-3.4813 0-7.3068-1.4377-7.8477-7.5234zm24.92 0c-0.0455 0.46546-0.0723 0.95848-0.0723 1.4844 0 7.3771 4.1646 9.0391 7.9199 9.0391 2.4702 0.084 4.7798-0.55427 7-1.5606l0.84766 2.4648c0.29968-0.14293 0.59382-0.29366 0.87304-0.46289l-1.7207-5c-2.2202 1.0063-4.5298 1.6426-7 1.5586-3.4813 0-7.3068-1.4377-7.8476-7.5234z" fill="#fbf1c7" opacity=".6"/>
  <path d="m104.83 54.993v49.992l-24.828 0.01572s12.414 27.759 48.012 65c35.575-37.241 47.988-65 47.988-65h-24.828v-50z" fill="#ebdbb2" opacity=".6" stroke-width=".82759"/>
  <path d="m104.83 49.993v49.992l-24.828 0.01572s12.414 27.759 48.012 65c35.575-37.241 47.988-65 47.988-65h-24.828v-50z" fill="#689d6a" stroke-width=".82759"/>
  <path d="m104.83 49.992v5l46.344 0.0078v-5zm0 49.992-24.828 0.01563s0.79243 1.7689 2.5391 4.9981l22.289-0.0137zm46.344 0.01564v5h22.287c1.7471-3.2305 2.541-5 2.541-5z" fill="#282828" opacity=".2" stroke-width=".82759"/>
  <path d="m57 15c-9.9393 0-17 7.0595-17 17v192c0 9.9393 7.0595 17 17 17h142c9.9405 0 17-7.0607 17-17v-144l-65-65zm4.0332 4.9902 89.967 0.01 60 60 2e-4 139.75c1e-5 9.4999-6.6575 16.248-16.033 16.248h-133.93c-9.3757 0-16.033-6.7481-16.033-16.248v-183.51c0-9.501 6.6586-16.25 16.033-16.25z" fill="url(#linearGradient14-6)" style="paint-order:markers fill stroke"/>
  <path d="m151 15.002v52.914c0 9.6525 7.8639 17.084 17.518 17.084l47.482-1.34e-4v-5z" fill="#282828" opacity=".2" stroke-width="1.0833"/>
  <path d="m151 15.001v47.916c0 9.6525 7.8639 17.084 17.518 17.084l47.482-1.34e-4z" fill="url(#linearGradient7-6-0-7)" stroke-width="1.0833"/>
</svg>
