<svg width="256" height="256" version="1.1" viewBox="0 0 256 256" xmlns="http://www.w3.org/2000/svg">
  <defs>
    <linearGradient id="linearGradient7-6-0" x1="186" x2="156" y1="45.006" y2="75.012" gradientTransform="matrix(1.0833 0 0 1.0833 -17.998 -1.2507)" gradientUnits="userSpaceOnUse">
      <stop stop-color="#665c54" offset="0"/>
      <stop stop-color="#3c3836" offset=".3027"/>
      <stop stop-color="#282828" offset="1"/>
    </linearGradient>
    <linearGradient id="linearGradient14-5" x1="128" x2="128" y1="15.001" y2="241" gradientTransform="translate(0,4.8e-4)" gradientUnits="userSpaceOnUse">
      <stop stop-color="#ebdbb2" stop-opacity=".1" offset="0"/>
      <stop stop-color="#ebdbb2" stop-opacity=".05" offset=".2"/>
      <stop stop-opacity="0" offset=".70405"/>
      <stop stop-opacity=".05" offset=".80473"/>
      <stop stop-opacity=".1" offset="1"/>
    </linearGradient>
    <linearGradient id="linearGradient28" x1="104" x2="104" y1="15" y2="241" gradientUnits="userSpaceOnUse">
      <stop stop-color="#3c3836" offset="0"/>
      <stop stop-color="#3c3836" offset="1"/>
    </linearGradient>
  </defs>
  <path d="m57 15c-9.9393 0-17 7.0595-17 17v192c0 9.9393 7.0595 17 17 17h142c9.9405 0 17-7.0607 17-17v-144l-64.999-64.999z" fill="url(#linearGradient28)" stroke-linecap="round" stroke-linejoin="round" stroke-miterlimit="0" style="paint-order:markers fill stroke"/>
  <path d="m57 241c-9.9393 0-17-7.0595-17-17v-43h176v43c0 9.9405-7.0607 17-17 17z" fill="#ebdbb2" opacity=".3" stroke-linecap="round" stroke-linejoin="round" stroke-miterlimit="0" style="paint-order:markers fill stroke"/>
  <path d="m92.5 200c2.8077 5.364 5.1623 10.948 7.52 16.52 2.3568-5.5724 4.6676-11.178 7.52-16.52h5.68c1.2019 9.1934 1.7322 18.464 2.2 27.72h-6.08c-0.20883-7.0309-0.45108-12.726-0.92-18.4-2.144 4.9499-4.2446 9.918-6.36 14.88h-4.36c-2.1341-4.9541-4.2337-9.9226-6.36-14.88-0.46892 5.6739-0.71116 11.369-0.92 18.4h-6.08c0.61669-12.642 1.2396-21.093 2.2-27.72zm34.76 22.64c0.79723 0.0981 1.5986 0.08 2.4 0.08 7.7941 0 9.2-5.1581 9.2-8.88 0-7.853-5.2303-8.84-9-8.84-0.86857 4e-3 -1.7355 0.0424-2.6 0.12zm18.04-8.8c0 12.439-10.106 14.24-15.96 14.24-0.88704 0-4.9869-0.041-8.32-0.72v-27c0.13452-0.0249 3.6911-0.68 8.52-0.68 7.5066 0 15.76 2.6232 15.76 14.16zm13.52-14.16c12.379 0 12.84 6.5014 12.84 9.32 0 3.3294-0.85049 9.44-12.96 9.44h-1.96v9.28h-6.24v-27.32c3.0028-0.58878 6.4467-0.72 8.32-0.72zm0.4 5.32c-0.95141 0-1.8488 0.0674-2.48 0.12v8h1.96c5.6666 0 6.52-1.933 6.52-4.16 0-2.7192-1.8321-3.96-6-3.96z" fill="#ebdbb2" opacity=".1" aria-label="MDP"/>
  <path d="m92.5 197.36c2.8077 5.364 5.1623 10.948 7.52 16.52 2.3568-5.5724 4.6676-11.178 7.52-16.52h5.68c1.2019 9.1934 1.7322 18.464 2.2 27.72h-6.08c-0.20884-7.0309-0.45108-12.726-0.92-18.4-2.144 4.9499-4.2446 9.918-6.36 14.88h-4.36c-2.1341-4.9541-4.2337-9.9226-6.36-14.88-0.46892 5.6739-0.71116 11.369-0.92 18.4h-6.08c0.61669-12.642 1.2396-21.093 2.2-27.72zm34.76 22.64c0.79723 0.0981 1.5986 0.08 2.4 0.08 7.7941 0 9.2-5.1581 9.2-8.88 0-7.853-5.2303-8.84-9-8.84-0.86857 4e-3 -1.7356 0.0424-2.6 0.12zm18.04-8.8c0 12.439-10.106 14.24-15.96 14.24-0.88703 0-4.9869-0.041-8.32-0.72v-27c0.13451-0.0249 3.6911-0.68 8.52-0.68 7.5066 0 15.76 2.6232 15.76 14.16zm13.52-14.16c12.379 0 12.84 6.5014 12.84 9.32 0 3.3294-0.85049 9.44-12.96 9.44h-1.96v9.28h-6.24v-27.32c3.0028-0.58878 6.4467-0.72 8.32-0.72zm0.4 5.32c-0.95141 0-1.8488 0.0674-2.48 0.12v8h1.96c5.6666 0 6.52-1.933 6.52-4.16 0-2.7192-1.8321-3.96-6-3.96z" fill="#3c3836" aria-label="MDP"/>
  <path d="m129.54 197.04c-4.8289 0-8.385 0.65674-8.5195 0.68164v2.6387c0.13451-0.0249 3.6906-0.67969 8.5195-0.67969 7.2101 0 15.104 2.4258 15.717 12.84 0.0264-0.42711 0.0449-0.86514 0.0449-1.3203 0-11.537-8.2551-14.16-15.762-14.16zm29.281 0c-1.8733 0-5.3175 0.13193-8.3203 0.72071v2.6406c3.0028-0.58878 6.447-0.7207 8.3203-0.7207 10.701 0 12.491 4.8563 12.781 7.9941 0.0431-0.46725 0.0586-0.9126 0.0586-1.3144 0-2.8186-0.46101-9.3203-12.84-9.3203zm-72.281 0.32032c-0.96038 6.6266-1.5825 15.078-2.1992 27.721h0.14258c0.5727-11.114 1.1688-18.954 2.0566-25.08h5.9609c2.8077 5.364 5.1618 10.948 7.5195 16.52 2.3568-5.5724 4.6672-11.177 7.5195-16.52h5.6816c1.0876 8.3193 1.6195 16.702 2.0586 25.08h0.14062c-0.46781-9.2559-0.99734-18.527-2.1992-27.721h-5.6816c-2.8524 5.3425-5.1628 10.949-7.5195 16.521-2.3578-5.5719-4.7119-11.158-7.5195-16.521zm78.51 10.324c-0.42815 1.5946-1.8917 2.7969-6.3496 2.7969h-1.959v2.6387h1.959c5.6666 0 6.5215-1.9312 6.5215-4.1582 0-0.47011-0.0597-0.89439-0.17187-1.2774zm-26.252 4.7363c-0.31386 3.5356-2.1621 7.6602-9.1367 7.6602-0.80135 0-1.6032 0.018-2.4004-0.0801v2.6406c0.79723 0.0981 1.599 0.0801 2.4004 0.0801 7.7941 0 9.1992-5.159 9.1992-8.8809 0-0.50162-0.0216-0.97279-0.0625-1.4199z" fill="#282828"/>
  <path d="m57 15c-9.9393 0-17 7.0595-17 17v192c0 9.9393 7.0595 17 17 17h142c9.9405 0 17-7.0607 17-17v-144l-65-64.998zm4.0332 4.9902 89.967 2e-3 60 60.009v139.75c0 9.4999-6.6575 16.248-16.033 16.248h-133.93c-9.3757 0-16.033-6.7481-16.033-16.248v-183.51c0-9.501 6.6586-16.25 16.033-16.25z" fill="url(#linearGradient14-5)" style="paint-order:markers fill stroke"/>
  <path d="m99.156 50.275c-1.8247 0.0064-3.4733 0.078689-4.8848 0.22656-4.8887 0.49849-9.8852 1.6993-11.471 2.6973-0.42892 0.34257 2.7173 1.1045 8.1191 2.1016 4.8656 0.90368 8.417 1.6981 7.8965 1.832-0.59057 0.09249-8.1923-0.74881-17.037-1.8789-15.475-1.995-16.039-2.0402-17.166-1.0449-2.2645 2.0412-5.4708 7.5888-6.1543 10.57-0.63068 2.8757-0.59248 3.216 0.83789 6.1367 2.4435 5.0027 7.0128 8.6481 17.352 13.881 4.8885 2.5385 8.7817 4.6175 8.6426 4.7734-0.15582 0.13394-4.3428-1.4245-9.2734-3.4883l-9.0293-3.7363-26.988 7.4043v91.25h3.623l37.244-43.057s13.325 5.5941 28.801 12.252c26.467 11.362 28.229 12.041 28.934 11.09 1.0878-1.4592 4.8179-9.2668 6.7812-14.199l1.6856-4.1895-2.8144-1.5273c-3.9948-2.1721-9.8554-7.0512-13.52-11.24-3.3487-3.8246-9.3906-13.044-9.3906-14.33 0-0.42714 1.9246 1.518 4.2754 4.3242 6.5847 7.8346 21.766 20.154 22.717 18.41 1.1292-2.081 1.877-8.1954 1.8242-15.309-0.0528-8.6699-1.1833-15.415-4.1719-24.725l-1.6699-5.2246-8.2305-2.582c-4.5458-1.4471-9.0916-2.8505-10.113-3.1914-3.5743-1.1309-1.3319-1.0678 3.8691 0.11328 6.2417 1.404 12.595 2.5562 16.506 3.0547 3.4922 0.42891 4.2389-0.24805 4.6035-4.0742 0.46954-4.9141-2.6757-18.495-5.8906-25.225-1.2684-2.6952-1.8506-3.3059-4.4102-4.4668-7.424-3.4681-28.723-6.674-41.496-6.6289z" fill="#282828" stroke-linecap="square" stroke-linejoin="round" stroke-miterlimit="0" stroke-width="5.2078" style="paint-order:markers fill stroke"/>
  <path d="m99.157 46.087c-1.8247 0.0064-3.475 0.07921-4.8864 0.22708-4.8887 0.49849-9.8846 1.6984-11.47 2.6964-0.42892 0.34257 2.7175 1.1055 8.1194 2.1026 4.8655 0.90368 8.4162 1.6979 7.8957 1.8318-0.59057 0.09249-8.1913-0.74879-17.036-1.8789-15.475-1.995-16.038-2.0399-17.166-1.0446-2.2645 2.0412-5.4712 7.5887-6.1547 10.57-0.63068 2.8757-0.5927 3.2155 0.83768 6.1362 2.4435 5.0027 7.0136 8.6477 17.352 13.881 4.8885 2.5385 8.7817 4.6178 8.6425 4.7737-0.15582 0.13394-4.3443-1.4249-9.275-3.4886l-9.0277-3.7359-26.989 7.4045v95.438l40.868-47.245s13.325 5.5927 28.801 12.251c26.467 11.362 28.229 12.041 28.933 11.09 1.0878-1.4592 4.8171-9.266 6.7805-14.198l1.6871-4.19-2.8158-1.5273c-3.9948-2.1721-9.8548-7.0506-13.519-11.24-3.3487-3.8246-9.391-13.044-9.391-14.33 0-0.42714 1.925 1.5168 4.2758 4.323 6.5847 7.8346 21.765 20.154 22.716 18.41 1.1292-2.081 1.8779-8.1937 1.8251-15.307-0.0528-8.6699-1.1847-15.415-4.1732-24.725l-1.6686-5.2262-8.2321-2.582c-4.5458-1.4471-9.0909-2.85-10.113-3.1909-3.5743-1.1309-1.3322-1.0684 3.8688 0.1127 6.2417 1.404 12.595 2.5578 16.506 3.0563 3.4922 0.42891 4.2392-0.24951 4.6038-4.0757 0.46954-4.9141-2.6758-18.495-5.8906-25.224-1.2684-2.6952-1.8509-3.305-4.4104-4.4659-7.424-3.4681-28.722-6.6742-41.495-6.6291z" fill="#ebdbb2" stroke-linecap="square" stroke-linejoin="round" stroke-miterlimit="0" stroke-width="5.2078" style="paint-order:markers fill stroke"/>
  <path d="m99.157 46.088c-1.8247 0.0064-3.4733 0.08064-4.8848 0.22852-4.8887 0.49849-9.8852 1.6974-11.471 2.6953-0.41568 0.332 2.5747 1.0655 7.6738 2.0176 1.2335-0.21095 2.5127-0.39465 3.7949-0.52539 1.4115-0.14787 3.062-0.22016 4.8867-0.22656 12.773-0.04512 34.072 3.1608 41.496 6.6289 2.5595 1.1609 3.1418 1.7716 4.4102 4.4668 2.6515 5.55 5.2212 15.694 5.7891 21.859 0.0352-0.2663 0.0725-0.51885 0.10156-0.82422 0.46954-4.9141-2.6757-18.495-5.8906-25.225-1.2684-2.6952-1.8506-3.3059-4.4102-4.4668-7.424-3.4681-28.723-6.674-41.496-6.6289zm-32.695 3.3027c-1.0802 0.0327-1.4249 0.25958-1.8477 0.63281-2.2645 2.0412-5.4708 7.5888-6.1543 10.57-0.46116 2.1028-0.54856 2.8605-0.01172 4.252 0.0056-0.02584 6e-3 -0.03819 0.01172-0.06445 0.68349-2.9815 3.8898-8.5291 6.1543-10.57 1.1274-0.99529 1.691-0.95005 17.166 1.0449 8.8448 1.1301 16.445 1.9714 17.035 1.8789 0.52055-0.13389-3.029-0.92835-7.8945-1.832-5.4018-0.99705-8.5481-1.759-8.1191-2.1016 0.76881-0.48391 2.3604-1.0124 4.332-1.4883-1.8359-0.2219-3.3148-0.38405-5.3535-0.64454-9.6719-1.2469-13.518-1.7322-15.318-1.6777zm-0.5293 29.059-25.932 7.1152v4.1875l26.988-7.4043 9.0273 3.7363c4.9306 2.0638 9.1196 3.6222 9.2754 3.4883 0.13916-0.1559-3.7541-2.2349-8.6426-4.7734-4.6403-2.3486-8.0713-4.3744-10.717-6.3496zm58.686 8.2441c-0.76386-0.0219-0.42974 0.24507 1.3574 0.81055 1.0217 0.34086 5.5655 1.7423 10.111 3.1895l8.2324 2.582 1.668 5.2266c2.7561 8.5857 3.921 15.008 4.1289 22.752 0.0126-0.74487 0.0507-1.4425 0.0449-2.2148-0.0528-8.6699-1.1833-15.415-4.1719-24.725l-1.2382-3.877c-3.9255-0.57168-9.4113-1.5858-14.908-2.8223-2.6005-0.59056-4.4608-0.89997-5.2246-0.92188zm-3.1875 29.055c-0.0572-0.0177-0.0859-6.5e-4 -0.0859 0.0527 0 1.286 6.0419 10.505 9.3906 14.33 3.6641 4.189 9.5247 9.0662 13.52 11.238l1.4316 0.77734 1.3828-3.4375-2.8144-1.5273c-3.9948-2.1721-9.8554-7.0512-13.52-11.24-0.52875-0.60388-1.135-1.3691-1.7637-2.1894-1.241-1.2629-2.4004-2.4972-3.3516-3.6289-2.057-2.4554-3.7888-4.2507-4.1894-4.375z" fill="#fbf1c7" opacity=".6" stroke-linecap="square" stroke-linejoin="round" stroke-miterlimit="0" stroke-width="5.2078" style="paint-order:markers fill stroke"/>
  <path d="m151 15.002v52.914c0 9.6525 7.8639 17.084 17.518 17.084l47.482-1.34e-4v-5z" fill="#282828" opacity=".5" stroke-width="1.0833"/>
  <path d="m151 15.001v47.916c0 9.6525 7.8639 17.082 17.518 17.082l47.482 0.0019z" fill="url(#linearGradient7-6-0)" stroke-width="1.0833"/>
</svg>
