<svg width="256" height="256" version="1.1" viewBox="0 0 256 256" xmlns="http://www.w3.org/2000/svg">
  <defs>
    <linearGradient id="linearGradient26" x1="-160" x2="-160" y2="226" gradientTransform="translate(267,15)" gradientUnits="userSpaceOnUse">
      <stop stop-color="#458588" offset="0"/>
      <stop stop-color="#83a598" offset="1"/>
    </linearGradient>
    <linearGradient id="linearGradient7-6" x1="186" x2="156" y1="45.006" y2="75.012" gradientTransform="matrix(1.0833 0 0 1.0833 -17.999 -1.2512)" gradientUnits="userSpaceOnUse">
      <stop stop-color="#83a598" offset="0"/>
      <stop stop-color="#458588" offset=".3027"/>
      <stop stop-color="#076678" offset="1"/>
    </linearGradient>
    <linearGradient id="linearGradient14-5" x1="128" x2="128" y1="15.001" y2="241" gradientTransform="translate(0,4.8e-4)" gradientUnits="userSpaceOnUse">
      <stop stop-color="#ebdbb2" stop-opacity=".15" offset="0"/>
      <stop stop-color="#ebdbb2" stop-opacity=".05" offset=".2"/>
      <stop stop-opacity="0" offset=".70405"/>
      <stop stop-opacity=".05" offset=".80473"/>
      <stop stop-opacity=".1" offset="1"/>
    </linearGradient>
    <radialGradient id="radialGradient11" cx="126.06" cy="204.77" r="87.498" gradientTransform="matrix(.66489 0 0 .13279 44.18 128.92)" gradientUnits="userSpaceOnUse">
      <stop stop-color="#076678" offset="0"/>
      <stop stop-color="#076678" stop-opacity="0" offset="1"/>
    </radialGradient>
    <linearGradient id="_Linear1" x1=".69183" x2="1" y1=".02074" gradientTransform="matrix(69.175 362.3 -362.3 69.175 58.823 -211.67)" gradientUnits="userSpaceOnUse">
      <stop stop-color="#83a598" offset="0"/>
      <stop stop-color="#076678" offset="1"/>
    </linearGradient>
    <linearGradient id="_Linear2" x2=".87476" y2="-.024799" gradientTransform="matrix(-20.895 -93.689 93.689 -20.895 143.92 121.85)" gradientUnits="userSpaceOnUse">
      <stop stop-color="#ebdbb2" offset="0"/>
      <stop stop-color="#ebdbb2" offset=".20422"/>
      <stop stop-color="#076678" offset="1"/>
    </linearGradient>
    <radialGradient id="_Radial3" cx="0" cy="0" r="1" gradientTransform="matrix(18.595 0 0 14.253 119.41 64.894)" gradientUnits="userSpaceOnUse">
      <stop stop-color="#ebdbb2" offset="0"/>
      <stop stop-color="#ebdbb2" offset=".25"/>
      <stop stop-color="#076678" offset="1"/>
    </radialGradient>
    <radialGradient id="_Radial4" cx="0" cy="0" r="1" gradientTransform="matrix(-2.5492 161.75 -137.95 -2.172 77.103 69.456)" gradientUnits="userSpaceOnUse">
      <stop stop-color="#ebdbb2" offset="0"/>
      <stop stop-color="#79a095" offset=".61794"/>
      <stop stop-color="#076678" offset="1"/>
    </radialGradient>
  </defs>
  <path d="m57 15c-9.9393 0-17 7.0595-17 17v192c0 9.9393 7.0595 17 17 17h142c9.9405 0 17-7.0607 17-17v-144l-65-64.998z" fill="url(#linearGradient26)" stroke-linecap="round" stroke-linejoin="round" stroke-miterlimit="0" style="paint-order:markers fill stroke"/>
  <path d="m57 241c-9.9393 0-17-7.0595-17-17v-43h176v43c0 9.9405-7.0607 17-17 17z" fill="#076678" opacity=".3" stroke-linecap="round" stroke-linejoin="round" stroke-miterlimit="0" style="paint-order:markers fill stroke"/>
  <path d="m55.36 227.72v-27.72h18.72v5.24h-12.48v5.44h11.08v5.12h-11.08v6.68h13.4v5.24zm36.88 0.56c-11.917 0-13.84-8.7761-13.84-14.44 0-8.7097 5.577-14.48 14.16-14.48 3.6494 0 6.894 1.0788 8.56 2.12l-1.8 5.04c-1.62-0.86062-3.9004-1.64-6.84-1.64-1.6567 0-7.6 0.57595-7.6 8.84 0 7.3771 4.1646 9.04 7.92 9.04 2.4702 0.084 4.7798-0.55372 7-1.56l1.72 5c-3.204 1.9418-7.9741 2.08-9.28 2.08zm31.8-5.92v5.36h-18.52v-27.72h6.24v22.36zm23.8 5.36c-0.64332-2.0121-1.3562-4.0012-2.04-6h-10.8c-0.7104 1.9905-1.4118 3.9818-2.04 6h-6.48c3.0521-8.7651 6.8126-19.024 11.04-27.72h5.96c3.6561 7.7424 6.8772 15.765 11.04 27.72zm-7.48-21.44c-0.71608 2.1482-1.6498 4.0952-3.92 10.48h7.88c-0.0731-0.20573-1.8629-5.2373-3.96-10.48zm26.08 16.68c3.2335 0 4.48-0.98172 4.48-2.88 0-1.533-1.0262-2.6487-5.68-4.2-3.4634-1.2224-7.6-2.955-7.6-8.2 0-5.1508 4.0386-8.32 10.2-8.32 3.7211 0 6.4107 0.94404 8.2 1.92l-1.8 4.92c-1.873-0.99727-3.8907-1.4678-6-1.52-2.9192 0-4.2 0.79833-4.2 2.52 0.19285 2.3426 2.9057 3.0323 4.8 3.68 5.9312 2.1967 8.52 4.0081 8.52 9.24 0 6.7588-5.9696 8.16-10.92 8.16-2.0763 0-6.0494-0.27394-9.28-2.12l1.76-4.96c2.3212 1.3162 4.8902 1.7066 7.52 1.76zm23.28 0c3.2335 0 4.48-0.98172 4.48-2.88 0-1.533-1.0262-2.6487-5.68-4.2-3.4634-1.2224-7.6-2.955-7.6-8.2 0-5.1508 4.0386-8.32 10.2-8.32 3.7211 0 6.4107 0.94404 8.2 1.92l-1.8 4.92c-1.873-0.99727-3.8907-1.4678-6-1.52-2.9192 0-4.2 0.79833-4.2 2.52 0.24727 2.3866 2.8628 3.0035 4.8 3.68 5.9312 2.1967 8.52 4.0081 8.52 9.24 0 6.7588-5.9696 8.16-10.92 8.16-2.0763 0-6.0494-0.27394-9.28-2.12l1.76-4.96c2.3212 1.3162 4.8902 1.7066 7.52 1.76z" fill="#ebdbb2" opacity=".15" aria-label="ECLASS"/>
  <path d="m55.36 224.72v-27.72h18.72v5.24h-12.48v5.44h11.08v5.12h-11.08v6.68h13.4v5.24zm36.88 0.56c-11.917 0-13.84-8.7761-13.84-14.44 0-8.7097 5.577-14.48 14.16-14.48 3.6494 0 6.894 1.0788 8.56 2.12l-1.8 5.04c-1.62-0.86062-3.9004-1.64-6.84-1.64-1.6567 0-7.6 0.57595-7.6 8.84 0 7.3771 4.1646 9.04 7.92 9.04 2.4702 0.084 4.7798-0.55372 7-1.56l1.72 5c-3.204 1.9418-7.9741 2.08-9.28 2.08zm31.8-5.92v5.36h-18.52v-27.72h6.24v22.36zm23.8 5.36c-0.64332-2.0121-1.3562-4.0012-2.04-6h-10.8c-0.7104 1.9905-1.4118 3.9818-2.04 6h-6.48c3.0521-8.7651 6.8126-19.024 11.04-27.72h5.96c3.6561 7.7424 6.8772 15.765 11.04 27.72zm-7.48-21.44c-0.71608 2.1482-1.6498 4.0952-3.92 10.48h7.88c-0.0731-0.20573-1.8629-5.2373-3.96-10.48zm26.08 16.68c3.2335 0 4.48-0.98172 4.48-2.88 0-1.533-1.0262-2.6487-5.68-4.2-3.4634-1.2224-7.6-2.955-7.6-8.2 0-5.1508 4.0386-8.32 10.2-8.32 3.7211 0 6.4107 0.94404 8.2 1.92l-1.8 4.92c-1.873-0.99727-3.8907-1.4678-6-1.52-2.9192 0-4.2 0.79833-4.2 2.52 0.19285 2.3426 2.9057 3.0323 4.8 3.68 5.9312 2.1967 8.52 4.0081 8.52 9.24 0 6.7588-5.9696 8.16-10.92 8.16-2.0763 0-6.0494-0.27394-9.28-2.12l1.76-4.96c2.3212 1.3162 4.8902 1.7066 7.52 1.76zm23.28 0c3.2335 0 4.48-0.98172 4.48-2.88 0-1.533-1.0262-2.6487-5.68-4.2-3.4634-1.2224-7.6-2.955-7.6-8.2 0-5.1508 4.0386-8.32 10.2-8.32 3.7211 0 6.4107 0.94404 8.2 1.92l-1.8 4.92c-1.873-0.99727-3.8907-1.4678-6-1.52-2.9192 0-4.2 0.79833-4.2 2.52 0.24727 2.3866 2.8628 3.0035 4.8 3.68 5.9312 2.1967 8.52 4.0081 8.52 9.24 0 6.7588-5.9696 8.16-10.92 8.16-2.0763 0-6.0494-0.27394-9.28-2.12l1.76-4.96c2.3212 1.3162 4.8902 1.7066 7.52 1.76z" fill="#076678" aria-label="ECLASS"/>
  <path d="m92.56 196.36c-8.583 0-14.16 5.7708-14.16 14.48 0 0.43958 0.03947 0.92302 0.06641 1.3945 0.64722-7.8059 6.05-12.875 14.094-12.875 3.1072 0 5.8565 0.78704 7.6523 1.6621l0.90625-2.541c-1.666-1.0412-4.9092-2.1211-8.5586-2.1211zm75.279 0c-6.1614 0-10.199 3.1696-10.199 8.3203 0 0.53725 0.0531 1.0293 0.13477 1.4961 0.72078-4.2529 4.5304-6.8164 10.064-6.8164 3.1455 0 5.5131 0.68226 7.2637 1.4805l0.93554-2.5605c-1.7893-0.97596-4.4781-1.9199-8.1992-1.9199zm23.279 0c-6.1614 0-10.199 3.1696-10.199 8.3203 0 0.53574 0.0536 1.0265 0.13477 1.4922 0.7224-4.2506 4.532-6.8125 10.064-6.8125 3.1451 0 5.5131 0.68239 7.2637 1.4805l0.9375-2.5605c-1.7893-0.97596-4.4801-1.9199-8.2012-1.9199zm-135.76 0.64062v3h18.721v-3zm50.16 0v3h6.2402v-3zm32 0c-4.2274 8.6963-7.9869 18.956-11.039 27.721h1.0664c2.8521-8.0591 6.2111-16.983 9.9726-24.721h5.9609c3.3252 7.0417 6.3236 14.468 9.9648 24.721h1.0742c-4.1628-11.955-7.3829-19.978-11.039-27.721zm50.359 8.6465c-0.37909 0.39253-0.55861 0.90711-0.55861 1.5527 0.24727 2.3866 2.8616 3.0052 4.7988 3.6816 5.2835 1.9568 7.9024 3.6227 8.4141 7.6582 0.0638-0.44701 0.10742-0.91468 0.10742-1.4199 0-5.2319-2.5903-7.0415-8.5215-9.2383-1.4677-0.51252-3.3187-0.99474-4.2402-2.2344zm-23.283 6e-3c-0.37569 0.39189-0.55664 0.90408-0.55664 1.5469 0.19285 2.3426 2.9065 3.034 4.8008 3.6816 5.2843 1.9571 7.901 3.6234 8.4121 7.6602 0.064-0.44761 0.10743-0.91588 0.10743-1.4219-1e-5 -5.2319-2.5883-7.0415-8.5195-9.2383-1.4274-0.48805-3.3156-1.0035-4.2441-2.2285zm-103 2.0274v3h11.08v-3zm23.352 4.5566c-0.0455 0.46546-0.07031 0.95848-0.07031 1.4844 0 7.3771 4.1646 9.0391 7.9199 9.0391 2.4702 0.084 4.7798-0.55427 7-1.5606l0.8418 2.4492c0.2981-0.14235 0.59912-0.28084 0.87695-0.44922l-1.7188-5c-2.2202 1.0063-4.5298 1.6446-7 1.5606-3.4813 0-7.3088-1.4377-7.8496-7.5234zm52.584 1.5234c-0.33719 0.9109-0.67313 1.8115-1.0957 3h7.8809c-0.0327-0.0921-0.4978-1.3886-1.0918-3zm21.385 4.4394-1.7598 4.9609c0.29446 0.16827 0.59948 0.30999 0.90429 0.45312l0.85547-2.4141c2.3212 1.3162 4.8898 1.7083 7.5195 1.7617 3.2335 0 4.4805-0.98258 4.4805-2.8809 0-0.5104-0.13355-0.97253-0.45703-1.4219-0.60819 0.85489-1.8658 1.3027-4.0234 1.3027-2.6298-0.0534-5.1983-0.44556-7.5195-1.7617zm23.279 0-1.7598 4.9609c0.29386 0.16791 0.60015 0.30829 0.9043 0.45117l0.85547-2.4121c2.3212 1.3162 4.8917 1.7083 7.5215 1.7617 3.2335 0 4.4785-0.98258 4.4785-2.8809 0-0.51028-0.13177-0.97262-0.45508-1.4219-0.60803 0.85527-1.8653 1.3027-4.0234 1.3027-2.6298-0.0534-5.2002-0.44556-7.5215-1.7617zm-70.439 1.1602v3h12.279v-3zm-50.16 0.12109v3h13.4v-3z" fill="#282828" opacity=".2"/>
  <ellipse cx="128" cy="156.11" rx="58.176" ry="11.62" fill="url(#radialGradient11)" opacity=".75" stroke-width=".66489" style="paint-order:markers fill stroke"/>
  <path d="m75.368 128.3c0.01216-4.6496 3.9647-11.141 9.5804-17.038 3.7532-3.9412 7.5651-7.4009 15.874-14.485-5.7473-3.1538-14.687-6.9587-19.171-11.942-1.6595-1.8438-4.6677-6.021-4.0842-11.602 1.1891-11.375 15.229-28.637 35.185-32.287 6.6402-1.2145 14.264-0.33783 20.538 2.483 19.685 8.8496 43.758 30.835 46.72 41.571 1.0426 3.7786 0.84215 9.8018-0.95523 13.158-2.2274 4.1603-9.9387 12.61-20.489 21.33-16.554 13.681-39.752 28.372-57.073 30.844-5.597 0.79893-11.315-0.0342-15.328-2.2984-6.2786-3.5428-8.3629-8.2725-9.095-9.6901-1.9481-3.7696-1.7064-8.5458-1.7022-10.043zm46.589-52.237c0.21372-2.6362 10.551-0.01195 9.8975 2.0759-0.68896 2.2026-10.143 0.9482-9.8975-2.0759z" clip-rule="evenodd" fill="url(#_Linear1)" fill-rule="evenodd" stroke-linejoin="round" stroke-miterlimit="1.4142" stroke-width=".2827"/>
  <path d="m106.42 92.421c-5.4398 4.5928-9.0564 7.6894-13.591 11.834-10.919 9.9806-18.34 17.578-14.514 27.962 4.4127 11.979 14.086 11.372 25.429 9.1455 29.238-5.7666 77.3-42.715 74.846-56.362-1.9823-11.042-28.833-32.998-44.732-40.81-4.9668-2.4409-10.691-3.7032-16.432-3.4329-21.861 1.0318-38.932 20.935-38.06 31.718 0.8484 10.491 27.364 19.633 27.052 19.945zm-3.2814-36.625c-6.5779 7.3184-2.3724 21.478 8.5365 29.196 12.764 9.0312 33.435 10.666 37.548 3.7014 7.6728-12.991-0.70478-26.727-13.21-32.854-12.358-6.0549-28.774-4.6053-32.875-0.04326z" clip-rule="evenodd" fill="url(#_Linear2)" fill-rule="evenodd" stroke-linejoin="round" stroke-miterlimit="1.4142" stroke-width=".2827"/>
  <path d="m125.57 84.689c9.2346 1.2838 17.195-2.4146 18.439-11.534 0.9482-6.9461-9.6828-14.536-16.074-16.286-5.3374-1.4619-16.925 0.41783-17.707 10.513-0.81196 10.495 9.9567 16.559 15.342 17.307zm-4.5222-17.454c-6.0691 9.4022 8.8118 12.293 11.09 10.578 9.8224-7.3922-8.4161-14.721-11.09-10.578z" clip-rule="evenodd" fill="url(#_Radial3)" fill-rule="evenodd" stroke-linejoin="round" stroke-miterlimit="1.4142" stroke-width=".2827"/>
  <path d="m115.67 43.256c-10.735 1.1311-12.791 2.5129-22.516 9.8709-3.2595 2.466-9.2585 8.4667-10.796 15.585-0.58548 2.7111 0.10658 5.0519 2.059 6.6934 6.2523 5.2563 16.717 9.5205 25.302 13.643 2.5143 1.2074 0.84952 3.3966-3.2053 6.9068-10.232 8.8583-24.066 19.641-25.032 27.857-0.45516 3.8716 0.87047 9.1329 5.5698 11.825 5.4898 3.145 16.885 1.0923 24.495-1.7412 11.12-4.1408 25.727-13.279 37.323-22.262 12.058-9.3416 23.271-21.206 23.826-23.141 0.68104-2.3764 0.61318-4.571-0.70112-7.095-2.064-3.9627-4.8235-6.9068-7.7865-10.203-7.95-8.3816-16.362-15.746-26.426-21.389-7.2672-4.0754-13.661-7.4407-22.112-6.5499zm15.77 18.79c7.7559 3.7495 15.72 13.599-0.0692 19.267-4.2934 1.5416-17.91-3.7857-17.493-11.056 0.60781-10.739 8.0923-12.79 17.562-8.212z" clip-rule="evenodd" fill="url(#_Radial4)" fill-rule="evenodd" stroke-linejoin="round" stroke-miterlimit="1.4142" stroke-width=".2827"/>
  <path d="m57 15c-9.9393 0-17 7.0595-17 17v192c0 9.9393 7.0595 17 17 17h142c9.9405 0 17-7.0607 17-17v-144l-65-64.998zm4.0332 4.9902 89.967 2e-3 60 60.009v139.75c0 9.4999-6.6575 16.248-16.033 16.248h-133.93c-9.3757 0-16.033-6.7481-16.033-16.248v-183.51c0-9.501 6.6586-16.25 16.033-16.25z" fill="url(#linearGradient14-5)" style="paint-order:markers fill stroke"/>
  <path d="m151 15.002v52.914c0 9.6525 7.8639 17.084 17.518 17.084l47.482-1.34e-4v-5z" fill="#282828" opacity=".3" stroke-width="1.0833"/>
  <path d="m151 15v47.916c0 9.6525 7.8639 17.084 17.518 17.084l47.482-1.34e-4z" fill="url(#linearGradient7-6)" stroke-width="1.0833"/>
</svg>
