<svg width="256" height="256" version="1.1" viewBox="0 0 256 256" xmlns="http://www.w3.org/2000/svg">
  <defs>
    <linearGradient id="linearGradient7-6-0" x1="186" x2="156" y1="45.006" y2="75.012" gradientTransform="matrix(1.0833,0,0,1.0833,-17.997,-1.2506)" gradientUnits="userSpaceOnUse">
      <stop stop-color="#83a598" offset="0"/>
      <stop stop-color="#458588" offset=".3027"/>
      <stop stop-color="#076678" offset="1"/>
    </linearGradient>
    <linearGradient id="linearGradient14-5" x1="128" x2="128" y1="15.001" y2="241" gradientTransform="translate(0,4.8e-4)" gradientUnits="userSpaceOnUse">
      <stop stop-color="#ebdbb2" stop-opacity=".15" offset="0"/>
      <stop stop-color="#ebdbb2" stop-opacity=".05" offset=".2"/>
      <stop stop-opacity="0" offset=".70405"/>
      <stop stop-opacity=".1" offset=".80473"/>
      <stop stop-opacity=".15" offset="1"/>
    </linearGradient>
    <linearGradient id="linearGradient15" x1="104" x2="104" y1="15.001" y2="241" gradientUnits="userSpaceOnUse">
      <stop stop-color="#458588" offset="0"/>
      <stop stop-color="#458588" offset="1"/>
    </linearGradient>
  </defs>
  <path d="m57 15c-9.9393 0-17 7.0595-17 17v192c0 9.9393 7.0595 17 17 17h142c9.9405 0 17-7.0607 17-17v-144l-64.999-64.999z" fill="url(#linearGradient15)" stroke-linecap="round" stroke-linejoin="round" stroke-miterlimit="0" style="paint-order:markers fill stroke"/>
  <path d="m57 241c-9.9393 0-17-7.0595-17-17v-43h176v43c0 9.9405-7.0607 17-17 17z" fill="#076678" opacity=".7" stroke-linecap="round" stroke-linejoin="round" stroke-miterlimit="0" style="paint-order:markers fill stroke"/>
  <path d="m89.76 204.32c-3.2392 3.3405-9.7476 11.606-13.68 18.16h14.12v5.24h-21.8v-3.72c1.9483-3.5487 7.1858-11.657 13.08-18.76h-12.44v-5.24h20.72zm9.6001 9.52c0 5.6626 2.883 8.96 7.36 8.96 4.8781 0 7.36-3.9271 7.36-8.96 0-4.9078-2.3872-9-7.36-9-4.1749 0-7.36 3.1092-7.36 9zm21.16 0c0 9.292-5.7804 14.44-13.8 14.44-7.1983 0-13.8-4.5179-13.8-14.44 0-9.2833 6.2024-14.48 13.8-14.48 7.6238 0 13.8 4.991 13.8 14.48zm10.44 0c0 5.6626 2.8829 8.96 7.36 8.96 4.8781 0 7.36-3.9271 7.36-8.96 0-4.9078-2.3872-9-7.36-9-4.1749 0-7.36 3.1092-7.36 9zm21.16 0c0 9.292-5.7804 14.44-13.8 14.44-7.1983 0-13.8-4.5179-13.8-14.44 0-9.2833 6.2024-14.48 13.8-14.48 7.6238 0 13.8 4.991 13.8 14.48zm12.56-13.84c2.8077 5.364 5.1623 10.948 7.52 16.52 2.3568-5.5724 4.6676-11.178 7.52-16.52h5.68c1.2019 9.1934 1.7322 18.464 2.2 27.72h-6.08c-0.20884-7.0309-0.45108-12.726-0.92-18.4-2.144 4.9499-4.2446 9.918-6.36 14.88h-4.36c-2.1341-4.9541-4.2337-9.9226-6.36-14.88-0.46892 5.6739-0.71116 11.369-0.92 18.4h-6.08c0.61669-12.642 1.2396-21.093 2.2-27.72z" fill="#282828" opacity=".2" aria-label="ZOOM"/>
  <path d="m89.76 201.32c-3.2392 3.3405-9.7476 11.606-13.68 18.16h14.12v5.24h-21.8v-3.72c1.9483-3.5487 7.1858-11.657 13.08-18.76h-12.44v-5.24h20.72zm9.6001 9.52c0 5.6626 2.8829 8.96 7.36 8.96 4.8781 0 7.36-3.9271 7.36-8.96 0-4.9078-2.3872-9-7.36-9-4.1749 0-7.36 3.1092-7.36 9zm21.16 0c0 9.292-5.7804 14.44-13.8 14.44-7.1983 0-13.8-4.5179-13.8-14.44 0-9.2833 6.2024-14.48 13.8-14.48 7.6238 0 13.8 4.991 13.8 14.48zm10.44 0c0 5.6626 2.8829 8.96 7.36 8.96 4.8781 0 7.36-3.9271 7.36-8.96 0-4.9078-2.3872-9-7.36-9-4.1749 0-7.36 3.1092-7.36 9zm21.16 0c0 9.292-5.7804 14.44-13.8 14.44-7.1983 0-13.8-4.5179-13.8-14.44 0-9.2833 6.2024-14.48 13.8-14.48 7.6238 0 13.8 4.991 13.8 14.48zm12.56-13.84c2.8077 5.364 5.1623 10.948 7.52 16.52 2.3568-5.5724 4.6676-11.178 7.52-16.52h5.68c1.2019 9.1934 1.7322 18.464 2.2 27.72h-6.08c-0.20884-7.0309-0.45108-12.726-0.92-18.4-2.144 4.9499-4.2446 9.918-6.36 14.88h-4.36c-2.1341-4.9541-4.2337-9.9226-6.36-14.88-0.46892 5.6739-0.71116 11.369-0.92 18.4h-6.08c0.61669-12.642 1.2396-21.093 2.2-27.72z" fill="#ebdbb2" aria-label="ZOOM"/>
  <path d="m106.72 196.36c-7.5976-1e-5 -13.801 5.1971-13.801 14.48 0 0.51971 0.0291 1.0157 0.0644 1.5059 0.63324-8.3412 6.5582-12.986 13.736-12.986 7.2174 0 13.128 4.48 13.738 13.008 0.0361-0.4973 0.0606-1.0035 0.0606-1.5274 0-9.489-6.175-14.48-13.799-14.48zm31.6 0c-7.5976-1e-5 -13.801 5.1971-13.801 14.48 0 0.51971 0.0291 1.0157 0.0644 1.5059 0.63324-8.3412 6.5582-12.986 13.736-12.986 7.2174 0 13.128 4.48 13.738 13.008 0.0361-0.4973 0.0605-1.0035 0.0605-1.5274 0-9.489-6.175-14.48-13.799-14.48zm-69.281 0.64062v3h20.721v-3zm89.682 0c-0.96038 6.6266-1.5845 15.078-2.2012 27.721h0.16016c0.56695-10.915 1.1631-18.663 2.041-24.721h5.959c2.8077 5.364 5.1618 10.948 7.5195 16.52 2.3568-5.5724 4.6691-11.177 7.5215-16.52h5.6797c1.0721 8.2003 1.6034 16.463 2.0391 24.721h0.16016c-0.46781-9.2559-0.99734-18.527-2.1992-27.721h-5.6797c-2.8524 5.3425-5.1647 10.947-7.5215 16.52-2.3577-5.5719-4.7119-11.156-7.5195-16.52zm-79.645 8.2402c-4.8758 6.2656-8.9978 12.703-10.676 15.76v3c1.9483-3.5487 7.1858-11.656 13.08-18.76zm34.908 7.0879c-0.45251 4.2931-2.8815 7.4727-7.2637 7.4727-4.0601 0-6.8025-2.7188-7.2793-7.4473-0.0481 0.4762-0.082 0.9666-0.082 1.4863 0 5.6626 2.8843 8.9609 7.3613 8.9609 4.8781 0 7.3594-3.928 7.3594-8.9609 0-0.51669-0.0426-1.0169-0.0957-1.5117zm31.602 0c-0.4525 4.2931-2.8834 7.4727-7.2656 7.4727-4.0613 0-6.8036-2.7203-7.2793-7.4512-0.0483 0.47737-0.0801 0.96909-0.0801 1.4902 0 5.6626 2.8823 8.9609 7.3594 8.9609 4.8781 0 7.3594-3.928 7.3594-8.9609 0-0.51668-0.0406-1.0169-0.0937-1.5117zm-67.602 7.1524c-0.67468 1.0218-1.3232 2.0316-1.9043 3h14.119v-3z" fill="#fbf1c7" opacity=".6"/>
  <path d="m57 15c-9.9393 0-17 7.0595-17 17v192c0 9.9393 7.0595 17 17 17h142c9.9405 0 17-7.0607 17-17v-144l-65-64.998zm4.0332 4.9902 89.967 2e-3 60 60.009v139.75c0 9.4999-6.6575 16.248-16.033 16.248h-133.93c-9.3757 0-16.033-6.7481-16.033-16.248v-183.51c0-9.501 6.6586-16.25 16.033-16.25z" fill="url(#linearGradient14-5)" style="paint-order:markers fill stroke"/>
  <path d="m70 86.763v53.611c0 8.1007 6.467 14.626 14.5 14.626h67.386v-53.611c0-8.1007-6.1828-14.626-14.22-14.626zm116 0-27.299 17.062v34.114l27.299 17.062z" fill="#282828" opacity=".2" stroke-width=".96666"/>
  <path d="m70 81.763v53.611c0 8.1007 6.467 14.626 14.5 14.626h67.386v-53.611c0-8.1007-6.1828-14.626-14.22-14.626zm116 0-27.299 17.062v34.114l27.299 17.062z" fill="#ebdbb2" stroke-width=".96666"/>
  <path d="m70 81.763v5h67.666c8.0369 0 14.221 6.5243 14.221 14.625v-5c0-8.1007-6.1838-14.625-14.221-14.625zm116 0-27.299 17.061v5l27.299-17.061z" fill="#fbf1c7" opacity=".6" stroke-width=".96666"/>
  <path d="m151 15.002v52.914c0 9.6525 7.8639 17.084 17.518 17.084l47.482-1.34e-4v-5z" fill="#282828" opacity=".3" stroke-width="1.0833"/>
  <path d="m151 15.001v47.916c0 9.6525 7.8639 17.084 17.518 17.084l47.482-1.34e-4z" fill="url(#linearGradient7-6-0)" stroke-width="1.0833"/>
</svg>
