<svg width="256" height="256" version="1.1" viewBox="0 0 256 256" xmlns="http://www.w3.org/2000/svg">
  <defs>
    <linearGradient id="linearGradient26" x1="-160" x2="-160" y2="226" gradientTransform="translate(267,15)" gradientUnits="userSpaceOnUse">
      <stop stop-color="#d65d0e" offset="0"/>
      <stop stop-color="#d65d0e" offset="1"/>
    </linearGradient>
    <linearGradient id="linearGradient7-6-0" x1="186" x2="156" y1="45.006" y2="75.012" gradientTransform="matrix(1.0833 0 0 1.0833 -17.998 -1.2506)" gradientUnits="userSpaceOnUse">
      <stop stop-color="#fe8019" offset="0"/>
      <stop stop-color="#d65d0e" offset=".3027"/>
      <stop stop-color="#af3a03" offset="1"/>
    </linearGradient>
    <linearGradient id="linearGradient14-5" x1="128" x2="128" y1="15.001" y2="241" gradientTransform="translate(0,4.8e-4)" gradientUnits="userSpaceOnUse">
      <stop stop-color="#ebdbb2" stop-opacity=".15" offset="0"/>
      <stop stop-color="#ebdbb2" stop-opacity=".05" offset=".2"/>
      <stop stop-opacity="0" offset=".70405"/>
      <stop stop-opacity=".05" offset=".80473"/>
      <stop stop-opacity=".1" offset="1"/>
    </linearGradient>
  </defs>
  <path d="m57 15c-9.9393 0-17 7.0595-17 17v192c0 9.9393 7.0595 17 17 17h142c9.9405 0 17-7.0607 17-17v-144l-64.999-64.999z" fill="url(#linearGradient26)" stroke-linecap="round" stroke-linejoin="round" stroke-miterlimit="0" style="paint-order:markers fill stroke"/>
  <path d="m57 241c-9.9393 0-17-7.0595-17-17v-43h176v43c0 9.9405-7.0607 17-17 17z" fill="#fe8019" opacity=".6" stroke-linecap="round" stroke-linejoin="round" stroke-miterlimit="0" style="paint-order:markers fill stroke"/>
  <path d="m105.16 214.68c-0.92365 0-2.5683 0.16413-3.44 0.6 0 0.10667-0.0133 0.26667-0.04 0.48 0 3.7455 0.58367 7.56 4.16 7.56 2.9318 0 3.76-2.9817 3.76-4.4 0-4.1643-3.2481-4.24-4.44-4.24zm0.76-4.64c6.0114 0 9.6 3.1381 9.6 8.8 0 3.9529-2.8132 9.44-9.64 9.44-7.7488 0-10.2-5.843-10.2-11.88 0-10.871 7.2126-16.497 17.68-16.6 0.10419 1.6268 0.21686 3.2531 0.32 4.88-5.5737 0.10929-9.7299 1.843-11.28 6.08 1.3407-0.6094 2.7046-0.72 3.52-0.72zm32.36 3.76c0 4.3824-0.97881 14.48-10 14.48-8.9192 0-10-9.753-10-14.48 0-10.794 5.091-14.44 10-14.44 9.1136 0 10 10.395 10 14.44zm-6.08 0c0-3.5601-0.30552-9.32-3.92-9.32-1.6035 0-3.92 0.95723-3.92 9.32 0 8.193 2.181 9.36 3.92 9.36 1.6261 0 3.92-0.94853 3.92-9.36zm27.28-6.52c0 0.9096-0.0273 3.8273-4.32 8.12-2.1765 2.4334-5.2168 4.3716-6.76 7.32h11.92v5h-18.48c-0.10889-0.68719-0.08-1.3866-0.08-2.08 0-1.28 0.2-2.4533 0.6-3.52 1.2631-3.2899 3.9315-5.5827 6.4-7.96 1.916-1.8667 4.3224-3.6566 4.64-6.48 0-2.6547-1.9104-3.2-3.48-3.2-3.0616 0-5.7219 2.6019-5.92 2.8l-2.96-4.16c1.3686-1.2753 4.6133-3.76 9.12-3.76 7.8006 0 9.32 4.4517 9.32 7.92z" fill="#ebdbb2" opacity=".2" aria-label="602I"/>
  <path d="m105.16 211.68c-0.92365 0-2.5683 0.16413-3.44 0.6 0 0.10667-0.0133 0.26667-0.04 0.48 0 3.7455 0.58367 7.56 4.16 7.56 2.9318 0 3.76-2.9817 3.76-4.4 0-4.1643-3.2481-4.24-4.44-4.24zm0.76-4.64c6.0114 0 9.6 3.1381 9.6 8.8 0 3.9529-2.8132 9.44-9.64 9.44-7.7488 0-10.2-5.843-10.2-11.88 0-10.871 7.2126-16.497 17.68-16.6 0.10419 1.6268 0.21686 3.2531 0.32 4.88-5.5737 0.10929-9.7299 1.843-11.28 6.08 1.3407-0.6094 2.7046-0.72 3.52-0.72zm32.36 3.76c0 4.3824-0.97881 14.48-10 14.48-8.9192 0-10-9.753-10-14.48 0-10.794 5.091-14.44 10-14.44 9.1136 0 10 10.395 10 14.44zm-6.08 0c0-3.5601-0.30552-9.32-3.92-9.32-1.6035 0-3.92 0.95723-3.92 9.32 0 8.193 2.181 9.36 3.92 9.36 1.6261 0 3.92-0.94853 3.92-9.36zm27.28-6.52c0 0.9096-0.0273 3.8273-4.32 8.12-2.1765 2.4334-5.2168 4.3716-6.76 7.32h11.92v5h-18.48c-0.10889-0.68719-0.08-1.3866-0.08-2.08 0-1.28 0.2-2.4533 0.6-3.52 1.2631-3.2899 3.9315-5.5827 6.4-7.96 1.916-1.8667 4.3224-3.6566 4.64-6.48 0-2.6547-1.9104-3.2-3.48-3.2-3.0616 0-5.7219 2.6019-5.92 2.8l-2.96-4.16c1.3686-1.2753 4.6133-3.76 9.12-3.76 7.8006 0 9.32 4.4517 9.32 7.92z" fill="#af3a03" aria-label="602I"/>
  <path d="m128.28 196.36c-4.909 0-10 3.6469-10 14.441 0 0.43105 0.0238 0.93993 0.0469 1.4434 0.4721-9.5813 5.2901-12.885 9.9531-12.885 8.1479 0 9.7115 8.2783 9.9531 12.93 0.026-0.53063 0.0469-1.0544 0.0469-1.4883 0-4.0448-0.88636-14.441-10-14.441zm21.881 0c-4.5067 0-7.7525 2.4844-9.1211 3.7598l1.3477 1.8926c1.7-1.2412 4.3774-2.6523 7.7734-2.6523 6.5936 0 8.6937 3.1809 9.1875 6.2598 0.11481-0.60502 0.13281-1.0705 0.13281-1.3398 0-3.4683-1.5197-7.9199-9.3203-7.9199zm-36.801 0.4414c-10.467 0.10261-17.68 5.729-17.68 16.6 0 0.48814 0.0231 0.97246 0.0566 1.4551 0.65851-9.8561 7.6647-14.957 17.623-15.055 0.0403 0.62909 0.0813 1.2577 0.12304 1.8867 0.0665-2e-3 0.13038-6e-3 0.19727-8e-3 -0.10314-1.6269-0.21612-3.2521-0.32031-4.8789zm39.705 9.2383c-0.7924 2.0758-2.7157 3.573-4.3047 5.1211-2.4685 2.3773-5.1373 4.669-6.4004 7.959-0.40001 1.0667-0.59961 2.2415-0.59961 3.5215 0 0.62935-0.0184 1.2631 0.0586 1.8887 0.0836-0.85491 0.25993-1.6606 0.54102-2.4102 1.2631-3.2899 3.9319-5.5816 6.4004-7.959 1.916-1.8667 4.323-3.6571 4.6406-6.4805 0-0.67552-0.12563-1.2125-0.33593-1.6406zm-47.145 1c-0.23494 0-0.52358 0.0153-0.83594 0.043-1.2025 0.92227-2.1178 2.1311-2.6836 3.6777 1.3407-0.6094 2.7042-0.72071 3.5195-0.72071 5.4146 0 8.853 2.5543 9.4844 7.1973 0.0742-0.4778 0.11522-0.94793 0.11522-1.3965 0-5.6619-3.5882-8.8008-9.5996-8.8008zm26.254 5.2363c-0.25556 7.0486-2.369 7.8848-3.8945 7.8848-1.6262 0-3.6384-1.0229-3.8926-7.8555-0.0177 0.47003-0.0273 0.96879-0.0273 1.4961 0 8.193 2.1809 9.3594 3.9199 9.3594 1.6261 0 3.9199-0.94791 3.9199-9.3594 0-0.47446-7e-3 -0.99163-0.0254-1.5254zm-30.371 2.9688c-0.0262 0.012-0.0571 0.0227-0.082 0.0352 0 0.10667-0.0143 0.26714-0.041 0.48047 0 3.7455 0.58382 7.5605 4.1602 7.5605 2.9318 0 3.7598-2.9821 3.7598-4.4004 0-0.62922-0.079-1.155-0.20899-1.6113-0.39161 1.4131-1.4037 3.0117-3.5508 3.0117-2.7733 0-3.7397-2.2994-4.0371-5.0762zm48.869 4.4766c-0.88674 0.90941-1.6864 1.8822-2.2715 3h11.92v-3z" fill="#282828" opacity=".2"/>
  <path d="m70 48v60h60v-60zm75 50v10h41v-10zm-75 20v10h116v-10zm0 20v10h116v-10zm0 20v10h116v-10z" fill="#ebdbb2" opacity=".1" style="paint-order:markers fill stroke"/>
  <path d="m70 45v60h60v-60zm75 50v10h41v-10zm-75 20v10h116v-10zm0 20v10h116v-10zm0 20v10h116v-10z" fill="#af3a03" style="paint-order:markers fill stroke"/>
  <path d="m70 45v3h60v-3zm75 50v3h41v-3zm-75 20v3h116v-3zm0 20v3h116v-3zm0 20v3h116v-3z" fill="#282828" opacity=".2" style="paint-order:markers fill stroke"/>
  <path d="m115 54c-5.5228 0-10 4.4772-10 10s4.4772 10 10 10 10-4.4772 10-10-4.4772-10-10-10zm-24 16-16 30h50l-13-20-7 10z" fill="#282828" opacity=".2" stroke-linecap="round" stroke-linejoin="round" stroke-miterlimit="0" stroke-width="1.5" style="paint-order:markers fill stroke"/>
  <path d="m115 52c-5.5228 0-10 4.4772-10 10s4.4772 10 10 10 10-4.4772 10-10-4.4772-10-10-10zm-24 16-16 30h50l-13-20-7 10z" fill="#d65d0e" stroke-linecap="round" stroke-linejoin="round" stroke-miterlimit="0" stroke-width="1.5" style="paint-order:markers fill stroke"/>
  <path d="m115 52c-5.5228 0-10 4.4772-10 10 0 0.3379 0.0161 0.67071 0.0488 1 0.50227-5.0528 4.7662-9 9.9512-9s9.4489 3.9472 9.9512 9c0.0328-0.32929 0.0489-0.6621 0.0489-1 0-5.5228-4.4772-10-10-10zm-24 16-16 30h1.0664l14.934-28 14 20 7-10 11.699 18h1.3008l-13-20-7 10z" fill="#ebdbb2" opacity=".1" stroke-linecap="round" stroke-linejoin="round" stroke-miterlimit="0" stroke-width="1.5" style="paint-order:markers fill stroke"/>
  <path d="m57 15c-9.9393 0-17 7.0595-17 17v192c0 9.9393 7.0595 17 17 17h142c9.9405 0 17-7.0607 17-17v-144l-65-64.998zm4.0332 4.9902 89.967 2e-3 60 60.009v139.75c0 9.4999-6.6575 16.248-16.033 16.248h-133.93c-9.3757 0-16.033-6.7481-16.033-16.248v-183.51c0-9.501 6.6586-16.25 16.033-16.25z" fill="url(#linearGradient14-5)" style="paint-order:markers fill stroke"/>
  <path d="m151 15.002v52.914c0 9.6525 7.8639 17.084 17.518 17.084l47.482-1.34e-4v-5z" fill="#282828" opacity=".3" stroke-width="1.0833"/>
  <path d="m151 15.001v47.916c0 9.6525 7.8639 17.084 17.518 17.084l47.482-1.34e-4z" fill="url(#linearGradient7-6-0)" stroke-width="1.0833"/>
</svg>
