<svg width="256" height="256" version="1.1" viewBox="0 0 256 256" xmlns="http://www.w3.org/2000/svg">
  <defs>
    <linearGradient id="linearGradient7-6-0-15" x1="186" x2="156" y1="45.006" y2="75.012" gradientTransform="matrix(1.0833,0,0,1.0833,-17.996,-1.2516)" gradientUnits="userSpaceOnUse">
      <stop stop-color="#8ec07c" offset="0"/>
      <stop stop-color="#689d6a" offset=".3027"/>
      <stop stop-color="#427b58" offset="1"/>
    </linearGradient>
    <linearGradient id="linearGradient26-2" x1="-160" x2="-160" y2="226" gradientTransform="translate(267,15)" gradientUnits="userSpaceOnUse">
      <stop stop-color="#689d6a" offset="0"/>
      <stop stop-color="#689d6a" offset="1"/>
    </linearGradient>
    <linearGradient id="linearGradient14-5-3" x1="128" x2="128" y1="15.001" y2="241" gradientTransform="translate(0,4.8e-4)" gradientUnits="userSpaceOnUse">
      <stop stop-color="#ebdbb2" stop-opacity=".2" offset="0"/>
      <stop stop-color="#ebdbb2" stop-opacity=".1" offset=".2"/>
      <stop stop-opacity="0" offset=".70405"/>
      <stop stop-opacity=".05" offset=".80473"/>
      <stop stop-opacity=".1" offset="1"/>
    </linearGradient>
  </defs>
  <path d="m57 15c-9.9393 0-17 7.0595-17 17v192c0 9.9393 7.0595 17 17 17h142c9.9405 0 17-7.0607 17-17v-144l-64.999-64.999z" fill="url(#linearGradient26-2)" stroke-linecap="round" stroke-linejoin="round" stroke-miterlimit="0" style="paint-order:markers fill stroke"/>
  <path d="m57 241c-9.9393 0-17-7.0595-17-17v-43h176v43c0 9.9405-7.0607 17-17 17z" fill="#8ec07c" opacity=".7" stroke-linecap="round" stroke-linejoin="round" stroke-miterlimit="0" style="paint-order:markers fill stroke"/>
  <path d="m100.02 199.68c12.379 0 12.84 6.5014 12.84 9.32 0 3.3294-0.85049 9.44-12.96 9.44h-1.96v9.28h-6.24v-27.32c3.0028-0.58878 6.4467-0.72 8.32-0.72zm0.4 5.32c-0.95141 0-1.8488 0.0674-2.48 0.12v8h1.96c5.6666 0 6.52-1.933 6.52-4.16 0-2.7192-1.8321-3.96-6-3.96zm25.36-5.32c12.379 0 12.84 6.5014 12.84 9.32 0 3.3294-0.85049 9.44-12.96 9.44h-1.96v9.28h-6.24v-27.32c3.0028-0.58878 6.4467-0.72 8.32-0.72zm0.4 5.32c-0.95141 0-1.8488 0.0674-2.48 0.12v8h1.96c5.6666 0 6.52-1.933 6.52-4.16 0-2.7192-1.8321-3.96-6-3.96zm38.12-5v5.32h-8.36v22.4h-6.24v-22.4h-8.36v-5.32z" fill="#ebdbb2" opacity=".15" aria-label="PPT"/>
  <path d="m100.02 196.68c12.379 0 12.84 6.5014 12.84 9.32 0 3.3294-0.85049 9.44-12.96 9.44h-1.96v9.28h-6.24v-27.32c3.0028-0.58878 6.4467-0.72 8.32-0.72zm0.4 5.32c-0.95141 0-1.8488 0.0674-2.48 0.12v8h1.96c5.6666 0 6.52-1.933 6.52-4.16 0-2.7192-1.8321-3.96-6-3.96zm25.36-5.32c12.379 0 12.84 6.5014 12.84 9.32 0 3.3294-0.85049 9.44-12.96 9.44h-1.96v9.28h-6.24v-27.32c3.0028-0.58878 6.4467-0.72 8.32-0.72zm0.4 5.32c-0.95141 0-1.8488 0.0674-2.48 0.12v8h1.96c5.6666 0 6.52-1.933 6.52-4.16 0-2.7192-1.8321-3.96-6-3.96zm38.12-5v5.32h-8.36v22.4h-6.24v-22.4h-8.36v-5.32z" fill="#427b58" aria-label="PPT"/>
  <path d="m100.02 196.68c-1.8733 0-5.3175 0.13192-8.3203 0.7207v3c3.0028-0.58878 6.447-0.7207 8.3203-0.7207 10.498 0 12.418 4.6705 12.762 7.8105 0.0574-0.53247 0.0781-1.0381 0.0781-1.4902 0-2.8186-0.46101-9.3203-12.84-9.3203zm25.76 0c-1.8733 0-5.3156 0.13192-8.3184 0.7207v3c3.0028-0.58878 6.445-0.7207 8.3184-0.7207 10.506 0 12.423 4.6783 12.764 7.8184 0.0581-0.53526 0.0762-1.0438 0.0762-1.498 0-2.8186-0.461-9.3203-12.84-9.3203zm15.561 0.32031v3h22.961v-3zm-35.139 10.531c-0.49968 1.4918-2.0347 2.5879-6.3008 2.5879h-1.9609v3h1.9609c5.6666 0 6.5195-1.9312 6.5195-4.1582 0-0.53289-0.0742-1.0086-0.21875-1.4297zm25.762 0c-0.49967 1.4918-2.0366 2.5879-6.3027 2.5879h-1.9609v3h1.9609c5.6666 0 6.5195-1.9312 6.5195-4.1582 0-0.53285-0.0723-1.0086-0.2168-1.4297z" fill="#282828" opacity=".2"/>
  <path d="m105 64.795v30.205h30.205c0-16.682-13.523-30.205-30.205-30.205zm-9.7945 9.9486c-16.682 0-30.205 13.523-30.205 30.205s13.523 30.205 30.205 30.205 30.205-13.523 30.205-30.205h-30.205zm49.795 0v15.257h46v-15.257zm0 30.205v15.051h46v-15.051zm-80 45.051v15.36h103.56v-15.36z" color="#ebdbb2" fill="#ebdbb2" opacity=".1" stroke-width="7.5514"/>
  <path d="m105 59.795v30.205h30.205c0-16.682-13.523-30.205-30.205-30.205zm-9.7945 9.9486c-16.682 0-30.205 13.523-30.205 30.205s13.523 30.205 30.205 30.205 30.205-13.523 30.205-30.205h-30.205zm49.795 0v15.257h46v-15.257zm0 30.205v15.051h46v-15.051zm-80 45.051v15.36h103.56v-15.36z" color="#ebdbb2" fill="#427b58" stroke-width="7.5514"/>
  <path d="m105 59.795v5c14.975 0 27.371 10.908 29.758 25.205h0.44727c0-16.682-13.523-30.205-30.205-30.205zm-9.7949 9.9473c-16.682 0-30.205 13.525-30.205 30.207 0 0.84413 0.05904 1.6734 0.12695 2.5 1.2734-15.51 14.24-27.707 30.078-27.707zm49.795 0v5h46v-5zm-49.795 30.207v5h29.758c0.27228-1.6303 0.44727-3.2924 0.44727-5zm49.795 0v5h46v-5zm-80 45.051v5h103.56v-5z" color="#ebdbb2" fill="#282828" opacity=".2" stroke-width="7.5514"/>
  <path d="m57 15c-9.9393 0-17 7.0595-17 17v192c0 9.9393 7.0595 17 17 17h142c9.9405 0 17-7.0607 17-17v-144l-65-64.998zm4.0332 4.9902 89.967 2e-3 60 60.009v139.75c0 9.4999-6.6575 16.248-16.033 16.248h-133.93c-9.3757 0-16.033-6.7481-16.033-16.248v-183.51c0-9.501 6.6586-16.25 16.033-16.25z" fill="url(#linearGradient14-5-3)" style="paint-order:markers fill stroke"/>
  <path d="m151 15.002v52.914c0 9.6525 7.8639 17.084 17.518 17.084l47.482-1.34e-4v-5z" fill="#282828" opacity=".2" stroke-width="1.0833"/>
  <path d="m151 15v47.916c0 9.6525 7.8639 17.084 17.518 17.084l47.482-1.34e-4z" fill="url(#linearGradient7-6-0-15)" stroke-width="1.0833"/>
</svg>
