<svg width="256" height="256" version="1.1" viewBox="0 0 256 256" xmlns="http://www.w3.org/2000/svg">
  <defs>
    <linearGradient id="linearGradient21" x1="128" x2="128" y1="15" y2="241" gradientTransform="translate(-9.75e-4,-9.75e-4)" gradientUnits="userSpaceOnUse">
      <stop stop-color="#ebdbb2" offset="0"/>
      <stop stop-color="#d5c4a1" offset="1"/>
    </linearGradient>
    <linearGradient id="linearGradient7-6-0" x1="186" x2="156" y1="45.006" y2="75.012" gradientTransform="matrix(1.0833,0,0,1.0833,-17.998,-1.2516)" gradientUnits="userSpaceOnUse">
      <stop stop-color="#fe8019" offset="0"/>
      <stop stop-color="#d65d0e" offset=".3027"/>
      <stop stop-color="#af3a03" offset="1"/>
    </linearGradient>
    <linearGradient id="linearGradient14-5" x1="128" x2="128" y1="15.001" y2="241" gradientTransform="translate(0,4.8e-4)" gradientUnits="userSpaceOnUse">
      <stop stop-color="#af3a03" stop-opacity=".095801" offset="0"/>
      <stop stop-color="#af3a03" stop-opacity=".045932" offset=".2"/>
      <stop stop-color="#af3a03" stop-opacity=".049869" offset=".70405"/>
      <stop stop-color="#282828" stop-opacity=".053806" offset=".80473"/>
      <stop stop-color="#282828" stop-opacity=".10499" offset="1"/>
    </linearGradient>
  </defs>
  <path d="m56.999 14.999c-9.9393 0-17 7.0595-17 17v149h176v-101l-64.998-64.998z" fill="url(#linearGradient21)" style="paint-order:markers fill stroke"/>
  <path d="m57 241c-9.9393 0-17-7.0595-17-17v-43h176v43c0 9.9405-7.0607 17-17 17z" fill="#d65d0e" stroke-linecap="round" stroke-linejoin="round" stroke-miterlimit="0" style="paint-order:markers fill stroke"/>
  <path d="m114.6 200v5.32h-8.36v22.4h-6.24v-22.4h-8.36v-5.32zm12.32-0.32c12.379 0 12.84 6.5014 12.84 9.32 0 3.3294-0.85049 9.44-12.96 9.44h-1.96v9.28h-6.24v-27.32c3.0028-0.58878 6.4467-0.72 8.32-0.72zm0.4 5.32c-0.95141 0-1.8488 0.0674-2.48 0.12v8h1.96c5.6666 0 6.52-1.933 6.52-4.16 0-2.7192-1.8321-3.96-6-3.96zm36.6-0.68c-3.2392 3.3405-9.7476 11.606-13.68 18.16h14.12v5.24h-21.8v-3.72c1.9483-3.5487 7.1858-11.657 13.08-18.76h-12.44v-5.24h20.72z" fill="#282828" opacity=".2" aria-label="TPZ"/>
  <path d="m114.6 197v5.32h-8.36v22.4h-6.24v-22.4h-8.36v-5.32zm12.32-0.32c12.379 0 12.84 6.5014 12.84 9.32 0 3.3294-0.85049 9.44-12.96 9.44h-1.96v9.28h-6.24v-27.32c3.0028-0.58878 6.4467-0.72 8.32-0.72zm0.4 5.32c-0.95141 0-1.8488 0.0674-2.48 0.12v8h1.96c5.6666 0 6.52-1.933 6.52-4.16 0-2.7192-1.8321-3.96-6-3.96zm36.6-0.68c-3.2392 3.3405-9.7476 11.606-13.68 18.16h14.12v5.24h-21.8v-3.72c1.9483-3.5487 7.1858-11.657 13.08-18.76h-12.44v-5.24h20.72z" fill="#ebdbb2" aria-label="TPZ"/>
  <path d="m126.92 196.68c-1.8733 0-5.3175 0.13192-8.3203 0.7207v3c3.0028-0.58878 6.447-0.7207 8.3203-0.7207 10.498 0 12.418 4.6705 12.762 7.8105 0.0574-0.53247 0.0781-1.0381 0.0781-1.4902 0-2.8186-0.46101-9.3203-12.84-9.3203zm-35.279 0.32031v3h22.959v-3zm51.559 0v3h20.721v-3zm10.035 8.2402c-4.8754 6.2652-8.996 12.704-10.674 15.76v3c1.9483-3.5487 7.1858-11.656 13.08-18.76zm-20.133 2.291c-0.49966 1.4918-2.0347 2.5879-6.3008 2.5879h-1.9609v3h1.9609c5.6666 0 6.5195-1.9312 6.5195-4.1582 0-0.53289-0.0742-1.0086-0.21875-1.4297zm19.043 11.949c-0.67472 1.0218-1.3232 2.0315-1.9043 3h14.119v-3z" fill="#fbf1c7" opacity=".6"/>
  <path class="ColorScheme-Text" d="m125.09 58.549-65.082 36.523 74.383 47.361 51.613-32.857v7.4238l-51.613 33.074-74.387-47.682v19.572l74.387 48.035 61.613-39.047v-27.744l-14.266-8.9824-45.262 28.092-14.682-9.3203 45.768-27.699-14.193-8.9395-46.273 27.309-14.66-9.3066 46.775-26.918z" color="#ebdbb2" fill="#ebdbb2" opacity=".6"/>
  <path class="ColorScheme-Text" d="m125.09 53.549-65.082 36.523 74.383 47.361 51.613-32.857v7.4238l-51.613 33.074-74.387-47.682v19.572l74.387 48.035 61.613-39.047v-27.744l-14.266-8.9824-45.262 28.092-14.682-9.3203 45.768-27.699-14.193-8.9395-46.273 27.309-14.66-9.3066 46.775-26.918-14.121-8.8945z" color="#ebdbb2" fill="#d65d0e"/>
  <path class="ColorScheme-Text" d="m125.09 53.549-65.082 36.523 4.1738 2.6582 60.908-34.182 9.9726 6.2812 4.1484-2.3867zm28.279 17.811-46.273 27.309-10.529-6.6836-4.1309 2.377 14.66 9.3066 46.273-27.309 10.145 6.3887 4.0488-2.4492zm28.369 17.867-45.262 28.092-10.65-6.7598-4.0312 2.4395 14.682 9.3203 45.262-28.092 14.266 8.9824v-5zm-121.73 8.166v5l74.387 47.682 51.613-33.074v-5l-51.613 33.074z" color="#ebdbb2" fill="#282828" opacity=".2"/>
  <path d="m57 15c-9.9393 0-17 7.0595-17 17v192c0 9.9393 7.0595 17 17 17h142c9.9405 0 17-7.0607 17-17v-144l-65-65zm4.0332 4.9902 89.967 0.01 60 60 2e-4 139.75c1e-5 9.4999-6.6575 16.248-16.033 16.248h-133.93c-9.3757 0-16.033-6.7481-16.033-16.248v-183.51c0-9.501 6.6586-16.25 16.033-16.25z" fill="url(#linearGradient14-5)" style="paint-order:markers fill stroke"/>
  <path d="m151 15.002v52.914c0 9.6525 7.8639 17.084 17.518 17.084l47.482-1.34e-4v-5z" fill="#282828" opacity=".2" stroke-width="1.0833"/>
  <path d="m151 15v47.916c0 9.6525 7.8639 17.084 17.518 17.084l47.482-1.34e-4z" fill="url(#linearGradient7-6-0)" stroke-width="1.0833"/>
</svg>
