<svg width="256" height="256" version="1.1" viewBox="0 0 256 256" xmlns="http://www.w3.org/2000/svg">
  <defs>
    <linearGradient id="linearGradient26" x1="-160" x2="-160" y2="226" gradientTransform="translate(267,15)" gradientUnits="userSpaceOnUse">
      <stop stop-color="#fb4934" offset="0"/>
      <stop stop-color="#9d0006" offset="1"/>
    </linearGradient>
    <linearGradient id="linearGradient14-5-5" x1="128" x2="128" y1="15.001" y2="241" gradientTransform="translate(0,4.822e-4)" gradientUnits="userSpaceOnUse">
      <stop stop-color="#ebdbb2" stop-opacity=".2" offset="0"/>
      <stop stop-color="#ebdbb2" stop-opacity=".1" offset=".2"/>
      <stop stop-opacity="0" offset=".70405"/>
      <stop stop-opacity=".05" offset=".80473"/>
      <stop stop-opacity=".1" offset="1"/>
    </linearGradient>
    <linearGradient id="linearGradient7-6-0-77" x1="186" x2="156" y1="45.006" y2="75.012" gradientTransform="matrix(1.0833,0,0,1.0833,-17.999,-1.2492)" gradientUnits="userSpaceOnUse">
      <stop stop-color="#fb4934" offset="0"/>
      <stop stop-color="#cc241d" offset=".3027"/>
      <stop stop-color="#9d0006" offset="1"/>
    </linearGradient>
  </defs>
  <path d="m57 15c-9.9393 0-17 7.0595-17 17v192c0 9.9393 7.0595 17 17 17h142c9.9405 0 17-7.0607 17-17v-144l-64.999-64.999z" fill="url(#linearGradient26)" stroke-linecap="round" stroke-linejoin="round" stroke-miterlimit="0" style="paint-order:markers fill stroke"/>
  <path d="m57 241c-9.9393 0-17-7.0595-17-17v-43h176v43c0 9.9405-7.0607 17-17 17z" color="#000000" color-rendering="auto" dominant-baseline="auto" fill="#fb4934" image-rendering="auto" opacity=".8" shape-rendering="auto" solid-color="#000000" stop-color="#000000" stroke-linecap="round" stroke-linejoin="round" stroke-miterlimit="0" style="-inkscape-stroke:none;font-feature-settings:normal;font-variant-alternates:normal;font-variant-caps:normal;font-variant-east-asian:normal;font-variant-ligatures:normal;font-variant-numeric:normal;font-variant-position:normal;font-variation-settings:normal;inline-size:0;isolation:auto;mix-blend-mode:normal;paint-order:markers fill stroke;shape-margin:0;shape-padding:0;text-decoration-color:#000000;text-decoration-line:none;text-decoration-style:solid;text-indent:0;text-orientation:mixed;text-transform:none;white-space:normal"/>
  <path d="m103.48 227.72c-1.9571-3.1686-6.1991-8.6704-10.12-11.72v11.72h-6.24v-27.72h6.24v10.48c3.2507-3.4103 6.335-6.9732 9.48-10.48h7.4c-2.2923 2.712-6.5669 7.6069-11.72 12.76 5.4224 4.5078 9.7838 10.787 12.36 14.96zm18.36-27.72c2.8077 5.364 5.1623 10.948 7.52 16.52 2.3568-5.5724 4.6676-11.178 7.52-16.52h5.68c1.2019 9.1934 1.7322 18.464 2.2 27.72h-6.08c-0.20884-7.031-0.45109-12.726-0.92-18.4-2.144 4.9499-4.2446 9.918-6.36 14.88h-4.36c-2.1341-4.9541-4.2337-9.9226-6.36-14.88-0.46891 5.6738-0.71116 11.369-0.92 18.4h-6.08c0.61672-12.642 1.2396-21.093 2.2-27.72zm47.04 22.36v5.36h-18.52v-27.72h6.24v22.36z" fill="#ebdbb2" opacity=".15" aria-label="KML"/>
  <path d="m103.48 224.72c-1.9571-3.1686-6.1991-8.6704-10.12-11.72v11.72h-6.24v-27.72h6.24v10.48c3.2507-3.4103 6.335-6.9732 9.48-10.48h7.4c-2.2923 2.712-6.5669 7.6069-11.72 12.76 5.4224 4.5078 9.7838 10.787 12.36 14.96zm18.36-27.72c2.8077 5.364 5.1623 10.948 7.52 16.52 2.3568-5.5724 4.6676-11.178 7.52-16.52h5.68c1.2019 9.1934 1.7322 18.464 2.2 27.72h-6.08c-0.20884-7.031-0.45109-12.726-0.92-18.4-2.144 4.9499-4.2446 9.918-6.36 14.88h-4.36c-2.1341-4.9541-4.2337-9.9226-6.36-14.88-0.46891 5.6738-0.71116 11.369-0.92 18.4h-6.08c0.61672-12.642 1.2396-21.093 2.2-27.72zm47.04 22.36v5.36h-18.52v-27.72h6.24v22.36z" fill="#9d0006" aria-label="KML"/>
  <path d="m87.119 197v3h6.2402v-3zm15.721 0c-3.145 3.5068-6.2298 7.0702-9.4805 10.48v3c3.2507-3.4103 6.3355-6.9737 9.4805-10.48h4.8047c1.0061-1.1451 1.9125-2.1917 2.5957-3zm13.041 0c-0.9604 6.6267-1.5844 15.078-2.2012 27.721h0.16015c0.56697-10.915 1.1631-18.663 2.041-24.721h5.959c2.8077 5.364 5.1618 10.948 7.5195 16.52 2.3568-5.5724 4.6691-11.177 7.5215-16.52h5.6797c1.0721 8.2003 1.6034 16.463 2.0391 24.721h0.16016c-0.46782-9.2559-0.99733-18.527-2.1992-27.721h-5.6797c-2.8524 5.3425-5.1647 10.947-7.5215 16.52-2.3578-5.5719-4.7119-11.156-7.5195-16.52zm34.479 0v3h6.2402v-3zm-50.27 14.146c-0.52784 0.54095-1.0212 1.0642-1.5703 1.6133 4.2411 3.5257 7.8196 8.1233 10.416 11.961h1.9453c-2.322-3.7609-6.0988-9.2302-10.791-13.574zm56.51 8.2129v3h12.281v-3z" fill="#282828" opacity=".2"/>
  <path d="m57 19.729c-4.377 0-9.4396 0.12559-13.432 1.416-1.7794 2.2583-2.9691 5.0356-3.3931 8.1943l78.141 78.108-73.586 73.553h31.121l58.025-58 58.025 58h24.098v-7.0176l-154.32-154.25z" fill="#ebdbb2" opacity=".1" style="paint-order:markers fill stroke"/>
  <path d="m57 15c-7.6123 0-13.535 4.1374-15.891 10.542l77.208 77.177-78.316 78.281h31.121l62.756-62.729 62.756 62.729h19.367v-11.746l-154.32-154.25z" fill="#9d0006" style="paint-order:markers fill stroke"/>
  <path d="m57 15 159 158.98v-4.7285l-154.32-154.25zm58.951 90.082-75.951 75.918h4.7305l73.586-73.553z" fill="#282828" opacity=".2" style="paint-order:markers fill stroke"/>
  <path d="m95.48 39.945c-22.098 1e-3 -40.012 17.592-40.012 39.291 0 1.3561 0.11395 2.607 0.25 3.9277 0.10964 1.3144 0.28633 2.6423 0.5 3.9297 4.5816 27.616 23.259 47.177 39.264 62.893 16.005-15.716 34.68-35.273 39.262-62.893 0.21367-1.2874 0.39036-2.6152 0.5-3.9297 0.13684-1.3208 0.25-2.5716 0.25-3.9277 0-21.699-17.914-39.29-40.012-39.291zm2e-3 20.008c9.2078 0 16.672 7.4641 16.672 16.672 0 9.2078-7.4641 16.672-16.672 16.672-9.2078 0-16.674-7.4641-16.674-16.672 0-9.2078 7.466-16.672 16.674-16.672z" fill="#282828" opacity=".2" stroke-width="3.3345"/>
  <path d="m95.481 34.765c-22.098 1e-3 -40.012 17.592-40.012 39.291 0 1.3561 0.11395 2.607 0.25 3.9277 0.10964 1.3144 0.28633 2.6423 0.5 3.9297 4.5816 27.616 23.259 47.177 39.264 62.893 16.005-15.716 34.68-35.273 39.262-62.893 0.21367-1.2874 0.39036-2.6152 0.5-3.9297 0.13684-1.3208 0.25-2.5716 0.25-3.9277 0-21.699-17.914-39.29-40.012-39.291zm2e-3 20.008c9.2078 0 16.672 7.4641 16.672 16.672 0 9.2078-7.4641 16.672-16.672 16.672-9.2078 0-16.674-7.4641-16.674-16.672 0-9.2078 7.466-16.672 16.674-16.672z" fill="#fb4934" stroke-width="3.3345"/>
  <path d="m95.482 34.765c-22.098 1e-3 -40.012 17.592-40.012 39.291 0 0.82007 0.04839 1.6046 0.11133 2.3867 1.4598-20.395 18.759-36.497 39.9-36.498h2e-3c21.144 9.97e-4 38.447 16.109 39.902 36.508 0.0633-0.78529 0.10937-1.5731 0.10937-2.3965 0-21.699-17.914-39.29-40.012-39.291z" fill="#ebdbb2" opacity=".15" stroke-width="3.3345"/>
  <path d="m57 15c-9.9393 0-17 7.0595-17 17v192c0 9.9393 7.0595 17 17 17h142c9.9405 0 17-7.0607 17-17v-144l-65-64.998zm4.0332 4.9902 89.967 2e-3 60 60.009v139.75c0 9.4999-6.6575 16.248-16.033 16.248h-133.93c-9.3757 0-16.033-6.7481-16.033-16.248v-183.51c0-9.501 6.6586-16.25 16.033-16.25z" fill="url(#linearGradient14-5-5)" style="paint-order:markers fill stroke"/>
  <path d="m151 15.002v52.914c0 9.6525 7.8639 17.084 17.518 17.084l47.482-1.34e-4v-5z" fill="#282828" opacity=".3" stroke-width="1.0833"/>
  <path d="m151 15.002v47.916c0 9.6525 7.8639 17.084 17.518 17.084l47.482-1.34e-4z" fill="url(#linearGradient7-6-0-77)" stroke-width="1.0833"/>
</svg>
