<svg width="256" height="256" fill="none" version="1.1" viewBox="0 0 256 256" xmlns="http://www.w3.org/2000/svg">
  <path d="m55.08 15h100.5l60.4 60.15 2e-3 148.9c0 8.911-7.262 16.13-16.17 16.13h-144.8c-8.91 0-16.08-7.174-16.08-16.08v-193c0-8.91 7.173-16.08 16.08-16.08h1e-4z" fill="#ebdbb2"/>
  <path d="m155.6 20.32h-100.5c-5.973 0-10.76 4.792-10.76 10.76v193c0 5.973 4.792 10.76 10.76 10.76h144.8c5.992 0 10.85-4.856 10.85-10.81v-148.9l-55.08-54.83zm0-5.319h-100.5c-8.91 0-16.08 7.173-16.08 16.08v193c0 8.91 7.173 16.08 16.08 16.08h144.8c8.911 0 16.17-7.218 16.17-16.13l-2e-3 -148.9-60.4-60.15z" clip-rule="evenodd" fill="url(#paint0_linear)" fill-rule="evenodd"/>
  <path d="m106.9 138c3.654-7.324 7.807-15.58 11.13-23.86l1.316-3.271c-4.343-16.9-6.945-30.46-4.621-39.23 0.624-2.289 3.215-3.674 5.982-3.674l1.687 0.0248h0.311c3.786-0.0602 5.57 4.872 5.774 6.789 0.333 3.189-1.108 8.596-1.108 8.596 0-2.183 0.083-5.708-1.264-8.752-1.566-3.518-3.066-5.623-4.406-5.953-0.679 0.4606-1.337 1.417-1.559 3.26-0.471 2.587-0.609 5.854-0.609 7.533 0 5.946 1.143 13.79 3.394 21.88 0.423-1.251 0.797-2.456 1.091-3.582 0.461-1.779 3.394-13.55 3.394-13.55s-0.741 15.68-1.773 20.42c-0.218 1.002-0.464 1.991-0.717 3.008 3.706 10.59 9.681 20.06 16.81 26.86 2.805 2.686 6.359 4.854 9.715 6.828 7.336-1.074 14.09-1.577 19.72-1.513 7.475 0.099 12.96 1.229 15.18 3.472 1.088 1.084 1.531 2.399 1.67 3.873 0.031 0.574-0.243 1.92-0.323 2.257 0.08-0.407 0.08-2.42-5.922-4.38-4.725-1.544-13.57-1.498-24.18-0.343 12.28 6.144 24.24 9.198 28.03 7.37 0.925-0.461 2.051-2.038 2.051-2.038s-0.669 3.104-1.15 3.88c-0.755 0.981-1.785 1.702-2.951 2.066-5.985 1.63-21.56-2.147-35.15-10.09-15.17 2.286-31.84 6.509-45.2 10.99-13.13 23.54-23 34.35-31.03 30.24l-2.951-1.517c-1.202-0.705-1.385-2.409-1.108-3.805 0.9352-4.685 6.681-11.74 18.22-18.79 1.24-0.769 6.771-3.763 6.771-3.763s-4.094 4.057-5.057 4.854c-9.206 7.718-16 17.43-15.83 21.19l0.0312 0.33c7.821-1.138 19.55-17.43 34.63-47.61v-4e-3zm4.78 2.506c-2.518 4.854-4.981 9.354-7.253 13.48 12.57-5.386 26.1-8.837 38.99-11.29-1.732-1.222-3.411-2.515-4.994-3.887-7.094-6.144-12.5-13.81-16.42-21.87-2.906 8.087-6.353 15.96-10.32 23.56" fill="url(#paint1_linear)"/>
  <path d="m155.6 17v44.23c0 8.91 7.259 15.93 16.17 15.93l44.23-0.0112v-2l-60.4-58.15z" fill="#282828" opacity=".25"/>
  <path d="m155.6 15v44.23c0 8.91 7.259 15.93 16.17 15.93l44.23-0.0112-60.4-60.15z" fill="url(#paint2_linear)"/>
  <defs>
    <linearGradient id="paint0_linear" x1="39" x2="39" y1="15" y2="240.2" gradientUnits="userSpaceOnUse">
      <stop stop-color="#fb4934" offset="1e-7"/>
      <stop stop-color="#cc241d" offset="1"/>
    </linearGradient>
    <linearGradient id="paint1_linear" x1="68" x2="68" y1="68" y2="188" gradientUnits="userSpaceOnUse">
      <stop stop-color="#fb4934" offset="1e-7"/>
      <stop stop-color="#cc241d" offset="1"/>
    </linearGradient>
    <linearGradient id="paint2_linear" x1="155.6" x2="155.6" y1="15" y2="75.16" gradientUnits="userSpaceOnUse">
      <stop stop-color="#fb4934" offset="1e-7"/>
      <stop stop-color="#cc241d" offset="1"/>
    </linearGradient>
  </defs>
</svg>
