<svg width="256" height="256" fill="none" version="1.1" viewBox="0 0 256 256" xmlns="http://www.w3.org/2000/svg">
  <path d="m99.4 15h-44.32c-8.91 0-16.08 7.173-16.08 16.08v193c0 8.91 7.173 16.08 16.08 16.08h144.8c8.911 0 16.08-7.174 16.08-16.08v-193c0-8.91-7.173-16.08-16.08-16.08h-44.32z" clip-rule="evenodd" fill="url(#paint0_radial)" fill-rule="evenodd"/>
  <path d="m39 33v13.22h17.7v-13.22h-17.7zm159.3 0v13.22h17.7v-13.22h-17.7zm-159.3 19v13.22h17.7v-13.22h-17.7zm159.3 0v13.22h17.7v-13.22h-17.7zm-159.3 19.83v13.22h17.7v-13.22h-17.7zm159.3 0v13.22h17.7v-13.22h-17.7zm-104.3 11.18v90s42.65-18.45 79.95-45.03c0-7e-3 -0.00377-0.01539-0.00977-0.02539-4e-3 -0.011-0.01058-0.0203-0.01758-0.0293l-0.01757-0.02735c-6e-3 -0.00799-0.00877-0.01929-0.00977-0.02929-39.34-27.43-79.9-44.86-79.9-44.86zm-55.03 8.65v13.22h17.7v-13.22h-17.7zm159.3 0v13.22h17.7v-13.22h-17.7zm-159.3 19.83v13.22h17.7v-13.22h-17.7zm159.3 0v13.22h17.7v-13.22h-17.7zm-141.6 19.82-17.7 0.00196v13.21h17.7v-13.22zm159.3 0-17.7 0.00196v13.21h17.7v-13.22zm-177 19.83v13.22h17.7v-13.22h-17.7zm159.3 0v13.22h17.7v-13.22h-17.7zm-159.3 19.82v13.22h17.7v-13.22h-17.7zm159.3 0v13.22h17.7v-13.22h-17.7zm-159.3 19.83v13.22h17.7v-13.22h-17.7zm159.3 0v13.22h17.7v-13.22h-17.7zm-159.3 19v13.22h17.7v-13.22h-17.7zm159.3 0v13.22h17.7v-13.22h-17.7z" fill="#ebdbb2" opacity=".5"/>
  <defs>
    <radialGradient id="paint0_radial" cx="0" cy="0" r="1" gradientTransform="translate(99.34 35.47) scale(140.8 102.5)" gradientUnits="userSpaceOnUse">
      <stop stop-color="#83a598" offset="0"/>
      <stop stop-color="#458588" offset="1"/>
    </radialGradient>
  </defs>
</svg>
