<svg width="256" height="256" fill="none" version="1.1" viewBox="0 0 256 256" xmlns="http://www.w3.org/2000/svg">
  <path d="m55.08 15h100.5l60.4 60.15 2e-3 148.9c0 8.911-7.262 16.13-16.17 16.13h-144.8c-8.91 0-16.08-7.174-16.08-16.08v-193c0-8.91 7.173-16.08 16.08-16.08h1e-4z" fill="#ebdbb2"/>
  <path d="m155.6 22.98h-100.5c-4.504 0-8.105 3.601-8.105 8.105v193c0 4.504 3.601 8.105 8.105 8.105h144.8c4.533 0 8.194-3.674 8.194-8.149v-148.9l-52.42-52.17zm-1e-3 -7.979h-100.5c-8.91 0-16.08 7.173-16.08 16.08v193c0 8.91 7.173 16.08 16.08 16.08h144.8c8.911 0 16.17-7.218 16.17-16.13l-2e-3 -148.9-60.4-60.15z" clip-rule="evenodd" fill="url(#paint0_linear)" fill-rule="evenodd"/>
  <path d="m128 74c-29.84 0-54 24.19-54 53.99 0 29.82 24.16 54 54 54s54-24.19 54-54c0-29.79-24.16-53.99-54-53.99zm0 40.5c6.75 0 13.5 6.75 13.5 13.5 0 8.134-6.75 13.5-13.5 13.5s-13.5-6.75-13.5-13.5 6.75-13.5 13.5-13.5z" fill="url(#paint1_linear)"/>
  <path d="m155.6 17v44.23c0 8.91 7.259 15.93 16.17 15.93l44.23-0.0112v-2l-60.4-58.15z" fill="#282828" opacity=".25"/>
  <path d="m155.6 15v44.23c0 8.91 7.259 15.93 16.17 15.93l44.23-0.0112-60.4-60.15z" fill="url(#paint2_linear)"/>
  <defs>
    <linearGradient id="paint0_linear" x1="39" x2="39" y1="15" y2="240.2" gradientUnits="userSpaceOnUse">
      <stop stop-color="#bdae93" offset="1e-7"/>
      <stop stop-color="#928374" offset="1"/>
    </linearGradient>
    <linearGradient id="paint1_linear" x1="74" x2="74" y1="74" y2="182" gradientUnits="userSpaceOnUse">
      <stop stop-color="#bdae93" offset="1e-7"/>
      <stop stop-color="#928374" offset="1"/>
    </linearGradient>
    <linearGradient id="paint2_linear" x1="155.6" x2="155.6" y1="15" y2="75.16" gradientUnits="userSpaceOnUse">
      <stop stop-color="#bdae93" offset="1e-7"/>
      <stop stop-color="#928374" offset="1"/>
    </linearGradient>
  </defs>
</svg>
