<svg width="256" height="256" version="1.1" viewBox="0 0 256 256" xmlns="http://www.w3.org/2000/svg">
  <defs>
    <linearGradient id="linearGradient7-6-0" x1="186" x2="156" y1="45.006" y2="75.012" gradientTransform="matrix(1.0833 0 0 1.0833 -17.999 -1.2506)" gradientUnits="userSpaceOnUse">
      <stop stop-color="#fe8019" offset="0"/>
      <stop stop-color="#d65d0e" offset=".3027"/>
      <stop stop-color="#af3a03" offset="1"/>
    </linearGradient>
    <linearGradient id="linearGradient21" x1="128" x2="128" y1="15" y2="241" gradientTransform="translate(-9.75e-4,-4.2e-5)" gradientUnits="userSpaceOnUse">
      <stop stop-color="#ebdbb2" offset="0"/>
      <stop stop-color="#d5c4a1" offset="1"/>
    </linearGradient>
    <linearGradient id="linearGradient14-5" x1="128" x2="128" y1="15.001" y2="241" gradientTransform="translate(0,4.8e-4)" gradientUnits="userSpaceOnUse">
      <stop stop-color="#af3a03" stop-opacity=".095801" offset="0"/>
      <stop stop-color="#af3a03" stop-opacity=".045932" offset=".2"/>
      <stop stop-color="#af3a03" stop-opacity=".049869" offset=".70405"/>
      <stop stop-color="#282828" stop-opacity=".053806" offset=".80473"/>
      <stop stop-color="#282828" stop-opacity=".10499" offset="1"/>
    </linearGradient>
  </defs>
  <path d="m56.999 15c-9.9393 0-17 7.0595-17 17v149h176v-101l-64.998-64.998z" fill="url(#linearGradient21)" style="paint-order:markers fill stroke"/>
  <path d="m57 241c-9.9393 0-17-7.0595-17-17v-43h176v43c0 9.9405-7.0607 17-17 17z" fill="#d65d0e" stroke-linecap="round" stroke-linejoin="round" stroke-miterlimit="0" style="paint-order:markers fill stroke"/>
  <path d="m79.3 213.84c0 5.6626 2.8829 8.96 7.36 8.96 4.8781 0 7.36-3.9271 7.36-8.96 0-4.9078-2.3872-9-7.36-9-4.1749 0-7.36 3.1092-7.36 9zm21.16 0c0 9.292-5.7805 14.44-13.8 14.44-7.1983 0-13.8-4.5179-13.8-14.44 0-9.2833 6.2024-14.48 13.8-14.48 7.6238 0 13.8 4.991 13.8 14.48zm12.44 13.88c-3.114-6.6077-7.5036-17.111-11.04-27.72h6.88c1.7591 5.465 5.5913 16.476 7.28 20.36 1.2872-3.1163 3.8779-10.154 7.28-20.36h6.64c-4.6873 13.451-7.8313 20.911-11.04 27.72zm28.96-28.04c12.379 0 12.84 6.5014 12.84 9.32 0 3.3294-0.85048 9.44-12.96 9.44h-1.96v9.28h-6.24v-27.32c3.0027-0.58877 6.4466-0.72 8.32-0.72zm0.4 5.32c-0.96851 0-1.8853 0.0704-2.48 0.12v8h1.96c5.6666 0 6.52-1.933 6.52-4.16 0-2.7192-1.8321-3.96-6-3.96zm35.64 22.72c-3.2367-5.7487-7.4259-12.291-12.44-18.16v18.16h-6.16v-27.72h5.08c4.3447 4.3447 10.344 13.037 12.56 16.36v-16.36h6.2v27.72z" fill="#282828" opacity=".2" aria-label="OVPN"/>
  <path d="m79.3 210.84c0 5.6626 2.8829 8.96 7.36 8.96 4.8781 0 7.36-3.9271 7.36-8.96 0-4.9078-2.3872-9-7.36-9-4.1749 0-7.36 3.1092-7.36 9zm21.16 0c0 9.292-5.7805 14.44-13.8 14.44-7.1983 0-13.8-4.5179-13.8-14.44 0-9.2833 6.2024-14.48 13.8-14.48 7.6238 0 13.8 4.991 13.8 14.48zm12.44 13.88c-3.114-6.6077-7.5036-17.111-11.04-27.72h6.88c1.7591 5.465 5.5913 16.476 7.28 20.36 1.2872-3.1163 3.8779-10.154 7.28-20.36h6.64c-4.6873 13.451-7.8313 20.911-11.04 27.72zm28.96-28.04c12.379 0 12.84 6.5014 12.84 9.32 0 3.3294-0.85048 9.44-12.96 9.44h-1.96v9.28h-6.24v-27.32c3.0027-0.58877 6.4466-0.72 8.32-0.72zm0.4 5.32c-0.96851 0-1.8853 0.0704-2.48 0.12v8h1.96c5.6666 0 6.52-1.933 6.52-4.16 0-2.7192-1.8321-3.96-6-3.96zm35.64 22.72c-3.2367-5.7487-7.4259-12.291-12.44-18.16v18.16h-6.16v-27.72h5.08c4.3447 4.3447 10.344 13.037 12.56 16.36v-16.36h6.2v27.72z" fill="#ebdbb2" aria-label="OVPN"/>
  <path d="m86.66 196.36c-7.5976-1e-5 -13.801 5.1971-13.801 14.48 0 0.51971 0.02909 1.0157 0.06445 1.5059 0.63324-8.3412 6.5582-12.986 13.736-12.986 7.2174 0 13.128 4.48 13.738 13.008 0.0361-0.49731 0.0625-1.0035 0.0625-1.5274 0-9.489-6.177-14.48-13.801-14.48zm55.199 0.32031c-1.8734 0-5.3157 0.13193-8.3184 0.7207v3c3.0027-0.58877 6.445-0.7207 8.3184-0.7207 10.506 0 12.423 4.6783 12.764 7.8184 0.0581-0.53526 0.0762-1.0438 0.0762-1.498 0-2.8186-0.46101-9.3203-12.84-9.3203zm-40 0.32031c0.33432 1.003 0.68347 2.0021 1.0312 3h5.8496c1.7591 5.465 5.5906 16.475 7.2793 20.359 1.2872-3.1163 3.8792-10.153 7.2812-20.359h5.5606c0.36823-1.0356 0.6896-1.8851 1.0781-3h-6.6387c-3.4021 10.206-5.9941 17.243-7.2812 20.359-1.6887-3.884-5.5202-14.894-7.2793-20.359zm57.441 0v3h5.0801c4.3447 4.3447 10.343 13.036 12.559 16.359v-3c-2.2156-3.3235-8.2139-12.015-12.559-16.359zm17.639 0v3h6.2012v-3zm-28.91 10.568c-0.51289 1.4727-2.0588 2.5508-6.2891 2.5508h-1.9609v3h1.9609c5.6666 0 6.5195-1.9312 6.5195-4.1582 0-0.52379-0.0909-0.97681-0.23047-1.3926zm-54.094 4.7695c-0.45369 4.2909-2.8946 7.4629-7.2754 7.4629-4.061 0-6.8033-2.7209-7.2793-7.4512-0.04834 0.47737-0.08008 0.96909-0.08008 1.4902 0 5.6626 2.8823 8.9609 7.3594 8.9609 4.8781 0 7.3594-3.928 7.3594-8.9609 0-0.51192-0.03181-1.0115-0.08398-1.502z" fill="#fbf1c7" opacity=".6"/>
  <path d="m128.01 50c-34.758 0-63.031 27.455-63.031 61.318 0 22.473 12.407 42.028 30.895 52.562l3.9668-26.213c-6.1546-6.6312-9.594-15.278-9.6543-24.266 0-20.112 16.827-36.473 37.51-36.473 20.679 0 37.514 16.361 37.514 36.477 5e-3 9.0788-3.4242 17.833-9.6172 24.553l3.998 26.213c18.891-10.545 31.439-30.373 31.439-52.844l-2e-3 -0.01c0-33.836-28.261-61.318-63.018-61.318zm-0.28321 42.023c-11.174 0-19.998 8.7362-19.998 19.588 0 4.0089 1.2489 7.9194 3.5742 11.178a19.099 18.828 0 0 0 9.3926 6.9844l-7.8594 40.227h29.508l-7.5879-40.227c7.5836-2.91 12.969-9.709 12.969-18.166l4e-3 4e-3c0-10.818-8.8322-19.588-20.002-19.588z" fill="#ebdbb2" opacity=".8" stroke-width="3.8162"/>
  <path d="m147.72 106.61c0-10.818-8.8326-19.589-20.002-19.589-11.174 0-19.998 8.7375-19.998 19.589 0 4.0089 1.2492 7.9192 3.5746 11.178a19.099 18.828 0 0 0 9.3937 6.9831l-7.8603 40.227h29.508l-7.5872-40.227c7.5836-2.91 12.969-9.7075 12.969-18.164z" fill="#076678" stroke-width="3.8162"/>
  <path d="m191.02 106.32c0-33.836-28.262-61.318-63.019-61.318-34.758 0-63.03 27.455-63.03 61.318 0 22.473 12.407 42.028 30.895 52.562l3.9667-26.213c-6.1546-6.6312-9.595-15.277-9.6553-24.265 0-20.112 16.827-36.473 37.51-36.473 20.679 0 37.514 16.361 37.514 36.477 5e-3 9.0788-3.4236 17.833-9.6166 24.553l3.9972 26.213c18.891-10.545 31.441-30.373 31.441-52.844" fill="#d65d0e" stroke-width="3.8162"/>
  <path d="m128 45c-34.758 0-63.029 27.455-63.029 61.318 0 0.72164 0.048842 1.4311 0.074219 2.1465 1.5364-32.537 29.18-58.465 62.955-58.465 33.787 0 61.429 25.973 62.945 58.504 0.02635-0.72529 0.07617-1.4447 0.07617-2.1758l-0.00195-0.00976c0-33.836-28.263-61.318-63.02-61.318zm-0.28125 42.023c-11.174 0-20 8.7362-20 19.588 0 0.84109 0.06728 1.6746 0.17578 2.502 1.2362-9.6605 9.5246-17.09 19.824-17.09 10.291-1e-6 18.58 7.4519 19.822 17.084 0.10634-0.81714 0.17578-1.6468 0.17578-2.5l0.00391 0.00391c0-10.818-8.8322-19.588-20.002-19.588zm-37.424 23.602c-0.071459 0.91763-0.11914 1.8422-0.11914 2.7773 0.058118 8.6566 3.2793 16.978 9.0137 23.506l0.64258-4.2402c-5.6441-6.0812-8.9716-13.863-9.5371-22.043zm74.797 0.13477c-0.53588 8.2264-3.853 16.064-9.5078 22.199l0.64453 4.2305c5.7682-6.6143 8.9775-15.039 8.9727-23.783 0-0.89081-0.04448-1.7715-0.10938-2.6465zm-45.301 18.6-6.9629 35.641h0.97656l6.8828-35.227a19.099 18.828 0 0 1-0.89649-0.41406zm15.83 0.04492c-0.2898 0.12563-0.57633 0.25528-0.87305 0.36914l6.6445 35.227h0.94336l-6.7148-35.596z" fill="#282828" opacity=".2" stroke-width="3.8162"/>
  <path d="m57 15c-9.9393 0-17 7.0595-17 17v192c0 9.9393 7.0595 17 17 17h142c9.9405 0 17-7.0607 17-17v-144l-65-65zm4.0332 4.9902 89.967 0.01 60 60 2e-4 139.75c1e-5 9.4999-6.6575 16.248-16.033 16.248h-133.93c-9.3757 0-16.033-6.7481-16.033-16.248v-183.51c0-9.501 6.6586-16.25 16.033-16.25z" fill="url(#linearGradient14-5)" style="paint-order:markers fill stroke"/>
  <path d="m151 15.002v52.914c0 9.6525 7.8639 17.084 17.518 17.084l47.482-1.34e-4v-5z" fill="#282828" opacity=".2" stroke-width="1.0833"/>
  <path d="m151 15.001v47.916c0 9.6525 7.8639 17.084 17.518 17.084l47.482-1.34e-4z" fill="url(#linearGradient7-6-0)" stroke-width="1.0833"/>
</svg>
