<svg width="256" height="256" fill="none" version="1.1" viewBox="0 0 256 256" xmlns="http://www.w3.org/2000/svg">
  <path d="m55.08 15h100.5l60.4 60.15 2e-3 148.9c0 8.911-7.262 16.13-16.17 16.13h-144.8c-8.91 0-16.08-7.174-16.08-16.08v-193c0-8.91 7.173-16.08 16.08-16.08h1e-4z" fill="#ebdbb2"/>
  <path d="m155.6 22.98h-100.5c-4.504 0-8.105 3.601-8.105 8.105v193c0 4.504 3.601 8.105 8.105 8.105h144.8c4.533 0 8.194-3.674 8.194-8.149v-148.9l-52.42-52.17zm-1e-3 -7.979h-100.5c-8.91 0-16.08 7.173-16.08 16.08v193c0 8.91 7.173 16.08 16.08 16.08h144.8c8.911 0 16.17-7.218 16.17-16.13l-2e-3 -148.9-60.4-60.15z" clip-rule="evenodd" fill="url(#paint0_linear)" fill-rule="evenodd"/>
  <path d="m112 172.8c-0.387-4.617 4.05-8.98 10.25-9.218 1.086-2e-3 2.249 0.16 3.477 0.434 1.448 0.324 3.469 0.38 4.685 0.482 0.426-0.284 0.405-0.549-0.154-1.957-1.663-4.184-5.083-8.851-9.43-10.14-0.919-0.272-2.308-0.438-3.654-0.467-9.005 0.231-15.57 8.867-19.67 15.32-1.312 2.051-2.85 4.361-3.417 5.133-2.892 3.939-6.268 6.188-9.66 7.175-1.281 0.373-4.357 0.526-5.636 0.281-6.795-1.304-11.34-7.789-10.69-14.73 0.0537-0.586 0.139-1.062 0.1886-1.058 0.0505 4e-3 0.3211 0.315 0.6025 0.689 1.166 1.554 3.71 2.5 5.704 2.975 1.484 0.354 2.935 0.408 4.322 0.163 3.757-0.665 6.159-2.247 10.08-7.567 5.942-8.058 10.18-15.44 18.52-33.63 5.503-12 8.512-18 11.81-23.56 4.246-7.166 8.723-12.93 12.92-16.64 6.419-5.674 14.02-9.106 22.76-10.27 2.632-0.3526 7.187-0.3195 9.675 0.0687 8.928 1.393 15.8 5.878 20.02 13.08 1.363 2.322 2.536 5.617 3.078 8.643 0.346 1.931 0.347 6.234 1e-3 8.174-0.284 1.592-1.003 4.195-1.491 5.397l-0.334 0.823-0.016-1.484c-0.065-6.256-4.135-13.08-10.22-14.78-1.192-0.3335-1.564-0.3732-3.453-0.3674-1.852 0.0041-2.289 0.0521-3.48 0.3757-6.828 1.854-13.39 10.7-15.63 19.67-1.645 6.584-1.386 13.84 0.77 21.62 2.025 7.314 11.73 17.23 13.71 18.71 7.047 5.226 11.8 6.999 17.19 10.75 1.858 1.284 2.377 1.932 2.545 3.171 0.206 1.528-0.723 2.956-3.072 4.718-0.649 0.487-1.876 1.443-2.724 2.124-2.819 2.261-3.162 2.866-5.056 2.876-1.077 4e-3 -1.326-0.042-2.008-0.382-2.18-1.086-3.078-2.603-2.023-4.778 0.978-2.018 3.199-2.946 5.301-2.217 0.476 0.164 0.998 0.507 1.522 0.999 0.85 0.8 0.475-0.125 0.721-0.592 0.266-0.504 0.314-2.268 0.094-3.42-0.777-4.053-4.342-5.712-8.346-5.491-2.333 0.129-4.554 1.195-6.405 3.076-3.92 5.703-9.34 12.86-15.34 12.77-1.034 0.116-2.049 0.024-2.85-0.289-0.607-0.237-1.21-0.661-1.738-1.202-1.494-1.491-1.331-3.084-1.189-5.003 0.162-2.176 1.506-3.816 2.793-5.035 1.867-1.537 3.767-2.166 5.826-2.378 2.583-0.249 4.985-0.458 7.327 0.165 1.3 0.422 1.732 0.431 1.88 0.036 0.222-0.586-1.003-5.42-2.019-6.842-1.681-2.355-3.352-3.314-6.139-4.135-1.283-0.377-4.299-0.517-5.822-0.269-8.504 1.607-11.34 7.942-14.72 13.9-3.896 6.821-7.466 9.42-11.12 10.69-0.534 0.185-1.258 0.318-2.005 0.388-4.907 0.463-7.902-2.641-8.264-6.961z" fill="url(#paint1_linear)"/>
  <path d="m155.6 17v44.23c0 8.91 7.259 15.93 16.17 15.93l44.23-0.0112v-2l-60.4-58.15z" fill="#282828" opacity=".25"/>
  <path d="m155.6 15v44.23c0 8.91 7.259 15.93 16.17 15.93l44.23-0.0112-60.4-60.15z" fill="url(#paint2_linear)"/>
  <defs>
    <linearGradient id="paint0_linear" x1="39" x2="39" y1="15" y2="240.2" gradientUnits="userSpaceOnUse">
      <stop stop-color="#b16286" offset="1e-7"/>
      <stop stop-color="#8f3f71" offset="1"/>
    </linearGradient>
    <linearGradient id="paint1_linear" x1="68" x2="68" y1="76" y2="180" gradientUnits="userSpaceOnUse">
      <stop stop-color="#b16286" offset="1e-7"/>
      <stop stop-color="#8f3f71" offset="1"/>
    </linearGradient>
    <linearGradient id="paint2_linear" x1="197" x2="132" y1="-24.5" y2="88" gradientUnits="userSpaceOnUse">
      <stop stop-color="#b16286" offset="1e-7"/>
      <stop stop-color="#8f3f71" offset="1"/>
    </linearGradient>
  </defs>
</svg>
