<svg width="256" height="256" fill="none" version="1.1" viewBox="0 0 256 256" xmlns="http://www.w3.org/2000/svg">
  <path d="m55.08 15h100.5l60.4 60.15 2e-3 148.9c0 8.911-7.262 16.13-16.17 16.13h-144.8c-8.91 0-16.08-7.174-16.08-16.08v-193c0-8.91 7.173-16.08 16.08-16.08h1e-4z" fill="#ebdbb2"/>
  <path d="m155.6 22.98h-100.5c-4.504 0-8.105 3.601-8.105 8.105v193c0 4.504 3.601 8.105 8.105 8.105h144.8c4.533 0 8.194-3.674 8.194-8.149v-148.9l-52.42-52.17zm-1e-3 -7.979h-100.5c-8.91 0-16.08 7.173-16.08 16.08v193c0 8.91 7.173 16.08 16.08 16.08h144.8c8.911 0 16.17-7.218 16.17-16.13l-2e-3 -148.9-60.4-60.15z" clip-rule="evenodd" fill="url(#paint0_linear)" fill-rule="evenodd"/>
  <path d="m128 68c-0.839-0.0171-1.667 0.182-2.399 0.5764l-55.34 32.31c-0.8828 0.535-1.564 1.328-1.942 2.263s-0.4347 1.962-0.1602 2.93c0.547 2.021 2.419 3.46 4.501 3.46h110.7c2.553 0 4.651-2.053 4.651-4.614 0-1.948-1.162-3.646-2.851-4.329l-54.88-32.02c-0.68-0.3943-1.462-0.5942-2.256-0.5764zm0 15.43c2.743 0.0048 5.372 1.055 7.311 2.92 1.939 1.865 3.031 4.393 3.037 7.031-6e-3 2.638-1.098 5.166-3.037 7.031-1.939 1.865-4.568 2.915-7.311 2.92-2.742-5e-3 -5.371-1.055-7.31-2.92-1.939-1.865-3.031-4.393-3.036-7.031 5e-3 -2.638 1.097-5.165 3.036-7.03 1.939-1.865 4.568-2.915 7.31-2.92zm-55.19 30.72v4.615c0.0035 1.223 0.5103 2.395 1.41 3.26s2.118 1.352 3.39 1.355v36.92h14.4v-36.92c1.272-3e-3 2.49-0.49 3.39-1.355s1.406-2.037 1.41-3.26v-4.615h-24zm28.79 0v4.615c4e-3 1.223 0.511 2.395 1.41 3.26s2.118 1.352 3.39 1.355v36.92h14.4v-36.92c1.272-3e-3 2.491-0.49 3.39-1.355s1.406-2.037 1.409-3.26v-4.615h-24zm28.8 0v4.615c3e-3 1.223 0.51 2.395 1.409 3.26 0.9 0.865 2.118 1.352 3.39 1.355v36.92h14.4v-36.92c1.271-3e-3 2.49-0.49 3.389-1.355 0.9-0.865 1.407-2.037 1.41-3.26v-4.615h-24zm28.79 0v4.615c4e-3 1.223 0.511 2.395 1.41 3.26s2.118 1.352 3.39 1.355v36.92h14.4v-36.92c1.272-3e-3 2.49-0.491 3.389-1.356s1.406-2.036 1.41-3.259v-4.615h-24zm-81.58 50.77v9.23h-4.8c-1.272 4e-3 -2.49 0.491-3.389 1.356s-1.406 2.037-1.409 3.26v4.614c0.0035 1.223 0.5101 2.395 1.409 3.26s2.118 1.352 3.389 1.356h110.4c1.271-3e-3 2.49-0.491 3.389-1.356 0.9-0.865 1.406-2.037 1.41-3.26v-4.614c-4e-3 -1.223-0.51-2.396-1.41-3.26-0.899-0.865-2.118-1.353-3.389-1.356h-4.799v-9.23h-100.8z" fill="url(#paint1_linear)"/>
  <path d="m155.6 17v44.23c0 8.91 7.259 15.93 16.17 15.93l44.23-0.0112v-2l-60.4-58.15z" fill="#282828" opacity=".25"/>
  <path d="m155.6 15v44.23c0 8.91 7.259 15.93 16.17 15.93l44.23-0.0112-60.4-60.15z" fill="url(#paint2_linear)"/>
  <defs>
    <linearGradient id="paint0_linear" x1="39" x2="39" y1="15" y2="240.2" gradientUnits="userSpaceOnUse">
      <stop stop-color="#fb4934" offset="1e-7"/>
      <stop stop-color="#cc241d" offset="1"/>
    </linearGradient>
    <linearGradient id="paint1_linear" x1="68" x2="68" y1="68" y2="188" gradientUnits="userSpaceOnUse">
      <stop stop-color="#fb4934" offset="1e-7"/>
      <stop stop-color="#cc241d" offset="1"/>
    </linearGradient>
    <linearGradient id="paint2_linear" x1="155.6" x2="155.6" y1="15" y2="75.16" gradientUnits="userSpaceOnUse">
      <stop stop-color="#fb4934" offset="1e-7"/>
      <stop stop-color="#cc241d" offset="1"/>
    </linearGradient>
  </defs>
</svg>
