<svg width="256" height="256" version="1.1" viewBox="0 0 256 256" xmlns="http://www.w3.org/2000/svg">
  <defs>
    <linearGradient id="linearGradient21" x1="128" x2="128" y1="15" y2="241" gradientTransform="translate(-9.75e-4,-9.75e-4)" gradientUnits="userSpaceOnUse">
      <stop stop-color="#ebdbb2" offset="0"/>
      <stop stop-color="#d5c4a1" offset="1"/>
    </linearGradient>
    <linearGradient id="linearGradient7-6-0-8" x1="186" x2="156" y1="45.006" y2="75.012" gradientTransform="matrix(1.0833,0,0,1.0833,-17.997,-1.2516)" gradientUnits="userSpaceOnUse">
      <stop stop-color="#fb4934" offset="0"/>
      <stop stop-color="#cc241d" offset=".3027"/>
      <stop stop-color="#9d0006" offset="1"/>
    </linearGradient>
    <linearGradient id="linearGradient14-4" x1="128" x2="128" y1="15.001" y2="241" gradientTransform="translate(0,4.8e-4)" gradientUnits="userSpaceOnUse">
      <stop stop-color="#9d0006" stop-opacity=".097113" offset="0"/>
      <stop stop-color="#9d0006" stop-opacity=".048556" offset=".2"/>
      <stop stop-color="#9d0006" stop-opacity=".051181" offset=".70405"/>
      <stop stop-color="#282828" stop-opacity=".053806" offset=".80473"/>
      <stop stop-color="#282828" stop-opacity=".10367" offset="1"/>
    </linearGradient>
  </defs>
  <path d="m56.999 14.999c-9.9393 0-17 7.0595-17 17v149h176v-101l-64.998-64.998z" fill="url(#linearGradient21)" style="paint-order:markers fill stroke"/>
  <path d="m57 241c-9.9393 0-17-7.0595-17-17v-43h176v43c0 9.9405-7.0607 17-17 17z" fill="#fb4934" stroke-linecap="round" stroke-linejoin="round" stroke-miterlimit="0" style="paint-order:markers fill stroke"/>
  <path d="m74.3 204.8c-6.2421 0-8.24 3.9646-8.24 9.04 0 4.9582 2.1987 9.08 7.68 9.08 1.7593 0 2.5214-0.0803 3.08-0.2v-9.64h6.24v13.72c-3.5405 1.3909-8.9813 1.44-9.72 1.44-7.9578 0-13.76-4.8354-13.76-14.4 0-9.3096 6.2351-14.48 13.88-14.48 4.3252 0 7.7259 1.1987 9.2 2.12l-1.8 5c-0.98137-0.52135-3.5054-1.68-6.56-1.68zm22.12 18.16c3.2335 0 4.48-0.98172 4.48-2.88 0-1.5331-1.0262-2.6488-5.68-4.2-3.4634-1.2224-7.6-2.955-7.6-8.2 0-5.1508 4.0386-8.32 10.2-8.32 3.7211 0 6.4107 0.94404 8.2 1.92l-1.8 4.92c-1.873-0.99727-3.8907-1.4678-6-1.52-2.9192 0-4.2 0.79833-4.2 2.52 0.24727 2.3866 2.8628 3.0035 4.8 3.68 5.9312 2.1967 8.52 4.0081 8.52 9.24 0 6.7588-5.9696 8.16-10.92 8.16-2.0763 0-6.0494-0.27394-9.28-2.12l1.76-4.96c2.3212 1.3162 4.8902 1.7066 7.52 1.76zm34.24-0.6v5.36h-18.52v-27.72h6.24v22.36zm4-22.36h6.24v27.72h-6.24zm18.88 22.64c0.79723 0.0981 1.5986 0.08 2.4 0.08 7.7941 0 9.2-5.1581 9.2-8.88 0-7.853-5.2303-8.84-9-8.84-0.86857 4e-3 -1.7356 0.0424-2.6 0.12zm18.04-8.8c0 12.439-10.106 14.24-15.96 14.24-0.88703 0-4.9869-0.041-8.32-0.72v-27c0.13451-0.0249 3.6911-0.68 8.52-0.68 7.5066 0 15.76 2.6232 15.76 14.16zm5.2 13.88v-27.72h18.72v5.24h-12.48v5.44h11.08v5.12h-11.08v6.68h13.4v5.24z" fill="#282828" opacity=".15" aria-label="GSLIDE"/>
  <path d="m74.3 201.8c-6.2421 0-8.24 3.9646-8.24 9.04 0 4.9582 2.1987 9.08 7.68 9.08 1.7593 0 2.5214-0.0803 3.08-0.2v-9.64h6.24v13.72c-3.5405 1.3909-8.9813 1.44-9.72 1.44-7.9578 0-13.76-4.8354-13.76-14.4 0-9.3096 6.2351-14.48 13.88-14.48 4.3252 0 7.7259 1.1987 9.2 2.12l-1.8 5c-0.98137-0.52135-3.5054-1.68-6.56-1.68zm22.12 18.16c3.2335 0 4.48-0.98172 4.48-2.88 0-1.5331-1.0262-2.6488-5.68-4.2-3.4634-1.2224-7.6-2.955-7.6-8.2 0-5.1508 4.0386-8.32 10.2-8.32 3.7211 0 6.4107 0.94404 8.2 1.92l-1.8 4.92c-1.873-0.99727-3.8907-1.4678-6-1.52-2.9192 0-4.2 0.79833-4.2 2.52 0.24727 2.3866 2.8628 3.0035 4.8 3.68 5.9312 2.1967 8.52 4.0081 8.52 9.24 0 6.7588-5.9696 8.16-10.92 8.16-2.0763 0-6.0494-0.27394-9.28-2.12l1.76-4.96c2.3212 1.3162 4.8902 1.7066 7.52 1.76zm34.24-0.6v5.36h-18.52v-27.72h6.24v22.36zm4-22.36h6.24v27.72h-6.24zm18.88 22.64c0.79723 0.0981 1.5986 0.08 2.4 0.08 7.7941 0 9.2-5.1581 9.2-8.88 0-7.853-5.2303-8.84-9-8.84-0.86857 4e-3 -1.7356 0.0424-2.6 0.12zm18.04-8.8c0 12.439-10.106 14.24-15.96 14.24-0.88703 0-4.9869-0.041-8.32-0.72v-27c0.13451-0.0249 3.6911-0.68 8.52-0.68 7.5066 0 15.76 2.6232 15.76 14.16zm5.2 13.88v-27.72h18.72v5.24h-12.48v5.44h11.08v5.12h-11.08v6.68h13.4v5.24z" fill="#ebdbb2" aria-label="GSLIDE"/>
  <path d="m73.46 196.36c-7.6449 0-13.881 5.1709-13.881 14.48 0 0.54406 0.02367 1.0686 0.06055 1.582 0.60467-8.4111 6.5746-13.062 13.82-13.062 3.6059 0 6.5509 0.83354 8.291 1.6445l0.9082-2.5234c-1.4741-0.92131-4.874-2.1211-9.1992-2.1211zm24.359 0c-6.1614 0-10.201 3.1696-10.201 8.3203 0 0.53497 0.0538 1.0252 0.13476 1.4902 0.72322-4.2495 4.5348-6.8105 10.066-6.8105 3.1455 0 5.5131 0.68226 7.2637 1.4805l0.93555-2.5605c-1.7893-0.97596-4.4781-1.9199-8.1992-1.9199zm58 0.32031c-4.8289 0-8.385 0.65478-8.5195 0.67969v3c0.13451-0.0249 3.6906-0.67969 8.5195-0.67969 7.142 0 14.945 2.392 15.688 12.559 0.0307-0.45939 0.0723-0.90629 0.0723-1.3984 0-11.537-8.2532-14.16-15.76-14.16zm-43.68 0.32031v3h6.2402v-3zm22.52 0v3h6.2402v-3zm42.119 0v3h18.721v-3zm-82.201 8.6484c-0.37777 0.39228-0.55859 0.90625-0.55859 1.5508 0.24727 2.3866 2.8636 3.0052 4.8008 3.6816 5.2843 1.9571 7.901 3.6234 8.4121 7.6602 0.064-0.44761 0.10742-0.91588 0.10742-1.4219 0-5.2319-2.5883-7.0415-8.5195-9.2383-1.4672-0.51234-3.3204-0.99375-4.2422-2.2324zm88.441 2.0312v3h11.08v-3zm-106.2 2.4004v3h6.2402v-3zm-10.676 2.1894c-0.0479 0.51122-0.08398 1.0305-0.08398 1.5703 0 4.9582 2.1984 9.0801 7.6797 9.0801 1.7593 0 2.5215-0.0795 3.0801-0.19922v-3c-0.55857 0.1197-1.3208 0.19922-3.0801 0.19922-4.9414 0-7.1958-3.3578-7.5957-7.6504zm98.916 0.041c-0.38073 3.4759-2.3139 7.4102-9.1211 7.4102-0.80135 0-1.6032 0.018-2.4004-0.0801v3c0.79723 0.0981 1.599 0.0801 2.4004 0.0801 7.7941 0 9.2012-5.159 9.2012-8.8809 0-0.54486-0.032-1.0486-0.0801-1.5293zm-76.16 5.8887-1.7598 4.9609c0.29448 0.16827 0.59948 0.30999 0.9043 0.45312l0.85547-2.4141c2.3212 1.3162 4.8898 1.7083 7.5195 1.7617 3.2335 0 4.4805-0.98258 4.4805-2.8809 0-0.51029-0.13371-0.97262-0.45703-1.4219-0.60818 0.85489-1.8658 1.3027-4.0234 1.3027-2.6298-0.0534-5.1983-0.44556-7.5195-1.7617zm29.48 1.1602v3h12.279v-3zm64.639 0.12109v3h13.4v-3z" fill="#fbf1c7" opacity=".6"/>
  <path d="m105 64.795v30.205h30.205c0-16.682-13.523-30.205-30.205-30.205zm-9.7945 9.9486c-16.682 0-30.205 13.523-30.205 30.205s13.523 30.205 30.205 30.205 30.205-13.523 30.205-30.205h-30.205zm49.795 0v15.257h46v-15.257zm0 30.205v15.051h46v-15.051zm-80 45.051v15.36h103.56v-15.36z" color="#ebdbb2" fill="#ebdbb2" opacity=".6" stroke-width="7.5514"/>
  <path d="m105 59.795v30.205h30.205c0-16.682-13.523-30.205-30.205-30.205zm-9.7945 9.9486c-16.682 0-30.205 13.523-30.205 30.205s13.523 30.205 30.205 30.205 30.205-13.523 30.205-30.205h-30.205zm49.795 0v15.257h46v-15.257zm0 30.205v15.051h46v-15.051zm-80 45.051v15.36h103.56v-15.36z" color="#ebdbb2" fill="#fb4934" stroke-width="7.5514"/>
  <path d="m105 59.795v5c14.975 0 27.371 10.908 29.758 25.205h0.44727c0-16.682-13.523-30.205-30.205-30.205zm-9.7949 9.9473c-16.682 0-30.205 13.525-30.205 30.207 0 0.84413 0.05904 1.6734 0.12695 2.5 1.2734-15.51 14.24-27.707 30.078-27.707zm49.795 0v5h46v-5zm-49.795 30.207v5h29.758c0.27228-1.6303 0.44727-3.2924 0.44727-5zm49.795 0v5h46v-5zm-80 45.051v5h103.56v-5z" color="#ebdbb2" fill="#282828" opacity=".15" stroke-width="7.5514"/>
  <path d="m57 15c-9.9393 0-17 7.0595-17 17v192c0 9.9393 7.0595 17 17 17h142c9.9405 0 17-7.0607 17-17v-144l-65-65zm4.0332 4.9902 89.967 0.01 60 60 2e-4 139.75c1e-5 9.4999-6.6575 16.248-16.033 16.248h-133.93c-9.3757 0-16.033-6.7481-16.033-16.248v-183.51c0-9.501 6.6586-16.25 16.033-16.25z" fill="url(#linearGradient14-4)" style="paint-order:markers fill stroke"/>
  <path d="m151 15.002v52.914c0 9.6525 7.8639 17.084 17.518 17.084l47.482-1.34e-4v-5z" fill="#282828" opacity=".2" stroke-width="1.0833"/>
  <path d="m151 15v47.916c0 9.6525 7.8639 17.084 17.518 17.084l47.482-1.34e-4z" fill="url(#linearGradient7-6-0-8)" stroke-width="1.0833"/>
</svg>
