<svg width="256" height="256" version="1.1" viewBox="0 0 256 256" xmlns="http://www.w3.org/2000/svg">
  <defs>
    <linearGradient id="linearGradient21" x1="128" x2="128" y1="15" y2="241" gradientTransform="translate(-9.7e-4,-9.75e-4)" gradientUnits="userSpaceOnUse">
      <stop stop-color="#ebdbb2" offset="0"/>
      <stop stop-color="#d5c4a1" offset="1"/>
    </linearGradient>
    <linearGradient id="linearGradient7-6-0-2" x1="186" x2="156" y1="45.006" y2="75.012" gradientTransform="matrix(1.0833,0,0,1.0833,-17.998,-1.2516)" gradientUnits="userSpaceOnUse">
      <stop stop-color="#8ec07c" offset="0"/>
      <stop stop-color="#689d6a" offset=".3027"/>
      <stop stop-color="#427b58" offset="1"/>
    </linearGradient>
    <linearGradient id="linearGradient14-6" x1="128" x2="128" y1="15.001" y2="241" gradientTransform="translate(0,4.8e-4)" gradientUnits="userSpaceOnUse">
      <stop stop-color="#427b58" stop-opacity=".099738" offset="0"/>
      <stop stop-color="#427b58" stop-opacity=".047244" offset=".2"/>
      <stop stop-color="#427b58" stop-opacity=".047244" offset=".70405"/>
      <stop stop-color="#282828" stop-opacity=".049869" offset=".80473"/>
      <stop stop-color="#282828" stop-opacity=".10367" offset="1"/>
    </linearGradient>
  </defs>
  <path d="m56.999 14.999c-9.9393 0-17 7.0595-17 17v149h176v-101l-64.998-64.998z" fill="url(#linearGradient21)" style="paint-order:markers fill stroke"/>
  <path d="m57 241c-9.9393 0-17-7.0595-17-17v-43h176v43c0 9.9405-7.0607 17-17 17z" fill="#689d6a" stroke-linecap="round" stroke-linejoin="round" stroke-miterlimit="0" style="paint-order:markers fill stroke"/>
  <path d="m100.94 228.08c-3.9745 0-6.8192-0.28408-9.24-0.8v-26.88c2.8349-0.53155 6.6089-0.72 8.44-0.72 5.7428 0 12.08 1.2536 12.08 7.8 0 2.2133-1.0667 3.96-3.2 5.24 3.0743 1.0716 4.4184 3.479 4.56 6.6 0 6.8145-5.901 8.76-12.64 8.76zm-3.16-12.44v7.16c0.98081 0.11539 2.0707 0.16 3.24 0.16 2.8306-6e-3 5.9596-0.46056 6.24-3.76 0-0.94028-0.0632-3.56-5.56-3.56zm0-4.76h3.04c3.4646 0 5.36-0.71411 5.36-3.12 0-1.4248-0.57021-3.04-5.04-3.04-1.1212 0.0106-2.2423 0.0329-3.36 0.12zm38.96 16.84c-0.64332-2.0121-1.3562-4.0012-2.04-6h-10.8c-0.7104 1.9905-1.4118 3.9818-2.04 6h-6.48c4.213-12.099 7.5904-20.624 11.04-27.72h5.96c4.1617 8.8129 7.4371 17.373 11.04 27.72zm-7.48-21.44c-0.71781 2.1535-1.6463 4.0853-3.92 10.48h7.88c-0.0734-0.20655-1.8631-5.2378-3.96-10.48zm35.04-6.28v5.32h-8.36v22.4h-6.24v-22.4h-8.36v-5.32z" fill="#282828" opacity=".2" aria-label="BAT"/>
  <path d="m100.94 225.08c-3.9744 0-6.8191-0.28408-9.24-0.8v-26.88c2.8349-0.53155 6.6089-0.72 8.44-0.72 5.7428 0 12.08 1.2536 12.08 7.8 0 2.2133-1.0667 3.96-3.2 5.24 3.0743 1.0716 4.4184 3.479 4.56 6.6 0 6.8145-5.901 8.76-12.64 8.76zm-3.16-12.44v7.16c0.98081 0.11539 2.0707 0.16 3.24 0.16 2.8306-6e-3 5.9596-0.46056 6.24-3.76 0-0.94028-0.0632-3.56-5.56-3.56zm0-4.76h3.04c3.4646 0 5.36-0.71411 5.36-3.12 0-1.4248-0.57021-3.04-5.04-3.04-1.1212 0.0106-2.2423 0.0329-3.36 0.12zm38.96 16.84c-0.64332-2.0121-1.3562-4.0012-2.04-6h-10.8c-0.7104 1.9905-1.4118 3.9818-2.04 6h-6.48c4.213-12.099 7.5904-20.624 11.04-27.72h5.96c4.1617 8.8129 7.4371 17.373 11.04 27.72zm-7.48-21.44c-0.71781 2.1535-1.6463 4.0853-3.92 10.48h7.88c-0.0734-0.20655-1.8631-5.2378-3.96-10.48zm35.04-6.28v5.32h-8.36v22.4h-6.24v-22.4h-8.36v-5.32z" fill="#ebdbb2" aria-label="BAT"/>
  <path d="m100.14 196.68c-1.8311 0-5.6065 0.18915-8.4414 0.7207v3c2.8349-0.53155 6.6103-0.7207 8.4414-0.7207 5.2302 0 10.936 1.0547 11.916 6.1855 0.1026-0.4405 0.16406-0.89937 0.16406-1.3848 0-6.5464-6.3373-7.8008-12.08-7.8008zm26.279 0.32031c-3.4496 7.0962-6.826 15.622-11.039 27.721h1.0566c3.7271-10.516 6.8285-18.233 9.9824-24.721h5.9609c3.7431 7.9265 6.7764 15.719 9.9688 24.721h1.0703c-3.6029-10.347-6.8774-18.908-11.039-27.721zm14.92 0v3h22.961v-3zm-35.518 9.2715c-0.69951 1.2073-2.4113 1.6094-5.002 1.6094h-3.041v3h3.041c3.4646 0 5.3594-0.7152 5.3594-3.1211 0-0.4991-0.0744-1.0201-0.35742-1.4883zm5.3066 4.5898c-0.51931 0.69998-1.2157 1.3232-2.1094 1.8594 2.6236 0.91445 3.9787 2.8059 4.4102 5.2793 0.0886-0.52786 0.15039-1.0779 0.15039-1.6797-0.10359-2.2833-0.85374-4.1832-2.4512-5.459zm15.305 2.8984c-0.33717 0.91087-0.67077 1.8104-1.0938 3h7.8809c-0.0328-0.0924-0.49972-1.3886-1.0938-3zm-19.529 3.8242c-0.93986 2.0437-3.5134 2.3719-5.8848 2.377-1.1693 0-2.2594-0.0448-3.2402-0.16016v3c0.98081 0.11539 2.071 0.16016 3.2402 0.16016 2.8306-6e-3 5.9598-0.46228 6.2402-3.7617 0-0.3676-0.0153-0.99116-0.35547-1.6152z" fill="#fbf1c7" opacity=".6"/>
  <path d="m181 58.834-57.821 8.3201v39.866h57.821zm-67.455 9.6815-38.545 5.4467v33.048h38.545zm-38.545 48.132v33.352l38.545 5.3916v-38.745zm48.179 0v40.091l57.821 8.0879v-48.179z" fill="#ebdbb2" opacity=".6" stroke-width="9.6344" style="isolation:isolate"/>
  <path d="m181 53.834-57.821 8.3201v39.866h57.821zm-67.455 9.6815-38.545 5.4467v33.048h38.545zm-38.545 48.132v33.352l38.545 5.3916v-38.745zm48.179 0v40.091l57.821 8.0879v-48.179z" fill="#689d6a" stroke-width="9.6344" style="isolation:isolate"/>
  <path d="m181 53.834-57.82 8.3203v5l57.82-8.3203zm-67.455 9.6816-38.545 5.4473v5l38.545-5.4473zm0 48.131-38.545 2e-3v5l38.545-2e-3zm9.6348 2e-3v5h57.82v-5z" fill="#282828" opacity=".2" style="isolation:isolate"/>
  <path d="m57 15c-9.9393 0-17 7.0595-17 17v192c0 9.9393 7.0595 17 17 17h142c9.9405 0 17-7.0607 17-17v-144l-65-65zm4.0332 4.9902 89.967 0.01 60 60 2e-4 139.75c1e-5 9.4999-6.6575 16.248-16.033 16.248h-133.93c-9.3757 0-16.033-6.7481-16.033-16.248v-183.51c0-9.501 6.6586-16.25 16.033-16.25z" fill="url(#linearGradient14-6)" style="paint-order:markers fill stroke"/>
  <path d="m151 15.002v52.914c0 9.6525 7.8639 17.084 17.518 17.084l47.482-1.34e-4v-5z" fill="#282828" opacity=".2" stroke-width="1.0833"/>
  <path d="m151 15v47.916c0 9.6525 7.8639 17.084 17.518 17.084l47.482-1.34e-4z" fill="url(#linearGradient7-6-0-2)" stroke-width="1.0833"/>
</svg>
