<svg width="256" height="256" version="1.1" viewBox="0 0 256 256" xmlns="http://www.w3.org/2000/svg">
  <defs>
    <linearGradient id="linearGradient26" x1="-160" x2="-160" y2="226" gradientTransform="translate(267,15)" gradientUnits="userSpaceOnUse">
      <stop stop-color="#458588" offset="0"/>
      <stop stop-color="#076678" offset="1"/>
    </linearGradient>
    <linearGradient id="linearGradient7-6-0-1" x1="186" x2="156" y1="45.006" y2="75.012" gradientTransform="matrix(1.0833,0,0,1.0833,-17.996,-1.2506)" gradientUnits="userSpaceOnUse">
      <stop stop-color="#83a598" offset="0"/>
      <stop stop-color="#458588" offset=".3027"/>
      <stop stop-color="#076678" offset="1"/>
    </linearGradient>
    <linearGradient id="linearGradient16" x1="128" x2="128" y1="15.001" y2="241" gradientTransform="translate(0,4.8e-4)" gradientUnits="userSpaceOnUse">
      <stop stop-color="#ebdbb2" stop-opacity=".2" offset="0"/>
      <stop stop-color="#ebdbb2" stop-opacity=".1" offset=".2"/>
      <stop stop-opacity="0" offset=".70405"/>
      <stop stop-opacity=".05" offset=".80473"/>
      <stop stop-opacity=".1" offset="1"/>
    </linearGradient>
  </defs>
  <path d="m57 15c-9.9393 0-17 7.0595-17 17v192c0 9.9393 7.0595 17 17 17h142c9.9405 0 17-7.0607 17-17v-144l-64.999-64.999z" fill="url(#linearGradient26)" stroke-linecap="round" stroke-linejoin="round" stroke-miterlimit="0" style="paint-order:markers fill stroke"/>
  <path d="m57 241c-9.9393 0-17-7.0595-17-17v-43h176v43c0 9.9405-7.0607 17-17 17z" fill="#83a598" opacity=".7" stroke-linecap="round" stroke-linejoin="round" stroke-miterlimit="0" style="paint-order:markers fill stroke"/>
  <path d="m87.7 228.28c-11.917 0-13.84-8.7761-13.84-14.44 0-8.7097 5.577-14.48 14.16-14.48 3.6494 0 6.894 1.0788 8.56 2.12l-1.8 5.04c-1.62-0.86062-3.9004-1.64-6.84-1.64-1.6567 0-7.6 0.57595-7.6 8.84 0 7.3771 4.1646 9.04 7.92 9.04 2.4702 0.084 4.7798-0.55372 7-1.56l1.72 5c-3.204 1.9418-7.9741 2.08-9.28 2.08zm22.52-0.2c-3.9745 0-6.8192-0.28408-9.24-0.8v-26.88c2.835-0.53155 6.6089-0.72 8.44-0.72 5.7428 0 12.08 1.2536 12.08 7.8 0 2.2133-1.0667 3.96-3.2 5.24 3.0743 1.0716 4.4184 3.479 4.56 6.6 0 6.8145-5.901 8.76-12.64 8.76zm-3.16-12.44v7.16c0.98081 0.11539 2.0707 0.16 3.24 0.16 2.8306-6e-3 5.9596-0.46056 6.24-3.76 0-0.94028-0.0632-3.56-5.56-3.56zm0-4.76h3.04c3.4646 0 5.36-0.71411 5.36-3.12 0-1.4248-0.57021-3.04-5.04-3.04-1.1212 0.0106-2.2423 0.0329-3.36 0.12zm26.04 2.96c0 5.6625 2.8829 8.96 7.36 8.96 4.8781 0 7.36-3.9271 7.36-8.96 0-4.9078-2.3872-9-7.36-9-4.1749 0-7.36 3.1092-7.36 9zm21.16 0c0 9.292-5.7804 14.44-13.8 14.44-7.1983 0-13.8-4.5179-13.8-14.44 0-9.2833 6.2024-14.48 13.8-14.48 7.6238 0 13.8 4.991 13.8 14.48zm13.32-14.16c7.1485 0 12.88 2.1678 12.88 9.12 0 2.1895-0.48893 5.6558-5.2 7.6 3.5509 4.3964 6.5069 10.532 6.88 11.32h-7c-4.0062-7.1689-5.2518-8.7901-6.36-10.12h-3.08v10.12h-6.24v-27.32c3.119-0.61159 6.387-0.72 8.12-0.72zm0.36 5.32c-0.74882-0.01-1.4946 0.0599-2.24 0.12v7.52h1.76c4.8398 0 6.56-1.178 6.56-3.88 0-1.4407-0.45696-3.76-6.08-3.76z" fill="#ebdbb2" opacity=".15" aria-label="CBORI"/>
  <path d="m87.7 225.28c-11.917 0-13.84-8.7761-13.84-14.44 0-8.7097 5.577-14.48 14.16-14.48 3.6494 0 6.894 1.0788 8.56 2.12l-1.8 5.04c-1.62-0.86062-3.9004-1.64-6.84-1.64-1.6567 0-7.6 0.57595-7.6 8.84 0 7.3771 4.1646 9.04 7.92 9.04 2.4702 0.084 4.7798-0.55372 7-1.56l1.72 5c-3.204 1.9418-7.9741 2.08-9.28 2.08zm22.52-0.2c-3.9745 0-6.8192-0.28408-9.24-0.8v-26.88c2.835-0.53155 6.6089-0.72 8.44-0.72 5.7428 0 12.08 1.2536 12.08 7.8 0 2.2133-1.0667 3.96-3.2 5.24 3.0743 1.0716 4.4184 3.479 4.56 6.6 0 6.8145-5.901 8.76-12.64 8.76zm-3.16-12.44v7.16c0.98081 0.11539 2.0707 0.16 3.24 0.16 2.8306-6e-3 5.9596-0.46056 6.24-3.76 0-0.94028-0.0632-3.56-5.56-3.56zm0-4.76h3.04c3.4646 0 5.36-0.71411 5.36-3.12 0-1.4248-0.57021-3.04-5.04-3.04-1.1212 0.0106-2.2423 0.0329-3.36 0.12zm26.04 2.96c0 5.6625 2.8829 8.96 7.36 8.96 4.8781 0 7.36-3.9271 7.36-8.96 0-4.9078-2.3872-9-7.36-9-4.1749 0-7.36 3.1092-7.36 9zm21.16 0c0 9.292-5.7804 14.44-13.8 14.44-7.1983 0-13.8-4.5179-13.8-14.44 0-9.2833 6.2024-14.48 13.8-14.48 7.6238 0 13.8 4.991 13.8 14.48zm13.32-14.16c7.1485 0 12.88 2.1678 12.88 9.12 0 2.1895-0.48893 5.6558-5.2 7.6 3.5509 4.3964 6.5069 10.532 6.88 11.32h-7c-4.0062-7.1689-5.2518-8.7901-6.36-10.12h-3.08v10.12h-6.24v-27.32c3.119-0.61159 6.387-0.72 8.12-0.72zm0.36 5.32c-0.74882-0.01-1.4946 0.0599-2.24 0.12v7.52h1.76c4.8398 0 6.56-1.178 6.56-3.88 0-1.4407-0.45696-3.76-6.08-3.76z" fill="#076678" aria-label="CBORI"/>
  <path d="m88.019 196.36c-8.583 0-14.16 5.7708-14.16 14.48 0 0.43649 0.03987 0.91675 0.06641 1.3848 0.64945-7.8025 6.052-12.869 14.094-12.869 3.0828 0 5.8646 0.77198 7.6621 1.6387l0.89844-2.5137c-1.666-1.0412-4.9112-2.1211-8.5606-2.1211zm52.441 0c-7.5976 0-13.801 5.1972-13.801 14.48 0 0.51903 0.0292 1.0143 0.0644 1.5039 0.63248-8.3424 6.5577-12.988 13.736-12.988 7.2179 0 13.128 4.4807 13.738 13.01 0.036-0.4967 0.0606-1.0022 0.0606-1.5254 0-9.489-6.175-14.48-13.799-14.48zm-31.041 0.32031c-1.8311 0-5.6045 0.18916-8.4394 0.72071v2.9961c2.835-0.53155 6.6084-0.7207 8.4394-0.7207 5.2308 0 10.939 1.0551 11.918 6.1875 0.1023-0.43992 0.16211-0.89814 0.16211-1.3828 0-6.5464-6.3373-7.8008-12.08-7.8008zm58.16 0c-1.733 0-5.0001 0.10912-8.1191 0.72071v2.9961c3.119-0.61159 6.3862-0.7207 8.1191-0.7207 6.6053 0 11.99 1.861 12.771 7.627 0.0745-0.53608 0.10938-1.05 0.10938-1.502 0-6.9522-5.7324-9.1211-12.881-9.1211zm-52.482 9.5977c-0.70176 1.2025-2.4118 1.6035-4.998 1.6035h-3.0391v2.9961h3.0391c3.4646 0 5.3613-0.7152 5.3613-3.1211 0-0.49628-0.0842-1.0123-0.36328-1.4785zm58.646 1.0215c-0.63785 1.6074-2.4971 2.3418-6.2832 2.3418h-1.7617v2.9961h1.7617c4.8398 0 6.5586-1.1789 6.5586-3.8808 0-0.43524-0.0621-0.94959-0.27539-1.457zm-53.342 3.5664c-0.51875 0.69675-1.2112 1.3174-2.1016 1.8516 2.6249 0.91493 3.9795 2.8079 4.4102 5.2832 0.0886-0.52786 0.14844-1.0779 0.14844-1.6797-0.10359-2.2834-0.85949-4.1793-2.457-5.4551zm-39.992 1.3672c-0.0455 0.46546-0.07031 0.95848-0.07031 1.4844 0 7.3771 4.1646 9.0391 7.9199 9.0391 2.4702 0.084 4.7798-0.55427 7-1.5606l0.84375 2.4531c0.29772-0.1422 0.59946-0.28104 0.87696-0.44922l-1.7207-5c-2.2202 1.0063-4.5298 1.6446-7 1.5606-3.4821 0-7.3101-1.4383-7.8496-7.5273zm67.314 0.0937c-0.45199 4.2941-2.8808 7.4746-7.2637 7.4746-4.0615 0-6.8039-2.7218-7.2793-7.4531-0.0482 0.47682-0.082 0.96782-0.082 1.4883 0 5.6625 2.8843 8.9609 7.3613 8.9609 4.8781 0 7.3594-3.928 7.3594-8.9609 0-0.51602-0.0427-1.0156-0.0957-1.5098zm29.148 3.25c-0.47403 0.29431-1.0076 0.57036-1.6133 0.82031 2.1877 2.7086 4.0648 5.9526 5.3359 8.3242h1.5449c-0.3145-0.66395-2.4728-5.1251-5.2676-9.1445zm-60.689 2.0117c-0.94125 2.0404-3.5129 2.368-5.8828 2.373-1.1693 0-2.2594-0.0448-3.2402-0.16015v2.9961c0.98081 0.11539 2.071 0.16016 3.2402 0.16016 2.8306-6e-3 5.9579-0.46228 6.2383-3.7617 0-0.36614-0.0192-0.98583-0.35547-1.6074z" fill="#282828" opacity=".2"/>
  <path d="m57 15c-9.9393 0-17 7.0595-17 17v192c0 9.9393 7.0595 17 17 17h142c9.9405 0 17-7.0607 17-17v-144l-65-64.998zm4.0332 4.9902 89.967 2e-3 60 60.009v139.75c0 9.4999-6.6575 16.248-16.033 16.248h-133.93c-9.3757 0-16.033-6.7481-16.033-16.248v-183.51c0-9.501 6.6586-16.25 16.033-16.25z" fill="url(#linearGradient16)" style="paint-order:markers fill stroke"/>
  <path d="m151 15.002v52.914c0 9.6525 7.8639 17.084 17.518 17.084l47.482-1.34e-4v-5z" fill="#282828" opacity=".2" stroke-width="1.0833"/>
  <path d="m127.87 43c-3.2035-8.97e-4 -5.8003 2.5968-5.7984 5.8003 0.083 2.4188 1.66 4.5315 3.9553 5.2989v33.096l-13.939-8.8089v-9.5717c2.3601-0.78977 3.9527-2.9979 3.9572-5.4867-1e-3 -3.1997-2.5948-5.7933-5.7945-5.7945-3.2012-9.02e-4 -5.7971 2.5933-5.7984 5.7945 4e-3 2.4882 1.5959 4.6962 3.9553 5.4867v11.603l17.62 11.128v39.582l-14.818-8.1255v-17.203c2.3594-0.79044 3.9511-2.9984 3.9553-5.4867-2e-3 -3.2004-2.5979-5.7935-5.7984-5.7926-3.1989 0.0012-5.7922 2.5936-5.7945 5.7926 4e-3 2.4872 1.5936 4.6949 3.9514 5.4867v15.184l-22.181-12.16v-13.69c2.3558-0.79109 3.9453-2.9958 3.9514-5.4809 9e-4 -3.2005-2.5921-5.7961-5.7926-5.7984-3.2035-2e-3 -5.8012 2.5949-5.8003 5.7984 7e-3 2.4866 1.5991 4.6918 3.9572 5.4809v15.804l6.7141 3.69v25.825l-20.113-10.968v-6.7877c2.3558-0.79109 3.9453-2.9958 3.9514-5.4809 2e-3 -3.202-2.5925-5.7991-5.7945-5.8003-3.2035-9e-4 -5.8003 2.5968-5.7984 5.8003 0.0067 2.4861 1.5979 4.6911 3.9553 5.4809v8.8166l61.455 33.654v15.834h3.6862v-16.126l61.867-39.08v-8.8128c2.3594-0.79044 3.9511-2.9984 3.9553-5.4867 2e-3 -3.202-2.5925-5.7991-5.7945-5.8003-3.2035-9e-4 -5.8003 2.5968-5.7984 5.8003 4e-3 2.4872 1.5936 4.6949 3.9514 5.4867v6.7761l-27.671 17.486v-37.189l8.2862-5.235v-8.8127c2.3588-0.78931 3.9511-2.9955 3.9572-5.4828 9e-4 -3.2035-2.5968-5.8003-5.8003-5.7984-3.2004 0.0023-5.7935 2.5979-5.7926 5.7984 5e-3 2.4858 1.5949 4.6915 3.9514 5.4828v6.7877l-35.112 22.175v-17.126l17.136-10.828v-15.97c2.3581-0.78909 3.9502-2.9943 3.9572-5.4809 9e-4 -3.2027-2.5956-5.7993-5.7984-5.7984-3.2012 0.0012-5.7954 2.5972-5.7945 5.7984 4e-3 2.4882 1.5959 4.6962 3.9553 5.4867v13.935l-13.455 8.4991v-43.386c2.2961-0.76676 3.8739-2.8796 3.9572-5.2989 2e-3 -3.2042-2.5961-5.8023-5.8003-5.8003zm28.672 63.377v37.191l-26.829 16.95v-37.193zm-64.87 10.067 34.355 18.884v25.652l-34.355-18.729z" fill="#282828" opacity=".2" stroke-width="2.6652"/>
  <path d="m127.87 40a5.7967 5.7967 0 0 0-5.7984 5.8003 5.7967 5.7967 0 0 0 3.9553 5.2989v33.096l-13.939-8.8089v-9.5717a5.7967 5.7967 0 0 0 3.9572-5.4867 5.7967 5.7967 0 0 0-5.7945-5.7945 5.7967 5.7967 0 0 0-5.7984 5.7945 5.7967 5.7967 0 0 0 3.9553 5.4867v11.603l17.62 11.128v39.582l-14.818-8.1255v-17.203a5.7967 5.7967 0 0 0 3.9553-5.4867 5.7967 5.7967 0 0 0-5.7984-5.7926 5.7967 5.7967 0 0 0-5.7945 5.7926 5.7967 5.7967 0 0 0 3.9514 5.4867v15.184l-22.181-12.16v-13.69a5.7967 5.7967 0 0 0 3.9514-5.4809 5.7967 5.7967 0 0 0-5.7926-5.7984 5.7967 5.7967 0 0 0-5.8003 5.7984 5.7967 5.7967 0 0 0 3.9572 5.4809v15.804l6.7141 3.69v25.825l-20.113-10.968v-6.7877a5.7967 5.7967 0 0 0 3.9514-5.4809 5.7967 5.7967 0 0 0-5.7945-5.8003 5.7967 5.7967 0 0 0-5.7984 5.8003 5.7967 5.7967 0 0 0 3.9553 5.4809v8.8166l61.455 33.654v18.834h3.6862v-19.126l61.867-39.08v-8.8128a5.7967 5.7967 0 0 0 3.9553-5.4867 5.7967 5.7967 0 0 0-5.7945-5.8003 5.7967 5.7967 0 0 0-5.7984 5.8003 5.7967 5.7967 0 0 0 3.9514 5.4867v6.7761l-27.671 17.486v-37.189l8.2862-5.235v-8.8127a5.7967 5.7967 0 0 0 3.9572-5.4828 5.7967 5.7967 0 0 0-5.8003-5.7984 5.7967 5.7967 0 0 0-5.7926 5.7984 5.7967 5.7967 0 0 0 3.9514 5.4828v6.7877l-35.112 22.175v-17.126l17.136-10.828v-15.97a5.7967 5.7967 0 0 0 3.9572-5.4809 5.7967 5.7967 0 0 0-5.7984-5.7984 5.7967 5.7967 0 0 0-5.7945 5.7984 5.7967 5.7967 0 0 0 3.9553 5.4867v13.935l-13.455 8.4991v-43.386a5.7967 5.7967 0 0 0 3.9572-5.2989 5.7967 5.7967 0 0 0-5.8003-5.8003zm28.672 63.377v37.191l-26.829 16.95v-37.193zm-64.87 10.067 34.355 18.884v25.652l-34.355-18.729z" fill="#83a598" stroke-width="2.6652"/>
  <path d="m127.87 40.001a5.7967 5.7967 0 0 0-5.7988 5.8008 5.7967 5.7967 0 0 0 0.32617 1.3535 5.7967 5.7967 0 0 1 5.4726-4.1543 5.7967 5.7967 0 0 1 5.5117 3.9941 5.7967 5.7967 0 0 0 0.28907-1.1934 5.7967 5.7967 0 0 0-5.8008-5.8008zm-17.619 14.533a5.7967 5.7967 0 0 0-5.7988 5.7949 5.7967 5.7967 0 0 0 0.3086 1.4512 5.7967 5.7967 0 0 1 5.4902-4.2461 5.7967 5.7967 0 0 1 5.4844 4.248 5.7967 5.7967 0 0 0 0.30859-1.4531 5.7967 5.7967 0 0 0-5.793-5.7949zm34.756 6.2324a5.7967 5.7967 0 0 0-5.793 5.7988 5.7967 5.7967 0 0 0 0.30664 1.4492 5.7967 5.7967 0 0 1 5.4863-4.248 5.7967 5.7967 0 0 1 5.5293 4.0625 5.7967 5.7967 0 0 0 0.26953-1.2637 5.7967 5.7967 0 0 0-5.7988-5.7988zm-32.92 14.621v3l13.939 8.8086v-3zm54.578 0.33789a5.7967 5.7967 0 0 0-5.791 5.7988 5.7967 5.7967 0 0 0 0.30664 1.4492 5.7967 5.7967 0 0 1 5.4844-4.248 5.7967 5.7967 0 0 1 5.5312 4.0625 5.7967 5.7967 0 0 0 0.26953-1.2637 5.7967 5.7967 0 0 0-5.8008-5.7988zm-83.164 5.1289a5.7967 5.7967 0 0 0-5.8008 5.7988 5.7967 5.7967 0 0 0 0.30859 1.4473 5.7967 5.7967 0 0 1 5.4922-4.2461 5.7967 5.7967 0 0 1 5.5234 4.0625 5.7967 5.7967 0 0 0 0.26758-1.2637 5.7967 5.7967 0 0 0-5.791-5.7988zm59.668 5.1328-13.455 8.498v3l13.455-8.498zm-33.803 5.5332a5.7967 5.7967 0 0 0-5.7949 5.793 5.7967 5.7967 0 0 0 0.30859 1.4512 5.7967 5.7967 0 0 1 5.4863-4.2441 5.7967 5.7967 0 0 1 5.4883 4.2441 5.7967 5.7967 0 0 0 0.30859-1.4512 5.7967 5.7967 0 0 0-5.7969-5.793zm55.459 2.2754-35.111 22.174v3l35.111-22.174zm24.916 8.8984a5.7967 5.7967 0 0 0-5.7988 5.8008 5.7967 5.7967 0 0 0 0.30859 1.4512 5.7967 5.7967 0 0 1 5.4902-4.252 5.7967 5.7967 0 0 1 5.5254 4.0664 5.7967 5.7967 0 0 0 0.26953-1.2656 5.7967 5.7967 0 0 0-5.7949-5.8008zm-104.4 3.1289v3l22.182 12.16v-3zm-18.926 2.5918a5.7967 5.7967 0 0 0-5.7988 5.8008 5.7967 5.7967 0 0 0 0.30859 1.4473 5.7967 5.7967 0 0 1 5.4902-4.248 5.7967 5.7967 0 0 1 5.5254 4.0664 5.7967 5.7967 0 0 0 0.26953-1.2656 5.7967 5.7967 0 0 0-5.7949-5.8008zm44.793 11.588v3l14.818 8.125v-3zm76.686 0.75586-27.67 17.484v3l27.67-17.484zm-119.63 5.7266v3l20.113 10.967v-3zm23.414 12.768v3l34.354 18.729v-3zm64.869 1.3164-26.828 16.949v3l26.828-16.949z" fill="#ebdbb2" opacity=".2" stroke-width="2.6652"/>
  <path d="m151 15.001v47.916c0 9.6525 7.8639 17.084 17.518 17.084l47.482-1.34e-4z" fill="url(#linearGradient7-6-0-1)" stroke-width="1.0833"/>
</svg>
