<svg width="256" height="256" version="1.1" viewBox="0 0 256 256" xmlns="http://www.w3.org/2000/svg">
  <defs>
    <linearGradient id="linearGradient26" x1="-160" x2="-160" y2="226" gradientTransform="translate(267,15)" gradientUnits="userSpaceOnUse">
      <stop stop-color="#fabd2f" offset="0"/>
      <stop stop-color="#b57614" offset="1"/>
    </linearGradient>
    <linearGradient id="linearGradient14-5-5" x1="128" x2="128" y1="15.001" y2="241" gradientTransform="translate(0,4.822e-4)" gradientUnits="userSpaceOnUse">
      <stop stop-color="#ebdbb2" stop-opacity=".3" offset="0"/>
      <stop stop-color="#ebdbb2" stop-opacity=".15" offset=".2"/>
      <stop stop-opacity="0" offset=".70405"/>
      <stop stop-opacity=".05" offset=".80473"/>
      <stop stop-opacity=".1" offset="1"/>
    </linearGradient>
    <linearGradient id="linearGradient7-6-0-3" x1="186" x2="156" y1="45.006" y2="75.012" gradientTransform="matrix(1.0833,0,0,1.0833,-17.998,-1.2502)" gradientUnits="userSpaceOnUse">
      <stop stop-color="#fabd2f" offset="0"/>
      <stop stop-color="#d79921" offset=".3027"/>
      <stop stop-color="#b57614" offset="1"/>
    </linearGradient>
  </defs>
  <path d="m57 15c-9.9393 0-17 7.0595-17 17v192c0 9.9393 7.0595 17 17 17h142c9.9405 0 17-7.0607 17-17v-144l-64.999-64.999z" fill="url(#linearGradient26)" stroke-linecap="round" stroke-linejoin="round" stroke-miterlimit="0" style="paint-order:markers fill stroke"/>
  <path d="m57 241c-9.9393 0-17-7.0595-17-17v-43h176v43c0 9.9405-7.0607 17-17 17z" color="#000000" color-rendering="auto" dominant-baseline="auto" fill="#fabd2f" image-rendering="auto" opacity=".8" shape-rendering="auto" solid-color="#000000" stop-color="#000000" stroke-linecap="round" stroke-linejoin="round" stroke-miterlimit="0" style="-inkscape-stroke:none;font-feature-settings:normal;font-variant-alternates:normal;font-variant-caps:normal;font-variant-east-asian:normal;font-variant-ligatures:normal;font-variant-numeric:normal;font-variant-position:normal;font-variation-settings:normal;inline-size:0;isolation:auto;mix-blend-mode:normal;paint-order:markers fill stroke;shape-margin:0;shape-padding:0;text-decoration-color:#000000;text-decoration-line:none;text-decoration-style:solid;text-indent:0;text-orientation:mixed;text-transform:none;white-space:normal"/>
  <path d="m109.18 222.96c3.2335 0 4.48-0.98172 4.48-2.88 0-1.533-1.0262-2.6487-5.68-4.2-3.4634-1.2224-7.6-2.955-7.6-8.2 0-5.1508 4.0386-8.32 10.2-8.32 3.7211 0 6.4107 0.94404 8.2 1.92l-1.8 4.92c-1.873-0.99727-3.8907-1.4678-6-1.52-2.9192 0-4.2 0.79833-4.2 2.52 0.24727 2.3866 2.8628 3.0035 4.8 3.68 5.9312 2.1967 8.52 4.0081 8.52 9.24 0 6.7588-5.9696 8.16-10.92 8.16-2.0763 0-6.0494-0.27393-9.28-2.12l1.76-4.96c2.3212 1.3162 4.8902 1.7066 7.52 1.76zm15.72-22.96h6.24v27.72h-6.24zm12.64 27.72v-27.72h18.56v5.24h-12.32v5.8h10.96v5.24h-10.96v11.44z" fill="#ebdbb2" opacity=".2" aria-label="SIF"/>
  <path d="m109.18 219.96c3.2335 0 4.48-0.98172 4.48-2.88 0-1.533-1.0262-2.6487-5.68-4.2-3.4634-1.2224-7.6-2.955-7.6-8.2 0-5.1508 4.0386-8.32 10.2-8.32 3.7211 0 6.4107 0.94404 8.2 1.92l-1.8 4.92c-1.873-0.99727-3.8907-1.4678-6-1.52-2.9192 0-4.2 0.79833-4.2 2.52 0.24727 2.3866 2.8628 3.0035 4.8 3.68 5.9312 2.1967 8.52 4.0081 8.52 9.24 0 6.7588-5.9696 8.16-10.92 8.16-2.0763 0-6.0494-0.27393-9.28-2.12l1.76-4.96c2.3212 1.3162 4.8902 1.7066 7.52 1.76zm15.72-22.96h6.24v27.72h-6.24zm12.64 27.72v-27.72h18.56v5.24h-12.32v5.8h10.96v5.24h-10.96v11.44z" fill="#b57614" aria-label="SIF"/>
  <path d="m110.58 196.36c-6.1614 0-10.199 3.1676-10.199 8.3184 0 0.53725 0.0531 1.0293 0.13476 1.4961 0.72078-4.2529 4.5304-6.8164 10.064-6.8164 3.1296 0 5.5212 0.67 7.2695 1.4629l0.92969-2.541c-1.7893-0.97596-4.4781-1.9199-8.1992-1.9199zm14.32 0.63867v3h6.2402v-3zm12.639 0v3h18.561v-3zm-30.203 8.6504c-0.37646 0.39203-0.55664 0.90539-0.55664 1.5488 0.24727 2.3866 2.8636 3.0052 4.8008 3.6816 5.285 1.9574 7.9093 3.6144 8.4199 7.6523 0.0628-0.44375 0.0996-0.91108 0.0996-1.4121 0-5.2319-2.5883-7.0435-8.5195-9.2402-1.4671-0.51232-3.3223-0.99189-4.2441-2.2305zm36.443 2.3906v2.998h10.961v-2.998zm-42.119 10.16-1.7598 4.959c0.29444 0.16826 0.5956 0.31977 0.90038 0.46289l0.85938-2.4238c2.3212 1.3162 4.8898 1.7083 7.5195 1.7617 3.2335 0 4.4805-0.98258 4.4805-2.8809 0-0.50876-0.11834-0.97192-0.43946-1.4199-0.60621 0.85949-1.8775 1.3008-4.041 1.3008-2.6298-0.0534-5.1983-0.44361-7.5195-1.7598z" fill="#282828" opacity=".2"/>
  <path d="m57 19.729c-4.377 0-9.4396 0.12559-13.432 1.416-1.7794 2.2583-2.9691 5.0356-3.3931 8.1943l78.141 78.108-73.586 73.553h31.121l58.025-58 58.025 58h24.098v-7.0176l-154.32-154.25z" fill="#ebdbb2" opacity=".1" style="paint-order:markers fill stroke"/>
  <path d="m57 15c-7.6123 0-13.535 4.1374-15.891 10.542l77.208 77.177-78.316 78.281h31.121l62.756-62.729 62.756 62.729h19.367v-11.746l-154.32-154.25z" fill="#b57614" style="paint-order:markers fill stroke"/>
  <path d="m57 15 159 158.98v-4.7285l-154.32-154.25zm58.951 90.082-75.951 75.918h4.7305l73.586-73.553z" fill="#282828" opacity=".2" style="paint-order:markers fill stroke"/>
  <path d="m95.48 39.945c-22.098 1e-3 -40.012 17.592-40.012 39.291 0 1.3561 0.11395 2.607 0.25 3.9277 0.10964 1.3144 0.28633 2.6423 0.5 3.9297 4.5816 27.616 23.259 47.177 39.264 62.893 16.005-15.716 34.68-35.273 39.262-62.893 0.21367-1.2874 0.39036-2.6152 0.5-3.9297 0.13684-1.3208 0.25-2.5716 0.25-3.9277 0-21.699-17.914-39.29-40.012-39.291zm2e-3 20.008c9.2078 0 16.672 7.4641 16.672 16.672 0 9.2078-7.4641 16.672-16.672 16.672-9.2078 0-16.674-7.4641-16.674-16.672 0-9.2078 7.466-16.672 16.674-16.672z" fill="#282828" opacity=".2" stroke-width="3.3345"/>
  <path d="m95.481 34.765c-22.098 1e-3 -40.012 17.592-40.012 39.291 0 1.3561 0.11395 2.607 0.25 3.9277 0.10964 1.3144 0.28633 2.6423 0.5 3.9297 4.5816 27.616 23.259 47.177 39.264 62.893 16.005-15.716 34.68-35.273 39.262-62.893 0.21367-1.2874 0.39036-2.6152 0.5-3.9297 0.13684-1.3208 0.25-2.5716 0.25-3.9277 0-21.699-17.914-39.29-40.012-39.291zm2e-3 20.008c9.2078 0 16.672 7.4641 16.672 16.672 0 9.2078-7.4641 16.672-16.672 16.672-9.2078 0-16.674-7.4641-16.674-16.672 0-9.2078 7.466-16.672 16.674-16.672z" fill="#fabd2f" stroke-width="3.3345"/>
  <path d="m95.482 34.765c-22.098 1e-3 -40.012 17.592-40.012 39.291 0 0.82007 0.04839 1.6046 0.11133 2.3867 1.4598-20.395 18.759-36.497 39.9-36.498h2e-3c21.144 9.97e-4 38.447 16.109 39.902 36.508 0.0633-0.78529 0.10937-1.5731 0.10937-2.3965 0-21.699-17.914-39.29-40.012-39.291z" fill="#ebdbb2" opacity=".2" stroke-width="3.3345"/>
  <path d="m57 15c-9.9393 0-17 7.0595-17 17v192c0 9.9393 7.0595 17 17 17h142c9.9405 0 17-7.0607 17-17v-144l-65-64.998zm4.0332 4.9902 89.967 2e-3 60 60.009v139.75c0 9.4999-6.6575 16.248-16.033 16.248h-133.93c-9.3757 0-16.033-6.7481-16.033-16.248v-183.51c0-9.501 6.6586-16.25 16.033-16.25z" fill="url(#linearGradient14-5-5)" style="paint-order:markers fill stroke"/>
  <path d="m151 15.002v52.914c0 9.6525 7.8639 17.084 17.518 17.084l47.482-1.34e-4v-5z" fill="#282828" opacity=".3" stroke-width="1.0833"/>
  <path d="m151 15.001v47.916c0 9.6525 7.8639 17.084 17.518 17.084l47.482-1.34e-4z" fill="url(#linearGradient7-6-0-3)" stroke-width="1.0833"/>
</svg>
