<svg width="256" height="256" version="1.1" viewBox="0 0 256 256" xmlns="http://www.w3.org/2000/svg">
  <defs>
    <linearGradient id="linearGradient7-6-0" x1="186" x2="156" y1="45.006" y2="75.012" gradientTransform="matrix(1.0833 0 0 1.0833 -17.999 -1.2511)" gradientUnits="userSpaceOnUse">
      <stop stop-color="#fabd2f" offset="0"/>
      <stop stop-color="#d79921" offset=".3027"/>
      <stop stop-color="#b57614" offset="1"/>
    </linearGradient>
    <linearGradient id="linearGradient14-5" x1="128" x2="128" y1="15.001" y2="241" gradientTransform="translate(0,4.8e-4)" gradientUnits="userSpaceOnUse">
      <stop stop-color="#ebdbb2" stop-opacity=".2" offset="0"/>
      <stop stop-color="#ebdbb2" stop-opacity=".2" offset=".2"/>
      <stop stop-opacity="0" offset=".70405"/>
      <stop stop-opacity=".05" offset=".80473"/>
      <stop stop-opacity=".1" offset="1"/>
    </linearGradient>
    <linearGradient id="linearGradient26" x1="-160" x2="-160" y2="226" gradientTransform="translate(267,15)" gradientUnits="userSpaceOnUse">
      <stop stop-color="#b57614" offset="0"/>
      <stop stop-color="#b57614" offset="1"/>
    </linearGradient>
  </defs>
  <path d="m57 15c-9.9393 0-17 7.0595-17 17v192c0 9.9393 7.0595 17 17 17h142c9.9405 0 17-7.0607 17-17v-144l-64.999-64.999z" fill="url(#linearGradient26)" stroke-linecap="round" stroke-linejoin="round" stroke-miterlimit="0" style="paint-order:markers fill stroke"/>
  <path d="m57 241c-9.9393 0-17-7.0595-17-17v-43h176v43c0 9.9405-7.0607 17-17 17z" fill="#fabd2f" opacity=".8" stroke-linecap="round" stroke-linejoin="round" stroke-miterlimit="0" style="paint-order:markers fill stroke"/>
  <path d="m108.56 222.64c0.79723 0.0981 1.5986 0.08 2.4 0.08 7.7941 0 9.2-5.1581 9.2-8.88 0-7.853-5.2303-8.84-9-8.84-0.86857 4e-3 -1.7356 0.0424-2.6 0.12zm18.04-8.8c0 12.439-10.106 14.24-15.96 14.24-0.88703 0-4.9869-0.041-8.32-0.72v-27c0.13451-0.0249 3.6911-0.68 8.52-0.68 7.5066 0 15.76 2.6232 15.76 14.16zm14.44 14.24c-3.9745 0-6.8192-0.28408-9.24-0.8v-26.88c2.835-0.53155 6.6089-0.72 8.44-0.72 5.7428 0 12.08 1.2536 12.08 7.8 0 2.2133-1.0667 3.96-3.2 5.24 3.0743 1.0716 4.4184 3.479 4.56 6.6 0 6.8145-5.901 8.76-12.64 8.76zm-3.16-12.44v7.16c0.98081 0.11539 2.0707 0.16 3.24 0.16 2.8306-6e-3 5.9596-0.46056 6.24-3.76 0-0.94028-0.0632-3.56-5.56-3.56zm0-4.76h3.04c3.4646 0 5.36-0.71411 5.36-3.12 0-1.4248-0.57021-3.04-5.04-3.04-1.1212 0.0106-2.2423 0.0329-3.36 0.12z" fill="#ebdbb2" opacity=".2" aria-label="SDBI"/>
  <path d="m108.56 219.64c0.79723 0.0981 1.5986 0.08 2.4 0.08 7.7941 0 9.2-5.1581 9.2-8.88 0-7.853-5.2303-8.84-9-8.84-0.86857 4e-3 -1.7356 0.0424-2.6 0.12zm18.04-8.8c0 12.439-10.106 14.24-15.96 14.24-0.88703 0-4.9869-0.041-8.32-0.72v-27c0.13451-0.0249 3.6911-0.68 8.52-0.68 7.5066 0 15.76 2.6232 15.76 14.16zm14.44 14.24c-3.9745 0-6.8192-0.28408-9.24-0.8v-26.88c2.835-0.53155 6.6089-0.72 8.44-0.72 5.7428 0 12.08 1.2536 12.08 7.8 0 2.2133-1.0667 3.96-3.2 5.24 3.0743 1.0716 4.4184 3.479 4.56 6.6 0 6.8145-5.901 8.76-12.64 8.76zm-3.16-12.44v7.16c0.98081 0.11539 2.0707 0.16 3.24 0.16 2.8306-6e-3 5.9596-0.46056 6.24-3.76 0-0.94028-0.0632-3.56-5.56-3.56zm0-4.76h3.04c3.4646 0 5.36-0.71411 5.36-3.12 0-1.4248-0.57021-3.04-5.04-3.04-1.1212 0.0106-2.2423 0.0329-3.36 0.12z" fill="#b57614" aria-label="SDBI"/>
  <path d="m110.84 196.68c-4.8289 0-8.385 0.65478-8.5195 0.67969v3c0.13451-0.0249 3.6906-0.67969 8.5195-0.67969 7.1622 0 14.999 2.3949 15.703 12.635 0.0332-0.4763 0.0566-0.96292 0.0566-1.4746 0-11.537-8.2532-14.16-15.76-14.16zm29.4 0c-1.8311 0-5.6045 0.18915-8.4394 0.7207v3c2.835-0.53155 6.6084-0.7207 8.4394-0.7207 5.2288 0 10.934 1.0544 11.916 6.1816 0.10203-0.4394 0.16406-0.89683 0.16406-1.3809 0-6.5464-6.3373-7.8008-12.08-7.8008zm5.678 9.5996c-0.70226 1.2015-2.4128 1.6016-4.998 1.6016h-3.0391v3h3.0391c3.4646 0 5.3594-0.7152 5.3594-3.1211 0-0.49682-0.0815-1.0139-0.36133-1.4805zm5.3066 4.5879c-0.51891 0.69765-1.2142 1.3188-2.1055 1.8535 2.6228 0.91417 3.9783 2.8051 4.4102 5.2774 0.0884-0.52735 0.15039-1.0766 0.15039-1.6777-0.10354-2.2823-0.85903-4.1773-2.4551-5.4531zm-31.145 1.4453c-0.38127 3.4754-2.3133 7.4082-9.1191 7.4082-0.80135 0-1.6032 0.018-2.4004-0.0801v3c0.79723 0.0981 1.599 0.0801 2.4004 0.0801 7.7941 0 9.1992-5.159 9.1992-8.8809 0-0.54411-0.0321-1.0472-0.0801-1.5273zm26.926 5.2715c-0.93958 2.0443-3.5151 2.3719-5.8867 2.377-1.1693 0-2.2575-0.0448-3.2383-0.16016v3c0.98081 0.11539 2.069 0.16016 3.2383 0.16016 2.8306-6e-3 5.9598-0.46228 6.2402-3.7617 0-0.36755-0.0134-0.99123-0.35352-1.6152z" fill="#282828" opacity=".2"/>
  <path d="m128 50c-28.029 0-53 8.3487-53 22.5v75c0 14.149 24.966 22.5 53 22.5 27.836 0 52.644-8.2367 52.984-22.211h0.01562v-75.289c0-14.149-24.966-22.5-53-22.5zm0 10c27.27 0 43 8.3196 43 12.5 0 4.1823-15.736 12.5-43 12.5-27.27 0-43-8.3196-43-12.5 0-4.1823 15.736-12.5 43-12.5zm-43 26.193c9.8385 5.6731 25.839 8.8066 43 8.8066 17.159 0 33.161-3.1331 43-8.8066v11.307c0 4.1823-15.736 12.5-43 12.5-27.27 0-43-8.3196-43-12.5zm0 25c9.8385 5.6731 25.839 8.8066 43 8.8066 17.159 0 33.161-3.1331 43-8.8066v11.307c0 4.1823-15.736 12.5-43 12.5-27.27 0-43-8.3196-43-12.5zm0 25c9.8385 5.6731 25.839 8.8066 43 8.8066 17.159 0 33.161-3.1331 43-8.8066v11.307c0 4.1823-15.736 12.5-43 12.5-27.27 0-43-8.3196-43-12.5z" fill="#282828" opacity=".1" stroke-linecap="round" stroke-linejoin="round" stroke-miterlimit="0" stroke-width="2.0059" style="paint-order:markers fill stroke"/>
  <path d="m128 45c-28.029 0-53 8.3487-53 22.5v75c0 14.149 24.966 22.5 53 22.5 27.836 0 52.644-8.2367 52.984-22.211h0.01562v-75.289c0-14.149-24.966-22.5-53-22.5zm0 10c27.27 0 43 8.3196 43 12.5 0 4.1823-15.736 12.5-43 12.5-27.27 0-43-8.3196-43-12.5 0-4.1823 15.736-12.5 43-12.5zm-43 26.193c9.8385 5.6731 25.839 8.8066 43 8.8066 17.159 0 33.161-3.1331 43-8.8066v11.307c0 4.1823-15.736 12.5-43 12.5-27.27 0-43-8.3196-43-12.5zm0 25c9.8385 5.6731 25.839 8.8066 43 8.8066 17.159 0 33.161-3.1331 43-8.8066v11.307c0 4.1823-15.736 12.5-43 12.5-27.27 0-43-8.3196-43-12.5zm0 25c9.8385 5.6731 25.839 8.8066 43 8.8066 17.159 0 33.161-3.1331 43-8.8066v11.307c0 4.1823-15.736 12.5-43 12.5-27.27 0-43-8.3196-43-12.5z" fill="#fabd2f" stroke-linecap="round" stroke-linejoin="round" stroke-miterlimit="0" stroke-width="2.0059" style="paint-order:markers fill stroke"/>
  <path d="m128 45c-28.029 0-53 8.3487-53 22.5v5c0-14.151 24.971-22.5 53-22.5 28.034 0 53 8.3506 53 22.5v-5c0-14.149-24.966-22.5-53-22.5zm-41.561 25c-0.93214 0.91335-1.4395 1.7717-1.4395 2.5 0 4.1804 15.73 12.5 43 12.5 27.264 0 43-8.3177 43-12.5 0-0.7284-0.50647-1.5862-1.4394-2.5-4.4207 4.3316-19.044 10-41.561 10-22.518 0-37.139-5.6692-41.561-10zm-1.4395 22.5v5c0 4.1804 15.73 12.5 43 12.5 27.264 0 43-8.3177 43-12.5v-5c0 4.1823-15.736 12.5-43 12.5-27.27 0-43-8.3196-43-12.5zm0 25v5c0 4.1804 15.73 12.5 43 12.5 27.264 0 43-8.3177 43-12.5v-5c0 4.1823-15.736 12.5-43 12.5-27.27 0-43-8.3196-43-12.5zm0 25v5c0 4.1804 15.73 12.5 43 12.5 27.264 0 43-8.3177 43-12.5v-5c0 4.1823-15.736 12.5-43 12.5-27.27 0-43-8.3196-43-12.5z" fill="#ebdbb2" opacity=".3" stroke-linecap="round" stroke-linejoin="round" stroke-miterlimit="0" stroke-width="2.0059" style="paint-order:markers fill stroke"/>
  <path d="m57 15c-9.9393 0-17 7.0595-17 17v192c0 9.9393 7.0595 17 17 17h142c9.9405 0 17-7.0607 17-17v-144l-65-64.998zm4.0332 4.9902 89.967 2e-3 60 60.009v139.75c0 9.4999-6.6575 16.248-16.033 16.248h-133.93c-9.3757 0-16.033-6.7481-16.033-16.248v-183.51c0-9.501 6.6586-16.25 16.033-16.25z" fill="url(#linearGradient14-5)" style="paint-order:markers fill stroke"/>
  <path d="m151 15.002v52.914c0 9.6525 7.8639 17.084 17.518 17.084l47.482-1.3e-4v-5z" fill="#282828" opacity=".3" stroke-width="1.0833"/>
  <path d="m151 15v47.916c0 9.6525 7.8639 17.084 17.518 17.084l47.482-1.3e-4z" fill="url(#linearGradient7-6-0)" stroke-width="1.0833"/>
</svg>
