<svg width="256" height="256" version="1.1" viewBox="0 0 256 256" xmlns="http://www.w3.org/2000/svg">
  <defs>
    <linearGradient id="linearGradient26" x1="-160" x2="-160" y2="226" gradientTransform="translate(267,15)" gradientUnits="userSpaceOnUse">
      <stop stop-color="#fe8019" offset="0"/>
      <stop stop-color="#fe8019" offset="1"/>
    </linearGradient>
    <linearGradient id="linearGradient7-6-0-1" x1="186" x2="156" y1="45.006" y2="75.012" gradientTransform="matrix(1.0833 0 0 1.0833 -17.998 -1.251)" gradientUnits="userSpaceOnUse">
      <stop stop-color="#fe8019" offset="0"/>
      <stop stop-color="#d65d0e" offset=".3027"/>
      <stop stop-color="#af3a03" offset="1"/>
    </linearGradient>
    <linearGradient id="linearGradient14-5-9" x1="128" x2="128" y1="15.001" y2="241" gradientTransform="translate(0,4.8e-4)" gradientUnits="userSpaceOnUse">
      <stop stop-color="#ebdbb2" stop-opacity=".2" offset="0"/>
      <stop stop-color="#ebdbb2" stop-opacity=".1" offset=".2"/>
      <stop stop-opacity="0" offset=".70405"/>
      <stop stop-opacity=".05" offset=".80473"/>
      <stop stop-opacity=".1" offset="1"/>
    </linearGradient>
  </defs>
  <path d="m57 15c-9.9393 0-17 7.0595-17 17v192c0 9.9393 7.0595 17 17 17h142c9.9405 0 17-7.0607 17-17v-144l-64.999-64.999z" fill="url(#linearGradient26)" stroke-linecap="round" stroke-linejoin="round" stroke-miterlimit="0" style="paint-order:markers fill stroke"/>
  <path d="m57 241c-9.9393 0-17-7.0595-17-17v-43h176v43c0 9.9405-7.0607 17-17 17z" fill="#af3a03" opacity=".3" stroke-linecap="round" stroke-linejoin="round" stroke-miterlimit="0" style="paint-order:markers fill stroke"/>
  <path d="m108.34 227.72c-3.2366-5.7486-7.4258-12.291-12.44-18.16v18.16h-6.16v-27.72h5.08c4.3447 4.3447 10.344 13.037 12.56 16.36v-16.36h6.2v27.72zm31.2-23.4c-3.2392 3.3405-9.7476 11.606-13.68 18.16h14.12v5.24h-21.8v-3.72c1.9483-3.5487 7.1858-11.657 13.08-18.76h-12.44v-5.24h20.72zm14.08 23.76c-3.9745 0-6.8192-0.28408-9.24-0.8v-26.88c2.835-0.53155 6.6089-0.72 8.44-0.72 5.7428 0 12.08 1.2536 12.08 7.8 0 2.2133-1.0667 3.96-3.2 5.24 3.0743 1.0716 4.4184 3.479 4.56 6.6 0 6.8145-5.901 8.76-12.64 8.76zm-3.16-12.44v7.16c0.98081 0.11539 2.0707 0.16 3.24 0.16 2.8306-6e-3 5.9596-0.46056 6.24-3.76 0-0.94028-0.0632-3.56-5.56-3.56zm0-4.76h3.04c3.4646 0 5.36-0.71411 5.36-3.12 0-1.4248-0.57021-3.04-5.04-3.04-1.1212 0.0106-2.2423 0.0329-3.36 0.12z" fill="#ebdbb2" opacity=".15" aria-label="NZB"/>
  <path d="m108.34 224.72c-3.2366-5.7486-7.4258-12.291-12.44-18.16v18.16h-6.16v-27.72h5.08c4.3447 4.3447 10.344 13.037 12.56 16.36v-16.36h6.2v27.72zm31.2-23.4c-3.2392 3.3405-9.7476 11.606-13.68 18.16h14.12v5.24h-21.8v-3.72c1.9483-3.5487 7.1858-11.657 13.08-18.76h-12.44v-5.24h20.72zm14.08 23.76c-3.9745 0-6.8192-0.28408-9.24-0.8v-26.88c2.835-0.53155 6.6089-0.72 8.44-0.72 5.7428 0 12.08 1.2536 12.08 7.8 0 2.2133-1.0667 3.96-3.2 5.24 3.0743 1.0716 4.4184 3.479 4.56 6.6 0 6.8145-5.901 8.76-12.64 8.76zm-3.16-12.44v7.16c0.98081 0.11539 2.0707 0.16 3.24 0.16 2.8306-6e-3 5.9596-0.46056 6.24-3.76 0-0.94028-0.0632-3.56-5.56-3.56zm0-4.76h3.04c3.4646 0 5.36-0.71411 5.36-3.12 0-1.4248-0.57021-3.04-5.04-3.04-1.1212 0.0106-2.2423 0.0329-3.36 0.12z" fill="#af3a03" aria-label="NZB"/>
  <path d="m152.82 196.68c-1.8311 0-5.6045 0.18915-8.4394 0.7207v3c2.835-0.53155 6.6084-0.7207 8.4394-0.7207 5.2288 0 10.934 1.0544 11.916 6.1816 0.10202-0.4394 0.16406-0.89683 0.16406-1.3809 0-6.5464-6.3373-7.8008-12.08-7.8008zm-63.08 0.32031v3h5.0801c4.3447 4.3447 10.345 13.036 12.561 16.359v-3c-2.2156-3.3235-8.2158-12.015-12.561-16.359zm17.641 0v3h6.1992v-3zm11.439 0v3h20.719v-3zm10.035 8.2402c-4.8754 6.2652-8.9979 12.704-10.676 15.76v3c1.9483-3.5487 7.1858-11.656 13.08-18.76zm29.643 1.0391c-0.70226 1.2015-2.4128 1.6016-4.998 1.6016h-3.0391v3h3.0391c3.4646 0 5.3594-0.7152 5.3594-3.1211 0-0.49682-0.0815-1.0139-0.36133-1.4805zm5.3105 4.582c-0.5193 0.69998-1.2157 1.3232-2.1094 1.8594 2.6228 0.91417 3.9783 2.8051 4.4102 5.2774 0.0884-0.52735 0.15039-1.0766 0.15039-1.6777-0.10359-2.2833-0.85375-4.1832-2.4512-5.459zm-4.2226 6.7226c-0.93959 2.0443-3.5151 2.3719-5.8867 2.377-1.1693 0-2.2575-0.0448-3.2383-0.16016v3c0.98081 0.11539 2.069 0.16016 3.2383 0.16016 2.8306-6e-3 5.9598-0.46228 6.2402-3.7617 0-0.36755-0.0134-0.99123-0.35351-1.6152zm-31.822 1.8965c-0.67468 1.0218-1.3232 2.0316-1.9043 3h14.121v-3z" fill="#282828" opacity=".2"/>
  <path d="m152.33 67.666v18.25l27.375 24.333-27.375 24.333v18.25l48.667-41.776zm-17.37 0.17825-25.188 94.026 11.751 3.1486 25.2-94.026zm-31.296 11.988-48.667 43.392 48.667 41.776v-18.25l-27.375-24.333 27.375-24.333z" fill="#ebdbb2" opacity=".15" stroke-width=".9271"/>
  <path d="m152.33 62.647v18.25l27.375 24.333-27.375 24.333v18.25l48.667-41.776zm-17.37 0.17825-25.188 94.026 11.751 3.1486 25.2-94.026zm-31.296 11.988-48.667 43.392 48.667 41.776v-18.25l-27.375-24.333 27.375-24.333z" fill="#af3a03" stroke-width=".9271"/>
  <path d="m152.33 62.647v5.0195l45.797 40.834 2.8691-2.4629zm-17.371 0.17969-25.188 94.025 1.2539 0.33594 23.934-89.344 10.51 2.8125 1.2539-4.6816zm-31.297 11.988-48.666 43.391 2.8691 2.4629 45.797-40.836zm73.219 32.926-24.551 21.824v5.0176l27.375-24.332zm-97.771 12.166-2.8223 2.5098 27.375 24.334v-5.0195z" fill="#282828" opacity=".2" stroke-width=".9271"/>
  <path d="m57 15c-9.9393 0-17 7.0595-17 17v192c0 9.9393 7.0595 17 17 17h142c9.9405 0 17-7.0607 17-17v-144l-65-64.998zm4.0332 4.9902 89.967 2e-3 60 60.009v139.75c0 9.4999-6.6575 16.248-16.033 16.248h-133.93c-9.3757 0-16.033-6.7481-16.033-16.248v-183.51c0-9.501 6.6586-16.25 16.033-16.25z" fill="url(#linearGradient14-5-9)" style="paint-order:markers fill stroke"/>
  <path d="m151 15.002v52.914c0 9.6525 7.8639 17.084 17.518 17.084l47.482-1.34e-4v-5z" fill="#282828" opacity=".3" stroke-width="1.0833"/>
  <path d="m151 15.001v47.916c0 9.6525 7.8639 17.084 17.518 17.084l47.482-1.34e-4z" fill="url(#linearGradient7-6-0-1)" stroke-width="1.0833"/>
</svg>
