<svg width="256" height="256" version="1.1" viewBox="0 0 256 256" xmlns="http://www.w3.org/2000/svg">
  <defs>
    <linearGradient id="linearGradient21" x1="128" x2="128" y1="15" y2="241" gradientTransform="translate(-9.7e-4,-9.75e-4)" gradientUnits="userSpaceOnUse">
      <stop stop-color="#ebdbb2" offset="0"/>
      <stop stop-color="#d5c4a1" offset="1"/>
    </linearGradient>
    <linearGradient id="linearGradient7-6-0-1" x1="186" x2="156" y1="45.006" y2="75.012" gradientTransform="matrix(1.0833,0,0,1.0833,-17.998,-1.2491)" gradientUnits="userSpaceOnUse">
      <stop stop-color="#d3869b" offset="0"/>
      <stop stop-color="#b16286" offset=".3027"/>
      <stop stop-color="#8f3f71" offset="1"/>
    </linearGradient>
    <linearGradient id="linearGradient14-0-8" x1="128" x2="128" y1="15.001" y2="241" gradientTransform="translate(0,4.8e-4)" gradientUnits="userSpaceOnUse">
      <stop stop-color="#8f3f71" stop-opacity=".099738" offset="0"/>
      <stop stop-color="#8f3f71" stop-opacity=".048556" offset=".2"/>
      <stop stop-color="#8f3f71" stop-opacity=".053806" offset=".70405"/>
      <stop stop-color="#282828" stop-opacity=".047244" offset=".80473"/>
      <stop stop-color="#282828" stop-opacity=".10367" offset="1"/>
    </linearGradient>
  </defs>
  <path d="m56.999 14.999c-9.9393 0-17 7.0595-17 17v149h176v-101l-64.998-64.998z" fill="url(#linearGradient21)" style="paint-order:markers fill stroke"/>
  <path d="m57 241c-9.9393 0-17-7.0595-17-17v-43h176v43c0 9.9405-7.0607 17-17 17z" fill="#b16286" stroke-linecap="round" stroke-linejoin="round" stroke-miterlimit="0" style="paint-order:markers fill stroke"/>
  <path d="m96.52 227.72c-0.64332-2.0121-1.3562-4.0012-2.04-6h-10.8c-0.7104 1.9905-1.4118 3.9818-2.04 6h-6.48c4.2131-12.099 7.5904-20.624 11.04-27.72h5.96c4.147 8.782 7.4312 17.356 11.04 27.72zm-7.48-21.44c-0.71608 2.1482-1.6498 4.0952-3.92 10.48h7.88c-0.07315-0.20573-1.8629-5.2373-3.96-10.48zm26.08-6.6c12.379 0 12.84 6.5014 12.84 9.32 0 3.3294-0.85048 9.44-12.96 9.44h-1.96v9.28h-6.24v-27.32c3.0028-0.58878 6.4467-0.72 8.32-0.72zm0.4 5.32c-0.95141 0-1.8488 0.0674-2.48 0.12v8h1.96c5.6666 0 6.52-1.933 6.52-4.16 0-2.7192-1.8321-3.96-6-3.96zm25.36-5.32c12.379 0 12.84 6.5014 12.84 9.32 0 3.3294-0.85049 9.44-12.96 9.44h-1.96v9.28h-6.24v-27.32c3.0028-0.58878 6.4467-0.72 8.32-0.72zm0.4 5.32c-0.95141 0-1.8488 0.0674-2.48 0.12v8h1.96c5.6666 0 6.52-1.933 6.52-4.16 0-2.7192-1.8321-3.96-6-3.96zm32.08 22.72c-0.95148-1.903-3.0803-5.9231-5.72-9.56-2.4596 3.1624-5.5122 8.7835-5.88 9.56h-7.12c2.4908-4.5853 5.4549-8.9918 9.32-14.36l-8.92-13.36h7.56l5.4 8.64 5.28-8.64h7.12l-8.8 13.44c2.0317 2.6364 5.968 8.0335 9.24 14.28z" fill="#282828" opacity=".2" aria-label="APPX"/>
  <path d="m96.52 224.72c-0.64332-2.0121-1.3562-4.0012-2.04-6h-10.8c-0.7104 1.9905-1.4118 3.9818-2.04 6h-6.48c4.2131-12.099 7.5904-20.624 11.04-27.72h5.96c4.147 8.782 7.4312 17.356 11.04 27.72zm-7.48-21.44c-0.71608 2.1482-1.6498 4.0952-3.92 10.48h7.88c-0.07315-0.20573-1.8629-5.2373-3.96-10.48zm26.08-6.6c12.379 0 12.84 6.5014 12.84 9.32 0 3.3294-0.85048 9.44-12.96 9.44h-1.96v9.28h-6.24v-27.32c3.0028-0.58878 6.4467-0.72 8.32-0.72zm0.4 5.32c-0.95141 0-1.8488 0.0674-2.48 0.12v8h1.96c5.6666 0 6.52-1.933 6.52-4.16 0-2.7192-1.8321-3.96-6-3.96zm25.36-5.32c12.379 0 12.84 6.5014 12.84 9.32 0 3.3294-0.85049 9.44-12.96 9.44h-1.96v9.28h-6.24v-27.32c3.0028-0.58878 6.4467-0.72 8.32-0.72zm0.4 5.32c-0.95141 0-1.8488 0.0674-2.48 0.12v8h1.96c5.6666 0 6.52-1.933 6.52-4.16 0-2.7192-1.8321-3.96-6-3.96zm32.08 22.72c-0.95148-1.903-3.0803-5.9231-5.72-9.56-2.4596 3.1624-5.5122 8.7835-5.88 9.56h-7.12c2.4908-4.5853 5.4549-8.9918 9.32-14.36l-8.92-13.36h7.56l5.4 8.64 5.28-8.64h7.12l-8.8 13.44c2.0317 2.6364 5.968 8.0335 9.24 14.28z" fill="#ebdbb2" aria-label="APPX"/>
  <path d="m115.12 196.68c-1.8733 0-5.3156 0.13192-8.3184 0.7207v3c3.0028-0.58878 6.445-0.7207 8.3184-0.7207 10.506 0 12.423 4.6783 12.764 7.8184 0.0581-0.53526 0.0781-1.0438 0.0781-1.498 0-2.8186-0.46296-9.3203-12.842-9.3203zm25.762 0c-1.8733 0-5.3175 0.13192-8.3203 0.7207v3c3.0028-0.58878 6.447-0.7207 8.3203-0.7207 10.506 0 12.421 4.6783 12.762 7.8184 0.0581-0.53527 0.0781-1.0438 0.0781-1.498 0-2.8186-0.461-9.3203-12.84-9.3203zm-54.682 0.32031c-3.4496 7.0962-6.826 15.622-11.039 27.721h1.0723c3.7098-10.46 6.8238-18.255 9.9668-24.721h5.9609c3.7306 7.9001 6.7702 15.703 9.9688 24.721h1.0703c-3.6088-10.364-6.892-18.939-11.039-27.721zm68.84 0 2.0039 3h5.5566l5.4004 8.6406 5.2793-8.6406h5.1562l1.9648-3h-7.1211l-5.2793 8.6406-5.4004-8.6406zm-33.75 10.568c-0.51288 1.4727-2.0588 2.5508-6.2891 2.5508h-1.959v3h1.959c5.6666 0 6.5195-1.9312 6.5195-4.1582 0-0.52378-0.0909-0.97681-0.23047-1.3926zm25.76 0c-0.51288 1.4727-2.0588 2.5508-6.2891 2.5508h-1.959v3h1.959c5.6666 0 6.5195-1.9312 6.5195-4.1582 0-0.52378-0.0909-0.97681-0.23047-1.3926zm15.881 4.2461c-3.3511 4.7081-6.0327 8.7526-8.2891 12.906h1.7207c2.1231-3.5623 4.5813-7.1692 7.5996-11.361zm9.7168 0.0254-1.0469 1.5996c1.6967 2.2017 4.7191 6.3421 7.5762 11.281h1.6641c-2.8072-5.3591-6.0305-9.9791-8.1934-12.881zm-86.432 1.9199c-0.33719 0.9109-0.67311 1.8115-1.0957 3h7.8809c-0.03274-0.0921-0.4978-1.3886-1.0918-3z" fill="#fbf1c7" opacity=".6"/>
  <path d="m181 58.834-57.821 8.3201v39.866h57.821zm-67.455 9.6815-38.545 5.4467v33.048h38.545zm-38.545 48.132v33.352l38.545 5.3916v-38.745zm48.179 0v40.091l57.821 8.0879v-48.179z" fill="#ebdbb2" opacity=".6" stroke-width="9.6344" style="isolation:isolate"/>
  <path d="m181 53.834-57.821 8.3201v39.866h57.821zm-67.455 9.6815-38.545 5.4467v33.048h38.545zm-38.545 48.132v33.352l38.545 5.3916v-38.745zm48.179 0v40.091l57.821 8.0879v-48.179z" fill="#b16286" stroke-width="9.6344" style="isolation:isolate"/>
  <path d="m181 53.834-57.82 8.3203v5l57.82-8.3203zm-67.455 9.6816-38.545 5.4473v5l38.545-5.4473zm0 48.131-38.545 2e-3v5l38.545-2e-3zm9.6348 2e-3v5h57.82v-5z" fill="#282828" opacity=".2" style="isolation:isolate"/>
  <path d="m57 15c-9.9393 0-17 7.0595-17 17v192c0 9.9393 7.0595 17 17 17h142c9.9405 0 17-7.0607 17-17v-144l-65-65zm4.0332 4.9902 89.967 0.01 60 60 2e-4 139.75c1e-5 9.4999-6.6575 16.248-16.033 16.248h-133.93c-9.3757 0-16.033-6.7481-16.033-16.248v-183.51c0-9.501 6.6586-16.25 16.033-16.25z" fill="url(#linearGradient14-0-8)" style="paint-order:markers fill stroke"/>
  <path d="m151 15.002v52.914c0 9.6525 7.8639 17.084 17.518 17.084l47.482-1.34e-4v-5z" fill="#282828" opacity=".2" stroke-width="1.0833"/>
  <path d="m151 15.002v47.916c0 9.6525 7.8639 17.084 17.518 17.084l47.482-1.34e-4z" fill="url(#linearGradient7-6-0-1)" stroke-width="1.0833"/>
</svg>
