<svg width="256" height="256" fill="none" version="1.1" viewBox="0 0 256 256" xmlns="http://www.w3.org/2000/svg">
  <path d="m55.08 15h100.5l60.4 60.15 2e-3 148.9c0 8.911-7.262 16.13-16.17 16.13h-144.8c-8.91 0-16.08-7.174-16.08-16.08v-193c0-8.91 7.173-16.08 16.08-16.08h1e-4z" fill="#ebdbb2"/>
  <path d="m155.6 22.98h-100.5c-4.504 0-8.105 3.601-8.105 8.105v193c0 4.504 3.601 8.105 8.105 8.105h144.8c4.533 0 8.194-3.674 8.194-8.149v-148.9l-52.42-52.17zm-1e-3 -7.979h-100.5c-8.91 0-16.08 7.173-16.08 16.08v193c0 8.91 7.173 16.08 16.08 16.08h144.8c8.911 0 16.17-7.218 16.17-16.13l-2e-3 -148.9-60.4-60.15z" clip-rule="evenodd" fill="url(#paint0_linear)" fill-rule="evenodd"/>
  <path d="m137.3 73-45.69 54.11c11.9 1.909 31.99 16.96 28.96 36.93 6.172-14.82-5.166-32.89-16.06-40.19l39.85-47.6c-2.135-1.572-3.817-2.358-7.071-3.258zm-15.37 3.776c-1.776 0.0075-3.11 0.2645-3.038 0.2645l-14.59 16.73c-8.194 0.4498-16.17 1.013-23.91 1.795-5.503 0.5631-9.88 4.94-10.67 10.78-1.144 10.66-1.705 21.38-1.682 32.1 0 11.11 0.5594 21.89 1.682 32.22 0.7861 6.513 5.163 9.767 10.67 10.78 15.27 2.472 37.38 0.113 37.38-20.88 0-19.65-32.22-28.06-43.22-22.68l50.85-60.73c-1.138-0.267-2.305-0.3939-3.474-0.3779zm33.56 17.22s-28.62 63.54-31.43 70.05c-4.264 9.653-10.1 16.72-18.52 19.2 7.408 0.336 14.82 0.446 22.45 0.446 16.72 0 32.67-0.786 47.6-2.245 5.499-0.559 9.989-5.05 10.67-10.77 1.236-10.33 1.795-21.11 1.795-32.22 0-11.11-0.559-21.89-1.795-32.1-0.677-5.839-5.167-10.22-10.67-10.78-6.683-0.7045-13.38-1.229-20.1-1.572z" clip-rule="evenodd" fill="url(#paint1_linear)" fill-rule="evenodd"/>
  <path d="m155.6 17v44.23c0 8.91 7.259 15.93 16.17 15.93l44.23-0.0112v-2l-60.4-58.15z" fill="#282828" opacity=".25"/>
  <path d="m155.6 15v44.23c0 8.91 7.259 15.93 16.17 15.93l44.23-0.0112-60.4-60.15z" fill="url(#paint2_linear)"/>
  <defs>
    <linearGradient id="paint0_linear" x1="39" x2="39" y1="15" y2="240.2" gradientUnits="userSpaceOnUse">
      <stop stop-color="#fe8019" offset="1e-7"/>
      <stop stop-color="#fb4934" offset=".5"/>
      <stop stop-color="#cc241d" offset="1"/>
    </linearGradient>
    <linearGradient id="paint1_linear" x1="68" x2="68" y1="73" y2="183.7" gradientUnits="userSpaceOnUse">
      <stop stop-color="#fe8019" offset="1e-7"/>
      <stop stop-color="#fb4934" offset=".5"/>
      <stop stop-color="#cc241d" offset="1"/>
    </linearGradient>
    <linearGradient id="paint2_linear" x1="155.6" x2="155.6" y1="15" y2="75.16" gradientUnits="userSpaceOnUse">
      <stop stop-color="#fe8019" offset="1e-7"/>
      <stop stop-color="#fb4934" offset=".5"/>
      <stop stop-color="#cc241d" offset="1"/>
    </linearGradient>
  </defs>
</svg>
