<svg width="256" height="256" version="1.1" viewBox="0 0 256 256" xmlns="http://www.w3.org/2000/svg">
  <defs>
    <linearGradient id="linearGradient21" x1="128" x2="128" y1="15" y2="241" gradientUnits="userSpaceOnUse">
      <stop stop-color="#ebdbb2" offset="0"/>
      <stop stop-color="#d5c4a1" offset="1"/>
    </linearGradient>
    <linearGradient id="linearGradient7-6-0-3-69" x1="186" x2="156" y1="45.006" y2="75.012" gradientTransform="matrix(1.0833,0,0,1.0833,-17.997,-1.2515)" gradientUnits="userSpaceOnUse">
      <stop stop-color="#8ec07c" offset="0"/>
      <stop stop-color="#689d6a" offset=".3027"/>
      <stop stop-color="#427b58" offset="1"/>
    </linearGradient>
    <linearGradient id="linearGradient14-2-5" x1="128" x2="128" y1="15.001" y2="241" gradientTransform="translate(0,4.8e-4)" gradientUnits="userSpaceOnUse">
      <stop stop-color="#427b58" stop-opacity=".099355" offset="0"/>
      <stop stop-color="#427b58" stop-opacity=".052903" offset=".2"/>
      <stop stop-color="#282828" stop-opacity=".046452" offset=".70405"/>
      <stop stop-color="#282828" stop-opacity=".049032" offset=".80473"/>
      <stop stop-color="#282828" stop-opacity=".099355" offset="1"/>
    </linearGradient>
  </defs>
  <path d="m57 15c-9.9393 0-17 7.0595-17 17v149h176v-101l-64.998-64.998-94.002-0.00195z" fill="url(#linearGradient21)" style="paint-order:markers fill stroke"/>
  <path d="m57 241c-9.9393 0-17-7.0595-17-17v-43h176v43c0 9.9405-7.0607 17-17 17z" fill="#689d6a" stroke-linecap="round" stroke-linejoin="round" stroke-miterlimit="0" style="paint-order:markers fill stroke"/>
  <path d="m115.82 227.72c-0.95148-1.903-3.0803-5.9231-5.72-9.56-2.4596 3.1624-5.5122 8.7835-5.88 9.56h-7.12c2.4908-4.5853 5.4549-8.9918 9.32-14.36l-8.92-13.36h7.56l5.4 8.64 5.28-8.64h7.12l-8.8 13.44c2.0317 2.6364 5.968 8.0335 9.24 14.28zm19.4-28.04c12.379 0 12.84 6.5014 12.84 9.32 0 3.3294-0.85049 9.44-12.96 9.44h-1.96v9.28h-6.24v-27.32c3.0028-0.58878 6.4467-0.72 8.32-0.72zm0.4 5.32c-0.95141 0-1.8488 0.0674-2.48 0.12v8h1.96c5.6666 0 6.52-1.933 6.52-4.16 0-2.7192-1.8321-3.96-6-3.96zm17.04-5h6.24v27.72h-6.24z" fill="#282828" opacity=".2" aria-label="XPI"/>
  <path d="m115.82 224.72c-0.95148-1.903-3.0803-5.9231-5.72-9.56-2.4596 3.1624-5.5122 8.7835-5.88 9.56h-7.12c2.4908-4.5853 5.4549-8.9918 9.32-14.36l-8.92-13.36h7.56l5.4 8.64 5.28-8.64h7.12l-8.8 13.44c2.0317 2.6364 5.968 8.0335 9.24 14.28zm19.4-28.04c12.379 0 12.84 6.5014 12.84 9.32 0 3.3294-0.85049 9.44-12.96 9.44h-1.96v9.28h-6.24v-27.32c3.0028-0.58878 6.4467-0.72 8.32-0.72zm0.4 5.32c-0.95141 0-1.8488 0.0674-2.48 0.12v8h1.96c5.6666 0 6.52-1.933 6.52-4.16 0-2.7192-1.8321-3.96-6-3.96zm17.04-5h6.24v27.72h-6.24z" fill="#ebdbb2" aria-label="XPI"/>
  <path d="m135.22 196.68c-1.8733 0-5.3175 0.13192-8.3203 0.7207v3c3.0028-0.58878 6.447-0.7207 8.3203-0.7207 10.506 0 12.421 4.6783 12.762 7.8184 0.0581-0.53527 0.0781-1.0438 0.0781-1.498 0-2.8186-0.46101-9.3203-12.84-9.3203zm-37.721 0.32031 2.002 3h5.5586l5.4004 8.6406 5.2793-8.6406h5.1562l1.9629-3h-7.1192l-5.2793 8.6406-5.4004-8.6406zm55.16 0v3h6.2402v-3zm-11.256 10.533c-0.4995 1.4921-2.0381 2.5879-6.3047 2.5879h-1.959v2.998h1.959c5.6666 0 6.5195-1.9312 6.5195-4.1582 0-0.53186-0.0709-1.0072-0.21485-1.4277zm-36.016 4.2832c-3.3508 4.7077-6.0329 8.7508-8.2891 12.904h1.7148c2.1232-3.5627 4.5868-7.1688 7.6055-11.361zm9.7168 0.0254-1.0449 1.5976c1.6967 2.2017 4.7191 6.3421 7.5762 11.281h1.6641c-2.8073-5.3594-6.0324-9.9772-8.1953-12.879z" fill="#fbf1c7" opacity=".6"/>
  <path class="ColorScheme-Text" d="m123.21 55c-6.5214 0-11.786 5.2643-11.786 11.786v11.786h-23.571c-4.3214 0-7.8571 3.5357-7.8571 7.8571v23.571h11.786c6.5214 0 11.786 5.2643 11.786 11.786 0 6.5214-5.2643 11.786-11.786 11.786h-11.786v23.571c0 4.3214 3.5357 7.8571 7.8571 7.8571h23.571v-11.786c0-6.5214 5.2643-11.786 11.786-11.786s11.786 5.2643 11.786 11.786v11.786h23.571c4.3214 0 7.8572-3.5357 7.8572-7.8571v-23.571h11.786c6.5214 0 11.786-5.2643 11.786-11.786 0-6.5214-5.2643-11.786-11.786-11.786h-11.786v-23.571c0-4.3214-3.5357-7.8571-7.8572-7.8571h-23.571v-11.786c0-6.5214-5.2643-11.786-11.786-11.786z" color="#ebdbb2" fill="#ebdbb2" opacity=".6" stroke-width="7.8571"/>
  <path class="ColorScheme-Text" d="m123.21 50c-6.5214 0-11.786 5.2643-11.786 11.786v11.786h-23.571c-4.3214 0-7.8571 3.5357-7.8571 7.8571v23.571h11.786c6.5214 0 11.786 5.2643 11.786 11.786 0 6.5214-5.2643 11.786-11.786 11.786h-11.786v23.571c0 4.3214 3.5357 7.8571 7.8571 7.8571h23.571v-11.786c0-6.5214 5.2643-11.786 11.786-11.786s11.786 5.2643 11.786 11.786v11.786h23.571c4.3214 0 7.8572-3.5357 7.8572-7.8571v-23.571h11.786c6.5214 0 11.786-5.2643 11.786-11.786 0-6.5214-5.2643-11.786-11.786-11.786h-11.786v-23.571c0-4.3214-3.5357-7.8571-7.8572-7.8571h-23.571v-11.786c0-6.5214-5.2643-11.786-11.786-11.786z" color="#ebdbb2" fill="#689d6a" stroke-width="7.8571"/>
  <path class="ColorScheme-Text" d="m123.21 50c-6.5214 0-11.787 5.2637-11.787 11.785v5c0-6.5214 5.2657-11.785 11.787-11.785s11.785 5.2637 11.785 11.785v-5c0-6.5214-5.2637-11.785-11.785-11.785zm-35.357 23.572c-4.3214 0-7.8574 3.534-7.8574 7.8555v5c0-4.3214 3.536-7.8555 7.8574-7.8555h23.57v-5zm47.143 0v5h23.572c4.3214 0 7.8555 3.534 7.8555 7.8555v-5c0-4.3214-3.534-7.8555-7.8555-7.8555zm31.428 31.428v5h11.787c5.6625 0 10.372 3.9705 11.516 9.2852 0.17345-0.80608 0.26953-1.6412 0.26953-2.5 0-6.5214-5.2637-11.785-11.785-11.785zm-63.127 14.285c-1.1436 5.3147-5.853 9.2871-11.516 9.2871h-11.785v5h11.785c6.5214 0 11.787-5.2657 11.787-11.787 0-0.85892-0.098-1.6939-0.27149-2.5z" color="#ebdbb2" fill="#282828" opacity=".2" stroke-width="7.8571"/>
  <path d="m57 15c-9.9393 0-17 7.0595-17 17v192c0 9.9393 7.0595 17 17 17h142c9.9405 0 17-7.0607 17-17v-144l-65-65zm4.0332 4.9902 89.967 0.01 60 60 2e-4 139.75c1e-5 9.4999-6.6575 16.248-16.033 16.248h-133.93c-9.3757 0-16.033-6.7481-16.033-16.248v-183.51c0-9.501 6.6586-16.25 16.033-16.25z" fill="url(#linearGradient14-2-5)" style="paint-order:markers fill stroke"/>
  <path d="m151 15.002v52.914c0 9.6525 7.8639 17.084 17.518 17.084l47.482-1.3e-4v-5z" fill="#282828" opacity=".2" stroke-width="1.0833"/>
  <path d="m151 15v47.916c0 9.6525 7.8639 17.084 17.518 17.084l47.482-1.3e-4z" fill="url(#linearGradient7-6-0-3-69)" stroke-width="1.0833"/>
</svg>
