<svg width="256" height="256" version="1.1" viewBox="0 0 256 256" xmlns="http://www.w3.org/2000/svg">
  <defs>
    <linearGradient id="linearGradient21" x1="128" x2="128" y1="15" y2="241" gradientUnits="userSpaceOnUse">
      <stop stop-color="#ebdbb2" offset="0"/>
      <stop stop-color="#d5c4a1" offset="1"/>
    </linearGradient>
    <linearGradient id="linearGradient7-6-0-1" x1="186" x2="156" y1="45.006" y2="75.012" gradientTransform="matrix(1.0833,0,0,1.0833,-17.998,-1.2516)" gradientUnits="userSpaceOnUse">
      <stop stop-color="#fb4934" offset="0"/>
      <stop stop-color="#cc241d" offset=".3027"/>
      <stop stop-color="#9d0006" offset="1"/>
    </linearGradient>
    <linearGradient id="linearGradient14-4" x1="128" x2="128" y1="15.001" y2="241" gradientTransform="translate(0,4.8e-4)" gradientUnits="userSpaceOnUse">
      <stop stop-color="#9d0006" stop-opacity=".097113" offset="0"/>
      <stop stop-color="#9d0006" stop-opacity=".048556" offset=".2"/>
      <stop stop-color="#9d0006" stop-opacity=".051181" offset=".70405"/>
      <stop stop-color="#282828" stop-opacity=".053806" offset=".80473"/>
      <stop stop-color="#282828" stop-opacity=".14698" offset="1"/>
    </linearGradient>
  </defs>
  <path d="m57 15c-9.9393 0-17 7.0595-17 17v149h176v-101l-64.998-64.998-94.002-0.001953z" fill="url(#linearGradient21)" style="paint-order:markers fill stroke"/>
  <path d="m57 241c-9.9393 0-17-7.0595-17-17v-43h176v43c0 9.9405-7.0607 17-17 17z" fill="#fb4934" stroke-linecap="round" stroke-linejoin="round" stroke-miterlimit="0" style="paint-order:markers fill stroke"/>
  <path d="m110.04 227.72c-3.1136-6.6069-7.5035-17.11-11.04-27.72h6.88c4.3571 13.071 6.1098 17.669 7.28 20.36 1.2876-3.1173 3.8782-10.155 7.28-20.36h6.64c-4.6877 13.452-7.8316 20.912-11.04 27.72zm29.88 0.36c-3.9745 0-6.8192-0.28408-9.24-0.8v-26.88c2.835-0.53155 6.6089-0.72 8.44-0.72 5.7428 0 12.08 1.2536 12.08 7.8 0 2.2133-1.0667 3.96-3.2 5.24 3.0743 1.0716 4.4184 3.479 4.56 6.6 0 6.8145-5.901 8.76-12.64 8.76zm-3.16-12.44v7.16c0.98081 0.11539 2.0707 0.16 3.24 0.16 2.8306-6e-3 5.9596-0.46056 6.24-3.76 0-0.94028-0.0632-3.56-5.56-3.56zm0-4.76h3.04c3.4646 0 5.36-0.71411 5.36-3.12 0-1.4248-0.57021-3.04-5.04-3.04-1.1212 0.0106-2.2423 0.0329-3.36 0.12z" fill="#282828" opacity=".2" aria-label="VB"/>
  <path d="m110.04 224.72c-3.1136-6.6069-7.5035-17.11-11.04-27.72h6.88c4.3571 13.071 6.1098 17.669 7.28 20.36 1.2876-3.1173 3.8782-10.155 7.28-20.36h6.64c-4.6877 13.452-7.8316 20.912-11.04 27.72zm29.88 0.36c-3.9745 0-6.8192-0.28408-9.24-0.8v-26.88c2.835-0.53155 6.6089-0.72 8.44-0.72 5.7428 0 12.08 1.2536 12.08 7.8 0 2.2133-1.0667 3.96-3.2 5.24 3.0743 1.0716 4.4184 3.479 4.56 6.6 0 6.8145-5.901 8.76-12.64 8.76zm-3.16-12.44v7.16c0.98081 0.11539 2.0707 0.16 3.24 0.16 2.8306-6e-3 5.9596-0.46056 6.24-3.76 0-0.94028-0.0632-3.56-5.56-3.56zm0-4.76h3.04c3.4646 0 5.36-0.71411 5.36-3.12 0-1.4248-0.57021-3.04-5.04-3.04-1.1212 0.0106-2.2423 0.0329-3.36 0.12z" fill="#ebdbb2" aria-label="VB"/>
  <path d="m139.12 196.68c-1.8311 0-5.6045 0.18915-8.4394 0.7207v3c2.835-0.53155 6.6084-0.7207 8.4394-0.7207 5.2188 0 10.929 1.0369 11.928 6.1387 0.0955-0.42658 0.15234-0.86952 0.15234-1.3379 0-6.5464-6.3373-7.8008-12.08-7.8008zm-40.119 0.32031c0.33431 1.0029 0.68153 2.0022 1.0293 3h5.8516c4.3571 13.071 6.1091 17.668 7.2793 20.359 1.2876-3.1173 3.8775-10.154 7.2793-20.359h5.5801c0.34982-0.98493 0.69247-1.9438 1.0606-3h-6.6406c-3.4018 10.205-5.9917 17.244-7.2793 20.361-1.1702-2.6915-2.9222-7.2902-7.2793-20.361zm45.803 9.2734c-0.6995 1.2073-2.4113 1.6074-5.002 1.6074h-3.041v3h3.041c3.4646 0 5.3594-0.7152 5.3594-3.1211 0-0.49846-0.0753-1.0186-0.35743-1.4863zm5.3047 4.5879c-0.51928 0.69985-1.2139 1.3233-2.1074 1.8594 2.6343 0.9182 3.9944 2.8183 4.4199 5.3066 0.0902-0.53212 0.14063-1.0996 0.14063-1.707-0.10362-2.284-0.85465-4.1832-2.4531-5.459zm-4.2226 6.7226c-0.93986 2.0437-3.5134 2.3719-5.8848 2.377-1.1693 0-2.2594-0.0448-3.2402-0.16016v3c0.98081 0.11539 2.071 0.16016 3.2402 0.16016 2.8306-6e-3 5.9598-0.46228 6.2402-3.7617 0-0.3676-0.0153-0.99116-0.35546-1.6152z" fill="#fbf1c7" opacity=".6"/>
  <path d="m88.852 75.875c-8.2855-0.01831-13.852 5.939-13.852 13.08 0 7.1411 5.5524 13.03 13.863 13.033h78.273c8.3109-3e-3 13.863-5.8921 13.863-13.033 0-7.1411-5.566-13.098-13.852-13.08zm0.03711 3.2129h78.223c6.5794 0.01267 10.619 4.4104 10.619 9.8496 0 5.4392-4.0144 9.8721-10.619 9.8496h-78.223c-6.6048 0.0239-10.617-4.4104-10.617-9.8496 0-5.4406 4.0378-9.8369 10.617-9.8496zm11.66 3.6738v2.5117h3.7051v-2.5117zm-15.033 2e-3 -2e-3 12.293h3.8066v-8.5723l5.3262 8.5723h3.7949v-12.293h-3.8008l2e-3 8.5723-5.2969-8.5723zm69.57 0s-1e-3 2.6315 2e-3 4.5234c-0.5912-0.33221-1.2148-0.65302-2.0918-0.73047-2.6647-0.23367-4.6992 2.1233-4.6992 4.2813 0 2.8449 2.1937 3.8979 2.5273 4.0527 1.243 0.57996 2.8392 0.5816 4.2539-0.30664 0 0.076 2e-3 0.47266 2e-3 0.47266h3.6543v-12.293zm16.186 0.0957c-1.0445 0-1.8926 0.84809-1.8926 1.8926 0 1.0445 0.8481 1.8906 1.8926 1.8906 1.0445 0 1.8926-0.84614 1.8926-1.8906 0-1.0445-0.84809-1.8926-1.8926-1.8926zm0 0.36328c0.8446 0 1.5293 0.68329 1.5293 1.5293 0 0.84459-0.6847 1.5312-1.5293 1.5312-0.84458 0-1.5293-0.68666-1.5293-1.5312 0-0.8446 0.68471-1.5293 1.5293-1.5293zm-0.77539 0.45703v2.0957h0.51172v-0.85938h0.24805l0.40234 0.85938h0.56641l-0.46875-0.9375c0.28577-0.07178 0.45703-0.27879 0.45703-0.55469 0-0.4012-0.29627-0.60352-0.89453-0.60352zm0.51172 0.32031h0.22266c0.30687 0 0.45703 0.09431 0.45703 0.3125 0 0.20829-0.14025 0.29688-0.43164 0.29688h-0.24805zm-51.906 0.0293 4e-3 1.6543-2.0117 2e-3v1.2129h2.0098v8.1582h3.7012l-4e-3 -8.1582h2.002v-1.2168h-2.002v-1.6523zm46.238 2.2949c-2.9842 0-5.4023 2.0546-5.4023 4.5898 0 2.5352 2.4195 4.5898 5.4023 4.5898 2.9842 0 5.4024-2.0546 5.4024-4.5898 0-2.5352-2.4181-4.5898-5.4024-4.5898zm-35.582 0.04297c-3.0068 0-5.4434 2.0566-5.4434 4.5918 0 2.5352 2.4366 4.5879 5.4434 4.5879 2.4944 0 4.6008-1.4236 5.2441-3.3535l-3.6836 4e-3s4e-3 0.0353 4e-3 0.49414c0 1.495-0.98312 1.8281-1.5293 1.8281-0.54617 0-1.5488-0.33318-1.5488-1.8281 0-0.44763 4e-3 -1.6875 4e-3 -1.6875s6.9629 4e-3 6.9629 0c0-2.5352-2.4464-4.6367-5.4531-4.6367zm-16.85 0.13672c-1.2219 0.03519-2.2406 0.55816-2.9473 1.2324-4e-3 -0.2027 0-0.85938 0-0.85938l-3.6719 2e-3 2e-3 8.1758h3.6699s-4e-3 -5.02-4e-3 -5.3691c0-0.71228 0.74938-1.5059 1.7559-1.5059 1.0079 0 1.6894 0.79358 1.6894 1.5059v5.3691h3.6719s-3e-3 -3.8749 0-4.4492c0.0197-3.2362-2.7837-4.141-4.166-4.1016zm30.043 0c-1.2204 0.03519-2.2387 0.55816-2.9453 1.2324-4e-3 -0.2027 0-0.85938 0-0.85938l-3.6699 2e-3 -2e-3 8.1758h3.6699s-4e-3 -5.02-4e-3 -5.3691c0-0.71228 0.74744-1.5059 1.7539-1.5059 1.0079 0 1.6894 0.79358 1.6894 1.5059v5.3691h3.6738s-3e-3 -3.8749 0-4.4492c0.0197-3.2362-2.7837-4.141-4.166-4.1016zm-42.395 0.37695v8.1758h3.6973v-8.1738zm64.756 0.45703c0.73762 0 1.5117 0.53221 1.5117 1.8301v3.4688c0 1.3035-0.77128 1.8398-1.5117 1.8398-0.74183 0-1.5137-0.53635-1.5137-1.8398-0.0187 0.0697 4e-3 -3.4688 4e-3 -3.4688 0-1.2979 0.77357-1.8301 1.5098-1.8301zm-35.52 0.04492c0.48143 0.0029 1.0122 0.24214 1.3008 0.74609 0.23507 0.40963 0.24392 0.88702 0.23828 1.6035h-3.084c-6e-3 -0.7165 9e-3 -1.1953 0.24414-1.6035 0.28858-0.50395 0.81935-0.74328 1.3008-0.74609zm23.871 0.49805c0.57432 0 1.4473 0.32186 1.4473 1.5859 0 3.7687 2e-3 1.0472 2e-3 2.9121 0 1.2627-0.87545 1.5918-1.4512 1.5918-0.587 0-1.4473-0.32913-1.4473-1.5918v-2.9121c0-1.2641 0.86081-1.5859 1.4492-1.5859zm-76.52 28.877v40.232h4.5176v-20.787l6.2852 20.787h4.166l-5.0273-19.021c2.7931-1.6758 3.6152-3.8691 3.6152-3.8691v-12.781c-1.85-4.1086-5.041-4.5606-5.041-4.5606zm53.477 0-8.7266 40.189v0.043h4.4766l0.94727-5.4238h6.3106l0.90429 5.4238h4.5195zm26.506 0v40.232h9.0801c4.2146-1.0971 4.4766-4.0957 4.4766-4.0957s-6e-3 -10.746-6e-3 -13.523c-0.31645-1.7534-1.7578-1.8125-1.7578-1.8125s-5e-3 -0.48917 0-0.875c1.5935-0.12168 1.7637-1.8496 1.7637-1.8496s-7e-3 -10.737 0-13.516c-0.68866-3.282-4.4766-4.5606-4.4766-4.5606zm-107.13 4e-3 8.3887 40.227 8.3477-40.227h-4.5176l-3.8301 22.609-3.8711-22.609zm18.586 0v40.227h4.5176v-40.227zm23.533 0v4.0879h4.4746v36.139h4.5176v-36.139h4.5156v-4.0879zm15.273 0v35.666s1.8921 4.5606 7.0117 4.5606c5.1197 0 6.584-4.5606 6.584-4.5606v-35.666h-4.4746v35.666h-4.5606v-35.666zm33.471 0v40.227h11.271v-4.0859h-6.7539v-36.141zm40.209 0c-5.135 0-6.7871 4.5586-6.7871 4.5586 0.043 0.0645 0 30.249 0 31.109 0.68116 4.8901 6.7871 4.5586 6.7871 4.5586 6.7728 0 6.7695-4.5586 6.7695-4.5586v-31.109c-1.7511-4.7825-6.7695-4.5586-6.7695-4.5586zm8.1055 0 5.8945 23.662v16.564h4.5176v-16.565l6.3242-23.662h-4.5605l-3.8301 17.34-4.2168-17.34zm-107.52 4.0918h4.5195v13.98h-4.5195zm97.143 0.46485h4.5176v31.576h-4.5176zm-17.145 0.0293h4.5469v13.486h-4.5469zm-31.039 12.752 2.0625 13.854h-4.4629zm31.025 4.8144h4.5606v13.98h-4.5606zm40.674 13.988v0.4668h1.3555v3.6191h0.45313v-3.6191h1.332v-0.4668zm3.5938 0v4.0859h0.45117v-3.1641l1.3692 3.1641h0.45703l1.3359-3.1641v3.1641h0.47266v-4.0859h-0.47266l-1.5488 3.6445-1.6133-3.6445z" fill="#ebdbb2" opacity=".8"/>
  <path d="m88.852 73.88c-8.2855-0.01831-13.852 5.939-13.852 13.08 0 7.1411 5.5524 13.03 13.863 13.033h78.273c8.3109-3e-3 13.863-5.8921 13.863-13.033 0-7.1411-5.566-13.098-13.852-13.08zm0.03711 3.2129h78.223c6.5794 0.01267 10.619 4.4104 10.619 9.8496 0 5.4392-4.0144 9.8721-10.619 9.8496h-78.223c-6.6048 0.0239-10.617-4.4104-10.617-9.8496 0-5.4406 4.0378-9.8369 10.617-9.8496zm11.66 3.6738v2.5117h3.7051v-2.5117zm-15.033 2e-3 -2e-3 12.293h3.8066v-8.5723l5.3262 8.5723h3.7949v-12.293h-3.8008l2e-3 8.5723-5.2969-8.5723zm69.57 0s-1e-3 2.6315 2e-3 4.5234c-0.5912-0.33221-1.2148-0.65302-2.0918-0.73047-2.6647-0.23367-4.6992 2.1233-4.6992 4.2812 0 2.8449 2.1937 3.8979 2.5273 4.0527 1.243 0.57996 2.8392 0.5816 4.2539-0.30664 0 0.07602 2e-3 0.47266 2e-3 0.47266h3.6543v-12.293zm16.186 0.0957c-1.0445 0-1.8926 0.84809-1.8926 1.8926 0 1.0445 0.8481 1.8906 1.8926 1.8906 1.0445 0 1.8926-0.84614 1.8926-1.8906 0-1.0445-0.84809-1.8926-1.8926-1.8926zm0 0.36328c0.8446 0 1.5293 0.68329 1.5293 1.5293 0 0.84459-0.6847 1.5312-1.5293 1.5312-0.84458 0-1.5293-0.68666-1.5293-1.5312 0-0.8446 0.68471-1.5293 1.5293-1.5293zm-0.77539 0.45703v2.0957h0.51172v-0.85938h0.24805l0.40234 0.85938h0.56641l-0.46875-0.9375c0.28577-0.07178 0.45703-0.27879 0.45703-0.55469 0-0.4012-0.29627-0.60352-0.89453-0.60352zm0.51172 0.32031h0.22266c0.30687 0 0.45703 0.09431 0.45703 0.3125 0 0.20829-0.14025 0.29688-0.43164 0.29688h-0.24805zm-51.906 0.0293 4e-3 1.6543-2.0117 2e-3v1.2129h2.0098v8.1582h3.7012l-4e-3 -8.1582h2.002v-1.2168h-2.002v-1.6523zm46.238 2.2949c-2.9842 0-5.4023 2.0546-5.4023 4.5898 0 2.5352 2.4195 4.5898 5.4023 4.5898 2.9842 0 5.4024-2.0546 5.4024-4.5898 0-2.5352-2.4181-4.5898-5.4024-4.5898zm-35.582 0.04297c-3.0068 0-5.4434 2.0566-5.4434 4.5918 0 2.5352 2.4366 4.5879 5.4434 4.5879 2.4944 0 4.6008-1.4236 5.2441-3.3535l-3.6836 0.0039s4e-3 0.03525 4e-3 0.49414c0 1.495-0.98312 1.8281-1.5293 1.8281-0.54617 0-1.5488-0.33318-1.5488-1.8281 0-0.44763 4e-3 -1.6875 4e-3 -1.6875s6.9629 4e-3 6.9629 0c0-2.5352-2.4464-4.6367-5.4531-4.6367zm-16.85 0.13672c-1.2219 0.03519-2.2406 0.55816-2.9473 1.2324-4e-3 -0.2027 0-0.85938 0-0.85938l-3.6719 2e-3 2e-3 8.1758h3.6699s-4e-3 -5.02-4e-3 -5.3691c0-0.71228 0.74938-1.5059 1.7559-1.5059 1.0079 0 1.6894 0.79358 1.6894 1.5059v5.3691h3.6719s-3e-3 -3.8749 0-4.4492c0.0197-3.2362-2.7837-4.141-4.166-4.1016zm30.043 0c-1.2204 0.03519-2.2387 0.55816-2.9453 1.2324-4e-3 -0.2027 0-0.85938 0-0.85938l-3.6699 2e-3 -2e-3 8.1758h3.6699s-4e-3 -5.02-4e-3 -5.3691c0-0.71228 0.74744-1.5059 1.7539-1.5059 1.0079 0 1.6894 0.79358 1.6894 1.5059v5.3691h3.6738s-3e-3 -3.8749 0-4.4492c0.0197-3.2362-2.7837-4.141-4.166-4.1016zm-42.395 0.37695v8.1758h3.6973v-8.1738zm64.756 0.45703c0.73762 0 1.5117 0.53221 1.5117 1.8301v3.4688c0 1.3035-0.77128 1.8398-1.5117 1.8398-0.74183 0-1.5137-0.53635-1.5137-1.8398-0.0187 0.0697 4e-3 -3.4688 4e-3 -3.4688 0-1.2979 0.77357-1.8301 1.5098-1.8301zm-35.52 0.04492c0.48143 0.0029 1.0122 0.24214 1.3008 0.74609 0.23507 0.40963 0.24392 0.88702 0.23828 1.6035h-3.084c-6e-3 -0.7165 9e-3 -1.1953 0.24414-1.6035 0.28858-0.50395 0.81935-0.74328 1.3008-0.74609zm23.871 0.49805c0.57432 0 1.4473 0.32186 1.4473 1.5859 0 3.7687 2e-3 1.0472 2e-3 2.9121 0 1.2627-0.87545 1.5918-1.4512 1.5918-0.587 0-1.4473-0.32913-1.4473-1.5918v-2.9121c0-1.2641 0.86081-1.5859 1.4492-1.5859zm-76.52 28.877v40.232h4.5176v-20.787l6.2852 20.787h4.166l-5.0273-19.021c2.7931-1.6758 3.6152-3.8691 3.6152-3.8691v-12.781c-1.85-4.1086-5.041-4.5606-5.041-4.5606zm53.477 0-8.7266 40.189v0.043h4.4766l0.94727-5.4238h6.3106l0.90429 5.4238h4.5195zm26.506 0v40.232h9.0801c4.2146-1.0971 4.4766-4.0957 4.4766-4.0957s-6e-3 -10.746-6e-3 -13.523c-0.31645-1.7534-1.7578-1.8125-1.7578-1.8125s-5e-3 -0.48917 0-0.875c1.5935-0.12168 1.7637-1.8496 1.7637-1.8496s-7e-3 -10.737 0-13.516c-0.68866-3.282-4.4766-4.5606-4.4766-4.5606zm-107.13 4e-3 8.3887 40.227 8.3477-40.227h-4.5176l-3.8301 22.609-3.8711-22.609zm18.586 0v40.227h4.5176v-40.227zm23.533 0v4.0879h4.4746v36.139h4.5176v-36.139h4.5156v-4.0879zm15.273 0v35.666s1.8921 4.5606 7.0117 4.5606c5.1197 0 6.584-4.5606 6.584-4.5606v-35.666h-4.4746v35.666h-4.5606v-35.666zm33.471 0v40.227h11.271v-4.0859h-6.7539v-36.141zm40.209 0c-5.135 0-6.7871 4.5586-6.7871 4.5586 0.043 0.0645 0 30.249 0 31.109 0.68116 4.8901 6.7871 4.5586 6.7871 4.5586 6.7728 0 6.7695-4.5586 6.7695-4.5586v-31.109c-1.7511-4.7825-6.7695-4.5586-6.7695-4.5586zm8.1055 0 5.8945 23.662v16.564h4.5176v-16.564l6.3242-23.662h-4.5605l-3.8301 17.34-4.2168-17.34zm-107.52 4.0917h4.5195v13.98h-4.5195zm97.143 0.46485h4.5176v31.576h-4.5176zm-17.145 0.0293h4.5469v13.486h-4.5469zm-31.039 12.752 2.0625 13.854h-4.4629zm31.025 4.8144h4.5606v13.98h-4.5606zm40.674 13.988v0.4668h1.3555v3.6191h0.45313v-3.6191h1.332v-0.4668zm3.5938 0v4.0859h0.45117v-3.1641l1.3692 3.1641h0.45703l1.3359-3.1641v3.1641h0.47266v-4.0859h-0.47266l-1.5488 3.6445-1.6133-3.6445z" fill="#fb4934"/>
  <path d="m88.852 73.879c-8.2855-0.01831-13.852 5.939-13.852 13.08 0 0.33688 0.02441 0.66722 0.04883 0.99805 0.49367-6.6883 5.9075-12.099 13.803-12.082h78.297c7.8952-0.01747 13.309 5.3937 13.803 12.082 0.0244-0.33083 0.0488-0.66116 0.0488-0.99805 0-7.1411-5.566-13.098-13.852-13.08zm11.697 6.8867v1.9961h3.7051v-1.9961zm-15.033 2e-3v1.9961h3.8301l5.2969 8.5723v-1.9961l-5.2969-8.5723zm9.125 0v1.9961h3.8008v-1.9961zm60.445 0s-4e-5 1.2609 0 1.9961h3.6484v-1.9961zm16.186 0.0957c-1.0445 0-1.8926 0.84809-1.8926 1.8926 0 0.37453 0.13617 0.70439 0.32421 0.99805 0.0696-0.10876 0.12713-0.22626 0.2168-0.31836-0.10452-0.20718-0.17773-0.43201-0.17773-0.67969 0-0.8446 0.68471-1.5293 1.5293-1.5293 0.8446 0 1.5293 0.68329 1.5293 1.5293 0 0.24767-0.0732 0.47251-0.17773 0.67969 0.0897 0.0921 0.14723 0.2096 0.21679 0.31836 0.18805-0.29366 0.32422-0.62352 0.32422-0.99805 0-1.0445-0.84809-1.8926-1.8926-1.8926zm-0.77539 0.82031v1.3516c0.23807-0.10807 0.49713-0.17578 0.77539-0.17578 0.19468 0 0.37202 0.05662 0.54883 0.11133l-0.0644-0.12891c0.28577-0.07178 0.45703-0.27879 0.45703-0.55469 0-0.4012-0.29627-0.60352-0.89453-0.60352zm0.51172 0.32031h0.22266c0.30687 0 0.45703 0.09431 0.45703 0.3125 0 0.20829-0.14025 0.29688-0.43164 0.29688h-0.24805zm-51.906 0.0293 4e-3 1.6543-2.0117 2e-3v1.2129h2.0098l-2e-3 -0.87305h3.6992v0.87305h2.002v-1.2168h-2.002v-1.6523zm2e-3 2.8691v0.78125h2e-3zm52.307-1.6523 0.21484 0.45898c0.0926 0.01521 0.16992 0.04014 0.24023 0.07031h0.35938l-0.14844-0.29688c-0.19844-0.12621-0.41943-0.20917-0.66601-0.23242zm-0.40235 0.02539c-0.18598 0.03362-0.35565 0.09314-0.51172 0.1875v0.21675h0.51172zm-0.875 0.47852c-0.0844 0.09631-0.15461 0.20298-0.21289 0.31836 0.16406 0.16826 0.35924 0.30224 0.57617 0.40039v-0.42774c-0.13533-0.08201-0.25961-0.17247-0.36328-0.29102zm2.2774 0c-0.0814 0.09307-0.17782 0.16326-0.2793 0.23438 0.0503 0.08298 0.082 0.17817 0.082 0.29492 0 0.03899-0.0285 0.06356-0.0352 0.09961 0.16003-0.08951 0.31827-0.18024 0.44532-0.31055-0.0583-0.1154-0.12853-0.22209-0.21289-0.31836zm-0.76954 0.45898c-0.12116 0.03097-0.23835 0.07422-0.36914 0.07422-0.0934 0-0.17489-0.03665-0.26367-0.05273v0.35937c0.0273 4e-3 0.0524 0.01283 0.0801 0.01563h0.16797c0.29139 0 0.43164-0.08858 0.43164-0.29688 0-0.04552-0.0337-0.0646-0.0469-0.09961zm-6.3008 0.11524c-2.9842 0-5.4023 2.0546-5.4023 4.5898 0 0.3436 0.0524 0.67602 0.13672 0.99805 0.43335-1.6569 1.921-2.9619 3.834-3.4102 0.22133-0.80157 0.81506-1.1641 1.4043-1.1641 0.58736 0 1.18 0.35759 1.4043 1.1504 1.9396 0.43559 3.4511 1.751 3.8887 3.4238 0.0842-0.32203 0.13672-0.65444 0.13672-0.99805 0-2.5352-2.4181-4.5898-5.4024-4.5898zm-35.582 0.04297c-3.0068 0-5.4434 2.0566-5.4434 4.5918 0 0.34358 0.0538 0.6761 0.13867 0.99805 0.44059-1.6722 1.9614-2.989 3.9141-3.4258 0.0361-0.13618 0.056-0.28255 0.125-0.40234 0.28858-0.50395 0.81935-0.74328 1.3008-0.74609 0.48143 0.0029 1.0122 0.24214 1.3008 0.74609 0.0728 0.1268 0.0932 0.28091 0.12891 0.42578 1.5141 0.36493 2.7556 1.2663 3.4297 2.4492 0.0824-2.24e-4 0.5586 3.21e-4 0.5586 0 0-2.5352-2.4464-4.6367-5.4531-4.6367zm-16.85 0.13672c-1.2219 0.03519-2.2406 0.55816-2.9473 1.2324-4e-3 -0.2027 0-0.85938 0-0.85938l-3.6719 2e-3v1.9961l3.6719-2e-3s-3e-3 0.55313 0 0.79688c0.0108-0.70821 0.75282-1.4902 1.752-1.4902 0.40222 0 0.73211 0.14659 1.0078 0.34375 0.0641-0.0046 0.12221-0.02156 0.1875-0.02344 1.3823-0.03944 4.1857 0.86534 4.166 4.1016-2.6e-4 -0.93837-1e-3 -1.7384 0-1.9961 0.0197-3.2362-2.7837-4.141-4.166-4.1016zm30.043 0c-1.2204 0.03519-2.2387 0.55816-2.9453 1.2324-4e-3 -0.2027 0-0.85938 0-0.85938l-3.6699 2e-3v1.9961l3.6699-2e-3s-3e-3 0.54156 0 0.78906c0.0161-0.70614 0.7526-1.4824 1.748-1.4824 0.40221 0 0.73211 0.14659 1.0078 0.34375 0.0648-0.0047 0.12342-0.02153 0.18945-0.02344 1.3823-0.03944 4.1857 0.86534 4.166 4.1016-2.6e-4 -0.93837-1e-3 -1.7384 0-1.9961 0.0197-3.2362-2.7837-4.141-4.166-4.1016zm10.045 0.05273c-2.6647-0.23367-4.6992 2.1233-4.6992 4.2812 0 0.3975 0.0504 0.75206 0.125 1.082 0.42899-1.7016 1.9994-3.2561 4.0234-3.3516 0.29314-0.51013 0.8128-0.6875 1.2188-0.6875 0.5395 0 1.3167 0.31423 1.4121 1.3965 4e-3 0.0021 8e-3 0.0038 0.0117 0.0059-1e-3 -0.83485 2e-4 -1.1629 0-1.9961-0.5912-0.33221-1.2148-0.65302-2.0918-0.73047zm-52.439 0.71289v1.6074l3.6973 2e-3v-1.6095zm28.279 2.4629c-0.13093 0.10749-0.25224 0.23276-0.34375 0.39258-0.14233 0.24709-0.19357 0.54302-0.21875 0.87891 0.0221 1.3e-5 1.5398-5.22e-4 3.0352 0-0.0235-0.33561-0.0726-0.63095-0.21484-0.87891-0.0915-0.15982-0.21282-0.2851-0.34375-0.39258zm-50.518 0.21289c-0.02999 0.32485-0.04687 0.65482-0.04687 0.98828 0 5.4392 4.0124 9.8735 10.617 9.8496h78.223c6.6048 0.0225 10.619-4.4104 10.619-9.8496 0-0.33338-0.0169-0.6635-0.0469-0.98828-0.46521 4.9687-4.3803 8.8629-10.572 8.8418h-78.223c-6.192 0.0224-10.105-3.8729-10.57-8.8418zm31.641 1.7304c-1e-5 2e-3 -2e-3 0.0039-2e-3 0.0059 0 0.21932 7.8e-4 1.8696 2e-3 3.373h2e-3s-7.8e-4 -1.818-2e-3 -3.3789zm30.043 0c-1e-5 2e-3 -2e-3 0.0039-2e-3 0.0059 0 0.21932 7.8e-4 1.8696 2e-3 3.373h2e-3s-7.8e-4 -1.818-2e-3 -3.3789zm12.213 0.70312v1.9961c0 0.37974 0.092 0.65355 0.2168 0.88086 0.87044 0.046 1.7862-0.13335 2.6426-0.66992 8e-3 -0.07688 0.0391-0.12574 0.0391-0.21094 0-1.2733-1e-3 -1.4656-2e-3 -1.9883-4e-3 1.2548-0.87496 1.584-1.4492 1.584-0.587 0-1.4473-0.32913-1.4473-1.5918zm14.609 0.25781c0 1.3035-0.77128 1.8398-1.5117 1.8398-0.73881 0-1.5055-0.5342-1.5117-1.8262-4e-3 0.98313-0.0126 2.0223-2e-3 1.9824 0 0.26802 0.0511 0.48234 0.10937 0.6875 0.45896 0.10772 0.93243 0.18359 1.4316 0.18359 0.4772 0 0.93237-0.06933 1.373-0.16797 0.0607-0.20839 0.11133-0.42905 0.11133-0.70312zm-38.576 0.36328s-4e-3 1.2399-4e-3 1.6875c0 0.26659 0.0422 0.48424 0.0977 0.68164 0.45419 0.10348 0.92292 0.17774 1.416 0.17774 0.51243 0 1.0023-0.07334 1.4727-0.18555 0.0531-0.19556 0.0918-0.41091 0.0918-0.67383 0-0.45889-4e-3 -0.49414-4e-3 -0.49414l2.2832-2e-3c0.41079-0.34707 0.75435-0.7491 1.0176-1.1914-0.51674 0.0013-1.6868 5.73e-4 -3.3223 0-0.13042 1.2228-0.99921 1.5195-1.5039 1.5195-0.50468 0-1.3885-0.29682-1.5215-1.5195zm-51.104 23.758v1.9961h8.5156s3.191 0.45191 5.041 4.5606v-1.9961c-1.85-4.1086-5.041-4.5606-5.041-4.5606zm53.477 0-8.7266 40.189v0.043h0.42383l8.3027-38.236 8.0137 38.236h0.41796zm26.506 0v1.9961h9.0801c0 1e-5 3.7879 1.2786 4.4766 4.5606 4.9e-4 -0.69733-1e-3 -1.5857 0-1.9961-0.68866-3.282-4.4766-4.5606-4.4766-4.5606zm-107.13 4e-3 0.41602 1.9961h4.1016l3.8711 22.609 3.8301-22.609h4.1035l0.41406-1.9961h-4.5176l-3.8301 22.609-3.8711-22.609zm18.586 0v1.9961h4.5176v-1.9961zm23.533 0v1.9961h13.508v-1.9961zm15.273 0v1.9961h4.5605v-1.9961zm9.1211 0v1.9961h4.4746v-1.9961zm24.35 0v1.9961h4.5176v-1.9961zm40.209 0c-5.135 0-6.7871 4.5586-6.7871 4.5586 3e-3 4e-3 -2e-3 1.7596 0 1.9961 0 0 1.6522-4.5586 6.7871-4.5586 0 0 5.0184-0.22392 6.7695 4.5586v-1.9961c-1.7511-4.7825-6.7695-4.5586-6.7695-4.5586zm8.1055 0 0.49805 1.9961h3.6309l4.2168 17.34 3.8301-17.34h4.0273l0.5332-1.9961h-4.5605l-3.8301 17.34-4.2168-17.34zm-107.52 18.072v1.3691l0.18945 0.62696h4.3301v-1.9961zm79.998 0v1.9961h4.5469v-1.9961zm8.4199 3.3008c-0.26154 0.27665-0.62536 0.50409-1.1602 0.54493-5e-3 0.38583 0 0.875 0 0.875s1.4414 0.0591 1.7578 1.8125c-2.2e-4 -0.69702 0-1.5861 0-1.9961-0.10531-0.58356-0.33774-0.96783-0.59765-1.2363zm-82.547 1.5274c-0.1499 0.10086-0.28415 0.20486-0.44726 0.30273l4.5 17.025h0.52734zm41.033 8.291-0.34571 1.9961h4.4629l-0.29687-1.9961zm-16.613 4.4746v1.9961h4.5606v-1.9961zm49.693 0.4668v1.9961h4.5606v-1.9961zm17.158 0v1.9961h4.5176v-1.9961zm-33.424 8e-3v1.9961h6.7539v-1.9961zm56.939 0v0.4668h1.3555v1.5293h0.45313v-1.5293h1.332v-0.4668zm3.5938 0v1.9961h0.45117v-1.0742l1.3692 3.1639h0.45703l1.3359-3.1641v1.0742h0.47266v-1.9961h-0.47266l-1.5488 3.6445-1.6133-3.6445z" fill="#282828" opacity=".2"/>
  <path d="m57 15c-9.9393 0-17 7.0595-17 17v192c0 9.9393 7.0595 17 17 17h142c9.9405 0 17-7.0607 17-17v-144l-65-65zm4.0332 4.9902 89.967 0.01 60 60 2e-4 139.75c1e-5 9.4999-6.6575 16.248-16.033 16.248h-133.93c-9.3757 0-16.033-6.7481-16.033-16.248v-183.51c0-9.501 6.6586-16.25 16.033-16.25z" fill="url(#linearGradient14-4)" style="paint-order:markers fill stroke"/>
  <path d="m151 15.002v52.914c0 9.6525 7.8639 17.084 17.518 17.084l47.482-1.34e-4v-5z" fill="#282828" opacity=".2" stroke-width="1.0833"/>
  <path d="m151 15v47.916c0 9.6525 7.8639 17.084 17.518 17.084l47.482-1.34e-4z" fill="url(#linearGradient7-6-0-1)" stroke-width="1.0833"/>
</svg>
