<svg width="256" height="256" version="1.1" viewBox="0 0 256 256" xmlns="http://www.w3.org/2000/svg">
  <defs>
    <linearGradient id="linearGradient26" x1="-160" x2="-160" y2="226" gradientTransform="translate(267,15)" gradientUnits="userSpaceOnUse">
      <stop stop-color="#d65d0e" offset="0"/>
      <stop stop-color="#fe8019" offset="1"/>
    </linearGradient>
    <linearGradient id="linearGradient7-6-0" x1="186" x2="156" y1="45.006" y2="75.012" gradientTransform="matrix(1.0833 0 0 1.0833 -17.998 -1.2506)" gradientUnits="userSpaceOnUse">
      <stop stop-color="#fe8019" offset="0"/>
      <stop stop-color="#d65d0e" offset=".3027"/>
      <stop stop-color="#af3a03" offset="1"/>
    </linearGradient>
    <linearGradient id="linearGradient14-5" x1="128" x2="128" y1="15.001" y2="241" gradientTransform="translate(0,4.8e-4)" gradientUnits="userSpaceOnUse">
      <stop stop-color="#ebdbb2" stop-opacity=".15" offset="0"/>
      <stop stop-color="#ebdbb2" stop-opacity=".05" offset=".2"/>
      <stop stop-opacity="0" offset=".70405"/>
      <stop stop-opacity=".05" offset=".80473"/>
      <stop stop-opacity=".1" offset="1"/>
    </linearGradient>
  </defs>
  <path d="m57 15c-9.9393 0-17 7.0595-17 17v192c0 9.9393 7.0595 17 17 17h142c9.9405 0 17-7.0607 17-17v-144l-64.999-64.999z" fill="url(#linearGradient26)" stroke-linecap="round" stroke-linejoin="round" stroke-miterlimit="0" style="paint-order:markers fill stroke"/>
  <path d="m57 241c-9.9393 0-17-7.0595-17-17v-43h176v43c0 9.9405-7.0607 17-17 17z" fill="#af3a03" opacity=".3" stroke-linecap="round" stroke-linejoin="round" stroke-miterlimit="0" style="paint-order:markers fill stroke"/>
  <path d="m95.28 222.96c3.2335 0 4.48-0.98172 4.48-2.88 0-1.533-1.0262-2.6487-5.68-4.2-3.4634-1.2224-7.6-2.955-7.6-8.2 0-5.1508 4.0386-8.32 10.2-8.32 3.7211 0 6.4107 0.94404 8.2 1.92l-1.8 4.92c-1.873-0.99727-3.8907-1.4678-6-1.52-2.9192 0-4.2 0.79833-4.2 2.52 0.19285 2.3426 2.9057 3.0323 4.8 3.68 5.9312 2.1967 8.52 4.0081 8.52 9.24 0 6.7588-5.9696 8.16-10.92 8.16-2.0763 0-6.0494-0.27394-9.28-2.12l1.76-4.96c2.3212 1.3162 4.8902 1.7066 7.52 1.76zm34.28 4.76c-0.64332-2.0121-1.3562-4.0012-2.04-6h-10.8c-0.7104 1.9905-1.4118 3.9818-2.04 6h-6.48c4.213-12.099 7.5904-20.624 11.04-27.72h5.96c4.147 8.782 7.4312 17.356 11.04 27.72zm-7.48-21.44c-0.71608 2.1482-1.6498 4.0952-3.92 10.48h7.88c-0.0731-0.20573-1.8629-5.2373-3.96-10.48zm25.12-6.28c2.8077 5.364 5.1623 10.948 7.52 16.52 2.3568-5.5724 4.6676-11.178 7.52-16.52h5.68c0.90974 6.2772 1.6528 16.893 2.2 27.72h-6.08c-0.20884-7.0309-0.45108-12.726-0.92-18.4-2.144 4.9499-4.2446 9.918-6.36 14.88h-4.36c-2.1311-4.9552-4.2352-9.922-6.36-14.88-0.46892 5.6739-0.71116 11.369-0.92 18.4h-6.08c0.61669-12.642 1.2396-21.093 2.2-27.72z" fill="#ebdbb2" opacity=".15" aria-label="SAM"/>
  <path d="m95.28 219.96c3.2335 0 4.48-0.98172 4.48-2.88 0-1.533-1.0262-2.6487-5.68-4.2-3.4634-1.2224-7.6-2.955-7.6-8.2 0-5.1508 4.0386-8.32 10.2-8.32 3.7211 0 6.4107 0.94404 8.2 1.92l-1.8 4.92c-1.873-0.99727-3.8907-1.4678-6-1.52-2.9192 0-4.2 0.79833-4.2 2.52 0.19285 2.3426 2.9057 3.0323 4.8 3.68 5.9312 2.1967 8.52 4.0081 8.52 9.24 0 6.7588-5.9696 8.16-10.92 8.16-2.0763 0-6.0494-0.27394-9.28-2.12l1.76-4.96c2.3212 1.3162 4.8902 1.7066 7.52 1.76zm34.28 4.76c-0.64332-2.0121-1.3562-4.0012-2.04-6h-10.8c-0.7104 1.9905-1.4118 3.9818-2.04 6h-6.48c4.213-12.099 7.5904-20.624 11.04-27.72h5.96c4.147 8.782 7.4312 17.356 11.04 27.72zm-7.48-21.44c-0.71608 2.1482-1.6498 4.0952-3.92 10.48h7.88c-0.0731-0.20573-1.8629-5.2373-3.96-10.48zm25.12-6.28c2.8077 5.364 5.1623 10.948 7.52 16.52 2.3568-5.5724 4.6676-11.178 7.52-16.52h5.68c0.90974 6.2772 1.6528 16.893 2.2 27.72h-6.08c-0.20884-7.0309-0.45108-12.726-0.92-18.4-2.144 4.9499-4.2446 9.918-6.36 14.88h-4.36c-2.1311-4.9552-4.2352-9.922-6.36-14.88-0.46892 5.6739-0.71116 11.369-0.92 18.4h-6.08c0.61669-12.642 1.2396-21.093 2.2-27.72z" fill="#af3a03" aria-label="SAM"/>
  <path d="m96.68 196.36c-6.1614 0-10.199 3.1696-10.199 8.3203 0 0.53725 0.05313 1.0293 0.13476 1.4961 0.72078-4.2529 4.5304-6.8164 10.064-6.8164 3.13 0 5.5211 0.67181 7.2695 1.4648l0.93164-2.5449c-1.7893-0.97596-4.4801-1.9199-8.2012-1.9199zm22.561 0.64062c-3.4496 7.0962-6.828 15.622-11.041 27.721h1.0723c3.7098-10.46 6.8258-18.255 9.9688-24.721h5.959c3.7306 7.9001 6.7722 15.703 9.9707 24.721h1.0703c-3.6088-10.364-6.894-18.939-11.041-27.721zm22 0c-0.96038 6.6266-1.5825 15.078-2.1992 27.721h0.16015c0.56695-10.915 1.1612-18.663 2.0391-24.721h5.959c2.8077 5.364 5.1638 10.948 7.5215 16.52 2.3568-5.5724 4.6672-11.177 7.5195-16.52h5.6797c0.82464 5.69 1.5042 14.975 2.0332 24.721h0.16602c-0.54721-10.827-1.2895-21.444-2.1992-27.721h-5.6797c-2.8524 5.3425-5.1628 10.947-7.5195 16.52-2.3577-5.5719-4.7138-11.156-7.5215-16.52zm-47.807 8.6543c-0.37438 0.39163-0.55274 0.90322-0.55274 1.5449 0.19285 2.3426 2.9045 3.034 4.7988 3.6816 5.2724 1.9527 7.8985 3.606 8.418 7.623 0.0605-0.43646 0.10156-0.89314 0.10156-1.3848 0-5.2319-2.5883-7.0415-8.5195-9.2383-1.4272-0.48799-3.3174-1.0018-4.2461-2.2266zm25.82 8.1055c-0.33718 0.91086-0.67118 1.8115-1.0938 3h7.8789c-0.0327-0.0921-0.4978-1.3886-1.0918-3zm-31.494 4.4394-1.7598 4.9609c0.29448 0.16827 0.59948 0.30999 0.9043 0.45312l0.85547-2.4141c2.3212 1.3162 4.8898 1.7083 7.5195 1.7617 3.2335 0 4.4805-0.98258 4.4805-2.8809 0-0.5104-0.13354-0.97253-0.45703-1.4219-0.60826 0.8547-1.866 1.3027-4.0234 1.3027-2.6298-0.0534-5.1983-0.44556-7.5195-1.7617z" fill="#282828" opacity=".2"/>
  <path d="m70 48v60h60v-60zm75 50v10h41v-10zm-75 20v10h116v-10zm0 20v10h116v-10zm0 20v10h116v-10z" fill="#ebdbb2" opacity=".1" style="paint-order:markers fill stroke"/>
  <path d="m70 45v60h60v-60zm75 50v10h41v-10zm-75 20v10h116v-10zm0 20v10h116v-10zm0 20v10h116v-10z" fill="#af3a03" style="paint-order:markers fill stroke"/>
  <path d="m70 45v3h60v-3zm75 50v3h41v-3zm-75 20v3h116v-3zm0 20v3h116v-3zm0 20v3h116v-3z" fill="#282828" opacity=".2" style="paint-order:markers fill stroke"/>
  <path d="m115 54c-5.5228 0-10 4.4772-10 10s4.4772 10 10 10 10-4.4772 10-10-4.4772-10-10-10zm-24 16-16 30h50l-13-20-7 10z" fill="#282828" opacity=".2" stroke-linecap="round" stroke-linejoin="round" stroke-miterlimit="0" stroke-width="1.5" style="paint-order:markers fill stroke"/>
  <path d="m115 52c-5.5228 0-10 4.4772-10 10s4.4772 10 10 10 10-4.4772 10-10-4.4772-10-10-10zm-24 16-16 30h50l-13-20-7 10z" fill="#d65d0e" stroke-linecap="round" stroke-linejoin="round" stroke-miterlimit="0" stroke-width="1.5" style="paint-order:markers fill stroke"/>
  <path d="m115 52c-5.5228 0-10 4.4772-10 10 0 0.3379 0.0161 0.67071 0.0488 1 0.50227-5.0528 4.7662-9 9.9512-9s9.4489 3.9472 9.9512 9c0.0328-0.32929 0.0489-0.6621 0.0489-1 0-5.5228-4.4772-10-10-10zm-24 16-16 30h1.0664l14.934-28 14 20 7-10 11.699 18h1.3008l-13-20-7 10z" fill="#ebdbb2" opacity=".1" stroke-linecap="round" stroke-linejoin="round" stroke-miterlimit="0" stroke-width="1.5" style="paint-order:markers fill stroke"/>
  <path d="m57 15c-9.9393 0-17 7.0595-17 17v192c0 9.9393 7.0595 17 17 17h142c9.9405 0 17-7.0607 17-17v-144l-65-64.998zm4.0332 4.9902 89.967 2e-3 60 60.009v139.75c0 9.4999-6.6575 16.248-16.033 16.248h-133.93c-9.3757 0-16.033-6.7481-16.033-16.248v-183.51c0-9.501 6.6586-16.25 16.033-16.25z" fill="url(#linearGradient14-5)" style="paint-order:markers fill stroke"/>
  <path d="m151 15.002v52.914c0 9.6525 7.8639 17.084 17.518 17.084l47.482-1.34e-4v-5z" fill="#282828" opacity=".3" stroke-width="1.0833"/>
  <path d="m151 15.001v47.916c0 9.6525 7.8639 17.084 17.518 17.084l47.482-1.34e-4z" fill="url(#linearGradient7-6-0)" stroke-width="1.0833"/>
</svg>
