<svg width="256" height="256" version="1.1" viewBox="0 0 256 256" xmlns="http://www.w3.org/2000/svg">
  <defs>
    <linearGradient id="linearGradient7-6-0" x1="186" x2="156" y1="45.006" y2="75.012" gradientTransform="matrix(1.0833 0 0 1.0833 -17.999 -1.2511)" gradientUnits="userSpaceOnUse">
      <stop stop-color="#fe8019" offset="0"/>
      <stop stop-color="#d65d0e" offset=".3027"/>
      <stop stop-color="#af3a03" offset="1"/>
    </linearGradient>
    <linearGradient id="linearGradient14-5" x1="128" x2="128" y1="15.001" y2="241" gradientTransform="translate(0,4.8e-4)" gradientUnits="userSpaceOnUse">
      <stop stop-color="#ebdbb2" stop-opacity=".15" offset="0"/>
      <stop stop-color="#ebdbb2" stop-opacity=".1" offset=".2"/>
      <stop stop-opacity="0" offset=".70405"/>
      <stop stop-opacity=".05" offset=".80473"/>
      <stop stop-opacity=".1" offset="1"/>
    </linearGradient>
    <linearGradient id="linearGradient26" x1="-160" x2="-160" y2="226" gradientTransform="translate(267,15)" gradientUnits="userSpaceOnUse">
      <stop stop-color="#af3a03" offset="0"/>
      <stop stop-color="#af3a03" offset="1"/>
    </linearGradient>
  </defs>
  <path d="m57 15c-9.9393 0-17 7.0595-17 17v192c0 9.9393 7.0595 17 17 17h142c9.9405 0 17-7.0607 17-17v-144l-64.999-64.999z" fill="url(#linearGradient26)" stroke-linecap="round" stroke-linejoin="round" stroke-miterlimit="0" style="paint-order:markers fill stroke"/>
  <path d="m57 241c-9.9393 0-17-7.0595-17-17v-43h176v43c0 9.9405-7.0607 17-17 17z" fill="#fe8019" opacity=".7" stroke-linecap="round" stroke-linejoin="round" stroke-miterlimit="0" style="paint-order:markers fill stroke"/>
  <path d="m108.8 213.84c0 5.6626 2.8829 8.96 7.36 8.96 4.8781 0 7.36-3.9271 7.36-8.96 0-3.5229-1.2563-6.9778-4.28-8.36-0.90667-0.42667-1.9333-0.64-3.08-0.64-4.1749 0-7.36 3.1092-7.36 9zm21.16 0c0 8.3488-4.6239 12.714-9.8 13.96 0.57037 2.2815 4.4337 2.6125 8 2.88l-1.28 4.56c-9.652-0.37123-11.914-3.5993-12.92-7.12-7.033-0.90749-11.6-6.1157-11.6-14.28 0-9.2833 6.2024-14.48 13.8-14.48 7.6238 0 13.8 4.991 13.8 14.48zm12.76 9.12c3.2335 0 4.48-0.98172 4.48-2.88 0-1.533-1.0262-2.6487-5.68-4.2-3.4634-1.2224-7.6-2.955-7.6-8.2 0-5.1508 4.0386-8.32 10.2-8.32 3.7211 0 6.4107 0.94404 8.2 1.92l-1.8 4.92c-1.873-0.99727-3.8907-1.4678-6-1.52-2.9192 0-4.2 0.79833-4.2 2.52 0.24727 2.3866 2.8628 3.0035 4.8 3.68 5.9312 2.1967 8.52 4.0081 8.52 9.24 0 6.7588-5.9696 8.16-10.92 8.16-2.1068 0-6.0591-0.27951-9.28-2.12l1.76-4.96c2.3212 1.3162 4.8902 1.7066 7.52 1.76z" fill="#ebdbb2" opacity=".15" aria-label="QSI"/>
  <path d="m108.8 210.84c0 5.6626 2.8829 8.96 7.36 8.96 4.8781 0 7.36-3.9271 7.36-8.96 0-3.5229-1.2563-6.9778-4.28-8.36-0.90667-0.42667-1.9333-0.64-3.08-0.64-4.1749 0-7.36 3.1092-7.36 9zm21.16 0c0 8.3488-4.6239 12.714-9.8 13.96 0.57037 2.2815 4.4337 2.6125 8 2.88l-1.28 4.56c-9.652-0.37123-11.914-3.5993-12.92-7.12-7.033-0.90749-11.6-6.1157-11.6-14.28 0-9.2833 6.2024-14.48 13.8-14.48 7.6238 0 13.8 4.991 13.8 14.48zm12.76 9.12c3.2335 0 4.48-0.98172 4.48-2.88 0-1.533-1.0262-2.6487-5.68-4.2-3.4634-1.2224-7.6-2.955-7.6-8.2 0-5.1508 4.0386-8.32 10.2-8.32 3.7211 0 6.4107 0.94404 8.2 1.92l-1.8 4.92c-1.873-0.99727-3.8907-1.4678-6-1.52-2.9192 0-4.2 0.79833-4.2 2.52 0.24727 2.3866 2.8628 3.0035 4.8 3.68 5.9312 2.1967 8.52 4.0081 8.52 9.24 0 6.7588-5.9696 8.16-10.92 8.16-2.1068 0-6.0591-0.27951-9.28-2.12l1.76-4.96c2.3212 1.3162 4.8902 1.7066 7.52 1.76z" fill="#af3a03" aria-label="QSI"/>
  <path d="m116.16 196.36c-7.5976-1e-5 -13.801 5.1971-13.801 14.48 0 0.52641 0.0212 1.0396 0.0586 1.541 0.61824-8.3649 6.5533-13.021 13.742-13.021 7.2201 0 13.137 4.4794 13.744 13.014 0.0358-0.49532 0.0566-1.0064 0.0566-1.5332 0-9.489-6.177-14.48-13.801-14.48zm27.959 0c-6.1614 0-10.199 3.1696-10.199 8.3203 0 0.53574 0.0536 1.0265 0.13477 1.4922 0.7224-4.2506 4.532-6.8125 10.064-6.8125 3.1289 0 5.5213 0.67023 7.2695 1.4629l0.93164-2.543c-1.7893-0.97596-4.4801-1.9199-8.2012-1.9199zm-3.2422 9.2891c-0.37776 0.39228-0.55664 0.90625-0.55664 1.5508 0.24727 2.3866 2.8616 3.0052 4.7988 3.6816 5.285 1.9574 7.9112 3.6144 8.4219 7.6523 0.0627-0.44372 0.0996-0.91308 0.0996-1.4141 1e-5 -5.2319-2.5903-7.0415-8.5215-9.2383-1.4676-0.51248-3.3206-0.99299-4.2422-2.2324zm-17.441 6.6973c-0.4558 4.287-2.8972 7.4551-7.2754 7.4551-4.061 0-6.8034-2.7209-7.2793-7.4512-0.0483 0.47737-0.0801 0.96909-0.0801 1.4902 0 5.6626 2.8823 8.9609 7.3594 8.9609 4.8781 0 7.3594-3.928 7.3594-8.9609 0-0.502-0.0315-1.0007-0.084-1.4941zm11.764 5.8535-1.7598 4.9609c0.29381 0.16788 0.59638 0.31805 0.90039 0.46093l0.85938-2.4219c2.3212 1.3162 4.8917 1.7083 7.5215 1.7617 3.2335 0 4.4785-0.98258 4.4785-2.8809 0-0.50959-0.11713-0.97319-0.43945-1.4219-0.60604 0.8599-1.875 1.3027-4.0391 1.3027-2.6298-0.0534-5.2002-0.44556-7.5215-1.7617zm-12.498 8.6953c-0.81966 0.38993-1.6708 0.69675-2.541 0.90625 0.52674 2.107 3.8616 2.5463 7.1777 2.8125l0.82227-2.9336c-1.922-0.14415-3.9264-0.30874-5.459-0.78516z" fill="#282828" opacity=".2"/>
  <path d="m128 50c-28.029 0-53 8.3487-53 22.5v75c0 14.149 24.966 22.5 53 22.5 27.836 0 52.644-8.2367 52.984-22.211h0.01562v-75.289c0-14.149-24.966-22.5-53-22.5zm0 10c27.27 0 43 8.3196 43 12.5 0 4.1823-15.736 12.5-43 12.5-27.27 0-43-8.3196-43-12.5 0-4.1823 15.736-12.5 43-12.5zm-43 26.193c9.8385 5.6731 25.839 8.8066 43 8.8066 17.159 0 33.161-3.1331 43-8.8066v11.307c0 4.1823-15.736 12.5-43 12.5-27.27 0-43-8.3196-43-12.5zm0 25c9.8385 5.6731 25.839 8.8066 43 8.8066 17.159 0 33.161-3.1331 43-8.8066v11.307c0 4.1823-15.736 12.5-43 12.5-27.27 0-43-8.3196-43-12.5zm0 25c9.8385 5.6731 25.839 8.8066 43 8.8066 17.159 0 33.161-3.1331 43-8.8066v11.307c0 4.1823-15.736 12.5-43 12.5-27.27 0-43-8.3196-43-12.5z" fill="#282828" opacity=".2" stroke-linecap="round" stroke-linejoin="round" stroke-miterlimit="0" stroke-width="2.0059" style="paint-order:markers fill stroke"/>
  <path d="m128 45c-28.029 0-53 8.3487-53 22.5v75c0 14.149 24.966 22.5 53 22.5 27.836 0 52.644-8.2367 52.984-22.211h0.01562v-75.289c0-14.149-24.966-22.5-53-22.5zm0 10c27.27 0 43 8.3196 43 12.5 0 4.1823-15.736 12.5-43 12.5-27.27 0-43-8.3196-43-12.5 0-4.1823 15.736-12.5 43-12.5zm-43 26.193c9.8385 5.6731 25.839 8.8066 43 8.8066 17.159 0 33.161-3.1331 43-8.8066v11.307c0 4.1823-15.736 12.5-43 12.5-27.27 0-43-8.3196-43-12.5zm0 25c9.8385 5.6731 25.839 8.8066 43 8.8066 17.159 0 33.161-3.1331 43-8.8066v11.307c0 4.1823-15.736 12.5-43 12.5-27.27 0-43-8.3196-43-12.5zm0 25c9.8385 5.6731 25.839 8.8066 43 8.8066 17.159 0 33.161-3.1331 43-8.8066v11.307c0 4.1823-15.736 12.5-43 12.5-27.27 0-43-8.3196-43-12.5z" fill="#fe8019" stroke-linecap="round" stroke-linejoin="round" stroke-miterlimit="0" stroke-width="2.0059" style="paint-order:markers fill stroke"/>
  <path d="m128 45c-28.029 0-53 8.3487-53 22.5v5c0-14.151 24.971-22.5 53-22.5 28.034 0 53 8.3506 53 22.5v-5c0-14.149-24.966-22.5-53-22.5zm-41.561 25c-0.93214 0.91335-1.4395 1.7717-1.4395 2.5 0 4.1804 15.73 12.5 43 12.5 27.264 0 43-8.3177 43-12.5 0-0.7284-0.50647-1.5862-1.4394-2.5-4.4207 4.3316-19.044 10-41.561 10-22.518 0-37.139-5.6692-41.561-10zm-1.4395 22.5v5c0 4.1804 15.73 12.5 43 12.5 27.264 0 43-8.3177 43-12.5v-5c0 4.1823-15.736 12.5-43 12.5-27.27 0-43-8.3196-43-12.5zm0 25v5c0 4.1804 15.73 12.5 43 12.5 27.264 0 43-8.3177 43-12.5v-5c0 4.1823-15.736 12.5-43 12.5-27.27 0-43-8.3196-43-12.5zm0 25v5c0 4.1804 15.73 12.5 43 12.5 27.264 0 43-8.3177 43-12.5v-5c0 4.1823-15.736 12.5-43 12.5-27.27 0-43-8.3196-43-12.5z" fill="#ebdbb2" opacity=".15" stroke-linecap="round" stroke-linejoin="round" stroke-miterlimit="0" stroke-width="2.0059" style="paint-order:markers fill stroke"/>
  <path d="m57 15c-9.9393 0-17 7.0595-17 17v192c0 9.9393 7.0595 17 17 17h142c9.9405 0 17-7.0607 17-17v-144l-65-64.998zm4.0332 4.9902 89.967 2e-3 60 60.009v139.75c0 9.4999-6.6575 16.248-16.033 16.248h-133.93c-9.3757 0-16.033-6.7481-16.033-16.248v-183.51c0-9.501 6.6586-16.25 16.033-16.25z" fill="url(#linearGradient14-5)" style="paint-order:markers fill stroke"/>
  <path d="m151 15.002v52.914c0 9.6525 7.8639 17.084 17.518 17.084l47.482-1.3e-4v-5z" fill="#282828" opacity=".3" stroke-width="1.0833"/>
  <path d="m151 15v47.916c0 9.6525 7.8639 17.084 17.518 17.084l47.482-1.3e-4z" fill="url(#linearGradient7-6-0)" stroke-width="1.0833"/>
</svg>
