<svg width="256" height="256" version="1.1" viewBox="0 0 256 256" xmlns="http://www.w3.org/2000/svg">
  <defs>
    <linearGradient id="linearGradient18" x1="128" x2="128" y1="15" y2="241" gradientUnits="userSpaceOnUse">
      <stop stop-color="#cc241d" offset="0"/>
      <stop stop-color="#cc241d" offset="1"/>
    </linearGradient>
    <linearGradient id="linearGradient14-5-0" x1="128" x2="128" y1="15.001" y2="241" gradientTransform="translate(0,4.8e-4)" gradientUnits="userSpaceOnUse">
      <stop stop-color="#ebdbb2" stop-opacity=".2" offset="0"/>
      <stop stop-color="#ebdbb2" stop-opacity=".1" offset=".2"/>
      <stop stop-opacity="0" offset=".70405"/>
      <stop stop-opacity=".05" offset=".80473"/>
      <stop stop-opacity=".1" offset="1"/>
    </linearGradient>
    <linearGradient id="linearGradient7-6-0-7" x1="186" x2="156" y1="45.006" y2="75.012" gradientTransform="matrix(1.0833,0,0,1.0833,-17.999,-1.2512)" gradientUnits="userSpaceOnUse">
      <stop stop-color="#fb4934" offset="0"/>
      <stop stop-color="#cc241d" offset=".3027"/>
      <stop stop-color="#9d0006" offset="1"/>
    </linearGradient>
  </defs>
  <path d="m57 15c-9.9393 0-17 7.0595-17 17v192c0 9.9393 7.0595 17 17 17h142c9.9405 0 17-7.0607 17-17v-144l-65-65z" fill="url(#linearGradient18)" stroke-linecap="round" stroke-linejoin="round" stroke-miterlimit="0" style="paint-order:markers fill stroke"/>
  <path d="m57 241c-9.9393 0-17-7.0595-17-17v-43h176v43c0 9.9405-7.0607 17-17 17z" fill="#fb4934" opacity=".7" stroke-linecap="round" stroke-linejoin="round" stroke-miterlimit="0" style="paint-order:markers fill stroke"/>
  <path d="m89.82 228.28c-11.917 0-13.84-8.7761-13.84-14.44 0-8.7097 5.577-14.48 14.16-14.48 3.5285 0 6.8023 1.0214 8.56 2.12l-1.8 5.04c-1.62-0.86062-3.9004-1.64-6.84-1.64-1.6567 0-7.6 0.57595-7.6 8.84 0 7.3771 4.1646 9.04 7.92 9.04 2.4702 0.084 4.7798-0.55372 7-1.56l1.72 5c-3.204 1.9418-7.9741 2.08-9.28 2.08zm17.52-14.44c0 5.6625 2.8829 8.96 7.36 8.96 4.8781 0 7.36-3.9271 7.36-8.96 0-4.9078-2.3872-9-7.36-9-4.1749 0-7.36 3.1092-7.36 9zm21.16 0c0 9.292-5.7804 14.44-13.8 14.44-7.1983 0-13.8-4.5179-13.8-14.44 0-9.2833 6.2024-14.48 13.8-14.48 7.6238 0 13.8 4.991 13.8 14.48zm13.32-14.16c7.1485 0 12.88 2.1678 12.88 9.12 0 2.1895-0.48893 5.6558-5.2 7.6 3.5509 4.3964 6.5069 10.532 6.88 11.32h-7c-4.0062-7.1689-5.2518-8.7901-6.36-10.12h-3.08v10.12h-6.24v-27.32c3.119-0.61159 6.387-0.72 8.12-0.72zm0.36 5.32c-0.74882-0.01-1.4946 0.0599-2.24 0.12v7.52h1.76c4.8398 0 6.56-1.178 6.56-3.88 0-1.4407-0.45697-3.76-6.08-3.76zm18.2 22.72v-27.72h18.72v5.24h-12.48v5.44h11.08v5.12h-11.08v6.68h13.4v5.24z" fill="#ebdbb2" opacity=".15" aria-label="CORE"/>
  <path d="m89.82 225.28c-11.917 0-13.84-8.7761-13.84-14.44 0-8.7097 5.577-14.48 14.16-14.48 3.5285 0 6.8023 1.0214 8.56 2.12l-1.8 5.04c-1.62-0.86062-3.9004-1.64-6.84-1.64-1.6567 0-7.6 0.57595-7.6 8.84 0 7.3771 4.1646 9.04 7.92 9.04 2.4702 0.084 4.7798-0.55372 7-1.56l1.72 5c-3.204 1.9418-7.9741 2.08-9.28 2.08zm17.52-14.44c0 5.6625 2.8829 8.96 7.36 8.96 4.8781 0 7.36-3.9271 7.36-8.96 0-4.9078-2.3872-9-7.36-9-4.1749 0-7.36 3.1092-7.36 9zm21.16 0c0 9.292-5.7804 14.44-13.8 14.44-7.1983 0-13.8-4.5179-13.8-14.44 0-9.2833 6.2024-14.48 13.8-14.48 7.6238 0 13.8 4.991 13.8 14.48zm13.32-14.16c7.1485 0 12.88 2.1678 12.88 9.12 0 2.1895-0.48893 5.6558-5.2 7.6 3.5509 4.3964 6.5069 10.532 6.88 11.32h-7c-4.0062-7.1689-5.2518-8.7901-6.36-10.12h-3.08v10.12h-6.24v-27.32c3.119-0.61159 6.387-0.72 8.12-0.72zm0.36 5.32c-0.74882-0.01-1.4946 0.0599-2.24 0.12v7.52h1.76c4.8398 0 6.56-1.178 6.56-3.88 0-1.4407-0.45696-3.76-6.08-3.76zm18.2 22.72v-27.72h18.72v5.24h-12.48v5.44h11.08v5.12h-11.08v6.68h13.4v5.24z" fill="#9d0006" aria-label="CORE"/>
  <path d="m90.141 196.36c-8.583 0-14.16 5.7708-14.16 14.48 0 0.50122 0.02093 1.0325 0.05664 1.5742 0.57986-7.906 5.9992-13.055 14.104-13.055 2.9988 0 5.8036 0.74083 7.6602 1.6367l0.89844-2.5156c-1.7577-1.0986-5.0301-2.1211-8.5586-2.1211zm24.559 0c-7.5976-1e-5 -13.799 5.1972-13.799 14.48 0 0.51228 0.0281 1.0008 0.0625 1.4844 0.64158-8.328 6.5643-12.965 13.736-12.965 7.2174 0 13.13 4.48 13.74 13.008 0.0361-0.4973 0.0606-1.0035 0.0606-1.5274 0-9.489-6.177-14.48-13.801-14.48zm27.121 0.32031c-1.733 0-5.002 0.10911-8.1211 0.7207v3c3.119-0.61159 6.3881-0.7207 8.1211-0.7207 6.6045 0 11.989 1.8606 12.771 7.625 0.0747-0.53681 0.10742-1.0514 0.10742-1.5039 0-6.9522-5.7304-9.1211-12.879-9.1211zm18.561 0.32031v3h18.719v-3zm-12.391 10.318c-0.64225 1.5993-2.514 2.3223-6.291 2.3223h-1.7598v3h1.7598c4.8398 0 6.5606-1.1789 6.5606-3.8808 0-0.43088-0.0618-0.9389-0.26954-1.4414zm18.629 0.36133v3h11.08v-3zm-84.088 4.5566c-0.0455 0.46546-0.07227 0.95848-0.07227 1.4844 0 7.3771 4.1665 9.0391 7.9219 9.0391 2.4702 0.084 4.7798-0.55427 7-1.5606l0.8418 2.4492c0.29772-0.1422 0.59946-0.28104 0.87695-0.44922l-1.7188-5c-2.2202 1.0063-4.5298 1.6446-7 1.5606-3.4813 0-7.3088-1.4377-7.8496-7.5234zm39.443 0.10547c-0.45476 4.2889-2.896 7.459-7.2754 7.459-4.061 0-6.8014-2.721-7.2773-7.4512-0.0483 0.4774-0.082 0.96906-0.082 1.4902 0 5.6625 2.8823 8.9609 7.3594 8.9609 4.8781 0 7.3613-3.928 7.3613-8.9609 0-0.51058-0.034-1.0088-0.0859-1.498zm29.141 3.2383c-0.47439 0.29467-1.0089 0.57009-1.6152 0.82031 2.1864 2.707 4.0608 5.9489 5.332 8.3203h1.5488c-0.31441-0.66375-2.4721-5.1221-5.2656-9.1406zm15.504 3.9004v3h13.4v-3z" fill="#282828" opacity=".2"/>
  <path d="m114 55v39.475c0 15.526 4 35.525 4 35.525h19s4-19.999 4-35.525v-39.475zm14 85a15 15 0 0 0-15 15 15 15 0 0 0 15 15 15 15 0 0 0 15-15 15 15 0 0 0-15-15z" fill="#ebdbb2" opacity=".15" stroke-linecap="round" stroke-linejoin="round" stroke-miterlimit="0" stroke-width="3.9474" style="paint-order:markers fill stroke"/>
  <path d="m57 15c-9.9393 0-17 7.0595-17 17v192c0 9.9393 7.0595 17 17 17h142c9.9405 0 17-7.0607 17-17v-144l-65-64.998zm4.0332 4.9902 89.967 2e-3 60 60.009v139.75c0 9.4999-6.6575 16.248-16.033 16.248h-133.93c-9.3757 0-16.033-6.7481-16.033-16.248v-183.51c0-9.501 6.6586-16.25 16.033-16.25z" fill="url(#linearGradient14-5-0)" style="paint-order:markers fill stroke"/>
  <path d="m114 50v39.475c0 15.526 4 35.525 4 35.525h19s4-19.999 4-35.525v-39.475zm14 85a15 15 0 0 0-15 15 15 15 0 0 0 15 15 15 15 0 0 0 15-15 15 15 0 0 0-15-15z" fill="#9d0006" stroke-linecap="round" stroke-linejoin="round" stroke-miterlimit="0" stroke-width="3.9474" style="paint-order:markers fill stroke"/>
  <path d="m114 50v5h27v-5zm14 85a15 15 0 0 0-15 15 15 15 0 0 0 0.2832 2.5 15 15 0 0 1 14.717-12.5 15 15 0 0 1 14.742 12.281 15 15 0 0 0 0.25781-2.2812 15 15 0 0 0-15-15z" fill="#282828" opacity=".2" stroke-linecap="round" stroke-linejoin="round" stroke-miterlimit="0" stroke-width="3.9474" style="paint-order:markers fill stroke"/>
  <path d="m151 15.002v52.914c0 9.6525 7.8639 17.084 17.518 17.084l47.482-1.34e-4v-5z" fill="#282828" opacity=".3" stroke-width="1.0833"/>
  <path d="m151 15v47.916c0 9.6525 7.8639 17.084 17.518 17.084l47.482-1.34e-4z" fill="url(#linearGradient7-6-0-7)" stroke-width="1.0833"/>
</svg>
