<svg width="256" height="256" version="1.1" viewBox="0 0 256 256" xmlns="http://www.w3.org/2000/svg">
  <defs>
    <linearGradient id="linearGradient7-6-0-0" x1="186" x2="156" y1="45.006" y2="75.012" gradientTransform="matrix(1.0833,0,0,1.0833,-17.997,-1.2506)" gradientUnits="userSpaceOnUse">
      <stop stop-color="#928374" offset="0"/>
      <stop stop-color="#665c54" offset=".3027"/>
      <stop stop-color="#3c3836" offset="1"/>
    </linearGradient>
    <linearGradient id="linearGradient14-8" x1="128" x2="128" y1="15.001" y2="241" gradientTransform="translate(0,5e-4)" gradientUnits="userSpaceOnUse">
      <stop stop-color="#282828" stop-opacity=".098065" offset="0"/>
      <stop stop-color="#282828" stop-opacity=".051613" offset=".2"/>
      <stop stop-color="#282828" stop-opacity=".050323" offset=".70405"/>
      <stop stop-color="#282828" stop-opacity=".1" offset=".80473"/>
      <stop stop-color="#282828" stop-opacity=".25" offset="1"/>
    </linearGradient>
    <linearGradient id="linearGradient21" x1="128" x2="128" y1="15" y2="241" gradientUnits="userSpaceOnUse">
      <stop stop-color="#ebdbb2" offset="0"/>
      <stop stop-color="#d5c4a1" offset="1"/>
    </linearGradient>
    <linearGradient id="b-3" x1="157.52" x2="153.78" y1="273.61" y2="273.03" gradientTransform="matrix(2.2756 1.1256 -.43259 .91065 -94.522 -280.04)" gradientUnits="userSpaceOnUse">
      <stop stop-color="#fe8019" offset="0"/>
      <stop stop-color="#fabd2f" offset="1"/>
    </linearGradient>
  </defs>
  <path d="m57 15c-9.9393 0-17 7.0595-17 17v149h176v-101l-64.998-64.998-94.002-0.001953z" fill="url(#linearGradient21)" style="paint-order:markers fill stroke"/>
  <path d="m57 241c-9.9393 0-17-7.0595-17-17v-43h176v43c0 9.9405-7.0607 17-17 17z" fill="#3c3836" stroke-linecap="round" stroke-linejoin="round" stroke-miterlimit="0" style="paint-order:markers fill stroke"/>
  <path d="m109.66 227.72c-0.95148-1.903-3.0803-5.9231-5.72-9.56-2.4126 3.1019-5.4777 8.7108-5.88 9.56h-7.12c2.4908-4.5853 5.4549-8.9918 9.32-14.36l-8.92-13.36h7.56l5.4 8.64 5.28-8.64h7.12l-8.8 13.44c2.0317 2.6364 5.968 8.0335 9.24 14.28zm14.8-13.88c0 5.6626 2.8829 8.96 7.36 8.96 4.8781 0 7.36-3.9271 7.36-8.96 0-4.9078-2.3872-9-7.36-9-4.1749 0-7.36 3.1092-7.36 9zm21.16 0c0 9.292-5.7804 14.44-13.8 14.44-7.1983 0-13.8-4.5179-13.8-14.44 0-9.2833 6.2024-14.48 13.8-14.48 7.6238 0 13.8 4.991 13.8 14.48zm19.44 4.56c0 9.0384-6.2603 9.88-10.04 9.88-2.8555 0.0854-5.5096-0.71748-7.92-2.2l2.08-4.84c1.6547 1.0291 3.4215 1.6208 5.36 1.72 3.1245 0 4.28-1.4992 4.28-4.88v-18.08h6.24z" fill="#282828" opacity=".5" aria-label="XOJ"/>
  <path d="m109.66 224.72c-0.95148-1.903-3.0803-5.9231-5.72-9.56-2.4126 3.1019-5.4777 8.7108-5.88 9.56h-7.12c2.4908-4.5853 5.4549-8.9918 9.32-14.36l-8.92-13.36h7.56l5.4 8.64 5.28-8.64h7.12l-8.8 13.44c2.0317 2.6364 5.968 8.0335 9.24 14.28zm14.8-13.88c0 5.6626 2.8829 8.96 7.36 8.96 4.8781 0 7.36-3.9271 7.36-8.96 0-4.9078-2.3872-9-7.36-9-4.1749 0-7.36 3.1092-7.36 9zm21.16 0c0 9.292-5.7804 14.44-13.8 14.44-7.1983 0-13.8-4.5179-13.8-14.44 0-9.2833 6.2024-14.48 13.8-14.48 7.6238 0 13.8 4.991 13.8 14.48zm19.44 4.56c0 9.0384-6.2603 9.88-10.04 9.88-2.8555 0.0854-5.5096-0.71748-7.92-2.2l2.08-4.84c1.6547 1.0291 3.4215 1.6208 5.36 1.72 3.1245 0 4.28-1.4992 4.28-4.88v-18.08h6.24z" fill="#ebdbb2" aria-label="XOJ"/>
  <path d="m131.82 196.36c-7.5976-1e-5 -13.801 5.1971-13.801 14.48 0 0.51971 0.0291 1.0157 0.0644 1.5059 0.63324-8.3412 6.5582-12.986 13.736-12.986 7.2174 0 13.128 4.48 13.738 13.008 0.0361-0.4973 0.0605-1.0035 0.0605-1.5274 0-9.489-6.175-14.48-13.799-14.48zm-40.48 0.64062 2.0039 3h5.5566l5.4004 8.6406 5.2793-8.6406h5.1543l1.9648-3h-7.1191l-5.2793 8.6406-5.4004-8.6406zm67.48 0v3h6.2402v-3zm-59.592 14.816c-3.3505 4.7073-6.033 8.7511-8.2891 12.904h1.7148c2.1232-3.5627 4.5868-7.1688 7.6055-11.361zm9.7188 0.0254-1.0469 1.5976c1.6967 2.2017 4.7191 6.3421 7.5762 11.281h1.6641c-2.8066-5.358-6.0304-9.977-8.1934-12.879zm30.148 0.49609c-0.45368 4.2909-2.8946 7.4629-7.2754 7.4629-4.061 0-6.8033-2.7209-7.2793-7.4512-0.0483 0.47737-0.0801 0.96909-0.0801 1.4902 0 5.6626 2.8823 8.9609 7.3594 8.9609 4.8781 0 7.3594-3.928 7.3594-8.9609 0-0.51192-0.0318-1.0115-0.084-1.502zm19.725 2.7422c0 3.3808-1.1568 4.8809-4.2812 4.8809-1.9385-0.0992-3.7047-0.69164-5.3594-1.7207l-2.0801 4.8398c0.34092 0.20968 0.68852 0.40208 1.0391 0.58398l1.041-2.4238c1.6547 1.0291 3.4209 1.6215 5.3594 1.7207 3.1245 0 4.2812-1.5001 4.2812-4.8809z" fill="#fbf1c7" opacity=".6"/>
  <path d="m40 42v3h141l-3-3zm0 15v3h156l-3-3zm0 15v3h171l-3-3zm0 15v3h176v-3zm0 15v3h176v-3zm0 15v3h176v-3zm0 15v3h176v-3zm0 15v3h176v-3zm0 15v3h176v-3z" fill="#1d2021" opacity=".1" stroke-linecap="square" stroke-linejoin="round" stroke-miterlimit="0" stroke-width="3" style="paint-order:markers fill stroke"/>
  <path d="m135.08 99.937c-5.0803 0-7.355 1.9245-14.185 12.613l-9.6344 15.238-4.5552-15.59c-2.8053-9.8074-6.6582-12.261-11.208-12.261-5.079 0-11.212 4.378-19.097 13.31-0.87562 0.70358 0.70228 2.2802 1.4046 1.4046 4.7285-4.9057 8.7548-7.1807 11.732-7.1807 2.4535 0 5.9598 1.2209 8.7589 10.505l5.9545 19.972-12.261 18.216c-2.7988 4.0262-5.4295 5.2536-7.7043 5.2536-3.5024 0-3.8542-3.5024-7.884-3.5024-2.8001 0-4.7298 1.7512-5.0803 4.2047-0.6971 4.7284 4.2047 8.7548 8.7596 8.7548 5.2575 0 7.5327-2.103 14.189-12.786l10.858-17.162 5.608 18.914c2.6268 9.1102 5.9546 11.035 10.506 11.035 5.079 0 11.212-4.5512 19.091-13.31 0.8808-0.87561-0.52379-2.275-1.3994-1.5779-4.7285 4.907-8.5812 7.1821-11.558 7.1821-2.6268 0-5.7826-0.70357-8.2347-8.9332l-7.0051-23.647 11.036-16.114c2.804-3.8542 5.4295-5.2536 7.7043-5.2536 3.5024 0 3.8529 3.5024 7.884 3.5024 2.8001 0 4.7285-1.7512 5.0803-4.2047 0.6971-4.5552-4.2047-8.5812-8.7596-8.5812z" fill="#282828" opacity=".15" stroke-width="1.303"/>
  <path d="m135.08 94.063c-5.0803 0-7.355 1.9245-14.185 12.613l-9.6344 15.238-4.5552-15.59c-2.8053-9.8074-6.6582-12.261-11.208-12.261-5.079 0-11.212 4.378-19.097 13.31-0.87562 0.70358 0.70228 2.2802 1.4046 1.4046 4.7285-4.9057 8.7548-7.1807 11.732-7.1807 2.4535 0 5.9598 1.2209 8.7589 10.505l5.9545 19.972-12.261 18.216c-2.7988 4.0262-5.4295 5.2536-7.7043 5.2536-3.5024 0-3.8542-3.5024-7.884-3.5024-2.8001 0-4.7298 1.7512-5.0803 4.2047-0.6971 4.7285 4.2047 8.7548 8.7596 8.7548 5.2575 0 7.5327-2.103 14.189-12.786l10.858-17.162 5.608 18.914c2.6268 9.1102 5.9546 11.035 10.506 11.035 5.079 0 11.212-4.5512 19.091-13.31 0.8808-0.87562-0.52379-2.275-1.3994-1.5779-4.7285 4.907-8.5812 7.1821-11.558 7.1821-2.6268 0-5.7826-0.70357-8.2347-8.9332l-7.0051-23.647 11.036-16.114c2.804-3.8542 5.4295-5.2536 7.7043-5.2536 3.5024 0 3.8529 3.5024 7.884 3.5024 2.8001 0 4.7285-1.7512 5.0803-4.2047 0.6971-4.5552-4.2047-8.5812-8.7596-8.5812z" fill="#3c3836" stroke-width="1.303"/>
  <path d="m95.496 94.063c-5.079 0-11.212 4.379-19.097 13.311-0.87562 0.70357 0.70194 2.2798 1.4042 1.4042 0.12054-0.12505 0.23543-0.22809 0.35504-0.34972 7.0378-7.6062 12.646-11.392 17.337-11.392 4.55 0 8.4021 2.4541 11.207 12.262l4.5557 15.59 9.6338-15.239c6.8301-10.688 9.1054-12.612 14.186-12.612 3.7376 0 7.7022 2.7126 8.622 6.202 0.0513-0.19523 0.10746-0.38734 0.13696-0.59306 0.6971-4.5552-4.2039-8.5819-8.7589-8.5819-5.0803 0-7.3557 1.9244-14.186 12.612l-9.6338 15.239-4.5557-15.59c-2.8053-9.8074-6.6572-12.262-11.207-12.262zm17.251 32.728-0.61435 0.89761 7.0051 23.645c2.4522 8.2299 5.6084 8.9332 8.2353 8.9332 2.9773 0 6.8294-2.275 11.558-7.1821 0.0572-0.0456 0.12118-0.0594 0.18217-0.0878 0.40751-0.44013 0.80087-0.84342 1.2181-1.3071 0.88079-0.87561-0.52463-2.2755-1.4002-1.5784-4.7285 4.907-8.5812 7.1821-11.558 7.1821-2.6268 0-5.7829-0.70371-8.2353-8.9332zm-9.1129 6.1953-11.646 17.303c-2.7988 4.0262-5.4296 5.2538-7.7043 5.2538-3.5024 0-3.854-3.5025-7.884-3.5025-2.8001 0-4.7305 1.7512-5.081 4.2047-0.12295 0.83402-0.06379 1.6441 0.12898 2.4161 0.548-2.1524 2.3724-3.6475 4.952-3.6475 4.0301 0 4.3817 3.5025 7.884 3.5025 2.275 0 4.9058-1.2277 7.7043-5.2538l12.26-18.215z" fill="#ebdbb2" opacity=".1" stroke-width="1.303"/>
  <path d="m177.67 53.379c-1.3669-0.04978-2.5206 0.46326-2.9986 1.4747l-37.306 79.235-0.0519 4.7685 13.532 6.9492 3.6355-2.9334 37.309-79.235c0.76355-1.6183-0.50401-3.8888-2.835-5.0836l-8.6929-4.4639c-0.87459-0.44855-1.7715-0.68158-2.5916-0.7114zm-26.825 92.423c3e-3 -2e-3 -13.533-6.9479-13.533-6.9479-0.34136 5.9878-1.42 12.591-0.0864 13.876-0.0129 0.0263-0.026 0.0518-0.0385 0.0785-0.79875 1.7108-0.57189 3.5486 0.5226 4.109 1.0893 0.55898 2.6268-0.37148 3.4308-2.0771 1.4996 0.80189 5.3285-4.7532 9.7046-9.038z" fill="#282828" opacity=".15" stroke-width="1.303"/>
  <path d="m141.14 151.96c-0.80394 1.7056-2.3414 2.6359-3.4307 2.077-1.0945-0.56029-1.3225-2.3975-0.5238-4.1083 0.80393-1.7043 2.3414-2.6359 3.4307-2.0756 1.0945 0.56028 1.329 2.3975 0.5238 4.107z" fill="#928374" stroke-width="1.303"/>
  <path d="m137.31 135.97c-0.35758 6.2721-1.5262 13.224 0.11835 14.027l3.71 1.9601c1.4996 0.8019 5.3285-4.7532 9.7046-9.0383 3e-3 -2e-3 -13.533-6.948-13.533-6.948z" fill="url(#b-3)" stroke-width="1.303"/>
  <path d="m180.26 51.205c-2.3323-1.1961-4.8249-0.85475-5.5898 0.76354l-37.307 79.231-0.0521 4.7689 13.533 6.9497 3.6354-2.9339 37.308-79.231c0.76355-1.6183-0.50295-3.8894-2.834-5.0842z" fill="#fe8019" stroke-width="1.303"/>
  <path d="m181.93 52.1-40.494 85.991 9.4034 4.8271 3.6354-2.9326 37.308-79.233c0.76355-1.6183-0.0964-3.5571-1.6287-4.3415z" fill="#d65d0e" stroke-width="1.303"/>
  <path d="m149.76 133.93-3.2014 6.7898 4.2868 2.1981 3.6326-2.9317 1.3746-2.9265 35.934-76.308c0.98768-2.0978 0.59545-3.3226-2.9004-5.1207l-1.7772-0.91075" fill="#af3a03" stroke-width="1.303"/>
  <path d="m180.26 51.205c-2.3323-1.1961-4.8249-0.85475-5.5898 0.76354l17.117 8.7847c1.359-2.5408-0.50295-3.8894-2.834-5.0842z" fill="#3c3836" stroke-width="1.303"/>
  <path d="m57 15c-9.9393 0-17 7.0595-17 17v192c0 9.9393 7.0595 17 17 17h142c9.9405 0 17-7.0607 17-17v-144l-65-65zm4.0332 4.9902 89.967 0.01 60 60 2e-4 139.75c1e-5 9.4999-6.6575 16.248-16.033 16.248h-133.93c-9.3757 0-16.033-6.7481-16.033-16.248v-183.51c0-9.501 6.6586-16.25 16.033-16.25z" fill="url(#linearGradient14-8)" style="paint-order:markers fill stroke"/>
  <path d="m151 15.002v52.914c0 9.6525 7.8639 17.084 17.518 17.084l47.482-1.34e-4v-5z" fill="#282828" opacity=".2" stroke-width="1.0833"/>
  <path d="m151 15.001v47.916c0 9.6525 7.8639 17.084 17.518 17.084l47.482-1.34e-4z" fill="url(#linearGradient7-6-0-0)" stroke-width="1.0833"/>
</svg>
