<svg width="256" height="256" version="1.1" viewBox="0 0 256 256" xmlns="http://www.w3.org/2000/svg" xmlns:xlink="http://www.w3.org/1999/xlink">
  <defs>
    <linearGradient id="linearGradient7-6-0-3" x1="186" x2="156" y1="45.006" y2="75.012" gradientTransform="matrix(1.0833 0 0 1.0833 -17.997 -1.2505)" gradientUnits="userSpaceOnUse">
      <stop stop-color="#83a598" offset="0"/>
      <stop stop-color="#458588" offset=".3027"/>
      <stop stop-color="#076678" offset="1"/>
    </linearGradient>
    <linearGradient id="linearGradient14-2-2" x1="128" x2="128" y1="15.001" y2="241" gradientTransform="translate(0,4.8e-4)" gradientUnits="userSpaceOnUse">
      <stop stop-color="#076678" stop-opacity=".096774" offset="0"/>
      <stop stop-color="#076678" stop-opacity=".049032" offset=".2"/>
      <stop stop-color="#076678" stop-opacity=".046452" offset=".70405"/>
      <stop stop-color="#282828" stop-opacity=".049032" offset=".80473"/>
      <stop stop-color="#282828" stop-opacity=".099355" offset="1"/>
    </linearGradient>
    <linearGradient id="linearGradient21-5" x1="128" x2="128" y1="15" y2="241" gradientUnits="userSpaceOnUse">
      <stop stop-color="#ebdbb2" offset="0"/>
      <stop stop-color="#d5c4a1" offset="1"/>
    </linearGradient>
    <linearGradient id="linearGradient20" x1="126.27" x2="185" y1="117.01" y2="160" gradientTransform="translate(0 -5)" gradientUnits="userSpaceOnUse">
      <stop stop-color="#458588" offset="0"/>
      <stop stop-color="#83a598" offset="1"/>
    </linearGradient>
    <linearGradient id="linearGradient22" x1="113.13" x2="185" y1="103.56" y2="160" gradientTransform="translate(0 -5)" gradientUnits="userSpaceOnUse">
      <stop stop-color="#076678" offset="0"/>
      <stop stop-color="#83a598" offset="1"/>
    </linearGradient>
  </defs>
  <path d="m57 15c-9.9393 0-17 7.0595-17 17v149h176v-101l-64.998-64.998-94.002-0.00195z" fill="url(#linearGradient21-5)" style="paint-order:markers fill stroke"/>
  <path d="m57 241c-9.9393 0-17-7.0595-17-17v-43h176v43c0 9.9405-7.0607 17-17 17z" fill="#458588" stroke-linecap="round" stroke-linejoin="round" stroke-miterlimit="0" style="paint-order:markers fill stroke"/>
  <path d="m82.92 200v5.32h-8.36v22.4h-6.24v-22.4h-8.36v-5.32zm20.72 0h6.24v27.72h-6.24v-11.76h-10.48v11.76h-6.24v-27.72h6.24v10.6h10.48zm12.64 27.72v-27.72h18.72v5.24h-12.48v5.44h11.08v5.12h-11.08v6.68h13.4v5.24zm31.6-27.72c2.8077 5.364 5.1623 10.948 7.52 16.52 2.3568-5.5724 4.6676-11.178 7.52-16.52h5.68c1.2019 9.1934 1.7322 18.464 2.2 27.72h-6.08c-0.20884-7.0309-0.45108-12.726-0.92-18.4-2.144 4.9499-4.2446 9.918-6.36 14.88h-4.36c-2.1341-4.9541-4.2337-9.9226-6.36-14.88-0.46892 5.6739-0.71116 11.369-0.92 18.4h-6.08c0.61669-12.642 1.2396-21.093 2.2-27.72zm28.52 27.72v-27.72h18.72v5.24h-12.48v5.44h11.08v5.12h-11.08v6.68h13.4v5.24z" fill="#282828" opacity=".2" aria-label="THEME"/>
  <path d="m82.92 197v5.32h-8.36v22.4h-6.24v-22.4h-8.36v-5.32zm20.72 0h6.24v27.72h-6.24v-11.76h-10.48v11.76h-6.24v-27.72h6.24v10.6h10.48zm12.64 27.72v-27.72h18.72v5.24h-12.48v5.44h11.08v5.12h-11.08v6.68h13.4v5.24zm31.6-27.72c2.8077 5.364 5.1623 10.948 7.52 16.52 2.3568-5.5724 4.6676-11.178 7.52-16.52h5.68c1.2019 9.1934 1.7322 18.464 2.2 27.72h-6.08c-0.20884-7.0309-0.45108-12.726-0.92-18.4-2.144 4.9499-4.2446 9.918-6.36 14.88h-4.36c-2.1341-4.9541-4.2337-9.9226-6.36-14.88-0.46892 5.6739-0.71116 11.369-0.92 18.4h-6.08c0.61669-12.642 1.2396-21.093 2.2-27.72zm28.52 27.72v-27.72h18.72v5.24h-12.48v5.44h11.08v5.12h-11.08v6.68h13.4v5.24z" fill="#ebdbb2" aria-label="THEME"/>
  <path d="m59.962 197v3h22.959v-3zm26.959 0v3h6.2402v-3zm16.721 0v3h6.2402v-3zm12.639 0v3h18.721v-3zm25.641 0c-0.96038 6.6266-1.5825 15.078-2.1992 27.721h0.16016c0.56695-10.915 1.1612-18.663 2.0391-24.721h5.9609c2.8077 5.364 5.1618 10.948 7.5195 16.52 2.3568-5.5724 4.6672-11.177 7.5195-16.52h5.6797c1.072 8.2003 1.6034 16.463 2.0391 24.721h0.16211c-0.46781-9.2559-0.99929-18.527-2.2012-27.721h-5.6797c-2.8524 5.3425-5.1628 10.947-7.5195 16.52-2.3577-5.5719-4.7119-11.156-7.5195-16.52zm34.48 0v3h18.719v-3zm-83.24 10.6v3h10.48v-3zm29.359 0.0801v3h11.08v-3zm60.121 0v3h11.08v-3zm-60.121 11.801v3h13.4v-3zm60.121 0v3h13.398v-3z" fill="#fbf1c7" opacity=".6"/>
  <path d="m72.494 47.677c-1.0578-0.03445-2.1293 0.33419-2.9629 1.1152l-3.2227 3.0195c-1.6673 1.562-1.7535 4.1785-0.19141 5.8457l8.4766 9.0469 9.2598-8.6758-8.4766-9.0449c-0.78102-0.83366-1.825-1.2722-2.8828-1.3066zm14.18 13.361-9.2598 8.6758 31.088 33.182 9.2598-8.6738zm39.031 33.346a4.1358 4.1358 0 0 0-3.332 1.0723l-0.01 0.0098-11.701 10.9c-1.3509 1.2657-1.7081 3.2838-0.84961 4.9199l4.8496 9.4258a4.1358 4.1358 0 0 0 5.0332 1.9844c-0.50645 2.4824-0.64288 5.2322-0.26953 8.2773 2.5637 20.836 45.335 49.263 71.574 24.234-22.813 3.2694-16.232-21.018-28.221-37.93-6.2461-8.8105-17.065-12.89-24.697-12.299a4.1358 4.1358 0 0 0-1.8184-4.3789l-8.8691-5.6094a4.1358 4.1358 0 0 0-1.6894-0.60742z" fill="#282828" opacity=".15"/>
  <path d="m136.24 100.21c7.6336-1.4859 19.774 2.5202 26.541 12.065 11.989 16.911 5.4085 41.198 28.221 37.928-26.239 25.028-69.011-3.3978-71.575-24.233-0.55223-4.5041-5e-3 -8.3773 1.2362-11.665z" fill="url(#linearGradient20)" fill-rule="evenodd" stroke-width="3.4018"/>
  <path d="m136.24 100.21c7.6336-1.4859 19.774 2.5202 26.541 12.065 11.989 16.911 5.4085 41.198 28.221 37.928-26.239 25.028-69.011-3.3978-71.575-24.233-0.55223-4.5041-5e-3 -8.3773 1.2362-11.665z" fill="url(#linearGradient22)" fill-rule="evenodd" stroke-width="3.4018"/>
  <path d="m139.29 99.916c-1.0757 0.01402-2.1005 0.11308-3.0547 0.29882l-15.576 14.096c-1.1556 3.0609-1.697 6.6354-1.3223 10.748 0.20679-2.0846 0.66266-4.0029 1.3223-5.75l15.576-14.094c7.6336-1.4859 19.774 2.5197 26.541 12.064 10.622 14.983 6.6841 35.739 21.51 38.008 2.3256-1.3622 4.574-3.0398 6.7109-5.0781-22.813 3.2694-16.232-21.018-28.221-37.93-5.9208-8.3516-15.956-12.461-23.486-12.363z" fill="#ebdbb2" opacity=".15"/>
  <path d="m86.673 55.985-9.2597 8.6755 31.089 33.183 9.2597-8.6755zm35.691 34.427-11.703 10.9c-1.3509 1.2657-1.7068 3.2849-0.84828 4.921l4.8489 9.4252a4.1358 4.1358 0 0 0 6.5032 1.1319l15.732-14.74a4.1358 4.1358 0 0 0-0.6337-6.5027l-8.869-5.6105a4.1358 4.1358 0 0 0-5.0219 0.46641zm-38.511-37.436-8.4753-9.046c-1.562-1.6673-4.1787-1.7525-5.8459-0.19041l-3.2234 3.02c-1.6673 1.562-1.7525 4.1787-0.1904 5.8459l8.4752 9.046z" fill="#504945" stroke-width="11.716"/>
  <path d="m72.495 42.623c-1.0578-0.03445-2.1293 0.33419-2.9629 1.1152l-3.2227 3.0215c-1.5713 1.4721-1.7193 3.8711-0.42578 5.5391 0.13135-0.16854 0.26492-0.33562 0.42578-0.48633l3.2227-3.0195c1.6672-1.5621 4.2837-1.4779 5.8457 0.18945l5.9551 6.3555 2.5215-2.3613-8.4766-9.0469c-0.78102-0.83366-1.825-1.2722-2.8828-1.3066zm14.18 13.361-9.2598 8.6758 2.5195 2.6895 6.7383-6.3105 28.568 30.49 2.5215-2.3613zm39.031 33.348a4.1358 4.1358 0 0 0-3.332 1.0723l-0.01 0.0078-11.701 10.9c-1.3509 1.2657-1.7081 3.2858-0.84961 4.9219l0.35547 0.6914c0.14682-0.19808 0.30769-0.38768 0.49219-0.56055l11.703-10.9 8e-3 -0.0078a4.1358 4.1358 0 0 1 5.0234-0.4668l8.8691 5.6113a4.1358 4.1358 0 0 1 1.0566 0.96875 4.1358 4.1358 0 0 0-1.0566-6.0234l-8.8691-5.6094a4.1358 4.1358 0 0 0-1.6894-0.60547z" fill="#ebdbb2" opacity=".1"/>
  <path d="m57 15c-9.9393 0-17 7.0595-17 17v192c0 9.9393 7.0595 17 17 17h142c9.9405 0 17-7.0607 17-17v-144l-65-65zm4.0332 4.9902 89.967 0.01 60 60 2e-4 139.75c1e-5 9.4999-6.6575 16.248-16.033 16.248h-133.93c-9.3757 0-16.033-6.7481-16.033-16.248v-183.51c0-9.501 6.6586-16.25 16.033-16.25z" fill="url(#linearGradient14-2-2)" style="paint-order:markers fill stroke"/>
  <path d="m151 15.002v52.914c0 9.6525 7.8639 17.084 17.518 17.084l47.482-1.3e-4v-5z" fill="#282828" opacity=".2" stroke-width="1.0833"/>
  <path d="m151 15.001v47.916c0 9.6525 7.8639 17.084 17.518 17.084l47.482-1.3e-4z" fill="url(#linearGradient7-6-0-3)" stroke-width="1.0833"/>
</svg>
