<svg width="256" height="256" version="1.1" viewBox="0 0 256 256" xmlns="http://www.w3.org/2000/svg">
  <defs>
    <linearGradient id="linearGradient7-6-0" x1="186" x2="156" y1="45.006" y2="75.012" gradientTransform="matrix(1.0833 0 0 1.0833 -17.998 -1.2506)" gradientUnits="userSpaceOnUse">
      <stop stop-color="#fb4934" offset="0"/>
      <stop stop-color="#cc241d" offset=".3027"/>
      <stop stop-color="#9d0006" offset="1"/>
    </linearGradient>
    <linearGradient id="linearGradient21" x1="128" x2="128" y1="15" y2="241" gradientTransform="translate(-9.75e-4,-9.75e-4)" gradientUnits="userSpaceOnUse">
      <stop stop-color="#ebdbb2" offset="0"/>
      <stop stop-color="#d5c4a1" offset="1"/>
    </linearGradient>
    <linearGradient id="linearGradient14-4" x1="128" x2="128" y1="15.001" y2="241" gradientTransform="translate(0,4.8e-4)" gradientUnits="userSpaceOnUse">
      <stop stop-color="#9d0006" stop-opacity=".097113" offset="0"/>
      <stop stop-color="#9d0006" stop-opacity=".048556" offset=".2"/>
      <stop stop-color="#9d0006" stop-opacity=".051181" offset=".70405"/>
      <stop stop-color="#282828" stop-opacity=".053806" offset=".80473"/>
      <stop stop-color="#282828" stop-opacity=".14698" offset="1"/>
    </linearGradient>
  </defs>
  <path d="m56.999 14.999c-9.9393 0-17 7.0595-17 17v149h176v-101l-64.998-64.998z" fill="url(#linearGradient21)" style="paint-order:markers fill stroke"/>
  <path d="m57 241c-9.9393 0-17-7.0595-17-17v-43h176v43c0 9.9405-7.0607 17-17 17z" fill="#fb4934" stroke-linecap="round" stroke-linejoin="round" stroke-miterlimit="0" style="paint-order:markers fill stroke"/>
  <path d="m134.52 199.36c-6.1614 0-10.201 3.1676-10.201 8.3184 0 5.245 4.1362 6.9788 7.5996 8.2012 4.6538 1.5513 5.6816 2.6662 5.6816 4.1992 0 1.8983-1.2469 2.8809-4.4805 2.8809-2.6298-0.0534-5.1983-0.44361-7.5195-1.7598l-1.7617 4.959c3.2306 1.8461 7.205 2.1211 9.2812 2.1211 4.9504 0 10.92-1.4013 10.92-8.1602 0-5.2319-2.5883-7.0435-8.5195-9.2402-1.9372-0.67648-4.5535-1.2931-4.8008-3.6797 0-1.7217 1.2801-2.5215 4.1992-2.5215 2.1093 0.0522 4.127 0.52421 6 1.5215l1.8008-4.9199c-1.7893-0.97596-4.4781-1.9199-8.1992-1.9199zm27.279 0c-8.6163 0-14.16 5.7999-14.16 14.479 0 5.6733 1.927 14.441 13.84 14.441 1.308 0 6.0776-0.13964 9.2793-2.0801l-1.7188-5c-2.1768 1.1352-4.5678 1.5155-7 1.5586-3.7555 0-7.9199-1.663-7.9199-9.0391 0-8.2607 5.9353-8.8398 7.5996-8.8398 2.9616 0 5.2438 0.7927 6.8398 1.6406l1.8008-5.041c-1.6645-1.0403-4.9032-2.1191-8.5605-2.1191zm-76.561 0.63867c1.5423 7.6672 3.818 17.568 7.1602 27.721h5.7207c1.9643-5.4364 3.577-10.986 5.2402-16.52 2.8865 9.5615 3.9568 12.785 5.3184 16.52h5.7207c3.6305-11.028 6.2011-22.953 7.1602-27.721h-6.4805c-0.26667 1.5733-0.5589 3.2132-0.8789 4.9199-1.1546 6.6128-2.0486 10.748-3 14.48-1.8274-5.4256-3.417-10.928-4.9609-16.439h-5.3203c-3.3703 12.256-3.552 12.827-4.8789 16.439-1.9423-7.0754-3.9126-18.643-4.041-19.4z" fill="#282828" opacity=".2"/>
  <path d="m134.52 196.36c-6.1614 0-10.201 3.1676-10.201 8.3184 0 5.245 4.1362 6.9788 7.5996 8.2012 4.6538 1.5513 5.6816 2.6662 5.6816 4.1992 0 1.8983-1.2469 2.8809-4.4805 2.8809-2.6298-0.0534-5.1983-0.44361-7.5195-1.7598l-1.7617 4.959c3.2306 1.8461 7.205 2.1211 9.2812 2.1211 4.9504 0 10.92-1.4013 10.92-8.1602 0-5.2319-2.5883-7.0435-8.5195-9.2402-1.9372-0.67648-4.5535-1.2931-4.8008-3.6797 0-1.7217 1.2801-2.5215 4.1992-2.5215 2.1093 0.0522 4.127 0.52421 6 1.5215l1.8008-4.9199c-1.7893-0.97596-4.4781-1.9199-8.1992-1.9199zm27.279 0c-8.6163 0-14.16 5.7999-14.16 14.479 0 5.6733 1.927 14.441 13.84 14.441 1.308 0 6.0776-0.13964 9.2793-2.0801l-1.7188-5c-2.1768 1.1352-4.5678 1.5155-7 1.5586-3.7555 0-7.9199-1.663-7.9199-9.0391 0-8.2607 5.9353-8.8398 7.5996-8.8398 2.9616 0 5.2438 0.7927 6.8398 1.6406l1.8008-5.041c-1.6645-1.0403-4.9032-2.1191-8.5605-2.1191zm-76.561 0.63867c1.5423 7.6672 3.818 17.568 7.1602 27.721h5.7207c1.9643-5.4364 3.577-10.986 5.2402-16.52 2.8865 9.5615 3.9568 12.785 5.3184 16.52h5.7207c3.6305-11.028 6.2011-22.953 7.1602-27.721h-6.4805c-0.26667 1.5733-0.5589 3.2132-0.8789 4.9199-1.1546 6.6128-2.0486 10.748-3 14.48-1.8274-5.4256-3.417-10.928-4.9609-16.439h-5.3203c-3.3703 12.256-3.552 12.827-4.8789 16.439-1.9423-7.0754-3.9126-18.643-4.041-19.4z" fill="#ebdbb2"/>
  <path d="m134.52 196.36c-6.1614 0-10.201 3.1676-10.201 8.3184 0 0.53725 0.0531 1.0293 0.13477 1.4961 0.72097-4.2526 4.5323-6.8144 10.066-6.8144 3.1299 0 5.5213 0.66992 7.2695 1.4629l0.92968-2.543c-1.7893-0.97596-4.4781-1.9199-8.1992-1.9199zm27.279 0c-8.6163 0-14.16 5.7999-14.16 14.479 0 0.49884 0.0233 1.0278 0.0586 1.5664 0.58094-7.8765 5.9697-13.045 14.102-13.045 3.088 0 5.8666 0.76911 7.6621 1.6348l0.89844-2.5156c-1.6645-1.0403-4.9032-2.1191-8.5606-2.1191zm-76.561 0.63867c0.18843 0.93675 0.42384 2.0002 0.63477 3h6.125c0.12837 0.75737 2.0987 12.325 4.041 19.4 1.3269-3.6121 1.5086-4.1839 4.8789-16.439h5.3203c1.544 5.5115 3.1335 11.014 4.9609 16.439 0.95142-3.7325 1.8454-7.8676 3-14.48 0.32-1.7067 0.61224-3.3466 0.87891-4.9199h5.8457c0.22688-1.0657 0.4847-2.2539 0.63477-3h-6.4805c-0.26667 1.5733-0.55891 3.2132-0.87891 4.9199-1.1546 6.6128-2.0486 10.748-3 14.48-1.8274-5.4256-3.417-10.928-4.9609-16.439h-5.3203c-3.3703 12.256-3.552 12.827-4.8789 16.439-1.9423-7.0754-3.9126-18.643-4.041-19.4zm46.037 8.6484c-0.37763 0.39254-0.55664 0.9082-0.55664 1.5527 0.24727 2.3866 2.8636 3.0032 4.8008 3.6797 5.275 1.9537 7.9004 3.6095 8.418 7.6309 0.061-0.43827 0.10157-0.89667 0.10157-1.3906 0-5.2319-2.5883-7.0435-8.5195-9.2402-1.4676-0.5125-3.3224-0.99296-4.2441-2.2324zm22.914 6.5879c-0.0454 0.4653-0.0703 0.95868-0.0703 1.4844 0 7.3761 4.1644 9.0391 7.9199 9.0391 2.4322-0.0431 4.8232-0.42342 7-1.5586l0.84765 2.4629c0.29918-0.14272 0.59236-0.29396 0.8711-0.46289l-1.7188-5c-2.1768 1.1352-4.5678 1.5155-7 1.5586-3.4818 0-7.3093-1.4371-7.8496-7.5234zm-28.59 5.9648-1.7617 4.959c0.29448 0.16827 0.59946 0.30997 0.9043 0.45312l0.85742-2.4121c2.3212 1.3162 4.8898 1.7064 7.5195 1.7598 3.2335 0 4.4805-0.98258 4.4805-2.8809 0-0.5104-0.1333-0.97264-0.45703-1.4219-0.60819 0.85544-1.8654 1.3027-4.0234 1.3027-2.6298-0.0534-5.1983-0.44361-7.5195-1.7598z" fill="#fbf1c7" opacity=".6"/>
  <path class="st2" d="m133.69 145.04c-0.52039-7e-3 -1.0958 0.12481-1.709 0.4375-1.3045 0.65919-2.2277 1.8805-2.6094 3.2891l-4.0449 14.801c-0.18041 0.68-0.31227 1.3734-0.32617 2.0742-0.14571 6.4463 7.0566 8.4789 11.99 5.3633l2.4766-1.7949c1.7364 2.3613 4.8317 3.7871 8.7168 3.7871 9.2496 0 14.883-7.2934 15.021-11.936 0.21512-7.4732-6.6539-6.6476-10.824-4.5312-0.48572 0.24287-1.5744 0.74289 0.14648 1.0898 4.6422 1.1866 3.1144 12.191-2.6172 12.191-5.683 0-4.6768-8.9574 0.0625-13.6 1.138-1.1172 0.14634-3.0251-1.4219-2.7129-5.8912 1.1727-10.629 6.4037-10.623 10.852 0 0.78654 0.0981 1.5347 0.28516 2.2383l-3.1719 2.3066c-1.3392 0.87431-4.4139 0.14724-2.7832-5.4941l4.0801-14.934c0.36321-1.61-0.78989-3.4023-2.6484-3.4277zm-41.934 8e-3c-16.389-0.26592-21.754 9.8959-21.754 15.445 0 16.209 22.205 12.636 25.994 6.7031 1.1727-2.0609-1.5408-4.1072-3.1992-2.4141-0.08328 0.0902-0.17347 0.17923-0.26367 0.26953 0 0-3.0952 2.9068-6.6133 3.5312-5.3916 0.96452-7.4727-3.2807-7.4727-7.2637-0.04164-4.3716 4.5586-12.727 11.727-12.727 0 0 3.3242 0.34696 3.3242 3.2891v2.9766c0 2.0192 2.8583 2.4019 3.3926 0.45898l2.373-8.6875 0.20898-0.78515c-2.8077-0.50742-5.3755-0.75889-7.7168-0.79688zm17.328 8.418c-0.0931 3e-3 -0.1891 0.0137-0.28711 0.0332-5.8912 1.1725-10.623 6.4035-10.623 10.851-1e-5 5.1348 4.1565 8.6465 10.256 8.6465 9.2496 0 14.885-7.2934 15.023-11.936 0.21511-7.4732-6.6559-6.6476-10.826-4.5312-0.48572 0.24287-1.5744 0.74289 0.14648 1.0898 4.6422 1.1866 3.1164 12.191-2.6152 12.191-5.683 0-4.6768-8.9574 0.0625-13.6 1.0669-1.0473 0.26029-2.7896-1.1367-2.7461zm75.344 0.875c-3.5881 0.0491-7.9042 1.8496-11.82 6.9922l0.82617-3.0254c0.4649-2.0609-1.5541-4.4197-4.3574-2.9902-1.2976 0.65921-2.2208 1.8805-2.6094 3.2891l-2.5391 9.3242-0.17383 0.625c-0.66614 2.4286 1.2076 3.464 3.0742 3.7207 2.616 0.36777 3.1371-0.86157 3.3106-1.7012 0.0763-0.36083 0.1868-0.72073 0.36719-1.0469 1.5474-2.8033 3.7337-5.2397 5.6211-6.9883 1.4849-1.3739 3.8916-0.8249 4.6133 1.0625l0.25781 0.66601c0.40939 1.0756 1.9486 0.99892 2.2539-0.11132l2.666-9.7363c-0.47966-0.0599-0.97765-0.0871-1.4902-0.0801z" fill="#ebdbb2" opacity=".6" stroke-width=".06939"/>
  <path class="st3" d="m172.61 158.34 0.82573-3.0254c0.4649-2.0609-1.5543-4.4201-4.3577-2.9907-1.2976 0.65921-2.2205 1.8805-2.609 3.2891l-2.5397 9.326-0.17347 0.62451c-0.66614 2.4286 1.2074 3.4626 3.074 3.7193 2.616 0.36777 3.1364-0.86043 3.3099-1.7 0.0763-0.36084 0.18736-0.72165 0.36775-1.0478 1.5474-2.8033 3.7332-5.2389 5.6206-6.9875 1.4849-1.3739 3.8928-0.82575 4.6144 1.0616l0.25675 0.66614c0.40939 1.0756 1.9498 0.99922 2.2552-0.11102l2.6646-9.7354c-3.8372-0.47879-8.8333 1.0339-13.309 6.9112z" fill="#b16286" stroke-width=".06939"/>
  <path class="st4" d="m148.55 150.5c1.5682-0.31224 2.5605 1.596 1.4225 2.7132-4.7393 4.6422-5.7454 13.6-0.0625 13.6 5.7316 0 7.2582-11.005 2.616-12.192-1.7209-0.34696-0.63145-0.84656-0.14573-1.0894 4.1703-2.1164 11.04-2.9421 10.825 4.5311-0.13878 4.6422-5.7732 11.935-15.023 11.935-6.0993 0-10.256-3.5111-10.256-8.6459-6e-3 -4.4479 4.7324-9.6799 10.624-10.853z" fill="#076678" stroke-width=".06939"/>
  <path class="st0" d="m139.47 166.21-2.4772 1.7972c-4.9336 3.1156-12.136 1.0825-11.991-5.3638 0.0139-0.70082 0.14572-1.3947 0.32613-2.0747l4.0454-14.801c0.38164-1.4086 1.3045-2.6299 2.609-3.2891 2.8033-1.4294 4.8226 0.92982 4.3577 2.9907l-4.0801 14.933c-1.6307 5.6414 1.4433 6.37 2.7825 5.4956l3.178-2.3107 2.4286 0.0347-0.27061 2.0539z" fill="#cc241d" stroke-width=".06939"/>
  <path class="st5" d="m108.8 150.5c1.5682-0.31224 2.5605 1.596 1.4225 2.7132-4.7393 4.6422-5.7454 13.6-0.0625 13.6 5.7316 0 7.2581-11.005 2.616-12.192-1.7209-0.34696-0.63144-0.84656-0.14572-1.0894 4.1703-2.1164 11.04-2.9421 10.825 4.5311-0.13879 4.6422-5.7732 11.935-15.023 11.935-6.0994 0-10.256-3.5111-10.256-8.6459 0-4.4479 4.7324-9.6799 10.624-10.853z" fill="#d79921" stroke-width=".06939"/>
  <path class="st2" d="m99.262 143.63-2.3731 8.6876c-0.5343 1.9429-3.3931 1.5613-3.3931-0.45797v-2.9768c0-2.9421-3.3238-3.2891-3.3238-3.2891-7.1679 0-11.768 8.3545-11.727 12.726 0 3.983 2.0817 8.2296 7.4733 7.2651 3.5181-0.6245 6.6128-3.5319 6.6128-3.5319 0.0902-0.0903 0.18041-0.18041 0.26368-0.27062 1.6584-1.6931 4.3715 0.35389 3.1989 2.4148-3.7887 5.9328-25.993 9.5064-25.993-6.703 0-6.3422 7.0083-18.707 29.47-14.648z" fill="#458588" stroke-width=".06939"/>
  <path class="st2" d="m133.69 142.04c-0.52039-7e-3 -1.0958 0.12481-1.709 0.4375-1.3045 0.65919-2.2277 1.8805-2.6094 3.2891l-4.0449 14.801c-0.18041 0.68-0.31227 1.3734-0.32617 2.0742-0.01362 0.60247 0.05521 1.153 0.16211 1.6777 0.04956-0.25167 0.09816-0.50357 0.16406-0.75196l4.0449-14.801c0.38164-1.4086 1.3048-2.6299 2.6094-3.2891 0.61323-0.31269 1.1886-0.4445 1.709-0.4375 1.0863 0.01486 1.9209 0.63979 2.3633 1.4726l0.28516-1.0449c0.36321-1.61-0.78989-3.4023-2.6484-3.4277zm-41.934 0.00781c-16.389-0.26592-21.754 9.8959-21.754 15.445 0 0.6004 0.03879 1.1659 0.097656 1.7129 0.75378-5.6942 6.4633-14.405 21.656-14.158 2.1199 0.0344 4.4363 0.25397 6.9375 0.66992l0.57031-2.0879 0.20898-0.78515c-2.8077-0.50742-5.3755-0.75889-7.7168-0.79688zm17.328 8.418c-0.0931 3e-3 -0.1891 0.0137-0.28711 0.0332-5.8912 1.1725-10.623 6.4037-10.623 10.852-1e-6 0.56334 0.057163 1.1032 0.1543 1.625 0.83027-4.0943 5.1758-8.4231 10.469-9.4766 0.09801-0.0195 0.19401-0.0302 0.28711-0.0332 0.27512-0.00857 0.51876 0.06674 0.73828 0.17773 0.13287-0.14367 0.25903-0.29509 0.39844-0.43164 1.0669-1.0473 0.26029-2.7896-1.1367-2.7461zm40.023 0.01367c-0.17498-0.02447-0.36062-0.0195-0.55664 0.01953-5.8912 1.1727-10.629 6.4037-10.623 10.852 0 0.5528 0.06446 1.0791 0.1582 1.5918 0.8437-4.0845 5.1862-8.3926 10.465-9.4434 0.38895-0.07744 0.74083-0.01696 1.0352 0.13282 0.12931-0.13945 0.25125-0.28723 0.38672-0.41993 0.99574-0.97752 0.3596-2.5611-0.86523-2.7324zm35.32 0.86133c-3.3326 0.0456-7.2898 1.6388-10.975 5.9805 0.04499 0.3266 0.05446 0.65835-0.01953 0.98633l-0.82617 3.0254c3.9162-5.1426 8.2322-6.9431 11.82-6.9922 0.23447-0.0032 0.45364 0.02614 0.68164 0.03711l0.8086-2.957c-0.47966-0.0599-0.97765-0.08708-1.4902-0.08008zm-13.869 0.54492c-0.45927 0.02859-0.9568 0.16363-1.4824 0.43164-1.2976 0.65921-2.2208 1.8805-2.6094 3.2891l-2.5391 9.3242-0.17383 0.625c-0.25599 0.9333-0.13284 1.6582 0.2168 2.2148l2.4961-9.1641c0.38856-1.4086 1.3118-2.6299 2.6094-3.2891 1.8994-0.96849 3.4158-0.1859 4.0664 1.0527l0.29102-1.0625c0.37773-1.6745-0.88482-3.5458-2.875-3.4219zm-52.617 0.17774c-1.8073 0.06104-3.7506 0.67315-5.3144 1.4668-0.48572 0.24287-1.5744 0.74289 0.14648 1.0898 0.69654 0.17803 1.2367 0.5967 1.6621 1.1465 3.6377-1.2656 8.0778-1.1864 8.8789 3.4102 0.07463-0.38325 0.12801-0.75875 0.13867-1.1152 0.13445-4.6708-2.4995-6.0998-5.5117-5.998zm39.752 0c-1.807 0.06104-3.7486 0.67315-5.3125 1.4668-0.48572 0.24287-1.5744 0.74289 0.14648 1.0898 0.69653 0.17803 1.2368 0.5967 1.6621 1.1465 3.6374-1.2656 8.0761-1.1864 8.877 3.4102 0.07461-0.38325 0.12802-0.75875 0.13867-1.1152 0.13446-4.6708-2.5001-6.0998-5.5117-5.998zm-79.117 7.8867c-0.080005 0.4831-0.13291 0.94876-0.12891 1.3692 0 3.983 2.0811 8.2282 7.4727 7.2637 3.518-0.6245 6.6133-3.5312 6.6133-3.5312 0.0902-0.0903 0.18039-0.17933 0.26367-0.26953 0.89057-0.90921 2.0688-0.7234 2.8027-0.05274 0.14782-0.17527 0.28147-0.35309 0.39648-0.5332 1.1727-2.0609-1.5408-4.1072-3.1992-2.4141-0.08328 0.0902-0.17347 0.17923-0.26367 0.26953 0 0-3.0952 2.9068-6.6133 3.5312-4.6551 0.83277-6.8331-2.2202-7.3438-5.6328zm36.803 1.0234c-0.47165 2.9672-2.2933 5.8379-5.2207 5.8379-2.1864 0-3.3755-1.3326-3.75-3.2285-0.54268 3.3432 0.52538 6.2285 3.75 6.2285 3.9405 0 5.8936-5.2014 5.2207-8.8379zm39.752 0c-0.47216 2.9672-2.2933 5.8379-5.2207 5.8379-2.1864 0-3.3755-1.3326-3.75-3.2285-0.54268 3.3432 0.52538 6.2285 3.75 6.2285 3.9405 0 5.893-5.2014 5.2207-8.8379zm-17.166 2.7969-2.9238 2.125c-0.88461 0.57751-2.5197 0.44456-3.0625-1.3301-0.73585 3.7401 0.94608 4.7797 2.2656 4.5957 0.17535-0.04318 0.34962-0.09477 0.52343-0.14844 0.09124-0.04015 0.19327-0.06484 0.27344-0.11718l3.1719-2.3066c-0.18706-0.70356-0.28516-1.4517-0.28516-2.2383-2.6e-4 -0.19158 0.02005-0.38598 0.03711-0.58008z" fill="#282828" opacity=".2" stroke-width=".06939"/>
  <path class="ColorScheme-Text" d="m118.34 38.314c-14.855 0-38.686 9.6642-38.686 29 0 19.336 24.179 33.85 31.429 38.686-26.586 0-41.086-24.172-41.086-24.172s24.15 53.172 67.657 53.172c19.336 0 38.686-14.493 38.686-33.828 0-14.5-14.5-29.007-29-36.257 29.007 2.4172 38.657 21.743 38.657 21.743s-19.314-48.343-67.657-48.343zm7.337 27.652c7.2935 0.2175 15.667 3.1799 22.555 9.0407 11.288 9.599 14.696 23.715 10.44 32.103 1.98-5.6847-0.50462-12.891-6.0429-17.538-6.7534-5.6586-15.711-5.6586-20.017 0-4.3029 5.663-2.3026 14.862 4.4515 20.532 2.7151 2.2728 5.9145 3.7258 9.1205 4.1274-8.5115 0.58796-19.459-2.8565-27.68-9.8455-12.593-10.708-13.964-25.643-7.2297-33.372 2.5259-2.8971 6.6091-4.5777 11.361-4.9641 0.9889-0.08047 2.0068-0.11237 3.0486-0.0812z" color="#ebdbb2" fill="#ebdbb2" opacity=".8" stroke-width="7.25"/>
  <path class="ColorScheme-Text" d="m118.34 33.314c-14.855 0-38.686 9.6642-38.686 29 0 19.336 24.179 33.85 31.429 38.686-26.586 0-41.086-24.172-41.086-24.172s24.15 53.172 67.657 53.172c19.336 0 38.686-14.493 38.686-33.829 0-14.5-14.5-29.007-29-36.257 29.007 2.4172 38.657 21.743 38.657 21.743s-19.314-48.343-67.657-48.343zm7.337 27.652c7.2935 0.2175 15.667 3.1798 22.555 9.0407 11.288 9.599 14.696 23.715 10.44 32.103 1.98-5.6847-0.50462-12.891-6.0429-17.538-6.7534-5.6586-15.711-5.6586-20.017 0-4.3029 5.663-2.3026 14.863 4.4515 20.532 2.7151 2.2728 5.9145 3.7258 9.1205 4.1274-8.5115 0.58796-19.459-2.8565-27.68-9.8455-12.593-10.708-13.964-25.643-7.2297-33.372 2.5259-2.8971 6.6091-4.5777 11.361-4.9641 0.9889-0.08043 2.0068-0.11237 3.0486-0.08122z" color="#ebdbb2" fill="#fb4934" stroke-width="7.25"/>
  <path class="ColorScheme-Text" d="m118.34 33.314c-14.855 0-38.688 9.6643-38.688 29 0 0.84795 0.06281 1.6827 0.15234 2.5117 1.9432-17.672 24.333-26.512 38.535-26.512 30.474 0 49.391 19.197 59.229 33.398 6.0197 5.1255 8.4277 9.9434 8.4277 9.9434s-19.313-48.342-67.656-48.342zm29 31.6c13.712 6.8559 27.415 20.202 28.865 33.895 0.0802-0.86917 0.13477-1.7461 0.13477-2.6367 0-10.792-8.0354-21.582-18.121-29.387-3.2818-0.87752-6.8904-1.5387-10.879-1.8711zm-77.344 11.914s3.2273 7.0452 9.3711 15.98c6.9405 6.3892 17.607 13.191 31.715 13.191-1.9436-1.2964-5.1164-3.3084-8.7012-5.9023-21.027-4.3622-32.385-23.27-32.385-23.27zm37.439 3.166c-0.94957 7.6474 2.3979 17.02 11.066 24.391 8.2215 6.989 19.17 10.434 27.682 9.8457-3.206-0.40165-6.406-1.8541-9.1211-4.127-0.79885-0.67057-1.5262-1.3928-2.1895-2.1504-5.6991-1.5534-11.511-4.4368-16.371-8.5684-6.8535-5.8277-10.358-12.902-11.066-19.391zm34.266 0.33398c-3.6218 0-6.9366 1.4148-9.0898 4.2441-2.0285 2.6697-2.6402 6.1257-2.0293 9.627 0.32551-1.6818 0.9895-3.2585 2.0293-4.627 4.3065-5.6586 13.264-5.6586 20.018 0 3.5001 2.937 5.7758 6.8947 6.4805 10.846 1.0203-5.3662-1.4778-11.648-6.4805-15.846-3.3767-2.8293-7.3059-4.2441-10.928-4.2441zm18.582 16.205c-0.18545 1.5636-0.5565 3.0356-1.0996 4.3906 0.30731 2.1307 0.16157 4.2468-0.51367 6.1856 1.5019-2.9604 2.0298-6.6394 1.6133-10.576z" color="#ebdbb2" fill="#282828" opacity=".2" stroke-width="7.25"/>
  <path d="m57 15c-9.9393 0-17 7.0595-17 17v192c0 9.9393 7.0595 17 17 17h142c9.9405 0 17-7.0607 17-17v-144l-65-65zm4.0332 4.9902 89.967 0.01 60 60 2e-4 139.75c1e-5 9.4999-6.6575 16.248-16.033 16.248h-133.93c-9.3757 0-16.033-6.7481-16.033-16.248v-183.51c0-9.501 6.6586-16.25 16.033-16.25z" fill="url(#linearGradient14-4)" style="paint-order:markers fill stroke"/>
  <path d="m151 15.002v52.914c0 9.6525 7.8639 17.084 17.518 17.084l47.482-1.34e-4v-5z" fill="#282828" opacity=".2" stroke-width="1.0833"/>
  <path d="m151 15.001v47.916c0 9.6525 7.8639 17.084 17.518 17.084l47.482-1.34e-4z" fill="url(#linearGradient7-6-0)" stroke-width="1.0833"/>
</svg>
