<svg width="256" height="256" fill="none" version="1.1" viewBox="0 0 256 256" xmlns="http://www.w3.org/2000/svg">
  <path d="m55.08 15h100.5l60.4 60.15 2e-3 148.9c0 8.911-7.262 16.13-16.17 16.13h-144.8c-8.91 0-16.08-7.174-16.08-16.08v-193c0-8.91 7.173-16.08 16.08-16.08h1e-4z" fill="#ebdbb2"/>
  <path d="m199.8 240.2c8.911 0 16.17-7.218 16.17-16.13l-1e-3 -37.55h-177v37.59c0 8.91 7.173 16.08 16.08 16.08h144.8z" fill="url(#paint0_linear)" opacity=".2"/>
  <path d="m155.6 20.32h-100.5c-5.973 0-10.76 4.792-10.76 10.76v193c0 5.973 4.792 10.76 10.76 10.76h144.8c5.992 0 10.85-4.856 10.85-10.81v-148.9l-55.08-54.83zm0-5.319h-100.5c-8.91 0-16.08 7.173-16.08 16.08v193c0 8.91 7.173 16.08 16.08 16.08h144.8c8.911 0 16.17-7.218 16.17-16.13l-2e-3 -148.9-60.4-60.15z" clip-rule="evenodd" fill="url(#paint1_linear)" fill-rule="evenodd"/>
  <path d="m99.14 226.5c4.28 0 9.44-2.12 9.44-10.04v-18.44h-4.76v17.92c0 4.92-2.28 5.96-4.68 5.96-2.28 0-3.96-1.04-5-3.12l-4.16 2c1.72 3.68 5.16 5.72 9.16 5.72zm33.37-0.48h5.04l-10.4-28h-4.76l-10.44 28h5.08l2.2-6.12h11.08l2.2 6.12zm-3.72-10.44h-8.04l3.12-8.4c0.28-0.8 0.68-2 0.92-2.84 0.2 0.84 0.6 2.04 0.92 2.84l3.08 8.4zm13.05 10.44h4.8v-10.96h5.84l5.4 10.96h5.4l-5.6-11.48c3.96-1.2 5.76-4.8 5.76-8 0-4.4-2.24-8.52-9.2-8.52h-12.4v28zm4.8-15.52v-7.92h7.68c3.28 0 4.16 2.08 4.16 3.96 0 2.04-1.04 3.96-4.16 3.96h-7.68z" fill="url(#paint2_linear)"/>
  <path d="m112.3 136.8s-4.557 2.667 3.246 3.567c9.456 1.086 14.29 0.93 24.7-1.051 0 0 2.745 1.727 6.57 3.222-23.36 10.07-52.87-0.583-34.52-5.738z" clip-rule="evenodd" fill="url(#paint3_linear)" fill-rule="evenodd"/>
  <path d="m109.5 123.7s-5.111 3.806 2.698 4.618c10.1 1.049 18.08 1.135 31.88-1.537 0 0 1.905 1.946 4.905 3.009-28.24 8.308-59.69 0.654-39.49-6.09z" clip-rule="evenodd" fill="url(#paint4_linear)" fill-rule="evenodd"/>
  <path d="m164.4 146.5s3.374 2.797-3.716 4.96c-13.48 4.106-56.12 5.345-67.96 0.164-4.254-1.863 3.727-4.446 6.238-4.992 2.618-0.569 4.114-0.465 4.114-0.465-4.735-3.353-30.6 6.585-13.14 9.435 47.62 7.763 86.81-3.497 74.46-9.102z" clip-rule="evenodd" fill="url(#paint5_linear)" fill-rule="evenodd"/>
  <path d="m114.5 110.1s-21.68 5.181-7.679 7.064c5.916 0.797 17.7 0.613 28.69-0.314 8.976-0.757 17.98-2.378 17.98-2.378s-3.163 1.365-5.452 2.936c-22.02 5.826-64.56 3.113-52.32-2.843 10.35-5.038 18.78-4.465 18.78-4.465z" clip-rule="evenodd" fill="url(#paint6_linear)" fill-rule="evenodd"/>
  <path d="m153.4 131.9c22.39-11.7 12.04-22.94 4.81-21.42-1.767 0.371-2.56 0.692-2.56 0.692s0.658-1.037 1.912-1.484c14.29-5.051 25.28 14.9-4.609 22.81 0 0 0.343-0.313 0.447-0.592z" clip-rule="evenodd" fill="url(#paint7_linear)" fill-rule="evenodd"/>
  <path d="m116.7 163.6c21.48 1.381 54.48-0.769 55.27-10.99 0 0-1.501 3.876-17.76 6.951-18.34 3.473-40.96 3.069-54.38 0.841 0 0 2.748 2.288 16.87 3.202z" clip-rule="evenodd" fill="url(#paint8_linear)" fill-rule="evenodd"/>
  <path d="m139.9 44s12.4 12.47-11.76 31.65c-19.37 15.39-4.416 24.16-6e-3 34.18-11.31-10.26-19.6-19.29-14.04-27.7 8.17-12.34 30.81-18.32 25.81-38.13z" clip-rule="evenodd" fill="url(#paint9_linear)" fill-rule="evenodd"/>
  <path d="m133.5 101.4c5.759 6.667-1.51 12.66-1.51 12.66s14.61-7.586 7.904-17.09c-6.269-8.859-11.08-13.26 14.94-28.44 1e-3 0-40.85 10.26-21.34 32.87z" clip-rule="evenodd" fill="url(#paint10_linear)" fill-rule="evenodd"/>
  <path d="m155.6 17v44.23c0 8.91 7.259 15.93 16.17 15.93l44.23-0.0112v-2l-60.4-58.15z" fill="#282828" opacity=".25"/>
  <path d="m155.6 15v44.23c0 8.91 7.259 15.93 16.17 15.93l44.23-0.0112-60.4-60.15z" fill="url(#paint11_linear)"/>
  <defs>
    <linearGradient id="paint0_linear" x1="39" x2="39" y1="186.5" y2="240.2" gradientUnits="userSpaceOnUse">
      <stop stop-color="#83a598" offset="1e-7"/>
      <stop stop-color="#458588" offset="1"/>
    </linearGradient>
    <linearGradient id="paint1_linear" x1="126.4" x2="127.1" y1="14.91" y2="240.9" gradientUnits="userSpaceOnUse">
      <stop stop-color="#83a598" offset="0"/>
      <stop stop-color="#458588" offset="1"/>
    </linearGradient>
    <linearGradient id="paint2_linear" x1="39" x2="39" y1="187" y2="240" gradientUnits="userSpaceOnUse">
      <stop stop-color="#83a598" offset="1e-7"/>
      <stop stop-color="#458588" offset="1"/>
    </linearGradient>
    <linearGradient id="paint3_linear" x1="126.5" x2="126.5" y1="136.8" y2="146.7" gradientUnits="userSpaceOnUse">
      <stop stop-color="#83a598" offset="0"/>
      <stop stop-color="#458588" offset="1"/>
    </linearGradient>
    <linearGradient id="paint4_linear" x1="125.7" x2="125.7" y1="123.7" y2="133.4" gradientUnits="userSpaceOnUse">
      <stop stop-color="#83a598" offset="0"/>
      <stop stop-color="#458588" offset="1"/>
    </linearGradient>
    <linearGradient id="paint5_linear" x1="124.9" x2="124.9" y1="145.5" y2="158.3" gradientUnits="userSpaceOnUse">
      <stop stop-color="#83a598" offset="0"/>
      <stop stop-color="#458588" offset="1"/>
    </linearGradient>
    <linearGradient id="paint6_linear" x1="123.2" x2="123.2" y1="110" y2="120.6" gradientUnits="userSpaceOnUse">
      <stop stop-color="#83a598" offset="0"/>
      <stop stop-color="#458588" offset="1"/>
    </linearGradient>
    <linearGradient id="paint7_linear" x1="162.4" x2="162.4" y1="108.9" y2="132.6" gradientUnits="userSpaceOnUse">
      <stop stop-color="#83a598" offset="0"/>
      <stop stop-color="#458588" offset="1"/>
    </linearGradient>
    <linearGradient id="paint8_linear" x1="135.5" x2="135.5" y1="152.6" y2="164" gradientUnits="userSpaceOnUse">
      <stop stop-color="#83a598" offset="0"/>
      <stop stop-color="#458588" offset="1"/>
    </linearGradient>
    <linearGradient id="paint9_linear" x1="112.4" x2="112.4" y1="44" y2="109.8" gradientUnits="userSpaceOnUse">
      <stop stop-color="#fe8019" offset="1e-7"/>
      <stop stop-color="#fb4934" offset=".5"/>
      <stop stop-color="#cc241d" offset="1"/>
    </linearGradient>
    <linearGradient id="paint10_linear" x1="128.3" x2="128.3" y1="68.51" y2="114" gradientUnits="userSpaceOnUse">
      <stop stop-color="#fe8019" offset="1e-7"/>
      <stop stop-color="#fb4934" offset=".5"/>
      <stop stop-color="#cc241d" offset="1"/>
    </linearGradient>
    <linearGradient id="paint11_linear" x1="155.6" x2="155.6" y1="15" y2="75.16" gradientUnits="userSpaceOnUse">
      <stop stop-color="#83a598" offset="1e-7"/>
      <stop stop-color="#458588" offset="1"/>
    </linearGradient>
  </defs>
</svg>
