<svg width="256" height="256" version="1.1" viewBox="0 0 256 256" xmlns="http://www.w3.org/2000/svg">
  <defs>
    <linearGradient id="linearGradient7-6-0" x1="186" x2="156" y1="45.006" y2="75.012" gradientTransform="matrix(1.0833 0 0 1.0833 -17.998 -1.2506)" gradientUnits="userSpaceOnUse">
      <stop stop-color="#8ec07c" offset="0"/>
      <stop stop-color="#689d6a" offset=".3027"/>
      <stop stop-color="#427b58" offset="1"/>
    </linearGradient>
    <linearGradient id="linearGradient21" x1="128" x2="128" y1="15" y2="241" gradientTransform="translate(-9.75e-4,-9.75e-4)" gradientUnits="userSpaceOnUse">
      <stop stop-color="#ebdbb2" offset="0"/>
      <stop stop-color="#d5c4a1" offset="1"/>
    </linearGradient>
    <linearGradient id="linearGradient14-6" x1="128" x2="128" y1="15.001" y2="241" gradientTransform="translate(-3e-6 -.41952)" gradientUnits="userSpaceOnUse">
      <stop stop-color="#427b58" stop-opacity=".099738" offset="0"/>
      <stop stop-color="#427b58" stop-opacity=".047244" offset=".2"/>
      <stop stop-color="#427b58" stop-opacity=".047244" offset=".70405"/>
      <stop stop-color="#282828" stop-opacity=".049869" offset=".80473"/>
      <stop stop-color="#282828" stop-opacity=".15" offset="1"/>
    </linearGradient>
  </defs>
  <path d="m56.999 14.999c-9.9393 0-17 7.0595-17 17v149h176v-101l-64.998-64.998z" fill="url(#linearGradient21)" style="paint-order:markers fill stroke"/>
  <path d="m57 240.58c-9.9393 0-17-7.0595-17-17v-43h176v43c0 9.9405-7.0607 17-17 17z" fill="#689d6a" stroke-linecap="round" stroke-linejoin="round" stroke-miterlimit="0" style="paint-order:markers fill stroke"/>
  <path d="m59.365 224.74c-10.427 0-12.11-7.6791-12.11-12.635 0-7.621 4.8799-12.67 12.39-12.67 3.1932 0 6.0323 0.94391 7.49 1.855l-1.575 4.41c-1.4175-0.75305-3.4129-1.435-5.985-1.435-1.4496 0-6.65 0.50396-6.65 7.735 0 6.4549 3.6441 7.91 6.93 7.91 2.1631 0.0728 4.1803-0.48609 6.125-1.365l1.505 4.375c-2.8035 1.6991-6.9773 1.82-8.12 1.82zm15.33-12.635c0 4.9547 2.5226 7.84 6.44 7.84 4.2683 0 6.44-3.4362 6.44-7.84 0-4.2944-2.0888-7.875-6.44-7.875-3.653 0-6.44 2.7206-6.44 7.875zm18.515 0c0 8.1305-5.0579 12.635-12.075 12.635-6.2985 0-12.075-3.9532-12.075-12.635 0-8.1229 5.4271-12.67 12.075-12.67 6.6708 0 12.075 4.3671 12.075 12.67zm20.825 12.145c-2.832-5.03-6.4976-10.755-10.885-15.89v15.89h-5.39v-24.255h4.445c3.8016 3.8016 9.0513 11.407 10.99 14.315v-14.315h5.425v24.255zm10.185 0v-24.255h16.24v4.585h-10.78v5.075h9.59v4.585h-9.59v10.01zm20.09 0v-24.255h16.38v4.585h-10.92v4.76h9.695v4.48h-9.695v5.845h11.725v4.585zm35.84 0c-0.83254-1.6651-2.6953-5.1827-5.005-8.365-2.1522 2.7671-4.8232 7.6855-5.145 8.365h-6.23c2.1794-4.0121 4.773-7.8678 8.155-12.565l-7.805-11.69h6.615l4.725 7.56 4.62-7.56h6.23l-7.7 11.76c1.7778 2.3069 5.222 7.0293 8.085 12.495zm28.595-24.255v4.655h-7.315v19.6h-5.46v-19.6h-7.315v-4.655z" fill="#282828" opacity=".2" aria-label="CONFEXT"/>
  <path d="m59.365 222.75c-10.427 0-12.11-7.6791-12.11-12.635 0-7.621 4.8799-12.67 12.39-12.67 3.1932 0 6.0323 0.94391 7.49 1.855l-1.575 4.41c-1.4175-0.75305-3.4129-1.435-5.985-1.435-1.4496 0-6.65 0.50396-6.65 7.735 0 6.4549 3.6441 7.91 6.93 7.91 2.1631 0.0728 4.1803-0.48609 6.125-1.365l1.505 4.375c-2.8035 1.6991-6.9773 1.82-8.12 1.82zm15.33-12.635c0 4.9547 2.5226 7.84 6.44 7.84 4.2683 0 6.44-3.4362 6.44-7.84 0-4.2944-2.0888-7.875-6.44-7.875-3.653 0-6.44 2.7206-6.44 7.875zm18.515 0c0 8.1305-5.0579 12.635-12.075 12.635-6.2985 0-12.075-3.9532-12.075-12.635 0-8.1229 5.4271-12.67 12.075-12.67 6.6708 0 12.075 4.3671 12.075 12.67zm20.825 12.145c-2.832-5.03-6.4976-10.755-10.885-15.89v15.89h-5.39v-24.255h4.445c3.8016 3.8016 9.0513 11.407 10.99 14.315v-14.315h5.425v24.255zm10.185 0v-24.255h16.24v4.585h-10.78v5.075h9.59v4.585h-9.59v10.01zm20.09 0v-24.255h16.38v4.585h-10.92v4.76h9.695v4.48h-9.695v5.845h11.725v4.585zm35.84 0c-0.83254-1.6651-2.6953-5.1827-5.005-8.365-2.1522 2.7671-4.8232 7.6855-5.145 8.365h-6.23c2.1794-4.0121 4.773-7.8678 8.155-12.565l-7.805-11.69h6.615l4.725 7.56 4.62-7.56h6.23l-7.7 11.76c1.7778 2.3069 5.222 7.0293 8.085 12.495zm28.595-24.255v4.655h-7.315v19.6h-5.46v-19.6h-7.315v-4.655z" fill="#ebdbb2" aria-label="CONFEXT"/>
  <path d="m59.644 197.44c-7.5101 0-12.389 5.049-12.389 12.67 0 0.2922 0.02982 0.61873 0.04297 0.92773 0.43962-7.0167 5.1948-11.6 12.346-11.6 2.8325 0 5.3285 0.74709 6.8867 1.5508l0.60352-1.6934c-1.4577-0.9111-4.297-1.8555-7.4902-1.8555zm21.49 0c-6.6479 0-12.074 4.547-12.074 12.67 0 0.3447 0.02509 0.67016 0.04297 1 0.43092-7.4904 5.6635-11.672 12.031-11.672 6.4011 0 11.622 4.0322 12.035 11.693 0.01851-0.33664 0.04102-0.67132 0.04102-1.0215 3e-6 -8.3029-5.4054-12.67-12.076-12.67zm16.625 0.56054v1.998h4.4453c3.8016 3.8016 9.0515 11.406 10.99 14.314v-1.998c-1.9387-2.908-7.1886-10.513-10.99-14.314zm15.436 0v1.998h5.4238v-1.998zm11.025 0v1.998h16.24v-1.998zm20.09 0v1.998h16.379v-1.998zm19.809 0 1.334 1.998h5.2813l4.7266 7.5606 4.6191-7.5606h4.9219l1.3086-1.998h-6.2305l-4.6191 7.5606-4.7266-7.5606zm24.535 0v1.998h20.09v-1.998zm-38.885 9.3457v1.998h9.6953v-1.998zm-20.09 0.31445v1.998h9.5898v-1.998zm41.559 2.998c-3.0364 4.2532-5.4456 7.8731-7.4688 11.598h1.1465c1.9398-3.3228 4.1917-6.6543 7.0098-10.568zm8.0684 0.0352-0.69726 1.0645c1.5522 2.0141 4.3621 5.9142 6.959 10.498h1.127c-2.5531-4.8742-5.5051-9.0565-7.3887-11.562zm-91.795 0.40625c-0.30932 3.9118-2.4385 6.8496-6.377 6.8496-3.6305 0-6.0342-2.5019-6.3711-6.8086-0.02406 0.321-0.06836 0.62421-0.06836 0.9668 0 4.9547 2.522 7.8398 6.4395 7.8398 4.2683 0 6.4395-3.4361 6.4395-7.8398 0-0.34451-0.03552-0.67398-0.0625-1.0078zm-34.547 0.0312c-0.01823 0.28442-0.03906 0.56464-0.03906 0.87305 0 6.4549 3.6437 7.9082 6.9297 7.9082 2.1631 0.0728 4.1803-0.48437 6.125-1.3633l0.91992 2.6758c0.1959-0.0989 0.39878-0.18658 0.58398-0.29883l-1.5039-4.375c-1.9447 0.87891-3.9619 1.438-6.125 1.3652-3.0855 0-6.4871-1.2846-6.8906-6.7852zm96.805 6.5391v1.998h11.725v-1.998z" fill="#fbf1c7" opacity=".6"/>
  <path d="m55 86.385v78.615h22.461v-11.23h-11.23v-56.154h11.23v-11.23zm123.54 0v11.23h11.23v56.154h-11.23v11.23h22.461v-78.615zm-5.6172 14.039-42.115 25.268 42.115 25.27zm-72.998 2.8066a22.462 22.462 0 0 0-22.463 22.461 22.462 22.462 0 0 0 22.463 22.463 22.462 22.462 0 0 0 22.461-22.463 22.462 22.462 0 0 0-22.461-22.461z" fill="#ebdbb2" opacity=".6" stroke-width="5.6154"/>
  <path d="m178.54 160h22.462v-78.615h-22.462v11.231h11.231v56.154h-11.231zm-101.08-78.615h-22.462v78.615h22.462v-11.231h-11.231v-56.154h11.231z" fill="#504945" stroke-width="5.6154"/>
  <path d="m172.92 95.424-42.115 25.269 42.115 25.269zm-72.998 2.8074a22.462 22.462 0 0 0-22.464 22.461 22.462 22.462 0 0 0 22.464 22.461 22.462 22.462 0 0 0 22.461-22.461 22.462 22.462 0 0 0-22.461-22.461z" fill="#689d6a" stroke-width="5.6154"/>
  <path d="m172.92 95.424-42.115 25.268 4.168 2.5 37.947-22.768v-5zm-72.998 2.8066a22.462 22.462 0 0 0-22.463 22.461 22.462 22.462 0 0 0 0.21875 2.4902 22.462 22.462 0 0 1 22.244-19.949 22.462 22.462 0 0 1 22.242 19.967 22.462 22.462 0 0 0 0.21875-2.5078 22.462 22.462 0 0 0-22.461-22.461z" fill="#282828" opacity=".2" stroke-width="5.6154"/>
  <path d="m55 81.385v5h22.461v-5zm123.54 0v5h22.461v-5zm-112.31 67.385v5h11.23v-5zm112.31 0v5h11.23v-5z" fill="#282828" opacity=".5" stroke-width="5.6154"/>
  <path d="m57 14.58c-9.9393 0-17 7.0595-17 17v192c0 9.9393 7.0595 17 17 17h142c9.9405 0 17-7.0607 17-17v-144l-65-65zm4.0332 4.9902 89.967 0.01 60 60 2e-4 139.75c1e-5 9.4999-6.6575 16.248-16.033 16.248h-133.93c-9.3757 0-16.033-6.7481-16.033-16.248v-183.51c0-9.501 6.6586-16.25 16.033-16.25z" fill="url(#linearGradient14-6)" style="paint-order:markers fill stroke"/>
  <path d="m151 15.002v52.914c0 9.6525 7.8639 17.084 17.518 17.084l47.482-1.34e-4v-5z" fill="#282828" opacity=".2" stroke-width="1.0833"/>
  <path d="m151 15.001v47.916c0 9.6525 7.8639 17.084 17.518 17.084l47.482-1.34e-4z" fill="url(#linearGradient7-6-0)" stroke-width="1.0833"/>
</svg>
