<svg width="256" height="256" fill="none" version="1.1" viewBox="0 0 256 256" xmlns="http://www.w3.org/2000/svg">
  <path d="m55.08 15h100.5l60.4 60.15 2e-3 148.9c0 8.911-7.262 16.13-16.17 16.13h-144.8c-8.91 0-16.08-7.174-16.08-16.08v-193c0-8.91 7.173-16.08 16.08-16.08h1e-4z" fill="#ebdbb2"/>
  <path d="m155.6 22.98h-100.5c-4.504 0-8.105 3.601-8.105 8.105v193c0 4.504 3.601 8.105 8.105 8.105h144.8c4.533 0 8.194-3.674 8.194-8.149v-148.9l-52.42-52.17zm-1e-3 -7.979h-100.5c-8.91 0-16.08 7.173-16.08 16.08v193c0 8.91 7.173 16.08 16.08 16.08h144.8c8.911 0 16.17-7.218 16.17-16.13l-2e-3 -148.9-60.4-60.15z" clip-rule="evenodd" fill="url(#paint0_linear)" fill-rule="evenodd"/>
  <path d="m128 68c-14.72 0-28.23 2.288-38.21 6.125-4.974 1.913-9.273 4.29-12.4 7.133-2.882 2.62-5.036 5.904-5.355 9.75h-0.04492v25 24 24c0.0034 5.476 3.728 9.977 8.754 13.32 5.122 3.411 12.21 6.079 20.38 7.895 8.223 1.826 17.48 2.775 26.87 2.775 9.384 0 18.64-0.9494 26.87-2.775 8.177-1.816 15.26-4.484 20.38-7.895 5.026-3.347 8.749-7.848 8.752-13.32h-0.00391v-23.91c2.6e-4 -0.03094 0.00389-0.06081 0.00391-0.0918h-0.00391v-23.91c2.6e-4 -0.03093 0.00389-0.06081 0.00391-0.0918h-0.00391v-23.98-0.02344-0.02344-0.9707h-0.04101c-0.32-3.846-2.472-7.13-5.354-9.75-3.125-2.842-7.426-5.22-12.4-7.133-9.974-3.837-23.48-6.125-38.2-6.125zm-0.6406 8.143a46.92 15.2 0 0 1 0.209 0 46.92 15.2 0 0 1 46.92 15.2 46.92 15.2 0 0 1-46.92 15.2 46.92 15.2 0 0 1-46.92-15.2 46.92 15.2 0 0 1 46.71-15.2zm-47.36 28.68c2.752 1.943 6.088 3.63 9.799 5.057 9.974 3.837 23.48 6.125 38.21 6.125 14.72 0 28.23-2.288 38.2-6.125 3.709-1.426 7.044-3.112 9.795-5.055v11.22c-0.02061 1.546-1.118 3.919-5.184 6.627-4.007 2.668-10.05 5.048-17.68 6.742-7.587 1.685-16.26 2.586-25.13 2.586-8.872 0-17.55-0.9009-25.13-2.586-7.631-1.694-13.67-4.074-17.68-6.742-4.103-2.733-5.188-5.127-5.189-6.672v-11.18zm0 23.96c0.2532 0.1797 0.4934 0.3695 0.7539 0.543 5.122 3.411 12.21 6.079 20.38 7.895 8.223 1.826 17.48 2.775 26.87 2.775 9.384 0 18.64-0.9494 26.87-2.775 8.178-1.816 15.26-4.484 20.38-7.895 0.2586-0.1722 0.4967-0.3608 0.748-0.5391v11.25c-0.02061 1.546-1.118 3.919-5.184 6.627-4.007 2.669-10.05 5.048-17.68 6.742-7.587 1.685-16.26 2.586-25.13 2.586-8.872 0-17.55-0.9009-25.13-2.586-7.631-1.694-13.67-4.073-17.68-6.742-4.103-2.733-5.188-5.127-5.189-6.672v-11.21zm0 24c0.2532 0.1797 0.4934 0.3695 0.7539 0.543 5.122 3.411 12.21 6.079 20.38 7.895 8.223 1.826 17.48 2.775 26.87 2.775 9.384 0 18.64-0.9494 26.87-2.775 8.178-1.816 15.26-4.484 20.38-7.895 0.2586-0.1722 0.4967-0.3608 0.748-0.5391v11.21h0.00391c-0.00354 1.545-1.089 3.936-5.188 6.666-4.007 2.669-10.05 5.048-17.68 6.742-7.587 1.685-16.26 2.586-25.13 2.586-8.872 0-17.55-0.9009-25.13-2.586-7.631-1.694-13.67-4.073-17.68-6.742-4.098-2.73-5.186-5.121-5.189-6.666-4e-6 -0.00182 1e-6 -0.00405 0-0.00586v-11.21z" fill="url(#paint1_linear)"/>
  <path d="m155.6 17v44.23c0 8.91 7.259 15.93 16.17 15.93l44.23-0.0112v-2l-60.4-58.15z" fill="#282828" opacity=".25"/>
  <path d="m155.6 15v44.23c0 8.91 7.259 15.93 16.17 15.93l44.23-0.0112-60.4-60.15z" fill="url(#paint3_linear)"/>
  <defs>
    <linearGradient id="paint0_linear" x1="39" x2="39" y1="15" y2="240.2" gradientUnits="userSpaceOnUse">
      <stop stop-color="#fabd2f" offset="1e-7"/>
      <stop stop-color="#b57614" offset="1"/>
    </linearGradient>
    <linearGradient id="paint1_linear" x1="72" x2="72" y1="116" y2="188" gradientUnits="userSpaceOnUse">
      <stop stop-color="#fabd2f" offset="1e-7"/>
      <stop stop-color="#b57614" offset="1"/>
    </linearGradient>
    <linearGradient id="paint3_linear" x1="155.6" x2="155.6" y1="15" y2="75.16" gradientUnits="userSpaceOnUse">
      <stop stop-color="#fabd2f" offset="1e-7"/>
      <stop stop-color="#b57614" offset="1"/>
    </linearGradient>
  </defs>
</svg>
