<svg width="256" height="256" version="1.1" viewBox="0 0 256 256" xmlns="http://www.w3.org/2000/svg">
  <defs>
    <linearGradient id="linearGradient26" x1="-160" x2="-160" y2="226" gradientTransform="translate(267,15)" gradientUnits="userSpaceOnUse">
      <stop stop-color="#fb4934" offset="0"/>
      <stop stop-color="#fb4934" offset="1"/>
    </linearGradient>
    <linearGradient id="linearGradient14-5" x1="128" x2="128" y1="15.001" y2="241" gradientTransform="translate(0,4.8e-4)" gradientUnits="userSpaceOnUse">
      <stop stop-color="#ebdbb2" stop-opacity=".15" offset="0"/>
      <stop stop-color="#ebdbb2" stop-opacity=".1" offset=".2"/>
      <stop stop-opacity="0" offset=".70405"/>
      <stop stop-opacity=".05" offset=".80473"/>
      <stop stop-opacity=".1" offset="1"/>
    </linearGradient>
    <linearGradient id="linearGradient7-6-0" x1="186" x2="156" y1="45.006" y2="75.012" gradientTransform="matrix(1.0833 0 0 1.0833 -17.999 -1.2512)" gradientUnits="userSpaceOnUse">
      <stop stop-color="#fb4934" offset="0"/>
      <stop stop-color="#cc241d" offset=".3027"/>
      <stop stop-color="#9d0006" offset="1"/>
    </linearGradient>
  </defs>
  <path d="m57 15c-9.9393 0-17 7.0595-17 17v192c0 9.9393 7.0595 17 17 17h142c9.9405 0 17-7.0607 17-17v-144l-64.999-64.999z" fill="url(#linearGradient26)" stroke-linecap="round" stroke-linejoin="round" stroke-miterlimit="0" style="paint-order:markers fill stroke"/>
  <circle cx="110" cy="95" r="40" fill="#282828" opacity=".15" stroke-width="5.7143"/>
  <circle cx="110" cy="90" r="40" fill="#ebdbb2" stroke-width="5.7143"/>
  <path d="m110 50a40 40 0 0 0-40 40 40 40 0 0 0 0.17773 2.5 40 40 0 0 1 39.822-37.5 40 40 0 0 1 39.865 36.881 40 40 0 0 0 0.13477-1.8809 40 40 0 0 0-40-40z" fill="#fbf1c7" opacity=".6" stroke-width="5.7143"/>
  <rect x="110" y="90" width="70" height="70" fill="#9d0006" opacity=".6" stroke-width="5.3846"/>
  <rect x="110" y="160" width="70" height="5" fill="#ebdbb2" opacity=".15" stroke-width="1.4391"/>
  <rect x="110" y="90" width="70" height="5" fill="#282828" opacity=".15" stroke-width="1.4391"/>
  <path d="m57 241c-9.9393 0-17-7.0595-17-17v-43h176v43c0 9.9405-7.0607 17-17 17z" fill="#9d0006" opacity=".3" stroke-linecap="round" stroke-linejoin="round" stroke-miterlimit="0" style="paint-order:markers fill stroke"/>
  <path d="m69.72 204.8c-6.2421 0-8.24 3.9646-8.24 9.04 0 4.9582 2.1987 9.08 7.68 9.08 1.7593 0 2.5214-0.0803 3.08-0.2v-9.64h6.24v13.72c-3.5405 1.3909-8.9813 1.44-9.72 1.44-7.9578 0-13.76-4.8354-13.76-14.4 0-9.3096 6.2351-14.48 13.88-14.48 4.3252 0 7.7259 1.1987 9.2 2.12l-1.8 5c-0.98137-0.52135-3.5054-1.68-6.56-1.68zm20.8 17.84c0.79723 0.0981 1.5987 0.08 2.4 0.08 7.7941 0 9.2-5.1581 9.2-8.88 0-7.853-5.2303-8.84-9-8.84-0.86857 4e-3 -1.7356 0.0424-2.6 0.12zm18.04-8.8c0 12.439-10.106 14.24-15.96 14.24-0.88703 0-4.9869-0.041-8.32-0.72v-27c0.13451-0.0249 3.6911-0.68 8.52-0.68 7.5066 0 15.76 2.6232 15.76 14.16zm13.32-14.16c7.1485 0 12.88 2.1678 12.88 9.12 0 2.1895-0.48892 5.6557-5.2 7.6 3.5509 4.3964 6.5069 10.532 6.88 11.32h-7c-4.0062-7.1689-5.2518-8.7901-6.36-10.12h-3.08v10.12h-6.24v-27.32c3.1191-0.6116 6.3871-0.72 8.12-0.72zm0.36 5.32c-0.74882-0.01-1.4946 0.0599-2.24 0.12v7.52h1.76c4.8398 0 6.56-1.1781 6.56-3.88 0-1.4407-0.45697-3.76-6.08-3.76zm38 22.72c-0.64332-2.0121-1.3562-4.0012-2.04-6h-10.8c-0.7104 1.9905-1.4118 3.9818-2.04 6h-6.48c4.213-12.099 7.5904-20.624 11.04-27.72h5.96c4.1468 8.7815 7.4311 17.356 11.04 27.72zm-7.48-21.44c-0.71781 2.1535-1.6463 4.0853-3.92 10.48h7.88c-0.0734-0.20655-1.8631-5.2378-3.96-10.48zm34.76-3.32c1.544 5.5115 3.1326 11.014 4.96 16.44 1.609-6.3981 2.7657-12.9 3.88-19.4h6.48c-0.95893 4.7672-3.5294 16.691-7.16 27.72h-5.72c-1.3618-3.7352-2.4341-6.9603-5.32-16.52-1.6632 5.5337-3.2757 11.084-5.24 16.52h-5.72c-3.3423-10.153-5.6178-20.053-7.16-27.72h6.76c0.12864 0.75898 2.0978 12.325 4.04 19.4 1.326-3.6096 1.5087-4.1804 4.88-16.44z" fill="#282828" opacity=".2" aria-label="GDRAW"/>
  <path d="m69.72 201.8c-6.2421 0-8.24 3.9646-8.24 9.04 0 4.9582 2.1987 9.08 7.68 9.08 1.7593 0 2.5214-0.0803 3.08-0.2v-9.64h6.24v13.72c-3.5405 1.3909-8.9813 1.44-9.72 1.44-7.9578 0-13.76-4.8354-13.76-14.4 0-9.3096 6.2351-14.48 13.88-14.48 4.3252 0 7.7259 1.1987 9.2 2.12l-1.8 5c-0.98137-0.52135-3.5054-1.68-6.56-1.68zm20.8 17.84c0.79723 0.0981 1.5987 0.08 2.4 0.08 7.7941 0 9.2-5.1581 9.2-8.88 0-7.853-5.2303-8.84-9-8.84-0.86857 4e-3 -1.7356 0.0424-2.6 0.12zm18.04-8.8c0 12.439-10.106 14.24-15.96 14.24-0.88703 0-4.9869-0.041-8.32-0.72v-27c0.13451-0.0249 3.6911-0.68 8.52-0.68 7.5066 0 15.76 2.6232 15.76 14.16zm13.32-14.16c7.1485 0 12.88 2.1678 12.88 9.12 0 2.1895-0.48892 5.6557-5.2 7.6 3.5509 4.3964 6.5069 10.532 6.88 11.32h-7c-4.0062-7.1689-5.2518-8.7901-6.36-10.12h-3.08v10.12h-6.24v-27.32c3.1191-0.6116 6.3871-0.72 8.12-0.72zm0.36 5.32c-0.74882-0.01-1.4946 0.0599-2.24 0.12v7.52h1.76c4.8398 0 6.56-1.1781 6.56-3.88 0-1.4407-0.45697-3.76-6.08-3.76zm38 22.72c-0.64332-2.0121-1.3562-4.0012-2.04-6h-10.8c-0.7104 1.9905-1.4118 3.9818-2.04 6h-6.48c4.213-12.099 7.5904-20.624 11.04-27.72h5.96c4.1468 8.7815 7.4311 17.356 11.04 27.72zm-7.48-21.44c-0.71781 2.1535-1.6463 4.0853-3.92 10.48h7.88c-0.0734-0.20655-1.8631-5.2378-3.96-10.48zm34.76-3.32c1.544 5.5115 3.1326 11.014 4.96 16.44 1.609-6.3981 2.7657-12.9 3.88-19.4h6.48c-0.95893 4.7672-3.5294 16.691-7.16 27.72h-5.72c-1.3618-3.7352-2.4341-6.9603-5.32-16.52-1.6632 5.5337-3.2757 11.084-5.24 16.52h-5.72c-3.3423-10.153-5.6178-20.053-7.16-27.72h6.76c0.12864 0.75898 2.0978 12.325 4.04 19.4 1.326-3.6096 1.5087-4.1804 4.88-16.44z" fill="#ebdbb2" aria-label="GDRAW"/>
  <path d="m68.881 196.36c-7.6449 0-13.881 5.1709-13.881 14.48 0 0.54406 0.02367 1.0686 0.06055 1.582 0.60467-8.4111 6.5746-13.062 13.82-13.062 3.6426 0 6.5506 0.84733 8.2832 1.666l0.91602-2.5449c-1.4741-0.92131-4.874-2.1211-9.1992-2.1211zm23.92 0.32031c-4.8289 0-8.387 0.65478-8.5215 0.67969v3c0.13451-0.0249 3.6926-0.67969 8.5215-0.67969 7.1451 0 14.949 2.3945 15.686 12.572 0.0313-0.46358 0.0742-0.91513 0.0742-1.4121 1e-5 -11.537-8.2532-14.16-15.76-14.16zm29.08 0c-1.7329 0-5.002 0.1091-8.1211 0.7207v3c3.1191-0.6116 6.3882-0.7207 8.1211-0.7207 6.6045 0 11.987 1.8606 12.77 7.625 0.0747-0.53684 0.10937-1.0514 0.10937-1.5039 0-6.9522-5.7304-9.1211-12.879-9.1211zm28.039 0.32031c-3.4496 7.0964-6.8261 15.622-11.039 27.721h1.0723c3.7097-10.46 6.8238-18.255 9.9668-24.721h5.9609c3.7304 7.8997 6.7702 15.703 9.9688 24.721h1.0703c-3.6089-10.364-6.8922-18.939-11.039-27.721zm16.6 0c0.18841 0.9367 0.42385 2.0002 0.63477 3h6.125c0.12863 0.75898 2.0988 12.325 4.041 19.4 1.326-3.6096 1.5076-4.1799 4.8789-16.439h5.3203c1.544 5.5115 3.1335 11.014 4.9609 16.439 1.609-6.3981 2.7646-12.9 3.8789-19.4h5.8477c0.22697-1.0661 0.48271-2.2538 0.63281-3h-6.4805c-1.1143 6.4999-2.27 13.002-3.8789 19.4-1.8274-5.4256-3.417-10.928-4.9609-16.439h-5.3203c-3.3713 12.26-3.5529 12.83-4.8789 16.439-1.9422-7.0752-3.9124-18.641-4.041-19.4zm-38.479 10.301c-0.63871 1.6058-2.4969 2.3398-6.2812 2.3398h-1.7598v3h1.7598c4.8398 0 6.5606-1.1789 6.5606-3.8808 0-0.43601-0.0651-0.95068-0.2793-1.459zm-55.801 2.7793v3h6.2402v-3zm-10.676 2.1894c-0.0479 0.51122-0.08398 1.0305-0.08398 1.5703 0 4.9582 2.1984 9.0801 7.6797 9.0801 1.7593 0 2.5215-0.0795 3.0801-0.19922v-3c-0.55857 0.1197-1.3208 0.19922-3.0801 0.19922-4.9414 0-7.1958-3.3578-7.5957-7.6504zm40.477 0.041c-0.38073 3.4759-2.3139 7.4102-9.1211 7.4102-0.80135 0-1.6032 0.018-2.4004-0.0801v3c0.79723 0.0981 1.599 0.0801 2.4004 0.0801 7.7941 0 9.1992-5.159 9.1992-8.8809 0-0.54486-0.03-1.0486-0.0781-1.5293zm47.893 1.4492c-0.33717 0.91087-0.67077 1.8104-1.0938 3h7.8809c-0.0328-0.0924-0.49973-1.3886-1.0938-3zm-18.76 1.8184c-0.47464 0.29491-1.0066 0.57188-1.6133 0.82227 2.1864 2.707 4.0608 5.9489 5.332 8.3203h1.5469c-0.31445-0.66382-2.4716-5.1237-5.2656-9.1426z" fill="#fbf1c7" opacity=".6"/>
  <path d="m57 15c-9.9393 0-17 7.0595-17 17v192c0 9.9393 7.0595 17 17 17h142c9.9405 0 17-7.0607 17-17v-144l-65-64.998zm4.0332 4.9902 89.967 2e-3 60 60.009v139.75c0 9.4999-6.6575 16.248-16.033 16.248h-133.93c-9.3757 0-16.033-6.7481-16.033-16.248v-183.51c0-9.501 6.6586-16.25 16.033-16.25z" fill="url(#linearGradient14-5)" style="paint-order:markers fill stroke"/>
  <path d="m151 15.002v52.914c0 9.6525 7.8639 17.084 17.518 17.084l47.482-1.34e-4v-5z" fill="#282828" opacity=".3" stroke-width="1.0833"/>
  <path d="m151 15v47.916c0 9.6525 7.8639 17.084 17.518 17.084l47.482-1.34e-4z" fill="url(#linearGradient7-6-0)" stroke-width="1.0833"/>
</svg>
