<svg width="256" height="256" version="1.1" viewBox="0 0 256 256" xmlns="http://www.w3.org/2000/svg">
  <defs>
    <linearGradient id="linearGradient26" x1="-160" x2="-160" y2="226" gradientTransform="translate(267,15)" gradientUnits="userSpaceOnUse">
      <stop stop-color="#cc241d" offset="0"/>
      <stop stop-color="#cc241d" offset="1"/>
    </linearGradient>
    <linearGradient id="linearGradient14-5" x1="128" x2="128" y1="15.001" y2="241" gradientTransform="translate(0,4.8e-4)" gradientUnits="userSpaceOnUse">
      <stop stop-color="#ebdbb2" stop-opacity=".15" offset="0"/>
      <stop stop-color="#ebdbb2" stop-opacity=".1" offset=".2"/>
      <stop stop-opacity="0" offset=".70405"/>
      <stop stop-opacity=".05" offset=".80473"/>
      <stop stop-opacity=".1" offset="1"/>
    </linearGradient>
    <linearGradient id="linearGradient7-6-0" x1="186" x2="156" y1="45.006" y2="75.012" gradientTransform="matrix(1.0833 0 0 1.0833 -17.999 -1.2512)" gradientUnits="userSpaceOnUse">
      <stop stop-color="#fb4934" offset="0"/>
      <stop stop-color="#cc241d" offset=".3027"/>
      <stop stop-color="#9d0006" offset="1"/>
    </linearGradient>
  </defs>
  <path d="m57 15c-9.9393 0-17 7.0595-17 17v192c0 9.9393 7.0595 17 17 17h142c9.9405 0 17-7.0607 17-17v-144l-64.999-64.999z" fill="url(#linearGradient26)" stroke-linecap="round" stroke-linejoin="round" stroke-miterlimit="0" style="paint-order:markers fill stroke"/>
  <path d="m57 241c-9.9393 0-17-7.0595-17-17v-43h176v43c0 9.9405-7.0607 17-17 17z" fill="#fb4934" opacity=".7" stroke-linecap="round" stroke-linejoin="round" stroke-miterlimit="0" style="paint-order:markers fill stroke"/>
  <path d="m155.58 199.36c-8.0056-4e-5 -13.879 5.574-13.879 14.48 4e-5 9.642 5.8794 14.4 13.76 14.4 0.74346 0 6.1795-0.0491 9.7188-1.4394v-13.721h-6.2383v9.6406c-0.75223 0.16119-1.7384 0.19922-3.0801 0.19922-5.4788 0-7.6816-4.1167-7.6816-9.0801 0-6.8414 3.6063-9.0391 8.2402-9.0391 3.0451 0 5.5577 1.1469 6.5605 1.6797l1.8008-5c-1.5361-0.96003-4.9694-2.1211-9.2012-2.1211zm-82.24 0.32031c-1.8733 0-5.3156 0.13192-8.3184 0.7207v27.32h6.2383v-9.2812h1.9609c12.11 0 12.959-6.11 12.959-9.4394 0-2.8186-0.461-9.3203-12.84-9.3203zm25.961 0c-4.8289 0-8.385 0.65478-8.5195 0.67969v27c3.3331 0.679 7.4313 0.7207 8.3184 0.7207 5.8544 0 15.961-1.8016 15.961-14.24 0-11.537-8.2532-14.16-15.76-14.16zm20.959 0.32031v27.721h6.2402v-11.441h10.961v-5.2402h-10.961v-5.7988h12.32v-5.2402zm49.561 0v5.2402h12.439c-5.5849 6.7305-10.922 14.83-13.08 18.76v3.7207h21.801v-5.2402h-14.119c3.9047-6.5079 10.39-14.767 13.68-18.16v-4.3203zm-96.08 5c4.1679 0 6 1.2418 6 3.9609 0 2.227-0.85296 4.1582-6.5195 4.1582h-1.9609v-8c0.6312-0.0526 1.5291-0.11914 2.4805-0.11914zm25.881 0c3.7697 0 9 0.98681 9 8.8398 0 3.7219-1.407 8.8809-9.2012 8.8809-0.80135 0-1.6012 0.018-2.3984-0.0801v-17.521c0.86445-0.0776 1.731-0.11514 2.5996-0.11914z" fill="#ebdbb2" opacity=".15"/>
  <path d="m155.58 196.36c-8.0056-4e-5 -13.879 5.574-13.879 14.48 4e-5 9.642 5.8794 14.4 13.76 14.4 0.74346 0 6.1795-0.0491 9.7188-1.4394v-13.721h-6.2383v9.6406c-0.75223 0.16119-1.7384 0.19922-3.0801 0.19922-5.4788 0-7.6816-4.1167-7.6816-9.0801 0-6.8414 3.6063-9.0391 8.2402-9.0391 3.0451 0 5.5577 1.1469 6.5605 1.6797l1.8008-5c-1.5361-0.96003-4.9694-2.1211-9.2012-2.1211zm-82.24 0.32031c-1.8733 0-5.3156 0.13192-8.3184 0.7207v27.32h6.2383v-9.2812h1.9609c12.11 0 12.959-6.11 12.959-9.4394 0-2.8186-0.461-9.3203-12.84-9.3203zm25.961 0c-4.8289 0-8.385 0.65478-8.5195 0.67969v27c3.3331 0.679 7.4313 0.7207 8.3184 0.7207 5.8544 0 15.961-1.8016 15.961-14.24 0-11.537-8.2532-14.16-15.76-14.16zm20.959 0.32031v27.721h6.2402v-11.441h10.961v-5.2402h-10.961v-5.7988h12.32v-5.2402zm49.561 0v5.2402h12.439c-5.5849 6.7305-10.922 14.83-13.08 18.76v3.7207h21.801v-5.2402h-14.119c3.9047-6.5079 10.39-14.767 13.68-18.16v-4.3203zm-96.08 5c4.1679 0 6 1.2418 6 3.9609 0 2.227-0.85296 4.1582-6.5195 4.1582h-1.9609v-8c0.6312-0.0526 1.5291-0.11914 2.4805-0.11914zm25.881 0c3.7697 0 9 0.98681 9 8.8398 0 3.7219-1.407 8.8809-9.2012 8.8809-0.80135 0-1.6012 0.018-2.3984-0.0801v-17.521c0.86445-0.0776 1.731-0.11514 2.5996-0.11914z" fill="#9d0006"/>
  <path d="m155.58 196.36c-8.0056-5e-5 -13.879 5.574-13.879 14.48 1e-5 0.5347 0.025 1.0481 0.0605 1.5527 0.60451-8.0568 6.2568-13.033 13.818-13.033 3.5457-1e-5 6.5147 0.81553 8.293 1.6445l0.9082-2.5234c-1.5361-0.96003-4.9694-2.1211-9.2012-2.1211zm-82.24 0.32031c-1.8733 0-5.3156 0.13192-8.3184 0.7207v3c3.0028-0.58878 6.445-0.7207 8.3184-0.7207 10.56 0 12.429 4.7192 12.756 7.8594 0.06175-0.55024 0.08398-1.0733 0.08398-1.5391 0-2.8186-0.461-9.3203-12.84-9.3203zm25.961 0c-4.8289 0-8.385 0.65478-8.5195 0.67969v3c0.13451-0.0249 3.6906-0.67969 8.5195-0.67969 7.142 0 14.945 2.392 15.687 12.559 0.0308-0.45939 0.0723-0.90629 0.0723-1.3984 0-11.537-8.2532-14.16-15.76-14.16zm20.959 0.32031v3h18.561v-3zm49.561 0v3h20.721v-3zm10.041 8.2402c-4.6613 5.9946-8.8367 12.399-10.682 15.76v3c2.1577-3.9301 7.4952-12.029 13.08-18.76zm-100.35 2.3262c-0.51132 1.4742-2.0549 2.5527-6.2891 2.5527h-1.9609v3h1.9609c5.6666 0 6.5195-1.9312 6.5195-4.1582 0-0.52492-0.0903-0.97803-0.23047-1.3945zm46.99 0.47265v3h10.961v-3zm32.441 2.041v3h6.2383v-3zm-10.68 2.1621c-0.0482 0.50531-0.082 1.0297-0.082 1.5976 0 4.9634 2.2028 9.0801 7.6816 9.0801 1.3417 0 2.3278-0.038 3.0801-0.19922v-3c-0.75223 0.16119-1.7384 0.19922-3.0801 0.19922-4.9495 0-7.206-3.3692-7.5996-7.6777zm-39.721 0.0664c-0.38095 3.4761-2.3139 7.4121-9.1211 7.4121-0.80135 0-1.6012 0.018-2.3984-0.0801v3c0.79723 0.0981 1.5971 0.0801 2.3984 0.0801 7.7941 0 9.2012-5.159 9.2012-8.8809 0-0.54562-0.0318-1.0499-0.0801-1.5312zm70.225 7.1719c-0.67528 1.0228-1.324 2.0329-1.9043 3h14.119v-3z" fill="#282828" opacity=".2"/>
  <path class="ColorScheme-Text" d="m188.29 122.33c-4.0589-4.3957-11.838-6.4247-22.995-6.4247-6.088 0-12.509 0.67693-18.598 1.6906-6.3466-5.8147-14.045-16.512-17.582-22.995 3.382-9.4735 5.4119-19.619 6.088-29.764 0.47834-20.511-17.363-22.8-22.325-13.867-4.3957 7.441-2.706 22.654 4.3957 38.539-4.0746 12.222-10.517 29.698-17.591 41.261-10.485 4.0589-32.468 14.201-34.483 25.359-1.6394 8.1905 6.8045 12.374 12.177 11.837 13.242-1.9481 26.379-18.258 35.504-34.152 12.964-4.3213 22.061-6.5134 31.788-8.4538 14.202 12.169 26.719 14.202 32.808 14.202 15.526 0 15.443-12.625 10.82-17.25zm-15.558 10.484c-4.443 0-13.71-3.3567-21.642-9.8119 9.4235-1.4512 15.911-1.7015 22.663-0.33761 9.387 2.0852 6.0173 10.15-1.0215 10.15zm-54.097-78.8c1.7399-2.6076 7.1025-4.0746 7.1025 5.0726-0.33846 7.7777-1.6906 15.222-4.059 22.654-5.7486-14.542-5.0717-24.347-3.0436-27.731zm18.938 64.945c-7.4329 1.3513-16.291 4.3348-19.612 5.0735 3.1016-6.5407 5.9774-13.147 8.4546-19.95 3.2524 5.3018 7.3234 10.012 11.16 14.885zm-40.921 19.619c-8.4546 13.53-16.906 22.323-21.642 22.323-2.0064 0-3.4135-1.8814-3.0436-3.7205 1.0356-5.1609 10.485-12.169 24.687-18.598z" color="#ebdbb2" fill="#282828" opacity=".2" stroke-width="8.7233"/>
  <path class="ColorScheme-Text" d="m188.29 119.32c-4.0589-4.3957-11.838-6.4247-22.995-6.4247-6.088 0-12.509 0.67693-18.598 1.6906-6.3466-5.8147-14.045-16.512-17.582-22.995 3.382-9.4735 5.4119-19.619 6.088-29.764 0.47834-20.511-17.363-22.8-22.325-13.867-4.3957 7.441-2.706 22.654 4.3957 38.539-4.0746 12.222-10.517 29.698-17.591 41.261-10.485 4.0589-32.468 14.201-34.483 25.359-1.6394 8.1905 6.8045 12.374 12.177 11.837 13.242-1.9481 26.379-18.258 35.504-34.152 12.964-4.3213 22.061-6.5134 31.788-8.4538 14.202 12.169 26.719 14.202 32.808 14.202 15.526 0 15.443-12.625 10.82-17.25zm-15.558 10.484c-4.443 0-13.71-3.3567-21.642-9.812 9.4235-1.4512 15.911-1.7015 22.663-0.33761 9.387 2.0852 6.0173 10.15-1.0215 10.15zm-54.097-78.8c1.7399-2.6076 7.1025-4.0746 7.1025 5.0726-0.33846 7.7777-1.6906 15.222-4.059 22.654-5.7486-14.542-5.0717-24.347-3.0436-27.731zm18.938 64.945c-7.4329 1.3513-16.291 4.3348-19.612 5.0735 3.1016-6.5407 5.9774-13.147 8.4546-19.95 3.2524 5.3018 7.3234 10.012 11.16 14.885zm-40.921 19.619c-8.4546 13.53-16.906 22.323-21.642 22.323-2.0064 0-3.4135-1.8814-3.0436-3.7205 1.0356-5.1609 10.485-12.169 24.687-18.598z" color="#ebdbb2" fill="#ebdbb2" stroke-width="8.7233"/>
  <path class="ColorScheme-Text" d="m122.25 43.014c-3.8378-0.17543-7.5107 1.5971-9.3711 4.9473-1.7889 3.0283-2.5526 7.3581-2.3711 12.482 0.1666-3.8145 0.94307-7.0612 2.3711-9.4785 4.7538-8.5602 21.322-6.8048 22.279 11.4 0.0128-0.17977 0.0329-0.35929 0.0449-0.53906 0.29896-12.819-6.5568-18.52-12.953-18.812zm3.4102 14.352c-0.42603 7.3116-1.7456 14.346-3.9824 21.365-3.0244-7.6506-4.241-13.947-4.4473-18.73-0.27606 4.9864 0.74045 12.358 4.4473 21.734 2.3684-7.4322 3.7201-14.877 4.0586-22.654 0-0.62271-0.0293-1.1875-0.0762-1.7148zm-8.9609 30.793c-4.0911 12.115-10.236 28.519-17.016 39.602-10.485 4.0589-32.467 14.202-34.482 25.359-0.25275 1.2628-0.24285 2.4186-0.06445 3.4883 0.02509-0.16309 0.02919-0.31798 0.0625-0.48438 2.0151-11.157 23.999-21.298 34.484-25.357 7.0739-11.563 13.515-29.039 17.59-41.262-0.20117-0.44999-0.38174-0.89695-0.57421-1.3457zm13.055 4.5352c-0.21245 0.63417-0.41431 1.2739-0.63867 1.9023 3.537 6.4828 11.235 17.179 17.582 22.994 6.0888-1.0136 12.51-1.6914 18.598-1.6914 11.157 0 18.935 2.0301 22.994 6.4258l8e-3 -0.0176c1.3361 1.337 2.2716 3.348 2.582 5.5234 0.47884-3.2358-0.64115-6.5872-2.582-8.5293l-6e-3 0.0176c-4.0589-4.3957-11.839-6.4238-22.996-6.4238-6.088 0-12.509 0.67777-18.598 1.6914-6.0114-5.5075-13.191-15.355-16.943-21.893zm5.7539 23.674c-6.0532 1.2813-12.378 3.2706-15.957 4.2285-0.52588 1.1445-1.0493 2.2898-1.5898 3.4297 3.3198-0.73857 12.175-3.7207 19.607-5.0723-0.68143-0.86551-1.3703-1.7264-2.0606-2.5859zm18.984 6.1406c-1.0924 0.14307-2.2244 0.30688-3.4023 0.48828 7.9316 6.4553 17.2 9.8106 21.643 9.8106 4.7279 0 7.7783-3.6353 6.4414-6.6562-0.84201 1.9996-3.2584 3.6523-6.4414 3.6523-3.8196 0-11.204-2.4971-18.24-7.2949zm-57.846 16.07c-0.99201 0.44914-1.9033 0.90542-2.8477 1.3594-7.4583 11.01-14.587 17.951-18.789 17.951-1.2408 0-2.2481-0.72099-2.752-1.7051-0.12957 0.3364-0.22824 0.66768-0.29297 0.99024-0.36996 1.8391 1.0385 3.7207 3.0449 3.7207 4.7357 0 13.184-8.7914 21.637-22.316z" color="#ebdbb2" fill="#fbf1c7" opacity=".6" stroke-width="8.7233"/>
  <path d="m57 15c-9.9393 0-17 7.0595-17 17v192c0 9.9393 7.0595 17 17 17h142c9.9405 0 17-7.0607 17-17v-144l-65-64.998zm4.0332 4.9902 89.967 2e-3 60 60.009v139.75c0 9.4999-6.6575 16.248-16.033 16.248h-133.93c-9.3757 0-16.033-6.7481-16.033-16.248v-183.51c0-9.501 6.6586-16.25 16.033-16.25z" fill="url(#linearGradient14-5)" style="paint-order:markers fill stroke"/>
  <path d="m151 15.002v52.914c0 9.6525 7.8639 17.084 17.518 17.084l47.482-1.34e-4v-5z" fill="#282828" opacity=".3" stroke-width="1.0833"/>
  <path d="m151 15v47.916c0 9.6525 7.8639 17.084 17.518 17.084l47.482-1.34e-4z" fill="url(#linearGradient7-6-0)" stroke-width="1.0833"/>
</svg>
