<svg width="256" height="256" version="1.1" viewBox="0 0 256 256" xmlns="http://www.w3.org/2000/svg">
  <defs>
    <linearGradient id="linearGradient7-6-0-6" x1="186" x2="156" y1="45.006" y2="75.012" gradientTransform="matrix(1.0833,0,0,1.0833,-17.996,-1.2506)" gradientUnits="userSpaceOnUse">
      <stop stop-color="#fe8019" offset="0"/>
      <stop stop-color="#d65d0e" offset=".3027"/>
      <stop stop-color="#af3a03" offset="1"/>
    </linearGradient>
    <linearGradient id="linearGradient21-1" x1="128" x2="128" y1="15" y2="241" gradientTransform="translate(3e-5,-9.75e-4)" gradientUnits="userSpaceOnUse">
      <stop stop-color="#ebdbb2" offset="0"/>
      <stop stop-color="#d5c4a1" offset="1"/>
    </linearGradient>
    <linearGradient id="linearGradient14-5" x1="128" x2="128" y1="15.001" y2="241" gradientTransform="translate(0,4.8e-4)" gradientUnits="userSpaceOnUse">
      <stop stop-color="#af3a03" stop-opacity=".095801" offset="0"/>
      <stop stop-color="#af3a03" stop-opacity=".045932" offset=".2"/>
      <stop stop-color="#af3a03" stop-opacity=".049869" offset=".70405"/>
      <stop stop-color="#282828" stop-opacity=".053806" offset=".80473"/>
      <stop stop-color="#282828" stop-opacity=".10499" offset="1"/>
    </linearGradient>
  </defs>
  <path d="m57 14.999c-9.9393 0-17 7.0595-17 17v149h176v-101l-64.998-64.998z" fill="url(#linearGradient21-1)" style="paint-order:markers fill stroke"/>
  <path d="m57 241c-9.9393 0-17-7.0595-17-17v-43h176v43c0 9.9405-7.0607 17-17 17z" fill="#d65d0e" stroke-linecap="round" stroke-linejoin="round" stroke-miterlimit="0" style="paint-order:markers fill stroke"/>
  <path d="m93.28 222.96c3.2335 0 4.48-0.98172 4.48-2.88 0-1.533-1.0262-2.6487-5.68-4.2-3.4634-1.2224-7.6-2.955-7.6-8.2 0-5.1508 4.0386-8.32 10.2-8.32 3.7211 0 6.4107 0.94404 8.2 1.92l-1.8 4.92c-1.873-0.99727-3.8907-1.4678-6-1.52-2.9192 0-4.2 0.79833-4.2 2.52 0.19285 2.3426 2.9057 3.0323 4.8 3.68 5.9312 2.1967 8.52 4.0081 8.52 9.24 0 6.7588-5.9696 8.16-10.92 8.16-2.0763 0-6.0494-0.27394-9.28-2.12l1.76-4.96c2.3212 1.3162 4.8902 1.7066 7.52 1.76zm21.96-0.32c0.79723 0.0981 1.5986 0.08 2.4 0.08 7.7941 0 9.2-5.1581 9.2-8.88 0-7.853-5.2303-8.84-9-8.84-0.86857 4e-3 -1.7356 0.0424-2.6 0.12zm18.04-8.8c0 12.439-10.106 14.24-15.96 14.24-0.88703 0-4.9869-0.041-8.32-0.72v-27c0.13451-0.0249 3.6911-0.68 8.52-0.68 7.5066 0 15.76 2.6232 15.76 14.16zm23.4-10.88c1.544 5.5115 3.1326 11.014 4.96 16.44 1.6089-6.3981 2.7657-12.9 3.88-19.4h6.48c-0.95902 4.7677-3.5295 16.692-7.16 27.72h-5.72c-1.3616-3.7346-2.4335-6.9585-5.32-16.52-1.6632 5.5337-3.2757 11.084-5.24 16.52h-5.72c-3.3422-10.153-5.6178-20.053-7.16-27.72h6.76c0.12837 0.75737 2.0977 12.325 4.04 19.4 1.3269-3.6121 1.5097-4.1845 4.88-16.44z" fill="#282828" opacity=".2" aria-label="SDW"/>
  <path d="m93.28 219.96c3.2335 0 4.48-0.98172 4.48-2.88 0-1.533-1.0262-2.6487-5.68-4.2-3.4634-1.2224-7.6-2.955-7.6-8.2 0-5.1508 4.0386-8.32 10.2-8.32 3.7211 0 6.4107 0.94404 8.2 1.92l-1.8 4.92c-1.873-0.99727-3.8907-1.4678-6-1.52-2.9192 0-4.2 0.79833-4.2 2.52 0.19285 2.3426 2.9057 3.0323 4.8 3.68 5.9312 2.1967 8.52 4.0081 8.52 9.24 0 6.7588-5.9696 8.16-10.92 8.16-2.0763 0-6.0494-0.27394-9.28-2.12l1.76-4.96c2.3212 1.3162 4.8902 1.7066 7.52 1.76zm21.96-0.32c0.79723 0.0981 1.5986 0.08 2.4 0.08 7.7941 0 9.2-5.1581 9.2-8.88 0-7.853-5.2303-8.84-9-8.84-0.86857 4e-3 -1.7356 0.0424-2.6 0.12zm18.04-8.8c0 12.439-10.106 14.24-15.96 14.24-0.88703 0-4.9869-0.041-8.32-0.72v-27c0.13451-0.0249 3.6911-0.68 8.52-0.68 7.5066 0 15.76 2.6232 15.76 14.16zm23.4-10.88c1.544 5.5115 3.1326 11.014 4.96 16.44 1.6089-6.3981 2.7657-12.9 3.88-19.4h6.48c-0.95902 4.7677-3.5295 16.692-7.16 27.72h-5.72c-1.3616-3.7346-2.4335-6.9585-5.32-16.52-1.6632 5.5337-3.2757 11.084-5.24 16.52h-5.72c-3.3422-10.153-5.6178-20.053-7.16-27.72h6.76c0.12837 0.75737 2.0977 12.325 4.04 19.4 1.3269-3.6121 1.5097-4.1845 4.88-16.44z" fill="#ebdbb2" aria-label="SDW"/>
  <path d="m94.68 196.36c-6.1614 0-10.199 3.1696-10.199 8.3203 0 0.53725 0.05313 1.0293 0.13476 1.4961 0.72078-4.2529 4.5304-6.8164 10.064-6.8164 3.13 0 5.5211 0.67181 7.2695 1.4648l0.93164-2.5449c-1.7893-0.97596-4.4801-1.9199-8.2012-1.9199zm22.84 0.32031c-4.8289 0-8.385 0.65478-8.5195 0.67969v3c0.13451-0.0249 3.6906-0.67969 8.5195-0.67969 7.1632 0 15 2.3955 15.703 12.639 0.0334-0.47753 0.0566-0.96541 0.0566-1.4785 0-11.537-8.2532-14.16-15.76-14.16zm18.16 0.32031c0.18842 0.93675 0.42384 2.0002 0.63476 3h6.125c0.12837 0.75737 2.0987 12.325 4.041 19.4 1.3269-3.6121 1.5086-4.1839 4.8789-16.439h5.3203c1.544 5.5115 3.1335 11.014 4.9609 16.439 1.6089-6.3981 2.7646-12.9 3.8789-19.4h5.8457c0.227-1.0662 0.48464-2.2536 0.63477-3h-6.4805c-1.1143 6.4999-2.27 13.002-3.8789 19.4-1.8274-5.4256-3.417-10.928-4.9609-16.439h-5.3203c-3.3703 12.256-3.552 12.827-4.8789 16.439-1.9423-7.0754-3.9126-18.643-4.041-19.4zm-44.246 8.6543c-0.37438 0.39163-0.55274 0.90322-0.55274 1.5449 0.19285 2.3426 2.9045 3.034 4.7988 3.6816 5.2724 1.9527 7.8985 3.606 8.418 7.623 0.0605-0.43646 0.10156-0.89314 0.10156-1.3848 0-5.2319-2.5883-7.0415-8.5195-9.2383-1.4272-0.48799-3.3174-1.0018-4.2461-2.2266zm35.328 6.6523c-0.37971 3.4769-2.3114 7.4141-9.1211 7.4141-0.80134 0-1.6032 0.018-2.4004-0.0801v3c0.79723 0.0981 1.599 0.0801 2.4004 0.0801 7.7941 0 9.1992-5.159 9.1992-8.8809 0-0.54637-0.0297-1.0513-0.0781-1.5332zm-41.002 5.8926-1.7598 4.9609c0.29448 0.16827 0.59948 0.30999 0.9043 0.45312l0.85547-2.4141c2.3212 1.3162 4.8898 1.7083 7.5195 1.7617 3.2335 0 4.4805-0.98258 4.4805-2.8809 0-0.5104-0.13354-0.97253-0.45703-1.4219-0.60826 0.8547-1.866 1.3027-4.0234 1.3027-2.6298-0.0534-5.1983-0.44556-7.5195-1.7617z" fill="#fbf1c7" opacity=".6"/>
  <path d="m70 48v60h60v-60zm75 50v10h41v-10zm-75 20v10h116v-10zm0 20v10h116v-10zm0 20v10h116v-10z" fill="#ebdbb2" opacity=".6" style="paint-order:markers fill stroke"/>
  <path d="m70 45v60h60v-60zm75 50v10h41v-10zm-75 20v10h116v-10zm0 20v10h116v-10zm0 20v10h116v-10z" fill="#d65d0e" style="paint-order:markers fill stroke"/>
  <path d="m70 45v3h60v-3zm75 50v3h41v-3zm-75 20v3h116v-3zm0 20v3h116v-3zm0 20v3h116v-3z" fill="#282828" opacity=".2" style="paint-order:markers fill stroke"/>
  <path d="m115 54c-5.5228 0-10 4.4772-10 10s4.4772 10 10 10 10-4.4772 10-10-4.4772-10-10-10zm-24 16-16 30h50l-13-20-7 10z" fill="#282828" opacity=".2" stroke-linecap="round" stroke-linejoin="round" stroke-miterlimit="0" stroke-width="1.5" style="paint-order:markers fill stroke"/>
  <path d="m115 52c-5.5228 0-10 4.4772-10 10s4.4772 10 10 10 10-4.4772 10-10-4.4772-10-10-10zm-24 16-16 30h50l-13-20-7 10z" fill="#ebdbb2" stroke-linecap="round" stroke-linejoin="round" stroke-miterlimit="0" stroke-width="1.5" style="paint-order:markers fill stroke"/>
  <path d="m115 52c-5.5228 0-10 4.4772-10 10 0 0.3379 0.0161 0.67071 0.0488 1 0.50227-5.0528 4.7662-9 9.9512-9s9.4489 3.9472 9.9512 9c0.0328-0.32929 0.0489-0.6621 0.0489-1 0-5.5228-4.4772-10-10-10zm-24 16-16 30h1.0664l14.934-28 14 20 7-10 11.699 18h1.3008l-13-20-7 10z" fill="#fbf1c7" opacity=".6" stroke-linecap="round" stroke-linejoin="round" stroke-miterlimit="0" stroke-width="1.5" style="paint-order:markers fill stroke"/>
  <path d="m57 15c-9.9393 0-17 7.0595-17 17v192c0 9.9393 7.0595 17 17 17h142c9.9405 0 17-7.0607 17-17v-144l-65-65zm4.0332 4.9902 89.967 0.01 60 60 2e-4 139.75c1e-5 9.4999-6.6575 16.248-16.033 16.248h-133.93c-9.3757 0-16.033-6.7481-16.033-16.248v-183.51c0-9.501 6.6586-16.25 16.033-16.25z" fill="url(#linearGradient14-5)" style="paint-order:markers fill stroke"/>
  <path d="m151 15.002v52.914c0 9.6525 7.8639 17.084 17.518 17.084l47.482-1.34e-4v-5z" fill="#282828" opacity=".2" stroke-width="1.0833"/>
  <path d="m151 15.001v47.916c0 9.6525 7.8639 17.084 17.518 17.084l47.482-1.34e-4z" fill="url(#linearGradient7-6-0-6)" stroke-width="1.0833"/>
</svg>
