<svg width="256" height="256" version="1.1" viewBox="0 0 256 256" xmlns="http://www.w3.org/2000/svg">
  <defs>
    <linearGradient id="linearGradient7-6-0" x1="186" x2="156" y1="45.006" y2="75.012" gradientTransform="matrix(1.0833,0,0,1.0833,-17.997,-1.2507)" gradientUnits="userSpaceOnUse">
      <stop stop-color="#a89984" offset="0"/>
      <stop stop-color="#7c6f64" offset=".3027"/>
      <stop stop-color="#504945" offset="1"/>
    </linearGradient>
    <linearGradient id="linearGradient21" x1="128" x2="128" y1="15" y2="241" gradientUnits="userSpaceOnUse">
      <stop stop-color="#ebdbb2" offset="0"/>
      <stop stop-color="#d5c4a1" offset="1"/>
    </linearGradient>
    <linearGradient id="linearGradient20" x1="128" x2="128" y1="15.001" y2="241" gradientTransform="translate(0,5e-4)" gradientUnits="userSpaceOnUse">
      <stop stop-color="#282828" stop-opacity=".098065" offset="0"/>
      <stop stop-color="#282828" stop-opacity=".051613" offset=".2"/>
      <stop stop-color="#282828" stop-opacity=".050323" offset=".70405"/>
      <stop stop-color="#282828" stop-opacity=".1" offset=".80473"/>
      <stop stop-color="#282828" stop-opacity=".2" offset="1"/>
    </linearGradient>
    <linearGradient id="linearGradient23" x1="86.771" x2="86.771" y1="40.049" y2="172" gradientUnits="userSpaceOnUse">
      <stop stop-color="#fbf1c7" stop-opacity=".6" offset="0"/>
      <stop stop-color="#ebdbb2" offset="1"/>
    </linearGradient>
  </defs>
  <path d="m57 15c-9.9393 0-17 7.0595-17 17v149h176v-101l-64.998-64.998-94.002-0.001953z" fill="url(#linearGradient21)" style="paint-order:markers fill stroke"/>
  <path d="m57 241c-9.9393 0-17-7.0595-17-17v-43h176v43c0 9.9405-7.0607 17-17 17z" fill="#665c54" stroke-linecap="round" stroke-linejoin="round" stroke-miterlimit="0" style="paint-order:markers fill stroke"/>
  <path d="m87.7 228.28c-11.917 0-13.84-8.7761-13.84-14.44 0-8.7097 5.577-14.48 14.16-14.48 3.6494 0 6.894 1.0788 8.56 2.12l-1.8 5.04c-1.62-0.86062-3.9004-1.64-6.84-1.64-1.6567 0-7.6 0.57595-7.6 8.84 0 7.3771 4.1646 9.04 7.92 9.04 2.4702 0.084 4.7798-0.55372 7-1.56l1.72 5c-3.204 1.9418-7.9741 2.08-9.28 2.08zm22.52-0.2c-3.9745 0-6.8192-0.28408-9.24-0.8v-26.88c2.835-0.53155 6.6089-0.72 8.44-0.72 5.7428 0 12.08 1.2536 12.08 7.8 0 2.2133-1.0667 3.96-3.2 5.24 3.0743 1.0716 4.4184 3.479 4.56 6.6 0 6.8145-5.901 8.76-12.64 8.76zm-3.16-12.44v7.16c0.98081 0.11539 2.0707 0.16 3.24 0.16 2.8306-6e-3 5.9596-0.46056 6.24-3.76 0-0.94028-0.0632-3.56-5.56-3.56zm0-4.76h3.04c3.4646 0 5.36-0.71411 5.36-3.12 0-1.4248-0.57021-3.04-5.04-3.04-1.1212 0.0106-2.2423 0.0329-3.36 0.12zm26.04 2.96c0 5.6626 2.8829 8.96 7.36 8.96 4.8781 0 7.36-3.9271 7.36-8.96 0-3.5229-1.2563-6.9778-4.28-8.36-0.90667-0.42667-1.9333-0.64-3.08-0.64-4.1749 0-7.36 3.1092-7.36 9zm21.16 0c0 9.292-5.7804 14.44-13.8 14.44-7.1983 0-13.8-4.5179-13.8-14.44 0-9.2833 6.2024-14.48 13.8-14.48 7.6238 0 13.8 4.991 13.8 14.48zm13.32-14.16c7.1485 0 12.88 2.1678 12.88 9.12 0 2.1895-0.48892 5.6557-5.2 7.6 3.5509 4.3964 6.5069 10.532 6.88 11.32h-7c-4.0062-7.1689-5.2518-8.7901-6.36-10.12h-3.08v10.12h-6.24v-27.32c3.1191-0.6116 6.3871-0.72 8.12-0.72zm0.36 5.32c-0.74882-0.01-1.4946 0.0599-2.24 0.12v7.52h1.76c4.8398 0 6.56-1.1781 6.56-3.88 0-1.4407-0.45697-3.76-6.08-3.76z" fill="#282828" opacity=".3" aria-label="CBORI"/>
  <path d="m87.7 225.28c-11.917 0-13.84-8.7761-13.84-14.44 0-8.7097 5.577-14.48 14.16-14.48 3.6494 0 6.894 1.0788 8.56 2.12l-1.8 5.04c-1.62-0.86062-3.9004-1.64-6.84-1.64-1.6567 0-7.6 0.57595-7.6 8.84 0 7.3771 4.1646 9.04 7.92 9.04 2.4702 0.084 4.7798-0.55372 7-1.56l1.72 5c-3.204 1.9418-7.9741 2.08-9.28 2.08zm22.52-0.2c-3.9745 0-6.8192-0.28408-9.24-0.8v-26.88c2.835-0.53155 6.6089-0.72 8.44-0.72 5.7428 0 12.08 1.2536 12.08 7.8 0 2.2133-1.0667 3.96-3.2 5.24 3.0743 1.0716 4.4184 3.479 4.56 6.6 0 6.8145-5.901 8.76-12.64 8.76zm-3.16-12.44v7.16c0.98081 0.11539 2.0707 0.16 3.24 0.16 2.8306-6e-3 5.9596-0.46056 6.24-3.76 0-0.94028-0.0632-3.56-5.56-3.56zm0-4.76h3.04c3.4646 0 5.36-0.71411 5.36-3.12 0-1.4248-0.57021-3.04-5.04-3.04-1.1212 0.0106-2.2423 0.0329-3.36 0.12zm26.04 2.96c0 5.6626 2.8829 8.96 7.36 8.96 4.8781 0 7.36-3.9271 7.36-8.96 0-3.5229-1.2563-6.9778-4.28-8.36-0.90667-0.42667-1.9333-0.64-3.08-0.64-4.1749 0-7.36 3.1092-7.36 9zm21.16 0c0 9.292-5.7804 14.44-13.8 14.44-7.1983 0-13.8-4.5179-13.8-14.44 0-9.2833 6.2024-14.48 13.8-14.48 7.6238 0 13.8 4.991 13.8 14.48zm13.32-14.16c7.1485 0 12.88 2.1678 12.88 9.12 0 2.1895-0.48892 5.6557-5.2 7.6 3.5509 4.3964 6.5069 10.532 6.88 11.32h-7c-4.0062-7.1689-5.2518-8.7901-6.36-10.12h-3.08v10.12h-6.24v-27.32c3.1191-0.6116 6.3871-0.72 8.12-0.72zm0.36 5.32c-0.74882-0.01-1.4946 0.0599-2.24 0.12v7.52h1.76c4.8398 0 6.56-1.1781 6.56-3.88 0-1.4407-0.45697-3.76-6.08-3.76z" fill="#ebdbb2" aria-label="CBORI"/>
  <path d="m88.019 196.36c-8.583 0-14.16 5.7708-14.16 14.48 0 0.43711 0.0398 0.91801 0.0664 1.3867 0.65021-7.8014 6.0527-12.867 14.094-12.867 3.0828 0 5.8646 0.77198 7.6621 1.6387l0.89844-2.5176c-1.666-1.0412-4.9112-2.1211-8.5606-2.1211zm52.441 0c-7.5976-1e-5 -13.801 5.1971-13.801 14.48 0 0.51971 0.0291 1.0157 0.0644 1.5059 0.63323-8.3412 6.5582-12.986 13.736-12.986 7.2174 0 13.128 4.48 13.738 13.008 0.0361-0.4973 0.0606-1.0035 0.0606-1.5274 0-9.489-6.175-14.48-13.799-14.48zm-31.041 0.32031c-1.8311 0-5.6045 0.18915-8.4394 0.7207v3c2.835-0.53155 6.6084-0.7207 8.4394-0.7207 5.2302 0 10.938 1.0547 11.918 6.1855 0.10259-0.44047 0.16211-0.8994 0.16211-1.3848 0-6.5464-6.3373-7.8008-12.08-7.8008zm58.16 0c-1.7329 0-5 0.1091-8.1191 0.7207v3c3.1191-0.6116 6.3862-0.7207 8.1191-0.7207 6.6045 0 11.989 1.8606 12.771 7.625 0.0747-0.5368 0.10938-1.0514 0.10938-1.5039 0-6.9522-5.7323-9.1211-12.881-9.1211zm-52.484 9.5976c-0.70215 1.2017-2.4106 1.6035-4.9961 1.6035h-3.0391v3h3.0391c3.4646 0 5.3613-0.7152 5.3613-3.1211 0-0.49764-0.0842-1.0153-0.36523-1.4824zm58.646 1.0234c-0.63871 1.6058-2.4969 2.3398-6.2812 2.3398h-1.7617v3h1.7617c4.8398 0 6.5586-1.1789 6.5586-3.8808 0-0.43592-0.0632-0.95078-0.27734-1.459zm-53.338 3.5664c-0.51891 0.69765-1.2123 1.3188-2.1035 1.8535 2.6243 0.9147 3.9791 2.8069 4.4102 5.2812 0.0888-0.52841 0.14844-1.0791 0.14844-1.6816-0.10355-2.2823-0.85903-4.1773-2.4551-5.4531zm-39.994 1.3691c-0.0455 0.46546-0.0703 0.95848-0.0703 1.4844 0 7.3771 4.1646 9.0391 7.9199 9.0391 2.4702 0.084 4.7798-0.55427 7-1.5606l0.84375 2.4492c0.29772-0.1422 0.59946-0.28104 0.87696-0.44922l-1.7207-5c-2.2202 1.0063-4.5298 1.6446-7 1.5606-3.4813 0-7.3088-1.4377-7.8496-7.5234zm67.316 0.0605c-0.44407 4.3086-2.873 7.5039-7.2656 7.5039-4.061 0-6.8033-2.721-7.2793-7.4512-0.0483 0.4774-0.082 0.96906-0.082 1.4902 0 5.6626 2.8843 8.9609 7.3613 8.9609 4.8781 0 7.3594-3.928 7.3594-8.9609 0-0.5188-0.0376-1.0335-0.0937-1.543zm29.148 3.2832c-0.47437 0.29465-1.009 0.57011-1.6152 0.82031 2.1865 2.7071 4.0628 5.9488 5.334 8.3203h1.5469c-0.31442-0.66375-2.4721-5.1221-5.2656-9.1406zm-60.691 2.0117c-0.94248 2.0375-3.5141 2.3641-5.8828 2.3691-1.1692 0-2.2594-0.0448-3.2402-0.16016v3c0.98081 0.11539 2.071 0.16016 3.2402 0.16016 2.8306-6e-3 5.9579-0.46228 6.2383-3.7617 0-0.36614-0.0192-0.98583-0.35547-1.6074z" fill="#fbf1c7" opacity=".6"/>
  <path d="m63.184 40.049v2h10v-2zm74.99 0v2h9.998v-2zm-79.988 22.496v2c0 1.3805 1.1195 2.5 2.5 2.5h14.996c1.3805 0 2.5-1.1195 2.5-2.5v-2c0 1.3805-1.1195 2.5-2.5 2.5h-14.996c-1.3805 0-2.5-1.1195-2.5-2.5zm34.994 0v2c-5e-3 3.3384 5.0055 3.3384 5 0v-2c5e-3 3.3384-5.005 3.3384-5 0zm19.998 0v2c-3e-3 3.3355 4.9954 3.3355 4.998 0v-2c-3e-3 3.3355-5.001 3.3355-4.998 0zm19.996 0v2c0 1.3805 1.1195 2.5 2.5 2.5h14.998c1.3805 0 2.5-1.1195 2.5-2.5v-2c0 1.3805-1.1195 2.5-2.5 2.5h-14.998c-1.3805 0-2.5-1.1195-2.5-2.5zm-14.996 12.457v2h9.998v-2zm35.006 2e-3v2h9.998v-2zm-80 22.492v2c-5e-3 3.3384 5.0055 3.3384 5 0v-2c0.0055 3.3384-5.005 3.3384-5 0zm20 0v2c-5e-3 3.3384 5.0055 3.3384 5 0v-2c5e-3 3.3384-5.005 3.3384-5 0zm19.994 2e-3v2c0 1.3805 1.1195 2.5 2.5 2.5h14.998c1.3805 0 2.5-1.1195 2.5-2.5v-2c0 1.3805-1.1195 2.5-2.5 2.5h-14.998c-1.3805 0-2.5-1.1195-2.5-2.5zm35.006 2e-3v2c0 1.3805 1.1195 2.5 2.5 2.5h14.998c1.3805 0 2.5-1.1195 2.5-2.5v-2c0 1.3805-1.1195 2.5-2.5 2.5h-14.998c-1.3805 0-2.5-1.1195-2.5-2.5zm30 0v2c-5e-3 3.3384 5.0055 3.3384 5 0v-2c5e-3 3.3384-5.005 3.3384-5 0zm-115 12.5v2h10v-2zm67.83 0v2h10v-2zm52.168 0v2h10v-2zm-84.992 2e-3v2h9.998v-2zm27.822 22.494v2c0 1.3805 1.1195 2.5 2.5 2.5h14.996c1.3805 0 2.5-1.1195 2.5-2.5v-2c0 1.3805-1.1195 2.5-2.5 2.5h-14.996c-1.3805 0-2.5-1.1195-2.5-2.5zm34.994 0v2c-5e-3 3.3384 5.0055 3.3384 5 0v-2c5e-3 3.3384-5.005 3.3384-5 0zm-102.82 2e-3v2c0 1.3805 1.1195 2.498 2.5 2.498h14.996c1.3805 1e-5 2.5-1.1175 2.5-2.498v-2c0 1.3805-1.1195 2.498-2.5 2.498h-14.996c-1.3805 0-2.5-1.1175-2.5-2.498zm120 0v2c0 1.3805 1.1195 2.498 2.5 2.498h14.996c1.3805 1e-5 2.5-1.1175 2.5-2.498v-2c0 1.3805-1.1195 2.498-2.5 2.498h-14.996c-1.3805 0-2.5-1.1175-2.5-2.498zm-84.988 2e-3v2c0 1.3805 1.1175 2.5 2.498 2.5h14.998c1.3805 0 2.5-1.1195 2.5-2.5v-2c0 1.3805-1.1195 2.5-2.5 2.5h-14.998c-1.3805 0-2.498-1.1195-2.498-2.5zm4.9922 12.496v2h10v-2zm75 4e-3v2h10v-2zm-100 22.492v2c-5e-3 3.3384 5.0055 3.3384 5 0v-2c0.0055 3.3384-5.005 3.3384-5 0zm53 0v2c-5e-3 3.3384 5.0055 3.3384 5 0v-2c5e-3 3.3384-5.005 3.3384-5 0zm-33 2e-3v2c0 1.3805 1.1195 2.498 2.5 2.498h14.996c1.3805 1e-5 2.5-1.1176 2.5-2.498v-2c0 1.3805-1.1195 2.4981-2.5 2.498h-14.996c-1.3805 0-2.5-1.1176-2.5-2.498zm55 2e-3v2c-5e-3 3.3384 5.0055 3.3384 5 0v-2c5e-3 3.3384-5.005 3.3384-5 0zm20 2e-3v2c0 1.3805 1.1195 2.4981 2.5 2.498h14.996c1.3805 1e-5 2.5-1.1175 2.5-2.498v-2c0 1.3805-1.1195 2.498-2.5 2.498h-14.996c-1.3805 1e-4 -2.5-1.1175-2.5-2.498z" fill="url(#linearGradient23)" opacity=".6"/>
  <path d="m60.686 35.049c-1.3805 1e-6 -2.5 1.1195-2.5 2.5v24.996c0 1.3805 1.1195 2.5 2.5 2.5h14.996c1.3805-1e-6 2.5-1.1195 2.5-2.5v-24.996c0-1.3805-1.1195-2.5-2.5-2.5zm34.994 0c-1.3805 1e-6 -2.5 1.1195-2.5 2.5v24.996c-5e-3 3.3384 5.0055 3.3384 5 0v-24.996c0-1.3805-1.1195-2.5-2.5-2.5zm19.998 0c-1.3805 1e-6 -2.5 1.1195-2.5 2.5v24.996c-3e-3 3.3355 4.9954 3.3355 4.998 0v-24.996c0-1.3805-1.1175-2.5-2.498-2.5zm19.996 0c-1.3805-1.3e-5 -2.5 1.1195-2.5 2.5v24.996c0 1.3805 1.1195 2.5 2.5 2.5h14.998c1.3805-1e-6 2.5-1.1195 2.5-2.5v-24.996c0-1.3805-1.1195-2.5-2.5-2.5zm-72.49 5h10v19.996h-10zm74.99 0h9.998v19.996h-9.998zm-62.49 29.951c-1.3805 0-2.5 1.1195-2.5 2.5v24.996c-5e-3 3.3384 5.0055 3.3384 5 0v-24.996c0-1.3805-1.1195-2.5-2.5-2.5zm20 0c-1.3805 0-2.5 1.1195-2.5 2.5v24.996c-5e-3 3.3384 5.0055 3.3384 5 0v-24.996c0-1.3805-1.1195-2.5-2.5-2.5zm19.994 2e-3c-1.3805-1.2e-5 -2.5 1.1195-2.5 2.5v24.996c0 1.3805 1.1195 2.5 2.5 2.5h14.998c1.3805 0 2.5-1.1195 2.5-2.5v-24.996c0-1.3805-1.1195-2.5-2.5-2.5zm35.006 2e-3c-1.3805 0-2.5 1.1195-2.5 2.5v24.996c0 1.3805 1.1195 2.5 2.5 2.5h14.998c1.3805 0 2.5-1.1195 2.5-2.5v-24.996c0-1.3805-1.1195-2.5-2.5-2.5zm30 0c-1.3805 0-2.5 1.1195-2.5 2.5v24.996c-5e-3 3.3384 5.0055 3.3384 5 0v-24.996c0-1.3805-1.1195-2.5-2.5-2.5zm-62.506 4.998h9.998v19.996h-9.998zm35.006 2e-3h9.998v19.998h-9.998zm-92.5 29.996c-1.3805-1e-5 -2.5 1.1195-2.5 2.5v24.998c0 1.3805 1.1195 2.498 2.5 2.498h14.996c1.3805 1e-5 2.5-1.1175 2.5-2.498v-24.998c0-1.3805-1.1195-2.5-2.5-2.5zm67.83 0c-1.3805 0-2.5 1.1195-2.5 2.5v24.996c0 1.3805 1.1195 2.5 2.5 2.5h14.996c1.3805 0 2.5-1.1195 2.5-2.5v-24.996c0-1.3805-1.1195-2.5-2.5-2.5zm34.994 0c-1.3805 0-2.5 1.1195-2.5 2.5v24.996c-5e-3 3.3384 5.0055 3.3384 5 0v-24.996c0-1.3805-1.1195-2.5-2.5-2.5zm17.174 0c-1.3805-1e-5 -2.5 1.1195-2.5 2.5v24.998c0 1.3805 1.1195 2.498 2.5 2.498h14.996c1.3805 1e-5 2.5-1.1175 2.5-2.498v-24.998c0-1.3805-1.1195-2.5-2.5-2.5zm-84.99 4e-3c-1.3805 0-2.498 1.1195-2.498 2.5v24.996c0 1.3805 1.1175 2.5 2.498 2.5h14.998c1.3805 0 2.5-1.1195 2.5-2.5v-24.996c0-1.3805-1.1195-2.5-2.5-2.5zm-32.506 4.9959h10v19.998h-10zm67.83 0h10v19.996h-10zm52.168 0h10v19.998h-10zm-84.992 2e-3h9.998v19.998h-9.998zm-22.506 29.994c-1.3805 0-2.5 1.1195-2.5 2.5v24.996c-5e-3 3.3384 5.0055 3.3384 5 0v-24.996c0-1.3805-1.1195-2.5-2.5-2.5zm20 0c-1.3805-1e-5 -2.5 1.1195-2.5 2.5v24.998c0 1.3805 1.1195 2.498 2.5 2.498h14.996c1.3805 1e-5 2.5-1.1175 2.5-2.498v-24.998c0-1.3805-1.1195-2.5-2.5-2.5zm33 0c-1.3805 0-2.5 1.1195-2.5 2.5v24.996c-5e-3 3.3384 5.0055 3.3384 5 0v-24.996c0-1.3805-1.1195-2.5-2.5-2.5zm22 4e-3c-1.3805 0-2.5 1.1195-2.5 2.5v24.996c-5e-3 3.3384 5.0055 3.3384 5 0v-24.996c0-1.3805-1.1195-2.5-2.5-2.5zm20 0c-1.3805-1e-5 -2.5 1.1195-2.5 2.5v24.998c0 1.3805 1.1195 2.4981 2.5 2.498h14.996c1.3805 1e-5 2.5-1.1175 2.5-2.498v-24.998c0-1.3805-1.1195-2.5-2.5-2.5zm-72.5 4.996h10v19.998h-10zm75 4e-3h10v19.998h-10z" fill="#665c54" stroke-width="4.9993"/>
  <path d="m60.686 35.049c-1.3805 1e-6 -2.5 1.1195-2.5 2.5v2c0-1.3805 1.1195-2.5 2.5-2.5h14.996c1.3805 0 2.5 1.1195 2.5 2.5v-2c0-1.3805-1.1195-2.5-2.5-2.5zm34.994 0c-1.3805 1e-6 -2.5 1.1195-2.5 2.5v2c-1e-6 -1.3805 1.1195-2.5 2.5-2.5s2.5 1.1195 2.5 2.5v-2c0-1.3805-1.1195-2.5-2.5-2.5zm19.998 0c-1.3805 1e-6 -2.5 1.1195-2.5 2.5v2c0-1.3805 1.1195-2.5 2.5-2.5s2.498 1.1195 2.498 2.5v-2c0-1.3805-1.1176-2.5-2.498-2.5zm19.996 0c-1.3805-1.3e-5 -2.5 1.1195-2.5 2.5v2c0-1.3805 1.1195-2.5 2.5-2.5h14.998c1.3805 0 2.5 1.1195 2.5 2.5v-2c0-1.3805-1.1195-2.5-2.5-2.5zm-72.49 24.996v2h10v-2zm74.99 0v2h9.998v-2zm-62.49 9.9551c-1.3805 0-2.5 1.1195-2.5 2.5v2c0-1.3805 1.1195-2.5 2.5-2.5s2.5 1.1195 2.5 2.5v-2c0-1.3805-1.1195-2.5-2.5-2.5zm20 0c-1.3805 0-2.5 1.1195-2.5 2.5v2c0-1.3805 1.1195-2.5 2.5-2.5s2.5 1.1195 2.5 2.5v-2c0-1.3805-1.1195-2.5-2.5-2.5zm19.994 2e-3c-1.3805-1e-5 -2.5 1.1195-2.5 2.5v2c0-1.3805 1.1195-2.5 2.5-2.5h14.998c1.3805 0 2.5 1.1195 2.5 2.5v-2c0-1.3805-1.1195-2.5-2.5-2.5zm35.006 2e-3c-1.3805 0-2.5 1.1195-2.5 2.5v2c0-1.3805 1.1195-2.5 2.5-2.5h14.998c1.3805 0 2.5 1.1195 2.5 2.5v-2c0-1.3805-1.1195-2.5-2.5-2.5zm30 0c-1.3805 0-2.5 1.1195-2.5 2.5v2c0-1.3805 1.1195-2.5 2.5-2.5s2.5 1.1195 2.5 2.5v-2c0-1.3805-1.1195-2.5-2.5-2.5zm-62.506 24.994v2h9.998v-2zm35.006 0.0039v2h9.998v-2zm-92.5 9.998c-1.3805-1e-5 -2.5 1.1195-2.5 2.5v2c0-1.3805 1.1195-2.5 2.5-2.5h14.996c1.3805 0 2.5 1.1195 2.5 2.5v-2c0-1.3805-1.1195-2.5-2.5-2.5zm67.83 0c-1.3805 0-2.5 1.1195-2.5 2.5v2c0-1.3805 1.1195-2.5 2.5-2.5h14.996c1.3805 0 2.5 1.1195 2.5 2.5v-2c0-1.3805-1.1195-2.5-2.5-2.5zm34.994 0c-1.3805 0-2.5 1.1195-2.5 2.5v2c0-1.3805 1.1195-2.5 2.5-2.5s2.5 1.1195 2.5 2.5v-2c0-1.3805-1.1195-2.5-2.5-2.5zm17.174 0c-1.3805-1e-5 -2.5 1.1195-2.5 2.5v2c0-1.3805 1.1195-2.5 2.5-2.5h14.996c1.3805 0 2.5 1.1195 2.5 2.5v-2c0-1.3805-1.1195-2.5-2.5-2.5zm-84.99 4e-3c-1.3805 0-2.498 1.1195-2.498 2.5v2c0-1.3805 1.1175-2.5 2.498-2.5h14.998c1.3805 0 2.5 1.1195 2.5 2.5v-2c0-1.3805-1.1195-2.5-2.5-2.5zm35.324 24.992v2h10v-2zm-67.83 2e-3v2h10v-2zm120 0v2h10v-2zm-84.992 2e-3v2h9.998v-2zm-22.506 9.9961c-1.3805 0-2.5 1.1195-2.5 2.5v2c0-1.3805 1.1195-2.5 2.5-2.5s2.5 1.1195 2.5 2.5v-2c0-1.3805-1.1195-2.5-2.5-2.5zm20 0c-1.3805-1e-5 -2.5 1.1195-2.5 2.5v2c0-1.3805 1.1195-2.5 2.5-2.5h14.996c1.3805 0 2.5 1.1195 2.5 2.5v-2c0-1.3805-1.1195-2.5-2.5-2.5zm33 0c-1.3805 0-2.5 1.1195-2.5 2.5v2c0-1.3805 1.1195-2.5 2.5-2.5s2.5 1.1195 2.5 2.5v-2c0-1.3805-1.1195-2.5-2.5-2.5zm22 4e-3c-1.3805 0-2.5 1.1195-2.5 2.5v2c0-1.3805 1.1195-2.5 2.5-2.5s2.5 1.1195 2.5 2.5v-2c0-1.3805-1.1195-2.5-2.5-2.5zm20 0c-1.3805-1e-5 -2.5 1.1195-2.5 2.5v2c0-1.3805 1.1195-2.5 2.5-2.5h14.996c1.3805 0 2.5 1.1195 2.5 2.5v-2c0-1.3805-1.1195-2.5-2.5-2.5zm-72.5 24.994v2h10v-2zm75 4e-3v2h10v-2z" fill="#282828" opacity=".3"/>
  <path d="m57 15c-9.9393 0-17 7.0595-17 17v192c0 9.9393 7.0595 17 17 17h142c9.9405 0 17-7.0607 17-17v-144l-65-65zm4.0332 4.9902 89.967 0.01 60 60 2e-4 139.75c1e-5 9.4999-6.6575 16.248-16.033 16.248h-133.93c-9.3757 0-16.033-6.7481-16.033-16.248v-183.51c0-9.501 6.6586-16.25 16.033-16.25z" fill="url(#linearGradient20)" style="paint-order:markers fill stroke"/>
  <path d="m151 15.002v52.914c0 9.6525 7.8639 17.084 17.518 17.084l47.482-1.34e-4v-5z" fill="#282828" opacity=".2" stroke-width="1.0833"/>
  <path d="m151 15.001v47.916c0 9.6525 7.8639 17.082 17.518 17.082l47.482 0.0019z" fill="url(#linearGradient7-6-0)" stroke-width="1.0833"/>
</svg>
