<svg width="256" height="256" version="1.1" viewBox="0 0 256 256" xmlns="http://www.w3.org/2000/svg">
  <defs>
    <linearGradient id="linearGradient26" x1="-160" x2="-160" y2="226" gradientTransform="translate(267,15)" gradientUnits="userSpaceOnUse">
      <stop stop-color="#689d6a" offset="0"/>
      <stop stop-color="#8ec07c" offset="1"/>
    </linearGradient>
    <linearGradient id="linearGradient14-5" x1="128" x2="128" y1="15.001" y2="241" gradientTransform="translate(0,4.8e-4)" gradientUnits="userSpaceOnUse">
      <stop stop-color="#ebdbb2" stop-opacity=".2" offset="0"/>
      <stop stop-color="#ebdbb2" stop-opacity=".1" offset=".2"/>
      <stop stop-opacity="0" offset=".70405"/>
      <stop stop-opacity=".05" offset=".80473"/>
      <stop stop-opacity=".1" offset="1"/>
    </linearGradient>
    <linearGradient id="linearGradient7-6-0" x1="186" x2="156" y1="45.006" y2="75.012" gradientTransform="matrix(1.0833 0 0 1.0833 -17.999 -1.2512)" gradientUnits="userSpaceOnUse">
      <stop stop-color="#8ec07c" offset="0"/>
      <stop stop-color="#689d6a" offset=".3027"/>
      <stop stop-color="#427b58" offset="1"/>
    </linearGradient>
  </defs>
  <path d="m57 15c-9.9393 0-17 7.0595-17 17v192c0 9.9393 7.0595 17 17 17h142c9.9405 0 17-7.0607 17-17v-144l-64.999-64.999z" fill="url(#linearGradient26)" stroke-linecap="round" stroke-linejoin="round" stroke-miterlimit="0" style="paint-order:markers fill stroke"/>
  <path d="m57 241c-9.9393 0-17-7.0595-17-17v-43h176v43c0 9.9405-7.0607 17-17 17z" fill="#427b58" opacity=".3" stroke-linecap="round" stroke-linejoin="round" stroke-miterlimit="0" style="paint-order:markers fill stroke"/>
  <path d="m100.64 222.96c3.2335 0 4.48-0.98172 4.48-2.88 0-1.533-1.0262-2.6487-5.68-4.2-3.8413-1.3558-7.4099-2.9885-7.6-8.2 0-5.1508 4.0386-8.32 10.2-8.32 3.7211 0 6.4107 0.94404 8.2 1.92l-1.8 4.92c-1.873-0.99727-3.8907-1.4678-6-1.52-2.9192 0-4.2 0.79833-4.2 2.52 0.19285 2.3426 2.9057 3.0323 4.8 3.68 5.9312 2.1967 8.52 4.0081 8.52 9.24 0 6.7588-5.9696 8.16-10.92 8.16-2.1201 0-6.0638-0.28218-9.28-2.12l1.76-4.96c2.3212 1.3162 4.8902 1.7066 7.52 1.76zm24.04-23.28c12.379 0 12.84 6.5014 12.84 9.32 0 3.3294-0.85048 9.44-12.96 9.44h-1.96v9.28h-6.24v-27.32c3.0027-0.58877 6.4466-0.72 8.32-0.72zm0.4 5.32c-0.96851 0-1.8853 0.0704-2.48 0.12v8h1.96c5.6666 0 6.52-1.933 6.52-4.16 0-2.7192-1.8321-3.96-6-3.96zm32.08 22.72c-0.95131-1.9026-3.0802-5.923-5.72-9.56-2.4597 3.1625-5.5122 8.7835-5.88 9.56h-7.12c2.4908-4.5853 5.4549-8.9918 9.32-14.36l-8.92-13.36h7.56l5.4 8.64 5.28-8.64h7.12l-8.8 13.44c2.0318 2.6365 5.968 8.0336 9.24 14.28z" fill="#ebdbb2" opacity=".2" aria-label="SPX"/>
  <path d="m100.64 219.96c3.2335 0 4.48-0.98172 4.48-2.88 0-1.533-1.0262-2.6487-5.68-4.2-3.8413-1.3558-7.4099-2.9885-7.6-8.2 0-5.1508 4.0386-8.32 10.2-8.32 3.7211 0 6.4107 0.94404 8.2 1.92l-1.8 4.92c-1.873-0.99727-3.8907-1.4678-6-1.52-2.9192 0-4.2 0.79833-4.2 2.52 0.19285 2.3426 2.9057 3.0323 4.8 3.68 5.9312 2.1967 8.52 4.0081 8.52 9.24 0 6.7588-5.9696 8.16-10.92 8.16-2.1201 0-6.0638-0.28218-9.28-2.12l1.76-4.96c2.3212 1.3162 4.8902 1.7066 7.52 1.76zm24.04-23.28c12.379 0 12.84 6.5014 12.84 9.32 0 3.3294-0.85048 9.44-12.96 9.44h-1.96v9.28h-6.24v-27.32c3.0027-0.58877 6.4466-0.72 8.32-0.72zm0.4 5.32c-0.96851 0-1.8853 0.0704-2.48 0.12v8h1.96c5.6666 0 6.52-1.933 6.52-4.16 0-2.7192-1.8321-3.96-6-3.96zm32.08 22.72c-0.95131-1.9026-3.0802-5.923-5.72-9.56-2.4597 3.1625-5.5122 8.7835-5.88 9.56h-7.12c2.4908-4.5853 5.4549-8.9918 9.32-14.36l-8.92-13.36h7.56l5.4 8.64 5.28-8.64h7.12l-8.8 13.44c2.0318 2.6365 5.968 8.0336 9.24 14.28z" fill="#427b58" aria-label="SPX"/>
  <path d="m102.04 196.36c-6.1613 0-10.199 3.1696-10.199 8.3203 0.018 0.49416 0.0762 0.94628 0.15234 1.3789 0.77008-4.1835 4.5632-6.6992 10.047-6.6992 3.1289 0 5.5213 0.67023 7.2695 1.4629l0.93164-2.543c-1.7893-0.97596-4.4801-1.9199-8.2012-1.9199zm22.641 0.32031c-1.8734 0-5.3176 0.13193-8.3203 0.7207v3c3.0027-0.58877 6.4469-0.7207 8.3203-0.7207 10.498 0 12.418 4.6705 12.762 7.8105 0.0574-0.53247 0.0781-1.0381 0.0781-1.4902 0-2.8186-0.461-9.3203-12.84-9.3203zm14.16 0.32031 2.0039 3h5.5566l5.4004 8.6406 5.2793-8.6406h5.1543l1.9648-3h-7.1191l-5.2793 8.6406-5.4004-8.6406zm-40.047 8.6543c-0.37437 0.39163-0.55273 0.90322-0.55273 1.5449 0.19285 2.3426 2.9045 3.034 4.7988 3.6816 5.275 1.9537 7.9023 3.6076 8.4199 7.6289 0.061-0.43816 0.10157-0.89682 0.10157-1.3906 0-5.2319-2.5903-7.0415-8.5215-9.2383-1.4272-0.48799-3.3174-1.0018-4.2461-2.2266zm32.068 1.877c-0.49968 1.4918-2.0347 2.5879-6.3008 2.5879h-1.9609v3h1.9609c5.6666 0 6.5195-1.9312 6.5195-4.1582 0-0.53289-0.0742-1.0086-0.21875-1.4297zm15.867 4.2852c-3.3505 4.7074-6.033 8.7511-8.2891 12.904h1.7148c2.1232-3.5627 4.5868-7.1687 7.6055-11.361zm9.7188 0.0254-1.0469 1.5976c1.6968 2.2018 4.7191 6.3421 7.5762 11.281h1.6641c-2.8066-5.358-6.0304-9.977-8.1934-12.879zm-63.328 6.3574-1.7598 4.9609c0.29409 0.16805 0.59999 0.31011 0.9043 0.45312l0.85547-2.4141c2.3212 1.3162 4.8917 1.7083 7.5215 1.7617 3.2336 0 4.4785-0.98258 4.4785-2.8809 0-0.50586-0.13034-0.96454-0.44726-1.4102-0.60929 0.85236-1.8768 1.291-4.0313 1.291-2.6297-0.0534-5.2002-0.44556-7.5215-1.7617z" fill="#282828" opacity=".2"/>
  <path d="m171.95 53.258-67.863 14.366v73.657c-2.9471-1.3249-6.2908-2.023-9.6948-2.0242-10.709 0-19.39 6.7525-19.39 15.082 6e-4 8.3285 8.6814 15.08 19.39 15.08 10.708 0 19.389-6.7514 19.39-15.08v-64.555l48.474-10.388v49.574c-2.9471-1.3249-6.2908-2.023-9.6948-2.0242-10.708 0-19.389 6.7514-19.39 15.08-7.5e-4 8.3293 8.6804 15.082 19.39 15.082s19.39-6.7525 19.39-15.082v-64.706z" fill="#ebdbb2" opacity=".15" stroke-linecap="round" stroke-linejoin="round" stroke-miterlimit="0" stroke-width="16.824" style="paint-order:markers fill stroke"/>
  <path d="m171.95 48.258-67.863 14.366v73.657c-2.9471-1.3249-6.2908-2.023-9.6948-2.0242-10.709 0-19.39 6.7525-19.39 15.082 6e-4 8.3285 8.6814 15.08 19.39 15.08 10.708 0 19.389-6.7514 19.39-15.08v-64.555l48.474-10.388v49.574c-2.9471-1.3249-6.2908-2.023-9.6948-2.0242-10.708 0-19.389 6.7514-19.39 15.08-7.5e-4 8.3293 8.6804 15.082 19.39 15.082s19.39-6.7525 19.39-15.082v-64.706z" fill="#427b58" stroke-linecap="round" stroke-linejoin="round" stroke-miterlimit="0" stroke-width="16.824" style="paint-order:markers fill stroke"/>
  <path d="m171.95 48.26-67.863 14.365v5l67.863-14.365zm-19.389 73.687c-10.708 0-19.39 6.7496-19.391 15.078-8e-5 0.85387 0.11382 1.6868 0.28906 2.502 1.534-7.1367 9.4903-12.58 19.102-12.58 3.404 1e-3 6.7462 0.69853 9.6934 2.0234v-5c-2.9471-1.3249-6.2894-2.0223-9.6934-2.0234zm-58.17 12.311c-10.709 0-19.389 6.7528-19.389 15.082 6e-5 0.85357 0.11382 1.6851 0.28906 2.5 1.5342-7.1364 9.4884-12.582 19.1-12.582 3.404 1e-3 6.7482 0.70048 9.6953 2.0254v-5c-2.9471-1.3249-6.2913-2.0243-9.6953-2.0254z" fill="#282828" opacity=".2" stroke-linecap="round" stroke-linejoin="round" stroke-miterlimit="0" stroke-width="16.824" style="paint-order:markers fill stroke"/>
  <path d="m57 15c-9.9393 0-17 7.0595-17 17v192c0 9.9393 7.0595 17 17 17h142c9.9405 0 17-7.0607 17-17v-144l-65-64.998zm4.0332 4.9902 89.967 2e-3 60 60.009v139.75c0 9.4999-6.6575 16.248-16.033 16.248h-133.93c-9.3757 0-16.033-6.7481-16.033-16.248v-183.51c0-9.501 6.6586-16.25 16.033-16.25z" fill="url(#linearGradient14-5)" style="paint-order:markers fill stroke"/>
  <path d="m151 15.002v52.914c0 9.6525 7.8639 17.084 17.518 17.084l47.482-1.34e-4v-5z" fill="#282828" opacity=".3" stroke-width="1.0833"/>
  <path d="m151 15v47.916c0 9.6525 7.8639 17.084 17.518 17.084l47.482-1.34e-4z" fill="url(#linearGradient7-6-0)" stroke-width="1.0833"/>
</svg>
