<svg width="256" height="256" version="1.1" viewBox="0 0 256 256" xmlns="http://www.w3.org/2000/svg">
  <defs>
    <linearGradient id="linearGradient26-24" x1="-160" x2="-160" y2="226" gradientTransform="translate(267 15.001)" gradientUnits="userSpaceOnUse">
      <stop stop-color="#fabd2f" offset="0"/>
      <stop stop-color="#fabd2f" offset="1"/>
    </linearGradient>
    <linearGradient id="linearGradient7-6-0-2" x1="186" x2="156" y1="45.006" y2="75.012" gradientTransform="matrix(1.0833,0,0,1.0833,-18,-1.2482)" gradientUnits="userSpaceOnUse">
      <stop stop-color="#fabd2f" offset="0"/>
      <stop stop-color="#d79921" offset=".3027"/>
      <stop stop-color="#b57614" offset="1"/>
    </linearGradient>
    <linearGradient id="linearGradient14-5-9" x1="128" x2="128" y1="15.001" y2="241" gradientTransform="translate(-.001 .00148)" gradientUnits="userSpaceOnUse">
      <stop stop-color="#ebdbb2" stop-opacity=".4" offset="0"/>
      <stop stop-color="#ebdbb2" stop-opacity=".2" offset=".2"/>
      <stop stop-opacity="0" offset=".70405"/>
      <stop stop-opacity=".05" offset=".80473"/>
      <stop stop-opacity=".1" offset="1"/>
    </linearGradient>
  </defs>
  <path d="m56.999 15.001c-9.9393 0-17 7.0595-17 17v192c0 9.9393 7.0595 17 17 17h142c9.9405 0 17-7.0607 17-17v-144l-64.999-64.999z" fill="url(#linearGradient26-24)" stroke-linecap="round" stroke-linejoin="round" stroke-miterlimit="0" style="paint-order:markers fill stroke"/>
  <path d="m56.999 241c-9.9393 0-17-7.0595-17-17v-43h176v43c0 9.9405-7.0607 17-17 17z" fill="#b57614" opacity=".3" stroke-linecap="round" stroke-linejoin="round" stroke-miterlimit="0" style="paint-order:markers fill stroke"/>
  <path d="m98.94 199.68c12.379 0 12.84 6.5014 12.84 9.32 0 3.3294-0.85048 9.44-12.96 9.44h-1.96v9.28h-6.24v-27.32c3.0028-0.58878 6.4467-0.72 8.32-0.72zm0.4 5.32c-0.95141 0-1.8488 0.0674-2.48 0.12v8h1.96c5.6666 0 6.52-1.933 6.52-4.16 0-2.7192-1.8321-3.96-6-3.96zm35.56 17.36v5.36h-18.52v-27.72h6.24v22.36zm23.8 5.36c-0.64332-2.0121-1.3562-4.0012-2.04-6h-10.8c-0.7104 1.9905-1.4118 3.9818-2.04 6h-6.48c4.213-12.099 7.5904-20.624 11.04-27.72h5.96c4.147 8.782 7.4312 17.356 11.04 27.72zm-7.48-21.44c-0.71608 2.1482-1.6498 4.0952-3.92 10.48h7.88c-0.0731-0.20573-1.8629-5.2373-3.96-10.48z" fill="#ebdbb2" opacity=".2" aria-label="PLA"/>
  <path d="m98.94 196.68c12.379 0 12.84 6.5014 12.84 9.32 0 3.3294-0.85048 9.44-12.96 9.44h-1.96v9.28h-6.24v-27.32c3.0028-0.58878 6.4467-0.72 8.32-0.72zm0.4 5.32c-0.95141 0-1.8488 0.0674-2.48 0.12v8h1.96c5.6666 0 6.52-1.933 6.52-4.16 0-2.7192-1.8321-3.96-6-3.96zm35.56 17.36v5.36h-18.52v-27.72h6.24v22.36zm23.8 5.36c-0.64332-2.0121-1.3562-4.0012-2.04-6h-10.8c-0.7104 1.9905-1.4118 3.9818-2.04 6h-6.48c4.213-12.099 7.5904-20.624 11.04-27.72h5.96c4.147 8.782 7.4312 17.356 11.04 27.72zm-7.48-21.44c-0.71608 2.1482-1.6498 4.0952-3.92 10.48h7.88c-0.0731-0.20573-1.8629-5.2373-3.96-10.48z" fill="#b57614" aria-label="PLA"/>
  <path d="m98.939 196.68c-1.8733 0-5.3175 0.13192-8.3203 0.7207v3c3.0028-0.58878 6.447-0.7207 8.3203-0.7207 10.506 0 12.423 4.6783 12.764 7.8184 0.0581-0.53526 0.0762-1.0438 0.0762-1.498 0-2.8186-0.46101-9.3203-12.84-9.3203zm17.441 0.32031v3h6.2383v-3zm32 0c-3.4496 7.0962-6.828 15.622-11.041 27.721h1.0586c3.727-10.516 6.8286-18.233 9.9824-24.721h5.959c3.7306 7.9001 6.7722 15.703 9.9707 24.721h1.0703c-3.6088-10.364-6.894-18.939-11.041-27.721zm-43.26 10.531c-0.49967 1.4918-2.0347 2.5879-6.3008 2.5879h-1.9609v3h1.9609c5.6666 0 6.5195-1.9312 6.5195-4.1582 0-0.53289-0.0742-1.0086-0.21875-1.4297zm43.273 6.2285c-0.33717 0.91086-0.67118 1.8115-1.0938 3h7.8789c-0.0327-0.0921-0.4978-1.3886-1.0918-3zm-25.775 5.5996v3h12.281v-3z" fill="#282828" opacity=".2"/>
  <path d="m95 42.658v80.342s36.434-14.946 71-40.17c-34.566-25.224-71-40.172-71-40.172zm-20 95.342v10h10v-10zm20 0v10h86v-10zm-20 20v10h10v-10zm20 0v10h86v-10z" fill="#ebdbb2" opacity=".3" style="paint-order:markers fill stroke"/>
  <path d="m95 39.658v80.342s36.434-14.946 71-40.17c-34.566-25.224-71-40.172-71-40.172zm-20 95.342v10h10v-10h-10zm20 0v10h86v-10h-86zm-20 20v10h10v-10h-10zm20 0v10h86v-10h-86z" fill="#b57614" style="paint-order:markers fill stroke"/>
  <path d="m95 39.658v3s34.965 14.373 68.887 38.672c0.70434-0.50455 1.4102-0.98692 2.1133-1.5-34.566-25.224-71-40.172-71-40.172zm-20 95.342v3h10v-3zm20 0v3h86v-3zm-20 20v3h10v-3zm20 0v3h86v-3z" fill="#282828" opacity=".2" style="paint-order:markers fill stroke"/>
  <path d="m56.999 15.001c-9.9393 0-17 7.0595-17 17v192c0 9.9393 7.0595 17 17 17h142c9.9405 0 17-7.0607 17-17v-144l-65-64.998zm4.0332 4.9902 89.967 2e-3 60 60.009v139.75c0 9.4999-6.6575 16.248-16.033 16.248h-133.93c-9.3757 0-16.033-6.7481-16.033-16.248v-183.51c0-9.501 6.6586-16.25 16.033-16.25z" fill="url(#linearGradient14-5-9)" style="paint-order:markers fill stroke"/>
  <path d="m151 15.002v52.914c0 9.6525 7.8639 17.084 17.518 17.084l47.482-1.34e-4v-5z" fill="#282828" opacity=".3" stroke-width="1.0833"/>
  <path d="m151 15.003v47.916c0 9.6525 7.8639 17.084 17.518 17.084l47.482-1.34e-4z" fill="url(#linearGradient7-6-0-2)" stroke-width="1.0833"/>
</svg>
