<svg width="256" height="256" version="1.1" viewBox="0 0 256 256" xmlns="http://www.w3.org/2000/svg">
  <defs>
    <linearGradient id="linearGradient14-5" x1="128" x2="128" y1="15.001" y2="241" gradientTransform="translate(0,4.8e-4)" gradientUnits="userSpaceOnUse">
      <stop stop-color="#ebdbb2" stop-opacity=".15" offset="0"/>
      <stop stop-color="#ebdbb2" stop-opacity=".05" offset=".2"/>
      <stop stop-opacity="0" offset=".70405"/>
      <stop stop-opacity=".05" offset=".80473"/>
      <stop stop-opacity=".1" offset="1"/>
    </linearGradient>
    <linearGradient id="linearGradient7-6-0" x1="186" x2="156" y1="45.006" y2="75.012" gradientTransform="matrix(1.0833 0 0 1.0833 -17.999 -1.2512)" gradientUnits="userSpaceOnUse">
      <stop stop-color="#fe8019" offset="0"/>
      <stop stop-color="#d65d0e" offset=".3027"/>
      <stop stop-color="#af3a03" offset="1"/>
    </linearGradient>
    <linearGradient id="linearGradient21" x1="127.47" x2="127.47" y1="15.001" y2="241" gradientUnits="userSpaceOnUse">
      <stop stop-color="#af3a03" offset="0"/>
      <stop stop-color="#fe8019" offset="1"/>
    </linearGradient>
  </defs>
  <path d="m57 15c-9.9393 0-17 7.0595-17 17v149h176v-101l-64.998-64.998-94.002-0.001953z" fill="url(#linearGradient21)" style="paint-order:markers fill stroke"/>
  <path d="m57 241c-9.9393 0-17-7.0595-17-17v-43h176v43c0 9.9405-7.0607 17-17 17z" fill="#fe8019" stroke-linecap="round" stroke-linejoin="round" stroke-miterlimit="0" style="paint-order:markers fill stroke"/>
  <path d="m138.24 227.72c-0.64332-2.0121-1.3562-4.0012-2.04-6h-10.8c-0.7104 1.9905-1.4118 3.9818-2.04 6h-6.48c4.213-12.099 7.5904-20.624 11.04-27.72h5.96c4.147 8.782 7.4312 17.356 11.04 27.72zm-7.48-21.44c-0.71616 2.1485-1.6496 4.0945-3.92 10.48h7.88c-0.0732-0.20573-1.8629-5.2373-3.96-10.48zm29.4 22c-11.917 0-13.84-8.7761-13.84-14.44 0-8.7097 5.577-14.48 14.16-14.48 4.9861 0 8.1256 1.8485 8.56 2.12l-1.8 5.04c-1.62-0.86062-3.9004-1.64-6.84-1.64-1.6567 0-7.6 0.57595-7.6 8.84 0 7.3771 4.1646 9.04 7.92 9.04 2.4702 0.084 4.7798-0.55372 7-1.56l1.72 5c-3.204 1.9418-7.9741 2.08-9.28 2.08zm-52.24-0.55938c-0.64332-2.0121-1.3562-4.0012-2.04-6h-10.8c-0.7104 1.9905-1.4118 3.9818-2.04 6h-6.48c4.213-12.099 7.5904-20.624 11.04-27.72h5.96c4.147 8.782 7.4312 17.356 11.04 27.72zm-7.48-21.44c-0.71617 2.1485-1.6496 4.0945-3.92 10.48h7.88c-0.0732-0.20573-1.8629-5.2373-3.96-10.48z" fill="#ebdbb2" opacity=".15" aria-label="ACC"/>
  <path d="m138.24 224.72c-0.64332-2.0121-1.3562-4.0012-2.04-6h-10.8c-0.7104 1.9905-1.4118 3.9818-2.04 6h-6.48c4.213-12.099 7.5904-20.624 11.04-27.72h5.96c4.147 8.782 7.4312 17.356 11.04 27.72zm-7.48-21.44c-0.71616 2.1485-1.6496 4.0945-3.92 10.48h7.88c-0.0732-0.20573-1.8629-5.2373-3.96-10.48zm29.4 22c-11.917 0-13.84-8.7761-13.84-14.44 0-8.7097 5.577-14.48 14.16-14.48 4.9861 0 8.1256 1.8485 8.56 2.12l-1.8 5.04c-1.62-0.86062-3.9004-1.64-6.84-1.64-1.6567 0-7.6 0.57595-7.6 8.84 0 7.3771 4.1646 9.04 7.92 9.04 2.4702 0.084 4.7798-0.55372 7-1.56l1.72 5c-3.204 1.9418-7.9741 2.08-9.28 2.08zm-52.24-0.55938c-0.64332-2.0121-1.3562-4.0012-2.04-6h-10.8c-0.7104 1.9905-1.4118 3.9818-2.04 6h-6.48c4.213-12.099 7.5904-20.624 11.04-27.72h5.96c4.147 8.782 7.4312 17.356 11.04 27.72zm-7.48-21.44c-0.71616 2.1485-1.6496 4.0945-3.92 10.48h7.88c-0.0732-0.20573-1.8629-5.2373-3.96-10.48z" fill="#d65d0e" aria-label="ACC"/>
  <path d="m160.48 196.36c-8.583 0-14.16 5.7688-14.16 14.479 0 0.50098 0.021 1.0328 0.0566 1.5742 0.57987-7.906 5.9992-13.055 14.104-13.055 3.6747 0 6.3351 1.0038 7.6602 1.6406l0.9004-2.5195c-0.4344-0.2715-3.5744-2.1191-8.5606-2.1191zm-32.561 0.63867c-3.4496 7.096-6.8261 15.622-11.039 27.721h1.0723c3.7097-10.46 6.8238-18.255 9.9668-24.721h5.9609c3.7306 7.9001 6.7702 15.703 9.9688 24.721h1.0703c-3.6088-10.364-6.8921-18.939-11.039-27.721zm-30.32 2e-3c-3.4496 7.096-6.8261 15.62-11.039 27.719h1.0723c3.7097-10.46 6.8238-18.256 9.9668-24.721h5.9609c3.7306 7.9001 6.7702 15.703 9.9688 24.721h1.0703c-3.6088-10.364-6.8921-18.937-11.039-27.719zm55.271 15.234c-0.0455 0.46546-0.0703 0.95848-0.0703 1.4844 0 7.3771 4.1645 9.0391 7.9199 9.0391 2.4702 0.084 4.7798-0.55427 7-1.5606l0.84766 2.4648c0.29935-0.1428 0.59217-0.29384 0.87109-0.46289l-1.7188-5c-2.2202 1.0063-4.5298 1.6426-7 1.5586-3.4814 0-7.3088-1.4377-7.8496-7.5234zm-24.936 1.5234c-0.33721 0.91093-0.67307 1.8113-1.0957 3h7.8809c-0.0327-0.0921-0.49781-1.3886-1.0918-3zm-30.322 2e-3c-0.337 0.91041-0.67144 1.8103-1.0937 2.998h7.8809c-0.0328-0.0921-0.49787-1.3868-1.0918-2.998z" fill="#282828" opacity=".2"/>
  <path d="m171.95 53.258-67.863 14.366v73.657c-2.9471-1.3249-6.2908-2.023-9.6948-2.0242-10.709 0-19.39 6.7525-19.39 15.082 6e-4 8.3285 8.6814 15.08 19.39 15.08 10.708 0 19.389-6.7514 19.39-15.08v-64.555l48.474-10.388v49.574c-2.9471-1.3249-6.2908-2.023-9.6948-2.0242-10.708 0-19.389 6.7514-19.39 15.08-7.5e-4 8.3293 8.6804 15.082 19.39 15.082s19.39-6.7525 19.39-15.082v-64.706z" fill="#282828" opacity=".15" stroke-linecap="round" stroke-linejoin="round" stroke-miterlimit="0" stroke-width="16.824" style="paint-order:markers fill stroke"/>
  <path d="m171.95 48.258-67.863 14.366v73.657c-2.9471-1.3249-6.2908-2.023-9.6948-2.0242-10.709 0-19.39 6.7525-19.39 15.082 6e-4 8.3285 8.6814 15.08 19.39 15.08 10.708 0 19.389-6.7514 19.39-15.08v-64.555l48.474-10.388v49.574c-2.9471-1.3249-6.2908-2.023-9.6948-2.0242-10.708 0-19.389 6.7514-19.39 15.08-7.5e-4 8.3293 8.6804 15.082 19.39 15.082s19.39-6.7525 19.39-15.082v-64.706z" fill="#fe8019" stroke-linecap="round" stroke-linejoin="round" stroke-miterlimit="0" stroke-width="16.824" style="paint-order:markers fill stroke"/>
  <path d="m171.95 48.26-67.863 14.365v5l67.863-14.365zm-19.389 73.687c-10.708 0-19.39 6.7496-19.391 15.078-8e-5 0.85387 0.11382 1.6868 0.28906 2.502 1.534-7.1367 9.4903-12.58 19.102-12.58 3.404 1e-3 6.7462 0.69853 9.6934 2.0234v-5c-2.9471-1.3249-6.2894-2.0223-9.6934-2.0234zm-58.17 12.311c-10.709 0-19.389 6.7528-19.389 15.082 6e-5 0.85357 0.11382 1.6851 0.28906 2.5 1.5342-7.1364 9.4884-12.582 19.1-12.582 3.404 1e-3 6.7482 0.70048 9.6953 2.0254v-5c-2.9471-1.3249-6.2913-2.0243-9.6953-2.0254z" fill="#ebdbb2" opacity=".2" stroke-linecap="round" stroke-linejoin="round" stroke-miterlimit="0" stroke-width="16.824" style="paint-order:markers fill stroke"/>
  <path d="m57 15c-9.9393 0-17 7.0595-17 17v192c0 9.9393 7.0595 17 17 17h142c9.9405 0 17-7.0607 17-17v-144l-65-64.998zm4.0332 4.9902 89.967 2e-3 60 60.009v139.75c0 9.4999-6.6575 16.248-16.033 16.248h-133.93c-9.3757 0-16.033-6.7481-16.033-16.248v-183.51c0-9.501 6.6586-16.25 16.033-16.25z" fill="url(#linearGradient14-5)" style="paint-order:markers fill stroke"/>
  <path d="m151 15.002v52.914c0 9.6525 7.8639 17.084 17.518 17.084h47.482v-5.0001z" fill="#282828" opacity=".3" stroke-width="1.0833"/>
  <path d="m151 15v47.916c0 9.6525 7.8639 17.084 17.518 17.084l47.482-1.34e-4z" fill="url(#linearGradient7-6-0)" stroke-width="1.0833"/>
</svg>
