<svg width="256" height="256" version="1.1" viewBox="0 0 256 256" xmlns="http://www.w3.org/2000/svg">
  <defs>
    <linearGradient id="linearGradient26" x1="-160" x2="-160" y2="226" gradientTransform="translate(267,15)" gradientUnits="userSpaceOnUse">
      <stop stop-color="#fabd2f" offset="0"/>
      <stop stop-color="#b57614" offset="1"/>
    </linearGradient>
    <linearGradient id="linearGradient14-5" x1="128" x2="128" y1="15.001" y2="241" gradientTransform="translate(0,4.8e-4)" gradientUnits="userSpaceOnUse">
      <stop stop-color="#ebdbb2" stop-opacity=".4" offset="0"/>
      <stop stop-color="#ebdbb2" stop-opacity=".2" offset=".2"/>
      <stop stop-opacity="0" offset=".70405"/>
      <stop stop-opacity=".05" offset=".80473"/>
      <stop stop-opacity=".1" offset="1"/>
    </linearGradient>
    <linearGradient id="linearGradient7-6-0" x1="186" x2="156" y1="45.006" y2="75.012" gradientTransform="matrix(1.0833 0 0 1.0833 -17.999 -1.2512)" gradientUnits="userSpaceOnUse">
      <stop stop-color="#fabd2f" offset="0"/>
      <stop stop-color="#d79921" offset=".3027"/>
      <stop stop-color="#b57614" offset="1"/>
    </linearGradient>
  </defs>
  <path d="m57 15c-9.9393 0-17 7.0595-17 17v192c0 9.9393 7.0595 17 17 17h142c9.9405 0 17-7.0607 17-17v-144l-64.999-64.999z" fill="url(#linearGradient26)" stroke-linecap="round" stroke-linejoin="round" stroke-miterlimit="0" style="paint-order:markers fill stroke"/>
  <path d="m57 241c-9.9393 0-17-7.0595-17-17v-43h176v43c0 9.9405-7.0607 17-17 17z" fill="#fabd2f" opacity=".5" stroke-linecap="round" stroke-linejoin="round" stroke-miterlimit="0" style="paint-order:markers fill stroke"/>
  <path d="m98.28 222.96c3.4188 0 4.48-1.1238 4.48-2.88 0-1.5331-1.0263-2.6488-5.68-4.2-3.9126-1.3809-7.4128-3.0674-7.6-8.2 0-5.1508 4.0386-8.32 10.2-8.32 3.7211 0 6.4107 0.94404 8.2 1.92l-1.8 4.92c-1.873-0.99727-3.8907-1.4678-6-1.52-2.9192 0-4.2 0.79832-4.2 2.52 0.19285 2.3426 2.9057 3.0323 4.8 3.68 5.7866 2.1432 8.52 3.9386 8.52 9.24 0 6.7588-5.9696 8.16-10.92 8.16-2.0764 0-6.0493-0.27394-9.28-2.12l1.76-4.96c2.3212 1.3162 4.8902 1.7066 7.52 1.76zm21.64 5.36c-3.6112 0-7.203-1.1552-8.08-1.56l1.16-4.96c3.2193 1.362 4.9078 1.44 6.68 1.44 2.3361 0 5.32-0.62855 5.32-3.84 0-3.6479-4.2736-3.84-5.96-3.84h-2.32v-4.8h2.64c2.1778 0 4.56-0.63248 4.56-3.4 0-2.2852-2.2858-2.96-3.64-2.96-2.1256-0.04-4.0401 0.74567-5.84 1.8l-2.12-4.36c1.7538-1.0961 4.6544-2.48 8.12-2.48 6.5513 0 9.44 3.4112 9.44 7.8 0 1.9373-1.063 4.3215-3.4 5.52 2.456 1.0006 4.52 3.1917 4.52 6.8 0 7.7754-7.1596 8.84-11.08 8.84zm24.16-28.32c2.8077 5.364 5.1623 10.948 7.52 16.52 2.3568-5.5724 4.6676-11.178 7.52-16.52h5.68c1.2019 9.1934 1.7322 18.464 2.2 27.72h-6.08c-0.20884-7.031-0.45109-12.726-0.92-18.4-2.1377 4.9524-4.2446 9.9181-6.36 14.88h-4.36c-0.39592-0.90721-4.0551-9.5019-6.36-14.88-0.46891 5.6738-0.71116 11.369-0.92 18.4h-6.08c0.61672-12.642 1.2396-21.093 2.2-27.72z" fill="#ebdbb2" opacity=".2" aria-label="S3M"/>
  <path d="m98.28 219.96c3.4188 0 4.48-1.1238 4.48-2.88 0-1.5331-1.0263-2.6488-5.68-4.2-3.9126-1.3809-7.4128-3.0674-7.6-8.2 0-5.1508 4.0386-8.32 10.2-8.32 3.7211 0 6.4107 0.94404 8.2 1.92l-1.8 4.92c-1.873-0.99727-3.8907-1.4678-6-1.52-2.9192 0-4.2 0.79832-4.2 2.52 0.19285 2.3426 2.9057 3.0323 4.8 3.68 5.7866 2.1432 8.52 3.9386 8.52 9.24 0 6.7588-5.9696 8.16-10.92 8.16-2.0764 0-6.0493-0.27394-9.28-2.12l1.76-4.96c2.3212 1.3162 4.8902 1.7066 7.52 1.76zm21.64 5.36c-3.6112 0-7.203-1.1552-8.08-1.56l1.16-4.96c3.2193 1.362 4.9078 1.44 6.68 1.44 2.3361 0 5.32-0.62855 5.32-3.84 0-3.6479-4.2736-3.84-5.96-3.84h-2.32v-4.8h2.64c2.1778 0 4.56-0.63248 4.56-3.4 0-2.2852-2.2858-2.96-3.64-2.96-2.1256-0.04-4.0401 0.74567-5.84 1.8l-2.12-4.36c1.7538-1.0961 4.6544-2.48 8.12-2.48 6.5513 0 9.44 3.4112 9.44 7.8 0 1.9373-1.063 4.3215-3.4 5.52 2.456 1.0006 4.52 3.1917 4.52 6.8 0 7.7754-7.1596 8.84-11.08 8.84zm24.16-28.32c2.8077 5.364 5.1623 10.948 7.52 16.52 2.3568-5.5724 4.6676-11.178 7.52-16.52h5.68c1.2019 9.1934 1.7322 18.464 2.2 27.72h-6.08c-0.20884-7.031-0.45109-12.726-0.92-18.4-2.1377 4.9524-4.2446 9.9181-6.36 14.88h-4.36c-0.39592-0.90721-4.0551-9.5019-6.36-14.88-0.46891 5.6738-0.71116 11.369-0.92 18.4h-6.08c0.61672-12.642 1.2396-21.093 2.2-27.72z" fill="#b57614" aria-label="S3M"/>
  <path d="m99.68 196.36c-6.1614 0-10.199 3.1696-10.199 8.3203 0.0181 0.49492 0.0753 0.94916 0.15234 1.3828 0.76849-4.1857 4.5616-6.7031 10.047-6.7031 3.13 0 5.5211 0.67181 7.2695 1.4648l0.93164-2.5449c-1.7893-0.97596-4.4801-1.9199-8.2012-1.9199zm20.76 0c-3.4656 0-6.3653 1.3843-8.1191 2.4805l1.1426 2.3496c1.7558-0.92562 4.175-1.8301 6.9766-1.8301 5.6772 0 8.5994 2.5639 9.2793 6.1035 0.1013-0.44367 0.16211-0.88431 0.16211-1.3027 0-4.3888-2.8901-7.8008-9.4414-7.8008zm17.68 0.64062c-0.9604 6.6267-1.5825 15.078-2.1992 27.721h0.16016c0.56696-10.915 1.1611-18.663 2.0391-24.721h5.9609c2.8077 5.364 5.1618 10.948 7.5195 16.52 2.3568-5.5724 4.6672-11.177 7.5195-16.52h5.6816c1.0721 8.2003 1.6034 16.463 2.0391 24.721h0.16016c-0.46782-9.2559-0.99733-18.527-2.1992-27.721h-5.6816c-2.8524 5.3425-5.1628 10.947-7.5195 16.52-2.3577-5.5719-4.7119-11.156-7.5195-16.52zm-41.686 8.6543c-0.37438 0.39163-0.55273 0.90321-0.55273 1.5449 0.19285 2.3426 2.9046 3.034 4.7988 3.6816 5.1583 1.9105 7.8835 3.551 8.416 7.6387 0.0619-0.44113 0.10352-0.90274 0.10352-1.4004 0-5.3014-2.733-7.0951-8.5195-9.2383-1.4272-0.48799-3.3174-1.0018-4.2461-2.2266zm27.125 0.3125c-0.74532 1.418-2.5308 1.793-4.1992 1.793h-2.6387v3h2.6387c2.1778 0 4.5605-0.63288 4.5605-3.4004 0-0.55568-0.13728-1.0139-0.36133-1.3926zm4.998 4.9785c-0.52641 0.68479-1.2121 1.2913-2.0762 1.7344 2.1193 0.86342 3.9431 2.6164 4.4043 5.3984 0.0727-0.49948 0.11523-1.0285 0.11523-1.5976 0-2.5099-1.0087-4.3204-2.4434-5.5352zm-3.8496 7.0039c-0.80641 1.876-3.1301 2.291-5.0273 2.291-1.7722 0-3.4604-0.0774-6.6797-1.4394l-1.1602 4.959c0.12602 0.0581 0.41637 0.15478 0.64649 0.23828l0.51367-2.1973c3.2193 1.362 4.9075 1.4394 6.6797 1.4394 2.3361 0 5.3203-0.62839 5.3203-3.8398 0-0.56556-0.11309-1.0396-0.29297-1.4512zm-33.947 0.25-1.7598 4.9609c0.29448 0.16827 0.59948 0.30999 0.9043 0.45312l0.85547-2.4141c2.3212 1.3162 4.8898 1.7083 7.5195 1.7617 3.4188 0 4.4805-1.1247 4.4805-2.8809 0-0.50871-0.1321-0.97001-0.45313-1.418-0.58507 0.81681-1.8019 1.2988-4.0273 1.2988-2.6298-0.0534-5.1983-0.44556-7.5195-1.7617z" fill="#282828" opacity=".2"/>
  <path d="m171.95 53.258-67.863 14.366v73.657c-2.9471-1.3249-6.2908-2.023-9.6948-2.0242-10.709 0-19.39 6.7525-19.39 15.082 6e-4 8.3285 8.6814 15.08 19.39 15.08 10.708 0 19.389-6.7514 19.39-15.08v-64.555l48.474-10.388v49.574c-2.9471-1.3249-6.2908-2.023-9.6948-2.0242-10.708 0-19.389 6.7514-19.39 15.08-7.5e-4 8.3293 8.6804 15.082 19.39 15.082s19.39-6.7525 19.39-15.082v-64.706z" fill="#ebdbb2" opacity=".1" stroke-linecap="round" stroke-linejoin="round" stroke-miterlimit="0" stroke-width="16.824" style="paint-order:markers fill stroke"/>
  <path d="m171.95 48.258-67.863 14.366v73.657c-2.9471-1.3249-6.2908-2.023-9.6948-2.0242-10.709 0-19.39 6.7525-19.39 15.082 6e-4 8.3285 8.6814 15.08 19.39 15.08 10.708 0 19.389-6.7514 19.39-15.08v-64.555l48.474-10.388v49.574c-2.9471-1.3249-6.2908-2.023-9.6948-2.0242-10.708 0-19.389 6.7514-19.39 15.08-7.5e-4 8.3293 8.6804 15.082 19.39 15.082s19.39-6.7525 19.39-15.082v-64.706z" fill="#b57614" stroke-linecap="round" stroke-linejoin="round" stroke-miterlimit="0" stroke-width="16.824" style="paint-order:markers fill stroke"/>
  <path d="m171.95 48.26-67.863 14.365v5l67.863-14.365zm-19.389 73.687c-10.708 0-19.39 6.7496-19.391 15.078-8e-5 0.85387 0.11382 1.6868 0.28906 2.502 1.534-7.1367 9.4903-12.58 19.102-12.58 3.404 1e-3 6.7462 0.69853 9.6934 2.0234v-5c-2.9471-1.3249-6.2894-2.0223-9.6934-2.0234zm-58.17 12.311c-10.709 0-19.389 6.7528-19.389 15.082 6e-5 0.85357 0.11382 1.6851 0.28906 2.5 1.5342-7.1364 9.4884-12.582 19.1-12.582 3.404 1e-3 6.7482 0.70048 9.6953 2.0254v-5c-2.9471-1.3249-6.2913-2.0243-9.6953-2.0254z" fill="#282828" opacity=".2" stroke-linecap="round" stroke-linejoin="round" stroke-miterlimit="0" stroke-width="16.824" style="paint-order:markers fill stroke"/>
  <path d="m57 15c-9.9393 0-17 7.0595-17 17v192c0 9.9393 7.0595 17 17 17h142c9.9405 0 17-7.0607 17-17v-144l-65-64.998zm4.0332 4.9902 89.967 2e-3 60 60.009v139.75c0 9.4999-6.6575 16.248-16.033 16.248h-133.93c-9.3757 0-16.033-6.7481-16.033-16.248v-183.51c0-9.501 6.6586-16.25 16.033-16.25z" fill="url(#linearGradient14-5)" style="paint-order:markers fill stroke"/>
  <path d="m151 15.002v52.914c0 9.6525 7.8639 17.084 17.518 17.084l47.482-1.34e-4v-5z" fill="#282828" opacity=".3" stroke-width="1.0833"/>
  <path d="m151 15v47.916c0 9.6525 7.8639 17.084 17.518 17.084l47.482-1.34e-4z" fill="url(#linearGradient7-6-0)" stroke-width="1.0833"/>
</svg>
