<svg width="256" height="256" version="1.1" viewBox="0 0 256 256" xmlns="http://www.w3.org/2000/svg">
  <defs>
    <linearGradient id="linearGradient26" x1="-160" x2="-160" y2="226" gradientTransform="translate(267,15)" gradientUnits="userSpaceOnUse">
      <stop stop-color="#9d0006" offset="0"/>
      <stop stop-color="#cc241d" offset="1"/>
    </linearGradient>
    <linearGradient id="linearGradient14-5" x1="128" x2="128" y1="15.001" y2="241" gradientTransform="translate(0,4.8e-4)" gradientUnits="userSpaceOnUse">
      <stop stop-color="#ebdbb2" stop-opacity=".2" offset="0"/>
      <stop stop-color="#ebdbb2" stop-opacity=".1" offset=".2"/>
      <stop stop-opacity="0" offset=".70405"/>
      <stop stop-opacity=".05" offset=".80473"/>
      <stop stop-opacity=".1" offset="1"/>
    </linearGradient>
    <linearGradient id="linearGradient7-6-0" x1="186" x2="156" y1="45.006" y2="75.012" gradientTransform="matrix(1.0833 0 0 1.0833 -17.999 -1.2512)" gradientUnits="userSpaceOnUse">
      <stop stop-color="#fb4934" offset="0"/>
      <stop stop-color="#cc241d" offset=".3027"/>
      <stop stop-color="#9d0006" offset="1"/>
    </linearGradient>
  </defs>
  <path d="m57 15c-9.9393 0-17 7.0595-17 17v192c0 9.9393 7.0595 17 17 17h142c9.9405 0 17-7.0607 17-17v-144l-64.999-64.999z" fill="url(#linearGradient26)" stroke-linecap="round" stroke-linejoin="round" stroke-miterlimit="0" style="paint-order:markers fill stroke"/>
  <path d="m57 241c-9.9393 0-17-7.0595-17-17v-43h176v43c0 9.9405-7.0607 17-17 17z" fill="#fb4934" opacity=".5" stroke-linecap="round" stroke-linejoin="round" stroke-miterlimit="0" style="paint-order:markers fill stroke"/>
  <path d="m95.7 199.68c7.1485 0 12.88 2.1678 12.88 9.12 0 2.1895-0.48892 5.6557-5.2 7.6 3.551 4.3964 6.5069 10.532 6.88 11.32h-7c-4.0059-7.1684-5.2517-8.79-6.36-10.12h-3.08v10.12h-6.24v-27.32c3.1191-0.6116 6.3871-0.72 8.12-0.72zm0.36 5.32c-0.74882-0.01-1.4946 0.0599-2.24 0.12v7.52h1.76c4.8398 0 6.56-1.1781 6.56-3.88 0-1.4407-0.45697-3.76-6.08-3.76zm18.2-5h6.24v27.72h-6.24zm12.64 27.72v-27.72h18.56v5.24h-12.32v5.8h10.96v5.24h-10.96v11.44zm22.96 0v-27.72h18.56v5.24h-12.32v5.8h10.96v5.24h-10.96v11.44z" fill="#ebdbb2" opacity=".15" aria-label="RIFF"/>
  <path d="m95.7 196.68c7.1485 0 12.88 2.1678 12.88 9.12 0 2.1895-0.48892 5.6557-5.2 7.6 3.551 4.3964 6.5069 10.532 6.88 11.32h-7c-4.0059-7.1684-5.2517-8.79-6.36-10.12h-3.08v10.12h-6.24v-27.32c3.1191-0.6116 6.3871-0.72 8.12-0.72zm0.36 5.32c-0.74882-0.01-1.4946 0.0599-2.24 0.12v7.52h1.76c4.8398 0 6.56-1.1781 6.56-3.88 0-1.4407-0.45697-3.76-6.08-3.76zm18.2-5h6.24v27.72h-6.24zm12.64 27.72v-27.72h18.56v5.24h-12.32v5.8h10.96v5.24h-10.96v11.44zm22.96 0v-27.72h18.56v5.24h-12.32v5.8h10.96v5.24h-10.96v11.44z" fill="#9d0006" aria-label="RIFF"/>
  <path d="m95.699 196.68c-1.7329 0-5 0.1091-8.1191 0.7207v3c3.1191-0.6116 6.3862-0.7207 8.1191-0.7207 6.6038 0 11.988 1.8602 12.771 7.623 0.0745-0.53608 0.10938-1.05 0.10938-1.502 0-6.9522-5.7323-9.1211-12.881-9.1211zm18.561 0.32031v3h6.2402v-3zm12.641 0v3h18.561v-3zm22.959 0v3h18.561v-3zm-47.98 10.295c-0.63325 1.6158-2.5033 2.3457-6.2988 2.3457h-1.7598v3h1.7598c4.8398 0 6.5605-1.1789 6.5605-3.8808 0-0.43746-0.0456-0.9549-0.26171-1.4648zm31.262 0.74414v3h10.959v-3zm22.959 0v3h10.961v-3zm-51.105 7.541c-0.47437 0.29465-1.007 0.57011-1.6133 0.82031 2.1864 2.707 4.0608 5.9489 5.332 8.3203h1.5469c-0.31444-0.66383-2.4721-5.1221-5.2656-9.1406z" fill="#282828" opacity=".2"/>
  <path d="m171.95 53.258-67.863 14.366v73.657c-2.9471-1.3249-6.2908-2.023-9.6948-2.0242-10.709 0-19.39 6.7525-19.39 15.082 6e-4 8.3285 8.6814 15.08 19.39 15.08 10.708 0 19.389-6.7514 19.39-15.08v-64.555l48.474-10.388v49.574c-2.9471-1.3249-6.2908-2.023-9.6948-2.0242-10.708 0-19.389 6.7514-19.39 15.08-7.5e-4 8.3293 8.6804 15.082 19.39 15.082s19.39-6.7525 19.39-15.082v-64.706z" fill="#282828" opacity=".2" stroke-linecap="round" stroke-linejoin="round" stroke-miterlimit="0" stroke-width="16.824" style="paint-order:markers fill stroke"/>
  <path d="m171.95 48.258-67.863 14.366v73.657c-2.9471-1.3249-6.2908-2.023-9.6948-2.0242-10.709 0-19.39 6.7525-19.39 15.082 6e-4 8.3285 8.6814 15.08 19.39 15.08 10.708 0 19.389-6.7514 19.39-15.08v-64.555l48.474-10.388v49.574c-2.9471-1.3249-6.2908-2.023-9.6948-2.0242-10.708 0-19.389 6.7514-19.39 15.08-7.5e-4 8.3293 8.6804 15.082 19.39 15.082s19.39-6.7525 19.39-15.082v-64.706z" fill="#fb4934" stroke-linecap="round" stroke-linejoin="round" stroke-miterlimit="0" stroke-width="16.824" style="paint-order:markers fill stroke"/>
  <path d="m171.95 48.26-67.863 14.365v5l67.863-14.365zm-19.389 73.687c-10.708 0-19.39 6.7496-19.391 15.078-8e-5 0.85387 0.11382 1.6868 0.28906 2.502 1.534-7.1367 9.4903-12.58 19.102-12.58 3.404 1e-3 6.7462 0.69853 9.6934 2.0234v-5c-2.9471-1.3249-6.2894-2.0223-9.6934-2.0234zm-58.17 12.311c-10.709 0-19.389 6.7528-19.389 15.082 6e-5 0.85357 0.11382 1.6851 0.28906 2.5 1.5342-7.1364 9.4884-12.582 19.1-12.582 3.404 1e-3 6.7482 0.70048 9.6953 2.0254v-5c-2.9471-1.3249-6.2913-2.0243-9.6953-2.0254z" fill="#ebdbb2" opacity=".2" stroke-linecap="round" stroke-linejoin="round" stroke-miterlimit="0" stroke-width="16.824" style="paint-order:markers fill stroke"/>
  <path d="m57 15c-9.9393 0-17 7.0595-17 17v192c0 9.9393 7.0595 17 17 17h142c9.9405 0 17-7.0607 17-17v-144l-65-64.998zm4.0332 4.9902 89.967 2e-3 60 60.009v139.75c0 9.4999-6.6575 16.248-16.033 16.248h-133.93c-9.3757 0-16.033-6.7481-16.033-16.248v-183.51c0-9.501 6.6586-16.25 16.033-16.25z" fill="url(#linearGradient14-5)" style="paint-order:markers fill stroke"/>
  <path d="m151 15.002v52.914c0 9.6525 7.8639 17.084 17.518 17.084h47.482v-5.0001z" fill="#282828" opacity=".3" stroke-width="1.0833"/>
  <path d="m151 15v47.916c0 9.6525 7.8639 17.084 17.518 17.084l47.482-1.34e-4z" fill="url(#linearGradient7-6-0)" stroke-width="1.0833"/>
</svg>
