<svg width="256" height="256" version="1.1" viewBox="0 0 256 256" xmlns="http://www.w3.org/2000/svg">
  <defs>
    <linearGradient id="linearGradient26" x1="-160" x2="-160" y2="226" gradientTransform="translate(267,15)" gradientUnits="userSpaceOnUse">
      <stop stop-color="#689d6a" offset="0"/>
      <stop stop-color="#427b58" offset="1"/>
    </linearGradient>
    <linearGradient id="linearGradient14-5-0" x1="128" x2="128" y1="15.001" y2="241" gradientTransform="translate(0,4.8e-4)" gradientUnits="userSpaceOnUse">
      <stop stop-color="#ebdbb2" stop-opacity=".15" offset="0"/>
      <stop stop-color="#ebdbb2" stop-opacity=".1" offset=".2"/>
      <stop stop-opacity="0" offset=".70405"/>
      <stop stop-opacity=".05" offset=".80473"/>
      <stop stop-opacity=".1" offset="1"/>
    </linearGradient>
    <linearGradient id="linearGradient22" x1="1" x2="0" y1=".446" y2=".446" gradientTransform="matrix(76.539 0 0 7.6542 70.148 159.08)" gradientUnits="userSpaceOnUse">
      <stop stop-color="#8ec07c" offset="0"/>
      <stop stop-color="#427b58" offset="1"/>
    </linearGradient>
    <linearGradient id="linearGradient7-6-0-3" x1="186" x2="156" y1="45.006" y2="75.012" gradientTransform="matrix(1.0833,0,0,1.0833,-17.998,-1.2502)" gradientUnits="userSpaceOnUse">
      <stop stop-color="#8ec07c" offset="0"/>
      <stop stop-color="#689d6a" offset=".3027"/>
      <stop stop-color="#427b58" offset="1"/>
    </linearGradient>
  </defs>
  <path d="m57 15c-9.9393 0-17 7.0595-17 17v192c0 9.9393 7.0595 17 17 17h142c9.9405 0 17-7.0607 17-17v-144l-64.999-64.999z" fill="url(#linearGradient26)" stroke-linecap="round" stroke-linejoin="round" stroke-miterlimit="0" style="paint-order:markers fill stroke"/>
  <path d="m116.55 79.885c-4.506 9.3875-8.8247 18.901-12.955 28.54-4.1313 9.5128-8.3253 19.527-12.581 30.041-4.1304 10.515-8.3855 21.654-12.766 33.42-4.3811 11.642-9.0752 24.346-14.083 38.114h24.703l11.828-33.234 63.708-2.44c2.0023 5.633 4.0684 11.39 6.1965 17.274 2.1272 5.8828 4.3803 12.016 6.7581 18.4h14.083c-5.1325-13.518-9.8885-26.097-14.269-37.739-4.3803-11.766-8.6986-22.844-12.955-33.233-4.1304-10.515-8.2618-20.591-12.393-30.228-4.1304-9.6388-8.5107-19.277-13.142-28.916h-11.128zm16.124 14.647c4.7568 10.764 9.3883 21.715 13.895 32.855 4.507 11.14 9.137 23.156 13.894 36.049l-54.508-1.6895c3.8806-10.89 7.7612-21.404 11.642-31.542 3.1975-8.1961 6.5218-16.1 9.9594-23.737v-0.14559c1.6914-3.9524 3.3935-7.8878 5.118-11.791z" fill="#282828" opacity=".3" stroke-width=".82404" style="isolation:isolate"/>
  <path d="m116.55 74.885c-4.506 9.3875-8.8247 18.901-12.955 28.54-4.1313 9.5128-8.3253 19.527-12.581 30.041-4.1304 10.514-8.3855 21.654-12.766 33.42-4.3811 11.64-9.0752 24.346-14.083 38.114h24.703l11.828-33.234 63.708-2.44c2.0023 5.6322 4.0684 11.39 6.1965 17.273 2.1272 5.8837 4.3803 12.017 6.7581 18.401h14.083c-5.1325-13.518-9.8885-26.098-14.269-37.739-4.3803-11.766-8.6986-22.844-12.955-33.233-4.1304-10.515-8.2618-20.591-12.393-30.228-4.1304-9.6388-8.5107-19.277-13.142-28.916h-11.128zm16.124 14.646c4.7568 10.765 9.3883 21.716 13.895 32.856 4.507 11.14 9.137 23.156 13.894 36.049l-54.508-1.6895c3.8806-10.89 7.7612-21.404 11.642-31.543 3.1975-8.1952 6.5218-16.099 9.9594-23.737v-0.14648c1.6914-3.9515 3.3935-7.8878 5.118-11.791z" fill="#ebdbb2" stroke-width=".82404" style="isolation:isolate"/>
  <path d="m116.55 74.884c-4.506 9.3875-8.8247 18.902-12.955 28.541-4.1313 9.5128-8.3253 19.526-12.581 30.04-4.1304 10.514-8.3855 21.655-12.766 33.421-4.3811 11.64-9.0752 24.346-14.083 38.115h1.8686c4.2947-11.763 8.3953-22.87 12.214-33.016 4.3806-11.766 8.636-22.907 12.766-33.421 4.2562-10.515 8.4497-20.528 12.581-30.04 4.1301-9.6388 8.4481-19.153 12.955-28.541h22.133c4.6311 9.6388 9.0126 19.277 13.143 28.916 4.1309 9.6372 8.2627 19.714 12.393 30.229 4.2562 10.389 8.5742 21.466 12.955 33.232 3.7889 10.068 7.9916 21.168 12.343 32.641h1.9265c-5.1325-13.518-9.8885-26.098-14.269-37.739-4.3803-11.766-8.6986-22.845-12.955-33.234-4.1304-10.515-8.2618-20.592-12.393-30.229-4.1304-9.6388-8.5116-19.277-13.143-28.916h-11.128zm-8.767 81.918c-0.60947 1.6918-1.2189 3.3321-1.8284 5.0424l54.509 1.69c-0.65673-1.7799-1.2923-3.4119-1.9442-5.1583z" fill="#fbf1c7" opacity=".6" stroke-width=".82404" style="isolation:isolate"/>
  <path d="m74.875 155.69h107.15c6.3367 0 11.481 5.145 11.481 11.481 0 6.3367-5.1442 11.481-11.481 11.481h-107.15c-6.3367 0-11.481-5.1442-11.481-11.481 0-6.3358 5.1442-11.481 11.481-11.481z" fill="#282828" opacity=".3" stroke-width=".82404" style="isolation:isolate"/>
  <path d="m138.7 74.974-6.0069 14.642 2.535 5.7976c3.8671 8.8906 7.6553 17.903 11.354 27.048 4.505 11.139 9.1353 23.149 13.888 36.03l13.627 0.64049c-3.3264-8.7456-6.6168-17.095-9.872-25.035-4.1285-10.51-8.2577-20.58-12.388-30.218-4.1285-9.6298-8.5066-19.269-13.133-28.907zm25.713 94.361c2.0014 5.6296 4.0666 11.382 6.1937 17.265 2.1263 5.8811 4.3783 12.01 6.7552 18.397h14.076c-5.1302-13.51-14.265-37.72-14.265-37.72s-9.0266 1.4426-12.76 2.0571z" fill="#282828" opacity=".05" stroke-width=".89829" style="isolation:isolate"/>
  <path d="m73.976 151.43h107.15c6.3367 0 11.481 5.145 11.481 11.481 0 6.3367-5.1442 11.481-11.481 11.481h-107.15c-6.3367 0-11.481-5.1442-11.481-11.481 0-6.3358 5.1442-11.481 11.481-11.481z" fill="#ebdbb2" stroke-width=".82404" style="isolation:isolate"/>
  <path d="m73.975 151.43c-6.3364 0-11.481 5.1461-11.481 11.482 0 1.5905 0.32526 3.1046 0.91098 4.4823-0.0014-0.0747-0.01127-0.14713-0.01127-0.22211 0-6.3358 5.1438-11.482 11.481-11.482h107.15c4.7474 0 8.8238 2.8883 10.571 7.0011-0.11888-6.233-5.2067-11.261-11.469-11.261z" fill="#fbf1c7" opacity=".6" stroke-width=".82404" style="isolation:isolate"/>
  <path d="m112.25 159.08h68.884c2.1128 0 3.8275 1.7147 3.8275 3.8266 0 2.1128-1.7147 3.8275-3.8275 3.8275h-68.884c-2.1119 0-3.8275-1.7147-3.8275-3.8275 0-2.1119 1.7156-3.8266 3.8275-3.8266z" fill="#689d6a" opacity=".2" stroke-width=".82404" style="isolation:isolate"/>
  <path d="m73.976 159.08h68.884c2.112 0 3.8275 1.7147 3.8275 3.8266 0 2.1128-1.7156 3.8275-3.8275 3.8275h-68.884c-2.1128 0-3.8275-1.7147-3.8275-3.8275 0-2.1119 1.7147-3.8266 3.8275-3.8266z" fill="url(#linearGradient22)" stroke-width=".82404" style="isolation:isolate"/>
  <path d="m57 15c-9.9393 0-17 7.0595-17 17v192c0 9.9393 7.0595 17 17 17h142c9.9405 0 17-7.0607 17-17v-144l-65-64.998zm4.0332 4.9902 89.967 2e-3 60 60.009v139.75c0 9.4999-6.6575 16.248-16.033 16.248h-133.93c-9.3757 0-16.033-6.7481-16.033-16.248v-183.51c0-9.501 6.6586-16.25 16.033-16.25z" fill="url(#linearGradient14-5-0)" style="paint-order:markers fill stroke"/>
  <path d="m151 15.002v52.914c0 9.6525 7.8639 17.084 17.518 17.084h47.482v-5.0001z" fill="#282828" opacity=".3" stroke-width="1.0833"/>
  <path d="m151 15.001v47.916c0 9.6525 7.8639 17.084 17.518 17.084l47.482-1.34e-4z" fill="url(#linearGradient7-6-0-3)" stroke-width="1.0833"/>
</svg>
