<svg width="256" height="256" version="1.1" viewBox="0 0 256 256" xmlns="http://www.w3.org/2000/svg">
  <defs>
    <linearGradient id="linearGradient26" x1="-160" x2="-160" y2="226" gradientTransform="translate(267,15)" gradientUnits="userSpaceOnUse">
      <stop stop-color="#fb4934" offset="0"/>
      <stop stop-color="#fb4934" offset="1"/>
    </linearGradient>
    <linearGradient id="linearGradient7-6-0" x1="186" x2="156" y1="45.006" y2="75.012" gradientTransform="matrix(1.0833 0 0 1.0833 -17.998 -1.2506)" gradientUnits="userSpaceOnUse">
      <stop stop-color="#fb4934" offset="0"/>
      <stop stop-color="#cc241d" offset=".3027"/>
      <stop stop-color="#9d0006" offset="1"/>
    </linearGradient>
    <linearGradient id="linearGradient14-5" x1="128" x2="128" y1="15.001" y2="241" gradientTransform="translate(0,4.8e-4)" gradientUnits="userSpaceOnUse">
      <stop stop-color="#ebdbb2" stop-opacity=".2" offset="0"/>
      <stop stop-color="#ebdbb2" stop-opacity=".1" offset=".2"/>
      <stop stop-opacity="0" offset=".70405"/>
      <stop stop-opacity=".05" offset=".80473"/>
      <stop stop-opacity=".1" offset="1"/>
    </linearGradient>
  </defs>
  <path d="m57 15c-9.9393 0-17 7.0595-17 17v192c0 9.9393 7.0595 17 17 17h142c9.9405 0 17-7.0607 17-17v-144l-64.999-64.999z" fill="url(#linearGradient26)" stroke-linecap="round" stroke-linejoin="round" stroke-miterlimit="0" style="paint-order:markers fill stroke"/>
  <path d="m57 241c-9.9393 0-17-7.0595-17-17v-43h176v43c0 9.9405-7.0607 17-17 17z" fill="#cc241d" opacity=".3" stroke-linecap="round" stroke-linejoin="round" stroke-miterlimit="0" style="paint-order:markers fill stroke"/>
  <path d="m110.4 200v5.32h-8.36v22.4h-6.24v-22.4h-8.36v-5.32zm4 0h6.24v27.72h-6.24zm12.64 27.72v-27.72h18.56v5.24h-12.32v5.8h10.96v5.24h-10.96v11.44zm22.96 0v-27.72h18.56v5.24h-12.32v5.8h10.96v5.24h-10.96v11.44z" fill="#ebdbb2" opacity=".1" aria-label="TIFF"/>
  <path d="m110.4 197v5.32h-8.36v22.4h-6.24v-22.4h-8.36v-5.32zm4 0h6.24v27.72h-6.24zm12.64 27.72v-27.72h18.56v5.24h-12.32v5.8h10.96v5.24h-10.96v11.44zm22.96 0v-27.72h18.56v5.24h-12.32v5.8h10.96v5.24h-10.96v11.44z" fill="#9d0006" aria-label="TIFF"/>
  <path d="m87.44 197v3h22.961v-3zm26.961 0v3h6.2402v-3zm12.639 0v3h18.561v-3zm22.961 0v3h18.561v-3zm-16.721 11.039v3h10.961v-3zm22.961 0v3h10.959v-3z" fill="#282828" opacity=".2"/>
  <path d="m162.8 61.09c-12.813 0-23.2 10.6-23.2 23.676s10.387 23.676 23.2 23.676 23.2-10.6 23.2-23.676-10.387-23.676-23.2-23.676zm-55.68 37.882-37.12 71.028h116l-30.16-47.352-16.24 23.676z" fill="#ebdbb2" opacity=".15" stroke-linecap="round" stroke-linejoin="round" stroke-miterlimit="0" stroke-width="3.5155" style="paint-order:markers fill stroke"/>
  <path d="m162.8 56.09c-12.813 0-23.2 10.6-23.2 23.676s10.387 23.676 23.2 23.676 23.2-10.6 23.2-23.676-10.387-23.676-23.2-23.676zm-55.68 37.882-37.12 71.028h116l-30.16-47.352-16.24 23.676z" fill="#9d0006" stroke-linecap="round" stroke-linejoin="round" stroke-miterlimit="0" stroke-width="3.5155" style="paint-order:markers fill stroke"/>
  <path d="m162.8 56.09c-12.813 0-23.201 10.6-23.201 23.676 0 0.50416 0.02233 1.0037 0.05273 1.5 0.75894-12.376 10.83-22.176 23.148-22.176 12.319 0 22.39 9.7994 23.148 22.176 0.0304-0.49633 0.05078-0.99584 0.05078-1.5 0-13.076-10.386-23.676-23.199-23.676zm-55.682 37.881-37.119 71.029h3.1348l33.984-65.029 32.48 47.354 16.24-23.676 26.338 41.352h3.8223l-30.16-47.352-16.24 23.676-32.48-47.354z" fill="#282828" opacity=".2" style="paint-order:markers fill stroke"/>
  <path d="m57 15c-9.9393 0-17 7.0595-17 17v192c0 9.9393 7.0595 17 17 17h142c9.9405 0 17-7.0607 17-17v-144l-65-64.998zm4.0332 4.9902 89.967 2e-3 60 60.009v139.75c0 9.4999-6.6575 16.248-16.033 16.248h-133.93c-9.3757 0-16.033-6.7481-16.033-16.248v-183.51c0-9.501 6.6586-16.25 16.033-16.25z" fill="url(#linearGradient14-5)" style="paint-order:markers fill stroke"/>
  <path d="m151 15.002v52.914c0 9.6525 7.8639 17.084 17.518 17.084l47.482-1.34e-4v-5z" fill="#282828" opacity=".3" stroke-width="1.0833"/>
  <path d="m151 15.001v47.916c0 9.6525 7.8639 17.084 17.518 17.084l47.482-1.34e-4z" fill="url(#linearGradient7-6-0)" stroke-width="1.0833"/>
  <text x="106.0167" y="19.991199" font-family="Sans" font-size="40px" font-weight="bold" letter-spacing="0px" word-spacing="0px" style="font-variant-ligatures:none;line-height:1.25" xml:space="preserve"><tspan/></text>
</svg>
