<svg width="256" height="256" version="1.1" viewBox="0 0 256 256" xmlns="http://www.w3.org/2000/svg">
  <defs>
    <linearGradient id="linearGradient7-6-0" x1="186" x2="156" y1="45.006" y2="75.012" gradientTransform="matrix(1.0833 0 0 1.0833 -17.998 -1.2507)" gradientUnits="userSpaceOnUse">
      <stop stop-color="#fabd2f" offset="0"/>
      <stop stop-color="#d79921" offset=".3027"/>
      <stop stop-color="#b57614" offset="1"/>
    </linearGradient>
    <linearGradient id="linearGradient14-5" x1="128" x2="128" y1="15.001" y2="241" gradientTransform="translate(0,4.8e-4)" gradientUnits="userSpaceOnUse">
      <stop stop-color="#ebdbb2" stop-opacity=".4" offset="0"/>
      <stop stop-color="#ebdbb2" stop-opacity=".2" offset=".2"/>
      <stop stop-opacity="0" offset=".70405"/>
      <stop stop-opacity=".05" offset=".80473"/>
      <stop stop-opacity=".1" offset="1"/>
    </linearGradient>
  </defs>
  <path d="m57 15c-9.9393 0-17 7.0595-17 17v192c0 9.9393 7.0595 17 17 17h142c9.9405 0 17-7.0607 17-17v-144l-64.999-64.999z" fill="#fabd2f" stroke-linecap="round" stroke-linejoin="round" stroke-miterlimit="0" style="paint-order:markers fill stroke"/>
  <path d="m57 241c-9.9393 0-17-7.0595-17-17v-43h176v43c0 9.9405-7.0607 17-17 17z" fill="#b57614" stroke-linecap="round" stroke-linejoin="round" stroke-miterlimit="0" style="paint-order:markers fill stroke"/>
  <path d="m83.8 222.92c0.79723 0.0981 1.5987 0.08 2.4 0.08 7.7941 0 9.2-5.1581 9.2-8.88 0-7.853-5.2303-8.84-9-8.84-0.86857 4e-3 -1.7356 0.0424-2.6 0.12zm18.04-8.8c0 12.439-10.106 14.24-15.96 14.24-0.88703 0-4.9869-0.041-8.32-0.72v-27c0.13451-0.0249 3.6911-0.68 8.52-0.68 7.5066 0 15.76 2.6232 15.76 14.16zm19.44 4.56c0 9.0384-6.2603 9.88-10.04 9.88-2.8555 0.0854-5.5096-0.71748-7.92-2.2l2.08-4.84c1.6547 1.0291 3.4215 1.6208 5.36 1.72 3.1245 0 4.28-1.4992 4.28-4.88v-18.08h6.24zm14.24 9.32c-3.1136-6.6069-7.5035-17.11-11.04-27.72h6.88c4.3571 13.071 6.1098 17.669 7.28 20.36 1.2572-3.0436 3.8645-10.114 7.28-20.36h6.64c-4.7226 13.552-7.8466 20.944-11.04 27.72zm31.48 0.56c-7.3373 0-11.24-4.0343-11.24-11.04v-17.24h6.24v16.72c0 4.7482 2.2338 6.16 5.08 6.16 4.071 0 5.12-3.0332 5.12-6.16v-16.72h6.24v17.24c0 4.0123-1.4289 11.04-11.44 11.04z" color="#000000" color-rendering="auto" dominant-baseline="auto" fill="#282828" image-rendering="auto" opacity=".15" shape-rendering="auto" solid-color="#000000" stop-color="#000000" style="-inkscape-stroke:none;font-feature-settings:normal;font-variant-alternates:normal;font-variant-caps:normal;font-variant-east-asian:normal;font-variant-ligatures:normal;font-variant-numeric:normal;font-variant-position:normal;font-variation-settings:normal;inline-size:0;isolation:auto;mix-blend-mode:normal;shape-margin:0;shape-padding:0;text-decoration-color:#000000;text-decoration-line:none;text-decoration-style:solid;text-indent:0;text-orientation:mixed;text-transform:none;white-space:normal" aria-label="DJVU"/>
  <path d="m83.8 219.64c0.79723 0.0981 1.5987 0.08 2.4 0.08 7.7941 0 9.2-5.1581 9.2-8.88 0-7.853-5.2303-8.84-9-8.84-0.86857 4e-3 -1.7356 0.0424-2.6 0.12zm18.04-8.8c0 12.439-10.106 14.24-15.96 14.24-0.88703 0-4.9869-0.041-8.32-0.72v-27c0.13451-0.0249 3.6911-0.68 8.52-0.68 7.5066 0 15.76 2.6232 15.76 14.16zm19.44 4.56c0 9.0384-6.2603 9.88-10.04 9.88-2.8555 0.0854-5.5096-0.71748-7.92-2.2l2.08-4.84c1.6547 1.0291 3.4215 1.6208 5.36 1.72 3.1245 0 4.28-1.4992 4.28-4.88v-18.08h6.24zm14.24 9.32c-3.1136-6.6069-7.5035-17.11-11.04-27.72h6.88c4.3571 13.071 6.1098 17.669 7.28 20.36 1.2572-3.0436 3.8645-10.114 7.28-20.36h6.64c-4.7226 13.552-7.8466 20.944-11.04 27.72zm31.48 0.56c-7.3373 0-11.24-4.0343-11.24-11.04v-17.24h6.24v16.72c0 4.7482 2.2338 6.16 5.08 6.16 4.071 0 5.12-3.0332 5.12-6.16v-16.72h6.24v17.24c0 4.0123-1.4289 11.04-11.44 11.04z" color="#000000" color-rendering="auto" dominant-baseline="auto" fill="#fabd2f" image-rendering="auto" shape-rendering="auto" solid-color="#000000" stop-color="#000000" style="-inkscape-stroke:none;font-feature-settings:normal;font-variant-alternates:normal;font-variant-caps:normal;font-variant-east-asian:normal;font-variant-ligatures:normal;font-variant-numeric:normal;font-variant-position:normal;font-variation-settings:normal;inline-size:0;isolation:auto;mix-blend-mode:normal;shape-margin:0;shape-padding:0;text-decoration-color:#000000;text-decoration-line:none;text-decoration-style:solid;text-indent:0;text-orientation:mixed;text-transform:none;white-space:normal" aria-label="DJVU"/>
  <path d="m86.081 196.68c-4.8289 0-8.385 0.65478-8.5195 0.67969v3.2812c0.13451-0.0249 3.6906-0.67968 8.5195-0.67968 7.142 0 14.945 2.3916 15.687 12.559 0.0433-0.5396 0.0723-1.0938 0.0723-1.6797 0-11.537-8.2532-14.16-15.76-14.16zm28.959 0.32031v3.2793h6.2402v-3.2793zm9.4414 0c0.36543 1.0963 0.74369 2.1894 1.125 3.2793h5.7539c4.357 13.071 6.111 17.67 7.2812 20.361 1.2572-3.0436 3.8638-10.115 7.2793-20.361h5.4609c0.40095-1.1255 0.75398-2.0577 1.1797-3.2793h-6.6406c-3.4155 10.246-6.0222 17.316-7.2793 20.359-1.1702-2.6915-2.9242-7.2882-7.2812-20.359zm31.279 0v3.2793h6.2402v-3.2793zm16.439 0v3.2793h6.2402v-3.2793zm-76.898 15.451c-0.41738 3.4406-2.3858 7.2695-9.1016 7.2695-0.80135 0-1.6012 0.018-2.3984-0.0801v3.2793c0.79723 0.0981 1.5971 0.0801 2.3984 0.0801 7.7941 0 9.2012-5.159 9.2012-8.8809 0-0.59985-0.0416-1.1456-0.0996-1.668zm66.699 1.2695v3.2793c0 4.7482 2.2339 6.1602 5.0801 6.1602 4.071 0 5.1191-3.0334 5.1191-6.1602v-3.2793c0 3.1268-1.0482 6.1602-5.1191 6.1602-2.8462 0-5.0801-1.412-5.0801-6.1602zm-46.961 1.3594c0 3.3808-1.1548 4.8809-4.2793 4.8809-1.9385-0.0992-3.7047-0.69164-5.3594-1.7207l-2.0801 4.8398c0.37297 0.22939 0.75225 0.43674 1.1367 0.63281l0.94336-2.1934c1.6547 1.0291 3.4209 1.6215 5.3594 1.7207 3.1245 0 4.2793-1.5 4.2793-4.8808z" color="#000000" color-rendering="auto" dominant-baseline="auto" fill="#fbf1c7" image-rendering="auto" opacity=".2" shape-rendering="auto" solid-color="#000000" stop-color="#000000" style="-inkscape-stroke:none;font-feature-settings:normal;font-variant-alternates:normal;font-variant-caps:normal;font-variant-east-asian:normal;font-variant-ligatures:normal;font-variant-numeric:normal;font-variant-position:normal;font-variation-settings:normal;inline-size:0;isolation:auto;mix-blend-mode:normal;shape-margin:0;shape-padding:0;text-decoration-color:#000000;text-decoration-line:none;text-decoration-style:solid;text-indent:0;text-orientation:mixed;text-transform:none;white-space:normal"/>
  <path d="m89.527 47.623c-13.343 18.63-18.891 40.504-19.527 62.377 18.737-24.43 28.624-28.623 39.445-2.7539-1.2802-21.098-6.3032-43.068-19.918-59.623zm35.473 50.377v10h61v-10zm-55 20v10h116v-10zm0 20v10h116v-10zm0 20v10h116v-10z" fill="#fbf1c7" opacity=".2" style="paint-order:markers fill stroke"/>
  <path d="m89.527 44.623c-13.343 18.63-18.891 40.504-19.527 62.377 18.737-24.43 28.624-28.623 39.445-2.7539-1.2802-21.098-6.3032-43.068-19.918-59.623zm35.473 50.377v10h61v-10zm-55 20v10h116v-10zm0 20v10h116v-10zm0 20v10h116v-10z" fill="#b57614" style="paint-order:markers fill stroke"/>
  <path d="m89.527 44.623c-13.343 18.63-18.891 40.504-19.527 62.377 0.0472-0.0616 0.0896-0.11447 0.13672-0.17578 1.0648-20.807 6.6935-41.473 19.391-59.201 12.848 15.623 18.04 36.067 19.66 56.051 0.0859 0.20194 0.17175 0.36652 0.25781 0.57226-1.2802-21.098-6.3032-43.068-19.918-59.623zm35.473 50.377v3h61v-3zm-55 20v3h116v-3zm0 20v3h116v-3zm0 20v3h116v-3z" fill="#282828" opacity=".15" style="paint-order:markers fill stroke"/>
  <path d="m57 15c-9.9393 0-17 7.0595-17 17v192c0 9.9393 7.0595 17 17 17h142c9.9405 0 17-7.0607 17-17v-144l-65-64.998zm4.0332 4.9902 89.967 2e-3 60 60.009v139.75c0 9.4999-6.6575 16.248-16.033 16.248h-133.93c-9.3757 0-16.033-6.7481-16.033-16.248v-183.51c0-9.501 6.6586-16.25 16.033-16.25z" fill="url(#linearGradient14-5)" style="paint-order:markers fill stroke"/>
  <path d="m151 15.002v52.914c0 9.6525 7.8639 17.084 17.518 17.084l47.482-1.34e-4v-5z" fill="#282828" opacity=".2" stroke-width="1.0833"/>
  <path d="m151 15.001v47.916c0 9.6525 7.8639 17.082 17.518 17.082l47.482 0.0019z" fill="url(#linearGradient7-6-0)" stroke-width="1.0833"/>
</svg>
