<svg width="256" height="256" version="1.1" viewBox="0 0 256 256" xmlns="http://www.w3.org/2000/svg">
  <defs>
    <linearGradient id="linearGradient26" x1="-160" x2="-160" y2="226" gradientTransform="translate(267,15)" gradientUnits="userSpaceOnUse">
      <stop stop-color="#d65d0e" offset="0"/>
      <stop stop-color="#d65d0e" offset="1"/>
    </linearGradient>
    <linearGradient id="linearGradient14-5-1" x1="128" x2="128" y1="15.001" y2="241" gradientTransform="translate(0,4.8e-4)" gradientUnits="userSpaceOnUse">
      <stop stop-color="#ebdbb2" stop-opacity=".2" offset="0"/>
      <stop stop-color="#ebdbb2" stop-opacity=".1" offset=".2"/>
      <stop stop-opacity="0" offset=".70405"/>
      <stop stop-opacity=".05" offset=".80473"/>
      <stop stop-opacity=".1" offset="1"/>
    </linearGradient>
    <linearGradient id="linearGradient7-6-0-6" x1="186" x2="156" y1="45.006" y2="75.012" gradientTransform="matrix(1.0833,0,0,1.0833,-17.998,-1.2502)" gradientUnits="userSpaceOnUse">
      <stop stop-color="#fe8019" offset="0"/>
      <stop stop-color="#d65d0e" offset=".3027"/>
      <stop stop-color="#af3a03" offset="1"/>
    </linearGradient>
  </defs>
  <path d="m57 15c-9.9393 0-17 7.0595-17 17v192c0 9.9393 7.0595 17 17 17h142c9.9405 0 17-7.0607 17-17v-144l-64.999-64.999z" fill="url(#linearGradient26)" stroke-linecap="round" stroke-linejoin="round" stroke-miterlimit="0" style="paint-order:markers fill stroke"/>
  <path d="m57 241c-9.9393 0-17-7.0595-17-17v-43h176v43c0 9.9405-7.0607 17-17 17z" fill="#fe8019" opacity=".8" stroke-linecap="round" stroke-linejoin="round" stroke-miterlimit="0" style="paint-order:markers fill stroke"/>
  <path d="m93.24 222.64c0.79723 0.0981 1.5987 0.08 2.4 0.08 7.7941 0 9.2-5.1581 9.2-8.88 0-7.853-5.2303-8.84-9-8.84-0.86857 4e-3 -1.7356 0.0424-2.6 0.12zm18.04-8.8c0 12.439-10.106 14.24-15.96 14.24-0.88703 0-4.9869-0.041-8.32-0.72v-27c0.13451-0.0249 3.6911-0.68 8.52-0.68 7.5066 0 15.76 2.6232 15.76 14.16zm23.8 13.88c-3.2366-5.7485-7.4258-12.291-12.44-18.16v18.16h-6.16v-27.72h5.08c4.3447 4.3447 10.344 13.037 12.56 16.36v-16.36h6.2v27.72zm25.16-22.92c-6.2421 0-8.24 3.9646-8.24 9.04 0 4.9582 2.1987 9.08 7.68 9.08 1.7593 0 2.5214-0.0803 3.08-0.2v-9.64h6.24v13.72c-3.5405 1.3909-8.9813 1.44-9.72 1.44-7.9578 0-13.76-4.8354-13.76-14.4 0-9.3096 6.2351-14.48 13.88-14.48 4.3252 0 7.7259 1.1987 9.2 2.12l-1.8 5c-0.98137-0.52135-3.5054-1.68-6.56-1.68z" fill="#ebdbb2" opacity=".15" aria-label="DNG"/>
  <path d="m93.24 219.64c0.79723 0.0981 1.5987 0.08 2.4 0.08 7.7941 0 9.2-5.1581 9.2-8.88 0-7.853-5.2303-8.84-9-8.84-0.86857 4e-3 -1.7356 0.0424-2.6 0.12zm18.04-8.8c0 12.439-10.106 14.24-15.96 14.24-0.88703 0-4.9869-0.041-8.32-0.72v-27c0.13451-0.0249 3.6911-0.68 8.52-0.68 7.5066 0 15.76 2.6232 15.76 14.16zm23.8 13.88c-3.2366-5.7485-7.4258-12.291-12.44-18.16v18.16h-6.16v-27.72h5.08c4.3447 4.3447 10.344 13.037 12.56 16.36v-16.36h6.2v27.72zm25.16-22.92c-6.2421 0-8.24 3.9646-8.24 9.04 0 4.9582 2.1987 9.08 7.68 9.08 1.7593 0 2.5214-0.0803 3.08-0.2v-9.64h6.24v13.72c-3.5405 1.3909-8.9813 1.44-9.72 1.44-7.9578 0-13.76-4.8354-13.76-14.4 0-9.3096 6.2351-14.48 13.88-14.48 4.3252 0 7.7259 1.1987 9.2 2.12l-1.8 5c-0.98137-0.52135-3.5054-1.68-6.56-1.68z" fill="#af3a03" aria-label="DNG"/>
  <path d="m159.4 196.36c-7.6449 0-13.881 5.1709-13.881 14.48 0 0.53599 0.0247 1.0523 0.0606 1.5586 0.61388-8.3966 6.5812-13.039 13.82-13.039 3.6059 0 6.5509 0.83354 8.291 1.6445l0.9082-2.5234c-1.4741-0.92131-4.874-2.1211-9.1992-2.1211zm-63.881 0.32031c-4.8289 0-8.385 0.65478-8.5195 0.67969v3c0.13451-0.0249 3.6906-0.67969 8.5195-0.67969 7.1632 0 15 2.3955 15.703 12.639 0.0334-0.47753 0.0566-0.96541 0.0566-1.4785 0-11.537-8.2532-14.16-15.76-14.16zm20.961 0.32031v3h5.0801c4.3447 4.3447 10.343 13.036 12.559 16.359v-3c-2.2156-3.3235-8.2139-12.015-12.559-16.359zm17.639 0v3h6.2012v-3zm28.641 13.08v3h6.2402v-3zm-10.688 2.2129c-0.0461 0.50255-0.0723 1.0168-0.0723 1.5469 0 4.9582 2.1984 9.0801 7.6797 9.0801 1.7593 0 2.5215-0.0795 3.0801-0.19922v-3c-0.55857 0.1197-1.3208 0.19922-3.0801 0.19922-4.9346 0-7.2028-3.343-7.6074-7.627zm-47.311 0.0137c-0.37971 3.4769-2.3114 7.4141-9.1211 7.4141-0.80135 0-1.6032 0.018-2.4004-0.0801v3c0.79724 0.0981 1.599 0.0801 2.4004 0.0801 7.7941 0 9.1992-5.159 9.1992-8.8809 0-0.54637-0.0297-1.0513-0.0781-1.5332z" fill="#282828" opacity=".2"/>
  <path d="m57 15c-9.9393 0-17 7.0595-17 17v192c0 9.9393 7.0595 17 17 17h142c9.9405 0 17-7.0607 17-17v-144l-65-64.998zm4.0332 4.9902 89.967 2e-3 60 60.009v139.75c0 9.4999-6.6575 16.248-16.033 16.248h-133.93c-9.3757 0-16.033-6.7481-16.033-16.248v-183.51c0-9.501 6.6586-16.25 16.033-16.25z" fill="url(#linearGradient14-5-1)" style="paint-order:markers fill stroke"/>
  <path d="m139.88 56.5-13.95 39.241 55.036-9.1349c-8.1283-15.428-23.137-26.788-41.086-30.112zm42.806 37.917-41.521 7.6859 35.57 42.439c9.5001-14.674 11.95-33.193 5.9045-50.128l0.0464 0.0027zm-11.911 55.509-27.532-31.561-19.524 51.577c17.659 0.75351 35.145-6.402 47.008-20.026h0.058zm-54.707 17.592 13.988-39.241-55.074 9.1349c8.1554 15.447 23.185 26.798 41.086 30.112zm-42.806-37.888 41.501-7.6859-35.57-42.439c-9.4856 14.694-11.95 33.193-5.9035 50.128l-0.03231-3e-3zm11.882-55.48 27.532 31.561 19.524-51.587c-17.64-0.75352-35.145 6.402-46.988 20.026" fill="#ebdbb2" opacity=".1" stroke-width=".96605"/>
  <path d="m139.88 51.504-13.95 39.241 55.036-9.1349c-8.1283-15.428-23.137-26.788-41.086-30.112zm42.806 37.917-41.521 7.6859 35.57 42.439c9.5001-14.674 11.95-33.193 5.9045-50.128l0.0464 0.0027zm-11.911 55.509-27.532-31.561-19.524 51.577c17.659 0.75351 35.145-6.402 47.008-20.026h0.058zm-54.707 17.592 13.988-39.241-55.074 9.135c8.1554 15.447 23.185 26.798 41.086 30.112zm-42.806-37.888 41.501-7.6859-35.57-42.439c-9.4856 14.694-11.95 33.193-5.9035 50.128l-0.03231-3e-3zm11.882-55.48 27.532 31.561 19.524-51.587c-17.64-0.75352-35.145 6.402-46.988 20.026" fill="#af3a03" stroke-width=".96605"/>
  <path d="m128.9 49.079c-16.501 0.21514-32.582 7.3035-43.686 20.076h-0.06641l2.2734 2.6055c11.307-11.608 26.968-17.838 42.902-17.664l1.8808-4.9688c-1.1025-0.04709-2.2046-0.06317-3.3047-0.04883zm10.984 2.4199v0.0059l-13.949 39.242 1.8867-0.3125 12.062-33.934v-0.0059c16.13 2.9864 29.867 12.476 38.389 25.562l2.6973-0.44727c-8.1283-15.428-23.137-26.788-41.086-30.111zm-60.688 23.012c-6.5036 10.074-9.7046 21.938-9.127 33.859 0.4054-10.21 3.5338-20.199 9.127-28.863l31.947 38.115 3.623-0.67187zm103.45 14.908c1e-3 0.0039 3e-3 0.0078 4e-3 0.01172l0.043-0.0078v-2e-3zm4e-3 0.01172-41.477 7.6777 3.625 4.3242 37.852-7.0059c-1e-3 -0.0039-3e-3 -0.0078-4e-3 -0.01172l0.0469 2e-3v2e-3l-0.043 0.0078c1.902 5.3316 2.9594 10.819 3.2227 16.295 0.28466-7.114-0.74113-14.335-3.2227-21.291zm-39.4 23.939-19.523 51.578c0.6278 0.0268 1.2538 0.0205 1.8809 0.0273l17.643-46.609 25.266 28.959c0.75871-0.77755 1.5001-1.577 2.2188-2.4023h0.041zm27.525 31.553 8e-3 0.01 0.01-0.01zm-40.711-21.641-55.074 9.1348c0.8254 1.5634 1.7371 3.0734 2.6992 4.5488l50.482-8.373z" fill="#282828" opacity=".2" stroke-width=".96605"/>
  <path d="m151 15.002v52.914c0 9.6525 7.8639 17.084 17.518 17.084l47.482-1.3e-4v-5z" fill="#282828" opacity=".2" stroke-width="1.0833"/>
  <path d="m151 15.001v47.916c0 9.6525 7.8639 17.084 17.518 17.084l47.482-1.34e-4z" fill="url(#linearGradient7-6-0-6)" stroke-width="1.0833"/>
</svg>
