<svg width="256" height="256" version="1.1" viewBox="0 0 256 256" xmlns="http://www.w3.org/2000/svg">
  <defs>
    <linearGradient id="linearGradient20" x1="128" x2="128" y1="15" y2="241" gradientUnits="userSpaceOnUse">
      <stop stop-color="#ebdbb2" offset="0"/>
      <stop stop-color="#d5c4a1" offset="1"/>
    </linearGradient>
    <linearGradient id="linearGradient7-6-0-7" x1="186" x2="156" y1="45.006" y2="75.012" gradientTransform="matrix(1.0833,0,0,1.0833,-17.998,-1.2517)" gradientUnits="userSpaceOnUse">
      <stop stop-color="#a89984" offset="0"/>
      <stop stop-color="#7c6f64" offset=".3027"/>
      <stop stop-color="#504945" offset="1"/>
    </linearGradient>
    <linearGradient id="linearGradient14-8" x1="128" x2="128" y1="15.001" y2="241" gradientTransform="translate(0,5e-4)" gradientUnits="userSpaceOnUse">
      <stop stop-color="#282828" stop-opacity=".098065" offset="0"/>
      <stop stop-color="#282828" stop-opacity=".051613" offset=".2"/>
      <stop stop-color="#282828" stop-opacity=".050323" offset=".70405"/>
      <stop stop-color="#282828" stop-opacity=".10194" offset=".80473"/>
      <stop stop-color="#282828" stop-opacity=".14698" offset="1"/>
    </linearGradient>
  </defs>
  <path d="m57 15c-9.9393 0-17 7.0595-17 17v149h176v-101l-64.998-64.998-94.002-0.001953z" fill="url(#linearGradient20)" style="paint-order:markers fill stroke"/>
  <path d="m57 241c-9.9393 0-17-7.0595-17-17v-43h176v43c0 9.9405-7.0607 17-17 17z" fill="#665c54" stroke-linecap="round" stroke-linejoin="round" stroke-miterlimit="0" style="paint-order:markers fill stroke"/>
  <path d="m102.7 222.96c3.2335 0 4.48-0.98172 4.48-2.88 0-1.533-1.0262-2.6487-5.68-4.2-3.4634-1.2224-7.6-2.955-7.6-8.2 0-5.1508 4.0386-8.32 10.2-8.32 3.7211 0 6.4107 0.94404 8.2 1.92l-1.8 4.92c-1.873-0.99727-3.8907-1.4678-6-1.52-2.9192 0-4.2 0.79833-4.2 2.52 0.24727 2.3866 2.8628 3.0035 4.8 3.68 5.9312 2.1967 8.52 4.0081 8.52 9.24 0 6.7588-5.9696 8.16-10.92 8.16-2.0763 0-6.0494-0.27394-9.28-2.12l1.76-4.96c2.3212 1.3162 4.8903 1.7066 7.52 1.76zm23.84-23.28c7.1485 0 12.88 2.1678 12.88 9.12 0 2.1895-0.48892 5.6557-5.2 7.6 3.551 4.3964 6.5069 10.532 6.88 11.32h-7c-4.0059-7.1684-5.2516-8.79-6.36-10.12h-3.08v10.12h-6.24v-27.32c3.1191-0.6116 6.3871-0.72 8.12-0.72zm0.36 5.32c-0.74882-0.01-1.4946 0.0599-2.24 0.12v7.52h1.76c4.8398 0 6.56-1.1781 6.56-3.88 0-1.4407-0.45697-3.76-6.08-3.76zm34.84 2.28c0 0.90965-0.0273 3.8273-4.32 8.12-2.1765 2.4334-5.2168 4.3716-6.76 7.32h11.92v5h-18.48c-0.10891-0.68719-0.08-1.3866-0.08-2.08 0-1.28 0.2-2.4533 0.6-3.52 1.6582-4.0058 5.1388-6.7615 8.2-9.68 1.7851-1.7851 2.84-3.158 2.84-4.76 0-2.6547-1.9104-3.2-3.48-3.2-3.0616 0-5.7219 2.6019-5.92 2.8l-2.96-4.16c1.3686-1.2753 4.6133-3.76 9.12-3.76 7.8006 0 9.32 4.4517 9.32 7.92z" fill="#282828" opacity=".3" aria-label="SR2I"/>
  <path d="m102.7 219.96c3.2335 0 4.48-0.98172 4.48-2.88 0-1.533-1.0262-2.6487-5.68-4.2-3.4634-1.2224-7.6-2.955-7.6-8.2 0-5.1508 4.0386-8.32 10.2-8.32 3.7211 0 6.4107 0.94404 8.2 1.92l-1.8 4.92c-1.873-0.99727-3.8907-1.4678-6-1.52-2.9192 0-4.2 0.79833-4.2 2.52 0.24727 2.3866 2.8628 3.0035 4.8 3.68 5.9312 2.1967 8.52 4.0081 8.52 9.24 0 6.7588-5.9696 8.16-10.92 8.16-2.0763 0-6.0494-0.27394-9.28-2.12l1.76-4.96c2.3212 1.3162 4.8903 1.7066 7.52 1.76zm23.84-23.28c7.1485 0 12.88 2.1678 12.88 9.12 0 2.1895-0.48892 5.6557-5.2 7.6 3.551 4.3964 6.5069 10.532 6.88 11.32h-7c-4.0059-7.1684-5.2516-8.79-6.36-10.12h-3.08v10.12h-6.24v-27.32c3.1191-0.6116 6.3871-0.72 8.12-0.72zm0.36 5.32c-0.74882-0.01-1.4946 0.0599-2.24 0.12v7.52h1.76c4.8398 0 6.56-1.1781 6.56-3.88 0-1.4407-0.45697-3.76-6.08-3.76zm34.84 2.28c0 0.90965-0.0273 3.8273-4.32 8.12-2.1765 2.4334-5.2168 4.3716-6.76 7.32h11.92v5h-18.48c-0.10891-0.68719-0.08-1.3866-0.08-2.08 0-1.28 0.2-2.4533 0.6-3.52 1.6582-4.0058 5.1388-6.7615 8.2-9.68 1.7851-1.7851 2.84-3.158 2.84-4.76 0-2.6547-1.9104-3.2-3.48-3.2-3.0616 0-5.7219 2.6019-5.92 2.8l-2.96-4.16c1.3686-1.2753 4.6133-3.76 9.12-3.76 7.8006 0 9.32 4.4517 9.32 7.92z" fill="#ebdbb2" aria-label="SR2I"/>
  <path d="m104.1 196.36c-6.1614 0-10.199 3.1696-10.199 8.3203 0 0.53725 0.05313 1.0293 0.13476 1.4961 0.72078-4.2529 4.5304-6.8164 10.064-6.8164 3.13 0 5.5211 0.67181 7.2695 1.4648l0.93164-2.5449c-1.7893-0.97596-4.4801-1.9199-8.2012-1.9199zm48.32 0c-4.5067-1e-5 -7.7505 2.4845-9.1191 3.7598l1.3457 1.8926c1.7-1.2412 4.3774-2.6524 7.7734-2.6523 6.595 0 8.6943 3.1822 9.1875 6.2617 0.11518-0.60602 0.13281-1.0722 0.13281-1.3418 0-3.4683-1.5197-7.9199-9.3203-7.9199zm-25.881 0.32031c-1.7329 0-5 0.1091-8.1191 0.7207v3c3.1191-0.6116 6.3862-0.7207 8.1191-0.7207 6.6045 0 11.989 1.8606 12.771 7.625 0.0747-0.53684 0.10937-1.0514 0.10937-1.5039 0-6.9522-5.7323-9.1211-12.881-9.1211zm-25.682 8.9688c-0.37777 0.39228-0.55664 0.90625-0.55664 1.5508 0.24727 2.3866 2.8616 3.0052 4.7988 3.6816 5.2724 1.9527 7.8985 3.606 8.418 7.623 0.0605-0.43646 0.10156-0.89314 0.10156-1.3848 0-5.2319-2.5883-7.0415-8.5195-9.2383-1.4675-0.51247-3.3206-0.99307-4.2422-2.2324zm54.502 0.46289c-0.42805 1.0537-1.303 2.092-2.5391 3.3281-3.0612 2.9185-6.543 5.6738-8.2012 9.6797-0.4 1.0667-0.59961 2.2415-0.59961 3.5215 0 0.61849-0.01 1.2404 0.0625 1.8555 0.085-0.84231 0.25972-1.6372 0.53711-2.377 1.6582-4.0058 5.1399-6.7612 8.2012-9.6797 1.7851-1.7851 2.8398-3.1578 2.8398-4.7598 0-0.63853-0.11106-1.1521-0.30078-1.5684zm-22.641 1.1836c-0.63325 1.6158-2.5033 2.3457-6.2988 2.3457h-1.7598v3h1.7598c4.8398 0 6.5606-1.1789 6.5606-3.8808 0-0.43746-0.0456-0.9549-0.26172-1.4648zm3.1152 8.2852c-0.47404 0.29434-1.0076 0.57034-1.6133 0.82031 2.1864 2.707 4.0608 5.9489 5.332 8.3203h1.5469c-0.31444-0.66383-2.4721-5.1221-5.2656-9.1406zm-40.654 2.6191-1.7598 4.9609c0.29448 0.16827 0.59948 0.30999 0.9043 0.45312l0.85547-2.4141c2.3212 1.3162 4.8898 1.7083 7.5195 1.7617 3.2335 0 4.4805-0.98258 4.4805-2.8809 0-0.5104-0.13355-0.97253-0.45703-1.4219-0.60827 0.8547-1.866 1.3027-4.0234 1.3027-2.6298-0.0534-5.1983-0.44556-7.5195-1.7617zm57.752 1.5215c-0.88673 0.90941-1.6864 1.8822-2.2715 3h11.92v-3z" fill="#fbf1c7" opacity=".6"/>
  <path d="m139.88 56.5-13.95 39.241 55.036-9.1349c-8.1283-15.428-23.137-26.788-41.086-30.112zm42.806 37.917-41.521 7.6859 35.57 42.439c9.5001-14.674 11.95-33.193 5.9045-50.128l0.0464 0.0027zm-11.911 55.509-27.532-31.561-19.524 51.577c17.659 0.75351 35.145-6.402 47.008-20.026h0.058zm-54.707 17.592 13.988-39.241-55.074 9.1349c8.1554 15.447 23.185 26.798 41.086 30.112zm-42.806-37.888 41.501-7.6859-35.57-42.439c-9.4856 14.694-11.95 33.193-5.9035 50.128l-0.03231-3e-3zm11.882-55.48 27.532 31.561 19.524-51.587c-17.64-0.75352-35.145 6.402-46.988 20.026" fill="#ebdbb2" opacity=".6" stroke-width=".96605"/>
  <path d="m139.88 51.504-13.95 39.241 55.036-9.1349c-8.1283-15.428-23.137-26.788-41.086-30.112zm42.806 37.917-41.521 7.6859 35.57 42.439c9.5001-14.674 11.95-33.193 5.9045-50.128l0.0464 0.0027zm-11.911 55.509-27.532-31.561-19.524 51.577c17.659 0.75351 35.145-6.402 47.008-20.026h0.058zm-54.707 17.592 13.988-39.241-55.074 9.135c8.1554 15.447 23.185 26.798 41.086 30.112zm-42.806-37.888 41.501-7.6859-35.57-42.439c-9.4856 14.694-11.95 33.193-5.9035 50.128l-0.03231-3e-3zm11.882-55.48 27.532 31.561 19.524-51.587c-17.64-0.75352-35.145 6.402-46.988 20.026" fill="#665c54" stroke-width=".96605"/>
  <path d="m128.9 49.079c-16.501 0.21514-32.582 7.3035-43.686 20.076h-0.06641l2.2734 2.6055c11.307-11.608 26.968-17.838 42.902-17.664l1.8808-4.9688c-1.1025-0.04709-2.2046-0.06317-3.3047-0.04883zm10.984 2.4199v0.0059l-13.949 39.242 1.8867-0.3125 12.062-33.934v-0.0059c16.13 2.9864 29.867 12.476 38.389 25.562l2.6973-0.44727c-8.1283-15.428-23.137-26.788-41.086-30.111zm-60.688 23.012c-6.5036 10.074-9.7046 21.938-9.127 33.859 0.4054-10.21 3.5338-20.199 9.127-28.863l31.947 38.115 3.623-0.67187zm103.45 14.908c1e-3 0.0039 3e-3 0.0078 4e-3 0.01172l0.043-0.0078v-2e-3zm4e-3 0.01172-41.477 7.6777 3.625 4.3242 37.852-7.0059c-1e-3 -0.0039-3e-3 -0.0078-4e-3 -0.01172l0.0469 2e-3v2e-3l-0.043 0.0078c1.902 5.3316 2.9594 10.819 3.2227 16.295 0.28466-7.114-0.74113-14.335-3.2227-21.291zm-39.4 23.939-19.523 51.578c0.6278 0.0268 1.2538 0.0205 1.8809 0.0273l17.643-46.609 25.266 28.959c0.75871-0.77755 1.5001-1.577 2.2188-2.4023h0.041zm27.525 31.553 8e-3 0.01 0.01-0.01zm-40.711-21.641-55.074 9.1348c0.8254 1.5634 1.7371 3.0734 2.6992 4.5488l50.482-8.373z" fill="#282828" opacity=".2" stroke-width=".96605"/>
  <path d="m57 15c-9.9393 0-17 7.0595-17 17v192c0 9.9393 7.0595 17 17 17h142c9.9405 0 17-7.0607 17-17v-144l-65-65zm4.0332 4.9902 89.967 0.01 60 60 2e-4 139.75c1e-5 9.4999-6.6575 16.248-16.033 16.248h-133.93c-9.3757 0-16.033-6.7481-16.033-16.248v-183.51c0-9.501 6.6586-16.25 16.033-16.25z" fill="url(#linearGradient14-8)" style="paint-order:markers fill stroke"/>
  <path d="m151 15.002v52.914c0 9.6525 7.8639 17.084 17.518 17.084l47.482-1.3e-4v-5z" fill="#282828" opacity=".2" stroke-width="1.0833"/>
  <path d="m151 15v47.916c0 9.6525 7.8639 17.082 17.518 17.082l47.482 0.0019z" fill="url(#linearGradient7-6-0-7)" stroke-width="1.0833"/>
</svg>
