<svg width="256" height="256" version="1.1" viewBox="0 0 256 256" xmlns="http://www.w3.org/2000/svg">
  <defs>
    <linearGradient id="linearGradient26" x1="-160" x2="-160" y2="226" gradientTransform="translate(267,15)" gradientUnits="userSpaceOnUse">
      <stop stop-color="#af3a03" offset="0"/>
      <stop stop-color="#af3a03" offset="1"/>
    </linearGradient>
    <linearGradient id="linearGradient7-6-0" x1="186" x2="156" y1="45.006" y2="75.012" gradientTransform="matrix(1.0833 0 0 1.0833 -17.998 -1.2506)" gradientUnits="userSpaceOnUse">
      <stop stop-color="#fe8019" offset="0"/>
      <stop stop-color="#d65d0e" offset=".3027"/>
      <stop stop-color="#af3a03" offset="1"/>
    </linearGradient>
    <linearGradient id="linearGradient14-5" x1="128" x2="128" y1="15.001" y2="241" gradientTransform="translate(0,4.8e-4)" gradientUnits="userSpaceOnUse">
      <stop stop-color="#ebdbb2" stop-opacity=".15" offset="0"/>
      <stop stop-color="#ebdbb2" stop-opacity=".05" offset=".2"/>
      <stop stop-opacity="0" offset=".70405"/>
      <stop stop-opacity=".05" offset=".80473"/>
      <stop stop-opacity=".1" offset="1"/>
    </linearGradient>
  </defs>
  <path d="m57 15c-9.9393 0-17 7.0595-17 17v192c0 9.9393 7.0595 17 17 17h142c9.9405 0 17-7.0607 17-17v-144l-64.999-64.999z" fill="url(#linearGradient26)" stroke-linecap="round" stroke-linejoin="round" stroke-miterlimit="0" style="paint-order:markers fill stroke"/>
  <path d="m40 181v43c0 9.9405 7.0607 17 17 17h142c9.9393 0 17-7.0595 17-17v-43z" fill="#fe8019" opacity=".8" stop-color="#000000" stroke-linecap="round" stroke-linejoin="round" stroke-miterlimit="0" style="paint-order:markers fill stroke"/>
  <path d="m99.14 227.72c-0.64332-2.0121-1.3562-4.0012-2.04-6h-10.8c-0.7104 1.9905-1.4118 3.9818-2.04 6h-6.48c4.2091-12.088 7.6057-20.655 11.04-27.72h5.96c4.147 8.7819 7.4312 17.356 11.04 27.72zm-7.48-21.44c-0.71608 2.1482-1.6498 4.0952-3.92 10.48h7.88c-0.0731-0.20573-1.8629-5.2373-3.96-10.48zm26.08 16.68c3.2335 0 4.48-0.98172 4.48-2.88 0-1.533-1.0262-2.6487-5.68-4.2-4.0579-1.2403-7.2035-3.7065-7.6-8.2 0-5.1508 4.0386-8.32 10.2-8.32 3.7211 0 6.4107 0.94404 8.2 1.92l-1.8 4.92c-1.873-0.99727-3.8907-1.4678-6-1.52-2.9192 0-4.2 0.79833-4.2 2.52 0.21886 2.3726 2.8839 3.0168 4.8 3.68 5.9312 2.1967 8.52 4.0081 8.52 9.24 0 6.7588-5.9696 8.16-10.92 8.16-1.871 0-5.9869-0.23822-9.28-2.12l1.76-4.96c2.3212 1.3162 4.8902 1.7066 7.52 1.76zm35.48-22.96v5.32h-8.36v22.4h-6.24v-22.4h-8.36v-5.32zm15.72 28.28c-11.917 0-13.84-8.7761-13.84-14.44 0-8.7096 5.577-14.48 14.16-14.48 3.6495 0 6.894 1.0788 8.56 2.12l-1.8 5.04c-1.62-0.86063-3.9005-1.64-6.84-1.64-1.6567 0-7.6 0.57595-7.6 8.84 0 7.377 4.1646 9.04 7.92 9.04 2.4702 0.084 4.7798-0.55372 7-1.56l1.72 5c-3.204 1.9418-7.9741 2.08-9.28 2.08z" fill="#ebdbb2" opacity=".15" aria-label="ASTC"/>
  <path d="m99.14 224.72c-0.64332-2.0121-1.3562-4.0012-2.04-6h-10.8c-0.7104 1.9905-1.4118 3.9818-2.04 6h-6.48c4.2091-12.088 7.6057-20.655 11.04-27.72h5.96c4.147 8.7819 7.4312 17.356 11.04 27.72zm-7.48-21.44c-0.71608 2.1482-1.6498 4.0952-3.92 10.48h7.88c-0.07315-0.20573-1.8629-5.2373-3.96-10.48zm26.08 16.68c3.2335 0 4.48-0.98172 4.48-2.88 0-1.533-1.0262-2.6487-5.68-4.2-4.0579-1.2403-7.2035-3.7065-7.6-8.2 0-5.1508 4.0386-8.32 10.2-8.32 3.7211 0 6.4107 0.94404 8.2 1.92l-1.8 4.92c-1.873-0.99727-3.8907-1.4678-6-1.52-2.9192 0-4.2 0.79833-4.2 2.52 0.21886 2.3726 2.8839 3.0168 4.8 3.68 5.9312 2.1967 8.52 4.0081 8.52 9.24 0 6.7588-5.9696 8.16-10.92 8.16-1.871 0-5.9869-0.23822-9.28-2.12l1.76-4.96c2.3212 1.3162 4.8902 1.7066 7.52 1.76zm35.48-22.96v5.32h-8.36v22.4h-6.24v-22.4h-8.36v-5.32zm15.72 28.28c-11.917 0-13.84-8.7761-13.84-14.44 0-8.7096 5.577-14.48 14.16-14.48 3.6495 0 6.894 1.0788 8.56 2.12l-1.8 5.04c-1.62-0.86063-3.9005-1.64-6.84-1.64-1.6567 0-7.6 0.57595-7.6 8.84 0 7.377 4.1646 9.04 7.92 9.04 2.4702 0.084 4.7798-0.55372 7-1.56l1.72 5c-3.204 1.9418-7.9741 2.08-9.28 2.08z" fill="#af3a03" aria-label="ASTC"/>
  <path d="m119.14 196.36c-6.1614 0-10.201 3.1696-10.201 8.3203 0.0361 0.40916 0.10329 0.79572 0.1836 1.1719 0.85411-4.0618 4.623-6.4922 10.018-6.4922 3.1286 0 5.5194 0.67032 7.2676 1.4629l0.93164-2.543c-1.7893-0.97596-4.4781-1.9199-8.1992-1.9199zm50.119 0c-8.583-1e-5 -14.16 5.7708-14.16 14.48 0 0.49825 0.0233 1.0261 0.0586 1.5645 0.58357-7.9005 6.0006-13.045 14.102-13.045 3.0829 0 5.8646 0.77199 7.6621 1.6387l0.89842-2.5176c-1.666-1.0412-4.911-2.1211-8.5605-2.1211zm-80.439 0.64062c-3.4343 7.0648-6.8319 15.633-11.041 27.721h1.0723c3.7095-10.458 6.8397-18.284 9.9688-24.721h5.959c3.7306 7.9 6.7722 15.703 9.9707 24.721h1.0703c-3.6088-10.364-6.894-18.939-11.041-27.721zm41.439 0v3h22.961v-3zm-14.367 8.6543c-0.37437 0.39163-0.55274 0.90322-0.55274 1.5449 0.21886 2.3726 2.8847 3.0184 4.8008 3.6816 5.275 1.9537 7.9003 3.6076 8.418 7.6289 0.061-0.43818 0.10157-0.8968 0.10157-1.3906 0-5.2319-2.5883-7.0415-8.5195-9.2383-1.448-0.5012-3.3236-0.99288-4.248-2.2266zm45.758 6.582c-0.0455 0.46546-0.0703 0.95848-0.0703 1.4844 0 7.377 4.1646 9.0391 7.9199 9.0391 2.4702 0.084 4.7798-0.55427 7-1.5606l0.84375 2.4492c0.29772-0.1422 0.59946-0.28104 0.87695-0.44922l-1.7207-5c-2.2202 1.0063-4.5298 1.6446-7 1.5606-3.4813 0-7.3088-1.4378-7.8496-7.5234zm-72.816 1.5234c-0.33718 0.91086-0.67118 1.8115-1.0938 3h7.8789c-0.03274-0.0921-0.4978-1.3886-1.0918-3zm21.387 4.4394-1.7598 4.9609c0.29417 0.1681 0.59918 0.3083 0.90429 0.45117l0.85547-2.4121c2.3213 1.3162 4.8898 1.7083 7.5195 1.7617 3.2335 0 4.4805-0.98258 4.4805-2.8809 0-0.51028-0.1337-0.97262-0.45703-1.4219-0.60802 0.85527-1.8653 1.3027-4.0234 1.3027-2.6298-0.0534-5.1983-0.44556-7.5195-1.7617z" fill="#282828" opacity=".2"/>
  <path d="m162.8 61.09c-12.813 0-23.2 10.6-23.2 23.676s10.387 23.676 23.2 23.676 23.2-10.6 23.2-23.676-10.387-23.676-23.2-23.676zm-55.68 37.882-37.12 71.028h116l-30.16-47.352-16.24 23.676z" fill="#282828" opacity=".15" stroke-linecap="round" stroke-linejoin="round" stroke-miterlimit="0" stroke-width="3.5155" style="paint-order:markers fill stroke"/>
  <path d="m162.8 56.09c-12.813 0-23.2 10.6-23.2 23.676s10.387 23.676 23.2 23.676 23.2-10.6 23.2-23.676-10.387-23.676-23.2-23.676zm-55.68 37.882-37.12 71.028h116l-30.16-47.352-16.24 23.676z" fill="#fe8019" stroke-linecap="round" stroke-linejoin="round" stroke-miterlimit="0" stroke-width="3.5155" style="paint-order:markers fill stroke"/>
  <path d="m162.8 56.09c-12.813 0-23.201 10.6-23.201 23.676 0 0.50416 0.02233 1.0037 0.05273 1.5 0.75894-12.376 10.83-22.176 23.148-22.176 12.319 0 22.39 9.7994 23.148 22.176 0.0304-0.49633 0.05078-0.99584 0.05078-1.5 0-13.076-10.386-23.676-23.199-23.676zm-55.682 37.881-37.119 71.029h3.1348l33.984-65.029 32.48 47.354 16.24-23.676 26.338 41.352h3.8223l-30.16-47.352-16.24 23.676-32.48-47.354z" fill="#ebdbb2" opacity=".2" style="paint-order:markers fill stroke"/>
  <path d="m57 15c-9.9393 0-17 7.0595-17 17v192c0 9.9393 7.0595 17 17 17h142c9.9405 0 17-7.0607 17-17v-144l-65-64.998zm4.0332 4.9902 89.967 2e-3 60 60.009v139.75c0 9.4999-6.6575 16.248-16.033 16.248h-133.93c-9.3757 0-16.033-6.7481-16.033-16.248v-183.51c0-9.501 6.6586-16.25 16.033-16.25z" fill="url(#linearGradient14-5)" style="paint-order:markers fill stroke"/>
  <path d="m151 15.002v52.914c0 9.6525 7.8639 17.084 17.518 17.084l47.482-1.34e-4v-5z" fill="#282828" opacity=".3" stroke-width="1.0833"/>
  <path d="m151 15.001v47.916c0 9.6525 7.8639 17.084 17.518 17.084l47.482-1.34e-4z" fill="url(#linearGradient7-6-0)" stroke-width="1.0833"/>
  <text x="106.0167" y="19.991199" font-family="Sans" font-size="40px" font-weight="bold" letter-spacing="0px" word-spacing="0px" style="font-variant-ligatures:none;line-height:1.25" xml:space="preserve"><tspan/></text>
</svg>
