<svg width="256" height="256" version="1.1" viewBox="0 0 256 256" xmlns="http://www.w3.org/2000/svg">
  <defs>
    <linearGradient id="linearGradient21" x1="128" x2="128" y1="15" y2="241" gradientTransform="translate(-9.7e-4,-9.75e-4)" gradientUnits="userSpaceOnUse">
      <stop stop-color="#ebdbb2" offset="0"/>
      <stop stop-color="#d5c4a1" offset="1"/>
    </linearGradient>
    <linearGradient id="linearGradient7-6-0" x1="186" x2="156" y1="45.006" y2="75.012" gradientTransform="matrix(1.0833,0,0,1.0833,-17.997,-1.2516)" gradientUnits="userSpaceOnUse">
      <stop stop-color="#fe8019" offset="0"/>
      <stop stop-color="#d65d0e" offset=".3027"/>
      <stop stop-color="#af3a03" offset="1"/>
    </linearGradient>
    <linearGradient id="linearGradient14-5" x1="128" x2="128" y1="15.001" y2="241" gradientTransform="translate(0,4.8e-4)" gradientUnits="userSpaceOnUse">
      <stop stop-color="#af3a03" stop-opacity=".095801" offset="0"/>
      <stop stop-color="#af3a03" stop-opacity=".045932" offset=".2"/>
      <stop stop-color="#af3a03" stop-opacity=".049869" offset=".70405"/>
      <stop stop-color="#282828" stop-opacity=".053806" offset=".80473"/>
      <stop stop-color="#282828" stop-opacity=".10499" offset="1"/>
    </linearGradient>
  </defs>
  <path d="m56.999 14.999c-9.9393 0-17 7.0595-17 17v149h176v-101l-64.998-64.998z" fill="url(#linearGradient21)" style="paint-order:markers fill stroke"/>
  <path d="m57 241c-9.9393 0-17-7.0595-17-17v-43h176v43c0 9.9405-7.0607 17-17 17z" fill="#fe8019" stroke-linecap="round" stroke-linejoin="round" stroke-miterlimit="0" style="paint-order:markers fill stroke"/>
  <path d="m99.06 227.72v-27.72h18.56v5.24h-12.32v5.8h10.96v5.24h-10.96v11.44zm22.96-27.72h6.24v27.72h-6.24zm26.16 4.8c-6.2421 0-8.24 3.9646-8.24 9.04 0 4.9582 2.1987 9.08 7.68 9.08 1.7593 0 2.5214-0.0803 3.08-0.2v-9.64h6.24v13.72c-3.5405 1.3909-8.9813 1.44-9.72 1.44-7.9578 0-13.76-4.8354-13.76-14.4 0-9.3096 6.2351-14.48 13.88-14.48 4.3252 0 7.7259 1.1987 9.2 2.12l-1.8 5c-0.98137-0.52135-3.5054-1.68-6.56-1.68z" fill="#282828" opacity=".15" aria-label="FIG"/>
  <path d="m99.06 224.72v-27.72h18.56v5.24h-12.32v5.8h10.96v5.24h-10.96v11.44zm22.96-27.72h6.24v27.72h-6.24zm26.16 4.8c-6.2421 0-8.24 3.9646-8.24 9.04 0 4.9582 2.1987 9.08 7.68 9.08 1.7593 0 2.5214-0.0803 3.08-0.2v-9.64h6.24v13.72c-3.5405 1.3909-8.9813 1.44-9.72 1.44-7.9578 0-13.76-4.8354-13.76-14.4 0-9.3096 6.2351-14.48 13.88-14.48 4.3252 0 7.7259 1.1987 9.2 2.12l-1.8 5c-0.98137-0.52135-3.5054-1.68-6.56-1.68z" fill="#ebdbb2" aria-label="FIG"/>
  <path d="m147.34 196.36c-7.6449 0-13.879 5.1709-13.879 14.48 0 0.53023 0.0196 1.0438 0.0547 1.5449 0.61781-8.3904 6.5879-13.025 13.824-13.025 3.6059 0 6.5509 0.83354 8.291 1.6445l0.9082-2.5234c-1.4741-0.92131-4.874-2.1211-9.1992-2.1211zm-48.279 0.64062v3h18.559v-3zm22.959 0v3h6.2402v-3zm-16.719 11.039v3h10.959v-3zm45.398 2.041v3h6.2402v-3zm-10.686 2.2129c-0.0461 0.50258-0.0742 1.0168-0.0742 1.5469 0 4.9582 2.1984 9.0801 7.6797 9.0801 1.7593 0 2.5215-0.0795 3.0801-0.19922v-3c-0.55857 0.1197-1.3208 0.19922-3.0801 0.19922-4.9345 0-7.2009-3.343-7.6055-7.627z" fill="#fbf1c7" opacity=".6"/>
  <path d="m136.07 43.107c-10.912-0.09921-22.389 3.8346-28.699 18.133-5.553 22.088 8.1504 34.76 16.369 37.332h7.0977l29.713-44.572h-3.5547v-6.6152c-5.134-1.925-12.838-4.2038-20.926-4.2773zm-4.0742 64.893h-7.4453l-29.332 44h2.7773v0.22656h0.19336v5.7461c11.648 4.515 39.193 11.916 50.434-13.551 3.373-13.422-3.627-25.422-16.627-36.422z" fill="#fe8019" opacity=".2" stroke-width=".85164"/>
  <path d="m134.07 41.955c-3.1127 0.06258-6.0525 0.45998-8.7988 1.1562-9.445 2.3938-16.464 8.2908-20.246 15.857-4.7994 9.5921-4.3057 21.98 2.3789 32.885l-16.621-9.1504c0.1371-0.57611 0.20982-1.1657 0.2168-1.7578 0-4.4183-3.5817-8-8-8s-8 3.5817-8 8 3.5817 8 8 8c1.9182-4.7e-4 3.7724-0.69016 5.2246-1.9434l28.986 15.959c0.57884 0.4732 1.1759 0.93785 1.7891 1.3945v9.5898h16.982c11.713 10.93 13.457 24.75 8.459 34.744-3.1299 6.2443-8.9318 11.195-17.006 13.242-6.8368 1.733-15.411 1.3727-25.402-2.2402v-9.7793h-17.033v17.033h17.033v-1.9453c10.071 3.3436 19.076 3.6969 26.623 1.7832 9.445-2.3938 16.464-8.2908 20.246-15.857 4.734-9.4614 4.2893-21.207-2.1602-31.707l15.367 8.4609c-0.0699 0.41831-0.10653 0.84151-0.10938 1.2656 0 4.4183 3.5817 8 8 8s8-3.5817 8-8-3.5817-8-8-8c-2.0892 7e-3 -4.0926 0.83174-5.582 2.2969l-27.611-15.203c-0.25719-0.20953-0.52118-0.41633-0.78516-0.62305l-0.0215-10.471h-16.998c-12.691-11.074-14.665-25.443-9.5156-35.74 3.1299-6.2443 8.9318-11.195 17.006-13.242 7.087-1.7964 16.043-1.3401 26.508 2.6543v9.3613h17.033v-17.033h-17.033v2.3359c-6.8238-2.3957-13.177-3.4419-18.93-3.3262zm22.93 4.9902h9v9h-9zm-74 30c2.2091 0 4 1.7909 4 4s-1.7909 4-4 4-4-1.7909-4-4 1.7909-4 4-4zm40 24h9c0 10.494-4e-3 -4.5055-4e-3 9h-8.996zm47 24c2.2091 0 4 1.7909 4 4s-1.7909 4-4 4-4-1.7909-4-4 1.7909-4 4-4zm-81 29h9v8.9998l-9 2e-4z" fill="#ebdbb2" opacity=".46"/>
  <path d="m134.07 40.01c-3.1127 0.06258-6.0525 0.45998-8.7988 1.1562-9.445 2.3938-16.464 8.2908-20.246 15.857-4.7994 9.5921-4.3057 21.98 2.3789 32.885l-16.621-9.1504c0.1371-0.57611 0.20982-1.1657 0.2168-1.7578 0-4.4183-3.5817-8-8-8s-8 3.5817-8 8 3.5817 8 8 8c1.9182-4.7e-4 3.7724-0.69016 5.2246-1.9434l28.986 15.959c0.57884 0.4732 1.1759 0.93785 1.7891 1.3945v9.5898h16.982c11.713 10.93 13.457 24.75 8.459 34.744-3.1299 6.2443-8.9318 11.195-17.006 13.242-6.8368 1.733-15.411 1.3727-25.402-2.2402v-9.7793h-17.033v17.033h17.033v-1.9453c10.071 3.3436 19.076 3.6969 26.623 1.7832 9.445-2.3938 16.464-8.2908 20.246-15.857 4.734-9.4614 4.2893-21.207-2.1602-31.707l15.367 8.4609c-0.0699 0.41831-0.10653 0.84151-0.10938 1.2656 0 4.4183 3.5817 8 8 8s8-3.5817 8-8-3.5817-8-8-8c-2.0892 7e-3 -4.0926 0.83174-5.582 2.2969l-27.611-15.203c-0.25719-0.20953-0.52118-0.41633-0.78516-0.62305l-0.0215-10.471h-16.998c-12.691-11.074-14.665-25.443-9.5156-35.74 3.1299-6.2443 8.9318-11.195 17.006-13.242 7.087-1.7964 16.043-1.3401 26.508 2.6543v9.3613h17.033v-17.033h-17.033v2.3359c-6.8238-2.3957-13.177-3.4419-18.93-3.3262zm22.93 4.9902h9v9h-9zm-74 30c2.2091 0 4 1.7909 4 4s-1.7909 4-4 4-4-1.7909-4-4 1.7909-4 4-4zm40 24h9c0 10.494-4e-3 -4.5055-4e-3 9h-8.996zm47 24c2.2091 0 4 1.7909 4 4s-1.7909 4-4 4-4-1.7909-4-4 1.7909-4 4-4zm-81 29h9v8.9998l-9 2e-4z" fill="#fe8019"/>
  <path d="m134.07 40.009c-3.1127 0.06258-6.0525 0.46003-8.7988 1.1562-9.445 2.3938-16.464 8.2912-20.246 15.857-2.2364 4.4697-3.3074 9.5479-3.1543 14.799 0.13433-4.5555 1.1954-8.9385 3.1543-12.854 3.782-7.5662 10.801-13.464 20.246-15.857 2.7463-0.69622 5.6861-1.0937 8.7988-1.1562 5.753-0.1157 12.106 0.93047 18.93 3.3262v-1.9453c-6.8238-2.3957-13.177-3.4419-18.93-3.3262zm18.93 0.99023v1.9453h17.033v-1.9453zm4 13v1.9453h9v-1.9453zm-74 17c-4.4183 0-8 3.5817-8 8 0 0.32987 0.0257 0.65326 0.0644 0.97266 0.48073-3.9587 3.8471-7.0274 7.9356-7.0274 4.0762 0 7.4331 3.0508 7.9297 6.9922 0.0405-0.3109 0.0666-0.62355 0.0703-0.9375 0-4.4183-3.5817-8-8-8zm23.877 0.51367c-0.34057 8.4177 3.2898 17.722 12.125 25.432h16.998l0.0215 10.471c0.26398 0.20672 0.52797 0.41351 0.78516 0.62304l27.611 15.203c1.4894-1.4652 3.4909-2.2899 5.5801-2.2969 4.0886 0 7.455 3.0685 7.9355 7.0274 0.0388-0.3194 0.0645-0.64279 0.0645-0.97266 0-4.4183-3.5817-8-8-8-2.0892 7e-3 -4.0907 0.83172-5.5801 2.2969l-27.611-15.203c-0.25719-0.20953-0.52118-0.41633-0.78516-0.62305l-0.0215-10.471h-16.998c-8.1602-7.1205-11.871-15.6-12.125-23.486zm-27.744 8.459c-0.07857 0.31282-0.13281 0.63546-0.13281 0.97265 0 2.2091 1.7909 4 4 4s4-1.7909 4-4c0-0.33719-0.0542-0.65983-0.13281-0.97265-0.43617 1.7366-1.9953 3.0273-3.8672 3.0273s-3.431-1.2907-3.8672-3.0273zm11.863 0.90234c2e-4 0.0237 4e-3 0.0466 4e-3 0.0703-7e-3 0.59211-0.0797 1.1817-0.2168 1.7578l16.621 9.1504c-0.56498-0.92168-1.0698-1.8566-1.5469-2.7969zm32.004 27.125v1.9453h8.9961c0-2.9192-2.9e-4 -1.1443 0-1.9453zm23.742 11.219c3.4081 5.5485 5.1223 11.443 5.2988 17.166 0.16643-5.3793-1.0496-10.963-3.7539-16.316zm15.289 8.418c0.011 0.13939 0.0269 0.27677 0.0449 0.41406 0.0148-0.12341 0.0127-0.24842 0.0332-0.37109zm4.1016 0.33594c-0.0786 0.31282-0.13281 0.63546-0.13281 0.97265 0 2.2091 1.7909 4 4 4s4-1.7909 4-4c0-0.33719-0.0542-0.65983-0.13281-0.97265-0.43617 1.7366-1.9953 3.0273-3.8672 3.0273s-3.431-1.2907-3.8672-3.0273zm-19.084 8.5273c-0.15173 3.6503-1.0514 7.1328-2.6074 10.244-3.1299 6.2443-8.9317 11.195-17.006 13.242-6.8368 1.733-15.411 1.3727-25.402-2.2402v1.9453c9.991 3.6129 18.566 3.9732 25.402 2.2402 8.0742-2.047 13.876-6.9979 17.006-13.242 1.83-3.6592 2.7435-7.834 2.6074-12.189zm-62.049 11.467v1.9453h17.033v-1.9453zm4 13.033v1.9453h9v-1.9453z" fill="#282828" opacity=".15"/>
  <path d="m57 15c-9.9393 0-17 7.0595-17 17v192c0 9.9393 7.0595 17 17 17h142c9.9405 0 17-7.0607 17-17v-144l-65-65zm4.0332 4.9902 89.967 0.01 60 60 2e-4 139.75c1e-5 9.4999-6.6575 16.248-16.033 16.248h-133.93c-9.3757 0-16.033-6.7481-16.033-16.248v-183.51c0-9.501 6.6586-16.25 16.033-16.25z" fill="url(#linearGradient14-5)" style="paint-order:markers fill stroke"/>
  <path d="m151 15.001v52.914c0 9.6525 7.8639 17.084 17.518 17.084l47.482-1.34e-4v-5z" fill="#282828" opacity=".2" stroke-width="1.0833"/>
  <path d="m151 15v47.916c0 9.6525 7.8639 17.084 17.518 17.084l47.482-1.34e-4z" fill="url(#linearGradient7-6-0)" stroke-width="1.0833"/>
</svg>
