<svg width="256" height="256" version="1.1" viewBox="0 0 256 256" xmlns="http://www.w3.org/2000/svg">
  <defs>
    <linearGradient id="linearGradient26" x1="-160" x2="-160" y2="226" gradientTransform="translate(267,15)" gradientUnits="userSpaceOnUse">
      <stop stop-color="#3c3836" offset="0"/>
      <stop stop-color="#d5c4a1" offset="1"/>
    </linearGradient>
    <linearGradient id="linearGradient7-6-0-1" x1="186" x2="156" y1="45.006" y2="75.012" gradientTransform="matrix(1.0833,0,0,1.0833,-17.999,-1.2492)" gradientUnits="userSpaceOnUse">
      <stop stop-color="#928374" offset="0"/>
      <stop stop-color="#665c54" offset=".3027"/>
      <stop stop-color="#3c3836" offset="1"/>
    </linearGradient>
    <linearGradient id="linearGradient14-5-3" x1="128" x2="128" y1="15.001" y2="241" gradientTransform="translate(0,4.8e-4)" gradientUnits="userSpaceOnUse">
      <stop stop-color="#ebdbb2" stop-opacity=".1" offset="0"/>
      <stop stop-color="#ebdbb2" stop-opacity=".05" offset=".2"/>
      <stop stop-color="#282828" stop-opacity=".049032" offset=".70405"/>
      <stop stop-color="#282828" stop-opacity=".050323" offset=".80473"/>
      <stop stop-color="#282828" stop-opacity=".099355" offset="1"/>
    </linearGradient>
  </defs>
  <path d="m57 15c-9.9393 0-17 7.0595-17 17v192c0 9.9393 7.0595 17 17 17h142c9.9405 0 17-7.0607 17-17v-144l-64.999-64.999z" fill="url(#linearGradient26)" stroke-linecap="round" stroke-linejoin="round" stroke-miterlimit="0" style="paint-order:markers fill stroke"/>
  <path d="m57 241c-9.9393 0-17-7.0595-17-17v-43h176v43c0 9.9405-7.0607 17-17 17z" fill="#d5c4a1" opacity=".5" stroke-linecap="round" stroke-linejoin="round" stroke-miterlimit="0" style="paint-order:markers fill stroke"/>
  <path d="m88.68 227.72v-27.72h18.56v5.24h-12.32v5.8h10.96v5.24h-10.96v11.44zm22.96-27.72h6.24v27.72h-6.24zm33.2 0v5.32h-8.36v22.4h-6.24v-22.4h-8.36v-5.32zm11.56 22.96c3.4175 0 4.48-1.1228 4.48-2.88 0-1.533-1.0262-2.6487-5.68-4.2-3.4634-1.2224-7.6-2.9551-7.6-8.2 0-5.1508 4.0386-8.32 10.2-8.32 3.7211 0 6.4108 0.94405 8.2 1.92l-1.8 4.92c-1.873-0.99727-3.8907-1.4678-6-1.52-2.9192 0-4.2 0.79833-4.2 2.52 0.24727 2.3866 2.8628 3.0035 4.8 3.68 5.9312 2.1967 8.52 4.0081 8.52 9.24 0 6.7588-5.9696 8.16-10.92 8.16-2.0763 0-6.0494-0.27394-9.28-2.12l1.76-4.96c2.3212 1.3162 4.8902 1.7066 7.52 1.76z" fill="#ebdbb2" opacity=".3" aria-label="FITS"/>
  <path d="m88.68 224.72v-27.72h18.56v5.24h-12.32v5.8h10.96v5.24h-10.96v11.44zm22.96-27.72h6.24v27.72h-6.24zm33.2 0v5.32h-8.36v22.4h-6.24v-22.4h-8.36v-5.32zm11.56 22.96c3.4175 0 4.48-1.1228 4.48-2.88 0-1.533-1.0262-2.6487-5.68-4.2-3.4634-1.2224-7.6-2.9551-7.6-8.2 0-5.1508 4.0386-8.32 10.2-8.32 3.7211 0 6.4108 0.94405 8.2 1.92l-1.8 4.92c-1.873-0.99727-3.8907-1.4678-6-1.52-2.9192 0-4.2 0.79833-4.2 2.52 0.24727 2.3866 2.8628 3.0035 4.8 3.68 5.9312 2.1967 8.52 4.0081 8.52 9.24 0 6.7588-5.9696 8.16-10.92 8.16-2.0763 0-6.0494-0.27394-9.28-2.12l1.76-4.96c2.3212 1.3162 4.8902 1.7066 7.52 1.76z" fill="#665c54" aria-label="FITS"/>
  <path d="m157.8 196.36c-6.1614-1e-5 -10.201 3.1696-10.201 8.3203 0 0.53573 0.0536 1.0265 0.13477 1.4922 0.7224-4.2506 4.534-6.8125 10.066-6.8125 3.1298 0 5.5211 0.66991 7.2695 1.4629l0.92969-2.541c-1.7893-0.97595-4.4781-1.9219-8.1992-1.9219zm-69.121 0.64062v3h18.561v-3zm22.961 0v3h6.2402v-3zm10.24 0v3h22.959v-3zm32.676 8.6484c-0.37777 0.39228-0.55664 0.90625-0.55664 1.5508 0.24727 2.3866 2.8636 3.0052 4.8008 3.6816 5.275 1.9537 7.9003 3.6076 8.418 7.6289 0.061-0.43818 0.10156-0.89484 0.10156-1.3887 0-5.2319-2.5883-7.0435-8.5195-9.2402-1.4676-0.5125-3.3226-0.99287-4.2441-2.2324zm-59.637 2.3926v2.998h10.961v-2.998zm53.961 10.16-1.7617 4.959c0.29411 0.16806 0.59987 0.31014 0.9043 0.45312l0.85742-2.4141c2.3212 1.3162 4.8898 1.7083 7.5195 1.7617 3.4175 0 4.4805-1.1236 4.4805-2.8809 0-0.50943-0.13299-0.97137-0.45508-1.4199-0.58495 0.81762-1.7996 1.3008-4.0254 1.3008-2.6298-0.0534-5.1983-0.44361-7.5195-1.7598z" fill="#282828" opacity=".3"/>
  <path d="m162.8 61.09c-12.813 0-23.2 10.6-23.2 23.676s10.387 23.676 23.2 23.676 23.2-10.6 23.2-23.676-10.387-23.676-23.2-23.676zm-55.68 37.882-37.12 71.028h116l-30.16-47.352-16.24 23.676z" fill="#282828" opacity=".2" stroke-linecap="round" stroke-linejoin="round" stroke-miterlimit="0" stroke-width="3.5155" style="paint-order:markers fill stroke"/>
  <path d="m162.8 56.09c-12.813 0-23.2 10.6-23.2 23.676s10.387 23.676 23.2 23.676 23.2-10.6 23.2-23.676-10.387-23.676-23.2-23.676zm-55.68 37.882-37.12 71.028h116l-30.16-47.352-16.24 23.676z" fill="#ebdbb2" stroke-linecap="round" stroke-linejoin="round" stroke-miterlimit="0" stroke-width="3.5155" style="paint-order:markers fill stroke"/>
  <path d="m162.8 56.09c-12.813 0-23.201 10.6-23.201 23.676 0 0.50416 0.02233 1.0037 0.05273 1.5 0.75894-12.376 10.83-22.176 23.148-22.176 12.319 0 22.39 9.7994 23.148 22.176 0.0304-0.49633 0.05078-0.99584 0.05078-1.5 0-13.076-10.386-23.676-23.199-23.676zm-55.682 37.881-37.119 71.029h3.1348l33.984-65.029 32.48 47.354 16.24-23.676 26.338 41.352h3.8223l-30.16-47.352-16.24 23.676-32.48-47.354z" fill="#fbf1c7" opacity=".4" style="paint-order:markers fill stroke"/>
  <path d="m57 15c-9.9393 0-17 7.0595-17 17v192c0 9.9393 7.0595 17 17 17h142c9.9405 0 17-7.0607 17-17v-144l-65-64.998zm4.0332 4.9902 89.967 2e-3 60 60.009v139.75c0 9.4999-6.6575 16.248-16.033 16.248h-133.93c-9.3757 0-16.033-6.7481-16.033-16.248v-183.51c0-9.501 6.6586-16.25 16.033-16.25z" fill="url(#linearGradient14-5-3)" style="paint-order:markers fill stroke"/>
  <path d="m151 15.002v52.914c0 9.6525 7.8639 17.084 17.518 17.084l47.482-1.34e-4v-5z" fill="#282828" opacity=".3" stroke-width="1.0833"/>
  <path d="m151 15.002v47.916c0 9.6525 7.8639 17.084 17.518 17.084l47.482-1.34e-4z" fill="url(#linearGradient7-6-0-1)" stroke-width="1.0833"/>
  <text x="106.0167" y="19.991199" font-family="Sans" font-size="40px" font-weight="bold" letter-spacing="0px" word-spacing="0px" style="font-variant-ligatures:none;line-height:1.25" xml:space="preserve"><tspan/></text>
</svg>
