<svg width="256" height="256" version="1.1" viewBox="0 0 256 256" xmlns="http://www.w3.org/2000/svg">
  <defs>
    <linearGradient id="linearGradient26" x1="-160" x2="-160" y2="226" gradientTransform="translate(267,15)" gradientUnits="userSpaceOnUse">
      <stop stop-color="#d79921" offset="0"/>
      <stop stop-color="#fabd2f" offset="1"/>
    </linearGradient>
    <linearGradient id="linearGradient7-6-0" x1="186" x2="156" y1="45.006" y2="75.012" gradientTransform="matrix(1.0833 0 0 1.0833 -17.998 -1.2506)" gradientUnits="userSpaceOnUse">
      <stop stop-color="#fabd2f" offset="0"/>
      <stop stop-color="#d79921" offset=".3027"/>
      <stop stop-color="#b57614" offset="1"/>
    </linearGradient>
    <linearGradient id="linearGradient14-5-6" x1="128" x2="128" y1="15.001" y2="241" gradientTransform="translate(0,4.8e-4)" gradientUnits="userSpaceOnUse">
      <stop stop-color="#ebdbb2" stop-opacity=".2" offset="0"/>
      <stop stop-color="#ebdbb2" stop-opacity=".1" offset=".2"/>
      <stop stop-opacity="0" offset=".70405"/>
      <stop stop-opacity=".05" offset=".80473"/>
      <stop stop-opacity=".1" offset="1"/>
    </linearGradient>
  </defs>
  <path d="m57 15c-9.9393 0-17 7.0595-17 17v192c0 9.9393 7.0595 17 17 17h142c9.9405 0 17-7.0607 17-17v-144l-64.999-64.999z" fill="url(#linearGradient26)" stroke-linecap="round" stroke-linejoin="round" stroke-miterlimit="0" style="paint-order:markers fill stroke"/>
  <path d="m57 241c-9.9393 0-17-7.0595-17-17v-43h176v43c0 9.9405-7.0607 17-17 17z" fill="#fb4934" stroke-linecap="round" stroke-linejoin="round" stroke-miterlimit="0" style="paint-order:markers fill stroke"/>
  <path d="m110.74 227.72c-1.9571-3.1686-6.1991-8.6704-10.12-11.72v11.72h-6.24v-27.72h6.24v10.48c3.2506-3.4103 6.335-6.9732 9.48-10.48h7.4c-2.2923 2.712-6.5669 7.6069-11.72 12.76 5.4224 4.5078 9.7838 10.787 12.36 14.96zm27.64-20.44c0 0.90965-0.0273 3.8273-4.32 8.12-2.1765 2.4334-5.2168 4.3716-6.76 7.32h11.92v5h-18.48c-0.10889-0.68719-0.08-1.3866-0.08-2.08 0-1.28 0.2-2.4533 0.6-3.52 1.6582-4.0058 5.1388-6.7615 8.2-9.68 1.7851-1.7851 2.84-3.158 2.84-4.76 0-2.6547-1.9104-3.2-3.48-3.2-3.0616 0-5.7219 2.6019-5.92 2.8l-2.96-4.16c1.3686-1.2753 4.6133-3.76 9.12-3.76 7.8006 0 9.32 4.4517 9.32 7.92zm17.28 12.28c0-2.7913-1.9009-4.8-11.2-4.8 0.73601-6.2226 1.0538-12.53 1.16-14.76h15v5h-10c-0.0345 0.62036-0.24822 3.8551-0.4 5.12 6.775 0.46404 11.4 3.0484 11.4 9.24 0 5.0172-3.4992 8.96-10.96 8.96-2.5386 0-6.6271-0.81355-7.88-1.44l1.08-4.92c2.0767 0.93935 4.3022 1.2392 6.56 1.28 4.8191 0 5.24-2.7272 5.24-3.68z" color="#000000" color-rendering="auto" dominant-baseline="auto" fill="#282828" image-rendering="auto" opacity=".2" shape-rendering="auto" solid-color="#000000" stop-color="#000000" style="-inkscape-stroke:none;font-feature-settings:normal;font-variant-alternates:normal;font-variant-caps:normal;font-variant-east-asian:normal;font-variant-ligatures:normal;font-variant-numeric:normal;font-variant-position:normal;font-variation-settings:normal;inline-size:0;isolation:auto;mix-blend-mode:normal;shape-margin:0;shape-padding:0;text-decoration-color:#000000;text-decoration-line:none;text-decoration-style:solid;text-indent:0;text-orientation:mixed;text-transform:none;white-space:normal" aria-label="K25"/>
  <path d="m110.74 224.72c-1.9571-3.1686-6.1991-8.6704-10.12-11.72v11.72h-6.24v-27.72h6.24v10.48c3.2506-3.4103 6.335-6.9732 9.48-10.48h7.4c-2.2923 2.712-6.5669 7.6069-11.72 12.76 5.4224 4.5078 9.7838 10.787 12.36 14.96zm27.64-20.44c0 0.90965-0.0273 3.8273-4.32 8.12-2.1765 2.4334-5.2168 4.3716-6.76 7.32h11.92v5h-18.48c-0.10889-0.68719-0.08-1.3866-0.08-2.08 0-1.28 0.2-2.4533 0.6-3.52 1.6582-4.0058 5.1388-6.7615 8.2-9.68 1.7851-1.7851 2.84-3.158 2.84-4.76 0-2.6547-1.9104-3.2-3.48-3.2-3.0616 0-5.7219 2.6019-5.92 2.8l-2.96-4.16c1.3686-1.2753 4.6133-3.76 9.12-3.76 7.8006 0 9.32 4.4517 9.32 7.92zm17.28 12.28c0-2.7913-1.9009-4.8-11.2-4.8 0.73601-6.2226 1.0538-12.53 1.16-14.76h15v5h-10c-0.0345 0.62036-0.24822 3.8551-0.4 5.12 6.775 0.46404 11.4 3.0484 11.4 9.24 0 5.0172-3.4992 8.96-10.96 8.96-2.5386 0-6.6271-0.81355-7.88-1.44l1.08-4.92c2.0767 0.93935 4.3022 1.2392 6.56 1.28 4.8191 0 5.24-2.7272 5.24-3.68z" color="#000000" color-rendering="auto" dominant-baseline="auto" fill="#fabd2f" image-rendering="auto" shape-rendering="auto" solid-color="#000000" stop-color="#000000" style="-inkscape-stroke:none;font-feature-settings:normal;font-variant-alternates:normal;font-variant-caps:normal;font-variant-east-asian:normal;font-variant-ligatures:normal;font-variant-numeric:normal;font-variant-position:normal;font-variation-settings:normal;inline-size:0;isolation:auto;mix-blend-mode:normal;shape-margin:0;shape-padding:0;text-decoration-color:#000000;text-decoration-line:none;text-decoration-style:solid;text-indent:0;text-orientation:mixed;text-transform:none;white-space:normal" aria-label="K25"/>
  <path d="m129.06 196.36c-4.5067-1e-5 -7.7525 2.4845-9.1211 3.7598l1.3477 1.8926c1.7-1.2411 4.3774-2.6524 7.7734-2.6523 6.5977 0 8.6934 3.1849 9.1855 6.2656 0.11591-0.608 0.13477-1.0755 0.13477-1.3457 0-3.4683-1.5197-7.9199-9.3203-7.9199zm-34.68 0.64062v3h6.2383v-3zm15.719 0c-3.145 3.5068-6.2298 7.0702-9.4805 10.48v3c3.2506-3.4103 6.3355-6.9737 9.4805-10.48h4.8047c1.0061-1.1451 1.9125-2.1917 2.5957-3zm35.52 0c-0.10617 2.2296-0.42219 8.5371-1.1582 14.76 0.10816 0 0.20243 3e-3 0.30859 4e-3 0.5075-5.1445 0.76066-9.8957 0.84961-11.764h15v-3zm-13.621 9.1133c-0.42841 1.0529-1.3019 2.091-2.5371 3.3262-3.0612 2.9185-6.543 5.6738-8.2012 9.6797-0.4 1.0667-0.59961 2.2415-0.59961 3.5215 0 0.62935-0.0184 1.2631 0.0586 1.8887 0.0836-0.85491 0.25993-1.6606 0.54102-2.4102 1.6582-4.0058 5.1399-6.7612 8.2012-9.6797 1.7851-1.7851 2.8398-3.1578 2.8398-4.7598 0-0.63776-0.11344-1.1504-0.30273-1.5664zm18.479 1.0293c-0.0799 1.1068-0.17421 2.2962-0.25586 2.9766 6.1838 0.42355 10.564 2.6239 11.283 7.7109 0.0708-0.47858 0.11523-0.96763 0.11523-1.4707 0-6.112-4.5096-8.7047-11.143-9.2168zm-43.115 4.0137c-0.51855 0.53118-1.043 1.0645-1.582 1.6035 4.2411 3.5257 7.8196 8.1233 10.416 11.961h1.9453c-2.3201-3.7579-6.0923-9.222-10.779-13.564zm47.996 6.7793c-0.47997 1.0917-1.7196 2.3047-4.9375 2.3047-2.2578-0.0408-4.4839-0.33994-6.5605-1.2793l-1.0801 4.9199c0.15845 0.0792 0.36519 0.159 0.60547 0.24219l0.47461-2.1621c2.0767 0.93935 4.3027 1.2385 6.5605 1.2793 4.8191 0 5.2402-2.7269 5.2402-3.6797 0-0.57967-0.0895-1.1238-0.30274-1.625zm-25.785 1.7852c-0.88674 0.90941-1.6864 1.8822-2.2715 3h11.92v-3z" color="#000000" color-rendering="auto" dominant-baseline="auto" fill="#ebdbb2" image-rendering="auto" opacity=".4" shape-rendering="auto" solid-color="#000000" stop-color="#000000" style="-inkscape-stroke:none;font-feature-settings:normal;font-variant-alternates:normal;font-variant-caps:normal;font-variant-east-asian:normal;font-variant-ligatures:normal;font-variant-numeric:normal;font-variant-position:normal;font-variation-settings:normal;inline-size:0;isolation:auto;mix-blend-mode:normal;shape-margin:0;shape-padding:0;text-decoration-color:#000000;text-decoration-line:none;text-decoration-style:solid;text-indent:0;text-orientation:mixed;text-transform:none;white-space:normal"/>
  <path d="m139.88 56.5-13.95 39.241 55.036-9.1349c-8.1283-15.428-23.137-26.788-41.086-30.112zm42.806 37.917-41.521 7.6859 35.57 42.439c9.5001-14.674 11.95-33.193 5.9045-50.128l0.0464 0.0027zm-11.911 55.509-27.532-31.561-19.524 51.577c17.659 0.75351 35.145-6.402 47.008-20.026h0.058zm-54.707 17.592 13.988-39.241-55.074 9.1349c8.1554 15.447 23.185 26.798 41.086 30.112zm-42.806-37.888 41.501-7.6859-35.57-42.439c-9.4856 14.694-11.95 33.193-5.9035 50.128l-0.03231-3e-3zm11.882-55.48 27.532 31.561 19.524-51.587c-17.64-0.75352-35.145 6.402-46.988 20.026" fill="#ebdbb2" opacity=".3" stroke-width=".96605"/>
  <path d="m139.88 51.504-13.95 39.241 55.036-9.1349c-8.1283-15.428-23.137-26.788-41.086-30.112zm42.806 37.917-41.521 7.6859 35.57 42.439c9.5001-14.674 11.95-33.193 5.9045-50.128l0.0464 0.0027zm-11.911 55.509-27.532-31.561-19.524 51.577c17.659 0.75351 35.145-6.402 47.008-20.026h0.058zm-54.707 17.592 13.988-39.241-55.074 9.135c8.1554 15.447 23.185 26.798 41.086 30.112zm-42.806-37.888 41.501-7.6859-35.57-42.439c-9.4856 14.694-11.95 33.193-5.9035 50.128l-0.03231-3e-3zm11.882-55.48 27.532 31.561 19.524-51.587c-17.64-0.75352-35.145 6.402-46.988 20.026" fill="#fb4934" stroke-width=".96605"/>
  <path d="m128.9 49.079c-16.501 0.21514-32.582 7.3035-43.686 20.076h-0.06641l2.2734 2.6055c11.307-11.608 26.968-17.838 42.902-17.664l1.8808-4.9688c-1.1025-0.04709-2.2046-0.06317-3.3047-0.04883zm10.984 2.4199v0.0059l-13.949 39.242 1.8867-0.3125 12.062-33.934v-0.0059c16.13 2.9864 29.867 12.476 38.389 25.562l2.6973-0.44727c-8.1283-15.428-23.137-26.788-41.086-30.111zm-60.688 23.012c-6.5036 10.074-9.7046 21.938-9.127 33.859 0.4054-10.21 3.5338-20.199 9.127-28.863l31.947 38.115 3.623-0.67187zm103.45 14.908c1e-3 0.0039 3e-3 0.0078 4e-3 0.01172l0.043-0.0078v-2e-3zm4e-3 0.01172-41.477 7.6777 3.625 4.3242 37.852-7.0059c-1e-3 -0.0039-3e-3 -0.0078-4e-3 -0.01172l0.0469 2e-3v2e-3l-0.043 0.0078c1.902 5.3316 2.9594 10.819 3.2227 16.295 0.28466-7.114-0.74113-14.335-3.2227-21.291zm-39.4 23.939-19.523 51.578c0.6278 0.0268 1.2538 0.0205 1.8809 0.0273l17.643-46.609 25.266 28.959c0.75871-0.77755 1.5001-1.577 2.2188-2.4023h0.041zm27.525 31.553 8e-3 0.01 0.01-0.01zm-40.711-21.641-55.074 9.1348c0.8254 1.5634 1.7371 3.0734 2.6992 4.5488l50.482-8.373z" fill="#282828" opacity=".2" stroke-width=".96605"/>
  <path d="m57 15c-9.9393 0-17 7.0595-17 17v192c0 9.9393 7.0595 17 17 17h142c9.9405 0 17-7.0607 17-17v-144l-65-64.998zm4.0332 4.9902 89.967 2e-3 60 60.009v139.75c0 9.4999-6.6575 16.248-16.033 16.248h-133.93c-9.3757 0-16.033-6.7481-16.033-16.248v-183.51c0-9.501 6.6586-16.25 16.033-16.25z" fill="url(#linearGradient14-5-6)" style="paint-order:markers fill stroke"/>
  <path d="m151 15.002v52.914c0 9.6525 7.8639 17.084 17.518 17.084l47.482-1.3e-4v-5z" fill="#282828" opacity=".2" stroke-width="1.0833"/>
  <path d="m151 15.001v47.916c0 9.6525 7.8639 17.084 17.518 17.084l47.482-1.34e-4z" fill="url(#linearGradient7-6-0)" stroke-width="1.0833"/>
</svg>
