<svg width="256" height="256" version="1.1" viewBox="0 0 256 256" xmlns="http://www.w3.org/2000/svg">
  <defs>
    <linearGradient id="linearGradient21" x1="128" x2="128" y1="15" y2="241" gradientUnits="userSpaceOnUse">
      <stop stop-color="#ebdbb2" offset="0"/>
      <stop stop-color="#d5c4a1" offset="1"/>
    </linearGradient>
    <linearGradient id="linearGradient7-6-0-3-8" x1="186" x2="156" y1="45.006" y2="75.012" gradientTransform="matrix(1.0833,0,0,1.0833,-17.995,-1.2495)" gradientUnits="userSpaceOnUse">
      <stop stop-color="#b8bb26" offset="0"/>
      <stop stop-color="#98971a" offset=".3027"/>
      <stop stop-color="#79740e" offset="1"/>
    </linearGradient>
    <linearGradient id="linearGradient14-2-3" x1="128" x2="128" y1="15.001" y2="241" gradientTransform="translate(.001 .001505)" gradientUnits="userSpaceOnUse">
      <stop stop-color="#79740e" stop-opacity=".099355" offset="0"/>
      <stop stop-color="#79740e" stop-opacity=".051613" offset=".2"/>
      <stop stop-color="#282828" stop-opacity=".045161" offset=".70405"/>
      <stop stop-color="#282828" stop-opacity=".047742" offset=".80473"/>
      <stop stop-color="#282828" stop-opacity=".10194" offset="1"/>
    </linearGradient>
  </defs>
  <path d="m57 15c-9.9393 0-17 7.0595-17 17v149h176v-101l-64.998-64.998-94.002-0.00195z" fill="url(#linearGradient21)" style="paint-order:markers fill stroke"/>
  <path d="m57 241c-9.9393 0-17-7.0595-17-17v-43h176v43c0 9.9405-7.0607 17-17 17z" fill="#98971a" stroke-linecap="round" stroke-linejoin="round" stroke-miterlimit="0" style="paint-order:markers fill stroke"/>
  <path d="m94.5 213.84c0 5.6625 2.8829 8.96 7.36 8.96 4.8781 0 7.36-3.9271 7.36-8.96 0-4.1703-1.8734-9-7.36-9-4.1749 0-7.36 3.1092-7.36 9zm21.16 0c0 9.292-5.7804 14.44-13.8 14.44-7.1983 0-13.8-4.5179-13.8-14.44 0-9.2833 6.2024-14.48 13.8-14.48 7.6238 0 13.8 4.991 13.8 14.48zm19.6 13.88c-0.95148-1.903-3.0803-5.9231-5.72-9.56-2.4596 3.1624-5.5122 8.7834-5.88 9.56h-7.12c2.4907-4.5852 5.4548-8.9917 9.32-14.36l-8.92-13.36h7.56l5.4 8.64 5.28-8.64h7.12l-8.8 13.44c2.0317 2.6364 5.9681 8.0336 9.24 14.28zm32.68-27.72v5.32h-8.36v22.4h-6.24v-22.4h-8.36v-5.32z" fill="#282828" opacity=".2" aria-label="OXT"/>
  <path d="m94.5 210.84c0 5.6625 2.8829 8.96 7.36 8.96 4.8781 0 7.36-3.9271 7.36-8.96 0-4.1703-1.8733-9-7.36-9-4.1749 0-7.36 3.1092-7.36 9zm21.16 0c0 9.292-5.7804 14.44-13.8 14.44-7.1983 0-13.8-4.5179-13.8-14.44 0-9.2833 6.2024-14.48 13.8-14.48 7.6238 0 13.8 4.991 13.8 14.48zm19.6 13.88c-0.95148-1.903-3.0803-5.9231-5.72-9.56-2.4596 3.1624-5.5122 8.7834-5.88 9.56h-7.12c2.4907-4.5852 5.4548-8.9917 9.32-14.36l-8.92-13.36h7.56l5.4 8.64 5.28-8.64h7.12l-8.8 13.44c2.0317 2.6364 5.9681 8.0336 9.24 14.28zm32.68-27.72v5.32h-8.36v22.4h-6.24v-22.4h-8.36v-5.32z" fill="#ebdbb2" aria-label="OXT"/>
  <path d="m101.86 196.36c-7.5976 0-13.799 5.1952-13.799 14.479 0 0.5124 0.02811 1.0026 0.0625 1.4863 0.64082-8.3292 6.5637-12.967 13.736-12.967 7.2233 0 13.138 4.4878 13.74 13.029 0.0371-0.5039 0.0606-1.0176 0.0606-1.5488 3e-5 -9.489-6.177-14.479-13.801-14.479zm15.08 0.63867 2.002 3h5.5586l5.4004 8.6406 5.2793-8.6406h5.1562l1.9648-3h-7.1211l-5.2793 8.6406-5.4004-8.6406zm28.041 0v3h22.959v-3zm-20.152 14.816c-3.3508 4.7078-6.031 8.751-8.2871 12.904h1.7129c2.1232-3.5627 4.5867-7.1686 7.6055-11.361zm9.7168 0.0254-1.0449 1.5976c1.6967 2.2017 4.7191 6.3421 7.5762 11.281h1.6641c-2.8072-5.3593-6.0324-9.9772-8.1953-12.879zm-25.408 0.49609c-0.45346 4.2914-2.8963 7.4629-7.2773 7.4629-4.0612 0-6.8017-2.7204-7.2774-7.4512-0.0483 0.4774-0.082 0.96906-0.082 1.4902 0 5.6625 2.8823 8.9609 7.3594 8.9609 4.8781 0 7.3613-3.928 7.3613-8.9609 0-0.49436-0.0284-0.99819-0.084-1.502z" fill="#fbf1c7" opacity=".4"/>
  <path class="ColorScheme-Text" d="m123.21 55c-6.5214 0-11.786 5.2643-11.786 11.786v11.786h-23.571c-4.3214 0-7.8571 3.5357-7.8571 7.8571v23.571h11.786c6.5214 0 11.786 5.2643 11.786 11.786 0 6.5214-5.2643 11.786-11.786 11.786h-11.786v23.571c0 4.3214 3.5357 7.8571 7.8571 7.8571h23.571v-11.786c0-6.5214 5.2643-11.786 11.786-11.786s11.786 5.2643 11.786 11.786v11.786h23.571c4.3214 0 7.8572-3.5357 7.8572-7.8571v-23.571h11.786c6.5214 0 11.786-5.2643 11.786-11.786 0-6.5214-5.2643-11.786-11.786-11.786h-11.786v-23.571c0-4.3214-3.5357-7.8571-7.8572-7.8571h-23.571v-11.786c0-6.5214-5.2643-11.786-11.786-11.786z" color="#ebdbb2" fill="#ebdbb2" opacity=".6" stroke-width="7.8571"/>
  <path class="ColorScheme-Text" d="m123.21 50c-6.5214 0-11.786 5.2643-11.786 11.786v11.786h-23.571c-4.3214 0-7.8571 3.5357-7.8571 7.8571v23.571h11.786c6.5214 0 11.786 5.2643 11.786 11.786 0 6.5214-5.2643 11.786-11.786 11.786h-11.786v23.571c0 4.3214 3.5357 7.8571 7.8571 7.8571h23.571v-11.786c0-6.5214 5.2643-11.786 11.786-11.786s11.786 5.2643 11.786 11.786v11.786h23.571c4.3214 0 7.8572-3.5357 7.8572-7.8571v-23.571h11.786c6.5214 0 11.786-5.2643 11.786-11.786 0-6.5214-5.2643-11.786-11.786-11.786h-11.786v-23.571c0-4.3214-3.5357-7.8571-7.8572-7.8571h-23.571v-11.786c0-6.5214-5.2643-11.786-11.786-11.786z" color="#ebdbb2" fill="#98971a" stroke-width="7.8571"/>
  <path class="ColorScheme-Text" d="m123.21 50c-6.5214 0-11.787 5.2637-11.787 11.785v5c0-6.5214 5.2657-11.785 11.787-11.785s11.785 5.2637 11.785 11.785v-5c0-6.5214-5.2637-11.785-11.785-11.785zm-35.357 23.572c-4.3214 0-7.8574 3.534-7.8574 7.8555v5c0-4.3214 3.536-7.8555 7.8574-7.8555h23.57v-5zm47.143 0v5h23.572c4.3214 0 7.8555 3.534 7.8555 7.8555v-5c0-4.3214-3.534-7.8555-7.8555-7.8555zm31.428 31.428v5h11.787c5.6625 0 10.372 3.9705 11.516 9.2852 0.17345-0.80608 0.26953-1.6412 0.26953-2.5 0-6.5214-5.2637-11.785-11.785-11.785zm-63.127 14.285c-1.1436 5.3147-5.853 9.2871-11.516 9.2871h-11.785v5h11.785c6.5214 0 11.787-5.2657 11.787-11.787 0-0.85892-0.098-1.6939-0.27149-2.5z" color="#ebdbb2" fill="#282828" opacity=".2" stroke-width="7.8571"/>
  <path d="m57.001 15.001c-9.9393 0-17 7.0595-17 17v192c0 9.9393 7.0595 17 17 17h142c9.9405 0 17-7.0607 17-17v-144l-65-65zm4.0332 4.9902 89.967 0.01 60 60 2e-4 139.75c1e-5 9.4999-6.6575 16.248-16.033 16.248h-133.93c-9.3757 0-16.033-6.7481-16.033-16.248v-183.51c0-9.501 6.6586-16.25 16.033-16.25z" fill="url(#linearGradient14-2-3)" style="paint-order:markers fill stroke"/>
  <path d="m151 15.002v52.914c0 9.6525 7.8639 17.084 17.518 17.084l47.482-1.3e-4v-5z" fill="#282828" opacity=".2" stroke-width="1.0833"/>
  <path d="m151 15.002v47.916c0 9.6525 7.8639 17.084 17.518 17.084l47.482-1.3e-4z" fill="url(#linearGradient7-6-0-3-8)" stroke-width="1.0833"/>
</svg>
