<svg width="256" height="256" version="1.1" viewBox="0 0 256 256" xmlns="http://www.w3.org/2000/svg">
  <defs>
    <linearGradient id="linearGradient28" x1="104" x2="104" y1="15" y2="241" gradientUnits="userSpaceOnUse">
      <stop stop-color="#504945" offset="0"/>
      <stop stop-color="#504945" offset="1"/>
    </linearGradient>
    <linearGradient id="linearGradient7-6-0-1" x1="186" x2="156" y1="45.006" y2="75.012" gradientTransform="matrix(1.0833,0,0,1.0833,-17.998,-1.2507)" gradientUnits="userSpaceOnUse">
      <stop stop-color="#665c54" offset="0"/>
      <stop stop-color="#3c3836" offset=".3027"/>
      <stop stop-color="#282828" offset="1"/>
    </linearGradient>
    <linearGradient id="linearGradient14-5-8" x1="128" x2="128" y1="15.001" y2="241" gradientTransform="translate(0,4.8e-4)" gradientUnits="userSpaceOnUse">
      <stop stop-color="#ebdbb2" stop-opacity=".15" offset="0"/>
      <stop stop-color="#ebdbb2" stop-opacity=".05" offset=".2"/>
      <stop stop-opacity="0" offset=".70405"/>
      <stop stop-opacity=".05" offset=".80473"/>
      <stop stop-opacity=".1" offset="1"/>
    </linearGradient>
    <linearGradient id="linear-gradient-2" x1="567.8" x2="426.1" y1="55.5" y2="300.93" gradientTransform="matrix(.24814 0 0 .24814 57.447 73.413)" gradientUnits="userSpaceOnUse">
      <stop stop-color="#458588" offset="0"/>
      <stop stop-color="#83a598" offset=".05"/>
      <stop stop-color="#83a598" offset=".08"/>
      <stop stop-color="#458588" offset=".2"/>
      <stop stop-color="#458588" offset=".5"/>
      <stop stop-color="#076678" offset="1"/>
    </linearGradient>
    <linearGradient id="linear-gradient" x1="166.21" x2="402.46" y1="369.24" y2="-39.96" gradientTransform="matrix(.24814 0 0 .24814 57.447 73.413)" gradientUnits="userSpaceOnUse">
      <stop stop-color="#076678" offset="0"/>
      <stop stop-color="#458588" offset=".38"/>
      <stop stop-color="#076678" offset=".42"/>
      <stop stop-color="#076678" offset=".58"/>
      <stop stop-color="#458588" offset=".62"/>
      <stop stop-color="#076678" offset="1"/>
    </linearGradient>
  </defs>
  <path d="m57 15c-9.9393 0-17 7.0595-17 17v192c0 9.9393 7.0595 17 17 17h142c9.9405 0 17-7.0607 17-17v-144l-64.999-64.999z" fill="url(#linearGradient28)" stroke-linecap="round" stroke-linejoin="round" stroke-miterlimit="0" style="paint-order:markers fill stroke"/>
  <polygon class="cls-1" transform="matrix(.24814 0 0 .24814 57.447 73.413)" points="378.83 164.52 378.83 273.64 284.33 219.08" fill="#076678"/>
  <polygon class="cls-2" transform="matrix(.24814 0 0 .24814 57.447 73.413)" points="378.83 273.64 378.83 164.52 473.33 219.08" fill="#458588"/>
  <polygon class="cls-3" transform="matrix(.24814 0 0 .24814 57.447 73.413)" points="473.33 219.08 473.33 328.2 378.83 273.64" fill="#83a598"/>
  <path class="cls-4" d="m81.102 73.652v27.076l23.449 13.539 23.449-13.539-23.449-13.539z" fill="#cc241d" stroke-width=".24814"/>
  <path class="cls-4" d="m81.309 73.533v27.076l23.449 13.539 23.449-13.539-23.449-13.539z" fill="#8f3f71" opacity=".5" stroke-width=".24814"/>
  <path class="cls-6" d="m80.896 73.771-23.449 13.537v54.154l23.449 13.537v-54.152z" fill="#fb4934" stroke-width=".24814"/>
  <path class="cls-6" d="m81.309 73.652-23.449 13.537v54.154l23.449 13.537v-54.152z" fill="#8f3f71" opacity=".5" stroke-width=".24814"/>
  <path class="cls-8" d="m81.102 127.8 93.796-54.154v27.077l-93.796 54.154z" fill="url(#linear-gradient)" stroke-width=".24814"/>
  <path class="cls-10" d="m174.9 73.651 23.449 13.538v54.124l-23.449 13.538z" fill="url(#linear-gradient-2)" stroke-width=".24814"/>
  <path class="cls-5" d="m81.102 73.414-23.654 13.656v54.393l23.654 13.654 46.898-27.074 46.873 27.061 23.68-13.67v-54.363l-23.654-13.656-46.896 27.074zm-0.20508 0.59375v26.363c-7.612-4.3916-15.222-8.7867-22.832-13.182zm0.41211 0 22.83 13.182-22.83 13.182zm93.383 0v26.602l-93.383 53.916v-26.602zm0.41211 0 23.037 13.301v53.887l-23.037 13.299c-0.38719-157.8 0.82278 122.57 0-80.486zm-117.24 13.537 22.83 13.184c-7.6093 4.3952-15.22 8.788-22.83 13.182zm46.486 0v26.365l-22.832-13.182c7.6114-4.3933 15.222-8.7885 22.832-13.184zm0.41211 0.0117 22.828 13.172-22.828 13.18zm-23.861 13.529v26.361c-7.6114-4.392-15.222-8.7859-22.832-13.18zm0.41211 0 22.832 13.18-22.832 13.182zm93.383 0v26.361l-22.83-13.18zm-23.242 13.416 23.242 13.42v26.604l-46.279-26.721zm-93.59 0.11914c7.6084 4.3973 15.219 8.7903 22.83 13.184-7.6088 4.3959-15.219 8.7887-22.83 13.182zm23.037 13.539v26.365l-22.832-13.182c7.61-4.3958 15.221-8.7896 22.832-13.184z" fill="#ebdbb2" stroke-width=".24814"/>
  <path d="m57 241c-9.9393 0-17-7.0595-17-17v-43h176v43c0 9.9405-7.0607 17-17 17z" fill="#ebdbb2" opacity=".2" stroke-linecap="round" stroke-linejoin="round" stroke-miterlimit="0" style="paint-order:markers fill stroke"/>
  <path d="m82.16 200c2.8077 5.364 5.1623 10.948 7.52 16.52 2.3568-5.5724 4.6676-11.178 7.52-16.52h5.68c1.2019 9.1934 1.7322 18.464 2.2 27.72h-6.08c-0.20884-7.0309-0.45108-12.726-0.92-18.4-2.144 4.9499-4.2446 9.918-6.36 14.88h-4.36c-2.1341-4.9541-4.2337-9.9226-6.36-14.88-0.46892 5.6739-0.71116 11.369-0.92 18.4h-6.08c0.61669-12.642 1.2396-21.093 2.2-27.72zm48.68 0v5.32h-8.36v22.4h-6.24v-22.4h-8.36v-5.32zm22.52 22.36v5.36h-18.52v-27.72h6.24v22.36zm21.16 5.36c-0.95148-1.903-3.0803-5.9231-5.72-9.56-2.4596 3.1624-5.5122 8.7835-5.88 9.56h-7.12c2.4908-4.5853 5.4549-8.9918 9.32-14.36l-8.92-13.36h7.56l5.4 8.64 5.28-8.64h7.12l-8.8 13.44c2.0317 2.6364 5.968 8.0335 9.24 14.28z" fill="#ebdbb2" opacity=".1" style="font-variant-ligatures:none" aria-label="MTLX"/>
  <path d="m82.16 197c2.8077 5.364 5.1623 10.948 7.52 16.52 2.3568-5.5724 4.6676-11.178 7.52-16.52h5.68c1.2019 9.1934 1.7322 18.464 2.2 27.72h-6.08c-0.20884-7.0309-0.45108-12.726-0.92-18.4-2.144 4.9499-4.2446 9.918-6.36 14.88h-4.36c-2.1341-4.9541-4.2337-9.9226-6.36-14.88-0.46892 5.6739-0.71116 11.369-0.92 18.4h-6.08c0.61669-12.642 1.2396-21.093 2.2-27.72zm48.68 0v5.32h-8.36v22.4h-6.24v-22.4h-8.36v-5.32zm22.52 22.36v5.36h-18.52v-27.72h6.24v22.36zm21.16 5.36c-0.95148-1.903-3.0803-5.9231-5.72-9.56-2.4596 3.1624-5.5122 8.7835-5.88 9.56h-7.12c2.4908-4.5853 5.4549-8.9918 9.32-14.36l-8.92-13.36h7.56l5.4 8.64 5.28-8.64h7.12l-8.8 13.44c2.0317 2.6364 5.968 8.0335 9.24 14.28z" fill="#282828" style="font-variant-ligatures:none" aria-label="MTLX"/>
  <path d="m76.199 197c-0.96038 6.6266-1.5825 15.078-2.1992 27.721h0.15039c0.56953-11.004 1.1665-18.632 2.0488-24.721h5.9609c2.8077 5.364 5.1618 10.948 7.5195 16.52 2.3568-5.5724 4.6672-11.177 7.5195-16.52h5.6816c1.0721 8.2005 1.6093 16.463 2.0449 24.721h0.1543c-0.46781-9.2559-0.99734-18.527-2.1992-27.721h-5.6816c-2.8524 5.3425-5.1628 10.949-7.5195 16.521-2.3577-5.5719-4.7119-11.158-7.5195-16.521zm31.682 0v3h22.959v-3zm26.959 0v3h6.2402v-3zm21.359 0 2.002 3h5.5586l5.4004 8.6406 5.2793-8.6406h5.1562l1.9648-3h-7.1211l-5.2793 8.6406-5.4004-8.6406zm7.8848 14.809c-3.366 4.7272-6.0198 8.7454-8.2832 12.912h1.709c2.1232-3.5625 4.5909-7.169 7.6094-11.361zm9.7285 0.0234-1.0527 1.6074c1.6982 2.2036 4.7267 6.3364 7.5859 11.281h1.6543c-2.7732-5.2943-6.0239-9.9784-8.1875-12.889zm-32.732 7.5293v2.998h12.279v-2.998z" opacity=".4" style="font-variant-ligatures:none"/>
  <path d="m57 15c-9.9393 0-17 7.0595-17 17v192c0 9.9393 7.0595 17 17 17h142c9.9405 0 17-7.0607 17-17v-144l-65-64.998zm4.0332 4.9902 89.967 2e-3 60 60.009v139.75c0 9.4999-6.6575 16.248-16.033 16.248h-133.93c-9.3757 0-16.033-6.7481-16.033-16.248v-183.51c0-9.501 6.6586-16.25 16.033-16.25z" fill="url(#linearGradient14-5-8)" style="paint-order:markers fill stroke"/>
  <path class="cls-5" d="m128 128.04-46.898 27.074-23.654-13.654v4.8828l23.654 13.654 46.898-27.074 46.873 27.061 23.68-13.67v-4.8828l-23.68 13.67-46.873-27.061z" fill="#282828" opacity=".4" stroke-width=".24814"/>
  <path d="m151 15.002v52.914c0 9.6525 7.8639 17.084 17.518 17.084l47.482-1.34e-4v-5z" fill="#282828" opacity=".5" stroke-width="1.0833"/>
  <path d="m151 15.001v47.916c0 9.6525 7.8639 17.082 17.518 17.082l47.482 0.0019z" fill="url(#linearGradient7-6-0-1)" stroke-width="1.0833"/>
</svg>
