<svg width="256" height="256" version="1.1" viewBox="0 0 256 256" xmlns="http://www.w3.org/2000/svg">
  <defs>
    <linearGradient id="linearGradient14-5-1" x1="128" x2="128" y1="15.001" y2="241" gradientTransform="translate(0,4.8e-4)" gradientUnits="userSpaceOnUse">
      <stop stop-color="#ebdbb2" stop-opacity=".2" offset="0"/>
      <stop stop-color="#ebdbb2" stop-opacity=".1" offset=".2"/>
      <stop stop-opacity="0" offset=".70405"/>
      <stop stop-opacity=".05" offset=".80473"/>
      <stop stop-opacity=".1" offset="1"/>
    </linearGradient>
    <linearGradient id="linearGradient7-6-0-92" x1="186" x2="156" y1="45.006" y2="75.012" gradientTransform="matrix(1.0833,0,0,1.0833,-17.998,-1.2502)" gradientUnits="userSpaceOnUse">
      <stop stop-color="#fb4934" offset="0"/>
      <stop stop-color="#cc241d" offset=".3027"/>
      <stop stop-color="#9d0006" offset="1"/>
    </linearGradient>
    <linearGradient id="linearGradient18" x1="127.25" x2="127.25" y1="15" y2="241" gradientTransform="translate(-.001 -2.35e-5)" gradientUnits="userSpaceOnUse">
      <stop stop-color="#fb4934" offset="0"/>
      <stop stop-color="#cc241d" offset="1"/>
    </linearGradient>
  </defs>
  <path d="m56.999 15c-9.9393 0-17 7.0595-17 17v149h176v-101l-64.998-64.998-94.002-2e-3z" fill="url(#linearGradient18)" style="paint-order:markers fill stroke"/>
  <path d="m56.999 241c-9.9393 0-17-7.0595-17-17v-43h176v43c0 9.9405-7.0607 17-17 17z" fill="#fb4934" stroke-linecap="round" stroke-linejoin="round" stroke-miterlimit="0" style="paint-order:markers fill stroke"/>
  <path d="m91.46 222.64c0.79723 0.0981 1.5987 0.08 2.4 0.08 7.7941 0 9.2-5.1581 9.2-8.88 0-7.853-5.2303-8.84-9-8.84-0.86857 4e-3 -1.7356 0.0424-2.6 0.12zm18.04-8.8c0 12.439-10.106 14.24-15.96 14.24-0.88703 0-4.9869-0.041-8.32-0.72v-27c0.13451-0.0249 3.6911-0.68 8.52-0.68 7.5066 0 15.76 2.6232 15.76 14.16zm23.4-10.88c1.544 5.5115 3.1326 11.014 4.96 16.44 1.611-6.3983 2.7657-12.9 3.88-19.4h6.48c-0.95902 4.7677-3.5295 16.692-7.16 27.72h-5.72c-1.3616-3.7346-2.4335-6.9585-5.32-16.52-1.6632 5.5337-3.2757 11.084-5.24 16.52h-5.72c-3.3422-10.153-5.6178-20.053-7.16-27.72h6.76c0.12837 0.75737 2.0977 12.325 4.04 19.4 1.3269-3.6121 1.5097-4.1845 4.88-16.44zm19.32 24.76v-27.72h18.56v5.24h-12.32v5.8h10.96v5.24h-10.96v11.44z" fill="#ebdbb2" opacity=".15" aria-label="DWF"/>
  <path d="m91.46 219.64c0.79723 0.0981 1.5987 0.08 2.4 0.08 7.7941 0 9.2-5.1581 9.2-8.88 0-7.853-5.2303-8.84-9-8.84-0.86857 4e-3 -1.7356 0.0424-2.6 0.12zm18.04-8.8c0 12.439-10.106 14.24-15.96 14.24-0.88703 0-4.9869-0.041-8.32-0.72v-27c0.13451-0.0249 3.6911-0.68 8.52-0.68 7.5066 0 15.76 2.6232 15.76 14.16zm23.4-10.88c1.544 5.5115 3.1326 11.014 4.96 16.44 1.611-6.3983 2.7657-12.9 3.88-19.4h6.48c-0.95902 4.7677-3.5295 16.692-7.16 27.72h-5.72c-1.3616-3.7346-2.4335-6.9585-5.32-16.52-1.6632 5.5337-3.2757 11.084-5.24 16.52h-5.72c-3.3422-10.153-5.6178-20.053-7.16-27.72h6.76c0.12837 0.75737 2.0977 12.325 4.04 19.4 1.3269-3.6121 1.5097-4.1845 4.88-16.44zm19.32 24.76v-27.72h18.56v5.24h-12.32v5.8h10.96v5.24h-10.96v11.44z" fill="#9d0006" aria-label="DWF"/>
  <path d="m93.74 196.68c-4.8289 0-8.385 0.65478-8.5195 0.67969v3c0.13451-0.0249 3.6906-0.67969 8.5195-0.67969 7.1622 0 14.999 2.3949 15.703 12.635 0.0332-0.4763 0.0566-0.96292 0.0566-1.4746 0-11.537-8.2532-14.16-15.76-14.16zm18.16 0.32031c0.18843 0.93675 0.42384 2.0002 0.63477 3h6.125c0.12837 0.75737 2.0968 12.325 4.0391 19.4 1.3269-3.6121 1.5106-4.1839 4.8809-16.439h5.3203c1.544 5.5115 3.1316 11.014 4.959 16.439 1.611-6.3983 2.7666-12.9 3.8808-19.4h5.8457c0.22699-1.0662 0.48463-2.2536 0.63476-3h-6.4805c-1.1143 6.5-2.2699 13.002-3.8808 19.4-1.8274-5.4256-3.415-10.928-4.959-16.439h-5.3203c-3.3703 12.256-3.554 12.827-4.8809 16.439-1.9423-7.0754-3.9107-18.643-4.0391-19.4zm40.32 0v3h18.559v-3zm6.2402 11.039v3h10.959v-3zm-55.48 4.2734c-0.38127 3.4754-2.3153 7.4082-9.1211 7.4082-0.80135 0-1.6012 0.018-2.3984-0.0801v3c0.79723 0.0981 1.5971 0.0801 2.3984 0.0801 7.7941 0 9.2012-5.159 9.2012-8.8809 0-0.54411-0.0321-1.0472-0.0801-1.5273z" fill="#282828" opacity=".2"/>
  <path d="m57 15c-9.9393 0-17 7.0595-17 17v192c0 9.9393 7.0595 17 17 17h142c9.9405 0 17-7.0607 17-17v-144l-65-64.998zm4.0332 4.9902 89.967 2e-3 60 60.009v139.75c0 9.4999-6.6575 16.248-16.033 16.248h-133.93c-9.3757 0-16.033-6.7481-16.033-16.248v-183.51c0-9.501 6.6586-16.25 16.033-16.25z" fill="url(#linearGradient14-5-1)" style="paint-order:markers fill stroke"/>
  <path d="m128 51.57-52 28.768v60.895l52 28.768 52-28.768v-60.895zm0 11.428 36.516 20.201-36.516 19.422-36.516-19.422zm-42 28.609 37 19.682v44.516l-37-20.467zm84 0v43.73l-37 20.467v-44.516z" fill="#ebdbb2" opacity=".1"/>
  <path d="m128 46.57-52 28.768v60.895l52 28.768 52-28.768v-60.895zm0 11.428 36.516 20.201-36.516 19.422-36.516-19.422zm-42 28.609 37 19.682v44.516l-37-20.467zm84 0v43.73l-37 20.467v-44.516z" fill="#9d0006"/>
  <path d="m128 46.57-52 28.768v5l52-28.768 52 28.768v-5zm-31.908 34.08-4.6074 2.5488 36.516 19.422 36.516-19.422-4.6074-2.5488-31.908 16.971zm-10.092 49.688v5l37 20.467v-5zm84 0-37 20.467v5l37-20.467z" fill="#282828" opacity=".2"/>
  <path d="m151 15.002v52.914c0 9.6525 7.8639 17.084 17.518 17.084l47.482-1.34e-4v-5z" fill="#282828" opacity=".3" stroke-width="1.0833"/>
  <path d="m151 15.001v47.916c0 9.6525 7.8639 17.084 17.518 17.084l47.482-1.34e-4z" fill="url(#linearGradient7-6-0-92)" stroke-width="1.0833"/>
</svg>
