<svg width="256" height="256" version="1.1" viewBox="0 0 256 256" xmlns="http://www.w3.org/2000/svg">
  <defs>
    <linearGradient id="linearGradient26" x1="-160" x2="-160" y2="226" gradientTransform="translate(267,15)" gradientUnits="userSpaceOnUse">
      <stop stop-color="#ebdbb2" offset="0"/>
      <stop stop-color="#d5c4a1" offset="1"/>
    </linearGradient>
    <linearGradient id="linearGradient7-6-0" x1="186" x2="156" y1="45.006" y2="75.012" gradientTransform="matrix(1.0833,0,0,1.0833,-17.997,-1.2507)" gradientUnits="userSpaceOnUse">
      <stop stop-color="#a89984" offset="0"/>
      <stop stop-color="#7c6f64" offset=".3027"/>
      <stop stop-color="#504945" offset="1"/>
    </linearGradient>
    <linearGradient id="linearGradient14-8" x1="128" x2="128" y1="15.001" y2="241" gradientTransform="translate(0,4.8e-4)" gradientUnits="userSpaceOnUse">
      <stop stop-color="#282828" stop-opacity=".10452" offset="0"/>
      <stop stop-color="#282828" stop-opacity=".054194" offset=".2"/>
      <stop stop-color="#282828" stop-opacity=".050323" offset=".70405"/>
      <stop stop-color="#282828" stop-opacity=".046452" offset=".80473"/>
      <stop stop-color="#282828" stop-opacity=".098065" offset="1"/>
    </linearGradient>
  </defs>
  <path d="m57 15c-9.9393 0-17 7.0595-17 17v192c0 9.9393 7.0595 17 17 17h142c9.9405 0 17-7.0607 17-17v-144l-64.999-64.999z" fill="url(#linearGradient26)" stroke-linecap="round" stroke-linejoin="round" stroke-miterlimit="0" style="paint-order:markers fill stroke"/>
  <path class="ColorScheme-Text" d="m134.94 92.949c-4.2481 4.9505-7.7469 11.293-7.1304 20.331 9.2443 0.72534 14.961-4.0495 19.135-8.9772 4.254-4.9619 7.7515-11.811 7.0092-20.983-4.1078 0-13.506 3.1781-19.015 9.6284zm16.941 21.724c-10.034 0.0928-18.611 5.8856-22.889 6.01-7.5256 0.2294-19.384-12.1-37.347-1.0597-9.1529 5.5843-16.038 17.105-16.638 31.277-0.90553 29.295 19.487 60.568 32.472 62.447 10.715 0 13.028-5.4528 23.495-5.2834 7.9994 0.13742 13.192 5.1623 20.997 5.1623 9.033 0 14.083-7.6559 18.211-13.337 4.5222-6.258 8.2262-12.993 10.824-20.86v-0.25726c-21.607-10.258-24.148-37.901-3.4214-51.093-8.1414-12.726-23.645-13.022-25.705-13.004" color="#ebdbb2" fill="#ebdbb2" opacity=".6" stroke-width="9.2876"/>
  <path class="ColorScheme-Text" d="m134.94 89.602c-4.2481 4.9505-7.7469 11.293-7.1304 20.331 9.2443 0.72535 14.961-4.0495 19.135-8.9772 4.254-4.9619 7.7515-11.811 7.0092-20.983-4.1078 0-13.506 3.1781-19.015 9.6284zm16.941 21.724c-10.034 0.0928-18.611 5.8856-22.889 6.01-7.5256 0.22942-19.384-12.1-37.347-1.0597-9.1529 5.5842-16.038 17.105-16.638 31.277-0.90553 29.295 19.487 60.568 32.472 62.447 10.715 0 13.028-5.4528 23.495-5.2834 7.9994 0.13743 13.192 5.1623 20.997 5.1623 9.033 0 14.083-7.6559 18.211-13.337 4.5222-6.258 8.2262-12.993 10.824-20.86v-0.25725c-21.607-10.258-24.148-37.901-3.4214-51.093-8.1414-12.726-23.645-13.022-25.705-13.004" color="#ebdbb2" fill="#928374" stroke-width="9.2876"/>
  <path class="ColorScheme-Text" d="m153.95 79.974c-4.1078 0-13.507 3.1775-19.016 9.6278-4.1939 4.8872-7.6491 11.137-7.1434 19.992 0.41577-7.1202 3.4988-12.397 7.1434-16.645 5.5085-6.4503 14.908-9.6278 19.016-9.6278 0.0206 0.25407 0.0251 0.49914 0.0392 0.74966 0.076-1.3132 0.0759-2.6735-0.0392-4.097zm-2.0746 31.351c-10.034 0.0928-18.611 5.8859-22.889 6.0103-7.5256 0.22942-19.384-12.1-37.348-1.0591-9.1529 5.5843-16.038 17.105-16.638 31.276-0.03515 1.1384-0.02745 2.281 0 3.4236 7.58e-4 -0.0253-7.81e-4 -0.0508 0-0.0763 0.59999-14.172 7.4854-25.691 16.638-31.276 17.963-11.041 29.822 1.2885 37.348 1.0591 4.2778-0.12444 12.854-5.9174 22.889-6.0103v2e-3c1.9309-0.0165 15.674 0.24323 24.094 10.757 0.52329-0.37459 1.0536-0.74615 1.6105-1.1005-8.1414-12.726-23.644-13.021-25.704-13.003zm11.519 39.182c-0.69101 10.854 5.1096 21.872 16.682 27.789 0.32069-0.85943 0.63103-1.7278 0.92397-2.6151v-0.25715c-10.975-5.2106-17.02-14.908-17.606-24.917z" color="#ebdbb2" fill="#282828" opacity=".2" stroke-width="9.2876"/>
  <path d="m57 15c-9.9393 0-17 7.0595-17 17v192c0 9.9393 7.0595 17 17 17h142c9.9405 0 17-7.0607 17-17v-144l-65-65zm4.0332 4.9902 89.967 0.01 60 60 2e-4 139.75c1e-5 9.4999-6.6575 16.248-16.033 16.248h-133.93c-9.3757 0-16.033-6.7481-16.033-16.248v-183.51c0-9.501 6.6586-16.25 16.033-16.25z" fill="url(#linearGradient14-8)" style="paint-order:markers fill stroke"/>
  <path d="m151 15.002v52.914c0 9.6525 7.8639 17.084 17.518 17.084l47.482-1.34e-4v-5z" fill="#282828" opacity=".2" stroke-width="1.0833"/>
  <path d="m151 15.001v47.916c0 9.6525 7.8639 17.082 17.518 17.082l47.482 0.0019z" fill="url(#linearGradient7-6-0)" stroke-width="1.0833"/>
</svg>
