<svg width="256" height="256" version="1.1" viewBox="0 0 256 256" xmlns="http://www.w3.org/2000/svg">
  <defs>
    <linearGradient id="linearGradient26" x1="-160" x2="-160" y2="226" gradientTransform="translate(267,15)" gradientUnits="userSpaceOnUse">
      <stop stop-color="#98971a" offset="0"/>
      <stop stop-color="#98971a" offset="1"/>
    </linearGradient>
    <linearGradient id="linearGradient14-5" x1="128" x2="128" y1="15.001" y2="241" gradientTransform="translate(0,4.8e-4)" gradientUnits="userSpaceOnUse">
      <stop stop-color="#ebdbb2" stop-opacity=".2" offset="0"/>
      <stop stop-color="#ebdbb2" stop-opacity=".1" offset=".2"/>
      <stop stop-opacity="0" offset=".70405"/>
      <stop stop-opacity=".05" offset=".80473"/>
      <stop stop-opacity=".1" offset="1"/>
    </linearGradient>
    <linearGradient id="linearGradient7-6-0-9" x1="186" x2="156" y1="45.006" y2="75.012" gradientTransform="matrix(1.0833 0 0 1.0833 -17.999 -1.2501)" gradientUnits="userSpaceOnUse">
      <stop stop-color="#b8bb26" offset="0"/>
      <stop stop-color="#98971a" offset=".3027"/>
      <stop stop-color="#79740e" offset="1"/>
    </linearGradient>
  </defs>
  <path d="m57 15c-9.9393 0-17 7.0595-17 17v192c0 9.9393 7.0595 17 17 17h142c9.9405 0 17-7.0607 17-17v-144l-64.999-64.999z" fill="url(#linearGradient26)" stroke-linecap="round" stroke-linejoin="round" stroke-miterlimit="0" style="paint-order:markers fill stroke"/>
  <path d="m57 241c-9.9393 0-17-7.0595-17-17v-43h176v43c0 9.9405-7.0607 17-17 17z" fill="#b8bb26" opacity=".5" stroke-linecap="round" stroke-linejoin="round" stroke-miterlimit="0" style="paint-order:markers fill stroke"/>
  <path d="m110.56 227.72c-0.64332-2.0121-1.3562-4.0012-2.04-6h-10.8c-0.7104 1.9905-1.4118 3.9818-2.04 6h-6.48c4.2131-12.099 7.5905-20.624 11.04-27.72h5.96c4.147 8.782 7.4312 17.356 11.04 27.72zm-7.48-21.44c-0.71605 2.1482-1.6499 4.0954-3.92 10.48h7.88c-0.0731-0.20573-1.8629-5.2373-3.96-10.48zm26.08 16.68c3.7496 0 4.48-1.3639 4.48-2.88 0-1.533-1.0262-2.6487-5.68-4.2-3.4634-1.2224-7.6-2.955-7.6-8.2 0-5.1508 4.0386-8.32 10.2-8.32 3.7211 0 6.4107 0.94404 8.2 1.92l-1.8 4.92c-1.873-0.99727-3.8907-1.4678-6-1.52-2.9192 0-4.2 0.79833-4.2 2.52 0.24727 2.3866 2.8628 3.0035 4.8 3.68 5.9312 2.1967 8.52 4.0081 8.52 9.24 0 6.7588-5.9696 8.16-10.92 8.16-2.0763 0-6.0494-0.27394-9.28-2.12l1.76-4.96c0.82667 0.45333 1.84 0.86667 3.04 1.24 1.2267 0.34667 2.72 0.52 4.48 0.52zm28.36 5.32c-11.917 0-13.84-8.7761-13.84-14.44 0-8.7097 5.577-14.48 14.16-14.48 3.6494 0 6.894 1.0788 8.56 2.12l-1.8 5.04c-1.62-0.86062-3.9004-1.64-6.84-1.64-1.6567 0-7.6 0.57595-7.6 8.84 0 7.377 4.1646 9.04 7.92 9.04 2.4702 0.084 4.7798-0.55372 7-1.56l1.72 5c-3.204 1.9418-7.9741 2.08-9.28 2.08z" fill="#ebdbb2" opacity=".2" aria-label="ASC"/>
  <path d="m110.56 224.72c-0.64332-2.0121-1.3562-4.0012-2.04-6h-10.8c-0.7104 1.9905-1.4118 3.9818-2.04 6h-6.48c4.2131-12.099 7.5905-20.624 11.04-27.72h5.96c4.147 8.782 7.4312 17.356 11.04 27.72zm-7.48-21.44c-0.71605 2.1482-1.6499 4.0954-3.92 10.48h7.88c-0.0731-0.20573-1.8629-5.2373-3.96-10.48zm26.08 16.68c3.7496 0 4.48-1.3639 4.48-2.88 0-1.533-1.0262-2.6487-5.68-4.2-3.4634-1.2224-7.6-2.955-7.6-8.2 0-5.1508 4.0386-8.32 10.2-8.32 3.7211 0 6.4107 0.94404 8.2 1.92l-1.8 4.92c-1.873-0.99727-3.8907-1.4678-6-1.52-2.9192 0-4.2 0.79833-4.2 2.52 0.24727 2.3866 2.8628 3.0035 4.8 3.68 5.9312 2.1967 8.52 4.0081 8.52 9.24 0 6.7588-5.9696 8.16-10.92 8.16-2.0763 0-6.0494-0.27394-9.28-2.12l1.76-4.96c0.82667 0.45333 1.84 0.86667 3.04 1.24 1.2267 0.34667 2.72 0.52 4.48 0.52zm28.36 5.32c-11.917 0-13.84-8.7761-13.84-14.44 0-8.7097 5.577-14.48 14.16-14.48 3.6494 0 6.894 1.0788 8.56 2.12l-1.8 5.04c-1.62-0.86062-3.9004-1.64-6.84-1.64-1.6567 0-7.6 0.57595-7.6 8.84 0 7.377 4.1646 9.04 7.92 9.04 2.4702 0.084 4.7798-0.55372 7-1.56l1.72 5c-3.204 1.9418-7.9741 2.08-9.28 2.08z" fill="#79740e" aria-label="ASC"/>
  <path d="m130.56 196.36c-6.1614 0-10.201 3.1696-10.201 8.3203 0 0.53497 0.0538 1.0252 0.13476 1.4902 0.72322-4.2495 4.5348-6.8105 10.066-6.8105 3.1296 0 5.5212 0.67 7.2695 1.4629l0.92969-2.543c-1.7893-0.97596-4.4781-1.9199-8.1992-1.9199zm27.279 0c-8.583 0-14.16 5.7708-14.16 14.48 0 0.49825 0.0233 1.0261 0.0586 1.5645 0.58357-7.9005 6.0006-13.045 14.102-13.045 3.0828 0 5.8646 0.77198 7.6621 1.6387l0.89844-2.5176c-1.666-1.0412-4.9112-2.1211-8.5606-2.1211zm-57.6 0.64062c-3.4495 7.0962-6.8279 15.622-11.041 27.721h1.0723c3.7098-10.46 6.8258-18.255 9.9687-24.721h5.959c3.7306 7.9001 6.7722 15.703 9.9707 24.721h1.0703c-3.6088-10.364-6.894-18.939-11.041-27.721zm27.076 8.6484c-0.37777 0.39228-0.55664 0.90625-0.55664 1.5508 0.24727 2.3866 2.8636 3.0052 4.8008 3.6816 5.275 1.9537 7.9003 3.6076 8.418 7.6289 0.061-0.43818 0.10156-0.8968 0.10156-1.3906 0-5.2319-2.5883-7.0415-8.5195-9.2383-1.4676-0.51248-3.3226-0.99299-4.2441-2.2324zm22.914 6.5879c-0.0455 0.46546-0.0703 0.95848-0.0703 1.4844 0 7.377 4.1646 9.0391 7.9199 9.0391 2.4702 0.084 4.7798-0.55427 7-1.5606l0.84765 2.4629c0.29925-0.14277 0.59422-0.2939 0.87305-0.46289l-1.7207-5c-2.2202 1.0063-4.5298 1.6446-7 1.5606-3.4814 0-7.3088-1.4378-7.8496-7.5234zm-49.977 1.5234c-0.33717 0.91085-0.6712 1.8116-1.0938 3h7.8789c-0.0327-0.0921-0.4978-1.3886-1.0918-3zm21.387 4.4394-1.7598 4.9609c0.29448 0.16827 0.59948 0.30999 0.9043 0.45312l0.85546-2.4141c0.82667 0.45333 1.8391 0.8669 3.0391 1.2402 1.2267 0.34667 2.7205 0.52149 4.4805 0.52149 3.7496 0 4.4805-1.3648 4.4805-2.8809 0-0.50365-0.13155-0.9605-0.44531-1.4043-0.54919 0.75957-1.7108 1.2852-4.0352 1.2852-1.76 0-3.2538-0.17482-4.4805-0.52149-1.2-0.37333-2.2124-0.7869-3.0391-1.2402z" fill="#282828" opacity=".2"/>
  <path d="m162.8 61.09c-12.813 0-23.2 10.6-23.2 23.676s10.387 23.676 23.2 23.676 23.2-10.6 23.2-23.676-10.387-23.676-23.2-23.676zm-55.68 37.882-37.12 71.028h116l-30.16-47.352-16.24 23.676z" fill="#ebdbb2" opacity=".15" stroke-linecap="round" stroke-linejoin="round" stroke-miterlimit="0" stroke-width="3.5155" style="paint-order:markers fill stroke"/>
  <path d="m162.8 56.09c-12.813 0-23.2 10.6-23.2 23.676s10.387 23.676 23.2 23.676 23.2-10.6 23.2-23.676-10.387-23.676-23.2-23.676zm-55.68 37.882-37.12 71.028h116l-30.16-47.352-16.24 23.676z" fill="#79740e" stroke-linecap="round" stroke-linejoin="round" stroke-miterlimit="0" stroke-width="3.5155" style="paint-order:markers fill stroke"/>
  <path d="m162.8 56.09c-12.813 0-23.201 10.6-23.201 23.676 0 0.50416 0.02233 1.0037 0.05273 1.5 0.75894-12.376 10.83-22.176 23.148-22.176 12.319 0 22.39 9.7994 23.148 22.176 0.0304-0.49633 0.05078-0.99584 0.05078-1.5 0-13.076-10.386-23.676-23.199-23.676zm-55.682 37.881-37.119 71.029h3.1348l33.984-65.029 32.48 47.354 16.24-23.676 26.338 41.352h3.8223l-30.16-47.352-16.24 23.676-32.48-47.354z" fill="#282828" opacity=".2" style="paint-order:markers fill stroke"/>
  <path d="m57 15c-9.9393 0-17 7.0595-17 17v192c0 9.9393 7.0595 17 17 17h142c9.9405 0 17-7.0607 17-17v-144l-65-64.998zm4.0332 4.9902 89.967 2e-3 60 60.009v139.75c0 9.4999-6.6575 16.248-16.033 16.248h-133.93c-9.3757 0-16.033-6.7481-16.033-16.248v-183.51c0-9.501 6.6586-16.25 16.033-16.25z" fill="url(#linearGradient14-5)" style="paint-order:markers fill stroke"/>
  <path d="m151 15.003v52.914c0 9.6525 7.8639 17.084 17.518 17.084h47.482v-5.0001z" fill="#282828" opacity=".3" stroke-width="1.0833"/>
  <path d="m151 15.001v47.916c0 9.6525 7.8639 17.084 17.518 17.084l47.482-1.34e-4z" fill="url(#linearGradient7-6-0-9)" stroke-width="1.0833"/>
</svg>
