<svg width="256" height="256" version="1.1" viewBox="0 0 256 256" xmlns="http://www.w3.org/2000/svg">
  <defs>
    <linearGradient id="linearGradient17" x1="96.59" x2="96.59" y1="100" y2="215" gradientTransform="matrix(1.1064 0 0 1.1064 -13.617 -22.877)" gradientUnits="userSpaceOnUse">
      <stop stop-color="#fbf1c7" stop-opacity=".6" offset="0"/>
      <stop stop-color="#ebdbb2" offset="1"/>
    </linearGradient>
    <linearGradient id="linearGradient18" x1="128" x2="128" y1="15" y2="241" gradientTransform="translate(1e-7)" gradientUnits="userSpaceOnUse">
      <stop stop-color="#fabd2f" offset="0"/>
      <stop stop-color="#fabd2f" offset="1"/>
    </linearGradient>
    <linearGradient id="linearGradient14-5-9" x1="128" x2="128" y1="15.001" y2="241" gradientTransform="translate(0,4.8e-4)" gradientUnits="userSpaceOnUse">
      <stop stop-color="#ebdbb2" stop-opacity=".4" offset="0"/>
      <stop stop-color="#ebdbb2" stop-opacity=".2" offset=".2"/>
      <stop stop-color="#282828" stop-opacity=".050323" offset=".70405"/>
      <stop stop-color="#282828" stop-opacity=".052903" offset=".80473"/>
      <stop stop-color="#282828" stop-opacity=".098065" offset="1"/>
    </linearGradient>
    <linearGradient id="linearGradient7-6-0-9" x1="186" x2="156" y1="45.006" y2="75.012" gradientTransform="matrix(1.0833 0 0 1.0833 -17.999 -1.2512)" gradientUnits="userSpaceOnUse">
      <stop stop-color="#fabd2f" offset="0"/>
      <stop stop-color="#d79921" offset=".3027"/>
      <stop stop-color="#b57614" offset="1"/>
    </linearGradient>
  </defs>
  <path d="m57 15c-9.9393 0-17 7.0595-17 17v192c0 9.9393 7.0595 17 17 17h142c9.9405 0 17-7.0607 17-17v-144l-65-65z" fill="url(#linearGradient18)" stroke-linecap="round" stroke-linejoin="round" stroke-miterlimit="0" style="paint-order:markers fill stroke"/>
  <path class="ColorScheme-Text" d="m129.32 215c-35.844 0-64.318-19.831-64.318-61.51 0-39.08 29.255-65.726 65.899-65.726 38.453 0 60.101 24.975 60.101 52.721 0 26.456-16.395 44.642-37.435 44.642-2.2275 0-11.688-0.84703-14.232-9.1428-3.6317 6.0919-9.4336 9.1428-17.395 9.1428-14.696 0-25.311-11.479-25.311-30.055 0-16.813 11.806-36.38 32.691-36.38 6.9126 0 11.715 2.402 14.414 7.2052l0.87886-4.9204h17.395c-2.6202 15.123-5.9574 30.146-8.084 45.341 0 1.9921 0.9961 2.9873 2.9873 2.9873 7.4888 0 16.868-8.9865 16.868-28.474 0-13.978-7.6987-35.853-42.006-35.853-29.173 0-48.504 20.585-48.504 48.677 0 30.455 20.394 44.115 46.75 44.115 6.9126 0 14.941-1.1133 24.075-3.339l-5.0967 19.158c-7.2642 0.93701-13.823 1.406-19.685 1.406zm-5.2721-47.095c10.024 0 15.114-11.251 15.114-19.685 0-3.8452-0.9688-12.306-9.4882-12.306-9.4882 0-15.114 9.3518-15.114 19.503 0 7.2352 3.3936 12.478 9.4882 12.478z" color="#ebdbb2" fill="url(#linearGradient17)" opacity=".3" stroke-width="9.0883"/>
  <path class="ColorScheme-Text" d="m129.32 210c-35.844 0-64.318-19.831-64.318-61.51 0-39.08 29.255-65.726 65.899-65.726 38.453 0 60.101 24.975 60.101 52.721 0 26.456-16.395 44.642-37.435 44.642-2.2275 0-11.688-0.84703-14.232-9.1428-3.6317 6.0919-9.4336 9.1428-17.395 9.1428-14.696 0-25.311-11.478-25.311-30.055 0-16.813 11.806-36.38 32.691-36.38 6.9126 0 11.715 2.402 14.414 7.2052l0.87886-4.9204h17.395c-2.6202 15.123-5.9574 30.146-8.084 45.341 0 1.9921 0.9961 2.9873 2.9873 2.9873 7.4888 0 16.868-8.9865 16.868-28.474 0-13.978-7.6987-35.853-42.006-35.853-29.173 0-48.504 20.585-48.504 48.677 0 30.455 20.394 44.115 46.75 44.115 6.9126 0 14.941-1.1133 24.075-3.339l-5.0967 19.158c-7.2642 0.93699-13.823 1.406-19.685 1.406zm-5.2721-47.096c10.024 0 15.114-11.251 15.114-19.685 0-3.8452-0.9688-12.306-9.4882-12.306-9.4882 0-15.114 9.3519-15.114 19.503 0 7.2352 3.3936 12.478 9.4882 12.478z" color="#ebdbb2" fill="#b57614" stroke-width="9.0883"/>
  <path class="ColorScheme-Text" d="m130.9 82.764c-36.644 0-65.898 26.647-65.898 65.727 0 0.89148 0.03079 1.7594 0.05664 2.6309 1.1611-37.779 29.946-63.357 65.842-63.357 37.354 0 58.847 23.569 60.045 50.352 0.0364-0.86756 0.0566-1.7443 0.0566-2.6308 0-27.747-21.649-52.721-60.102-52.721zm-1.5801 30.928c-20.885 0-32.691 19.568-32.691 36.381 0 0.9335 0.0468 1.8353 0.0996 2.7324 1.0003-16.256 12.638-34.113 32.592-34.113 6.9126 0 11.715 2.4019 14.414 7.2051l0.87891-4.9199h16.48c0.30399-1.6667 0.62494-3.3312 0.91406-5h-17.395l-0.87891 4.9199c-2.6992-4.8032-7.5015-7.2051-14.414-7.2051zm44.377 24.828c-0.82553 17.612-9.6546 25.785-16.787 25.785-1.2094 0-2.0445-0.37281-2.5195-1.1074-0.15654 1.0401-0.32101 2.0794-0.46679 3.1211 0 1.9921 0.9951 2.9863 2.9863 2.9863 7.4888 0 16.869-8.9856 16.869-28.473 0-0.74629-0.0353-1.5257-0.082-2.3125zm-34.693 7.2227c-0.88959 7.9904-5.9042 17.162-14.957 17.162v-0.01c-5.4034 0-8.6692-4.1286-9.3438-10.105-0.0844 0.86766-0.14453 1.7434-0.14453 2.6289 0 7.2352 3.3937 12.477 9.4883 12.477v0.01c10.024 0 15.115-11.252 15.115-19.686 0-0.69274-0.0568-1.5607-0.15821-2.4766zm-55.682 5.418c-0.03419 0.82475-0.05469 1.6557-0.05469 2.4941 0 30.455 20.396 44.115 46.752 44.115 6.5447 0 14.124-1.0341 22.66-3.0293l1.4141-5.3105c-9.1337 2.2257-17.162 3.3398-24.074 3.3398-25.621 0-45.602-12.913-46.697-41.609z" color="#ebdbb2" fill="#282828" opacity=".2" stroke-width="9.0883"/>
  <path d="m57 15c-9.9393 0-17 7.0595-17 17v192c0 9.9393 7.0595 17 17 17h142c9.9405 0 17-7.0607 17-17v-144l-65-64.998zm4.0332 4.9902 89.967 2e-3 60 60.009v139.75c0 9.4999-6.6575 16.248-16.033 16.248h-133.93c-9.3757 0-16.033-6.7481-16.033-16.248v-183.51c0-9.501 6.6586-16.25 16.033-16.25z" fill="url(#linearGradient14-5-9)" style="paint-order:markers fill stroke"/>
  <path d="m151 15.002v52.914c0 9.6525 7.8639 17.084 17.518 17.084l47.482-1.34e-4v-5z" fill="#282828" opacity=".2" stroke-width="1.0833"/>
  <path d="m151 15v47.916c0 9.6525 7.8639 17.084 17.518 17.084l47.482-1.34e-4z" fill="url(#linearGradient7-6-0-9)" stroke-width="1.0833"/>
</svg>
