<svg width="256" height="256" version="1.1" viewBox="0 0 256 256" xmlns="http://www.w3.org/2000/svg">
  <defs>
    <linearGradient id="linearGradient26" x1="-160" x2="-160" y2="226" gradientTransform="translate(267,15)" gradientUnits="userSpaceOnUse">
      <stop stop-color="#ebdbb2" offset="0"/>
      <stop stop-color="#d5c4a1" offset="1"/>
    </linearGradient>
    <linearGradient id="linearGradient7-6-0-9" x1="186" x2="156" y1="45.006" y2="75.012" gradientTransform="matrix(1.0833,0,0,1.0833,-17.998,-1.2516)" gradientUnits="userSpaceOnUse">
      <stop stop-color="#a89984" offset="0"/>
      <stop stop-color="#7c6f64" offset=".3027"/>
      <stop stop-color="#504945" offset="1"/>
    </linearGradient>
    <linearGradient id="linearGradient14-8" x1="128" x2="128" y1="15.001" y2="241" gradientTransform="translate(0,5e-4)" gradientUnits="userSpaceOnUse">
      <stop stop-color="#282828" stop-opacity=".098065" offset="0"/>
      <stop stop-color="#282828" stop-opacity=".051613" offset=".2"/>
      <stop stop-color="#282828" stop-opacity=".050323" offset=".70405"/>
      <stop stop-color="#282828" stop-opacity=".1" offset=".80473"/>
      <stop stop-color="#282828" stop-opacity=".2" offset="1"/>
    </linearGradient>
  </defs>
  <path d="m57 15c-9.9393 0-17 7.0595-17 17v192c0 9.9393 7.0595 17 17 17h142c9.9405 0 17-7.0607 17-17v-144l-64.999-64.999z" fill="url(#linearGradient26)" stroke-linecap="round" stroke-linejoin="round" stroke-miterlimit="0" style="paint-order:markers fill stroke"/>
  <path d="m94.717 118-29.717 30h126l-29.717-30zm-29.717 35v65h126v-65z" fill="#ebdbb2" opacity=".6" stroke-linecap="square" stroke-linejoin="round" stroke-miterlimit="0" stroke-width="11.938" style="paint-order:markers fill stroke"/>
  <path d="m94.717 115-29.717 30h126l-29.717-30zm-29.717 35v65h126v-65z" fill="#928374" stroke-linecap="square" stroke-linejoin="round" stroke-miterlimit="0" stroke-width="11.938" style="paint-order:markers fill stroke"/>
  <path d="m94.717 115-29.717 30h2.9727l26.744-27h66.566l26.744 27h2.9727l-29.717-30zm-29.717 35v3h126v-3z" fill="#282828" opacity=".15" stroke-linecap="square" stroke-linejoin="round" stroke-miterlimit="0" stroke-width="11.938" style="paint-order:markers fill stroke"/>
  <path d="m105 55v54.981l-30 0.019s10 35 53.014 80c42.986-45 52.986-80 52.986-80h-30v-54.991z" fill="#ebdbb2" opacity=".3"/>
  <path d="m105 50v54.981l-30 0.019s10 35 53.014 80c42.986-45 52.986-80 52.986-80h-30v-54.991z" fill="#504945"/>
  <path d="m105 50v5l46 0.0098v-5zm0 54.98-30 0.01953s0.60454 1.9314 1.793 4.998l28.207-0.01758zm46 0.01953v5h28.205c1.1889-3.0683 1.7949-5 1.7949-5z" fill="#282828" opacity=".5"/>
  <path d="m57 15c-9.9393 0-17 7.0595-17 17v192c0 9.9393 7.0595 17 17 17h142c9.9405 0 17-7.0607 17-17v-144l-65-65zm4.0332 4.9902 89.967 0.01 60 60 2e-4 139.75c1e-5 9.4999-6.6575 16.248-16.033 16.248h-133.93c-9.3757 0-16.033-6.7481-16.033-16.248v-183.51c0-9.501 6.6586-16.25 16.033-16.25z" fill="url(#linearGradient14-8)" style="paint-order:markers fill stroke"/>
  <path d="m151 15.002v52.914c0 9.6525 7.8639 17.084 17.518 17.084l47.482-1.34e-4v-5z" fill="#282828" opacity=".2" stroke-width="1.0833"/>
  <path d="m151 15v47.916c0 9.6525 7.8639 17.084 17.518 17.084l47.482-1.34e-4z" fill="url(#linearGradient7-6-0-9)" stroke-width="1.0833"/>
</svg>
