<svg width="256" height="256" version="1.1" viewBox="0 0 256 256" xmlns="http://www.w3.org/2000/svg">
  <defs>
    <linearGradient id="linearGradient26" x1="-160" x2="-160" y2="226" gradientTransform="translate(267,15)" gradientUnits="userSpaceOnUse">
      <stop stop-color="#fe8019" offset="0"/>
      <stop stop-color="#fe8019" offset="1"/>
    </linearGradient>
    <linearGradient id="linearGradient7-6-0" x1="186" x2="156" y1="45.006" y2="75.012" gradientTransform="matrix(1.0833,0,0,1.0833,-17.998,-1.2502)" gradientUnits="userSpaceOnUse">
      <stop stop-color="#fe8019" offset="0"/>
      <stop stop-color="#d65d0e" offset=".3027"/>
      <stop stop-color="#af3a03" offset="1"/>
    </linearGradient>
    <linearGradient id="linearGradient16" x1="128" x2="128" y1="15.001" y2="241" gradientTransform="translate(0,4.8e-4)" gradientUnits="userSpaceOnUse">
      <stop stop-color="#ebdbb2" stop-opacity=".15" offset="0"/>
      <stop stop-color="#ebdbb2" stop-opacity=".05" offset=".2"/>
      <stop stop-opacity="0" offset=".70405"/>
      <stop stop-opacity=".05" offset=".80473"/>
      <stop stop-opacity=".1" offset="1"/>
    </linearGradient>
    <linearGradient id="paint0_linear" x1="12.963" x2="9.4604" y1="22.251" y2="-3.1346" gradientTransform="matrix(6.5929 0 0 6.5929 46.688 37.843)" gradientUnits="userSpaceOnUse">
      <stop stop-color="#f00" offset="0"/>
      <stop stop-color="#FF1500" offset=".2317"/>
      <stop stop-color="#FF3D00" offset=".7367"/>
      <stop stop-color="#FF4C00" offset=".9987"/>
    </linearGradient>
    <linearGradient id="paint3_linear" x1="12.869" x2="5.2143" y1="17.927" y2="-3.9342" gradientTransform="matrix(6.5929 0 0 6.5929 46.688 37.843)" gradientUnits="userSpaceOnUse">
      <stop stop-color="#fe8019" offset="0"/>
      <stop stop-color="#fb4934" offset=".6388"/>
      <stop stop-color="#fb4934" offset=".9987"/>
    </linearGradient>
    <radialGradient id="paint4_radial" cx="0" cy="0" r="1" gradientTransform="matrix(67.251 0 0 67.251 153.14 38.739)" gradientUnits="userSpaceOnUse">
      <stop stop-color="#fabd2f" stop-opacity=".6" offset=".0013433"/>
      <stop stop-color="#fabd2f" stop-opacity=".03" offset=".9477"/>
      <stop stop-color="#fabd2f" stop-opacity="0" offset=".9914"/>
    </radialGradient>
    <linearGradient id="paint5_linear" x1="9.8967" x2="12.664" y1="3.3392" y2="18.865" gradientTransform="matrix(6.5929 0 0 6.5929 46.688 37.843)" gradientUnits="userSpaceOnUse">
      <stop stop-color="#fe8019" offset="0"/>
      <stop stop-color="#fe8019" offset=".022669"/>
      <stop stop-color="#fb4934" stop-opacity=".33" offset=".6663"/>
      <stop stop-color="#fb4934" stop-opacity="0" offset="1"/>
    </linearGradient>
    <linearGradient id="paint6_linear" x1="12.046" x2="12.644" y1="20.116" y2="9.2143" gradientTransform="matrix(6.5929 0 0 6.5929 46.688 37.843)" gradientUnits="userSpaceOnUse">
      <stop stop-color="#fabd2f" offset="0"/>
      <stop stop-color="#fabd2f" stop-opacity=".8" offset=".1869"/>
      <stop stop-color="#fe8019" stop-opacity=".3" offset=".7223"/>
      <stop stop-color="#fe8019" stop-opacity="0" offset="1"/>
    </linearGradient>
    <radialGradient id="paint7_radial" cx="0" cy="0" r="1" gradientTransform="matrix(52.022 0 0 42.232 125.12 151.07)" gradientUnits="userSpaceOnUse">
      <stop stop-color="#fabd2f" offset=".0013433"/>
      <stop stop-color="#fabd2f" stop-opacity=".7" offset=".2941"/>
      <stop stop-color="#fabd2f" stop-opacity=".4" offset=".5624"/>
      <stop stop-color="#fabd2f" stop-opacity=".2" offset=".8201"/>
      <stop stop-color="#fabd2f" stop-opacity="0" offset="1"/>
    </radialGradient>
    <radialGradient id="paint8_radial" cx="0" cy="0" r="1" gradientTransform="matrix(50.419 0 0 40.93 125.12 148.93)" gradientUnits="userSpaceOnUse">
      <stop stop-color="#ebdbb2" offset=".0013433"/>
      <stop stop-color="#ebdbb2" stop-opacity="0" offset="1"/>
    </radialGradient>
    <radialGradient id="paint9_radial" cx="0" cy="0" r="1" gradientTransform="matrix(61.937 0 0 72.113 102.47 158.38)" gradientUnits="userSpaceOnUse">
      <stop stop-color="#fabd2f" offset=".0013433"/>
      <stop stop-color="#fabd2f" stop-opacity=".03" offset=".9477"/>
      <stop stop-color="#fabd2f" stop-opacity="0" offset=".9914"/>
    </radialGradient>
    <radialGradient id="paint11_radial" cx="0" cy="0" r="1" gradientTransform="matrix(22.219 0 0 22.219 135.95 64.105)" gradientUnits="userSpaceOnUse">
      <stop stop-color="#fabd2f" offset=".0013433"/>
      <stop stop-color="#fabd2f" stop-opacity=".8" offset=".1997"/>
      <stop stop-color="#fabd2f" stop-opacity=".4" offset=".5839"/>
      <stop stop-color="#fabd2f" stop-opacity="0" offset="1"/>
    </radialGradient>
    <radialGradient id="paint12_radial" cx="0" cy="0" r="1" gradientTransform="matrix(9.9569 -14.993 3.4049 2.2612 99.31 74.795)" gradientUnits="userSpaceOnUse">
      <stop stop-color="#fabd2f" stop-opacity=".6" offset=".0013433"/>
      <stop stop-color="#fabd2f" stop-opacity=".03" offset=".9477"/>
      <stop stop-color="#fabd2f" stop-opacity="0" offset=".9914"/>
    </radialGradient>
    <radialGradient id="paint17_radial" cx="0" cy="0" r="1" gradientTransform="matrix(4.5578 67.032 -40.749 2.7707 124.54 122.61)" gradientUnits="userSpaceOnUse">
      <stop stop-color="#9d0006" stop-opacity="0" offset="0"/>
      <stop stop-color="#cc241d" offset=".9874"/>
      <stop stop-color="#cc241d" offset=".9987"/>
    </radialGradient>
    <radialGradient id="radialGradient16" cx="161.2" cy="123.86" r="87.461" gradientTransform="matrix(1.1806 0 0 1.3491 -62.321 -49.104)" gradientUnits="userSpaceOnUse">
      <stop stop-color="#ebdbb2" offset="0"/>
      <stop stop-color="#ebdbb2" stop-opacity="0" offset="1"/>
    </radialGradient>
  </defs>
  <path d="m57 15c-9.9393 0-17 7.0595-17 17v192c0 9.9393 7.0595 17 17 17h142c9.9405 0 17-7.0607 17-17v-144l-64.999-64.999z" fill="url(#linearGradient26)" stroke-linecap="round" stroke-linejoin="round" stroke-miterlimit="0" style="paint-order:markers fill stroke"/>
  <path d="m57 15c-0.5827 0-1.1528 0.02849-1.7148 0.07617-0.18776 0.01595-0.36937 0.04525-0.55469 0.06641-0.36183 0.04124-0.722 0.08579-1.0742 0.14648-0.22628 0.03907-0.44779 0.08782-0.66992 0.13477-0.30892 0.06517-0.61535 0.13474-0.91602 0.21484-0.22438 0.0599-0.44642 0.12333-0.66602 0.19141-0.27725 0.08577-0.54895 0.18078-0.81836 0.2793-0.23186 0.08498-0.46361 0.16943-0.68945 0.26367-0.24646 0.10262-0.48551 0.21667-0.72461 0.33008-0.22202 0.10557-0.44665 0.20756-0.66211 0.32227-0.23786 0.12631-0.46371 0.26711-0.69336 0.4043-0.52338 0.31339-1.0293 0.64972-1.5078 1.0176-0.06419 0.04935-0.13391 0.09228-0.19727 0.14258-0.269 0.21356-0.52183 0.44348-0.77539 0.67383-0.10598 0.09605-0.21514 0.1882-0.31836 0.28711-0.23361 0.22437-0.45665 0.46051-0.67578 0.69922-0.11141 0.1211-0.2225 0.24248-0.33008 0.36719-0.22 0.25558-0.43117 0.51876-0.63477 0.78906-0.07373 0.09769-0.14526 0.1973-0.2168 0.29688-0.21425 0.29884-0.42309 0.60266-0.61719 0.91797-0.04933 0.07999-0.09457 0.16312-0.14258 0.24414-0.20195 0.3415-0.39823 0.68752-0.57617 1.0469-0.62214 1.2564-1.0938 2.6201-1.4004 4.0723-0.0011 0.0053-0.0028 0.01031-0.0039 0.01563h18.58c1.108 0 2-0.892 2-2v-11zm6 0v11c0 1.108 0.892 2 2 2h26c1.108 0 2-0.892 2-2v-11zm32 0v11c0 1.108 0.892 2 2 2h26c1.108 0 2-0.892 2-2v-10.998zm32 2e-3v10.998c0 1.108 0.892 2 2 2h26c1.108 0 2-0.892 2-2v-5l-5.998-5.998zm32 7.998v3c0 1.108 0.892 2 2 2h3zm-118.89 7c-0.06514 0.65361-0.10547 1.3179-0.10547 2v13h3c1.108 0 2-0.892 2-2v-11c0-1.108-0.892-2-2-2zm8.8945 0c-1.108 0-2 0.892-2 2v11c0 1.108 0.892 2 2 2h26c1.108 0 2-0.892 2-2v-11c0-1.108-0.892-2-2-2zm32 0c-1.108 0-2 0.892-2 2v11c0 1.108 0.892 2 2 2h26c1.108 0 2-0.892 2-2v-11c0-1.108-0.892-2-2-2zm32 0c-1.108 0-2 0.892-2 2v11c0 1.108 0.892 2 2 2h26c1.108 0 2-0.892 2-2v-11c0-1.108-0.892-2-2-2zm32 0c-1.108 0-2 0.892-2 2v11c0 1.108 0.892 2 2 2h26c1.108 0 2-0.892 2-2v-6l-7-7zm30 9v4c0 1.108 0.892 2 2 2h4zm-135 8v15h19c1.108 0 2-0.892 2-2v-11c0-1.108-0.892-2-2-2zm25 0c-1.108 0-2 0.892-2 2v11c0 1.108 0.892 2 2 2h26c1.108 0 2-0.892 2-2v-11c0-1.108-0.892-2-2-2zm32 0c-1.108 0-2 0.892-2 2v11c0 1.108 0.892 2 2 2h26c1.108 0 2-0.892 2-2v-11c0-1.108-0.892-2-2-2zm32 0c-1.108 0-2 0.892-2 2v11c0 1.108 0.892 2 2 2h26c1.108 0 2-0.892 2-2v-11c0-1.108-0.892-2-2-2zm32 0c-1.108 0-2 0.892-2 2v11c0 1.108 0.892 2 2 2h26c1.108 0 2-0.892 2-2v-7l-6-6zm30 8v5c0 1.108 0.892 2 2 2h5zm-151 9v15h3c1.108 0 2-0.892 2-2v-11c0-1.108-0.892-2-2-2zm9 0c-1.108 0-2 0.892-2 2v11c0 1.108 0.892 2 2 2h26c1.108 0 2-0.892 2-2v-11c0-1.108-0.892-2-2-2zm32 0c-1.108 0-2 0.892-2 2v11c0 1.108 0.892 2 2 2h26c1.108 0 2-0.892 2-2v-11c0-1.108-0.892-2-2-2zm32 0c-1.108 0-2 0.892-2 2v11c0 1.108 0.892 2 2 2h26c1.108 0 2-0.892 2-2v-11c0-1.108-0.892-2-2-2zm32 0c-1.108 0-2 0.892-2 2v11c0 1.108 0.892 2 2 2h26c1.108 0 2-0.892 2-2v-11c0-1.108-0.892-2-2-2zm32 0c-1.108 0-2 0.892-2 2v11c0 1.108 0.892 2 2 2h26c1.108 0 2-0.892 2-2v-8l-5-5zm30 7v6c0 1.108 0.892 2 2 2h6zm-167 10v15h19c1.108 0 2-0.892 2-2v-11c0-1.108-0.892-2-2-2zm25 0c-1.108 0-2 0.892-2 2v11c0 1.108 0.892 2 2 2h26c1.108 0 2-0.892 2-2v-11c0-1.108-0.892-2-2-2zm32 0c-1.108 0-2 0.892-2 2v11c0 1.108 0.892 2 2 2h26c1.108 0 2-0.892 2-2v-11c0-1.108-0.892-2-2-2zm32 0c-1.108 0-2 0.892-2 2v11c0 1.108 0.892 2 2 2h26c1.108 0 2-0.892 2-2v-11c0-1.108-0.892-2-2-2zm32 0c-1.108 0-2 0.892-2 2v11c0 1.108 0.892 2 2 2h26c1.108 0 2-0.892 2-2v-11c0-1.108-0.892-2-2-2zm32 0c-1.108 0-2 0.892-2 2v11c0 1.108 0.892 2 2 2h23v-15zm-153 17v15h3c1.108 0 2-0.892 2-2v-11c0-1.108-0.892-2-2-2zm9 0c-1.108 0-2 0.892-2 2v11c0 1.108 0.892 2 2 2h26c1.108 0 2-0.892 2-2v-11c0-1.108-0.892-2-2-2zm32 0c-1.108 0-2 0.892-2 2v11c0 1.108 0.892 2 2 2h26c1.108 0 2-0.892 2-2v-11c0-1.108-0.892-2-2-2zm32 0c-1.108 0-2 0.892-2 2v11c0 1.108 0.892 2 2 2h26c1.108 0 2-0.892 2-2v-11c0-1.108-0.892-2-2-2zm32 0c-1.108 0-2 0.892-2 2v11c0 1.108 0.892 2 2 2h26c1.108 0 2-0.892 2-2v-11c0-1.108-0.892-2-2-2zm32 0c-1.108 0-2 0.892-2 2v11c0 1.108 0.892 2 2 2h26c1.108 0 2-0.892 2-2v-11c0-1.108-0.892-2-2-2zm32 0c-1.108 0-2 0.892-2 2v11c0 1.108 0.892 2 2 2h7v-15zm-169 17v15h19c1.108 0 2-0.892 2-2v-11c0-1.108-0.892-2-2-2zm25 0c-1.108 0-2 0.892-2 2v11c0 1.108 0.892 2 2 2h26c1.108 0 2-0.892 2-2v-11c0-1.108-0.892-2-2-2zm32 0c-1.108 0-2 0.892-2 2v11c0 1.108 0.892 2 2 2h26c1.108 0 2-0.892 2-2v-11c0-1.108-0.892-2-2-2zm32 0c-1.108 0-2 0.892-2 2v11c0 1.108 0.892 2 2 2h26c1.108 0 2-0.892 2-2v-11c0-1.108-0.892-2-2-2zm32 0c-1.108 0-2 0.892-2 2v11c0 1.108 0.892 2 2 2h26c1.108 0 2-0.892 2-2v-11c0-1.108-0.892-2-2-2zm32 0c-1.108 0-2 0.892-2 2v11c0 1.108 0.892 2 2 2h23v-15zm-153 17v15h3c1.108 0 2-0.892 2-2v-11c0-1.108-0.892-2-2-2zm9 0c-1.108 0-2 0.892-2 2v11c0 1.108 0.892 2 2 2h26c1.108 0 2-0.892 2-2v-11c0-1.108-0.892-2-2-2zm32 0c-1.108 0-2 0.892-2 2v11c0 1.108 0.892 2 2 2h26c1.108 0 2-0.892 2-2v-11c0-1.108-0.892-2-2-2zm32 0c-1.108 0-2 0.892-2 2v11c0 1.108 0.892 2 2 2h26c1.108 0 2-0.892 2-2v-11c0-1.108-0.892-2-2-2zm32 0c-1.108 0-2 0.892-2 2v11c0 1.108 0.892 2 2 2h26c1.108 0 2-0.892 2-2v-11c0-1.108-0.892-2-2-2zm32 0c-1.108 0-2 0.892-2 2v11c0 1.108 0.892 2 2 2h26c1.108 0 2-0.892 2-2v-11c0-1.108-0.892-2-2-2zm32 0c-1.108 0-2 0.892-2 2v11c0 1.108 0.892 2 2 2h7v-15zm-169 17v15h19c1.108 0 2-0.892 2-2v-11c0-1.108-0.892-2-2-2zm25 0c-1.108 0-2 0.892-2 2v11c0 1.108 0.892 2 2 2h26c1.108 0 2-0.892 2-2v-11c0-1.108-0.892-2-2-2zm32 0c-1.108 0-2 0.892-2 2v11c0 1.108 0.892 2 2 2h26c1.108 0 2-0.892 2-2v-11c0-1.108-0.892-2-2-2zm32 0c-1.108 0-2 0.892-2 2v11c0 1.108 0.892 2 2 2h26c1.108 0 2-0.892 2-2v-11c0-1.108-0.892-2-2-2zm32 0c-1.108 0-2 0.892-2 2v11c0 1.108 0.892 2 2 2h26c1.108 0 2-0.892 2-2v-11c0-1.108-0.892-2-2-2zm32 0c-1.108 0-2 0.892-2 2v11c0 1.108 0.892 2 2 2h23v-15zm-153 17v15h3c1.108 0 2-0.892 2-2v-11c0-1.108-0.892-2-2-2zm9 0c-1.108 0-2 0.892-2 2v11c0 1.108 0.892 2 2 2h26c1.108 0 2-0.892 2-2v-11c0-1.108-0.892-2-2-2zm32 0c-1.108 0-2 0.892-2 2v11c0 1.108 0.892 2 2 2h26c1.108 0 2-0.892 2-2v-11c0-1.108-0.892-2-2-2zm32 0c-1.108 0-2 0.892-2 2v11c0 1.108 0.892 2 2 2h26c1.108 0 2-0.892 2-2v-11c0-1.108-0.892-2-2-2zm32 0c-1.108 0-2 0.892-2 2v11c0 1.108 0.892 2 2 2h26c1.108 0 2-0.892 2-2v-11c0-1.108-0.892-2-2-2zm32 0c-1.108 0-2 0.892-2 2v11c0 1.108 0.892 2 2 2h26c1.108 0 2-0.892 2-2v-11c0-1.108-0.892-2-2-2zm32 0c-1.108 0-2 0.892-2 2v11c0 1.108 0.892 2 2 2h7v-15z" fill="#af3a03" style="paint-order:markers fill stroke"/>
  <ellipse cx="128" cy="118" rx="103.26" ry="118" fill="url(#radialGradient16)" opacity=".6" stroke-linecap="round" stroke-linejoin="round" stroke-miterlimit="0" stroke-width="12.085" style="paint-order:markers fill stroke"/>
  <path d="m57 241c-9.9393 0-17-7.0595-17-17v-43h176v43c0 9.9405-7.0607 17-17 17z" fill="#af3a03" opacity=".3" stroke-linecap="round" stroke-linejoin="round" stroke-miterlimit="0" style="paint-order:markers fill stroke"/>
  <path d="m50 202.03h5.3734v23.87h-5.3734zm18.049-0.27555c10.66 0 11.057 5.5985 11.057 8.0256 0 2.867-0.73237 8.1289-11.16 8.1289h-1.6878v7.9912h-5.3734v-23.526c2.5857-0.507 5.5513-0.62 7.1645-0.62zm0.34445 4.5811c-0.81927 0-1.592 0.0581-2.1356 0.10333v6.8889h1.6878c4.8796 0 5.6145-1.6646 5.6145-3.5822 0-2.3415-1.5777-3.41-5.1667-3.41zm32.826-4.3056v4.5812h-7.1989v19.289h-5.3734v-19.289h-7.1989v-4.5812zm16.602 23.87c-0.55397-1.7326-1.1679-3.4455-1.7567-5.1667h-9.3001c-0.61174 1.714-1.2157 3.4288-1.7567 5.1667h-5.58c3.6255-10.412 6.5516-17.791 9.5067-23.87h5.1323c3.5838 7.5893 6.4043 14.961 9.5067 23.87zm-6.4412-18.462c-0.61662 1.8499-1.4207 3.5264-3.3756 9.0245h6.7856c-0.063-0.17716-1.6042-4.51-3.41-9.0245zm23.25 18.772c-3.4225 0-5.8721-0.24461-7.9567-0.68888v-23.147c2.4412-0.45773 5.6911-0.62 7.2678-0.62 4.9452 0 10.402 1.0795 10.402 6.7167 0 1.9059-0.91852 3.41-2.7556 4.5122 2.6474 0.92276 3.8048 2.9958 3.9267 5.6834 0 5.8681-5.0815 7.5434-10.885 7.5434zm-2.7211-10.712v6.1656c0.8446 0.0994 1.7832 0.13778 2.79 0.13778 2.4374-6e-3 5.1319-0.39659 5.3734-3.2378 0-0.80969-0.0544-3.0656-4.7878-3.0656zm0-4.0989h2.6178c2.9834 0 4.6156-0.61494 4.6156-2.6867 0-1.2269-0.49102-2.6178-4.34-2.6178-0.96573 5e-3 -1.9306 0.0342-2.8934 0.10333zm33.859 9.8856v4.6156h-15.948v-23.87h5.3734v19.255zm3.4445 4.6156v-23.87h16.12v4.5123h-10.747v4.6845h9.5412v4.4089h-9.5412v5.7523h11.539v4.5122zm27.384-4.0989c2.7844 0 3.8578-0.84539 3.8578-2.48 0-1.3202-0.88369-2.2809-4.8911-3.6167-2.9824-1.0526-6.5445-2.5446-6.5445-7.0612 0-4.4354 3.4778-7.1645 8.7834-7.1645 3.2043 0 5.5204 0.81291 7.0612 1.6533l-1.55 4.2367c-1.6135-0.87384-3.351-1.2404-5.1667-1.3089-2.5137 0-3.6167 0.68745-3.6167 2.17 0.21292 2.0551 2.4652 2.5864 4.1334 3.1689 5.1075 1.8916 7.3367 3.4515 7.3367 7.9567 0 5.8202-5.1406 7.0267-9.4034 7.0267-1.7879 0-5.2092-0.23588-7.9912-1.8256l1.5156-4.2711c1.9989 1.1334 4.2111 1.4696 6.4756 1.5156z" color="#000000" color-rendering="auto" dominant-baseline="auto" fill="#ebdbb2" image-rendering="auto" opacity=".15" shape-rendering="auto" solid-color="#000000" stop-color="#000000" style="-inkscape-stroke:none;font-feature-settings:normal;font-variant-alternates:normal;font-variant-caps:normal;font-variant-east-asian:normal;font-variant-ligatures:normal;font-variant-numeric:normal;font-variant-position:normal;font-variation-settings:normal;inline-size:0;isolation:auto;mix-blend-mode:normal;shape-margin:0;shape-padding:0;text-decoration-color:#000000;text-decoration-line:none;text-decoration-style:solid;text-indent:0;text-orientation:mixed;text-transform:none;white-space:normal" aria-label="IPTABLES"/>
  <path d="m50 199h5.3734v23.87h-5.3734zm18.049-0.27555c10.66 0 11.057 5.5985 11.057 8.0256 0 2.867-0.73237 8.1289-11.16 8.1289h-1.6878v7.9912h-5.3734v-23.526c2.5857-0.507 5.5513-0.62 7.1645-0.62zm0.34445 4.5811c-0.81927 0-1.592 0.0581-2.1356 0.10333v6.8889h1.6878c4.8796 0 5.6145-1.6646 5.6145-3.5822 0-2.3415-1.5777-3.41-5.1667-3.41zm32.826-4.3056v4.5812h-7.1989v19.289h-5.3734v-19.289h-7.1989v-4.5812zm16.602 23.87c-0.55397-1.7326-1.1679-3.4455-1.7567-5.1667h-9.3001c-0.61174 1.714-1.2157 3.4288-1.7567 5.1667h-5.58c3.6255-10.412 6.5516-17.791 9.5067-23.87h5.1323c3.5838 7.5893 6.4043 14.961 9.5067 23.87zm-6.4412-18.462c-0.61662 1.8499-1.4207 3.5264-3.3756 9.0245h6.7856c-0.063-0.17716-1.6042-4.51-3.41-9.0245zm23.25 18.772c-3.4225 0-5.8721-0.24462-7.9567-0.68889v-23.147c2.4412-0.45773 5.6911-0.62 7.2678-0.62 4.9452 0 10.402 1.0795 10.402 6.7167 0 1.9059-0.91852 3.41-2.7556 4.5122 2.6474 0.92276 3.8048 2.9958 3.9267 5.6834 0 5.8681-5.0815 7.5434-10.885 7.5434zm-2.7211-10.712v6.1656c0.8446 0.0994 1.7832 0.13778 2.79 0.13778 2.4374-6e-3 5.1319-0.39659 5.3734-3.2378 0-0.80969-0.0544-3.0656-4.7878-3.0656zm0-4.0989h2.6178c2.9834 0 4.6156-0.61494 4.6156-2.6867 0-1.2269-0.49102-2.6178-4.34-2.6178-0.96573 5e-3 -1.9306 0.0342-2.8934 0.10333zm33.859 9.8856v4.6156h-15.948v-23.87h5.3734v19.255zm3.4445 4.6156v-23.87h16.12v4.5123h-10.747v4.6845h9.5412v4.4089h-9.5412v5.7523h11.539v4.5122zm27.384-4.0989c2.7844 0 3.8578-0.84538 3.8578-2.48 0-1.3201-0.88369-2.2809-4.8911-3.6167-2.9824-1.0526-6.5445-2.5446-6.5445-7.0612 0-4.4354 3.4778-7.1645 8.7834-7.1645 3.2043 0 5.5204 0.81292 7.0612 1.6533l-1.55 4.2367c-1.6135-0.87385-3.351-1.2405-5.1667-1.3089-2.5137 0-3.6167 0.68745-3.6167 2.17 0.21292 2.0551 2.4652 2.5864 4.1334 3.1689 5.1075 1.8916 7.3367 3.4515 7.3367 7.9567 0 5.8202-5.1406 7.0267-9.4034 7.0267-1.7879 0-5.2092-0.23588-7.9912-1.8256l1.5156-4.2711c1.9989 1.1334 4.2111 1.4696 6.4756 1.5156z" color="#000000" color-rendering="auto" dominant-baseline="auto" fill="#af3a03" image-rendering="auto" shape-rendering="auto" solid-color="#000000" stop-color="#000000" style="-inkscape-stroke:none;font-feature-settings:normal;font-variant-alternates:normal;font-variant-caps:normal;font-variant-east-asian:normal;font-variant-ligatures:normal;font-variant-numeric:normal;font-variant-position:normal;font-variation-settings:normal;inline-size:0;isolation:auto;mix-blend-mode:normal;shape-margin:0;shape-padding:0;text-decoration-color:#000000;text-decoration-line:none;text-decoration-style:solid;text-indent:0;text-orientation:mixed;text-transform:none;white-space:normal" aria-label="IPTABLES"/>
  <path d="m197.8 198.45c-5.3056 0-8.7832 2.7287-8.7832 7.1641 0 0.54376 0.0524 1.0414 0.14844 1.502 0.7148-3.528 3.9671-5.6406 8.6348-5.6406 2.6231 0 4.6207 0.55033 6.1152 1.209l0.94531-2.5801c-1.5408-0.84041-3.8562-1.6543-7.0606-1.6543zm-129.75 0.27538c-1.6131 0-4.5783 0.11409-7.1641 0.6211v3.0234c2.5857-0.507 5.5509-0.61913 7.1641-0.61913 8.82 0 10.591 3.8158 10.947 6.5137 0.07136-0.54048 0.10938-1.0621 0.10938-1.5137 0-2.4271-0.39701-8.0254-11.057-8.0254zm65.893 0c-1.5768 0-4.8264 0.16337-7.2676 0.6211v3.0234c2.4412-0.45773 5.6908-0.61913 7.2676-0.61913 4.4232 0 9.2438 0.87367 10.215 5.0898 0.12327-0.43979 0.1875-0.90471 0.1875-1.3984 0-5.6372-5.4571-6.7168-10.402-6.7168zm-83.941 0.27539v3.0254h5.373v-3.0254zm31.447 0v3.0254h19.771v-3.0254zm27.488 0c-2.9551 6.0792-5.8823 13.459-9.5078 23.871h1.082c3.1248-8.7794 5.7782-15.399 8.4258-20.846h5.1309c3.1617 6.6954 5.7365 13.284 8.4277 20.846h1.0801c-3.1025-8.9096-5.924-16.282-9.5078-23.871zm40.885 0v3.0254h5.373v-3.0254zm19.393 0v3.0254h16.121v-3.0254zm26.033 7.7012c-0.47763 0.3551-0.7168 0.85432-0.7168 1.5234 0.21292 2.0551 2.4666 2.5874 4.1348 3.1699 4.4341 1.6422 6.6928 3.0397 7.2129 6.3262 0.0728-0.43606 0.12305-0.89183 0.12305-1.3945 0-4.5053-2.2285-6.0654-7.3359-7.957-1.1538-0.40293-2.5734-0.79286-3.418-1.668zm-56.586 0.50195c-0.68048 0.85995-2.0765 1.166-4.1328 1.166h-2.6172v3.0254h2.6172c2.9834 0 4.6152-0.61575 4.6152-2.6875 0-0.51224-0.10256-1.0476-0.48242-1.5039zm35.926 0.99415v3.0254h9.541v-3.0254zm-101.31 0.0781c-0.50512 1.1747-1.8624 2.0234-5.3301 2.0234h-1.6875v3.0254h1.6875c4.8796 0 5.6152-1.6663 5.6152-3.584 0-0.56258-0.09699-1.0464-0.28516-1.4648zm70.314 2.8379c-0.45847 0.71296-1.1214 1.3369-2.002 1.8652 2.187 0.76229 3.3443 2.3174 3.7539 4.3477 0.1052-0.5228 0.17382-1.0786 0.17382-1.6894-0.0848-1.8691-0.68647-3.429-1.9258-4.5234zm-34.459 2.3203c-0.36687 0.97634-0.62428 1.6096-1.127 3.0234h6.7871c-0.0322-0.0906-0.46263-1.2914-1.1055-3.0234zm30.49 3.5293c-0.89925 1.5337-2.9819 1.8038-4.9219 1.8086-1.0069 0-1.9445-0.0373-2.7891-0.13671v3.0234c0.84461 0.0994 1.7822 0.13867 2.7891 0.13867 2.4374-6e-3 5.1316-0.39707 5.373-3.2383 0-0.35702-0.0336-0.9937-0.45118-1.5957zm50.5 0.29297-1.5156 4.2715c0.2969 0.16966 0.6034 0.31686 0.91211 0.45703l0.60351-1.7031c1.9989 1.1334 4.2101 1.4696 6.4746 1.5156 2.7844 0 3.8594-0.84582 3.8594-2.4805 0-0.52427-0.15324-0.99037-0.57227-1.4473-0.57755 0.59306-1.6214 0.90234-3.2871 0.90234-2.2645-0.046-4.4758-0.38226-6.4746-1.5156zm-34.928 1v3.0234h10.576v-3.0234zm19.393 0.10351v3.0234h11.539v-3.0234z" color="#000000" color-rendering="auto" dominant-baseline="auto" fill="#282828" image-rendering="auto" opacity=".2" shape-rendering="auto" solid-color="#000000" stop-color="#000000" style="-inkscape-stroke:none;font-feature-settings:normal;font-variant-alternates:normal;font-variant-caps:normal;font-variant-east-asian:normal;font-variant-ligatures:normal;font-variant-numeric:normal;font-variant-position:normal;font-variation-settings:normal;inline-size:0;isolation:auto;mix-blend-mode:normal;shape-margin:0;shape-padding:0;text-decoration-color:#000000;text-decoration-line:none;text-decoration-style:solid;text-indent:0;text-orientation:mixed;text-transform:none;white-space:normal"/>
  <path d="m150.48 107.12c0.41469-20.833-31.231-17.97-23.093-54.212 0 0-21.248 8.3636-17.518 34.019 1.2809 8.8156-1.8084 15.408-1.8084 15.408-3.1269 0.64043-7.9868-5.5757-6.2915-15.182 0 0-11.151 8.3259-11.151 19.025 0 10.7 5.1612 22.039 5.1612 22.039-12.847-2.7881-11.566-20.117-11.566-20.117s-8.1375 10.887-8.1375 31.42c0 15.973 18.008 41.478 47.054 41.478s52.366-22.528 52.366-42.571c0-8.7784-2.976-20.118-9.4179-26.296 0 0 0.8663 17.518-7.7987 16.689 0 0 7.1579-22.867-0.33887-33.341 0 0-3.6168 11.302-7.4598 11.641z" fill="url(#paint0_linear)" stroke-width="6.5928"/>
  <path d="m150.51 91.416c8.4382-15.559-12.47-17.706-12.508-27.276 0 0-3.692 9.8704 5.124 16.614 7.1954 5.4626 7.384 10.662 7.384 10.662z" fill="#fb4934" stroke-width="6.5928"/>
  <path d="m106.14 61.652c-3.2023 3.1646 1.2056 16.237-8.8156 21.399 0 0-3.3906-14.354 8.8156-21.399z" fill="#fb4934" stroke-width="6.5928"/>
  <path d="m82.66 113.34c-2.7879 4.7851-6.5929 13.638-6.5929 26.184 0 14.014 17.857 39.783 47.054 39.783 28.519 0 50.671-21.964 50.671-40.838 0-6.819-1.8836-15.522-6.0654-21.7-0.30129 3.8806-1.2434 9.1548-4.1443 11.905-1.5071 1.4313-3.3907 2.0715-5.4628 1.846l-2.1097-0.18856 0.64083-1.997c0.0752-0.18789 5.538-18.045 1.5823-28.632-1.5823 3.8804-4.2946 8.8907-7.6101 9.1544l-1.8836 0.15097 0.0376-1.8836c0.15097-7.7986-4.6341-11.943-10.172-16.727-7.9114-6.8566-16.839-14.617-13.562-34.321-5.5004 3.2399-16.2 12.169-13.525 30.591 1.3564 9.23-1.846 16.087-1.959 16.388l-0.37671 0.79088-0.82886 0.15097c-1.5823 0.30129-3.2399-0.33907-4.7469-1.7707-2.0344-1.9966-3.8804-5.764-3.9557-10.888-3.0892 3.1646-7.3463 8.6272-7.3463 14.843 0 10.21 4.9729 21.211 5.0106 21.323l1.3939 3.0894-3.3153-0.71599c-8.6649-1.8836-11.905-9.946-12.734-16.539z" fill="url(#paint3_linear)" opacity=".5" stroke-width="6.5928"/>
  <path d="m138.01 64.141c-0.75357 5.6887 1.5071 13.864 5.1233 16.614 3.3156 2.5241 7.0451 6.8566 7.3464 10.662 5.6514-11.076-2.2983-15.182-6.8566-16.802-1.9212-0.67814-5.4628-4.6339-5.6132-10.473z" fill="url(#paint4_radial)" stroke-width="6.5928"/>
  <path d="m120.64 62.521c-12.507 19.59 3.7302 40.273-4.6335 52.667-8.3636 12.395-16.84 0.94212-17.405-6.819 0 0 0.0754 25.091 12.47 34.999 12.394 9.9084-23.847 7.7611-28.82-4.3322 0 0 0 40.272 40.876 40.272s47.695-37.485 47.695-37.485-14.881 12.696-24.789 2.7881c0 0 7.4216-12.997 9.3052-26.334 0 0-5.1233 3.2397-12.997 1.997 0 0 4.3698-18.724-4.559-24.865-11.452-7.8738-21.135-26.635-17.141-32.889z" fill="url(#paint5_linear)" stroke-width="6.5928"/>
  <path d="m123.77 85.574c-6.5553 8.6272 6.2164 30.779-7.1954 39.557-7.4218 4.8603-11.679-0.97904-11.679-0.97904s1.9967 8.9663 9.9832 16.953c7.9872 7.9866-12.018 18.799-28.255 4.822 0 0 5.5756 33.568 43.362 27.916 41.704-6.2157 38.615-37.221 38.615-37.221s-11.302 17.782-27.389 9.2676c0 0 10.135-14.127 10.135-22.227 0 0-6.8566 4.0685-14.693 0.15032 0 0 3.7296-18.836-0.71599-21.662-10.661-6.8189-12.168-16.576-12.168-16.576z" fill="url(#paint6_linear)" stroke-width="6.5928"/>
  <path d="m150.48 107.12c0.41469-20.833-31.231-17.97-23.093-54.212 0 0-21.248 8.3636-17.518 34.019 1.2809 8.8156-1.8084 15.408-1.8084 15.408-3.1269 0.64043-7.9868-5.5757-6.2915-15.182 0 0-11.151 8.3259-11.151 19.025 0 10.7 5.1612 22.039 5.1612 22.039-12.847-2.7881-11.566-20.117-11.566-20.117s-8.1375 10.887-8.1375 31.42c0 15.973 18.008 41.478 47.054 41.478s52.366-22.528 52.366-42.571c0-8.7784-2.976-20.118-9.4179-26.296 0 0 0.8663 17.518-7.7987 16.689 0 0 7.1579-22.867-0.33887-33.341 0 0-3.6168 11.302-7.4598 11.641z" fill="url(#paint7_radial)" opacity=".5" stroke-width="6.5928"/>
  <path d="m150.48 107.12c0.41469-20.833-31.231-17.97-23.093-54.212 0 0-21.248 8.3636-17.518 34.019 1.2809 8.8156-1.8084 15.408-1.8084 15.408-3.1269 0.64043-7.9868-5.5757-6.2915-15.182 0 0-11.151 8.3259-11.151 19.025 0 10.7 5.1612 22.039 5.1612 22.039-12.847-2.7881-11.566-20.117-11.566-20.117s-8.1375 10.887-8.1375 31.42c0 15.973 18.008 41.478 47.054 41.478s52.366-22.528 52.366-42.571c0-8.7784-2.976-20.118-9.4179-26.296 0 0 0.8663 17.518-7.7987 16.689 0 0 7.1579-22.867-0.33887-33.341 0 0-3.6168 11.302-7.4598 11.641z" fill="url(#paint8_radial)" opacity=".5" stroke-width="6.5928"/>
  <path d="m78.09 130.93c0.8665 21.285 18.385 46.79 45.774 46.79 27.388 0 41.064-28.895 41.931-45.811 0 0-5.124 9.946-16.69 11.943-11.566 1.9963 0.79114-19.892-7.3082-32.852 0 0-7.1585 22.567-17.33 23.395-10.172 0.82872-18.799-14.919-18.799-23.395 0 0-6.2538 15.258-4.7092 27.389 2.3734 18.422-22.868-7.4592-22.868-7.4592z" fill="url(#paint9_radial)" stroke-width="6.5928"/>
  <path d="m150.51 91.416c8.4382-15.559-12.47-17.706-12.508-27.276 0 0-3.692 9.8704 5.124 16.614 7.1954 5.4626 7.384 10.662 7.384 10.662z" fill="url(#paint11_radial)" opacity=".5" stroke-width="6.5928"/>
  <path d="m106.14 61.652c-3.1646 3.1646-1.1302 13.148-8.8156 21.399 0 0-3.3906-14.354 8.8156-21.399z" fill="url(#paint12_radial)" stroke-width="6.5928"/>
  <path d="m150.48 107.12c0.41469-20.833-31.231-17.97-23.093-54.212 0 0-21.248 8.3636-17.518 34.019 1.2809 8.8156-1.8084 15.408-1.8084 15.408-3.1269 0.64043-7.9868-5.5757-6.2915-15.182 0 0-11.151 8.3259-11.151 19.025 0 10.7 5.1612 22.039 5.1612 22.039-12.847-2.7881-11.566-20.117-11.566-20.117s-8.1375 10.887-8.1375 31.42c0 15.973 18.008 41.478 47.054 41.478s52.366-22.528 52.366-42.571c0-8.7784-2.976-20.118-9.4179-26.296 0 0 0.8663 17.518-7.7987 16.689 0 0 7.1579-22.867-0.33887-33.341 0 0-3.6168 11.302-7.4598 11.641z" fill="url(#paint17_radial)" opacity=".25" stroke-width="6.5928"/>
  <path d="m57 15c-9.9393 0-17 7.0595-17 17v192c0 9.9393 7.0595 17 17 17h142c9.9405 0 17-7.0607 17-17v-144l-65-64.998zm4.0332 4.9902 89.967 2e-3 60 60.009v139.75c0 9.4999-6.6575 16.248-16.033 16.248h-133.93c-9.3757 0-16.033-6.7481-16.033-16.248v-183.51c0-9.501 6.6586-16.25 16.033-16.25z" fill="url(#linearGradient16)" style="paint-order:markers fill stroke"/>
  <path d="m151 15.002v52.914c0 9.6525 7.8639 17.084 17.518 17.084l47.482-1.3e-4v-5z" fill="#282828" opacity=".3" stroke-width="1.0833"/>
  <path d="m151 15.001v47.916c0 9.6525 7.8639 17.084 17.518 17.084l47.482-1.34e-4z" fill="url(#linearGradient7-6-0)" stroke-width="1.0833"/>
</svg>
