<svg width="256" height="256" version="1.1" viewBox="0 0 256 256" xmlns="http://www.w3.org/2000/svg">
  <defs>
    <linearGradient id="linearGradient7-6-0" x1="186" x2="156" y1="45.006" y2="75.012" gradientTransform="matrix(1.0833,0,0,1.0833,-17.997,-1.2506)" gradientUnits="userSpaceOnUse">
      <stop stop-color="#83a598" offset="0"/>
      <stop stop-color="#458588" offset=".3027"/>
      <stop stop-color="#076678" offset="1"/>
    </linearGradient>
    <linearGradient id="linearGradient14-5" x1="128" x2="128" y1="15.001" y2="241" gradientTransform="translate(0,4.8e-4)" gradientUnits="userSpaceOnUse">
      <stop stop-color="#ebdbb2" stop-opacity=".15" offset="0"/>
      <stop stop-color="#ebdbb2" stop-opacity=".05" offset=".2"/>
      <stop stop-opacity="0" offset=".70405"/>
      <stop stop-opacity=".1" offset=".80473"/>
      <stop stop-opacity=".15" offset="1"/>
    </linearGradient>
  </defs>
  <path d="m57 15c-9.9393 0-17 7.0595-17 17v192c0 9.9393 7.0595 17 17 17h142c9.9405 0 17-7.0607 17-17v-144l-64.999-64.999z" fill="#458588" stroke-linecap="round" stroke-linejoin="round" stroke-miterlimit="0" style="paint-order:markers fill stroke"/>
  <path d="m92.957 205v-116.09l23.002-3.7049v38.902c1.1705-0.39016 7.5156-2.1612 12.967-2.1612 24.775 0 34.116 13.599 34.116 37.203v45.849h-23.002v-43.07c0-16.224-4.414-20.377-13.43-20.377-4.3712 0-9.2464 1.2966-10.652 1.6981v61.749z" fill="#282828" opacity=".2" stroke-width="4.0261" aria-label="h"/>
  <path d="m92.957 200v-116.09l23.002-3.7049v38.902c1.1705-0.39016 7.5156-2.1612 12.967-2.1612 24.775 0 34.116 13.599 34.116 37.203v45.849h-23.002v-43.07c0-16.224-4.414-20.377-13.43-20.377-4.3712 0-9.2464 1.2966-10.652 1.6981v61.749z" fill="#ebdbb2" stroke-width="3.8593" aria-label="h"/>
  <path d="m115.96 80.209-23.001 3.7052v4.5933l23.001-3.7052zm12.967 36.741c-5.4516 0-11.797 1.7702-12.967 2.1603v4.5933c1.1705-0.39015 7.5155-2.1603 12.967-2.1603 24.775 0 34.116 13.597 34.116 37.202v-4.5933c0-23.605-9.3419-37.202-34.116-37.202z" fill="#fbf1c7" opacity=".6" stroke-width="4.0261"/>
  <path d="m57 15c-9.9393 0-17 7.0595-17 17v192c0 9.9393 7.0595 17 17 17h142c9.9405 0 17-7.0607 17-17v-144l-65-64.998zm4.0332 4.9902 89.967 2e-3 60 60.009v139.75c0 9.4999-6.6575 16.248-16.033 16.248h-133.93c-9.3757 0-16.033-6.7481-16.033-16.248v-183.51c0-9.501 6.6586-16.25 16.033-16.25z" fill="url(#linearGradient14-5)" style="paint-order:markers fill stroke"/>
  <path d="m151 15.002v52.914c0 9.6525 7.8639 17.084 17.518 17.084l47.482-1.34e-4v-5z" fill="#282828" opacity=".3" stroke-width="1.0833"/>
  <path d="m151 15.001v47.916c0 9.6525 7.8639 17.084 17.518 17.084l47.482-1.34e-4z" fill="url(#linearGradient7-6-0)" stroke-width="1.0833"/>
</svg>
