<svg width="256" height="256" version="1.1" viewBox="0 0 256 256" xmlns="http://www.w3.org/2000/svg">
  <defs>
    <linearGradient id="linearGradient14-5" x1="128" x2="128" y1="15.001" y2="241" gradientTransform="translate(.001 .00048)" gradientUnits="userSpaceOnUse">
      <stop stop-color="#ebdbb2" stop-opacity=".2" offset="0"/>
      <stop stop-color="#ebdbb2" stop-opacity=".1" offset=".2"/>
      <stop stop-opacity="0" offset=".70405"/>
      <stop stop-opacity=".05" offset=".80473"/>
      <stop stop-opacity=".1" offset="1"/>
    </linearGradient>
    <linearGradient id="linearGradient7-6-0-9" x1="186" x2="156" y1="45.006" y2="75.012" gradientTransform="matrix(1.0833,0,0,1.0833,-17.997,-1.2506)" gradientUnits="userSpaceOnUse">
      <stop stop-color="#fb4934" offset="0"/>
      <stop stop-color="#cc241d" offset=".3027"/>
      <stop stop-color="#9d0006" offset="1"/>
    </linearGradient>
    <linearGradient id="linearGradient26-6" x1="-160" x2="-160" y2="226" gradientTransform="translate(267 15)" gradientUnits="userSpaceOnUse">
      <stop stop-color="#fb4934" offset="0"/>
      <stop stop-color="#fb4934" offset="1"/>
    </linearGradient>
  </defs>
  <path d="m57.001 15c-9.9393 0-17 7.0595-17 17v192c0 9.9393 7.0595 17 17 17h142c9.9405 0 17-7.0607 17-17v-144l-64.999-64.999z" fill="url(#linearGradient26-6)" stroke-linecap="round" stroke-linejoin="round" stroke-miterlimit="0" style="paint-order:markers fill stroke"/>
  <path d="m85 93.129v116.87h38.733c42.911 0 57.267-31.721 57.267-58.436 0-29.052-15.69-58.436-56.595-58.436zm41.402 95.503h-18.865v-74.126h20.706c20.54 0 29.383 18.865 29.383 37.068 0 17.2-8.181 37.068-31.224 37.068z" fill="#282828" opacity=".3" stroke-width=".97393"/>
  <path d="m85 88.129v116.87h38.733c42.911 0 57.267-31.721 57.267-58.436 0-29.052-15.69-58.436-56.595-58.436zm41.402 95.503h-18.865v-74.126h20.706c20.54 0 29.383 18.865 29.383 37.068 0 17.2-8.181 37.068-31.224 37.068z" fill="#ebdbb2" stroke-width=".97393"/>
  <path d="m85 88.129v5h39.404c39.737 0 55.675 27.728 56.553 55.945 0.0283-0.84086 0.043-1.6775 0.043-2.5098 0-29.052-15.691-58.436-56.596-58.436zm72.549 60.955c-0.76641 16.565-9.2156 34.559-31.146 34.559v-0.01h-18.865v5h18.865v0.01c23.043 0 31.223-19.869 31.223-37.068 0-0.82936-0.0392-1.66-0.0762-2.4902z" fill="#fbf1c7" opacity=".6" stroke-width=".97393"/>
  <path d="m57.001 15c-9.9393 0-17 7.0595-17 17v192c0 9.9393 7.0595 17 17 17h142c9.9405 0 17-7.0607 17-17v-144l-65-64.998zm4.0332 4.9902 89.967 2e-3 60 60.009v139.75c0 9.4999-6.6575 16.248-16.033 16.248h-133.93c-9.3757 0-16.033-6.7481-16.033-16.248v-183.51c0-9.501 6.6586-16.25 16.033-16.25z" fill="url(#linearGradient14-5)" style="paint-order:markers fill stroke"/>
  <path d="m151 15.002v52.914c0 9.6525 7.8639 17.084 17.518 17.084l47.482-1.34e-4v-5z" fill="#282828" opacity=".3" stroke-width="1.0833"/>
  <path d="m151 15.001v47.916c0 9.6525 7.8639 17.084 17.518 17.084l47.482-1.34e-4z" fill="url(#linearGradient7-6-0-9)" stroke-width="1.0833"/>
</svg>
