<svg width="256" height="256" version="1.1" viewBox="0 0 256 256" xmlns="http://www.w3.org/2000/svg" xmlns:xlink="http://www.w3.org/1999/xlink">
  <defs>
    <linearGradient id="linearGradient7-6-0" x1="186" x2="156" y1="45.006" y2="75.012" gradientTransform="matrix(1.0833 0 0 1.0833 -17.998 -1.2506)" gradientUnits="userSpaceOnUse">
      <stop stop-color="#fb4934" offset="0"/>
      <stop stop-color="#cc241d" offset=".3027"/>
      <stop stop-color="#9d0006" offset="1"/>
    </linearGradient>
    <linearGradient id="linearGradient21" x1="128" x2="128" y1="15" y2="241" gradientTransform="translate(-9.75e-4,-9.75e-4)" gradientUnits="userSpaceOnUse">
      <stop stop-color="#ebdbb2" offset="0"/>
      <stop stop-color="#d5c4a1" offset="1"/>
    </linearGradient>
    <linearGradient id="linearGradient14-4" x1="128" x2="128" y1="15.001" y2="241" gradientTransform="translate(0,4.8e-4)" gradientUnits="userSpaceOnUse">
      <stop stop-color="#9d0006" stop-opacity=".097113" offset="0"/>
      <stop stop-color="#9d0006" stop-opacity=".048556" offset=".2"/>
      <stop stop-color="#9d0006" stop-opacity=".051181" offset=".70405"/>
      <stop stop-color="#282828" stop-opacity=".053806" offset=".80473"/>
      <stop stop-color="#282828" stop-opacity=".14698" offset="1"/>
    </linearGradient>
    <linearGradient id="linearGradient11" x2="156.77" y1="444.17" y2="444.17" gradientTransform="matrix(.5103 0 0 -.19136 88.001 205)" gradientUnits="userSpaceOnUse">
      <stop stop-color="#504945" offset="0"/>
      <stop stop-color="#282828" offset="1"/>
    </linearGradient>
    <linearGradient id="linearGradient13" x2="259.85" y1="263.1" y2="263.1" gradientTransform="matrix(.39528 0 0 -.24705 88.001 165)" gradientUnits="userSpaceOnUse">
      <stop stop-color="#cc241d" offset="0"/>
      <stop stop-color="#fb4934" offset="1"/>
    </linearGradient>
  </defs>
  <path d="m56.999 14.999c-9.9393 0-17 7.0595-17 17v149h176v-101l-64.998-64.998z" fill="url(#linearGradient21)" style="paint-order:markers fill stroke"/>
  <path d="m56.999 241c-9.9393 0-17-7.0595-17-17v-43h176v43c0 9.9405-7.0607 17-17 17z" fill="#cc241d" stroke-linecap="round" stroke-linejoin="round" stroke-miterlimit="0" style="paint-order:markers fill stroke"/>
  <path d="m72.34 222.96c3.2335 0 4.48-0.98172 4.48-2.88 0-1.533-1.0262-2.6487-5.68-4.2-3.4634-1.2224-7.6-2.955-7.6-8.2 0-5.1508 4.0386-8.32 10.2-8.32 3.7211 0 6.4107 0.94404 8.2 1.92l-1.8 4.92c-1.873-0.99727-3.8907-1.4678-6-1.52-2.9192 0-4.2 0.79833-4.2 2.52 0.24727 2.3866 2.8628 3.0035 4.8 3.68 5.9312 2.1967 8.52 4.0081 8.52 9.24 0 6.7588-5.9696 8.16-10.92 8.16-2.0763 0-6.0494-0.27394-9.28-2.12l1.76-4.96c2.3212 1.3162 4.8902 1.7066 7.52 1.76zm28.36 5.32c-11.917 0-13.84-8.7761-13.84-14.44 0-8.7096 5.577-14.48 14.16-14.48 3.6494 0 6.894 1.0788 8.56 2.12l-1.8 5.04c-1.62-0.86062-3.9004-1.64-6.84-1.64-1.6567 0-7.6 0.57595-7.6 8.84 0 7.377 4.1646 9.04 7.92 9.04 2.4702 0.084 4.7798-0.55372 7-1.56l1.72 5c-3.204 1.9418-7.9741 2.08-9.28 2.08zm32.96-0.56c-0.64332-2.0121-1.3562-4.0012-2.04-6h-10.8c-0.7104 1.9905-1.4118 3.9818-2.04 6h-6.48c4.213-12.099 7.5904-20.624 11.04-27.72h5.96c4.147 8.782 7.4312 17.356 11.04 27.72zm-7.48-21.44c-0.71608 2.1482-1.6498 4.0952-3.92 10.48h7.88c-0.0731-0.20573-1.8629-5.2373-3.96-10.48zm36.28 16.08v5.36h-18.52v-27.72h6.24v22.36zm23.8 5.36c-0.64332-2.0121-1.3562-4.0012-2.04-6h-10.8c-0.7104 1.9905-1.4118 3.9818-2.04 6h-6.48c4.213-12.099 7.5904-20.624 11.04-27.72h5.96c4.147 8.782 7.4312 17.356 11.04 27.72zm-7.48-21.44c-0.71608 2.1482-1.6498 4.0952-3.92 10.48h7.88c-0.0731-0.20573-1.8629-5.2373-3.96-10.48z" fill="#282828" opacity=".2" aria-label="SCALA"/>
  <path d="m72.34 219.96c3.2335 0 4.48-0.98172 4.48-2.88 0-1.533-1.0262-2.6487-5.68-4.2-3.4634-1.2224-7.6-2.955-7.6-8.2 0-5.1508 4.0386-8.32 10.2-8.32 3.7211 0 6.4107 0.94404 8.2 1.92l-1.8 4.92c-1.873-0.99727-3.8907-1.4678-6-1.52-2.9192 0-4.2 0.79833-4.2 2.52 0.24727 2.3866 2.8628 3.0035 4.8 3.68 5.9312 2.1967 8.52 4.0081 8.52 9.24 0 6.7588-5.9696 8.16-10.92 8.16-2.0763 0-6.0494-0.27394-9.28-2.12l1.76-4.96c2.3212 1.3162 4.8902 1.7066 7.52 1.76zm28.36 5.32c-11.917 0-13.84-8.7761-13.84-14.44 0-8.7096 5.577-14.48 14.16-14.48 3.6494 0 6.894 1.0788 8.56 2.12l-1.8 5.04c-1.62-0.86062-3.9004-1.64-6.84-1.64-1.6567 0-7.6 0.57595-7.6 8.84 0 7.377 4.1646 9.04 7.92 9.04 2.4702 0.084 4.7798-0.55372 7-1.56l1.72 5c-3.204 1.9418-7.9741 2.08-9.28 2.08zm32.96-0.56c-0.64332-2.0121-1.3562-4.0012-2.04-6h-10.8c-0.7104 1.9905-1.4118 3.9818-2.04 6h-6.48c4.213-12.099 7.5904-20.624 11.04-27.72h5.96c4.147 8.782 7.4312 17.356 11.04 27.72zm-7.48-21.44c-0.71608 2.1482-1.6498 4.0952-3.92 10.48h7.88c-0.0731-0.20573-1.8629-5.2373-3.96-10.48zm36.28 16.08v5.36h-18.52v-27.72h6.24v22.36zm23.8 5.36c-0.64332-2.0121-1.3562-4.0012-2.04-6h-10.8c-0.7104 1.9905-1.4118 3.9818-2.04 6h-6.48c4.213-12.099 7.5904-20.624 11.04-27.72h5.96c4.147 8.782 7.4312 17.356 11.04 27.72zm-7.48-21.44c-0.71608 2.1482-1.6498 4.0952-3.92 10.48h7.88c-0.0731-0.20573-1.8629-5.2373-3.96-10.48z" fill="#ebdbb2" aria-label="SCALA"/>
  <path d="m73.741 196.36c-6.1614 0-10.201 3.1676-10.201 8.3184 0 0.53497 0.0538 1.0252 0.13477 1.4902 0.72322-4.2495 4.5348-6.8105 10.066-6.8105 3.1455 0 5.5131 0.68226 7.2637 1.4805l0.93555-2.5586c-1.7893-0.97596-4.4781-1.9199-8.1992-1.9199zm27.279 0c-8.583 0-14.16 5.7689-14.16 14.479 0 0.43673 0.03984 0.91844 0.06641 1.3867 0.6502-7.8014 6.0527-12.867 14.094-12.867 3.0828 0 5.8646 0.77198 7.6621 1.6387l0.89844-2.5176c-1.666-1.0412-4.9112-2.1191-8.5606-2.1191zm22.32 0.63867c-3.4496 7.0962-6.826 15.622-11.039 27.721h1.0723c3.7097-10.46 6.8239-18.255 9.9668-24.721h5.9609c3.7306 7.9001 6.7702 15.703 9.9688 24.721h1.0703c-3.6088-10.364-6.892-18.939-11.039-27.721zm20.6 0v3h6.2402v-3zm32 0c-3.4496 7.0962-6.826 15.622-11.039 27.721h1.0723c3.7098-10.46 6.8238-18.255 9.9668-24.721h5.9609c3.7306 7.9001 6.7702 15.703 9.9688 24.721h1.0703c-3.6088-10.364-6.892-18.939-11.039-27.721zm-105.44 8.6484c-0.37777 0.39228-0.55859 0.90625-0.55859 1.5508 0.24727 2.3866 2.8636 3.0052 4.8008 3.6816 5.275 1.9537 7.9003 3.6076 8.418 7.6289 0.06101-0.43818 0.10156-0.89484 0.10156-1.3887 0-5.2319-2.5883-7.0435-8.5195-9.2402-1.4672-0.51234-3.3204-0.99375-4.2422-2.2324zm22.912 6.5879c-0.0455 0.46546-0.07031 0.95848-0.07031 1.4844 0 7.377 4.1646 9.0391 7.9199 9.0391 2.4702 0.084 4.7798-0.55427 7-1.5606l0.84375 2.4492c0.29763-0.14217 0.59953-0.27914 0.87695-0.44727l-1.7207-5c-2.2202 1.0063-4.5298 1.6426-7 1.5586-3.4813 0-7.3088-1.4378-7.8496-7.5234zm29.945 1.5234c-0.33719 0.9109-0.67311 1.8115-1.0957 3h7.8808c-0.0327-0.0921-0.49779-1.3886-1.0918-3zm52.6 0c-0.33719 0.9109-0.67311 1.8115-1.0957 3h7.8808c-0.0327-0.0921-0.49779-1.3886-1.0918-3zm-111.13 4.4414-1.7598 4.959c0.29448 0.16827 0.59948 0.30999 0.9043 0.45312l0.85547-2.4141c2.3212 1.3162 4.8898 1.7083 7.5195 1.7617 3.2335 0 4.4805-0.98258 4.4805-2.8809 0-0.51028-0.13371-0.97262-0.45703-1.4219-0.60806 0.85519-1.8654 1.3027-4.0234 1.3027-2.6298-0.0534-5.1983-0.44361-7.5195-1.7598zm85.359 1.1602v2.998h12.281v-2.998z" fill="#fbf1c7" opacity=".6"/>
  <path d="m168 40c0 12.5-79.999 17.501-79.999 20.001v30c0-2.5 79.999-7.5013 79.999-20.001zm0 39.999c0 12.5-79.999 17.501-79.999 20.001v30c0-2.5 79.999-7.5013 79.999-20.001zm0 39.999c0 12.5-79.999 17.501-79.999 20.001v30c0-2.5 79.999-7.5013 79.999-20.001z" fill="#282828" opacity=".1" stroke-width=".3125"/>
  <path d="m148.06 65c-23.694 5.4922-60.062 8.3147-60.062 9.9991v10.002c0 1.6855 36.368 4.5081 60.062 9.9991 11.447-2.6533 19.937-5.927 19.937-9.9991v-10.002c0-4.0699-8.4905-7.3458-19.937-9.9991zm0 39.999c-23.694 5.4921-60.062 8.3147-60.062 9.9991v10.002c0 1.6855 36.368 4.5081 60.062 9.9991 11.447-2.6533 19.937-5.927 19.937-9.9991v-10.002c0-4.07-8.4905-7.3458-19.937-9.9991z" fill="url(#linearGradient11)" stroke-width=".3125"/>
  <path d="m168 35c0 12.5-79.999 17.501-79.999 20.001v30c0-2.5 79.999-7.5013 79.999-20.001zm0 39.999c0 12.5-79.999 17.501-79.999 20.001v30c0-2.5 79.999-7.5013 79.999-20.001zm0 39.999c0 12.5-79.999 17.501-79.999 20.001v30c0-2.5 79.999-7.5013 79.999-20.001z" fill="url(#linearGradient13)" stroke-width=".3125"/>
  <path d="m168 35c0 12.5-80 17.5-80 20v5c0-2.5 80-7.5002 80-20zm0 40c0 12.5-80 17.5-80 20v5c0-2.5 80-7.5002 80-20zm0 39.998c0 12.5-80 17.502-80 20.002v5c0-2.5 80-7.5021 80-20.002z" fill="#ebdbb2" opacity=".2" stroke-width=".3125"/>
  <path d="m163.37 69.993c-16.999 8.9069-75.373 12.874-75.373 15.01 0 0.64041 5.2796 1.4473 13.09 2.5 20.543-2.77 58.785-7.2534 65.785-14.996-0.79142-0.87856-1.9751-1.7165-3.502-2.5137zm0 39.998c-16.999 8.9066-75.373 12.874-75.373 15.01 0 0.64026 5.2768 1.4477 13.084 2.5 20.543-2.7697 58.798-7.2517 65.793-14.996-0.79141-0.87892-1.9765-1.7162-3.5039-2.5137z" fill="#1d2021" stroke-width=".3125"/>
  <path d="m57 15c-9.9393 0-17 7.0595-17 17v192c0 9.9393 7.0595 17 17 17h142c9.9405 0 17-7.0607 17-17v-144l-65-65zm4.0332 4.9902 89.967 0.01 60 60 2e-4 139.75c1e-5 9.4999-6.6575 16.248-16.033 16.248h-133.93c-9.3757 0-16.033-6.7481-16.033-16.248v-183.51c0-9.501 6.6586-16.25 16.033-16.25z" fill="url(#linearGradient14-4)" style="paint-order:markers fill stroke"/>
  <path d="m151 15.002v52.914c0 9.6525 7.8639 17.084 17.518 17.084l47.482-1.34e-4v-5z" fill="#282828" opacity=".2" stroke-width="1.0833"/>
  <path d="m151 15.001v47.916c0 9.6525 7.8639 17.084 17.518 17.084l47.482-1.34e-4z" fill="url(#linearGradient7-6-0)" stroke-width="1.0833"/>
</svg>
