<svg width="256" height="256" version="1.1" viewBox="0 0 256 256" xmlns="http://www.w3.org/2000/svg">
  <defs>
    <linearGradient id="linearGradient16" x1="119.32" x2="119.32" y1="15" y2="241" gradientTransform="translate(.001 -.001)" gradientUnits="userSpaceOnUse">
      <stop stop-color="#ebdbb2" offset="0"/>
      <stop stop-color="#d5c4a1" offset="1"/>
    </linearGradient>
    <linearGradient id="linearGradient7-6-0-1-5" x1="186" x2="156" y1="45.006" y2="75.012" gradientTransform="matrix(1.0833,0,0,1.0833,-17.997,-1.2513)" gradientUnits="userSpaceOnUse">
      <stop stop-color="#a89984" offset="0"/>
      <stop stop-color="#7c6f64" offset=".3027"/>
      <stop stop-color="#504945" offset="1"/>
    </linearGradient>
    <linearGradient id="linearGradient14-2" x1="128" x2="128" y1="15.001" y2="241" gradientTransform="translate(.001 -5e-4)" gradientUnits="userSpaceOnUse">
      <stop stop-color="#282828" stop-opacity=".098065" offset="0"/>
      <stop stop-color="#282828" stop-opacity=".051613" offset=".2"/>
      <stop stop-color="#282828" stop-opacity=".050323" offset=".70405"/>
      <stop stop-color="#282828" stop-opacity=".10194" offset=".80473"/>
      <stop stop-color="#282828" stop-opacity=".20129" offset="1"/>
    </linearGradient>
  </defs>
  <path d="m57.001 14.999c-9.9393 0-17 7.0595-17 17v149h176v-101l-65-65-94 4.7e-5z" fill="url(#linearGradient16)" style="paint-order:markers fill stroke"/>
  <path d="m57.001 241c-9.9393 0-17-7.0595-17-17v-43h176v43c0 9.9405-7.0607 17-17 17z" fill="#665c54" stroke-linecap="round" stroke-linejoin="round" stroke-miterlimit="0" style="paint-order:markers fill stroke"/>
  <path d="m110.02 227.72c-3.2366-5.7485-7.4258-12.291-12.44-18.16v18.16h-6.16v-27.72h5.08c4.3447 4.3447 10.344 13.037 12.56 16.36v-16.36h6.2v27.72zm11.64-27.72h6.24v27.72h-6.24zm20 0c2.8077 5.364 5.1623 10.948 7.52 16.52 2.3568-5.5724 4.6676-11.178 7.52-16.52h5.68c1.2019 9.1934 1.7322 18.464 2.2 27.72h-6.08c-0.20884-7.031-0.45109-12.726-0.92-18.4-2.144 4.9499-4.2446 9.918-6.36 14.88h-4.36c-2.1341-4.9541-4.2337-9.9226-6.36-14.88-0.46892 5.6739-0.71116 11.369-0.92 18.4h-6.08c0.61669-12.642 1.2396-21.093 2.2-27.72z" fill="#32302f" opacity=".2" aria-label="NIMS"/>
  <path d="m110.02 224.72c-3.2366-5.7485-7.4258-12.291-12.44-18.16v18.16h-6.16v-27.72h5.08c4.3447 4.3447 10.344 13.037 12.56 16.36v-16.36h6.2v27.72zm11.64-27.72h6.24v27.72h-6.24zm20 0c2.8077 5.364 5.1623 10.948 7.52 16.52 2.3568-5.5724 4.6676-11.178 7.52-16.52h5.68c1.2019 9.1934 1.7322 18.464 2.2 27.72h-6.08c-0.20884-7.031-0.45109-12.726-0.92-18.4-2.144 4.9499-4.2446 9.918-6.36 14.88h-4.36c-2.1341-4.9541-4.2337-9.9226-6.36-14.88-0.46892 5.6739-0.71116 11.369-0.92 18.4h-6.08c0.61669-12.642 1.2396-21.093 2.2-27.72z" fill="#ebdbb2" aria-label="NIMS"/>
  <path d="m91.421 197v3h5.0801c4.3447 4.3447 10.343 13.036 12.559 16.359v-3c-2.2156-3.3235-8.2139-12.015-12.559-16.359zm17.639 0v3h6.2012v-3zm12.6 0v3h6.2402v-3zm14.041 0c-0.96038 6.6266-1.5825 15.078-2.1992 27.721h0.16015c0.56695-10.915 1.1612-18.663 2.0391-24.721h5.959c2.8077 5.364 5.1638 10.948 7.5215 16.52 2.3568-5.5724 4.6672-11.177 7.5195-16.52h5.6797c1.0721 8.2003 1.6034 16.463 2.0391 24.721h0.16015c-0.46781-9.2559-0.99734-18.527-2.1992-27.721h-5.6797c-2.8524 5.3425-5.1628 10.947-7.5195 16.52-2.3577-5.5719-4.7138-11.156-7.5215-16.52z" fill="#fbf1c7" opacity=".6"/>
  <path d="m126.02 70.18 6e-3 0.0093s-5.017 3.9653-10.134 7.906c-5.2638-0.16672-15.59 1.0107-21.187 3.0447-5.1543-3.2643-9.6808-6.8687-9.6808-6.8687s-3.8704 6.6585-6.3034 10.565c-3.6089 1.9198-7.2342 4.078-10.463 6.9338-2.7597-1.1016-5.5103-2.2259-8.253-3.3704 4.9744 10.033 8.3175 20.078 17.41 26.116 14.481-22.877 81.78-20.769 96.559-0.13025 9.5535-4.9816 13.268-15.696 17.031-25.605-0.41205 0.13577-5.5234 1.8451-8.8364 3.1099-1.9793-2.1544-6.6426-5.4659-9.2924-7.064-2.514-4.6029-6.1732-10.823-6.1732-10.823s-4.3342 3.224-9.3575 6.7407c-6.7858-1.2528-14.994-2.7744-21.902-2.3981-4.6994-3.8621-9.4227-8.1666-9.4227-8.1666zm60.79 39.374c-5.926 8.7782-15.566 14.838-21.508 18.101-4.2206 2.3127-13.958 3.7123-13.958 3.7123l-25.567-13.244-25.712 12.981s-9.6091-1.5433-13.958-3.5774c-8.7795-4.6857-14.685-10.221-20.913-17.801 0 0 7.0517 17.065 11.946 28.926 20.746 27.379 73.728 29.273 96.831 0.53034 5.4663-12.314 12.84-29.629 12.84-29.629z" fill="#ebdbb2" opacity=".6" stroke-width="1.1909"/>
  <path d="m126.02 65.075 6e-3 0.0093s-5.017 3.9653-10.134 7.9061c-5.2638-0.16673-15.59 1.0107-21.187 3.0447-5.1543-3.2643-9.6808-6.8687-9.6808-6.8687s-3.8704 6.6585-6.3034 10.565c-3.6089 1.9197-7.2342 4.078-10.463 6.9338-2.7597-1.1016-5.5103-2.2259-8.253-3.3704 4.9744 10.033 8.3175 20.078 17.41 26.116 14.481-22.877 81.78-20.769 96.559-0.13025 9.5535-4.9816 13.268-15.696 17.031-25.605-0.41205 0.13576-5.5234 1.8451-8.8364 3.1099-1.9793-2.1544-6.6426-5.4659-9.2924-7.0641-2.514-4.6029-6.1732-10.823-6.1732-10.823s-4.3342 3.224-9.3575 6.7407c-6.7858-1.2528-14.994-2.7744-21.902-2.3981-4.6994-3.8621-9.4227-8.1666-9.4227-8.1666zm60.79 39.374c-5.926 8.7782-15.566 14.838-21.508 18.101-4.2206 2.3127-13.958 3.7123-13.958 3.7123l-25.567-13.244-25.712 12.981s-9.6091-1.5433-13.958-3.5774c-8.7795-4.6857-14.685-10.221-20.913-17.801 0 0 7.0517 17.065 11.946 28.926 20.746 27.379 73.728 29.273 96.831 0.53034 5.4663-12.314 12.84-29.629 12.84-29.629z" fill="#d79921" stroke-width="1.1909"/>
  <path d="m126.02 65.076 6e-3 0.0078s-5.0174 3.9655-10.135 7.9062c-5.2638-0.16673-15.59 1.0108-21.187 3.0449-5.1543-3.2643-9.6797-6.8691-9.6797-6.8691s-3.8717 6.6583-6.3047 10.564c-3.6089 1.9197-7.2324 4.0797-10.461 6.9355-2.7598-1.1016-5.5114-2.2266-8.254-3.3711 1.0549 2.1277 2.0253 4.2416 3.0039 6.332 1.7482 0.71838 3.4947 1.4419 5.25 2.1426 3.2286-2.8558 6.852-5.0138 10.461-6.9336 2.433-3.9062 6.3047-10.564 6.3047-10.564s4.5254 3.6049 9.6797 6.8691c5.5973-2.0341 15.924-3.2116 21.187-3.0449 5.1173-3.9407 10.135-7.9062 10.135-7.9062l-6e-3 -0.0098s4.7244 4.3059 9.4238 8.168c6.9073-0.37633 15.115 1.1436 21.9 2.3965 5.0233-3.5168 9.3574-6.7402 9.3574-6.7402s3.6598 6.2194 6.1738 10.822c2.6498 1.5982 7.3137 4.9101 9.293 7.0645 2.1852-0.83416 4.6829-1.6979 6.5684-2.3398 0.77971-1.9582 1.5287-3.9295 2.2676-5.875-0.41205 0.13576-5.5228 1.8446-8.8359 3.1094-1.9793-2.1544-6.6432-5.4643-9.293-7.0625-2.514-4.6029-6.1738-10.824-6.1738-10.824s-4.3342 3.2254-9.3574 6.7422c-6.7858-1.2528-14.993-2.7748-21.9-2.3984-4.6994-3.8621-9.4238-8.166-9.4238-8.166zm60.791 39.373c-5.926 8.7782-15.567 14.838-21.51 18.102-4.2206 2.3127-13.957 3.7129-13.957 3.7129l-25.568-13.244-25.711 12.98s-9.6098-1.5441-13.959-3.5781c-8.7795-4.6857-14.684-10.221-20.912-17.801 0 0 2.7691 6.7059 4.0098 9.709 4.8952 5.302 10.012 9.5197 16.902 13.197 4.3492 2.0341 13.959 3.5781 13.959 3.5781l25.711-12.982 25.568 13.244s9.7364-1.3982 13.957-3.7109c4.5728-2.5109 11.33-6.6856 16.904-12.473 2.6344-6.1154 4.6055-10.734 4.6055-10.734z" fill="#282828" opacity=".1" stroke-width="1.1909"/>
  <path d="m57.001 14.999c-9.9393 0-17 7.0595-17 17v192c0 9.9393 7.0595 17 17 17h142c9.9405 0 17-7.0607 17-17v-144l-65-65zm4.0332 4.9902 89.967 0.01 60 60 2e-4 139.75c1e-5 9.4999-6.6575 16.248-16.033 16.248h-133.93c-9.3757 0-16.033-6.7481-16.033-16.248v-183.51c0-9.501 6.6586-16.25 16.033-16.25z" fill="url(#linearGradient14-2)" style="paint-order:markers fill stroke"/>
  <path d="m151 15.001v52.914c0 9.6525 7.8639 17.084 17.518 17.084l47.482-1.3e-4v-5z" fill="#282828" opacity=".3" stroke-width="1.0833"/>
  <path d="m151 15v47.916c0 9.6525 7.8639 17.082 17.518 17.082l47.482 2e-3z" fill="url(#linearGradient7-6-0-1-5)" stroke-width="1.0833"/>
</svg>
