<svg width="256" height="256" version="1.1" viewBox="0 0 256 256" xmlns="http://www.w3.org/2000/svg">
  <defs>
    <linearGradient id="linearGradient7-6-0-3" x1="186" x2="156" y1="45.006" y2="75.012" gradientTransform="matrix(1.0833 0 0 1.0833 -17.997 -1.2505)" gradientUnits="userSpaceOnUse">
      <stop stop-color="#83a598" offset="0"/>
      <stop stop-color="#458588" offset=".3027"/>
      <stop stop-color="#076678" offset="1"/>
    </linearGradient>
    <linearGradient id="linearGradient26" x1="-160" x2="-160" y2="226" gradientTransform="translate(267 15)" gradientUnits="userSpaceOnUse">
      <stop stop-color="#ebdbb2" offset="0"/>
      <stop stop-color="#d5c4a1" offset="1"/>
    </linearGradient>
    <linearGradient id="linearGradient14" x1="128" x2="128" y1="15.001" y2="241" gradientTransform="translate(0,5.3e-4)" gradientUnits="userSpaceOnUse">
      <stop stop-color="#076678" stop-opacity=".1" offset="0"/>
      <stop stop-color="#076678" stop-opacity=".05477" offset=".2"/>
      <stop stop-color="#076678" stop-opacity=".051237" offset=".70405"/>
      <stop stop-color="#076678" stop-opacity=".05" offset=".80473"/>
      <stop stop-color="#076678" stop-opacity=".1" offset="1"/>
    </linearGradient>
  </defs>
  <path d="m57 15c-9.9393 0-17 7.0595-17 17v192c0 9.9393 7.0595 17 17 17h142c9.9405 0 17-7.0607 17-17v-144l-64.999-64.999z" fill="url(#linearGradient26)" stroke-linecap="round" stroke-linejoin="round" stroke-miterlimit="0" style="paint-order:markers fill stroke"/>
  <path d="m88.698 117.41c-18.105 0-29.294 10.197-34.099 19.807-4.805 9.6099-4.6984 18.988-4.6984 18.988s-0.10662 9.3798 4.6984 18.99c4.805 9.6099 15.994 19.807 34.099 19.807 10.346 0 19.034-5.2205 26.115-11.757 4.6135-4.2587 8.7399-9.192 12.68-14.247 3.9405 5.0555 8.0664 9.9885 12.68 14.247 7.0817 6.5369 15.771 11.757 26.117 11.757 18.105 0 29.292-10.197 34.097-19.807 4.805-9.6099 4.6984-18.99 4.6984-18.99s0.10662-9.3784-4.6984-18.988c-4.805-9.6099-15.992-19.807-34.097-19.807-10.346 0-19.036 5.2205-26.117 11.757-4.6135 4.2586-8.7398 9.192-12.68 14.247-3.9405-5.0555-8.0664-9.9885-12.68-14.247-7.0817-6.5369-15.77-11.757-26.115-11.757zm0 15.518c5.1729 0 10.063 2.5399 15.59 7.6419 4.4038 4.0651 8.8913 9.6252 13.475 15.636-4.5841 6.01-9.0712 11.571-13.475 15.637-5.5272 5.1021-10.417 7.6419-15.59 7.6419-12.932 0-17.264-5.3212-20.219-11.23-2.9545-5.9087-3.0602-12.049-3.0602-12.049s0.10591-6.1388 3.0602-12.048c2.9543-5.9087 7.2859-11.23 20.219-11.23zm77.591 0c12.932 0 17.263 5.3212 20.217 11.23 2.9543 5.9086 3.0602 12.048 3.0602 12.048s-0.10591 6.1402-3.0602 12.049c-2.9543 5.9086-7.2844 11.23-20.217 11.23-5.1728 0-10.064-2.5399-15.591-7.6419-4.404-4.0652-8.8913-9.6266-13.475-15.637 4.5839-6.0097 9.0711-11.57 13.475-15.636 5.5272-5.1021 10.418-7.6419 15.591-7.6419zm0 7.7599a3.8796 3.8796 0 0 0-3.8807 3.8793v7.7584h-7.7584a3.8796 3.8796 0 0 0-3.8793 3.8793 3.8796 3.8796 0 0 0 3.8793 3.8807h7.7584v7.7584a3.8796 3.8796 0 0 0 3.8807 3.8807 3.8796 3.8796 0 0 0 3.8793-3.8807v-7.7584h7.7584a3.8796 3.8796 0 0 0 3.8807-3.8807 3.8796 3.8796 0 0 0-3.8807-3.8793h-7.7584v-7.7584a3.8796 3.8796 0 0 0-3.8793-3.8793zm-89.233 11.638a3.8796 3.8796 0 0 0-3.8793 3.8793 3.8796 3.8796 0 0 0 3.8793 3.8807h23.277a3.8796 3.8796 0 0 0 3.8807-3.8807 3.8796 3.8796 0 0 0-3.8807-3.8793z" fill="#ebdbb2" opacity=".6" stroke-linecap="round" stroke-linejoin="round" stroke-width=".72808"/>
  <path d="m77.058 151.2h23.278" fill="none" stroke="#076678" stroke-linecap="round" stroke-linejoin="round" stroke-width="7.7591"/>
  <path d="m166.29 139.56v23.278m-11.639-11.639h23.278" fill="none" stroke="#458588" stroke-linecap="round" stroke-linejoin="round" stroke-width="7.7591"/>
  <path d="m57.66 151.2s0 31.037 31.037 31.037c31.037 0 46.556-62.075 77.591-62.075 31.037 0 31.037 31.037 31.037 31.037" fill="none" stroke="#076678" stroke-width="15.518"/>
  <path d="m57.66 151.2s0-31.037 31.037-31.037c31.037 0 46.556 62.075 77.591 62.075 31.037 0 31.037-31.037 31.037-31.037" fill="none" stroke="#458588" stroke-width="15.518"/>
  <path d="m57 15c-9.9393 0-17 7.0595-17 17v192c0 9.9393 7.0595 17 17 17h142c9.9405 0 17-7.0607 17-17v-144l-65-65zm4.0332 4.9902 89.967 0.01 60 60 2e-4 139.75c1e-5 9.4999-6.6575 16.248-16.033 16.248h-133.93c-9.3757 0-16.033-6.7481-16.033-16.248v-183.51c0-9.501 6.6586-16.25 16.033-16.25z" fill="url(#linearGradient14)" style="paint-order:markers fill stroke"/>
  <path d="m151 15.002v52.914c0 9.6525 7.8639 17.084 17.518 17.084l47.482-1.3e-4v-5z" fill="#282828" opacity=".2" stroke-width="1.0833"/>
  <path d="m88.697 112.41c-18.105 0-29.292 10.197-34.098 19.807-4.805 9.6099-4.6992 18.988-4.6992 18.988s0.006449 0.9745 0.13476 2.5c0.2863-3.4034 1.2465-9.8524 4.5645-16.488 4.8053-9.6099 15.993-19.809 34.098-19.809 10.345 0 19.036 5.2209 26.117 11.758 4.6138 4.2585 8.7392 9.1926 12.68 14.248 3.9404-5.055 8.0662-9.9894 12.68-14.248 7.0813-6.5365 15.771-11.758 26.117-11.758 18.105 0 29.293 10.199 34.098 19.809 3.3198 6.6396 4.2768 13.092 4.5625 16.494 0.12884-1.5291 0.13477-2.5059 0.13477-2.5059s0.10772-9.3784-4.6973-18.988c-4.805-9.6099-15.993-19.807-34.098-19.807-10.346 0-19.036 5.2193-26.117 11.756-4.6135 4.2586-8.7393 9.193-12.68 14.248-3.9405-5.0555-8.0659-9.9895-12.68-14.248-7.0817-6.5369-15.772-11.756-26.117-11.756zm77.592 23.277a3.8796 3.8796 0 0 0-3.8809 3.8789v5a3.8796 3.8796 0 0 1 3.8809-3.8789 3.8796 3.8796 0 0 1 3.8789 3.8789v-5a3.8796 3.8796 0 0 0-3.8789-3.8789zm-89.232 11.637a3.8796 3.8796 0 0 0-3.8789 3.8808 3.8796 3.8796 0 0 0 1.0801 2.5 3.8796 3.8796 0 0 1 2.7988-1.3808h23.277a3.8796 3.8796 0 0 1 2.8789 1.459 3.8796 3.8796 0 0 0 1.002-2.5781 3.8796 3.8796 0 0 0-3.8809-3.8808h-23.277zm77.594 0a3.8796 3.8796 0 0 0-3.8789 3.8808 3.8796 3.8796 0 0 0 1.0801 2.5 3.8796 3.8796 0 0 1 2.7988-1.3808h7.7578v-5h-7.7578zm15.518 0v5h7.7598a3.8796 3.8796 0 0 1 2.8789 1.459 3.8796 3.8796 0 0 0 1.002-2.5781 3.8796 3.8796 0 0 0-3.8809-3.8808h-7.7598zm-104.5 6.3808c-0.18283 1.432-0.25195 2.5-0.25195 2.5s0.10405 6.1401 3.0586 12.049c2.9546 5.9087 7.2866 11.23 20.219 11.23 5.173 0 10.063-2.5405 15.59-7.6426 4.4041-4.0656 8.8924-9.6267 13.477-15.637-0.64991-0.85213-1.2934-1.6689-1.9394-2.5-3.9106 5.0304-7.7576 9.6477-11.537 13.137-5.5272 5.1021-10.417 7.6426-15.59 7.6426-12.932 0-17.264-5.3218-20.219-11.23-1.8277-3.6552-2.51-7.2248-2.8066-9.5488zm73.49 0c-0.64623 0.83123-1.2894 1.6477-1.9394 2.5 4.584 6.0103 9.0726 11.572 13.477 15.637 5.5268 5.102 10.417 7.6426 15.59 7.6426 12.933 0 17.262-5.3218 20.217-11.23 2.9543-5.9087 3.0606-12.049 3.0606-12.049s-0.06913-1.068-0.25196-2.5c-0.29674 2.324-0.97906 5.8936-2.8066 9.5488-2.9543 5.9086-7.2859 11.23-20.219 11.23-5.1728 0-10.063-2.5406-15.59-7.6426-3.7794-3.4887-7.6265-8.1061-11.537-13.137z" fill="#282828" opacity=".2" stroke-width=".72808"/>
  <path d="m151 15.001v47.916c0 9.6525 7.8639 17.084 17.518 17.084l47.482-1.3e-4z" fill="url(#linearGradient7-6-0-3)" stroke-width="1.0833"/>
</svg>
