<svg width="256" height="256" fill="none" version="1.1" viewBox="0 0 256 256" xmlns="http://www.w3.org/2000/svg">
  <path d="m57 15c-9.9393 0-17 7.0595-17 17v192c0 9.9393 7.0595 17 17 17h142c9.9405 0 17-7.0607 17-17v-192c0-9.9405-7.0607-17-17-17z" fill="url(#linearGradient26)" stroke-linecap="round" stroke-linejoin="round" stroke-miterlimit="0" style="paint-order:markers fill stroke"/>
  <defs>
    <linearGradient id="linearGradient26" x1="-160" x2="-160" y2="226" gradientTransform="translate(267,15)" gradientUnits="userSpaceOnUse">
      <stop stop-color="#b8bb26" offset="0"/>
      <stop stop-color="#98971a" offset="1"/>
    </linearGradient>
    <linearGradient id="linearGradient20" x1="128" x2="128" y1="15" y2="241" gradientUnits="userSpaceOnUse">
      <stop stop-color="#ebdbb2" stop-opacity=".3" offset="0"/>
      <stop stop-color="#ebdbb2" stop-opacity=".15" offset=".2027"/>
      <stop stop-opacity="0" offset=".80405"/>
      <stop stop-opacity=".1" offset=".89662"/>
      <stop stop-opacity=".15" offset="1"/>
    </linearGradient>
  </defs>
  <path d="m57 241c-9.9393 0-17-7.0595-17-17v-43h176v43c0 9.9405-7.0607 17-17 17z" fill="#b8bb26" opacity=".5" stroke-linecap="round" stroke-linejoin="round" stroke-miterlimit="0" style="paint-order:markers fill stroke"/>
  <path d="m103.8 204.8c-6.2421 0-8.24 3.9646-8.24 9.04 0 4.9582 2.1987 9.08 7.68 9.08 1.7594 0 2.5215-0.0803 3.08-0.2v-9.64h6.24v13.72c-3.5406 1.3909-8.9813 1.44-9.72 1.44-7.9578 0-13.76-4.8354-13.76-14.4 0-9.3096 6.2351-14.48 13.88-14.48 5.6637 0 8.888 1.925 9.2 2.12l-1.8 5c-0.98137-0.52135-3.5054-1.68-6.56-1.68zm22 22.92c-3.114-6.6077-7.5036-17.111-11.04-27.72h6.88c4.3554 13.066 6.1092 17.667 7.28 20.36 1.2567-3.0426 3.8643-10.113 7.28-20.36h6.64c-4.7223 13.551-7.8464 20.943-11.04 27.72zm28.96-28.04c12.379 0 12.84 6.5014 12.84 9.32 0 3.3294-0.85048 9.44-12.96 9.44h-1.96v9.28h-6.24v-27.32c1.36-0.26667 2.8-0.45333 4.32-0.56s2.8533-0.16 4-0.16zm0.4 5.32c-0.96851 0-1.8853 0.0704-2.48 0.12v8h1.96c5.6666 0 6.52-1.933 6.52-4.16 0-2.7192-1.8321-3.96-6-3.96z" fill="#ebdbb2" opacity=".2" aria-label="GVP"/>
  <path d="m103.8 201.8c-6.2421 0-8.24 3.9646-8.24 9.04 0 4.9582 2.1987 9.08 7.68 9.08 1.7594 0 2.5215-0.0803 3.08-0.2v-9.64h6.24v13.72c-3.5406 1.3909-8.9813 1.44-9.72 1.44-7.9578 0-13.76-4.8354-13.76-14.4 0-9.3096 6.2351-14.48 13.88-14.48 5.6637 0 8.888 1.925 9.2 2.12l-1.8 5c-0.98137-0.52135-3.5054-1.68-6.56-1.68zm22 22.92c-3.114-6.6077-7.5036-17.111-11.04-27.72h6.88c4.3554 13.066 6.1092 17.667 7.28 20.36 1.2567-3.0426 3.8643-10.113 7.28-20.36h6.64c-4.7223 13.551-7.8464 20.943-11.04 27.72zm28.96-28.04c12.379 0 12.84 6.5014 12.84 9.32 0 3.3294-0.85048 9.44-12.96 9.44h-1.96v9.28h-6.24v-27.32c1.36-0.26667 2.8-0.45333 4.32-0.56s2.8533-0.16 4-0.16zm0.4 5.32c-0.96851 0-1.8853 0.0704-2.48 0.12v8h1.96c5.6666 0 6.52-1.933 6.52-4.16 0-2.7192-1.8321-3.96-6-3.96z" fill="#79740e" aria-label="GVP"/>
  <path d="m102.96 196.36c-7.6449 0-13.881 5.1709-13.881 14.48 0 0.54406 0.02367 1.0686 0.06055 1.582 0.60467-8.4111 6.5746-13.062 13.82-13.062 4.1237 0 6.9342 1.0163 8.2891 1.6465l0.91016-2.5254c-0.31202-0.19501-3.5355-2.1211-9.1992-2.1211zm51.799 0.32031c-1.1467 0-2.48 0.0535-4 0.16015-1.52 0.10667-2.9603 0.29388-4.3203 0.56055v3c1.36-0.26667 2.8003-0.45388 4.3203-0.56055s2.8533-0.16015 4-0.16015c10.498 0 12.418 4.6705 12.762 7.8105 0.0575-0.53247 0.0781-1.0381 0.0781-1.4902 0-2.8186-0.461-9.3203-12.84-9.3203zm-40 0.32031c0.3343 1.0029 0.68153 2.0022 1.0293 3h5.8516c4.3554 13.066 6.1085 17.666 7.2793 20.359 1.2568-3.0426 3.8636-10.112 7.2793-20.359h5.5801c0.34987-0.9852 0.69199-1.9424 1.0605-3h-6.6406c-3.4157 10.247-6.0226 17.317-7.2793 20.359-1.1708-2.6929-2.9239-7.293-7.2793-20.359zm46.182 10.531c-0.49968 1.4918-2.0347 2.5879-6.3008 2.5879h-1.9609v3h1.9609c5.6666 0 6.5195-1.9312 6.5195-4.1582 0-0.53289-0.0742-1.0086-0.21875-1.4297zm-54.621 2.5488v3h6.2402v-3zm-10.688 2.2129c-0.04613 0.50255-0.07227 1.0168-0.07227 1.5469 0 4.9582 2.1984 9.0801 7.6797 9.0801 1.7594 0 2.5215-0.0795 3.0801-0.19922v-3c-0.55854 0.1197-1.3207 0.19922-3.0801 0.19922-4.9346 0-7.2028-3.343-7.6074-7.627z" fill="#282828" opacity=".2"/>
  <path d="m50 37v15h15v-15h-15zm141 0v15h15v-15h-15zm-141 20v15h15v-15h-15zm141 0v15h15v-15h-15zm-96.006 2.9941s0.005847 0.001948 0.005859 0.001953v-0.001953h-0.005859zm0.005859 0.001953v89.998s42.649-18.449 79.949-45.029c0-7e-3 -0.00377-0.01539-0.00977-0.02539-4e-3 -0.011-0.01058-0.02029-0.01757-0.02929l-0.01758-0.02735c-6e-3 -8e-3 -0.00877-0.01929-0.00977-0.02929-39.325-27.419-79.863-44.844-79.895-44.857zm-45 16.504v15h15v-15h-15zm141 0v15h15v-15h-15zm-141 20v15h15v-15h-15zm141 0v15h15v-15h-15zm-141 20.5v15h15v-15h-15zm141 0v15h15v-15h-15zm-141 20v15h15v-15h-15zm141 0v15h15v-15h-15zm-141 20v15h15v-15h-15zm141 0v15h15v-15h-15z" fill="#ebdbb2" opacity=".15" style="paint-order:markers fill stroke"/>
  <path d="m50 35v15h15v-15zm141 0v15h15v-15zm-141 20v15h15v-15zm45 0v90s42.649-18.449 79.949-45.029c0-7e-3 -4e-3 -0.01539-0.01-0.02539-4e-3 -0.011-0.0106-0.0203-0.0176-0.0293l-0.0176-0.02734c-6e-3 -8e-3 -9e-3 -0.0193-0.01-0.0293-39.324-27.419-79.863-44.846-79.894-44.859zm96 0v15h15v-15zm-141 19.5v15h15v-15zm141 0v15h15v-15zm-141 20v15h15v-15zm141 0v15h15v-15zm-141 20.5v15h15v-15zm141 0v15h15v-15zm-141 20v15h15v-15zm141 0v15h15v-15zm-141 20v15h15v-15zm141 0v15h15v-15z" fill="#79740e" style="paint-order:markers fill stroke"/>
  <path class="ColorScheme-Text" d="m129.9 82.737v9.5126h-9.5126c-11.415 0-19.026 8.0898-19.026 19.977 0 12.367 15.221 18.074 15.221 18.074s-7.1349-10.091-5.4717-15.221c1.3923-4.2884 5.9855-7.6103 11.179-7.6103h7.6103v9.5126l24.733-17.123z" color="#ebdbb2" fill="#b8bb26" opacity=".3" stroke-width="3.8052"/>
  <path d="m50 35v2h15v-2h-15zm141 0v2h15v-2h-15zm-141 20v2h15v-2h-15zm45 0v4.9941c0.0304 0.01306 38.184 16.444 76.369 42.459 1.1943-0.82774 2.395-1.6399 3.5801-2.4844 0-7e-3 -0.00377-0.015391-0.00977-0.025391-4e-3 -0.011-0.01058-0.020296-0.01757-0.029297l-0.01758-0.027343c-6e-3 -8e-3 -0.00877-0.019297-0.00977-0.029297-39.324-27.419-79.864-44.844-79.895-44.857zm96 0v2h15v-2h-15zm-141 19.5v2h15v-2h-15zm141 0v2h15v-2h-15zm-141 20v2h15v-2h-15zm141 0v2h15v-2h-15zm-141 20.5v2h15v-2h-15zm141 0v2h15v-2h-15zm-141 20v2h15v-2h-15zm141 0v2h15v-2h-15zm-141 20v2h15v-2h-15zm141 0v2h15v-2h-15z" fill="#282828" opacity=".2" style="paint-order:markers fill stroke"/>
  <path d="m57 15c-9.9393 0-17 7.0595-17 17v192c0 9.9393 7.0595 17 17 17h142c9.9405 0 17-7.0607 17-17v-192c0-9.9405-7.0607-17-17-17zm4.0332 5h133.93c9.3746 0 16.033 6.7474 16.033 16.248v183.5c0 9.4995-6.6575 16.248-16.033 16.248h-133.93c-9.3757 0-16.033-6.7486-16.033-16.248v-183.5c0-9.5007 6.6586-16.248 16.033-16.248z" fill="url(#linearGradient20)" style="paint-order:markers fill stroke"/>
</svg>
