<svg width="256" height="256" version="1.1" viewBox="0 0 256 256" xmlns="http://www.w3.org/2000/svg">
  <defs>
    <linearGradient id="linearGradient26" x1="-160" x2="-160" y2="226" gradientTransform="translate(267,15)" gradientUnits="userSpaceOnUse">
      <stop stop-color="#fabd2f" offset="0"/>
      <stop stop-color="#b57614" offset="1"/>
    </linearGradient>
    <linearGradient id="linearGradient7-6-0-1" x1="186" x2="156" y1="45.006" y2="75.012" gradientTransform="matrix(1.0833,0,0,1.0833,-17.998,-1.2502)" gradientUnits="userSpaceOnUse">
      <stop stop-color="#fabd2f" offset="0"/>
      <stop stop-color="#d79921" offset=".3027"/>
      <stop stop-color="#b57614" offset="1"/>
    </linearGradient>
    <linearGradient id="linearGradient14-5-9" x1="128" x2="128" y1="15.001" y2="241" gradientTransform="translate(0,4.8e-4)" gradientUnits="userSpaceOnUse">
      <stop stop-color="#ebdbb2" stop-opacity=".4" offset="0"/>
      <stop stop-color="#ebdbb2" stop-opacity=".2" offset=".2"/>
      <stop stop-opacity="0" offset=".70405"/>
      <stop stop-opacity=".05" offset=".80473"/>
      <stop stop-opacity=".1" offset="1"/>
    </linearGradient>
  </defs>
  <path d="m57 15c-9.9393 0-17 7.0595-17 17v192c0 9.9393 7.0595 17 17 17h142c9.9405 0 17-7.0607 17-17v-144l-64.999-64.999z" fill="url(#linearGradient26)" stroke-linecap="round" stroke-linejoin="round" stroke-miterlimit="0" style="paint-order:markers fill stroke"/>
  <path d="m57 241c-9.9393 0-17-7.0595-17-17v-43h176v43c0 9.9405-7.0607 17-17 17z" fill="#fabd2f" opacity=".5" stroke-linecap="round" stroke-linejoin="round" stroke-miterlimit="0" style="paint-order:markers fill stroke"/>
  <path d="m109.32 228.28c-7.3374 0-11.24-4.0343-11.24-11.04v-17.24h6.24v16.72c0 5.9689 3.6278 6.16 5.08 6.16 4.071 0 5.12-3.0332 5.12-6.16v-16.72h6.24v17.24c0 4.0123-1.4289 11.04-11.44 11.04zm17.44-28.28h6.24v27.72h-6.24zm31.16 22.36v5.36h-18.52v-27.72h6.24v22.36z" fill="#ebdbb2" opacity=".2" aria-label="UIL"/>
  <path d="m109.32 225.28c-7.3374 0-11.24-4.0343-11.24-11.04v-17.24h6.24v16.72c0 5.9689 3.6278 6.16 5.08 6.16 4.071 0 5.12-3.0332 5.12-6.16v-16.72h6.24v17.24c0 4.0123-1.4289 11.04-11.44 11.04zm17.44-28.28h6.24v27.72h-6.24zm31.16 22.36v5.36h-18.52v-27.72h6.24v22.36z" fill="#b57614" aria-label="UIL"/>
  <path d="m98.08 197v3h6.2402v-3zm16.439 0v3h6.2402v-3zm12.24 0v3h6.2402v-3zm12.641 0v3h6.2402v-3zm-35.08 16.721v3c0 5.9689 3.6279 6.1602 5.0801 6.1602 4.0709 0 5.1191-3.0334 5.1191-6.1602v-3c0 3.1268-1.0482 6.1602-5.1191 6.1602-1.4522 0-5.0801-0.19125-5.0801-6.1602zm41.32 5.6387v3h12.279v-3z" fill="#282828" opacity=".2"/>
  <path d="m152.33 67.666v18.25l27.375 24.333-27.375 24.333v18.25l48.667-41.776zm-17.37 0.17825-25.188 94.026 11.751 3.1486 25.2-94.026zm-31.296 11.988-48.667 43.392 48.667 41.776v-18.25l-27.375-24.333 27.375-24.333z" fill="#ebdbb2" opacity=".1" stroke-width=".9271"/>
  <path d="m152.33 62.647v18.25l27.375 24.333-27.375 24.333v18.25l48.667-41.776zm-17.37 0.17825-25.188 94.026 11.751 3.1486 25.2-94.026zm-31.296 11.988-48.667 43.392 48.667 41.776v-18.25l-27.375-24.333 27.375-24.333z" fill="#b57614" stroke-width=".9271"/>
  <path d="m152.33 62.647v5.0195l45.797 40.834 2.8691-2.4629zm-17.371 0.17969-25.188 94.025 1.2539 0.33594 23.934-89.344 10.51 2.8125 1.2539-4.6816zm-31.297 11.988-48.666 43.391 2.8691 2.4629 45.797-40.836zm73.219 32.926-24.551 21.824v5.0176l27.375-24.332zm-97.771 12.166-2.8223 2.5098 27.375 24.334v-5.0195z" fill="#282828" opacity=".2" stroke-width=".9271"/>
  <path d="m57 15c-9.9393 0-17 7.0595-17 17v192c0 9.9393 7.0595 17 17 17h142c9.9405 0 17-7.0607 17-17v-144l-65-64.998zm4.0332 4.9902 89.967 2e-3 60 60.009v139.75c0 9.4999-6.6575 16.248-16.033 16.248h-133.93c-9.3757 0-16.033-6.7481-16.033-16.248v-183.51c0-9.501 6.6586-16.25 16.033-16.25z" fill="url(#linearGradient14-5-9)" style="paint-order:markers fill stroke"/>
  <path d="m151 15.002v52.914c0 9.6525 7.8639 17.084 17.518 17.084l47.482-1.34e-4v-5z" fill="#282828" opacity=".3" stroke-width="1.0833"/>
  <path d="m151 15.001v47.916c0 9.6525 7.8639 17.084 17.518 17.084l47.482-1.34e-4z" fill="url(#linearGradient7-6-0-1)" stroke-width="1.0833"/>
</svg>
