<svg width="256" height="256" version="1.1" viewBox="0 0 256 256" xmlns="http://www.w3.org/2000/svg" xmlns:xlink="http://www.w3.org/1999/xlink">
  <defs>
    <linearGradient id="linearGradient7-6-0" x1="186" x2="156" y1="45.006" y2="75.012" gradientTransform="matrix(1.0833 0 0 1.0833 -17.998 -1.2506)" gradientUnits="userSpaceOnUse">
      <stop stop-color="#fb4934" offset="0"/>
      <stop stop-color="#cc241d" offset=".3027"/>
      <stop stop-color="#9d0006" offset="1"/>
    </linearGradient>
    <linearGradient id="linearGradient21" x1="128" x2="128" y1="15" y2="241" gradientTransform="translate(-9.75e-4,-9.75e-4)" gradientUnits="userSpaceOnUse">
      <stop stop-color="#ebdbb2" offset="0"/>
      <stop stop-color="#d5c4a1" offset="1"/>
    </linearGradient>
    <linearGradient id="linearGradient14-4" x1="128" x2="128" y1="15.001" y2="241" gradientTransform="translate(0,4.8e-4)" gradientUnits="userSpaceOnUse">
      <stop stop-color="#9d0006" stop-opacity=".097113" offset="0"/>
      <stop stop-color="#9d0006" stop-opacity=".048556" offset=".2"/>
      <stop stop-color="#9d0006" stop-opacity=".051181" offset=".70405"/>
      <stop stop-color="#282828" stop-opacity=".053806" offset=".80473"/>
      <stop stop-color="#282828" stop-opacity=".14698" offset="1"/>
    </linearGradient>
    <linearGradient id="linearGradient9" x1="97.674" x2="97.674" y1="50.984" y2="207.58" gradientTransform="matrix(.74936 0 0 .74936 32.081 11.229)" gradientUnits="userSpaceOnUse">
      <stop stop-color="#fbf1c7" stop-opacity=".6" offset="0"/>
      <stop stop-color="#ebdbb2" offset="1"/>
    </linearGradient>
    <linearGradient id="_lgradient_108" x2="0" y2="1" gradientTransform="matrix(80.089 0 0 64.206 87.955 73.545)" gradientUnits="userSpaceOnUse">
      <stop stop-color="#fb4934" offset="0"/>
      <stop stop-color="#cc241d" offset="1"/>
    </linearGradient>
  </defs>
  <path d="m56.999 14.999c-9.9393 0-17 7.0595-17 17v149h176v-101l-64.998-64.998z" fill="url(#linearGradient21)" style="paint-order:markers fill stroke"/>
  <path d="m57 241c-9.9393 0-17-7.0595-17-17v-43h176v43c0 9.9405-7.0607 17-17 17z" fill="#fb4934" stroke-linecap="round" stroke-linejoin="round" stroke-miterlimit="0" style="paint-order:markers fill stroke"/>
  <path d="m92.94 200c2.8077 5.364 5.1623 10.948 7.52 16.52 2.3568-5.5724 4.6676-11.178 7.52-16.52h5.68c1.2019 9.1934 1.7322 18.464 2.2 27.72h-6.08c-0.20884-7.0309-0.45108-12.726-0.92-18.4-2.144 4.9499-4.2446 9.918-6.36 14.88h-4.36c-2.1341-4.9541-4.2337-9.9226-6.36-14.88-0.46892 5.6739-0.71116 11.369-0.92 18.4h-6.08c0.61669-12.642 1.2396-21.093 2.2-27.72zm47.08 27.72c-0.64332-2.0121-1.3562-4.0012-2.04-6h-10.8c-0.7104 1.9905-1.4118 3.9818-2.04 6h-6.48c3.0521-8.7651 6.8126-19.024 11.04-27.72h5.96c4.1618 8.8133 7.4372 17.373 11.04 27.72zm-7.48-21.44c-0.71608 2.1482-1.6498 4.0952-3.92 10.48h7.88c-0.0731-0.20573-1.8629-5.2373-3.96-10.48zm29.4 22c-11.917 0-13.84-8.7761-13.84-14.44 0-8.7097 5.577-14.48 14.16-14.48 3.6494 0 6.894 1.0788 8.56 2.12l-1.8 5.04c-1.62-0.86062-3.9004-1.64-6.84-1.64-1.6567 0-7.6 0.57595-7.6 8.84 0 7.3771 4.1646 9.04 7.92 9.04 2.4702 0.084 4.7798-0.55372 7-1.56l1.72 5c-3.204 1.9418-7.9741 2.08-9.28 2.08z" fill="#282828" opacity=".2" aria-label="MAC"/>
  <path d="m92.94 197c2.8077 5.364 5.1623 10.948 7.52 16.52 2.3568-5.5724 4.6676-11.178 7.52-16.52h5.68c1.2019 9.1934 1.7322 18.464 2.2 27.72h-6.08c-0.20884-7.0309-0.45108-12.726-0.92-18.4-2.144 4.9499-4.2446 9.918-6.36 14.88h-4.36c-2.1341-4.9541-4.2337-9.9226-6.36-14.88-0.46892 5.6739-0.71116 11.369-0.92 18.4h-6.08c0.61669-12.642 1.2396-21.093 2.2-27.72zm47.08 27.72c-0.64332-2.0121-1.3562-4.0012-2.04-6h-10.8c-0.7104 1.9905-1.4118 3.9818-2.04 6h-6.48c3.0521-8.7651 6.8126-19.024 11.04-27.72h5.96c4.1618 8.8133 7.4372 17.373 11.04 27.72zm-7.48-21.44c-0.71608 2.1482-1.6498 4.0952-3.92 10.48h7.88c-0.0731-0.20573-1.8629-5.2373-3.96-10.48zm29.4 22c-11.917 0-13.84-8.7761-13.84-14.44 0-8.7097 5.577-14.48 14.16-14.48 3.6494 0 6.894 1.0788 8.56 2.12l-1.8 5.04c-1.62-0.86062-3.9004-1.64-6.84-1.64-1.6567 0-7.6 0.57595-7.6 8.84 0 7.3771 4.1646 9.04 7.92 9.04 2.4702 0.084 4.7798-0.55372 7-1.56l1.72 5c-3.204 1.9418-7.9741 2.08-9.28 2.08z" fill="#ebdbb2" aria-label="MAC"/>
  <path d="m162.26 196.36c-8.583 0-14.16 5.7708-14.16 14.48 0 0.49825 0.0233 1.0261 0.0586 1.5645 0.58357-7.9005 6.0006-13.045 14.102-13.045 3.0828 0 5.8646 0.77198 7.6621 1.6387l0.89843-2.5176c-1.666-1.0412-4.9111-2.1211-8.5605-2.1211zm-75.279 0.64062c-0.96038 6.6266-1.5845 15.078-2.2012 27.721h0.16016c0.56695-10.915 1.1631-18.663 2.041-24.721h5.959c2.8077 5.364 5.1638 10.948 7.5215 16.52 2.3568-5.5724 4.6672-11.177 7.5195-16.52h5.6797c1.072 8.2003 1.6034 16.463 2.0391 24.721h0.16016c-0.46781-9.2559-0.99734-18.527-2.1992-27.721h-5.6797c-2.8524 5.3425-5.1628 10.947-7.5195 16.52-2.3577-5.5719-4.7138-11.156-7.5215-16.52zm42.719 0c-4.2274 8.6963-7.9869 18.956-11.039 27.721h1.0664c2.8521-8.0591 6.2111-16.983 9.9727-24.721h5.9609c3.7432 7.9268 6.7765 15.72 9.9688 24.721h1.0703c-3.6028-10.347-6.8772-18.907-11.039-27.721zm24.951 15.236c-0.0455 0.46546-0.0703 0.95848-0.0703 1.4844 0 7.3771 4.1646 9.0391 7.9199 9.0391 2.4702 0.084 4.7798-0.55427 7-1.5606l0.84766 2.4629c0.29923-0.14277 0.59421-0.2939 0.87304-0.46289l-1.7207-5c-2.2202 1.0063-4.5298 1.6446-7 1.5606-3.4813 0-7.3088-1.4377-7.8496-7.5234zm-24.936 1.5234c-0.33719 0.9109-0.67311 1.8115-1.0957 3h7.8809c-0.0327-0.0921-0.4978-1.3886-1.0918-3z" fill="#fbf1c7" opacity=".6"/>
  <path class="fil0" d="m191.02 121.43-2.7233 25.437h-65.329v-2.0183l33.011-36.509-32.083-40.937v-2.0001h61.855v21.636h-4.1044c-2.3604-9.6944-7.0933-16.526-17.304-16.951-2.1487-0.0982-3.8854-0.15646-5.2483-0.15646h-17.856l25.729 32.843v0.92136l-30.069 33.059h37.746c6.8984 0 9.9272-8.5019 12.312-15.324zm-77.341-66.25v6.7634h-7.763c-8.7993 0-13.186 2.3841-15.379 3.6585-3.0484 1.8365-7.497 5.8706-7.497 13.774 0 13.388 13.873 14.551 18.69 14.551h8.6609v6.274h-11.725c-18.635 0-19.977 11.196-19.977 17.004 0 9.7906 6.0433 15.163 15.852 15.163h7.9038c12.532 0 15.076 8.9643 15.076 14.959 0 9.2742-8.9062 19.456-21.365 19.456-5.3366 0-11.541-0.70017-11.541-5.9889 0-2.1852 1.0306-5.2727 5.7994-5.2727 4.4364 0 6.6449 3.9232 10.234 5.7629 1.0782-0.0918 9.9273-1.1393 9.9273-10.79 0-6.701-5.0993-8.5627-10.766-8.5627h-9.3345c-14.479 0-23.469-10.016-23.469-21.845 0-13.74 11.815-21.951 22.816-23.358v-0.34769c-5.4398-0.89714-18.567-4.3477-18.567-16.758 0-12.286 13.001-16.399 17.485-17.739v-1.0005c-6.9201 0.17367-8.2514 0.40853-12.807 0.40853-3.0963 0-10.949-0.25216-10.949-6.1106 0-1.8164 0.55689-5.7421 5.3709-5.7421 4.6397-0.03875 8.1128 3.3323 11.685 5.8446 0.96048 0.65365 2.4095 0.97961 4.3704 0.97961 9.0983-0.03293 18.19-0.51414 27.269-1.0822z" fill="url(#linearGradient9)" fill-rule="evenodd" opacity=".6" stroke-width=".86922" style="isolation:isolate"/>
  <path class="fil0" d="m191.02 119.18-2.7233 25.437h-65.329v-2.0183l33.011-36.509-32.083-40.937v-2.0001h61.855v21.636h-4.1044c-2.3604-9.6944-7.0933-16.526-17.304-16.951-2.1487-0.0982-3.8854-0.15646-5.2483-0.15646h-17.856l25.729 32.843v0.92136l-30.069 33.059h37.746c6.8984 0 9.9272-8.5019 12.312-15.324zm-77.341-66.25v6.7634h-7.763c-8.7993 0-13.186 2.3841-15.379 3.6585-3.0484 1.8365-7.497 5.8706-7.497 13.774 0 13.388 13.873 14.551 18.69 14.551h8.6609v6.274h-11.725c-18.635 0-19.977 11.196-19.977 17.004 0 9.7906 6.0434 15.163 15.852 15.163h7.9038c12.532 0 15.076 8.9643 15.076 14.959 0 9.2742-8.9062 19.456-21.365 19.456-5.3366 0-11.541-0.70017-11.541-5.9889 0-2.1852 1.0306-5.2727 5.7994-5.2727 4.4364 0 6.6449 3.9232 10.234 5.7629 1.0782-0.0918 9.9273-1.1393 9.9273-10.79 0-6.701-5.0993-8.5627-10.766-8.5627h-9.3345c-14.479 0-23.469-10.016-23.469-21.845 0-13.74 11.815-21.951 22.816-23.358v-0.34769c-5.4398-0.89714-18.567-4.3477-18.567-16.758 0-12.286 13.001-16.399 17.485-17.739v-1.0005c-6.9201 0.17367-8.2514 0.40853-12.807 0.40853-3.0963 0-10.949-0.25216-10.949-6.1106 0-1.8164 0.55689-5.7421 5.3709-5.7421 4.6397-0.03875 8.1128 3.3323 11.685 5.8446 0.96048 0.65365 2.4095 0.97961 4.3704 0.97961 9.0983-0.03293 18.19-0.51414 27.269-1.0822z" fill="#076678" fill-rule="evenodd" stroke-width=".86922" style="isolation:isolate"/>
  <path class="fil0" d="m70.353 47.186c-4.814 0-5.3714 3.9253-5.3714 5.7417 0 0.37441 0.03428 0.72525 0.09513 1.0553 0.27002-1.9486 1.3497-4.5489 5.2763-4.5489 4.6397-0.03875 8.1118 3.3318 11.684 5.8442 0.96048 0.65365 2.4094 0.98061 4.3703 0.98061 9.0983-0.03293 18.191-0.51503 27.27-1.0831v-2.2481c-9.0788 0.56803-18.171 1.0501-27.27 1.0831-1.961 0-3.4098-0.32696-4.3703-0.98061-3.5721-2.5123-7.0442-5.8829-11.684-5.8442zm18.384 13.692c-1.9256 0.04833-2.8071 0.09787-4.0571 0.14929-5.6048 2.2094-13.429 6.7912-13.429 16.343 0 0.39112 0.04922 0.7476 0.07464 1.1211 0.7811-11.396 13.07-15.315 17.411-16.612zm35.157 2.273v2.0007l0.1932 0.24735h61.661v-2.2481zm17.342 6.7765 25.17 32.13 0.5591-0.61471v-0.9206l-23.968-30.595zm-58.146 7.9869c-0.0344 0.47125-0.05269 0.9557-0.05269 1.4578 0 13.388 13.873 14.551 18.69 14.551h8.6601v-2.2481h-8.6601c-4.7169 0-18.081-1.1454-18.637-13.761zm2.4296 17.456c-9.5711 2.7437-18.517 10.507-18.517 22.463 0 0.40146 0.03651 0.79441 0.05708 1.1914 0.59654-13.095 12.047-20.931 22.759-22.302v-0.34834c-1.1449-0.18881-2.6667-0.52927-4.2986-1.004zm69.514 11.76-32.067 35.466v2.0183h0.20784l32.804-36.28zm-76.303 8.9411c-0.01255 0.37562-0.04391 0.78674-0.04391 1.1284 0 9.7906 6.0437 15.163 15.852 15.163h7.9034c11.773 0 14.695 7.8849 15.011 13.813 0.0274-0.36768 0.0644-0.73654 0.0644-1.1021 0-5.995-2.5426-14.959-15.075-14.959h-7.9034c-9.4239 0-15.356-4.971-15.808-14.043zm108.22 3.1058c-2.3853 6.8224-5.4148 15.325-12.313 15.325h-35.702l-2.0446 2.2481h37.746c6.8984 0 9.928-8.5029 12.313-15.325h3.8229l0.24003-2.2481zm-76.442 30.1c-0.62213 8.6689-8.8302 9.6651-9.8676 9.7534-3.5893-1.8397-5.7971-5.7622-10.233-5.7622-4.7688 0-5.8002 3.0866-5.8002 5.2719 0 0.39641 0.04597 0.75999 0.1127 1.1065 0.34641-1.9817 1.7076-4.1303 5.6875-4.1303 4.4364 0 6.6442 3.9225 10.233 5.7622 1.0782-0.0918 9.9276-1.1385 9.9276-10.79 0-0.42328-0.0204-0.82645-0.06-1.2119z" fill="#282828" opacity=".2" stroke-width=".86922" style="isolation:isolate"/>
  <path class="fil0" d="m168.04 140.12h-28.567v-3.2121c6.8238-0.19774 10.077-1.377 10.077-5.8385v-46.69h-0.68495l-22.05 54.706h-2.2868l-20.994-55.851h-0.59082v38.336c0 3.7063 0.2328 6.5327 0.69924 8.4631 1.4174 5.8584 7.8483 6.7525 10.404 6.8739v3.2121h-26.095v-3.2121c7.7147-0.69799 9.2447-2.7928 9.9692-6.0696 0.40426-1.7456 0.59083-4.6652 0.59083-8.7741v-32.852c0.33058-6.549-4.1176-9.6643-10.155-10.086v-3.213h22.051l18.489 48.143 15.817-40.265c0.58936-1.5172 1.0826-3.07 1.4766-4.6493 0.41937-1.6069 0.63789-2.6877 0.66815-3.2289h21.088v3.213c-4.1178 0.21959-8.6124 0.73541-8.7867 5.6527v46.29c-0.0693 4.8762 5.0287 5.5697 8.88 5.8385z" fill="#282828" fill-rule="evenodd" opacity=".3" stroke-width=".84043" style="isolation:isolate"/>
  <path class="fil0" d="m168.04 137.75h-28.567v-3.2121c6.8238-0.19774 10.077-1.377 10.077-5.8385v-46.69h-0.68495l-22.05 54.706h-2.2868l-20.994-55.851h-0.59082v38.336c0 3.7063 0.2328 6.5327 0.69924 8.4631 1.4174 5.8584 7.8483 6.7525 10.404 6.8739v3.2121h-26.095v-3.2121c7.7147-0.69799 9.2447-2.7928 9.9692-6.0696 0.40425-1.7456 0.59082-4.6652 0.59082-8.7741v-32.852c0.33058-6.549-4.1176-9.6643-10.155-10.086v-3.213h22.051l18.489 48.143 15.817-40.265c0.58936-1.5172 1.0826-3.07 1.4766-4.6493 0.41937-1.6069 0.63789-2.6877 0.66815-3.2289h21.088v3.213c-4.1178 0.21959-8.6124 0.73541-8.7867 5.6527v46.29c-0.0693 4.8762 5.0287 5.5697 8.88 5.8385z" fill="url(#_lgradient_108)" fill-rule="evenodd" stroke-width=".84043" style="isolation:isolate"/>
  <path class="fil0" d="m88.361 73.546v2.3666h22.051l18.49 48.144 15.817-40.265c0.58935-1.5172 1.0827-3.0706 1.4768-4.6499 0.41937-1.6069 0.63714-2.6875 0.66741-3.2287h21.088v-2.3666h-21.088c-0.0303 0.54124-0.24804 1.6218-0.66741 3.2287-0.39408 1.5792-0.88742 3.1312-1.4768 4.6484l-15.817 40.265-18.49-48.142zm10.154 14.412v1.2543c0.0219-0.43364 0.0191-0.85055 0-1.2543zm4.4318 31.245v2.3666c0 3.7063 0.2317 6.5335 0.69814 8.464 1.4174 5.8584 7.8493 6.7516 10.405 6.8731v-2.3666c-2.5554-0.12141-8.9873-1.0161-10.405-6.8745-0.46644-1.9305-0.69814-4.7562-0.69814-8.4625zm-4.4318 0.49323c0 4.1089-0.18704 7.0287-0.5913 8.7743-0.72452 3.2768-2.2538 5.3716-9.9686 6.0696v2.3666c7.7147-0.698 9.244-2.7927 9.9686-6.0696 0.40426-1.7456 0.5913-4.6654 0.5913-8.7743zm51.039 9.0055c0 4.4615-3.2531 5.6406-10.077 5.8383v2.3666c6.8238-0.19775 10.077-1.3768 10.077-5.8383zm9.61 0v2.3666c-0.0693 4.8762 5.0284 5.5695 8.8796 5.8383v-2.3666c-3.8512-0.26876-8.949-0.96214-8.8796-5.8383z" fill="#ebdbb2" opacity=".2" stroke-width=".84043" style="isolation:isolate"/>
  <path d="m57 15c-9.9393 0-17 7.0595-17 17v192c0 9.9393 7.0595 17 17 17h142c9.9405 0 17-7.0607 17-17v-144l-65-65zm4.0332 4.9902 89.967 0.01 60 60 2e-4 139.75c1e-5 9.4999-6.6575 16.248-16.033 16.248h-133.93c-9.3757 0-16.033-6.7481-16.033-16.248v-183.51c0-9.501 6.6586-16.25 16.033-16.25z" fill="url(#linearGradient14-4)" style="paint-order:markers fill stroke"/>
  <path d="m151 15.002v52.914c0 9.6525 7.8639 17.084 17.518 17.084l47.482-1.34e-4v-5z" fill="#282828" opacity=".2" stroke-width="1.0833"/>
  <path d="m151 15.001v47.916c0 9.6525 7.8639 17.084 17.518 17.084l47.482-1.34e-4z" fill="url(#linearGradient7-6-0)" stroke-width="1.0833"/>
</svg>
