<svg width="256" height="256" version="1.1" viewBox="0 0 256 256" xmlns="http://www.w3.org/2000/svg">
  <defs>
    <linearGradient id="linearGradient7-6-0" x1="186" x2="156" y1="45.006" y2="75.012" gradientTransform="matrix(1.0833 0 0 1.0833 -17.998 -1.2507)" gradientUnits="userSpaceOnUse">
      <stop stop-color="#83a598" offset="0"/>
      <stop stop-color="#458588" offset=".3027"/>
      <stop stop-color="#076678" offset="1"/>
    </linearGradient>
    <linearGradient id="linearGradient21" x1="128" x2="128" y1="15" y2="241" gradientTransform="translate(-9.75e-4,-9.75e-4)" gradientUnits="userSpaceOnUse">
      <stop stop-color="#ebdbb2" offset="0"/>
      <stop stop-color="#d5c4a1" offset="1"/>
    </linearGradient>
    <linearGradient id="linearGradient14-8" x1="128" x2="128" y1="15.001" y2="241" gradientTransform="translate(0,4.8e-4)" gradientUnits="userSpaceOnUse">
      <stop stop-color="#076678" stop-opacity=".099738" offset="0"/>
      <stop stop-color="#076678" stop-opacity=".049869" offset=".2"/>
      <stop stop-color="#076678" stop-opacity=".047244" offset=".70405"/>
      <stop stop-color="#282828" stop-opacity=".049869" offset=".80473"/>
      <stop stop-color="#282828" stop-opacity=".10236" offset="1"/>
    </linearGradient>
    <linearGradient id="linearGradient16" x1="108.93" x2="108.93" y1="52.792" y2="208.36" gradientTransform="matrix(.74288 0 0 .74288 32.929 10.214)" gradientUnits="userSpaceOnUse">
      <stop stop-color="#fbf1c7" stop-opacity=".7" offset="0"/>
      <stop stop-color="#ebdbb2" offset="1"/>
    </linearGradient>
  </defs>
  <path d="m56.999 14.999c-9.9393 0-17 7.0595-17 17v149h176v-101l-64.998-64.998z" fill="url(#linearGradient21)" style="paint-order:markers fill stroke"/>
  <path d="m57 241c-9.9393 0-17-7.0595-17-17v-43h176v43c0 9.9405-7.0607 17-17 17z" fill="#458588" stroke-linecap="round" stroke-linejoin="round" stroke-miterlimit="0" style="paint-order:markers fill stroke"/>
  <path d="m113.46 227.72c-3.2366-5.7485-7.4258-12.291-12.44-18.16v18.16h-6.16v-27.72h5.08c4.3447 4.3447 10.344 13.037 12.56 16.36v-16.36h6.2v27.72zm11.64-27.72h6.24v27.72h-6.24zm28.56 27.72c-0.95148-1.903-3.0803-5.9231-5.72-9.56-2.4596 3.1624-5.5122 8.7835-5.88 9.56h-7.12c2.4908-4.5853 5.4549-8.9918 9.32-14.36l-8.92-13.36h7.56l5.4 8.64 5.28-8.64h7.12l-8.8 13.44c2.0317 2.6364 5.968 8.0335 9.24 14.28z" fill="#282828" opacity=".2" aria-label="NIX"/>
  <path d="m113.46 224.72c-3.2366-5.7485-7.4258-12.291-12.44-18.16v18.16h-6.16v-27.72h5.08c4.3447 4.3447 10.344 13.037 12.56 16.36v-16.36h6.2v27.72zm11.64-27.72h6.24v27.72h-6.24zm28.56 27.72c-0.95148-1.903-3.0803-5.9231-5.72-9.56-2.4596 3.1624-5.5122 8.7835-5.88 9.56h-7.12c2.4908-4.5853 5.4549-8.9918 9.32-14.36l-8.92-13.36h7.56l5.4 8.64 5.28-8.64h7.12l-8.8 13.44c2.0317 2.6364 5.968 8.0335 9.24 14.28z" fill="#ebdbb2" aria-label="NIX"/>
  <path d="m94.86 197v3h5.0801c4.3447 4.3447 10.345 13.036 12.561 16.359v-2.998c-2.2156-3.3235-8.2158-12.017-12.561-16.361zm17.641 0v3h6.1992v-3zm12.6 0v3h6.2402v-3zm10.24 0 2.002 3h5.5586l5.4004 8.6406 5.2793-8.6406h5.1562l1.9629-3h-7.1191l-5.2793 8.6406-5.4004-8.6406zm7.8887 14.816c-3.3508 4.7077-6.0329 8.7508-8.2891 12.904h1.7148c2.1232-3.5627 4.5868-7.1687 7.6055-11.361zm9.7168 0.0254-1.0449 1.5976c1.6967 2.2017 4.7191 6.3421 7.5762 11.281h1.6641c-2.8073-5.3594-6.0324-9.9772-8.1953-12.879z" fill="#fbf1c7" opacity=".6"/>
  <path d="m122.13 49.434 33.364 57.783 7.8486-13.596-9.8128-16.995 12.121-20.998-3.6437-6.194h-8.4771l-7.8553 13.596-7.8449-13.596zm-7.9875 81.576 7.8486 13.596h19.623l11.778 20.394h8.4771l3.6438-6.193-8.1985-14.201h16.55l8.0016-13.596zm-15.56-47.586-9.8128 16.995h-24.735l-3.9966 6.798 3.9966 6.798h16.89l-8.3664 14.486 7.9214 13.47 33.803-58.548zm-4.5547-33.99-3.6437 6.194 8.1985 14.2h-16.55l-8.0009 13.596h67.721l-7.8486-13.596h-19.623l-11.778-20.394zm81.532 23.028-33.803 58.548h15.7l9.8128-16.995h24.734l3.9972-6.798-3.9972-6.798h-16.889l8.3649-14.486zm-75.016 34.755-7.8486 13.596 9.8128 16.995-12.121 20.999 3.6437 6.193h8.4771l7.8552-13.596 7.8449 13.596h15.7z" fill="url(#linearGradient16)" opacity=".5" stroke-width="3.399"/>
  <path d="m94.028 44.433-3.6437 6.194 8.1985 14.2h-16.55l-8.0009 13.596h67.721l-7.8486-13.596h-19.623l-11.778-20.394zm81.532 23.028-33.803 58.548h15.7l9.8128-16.995h24.734l3.9972-6.798-3.9972-6.798h-16.889l8.3649-14.486zm-75.016 34.755-7.8486 13.596 9.8128 16.995-12.121 20.999 3.6437 6.193h8.477l7.8553-13.596 7.8449 13.596h15.7z" fill="#458588" stroke-width="3.399"/>
  <path d="m94.028 44.434-3.6426 6.1934 1.459 2.5273 2.1875-3.7207h8.4766l11.777 20.395h19.623l4.9629 8.5957h2.8828l-7.8496-13.596h-19.621l-11.779-20.395zm-11.994 20.395-8.002 13.596h2.9473l5.0586-8.5957h16.549l-2.8867-5zm93.527 2.6328-33.805 58.549h2.8906l30.916-53.549 6.4609 10.99 1.4551-2.5195zm2.4434 27.957-2.8867 5h16.891l2.5254 4.2949 1.4668-2.4961-3.9961-6.7988zm-77.461 6.7988-7.8477 13.596 1.4453 2.5039 6.4063-11.1 30.477 52.783h2.8848zm0.52344 33.088-10.68 18.502 1.459 2.4805 10.666-18.479z" fill="#282828" opacity=".2"/>
  <path d="m122.13 44.433 33.364 57.783 7.8486-13.596-9.8128-16.995 12.121-20.998-3.6437-6.194h-8.4771l-7.8553 13.596-7.8449-13.596zm-7.9875 81.576 7.8486 13.596h19.623l11.778 20.394h8.4771l3.6438-6.193-8.1985-14.201h16.55l8.0016-13.596zm-15.56-47.586-9.8128 16.995h-24.735l-3.9966 6.798 3.9966 6.798h16.89l-8.3664 14.486 7.9214 13.47 33.803-58.548z" fill="#83a598" stroke-width="3.399"/>
  <path d="m122.13 44.433 2.8867 5h12.812l7.8457 13.596 7.8555-13.596h8.4766l2.1875 3.7168 1.457-2.5234-3.6445-6.1934h-8.4766l-7.8555 13.596-7.8457-13.596zm32.844 29.691-1.4434 2.5 8.3691 14.496 1.4434-2.5zm-40.691 4.2969-15.701 2e-3 -9.8125 16.994h-24.734l-3.9961 6.7988 1.4688 2.5 2.5273-4.2988h24.734l9.8125-16.994 12.814-2e-3zm-36.246 35.592-5.4785 9.4863 1.457 2.4766 6.9102-11.963zm36.105 11.996 2.8867 5h61.893l2.9434-5zm43.172 18.596 6.7402 11.678 1.457-2.4766-5.3105-9.2012z" fill="#282828" opacity=".15"/>
  <path d="m131.94 64.828 7.8553 13.596h1.9578l-7.8486-13.596zm-31.4 37.389-7.8486 13.596 0.98232 1.6995 7.8486-13.59z" opacity=".1" stroke-width="3.399"/>
  <path d="m57 15c-9.9393 0-17 7.0595-17 17v192c0 9.9393 7.0595 17 17 17h142c9.9405 0 17-7.0607 17-17v-144l-65-65zm4.0332 4.9902 89.967 0.01 60 60 2e-4 139.75c1e-5 9.4999-6.6575 16.248-16.033 16.248h-133.93c-9.3757 0-16.033-6.7481-16.033-16.248v-183.51c0-9.501 6.6586-16.25 16.033-16.25z" fill="url(#linearGradient14-8)" style="paint-order:markers fill stroke"/>
  <path d="m151 15.002v52.914c0 9.6525 7.8639 17.084 17.518 17.084l47.482-1.34e-4v-5z" fill="#282828" opacity=".2" stroke-width="1.0833"/>
  <path d="m151 15.001v47.916c0 9.6525 7.8639 17.082 17.518 17.082l47.482 0.0019z" fill="url(#linearGradient7-6-0)" stroke-width="1.0833"/>
</svg>
