<svg width="256" height="256" fill="none" version="1.1" viewBox="0 0 256 256" xmlns="http://www.w3.org/2000/svg">
  <path d="m55.08 15h100.5l60.4 60.15 2e-3 148.9c0 8.911-7.262 16.13-16.17 16.13h-144.8c-8.91 0-16.08-7.174-16.08-16.08v-193c0-8.91 7.173-16.08 16.08-16.08h1e-4z" fill="#ebdbb2"/>
  <path d="m199.8 240.2c8.911 0 16.17-7.218 16.17-16.13l-1e-3 -37.55h-177v37.59c0 8.91 7.173 16.08 16.08 16.08h144.8z" fill="url(#paint0_linear)" opacity=".2"/>
  <path d="m155.6 20.32h-100.5c-5.973 0-10.76 4.792-10.76 10.76v193c0 5.973 4.792 10.76 10.76 10.76h144.8c5.992 0 10.85-4.856 10.85-10.81v-148.9l-55.08-54.83zm0-5.319h-100.5c-8.91 0-16.08 7.173-16.08 16.08v193c0 8.91 7.173 16.08 16.08 16.08h144.8c8.911 0 16.17-7.218 16.17-16.13l-2e-3 -148.9-60.4-60.15z" clip-rule="evenodd" fill="url(#paint1_linear)" fill-rule="evenodd"/>
  <path d="m151.2 197.4c-2.88 0-5.187 0.6934-6.92 2.08-1.707 1.36-2.561 3.267-2.561 5.721 0 1.653 0.3477 3.013 1.041 4.08s1.572 1.945 2.639 2.639c1.067 0.6933 2.188 1.294 3.361 1.801 1.947 0.8267 3.426 1.586 4.439 2.279 1.013 0.6933 1.52 1.64 1.52 2.84 0 1.093-0.3992 1.974-1.199 2.641-0.8 0.6667-2.053 1-3.76 1-1.493 0-2.96-0.214-4.4-0.6406-1.44-0.4533-2.761-0.9452-3.961-1.479v4.799c2.187 1.067 4.853 1.6 8 1.6 3.253-1e-5 5.801-0.7326 7.641-2.199 1.84-1.467 2.76-3.467 2.76-6 0-1.493-0.2922-2.746-0.8789-3.76-0.56-1.013-1.387-1.88-2.48-2.6-1.093-0.72-2.4-1.413-3.92-2.08-1.333-0.5867-2.426-1.107-3.279-1.561-0.8267-0.4533-1.442-0.9471-1.842-1.48-0.4-0.5333-0.5996-1.2-0.5996-2 0-0.9867 0.3601-1.785 1.08-2.398 0.72-0.64 1.773-0.9609 3.16-0.9609 1.147 0 2.254 0.1461 3.32 0.4395 1.093 0.2933 2.239 0.6945 3.439 1.201l1.641-4.121c-1.333-0.5867-2.667-1.039-4-1.359-1.307-0.32-2.72-0.4805-4.24-0.4805zm-59.12 0.4004v28.56h5.119v-10.52l2.68-2.119 8.48 12.64h5.881l-10.68-16 10.48-12.56h-5.799l-7.721 9.32c-0.56 0.6933-1.12 1.387-1.68 2.08s-1.107 1.372-1.641 2.039v-13.44zm22.16 0 9.879 28.56h5.48l9.879-28.56h-5.238l-5.762 17.48c-0.1867 0.48-0.3863 1.106-0.5996 1.879-0.2133 0.7467-0.4129 1.52-0.5996 2.32-0.1867 0.8-0.3204 1.493-0.4004 2.08-0.1067-0.5867-0.2652-1.28-0.4785-2.08-0.1867-0.8-0.3882-1.574-0.6016-2.32-0.2133-0.7733-0.3986-1.399-0.5586-1.879l-5.762-17.48z" fill="url(#paint2_linear)"/>
  <path d="m126 58.18c-3.934-0.04355-5.312 0.1023-5.865 4.861l-0.2108 1.681c-0.4858 3.086-0.5789 4.483-3.498 5.239-0.1958 0.04355-0.3916 0.08785-0.5864 0.1336-0.046 0.0085-0.0867 0.01915-0.1338 0.02985l5e-3 0.0015c-0.7372 0.1781-1.466 0.3759-2.188 0.5898l6e-3 -0.0077c-0.1209 0.0413-0.2301 0.07415-0.3446 0.11l-0.3274 0.0993c-2.934 0.8235-3.71-0.3407-5.681-2.78l-1.025-1.35c-1.428-1.922-2.459-2.742-3.556-2.832-0.138-0.0107-0.2771-0.0107-0.4152 0-0.9812 0.07715-2.056 0.6791-3.537 1.556-3.429 1.93-4.549 2.743-2.649 7.14l0.6574 1.562c1.208 3.139 1.836 4.353-0.9508 6.788l0.07415-0.01605c-0.576 0.5461-1.137 1.108-1.683 1.684l0.01605-0.07404c-2.435 2.787-3.65 2.158-6.789 0.9503l-1.561-0.6585c-1.374-0.5935-2.399-0.8922-3.216-0.9174-1.799-0.0565-2.598 1.209-3.925 3.566-2.005 3.386-2.568 4.651 1.276 7.509l1.351 1.025c2.439 1.971 3.603 2.747 2.781 5.681-0.03435 0.1091-0.06645 0.2183-0.1 0.3285-0.03595 0.1134-0.0672 0.2236-0.1085 0.3446l0.0075-9e-3c-0.2139 0.7223-0.4117 1.452-0.5898 2.189l-0.0011-5e-3c-0.0096 0.046-0.0199 0.0877-0.02985 0.1338-0.04655 0.1948-0.0901 0.3906-0.1336 0.5853-0.7562 2.92-2.153 3.012-5.239 3.498l-1.681 0.2108c-4.758 0.5543-4.904 1.93-4.861 5.866-0.04355 3.936 0.1023 5.31 4.861 5.865l1.681 0.2108c3.086 0.4858 4.483 0.5789 5.239 3.499 0.04355 0.1958 0.0871 0.3906 0.1336 0.5853 0.0096 0.0449 0.02065 0.0867 0.02985 0.1338l0.0011-5e-3c0.1781 0.7362 0.3759 1.466 0.5898 2.189l-0.0086-9e-3c0.0413 0.1209 0.07404 0.23 0.11 0.3446 0.03285 0.1091 0.06495 0.2183 0.0993 0.3274 0.8235 2.934-0.3407 3.71-2.78 5.682l-1.351 1.023c-3.844 2.858-3.28 4.122-1.275 7.508 1.93 3.429 2.743 4.548 7.14 2.648l1.562-0.657c3.139-1.208 4.353-1.837 6.788 0.9512l-0.0168-0.0738c0.5461 0.5757 1.108 1.136 1.684 1.682l-0.07404-0.016c2.787 2.435 2.159 3.65 0.95 6.788l-0.6582 1.561c-1.9 4.398-0.7807 5.212 2.649 7.142 3.386 2.005 4.65 2.567 7.508-1.277l1.025-1.351c1.971-2.439 2.748-3.603 5.681-2.78 0.1091 0.0342 0.2183 0.0663 0.3274 0.0995 0.1145 0.0353 0.2247 0.0696 0.3456 0.1102l-6e-3 -9e-3c0.7212 0.2151 1.451 0.413 2.188 0.5896l-6e-3 2e-3c0.0471 9e-3 0.0877 0.0193 0.1348 0.03 0.1937 0.046 0.3895 0.0909 0.5853 0.1338 2.919 0.7565 3.012 2.154 3.498 5.24l0.2108 1.681c0.5532 4.758 1.93 4.905 5.866 4.861 3.934 0.0439 5.31-0.1027 5.864-4.861l0.2108-1.681c0.4858-3.086 0.58-4.483 3.499-5.24 0.1958-0.0428 0.3916-0.0877 0.5853-0.1338 0.046-7e-3 0.0867-0.0182 0.1348-0.03l-6e-3 -2e-3c0.7372-0.1766 1.467-0.3745 2.188-0.5896l-6e-3 9e-3c0.1209-0.0407 0.23-0.0738 0.3445-0.1102 0.1091-0.0332 0.2194-0.0653 0.3274-0.0995 2.934-0.8228 3.71 0.3413 5.681 2.78l1.025 1.351c2.859 3.843 4.123 3.281 7.508 1.274 3.429-1.929 4.549-2.742 2.648-7.14l-0.657-1.561c-1.208-3.138-1.837-4.353 0.9512-6.788l-0.0749 0.016c0.5767-0.5457 1.137-1.109 1.683-1.684l-0.015 0.0738c2.434-2.787 3.649-2.158 6.787-0.9502l1.562 0.6581c4.398 1.899 5.211 0.7811 7.14-2.648 2.005-3.387 2.568-4.651-1.275-7.51l-1.35-1.024c-2.44-1.971-3.604-2.747-2.78-5.681l0.0995-0.3274c0.0353-0.1145 0.0674-0.2247 0.1081-0.3446l-7e-3 7e-3c0.2151-0.7223 0.413-1.452 0.5906-2.189l1e-3 5e-3c0.01-0.0471 0.0203-0.0877 0.03-0.1338 0.046-0.1948 0.0899-0.3895 0.1338-0.5853 0.7565-2.92 2.154-3.012 5.24-3.498l1.681-0.2108c4.758-0.5543 4.904-1.93 4.861-5.865 0.0428-3.936-0.1027-5.312-4.861-5.866l-1.681-0.2108c-3.086-0.4858-4.483-0.5789-5.24-3.498-0.0439-0.1958-0.0877-0.3906-0.1338-0.5853-0.01-0.046-0.0203-0.0877-0.03-0.1348l-1e-3 6e-3c-0.1776-0.7351-0.3756-1.466-0.5906-2.189l0.01 9e-3c-0.0417-0.1209-0.0749-0.2311-0.1102-0.3446-0.0342-0.1102-0.0663-0.2194-0.1006-0.3285-0.8228-2.934 0.3413-3.71 2.781-5.682l1.35-1.024c3.844-2.858 3.281-4.122 1.275-7.507-1.327-2.358-2.126-3.625-3.925-3.569-0.8175 0.0245-1.842 0.3255-3.215 0.919l-1.562 0.6571c-3.138 1.208-4.353 1.837-6.788-0.9505l0.0171 0.07415c-0.5457-0.576-1.107-1.137-1.684-1.683l0.0749 0.01594c-2.788-2.434-2.159-3.649-0.9512-6.788l0.6591-1.562c1.899-4.397 0.78-5.211-2.649-7.14-1.693-1.003-2.856-1.645-3.953-1.556-1.097 0.08935-2.128 0.909-3.557 2.831l-1.025 1.351c-1.971 2.438-2.747 3.603-5.681 2.78-0.1081-0.03435-0.2183-0.06645-0.3274-0.1-0.1145-0.0352-0.2236-0.06645-0.3445-0.1085l6e-3 0.0085c-0.7212-0.2146-1.451-0.4117-2.188-0.5898l6e-3 -0.0015c-0.0482-0.0083-0.0888-0.01905-0.1348-0.02975-0.1947-0.04665-0.3895-0.0902-0.5853-0.1338-2.92-0.7562-3.013-2.153-3.499-5.239l-0.2108-1.681c-0.5532-4.758-1.929-4.904-5.864-4.861zm-9e-3 22.61h9e-3c3.696 0 7.266 0.6378 10.6 1.809 0.6463 2.117 2.072 3.91 3.987 5.018 1.914 1.101 4.173 1.437 6.325 0.9416 5.256 4.518 9.069 10.73 10.54 17.91 0.1755 0.8582-0.0449 1.751-0.5992 2.43-0.5543 0.6784-1.384 1.072-2.261 1.072h-9.031c-1.29 0-2.428-0.8485-2.797-2.084-2.204-7.417-9.019-12.5-16.76-12.51-1.361 0.0075-2.716 0.1733-4.039 0.4943-1.258 0.305-2.568-0.2557-3.215-1.377l-4.509-7.807c-0.4376-0.7576-0.5115-1.672-0.2012-2.491 0.3092-0.8186 0.9694-1.455 1.799-1.734 3.272-1.102 6.699-1.668 10.15-1.677zm-19.19 7.364c0.993 0.04708 1.895 0.596 2.391 1.457l4.508 7.807c0.6463 1.118 0.4804 2.528-0.4088 3.466-3.073 3.243-4.79 7.539-4.798 12.01 3e-3 4.471 1.718 8.77 4.792 12.02 0.887 0.9373 1.054 2.348 0.4088 3.466l-4.495 7.789c-0.4387 0.7586-1.194 1.281-2.059 1.422-0.8656 0.1402-1.747-0.1145-2.403-0.6955-5.325-4.714-8.933-11.06-10.26-18.05 1.503-1.617 2.34-3.742 2.342-5.949-0.0043-2.206-0.8414-4.33-2.344-5.946 1.322-6.989 4.93-13.34 10.26-18.06 0.5692-0.504 1.311-0.7661 2.069-0.7308zm38.77 27.65h8.993c0.8764 0 1.707 0.3938 2.261 1.073 0.5543 0.6784 0.7736 1.571 0.5992 2.429-1.465 7.179-5.275 13.39-10.53 17.9-0.6987-0.1605-1.415-0.2343-2.133-0.2204-1.467 0.0342-2.901 0.4366-4.171 1.171-1.91 1.106-3.33 2.894-3.978 5.004-3.408 1.204-6.996 1.819-10.61 1.823h-0.015c-3.45-0.0128-6.876-0.5842-10.14-1.688-0.8293-0.2793-1.488-0.9159-1.797-1.734-0.3092-0.8175-0.2354-1.731 0.2012-2.489l4.502-7.797c0.6484-1.121 1.957-1.682 3.216-1.377 1.324 0.3221 2.68 0.4869 4.043 0.4933 7.738 1e-3 14.56-5.087 16.76-12.51 0.3692-1.236 1.507-2.084 2.798-2.084z" fill="url(#paint3_linear)"/>
  <path d="m155.6 17v44.23c0 8.91 7.259 15.93 16.17 15.93l44.23-0.0112v-2l-60.4-58.15z" fill="#282828" opacity=".25"/>
  <path d="m155.6 15v44.23c0 8.91 7.259 15.93 16.17 15.93l44.23-0.0112-60.4-60.15z" fill="url(#paint4_linear)"/>
  <defs>
    <linearGradient id="paint0_linear" x1="127.5" x2="127.5" y1="186.5" y2="240.2" gradientUnits="userSpaceOnUse">
      <stop stop-color="#458588" offset="1e-7"/>
      <stop stop-color="#83a598" offset="1"/>
    </linearGradient>
    <linearGradient id="paint1_linear" x1="127.5" x2="127.5" y1="15" y2="240.2" gradientUnits="userSpaceOnUse">
      <stop stop-color="#458588" offset="1e-7"/>
      <stop stop-color="#83a598" offset="1"/>
    </linearGradient>
    <linearGradient id="paint2_linear" x1="127.5" x2="127.5" y1="187" y2="240" gradientUnits="userSpaceOnUse">
      <stop stop-color="#458588" offset="1e-7"/>
      <stop stop-color="#83a598" offset="1"/>
    </linearGradient>
    <linearGradient id="paint3_linear" x1="128" x2="128" y1="44" y2="164" gradientUnits="userSpaceOnUse">
      <stop stop-color="#458588" offset="1e-7"/>
      <stop stop-color="#83a598" offset="1"/>
    </linearGradient>
    <linearGradient id="paint4_linear" x1="185.8" x2="185.8" y1="15" y2="75.16" gradientUnits="userSpaceOnUse">
      <stop stop-color="#458588" offset="1e-7"/>
      <stop stop-color="#83a598" offset="1"/>
    </linearGradient>
  </defs>
</svg>
