<svg width="256" height="256" version="1.1" viewBox="0 0 256 256" xmlns="http://www.w3.org/2000/svg" xmlns:xlink="http://www.w3.org/1999/xlink">
  <defs>
    <linearGradient id="linearGradient7-6-0-1" x1="186" x2="156" y1="45.006" y2="75.012" gradientTransform="matrix(1.0833,0,0,1.0833,-17.998,-1.2502)" gradientUnits="userSpaceOnUse">
      <stop stop-color="#fabd2f" offset="0"/>
      <stop stop-color="#d79921" offset=".3027"/>
      <stop stop-color="#b57614" offset="1"/>
    </linearGradient>
    <linearGradient id="linearGradient14-5-9" x1="128" x2="128" y1="15.001" y2="241" gradientTransform="translate(0,4.8e-4)" gradientUnits="userSpaceOnUse">
      <stop stop-color="#ebdbb2" stop-opacity=".4" offset="0"/>
      <stop stop-color="#ebdbb2" stop-opacity=".2" offset=".2"/>
      <stop stop-opacity="0" offset=".70405"/>
      <stop stop-opacity=".05" offset=".80473"/>
      <stop stop-opacity=".1" offset="1"/>
    </linearGradient>
    <linearGradient id="linearGradient21" x1="88.5" x2="88.5" y1="15" y2="241" gradientUnits="userSpaceOnUse">
      <stop stop-color="#fabd2f" offset="0"/>
      <stop stop-color="#fe8019" offset="1"/>
    </linearGradient>
  </defs>
  <path d="m57 15c-9.9393 0-17 7.0595-17 17v149h176v-101l-64.998-64.998-94.002-0.001953z" fill="url(#linearGradient21)" style="paint-order:markers fill stroke"/>
  <path d="m57 241c-9.9393 0-17-7.0595-17-17v-43h176v43c0 9.9405-7.0607 17-17 17z" fill="#fe8019" stroke-linecap="round" stroke-linejoin="round" stroke-miterlimit="0" style="paint-order:markers fill stroke"/>
  <path d="m75.26 204.8c-6.2421 0-8.24 3.9646-8.24 9.04 0 4.9582 2.1987 9.08 7.68 9.08 1.7593 0 2.5214-0.0803 3.08-0.2v-9.64h6.24v13.72c-3.5405 1.3909-8.9813 1.44-9.72 1.44-7.9578 0-13.76-4.8354-13.76-14.4 0-9.3096 6.2351-14.48 13.88-14.48 4.3252 0 7.7259 1.1987 9.2 2.12l-1.8 5c-0.98137-0.52135-3.5054-1.68-6.56-1.68zm27.2 23.48c-11.917 0-13.84-8.7761-13.84-14.44 0-8.7096 5.577-14.48 14.16-14.48 3.6494 0 6.894 1.0788 8.56 2.12l-1.8 5.04c-1.62-0.86062-3.9004-1.64-6.84-1.64-1.6567 0-7.6 0.57595-7.6 8.84 0 7.377 4.1646 9.04 7.92 9.04 2.4702 0.084 4.7798-0.55372 7-1.56l1.72 5c-3.204 1.9418-7.9741 2.08-9.28 2.08zm17.52-14.44c0 5.6626 2.8829 8.96 7.36 8.96 4.8781 0 7.36-3.9271 7.36-8.96 0-4.9078-2.3872-9-7.36-9-4.1749 0-7.36 3.1092-7.36 9zm21.16 0c0 9.292-5.7804 14.44-13.8 14.44-7.1983 0-13.8-4.5179-13.8-14.44 0-9.2833 6.2024-14.48 13.8-14.48 7.6238 0 13.8 4.991 13.8 14.48zm11.44 8.8c0.79723 0.0981 1.5986 0.08 2.4 0.08 7.7941 0 9.2-5.1581 9.2-8.88 0-7.853-5.2303-8.84-9-8.84-0.86857 4e-3 -1.7356 0.0424-2.6 0.12zm18.04-8.8c0 12.439-10.106 14.24-15.96 14.24-0.88703 0-4.9869-0.041-8.32-0.72v-27c0.13451-0.0249 3.6911-0.68 8.52-0.68 7.5066 0 15.76 2.6232 15.76 14.16zm5.2 13.88v-27.72h18.72v5.24h-12.48v5.44h11.08v5.12h-11.08v6.68h13.4v5.24z" fill="#ebdbb2" opacity=".15" aria-label="GCODE"/>
  <path d="m75.26 201.8c-6.2421 0-8.24 3.9646-8.24 9.04 0 4.9582 2.1987 9.08 7.68 9.08 1.7593 0 2.5214-0.0803 3.08-0.2v-9.64h6.24v13.72c-3.5405 1.3909-8.9813 1.44-9.72 1.44-7.9578 0-13.76-4.8354-13.76-14.4 0-9.3096 6.2351-14.48 13.88-14.48 4.3252 0 7.7259 1.1987 9.2 2.12l-1.8 5c-0.98137-0.52135-3.5054-1.68-6.56-1.68zm27.2 23.48c-11.917 0-13.84-8.7761-13.84-14.44 0-8.7096 5.577-14.48 14.16-14.48 3.6494 0 6.894 1.0788 8.56 2.12l-1.8 5.04c-1.62-0.86062-3.9004-1.64-6.84-1.64-1.6567 0-7.6 0.57595-7.6 8.84 0 7.377 4.1646 9.04 7.92 9.04 2.4702 0.084 4.7798-0.55372 7-1.56l1.72 5c-3.204 1.9418-7.9741 2.08-9.28 2.08zm17.52-14.44c0 5.6626 2.8829 8.96 7.36 8.96 4.8781 0 7.36-3.9271 7.36-8.96 0-4.9078-2.3872-9-7.36-9-4.1749 0-7.36 3.1092-7.36 9zm21.16 0c0 9.292-5.7804 14.44-13.8 14.44-7.1983 0-13.8-4.5179-13.8-14.44 0-9.2833 6.2024-14.48 13.8-14.48 7.6238 0 13.8 4.991 13.8 14.48zm11.44 8.8c0.79723 0.0981 1.5986 0.08 2.4 0.08 7.7941 0 9.2-5.1581 9.2-8.88 0-7.853-5.2303-8.84-9-8.84-0.86857 4e-3 -1.7356 0.0424-2.6 0.12zm18.04-8.8c0 12.439-10.106 14.24-15.96 14.24-0.88703 0-4.9869-0.041-8.32-0.72v-27c0.13451-0.0249 3.6911-0.68 8.52-0.68 7.5066 0 15.76 2.6232 15.76 14.16zm5.2 13.88v-27.72h18.72v5.24h-12.48v5.44h11.08v5.12h-11.08v6.68h13.4v5.24z" fill="#d65d0e" aria-label="GCODE"/>
  <path d="m74.42 196.36c-7.6449 0-13.881 5.1709-13.881 14.48 0 0.53599 0.02475 1.0523 0.06055 1.5586 0.61388-8.3966 6.5812-13.039 13.82-13.039 3.6059 0 6.5509 0.83354 8.291 1.6445l0.9082-2.5234c-1.4741-0.92131-4.874-2.1211-9.1992-2.1211zm28.359 0c-8.583-1e-5 -14.16 5.7708-14.16 14.48 0 0.44079 0.03931 0.92556 0.06641 1.3984 0.64563-7.8082 6.0485-12.879 14.094-12.879 3.0828 0 5.8646 0.77198 7.6621 1.6387l0.89843-2.5176c-1.666-1.0412-4.9111-2.1211-8.5605-2.1211zm24.561 0c-7.5976-1e-5 -13.801 5.1971-13.801 14.48 0 0.51971 0.0291 1.0157 0.0645 1.5059 0.63323-8.3412 6.5582-12.986 13.736-12.986 7.2174 0 13.128 4.48 13.738 13.008 0.0361-0.49731 0.0625-1.0035 0.0625-1.5274 0-9.489-6.177-14.48-13.801-14.48zm27.52 0.32031c-4.8289 0-8.385 0.65478-8.5195 0.67969v3c0.13451-0.0249 3.6906-0.67969 8.5195-0.67969 7.1446 0 14.95 2.3941 15.688 12.57 0.0313-0.46298 0.0723-0.91387 0.0723-1.4102 0-11.537-8.2532-14.16-15.76-14.16zm20.961 0.32031v3h18.719v-3zm6.2402 10.68v3h11.08v-3zm-104.28 2.4004v3h6.2402v-3zm17.393 2.1562c-0.0455 0.46546-0.07227 0.95848-0.07227 1.4844 0 7.377 4.1645 9.0391 7.9199 9.0391 2.4702 0.084 4.7798-0.55427 7-1.5606l0.84375 2.4492c0.29772-0.1422 0.59946-0.28104 0.87695-0.44922l-1.7207-5c-2.2202 1.0063-4.5298 1.6446-7 1.5606-3.4813 0-7.3068-1.4378-7.8477-7.5234zm-28.068 0.0332c-0.0479 0.51122-0.08398 1.0305-0.08398 1.5703 0 4.9582 2.1984 9.0801 7.6797 9.0801 1.7593 0 2.5215-0.0795 3.0801-0.19922v-3c-0.55857 0.1197-1.3208 0.19922-3.0801 0.19922-4.9414 0-7.1958-3.3578-7.5957-7.6504zm96.998 0.0352c-0.37917 3.4774-2.31 7.416-9.1211 7.416-0.80135 0-1.6032 0.018-2.4004-0.0801v3c0.79723 0.0981 1.599 0.0801 2.4004 0.0801 7.7941 0 9.1992-5.159 9.1992-8.8809 0-0.54712-0.0296-1.0527-0.0781-1.5352zm-29.496 0.0234c-0.4525 4.2931-2.8834 7.4727-7.2656 7.4727-4.061 0-6.8014-2.721-7.2773-7.4512-0.0483 0.4774-0.082 0.96906-0.082 1.4902 0 5.6626 2.8823 8.9609 7.3594 8.9609 4.8781 0 7.3594-3.928 7.3594-8.9609 0-0.51668-0.0406-1.0169-0.0937-1.5117zm47.455 7.1524v3h13.4v-3z" fill="#282828" opacity=".2"/>
  <path d="m152.33 67.666v18.25l27.375 24.333-27.375 24.333v18.25l48.667-41.776zm-17.37 0.17825-25.188 94.026 11.751 3.1486 25.2-94.026zm-31.296 11.988-48.667 43.392 48.667 41.776v-18.25l-27.375-24.333 27.375-24.333z" fill="#ebdbb2" opacity=".2" stroke-width=".9271"/>
  <path d="m152.33 62.647v18.25l27.375 24.333-27.375 24.333v18.25l48.667-41.776zm-17.37 0.17825-25.188 94.026 11.751 3.1486 25.2-94.026zm-31.296 11.988-48.667 43.392 48.667 41.776v-18.25l-27.375-24.333 27.375-24.333z" fill="#d65d0e" stroke-width=".9271"/>
  <path d="m152.33 62.647v5.0195l45.797 40.834 2.8691-2.4629zm-17.371 0.17969-25.188 94.025 1.2539 0.33594 23.934-89.344 10.51 2.8125 1.2539-4.6816zm-31.297 11.988-48.666 43.391 2.8691 2.4629 45.797-40.836zm73.219 32.926-24.551 21.824v5.0176l27.375-24.332zm-97.771 12.166-2.8223 2.5098 27.375 24.334v-5.0195z" fill="#282828" opacity=".2" stroke-width=".9271"/>
  <path d="m57 15c-9.9393 0-17 7.0595-17 17v192c0 9.9393 7.0595 17 17 17h142c9.9405 0 17-7.0607 17-17v-144l-65-64.998zm4.0332 4.9902 89.967 2e-3 60 60.009v139.75c0 9.4999-6.6575 16.248-16.033 16.248h-133.93c-9.3757 0-16.033-6.7481-16.033-16.248v-183.51c0-9.501 6.6586-16.25 16.033-16.25z" fill="url(#linearGradient14-5-9)" style="paint-order:markers fill stroke"/>
  <path d="m151 15.002v52.914c0 9.6525 7.8639 17.084 17.518 17.084l47.482-1.34e-4v-5z" fill="#282828" opacity=".3" stroke-width="1.0833"/>
  <path d="m151 15.001v47.916c0 9.6525 7.8639 17.084 17.518 17.084l47.482-1.34e-4z" fill="url(#linearGradient7-6-0-1)" stroke-width="1.0833"/>
</svg>
