<svg width="256" height="256" version="1.1" viewBox="0 0 256 256" xmlns="http://www.w3.org/2000/svg" xmlns:xlink="http://www.w3.org/1999/xlink">
  <defs>
    <linearGradient id="linearGradient7-6-0" x1="186" x2="156" y1="45.006" y2="75.012" gradientTransform="matrix(1.0833 0 0 1.0833 -17.997 -1.2506)" gradientUnits="userSpaceOnUse">
      <stop stop-color="#83a598" offset="0"/>
      <stop stop-color="#458588" offset=".3027"/>
      <stop stop-color="#076678" offset="1"/>
    </linearGradient>
    <linearGradient id="linearGradient21" x1="128" x2="128" y1="15" y2="241" gradientTransform="translate(-9.7e-4,-9.75e-4)" gradientUnits="userSpaceOnUse">
      <stop stop-color="#ebdbb2" offset="0"/>
      <stop stop-color="#d5c4a1" offset="1"/>
    </linearGradient>
    <linearGradient id="linearGradient14-1" x1="128" x2="128" y1="15.001" y2="241" gradientTransform="translate(0,4.8e-4)" gradientUnits="userSpaceOnUse">
      <stop stop-color="#076678" stop-opacity=".099738" offset="0"/>
      <stop stop-color="#076678" stop-opacity=".049869" offset=".2"/>
      <stop stop-color="#076678" stop-opacity=".047244" offset=".70405"/>
      <stop stop-color="#282828" stop-opacity=".049869" offset=".80473"/>
      <stop stop-color="#282828" stop-opacity=".097113" offset="1"/>
    </linearGradient>
    <radialGradient id="radialGradient33" cx="128" cy="162.5" r="50" gradientTransform="matrix(4.1712 0 0 1.0428 -41.988 582.6)" gradientUnits="userSpaceOnUse">
      <stop stop-color="#282828" offset="0"/>
      <stop stop-color="#282828" stop-opacity="0" offset="1"/>
    </radialGradient>
  </defs>
  <path d="m56.999 14.999c-9.9393 0-17 7.0595-17 17v149h176v-101l-64.998-64.998z" fill="url(#linearGradient21)" style="paint-order:markers fill stroke"/>
  <path d="m57 241c-9.9393 0-17-7.0595-17-17v-43h176v43c0 9.9405-7.0607 17-17 17z" fill="#458588" stroke-linecap="round" stroke-linejoin="round" stroke-miterlimit="0" style="paint-order:markers fill stroke"/>
  <path d="m114.88 204.8c-6.2421 0-8.24 3.9646-8.24 9.04 0 4.9582 2.1987 9.08 7.68 9.08 1.7593 0 2.5214-0.0803 3.08-0.2v-9.64h6.24v13.72c-3.5405 1.3909-8.9814 1.44-9.72 1.44-7.9579 0-13.76-4.8354-13.76-14.4 0-9.3096 6.2351-14.48 13.88-14.48 4.3252 0 7.7259 1.1987 9.2 2.12l-1.8 5c-0.98132-0.52133-3.5054-1.68-6.56-1.68zm19.8 9.04c0 5.6625 2.883 8.96 7.36 8.96 4.8781 0 7.36-3.9271 7.36-8.96 0-4.9078-2.3872-9-7.36-9-4.1749 0-7.36 3.1092-7.36 9zm21.16 0c0 9.292-5.7805 14.44-13.8 14.44-7.1984 0-13.8-4.5179-13.8-14.44 0-9.2834 6.2025-14.48 13.8-14.48 7.6238 0 13.8 4.991 13.8 14.48z" fill="#282828" opacity=".2" aria-label="GOI"/>
  <path d="m114.88 201.8c-6.2421 0-8.24 3.9646-8.24 9.04 0 4.9582 2.1987 9.08 7.68 9.08 1.7593 0 2.5214-0.0803 3.08-0.2v-9.64h6.24v13.72c-3.5405 1.3909-8.9814 1.44-9.72 1.44-7.9579 0-13.76-4.8354-13.76-14.4 0-9.3096 6.2351-14.48 13.88-14.48 4.3252 0 7.7259 1.1987 9.2 2.12l-1.8 5c-0.98132-0.52133-3.5054-1.68-6.56-1.68zm19.8 9.04c0 5.6625 2.883 8.96 7.36 8.96 4.8781 0 7.36-3.9271 7.36-8.96 0-4.9078-2.3872-9-7.36-9-4.1749 0-7.36 3.1092-7.36 9zm21.16 0c0 9.292-5.7805 14.44-13.8 14.44-7.1984 0-13.8-4.5179-13.8-14.44 0-9.2834 6.2025-14.48 13.8-14.48 7.6238 0 13.8 4.991 13.8 14.48z" fill="#ebdbb2" aria-label="GOI"/>
  <path d="m114.04 196.36c-7.6449 0-13.879 5.1708-13.879 14.48 0 0.52257 0.0245 1.0252 0.0586 1.5195 0.62794-8.3745 6.5913-13 13.82-13 3.6059 0 6.5529 0.83354 8.293 1.6445l0.9082-2.5234c-1.4741-0.92131-4.876-2.1211-9.2012-2.1211zm28.002 0c-7.5976 0-13.801 5.1971-13.801 14.48 0 0.51863 0.0234 1.0186 0.0586 1.5078 0.63139-8.3442 6.5628-12.988 13.742-12.988 7.2037 0 13.111 4.4587 13.74 12.955 0.0337-0.48102 0.0586-0.96887 0.0586-1.4746 0-9.4891-6.175-14.48-13.799-14.48zm-24.641 13.721v3h6.2402v-3zm-10.688 2.2129c-0.0461 0.50255-0.0723 1.0168-0.0723 1.5469 0 4.9582 2.1983 9.0801 7.6797 9.0801 1.7593 0 2.5215-0.0795 3.0801-0.19922v-3c-0.55858 0.1197-1.3208 0.19922-3.0801 0.19922-4.9346 0-7.2028-3.343-7.6074-7.627zm42.602 0.0488c-0.45477 4.289-2.894 7.459-7.2734 7.459-4.061 0-6.8033-2.721-7.2793-7.4512-0.0483 0.4774-0.082 0.96906-0.082 1.4902 0 5.6625 2.8842 8.9609 7.3613 8.9609 4.8781 0 7.3594-3.928 7.3594-8.9609 0-0.51058-0.034-1.0088-0.0859-1.498z" fill="#fbf1c7" opacity=".6"/>
  <g transform="matrix(.22893 0 0 .22893 15.387 -12.102)">
    <ellipse cx="491.92" cy="752.06" rx="208.56" ry="52.14" fill="url(#radialGradient33)" opacity=".6" style="paint-order:markers fill stroke"/>
    <path d="m642.78 495.1c-1.2291 0.0166-2.4673 0.0858-3.6986 0.21182-0.108 5.689 0.13277 11.382 0.70877 17.043 0.938 8.677 2.2617 4.8511 8.7497 9.3851s21.423 11.491 22.127-3.2832l0.0733-0.39104c7.896-3.283 0.31747-12.663-3.7475-15.634-7.1461-4.9009-15.608-7.4483-24.212-7.3321zm-302.09 1.8738c-8.6039-0.11617-17.074 2.4312-24.22 7.3321-4.065 2.97-11.643 12.351-3.7475 15.634l0.0733 0.39105c0.704 14.774 15.639 7.8172 22.127 3.2832s7.8198-0.70812 8.7578-9.3851c0.576-5.661 0.80763-11.346 0.70063-17.035-1.2314-0.126-2.4614-0.20337-3.6905-0.21997zm266.89 205.02c-10.33 2.391-19.276 8.8092-24.856 17.825 14.383 4.3 23.606 35.808 39.944 20.799 17.041-10.319-3.7529-31.589-15.088-38.624zm-230.23 4.0571c-1.2749 0.0105-2.5972 0.13538-3.9675 0.39919-10.397 7.661-30.174 18.526-20.481 34.16 0.992 1.221 2.4933 1.9189 4.0653 1.8819 0.44 1.157 1.0999 2.2194 1.9389 3.1284 3.631 3.933 9.7608 4.1768 13.695 0.54584 11.1-6.097 18.601-18.139 31.968-20.171-6.8721-8.9972-14.894-20.045-27.218-19.943z" fill="#fabd2f"/>
    <path d="m486.02 251.03c-41.383 3.289-80.721 10.911-108.32 34.991-44.795-28.323-85.761 40.54-33.573 57.671-14.672 56.809 2.1194 114.84-0.22811 172.66-2.11 51.983-15.79 121.39 13.133 168.3 24.624 40.024 77.312 54.096 120.93 55.659 55.501 1.798 123.2-11.572 150.02-65.354 25.64-51.28 18.444-115.14 15.161-170.41-3.5937-55.805 2.7771-112.66-11.634-166.5 51.273-18.409 11.179-88.098-33.329-57.296-29.258-25.313-69.618-29.711-112.08-29.711z" fill="#83a598"/>
    <path d="m544.82 277.53c-25.029 0.47929-50.69 18.626-48.799 49.406 10.162 59.019 106.62 43.464 92.786-16.102-5.4377-23.359-24.521-33.677-43.988-33.305zm-117.2 4.9082c-26.625 0.18382-53.786 19.399-46.903 54.112 13.133 51.358 95.366 38.142 92.317-13.372-1.6648-27.983-23.353-40.892-45.413-40.74z" fill="#ebdbb2"/>
    <path d="m546.97 276.21c-2.91-0.0511-5.8594 0.14824-8.8121 0.61555-24.96 3.2404-45.662 23.861-43.461 50.346 2.312 16.463 13.763 30.188 29.547 35.41 15.024 5.1251 36.693 4.4549 53.861-10.165 11.663-10.536 16.328-26.779 12.036-41.898-4.3484-21.181-22.8-33.951-43.17-34.309zm-0.0648 2.4541c19.114 0.01 36.293 13.213 40.659 32.559 3.876 14.094-0.43514 29.175-11.177 39.088-14.224 11.906-33.612 15.57-51.204 9.6868-14.814-4.899-25.565-17.775-27.748-33.224-1.269-24.295 16.954-45.218 41.193-47.292 2.7779-0.55775 5.547-0.81944 8.2776-0.81804zm-118.9 2.5756c-12.032-0.0361-23.959 3.8409-33.839 11.38-13.117 10.58-18.855 27.837-14.692 44.166 5.434 23.079 25.942 36.652 54.015 33.224 23.126-3.7904 42.528-19.543 40.886-46.903-0.284-16.323-10.061-30.984-25.019-37.524-6.8734-2.8916-14.131-4.3196-21.35-4.3413zm0.27538 2.9644c6.8617 0.0157 13.762 1.3717 20.297 4.1145 14.082 6.144 23.255 19.966 23.448 35.329 1.563 25.718-18.992 40.731-38.691 43.858-25.447 2.1873-45.421-8.6637-51.05-31.272-3.752-15.252 1.6428-31.297 13.842-41.193 9.3869-7.1706 20.718-10.863 32.155-10.837z" fill="#282828"/>
    <path d="m488.83 391.74-20.556 5.2322c-6.0736 14.64 3.2886 43.859 19.665 22.678 0.0129 0.25934 0.0183 0.51823 0.0324 0.77754 1.861 4.178 5.7166 7.1219 10.238 7.8159 3.618-0.737 6.8633-2.7321 9.1523-5.6291 0.752-8.139 0.752-16.329 0-24.468l-18.629-5.378c0.0341-0.34262 0.061-0.68618 0.0972-1.0286z" fill="#ebdbb2"/>
    <path d="m519.87 309.26a13.68 15.087 0 0 0-13.68 15.089 13.68 15.087 0 0 0 13.68 15.089 13.68 15.087 0 0 0 13.68-15.089 13.68 15.087 0 0 0-13.68-15.089zm-116.48 3.7581a13.914 15.087 0 0 0-13.915 15.081 13.914 15.087 0 0 0 13.915 15.089 13.914 15.087 0 0 0 13.915-15.089 13.914 15.087 0 0 0-13.915-15.081zm122.65 10.942a3.205 3.83 0 0 1 3.2074 3.831 3.205 3.83 0 0 1-3.2074 3.831 3.205 3.83 0 0 1-3.1993-3.831 3.205 3.83 0 0 1 3.1993-3.831zm-116.32 3.75a3.283 3.83 0 0 1 3.2802 3.831 3.283 3.83 0 0 1-3.2802 3.831 3.283 3.83 0 0 1-3.2884-3.831 3.283 3.83 0 0 1 3.2884-3.831z" fill="#282828"/>
    <path d="m470.07 368.68c-9.842 0.937-17.061 9.674-16.125 19.517 0.181 1.897 0.663 3.753 1.429 5.498 7.817 14.071 25.171-1.251 35.959 0 12.429 0 22.67 13.133 32.676 2.345 11.1-12.038-4.768-23.451-17.198-29.001z" fill="#fabd2f"/>
    <path d="m489.51 351.66c-10.582 0.18447-21.366 5.6098-21.245 15.98-6.0522 1.1176-11.29 4.971-14.142 10.489-2.839 5.104-2.839 11.313 0 16.417 2.8298 5.0703 6.7473 6.7212 11.056 6.7225-2.0322 10.787 1.8264 22.895 7.5486 26.193 4.9095 2.9121 11.999-0.8552 15.397-5.3213 2.2146 3.8755 6.0812 6.5783 10.553 7.2732 4.4553 0.51184 7.9372-2.9814 9.3467-6.0907 2.9547-7.2888 1.3293-14.946 0.99622-22.492 14.326 4.1738 21.05-7.2517 19.908-15.745-1.6773-7.7296-10.97-14.435-19.698-18.475 0.31527-1.2676 0.31283-2.6378-0.081-4.1145-1.9833-7.4385-10.737-10.992-19.641-10.837zm18.548 17.559c7.866 3.5608 16.886 9.8246 18.369 16.652 0.615 3.493-0.58726 7.0601-3.1993 9.4601-5.628 6.097-11.18 3.8285-18.215 0.85853-11.192-5.5232-20.218-3.7684-26.89-0.78564-9.3608 3.177-16.678 5.1593-20.953-2.3407-2.351-4.257-2.351-9.4228 0-13.68 2.4035-4.6257 6.7519-7.8936 11.801-8.966 4.9089 9.8356 32.516 8.5214 39.088-1.1987zm-1.6604 30.729c0.38389 9.494 3.1691 27.276-7.6377 26.574-5.037-0.69387-8.4426-4.5014-8.8364-7.0384-1.0775-12.19 0.51952-16.547 0.68845-24.136 5.6031 0.0342 10.761 2.3535 15.786 4.6004zm-19.746-4.2522c-0.71686 7.7213-0.8427 15.506-0.24298 23.245-3.284 4.221-7.9767 8.4408-12.198 6.0178-5.2784-3.0268-7.9561-14.925-5.9854-23.942 7.4442-1.1168 11.773-4.2998 18.426-5.3213z" fill="#282828"/>
    <path d="m503.91 249.43c-6.0923-0.014-12.249 0.19218-18.434 0.58316-37.913 2.97-63.711 8.9089-84.817 19.228-8.5393 4.0508-16.38 9.2242-23.391 15.292-12.394-8.2895-28.575-8.5422-41.258-0.51836-12.038 7.521-18.786 21.199-17.43 35.329 1.8213 12.37 8.704 20.702 23.836 25.327-8.8614 35.321-5.8269 71.43-2.8834 106.47 1.5654 14.885 2.4533 29.831 2.7538 44.79-5.0678-0.29139-15.92 0.15589-26.598 7.5081-4.39 2.963-7.9616 9.0375-7.8159 12.975 0.225 2.184 1.5491 4.0993 3.5151 5.0783-0.0985 4.7059 3.3754 9.619 9.0713 9.5411 5.637-0.723 10.98-2.9336 15.478-6.4066 1.441-0.986 3.0215-1.7518 4.6895-2.2678 0.53045-0.13265 1.0023-0.27002 1.4255-0.43736-0.44631 8.807-1.1119 17.974-1.8952 27.635-3.596 46.121-7.8192 98.34 15.632 136.17 4.9236 7.5263 10.74 14.351 17.268 20.378l-3.507 2.527c-10.553 7.426-26.503 18.604-17.122 33.378 0.868 1.262 2.299 2.0219 3.831 2.0329 3.8734 7.8025 12.196 6.5051 16.887 3.912 4.197-2.512 8.1279-5.4454 11.728-8.7554 6.0703-6.3456 13.91-10.253 22.476-11.72 10.838 4.2309 35.754 13.633 70.546 14.611 24.891 0.18327 66.727-0.22089 105.05-20.645 5.3948 2.7546 10.026 6.8108 13.461 11.809 5.159 6.019 10.472 12.349 16.96 12.74 1.9101 0 6.5734-0.69182 10.165-4.8434 4.244-2.204 6.9383-6.549 7.0303-11.331 0.0764-11.634-12.929-23.55-20.297-28.299 7.3873-7.3638 13.861-15.999 18.969-26.185 23.152-46.15 19.692-103.1 16.434-153.48 0.83579 0.3903 1.6421 0.83832 2.4055 1.3607 4.422 3.107 9.5622 5.0451 14.935 5.6291 5.9759 0.48187 9.7162-4.573 9.614-9.4601 6.85-3.4111 2.1211-13.727-4.3008-18.062-7.1886-4.9492-15.681-7.5651-24.339-7.5729-0.64001-14.107-0.67225-28.336-0.67225-42.222-0.25276-37.372-0.46714-75.758-10.092-112.61 18.831-7.1016 22.849-19.946 23.61-27.546 0.869-14.262-6.3563-27.801-18.685-35.022-12.724-7.0917-28.379-6.015-39.995 2.6404-25.463-21.872-58.79-29.481-94.236-29.563zm-5.8072 3.1426c141.84-0.98836 142.15 109.29 142.15 199.04 0 17.354 0.3873 35.33 1.2473 52.371 4.6721 57.298 8.3644 115.78-15.008 169.63-31.268 62.068-114.22 65.499-148.53 64.722-14.005-0.93795-39.393-2.5865-65.119-12.857-19.239-7.6807-37.327-19.879-53.675-41.862-22.904-36.975-19.721-88.798-16.125-134.45 0.86-11.647 1.7958-22.673 2.1868-33.07 0.422-21.977-0.51449-43.955-2.8105-65.816-4.2433-51.024-9.1266-113.22 28.769-155.92 29.21-31.463 73.98-37.506 114.63-41.38 3.6282-0.21739 7.7579-0.38157 12.279-0.41307zm138.64 26.129c11.427 6.68 18.111 19.229 17.276 32.438-1.639 11.893-10.093 21.683-21.552 25.1-2.0907-7.6226-4.5619-15.182-7.5648-22.646 4.2412-3.5268 6.0729-8.0717 2.77-14.336-3.9156-7.4261-9.8456-6.9982-14.992-5.1836-3.8293-4.8687-7.9375-9.2501-12.287-13.202 10.732-7.9865 25.018-8.6671 36.35-2.1706zm-261.64 7.7997c-5.5699 5.1023-10.6 10.76-14.935 16.944-3.6715-1.8863-7.3345-3.1828-10.643-2.9725-3.3809 0.215-6.3912 1.9937-8.6582 6.2932-4.463 8.4643 0.40192 13.811 8.0103 17.705-2.6868 6.7086-4.1984 11.706-5.7182 17.341-13.401-4.3902-20.326-12.198-21.99-23.164-1.23-13.056 5.0315-25.685 16.174-32.6 6.9681-4.558 21.111-9.64 37.759 0.45356zm269.04 210.1c7.6971 0.27427 15.185 2.7671 21.528 7.2327 4.3568 3.0085 8.4885 10.071 5.2646 12.902-2.5323 0-4.5939-2.1088-4.9568-2.5027-0.475-0.626-1.3664-0.75038-1.9924-0.27538s-0.74228 1.3664-0.26728 1.9924c1.287 1.7345 3.0522 3.0531 5.0783 3.7824-0.78941 9.7541-14.004 6.1298-19.933 0.90713-1.0714-0.7515-2.2224-1.3841-3.4179-1.9115-0.70994-7.3598-0.93762-14.746-1.304-22.127zm-301.78 1.9196c0.092 6.0446 0.10634 12.088-8e-3 18.134-0.0244 0.64302-0.0855 1.344-0.11339 1.9924-0.69624 0.76827-1.6601 0.82001-2.7781 1.2068-1.894 0.619-3.6822 1.5207-5.3132 2.6647-4.558 4.002-14.644 6.0942-16.652 4.8434-1.9262-1.3587-3.1092-3.4984-3.2802-5.8072 2.0284-0.58239 3.8427-1.7407 5.2322-3.337 0.475-0.626 0.35063-1.5174-0.27537-1.9924s-1.5174-0.35062-1.9924 0.27538c-1.4812 1.6062-3.5265 2.4946-4.7138 2.4946-0.91574-0.61673-1.5444-1.6013-1.6928-2.7295 0.656-4.246 3.0336-8.0396 6.5686-10.481 8.5357-5.9601 14.921-7.2335 25.019-7.2651zm265.78 205.08c8.3325 5.5238 19.754 17.105 19.754 26.469-0.0597 3.0385-2.2974 6.2337-4.5762 8.1237-1.8589-5.1592-3.9379-9.9152-7.3785-14.239-0.561-0.54-1.4524-0.5205-1.9924 0.0405s-0.52867 1.4524 0.0324 1.9924c3.6653 3.9008 4.907 9.1059 6.9169 13.907-9.086 9.1541-20.391-5.1115-22.451-8.4962-3.5396-4.8681-7.3058-8.6145-12.433-11.696 7.8757-4.4737 15.373-9.7419 22.127-16.102zm-233.52 3.8877c8.1078 7.2537 17.312 13.05 27.117 17.705-6.9672 2.2932-13.309 6.1755-18.499 11.363-3.483 3.19-7.2851 6.0166-11.339 8.4396-4.2902 3.0655-10.241 2.9034-12.967-2.7376 1.0217-6.6086 3.9787-7.9697 6.9493-14.15 0.323-0.712 7e-3 -1.548-0.70465-1.871-0.712-0.323-1.547-0.0155-1.871 0.69654-2.8692 5.8642-5.7721 7.1244-7.2328 13.947-0.57288 0.14321-1.4278-0.34742-1.8386-1.0448-7.6729-15.183 9.8463-24.598 20.386-32.349z" fill="#282828"/>
  </g>
  <path d="m57 15c-9.9393 0-17 7.0595-17 17v192c0 9.9393 7.0595 17 17 17h142c9.9405 0 17-7.0607 17-17v-144l-65-65zm4.0332 4.9902 89.967 0.01 60 60 2e-4 139.75c1e-5 9.4999-6.6575 16.248-16.033 16.248h-133.93c-9.3757 0-16.033-6.7481-16.033-16.248v-183.51c0-9.501 6.6586-16.25 16.033-16.25z" fill="url(#linearGradient14-1)" style="paint-order:markers fill stroke"/>
  <path d="m151 15.001v52.914c0 9.6525 7.8639 17.084 17.518 17.084l47.482-1.34e-4v-5z" fill="#282828" opacity=".2" stroke-width="1.0833"/>
  <path d="m151 15.001v47.916c0 9.6525 7.8639 17.084 17.518 17.084l47.482-1.34e-4z" fill="url(#linearGradient7-6-0)" stroke-width="1.0833"/>
</svg>
