<svg width="256" height="256" version="1.1" viewBox="0 0 256 256" xmlns="http://www.w3.org/2000/svg">
  <defs>
    <linearGradient id="linearGradient26" x1="-160" x2="-160" y2="226" gradientTransform="translate(267,15)" gradientUnits="userSpaceOnUse">
      <stop stop-color="#d3869b" offset="0"/>
      <stop stop-color="#8f3f71" offset="1"/>
    </linearGradient>
    <linearGradient id="linearGradient7-6-0-1" x1="186" x2="156" y1="45.006" y2="75.012" gradientTransform="matrix(1.0833,0,0,1.0833,-17.998,-1.2502)" gradientUnits="userSpaceOnUse">
      <stop stop-color="#d3869b" offset="0"/>
      <stop stop-color="#b16286" offset=".3027"/>
      <stop stop-color="#8f3f71" offset="1"/>
    </linearGradient>
    <linearGradient id="linearGradient14-5-9" x1="128" x2="128" y1="15.001" y2="241" gradientTransform="translate(0,4.8e-4)" gradientUnits="userSpaceOnUse">
      <stop stop-color="#ebdbb2" stop-opacity=".2" offset="0"/>
      <stop stop-color="#ebdbb2" stop-opacity=".1" offset=".2"/>
      <stop stop-opacity="0" offset=".70405"/>
      <stop stop-opacity=".05" offset=".80473"/>
      <stop stop-opacity=".1" offset="1"/>
    </linearGradient>
  </defs>
  <path d="m57 15c-9.9393 0-17 7.0595-17 17v192c0 9.9393 7.0595 17 17 17h142c9.9405 0 17-7.0607 17-17v-144l-64.999-64.999z" fill="url(#linearGradient26)" stroke-linecap="round" stroke-linejoin="round" stroke-miterlimit="0" style="paint-order:markers fill stroke"/>
  <path d="m57 241c-9.9393 0-17-7.0595-17-17v-43h176v43c0 9.9405-7.0607 17-17 17z" fill="#d3869b" opacity=".7" stroke-linecap="round" stroke-linejoin="round" stroke-miterlimit="0" style="paint-order:markers fill stroke"/>
  <path d="m99 227.72c-3.0733-6.5215-7.49-17.07-11.04-27.72h6.88c4.3571 13.071 6.1098 17.669 7.28 20.36 1.2876-3.1173 3.8782-10.155 7.28-20.36h6.64c-4.7379 13.596-7.8533 20.958-11.04 27.72zm28.96-28.04c12.379 0 12.84 6.5014 12.84 9.32 0 3.3294-0.85049 9.44-12.96 9.44h-1.96v9.28h-6.24v-27.32c3.0028-0.58878 6.4467-0.72 8.32-0.72zm0.4 5.32c-0.95141 0-1.8488 0.0674-2.48 0.12v8h1.96c5.6666 0 6.52-1.933 6.52-4.16 0-2.7192-1.8321-3.96-6-3.96zm26.8 6.4c2.6536-4.4858 4.5353-8.1044 6-11.4h6.88c-3.04 5.9734-6.2718 11.495-9.88 17.12v10.6h-6.24v-10.52c-4.4191-6.8886-7.256-11.966-9.92-17.2h7.24c1.893 4.2592 3.9664 8.0976 5.92 11.4z" fill="#ebdbb2" opacity=".15" aria-label="VPY"/>
  <path d="m99 224.72c-3.0733-6.5215-7.49-17.07-11.04-27.72h6.88c4.3571 13.071 6.1098 17.669 7.28 20.36 1.2876-3.1173 3.8782-10.155 7.28-20.36h6.64c-4.7379 13.596-7.8533 20.958-11.04 27.72zm28.96-28.04c12.379 0 12.84 6.5014 12.84 9.32 0 3.3294-0.85049 9.44-12.96 9.44h-1.96v9.28h-6.24v-27.32c3.0028-0.58878 6.4467-0.72 8.32-0.72zm0.4 5.32c-0.95141 0-1.8488 0.0674-2.48 0.12v8h1.96c5.6666 0 6.52-1.933 6.52-4.16 0-2.7192-1.8321-3.96-6-3.96zm26.8 6.4c2.6536-4.4858 4.5353-8.1044 6-11.4h6.88c-3.04 5.9734-6.2718 11.495-9.88 17.12v10.6h-6.24v-10.52c-4.4191-6.8886-7.256-11.966-9.92-17.2h7.24c1.893 4.2592 3.9664 8.0976 5.92 11.4z" fill="#8f3f71" aria-label="VPY"/>
  <path d="m127.96 196.68c-1.8733 0-5.3175 0.13192-8.3203 0.7207v3c3.0028-0.58878 6.447-0.7207 8.3203-0.7207 10.506 0 12.421 4.6783 12.762 7.8184 0.0581-0.53527 0.0781-1.0438 0.0781-1.498 0-2.8186-0.461-9.3203-12.84-9.3203zm-40 0.32031c0.33448 1.0034 0.68323 2.0017 1.0312 3h5.8477c4.3571 13.071 6.1091 17.668 7.2793 20.359 1.2876-3.1173 3.8794-10.154 7.2812-20.359h5.5781c0.35-0.98561 0.69166-1.9415 1.0605-3h-6.6387c-3.4018 10.205-5.9937 17.242-7.2812 20.359-1.1702-2.6915-2.9222-7.2882-7.2793-20.359zm54.039 0c0.50871 0.99958 1.0372 1.9982 1.5684 3h5.6719c1.893 4.2592 3.9664 8.098 5.9199 11.4 2.6536-4.4858 4.5353-8.1048 6-11.4h5.2988c0.52979-0.99388 1.0623-1.9827 1.5801-3h-6.8789c-1.4647 3.2956-3.3464 6.9145-6 11.4-1.9536-3.3024-4.027-7.1412-5.9199-11.4zm-7.8574 10.531c-0.49969 1.4918-2.0367 2.5879-6.3027 2.5879h-1.959v3h1.959c5.6666 0 6.5195-1.9312 6.5195-4.1582 0-0.53285-0.0723-1.0086-0.2168-1.4297z" fill="#282828" opacity=".2"/>
  <path d="m152.33 67.666v18.25l27.375 24.333-27.375 24.333v18.25l48.667-41.776zm-17.37 0.17825-25.188 94.026 11.751 3.1486 25.2-94.026zm-31.296 11.988-48.667 43.392 48.667 41.776v-18.25l-27.375-24.333 27.375-24.333z" fill="#ebdbb2" opacity=".1" stroke-width=".9271"/>
  <path d="m152.33 62.647v18.25l27.375 24.333-27.375 24.333v18.25l48.667-41.776zm-17.37 0.17825-25.188 94.026 11.751 3.1486 25.2-94.026zm-31.296 11.988-48.667 43.392 48.667 41.776v-18.25l-27.375-24.333 27.375-24.333z" fill="#8f3f71" stroke-width=".9271"/>
  <path d="m152.33 62.647v5.0195l45.797 40.834 2.8691-2.4629zm-17.371 0.17969-25.188 94.025 1.2539 0.33594 23.934-89.344 10.51 2.8125 1.2539-4.6816zm-31.297 11.988-48.666 43.391 2.8691 2.4629 45.797-40.836zm73.219 32.926-24.551 21.824v5.0176l27.375-24.332zm-97.771 12.166-2.8223 2.5098 27.375 24.334v-5.0195z" fill="#282828" opacity=".2" stroke-width=".9271"/>
  <path d="m57 15c-9.9393 0-17 7.0595-17 17v192c0 9.9393 7.0595 17 17 17h142c9.9405 0 17-7.0607 17-17v-144l-65-64.998zm4.0332 4.9902 89.967 2e-3 60 60.009v139.75c0 9.4999-6.6575 16.248-16.033 16.248h-133.93c-9.3757 0-16.033-6.7481-16.033-16.248v-183.51c0-9.501 6.6586-16.25 16.033-16.25z" fill="url(#linearGradient14-5-9)" style="paint-order:markers fill stroke"/>
  <path d="m151 15.002v52.914c0 9.6525 7.8639 17.084 17.518 17.084l47.482-1.34e-4v-5z" fill="#282828" opacity=".3" stroke-width="1.0833"/>
  <path d="m151 15.001v47.916c0 9.6525 7.8639 17.084 17.518 17.084l47.482-1.34e-4z" fill="url(#linearGradient7-6-0-1)" stroke-width="1.0833"/>
</svg>
