<svg width="256" height="256" version="1.1" viewBox="0 0 256 256" xmlns="http://www.w3.org/2000/svg">
  <defs>
    <linearGradient id="linearGradient7-6-0" x1="186" x2="156" y1="45.006" y2="75.012" gradientTransform="matrix(1.0833 0 0 1.0833 -17.998 -1.2506)" gradientUnits="userSpaceOnUse">
      <stop stop-color="#83a598" offset="0"/>
      <stop stop-color="#458588" offset=".3027"/>
      <stop stop-color="#076678" offset="1"/>
    </linearGradient>
    <linearGradient id="linearGradient21-3" x1="128" x2="128" y1="15" y2="241" gradientTransform="translate(-9.7e-4,3e-5)" gradientUnits="userSpaceOnUse">
      <stop stop-color="#ebdbb2" offset="0"/>
      <stop stop-color="#d5c4a1" offset="1"/>
    </linearGradient>
    <linearGradient id="linearGradient14-1" x1="128" x2="128" y1="15.001" y2="241" gradientTransform="translate(0,4.8e-4)" gradientUnits="userSpaceOnUse">
      <stop stop-color="#076678" stop-opacity=".099738" offset="0"/>
      <stop stop-color="#076678" stop-opacity=".049869" offset=".2"/>
      <stop stop-color="#076678" stop-opacity=".047244" offset=".70405"/>
      <stop stop-color="#282828" stop-opacity=".049869" offset=".80473"/>
      <stop stop-color="#282828" stop-opacity=".15092" offset="1"/>
    </linearGradient>
  </defs>
  <path d="m56.999 15c-9.9393 0-17 7.0595-17 17v149h176v-101l-64.998-64.998z" fill="url(#linearGradient21-3)" style="paint-order:markers fill stroke"/>
  <path d="m57 241c-9.9393 0-17-7.0595-17-17v-43h176v43c0 9.9405-7.0607 17-17 17z" fill="#076678" stroke-linecap="round" stroke-linejoin="round" stroke-miterlimit="0" style="paint-order:markers fill stroke"/>
  <path d="m102.04 228.28c-11.917 0-13.84-8.7761-13.84-14.44 0-8.7097 5.577-14.48 14.16-14.48 3.6494 0 6.894 1.0788 8.56 2.12l-1.8 5.04c-1.62-0.86062-3.9004-1.64-6.84-1.64-1.6567 0-7.6 0.57595-7.6 8.84 0 7.3771 4.1646 9.04 7.92 9.04 2.4702 0.084 4.7798-0.55372 7-1.56l1.72 5c-3.204 1.9418-7.9741 2.08-9.28 2.08zm17.52-14.44c0 5.6626 2.883 8.96 7.36 8.96 4.8781 0 7.36-3.9271 7.36-8.96 0-4.9078-2.3872-9-7.36-9-4.1749 0-7.36 3.1092-7.36 9zm21.16 0c0 9.292-5.7804 14.44-13.8 14.44-7.1983 0-13.8-4.5179-13.8-14.44 0-9.2833 6.2024-14.48 13.8-14.48 7.6238 0 13.8 4.991 13.8 14.48zm14.44 14.24c-3.9745 0-6.8192-0.28408-9.24-0.8v-26.88c2.835-0.53155 6.6089-0.72 8.44-0.72 5.7428 0 12.08 1.2536 12.08 7.8 0 2.2133-1.0667 3.96-3.2 5.24 3.0743 1.0716 4.4184 3.479 4.56 6.6 0 6.8145-5.901 8.76-12.64 8.76zm-3.16-12.44v7.16c0.98082 0.11539 2.0707 0.16 3.24 0.16 2.8306-6e-3 5.9596-0.46056 6.24-3.76 0-0.94028-0.0632-3.56-5.56-3.56zm0-4.76h3.04c3.4646 0 5.36-0.71411 5.36-3.12 0-1.4248-0.57021-3.04-5.04-3.04-1.1212 0.0106-2.2423 0.0329-3.36 0.12z" fill="#282828" opacity=".3" aria-label="COBOL"/>
  <path d="m102.04 225.28c-11.917 0-13.84-8.7761-13.84-14.44 0-8.7097 5.577-14.48 14.16-14.48 3.6494 0 6.894 1.0788 8.56 2.12l-1.8 5.04c-1.62-0.86062-3.9004-1.64-6.84-1.64-1.6567 0-7.6 0.57595-7.6 8.84 0 7.3771 4.1646 9.04 7.92 9.04 2.4702 0.084 4.7798-0.55372 7-1.56l1.72 5c-3.204 1.9418-7.9741 2.08-9.28 2.08zm17.52-14.44c0 5.6626 2.8829 8.96 7.36 8.96 4.8781 0 7.36-3.9271 7.36-8.96 0-4.9078-2.3872-9-7.36-9-4.1749 0-7.36 3.1092-7.36 9zm21.16 0c0 9.292-5.7804 14.44-13.8 14.44-7.1983 0-13.8-4.5179-13.8-14.44 0-9.2833 6.2024-14.48 13.8-14.48 7.6238 0 13.8 4.991 13.8 14.48zm14.44 14.24c-3.9745 0-6.8192-0.28408-9.24-0.8v-26.88c2.835-0.53155 6.6089-0.72 8.44-0.72 5.7428 0 12.08 1.2536 12.08 7.8 0 2.2133-1.0667 3.96-3.2 5.24 3.0743 1.0716 4.4184 3.479 4.56 6.6 0 6.8145-5.901 8.76-12.64 8.76zm-3.16-12.44v7.16c0.98082 0.11539 2.0707 0.16 3.24 0.16 2.8306-6e-3 5.9596-0.46056 6.24-3.76 0-0.94028-0.0632-3.56-5.56-3.56zm0-4.76h3.04c3.4646 0 5.36-0.71411 5.36-3.12 0-1.4248-0.57021-3.04-5.04-3.04-1.1212 0.0106-2.2423 0.0329-3.36 0.12z" fill="#ebdbb2" aria-label="COBOL"/>
  <path d="m102.36 196.36c-8.583 0-14.16 5.7708-14.16 14.48 0 0.43958 0.0395 0.92302 0.0664 1.3945 0.64722-7.8059 6.05-12.875 14.094-12.875 3.0817 0 5.8626 0.7704 7.6602 1.6367l0.89843-2.5156c-1.666-1.0412-4.9092-2.1211-8.5586-2.1211zm24.559 0c-7.5976-1e-5 -13.799 5.1971-13.799 14.48 0 0.51228 0.0281 1.0008 0.0625 1.4844 0.64158-8.328 6.5643-12.965 13.736-12.965 7.2233 0 13.138 4.4878 13.74 13.029 0.0371-0.5039 0.0606-1.0176 0.0606-1.5488 0-9.489-6.177-14.48-13.801-14.48zm27.441 0.32031c-1.8311 0-5.6064 0.18915-8.4414 0.7207v3c2.835-0.53155 6.6103-0.7207 8.4414-0.7207 5.2302 0 10.936 1.0547 11.916 6.1855 0.1026-0.4405 0.16407-0.89937 0.16407-1.3848 0-6.5464-6.3373-7.8008-12.08-7.8008zm5.676 9.5976c-0.70213 1.2017-2.4106 1.6035-4.9961 1.6035h-3.041v3h3.041c3.4645 0 5.3594-0.7152 5.3594-3.1211 0-0.49764-0.0823-1.0153-0.36328-1.4824zm5.3086 4.5898c-0.51891 0.69765-1.2142 1.3188-2.1055 1.8535 2.6236 0.91445 3.9787 2.8059 4.4101 5.2793 0.0886-0.52786 0.15038-1.0779 0.15038-1.6797-0.10353-2.2822-0.85914-4.1774-2.4551-5.4531zm-70.594 1.3691c-0.0455 0.46546-0.0723 0.95848-0.0723 1.4844 0 7.3771 4.1646 9.0391 7.9199 9.0391 2.4702 0.084 4.7798-0.55427 7-1.5606l0.84375 2.4492c0.29772-0.1422 0.59946-0.28104 0.87696-0.44922l-1.7207-5c-2.2202 1.0063-4.5298 1.6446-7 1.5606-3.4813 0-7.3068-1.4377-7.8476-7.5234zm39.434 0.0918c-0.45252 4.2931-2.8834 7.4727-7.2656 7.4727-4.061 0-6.8014-2.721-7.2773-7.4512-0.0483 0.4774-0.082 0.96906-0.082 1.4902 0 5.6626 2.8823 8.9609 7.3594 8.9609 4.8781 0 7.3613-3.928 7.3613-8.9609 0-0.51669-0.0425-1.0169-0.0957-1.5117zm26.938 5.2637c-0.94259 2.0372-3.5142 2.3641-5.8828 2.3691-1.1693 0-2.2594-0.0448-3.2402-0.16016v3c0.98081 0.11539 2.071 0.16016 3.2402 0.16016 2.8306-6e-3 5.9598-0.46228 6.2402-3.7617 0-0.36616-0.0211-0.98579-0.35742-1.6074z" fill="#fbf1c7" opacity=".6"/>
  <path class="ColorScheme-Text" d="m188.01 97.216s1.8738-1.7517 2.37-5.0409c0.61121-4.0642 0.071-9.0107 0.071-9.0107s-1.2595 3.7484-3.238 6.1264c-1.5233 1.8289-4.0918 3.0387-4.0918 3.0387s-7.8702 0.76008-12.035-0.9751c-2.9545-1.2303-2.6291-5.1347-2.6291-5.1347s1.7659-2.2377 4.0966-4.6542c1.7312-1.7927 3.865-3.5019 5.3371-5.4308 2.107-2.7623 2.3795-5.3939 2.3795-5.3939s-6.8589 3.3688-12.319 7.1865c-3.613 2.5252-6.6194 6.0522-6.6194 6.0522l-1.0185-1.6288s3.0459-3.238 3.8792-7.014c0.89478-4.0548-0.41591-8.672-0.41591-8.672s-1.0145 4.084-3.1152 7.1526c-1.8572 2.715-4.8291 4.4565-4.8291 4.4565s-1.5013 0.24102-2.3496-0.71754c-1.3658-1.5422-2.3346-4.5779-2.3346-4.5779s-1.5745 1.0287-2.9915 0.47966c-1.7108-0.66241-3.3224-2.9253-3.3224-2.9253s-1.9896 1.4769-4.4865 2.0746c-2.1653 0.51827-4.8834 0.16461-4.8834 0.16461s-0.91053 1.35-3.0876 2.0077c-2.2022 0.66636-5.6727 0.64037-5.6727 0.64037s0.99788 2.5055-0.40015 4.3533c-1.4532 1.9203-5.3024 3.1837-5.3024 3.1837l3.4625 3.4625s-1.769 0.77819-4.555 3.2113c-2.1211 1.8525-4.2399 4.6834-6.2129 6.5997-1.8966 1.8438-3.6917 2.8143-3.6917 2.8143s-10.452 0.96166-16.982 10.586c-5.167 7.6206-2.3669 19.754-2.3669 19.754s-7.3299 7.5543-15.469 0.67892c-9.2711-7.8355-3.6776-19.825-3.6776-19.825s-12.185 7.7197-3.216 24.007c9.0501 16.446 25.008 8.5775 25.008 8.5775l-0.81522 3.8697-1.6288 2.0368 0.81443 1.8329s0.48205 2.4016 0.42218 4.2888c-0.03939 1.2224-0.6254 2.2274-0.6254 2.2274s-0.96333 2.1361-0.66557 3.327c0.3127 1.2508 1.8864 1.5611 1.8864 1.5611s0.67029 1.669 1.7336 1.9786c1.3477 0.39302 3.1569-0.55296 3.1569-0.55296s2.0613 1.0523 3.6035 0.70418c1.6131-0.36471 2.7103-2.1298 2.7103-2.1298s1.8156 0.23549 2.7623-0.34264c0.88373-0.53956 0.90341-1.8975 0.90341-1.8975l-4.2769-3.8697-0.20399-5.9066s3.8083-4.2344 5.5198-8.4515c1.28-3.1593 0.58996-6.617 0.58996-6.617s1.6423-1.224 3.5862-0.46549c1.632 0.6372 3.127 3.0285 4.7157 4.0745 1.8698 1.2287 3.7114 1.0759 3.7114 1.0759s-0.29772 2.3881-0.18666 4.3108c0.0913 1.6131 0.59389 2.8166 0.59389 2.8166s1.395 0.99085 2.1353 2.5181c0.86249 1.7793 1.1854 4.2422 2.7576 5.9515 1.1121 1.2107 2.5031 1.1303 3.6256 1.773 1.7832 1.0224 3.09 2.3834 3.09 2.3834s1.5312 2.2267 1.5312 4.8534c0 1.8187-1.6085 3.5491-1.9754 5.145-0.3962 1.7202 0.44424 3.238 0.44424 3.238s1.706-0.0315 2.752 0.43476c1.5872 0.70417 2.7473 2.0085 2.7473 2.0085s1.9526-1.4193 4.0792-1.5784c1.9369-0.14651 4.0642 0.96797 4.0642 0.96797s1.3712-0.0881 2.1117-0.84751c0.64192-0.65611 0.60177-1.9542 1.3374-2.4346 1.3484-0.88298 2.4559-0.58761 2.4559-0.58761s1.4706-1.6225 0.70574-3.1175c-0.54585-1.0642-2.1212-1.5012-3.0978-2.4385-1.2579-1.2107-1.8856-2.7922-1.8856-2.7922l2.24-2.6465s1.8156 0.90738 3.3223 1.1146c1.4438 0.20007 2.5819-0.3001 2.5819-0.3001l0.2032-1.4256s-3.0159-5.2434-3.4704-12.634c-0.33161-5.4135 1.9077-11.515 2.2173-16.706 0.35366-5.9169-1.1893-10.578-1.1893-10.578s0.77113-1.6769 3.2207-2.0668c3.6602-0.58287 15.721 3.0805 21.023 2.5748 6.7777-0.64822 6.506-5.3938 6.506-5.3938s-2.0116 1.1326-4.2273-0.0898c-2.7205-1.4989-5.7515-5.4088-5.7515-5.4088s2.804-1.6092 7.3763-0.10233c3.3767 1.113 5.0457 5.601 5.0457 5.601s3.342-2.7922 3.4334-6.5083c0.11185-4.4636-3.0261-10.397-3.0261-10.397zm-48.338 48.559-0.88845-7.4363 2.8859-0.88848 0.55452 10.547z" color="#ebdbb2" fill="#ebdbb2" opacity=".6" stroke-width="7.8765"/>
  <path class="ColorScheme-Text" d="m188.01 92.216s1.8738-1.7517 2.37-5.0409c0.61121-4.0642 0.071-9.0107 0.071-9.0107s-1.2595 3.7484-3.238 6.1264c-1.5233 1.8289-4.0918 3.0387-4.0918 3.0387s-7.8702 0.76008-12.035-0.9751c-2.9545-1.2303-2.6291-5.1347-2.6291-5.1347s1.7659-2.2377 4.0966-4.6542c1.7312-1.7927 3.865-3.5019 5.3371-5.4308 2.107-2.7623 2.3795-5.3939 2.3795-5.3939s-6.8589 3.3688-12.319 7.1865c-3.613 2.5252-6.6194 6.0522-6.6194 6.0522l-1.0185-1.6288s3.0459-3.238 3.8792-7.014c0.89478-4.0548-0.41591-8.672-0.41591-8.672s-1.0145 4.084-3.1152 7.1526c-1.8572 2.715-4.8291 4.4565-4.8291 4.4565s-1.5013 0.24102-2.3496-0.71754c-1.3658-1.5422-2.3346-4.5779-2.3346-4.5779s-1.5745 1.0287-2.9915 0.47966c-1.7108-0.66241-3.3224-2.9253-3.3224-2.9253s-1.9896 1.4769-4.4865 2.0746c-2.1653 0.51827-4.8834 0.16461-4.8834 0.16461s-0.91053 1.35-3.0876 2.0077c-2.2022 0.66636-5.6727 0.64037-5.6727 0.64037s0.99788 2.5055-0.40015 4.3533c-1.4532 1.9203-5.3024 3.1837-5.3024 3.1837l3.4625 3.4625s-1.769 0.77819-4.555 3.2113c-2.1211 1.8525-4.2399 4.6834-6.2129 6.5997-1.8966 1.8438-3.6917 2.8143-3.6917 2.8143s-10.452 0.96166-16.982 10.586c-5.167 7.6206-2.3669 19.754-2.3669 19.754s-7.3299 7.5543-15.469 0.67892c-9.2711-7.8355-3.6776-19.825-3.6776-19.825s-12.185 7.7197-3.216 24.007c9.0501 16.446 25.008 8.5775 25.008 8.5775l-0.81522 3.8697-1.6288 2.0368 0.81443 1.8329s0.48205 2.4016 0.42218 4.2888c-0.03939 1.2224-0.6254 2.2274-0.6254 2.2274s-0.96333 2.1361-0.66557 3.327c0.3127 1.2508 1.8864 1.5611 1.8864 1.5611s0.67029 1.669 1.7336 1.9786c1.3477 0.39302 3.1569-0.55296 3.1569-0.55296s2.0613 1.0523 3.6035 0.70418c1.6131-0.36471 2.7103-2.1298 2.7103-2.1298s1.8156 0.23549 2.7623-0.34264c0.88373-0.53956 0.90341-1.8975 0.90341-1.8975l-4.2769-3.8697-0.20399-5.9066s3.8083-4.2344 5.5198-8.4515c1.28-3.1593 0.58996-6.617 0.58996-6.617s1.6423-1.224 3.5862-0.46549c1.632 0.6372 3.127 3.0285 4.7157 4.0745 1.8698 1.2287 3.7114 1.0759 3.7114 1.0759s-0.29772 2.3881-0.18666 4.3108c0.0913 1.6131 0.59389 2.8166 0.59389 2.8166s1.395 0.99085 2.1353 2.5181c0.86249 1.7793 1.1854 4.2422 2.7576 5.9515 1.1121 1.2107 2.5031 1.1303 3.6256 1.773 1.7832 1.0224 3.09 2.3834 3.09 2.3834s1.5312 2.2267 1.5312 4.8534c0 1.8187-1.6085 3.5491-1.9754 5.145-0.3962 1.7202 0.44424 3.238 0.44424 3.238s1.706-0.0315 2.752 0.43476c1.5872 0.70417 2.7473 2.0085 2.7473 2.0085s1.9526-1.4193 4.0792-1.5784c1.9369-0.14651 4.0642 0.96797 4.0642 0.96797s1.3712-0.0881 2.1117-0.84751c0.64192-0.65611 0.60177-1.9542 1.3374-2.4346 1.3484-0.88298 2.4559-0.58761 2.4559-0.58761s1.4706-1.6225 0.70574-3.1175c-0.54585-1.0642-2.1212-1.5012-3.0978-2.4385-1.2579-1.2107-1.8856-2.7922-1.8856-2.7922l2.24-2.6465s1.8156 0.90738 3.3223 1.1146c1.4438 0.20007 2.5819-0.3001 2.5819-0.3001l0.2032-1.4256s-3.0159-5.2434-3.4704-12.634c-0.33161-5.4135 1.9077-11.515 2.2173-16.706 0.35366-5.9169-1.1893-10.578-1.1893-10.578s0.77113-1.6769 3.2207-2.0668c3.6602-0.58287 15.721 3.0805 21.023 2.5748 6.7777-0.64822 6.506-5.3938 6.506-5.3938s-2.0116 1.1326-4.2273-0.0898c-2.7205-1.4989-5.7515-5.4088-5.7515-5.4088s2.804-1.6092 7.3763-0.10233c3.3767 1.113 5.0457 5.601 5.0457 5.601s3.342-2.7922 3.4334-6.5083c0.11185-4.4636-3.0261-10.397-3.0261-10.397zm-48.338 48.559-0.88845-7.4363 2.8859-0.88848 0.55452 10.547z" color="#ebdbb2" fill="#076678" stroke-width="7.8765"/>
  <path class="ColorScheme-Text" d="m163.78 61.664s-1.0145 4.0837-3.1152 7.1523c-1.8572 2.715-4.8281 4.457-4.8281 4.457s-1.5013 0.24176-2.3496-0.7168c-1.3658-1.5422-2.3359-4.5781-2.3359-4.5781s-1.5733 1.0275-2.9902 0.47852c-1.7108-0.66241-3.3223-2.9238-3.3223-2.9238s-1.9894 1.4764-4.4863 2.0742c-2.1653 0.51827-4.8848 0.16406-4.8848 0.16406s-0.9089 1.3501-3.0859 2.0078c-2.2022 0.66636-5.6738 0.64062-5.6738 0.64062s0.99764 2.5057-0.40039 4.3535c-1.4532 1.9203-5.3027 3.1836-5.3027 3.1836l3.4062 3.4062c0.73804-0.45558 1.4387-0.98496 1.8965-1.5898 1.398-1.8478 0.40039-4.3535 0.40039-4.3535s3.4716 0.02574 5.6738-0.64062c2.177-0.65773 3.0859-2.0078 3.0859-2.0078s2.7195 0.35421 4.8848-0.16406c2.4969-0.59777 4.4863-2.0742 4.4863-2.0742s1.6115 2.2614 3.3223 2.9238c1.4169 0.549 2.9902-0.47852 2.9902-0.47852s0.97015 3.0359 2.3359 4.5781c0.84832 0.95856 2.3496 0.7168 2.3496 0.7168s2.9709-1.742 4.8281-4.457c2.1007-3.0687 3.1152-7.1523 3.1152-7.1523s0.32915 1.1679 0.54493 2.8418c0.57171-3.8299-0.54493-7.8418-0.54493-7.8418zm16.494 4.0762s-6.8585 3.3698-12.318 7.1875c-1.5425 1.0781-2.9161 2.3075-4.0508 3.3984-1.0806 3.3317-3.5879 6.0234-3.5879 6.0234l1.0176 1.6289s3.0081-3.5256 6.6211-6.0508c2.9594-2.0693 6.0844-3.8665 8.5508-5.207 0.49723-0.51647 0.97104-1.0412 1.3867-1.5859 2.107-2.7623 2.3809-5.3945 2.3809-5.3945zm10.18 12.424s-1.2578 3.749-3.2363 6.127c-1.5233 1.8289-4.0918 3.0391-4.0918 3.0391s-7.8702 0.75862-12.035-0.97656c-0.73611-0.30653-1.2696-0.77768-1.6543-1.3145-0.52323 0.62457-0.97656 1.1797-0.97656 1.1797s-0.32363 3.9045 2.6309 5.1348c4.165 1.7352 12.035 0.97656 12.035 0.97656s2.5685-1.2102 4.0918-3.0391c1.9786-2.3779 3.2363-6.127 3.2363-6.127s0.0742 1.1144 0.13281 2.0371c0.24301-3.5323-0.13281-7.0371-0.13281-7.0371zm-69.014 5.2285c-0.47432 0.36414-0.96347 0.74583-1.5273 1.2383-2.1211 1.8525-4.2399 4.6833-6.2129 6.5996-1.8966 1.8438-3.6914 2.8145-3.6914 2.8145s-10.453 0.96169-16.982 10.586c-3.037 4.479-3.3029 10.468-3.0215 14.686 0.25696-3.2743 1.0662-6.8017 3.0215-9.6856 6.5291-9.6242 16.982-10.586 16.982-10.586s1.7948-0.97063 3.6914-2.8145c1.973-1.9163 4.0918-4.7471 6.2129-6.5996 2.7859-2.4331 4.5547-3.2109 4.5547-3.2109zm67.93 11.906c-0.65683 1.2565-1.3555 1.916-1.3555 1.916l-0.0176-0.0098s1.8837 3.5932 2.6738 7.291c0.18938-0.59931 0.33508-1.2241 0.35156-1.8945 0.0607-2.4216-0.82-5.1981-1.6523-7.3027zm-117.86 9.9395s-7.7789 4.9601-6.2988 15.283c0.68601-4.491 3.0856-7.4497 4.7285-8.9902 0.34584-3.6262 1.5703-6.293 1.5703-6.293zm106.69 2.6406c-1.9378 0.10355-3.0332 0.73242-3.0332 0.73242s3.0314 3.9093 5.752 5.4082c0.0199 0.011 0.0388 0.0148 0.0586 0.0254 2.8952-0.90969 3.7678-2.7618 4.0352-3.9219-0.25038-0.25058-0.52321-0.47608-0.81055-0.69336-0.79379 0.20278-1.9736 0.31235-3.2832-0.41016-0.53656-0.29563-1.0821-0.69811-1.6172-1.1328-0.38839-0.0201-0.76321-0.0259-1.1016-8e-3zm-108.18 7.8652c-0.5565 4.1655-0.055 9.9028 5.1719 14.32 8.1394 6.8754 15.469-0.67968 15.469-0.67968s-0.40716-1.81-0.62305-4.4512c-1.8631 1.577-8.041 5.8788-14.846 0.13086-3.3371-2.8204-4.7325-6.1763-5.1719-9.3203zm85.244 2.2207c-0.61842 0.52178-0.86719 1.0312-0.86719 1.0312s0.82563 2.5166 1.1289 6.1856c0.0172-0.20101 0.0487-0.40899 0.0606-0.60742 0.15138-2.5326-0.0484-4.8038-0.32226-6.6094zm-15.898 20.195-0.57617 0.17773 0.88867 7.4356 2.5508 2.2226-0.27539-5.2402-2.2754-1.9824zm-18.158 1.4062s-0.0823 7e-4 -0.10742 2e-3c0.0216 0.16158 0.0356 0.33284 0.0625 0.48047 0.0135-0.1213 0.0449-0.48242 0.0449-0.48242zm32.293 2.9551c-0.13557 1.2746-0.20576 2.535-0.13086 3.7578 0.23869 3.8818 1.1718 7.1051 2.0156 9.3535 0.73869-0.0923 1.252-0.29297 1.252-0.29297l0.20313-1.4258s-2.6487-4.6781-3.3398-11.393zm-60.193 0.30079s-0.94891 0.44928-2.4453 0.90625v2e-3l0.81446 1.832s0.15018 0.79499 0.27343 1.8066l0.54102-0.67578zm9.9434 6.9355c-0.032 0.0363-0.16601 0.19336-0.16601 0.19336l0.20312 5.9062 1.2578 1.1367c0.60088 0.0304 1.4664 0.0271 2.1152-0.36914 0.88373-0.53956 0.9043-1.8984 0.9043-1.8984l-4.2774-3.8691zm-11.449 1.5703c-0.16168 0.45295-0.32813 0.75-0.32813 0.75s-0.96183 2.1372-0.66406 3.3281c0.13757 0.55025 0.52388 0.89488 0.9082 1.1348 0.17116-0.40813 0.35957-0.96836 0.38282-1.6895 0.0439-1.3846-0.16374-2.7367-0.29883-3.5234zm58.568 8.627-1.877 2.2168s0.62686 1.5804 1.8848 2.791c0.26673 0.25597 0.57947 0.47341 0.90234 0.67773 0.87341-0.2835 1.4902-0.12109 1.4902-0.12109s1.4719-1.6222 0.70704-3.1172c-0.54585-1.0642-2.1229-1.5022-3.0996-2.4394l-8e-3 -8e-3zm-16.211 1.3086c-0.50044 1.0594-1.1578 2.0844-1.3809 3.0547-0.3962 1.7202 0.44531 3.2383 0.44531 3.2383s0.22603 0.0133 0.29492 0.0137c0.57412-1.0886 1.2363-2.2217 1.2363-3.3965 0-1.1001-0.28352-2.0846-0.5957-2.9102z" fill="#282828" opacity=".2"/>
  <path d="m57 15c-9.9393 0-17 7.0595-17 17v192c0 9.9393 7.0595 17 17 17h142c9.9405 0 17-7.0607 17-17v-144l-65-65zm4.0332 4.9902 89.967 0.01 60 60 2e-4 139.75c1e-5 9.4999-6.6575 16.248-16.033 16.248h-133.93c-9.3757 0-16.033-6.7481-16.033-16.248v-183.51c0-9.501 6.6586-16.25 16.033-16.25z" fill="url(#linearGradient14-1)" style="paint-order:markers fill stroke"/>
  <path d="m151 15.002v52.914c0 9.6525 7.8639 17.084 17.518 17.084l47.482-1.34e-4v-5z" fill="#282828" opacity=".2" stroke-width="1.0833"/>
  <path d="m151 15.001v47.916c0 9.6525 7.8639 17.084 17.518 17.084l47.482-1.34e-4z" fill="url(#linearGradient7-6-0)" stroke-width="1.0833"/>
</svg>
