<svg width="256" height="256" version="1.1" viewBox="0 0 256 256" xmlns="http://www.w3.org/2000/svg">
  <defs>
    <linearGradient id="linearGradient18" x1="128" x2="128" y1="15" y2="241" gradientUnits="userSpaceOnUse">
      <stop stop-color="#fabd2f" offset="0"/>
      <stop stop-color="#fabd2f" offset="1"/>
    </linearGradient>
    <linearGradient id="linearGradient14-5-9" x1="128" x2="128" y1="15.001" y2="241" gradientTransform="translate(0,4.8e-4)" gradientUnits="userSpaceOnUse">
      <stop stop-color="#ebdbb2" stop-opacity=".4" offset="0"/>
      <stop stop-color="#ebdbb2" stop-opacity=".2" offset=".2"/>
      <stop stop-opacity="0" offset=".70405"/>
      <stop stop-opacity=".05" offset=".80473"/>
      <stop stop-opacity=".1" offset="1"/>
    </linearGradient>
    <linearGradient id="linearGradient7-6-0-9" x1="186" x2="156" y1="45.006" y2="75.012" gradientTransform="matrix(1.0833,0,0,1.0833,-17.999,-1.2512)" gradientUnits="userSpaceOnUse">
      <stop stop-color="#fabd2f" offset="0"/>
      <stop stop-color="#d79921" offset=".3027"/>
      <stop stop-color="#b57614" offset="1"/>
    </linearGradient>
  </defs>
  <path d="m57 15c-9.9393 0-17 7.0595-17 17v192c0 9.9393 7.0595 17 17 17h142c9.9405 0 17-7.0607 17-17v-144l-65-65z" fill="url(#linearGradient18)" stroke-linecap="round" stroke-linejoin="round" stroke-miterlimit="0" style="paint-order:markers fill stroke"/>
  <path d="m57 241c-9.9393 0-17-7.0595-17-17v-43h176v43c0 9.9405-7.0607 17-17 17z" fill="#b57614" opacity=".3" stroke-linecap="round" stroke-linejoin="round" stroke-miterlimit="0" style="paint-order:markers fill stroke"/>
  <path d="m112.52 218.4c0 9.0384-6.2603 9.88-10.04 9.88-2.8555 0.0854-5.5096-0.71748-7.92-2.2l2.08-4.84c1.6547 1.0291 3.4215 1.6208 5.36 1.72 3.1245 0 4.28-1.4992 4.28-4.88v-18.08h6.24zm13.56 4.56c3.2335 0 4.48-0.98172 4.48-2.88 0-1.533-1.0262-2.6487-5.68-4.2-3.4634-1.2224-7.6-2.955-7.6-8.2 0-5.1508 4.0386-8.32 10.2-8.32 3.7211 0 6.4107 0.94404 8.2 1.92l-1.8 4.92c-1.873-0.99727-3.8907-1.4678-6-1.52-2.9192 0-4.2 0.79833-4.2 2.52 0.24727 2.3866 2.8628 3.0035 4.8 3.68 5.9312 2.1967 8.52 4.0081 8.52 9.24 0 6.7588-5.9696 8.16-10.92 8.16-2.0763 0-6.0494-0.27394-9.28-2.12l1.76-4.96c2.3212 1.3162 4.8902 1.7066 7.52 1.76zm15.72 4.76v-27.72h18.72v5.24h-12.48v5.44h11.08v5.12h-11.08v6.68h13.4v5.24z" fill="#ebdbb2" opacity=".25" aria-label="JSE"/>
  <path d="m112.52 215.44c0 9.0384-6.2603 9.88-10.04 9.88-2.8555 0.0854-5.5096-0.71748-7.92-2.2l2.08-4.84c1.6547 1.0291 3.4215 1.6208 5.36 1.72 3.1245 0 4.28-1.4992 4.28-4.88v-18.08h6.24zm13.56 4.56c3.2335 0 4.48-0.98172 4.48-2.88 0-1.533-1.0262-2.6487-5.68-4.2-3.4634-1.2224-7.6-2.955-7.6-8.2 0-5.1508 4.0386-8.32 10.2-8.32 3.7211 0 6.4107 0.94404 8.2 1.92l-1.8 4.92c-1.873-0.99727-3.8907-1.4678-6-1.52-2.9192 0-4.2 0.79833-4.2 2.52 0.24727 2.3866 2.8628 3.0035 4.8 3.68 5.9312 2.1967 8.52 4.0081 8.52 9.24 0 6.7588-5.9696 8.16-10.92 8.16-2.0763 0-6.0494-0.27394-9.28-2.12l1.76-4.96c2.3212 1.3162 4.8902 1.7066 7.52 1.76zm15.72 4.76v-27.72h18.72v5.24h-12.48v5.44h11.08v5.12h-11.08v6.68h13.4v5.24z" fill="#3c3836" aria-label="JSE"/>
  <path d="m127.48 196.4c-6.1614 0-10.201 3.1696-10.201 8.3203 0 0.52692 0.0542 1.0097 0.13281 1.4688 0.71495-4.261 4.5284-6.8301 10.068-6.8301 3.1365 0 5.5319 0.67353 7.2812 1.4687l0.91797-2.5078c-1.7893-0.97596-4.4781-1.9199-8.1992-1.9199zm-21.201 0.64063v2.959h6.2402v-2.959zm35.521 0v2.959h18.719v-2.959zm-17.58 8.625c-0.36656 0.39009-0.54101 0.89807-0.54101 1.5332 0.24727 2.3866 2.8636 3.0052 4.8008 3.6816 5.2858 1.9577 7.9099 3.615 8.4199 7.6543 0.0597-0.43406 0.0996-0.88645 0.0996-1.375 0-5.2319-2.5883-7.0435-8.5195-9.2402-1.476-0.51543-3.3438-0.99849-4.2598-2.2539zm23.818 2.0547v2.959h11.08v-2.959zm-41.76 7.4004c0 3.3808-1.1548 4.8789-4.2793 4.8789-1.9385-0.0992-3.7047-0.68968-5.3594-1.7188l-2.0801 4.8398c0.33638 0.20689 0.67768 0.39633 1.0234 0.57618l1.0566-2.457c1.6547 1.0291 3.4209 1.6215 5.3594 1.7207 3.1245 0 4.2793-1.5001 4.2793-4.8809zm12.281 3.1191-1.7598 4.9609c0.29063 0.16608 0.58795 0.31546 0.88867 0.45703l0.8711-2.459c2.3212 1.3162 4.8898 1.7083 7.5195 1.7617 3.2335 0 4.4805-0.98258 4.4805-2.8809 0-0.50199-0.11439-0.95991-0.42578-1.4024-0.60021 0.87337-1.8736 1.3223-4.0547 1.3223-2.6298-0.0534-5.1983-0.44361-7.5195-1.7598zm29.479 1.2812v2.959h13.4v-2.959z" fill="#282828"/>
  <path d="m60 147.27 15.788-9.5552c3.0465 5.4006 5.8173 9.9703 12.464 9.9703 6.371 0 10.389-2.492 10.389-12.186v-65.924h19.389v66.198c0 20.082-11.772 29.223-28.946 29.223-15.51 0-24.513-8.0328-29.084-17.727m68.561-2.0761 15.787-9.1402c4.1562 6.7868 9.5576 11.772 19.113 11.772 8.0344 0 13.157-4.0168 13.157-9.5568 0-6.6474-5.2628-9.0024-14.127-12.879l-4.8461-2.0793c-13.989-5.9535-23.268-13.433-23.268-29.221 0-14.542 11.079-25.622 28.392-25.622 12.326 0 21.19 4.294 27.56 15.512l-15.097 9.6955c-3.3245-5.9551-6.9238-8.3092-12.464-8.3092-5.6786 0-9.2796 3.6009-9.2796 8.3092 0 5.8165 3.601 8.1722 11.91 11.773l4.8469 2.0769c16.481 7.0641 25.76 14.265 25.76 30.468 0 17.452-13.711 27.007-32.13 27.007-18.004 0-29.638-8.5865-35.316-19.805" fill="#ebdbb2" opacity=".3" stroke-width=".80594"/>
  <path d="m60 142.27 15.788-9.5552c3.0465 5.4006 5.8173 9.9703 12.464 9.9703 6.371 0 10.389-2.492 10.389-12.186v-65.924h19.389v66.198c0 20.082-11.772 29.223-28.946 29.223-15.51 0-24.513-8.0328-29.084-17.727m68.561-2.0761 15.787-9.1402c4.1562 6.7868 9.5576 11.772 19.113 11.772 8.0344 0 13.157-4.0168 13.157-9.5568 0-6.6474-5.2628-9.0024-14.127-12.879l-4.8461-2.0793c-13.989-5.9535-23.268-13.433-23.268-29.221 0-14.542 11.079-25.622 28.392-25.622 12.326 0 21.19 4.294 27.56 15.512l-15.097 9.6955c-3.3245-5.9551-6.9238-8.3092-12.464-8.3092-5.6786 0-9.2796 3.6009-9.2796 8.3092 0 5.8165 3.601 8.1722 11.91 11.773l4.8469 2.0769c16.481 7.0641 25.76 14.265 25.76 30.468 0 17.452-13.711 27.007-32.13 27.007-18.004 0-29.638-8.5865-35.316-19.805" fill="#3c3836" stroke-width=".80594"/>
  <path d="m162.77 63.474c-17.312 0-28.393 11.081-28.393 25.623 0 0.96727 0.0369 1.9021 0.10547 2.8086 1.0621-13.445 11.859-23.428 28.287-23.428 10.928 0 19.129 3.3856 25.289 11.969l2.2695-1.459c-6.3702-11.218-15.233-15.514-27.559-15.514zm-64.129 1.1094v5.002h19.389v-5.002zm55.172 26.768c-0.2087 0.73698-0.32422 1.5174-0.32422 2.334 0 5.8165 3.6009 8.1725 11.91 11.773l4.8476 2.0762c15.47 6.6305 24.593 13.384 25.654 27.586 0.047-0.70003 0.10547-1.3935 0.10547-2.1211 0-16.203-9.2783-23.403-25.76-30.467l-4.8476-2.0781c-6.9049-2.9924-10.548-5.1305-11.586-9.1035zm-55.172 39.156c0 9.6938-4.0177 12.188-10.389 12.188-6.6466 0-9.4164-4.5701-12.463-9.9707l-15.789 9.5547c0.6064 1.2861 1.2972 2.5392 2.0645 3.752l13.725-8.3047c3.0465 5.4006 5.8163 9.9707 12.463 9.9707 6.371 0 10.389-2.4917 10.389-12.186zm45.707 0.55469-15.787 9.1387v2e-3c0.64947 1.2833 1.3855 2.527 2.1914 3.7324l13.596-7.8711c4.1562 6.7868 9.558 11.771 19.113 11.771 8.0344 0 13.156-4.0166 13.156-9.5566 0-0.97077-0.1264-1.8407-0.34571-2.6465-1.2544 4.2847-5.9698 7.2012-12.811 7.2012-9.5552 0-14.957-4.9847-19.113-11.771z" fill="#282828" stroke-width=".80594"/>
  <path d="m57 15c-9.9393 0-17 7.0595-17 17v192c0 9.9393 7.0595 17 17 17h142c9.9405 0 17-7.0607 17-17v-144l-65-64.998zm4.0332 4.9902 89.967 2e-3 60 60.009v139.75c0 9.4999-6.6575 16.248-16.033 16.248h-133.93c-9.3757 0-16.033-6.7481-16.033-16.248v-183.51c0-9.501 6.6586-16.25 16.033-16.25z" fill="url(#linearGradient14-5-9)" style="paint-order:markers fill stroke"/>
  <path d="m151 15.002v52.914c0 9.6525 7.8639 17.084 17.518 17.084l47.482-1.34e-4v-5z" fill="#282828" opacity=".3" stroke-width="1.0833"/>
  <path d="m151 15v47.916c0 9.6525 7.8639 17.084 17.518 17.084l47.482-1.34e-4z" fill="url(#linearGradient7-6-0-9)" stroke-width="1.0833"/>
</svg>
