<svg width="256" height="256" fill="none" version="1.1" viewBox="0 0 256 256" xmlns="http://www.w3.org/2000/svg">
  <path d="m55.08 15h100.5l60.4 60.15 2e-3 148.9c0 8.911-7.262 16.13-16.17 16.13h-144.8c-8.91 0-16.08-7.174-16.08-16.08v-193c0-8.91 7.173-16.08 16.08-16.08h1e-4z" fill="#ebdbb2"/>
  <path d="m155.6 22.98h-100.5c-4.504 0-8.105 3.601-8.105 8.105v193c0 4.504 3.601 8.105 8.105 8.105h144.8c4.533 0 8.194-3.674 8.194-8.149v-148.9l-52.42-52.17zm-1e-3 -7.979h-100.5c-8.91 0-16.08 7.173-16.08 16.08v193c0 8.91 7.173 16.08 16.08 16.08h144.8c8.911 0 16.17-7.218 16.17-16.13l-2e-3 -148.9-60.4-60.15z" clip-rule="evenodd" fill="url(#paint0_linear)" fill-rule="evenodd"/>
  <path d="m93.71 76c-14.2 0-25.71 11.64-25.71 26 0 14.36 11.51 26 25.71 26 14.2 0 25.72-11.64 25.72-26 0-14.36-11.51-26-25.72-26zm-8.571 17.33c1.126-3e-4 2.241 0.2237 3.281 0.6592s1.985 1.074 2.781 1.879c0.796 0.8049 1.427 1.76 1.858 2.812 0.4306 1.052 0.6519 2.179 0.6515 3.318 3e-4 1.138-0.2212 2.265-0.6518 3.316-0.4307 1.052-1.062 2.008-1.858 2.812-0.796 0.805-1.741 1.443-2.781 1.879-1.04 0.435-2.155 0.659-3.28 0.659-1.126 0-2.24-0.224-3.28-0.659-1.04-0.436-1.985-1.074-2.781-1.879-0.796-0.804-1.427-1.76-1.858-2.812-0.4306-1.051-0.6521-2.178-0.6518-3.316-5e-4 -1.139 0.2209-2.266 0.6515-3.318 0.4306-1.052 1.062-2.007 1.858-2.812 0.796-0.805 1.741-1.443 2.781-1.879s2.155-0.6595 3.281-0.6592zm77.14-17.33c-14.2 0-25.72 11.64-25.72 26 0 14.36 11.51 26 25.72 26s25.71-11.64 25.71-26c0-14.36-11.51-26-25.71-26zm-8.572 17.33c1.126-5e-4 2.241 0.2234 3.281 0.6589 1.04 0.4354 1.985 1.074 2.781 1.879 0.796 0.8049 1.428 1.761 1.859 2.812 0.43 1.052 0.652 2.179 0.651 3.318 0 1.138-0.221 2.265-0.652 3.317-0.43 1.051-1.062 2.007-1.858 2.812s-1.741 1.443-2.781 1.878c-1.041 0.436-2.155 0.659-3.281 0.659s-2.241-0.224-3.281-0.659c-1.04-0.436-1.985-1.074-2.781-1.879-0.796-0.804-1.427-1.76-1.858-2.812-0.43-1.051-0.652-2.178-0.651-3.316-1e-3 -1.139 0.221-2.266 0.651-3.318 0.431-1.052 1.062-2.007 1.858-2.812 0.796-0.805 1.741-1.443 2.781-1.879s2.155-0.6595 3.281-0.6592z" fill="url(#paint1_linear)"/>
  <path d="m115.1 136.7c0-4.786 5.755-8.666 12.86-8.666 7.101 0 12.86 3.879 12.86 8.666h2.143c1.407-1e-3 2.801 0.279 4.102 0.823 1.3 0.544 2.482 1.342 3.477 2.348s1.784 2.201 2.322 3.516 0.814 2.724 0.813 4.147c3e-3 1.424-0.272 2.834-0.81 4.15-0.537 1.315-1.326 2.511-2.321 3.517-0.996 1.007-2.178 1.805-3.479 2.348-1.302 0.543-2.696 0.821-4.104 0.818h-2.143v15.17c0 1.724-0.678 3.376-1.883 4.595-1.206 1.219-2.841 1.904-4.545 1.905-1.705-1e-3 -3.34-0.686-4.545-1.905-1.206-1.219-1.883-2.871-1.884-4.595-1e-3 1.724-0.678 3.376-1.884 4.595-1.205 1.219-2.84 1.904-4.545 1.905-1.704-1e-3 -3.339-0.686-4.545-1.905-1.205-1.219-1.883-2.871-1.883-4.595v-15.17h-2.143c-1.408 5e-3 -2.804-0.272-4.106-0.814-1.302-0.543-2.485-1.341-3.481-2.348-0.996-1.006-1.785-2.203-2.321-3.519-0.537-1.317-0.811-2.728-0.806-4.152-3e-3 -1.423 0.272-2.833 0.809-4.149 0.538-1.316 1.327-2.511 2.322-3.518 0.996-1.007 2.178-1.805 3.479-2.348s2.696-0.822 4.104-0.819h2.143z" clip-rule="evenodd" fill="url(#paint2_linear)" fill-rule="evenodd"/>
  <path d="m155.6 17v44.23c0 8.91 7.259 15.93 16.17 15.93l44.23-0.0112v-2l-60.4-58.15z" fill="#282828" opacity=".25"/>
  <path d="m155.6 15v44.23c0 8.91 7.259 15.93 16.17 15.93l44.23-0.0112-60.4-60.15z" fill="url(#paint3_linear)"/>
  <defs>
    <linearGradient id="paint0_linear" x1="72.14" x2="72.97" y1="16.03" y2="239.9" gradientUnits="userSpaceOnUse">
      <stop stop-color="#83a598" offset="0"/>
      <stop stop-color="#458588" offset="1"/>
    </linearGradient>
    <linearGradient id="paint1_linear" x1="90.46" x2="90.53" y1="76.24" y2="127.9" gradientUnits="userSpaceOnUse">
      <stop stop-color="#83a598" offset="0"/>
      <stop stop-color="#458588" offset="1"/>
    </linearGradient>
    <linearGradient id="paint2_linear" x1="111.9" x2="112.1" y1="128.2" y2="179.9" gradientUnits="userSpaceOnUse">
      <stop stop-color="#83a598" offset="0"/>
      <stop stop-color="#458588" offset="1"/>
    </linearGradient>
    <linearGradient id="paint3_linear" x1="166.9" x2="167.1" y1="15.28" y2="75.08" gradientUnits="userSpaceOnUse">
      <stop stop-color="#83a598" offset="0"/>
      <stop stop-color="#458588" offset="1"/>
    </linearGradient>
  </defs>
</svg>
