<svg width="256" height="256" version="1.1" viewBox="0 0 256 256" xmlns="http://www.w3.org/2000/svg" xmlns:xlink="http://www.w3.org/1999/xlink">
  <defs>
    <linearGradient id="linearGradient14-5" x1="128" x2="128" y1="15.001" y2="241" gradientTransform="translate(0,4.8e-4)" gradientUnits="userSpaceOnUse">
      <stop stop-color="#ebdbb2" stop-opacity=".15" offset="0"/>
      <stop stop-color="#ebdbb2" stop-opacity=".05" offset=".2"/>
      <stop stop-opacity="0" offset=".70405"/>
      <stop stop-opacity=".05" offset=".80473"/>
      <stop stop-opacity=".1" offset="1"/>
    </linearGradient>
    <linearGradient id="linearGradient28" x1="40" x2="216" y1="98" y2="98" gradientUnits="userSpaceOnUse">
      <stop stop-color="#458588" offset="0"/>
      <stop stop-color="#458588" offset=".25"/>
      <stop stop-color="#fb4934" offset=".25"/>
      <stop stop-color="#fb4934" offset=".5"/>
      <stop stop-color="#fabd2f" offset=".5"/>
      <stop stop-color="#fabd2f" offset=".75"/>
      <stop stop-color="#689d6a" offset=".75"/>
      <stop stop-color="#689d6a" offset=".9999"/>
    </linearGradient>
    <linearGradient id="linearGradient38" x1="116.75" x2="116.75" y1="181" y2="15.001" gradientUnits="userSpaceOnUse">
      <stop stop-color="#282828" offset="0"/>
      <stop stop-color="#282828" stop-opacity="0" offset="1"/>
    </linearGradient>
    <linearGradient id="linearGradient7-6-0-2" x1="186" x2="156" y1="45.006" y2="75.012" gradientTransform="matrix(1.0833,0,0,1.0833,-17.998,-1.2496)" gradientUnits="userSpaceOnUse">
      <stop stop-color="#fabd2f" offset="0"/>
      <stop stop-color="#d79921" offset=".3027"/>
      <stop stop-color="#b57614" offset="1"/>
    </linearGradient>
  </defs>
  <path d="m57 15c-9.9393 0-17 7.0595-17 17v149h176v-101l-64.998-64.998-94.002-0.001953z" fill="url(#linearGradient28)" style="paint-order:markers fill stroke"/>
  <path d="m57 241c-9.9393 0-17-7.0595-17-17v-43h176v43c0 9.9405-7.0607 17-17 17z" fill="#d79921" stroke-linecap="round" stroke-linejoin="round" stroke-miterlimit="0" style="paint-order:markers fill stroke"/>
  <path d="m104.96 227.72c-1.9571-3.1686-6.1991-8.6704-10.12-11.72v11.72h-6.24v-27.72h6.24v10.48c3.2507-3.4103 6.335-6.9732 9.48-10.48h7.4c-2.2923 2.712-6.5669 7.6069-11.72 12.76 5.4224 4.5078 9.7838 10.787 12.36 14.96zm19.96 0c-3.1136-6.6069-7.5035-17.11-11.04-27.72h6.88c4.3571 13.071 6.1098 17.669 7.28 20.36 1.2876-3.1172 3.8782-10.154 7.28-20.36h6.64c-4.6877 13.452-7.8316 20.912-11.04 27.72zm42.48-27.72v5.32h-8.36v22.4h-6.24v-22.4h-8.36v-5.32z" fill="#ebdbb2" opacity=".2" aria-label="KVTML"/>
  <path d="m104.96 224.72c-1.9571-3.1686-6.1991-8.6704-10.12-11.72v11.72h-6.24v-27.72h6.24v10.48c3.2507-3.4103 6.335-6.9732 9.48-10.48h7.4c-2.2923 2.712-6.5669 7.6069-11.72 12.76 5.4224 4.5078 9.7838 10.787 12.36 14.96zm19.96 0c-3.1136-6.6069-7.5035-17.11-11.04-27.72h6.88c4.3571 13.071 6.1098 17.669 7.28 20.36 1.2876-3.1172 3.8782-10.154 7.28-20.36h6.64c-4.6877 13.452-7.8316 20.912-11.04 27.72zm42.48-27.72v5.32h-8.36v22.4h-6.24v-22.4h-8.36v-5.32z" fill="#b57614" aria-label="KVTML"/>
  <path d="m88.6 197v3h6.2402v-3zm15.721 0c-3.145 3.5068-6.2298 7.0702-9.4805 10.48v3c3.2507-3.4103 6.3355-6.9737 9.4805-10.48h4.8047c1.0061-1.1451 1.9125-2.1917 2.5957-3zm9.5606 0c0.33431 1.0029 0.68153 2.0022 1.0293 3h5.8496c4.3571 13.071 6.1091 17.668 7.2793 20.359 1.2876-3.1172 3.8794-10.154 7.2812-20.359h5.5625c0.36824-1.0356 0.6896-1.8851 1.0781-3h-6.6406c-3.4018 10.206-5.9937 17.242-7.2812 20.359-1.1702-2.6915-2.9222-7.2882-7.2793-20.359zm30.559 0v3h22.961v-3zm-42.875 14.152c-0.52598 0.53899-1.0173 1.0603-1.5644 1.6074 4.2487 3.532 7.8087 8.1192 10.406 11.961h1.9531c-2.3221-3.7612-6.1023-9.2241-10.795-13.568z" fill="#282828" opacity=".2"/>
  <path d="m57 15c-9.9393 0-17 7.0595-17 17v149h176v-101l-64.998-64.998z" display="none" fill="url(#linearGradient38)" opacity=".15" style="paint-order:markers fill stroke"/>
  <path d="m57 15c-9.9393 0-17 7.0595-17 17v192c0 9.9393 7.0595 17 17 17h142c9.9405 0 17-7.0607 17-17v-144l-65-64.998zm4.0332 4.9902 89.967 2e-3 60 60.009v139.75c0 9.4999-6.6575 16.248-16.033 16.248h-133.93c-9.3757 0-16.033-6.7481-16.033-16.248v-183.51c0-9.501 6.6586-16.25 16.033-16.25z" fill="url(#linearGradient14-5)" style="paint-order:markers fill stroke"/>
  <path d="m151 15.002v52.914c0 9.6525 7.8639 17.084 17.518 17.084l47.482-1.34e-4v-5z" fill="#282828" opacity=".3" stroke-width="1.0833"/>
  <path d="m151 15.002v47.916c0 9.6525 7.8639 17.084 17.518 17.084l47.482-1.34e-4z" fill="url(#linearGradient7-6-0-2)" stroke-width="1.0833"/>
</svg>
