<svg width="256" height="256" version="1.1" viewBox="0 0 256 256" xmlns="http://www.w3.org/2000/svg">
  <defs>
    <linearGradient id="linearGradient7-6-0" x1="186" x2="156" y1="45.006" y2="75.012" gradientTransform="matrix(1.0833 0 0 1.0833 -17.999 -1.2511)" gradientUnits="userSpaceOnUse">
      <stop stop-color="#83a598" offset="0"/>
      <stop stop-color="#458588" offset=".3027"/>
      <stop stop-color="#076678" offset="1"/>
    </linearGradient>
    <linearGradient id="linearGradient14-5" x1="128" x2="128" y1="15.001" y2="241" gradientTransform="translate(0,4.8e-4)" gradientUnits="userSpaceOnUse">
      <stop stop-color="#ebdbb2" stop-opacity=".15" offset="0"/>
      <stop stop-color="#ebdbb2" stop-opacity=".05" offset=".2"/>
      <stop stop-opacity="0" offset=".70405"/>
      <stop stop-opacity=".05" offset=".80473"/>
      <stop stop-opacity=".1" offset="1"/>
    </linearGradient>
    <linearGradient id="linearGradient26" x1="-160" x2="-160" y2="226" gradientTransform="translate(267,15)" gradientUnits="userSpaceOnUse">
      <stop stop-color="#076678" offset="0"/>
      <stop stop-color="#076678" offset="1"/>
    </linearGradient>
  </defs>
  <path d="m57 15c-9.9393 0-17 7.0595-17 17v192c0 9.9393 7.0595 17 17 17h142c9.9405 0 17-7.0607 17-17v-144l-64.999-64.999z" fill="url(#linearGradient26)" stroke-linecap="round" stroke-linejoin="round" stroke-miterlimit="0" style="paint-order:markers fill stroke"/>
  <path d="m57 241c-9.9393 0-17-7.0595-17-17v-43h176v43c0 9.9405-7.0607 17-17 17z" fill="#83a598" opacity=".7" stroke-linecap="round" stroke-linejoin="round" stroke-miterlimit="0" style="paint-order:markers fill stroke"/>
  <path d="m87.2 199.68c7.1485 0 12.88 2.1678 12.88 9.12 0 2.1895-0.48891 5.6557-5.2 7.6 3.551 4.3964 6.5069 10.532 6.88 11.32h-7c-4.0059-7.1684-5.2516-8.79-6.36-10.12h-3.08v10.12h-6.24v-27.32c3.1191-0.6116 6.3871-0.72 8.12-0.72zm0.36 5.32c-0.74882-0.01-1.4946 0.0599-2.24 0.12v7.52h1.76c4.8398 0 6.56-1.1781 6.56-3.88 0-1.4407-0.45697-3.76-6.08-3.76zm25.76 17.96c3.2348 0 4.48-0.9826 4.48-2.88 0-1.5331-1.0263-2.6488-5.68-4.2-3.4634-1.2224-7.6-2.9551-7.6-8.2 0-5.1508 4.0386-8.32 10.2-8.32 3.7211 0 6.4107 0.94404 8.2 1.92l-1.8 4.92c-1.873-0.99727-3.8907-1.4678-6-1.52-2.9192 0-4.2 0.79833-4.2 2.52 0.24727 2.3866 2.8628 3.0035 4.8 3.68 5.9312 2.1967 8.52 4.0082 8.52 9.24 0 6.7588-5.9696 8.16-10.92 8.16-2.0763 0-6.0494-0.27394-9.28-2.12l1.76-4.96c2.3212 1.3162 4.8902 1.7066 7.52 1.76zm23.84-23.28c7.1485 0 12.88 2.1678 12.88 9.12 0 2.1895-0.48893 5.6558-5.2 7.6 3.5509 4.3964 6.5069 10.532 6.88 11.32h-7c-4.0062-7.1689-5.2518-8.7901-6.36-10.12h-3.08v10.12h-6.24v-27.32c3.119-0.61159 6.387-0.72 8.12-0.72zm0.36 5.32c-0.74882-0.01-1.4946 0.0599-2.24 0.12v7.52h1.76c4.8398 0 6.56-1.178 6.56-3.88 0-1.4407-0.45696-3.76-6.08-3.76zm30.12 23.28c-11.917 0-13.84-8.7761-13.84-14.44 0-8.7096 5.577-14.48 14.16-14.48 3.6495 0 6.894 1.0788 8.56 2.12l-1.8 5.04c-1.62-0.86063-3.9005-1.64-6.84-1.64-1.6567 0-7.6 0.57595-7.6 8.84 0 4.3066 1.4676 9.04 7.92 9.04 2.4702 0.084 4.7798-0.55372 7-1.56l1.72 5c-3.204 1.9418-7.9741 2.08-9.28 2.08z" fill="#ebdbb2" opacity=".15" aria-label="RSRCI"/>
  <path d="m87.2 196.68c7.1485 0 12.88 2.1678 12.88 9.12 0 2.1895-0.48891 5.6557-5.2 7.6 3.551 4.3964 6.5069 10.532 6.88 11.32h-7c-4.0059-7.1684-5.2516-8.79-6.36-10.12h-3.08v10.12h-6.24v-27.32c3.1191-0.6116 6.3871-0.72 8.12-0.72zm0.36 5.32c-0.74882-0.01-1.4946 0.0599-2.24 0.12v7.52h1.76c4.8398 0 6.56-1.1781 6.56-3.88 0-1.4407-0.45697-3.76-6.08-3.76zm25.76 17.96c3.2348 0 4.48-0.9826 4.48-2.88 0-1.5331-1.0263-2.6488-5.68-4.2-3.4634-1.2224-7.6-2.9551-7.6-8.2 0-5.1508 4.0386-8.32 10.2-8.32 3.7211 0 6.4107 0.94404 8.2 1.92l-1.8 4.92c-1.873-0.99727-3.8907-1.4678-6-1.52-2.9192 0-4.2 0.79833-4.2 2.52 0.24727 2.3866 2.8628 3.0035 4.8 3.68 5.9312 2.1967 8.52 4.0082 8.52 9.24 0 6.7588-5.9696 8.16-10.92 8.16-2.0763 0-6.0494-0.27394-9.28-2.12l1.76-4.96c2.3212 1.3162 4.8902 1.7066 7.52 1.76zm23.84-23.28c7.1485 0 12.88 2.1678 12.88 9.12 0 2.1895-0.48893 5.6558-5.2 7.6 3.5509 4.3964 6.5069 10.532 6.88 11.32h-7c-4.0062-7.1689-5.2518-8.7901-6.36-10.12h-3.08v10.12h-6.24v-27.32c3.119-0.61159 6.387-0.72 8.12-0.72zm0.36 5.32c-0.74882-0.01-1.4946 0.0599-2.24 0.12v7.52h1.76c4.8398 0 6.56-1.178 6.56-3.88 0-1.4407-0.45696-3.76-6.08-3.76zm30.12 23.28c-11.917 0-13.84-8.7761-13.84-14.44 0-8.7096 5.577-14.48 14.16-14.48 3.6495 0 6.894 1.0788 8.56 2.12l-1.8 5.04c-1.62-0.86063-3.9005-1.64-6.84-1.64-1.6567 0-7.6 0.57595-7.6 8.84 0 4.3066 1.4676 9.04 7.92 9.04 2.4702 0.084 4.7798-0.55372 7-1.56l1.72 5c-3.204 1.9418-7.9741 2.08-9.28 2.08z" fill="#076678" aria-label="RSRCI"/>
  <path d="m114.72 196.36c-6.1614 0-10.201 3.1696-10.201 8.3203 0 0.53573 0.0536 1.0265 0.13477 1.4922 0.7224-4.2506 4.534-6.8125 10.066-6.8125 3.1452 0 5.5112 0.68239 7.2617 1.4805l0.9375-2.5605c-1.7893-0.97596-4.4781-1.9199-8.1992-1.9199zm53.24 0c-8.583-1e-5 -14.16 5.7708-14.16 14.48 0 0.50122 0.0209 1.0325 0.0566 1.5742 0.57986-7.906 5.9992-13.055 14.104-13.055 3.0818 0 5.8626 0.77041 7.6602 1.6367l0.89844-2.5156c-1.666-1.0412-4.9091-2.1211-8.5586-2.1211zm-80.762 0.32031c-1.7329 0-5 0.1091-8.1191 0.7207v3c3.1191-0.6116 6.3862-0.7207 8.1191-0.7207 6.6038 0 11.988 1.8602 12.771 7.623 0.0745-0.53608 0.10938-1.05 0.10938-1.502 0-6.9522-5.7323-9.1211-12.881-9.1211zm49.961 0c-1.733 0-5.002 0.10911-8.1211 0.7207v3c3.119-0.61159 6.3881-0.7207 8.1211-0.7207 6.6045 0 11.989 1.8606 12.771 7.625 0.0747-0.53681 0.10742-1.0514 0.10742-1.5039 0-6.9522-5.7304-9.1211-12.879-9.1211zm-25.682 8.9668c-0.37909 0.39253-0.5586 0.90711-0.5586 1.5527 0.24727 2.3866 2.8636 3.0052 4.8008 3.6816 5.275 1.9537 7.9003 3.6076 8.418 7.6289 0.061-0.43818 0.10156-0.8968 0.10156-1.3906 0-5.2318-2.5883-7.0415-8.5195-9.2383-1.4677-0.51253-3.3207-0.99474-4.2422-2.2344zm-18.117 1.6543c-0.63871 1.6058-2.4969 2.3398-6.2812 2.3398h-1.7598v3h1.7598c4.8398 0 6.5606-1.1789 6.5606-3.8808 0-0.43601-0.0651-0.95068-0.2793-1.459zm49.961 0c-0.63872 1.6058-2.4989 2.3398-6.2832 2.3398h-1.7598v3h1.7598c4.8398 0 6.5606-1.1789 6.5606-3.8808 0-0.43591-0.0632-0.95078-0.27734-1.459zm17.027 4.9394c-0.0452 0.46419-0.0703 0.95622-0.0703 1.4805 0 4.3066 1.4676 9.0391 7.9199 9.0391 2.4702 0.084 4.7798-0.55427 7-1.5606l0.84375 2.4492c0.29772-0.1422 0.59946-0.28104 0.87695-0.44922l-1.7207-5c-2.2202 1.0063-4.5298 1.6446-7 1.5606-5.6982 0-7.5042-3.6905-7.8496-7.5195zm-63.855 3.3398c-0.47437 0.29465-1.007 0.57011-1.6133 0.82031 2.1864 2.707 4.0608 5.9489 5.332 8.3203h1.5469c-0.31444-0.6638-2.4721-5.1221-5.2656-9.1406zm49.961 0c-0.4744 0.29467-1.0089 0.57009-1.6152 0.82031 2.1865 2.7071 4.0628 5.9488 5.334 8.3203h1.5469c-0.31441-0.66375-2.4721-5.1221-5.2656-9.1406zm-40.654 2.6191-1.7617 4.9609c0.29411 0.16806 0.59988 0.31014 0.9043 0.45312l0.85742-2.4141c2.3212 1.3162 4.8898 1.7083 7.5195 1.7617 3.2348 0 4.4805-0.98346 4.4805-2.8809 0-0.51029-0.1337-0.97262-0.45703-1.4219-0.60815 0.8543-1.8657 1.3027-4.0234 1.3027-2.6298-0.0534-5.1983-0.44556-7.5195-1.7617z" fill="#282828" opacity=".2"/>
  <path d="m128 50c-28.029 0-53 8.3487-53 22.5v75c0 14.149 24.966 22.5 53 22.5 27.836 0 52.644-8.2367 52.984-22.211h0.01562v-75.289c0-14.149-24.966-22.5-53-22.5zm0 10c27.27 0 43 8.3196 43 12.5 0 4.1823-15.736 12.5-43 12.5-27.27 0-43-8.3196-43-12.5 0-4.1823 15.736-12.5 43-12.5zm-43 26.193c9.8385 5.6731 25.839 8.8066 43 8.8066 17.159 0 33.161-3.1331 43-8.8066v11.307c0 4.1823-15.736 12.5-43 12.5-27.27 0-43-8.3196-43-12.5zm0 25c9.8385 5.6731 25.839 8.8066 43 8.8066 17.159 0 33.161-3.1331 43-8.8066v11.307c0 4.1823-15.736 12.5-43 12.5-27.27 0-43-8.3196-43-12.5zm0 25c9.8385 5.6731 25.839 8.8066 43 8.8066 17.159 0 33.161-3.1331 43-8.8066v11.307c0 4.1823-15.736 12.5-43 12.5-27.27 0-43-8.3196-43-12.5z" fill="#282828" opacity=".2" stroke-linecap="round" stroke-linejoin="round" stroke-miterlimit="0" stroke-width="2.0059" style="paint-order:markers fill stroke"/>
  <path d="m128 45c-28.029 0-53 8.3487-53 22.5v75c0 14.149 24.966 22.5 53 22.5 27.836 0 52.644-8.2367 52.984-22.211h0.01562v-75.289c0-14.149-24.966-22.5-53-22.5zm0 10c27.27 0 43 8.3196 43 12.5 0 4.1823-15.736 12.5-43 12.5-27.27 0-43-8.3196-43-12.5 0-4.1823 15.736-12.5 43-12.5zm-43 26.193c9.8385 5.6731 25.839 8.8066 43 8.8066 17.159 0 33.161-3.1331 43-8.8066v11.307c0 4.1823-15.736 12.5-43 12.5-27.27 0-43-8.3196-43-12.5zm0 25c9.8385 5.6731 25.839 8.8066 43 8.8066 17.159 0 33.161-3.1331 43-8.8066v11.307c0 4.1823-15.736 12.5-43 12.5-27.27 0-43-8.3196-43-12.5zm0 25c9.8385 5.6731 25.839 8.8066 43 8.8066 17.159 0 33.161-3.1331 43-8.8066v11.307c0 4.1823-15.736 12.5-43 12.5-27.27 0-43-8.3196-43-12.5z" fill="#83a598" stroke-linecap="round" stroke-linejoin="round" stroke-miterlimit="0" stroke-width="2.0059" style="paint-order:markers fill stroke"/>
  <path d="m128 45c-28.029 0-53 8.3487-53 22.5v5c0-14.151 24.971-22.5 53-22.5 28.034 0 53 8.3506 53 22.5v-5c0-14.149-24.966-22.5-53-22.5zm-41.561 25c-0.93214 0.91335-1.4395 1.7717-1.4395 2.5 0 4.1804 15.73 12.5 43 12.5 27.264 0 43-8.3177 43-12.5 0-0.7284-0.50647-1.5862-1.4394-2.5-4.4207 4.3316-19.044 10-41.561 10-22.518 0-37.139-5.6692-41.561-10zm-1.4395 22.5v5c0 4.1804 15.73 12.5 43 12.5 27.264 0 43-8.3177 43-12.5v-5c0 4.1823-15.736 12.5-43 12.5-27.27 0-43-8.3196-43-12.5zm0 25v5c0 4.1804 15.73 12.5 43 12.5 27.264 0 43-8.3177 43-12.5v-5c0 4.1823-15.736 12.5-43 12.5-27.27 0-43-8.3196-43-12.5zm0 25v5c0 4.1804 15.73 12.5 43 12.5 27.264 0 43-8.3177 43-12.5v-5c0 4.1823-15.736 12.5-43 12.5-27.27 0-43-8.3196-43-12.5z" fill="#ebdbb2" opacity=".2" stroke-linecap="round" stroke-linejoin="round" stroke-miterlimit="0" stroke-width="2.0059" style="paint-order:markers fill stroke"/>
  <path d="m57 15c-9.9393 0-17 7.0595-17 17v192c0 9.9393 7.0595 17 17 17h142c9.9405 0 17-7.0607 17-17v-144l-65-64.998zm4.0332 4.9902 89.967 2e-3 60 60.009v139.75c0 9.4999-6.6575 16.248-16.033 16.248h-133.93c-9.3757 0-16.033-6.7481-16.033-16.248v-183.51c0-9.501 6.6586-16.25 16.033-16.25z" fill="url(#linearGradient14-5)" style="paint-order:markers fill stroke"/>
  <path d="m151 15.002v52.914c0 9.6525 7.8639 17.084 17.518 17.084l47.482-1.3e-4v-5z" fill="#282828" opacity=".3" stroke-width="1.0833"/>
  <path d="m151 15v47.916c0 9.6525 7.8639 17.084 17.518 17.084l47.482-1.3e-4z" fill="url(#linearGradient7-6-0)" stroke-width="1.0833"/>
</svg>
