<svg width="256" height="256" version="1.1" viewBox="0 0 256 256" xmlns="http://www.w3.org/2000/svg">
  <defs>
    <linearGradient id="linearGradient21" x1="128" x2="128" y1="15" y2="241" gradientTransform="translate(-9.75e-4,-9.75e-4)" gradientUnits="userSpaceOnUse">
      <stop stop-color="#ebdbb2" offset="0"/>
      <stop stop-color="#d5c4a1" offset="1"/>
    </linearGradient>
    <linearGradient id="linearGradient7-6-0-3" x1="186" x2="156" y1="45.006" y2="75.012" gradientTransform="matrix(1.0833,0,0,1.0833,-17.999,-1.2511)" gradientUnits="userSpaceOnUse">
      <stop stop-color="#d3869b" offset="0"/>
      <stop stop-color="#b16286" offset=".3027"/>
      <stop stop-color="#8f3f71" offset="1"/>
    </linearGradient>
    <linearGradient id="linearGradient14-0-8" x1="128" x2="128" y1="15.001" y2="241" gradientTransform="translate(0,4.8e-4)" gradientUnits="userSpaceOnUse">
      <stop stop-color="#8f3f71" stop-opacity=".099738" offset="0"/>
      <stop stop-color="#8f3f71" stop-opacity=".048556" offset=".2"/>
      <stop stop-color="#8f3f71" stop-opacity=".053806" offset=".70405"/>
      <stop stop-color="#282828" stop-opacity=".047244" offset=".80473"/>
      <stop stop-color="#282828" stop-opacity=".10367" offset="1"/>
    </linearGradient>
  </defs>
  <path d="m56.999 14.999c-9.9393 0-17 7.0595-17 17v149h176v-101l-64.998-64.998z" fill="url(#linearGradient21)" style="paint-order:markers fill stroke"/>
  <path d="m57 241c-9.9393 0-17-7.0595-17-17v-43h176v43c0 9.9405-7.0607 17-17 17z" fill="#b16286" stroke-linecap="round" stroke-linejoin="round" stroke-miterlimit="0" style="paint-order:markers fill stroke"/>
  <path d="m122.98 228.36c-3.2366-5.7485-7.4258-12.291-12.44-18.16v18.16h-6.16v-27.72h5.08c5.2552 5.4944 10.448 13.192 12.56 16.36v-16.36h6.2v27.72zm17.56 0.6c-2.7016 0-6.4254-0.79632-8.08-1.56l1.16-4.96c3.2193 1.362 4.9079 1.44 6.68 1.44 2.3361 0 5.32-0.62855 5.32-3.84 0-3.6478-4.2735-3.84-5.96-3.84h-2.32v-4.8h2.64c2.1925 0 4.56-0.63918 4.56-3.4 0-2.2848-2.2851-2.96-3.64-2.96-2.1256-0.04-4.0401 0.74567-5.84 1.8l-2.12-4.36c1.7539-1.0962 4.6544-2.48 8.12-2.48 6.5513 0 9.44 3.4112 9.44 7.8 0 1.9373-1.063 4.3215-3.4 5.52 2.4559 1.0006 4.52 3.1917 4.52 6.8 0 7.7754-7.1596 8.84-11.08 8.84z" fill="#282828" opacity=".2" aria-label="N3"/>
  <path d="m122.98 224.72c-3.2366-5.7485-7.4258-12.291-12.44-18.16v18.16h-6.16v-27.72h5.08c5.2552 5.4944 10.448 13.192 12.56 16.36v-16.36h6.2v27.72zm17.56 0.6c-2.7016 0-6.4254-0.79632-8.08-1.56l1.16-4.96c3.2193 1.362 4.9079 1.44 6.68 1.44 2.3361 0 5.32-0.62855 5.32-3.84 0-3.6478-4.2735-3.84-5.96-3.84h-2.32v-4.8h2.64c2.1925 0 4.56-0.63918 4.56-3.4 0-2.2848-2.2851-2.96-3.64-2.96-2.1256-0.04-4.0401 0.74567-5.84 1.8l-2.12-4.36c1.7539-1.0962 4.6544-2.48 8.12-2.48 6.5513 0 9.44 3.4112 9.44 7.8 0 1.9373-1.063 4.3215-3.4 5.52 2.4559 1.0006 4.52 3.1917 4.52 6.8 0 7.7754-7.1596 8.84-11.08 8.84z" fill="#ebdbb2" aria-label="N3"/>
  <path d="m141.06 196.36c-3.4656-1e-5 -6.3672 1.3843-8.1211 2.4805l1.3906 2.8594c1.733-0.87804 4.0615-1.6992 6.7305-1.6992 5.4969 0 8.4061 2.4059 9.2031 5.7715 0.15462-0.54821 0.23633-1.0956 0.23633-1.6113 0-4.3888-2.8882-7.8008-9.4394-7.8008zm-36.68 0.64062v3.6406h5.0801c5.2552 5.4944 10.447 13.191 12.559 16.359v-3.6406c-2.112-3.168-7.3034-10.865-12.559-16.359zm17.639 0v3.6406h6.2012v-3.6406zm21.951 9.3027c-0.83296 1.1394-2.453 1.457-3.9902 1.457h-2.6406v3.6406h2.6406c2.1925 0 4.5586-0.63957 4.5586-3.4004 0-0.71284-0.22113-1.2694-0.56836-1.6973zm5.4941 4.8828c-0.55308 0.84873-1.3356 1.6067-2.3652 2.1348 2.0444 0.83293 3.8128 2.4939 4.3496 5.1074 0.10951-0.5978 0.16992-1.2438 0.16992-1.9473 0-2.3428-0.87171-4.085-2.1543-5.2949zm-4.2988 7.0742c-0.92029 1.6084-3.0791 1.9805-4.8652 1.9805-1.7721 0-3.4623-0.0774-6.6816-1.4394l-1.1582 4.959c0.22263 0.10275 0.48731 0.20667 0.77734 0.30859l0.38087-1.6289c3.2193 1.362 4.9095 1.4414 6.6816 1.4414 2.3361 0 5.3184-0.63035 5.3184-3.8418 0-0.72224-0.17132-1.3026-0.45313-1.7793z" fill="#fbf1c7" opacity=".6"/>
  <path d="m143.59 73.165c-16.541 16.229-25.955 21.884-49.99 28.379 0.06114 0.0652-12.677 20.687-12.677 20.687 33.03 7.0085 48.011 15.644 70.613 40.769-0.0473-0.049 16.308-8.9501 16.308-8.9501-9.0236-27.715-10.267-44.394-3.7106-69.1 0.0868 0.11171-20.544-11.785-20.544-11.785zm4.5387 15.925c4.1491 17.459 4.1276 31.213-0.0798 48.732-19.901-5.8321-28.341-10.85-42.282-23.92 14.953-14.275 23.595-19.184 42.362-24.812z" fill="#ebdbb2" opacity=".8" stroke-width="8.1538"/>
  <path d="m143.59 67.807c-16.541 16.229-25.955 21.884-49.99 28.379 0.06114 0.06519-12.677 20.687-12.677 20.687 33.03 7.0085 48.011 15.644 70.613 40.769-0.0473-0.049 16.308-8.9501 16.308-8.9501-9.0236-27.715-10.267-44.394-3.7106-69.1 0.0868 0.11171-20.544-11.785-20.544-11.785zm4.5387 15.925c4.1491 17.459 4.1276 31.213-0.0798 48.732-19.901-5.8321-28.341-10.85-42.282-23.92 14.953-14.275 23.595-19.184 42.362-24.812z" fill="#8f3f71" stroke-width="8.1538"/>
  <path d="m143.59 67.807c-16.541 16.229-25.955 21.884-49.99 28.379 0.06114 0.06519-12.676 20.688-12.676 20.688 1.0008 0.21236 1.9339 0.43267 2.9023 0.64843 3.4604-5.6089 9.8206-15.928 9.7734-15.979 24.035-6.4948 33.449-12.15 49.99-28.379 0 1e-6 17.355 10.004 19.375 11.117 0.35836-1.5339 0.74454-3.0937 1.168-4.6895 0.0868 0.11171-20.543-11.785-20.543-11.785zm16.461 42.484c-0.41413 12.176 1.7096 24.07 6.3516 39.188 0.23207-0.12636 1.4414-0.78711 1.4414-0.78711-4.8949-15.034-7.48-26.818-7.793-38.4zm-8.873 0.21093c-0.20511 7.0132-1.2428 14.109-3.1289 21.963-18.49-5.4185-27.092-10.146-39.398-21.27-0.9381 0.86473-1.8943 1.7634-2.8828 2.707 13.94 13.07 22.381 18.088 42.281 23.92 2.3666-9.8546 3.4084-18.519 3.1289-27.32z" fill="#282828" opacity=".2" stroke-width="8.1538"/>
  <path d="m155.62 55.846a20.385 20.385 0 0 0-20.385 20.385 20.385 20.385 0 0 0 20.385 20.385 20.385 20.385 0 0 0 20.385-20.385 20.385 20.385 0 0 0-20.385-20.385zm-65.231 36.692a20.385 20.385 0 0 0-20.385 20.385 20.385 20.385 0 0 0 20.385 20.385 20.385 20.385 0 0 0 20.385-20.385 20.385 20.385 0 0 0-20.385-20.385zm65.231 36.692a20.385 20.385 0 0 0-20.385 20.385 20.385 20.385 0 0 0 20.385 20.385 20.385 20.385 0 0 0 20.385-20.385 20.385 20.385 0 0 0-20.385-20.385z" fill="#282828" opacity=".15" stroke-width="5.8242"/>
  <path d="m155.62 50.846a20.385 20.385 0 0 0-20.385 20.385 20.385 20.385 0 0 0 20.385 20.385 20.385 20.385 0 0 0 20.385-20.385 20.385 20.385 0 0 0-20.385-20.385zm-65.231 36.692a20.385 20.385 0 0 0-20.385 20.385 20.385 20.385 0 0 0 20.385 20.385 20.385 20.385 0 0 0 20.385-20.385 20.385 20.385 0 0 0-20.385-20.385zm65.231 36.692a20.385 20.385 0 0 0-20.385 20.385 20.385 20.385 0 0 0 20.385 20.385 20.385 20.385 0 0 0 20.385-20.385 20.385 20.385 0 0 0-20.385-20.385z" fill="#b16286" stroke-width="5.8242"/>
  <path d="m155.62 50.846a20.385 20.385 0 0 0-20.385 20.385 20.385 20.385 0 0 0 0.28125 2.5 20.385 20.385 0 0 1 20.104-17.885 20.385 20.385 0 0 1 20.215 17.885 20.385 20.385 0 0 0 0.16992-2.5 20.385 20.385 0 0 0-20.385-20.385zm-65.23 36.693a20.385 20.385 0 0 0-20.385 20.385 20.385 20.385 0 0 0 0.28125 2.5 20.385 20.385 0 0 1 20.104-17.885 20.385 20.385 0 0 1 20.104 17.885 20.385 20.385 0 0 0 0.28125-2.5 20.385 20.385 0 0 0-20.385-20.385zm65.23 36.691a20.385 20.385 0 0 0-20.385 20.385 20.385 20.385 0 0 0 0.28125 2.5 20.385 20.385 0 0 1 20.104-17.885 20.385 20.385 0 0 1 20.158 17.4 20.385 20.385 0 0 0 0.22656-2.0156 20.385 20.385 0 0 0-20.385-20.385z" fill="#ebdbb2" opacity=".2" stroke-width="5.8242"/>
  <path d="m57 15c-9.9393 0-17 7.0595-17 17v192c0 9.9393 7.0595 17 17 17h142c9.9405 0 17-7.0607 17-17v-144l-65-65zm4.0332 4.9902 89.967 0.01 60 60 2e-4 139.75c1e-5 9.4999-6.6575 16.248-16.033 16.248h-133.93c-9.3757 0-16.033-6.7481-16.033-16.248v-183.51c0-9.501 6.6586-16.25 16.033-16.25z" fill="url(#linearGradient14-0-8)" style="paint-order:markers fill stroke"/>
  <path d="m151 15.002v52.914c0 9.6525 7.8639 17.084 17.518 17.084l47.482-1.34e-4v-5z" fill="#282828" opacity=".2" stroke-width="1.0833"/>
  <path d="m151 15v47.916c0 9.6525 7.8639 17.084 17.518 17.084l47.482-1.34e-4z" fill="url(#linearGradient7-6-0-3)" stroke-width="1.0833"/>
</svg>
