<svg width="256" height="256" fill="none" version="1.1" viewBox="0 0 256 256" xmlns="http://www.w3.org/2000/svg">
  <path d="m57 15c-9.9393 0-17 7.0595-17 17v192c0 9.9393 7.0595 17 17 17h142c9.9405 0 17-7.0607 17-17v-192c0-9.9405-7.0607-17-17-17z" fill="url(#linearGradient26)" stroke-linecap="round" stroke-linejoin="round" stroke-miterlimit="0" style="paint-order:markers fill stroke"/>
  <defs>
    <linearGradient id="linearGradient26" x1="-160" x2="-160" y2="226" gradientTransform="translate(267,15)" gradientUnits="userSpaceOnUse">
      <stop stop-color="#b8bb26" offset="0"/>
      <stop stop-color="#b8bb26" offset="1"/>
    </linearGradient>
    <linearGradient id="linearGradient20" x1="128" x2="128" y1="15" y2="241" gradientUnits="userSpaceOnUse">
      <stop stop-color="#ebdbb2" stop-opacity=".3" offset="0"/>
      <stop stop-color="#ebdbb2" stop-opacity=".15" offset=".2027"/>
      <stop stop-opacity="0" offset=".80405"/>
      <stop stop-opacity=".1" offset=".89662"/>
      <stop stop-opacity=".15" offset="1"/>
    </linearGradient>
  </defs>
  <path d="m57 241c-9.9393 0-17-7.0595-17-17v-43h176v43c0 9.9405-7.0607 17-17 17z" fill="#79740e" opacity=".3" stroke-linecap="round" stroke-linejoin="round" stroke-miterlimit="0" style="paint-order:markers fill stroke"/>
  <path d="m107.4 227.72c-3.2366-5.7485-7.4258-12.291-12.44-18.16v18.16h-6.16v-27.72h5.08c5.2552 5.4943 10.448 13.191 12.56 16.36v-16.36h6.2v27.72zm19.2-4.76c3.2335 0 4.48-0.98172 4.48-2.88 0-1.533-1.0262-2.6487-5.68-4.2-3.8413-1.3558-7.4099-2.9885-7.6-8.2 0-5.1508 4.0386-8.32 10.2-8.32 3.7211 0 6.4107 0.94404 8.2 1.92l-1.8 4.92c-1.873-0.99727-3.8907-1.4678-6-1.52-2.9192 0-4.2 0.79833-4.2 2.52 0.19285 2.3426 2.9057 3.0323 4.8 3.68 5.9312 2.1967 8.52 4.0081 8.52 9.24 0 6.7588-5.9696 8.16-10.92 8.16-2.0763 0-6.0494-0.27394-9.28-2.12l1.76-4.96c2.3212 1.3162 4.8902 1.7066 7.52 1.76zm23.56 4.76c-3.114-6.6077-7.5036-17.111-11.04-27.72h6.88c4.3554 13.066 6.1092 17.667 7.28 20.36 1.2872-3.1163 3.8779-10.154 7.28-20.36h6.64c-4.7223 13.551-7.8464 20.943-11.04 27.72z" fill="#ebdbb2" opacity=".2" aria-label="NSV"/>
  <path d="m107.4 224.72c-3.2366-5.7485-7.4258-12.291-12.44-18.16v18.16h-6.16v-27.72h5.08c5.2552 5.4943 10.448 13.191 12.56 16.36v-16.36h6.2v27.72zm19.2-4.76c3.2335 0 4.48-0.98172 4.48-2.88 0-1.533-1.0262-2.6487-5.68-4.2-3.8413-1.3558-7.4099-2.9885-7.6-8.2 0-5.1508 4.0386-8.32 10.2-8.32 3.7211 0 6.4107 0.94404 8.2 1.92l-1.8 4.92c-1.873-0.99727-3.8907-1.4678-6-1.52-2.9192 0-4.2 0.79833-4.2 2.52 0.19285 2.3426 2.9057 3.0323 4.8 3.68 5.9312 2.1967 8.52 4.0081 8.52 9.24 0 6.7588-5.9696 8.16-10.92 8.16-2.0763 0-6.0494-0.27394-9.28-2.12l1.76-4.96c2.3212 1.3162 4.8902 1.7066 7.52 1.76zm23.56 4.76c-3.114-6.6077-7.5036-17.111-11.04-27.72h6.88c4.3554 13.066 6.1092 17.667 7.28 20.36 1.2872-3.1163 3.8779-10.154 7.28-20.36h6.64c-4.7223 13.551-7.8464 20.943-11.04 27.72z" fill="#79740e" aria-label="NSV"/>
  <path d="m128 196.36c-6.1614 0-10.199 3.1696-10.199 8.3203 0.0181 0.49567 0.0758 0.94905 0.15234 1.3828 0.76849-4.1857 4.5616-6.7031 10.047-6.7031 3.1296 0 5.5212 0.67 7.2695 1.4629l0.92969-2.543c-1.7893-0.97596-4.4781-1.9199-8.1992-1.9199zm-39.199 0.64062v3h5.0801c5.2552 5.4943 10.446 13.191 12.559 16.359v-3c-2.1125-3.1687-7.3034-10.865-12.559-16.359zm17.639 0v3h6.2012v-3zm32.68 0c0.33432 1.003 0.68348 2.0021 1.0312 3h5.8496c4.3554 13.066 6.1085 17.666 7.2793 20.359 1.2872-3.1163 3.8792-10.153 7.2812-20.359h5.5781c0.34988-0.9852 0.692-1.9424 1.0606-3h-6.6387c-3.4021 10.206-5.9941 17.243-7.2812 20.359-1.1708-2.6929-2.9239-7.293-7.2793-20.359zm-14.365 8.6543c-0.37439 0.39163-0.55469 0.90322-0.55469 1.5449 0.19285 2.3426 2.9065 3.034 4.8008 3.6816 5.275 1.9537 7.9003 3.6076 8.418 7.6289 0.061-0.43818 0.10156-0.8968 0.10156-1.3906 0-5.2319-2.5883-7.0415-8.5195-9.2383-1.4272-0.48799-3.3174-1.0018-4.2461-2.2266zm-5.6738 12.545-1.7598 4.9609c0.29448 0.16827 0.59948 0.30999 0.9043 0.45312l0.85547-2.4141c2.3212 1.3162 4.8898 1.7083 7.5195 1.7617 3.2335 0 4.4805-0.98258 4.4805-2.8809 0-0.5104-0.13355-0.97253-0.45703-1.4219-0.60819 0.85489-1.8658 1.3027-4.0234 1.3027-2.6298-0.0534-5.1983-0.44556-7.5195-1.7617z" fill="#282828" opacity=".2"/>
  <path d="m50 37v15h15v-15h-15zm141 0v15h15v-15h-15zm-141 20v15h15v-15h-15zm141 0v15h15v-15h-15zm-96.006 2.9941s0.005847 0.001948 0.005859 0.001953v-0.001953h-0.005859zm0.005859 0.001953v89.998s42.649-18.449 79.949-45.029c0-7e-3 -0.00377-0.01539-0.00977-0.02539-4e-3 -0.011-0.01058-0.02029-0.01757-0.02929l-0.01758-0.02735c-6e-3 -8e-3 -0.00877-0.01929-0.00977-0.02929-39.325-27.419-79.863-44.844-79.895-44.857zm-45 16.504v15h15v-15h-15zm141 0v15h15v-15h-15zm-141 20v15h15v-15h-15zm141 0v15h15v-15h-15zm-141 20.5v15h15v-15h-15zm141 0v15h15v-15h-15zm-141 20v15h15v-15h-15zm141 0v15h15v-15h-15zm-141 20v15h15v-15h-15zm141 0v15h15v-15h-15z" fill="#ebdbb2" opacity=".2" style="paint-order:markers fill stroke"/>
  <path d="m50 35v15h15v-15h-15zm141 0v15h15v-15h-15zm-141 20v15h15v-15h-15zm45 0v90s42.649-18.449 79.949-45.029c0-7e-3 -0.00377-0.015391-0.00977-0.025391-4e-3 -0.010999-0.01058-0.020296-0.01757-0.029296l-0.01758-0.027344c-6e-3 -8e-3 -0.00877-0.019297-0.00977-0.029297-39.325-27.419-79.863-44.846-79.895-44.859zm96 0v15h15v-15h-15zm-141 19.5v15h15v-15h-15zm141 0v15h15v-15h-15zm-141 20v15h15v-15h-15zm141 0v15h15v-15h-15zm-141 20.5v15h15v-15h-15zm141 0v15h15v-15h-15zm-141 20v15h15v-15h-15zm141 0v15h15v-15h-15zm-141 20v15h15v-15h-15zm141 0v15h15v-15h-15z" fill="#79740e" style="paint-order:markers fill stroke"/>
  <path d="m50 35v2h15v-2h-15zm141 0v2h15v-2h-15zm-141 20v2h15v-2h-15zm45 0v4.9941c0.0304 0.01306 38.184 16.444 76.369 42.459 1.1943-0.82774 2.395-1.6399 3.5801-2.4844 0-7e-3 -0.00377-0.015391-0.00977-0.025391-4e-3 -0.011-0.01058-0.020296-0.01757-0.029297l-0.01758-0.027343c-6e-3 -8e-3 -0.00877-0.019297-0.00977-0.029297-39.324-27.419-79.864-44.844-79.895-44.857zm96 0v2h15v-2h-15zm-141 19.5v2h15v-2h-15zm141 0v2h15v-2h-15zm-141 20v2h15v-2h-15zm141 0v2h15v-2h-15zm-141 20.5v2h15v-2h-15zm141 0v2h15v-2h-15zm-141 20v2h15v-2h-15zm141 0v2h15v-2h-15zm-141 20v2h15v-2h-15zm141 0v2h15v-2h-15z" fill="#282828" opacity=".2" style="paint-order:markers fill stroke"/>
  <path d="m57 15c-9.9393 0-17 7.0595-17 17v192c0 9.9393 7.0595 17 17 17h142c9.9405 0 17-7.0607 17-17v-192c0-9.9405-7.0607-17-17-17zm4.0332 5h133.93c9.3746 0 16.033 6.7474 16.033 16.248v183.5c0 9.4995-6.6575 16.248-16.033 16.248h-133.93c-9.3757 0-16.033-6.7486-16.033-16.248v-183.5c0-9.5007 6.6586-16.248 16.033-16.248z" fill="url(#linearGradient20)" style="paint-order:markers fill stroke"/>
</svg>
