<svg width="256" height="256" fill="none" version="1.1" viewBox="0 0 256 256" xmlns="http://www.w3.org/2000/svg">
  <path d="m57 15c-9.9393 0-17 7.0595-17 17v192c0 9.9393 7.0595 17 17 17h142c9.9405 0 17-7.0607 17-17v-192c0-9.9405-7.0607-17-17-17z" fill="url(#linearGradient26)" stroke-linecap="round" stroke-linejoin="round" stroke-miterlimit="0" style="paint-order:markers fill stroke"/>
  <defs>
    <linearGradient id="linearGradient26" x1="-160" x2="-160" y2="226" gradientTransform="translate(267,15)" gradientUnits="userSpaceOnUse">
      <stop stop-color="#b16286" offset="0"/>
      <stop stop-color="#b16286" offset="1"/>
    </linearGradient>
    <linearGradient id="linearGradient20" x1="128" x2="128" y1="15" y2="241" gradientUnits="userSpaceOnUse">
      <stop stop-color="#ebdbb2" stop-opacity=".15" offset="0"/>
      <stop stop-color="#ebdbb2" stop-opacity=".05" offset=".2027"/>
      <stop stop-opacity="0" offset=".80405"/>
      <stop stop-opacity=".1" offset=".89662"/>
      <stop stop-opacity=".15" offset="1"/>
    </linearGradient>
  </defs>
  <path d="m57 241c-9.9393 0-17-7.0595-17-17v-43h176v43c0 9.9405-7.0607 17-17 17z" fill="#d3869b" opacity=".6" stroke-linecap="round" stroke-linejoin="round" stroke-miterlimit="0" style="paint-order:markers fill stroke"/>
  <path d="m91.14 200c2.8077 5.364 5.1623 10.948 7.52 16.52 2.3568-5.5724 4.6676-11.178 7.52-16.52h5.68c1.2019 9.1934 1.7322 18.464 2.2 27.72h-6.08c-0.20884-7.0309-0.45108-12.726-0.92-18.4-2.144 4.9499-4.2446 9.918-6.36 14.88h-4.36c-2.1341-4.9541-4.2337-9.9226-6.36-14.88-0.46892 5.6739-0.71116 11.369-0.92 18.4h-6.08c0.61669-12.642 1.2396-21.093 2.2-27.72zm44.88 27.72c-1.9571-3.1686-6.1991-8.6704-10.12-11.72v11.72h-6.24v-27.72h6.24v10.48c3.2506-3.4103 6.335-6.9732 9.48-10.48h7.4c-2.2922 2.712-6.5669 7.6069-11.72 12.76 5.4224 4.5078 9.7838 10.787 12.36 14.96zm19.96 0c-3.114-6.6077-7.5036-17.111-11.04-27.72h6.88c4.2647 12.794 6.0822 17.605 7.28 20.36 1.2872-3.1163 3.8779-10.154 7.28-20.36h6.64c-4.7223 13.551-7.8464 20.943-11.04 27.72z" fill="#ebdbb2" opacity=".15" aria-label="MKV"/>
  <path d="m91.14 197c2.8077 5.364 5.1623 10.948 7.52 16.52 2.3568-5.5724 4.6676-11.178 7.52-16.52h5.68c1.2019 9.1934 1.7322 18.464 2.2 27.72h-6.08c-0.20884-7.0309-0.45108-12.726-0.92-18.4-2.144 4.9499-4.2446 9.918-6.36 14.88h-4.36c-2.1341-4.9541-4.2337-9.9226-6.36-14.88-0.46892 5.6739-0.71116 11.369-0.92 18.4h-6.08c0.61669-12.642 1.2396-21.093 2.2-27.72zm44.88 27.72c-1.9571-3.1686-6.1991-8.6704-10.12-11.72v11.72h-6.24v-27.72h6.24v10.48c3.2506-3.4103 6.335-6.9732 9.48-10.48h7.4c-2.2922 2.712-6.5669 7.6069-11.72 12.76 5.4224 4.5078 9.7838 10.787 12.36 14.96zm19.96 0c-3.114-6.6077-7.5036-17.111-11.04-27.72h6.88c4.2647 12.794 6.0822 17.605 7.28 20.36 1.2872-3.1163 3.8779-10.154 7.28-20.36h6.64c-4.7223 13.551-7.8464 20.943-11.04 27.72z" fill="#8f3f71" aria-label="MKV"/>
  <path d="m85.179 197c-0.96038 6.6266-1.5825 15.078-2.1992 27.721h0.16016c0.56695-10.915 1.1611-18.663 2.0391-24.721h5.9609c2.8077 5.364 5.1618 10.948 7.5195 16.52 2.3568-5.5724 4.6672-11.177 7.5195-16.52h5.6797c1.0721 8.2003 1.6034 16.463 2.0391 24.721h0.16211c-0.46781-9.2559-0.99929-18.527-2.2012-27.721h-5.6797c-2.8524 5.3425-5.1628 10.947-7.5195 16.52-2.3577-5.5719-4.7119-11.156-7.5195-16.52zm34.48 0v3h6.2402v-3zm15.721 0c-3.145 3.5068-6.2298 7.0702-9.4805 10.48v3c3.2506-3.4103 6.3355-6.9737 9.4805-10.48h4.8047c1.006-1.145 1.9106-2.1918 2.5938-3zm9.5586 0c0.33433 1.003 0.68348 2.0021 1.0312 3h5.8496c4.2647 12.794 6.0815 17.604 7.2793 20.359 1.2872-3.1163 3.8792-10.153 7.2812-20.359h5.5781c0.34988-0.9852 0.692-1.9424 1.0606-3h-6.6387c-3.4021 10.206-5.9941 17.243-7.2812 20.359-1.1978-2.7549-3.0146-7.5653-7.2793-20.359zm-12.314 14.152c-0.52612 0.53913-1.0172 1.0602-1.5644 1.6074 4.2411 3.5257 7.8176 8.1233 10.414 11.961h1.9453c-2.3221-3.7612-6.1023-9.2242-10.795-13.568z" fill="#282828" opacity=".2"/>
  <path d="m50 37v15h15v-15h-15zm141 0v15h15v-15h-15zm-141 20v15h15v-15h-15zm141 0v15h15v-15h-15zm-96.006 2.9941s0.005847 0.001948 0.005859 0.001953v-0.001953h-0.005859zm0.005859 0.001953v89.998s42.649-18.449 79.949-45.029c0-7e-3 -0.00377-0.01539-0.00977-0.02539-4e-3 -0.011-0.01058-0.02029-0.01757-0.02929l-0.01758-0.02735c-6e-3 -8e-3 -0.00877-0.01929-0.00977-0.02929-39.325-27.419-79.863-44.844-79.895-44.857zm-45 16.504v15h15v-15h-15zm141 0v15h15v-15h-15zm-141 20v15h15v-15h-15zm141 0v15h15v-15h-15zm-141 20.5v15h15v-15h-15zm141 0v15h15v-15h-15zm-141 20v15h15v-15h-15zm141 0v15h15v-15h-15zm-141 20v15h15v-15h-15zm141 0v15h15v-15h-15z" fill="#ebdbb2" opacity=".1" style="paint-order:markers fill stroke"/>
  <path d="m50 35v15h15v-15h-15zm141 0v15h15v-15h-15zm-141 20v15h15v-15h-15zm45 0v90s42.649-18.449 79.949-45.029c0-7e-3 -0.00377-0.015391-0.00977-0.025391-4e-3 -0.010999-0.01058-0.020296-0.01757-0.029296l-0.01758-0.027344c-6e-3 -8e-3 -0.00877-0.019297-0.00977-0.029297-39.325-27.419-79.863-44.846-79.895-44.859zm96 0v15h15v-15h-15zm-141 19.5v15h15v-15h-15zm141 0v15h15v-15h-15zm-141 20v15h15v-15h-15zm141 0v15h15v-15h-15zm-141 20.5v15h15v-15h-15zm141 0v15h15v-15h-15zm-141 20v15h15v-15h-15zm141 0v15h15v-15h-15zm-141 20v15h15v-15h-15zm141 0v15h15v-15h-15z" fill="#8f3f71" style="paint-order:markers fill stroke"/>
  <path d="m50 35v2h15v-2h-15zm141 0v2h15v-2h-15zm-141 20v2h15v-2h-15zm45 0v4.9941c0.0304 0.01306 38.184 16.444 76.369 42.459 1.1943-0.82774 2.395-1.6399 3.5801-2.4844 0-7e-3 -0.00377-0.015391-0.00977-0.025391-4e-3 -0.011-0.01058-0.020296-0.01757-0.029297l-0.01758-0.027343c-6e-3 -8e-3 -0.00877-0.019297-0.00977-0.029297-39.324-27.419-79.864-44.844-79.895-44.857zm96 0v2h15v-2h-15zm-141 19.5v2h15v-2h-15zm141 0v2h15v-2h-15zm-141 20v2h15v-2h-15zm141 0v2h15v-2h-15zm-141 20.5v2h15v-2h-15zm141 0v2h15v-2h-15zm-141 20v2h15v-2h-15zm141 0v2h15v-2h-15zm-141 20v2h15v-2h-15zm141 0v2h15v-2h-15z" fill="#282828" opacity=".2" style="paint-order:markers fill stroke"/>
  <path d="m57 15c-9.9393 0-17 7.0595-17 17v192c0 9.9393 7.0595 17 17 17h142c9.9405 0 17-7.0607 17-17v-192c0-9.9405-7.0607-17-17-17zm4.0332 5h133.93c9.3746 0 16.033 6.7474 16.033 16.248v183.5c0 9.4995-6.6575 16.248-16.033 16.248h-133.93c-9.3757 0-16.033-6.7486-16.033-16.248v-183.5c0-9.5007 6.6586-16.248 16.033-16.248z" fill="url(#linearGradient20)" style="paint-order:markers fill stroke"/>
</svg>
