<svg width="256" height="256" fill="none" version="1.1" viewBox="0 0 256 256" xmlns="http://www.w3.org/2000/svg">
  <path d="m57 15c-9.9393 0-17 7.0595-17 17v192c0 9.9393 7.0595 17 17 17h142c9.9405 0 17-7.0607 17-17v-192c0-9.9405-7.0607-17-17-17z" fill="url(#linearGradient26)" stroke-linecap="round" stroke-linejoin="round" stroke-miterlimit="0" style="paint-order:markers fill stroke"/>
  <defs>
    <linearGradient id="linearGradient26" x1="-160" x2="-160" y2="226" gradientTransform="translate(267,15)" gradientUnits="userSpaceOnUse">
      <stop stop-color="#fe8019" offset="0"/>
      <stop stop-color="#af3a03" offset="1"/>
    </linearGradient>
    <linearGradient id="linearGradient20" x1="128" x2="128" y1="15" y2="241" gradientUnits="userSpaceOnUse">
      <stop stop-color="#ebdbb2" stop-opacity=".2" offset="0"/>
      <stop stop-color="#ebdbb2" stop-opacity=".1" offset=".2027"/>
      <stop stop-opacity="0" offset=".80405"/>
      <stop stop-opacity=".1" offset=".89662"/>
      <stop stop-opacity=".15" offset="1"/>
    </linearGradient>
  </defs>
  <path d="m57 241c-9.9393 0-17-7.0595-17-17v-43h176v43c0 9.9405-7.0607 17-17 17z" fill="#fe8019" opacity=".8" stroke-linecap="round" stroke-linejoin="round" stroke-miterlimit="0" style="paint-order:markers fill stroke"/>
  <path d="m98.5 200c2.8077 5.364 5.1623 10.948 7.52 16.52 2.3568-5.5724 4.6676-11.178 7.52-16.52h5.68c1.2094 9.1922 1.7266 18.466 2.2 27.72h-6.08c-0.20884-7.0309-0.45108-12.726-0.92-18.4-2.1422 4.9507-4.2446 9.918-6.36 14.88h-4.36c-2.1341-4.9541-4.2337-9.9226-6.36-14.88-0.46892 5.6739-0.71116 11.369-0.92 18.4h-6.08c0.6167-12.642 1.2396-21.093 2.2-27.72zm43.68 18.4c0 9.0384-6.2603 9.88-10.04 9.88-2.8555 0.0854-5.5096-0.71748-7.92-2.2l2.08-4.84c1.6547 1.0291 3.4215 1.6208 5.36 1.72 3.1245 0 4.28-1.4992 4.28-4.88v-18.08h6.24zm22.64-11.12c0 3.9935-3.3943 7.3409-6.68 10.4-1.5744 1.4694-4.1216 4.1122-4.4 5.04h11.92v5h-18.48c-0.10889-0.68719-0.08-1.3866-0.08-2.08 0-1.28 0.2-2.4533 0.6-3.52 1.6455-3.9899 5.1388-6.7875 8.2-9.68 1.7851-1.7851 2.84-3.158 2.84-4.76 0-2.6547-1.9104-3.2-3.48-3.2-3.0616 0-5.7219 2.6019-5.92 2.8l-2.96-4.16c1.3686-1.2753 4.6133-3.76 9.12-3.76 7.8006 0 9.32 4.4517 9.32 7.92z" fill="#ebdbb2" opacity=".15" aria-label="MJ2"/>
  <path d="m98.5 197c2.8077 5.364 5.1623 10.948 7.52 16.52 2.3568-5.5724 4.6676-11.178 7.52-16.52h5.68c1.2094 9.1922 1.7266 18.466 2.2 27.72h-6.08c-0.20884-7.0309-0.45108-12.726-0.92-18.4-2.1422 4.9507-4.2446 9.918-6.36 14.88h-4.36c-2.1341-4.9541-4.2337-9.9226-6.36-14.88-0.46892 5.6739-0.71116 11.369-0.92 18.4h-6.08c0.61669-12.642 1.2396-21.093 2.2-27.72zm43.68 18.4c0 9.0384-6.2603 9.88-10.04 9.88-2.8555 0.0854-5.5096-0.71748-7.92-2.2l2.08-4.84c1.6547 1.0291 3.4215 1.6208 5.36 1.72 3.1245 0 4.28-1.4992 4.28-4.88v-18.08h6.24zm22.64-11.12c0 3.9935-3.3943 7.3409-6.68 10.4-1.5744 1.4694-4.1216 4.1122-4.4 5.04h11.92v5h-18.48c-0.10889-0.68719-0.08-1.3866-0.08-2.08 0-1.28 0.2-2.4533 0.6-3.52 1.6455-3.9899 5.1388-6.7875 8.2-9.68 1.7851-1.7851 2.84-3.158 2.84-4.76 0-2.6547-1.9104-3.2-3.48-3.2-3.0616 0-5.7219 2.6019-5.92 2.8l-2.96-4.16c1.3686-1.2753 4.6133-3.76 9.12-3.76 7.8006 0 9.32 4.4517 9.32 7.92z" fill="#af3a03" aria-label="MJ2"/>
  <path d="m155.5 196.36c-4.5067-1e-5 -7.7505 2.4845-9.1191 3.7598l1.3457 1.8926c1.7-1.2412 4.3774-2.6524 7.7734-2.6523 6.595 0 8.6943 3.1822 9.1875 6.2617 0.0831-0.4393 0.13281-0.8862 0.13281-1.3418 0-3.4683-1.5197-7.9199-9.3203-7.9199zm-62.961 0.64062c-0.96038 6.6266-1.5825 15.078-2.1992 27.721h0.16016c0.56695-10.915 1.1611-18.663 2.0391-24.721h5.9609c2.8077 5.364 5.1618 10.948 7.5195 16.52 2.3568-5.5724 4.6672-11.177 7.5195-16.52h5.6816c1.0788 8.1993 1.5997 16.463 2.0371 24.721h0.16211c-0.47335-9.2544-0.98981-18.528-2.1992-27.721h-5.6816c-2.8524 5.3425-5.1628 10.947-7.5195 16.52-2.3577-5.5719-4.7119-11.156-7.5195-16.52zm43.4 0v3h6.2402v-3zm22.498 9.1133c-0.42841 1.0529-1.3019 2.091-2.5371 3.3262-3.0612 2.8925-6.5557 5.6898-8.2012 9.6797-0.4 1.0667-0.59961 2.2415-0.59961 3.5215 0 0.62935-0.0184 1.2631 0.0586 1.8887 0.0836-0.85491 0.25993-1.6606 0.54102-2.4102 1.6455-3.9899 5.1399-6.7872 8.2012-9.6797 1.7851-1.7851 2.8398-3.1578 2.8398-4.7598 0-0.63776-0.11343-1.1504-0.30273-1.5664zm-22.498 8.9668c0 3.3808-1.1548 4.8809-4.2793 4.8809-1.9385-0.0992-3.7047-0.69164-5.3594-1.7207l-2.0801 4.8398c0.34143 0.20999 0.68798 0.40185 1.0391 0.58398l1.041-2.4238c1.6547 1.0291 3.4209 1.6215 5.3594 1.7207 3.1245 0 4.2793-1.5001 4.2793-4.8809zm20.162 4.6406c-1.1398 1.2014-2.1893 2.4267-2.3613 3h11.92v-3z" fill="#282828" opacity=".2"/>
  <path d="m50 37v15h15v-15h-15zm141 0v15h15v-15h-15zm-141 20v15h15v-15h-15zm141 0v15h15v-15h-15zm-96.006 2.9941s0.005847 0.001948 0.005859 0.001953v-0.001953h-0.005859zm0.005859 0.001953v89.998s42.649-18.449 79.949-45.029c0-7e-3 -0.00377-0.01539-0.00977-0.02539-4e-3 -0.011-0.01058-0.02029-0.01757-0.02929l-0.01758-0.02735c-6e-3 -8e-3 -0.00877-0.01929-0.00977-0.02929-39.325-27.419-79.863-44.844-79.895-44.857zm-45 16.504v15h15v-15h-15zm141 0v15h15v-15h-15zm-141 20v15h15v-15h-15zm141 0v15h15v-15h-15zm-141 20.5v15h15v-15h-15zm141 0v15h15v-15h-15zm-141 20v15h15v-15h-15zm141 0v15h15v-15h-15zm-141 20v15h15v-15h-15zm141 0v15h15v-15h-15z" fill="#ebdbb2" opacity=".1" style="paint-order:markers fill stroke"/>
  <path d="m50 35v15h15v-15h-15zm141 0v15h15v-15h-15zm-141 20v15h15v-15h-15zm45 0v90s42.649-18.449 79.949-45.029c0-7e-3 -0.00377-0.015391-0.00977-0.025391-4e-3 -0.010999-0.01058-0.020296-0.01757-0.029296l-0.01758-0.027344c-6e-3 -8e-3 -0.00877-0.019297-0.00977-0.029297-39.325-27.419-79.863-44.846-79.895-44.859zm96 0v15h15v-15h-15zm-141 19.5v15h15v-15h-15zm141 0v15h15v-15h-15zm-141 20v15h15v-15h-15zm141 0v15h15v-15h-15zm-141 20.5v15h15v-15h-15zm141 0v15h15v-15h-15zm-141 20v15h15v-15h-15zm141 0v15h15v-15h-15zm-141 20v15h15v-15h-15zm141 0v15h15v-15h-15z" fill="#af3a03" style="paint-order:markers fill stroke"/>
  <path d="m50 35v2h15v-2h-15zm141 0v2h15v-2h-15zm-141 20v2h15v-2h-15zm45 0v4.9941c0.0304 0.01306 38.184 16.444 76.369 42.459 1.1943-0.82774 2.395-1.6399 3.5801-2.4844 0-7e-3 -0.00377-0.015391-0.00977-0.025391-4e-3 -0.011-0.01058-0.020296-0.01757-0.029297l-0.01758-0.027343c-6e-3 -8e-3 -0.00877-0.019297-0.00977-0.029297-39.324-27.419-79.864-44.844-79.895-44.857zm96 0v2h15v-2h-15zm-141 19.5v2h15v-2h-15zm141 0v2h15v-2h-15zm-141 20v2h15v-2h-15zm141 0v2h15v-2h-15zm-141 20.5v2h15v-2h-15zm141 0v2h15v-2h-15zm-141 20v2h15v-2h-15zm141 0v2h15v-2h-15zm-141 20v2h15v-2h-15zm141 0v2h15v-2h-15z" fill="#282828" opacity=".2" style="paint-order:markers fill stroke"/>
  <path d="m57 15c-9.9393 0-17 7.0595-17 17v192c0 9.9393 7.0595 17 17 17h142c9.9405 0 17-7.0607 17-17v-192c0-9.9405-7.0607-17-17-17zm4.0332 5h133.93c9.3746 0 16.033 6.7474 16.033 16.248v183.5c0 9.4995-6.6575 16.248-16.033 16.248h-133.93c-9.3757 0-16.033-6.7486-16.033-16.248v-183.5c0-9.5007 6.6586-16.248 16.033-16.248z" fill="url(#linearGradient20)" style="paint-order:markers fill stroke"/>
</svg>
