<svg width="256" height="256" fill="none" version="1.1" viewBox="0 0 256 256" xmlns="http://www.w3.org/2000/svg">
  <path d="m57 15c-9.9393 0-17 7.0595-17 17v192c0 9.9393 7.0595 17 17 17h142c9.9405 0 17-7.0607 17-17v-192c0-9.9405-7.0607-17-17-17z" fill="url(#linearGradient26)" stroke-linecap="round" stroke-linejoin="round" stroke-miterlimit="0" style="paint-order:markers fill stroke"/>
  <defs>
    <linearGradient id="linearGradient26" x1="-160" x2="-160" y2="226" gradientTransform="translate(267,15)" gradientUnits="userSpaceOnUse">
      <stop stop-color="#cc241d" offset="0"/>
      <stop stop-color="#cc241d" offset="1"/>
    </linearGradient>
    <linearGradient id="linearGradient20" x1="128" x2="128" y1="15" y2="241" gradientUnits="userSpaceOnUse">
      <stop stop-color="#ebdbb2" stop-opacity=".15" offset="0"/>
      <stop stop-color="#ebdbb2" stop-opacity=".05" offset=".2027"/>
      <stop stop-opacity="0" offset=".80405"/>
      <stop stop-opacity=".1" offset=".89662"/>
      <stop stop-opacity=".15" offset="1"/>
    </linearGradient>
  </defs>
  <path d="m57 241c-9.9393 0-17-7.0595-17-17v-43h176v43c0 9.9405-7.0607 17-17 17z" fill="#fb4934" opacity=".7" stroke-linecap="round" stroke-linejoin="round" stroke-miterlimit="0" style="paint-order:markers fill stroke"/>
  <path d="m93.94 202.96c1.544 5.5115 3.1326 11.014 4.96 16.44 1.611-6.3983 2.7657-12.9 3.88-19.4h6.48c-0.95902 4.7677-3.5295 16.692-7.16 27.72h-5.72c-1.3616-3.7346-2.4335-6.9585-5.32-16.52-1.6632 5.5337-3.2757 11.084-5.24 16.52h-5.72c-3.3422-10.153-5.6177-20.053-7.16-27.72h6.76c0.12837 0.75737 2.0977 12.325 4.04 19.4 1.3269-3.6121 1.5097-4.1845 4.88-16.44zm26.68-2.96c2.8077 5.364 5.1623 10.948 7.52 16.52 2.3568-5.5724 4.6676-11.178 7.52-16.52h5.68c1.2019 9.1934 1.7322 18.464 2.2 27.72h-6.08c-0.20884-7.0309-0.45108-12.726-0.92-18.4-2.144 4.9499-4.2446 9.918-6.36 14.88h-4.36c-2.1311-4.9552-4.2352-9.922-6.36-14.88-0.46892 5.6739-0.71116 11.369-0.92 18.4h-6.08c0.61669-12.642 1.2396-21.093 2.2-27.72zm47.12 2.96c1.544 5.5115 3.1326 11.014 4.96 16.44 1.611-6.3983 2.7657-12.9 3.88-19.4h6.48c-0.95902 4.7677-3.5295 16.692-7.16 27.72h-5.72c-1.3618-3.7352-2.4341-6.9603-5.32-16.52-1.6632 5.5337-3.2757 11.084-5.24 16.52h-5.72c-3.3422-10.153-5.6178-20.053-7.16-27.72h6.76c0.12837 0.75737 2.0977 12.325 4.04 19.4 1.3269-3.6121 1.5097-4.1845 4.88-16.44z" fill="#ebdbb2" opacity=".15" aria-label="WMW"/>
  <path d="m93.94 199.96c1.544 5.5115 3.1326 11.014 4.96 16.44 1.611-6.3983 2.7657-12.9 3.88-19.4h6.48c-0.95902 4.7677-3.5295 16.692-7.16 27.72h-5.72c-1.3616-3.7346-2.4335-6.9585-5.32-16.52-1.6632 5.5337-3.2757 11.084-5.24 16.52h-5.72c-3.3422-10.153-5.6177-20.053-7.16-27.72h6.76c0.12837 0.75737 2.0977 12.325 4.04 19.4 1.3269-3.6121 1.5097-4.1845 4.88-16.44zm26.68-2.96c2.8077 5.364 5.1623 10.948 7.52 16.52 2.3568-5.5724 4.6676-11.178 7.52-16.52h5.68c1.2019 9.1934 1.7322 18.464 2.2 27.72h-6.08c-0.20884-7.0309-0.45108-12.726-0.92-18.4-2.144 4.9499-4.2446 9.918-6.36 14.88h-4.36c-2.1311-4.9552-4.2352-9.922-6.36-14.88-0.46892 5.6739-0.71116 11.369-0.92 18.4h-6.08c0.61669-12.642 1.2396-21.093 2.2-27.72zm47.12 2.96c1.544 5.5115 3.1326 11.014 4.96 16.44 1.611-6.3983 2.7657-12.9 3.88-19.4h6.48c-0.95902 4.7677-3.5295 16.692-7.16 27.72h-5.72c-1.3618-3.7352-2.4341-6.9603-5.32-16.52-1.6632 5.5337-3.2757 11.084-5.24 16.52h-5.72c-3.3422-10.153-5.6178-20.053-7.16-27.72h6.76c0.12837 0.75737 2.0977 12.325 4.04 19.4 1.3269-3.6121 1.5097-4.1845 4.88-16.44z" fill="#9d0006" aria-label="WMW"/>
  <path d="m72.94 197c0.18842 0.93669 0.42385 2.0003 0.63477 3h6.125c0.12837 0.75737 2.0987 12.325 4.041 19.4 1.3269-3.6121 1.5086-4.1839 4.8789-16.439h5.3203c1.544 5.5115 3.1335 11.014 4.9609 16.439 1.611-6.3983 2.7646-12.9 3.8789-19.4h5.8476c0.22698-1.0661 0.48269-2.2537 0.63282-3h-6.4805c-1.1143 6.5-2.2679 13.002-3.8789 19.4-1.8274-5.4256-3.417-10.928-4.9609-16.439h-5.3203c-3.3703 12.256-3.552 12.827-4.8789 16.439-1.9423-7.0754-3.9126-18.643-4.041-19.4zm41.721 0c-0.96038 6.6266-1.5825 15.078-2.1992 27.721h0.16015c0.56695-10.915 1.1612-18.663 2.0391-24.721h5.959c2.8077 5.364 5.1638 10.948 7.5215 16.52 2.3568-5.5724 4.6672-11.177 7.5195-16.52h5.6797c1.0721 8.2003 1.6034 16.463 2.0391 24.721h0.16015c-0.46781-9.2559-0.99734-18.527-2.1992-27.721h-5.6797c-2.8524 5.3425-5.1628 10.947-7.5195 16.52-2.3577-5.5719-4.7138-11.156-7.5215-16.52zm32.08 0c0.18843 0.93675 0.42384 2.0002 0.63477 3h6.125c0.12837 0.75737 2.0968 12.325 4.0391 19.4 1.3269-3.6121 1.5106-4.1839 4.8809-16.439h5.3203c1.544 5.5115 3.1316 11.014 4.959 16.439 1.611-6.3983 2.7666-12.9 3.8809-19.4h5.8457c0.227-1.0662 0.48464-2.2536 0.63477-3h-6.4805c-1.1143 6.5-2.2699 13.002-3.8809 19.4-1.8274-5.4256-3.415-10.928-4.959-16.439h-5.3203c-3.3703 12.256-3.554 12.827-4.8809 16.439-1.9423-7.0754-3.9107-18.643-4.0391-19.4z" fill="#282828" opacity=".2"/>
  <path d="m50 37v15h15v-15h-15zm141 0v15h15v-15h-15zm-141 20v15h15v-15h-15zm141 0v15h15v-15h-15zm-96.006 2.9941s0.005847 0.001948 0.005859 0.001953v-0.001953h-0.005859zm0.005859 0.001953v89.998s42.649-18.449 79.949-45.029c0-7e-3 -0.00377-0.01539-0.00977-0.02539-4e-3 -0.011-0.01058-0.02029-0.01757-0.02929l-0.01758-0.02735c-6e-3 -8e-3 -0.00877-0.01929-0.00977-0.02929-39.325-27.419-79.863-44.844-79.895-44.857zm-45 16.504v15h15v-15h-15zm141 0v15h15v-15h-15zm-141 20v15h15v-15h-15zm141 0v15h15v-15h-15zm-141 20.5v15h15v-15h-15zm141 0v15h15v-15h-15zm-141 20v15h15v-15h-15zm141 0v15h15v-15h-15zm-141 20v15h15v-15h-15zm141 0v15h15v-15h-15z" fill="#ebdbb2" opacity=".1" style="paint-order:markers fill stroke"/>
  <path d="m50 35v15h15v-15h-15zm141 0v15h15v-15h-15zm-141 20v15h15v-15h-15zm45 0v90s42.649-18.449 79.949-45.029c0-7e-3 -0.00377-0.015391-0.00977-0.025391-4e-3 -0.010999-0.01058-0.020296-0.01757-0.029296l-0.01758-0.027344c-6e-3 -8e-3 -0.00877-0.019297-0.00977-0.029297-39.325-27.419-79.863-44.846-79.895-44.859zm96 0v15h15v-15h-15zm-141 19.5v15h15v-15h-15zm141 0v15h15v-15h-15zm-141 20v15h15v-15h-15zm141 0v15h15v-15h-15zm-141 20.5v15h15v-15h-15zm141 0v15h15v-15h-15zm-141 20v15h15v-15h-15zm141 0v15h15v-15h-15zm-141 20v15h15v-15h-15zm141 0v15h15v-15h-15z" fill="#9d0006" style="paint-order:markers fill stroke"/>
  <path d="m50 35v2h15v-2h-15zm141 0v2h15v-2h-15zm-141 20v2h15v-2h-15zm45 0v4.9941c0.0304 0.01306 38.184 16.444 76.369 42.459 1.1943-0.82774 2.395-1.6399 3.5801-2.4844 0-7e-3 -0.00377-0.015391-0.00977-0.025391-4e-3 -0.011-0.01058-0.020296-0.01757-0.029297l-0.01758-0.027343c-6e-3 -8e-3 -0.00877-0.019297-0.00977-0.029297-39.324-27.419-79.864-44.844-79.895-44.857zm96 0v2h15v-2h-15zm-141 19.5v2h15v-2h-15zm141 0v2h15v-2h-15zm-141 20v2h15v-2h-15zm141 0v2h15v-2h-15zm-141 20.5v2h15v-2h-15zm141 0v2h15v-2h-15zm-141 20v2h15v-2h-15zm141 0v2h15v-2h-15zm-141 20v2h15v-2h-15zm141 0v2h15v-2h-15z" fill="#282828" opacity=".2" style="paint-order:markers fill stroke"/>
  <path d="m57 15c-9.9393 0-17 7.0595-17 17v192c0 9.9393 7.0595 17 17 17h142c9.9405 0 17-7.0607 17-17v-192c0-9.9405-7.0607-17-17-17zm4.0332 5h133.93c9.3746 0 16.033 6.7474 16.033 16.248v183.5c0 9.4995-6.6575 16.248-16.033 16.248h-133.93c-9.3757 0-16.033-6.7486-16.033-16.248v-183.5c0-9.5007 6.6586-16.248 16.033-16.248z" fill="url(#linearGradient20)" style="paint-order:markers fill stroke"/>
</svg>
