<svg width="256" height="256" fill="none" version="1.1" viewBox="0 0 256 256" xmlns="http://www.w3.org/2000/svg">
  <path d="m57 15c-9.9393 0-17 7.0595-17 17v192c0 9.9393 7.0595 17 17 17h142c9.9405 0 17-7.0607 17-17v-192c0-9.9405-7.0607-17-17-17z" fill="url(#linearGradient26)" stroke-linecap="round" stroke-linejoin="round" stroke-miterlimit="0" style="paint-order:markers fill stroke"/>
  <defs>
    <linearGradient id="linearGradient26" x1="-160" x2="-160" y2="226" gradientTransform="translate(267,15)" gradientUnits="userSpaceOnUse">
      <stop stop-color="#b8bb26" offset="0"/>
      <stop stop-color="#79740e" offset="1"/>
    </linearGradient>
    <linearGradient id="linearGradient20" x1="128" x2="128" y1="15" y2="241" gradientUnits="userSpaceOnUse">
      <stop stop-color="#ebdbb2" stop-opacity=".3" offset="0"/>
      <stop stop-color="#ebdbb2" stop-opacity=".15" offset=".2027"/>
      <stop stop-opacity="0" offset=".80405"/>
      <stop stop-opacity=".1" offset=".89662"/>
      <stop stop-opacity=".15" offset="1"/>
    </linearGradient>
  </defs>
  <path d="m57 241c-9.9393 0-17-7.0595-17-17v-43h176v43c0 9.9405-7.0607 17-17 17z" fill="#b8bb26" opacity=".6" stroke-linecap="round" stroke-linejoin="round" stroke-miterlimit="0" style="paint-order:markers fill stroke"/>
  <path d="m105.6 228.08c-3.9745 0-6.8192-0.28408-9.24-0.8v-26.88c2.835-0.53155 6.6089-0.72 8.44-0.72 5.7428 0 12.08 1.2536 12.08 7.8 0 2.2133-1.0667 3.96-3.2 5.24 3.0743 1.0716 4.4184 3.479 4.56 6.6 0 6.8145-5.901 8.76-12.64 8.76zm-3.16-12.44v7.16c0.98081 0.11539 2.0707 0.16 3.24 0.16 2.8306-6e-3 5.9596-0.46056 6.24-3.76 0-0.94028-0.0632-3.56-5.56-3.56zm0-4.76h3.04c3.4646 0 5.36-0.71411 5.36-3.12 0-1.4248-0.57021-3.04-5.04-3.04-1.1212 0.0106-2.2423 0.0329-3.36 0.12zm20.8-10.88h6.24v27.72h-6.24zm29 27.72c-1.9571-3.1686-6.1991-8.6704-10.12-11.72v11.72h-6.24v-27.72h6.24v10.48c3.2506-3.4103 6.335-6.9732 9.48-10.48h7.4c-2.2923 2.712-6.5669 7.6069-11.72 12.76 5.4224 4.5078 9.7838 10.787 12.36 14.96z" fill="#ebdbb2" opacity=".15" aria-label="BIK"/>
  <path d="m105.6 225.09c-3.9745 0-6.8192-0.28408-9.24-0.8v-26.88c2.835-0.53155 6.6089-0.72 8.44-0.72 5.7428 0 12.08 1.2536 12.08 7.8 0 2.2133-1.0667 3.96-3.2 5.24 3.0743 1.0716 4.4184 3.479 4.56 6.6 0 6.8145-5.901 8.76-12.64 8.76zm-3.16-12.44v7.16c0.98081 0.11539 2.0707 0.16 3.24 0.16 2.8306-6e-3 5.9596-0.46056 6.24-3.76 0-0.94028-0.0632-3.56-5.56-3.56zm0-4.76h3.04c3.4646 0 5.36-0.71411 5.36-3.12 0-1.4248-0.57021-3.04-5.04-3.04-1.1212 0.0106-2.2423 0.0329-3.36 0.12zm20.8-10.88h6.24v27.72h-6.24zm29 27.72c-1.9571-3.1686-6.1991-8.6704-10.12-11.72v11.72h-6.24v-27.72h6.24v10.48c3.2506-3.4103 6.335-6.9732 9.48-10.48h7.4c-2.2923 2.712-6.5669 7.6069-11.72 12.76 5.4224 4.5078 9.7838 10.787 12.36 14.96z" fill="#79740e" aria-label="BIK"/>
  <path d="m104.8 196.69c-1.8311 0-5.6065 0.18915-8.4414 0.7207v2.9863c2.835-0.53155 6.6103-0.7207 8.4414-0.7207 5.2213 0 10.931 1.0383 11.926 6.1465 0.0947-0.4249 0.1543-0.8657 0.1543-1.332 0-6.5464-6.3373-7.8008-12.08-7.8008zm18.439 0.32031v2.9863h6.2402v-2.9863zm12.641 0v2.9863h6.2383v-2.9863zm15.719 0c-3.145 3.5068-6.2298 7.0702-9.4805 10.48v2.9863c3.2506-3.4103 6.3355-6.9737 9.4805-10.48h4.8164c1.0013-1.1398 1.9033-2.181 2.584-2.9863zm-41.111 9.2656c-0.69689 1.2129-2.4121 1.6152-5.0078 1.6152h-3.041v2.9863h3.041c3.4646 0 5.3594-0.7152 5.3594-3.1211 0-0.49614-0.0727-1.0144-0.35156-1.4805zm5.293 4.5918c-0.5186 0.69585-1.2122 1.316-2.1016 1.8496 2.6405 0.92036 3.9978 2.8292 4.4199 5.3262 0.0908-0.53383 0.14062-1.1032 0.14062-1.7129-0.10373-2.2864-0.85696-4.1871-2.459-5.4629zm33.072 0.29297c-0.51612 0.52863-1.0378 1.0593-1.5742 1.5957 4.2463 3.53 7.8286 8.1341 10.426 11.975h1.9355c-2.3213-3.7598-6.0968-9.2269-10.787-13.57zm-37.285 6.4258c-0.93684 2.0507-3.5143 2.3797-5.8887 2.3848-1.1693 0-2.2594-0.0448-3.2402-0.16016v2.9863c0.98081 0.11539 2.071 0.16016 3.2402 0.16016 2.8306-6e-3 5.9598-0.46228 6.2402-3.7617 0-0.3664-0.0146-0.98732-0.35156-1.6094z" fill="#282828" opacity=".2"/>
  <path d="m50 37v15h15v-15h-15zm141 0v15h15v-15h-15zm-141 20v15h15v-15h-15zm141 0v15h15v-15h-15zm-96.006 2.9941s0.005847 0.001948 0.005859 0.001953v-0.001953h-0.005859zm0.005859 0.001953v89.998s42.649-18.449 79.949-45.029c0-7e-3 -0.00377-0.01539-0.00977-0.02539-4e-3 -0.011-0.01058-0.02029-0.01757-0.02929l-0.01758-0.02735c-6e-3 -8e-3 -0.00877-0.01929-0.00977-0.02929-39.325-27.419-79.863-44.844-79.895-44.857zm-45 16.504v15h15v-15h-15zm141 0v15h15v-15h-15zm-141 20v15h15v-15h-15zm141 0v15h15v-15h-15zm-141 20.5v15h15v-15h-15zm141 0v15h15v-15h-15zm-141 20v15h15v-15h-15zm141 0v15h15v-15h-15zm-141 20v15h15v-15h-15zm141 0v15h15v-15h-15z" fill="#ebdbb2" opacity=".1" style="paint-order:markers fill stroke"/>
  <path d="m50 35v15h15v-15h-15zm141 0v15h15v-15h-15zm-141 20v15h15v-15h-15zm45 0v90s42.649-18.449 79.949-45.029c0-7e-3 -0.00377-0.015391-0.00977-0.025391-4e-3 -0.010999-0.01058-0.020296-0.01757-0.029296l-0.01758-0.027344c-6e-3 -8e-3 -0.00877-0.019297-0.00977-0.029297-39.325-27.419-79.863-44.846-79.895-44.859zm96 0v15h15v-15h-15zm-141 19.5v15h15v-15h-15zm141 0v15h15v-15h-15zm-141 20v15h15v-15h-15zm141 0v15h15v-15h-15zm-141 20.5v15h15v-15h-15zm141 0v15h15v-15h-15zm-141 20v15h15v-15h-15zm141 0v15h15v-15h-15zm-141 20v15h15v-15h-15zm141 0v15h15v-15h-15z" fill="#79740e" style="paint-order:markers fill stroke"/>
  <path d="m50 35v2h15v-2h-15zm141 0v2h15v-2h-15zm-141 20v2h15v-2h-15zm45 0v4.9941c0.0304 0.01306 38.184 16.444 76.369 42.459 1.1943-0.82774 2.395-1.6399 3.5801-2.4844 0-7e-3 -0.00377-0.015391-0.00977-0.025391-4e-3 -0.011-0.01058-0.020296-0.01757-0.029297l-0.01758-0.027343c-6e-3 -8e-3 -0.00877-0.019297-0.00977-0.029297-39.324-27.419-79.864-44.844-79.895-44.857zm96 0v2h15v-2h-15zm-141 19.5v2h15v-2h-15zm141 0v2h15v-2h-15zm-141 20v2h15v-2h-15zm141 0v2h15v-2h-15zm-141 20.5v2h15v-2h-15zm141 0v2h15v-2h-15zm-141 20v2h15v-2h-15zm141 0v2h15v-2h-15zm-141 20v2h15v-2h-15zm141 0v2h15v-2h-15z" fill="#282828" opacity=".2" style="paint-order:markers fill stroke"/>
  <path d="m57 15c-9.9393 0-17 7.0595-17 17v192c0 9.9393 7.0595 17 17 17h142c9.9405 0 17-7.0607 17-17v-192c0-9.9405-7.0607-17-17-17zm4.0332 5h133.93c9.3746 0 16.033 6.7474 16.033 16.248v183.5c0 9.4995-6.6575 16.248-16.033 16.248h-133.93c-9.3757 0-16.033-6.7486-16.033-16.248v-183.5c0-9.5007 6.6586-16.248 16.033-16.248z" fill="url(#linearGradient20)" style="paint-order:markers fill stroke"/>
</svg>
