<svg width="256" height="256" version="1.1" viewBox="0 0 256 256" xmlns="http://www.w3.org/2000/svg">
  <defs>
    <linearGradient id="linearGradient7-6-0-15" x1="186" x2="156" y1="45.006" y2="75.012" gradientTransform="matrix(1.0833,0,0,1.0833,-17.995,-1.2506)" gradientUnits="userSpaceOnUse">
      <stop stop-color="#8ec07c" offset="0"/>
      <stop stop-color="#689d6a" offset=".3027"/>
      <stop stop-color="#427b58" offset="1"/>
    </linearGradient>
    <linearGradient id="linearGradient14-5-3" x1="128" x2="128" y1="15.001" y2="241" gradientTransform="translate(0,4.8e-4)" gradientUnits="userSpaceOnUse">
      <stop stop-color="#ebdbb2" stop-opacity=".2" offset="0"/>
      <stop stop-color="#ebdbb2" stop-opacity=".1" offset=".2"/>
      <stop stop-opacity="0" offset=".70405"/>
      <stop stop-opacity=".05" offset=".80473"/>
      <stop stop-opacity=".1" offset="1"/>
    </linearGradient>
    <linearGradient id="linearGradient21-7" x1="128" x2="128" y1="15.002" y2="241" gradientUnits="userSpaceOnUse">
      <stop stop-color="#427b58" offset="0"/>
      <stop stop-color="#8ec07c" offset="1"/>
    </linearGradient>
  </defs>
  <path d="m57 15c-9.9393 0-17 7.0595-17 17v149h176v-101l-64.998-64.998-94.002-0.001953z" fill="url(#linearGradient21-7)" style="paint-order:markers fill stroke"/>
  <path d="m57 241c-9.9393 0-17-7.0595-17-17v-43h176v43c0 9.9405-7.0607 17-17 17z" fill="#8ec07c" stroke-linecap="round" stroke-linejoin="round" stroke-miterlimit="0" style="paint-order:markers fill stroke"/>
  <path d="m92.8 227.72v-27.72h18.72v5.24h-12.48v5.44h11.08v5.12h-11.08v6.68h13.4v5.24zm44.8-27.72v5.32h-8.36v22.4h-6.24v-22.4h-8.36v-5.32zm25.6 0v5.32h-8.36v22.4h-6.24v-22.4h-8.36v-5.32z" fill="#ebdbb2" opacity=".2" aria-label="ETT"/>
  <path d="m92.8 224.72v-27.72h18.72v5.24h-12.48v5.44h11.08v5.12h-11.08v6.68h13.4v5.24zm44.8-27.72v5.32h-8.36v22.4h-6.24v-22.4h-8.36v-5.32zm25.6 0v5.32h-8.36v22.4h-6.24v-22.4h-8.36v-5.32z" fill="#427b58" aria-label="ETT"/>
  <path d="m92.801 197v3.002h18.719v-3.002zm21.84 0v3.002h22.959v-3.002zm25.6 0v3.002h22.959v-3.002zm-41.201 10.68v3.002h11.08v-3.002zm0 11.801v3.002h13.4v-3.002z" fill="#282828" opacity=".2"/>
  <path d="m70 60v100h116v-100zm10 10h30v20h-30zm40 0h56v20h-56zm-40 30h30v20h-30zm40 0h56v20h-56zm-40 30h30v20h-30zm40 0h56v20h-56z" fill="#ebdbb2" opacity=".15" style="paint-order:markers fill stroke"/>
  <path d="m70 55v100h116v-100zm10 10h30v20h-30zm40 0h56v20h-56zm-40 30h30v20h-30zm40 0h56v20h-56zm-40 30h30v20h-30zm40 0h56v20h-56z" fill="#427b58" style="paint-order:markers fill stroke"/>
  <path d="m70 55v5h116v-5zm10 30v5h30v-5zm40 0v5h56v-5zm-40 30v5h30v-5zm40 0v5h56v-5zm-40 30v5h30v-5zm40 0v5h56v-5z" fill="#32302f" opacity=".2" style="paint-order:markers fill stroke"/>
  <path d="m57 15c-9.9393 0-17 7.0595-17 17v192c0 9.9393 7.0595 17 17 17h142c9.9405 0 17-7.0607 17-17v-144l-65-64.998zm4.0332 4.9902 89.967 2e-3 60 60.009v139.75c0 9.4999-6.6575 16.248-16.033 16.248h-133.93c-9.3757 0-16.033-6.7481-16.033-16.248v-183.51c0-9.501 6.6586-16.25 16.033-16.25z" fill="url(#linearGradient14-5-3)" style="paint-order:markers fill stroke"/>
  <path d="m151 15.002v52.914c0 9.6525 7.8639 17.084 17.518 17.084l47.482-1.34e-4v-5z" fill="#282828" opacity=".3" stroke-width="1.0833"/>
  <path d="m151 15.001v47.916c0 9.6525 7.8639 17.084 17.518 17.084l47.482-1.34e-4z" fill="url(#linearGradient7-6-0-15)" stroke-width="1.0833"/>
</svg>
