<svg width="256" height="256" version="1.1" viewBox="0 0 256 256" xmlns="http://www.w3.org/2000/svg">
  <defs>
    <linearGradient id="linearGradient7-6-0-15" x1="186" x2="156" y1="45.006" y2="75.012" gradientTransform="matrix(1.0833,0,0,1.0833,-17.996,-1.2516)" gradientUnits="userSpaceOnUse">
      <stop stop-color="#8ec07c" offset="0"/>
      <stop stop-color="#689d6a" offset=".3027"/>
      <stop stop-color="#427b58" offset="1"/>
    </linearGradient>
    <linearGradient id="linearGradient14-5-7" x1="128" x2="128" y1="15.001" y2="241" gradientTransform="translate(0,4.8e-4)" gradientUnits="userSpaceOnUse">
      <stop stop-color="#ebdbb2" stop-opacity=".3" offset="0"/>
      <stop stop-color="#ebdbb2" stop-opacity=".15" offset=".2"/>
      <stop stop-opacity="0" offset=".70405"/>
      <stop stop-opacity=".05" offset=".80473"/>
      <stop stop-opacity=".1" offset="1"/>
    </linearGradient>
    <linearGradient id="linearGradient26-1" x1="-160" x2="-160" y2="226" gradientTransform="translate(267,15)" gradientUnits="userSpaceOnUse">
      <stop stop-color="#8ec07c" offset="0"/>
      <stop stop-color="#689d6a" offset="1"/>
    </linearGradient>
  </defs>
  <path d="m57 15c-9.9393 0-17 7.0595-17 17v192c0 9.9393 7.0595 17 17 17h142c9.9405 0 17-7.0607 17-17v-144l-64.999-64.999z" fill="url(#linearGradient26-1)" stroke-linecap="round" stroke-linejoin="round" stroke-miterlimit="0" style="paint-order:markers fill stroke"/>
  <path d="m57 241c-9.9393 0-17-7.0595-17-17v-43h176v43c0 9.9405-7.0607 17-17 17z" fill="#8ec07c" opacity=".7" stroke-linecap="round" stroke-linejoin="round" stroke-miterlimit="0" style="paint-order:markers fill stroke"/>
  <path d="m155.34 199.36c-6.1614-1e-5 -10.199 3.1696-10.199 8.3203 0 5.2449 4.1362 6.9788 7.5996 8.2012 4.6537 1.5512 5.6797 2.6662 5.6797 4.1992 0 1.5155-0.73022 2.8809-4.4805 2.8809-2.6298-0.0534-5.1983-0.44556-7.5195-1.7617l-1.7598 4.9609c3.2306 1.8461 7.2029 2.1191 9.2793 2.1191 4.9504 0 10.92-1.4013 10.92-8.1602 0-5.2318-2.5883-7.0415-8.5195-9.2383-1.9372-0.67649-4.5535-1.295-4.8008-3.6816 0-1.7217 1.282-2.5195 4.2012-2.5195 2.1093 0.0522 4.127 0.52226 6 1.5195l1.7988-4.9199c-1.7893-0.97596-4.4781-1.9199-8.1992-1.9199zm-55.68 0.32031c-4.829 0-8.3851 0.65478-8.5195 0.67969v27c3.3331 0.679 7.4329 0.7207 8.3203 0.7207 5.8544 0 15.959-1.8016 15.959-14.24 0-11.537-8.2532-14.16-15.76-14.16zm29.279 0c-1.8734 0-5.3176 0.13193-8.3203 0.7207v27.32h6.2402v-9.2812h1.9609c12.11 0 12.959-6.11 12.959-9.4394 0-2.8186-0.46101-9.3203-12.84-9.3203zm-28.959 5.3203c3.7697 0 9 0.98681 9 8.8398 0 3.7219-1.407 8.8809-9.2012 8.8809-0.80135 0-1.6012 0.018-2.3984-0.0801v-17.521c0.86445-0.0776 1.731-0.11514 2.5996-0.11914zm29.359 0c4.1679 0 6 1.2418 6 3.9609 0 2.227-0.85296 4.1582-6.5195 4.1582h-1.9609v-8c0.59471-0.0496 1.512-0.11914 2.4805-0.11914z" fill="#ebdbb2" opacity=".15"/>
  <path d="m155.34 196.36c-6.1614-1e-5 -10.199 3.1696-10.199 8.3203 0 5.2449 4.1362 6.9788 7.5996 8.2012 4.6537 1.5512 5.6797 2.6662 5.6797 4.1992 0 1.5155-0.73022 2.8809-4.4805 2.8809-2.6298-0.0534-5.1983-0.44556-7.5195-1.7617l-1.7598 4.9609c3.2306 1.8461 7.2029 2.1191 9.2793 2.1191 4.9504 0 10.92-1.4013 10.92-8.1602 0-5.2318-2.5883-7.0415-8.5195-9.2383-1.9372-0.67649-4.5535-1.295-4.8008-3.6816 0-1.7217 1.282-2.5195 4.2012-2.5195 2.1093 0.0522 4.127 0.52226 6 1.5195l1.7988-4.9199c-1.7893-0.97596-4.4781-1.9199-8.1992-1.9199zm-55.68 0.32031c-4.829 0-8.3851 0.65478-8.5195 0.67969v27c3.3331 0.679 7.4329 0.7207 8.3203 0.7207 5.8544 0 15.959-1.8016 15.959-14.24 0-11.537-8.2532-14.16-15.76-14.16zm29.279 0c-1.8734 0-5.3176 0.13193-8.3203 0.7207v27.32h6.2402v-9.2812h1.9609c12.11 0 12.959-6.11 12.959-9.4394 0-2.8186-0.46101-9.3203-12.84-9.3203zm-28.959 5.3203c3.7697 0 9 0.98681 9 8.8398 0 3.7219-1.407 8.8809-9.2012 8.8809-0.80135 0-1.6012 0.018-2.3984-0.0801v-17.521c0.86445-0.0776 1.731-0.11514 2.5996-0.11914zm29.359 0c4.1679 0 6 1.2418 6 3.9609 0 2.227-0.85296 4.1582-6.5195 4.1582h-1.9609v-8c0.59471-0.0496 1.512-0.11914 2.4805-0.11914z" fill="#427b58"/>
  <path d="m155.34 196.36c-6.1614-1e-5 -10.199 3.1696-10.199 8.3203 0 0.53725 0.0531 1.0293 0.13477 1.4961 0.72065-4.253 4.5304-6.8164 10.064-6.8164 3.1299 0 5.5213 0.66991 7.2696 1.4629l0.92967-2.543c-1.7893-0.97596-4.4781-1.9199-8.1992-1.9199zm-55.68 0.32031c-4.829 0-8.3851 0.65478-8.5195 0.67969v3c0.13446-0.0249 3.6906-0.67969 8.5195-0.67969 7.1622 0 14.999 2.3948 15.703 12.635 0.0332-0.4763 0.0566-0.96292 0.0566-1.4746 0-11.537-8.2532-14.16-15.76-14.16zm29.279 0c-1.8734 0-5.3176 0.13193-8.3203 0.7207v3c3.0027-0.58877 6.447-0.7207 8.3203-0.7207 10.506 0 12.421 4.6782 12.762 7.8184 0.0581-0.53526 0.0781-1.0438 0.0781-1.498 0-2.8186-0.46101-9.3203-12.84-9.3203zm23.156 8.9688c-0.37666 0.39195-0.55664 0.90734-0.55664 1.5508 0.24727 2.3866 2.8636 3.0052 4.8008 3.6816 5.275 1.9537 7.9004 3.6079 8.418 7.6289 0.0612-0.43875 0.10158-0.89606 0.10158-1.3906 0-5.2318-2.5883-7.0415-8.5196-9.2383-1.4671-0.51233-3.322-0.99338-4.2441-2.2324zm-16.975 1.8848c-0.49956 1.4913-2.0347 2.5859-6.3008 2.5859h-1.9609v3h1.9609c5.6666 0 6.5195-1.9312 6.5195-4.1582 0-0.53289-0.0742-1.0066-0.21875-1.4277zm-26.221 4.7793c-0.38198 3.4751-2.3165 7.4082-9.1211 7.4082-0.80135 0-1.6012 0.018-2.3984-0.0801v3c0.79723 0.0981 1.5971 0.0801 2.3984 0.0801 7.7941 0 9.2012-5.159 9.2012-8.8809 0-0.54411-0.0321-1.0472-0.0801-1.5273zm37.52 5.8867-1.7598 4.9609c0.29448 0.16827 0.59949 0.31 0.90429 0.45312l0.85547-2.4141c2.3212 1.3162 4.8898 1.7083 7.5195 1.7617 3.7502 0 4.4805-1.3653 4.4805-2.8809 0-0.50378-0.13141-0.9605-0.44531-1.4043-0.54906 0.76011-1.7099 1.2852-4.0352 1.2852-2.6298-0.0534-5.1983-0.44556-7.5195-1.7617z" fill="#282828" opacity=".2"/>
  <path d="m105 64.795v30.205h30.205c0-16.682-13.523-30.205-30.205-30.205zm-9.7945 9.9486c-16.682 0-30.205 13.523-30.205 30.205s13.523 30.205 30.205 30.205 30.205-13.523 30.205-30.205h-30.205zm49.795 0v15.257h46v-15.257zm0 30.205v15.051h46v-15.051zm-80 45.051v15.36h103.56v-15.36z" color="#ebdbb2" fill="#ebdbb2" opacity=".15" stroke-width="7.5514"/>
  <path d="m105 59.795v30.205h30.205c0-16.682-13.523-30.205-30.205-30.205zm-9.7945 9.9486c-16.682 0-30.205 13.523-30.205 30.205s13.523 30.205 30.205 30.205 30.205-13.523 30.205-30.205h-30.205zm49.795 0v15.257h46v-15.257zm0 30.205v15.051h46v-15.051zm-80 45.051v15.36h103.56v-15.36z" color="#ebdbb2" fill="#427b58" stroke-width="7.5514"/>
  <path d="m105 59.795v5c14.975 0 27.371 10.908 29.758 25.205h0.44727c0-16.682-13.523-30.205-30.205-30.205zm-9.7949 9.9473c-16.682 0-30.205 13.525-30.205 30.207 0 0.84413 0.05904 1.6734 0.12695 2.5 1.2734-15.51 14.24-27.707 30.078-27.707zm49.795 0v5h46v-5zm-49.795 30.207v5h29.758c0.27228-1.6303 0.44727-3.2924 0.44727-5zm49.795 0v5h46v-5zm-80 45.051v5h103.56v-5z" color="#ebdbb2" fill="#282828" opacity=".2" stroke-width="7.5514"/>
  <path d="m57 15c-9.9393 0-17 7.0595-17 17v192c0 9.9393 7.0595 17 17 17h142c9.9405 0 17-7.0607 17-17v-144l-65-64.998zm4.0332 4.9902 89.967 2e-3 60 60.009v139.75c0 9.4999-6.6575 16.248-16.033 16.248h-133.93c-9.3757 0-16.033-6.7481-16.033-16.248v-183.51c0-9.501 6.6586-16.25 16.033-16.25z" fill="url(#linearGradient14-5-7)" style="paint-order:markers fill stroke"/>
  <path d="m151 15.002v52.914c0 9.6525 7.8639 17.084 17.518 17.084l47.482-1.34e-4v-5z" fill="#282828" opacity=".2" stroke-width="1.0833"/>
  <path d="m151 15v47.916c0 9.6525 7.8639 17.084 17.518 17.084l47.482-1.34e-4z" fill="url(#linearGradient7-6-0-15)" stroke-width="1.0833"/>
</svg>
