<svg width="16" height="16" version="1.1" xmlns="http://www.w3.org/2000/svg">
  <defs>
    <style id="current-color-scheme" type="text/css">.ColorScheme-Text { color:#282828; } .ColorScheme-Highlight { color:#458588; }</style>
  </defs>
  <path class="ColorScheme-Text" d="m2 0.99981c-0.554 0-1 0.446-1 1v9c0 0.554 0.446 1 1 1h2.8828l-0.77734 1.5527c-0.24709 0.49403-0.04682 1.0948 0.44726 1.3418 0.49403 0.24709 1.0948 0.04682 1.3418-0.44726l1.2227-2.4473h1.7656l1.2227 2.4473c0.24697 0.49409 0.84777 0.69435 1.3418 0.44726 0.49409-0.24697 0.69435-0.84777 0.44726-1.3418l-0.77734-1.5527h2.8828c0.554 0 1-0.446 1-1v-9c0-0.554-0.446-1-1-1zm1 2h10v7l-2.5143-4.512-1.6836 2.7988-1.3711-1.7988-1.7812 2.4121-1.1797-1.4121-1.4701 2.512zm2.4452 1c-0.55228 0-1 0.44772-1 1s0.44772 1 1 1 1-0.44772 1-1-0.44772-1-1-1z" fill="currentColor"/>
</svg>
