<svg width="16" height="16" version="1.1" xmlns="http://www.w3.org/2000/svg">
  <defs>
    <style type="text/css" id="current-color-scheme">.ColorScheme-Text { color:#282828; } .ColorScheme-Highlight { color:#458588; }</style>
  </defs>
  <path class="ColorScheme-Text" fill="currentColor" d="m13.37 1.307-2.128 4.001c0.1927 0.06636 1.09 0.468 2.189 0.9718l1.55-4.29c0.2192-0.7712-1.156-1.378-1.611-0.6826zm-11.24 1.693c-0.6187 0-1.121 0.5021-1.121 1.121 0 0.6178 0.5021 1.121 1.121 1.121 0.6178 0 1.121-0.503 1.121-1.121 0-0.6187-0.503-1.121-1.121-1.121zm2.521 0.8404c-0.3093 0-0.56 0.2506-0.56 0.56 0 0.3102 0.2506 0.5608 0.56 0.5608 0.3093 0 0.5608-0.2506 0.5608-0.5608 0-0.3093-0.2515-0.56-0.5608-0.56zm3.991 2.587c0.2112 0.3567 0.581 0.7904 1.103 0.7799 0.1367-0.0035 0.255 0.09289 0.2795 0.227 0.1069 0.1656 0.7589 0.4592 0.9455 0.3856 0.1666-0.06553 0.3495 0.04803 0.3768 0.2103 0.0423 0.1691 0.615 0.5204 0.8842 0.3847 0.1558-0.07588 0.3309 0.01709 0.3856 0.149 0.1893 0.4618 1.053 0.496 1.646 0.4469 0.2002-1.259-0.5182-1.889-1.558-2.452-2.867-1.5-3.626-0.7431-4.063-0.1314zm-4.411-0.6263c-0.8509 8.764e-4 -1.54 0.6905-1.541 1.541 0 0.8492 0.6923 1.541 1.541 1.541s1.541-0.6923 1.541-1.541-0.6914-1.541-1.541-1.541zm4.113 1.187c-0.08588 0.2007-0.1823 0.3961-0.2892 0.5862 0.1209 0.2936 0.4767 0.9736 1.13 0.8237 0.1283-0.0332 0.2995 0.02624 0.333 0.2182 0.0184 0.1052 0.142 0.2296 0.3155 0.3242 0.2445 0.1323 0.51 0.1621 0.6213 0.1139 0.1515-0.0702 0.3299 0.01308 0.3759 0.1753 0.03944 0.1332 0.1779 0.2699 0.368 0.3672 0.2243 0.1139 0.4811 0.1551 0.6476 0.0964 0.1288-0.04557 0.2708 0.01052 0.333 0.1314 0.2471 0.4583 1.06 0.5074 1.69 0.4636 0.07974-0.227 0.1542-0.4618 0.2278-0.7089-0.5319 0.03091-1.454-0.00895-1.874-0.5863-0.5202 0.06936-1.104-0.2813-1.322-0.6046-0.3567 0-0.7668-0.198-0.9709-0.3234-0.1595-0.09727-0.283-0.1937-0.3593-0.2979-0.5657-0.05601-0.8547-0.4076-1.226-0.779zm-0.6388 1.138c-1.737 2.413-4.702 2.342-4.736 2.337-0.2428-0.01905-0.3967 0.2641-0.2454 0.4557 0.4723 0.5819 1.003 1.113 1.584 1.585 0.2585 0.05082 1.884 0.2804 3.494-1.585 0.2331-0.2712 0.6625 0.08527 0.4198 0.3681-1.123 1.301-2.306 1.708-3.134 1.795 0.6406 0.4303 1.324 0.7939 2.039 1.086 0.4145-0.08676 1.802-0.5012 3.029-2.373 0.2101-0.3152 0.6764-0.0033 0.4732 0.3067-0.9263 1.41-1.939 2.072-2.653 2.381 1.457 0.4723 2.544 0.5174 2.636 0.5209 0.02584 0 0.08808-4e-3 0.1578-0.04773 0.07799-0.04908 1.7-1.108 2.889-4.089-0.04644 8.76e-4 -0.09377 0.0088-0.1402 0.0088-0.6134 0-1.322-0.1236-1.708-0.6038-0.2708 0.03241-0.5819-0.02981-0.8658-0.1753-0.2322-0.1192-0.4163-0.2787-0.5346-0.4636-0.298 0.02454-0.6195-0.08237-0.8404-0.2016-0.2278-0.1236-0.4057-0.2795-0.5083-0.4557-0.6441 0.03418-1.092-0.4049-1.356-0.8492z"/>
</svg>
