<svg width="16" height="16" version="1.1" xmlns="http://www.w3.org/2000/svg">
  <defs>
    <style id="current-color-scheme" type="text/css">.ColorScheme-Text { color:#282828; } .ColorScheme-Highlight { color:#458588; }</style>
  </defs>
  <path class="ColorScheme-Text" d="m6.361 6.385c0.01488-0.05775 0.02275-0.1172 0.02275-0.1794v-4.488c0-0.3955-0.322-0.7175-0.7175-0.7175h-0.7184c-0.3964 0-0.7184 0.322-0.7184 0.7175v4.488c0 0.06212 0.00788 0.1216 0.02275 0.1794h-0.9205c-0.3955 0-0.7175 0.3211-0.7175 0.7175v7.18c0 0.3955 0.322 0.7175 0.7175 0.7175h9.336c0.3955 0 0.7175-0.322 0.7175-0.7175v-7.18c0-0.3964-0.322-0.7175-0.7175-0.7175h-0.9205c0.01488-0.05775 0.02275-0.1172 0.02275-0.1794v-4.488c0-0.3955-0.322-0.7175-0.7184-0.7175h-0.7184c-0.3955 0-0.7175 0.322-0.7175 0.7175v4.488c0 0.06212 0.00788 0.1216 0.02275 0.1794z" fill="currentColor"/>
</svg>
