<svg width="16" height="16" version="1.1" xmlns="http://www.w3.org/2000/svg">
  <defs>
    <style type="text/css" id="current-color-scheme">.ColorScheme-Text { color:#282828; } .ColorScheme-Highlight { color:#458588; }</style>
  </defs>
  <path class="ColorScheme-Text" d="m6.322 3.079c-2.167-0.00229-3.751 1.659-4.763 3.595-1.319 2.522-2.711 6.249-0.02514 6.249 2.827 0 5.177-1.569 6.838-2.755 0.6023 1.099 1.48 2.755 2.705 2.755 1.225 0 2.342-0.4823 2.888-0.912l2.035-2.834-0.2206-0.2537c-2.576 1.277-3.455 2.154-4.903-0.6011l1.827-1.68 2.683-3.321-0.1977-0.2446-4.827 4.227c-0.1159-0.24-0.2499-0.5016-0.3995-0.7731-0.8594-1.56-2.233-3.45-3.642-3.451m-1.807 2.09c1.534 0 2.434 2.261 3.337 3.935-1.331 0.7566-3.071 1.69-4.345 1.43-1.511-0.3097-1.896-1.89-1.287-3.078 0.5394-1.112 1.201-2.286 2.293-2.286" fill="currentColor"/>
</svg>
