<svg width="16" height="16" version="1.1" xmlns="http://www.w3.org/2000/svg">
  <defs>
    <style id="current-color-scheme" type="text/css">.ColorScheme-Text { color:#282828; } .ColorScheme-Highlight { color:#458588; }</style>
  </defs>
  <path class="ColorScheme-Text" d="m6.082 4.229 1.261-3.229h1.312l3.525 9.024c-0.6714 0.434-1.479 0.7122-2.324 0.8703l-1.858-4.645-2.019 5.048c0.6313 0.131 1.311 0.2023 2.019 0.2023 3.32 0 6.016-1.568 6.016-3.5 0-1.063-0.8164-2.016-2.104-2.658-0.1205 0.1556-0.309 0.2559-0.5209 0.2559-0.3632 0-0.6582-0.295-0.6582-0.6582 0-0.3634 0.295-0.6583 0.6582-0.6583 0.3389 0 0.6184 0.2567 0.6543 0.5862 1.788 0.793 2.955 2.097 2.955 3.57 0 1.253-0.8441 2.383-2.196 3.181-0.6994 0.4236-1.482 0.7174-2.295 0.9043-0.7791 0.1872-1.625 0.2898-2.509 0.2898s-1.73-0.1026-2.509-0.2898l-0.9909 2.477h-2.625l1.321-3.382c-1.352-0.7978-2.196-1.928-2.196-3.181 0-1.999 2.15-3.687 5.082-4.208zm8.042 10.77h-2.625l-0.8247-2.062c0.8042-0.1971 1.579-0.4937 2.29-0.9069zm-8.235-10.28c-2.28 0.4976-3.906 1.778-3.906 3.278 0 0.9406 0.639 1.795 1.678 2.424z" fill="currentColor"/>
</svg>
