<svg width="16" height="16" version="1.1" xmlns="http://www.w3.org/2000/svg">
  <defs>
    <style type="text/css" id="current-color-scheme">.ColorScheme-Text { color:#282828; } .ColorScheme-Highlight { color:#458588; }</style>
  </defs>
  <path class="ColorScheme-Text" fill="currentColor" d="m4.528 14.97c-0.3216-0.09133-0.4827-0.4108-0.4323-0.7279-0.02729-0.5042 0.02591-1.023 0.2699-1.475 0.3344-0.6787 0.918-1.202 1.554-1.594 0.2214 0.0644 0.4364 0.2164 0.6647 0.2934 0.2678 0.116 0.5502 0.2028 0.8227 0.3-0.2203 0.1587-0.5135 0.2235-0.7109 0.4137 0.6721 0.03009 1.346 0.01301 2.019 0.0175 0.3655 0.1875 0.6876 0.444 0.9966 0.7122-1.292 0.0076-2.585 0.01516-3.877 0.02275-0.1183 0.1886-0.2311 0.3856-0.2879 0.602 1.495 0.03424 2.991 0.01876 4.486 0.01218 0.1805-0.01575 0.5682 0.07604 0.3492-0.2176-0.3687-0.8118-1.178-1.312-1.986-1.61-0.7357-0.2437-1.504-0.411-2.188-0.7908-0.8656-0.4708-1.678-1.178-1.997-2.138-0.1544-0.4679-0.1495-0.9828-0.03625-1.459 0.2646-0.8988 0.9633-1.615 1.756-2.079 0.4738 0.2243 0.9541 0.4402 1.459 0.5862-0.1164 0.1427-0.4389 0.2146-0.6192 0.3561-0.1667 0.07316-0.04693 0.06904 0.06934 0.06586 0.6246 0.00693 1.249 0.01386 1.874 0.02079 0.3378 0.1848 0.6655 0.3987 0.9363 0.6743-0.1181 0.108-0.5158 0.02995-0.7453 0.05748-1.027 0.0055-2.055 0.00242-3.082 0.00323-0.1017 0.1964-0.2449 0.3883-0.2642 0.6116 1.295 0.03848 2.592 0.01918 3.887 0.01834 0.3313-0.00552 0.6633 0.0013 0.994-0.01921-0.05823-0.3477-0.2938-0.6483-0.5319-0.9003-0.6341-0.6379-1.5-0.9691-2.357-1.179-1.192-0.3482-2.374-0.9855-3.052-2.063-0.2376-0.3828-0.407-0.8201-0.3949-1.277 0.01169-0.279-0.06843-0.578 0.0401-0.843 0.2382-0.4361 0.9265-0.492 1.225-0.09022 0.1941 0.09172 0.00752 0.4739 0.219 0.4481h4.919c-0.05049-0.3697 0.2724-0.697 0.6311-0.7203 0.37-0.03819 0.8162 0.2483 0.77 0.6568-0.01237 0.4868 0.01703 0.9962-0.2057 1.446-0.3262 0.7379-0.9378 1.315-1.615 1.733-0.3073-0.09963-0.5875-0.2759-0.8951-0.3805-0.2059-0.08304-0.4174-0.1508-0.63-0.2145 0.2619-0.1249 0.5264-0.2469 0.7708-0.4042-0.6828-0.007583-1.366-0.01517-2.048-0.02275-0.3699-0.1856-0.6841-0.4574-0.9975-0.7236 1.294-0.007583 2.589-0.01517 3.883-0.02275 0.1202-0.1825 0.229-0.3778 0.2826-0.5906-0.4227-0.05037-0.8566-0.0184-1.283-0.03061-1.19 0.0047-2.381-0.0154-3.571 0.01702-0.09788 0.159 0.1649 0.4822 0.2738 0.6612 0.6119 0.7632 1.551 1.172 2.48 1.398 1.138 0.3095 2.256 0.8902 2.983 1.842 0.6729 0.8256 0.7575 2.067 0.2057 2.977-0.3524 0.5976-0.898 1.053-1.472 1.428-0.472-0.2507-0.9716-0.4494-1.48-0.6091 0.2106-0.1504 0.5277-0.223 0.6907-0.4107-0.6635-0.03863-1.33-0.01342-1.995-0.02052-0.3659-0.1876-0.689-0.4436-0.9975-0.7131 1.291-0.007583 2.582-0.01517 3.873-0.02275 0.1256-0.1833 0.2335-0.3828 0.2922-0.5976-0.9607-0.04065-1.924-0.01757-2.886-0.02419-0.6735 0.00442-1.347-0.0031-2.021 0.01894 0.1627 0.58 0.615 1.039 1.116 1.35 0.8225 0.5818 1.862 0.657 2.758 1.076 0.8656 0.3987 1.685 0.9976 2.161 1.84 0.2597 0.4564 0.3542 0.9858 0.3239 1.506 0.0091 0.2685 0.0032 0.589-0.2742 0.7279-0.3778 0.23-1.021 0.09024-1.11-0.3931-0.01795-0.1125 0.0058-0.2633-0.1556-0.2106h-4.861c-0.00732 0.259-0.1152 0.5338-0.3702 0.6406-0.1877 0.07768-0.4106 0.0866-0.6071 0.03929z"/>
</svg>
