<svg width="16" height="16" version="1.1" xmlns="http://www.w3.org/2000/svg">
  <defs>
    <style type="text/css" id="current-color-scheme">.ColorScheme-Text { color:#282828; } .ColorScheme-Highlight { color:#458588; }</style>
  </defs>
  <path class="ColorScheme-Text" d="m7.81 14.96c-1.576-0.2045-3.011-1.248-3.68-2.691-0.8578-1.756-0.4844-4.039 0.9281-5.401 0.1958-0.1974 0.4032-0.3833 0.6275-0.5479 1.207 0.1653 2.47-0.08422 3.508-0.726 0.2967-0.1315 0.6094 0.07949 0.8992 0.1484 1.393 0.5058 2.52 1.698 2.931 3.124 0.217 0.7117 0.2379 1.475 0.1236 2.207-0.2851 1.65-1.506 3.096-3.088 3.649-0.7146 0.2575-1.496 0.3262-2.248 0.2386zm2.48-0.5228c1.122-0.4634 2.045-1.4 2.45-2.548 0.1439-0.3746 0.2524-0.7631 0.3195-1.159-0.282-0.07681-0.5731-0.1078-0.8645-0.1202-0.02129-0.4497-0.04246-0.8992-0.06359-1.349 0.2796-0.04084 0.5617-0.1649 0.7623-0.3657-0.29-0.8649-0.7994-1.669-1.525-2.233-0.5966-0.4817-1.315-0.7821-2.05-0.9807-0.3067 0.3412-0.4053 0.8362-0.293 1.276-0.57 0.3648-1.14 0.7296-1.71 1.095-0.4289-0.3682-1.002-0.5909-1.571-0.5006-0.8904 0.1227-1.553 0.8974-1.791 1.729-0.1748 0.5934-0.1687 1.242 0.005775 1.834 0.242 0.7967 0.8676 1.536 1.717 1.691 0.7933 0.1623 1.596-0.2877 2.022-0.9456 0.1147-0.1349 0.1812-0.4667 0.3934-0.2272 0.5282 0.3069 1.053 0.619 1.58 0.929-0.1451 0.6069-0.04941 1.254 0.2413 1.804 0.06743 0.2498 0.2118 0.1394 0.3778 0.07339zm0.1327-0.2967c-0.1644-0.1915 0.2406-0.2177 0.3771-0.302 0.1528-0.01534 0.1714-0.1225 0.1475-0.2567-0.01871-0.2718-0.4033-0.09982-0.5849-0.1709-0.1763 0.04072-0.1351-0.1242-0.1302-0.2451 0.04943-0.6724 0.4353-1.292 0.9736-1.685 0.1931 0.1263 0.2928 0.4359 0.4469 0.6312 0.19 0.08574 0.4734-0.1098 0.3222-0.348 0.0036-0.2232-0.2508-0.7038 0.1573-0.6133 0.1832 0.04848 0.6915-0.1414 0.5823 0.1785-0.2312 1.014-0.8336 1.935-1.683 2.539-0.1743 0.09087-0.3823 0.3311-0.5586 0.3256-0.0156-0.01577-0.03751-0.04224-0.05063-0.05253zm-1.552-2.194c-0.2965-0.1875-0.6171-0.3408-0.8948-0.5553 0.0712-0.2834 0.182-0.5957 0.2038-0.9035 0.0851-0.8255-0.1744-1.688-0.7312-2.308 0.1512-0.2176 0.462-0.3283 0.6782-0.4962 0.3078-0.1919 0.6088-0.3979 0.9307-0.5653 0.3702 0.957 1.187 1.744 2.166 2.066 0.2519 0.08446 0.5183 0.1028 0.7821 0.09596 0.02221 0.4449 0.04244 0.8904 0.06161 1.335-0.7154 0.06555-1.404 0.4049-1.865 0.9614-0.2239 0.2458-0.3588 0.5621-0.5023 0.8521-0.2797-0.1529-0.5553-0.324-0.829-0.4811zm-3.344 0.2375c-0.2792-0.05887-0.5726-0.2307-0.4263-0.5594 0.0162-0.1224 0.03218-0.2449 0.04827-0.3675-0.1289-0.125-0.3065-0.2877-0.3628-0.008586-0.06608 0.2142-0.2109 0.3597-0.2924 0.06888-0.3204-0.6058-0.391-1.354-0.1536-1.998 0.1829 0.05931 0.3783 0.222 0.4725-0.05667 0.1111-0.177-0.08259-0.3598-0.1361-0.5331 0.0132-0.1587 0.2358-0.2899 0.3557-0.3999 0.4042-0.2887 0.9921-0.3826 1.427-0.111-0.04247 0.1783-0.1855 0.3372-0.2783 0.5029-0.1284 0.1251 0.1341 0.2201 0.1917 0.3131 0.213-0.1197 0.4135-0.2606 0.6194-0.3922 0.2463 0.2882 0.3902 0.6608 0.4625 1.03 0.04294 0.4145 0.06385 0.8508-0.08074 1.249-0.2688-0.06962-0.5134-0.2115-0.7775-0.2965-0.2919 0.2025-0.1675 0.4415 0.08047 0.596 0.1706 0.1623 0.5125 0.3752 0.1746 0.5632-0.2961 0.2967-0.7138 0.4673-1.135 0.4221-0.06347-3e-3 -0.1276-0.0085-0.1892-0.02146zm5.94-3.419c-0.59-0.09982-1.133-0.4594-1.457-0.9605 0.1878-0.1565 0.7532-0.2403 0.3965-0.537-0.2304-0.1961-0.7086 0.2039-0.8248-0.1712-0.09999-0.2788-0.1098-0.6133 0.009806-0.8869 0.06287-0.1249 0.1459-0.2371 0.2816-0.1344 1.069 0.3583 1.967 1.169 2.448 2.187 0.1462 0.1428 0.2166 0.5497-0.08108 0.4122-0.09202-0.1466-0.1591-0.3073-0.2388-0.4607-0.08825 0.00855-0.2293-0.03502-0.287 0.00361 0.01114 0.1907 0.0223 0.3813 0.03345 0.572-0.09394-9.736e-4 -0.189-0.01231-0.28-0.02502zm-5.355-2.652c-0.453-0.05436-0.9105-0.1244-1.34-0.2812-0.1957-0.213-0.1095-0.5511-0.1317-0.8198 0.03079-0.292 0.06759-0.7466 0.2787-0.9018 0.5399 0.1131 1.097 0.08292 1.643 0.05407-0.2527 0.2732-0.2741 0.7496 0.01406 1.009 0.3128 0.322 0.907 0.2177 1.093-0.1903 0.1895-0.3471 0.01787-0.8249-0.3561-0.9614 0.5749-0.1658 1.176-0.3305 1.641-0.725 0.407 0.3874 0.6896 0.8983 0.7919 1.451-0.1185 0.1731-0.3236 0.3045-0.4862 0.4462-0.7939 0.626-1.81 0.936-2.816 0.9246-0.1106 0.0012-0.2239 0.00538-0.3326-0.00602zm2.594-1.048c0.3619-0.2083 0.00498-0.7961-0.3479-0.5611-0.3294 0.1812-0.06928 0.734 0.2779 0.5945 0.00354-0.0199 0.0712-0.00655 0.07006-0.03352zm-3.423-1.016c-0.101-0.0408-0.4527-0.003093-0.3009-0.1679 0.0943-0.3257 0.4399-0.09544 0.672-0.1379 0.6363 0.03549 1.283-0.0119 1.885-0.2363 0.3686-0.1203 0.7115-0.303 1.042-0.5036 0.1112 0.08781 0.4115 0.2192 0.1353 0.3189-0.6372 0.4097-1.394 0.5854-2.136 0.6929-0.4291 0.04327-0.8716 0.06514-1.297 0.03391zm0.3656-0.9167c0.2102-0.2009 0.5523-0.2628 0.7368-0.4487-0.01551-0.2092-0.0514-0.4162-0.07928-0.624 0.2414-0.04292 0.1052 0.4332 0.2071 0.6015 0.3245 0.0864 0.05486-0.4443 0.06771-0.632-0.05043-0.3442-0.1396-0.689-0.1622-1.033 0.2082-3.428e-4 0.1247 0.4548 0.2073 0.6227 0.05737 0.3342 0.1147 0.6686 0.1721 1.003 0.323-0.00275 0.6571-0.03534 0.9693 0.05796-0.1861 0.1849-0.4649 0.2738-0.7123 0.3647-0.4771 0.1571-0.9833 0.1565-1.48 0.1512 0.02399-0.02111 0.05095-0.041 0.07325-0.06284z" fill="currentColor"/>
</svg>
