<svg width="16" height="16" version="1.1" xmlns="http://www.w3.org/2000/svg">
  <defs>
    <style id="current-color-scheme" type="text/css">.ColorScheme-Text { color:#282828; } .ColorScheme-Highlight { color:#458588; }</style>
  </defs>
  <path class="ColorScheme-Text" d="m13.91 1c-0.2133 0.01782-0.4272 0.1252-0.5995 0.2917l-3.856 3.354c-0.1664 0.1608-0.2593 0.387-0.2593 0.6158-0.01029 0.1131 0.04367 0.2183 0.06484 0.3241-0.1426 0.3052-0.09723 0.7319-0.09723 1.653 0 0.3394-0.8825 0.6968-1.102 0.6968-0.1728-0.0021-2.92-0.01814-3.711 1.069-0.7018 0.9655-3.338 5.352-3.338 5.995 1.053 0 8.698-3.821 9.09-4.181 0.4745-0.4352 0.2418-1.311-0.06483-1.896 0.0019-0.00271-9.32e-4 -0.01295 0-0.01621 0.0084-0.02112 0.01101-0.05154-0.01623-0.09723-0.1644-0.2757-0.2593-0.5536-0.2593-0.9398 0-0.8586 0.09013-1.332 0.2755-1.604 0.414 0.07147 1.013-0.1311 1.28-0.3889l3.387-3.225c0.3446-0.3331 0.4258-0.8336 0.08099-1.167l-0.2755-0.2755c-0.1722-0.1664-0.3863-0.2285-0.5995-0.2106z" fill="currentColor"/>
</svg>
