<svg width="16" height="16" version="1.1" xmlns="http://www.w3.org/2000/svg">
  <defs>
    <style id="current-color-scheme" type="text/css">.ColorScheme-Text { color:#282828; } .ColorScheme-Highlight { color:#458588; }</style>
  </defs>
  <path class="ColorScheme-Text" d="m11.81 1.002c-2.478 0.06213-4.84 2.127-6.545 3.523-0.6116 0.5005-1.512 1.509-1.469 1.551 0.042 0.042 0.9485-0.6991 1.394-1.06 2.034-1.642 4.371-2.569 5.956-2.566 0.5906 0.00175 1.46 0.3491 1.828 0.7656 0.4191 0.4769 0.5556 0.8435 0.5653 1.927 0.0062 0.6064-0.2695 1.502-0.1978 1.457 0.175-0.1068 0.8549-2.111 0.9363-2.886 0.1234-1.171-0.4716-2.377-1.398-2.608-0.357-0.0805-0.7158-0.1129-1.069-0.1033zm-8.593 0.6983c-0.4795-0.005245-0.8619 0.07263-1.166 0.2424-3 1.951 1.169 7.405 2.856 9.091 0.4279 0.42 1.311 1.169 1.363 1.169 0.0525 0-0.8558-1.016-1.418-1.762-1.593-2.113-2.476-4.099-2.439-5.583 0.021-0.8461 0.3185-1.53 0.9065-1.98 0.35-0.2678 0.763-0.5854 1.624-0.4813l1.65 0.3596c-1.006-0.6274-2.104-1.023-3.377-1.053zm6.5 2.1c-0.0525 0 0.8558 1.016 1.418 1.762 1.593 2.113 2.476 4.099 2.439 5.583-0.021 0.8461-0.3185 1.53-0.9065 1.98-0.35 0.2678-0.763 0.5854-1.624 0.4813l-1.65-0.3596c1.006 0.6274 2.104 1.023 3.377 1.053 0.4795 0.0052 0.8619-0.07262 1.166-0.2424 3-1.951-1.169-7.405-2.856-9.091-0.4279-0.42-1.311-1.169-1.363-1.169zm-1.724 2.8c-0.7735 0-1.4 0.6265-1.4 1.4s0.6265 1.4 1.4 1.4 1.4-0.6265 1.4-1.4-0.6265-1.4-1.4-1.4zm-5.347 2.802c-0.175 0.1068-0.8549 2.111-0.9363 2.886-0.1234 1.171 0.4716 2.377 1.398 2.608 0.357 0.0805 0.7158 0.1129 1.069 0.1033 2.478-0.06212 4.84-2.127 6.545-3.523 0.6116-0.5005 1.512-1.509 1.469-1.551-0.042-0.042-0.9485 0.6991-1.394 1.06-2.034 1.642-4.371 2.569-5.956 2.566-0.5906-8.75e-4 -1.46-0.3491-1.828-0.7656-0.4191-0.4769-0.5556-0.8435-0.5653-1.927-0.006125-0.6064 0.2695-1.502 0.1978-1.457z" fill="currentColor"/>
</svg>
