<svg width="16" height="16" version="1.1" xmlns="http://www.w3.org/2000/svg">
  <defs>
    <style id="current-color-scheme" type="text/css">.ColorScheme-Text { color:#282828; } .ColorScheme-Highlight { color:#458588; }</style>
  </defs>
  <path class="ColorScheme-Text" d="m6.5042 1.375c-0.15991 0.56701 0.22098 1.3762 0.054688 2.291-0.1001 0.68098-0.4981 1.3913-0.64844 2.1465-0.92141-1.2859-2.299-2.1616-3.4707-2.0508-0.16248 0.015367-0.80236 0.19213-0.5293 0.5918 1.2596 1.3041-1.0159 4.03 3.0039 4.8965-2.2475 1.3136-1.9542 3.0902-1.7676 3.7051 0.22176 0.73075 0.59202 0.94998 0.87305 0.57422 0.94839-1.1079 1.2432-0.35567 2.7109-1.6484 0.06283-0.05534 0.12138-0.11243 0.17578-0.17188 0.21865 1.7651 1.8072 2.4335 3.5195 3.2305 0.31742 0.1396 0.51785 0.03803 0.56055-0.32422 0.01939-0.15237-0.0023-1.7184-0.52344-3.1562 1.0071 0.85559 1.5895 1.3746 2.6914 0.79297 0.23875-0.12603 0.55091 0.21513 0.76953 0.06055 0.28488-0.20144 0.22536-0.57296 0.07813-0.91406-0.3788-0.87751-0.89354-1.9403-3.2188-2.5098 0.21176-0.08315 0.43318-0.19348 0.66406-0.33398 2.0543-1.2501 1.4367-2.1014 2.6211-4.4707 0.2056-0.41129 0.04352-0.68336-0.41602-0.79297-1.6946-0.43119-4.1615 2.0135-4.3125 2.1855 0.15272-1.4709-0.30296-3.5534-2.0938-4.3691-0.30432-0.13558-0.60304-0.2259-0.74219 0.26758zm0.24219 4.625c1.6411-0.12286 4.1046 1.4701 3.7207 3.8027-0.076185 0.45873-0.28256 0.84212-0.34382-0.02153-0.11246-1.1915-0.62686-1.8098-1.0156-2.1679-0.87587-0.81674-1.6117-0.98142-2.1621-0.98633-1.2877-0.01171-1.2296 1.5477-0.49023 2.4844 1.5268 1.9343 3.5813 1.3332 2.0783-0.64447-0.59181-0.77856-1.3788-0.91755-1.2229-0.20709 0.10503 0.47864 0.49193 0.82035 0.72461 0.91992 0.27299 0.098 0.076506-0.29897-0.037109-0.44336-0.10818-0.16734-0.035179-0.25217 0.1543-0.11328 0.74774 0.59759 0.56298 1.2066-0.26953 1.0762-0.33713-0.0528-1.0244-0.42207-1.2168-1.2988-0.075209-0.34298-0.12264-1.0299 0.56021-1.2103 0.83891-0.22166 1.5467 0.61065 1.7738 0.90949 0.57104 0.75145 1.1164 2.2257 0.18555 2.75-1.2842 0.72331-3.1289-1.1961-3.25-1.3301-1.1601-1.5432-0.74387-3.4032 0.81054-3.5195z" fill="currentColor"/>
</svg>
