<svg width="16" height="16" version="1.1" xmlns="http://www.w3.org/2000/svg">
  <defs>
    <style type="text/css" id="current-color-scheme">.ColorScheme-Text { color:#282828; } .ColorScheme-Highlight { color:#458588; }</style>
  </defs>
  <path class="ColorScheme-Text" fill="currentColor" d="m8 1c-0.2973 0.002186-0.5941 0.02331-0.8887 0.06323-0.1387 0.8051-0.1406 1.651-0.08716 2.449 2.765-0.3856 5.423 0.3992 7.513 1.991-1.035-2.711-3.635-4.502-6.537-4.503zm-1.514 0.1846c-1.012 0.2247-1.961 0.6713-2.779 1.307-0.3662 2.491 0.2249 5.164 1.882 7.309 0.8036-0.6289 1.492-1.486 2.066-2.401-1.114-1.942-1.464-4.153-1.169-6.216zm-3.449 1.904c-1.299 1.306-2.031 3.07-2.037 4.912 0.003405 1.285 0.3605 2.545 1.032 3.64 1.084-0.2932 2.114-0.7879 3.04-1.439-1.541-2.138-2.233-4.643-2.035-7.113zm5.177 0.9297c-0.3737 8.926e-4 -0.7511 0.02206-1.131 0.06494 0.1722 1.029 0.5163 2.06 1.09 3.032 2.558 0.0554 4.844 1.023 6.602 2.591 0.145-0.5571 0.2208-1.13 0.2256-1.706-0.001107-0.4988-0.05553-0.9961-0.1624-1.483-1.782-1.579-4.113-2.505-6.624-2.499zm-0.04102 3.667c-1.343 2.23-3.452 3.75-5.792 4.46 0.5455 0.7415 1.232 1.368 2.02 1.844 3.02-0.6217 5.635-2.71 6.928-5.734-0.9758-0.343-2.066-0.5708-3.156-0.5708zm3.673 0.8579c-1.231 2.899-3.718 5.032-6.609 5.879 0.8724 0.3782 1.813 0.5748 2.763 0.5776 2.935-0.00759 5.554-1.846 6.559-4.604-0.773-0.7362-1.692-1.37-2.714-1.853z"/>
</svg>
