<svg width="16" height="16" version="1.1" xmlns="http://www.w3.org/2000/svg">
  <defs>
    <style id="current-color-scheme" type="text/css">.ColorScheme-Text { color:#282828; } .ColorScheme-Highlight { color:#458588; }</style>
  </defs>
  <path class="ColorScheme-Text" d="m9.6621 1.6836c-2.3794 0.12438-3.8197 1.448-4.5566 2.4004-3.699 0.46655-5.1055 3.3829-5.1055 4.4277 0 1.2579 1.8297 4.5259 6.1465 4.4883 1.2906-0.01657 2.5649-0.29082 3.748-0.80664h0.00195c0.64023 0.08082 1.517 0.129 2.5059 0.0254 0.05685-0.0081 0.09657-0.06187 0.08594-0.11914-0.08806-0.38432-0.22572-0.75502-0.41016-1.1035 0.49119-0.33413 0.95431-0.70777 1.3848-1.1172 0.47366 0.33156 1.7526 1.1836 2.0762 1.4082 0.09236 0.0643 0.20923 0.06804 0.30469 0.01954 0.09591-0.05016 0.15628-0.14959 0.15625-0.25781v-5.0742c-7e-5 -0.24389-0.28227-0.3719-0.46875-0.24219-0.42097 0.29217-1.5559 1.0377-2.0684 1.4141-0.9965-0.96882-2.6952-2.1349-4.709-2.7305 0.066644-1.6488 0.95642-2.556 0.9668-2.5664 0.075214-0.055613 0.035216-0.17012-0.058594-0.16602zm-6.4434 4.6582c0.43135-4.031e-4 0.78125 0.3355 0.78125 0.75 2e-7 0.4145-0.3499 0.7504-0.78125 0.75-0.43059-6.33e-4 -0.7793-0.33623-0.7793-0.75-5e-7 -0.41377 0.34871-0.74937 0.7793-0.75zm3.3066 3.7305c0.00195-5.9e-5 0.00391-5.9e-5 0.00586 0-0.00544 7.41e-4 -0.010475 0.0028-0.015625 0.0039 0.00318-0.0015 0.00644-0.0028 0.00977-0.0039zm-0.023437 0.0059c0.0013-2.6e-5 0.0026-2.6e-5 0.00391 0-0.00331 0.0011-0.0066 0.0024-0.00977 0.0039 0.00191-0.0014 0.00386-0.0027 0.00586-0.0039z" fill="currentColor"/>
</svg>
