<svg width="16" height="16" version="1.1" xmlns="http://www.w3.org/2000/svg">
  <defs>
    <style id="current-color-scheme" type="text/css">.ColorScheme-Text { color:#282828; } .ColorScheme-Highlight { color:#458588; }</style>
  </defs>
  <path class="ColorScheme-Text" d="m8 1s-3 1.201-3 3.602v3.6l-2 1.799v2h10v-2l-2-1.799v-3.6c0-2.4-3-3.602-3-3.602zm0 3c0.6625 0 1.201 0.5386 1.201 1.201 0 0.6625-0.5386 1.199-1.201 1.199s-1.201-0.5367-1.201-1.199c0-0.6625 0.5386-1.201 1.201-1.201zm-2 9c0 1.334 2 2 2 2s2-0.6664 2-2h-1.158c-0.3804 0.4867-0.8418 0.7559-0.8418 0.7559s-0.4614-0.2692-0.8418-0.7559h-1.158z" fill="currentColor"/>
</svg>
