<svg width="16" height="16" version="1.1" xmlns="http://www.w3.org/2000/svg">
  <defs>
    <style type="text/css" id="current-color-scheme">.ColorScheme-Text { color:#282828; } .ColorScheme-Highlight { color:#458588; }</style>
  </defs>
  <path class="ColorScheme-Text" fill="currentColor" d="m3.867 1c-1.583 0-2.867 1.284-2.867 2.867s1.284 2.866 2.867 2.866 2.866-1.283 2.866-2.866-1.283-2.867-2.866-2.867zm3.476 0v6.344h-6.344v1.312h6.344v6.344h1.312v-6.344h6.344v-1.312h-6.344v-6.344zm-3.476 1.433c0.7919 0 1.432 0.6417 1.432 1.433s-0.6398 1.432-1.432 1.432-1.433-0.6398-1.433-1.432 0.6417-1.433 1.433-1.433zm7.078 7.498-1.013 1.013 1.522 1.522-1.522 1.52 1.013 1.013 1.522-1.522 1.52 1.522 1.013-1.013-1.522-1.52 1.522-1.522-1.013-1.013-1.52 1.522z"/>
</svg>
