<svg width="16" height="16" version="1.1" xmlns="http://www.w3.org/2000/svg">
  <defs>
    <style id="current-color-scheme" type="text/css">.ColorScheme-Text { color:#282828; } .ColorScheme-Highlight { color:#458588; }</style>
  </defs>
  <path class="ColorScheme-Text" d="m9.2617 1c-0.17358-5e-7 -0.33984 0.048828-0.33984 0.048828s0.02897 0.87305-0.68945 0.87305c-0.2329 0-0.39447-0.17162-0.42188-0.29492 0 0-0.30769 0.35933-0.82226 0.59375-0.51458 0.23441-0.79447 0.23147-1.0137 0.25586-0.2192 0.024479-0.55184 0.2065-0.625 0.76367-0.06397 0.42622 0.34961 0.93164 0.34961 0.93164s-0.48322 1.209-0.90039 1.209c-0.3562 0-0.41376-0.43609-0.41992-0.52734l-2e-3 0.00195h-2e-3c-0.09111 0.032759-1.5214 1.012-1.5214 1.9141 0 0.56472 0.66604 1.1499 0.87305 1.3203 0.20701 0.17044 0.52851 0.38448 0.53906 0.81836v0.2793s-0.06971 0.47266-0.57812 0.47266c-0.29839 0-0.44141-0.23438-0.44141-0.23438s0.062355 2.4279 1.6699 3.5117c1.0797 0.73472 1.5673 0.49097 3.2012 2.0625 0.23591-0.41553 0.91619-0.91835 2.0762-1.2207 0.94982-0.29429 1.7624-0.87864 2.1855-1.7402 0.4232-0.86159 0.57816-2.2748 0.41992-3.3008 0 0-0.09996 0.08203-0.29492 0.08203-0.19495 0-0.39844-0.19445-0.39844-0.60547 0-0.7124 1.041-1.2288 1.041-2.4922 0-1.1386-0.75832-2.0505-2.1191-2.3945 0 0-0.09577 0.42383-0.39648 0.42383-0.30071 0-0.87305-0.50261-0.87305-1.1328 0-0.6302 0.56439-0.50458 1.0332 0.10742 0 1.3e-6 -0.14395-1.7266-1.5293-1.7266zm-1.1914 1.8223 1.4238 0.21289 0.7207 1.3359-0.97266 0.39844 0.08789 0.4668 1.2793 0.20312 1.0273 2.0352-1.5488 0.43164 0.86133 2.7656s0.36722 0.73376 0.13281 1.4004c0 0-0.19968-0.48917-0.62891-0.56836 0 0 0.11128 0.43443-0.30273 0.76172-0.41402 0.3273-0.80234 0.39185-0.99414 0.45117-0.1918 0.0594-0.74896 0.30487-1.1797 1.0234 0 0-0.62039-0.40074-0.74219-1.0371-0.12179-0.63637-0.43442-1.1153-0.90625-1.3711 0 0-0.10823 0.50586-0.44922 0.50586-0.30098 0-0.87167-0.3822-0.89062-0.46289v-6e-3h0.0019v-2e-3h2e-3v-2e-3h0.0019l2e-3 -2e-3h4e-3c0.0035-2.5e-4 7e-3 -3.51e-4 0.01172 0l1.0546-3.4196-1.5723-0.58594 1.0078-1.8633 1.2383-0.24414 0.125-0.48438-0.90039-0.41211 0.6582-1.3066zm2e-3 0.50586-1.1172 0.17383-0.31055 0.61328 0.81055 0.36914-0.30859 1.1973-1.3164 0.25781-0.62305 1.1504 1.4883 0.55273 1.3359 1.373 1.4023-1.4453 1.4824-0.41406-0.63672-1.2617-1.377-0.2207-0.22461-1.2129 0.83203-0.3418-0.33789-0.625zm-0.01367 2.6562 1.3613 0.47461-1.3379 0.82422-1.3867-0.81641z" fill="currentColor"/>
</svg>
