<svg width="16" height="16" version="1.1" xmlns="http://www.w3.org/2000/svg">
  <defs>
    <style id="current-color-scheme" type="text/css">.ColorScheme-Text { color:#282828; } .ColorScheme-Highlight { color:#458588; }</style>
  </defs>
  <path class="ColorScheme-Text" d="m7.463 13.27-0.01662 0.651h-1.481l-0.03238-0.651h-0.7648l-0.7-0.651 0.06475-6.642 0.5539-0.7814h1.595l-0.03238 1.986c-1.368 0.8785-1.14 1.302-1.107 4.656l0.4559 0.3902h4.004l0.4559-0.3902c0.03325-3.354 0.2608-3.777-1.107-4.656l-0.03238-1.986h1.595l0.5539 0.7814 0.06475 6.642-0.7 0.651h-0.7648l-0.03238 0.651h-1.481l-0.01662-0.651zm-0.1951-12.27v5.893h1.465v-5.893zm-1.156 10.66-0.01662-2.605c0.1575-0.994 0.84-1.685 1.905-1.676 1.065-0.00875 1.747 0.6825 1.905 1.676l-0.01662 2.605zm-3.761-9.002 0.03238 11.85 0.5215 0.4882 1.628-0.03237 0.4559-0.5215 0.03238-0.4882-1.041-1.041-0.098-7.359 1.074-1.009 0.06475-1.888-0.4559-0.5862h-1.758zm11.3 0-0.03237 11.85-0.5215 0.4882-1.628-0.03237-0.4559-0.5215-0.03237-0.4882 1.041-1.041 0.09799-7.359-1.074-1.009-0.06475-1.888 0.4559-0.5862h1.758l0.4559 0.5862z" fill="currentColor"/>
</svg>
