<svg width="16" height="16" version="1.1" xmlns="http://www.w3.org/2000/svg">
  <defs>
    <style id="current-color-scheme" type="text/css">.ColorScheme-Text { color:#282828; } .ColorScheme-Highlight { color:#458588; }</style>
  </defs>
  <path class="ColorScheme-Text" d="m5.61 0.9997c-0.6327 0-1.468 0.1968-1.837 1.139-0.2517 0.6413-0.223 1.32-0.223 2.03 0 0.7109-0.02871 1.392 0.223 2.033 0.3697 0.9418 1.204 1.139 1.837 1.139 1.122 0 1.91-0.2713 1.76-1.083-0.09559-0.5164-0.6499-0.7514-1.04-0.4485-0.05648 0.06171-0.09902 0.1339-0.1274 0.2123-0.3821 0.06085-0.8503 0.0946-1.075-0.04778-0.1888-0.1196-0.3107-0.4175-0.3107-1.805 0-0.7087 0.03116-1.296 0.1381-1.568 0.06208-0.1582 0.1457-0.3317 0.6556-0.3317 0.359 0 0.5168 0.03782 0.5653 0.04512 0.00929 0 0.03646 0.1385 0.1725 0.2628 0.3941 0.2852 0.935 0.04664 1.025-0.4751 0.03238-0.1892-0.03472-0.497-0.2123-0.6875-0.466-0.4144-1.549-0.4146-1.549-0.4146zm5.074 0c-0.4381 0-0.8362 0.08782-1.163 0.2946-0.3264 0.2068-0.5483 0.5235-0.6742 0.8441-0.2517 0.6412-0.2256 1.32-0.2256 2.03 0 0.7109-0.02606 1.392 0.2256 2.033 0.2146 0.5467 0.7077 1.139 1.837 1.139 0.7688 0 1.168-0.01875 1.534-0.3821 0.1832-0.1817 0.2621-0.5036 0.2256-0.7007-0.09559-0.5164-0.6499-0.7514-1.04-0.4485-0.05648 0.06171-0.099 0.1339-0.1274 0.2123-1.042 0.166-1.173-0.09107-1.248-0.2814-0.1069-0.2722-0.1381-0.8627-0.1381-1.571 0-0.7087 0.03116-1.296 0.1381-1.568 0.06203-0.1581 0.1456-0.3318 0.6557-0.3318 0.359 0 0.5168 0.03782 0.5653 0.04512 0 0 0.03644 0.1384 0.1727 0.2628 0.2838 0.2038 0.6791 0.1398 0.8839-0.1434 0.2574-0.3601 0.1287-0.8042-0.07166-1.019-0.5717-0.6132-1.546-0.4143-1.55-0.4145zm-1.218 7.619c-0.3868 0.06675-0.8188 0.2033-0.8499 0.623v5.072c0.01666 0.501 0.3834 0.5867 0.6901 0.6496 0.1461 0.02913 0.7094 0.1304 1.462-0.1638 0.8447-0.33 1.676-1.307 1.659-3.026-0.01727-1.715-0.843-2.677-1.68-3.008-0.5194-0.1708-0.8315-0.1681-1.282-0.1466zm-3.857 0.03906h-1.428c-0.3503-1.02e-4 -0.6345 0.284-0.6344 0.6344-9.8e-5 0.3503 0.284 0.6345 0.6344 0.6344h1.428c0.4341-0.00152 0.4751 0.1688 0.4751 0.5547v0.6662h-0.6344c-0.8458 0-0.8458 1.269 0 1.269h0.6344v0.7591c0 0.5091-0.2769 0.555-0.4751 0.5545h-1.428c-0.3503-9.7e-5 -0.6345 0.284-0.6344 0.6344-9.81e-5 0.3503 0.284 0.6345 0.6344 0.6344h1.388s0.4332 0.0349 0.8812-0.1911c0.4481-0.226 0.9025-0.8169 0.9025-1.632v-2.693c0-0.8265-0.4554-1.426-0.9104-1.648-0.3531-0.1734-0.8325-0.1758-0.8325-0.1758zm4.673 1.287c0.4209 0.1657 0.8621 0.4698 0.8759 1.841 0.01379 1.368-0.423 1.663-0.8521 1.832-0.1983 0.07743-0.2533 0.03437-0.422 0.03715v-3.745c0.115-0.02953 0.26-0.01952 0.3982 0.03487z" fill="currentColor"/>
</svg>
