<svg width="16" height="16" version="1.1" xmlns="http://www.w3.org/2000/svg">
  <defs>
    <style id="current-color-scheme" type="text/css">.ColorScheme-Text { color:#282828; } .ColorScheme-Highlight { color:#458588; }</style>
  </defs>
  <path class="ColorScheme-Text" d="m9.032 13.21c0.00125-0.01134 0.09382-0.322 0.2057-0.6936 0.1119-0.3716 0.189-0.7 0.1714-0.7291-0.01776-0.03024-0.1662-0.05405-0.3302-0.05443-0.164-7.93e-4 -0.522-0.04876-0.7953-0.1066-1.497-0.3171-3.018-1.093-4.434-2.262-0.2879-0.2381-0.5428-0.3995-0.573-0.3632-0.02986 0.03402-0.1958 0.2529-0.3683 0.4827-0.6101 0.8119-1.534 1.402-2.418 1.544-0.2446 0.03931-0.4536 0.06237-0.4645 0.05103-0.01096-0.01134 0.1529-0.3731 0.364-0.8032 0.8788-1.792 0.8682-2.843-0.04558-4.679l-0.3456-0.6936h0.1953c0.3163 0 1.006 0.2037 1.381 0.4078 0.4608 0.2506 1.202 0.9366 1.486 1.375 0.1253 0.1935 0.2437 0.3515 0.263 0.3515s0.278-0.1879 0.5749-0.4173c0.9374-0.7246 2.175-1.468 3.05-1.831 0.01096-0.00378-0.0121-0.0926-0.05141-0.1954-0.1078-0.2835-0.6346-0.8202-1.023-1.042l-0.346-0.1977 0.3446-0.1142c1.276-0.4226 3.262-0.598 4.15-0.3659 0.7552 0.1969 1.396 0.5742 2.011 1.183 0.3344 0.3311 0.6717 0.5942 0.8539 0.6664 0.9382 0.3708 1.99 1.095 2.526 1.738 0.29 0.3485 0.5855 0.756 0.5855 0.807 0 0.0189-0.3041 0.2502-0.6758 0.5182s-0.6758 0.5107-0.6758 0.5398c0 0.03024 0.2881 0.2351 0.6403 0.4585s0.6403 0.4301 0.6403 0.4596c0 0.2109-1.269 1.08-2.231 1.529-0.6324 0.2948-1.895 0.7473-2.085 0.7473-0.05194 0-0.09441 0.02646-0.09441 0.06124 0 0.1417-0.604 0.7306-1.015 0.9892-0.477 0.3001-1.485 0.7378-1.473 0.6395zm4.071-5.545c0.4967-0.3538 0.539-0.9162 0.1046-1.393-0.1804-0.1981-0.2617-0.2049-0.2128-0.0189 0.06294 0.2408-0.1617 0.4982-0.4347 0.4982-0.2735 0-0.3957-0.1168-0.4657-0.4453l-0.0491-0.2306-0.217 0.2287c-0.3619 0.3814-0.3618 0.827 1.63e-4 1.221 0.3488 0.3799 0.8584 0.4354 1.275 0.1395z" fill="currentColor"/>
</svg>
