<svg width="16" height="16" version="1.1" xmlns="http://www.w3.org/2000/svg">
  <defs>
    <style id="current-color-scheme" type="text/css">.ColorScheme-Text { color:#282828; } .ColorScheme-Highlight { color:#458588; } .ColorScheme-NeutralText { color:#fe8019; } .ColorScheme-PositiveText { color:#689d6a; } .ColorScheme-NegativeText { color:#fb4934; }</style>
  </defs>
  <path class="ColorScheme-Text" d="m6 1v1h-3v12c0 0.55 0.446 1 1 1h5.357c-0.8622-0.7588-1.357-1.851-1.357-3 0-2.209 1.791-4 4-4 0.3374-2.1e-5 0.6734 0.04264 1 0.127v-6.127h-3v-1zm6 8c-1.657 0-3 1.343-3 3s1.343 3 3 3 3-1.343 3-3-1.343-3-3-3zm-0.75 0.75h1.5v1.818l1.254 0.7207-0.75 1.301-2.004-1.156z" fill="currentColor"/>
</svg>
