<svg width="16" height="16" version="1.1" xmlns="http://www.w3.org/2000/svg">
  <defs>
    <style id="current-color-scheme" type="text/css">.ColorScheme-Text { color:#282828; } .ColorScheme-Highlight { color:#458588; }</style>
  </defs>
  <path class="ColorScheme-Text" d="m7.982 1c-3.031 0.00915-5.482 2.469-5.482 5.5 0 3.038 2.462 5.5 5.5 5.5s5.5-2.462 5.5-5.5-2.462-5.5-5.5-5.5zm0 3.5c1.105 0 2 0.8954 2 2s-0.8954 2-2 2-2-0.8954-2-2 0.8954-2 2-2zm-5.457 5.5c0.2527 2.803 2.606 5 5.475 5h5.5l-1-1 1-1h-5.555v-0.0039c-2.197-0.01859-4.236-1.146-5.42-2.996z" fill="currentColor"/>
</svg>
