<svg width="16" height="16" version="1.1" xmlns="http://www.w3.org/2000/svg">
  <defs>
    <style id="current-color-scheme" type="text/css">.ColorScheme-Text { color:#282828; } .ColorScheme-Highlight { color:#458588; }</style>
  </defs>
  <path class="ColorScheme-Text" d="m14.99 6.595-4.895-0.7-2.098-4.895-2.098 4.895-4.895 0.7 3.496 3.496-0.6991 4.909 4.196-2.112 4.196 2.098-0.6991-4.895zm-5.186 5.356h-3.875q0-1.985 1.986-3.042 0.4078-0.2161 0.6405-0.4445 0.2319-0.2284 0.2319-0.5565t-0.2362-0.5364-0.6204-0.2082q-0.7525 0-1.049 0.6886l-0.8645-0.392q0.224-0.553 0.7368-0.8811 0.5119-0.3281 1.169-0.3281 0.84 0 1.337 0.4646 0.4961 0.4638 0.4961 1.193 0 0.6562-0.3325 1.037-0.3316 0.3806-1.028 0.7647-0.5845 0.3203-0.8969 0.6248-0.3124 0.3036-0.4165 0.6886h2.722z" fill="currentColor"/>
</svg>
