<svg width="16" height="16" version="1.1" xmlns="http://www.w3.org/2000/svg">
  <defs>
    <style id="current-color-scheme" type="text/css">.ColorScheme-Text { color:#282828; } .ColorScheme-Highlight { color:#458588; }</style>
  </defs>
  <path class="ColorScheme-Text" d="m7.925 2.071c-3.721 0-6.74 0.771-6.74 1.72 0 0.227 0.172 0.443 0.485 0.641-1.047 0.992-1.67 2.235-1.67 3.585 0 1.368 0.641 2.628 1.714 3.626-0.164 0.478-0.819 2.018-0.597 2.24 0.239 0.239 2.005-0.537 2.332-0.625 0.1-0.027 0.358-0.066 0.66-0.116 1.152 0.471 2.479 0.74 3.891 0.74 1.427 0 2.766-0.275 3.926-0.755 0.34 0.057 0.636 0.102 0.746 0.131 0.326 0.088 2.092 0.864 2.331 0.625 0.239-0.238-0.533-1.995-0.624-2.328 1.017-0.984 1.621-2.21 1.621-3.538 0-1.377-0.648-2.643-1.733-3.644 0.257-0.182 0.398-0.377 0.398-0.582 0-0.949-3.02-1.72-6.74-1.72zm5.732 1.582c0 0.55-2.568 0.997-5.732 0.997s-5.731-0.447-5.731-0.997c0-0.551 2.567-0.997 5.731-0.997s5.732 0.446 5.732 0.997z" fill="currentColor"/>
</svg>
