<svg width="16" height="16" version="1.1" xmlns="http://www.w3.org/2000/svg">
  <defs>
    <style id="current-color-scheme" type="text/css">.ColorScheme-Text { color:#282828; } .ColorScheme-Highlight { color:#458588; }</style>
  </defs>
  <path class="ColorScheme-Text" d="m11.87 7.254c0.5385-0.9728 0.6941-2.272 0.6137-3.521-0.05489-1.82-1.965-2.831-3.938-2.733-1.098 0.001513-2.166 0.07299-3.208 0.5861-0.9333 0.4028-1.84 1.051-1.84 2.049 0.00166 1.841 0.5601 3.318 1.005 4.362h-0.7068c-1.551 0-2.8 1.228-2.8 2.753 0 4.039 6.578 4.24 7.304 4.25 0.7256 0.0097 7.067-0.0864 6.687-4.25 0-1.525-1.249-2.753-2.8-2.753h-0.757c0.02723-0.04546 0.05463-0.09093 0.08194-0.1364l0.0022-0.00373 8.8e-5 -2.189e-4v-2.63e-5c0.1203-0.1999 0.2408-0.4001 0.3541-0.6025zm-3.869 0.4011c0.03264-0.1779 0.05008-0.3653 0.05008-0.5587 0-0.1935-0.01744-0.3808-0.05008-0.5587 0.1631-0.8892 0.7061-1.542 1.351-1.542 0.7736 0 1.401 0.9407 1.401 2.101 0 1.16-0.6271 2.101-1.401 2.101-0.6446 0-1.188-0.6532-1.351-1.542zm-0.05007-0.5587c0 0.1935 0.01744 0.3808 0.05007 0.5587-0.1631 0.8892-0.7061 1.542-1.351 1.542-0.7736 0-1.401-0.9408-1.401-2.101 0-1.16 0.6271-2.101 1.401-2.101 0.6446 0 1.188 0.6532 1.351 1.542-0.03263 0.1779-0.05007 0.3652-0.05007 0.5587zm1.101 1.526c0.3869 0 0.7004-0.4704 0.7004-1.051 0-0.5802-0.3135-1.051-0.7004-1.051-0.3867 0-0.7004 0.4704-0.7004 1.051 0 0.5802 0.3137 1.051 0.7004 1.051zm-1.401-1.051c0 0.5802-0.3137 1.051-0.7004 1.051-0.3869 0-0.7004-0.4704-0.7004-1.051 0-0.5802 0.3135-1.051 0.7004-1.051 0.3867 0 0.7004 0.4704 0.7004 1.051z" clip-rule="evenodd" fill="currentColor"/>
</svg>
