<svg width="16" height="16" version="1.1" xmlns="http://www.w3.org/2000/svg">
  <defs>
    <style id="current-color-scheme" type="text/css">.ColorScheme-Text { color:#282828; } .ColorScheme-Highlight { color:#458588; }</style>
  </defs>
  <path class="ColorScheme-Text" d="m5 1v2h2v7h2v-7h2v-2zm-1.141 2c-0.02724 0.00333-0.05753 0.01058-0.07812 0.03125l-0.9453 0.9414c-0.03964 0.03967-0.04282 0.09848-0.01367 0.1465l1.004 1.654c-0.2363 0.385-0.4178 0.806-0.541 1.252l-1.854 0.3828c-0.0563 0.01156-0.09766 0.06526-0.09766 0.123v1.33c0 0.05634 0.04304 0.1042 0.09766 0.1172l1.797 0.4355c0.1131 0.5017 0.3048 0.9743 0.5586 1.404 0.00586-0.0059-0.7792 1.182-1.047 1.588-0.01002 0.01525-0.01113 0.03359-0.01367 0.05078l-0.00195 0.0059c-0.02924 0.04767-0.02034 0.1088 0.01953 0.1484l0.9395 0.9414c0.0412 0.04033 0.1038 0.04696 0.1523 0.01563 0.5368-0.3674 1.092-0.7047 1.648-1.041 0.4039 0.2422 0.844 0.4277 1.312 0.5449l0.3828 1.83c0.01196 0.05649 0.05916 0.09766 0.1172 0.09766h1.406c0.05803 0 0.1052-0.04122 0.1172-0.09766l0.3828-1.83c0.4685-0.1172 0.9086-0.3027 1.312-0.5449 0.5634 0.325 1.104 0.6851 1.648 1.041 0.04851 0.03133 0.1111 0.02472 0.1523-0.01563l0.9395-0.9414c0.03987-0.03967 0.04876-0.1008 0.01953-0.1484l-2e-3 -0.0059c-0.0026-0.01719-0.0053-0.03452-0.01367-0.05078-0.0015-0.0033-0.6934-1.053-1.047-1.588 0.2538-0.43 0.4455-0.9026 0.5586-1.404l1.797-0.4336c0.05462-0.013 0.09766-0.0628 0.09766-0.1191v-1.33c0-0.05778-0.04136-0.1115-0.09766-0.123l-1.853-0.3828c-0.1232-0.4459-0.3048-0.867-0.541-1.252l1.004-1.654c0.02913-0.048 0.02597-0.1068-0.01367-0.1465l-0.9453-0.9414c-0.0206-0.02067-0.05088-0.02792-0.07812-0.03125-0.02691-0.00267-0.05191 0.00157-0.07617 0.01758l-1.635 1.066c-0.2263-0.1294-0.3876-0.2418-0.6348-0.334v1.518c1.089 0.6374 1.759 1.804 1.76 3.066-4.72e-4 1.963-1.592 3.554-3.555 3.555-1.963-4.72e-4 -3.554-1.592-3.555-3.555 0.001516-1.261 0.6712-2.427 1.76-3.064v-1.52c-0.2471 0.09217-0.4085 0.2046-0.6348 0.334l-1.635-1.066c-0.02425-0.016-0.04926-0.02025-0.07617-0.01758z" fill="currentColor"/>
</svg>
