<svg width="16" height="16" version="1.1" xmlns="http://www.w3.org/2000/svg">
  <defs>
    <style type="text/css" id="current-color-scheme">.ColorScheme-Text { color:#282828; } .ColorScheme-Highlight { color:#458588; }</style>
  </defs>
  <path class="ColorScheme-Text" fill="currentColor" d="m4.08 1c-0.241 0-0.4336 0.1926-0.4336 0.4336v3.92 3.92c0 0.241 0.1926 0.4336 0.4336 0.4336h3.92c2.405 0 4.354-1.95 4.354-4.354 0-2.405-1.949-4.354-4.354-4.354h-3.92zm2.24 2.488h1.68c0.495 0 0.9694 0.1949 1.318 0.5449 0.35 0.35 0.5469 0.8253 0.5469 1.32 0 0.494-0.1969 0.9703-0.5469 1.32-0.349 0.35-0.8234 0.5469-1.318 0.5469h-1.68c-0.103 0-0.1855-0.08545-0.1855-0.1895v-1.678-1.678c0-0.104 0.08255-0.1875 0.1855-0.1875zm-6.32 7.643v3.869h0.3867v-1.73h0.873l0.8301 1.73h0.4258l-0.8574-1.746c0.328-0.052 0.5699-0.1757 0.7246-0.373 0.1547-0.1967 0.2305-0.4275 0.2305-0.6895 0-0.298-0.09325-0.5492-0.2812-0.7539-0.188-0.2047-0.4921-0.3066-0.9121-0.3066h-1.42zm4.703 0-1.344 3.869h0.4043l0.3379-1h1.508l0.3535 1h0.3926l-1.354-3.869h-0.2988zm2.564 0v3.869h2.305v-0.3691h-1.918v-3.5h-0.3867zm3.078 0v3.869h2.305v-0.3691h-1.918v-3.5h-0.3867zm2.748 0 1.266 2.35v1.52h0.3848v-1.535l1.256-2.334h-0.3984l-1.055 1.99-1.029-1.99h-0.4238zm-12.71 0.3477h1.045c0.288 0 0.4944 0.07528 0.6211 0.2246 0.1273 0.1493 0.1914 0.3179 0.1914 0.5059 0 0.1987-0.06465 0.3672-0.1953 0.5059-0.1313 0.138-0.3372 0.207-0.6172 0.207h-1.045v-1.443zm4.467 0.2832c0.01467 0.06667 0.05071 0.1823 0.1094 0.3477l0.5312 1.547h-1.277l0.5293-1.547c0.01533-0.03667 0.03717-0.1057 0.0625-0.2051l0.04492-0.1426z"/>
</svg>
