<svg width="16" height="16" version="1.1" xmlns="http://www.w3.org/2000/svg">
  <defs>
    <style id="current-color-scheme" type="text/css">.ColorScheme-Text { color:#282828; } .ColorScheme-Highlight { color:#458588; }</style>
  </defs>
  <path class="ColorScheme-Text" d="m6.252 0.998-0.1543 1.844c-0.5845 0.2166-1.128 0.531-1.607 0.9297l-1.676-0.7891-1.75 3.031 1.522 1.059c-0.1107 0.6256-0.1104 1.24-0.0039 1.857l-1.518 1.055 1.75 3.029 1.672-0.7871c0.4808 0.397 1.026 0.7094 1.611 0.9238l0.1504 1.852h3.5l0.1543-1.844c0.5845-0.2166 1.128-0.531 1.607-0.9297l1.676 0.7891 1.75-3.031-1.522-1.059c0.1107-0.6256 0.1104-1.24 0.0039-1.857l1.518-1.055-1.75-3.029-1.672 0.7871c-0.4808-0.397-1.026-0.7094-1.611-0.9238l-0.1504-1.852zm1.748 5.19c0.6435-1.29 2.351-1.614 3.383-0.543 0.8235 0.856 0.8235 2.248 0 3.104l-3.383 3.252-3.377-3.244c-0.8306-0.862-0.8294-2.255-0.0059-3.111 1.026-1.065 2.742-0.7487 3.383 0.543z" fill="currentColor"/>
</svg>
