<svg width="16" height="16" version="1.1" xmlns="http://www.w3.org/2000/svg">
  <defs>
    <style id="current-color-scheme" type="text/css">.ColorScheme-Text { color:#282828; } .ColorScheme-Highlight { color:#458588; }</style>
  </defs>
  <path class="ColorScheme-Text" d="m8 1c-3.866 0-7 3.134-7 7 0 3.866 3.134 7 7 7 0.695 0 1.3663-0.1024 2-0.29102v-0.70898h-2v-2l-3.377-3.2441c-0.83057-0.86201-0.82937-2.2553-0.00586-3.1113 1.0257-1.0648 2.7415-0.74872 3.3828 0.54297 0.64351-1.2895 2.3513-1.6145 3.3828-0.54297 0.61165 0.63578 0.76764 1.5678 0.4707 2.3555h2.1465v2h0.70898c0.18862-0.63373 0.29102-1.305 0.29102-2 0-3.866-3.134-7-7-7zm3 8v2h-2v2h2v2h2v-2h2v-2h-2v-2z" fill="currentColor"/>
</svg>
