<svg width="16" height="16" version="1.1" xmlns="http://www.w3.org/2000/svg">
  <defs>
    <style id="current-color-scheme" type="text/css">.ColorScheme-Text { color:#282828; } .ColorScheme-Highlight { color:#458588; }</style>
  </defs>
  <path class="ColorScheme-Text" d="m3.115 1.778 1.778 2.222 0.889-0.444-1.334-1.334 1.334-0.444zm7.111 0 1.334 0.444-1.334 1.334 0.889 0.444 1.778-2.222zm-2.222 0.889c-1.157 3e-3 -2.672 0.635-2.667 2.843l2.667-1.51 2.667 1.51c5e-3 -2.208-1.51-2.84-2.667-2.843zm-6.667 0.889 0.889 2.666v-0.889h1.778l0.444-0.889zm13.33 0-3.111 0.888 0.444 0.889h1.778v0.889zm-6.667 1.333-1.333 0.8 0.177 1.245 0.444-1.156h1.424l0.444 1.156 0.177-1.244-1.333-0.8zm-4.444 1.333-3.556 1.334 1.778 0.888v-0.444l1.333-0.444zm2.222 0-1.778 0.712c0.011 1.452 0.825 2.824 1.644 3.491 0.573 0.456 1.292 0.979 1.644 1.13 0.404 0.151 0.18-0.748 0.267-0.889h0.889c0.088 0.141-0.137 1.041 0.267 0.889 0.353-0.151 1.071-0.673 1.645-1.13 0.819-0.668 1.632-2.038 1.644-3.491l-1.778-0.712-0.444 1.778h-1.157l-0.621-1.778-0.621 1.778h-1.157zm6.666 0 0.445 1.334 1.333 0.444v0.444l1.778-0.888zm-8.888 2.667-2.223 0.889 3.556 4.444zm8.888 0-1.333 5.333 3.556-4.444z" fill="currentColor"/>
</svg>
