<svg width="16" height="16" version="1.1" xmlns="http://www.w3.org/2000/svg">
  <defs>
    <style id="current-color-scheme" type="text/css">.ColorScheme-Text { color:#282828; } .ColorScheme-Highlight { color:#458588; }</style>
  </defs>
  <path class="ColorScheme-Text" d="m7.997 1c-3.866 0-7 3.134-7 7 0.0017 1.14 0.2817 2.263 0.8164 3.27 3.804 0.5968 8.758 0.0063 13.12-2.338 0.04462-0.308 0.06768-0.6201 0.07031-0.9316 4e-6 -3.866-3.134-7-7-7zm-3.25 2.25h0.75v0.75h0.375c0.4908 0 0.9026 0.3134 1.057 0.75h-1.432v0.75h0.375c0.6236 0 1.125 0.5011 1.125 1.125 0 0.6226-0.5011 1.125-1.125 1.125h-0.375v0.75h-0.75v-0.75h-0.375c-0.4908 0-0.9017-0.3134-1.057-0.75h1.432v-0.75h-0.375c-0.6228 0-1.125-0.5011-1.125-1.125 0-0.6226 0.502-1.125 1.125-1.125h0.375zm6.4 1.486 1.943 1.166-0.3867 0.6465-1.557-0.9355-1.557 0.9355-0.3867-0.6465zm-6.775 0.01367c-0.2205 0-0.375 0.1545-0.375 0.375 0 0.2214 0.1545 0.375 0.375 0.375h0.375v-0.75zm1.125 1.5v0.75h0.375c0.2214 0 0.375-0.1545 0.375-0.375 0-0.2214-0.1536-0.375-0.375-0.375zm1 2.5h3v0.75h-3zm7.945 1.99-0.0039 2e-3c-3.851 1.796-7.983 2.385-11.51 2.076 1.32 1.392 3.155 2.181 5.074 2.182 2.807 0 5.34-1.677 6.439-4.26z" fill="currentColor"/>
</svg>
