<svg width="16" height="16" version="1.1" xmlns="http://www.w3.org/2000/svg">
  <defs>
    <style id="current-color-scheme" type="text/css">.ColorScheme-Text { color:#282828; } .ColorScheme-Highlight { color:#458588; }</style>
  </defs>
  <path class="ColorScheme-Text" d="m7.5 1.0352c-3.4575 0.25757-6.2055 3.0072-6.4609 6.4648h1.9961c0.24144-2.3586 2.1062-4.2234 4.4648-4.4648zm0.5 2.9648c-2.2091 0-4 1.7909-4 4 0 2.2091 1.7909 4 4 4 2.2091 0 4-1.7909 4-4 0-2.2091-1.7909-4-4-4zm0 1c1.6569 1e-7 3 1.3431 3 3 0 1.6569-1.3431 3-3 3-1.6569 0-3-1.3431-3-3 1e-7 -1.6569 1.3431-3 3-3zm0 1c-1.1046 0-2 0.89543-2 2 0 1.1046 0.89543 2 2 2 1.1046 0 2-0.89543 2-2 0-1.1046-0.89543-2-2-2zm-5.9609 2.5c0.25131 2.9055 2.5554 5.2096 5.4609 5.4609v-0.99609c-2.3586-0.24144-4.2234-2.1062-4.4648-4.4648zm10.926 0c-0.24144 2.3586-2.1062 4.2234-4.4648 4.4648v2c3.4575-0.25757 6.2055-3.0072 6.4609-6.4648z" fill="currentColor"/>
</svg>
