<svg width="16" height="16" version="1.1" xmlns="http://www.w3.org/2000/svg">
  <defs>
    <style id="current-color-scheme" type="text/css">.ColorScheme-Text { color:#282828; } .ColorScheme-Highlight { color:#458588; }</style>
  </defs>
  <path class="ColorScheme-Text" d="m7.5 1.035c-3.458 0.2576-6.206 3.007-6.461 6.465h1.996c0.2414-2.359 2.106-4.223 4.465-4.465zm0.5 2.965c-2.209 0-4 1.791-4 4s1.791 4 4 4 4-1.791 4-4-1.791-4-4-4zm0 1c1.657 1e-7 3 1.343 3 3s-1.343 3-3 3-3-1.343-3-3c1e-7 -1.657 1.343-3 3-3zm0 1c-1.105 0-2 0.8954-2 2 0 1.105 0.8954 2 2 2 1.105 0 2-0.8954 2-2 0-1.105-0.8954-2-2-2zm-5.961 2.5c0.2513 2.906 2.555 5.21 5.461 5.461v-0.9961c-2.359-0.2414-4.223-2.106-4.465-4.465zm10.93 0c-0.2414 2.359-2.106 4.223-4.465 4.465v2c3.458-0.2576 6.206-3.007 6.461-6.465z" fill="currentColor"/>
</svg>
