<svg width="16" height="16" version="1.1" xmlns="http://www.w3.org/2000/svg">
  <defs>
    <style type="text/css" id="current-color-scheme">.ColorScheme-Text { color:#282828; } .ColorScheme-Highlight { color:#458588; }</style>
  </defs>
  <path class="ColorScheme-Text" fill="currentColor" d="m15 5.878c-1.312-5.546-6.35-5.499-9.393-4.051-3.201 1.618-5.52 5.765-4.255 9.238 1.954 5.239 9.148 5.16 11.58 0.2882 0.7224-1.786 1.253-3.055-0.7343-4.752v2.1l-0.7-1.4s-0.6213 1.469-1.281 2.138c-0.9184 0.9317-2.219 0.6615-2.219 0.6615 0.2455 0.928 2.1 1.4 2.1 1.4-4.814 2.278-4.955-1.53-4.9-2.45 0.158-2.649 2.288-4.705 5.094-4.557 0.8946 0.06879 2.606 0.7077 2.606 0.7077-0.644-1.474-1.561-1.824-2.1-2.1 2.113-0.6986 3.241 1.507 4.2 2.777z"/>
</svg>
