<svg width="16" height="16" version="1.1" xmlns="http://www.w3.org/2000/svg">
  <defs>
    <style id="current-color-scheme" type="text/css">.ColorScheme-Text { color:#282828; } .ColorScheme-Highlight { color:#458588; }</style>
  </defs>
  <path class="ColorScheme-Text" d="m5.3 1.209c-0.2745 0.1507-0.2862 0.1895-0.1107 0.3651 0.3029 0.3025 1.305 0.1909 1.749 0.5956 0.2727 0.2488 0.2923 0.373 0.2923 1.857 0 0.1927 0.00233 0.258-0.03852 0.4491-0.2445 0.4189-0.7427 0.5407-1.17 0.7382-0.7212 0.2354-3.271 1.16-3.274 2.477h-2.236e-4v0.00435h2.232e-4c0.00364 1.319 2.562 2.245 3.274 2.477 0.616 0.2505 0.8286 0.3444 1.17 0.7144 0.01699 0.1475 0.02259 0.6342 0.02259 1.048 0 1.952-0.05248 2.058-1.09 2.198-1.226 0.1662-1.419 0.5653-0.3775 0.7825 0.7961 0.1658 4.601 0.06739 4.957-0.1281 0.2745-0.1507 0.2862-0.1895 0.1107-0.3651-0.3029-0.3025-1.305-0.1921-1.749-0.5963-0.2727-0.2484-0.2923-0.3729-0.2923-1.857 0-0.4911-0.01635-0.8211 0.01317-1.066 0.2849-0.3984 0.7636-0.5324 1.194-0.7303 1.058-0.3452 1.75-0.6867 2.249-1.063 0.5789-0.4359 1.023-0.8491 1.023-1.416-2.2e-5 -0.5668-0.4442-0.98-1.023-1.416-0.7692-0.5789-2.428-1.238-2.677-1.32-0.6765-0.3321-0.742-0.4419-0.742-1.067 0-1.952 0.03091-1.887 1.069-2.027 1.226-0.1662 1.419-0.5653 0.3775-0.7825-0.5369-0.08585-1.083-0.07465-2.043-0.08063-0.9603-0.005986-2.679 0.08059-2.913 0.209zm2.702 4.083c1.439 0 2.605 1.077 2.605 2.405s-1.167 2.405-2.605 2.405c-1.439 0-2.605-1.077-2.605-2.405s1.167-2.405 2.605-2.405z" fill="currentColor"/>
</svg>
