<svg width="16" height="16" version="1.1" xmlns="http://www.w3.org/2000/svg">
  <defs>
    <style id="current-color-scheme" type="text/css">.ColorScheme-Text { color:#282828; } .ColorScheme-Highlight { color:#458588; }</style>
  </defs>
  <path class="ColorScheme-Text" d="m6.796 1-2.058 7.911c-0.5924-3.286-1.103-5.032-1.8-6.423-0.6186 0.567-1.138 1.234-1.538 1.972 0.4918 1.263 0.9651 2.96 1.6 5.64 0.6834 2.916 1.789 3.97 4.32 4.469l1.812 0.4314 2.057-7.912c0.6116 3.39 1.138 5.141 1.868 6.554 0.6151-0.5486 1.137-1.194 1.543-1.912-0.518-1.278-1.006-3.02-1.672-5.83-0.6834-2.916-1.79-3.97-4.32-4.469zm1.73 2.105c1.283 0.343 1.772 0.9678 2.167 2.245h-0.8689l-2.422 7.544c-1.283-0.343-1.772-0.9678-2.167-2.245h0.8698z" fill="currentColor"/>
</svg>
