<svg width="16" height="16" version="1.1" xmlns="http://www.w3.org/2000/svg">
  <defs>
    <style id="current-color-scheme" type="text/css">.ColorScheme-Text { color:#282828; } .ColorScheme-Highlight { color:#458588; }</style>
  </defs>
  <path class="ColorScheme-Text" d="m6.4906 0.99988-0.16016 1.4941-1.1309 0.99219 1.375 0.61328 0.59766 1.3809 1.0098-1.1152 1.498-0.14062-0.75-1.3027 0.32812-1.4668-1.4727 0.31055zm5.5254 0.56055-0.47461 0.58398-0.74024 0.10547 0.40234 0.63867-0.13086 0.74609 0.72461-0.19141 0.66016 0.35742 0.04492-0.75781 0.53711-0.52539-0.69531-0.27734zm-7.4453 3.3594c-0.57659-0.0027359-1.226 0.045358-1.6367 0.13086-3.0767 0.64046-1.2254 2.9558 0.44922 3.1309 2.0293 0.47246 6.8366-0.90409 8.7832-1.2383 0.25752-0.0442 0.49983-0.072135 0.64258-0.080078 0.80479-0.044764 1.5523 0.16689 1.7051 0.21484 0.03096 0.00788 0.31483 0.13549 0.16016-0.17969-0.12169-0.24796-1.3739-1.0364-2.1992-1.2012-0.64465-0.21486-1.3158-0.48532-2.0293-0.43359-0.88224 0.063952-2.0725 1.1346-1.5645 1.127 0.5008-0.00754 1.1293-0.46245 1.6875-0.45508 0.40881 0.0054 1.3907 0.11248 1.1914 0.40625-0.1969 0.24152-3.1515 0.5148-5.4141 0.42578-1.3648-0.053704-2.8547-0.67474-2.2969-1.1035 0.60637-0.46609 1.6477-0.45446 1.7285-0.54102 5.5e-4 -7.548e-4 0.0035-0.00314 0.0039-0.00391v-0.0117l-2e-3 -0.00195c-4.87e-4 -8.801e-4 -0.0033-0.00496-0.0039-0.00586l-2e-3 -0.00195c-0.1214-0.11993-0.62644-0.17501-1.203-0.17776zm7.3516 2.8438c-1.8613 0.18843-3.7845 0.98731-6.5293 1.1074 0.10949 1.7941-0.28046 3.3598-0.73633 4.5332-0.16169 0.71627 0.9104 1.1987 2.3125 1.4766 2.3414 0.46394 5.378-0.52035 5.5117-1.3047-0.02946-0.49086-1.1204-3.1627-0.55859-5.8125z" fill="currentColor"/>
</svg>
