<svg width="16" height="16" version="1.1" xmlns="http://www.w3.org/2000/svg">
  <defs>
    <style id="current-color-scheme" type="text/css">.ColorScheme-Text { color:#282828; } .ColorScheme-Highlight { color:#458588; }</style>
  </defs>
  <path class="ColorScheme-Text" d="m2.452 14.97c-0.08317-0.02334-0.1781-0.05684-0.2109-0.07438-0.1125-0.0602-0.3129-0.2654-0.3719-0.3807-0.141-0.2758-0.1352 0.007434-0.1352-6.517 0-6.531-0.00606-6.241 0.1361-6.519 0.0838-0.1639 0.32-0.3674 0.4985-0.4295 0.1872-0.06505 0.5437-0.06515 0.7648-1.12e-4 0.09677 0.02847 0.7796 0.4022 1.733 0.9482l1.573 0.9012 0.3349-0.06095c2.273-0.4137 4.572 0.6967 5.696 2.751 0.1181 0.2159 0.3547 0.7722 0.394 0.9268 0.01424 0.05591 0.1199 0.1293 0.4899 0.3403 0.3604 0.2055 0.5089 0.3079 0.6292 0.4341 0.2291 0.2401 0.2832 0.3756 0.2832 0.7085 1.8e-5 0.2378-0.0096 0.2904-0.07835 0.4305-0.1609 0.3277-0.1819 0.3412-3.13 2.027-1.498 0.8565-3.854 2.204-5.236 2.995-1.394 0.7976-2.581 1.459-2.666 1.486-0.2266 0.07028-0.5241 0.08466-0.7044 0.03406zm4.599-2.893c0.5445-0.3126 0.994-0.5725 0.999-0.5775 0.00495-0.0047-0.16-0.0099-0.3664-0.01101-0.5528-0.002803-1.003-0.1112-1.488-0.358-0.9231-0.47-1.581-1.351-1.785-2.392-0.05554-0.2827-0.04767-0.9633 0.01451-1.255 0.1737-0.814 0.6228-1.526 1.269-2.012 0.6725-0.5059 1.5-0.745 2.312-0.6684 0.9163 0.08643 1.703 0.4961 2.279 1.187 0.5243 0.6291 0.7786 1.33 0.7796 2.15 8.11e-4 0.7-0.1888 1.317-0.5908 1.921l-0.05449 0.08194 0.1-0.05348c0.05502-0.0294 0.5122-0.2898 1.016-0.5787 0.642-0.3682 0.9208-0.543 0.9325-0.5846 0.0092-0.03267 0.03189-0.2228 0.05057-0.4227 0.05693-0.609-0.02137-1.238-0.2336-1.878-0.9562-2.881-4.295-4.158-6.958-2.661-0.7615 0.4283-1.517 1.221-1.91 2.005-1.085 2.164-0.404 4.804 1.587 6.154 0.3886 0.2634 0.8824 0.5181 1.01 0.5209 0.02562 5.69e-4 0.4921-0.2548 1.037-0.5674zm0.7989-2.418c0.1556-0.08055 0.3242-0.2503 0.3879-0.3905 0.0483-0.1064 0.05291-0.2053 0.05348-1.15l6.273e-4 -1.034h0.7414v-0.827h-1.169v1.012c0 0.5568-0.00476 1.012-0.01068 1.012-0.00588 0-0.06523-0.01923-0.1319-0.04275-0.1991-0.07019-0.3932-0.05544-0.5947 0.04517-0.573 0.2863-0.5679 1.111 0.0085 1.386 0.1239 0.05917 0.1762 0.06739 0.3723 0.05805 0.1581-0.00743 0.2631-0.02894 0.3422-0.06991z" fill="currentColor"/>
</svg>
