<svg width="16" height="16" version="1.1" xmlns="http://www.w3.org/2000/svg">
  <defs>
    <style id="current-color-scheme" type="text/css">.ColorScheme-Text { color:#282828; } .ColorScheme-Highlight { color:#458588; }</style>
  </defs>
  <path class="ColorScheme-Text" d="m6.34 1c-0.2872 0-0.5663 0.08023-0.8086 0.2148l2.469 4.2711 2.469-4.272c-0.2423-0.1436-0.5214-0.2148-0.8086-0.2148zm4.826 0.9922-2.59 4.494 1.746 3.027h5.178zm-6.336 0.0059-4.338 7.516h5.186l1.744-3.024zm-4.664 8.516c0 0.2782 0.07125 0.5554 0.2148 0.8066 0.55187 0.95788 1.1059 1.9145 1.6602 2.871 0.11042 0.28381 0.39537 0.40477 0.59766 0.5958-0.00586-2e-3 2.463-4.274 2.463-4.274zm6.09 0-2.584 4.486h8.662l-2.588-4.486zm4.643 0 2.4689 4.272c0.2423-0.1436 0.4482-0.3425 0.5918-0.5938 0.5572-0.9548 1.108-1.914 1.66-2.871 0.1436-0.2513 0.2148-0.5284 0.2148-0.8066z" fill="currentColor"/>
</svg>
