<svg width="16" height="16" version="1.1" xmlns="http://www.w3.org/2000/svg">
  <defs>
    <style id="current-color-scheme" type="text/css">.ColorScheme-Text { color:#282828; } .ColorScheme-Highlight { color:#458588; }</style>
  </defs>
  <path class="ColorScheme-Text" d="m6.689 1c-0.03995 0.5795-0.4386 1.051-0.09766 1.461 0.4825-0.3315 0.4951-0.6372 0.2559-1.133l-0.1582-0.3281zm2.311 0v14h1v-14h-1zm-3.586 0.3926c-1.451 3.978 1.285 5.543 2.586 6.529v-2.045s0.007792-0.1511 0-0.373v-0.8906s-0.09301-0.04232-0.1875-0.08594c-0.1988-0.5449-0.5195-1.244-0.5195-1.244-1e-7 0-0.1537 0.3994-0.248 0.8535-0.3865-0.2168-0.7871-0.4795-0.9844-0.7227-0.4691-0.5783-0.6465-2.021-0.6465-2.021zm-1.039 1.98-0.375 0.627c-0.3392 0.5653-0.1839 0.9018 0.1602 1.52l0.2148-2.146zm-0.9512 1.986s-0.4062 0.5166-0.4219 1.127c-0.07421 2.883 3.98 5.514 4.572 7.143 0.1958 0.5384 0.4258 1.371 0.4258 1.371v-5.975c-0.7795-1.352-2.542-1.232-3.893-2.537-0.4343-0.4197-0.6836-1.129-0.6836-1.129z" fill="currentColor"/>
</svg>
