<svg width="16" height="16" version="1.1" xmlns="http://www.w3.org/2000/svg">
  <defs>
    <style id="current-color-scheme" type="text/css">.ColorScheme-Text { color:#282828; } .ColorScheme-Highlight { color:#458588; }</style>
  </defs>
  <path class="ColorScheme-Text" d="m4.26 1v2c0 0.277 0.223 0.5 0.5 0.5s0.5-0.223 0.5-0.5v-2zm1.23 2.32c-0.0384 0.4297-0.4044 0.6766-0.7422 0.6836-0.379-1.03e-4 -0.6979-0.2838-0.7422-0.6602-0.1535 0.1752-0.2461 0.4039-0.2461 0.6562v2.561c0 0.554 0.446 1 1 1s1-0.446 1-1v-2.561c0-0.4335-0.2695-0.6685-0.2695-0.6797zm0.998 1.68v2c0 0.7746-0.7812 1.402-1.744 1.402-0.9631 3.57e-4 -1.744-0.6278-1.744-1.402v-1.652c-0.09395 0.106-0.1677 0.2284-0.207 0.3633l-1.719 5.904c-0.03882 0.1333-0.06206 0.2615-0.07031 0.3848l-0.0039 2c0 0.554 0.446 1 1 1h12c0.554 0 1-0.446 1-1l6e-6 -2c-0.0083-0.1233-0.0354-0.2515-0.07422-0.3848l-1.719-5.904c-0.1167-0.4006-0.5262-0.7109-0.9219-0.7109zm1.512 1c0.687-2.55e-4 1.244 0.4475 1.244 1 0 0.5525-0.5572 1-1.244 1-0.687 2.54e-4 -1.244-0.4475-1.244-1 0-0.5525 0.5572-1 1.244-1zm3.244 0c0.6863 6.12e-4 1.242 0.4482 1.242 1 0 0.5518-0.5561 0.9994-1.242 1-0.687 2.54e-4 -1.244-0.4475-1.244-1 0-0.5525 0.5572-1 1.244-1zm-7 3c0.6863 6.12e-4 1.242 0.4482 1.242 1 1e-6 0.5518-0.5561 0.9994-1.242 1-0.687 2.55e-4 -1.244-0.4475-1.244-1 0-0.5525 0.5572-1 1.244-1zm3.756 0c0.687-2.55e-4 1.244 0.4475 1.244 1 0 0.5525-0.5572 1-1.244 1-0.687 2.55e-4 -1.244-0.4475-1.244-1 0-0.5525 0.5572-1 1.244-1zm3.756 0c0.687-2.55e-4 1.244 0.4475 1.244 1 0 0.5525-0.5572 1-1.244 1-0.6863-6.13e-4 -1.242-0.4482-1.242-1 0-0.5518 0.5561-0.9994 1.242-1z" fill="currentColor"/>
</svg>
