<svg width="16" height="16" version="1.1" xmlns="http://www.w3.org/2000/svg">
  <defs>
    <style type="text/css" id="current-color-scheme">.ColorScheme-Text { color:#282828; } .ColorScheme-Highlight { color:#458588; }</style>
  </defs>
  <path class="ColorScheme-Text" fill="currentColor" d="m0 5.354v5.292h1.271v-2.146c3e-3 -0.087 0.041-0.169 0.104-0.229 0.067-0.065 0.156-0.102 0.25-0.104h0.729c0.089 0 0.161 0.044 0.229 0.104s0.097 0.141 0.104 0.229v2.146h1.272v-2.312c0-0.318-0.063-0.57-0.188-0.771-0.128-0.188-0.31-0.333-0.521-0.417-0.229-0.102-0.478-0.152-0.729-0.146h-0.834l-0.312 0.042c-0.073 0.02-0.104 0.042-0.104 0.042v-1.73h-1.271zm9.792 0v5.292h1.271v-5.292h-1.271zm-4.918 1.646v2.25c0 0.297 0.047 0.542 0.167 0.75 0.12 0.209 0.305 0.376 0.521 0.48 0.222 0.104 0.454 0.166 0.75 0.166h1.25v-0.02c0.266 0 0.503-0.056 0.688-0.167 0.184-0.12 0.333-0.292 0.437-0.5 0.097-0.209 0.138-0.443 0.146-0.709v-2.25h-1.271v2.126c-6e-3 0.092-0.043 0.179-0.104 0.249-0.061 0.061-0.143 0.098-0.229 0.105h-0.749c-0.087-5e-3 -0.169-0.042-0.23-0.104-0.064-0.068-0.101-0.157-0.104-0.251v-2.125h-1.272zm7.167 0v2.25c8e-3 0.297 0.063 0.542 0.188 0.75 0.125 0.209 0.287 0.376 0.5 0.48 0.222 0.104 0.461 0.166 0.75 0.166h1.25v-0.02c0.266 0 0.495-0.056 0.688-0.167 0.184-0.12 0.341-0.292 0.437-0.5 0.102-0.207 0.146-0.443 0.146-0.709v-2.25h-1.271v2.126c-3e-3 0.093-0.04 0.182-0.104 0.249-0.061 0.062-0.143 0.099-0.229 0.105h-0.75c-0.087-4e-3 -0.17-0.041-0.229-0.104-0.065-0.068-0.102-0.157-0.104-0.251v-2.125h-1.272z"/>
</svg>
