<svg width="16" height="16" version="1.1" xmlns="http://www.w3.org/2000/svg">
  <defs>
    <style type="text/css" id="current-color-scheme">.ColorScheme-Text { color:#282828; } .ColorScheme-Highlight { color:#458588; }</style>
  </defs>
  <path class="ColorScheme-Text" fill="currentColor" d="m12.2 1c-0.3358 0.9225-0.7266 1.808-1.174 2.615h-4.085v1.518h1.455v2.145c-3.4e-6 0.3457-0.0191 0.5836-0.05613 0.8911h-1.445v1.518h1.332c-0.2238 2.037-0.9879 3.448-2.294 4.448l1.153 0.8642c1.53-1.153 2.424-2.852 2.685-5.31h2.281v5.254h1.474v-5.254h1.474v-1.518h-1.474v-3.036h1.474v-1.518h-2.799c0.4104-0.6532 0.8215-1.424 1.232-2.27zm-3.357 0.1721-1.12 0.3468c0.4104 0.5378 0.7273 1.152 0.9512 1.844l1.176-0.4032c-0.2238-0.6532-0.5598-1.248-1.007-1.786zm-5.632 0.166v2.277h-2.21v1.518h2.21v3.007c-0.7088 0.3071-1.39 0.6146-2.21 0.9221l0.3915 1.211c0.6713-0.2685 1.222-0.5375 1.819-0.8064v3.632c-7.1e-6 0.4611-0.08257 0.691-0.2691 0.691-0.5223 0-0.9527-0.07602-1.438-0.2296l0.2231 1.21c0.4478 0.1154 0.9327 0.174 1.455 0.174 0.4478 0 1.021-0.115 1.207-0.3453 0.1865-0.2307 0.295-0.6347 0.295-1.211v-4.497l1.573-0.8079-0.1683-1.038v-0.001475c-0.4849 0.2311-0.9195 0.3669-1.404 0.6362v-2.545h1.474v-1.518h-1.474v-2.277zm6.672 3.794h2.169v3.036h-2.225c0.03729-0.2689 0.05613-0.4501 0.05613-0.719z"/>
</svg>
