<svg width="16" height="16" version="1.1" xmlns="http://www.w3.org/2000/svg">
  <defs>
    <style id="current-color-scheme" type="text/css">.ColorScheme-Text { color:#282828; } .ColorScheme-Highlight { color:#458588; }</style>
  </defs>
  <path class="ColorScheme-Text" d="m8 1.002c-3.176-4e-3 -5.149 2.061-5.885 3.207 0.9656-0.7364 1.835-1.617 4.059-1.211 1.307 0.2357 1.656 2.771 1.99 4.658 0.2051 0.7876 0.7127 2.445 1.641 3.213 0.2534 0.2099 0.5585 0.5168 0.8555 0.3945 0.2662-0.1096 0.321-0.5471 0.1055-0.998-0.166-0.5472-0.4883-1.025-0.668-1.611-0.3697-1.206-0.587-1.239-0.1934-2.387 0.2152-0.6275 0.6658-1.203 0.8848-0.9336l0.418 0.5156c0.3603 0.6963 0.9476 0.6524 1.678 0.9688 0.42 0.2054 0.9032 0.2521 1.342 0.05664 0.3372-0.233 0.08544-0.5661 0.4551-1.311 0.2798-0.5632 0.2612-0.4309 0.2402-1.016 0.1109-0.844 0.7053-2.165 1.078-2.682l-2.148 0.8457h-0.7109l-0.2871-0.3418c-0.15-0.1973-0.2322-0.4726-0.457-0.5215l-0.2695 0.4922c-0.5685-0.4127-1.963-1.34-4.125-1.34zm-3 2.814c-0.4427-0.01127-1.102 0.2244-1.773 0.625-0.5403 0.3226-1.057 0.5566-1.711 0.9629-0.3351 0.824-0.5101 1.704-0.5156 2.594 0.00296 0.3923 0.0389 0.7836 0.1074 1.17 0.7573-0.7925 2.151-0.7089 2.682 0.3477 1.116 2.242 2.443 3.096 5.582 3.102 1.754-0.09933 1.909-0.3411 3.256-0.9531 0.8397-0.464 1.783-1.033 1.949-1.32 0.4131-1.132 0.4525-2.142 0.4082-2.805-0.221 0.2212-2.325 0.7408-4.303-1.004-0.07391 0.2471-0.07193 0.6245-0.05859 0.7031 0.1699 1.001 1.279 2.744 1.166 3.76-0.0465 0.4164-0.2452 0.7761-0.7891 1-2.28 0.7202-3.704-3.394-3.82-4.168-0.2444-1.401-0.3188-2.599-0.7637-3.316-0.3033-0.4889-0.8733-0.6835-1.416-0.6973zm7.254 1.463c0.2257 0.08699 0.4174 0.0633 0.6836 0.2852-0.02783 0.1755-0.03132 0.2684-0.01758 0.375-0.1691-0.2667-0.437-0.4487-0.666-0.6602zm1.293 1.334 0.4199 0.03516c-0.1014 0.09737-0.2033 0.1631-0.3047 0.1699-0.06345 0.0038-0.1215-2e-3 -0.3809-0.05664 0.07227-0.1034 0.2698-0.1533 0.2656-0.1484zm-11.16 3.025c-0.4781-0.01197-1.05 0.4444-0.791 1.191 0.9499 2.315 3.534 4.168 6.404 4.168 0.7667 0 1.367-0.01652 2.098-0.1133 1.569-0.2266 3.06-0.568 3.916-1.668 0.545-0.7786 0.5001-1.083 0.07227-1.77-1.216 1.56-2.771 2.07-4.693 2.174-3.348 0-5.136-0.9232-6.498-3.658-0.09174-0.2161-0.2905-0.3188-0.5078-0.3242z" fill="currentColor"/>
</svg>
