<svg width="16" height="16" version="1.1" xmlns="http://www.w3.org/2000/svg">
  <defs>
    <style id="current-color-scheme" type="text/css">.ColorScheme-Text { color:#282828; } .ColorScheme-Highlight { color:#458588; }</style>
  </defs>
  <path class="ColorScheme-Text" d="m9.1497 1.1354c-1.5062-0.0012-1.9078 0.88535-2.4754 0.68239-2.0753-0.74081-3.9133 0.53817-5.8815 0.67261-0.3354 0.02289-0.59605 0.16311-0.7215 0.41843 1.2374 1.0573 2.8046 1.3029 4.3446 1.4234 0.69258 0.05423 0.66533 0.57776 1.7206 1.4606 0.68022 0.55207 2.2341 1.1811 3.4061 1.398 1.674 0.279 3.3317 1.777 4.1941 1.7832 0.59259 0.0042 1.2346-0.54537 2.2642-1.4606v-2.6083c-0.57733-0.26059-1.1799-0.44091-1.7813-0.65697-2.8661-1.0309-2.2909-3.1044-5.07-3.1128zm0.021508 0.47122c1.3995 5.34e-4 2.534 1.1345 2.534 2.534 3.4e-5 1.4939-1.2185 2.5171-2.534 2.534-1.3735-0.0071-2.5288-1.1317-2.534-2.534 5.342e-4 -1.3995 1.1345-2.534 2.534-2.534zm-9.1662 2.4421c0.09325 0.86777 0.60553 1.5783 1.089 2.2857 1.1763 1.7219 2.7836 3.0688 4.108 4.6535 1.0812 1.2934 3.0178 1.9873 3.3161 3.8734 5.977 0.05642 7.1924-0.61813 7.4359-4.7454 0.0227-0.38522 0.03333-0.8163 0.0391-1.267-0.76648 0.74052-1.2704 1.1159-2.2642 1.1262-1.2315-0.01054-2.9922-1.4802-4.3524-1.7969h-0.00391c-1.21-0.26086-2.409-0.42351-3.8675-1.6072l-0.0039-4e-3c-0.99146-0.82761-0.95757-1.2821-1.3667-1.2729-1.556 0.03514-2.8151-0.4868-4.1294-1.2454zm9.1153-1.5672c-0.74027 0.024343-1.3989 0.54514-1.5672 1.3015-0.19948 0.89648 0.36577 1.7859 1.2623 1.9853 0.89648 0.19952 0.16206-0.72731 0.36154-1.6238 0.19948-0.89644 1.258-1.4243 0.36154-1.6238-0.14008-0.031169-0.28104-0.043807-0.41813-0.039297z" fill="currentColor"/>
</svg>
