<svg width="16" height="16" version="1.1" xmlns="http://www.w3.org/2000/svg">
  <defs>
    <style id="current-color-scheme" type="text/css">.ColorScheme-Text { color:#282828; } .ColorScheme-Highlight { color:#458588; }</style>
  </defs>
  <path class="ColorScheme-Text" d="m5 1c-0.4986 0-1 0.39391-1 0.88281v2.1172h7.666c0.73866 0 1.334 0.5953 1.334 1.334v5.666c0.499 0 1-0.39482 1-0.88281v-7.1172l2-2zm-5 4 2 2v7.1172c0 0.488 0.5014 0.88281 1 0.88281h8c0.4986 0 1-0.39401 1-0.88281v-8.1172c0-1-1-1-1-1zm4.5 3h5c0.277 0 0.5 0.223 0.5 0.5 0 0.277-0.223 0.5-0.5 0.5h-5c-0.277 0-0.5-0.223-0.5-0.5 0-0.277 0.223-0.5 0.5-0.5zm0 2h5c0.277 0 0.5 0.223 0.5 0.5s-0.223 0.5-0.5 0.5h-5c-0.277 0-0.5-0.223-0.5-0.5s0.223-0.5 0.5-0.5zm0 2h3c0.277 0 0.5 0.223 0.5 0.5s-0.223 0.5-0.5 0.5h-3c-0.277 0-0.5-0.223-0.5-0.5s0.223-0.5 0.5-0.5z" fill="currentColor"/>
</svg>
