<svg width="16" height="16" version="1.1" xmlns="http://www.w3.org/2000/svg">
  <defs>
    <style id="current-color-scheme" type="text/css">.ColorScheme-Text { color:#282828; } .ColorScheme-Highlight { color:#458588; }</style>
  </defs>
  <path class="ColorScheme-Text" d="m2.245 1.063c-0.7892 0.01871-2.016 1.964-2.029 2.366v0.6688c0 0.8438 0.7903 1.589 1.507 1.589 0.8614 0 1.581-0.7145 1.581-1.563 0 0.8482 0.6911 1.563 1.555 1.563 0.8614 0 1.533-0.7145 1.533-1.563 0 0.8482 0.7373 1.563 1.608 1.563 0.8706 0 1.608-0.7145 1.608-1.563 0 0.8482 0.6717 1.563 1.533 1.563 0.8614 0 1.555-0.7145 1.555-1.563 0 0.8482 0.7174 1.563 1.578 1.563 0.7193 0 1.51-0.7451 1.51-1.589v-0.6688c-0.0156-0.4027-1.35-1.964-2.032-2.366-3.752-0.089-7.752-0.089-11.51 0zm4.137 4.225c-0.1307 0.2199-0.6139 0.9042-1.568 0.9042-0.5704 0-1.194-0.2727-1.556-0.8998-0.3604 0.641-1.3 1.024-1.75 0.8643-0.07621 0.8082-0.1139 2.672-0.1139 2.672s-0.1493 4.907 0.6692 5.741c2.471 0.5734 9.39 0.5745 11.87 0 0.8186-0.8331 0.6537-4.226 0.6692-5.741 0.0115-0.8925-0.0446-1.783-0.1143-2.672-0.4326 0.1617-1.383-0.21-1.748-0.8643h-2e-3c-0.3152 0.5602-0.9085 0.8998-1.553 0.8998-0.683 0-1.256-0.3779-1.563-0.8998l-0.00496-0.00802c-0.4782 0.8564-1.433 0.9306-1.616 0.9051-0.7572 5.7e-5 -1.14-0.383-1.618-0.9053zm-1.3 1.68c0.5141 0.00206 0.9703 0 1.537 0.6182 1.177-0.1194 2.197-0.0567 2.756 0 0.5676-0.6182 1.023-0.6182 1.537-0.6182 0.7199 0 1.397 0.505 1.894 1.903l0.7271 2.611c0.5394 1.943-0.1727 1.992-1.059 1.992-1.317-0.04861-2.047-1.006-2.047-1.963-1.452 0.243-3.442 0.2382-4.861 0 0 0.9577-0.7295 1.915-2.047 1.963-0.8891-2e-3 -1.601-0.04861-1.062-1.992l0.7271-2.611c0.4983-1.397 1.176-1.903 1.898-1.903zm1.28 3.222 0.9066-0.0355v0.7903c0 0.02916 1.457 0.02814 1.457 0v-0.7903l0.909 0.0355c-0.2505-0.4509-1.637-1.725-1.637-1.725s-1.385 1.274-1.635 1.725z" fill="currentColor"/>
</svg>
