<svg width="16" height="16" version="1.1" xmlns="http://www.w3.org/2000/svg">
  <defs>
    <style id="current-color-scheme" type="text/css">.ColorScheme-Text { color:#282828; } .ColorScheme-Highlight { color:#458588; }</style>
  </defs>
  <path class="ColorScheme-Text" d="m8.388 3.814q-0.6501 0-0.9896-0.3465t-0.3395-0.9966q0-0.679 0.3894-1.074 0.3885-0.3964 1.054-0.3964 0.6221 0 0.9686 0.3535t0.3465 0.9896q0 0.679-0.3824 1.075-0.3815 0.3955-1.046 0.3955zm-1.655 11.19-0.6641-0.6081 0.028-0.2118q0.6081-0.5941 0.8208-1.245 0.2118-0.6501 0.2118-1.908v-3.903q0-0.4664-0.09888-0.6431t-0.3675-0.1768q-0.1698 0-0.2905 0.014-0.1199 0.014-0.1619 0.028l0.1129-1.145q1.145-0.1698 2.121-0.3325t1.301-0.2188l0.1838 0.3106q-0.3815 0.8628-0.3815 6.731 0 0.9756-0.7639 1.874-0.7639 0.8978-2.051 1.435z" fill="currentColor"/>
</svg>
