<svg width="16" height="16" version="1.1" xmlns="http://www.w3.org/2000/svg">
  <defs>
    <style type="text/css" id="current-color-scheme">.ColorScheme-Text { color:#282828; } .ColorScheme-Highlight { color:#458588; }</style>
  </defs>
  <path class="ColorScheme-Text" fill="currentColor" d="m9.223 1.138c0.00163 0.00757 0.1567 0.7637-0.2734 1.543-0.4398 0.7991-2.115 1.267-2.791 2.736-0.6821 1.489 1.397 3.113 1.486 3.182 0.09697 0.07463 0.226-0.03699 0.1702-0.1444-0.007513-0.01449-0.7534-1.462-0.7257-2.502 0.01867-0.6894 1.743-1.473 2.428-2.586 0.7152-1.162-0.0813-2.306-0.08942-2.318-0.07021-0.09862-0.2307-0.03165-0.2046 0.09036zm-1.368 5.007c0 1.199 0.7216 1.563 0.8307 1.912 0.08118 0.2664-0.1117 0.7484-0.1926 0.9114-0.05245 0.1054 0.07233 0.2132 0.1685 0.1462 0.04436-0.03085 1.084-0.7665 0.8976-1.653-0.1794-0.8695-0.9419-1.071-0.5228-1.83 0.2904-0.5236 1.605-1.517 1.618-1.527 0.1063-0.08009 0.0135-0.2464-0.1031-0.2021-0.1166 0.04431-2.697 1.04-2.697 2.241zm4.214 2.229c-0.501 0-0.9774 0.2508-0.9975 0.2613-0.1045 0.05598-0.06249 0.2166 0.05505 0.2167 0.01063 0 1.069 0.0091 1.164 0.6139 0.08491 0.5218-1.002 1.368-1.427 1.65-0.106 0.07014-0.0292 0.2328 0.08774 0.2081 0.101-0.02162 2.47-0.5456 2.22-1.926-0.1529-0.8461-0.6833-1.023-1.102-1.023zm-8.132 0.7807c-0.04423 0.1324-0.02176 0.2638 0.06191 0.3801 0.4515 0.627 2.545 0.6219 3.435 0.5898 2.429-0.08698 3.33-0.8449 3.367-0.877 0.09123-0.07902 0.01007-0.2277-0.1049-0.196-0.8556 0.2337-2.453 0.3164-3.561 0.3164-1.24 0-1.871-0.09051-2.025-0.1565 0.07933-0.109 0.5682-0.3037 1.174-0.423 0.1355-0.02659 0.1109-0.227-0.133-0.2271-0.2439-4.53e-5 -2.028 0.02974-2.214 0.5933zm0.9584 1.605c0.04526 0.5389 1.544 0.7188 2.258 0.7188 1.396 0 3.186-0.4375 3.204-0.4419 0.09277-0.02264 0.1181-0.15 0.03783-0.2064l-0.5675-0.3973c-0.02772-0.01941-0.06377-0.02581-0.0963-0.0172-1.125 0.2865-2.226 0.313-2.572 0.313-0.8626 0-1.426-0.101-1.508-0.1754-0.03703-0.083 0.1027-0.1065 0.141-0.1462 0.1346-0.04982 0.0704-0.2531-0.2838-0.1678-0.3542 0.08533-0.6331 0.2785-0.6129 0.5204zm0.4023 1.355c-0.01421 0.1277 0.02194 0.2449 0.1084 0.3474 0.241 0.2857 0.8911 0.4557 1.988 0.5194 1.372 0.082 2.463-0.3005 2.765-0.4437 0.08002-0.03787 0.08989-0.1525 0.01031-0.2013l-0.7188-0.4385c-0.02493-0.0152-0.05411-0.0213-0.08254-0.01548-0.1591 0.0329-1.075 0.2167-1.634 0.2167-0.6875 0-1.451-0.1121-1.597-0.1857-0.00837-0.0538 0.09988-0.07178 0.06706-0.1772-0.01523-0.04902-0.06028-0.08151-0.1241-0.08008-0.06379 0.0014-0.7349 0.03101-0.7819 0.4585zm-0.3576 0.5262c-0.01542 0.0021-0.0684 0.0049-0.129 0.0085-0.9017 0.05507-1.944 0.1784-1.998 0.6431-0.01651 0.1416 0.02601 0.2699 0.1255 0.3818 0.2435 0.2737 0.9438 0.638 4.198 0.638 3.194-0.0027 4.908-0.571 5.238-0.9287 0.2603-0.2816 0.04821-0.5533-0.0998-0.6483-0.1106-0.07113-0.2355 0.07119-0.1497 0.1703 0.02014 0.02592 0.03139 0.06827-0.02752 0.1273-0.2091 0.1954-2.335 0.6342-4.628 0.6346-1.985 0-3.438-0.2714-3.629-0.4299 0.0735-0.1056 0.5867-0.2742 1.133-0.3697 0.1455-0.02539 0.1128-0.246-0.03443-0.227zm7.93 0.8685c-0.0047 5e-3 -0.4838 0.5081-1.928 0.8031-0.5528 0.1108-1.591 0.1668-3.085 0.1668-1.497 0-2.92-0.05787-2.934-0.05847-0.1375-0.0067-0.1645 0.1935-0.03094 0.2253 0.01481 0.003508 1.506 0.3542 3.546 0.3542 0.9786 0 1.931-0.08042 2.83-0.2373 1.677-0.2942 1.795-1.126 1.799-1.161 0.01321-0.1115-0.1236-0.1723-0.1977-0.09242z"/>
</svg>
