<svg width="16" height="16" version="1.1" xmlns="http://www.w3.org/2000/svg">
  <defs>
    <style id="current-color-scheme" type="text/css">.ColorScheme-Text { color:#282828; } .ColorScheme-Highlight { color:#458588; }</style>
  </defs>
  <path class="ColorScheme-Text" d="m10.303 1c-2.433 0.039386-7.6894 0.41529-8.6504 1.9685-0.168 0.44739-0.46824 2.0202-0.61524 3.223-0.034 0.27772-0.06661 0.63242-0.09961 0.95862-0.601 0.62008-0.9375 1.4521-0.9375 2.3216 0 0.67865 0.2078 1.342 0.5918 1.8995-6e-3 0.09391-0.03516 0.49509-0.03516 0.49509-0.044 1.5391-0.0105 1.5943 1.4375 2.2032 1.157 0.48677 2.4095 0.74054 4.3125 0.87183 1.627 0.11311 3.2743 0.06098 4.5293-0.14202 2.206-0.35649 4.122-1.0864 4.334-1.651 0.059-0.15452 0.14631-0.78927 0.19531-1.4083 0.01-0.12523 0.01544-0.23005 0.02344-0.34518 0.396-0.56049 0.60933-1.2334 0.61133-1.9231-1e-3 -0.82105-0.30366-1.612-0.84766-2.221-0.096-0.62715-0.21319-1.3411-0.36719-2.2723-0.273-1.4452-0.5967-2.8276-0.7207-3.0751-0.364-0.72006-0.81011-0.859-2.9121-0.90141-0.212-0.00606-0.50066-0.008081-0.84766-0.00202zm-0.39648 1.2486c0.05001-0.01337 0.36462 0.5019 0.86328 1.1993 0.77535-0.33513 1.5876-0.66405 2.5137-0.92508 0.02105 0.048223-1.1989 0.55571-2.3984 1.0849 0.79484 1.0924 1.3393 1.669 1.2734 1.6865-0.06379 0.017118-0.8015-0.7145-1.4414-1.6115-1.6187 0.71819-2.2125 1.0588-2.2383 1 0.63889-0.50588 1.385-0.83838 2.125-1.1638-0.4809-0.70027-0.74653-1.257-0.69727-1.2703zm-6.4395 4.1382c1.618 0 2.9336 1.3256 2.9336 2.9607 0 1.635-1.3156 2.9646-2.9336 2.9646-1.619 0-2.9336-1.3296-2.9336-2.9646 0-1.635 1.3146-2.9607 2.9336-2.9607zm9.0664 0c1.619 0 2.9336 1.3256 2.9336 2.9607 0 1.635-1.3146 2.9646-2.9336 2.9646-1.619 0-2.9336-1.3296-2.9336-2.9646 0-1.635 1.3146-2.9607 2.9336-2.9607zm-9.334 2.1539c-0.295 0-0.5332 0.24056-0.5332 0.53848 0 0.29691 0.2382 0.53848 0.5332 0.53848 0.294 0 0.5332-0.24157 0.5332-0.53848 0-0.29792-0.2392-0.53848-0.5332-0.53848zm9.6016 0c-0.295 0-0.53516 0.24056-0.53516 0.53848 0 0.29691 0.24016 0.53848 0.53516 0.53848 0.294 0 0.53125-0.24157 0.53125-0.53848 0-0.29792-0.23725-0.53848-0.53125-0.53848zm-3.689 4.8444c-0.68991 0.31219-1.6862 0.24952-2.3184-0.14596-0.57128-0.35733-0.22728-0.51738 0.48828-0.22683 0.56998 0.23152 1.2169 0.21227 1.6836-0.04931 0.74887-0.41951 0.98862 0.041 0.14648 0.42211z" fill="currentColor"/>
</svg>
