<svg width="16" height="16" version="1.1" xmlns="http://www.w3.org/2000/svg">
  <defs>
    <style id="current-color-scheme" type="text/css">.ColorScheme-Text { color:#282828; } .ColorScheme-Highlight { color:#458588; }</style>
  </defs>
  <path class="ColorScheme-Text" d="m7.049 1c-0.08423 0.8315-0.1983 1.662-0.3746 2.479-0.1883 0.2556-0.6531 0.01231-0.8281 0.332-0.2097 0.344 0.262 0.4079 0.4318 0.5339-0.1661 0.2339-0.2457 0.5115-0.2377 0.7997-0.01343 0.3026-0.02023 0.6055-0.0304 0.9083-0.2317 0.01606-0.4675 0.00663-0.6953 0.05469-0.00359 0.5658 0.1219 1.129 0.08203 1.695-0.1409 0.2848-0.4975 0.357-0.7643 0.4856-0.3438 0.1013-0.6764 0.2343-1.015 0.3488-0.5603 0.05551-1.163 0.309-1.439 0.8294-0.0625 0.194-0.1507 0.3876-0.1778 0.5887 0.00337 1.349-0.00678 2.698 0.00514 4.047 0.03974 0.5415 0.5725 0.9563 1.105 0.8975 3.313-8.45e-4 6.627 0.0017 9.94-0.0013 0.558-0.01152 1.006-0.5544 0.9453-1.103-0.0045-0.7294 0.01751-1.462-0.05146-2.189-0.08654-0.3888-0.3379-0.7161-0.4635-1.093-0.3791-1.009-0.7875-2.009-1.163-3.019-0.1127-0.3062-0.5929-0.1573-0.642-0.5082-0.09712-0.3601 0.1344-0.7804-0.1453-1.091-0.2207-0.2481-0.3878-0.5913-0.707-0.7187-0.3396 0.01105-0.6508-0.1304-0.9356-0.3013-0.09602-0.1087-0.405-0.1157-0.4064-0.2618 0.2126-0.8118 0.608-1.558 0.9835-2.303 0.06434-0.3406-0.4333-0.419-0.6424-0.5896-0.7567-0.4004-1.569-0.7311-2.427-0.8196-0.1156-0.004144-0.2314-0.001146-0.3471-0.002054zm-0.2969 2.557c0.5965 0.09033 1.158 0.3377 1.718 0.5539 0.3132 0.1496 0.6735 0.2498 0.9229 0.5 0.06108 0.1958-0.04333 0.7225-0.3049 0.415-0.7753-0.5052-1.531-1.076-2.406-1.392-0.01665-0.04107 0.03243-0.08112 0.07082-0.07672zm2.666 1.734c0.404-0.04107 0.3227 0.3561 0.503 0.5785 0.1667 0.3169 0.06354 0.7249 0.3319 1.005 0.1099 0.2085 0.6344 0.5304 0.3074 0.715-0.4629 0.07838 0.06528 0.5887 0.1231 0.8441 0.1574 0.3938 0.3283 0.7944 0.3788 1.219-0.1351 0.3237-0.4116-0.2196-0.5611-0.3322-0.3901-0.4639-1.011-0.6275-1.423-1.063-0.1118-0.3239 0.3287-0.5948 0.4648-0.8768 0.1884-0.1929 0.3164-0.4618-0.01977-0.5814-0.1731-0.08938-0.3548-0.2816-0.07213-0.3158-0.02699-0.2935-0.3429-0.5636-0.1443-0.8655 0.05997-0.09042-0.03698-0.3253 0.111-0.3265zm0.7734 0.2441c0.2786-0.06684 0.2627 0.4598 0.04411 0.2191-0.02144-0.05209-0.1288-0.1785-0.04411-0.2191z" fill="currentColor"/>
</svg>
