<svg width="16" height="16" version="1.1" xmlns="http://www.w3.org/2000/svg">
  <defs>
    <style type="text/css" id="current-color-scheme">.ColorScheme-Text { color:#282828; } .ColorScheme-Highlight { color:#458588; }</style>
  </defs>
  <path class="ColorScheme-Text" fill="currentColor" d="m1.918 1c-0.5086 0-0.918 0.4094-0.918 0.918v1.951h5.012c-1.141 0.5497-2.004 1.546-2.385 2.754h-2.627v2.754h2.627c0.381 1.208 1.244 2.204 2.385 2.754h-5.012v1.951c0 0.5086 0.4094 0.918 0.918 0.918h12.16c0.5086 0 0.918-0.4094 0.918-0.918v-1.951h-5.012c1.141-0.5497 2.004-1.546 2.385-2.754h2.627v-2.754h-2.627c-0.3797-1.207-1.24-2.203-2.379-2.754h5.006v-1.951c0-0.5086-0.4094-0.918-0.918-0.918zm1.492 0.8027c0.4436 0 0.8027 0.3611 0.8027 0.8047-2e-7 0.4436-0.3591 0.8027-0.8027 0.8027-0.4436 0-0.8027-0.3591-0.8027-0.8027 3e-7 -0.4436 0.3591-0.8047 0.8027-0.8047zm4.59 2.295c2.155-3.89e-4 3.903 1.747 3.902 3.902 3.89e-4 2.155-1.747 3.903-3.902 3.902-2.155 3.89e-4 -3.903-1.747-3.902-3.902-3.889e-4 -2.155 1.747-3.903 3.902-3.902zm0 0.6895c-1.774 1.239e-4 -3.213 1.439-3.213 3.213 1.237e-4 1.774 1.439 3.213 3.213 3.213 1.774-1.24e-4 3.213-1.439 3.213-3.213-1.24e-4 -1.774-1.439-3.213-3.213-3.213zm1.734 1.387c0.4808 0.4587 0.7794 1.106 0.7793 1.826 1.85e-4 1.394-1.119 2.512-2.514 2.512-0.9256 2.94e-4 -1.73-0.4916-2.166-1.23 0.5991-1.905 3.423-1.285 3.9-3.107z"/>
</svg>
