<svg width="16" height="16" version="1.1" xmlns="http://www.w3.org/2000/svg">
  <defs>
    <style id="current-color-scheme" type="text/css">.ColorScheme-Text { color:#282828; } .ColorScheme-Highlight { color:#458588; }</style>
  </defs>
  <path class="ColorScheme-Text" d="m6.5 1c-3.038 0-5.5 2.462-5.5 5.5 0.0073 2.838 2.173 5.205 5 5.463v3.037h9v-9h-3.023c-0.2585-2.832-2.633-5-5.477-5zm0 2c1.763 3e-7 3.218 1.305 3.461 3h-3.961v3.961c-1.695-0.2433-3-1.698-3-3.461 0-1.933 1.567-3.5 3.5-3.5zm1.5 5h1.654a3.5 3.5 0 0 1-1.654 1.654v-1.654zm3.783 0h1.217v5h-5v-1.217a5.5 5.5 0 0 0 3.783-3.783z" fill="currentColor"/>
</svg>
