<svg width="16" height="16" version="1.1" xmlns="http://www.w3.org/2000/svg">
  <defs>
    <style id="current-color-scheme" type="text/css">.ColorScheme-Text { color:#282828; } .ColorScheme-Highlight { color:#458588; }</style>
  </defs>
  <path class="ColorScheme-Text" d="m1 1s-1 3e-6 -1 1v12c0 1 1 1 1 1h14s1-3e-6 1-1v-12c0-1-1-1-1-1zm0 1.5h2v2h-2zm12 0h2v2h-2zm-5 1.631c0.3039 0 0.6071 0.1908 0.7383 0.5703l0.5625 1.686c0.6413-1e-7 1.284-4.8e-6 1.926 0 0.741 0.0232 1.079 1.016 0.4258 1.443l-1.502 1.066c0.1953 0.6645 0.3898 1.33 0.5859 1.994 0.2099 0.6703-0.5608 1.24-1.178 0.8496-0.5203-0.3629-1.039-0.7276-1.559-1.092-0.5192 0.3646-1.038 0.7296-1.559 1.092-0.617 0.3905-1.388-0.179-1.178-0.8496 0.1961-0.6639 0.3908-1.33 0.5859-1.994l-1.502-1.066c-0.6521-0.4264-0.3152-1.42 0.4277-1.443h1.924l0.5625-1.686c0.1312-0.3795 0.4344-0.5703 0.7383-0.5703zm-7 1.369h2v2h-2zm12 0h2v2h-2zm-12 3h2v2h-2zm12 0h2v2h-2zm-12 3h2v2h-2zm12 0h2v2h-2z" fill="currentColor"/>
</svg>
