<svg width="16" height="16" version="1.1" xmlns="http://www.w3.org/2000/svg">
  <defs>
    <style type="text/css" id="current-color-scheme">.ColorScheme-Text { color:#282828; } .ColorScheme-Highlight { color:#458588; }</style>
  </defs>
  <path class="ColorScheme-Text" fill="currentColor" d="m2 1c-0.554 0-1 0.446-1 1v4c0 0.554 0.446 1 1 1h1.898l-1-1h-0.2324c-0.3693 0-0.666-0.2967-0.666-0.666v-2.668c0-0.3693 0.2967-0.666 0.666-0.666h2.668c0.3693 0 0.666 0.2967 0.666 0.666v0.2305l1 1.002v-1.898c0-0.554-0.446-1-1-1zm8 0c-0.554 0-1 0.446-1 1v1.898l1-1v-0.2324c0-0.3693 0.2967-0.666 0.666-0.666h2.668c0.3693 0 0.666 0.2967 0.666 0.666v2.668c0 0.3693-0.2967 0.666-0.666 0.666h-0.2305l-1.002 1h1.898c0.554 0 1-0.446 1-1v-4c0-0.554-0.446-1-1-1zm-6.65 2.35c-0.466 0.466-0.466 1.222 0 1.688l2.963 2.963-2.963 2.963c-0.466 0.466-0.466 1.222 0 1.688 0.466 0.4661 1.222 0.4661 1.688 0l2.963-2.963 2.963 2.963c0.466 0.4661 1.222 0.4661 1.688 0 0.4661-0.466 0.4661-1.222 0-1.688l-2.963-2.963 2.963-2.963c0.4661-0.466 0.4661-1.222 0-1.688-0.466-0.466-1.222-0.466-1.688 0l-2.963 2.963-2.963-2.963c-0.4657-0.4657-1.222-0.4657-1.688 0zm-1.35 5.65c-0.554 0-1 0.446-1 1v4c0 0.554 0.446 1 1 1h4c0.554 0 1-0.446 1-1v-1.898l-1 1v0.2324c0 0.3693-0.2967 0.666-0.666 0.666h-2.668c-0.3693 0-0.666-0.2967-0.666-0.666v-2.668c0-0.3693 0.2967-0.666 0.666-0.666h0.2324l1-1zm10.1 0 1 1h0.2324c0.3693 0 0.666 0.2967 0.666 0.666v2.668c0 0.3693-0.2967 0.666-0.666 0.666h-2.668c-0.3693 0-0.666-0.2967-0.666-0.666v-0.2324l-1-1v1.898c0 0.554 0.446 1 1 1h4c0.554 0 1-0.446 1-1v-4c0-0.554-0.446-1-1-1z"/>
</svg>
