<svg width="16" height="16" version="1.1" xmlns="http://www.w3.org/2000/svg">
  <defs>
    <style id="current-color-scheme" type="text/css">.ColorScheme-Text { color:#282828; } .ColorScheme-Highlight { color:#458588; }</style>
  </defs>
  <path class="ColorScheme-Text" d="m8.56 1c-0.08801 0-0.07134 0.3465 0.02131 0.4252 0.1047 0.08801 0.2585 0.3974 0.3039 0.6105l0.0352 0.1677-0.2872 0.06114c-0.6865 0.1455-0.8199 0.6179-0.3771 1.335 0.1556 0.2511 0.1556 0.2585 0.126 0.8042-0.02316 0.4086-0.01112 0.6161 0.04632 0.8125 0.08894 0.3039 0.3363 0.5837 0.5948 0.6717 0.2872 0.0982 1.064 0.05188 1.354-0.07967 0.3159-0.1445 0.7282-0.5744 0.8421-0.8801 0.1353-0.3604 0.08431-0.8579-0.1316-1.291-0.2075-0.4178-0.7476-0.9857-1.123-1.179-0.1983-0.1019-0.2918-0.1899-0.3585-0.3363-0.0945-0.2085-0.945-1.121-1.046-1.121zm-4.919 1.647c-0.01204-9.264e-4 -0.02224 0.00278-0.03243 0.01297-0.1028 0.1028-0.1862 0.6448-0.177 1.15 0.00834 0.479-0.00371 0.5772-0.0982 0.7365-0.315 0.5299-0.3678 1.501-0.113 2.051 0.2261 0.4873 0.5994 0.7847 1.17 0.9264 0.3974 0.09913 0.6661 0.08523 1.04-0.05096 1.031-0.378 1.209-1.113 0.4697-1.942-0.3002-0.3363-0.4391-0.6105-0.4391-0.8588 0-0.3029-0.1112-0.5985-0.2974-0.7977-0.1686-0.1797-0.1779-0.1816-0.4994-0.1529-0.1797 0.01575-0.3919 0.04447-0.4706 0.06392-0.1316 0.03335-0.1519 0.01575-0.2464-0.1946-0.05651-0.126-0.1038-0.3382-0.1047-0.4725-9.265e-4 -0.2075-0.1195-0.4641-0.202-0.4716zm10.46 0.8255c-0.1297-0.02594-0.1695 0.2752-0.06578 0.4938 0.04818 0.1001 0.07967 0.2714 0.07041 0.3789l-0.01575 0.1964-0.277 0.00463c-0.214 0.00463-0.3178 0.03891-0.4679 0.1529-0.176 0.1343-0.4447 0.5874-0.4456 0.7532 0 0.03613-0.164 0.3928-0.3632 0.7912-0.2001 0.3984-0.3798 0.8042-0.4012 0.9005-0.1121 0.5179 0.201 0.9051 0.9496 1.175 0.3159 0.114 0.6467 0.1223 1.005 0.02687 0.5827-0.1547 0.957-0.4484 1.184-0.9292 0.1195-0.2538 0.1353-0.3567 0.1334-0.8171-0.003706-0.5976-0.1158-0.9746-0.4215-1.404-0.09542-0.1343-0.2122-0.3956-0.2594-0.5809-0.09542-0.378-0.5012-1.117-0.6254-1.141zm-13.45 4.117c-0.01297-0.00278-0.02316-9.264e-4 -0.02965 0.00649-0.1084 0.1158 0.05373 1.237 0.2168 1.505 0.03984 0.06485 0.09635 0.2891 0.1269 0.4966 0.139 0.9403 0.7949 1.818 1.54 2.062 0.2538 0.08338 0.806 0.05188 1.163-0.06485 0.2946-0.09635 0.3937-0.1631 0.6161-0.4132 0.4614-0.5197 0.5457-1.033 0.2362-1.449-0.08245-0.1102-0.3326-0.3159-0.5568-0.4567-0.2233-0.1417-0.6133-0.4021-0.8653-0.579-0.7375-0.5188-0.8143-0.567-1.018-0.6272-0.2576-0.0769-0.5207 0.004632-0.7347 0.2279l-0.1695 0.1742-0.1038-0.1853c-0.05837-0.1028-0.1065-0.2381-0.1065-0.3011 0-0.1121-0.2196-0.3734-0.3141-0.3956zm9.408 0.8218c-0.3233 0.001853-0.6976 0.05373-1.128 0.1584-1.219 0.2937-1.795 0.6439-2.058 1.25-0.114 0.2613-0.1223 0.352-0.09172 0.8533 0.0315 0.5105 0.02316 0.5837-0.09635 0.8384-0.1214 0.2585-0.2622 0.4049-0.9061 0.9459-0.2038 0.1714-0.2223 0.2122-0.2455 0.5271-0.02131 0.2937 0 0.391 0.1473 0.705 0.3168 0.6707 0.8866 1.121 1.601 1.261 0.3382 0.06578 0.5614 0.06578 1.142 0.0019 2.256-0.252 4.85-1.064 5.591-1.754 0.3873-0.3595 0.541-0.6921 0.567-1.219 0.05003-1.006-0.4039-1.609-1.213-1.613-0.6328-0.002826-1.27-0.3706-1.531-0.8848-0.1927-0.3808-0.5855-0.7606-0.9515-0.9218-0.2298-0.101-0.5031-0.1492-0.8273-0.1482z" fill="currentColor"/>
</svg>
