<svg width="16" height="16" version="1.1" xmlns="http://www.w3.org/2000/svg">
  <defs>
    <style id="current-color-scheme" type="text/css">.ColorScheme-Text { color:#282828; } .ColorScheme-Highlight { color:#458588; }</style>
  </defs>
  <path class="ColorScheme-Text" d="m9.984 1c-2.348 0.00608-3.792 2.428-2.943 4.34 0.9982 2.25 4.148 2.056 4.887-0.1719 0.0861-0.2621-0.05637-0.5444-0.3184-0.6309-0.2615-0.08627-0.5436 0.0552-0.6309 0.3164-0.4513 1.361-2.395 1.497-3.023 0.08008-0.6085-1.371 0.592-3.103 2.34-2.904 1.05 0.1196 1.956 0.945 2.166 2.074 0.4024 2.159-1.816 4.2-4.4 3.857-1.401-0.7703-3.198-0.4992-4.303 0.748l-0.668 0.752 0.748 0.6641-1.156 1.305c-0.2758 0.3112-0.2468 0.7848 0.06445 1.06 0.3112 0.2758 0.7848 0.2468 1.06-0.06445l1.156-1.305 1.494 1.324-1.156 1.305c-0.2758 0.3112-0.2468 0.7848 0.06445 1.06 0.3112 0.2758 0.7828 0.2468 1.059-0.06445l1.158-1.305 0.748 0.6621 0.6641-0.75 2e-3 -2e-3c1.112-1.254 1.158-3.085 0.207-4.385 2.633-0.2867 4.705-2.552 4.24-5.047-0.3429-1.84-1.951-2.924-3.459-2.92z" fill="currentColor"/>
</svg>
