<svg width="16" height="16" version="1.1" xmlns="http://www.w3.org/2000/svg">
  <defs>
    <style id="current-color-scheme" type="text/css">.ColorScheme-Text { color:#282828; } .ColorScheme-Highlight { color:#458588; }</style>
  </defs>
  <path class="ColorScheme-Text" d="m8 1c-1.401 1e-5 -2.536 0.3248-2.534 0.7251 0.001676 0.3995 1.136 0.7231 2.534 0.7231 1.398-1.01e-5 2.532-0.3236 2.534-0.7231 0.002154-0.4002-1.133-0.725-2.534-0.7251zm-2.534 1.488-2.3 0.8221 4.834 1.934 4.834-1.934-2.3-0.8221v1.046c-0.001677 0.3995-1.136 0.7231-2.534 0.7231-1.398-1e-5 -2.532-0.3236-2.534-0.7231zm-3.608 1.391 0.6379 7.766c0.01746 0.2098 0.1331 0.3984 0.311 0.5072l4.685 2.849v-8.867zm12.28 0-5.634 2.254v8.867l4.685-2.849c0.1779-0.1087 0.2936-0.2973 0.311-0.5072z" fill="currentColor"/>
</svg>
