<svg width="16" height="16" version="1.1" xmlns="http://www.w3.org/2000/svg">
  <defs>
    <style id="current-color-scheme" type="text/css">.ColorScheme-Text { color:#282828; } .ColorScheme-Highlight { color:#458588; }</style>
  </defs>
  <path class="ColorScheme-Text" d="m6.196 1.243c-0.3028 0.762-0.3199 1.855-0.1968 2.871 0.6075-0.3149 1.28-0.4831 1.965-0.4911 0.5696-0.9201 1.374-1.802 2.305-2.237-1.44-0.5321-3.049-0.4484-4.073-0.1437zm-2.786 1.482c-9.84e-5 0.00113 9.73e-5 0.0023 0 0.00342l0.00171-0.00171zm0 0.00342c-1.638 1.4-2.1 3.182-2.163 3.455 0.5082 0.6437 1.445 1.207 2.387 1.609 0.03284-0.6829 0.2251-1.349 0.5613-1.944-0.5128-0.9542-0.8741-2.095-0.7855-3.12zm6.956 1.586c0.5778 0.3711 1.06 0.8729 1.408 1.465 1.081 0.03399 2.246 0.2928 3.087 0.8813-0.06158-0.3857-0.4121-2.117-1.911-3.604-0.9754 0.1754-1.784 0.7081-2.584 1.258zm-4.119 1.321v4.682c-1.9e-6 0.2208 0.2263 0.3584 0.4073 0.2481 1.279-0.7809 2.559-1.561 3.838-2.341 0.1809-0.1104 0.1809-0.3858 0-0.4963-1.279-0.7813-2.559-1.562-3.838-2.343-0.1062-0.06609-0.4071-0.08291-0.4073 0.2498zm6.118 2.575c-0.0331 0.6823-0.2253 1.347-0.5613 1.942 0.5138 0.9553 0.8752 2.097 0.7855 3.123 1.653-1.412 2.115-3.234 2.166-3.458-0.5085-0.6441-1.448-1.205-2.391-1.607zm-11.23 1.131c0.06317 0.3962 0.4138 2.116 1.91 3.6 0.8091-0.1177 1.761-0.6453 2.579-1.258-0.5728-0.3728-1.05-0.8745-1.395-1.465-1.083-0.0329-2.251-0.288-3.094-0.8779zm8.863 2.543c-0.6074 0.3155-1.28 0.4843-1.965 0.4928-0.5698 0.9202-1.376 1.802-2.307 2.237 1.292 0.4766 2.885 0.4984 4.075 0.142 0.3025-0.7618 0.3203-1.855 0.1968-2.871z" fill="currentColor"/>
</svg>
