<svg width="16" height="16" version="1.1" xmlns="http://www.w3.org/2000/svg">
  <defs>
    <style id="current-color-scheme" type="text/css">.ColorScheme-Text { color:#282828; } .ColorScheme-Highlight { color:#458588; }</style>
  </defs>
  <path class="ColorScheme-Text" d="m8 0.9893c-0.3047 0-0.604 0.02278-0.8984 0.06055-0.3881 0.4609-0.8071 0.959-0.9766 1.166-0.2451 0.2995-0.4615 0.6088-0.6504 0.9258 0.1224-0.06361 0.2471-0.1237 0.375-0.1777 0.5623-0.272 1.164-0.3159 1.471-0.3223s0.3653 0.01858 0.04102 0.707c-0.3243 0.6884-0.3614 1.895 0.2285 3.021-0.6989 0.136-1.229-0.7275-1.771-0.8359-0.3308-0.06606-0.7012 0.4222-0.7012 0.6992 0 0.7077 0.8391 1.273 2.4 1.604 2.121 0.4495 2.644 0.8533 2.703 1.969 0.06821 1.299-0.6191 2.157-1.33 2.691 0.9819 0.2478 2.11 0.2884 3.369 0.04687 0.2166-0.0407 0.7324-0.1634 1.297-0.2988 0.9045-1.179 1.443-2.655 1.443-4.256 0-3.866-3.134-7-7-7zm-2.357 0.4297c-2.782 0.9966-4.64 3.632-4.643 6.588 2.77e-4 3.868 3.136 7.004 7.004 7.004 1.737-0.0027 3.411-0.6508 4.697-1.818-0.7572 0.274-1.556 0.4154-2.361 0.418-3.869 8.01e-4 -7.006-3.135-7.006-7.004 0.0027-1.978 0.8413-3.862 2.309-5.187zm6.734 3.689c0.01195-0.0024 0.02232-0.0023 0.0293 2e-3 0.1116 0.068 0.5824 1.091 0.8008 1.9s-0.0929 2.426-0.248 2.594c-0.08724 0.09432 0.08028-0.1237-1.006-1.27-0.8585-0.9059-0.9885-1.379-0.6289-2.102 0.1701-0.3418 0.8735-1.089 1.053-1.125zm-7.832 2.502c0.103 0.7228 0.3263 1.414 0.6641 2.043 0.00852-0.05098 0.02074-0.1087 0.04297-0.1816 0.1942-0.615 0.5993-0.9821 1.066-1.367 0.02172-0.02172-0.7701-0.1431-1.773-0.4941zm0.9844 2.564c0.4078 0.5983 0.9264 1.123 1.553 1.535-0.1176-0.2483-0.2599-0.4911-0.4277-0.7344-0.254-0.2462-0.7982-0.5676-1.125-0.8008z" fill="currentColor"/>
</svg>
