<svg width="16" height="16" version="1.1" xmlns="http://www.w3.org/2000/svg">
  <defs>
    <style id="current-color-scheme" type="text/css">.ColorScheme-Text { color:#282828; } .ColorScheme-Highlight { color:#458588; }</style>
  </defs>
  <path class="ColorScheme-Text" d="m4.792 10.98c1.526 1.392 2.087 4.023 2.455 4.023 3.447-1.571 4.522-6.08 7.786-4.234 0.4093 0.2324 0.7457 0.3782 0.7457 0.3238-0.6273-1.746-1.317-3.474-1.97-5.212-0.4142-0.6796-1.765-5.322-2.68-4.845-1.174 0.9119-1.633 5.192-6.337 9.945zm3.072-6.134c-0.00778 0-0.01653 0-0.02625 0.00486-1.385 0.6067-1.886 0.8828-2.295 1.268-0.2693 0.2576-0.489 0.5308-0.489 0.6115 0 0.2479 1.092 0.912 1.272 0.772 0.2345-0.1845 1.754-2.627 1.538-2.656m-7.623 4.096c-0.04667 0.04375 0.002916 0.1235 0.1099 0.1828 0.2719 0.1543 2.513 1.705 2.62 1.71 0.3901 0 2.616-1.843 2.606-2.227-0.00486-0.212-1.29-1.083-1.593-1.082-0.2354 5.5e-4 -3.584 1.266-3.743 1.417z" fill="currentColor"/>
</svg>
