<svg width="16" height="16" version="1.1" xmlns="http://www.w3.org/2000/svg">
  <defs>
    <style type="text/css" id="current-color-scheme">.ColorScheme-Text { color:#282828; } .ColorScheme-Highlight { color:#458588; }</style>
  </defs>
  <path class="ColorScheme-Text" fill="currentColor" d="m2.164 1c-0.6441 0-1.164 0.52-1.164 1.164v11.67c0 0.6441 0.52 1.164 1.164 1.164h11.67c0.6441 0 1.164-0.52 1.164-1.164v-11.67c0-0.6441-0.52-1.164-1.164-1.164h-11.67zm2.479 3h1.908l1.297 2.551c0.1195 0.2424 0.1979 0.4222 0.2422 0.541h0.01953c0.08505-0.1934 0.1736-0.3803 0.2676-0.5625l1.385-2.529h1.752l-2.434 3.965 2.496 4.035h-1.865l-1.496-2.801c-0.07044-0.1192-0.1293-0.2414-0.1777-0.3711h-0.02148c-0.04381 0.127-0.1045 0.2474-0.1758 0.3613l-1.539 2.811h-1.877l2.592-4.012-2.373-3.988z"/>
</svg>
