<svg width="16" height="16" version="1.1" xmlns="http://www.w3.org/2000/svg">
  <defs>
    <style id="current-color-scheme" type="text/css">.ColorScheme-Text { color:#282828; } .ColorScheme-Highlight { color:#458588; }</style>
  </defs>
  <path class="ColorScheme-Text" d="m2.537 1.303-1.5 3.5c-0.02558 0.06258-0.03821 0.1297-0.03711 0.1973h-0.003906v7h4v-6.941c0.00959-0.0858-0.00319-0.1726-0.03711-0.252l-1.504-3.504c-0.172-0.4006-0.7455-0.4017-0.9179-3e-4zm5.002 0-1.5 3.5c-0.02558 0.06258-0.03821 0.1297-0.03711 0.1973h-0.00391v7h4v-6.941c0.00959-0.0858-0.00319-0.1726-0.03711-0.252l-1.504-3.504c-0.172-0.4006-0.7455-0.4017-0.9179-3e-4zm4.998 0-1.5 3.5c-0.02558 0.06258-0.03821 0.1297-0.03711 0.1973h-0.0039v7h4v-6.941c0.0096-0.0858-0.0032-0.1726-0.03711-0.252l-1.504-3.504c-0.172-0.4006-0.7455-0.4017-0.9179-3e-4zm-9.541 1.465 0.7461 1.734h-1.488l0.7422-1.734zm5.002 0 0.7461 1.734h-1.488l0.7422-1.734zm4.998 0 0.7461 1.734h-1.488l0.7422-1.734zm-12 10.23v1c0 0.554 0.446 1 1 1h2c0.554 0 1-0.446 1-1v-1zm5.002 0v1c0 0.554 0.446 1 1 1h2c0.554 0 1-0.446 1-1v-1zm4.998 0v1c0 0.554 0.446 1 1 1h2c0.554 0 1-0.446 1-1v-1z" fill="currentColor"/>
</svg>
