<svg width="16" height="16" version="1.1" xmlns="http://www.w3.org/2000/svg">
  <defs>
    <style id="current-color-scheme" type="text/css">.ColorScheme-Text { color:#282828; } .ColorScheme-Highlight { color:#458588; }</style>
  </defs>
  <path class="ColorScheme-Text" d="m4 1v2h6v-2zm0 3c-1 0-1 1-1 1v9c0 1 1 1 1 1h4.6855c-0.64764-0.5223-1.1378-1.2139-1.416-1.998h-0.59375c-0.1939 0-0.34766-0.15766-0.34766-0.35156v-0.69922c0-0.1939 0.15376-0.34766 0.34766-0.34766 0-0.146-0.05128-0.23057-0.20117-0.35547-0.1498-0.1248-0.38974-0.25161-0.65234-0.38281-0.2627-0.1313-0.54712-0.2674-0.79102-0.4707-0.244-0.203-0.45312-0.51338-0.45312-0.89258v-0.69922c0-0.3865 0.31262-0.69922 0.69922-0.69922 0.3865 1e-7 0.69922 0.31272 0.69922 0.69922s-0.31262 0.69922-0.69922 0.69922c0 0.1458 0.05319 0.22862 0.20312 0.35352 0.1503 0.1248 0.3919 0.25161 0.6543 0.38281 0.1794 0.08956 0.36387 0.19089 0.54297 0.30469v-3.1406h-0.70117l0.70117-1.3984h0.70117l0.69922 1.3965h-0.69922v2.3027c0.17983-0.41608 0.42149-0.8026 0.7168-1.1465-0.01065-0.033529-0.01758-0.068456-0.01758-0.10547v-0.69922c0-0.1939 0.15766-0.35156 0.35156-0.35156h0.69922c0.11032 0 0.20611 0.053096 0.26953 0.13281 0.49792-0.26492 1.0412-0.43386 1.6016-0.49805v-2.0352s-2e-6 -1-1-1zm7.5 4c-1.933 0-3.5 1.567-3.5 3.5 0 1.933 1.567 3.5 3.5 3.5 1.933 0 3.5-1.567 3.5-3.5 0-1.933-1.567-3.5-3.5-3.5zm0 1 2 2.0117v0.98828h-4v-0.98828zm-2 3.502h4v0.99219l-4 0.0039z" fill="currentColor"/>
</svg>
