<svg width="16" height="16" version="1.1" xmlns="http://www.w3.org/2000/svg">
  <defs>
    <style id="current-color-scheme" type="text/css">.ColorScheme-Text { color:#282828; } .ColorScheme-Highlight { color:#458588; }</style>
  </defs>
  <path class="ColorScheme-Text" d="m7.999 1c0.6213 0 1.213 0.3675 1.651 1.024 0.4375 0.6562 0.6825 1.546 0.6825 2.476 0 0.1021-0.0029 0.2042-0.0087 0.3033l3.552-3.625 0.8254 0.8079-5.151 5.256h4.672v1.146h-3.786c0.3354 0.5571 0.5542 1.219 0.6358 1.922l3.628 3.701-0.8254 0.8079-2.861-2.917c-0.3442 1.817-1.587 3.095-3.016 3.098-1.426-0.0029-2.669-1.28-3.016-3.098l-2.858 2.917-0.8254-0.8079 3.628-3.701c0.07875-0.7029 0.2975-1.365 0.6329-1.922h-3.783v-1.146h4.672l-5.151-5.256 0.8254-0.8079 3.552 3.625c-0.005833-0.09917-0.00875-0.2012-0.01167-0.3033 0-1.934 1.047-3.5 2.333-3.5z" fill="currentColor"/>
</svg>
