<svg width="16" height="16" version="1.1" xmlns="http://www.w3.org/2000/svg">
  <defs>
    <style id="current-color-scheme" type="text/css">.ColorScheme-Text { color:#282828; } .ColorScheme-Highlight { color:#458588; }</style>
  </defs>
  <path class="ColorScheme-Text" d="m8 1a7 7 0 0 0-7 7 7 7 0 0 0 7 7 7 7 0 0 0 7-7 7 7 0 0 0-7-7zm0 1a6 6 0 0 1 5.848 4.666c-1.781-0.4667-3.735-0.666-5.848-0.666v-4zm0 4.031v7.969a6 6 0 0 1-6-6 6 6 0 0 1 0.168-1.332c1.776-0.4457 3.767-0.6367 5.832-0.6367z" fill="currentColor"/>
</svg>
