<svg width="16" height="16" version="1.1" xmlns="http://www.w3.org/2000/svg">
  <defs>
    <style type="text/css" id="current-color-scheme">.ColorScheme-Text { color:#282828; } .ColorScheme-Highlight { color:#458588; }</style>
  </defs>
  <path class="ColorScheme-Text" d="m8.706 14.99c4.37-0.1811 6.462-3.318 6.669-6.785 0.2223-3.732-1.796-6.36-5.372-7.031-5.011-0.9407-9.159 1.992-9.147 6.968-0.06845 1.36 0.372 2.568 1.039 3.715-0.4645 0.8818-0.8988 1.779-1.288 2.694 0 0.2221 0.9195 0.03521 1.977-0.4016l0.9154-0.3784c1.457 0.6778 2.843 1.317 5.207 1.219zm2.452-3.655c0.3558 0.7415 0.2948 0.9106-0.4331 1.198-1.623 0.64-2.544-0.04593-4.467-3.327-1.612-2.749-1.925-3.793-1.434-4.777 0.2566-0.5143 0.9786-1.193 1.269-1.193 0.2565 0 0.7165 0.5388 1.061 1.242 0.3749 0.7666 0.3719 0.9999-0.01613 1.251-0.513 0.3327-0.9352 0.7821-0.9352 0.9953 0 0.1101 0.3241 0.5346 0.7202 0.9435 0.6475 0.6683 0.7535 0.8471 1.049 1.77 0.1845 0.5762 0.417 1.08 0.53 1.151 0.1679 0.1036 0.3397 0.06071 1.301-0.4751 0.3632-0.2024 0.4323-0.2409 0.725 0.1936 0.1832 0.2231 0.4672 0.6854 0.6313 1.028z" fill="currentColor"/>
</svg>
