<svg width="16" height="16" version="1.1" xmlns="http://www.w3.org/2000/svg">
  <defs>
    <style type="text/css" id="current-color-scheme">.ColorScheme-Text { color:#282828; } .ColorScheme-Highlight { color:#458588; }</style>
  </defs>
  <path class="ColorScheme-Text" fill="currentColor" d="m7.275 1c-2.842 0-5.13 2.298-5.13 5.152v3.717c0 1.808 0.01462 4.333 0.01462 4.333 0.2684 0.5119 0.9205 0.8166 1.281 0.7976 0.441-0.0081 0.9311 0.01374 1.354-0.7218 0 0 0.4363 0.4493 0.7081 0.546 0.4777 0.1701 1.027 0.2395 1.517 0.1095 0.3679-0.09796 0.9473-0.6863 0.9473-0.6863s0.9211 0.7824 1.691 0.7517c0.7566 0.0062 1.242-0.3418 1.563-0.6562 0 0 0.6997 0.645 1.308 0.6335 0.4624-0.0087 1.067-0.2046 1.312-0.8023l0.01399-4.305v-3.717c0-2.854-2.288-5.152-5.129-5.152zm-2.851 3.612c1.335-1.238e-4 1.981 1.635 1.006 2.547s-2.563 0.1592-2.474-1.173c0.06583 0.6389 0.9834 0.6688 1.093 0.03757s-0.7649-0.9117-1.042-0.3321c0.172-0.622 0.7408-1.079 1.417-1.079zm5.446 0c1.335-4.061e-4 1.981 1.634 1.006 2.547-0.975 0.9122-2.563 0.1594-2.474-1.173 0.06583 0.6389 0.9834 0.6688 1.093 0.03757s-0.7649-0.9117-1.042-0.3321c0.172-0.622 0.7405-1.079 1.417-1.079z"/>
</svg>
