<svg width="16" height="16" version="1.1" xmlns="http://www.w3.org/2000/svg">
  <defs>
    <style id="current-color-scheme" type="text/css">.ColorScheme-Text { color:#282828; } .ColorScheme-Highlight { color:#458588; }</style>
  </defs>
  <path class="ColorScheme-Text" d="m5 1c-2.216 0-4 1.784-4 4v6c0 2.216 1.784 4 4 4h6c0.3591 0 0.7065-0.04684 1.037-0.1348l-2.217-2.217c-0.5795 0.2296-1.197 0.3489-1.82 0.3516-2.761 0-5-2.239-5-5 0-2.761 2.239-5 5-5s5 2.239 5 5c-0.0027 0.6234-0.1219 1.241-0.3516 1.82l2.217 2.217c0.08793-0.3306 0.1348-0.678 0.1348-1.037v-6c0-2.216-1.784-4-4-4zm3 3c-2.209 0-4 1.791-4 4 0 2.209 1.791 4 4 4 0.713-3e-3 1.412-0.1965 2.025-0.5605l2.268 2.268c0.3905 0.3904 1.024 0.3904 1.414 0 0.3904-0.3905 0.3904-1.024 0-1.414l-2.268-2.268c0.364-0.6131 0.5576-1.312 0.5605-2.025 0-2.209-1.791-4-4-4zm0 2c1.105 0 2 0.8954 2 2s-0.8954 2-2 2-2-0.8954-2-2 0.8954-2 2-2z" fill="currentColor"/>
</svg>
