<svg width="16" height="16" version="1.1" xmlns="http://www.w3.org/2000/svg">
  <defs>
    <style id="current-color-scheme" type="text/css">.ColorScheme-Text { color:#282828; } .ColorScheme-Highlight { color:#458588; }</style>
  </defs>
  <path class="ColorScheme-Text" d="m10.321 11.564c0.66982-0.78296 1.3398-1.9617 0.65606-3.6461 0.30047-0.14233 1.1414-0.4631 1.9932-0.08573 2.2006 0.97386 1.7349 4.2293-0.68676 4.4794-0.7923 0.08423-1.5753-0.24484-1.9625-0.74757zm-6.0664 0.68344c-0.568-0.1634-0.9212-0.6972-0.8469-1.282 0.07429-0.584 0.5737-1.024 1.163-1.024 0.2046 0 0.2332 0.01257 0.2606 0.12 0.12067 0.59012 0.437 1.063 0.8435 1.489-0.10749 0.20382-0.56435 0.9442-1.4207 0.6971zm-2.429-0.0068c-1.1955-0.17014-2.2662-1.5408-1.6368-2.9995 0.54813-1.2692 2.0212-1.3319 2.0212-1.287-0.43552 1.4749 0.58706 2.4021 0.99882 2.7442-0.20895 0.76631 0.2096 1.154 0.12573 1.2115-0.4217 0.2823-0.9806 0.4046-1.509 0.3303zm5.658-0.01024c-1.17-0.2094-2.485-1.215-2.485-2.968 0-2.2676 2.0877-3.2271 3.513-2.9721 1.251 0.224 2.206 1.167 2.454 2.425 0.04426 0.2213 0.2572 1.565-0.8321 2.666-1.0576 1.0682-2.3786 0.8981-2.6503 0.8492zm6.6471-0.29832c-0.1943-0.1486-0.2-0.1623-0.1029-0.2697 0.48579-0.52531 0.61488-1.0516 0.6171-1.8324 1.0388-0.14004 1.5356 0.86538 1.303 1.5337-0.26343 0.75329-1.1821 1.0471-1.8172 0.56841zm-11.673-3.9114c0.35078-1.2961 1.4653-1.7986 2.4286-1.7494 0.062193 0.39157 0.29822 0.71633 0.4857 1.0537-0.57307 0.69991-0.6418 1.3679-0.61714 2.3685-0.75575 0.0097884-1.1828 0.37906-1.4512 0.7681-0.48056-0.44632-1.1504-1.305-0.84592-2.4409zm7.1234-1.6283c0.082056-0.30755 0.047684-0.63688 0.05257-0.95317 1.4237-0.025913 2.1634 1.2239 2.2664 1.9662-0.35493 0.00681-0.68502 0.075367-1.0034 0.26856-0.35637-0.50809-0.76474-0.95319-1.3156-1.2816zm-2.5318-2.7076c2.5062-0.25677 2.4922 2.4617 2.2776 2.5799-1.266-0.48296-2.6043-0.26438-3.4516 0.52458-0.30212 0.25375-0.31343 0.32797-0.33944 0.32797-0.44301-0.11693-1.0705-3.1169 1.5135-3.4324zm-2.9325 1.0346c0.2697-0.08229 0.7017-0.032 0.8869 0.1017 0.04114 0.03086 0.04114 0.03657-0.02057 0.2114-0.090076 0.23907-0.16215 0.6255-0.1269 0.9704-0.48898-0.026005-0.99655 0.092396-1.3714 0.31543-0.184 0.059438-0.46964-1.2667 0.63197-1.5989z" fill="currentColor"/>
</svg>
