<svg width="16" height="16" version="1.1" xmlns="http://www.w3.org/2000/svg">
  <defs>
    <style id="current-color-scheme" type="text/css">.ColorScheme-Text { color:#282828; } .ColorScheme-Highlight { color:#458588; }</style>
  </defs>
  <path class="ColorScheme-Text" d="m8.6953 1c-3.866 0-7 3.134-7 7s3.134 7 7 7c2.1185-0.0053 4.1207-0.96975 5.4453-2.623l-0.68572-0.52673 0.07226-1.6523-1.3027 0.70508-0.19727-0.15039 2e-3 -1.6406-1.2441 0.68555-0.17969-0.13867 0.08594-1.6016-1.4785 0.53125-0.7655-0.5885 0.84139-0.6469 1.9844 0.70117-0.53125-1.8184 0.05469-0.041016 1.8223 0.64258-0.48633-1.6699 0.0332-0.025391 1.8613 0.65625-0.27344-1.877 0.39685-0.30622c-1.3284-1.653-3.3345-2.6148-5.4551-2.6152zm0.09766 2c0.55228 0 1 0.44772 1 1s-0.44772 1-1 1-1-0.44772-1-1 0.44772-1 1-1z" fill="currentColor"/>
</svg>
