<svg width="16" height="16" version="1.1" xmlns="http://www.w3.org/2000/svg">
  <defs>
    <style id="current-color-scheme" type="text/css">.ColorScheme-Text { color:#282828; } .ColorScheme-Highlight { color:#458588; }</style>
  </defs>
  <path class="ColorScheme-Text" d="m8.5 1v3.564c0.2527 0.00933 0.5547 0.00391 0.5547 0.00391 0.07958 0.00132 0.6877-0.1767 1.006-0.5469-0.2773-0.4105 0.0035-0.998 0.5098-0.998 0.3114 0 0.5446 0.2264 0.6035 0.498 0.09986 0.4603-0.3169 0.8898-0.7832 0.7461-0.2187 0.258-0.5159 0.4332-0.7871 0.6309 0.2044 0.1611 0.5847 0.6744 0.7402 0.8984 0.2692-0.06303 0.5794 0.05708 0.709 0.3613 0.1804 0.4243-0.1236 0.8926-0.5664 0.8926-0.5617-3.2e-6 -0.772-0.6596-0.4863-1.033-0.4945-0.6966-0.5966-0.7727-0.8184-0.9141-0.254-0.03513-0.4206-0.09388-0.6816-0.09766v2.369c0.4522 0.2319 0.5271 0.6232 0.8066 0.6387 0.4004 0.0208 0.9052-0.03106 1.26 0.01172 0.5147-0.1261 0.9765-0.217 1.363-0.7402 0.01607-0.05673 0.04012-0.1118 0.07226-0.1641 0.02356-0.05218 0.07192-0.085 0.1074-0.127-0.1122-0.4257-0.05436-0.411 0.08203-0.8809-0.06633-0.04146-0.3573-0.4129-0.1113-0.8125 0.1134-0.1856 0.3097-0.2969 0.5234-0.2969 0.117 1e-7 0.231 0.03356 0.3301 0.09766 0.1406 0.09152 0.2372 0.2341 0.2734 0.4004 0.03589 0.1659 0.0084 0.3355-0.08008 0.4785-0.1437 0.235-0.3872 0.3099-0.5586 0.293-0.09646 0.3636-0.1519 0.2244-0.08008 0.5527 0.2776-0.01406 0.5673 0.1594 0.6406 0.4961 0.0867 0.4004-0.2093 0.7754-0.6035 0.7754-0.1208 1.3e-6 -0.4008-0.03547-0.5254-0.3477 0 0-0.1635 0.2509-0.6641 0.5762 0.4587 0.347 0.7743 0.9982 1.033 1.434 0.3114-0.07898 0.6771 0.09641 0.7598 0.4766 0.08614 0.3979-0.2033 0.7754-0.6035 0.7754-0.478 0-0.7881-0.5463-0.5234-0.9766 0.0096-0.01572 0.02033-0.02995 0.03125-0.04492-0.2704-0.4835-0.9298-1.421-1.193-1.488-0.5216-0.1333-1.053-0.04422-1.555-0.07227-0.3727-0.01929-0.5401-0.3298-0.7852-0.5547v3.934c0.4225-0.2728 1.161-0.8995 1.51-1.715-0.1155-0.08725-0.1969-0.2107-0.2324-0.3555-0.04054-0.1649-0.01637-0.3363 0.06836-0.4824 0.1112-0.1916 0.3143-0.3105 0.5313-0.3105 0.1114 0 0.2205 0.03114 0.3164 0.08984 0.2929 0.1804 0.3893 0.5719 0.2148 0.873-0.1074 0.1849-0.2994 0.3011-0.5078 0.3086-0.2604 0.6244-0.8496 1.348-1.146 1.635 0.2158 0.04297 0.2399 0.2795 0.4883 0.293 0.1082 0.0034 0.8304-0.3862 1.027-0.459-0.04526-0.3834 0.2525-0.7148 0.6152-0.7148 0.5728 0 0.833 0.7414 0.4023 1.121-0.2383 0.2108-0.6037 0.2037-0.8359-0.0293-0.2549 0.09936-0.986 0.5125-1.23 0.498-0.5135-0.02711-0.3805-0.4582-1.221-0.2578v2.697c0.1344-0.04035 0.2645-0.09646 0.3887-0.1699l5.223-2.164c0.5493-0.3248 0.8885-0.9264 0.8887-1.576v-6.18c9e-5 -0.6501-0.3392-1.251-0.8887-1.576l-5.223-2.166c-0.1228-0.07256-0.2534-0.1276-0.3887-0.168zm-1 0.00586c-0.1354 0.0381-0.2658 0.09252-0.3887 0.1621l-5.223 2.166c-0.5499 0.3249-0.8887 0.9258-0.8887 1.576v6.18c-7.015e-5 0.6504 0.3387 1.251 0.8887 1.576l5.223 2.164c0.1228 0.06959 0.2533 0.124 0.3887 0.1621v-10.17c-0.1599-0.01757-0.3388-0.02255-0.5762-0.003906-0.2995 0.02231-0.6108 0.1377-0.9004 0.4453l0.9043 1.002-1.008 5.637-1.494-1.102-1.775 0.4688 1.008-5.637 1.857-0.9316 0.2285 0.2539c0.5662-0.5964 1.179-0.5956 1.756-0.5234zm3.07 2.434c-0.1333 0-0.2362 0.1264-0.2109 0.2617 0.02264 0.1211 0.1381 0.1974 0.2578 0.1699 0.1263-0.02974 0.1842-0.1516 0.1621-0.2578 0-0.02727-0.06323-0.1738-0.209-0.1738zm2.014 1.982c-0.1706 0.01346-0.2868 0.2505-0.09375 0.4043 0.1582 0.1034 0.3628-0.04802 0.3223-0.2344-0.02412-0.1112-0.1278-0.1779-0.2285-0.1699zm-7.682 0.7129c-0.0363 0.2011 0.09332 0.3942 0.2891 0.4316 0.1943 0.03671 0.384-0.09886 0.4199-0.2969 0.0362-0.2011-0.09352-0.3942-0.2891-0.4316-0.198-0.03733-0.384 0.09863-0.4199 0.2969zm5.373 0.2422c-0.02219 0.1393 0.08492 0.2578 0.209 0.2578 0.1345 0 0.2395-0.1285 0.209-0.2695-0.05035-0.2305-0.3809-0.2207-0.418 0.01172zm2.07 0.9668c-0.06097 0.09911-0.03618 0.2296 0.05664 0.2969 0.1875 0.1121 0.3705-0.04936 0.332-0.2266-0.04129-0.1898-0.2885-0.2331-0.3887-0.07031zm-1.969 2.018c-0.2135 0-0.2963 0.2936-0.1094 0.4082 0.09233 0.05778 0.2289 0.03639 0.293-0.07422 0.0866-0.1493-0.02316-0.334-0.1836-0.334zm2.146 0.8027c-0.1166-5.7e-5 -0.2111 0.09621-0.2109 0.2148 8.5e-4 0.1179 0.09506 0.213 0.2109 0.2129 0.1159 5.9e-5 0.2101-0.09502 0.2109-0.2129 2.07e-4 -0.1186-0.09431-0.2149-0.2109-0.2148zm-1.277 1.277c-0.15 0.1324-0.05811 0.3867 0.1387 0.3867 0.112 0 0.2043-0.08897 0.2129-0.2031 0.01456-0.1978-0.2112-0.3079-0.3516-0.1836z" fill="currentColor"/>
</svg>
