<svg width="16" height="16" version="1.1" xmlns="http://www.w3.org/2000/svg">
  <defs>
    <style type="text/css" id="current-color-scheme">.ColorScheme-Text { color:#282828; } .ColorScheme-Highlight { color:#458588; }</style>
  </defs>
  <path class="ColorScheme-Text" fill="currentColor" d="m2 1c-1.108 0-2 0.892-2 2v6c0 1.108 0.892 2 2 2v2l2-2h6c1.108 0 2-0.892 2-2v-6c0-1.108-0.892-2-2-2h-8zm2 2h1v1h2v-1h1v1h1v1h-1v2h1v1h-1v1h-1v-1h-2v1h-1v-1h-1v-1h1v-2h-1v-1h1v-1zm9 0v1 5.6c0 1.33-1.071 2.4-2.4 2.4h-5.6-0.7305c0.3449 0.5975 0.9883 1 1.73 1h6l2 2v-2c1.108 0 2-0.892 2-2v-6c0-1.108-0.892-2-2-2h-1zm-8 2v2h2v-2h-2z"/>
</svg>
