<svg width="16" height="16" version="1.1" xmlns="http://www.w3.org/2000/svg">
  <defs>
    <style id="current-color-scheme" type="text/css">.ColorScheme-Text { color:#282828; } .ColorScheme-Highlight { color:#458588; }</style>
  </defs>
  <path class="ColorScheme-Text" d="m7.494 0.999c-0.1441 0.04124-0.283 0.09862-0.416 0.1758l-4.494 2.609c-0.1336 0.07761-0.2551 0.1701-0.3633 0.2754l2.166 1.258c0.1458-0.1559 0.3143-0.2923 0.5039-0.4023l1.998-1.16c0.1913-0.111 0.3957-0.1905 0.6055-0.2402zm1.012 0v2.516c0.2093 0.04939 0.4129 0.128 0.6035 0.2383 0.00448-0.01112 2.004 1.158 2.002 1.162 0.1886 0.1099 0.358 0.2467 0.5039 0.4023l2.164-1.258c-0.1076-0.1051-0.228-0.1981-0.3613-0.2754l-4.496-2.609c-0.1327-0.07707-0.2721-0.1345-0.416-0.1758zm-0.5059 3.455c-0.2101 0-0.4186 0.05446-0.6074 0.1641l-2 1.162c-0.03638 0.02109-0.06991 0.04396-0.1035 0.06836l2.709 1.572 2.713-1.574c-0.03305-0.024-0.06779-0.04559-0.1035-0.06641l-1.998-1.162c-0.1889-0.1093-0.3994-0.1641-0.6094-0.1641zm-6.283 0.4824c-0.03677 0.1466-0.05664 0.2979-0.05664 0.4531v5.219c0 0.1555 0.02176 0.3063 0.05859 0.4531l2.164-1.256c-0.06306-0.2074-0.09766-0.4243-0.09766-0.6465v-2.32c0-0.2213 0.03512-0.438 0.09766-0.6445zm12.57 0-2.164 1.256c0.0631 0.2072 0.09766 0.4248 0.09766 0.6465v0.6543h2.123v-2.104c0-0.1552-0.01998-0.3065-0.05664-0.4531zm-9.492 1.779c-0.00413 0.04093-0.00586 0.08137-0.00586 0.123v2.32c1e-7 0.4376 0.2306 0.8421 0.6074 1.061l2 1.16c0.03553 0.02062 0.07054 0.03991 0.1074 0.05664v-3.15zm6.418 0-2.709 1.57v3.15c0.03716-0.01683 0.07359-0.03587 0.1094-0.05664l1.998-1.16c0.377-0.2185 0.6094-0.6229 0.6094-1.061v-2.32c0-0.04161-0.0037-0.08214-0.0078-0.123zm1.008 1.789v0.6543c0 0.2221-0.03462 0.4391-0.09766 0.6465l2.162 1.258c0.03725-0.1476 0.05664-0.2992 0.05664-0.4551v-2.104zm-7.83 2.178-2.166 1.254c0.1086 0.1058 0.2292 0.1994 0.3633 0.2773l4.494 2.611c0.1327 0.07705 0.2724 0.1345 0.416 0.1758v-2.518c-0.2092-0.04924-0.4127-0.1276-0.6035-0.2383 0 0-1.996-1.164-1.998-1.16-0.1899-0.1101-0.3598-0.2462-0.5059-0.4023zm7.229 0c-0.1461 0.1562-0.3159 0.2923-0.5059 0.4023l-0.5664 0.3281 1.062 1.854 1.812-1.053c0.1329-0.07728 0.2537-0.1688 0.3613-0.2734zm-1.945 1.238-0.5586 0.3242c-0.1908 0.1107-0.3957 0.1891-0.6055 0.2383v2.516c0.1436-0.04126 0.2832-0.09874 0.416-0.1758l1.811-1.051-2e-3 -0.0039z" fill="currentColor"/>
</svg>
