<svg width="16" height="16" version="1.1" xmlns="http://www.w3.org/2000/svg">
  <defs>
    <style id="current-color-scheme" type="text/css">.ColorScheme-Text { color:#282828; } .ColorScheme-Highlight { color:#458588; }</style>
  </defs>
  <path class="ColorScheme-Text" d="m7.5 1c-3.038 0-5.5 2.462-5.5 5.5l0.0059 1.9766 0.07227 0.11328c0.1899 0.2903 0.45102 0.49282 1.6992 1.3203 2.088 1.385 2.9456 1.8909 3.4746 2.0449 0.0834 0.02427 0.19846 0.04422 0.25586 0.04492 0.10736 0.0013 0.28616-0.05603 0.51562-0.15625-0.0122-0.11424-0.02002-0.22891-0.02344-0.34375 0.0034-1.3616 0.62312-2.6484 1.6855-3.5h-4.6855v-1.5c0-1.381 1.119-2.5 2.5-2.5 1.381 0 2.5 1.119 2.5 2.5v1.2637c0.73941-0.49632 1.6095-0.76209 2.5-0.76367 0.16708 4.77e-4 0.33401 0.01026 0.5 0.0293v-0.5293c0-3.038-2.462-5.5-5.5-5.5zm5 7c-1.933 0-3.5 1.567-3.5 3.5s1.567 3.5 3.5 3.5 3.5-1.567 3.5-3.5-1.567-3.5-3.5-3.5zm-1.2246 1.0508 1.4004 2.0996h-0.875v2.0996h-1.0508v-2.0996h-0.875zm-9.2695 0.42578c-0.0083 1.508-0.0059 3.0164-0.0059 4.5234 0 0.5542 0.4458 1 1 1h6.6855c-0.71563-0.572-1.2396-1.3488-1.502-2.2266-0.31516 0.15101-0.54366 0.22844-0.67578 0.22656-0.05735-7e-4 -0.17246-0.02065-0.25586-0.04492-0.5284-0.1539-1.3866-0.66022-3.4746-2.0449-1.249-0.8281-1.5092-1.0303-1.6992-1.3203zm11.193 0.27344h1.0508v2.0996h0.875l-1.4004 2.0996-1.4004-2.0996h0.875z" fill="currentColor"/>
</svg>
