<svg width="16" height="16" version="1.1" xmlns="http://www.w3.org/2000/svg">
  <defs>
    <style id="current-color-scheme" type="text/css">.ColorScheme-Text { color:#282828; } .ColorScheme-Highlight { color:#458588; }</style>
  </defs>
  <path class="ColorScheme-Text" d="m7.5 1c-3.038 0-5.5 2.462-5.5 5.5l0.0059 1.977 0.07227 0.1133c0.1899 0.2903 0.451 0.4928 1.699 1.32 2.088 1.385 2.946 1.891 3.475 2.045 0.0834 0.02427 0.1985 0.04422 0.2559 0.04492 0.1074 0.0013 0.2862-0.05603 0.5156-0.1562-0.0122-0.1142-0.02002-0.2289-0.02344-0.3438 0.0034-1.362 0.6231-2.648 1.686-3.5h-4.686v-1.5c0-1.381 1.119-2.5 2.5-2.5s2.5 1.119 2.5 2.5v1.264c0.7394-0.4963 1.61-0.7621 2.5-0.7637 0.1671 4.77e-4 0.334 0.01026 0.5 0.0293v-0.5293c0-3.038-2.462-5.5-5.5-5.5zm5 7c-1.933 0-3.5 1.567-3.5 3.5s1.567 3.5 3.5 3.5 3.5-1.567 3.5-3.5-1.567-3.5-3.5-3.5zm-1.225 1.051 1.4 2.1h-0.875v2.1h-1.051v-2.1h-0.875zm-9.27 0.4258c-0.0083 1.508-0.0059 3.016-0.0059 4.523 0 0.5542 0.4458 1 1 1h6.686c-0.7156-0.572-1.24-1.349-1.502-2.227-0.3152 0.151-0.5437 0.2284-0.6758 0.2266-0.05735-7e-4 -0.1725-0.02065-0.2559-0.04492-0.5284-0.1539-1.387-0.6602-3.475-2.045-1.249-0.8281-1.509-1.03-1.699-1.32zm11.19 0.2734h1.051v2.1h0.875l-1.4 2.1-1.4-2.1h0.875z" fill="currentColor"/>
</svg>
