<svg width="16" height="16" version="1.1" xmlns="http://www.w3.org/2000/svg">
  <defs>
    <style id="current-color-scheme" type="text/css">.ColorScheme-Text { color:#282828; } .ColorScheme-Highlight { color:#458588; }</style>
  </defs>
  <path class="ColorScheme-Text" d="m1.721 1c-0.3995 0-0.7207 0.3213-0.7207 0.7207v7.559c0 0.3994 0.3213 0.7207 0.7207 0.7207h3.279v-2.584h-0.1543l-0.3633 1.094h-1.484l2.121-6h1.76l0.8789 2.49c1.081 5.37e-5 2.161 0 3.242 0v-3.279c0-0.3995-0.3213-0.7207-0.7207-0.7207zm4.279 2.916-0.3574 1.084c0.2376 4.4e-5 0.4752-3.1e-5 0.7129 0zm0.7148 2.084c-0.3957 0-0.7148 0.3191-0.7148 0.7148v7.57c0 0.395 0.3191 0.7148 0.7148 0.7148h7.57c0.395-6e-6 0.7148-0.3198 0.7148-0.7148v-7.57c0-0.3957-0.3198-0.7148-0.7148-0.7148zm1.361 1.445h2.354c0.8435 0 1.453 0.1271 1.83 0.3789 0.3797 0.2518 0.5703 0.6544 0.5703 1.209 0 0.292-0.0688 0.5418-0.207 0.748-0.1383 0.2036-0.3404 0.354-0.6035 0.4531 0.3363 0.09645 0.5968 0.2753 0.7812 0.5352 0.1844 0.2599 0.2773 0.5773 0.2773 0.9551 0 0.5787-0.1997 1.011-0.5957 1.295-0.396 0.284-0.9972 0.4258-1.807 0.4258h-2.6zm2.434 1.051-0.8672 0.00195v1.27h0.8672c0.2468 0 0.4331-0.05287 0.5605-0.1602 0.1275-0.1072 0.1914-0.2656 0.1914-0.4746 0-0.2063-0.06396-0.3635-0.1914-0.4707-0.1275-0.1098-0.3137-0.166-0.5605-0.166zm0.05273 2.322-0.9199 2e-3v1.57h0.9199c0.3146 0 0.5497-0.0659 0.707-0.1973 0.16-0.1313 0.2402-0.3284 0.2402-0.5938 0-0.2599-0.07911-0.4554-0.2363-0.584-0.1573-0.1313-0.3936-0.1973-0.7109-0.1973z" fill="currentColor"/>
</svg>
