<svg width="16" height="16" version="1.1" xmlns="http://www.w3.org/2000/svg">
  <defs>
    <style id="current-color-scheme" type="text/css">.ColorScheme-Text { color:#282828; } .ColorScheme-Highlight { color:#458588; }</style>
  </defs>
  <path class="ColorScheme-Text" d="m8 1c-1.74-3.69e-4 -3.216 1.278-3.465 3h-3.535v9h5.5v1h1v-3h-1v1h-4.5v-7h2.535c0.2486 1.722 1.725 3 3.465 3 1.74 3.691e-4 3.216-1.278 3.465-3h2.535v7h-4.5v-2h-1v5h1v-2h5.5v-9h-3.535c-0.2486-1.722-1.725-3-3.465-3zm0 1c0.4898 7.831e-4 0.9686 0.1454 1.377 0.416l-1.377 1.377-1.373-1.373c0.4068-0.2712 0.8842-0.4172 1.373-0.4199zm2.084 1.123c0.2706 0.4083 0.4152 0.8871 0.416 1.377-0.002705 0.4889-0.1487 0.9663-0.4199 1.373l-1.373-1.373zm-4.164 0.003906 1.373 1.373-1.373 1.373c-0.2712-0.4068-0.4172-0.8842-0.4199-1.373 0.002705-0.4889 0.1487-0.9663 0.4199-1.373zm2.08 2.08 1.373 1.373c-0.4068 0.2712-0.8842 0.4172-1.373 0.4199-0.4889-0.002705-0.9663-0.1487-1.373-0.4199z" fill="currentColor"/>
</svg>
