<svg width="16" height="16" version="1.1" xmlns="http://www.w3.org/2000/svg">
  <defs>
    <style type="text/css" id="current-color-scheme">.ColorScheme-Text { color:#282828; } .ColorScheme-Highlight { color:#458588; }</style>
  </defs>
  <path class="ColorScheme-Text" d="m8 1a7 7 0 0 0-7 7 7 7 0 0 0 7 7 7 7 0 0 0 3.629-1.025c0.4624 0.5665 0.8916 1.17 1.26 1.768l1.703-1.049c-0.4149-0.6735-0.8912-1.35-1.416-1.992a7 7 0 0 0 1.824-4.701 7 7 0 0 0-7-7zm0 2.5a4 4.5 0 0 1 4 4.5 4 4.5 0 0 1-0.8047 2.697c-1.24-1.021-2.654-1.774-4.195-1.654l0.1543 1.992c0.7009-0.05452 1.611 0.325 2.543 1.033a4 4.5 0 0 1-1.697 0.4316 4 4.5 0 0 1-4-4.5 4 4.5 0 0 1 4-4.5z" fill="currentColor"/>
</svg>
