<svg width="16" height="16" version="1.1" xmlns="http://www.w3.org/2000/svg">
  <defs>
    <style id="current-color-scheme" type="text/css">.ColorScheme-Text { color:#282828; } .ColorScheme-Highlight { color:#458588; }</style>
  </defs>
  <path class="ColorScheme-Text" d="m3.988 0.9775c-0.278 0-0.5039 0.2259-0.5039 0.5039v3.023c0 0.278 0.2259 0.5039 0.5039 0.5039h3.023c0.278 0 0.5039-0.2259 0.5039-0.5039v-3.023c0-0.278-0.2259-0.5039-0.5039-0.5039zm0.01172 5.016c-0.276 0-0.5 0.224-0.5 0.5v3c0 0.276 0.224 0.5 0.5 0.5h3c0.276 0 0.5-0.224 0.5-0.5v-3c0-0.276-0.224-0.5-0.5-0.5zm4.988 4.984c-0.278 0-0.5039 0.2259-0.5039 0.5039v3.023c0 0.278 0.2259 0.5039 0.5039 0.5039h3.023c0.278 0 0.5039-0.2259 0.5039-0.5039v-3.023c0-0.278-0.2259-0.5039-0.5039-0.5039zm-5 0.01563c-0.278 0-0.5039 0.2259-0.5039 0.5039v3.021c0 0.278 0.2259 0.5039 0.5039 0.5039h3.023c0.278 0 0.5039-0.2259 0.5039-0.5039v-3.021c0-0.278-0.2259-0.5039-0.5039-0.5039z" fill="currentColor"/>
</svg>
