<svg width="16" height="16" version="1.1" xmlns="http://www.w3.org/2000/svg">
  <defs>
    <style id="current-color-scheme" type="text/css">.ColorScheme-Text { color:#282828; } .ColorScheme-Highlight { color:#458588; }</style>
  </defs>
  <path class="ColorScheme-Text" d="m5.103 6.063 0.7402 0.8321v1.782c-0.3378-0.1916-0.651-0.4296-0.9301-0.7088-0.819-0.819-1.279-1.929-1.279-3.087 0.002625-1.558 0.8348-2.995 2.183-3.774v-0.1076c-1.859 0.8522-3.053 2.709-3.056 4.755 0 2.124 1.264 3.953 3.082 4.776v1.896l0.924 2.573 0.9249-2.573v-1.442c0.1628 0.0099 0.3953 0.01348 0.616 0v1.442l0.9249 2.573 0.924-2.573v-1.896c1.817-0.8225 3.082-2.651 3.082-4.776-0.0044-2.045-1.197-3.9-3.056-4.751v0.1024c1.349 0.7788 2.18 2.218 2.183 3.776 0 1.158-0.4602 2.268-1.279 3.087-0.2791 0.2791-0.5924 0.5171-0.9301 0.7088v-1.782l0.7402-0.8321zm2.897 0.4856-0.308 0.3465v2.342c0.2511 0.01717 0.4279 0.01285 0.616 0v-2.342z" fill="currentColor"/>
</svg>
