<svg width="16" height="16" version="1.1" xmlns="http://www.w3.org/2000/svg">
  <defs>
    <style type="text/css" id="current-color-scheme">.ColorScheme-Text { color:#282828; } .ColorScheme-Highlight { color:#458588; }</style>
  </defs>
  <path class="ColorScheme-Text" fill="currentColor" d="m7.262 10.81c-2.506-0.3588-4.432-2.514-4.432-5.119 0.002625-2.019 1.18-3.852 3.016-4.693v0.1059c-1.331 0.7691-2.152 2.188-2.154 3.725 0 1.143 0.4532 2.239 1.262 3.047 0.6318 0.6318 1.439 1.047 2.308 1.199v-2.098l-0.9459-0.8418h3.369l-0.9459 0.8418v2.098c0.8689-0.1514 1.676-0.567 2.308-1.199 0.8085-0.8076 1.262-1.904 1.262-3.047-0.00175-1.537-0.8225-2.958-2.154-3.727v-0.1006c1.835 0.8409 3.012 2.671 3.016 4.689 0 2.605-1.926 4.76-4.432 5.119v1.641l-0.7385 2.548-0.7385-2.548z"/>
</svg>
