<svg width="16" height="16" version="1.1" xmlns="http://www.w3.org/2000/svg">
  <defs>
    <style type="text/css" id="current-color-scheme">.ColorScheme-Text { color:#282828; } .ColorScheme-Highlight { color:#458588; }</style>
  </defs>
  <path class="ColorScheme-Text" fill="currentColor" d="m5.241 5.652c0.01571 0.3841-0.1886 0.4408-0.3701 0.4269-0.1746-0.01309-0.4557-0.0838-0.3736-0.5107 0.1912-0.9987-0.4889-1.578-1.137-1.939 1.319 1.694 0.1004 1.699-0.5098 3.877-0.1257 0.4461-0.2374 0.9-0.2409 1.334-0.00175 0.2846 0.1694 0.5604 0.2863 0.8197 0.08555 0.1868 0.3064 0.4112 0.2846 0.6364-0.02095 0.2348-0.1859 0.4147-0.2889 0.6207-0.158 0.3143-0.7717 0.5971-0.9044 0.8764-0.07507 0.1554 0.1065 0.2732 0.2401 0.3466 0.2017 0.1135 0.4758 0.1493 0.5936 0.3588 0.08118 0.1449 0.06023 0.2985-0.01135 0.4382-0.06373 0.1327-0.1109 0.3291 0.02182 0.4173 0.09864 0.06547 0.227 0.09952 0.2959 0.2121 0.06373 0.1074 0.03404 0.2357 0.1371 0.3195 0.1711 0.1388 0.4539 0.1257 0.5849 0.4173 0.05936 0.1344 0.1004 0.2846 0.1798 0.4173 0.1222 0.2034 0.4627 0.2645 0.6984 0.2436 0.2523-0.02532 0.4391-0.103 0.6809-0.1746 0.6277-0.1903 1.221-0.4426 1.783-0.7891 0.4714-0.2959 0.7586-0.4627 1.183-0.7062 0.3108-0.172 0.7516-0.1161 1.095-0.2017 0.4243-0.1065 0.9341-0.275 1.234-0.5665 0.3169-0.3064 0.4478-0.5491 0.5438-1.114-0.1371 0.1851-0.4906 0.7996-0.8415 0.9122-0.3858 0.124-0.5674 0.05849-0.6853-0.09602-0.09952-0.1327-0.1248-0.309-0.1205-0.4723 0.2296-0.7385 1.262-0.6207 1.924-0.8764 1.208-0.4635 1.485-1.344 1.566-2.171 0.03579-0.4513 0.0969-0.7551 0.8747-1.664-0.9733 0.4094-1.376 0.6076-1.601 1.089-0.2104 0.4513-0.9829 0.7053-1.381 0.2628-0.5054-0.5648 0.7342-1.045 1.561-1.247 0.66-0.1615 1.285-0.8075 1.422-1.431 0.2182-1.424-0.3221-2.326-0.3797-3.231-0.02968-0.4714 0.1763-0.9419 0.447-1.488-2.353 1.8-0.3553 2.779-1.858 4.261-0.859 0.8415-1.569 0.3946-1.234-0.3247 0.2209-0.4635 0.4295-0.3728 0.6058-1.445-0.4906 0.694-1.811 0.6687-2.257 1.797-0.3605 0.8956-0.6495 0.9026-0.8319 0.6512-0.2182-0.3003-0.2296-1.386 0.7438-1.899 0.7542-0.3981 2.221-0.1414 2.66-2.973-0.8826 1.676-2.83 1.41-4.572 2.133-0.9044 0.3736-2.093 1.375-2.049 2.451"/>
</svg>
