<svg width="16" height="16" version="1.1" xmlns="http://www.w3.org/2000/svg">
  <defs>
    <style id="current-color-scheme" type="text/css">.ColorScheme-Text { color:#282828; } .ColorScheme-Highlight { color:#458588; }</style>
  </defs>
  <path class="ColorScheme-Text" d="m8.6337 0.9999c-0.19095-0.00621-0.38548 0.080545-0.51562 0.26562l-5.9082 8.7422c-0.2203 0.3413-0.06913 0.71585 0.23438 0.87695l8.0234 4.0527c0.3425 0.1588 0.67595-4.86e-4 0.81445-0.27734l2.584-5.4219c0.04513-0.1041 0.03671-0.27986-0.02344-0.38086l-4.7109-7.5703c-0.11805-0.182-0.3071-0.2809-0.49805-0.28711zm-0.36328 2.1895 1.6836 10.141-5.1934-2.623 3.6699-0.4375-0.19531-1.1875-4.291 0.51172zm1.4355 1.2988 2.5645 4.1113-0.85156 0.10156 0.19726 1.1855 0.64844-0.07617-1.2441 2.6055z" fill="currentColor"/>
</svg>
