<svg width="16" height="16" version="1.1" xmlns="http://www.w3.org/2000/svg">
  <defs>
    <style id="current-color-scheme" type="text/css">.ColorScheme-Text { color:#282828; } .ColorScheme-Highlight { color:#458588; }</style>
  </defs>
  <path class="ColorScheme-Text" d="m0.855 2.002c-0.4748 0-0.8574 0.3652-0.8574 0.8184v10.36c0 0.4532 0.3826 0.8184 0.8574 0.8184h14.29c0.4748 0 0.8574-0.3652 0.8574-0.8184v-10.36c0-0.4532-0.3826-0.8184-0.8574-0.8184zm1.143 1h8c0.554 0 1 0.446 1 1v8c0 0.554-0.446 1-1 1h-8c-0.554 0-1-0.446-1-1v-8c0-0.554 0.446-1 1-1zm11.5 0c0.8284 0 1.5 0.6716 1.5 1.5s-0.6716 1.5-1.5 1.5-1.5-0.6716-1.5-1.5 0.6716-1.5 1.5-1.5zm-5.092 1c-0.1213 0-0.244 0.04814-0.3379 0.1426l-0.9297 0.9355 1.781 1.781 0.9355-0.9297c0.1878-0.1889 0.1878-0.486 0-0.6738l-1.113-1.113c-0.09391-0.09444-0.2146-0.1426-0.3359-0.1426zm-1.908 1.719-4.5 4.498v1.783h1.781l4.5-4.5zm7 1.281c0.8284 0 1.5 0.6716 1.5 1.5s-0.6716 1.5-1.5 1.5-1.5-0.6716-1.5-1.5 0.6716-1.5 1.5-1.5zm-1.5 5h3v1h-3z" fill="currentColor"/>
</svg>
