<svg width="16" height="16" version="1.1" xmlns="http://www.w3.org/2000/svg">
  <defs>
    <style type="text/css" id="current-color-scheme">.ColorScheme-Text { color:#282828; } .ColorScheme-Highlight { color:#458588; }</style>
  </defs>
  <path class="ColorScheme-Text" fill="currentColor" d="m11.76 1.54 0.1353 0.1804-0.6584 2.537-0.2503 0.04192-1.596-2.537 0.115-0.2224zm-5.263 0 0.1109 0.2279-1.878 2.678-0.2502-0.06507-0.3765-2.678 0.1393-0.1628zm6.685 0.05067 2.818 3.664-0.1083 0.2312h-3.946l-0.1336-0.1855 1.127-3.664zm-5.073 0 2.818 3.664-0.1083 0.2312h-5.637l-0.1083-0.2312 2.818-3.664zm-5.29 0 0.2419 0.04565 1.127 3.664-0.1336 0.1855h-3.946l-0.1083-0.2312zm13.07 4.459 0.1032 0.2368-7.328 8.174-0.2327-0.1514 3.382-8.174 0.1295-0.08544zm-5.073 0 0.1301 0.1951-2.818 7.046h-0.2601l-2.818-7.046 0.1301-0.1951zm-6.764 0 0.1295 0.08544 3.382 8.174-0.2327 0.1514-7.328-8.174 0.1032-0.2368z"/>
</svg>
