<svg width="16" height="16" version="1.1" xmlns="http://www.w3.org/2000/svg">
  <defs>
    <style id="current-color-scheme" type="text/css">.ColorScheme-Text { color:#282828; } .ColorScheme-Highlight { color:#458588; }</style>
  </defs>
  <path class="ColorScheme-Text" d="m4.85 1.782v2.02c0.3955 0.0035 0.6738 0.01138 1.04 0.09538 0.3736 0.08662 0.7096 0.1592 0.7096 0.6256l-0.4891 0.3264s-0.2564-0.2861-0.4909-0.3264c-0.09362-0.01575-0.1978-0.004375-0.42 0.175v9.108l-1.05 1.194-1.05-1.194v-4.056l-1.05-1.05 1.05-1.05v-3.07c-0.14-0.0525-0.2835-0.07962-0.42-0.05688-0.2345 0.04025-0.4909 0.3264-0.4909 0.3264l-0.4891-0.3264c0-0.4664 0.336-0.539 0.7096-0.6248 0.3561-0.08225 0.6598-0.091 1.04-0.0945v-2.022c-0.2144-0.1916-0.35-0.4716-0.35-0.7822h2.1c0 0.3106-0.1348 0.5906-0.35 0.7822zm2.212 2.018c0.14 0.2126 0.238 0.4725 0.238 0.7236 0 0.1899-0.147 0.3719-0.2844 0.504 0.5749 0.4008 0.9844 1.125 0.9844 1.84 0 1.325-0.7385 1.441-2.1 1.832 0.8172 1.998 2.446 3.765 4.056 4.68 1.374 0.8312 2.634 1.416 4.344 1.62-1.888-2.306-4.829-3.32-6.3-5.6 0.9826-0.5154 2.1-0.9608 2.1-2.664 0-1.382-1.26-2.936-2.197-2.936h-0.8409z" fill="currentColor"/>
</svg>
