<svg width="16" height="16" version="1.1" xmlns="http://www.w3.org/2000/svg">
  <defs>
    <style id="current-color-scheme" type="text/css">.ColorScheme-Text { color:#282828; } .ColorScheme-Highlight { color:#458588; }</style>
  </defs>
  <path class="ColorScheme-Text" d="m6.9926 1c-0.71407 0-1.2958 0.58172-1.2958 1.2958v0.72272c0 0.71408 0.58172 1.2958 1.2958 1.2958h2.0333l0.11378 0.011403c-1.15e-4 6.882e-4 1.16e-4 0.00135 1.74e-4 0.00202 0.18112 1.4393 0.95813 1.9725 1.598 2.5676 0.63984 0.59508 1.2018 1.2671 1.2018 3.2344 0 1.9885-1.8015 3.5643-3.9833 3.5643-2.4754 0-3.8528-1.6768-3.895-3.5665 0.02495-1.8904 0.68426-2.2342 1.5115-2.8497 0.65468-0.48706 0.90133-0.79556 1.1021-1.5278 0.04492-0.35522-0.21074-0.68474-0.56593-0.72969h-1.74e-4c-0.3552-0.044821-0.68483 0.21071-0.72969 0.56593-0.03808 0.29868-0.09247 0.43733-0.56645 0.78428-1.8348 1.3091-2.0583 2.7758-2.0583 3.7643 0 0.76841 0.2989 1.9605 1.1006 2.9897 0.80167 1.0292 2.1235 1.8755 4.1013 1.8755 2.859 0 5.2893-2.2039 5.2893-4.8703 0-2.3822-0.76577-3.3987-1.4976-4.0802-0.36594-0.34074-0.70976-0.60251-0.94838-0.9176-0.23769-0.31386-0.38817-0.67776-0.3799-1.2871 0-0.14785-0.04551-0.61882-0.62545-0.61882h-2.7652c-0.0935 0-0.16189-0.068394-0.16189-0.16189v-0.81387c0-0.093496 0.06839-0.16189 0.16189-0.16189h2.059c0.0935 0 0.16189 0.068394 0.16189 0.16189v0.082545c0 0.16699 0.08848 0.31812 0.20389 0.40268 0.21557 0.15795 0.54697 0.15793 0.76251 0 0.11541-0.084559 0.20389-0.2357 0.20389-0.40268 0-1.0643-0.78795-1.3328-1.2958-1.3328zm2.9758 8.7425v1.75e-4c-0.09424 0.59231-0.26197 0.98806-0.51985 1.2574-0.25788 0.2693-0.62086 0.43218-1.1655 0.51611-0.30634 0.04723-0.52029 0.33918-0.47308 0.64552 0.04724 0.30634 0.33917 0.52029 0.64552 0.47308 0.90444-0.13936 1.5284-0.50118 1.9359-0.99412 0.40749-0.49294 0.59623-1.1006 0.69483-1.7202 0.04865-0.30611-0.16391-0.59905-0.47002-0.64773l-3.46e-4 -1.738e-4h-1.75e-4c-0.37428-0.05891-0.61032 0.23855-0.6472 0.47002z" fill="currentColor"/>
</svg>
