<svg width="16" height="16" version="1.1" xmlns="http://www.w3.org/2000/svg">
  <defs>
    <style type="text/css" id="current-color-scheme">.ColorScheme-Text { color:#282828; } .ColorScheme-Highlight { color:#458588; }</style>
  </defs>
  <path class="ColorScheme-Text" fill="currentColor" d="m14.98 4.077c-0.099-0.124-0.344 0.046-0.893 0.323-0.744 0.376-1.113 0.704-1.489 1.278-0.442 0.673-0.641 0.756-0.941 0.395-0.277-0.334-0.379-0.356-0.235-0.052 0.066 0.138 0.069 0.311 0.013 0.644-0.061 0.359-0.103 0.484-0.324 0.718-0.155 0.164-0.349 0.32-0.433 0.348-0.189 0.064-0.359-0.142-0.364-0.44l-3e-3 -0.214-0.49 0.054c-0.638 0.07-0.97-0.038-1.405-0.459-0.191-0.185-0.398-0.77-0.442-0.769-0.045 1e-3 -0.218 0.592-0.403 0.783-0.422 0.435-0.751 0.555-1.39 0.506l-0.491-0.038 3e-3 0.215c5e-3 0.298-0.159 0.509-0.35 0.451-0.085-0.025-0.16-0.055-0.32-0.213-0.226-0.228-0.397-0.47-0.469-0.827-0.066-0.331-0.069-0.504-8e-3 -0.644 0.135-0.308 0.034-0.283-0.232 0.06-0.289 0.371-0.49 0.294-0.952-0.365-0.394-0.56-0.774-0.876-1.529-1.226-0.398-0.185-0.628-0.332-0.783-0.332-0.093 1e-3 -0.14 0.032-0.139 0.098 1e-3 0.056 0.144 0.33 0.318 0.61 0.314 0.502 0.556 0.841 0.435 0.843-0.034 0-0.153 0.046-0.426-0.056-0.273-0.101-0.541-0.183-0.597-0.182-0.287 5e-3 -1e-3 0.571 0.594 1.078 0.195 0.166 0.354 0.327 0.355 0.358 1e-3 0.079-0.669 0.02-1.102-0.099-0.52-0.141-0.619-0.024-0.334 0.392 0.324 0.473 0.752 0.738 1.373 0.836 0.928 0.149 0.933 0.287 0.016 0.501-0.5 0.117-0.656 0.19-0.858 0.406-0.136 0.145-0.23 0.281-0.209 0.301 0.102 0.099 1.854 0.253 2.293 0.202 0.614-0.072 0.644 0.053 0.092 0.383-0.216 0.129-0.513 0.385-0.658 0.568l-0.265 0.333 0.47-8e-3c0.586-0.01 1.167-0.141 1.688-0.381 0.221-0.102 0.42-0.157 0.442-0.122 0.023 0.034-0.022 0.216-0.1 0.403-0.077 0.186-0.161 0.504-0.186 0.707-0.043 0.338-0.033 0.368 0.115 0.366 0.267-5e-3 0.627-0.197 1.173-0.624l0.517-0.405 0.173 0.355c0.15 0.307 0.235 0.379 0.633 0.543 0.321 0.132 0.416 0.18 0.433 0.285 0.034-6e-3 0.069-0.01 0.104-0.011l1.457-0.024c0 1e-3 0 1e-3 1e-3 1e-3 0.017-0.1 0.111-0.153 0.42-0.292 0.392-0.177 0.475-0.253 0.616-0.564l0.162-0.361 0.528 0.388c0.559 0.409 0.926 0.589 1.192 0.584 0.149-2e-3 0.157-0.033 0.104-0.369-0.032-0.202-0.125-0.517-0.208-0.701s-0.134-0.363-0.112-0.399c0.021-0.035 0.222 0.013 0.446 0.107 0.529 0.223 1.113 0.334 1.698 0.324l0.471-7e-3 -0.275-0.324c-0.152-0.178-0.456-0.424-0.676-0.546-0.561-0.311-0.535-0.437 0.081-0.386 0.44 0.036 2.186-0.177 2.285-0.279 0.021-0.021-0.078-0.153-0.218-0.294-0.208-0.209-0.367-0.277-0.869-0.377-0.923-0.184-0.923-0.32 0-0.501 0.615-0.121 1.038-0.398 1.348-0.881 0.272-0.426 0.169-0.54-0.346-0.381-0.43 0.133-1.099 0.215-1.1 0.135-1e-3 -0.031 0.155-0.196 0.344-0.369 0.58-0.527 0.848-1.103 0.561-1.098-0.056 1e-3 -0.322 0.092-0.591 0.203-0.27 0.111-0.389 0.069-0.424 0.07-0.121 2e-3 0.109-0.344 0.407-0.857 0.166-0.285 0.301-0.564 0.3-0.619 0-0.023-7e-3 -0.043-0.022-0.06z"/>
</svg>
