<svg width="16" height="16" version="1.1" xmlns="http://www.w3.org/2000/svg">
  <defs>
    <style type="text/css" id="current-color-scheme">.ColorScheme-Text { color:#282828; } .ColorScheme-Highlight { color:#458588; }</style>
  </defs>
  <path class="ColorScheme-Text" fill="currentColor" d="m2 1v1h5v-1h-5zm8 0v1h4v-1h-4zm-8 2v1h3v-1h-3zm-1 2v10h1v-10h-1zm2 0v2h3v-2h-3zm4 0v2h3v-2h-3zm4 0v2h4v-2h-4zm-8 4v2h3v-2h-3zm4 0v2h3v-2h-3zm4 0v2h4v-2h-4zm-8 4v2h3v-2h-3zm4 0v2h3v-2h-3zm4 0v2h4v-2h-4z"/>
</svg>
