<svg width="16" height="16" version="1.1" xmlns="http://www.w3.org/2000/svg">
  <defs>
    <style id="current-color-scheme" type="text/css">.ColorScheme-Text { color:#282828; } .ColorScheme-Highlight { color:#458588; }</style>
  </defs>
  <path class="ColorScheme-Text" d="m2.516 1.001c-0.9683 0.03561-1.406 0.925-1.473 1.398-0.07811 0.9971 0.2426 1.959 0.5078 2.908-0.3598 0.8526-0.547 1.768-0.5508 2.693 0 3.866 3.134 7 7 7 3.866 0 7-3.134 7-7 0-3.866-3.134-7-7-7-1.104 0.0051-2.192 0.2715-3.174 0.7773 2.448 1.394 4.453 4.011 5.428 5.33 0.1001-1.626 0.143-2.232-0.8262-4.248 0.0456 0.0217 0.9376 0.6198 1.023 0.7832 0.862 1.64 1.927 7.625 1.916 7.857-1.347-1.466-5.774-2.999-8.758-5.029-0.2752-0.672-0.555-1.342-0.875-1.994 1.646 2.001 4.32 2.615 6.941 2.688-2.131-2.87-4.27-4.3-5.836-4.771-0.9342 0.6956-1.68 1.613-2.17 2.67-0.3683-1.519-0.5578-1.987 0.03906-2.535 0.3826-0.3496 1.143-0.4324 2.131-0.1348 0.3111-0.2321 0.6411-0.4379 0.9863-0.6152-0.4486-0.2554-0.912-0.4692-1.387-0.627-0.2695-0.08068-0.6209-0.1615-0.9238-0.1504z" fill="currentColor"/>
</svg>
