<svg width="16" height="16" version="1.1" xmlns="http://www.w3.org/2000/svg">
  <defs>
    <style type="text/css" id="current-color-scheme">.ColorScheme-Text { color:#282828; } .ColorScheme-Highlight { color:#458588; }</style>
  </defs>
  <path class="ColorScheme-Text" d="m6.345 2.482c-2.727 0.001338-5.044 1.994-5.453 4.69h-0.06476c-0.4586 0-0.8285 0.3699-0.8285 0.8285s0.3699 0.8285 0.8285 0.8285h0.06476c0.409 2.696 2.726 4.688 5.453 4.69 1.476-0.0051 2.888-0.6007 3.922-1.655h3.884c1.169-0.9416 1.85-2.362 1.851-3.863-0.0017-1.501-0.682-2.922-1.851-3.863h-3.866c-1.038-1.058-2.457-1.654-3.939-1.655zm0 2.119c1.877 1.341e-4 3.399 1.522 3.399 3.399-1.342e-4 1.877-1.522 3.399-3.399 3.399-1.877-1.35e-4 -3.399-1.522-3.399-3.399 1.339e-4 -1.877 1.522-3.399 3.399-3.399z" fill="currentColor"/>
</svg>
