<svg width="16" height="16" version="1.1" xmlns="http://www.w3.org/2000/svg">
  <defs>
    <style id="current-color-scheme" type="text/css">.ColorScheme-Text { color:#282828; } .ColorScheme-Highlight { color:#458588; }</style>
  </defs>
  <path class="ColorScheme-Text" d="m13.117 1.0117-10.258 3.2539c-0.149 0.048-0.27148 0.22077-0.27148 0.38477v3.3262c0 0.21602 0.1956 0.30236 0.29492 0.34375l10.418 3.3047c0.10012-0.11227 0.11137-0.2287 0.11137-0.27539v-3.3125c0-0.11453-0.08075-0.32372-0.27152-0.38477l-4.2969-1.3633 4.2734-1.3555c0.149-0.047 0.27148-0.21781 0.27148-0.38281v-3.3262c0-0.17204-0.12888-0.25789-0.27149-0.21289zm-7.5605 9.207-2.6738 0.84766c-0.149 0.047-0.27148 0.21781-0.27148 0.38281v3.3262c0 0.164 0.12248 0.25989 0.27148 0.21289l8.8555-2.8086z" fill="currentColor"/>
</svg>
