<svg width="16" height="16" version="1.1" xmlns="http://www.w3.org/2000/svg">
  <defs>
    <style id="current-color-scheme" type="text/css">.ColorScheme-Text { color:#282828; } .ColorScheme-Highlight { color:#458588; }</style>
  </defs>
  <path class="ColorScheme-Text" d="m0.571 12m8.572-4.571c0.631 0 1.143 0.512 1.143 1.142 0 0.631-0.512 1.143-1.143 1.143s-1.143-0.512-1.143-1.142 0.512-1.142 1.143-1.142zm1.714 1.142c0-0.63 0.512-1.142 1.143-1.142s1.143 0.512 1.143 1.142c0 0.631-0.512 1.143-1.143 1.143s-1.143-0.512-1.143-1.143zm-7.401-1.48c-0.011 0.019-0.019 0.036-0.027 0.052-0.4-0.791-2.858-1.143-2.858-1.143v2h-0.571v2.331h0.571v1.714c-0.015 0 2.458-0.351 2.858-1.143v-0.045c0.4 0.791 2.571 2.286 5.771 2.286s6.8-1.73 6.8-4.352c-4e-3 -1.863-1.568-3.453-4-4.22v-0.923c0-0.438-0.357-0.791-0.8-0.791h-4c-0.443 0-0.914 0.353-0.914 0.791v0.924c-0.681 0.215-1.255 0.608-1.715 1.046v-2.225c0-0.296-0.24-0.536-0.535-0.536h-0.072c-0.295 0-0.535 0.24-0.535 0.536v3.5c0 0.068 0.012 0.133 0.027 0.198zm1.687 1.48c0-0.63 0.512-1.142 1.143-1.142 0.63 0 1.143 0.512 1.143 1.142 0 0.631-0.513 1.143-1.143 1.143-0.631 0-1.143-0.512-1.143-1.143z" fill="currentColor"/>
</svg>
