<svg width="16" height="16" version="1.1" xmlns="http://www.w3.org/2000/svg">
  <defs>
    <style id="current-color-scheme" type="text/css">.ColorScheme-Text { color:#282828; } .ColorScheme-Highlight { color:#458588; }</style>
  </defs>
  <path class="ColorScheme-Text" d="m8 1-2 1.508 2 1.492c1.693 3.85e-5 3.203 1.066 3.77 2.662l1.734-2.328 1.168 1.549c-0.9226-2.907-3.622-4.883-6.672-4.883zm-2.1 0.332c-2.913 0.9159-4.896 3.614-4.9 6.668l1.508 2 1.492-2c0.004104-1.688 1.067-3.191 2.656-3.758l-2.322-1.73zm7.607 4.668-1.508 2c-0.0045 1.692-1.074 3.199-2.67 3.762l2.336 1.742-1.533 1.154c2.896-0.9266 4.863-3.617 4.867-6.658zm-9.266 3.344-1.73 2.322-1.18-1.566c0.9159 2.913 3.614 4.896 6.668 4.9l2-1.492-2-1.508c-1.688-0.004104-3.191-1.067-3.758-2.656z" fill="currentColor"/>
</svg>
