<svg width="16" height="16" version="1.1" xmlns="http://www.w3.org/2000/svg">
  <defs>
    <style id="current-color-scheme" type="text/css">.ColorScheme-Text { color:#282828; } .ColorScheme-Highlight { color:#458588; }</style>
  </defs>
  <path class="ColorScheme-Text" d="m14.05 14.09c0.2533-0.492 1.711-8.901 1.919-11.08 0.2253-2.155-0.95-1.754-2.031-1.39-2.653 0.896-11.04 4.527-13.34 5.725-0.5647 0.2347-0.8093 0.632-0.398 0.9767 0.354 0.2913 1.65 0.6927 2.695 0.896 0.8913 0.2693 1.583 0.01134 2.222-0.3493 1.535-0.91 6.109-3.805 6.355-3.966 0.246-0.1613 0.5153 0.1387 0.378 0.2833-0.138 0.1447-3.377 3.05-4.441 4.363-0.5633 0.722-0.546 1.108 0.03267 1.563 1.299 1.018 4.768 3.339 5.284 3.48 0.6587 0.1787 1.044 0.03061 1.322-0.508z" fill="currentColor"/>
</svg>
