<svg width="16" height="16" version="1.1" xmlns="http://www.w3.org/2000/svg">
  <defs>
    <style type="text/css" id="current-color-scheme">.ColorScheme-Text { color:#282828; } .ColorScheme-Highlight { color:#458588; }</style>
  </defs>
  <path class="ColorScheme-Text" fill="currentColor" d="m1.089 7.077c4.302-1.874 7.17-3.11 8.605-3.707 4.098-1.704 4.949-2 5.504-2.01 0.1221-0.00191 0.395 0.02813 0.5718 0.1716 0.1493 0.1211 0.1904 0.2848 0.21 0.3996 0.01966 0.1148 0.04413 0.3765 0.02468 0.5809-0.2221 2.333-1.183 7.995-1.672 10.61-0.2068 1.106-0.6141 1.477-1.008 1.513-0.8569 0.07885-1.508-0.5663-2.337-1.11-1.299-0.8513-2.032-1.381-3.293-2.212-1.457-0.96-0.5124-1.488 0.3178-2.35 0.2173-0.2257 3.993-3.66 4.066-3.971 0.0091-0.03896 0.01762-0.1842-0.06866-0.2609-0.08628-0.07669-0.2136-0.05044-0.3055-0.02959-0.1303 0.02953-2.205 1.401-6.224 4.114-0.5889 0.4044-1.122 0.6014-1.6 0.5911-0.5268-0.01141-1.54-0.2979-2.294-0.5428-0.9241-0.3004-1.658-0.4592-1.595-0.9693 0.03331-0.2657 0.3992-0.5375 1.098-0.8152z"/>
</svg>
