<svg width="16" height="16" version="1.1" xmlns="http://www.w3.org/2000/svg">
  <defs>
    <style id="current-color-scheme" type="text/css">.ColorScheme-Text { color:#282828; } .ColorScheme-Highlight { color:#458588; }</style>
  </defs>
  <path class="ColorScheme-Text" d="m6 1c-2.3808 0-4.3033 1.8918-4.4473 4.2383-1.3742 1.2488-1.5527 2.6288-1.5527 3.2617 0 2.4514 1.9942 4.4526 4.4375 4.4883 0.83232 1.1794 2.0861 2.0098 3.5605 2.0117h2e-3c1.2591-5.02e-4 2.3752-0.61836 3.2188-1.5254 0.09757 0.0067 0.18667 0.02575 0.28124 0.02539 2.4734 2e-6 4.5-2.0266 4.5-4.5-9.2e-5 -1.0386-0.4121-2.0095-1.0625-2.8086-0.16819-2.3235-2.0733-4.1914-4.4375-4.1914-0.50275 0.0066463-0.96457 0.20636-1.4316 0.36914-1.2038-1.1746-2.4044-1.3691-3.0684-1.3691zm2.0137 3.0234c0.29642 0.40614 0.84829 0.52905 1.2891 0.28711 0.36707-0.20199 0.77831-0.30931 1.1973-0.31055 1.6689 0 2.5 1.4192 2.5 2.502-0.013247 0.27818 0.090097 0.54928 0.28516 0.74805 0.4589 0.46762 0.71479 1.0948 0.71484 1.75 0 1.3919-1.1064 2.499-2.498 2.5-0.1398-0.0013-0.28034-0.01442-0.41797-0.03906-0.39108-0.07029-0.78667 0.09761-1.0078 0.42773-0.46402 0.69403-1.2394 1.1103-2.0742 1.1113-0.97184-0.0013-1.8501-0.56105-2.2617-1.4414-0.18028-0.38431-0.58352-0.61294-1.0059-0.57031-0.07798 0.0079-0.156 0.01122-0.23438 0.01172-1.3919 0-2.499-1.1064-2.5-2.498 0-0.29282 0.07245-1.3553 1.0742-2.0508 0.28334-0.1971 0.44502-0.52637 0.42773-0.87109-0.049849-1.0224 0.74304-2.5788 2.4961-2.5801 0.33566 0 1.3288 0.084577 2.0156 1.0234zm-2.543 2.0566c-0.17796 0.01256-0.33576 0.11899-0.41406 0.2793-0.12192 0.2486-0.0186 0.54895 0.23047 0.66992l0.94531 0.45898-0.94531 0.45898c-0.24794 0.12095-0.35107 0.41986-0.23047 0.66797 0.12095 0.24794 0.41986 0.35107 0.66797 0.23047l1.8711-0.9082c0.37652-0.18204 0.37652-0.71835 0-0.90039l-1.8711-0.9082c-0.07889-0.038256-0.16645-0.055095-0.25391-0.048828zm2.6719 2.5742c-0.13203 0.0077-0.25563 0.067393-0.34375 0.16602-0.18486 0.20589-0.16735 0.52276 0.03906 0.70703 0 0 0.17259 0.14629 0.42773 0.25781 0.25515 0.11152 0.62654 0.21484 1.1016 0.21484 0.47502 0 0.84447-0.10332 1.0996-0.21484 0.25514-0.11152 0.42773-0.25781 0.42773-0.25781 0.20699-0.18371 0.22538-0.50062 0.04102-0.70703-0.18409-0.20513-0.49946-0.2226-0.70508-0.039062-0.025939 0.025291-0.11455 0.066223-0.16411 0.087887-0.14091 0.061615-0.36718 0.13086-0.69917 0.13086-0.332 0-0.56022-0.069247-0.70117-0.13086-0.12334-0.053911-0.15613-0.082018-0.16211-0.087891-0.09882-0.088596-0.22881-0.13427-0.36133-0.12695z" fill="currentColor"/>
</svg>
