<svg width="16" height="16" version="1.1" xmlns="http://www.w3.org/2000/svg">
  <defs>
    <style id="current-color-scheme" type="text/css">.ColorScheme-Text { color:#282828; } .ColorScheme-Highlight { color:#458588; }</style>
  </defs>
  <path class="ColorScheme-Text" d="m2.6 1-0.5996 1s-0.3996 0.8 0.4004 2c0.4961 0.7442 1.199 1.6 1.199 1.6l-3.6 1.4 2.801 1h2.199s0.6387 0.01736 0.8008 0.8008l1.199 5.799s0.2 0.4004 1 0.4004 1-0.4004 1-0.4004l1-5.799c0.1359-0.7884 0.8008-0.8008 0.8008-0.8008h2.398l2.801-1-3.602-1.4s0.7033-0.855 1.199-1.6c0.8-1.2 0.4004-2 0.4004-2l-0.5996-1v1l-2.398 1-3-0.5-3 0.5-2.4-1zm1.4 0 0.209 0.7734 0.791 0.2266h0.9004zm1.9 1 0.8848-0.1973-0.7852-0.8027zm0.8848-0.1973 1.215-0.1973-1-0.6055zm1.215-0.1973 1.166 0.1348-0.166-0.7402zm1.166 0.1348 0.8945 0.2598-0.06055-1zm0.8945 0.2598h0.9395l0.6914-0.3379 0.3086-0.6621zm-5.061 2 2.4 1.6s-0.0012 0.4004-1.201 0.4004c-1.2 0-1.199-2-1.199-2zm6 0s7.77e-4 2-1.199 2c-1.199 0-1.201-0.4004-1.201-0.4004zm3.412 0.582c-0.1711 0.2534-0.2376 0.3149-0.4238 0.5625l0.6738 0.2617 1.338-0.7266zm-12.78 0.06055-1.633 0.1641 1.248 0.6348 0.7637-0.2969c-0.1667-0.2216-0.2441-0.3092-0.3789-0.502zm5.168 3.756c0.03431 0 0.688 1.601 0.688 1.601l0.1459-1h0.7481l0.1247 1 0.6913-1.601v1.801l-0.1445-0.1582-0.2539 3.559-0.166-1.6-0.2363 0.998h-0.8008l-0.2695-0.998-0.1289 1.586-0.2539-3.559-0.1445 0.1719zm-4.523 0.4766-1.275 2.125 3.395-0.1992-0.8008 3.199 1.998-1.271c-0.259-1.251-0.5214-2.508-0.7676-3.729h-2.197zm11.44 0-0.3477 0.125h-2.391l-0.6367 3.691 2.059 1.312-0.8008-3.197 3.4 0.1992z" fill="currentColor"/>
</svg>
