<svg width="16" height="16" version="1.1" xmlns="http://www.w3.org/2000/svg">
  <defs>
    <style id="current-color-scheme" type="text/css">.ColorScheme-Text { color:#282828; } .ColorScheme-Highlight { color:#458588; }</style>
  </defs>
  <path class="ColorScheme-Text" d="m10.46 2.017c-0.2077 0.00951-1.148 0.2003-1.213 0.4266-0.02087 0.09306-0.06445 0.4736-0.06445 0.4736-1.205-0.07423-3.324 1.02-3.785 1.372-0.4103 0.313-1.273 1.373-1.854 2.072-0.3055 0.3681-2.652 1.166-3.111 2.078 0.383 0.1877 1.02 0.509 1.391 0.6967l0.2617 1.434s-1.696-0.7575-1.902-0.8532c-0.2363 0.2023-0.1348 0.4303-0.1348 0.6517 0 0.406-0.1404 0.854 0.05664 0.9863 1.836 1.233 4.526 2.208 6.693 2.644 0.308 0.05026 0.7932-0.195 1.143-0.4266 0.02045 0.0089 0.04257 0.01536 0.06445 0.01957l0.8106 0.1546 2e-3 -0.0059c0.01411 0.0058 0.02838 0.0101 0.04297 0.0137 0.3737 0.07243 0.8113-0.5791 0.9766-1.454 0.1655-0.8749-0.0046-1.641-0.3789-1.71-0.2586-0.05188-0.4915-0.09384-0.7305-0.139 0.06244-0.08633 0.136-0.1528 0.2246-0.1898 0.1233-0.04496 0.5574 0.01337 0.6911 0.04401 0.11 0.0252 0.641 0.2585 0.5725 1.398 0.4122-0.3292 2.619-1.96 3.387-2.501 0.05378 0.07586 0.1198 0.1244 0.1953 0.139 0.2347 0.04314 0.4852 0.0922 0.7109 0.1351 0.3106 0.0602 0.6732-0.4822 0.8106-1.209 0.1375-0.7272-0.0034-1.363-0.3144-1.421-0.2331-0.04325-0.4675-0.08832-0.7012-0.1331 0.04267-0.04884 0.08951-0.09255 0.1465-0.1213 0.2503-0.08542 0.6585-0.0386 0.6953-0.03708 0.08495 0.00352 0.5418 0.2141 0.4679 1.172 0.2351-0.2531 0.3968-0.3175 0.3544-0.8458-0.03347-0.4158-0.09282-0.8272-0.1915-1.305 0.06066-0.309 0.3413-1.805 0.166-2.18-0.1809-0.3052-5.088-1.398-5.482-1.38zm-0.5469 0.5304c0.7427 0.0938 3.814 0.8185 5.055 1.397 0.1901 0.09501 0.1523 0.3948 0.08789 0.681-0.4267-0.1555-0.9884-0.2676-1.373-0.3581-0.1968-0.1198-0.6127-0.3966-0.9844-0.5577-0.3377-0.1051-0.7136-0.2174-1.102-0.3229-1.11 0.146-2.504 1.036-3.143 1.777 0.3785 0.1062 0.7368 0.2165 1.049 0.3327 0.159 0.1398-0.2577 2.058-0.4512 2.524-0.04392 0.1061-0.9012-0.0925-1.906-0.3757-0.9601 0.5952-2.338 1.861-2.869 2.432l-1.613-0.6282c0.9504-1.226 2.339-2.035 2.766-2.325-0.8833-0.2891-1.578-0.5518-1.568-0.6223 0.04697-0.3318 1.478-2.038 1.67-2.002 0.3464 0.06427 0.7275 0.1412 1.121 0.225 0.511-0.8165 2.202-1.518 3.166-1.736zm2.648 1.677c0.394-0.03344 1.507 0.7391 1.455 0.9139-0.07643 0.2558-1.132 0.9455-1.195 0.7456-0.1819-0.5731-0.4966-1.091-0.6992-1.411-0.06361-0.1004 0.2009-0.2104 0.4394-0.2485zm-0.9297 0.4325c0.2419 0 0.8541 1.346 0.709 1.626-0.09673 0.1865-2.307 1.654-2.473 1.546-0.204-0.1337 0.2511-1.981 0.3574-2.223 0.1084-0.2465 1.164-0.9491 1.406-0.9491zm3.156 2.871c0.148-0.00182 0.296 0.2521 0.2148 0.681-0.06457 0.342-0.2521 0.5925-0.418 0.5617-0.1666-0.03032-0.2486-0.3338-0.1836-0.6771 0.06077-0.3219 0.229-0.5636 0.3867-0.5656zm-9.639 2.773c0.3132 0.0982 1.144 0.4671 1.545 0.5949 0.3969 0.0646 0.9016-0.243 1.053 0.3718 0.04387 0.179-0.01215 0.5139-0.125 0.6478-0.1454 0.1508-0.4035 0.2548-0.8281 0.2681-0.7018-0.1136-1.832-0.503-2.512-0.865zm4.047 1.11c0.1875 0.02094 0.3532 0.3141 0.2578 0.818-0.07769 0.4115-0.3024 0.7143-0.502 0.6771-0.2004-0.03647-0.2989-0.4011-0.2207-0.8141 0.1184-0.6269 0.407-0.6875 0.4648-0.681z" fill="currentColor"/>
</svg>
