<svg width="16" height="16" version="1.1" xmlns="http://www.w3.org/2000/svg">
  <defs>
    <style id="current-color-scheme" type="text/css">.ColorScheme-Text { color:#282828; } .ColorScheme-Highlight { color:#458588; }</style>
  </defs>
  <path class="ColorScheme-Text" d="m7.848 1c-1.41 0-2.124 1.021-2.124 3.035v1.517c0 0.1129-0.03062 0.2468-0.084 0.3544-0.94474 1.2631-1.4339 2.7236-1.7075 4.2594 0.59931-0.1167 1.0755 0.28296 1.6735 1.2683 0.70483 1.0101-0.070396 0.03469 1.0482 1.6223 0.1855-0.07438 0.3754-0.1864 0.4882-0.3474 0.1479-0.2468 0.1312-0.5399-0.04375-0.8024-0.14273-0.21657-0.80056-0.48478-1.0658-0.7114-0.2555-0.2179-0.6125-0.6939-0.6125-1.071 0-1.4124 1.3269-3.2055 1.484-3.776 0.19461 0.13382 0.40883 0.13388 0.73945 0.13388 0.44641 0 0.86059-0.40412 1.0858-0.4839 0.1374 0.2599 0.3159 0.5005 0.5005 0.7508 0.5075 0.6825 1.117 1.831 1.297 3.538 0.67179-0.3558 1.745-0.1058 2.1158 0.3212 0.1225 8.76e-4 0.2415 0.02975 0.3509 0.08312 0-0.1978 0.01488-0.4891 0.01488-0.567 0-1.3294-0.9433-2.8123-1.4468-3.5095-0.4375-0.6055-0.784-1.085-0.9818-1.909-0.2538-1.044-0.08496-0.70601-0.3098-1.645-0.196-0.9179-0.4392-2.061-2.422-2.061zm-0.91 1.822c0.27863 0 0.63105 0.48331 0.60108 1.2374-0.10593-0.021279-0.20983 0.019341-0.31322 0.02887-0.03676-0.1934-0.1479-0.3369-0.2879-0.3369-0.23166 0-0.35873 0.36154-0.27998 0.6282-0.075964 0.051149-0.14 0.11668-0.20998 0.175-0.25882-0.48639-0.03716-1.7327 0.48995-1.7327zm1.517 0c0.39894 0 0.79612 0.91404 0.5013 1.6959-0.07963-0.03412-0.161-0.06125-0.245-0.08225 0.13335-0.3356-0.041072-0.6842-0.25635-0.6842-0.1671 0-0.3036 0.2039-0.3036 0.455 0 0.00924-0.089093-0.04099-0.294-0.09625-0.057322-0.63054 0.25052-1.2881 0.59758-1.2881zm-0.5188 1.9545c0.1636 0.0665 0.3019 0.1391 0.4182 0.1881 0.020815 0.014857 0.29342 0.067609 0.39812 0.12075 0.077677 0.047676-0.077038 0.25427-0.24412 0.3491-0.23659 0.13178-0.7144 0.42215-0.8654 0.441-0.12519 0.015625-0.32398 0.013926-0.3902-0.02538-0.30521-0.24311-0.61859-0.50239-0.61859-0.61862 0.0026705-0.099672 0.28268-0.31644 0.47507-0.43315 0.23442-0.15227 0.40763-0.19223 0.82692-0.0218zm2.8128 6.1057c0.1234 0.1426 0.1995 0.28 0.2774 0.5285 0.084 0.1855 0.2949 0.2319 0.4638 0.2319 0.5145 0 0.6142-0.3098 0.777-0.4839 0 0-0.04288-0.04812-0.04288-0.09362-0.15862-0.34314-1.2673-0.44515-1.4753-0.18288zm-6.6032-0.13208c-0.2118 0-0.3159 0.105-0.4568 0.2459-0.1409 0.14-0.2905 0.3579-0.5372 0.5338-0.2161 0.2818-0.8654 0.0105-1.051 0.4349-0.1032 0.2328 0.2511 0.5381 0.2511 1.063 0 0.2118-0.1768 0.3518-0.2118 0.4926-0.035 0.1741-0.07088 0.2791 0 0.4191 0.14 0.21 0.3168 0.2818 1.514 0.525 0.6326 0.1418 1.231 0.4926 1.618 0.5268 0.3868 0.03412 1.055 0 1.055-0.9459 0.035-0.5609-0.2809-0.7009-0.5976-1.262-0.3518-0.5618-0.3868-0.6659-0.6326-1.017-0.2118-0.3509-0.6694-1.016-0.9511-1.016zm6.202 0.6064c-0.14201 0.28065-0.02147 0.85507-0.10675 1.4691-0.07262 0.609-0.2677 0.8829-0.2677 1.241 0 0.3955 0.1076 0.6466 0.2511 0.7542 0.1067 0.1076 0.287 0.1794 0.6816 0.1794 0.3938 0 0.6449-0.1435 0.896-0.3938 0.4246-0.4265 1.8217-1.1755 1.936-1.2916 0.07262-0.07175 0.1802-0.1085 0.1802-0.3246 0-0.1785-0.1435-0.2502-0.2511-0.2852-0.1435-0.07262-0.3938-0.1802-0.6099-0.5031-0.09362-0.1549-0.07962-0.5548-0.1916-0.798-0.33944 0.59611-0.86462 0.83203-1.3756 0.8452-0.4699 0-0.8488-0.2196-1.016-0.588-0.04207-0.1277-0.09998-0.26069-0.12629-0.3046zm-0.8286 1.94c-0.78483 0.67345-2.013 0.63485-2.728 7e-3 0.15108 0.31581 0.17899 0.68597 0.1146 1.0893h2.484c-0.07786-0.37425 0.057887-0.73691 0.1294-1.0963z" fill="currentColor"/>
</svg>
