<svg width="16" height="16" version="1.1" xmlns="http://www.w3.org/2000/svg">
  <defs>
    <style id="current-color-scheme" type="text/css">.ColorScheme-Text { color:#282828; } .ColorScheme-Highlight { color:#458588; }</style>
  </defs>
  <path class="ColorScheme-Text" d="m7.273 1-0.5469 3.812-0.2363 5.01 1.248 0.1797 1.182-4.875 0.5469-3.812-2.193-0.3145zm6.676 0.9336-1.457 3.564-1.447 4.803 1.168 0.4766 2.33-4.441 1.457-3.564-2.051-0.8379zm-11.77 0.7129-2.176 0.4219 0.7344 3.781 1.422 4.811 1.238-0.2402-0.4844-4.994-0.7344-3.779zm4.699 7.824c-0.7824-0.0357-1.393 0.5114-1.5 1.258-0.1154 0.8049 0.3946 1.521 1.244 1.643 0.8541 0.1223 1.577-0.4429 1.689-1.221 0.1166-0.8131-0.4331-1.543-1.275-1.664-0.05359-0.007672-0.106-0.01324-0.1582-0.01562zm3.939 0.4883c-0.5795 0.005351-1.09 0.3634-1.318 0.9199-0.3061 0.7494 0.01433 1.57 0.8105 1.895 0.8018 0.3281 1.64-0.04802 1.936-0.7734 0.3119-0.7604-0.04831-1.603-0.834-1.924-0.2011-0.08229-0.4006-0.119-0.5938-0.1172zm-7.619 1.119c-0.101 4.5e-5 -0.2043 0.01103-0.3086 0.03125-0.8543 0.167-1.313 0.9304-1.16 1.719 0.1542 0.7934 0.8692 1.305 1.715 1.141 0.8481-0.1658 1.347-0.937 1.197-1.707-0.1372-0.707-0.7367-1.184-1.443-1.184z" fill="currentColor"/>
</svg>
