<svg width="16" height="16" version="1.1" xmlns="http://www.w3.org/2000/svg">
  <defs>
    <style id="current-color-scheme" type="text/css">.ColorScheme-Text { color:#282828; } .ColorScheme-Highlight { color:#458588; }</style>
  </defs>
  <path class="ColorScheme-Text" d="m6.044 14.79c-1.231-0.3052-2.284-0.9341-3.362-2.008-0.8501-0.8466-0.9813-1.036-1.314-1.882-0.3288-0.8396-0.3691-1.055-0.3656-1.993 0.005248-1.496 0.2965-2.397 1.135-3.511 0.7889-1.048 1.145-1.337 2.399-1.953 0.8798-0.4312 1.448-0.5982 2.688-0.7933 0.5055-0.07871 0.5221-0.2536 0.05422-0.5799-0.5991-0.4181-1.238-1.001-1.173-1.068 0.06997-0.07259 2.428 0.7434 3.509 1.215 1.373 0.5973 3.062 1.767 3.835 2.654 0.3035 0.3481 0.446 0.7145 0.2772 0.7145-0.07697 0-1.07-0.4504-2.075-0.9402-0.4207-0.2055-0.8134-0.3428-0.872-0.3061-0.05947 0.03673 0.01224 0.1198 0.16 0.1837 0.1469 0.06297 0.2921 0.1487 0.3227 0.1889 0.02973 0.04111 0.265 0.1373 0.5221 0.2151 0.2563 0.07696 0.467 0.1819 0.467 0.2335 0 0.05073 0.06122 0.0962 0.1373 0.0997 0.07521 0.0035 0.3813 0.1224 0.6804 0.265l0.544 0.2598-0.4338 0.1207c-0.6708 0.188-0.9621 0.1531-2.204-0.2659-1.452-0.4898-2.929-0.6087-4.258-0.3428-1.311 0.2615-1.431 0.4635-0.781 1.321 0.5003 0.6612 1.007 0.8239 1.759 0.5667 0.3087-0.1058 0.6332-0.1461 0.8064-0.0997 0.2641 0.06997 0.2702 0.08396 0.07084 0.1574-0.2003 0.07434-0.1915 0.09533 0.1102 0.2598 0.2221 0.1216 0.2659 0.1802 0.1356 0.1837-0.2099 0.00437-0.2589 0.1714-0.08221 0.2807 0.2073 0.1294 0.1119 0.293-0.1268 0.216-0.1907-0.06122-0.223-0.03936-0.1653 0.1111 0.05597 0.1469 0.02449 0.1714-0.1487 0.1154-0.1635-0.0516-0.2195-0.01837-0.2221 0.1312-0.001749 0.1548-0.07259 0.1163-0.3087-0.1705-0.293-0.3551-0.3516-0.3761-1.343-0.4732-1.224-0.1189-1.552-0.2344-1.919-0.6743l-0.2737-0.328-0.293 0.6446c-0.3813 0.8396-0.4723 2.09-0.209 2.89 0.5965 1.808 1.85 2.576 3.13 1.918 0.8693-0.4469 1.115-1.273 0.6026-2.018-0.2974-0.432-0.2991-0.907-0.003498-0.6594 0.1784 0.1487 0.2886 0.05422 0.2982-0.2536 0.00612-0.2073 0.01837-0.202 0.1198 0.04548l0.1128 0.2772 0.1679-0.2493c0.209-0.3087 0.3603-0.3236 0.2834-0.02799-0.06472 0.2501 0.07259 0.2904 0.2877 0.08308 0.1181-0.1128 0.1303-0.09008 0.06647 0.1216-0.06997 0.2326-0.05073 0.2528 0.1802 0.1872 0.2213-0.06209 0.2055-0.02711-0.1128 0.2466l-0.37 0.3192 0.07871 1.218 0.07871 1.219-0.3358 0.2842c-0.3332 0.2825-0.3332 0.286-0.08396 0.349 0.3577 0.09008 1.893-0.1032 2.542-0.321 1.09-0.3656 2.382-1.35 2.917-2.221 0.6717-1.095 1.045-3.222 0.7233-4.116-0.1373-0.3804-0.1417-0.4705-0.02361-0.4705 0.2965 0 0.6061 1.21 0.6105 2.385 0.0052 1.452-0.5213 2.804-1.541 3.957-1.6 1.809-4.848 2.723-7.411 2.089z" fill="currentColor"/>
</svg>
