<svg width="16" height="16" version="1.1" xmlns="http://www.w3.org/2000/svg">
  <defs>
    <style id="current-color-scheme" type="text/css">.ColorScheme-Text { color:#282828; } .ColorScheme-Highlight { color:#458588; }</style>
  </defs>
  <path class="ColorScheme-Text" d="m13.5 1c-0.82843 0-1.5 0.67157-1.5 1.5 1.38e-4 0.18153 0.03323 0.36154 0.09766 0.53125l-1.8379 2.2461c-0.39484-0.1827-0.8247-0.27734-1.2598-0.27734-1.5106-2.953e-4 -2.7858 1.1226-2.9766 2.6211l-4.4453 0.5625c-0.16905-0.11958-0.37106-0.18373-0.57812-0.18359-0.55228 0-1 0.44772-1 1 0 0.55228 0.44772 1 1 1 0.28069 3.31e-4 0.5486-0.11732 0.73828-0.32422l4.4746-0.56641c0.45429 1.1414 1.5586 1.8905 2.7871 1.8906 1.6569 0 3-1.3431 3-3 6.6e-5 -0.63778-0.20312-1.259-0.58008-1.7734l1.8379-2.2461c0.080068 0.013049 0.16106 0.019581 0.24219 0.019531 0.82843 0 1.5-0.67157 1.5-1.5s-0.67157-1.5-1.5-1.5zm-8.5 1c-0.55234 0-1.0001 0.44774-1 1-7.2e-5 0.55226 0.44766 1 1 1s1.0001-0.44774 1-1c7.2e-5 -0.55226-0.44766-1-1-1zm8.5 0c0.27614 0 0.5 0.22386 0.5 0.5s-0.22386 0.5-0.5 0.5-0.5-0.22386-0.5-0.5 0.22386-0.5 0.5-0.5zm-7.3945 1.582-0.7793 0.625 0.41016 0.51367 0.77344-0.63281zm0.71875 0.89648-0.77539 0.63281 0.55469 0.69531 0.78125-0.62695zm2.1758 2.0215c0.82843 0 1.5 0.67157 1.5 1.5s-0.67157 1.5-1.5 1.5-1.5-0.67157-1.5-1.5 0.67157-1.5 1.5-1.5zm-8 2c0.27614 0 0.5 0.22386 0.5 0.5 0 0.27614-0.22386 0.5-0.5 0.5s-0.5-0.22386-0.5-0.5c0-0.27614 0.22386-0.5 0.5-0.5zm10.623 1.416-0.70703 0.70703 0.8457 0.8457 0.70703-0.70703zm-4.6191 0.95898-0.81836 1.6367 0.89453 0.44726 0.81836-1.6367zm5.8184 0.24023-0.70703 0.70703 0.8457 0.8457 0.70703-0.70703zm1.6777 0.88477c-0.82843 0-1.5 0.67157-1.5 1.5s0.67157 1.5 1.5 1.5 1.5-0.67157 1.5-1.5-0.67157-1.5-1.5-1.5zm-8.5 1c-0.55228 0-1 0.44772-1 1s0.44772 1 1 1 1-0.44772 1-1-0.44772-1-1-1z" fill="currentColor"/>
</svg>
