<svg width="16" height="16" version="1.1" xmlns="http://www.w3.org/2000/svg">
  <defs>
    <style id="current-color-scheme" type="text/css">.ColorScheme-Text { color:#282828; } .ColorScheme-Highlight { color:#458588; }</style>
  </defs>
  <path class="ColorScheme-Text" d="m3.031 1c-0.17-0.007059-0.3374 0.04391-0.4746 0.1445-0.3346 0.2447-0.4072 0.7145-0.1621 1.049l1.164 1.586c-0.8247 0.7705-1.434 1.742-1.77 2.82 0.1913 0.07237 2.46 0.9004 6.211 0.9004 3.665 0 5.935-0.7902 6.219-0.8945-0.3262-1.052-0.9142-2.003-1.709-2.766l1.115-1.674c0.2302-0.3451 0.1366-0.8115-0.209-1.041-0.1654-0.1102-0.3677-0.1502-0.5625-0.1113-0.1958 0.03885-0.368 0.1541-0.4785 0.3203l-1.059 1.588c-1.002-0.5997-2.148-0.9182-3.316-0.9219-1.138 0.005694-2.255 0.3101-3.238 0.8828l-1.156-1.576c-0.1348-0.1843-0.3461-0.2972-0.5742-0.3066zm-1.465 6.58c-0.04389 0.3047-0.06608 0.6121-0.06641 0.9199 0 3.59 2.91 6.5 6.5 6.5s6.5-2.91 6.5-6.5c-4.5e-5 -0.3052-0.02158-0.61-0.06445-0.9121-0.1985 0.06648-0.5717 0.1788-1.068 0.3008l-1.635 4.98c-0.2267 0.7918-0.6787 0.7573-1.004 0.3164l-2.701-2.893-2.793 2.978c-0.3425 0.2828-0.664 0.3761-0.9121-0.1289l-1.748-5.232c0.2614 0.04928 0.5231 0.09376 0.7852 0.1367-0.8946-0.1836-1.52-0.3739-1.793-0.4668zm3.199 0.7051 0.584 2.264 1.762-2.066c-0.8695-0.03071-1.655-0.1041-2.346-0.1973zm6.486 0c-0.6934 0.09352-1.483 0.1663-2.356 0.1973l1.754 2.106z" fill="currentColor"/>
</svg>
