<svg width="16" height="16" version="1.1" xmlns="http://www.w3.org/2000/svg">
  <defs>
    <style id="current-color-scheme" type="text/css">.ColorScheme-Text { color:#282828; } .ColorScheme-Highlight { color:#458588; }</style>
  </defs>
  <path class="ColorScheme-Text" d="m6 1c-3.314 0-6 2.495-6 5.572 9.106e-4 1.457 0.6165 2.856 1.715 3.896v2.531l1.131-1.697c0.947 0.5467 2.039 0.8375 3.154 0.8398 0.1734-1.86e-4 0.3468-0.007354 0.5195-0.02148-0.3324-0.644-0.5195-1.363-0.5195-2.121-9e-7 -2.761 2.462-5 5.5-5 0.08642 0 0.1724 0.002279 0.2578 0.005859-0.7486-2.374-3.094-4.006-5.758-4.006zm-2.857 3c0.4736-1.542e-4 0.8576 0.3838 0.8574 0.8574 1.542e-4 0.4736-0.3838 0.8576-0.8574 0.8574-0.4736 1.541e-4 -0.8576-0.3838-0.8574-0.8574-1.541e-4 -0.4736 0.3838-0.8576 0.8574-0.8574zm5 0c0.4736-1.542e-4 0.8576 0.3838 0.8574 0.8574 1.542e-4 0.4736-0.3838 0.8576-0.8574 0.8574-0.4736 1.541e-4 -0.8576-0.3838-0.8574-0.8574-1.541e-4 -0.4736 0.3838-0.8576 0.8574-0.8574zm3.357 2a4.5 4.05 0 0 0-4.5 4.051 4.5 4.05 0 0 0 4.5 4.049 4.5 4.05 0 0 0 2.529-0.7051l1.07 1.605v-2.527a4.5 4.05 0 0 0 0.9004-2.422 4.5 4.05 0 0 0-4.5-4.051zm-1.801 2.699a0.9 0.9 0 0 1 0.9004 0.9004 0.9 0.9 0 0 1-0.9004 0.9004 0.9 0.9 0 0 1-0.8984-0.9004 0.9 0.9 0 0 1 0.8984-0.9004zm3.602 0a0.9 0.9 0 0 1 0.8984 0.9004 0.9 0.9 0 0 1-0.8984 0.9004 0.9 0.9 0 0 1-0.9004-0.9004 0.9 0.9 0 0 1 0.9004-0.9004z" fill="currentColor"/>
</svg>
