<svg width="16" height="16" version="1.1" xmlns="http://www.w3.org/2000/svg">
  <defs>
    <style id="current-color-scheme" type="text/css">.ColorScheme-Text { color:#282828; } .ColorScheme-Highlight { color:#458588; }</style>
  </defs>
  <path class="ColorScheme-Text" d="m5.278 13.3h0.6977l2.33-4.519 1.916 4.519h0.6717l3.981-9.161c0.2232-0.5139 0.6583-0.8225 1.121-0.8924v-0.5456h-3.219v0.5458c0.4272 0.09502 0.8806 0.2551 1.082 0.7059l-2.924 6.743c-0.5285-1.124-1.07-2.352-1.588-3.578 0.5338-1.134 0.9698-2.188 1.625-3.223 0.3829-0.6091 1.004-0.6234 1.324-0.6534v-0.541h-3.422v0.541c0.427 0 1.316 0.03839 0.9193 0.871l-0.9925 2.087-1.051-2.321c-0.1637-0.3615 0.1543-0.6023 0.6732-0.6309l-0.003839-0.5461h-3.852v0.541c0.4589 0.01503 1.106 0.01263 1.345 0.4017 0.7354 1.351 1.227 2.754 1.898 4.132l-1.735 3.244-2.916-6.703c-0.3286-0.7554 0.4515-0.9987 0.9583-1.062l-0.005653-0.5537h-4.107v0.541c0.567 0.1875 1.298 1.031 1.503 1.458 1.534 3.209 2.306 5.36 3.771 8.6z" fill="currentColor"/>
</svg>
