<svg width="16" height="16" version="1.1" xmlns="http://www.w3.org/2000/svg">
  <defs>
    <style id="current-color-scheme" type="text/css">.ColorScheme-Text { color:#282828; } .ColorScheme-Highlight { color:#458588; }</style>
  </defs>
  <path class="ColorScheme-Text" d="m8 1c-1.793 0.0066-3.515 0.7008-4.811 1.939 0.00215 0.0038-0.09542 0.9453-0.1426 1.418-0.1416 1.414 0.1235 3.386 2.182 4.781-1.223-2.959 2.108-7.57 6.426-7.107-1.1-0.6739-2.364-1.031-3.654-1.031zm-0.3398 3.277c-0.3183 0.2879-0.5862 0.61-0.8086 0.9492 2.622-1.088 7.616 1.676 7.111 6.424 0.6752-1.098 1.034-2.361 1.037-3.65-2.89e-4 -1.827-0.7119-3.557-1.945-4.844-0.2403-0.0235-0.3253-0.031-1.174-0.1133-1.144-0.111-2.779-0.05992-4.221 1.234zm-5.631 0.2871c-0.61 1.049-1.026 2.224-1.029 3.436 0.00466 1.796 0.6997 3.522 1.941 4.82 0.2795 0.03751 0.7089 0.0903 1.385 0.1582 1.355 0.1361 3.524-0.3159 4.711-2.137-2.498 0.8743-7.307-1.472-7.008-6.277zm8.514 2.148c1.217 2.913-1.402 7.758-6.242 7.223 1.109 0.6934 2.391 1.062 3.699 1.064 1.836-0.0027 3.571-0.7253 4.857-1.971 0.02787-0.2718 0.06078-0.6234 0.09961-1.139 0.05899-0.7828 0.2698-2.557-1.234-4.23-0.3493-0.3839-0.7539-0.6982-1.18-0.9473z" fill="currentColor"/>
</svg>
