<svg xmlns="http://www.w3.org/2000/svg" xmlns:xlink="http://www.w3.org/1999/xlink" width="16" height="16" version="1.1" viewBox="0 0 4.23 4.23">
 <defs>
  <style id="current-color-scheme" type="text/css">
   .ColorScheme-Text { color:#ebdbb2; } .ColorScheme-Highlight { color:#458588; }
  </style>
  <linearGradient id="arrongin" x1="0%" x2="0%" y1="0%" y2="100%">
   <stop offset="0%" style="stop-color:#d79921"/>
   <stop offset="100%" style="stop-color:#b57614"/>
  </linearGradient>
  <linearGradient id="aurora" x1="0%" x2="0%" y1="0%" y2="100%">
   <stop offset="0%" style="stop-color:#83a598"/>
   <stop offset="100%" style="stop-color:#b16286"/>
  </linearGradient>
  <linearGradient id="fitdance" x1="0%" x2="0%" y1="0%" y2="100%">
   <stop offset="0%" style="stop-color:#8ec07c"/>
   <stop offset="100%" style="stop-color:#458588"/>
  </linearGradient>
  <linearGradient id="oomox" x1="0%" x2="0%" y1="0%" y2="100%">
   <stop offset="0%" style="stop-color:#458588"/>
   <stop offset="100%" style="stop-color:#928374"/>
  </linearGradient>
  <linearGradient id="rainblue" x1="0%" x2="0%" y1="0%" y2="100%">
   <stop offset="0%" style="stop-color:#b8bb26"/>
   <stop offset="100%" style="stop-color:#076678"/>
  </linearGradient>
  <linearGradient id="sunrise" x1="0%" x2="0%" y1="0%" y2="100%">
   <stop offset="0%" style="stop-color:#fe8019"/>
   <stop offset="100%" style="stop-color:#fabd2f"/>
  </linearGradient>
  <linearGradient id="telinkrin" x1="0%" x2="0%" y1="0%" y2="100%">
   <stop offset="0%" style="stop-color:#83a598"/>
   <stop offset="100%" style="stop-color:#83a598"/>
  </linearGradient>
  <linearGradient id="60spsycho" x1="0%" x2="0%" y1="0%" y2="100%">
   <stop offset="0%" style="stop-color:#fb4934"/>
   <stop offset="25%" style="stop-color:#fabd2f"/>
   <stop offset="50%" style="stop-color:#fe8019"/>
   <stop offset="100%" style="stop-color:#689d6a"/>
  </linearGradient>
  <linearGradient id="90ssummer" x1="0%" x2="0%" y1="0%" y2="100%">
   <stop offset="0%" style="stop-color:#b16286"/>
   <stop offset="20%" style="stop-color:#8ec07c"/>
   <stop offset="50%" style="stop-color:#fabd2f"/>
   <stop offset="100%" style="stop-color:#458588"/>
  </linearGradient>
 </defs>
  <path fill="currentColor" class="ColorScheme-Text" id="grindr_logo" d="m 4.0671982,0.2561517 a 2.8160085,2.8160085 0 0 0 -0.253809,-0.220814 0.1383258,0.1383258 0 0 0 -0.107869,-0.02538 10.606669,10.606669 0 0 1 -1.586305,0.140863 10.596517,10.596517 0 0 1 -1.58884303,-0.148478 0.13705674,0.13705674 0 0 0 -0.107869,0.02538 2.8210847,2.8210847 0 0 0 -0.256346,0.228428 0.13451866,0.13451866 0 0 0 -0.04695,0.08629 c 0,0.118021 0,0.215737 0,0.309647 0,0.09391 0,0.218275 0.0076,0.34518 a 8.4099543,8.4099543 0 0 0 0.500003,2.538088 0.1357877,0.1357877 0 0 0 0.03807,0.05584 c 0.40355603,0.351525 1.03046403,0.642136 1.45432503,0.642136 0.42386,0 1.045692,-0.289342 1.451786,-0.642136 a 0.1357877,0.1357877 0 0 0 0.03807,-0.05584 8.4099543,8.4099543 0 0 0 0.497465,-2.538088 c 0,-0.126905 0.0076,-0.238581 0.0076,-0.343911 0,-0.105331 0,-0.192895 0,-0.309647 a 0.13451866,0.13451866 0 0 0 -0.04695,-0.08756 z m -2.250015,2.390879 -0.0076,0.01269 c -0.158631,0.281728 -0.414978,0.317261 -0.703051,0.203047 -0.28807303,-0.114213 -0.52792203,-0.350256 -0.42766803,-0.680207 0.09518,-0.296956 0.55838003,-0.176397 0.77284803,-0.126905 0.302033,0.07487 0.53173,0.253809 0.370561,0.576146 0.0063,-0.0076 0.0089,-0.01015 -0.0051,0.01523 z m 1.741128,-0.205585 c -0.0736,0.300763 -0.374368,0.458125 -0.671324,0.489851 -0.272844,0.02792 -0.513963,-0.236043 -0.524115,-0.507618 0,0.01777 0,0.03426 0,-0.01142 0,-0.01269 0,-0.01269 0,-0.0089 0.0089,-0.321068 0.482237,-0.380713 0.720817,-0.402287 0.314723,-0.03046 0.562186,0.07741 0.474622,0.440358 z"/>
</svg>
