<svg xmlns="http://www.w3.org/2000/svg" xmlns:xlink="http://www.w3.org/1999/xlink" width="16" height="16" version="1.1" viewBox="0 0 4.23 4.23">
 <defs>
  <style id="current-color-scheme" type="text/css">
   .ColorScheme-Text { color:#ebdbb2; } .ColorScheme-Highlight { color:#458588; }
  </style>
  <linearGradient id="arrongin" x1="0%" x2="0%" y1="0%" y2="100%">
   <stop offset="0%" style="stop-color:#d79921"/>
   <stop offset="100%" style="stop-color:#b57614"/>
  </linearGradient>
  <linearGradient id="aurora" x1="0%" x2="0%" y1="0%" y2="100%">
   <stop offset="0%" style="stop-color:#83a598"/>
   <stop offset="100%" style="stop-color:#b16286"/>
  </linearGradient>
  <linearGradient id="fitdance" x1="0%" x2="0%" y1="0%" y2="100%">
   <stop offset="0%" style="stop-color:#8ec07c"/>
   <stop offset="100%" style="stop-color:#458588"/>
  </linearGradient>
  <linearGradient id="oomox" x1="0%" x2="0%" y1="0%" y2="100%">
   <stop offset="0%" style="stop-color:#458588"/>
   <stop offset="100%" style="stop-color:#928374"/>
  </linearGradient>
  <linearGradient id="rainblue" x1="0%" x2="0%" y1="0%" y2="100%">
   <stop offset="0%" style="stop-color:#b8bb26"/>
   <stop offset="100%" style="stop-color:#076678"/>
  </linearGradient>
  <linearGradient id="sunrise" x1="0%" x2="0%" y1="0%" y2="100%">
   <stop offset="0%" style="stop-color:#fe8019"/>
   <stop offset="100%" style="stop-color:#fabd2f"/>
  </linearGradient>
  <linearGradient id="telinkrin" x1="0%" x2="0%" y1="0%" y2="100%">
   <stop offset="0%" style="stop-color:#83a598"/>
   <stop offset="100%" style="stop-color:#83a598"/>
  </linearGradient>
  <linearGradient id="60spsycho" x1="0%" x2="0%" y1="0%" y2="100%">
   <stop offset="0%" style="stop-color:#fb4934"/>
   <stop offset="25%" style="stop-color:#fabd2f"/>
   <stop offset="50%" style="stop-color:#fe8019"/>
   <stop offset="100%" style="stop-color:#689d6a"/>
  </linearGradient>
  <linearGradient id="90ssummer" x1="0%" x2="0%" y1="0%" y2="100%">
   <stop offset="0%" style="stop-color:#b16286"/>
   <stop offset="20%" style="stop-color:#8ec07c"/>
   <stop offset="50%" style="stop-color:#fabd2f"/>
   <stop offset="100%" style="stop-color:#458588"/>
  </linearGradient>
 </defs>
  <g fill="currentColor" class="ColorScheme-Text" id="vls_launcher_logo" transform="matrix(0.11428571,0,0,0.11428571,-1.7538094,-1.7538131)">
   <path opacity="0.6" id="squircle_with_inverse_fillet" d="m 20.502767,19.9483 c -2.856803,0 -5.156934,2.300131 -5.156934,5.156934 v 21.40374 c 0,2.856805 2.300131,5.156936 5.156934,5.156936 h 16.656796 a 9.0569984,8.6013785 0 0 1 -1.900203,-5.271611 9.0569984,8.6013785 0 0 1 9.056573,-8.601427 9.0569984,8.6013785 0 0 1 5.295379,1.622718 V 25.105234 c 0,-2.856803 -2.299539,-5.156934 -5.156341,-5.156934 z"/>
   <path opacity="1.0" id="arrow" d="m 22.996191,50.549715 c 0,0 -4.76125,-23.318086 15.538983,-30.236347 l 0.08159,-3.471827 c 0.01463,-0.622706 0.692809,-1.000623 1.230073,-0.685466 l 12.137827,7.120009 c 0.504425,0.295893 0.542536,1.010926 0.07242,1.358762 l -11.364097,8.408277 c -0.564963,0.418014 -1.363755,0.0049 -1.349152,-0.697735 l 0.06983,-3.360598 C 27.284146,29.83596 22.996191,50.549715 22.996191,50.549715 Z"/>
   <circle opacity="1.0" id="ellipse" cx="44.316" cy="46.395" r="5.296"/>
  </g>
</svg>
