<svg width="16" height="16" version="1.1" xmlns="http://www.w3.org/2000/svg">
  <defs>
    <style id="current-color-scheme" type="text/css">.ColorScheme-Text { color:#282828; } .ColorScheme-Highlight { color:#458588; }</style>
  </defs>
  <path class="ColorScheme-Text" d="m0 7.738c0.00612-0.413 0.3461-0.743 0.7601-0.738 1.982 0 3.33 0.763 4.117 1.822 0.787 1.06 1.068 2.312 1.346 3.36 0.277 1.046 0.574 1.825 0.9488 2.107 0.1874 0.141 0.4077 0.229 0.8437 0.209s1.073-0.177 1.926-0.547c0.9706-0.421 1.494 0.988 0.5976 1.377-0.9573 0.416-1.748 0.635-2.453 0.668s-1.339-0.15-1.815-0.508c-0.951-0.715-1.214-1.853-1.498-2.922-0.283-1.068-0.562-2.128-1.099-2.85-0.538-0.724-1.279-1.215-2.914-1.215-0.423 6e-3 -0.767-0.339-0.76-0.762zm1.75-6.738c-0.6712 0-1.003 0.8068-0.5234 1.289l12.48 12.48c0.7 0.7 1.755-0.365 1.06-1.06l-12.48-12.48c-0.166-0.1635-0.3361-0.2266-0.5391-0.2266zm5.988-1c-0.4135 0.00646-0.7437 0.3463-0.7383 0.7598 0 1.982 0.7629 3.33 1.822 4.117 1.059 0.7869 2.313 1.068 3.36 1.346 1.046 0.2773 1.825 0.5744 2.107 0.9492 0.141 0.1874 0.229 0.4077 0.209 0.8437s-0.177 1.073-0.547 1.926c-0.421 0.9706 0.988 1.494 1.377 0.5976 0.416-0.9573 0.635-1.748 0.668-2.453s-0.15-1.339-0.508-1.814c-0.715-0.9511-1.853-1.215-2.922-1.498-1.068-0.2833-2.128-0.562-2.851-1.1-0.7236-0.5375-1.215-1.279-1.215-2.914 0.0055-0.4226-0.3391-0.7664-0.7617-0.7598z" fill="currentColor"/>
</svg>
