<svg width="16" height="16" version="1.1" xmlns="http://www.w3.org/2000/svg">
  <defs>
    <style id="current-color-scheme" type="text/css">.ColorScheme-Text { color:#282828; } .ColorScheme-Highlight { color:#458588; }</style>
  </defs>
  <path class="ColorScheme-Text" d="m1 1v8h2v-2h2v2h2v-2h2v2h2v-2h2v2h2v-8h-14zm2 2h2v2h-2v-2zm4 0h2v2h-2v-2zm4 0h2v2h-2v-2zm-9 7v1h1.281l-1.281 1.281v1.438l2.719-2.719h2.562l-3 3h-2.281v1h7v-1.719l-0.7188 0.7188h-2.562l3-3h0.2812v-1h-7zm8 1 2 4 2-4h-4z" fill="currentColor"/>
</svg>
