<svg width="16" height="16" version="1.1" xmlns="http://www.w3.org/2000/svg">
  <defs>
    <style id="current-color-scheme" type="text/css">.ColorScheme-Text { color:#282828; } .ColorScheme-Highlight { color:#458588; }</style>
  </defs>
  <path class="ColorScheme-Text" d="m4 3c-1.657 0-3 1.343-3 3s1.343 3 3 3 3-1.343 3-3-1.343-3-3-3zm8 0c-1.657 0-3 1.343-3 3s1.343 3 3 3c0.2363-0.00159 0.4716-0.03109 0.701-0.0879-0.541 1.231-1.766 2.088-3.201 2.088h-0.5v2h0.5996c2.991 0 5.4-2.453 5.4-5.5v-1.5c0-1.657-1.343-3-3-3zm-8 2c0.5523 0 1 0.4477 1 1s-0.4477 1-1 1-1-0.4477-1-1 0.4477-1 1-1zm8 0c0.5523 0 1 0.4477 1 1s-0.4477 1-1 1-1-0.4477-1-1 0.4477-1 1-1z" fill="currentColor"/>
</svg>
