<svg width="16" height="16" version="1.1" xmlns="http://www.w3.org/2000/svg">
  <defs>
    <style id="current-color-scheme" type="text/css">.ColorScheme-Text { color:#282828; } .ColorScheme-Highlight { color:#458588; }</style>
  </defs>
  <path class="ColorScheme-Text" d="m2 1v1h-1v2h1v1h-1v2h1v1h2v-1h1v1h2v-1h1v-2h-1v-1h1v-2h-1v-1h-2v1h-1v-1h-2zm7 0v5h3v1h2v-2l-5-4zm-5 3h1v1h-1v-1zm5 4v1h-1v2h1v1h-1v2h1v1h2v-1h1v1h2v-1h1v-2h-1v-1h1v-2h-1v-1h-2v1h-1v-1h-2zm-8 1v6h6v-2h-4v-4h-2zm10 2h1v1h-1v-1z" fill="currentColor"/>
</svg>
