<svg width="16" height="16" version="1.1" xmlns="http://www.w3.org/2000/svg">
  <defs>
    <style id="current-color-scheme" type="text/css">.ColorScheme-Text { color:#282828; } .ColorScheme-Highlight { color:#458588; }</style>
  </defs>
  <path class="ColorScheme-Text" d="m8 1c-3.866 0-7 3.134-7 7-1e-7 3.866 3.134 7 7 7 3.866 0 7-3.134 7-7 0-3.866-3.134-7-7-7zm0.2559 1.756c0.2556 0 0.5112 0.09905 0.707 0.2949l3.533 3.533 0.7109 0.709c0.3917 0.3917 0.3917 1.022 0 1.414l-0.7109 0.709-3.533 3.533c-0.3917 0.3917-1.022 0.3917-1.414 0l-0.707-0.707c-0.3917-0.3917-0.3917-1.022 0-1.414l1.328-1.328h-4.67c-0.554 0-1-0.446-1-1v-1c0-0.554 0.446-1 1-1h4.67l-1.328-1.328c-0.3917-0.3917-0.3917-1.022 0-1.414l0.707-0.707c0.1959-0.1959 0.4514-0.2949 0.707-0.2949z" fill="currentColor"/>
</svg>
