<svg width="16" height="16" version="1.1" xmlns="http://www.w3.org/2000/svg">
  <defs>
    <style id="current-color-scheme" type="text/css">.ColorScheme-Text { color:#282828; } .ColorScheme-Highlight { color:#458588; }</style>
  </defs>
  <path class="ColorScheme-Text" d="m7.175 1.184c-1.159 0.2611-2.194 1.11-2.586 2.245-0.436 1.11-0.1137 2.48 0.8105 3.245 0.5593 0.4853 1.307 0.7066 2.041 0.6851 0.1776 0.008461 0.353-0.01123 0.5283-0.03906-0.2254 0.4404-0.2507 0.9894-0.01763 1.432 0.08521 0.1748 0.3413 0.4182 0.3385 0.5359-0.9326 0.05261-1.873 0.1784-2.751 0.5093-0.758 0.3234-1.53 0.8264-1.825 1.635-0.2735 0.6013-0.3009 1.323 0.0154 1.915 0.415 0.8259 1.304 1.286 2.168 1.498 1.002 0.2219 2.057 0.209 3.056-0.01955 1.048-0.2578 2.085-0.799 2.686-1.726 0.5889-0.8907 0.6739-2.15 0.03421-3.038-0.3021-0.4532-0.7354-0.7951-1.137-1.155-0.3286-0.2757-0.7021-0.51-0.9622-0.8558-0.1786-0.3454-0.09514-0.7991 0.1954-1.06 0.3144-0.3739 0.7614-0.6101 1.065-0.9975 0.6627-0.7188 0.8205-1.799 0.543-2.717-0.2063-0.6415-0.6303-1.193-1.154-1.61 0.3101-0.01368 0.6455-0.00195 0.9653-0.00586 0.105 0.01431 0.2-0.00853 0.2837-0.07438 0.3413-0.1953 0.6827-0.3905 1.024-0.5858-1.356 0.001998-2.712-0.003855-4.068 0.003092-0.421 0.02596-0.8384 0.09661-1.251 0.1807zm0.469 0.4238c0.6258-0.02092 1.148 0.413 1.501 0.8893 0.5173 0.7413 0.7656 1.656 0.7692 2.555-0.02164 0.4552-0.09714 0.9498-0.45 1.275-0.5677 0.5642-1.552 0.7098-2.205 0.2056-0.8098-0.6556-1.193-1.709-1.265-2.723-0.03152-0.5647 0.0209-1.187 0.4143-1.629 0.3012-0.3572 0.7719-0.5693 1.236-0.5724zm1.102 8.189c0.2661-0.02228 0.4327 0.2241 0.6431 0.3478 0.5952 0.4434 1.277 0.9207 1.473 1.681 0.172 0.6641-0.07845 1.415-0.6333 1.828-0.6664 0.5521-1.584 0.6047-2.411 0.5551-0.8975-0.0584-1.858-0.3663-2.401-1.13-0.381-0.5509-0.4443-1.319-0.1512-1.921 0.2917-0.5035 0.78-0.8781 1.333-1.052 0.6888-0.2441 1.42-0.3193 2.147-0.3097z" fill="currentColor"/>
</svg>
