<svg width="16" height="16" version="1.1" xmlns="http://www.w3.org/2000/svg">
  <defs>
    <style id="current-color-scheme" type="text/css">.ColorScheme-Text { color:#282828; } .ColorScheme-Highlight { color:#458588; }</style>
  </defs>
  <path class="ColorScheme-Text" d="m8.5 1.5v2.5h-2.5c-3 0-5 2.126-5 5.25 0 3.25 4 4.75 4 4.75s-1.875-2.652-1.438-4c0.3659-1.127 1.573-2 2.938-2h2v2.5l6.5-4.5zm4 8.5-0.4785 1.346-1.289-0.6133 0.6133 1.289-1.346 0.4785 1.346 0.4785-0.6133 1.289 1.289-0.6133 0.4785 1.346 0.4785-1.346 1.289 0.6133-0.6133-1.289 1.346-0.4785-1.346-0.4785 0.6133-1.289-1.289 0.6133z" fill="currentColor"/>
</svg>
