<svg width="16" height="16" version="1.1" xmlns="http://www.w3.org/2000/svg">
  <defs>
    <style id="current-color-scheme" type="text/css">.ColorScheme-Text { color:#282828; } .ColorScheme-Highlight { color:#458588; }</style>
  </defs>
  <path class="ColorScheme-Text" d="m1 2v2h1v-1h1v-1h-2zm3 0v1h2v-1h-2zm3 0v1h2v-1h-2zm3 0v1h2v-1h-2zm3 0v1h1v2h1v-3h-2zm-12 3v2h1v-2h-1zm13 1v2h1v-2h-1zm-13 2v2h1v-2h-1zm13 1v2h1v-2h-1zm-13 2v3h2v-1h-1v-2h-1zm13 1v1h-1v1h2v-2h-1zm-10 1v1h2v-1h-2zm3 0v1h2v-1h-2zm3 0v1h2v-1h-2z" fill="currentColor"/>
</svg>
