<svg width="16" height="16" version="1.1" xmlns="http://www.w3.org/2000/svg">
  <defs>
    <style id="current-color-scheme" type="text/css">.ColorScheme-Text { color:#282828; } .ColorScheme-Highlight { color:#458588; } .ColorScheme-PositiveText { color:#689d6a; }</style>
  </defs>
  <path class="ColorScheme-Text" d="m0.5176 8.138c-0.0497-0.0144-0.1038-0.0079-0.1484 0.0195-0.04468 0.0275-0.07633 0.0737-0.08984 0.127-0.1848 0.7307-0.2793 1.487-0.2793 2.25 0 0.131 0.00373 0.262 0.00977 0.401 0.00483 0.111 0.09019 0.199 0.1934 0.199h0.00977l2.326-0.115c0.0514-3e-3 0.1001-0.028 0.1347-0.069 0.0347-0.041 0.0532-0.095 0.0508-0.15-4e-3 -0.094-0.0059-0.181-0.0059-0.266 0-0.505 0.0617-1.004 0.1836-1.486 0.028-0.111-0.0332-0.2258-0.1367-0.2559zm14.88-0.3066-2.225 0.7461c-0.102 0.0343-0.159 0.152-0.127 0.2617 0.16 0.5461 0.24 1.116 0.24 1.695 0 0.085-2e-3 0.172-6e-3 0.266-2e-3 0.055 0.016 0.109 0.051 0.15s0.084 0.066 0.135 0.069l2.328 0.115h8e-3c0.103 0 0.188-0.088 0.193-0.199 6e-3 -0.139 0.01-0.27 0.01-0.401 0-0.8745-0.123-1.738-0.365-2.566-0.032-0.1097-0.14-0.1712-0.242-0.1367zm-12.53-3.791c-0.0516-0.0036-0.1019 0.0143-0.1406 0.0507-0.7069 0.6661-1.294 1.451-1.744 2.334-0.02468 0.0485-0.03011 0.1072-0.01562 0.1602 0.01448 0.053 0.04656 0.0966 0.09176 0.123l2.045 1.199c0.0295 0.0174 0.0622 0.0254 0.0937 0.0254 0.0687 0 0.1347-0.0402 0.1699-0.1093 0.2977-0.5838 0.6867-1.102 1.154-1.543 0.0388-0.0364 0.0612-0.0875 0.0645-0.1426s-0.0129-0.1109-0.0469-0.1523l-1.539-1.875c-0.0339-0.0415-0.0813-0.0668-0.1328-0.0703zm10.04-0.2071c-0.051 0.0057-0.098 0.0334-0.131 0.0762l-1.47 1.938c-0.033 0.0429-0.047 0.0974-0.041 0.1523 5e-3 0.055 0.03 0.1058 0.07 0.1407 0.483 0.4209 0.888 0.9225 1.207 1.494 0.037 0.0652 0.102 0.1016 0.168 0.1016 0.034 0 0.068-0.0093 0.1-0.0293l2-1.281c0.044-0.0283 0.075-0.0734 0.088-0.1269 0.012-0.0536 5e-3 -0.1108-0.022-0.1582-0.482-0.8642-1.096-1.625-1.826-2.262-0.04-0.0349-0.091-0.0505-0.143-0.045zm-5.986-1.797c-0.9335 0.1357-1.828 0.4449-2.66 0.9179-0.0948 0.0539-0.1303 0.1797-0.0801 0.2813l1.092 2.207c0.0349 0.0705 0.1023 0.1094 0.1719 0.1094 0.0306 0 0.0608-7e-3 0.0898-0.0235 0.548-0.3115 1.137-0.5141 1.752-0.6035 0.1063-0.0154 0.1805-0.1204 0.1661-0.2343l-0.3125-2.477c-0.0144-0.1139-0.1128-0.1931-0.2188-0.1777zm1.863-0.0372c-0.0516-0.0055-0.1028 0.0099-0.1426 0.045-0.0397 0.0351-0.0634 0.0856-0.0683 0.1406l-0.2266 2.486c-0.0104 0.1144 0.069 0.2175 0.1758 0.2285 0.6183 0.0642 1.214 0.243 1.771 0.5313 0.027 0.0137 0.057 0.0195 0.086 0.0195 0.022 0 0.042-0.0039 0.063-0.0117 0.048-0.0182 0.088-0.0557 0.111-0.1055l1.012-2.25c0.046-0.1035 6e-3 -0.2274-0.09-0.2773-0.848-0.4378-1.754-0.7092-2.692-0.8067z" fill="currentColor"/>
  <path class="ColorScheme-PositiveText" d="m11.43 8.106c-0.01104-0.04117-0.03651-0.07864-0.07384-0.1062-0.07474-0.05498-0.1805-0.0551-0.2586-0.001655l-2.939 2.007c-0.1435-0.01144-0.2878-0.00736-0.4304 0.01218-1.094 0.1514-1.858 1.161-1.707 2.256 0.1514 1.094 1.161 1.858 2.256 1.707 1.094-0.1514 1.858-1.161 1.707-2.256-0.01143-0.07623-0.02725-0.1517-0.04743-0.2261l1.483-3.265c0.01888-0.04158 0.02283-0.08674 0.0119-0.1278z" fill="currentColor"/>
</svg>
