<svg width="24" height="24" version="1" xmlns="http://www.w3.org/2000/svg">
  <defs>
    <clipPath id="clipPath5078">
      <path d="m160 247c-7.913 0-15.04 2.812-20.94 7.172l20.94 22.82 20.78-22.9c-5.88-4.31-12.93-7.09-20.78-7.09z" fill="#2095f2"/>
    </clipPath>
    <clipPath id="clipPath5085">
      <path d="m160 247c-7.913 0-15.04 2.812-20.94 7.172l20.94 22.82 20.78-22.9c-5.88-4.31-12.93-7.09-20.78-7.09z" fill="#2095f2"/>
    </clipPath>
  </defs>
  <path d="m11.97 5c-3.957 0-7.52 1.406-10.47 3.586l10.47 11.41 10.39-11.45c-2.943-2.156-6.465-3.546-10.39-3.546z" fill="#504945"/>
  <path transform="matrix(.5001 0 0 .5001 -68.03 -118.5)" d="m159.9 253c-6.304 0-12.15 2.067-16.85 5.559l16.94 18.44 16.76-18.44c-4.71-3.49-10.56-5.56-16.86-5.56z" clip-path="url(#clipPath5078)" filter="url(#filter5060)" opacity=".2"/>
  <path d="m11.93 7.996c-3.152 0-6.078 1.034-8.428 2.78l8.472 9.222 8.384-9.222c-2.35-1.746-5.275-2.78-8.428-2.78z" fill="#797979"/>
  <path transform="matrix(.5001 0 0 .5001 -68.03 -118.5)" d="m159.9 259c-4.728 0-9.116 1.55-12.64 4.169l12.71 13.83 12.57-13.83c-3.524-2.619-7.912-4.169-12.64-4.169z" clip-path="url(#clipPath5085)" filter="url(#filter5064)" opacity=".2"/>
  <path d="m11.93 11c-2.364 0-4.558 0.7754-6.321 2.085l6.354 6.916 6.288-6.916c-1.762-1.31-3.956-2.085-6.321-2.085z" fill="#e4e4e4"/>
  <path d="m11.97 5c-3.957 0-7.52 1.406-10.47 3.586l0.2813 0.3067c2.899-2.066 6.358-3.393 10.19-3.393 3.805 0 7.226 1.311 10.11 3.354l0.2803-0.3086c-2.944-2.156-6.466-3.545-10.39-3.545z" fill="#ebdbb2" opacity=".1"/>
  <path d="m11.93 7.996c-3.152 0-6.078 1.035-8.428 2.781l0.2819 0.307c2.301-1.624 5.116-2.587 8.145-2.587 3.031 0 5.845 0.9639 8.147 2.589l0.28-0.3086c-2.349-1.746-5.274-2.781-8.426-2.781z" fill="#ebdbb2" opacity=".1"/>
  <path d="m11.93 11c-2.364 0-4.559 0.7758-6.321 2.085l0.2823 0.3067c1.713-1.188 3.797-1.892 6.039-1.892 2.243 0 4.327 0.7044 6.04 1.894l0.2803-0.3086c-1.762-1.31-3.956-2.086-6.32-2.086z" fill="#ebdbb2" opacity=".1"/>
  <path d="m22.09 8.857-10.11 11.14-10.19-11.11c-0.092 0.0651-0.1888 0.1246-0.28 0.1921l10.47 11.41 10.39-11.45c-0.091-0.066-0.186-0.1251-0.278-0.19z" opacity=".2"/>
  <rect x="11" y="12.5" width="10" height="10" rx="1.5" ry="1.5" opacity=".2"/>
  <rect x="11" y="12" width="10" height="10" rx="1.5" ry="1.5" fill="#38ac52"/>
  <path d="m16 13c-1.108 0-2 0.9108-2 2.031v0.969h-0.5c-0.277 0-0.5 0.223-0.5 0.5v3c0 0.277 0.223 0.5 0.5 0.5h5c0.277 0 0.5-0.223 0.5-0.5v-3c0-0.277-0.223-0.5-0.5-0.5h-0.5v-0.9688c0-1.12-0.892-2.031-2-2.031zm0 1c0.554 0 1 0.446 1 1v1h-2v-1c0-0.554 0.446-1 1-1z" fill="#ebdbb2"/>
</svg>
