<svg width="24" height="24" version="1.1" xmlns="http://www.w3.org/2000/svg">
  <defs>
    <style id="current-color-scheme" type="text/css">.ColorScheme-Text { color:#282828; } .ColorScheme-Highlight { color:#458588; }</style>
  </defs>
  <path class="ColorScheme-Text" d="m6.5 7v10h11v-10z" fill="currentColor" opacity=".3"/>
  <path class="ColorScheme-Text" d="m15.5 5v14h1.25c0.4155 0 0.75-0.3345 0.75-0.75v-12.5c0-0.4155-0.3345-0.75-0.75-0.75z" fill="currentColor" opacity=".3"/>
  <path class="ColorScheme-Text" d="m7.25 5c-0.4155 0-0.75 0.3345-0.75 0.75v1.25h11v-1.25c0-0.4155-0.3345-0.75-0.75-0.75zm-0.75 4v2h11v-2zm0 4v2h11v-2zm0 4v1.25c0 0.4155 0.3345 0.75 0.75 0.75h9.5c0.4155 0 0.75-0.3345 0.75-0.75v-1.25z" fill="currentColor"/>
</svg>
