<svg width="24" height="24" version="1.1" xmlns="http://www.w3.org/2000/svg">
  <defs>
    <style id="current-color-scheme" type="text/css">.ColorScheme-Text { color:#282828; } .ColorScheme-Highlight { color:#458588; }</style>
  </defs>
  <path class="ColorScheme-Text" d="m8 8c-1.657 0-3 1.343-3 3v3c0 1.657 1.343 3 3 3s3-1.343 3-3v-3c0-1.657-1.343-3-3-3zm8 0c-1.657 0-3 1.343-3 3v3c0 1.657 1.343 3 3 3s3-1.343 3-3v-3c0-1.657-1.343-3-3-3zm-8 2c0.5523 0 1 0.4477 1 1v3c0 0.5523-0.4477 1-1 1s-1-0.4477-1-1v-3c0-0.5523 0.4477-1 1-1zm8 0c0.5523 0 1 0.4477 1 1v3c0 0.5523-0.4477 1-1 1s-1-0.4477-1-1v-3c0-0.5523 0.4477-1 1-1zm-4.5 6v1h1v-1z" fill="currentColor"/>
</svg>
