<svg width="24" height="24" version="1.1" xmlns="http://www.w3.org/2000/svg">
  <defs>
    <style id="current-color-scheme" type="text/css">.ColorScheme-Text { color:#282828; } .ColorScheme-Highlight { color:#458588; }</style>
  </defs>
  <path class="ColorScheme-Text" d="m11 5c-2.216 0-4 1.784-4 4v6c0 2.216 1.784 4 4 4h2c2.216 0 4-1.784 4-4v-6c0-2.216-1.784-4-4-4zm0 1h2c1.662 0 3 1.338 3 3v6c0 1.662-1.338 3-3 3h-2c-1.662 0-3-1.338-3-3v-6c0-1.662 1.338-3 3-3zm0.5 1v4h1v-4z" fill="currentColor"/>
  <path class="ColorScheme-Highlight" d="m12.5 6-1.6e-5 6h3.498l1.6e-5 -3c9e-6 -1.662-1.338-3-3-3z" fill="currentColor"/>
</svg>
