<svg width="24" height="24" version="1.1" xmlns="http://www.w3.org/2000/svg">
  <defs>
    <style id="current-color-scheme" type="text/css">.ColorScheme-Text { color:#282828; } .ColorScheme-Highlight { color:#458588; }</style>
  </defs>
  <path class="ColorScheme-Text" d="M 5.375,7 C 5.1673,7 5,7.1673 5,7.375 v 1.25 C 5,8.8327 5.1673,9 5.375,9 h 1.25 C 6.8327,9 7,8.8327 7,8.625 V 7.375 C 7,7.1673 6.8327,7 6.625,7 Z M 9,7 V 9 H 19 V 7 Z M 5.375,15 C 5.1673,15 5,15.1673 5,15.375 v 1.25 C 5,16.8327 5.1673,17 5.375,17 h 1.25 C 6.8327,17 7,16.8327 7,16.625 v -1.25 C 7,15.1673 6.8327,15 6.625,15 Z M 9,15 v 2 h 10 v -2 z" fill="currentColor"/>
  <path class="ColorScheme-Highlight" d="m5.375 11c-0.2077 0-0.375 0.1673-0.375 0.375v1.25c0 0.2077 0.1673 0.375 0.375 0.375h1.25c0.2077 0 0.375-0.1673 0.375-0.375v-1.25c0-0.2077-0.1673-0.375-0.375-0.375zm3.625 0v2h10v-2z" fill="currentColor"/>
</svg>
