<svg width="24" height="24" version="1.1" xmlns="http://www.w3.org/2000/svg">
  <defs>
    <style id="current-color-scheme" type="text/css">.ColorScheme-Text { color:#282828; } .ColorScheme-NegativeText { color:#fb4934; }</style>
  </defs>
  <path class="ColorScheme-Text" d="m8 4v2h3v1.0762c-3.1142 0.48099-5.4975 3.1731-5.498 6.4219-5.947e-4 3.5893 2.9068 6.4994 6.4961 6.5 0.81859 1.37e-4 1.6027-0.15163 2.3242-0.42773-0.21228-0.49633-0.3219-1.0305-0.32227-1.5703-1.25e-4 -0.16256 0.0097-0.32496 0.0293-0.48633-0.63016 0.31946-1.3267 0.48606-2.0332 0.48633-2.4852-2.17e-4 -4.4998-2.0148-4.5-4.5 2.165e-4 -2.4852 2.0148-4.4998 4.5-4.5 2.4852 2.165e-4 4.4998 2.0148 4.5 4.5 1.03e-4 0.27715-0.0254 0.55372-0.07617 0.82617 0.49907-0.21492 1.0367-0.3259 1.5801-0.32617 0.1593 2.69e-4 0.31843 0.01005 0.47656 0.0293 0.0141-0.17496 0.02151-0.35265 0.02148-0.53125-2.22e-4 -1.3908-0.43554-2.6795-1.1797-3.7363l0.83594-0.75195 0.76953 0.85352 1.2793-1.1484-2.584-2.877-1.2812 1.1504 0.73242 0.8125-0.8457 0.75977c-0.8966-0.76777-2.0044-1.296-3.2246-1.4844v-1.0762h3v-2z" fill="currentColor"/>
  <path class="ColorScheme-NegativeText" d="m21 18a3 3 0 0 1-3 3 3 3 0 0 1-3-3 3 3 0 0 1 3-3 3 3 0 0 1 3 3z" fill="currentColor"/>
</svg>
