<svg width="24" height="24" version="1.1" xmlns="http://www.w3.org/2000/svg">
  <defs>
    <style id="current-color-scheme" type="text/css">.ColorScheme-Text { color:#282828; } .ColorScheme-Highlight { color:#458588; }</style>
  </defs>
  <path class="ColorScheme-Text" d="m8.243 5.012c-0.1998-0.07666-0.4162 0.2293-0.4846 0.6851-0.06163 0.4108 0.0018 2.58 0.08355 2.86 0.04047 0.1387-0.02683 0.204-0.3782 0.3676-0.5165 0.2404-1.259 0.9432-1.506 1.426-0.1073 0.2102-0.1793 0.5112-0.1793 0.7458 0 0.3424 0.04159 0.4351 0.319 0.7124 0.3362 0.3362 0.6902 0.4727 1.455 0.5605 0.2556 0.02932 0.5158 0.09266 0.5772 0.1413 0.2189 0.1732 0.4369 0.7344 0.5225 1.341 0.05412 0.3832 0.2035 0.8632 0.3935 1.269 0.3042 0.649 0.305 0.6527 0.2491 1.477-0.03083 0.4546-0.09852 1.104-0.1504 1.442-0.08483 0.552-0.0802 0.6301 0.05621 0.7808 0.2324 0.2567 0.8391 0.2331 1.018-0.0395 0.1335-0.2037 0.307-0.7994 0.4132-1.419l0.05468-0.3159 0.398 0.2035c0.2255 0.1158 0.4592 0.3175 0.5408 0.4649l0.1443 0.2598h-0.2309c-0.3425 0-0.6061 0.2202-0.6061 0.5058 0 0.5063 0.2901 0.5196 0.2901 0.5196h4.666c0.7778 0 0.8234-0.1644 0.8916-0.8916 0.01959-0.2088 0.07981-0.2666 0.3889-0.3691 0.7434-0.2467 1.228-1.015 0.9931-1.577-0.1255-0.3002-0.5189-0.511-0.84-0.4496-0.1903 0.03635-0.2054 0.0063-0.2871-0.5605-0.174-1.207-0.6595-2.035-1.533-2.617-0.6469-0.431-1.375-0.6296-2.629-0.7185-1.188-0.0842-1.583-0.2206-1.97-0.6805-0.1201-0.1427-0.2404-0.4013-0.2674-0.5742-0.1125-0.7213-0.2341-0.9948-0.597-1.344l-0.3676-0.3555 0.1641-0.4769c0.4888-1.42 0.567-3.331 0.1368-3.331-0.2433 0-0.6241 0.588-0.8933 1.379l-0.1428 0.4177-0.1094-0.4967c-0.1459-0.663-0.4131-1.276-0.5848-1.341zm-0.5196 4.655c0.2148 0 0.3889 0.1741 0.3889 0.3889s-0.1741 0.3889-0.3889 0.3889-0.3889-0.1741-0.3889-0.3889 0.1741-0.3889 0.3889-0.3889z" fill="currentColor"/>
</svg>
