<svg width="24" height="24" version="1.1" xmlns="http://www.w3.org/2000/svg">
  <defs>
    <style id="current-color-scheme" type="text/css">.ColorScheme-Text { color:#282828; } .ColorScheme-Highlight { color:#458588; }</style>
  </defs>
  <path class="ColorScheme-Text" d="m6.188 5c-0.6627 0-1.188 0.5489-1.188 1.219v4.781h2v-4h4v-2zm-1.188 7v7h7v-7zm14-7h-5l1.414 1.414-2.414 2.464 2.121 2.121 2.464-2.414 1.414 1.414zm-4.134 7.283c-0.3751 0.1803-0.7423 0.4506-1.103 0.8112l0.8545 0.8545c0.1947-0.1875 0.403-0.3506 0.6267-0.4877 0.2309-0.1443 0.4848-0.2164 0.7588-0.2164 0.3606 0 0.637 0.09088 0.8318 0.2712 0.1947 0.173 0.294 0.4289 0.294 0.7679 0 0.3246-0.1384 0.6773-0.4124 1.06-0.2741 0.3748-0.6599 0.7898-1.158 1.244-0.4901 0.4472-1.064 0.9486-1.721 1.504v0.9092h5.162v-1.339h-1.633c-0.1803 1e-6 -0.3867 0.01027-0.6176 0.0319-0.2237 0.01443-0.4319 0.03078-0.6267 0.05241 0.4469-0.3897 0.8619-0.7815 1.244-1.178 0.3823-0.4037 0.6874-0.8042 0.9183-1.201 0.238-0.404 0.3577-0.7982 0.3577-1.181 0-0.44-0.1053-0.8216-0.3144-1.146-0.202-0.3318-0.4824-0.5877-0.8432-0.7679-0.3608-0.1803-0.7815-0.2712-1.286-0.271-0.5048 1.4e-4 -0.9569 0.09517-1.332 0.2827z" fill="currentColor"/>
</svg>
