<svg width="24" height="24" version="1.1" xmlns="http://www.w3.org/2000/svg">
  <defs>
    <style id="current-color-scheme" type="text/css">.ColorScheme-Text { color:#282828; } .ColorScheme-Highlight { color:#458588; }</style>
  </defs>
  <path class="ColorScheme-Text" d="m10.71 4.879-2.828 2.828 1.414 1.414 2.828-2.828zm4 5.08e-5 -2.828 2.828 1.414 1.414 2.828-2.828zm-9.707 0.1207-5.07e-5 4 2 2.54e-5 5.07e-5 -4zm12 0.00115-5.1e-5 4 2 2.54e-5 5.1e-5 -4zm-12 4.999-5.08e-5 4 2 2.5e-5 5.09e-5 -4zm12 0.0012-5e-5 4 2 2.5e-5 5e-5 -4zm-5.767 0.1347-3.465 2 1 1.731 3-1.73 1 1.731 3.465-2-1-1.731-3 1.73zm-1.098 4.633-1.999 3.465 1.73 0.9998 1.999-3.465zm4 5.1e-5 -1.999 3.465 1.73 0.9998 1.999-3.465zm-9.135 0.2324-5.07e-5 4 2 2.5e-5 5.07e-5 -4zm12 0.0012-5.1e-5 4 2 2.5e-5 5.1e-5 -4z" fill="currentColor"/>
</svg>
