<svg width="24" height="24" version="1.1" xmlns="http://www.w3.org/2000/svg">
  <defs>
    <style id="current-color-scheme" type="text/css">.ColorScheme-Text { color:#282828; } .ColorScheme-Highlight { color:#458588; }</style>
  </defs>
  <path class="ColorScheme-Text" d="m6 11c-0.554 0-1 0.446-1 1v5c0 0.554 0.446 1 1 1h8c0.554 0 1-0.446 1-1v-5c0-0.554-0.446-1-1-1zm4 2h1l1 1 1-1h1v1l-1 1 1 1v1h-1l-1-1-1 1h-1v-1l1-1-1-1z" fill="currentColor" opacity=".3"/>
  <path class="ColorScheme-Text" d="m10 6c-0.554 0-1 0.446-1 1v3h5.801c0.6648 0 1.199 0.5344 1.199 1.199v1.801h2c0.554 0 1-0.446 1-1v-5c0-0.554-0.446-1-1-1z" fill="currentColor"/>
</svg>
