<svg width="24" height="24" version="1.1" xmlns="http://www.w3.org/2000/svg">
  <defs>
    <style id="current-color-scheme" type="text/css">.ColorScheme-Text { color:#282828; } .ColorScheme-Highlight { color:#458588; }</style>
  </defs>
  <path class="ColorScheme-Text" d="m10.5 4a6.5 6.5 0 0 0-6.5 6.5 6.5 6.5 0 0 0 5.5 6.418v3.082h2v-3.082a6.5 6.5 0 0 0 5.418-5.418h3.082v-2h-3.078a6.5 6.5 0 0 0-6.422-5.5zm0 2a4.5 4.5 0 0 1 4.387 3.5h-4.387c-0.554 0-1 0.446-1 1v4.373a4.5 4.5 0 0 1-3.5-4.373 4.5 4.5 0 0 1 4.5-4.5zm1 5.5h3.373a4.5 4.5 0 0 1-3.373 3.373z" fill="currentColor"/>
  <path class="ColorScheme-Text" d="m10.5 6a4.5 4.5 0 0 0-4.5 4.5 4.5 4.5 0 0 0 4.5 4.5 4.5 4.5 0 0 0 1-0.123v5.123h8.5v-8.5h-5.123a4.5 4.5 0 0 0 0.123-1 4.5 4.5 0 0 0-4.5-4.5z" fill="currentColor" opacity=".3"/>
</svg>
