<svg width="24" height="24" version="1.1" xmlns="http://www.w3.org/2000/svg">
  <defs>
    <style id="current-color-scheme" type="text/css">.ColorScheme-Text { color:#282828; } .ColorScheme-Highlight { color:#458588; }</style>
  </defs>
  <path class="ColorScheme-Text" d="m5.535 5c-0.2968 0-0.5352 0.2383-0.5352 0.5352v1.93c0 0.2968 0.2383 0.5352 0.5352 0.5352h1.93c0.2968 0 0.5352-0.2383 0.5352-0.5352v-0.4648h3v10.5c0 0.277 0.223 0.5 0.5 0.5h4.5v0.4648c0 0.2968 0.2383 0.5352 0.5352 0.5352h1.93c0.2968 0 0.5352-0.2383 0.5352-0.5352v-1.93c0-0.2968-0.2383-0.5352-0.5352-0.5352h-1.93c-0.2968 0-0.5352 0.2383-0.5352 0.5352v0.4648h-4v-5h4v0.4648c0 0.2968 0.2383 0.5352 0.5352 0.5352h1.93c0.2968 0 0.5352-0.2383 0.5352-0.5352v-1.93c0-0.2968-0.2383-0.5352-0.5352-0.5352h-1.93c-0.2968 0-0.5352 0.2383-0.5352 0.5352v0.4648h-4v-4.5c0-0.2761-0.2238-0.5-0.5-0.5h-3.5v-0.4648c0-0.2968-0.2383-0.5352-0.5352-0.5352z" fill="currentColor"/>
</svg>
