<svg width="24" height="24" version="1" xmlns="http://www.w3.org/2000/svg">
  <defs>
    <style id="current-color-scheme" type="text/css">.ColorScheme-Text { color:#ebdbb2; } .ColorScheme-Highlight { color:#458588; } .ColorScheme-NeutralText { color:#fe8019; } .ColorScheme-PositiveText { color:#689d6a; } .ColorScheme-NegativeText { color:#fb4934; }</style>
  </defs>
  <path class="ColorScheme-Text" d="m12 4a8 8 0 0 0-8 8 8 8 0 0 0 8 8 8 8 0 0 0 8-8 8 8 0 0 0-8-8zm-0.1152 4.002h0.0019c1.867 0.07063 2.972 1.333 3.094 3.174 0.1373 2.075-0.4746 2.616-0.2129 3.033 0.5465 0.8708-0.2264 1.098-0.7402 1.523-0.32 0.265-0.939 0.145-1.245-0.232-0.93-0.538-0.57 0.495-2.49 0.5-0.9983-0.041-1.915-0.761-2.174-1.732-0.3964-1.49 0.1855-2.589 1.805-3.108 0.4682-0.15 1.396-0.06 1.805-0.359 0.385-0.282 0.249-0.688-0.225-0.74-0.68-0.0763-1.74 0.231-2.367 0.107-0.5034-0.1-0.6566-1.061-0.3281-1.475 0.5376-0.6767 1.916-0.6476 2.695-0.6836 0.1312-0.0061 0.2564-0.01255 0.3809-0.0078zm-0.248 4.449c-0.4325 0-0.791 0.3228-0.791 0.7246 0 0.4018 0.3585 0.7324 0.791 0.7324 0.4325 0 0.7734-0.3306 0.7734-0.7324 0-0.4018-0.3409-0.7246-0.7734-0.7246z" fill="currentColor"/>
</svg>
