<svg width="24" height="24" version="1.1" xmlns="http://www.w3.org/2000/svg">
  <defs>
    <style id="current-color-scheme" type="text/css">.ColorScheme-Text { color:#ebdbb2; } .ColorScheme-Highlight { color:#458588; } .ColorScheme-NeutralText { color:#fe8019; } .ColorScheme-PositiveText { color:#689d6a; } .ColorScheme-NegativeText { color:#fb4934; }</style>
  </defs>
  <path class="ColorScheme-Text" d="m9.586 10c-0.5876 0-1.266 1.103-1.984 2.27-0.1341 0.2171-0.2646 0.4284-0.3906 0.625-0.405 0.7063-0.9512 1.813-1.478 2.107-0.4418 0.2434-0.9201 0.4023-1.301 0.4023-0.2574 0-0.3596-0.0787-0.3848-0.1016-0.1754-0.166-0.3866-0.303-0.5468-0.303-0.2268 0-0.5 0-0.5 0.5 0 1.5 3.066 2.393 4.426 2.484 0.1899 0.011 0.384 0.016 0.582 0.016h0.04883c1.463-0.02514 2.78-0.7009 3.529-1.808 0.1539-0.2263 0.3754-0.1914 0.4141-0.1914 0.0387 0 0.2602-0.03488 0.4141 0.1914 0.7496 1.107 2.066 1.783 3.529 1.808h0.04883c0.198 0 0.3922-0.0053 0.582-0.01563 1.36-0.091 4.426-0.984 4.426-2.484 0-0.5-0.273-0.5-0.5-0.5-0.1602 0-0.3714 0.137-0.5469 0.3027-0.0252 0.02286-0.1274 0.1016-0.3848 0.1016-0.3807 0-0.8589-0.1589-1.301-0.4023-0.5274-0.2949-1.074-1.401-1.478-2.107-0.126-0.1966-0.2565-0.4079-0.3906-0.625-0.718-1.167-1.396-2.27-1.984-2.27-0.417 0-0.9 0.298-1.365 0.586-0.388 0.24-0.788 0.414-1.049 0.414s-0.661-0.174-1.049-0.414c-0.465-0.288-0.948-0.586-1.365-0.586z" fill="currentColor"/>
  <circle class="ColorScheme-Highlight" cx="12" cy="8" r="2" fill="currentColor"/>
</svg>
