<svg xmlns="http://www.w3.org/2000/svg" width="24" height="24" version="1.1">
   <defs>
      <style id="current-color-scheme" type="text/css">
         .ColorScheme-Text {
            color: #ebdbb2;
         }

         .ColorScheme-Highlight {
            color: #458588;
         }
      </style>
   </defs>
   <g>

      <path style="fill:currentColor" class="ColorScheme-Text"
         d="M 5,9 C 4.5567999,9 4.1992187,9.377019 4.1992187,9.845703 v 9.308594 C 4.1992187,19.622981 4.5567999,20 5,20 h 14.398438 c 0.4432,0 0.800781,-0.377019 0.800781,-0.845703 V 9.845703 C 20.199219,9.377019 19.841638,9 19.398438,9 Z m 3.6992187,2 a 3.5,3.5 0 0 1 3.5000003,3.5 3.5,3.5 0 0 1 3.5,-3.5 3.5,3.5 0 0 1 3.5,3.5 3.5,3.5 0 0 1 -3.5,3.5 3.5,3.5 0 0 1 -3.5,-3.5 3.5,3.5 0 0 1 -3.5000003,3.5 3.5,3.5 0 0 1 -3.5,-3.5 3.5,3.5 0 0 1 3.5,-3.5 z m 0,2 a 1.5,1.5 0 0 0 -1.5,1.5 1.5,1.5 0 0 0 1.5,1.5 A 1.5,1.5 0 0 0 10.199219,14.5 1.5,1.5 0 0 0 8.6992187,13 Z m 7.0000003,0 a 1.5,1.5 0 0 0 -1.5,1.5 1.5,1.5 0 0 0 1.5,1.5 1.5,1.5 0 0 0 1.5,-1.5 1.5,1.5 0 0 0 -1.5,-1.5 z"
         id="path5-3" />
      <path style="fill:currentColor" class="ColorScheme-Text"
         d="M 5,4 C 4.5567999,4 4.1992187,4.3192878 4.1992187,4.7148438 V 8.2851562 C 4.1992187,8.680712 4.5567999,9 5,9 h 14.398438 c 0.4432,0 0.800781,-0.319288 0.800781,-0.7148438 V 4.7148438 C 20.199219,4.3192878 19.841638,4 19.398438,4 Z M 6.0703125,5 H 18.328125 c 0.482534,0 0.871094,0.3018313 0.871094,0.6757812 V 7.3242188 C 19.199219,7.6981687 18.810659,8 18.328125,8 H 6.0703125 C 5.5877784,8 5.1992187,7.6981687 5.1992187,7.3242188 V 5.6757812 C 5.1992187,5.3018312 5.5877784,5 6.0703125,5 Z m 0.6289062,1 a 0.5,0.5 0 0 0 -0.5,0.5 0.5,0.5 0 0 0 0.5,0.5 0.5,0.5 0 0 0 0.5,-0.5 0.5,0.5 0 0 0 -0.5,-0.5 z m 2,0 a 0.5,0.5 0 0 0 -0.5,0.5 0.5,0.5 0 0 0 0.5,0.5 0.5,0.5 0 0 0 0.5,-0.5 0.5,0.5 0 0 0 -0.5,-0.5 z m 2.0000003,0 a 0.5,0.5 0 0 0 -0.5,0.5 0.5,0.5 0 0 0 0.5,0.5 0.5,0.5 0 0 0 0.5,-0.5 0.5,0.5 0 0 0 -0.5,-0.5 z m 6.5,0 v 1 h 1 V 6 Z"
         id="path7-6" />
   </g>
</svg>