<svg width="24" height="24" version="1.1" xmlns="http://www.w3.org/2000/svg">
  <defs>
    <style id="current-color-scheme" type="text/css">.ColorScheme-Text { color:#ebdbb2; } .ColorScheme-Highlight { color:#458588; } .ColorScheme-NeutralText { color:#fe8019; } .ColorScheme-PositiveText { color:#689d6a; } .ColorScheme-NegativeText { color:#fb4934; }</style>
  </defs>
  <path class="ColorScheme-Text" d="m4 7h4m-2 8v-8" fill="none" stroke="currentColor" stroke-linecap="round" stroke-width="2"/>
  <path class="ColorScheme-Text" d="m14.99 12h2m-1 0-1.1e-5 2c0 1 0 1-1 0.9996-0.4078 0-1.702 4.48e-4 -2 4.48e-4 -1 0-1 0-1-1l1.5e-5 -3-1.5e-5 -3c0-1 0-1 1-1 0.2508 0 1.616-3.629e-4 2-4.492e-4 1 4.492e-4 1 4.492e-4 1 1" fill="none" stroke="currentColor" stroke-linecap="round" stroke-linejoin="bevel" stroke-width="2"/>
</svg>
