<svg width="24" height="24" version="1.1" xmlns="http://www.w3.org/2000/svg">
  <defs>
    <style id="current-color-scheme" type="text/css">.ColorScheme-Text { color:#ebdbb2; } .ColorScheme-Highlight { color:#458588; } .ColorScheme-NeutralText { color:#fe8019; } .ColorScheme-PositiveText { color:#689d6a; } .ColorScheme-NegativeText { color:#fb4934; }</style>
  </defs>
  <path class="ColorScheme-Text" d="m5 4c-0.554 0-1 0.446-1 1v14c0 0.554 0.446 1 1 1h14c0.554 0 1-0.446 1-1v-14c0-0.554-0.446-1-1-1zm0.5 1a0.5 0.5 0 0 1 0.5 0.5 0.5 0.5 0 0 1-0.5 0.5 0.5 0.5 0 0 1-0.5-0.5 0.5 0.5 0 0 1 0.5-0.5zm6.5 0a7 7 0 0 1 7 7 7 7 0 0 1-7 7 7 7 0 0 1-7-7 7 7 0 0 1 7-7zm6.5 0a0.5 0.5 0 0 1 0.5 0.5 0.5 0.5 0 0 1-0.5 0.5 0.5 0.5 0 0 1-0.5-0.5 0.5 0.5 0 0 1 0.5-0.5zm-5.498 1.102c-0.5531-0.0011-1.002 0.4469-1.002 1v1.898a3 3 0 0 1 2.344 1.129c0.789-0.1705 1.455-0.3276 2.129-0.4863 0.894-0.2108 0.5338-0.9892 0.1758-1.43-0.873-1.074-2.091-1.814-3.447-2.092-0.0656-0.0132-0.1324-0.01963-0.1992-0.01953zm-3.938 0.8672c-0.289 0.00319-0.6175 0.195-0.8516 0.3848-1.074 0.8736-1.814 2.092-2.092 3.447-0.013 0.066-0.01953 0.1323-0.01953 0.1992-1e-3 0.5531 0.447 1.002 1 1.002h1.898a3 3 0 0 1 1.129-2.344c-0.1705-0.7895-0.3276-1.455-0.4863-2.129-0.09886-0.4192-0.3231-0.5634-0.5781-0.5605zm2.936 3.031a2 2 0 0 0-2 2 2 2 0 0 0 2 2 2 2 0 0 0 2-2 2 2 0 0 0-2-2zm3.002 1.998a3 3 0 0 1-1.129 2.344c0.1705 0.7895 0.3276 1.455 0.4863 2.129 0.2108 0.8942 0.9891 0.533 1.43 0.1758 1.074-0.8736 1.814-2.092 2.092-3.447 0.01316-0.066 0.0197-0.1323 0.01953-0.1992 1e-3 -0.5531-0.447-1.002-1-1.002h-1.898zm-5.348 1.975c-0.7895 0.1705-1.455 0.3276-2.129 0.4863-0.8942 0.2109-0.533 0.9892-0.1758 1.43 0.8736 1.074 2.092 1.814 3.447 2.092 0.066 0.013 0.1323 0.02148 0.1992 0.02148v-2e-3c0.5531 1e-3 1.002-0.447 1.002-1v-1.898a3 3 0 0 1-2.344-1.129zm-4.154 4.027a0.5 0.5 0 0 1 0.5 0.5 0.5 0.5 0 0 1-0.5 0.5 0.5 0.5 0 0 1-0.5-0.5 0.5 0.5 0 0 1 0.5-0.5zm13 0a0.5 0.5 0 0 1 0.5 0.5 0.5 0.5 0 0 1-0.5 0.5 0.5 0.5 0 0 1-0.5-0.5 0.5 0.5 0 0 1 0.5-0.5z" fill="currentColor"/>
</svg>
