<svg width="24" height="24" version="1.1" xmlns="http://www.w3.org/2000/svg">
  <defs>
    <style id="current-color-scheme" type="text/css">.ColorScheme-Text { color:#ebdbb2; } .ColorScheme-Highlight { color:#458588; } .ColorScheme-NeutralText { color:#fe8019; } .ColorScheme-PositiveText { color:#689d6a; } .ColorScheme-NegativeText { color:#fb4934; }</style>
  </defs>
  <path class="ColorScheme-Text" d="m4.801 4c-0.4432 0-0.8008 0.3576-0.8008 0.8008v14.4c0 0.4432 0.3576 0.8008 0.8008 0.8008h14.4c0.4432 0 0.8008-0.3576 0.8008-0.8008v-14.4c0-0.4432-0.3576-0.8008-0.8008-0.8008zm6.699 2c0.277 0 0.5 0.3345 0.5 0.75v10.5c0 0.4155-0.223 0.75-0.5 0.75s-0.5-0.3345-0.5-0.75v-10.5c0-0.4155 0.223-0.75 0.5-0.75zm-6 1c0.277 0 0.5 0.3705 0.5 0.832v8.336c0 0.4615-0.223 0.832-0.5 0.832-0.277 0-0.5-0.3705-0.5-0.832v-8.336c0-0.4615 0.223-0.832 0.5-0.832zm9 0c0.277 0 0.5 0.3193 0.5 0.7148v8.57c0 0.3956-0.223 0.7148-0.5 0.7148s-0.5-0.3193-0.5-0.7148v-8.57c0-0.3956 0.223-0.7148 0.5-0.7148zm-6 1c0.277 0 0.5 0.3576 0.5 0.8008v6.398c0 0.4432-0.223 0.8008-0.5 0.8008-0.277 0-0.5-0.3576-0.5-0.8008v-6.398c0-0.4432 0.223-0.8008 0.5-0.8008zm9 0c0.277 0 0.5 0.2985 0.5 0.668v6.664c0 0.3695-0.223 0.668-0.5 0.668s-0.5-0.2985-0.5-0.668v-6.664c0-0.3695 0.223-0.668 0.5-0.668z" fill="currentColor"/>
</svg>
