<svg width="24" height="24" version="1.1" xmlns="http://www.w3.org/2000/svg">
  <defs>
    <style id="current-color-scheme" type="text/css">.ColorScheme-Text { color:#ebdbb2; } .ColorScheme-Highlight { color:#458588; } .ColorScheme-NeutralText { color:#fe8019; } .ColorScheme-PositiveText { color:#689d6a; } .ColorScheme-NegativeText { color:#fb4934; }</style>
  </defs>
  <path class="ColorScheme-Text" d="m12 4c-2.148 1.97-5.765 3.705-7 4 0 5.333 2.625 11.11 7 12 4.375-0.889 7-6.667 7-12-1.235-0.2951-4.852-2.03-7-4zm0.145 3.998v2e-3h1e-3c1.309 0.048 2.501 0.7374 3.204 1.818l1.388-0.4629-1.57 3.146-3.147-1.574 1.278-0.4257c-0.338-0.294-0.763-0.487-1.229-0.504-0.742-0.027-1.434 0.3551-1.806 0.9981l-1.732-1c0.7401-1.282 2.134-2.053 3.614-1.998zm-3.313 3.5 3.147 1.574-1.278 0.426c0.3378 0.294 0.7628 0.485 1.229 0.502 0.742 0.027 1.434-0.355 1.806-0.998l1.733 1c-0.74 1.282-2.135 2.053-3.614 1.998-1.308-0.048-2.5-0.737-3.203-1.818l-1.389 0.463 1.568-3.147z" fill="currentColor"/>
</svg>
