<svg width="24" height="24" version="1.1" xmlns="http://www.w3.org/2000/svg">
  <defs>
    <style id="current-color-scheme" type="text/css">.ColorScheme-Text { color:#ebdbb2; } .ColorScheme-Highlight { color:#458588; } .ColorScheme-NeutralText { color:#fe8019; } .ColorScheme-PositiveText { color:#689d6a; } .ColorScheme-NegativeText { color:#fb4934; }</style>
  </defs>
  <path class="ColorScheme-Text" d="m4.5 4c-0.277 0-0.5 0.223-0.5 0.5v0.5h-2v-2.6e-4l-1.5e-5 14.5c0 0.277 0.223 0.5 0.5 0.5h6c0.277 0 0.5-0.223 0.5-0.5v-14.5l-0.5 2e-3h-1.5v-0.5c0-0.277-0.223-0.5-0.5-0.5z" fill="currentColor" opacity=".3"/>
  <path class="ColorScheme-Text" d="m2 9-1.5e-5 10.5c0 0.277 0.223 0.5 0.5 0.5h6c0.277 0 0.5-0.223 0.5-0.5v-10.5z" fill="currentColor"/>
  <path class="ColorScheme-Text" d="m16 4c-2.77 0-5 2.676-5 6h5zm1 0v6h5c0-3.324-2.23-6-5-6zm-6 7v3c0 3.324 2.23 6 5 6h1c2.77 0 5-2.676 5-6v-3h-5z" fill="currentColor"/>
</svg>
