<svg width="24" height="24" version="1.1" xmlns="http://www.w3.org/2000/svg">
  <defs>
    <style id="current-color-scheme" type="text/css">.ColorScheme-Text { color:#ebdbb2; } .ColorScheme-Highlight { color:#458588; } .ColorScheme-NeutralText { color:#fe8019; } .ColorScheme-PositiveText { color:#689d6a; } .ColorScheme-NegativeText { color:#fb4934; }</style>
  </defs>
  <path class="ColorScheme-Text" d="m14.03 5.001c-1.731-0.00586-2.81 1.269-3.301 1.914-0.1027 0.1351-0.102 0.1355-0.2598 0.09375-0.08907-0.02315-0.418-0.03993-0.7559-0.03906-2.13 0.00479-3.803 1.624-3.914 3.731l-0.02148 0.4062c-0.79 0.2371-2.783 0.892-2.784 3.81-8.16e-4 2.428 1.784 3.81 3.342 4.045 0.1145 0.01736 2.521 0.03216 5.348 0.03516 5.507 0.0046 5.427 7e-3 6.072-0.1777 1.307-0.3738 2.672-1.648 3.078-3.237 0.5717-2.271-0.4022-4.046-2.117-5.308 0.1635-3.833-2.565-5.279-4.687-5.273zm0.0977 2.002c1.466-4e-3 2.14 1.041 2.351 1.488 0.6033 1.094-0.2948 2.475 1.111 3.433 2.999 2.06 0.817 5.001-1.105 5.057-3.212 0.02648-6.424 0.02876-9.635-0.0078-2.2-0.03084-2.529-3.374-0.4843-4.056 0.8019-0.2471 1.364-0.869 1.408-1.707-0.01867-1.342 0.7119-2.211 1.948-2.211 1.142 0 1.932-0.08947 2.599-0.9709 0.4701-0.649 0.8788-1.029 1.807-1.025zm-1.132 2.996v1h-4v1h4v1l2.5-1.5zm-2 3-2.5 1.5 2.5 1.5v-1h4v-1h-4z" fill="currentColor"/>
</svg>
