<svg width="24" height="24" version="1.1" xmlns="http://www.w3.org/2000/svg">
  <defs>
    <style id="current-color-scheme" type="text/css">.ColorScheme-Text { color:#ebdbb2; } .ColorScheme-Highlight { color:#458588; } .ColorScheme-NeutralText { color:#fe8019; } .ColorScheme-PositiveText { color:#689d6a; } .ColorScheme-NegativeText { color:#fb4934; }</style>
  </defs>
  <path class="ColorScheme-Text" d="m10.22 5c-2.385 0-4.223 1.822-4.223 4.207v0.4902c0 1.822 1.129 3.383 2.727 4.02v-1.594c-0.7402-0.5094-1.227-1.461-1.227-2.426v-0.4902c0-1.557 1.166-2.707 2.723-2.707h3.555c1.557 0 2.723 1.151 2.723 2.707v0.4902c0 1.557-1.166 2.807-2.723 2.803h-2.816c-0.1156-0.3269-0.3135-0.5-0.6602-0.5-0.4518 0-0.8008 0.1849-0.8008 0.6367v5.027c0 0.3737-0.4898 0.715-0.8535 0.8008-0.523 0.1233-1.146-0.274-1.146-0.7773v-2.912c0-0.4409-0.2583-0.7754-0.6992-0.7754-0.4408 0-0.8008 0.3345-0.8008 0.7754v2.82c0 1.322 1.133 2.404 2.455 2.404 1.322 0 2.553-1.082 2.553-2.404v-3.596h1.982v3.596c0 1.322 1.232 2.404 2.555 2.404s2.488-1.082 2.455-2.404v-2.82c0-0.4409-0.2779-0.7754-0.7188-0.7754-0.4408 0-0.7812 0.3345-0.7812 0.7754v2.812c0 0.5034-0.472 0.8125-1 0.8125-0.6693 0-1.015-0.4626-1-0.8359v-3.652c1.921-0.4403 3.5-2.162 3.5-4.215v-0.4902c0-2.385-1.838-4.207-4.223-4.207zm-5.473 6.002c-0.4126 0-0.75 0.3595-0.75 0.7988v2.811c0 1.038 0.6282 1.927 1.5 2.258v-5.068c0-0.4393-0.3375-0.7988-0.75-0.7988zm14.5 0c-0.4126 0-0.75 0.3595-0.75 0.7988v5.068c0.8718-0.3308 1.5-1.22 1.5-2.258v-2.811c0-0.4393-0.3375-0.7988-0.75-0.7988z" fill="currentColor"/>
</svg>
