<svg width="24" height="24" version="1.1" xmlns="http://www.w3.org/2000/svg">
  <defs>
    <style id="current-color-scheme" type="text/css">.ColorScheme-Text { color:#ebdbb2; } .ColorScheme-Highlight { color:#458588; } .ColorScheme-NeutralText { color:#fe8019; } .ColorScheme-PositiveText { color:#689d6a; } .ColorScheme-NegativeText { color:#fb4934; }</style>
  </defs>
  <path class="ColorScheme-Text" d="m10.14 4.098c-1.158 0.5243-1.088 1.347-1.019 2.475 0.06442 0.2653 0.01181 0.648 0.04872 0.648 0 0 0.8318-0.07967 1.07-0.08334 0.2428-0.09302 0.2454-0.09799 0.2085-0.2896-0.01761-0.09159-0.03262-0.3233-0.03313-0.5168-0.0025-1.044 0.6743-1.477 0.6743-1.93 0-0.3739-0.5379-0.5136-0.9494-0.3037zm4.252 0.09173c-0.01114 0.03059 0.01995 0.2824 0.07017 0.5605 0.3769 2.087-0.7254 2.551-0.5476 2.738 0.05356 0.05642 1.013 0.5747 1.072 0.5793 0.02998 0.0023 0.1055-0.05667 0.1676-0.1292 0.5985-0.698 1.604-2.584 0.1091-3.524-0.3827-0.2405-0.8277-0.3442-0.871-0.2251zm-10.3 3.051c-0.6892 2.517 2.649 2.503 4.145 1.375 0.03727-0.02811 0.2414-0.5608 0.2417-0.6313-0.5284 0.2333-3.146 1.182-3.143 0.08538 5.5e-4 -0.2468 0.08988-0.4533 0.2767-0.6355 0.6752-0.6583 2.921-0.1665 2.999 0.1937l0.01948 0.08959 0.05457-0.08334c0.05024-0.07774 0.3467-0.09742 0.2689-0.3063-0.1747-0.4696-4.272-2.242-4.862-0.08753zm1.584 0.6787c0.1174 0.2379 0.6155 0.2623 1.505 0.07084 0.5493-0.1183 0.6901-0.1658 0.6431-0.2167-0.1167-0.1265-2.411-0.388-2.148 0.1458zm10.76-0.06039c-0.4155 0.0489-0.7617 0.2926-1.129 0.4667 0.1232 0.1455 0.2792 0.2539 0.417 0.3792 0.0314 0.01201 0.1814-0.04278 0.3411-0.1271 0.896-0.4731 1.886-0.3877 2.148-0.3 0.7133 0.2386 0.6845 1.08-0.1364 1.221-0.4528 0.07765-1.691-0.1907-1.732-0.1625-0.01418 0.0096 9e-3 0.0847 0.05067 0.1666 0.6344 1.247 4.354 1.315 3.475-0.6123-0.6032-1.323-2.554-1.252-3.434-1.032zm0.1518 0.9897c0.5051 0.1382 1.751 0.2348 1.729 0.1063-6e-3 -0.03421-0.08612-0.1046-0.1773-0.1563-0.4068-0.2305-1.645-0.05303-1.551 0.05002zm-0.6037 0.348c-0.0629 0-0.08642 0.02191-0.1014 0.09584-0.04907 0.2431-0.1339 0.423-0.2611 0.5542-0.3145 0.3243-0.7902 0.3054-1.452-0.06042l-0.3235-0.1792-0.2143 0.2459c-0.4512 0.5168-1.068 0.6897-1.542 0.4333-0.1595-0.08629-0.2865-0.3008-0.3333-0.5625-0.01836-0.1027-0.03313-0.191-0.03313-0.1979 0-0.0447-0.09547 0.0021-0.1812 0.08959-0.2854 0.2914-0.7871 0.5067-1.179 0.5063-0.3861-3.73e-4 -0.5795-0.1326-0.7172-0.4875-0.03358-0.08657-0.07299-0.1562-0.08575-0.1563-0.01277-7.1e-5 -0.0902 0.04878-0.1734 0.1084-0.4107 0.2939-0.9757 0.3268-1.19 0.07085-0.1262-0.1502-0.186-0.08032-0.1871 0.2188-0.0046 1.27-1.271 4.67-1.471 7.042 0.0047 1.054 0.2091 2.343 2.715 2.829 1.257 0.2442 3.874 0.337 4.619 0.1646 2.022-0.4678 2.391-1.769 2.511-2.207 0.1807-0.6255 0.1178-1.258 0.0799-1.896-0.1797-2.482-0.3882-3.334-0.4619-5.297-0.01595-0.4254-0.03832-0.8341-0.05067-0.9085-0.01788-0.1073-0.0091-0.1553 0.04677-0.2354 0.09164-0.1314 0.089-0.1729-0.0117-0.1729zm-2.023 2.579c0.05373 0.1409 0.07086 0.2612 0.07212 0.55 0.0076 1.797-2.11 1.659-1.602-0.3563 0.03135-0.1244 0.07207-0.2893 0.08964-0.3668 0.1145-0.5037 1.074-0.7875 1.44 0.173zm-2.516 0.1229c0.6172 1.736-2.087 2.566-1.273-0.2058 0.2261-0.7702 1.023-0.4952 1.273 0.2058zm1.391-0.2666c-0.1119 0.08619-0.2038 0.7319-0.1227 0.8668 0.02633 0.04386 0.04617 0.03765 0.1247-0.03959 0.3352-0.3296 0.6865-0.1584 0.7951 0.05419 0.06711 0.1313 0.1169 0.1358 0.1169 0.0125 0-0.3023-0.2385-0.7468-0.4658-0.8689-0.153-0.08225-0.3604-0.0926-0.4482-0.02497zm-2.479 0.5167c-0.02871 0.3577-0.01597 0.376 0.1773 0.273 0.4263-0.2274 0.5764 0.1062 0.6392 0.03959 0.03596-0.0379-0.03604-0.2695-0.1325-0.423-0.119-0.1894-0.3611-0.3688-0.485-0.3688-0.1238-6e-6 -0.1698 0.1149-0.1991 0.4792zm2.908 4.918c-0.2883 0.8612-1.386 1.211-1.243-0.03958 0.125-1.1 1.563-0.9151 1.243 0.03958zm-3.461 0.6689c-0.2932 0.327-0.7725 0.1865-0.7717-0.2792 0.0022-1.406 1.655-0.706 0.7717 0.2792zm3.059-0.5106c0.2184-0.2195 0.07406-0.4406-0.2904-0.4418-0.3672-0.01086-0.2395 0.9742 0.2904 0.4418zm-3.5-0.1041c-0.1685 0.27 0.1825 0.5018 0.3216 0.3501 0.1665-0.1892-0.08644-0.6594-0.3216-0.3501z" fill="currentColor"/>
</svg>
