<svg width="24" height="24" version="1.1" xmlns="http://www.w3.org/2000/svg">
  <defs>
    <style id="current-color-scheme" type="text/css">.ColorScheme-Text { color:#ebdbb2; } .ColorScheme-Highlight { color:#458588; } .ColorScheme-NeutralText { color:#fe8019; } .ColorScheme-PositiveText { color:#689d6a; } .ColorScheme-NegativeText { color:#fb4934; }</style>
  </defs>
  <path class="ColorScheme-Text" d="m9.5 6c-3.038 0-5.5 2.462-5.5 5.5 0.00244 0.2201 0.01809 0.4399 0.04688 0.6582-1.222 0.4094-2.046 1.553-2.047 2.842 0 1.657 1.343 3 3 3h14c1.657 0 3-1.343 3-3-0.0013-1.273-0.8062-2.407-2.008-2.828 0.003835-0.05723 0.006441-0.1145 0.007812-0.1719 0-2.209-1.791-4-4-4-0.6647 0.001537-1.318 0.1687-1.902 0.4863-1.016-1.551-2.744-2.485-4.598-2.486zm-2.516 2c0.553 0 1.016 0.448 1.016 1s-0.4626 1-1.016 1-0.9844-0.448-0.9844-1 0.4323-1 0.9844-1zm5.016 1 3 5h-2v3h-2v-3h-2z" fill="currentColor"/>
</svg>
