<svg width="24" height="24" version="1.1" xmlns="http://www.w3.org/2000/svg">
  <defs>
    <style id="current-color-scheme" type="text/css">.ColorScheme-Text { color:#ebdbb2; } .ColorScheme-Highlight { color:#458588; } .ColorScheme-NeutralText { color:#fe8019; } .ColorScheme-PositiveText { color:#689d6a; } .ColorScheme-NegativeText { color:#fb4934; }</style>
  </defs>
  <path class="ColorScheme-Text" d="m18 5c-2.0674 1.2e-4 -3.7687 1.5682-3.9785 3.5801l-2.9863 4.4199c-0.01172-6.9e-5 -0.02344-6.9e-5 -0.03516 0-0.55671-4.5e-5 -1.1025 0.15482-1.5762 0.44727l-1.4609-0.97461c0.02482-0.15633 0.03723-0.31437 0.03711-0.47266 0-1.6569-1.3431-3-3-3s-3 1.3431-3 3 1.3431 3 3 3c0.55671 4.6e-5 1.1025-0.15482 1.5762-0.44727l1.4609 0.97461c-0.02482 0.15633-0.03723 0.31437-0.03711 0.47266 0 1.6569 1.3431 3 3 3 1.6508 2.2e-5 2.9914-1.3336 3-2.9844l4.4453-3.0352-0.0039-0.0039c2.0017-0.21953 3.5585-1.9165 3.5586-3.9766-1.27e-4 -2.2091-1.7909-3.9999-4-4zm0 1.5c1.3807 0 2.5 1.1193 2.5 2.5s-1.1193 2.5-2.5 2.5-2.5-1.1193-2.5-2.5 1.1193-2.5 2.5-2.5zm0 1.0977c-0.77456-1.55e-4 -1.4025 0.62779-1.4023 1.4023-1.55e-4 0.77456 0.62779 1.4025 1.4023 1.4023 0.77456 1.55e-4 1.4025-0.62779 1.4023-1.4023 1.55e-4 -0.77456-0.62779-1.4025-1.4023-1.4023zm-13 2.4023c1.0371 1.27e-4 1.902 0.79299 1.9922 1.8262l-0.79883-0.5332c-0.57485-0.38339-1.3517-0.22767-1.7344 0.34766-0.38206 0.57446-0.22646 1.3498 0.34766 1.7324l0.79883 0.5332c-0.19581 0.06216-0.40003 0.09378-0.60547 0.09375-1.1046 0-2-0.89543-2-2 0-1.1046 0.89543-2 2-2zm6 4c1.1046 0 2 0.89543 2 2 0 1.1046-0.89543 2-2 2-1.0371-1.26e-4 -1.902-0.79299-1.9922-1.8262l0.79883 0.5332c0.57485 0.38339 1.3517 0.22767 1.7344-0.34766 0.38206-0.57446 0.22646-1.3498-0.34766-1.7324l-0.79883-0.5332c0.19581-0.06216 0.40003-0.09378 0.60547-0.09375z" fill="currentColor"/>
</svg>
