<svg width="24" height="24" version="1.1" xmlns="http://www.w3.org/2000/svg">
  <defs>
    <style id="current-color-scheme" type="text/css">.ColorScheme-Text { color:#ebdbb2; } .ColorScheme-Highlight { color:#458588; } .ColorScheme-NeutralText { color:#fe8019; } .ColorScheme-PositiveText { color:#689d6a; } .ColorScheme-NegativeText { color:#fb4934; }</style>
  </defs>
  <path class="ColorScheme-Text" d="m11 4v2.086a6 6 0 0 1 1-0.08594 6 6 0 0 1 1 0.08984v-2.09zm-3.949 1.637-1.414 1.414 1.477 1.477a6 6 0 0 1 1.416-1.412zm9.898 0-1.477 1.477a6 6 0 0 1 1.412 1.416l1.479-1.479zm-4.949 1.363a5 5 0 0 0-5 5 5 5 0 0 0 2.295 4.205c0.4184-0.8994 1.247-1.568 2.229-1.883 0.6462-1.321 1.899-2.322 3.477-2.322 0.733 0 1.394 0.2229 1.959 0.5879a5 5 0 0 0 0.04102-0.5879 5 5 0 0 0-5-5zm-8 4v2h2.086a6 6 0 0 1-0.08594-1 6 6 0 0 1 0.08984-1zm13.91 0a6 6 0 0 1 0.08594 1 6 6 0 0 1-0.08984 1h2.09v-2zm-2.914 2c-1.31 0-2.401 0.8593-2.811 2.029-1.23 0.16-2.189 1.201-2.189 2.471 0 1.38 1.12 2.5 2.5 2.5h5c1.38 0 2.5-1.12 2.5-2.5 0-1.27-0.9595-2.311-2.189-2.471-0.4-1.17-1.501-2.029-2.811-2.029zm-7.885 2.471-1.479 1.479 1.414 1.414 1.477-1.477a6 6 0 0 1-1.412-1.416z" fill="currentColor"/>
</svg>
