<svg width="24" height="24" version="1.1" xmlns="http://www.w3.org/2000/svg">
  <defs>
    <style id="current-color-scheme" type="text/css">.ColorScheme-Text { color:#ebdbb2; } .ColorScheme-Highlight { color:#458588; } .ColorScheme-NeutralText { color:#fe8019; } .ColorScheme-PositiveText { color:#689d6a; } .ColorScheme-NegativeText { color:#fb4934; }</style>
  </defs>
  <path class="ColorScheme-Text" d="m12 4a8 8 0 0 0-8 8 8 8 0 0 0 8 8 8 8 0 0 0 2-0.2656v-4.568c0-0.6463 0.5151-1.166 1.154-1.166h4.586a8 8 0 0 0 0.2598-2 8 8 0 0 0-8-8zm-2 4.471 3 1.764 3 1.766-3 1.766-3 1.764v-3.529z" fill="currentColor" opacity=".3"/>
  <path class="ColorScheme-Text" d="m15 15v6h2v-6zm3 0v6h2v-6z" fill="currentColor"/>
</svg>
