<svg height="472pt" viewBox="0 -4 472.00746 472" width="472pt" xmlns="http://www.w3.org/2000/svg"><path d="m0 152.003906h64v160h-64zm0 0" fill="#d3869b"/><path d="m272 464.003906-208-128v-208l208-127.99999975zm0 0" fill="#fabd2f"/><g fill="#cc241d"><path d="m304 344.003906c-3.289062.003906-6.246094-2.007812-7.449219-5.070312-1.207031-3.058594-.414062-6.546875 1.992188-8.785156 13.664062-12.722657 45.457031-47.746094 45.457031-98.144532 0-50.398437-31.792969-85.425781-45.457031-98.144531-3.234375-3.011719-3.414063-8.078125-.398438-11.3125 3.011719-3.234375 8.078125-3.414063 11.3125-.398437 15.191407 14.144531 50.542969 53.175781 50.542969 109.855468 0 56.679688-35.351562 95.710938-50.542969 109.855469-1.484375 1.378906-3.433593 2.144531-5.457031 2.144531zm0 0"/><path d="m360 368.003906c-3.136719-.003906-5.980469-1.835937-7.277344-4.691406-1.296875-2.851562-.804687-6.203125 1.253906-8.566406 61.363282-70.324219 61.363282-175.160156 0-245.488282-2.003906-2.132812-2.683593-5.191406-1.769531-7.972656.914063-2.78125 3.277344-4.84375 6.15625-5.371094 2.878907-.527343 5.816407.558594 7.660157 2.832032 31.957031 37.074218 49.671874 84.3125 49.976562 133.257812-.304688 48.945313-18.019531 96.183594-49.976562 133.253906-1.515626 1.742188-3.714844 2.742188-6.023438 2.746094zm0 0"/><path d="m416 400.003906c-2.980469-.003906-5.707031-1.664062-7.085938-4.304687-1.375-2.640625-1.167968-5.828125.535157-8.273438 30.777343-45.953125 46.996093-100.113281 46.550781-155.421875.445312-55.308594-15.78125-109.46875-46.558594-155.425781-1.707031-2.339844-2.011718-5.421875-.800781-8.050781 1.210937-2.632813 3.75-4.40625 6.636719-4.632813 2.886718-.226562 5.675781 1.125 7.28125 3.53125 32.632812 48.652344 49.859375 106 49.441406 164.578125.417969 58.578125-16.808594 115.925782-49.441406 164.574219-1.496094 2.144531-3.945313 3.425781-6.558594 3.425781zm0 0"/></g><path d="m112 240.003906c-4.417969 0-8-3.582031-8-8v-128c0-4.417968 3.582031-8 8-8s8 3.582032 8 8v128c0 4.417969-3.582031 8-8 8zm0 0" fill="#d3869b"/></svg>