<svg xmlns="http://www.w3.org/2000/svg" xmlns:xlink="http://www.w3.org/1999/xlink" style="isolation:isolate" width="16" height="16" viewBox="0 0 16 16">
 <defs>
   <style id="current-color-scheme" type="text/css">
   .ColorScheme-Text { color:#ebdbb2; } .ColorScheme-Highlight { color:#458588; }
  </style>
  <linearGradient id="arrongin" x1="0%" x2="0%" y1="0%" y2="100%">
   <stop offset="0%" style="stop-color:#d79921; stop-opacity:1"/>
   <stop offset="100%" style="stop-color:#b57614; stop-opacity:1"/>
  </linearGradient>
  <linearGradient id="aurora" x1="0%" x2="0%" y1="0%" y2="100%">
   <stop offset="0%" style="stop-color:#83a598; stop-opacity:1"/>
   <stop offset="100%" style="stop-color:#b16286; stop-opacity:1"/>
  </linearGradient>
  <linearGradient id="fitdance" x1="0%" x2="0%" y1="0%" y2="100%">
   <stop offset="0%" style="stop-color:#8ec07c; stop-opacity:1"/>
   <stop offset="100%" style="stop-color:#458588; stop-opacity:1"/>
  </linearGradient>
  <linearGradient id="oomox" x1="0%" x2="0%" y1="0%" y2="100%">
   <stop offset="0%" style="stop-color:#458588; stop-opacity:1"/>
   <stop offset="100%" style="stop-color:#928374; stop-opacity:1"/>
  </linearGradient>
  <linearGradient id="rainblue" x1="0%" x2="0%" y1="0%" y2="100%">
   <stop offset="0%" style="stop-color:#b8bb26; stop-opacity:1"/>
   <stop offset="100%" style="stop-color:#076678; stop-opacity:1"/>
  </linearGradient>
  <linearGradient id="sunrise" x1="0%" x2="0%" y1="0%" y2="100%">
   <stop offset="0%" style="stop-color: #fe8019; stop-opacity:1"/>
   <stop offset="100%" style="stop-color: #fabd2f; stop-opacity:1"/>
  </linearGradient>
  <linearGradient id="telinkrin" x1="0%" x2="0%" y1="0%" y2="100%">
   <stop offset="0%" style="stop-color: #83a598; stop-opacity:1"/>
   <stop offset="100%" style="stop-color: #83a598; stop-opacity:1"/>
  </linearGradient>
  <linearGradient id="60spsycho" x1="0%" x2="0%" y1="0%" y2="100%">
   <stop offset="0%" style="stop-color: #fb4934; stop-opacity:1"/>
   <stop offset="25%" style="stop-color: #fabd2f; stop-opacity:1"/>
   <stop offset="50%" style="stop-color: #fe8019; stop-opacity:1"/>
   <stop offset="100%" style="stop-color: #689d6a; stop-opacity:1"/>
  </linearGradient>
  <linearGradient id="90ssummer" x1="0%" x2="0%" y1="0%" y2="100%">
   <stop offset="0%" style="stop-color: #b16286; stop-opacity:1"/>
   <stop offset="20%" style="stop-color: #8ec07c; stop-opacity:1"/>
   <stop offset="50%" style="stop-color: #fabd2f; stop-opacity:1"/>
   <stop offset="100%" style="stop-color: #458588; stop-opacity:1"/>
  </linearGradient>
  <linearGradient id="cyberneon" x1="0%" x2="0%" y1="0%" y2="100%">
    <stop offset="0" style="stop-color:#83a598; stop-opacity:1"/>
    <stop offset="1" style="stop-color:#b16286; stop-opacity:1"/>
  </linearGradient>
 </defs>
    <path fill="currentColor" class="ColorScheme-Text" d="m14.797 3.9161c-1.3727-2.3317-3.4934-3.6072-6.1975-3.8677-1.9623-0.189-3.7443 0.28036-5.2714 1.5567-1.9248 1.6086-1.8339 4.0442-0.93501 5.4447 0.66612 1.038 1.7079 1.5242 2.8581 1.8024 0.90349 0.21839 1.7646 0.078768 2.5595-0.41877 0.21839-0.13674 0.43817-0.27126 0.65796-0.40577 0.66097-0.40461 1.328-0.7732 2.1263-0.86297 1.6919-0.19021 3.0039 0.68942 3.2208 2.2521 0.23028 1.6596-0.92377 3.2526-2.8476 2.9672-1.0976-0.16292-1.7028-0.86311-1.6139-1.8516 0.093112-1.035 1.1413-1.7003 2.0463-1.2989 0.40262 0.17861 0.61116 0.57495 0.49912 0.94866-0.09534 0.31805-0.39398 0.44768-0.86395 0.37133-0.12532-0.02038-0.24907-0.05598-0.39185-0.02697 0.28999 0.39709 0.79012 0.58113 1.2684 0.46672 0.4495-0.10244 0.68557-0.41515 0.77813-0.85084 0.16431-0.77348-0.46231-1.7125-1.2729-1.9089-1.6185-0.39222-3.3439 0.97317-3.3349 2.6389 0.00703 1.3105 1.1163 2.553 2.4362 2.7373 0.18335 0.02562 0.38233 0.0089 0.5497 0.12458-0.01917 0.03444-0.02419 0.05352-0.03652 0.06368-0.03315 0.02958-0.0693 0.05561-0.10787 0.07766-1.5756 0.81418-3.1974 0.92562-4.8289 0.2219-0.80157-0.34576-1.359-0.96889-1.5187-1.8669-0.12161-0.68324 0.35467-1.2972 1.0844-1.43 0.55236-0.10054 1.0311 0.30301 1.1675 0.98482 0.010447 0.05222 0.016472 0.10536 0.025016 0.15792 0.00977 0.06001-0.00469 0.14483 0.062061 0.16445 0.090319 0.02655 0.1087-0.07302 0.14295-0.127 0.37904-0.59738 0.11753-1.4323-0.55894-1.7936-1.0981-0.58634-2.6654 0.1599-2.8995 1.3828-0.11915 0.6223-0.057413 1.2196 0.25623 1.782 0.051985 0.09334 0.13771 0.18376 0.10848 0.31484-0.030396-1.11e-4 -0.060626-0.0045-0.089812-0.01299-0.079143-0.040022-0.1581-0.081234-0.23325-0.12825-0.55041-0.34913-1.0149-0.81806-1.3587-1.3717-0.36321-0.57013-0.62721-1.1765-0.61131-1.8713 0.017732-0.77464 0.36993-1.1916 1.1207-1.3365 0.022926-0.0043939 0.042054-0.028267 0.063594-0.043441-0.25376-0.2686-0.61405-0.33429-0.97047-0.16006-0.49447 0.24174-0.74786 0.66176-0.84478 1.1901-0.013045 0.071201 0.034028 0.18738-0.07826 0.19578-0.089997 0.006737-0.11739-0.10008-0.13985-0.17374-0.31619-1.0369-0.50641-2.0878-0.35509-3.178 0.072177-0.51991 0.23013-1.016 0.38966-1.5143-0.24531 0.26304-0.39495 0.57189-0.5173 0.89638-0.39719 1.053-0.41185 2.1196-0.22141 3.2247 0.59849 3.4713 3.5824 6.2971 7.0867 6.5522 3.1559 0.22995 5.7246-0.95168 7.4456-3.624 1.7555-2.7257 1.7907-5.6016 0.14607-8.3953zm-1.5072 1.208c-0.01037 0.035922-0.0557 0.040287-0.08911 0.017127-0.36874-0.25585-0.77283-0.11446-1.1651-0.10453-0.06211 0.00156-0.12402 0.00859-0.14226 0.00982-0.32588 0.00361-0.58809-0.050403-0.81665-0.2336-0.34951-0.28012-0.3141-0.76884 0.08133-0.98513 0.27519-0.15057 0.5659-0.13359 0.85396-0.047161 0.62907 0.18869 0.98441 0.6671 1.266 1.2185 0.01829 0.039027 0.02247 0.083191 0.01184 0.12496z"/>
</svg>
