<svg width="22" height="22" version="1.1" xmlns="http://www.w3.org/2000/svg">
  <defs>
    <style id="current-color-scheme" type="text/css">.ColorScheme-Text { color:#282828; } .ColorScheme-Highlight { color:#458588; }</style>
  </defs>
  <path class="ColorScheme-Text" d="m7 4v2h8v-2zm-2 3c-0.5 0-1 0.5-1 1v5c0 0.5 0.5 1 1 1h1v-2h4.121c0.5952-1.346 1.927-2.214 3.398-2.215 2.054 1.44e-4 3.719 1.666 3.719 3.721-0.0013 0.1555-0.01243 0.3107-0.0332 0.4648 0.4233-0.1102 0.7949-0.5393 0.7949-0.9707v-5c0-0.5-0.5-1-1-1zm5.801 6.506c0 1.496 1.223 2.719 2.719 2.719 0.4871 0 0.947-0.1484 1.344-0.375 0.0056-0.0037 0.01188-0.0097 0.01758-0.01367l1.965 1.965c0.2647 0.2647 0.6904 0.2647 0.9551 0s0.2647-0.6904 0-0.9551l-1.965-1.965c0.0075-0.0095 0.02035-0.02222 0.02734-0.03125 0.2266-0.3965 0.375-0.8564 0.375-1.344 0-1.496-1.223-2.721-2.719-2.721-1.496-3e-6 -2.719 1.225-2.719 2.721zm2.719-1.721c0.9552 0 1.719 0.7652 1.719 1.721 0 0.9552-0.7633 1.719-1.719 1.719-0.9552 0-1.719-0.7633-1.719-1.719 0-0.9552 0.7633-1.721 1.719-1.721zm-6.52 1.215v5h8v-0.627l-0.3496-0.3496c-0.3643 0.1252-0.7458 0.1931-1.131 0.2012-2.053-1.44e-4 -3.718-1.665-3.719-3.719 2.023e-4 -0.1692 0.01195-0.3382 0.03516-0.5059z" fill="currentColor"/>
</svg>
