<svg width="22" height="22" version="1.1" xmlns="http://www.w3.org/2000/svg">
  <defs>
    <style id="current-color-scheme" type="text/css">.ColorScheme-Text { color:#282828; } .ColorScheme-Highlight { color:#458588; }</style>
  </defs>
  <path class="ColorScheme-Text" d="m4 4v14h8v-2h-2v-2h2v-2h-2v-2h2v-2h-2v-2h2v-2zm9 1v7h1v-0.2812l3-3v2.562l-0.7188 0.7188h1.719v-7h-1v2.281l-3 3v-2.562l2.719-2.719h-1.438l-1.281 1.281v-1.281h-1zm-7 1h2v2h-2zm0 4h2v2h-2zm8 3v4l4-2zm-8 1h2v2h-2z" fill="currentColor"/>
</svg>
