<svg width="22" height="22" version="1.1" xmlns="http://www.w3.org/2000/svg">
  <defs>
    <style id="current-color-scheme" type="text/css">.ColorScheme-Text { color:#282828; } .ColorScheme-Highlight { color:#458588; }</style>
  </defs>
  <path class="ColorScheme-Text" d="m11 4c-2.417 0-4.375 2.021-4.375 4.515 0 1.47 0.6732 2.765 1.737 3.587 0.4851 0.3762 0.8663 0.8664 0.8663 1.54l0.02161 0.8575h3.5l0.02538-0.8575c0.03412-0.6738 0.3771-1.164 0.8628-1.54 1.064-0.8225 1.737-2.117 1.737-3.587 0-2.494-1.958-4.515-4.375-4.515zm0 1.803c1.447 0 2.629 1.216 2.629 2.712 0 0.8488-0.3832 1.636-1.047 2.143-0.9873 0.77-1.362 1.627-1.498 2.345h-0.1696c-0.1362-0.7174-0.5104-1.575-1.498-2.345-0.6639-0.5075-1.047-1.294-1.047-2.143 0-1.496 1.183-2.712 2.63-2.712zm-1.75 9.572v1.75c0 0.875 0.899 0.875 0.899 0.875h1.702s0.9244 0 0.899-0.875v-1.75z" fill="currentColor"/>
</svg>
