<svg width="22" height="22" version="1.1" xmlns="http://www.w3.org/2000/svg">
  <defs>
    <style id="current-color-scheme" type="text/css">.ColorScheme-Text { color:#282828; } .ColorScheme-Highlight { color:#458588; }</style>
  </defs>
  <path class="ColorScheme-Text" d="m12.15 4a1 1 0 0 0-0.9668 0.7422l-1.895 7.074-0.7598-1.316a1 1 0 0 0-0.8652-0.5h-2.662a1 1 0 0 0-1 1v1a1 1 0 0 0 1 1h1.506l2.6 4.5a1 1 0 0 0 1.832-0.2402l2.748-10.26h3.314a1 1 0 0 0 1-1v-1a1 1 0 0 0-1-1z" fill="currentColor"/>
</svg>
