<svg width="22" height="22" version="1.1" xmlns="http://www.w3.org/2000/svg">
  <defs>
    <style id="current-color-scheme" type="text/css">.ColorScheme-Text { color:#282828; } .ColorScheme-Highlight { color:#458588; }</style>
  </defs>
  <path class="ColorScheme-Text" d="m11 4c-1.933 0-3.5 1.567-3.5 3.5s1.567 3.5 3.5 3.5 3.5-1.567 3.5-3.5-1.567-3.5-3.5-3.5zm4 8c-1.657 0-3 1.343-3 3s1.343 3 3 3 3-1.343 3-3-1.343-3-3-3zm-1 1h1.496v1.504h1.504v1.496h-3zm-3-0.9998c-3.557 0.0042-6.555 2.504-7 6h8.357c-0.8622-0.7588-1.357-1.851-1.357-3 0.0033-1.095 0.4551-2.14 1.25-2.893-0.4063-0.0694-0.8243-0.1069-1.25-0.1074z" fill="currentColor"/>
</svg>
