<svg width="22" height="22" version="1.1" xmlns="http://www.w3.org/2000/svg">
  <defs>
    <style id="current-color-scheme" type="text/css">.ColorScheme-Text { color:#282828; } .ColorScheme-Highlight { color:#458588; }</style>
  </defs>
  <path class="ColorScheme-Text" d="m5 4c-0.554 0-1 0.446-1 1v12c0 0.554 0.446 1 1 1h2c0.554 0 1-0.446 1-1v-1h-2v-10h2v-1c0-0.554-0.446-1-1-1zm1 7 3 3v-2h1v-2h-1v-2zm9-7c-0.554 0-1 0.446-1 1v1h2v10h-2v1c0 0.554 0.446 1 1 1h2c0.554 0 1-0.446 1-1v-12c0-0.554-0.446-1-1-1zm1 7-3-3v2h-1v2h1v2z" fill="currentColor"/>
</svg>
