<svg width="22" height="22" version="1.1" xmlns="http://www.w3.org/2000/svg">
  <defs>
    <style id="current-color-scheme" type="text/css">.ColorScheme-Text { color:#282828; } .ColorScheme-Highlight { color:#458588; }</style>
  </defs>
  <path class="ColorScheme-Text" d="m6 4s-2 2e-6 -2 2v5l7 7 7-7-7-7zm1 2c0.5523 0 1 0.4477 1 1s-0.4477 1-1 1-1-0.4477-1-1 0.4477-1 1-1zm3.5 1c1.5 0 2.144 0.1874 3 0.9219v2.699c-0.4095-0.384-1.263-0.9463-2-1.072v2.951c0 0.8285-0.7835 1.5-1.75 1.5s-1.75-0.6715-1.75-1.5 0.7835-1.5 1.75-1.5c0.2595 2.5e-4 0.5157 0.04898 0.75 0.1445v-4.145z" fill="currentColor"/>
</svg>
