<svg width="22" height="22" version="1.1" xmlns="http://www.w3.org/2000/svg">
  <defs>
    <style id="current-color-scheme" type="text/css">.ColorScheme-Text { color:#282828; } .ColorScheme-Highlight { color:#458588; }</style>
  </defs>
  <path class="ColorScheme-Text" d="m9.5 5a4.5 4.5 0 0 0-4.5 4.5 4.5 4.5 0 0 0 4.5 4.5 4.5 4.5 0 0 0 0.5-0.03516v5.035h9v-9h-5.035a4.5 4.5 0 0 0 0.03516-0.5 4.5 4.5 0 0 0-4.5-4.5z" fill="currentColor" opacity=".3"/>
  <path class="ColorScheme-Text" d="m9.5 3a6.5 6.5 0 0 0-6.5 6.5 6.5 6.5 0 0 0 6 6.465v3.035h1v-3.035a6.5 6.5 0 0 0 5.965-5.965h3.035v-1h-3.021a6.5 6.5 0 0 0-6.479-6zm0 2a4.5 4.5 0 0 1 4.5 4.5 4.5 4.5 0 0 1-4.5 4.5 4.5 4.5 0 0 1-4.5-4.5 4.5 4.5 0 0 1 4.5-4.5z" fill="currentColor"/>
</svg>
