<svg width="22" height="22" version="1.1" xmlns="http://www.w3.org/2000/svg">
  <defs>
    <style id="current-color-scheme" type="text/css">.ColorScheme-Text { color:#282828; } .ColorScheme-Highlight { color:#458588; }</style>
  </defs>
  <path class="ColorScheme-Text" d="m11.47 4.002c-1.263 0.07875-2.478 0.4558-3.553 1.088l1.115 1.115c0.1415-0.07101 0.2848-0.1389 0.4316-0.1992zm1.529 0-3.084 3.084 1.053 1.055 2.033-2.033 2.895 2.895-2.033 2.033 1.053 1.053 3.086-3.086zm-7.91 3.916c-0.6322 1.074-1.01 2.288-1.088 3.551l2.006-2.002c0.06038-0.1467 0.1973-0.4336 0.1973-0.4336s-1.117-1.114-1.115-1.115zm-1.088 5.082 5 5.002 3.086-3.086-1.053-1.053-2.033 2.033-2.895-2.895 2.033-2.033-1.054-1.052zm12-0.463c-0.06095 0.1481-0.1272 0.2928-0.1992 0.4355l1.113 1.113c0.6325-1.075 1.01-2.29 1.088-3.553zm-3.459 3.459-2.004 2.006c1.262-0.0787 2.474-0.4584 3.547-1.09 5e-3 0.0014-1.184-1.078-1.184-1.078-0.07055 0.03507-0.2134 0.1019-0.3594 0.1619z" fill="currentColor" opacity=".3"/>
  <path class="ColorScheme-Text" d="m5.422 3.998-1.416 1.414 12.58 12.59 1.416-1.414z" fill="currentColor"/>
</svg>
