<svg width="22" height="22" version="1.1" xmlns="http://www.w3.org/2000/svg">
  <defs>
    <style id="current-color-scheme" type="text/css">.ColorScheme-Text { color:#282828; } .ColorScheme-Highlight { color:#458588; }</style>
  </defs>
  <path class="ColorScheme-Text" d="m9.253 3.999-0.1543 1.844a5.5 5.5 0 0 0-1.607 0.9297l-1.676-0.7891-1.75 3.031 1.521 1.057a5.5 5.5 0 0 0-0.08398 0.9277 5.5 5.5 0 0 0 0.08008 0.9316l-1.518 1.053 1.75 3.031 1.672-0.7871a5.5 5.5 0 0 0 1.611 0.9238l0.1504 1.85h1.752v-5.002a2 2 0 0 1-1.998-2 2 2 0 0 1 2-2 2 2 0 0 1 2 2 2 2 0 0 1-0.6992 1.5h4.932l-0.8203-0.5703a5.5 5.5 0 0 0 0.08398-0.9277 5.5 5.5 0 0 0-0.08008-0.9316l1.518-1.053-1.75-3.031-1.672 0.7871a5.5 5.5 0 0 0-1.611-0.9238l-0.1504-1.85h-3.5zm6.748 9v0.5273c-2.438 0.2329-2.438 1.973-2.438 1.973s-4e-6 1-2 1v1c3 0 3-2 3-2s9.6e-4 -0.8012 1.438-0.9688v0.4688l2-1-2-1zm-4.438 0.5v1c0.7939 0 1.272 0.1559 1.561 0.3457 0.06692-0.2389 0.2082-0.5604 0.5059-0.8555-0.4437-0.2821-1.098-0.4902-2.066-0.4902zm4.438 2.5v0.4688c-0.4104-0.0481-0.705-0.1475-0.9141-0.2656-0.05827 0.2331-0.1892 0.563-0.4824 0.8691 0.3413 0.1928 0.7945 0.3442 1.396 0.4023v0.5254l2-1-2-1z" fill="currentColor"/>
</svg>
