<svg width="22" height="22" version="1.1" xmlns="http://www.w3.org/2000/svg">
  <defs>
    <style id="current-color-scheme" type="text/css">.ColorScheme-Text { color:#282828; } .ColorScheme-Highlight { color:#458588; }</style>
  </defs>
  <path class="ColorScheme-Text" d="m11 4c-3.866 0-7 1.343-7 3v8c0 1.933 3.876 3 7 3 1.076 0 2.091-0.1064 3-0.293v-0.707h-2v-0.6426l-0.4883-0.3652c-0.1722 0.0048-0.3426 0.0078-0.5117 0.0078-2.27 0-5-0.3632-5-1v-1.902c0.7255 0.3175 1.618 0.5636 2.611 0.7188l-2.461-1.846 0.5957-0.4473c-0.4707-0.1522-0.7461-0.3313-0.7461-0.5234v-1.904c0.8261 0.3627 1.847 0.6242 2.957 0.7695h0.00195l2.492-1.871c-0.1486 0.00298-0.2989 0.00586-0.4512 0.00586-2.761 0-5-0.4477-5-1s2.239-1 5-1 5 0.4477 5 1c0 0.4097-1.236 0.7597-3 0.9141v1.939c1.127-0.1546 2.164-0.4297 3-0.7969v2.443l2 1.422v-5.922c0-1.657-3.134-3-7-3zm1 5-4 3 4 3v-2h2v-2h-2zm3 3v2h-2v2h2v2l2-1.5v0.04492c0.1742-0.124 0.3254-0.254 0.457-0.3887l1.543-1.156-4-3z" fill="currentColor"/>
</svg>
