<svg width="16" height="16" version="1.1" xmlns="http://www.w3.org/2000/svg">
 <defs>
  <style type="text/css">.ColorScheme-Text { color:#ebdbb2; } .ColorScheme-Highlight { color:#458588; }</style>
 </defs>
 <g fill="#ebdbb2">
  <g transform="translate(-312 -120)">
   <path class="ColorScheme-Text" d="m315.99 121c-1.2582 0.0145-2.1789-0.0306-2.9316 0.38477-0.37637 0.20766-0.67323 0.55938-0.83789 0.99804-0.16467 0.43867-0.22461 0.95958-0.22461 1.6172v6c0 0.65761 0.0599 1.1785 0.22461 1.6172 0.16467 0.43866 0.46152 0.79039 0.83789 0.99804 0.75275 0.41532 1.6734 0.3702 2.9316 0.38477h8.0119c1.2582-0.0145 2.1789 0.0306 2.9316-0.38477 0.37637-0.20766 0.67322-0.55938 0.83789-0.99804 0.16449-0.43867 0.22443-0.95958 0.22443-1.6172v-6c0-0.65761-0.0599-1.1785-0.22461-1.6172-0.16466-0.43866-0.46152-0.79038-0.83789-0.99804-0.75275-0.41534-1.6734-0.37025-2.9316-0.38477h-8.0079zm6e-3 1h8c1.2585 0.0147 2.0872 0.0598 2.4531 0.26172 0.18341 0.1012 0.28916 0.21274 0.38672 0.47266 0.09743 0.25991 0.16002 0.67323 0.16002 1.2656v6c0 0.59239-0.0626 1.0057-0.16016 1.2656-0.0976 0.25991-0.20331 0.37147-0.38672 0.47266-0.36595 0.20191-1.1946 0.24701-2.4531 0.26172h-8c-1.2585-0.0147-2.0891-0.0598-2.4551-0.26172-0.18341-0.10119-0.2872-0.21275-0.38476-0.47266-0.09757-0.2599-0.16016-0.67323-0.16016-1.2656v-6c0-0.59239 0.0626-1.0057 0.16016-1.2656 0.0976-0.25991 0.20135-0.37147 0.38476-0.47266 0.36596-0.20191 1.1966-0.24701 2.4551-0.26172z"/>
   <path class="ColorScheme-Text" d="m318 132h4v1.5c0 1.5 0.5 1.5 1.5 1.5h0.5v1h-8v-1h0.5c1 0 1.5 0 1.5-1.5z"/>
  </g>
 </g>
 <g fill="#ebdbb2" stroke-width=".41946">
  <circle class="ColorScheme-Text" cx="7.4625" cy="5.5445" r="1.5486" color="#ebdbb2" opacity=".2" vector-effect="non-scaling-stroke" style="isolation:isolate"/>
  <circle class="ColorScheme-Text" cx="7.4625" cy="5.5445" r="1.0327" color="#ebdbb2" opacity=".2" vector-effect="non-scaling-stroke" style="isolation:isolate"/>
  <path class="ColorScheme-Text" d="m7.4765 5.2467c-0.51677 0-0.51677 0.34395-0.51803 0.68833-0.00336 0.21266-0.00252 0.65645 0.00126 1.3116 0.00671 1.0465 0.00461 1.3754-0.00797 1.4203-0.35696-0.037751-0.89638-0.18204-1.138-0.3729-0.15772-0.12542-0.31459-0.23993-0.34773-0.25503-0.13842-0.06124-0.33515-0.022651-0.44798 0.088925-0.078019 0.07718-0.10654 0.14597-0.11367 0.26971-0.00503 0.094378-0.0021 0.11661 0.026845 0.17953 0.018456 0.039429 0.051593 0.09228 0.073405 0.11745 0.021812 0.025167 0.32256 0.41484 0.66777 0.8666 0.63967 0.83598 1.276 1.1464 1.3855 1.1774 0.067113 0.0193 3.5239 0.01971 3.5935 8.39e-4 0.03146-0.0088 0.07718-0.03775 0.10948-0.07005 0.04572-0.0453 0.06292-0.07844 0.09815-0.1875 0.10151-0.31291 0.2026-0.789 0.23154-1.0533 0.01258-0.30746 0.0059-0.31921 0-0.56836 0-0.00461-0.0013-0.00881-0.0013-0.013423 4.19e-4 -0.22105 0.0017-0.40813 0-0.50251 8.39e-4 -0.34437 0.0017-0.68833-0.51383-0.68833-0.46518 0-0.5088 0.28187-0.51383 0.58934-8.39e-4 0.00839-0.0034 0.016778-0.0034 0.024748 0-0.083052 8.39e-4 -0.21938 0-0.27013 8.39e-4 -0.34395 8.39e-4 -0.68833-0.51467-0.68833-0.46224 0-0.50796 0.27852-0.51383 0.58346-0.00126 8.389e-4 -0.00252 0.00126-0.00378 0.0021 0-0.00168-8.39e-4 -0.018456-8.39e-4 -0.022231 0-0.06166 8.39e-4 -0.17785 0-0.21896 0.00126-0.34437 0.00126-0.68833-0.51425-0.68833-0.39219 0-0.48615 0.19882-0.50922 0.44546-8.389e-4 0-0.00881 0.0021-0.00881 0.0021-0.00755 0.00252-0.00126-0.4182-0.00126-0.87121 0-0.3104 0.0021-0.49454 0-0.60905 8.39e-4 -0.34437 0.00126-0.68833-0.51509-0.68833z" color="#ebdbb2" style="isolation:isolate"/>
 </g>
</svg>
