<svg xmlns="http://www.w3.org/2000/svg" style="isolation:isolate" width="16" height="16" viewBox="0 0 16 16">
 <defs>
  <style id="current-color-scheme" type="text/css">
   .ColorScheme-Text { color:#ebdbb2; } .ColorScheme-Highlight { color:#458588; }
  </style>
  <linearGradient id="arrongin" x1="0%" x2="0%" y1="0%" y2="100%">
   <stop offset="0%" style="stop-color:#d79921; stop-opacity:1"/>
   <stop offset="100%" style="stop-color:#b57614; stop-opacity:1"/>
  </linearGradient>
  <linearGradient id="aurora" x1="0%" x2="0%" y1="0%" y2="100%">
   <stop offset="0%" style="stop-color:#83a598; stop-opacity:1"/>
   <stop offset="100%" style="stop-color:#b16286; stop-opacity:1"/>
  </linearGradient>
  <linearGradient id="fitdance" x1="0%" x2="0%" y1="0%" y2="100%">
   <stop offset="0%" style="stop-color:#8ec07c; stop-opacity:1"/>
   <stop offset="100%" style="stop-color:#458588; stop-opacity:1"/>
  </linearGradient>
  <linearGradient id="oomox" x1="0%" x2="0%" y1="0%" y2="100%">
   <stop offset="0%" style="stop-color:#458588; stop-opacity:1"/>
   <stop offset="100%" style="stop-color:#928374; stop-opacity:1"/>
  </linearGradient>
  <linearGradient id="rainblue" x1="0%" x2="0%" y1="0%" y2="100%">
   <stop offset="0%" style="stop-color:#b8bb26; stop-opacity:1"/>
   <stop offset="100%" style="stop-color:#076678; stop-opacity:1"/>
  </linearGradient>
  <linearGradient id="sunrise" x1="0%" x2="0%" y1="0%" y2="100%">
   <stop offset="0%" style="stop-color: #fe8019; stop-opacity:1"/>
   <stop offset="100%" style="stop-color: #fabd2f; stop-opacity:1"/>
  </linearGradient>
  <linearGradient id="telinkrin" x1="0%" x2="0%" y1="0%" y2="100%">
   <stop offset="0%" style="stop-color: #83a598; stop-opacity:1"/>
   <stop offset="100%" style="stop-color: #83a598; stop-opacity:1"/>
  </linearGradient>
  <linearGradient id="60spsycho" x1="0%" x2="0%" y1="0%" y2="100%">
   <stop offset="0%" style="stop-color: #fb4934; stop-opacity:1"/>
   <stop offset="25%" style="stop-color: #fabd2f; stop-opacity:1"/>
   <stop offset="50%" style="stop-color: #fe8019; stop-opacity:1"/>
   <stop offset="100%" style="stop-color: #689d6a; stop-opacity:1"/>
  </linearGradient>
  <linearGradient id="90ssummer" x1="0%" x2="0%" y1="0%" y2="100%">
   <stop offset="0%" style="stop-color: #b16286; stop-opacity:1"/>
   <stop offset="20%" style="stop-color: #8ec07c; stop-opacity:1"/>
   <stop offset="50%" style="stop-color: #fabd2f; stop-opacity:1"/>
   <stop offset="100%" style="stop-color: #458588; stop-opacity:1"/>
  </linearGradient>
  <linearGradient id="cyberneon" x1="0%" x2="0%" y1="0%" y2="100%">
    <stop offset="0" style="stop-color:#83a598; stop-opacity:1"/>
    <stop offset="1" style="stop-color:#b16286; stop-opacity:1"/>
  </linearGradient>
  <clipPath id="_clipPath_jV4d164GA7fcOuQ3lcXiMVoXkIHN6rjO">
   <rect width="16" height="16"/>
  </clipPath>
 </defs>
 <g clip-path="url(#_clipPath_jV4d164GA7fcOuQ3lcXiMVoXkIHN6rjO)">
  <rect style="fill:currentColor" class="ColorScheme-Text" width="4.625" height="3.594" x="18.19" y="-.16" transform="matrix(1,0,0,1,0,0)"/>
  <path style="fill:currentColor" class="ColorScheme-Text" d="M 8 1 C 4.138 1 1 4.138 1 8 C 1 11.862 4.138 15 8 15 C 11.862 15 15 11.862 15 8 C 15 4.138 11.862 1 8 1 L 8 1 Z M 8 1.666 C 11.502 1.666 14.333 4.498 14.333 8 C 14.333 11.502 11.502 14.334 8 14.334 C 4.498 14.334 1.667 11.502 1.667 8 C 1.667 4.498 4.498 1.666 8 1.666 L 8 1.666 Z M 8 3.333 C 7.646 3.333 7.307 3.474 7.057 3.724 C 6.807 3.974 6.666 4.313 6.666 4.667 C 6.666 5.02 6.807 5.36 7.057 5.61 C 7.307 5.86 7.646 6 8 6 C 8.353 6 8.693 5.86 8.943 5.61 C 9.193 5.36 9.333 5.02 9.333 4.667 C 9.333 4.313 9.193 3.974 8.943 3.724 C 8.693 3.474 8.353 3.333 8 3.333 L 8 3.333 Z M 4 6.667 L 4 7.333 L 4.826 7.335 C 5.174 7.335 5.469 7.385 5.712 7.491 C 5.951 7.591 6.147 7.737 6.29 7.928 C 6.438 8.112 6.54 8.333 6.598 8.586 C 6.656 8.84 6.664 9.11 6.682 9.394 L 6.682 9.398 L 6.676 12.667 L 7.333 12.667 L 7.333 10.334 C 7.333 9.965 7.632 9.667 8 9.667 C 8.368 9.667 8.667 9.965 8.667 10.334 L 8.667 12.667 L 9.333 12.667 L 9.339 9.402 C 9.34 9.107 9.367 8.835 9.424 8.586 C 9.482 8.332 9.584 8.111 9.732 7.927 C 9.876 7.736 10.072 7.59 10.31 7.491 C 10.553 7.385 10.897 7.335 11.195 7.335 L 12 7.335 L 12 6.667 L 4 6.667 Z"/>
 </g>
</svg>
