<svg xmlns="http://www.w3.org/2000/svg" width="16" height="16" version="1.1" viewBox="0 0 4.23 4.23">
<defs>
  <style id="current-color-scheme" type="text/css">
   .ColorScheme-Text { color:#ebdbb2; } .ColorScheme-Highlight { color:#458588; }
  </style>
  <linearGradient id="arrongin" x1="0%" x2="0%" y1="0%" y2="100%">
   <stop offset="0%" style="stop-color:#d79921; stop-opacity:1"/>
   <stop offset="100%" style="stop-color:#b57614; stop-opacity:1"/>
  </linearGradient>
  <linearGradient id="aurora" x1="0%" x2="0%" y1="0%" y2="100%">
   <stop offset="0%" style="stop-color:#83a598; stop-opacity:1"/>
   <stop offset="100%" style="stop-color:#b16286; stop-opacity:1"/>
  </linearGradient>
  <linearGradient id="fitdance" x1="0%" x2="0%" y1="0%" y2="100%">
   <stop offset="0%" style="stop-color:#8ec07c; stop-opacity:1"/>
   <stop offset="100%" style="stop-color:#458588; stop-opacity:1"/>
  </linearGradient>
  <linearGradient id="oomox" x1="0%" x2="0%" y1="0%" y2="100%">
   <stop offset="0%" style="stop-color:#458588; stop-opacity:1"/>
   <stop offset="100%" style="stop-color:#928374; stop-opacity:1"/>
  </linearGradient>
  <linearGradient id="rainblue" x1="0%" x2="0%" y1="0%" y2="100%">
   <stop offset="0%" style="stop-color:#b8bb26; stop-opacity:1"/>
   <stop offset="100%" style="stop-color:#076678; stop-opacity:1"/>
  </linearGradient>
  <linearGradient id="sunrise" x1="0%" x2="0%" y1="0%" y2="100%">
   <stop offset="0%" style="stop-color: #fe8019; stop-opacity:1"/>
   <stop offset="100%" style="stop-color: #fabd2f; stop-opacity:1"/>
  </linearGradient>
  <linearGradient id="telinkrin" x1="0%" x2="0%" y1="0%" y2="100%">
   <stop offset="0%" style="stop-color: #83a598; stop-opacity:1"/>
   <stop offset="100%" style="stop-color: #83a598; stop-opacity:1"/>
  </linearGradient>
  <linearGradient id="60spsycho" x1="0%" x2="0%" y1="0%" y2="100%">
   <stop offset="0%" style="stop-color: #fb4934; stop-opacity:1"/>
   <stop offset="25%" style="stop-color: #fabd2f; stop-opacity:1"/>
   <stop offset="50%" style="stop-color: #fe8019; stop-opacity:1"/>
   <stop offset="100%" style="stop-color: #689d6a; stop-opacity:1"/>
  </linearGradient>
  <linearGradient id="90ssummer" x1="0%" x2="0%" y1="0%" y2="100%">
   <stop offset="0%" style="stop-color: #b16286; stop-opacity:1"/>
   <stop offset="20%" style="stop-color: #8ec07c; stop-opacity:1"/>
   <stop offset="50%" style="stop-color: #fabd2f; stop-opacity:1"/>
   <stop offset="100%" style="stop-color: #458588; stop-opacity:1"/>
  </linearGradient>
  <linearGradient id="cyberneon" x1="0%" x2="0%" y1="0%" y2="100%">
    <stop offset="0" style="stop-color:#83a598; stop-opacity:1"/>
    <stop offset="1" style="stop-color:#b16286; stop-opacity:1"/>
  </linearGradient>
 </defs>
 <g transform="translate(0,-292.76665)">
  <path style="fill:currentColor" class="ColorScheme-Text" fill-rule="evenodd" d="m 0,292.76665 c 0.5150507,0.54249 0.2915498,0.88953 0.5741465,1.52847 0.26224946,0.59294 0.8331162,0.14912 1.2239394,0.56833 -0.3908214,0.4192 -0.96363244,-0.0266 -1.2258801,0.56638 -0.2825951,0.63895 -0.057157,0.98792 -0.5722058,1.53041 0.5424884,-0.51505 0.89146426,-0.28961 1.5304089,-0.5722 0.5929412,-0.26225 0.149121,-0.83312 0.5683291,-1.22394 0.4162217,0.39087 -0.025832,0.96395 0.5663868,1.22588 0.6390851,0.28266 0.985861,0.0551 1.5284679,0.57026 -0.5151625,-0.5426 -0.2876089,-0.88938 -0.5702665,-1.52846 -0.2619293,-0.59222 -0.833072,-0.15211 -1.2239393,-0.56833 0.3908673,-0.41623 0.96201,0.0239 1.2239393,-0.56833 0.2826592,-0.63909 0.055102,-0.98586 0.5702665,-1.52847 -0.5426088,0.51516 -0.8893844,0.28761 -1.5284679,0.57027 -0.5922191,0.26193 -0.1501651,0.83501 -0.5663868,1.22588 C 1.6795315,294.17197 2.12335,293.60111 1.5304089,293.33886 0.89146426,293.05626 0.5424884,293.28166 0,292.76665 Z"/>
 </g>
</svg>
