<svg xmlns="http://www.w3.org/2000/svg" style="isolation:isolate" width="16" height="16" viewBox="0 0 16 16">
 <defs>
  <style id="current-color-scheme" type="text/css">
   .ColorScheme-Text { color:#ebdbb2; } .ColorScheme-Highlight { color:#458588; }
  </style>
  <linearGradient id="arrongin" x1="0%" x2="0%" y1="0%" y2="100%">
   <stop offset="0%" style="stop-color:#d79921; stop-opacity:1"/>
   <stop offset="100%" style="stop-color:#b57614; stop-opacity:1"/>
  </linearGradient>
  <linearGradient id="aurora" x1="0%" x2="0%" y1="0%" y2="100%">
   <stop offset="0%" style="stop-color:#83a598; stop-opacity:1"/>
   <stop offset="100%" style="stop-color:#b16286; stop-opacity:1"/>
  </linearGradient>
  <linearGradient id="fitdance" x1="0%" x2="0%" y1="0%" y2="100%">
   <stop offset="0%" style="stop-color:#8ec07c; stop-opacity:1"/>
   <stop offset="100%" style="stop-color:#458588; stop-opacity:1"/>
  </linearGradient>
  <linearGradient id="oomox" x1="0%" x2="0%" y1="0%" y2="100%">
   <stop offset="0%" style="stop-color:#458588; stop-opacity:1"/>
   <stop offset="100%" style="stop-color:#928374; stop-opacity:1"/>
  </linearGradient>
  <linearGradient id="rainblue" x1="0%" x2="0%" y1="0%" y2="100%">
   <stop offset="0%" style="stop-color:#b8bb26; stop-opacity:1"/>
   <stop offset="100%" style="stop-color:#076678; stop-opacity:1"/>
  </linearGradient>
  <linearGradient id="sunrise" x1="0%" x2="0%" y1="0%" y2="100%">
   <stop offset="0%" style="stop-color: #fe8019; stop-opacity:1"/>
   <stop offset="100%" style="stop-color: #fabd2f; stop-opacity:1"/>
  </linearGradient>
  <linearGradient id="telinkrin" x1="0%" x2="0%" y1="0%" y2="100%">
   <stop offset="0%" style="stop-color: #83a598; stop-opacity:1"/>
   <stop offset="100%" style="stop-color: #83a598; stop-opacity:1"/>
  </linearGradient>
  <linearGradient id="60spsycho" x1="0%" x2="0%" y1="0%" y2="100%">
   <stop offset="0%" style="stop-color: #fb4934; stop-opacity:1"/>
   <stop offset="25%" style="stop-color: #fabd2f; stop-opacity:1"/>
   <stop offset="50%" style="stop-color: #fe8019; stop-opacity:1"/>
   <stop offset="100%" style="stop-color: #689d6a; stop-opacity:1"/>
  </linearGradient>
  <linearGradient id="90ssummer" x1="0%" x2="0%" y1="0%" y2="100%">
   <stop offset="0%" style="stop-color: #b16286; stop-opacity:1"/>
   <stop offset="20%" style="stop-color: #8ec07c; stop-opacity:1"/>
   <stop offset="50%" style="stop-color: #fabd2f; stop-opacity:1"/>
   <stop offset="100%" style="stop-color: #458588; stop-opacity:1"/>
  </linearGradient>
  <linearGradient id="cyberneon" x1="0%" x2="0%" y1="0%" y2="100%">
    <stop offset="0" style="stop-color:#83a598; stop-opacity:1"/>
    <stop offset="1" style="stop-color:#b16286; stop-opacity:1"/>
  </linearGradient>
 </defs>
 <path style="fill:currentColor" class="ColorScheme-Text" d="M 1.41 5.603 L 1.41 7.577 L 0 7.577 C -0.001 7.704 0.002 8.27 0 8.423 L 1.41 8.423 L 1.41 10.397 L 2.256 10.397 L 2.256 5.603 L 1.41 5.603 Z M 5.217 5.603 C 3.893 5.603 2.82 6.676 2.82 8 C 2.82 9.324 3.893 10.397 5.217 10.397 C 6.541 10.397 7.614 9.324 7.614 8 C 7.614 6.676 6.541 5.603 5.217 5.603 Z M 10.575 5.603 C 9.251 5.603 8.178 6.676 8.178 8 C 8.178 9.324 9.251 10.397 10.575 10.397 C 11.899 10.397 12.972 9.324 12.972 8 C 12.972 6.676 11.899 5.603 10.575 5.603 Z M 13.536 5.603 L 13.536 10.397 L 14.382 10.397 L 14.382 8.735 L 15.999 10.128 C 15.999 9.76 15.999 9.343 16 9.029 L 14.75 8.009 L 15.999 6.796 C 15.999 6.469 15.999 6.015 15.999 5.68 L 14.382 7.287 L 14.382 5.603 L 13.536 5.603 Z M 10.622 6.355 C 11.504 6.355 12.22 7.071 12.22 7.953 C 12.22 8.836 11.504 9.551 10.622 9.551 C 9.739 9.551 9.024 8.836 9.024 7.953 C 9.024 7.071 9.739 6.355 10.622 6.355 Z M 5.217 6.449 C 6.073 6.449 6.768 7.143 6.768 8 C 6.768 8.857 6.073 9.551 5.217 9.551 C 4.36 9.551 3.666 8.857 3.666 8 C 3.666 7.143 4.36 6.449 5.217 6.449 Z"/>
</svg>
