<svg xmlns="http://www.w3.org/2000/svg" width="16" height="16" version="1.1">
<defs>
  <style id="current-color-scheme" type="text/css">
   .ColorScheme-Text { color:#ebdbb2; } .ColorScheme-Highlight { color:#458588; }
  </style>
  <linearGradient id="arrongin" x1="0%" x2="0%" y1="0%" y2="100%">
   <stop offset="0%" style="stop-color:#d79921; stop-opacity:1"/>
   <stop offset="100%" style="stop-color:#b57614; stop-opacity:1"/>
  </linearGradient>
  <linearGradient id="aurora" x1="0%" x2="0%" y1="0%" y2="100%">
   <stop offset="0%" style="stop-color:#83a598; stop-opacity:1"/>
   <stop offset="100%" style="stop-color:#b16286; stop-opacity:1"/>
  </linearGradient>
  <linearGradient id="fitdance" x1="0%" x2="0%" y1="0%" y2="100%">
   <stop offset="0%" style="stop-color:#8ec07c; stop-opacity:1"/>
   <stop offset="100%" style="stop-color:#458588; stop-opacity:1"/>
  </linearGradient>
  <linearGradient id="oomox" x1="0%" x2="0%" y1="0%" y2="100%">
   <stop offset="0%" style="stop-color:#458588; stop-opacity:1"/>
   <stop offset="100%" style="stop-color:#928374; stop-opacity:1"/>
  </linearGradient>
  <linearGradient id="rainblue" x1="0%" x2="0%" y1="0%" y2="100%">
   <stop offset="0%" style="stop-color:#b8bb26; stop-opacity:1"/>
   <stop offset="100%" style="stop-color:#076678; stop-opacity:1"/>
  </linearGradient>
  <linearGradient id="sunrise" x1="0%" x2="0%" y1="0%" y2="100%">
   <stop offset="0%" style="stop-color: #fe8019; stop-opacity:1"/>
   <stop offset="100%" style="stop-color: #fabd2f; stop-opacity:1"/>
  </linearGradient>
  <linearGradient id="telinkrin" x1="0%" x2="0%" y1="0%" y2="100%">
   <stop offset="0%" style="stop-color: #83a598; stop-opacity:1"/>
   <stop offset="100%" style="stop-color: #83a598; stop-opacity:1"/>
  </linearGradient>
  <linearGradient id="60spsycho" x1="0%" x2="0%" y1="0%" y2="100%">
   <stop offset="0%" style="stop-color: #fb4934; stop-opacity:1"/>
   <stop offset="25%" style="stop-color: #fabd2f; stop-opacity:1"/>
   <stop offset="50%" style="stop-color: #fe8019; stop-opacity:1"/>
   <stop offset="100%" style="stop-color: #689d6a; stop-opacity:1"/>
  </linearGradient>
  <linearGradient id="90ssummer" x1="0%" x2="0%" y1="0%" y2="100%">
   <stop offset="0%" style="stop-color: #b16286; stop-opacity:1"/>
   <stop offset="20%" style="stop-color: #8ec07c; stop-opacity:1"/>
   <stop offset="50%" style="stop-color: #fabd2f; stop-opacity:1"/>
   <stop offset="100%" style="stop-color: #458588; stop-opacity:1"/>
  </linearGradient>
  <linearGradient id="cyberneon" x1="0%" x2="0%" y1="0%" y2="100%">
    <stop offset="0" style="stop-color:#83a598; stop-opacity:1"/>
    <stop offset="1" style="stop-color:#b16286; stop-opacity:1"/>
  </linearGradient>
 </defs>
 <g label="status" transform="translate(-1013.0002,-73.12132)">
  <path d="m 1014.9898,82.18198 c -1.3711,1.37108 -1.3711,3.57867 0,4.94975 1.3711,1.37108 3.5787,1.37108 4.9497,0 l 0.3536,-0.35356 -0.7071,-0.7071 -0.3536,0.35355 c -0.9793,0.97934 -2.5562,0.97934 -3.5355,0 -0.9793,-0.97934 -0.9793,-2.55619 0,-3.53553 l 7.0711,-7.07107 c 0.9793,-0.97934 2.5562,-0.97934 3.5355,0 0.9793,0.97934 0.9793,2.55619 0,3.53553 l -0.7126,0.71263 -2.4694,2.46935 -0.2071,0.20716 -0.8535,0.8535 c -0.5877,0.58761 -1.5338,0.58761 -2.1214,0 -0.5876,-0.5876 -0.5876,-1.53371 0,-2.12132 l 1.0607,-1.06066 0.7071,-0.7071 -0.7071,-0.70711 -1.7678,1.76777 c -0.9793,0.97934 -0.9793,2.55619 0,3.53553 0.9794,0.97934 2.5562,0.97934 3.5356,0 l 0.8535,-0.8535 1.2678,-1.26782 2.1213,-2.12132 c 1.3711,-1.37108 1.3711,-3.57867 0,-4.94975 -1.3711,-1.37108 -3.5787,-1.37108 -4.9497,0 z" style="fill:currentColor" class="ColorScheme-Text"/>
 </g>
</svg>
