<?xml version="1.0" encoding="UTF-8" standalone="no"?>
<svg
   id="svg67"
   width="16"
   height="16"
   version="1.1"
   sodipodi:docname="PrusaSlicer-gcodeviewer.svg"
   inkscape:version="1.1.1 (3bf5ae0d25, 2021-09-20)"
   xmlns:inkscape="http://www.inkscape.org/namespaces/inkscape"
   xmlns:sodipodi="http://sodipodi.sourceforge.net/DTD/sodipodi-0.dtd"
   xmlns="http://www.w3.org/2000/svg"
   xmlns:svg="http://www.w3.org/2000/svg">
  <sodipodi:namedview
     id="namedview8"
     pagecolor="#505050"
     bordercolor="#ffffff"
     borderopacity="1"
     inkscape:pageshadow="0"
     inkscape:pageopacity="0"
     inkscape:pagecheckerboard="1"
     showgrid="false"
     inkscape:zoom="49.0625"
     inkscape:cx="8"
     inkscape:cy="8"
     inkscape:window-width="1920"
     inkscape:window-height="1022"
     inkscape:window-x="0"
     inkscape:window-y="1110"
     inkscape:window-maximized="1"
     inkscape:current-layer="svg67" />
  <defs
     id="defs61">
    <style
       id="current-color-scheme"
       type="text/css">.ColorScheme-Text { color:#ebdbb2; } .ColorScheme-Highlight { color:#458588; }</style>
  </defs>
  <path
     id="path4"
     d="m 3.5228849,11.03745 c 0.015844,0.01959 0.031687,0.03895 0.047751,0.05831 0.010342,0.01254 0.020685,0.02487 0.031247,0.03719 0.1280691,0.152715 0.2633999,0.301468 0.4068725,0.444941 L 13.600515,1.9861336 C 13.123226,1.5088451 12.592026,1.1178163 12.027157,0.81260695 c -0.01012,-0.005501 -0.02046,-0.0112226 -0.03059,-0.0165038 -0.02883,-0.0154035 -0.05787,-0.030587 -0.08714,-0.0455503 -0.01276,-0.006602 -0.02553,-0.012983 -0.03807,-0.0193644 -0.02949,-0.0149634 -0.05919,-0.0299268 -0.0889,-0.0444501 C 11.260283,0.4317004 10.712138,0.2477386 10.152551,0.13485295 10.045607,0.11328805 9.9382226,0.09436375 9.8306181,0.07786 h -2.2e-4 C 9.7767058,0.06971815 9.7227936,0.06223645 9.6688814,0.05519485 H 9.6686613 C 9.614749,0.0483733 9.5606168,0.04199185 9.5064845,0.0364906 9.3247232,0.01778635 9.1425218,0.00590365 8.9601003,0.0017227 8.9169705,8.425e-4 8.8738407,4.024e-4 8.8309309,1.8235e-4 c -0.0088,0 -0.017384,-2.2005e-4 -0.026186,-2.2005e-4 -0.0066,0 -0.013423,2.2005e-4 -0.020025,2.2005e-4 -0.039169,2.2005e-4 -0.078558,6.6015e-4 -0.1177267,0.0013203 -0.021125,4.401e-4 -0.04225,0.00110025 -0.063374,0.0017604 C 8.5809541,0.0039232 8.5585091,0.0048034 8.5358439,0.0056836 8.4953547,0.00722395 8.4550855,0.0092044 8.4148164,0.01162495 8.4024936,0.0122851 8.3901708,0.0131653 8.377848,0.01382545 8.0457925,0.0347302 7.7150574,0.0796204 7.3882831,0.1491562 7.3398721,0.15949855 7.2916812,0.170281 7.2434902,0.1817236 c -0.00308,6.6015e-4 -0.00616,0.00132 -0.00924,0.0022 -0.046431,0.0110025 -0.092861,0.0226651 -0.1392916,0.0345478 -0.0044,0.0011 -0.0088,0.0022 -0.013423,0.003521 -0.04555,0.0118827 -0.091101,0.0244256 -0.136431,0.0374085 -0.00484,0.00132 -0.00968,0.002641 -0.014743,0.004181 -0.04533,0.0129829 -0.090661,0.0266261 -0.1357709,0.0404892 -0.00462,0.00132 -0.00924,0.002861 -0.013863,0.004181 -0.04555,0.0143032 -0.091101,0.0288266 -0.136431,0.04401 -0.00396,0.00132 -0.0077,0.002641 -0.011663,0.003961 -0.04599,0.0156235 -0.091981,0.0314672 -0.1377513,0.0479709 -0.00286,0.0011 -0.00572,0.002201 -0.0088,0.003081 -0.046651,0.0169438 -0.093301,0.0343278 -0.1397317,0.0523719 -0.00154,6.6015e-4 -0.00308,0.00132 -0.00484,0.00176 -0.047751,0.0184842 -0.095282,0.0376286 -0.1425924,0.057213 -0.7327665,0.3045492 -1.4230634,0.7428887 -2.033262,1.3156789 -0.020685,0.019364 -0.041149,0.038949 -0.061614,0.058533 -0.032127,0.030807 -0.064035,0.061834 -0.095722,0.093301 C 3.976848,2.0176007 3.9458209,2.049508 3.915234,2.0816353 3.3633486,2.6553056 2.9322706,3.3020326 2.6217801,3.9901289 2.5764498,4.0906918 2.53354,4.1919148 2.4934909,4.294238 2.4895309,4.304138 2.4855709,4.314263 2.4818279,4.324165 2.4699449,4.354972 2.4580629,4.385779 2.4463999,4.416806 2.0969605,5.3581799 1.9636102,6.3613878 2.046129,7.3500725 2.071435,7.651541 2.116325,7.9519093 2.1816798,8.2485366 c 0.0088,0.039829 0.018044,0.079438 0.027506,0.1192671 0.00418,0.017384 0.00836,0.034548 0.012543,0.051932 0.00902,0.036088 0.018264,0.072176 0.027726,0.1082646 0.00594,0.022665 0.012103,0.04511 0.018484,0.067555 0.00506,0.018044 0.010122,0.036088 0.015404,0.054132 0.012323,0.04291 0.024866,0.0856 0.038069,0.1282892 l 0.00792,0.025746 c 0.017384,0.055893 0.035428,0.1115654 0.054352,0.167018 0.2367738,0.6962382 0.5895139,1.3616695 1.0588806,1.9659265 0.026626,0.03367 0.053252,0.06734 0.080318,0.100783 z M 4.3491726,2.485207 4.9248234,2.8689742 V 4.0048723 L 3.7735218,4.7724067 3.197871,4.3886395 2.9881634,4.2489077 C 3.285891,3.5641121 3.6998051,2.943131 4.2204434,2.3993875 Z M 8.8243295,0.4400623 9.0390983,0.58331485 V 1.7192129 L 7.8877967,2.4867473 6.8722659,1.8096535 6.7364951,1.7192129 V 0.7851007 C 7.400826,0.55602865 8.0950838,0.43984225 8.804745,0.43984225 c 0.00638,-2.2005e-4 0.012983,0 0.019584,2.2005e-4 z m 2.0264405,3.56481 V 2.8689742 L 12.002072,2.1014398 12.518309,2.445598 10.915685,4.0482221 Z M 7.941929,7.0221979 7.8877966,7.0582861 6.736275,6.2907517 V 5.1548536 L 7.8875766,4.3873192 9.0388782,5.1548536 v 0.770175 z M 3.9933518,10.86229 V 9.7263924 L 5.1446534,8.958858 5.6608907,9.3030162 4.0582665,10.90564 Z M 5.9405742,8.9601783 5.3649234,8.5764111 V 7.440513 L 6.516225,6.6729786 7.5810469,7.3828599 5.9784228,8.985484 Z M 10.41067,4.0048723 9.2593683,4.7724067 8.1080667,4.0048723 V 2.8689742 L 9.2593683,2.1014398 10.41067,2.8689742 Z m 0.05875,0.4898313 -0.9902247,0.990225 V 5.1548536 Z M 6.516225,2.1014398 7.6675266,2.8689742 V 4.0048723 L 6.516225,4.7724067 5.3649234,4.0048723 V 2.8689742 Z M 5.7205242,4.7708664 6.296175,5.1548536 V 6.2907517 L 5.1448734,7.0582861 3.9935718,6.2907517 V 5.1548536 L 5.1448734,4.3873192 Z M 4.3491726,7.0567457 4.9248234,7.440513 V 8.576411 L 3.7735218,9.3439454 3.197871,8.9601782 2.7452282,8.6582696 C 2.6985776,8.5070953 2.6574282,8.3546006 2.6222202,8.2007857 V 7.4402929 L 3.7735218,6.6727585 Z M 3.5532517,9.7263924 V 10.341212 C 3.3435441,10.032702 3.1622229,9.7065879 3.0099483,9.3641901 Z M 12.835841,2.1282859 12.222122,1.7192129 v -0.281664 c 0.260979,0.167238 0.509635,0.3538404 0.745309,0.5593671 z M 11.191407,0.90414775 c 0.202446,0.0820786 0.399391,0.17405955 0.590835,0.27572265 V 1.7192129 L 10.63094,2.4867474 9.4796384,1.719213 V 0.58331485 L 9.6171696,0.491554 C 10.156512,0.5604297 10.683532,0.69818095 11.191407,0.90414775 Z M 6.296175,0.95519935 V 1.7192129 L 5.1448734,2.4867474 4.5692226,2.1029802 4.5425966,2.0851561 C 5.063675,1.6111684 5.6520887,1.2320223 6.296175,0.95519935 Z M 2.977601,4.7708664 3.5532518,5.1546335 V 6.2905316 L 2.4668649,7.0149362 c -0.00286,-0.077458 -0.00462,-0.1551352 -0.00462,-0.2330329 0,-0.7259449 0.1214676,-1.4356062 0.361102,-2.1140203 z"
     style="fill:#ebdbb2;stroke-width:0.022005" />
  <path
     id="path6"
     d="m 13.444279,11.857357 c 0.0068,-0.01628 0.01386,-0.03279 0.02069,-0.04907 0.01122,-0.02729 0.02223,-0.05457 0.03323,-0.08186 0.0066,-0.0165 0.01298,-0.03301 0.01937,-0.04973 0.338217,-0.871177 0.489831,-1.797808 0.454843,-2.7189373 -4.4e-4,-0.00924 -6.6e-4,-0.018704 -0.0011,-0.028166 -0.0018,-0.041149 -0.004,-0.082299 -0.0064,-0.123448 l -6.61e-4,-0.012543 c -0.0026,-0.04379 -0.0059,-0.08758 -0.0095,-0.1311498 -0.02729,-0.3335958 -0.079,-0.6654312 -0.155355,-0.9928656 -0.01276,-0.054792 -0.02619,-0.1095849 -0.04049,-0.1641573 -0.01408,-0.054352 -0.02883,-0.1082646 -0.04423,-0.1623969 -2.2e-4,-4.401e-4 -2.2e-4,-0.0011 -4.4e-4,-0.00154 -0.0154,-0.053472 -0.03147,-0.1069443 -0.04797,-0.1601964 -2.2e-4,-8.802e-4 -4.4e-4,-0.00154 -6.6e-4,-0.00242 -0.01694,-0.053692 -0.03433,-0.1071644 -0.05259,-0.1606365 C 13.375362,6.3226621 13.021521,5.6581111 12.551274,5.054734 12.527064,5.023707 12.502424,4.9929 12.477554,4.962093 12.459954,4.940308 12.442124,4.918523 12.424084,4.896958 12.414384,4.885295 12.404724,4.873853 12.395034,4.86241 12.268065,4.7110156 12.133834,4.5638022 11.991462,4.4214298 L 11.560651,4.8522848 9.715752,6.696964 2.3995296,14.013186 c 0.4167747,0.416775 0.8742587,0.767755 1.3594689,1.05338 0.039169,0.0231 0.078338,0.04555 0.1179468,0.06777 0.018924,0.01056 0.037849,0.02091 0.056773,0.03125 0.024866,0.01364 0.049731,0.02729 0.074817,0.04049 0.019585,0.01034 0.039169,0.0209 0.058753,0.03103 0.027506,0.0143 0.055012,0.02817 0.082519,0.04203 0.6370447,0.320173 1.3141386,0.533621 2.0046555,0.640346 0.053692,0.0084 0.1073844,0.01584 0.1610766,0.02289 h 2.201e-4 c 0.053912,0.007 0.1076044,0.01342 0.1615167,0.01914 0.1951843,0.02069 0.3912489,0.03301 0.5873134,0.03675 0.031687,6.61e-4 0.063154,8.81e-4 0.094842,0.0011 0.011883,0 0.023765,4.4e-4 0.035648,4.4e-4 0.00902,0 0.018264,-2.2e-4 0.027286,-2.2e-4 0.032787,-2.2e-4 0.065355,-4.4e-4 0.098142,-0.0011 0.024426,-4.4e-4 0.049071,-0.0011 0.073497,-0.0018 0.014523,-4.4e-4 0.028827,-0.0011 0.04335,-0.0015 0.048411,-0.0018 0.096822,-0.004 0.145013,-0.0066 0.00572,-4.4e-4 0.011443,-6.6e-4 0.017384,-0.0011 0.330295,-0.01958 0.6594899,-0.06337 0.9847238,-0.13093 0.050611,-0.01056 0.101443,-0.02179 0.1518345,-0.03345 l 0.00264,-6.6e-4 c 0.049731,-0.01166 0.099463,-0.02377 0.1489738,-0.03653 0.00176,-4.4e-4 0.0033,-8.8e-4 0.00506,-0.0013 0.048851,-0.01254 0.097482,-0.02575 0.1461132,-0.03939 0.00242,-6.6e-4 0.00462,-0.0013 0.00704,-0.002 0.047971,-0.01364 0.095942,-0.02773 0.1439127,-0.04247 0.00286,-8.8e-4 0.0055,-0.0018 0.00836,-0.0026 0.047531,-0.01474 0.094841,-0.02971 0.1421523,-0.04555 0.00286,-8.8e-4 0.00572,-0.002 0.00858,-0.0029 0.047311,-0.01584 0.094402,-0.03213 0.1412721,-0.04885 0.00264,-8.8e-4 0.00528,-0.002 0.0077,-0.0029 0.047311,-0.01716 0.094621,-0.03455 0.1417122,-0.05281 0.00176,-6.61e-4 0.0033,-0.0013 0.00506,-0.002 0.8157248,-0.315332 1.5825998,-0.79438 2.2504508,-1.436706 0.03213,-0.03059 0.06404,-0.06161 0.0955,-0.09308 0.03147,-0.03147 0.06249,-0.06359 0.0933,-0.09572 0.0198,-0.02069 0.03961,-0.04137 0.05919,-0.06227 0.563768,-0.600517 0.997046,-1.278271 1.300935,-1.998054 z m -0.44076,-0.628903 -0.575651,-0.383768 V 9.7087883 l 0.575651,-0.3837672 0.529,-0.3527401 c 0.0031,0.081638 0.0051,0.1632771 0.0051,0.2451357 0,0.7294657 -0.122787,1.4426473 -0.364622,2.1239223 z M 7.1563505,15.559038 6.9418017,15.416005 v -1.135898 l 1.1513016,-0.767534 0.5756508,0.383767 0.5760909,0.383767 v 0.940494 c -0.6586096,0.224671 -1.346486,0.338877 -2.0493257,0.338877 -0.013203,2.2e-4 -0.026186,-2.2e-4 -0.039169,-4.4e-4 z M 8.0937635,8.941254 8.6689742,9.3248011 9.244845,9.7085683 V 10.844466 L 8.0935434,11.612001 6.9422418,10.844466 v -0.75147 z m 1.3711315,2.285659 1.151302,0.767535 v 1.135898 L 9.464895,13.89788 8.3135934,13.130346 v -1.135898 z m -3.8944449,0.767535 1.1513016,-0.767535 1.1513016,0.767535 v 1.135898 L 6.7217517,13.89788 5.5704501,13.130346 Z m -0.00242,-0.52724 0.9338921,-0.933892 v 0.31137 l -0.5756508,0.383768 z m 4.1169154,2.812899 1.1513025,-0.767534 0.613279,0.408853 c -0.524159,0.475308 -1.116314,0.854454 -1.7648015,1.130616 V 14.280107 Z M 10.260596,11.228454 9.684945,10.844466 V 9.7085683 l 1.151302,-0.7675344 1.151301,0.7675344 v 1.1358977 l -1.151301,0.767535 z M 11.631947,8.9425743 11.056297,8.5588071 V 7.4229089 l 1.151301,-0.7675344 0.575651,0.3837672 0.476408,0.3175322 c 0.03653,0.1194871 0.06998,0.2396344 0.09924,0.360882 V 8.5588071 L 12.207598,9.3263414 Z M 12.997798,6.652954 12.427868,6.2729277 V 5.6308218 c 0.221151,0.3219331 0.411494,0.6632307 0.56993,1.0221322 z M 11.987768,5.1370296 V 6.2729277 L 10.836467,7.0404621 10.331452,6.7037856 11.934076,5.1011614 Z m -1.947222,1.9021122 0.575651,0.3837671 V 8.5588071 L 9.464895,9.3263414 8.4112956,8.6239419 10.01392,7.0213177 Z m -4.9638881,4.9194382 0.053692,0.03587 v 1.135898 L 3.9790485,13.89788 3.4740338,13.561204 Z m -1.9201563,1.919936 0.6024969,0.401591 v 0.269781 C 3.5048408,14.385731 3.2625657,14.20331 3.0326135,14.002624 Z m 1.0425969,0.930811 v -0.529 l 1.1513016,-0.767534 1.1513016,0.767534 v 1.135898 l -0.1344505,0.08956 C 5.8329698,15.43625 5.3112312,15.299159 4.8084169,15.095392 4.5995895,15.010453 4.3962633,14.914951 4.1990985,14.809327 Z m 7.4328485,-1.295214 -0.57565,-0.383767 v -1.135898 l 1.151301,-0.767535 0.575651,0.383768 0.224011,0.149413 c -0.298828,0.684136 -0.713622,1.304457 -1.235361,1.84754 z"
     style="fill:#ebdbb2;stroke-width:0.022005" />
</svg>
