<svg width="16" height="16" version="1.1" viewBox="0 0 16 16" xmlns="http://www.w3.org/2000/svg">
  <defs>
    <style type="text/css">.ColorScheme-Text { color:#ebdbb2; } .ColorScheme-Highlight { color:#458588; }</style>
  </defs>
  <path class="ColorScheme-Text" d="m1.2845 0.99765v0.00114a0.29167 0.29168 0 0 0-0.21202 0.48445c0.5291 0.61747 1.4882 0.91583 2.6138 1.157 0.7974 0.17077 1.6811 0.30225 2.5613 0.43544v1.4271h1.1707v1.7509h-1.1707v0.8401c-0.00234 4.08e-4 -0.0045 0-0.00684 0-1.2311 0.20217-2.4676 0.46619-3.447 0.98258-0.97949 0.51639-1.7109 1.3325-1.7908 2.5306-0.031509 0.47571 0.14465 0.89935 0.4571 1.2117 0.31245 0.31242 0.74397 0.5288 1.2562 0.69875 0.94489 0.31352 2.1866 0.46641 3.5314 0.58932v1.3143h1.1707v0.58134h0.58362v-0.58134h1.1627v-1.0544c2.1618 0.21162 4.228 0.52576 5.3814 1.2949a0.2918 0.29181 0 1 0 0.32373-0.48559c-1.358-0.90555-3.5113-1.212-5.7051-1.4089v-1.263h-1.1627v-2.3345h1.1627v-1.9492c0.20684-0.03969 0.41322-0.07928 0.60414-0.12539 0.49561-0.11982 0.93282-0.26452 1.2858-0.47305 0.353-0.20847 0.63335-0.49886 0.72953-0.88341 0.12206-0.48867 0.06315-0.94152-0.15047-1.3097-0.21367-0.36827-0.56218-0.64533-0.98258-0.86746-0.4249-0.22446-0.93133-0.3984-1.4864-0.54145v-1.4351h-1.1627v-0.58362h-0.58362v0.58362h-1.1707v0.89937c-0.85168-0.12933-1.6961-0.25685-2.4394-0.41606-1.0865-0.23275-1.9466-0.56203-2.2923-0.96549a0.29167 0.29168 0 0 0-0.2314-0.10487zm7.8801 2.6354c0.46622 0.12781 0.88564 0.27224 1.214 0.4457 0.35942 0.18991 0.61196 0.40604 0.75005 0.64404 0.13811 0.238 0.18186 0.50343 0.08891 0.87543-0.04959 0.19878-0.18934 0.3637-0.45938 0.52321-0.27009 0.1595-0.66048 0.2955-1.1262 0.40808-0.14512 0.035015-0.30891 0.065491-0.46735 0.09689v-0.37274h-1.1627v-1.7509h1.1627zm-2.917 4.0534v1.4841h1.1707v2.3345h-1.1707v1.0156c-1.3122-0.12204-2.5071-0.27616-3.3479-0.55513-0.46194-0.15332-0.81393-0.34436-1.0282-0.55855-0.21425-0.21419-0.30776-0.43564-0.28611-0.7603 0.065931-0.98953 0.6103-1.5952 1.4807-2.0541 0.84917-0.44776 2.0011-0.70895 3.1814-0.90621z" fill="currentColor" stroke-width=".58362"/>
</svg>
