<svg width="16" height="16" version="1.1" xmlns="http://www.w3.org/2000/svg">
  <defs>
    <style id="current-color-scheme" type="text/css">.ColorScheme-Text { color:#ebdbb2; } .ColorScheme-Highlight { color:#458588; }</style>
  </defs>
  <path class="ColorScheme-Text" d="m12 1-0.5742 1.613-1.547-0.7344 0.7344 1.547-1.613 0.5742 1.613 0.5742-0.7344 1.547 1.547-0.7344 0.5742 1.613 0.5742-1.613 1.547 0.7344-0.7344-1.547 1.613-0.5742-1.613-0.5742 0.7344-1.547-1.547 0.7344zm-6 0c-0.207 0.6636-0.4868 1.313-0.7891 1.949-1.54 3.15-3.951 5.305-4.184 7.293-6e-3 0.0297-0.02214 0.0622-0.02734 0.0918l0.01953 0.0059c-5e-3 0.06836-0.01953 0.1368-0.01953 0.205 0 2.46 2.239 4.455 5 4.455s5-1.995 5-4.455c0-0.0682-0.01453-0.1367-0.01953-0.2051l0.01953-0.00586c-5e-3 -0.0295-0.02104-0.0621-0.02734-0.0918-0.2326-1.988-2.643-4.145-4.184-7.295-0.3023-0.6362-0.582-1.284-0.7891-1.947z" fill="currentColor"/>
</svg>
