<svg width="16" height="16" style="isolation:isolate" version="1.1" viewBox="0 0 16 16" xmlns="http://www.w3.org/2000/svg">
  <defs>
    <style type="text/css">.ColorScheme-Text { color:#ebdbb2; } .ColorScheme-Highlight { color:#458588; }</style>
  </defs>
  <path class="ColorScheme-Text" d="m4.7266 1c-1.1743 0.014999-2.0317-0.030528-2.7344 0.38477-0.35088 0.20718-0.62812 0.55932-0.78125 0.99805-0.154 0.43873-0.21094 0.96003-0.21094 1.6172v8c0 0.65716 0.056936 1.1785 0.21094 1.6172 0.15313 0.43873 0.43037 0.79087 0.78125 0.99805 0.70263 0.41529 1.5601 0.36977 2.7344 0.38477h0.0058594 6.5352 0.003906c1.1743-0.015 2.0337 0.03053 2.7363-0.38477 0.35088-0.20718 0.6292-0.55932 0.7832-0.99805 0.15323-0.43873 0.20898-0.96003 0.20898-1.6172v-8c0-0.65716-0.05694-1.1785-0.21094-1.6172-0.15304-0.43873-0.43037-0.79087-0.78125-0.99805-0.70263-0.41529-1.5601-0.36977-2.7344-0.38477h-0.00586-6.5352-0.0058594zm7.2656 3.9863c0.028328-0.001538 0.056798-0.0013281 0.083984 0.0019531 0.10874 0.013124 0.20531 0.062504 0.25781 0.13281l0.085938 0.11523c0.12656 0.16968 0.10468 0.49462-0.10156 0.64648l-3.3301 1.9824c0.0066 0.045 0.0097657 0.089772 0.0097657 0.13477 0 0.35717-0.19158 0.68618-0.5 0.86523v2.6348c0 0.27749-0.20907 0.50195-0.46875 0.50195h-0.0625c-0.25968 0-0.46875-0.22447-0.46875-0.50195v-2.6348c-0.30842-0.17812-0.49906-0.509-0.5-0.86523 9.38e-4 -0.03937 0.0032125-0.078756 0.0078125-0.11719l-2.3301-0.98242c-0.2053-0.15187-0.22617-0.47876-0.099609-0.64844l0.085938-0.11328c0.105-0.14062 0.38556-0.19875 0.5918-0.046875l2.3457 0.99414c0.12562-0.05531 0.26157-0.084998 0.39844-0.085938 0.13218 0 0.26094 0.027505 0.38281 0.078125l3.3613-2.0039c0.077339-0.05695 0.16501-0.083277 0.25-0.087891z" fill="currentColor" stroke-width=".90569"/>
</svg>
