<svg width="16" height="16" version="1.1" viewBox="0 0 16 16" xmlns="http://www.w3.org/2000/svg">
  <defs>
    <style id="current-color-scheme" type="text/css">.ColorScheme-Text { color:#ebdbb2; } .ColorScheme-Highlight { color:#458588; }</style>
  </defs>
  <path class="ColorScheme-Text" d="m7.5 1v2h1v-2h-1zm-4.1 1.699-0.707 0.707 1.414 1.414 0.707-0.707-1.414-1.414zm9.201 0.001953-1.416 1.414 0.707 0.707 1.416-1.414-0.707-0.707zm-4.605 1.299a4 4 0 0 0-3.996 4.002 4 4 0 0 0 4.002 3.998 4 4 0 0 0 3.998-4h-4v3a3 3 0 0 1-3-2.998 3 3 0 0 1 2.998-3.002 3 3 0 0 0 0.001953 0v3l4-0.003906a4 4 0 0 0-4.004-3.996zm-6.996 3.5v1h2v-1h-2zm12 0v1h2v-1h-2zm-1.115 3.682-0.707 0.707 1.414 1.414 0.707-0.707-1.414-1.414zm-7.77 0.003906-1.414 1.416 0.707 0.707 1.414-1.416-0.707-0.707zm3.385 1.814v2h1v-2h-1z" fill="currentColor"/>
</svg>
