<svg width="16" height="16" version="1.1" xmlns="http://www.w3.org/2000/svg">
  <defs>
    <style id="current-color-scheme" type="text/css">.ColorScheme-Text { color:#ebdbb2; } .ColorScheme-Highlight { color:#458588; }</style>
  </defs>
  <path class="ColorScheme-Text" d="m5.945 1a1 1 0 0 0-0.8945 0.6836l-4 12a1 1 0 0 0 0.9492 1.316h12a1 1 0 0 0 1-1v-2a1 1 0 1 0-2 0v1h-3.07a8 8 0 0 0-4.473-6.205l1.199-3.6 1.102 0.2754a1 1 0 1 0 0.4844-1.941l-2-0.5a1 1 0 0 0-0.2969-0.0293zm-1.129 7.719a6 6 0 0 1 3.098 4.281h-4.525z" fill="currentColor"/>
</svg>
