<svg width="16" height="16" version="1.1" viewBox="0 0 16 16" xmlns="http://www.w3.org/2000/svg">
  <defs>
    <style type="text/css">.ColorScheme-Text { color:#ebdbb2; } .ColorScheme-Highlight { color:#458588; }</style>
  </defs>
  <path class="ColorScheme-Text" d="m1 0.99927 0.0017085 6.0007h6.9983v-6zm7.8731 0.94313v3.4308h0.87479v-2.3134c2.0934 0.74011 3.4946 2.7175 3.4991 4.9378h0.87479c-0.002625-3.0419-2.2381-5.6206-5.2487-6.0552zm-6.9983 6.0552c0.00262 3.0419 2.2381 5.6206 5.2487 6.0552v-3.4308h-0.87479v2.3134c-2.0934-0.74011-3.4946-2.7175-3.4991-4.9378zm10.06 0.87479c-1.691-2e-7 -3.0618 1.3708-3.0618 3.0618 9.84e-4 0.66052 0.21555 1.303 0.61167 1.8316l0.62704-0.62704c-0.23662-0.35487-0.36431-0.77119-0.36734-1.1977 0-1.2078 0.97914-2.187 2.187-2.187 0.4285 6.856e-4 0.84735 0.12723 1.2045 0.36393l0.62704-0.62704c-0.52976-0.39778-1.1742-0.61301-1.8367-0.61338zm2.4535 1.2233-0.0035 0.0068-0.62704 0.62704c0.23662 0.35487 0.36431 0.77119 0.36734 1.1977 0 1.2078-0.97914 2.187-2.187 2.187-0.4285-6.85e-4 -0.84735-0.12723-1.2045-0.36392l-0.62696 0.62708c0.52857 0.39612 1.1711 0.61068 1.8316 0.61167 1.691 0 3.0618-1.3708 3.0618-3.0618-9.84e-4 -0.66052-0.21555-1.303-0.61167-1.8316z" fill="currentColor" stroke-width=".87479"/>
</svg>
