<svg width="16" height="16" version="1.1" viewBox="0 0 16 16" xmlns="http://www.w3.org/2000/svg">
  <defs>
    <style id="current-color-scheme" type="text/css">.ColorScheme-Text { color:#ebdbb2; } .ColorScheme-Highlight { color:#458588; }</style>
  </defs>
  <path class="ColorScheme-Text" d="m3 3-2 2 2 2v-4zm2 0v1.34h4v-1.34h-4zm6.359 0-2.5 7h1.25l0.498-1.332h2.5l0.502 1.332h1.393l-2.643-7h-1zm0.5 2 0.9043 2.668h-1.812l0.9082-2.668zm-6.859 0.8184v1.34h3v-1.34h-3zm0 2.842v1.34h2v-1.34h-2zm-2 0.3398-2 2 2 2v-4zm2 2.66v1.34h10v-1.34h-10z" fill="currentColor"/>
</svg>
