<svg width="16" height="16" version="1.1" viewBox="0 0 16 16" xmlns="http://www.w3.org/2000/svg">
  <defs>
    <style type="text/css">.ColorScheme-Text { color:#ebdbb2; } .ColorScheme-Highlight { color:#458588; }</style>
  </defs>
  <path class="ColorScheme-Text" d="m8 1a7 7 0 0 0-7 7 7 7 0 0 0 7 7 7 7 0 0 0 7-7 7 7 0 0 0-7-7zm0 2.004c0.8015 0.01234 1.609 0.2042 2.312 0.5938 0.1004 0.1522 0.2725 0.2233 0.04883 0.3516 0.07038 0.08125-0.08323 0.2196 0.1387 0.1484 0.1778 0.0804 0.4227-0.278 0.4375-0.0625-0.1976 0.2042-0.4112 0.1609-0.625 0.2812 0.338-0.01887 0.4119 0.5647 0 0.4375-0.2705-0.1055-0.4209 0.02239-0.3965 0.291-0.147 0.1636 0.02561 0.3094 0.1777 0.3184 0.1246 0.2925-0.3826 0.2963-0.3438 0.6094-0.2548 0.236-0.5365 0.4512-0.6543 0.8066 0.1135 0.2031 0.006652 0.4368-0.05664 0.6504-0.008769 0.2684 0.3612 0.3721 0.3984 0.666 0.253 0.1613 0.4609 0.3785 0.7656 0.1895 0.2908 0.1498 0.6278-0.2609 0.8711-0.01367 0.06139 0.1755 0.5886 0.0469 0.3633 0.3555-0.1488 0.3522 0.2752 0.5037 0.3125 0.8242 0.02598 0.4009-0.5006 0.6522-0.2305 1.055-0.0234 0.329 0.1339 0.6458-0.08203 0.9355 0.4109-0.05292-0.1514 0.2725-0.248 0.4023-1.252 1.06-3.058 1.451-4.621 0.9297-0.14-0.03567-0.6255-0.2407-0.2422-0.1875-0.1114-0.3275 0.4956-0.1047 0.3691-0.4277-0.08745-0.1217-0.1994-0.2553 0.07031-0.1504 0.303-0.04146 0.2377-0.4493 0.4844-0.5977-0.1881-0.4311 0.3724-0.4286 0.5957-0.6055 0.2569-0.3001 0.005986-0.713 0.2793-0.9883 0.3094-0.1785 0.2565-0.6013-0.09766-0.6699-0.2094-0.1941-0.538-0.0611-0.7148-0.2695-0.2912-0.05434-0.4715-0.2205-0.5059-0.5156-0.2279-0.2119-0.6051-0.06815-0.7637-0.3887-0.1278-0.1728-0.2641-0.2599-0.4785-0.1387-0.1086-0.1481-0.2949 0.00406-0.4082-0.1738-0.1801 0.1437-0.114 0.00707-0.1582-0.03125-0.2087 0.06202-0.3938 0.2008-0.5254 0.3359-0.1661-0.1451-0.5819 0.08661-0.5625-0.2852 0.04339-0.1772 0.1801-0.4413-0.1406-0.3965-0.314 0.1143-0.2298-0.1497-0.1133-0.293 0.2216-0.313-0.3159-0.2795-0.3398-0.001953-0.4145 0.2113-0.05836-0.39-0.03711-0.582 0.081-0.187 0.1025-0.4999 0.3398-0.3477 0.1444-0.1897 0.5592-0.1282 0.625 0.04492-0.1232 0.2161 0.355 0.2913 0.1934 0.009766-0.1485-0.3844 0.3921-0.4334 0.5801-0.6328 0.1068-0.1225-0.02072-0.2987 0.1934-0.2988 0.1487-0.2541 0.527-0.1717 0.5801-0.4551 0.2082-0.02927 0.4712-0.2966 0.3926 0 0.0944-0.08467 0.6801-0.2151 0.4375-0.2656-0.1757 0.1253-0.3214-0.08346-0.1641-0.2324-0.326 0.004357-0.04841-0.238 0.1074-0.08789-0.03695 0.1184 0.1773 0.03323 0.0293-0.01172 0.1742 0.02949 0.4302-0.1348 0.5332-0.0957-0.09294 0.1392-0.4053 0.3545-0.05078 0.3145 0.1222-0.06918 0.343 0.2216 0.2363-0.03125 0.1796-0.205-0.2841-0.1047-0.0625-0.2812 0.2181-0.3106-0.2979-0.3322-0.1992-0.6484 0.01441-0.4054-0.4622 0.2373-0.4336-0.1211 0.3202-0.2322 0.8429-0.2078 1.256-0.2598 0.04244 4.249e-4 0.08448-0.004076 0.127-0.001953zm-2.031 0.4688c-0.04172 0.3231-0.5065 0.1347-0.4629 0.4746-0.3135 0.1848-0.2223-0.2685 0.03711-0.2715 0.1383-0.07454 0.283-0.1387 0.4258-0.2031zm4.24 0.1855c-0.01513-8.984e-4 -0.03315-3.16e-5 -0.05273 0.001953-0.17 0.03102-0.3285 0.3234-0.1133 0.334 0.1389-0.00383 0.393-0.3225 0.166-0.3359zm-5.521 0.627c0.2677 0.2012-0.3894 0.2541-0.03906 0.03711l0.03906-0.03711zm0.1875 0.1875c0.05165 0.05565 0.2731 0.07942 0.123 0.1426-0.09643-0.05159-0.2156 0.3016-0.2383 0.01953 0.03847-0.06385 0.006818-0.1536 0.1152-0.1621zm-0.25 0.03125c0.00506 0.06651-0.193 0.3033-0.3125 0.375-0.06262-0.09275 0.1946-0.3936 0.3125-0.375zm6.781 0.1562c0.1903 0.1666 0.5902 0.3855 0.5977 0.5859 0.1296-0.2586 0.2555 0.322 0.4043 0.4277 0.01475 0.1199-0.07281 0.3921-0.2832 0.2051-0.1793-0.02683-0.2915-0.2707-0.5312-0.1875-0.1994-0.06836 0.1618-0.3689-0.1445-0.375-0.299 0.01528-0.6243-0.06236-0.8867 0.125-0.1391 0.2202-0.5987-0.1044-0.2012-0.08984 0.3375-0.05586 0.3947-0.551 0.7129-0.5996 0.1546 0.05216 0.2049-0.05586 0.332-0.0918zm-6.281 0.03125c0.4447-0.01475-0.2458 0.1078 0 0zm-0.2188 0.125c-0.1223 0.1757-0.4085 0.02539-0.08008 0.01367l0.04102-0.009766 0.03906-0.003906zm6.5 0c-0.1321 0.1824 0.1471 0.02626 0 0zm-0.009766 0.1523c-0.01519-7.985e-4 -0.03228 6.822e-4 -0.05273 0.003906-0.05074 0.4309 0.2806 0.008072 0.05273-0.003906zm0.4453 0.2793c-0.1107 0.006811-0.1523 0.0492 0.06445 0.09961l0.03711-0.04102 0.02539-0.05273c-0.04516-0.006759-0.09005-0.00813-0.127-0.005859zm-8.779 2.068c0.1746 0.2667 0.6564 0.1743 0.6973 0.5508 0.1625 0.09665 0.4129 0.3627 0.4941 0.08008 0.252 0.1296 0.2457 0.5452 0.02734 0.7129-0.2126 0.1239-0.09005 0.3319-0.1387 0.4668-0.1039 0.2548 0.2797 0.4738 0.3262 0.752 0.1548 0.2064 0.2686 0.4559 0.5781 0.5 0.2933 0.2255 0.1466 0.6721 0.2031 1-0.01416 0.2784 0.1424 0.5408 0.0625 0.834-1.042-0.6458-1.792-1.714-2.123-2.887-0.1751-0.6527-0.2487-1.341-0.127-2.01zm1.938 0.5312c0.1143 0.02934-0.09941 0.1096 0 0z" fill="currentColor"/>
</svg>
