<svg version="1.1" viewBox="0 0 16 16" xmlns="http://www.w3.org/2000/svg">
  <defs>
    <style type="text/css">
      .ColorScheme-Text {
        color: #ebdbb2;
      }
    </style>
  </defs>
  <path class="ColorScheme-Text"
    d="m1 1v3.5006h3.5006v-3.5006zm5.2509 0v3.5006h3.5006v-3.5006zm5.2509 0v3.5006h3.5006v-3.5006zm-9.335 1.1669h1.1669v1.1669h-1.1669zm10.502 0h1.1669v1.1669h-1.1669zm-11.669 4.084v3.5006h3.5006v-3.5006zm1.1669 1.1669h1.1669v1.1669h-1.1669zm-1.1669 4.084v3.5006h3.5006v-3.5006z"
    fill="currentColor" />
  <path
    d="m12.669 5.6675v5.2509c0 1.6161-1.3011 2.9172-2.9172 2.9172-0.95532 0-1.8027-0.4615-2.3337-1.1669h1.7503v-1.1669h-3.5006v3.5006h1.1669v-1.2398c0.73735 0.7678 1.7616 1.2398 2.9172 1.2398 2.2626 0 4.084-1.8215 4.084-4.084v-5.2509z"
    fill="#458588" stroke-width="1.1669" />
</svg>