<svg width="16" height="16" version="1.1" viewBox="0 0 16 16" xmlns="http://www.w3.org/2000/svg">
  <defs>
    <style id="current-color-scheme" type="text/css">.ColorScheme-Text { color:#ebdbb2; } .ColorScheme-Highlight { color:#458588; }</style>
  </defs>
  <path class="ColorScheme-Text" d="m3.05 12.95c2.734 2.734 7.166 2.734 9.899 0s2.734-7.166 1e-6 -9.899c-2.734-2.734-7.166-2.734-9.899 0-2.734 2.734-2.734 7.166 1e-7 9.899zm1.061-1.422c-0.1807-0.1808-0.2914-0.4315-0.2914-0.7085v-4.997l-0.00138-1.004c-5e-7 -0.554 0.4459-0.9999 0.9999-0.9999l1.004 0.0014h4.997c0.554 1e-6 0.9999 0.4459 0.9999 0.9999v0.9999c-2e-6 0.554-0.4459 0.9999-0.9999 0.9999h-1.878l3.302 3.302c0.3917 0.3917 0.3917 1.022 0 1.414l-0.7071 0.7071c-0.3917 0.3917-1.022 0.3917-1.414 0l-3.302-3.302v1.878c-3e-7 0.554-0.4459 0.9999-0.9999 0.9999l-0.9999 1e-6c-0.277 0-0.5277-0.1107-0.7085-0.2914z" fill="currentColor"/>
</svg>
