<svg width="16" height="16" version="1.1" viewBox="0 0 16 16" xmlns="http://www.w3.org/2000/svg">
  <defs>
    <style id="current-color-scheme" type="text/css">.ColorScheme-Text { color:#ebdbb2; } .ColorScheme-Highlight { color:#458588; }</style>
  </defs>
  <path class="ColorScheme-Text" d="m12.95 3.05c-2.734-2.734-7.166-2.734-9.899-3e-7 -2.734 2.734-2.734 7.166-9e-7 9.899 2.734 2.734 7.166 2.734 9.899 0 2.734-2.734 2.734-7.166 0-9.899zm-1.061 1.422c0.1808 0.1807 0.2914 0.4315 0.2914 0.7085l1e-6 4.997 0.0014 1.004c1e-6 0.554-0.4459 0.9999-0.9999 0.9999l-1.004-0.0014-4.997 1e-6c-0.554-2e-6 -0.9999-0.4459-0.9999-0.9999v-0.9999c1.9e-6 -0.554 0.4459-0.9999 0.9999-0.9999h1.878l-3.302-3.302c-0.3917-0.3917-0.3917-1.022 0-1.414l0.7071-0.7071c0.3917-0.3917 1.022-0.3917 1.414 0l3.302 3.302-2e-7 -1.878c5e-7 -0.554 0.4459-0.9999 0.9999-0.9999l0.9999-1e-6c0.277 0 0.5277 0.1107 0.7085 0.2914z" fill="currentColor"/>
</svg>
