<svg width="16" height="16" version="1.1" xmlns="http://www.w3.org/2000/svg">
  <defs>
    <style id="current-color-scheme" type="text/css">.ColorScheme-Text { color:#ebdbb2; } .ColorScheme-Highlight { color:#458588; }</style>
  </defs>
  <path class="ColorScheme-Text" d="m11 2v1c-2 0-3 1.5-3 3s1 3.002 3 3.004v2l-2-0.003906v2l2 0.001953v0.998h2v-1.008c4 0.007999 4-5.992 0-5.992v-2h2v-2h-2v-1h-2zm-3 4s-1.2e-5 -3-3-3h-4v10h2v-4h0.3809l2.309 4h2.311l-2.342-4.057c2.34-0.4044 2.342-2.943 2.342-2.943zm-5-1h2c1 0 1 1 1 1s-4e-6 1-1 1h-2v-2zm8 0v2c-1 0-1-1-1-1s5e-6 -1 1-1zm2 4c1 0 0.9961 0.9961 0.9961 0.9961s0.003905 1.004-0.9961 0.9961v-1.992z" fill="currentColor"/>
</svg>
