<svg width="16" height="16" version="1.1" xmlns="http://www.w3.org/2000/svg">
  <defs>
    <style type="text/css">.ColorScheme-Text { color:#ebdbb2; } .ColorScheme-Highlight { color:#458588; }</style>
  </defs>
  <path class="ColorScheme-Text" fill="currentColor" transform="matrix(.03435 0 0 .03435 2.417 .5294)" d="m164.1 13.7c-53.3 0-102.4 24-132.7 72.1l55.38 37.7c17.8-28.2 42.8-44.92 72.1-44.92 30.3 0 50.21 15.74 50.21 37.64 0 10.23-4.891 19.31-12.45 28.49h-208.8v58.22h150.8l-36.9 29.17h-113.9v58.22h67.61c-8.308 13.02-13.59 27.69-13.59 42.19 0 55.4 52.25 88.81 122.2 88.81 53.3 0 109.8-24 141.1-72.1l-57.48-38.72c-20.9 30.3-47.03 44.92-77.33 44.92-35.5 0-55.38-13.62-55.38-38.72 0-10.39 4.82-18.77 11.49-26.38h210.8v-58.22h-153.1l36.05-29.17h117.1v-58.22h-66.13c7.1-12.47 12.05-26.96 12.05-42.19 0-51.2-46.96-88.81-119.1-88.81z"/>
</svg>
