<svg width="16" height="16" version="1.1" viewBox="0 0 16 16" xmlns="http://www.w3.org/2000/svg">
  <defs>
    <style type="text/css">.ColorScheme-Text { color:#ebdbb2; } .ColorScheme-Highlight { color:#458588; }</style>
  </defs>
  <path class="ColorScheme-Text" d="m4.406 5s-1.406 3.906e-4 -1.406 1.4v5.199c0 0.775 0.6363 1.4 1.428 1.4h5.572l1.5 2 1.5-2h0.5723s1.428-3.91e-4 1.428-1.4v-5.199c0-1.4-1.428-1.4-1.428-1.4z" fill="currentColor"/>
  <path class="ColorScheme-Text" d="m2.406 1s-1.406 3.906e-4 -1.406 1.4v5.199c0 0.6282 0.4207 1.152 1 1.33v-3.529c0-1.4 1.406-1.4 1.406-1.4h8.166s0.1957 0.02354 0.4277 0.08594v-1.686c0-1.4-1.428-1.4-1.428-1.4z" fill="currentColor" opacity=".3"/>
</svg>
