<svg width="16" height="16" version="1.1" xmlns="http://www.w3.org/2000/svg">
  <defs>
    <style id="current-color-scheme" type="text/css">.ColorScheme-Text { color:#ebdbb2; } .ColorScheme-Highlight { color:#458588; }</style>
  </defs>
  <path class="ColorScheme-Text" d="m1 1v14h14v-2h-12v-1.611c0.12-0.2325 0.2396-0.4655 0.3926-0.6836 0.8165-1.164 2.146-2.146 4.684-2.656 2.674-0.5376 4.213-1.484 5.045-2.68 0.8319-1.196 0.9108-2.559 0.8926-3.797-0.001021-0.2808-0.233-0.5057-0.5137-0.498-0.2762 0.00748-0.494 0.2375-0.4863 0.5137 0.0174 1.182-0.07 2.284-0.7148 3.211-0.6448 0.9268-1.893 1.762-4.42 2.27-2.354 0.4732-3.884 1.392-4.879 2.521v-8.59z" fill="currentColor"/>
  <path class="ColorScheme-Text" d="m14 2.4c-0.0434 0.9992-0.2288 2.034-0.8789 2.969-0.8319 1.196-2.371 2.142-5.045 2.68-2.537 0.5101-3.867 1.493-4.684 2.656-0.153 0.2181-0.2726 0.4511-0.3926 0.6836v1.611h11v-10.6z" fill="currentColor" opacity=".3"/>
</svg>
