<svg width="16" height="16" version="1.1" xmlns="http://www.w3.org/2000/svg">
  <defs>
    <style id="current-color-scheme" type="text/css">.ColorScheme-Text { color:#ebdbb2; } .ColorScheme-Highlight { color:#458588; }</style>
  </defs>
  <path class="ColorScheme-Text" d="M 12.524,2 C 11.7064,2 10.999,2.7233 11.001,3.523 10.999,4.3232 11.7065,5 12.524,5 13.3416,5 14.002,4.3237 14,3.523 14.002,2.7228 13.3414,2 12.524,2 Z m -6,1 C 5.7064,3 4.999,3.7233 5.001,4.523 4.999,5.3232 5.7065,6 6.524,6 7.3416,6 8,5.3237025 8,4.523 8,3.7227975 7.3414,3 6.524,3 Z M 2.502,7 C 1.6844,7 0.977,7.7233 0.979,8.523 0.977,9.3232 1.6845,10 2.502,10 3.1493,10 3.693,9.5738 3.892,9 l 11.11,-4e-7 v -1 L 9.085,8 H 3.881 C 3.6705,7.4339 3.1367,7 2.504,7 Z m 11.02,3 c -0.8176,0 -1.525,0.7233 -1.523,1.523 C 11.997,12.3232 12.7045,13 13.522,13 14.3396,13 15,12.3237 14.998,11.523 15,10.7228 14.3394,10 13.522,10 Z M 8.524,11 C 7.7064,11 6.999,11.7233 7.001,12.523 6.999,13.3232 7.7065,14 8.524,14 9.3416,14 10.002,13.3237 10,12.523 10.002,11.7228 9.3414,11 8.524,11 Z" fill="currentColor"/>
</svg>
