<svg width="16" height="16" version="1.1" viewBox="0 0 16 16" xmlns="http://www.w3.org/2000/svg">
  <defs>
    <style type="text/css">.ColorScheme-Text { color:#ebdbb2; } .ColorScheme-Highlight { color:#458588; }</style>
  </defs>
  <path class="ColorScheme-Text" fill="currentColor" d="m9.715 2 1.428 1.43-2.143 2.143 1.43 1.43 2.143-2.145 1.43 1.43-0.001953-4.287h-4.285zm-6.527 0.003906c-0.6627-3.7e-6 -1.188 0.5486-1.188 1.219v3.781h2v-3h3v-2h-3.812zm-1.188 5.996v6h6v-6h-6zm9.562 0.003906-2.504 3.609v0.9551h2.891v1.436h1.295v-1.436h0.7559v-1.059h-0.7559v-3.506h-1.682zm0.3965 1.182h0.03906c-0.006293 0.1889-0.0167 0.4101-0.0293 0.6621-0.0126 0.2457-0.01953 0.4614-0.01953 0.6504v1.012h-1.549l0.9062-1.305c0.1071-0.1701 0.2186-0.3397 0.332-0.5098s0.2195-0.3397 0.3203-0.5098z"/>
</svg>
