<svg width="16" height="16" version="1.1" viewBox="0 0 16 16" xmlns="http://www.w3.org/2000/svg">
  <defs>
    <style type="text/css">.ColorScheme-Text { color:#ebdbb2; } .ColorScheme-Highlight { color:#458588; }</style>
  </defs>
  <path class="ColorScheme-Text" d="m1.844 1.01c-0.2813 0.0468-0.8438 0.25-0.8438 1v11s0 1 1 1h12s1 0 1-1v-9c0-1-1-1-1-1h-5l-2-2h-5s-0.06255-0.01563-0.1562 0zm6.465 2.99c0.5364 0 1.029 0.0836 1.48 0.25 0.4519 0.1631 0.84 0.3991 1.166 0.709 0.329 0.3066 0.5855 0.6807 0.7695 1.121 0.183 0.4403 0.2754 0.935 0.2754 1.486 0 0.3099-0.03919 0.6166-0.1172 0.9199-0.075 0.3034-0.1897 0.577-0.3457 0.8184-0.156 0.2381-0.3538 0.432-0.5918 0.582-0.234 0.1473-0.5111 0.2188-0.8301 0.2188-0.1288 0-0.2498-0.01297-0.3652-0.04297-0.112-0.032-0.2155-0.07741-0.3105-0.1328-0.0951-0.0587-0.1788-0.1242-0.25-0.1992-0.068-0.0783-0.1208-0.1646-0.1582-0.2559h-0.07617c-0.0645 0.0816-0.1398 0.162-0.2246 0.2402-0.0849 0.0751-0.1799 0.1425-0.2852 0.2012-0.1052 0.0587-0.2227 0.1046-0.3516 0.1406-0.1257 0.032-0.2627 0.04883-0.4121 0.04883-0.2817 0-0.5332-0.04552-0.7539-0.1367-0.2172-0.0946-0.3994-0.2269-0.5488-0.3965-0.1494-0.1729-0.2637-0.377-0.3418-0.6152-0.0781-0.2414-0.1172-0.5085-0.1172-0.7988 0-0.336 0.053-0.6433 0.1582-0.9238 0.1053-0.2806 0.2563-0.5224 0.4531-0.7246 0.1969-0.2055 0.4351-0.3637 0.7168-0.4746 0.2818-0.1142 0.5977-0.1719 0.9473-0.1719 0.1528 0 0.3117 0.009091 0.4746 0.02539 0.163 0.0163 0.3194 0.03835 0.4688 0.06445 0.1527 0.0261 0.2953 0.05529 0.4277 0.08789s0.2448 0.06506 0.3398 0.09766l-0.1055 2.049c-7e-3 0.0718-0.01172 0.1424-0.01172 0.2109v0.1328c0 0.1371 0.01085 0.2499 0.03125 0.3379 0.0238 0.0881 0.05204 0.1568 0.08594 0.209 0.0374 0.049 0.07925 0.08402 0.123 0.1035 0.048 0.0196 0.09744 0.0293 0.1484 0.0293 0.119 0 0.2225-0.04471 0.3105-0.1328 0.089-0.088 0.1608-0.2055 0.2188-0.3555 0.058-0.1501 0.09986-0.3265 0.1309-0.5254 0.03-0.2023 0.04688-0.4155 0.04688-0.6406 0-0.4175-0.06436-0.789-0.1934-1.115s-0.31-0.6011-0.541-0.8262c-0.2271-0.225-0.4987-0.3963-0.8145-0.5137-0.3157-0.1175-0.6573-0.1777-1.027-0.1777-0.5194 0-0.9778 0.0837-1.375 0.25-0.3938 0.1664-0.726 0.3991-0.9941 0.6992-0.2648 0.2969-0.4663 0.6509-0.6055 1.059-0.1358 0.4078-0.2031 0.8537-0.2031 1.34 0 0.4501 0.05893 0.8502 0.1777 1.199 0.1188 0.3458 0.2951 0.637 0.5293 0.875 0.2342 0.235 0.5224 0.4151 0.8652 0.5391 0.3429 0.12 0.7394 0.1816 1.188 0.1816 0.1901 0 0.3856-0.01216 0.5859-0.03516 0.2002-0.023 0.3988-0.05475 0.5957-0.09375 0.2003-0.04 0.3958-0.08562 0.5859-0.1406 0.1935-0.056 0.3758-0.1166 0.5488-0.1816v0.9395c-0.3191 0.137-0.6741 0.2443-1.064 0.3223-0.387 0.082-0.8009 0.123-1.242 0.123-0.6145 0-1.165-0.08391-1.65-0.2539-0.4821-0.166-0.888-0.4076-1.221-0.7246-0.3327-0.316-0.5871-0.7035-0.7637-1.16-0.1765-0.4599-0.2656-0.9799-0.2656-1.561 0-0.4045 0.04512-0.7916 0.1367-1.16 0.0917-0.3718 0.2252-0.7148 0.3984-1.031 0.1731-0.3197 0.3831-0.6095 0.6309-0.8672 0.2512-0.261 0.5364-0.4814 0.8555-0.6641 0.3191-0.1859 0.6711-0.3279 1.055-0.4258 0.3836-0.1011 0.7945-0.1523 1.232-0.1523zm-0.1133 2.754c-0.2003 0-0.3686 0.04145-0.5078 0.123-0.1392 0.0815-0.2535 0.1886-0.3418 0.3223-0.0849 0.1338-0.1468 0.288-0.1875 0.4609-0.0373 0.1696-0.05664 0.3415-0.05664 0.5176 0 0.3654 0.06436 0.6299 0.1934 0.793 0.129 0.1598 0.2998 0.2402 0.5137 0.2402 0.1426 0 0.2653-0.03175 0.3672-0.09375 0.1052-0.0653 0.1894-0.1534 0.2539-0.2676 0.0679-0.1174 0.1204-0.2562 0.1543-0.416 0.0373-0.1631 0.06011-0.344 0.07031-0.543l0.06055-1.082c-0.0679-0.0163-0.1467-0.02926-0.2383-0.03906-0.0917-0.0098-0.1862-0.01562-0.2812-0.01562z" fill="currentColor"/>
</svg>
