<svg width="16" height="16" version="1.1" xmlns="http://www.w3.org/2000/svg">
  <defs>
    <style id="current-color-scheme" type="text/css">.ColorScheme-Text { color:#ebdbb2; } .ColorScheme-Highlight { color:#458588; }</style>
  </defs>
  <path class="ColorScheme-Text" d="m1 1v2h6v-2h-6zm8 0v2h6v-2h-6zm-8 3v2h6v-2h-6zm8 0v2h6v-2h-6zm-5 8s4e-6 3 4 3h4v1l3-2-3-2v1h-5c-1 0-1-1-1-1h-2z" fill="currentColor"/>
  <path class="ColorScheme-Highlight" d="m7 7-3 2 3 2v-1h4c2 0 2 1 2 1h2s-4e-6 -3-4-3h-4v-1z" fill="currentColor"/>
</svg>
