<svg width="16" height="16" version="1.1" viewBox="0 0 16 16" xmlns="http://www.w3.org/2000/svg">
    <defs>
        <style type="text/css">
            .ColorScheme-Text {
                color: #ebdbb2;
            }

            .ColorScheme-Highlight {
                color: #458588;
            }
        </style>
    </defs>
    <path class="ColorScheme-Text"
        d="m1 1v14h14v-1.1667h-12.833v-12.833zm2.3333 0v1.1667h1.1667v-1.1667zm2.3333 0v1.1667h1.1667v-1.1667zm7 1.1667v1.1667h1.1667v-1.1667zm1.1667 1.1667v1.1667h1.1667v-1.1667zm0 1.1667h-1.1667v1.1667h1.1667zm-1.1667 0v-1.1667h-1.1667v1.1667zm-9.3333-1.1667v1.1667h1.1667v-1.1667zm2.3333 0v1.1667h1.1667v-1.1667zm3.5 3.5v1.1667h1.1667v-1.1667zm2.3333 0v1.1667h1.1667v-1.1667zm-7 2.3333v1.1667h1.1667v-1.1667zm1.1667 1.1667v1.1667h1.1667v-1.1667zm0 1.1667h-1.1667v1.1667h1.1667zm-1.1667 0v-1.1667h-1.1667v1.1667zm4.6667-2.3333v1.1667h1.1667v-1.1667zm2.3333 0v1.1667h1.1667v-1.1667z"
        fill="currentColor" stroke-width="1.1667" />
</svg>