<svg width="16" height="16" version="1.1" xmlns="http://www.w3.org/2000/svg">
  <defs>
    <style id="current-color-scheme" type="text/css">.ColorScheme-Text { color:#ebdbb2; } .ColorScheme-Highlight { color:#458588; }</style>
  </defs>
  <path class="ColorScheme-Text" d="m8 1a7 7 0 0 0-7 7 7 7 0 0 0 7 7 7 7 0 0 0 7-7 7 7 0 0 0-0.7715-3.176l-1.518 1.518a5 5 0 0 1 0.2891 1.658 5 5 0 0 1-5 5 5 5 0 0 1-5-5 5 5 0 0 1 5-5 5 5 0 0 1 3.994 2l1.426-1.424a7 7 0 0 0-5.42-2.576zm0 3c-1.108 0-2.107 0.4469-2.83 1.17l0.707 0.707c0.5422-0.5422 1.292-0.877 2.123-0.877 1.662 0 3 1.338 3 3s-1.338 3-3 3-3-1.338-3-3c0-0.3018 0.0565-0.5869 0.1387-0.8613l-0.7812-0.7812c-0.2256 0.5016-0.3574 1.055-0.3574 1.643 0 2.216 1.784 4 4 4s4-1.784 4-4-1.784-4-4-4zm0 2c-1.105 0-2 0.8954-2 2s0.8954 2 2 2c0.9116-4.307e-4 1.708-0.6173 1.936-1.5h-1.072c-0.1781 0.3086-0.507 0.499-0.8633 0.5-0.5523 0-1-0.4477-1-1s0.4477-1 1-1c0.357 2.824e-4 0.6867 0.1908 0.8652 0.5h1.068c-0.2277-0.882-1.023-1.499-1.934-1.5z" fill="currentColor"/>
</svg>
