<svg width="16" height="16" version="1.1" xmlns="http://www.w3.org/2000/svg">
  <defs>
    <style id="current-color-scheme" type="text/css">.ColorScheme-Text { color:#ebdbb2; } .ColorScheme-Highlight { color:#458588; }</style>
  </defs>
  <path class="ColorScheme-Text" d="m2 7c-0.554 0-1 0.446-1 1v5c0 0.554 0.446 1 1 1h8c0.554 0 1-0.446 1-1v-5c0-0.554-0.446-1-1-1zm7.199 2 0.8008 0.8008-3.199 3.199-2.4-2.4 0.7988-0.7988 1.602 1.6z" fill="currentColor"/>
  <path class="ColorScheme-Text" d="m6 2c-0.554 0-1 0.446-1 1v3h5.801c0.6648 0 1.199 0.5344 1.199 1.199v1.801h2c0.554 0 1-0.446 1-1v-5c0-0.554-0.446-1-1-1z" fill="currentColor" opacity=".3"/>
</svg>
