<svg width="16" height="16" version="1.1" xmlns="http://www.w3.org/2000/svg">
  <defs>
    <style id="current-color-scheme" type="text/css">.ColorScheme-Text { color:#ebdbb2; } .ColorScheme-Highlight { color:#458588; }</style>
  </defs>
  <path class="ColorScheme-Text" d="m2 1v12h-1v1h1v1h1v-1h6v-1h-6v-12h-1zm5.498 0c-0.9715 4.595e-4 -1.878 0.3413-2.518 0.9805-0.6395 0.6395-0.9805 1.547-0.9805 2.52h2c0-0.5278 0.1591-0.8705 0.3945-1.105 0.2355-0.2355 0.5762-0.3926 1.104-0.3926 0.5273 0 0.8705 0.1572 1.105 0.3926 0.2355 0.2355 0.3945 0.5782 0.3945 1.105 0 0.4583-0.09044 0.6533-0.2109 0.8262-0.5213 0.5259-1.152 0.9759-1.658 1.406-0.5717 0.4292-1.131 0.9916-1.131 1.768v0.5h2v-0.5c0.7108-0.7277 1.77-1.36 2.43-2.027 0.3482-0.499 0.5703-1.181 0.5703-1.973 0-0.9722-0.3409-1.88-0.9805-2.52-0.6391-0.6391-1.545-0.98-2.518-0.9805h-0.001953zm6.502 0v9h1v-9h-1zm-8 9v2h2v-2h-2zm6.5 0-2.5 2.5 2.5 2.5 0.707-0.707-1.291-1.293h3.084v-1h-3.084l1.291-1.293-0.707-0.707z" fill="currentColor"/>
</svg>
