<svg width="16" height="16" version="1.1" viewBox="0 0 16 16" xmlns="http://www.w3.org/2000/svg">
  <defs>
    <style id="current-color-scheme" type="text/css">.ColorScheme-Text { color:#ebdbb2; } .ColorScheme-Highlight { color:#458588; }</style>
  </defs>
  <path class="ColorScheme-Text" d="m5 1a1 1 0 0 0-1 1v3a1 1 0 0 0 0.293 0.707l2.293 2.293-2.293 2.293a1 1 0 0 0-0.293 0.707v3a1 1 0 0 0 1 1h6a1 1 0 0 0 1-1v-3a1 1 0 0 0-0.293-0.707l-2.293-2.293 2.293-2.293a1 1 0 0 0 0.293-0.707v-3a1 1 0 0 0-1-1zm1 2h4v1.586l-2 2-2-2zm2 6.414 2 2v1.586h-4v-1.586z" fill="currentColor"/>
</svg>
