<svg width="16" height="16" version="1.1" xmlns="http://www.w3.org/2000/svg">
  <defs>
    <style id="current-color-scheme" type="text/css">.ColorScheme-Text { color:#ebdbb2; } .ColorScheme-Highlight { color:#458588; }</style>
  </defs>
  <path class="ColorScheme-Text" d="m8 1a7 7 0 0 0-7 7 7 7 0 0 0 7 7 7 7 0 0 0 7-7 7 7 0 0 0-7-7zm1.352 1.671c0 5.011 3.842 5.734 2.863 8.589-0.5584 1.628-1.923 2.864-4.295 2.864-0.00752 0-0.01513 3.5e-5 -0.02222 0 1.174-0.0065 1.852-0.621 2.129-1.43 0.4898-1.427-1.432-1.791-1.432-4.296-1.79 0.7158-2.863 2.394-2.863 3.58 0 1.025 0.7189 1.879 1.68 2.092-2.129-0.2542-3.787-2.042-3.787-4.24 0-2.372 2.147-5.727 5.727-7.159z" fill="currentColor"/>
</svg>
