<svg width="16" height="16" version="1.1" xmlns="http://www.w3.org/2000/svg">
  <defs>
    <style id="current-color-scheme" type="text/css">.ColorScheme-Text { color:#ebdbb2; } .ColorScheme-Highlight { color:#458588; }</style>
  </defs>
  <path class="ColorScheme-Text" d="m4 1s-2 2e-6 -2 2v5l7 7 7-7-7-7h-5zm1 2c0.5523 0 1 0.4477 1 1s-0.4477 1-1 1-1-0.4477-1-1 0.4477-1 1-1zm6.412 2.521c0.1134 0.002809 0.1973 0.08789 0.1973 0.08789l0.7812 0.7812s0.1957 0.195 0 0.3906l-0.6953 0.6973-1.174-1.174 0.6973-0.6953c0.04892-0.04891 0.09672-0.07478 0.1426-0.08398 0.0172-0.003439 0.03459-0.004308 0.05078-0.003906zm-1.281 1.176 1.172 1.172-3.127 3.131h-1.176v-1.176l3.131-3.127z" fill="currentColor"/>
</svg>
