<svg width="16" height="16" version="1.1" viewBox="0 0 16 16" xmlns="http://www.w3.org/2000/svg">
  <defs>
    <style type="text/css">.ColorScheme-Text { color:#ebdbb2; } .ColorScheme-Highlight { color:#458588; }</style>
  </defs>
  <path class="ColorScheme-Text" transform="matrix(.5 0 0 .5 8.5 7.5)" d="m-2.02-13c-0.04 0.001304-0.07947 0.004283-0.1211 0.01172-0.4994 0.08927-1.118 0.6173-1.566 1.395l-10.8 18.7c-0.5983 1.036-0.6587 2.115-0.1406 2.414l9.352 5.398c0.5181 0.2992 1.417-0.2957 2.016-1.332l10.8-18.71c0.5983-1.036 0.6626-2.107 0.1445-2.406l-9.355-5.402c-0.0972-0.05608-0.2081-0.07813-0.3281-0.07422zm10.02 14c-1 4-5 7-5 9.5 0 2.5 2.23 4.5 5 4.5 2.77 0 5-2 5-4.5 0-2.5-4-5.5-5-9.5z" fill="currentColor"/>
</svg>
