<svg width="16" height="16" version="1.1" viewBox="0 0 16 16" xmlns="http://www.w3.org/2000/svg">
  <defs>
    <style id="current-color-scheme" type="text/css">.ColorScheme-Text { color:#ebdbb2; } .ColorScheme-Highlight { color:#458588; }</style>
  </defs>
  <path class="ColorScheme-Text" d="m10.63 1c-1.097-2.9e-6 -2.041 0.6719-2.459 1.635 1.561 1.003 1.943 2.69 1.809 3.783 0.2084 0.05295 0.426 0.08203 0.6504 0.08203 1.485 3.7e-6 2.689-1.231 2.689-2.75s-1.204-2.75-2.689-2.75zm-4.621 2c-1.657 0-3 1.343-3 3s1.343 3 3 3 3-1.343 3-3-1.343-3-3-3zm3.809 4.252c-0.2535 0.7681-0.7335 1.441-1.377 1.932 0.4323 0.1604 0.8457 0.3628 1.236 0.6035 1.008-1.518 2.67-1.905 3.838-1.754-1.22-0.7794-2.554-0.9575-3.697-0.7812zm3.186 1.748c-1.657 0-3 1.343-3 3s1.343 3 3 3 3-1.343 3-3-1.343-3-3-3zm-7 0.75c-3.049 0.0036-5.619 2.253-6 5.25h10.36c-1.255-1.104-1.656-2.827-1.125-4.316-0.9391-0.5904-2.049-0.9324-3.232-0.9336zm6.252 0h1.496v1.502h1.502v1.496h-1.502v1.502h-1.496v-1.502h-1.502v-1.496h1.502z" fill="currentColor"/>
</svg>
