<svg width="16" height="16" version="1.1" viewBox="0 0 16 16" xmlns="http://www.w3.org/2000/svg">
  <defs>
    <style type="text/css">.ColorScheme-Text { color:#ebdbb2; } .ColorScheme-Highlight { color:#458588; }</style>
  </defs>
  <path class="ColorScheme-Text" fill="currentColor" d="m11 1a2.5 2.5 0 0 0-2.428 1.939 4 4 0 0 1 1.414 2.84 2.5 2.5 0 0 0 1.016 0.2207 2.5 2.5 0 0 0 2.5-2.5h-2.5l2.5-0.001953a2.5 2.5 0 0 0-2.502-2.498zm-5.006 2c-1.657-4.2e-6 -3 1.343-3 3 1.3e-5 1.657 1.343 3 3 3 1.657 4e-6 3-1.343 3-3s-1.343-3-3-3zm5.008 3.994a5 5 0 0 0-1.168 0.1504 4 4 0 0 1-1.316 1.941 7.5 7.5 0 0 1 1.74 0.9141h0.7422v-2h2.988a5 5 0 0 0-2.984-1.006h-0.001953zm0.998 2.006v2h-2v2h2v2h2v-2h2v-2h-2v-2h-2zm-6.006 0.75c-3.049 0.0036-5.619 2.253-6 5.25h9.006 2v-1h-2v-3.451c-0.8891-0.5071-1.916-0.7978-3.006-0.7988z"/>
</svg>
