<svg width="22" height="22" version="1.1" xmlns="http://www.w3.org/2000/svg">
  <defs>
    <style id="current-color-scheme" type="text/css">.ColorScheme-Text { color:#282828; } .ColorScheme-Highlight { color:#458588; } .ColorScheme-NeutralText { color:#fe8019; } .ColorScheme-PositiveText { color:#689d6a; } .ColorScheme-NegativeText { color:#fb4934; }</style>
  </defs>
  <path class="ColorScheme-Text" d="m5.845 3c-0.1458 0.1102-1.438 2.137-1.974 3.023-0.6295 1.041-0.8076 1.174-0.8587 1.571-0.07163 0.5544 0.1119 0.6473 1.992 2.595 0.6325 0.6551 1.162 1.228 1.177 1.274 0.07067 0.2056 0.01464 0.5159-0.1905 1.059-0.2816 0.7447-0.3077 0.9523-0.1717 1.402 0.1479 0.4887 0.399 0.8819 0.7776 1.224 0.3521 0.3165 0.4887 0.6337 0.6964 0.6401 0.07435 0.0016 0.4936-0.427 0.9306-0.662v-0.0031c0.9521-0.51 1.093-0.6161 1.821-1.352 0.6119-0.619 0.7271-0.8053 0.6402-1.04-0.02958-0.07932-0.4917-0.5642-1.024-1.077-1.258-1.212-1.203-0.7204-0.7245-2.036 0.2843-0.7811 0.3571-1.023 0.356-1.24-0.001599-0.3271-0.108-0.5702-0.3216-0.74-0.0865-0.0689-0.8466-0.4211-1.689-0.7806-0.8429-0.3592-1.527-0.6766-1.521-0.7057 0.01343-0.06651 0.9429-0.1805 1.618-0.1998l0.509-0.01249 0.9399 0.3747c0.8186 0.3266 0.9472 0.3922 1.009 0.5246 0.03869 0.08345 0.06934 0.1961 0.0687 0.2498-6.391e-4 0.05452-0.1524 1.131-0.3373 2.027-0.3236 1.568-0.3339 1.309-0.2498 1.405 0.1335 0.1519 1.443 0.5034 1.852 0.4684 0.4665-0.04237 1.418-0.3657 1.515-0.4746 0.07787-0.08825 0.0641 0.1335-0.2529-1.399-0.1851-0.8951-0.3366-1.973-0.3373-2.027-6.4e-4 -0.05436 0.02969-0.1657 0.0687-0.2498 0.06156-0.1324 0.1828-0.1961 0.9118-0.4871 1.175-0.4699 1.152-0.4673 2.22-0.3591 0.4988 0.04828 0.9253 0.1145 0.9493 0.1405 0.02718 0.03022-0.0031 0.06722-0.07183 0.0968-0.06555 0.03038-0.7516 0.3235-1.527 0.6557-0.7758 0.3321-1.493 0.6634-1.593 0.7369-0.2339 0.1728-0.345 0.4198-0.3466 0.7588-0.0013 0.2141 0.07315 0.4522 0.3497 1.209 0.1928 0.5273 0.3497 1.007 0.3497 1.068 0 0.2443-0.1613 0.1242-1.046 0.9742-0.5083 0.4886-0.9592 0.9581-1.002 1.046-0.04316 0.08761-0.06604 0.2235-0.05309 0.2998 0.02238 0.13 0.6289 0.8011 1.249 1.38 0.2605 0.243 1.84 1.373 2.092 1.418 0.211 0.03677 0.4363-0.3212 0.8057-0.6713 0.3629-0.3437 0.5805-0.6875 0.7276-1.155 0.1375-0.4377 0.1048-0.7328-0.1686-1.443-0.2078-0.5418-0.2624-0.8399-0.1936-1.043 0.01599-0.04844 0.5807-0.6575 1.252-1.355 1.465-1.52 1.812-1.789 1.892-2.061 0.08953-0.3012 0.02658-0.6998-0.1749-1.099-0.478-0.9554-2.463-3.947-2.632-3.947-0.8698 0.1591-1.597 0.8385-2.514 1-0.6893-0.6974-1.671-0.8426-2.642-1-1.198 0.2082-1.695 0.2341-2.645 1-0.9027-0.1493-1.573-0.8782-2.508-1zm5.159 11.58c-0.2174-9.99e-4 -0.4344 0.08788-0.8213 0.2685-0.6937 0.3229-2.255 1.202-2.386 1.346-0.1353 0.1487-0.06608 0.2889 0.2748 0.5527 0.7024 0.5436 2.049 1.586 2.049 1.586 0.9155 0.8905 0.8442 0.8927 1.783-0.02498 0 0 0.981-0.7404 1.855-1.455 0.4922-0.4013 0.5702-0.5009 0.4903-0.6432-0.06443-0.1135-1.652-1.007-2.411-1.355-0.3988-0.183-0.6164-0.2738-0.8338-0.2748z" fill="currentColor"/>
</svg>
