<svg width="22" height="22" version="1.1" xmlns="http://www.w3.org/2000/svg">
  <defs>
    <style id="current-color-scheme" type="text/css">.ColorScheme-Text { color:#282828; } .ColorScheme-Highlight { color:#458588; } .ColorScheme-NeutralText { color:#fe8019; } .ColorScheme-PositiveText { color:#689d6a; } .ColorScheme-NegativeText { color:#fb4934; }</style>
  </defs>
  <path class="ColorScheme-Text" d="m6 3c-0.554 0-1 0.446-1 1v5h2v-6zm2 0v16h3a1 1 0 0 1 1-1 1 1 0 0 1 0.998 0.9297 1.5 1.5 0 0 1 2e-3 0.07h2c0.554 0 1-0.446 1-1v-14c0-0.554-0.446-1-1-1h-2a1 1 0 0 1-0.0059 0.1 1 1 0 0 1-0.9941 0.9003 1 1 0 0 1-1-1zm2 3h4v2h-4zm0 4h4v2h-4zm-5 1v7c0 0.554 0.446 1 1 1h1v-8zm5 3h4v2h-4z" fill="currentColor"/>
</svg>
