<svg width="22" height="22" version="1.1" xmlns="http://www.w3.org/2000/svg">
  <defs>
    <style id="current-color-scheme" type="text/css">.ColorScheme-Text { color:#282828; } .ColorScheme-Highlight { color:#458588; } .ColorScheme-NeutralText { color:#fe8019; } .ColorScheme-PositiveText { color:#689d6a; } .ColorScheme-NegativeText { color:#fb4934; }</style>
  </defs>
  <path class="ColorScheme-Text" d="m4.968 10.99s2 0.02271 3 0.02268c0.4072-2.5e-5 0.7412 3.46e-4 1 3.46e-4 1 0 1 0 1 1 0 0.2561 0 0.574 1e-6 0.9772 0 0.4017-1e-6 0.7581-1e-6 1.023 0 1 0 1-1 1-0.2543 0-0.6067-2.44e-4 -1-2.44e-4 -1 0-3-0.02268-3-0.02268m1.137e-4 -8v8m-9.82e-5 -3.977 2-4e-6c2 0 2 0 2-2l-1.7e-5 -0.9997c0-1 0-1-1-1-0.2576 0-0.5967-3.479e-4 -1-3.471e-4l-2 3.8e-6m9.82e-5 8v-8" fill="none" stroke="currentColor" stroke-linecap="round" stroke-linejoin="bevel" stroke-width="2"/>
  <path class="ColorScheme-Text" d="m18 15-2-3m-2-1 2-4e-6c0.4238-1e-6 0.729 4.54e-4 1 4.54e-4 1 0 1 0 1-1 0-0.2567 1.5e-5 -0.5998 1.2e-5 -1l-1.2e-5 -0.9996c0-1 0-1-1-1-0.2245 0-0.5441 0.00944-0.8745 0.00719-1.125-0.00765-2.125-0.00756-2.125-0.00756m9.9e-5 8v-8" fill="none" stroke="currentColor" stroke-linecap="round" stroke-width="2"/>
</svg>
