<svg width="22" height="22" version="1.1" xmlns="http://www.w3.org/2000/svg">
  <defs>
    <style id="current-color-scheme" type="text/css">.ColorScheme-Text { color:#282828; } .ColorScheme-Highlight { color:#458588; } .ColorScheme-NeutralText { color:#fe8019; } .ColorScheme-PositiveText { color:#689d6a; } .ColorScheme-NegativeText { color:#fb4934; }</style>
  </defs>
  <path class="ColorScheme-Text" d="m3 16.2v0.547c0 1.212 1.038 2.25 2.25 2.25h11.5c1.212 0 2.25-1.038 2.25-2.25v-0.547c-0.532 0.485-1.225 0.797-2 0.797h-12c-0.7746 0-1.468-0.312-2-0.797z" fill="currentColor"/>
  <path class="ColorScheme-Text" d="m11.08 6.294-1.08 3.992h2.18zm-1.181-1.297h2.315l2.91 9h-1.91l-0.609-2h-3.077l-0.6171 2h-1.91zm-3.898-2c-1.019-1.709e-4 -1.876 0.7662-1.988 1.779l-1 9c-0.1316 1.185 0.7961 2.221 1.988 2.221h12c1.192 1.4e-5 2.12-1.036 1.988-2.221l-1-9c-0.1126-1.013-0.9688-1.779-1.988-1.779z" fill="currentColor" opacity=".3"/>
  <path class="ColorScheme-Text" d="m11.08 6.294-1.08 3.992h2.18zm-1.181-1.297h2.315l2.91 9h-1.91l-0.609-2h-3.077l-0.6171 2h-1.91z" fill="currentColor"/>
</svg>
