<svg width="22" height="22" version="1.1" xmlns="http://www.w3.org/2000/svg">
  <defs>
    <style id="current-color-scheme" type="text/css">.ColorScheme-Text { color:#282828; } .ColorScheme-Highlight { color:#458588; } .ColorScheme-NeutralText { color:#fe8019; } .ColorScheme-PositiveText { color:#689d6a; } .ColorScheme-NegativeText { color:#fb4934; }</style>
  </defs>
  <path class="ColorScheme-Text" d="m4 4c-0.554 0-1 0.446-1 1v10c0 0.554 0.446 1 1 1h-2v1c0 0.554 0.892 1 2 1h13v-3h-12v-9h12v3h2v-4c0-0.554-0.446-1-1-1h-14zm5 12h4v1h-4v-1z" fill="currentColor"/>
  <path class="ColorScheme-Highlight" d="m18 10v4l0.25 2h1.5l0.25-2v-4zm0 7v2h2v-2z" fill="currentColor"/>
</svg>
