<svg width="22" height="22" version="1.1" xmlns="http://www.w3.org/2000/svg">
  <defs>
    <style id="current-color-scheme" type="text/css">.ColorScheme-Text { color:#282828; } .ColorScheme-Highlight { color:#458588; } .ColorScheme-NeutralText { color:#fe8019; } .ColorScheme-PositiveText { color:#689d6a; } .ColorScheme-NegativeText { color:#fb4934; }</style>
  </defs>
  <path class="ColorScheme-Text" d="m11 3c-4.406 0-8 3.594-8 8 0 2.968 1.634 5.561 4.045 6.941-0.0263-0.144-0.0449-0.29-0.0449-0.441 0-0.607 0.2387-1.133 0.6211-1.535-1.584-1.078-2.621-2.895-2.621-4.965 0-3.326 2.674-6 6-6 3.326 0 6 2.674 6 6 0 0.529-0.074 1.039-0.201 1.527 0.442 0.51 0.782 1.117 0.971 1.793 0.144 0.044 0.284 0.099 0.421 0.159 0.513-1.054 0.809-2.232 0.809-3.479 0-4.406-3.594-8-8-8zm0 3c-2.756 0-5 2.244-5 5 0 1.866 1.042 3.479 2.562 4.338 0.1618-0.065 0.3283-0.121 0.502-0.156 0.017-0.22 0.0614-0.431 0.1074-0.641-1.286-0.664-2.172-1.989-2.172-3.541 0-2.215 1.785-4 4-4 2.215 0 4 1.785 4 4 0 0.089-0.02 0.172-0.025 0.26 0.344 0.125 0.661 0.304 0.961 0.508 0.039-0.251 0.064-0.506 0.064-0.768 0-2.756-2.244-5-5-5zm2.5 5.998v2e-3a3.5 3.5 0 0 0-3.5 3.5 3.5 3.5 0 0 0 0.053 0.607 1.5 1.5 0 0 0-0.553-0.107 1.5 1.5 0 0 0-1.5 1.5 1.5 1.5 0 0 0 1.5 1.5h7.5a2 2 0 0 0 2-2 2 2 0 0 0-2-2 2 2 0 0 0-0.039 0 3.5 3.5 0 0 0-3.461-3.002z" fill="currentColor"/>
</svg>
