<svg width="22" height="22" version="1.1" xmlns="http://www.w3.org/2000/svg">
  <defs>
    <style id="current-color-scheme" type="text/css">.ColorScheme-Text { color:#282828; } .ColorScheme-Highlight { color:#458588; } .ColorScheme-NeutralText { color:#fe8019; } .ColorScheme-PositiveText { color:#689d6a; } .ColorScheme-NegativeText { color:#fb4934; }</style>
  </defs>
  <path class="ColorScheme-Text" d="m6 9c-1.105 0-2 0.8954-2 2s0.8954 2 2 2 2-0.8954 2-2-0.8954-2-2-2zm5 0c-1.105 0-2 0.8954-2 2s0.8954 2 2 2c1.105 0 2-0.8954 2-2s-0.8954-2-2-2zm5 0c-1.105 0-2 0.8954-2 2s0.8954 2 2 2 2-0.8954 2-2-0.8954-2-2-2z" fill="currentColor"/>
  <path class="ColorScheme-Text" d="m2 7.241 0.6348 0.7598h16.74l0.6211-0.7402c-2.572-1.898-5.618-3.26-8.998-3.261-3.379-9.765e-4 -6.434 1.35-9.002 3.241zm5.654 6.76 3.346 4 3.352-4z" fill="currentColor" opacity=".3"/>
</svg>
