<svg width="22" height="22" version="1.1" xmlns="http://www.w3.org/2000/svg">
  <defs>
    <style id="current-color-scheme" type="text/css">.ColorScheme-Text { color:#282828; } .ColorScheme-Highlight { color:#458588; } .ColorScheme-NeutralText { color:#fe8019; } .ColorScheme-PositiveText { color:#689d6a; } .ColorScheme-NegativeText { color:#fb4934; }</style>
  </defs>
  <path class="ColorScheme-Text" d="m2 7.24 9 10.76 9-10.74c-2.572-1.898-5.618-3.26-8.998-3.262-3.379-0.001953-6.434 1.349-9.003 3.24zm9-0.2402c1.11 0 2 0.9 2 2 0 1.11-0.89 2-2 2v1h-1v-2h1c0.56 0 1-0.44 1-1 0-0.55-0.44-1-1-1-0.55 0-1 0.45-1 1h-1c0-1.1 0.9-2 2-2zm-1 6h1v1h-1z" fill="currentColor"/>
</svg>
