<svg width="22" height="22" version="1.1" xmlns="http://www.w3.org/2000/svg">
  <defs>
    <style id="current-color-scheme" type="text/css">.ColorScheme-Text { color:#282828; } .ColorScheme-Highlight { color:#458588; } .ColorScheme-NeutralText { color:#fe8019; } .ColorScheme-PositiveText { color:#689d6a; } .ColorScheme-NegativeText { color:#fb4934; }</style>
  </defs>
  <path class="ColorScheme-Text" d="m12.74 3.221c-0.06636-0.00412-0.131-0.00114-0.1953 0.00781l2e-3 0.00194c-0.386 0.05374-0.7209 0.3323-0.8281 0.7324-9e-3 0.03217-0.01256 0.06466-0.01757 0.09766-2.331-0.1496-4.51 1.351-5.139 3.697l-0.5195 1.932-0.6465 2.414-2.449 1.414-0.1289 0.4844 13.52 3.623 0.1289-0.4844-1.414-2.449 1.164-4.346c0.1749-0.6528 0.2092-1.309 0.127-1.937-1.085-0.2979-1.837-1.283-1.838-2.408 0.0011-0.2553 0.04127-0.5089 0.1191-0.752-0.3047-0.261-0.6399-0.4925-1.01-0.6758 0.01253-0.03093 0.0224-0.06157 0.03123-0.09376 0.1429-0.5335-0.1736-1.082-0.707-1.225-0.0667-0.01787-0.1348-0.02908-0.2012-0.0332zm-3.863 13.44c0.1846 0.689 0.7236 1.226 1.412 1.412 0.6898 0.1842 1.427-0.01271 1.932-0.5176z" fill="currentColor"/>
  <circle class="ColorScheme-Highlight" cx="17" cy="6" r="1.5" fill="currentColor"/>
</svg>
