<svg width="22" height="22" version="1.1" xmlns="http://www.w3.org/2000/svg">
  <defs>
    <style id="current-color-scheme" type="text/css">.ColorScheme-Text { color:#282828; } .ColorScheme-Highlight { color:#458588; } .ColorScheme-NeutralText { color:#fe8019; } .ColorScheme-PositiveText { color:#689d6a; } .ColorScheme-NegativeText { color:#fb4934; }</style>
  </defs>
  <path class="ColorScheme-Text" d="m4.609 4.003c-1.225 0.05197-2.037 1.319-1.369 2.369l0.06445 0.06445 6.707 0.7383c-0.0049-0.05786-0.0088-0.1158-0.01172-0.1738 0.00444-0.8281 0.2145-1.642 0.6113-2.369l-5.752-0.623c-0.1076-0.009849-0.1671-0.009436-0.25-0.00595zm-0.7208 3.504 4.66 8.133c0.5841-0.09439 0.6932-0.2453 1.055-0.748l2.52-3.814c-0.9803-0.693-1.678-1.716-1.967-2.881zm6.54 7.953-0.582 0.8086c-0.259 0.3112-0.7784 0.3109-0.9727-0.0625l0.584 0.9961c0.1295 0.1867 0.2592 0.3111 0.3887 0.4355 0.7123 0.5601 1.878 0.4983 2.461-0.373l3.664-5.371c-0.3193 0.06739-0.6444 0.1034-0.9707 0.1074-0.6916-0.0015-1.375-0.1465-2.008-0.4258 0 0-2.561 3.879-2.564 3.885z" fill="currentColor" opacity=".3"/>
  <path class="ColorScheme-Text" d="m13.97 3.138c-2.134 0.5718-3.4 2.765-2.828 4.898 0.5717 2.134 2.765 3.4 4.898 2.828s3.4-2.765 2.828-4.898c-0.4846-1.809-2.133-2.996-3.924-2.967 8e-3 0.00129-0.3977-0.01545-0.974 0.139zm-0.4644 1.863c0.1326 2.83e-5 0.2598 0.05272 0.3535 0.1465l1.146 1.146 1.146-1.146c0.1952-0.1952 0.5118-0.1952 0.707 0 0.1952 0.1952 0.1952 0.5118 0 0.707l-1.146 1.146 1.146 1.146c0.1952 0.1952 0.1952 0.5118 0 0.707-0.1952 0.1952-0.5118 0.1952-0.707 0l-1.146-1.146-1.146 1.146c-0.1952 0.1952-0.5118 0.1952-0.707 0-0.1952-0.1952-0.1952-0.5118 0-0.707l1.146-1.146-1.146-1.146c-0.1952-0.1952-0.1952-0.5118 0-0.707 0.09375-0.09378 0.2209-0.1465 0.3535-0.1465z" fill="currentColor"/>
</svg>
