<svg width="22" height="22" version="1.1" xmlns="http://www.w3.org/2000/svg">
  <defs>
    <style id="current-color-scheme" type="text/css">.ColorScheme-Text { color:#282828; } .ColorScheme-Highlight { color:#458588; } .ColorScheme-NeutralText { color:#fe8019; } .ColorScheme-PositiveText { color:#689d6a; } .ColorScheme-NegativeText { color:#fb4934; }</style>
  </defs>
  <path class="ColorScheme-Text" d="m4.199 3c-0.6648 0-1.199 0.5344-1.199 1.199v13.6c0 0.02937 0.01162 0.05516 0.01367 0.08398 0.1383-0.05703 0.3064-0.1288 0.3633-0.1484 0.7171-0.2471 1.33-0.482 2.439-0.9355 3.445-1.408 4.774-2.216 5.617-3.076 0.4677-0.4771 0.6463-0.9413 0.5332-1.383-0.07022-0.2741-0.1754-0.4406-0.4297-0.6855-0.3791-0.3653-0.9352-0.6663-2.184-1.18-0.9834-0.4044-1.312-0.6084-1.312-0.8164 0-0.1266 0.1437-0.3187 0.3379-0.4492 0.4003-0.269 1.146-0.3881 2.332-0.4668 2.08-0.1379 2.748-0.1863 3.006-0.4121 0.07785-0.06826 0.08287-0.2608 0.009765-0.3574-0.06041-0.07987-0.06914-0.1218-0.04102-0.125 0.02813-0.003162 0.09219 0.03255 0.1797 0.1094 0.1528 0.1342 0.1868 0.2521 0.1191 0.4141-0.1536 0.3676-0.872 0.5271-2.25 0.627-1.328 0.09625-2.144 0.2304-2.074 0.5078 0.0462 0.1841 0.4211 0.3078 1.934 0.6406 2.435 0.5357 3.77 0.8798 4.785 1.387 1.244 0.621 2.03 1.562 2.488 2.98l0.1328 0.3242v-10.64c0-0.6648-0.5344-1.199-1.199-1.199h-13.6zm-1.18 14.93c0.008574 0.07611 0.01312 0.1536 0.03516 0.2246 0.009914 0.03196 0.03185 0.0576 0.04883 0.08594-0.03928-0.09836-0.07162-0.2012-0.08398-0.3105z" fill="currentColor"/>
</svg>
