<svg width="22" height="22" version="1.1" xmlns="http://www.w3.org/2000/svg">
  <defs>
    <style id="current-color-scheme" type="text/css">.ColorScheme-Text { color:#282828; } .ColorScheme-Highlight { color:#458588; } .ColorScheme-NeutralText { color:#fe8019; } .ColorScheme-PositiveText { color:#689d6a; } .ColorScheme-NegativeText { color:#fb4934; }</style>
  </defs>
  <path class="ColorScheme-NeutralText" d="m10 10v4l3e-5 2h2l-3e-5 -2v-4zm0 7v2h2v-2z" fill="currentColor"/>
  <path class="ColorScheme-Text" d="m11 4c-2.071 0-3.835 1.268-4.594 3.062-1.928 0.2866-3.406 1.93-3.406 3.938 0 2.209 1.791 4 4 4h2v-6h4v6h2.5c1.933 0 3.5-1.567 3.5-3.5 0-1.797-1.351-3.269-3.094-3.469-0.4546-2.293-2.479-4.031-4.906-4.031z" fill="currentColor"/>
</svg>
