<svg width="22" height="22" version="1.1" xmlns="http://www.w3.org/2000/svg">
  <defs>
    <style id="current-color-scheme" type="text/css">.ColorScheme-Text { color:#282828; } .ColorScheme-Highlight { color:#458588; } .ColorScheme-NeutralText { color:#fe8019; } .ColorScheme-PositiveText { color:#689d6a; } .ColorScheme-NegativeText { color:#fb4934; }</style>
  </defs>
  <path class="ColorScheme-Text" d="m10.98 3.998c-3.056-9.73e-4 -6.106 0.1236-7.031 0.3652 0-0.0037-1.234 0.3166-1.59 1.604-0.4839 1.866-0.4815 8.232 0 10.06 0.2114 0.7677 0.822 1.38 1.59 1.592 1.158 0.3076 5.449 0.423 9.045 0.3574-0.6447-0.8596-0.9954-1.904-1-2.979 0.0044-0.8531 0.2269-1.691 0.6465-2.434l-3.645 2.43v-8l5.516 3.678c0.7545-0.4373 1.61-0.6696 2.482-0.6738 1.081 4.22e-4 2.133 0.3513 2.998 1 0.0018-2.052-0.1204-4.105-0.375-5.029-0.2003-0.7677-0.8115-1.381-1.578-1.582-0.9425-0.2597-4.003-0.3857-7.059-0.3867zm6.037 6.998c-1.781-0.01776-3.418 1.166-3.9 2.967-0.5718 2.134 0.6943 4.327 2.828 4.898 2.134 0.5718 4.327-0.6943 4.898-2.828 0.5718-2.134-0.6943-4.327-2.828-4.898-0.3334-0.08934-0.6681-0.1354-0.998-0.1387zm-0.0098 1c0.2474 0.0025 0.4999 0.03651 0.75 0.1035l-0.2598 0.9668c-1.067-0.2859-2.163 0.3471-2.449 1.414l-0.9668-0.2598c0.3618-1.35 1.59-2.238 2.926-2.225zm1.904 3.52 0.9668 0.2578c-0.4288 1.6-2.073 2.55-3.674 2.121l0.2578-0.9648c1.067 0.2859 2.163-0.3471 2.449-1.414z" fill="currentColor"/>
</svg>
