<svg width="16" height="16" version="1.1" xmlns="http://www.w3.org/2000/svg">
  <defs>
    <style id="current-color-scheme" type="text/css">.ColorScheme-Text { color:#282828; } .ColorScheme-Highlight { color:#458588; }</style>
  </defs>
  <path class="ColorScheme-Text" d="m4 1c-2 0-2 2-2 2v11c0 2 1.893 1.996 2 2h8s2-4e-3 2-2v-11c0-2-2-2-2-2zm4 2c0.5541 0 1 0.4494 1 1s-0.4459 1-1 1c-0.5542 0-1-0.4494-1-1s0.4458-1 1-1zm0 3c2.209 0 4 1.791 4 4s-1.791 4-4 4-4-1.791-4-4 1.791-4 4-4zm0 2c-1.105 0-2 0.8954-2 2s0.8954 2 2 2 2-0.8954 2-2-0.8954-2-2-2z" fill="currentColor"/>
</svg>
