<svg width="16" height="16" version="1.1" xmlns="http://www.w3.org/2000/svg">
  <defs>
    <style id="current-color-scheme" type="text/css">.ColorScheme-Text { color:#282828; } .ColorScheme-Highlight { color:#458588; }</style>
  </defs>
  <path class="ColorScheme-Text" d="m3 1c-1 0-1 1-1 1v12s2e-6 1 1 1h4.75v-3.52l0.4883-0.4883c-0.07913 0.004666-0.158 0.007812-0.2383 0.007812h-4v-4c0-2.209 1.791-4 4-4s4 1.791 4 4c0 0.08096-0.0031 0.1605-0.0078 0.2402l0.0078-0.00781 2 1.998v-7.23s-2e-6 -1-1-1zm5 4c-1.105 0-2 0.8954-2 2s0.8954 2 2 2 2-0.8954 2-2-0.8954-2-2-2zm4 4-3 2.998v1.002h6v-1.002zm-3 4.998v1.002h6v-1.002z" fill="currentColor"/>
</svg>
